<?xml version="1.0" encoding="utf-8" standalone="no"?>
<!DOCTYPE svg PUBLIC "-//W3C//DTD SVG 1.1//EN"
  "http://www.w3.org/Graphics/SVG/1.1/DTD/svg11.dtd">
<svg xmlns:xlink="http://www.w3.org/1999/xlink" width="460.8pt" height="345.6pt" viewBox="0 0 460.8 345.6" xmlns="http://www.w3.org/2000/svg" version="1.1">
 <metadata>
  <rdf:RDF xmlns:dc="http://purl.org/dc/elements/1.1/" xmlns:cc="http://creativecommons.org/ns#" xmlns:rdf="http://www.w3.org/1999/02/22-rdf-syntax-ns#">
   <cc:Work>
    <dc:type rdf:resource="http://purl.org/dc/dcmitype/StillImage"/>
    <dc:date>2024-04-22T00:29:46.983048</dc:date>
    <dc:format>image/svg+xml</dc:format>
    <dc:creator>
     <cc:Agent>
      <dc:title>Matplotlib v3.7.0, https://matplotlib.org/</dc:title>
     </cc:Agent>
    </dc:creator>
   </cc:Work>
  </rdf:RDF>
 </metadata>
 <defs>
  <style type="text/css">*{stroke-linejoin: round; stroke-linecap: butt}</style>
 </defs>
 <g id="figure_1">
  <g id="patch_1">
   <path d="M 0 345.6 
L 460.8 345.6 
L 460.8 0 
L 0 0 
L 0 345.6 
z
" style="fill: none"/>
  </g>
  <g id="axes_1"/>
  <g id="axes_2">
   <g id="patch_2">
    <path d="M 57.6 307.584 
L 414.72 307.584 
L 414.72 41.472 
L 57.6 41.472 
L 57.6 307.584 
z
" style="fill: none"/>
   </g>
   <g id="PathCollection_1">
    <path d="M 173.032727 307.584 
L 176.64 307.584 
L 180.247273 307.584 
L 183.854545 307.584 
L 187.461818 307.584 
L 191.069091 307.584 
L 194.676364 307.584 
L 198.283636 307.584 
L 201.453862 307.584 
L 201.453862 304.896 
L 201.453862 302.208 
L 201.453862 299.52 
L 201.453862 296.832 
L 201.453862 294.144 
L 201.453862 291.456 
L 201.453862 288.768 
L 201.453862 286.08 
L 201.453862 283.392 
L 201.453862 280.704 
L 201.453862 278.016 
L 201.453862 275.328 
L 201.453862 272.64 
L 201.453862 269.952 
L 201.453862 267.264 
L 201.453862 264.576 
L 201.453862 261.888 
L 201.453862 259.2 
L 201.453862 256.512 
L 201.453862 253.824 
L 201.453862 251.136 
L 201.453862 248.448 
L 201.453862 245.76 
L 201.453862 243.072 
L 201.453862 240.384 
L 201.453862 237.696 
L 201.453862 235.008 
L 201.453862 232.32 
L 201.453862 229.632 
L 199.801521 226.944 
L 199.801521 224.256 
L 199.801521 221.568 
L 199.801521 218.88 
L 199.801521 216.192 
L 199.801521 213.504 
L 199.801521 210.816 
L 199.801521 208.128 
L 199.801521 205.44 
L 199.801521 202.752 
L 199.801521 200.064 
L 199.801521 197.376 
L 199.801521 194.688 
L 199.801521 192 
L 199.801521 189.312 
L 199.801521 186.624 
L 199.801521 183.936 
L 199.801521 181.248 
L 199.801521 178.56 
L 199.801521 175.872 
L 199.801521 173.184 
L 199.801521 170.496 
L 199.801521 167.808 
L 199.801521 165.12 
L 199.801521 162.432 
L 198.283636 160.747597 
L 194.676364 160.747597 
L 191.069091 160.747597 
L 187.461818 160.747597 
L 183.854545 160.747597 
L 180.247273 160.747597 
L 176.64 160.747597 
L 173.032727 160.747597 
L 172.318374 162.432 
L 172.318374 165.12 
L 172.318374 167.808 
L 172.318374 170.496 
L 172.318374 173.184 
L 172.318374 175.872 
L 172.318374 178.56 
L 172.318374 181.248 
L 172.318374 183.936 
L 172.318374 186.624 
L 172.318374 189.312 
L 172.318374 192 
L 172.318374 194.688 
L 172.318374 197.376 
L 172.318374 200.064 
L 172.318374 202.752 
L 172.318374 205.44 
L 172.318374 208.128 
L 172.318374 210.816 
L 172.318374 213.504 
L 172.318374 216.192 
L 172.318374 218.88 
L 172.318374 221.568 
L 172.318374 224.256 
L 172.318374 226.944 
L 171.540744 229.632 
L 171.540744 232.32 
L 171.540744 235.008 
L 171.540744 237.696 
L 171.540744 240.384 
L 171.540744 243.072 
L 171.540744 245.76 
L 171.540744 248.448 
L 171.540744 251.136 
L 171.540744 253.824 
L 171.540744 256.512 
L 171.540744 259.2 
L 171.540744 261.888 
L 171.540744 264.576 
L 171.540744 267.264 
L 171.540744 269.952 
L 171.540744 272.64 
L 171.540744 275.328 
L 171.540744 278.016 
L 171.540744 280.704 
L 171.540744 283.392 
L 171.540744 286.08 
L 171.540744 288.768 
L 171.540744 291.456 
L 171.540744 294.144 
L 171.540744 296.832 
L 171.540744 299.52 
L 171.540744 302.208 
L 171.540744 304.896 
L 171.540744 307.584 
z
" clip-path="url(#p866f36b1a5)" style="fill: #481b6d; fill-opacity: 0.75"/>
   </g>
   <g id="PathCollection_2">
    <path d="M 169.425455 307.584 
L 171.540744 307.584 
L 171.540744 304.896 
L 171.540744 302.208 
L 171.540744 299.52 
L 171.540744 296.832 
L 171.540744 294.144 
L 171.540744 291.456 
L 171.540744 288.768 
L 171.540744 286.08 
L 171.540744 283.392 
L 171.540744 280.704 
L 171.540744 278.016 
L 171.540744 275.328 
L 171.540744 272.64 
L 171.540744 269.952 
L 171.540744 267.264 
L 171.540744 264.576 
L 171.540744 261.888 
L 171.540744 259.2 
L 171.540744 256.512 
L 171.540744 253.824 
L 171.540744 251.136 
L 171.540744 248.448 
L 171.540744 245.76 
L 171.540744 243.072 
L 171.540744 240.384 
L 171.540744 237.696 
L 171.540744 235.008 
L 171.540744 232.32 
L 171.540744 229.632 
L 172.318374 226.944 
L 172.318374 224.256 
L 172.318374 221.568 
L 172.318374 218.88 
L 172.318374 216.192 
L 172.318374 213.504 
L 172.318374 210.816 
L 172.318374 208.128 
L 172.318374 205.44 
L 172.318374 202.752 
L 172.318374 200.064 
L 172.318374 197.376 
L 172.318374 194.688 
L 172.318374 192 
L 172.318374 189.312 
L 172.318374 186.624 
L 172.318374 183.936 
L 172.318374 181.248 
L 172.318374 178.56 
L 172.318374 175.872 
L 172.318374 173.184 
L 172.318374 170.496 
L 172.318374 167.808 
L 172.318374 165.12 
L 172.318374 162.432 
L 173.032727 160.747597 
L 176.64 160.747597 
L 180.247273 160.747597 
L 183.854545 160.747597 
L 187.461818 160.747597 
L 191.069091 160.747597 
L 194.676364 160.747597 
L 198.283636 160.747597 
L 199.801521 162.432 
L 199.801521 165.12 
L 199.801521 167.808 
L 199.801521 170.496 
L 199.801521 173.184 
L 199.801521 175.872 
L 199.801521 178.56 
L 199.801521 181.248 
L 199.801521 183.936 
L 199.801521 186.624 
L 199.801521 189.312 
L 199.801521 192 
L 199.801521 194.688 
L 199.801521 197.376 
L 199.801521 200.064 
L 199.801521 202.752 
L 199.801521 205.44 
L 199.801521 208.128 
L 199.801521 210.816 
L 199.801521 213.504 
L 199.801521 216.192 
L 199.801521 218.88 
L 199.801521 221.568 
L 199.801521 224.256 
L 199.801521 226.944 
L 201.453862 229.632 
L 201.453862 232.32 
L 201.453862 235.008 
L 201.453862 237.696 
L 201.453862 240.384 
L 201.453862 243.072 
L 201.453862 245.76 
L 201.453862 248.448 
L 201.453862 251.136 
L 201.453862 253.824 
L 201.453862 256.512 
L 201.453862 259.2 
L 201.453862 261.888 
L 201.453862 264.576 
L 201.453862 267.264 
L 201.453862 269.952 
L 201.453862 272.64 
L 201.453862 275.328 
L 201.453862 278.016 
L 201.453862 280.704 
L 201.453862 283.392 
L 201.453862 286.08 
L 201.453862 288.768 
L 201.453862 291.456 
L 201.453862 294.144 
L 201.453862 296.832 
L 201.453862 299.52 
L 201.453862 302.208 
L 201.453862 304.896 
L 201.453862 307.584 
L 201.890909 307.584 
L 205.498182 307.584 
L 209.105455 307.584 
L 212.712727 307.584 
L 216.32 307.584 
L 219.927273 307.584 
L 223.534545 307.584 
L 227.141818 307.584 
L 230.749091 307.584 
L 234.356364 307.584 
L 237.963636 307.584 
L 241.570909 307.584 
L 245.178182 307.584 
L 248.785455 307.584 
L 252.392727 307.584 
L 256 307.584 
L 259.607273 307.584 
L 263.214545 307.584 
L 266.821818 307.584 
L 270.429091 307.584 
L 274.036364 307.584 
L 277.643636 307.584 
L 281.250909 307.584 
L 284.858182 307.584 
L 288.465455 307.584 
L 292.072727 307.584 
L 295.68 307.584 
L 299.287273 307.584 
L 302.894545 307.584 
L 306.501818 307.584 
L 310.109091 307.584 
L 313.716364 307.584 
L 317.323636 307.584 
L 320.930909 307.584 
L 324.538182 307.584 
L 328.145455 307.584 
L 331.752727 307.584 
L 335.36 307.584 
L 338.967273 307.584 
L 342.574545 307.584 
L 346.181818 307.584 
L 349.789091 307.584 
L 353.396364 307.584 
L 357.003636 307.584 
L 360.610909 307.584 
L 364.218182 307.584 
L 367.825455 307.584 
L 371.432727 307.584 
L 375.04 307.584 
L 378.647273 307.584 
L 382.254545 307.584 
L 385.861818 307.584 
L 389.469091 307.584 
L 393.076364 307.584 
L 396.683636 307.584 
L 400.290909 307.584 
L 403.898182 307.584 
L 407.505455 307.584 
L 411.112727 307.584 
L 414.72 307.584 
L 414.72 304.896 
L 414.72 302.208 
L 414.72 299.52 
L 414.72 296.832 
L 414.72 294.144 
L 414.72 291.456 
L 414.72 288.768 
L 414.72 286.08 
L 414.72 283.392 
L 414.72 280.704 
L 414.72 278.016 
L 414.72 275.328 
L 414.72 272.64 
L 414.72 269.952 
L 414.72 267.264 
L 414.72 264.576 
L 414.72 261.888 
L 414.72 259.2 
L 414.72 256.512 
L 414.72 253.824 
L 414.72 251.136 
L 414.72 248.448 
L 414.72 245.76 
L 414.72 243.072 
L 414.72 240.384 
L 414.72 237.696 
L 414.72 235.008 
L 414.72 232.32 
L 414.72 229.632 
L 414.72 226.944 
L 414.72 224.256 
L 414.72 221.568 
L 414.72 218.88 
L 414.72 216.192 
L 414.72 213.504 
L 414.72 210.816 
L 414.72 208.128 
L 414.72 205.44 
L 414.72 202.752 
L 414.72 200.064 
L 414.72 197.376 
L 414.72 194.688 
L 414.72 192 
L 414.72 189.312 
L 414.72 186.624 
L 414.72 183.936 
L 414.72 181.248 
L 414.72 178.56 
L 414.72 175.872 
L 414.72 173.184 
L 414.72 170.496 
L 414.72 167.808 
L 414.72 165.12 
L 414.72 162.432 
L 414.72 159.744 
L 414.72 157.056 
L 414.72 154.368 
L 414.72 151.68 
L 414.72 148.992 
L 414.72 146.304 
L 414.72 143.616 
L 414.72 140.928 
L 414.72 138.24 
L 414.72 135.552 
L 414.72 132.864 
L 414.72 130.176 
L 414.72 127.488 
L 414.72 124.8 
L 414.72 122.112 
L 414.72 122.047638 
L 411.112727 122.047638 
L 407.505455 122.047638 
L 403.898182 122.047638 
L 400.290909 122.047638 
L 396.683636 122.047638 
L 393.076364 122.047638 
L 389.469091 122.047638 
L 385.861818 122.047638 
L 382.254545 122.047638 
L 378.647273 122.047638 
L 375.04 122.047638 
L 371.432727 122.047638 
L 367.825455 122.047638 
L 364.218182 122.047638 
L 360.610909 122.047638 
L 357.003636 122.047638 
L 353.396364 122.047638 
L 349.789091 122.047638 
L 346.181818 122.047638 
L 342.574545 122.047638 
L 338.967273 122.047638 
L 335.36 122.047638 
L 331.752727 122.047638 
L 328.145455 122.047638 
L 324.538182 122.047638 
L 320.930909 122.047638 
L 317.323636 122.047638 
L 313.716364 122.047638 
L 310.109091 122.047638 
L 306.501818 122.047638 
L 302.894545 122.047638 
L 299.287273 122.047638 
L 295.68 122.047638 
L 292.072727 122.047638 
L 288.465455 122.047638 
L 284.858182 122.047638 
L 281.250909 122.047638 
L 277.643636 122.047638 
L 274.036364 122.047638 
L 270.429091 122.047638 
L 266.821818 122.047638 
L 263.214545 122.047638 
L 259.607273 122.047638 
L 256 122.047638 
L 252.392727 122.047638 
L 248.785455 122.047638 
L 245.178182 122.047638 
L 241.570909 122.047638 
L 237.963636 122.047638 
L 234.356364 122.047638 
L 230.749091 122.047638 
L 227.141818 122.047638 
L 223.534545 122.047638 
L 219.927273 122.047638 
L 216.32 122.047638 
L 212.712727 122.047638 
L 209.105455 122.047638 
L 205.498182 122.047638 
L 201.890909 122.047638 
L 198.283636 120.365347 
L 194.676364 120.365347 
L 191.069091 120.365347 
L 187.461818 120.365347 
L 183.854545 120.365347 
L 180.247273 120.365347 
L 176.64 120.365347 
L 173.032727 120.365347 
L 171.270108 122.112 
L 171.270108 124.8 
L 171.270108 127.488 
L 171.270108 130.176 
L 171.270108 132.864 
L 171.270108 135.552 
L 171.270108 138.24 
L 171.270108 140.928 
L 171.270108 143.616 
L 171.270108 146.304 
L 171.270108 148.992 
L 171.270108 151.68 
L 171.270108 154.368 
L 171.270108 157.056 
L 171.270108 159.744 
L 170.130132 162.432 
L 170.130132 165.12 
L 170.130132 167.808 
L 170.130132 170.496 
L 170.130132 173.184 
L 170.130132 175.872 
L 170.130132 178.56 
L 170.130132 181.248 
L 170.130132 183.936 
L 170.130132 186.624 
L 170.130132 189.312 
L 170.130132 192 
L 170.130132 194.688 
L 170.130132 197.376 
L 170.130132 200.064 
L 170.130132 202.752 
L 170.130132 205.44 
L 170.130132 208.128 
L 170.130132 210.816 
L 170.130132 213.504 
L 170.130132 216.192 
L 170.130132 218.88 
L 170.130132 221.568 
L 170.130132 224.256 
L 170.130132 226.944 
L 169.425455 229.379825 
L 169.379186 229.632 
L 169.379186 232.32 
L 169.379186 235.008 
L 169.379186 237.696 
L 169.379186 240.384 
L 169.379186 243.072 
L 169.379186 245.76 
L 169.379186 248.448 
L 169.379186 251.136 
L 169.379186 253.824 
L 169.379186 256.512 
L 169.379186 259.2 
L 169.379186 261.888 
L 169.379186 264.576 
L 169.379186 267.264 
L 169.379186 269.952 
L 169.379186 272.64 
L 169.379186 275.328 
L 169.379186 278.016 
L 169.379186 280.704 
L 169.379186 283.392 
L 169.379186 286.08 
L 169.379186 288.768 
L 169.379186 291.456 
L 169.379186 294.144 
L 169.379186 296.832 
L 169.379186 299.52 
L 169.379186 302.208 
L 169.379186 304.896 
L 169.379186 307.584 
z
" clip-path="url(#p866f36b1a5)" style="fill: #3f4788; fill-opacity: 0.75"/>
   </g>
   <g id="PathCollection_3">
    <path d="M 169.379186 304.896 
L 169.379186 302.208 
L 169.379186 299.52 
L 169.379186 296.832 
L 169.379186 294.144 
L 169.379186 291.456 
L 169.379186 288.768 
L 169.379186 286.08 
L 169.379186 283.392 
L 169.379186 280.704 
L 169.379186 278.016 
L 169.379186 275.328 
L 169.379186 272.64 
L 169.379186 269.952 
L 169.379186 267.264 
L 169.379186 264.576 
L 169.379186 261.888 
L 169.379186 259.2 
L 169.379186 256.512 
L 169.379186 253.824 
L 169.379186 251.136 
L 169.379186 248.448 
L 169.379186 245.76 
L 169.379186 243.072 
L 169.379186 240.384 
L 169.379186 237.696 
L 169.379186 235.008 
L 169.379186 232.32 
L 169.379186 229.632 
L 169.425455 229.379825 
L 170.130132 226.944 
L 170.130132 224.256 
L 170.130132 221.568 
L 170.130132 218.88 
L 170.130132 216.192 
L 170.130132 213.504 
L 170.130132 210.816 
L 170.130132 208.128 
L 170.130132 205.44 
L 170.130132 202.752 
L 170.130132 200.064 
L 170.130132 197.376 
L 170.130132 194.688 
L 170.130132 192 
L 170.130132 189.312 
L 170.130132 186.624 
L 170.130132 183.936 
L 170.130132 181.248 
L 170.130132 178.56 
L 170.130132 175.872 
L 170.130132 173.184 
L 170.130132 170.496 
L 170.130132 167.808 
L 170.130132 165.12 
L 170.130132 162.432 
L 171.270108 159.744 
L 171.270108 157.056 
L 171.270108 154.368 
L 171.270108 151.68 
L 171.270108 148.992 
L 171.270108 146.304 
L 171.270108 143.616 
L 171.270108 140.928 
L 171.270108 138.24 
L 171.270108 135.552 
L 171.270108 132.864 
L 171.270108 130.176 
L 171.270108 127.488 
L 171.270108 124.8 
L 171.270108 122.112 
L 173.032727 120.365347 
L 176.64 120.365347 
L 180.247273 120.365347 
L 183.854545 120.365347 
L 187.461818 120.365347 
L 191.069091 120.365347 
L 194.676364 120.365347 
L 198.283636 120.365347 
L 201.890909 122.047638 
L 205.498182 122.047638 
L 209.105455 122.047638 
L 212.712727 122.047638 
L 216.32 122.047638 
L 219.927273 122.047638 
L 223.534545 122.047638 
L 227.141818 122.047638 
L 230.749091 122.047638 
L 234.356364 122.047638 
L 237.963636 122.047638 
L 241.570909 122.047638 
L 245.178182 122.047638 
L 248.785455 122.047638 
L 252.392727 122.047638 
L 256 122.047638 
L 259.607273 122.047638 
L 263.214545 122.047638 
L 266.821818 122.047638 
L 270.429091 122.047638 
L 274.036364 122.047638 
L 277.643636 122.047638 
L 281.250909 122.047638 
L 284.858182 122.047638 
L 288.465455 122.047638 
L 292.072727 122.047638 
L 295.68 122.047638 
L 299.287273 122.047638 
L 302.894545 122.047638 
L 306.501818 122.047638 
L 310.109091 122.047638 
L 313.716364 122.047638 
L 317.323636 122.047638 
L 320.930909 122.047638 
L 324.538182 122.047638 
L 328.145455 122.047638 
L 331.752727 122.047638 
L 335.36 122.047638 
L 338.967273 122.047638 
L 342.574545 122.047638 
L 346.181818 122.047638 
L 349.789091 122.047638 
L 353.396364 122.047638 
L 357.003636 122.047638 
L 360.610909 122.047638 
L 364.218182 122.047638 
L 367.825455 122.047638 
L 371.432727 122.047638 
L 375.04 122.047638 
L 378.647273 122.047638 
L 382.254545 122.047638 
L 385.861818 122.047638 
L 389.469091 122.047638 
L 393.076364 122.047638 
L 396.683636 122.047638 
L 400.290909 122.047638 
L 403.898182 122.047638 
L 407.505455 122.047638 
L 411.112727 122.047638 
L 414.72 122.047638 
L 414.72 119.879217 
L 411.112727 119.879217 
L 407.505455 119.879217 
L 403.898182 119.879217 
L 400.290909 119.879217 
L 396.683636 119.879217 
L 393.076364 119.879217 
L 389.469091 119.879217 
L 385.861818 119.879217 
L 382.254545 119.879217 
L 378.647273 119.879217 
L 375.04 119.879217 
L 371.432727 119.879217 
L 367.825455 119.879217 
L 364.218182 119.879217 
L 360.610909 119.879217 
L 357.003636 119.879217 
L 353.396364 119.879217 
L 349.789091 119.879217 
L 346.181818 119.879217 
L 342.574545 119.879217 
L 338.967273 119.879217 
L 335.36 119.879217 
L 331.752727 119.879217 
L 328.145455 119.879217 
L 324.538182 119.879217 
L 320.930909 119.879217 
L 317.323636 119.879217 
L 313.716364 119.879217 
L 310.109091 119.879217 
L 306.501818 119.879217 
L 302.894545 119.879217 
L 299.287273 119.879217 
L 295.68 119.879217 
L 292.072727 119.879217 
L 288.465455 119.879217 
L 284.858182 119.879217 
L 281.250909 119.879217 
L 277.643636 119.879217 
L 274.036364 119.879217 
L 270.429091 119.879217 
L 266.821818 119.879217 
L 263.214545 119.879217 
L 259.607273 119.879217 
L 256 119.879217 
L 252.392727 119.879217 
L 248.785455 119.879217 
L 245.178182 119.879217 
L 241.570909 119.879217 
L 237.963636 119.879217 
L 234.356364 119.879217 
L 230.749091 119.879217 
L 227.141818 119.879217 
L 223.534545 119.879217 
L 219.927273 119.879217 
L 216.32 119.879217 
L 212.712727 119.879217 
L 209.105455 119.879217 
L 205.498182 119.879217 
L 201.890909 119.879217 
L 200.914805 119.424 
L 200.914805 116.736 
L 200.914805 114.048 
L 200.914805 111.36 
L 200.914805 108.672 
L 200.914805 105.984 
L 200.914805 103.296 
L 200.914805 100.608 
L 200.914805 97.92 
L 200.914805 95.232 
L 200.914805 92.544 
L 200.914805 89.856 
L 200.914805 87.168 
L 200.914805 84.48 
L 200.914805 81.792 
L 200.914805 79.104 
L 198.283636 77.378981 
L 194.676364 77.378981 
L 191.069091 77.378981 
L 187.461818 77.378981 
L 183.854545 77.378981 
L 180.247273 77.378981 
L 176.64 77.378981 
L 173.032727 77.378981 
L 171.794436 79.104 
L 171.794436 81.792 
L 171.794436 84.48 
L 171.794436 87.168 
L 171.794436 89.856 
L 171.794436 92.544 
L 171.794436 95.232 
L 171.794436 97.92 
L 171.794436 100.608 
L 171.794436 103.296 
L 171.794436 105.984 
L 171.794436 108.672 
L 171.794436 111.36 
L 171.794436 114.048 
L 171.794436 116.736 
L 171.794436 119.424 
L 169.425455 121.771524 
L 169.207544 122.112 
L 169.207544 124.8 
L 169.207544 127.488 
L 169.207544 130.176 
L 169.207544 132.864 
L 169.207544 135.552 
L 169.207544 138.24 
L 169.207544 140.928 
L 169.207544 143.616 
L 169.207544 146.304 
L 169.207544 148.992 
L 169.207544 151.68 
L 169.207544 154.368 
L 169.207544 157.056 
L 169.207544 159.744 
L 168.484548 162.432 
L 168.484548 165.12 
L 168.484548 167.808 
L 168.484548 170.496 
L 168.484548 173.184 
L 168.484548 175.872 
L 168.484548 178.56 
L 168.484548 181.248 
L 168.484548 183.936 
L 168.484548 186.624 
L 168.484548 189.312 
L 168.484548 192 
L 168.484548 194.688 
L 168.484548 197.376 
L 168.484548 200.064 
L 168.484548 202.752 
L 168.484548 205.44 
L 168.484548 208.128 
L 168.484548 210.816 
L 168.484548 213.504 
L 168.484548 216.192 
L 168.484548 218.88 
L 168.484548 221.568 
L 168.484548 224.256 
L 168.484548 226.944 
L 167.991358 229.632 
L 167.991358 232.32 
L 167.991358 235.008 
L 167.991358 237.696 
L 167.991358 240.384 
L 167.991358 243.072 
L 167.991358 245.76 
L 167.991358 248.448 
L 167.991358 251.136 
L 167.991358 253.824 
L 167.991358 256.512 
L 167.991358 259.2 
L 167.991358 261.888 
L 167.991358 264.576 
L 167.991358 267.264 
L 167.991358 269.952 
L 167.991358 272.64 
L 167.991358 275.328 
L 167.991358 278.016 
L 167.991358 280.704 
L 167.991358 283.392 
L 167.991358 286.08 
L 167.991358 288.768 
L 167.991358 291.456 
L 167.991358 294.144 
L 167.991358 296.832 
L 167.991358 299.52 
L 167.991358 302.208 
L 167.991358 304.896 
L 167.991358 307.584 
L 169.379186 307.584 
z
" clip-path="url(#p866f36b1a5)" style="fill: #2e6e8e; fill-opacity: 0.75"/>
   </g>
   <g id="PathCollection_4">
    <path d="M 167.991358 304.896 
L 167.991358 302.208 
L 167.991358 299.52 
L 167.991358 296.832 
L 167.991358 294.144 
L 167.991358 291.456 
L 167.991358 288.768 
L 167.991358 286.08 
L 167.991358 283.392 
L 167.991358 280.704 
L 167.991358 278.016 
L 167.991358 275.328 
L 167.991358 272.64 
L 167.991358 269.952 
L 167.991358 267.264 
L 167.991358 264.576 
L 167.991358 261.888 
L 167.991358 259.2 
L 167.991358 256.512 
L 167.991358 253.824 
L 167.991358 251.136 
L 167.991358 248.448 
L 167.991358 245.76 
L 167.991358 243.072 
L 167.991358 240.384 
L 167.991358 237.696 
L 167.991358 235.008 
L 167.991358 232.32 
L 167.991358 229.632 
L 168.484548 226.944 
L 168.484548 224.256 
L 168.484548 221.568 
L 168.484548 218.88 
L 168.484548 216.192 
L 168.484548 213.504 
L 168.484548 210.816 
L 168.484548 208.128 
L 168.484548 205.44 
L 168.484548 202.752 
L 168.484548 200.064 
L 168.484548 197.376 
L 168.484548 194.688 
L 168.484548 192 
L 168.484548 189.312 
L 168.484548 186.624 
L 168.484548 183.936 
L 168.484548 181.248 
L 168.484548 178.56 
L 168.484548 175.872 
L 168.484548 173.184 
L 168.484548 170.496 
L 168.484548 167.808 
L 168.484548 165.12 
L 168.484548 162.432 
L 169.207544 159.744 
L 169.207544 157.056 
L 169.207544 154.368 
L 169.207544 151.68 
L 169.207544 148.992 
L 169.207544 146.304 
L 169.207544 143.616 
L 169.207544 140.928 
L 169.207544 138.24 
L 169.207544 135.552 
L 169.207544 132.864 
L 169.207544 130.176 
L 169.207544 127.488 
L 169.207544 124.8 
L 169.207544 122.112 
L 169.425455 121.771524 
L 171.794436 119.424 
L 171.794436 116.736 
L 171.794436 114.048 
L 171.794436 111.36 
L 171.794436 108.672 
L 171.794436 105.984 
L 171.794436 103.296 
L 171.794436 100.608 
L 171.794436 97.92 
L 171.794436 95.232 
L 171.794436 92.544 
L 171.794436 89.856 
L 171.794436 87.168 
L 171.794436 84.48 
L 171.794436 81.792 
L 171.794436 79.104 
L 173.032727 77.378981 
L 176.64 77.378981 
L 180.247273 77.378981 
L 183.854545 77.378981 
L 187.461818 77.378981 
L 191.069091 77.378981 
L 194.676364 77.378981 
L 198.283636 77.378981 
L 200.914805 79.104 
L 200.914805 81.792 
L 200.914805 84.48 
L 200.914805 87.168 
L 200.914805 89.856 
L 200.914805 92.544 
L 200.914805 95.232 
L 200.914805 97.92 
L 200.914805 100.608 
L 200.914805 103.296 
L 200.914805 105.984 
L 200.914805 108.672 
L 200.914805 111.36 
L 200.914805 114.048 
L 200.914805 116.736 
L 200.914805 119.424 
L 201.890909 119.879217 
L 205.498182 119.879217 
L 209.105455 119.879217 
L 212.712727 119.879217 
L 216.32 119.879217 
L 219.927273 119.879217 
L 223.534545 119.879217 
L 227.141818 119.879217 
L 230.749091 119.879217 
L 234.356364 119.879217 
L 237.963636 119.879217 
L 241.570909 119.879217 
L 245.178182 119.879217 
L 248.785455 119.879217 
L 252.392727 119.879217 
L 256 119.879217 
L 259.607273 119.879217 
L 263.214545 119.879217 
L 266.821818 119.879217 
L 270.429091 119.879217 
L 274.036364 119.879217 
L 277.643636 119.879217 
L 281.250909 119.879217 
L 284.858182 119.879217 
L 288.465455 119.879217 
L 292.072727 119.879217 
L 295.68 119.879217 
L 299.287273 119.879217 
L 302.894545 119.879217 
L 306.501818 119.879217 
L 310.109091 119.879217 
L 313.716364 119.879217 
L 317.323636 119.879217 
L 320.930909 119.879217 
L 324.538182 119.879217 
L 328.145455 119.879217 
L 331.752727 119.879217 
L 335.36 119.879217 
L 338.967273 119.879217 
L 342.574545 119.879217 
L 346.181818 119.879217 
L 349.789091 119.879217 
L 353.396364 119.879217 
L 357.003636 119.879217 
L 360.610909 119.879217 
L 364.218182 119.879217 
L 367.825455 119.879217 
L 371.432727 119.879217 
L 375.04 119.879217 
L 378.647273 119.879217 
L 382.254545 119.879217 
L 385.861818 119.879217 
L 389.469091 119.879217 
L 393.076364 119.879217 
L 396.683636 119.879217 
L 400.290909 119.879217 
L 403.898182 119.879217 
L 407.505455 119.879217 
L 411.112727 119.879217 
L 414.72 119.879217 
L 414.72 119.424 
L 414.72 116.736 
L 414.72 114.048 
L 414.72 111.36 
L 414.72 108.672 
L 414.72 105.984 
L 414.72 103.296 
L 414.72 100.608 
L 414.72 97.92 
L 414.72 95.232 
L 414.72 92.544 
L 414.72 89.856 
L 414.72 87.168 
L 414.72 84.48 
L 414.72 81.792 
L 414.72 79.104 
L 414.72 76.69558 
L 411.112727 76.69558 
L 407.505455 76.69558 
L 403.898182 76.69558 
L 400.290909 76.69558 
L 396.683636 76.69558 
L 393.076364 76.69558 
L 389.469091 76.69558 
L 385.861818 76.69558 
L 382.254545 76.69558 
L 378.647273 76.69558 
L 375.04 76.69558 
L 371.432727 76.69558 
L 367.825455 76.69558 
L 364.218182 76.69558 
L 360.610909 76.69558 
L 357.003636 76.69558 
L 353.396364 76.69558 
L 349.789091 76.69558 
L 346.181818 76.69558 
L 342.574545 76.69558 
L 338.967273 76.69558 
L 335.36 76.69558 
L 331.752727 76.69558 
L 328.145455 76.69558 
L 324.538182 76.69558 
L 320.930909 76.69558 
L 317.323636 76.69558 
L 313.716364 76.69558 
L 310.109091 76.69558 
L 306.501818 76.69558 
L 302.894545 76.69558 
L 299.287273 76.69558 
L 295.68 76.69558 
L 292.072727 76.69558 
L 288.465455 76.69558 
L 284.858182 76.69558 
L 281.250909 76.69558 
L 277.643636 76.69558 
L 274.036364 76.69558 
L 270.429091 76.69558 
L 266.821818 76.69558 
L 263.214545 76.69558 
L 259.607273 76.69558 
L 256 76.69558 
L 252.392727 76.69558 
L 248.785455 76.69558 
L 245.178182 76.69558 
L 241.570909 76.69558 
L 237.963636 76.69558 
L 234.356364 76.69558 
L 230.749091 76.69558 
L 227.141818 76.69558 
L 223.534545 76.69558 
L 219.927273 76.69558 
L 216.32 76.69558 
L 212.712727 76.69558 
L 209.105455 76.69558 
L 205.498182 76.69558 
L 201.890909 76.69558 
L 201.464465 76.416 
L 201.464465 73.728 
L 198.283636 72.429934 
L 194.676364 72.429934 
L 191.069091 72.429934 
L 187.461818 72.429934 
L 183.854545 72.429934 
L 180.247273 72.429934 
L 176.64 72.429934 
L 173.032727 72.429934 
L 169.814064 73.728 
L 169.814064 76.416 
L 169.606194 79.104 
L 169.606194 81.792 
L 169.606194 84.48 
L 169.606194 87.168 
L 169.606194 89.856 
L 169.606194 92.544 
L 169.606194 95.232 
L 169.606194 97.92 
L 169.606194 100.608 
L 169.606194 103.296 
L 169.606194 105.984 
L 169.606194 108.672 
L 169.606194 111.36 
L 169.606194 114.048 
L 169.606194 116.736 
L 169.606194 119.424 
L 169.425455 119.603102 
L 167.819716 122.112 
L 167.819716 124.8 
L 167.819716 127.488 
L 167.819716 130.176 
L 167.819716 132.864 
L 167.819716 135.552 
L 167.819716 138.24 
L 167.819716 140.928 
L 167.819716 143.616 
L 167.819716 146.304 
L 167.819716 148.992 
L 167.819716 151.68 
L 167.819716 154.368 
L 167.819716 157.056 
L 167.819716 159.744 
L 167.09672 162.432 
L 167.09672 165.12 
L 167.09672 167.808 
L 167.09672 170.496 
L 167.09672 173.184 
L 167.09672 175.872 
L 167.09672 178.56 
L 167.09672 181.248 
L 167.09672 183.936 
L 167.09672 186.624 
L 167.09672 189.312 
L 167.09672 192 
L 167.09672 194.688 
L 167.09672 197.376 
L 167.09672 200.064 
L 167.09672 202.752 
L 167.09672 205.44 
L 167.09672 208.128 
L 167.09672 210.816 
L 167.09672 213.504 
L 167.09672 216.192 
L 167.09672 218.88 
L 167.09672 221.568 
L 167.09672 224.256 
L 167.09672 226.944 
L 166.603531 229.632 
L 166.603531 232.32 
L 166.603531 235.008 
L 166.603531 237.696 
L 166.603531 240.384 
L 166.603531 243.072 
L 166.603531 245.76 
L 166.603531 248.448 
L 166.603531 251.136 
L 166.603531 253.824 
L 166.603531 256.512 
L 166.603531 259.2 
L 166.603531 261.888 
L 166.603531 264.576 
L 166.603531 267.264 
L 166.603531 269.952 
L 166.603531 272.64 
L 166.603531 275.328 
L 166.603531 278.016 
L 166.603531 280.704 
L 166.603531 283.392 
L 166.603531 286.08 
L 166.603531 288.768 
L 166.603531 291.456 
L 166.603531 294.144 
L 166.603531 296.832 
L 166.603531 299.52 
L 166.603531 302.208 
L 166.603531 304.896 
L 166.603531 307.584 
L 167.991358 307.584 
z
" clip-path="url(#p866f36b1a5)" style="fill: #21908d; fill-opacity: 0.75"/>
   </g>
   <g id="PathCollection_5">
    <path d="M 61.207273 307.584 
L 64.814545 307.584 
L 68.421818 307.584 
L 72.029091 307.584 
L 75.636364 307.584 
L 79.243636 307.584 
L 82.850909 307.584 
L 86.458182 307.584 
L 90.065455 307.584 
L 93.672727 307.584 
L 97.28 307.584 
L 100.887273 307.584 
L 104.494545 307.584 
L 108.101818 307.584 
L 111.709091 307.584 
L 115.316364 307.584 
L 118.923636 307.584 
L 122.530909 307.584 
L 126.138182 307.584 
L 129.745455 307.584 
L 133.352727 307.584 
L 136.96 307.584 
L 140.567273 307.584 
L 144.174545 307.584 
L 147.781818 307.584 
L 151.389091 307.584 
L 154.996364 307.584 
L 158.603636 307.584 
L 162.210909 307.584 
L 165.818182 307.584 
L 166.603531 307.584 
L 166.603531 304.896 
L 166.603531 302.208 
L 166.603531 299.52 
L 166.603531 296.832 
L 166.603531 294.144 
L 166.603531 291.456 
L 166.603531 288.768 
L 166.603531 286.08 
L 166.603531 283.392 
L 166.603531 280.704 
L 166.603531 278.016 
L 166.603531 275.328 
L 166.603531 272.64 
L 166.603531 269.952 
L 166.603531 267.264 
L 166.603531 264.576 
L 166.603531 261.888 
L 166.603531 259.2 
L 166.603531 256.512 
L 166.603531 253.824 
L 166.603531 251.136 
L 166.603531 248.448 
L 166.603531 245.76 
L 166.603531 243.072 
L 166.603531 240.384 
L 166.603531 237.696 
L 166.603531 235.008 
L 166.603531 232.32 
L 166.603531 229.632 
L 167.09672 226.944 
L 167.09672 224.256 
L 167.09672 221.568 
L 167.09672 218.88 
L 167.09672 216.192 
L 167.09672 213.504 
L 167.09672 210.816 
L 167.09672 208.128 
L 167.09672 205.44 
L 167.09672 202.752 
L 167.09672 200.064 
L 167.09672 197.376 
L 167.09672 194.688 
L 167.09672 192 
L 167.09672 189.312 
L 167.09672 186.624 
L 167.09672 183.936 
L 167.09672 181.248 
L 167.09672 178.56 
L 167.09672 175.872 
L 167.09672 173.184 
L 167.09672 170.496 
L 167.09672 167.808 
L 167.09672 165.12 
L 167.09672 162.432 
L 167.819716 159.744 
L 167.819716 157.056 
L 167.819716 154.368 
L 167.819716 151.68 
L 167.819716 148.992 
L 167.819716 146.304 
L 167.819716 143.616 
L 167.819716 140.928 
L 167.819716 138.24 
L 167.819716 135.552 
L 167.819716 132.864 
L 167.819716 130.176 
L 167.819716 127.488 
L 167.819716 124.8 
L 167.819716 122.112 
L 169.425455 119.603102 
L 169.606194 119.424 
L 169.606194 116.736 
L 169.606194 114.048 
L 169.606194 111.36 
L 169.606194 108.672 
L 169.606194 105.984 
L 169.606194 103.296 
L 169.606194 100.608 
L 169.606194 97.92 
L 169.606194 95.232 
L 169.606194 92.544 
L 169.606194 89.856 
L 169.606194 87.168 
L 169.606194 84.48 
L 169.606194 81.792 
L 169.606194 79.104 
L 169.814064 76.416 
L 169.814064 73.728 
L 173.032727 72.429934 
L 176.64 72.429934 
L 180.247273 72.429934 
L 183.854545 72.429934 
L 187.461818 72.429934 
L 191.069091 72.429934 
L 194.676364 72.429934 
L 198.283636 72.429934 
L 201.464465 73.728 
L 201.464465 76.416 
L 201.890909 76.69558 
L 205.498182 76.69558 
L 209.105455 76.69558 
L 212.712727 76.69558 
L 216.32 76.69558 
L 219.927273 76.69558 
L 223.534545 76.69558 
L 227.141818 76.69558 
L 230.749091 76.69558 
L 234.356364 76.69558 
L 237.963636 76.69558 
L 241.570909 76.69558 
L 245.178182 76.69558 
L 248.785455 76.69558 
L 252.392727 76.69558 
L 256 76.69558 
L 259.607273 76.69558 
L 263.214545 76.69558 
L 266.821818 76.69558 
L 270.429091 76.69558 
L 274.036364 76.69558 
L 277.643636 76.69558 
L 281.250909 76.69558 
L 284.858182 76.69558 
L 288.465455 76.69558 
L 292.072727 76.69558 
L 295.68 76.69558 
L 299.287273 76.69558 
L 302.894545 76.69558 
L 306.501818 76.69558 
L 310.109091 76.69558 
L 313.716364 76.69558 
L 317.323636 76.69558 
L 320.930909 76.69558 
L 324.538182 76.69558 
L 328.145455 76.69558 
L 331.752727 76.69558 
L 335.36 76.69558 
L 338.967273 76.69558 
L 342.574545 76.69558 
L 346.181818 76.69558 
L 349.789091 76.69558 
L 353.396364 76.69558 
L 357.003636 76.69558 
L 360.610909 76.69558 
L 364.218182 76.69558 
L 367.825455 76.69558 
L 371.432727 76.69558 
L 375.04 76.69558 
L 378.647273 76.69558 
L 382.254545 76.69558 
L 385.861818 76.69558 
L 389.469091 76.69558 
L 393.076364 76.69558 
L 396.683636 76.69558 
L 400.290909 76.69558 
L 403.898182 76.69558 
L 407.505455 76.69558 
L 411.112727 76.69558 
L 414.72 76.69558 
L 414.72 76.416 
L 414.72 73.728 
L 414.72 72.004544 
L 411.112727 72.004544 
L 407.505455 72.004544 
L 403.898182 72.004544 
L 400.290909 72.004544 
L 396.683636 72.004544 
L 393.076364 72.004544 
L 389.469091 72.004544 
L 385.861818 72.004544 
L 382.254545 72.004544 
L 378.647273 72.004544 
L 375.04 72.004544 
L 371.432727 72.004544 
L 367.825455 72.004544 
L 364.218182 72.004544 
L 360.610909 72.004544 
L 357.003636 72.004544 
L 353.396364 72.004544 
L 349.789091 72.004544 
L 346.181818 72.004544 
L 342.574545 72.004544 
L 338.967273 72.004544 
L 335.36 72.004544 
L 331.752727 72.004544 
L 328.145455 72.004544 
L 324.538182 72.004544 
L 320.930909 72.004544 
L 317.323636 72.004544 
L 313.716364 72.004544 
L 310.109091 72.004544 
L 306.501818 72.004544 
L 302.894545 72.004544 
L 299.287273 72.004544 
L 295.68 72.004544 
L 292.072727 72.004544 
L 288.465455 72.004544 
L 284.858182 72.004544 
L 281.250909 72.004544 
L 277.643636 72.004544 
L 274.036364 72.004544 
L 270.429091 72.004544 
L 266.821818 72.004544 
L 263.214545 72.004544 
L 259.607273 72.004544 
L 256 72.004544 
L 252.392727 72.004544 
L 248.785455 72.004544 
L 245.178182 72.004544 
L 241.570909 72.004544 
L 237.963636 72.004544 
L 234.356364 72.004544 
L 230.749091 72.004544 
L 227.141818 72.004544 
L 223.534545 72.004544 
L 219.927273 72.004544 
L 216.32 72.004544 
L 212.712727 72.004544 
L 209.105455 72.004544 
L 205.498182 72.004544 
L 201.890909 72.004544 
L 199.527354 71.04 
L 199.527354 68.352 
L 199.527354 65.664 
L 201.826862 62.976 
L 201.826862 60.288 
L 201.826862 57.6 
L 201.826862 54.912 
L 201.826862 52.224 
L 201.826862 49.536 
L 201.826862 46.848 
L 201.826862 44.16 
L 201.826862 41.472 
L 198.283636 41.472 
L 194.676364 41.472 
L 191.069091 41.472 
L 187.461818 41.472 
L 183.854545 41.472 
L 180.247273 41.472 
L 176.64 41.472 
L 173.032727 41.472 
L 169.447357 41.472 
L 169.447357 44.16 
L 169.447357 46.848 
L 169.447357 49.536 
L 169.447357 52.224 
L 169.447357 54.912 
L 169.447357 57.6 
L 169.447357 60.288 
L 169.447357 62.976 
L 171.774216 65.664 
L 171.774216 68.352 
L 171.774216 71.04 
L 169.425455 71.98724 
L 168.152255 73.728 
L 168.152255 76.416 
L 168.152255 79.104 
L 168.152255 81.792 
L 168.152255 84.48 
L 168.152255 87.168 
L 168.152255 89.856 
L 168.152255 92.544 
L 168.152255 95.232 
L 168.152255 97.92 
L 168.152255 100.608 
L 168.152255 103.296 
L 168.152255 105.984 
L 168.152255 108.672 
L 168.152255 111.36 
L 168.152255 114.048 
L 168.152255 116.736 
L 168.152255 119.424 
L 166.431889 122.112 
L 166.431889 124.8 
L 166.431889 127.488 
L 166.431889 130.176 
L 166.431889 132.864 
L 166.431889 135.552 
L 166.431889 138.24 
L 166.431889 140.928 
L 166.431889 143.616 
L 166.431889 146.304 
L 166.431889 148.992 
L 166.431889 151.68 
L 166.431889 154.368 
L 166.431889 157.056 
L 166.431889 159.744 
L 165.818182 162.025677 
L 162.210909 162.025677 
L 158.603636 162.025677 
L 154.996364 162.025677 
L 151.389091 162.025677 
L 147.781818 162.025677 
L 144.174545 162.025677 
L 140.567273 162.025677 
L 136.96 162.025677 
L 133.352727 162.025677 
L 129.745455 162.025677 
L 126.138182 162.025677 
L 122.530909 162.025677 
L 118.923636 162.025677 
L 115.316364 162.025677 
L 111.709091 162.025677 
L 108.101818 162.025677 
L 104.494545 162.025677 
L 100.887273 162.025677 
L 97.28 162.025677 
L 93.672727 162.025677 
L 90.065455 162.025677 
L 86.458182 162.025677 
L 82.850909 162.025677 
L 79.243636 162.025677 
L 75.636364 162.025677 
L 72.029091 162.025677 
L 68.421818 162.025677 
L 64.814545 162.025677 
L 61.207273 162.025677 
L 57.6 162.025677 
L 57.6 162.432 
L 57.6 165.12 
L 57.6 167.808 
L 57.6 170.496 
L 57.6 173.184 
L 57.6 175.872 
L 57.6 178.56 
L 57.6 181.248 
L 57.6 183.936 
L 57.6 186.624 
L 57.6 189.312 
L 57.6 192 
L 57.6 194.688 
L 57.6 197.376 
L 57.6 200.064 
L 57.6 202.752 
L 57.6 205.44 
L 57.6 208.128 
L 57.6 210.816 
L 57.6 213.504 
L 57.6 216.192 
L 57.6 218.88 
L 57.6 221.568 
L 57.6 224.256 
L 57.6 226.944 
L 57.6 229.632 
L 57.6 232.32 
L 57.6 235.008 
L 57.6 237.696 
L 57.6 240.384 
L 57.6 243.072 
L 57.6 245.76 
L 57.6 248.448 
L 57.6 251.136 
L 57.6 253.824 
L 57.6 256.512 
L 57.6 259.2 
L 57.6 261.888 
L 57.6 264.576 
L 57.6 267.264 
L 57.6 269.952 
L 57.6 272.64 
L 57.6 275.328 
L 57.6 278.016 
L 57.6 280.704 
L 57.6 283.392 
L 57.6 286.08 
L 57.6 288.768 
L 57.6 291.456 
L 57.6 294.144 
L 57.6 296.832 
L 57.6 299.52 
L 57.6 302.208 
L 57.6 304.896 
L 57.6 307.584 
z
" clip-path="url(#p866f36b1a5)" style="fill: #2db27d; fill-opacity: 0.75"/>
   </g>
   <g id="PathCollection_6">
    <path d="M 61.207273 162.025677 
L 64.814545 162.025677 
L 68.421818 162.025677 
L 72.029091 162.025677 
L 75.636364 162.025677 
L 79.243636 162.025677 
L 82.850909 162.025677 
L 86.458182 162.025677 
L 90.065455 162.025677 
L 93.672727 162.025677 
L 97.28 162.025677 
L 100.887273 162.025677 
L 104.494545 162.025677 
L 108.101818 162.025677 
L 111.709091 162.025677 
L 115.316364 162.025677 
L 118.923636 162.025677 
L 122.530909 162.025677 
L 126.138182 162.025677 
L 129.745455 162.025677 
L 133.352727 162.025677 
L 136.96 162.025677 
L 140.567273 162.025677 
L 144.174545 162.025677 
L 147.781818 162.025677 
L 151.389091 162.025677 
L 154.996364 162.025677 
L 158.603636 162.025677 
L 162.210909 162.025677 
L 165.818182 162.025677 
L 166.431889 159.744 
L 166.431889 157.056 
L 166.431889 154.368 
L 166.431889 151.68 
L 166.431889 148.992 
L 166.431889 146.304 
L 166.431889 143.616 
L 166.431889 140.928 
L 166.431889 138.24 
L 166.431889 135.552 
L 166.431889 132.864 
L 166.431889 130.176 
L 166.431889 127.488 
L 166.431889 124.8 
L 166.431889 122.112 
L 168.152255 119.424 
L 168.152255 116.736 
L 168.152255 114.048 
L 168.152255 111.36 
L 168.152255 108.672 
L 168.152255 105.984 
L 168.152255 103.296 
L 168.152255 100.608 
L 168.152255 97.92 
L 168.152255 95.232 
L 168.152255 92.544 
L 168.152255 89.856 
L 168.152255 87.168 
L 168.152255 84.48 
L 168.152255 81.792 
L 168.152255 79.104 
L 168.152255 76.416 
L 168.152255 73.728 
L 169.425455 71.98724 
L 171.774216 71.04 
L 171.774216 68.352 
L 171.774216 65.664 
L 169.447357 62.976 
L 169.447357 60.288 
L 169.447357 57.6 
L 169.447357 54.912 
L 169.447357 52.224 
L 169.447357 49.536 
L 169.447357 46.848 
L 169.447357 44.16 
L 169.447357 41.472 
L 169.425455 41.472 
L 166.389388 41.472 
L 166.389388 44.16 
L 166.389388 46.848 
L 166.389388 49.536 
L 166.389388 52.224 
L 166.389388 54.912 
L 166.389388 57.6 
L 166.389388 60.288 
L 166.389388 62.976 
L 167.897908 65.664 
L 167.897908 68.352 
L 167.897908 71.04 
L 166.764428 73.728 
L 166.764428 76.416 
L 166.764428 79.104 
L 166.764428 81.792 
L 166.764428 84.48 
L 166.764428 87.168 
L 166.764428 89.856 
L 166.764428 92.544 
L 166.764428 95.232 
L 166.764428 97.92 
L 166.764428 100.608 
L 166.764428 103.296 
L 166.764428 105.984 
L 166.764428 108.672 
L 166.764428 111.36 
L 166.764428 114.048 
L 166.764428 116.736 
L 166.764428 119.424 
L 165.818182 120.902469 
L 162.210909 120.902469 
L 158.603636 120.902469 
L 154.996364 120.902469 
L 151.389091 120.902469 
L 147.781818 120.902469 
L 144.174545 120.902469 
L 140.567273 120.902469 
L 136.96 120.902469 
L 133.352727 120.902469 
L 129.745455 120.902469 
L 126.138182 120.902469 
L 122.530909 120.902469 
L 118.923636 120.902469 
L 115.316364 120.902469 
L 111.709091 120.902469 
L 108.101818 120.902469 
L 104.494545 120.902469 
L 100.887273 120.902469 
L 97.28 120.902469 
L 93.672727 120.902469 
L 90.065455 120.902469 
L 86.458182 120.902469 
L 82.850909 120.902469 
L 79.243636 120.902469 
L 75.636364 120.902469 
L 72.029091 120.902469 
L 68.421818 120.902469 
L 64.814545 120.902469 
L 61.207273 120.902469 
L 57.6 120.902469 
L 57.6 122.112 
L 57.6 124.8 
L 57.6 127.488 
L 57.6 130.176 
L 57.6 132.864 
L 57.6 135.552 
L 57.6 138.24 
L 57.6 140.928 
L 57.6 143.616 
L 57.6 146.304 
L 57.6 148.992 
L 57.6 151.68 
L 57.6 154.368 
L 57.6 157.056 
L 57.6 159.744 
L 57.6 162.025677 
z
" clip-path="url(#p866f36b1a5)" style="fill: #73d056; fill-opacity: 0.75"/>
    <path d="M 201.890909 72.004544 
L 205.498182 72.004544 
L 209.105455 72.004544 
L 212.712727 72.004544 
L 216.32 72.004544 
L 219.927273 72.004544 
L 223.534545 72.004544 
L 227.141818 72.004544 
L 230.749091 72.004544 
L 234.356364 72.004544 
L 237.963636 72.004544 
L 241.570909 72.004544 
L 245.178182 72.004544 
L 248.785455 72.004544 
L 252.392727 72.004544 
L 256 72.004544 
L 259.607273 72.004544 
L 263.214545 72.004544 
L 266.821818 72.004544 
L 270.429091 72.004544 
L 274.036364 72.004544 
L 277.643636 72.004544 
L 281.250909 72.004544 
L 284.858182 72.004544 
L 288.465455 72.004544 
L 292.072727 72.004544 
L 295.68 72.004544 
L 299.287273 72.004544 
L 302.894545 72.004544 
L 306.501818 72.004544 
L 310.109091 72.004544 
L 313.716364 72.004544 
L 317.323636 72.004544 
L 320.930909 72.004544 
L 324.538182 72.004544 
L 328.145455 72.004544 
L 331.752727 72.004544 
L 335.36 72.004544 
L 338.967273 72.004544 
L 342.574545 72.004544 
L 346.181818 72.004544 
L 349.789091 72.004544 
L 353.396364 72.004544 
L 357.003636 72.004544 
L 360.610909 72.004544 
L 364.218182 72.004544 
L 367.825455 72.004544 
L 371.432727 72.004544 
L 375.04 72.004544 
L 378.647273 72.004544 
L 382.254545 72.004544 
L 385.861818 72.004544 
L 389.469091 72.004544 
L 393.076364 72.004544 
L 396.683636 72.004544 
L 400.290909 72.004544 
L 403.898182 72.004544 
L 407.505455 72.004544 
L 411.112727 72.004544 
L 414.72 72.004544 
L 414.72 71.04 
L 414.72 68.352 
L 414.72 65.664 
L 414.72 62.976 
L 414.72 60.288 
L 414.72 57.6 
L 414.72 54.912 
L 414.72 52.224 
L 414.72 49.536 
L 414.72 46.848 
L 414.72 44.16 
L 414.72 41.472 
L 411.112727 41.472 
L 407.505455 41.472 
L 403.898182 41.472 
L 400.290909 41.472 
L 396.683636 41.472 
L 393.076364 41.472 
L 389.469091 41.472 
L 385.861818 41.472 
L 382.254545 41.472 
L 378.647273 41.472 
L 375.04 41.472 
L 371.432727 41.472 
L 367.825455 41.472 
L 364.218182 41.472 
L 360.610909 41.472 
L 357.003636 41.472 
L 353.396364 41.472 
L 349.789091 41.472 
L 346.181818 41.472 
L 342.574545 41.472 
L 338.967273 41.472 
L 335.36 41.472 
L 331.752727 41.472 
L 328.145455 41.472 
L 324.538182 41.472 
L 320.930909 41.472 
L 317.323636 41.472 
L 313.716364 41.472 
L 310.109091 41.472 
L 306.501818 41.472 
L 302.894545 41.472 
L 299.287273 41.472 
L 295.68 41.472 
L 292.072727 41.472 
L 288.465455 41.472 
L 284.858182 41.472 
L 281.250909 41.472 
L 277.643636 41.472 
L 274.036364 41.472 
L 270.429091 41.472 
L 266.821818 41.472 
L 263.214545 41.472 
L 259.607273 41.472 
L 256 41.472 
L 252.392727 41.472 
L 248.785455 41.472 
L 245.178182 41.472 
L 241.570909 41.472 
L 237.963636 41.472 
L 234.356364 41.472 
L 230.749091 41.472 
L 227.141818 41.472 
L 223.534545 41.472 
L 219.927273 41.472 
L 216.32 41.472 
L 212.712727 41.472 
L 209.105455 41.472 
L 205.498182 41.472 
L 201.890909 41.472 
L 201.826862 41.472 
L 201.826862 44.16 
L 201.826862 46.848 
L 201.826862 49.536 
L 201.826862 52.224 
L 201.826862 54.912 
L 201.826862 57.6 
L 201.826862 60.288 
L 201.826862 62.976 
L 199.527354 65.664 
L 199.527354 68.352 
L 199.527354 71.04 
z
" clip-path="url(#p866f36b1a5)" style="fill: #73d056; fill-opacity: 0.75"/>
   </g>
   <g id="PathCollection_7">
    <path d="M 61.207273 120.902469 
L 64.814545 120.902469 
L 68.421818 120.902469 
L 72.029091 120.902469 
L 75.636364 120.902469 
L 79.243636 120.902469 
L 82.850909 120.902469 
L 86.458182 120.902469 
L 90.065455 120.902469 
L 93.672727 120.902469 
L 97.28 120.902469 
L 100.887273 120.902469 
L 104.494545 120.902469 
L 108.101818 120.902469 
L 111.709091 120.902469 
L 115.316364 120.902469 
L 118.923636 120.902469 
L 122.530909 120.902469 
L 126.138182 120.902469 
L 129.745455 120.902469 
L 133.352727 120.902469 
L 136.96 120.902469 
L 140.567273 120.902469 
L 144.174545 120.902469 
L 147.781818 120.902469 
L 151.389091 120.902469 
L 154.996364 120.902469 
L 158.603636 120.902469 
L 162.210909 120.902469 
L 165.818182 120.902469 
L 166.764428 119.424 
L 166.764428 116.736 
L 166.764428 114.048 
L 166.764428 111.36 
L 166.764428 108.672 
L 166.764428 105.984 
L 166.764428 103.296 
L 166.764428 100.608 
L 166.764428 97.92 
L 166.764428 95.232 
L 166.764428 92.544 
L 166.764428 89.856 
L 166.764428 87.168 
L 166.764428 84.48 
L 166.764428 81.792 
L 166.764428 79.104 
L 166.764428 76.416 
L 166.764428 73.728 
L 167.897908 71.04 
L 167.897908 68.352 
L 167.897908 65.664 
L 166.389388 62.976 
L 166.389388 60.288 
L 166.389388 57.6 
L 166.389388 54.912 
L 166.389388 52.224 
L 166.389388 49.536 
L 166.389388 46.848 
L 166.389388 44.16 
L 166.389388 41.472 
L 165.818182 41.472 
L 162.210909 41.472 
L 158.603636 41.472 
L 154.996364 41.472 
L 151.389091 41.472 
L 147.781818 41.472 
L 144.174545 41.472 
L 140.567273 41.472 
L 136.96 41.472 
L 133.352727 41.472 
L 129.745455 41.472 
L 126.138182 41.472 
L 122.530909 41.472 
L 118.923636 41.472 
L 115.316364 41.472 
L 111.709091 41.472 
L 108.101818 41.472 
L 104.494545 41.472 
L 100.887273 41.472 
L 97.28 41.472 
L 93.672727 41.472 
L 90.065455 41.472 
L 86.458182 41.472 
L 82.850909 41.472 
L 79.243636 41.472 
L 75.636364 41.472 
L 72.029091 41.472 
L 68.421818 41.472 
L 64.814545 41.472 
L 61.207273 41.472 
L 57.6 41.472 
L 57.6 44.16 
L 57.6 46.848 
L 57.6 49.536 
L 57.6 52.224 
L 57.6 54.912 
L 57.6 57.6 
L 57.6 60.288 
L 57.6 62.976 
L 57.6 65.664 
L 57.6 68.352 
L 57.6 71.04 
L 57.6 73.728 
L 57.6 76.416 
L 57.6 79.104 
L 57.6 81.792 
L 57.6 84.48 
L 57.6 87.168 
L 57.6 89.856 
L 57.6 92.544 
L 57.6 95.232 
L 57.6 97.92 
L 57.6 100.608 
L 57.6 103.296 
L 57.6 105.984 
L 57.6 108.672 
L 57.6 111.36 
L 57.6 114.048 
L 57.6 116.736 
L 57.6 119.424 
L 57.6 120.902469 
z
" clip-path="url(#p866f36b1a5)" style="fill: #d0e11c; fill-opacity: 0.75"/>
   </g>
   <g id="matplotlib.axis_1">
    <g id="xtick_1">
     <g id="line2d_1">
      <defs>
       <path id="m5260e37e46" d="M 0 0 
L 0 3.5 
" style="stroke: #000000; stroke-width: 0.8"/>
      </defs>
      <g>
       <use xlink:href="#m5260e37e46" x="70.482787" y="307.584" style="stroke: #000000; stroke-width: 0.8"/>
      </g>
     </g>
     <g id="text_1">
      <!-- 20 -->
      <g transform="translate(64.120287 322.182437) scale(0.1 -0.1)">
       <defs>
        <path id="DejaVuSans-32" d="M 1228 531 
L 3431 531 
L 3431 0 
L 469 0 
L 469 531 
Q 828 903 1448 1529 
Q 2069 2156 2228 2338 
Q 2531 2678 2651 2914 
Q 2772 3150 2772 3378 
Q 2772 3750 2511 3984 
Q 2250 4219 1831 4219 
Q 1534 4219 1204 4116 
Q 875 4013 500 3803 
L 500 4441 
Q 881 4594 1212 4672 
Q 1544 4750 1819 4750 
Q 2544 4750 2975 4387 
Q 3406 4025 3406 3419 
Q 3406 3131 3298 2873 
Q 3191 2616 2906 2266 
Q 2828 2175 2409 1742 
Q 1991 1309 1228 531 
z
" transform="scale(0.015625)"/>
        <path id="DejaVuSans-30" d="M 2034 4250 
Q 1547 4250 1301 3770 
Q 1056 3291 1056 2328 
Q 1056 1369 1301 889 
Q 1547 409 2034 409 
Q 2525 409 2770 889 
Q 3016 1369 3016 2328 
Q 3016 3291 2770 3770 
Q 2525 4250 2034 4250 
z
M 2034 4750 
Q 2819 4750 3233 4129 
Q 3647 3509 3647 2328 
Q 3647 1150 3233 529 
Q 2819 -91 2034 -91 
Q 1250 -91 836 529 
Q 422 1150 422 2328 
Q 422 3509 836 4129 
Q 1250 4750 2034 4750 
z
" transform="scale(0.015625)"/>
       </defs>
       <use xlink:href="#DejaVuSans-32"/>
       <use xlink:href="#DejaVuSans-30" x="63.623047"/>
      </g>
     </g>
    </g>
    <g id="xtick_2">
     <g id="line2d_2">
      <g>
       <use xlink:href="#m5260e37e46" x="118.96545" y="307.584" style="stroke: #000000; stroke-width: 0.8"/>
      </g>
     </g>
     <g id="text_2">
      <!-- 40 -->
      <g transform="translate(112.60295 322.182437) scale(0.1 -0.1)">
       <defs>
        <path id="DejaVuSans-34" d="M 2419 4116 
L 825 1625 
L 2419 1625 
L 2419 4116 
z
M 2253 4666 
L 3047 4666 
L 3047 1625 
L 3713 1625 
L 3713 1100 
L 3047 1100 
L 3047 0 
L 2419 0 
L 2419 1100 
L 313 1100 
L 313 1709 
L 2253 4666 
z
" transform="scale(0.015625)"/>
       </defs>
       <use xlink:href="#DejaVuSans-34"/>
       <use xlink:href="#DejaVuSans-30" x="63.623047"/>
      </g>
     </g>
    </g>
    <g id="xtick_3">
     <g id="line2d_3">
      <g>
       <use xlink:href="#m5260e37e46" x="167.448113" y="307.584" style="stroke: #000000; stroke-width: 0.8"/>
      </g>
     </g>
     <g id="text_3">
      <!-- 60 -->
      <g transform="translate(161.085613 322.182437) scale(0.1 -0.1)">
       <defs>
        <path id="DejaVuSans-36" d="M 2113 2584 
Q 1688 2584 1439 2293 
Q 1191 2003 1191 1497 
Q 1191 994 1439 701 
Q 1688 409 2113 409 
Q 2538 409 2786 701 
Q 3034 994 3034 1497 
Q 3034 2003 2786 2293 
Q 2538 2584 2113 2584 
z
M 3366 4563 
L 3366 3988 
Q 3128 4100 2886 4159 
Q 2644 4219 2406 4219 
Q 1781 4219 1451 3797 
Q 1122 3375 1075 2522 
Q 1259 2794 1537 2939 
Q 1816 3084 2150 3084 
Q 2853 3084 3261 2657 
Q 3669 2231 3669 1497 
Q 3669 778 3244 343 
Q 2819 -91 2113 -91 
Q 1303 -91 875 529 
Q 447 1150 447 2328 
Q 447 3434 972 4092 
Q 1497 4750 2381 4750 
Q 2619 4750 2861 4703 
Q 3103 4656 3366 4563 
z
" transform="scale(0.015625)"/>
       </defs>
       <use xlink:href="#DejaVuSans-36"/>
       <use xlink:href="#DejaVuSans-30" x="63.623047"/>
      </g>
     </g>
    </g>
    <g id="xtick_4">
     <g id="line2d_4">
      <g>
       <use xlink:href="#m5260e37e46" x="215.930777" y="307.584" style="stroke: #000000; stroke-width: 0.8"/>
      </g>
     </g>
     <g id="text_4">
      <!-- 80 -->
      <g transform="translate(209.568277 322.182437) scale(0.1 -0.1)">
       <defs>
        <path id="DejaVuSans-38" d="M 2034 2216 
Q 1584 2216 1326 1975 
Q 1069 1734 1069 1313 
Q 1069 891 1326 650 
Q 1584 409 2034 409 
Q 2484 409 2743 651 
Q 3003 894 3003 1313 
Q 3003 1734 2745 1975 
Q 2488 2216 2034 2216 
z
M 1403 2484 
Q 997 2584 770 2862 
Q 544 3141 544 3541 
Q 544 4100 942 4425 
Q 1341 4750 2034 4750 
Q 2731 4750 3128 4425 
Q 3525 4100 3525 3541 
Q 3525 3141 3298 2862 
Q 3072 2584 2669 2484 
Q 3125 2378 3379 2068 
Q 3634 1759 3634 1313 
Q 3634 634 3220 271 
Q 2806 -91 2034 -91 
Q 1263 -91 848 271 
Q 434 634 434 1313 
Q 434 1759 690 2068 
Q 947 2378 1403 2484 
z
M 1172 3481 
Q 1172 3119 1398 2916 
Q 1625 2713 2034 2713 
Q 2441 2713 2670 2916 
Q 2900 3119 2900 3481 
Q 2900 3844 2670 4047 
Q 2441 4250 2034 4250 
Q 1625 4250 1398 4047 
Q 1172 3844 1172 3481 
z
" transform="scale(0.015625)"/>
       </defs>
       <use xlink:href="#DejaVuSans-38"/>
       <use xlink:href="#DejaVuSans-30" x="63.623047"/>
      </g>
     </g>
    </g>
    <g id="xtick_5">
     <g id="line2d_5">
      <g>
       <use xlink:href="#m5260e37e46" x="264.41344" y="307.584" style="stroke: #000000; stroke-width: 0.8"/>
      </g>
     </g>
     <g id="text_5">
      <!-- 100 -->
      <g transform="translate(254.86969 322.182437) scale(0.1 -0.1)">
       <defs>
        <path id="DejaVuSans-31" d="M 794 531 
L 1825 531 
L 1825 4091 
L 703 3866 
L 703 4441 
L 1819 4666 
L 2450 4666 
L 2450 531 
L 3481 531 
L 3481 0 
L 794 0 
L 794 531 
z
" transform="scale(0.015625)"/>
       </defs>
       <use xlink:href="#DejaVuSans-31"/>
       <use xlink:href="#DejaVuSans-30" x="63.623047"/>
       <use xlink:href="#DejaVuSans-30" x="127.246094"/>
      </g>
     </g>
    </g>
    <g id="xtick_6">
     <g id="line2d_6">
      <g>
       <use xlink:href="#m5260e37e46" x="312.896103" y="307.584" style="stroke: #000000; stroke-width: 0.8"/>
      </g>
     </g>
     <g id="text_6">
      <!-- 120 -->
      <g transform="translate(303.352353 322.182437) scale(0.1 -0.1)">
       <use xlink:href="#DejaVuSans-31"/>
       <use xlink:href="#DejaVuSans-32" x="63.623047"/>
       <use xlink:href="#DejaVuSans-30" x="127.246094"/>
      </g>
     </g>
    </g>
    <g id="xtick_7">
     <g id="line2d_7">
      <g>
       <use xlink:href="#m5260e37e46" x="361.378767" y="307.584" style="stroke: #000000; stroke-width: 0.8"/>
      </g>
     </g>
     <g id="text_7">
      <!-- 140 -->
      <g transform="translate(351.835017 322.182437) scale(0.1 -0.1)">
       <use xlink:href="#DejaVuSans-31"/>
       <use xlink:href="#DejaVuSans-34" x="63.623047"/>
       <use xlink:href="#DejaVuSans-30" x="127.246094"/>
      </g>
     </g>
    </g>
    <g id="xtick_8">
     <g id="line2d_8">
      <g>
       <use xlink:href="#m5260e37e46" x="409.86143" y="307.584" style="stroke: #000000; stroke-width: 0.8"/>
      </g>
     </g>
     <g id="text_8">
      <!-- 160 -->
      <g transform="translate(400.31768 322.182437) scale(0.1 -0.1)">
       <use xlink:href="#DejaVuSans-31"/>
       <use xlink:href="#DejaVuSans-36" x="63.623047"/>
       <use xlink:href="#DejaVuSans-30" x="127.246094"/>
      </g>
     </g>
    </g>
    <g id="text_9">
     <!-- Fruit Consumption -->
     <g transform="translate(190.369375 335.860562) scale(0.1 -0.1)">
      <defs>
       <path id="DejaVuSans-46" d="M 628 4666 
L 3309 4666 
L 3309 4134 
L 1259 4134 
L 1259 2759 
L 3109 2759 
L 3109 2228 
L 1259 2228 
L 1259 0 
L 628 0 
L 628 4666 
z
" transform="scale(0.015625)"/>
       <path id="DejaVuSans-72" d="M 2631 2963 
Q 2534 3019 2420 3045 
Q 2306 3072 2169 3072 
Q 1681 3072 1420 2755 
Q 1159 2438 1159 1844 
L 1159 0 
L 581 0 
L 581 3500 
L 1159 3500 
L 1159 2956 
Q 1341 3275 1631 3429 
Q 1922 3584 2338 3584 
Q 2397 3584 2469 3576 
Q 2541 3569 2628 3553 
L 2631 2963 
z
" transform="scale(0.015625)"/>
       <path id="DejaVuSans-75" d="M 544 1381 
L 544 3500 
L 1119 3500 
L 1119 1403 
Q 1119 906 1312 657 
Q 1506 409 1894 409 
Q 2359 409 2629 706 
Q 2900 1003 2900 1516 
L 2900 3500 
L 3475 3500 
L 3475 0 
L 2900 0 
L 2900 538 
Q 2691 219 2414 64 
Q 2138 -91 1772 -91 
Q 1169 -91 856 284 
Q 544 659 544 1381 
z
M 1991 3584 
L 1991 3584 
z
" transform="scale(0.015625)"/>
       <path id="DejaVuSans-69" d="M 603 3500 
L 1178 3500 
L 1178 0 
L 603 0 
L 603 3500 
z
M 603 4863 
L 1178 4863 
L 1178 4134 
L 603 4134 
L 603 4863 
z
" transform="scale(0.015625)"/>
       <path id="DejaVuSans-74" d="M 1172 4494 
L 1172 3500 
L 2356 3500 
L 2356 3053 
L 1172 3053 
L 1172 1153 
Q 1172 725 1289 603 
Q 1406 481 1766 481 
L 2356 481 
L 2356 0 
L 1766 0 
Q 1100 0 847 248 
Q 594 497 594 1153 
L 594 3053 
L 172 3053 
L 172 3500 
L 594 3500 
L 594 4494 
L 1172 4494 
z
" transform="scale(0.015625)"/>
       <path id="DejaVuSans-20" transform="scale(0.015625)"/>
       <path id="DejaVuSans-43" d="M 4122 4306 
L 4122 3641 
Q 3803 3938 3442 4084 
Q 3081 4231 2675 4231 
Q 1875 4231 1450 3742 
Q 1025 3253 1025 2328 
Q 1025 1406 1450 917 
Q 1875 428 2675 428 
Q 3081 428 3442 575 
Q 3803 722 4122 1019 
L 4122 359 
Q 3791 134 3420 21 
Q 3050 -91 2638 -91 
Q 1578 -91 968 557 
Q 359 1206 359 2328 
Q 359 3453 968 4101 
Q 1578 4750 2638 4750 
Q 3056 4750 3426 4639 
Q 3797 4528 4122 4306 
z
" transform="scale(0.015625)"/>
       <path id="DejaVuSans-6f" d="M 1959 3097 
Q 1497 3097 1228 2736 
Q 959 2375 959 1747 
Q 959 1119 1226 758 
Q 1494 397 1959 397 
Q 2419 397 2687 759 
Q 2956 1122 2956 1747 
Q 2956 2369 2687 2733 
Q 2419 3097 1959 3097 
z
M 1959 3584 
Q 2709 3584 3137 3096 
Q 3566 2609 3566 1747 
Q 3566 888 3137 398 
Q 2709 -91 1959 -91 
Q 1206 -91 779 398 
Q 353 888 353 1747 
Q 353 2609 779 3096 
Q 1206 3584 1959 3584 
z
" transform="scale(0.015625)"/>
       <path id="DejaVuSans-6e" d="M 3513 2113 
L 3513 0 
L 2938 0 
L 2938 2094 
Q 2938 2591 2744 2837 
Q 2550 3084 2163 3084 
Q 1697 3084 1428 2787 
Q 1159 2491 1159 1978 
L 1159 0 
L 581 0 
L 581 3500 
L 1159 3500 
L 1159 2956 
Q 1366 3272 1645 3428 
Q 1925 3584 2291 3584 
Q 2894 3584 3203 3211 
Q 3513 2838 3513 2113 
z
" transform="scale(0.015625)"/>
       <path id="DejaVuSans-73" d="M 2834 3397 
L 2834 2853 
Q 2591 2978 2328 3040 
Q 2066 3103 1784 3103 
Q 1356 3103 1142 2972 
Q 928 2841 928 2578 
Q 928 2378 1081 2264 
Q 1234 2150 1697 2047 
L 1894 2003 
Q 2506 1872 2764 1633 
Q 3022 1394 3022 966 
Q 3022 478 2636 193 
Q 2250 -91 1575 -91 
Q 1294 -91 989 -36 
Q 684 19 347 128 
L 347 722 
Q 666 556 975 473 
Q 1284 391 1588 391 
Q 1994 391 2212 530 
Q 2431 669 2431 922 
Q 2431 1156 2273 1281 
Q 2116 1406 1581 1522 
L 1381 1569 
Q 847 1681 609 1914 
Q 372 2147 372 2553 
Q 372 3047 722 3315 
Q 1072 3584 1716 3584 
Q 2034 3584 2315 3537 
Q 2597 3491 2834 3397 
z
" transform="scale(0.015625)"/>
       <path id="DejaVuSans-6d" d="M 3328 2828 
Q 3544 3216 3844 3400 
Q 4144 3584 4550 3584 
Q 5097 3584 5394 3201 
Q 5691 2819 5691 2113 
L 5691 0 
L 5113 0 
L 5113 2094 
Q 5113 2597 4934 2840 
Q 4756 3084 4391 3084 
Q 3944 3084 3684 2787 
Q 3425 2491 3425 1978 
L 3425 0 
L 2847 0 
L 2847 2094 
Q 2847 2600 2669 2842 
Q 2491 3084 2119 3084 
Q 1678 3084 1418 2786 
Q 1159 2488 1159 1978 
L 1159 0 
L 581 0 
L 581 3500 
L 1159 3500 
L 1159 2956 
Q 1356 3278 1631 3431 
Q 1906 3584 2284 3584 
Q 2666 3584 2933 3390 
Q 3200 3197 3328 2828 
z
" transform="scale(0.015625)"/>
       <path id="DejaVuSans-70" d="M 1159 525 
L 1159 -1331 
L 581 -1331 
L 581 3500 
L 1159 3500 
L 1159 2969 
Q 1341 3281 1617 3432 
Q 1894 3584 2278 3584 
Q 2916 3584 3314 3078 
Q 3713 2572 3713 1747 
Q 3713 922 3314 415 
Q 2916 -91 2278 -91 
Q 1894 -91 1617 61 
Q 1341 213 1159 525 
z
M 3116 1747 
Q 3116 2381 2855 2742 
Q 2594 3103 2138 3103 
Q 1681 3103 1420 2742 
Q 1159 2381 1159 1747 
Q 1159 1113 1420 752 
Q 1681 391 2138 391 
Q 2594 391 2855 752 
Q 3116 1113 3116 1747 
z
" transform="scale(0.015625)"/>
      </defs>
      <use xlink:href="#DejaVuSans-46"/>
      <use xlink:href="#DejaVuSans-72" x="50.269531"/>
      <use xlink:href="#DejaVuSans-75" x="91.382812"/>
      <use xlink:href="#DejaVuSans-69" x="154.761719"/>
      <use xlink:href="#DejaVuSans-74" x="182.544922"/>
      <use xlink:href="#DejaVuSans-20" x="221.753906"/>
      <use xlink:href="#DejaVuSans-43" x="253.541016"/>
      <use xlink:href="#DejaVuSans-6f" x="323.365234"/>
      <use xlink:href="#DejaVuSans-6e" x="384.546875"/>
      <use xlink:href="#DejaVuSans-73" x="447.925781"/>
      <use xlink:href="#DejaVuSans-75" x="500.025391"/>
      <use xlink:href="#DejaVuSans-6d" x="563.404297"/>
      <use xlink:href="#DejaVuSans-70" x="660.816406"/>
      <use xlink:href="#DejaVuSans-74" x="724.292969"/>
      <use xlink:href="#DejaVuSans-69" x="763.501953"/>
      <use xlink:href="#DejaVuSans-6f" x="791.285156"/>
      <use xlink:href="#DejaVuSans-6e" x="852.466797"/>
     </g>
    </g>
   </g>
   <g id="matplotlib.axis_2">
    <g id="ytick_1">
     <g id="line2d_9">
      <defs>
       <path id="mc62600abff" d="M 0 0 
L -3.5 0 
" style="stroke: #000000; stroke-width: 0.8"/>
      </defs>
      <g>
       <use xlink:href="#mc62600abff" x="57.6" y="272.332353" style="stroke: #000000; stroke-width: 0.8"/>
      </g>
     </g>
     <g id="text_10">
      <!-- 2 -->
      <g transform="translate(44.2375 276.131571) scale(0.1 -0.1)">
       <use xlink:href="#DejaVuSans-32"/>
      </g>
     </g>
    </g>
    <g id="ytick_2">
     <g id="line2d_10">
      <g>
       <use xlink:href="#mc62600abff" x="57.6" y="229.216345" style="stroke: #000000; stroke-width: 0.8"/>
      </g>
     </g>
     <g id="text_11">
      <!-- 4 -->
      <g transform="translate(44.2375 233.015564) scale(0.1 -0.1)">
       <use xlink:href="#DejaVuSans-34"/>
      </g>
     </g>
    </g>
    <g id="ytick_3">
     <g id="line2d_11">
      <g>
       <use xlink:href="#mc62600abff" x="57.6" y="186.100338" style="stroke: #000000; stroke-width: 0.8"/>
      </g>
     </g>
     <g id="text_12">
      <!-- 6 -->
      <g transform="translate(44.2375 189.899557) scale(0.1 -0.1)">
       <use xlink:href="#DejaVuSans-36"/>
      </g>
     </g>
    </g>
    <g id="ytick_4">
     <g id="line2d_12">
      <g>
       <use xlink:href="#mc62600abff" x="57.6" y="142.984331" style="stroke: #000000; stroke-width: 0.8"/>
      </g>
     </g>
     <g id="text_13">
      <!-- 8 -->
      <g transform="translate(44.2375 146.78355) scale(0.1 -0.1)">
       <use xlink:href="#DejaVuSans-38"/>
      </g>
     </g>
    </g>
    <g id="ytick_5">
     <g id="line2d_13">
      <g>
       <use xlink:href="#mc62600abff" x="57.6" y="99.868324" style="stroke: #000000; stroke-width: 0.8"/>
      </g>
     </g>
     <g id="text_14">
      <!-- 10 -->
      <g transform="translate(37.875 103.667542) scale(0.1 -0.1)">
       <use xlink:href="#DejaVuSans-31"/>
       <use xlink:href="#DejaVuSans-30" x="63.623047"/>
      </g>
     </g>
    </g>
    <g id="ytick_6">
     <g id="line2d_14">
      <g>
       <use xlink:href="#mc62600abff" x="57.6" y="56.752316" style="stroke: #000000; stroke-width: 0.8"/>
      </g>
     </g>
     <g id="text_15">
      <!-- 12 -->
      <g transform="translate(37.875 60.551535) scale(0.1 -0.1)">
       <use xlink:href="#DejaVuSans-31"/>
       <use xlink:href="#DejaVuSans-32" x="63.623047"/>
      </g>
     </g>
    </g>
    <g id="text_16">
     <!-- Alcohol Consumption -->
     <g transform="translate(31.795312 227.467062) rotate(-90) scale(0.1 -0.1)">
      <defs>
       <path id="DejaVuSans-41" d="M 2188 4044 
L 1331 1722 
L 3047 1722 
L 2188 4044 
z
M 1831 4666 
L 2547 4666 
L 4325 0 
L 3669 0 
L 3244 1197 
L 1141 1197 
L 716 0 
L 50 0 
L 1831 4666 
z
" transform="scale(0.015625)"/>
       <path id="DejaVuSans-6c" d="M 603 4863 
L 1178 4863 
L 1178 0 
L 603 0 
L 603 4863 
z
" transform="scale(0.015625)"/>
       <path id="DejaVuSans-63" d="M 3122 3366 
L 3122 2828 
Q 2878 2963 2633 3030 
Q 2388 3097 2138 3097 
Q 1578 3097 1268 2742 
Q 959 2388 959 1747 
Q 959 1106 1268 751 
Q 1578 397 2138 397 
Q 2388 397 2633 464 
Q 2878 531 3122 666 
L 3122 134 
Q 2881 22 2623 -34 
Q 2366 -91 2075 -91 
Q 1284 -91 818 406 
Q 353 903 353 1747 
Q 353 2603 823 3093 
Q 1294 3584 2113 3584 
Q 2378 3584 2631 3529 
Q 2884 3475 3122 3366 
z
" transform="scale(0.015625)"/>
       <path id="DejaVuSans-68" d="M 3513 2113 
L 3513 0 
L 2938 0 
L 2938 2094 
Q 2938 2591 2744 2837 
Q 2550 3084 2163 3084 
Q 1697 3084 1428 2787 
Q 1159 2491 1159 1978 
L 1159 0 
L 581 0 
L 581 4863 
L 1159 4863 
L 1159 2956 
Q 1366 3272 1645 3428 
Q 1925 3584 2291 3584 
Q 2894 3584 3203 3211 
Q 3513 2838 3513 2113 
z
" transform="scale(0.015625)"/>
      </defs>
      <use xlink:href="#DejaVuSans-41"/>
      <use xlink:href="#DejaVuSans-6c" x="68.408203"/>
      <use xlink:href="#DejaVuSans-63" x="96.191406"/>
      <use xlink:href="#DejaVuSans-6f" x="151.171875"/>
      <use xlink:href="#DejaVuSans-68" x="212.353516"/>
      <use xlink:href="#DejaVuSans-6f" x="275.732422"/>
      <use xlink:href="#DejaVuSans-6c" x="336.914062"/>
      <use xlink:href="#DejaVuSans-20" x="364.697266"/>
      <use xlink:href="#DejaVuSans-43" x="396.484375"/>
      <use xlink:href="#DejaVuSans-6f" x="466.308594"/>
      <use xlink:href="#DejaVuSans-6e" x="527.490234"/>
      <use xlink:href="#DejaVuSans-73" x="590.869141"/>
      <use xlink:href="#DejaVuSans-75" x="642.96875"/>
      <use xlink:href="#DejaVuSans-6d" x="706.347656"/>
      <use xlink:href="#DejaVuSans-70" x="803.759766"/>
      <use xlink:href="#DejaVuSans-74" x="867.236328"/>
      <use xlink:href="#DejaVuSans-69" x="906.445312"/>
      <use xlink:href="#DejaVuSans-6f" x="934.228516"/>
      <use xlink:href="#DejaVuSans-6e" x="995.410156"/>
     </g>
    </g>
   </g>
   <g id="PathCollection_8"/>
   <g id="PathCollection_9">
    <path d="M 171.540744 307.584 
L 171.540744 304.896 
L 171.540744 302.208 
L 171.540744 299.52 
L 171.540744 296.832 
L 171.540744 294.144 
L 171.540744 291.456 
L 171.540744 288.768 
L 171.540744 286.08 
L 171.540744 283.392 
L 171.540744 280.704 
L 171.540744 278.016 
L 171.540744 275.328 
L 171.540744 274.467 
" clip-path="url(#p866f36b1a5)" style="fill: none; stroke: #000000; stroke-width: 0.5"/>
    <path d="M 171.540744 238.557 
L 171.540744 237.696 
L 171.540744 235.008 
L 171.540744 232.32 
L 171.540744 229.632 
L 172.318374 226.944 
L 172.318374 224.256 
L 172.318374 221.568 
L 172.318374 218.88 
L 172.318374 216.192 
L 172.318374 213.504 
L 172.318374 210.816 
L 172.318374 208.128 
L 172.318374 205.44 
L 172.318374 202.752 
L 172.318374 200.064 
L 172.318374 197.376 
L 172.318374 194.688 
L 172.318374 192 
L 172.318374 189.312 
L 172.318374 186.624 
L 172.318374 183.936 
L 172.318374 181.248 
L 172.318374 178.56 
L 172.318374 175.872 
L 172.318374 173.184 
L 172.318374 170.496 
L 172.318374 167.808 
L 172.318374 165.12 
L 172.318374 162.432 
L 173.032727 160.747597 
L 176.64 160.747597 
L 180.247273 160.747597 
L 183.854545 160.747597 
L 187.461818 160.747597 
L 191.069091 160.747597 
L 194.676364 160.747597 
L 198.283636 160.747597 
L 199.801521 162.432 
L 199.801521 165.12 
L 199.801521 167.808 
L 199.801521 170.496 
L 199.801521 173.184 
L 199.801521 175.872 
L 199.801521 178.56 
L 199.801521 181.248 
L 199.801521 183.936 
L 199.801521 186.624 
L 199.801521 189.312 
L 199.801521 192 
L 199.801521 194.688 
L 199.801521 197.376 
L 199.801521 200.064 
L 199.801521 202.752 
L 199.801521 205.44 
L 199.801521 208.128 
L 199.801521 210.816 
L 199.801521 213.504 
L 199.801521 216.192 
L 199.801521 218.88 
L 199.801521 221.568 
L 199.801521 224.256 
L 199.801521 226.944 
L 201.453862 229.632 
L 201.453862 232.32 
L 201.453862 235.008 
L 201.453862 237.696 
L 201.453862 240.384 
L 201.453862 243.072 
L 201.453862 245.76 
L 201.453862 248.448 
L 201.453862 251.136 
L 201.453862 253.824 
L 201.453862 256.512 
L 201.453862 259.2 
L 201.453862 261.888 
L 201.453862 264.576 
L 201.453862 267.264 
L 201.453862 269.952 
L 201.453862 272.64 
L 201.453862 275.328 
L 201.453862 278.016 
L 201.453862 280.704 
L 201.453862 283.392 
L 201.453862 286.08 
L 201.453862 288.768 
L 201.453862 291.456 
L 201.453862 294.144 
L 201.453862 296.832 
L 201.453862 299.52 
L 201.453862 302.208 
L 201.453862 304.896 
L 201.453862 307.584 
" clip-path="url(#p866f36b1a5)" style="fill: none; stroke: #000000; stroke-width: 0.5"/>
   </g>
   <g id="PathCollection_10">
    <path d="M 169.379186 307.584 
L 169.379186 304.896 
L 169.379186 302.208 
L 169.379186 299.52 
L 169.379186 296.832 
L 169.379186 294.144 
L 169.379186 291.456 
L 169.379186 288.768 
L 169.379186 286.08 
L 169.379186 283.392 
L 169.379186 280.704 
L 169.379186 278.016 
L 169.379186 275.328 
L 169.379186 272.64 
L 169.379186 269.952 
L 169.379186 267.264 
L 169.379186 264.576 
L 169.379186 261.888 
L 169.379186 259.2 
L 169.379186 256.512 
L 169.379186 253.824 
L 169.379186 251.136 
L 169.379186 248.448 
L 169.379186 245.76 
L 169.379186 243.072 
L 169.379186 240.384 
L 169.379186 237.696 
L 169.379186 235.008 
L 169.379186 232.32 
L 169.379186 229.632 
L 169.425455 229.379825 
L 170.130132 226.944 
L 170.130132 224.256 
L 170.130132 221.568 
L 170.130132 218.88 
L 170.130132 216.192 
L 170.130132 213.504 
L 170.130132 210.816 
L 170.130132 208.128 
L 170.130132 205.44 
L 170.130132 202.752 
L 170.130132 200.064 
L 170.130132 197.376 
L 170.130132 194.688 
L 170.130132 192 
L 170.130132 189.312 
L 170.130132 186.624 
L 170.130132 183.936 
L 170.130132 181.248 
L 170.130132 178.56 
L 170.130132 175.872 
L 170.130132 173.184 
L 170.130132 170.496 
L 170.130132 167.808 
L 170.130132 165.12 
L 170.130132 162.432 
L 171.270108 159.744 
L 171.270108 157.056 
L 171.270108 154.368 
L 171.270108 151.68 
L 171.270108 148.992 
L 171.270108 146.304 
L 171.270108 143.616 
L 171.270108 140.928 
L 171.270108 138.24 
L 171.270108 135.552 
L 171.270108 132.864 
L 171.270108 130.176 
L 171.270108 127.488 
L 171.270108 124.8 
L 171.270108 122.112 
L 173.032727 120.365347 
L 176.64 120.365347 
L 180.247273 120.365347 
L 183.854545 120.365347 
L 187.461818 120.365347 
L 191.069091 120.365347 
L 194.676364 120.365347 
L 198.283636 120.365347 
L 201.890909 122.047638 
L 205.498182 122.047638 
L 209.105455 122.047638 
L 212.712727 122.047638 
L 216.32 122.047638 
L 219.927273 122.047638 
L 223.534545 122.047638 
L 227.141818 122.047638 
L 230.749091 122.047638 
L 234.356364 122.047638 
L 237.963636 122.047638 
L 241.570909 122.047638 
L 245.178182 122.047638 
L 248.785455 122.047638 
L 248.866818 122.047638 
" clip-path="url(#p866f36b1a5)" style="fill: none; stroke: #000000; stroke-width: 0.5"/>
    <path d="M 284.776818 122.047638 
L 284.858182 122.047638 
L 288.465455 122.047638 
L 292.072727 122.047638 
L 295.68 122.047638 
L 299.287273 122.047638 
L 302.894545 122.047638 
L 306.501818 122.047638 
L 310.109091 122.047638 
L 313.716364 122.047638 
L 317.323636 122.047638 
L 320.930909 122.047638 
L 324.538182 122.047638 
L 328.145455 122.047638 
L 331.752727 122.047638 
L 335.36 122.047638 
L 338.967273 122.047638 
L 342.574545 122.047638 
L 346.181818 122.047638 
L 349.789091 122.047638 
L 353.396364 122.047638 
L 357.003636 122.047638 
L 360.610909 122.047638 
L 364.218182 122.047638 
L 367.825455 122.047638 
L 371.432727 122.047638 
L 375.04 122.047638 
L 378.647273 122.047638 
L 382.254545 122.047638 
L 385.861818 122.047638 
L 389.469091 122.047638 
L 393.076364 122.047638 
L 396.683636 122.047638 
L 400.290909 122.047638 
L 403.898182 122.047638 
L 407.505455 122.047638 
L 411.112727 122.047638 
L 414.72 122.047638 
" clip-path="url(#p866f36b1a5)" style="fill: none; stroke: #000000; stroke-width: 0.5"/>
   </g>
   <g id="PathCollection_11">
    <path d="M 167.991358 307.584 
L 167.991358 304.896 
L 167.991358 302.208 
L 167.991358 299.52 
L 167.991358 296.832 
L 167.991358 294.144 
L 167.991358 291.456 
L 167.991358 288.768 
L 167.991358 286.08 
L 167.991358 283.392 
L 167.991358 280.704 
L 167.991358 278.016 
L 167.991358 275.328 
L 167.991358 272.64 
L 167.991358 269.952 
L 167.991358 267.264 
L 167.991358 264.576 
L 167.991358 261.888 
L 167.991358 259.2 
L 167.991358 256.512 
L 167.991358 253.824 
L 167.991358 251.136 
L 167.991358 248.448 
L 167.991358 245.76 
L 167.991358 243.072 
L 167.991358 240.384 
L 167.991358 237.696 
L 167.991358 235.008 
L 167.991358 232.32 
L 167.991358 229.632 
L 168.484548 226.944 
L 168.484548 224.256 
L 168.484548 221.568 
L 168.484548 218.88 
L 168.484548 216.192 
L 168.484548 213.504 
L 168.484548 210.816 
L 168.484548 208.128 
L 168.484548 205.44 
L 168.484548 202.752 
L 168.484548 200.064 
L 168.484548 197.376 
L 168.484548 194.688 
L 168.484548 192 
L 168.484548 189.312 
L 168.484548 186.624 
L 168.484548 183.936 
L 168.484548 181.248 
L 168.484548 178.56 
L 168.484548 175.872 
L 168.484548 173.184 
L 168.484548 170.496 
L 168.484548 169.539465 
" clip-path="url(#p866f36b1a5)" style="fill: none; stroke: #000000; stroke-width: 0.5"/>
    <path d="M 169.207544 133.725 
L 169.207544 132.864 
L 169.207544 130.176 
L 169.207544 127.488 
L 169.207544 124.8 
L 169.207544 122.112 
L 169.425455 121.771524 
L 171.794436 119.424 
L 171.794436 116.736 
L 171.794436 114.048 
L 171.794436 111.36 
L 171.794436 108.672 
L 171.794436 105.984 
L 171.794436 103.296 
L 171.794436 100.608 
L 171.794436 97.92 
L 171.794436 95.232 
L 171.794436 92.544 
L 171.794436 89.856 
L 171.794436 87.168 
L 171.794436 84.48 
L 171.794436 81.792 
L 171.794436 79.104 
L 173.032727 77.378981 
L 176.64 77.378981 
L 180.247273 77.378981 
L 183.854545 77.378981 
L 187.461818 77.378981 
L 191.069091 77.378981 
L 194.676364 77.378981 
L 198.283636 77.378981 
L 200.914805 79.104 
L 200.914805 81.792 
L 200.914805 84.48 
L 200.914805 87.168 
L 200.914805 89.856 
L 200.914805 92.544 
L 200.914805 95.232 
L 200.914805 97.92 
L 200.914805 100.608 
L 200.914805 103.296 
L 200.914805 105.984 
L 200.914805 108.672 
L 200.914805 111.36 
L 200.914805 114.048 
L 200.914805 116.736 
L 200.914805 119.424 
L 201.890909 119.879217 
L 205.498182 119.879217 
L 209.105455 119.879217 
L 212.712727 119.879217 
L 216.32 119.879217 
L 219.927273 119.879217 
L 223.534545 119.879217 
L 227.141818 119.879217 
L 230.749091 119.879217 
L 234.356364 119.879217 
L 237.963636 119.879217 
L 241.570909 119.879217 
L 245.178182 119.879217 
L 248.785455 119.879217 
L 252.392727 119.879217 
L 256 119.879217 
L 259.607273 119.879217 
L 263.214545 119.879217 
L 266.821818 119.879217 
L 270.429091 119.879217 
L 274.036364 119.879217 
L 277.643636 119.879217 
L 281.250909 119.879217 
L 284.858182 119.879217 
L 288.465455 119.879217 
L 292.072727 119.879217 
L 295.68 119.879217 
L 299.287273 119.879217 
L 302.894545 119.879217 
L 306.501818 119.879217 
L 310.109091 119.879217 
L 313.716364 119.879217 
L 317.323636 119.879217 
L 320.930909 119.879217 
L 324.538182 119.879217 
L 328.145455 119.879217 
L 331.752727 119.879217 
L 335.36 119.879217 
L 338.967273 119.879217 
L 342.574545 119.879217 
L 346.181818 119.879217 
L 349.789091 119.879217 
L 353.396364 119.879217 
L 357.003636 119.879217 
L 360.610909 119.879217 
L 364.218182 119.879217 
L 367.825455 119.879217 
L 371.432727 119.879217 
L 375.04 119.879217 
L 378.647273 119.879217 
L 382.254545 119.879217 
L 385.861818 119.879217 
L 389.469091 119.879217 
L 393.076364 119.879217 
L 396.683636 119.879217 
L 400.290909 119.879217 
L 403.898182 119.879217 
L 407.505455 119.879217 
L 411.112727 119.879217 
L 414.72 119.879217 
" clip-path="url(#p866f36b1a5)" style="fill: none; stroke: #000000; stroke-width: 0.5"/>
   </g>
   <g id="PathCollection_12">
    <path d="M 166.603531 307.584 
L 166.603531 229.632 
L 167.09672 226.944 
L 167.09672 162.432 
L 167.819716 159.744 
L 167.819716 122.112 
L 169.606194 119.424 
L 169.606194 79.104 
L 169.814064 76.416 
L 169.814064 73.728 
L 173.032727 72.429934 
L 198.283636 72.429934 
L 201.464465 73.728 
L 201.464465 76.416 
L 201.890909 76.69558 
L 317.405 76.69558 
L 317.405 76.69558 
" clip-path="url(#p866f36b1a5)" style="fill: none; stroke: #000000; stroke-width: 0.5"/>
    <path d="M 353.315 76.69558 
L 353.396364 76.69558 
L 357.003636 76.69558 
L 360.610909 76.69558 
L 364.218182 76.69558 
L 367.825455 76.69558 
L 371.432727 76.69558 
L 375.04 76.69558 
L 378.647273 76.69558 
L 382.254545 76.69558 
L 385.861818 76.69558 
L 389.469091 76.69558 
L 393.076364 76.69558 
L 396.683636 76.69558 
L 400.290909 76.69558 
L 403.898182 76.69558 
L 407.505455 76.69558 
L 411.112727 76.69558 
L 414.72 76.69558 
" clip-path="url(#p866f36b1a5)" style="fill: none; stroke: #000000; stroke-width: 0.5"/>
   </g>
   <g id="PathCollection_13">
    <path d="M 57.6 162.025677 
L 61.207273 162.025677 
L 64.814545 162.025677 
L 68.421818 162.025677 
L 72.029091 162.025677 
L 75.636364 162.025677 
L 79.243636 162.025677 
L 82.850909 162.025677 
L 86.458182 162.025677 
L 90.065455 162.025677 
L 93.672727 162.025677 
L 97.28 162.025677 
L 100.887273 162.025677 
L 104.494545 162.025677 
L 108.101818 162.025677 
L 108.183182 162.025677 
" clip-path="url(#p866f36b1a5)" style="fill: none; stroke: #000000; stroke-width: 0.5"/>
    <path d="M 144.093182 162.025677 
L 144.174545 162.025677 
L 147.781818 162.025677 
L 151.389091 162.025677 
L 154.996364 162.025677 
L 158.603636 162.025677 
L 162.210909 162.025677 
L 165.818182 162.025677 
L 166.431889 159.744 
L 166.431889 157.056 
L 166.431889 154.368 
L 166.431889 151.68 
L 166.431889 148.992 
L 166.431889 146.304 
L 166.431889 143.616 
L 166.431889 140.928 
L 166.431889 138.24 
L 166.431889 135.552 
L 166.431889 132.864 
L 166.431889 130.176 
L 166.431889 127.488 
L 166.431889 124.8 
L 166.431889 122.112 
L 168.152255 119.424 
L 168.152255 116.736 
L 168.152255 114.048 
L 168.152255 111.36 
L 168.152255 108.672 
L 168.152255 105.984 
L 168.152255 103.296 
L 168.152255 100.608 
L 168.152255 97.92 
L 168.152255 95.232 
L 168.152255 92.544 
L 168.152255 89.856 
L 168.152255 87.168 
L 168.152255 84.48 
L 168.152255 81.792 
L 168.152255 79.104 
L 168.152255 76.416 
L 168.152255 73.728 
L 169.425455 71.98724 
L 171.774216 71.04 
L 171.774216 68.352 
L 171.774216 65.664 
L 169.447357 62.976 
L 169.447357 60.288 
L 169.447357 57.6 
L 169.447357 54.912 
L 169.447357 52.224 
L 169.447357 49.536 
L 169.447357 46.848 
L 169.447357 44.16 
L 169.447357 41.472 
" clip-path="url(#p866f36b1a5)" style="fill: none; stroke: #000000; stroke-width: 0.5"/>
    <path d="M 201.826862 41.472 
L 201.826862 44.16 
L 201.826862 46.848 
L 201.826862 49.536 
L 201.826862 52.224 
L 201.826862 54.912 
L 201.826862 57.6 
L 201.826862 60.288 
L 201.826862 62.976 
L 199.527354 65.664 
L 199.527354 68.352 
L 199.527354 71.04 
L 201.890909 72.004544 
L 205.498182 72.004544 
L 209.105455 72.004544 
L 209.186818 72.004544 
" clip-path="url(#p866f36b1a5)" style="fill: none; stroke: #000000; stroke-width: 0.5"/>
    <path d="M 245.096818 72.004544 
L 245.178182 72.004544 
L 248.785455 72.004544 
L 252.392727 72.004544 
L 256 72.004544 
L 259.607273 72.004544 
L 263.214545 72.004544 
L 266.821818 72.004544 
L 270.429091 72.004544 
L 274.036364 72.004544 
L 277.643636 72.004544 
L 281.250909 72.004544 
L 284.858182 72.004544 
L 288.465455 72.004544 
L 292.072727 72.004544 
L 295.68 72.004544 
L 299.287273 72.004544 
L 302.894545 72.004544 
L 306.501818 72.004544 
L 310.109091 72.004544 
L 313.716364 72.004544 
L 317.323636 72.004544 
L 320.930909 72.004544 
L 324.538182 72.004544 
L 328.145455 72.004544 
L 331.752727 72.004544 
L 335.36 72.004544 
L 338.967273 72.004544 
L 342.574545 72.004544 
L 346.181818 72.004544 
L 349.789091 72.004544 
L 353.396364 72.004544 
L 357.003636 72.004544 
L 360.610909 72.004544 
L 364.218182 72.004544 
L 367.825455 72.004544 
L 371.432727 72.004544 
L 375.04 72.004544 
L 378.647273 72.004544 
L 382.254545 72.004544 
L 385.861818 72.004544 
L 389.469091 72.004544 
L 393.076364 72.004544 
L 396.683636 72.004544 
L 400.290909 72.004544 
L 403.898182 72.004544 
L 407.505455 72.004544 
L 411.112727 72.004544 
L 414.72 72.004544 
" clip-path="url(#p866f36b1a5)" style="fill: none; stroke: #000000; stroke-width: 0.5"/>
   </g>
   <g id="PathCollection_14">
    <path d="M 57.6 120.902469 
L 61.207273 120.902469 
L 64.814545 120.902469 
L 68.421818 120.902469 
L 72.029091 120.902469 
L 75.636364 120.902469 
L 79.243636 120.902469 
L 82.850909 120.902469 
L 86.458182 120.902469 
L 90.065455 120.902469 
L 93.672727 120.902469 
L 97.28 120.902469 
L 100.887273 120.902469 
L 104.494545 120.902469 
L 108.101818 120.902469 
L 108.183182 120.902469 
" clip-path="url(#p866f36b1a5)" style="fill: none; stroke: #000000; stroke-width: 0.5"/>
    <path d="M 144.093182 120.902469 
L 144.174545 120.902469 
L 147.781818 120.902469 
L 151.389091 120.902469 
L 154.996364 120.902469 
L 158.603636 120.902469 
L 162.210909 120.902469 
L 165.818182 120.902469 
L 166.764428 119.424 
L 166.764428 116.736 
L 166.764428 114.048 
L 166.764428 111.36 
L 166.764428 108.672 
L 166.764428 105.984 
L 166.764428 103.296 
L 166.764428 100.608 
L 166.764428 97.92 
L 166.764428 95.232 
L 166.764428 92.544 
L 166.764428 89.856 
L 166.764428 87.168 
L 166.764428 84.48 
L 166.764428 81.792 
L 166.764428 79.104 
L 166.764428 76.416 
L 166.764428 73.728 
L 167.897908 71.04 
L 167.897908 68.352 
L 167.897908 65.664 
L 166.389388 62.976 
L 166.389388 60.288 
L 166.389388 57.6 
L 166.389388 54.912 
L 166.389388 52.224 
L 166.389388 49.536 
L 166.389388 46.848 
L 166.389388 44.16 
L 166.389388 41.472 
" clip-path="url(#p866f36b1a5)" style="fill: none; stroke: #000000; stroke-width: 0.5"/>
   </g>
   <g id="PathCollection_15"/>
   <g id="LineCollection_1">
    <path d="M 91.082143 307.584 
L 91.082143 294.2784 
" clip-path="url(#p866f36b1a5)" style="fill: none; stroke: #000000; stroke-width: 1.5"/>
    <path d="M 119.41596 307.584 
L 119.41596 294.2784 
" clip-path="url(#p866f36b1a5)" style="fill: none; stroke: #000000; stroke-width: 1.5"/>
    <path d="M 149.252755 307.584 
L 149.252755 294.2784 
" clip-path="url(#p866f36b1a5)" style="fill: none; stroke: #000000; stroke-width: 1.5"/>
    <path d="M 172.873124 307.584 
L 172.873124 294.2784 
" clip-path="url(#p866f36b1a5)" style="fill: none; stroke: #000000; stroke-width: 1.5"/>
    <path d="M 191.42873 307.584 
L 191.42873 294.2784 
" clip-path="url(#p866f36b1a5)" style="fill: none; stroke: #000000; stroke-width: 1.5"/>
    <path d="M 219.294539 307.584 
L 219.294539 294.2784 
" clip-path="url(#p866f36b1a5)" style="fill: none; stroke: #000000; stroke-width: 1.5"/>
    <path d="M 236.616633 307.584 
L 236.616633 294.2784 
" clip-path="url(#p866f36b1a5)" style="fill: none; stroke: #000000; stroke-width: 1.5"/>
    <path d="M 280.064827 307.584 
L 280.064827 294.2784 
" clip-path="url(#p866f36b1a5)" style="fill: none; stroke: #000000; stroke-width: 1.5"/>
    <path d="M 343.244712 307.584 
L 343.244712 294.2784 
" clip-path="url(#p866f36b1a5)" style="fill: none; stroke: #000000; stroke-width: 1.5"/>
   </g>
   <g id="LineCollection_2">
    <path d="M 22.000123 123.966721 
L 22.12133 123.966721 
" clip-path="url(#p866f36b1a5)" style="fill: none; stroke: #000000; stroke-width: 1.5"/>
    <path clip-path="url(#p866f36b1a5)" style="fill: none; stroke: #000000; stroke-width: 1.5"/>
    <path clip-path="url(#p866f36b1a5)" style="fill: none; stroke: #000000; stroke-width: 1.5"/>
    <path clip-path="url(#p866f36b1a5)" style="fill: none; stroke: #000000; stroke-width: 1.5"/>
    <path clip-path="url(#p866f36b1a5)" style="fill: none; stroke: #000000; stroke-width: 1.5"/>
    <path clip-path="url(#p866f36b1a5)" style="fill: none; stroke: #000000; stroke-width: 1.5"/>
    <path clip-path="url(#p866f36b1a5)" style="fill: none; stroke: #000000; stroke-width: 1.5"/>
    <path clip-path="url(#p866f36b1a5)" style="fill: none; stroke: #000000; stroke-width: 1.5"/>
    <path clip-path="url(#p866f36b1a5)" style="fill: none; stroke: #000000; stroke-width: 1.5"/>
   </g>
   <g id="patch_3">
    <path d="M 57.6 307.584 
L 57.6 41.472 
" style="fill: none; stroke: #000000; stroke-width: 0.8; stroke-linejoin: miter; stroke-linecap: square"/>
   </g>
   <g id="patch_4">
    <path d="M 414.72 307.584 
L 414.72 41.472 
" style="fill: none; stroke: #000000; stroke-width: 0.8; stroke-linejoin: miter; stroke-linecap: square"/>
   </g>
   <g id="patch_5">
    <path d="M 57.6 307.584 
L 414.72 307.584 
" style="fill: none; stroke: #000000; stroke-width: 0.8; stroke-linejoin: miter; stroke-linecap: square"/>
   </g>
   <g id="patch_6">
    <path d="M 57.6 41.472 
L 414.72 41.472 
" style="fill: none; stroke: #000000; stroke-width: 0.8; stroke-linejoin: miter; stroke-linecap: square"/>
   </g>
   <g id="text_17">
    <!-- 2D-partial dependency plot between Fruit and Alcohol -->
    <g transform="translate(73.922812 35.472) scale(0.12 -0.12)">
     <defs>
      <path id="DejaVuSans-44" d="M 1259 4147 
L 1259 519 
L 2022 519 
Q 2988 519 3436 956 
Q 3884 1394 3884 2338 
Q 3884 3275 3436 3711 
Q 2988 4147 2022 4147 
L 1259 4147 
z
M 628 4666 
L 1925 4666 
Q 3281 4666 3915 4102 
Q 4550 3538 4550 2338 
Q 4550 1131 3912 565 
Q 3275 0 1925 0 
L 628 0 
L 628 4666 
z
" transform="scale(0.015625)"/>
      <path id="DejaVuSans-2d" d="M 313 2009 
L 1997 2009 
L 1997 1497 
L 313 1497 
L 313 2009 
z
" transform="scale(0.015625)"/>
      <path id="DejaVuSans-61" d="M 2194 1759 
Q 1497 1759 1228 1600 
Q 959 1441 959 1056 
Q 959 750 1161 570 
Q 1363 391 1709 391 
Q 2188 391 2477 730 
Q 2766 1069 2766 1631 
L 2766 1759 
L 2194 1759 
z
M 3341 1997 
L 3341 0 
L 2766 0 
L 2766 531 
Q 2569 213 2275 61 
Q 1981 -91 1556 -91 
Q 1019 -91 701 211 
Q 384 513 384 1019 
Q 384 1609 779 1909 
Q 1175 2209 1959 2209 
L 2766 2209 
L 2766 2266 
Q 2766 2663 2505 2880 
Q 2244 3097 1772 3097 
Q 1472 3097 1187 3025 
Q 903 2953 641 2809 
L 641 3341 
Q 956 3463 1253 3523 
Q 1550 3584 1831 3584 
Q 2591 3584 2966 3190 
Q 3341 2797 3341 1997 
z
" transform="scale(0.015625)"/>
      <path id="DejaVuSans-64" d="M 2906 2969 
L 2906 4863 
L 3481 4863 
L 3481 0 
L 2906 0 
L 2906 525 
Q 2725 213 2448 61 
Q 2172 -91 1784 -91 
Q 1150 -91 751 415 
Q 353 922 353 1747 
Q 353 2572 751 3078 
Q 1150 3584 1784 3584 
Q 2172 3584 2448 3432 
Q 2725 3281 2906 2969 
z
M 947 1747 
Q 947 1113 1208 752 
Q 1469 391 1925 391 
Q 2381 391 2643 752 
Q 2906 1113 2906 1747 
Q 2906 2381 2643 2742 
Q 2381 3103 1925 3103 
Q 1469 3103 1208 2742 
Q 947 2381 947 1747 
z
" transform="scale(0.015625)"/>
      <path id="DejaVuSans-65" d="M 3597 1894 
L 3597 1613 
L 953 1613 
Q 991 1019 1311 708 
Q 1631 397 2203 397 
Q 2534 397 2845 478 
Q 3156 559 3463 722 
L 3463 178 
Q 3153 47 2828 -22 
Q 2503 -91 2169 -91 
Q 1331 -91 842 396 
Q 353 884 353 1716 
Q 353 2575 817 3079 
Q 1281 3584 2069 3584 
Q 2775 3584 3186 3129 
Q 3597 2675 3597 1894 
z
M 3022 2063 
Q 3016 2534 2758 2815 
Q 2500 3097 2075 3097 
Q 1594 3097 1305 2825 
Q 1016 2553 972 2059 
L 3022 2063 
z
" transform="scale(0.015625)"/>
      <path id="DejaVuSans-79" d="M 2059 -325 
Q 1816 -950 1584 -1140 
Q 1353 -1331 966 -1331 
L 506 -1331 
L 506 -850 
L 844 -850 
Q 1081 -850 1212 -737 
Q 1344 -625 1503 -206 
L 1606 56 
L 191 3500 
L 800 3500 
L 1894 763 
L 2988 3500 
L 3597 3500 
L 2059 -325 
z
" transform="scale(0.015625)"/>
      <path id="DejaVuSans-62" d="M 3116 1747 
Q 3116 2381 2855 2742 
Q 2594 3103 2138 3103 
Q 1681 3103 1420 2742 
Q 1159 2381 1159 1747 
Q 1159 1113 1420 752 
Q 1681 391 2138 391 
Q 2594 391 2855 752 
Q 3116 1113 3116 1747 
z
M 1159 2969 
Q 1341 3281 1617 3432 
Q 1894 3584 2278 3584 
Q 2916 3584 3314 3078 
Q 3713 2572 3713 1747 
Q 3713 922 3314 415 
Q 2916 -91 2278 -91 
Q 1894 -91 1617 61 
Q 1341 213 1159 525 
L 1159 0 
L 581 0 
L 581 4863 
L 1159 4863 
L 1159 2969 
z
" transform="scale(0.015625)"/>
      <path id="DejaVuSans-77" d="M 269 3500 
L 844 3500 
L 1563 769 
L 2278 3500 
L 2956 3500 
L 3675 769 
L 4391 3500 
L 4966 3500 
L 4050 0 
L 3372 0 
L 2619 2869 
L 1863 0 
L 1184 0 
L 269 3500 
z
" transform="scale(0.015625)"/>
     </defs>
     <use xlink:href="#DejaVuSans-32"/>
     <use xlink:href="#DejaVuSans-44" x="63.623047"/>
     <use xlink:href="#DejaVuSans-2d" x="140.625"/>
     <use xlink:href="#DejaVuSans-70" x="176.708984"/>
     <use xlink:href="#DejaVuSans-61" x="240.185547"/>
     <use xlink:href="#DejaVuSans-72" x="301.464844"/>
     <use xlink:href="#DejaVuSans-74" x="342.578125"/>
     <use xlink:href="#DejaVuSans-69" x="381.787109"/>
     <use xlink:href="#DejaVuSans-61" x="409.570312"/>
     <use xlink:href="#DejaVuSans-6c" x="470.849609"/>
     <use xlink:href="#DejaVuSans-20" x="498.632812"/>
     <use xlink:href="#DejaVuSans-64" x="530.419922"/>
     <use xlink:href="#DejaVuSans-65" x="593.896484"/>
     <use xlink:href="#DejaVuSans-70" x="655.419922"/>
     <use xlink:href="#DejaVuSans-65" x="718.896484"/>
     <use xlink:href="#DejaVuSans-6e" x="780.419922"/>
     <use xlink:href="#DejaVuSans-64" x="843.798828"/>
     <use xlink:href="#DejaVuSans-65" x="907.275391"/>
     <use xlink:href="#DejaVuSans-6e" x="968.798828"/>
     <use xlink:href="#DejaVuSans-63" x="1032.177734"/>
     <use xlink:href="#DejaVuSans-79" x="1087.158203"/>
     <use xlink:href="#DejaVuSans-20" x="1146.337891"/>
     <use xlink:href="#DejaVuSans-70" x="1178.125"/>
     <use xlink:href="#DejaVuSans-6c" x="1241.601562"/>
     <use xlink:href="#DejaVuSans-6f" x="1269.384766"/>
     <use xlink:href="#DejaVuSans-74" x="1330.566406"/>
     <use xlink:href="#DejaVuSans-20" x="1369.775391"/>
     <use xlink:href="#DejaVuSans-62" x="1401.5625"/>
     <use xlink:href="#DejaVuSans-65" x="1465.039062"/>
     <use xlink:href="#DejaVuSans-74" x="1526.5625"/>
     <use xlink:href="#DejaVuSans-77" x="1565.771484"/>
     <use xlink:href="#DejaVuSans-65" x="1647.558594"/>
     <use xlink:href="#DejaVuSans-65" x="1709.082031"/>
     <use xlink:href="#DejaVuSans-6e" x="1770.605469"/>
     <use xlink:href="#DejaVuSans-20" x="1833.984375"/>
     <use xlink:href="#DejaVuSans-46" x="1865.771484"/>
     <use xlink:href="#DejaVuSans-72" x="1916.041016"/>
     <use xlink:href="#DejaVuSans-75" x="1957.154297"/>
     <use xlink:href="#DejaVuSans-69" x="2020.533203"/>
     <use xlink:href="#DejaVuSans-74" x="2048.316406"/>
     <use xlink:href="#DejaVuSans-20" x="2087.525391"/>
     <use xlink:href="#DejaVuSans-61" x="2119.3125"/>
     <use xlink:href="#DejaVuSans-6e" x="2180.591797"/>
     <use xlink:href="#DejaVuSans-64" x="2243.970703"/>
     <use xlink:href="#DejaVuSans-20" x="2307.447266"/>
     <use xlink:href="#DejaVuSans-41" x="2339.234375"/>
     <use xlink:href="#DejaVuSans-6c" x="2407.642578"/>
     <use xlink:href="#DejaVuSans-63" x="2435.425781"/>
     <use xlink:href="#DejaVuSans-6f" x="2490.40625"/>
     <use xlink:href="#DejaVuSans-68" x="2551.587891"/>
     <use xlink:href="#DejaVuSans-6f" x="2614.966797"/>
     <use xlink:href="#DejaVuSans-6c" x="2676.148438"/>
    </g>
   </g>
   <g id="text_18">
    <g clip-path="url(#p866f36b1a5)">
     <!-- 12.93 -->
     <g transform="translate(168.781369 242.197937) rotate(-270) scale(0.1 -0.1)">
      <defs>
       <path id="DejaVuSans-2e" d="M 684 794 
L 1344 794 
L 1344 0 
L 684 0 
L 684 794 
z
" transform="scale(0.015625)"/>
       <path id="DejaVuSans-39" d="M 703 97 
L 703 672 
Q 941 559 1184 500 
Q 1428 441 1663 441 
Q 2288 441 2617 861 
Q 2947 1281 2994 2138 
Q 2813 1869 2534 1725 
Q 2256 1581 1919 1581 
Q 1219 1581 811 2004 
Q 403 2428 403 3163 
Q 403 3881 828 4315 
Q 1253 4750 1959 4750 
Q 2769 4750 3195 4129 
Q 3622 3509 3622 2328 
Q 3622 1225 3098 567 
Q 2575 -91 1691 -91 
Q 1453 -91 1209 -44 
Q 966 3 703 97 
z
M 1959 2075 
Q 2384 2075 2632 2365 
Q 2881 2656 2881 3163 
Q 2881 3666 2632 3958 
Q 2384 4250 1959 4250 
Q 1534 4250 1286 3958 
Q 1038 3666 1038 3163 
Q 1038 2656 1286 2365 
Q 1534 2075 1959 2075 
z
" transform="scale(0.015625)"/>
       <path id="DejaVuSans-33" d="M 2597 2516 
Q 3050 2419 3304 2112 
Q 3559 1806 3559 1356 
Q 3559 666 3084 287 
Q 2609 -91 1734 -91 
Q 1441 -91 1130 -33 
Q 819 25 488 141 
L 488 750 
Q 750 597 1062 519 
Q 1375 441 1716 441 
Q 2309 441 2620 675 
Q 2931 909 2931 1356 
Q 2931 1769 2642 2001 
Q 2353 2234 1838 2234 
L 1294 2234 
L 1294 2753 
L 1863 2753 
Q 2328 2753 2575 2939 
Q 2822 3125 2822 3475 
Q 2822 3834 2567 4026 
Q 2313 4219 1838 4219 
Q 1578 4219 1281 4162 
Q 984 4106 628 3988 
L 628 4550 
Q 988 4650 1302 4700 
Q 1616 4750 1894 4750 
Q 2613 4750 3031 4423 
Q 3450 4097 3450 3541 
Q 3450 3153 3228 2886 
Q 3006 2619 2597 2516 
z
" transform="scale(0.015625)"/>
      </defs>
      <use xlink:href="#DejaVuSans-31"/>
      <use xlink:href="#DejaVuSans-32" x="63.623047"/>
      <use xlink:href="#DejaVuSans-2e" x="127.246094"/>
      <use xlink:href="#DejaVuSans-39" x="159.033203"/>
      <use xlink:href="#DejaVuSans-33" x="222.65625"/>
     </g>
    </g>
   </g>
   <g id="text_19">
    <g clip-path="url(#p866f36b1a5)">
     <!-- 12.96 -->
     <g transform="translate(252.507756 124.807013) scale(0.1 -0.1)">
      <use xlink:href="#DejaVuSans-31"/>
      <use xlink:href="#DejaVuSans-32" x="63.623047"/>
      <use xlink:href="#DejaVuSans-2e" x="127.246094"/>
      <use xlink:href="#DejaVuSans-39" x="159.033203"/>
      <use xlink:href="#DejaVuSans-36" x="222.65625"/>
     </g>
    </g>
   </g>
   <g id="text_20">
    <g clip-path="url(#p866f36b1a5)">
     <!-- 12.99 -->
     <g transform="translate(171.604483 166.059194) rotate(-88.552627) scale(0.1 -0.1)">
      <use xlink:href="#DejaVuSans-31"/>
      <use xlink:href="#DejaVuSans-32" x="63.623047"/>
      <use xlink:href="#DejaVuSans-2e" x="127.246094"/>
      <use xlink:href="#DejaVuSans-39" x="159.033203"/>
      <use xlink:href="#DejaVuSans-39" x="222.65625"/>
     </g>
    </g>
   </g>
   <g id="text_21">
    <g clip-path="url(#p866f36b1a5)">
     <!-- 13.02 -->
     <g transform="translate(321.045937 79.454955) scale(0.1 -0.1)">
      <use xlink:href="#DejaVuSans-31"/>
      <use xlink:href="#DejaVuSans-33" x="63.623047"/>
      <use xlink:href="#DejaVuSans-2e" x="127.246094"/>
      <use xlink:href="#DejaVuSans-30" x="159.033203"/>
      <use xlink:href="#DejaVuSans-32" x="222.65625"/>
     </g>
    </g>
   </g>
   <g id="text_22">
    <g clip-path="url(#p866f36b1a5)">
     <!-- 13.05 -->
     <g transform="translate(111.824119 164.785052) scale(0.1 -0.1)">
      <defs>
       <path id="DejaVuSans-35" d="M 691 4666 
L 3169 4666 
L 3169 4134 
L 1269 4134 
L 1269 2991 
Q 1406 3038 1543 3061 
Q 1681 3084 1819 3084 
Q 2600 3084 3056 2656 
Q 3513 2228 3513 1497 
Q 3513 744 3044 326 
Q 2575 -91 1722 -91 
Q 1428 -91 1123 -41 
Q 819 9 494 109 
L 494 744 
Q 775 591 1075 516 
Q 1375 441 1709 441 
Q 2250 441 2565 725 
Q 2881 1009 2881 1497 
Q 2881 1984 2565 2268 
Q 2250 2553 1709 2553 
Q 1456 2553 1204 2497 
Q 953 2441 691 2322 
L 691 4666 
z
" transform="scale(0.015625)"/>
      </defs>
      <use xlink:href="#DejaVuSans-31"/>
      <use xlink:href="#DejaVuSans-33" x="63.623047"/>
      <use xlink:href="#DejaVuSans-2e" x="127.246094"/>
      <use xlink:href="#DejaVuSans-30" x="159.033203"/>
      <use xlink:href="#DejaVuSans-35" x="222.65625"/>
     </g>
    </g>
   </g>
   <g id="text_23">
    <g clip-path="url(#p866f36b1a5)">
     <!-- 13.05 -->
     <g transform="translate(212.827756 74.763919) scale(0.1 -0.1)">
      <use xlink:href="#DejaVuSans-31"/>
      <use xlink:href="#DejaVuSans-33" x="63.623047"/>
      <use xlink:href="#DejaVuSans-2e" x="127.246094"/>
      <use xlink:href="#DejaVuSans-30" x="159.033203"/>
      <use xlink:href="#DejaVuSans-35" x="222.65625"/>
     </g>
    </g>
   </g>
   <g id="text_24">
    <g clip-path="url(#p866f36b1a5)">
     <!-- 13.08 -->
     <g transform="translate(111.824119 123.661844) scale(0.1 -0.1)">
      <use xlink:href="#DejaVuSans-31"/>
      <use xlink:href="#DejaVuSans-33" x="63.623047"/>
      <use xlink:href="#DejaVuSans-2e" x="127.246094"/>
      <use xlink:href="#DejaVuSans-30" x="159.033203"/>
      <use xlink:href="#DejaVuSans-38" x="222.65625"/>
     </g>
    </g>
   </g>
  </g>
 </g>
 <defs>
  <clipPath id="p866f36b1a5">
   <rect x="57.6" y="41.472" width="357.12" height="266.112"/>
  </clipPath>
 </defs>
</svg>
