<?xml version="1.0" encoding="utf-8" standalone="no"?>
<!DOCTYPE svg PUBLIC "-//W3C//DTD SVG 1.1//EN"
  "http://www.w3.org/Graphics/SVG/1.1/DTD/svg11.dtd">
<svg xmlns:xlink="http://www.w3.org/1999/xlink" width="460.8pt" height="345.6pt" viewBox="0 0 460.8 345.6" xmlns="http://www.w3.org/2000/svg" version="1.1">
 <metadata>
  <rdf:RDF xmlns:dc="http://purl.org/dc/elements/1.1/" xmlns:cc="http://creativecommons.org/ns#" xmlns:rdf="http://www.w3.org/1999/02/22-rdf-syntax-ns#">
   <cc:Work>
    <dc:type rdf:resource="http://purl.org/dc/dcmitype/StillImage"/>
    <dc:date>2024-04-22T00:28:52.059649</dc:date>
    <dc:format>image/svg+xml</dc:format>
    <dc:creator>
     <cc:Agent>
      <dc:title>Matplotlib v3.7.0, https://matplotlib.org/</dc:title>
     </cc:Agent>
    </dc:creator>
   </cc:Work>
  </rdf:RDF>
 </metadata>
 <defs>
  <style type="text/css">*{stroke-linejoin: round; stroke-linecap: butt}</style>
 </defs>
 <g id="figure_1">
  <g id="patch_1">
   <path d="M 0 345.6 
L 460.8 345.6 
L 460.8 0 
L 0 0 
L 0 345.6 
z
" style="fill: none"/>
  </g>
  <g id="axes_1"/>
  <g id="axes_2">
   <g id="patch_2">
    <path d="M 57.6 307.584 
L 414.72 307.584 
L 414.72 41.472 
L 57.6 41.472 
L 57.6 307.584 
z
" style="fill: none"/>
   </g>
   <g id="PathCollection_1">
    <path d="M 68.668842 151.68 
L 68.668842 148.992 
L 79.018744 146.304 
L 79.018744 143.616 
L 79.018744 140.928 
L 79.018744 138.24 
L 79.018744 135.552 
L 79.018744 132.864 
L 79.018744 130.176 
L 79.018744 127.488 
L 79.018744 124.8 
L 79.018744 122.112 
L 79.018744 119.424 
L 79.018744 116.736 
L 79.018744 114.048 
L 79.018744 111.36 
L 79.018744 108.672 
L 79.018744 105.984 
L 79.018744 103.296 
L 79.018744 100.608 
L 79.018744 97.92 
L 79.018744 95.232 
L 79.018744 92.544 
L 79.018744 89.856 
L 79.018744 87.168 
L 79.018744 84.48 
L 79.018744 81.792 
L 79.018744 79.104 
L 79.018744 76.416 
L 79.018744 73.728 
L 79.018744 71.04 
L 79.018744 68.352 
L 79.018744 65.664 
L 79.018744 62.976 
L 79.018744 60.288 
L 79.018744 57.6 
L 79.018744 54.912 
L 79.018744 52.224 
L 79.018744 49.536 
L 79.018744 46.848 
L 79.018744 44.16 
L 79.018744 41.472 
L 57.6 41.472 
L 57.6 44.16 
L 57.6 46.848 
L 57.6 49.536 
L 57.6 52.224 
L 57.6 54.912 
L 57.6 57.6 
L 57.6 60.288 
L 57.6 62.976 
L 57.6 65.664 
L 57.6 68.352 
L 57.6 71.04 
L 57.6 73.728 
L 57.6 76.416 
L 57.6 79.104 
L 57.6 81.792 
L 57.6 84.48 
L 57.6 87.168 
L 57.6 89.856 
L 57.6 92.544 
L 57.6 95.232 
L 57.6 97.92 
L 57.6 100.608 
L 57.6 103.296 
L 57.6 105.984 
L 57.6 108.672 
L 57.6 111.36 
L 57.6 114.048 
L 57.6 116.736 
L 57.6 119.424 
L 57.6 122.112 
L 57.6 124.8 
L 57.6 127.488 
L 57.6 130.176 
L 57.6 132.864 
L 57.6 135.552 
L 57.6 138.24 
L 57.6 140.928 
L 57.6 143.616 
L 57.6 146.304 
L 57.6 148.992 
L 57.6 151.68 
L 57.6 154.141667 
z
" clip-path="url(#pe340b8c215)" style="fill: #481b6d; fill-opacity: 0.75"/>
   </g>
   <g id="PathCollection_2">
    <path d="M 61.299863 194.688 
L 61.299863 192 
L 61.299863 189.312 
L 61.299863 186.624 
L 61.299863 183.936 
L 61.299863 181.248 
L 61.299863 178.56 
L 61.299863 175.872 
L 61.299863 173.184 
L 61.299863 170.496 
L 61.299863 167.808 
L 61.299863 165.12 
L 61.299863 162.432 
L 61.299863 159.744 
L 61.299863 157.056 
L 87.996455 154.368 
L 100.083 151.68 
L 100.083 148.992 
L 110.432902 146.304 
L 110.432902 143.616 
L 110.432902 140.928 
L 110.432902 138.24 
L 110.432902 135.552 
L 110.432902 132.864 
L 110.432902 130.176 
L 110.432902 127.488 
L 110.432902 124.8 
L 110.432902 122.112 
L 110.432902 119.424 
L 110.432902 116.736 
L 110.432902 114.048 
L 110.432902 111.36 
L 110.432902 108.672 
L 110.432902 105.984 
L 110.432902 103.296 
L 110.432902 100.608 
L 110.432902 97.92 
L 110.432902 95.232 
L 110.432902 92.544 
L 110.432902 89.856 
L 110.432902 87.168 
L 110.432902 84.48 
L 110.432902 81.792 
L 110.432902 79.104 
L 110.432902 76.416 
L 110.432902 73.728 
L 110.432902 71.04 
L 110.432902 68.352 
L 110.432902 65.664 
L 110.432902 62.976 
L 110.432902 60.288 
L 110.432902 57.6 
L 110.432902 54.912 
L 110.432902 52.224 
L 110.432902 49.536 
L 110.432902 46.848 
L 110.432902 44.16 
L 110.432902 41.472 
L 79.018744 41.472 
L 79.018744 44.16 
L 79.018744 46.848 
L 79.018744 49.536 
L 79.018744 52.224 
L 79.018744 54.912 
L 79.018744 57.6 
L 79.018744 60.288 
L 79.018744 62.976 
L 79.018744 65.664 
L 79.018744 68.352 
L 79.018744 71.04 
L 79.018744 73.728 
L 79.018744 76.416 
L 79.018744 79.104 
L 79.018744 81.792 
L 79.018744 84.48 
L 79.018744 87.168 
L 79.018744 89.856 
L 79.018744 92.544 
L 79.018744 95.232 
L 79.018744 97.92 
L 79.018744 100.608 
L 79.018744 103.296 
L 79.018744 105.984 
L 79.018744 108.672 
L 79.018744 111.36 
L 79.018744 114.048 
L 79.018744 116.736 
L 79.018744 119.424 
L 79.018744 122.112 
L 79.018744 124.8 
L 79.018744 127.488 
L 79.018744 130.176 
L 79.018744 132.864 
L 79.018744 135.552 
L 79.018744 138.24 
L 79.018744 140.928 
L 79.018744 143.616 
L 79.018744 146.304 
L 68.668842 148.992 
L 68.668842 151.68 
L 57.6 154.141667 
L 57.6 154.368 
L 57.6 157.056 
L 57.6 159.744 
L 57.6 162.432 
L 57.6 165.12 
L 57.6 167.808 
L 57.6 170.496 
L 57.6 173.184 
L 57.6 175.872 
L 57.6 178.56 
L 57.6 181.248 
L 57.6 183.936 
L 57.6 186.624 
L 57.6 189.312 
L 57.6 192 
L 57.6 194.688 
L 57.6 195.688998 
z
" clip-path="url(#pe340b8c215)" style="fill: #3f4788; fill-opacity: 0.75"/>
   </g>
   <g id="PathCollection_3">
    <path d="M 82.778701 256.512 
L 82.778701 253.824 
L 82.778701 251.136 
L 82.778701 248.448 
L 82.778701 245.76 
L 82.778701 243.072 
L 82.778701 240.384 
L 82.778701 237.696 
L 82.778701 235.008 
L 82.778701 232.32 
L 82.778701 229.632 
L 82.778701 226.944 
L 82.778701 224.256 
L 82.778701 221.568 
L 82.778701 218.88 
L 82.778701 216.192 
L 82.778701 213.504 
L 82.778701 210.816 
L 82.778701 208.128 
L 82.778701 205.44 
L 82.778701 202.752 
L 82.778701 200.064 
L 82.778701 197.376 
L 92.714021 194.688 
L 92.714021 192 
L 92.714021 189.312 
L 92.714021 186.624 
L 92.714021 183.936 
L 92.714021 181.248 
L 92.714021 178.56 
L 92.714021 175.872 
L 92.714021 173.184 
L 92.714021 170.496 
L 92.714021 167.808 
L 92.714021 165.12 
L 92.714021 162.432 
L 92.714021 159.744 
L 92.714021 157.056 
L 119.410612 154.368 
L 129.024 152.23002 
L 139.251723 151.68 
L 139.251723 148.992 
L 182.05366 146.304 
L 182.05366 143.616 
L 182.05366 140.928 
L 182.05366 138.24 
L 182.05366 135.552 
L 182.05366 132.864 
L 182.05366 130.176 
L 182.05366 127.488 
L 182.05366 124.8 
L 182.05366 122.112 
L 182.05366 119.424 
L 182.05366 116.736 
L 182.05366 114.048 
L 182.05366 111.36 
L 182.05366 108.672 
L 182.05366 105.984 
L 182.05366 103.296 
L 182.05366 100.608 
L 182.05366 97.92 
L 182.05366 95.232 
L 182.05366 92.544 
L 182.05366 89.856 
L 182.05366 87.168 
L 182.05366 84.48 
L 182.05366 81.792 
L 182.05366 79.104 
L 182.05366 76.416 
L 182.05366 73.728 
L 182.05366 71.04 
L 182.05366 68.352 
L 182.05366 65.664 
L 182.05366 62.976 
L 182.05366 60.288 
L 182.05366 57.6 
L 182.05366 54.912 
L 182.05366 52.224 
L 182.05366 49.536 
L 182.05366 46.848 
L 182.05366 44.16 
L 182.05366 41.472 
L 129.024 41.472 
L 110.432902 41.472 
L 110.432902 44.16 
L 110.432902 46.848 
L 110.432902 49.536 
L 110.432902 52.224 
L 110.432902 54.912 
L 110.432902 57.6 
L 110.432902 60.288 
L 110.432902 62.976 
L 110.432902 65.664 
L 110.432902 68.352 
L 110.432902 71.04 
L 110.432902 73.728 
L 110.432902 76.416 
L 110.432902 79.104 
L 110.432902 81.792 
L 110.432902 84.48 
L 110.432902 87.168 
L 110.432902 89.856 
L 110.432902 92.544 
L 110.432902 95.232 
L 110.432902 97.92 
L 110.432902 100.608 
L 110.432902 103.296 
L 110.432902 105.984 
L 110.432902 108.672 
L 110.432902 111.36 
L 110.432902 114.048 
L 110.432902 116.736 
L 110.432902 119.424 
L 110.432902 122.112 
L 110.432902 124.8 
L 110.432902 127.488 
L 110.432902 130.176 
L 110.432902 132.864 
L 110.432902 135.552 
L 110.432902 138.24 
L 110.432902 140.928 
L 110.432902 143.616 
L 110.432902 146.304 
L 100.083 148.992 
L 100.083 151.68 
L 87.996455 154.368 
L 61.299863 157.056 
L 61.299863 159.744 
L 61.299863 162.432 
L 61.299863 165.12 
L 61.299863 167.808 
L 61.299863 170.496 
L 61.299863 173.184 
L 61.299863 175.872 
L 61.299863 178.56 
L 61.299863 181.248 
L 61.299863 183.936 
L 61.299863 186.624 
L 61.299863 189.312 
L 61.299863 192 
L 61.299863 194.688 
L 57.6 195.688998 
L 57.6 197.376 
L 57.6 200.064 
L 57.6 202.752 
L 57.6 205.44 
L 57.6 208.128 
L 57.6 210.816 
L 57.6 213.504 
L 57.6 216.192 
L 57.6 218.88 
L 57.6 221.568 
L 57.6 224.256 
L 57.6 226.944 
L 57.6 229.632 
L 57.6 232.32 
L 57.6 235.008 
L 57.6 237.696 
L 57.6 240.384 
L 57.6 243.072 
L 57.6 245.76 
L 57.6 248.448 
L 57.6 251.136 
L 57.6 253.824 
L 57.6 256.512 
L 57.6 258.920041 
z
" clip-path="url(#pe340b8c215)" style="fill: #2e6e8e; fill-opacity: 0.75"/>
   </g>
   <g id="PathCollection_4">
    <path d="M 81.107851 304.896 
L 81.107851 302.208 
L 81.107851 299.52 
L 81.107851 296.832 
L 81.107851 294.144 
L 81.107851 291.456 
L 81.107851 288.768 
L 62.04792 286.08 
L 62.04792 283.392 
L 62.04792 280.704 
L 62.04792 278.016 
L 62.04792 275.328 
L 62.04792 272.64 
L 62.04792 269.952 
L 62.04792 267.264 
L 62.04792 264.576 
L 86.086875 261.888 
L 86.086875 259.2 
L 114.192859 256.512 
L 114.192859 253.824 
L 114.192859 251.136 
L 114.192859 248.448 
L 114.192859 245.76 
L 114.192859 243.072 
L 114.192859 240.384 
L 114.192859 237.696 
L 114.192859 235.008 
L 114.192859 232.32 
L 114.192859 229.632 
L 114.192859 226.944 
L 114.192859 224.256 
L 114.192859 221.568 
L 114.192859 218.88 
L 114.192859 216.192 
L 114.192859 213.504 
L 114.192859 210.816 
L 114.192859 208.128 
L 114.192859 205.44 
L 114.192859 202.752 
L 114.192859 200.064 
L 114.192859 197.376 
L 124.128179 194.688 
L 124.128179 192 
L 124.128179 189.312 
L 124.128179 186.624 
L 124.128179 183.936 
L 124.128179 181.248 
L 124.128179 178.56 
L 124.128179 175.872 
L 124.128179 173.184 
L 124.128179 170.496 
L 124.128179 167.808 
L 124.128179 165.12 
L 124.128179 162.432 
L 124.128179 159.744 
L 124.128179 157.056 
L 129.024 156.563054 
L 200.448 154.824091 
L 271.872 154.824091 
L 343.296 154.824091 
L 414.72 154.824091 
L 414.72 154.368 
L 414.72 151.68 
L 414.72 148.992 
L 414.72 146.304 
L 414.72 143.616 
L 414.72 140.928 
L 414.72 138.24 
L 414.72 135.552 
L 414.72 132.864 
L 414.72 130.176 
L 414.72 127.488 
L 414.72 124.8 
L 414.72 122.112 
L 414.72 119.424 
L 414.72 116.736 
L 414.72 114.048 
L 414.72 111.36 
L 414.72 108.672 
L 414.72 105.984 
L 414.72 103.296 
L 414.72 100.608 
L 414.72 97.92 
L 414.72 95.232 
L 414.72 92.544 
L 414.72 89.856 
L 414.72 87.168 
L 414.72 84.48 
L 414.72 81.792 
L 414.72 79.104 
L 414.72 76.416 
L 414.72 73.728 
L 414.72 71.04 
L 414.72 68.352 
L 414.72 65.664 
L 414.72 62.976 
L 414.72 60.288 
L 414.72 57.6 
L 414.72 54.912 
L 414.72 52.224 
L 414.72 49.536 
L 414.72 46.848 
L 414.72 44.16 
L 414.72 41.472 
L 343.296 41.472 
L 271.872 41.472 
L 200.448 41.472 
L 182.05366 41.472 
L 182.05366 44.16 
L 182.05366 46.848 
L 182.05366 49.536 
L 182.05366 52.224 
L 182.05366 54.912 
L 182.05366 57.6 
L 182.05366 60.288 
L 182.05366 62.976 
L 182.05366 65.664 
L 182.05366 68.352 
L 182.05366 71.04 
L 182.05366 73.728 
L 182.05366 76.416 
L 182.05366 79.104 
L 182.05366 81.792 
L 182.05366 84.48 
L 182.05366 87.168 
L 182.05366 89.856 
L 182.05366 92.544 
L 182.05366 95.232 
L 182.05366 97.92 
L 182.05366 100.608 
L 182.05366 103.296 
L 182.05366 105.984 
L 182.05366 108.672 
L 182.05366 111.36 
L 182.05366 114.048 
L 182.05366 116.736 
L 182.05366 119.424 
L 182.05366 122.112 
L 182.05366 124.8 
L 182.05366 127.488 
L 182.05366 130.176 
L 182.05366 132.864 
L 182.05366 135.552 
L 182.05366 138.24 
L 182.05366 140.928 
L 182.05366 143.616 
L 182.05366 146.304 
L 139.251723 148.992 
L 139.251723 151.68 
L 129.024 152.23002 
L 119.410612 154.368 
L 92.714021 157.056 
L 92.714021 159.744 
L 92.714021 162.432 
L 92.714021 165.12 
L 92.714021 167.808 
L 92.714021 170.496 
L 92.714021 173.184 
L 92.714021 175.872 
L 92.714021 178.56 
L 92.714021 181.248 
L 92.714021 183.936 
L 92.714021 186.624 
L 92.714021 189.312 
L 92.714021 192 
L 92.714021 194.688 
L 82.778701 197.376 
L 82.778701 200.064 
L 82.778701 202.752 
L 82.778701 205.44 
L 82.778701 208.128 
L 82.778701 210.816 
L 82.778701 213.504 
L 82.778701 216.192 
L 82.778701 218.88 
L 82.778701 221.568 
L 82.778701 224.256 
L 82.778701 226.944 
L 82.778701 229.632 
L 82.778701 232.32 
L 82.778701 235.008 
L 82.778701 237.696 
L 82.778701 240.384 
L 82.778701 243.072 
L 82.778701 245.76 
L 82.778701 248.448 
L 82.778701 251.136 
L 82.778701 253.824 
L 82.778701 256.512 
L 57.6 258.920041 
L 57.6 259.2 
L 57.6 261.888 
L 57.6 264.576 
L 57.6 267.264 
L 57.6 269.952 
L 57.6 272.64 
L 57.6 275.328 
L 57.6 278.016 
L 57.6 280.704 
L 57.6 283.392 
L 57.6 286.08 
L 57.6 288.768 
L 57.6 291.456 
L 57.6 294.144 
L 57.6 296.832 
L 57.6 299.52 
L 57.6 302.208 
L 57.6 304.896 
L 57.6 307.584 
L 81.107851 307.584 
z
" clip-path="url(#pe340b8c215)" style="fill: #21918c; fill-opacity: 0.75"/>
   </g>
   <g id="PathCollection_5">
    <path d="M 112.522009 304.896 
L 112.522009 302.208 
L 112.522009 299.52 
L 112.522009 296.832 
L 112.522009 294.144 
L 112.522009 291.456 
L 112.522009 288.768 
L 93.462078 286.08 
L 93.462078 283.392 
L 93.462078 280.704 
L 93.462078 278.016 
L 93.462078 275.328 
L 93.462078 272.64 
L 93.462078 269.952 
L 93.462078 267.264 
L 93.462078 264.576 
L 117.501032 261.888 
L 117.501032 259.2 
L 129.024 258.097966 
L 197.602934 256.512 
L 197.602934 253.824 
L 197.602934 251.136 
L 197.602934 248.448 
L 197.602934 245.76 
L 197.602934 243.072 
L 197.602934 240.384 
L 197.602934 237.696 
L 197.602934 235.008 
L 197.602934 232.32 
L 197.602934 229.632 
L 197.602934 226.944 
L 197.602934 224.256 
L 197.602934 221.568 
L 197.602934 218.88 
L 197.602934 216.192 
L 197.602934 213.504 
L 197.602934 210.816 
L 197.602934 208.128 
L 197.602934 205.44 
L 197.602934 202.752 
L 197.602934 200.064 
L 197.602934 197.376 
L 200.448 197.189872 
L 271.872 197.189872 
L 343.296 197.189872 
L 414.72 197.189872 
L 414.72 194.688 
L 414.72 192 
L 414.72 189.312 
L 414.72 186.624 
L 414.72 183.936 
L 414.72 181.248 
L 414.72 178.56 
L 414.72 175.872 
L 414.72 173.184 
L 414.72 170.496 
L 414.72 167.808 
L 414.72 165.12 
L 414.72 162.432 
L 414.72 159.744 
L 414.72 157.056 
L 414.72 154.824091 
L 343.296 154.824091 
L 271.872 154.824091 
L 200.448 154.824091 
L 129.024 156.563054 
L 124.128179 157.056 
L 124.128179 159.744 
L 124.128179 162.432 
L 124.128179 165.12 
L 124.128179 167.808 
L 124.128179 170.496 
L 124.128179 173.184 
L 124.128179 175.872 
L 124.128179 178.56 
L 124.128179 181.248 
L 124.128179 183.936 
L 124.128179 186.624 
L 124.128179 189.312 
L 124.128179 192 
L 124.128179 194.688 
L 114.192859 197.376 
L 114.192859 200.064 
L 114.192859 202.752 
L 114.192859 205.44 
L 114.192859 208.128 
L 114.192859 210.816 
L 114.192859 213.504 
L 114.192859 216.192 
L 114.192859 218.88 
L 114.192859 221.568 
L 114.192859 224.256 
L 114.192859 226.944 
L 114.192859 229.632 
L 114.192859 232.32 
L 114.192859 235.008 
L 114.192859 237.696 
L 114.192859 240.384 
L 114.192859 243.072 
L 114.192859 245.76 
L 114.192859 248.448 
L 114.192859 251.136 
L 114.192859 253.824 
L 114.192859 256.512 
L 86.086875 259.2 
L 86.086875 261.888 
L 62.04792 264.576 
L 62.04792 267.264 
L 62.04792 269.952 
L 62.04792 272.64 
L 62.04792 275.328 
L 62.04792 278.016 
L 62.04792 280.704 
L 62.04792 283.392 
L 62.04792 286.08 
L 81.107851 288.768 
L 81.107851 291.456 
L 81.107851 294.144 
L 81.107851 296.832 
L 81.107851 299.52 
L 81.107851 302.208 
L 81.107851 304.896 
L 81.107851 307.584 
L 112.522009 307.584 
z
" clip-path="url(#pe340b8c215)" style="fill: #2db27d; fill-opacity: 0.75"/>
   </g>
   <g id="PathCollection_6">
    <path d="M 129.024 307.584 
L 190.693146 307.584 
L 190.693146 304.896 
L 190.693146 302.208 
L 190.693146 299.52 
L 190.693146 296.832 
L 190.693146 294.144 
L 190.693146 291.456 
L 190.693146 288.768 
L 129.024 286.664954 
L 124.876236 286.08 
L 124.876236 283.392 
L 124.876236 280.704 
L 124.876236 278.016 
L 124.876236 275.328 
L 124.876236 272.64 
L 124.876236 269.952 
L 124.876236 267.264 
L 124.876236 264.576 
L 129.024 264.112203 
L 200.448 262.180988 
L 271.872 262.180988 
L 343.296 262.180988 
L 414.72 262.180988 
L 414.72 261.888 
L 414.72 259.2 
L 414.72 256.512 
L 414.72 253.824 
L 414.72 251.136 
L 414.72 248.448 
L 414.72 245.76 
L 414.72 243.072 
L 414.72 240.384 
L 414.72 237.696 
L 414.72 235.008 
L 414.72 232.32 
L 414.72 229.632 
L 414.72 226.944 
L 414.72 224.256 
L 414.72 221.568 
L 414.72 218.88 
L 414.72 216.192 
L 414.72 213.504 
L 414.72 210.816 
L 414.72 208.128 
L 414.72 205.44 
L 414.72 202.752 
L 414.72 200.064 
L 414.72 197.376 
L 414.72 197.189872 
L 343.296 197.189872 
L 271.872 197.189872 
L 200.448 197.189872 
L 197.602934 197.376 
L 197.602934 200.064 
L 197.602934 202.752 
L 197.602934 205.44 
L 197.602934 208.128 
L 197.602934 210.816 
L 197.602934 213.504 
L 197.602934 216.192 
L 197.602934 218.88 
L 197.602934 221.568 
L 197.602934 224.256 
L 197.602934 226.944 
L 197.602934 229.632 
L 197.602934 232.32 
L 197.602934 235.008 
L 197.602934 237.696 
L 197.602934 240.384 
L 197.602934 243.072 
L 197.602934 245.76 
L 197.602934 248.448 
L 197.602934 251.136 
L 197.602934 253.824 
L 197.602934 256.512 
L 129.024 258.097966 
L 117.501032 259.2 
L 117.501032 261.888 
L 93.462078 264.576 
L 93.462078 267.264 
L 93.462078 269.952 
L 93.462078 272.64 
L 93.462078 275.328 
L 93.462078 278.016 
L 93.462078 280.704 
L 93.462078 283.392 
L 93.462078 286.08 
L 112.522009 288.768 
L 112.522009 291.456 
L 112.522009 294.144 
L 112.522009 296.832 
L 112.522009 299.52 
L 112.522009 302.208 
L 112.522009 304.896 
L 112.522009 307.584 
z
" clip-path="url(#pe340b8c215)" style="fill: #73d056; fill-opacity: 0.75"/>
   </g>
   <g id="PathCollection_7">
    <path d="M 200.448 307.584 
L 271.872 307.584 
L 343.296 307.584 
L 414.72 307.584 
L 414.72 304.896 
L 414.72 302.208 
L 414.72 299.52 
L 414.72 296.832 
L 414.72 294.144 
L 414.72 291.456 
L 414.72 288.768 
L 414.72 286.08 
L 414.72 283.392 
L 414.72 280.704 
L 414.72 278.016 
L 414.72 275.328 
L 414.72 272.64 
L 414.72 269.952 
L 414.72 267.264 
L 414.72 264.576 
L 414.72 262.180988 
L 343.296 262.180988 
L 271.872 262.180988 
L 200.448 262.180988 
L 129.024 264.112203 
L 124.876236 264.576 
L 124.876236 267.264 
L 124.876236 269.952 
L 124.876236 272.64 
L 124.876236 275.328 
L 124.876236 278.016 
L 124.876236 280.704 
L 124.876236 283.392 
L 124.876236 286.08 
L 129.024 286.664954 
L 190.693146 288.768 
L 190.693146 291.456 
L 190.693146 294.144 
L 190.693146 296.832 
L 190.693146 299.52 
L 190.693146 302.208 
L 190.693146 304.896 
L 190.693146 307.584 
z
" clip-path="url(#pe340b8c215)" style="fill: #d0e11c; fill-opacity: 0.75"/>
   </g>
   <g id="matplotlib.axis_1">
    <g id="xtick_1">
     <g id="line2d_1">
      <defs>
       <path id="m1ccac82cb1" d="M 0 0 
L 0 3.5 
" style="stroke: #000000; stroke-width: 0.8"/>
      </defs>
      <g>
       <use xlink:href="#m1ccac82cb1" x="57.6" y="307.584" style="stroke: #000000; stroke-width: 0.8"/>
      </g>
     </g>
     <g id="text_1">
      <!-- 1 -->
      <g transform="translate(54.41875 322.182437) scale(0.1 -0.1)">
       <defs>
        <path id="DejaVuSans-31" d="M 794 531 
L 1825 531 
L 1825 4091 
L 703 3866 
L 703 4441 
L 1819 4666 
L 2450 4666 
L 2450 531 
L 3481 531 
L 3481 0 
L 794 0 
L 794 531 
z
" transform="scale(0.015625)"/>
       </defs>
       <use xlink:href="#DejaVuSans-31"/>
      </g>
     </g>
    </g>
    <g id="xtick_2">
     <g id="line2d_2">
      <g>
       <use xlink:href="#m1ccac82cb1" x="129.024" y="307.584" style="stroke: #000000; stroke-width: 0.8"/>
      </g>
     </g>
     <g id="text_2">
      <!-- 2 -->
      <g transform="translate(125.84275 322.182437) scale(0.1 -0.1)">
       <defs>
        <path id="DejaVuSans-32" d="M 1228 531 
L 3431 531 
L 3431 0 
L 469 0 
L 469 531 
Q 828 903 1448 1529 
Q 2069 2156 2228 2338 
Q 2531 2678 2651 2914 
Q 2772 3150 2772 3378 
Q 2772 3750 2511 3984 
Q 2250 4219 1831 4219 
Q 1534 4219 1204 4116 
Q 875 4013 500 3803 
L 500 4441 
Q 881 4594 1212 4672 
Q 1544 4750 1819 4750 
Q 2544 4750 2975 4387 
Q 3406 4025 3406 3419 
Q 3406 3131 3298 2873 
Q 3191 2616 2906 2266 
Q 2828 2175 2409 1742 
Q 1991 1309 1228 531 
z
" transform="scale(0.015625)"/>
       </defs>
       <use xlink:href="#DejaVuSans-32"/>
      </g>
     </g>
    </g>
    <g id="xtick_3">
     <g id="line2d_3">
      <g>
       <use xlink:href="#m1ccac82cb1" x="200.448" y="307.584" style="stroke: #000000; stroke-width: 0.8"/>
      </g>
     </g>
     <g id="text_3">
      <!-- 3 -->
      <g transform="translate(197.26675 322.182437) scale(0.1 -0.1)">
       <defs>
        <path id="DejaVuSans-33" d="M 2597 2516 
Q 3050 2419 3304 2112 
Q 3559 1806 3559 1356 
Q 3559 666 3084 287 
Q 2609 -91 1734 -91 
Q 1441 -91 1130 -33 
Q 819 25 488 141 
L 488 750 
Q 750 597 1062 519 
Q 1375 441 1716 441 
Q 2309 441 2620 675 
Q 2931 909 2931 1356 
Q 2931 1769 2642 2001 
Q 2353 2234 1838 2234 
L 1294 2234 
L 1294 2753 
L 1863 2753 
Q 2328 2753 2575 2939 
Q 2822 3125 2822 3475 
Q 2822 3834 2567 4026 
Q 2313 4219 1838 4219 
Q 1578 4219 1281 4162 
Q 984 4106 628 3988 
L 628 4550 
Q 988 4650 1302 4700 
Q 1616 4750 1894 4750 
Q 2613 4750 3031 4423 
Q 3450 4097 3450 3541 
Q 3450 3153 3228 2886 
Q 3006 2619 2597 2516 
z
" transform="scale(0.015625)"/>
       </defs>
       <use xlink:href="#DejaVuSans-33"/>
      </g>
     </g>
    </g>
    <g id="xtick_4">
     <g id="line2d_4">
      <g>
       <use xlink:href="#m1ccac82cb1" x="271.872" y="307.584" style="stroke: #000000; stroke-width: 0.8"/>
      </g>
     </g>
     <g id="text_4">
      <!-- 4 -->
      <g transform="translate(268.69075 322.182437) scale(0.1 -0.1)">
       <defs>
        <path id="DejaVuSans-34" d="M 2419 4116 
L 825 1625 
L 2419 1625 
L 2419 4116 
z
M 2253 4666 
L 3047 4666 
L 3047 1625 
L 3713 1625 
L 3713 1100 
L 3047 1100 
L 3047 0 
L 2419 0 
L 2419 1100 
L 313 1100 
L 313 1709 
L 2253 4666 
z
" transform="scale(0.015625)"/>
       </defs>
       <use xlink:href="#DejaVuSans-34"/>
      </g>
     </g>
    </g>
    <g id="xtick_5">
     <g id="line2d_5">
      <g>
       <use xlink:href="#m1ccac82cb1" x="343.296" y="307.584" style="stroke: #000000; stroke-width: 0.8"/>
      </g>
     </g>
     <g id="text_5">
      <!-- 5 -->
      <g transform="translate(340.11475 322.182437) scale(0.1 -0.1)">
       <defs>
        <path id="DejaVuSans-35" d="M 691 4666 
L 3169 4666 
L 3169 4134 
L 1269 4134 
L 1269 2991 
Q 1406 3038 1543 3061 
Q 1681 3084 1819 3084 
Q 2600 3084 3056 2656 
Q 3513 2228 3513 1497 
Q 3513 744 3044 326 
Q 2575 -91 1722 -91 
Q 1428 -91 1123 -41 
Q 819 9 494 109 
L 494 744 
Q 775 591 1075 516 
Q 1375 441 1709 441 
Q 2250 441 2565 725 
Q 2881 1009 2881 1497 
Q 2881 1984 2565 2268 
Q 2250 2553 1709 2553 
Q 1456 2553 1204 2497 
Q 953 2441 691 2322 
L 691 4666 
z
" transform="scale(0.015625)"/>
       </defs>
       <use xlink:href="#DejaVuSans-35"/>
      </g>
     </g>
    </g>
    <g id="xtick_6">
     <g id="line2d_6">
      <g>
       <use xlink:href="#m1ccac82cb1" x="414.72" y="307.584" style="stroke: #000000; stroke-width: 0.8"/>
      </g>
     </g>
     <g id="text_6">
      <!-- 6 -->
      <g transform="translate(411.53875 322.182437) scale(0.1 -0.1)">
       <defs>
        <path id="DejaVuSans-36" d="M 2113 2584 
Q 1688 2584 1439 2293 
Q 1191 2003 1191 1497 
Q 1191 994 1439 701 
Q 1688 409 2113 409 
Q 2538 409 2786 701 
Q 3034 994 3034 1497 
Q 3034 2003 2786 2293 
Q 2538 2584 2113 2584 
z
M 3366 4563 
L 3366 3988 
Q 3128 4100 2886 4159 
Q 2644 4219 2406 4219 
Q 1781 4219 1451 3797 
Q 1122 3375 1075 2522 
Q 1259 2794 1537 2939 
Q 1816 3084 2150 3084 
Q 2853 3084 3261 2657 
Q 3669 2231 3669 1497 
Q 3669 778 3244 343 
Q 2819 -91 2113 -91 
Q 1303 -91 875 529 
Q 447 1150 447 2328 
Q 447 3434 972 4092 
Q 1497 4750 2381 4750 
Q 2619 4750 2861 4703 
Q 3103 4656 3366 4563 
z
" transform="scale(0.015625)"/>
       </defs>
       <use xlink:href="#DejaVuSans-36"/>
      </g>
     </g>
    </g>
    <g id="text_7">
     <!-- Parent Location -->
     <g transform="translate(197.420156 335.860562) scale(0.1 -0.1)">
      <defs>
       <path id="DejaVuSans-50" d="M 1259 4147 
L 1259 2394 
L 2053 2394 
Q 2494 2394 2734 2622 
Q 2975 2850 2975 3272 
Q 2975 3691 2734 3919 
Q 2494 4147 2053 4147 
L 1259 4147 
z
M 628 4666 
L 2053 4666 
Q 2838 4666 3239 4311 
Q 3641 3956 3641 3272 
Q 3641 2581 3239 2228 
Q 2838 1875 2053 1875 
L 1259 1875 
L 1259 0 
L 628 0 
L 628 4666 
z
" transform="scale(0.015625)"/>
       <path id="DejaVuSans-61" d="M 2194 1759 
Q 1497 1759 1228 1600 
Q 959 1441 959 1056 
Q 959 750 1161 570 
Q 1363 391 1709 391 
Q 2188 391 2477 730 
Q 2766 1069 2766 1631 
L 2766 1759 
L 2194 1759 
z
M 3341 1997 
L 3341 0 
L 2766 0 
L 2766 531 
Q 2569 213 2275 61 
Q 1981 -91 1556 -91 
Q 1019 -91 701 211 
Q 384 513 384 1019 
Q 384 1609 779 1909 
Q 1175 2209 1959 2209 
L 2766 2209 
L 2766 2266 
Q 2766 2663 2505 2880 
Q 2244 3097 1772 3097 
Q 1472 3097 1187 3025 
Q 903 2953 641 2809 
L 641 3341 
Q 956 3463 1253 3523 
Q 1550 3584 1831 3584 
Q 2591 3584 2966 3190 
Q 3341 2797 3341 1997 
z
" transform="scale(0.015625)"/>
       <path id="DejaVuSans-72" d="M 2631 2963 
Q 2534 3019 2420 3045 
Q 2306 3072 2169 3072 
Q 1681 3072 1420 2755 
Q 1159 2438 1159 1844 
L 1159 0 
L 581 0 
L 581 3500 
L 1159 3500 
L 1159 2956 
Q 1341 3275 1631 3429 
Q 1922 3584 2338 3584 
Q 2397 3584 2469 3576 
Q 2541 3569 2628 3553 
L 2631 2963 
z
" transform="scale(0.015625)"/>
       <path id="DejaVuSans-65" d="M 3597 1894 
L 3597 1613 
L 953 1613 
Q 991 1019 1311 708 
Q 1631 397 2203 397 
Q 2534 397 2845 478 
Q 3156 559 3463 722 
L 3463 178 
Q 3153 47 2828 -22 
Q 2503 -91 2169 -91 
Q 1331 -91 842 396 
Q 353 884 353 1716 
Q 353 2575 817 3079 
Q 1281 3584 2069 3584 
Q 2775 3584 3186 3129 
Q 3597 2675 3597 1894 
z
M 3022 2063 
Q 3016 2534 2758 2815 
Q 2500 3097 2075 3097 
Q 1594 3097 1305 2825 
Q 1016 2553 972 2059 
L 3022 2063 
z
" transform="scale(0.015625)"/>
       <path id="DejaVuSans-6e" d="M 3513 2113 
L 3513 0 
L 2938 0 
L 2938 2094 
Q 2938 2591 2744 2837 
Q 2550 3084 2163 3084 
Q 1697 3084 1428 2787 
Q 1159 2491 1159 1978 
L 1159 0 
L 581 0 
L 581 3500 
L 1159 3500 
L 1159 2956 
Q 1366 3272 1645 3428 
Q 1925 3584 2291 3584 
Q 2894 3584 3203 3211 
Q 3513 2838 3513 2113 
z
" transform="scale(0.015625)"/>
       <path id="DejaVuSans-74" d="M 1172 4494 
L 1172 3500 
L 2356 3500 
L 2356 3053 
L 1172 3053 
L 1172 1153 
Q 1172 725 1289 603 
Q 1406 481 1766 481 
L 2356 481 
L 2356 0 
L 1766 0 
Q 1100 0 847 248 
Q 594 497 594 1153 
L 594 3053 
L 172 3053 
L 172 3500 
L 594 3500 
L 594 4494 
L 1172 4494 
z
" transform="scale(0.015625)"/>
       <path id="DejaVuSans-20" transform="scale(0.015625)"/>
       <path id="DejaVuSans-4c" d="M 628 4666 
L 1259 4666 
L 1259 531 
L 3531 531 
L 3531 0 
L 628 0 
L 628 4666 
z
" transform="scale(0.015625)"/>
       <path id="DejaVuSans-6f" d="M 1959 3097 
Q 1497 3097 1228 2736 
Q 959 2375 959 1747 
Q 959 1119 1226 758 
Q 1494 397 1959 397 
Q 2419 397 2687 759 
Q 2956 1122 2956 1747 
Q 2956 2369 2687 2733 
Q 2419 3097 1959 3097 
z
M 1959 3584 
Q 2709 3584 3137 3096 
Q 3566 2609 3566 1747 
Q 3566 888 3137 398 
Q 2709 -91 1959 -91 
Q 1206 -91 779 398 
Q 353 888 353 1747 
Q 353 2609 779 3096 
Q 1206 3584 1959 3584 
z
" transform="scale(0.015625)"/>
       <path id="DejaVuSans-63" d="M 3122 3366 
L 3122 2828 
Q 2878 2963 2633 3030 
Q 2388 3097 2138 3097 
Q 1578 3097 1268 2742 
Q 959 2388 959 1747 
Q 959 1106 1268 751 
Q 1578 397 2138 397 
Q 2388 397 2633 464 
Q 2878 531 3122 666 
L 3122 134 
Q 2881 22 2623 -34 
Q 2366 -91 2075 -91 
Q 1284 -91 818 406 
Q 353 903 353 1747 
Q 353 2603 823 3093 
Q 1294 3584 2113 3584 
Q 2378 3584 2631 3529 
Q 2884 3475 3122 3366 
z
" transform="scale(0.015625)"/>
       <path id="DejaVuSans-69" d="M 603 3500 
L 1178 3500 
L 1178 0 
L 603 0 
L 603 3500 
z
M 603 4863 
L 1178 4863 
L 1178 4134 
L 603 4134 
L 603 4863 
z
" transform="scale(0.015625)"/>
      </defs>
      <use xlink:href="#DejaVuSans-50"/>
      <use xlink:href="#DejaVuSans-61" x="55.802734"/>
      <use xlink:href="#DejaVuSans-72" x="117.082031"/>
      <use xlink:href="#DejaVuSans-65" x="155.945312"/>
      <use xlink:href="#DejaVuSans-6e" x="217.46875"/>
      <use xlink:href="#DejaVuSans-74" x="280.847656"/>
      <use xlink:href="#DejaVuSans-20" x="320.056641"/>
      <use xlink:href="#DejaVuSans-4c" x="351.84375"/>
      <use xlink:href="#DejaVuSans-6f" x="405.806641"/>
      <use xlink:href="#DejaVuSans-63" x="466.988281"/>
      <use xlink:href="#DejaVuSans-61" x="521.96875"/>
      <use xlink:href="#DejaVuSans-74" x="583.248047"/>
      <use xlink:href="#DejaVuSans-69" x="622.457031"/>
      <use xlink:href="#DejaVuSans-6f" x="650.240234"/>
      <use xlink:href="#DejaVuSans-6e" x="711.421875"/>
     </g>
    </g>
   </g>
   <g id="matplotlib.axis_2">
    <g id="ytick_1">
     <g id="line2d_7">
      <defs>
       <path id="mbb9e0198ca" d="M 0 0 
L -3.5 0 
" style="stroke: #000000; stroke-width: 0.8"/>
      </defs>
      <g>
       <use xlink:href="#mbb9e0198ca" x="57.6" y="290.274815" style="stroke: #000000; stroke-width: 0.8"/>
      </g>
     </g>
     <g id="text_8">
      <!-- 10 -->
      <g transform="translate(37.875 294.074033) scale(0.1 -0.1)">
       <defs>
        <path id="DejaVuSans-30" d="M 2034 4250 
Q 1547 4250 1301 3770 
Q 1056 3291 1056 2328 
Q 1056 1369 1301 889 
Q 1547 409 2034 409 
Q 2525 409 2770 889 
Q 3016 1369 3016 2328 
Q 3016 3291 2770 3770 
Q 2525 4250 2034 4250 
z
M 2034 4750 
Q 2819 4750 3233 4129 
Q 3647 3509 3647 2328 
Q 3647 1150 3233 529 
Q 2819 -91 2034 -91 
Q 1250 -91 836 529 
Q 422 1150 422 2328 
Q 422 3509 836 4129 
Q 1250 4750 2034 4750 
z
" transform="scale(0.015625)"/>
       </defs>
       <use xlink:href="#DejaVuSans-31"/>
       <use xlink:href="#DejaVuSans-30" x="63.623047"/>
      </g>
     </g>
    </g>
    <g id="ytick_2">
     <g id="line2d_8">
      <g>
       <use xlink:href="#mbb9e0198ca" x="57.6" y="259.303613" style="stroke: #000000; stroke-width: 0.8"/>
      </g>
     </g>
     <g id="text_9">
      <!-- 15 -->
      <g transform="translate(37.875 263.102831) scale(0.1 -0.1)">
       <use xlink:href="#DejaVuSans-31"/>
       <use xlink:href="#DejaVuSans-35" x="63.623047"/>
      </g>
     </g>
    </g>
    <g id="ytick_3">
     <g id="line2d_9">
      <g>
       <use xlink:href="#mbb9e0198ca" x="57.6" y="228.332411" style="stroke: #000000; stroke-width: 0.8"/>
      </g>
     </g>
     <g id="text_10">
      <!-- 20 -->
      <g transform="translate(37.875 232.13163) scale(0.1 -0.1)">
       <use xlink:href="#DejaVuSans-32"/>
       <use xlink:href="#DejaVuSans-30" x="63.623047"/>
      </g>
     </g>
    </g>
    <g id="ytick_4">
     <g id="line2d_10">
      <g>
       <use xlink:href="#mbb9e0198ca" x="57.6" y="197.361209" style="stroke: #000000; stroke-width: 0.8"/>
      </g>
     </g>
     <g id="text_11">
      <!-- 25 -->
      <g transform="translate(37.875 201.160428) scale(0.1 -0.1)">
       <use xlink:href="#DejaVuSans-32"/>
       <use xlink:href="#DejaVuSans-35" x="63.623047"/>
      </g>
     </g>
    </g>
    <g id="ytick_5">
     <g id="line2d_11">
      <g>
       <use xlink:href="#mbb9e0198ca" x="57.6" y="166.390007" style="stroke: #000000; stroke-width: 0.8"/>
      </g>
     </g>
     <g id="text_12">
      <!-- 30 -->
      <g transform="translate(37.875 170.189226) scale(0.1 -0.1)">
       <use xlink:href="#DejaVuSans-33"/>
       <use xlink:href="#DejaVuSans-30" x="63.623047"/>
      </g>
     </g>
    </g>
    <g id="ytick_6">
     <g id="line2d_12">
      <g>
       <use xlink:href="#mbb9e0198ca" x="57.6" y="135.418805" style="stroke: #000000; stroke-width: 0.8"/>
      </g>
     </g>
     <g id="text_13">
      <!-- 35 -->
      <g transform="translate(37.875 139.218024) scale(0.1 -0.1)">
       <use xlink:href="#DejaVuSans-33"/>
       <use xlink:href="#DejaVuSans-35" x="63.623047"/>
      </g>
     </g>
    </g>
    <g id="ytick_7">
     <g id="line2d_13">
      <g>
       <use xlink:href="#mbb9e0198ca" x="57.6" y="104.447603" style="stroke: #000000; stroke-width: 0.8"/>
      </g>
     </g>
     <g id="text_14">
      <!-- 40 -->
      <g transform="translate(37.875 108.246822) scale(0.1 -0.1)">
       <use xlink:href="#DejaVuSans-34"/>
       <use xlink:href="#DejaVuSans-30" x="63.623047"/>
      </g>
     </g>
    </g>
    <g id="ytick_8">
     <g id="line2d_14">
      <g>
       <use xlink:href="#mbb9e0198ca" x="57.6" y="73.476401" style="stroke: #000000; stroke-width: 0.8"/>
      </g>
     </g>
     <g id="text_15">
      <!-- 45 -->
      <g transform="translate(37.875 77.27562) scale(0.1 -0.1)">
       <use xlink:href="#DejaVuSans-34"/>
       <use xlink:href="#DejaVuSans-35" x="63.623047"/>
      </g>
     </g>
    </g>
    <g id="ytick_9">
     <g id="line2d_15">
      <g>
       <use xlink:href="#mbb9e0198ca" x="57.6" y="42.505199" style="stroke: #000000; stroke-width: 0.8"/>
      </g>
     </g>
     <g id="text_16">
      <!-- 50 -->
      <g transform="translate(37.875 46.304418) scale(0.1 -0.1)">
       <use xlink:href="#DejaVuSans-35"/>
       <use xlink:href="#DejaVuSans-30" x="63.623047"/>
      </g>
     </g>
    </g>
    <g id="text_17">
     <!-- PM2.5 -->
     <g transform="translate(31.795312 189.808469) rotate(-90) scale(0.1 -0.1)">
      <defs>
       <path id="DejaVuSans-4d" d="M 628 4666 
L 1569 4666 
L 2759 1491 
L 3956 4666 
L 4897 4666 
L 4897 0 
L 4281 0 
L 4281 4097 
L 3078 897 
L 2444 897 
L 1241 4097 
L 1241 0 
L 628 0 
L 628 4666 
z
" transform="scale(0.015625)"/>
       <path id="DejaVuSans-2e" d="M 684 794 
L 1344 794 
L 1344 0 
L 684 0 
L 684 794 
z
" transform="scale(0.015625)"/>
      </defs>
      <use xlink:href="#DejaVuSans-50"/>
      <use xlink:href="#DejaVuSans-4d" x="60.302734"/>
      <use xlink:href="#DejaVuSans-32" x="146.582031"/>
      <use xlink:href="#DejaVuSans-2e" x="210.205078"/>
      <use xlink:href="#DejaVuSans-35" x="241.992188"/>
     </g>
    </g>
   </g>
   <g id="PathCollection_8"/>
   <g id="PathCollection_9">
    <path d="M 79.018744 41.472 
L 79.018744 44.16 
L 79.018744 46.848 
L 79.018744 49.536 
L 79.018744 52.224 
L 79.018744 54.912 
L 79.018744 57.6 
L 79.018744 60.288 
L 79.018744 62.976 
L 79.018744 65.664 
L 79.018744 68.352 
L 79.018744 71.04 
L 79.018744 73.728 
L 79.018744 74.589 
" clip-path="url(#pe340b8c215)" style="fill: none; stroke: #000000; stroke-width: 0.5"/>
    <path d="M 79.018744 110.499 
L 79.018744 111.36 
L 79.018744 114.048 
L 79.018744 116.736 
L 79.018744 119.424 
L 79.018744 122.112 
L 79.018744 124.8 
L 79.018744 127.488 
L 79.018744 130.176 
L 79.018744 132.864 
L 79.018744 135.552 
L 79.018744 138.24 
L 79.018744 140.928 
L 79.018744 143.616 
L 79.018744 146.304 
L 68.668842 148.992 
L 68.668842 151.68 
L 57.6 154.141667 
" clip-path="url(#pe340b8c215)" style="fill: none; stroke: #000000; stroke-width: 0.5"/>
   </g>
   <g id="PathCollection_10">
    <path d="M 110.432902 41.472 
L 110.432902 44.16 
L 110.432902 46.848 
L 110.432902 49.536 
L 110.432902 52.224 
L 110.432902 54.912 
L 110.432902 57.6 
L 110.432902 60.288 
L 110.432902 62.976 
L 110.432902 65.664 
L 110.432902 68.352 
L 110.432902 71.04 
L 110.432902 73.728 
L 110.432902 76.416 
L 110.432902 79.104 
L 110.432902 81.792 
L 110.432902 84.48 
L 110.432902 87.168 
L 110.432902 89.856 
L 110.432902 92.544 
L 110.432902 95.232 
L 110.432902 97.92 
L 110.432902 100.608 
L 110.432902 103.296 
L 110.432902 105.984 
L 110.432902 108.672 
L 110.432902 111.36 
L 110.432902 114.048 
L 110.432902 116.736 
L 110.432902 119.424 
L 110.432902 122.112 
L 110.432902 124.8 
L 110.432902 127.488 
L 110.432902 130.176 
L 110.432902 132.864 
L 110.432902 135.552 
L 110.432902 138.24 
L 110.432902 140.928 
L 110.432902 143.616 
L 110.432902 146.304 
L 100.083 148.992 
L 100.083 151.68 
L 87.996455 154.368 
L 61.299863 157.056 
L 61.299863 159.744 
L 61.299863 162.432 
L 61.299863 165.12 
L 61.299863 167.808 
L 61.299863 170.496 
L 61.299863 173.184 
L 61.299863 175.872 
L 61.299863 178.56 
L 61.299863 180.565882 
" clip-path="url(#pe340b8c215)" style="fill: none; stroke: #000000; stroke-width: 0.5"/>
   </g>
   <g id="PathCollection_11">
    <path d="M 182.05366 41.472 
L 182.05366 44.16 
L 182.05366 46.848 
L 182.05366 49.536 
L 182.05366 52.224 
L 182.05366 54.912 
L 182.05366 57.6 
L 182.05366 60.288 
L 182.05366 62.976 
L 182.05366 65.664 
L 182.05366 68.352 
L 182.05366 71.04 
L 182.05366 73.728 
L 182.05366 74.589 
" clip-path="url(#pe340b8c215)" style="fill: none; stroke: #000000; stroke-width: 0.5"/>
    <path d="M 182.05366 110.499 
L 182.05366 111.36 
L 182.05366 114.048 
L 182.05366 116.736 
L 182.05366 119.424 
L 182.05366 122.112 
L 182.05366 124.8 
L 182.05366 127.488 
L 182.05366 130.176 
L 182.05366 132.864 
L 182.05366 135.552 
L 182.05366 138.24 
L 182.05366 140.928 
L 182.05366 143.616 
L 182.05366 146.304 
L 139.251723 148.992 
L 139.251723 151.68 
L 129.024 152.23002 
L 119.410612 154.368 
L 92.714021 157.056 
L 92.714021 159.744 
L 92.714021 162.432 
L 92.714021 165.12 
L 92.714021 167.808 
L 92.714021 170.496 
L 92.714021 173.184 
L 92.714021 175.872 
L 92.714021 178.56 
L 92.714021 181.248 
L 92.714021 183.936 
L 92.714021 186.624 
L 92.714021 189.312 
L 92.714021 192 
L 92.714021 194.688 
L 82.778701 197.376 
L 82.778701 200.064 
L 82.778701 202.752 
L 82.778701 205.44 
L 82.778701 208.128 
L 82.778701 210.816 
L 82.778701 213.504 
L 82.778701 216.192 
L 82.778701 218.88 
L 82.778701 221.568 
L 82.778701 224.256 
L 82.778701 226.944 
L 82.778701 229.632 
L 82.778701 232.32 
L 82.778701 235.008 
L 82.778701 237.696 
L 82.778701 240.384 
L 82.778701 243.072 
L 82.778701 245.76 
L 82.778701 248.448 
L 82.778701 251.136 
L 82.778701 253.824 
L 82.778701 256.512 
L 57.6 258.920041 
" clip-path="url(#pe340b8c215)" style="fill: none; stroke: #000000; stroke-width: 0.5"/>
   </g>
   <g id="PathCollection_12">
    <path d="M 414.72 154.824091 
L 343.296 154.824091 
L 271.872 154.824091 
L 200.448 154.824091 
L 129.024 156.563054 
L 124.128179 157.056 
L 124.128179 159.744 
L 124.128179 162.432 
L 124.128179 165.12 
L 124.128179 167.808 
L 124.128179 170.496 
L 124.128179 173.184 
L 124.128179 175.872 
L 124.128179 178.56 
L 124.128179 181.248 
L 124.128179 183.936 
L 124.128179 186.624 
L 124.128179 189.312 
L 124.128179 192 
L 124.128179 194.688 
L 114.192859 197.376 
L 114.192859 200.064 
L 114.192859 202.752 
L 114.192859 205.44 
L 114.192859 208.128 
L 114.192859 210.816 
L 114.192859 213.504 
L 114.192859 216.192 
L 114.192859 218.88 
L 114.192859 221.568 
L 114.192859 224.256 
L 114.192859 226.944 
L 114.192859 229.632 
L 114.192859 232.32 
L 114.192859 235.008 
L 114.192859 237.696 
L 114.192859 240.384 
L 114.192859 243.072 
L 114.192859 245.76 
L 114.192859 248.448 
L 114.192859 251.136 
L 114.192859 253.824 
L 114.192859 256.512 
L 86.086875 259.2 
L 86.086875 261.888 
L 62.04792 264.576 
L 62.04792 267.264 
L 62.04792 269.952 
L 62.04792 272.64 
L 62.04792 275.328 
L 62.04792 278.016 
L 62.04792 280.704 
L 62.04792 283.392 
L 62.04792 286.08 
L 73.97543 287.762123 
" clip-path="url(#pe340b8c215)" style="fill: none; stroke: #000000; stroke-width: 0.5"/>
   </g>
   <g id="PathCollection_13">
    <path d="M 414.72 197.189872 
L 343.296 197.189872 
L 271.872 197.189872 
L 200.448 197.189872 
L 197.602934 197.376 
L 197.602934 200.064 
L 197.602934 202.752 
L 197.602934 205.44 
L 197.602934 208.128 
L 197.602934 210.816 
L 197.602934 213.504 
L 197.602934 216.192 
L 197.602934 218.88 
L 197.602934 219.741 
" clip-path="url(#pe340b8c215)" style="fill: none; stroke: #000000; stroke-width: 0.5"/>
    <path d="M 197.602934 255.651 
L 197.602934 256.512 
L 129.024 258.097966 
L 117.501032 259.2 
L 117.501032 261.888 
L 93.462078 264.576 
L 93.462078 267.264 
L 93.462078 269.952 
L 93.462078 272.64 
L 93.462078 275.328 
L 93.462078 278.016 
L 93.462078 280.704 
L 93.462078 283.392 
L 93.462078 286.08 
L 112.522009 288.768 
L 112.522009 291.456 
L 112.522009 294.144 
L 112.522009 296.832 
L 112.522009 299.52 
L 112.522009 302.208 
L 112.522009 304.896 
L 112.522009 307.584 
" clip-path="url(#pe340b8c215)" style="fill: none; stroke: #000000; stroke-width: 0.5"/>
   </g>
   <g id="PathCollection_14">
    <path d="M 414.72 262.180988 
L 343.296 262.180988 
L 271.872 262.180988 
L 200.448 262.180988 
L 129.024 264.112203 
L 126.69192 264.372973 
" clip-path="url(#pe340b8c215)" style="fill: none; stroke: #000000; stroke-width: 0.5"/>
    <path d="M 137.409317 286.950911 
L 190.693146 288.768 
L 190.693146 291.456 
L 190.693146 294.144 
L 190.693146 296.832 
L 190.693146 299.52 
L 190.693146 302.208 
L 190.693146 304.896 
L 190.693146 307.584 
" clip-path="url(#pe340b8c215)" style="fill: none; stroke: #000000; stroke-width: 0.5"/>
   </g>
   <g id="PathCollection_15"/>
   <g id="LineCollection_1">
    <path d="M 57.6 307.584 
L 57.6 294.2784 
" clip-path="url(#pe340b8c215)" style="fill: none; stroke: #000000; stroke-width: 1.5"/>
    <path d="M 57.6 307.584 
L 57.6 294.2784 
" clip-path="url(#pe340b8c215)" style="fill: none; stroke: #000000; stroke-width: 1.5"/>
    <path d="M 129.024 307.584 
L 129.024 294.2784 
" clip-path="url(#pe340b8c215)" style="fill: none; stroke: #000000; stroke-width: 1.5"/>
    <path d="M 129.024 307.584 
L 129.024 294.2784 
" clip-path="url(#pe340b8c215)" style="fill: none; stroke: #000000; stroke-width: 1.5"/>
    <path d="M 200.448 307.584 
L 200.448 294.2784 
" clip-path="url(#pe340b8c215)" style="fill: none; stroke: #000000; stroke-width: 1.5"/>
    <path d="M 271.872 307.584 
L 271.872 294.2784 
" clip-path="url(#pe340b8c215)" style="fill: none; stroke: #000000; stroke-width: 1.5"/>
    <path d="M 271.872 307.584 
L 271.872 294.2784 
" clip-path="url(#pe340b8c215)" style="fill: none; stroke: #000000; stroke-width: 1.5"/>
    <path d="M 271.872 307.584 
L 271.872 294.2784 
" clip-path="url(#pe340b8c215)" style="fill: none; stroke: #000000; stroke-width: 1.5"/>
    <path d="M 349.00992 307.584 
L 349.00992 294.2784 
" clip-path="url(#pe340b8c215)" style="fill: none; stroke: #000000; stroke-width: 1.5"/>
   </g>
   <g id="LineCollection_2">
    <path clip-path="url(#pe340b8c215)" style="fill: none; stroke: #000000; stroke-width: 1.5"/>
    <path clip-path="url(#pe340b8c215)" style="fill: none; stroke: #000000; stroke-width: 1.5"/>
    <path clip-path="url(#pe340b8c215)" style="fill: none; stroke: #000000; stroke-width: 1.5"/>
    <path clip-path="url(#pe340b8c215)" style="fill: none; stroke: #000000; stroke-width: 1.5"/>
    <path clip-path="url(#pe340b8c215)" style="fill: none; stroke: #000000; stroke-width: 1.5"/>
    <path clip-path="url(#pe340b8c215)" style="fill: none; stroke: #000000; stroke-width: 1.5"/>
    <path clip-path="url(#pe340b8c215)" style="fill: none; stroke: #000000; stroke-width: 1.5"/>
    <path clip-path="url(#pe340b8c215)" style="fill: none; stroke: #000000; stroke-width: 1.5"/>
    <path clip-path="url(#pe340b8c215)" style="fill: none; stroke: #000000; stroke-width: 1.5"/>
   </g>
   <g id="patch_3">
    <path d="M 57.6 307.584 
L 57.6 41.472 
" style="fill: none; stroke: #000000; stroke-width: 0.8; stroke-linejoin: miter; stroke-linecap: square"/>
   </g>
   <g id="patch_4">
    <path d="M 414.72 307.584 
L 414.72 41.472 
" style="fill: none; stroke: #000000; stroke-width: 0.8; stroke-linejoin: miter; stroke-linecap: square"/>
   </g>
   <g id="patch_5">
    <path d="M 57.6 307.584 
L 414.72 307.584 
" style="fill: none; stroke: #000000; stroke-width: 0.8; stroke-linejoin: miter; stroke-linecap: square"/>
   </g>
   <g id="patch_6">
    <path d="M 57.6 41.472 
L 414.72 41.472 
" style="fill: none; stroke: #000000; stroke-width: 0.8; stroke-linejoin: miter; stroke-linecap: square"/>
   </g>
   <g id="text_18">
    <!-- 2D-partial dependency plot between PL and PM -->
    <g transform="translate(93.353438 35.472) scale(0.12 -0.12)">
     <defs>
      <path id="DejaVuSans-44" d="M 1259 4147 
L 1259 519 
L 2022 519 
Q 2988 519 3436 956 
Q 3884 1394 3884 2338 
Q 3884 3275 3436 3711 
Q 2988 4147 2022 4147 
L 1259 4147 
z
M 628 4666 
L 1925 4666 
Q 3281 4666 3915 4102 
Q 4550 3538 4550 2338 
Q 4550 1131 3912 565 
Q 3275 0 1925 0 
L 628 0 
L 628 4666 
z
" transform="scale(0.015625)"/>
      <path id="DejaVuSans-2d" d="M 313 2009 
L 1997 2009 
L 1997 1497 
L 313 1497 
L 313 2009 
z
" transform="scale(0.015625)"/>
      <path id="DejaVuSans-70" d="M 1159 525 
L 1159 -1331 
L 581 -1331 
L 581 3500 
L 1159 3500 
L 1159 2969 
Q 1341 3281 1617 3432 
Q 1894 3584 2278 3584 
Q 2916 3584 3314 3078 
Q 3713 2572 3713 1747 
Q 3713 922 3314 415 
Q 2916 -91 2278 -91 
Q 1894 -91 1617 61 
Q 1341 213 1159 525 
z
M 3116 1747 
Q 3116 2381 2855 2742 
Q 2594 3103 2138 3103 
Q 1681 3103 1420 2742 
Q 1159 2381 1159 1747 
Q 1159 1113 1420 752 
Q 1681 391 2138 391 
Q 2594 391 2855 752 
Q 3116 1113 3116 1747 
z
" transform="scale(0.015625)"/>
      <path id="DejaVuSans-6c" d="M 603 4863 
L 1178 4863 
L 1178 0 
L 603 0 
L 603 4863 
z
" transform="scale(0.015625)"/>
      <path id="DejaVuSans-64" d="M 2906 2969 
L 2906 4863 
L 3481 4863 
L 3481 0 
L 2906 0 
L 2906 525 
Q 2725 213 2448 61 
Q 2172 -91 1784 -91 
Q 1150 -91 751 415 
Q 353 922 353 1747 
Q 353 2572 751 3078 
Q 1150 3584 1784 3584 
Q 2172 3584 2448 3432 
Q 2725 3281 2906 2969 
z
M 947 1747 
Q 947 1113 1208 752 
Q 1469 391 1925 391 
Q 2381 391 2643 752 
Q 2906 1113 2906 1747 
Q 2906 2381 2643 2742 
Q 2381 3103 1925 3103 
Q 1469 3103 1208 2742 
Q 947 2381 947 1747 
z
" transform="scale(0.015625)"/>
      <path id="DejaVuSans-79" d="M 2059 -325 
Q 1816 -950 1584 -1140 
Q 1353 -1331 966 -1331 
L 506 -1331 
L 506 -850 
L 844 -850 
Q 1081 -850 1212 -737 
Q 1344 -625 1503 -206 
L 1606 56 
L 191 3500 
L 800 3500 
L 1894 763 
L 2988 3500 
L 3597 3500 
L 2059 -325 
z
" transform="scale(0.015625)"/>
      <path id="DejaVuSans-62" d="M 3116 1747 
Q 3116 2381 2855 2742 
Q 2594 3103 2138 3103 
Q 1681 3103 1420 2742 
Q 1159 2381 1159 1747 
Q 1159 1113 1420 752 
Q 1681 391 2138 391 
Q 2594 391 2855 752 
Q 3116 1113 3116 1747 
z
M 1159 2969 
Q 1341 3281 1617 3432 
Q 1894 3584 2278 3584 
Q 2916 3584 3314 3078 
Q 3713 2572 3713 1747 
Q 3713 922 3314 415 
Q 2916 -91 2278 -91 
Q 1894 -91 1617 61 
Q 1341 213 1159 525 
L 1159 0 
L 581 0 
L 581 4863 
L 1159 4863 
L 1159 2969 
z
" transform="scale(0.015625)"/>
      <path id="DejaVuSans-77" d="M 269 3500 
L 844 3500 
L 1563 769 
L 2278 3500 
L 2956 3500 
L 3675 769 
L 4391 3500 
L 4966 3500 
L 4050 0 
L 3372 0 
L 2619 2869 
L 1863 0 
L 1184 0 
L 269 3500 
z
" transform="scale(0.015625)"/>
     </defs>
     <use xlink:href="#DejaVuSans-32"/>
     <use xlink:href="#DejaVuSans-44" x="63.623047"/>
     <use xlink:href="#DejaVuSans-2d" x="140.625"/>
     <use xlink:href="#DejaVuSans-70" x="176.708984"/>
     <use xlink:href="#DejaVuSans-61" x="240.185547"/>
     <use xlink:href="#DejaVuSans-72" x="301.464844"/>
     <use xlink:href="#DejaVuSans-74" x="342.578125"/>
     <use xlink:href="#DejaVuSans-69" x="381.787109"/>
     <use xlink:href="#DejaVuSans-61" x="409.570312"/>
     <use xlink:href="#DejaVuSans-6c" x="470.849609"/>
     <use xlink:href="#DejaVuSans-20" x="498.632812"/>
     <use xlink:href="#DejaVuSans-64" x="530.419922"/>
     <use xlink:href="#DejaVuSans-65" x="593.896484"/>
     <use xlink:href="#DejaVuSans-70" x="655.419922"/>
     <use xlink:href="#DejaVuSans-65" x="718.896484"/>
     <use xlink:href="#DejaVuSans-6e" x="780.419922"/>
     <use xlink:href="#DejaVuSans-64" x="843.798828"/>
     <use xlink:href="#DejaVuSans-65" x="907.275391"/>
     <use xlink:href="#DejaVuSans-6e" x="968.798828"/>
     <use xlink:href="#DejaVuSans-63" x="1032.177734"/>
     <use xlink:href="#DejaVuSans-79" x="1087.158203"/>
     <use xlink:href="#DejaVuSans-20" x="1146.337891"/>
     <use xlink:href="#DejaVuSans-70" x="1178.125"/>
     <use xlink:href="#DejaVuSans-6c" x="1241.601562"/>
     <use xlink:href="#DejaVuSans-6f" x="1269.384766"/>
     <use xlink:href="#DejaVuSans-74" x="1330.566406"/>
     <use xlink:href="#DejaVuSans-20" x="1369.775391"/>
     <use xlink:href="#DejaVuSans-62" x="1401.5625"/>
     <use xlink:href="#DejaVuSans-65" x="1465.039062"/>
     <use xlink:href="#DejaVuSans-74" x="1526.5625"/>
     <use xlink:href="#DejaVuSans-77" x="1565.771484"/>
     <use xlink:href="#DejaVuSans-65" x="1647.558594"/>
     <use xlink:href="#DejaVuSans-65" x="1709.082031"/>
     <use xlink:href="#DejaVuSans-6e" x="1770.605469"/>
     <use xlink:href="#DejaVuSans-20" x="1833.984375"/>
     <use xlink:href="#DejaVuSans-50" x="1865.771484"/>
     <use xlink:href="#DejaVuSans-4c" x="1926.074219"/>
     <use xlink:href="#DejaVuSans-20" x="1981.787109"/>
     <use xlink:href="#DejaVuSans-61" x="2013.574219"/>
     <use xlink:href="#DejaVuSans-6e" x="2074.853516"/>
     <use xlink:href="#DejaVuSans-64" x="2138.232422"/>
     <use xlink:href="#DejaVuSans-20" x="2201.708984"/>
     <use xlink:href="#DejaVuSans-50" x="2233.496094"/>
     <use xlink:href="#DejaVuSans-4d" x="2293.798828"/>
    </g>
   </g>
   <g id="text_19">
    <g clip-path="url(#pe340b8c215)">
     <!-- 12.89 -->
     <g transform="translate(76.259369 78.229937) rotate(-270) scale(0.1 -0.1)">
      <defs>
       <path id="DejaVuSans-38" d="M 2034 2216 
Q 1584 2216 1326 1975 
Q 1069 1734 1069 1313 
Q 1069 891 1326 650 
Q 1584 409 2034 409 
Q 2484 409 2743 651 
Q 3003 894 3003 1313 
Q 3003 1734 2745 1975 
Q 2488 2216 2034 2216 
z
M 1403 2484 
Q 997 2584 770 2862 
Q 544 3141 544 3541 
Q 544 4100 942 4425 
Q 1341 4750 2034 4750 
Q 2731 4750 3128 4425 
Q 3525 4100 3525 3541 
Q 3525 3141 3298 2862 
Q 3072 2584 2669 2484 
Q 3125 2378 3379 2068 
Q 3634 1759 3634 1313 
Q 3634 634 3220 271 
Q 2806 -91 2034 -91 
Q 1263 -91 848 271 
Q 434 634 434 1313 
Q 434 1759 690 2068 
Q 947 2378 1403 2484 
z
M 1172 3481 
Q 1172 3119 1398 2916 
Q 1625 2713 2034 2713 
Q 2441 2713 2670 2916 
Q 2900 3119 2900 3481 
Q 2900 3844 2670 4047 
Q 2441 4250 2034 4250 
Q 1625 4250 1398 4047 
Q 1172 3844 1172 3481 
z
" transform="scale(0.015625)"/>
       <path id="DejaVuSans-39" d="M 703 97 
L 703 672 
Q 941 559 1184 500 
Q 1428 441 1663 441 
Q 2288 441 2617 861 
Q 2947 1281 2994 2138 
Q 2813 1869 2534 1725 
Q 2256 1581 1919 1581 
Q 1219 1581 811 2004 
Q 403 2428 403 3163 
Q 403 3881 828 4315 
Q 1253 4750 1959 4750 
Q 2769 4750 3195 4129 
Q 3622 3509 3622 2328 
Q 3622 1225 3098 567 
Q 2575 -91 1691 -91 
Q 1453 -91 1209 -44 
Q 966 3 703 97 
z
M 1959 2075 
Q 2384 2075 2632 2365 
Q 2881 2656 2881 3163 
Q 2881 3666 2632 3958 
Q 2384 4250 1959 4250 
Q 1534 4250 1286 3958 
Q 1038 3666 1038 3163 
Q 1038 2656 1286 2365 
Q 1534 2075 1959 2075 
z
" transform="scale(0.015625)"/>
      </defs>
      <use xlink:href="#DejaVuSans-31"/>
      <use xlink:href="#DejaVuSans-32" x="63.623047"/>
      <use xlink:href="#DejaVuSans-2e" x="127.246094"/>
      <use xlink:href="#DejaVuSans-38" x="159.033203"/>
      <use xlink:href="#DejaVuSans-39" x="222.65625"/>
     </g>
    </g>
   </g>
   <g id="text_20">
    <g clip-path="url(#pe340b8c215)">
     <!-- 12.93 -->
     <g transform="translate(55.851318 210.161338) rotate(-72.199118) scale(0.1 -0.1)">
      <use xlink:href="#DejaVuSans-31"/>
      <use xlink:href="#DejaVuSans-32" x="63.623047"/>
      <use xlink:href="#DejaVuSans-2e" x="127.246094"/>
      <use xlink:href="#DejaVuSans-39" x="159.033203"/>
      <use xlink:href="#DejaVuSans-33" x="222.65625"/>
     </g>
    </g>
   </g>
   <g id="text_21">
    <g clip-path="url(#pe340b8c215)">
     <!-- 12.97 -->
     <g transform="translate(179.294285 78.229937) rotate(-270) scale(0.1 -0.1)">
      <defs>
       <path id="DejaVuSans-37" d="M 525 4666 
L 3525 4666 
L 3525 4397 
L 1831 0 
L 1172 0 
L 2766 4134 
L 525 4134 
L 525 4666 
z
" transform="scale(0.015625)"/>
      </defs>
      <use xlink:href="#DejaVuSans-31"/>
      <use xlink:href="#DejaVuSans-32" x="63.623047"/>
      <use xlink:href="#DejaVuSans-2e" x="127.246094"/>
      <use xlink:href="#DejaVuSans-39" x="159.033203"/>
      <use xlink:href="#DejaVuSans-37" x="222.65625"/>
     </g>
    </g>
   </g>
   <g id="text_22">
    <g clip-path="url(#pe340b8c215)">
     <!-- 13.01 -->
     <g transform="translate(75.794912 285.945052) rotate(-280.463017) scale(0.1 -0.1)">
      <use xlink:href="#DejaVuSans-31"/>
      <use xlink:href="#DejaVuSans-33" x="63.623047"/>
      <use xlink:href="#DejaVuSans-2e" x="127.246094"/>
      <use xlink:href="#DejaVuSans-30" x="159.033203"/>
      <use xlink:href="#DejaVuSans-31" x="222.65625"/>
     </g>
    </g>
   </g>
   <g id="text_23">
    <g clip-path="url(#pe340b8c215)">
     <!-- 13.05 -->
     <g transform="translate(194.843559 223.381937) rotate(-270) scale(0.1 -0.1)">
      <use xlink:href="#DejaVuSans-31"/>
      <use xlink:href="#DejaVuSans-33" x="63.623047"/>
      <use xlink:href="#DejaVuSans-2e" x="127.246094"/>
      <use xlink:href="#DejaVuSans-30" x="159.033203"/>
      <use xlink:href="#DejaVuSans-35" x="222.65625"/>
     </g>
    </g>
   </g>
   <g id="text_24">
    <g clip-path="url(#pe340b8c215)">
     <!-- 13.10 -->
     <g transform="translate(116.622928 268.687784) rotate(-293.571857) scale(0.1 -0.1)">
      <use xlink:href="#DejaVuSans-31"/>
      <use xlink:href="#DejaVuSans-33" x="63.623047"/>
      <use xlink:href="#DejaVuSans-2e" x="127.246094"/>
      <use xlink:href="#DejaVuSans-31" x="159.033203"/>
      <use xlink:href="#DejaVuSans-30" x="222.65625"/>
     </g>
    </g>
   </g>
  </g>
 </g>
 <defs>
  <clipPath id="pe340b8c215">
   <rect x="57.6" y="41.472" width="357.12" height="266.112"/>
  </clipPath>
 </defs>
</svg>
