<?xml version="1.0" encoding="utf-8" standalone="no"?>
<!DOCTYPE svg PUBLIC "-//W3C//DTD SVG 1.1//EN"
  "http://www.w3.org/Graphics/SVG/1.1/DTD/svg11.dtd">
<svg xmlns:xlink="http://www.w3.org/1999/xlink" width="460.8pt" height="345.6pt" viewBox="0 0 460.8 345.6" xmlns="http://www.w3.org/2000/svg" version="1.1">
 <metadata>
  <rdf:RDF xmlns:dc="http://purl.org/dc/elements/1.1/" xmlns:cc="http://creativecommons.org/ns#" xmlns:rdf="http://www.w3.org/1999/02/22-rdf-syntax-ns#">
   <cc:Work>
    <dc:type rdf:resource="http://purl.org/dc/dcmitype/StillImage"/>
    <dc:date>2024-04-22T00:29:11.292373</dc:date>
    <dc:format>image/svg+xml</dc:format>
    <dc:creator>
     <cc:Agent>
      <dc:title>Matplotlib v3.7.0, https://matplotlib.org/</dc:title>
     </cc:Agent>
    </dc:creator>
   </cc:Work>
  </rdf:RDF>
 </metadata>
 <defs>
  <style type="text/css">*{stroke-linejoin: round; stroke-linecap: butt}</style>
 </defs>
 <g id="figure_1">
  <g id="patch_1">
   <path d="M 0 345.6 
L 460.8 345.6 
L 460.8 0 
L 0 0 
L 0 345.6 
z
" style="fill: none"/>
  </g>
  <g id="axes_1"/>
  <g id="axes_2">
   <g id="patch_2">
    <path d="M 57.6 307.584 
L 414.72 307.584 
L 414.72 41.472 
L 57.6 41.472 
L 57.6 307.584 
z
" style="fill: none"/>
   </g>
   <g id="PathCollection_1">
    <path d="M 61.207273 307.584 
L 64.814545 307.584 
L 68.421818 307.584 
L 72.029091 307.584 
L 75.636364 307.584 
L 79.243636 307.584 
L 82.850909 307.584 
L 86.458182 307.584 
L 90.065455 307.584 
L 93.672727 307.584 
L 97.28 307.584 
L 100.887273 307.584 
L 104.494545 307.584 
L 108.101818 307.584 
L 111.709091 307.584 
L 115.316364 307.584 
L 118.923636 307.584 
L 122.530909 307.584 
L 126.138182 307.584 
L 129.745455 307.584 
L 133.352727 307.584 
L 136.96 307.584 
L 140.567273 307.584 
L 144.174545 307.584 
L 147.781818 307.584 
L 151.389091 307.584 
L 154.996364 307.584 
L 158.603636 307.584 
L 162.210909 307.584 
L 165.818182 307.584 
L 169.425455 307.584 
L 173.032727 307.584 
L 176.64 307.584 
L 180.247273 307.584 
L 183.854545 307.584 
L 187.461818 307.584 
L 191.069091 307.584 
L 194.676364 307.584 
L 198.283636 307.584 
L 201.890909 307.584 
L 205.498182 307.584 
L 209.105455 307.584 
L 212.712727 307.584 
L 216.32 307.584 
L 219.927273 307.584 
L 223.534545 307.584 
L 227.141818 307.584 
L 230.749091 307.584 
L 234.356364 307.584 
L 237.963636 307.584 
L 241.570909 307.584 
L 245.178182 307.584 
L 248.785455 307.584 
L 252.392727 307.584 
L 256 307.584 
L 259.607273 307.584 
L 263.214545 307.584 
L 266.821818 307.584 
L 270.429091 307.584 
L 274.036364 307.584 
L 277.643636 307.584 
L 281.250909 307.584 
L 284.858182 307.584 
L 288.465455 307.584 
L 292.072727 307.584 
L 295.68 307.584 
L 299.287273 307.584 
L 302.894545 307.584 
L 306.501818 307.584 
L 310.109091 307.584 
L 313.716364 307.584 
L 317.323636 307.584 
L 320.930909 307.584 
L 324.538182 307.584 
L 328.145455 307.584 
L 331.752727 307.584 
L 335.36 307.584 
L 338.967273 307.584 
L 342.574545 307.584 
L 346.181818 307.584 
L 349.789091 307.584 
L 353.396364 307.584 
L 357.003636 307.584 
L 360.610909 307.584 
L 364.218182 307.584 
L 367.825455 307.584 
L 371.432727 307.584 
L 375.04 307.584 
L 378.647273 307.584 
L 382.254545 307.584 
L 385.861818 307.584 
L 389.469091 307.584 
L 393.076364 307.584 
L 396.683636 307.584 
L 400.290909 307.584 
L 403.898182 307.584 
L 407.505455 307.584 
L 411.112727 307.584 
L 414.72 307.584 
L 414.72 304.896 
L 414.72 302.208 
L 414.72 299.52 
L 414.72 296.832 
L 414.72 294.144 
L 414.72 291.456 
L 414.72 288.768 
L 414.72 286.08 
L 414.72 283.392 
L 414.72 280.704 
L 414.72 278.016 
L 414.72 275.328 
L 414.72 272.64 
L 414.72 269.952 
L 414.72 267.264 
L 414.72 264.576 
L 414.72 261.888 
L 414.72 259.2 
L 414.72 256.512 
L 414.72 253.824 
L 414.72 251.136 
L 414.72 248.448 
L 414.72 245.76 
L 414.72 243.072 
L 414.72 240.384 
L 414.72 237.696 
L 414.72 235.008 
L 414.72 232.32 
L 414.72 229.632 
L 414.72 226.944 
L 414.72 224.256 
L 414.72 221.568 
L 414.72 218.88 
L 414.72 216.192 
L 414.72 213.504 
L 414.72 210.816 
L 414.72 210.705772 
L 411.112727 210.705772 
L 407.505455 210.705772 
L 403.898182 210.705772 
L 400.290909 210.705772 
L 396.683636 210.705772 
L 393.076364 210.705772 
L 389.469091 210.705772 
L 385.861818 210.705772 
L 382.254545 210.705772 
L 378.647273 210.705772 
L 375.04 210.705772 
L 371.432727 210.705772 
L 367.825455 210.705772 
L 364.218182 210.705772 
L 360.610909 210.705772 
L 357.003636 210.705772 
L 353.396364 210.705772 
L 349.789091 210.705772 
L 346.181818 210.705772 
L 342.574545 210.705772 
L 338.967273 210.705772 
L 335.36 210.705772 
L 331.752727 210.705772 
L 328.145455 210.705772 
L 324.538182 210.705772 
L 320.930909 210.705772 
L 317.323636 210.705772 
L 313.716364 210.705772 
L 310.109091 210.705772 
L 306.501818 210.705772 
L 302.894545 210.705772 
L 299.287273 210.705772 
L 295.68 210.705772 
L 292.072727 210.705772 
L 288.465455 210.705772 
L 284.858182 210.705772 
L 281.250909 210.705772 
L 277.643636 210.705772 
L 274.036364 210.705772 
L 270.429091 210.705772 
L 266.821818 210.705772 
L 263.214545 210.705772 
L 259.607273 210.705772 
L 256 210.705772 
L 252.392727 210.705772 
L 248.785455 210.705772 
L 245.178182 210.705772 
L 241.570909 210.705772 
L 237.963636 210.705772 
L 234.356364 210.705772 
L 230.749091 210.705772 
L 227.141818 210.705772 
L 223.534545 210.705772 
L 219.927273 210.705772 
L 216.32 210.705772 
L 212.712727 210.705772 
L 209.105455 210.705772 
L 205.498182 210.705772 
L 201.890909 210.705772 
L 198.283636 210.705772 
L 194.676364 210.705772 
L 191.069091 210.705772 
L 187.461818 210.705772 
L 183.854545 210.705772 
L 180.247273 210.705772 
L 176.64 210.705772 
L 173.032727 210.705772 
L 169.425455 210.705772 
L 165.818182 210.705772 
L 162.210909 210.705772 
L 158.603636 210.705772 
L 154.996364 210.705772 
L 151.389091 210.705772 
L 147.781818 210.705772 
L 144.174545 210.705772 
L 140.567273 210.705772 
L 136.96 210.705772 
L 133.352727 210.705772 
L 129.745455 210.705772 
L 126.138182 210.705772 
L 122.530909 210.705772 
L 118.923636 210.705772 
L 115.316364 210.705772 
L 111.709091 210.705772 
L 108.101818 210.705772 
L 104.494545 210.705772 
L 100.887273 210.705772 
L 97.28 210.705772 
L 93.672727 210.705772 
L 90.065455 210.705772 
L 86.458182 210.705772 
L 82.850909 210.705772 
L 79.243636 210.705772 
L 75.636364 210.705772 
L 72.029091 210.705772 
L 68.421818 210.705772 
L 64.814545 210.705772 
L 61.207273 210.705772 
L 57.6 210.705772 
L 57.6 210.816 
L 57.6 213.504 
L 57.6 216.192 
L 57.6 218.88 
L 57.6 221.568 
L 57.6 224.256 
L 57.6 226.944 
L 57.6 229.632 
L 57.6 232.32 
L 57.6 235.008 
L 57.6 237.696 
L 57.6 240.384 
L 57.6 243.072 
L 57.6 245.76 
L 57.6 248.448 
L 57.6 251.136 
L 57.6 253.824 
L 57.6 256.512 
L 57.6 259.2 
L 57.6 261.888 
L 57.6 264.576 
L 57.6 267.264 
L 57.6 269.952 
L 57.6 272.64 
L 57.6 275.328 
L 57.6 278.016 
L 57.6 280.704 
L 57.6 283.392 
L 57.6 286.08 
L 57.6 288.768 
L 57.6 291.456 
L 57.6 294.144 
L 57.6 296.832 
L 57.6 299.52 
L 57.6 302.208 
L 57.6 304.896 
L 57.6 307.584 
z
" clip-path="url(#pf82cb6ff23)" style="fill: #481b6d; fill-opacity: 0.75"/>
   </g>
   <g id="PathCollection_2">
    <path d="M 61.207273 210.705772 
L 64.814545 210.705772 
L 68.421818 210.705772 
L 72.029091 210.705772 
L 75.636364 210.705772 
L 79.243636 210.705772 
L 82.850909 210.705772 
L 86.458182 210.705772 
L 90.065455 210.705772 
L 93.672727 210.705772 
L 97.28 210.705772 
L 100.887273 210.705772 
L 104.494545 210.705772 
L 108.101818 210.705772 
L 111.709091 210.705772 
L 115.316364 210.705772 
L 118.923636 210.705772 
L 122.530909 210.705772 
L 126.138182 210.705772 
L 129.745455 210.705772 
L 133.352727 210.705772 
L 136.96 210.705772 
L 140.567273 210.705772 
L 144.174545 210.705772 
L 147.781818 210.705772 
L 151.389091 210.705772 
L 154.996364 210.705772 
L 158.603636 210.705772 
L 162.210909 210.705772 
L 165.818182 210.705772 
L 169.425455 210.705772 
L 173.032727 210.705772 
L 176.64 210.705772 
L 180.247273 210.705772 
L 183.854545 210.705772 
L 187.461818 210.705772 
L 191.069091 210.705772 
L 194.676364 210.705772 
L 198.283636 210.705772 
L 201.890909 210.705772 
L 205.498182 210.705772 
L 209.105455 210.705772 
L 212.712727 210.705772 
L 216.32 210.705772 
L 219.927273 210.705772 
L 223.534545 210.705772 
L 227.141818 210.705772 
L 230.749091 210.705772 
L 234.356364 210.705772 
L 237.963636 210.705772 
L 241.570909 210.705772 
L 245.178182 210.705772 
L 248.785455 210.705772 
L 252.392727 210.705772 
L 256 210.705772 
L 259.607273 210.705772 
L 263.214545 210.705772 
L 266.821818 210.705772 
L 270.429091 210.705772 
L 274.036364 210.705772 
L 277.643636 210.705772 
L 281.250909 210.705772 
L 284.858182 210.705772 
L 288.465455 210.705772 
L 292.072727 210.705772 
L 295.68 210.705772 
L 299.287273 210.705772 
L 302.894545 210.705772 
L 306.501818 210.705772 
L 310.109091 210.705772 
L 313.716364 210.705772 
L 317.323636 210.705772 
L 320.930909 210.705772 
L 324.538182 210.705772 
L 328.145455 210.705772 
L 331.752727 210.705772 
L 335.36 210.705772 
L 338.967273 210.705772 
L 342.574545 210.705772 
L 346.181818 210.705772 
L 349.789091 210.705772 
L 353.396364 210.705772 
L 357.003636 210.705772 
L 360.610909 210.705772 
L 364.218182 210.705772 
L 367.825455 210.705772 
L 371.432727 210.705772 
L 375.04 210.705772 
L 378.647273 210.705772 
L 382.254545 210.705772 
L 385.861818 210.705772 
L 389.469091 210.705772 
L 393.076364 210.705772 
L 396.683636 210.705772 
L 400.290909 210.705772 
L 403.898182 210.705772 
L 407.505455 210.705772 
L 411.112727 210.705772 
L 414.72 210.705772 
L 414.72 208.128 
L 414.72 205.44 
L 414.72 204.730078 
L 411.112727 204.730078 
L 407.505455 204.730078 
L 403.898182 204.730078 
L 400.290909 204.730078 
L 396.683636 204.730078 
L 393.076364 204.730078 
L 389.469091 204.730078 
L 385.861818 204.730078 
L 382.254545 204.730078 
L 378.647273 204.730078 
L 375.04 204.730078 
L 371.432727 204.730078 
L 367.825455 204.730078 
L 364.218182 204.730078 
L 360.610909 204.730078 
L 357.003636 204.730078 
L 353.396364 204.730078 
L 349.789091 204.730078 
L 346.181818 204.730078 
L 342.574545 204.730078 
L 338.967273 204.730078 
L 335.36 204.730078 
L 331.752727 204.730078 
L 328.145455 204.730078 
L 324.538182 204.730078 
L 320.930909 204.730078 
L 317.323636 204.730078 
L 313.716364 204.730078 
L 310.109091 204.730078 
L 306.501818 204.730078 
L 302.894545 204.730078 
L 299.287273 204.730078 
L 295.68 204.730078 
L 292.072727 204.730078 
L 288.465455 204.730078 
L 284.858182 204.730078 
L 281.250909 204.730078 
L 277.643636 204.730078 
L 274.036364 204.730078 
L 270.429091 204.730078 
L 266.821818 204.730078 
L 263.214545 204.730078 
L 259.607273 204.730078 
L 256 204.730078 
L 252.392727 204.730078 
L 248.785455 204.730078 
L 245.178182 204.730078 
L 241.570909 204.730078 
L 237.963636 204.730078 
L 234.356364 204.730078 
L 230.749091 204.730078 
L 227.141818 204.730078 
L 223.534545 204.730078 
L 219.927273 204.730078 
L 216.32 204.730078 
L 212.712727 204.730078 
L 209.105455 204.730078 
L 205.498182 204.730078 
L 201.890909 204.730078 
L 198.283636 204.730078 
L 194.676364 204.730078 
L 191.069091 204.730078 
L 187.461818 204.730078 
L 183.854545 204.730078 
L 180.247273 204.730078 
L 176.64 204.730078 
L 173.032727 204.730078 
L 169.425455 204.730078 
L 165.818182 204.730078 
L 162.210909 204.730078 
L 158.603636 204.730078 
L 154.996364 204.730078 
L 151.389091 204.730078 
L 147.781818 204.730078 
L 144.174545 204.730078 
L 140.567273 204.730078 
L 136.96 204.730078 
L 133.352727 204.730078 
L 129.745455 204.730078 
L 126.138182 204.730078 
L 122.530909 204.730078 
L 118.923636 204.730078 
L 115.316364 204.730078 
L 111.709091 204.730078 
L 108.101818 204.730078 
L 104.494545 204.730078 
L 100.887273 204.730078 
L 97.28 204.730078 
L 93.672727 204.730078 
L 90.065455 204.730078 
L 86.458182 204.730078 
L 82.850909 204.730078 
L 79.243636 204.730078 
L 75.636364 204.730078 
L 72.029091 204.730078 
L 68.421818 204.730078 
L 64.814545 204.730078 
L 61.207273 204.730078 
L 57.6 204.730078 
L 57.6 205.44 
L 57.6 208.128 
L 57.6 210.705772 
z
" clip-path="url(#pf82cb6ff23)" style="fill: #3f4788; fill-opacity: 0.75"/>
   </g>
   <g id="PathCollection_3">
    <path d="M 61.207273 204.730078 
L 64.814545 204.730078 
L 68.421818 204.730078 
L 72.029091 204.730078 
L 75.636364 204.730078 
L 79.243636 204.730078 
L 82.850909 204.730078 
L 86.458182 204.730078 
L 90.065455 204.730078 
L 93.672727 204.730078 
L 97.28 204.730078 
L 100.887273 204.730078 
L 104.494545 204.730078 
L 108.101818 204.730078 
L 111.709091 204.730078 
L 115.316364 204.730078 
L 118.923636 204.730078 
L 122.530909 204.730078 
L 126.138182 204.730078 
L 129.745455 204.730078 
L 133.352727 204.730078 
L 136.96 204.730078 
L 140.567273 204.730078 
L 144.174545 204.730078 
L 147.781818 204.730078 
L 151.389091 204.730078 
L 154.996364 204.730078 
L 158.603636 204.730078 
L 162.210909 204.730078 
L 165.818182 204.730078 
L 169.425455 204.730078 
L 173.032727 204.730078 
L 176.64 204.730078 
L 180.247273 204.730078 
L 183.854545 204.730078 
L 187.461818 204.730078 
L 191.069091 204.730078 
L 194.676364 204.730078 
L 198.283636 204.730078 
L 201.890909 204.730078 
L 205.498182 204.730078 
L 209.105455 204.730078 
L 212.712727 204.730078 
L 216.32 204.730078 
L 219.927273 204.730078 
L 223.534545 204.730078 
L 227.141818 204.730078 
L 230.749091 204.730078 
L 234.356364 204.730078 
L 237.963636 204.730078 
L 241.570909 204.730078 
L 245.178182 204.730078 
L 248.785455 204.730078 
L 252.392727 204.730078 
L 256 204.730078 
L 259.607273 204.730078 
L 263.214545 204.730078 
L 266.821818 204.730078 
L 270.429091 204.730078 
L 274.036364 204.730078 
L 277.643636 204.730078 
L 281.250909 204.730078 
L 284.858182 204.730078 
L 288.465455 204.730078 
L 292.072727 204.730078 
L 295.68 204.730078 
L 299.287273 204.730078 
L 302.894545 204.730078 
L 306.501818 204.730078 
L 310.109091 204.730078 
L 313.716364 204.730078 
L 317.323636 204.730078 
L 320.930909 204.730078 
L 324.538182 204.730078 
L 328.145455 204.730078 
L 331.752727 204.730078 
L 335.36 204.730078 
L 338.967273 204.730078 
L 342.574545 204.730078 
L 346.181818 204.730078 
L 349.789091 204.730078 
L 353.396364 204.730078 
L 357.003636 204.730078 
L 360.610909 204.730078 
L 364.218182 204.730078 
L 367.825455 204.730078 
L 371.432727 204.730078 
L 375.04 204.730078 
L 378.647273 204.730078 
L 382.254545 204.730078 
L 385.861818 204.730078 
L 389.469091 204.730078 
L 393.076364 204.730078 
L 396.683636 204.730078 
L 400.290909 204.730078 
L 403.898182 204.730078 
L 407.505455 204.730078 
L 411.112727 204.730078 
L 414.72 204.730078 
L 414.72 202.752 
L 414.72 200.064 
L 414.72 197.376 
L 414.72 194.688 
L 414.72 192 
L 414.72 189.312 
L 414.72 186.624 
L 414.72 183.936 
L 414.72 181.248 
L 414.72 178.56 
L 414.72 175.872 
L 414.72 173.184 
L 414.72 170.496 
L 414.72 167.808 
L 414.72 165.12 
L 414.72 162.432 
L 414.72 159.744 
L 414.72 157.056 
L 414.72 154.368 
L 414.72 151.68 
L 414.72 148.992 
L 414.72 146.304 
L 414.72 143.616 
L 414.72 140.928 
L 414.72 138.24 
L 414.72 135.552 
L 414.72 132.864 
L 414.72 130.176 
L 414.72 127.488 
L 414.72 124.8 
L 414.72 122.112 
L 414.72 121.580941 
L 411.112727 121.580941 
L 407.505455 121.580941 
L 403.898182 121.580941 
L 400.290909 121.580941 
L 396.683636 121.580941 
L 393.076364 121.580941 
L 389.469091 121.580941 
L 385.861818 121.580941 
L 382.254545 121.580941 
L 378.647273 121.580941 
L 375.04 121.580941 
L 371.432727 121.580941 
L 367.825455 121.580941 
L 364.218182 121.580941 
L 360.610909 121.580941 
L 357.003636 121.580941 
L 353.396364 121.580941 
L 349.789091 121.580941 
L 346.181818 121.580941 
L 342.574545 121.580941 
L 338.967273 121.580941 
L 335.36 121.580941 
L 331.752727 121.580941 
L 328.145455 121.580941 
L 324.538182 121.580941 
L 320.930909 121.580941 
L 317.323636 121.580941 
L 313.716364 121.580941 
L 310.109091 121.580941 
L 306.501818 121.580941 
L 302.894545 121.580941 
L 299.287273 121.580941 
L 295.68 121.580941 
L 292.072727 121.580941 
L 288.465455 121.580941 
L 284.858182 121.580941 
L 281.250909 121.580941 
L 277.643636 121.580941 
L 274.036364 121.580941 
L 270.429091 121.580941 
L 266.821818 121.580941 
L 263.214545 121.580941 
L 259.607273 121.580941 
L 256 121.580941 
L 252.392727 121.580941 
L 248.785455 121.580941 
L 245.178182 121.580941 
L 241.570909 121.580941 
L 237.963636 121.580941 
L 234.356364 121.580941 
L 230.749091 121.580941 
L 227.141818 121.580941 
L 223.534545 121.580941 
L 219.927273 121.580941 
L 216.32 121.580941 
L 212.712727 121.580941 
L 209.105455 121.580941 
L 205.498182 121.580941 
L 201.890909 121.580941 
L 198.283636 121.580941 
L 194.676364 121.580941 
L 191.069091 121.580941 
L 187.461818 121.580941 
L 183.854545 121.580941 
L 180.247273 121.580941 
L 176.64 121.580941 
L 173.032727 121.580941 
L 169.425455 121.580941 
L 165.818182 121.580941 
L 162.210909 121.580941 
L 158.603636 121.580941 
L 154.996364 121.580941 
L 151.389091 121.580941 
L 147.781818 121.580941 
L 144.174545 121.580941 
L 140.567273 121.580941 
L 136.96 121.580941 
L 133.352727 121.580941 
L 129.745455 121.580941 
L 126.138182 121.580941 
L 122.530909 121.580941 
L 118.923636 121.580941 
L 115.316364 121.580941 
L 111.709091 121.580941 
L 108.101818 121.580941 
L 104.494545 121.580941 
L 100.887273 121.580941 
L 97.28 121.580941 
L 93.672727 121.580941 
L 90.065455 121.580941 
L 86.458182 121.580941 
L 82.850909 121.580941 
L 79.243636 121.580941 
L 75.636364 121.580941 
L 72.029091 121.580941 
L 68.421818 121.580941 
L 64.814545 121.580941 
L 61.207273 121.580941 
L 57.6 121.580941 
L 57.6 122.112 
L 57.6 124.8 
L 57.6 127.488 
L 57.6 130.176 
L 57.6 132.864 
L 57.6 135.552 
L 57.6 138.24 
L 57.6 140.928 
L 57.6 143.616 
L 57.6 146.304 
L 57.6 148.992 
L 57.6 151.68 
L 57.6 154.368 
L 57.6 157.056 
L 57.6 159.744 
L 57.6 162.432 
L 57.6 165.12 
L 57.6 167.808 
L 57.6 170.496 
L 57.6 173.184 
L 57.6 175.872 
L 57.6 178.56 
L 57.6 181.248 
L 57.6 183.936 
L 57.6 186.624 
L 57.6 189.312 
L 57.6 192 
L 57.6 194.688 
L 57.6 197.376 
L 57.6 200.064 
L 57.6 202.752 
L 57.6 204.730078 
z
" clip-path="url(#pf82cb6ff23)" style="fill: #2e6e8e; fill-opacity: 0.75"/>
   </g>
   <g id="PathCollection_4">
    <path d="M 61.207273 121.580941 
L 64.814545 121.580941 
L 68.421818 121.580941 
L 72.029091 121.580941 
L 75.636364 121.580941 
L 79.243636 121.580941 
L 82.850909 121.580941 
L 86.458182 121.580941 
L 90.065455 121.580941 
L 93.672727 121.580941 
L 97.28 121.580941 
L 100.887273 121.580941 
L 104.494545 121.580941 
L 108.101818 121.580941 
L 111.709091 121.580941 
L 115.316364 121.580941 
L 118.923636 121.580941 
L 122.530909 121.580941 
L 126.138182 121.580941 
L 129.745455 121.580941 
L 133.352727 121.580941 
L 136.96 121.580941 
L 140.567273 121.580941 
L 144.174545 121.580941 
L 147.781818 121.580941 
L 151.389091 121.580941 
L 154.996364 121.580941 
L 158.603636 121.580941 
L 162.210909 121.580941 
L 165.818182 121.580941 
L 169.425455 121.580941 
L 173.032727 121.580941 
L 176.64 121.580941 
L 180.247273 121.580941 
L 183.854545 121.580941 
L 187.461818 121.580941 
L 191.069091 121.580941 
L 194.676364 121.580941 
L 198.283636 121.580941 
L 201.890909 121.580941 
L 205.498182 121.580941 
L 209.105455 121.580941 
L 212.712727 121.580941 
L 216.32 121.580941 
L 219.927273 121.580941 
L 223.534545 121.580941 
L 227.141818 121.580941 
L 230.749091 121.580941 
L 234.356364 121.580941 
L 237.963636 121.580941 
L 241.570909 121.580941 
L 245.178182 121.580941 
L 248.785455 121.580941 
L 252.392727 121.580941 
L 256 121.580941 
L 259.607273 121.580941 
L 263.214545 121.580941 
L 266.821818 121.580941 
L 270.429091 121.580941 
L 274.036364 121.580941 
L 277.643636 121.580941 
L 281.250909 121.580941 
L 284.858182 121.580941 
L 288.465455 121.580941 
L 292.072727 121.580941 
L 295.68 121.580941 
L 299.287273 121.580941 
L 302.894545 121.580941 
L 306.501818 121.580941 
L 310.109091 121.580941 
L 313.716364 121.580941 
L 317.323636 121.580941 
L 320.930909 121.580941 
L 324.538182 121.580941 
L 328.145455 121.580941 
L 331.752727 121.580941 
L 335.36 121.580941 
L 338.967273 121.580941 
L 342.574545 121.580941 
L 346.181818 121.580941 
L 349.789091 121.580941 
L 353.396364 121.580941 
L 357.003636 121.580941 
L 360.610909 121.580941 
L 364.218182 121.580941 
L 367.825455 121.580941 
L 371.432727 121.580941 
L 375.04 121.580941 
L 378.647273 121.580941 
L 382.254545 121.580941 
L 385.861818 121.580941 
L 389.469091 121.580941 
L 393.076364 121.580941 
L 396.683636 121.580941 
L 400.290909 121.580941 
L 403.898182 121.580941 
L 407.505455 121.580941 
L 411.112727 121.580941 
L 414.72 121.580941 
L 414.72 120.025968 
L 411.112727 120.025968 
L 407.505455 120.025968 
L 403.898182 120.025968 
L 400.290909 120.025968 
L 396.683636 120.025968 
L 393.076364 120.025968 
L 389.469091 120.025968 
L 385.861818 120.025968 
L 382.254545 120.025968 
L 378.647273 120.025968 
L 375.04 120.025968 
L 371.432727 120.025968 
L 367.825455 120.025968 
L 364.218182 120.025968 
L 360.610909 120.025968 
L 357.003636 120.025968 
L 353.396364 120.025968 
L 349.789091 120.025968 
L 346.181818 120.025968 
L 342.574545 120.025968 
L 338.967273 120.025968 
L 335.36 120.025968 
L 331.752727 120.025968 
L 328.145455 120.025968 
L 324.538182 120.025968 
L 320.930909 120.025968 
L 317.323636 120.025968 
L 313.716364 120.025968 
L 310.109091 120.025968 
L 306.501818 120.025968 
L 302.894545 120.025968 
L 299.287273 120.025968 
L 295.68 120.025968 
L 292.072727 120.025968 
L 288.465455 120.025968 
L 284.858182 120.025968 
L 281.250909 120.025968 
L 277.643636 120.025968 
L 274.036364 120.025968 
L 270.429091 120.025968 
L 266.821818 120.025968 
L 263.214545 120.025968 
L 259.607273 120.025968 
L 256 120.025968 
L 252.392727 120.025968 
L 248.785455 120.025968 
L 245.178182 120.025968 
L 241.570909 120.025968 
L 237.963636 120.025968 
L 234.356364 120.025968 
L 230.749091 120.025968 
L 227.141818 120.025968 
L 223.534545 120.025968 
L 219.927273 120.025968 
L 216.32 120.025968 
L 212.712727 120.025968 
L 209.105455 120.025968 
L 205.498182 120.025968 
L 201.890909 120.025968 
L 198.283636 120.025968 
L 194.676364 120.025968 
L 191.069091 120.025968 
L 187.461818 120.025968 
L 183.854545 120.025968 
L 180.247273 120.025968 
L 176.64 120.025968 
L 173.032727 120.025968 
L 169.425455 120.025968 
L 165.818182 120.025968 
L 162.210909 120.025968 
L 158.603636 120.025968 
L 154.996364 120.025968 
L 151.389091 120.025968 
L 147.781818 120.025968 
L 144.174545 120.025968 
L 140.567273 120.025968 
L 136.96 120.025968 
L 133.352727 120.025968 
L 129.745455 120.025968 
L 126.138182 120.025968 
L 122.530909 120.025968 
L 118.923636 120.025968 
L 115.316364 120.025968 
L 111.709091 120.025968 
L 108.101818 120.025968 
L 104.494545 120.025968 
L 100.887273 120.025968 
L 97.28 120.025968 
L 93.672727 120.025968 
L 90.065455 120.025968 
L 86.458182 120.025968 
L 82.850909 120.025968 
L 79.243636 120.025968 
L 75.636364 120.025968 
L 72.029091 120.025968 
L 68.421818 120.025968 
L 64.814545 120.025968 
L 61.207273 120.025968 
L 57.6 120.025968 
L 57.6 121.580941 
z
" clip-path="url(#pf82cb6ff23)" style="fill: #21918c; fill-opacity: 0.75"/>
   </g>
   <g id="PathCollection_5">
    <path d="M 61.207273 120.025968 
L 64.814545 120.025968 
L 68.421818 120.025968 
L 72.029091 120.025968 
L 75.636364 120.025968 
L 79.243636 120.025968 
L 82.850909 120.025968 
L 86.458182 120.025968 
L 90.065455 120.025968 
L 93.672727 120.025968 
L 97.28 120.025968 
L 100.887273 120.025968 
L 104.494545 120.025968 
L 108.101818 120.025968 
L 111.709091 120.025968 
L 115.316364 120.025968 
L 118.923636 120.025968 
L 122.530909 120.025968 
L 126.138182 120.025968 
L 129.745455 120.025968 
L 133.352727 120.025968 
L 136.96 120.025968 
L 140.567273 120.025968 
L 144.174545 120.025968 
L 147.781818 120.025968 
L 151.389091 120.025968 
L 154.996364 120.025968 
L 158.603636 120.025968 
L 162.210909 120.025968 
L 165.818182 120.025968 
L 169.425455 120.025968 
L 173.032727 120.025968 
L 176.64 120.025968 
L 180.247273 120.025968 
L 183.854545 120.025968 
L 187.461818 120.025968 
L 191.069091 120.025968 
L 194.676364 120.025968 
L 198.283636 120.025968 
L 201.890909 120.025968 
L 205.498182 120.025968 
L 209.105455 120.025968 
L 212.712727 120.025968 
L 216.32 120.025968 
L 219.927273 120.025968 
L 223.534545 120.025968 
L 227.141818 120.025968 
L 230.749091 120.025968 
L 234.356364 120.025968 
L 237.963636 120.025968 
L 241.570909 120.025968 
L 245.178182 120.025968 
L 248.785455 120.025968 
L 252.392727 120.025968 
L 256 120.025968 
L 259.607273 120.025968 
L 263.214545 120.025968 
L 266.821818 120.025968 
L 270.429091 120.025968 
L 274.036364 120.025968 
L 277.643636 120.025968 
L 281.250909 120.025968 
L 284.858182 120.025968 
L 288.465455 120.025968 
L 292.072727 120.025968 
L 295.68 120.025968 
L 299.287273 120.025968 
L 302.894545 120.025968 
L 306.501818 120.025968 
L 310.109091 120.025968 
L 313.716364 120.025968 
L 317.323636 120.025968 
L 320.930909 120.025968 
L 324.538182 120.025968 
L 328.145455 120.025968 
L 331.752727 120.025968 
L 335.36 120.025968 
L 338.967273 120.025968 
L 342.574545 120.025968 
L 346.181818 120.025968 
L 349.789091 120.025968 
L 353.396364 120.025968 
L 357.003636 120.025968 
L 360.610909 120.025968 
L 364.218182 120.025968 
L 367.825455 120.025968 
L 371.432727 120.025968 
L 375.04 120.025968 
L 378.647273 120.025968 
L 382.254545 120.025968 
L 385.861818 120.025968 
L 389.469091 120.025968 
L 393.076364 120.025968 
L 396.683636 120.025968 
L 400.290909 120.025968 
L 403.898182 120.025968 
L 407.505455 120.025968 
L 411.112727 120.025968 
L 414.72 120.025968 
L 414.72 119.424 
L 414.72 116.736 
L 414.72 114.048 
L 414.72 111.36 
L 414.72 108.672 
L 414.72 105.984 
L 414.72 103.296 
L 414.72 100.608 
L 414.72 98.946192 
L 411.112727 98.946192 
L 407.505455 98.946192 
L 403.898182 98.946192 
L 400.290909 98.946192 
L 396.683636 98.946192 
L 393.076364 98.946192 
L 389.469091 98.946192 
L 385.861818 98.946192 
L 382.254545 98.946192 
L 378.647273 98.946192 
L 375.04 98.946192 
L 371.432727 98.946192 
L 367.825455 98.946192 
L 364.218182 98.946192 
L 360.610909 98.946192 
L 357.003636 98.946192 
L 353.396364 98.946192 
L 349.789091 98.946192 
L 346.181818 98.946192 
L 342.574545 98.946192 
L 338.967273 98.946192 
L 335.36 98.946192 
L 331.752727 98.946192 
L 328.145455 98.946192 
L 324.538182 98.946192 
L 320.930909 98.946192 
L 317.323636 98.946192 
L 313.716364 98.946192 
L 310.109091 98.946192 
L 306.501818 98.946192 
L 302.894545 98.946192 
L 299.287273 98.946192 
L 295.68 98.946192 
L 292.072727 98.946192 
L 288.465455 98.946192 
L 284.858182 98.946192 
L 281.250909 98.946192 
L 277.643636 98.946192 
L 274.036364 98.946192 
L 270.429091 98.946192 
L 266.821818 98.946192 
L 263.214545 98.946192 
L 259.607273 98.946192 
L 256 98.946192 
L 252.392727 98.946192 
L 248.785455 98.946192 
L 245.178182 98.946192 
L 241.570909 98.946192 
L 237.963636 98.946192 
L 234.356364 98.946192 
L 230.749091 98.946192 
L 227.141818 98.946192 
L 223.534545 98.946192 
L 219.927273 98.946192 
L 216.32 98.946192 
L 212.712727 98.946192 
L 209.105455 98.946192 
L 205.498182 98.946192 
L 201.890909 98.946192 
L 198.283636 98.946192 
L 194.676364 98.946192 
L 191.069091 98.946192 
L 187.461818 98.946192 
L 183.854545 98.946192 
L 180.247273 98.946192 
L 176.64 98.946192 
L 173.032727 98.946192 
L 169.425455 98.946192 
L 165.818182 98.946192 
L 162.210909 98.946192 
L 158.603636 98.946192 
L 154.996364 98.946192 
L 151.389091 98.946192 
L 147.781818 98.946192 
L 144.174545 98.946192 
L 140.567273 98.946192 
L 136.96 98.946192 
L 133.352727 98.946192 
L 129.745455 98.946192 
L 126.138182 98.946192 
L 122.530909 98.946192 
L 118.923636 98.946192 
L 115.316364 98.946192 
L 111.709091 98.946192 
L 108.101818 98.946192 
L 104.494545 98.946192 
L 100.887273 98.946192 
L 97.28 98.946192 
L 93.672727 98.946192 
L 90.065455 98.946192 
L 86.458182 98.946192 
L 82.850909 98.946192 
L 79.243636 98.946192 
L 75.636364 98.946192 
L 72.029091 98.946192 
L 68.421818 98.946192 
L 64.814545 98.946192 
L 61.207273 98.946192 
L 57.6 98.946192 
L 57.6 100.608 
L 57.6 103.296 
L 57.6 105.984 
L 57.6 108.672 
L 57.6 111.36 
L 57.6 114.048 
L 57.6 116.736 
L 57.6 119.424 
L 57.6 120.025968 
z
" clip-path="url(#pf82cb6ff23)" style="fill: #2db27d; fill-opacity: 0.75"/>
   </g>
   <g id="PathCollection_6">
    <path d="M 61.207273 98.946192 
L 64.814545 98.946192 
L 68.421818 98.946192 
L 72.029091 98.946192 
L 75.636364 98.946192 
L 79.243636 98.946192 
L 82.850909 98.946192 
L 86.458182 98.946192 
L 90.065455 98.946192 
L 93.672727 98.946192 
L 97.28 98.946192 
L 100.887273 98.946192 
L 104.494545 98.946192 
L 108.101818 98.946192 
L 111.709091 98.946192 
L 115.316364 98.946192 
L 118.923636 98.946192 
L 122.530909 98.946192 
L 126.138182 98.946192 
L 129.745455 98.946192 
L 133.352727 98.946192 
L 136.96 98.946192 
L 140.567273 98.946192 
L 144.174545 98.946192 
L 147.781818 98.946192 
L 151.389091 98.946192 
L 154.996364 98.946192 
L 158.603636 98.946192 
L 162.210909 98.946192 
L 165.818182 98.946192 
L 169.425455 98.946192 
L 173.032727 98.946192 
L 176.64 98.946192 
L 180.247273 98.946192 
L 183.854545 98.946192 
L 187.461818 98.946192 
L 191.069091 98.946192 
L 194.676364 98.946192 
L 198.283636 98.946192 
L 201.890909 98.946192 
L 205.498182 98.946192 
L 209.105455 98.946192 
L 212.712727 98.946192 
L 216.32 98.946192 
L 219.927273 98.946192 
L 223.534545 98.946192 
L 227.141818 98.946192 
L 230.749091 98.946192 
L 234.356364 98.946192 
L 237.963636 98.946192 
L 241.570909 98.946192 
L 245.178182 98.946192 
L 248.785455 98.946192 
L 252.392727 98.946192 
L 256 98.946192 
L 259.607273 98.946192 
L 263.214545 98.946192 
L 266.821818 98.946192 
L 270.429091 98.946192 
L 274.036364 98.946192 
L 277.643636 98.946192 
L 281.250909 98.946192 
L 284.858182 98.946192 
L 288.465455 98.946192 
L 292.072727 98.946192 
L 295.68 98.946192 
L 299.287273 98.946192 
L 302.894545 98.946192 
L 306.501818 98.946192 
L 310.109091 98.946192 
L 313.716364 98.946192 
L 317.323636 98.946192 
L 320.930909 98.946192 
L 324.538182 98.946192 
L 328.145455 98.946192 
L 331.752727 98.946192 
L 335.36 98.946192 
L 338.967273 98.946192 
L 342.574545 98.946192 
L 346.181818 98.946192 
L 349.789091 98.946192 
L 353.396364 98.946192 
L 357.003636 98.946192 
L 360.610909 98.946192 
L 364.218182 98.946192 
L 367.825455 98.946192 
L 371.432727 98.946192 
L 375.04 98.946192 
L 378.647273 98.946192 
L 382.254545 98.946192 
L 385.861818 98.946192 
L 389.469091 98.946192 
L 393.076364 98.946192 
L 396.683636 98.946192 
L 400.290909 98.946192 
L 403.898182 98.946192 
L 407.505455 98.946192 
L 411.112727 98.946192 
L 414.72 98.946192 
L 414.72 97.92 
L 414.72 96.218766 
L 411.112727 96.218766 
L 407.505455 96.218766 
L 403.898182 96.218766 
L 400.290909 96.218766 
L 396.683636 96.218766 
L 393.076364 96.218766 
L 389.469091 96.218766 
L 385.861818 96.218766 
L 382.254545 96.218766 
L 378.647273 96.218766 
L 375.04 96.218766 
L 371.432727 96.218766 
L 367.825455 96.218766 
L 364.218182 96.218766 
L 360.610909 96.218766 
L 357.003636 96.218766 
L 353.396364 96.218766 
L 349.789091 96.218766 
L 346.181818 96.218766 
L 342.574545 96.218766 
L 338.967273 96.218766 
L 335.36 96.218766 
L 331.752727 96.218766 
L 328.145455 96.218766 
L 324.538182 96.218766 
L 320.930909 96.218766 
L 317.323636 96.218766 
L 313.716364 96.218766 
L 310.109091 96.218766 
L 306.501818 96.218766 
L 302.894545 96.218766 
L 299.287273 96.218766 
L 295.68 96.218766 
L 292.072727 96.218766 
L 288.465455 96.218766 
L 284.858182 96.218766 
L 281.250909 96.218766 
L 277.643636 96.218766 
L 274.036364 96.218766 
L 270.429091 96.218766 
L 266.821818 96.218766 
L 263.214545 96.218766 
L 259.607273 96.218766 
L 256 96.218766 
L 252.392727 96.218766 
L 248.785455 96.218766 
L 245.178182 96.218766 
L 241.570909 96.218766 
L 237.963636 96.218766 
L 234.356364 96.218766 
L 230.749091 96.218766 
L 227.141818 96.218766 
L 223.534545 96.218766 
L 219.927273 96.218766 
L 216.32 96.218766 
L 212.712727 96.218766 
L 209.105455 96.218766 
L 205.498182 96.218766 
L 201.890909 96.218766 
L 198.283636 96.218766 
L 194.676364 96.218766 
L 191.069091 96.218766 
L 187.461818 96.218766 
L 183.854545 96.218766 
L 180.247273 96.218766 
L 176.64 96.218766 
L 173.032727 96.218766 
L 169.425455 96.218766 
L 165.818182 96.218766 
L 162.210909 96.218766 
L 158.603636 96.218766 
L 154.996364 96.218766 
L 151.389091 96.218766 
L 147.781818 96.218766 
L 144.174545 96.218766 
L 140.567273 96.218766 
L 136.96 96.218766 
L 133.352727 96.218766 
L 129.745455 96.218766 
L 126.138182 96.218766 
L 122.530909 96.218766 
L 118.923636 96.218766 
L 115.316364 96.218766 
L 111.709091 96.218766 
L 108.101818 96.218766 
L 104.494545 96.218766 
L 100.887273 96.218766 
L 97.28 96.218766 
L 93.672727 96.218766 
L 90.065455 96.218766 
L 86.458182 96.218766 
L 82.850909 96.218766 
L 79.243636 96.218766 
L 75.636364 96.218766 
L 72.029091 96.218766 
L 68.421818 96.218766 
L 64.814545 96.218766 
L 61.207273 96.218766 
L 57.6 96.218766 
L 57.6 97.92 
L 57.6 98.946192 
z
" clip-path="url(#pf82cb6ff23)" style="fill: #73d056; fill-opacity: 0.75"/>
   </g>
   <g id="PathCollection_7">
    <path d="M 61.207273 96.218766 
L 64.814545 96.218766 
L 68.421818 96.218766 
L 72.029091 96.218766 
L 75.636364 96.218766 
L 79.243636 96.218766 
L 82.850909 96.218766 
L 86.458182 96.218766 
L 90.065455 96.218766 
L 93.672727 96.218766 
L 97.28 96.218766 
L 100.887273 96.218766 
L 104.494545 96.218766 
L 108.101818 96.218766 
L 111.709091 96.218766 
L 115.316364 96.218766 
L 118.923636 96.218766 
L 122.530909 96.218766 
L 126.138182 96.218766 
L 129.745455 96.218766 
L 133.352727 96.218766 
L 136.96 96.218766 
L 140.567273 96.218766 
L 144.174545 96.218766 
L 147.781818 96.218766 
L 151.389091 96.218766 
L 154.996364 96.218766 
L 158.603636 96.218766 
L 162.210909 96.218766 
L 165.818182 96.218766 
L 169.425455 96.218766 
L 173.032727 96.218766 
L 176.64 96.218766 
L 180.247273 96.218766 
L 183.854545 96.218766 
L 187.461818 96.218766 
L 191.069091 96.218766 
L 194.676364 96.218766 
L 198.283636 96.218766 
L 201.890909 96.218766 
L 205.498182 96.218766 
L 209.105455 96.218766 
L 212.712727 96.218766 
L 216.32 96.218766 
L 219.927273 96.218766 
L 223.534545 96.218766 
L 227.141818 96.218766 
L 230.749091 96.218766 
L 234.356364 96.218766 
L 237.963636 96.218766 
L 241.570909 96.218766 
L 245.178182 96.218766 
L 248.785455 96.218766 
L 252.392727 96.218766 
L 256 96.218766 
L 259.607273 96.218766 
L 263.214545 96.218766 
L 266.821818 96.218766 
L 270.429091 96.218766 
L 274.036364 96.218766 
L 277.643636 96.218766 
L 281.250909 96.218766 
L 284.858182 96.218766 
L 288.465455 96.218766 
L 292.072727 96.218766 
L 295.68 96.218766 
L 299.287273 96.218766 
L 302.894545 96.218766 
L 306.501818 96.218766 
L 310.109091 96.218766 
L 313.716364 96.218766 
L 317.323636 96.218766 
L 320.930909 96.218766 
L 324.538182 96.218766 
L 328.145455 96.218766 
L 331.752727 96.218766 
L 335.36 96.218766 
L 338.967273 96.218766 
L 342.574545 96.218766 
L 346.181818 96.218766 
L 349.789091 96.218766 
L 353.396364 96.218766 
L 357.003636 96.218766 
L 360.610909 96.218766 
L 364.218182 96.218766 
L 367.825455 96.218766 
L 371.432727 96.218766 
L 375.04 96.218766 
L 378.647273 96.218766 
L 382.254545 96.218766 
L 385.861818 96.218766 
L 389.469091 96.218766 
L 393.076364 96.218766 
L 396.683636 96.218766 
L 400.290909 96.218766 
L 403.898182 96.218766 
L 407.505455 96.218766 
L 411.112727 96.218766 
L 414.72 96.218766 
L 414.72 95.232 
L 414.72 92.544 
L 414.72 89.856 
L 414.72 87.168 
L 414.72 84.48 
L 414.72 81.792 
L 414.72 79.104 
L 414.72 76.416 
L 414.72 73.728 
L 414.72 71.04 
L 414.72 68.352 
L 414.72 65.664 
L 414.72 62.976 
L 414.72 60.288 
L 414.72 57.6 
L 414.72 54.912 
L 414.72 52.224 
L 414.72 49.536 
L 414.72 46.848 
L 414.72 44.16 
L 414.72 41.472 
L 411.112727 41.472 
L 407.505455 41.472 
L 403.898182 41.472 
L 400.290909 41.472 
L 396.683636 41.472 
L 393.076364 41.472 
L 389.469091 41.472 
L 385.861818 41.472 
L 382.254545 41.472 
L 378.647273 41.472 
L 375.04 41.472 
L 371.432727 41.472 
L 367.825455 41.472 
L 364.218182 41.472 
L 360.610909 41.472 
L 357.003636 41.472 
L 353.396364 41.472 
L 349.789091 41.472 
L 346.181818 41.472 
L 342.574545 41.472 
L 338.967273 41.472 
L 335.36 41.472 
L 331.752727 41.472 
L 328.145455 41.472 
L 324.538182 41.472 
L 320.930909 41.472 
L 317.323636 41.472 
L 313.716364 41.472 
L 310.109091 41.472 
L 306.501818 41.472 
L 302.894545 41.472 
L 299.287273 41.472 
L 295.68 41.472 
L 292.072727 41.472 
L 288.465455 41.472 
L 284.858182 41.472 
L 281.250909 41.472 
L 277.643636 41.472 
L 274.036364 41.472 
L 270.429091 41.472 
L 266.821818 41.472 
L 263.214545 41.472 
L 259.607273 41.472 
L 256 41.472 
L 252.392727 41.472 
L 248.785455 41.472 
L 245.178182 41.472 
L 241.570909 41.472 
L 237.963636 41.472 
L 234.356364 41.472 
L 230.749091 41.472 
L 227.141818 41.472 
L 223.534545 41.472 
L 219.927273 41.472 
L 216.32 41.472 
L 212.712727 41.472 
L 209.105455 41.472 
L 205.498182 41.472 
L 201.890909 41.472 
L 198.283636 41.472 
L 194.676364 41.472 
L 191.069091 41.472 
L 187.461818 41.472 
L 183.854545 41.472 
L 180.247273 41.472 
L 176.64 41.472 
L 173.032727 41.472 
L 169.425455 41.472 
L 165.818182 41.472 
L 162.210909 41.472 
L 158.603636 41.472 
L 154.996364 41.472 
L 151.389091 41.472 
L 147.781818 41.472 
L 144.174545 41.472 
L 140.567273 41.472 
L 136.96 41.472 
L 133.352727 41.472 
L 129.745455 41.472 
L 126.138182 41.472 
L 122.530909 41.472 
L 118.923636 41.472 
L 115.316364 41.472 
L 111.709091 41.472 
L 108.101818 41.472 
L 104.494545 41.472 
L 100.887273 41.472 
L 97.28 41.472 
L 93.672727 41.472 
L 90.065455 41.472 
L 86.458182 41.472 
L 82.850909 41.472 
L 79.243636 41.472 
L 75.636364 41.472 
L 72.029091 41.472 
L 68.421818 41.472 
L 64.814545 41.472 
L 61.207273 41.472 
L 57.6 41.472 
L 57.6 44.16 
L 57.6 46.848 
L 57.6 49.536 
L 57.6 52.224 
L 57.6 54.912 
L 57.6 57.6 
L 57.6 60.288 
L 57.6 62.976 
L 57.6 65.664 
L 57.6 68.352 
L 57.6 71.04 
L 57.6 73.728 
L 57.6 76.416 
L 57.6 79.104 
L 57.6 81.792 
L 57.6 84.48 
L 57.6 87.168 
L 57.6 89.856 
L 57.6 92.544 
L 57.6 95.232 
L 57.6 96.218766 
z
" clip-path="url(#pf82cb6ff23)" style="fill: #d0e11c; fill-opacity: 0.75"/>
   </g>
   <g id="matplotlib.axis_1">
    <g id="xtick_1">
     <g id="line2d_1">
      <defs>
       <path id="m6c8bf79f67" d="M 0 0 
L 0 3.5 
" style="stroke: #000000; stroke-width: 0.8"/>
      </defs>
      <g>
       <use xlink:href="#m6c8bf79f67" x="63.755427" y="307.584" style="stroke: #000000; stroke-width: 0.8"/>
      </g>
     </g>
     <g id="text_1">
      <!-- 0.05 -->
      <g transform="translate(52.622615 322.182437) scale(0.1 -0.1)">
       <defs>
        <path id="DejaVuSans-30" d="M 2034 4250 
Q 1547 4250 1301 3770 
Q 1056 3291 1056 2328 
Q 1056 1369 1301 889 
Q 1547 409 2034 409 
Q 2525 409 2770 889 
Q 3016 1369 3016 2328 
Q 3016 3291 2770 3770 
Q 2525 4250 2034 4250 
z
M 2034 4750 
Q 2819 4750 3233 4129 
Q 3647 3509 3647 2328 
Q 3647 1150 3233 529 
Q 2819 -91 2034 -91 
Q 1250 -91 836 529 
Q 422 1150 422 2328 
Q 422 3509 836 4129 
Q 1250 4750 2034 4750 
z
" transform="scale(0.015625)"/>
        <path id="DejaVuSans-2e" d="M 684 794 
L 1344 794 
L 1344 0 
L 684 0 
L 684 794 
z
" transform="scale(0.015625)"/>
        <path id="DejaVuSans-35" d="M 691 4666 
L 3169 4666 
L 3169 4134 
L 1269 4134 
L 1269 2991 
Q 1406 3038 1543 3061 
Q 1681 3084 1819 3084 
Q 2600 3084 3056 2656 
Q 3513 2228 3513 1497 
Q 3513 744 3044 326 
Q 2575 -91 1722 -91 
Q 1428 -91 1123 -41 
Q 819 9 494 109 
L 494 744 
Q 775 591 1075 516 
Q 1375 441 1709 441 
Q 2250 441 2565 725 
Q 2881 1009 2881 1497 
Q 2881 1984 2565 2268 
Q 2250 2553 1709 2553 
Q 1456 2553 1204 2497 
Q 953 2441 691 2322 
L 691 4666 
z
" transform="scale(0.015625)"/>
       </defs>
       <use xlink:href="#DejaVuSans-30"/>
       <use xlink:href="#DejaVuSans-2e" x="63.623047"/>
       <use xlink:href="#DejaVuSans-30" x="95.410156"/>
       <use xlink:href="#DejaVuSans-35" x="159.033203"/>
      </g>
     </g>
    </g>
    <g id="xtick_2">
     <g id="line2d_2">
      <g>
       <use xlink:href="#m6c8bf79f67" x="129.518539" y="307.584" style="stroke: #000000; stroke-width: 0.8"/>
      </g>
     </g>
     <g id="text_2">
      <!-- 0.10 -->
      <g transform="translate(118.385726 322.182437) scale(0.1 -0.1)">
       <defs>
        <path id="DejaVuSans-31" d="M 794 531 
L 1825 531 
L 1825 4091 
L 703 3866 
L 703 4441 
L 1819 4666 
L 2450 4666 
L 2450 531 
L 3481 531 
L 3481 0 
L 794 0 
L 794 531 
z
" transform="scale(0.015625)"/>
       </defs>
       <use xlink:href="#DejaVuSans-30"/>
       <use xlink:href="#DejaVuSans-2e" x="63.623047"/>
       <use xlink:href="#DejaVuSans-31" x="95.410156"/>
       <use xlink:href="#DejaVuSans-30" x="159.033203"/>
      </g>
     </g>
    </g>
    <g id="xtick_3">
     <g id="line2d_3">
      <g>
       <use xlink:href="#m6c8bf79f67" x="195.28165" y="307.584" style="stroke: #000000; stroke-width: 0.8"/>
      </g>
     </g>
     <g id="text_3">
      <!-- 0.15 -->
      <g transform="translate(184.148837 322.182437) scale(0.1 -0.1)">
       <use xlink:href="#DejaVuSans-30"/>
       <use xlink:href="#DejaVuSans-2e" x="63.623047"/>
       <use xlink:href="#DejaVuSans-31" x="95.410156"/>
       <use xlink:href="#DejaVuSans-35" x="159.033203"/>
      </g>
     </g>
    </g>
    <g id="xtick_4">
     <g id="line2d_4">
      <g>
       <use xlink:href="#m6c8bf79f67" x="261.044761" y="307.584" style="stroke: #000000; stroke-width: 0.8"/>
      </g>
     </g>
     <g id="text_4">
      <!-- 0.20 -->
      <g transform="translate(249.911949 322.182437) scale(0.1 -0.1)">
       <defs>
        <path id="DejaVuSans-32" d="M 1228 531 
L 3431 531 
L 3431 0 
L 469 0 
L 469 531 
Q 828 903 1448 1529 
Q 2069 2156 2228 2338 
Q 2531 2678 2651 2914 
Q 2772 3150 2772 3378 
Q 2772 3750 2511 3984 
Q 2250 4219 1831 4219 
Q 1534 4219 1204 4116 
Q 875 4013 500 3803 
L 500 4441 
Q 881 4594 1212 4672 
Q 1544 4750 1819 4750 
Q 2544 4750 2975 4387 
Q 3406 4025 3406 3419 
Q 3406 3131 3298 2873 
Q 3191 2616 2906 2266 
Q 2828 2175 2409 1742 
Q 1991 1309 1228 531 
z
" transform="scale(0.015625)"/>
       </defs>
       <use xlink:href="#DejaVuSans-30"/>
       <use xlink:href="#DejaVuSans-2e" x="63.623047"/>
       <use xlink:href="#DejaVuSans-32" x="95.410156"/>
       <use xlink:href="#DejaVuSans-30" x="159.033203"/>
      </g>
     </g>
    </g>
    <g id="xtick_5">
     <g id="line2d_5">
      <g>
       <use xlink:href="#m6c8bf79f67" x="326.807873" y="307.584" style="stroke: #000000; stroke-width: 0.8"/>
      </g>
     </g>
     <g id="text_5">
      <!-- 0.25 -->
      <g transform="translate(315.67506 322.182437) scale(0.1 -0.1)">
       <use xlink:href="#DejaVuSans-30"/>
       <use xlink:href="#DejaVuSans-2e" x="63.623047"/>
       <use xlink:href="#DejaVuSans-32" x="95.410156"/>
       <use xlink:href="#DejaVuSans-35" x="159.033203"/>
      </g>
     </g>
    </g>
    <g id="xtick_6">
     <g id="line2d_6">
      <g>
       <use xlink:href="#m6c8bf79f67" x="392.570984" y="307.584" style="stroke: #000000; stroke-width: 0.8"/>
      </g>
     </g>
     <g id="text_6">
      <!-- 0.30 -->
      <g transform="translate(381.438172 322.182437) scale(0.1 -0.1)">
       <defs>
        <path id="DejaVuSans-33" d="M 2597 2516 
Q 3050 2419 3304 2112 
Q 3559 1806 3559 1356 
Q 3559 666 3084 287 
Q 2609 -91 1734 -91 
Q 1441 -91 1130 -33 
Q 819 25 488 141 
L 488 750 
Q 750 597 1062 519 
Q 1375 441 1716 441 
Q 2309 441 2620 675 
Q 2931 909 2931 1356 
Q 2931 1769 2642 2001 
Q 2353 2234 1838 2234 
L 1294 2234 
L 1294 2753 
L 1863 2753 
Q 2328 2753 2575 2939 
Q 2822 3125 2822 3475 
Q 2822 3834 2567 4026 
Q 2313 4219 1838 4219 
Q 1578 4219 1281 4162 
Q 984 4106 628 3988 
L 628 4550 
Q 988 4650 1302 4700 
Q 1616 4750 1894 4750 
Q 2613 4750 3031 4423 
Q 3450 4097 3450 3541 
Q 3450 3153 3228 2886 
Q 3006 2619 2597 2516 
z
" transform="scale(0.015625)"/>
       </defs>
       <use xlink:href="#DejaVuSans-30"/>
       <use xlink:href="#DejaVuSans-2e" x="63.623047"/>
       <use xlink:href="#DejaVuSans-33" x="95.410156"/>
       <use xlink:href="#DejaVuSans-30" x="159.033203"/>
      </g>
     </g>
    </g>
    <g id="text_7">
     <!-- Obesity Rate -->
     <g transform="translate(204.008437 335.860562) scale(0.1 -0.1)">
      <defs>
       <path id="DejaVuSans-4f" d="M 2522 4238 
Q 1834 4238 1429 3725 
Q 1025 3213 1025 2328 
Q 1025 1447 1429 934 
Q 1834 422 2522 422 
Q 3209 422 3611 934 
Q 4013 1447 4013 2328 
Q 4013 3213 3611 3725 
Q 3209 4238 2522 4238 
z
M 2522 4750 
Q 3503 4750 4090 4092 
Q 4678 3434 4678 2328 
Q 4678 1225 4090 567 
Q 3503 -91 2522 -91 
Q 1538 -91 948 565 
Q 359 1222 359 2328 
Q 359 3434 948 4092 
Q 1538 4750 2522 4750 
z
" transform="scale(0.015625)"/>
       <path id="DejaVuSans-62" d="M 3116 1747 
Q 3116 2381 2855 2742 
Q 2594 3103 2138 3103 
Q 1681 3103 1420 2742 
Q 1159 2381 1159 1747 
Q 1159 1113 1420 752 
Q 1681 391 2138 391 
Q 2594 391 2855 752 
Q 3116 1113 3116 1747 
z
M 1159 2969 
Q 1341 3281 1617 3432 
Q 1894 3584 2278 3584 
Q 2916 3584 3314 3078 
Q 3713 2572 3713 1747 
Q 3713 922 3314 415 
Q 2916 -91 2278 -91 
Q 1894 -91 1617 61 
Q 1341 213 1159 525 
L 1159 0 
L 581 0 
L 581 4863 
L 1159 4863 
L 1159 2969 
z
" transform="scale(0.015625)"/>
       <path id="DejaVuSans-65" d="M 3597 1894 
L 3597 1613 
L 953 1613 
Q 991 1019 1311 708 
Q 1631 397 2203 397 
Q 2534 397 2845 478 
Q 3156 559 3463 722 
L 3463 178 
Q 3153 47 2828 -22 
Q 2503 -91 2169 -91 
Q 1331 -91 842 396 
Q 353 884 353 1716 
Q 353 2575 817 3079 
Q 1281 3584 2069 3584 
Q 2775 3584 3186 3129 
Q 3597 2675 3597 1894 
z
M 3022 2063 
Q 3016 2534 2758 2815 
Q 2500 3097 2075 3097 
Q 1594 3097 1305 2825 
Q 1016 2553 972 2059 
L 3022 2063 
z
" transform="scale(0.015625)"/>
       <path id="DejaVuSans-73" d="M 2834 3397 
L 2834 2853 
Q 2591 2978 2328 3040 
Q 2066 3103 1784 3103 
Q 1356 3103 1142 2972 
Q 928 2841 928 2578 
Q 928 2378 1081 2264 
Q 1234 2150 1697 2047 
L 1894 2003 
Q 2506 1872 2764 1633 
Q 3022 1394 3022 966 
Q 3022 478 2636 193 
Q 2250 -91 1575 -91 
Q 1294 -91 989 -36 
Q 684 19 347 128 
L 347 722 
Q 666 556 975 473 
Q 1284 391 1588 391 
Q 1994 391 2212 530 
Q 2431 669 2431 922 
Q 2431 1156 2273 1281 
Q 2116 1406 1581 1522 
L 1381 1569 
Q 847 1681 609 1914 
Q 372 2147 372 2553 
Q 372 3047 722 3315 
Q 1072 3584 1716 3584 
Q 2034 3584 2315 3537 
Q 2597 3491 2834 3397 
z
" transform="scale(0.015625)"/>
       <path id="DejaVuSans-69" d="M 603 3500 
L 1178 3500 
L 1178 0 
L 603 0 
L 603 3500 
z
M 603 4863 
L 1178 4863 
L 1178 4134 
L 603 4134 
L 603 4863 
z
" transform="scale(0.015625)"/>
       <path id="DejaVuSans-74" d="M 1172 4494 
L 1172 3500 
L 2356 3500 
L 2356 3053 
L 1172 3053 
L 1172 1153 
Q 1172 725 1289 603 
Q 1406 481 1766 481 
L 2356 481 
L 2356 0 
L 1766 0 
Q 1100 0 847 248 
Q 594 497 594 1153 
L 594 3053 
L 172 3053 
L 172 3500 
L 594 3500 
L 594 4494 
L 1172 4494 
z
" transform="scale(0.015625)"/>
       <path id="DejaVuSans-79" d="M 2059 -325 
Q 1816 -950 1584 -1140 
Q 1353 -1331 966 -1331 
L 506 -1331 
L 506 -850 
L 844 -850 
Q 1081 -850 1212 -737 
Q 1344 -625 1503 -206 
L 1606 56 
L 191 3500 
L 800 3500 
L 1894 763 
L 2988 3500 
L 3597 3500 
L 2059 -325 
z
" transform="scale(0.015625)"/>
       <path id="DejaVuSans-20" transform="scale(0.015625)"/>
       <path id="DejaVuSans-52" d="M 2841 2188 
Q 3044 2119 3236 1894 
Q 3428 1669 3622 1275 
L 4263 0 
L 3584 0 
L 2988 1197 
Q 2756 1666 2539 1819 
Q 2322 1972 1947 1972 
L 1259 1972 
L 1259 0 
L 628 0 
L 628 4666 
L 2053 4666 
Q 2853 4666 3247 4331 
Q 3641 3997 3641 3322 
Q 3641 2881 3436 2590 
Q 3231 2300 2841 2188 
z
M 1259 4147 
L 1259 2491 
L 2053 2491 
Q 2509 2491 2742 2702 
Q 2975 2913 2975 3322 
Q 2975 3731 2742 3939 
Q 2509 4147 2053 4147 
L 1259 4147 
z
" transform="scale(0.015625)"/>
       <path id="DejaVuSans-61" d="M 2194 1759 
Q 1497 1759 1228 1600 
Q 959 1441 959 1056 
Q 959 750 1161 570 
Q 1363 391 1709 391 
Q 2188 391 2477 730 
Q 2766 1069 2766 1631 
L 2766 1759 
L 2194 1759 
z
M 3341 1997 
L 3341 0 
L 2766 0 
L 2766 531 
Q 2569 213 2275 61 
Q 1981 -91 1556 -91 
Q 1019 -91 701 211 
Q 384 513 384 1019 
Q 384 1609 779 1909 
Q 1175 2209 1959 2209 
L 2766 2209 
L 2766 2266 
Q 2766 2663 2505 2880 
Q 2244 3097 1772 3097 
Q 1472 3097 1187 3025 
Q 903 2953 641 2809 
L 641 3341 
Q 956 3463 1253 3523 
Q 1550 3584 1831 3584 
Q 2591 3584 2966 3190 
Q 3341 2797 3341 1997 
z
" transform="scale(0.015625)"/>
      </defs>
      <use xlink:href="#DejaVuSans-4f"/>
      <use xlink:href="#DejaVuSans-62" x="78.710938"/>
      <use xlink:href="#DejaVuSans-65" x="142.1875"/>
      <use xlink:href="#DejaVuSans-73" x="203.710938"/>
      <use xlink:href="#DejaVuSans-69" x="255.810547"/>
      <use xlink:href="#DejaVuSans-74" x="283.59375"/>
      <use xlink:href="#DejaVuSans-79" x="322.802734"/>
      <use xlink:href="#DejaVuSans-20" x="381.982422"/>
      <use xlink:href="#DejaVuSans-52" x="413.769531"/>
      <use xlink:href="#DejaVuSans-61" x="481.001953"/>
      <use xlink:href="#DejaVuSans-74" x="542.28125"/>
      <use xlink:href="#DejaVuSans-65" x="581.490234"/>
     </g>
    </g>
   </g>
   <g id="matplotlib.axis_2">
    <g id="ytick_1">
     <g id="line2d_7">
      <defs>
       <path id="ma9e054c640" d="M 0 0 
L -3.5 0 
" style="stroke: #000000; stroke-width: 0.8"/>
      </defs>
      <g>
       <use xlink:href="#ma9e054c640" x="57.6" y="291.531474" style="stroke: #000000; stroke-width: 0.8"/>
      </g>
     </g>
     <g id="text_8">
      <!-- 62.5 -->
      <g transform="translate(28.334375 295.330693) scale(0.1 -0.1)">
       <defs>
        <path id="DejaVuSans-36" d="M 2113 2584 
Q 1688 2584 1439 2293 
Q 1191 2003 1191 1497 
Q 1191 994 1439 701 
Q 1688 409 2113 409 
Q 2538 409 2786 701 
Q 3034 994 3034 1497 
Q 3034 2003 2786 2293 
Q 2538 2584 2113 2584 
z
M 3366 4563 
L 3366 3988 
Q 3128 4100 2886 4159 
Q 2644 4219 2406 4219 
Q 1781 4219 1451 3797 
Q 1122 3375 1075 2522 
Q 1259 2794 1537 2939 
Q 1816 3084 2150 3084 
Q 2853 3084 3261 2657 
Q 3669 2231 3669 1497 
Q 3669 778 3244 343 
Q 2819 -91 2113 -91 
Q 1303 -91 875 529 
Q 447 1150 447 2328 
Q 447 3434 972 4092 
Q 1497 4750 2381 4750 
Q 2619 4750 2861 4703 
Q 3103 4656 3366 4563 
z
" transform="scale(0.015625)"/>
       </defs>
       <use xlink:href="#DejaVuSans-36"/>
       <use xlink:href="#DejaVuSans-32" x="63.623047"/>
       <use xlink:href="#DejaVuSans-2e" x="127.246094"/>
       <use xlink:href="#DejaVuSans-35" x="159.033203"/>
      </g>
     </g>
    </g>
    <g id="ytick_2">
     <g id="line2d_8">
      <g>
       <use xlink:href="#ma9e054c640" x="57.6" y="260.460466" style="stroke: #000000; stroke-width: 0.8"/>
      </g>
     </g>
     <g id="text_9">
      <!-- 65.0 -->
      <g transform="translate(28.334375 264.259685) scale(0.1 -0.1)">
       <use xlink:href="#DejaVuSans-36"/>
       <use xlink:href="#DejaVuSans-35" x="63.623047"/>
       <use xlink:href="#DejaVuSans-2e" x="127.246094"/>
       <use xlink:href="#DejaVuSans-30" x="159.033203"/>
      </g>
     </g>
    </g>
    <g id="ytick_3">
     <g id="line2d_9">
      <g>
       <use xlink:href="#ma9e054c640" x="57.6" y="229.389458" style="stroke: #000000; stroke-width: 0.8"/>
      </g>
     </g>
     <g id="text_10">
      <!-- 67.5 -->
      <g transform="translate(28.334375 233.188677) scale(0.1 -0.1)">
       <defs>
        <path id="DejaVuSans-37" d="M 525 4666 
L 3525 4666 
L 3525 4397 
L 1831 0 
L 1172 0 
L 2766 4134 
L 525 4134 
L 525 4666 
z
" transform="scale(0.015625)"/>
       </defs>
       <use xlink:href="#DejaVuSans-36"/>
       <use xlink:href="#DejaVuSans-37" x="63.623047"/>
       <use xlink:href="#DejaVuSans-2e" x="127.246094"/>
       <use xlink:href="#DejaVuSans-35" x="159.033203"/>
      </g>
     </g>
    </g>
    <g id="ytick_4">
     <g id="line2d_10">
      <g>
       <use xlink:href="#ma9e054c640" x="57.6" y="198.31845" style="stroke: #000000; stroke-width: 0.8"/>
      </g>
     </g>
     <g id="text_11">
      <!-- 70.0 -->
      <g transform="translate(28.334375 202.117668) scale(0.1 -0.1)">
       <use xlink:href="#DejaVuSans-37"/>
       <use xlink:href="#DejaVuSans-30" x="63.623047"/>
       <use xlink:href="#DejaVuSans-2e" x="127.246094"/>
       <use xlink:href="#DejaVuSans-30" x="159.033203"/>
      </g>
     </g>
    </g>
    <g id="ytick_5">
     <g id="line2d_11">
      <g>
       <use xlink:href="#ma9e054c640" x="57.6" y="167.247441" style="stroke: #000000; stroke-width: 0.8"/>
      </g>
     </g>
     <g id="text_12">
      <!-- 72.5 -->
      <g transform="translate(28.334375 171.04666) scale(0.1 -0.1)">
       <use xlink:href="#DejaVuSans-37"/>
       <use xlink:href="#DejaVuSans-32" x="63.623047"/>
       <use xlink:href="#DejaVuSans-2e" x="127.246094"/>
       <use xlink:href="#DejaVuSans-35" x="159.033203"/>
      </g>
     </g>
    </g>
    <g id="ytick_6">
     <g id="line2d_12">
      <g>
       <use xlink:href="#ma9e054c640" x="57.6" y="136.176433" style="stroke: #000000; stroke-width: 0.8"/>
      </g>
     </g>
     <g id="text_13">
      <!-- 75.0 -->
      <g transform="translate(28.334375 139.975652) scale(0.1 -0.1)">
       <use xlink:href="#DejaVuSans-37"/>
       <use xlink:href="#DejaVuSans-35" x="63.623047"/>
       <use xlink:href="#DejaVuSans-2e" x="127.246094"/>
       <use xlink:href="#DejaVuSans-30" x="159.033203"/>
      </g>
     </g>
    </g>
    <g id="ytick_7">
     <g id="line2d_13">
      <g>
       <use xlink:href="#ma9e054c640" x="57.6" y="105.105425" style="stroke: #000000; stroke-width: 0.8"/>
      </g>
     </g>
     <g id="text_14">
      <!-- 77.5 -->
      <g transform="translate(28.334375 108.904644) scale(0.1 -0.1)">
       <use xlink:href="#DejaVuSans-37"/>
       <use xlink:href="#DejaVuSans-37" x="63.623047"/>
       <use xlink:href="#DejaVuSans-2e" x="127.246094"/>
       <use xlink:href="#DejaVuSans-35" x="159.033203"/>
      </g>
     </g>
    </g>
    <g id="ytick_8">
     <g id="line2d_14">
      <g>
       <use xlink:href="#ma9e054c640" x="57.6" y="74.034417" style="stroke: #000000; stroke-width: 0.8"/>
      </g>
     </g>
     <g id="text_15">
      <!-- 80.0 -->
      <g transform="translate(28.334375 77.833635) scale(0.1 -0.1)">
       <defs>
        <path id="DejaVuSans-38" d="M 2034 2216 
Q 1584 2216 1326 1975 
Q 1069 1734 1069 1313 
Q 1069 891 1326 650 
Q 1584 409 2034 409 
Q 2484 409 2743 651 
Q 3003 894 3003 1313 
Q 3003 1734 2745 1975 
Q 2488 2216 2034 2216 
z
M 1403 2484 
Q 997 2584 770 2862 
Q 544 3141 544 3541 
Q 544 4100 942 4425 
Q 1341 4750 2034 4750 
Q 2731 4750 3128 4425 
Q 3525 4100 3525 3541 
Q 3525 3141 3298 2862 
Q 3072 2584 2669 2484 
Q 3125 2378 3379 2068 
Q 3634 1759 3634 1313 
Q 3634 634 3220 271 
Q 2806 -91 2034 -91 
Q 1263 -91 848 271 
Q 434 634 434 1313 
Q 434 1759 690 2068 
Q 947 2378 1403 2484 
z
M 1172 3481 
Q 1172 3119 1398 2916 
Q 1625 2713 2034 2713 
Q 2441 2713 2670 2916 
Q 2900 3119 2900 3481 
Q 2900 3844 2670 4047 
Q 2441 4250 2034 4250 
Q 1625 4250 1398 4047 
Q 1172 3844 1172 3481 
z
" transform="scale(0.015625)"/>
       </defs>
       <use xlink:href="#DejaVuSans-38"/>
       <use xlink:href="#DejaVuSans-30" x="63.623047"/>
       <use xlink:href="#DejaVuSans-2e" x="127.246094"/>
       <use xlink:href="#DejaVuSans-30" x="159.033203"/>
      </g>
     </g>
    </g>
    <g id="ytick_9">
     <g id="line2d_15">
      <g>
       <use xlink:href="#ma9e054c640" x="57.6" y="42.963408" style="stroke: #000000; stroke-width: 0.8"/>
      </g>
     </g>
     <g id="text_16">
      <!-- 82.5 -->
      <g transform="translate(28.334375 46.762627) scale(0.1 -0.1)">
       <use xlink:href="#DejaVuSans-38"/>
       <use xlink:href="#DejaVuSans-32" x="63.623047"/>
       <use xlink:href="#DejaVuSans-2e" x="127.246094"/>
       <use xlink:href="#DejaVuSans-35" x="159.033203"/>
      </g>
     </g>
    </g>
    <g id="text_17">
     <!-- Life Expectancy -->
     <g transform="translate(22.254687 214.149094) rotate(-90) scale(0.1 -0.1)">
      <defs>
       <path id="DejaVuSans-4c" d="M 628 4666 
L 1259 4666 
L 1259 531 
L 3531 531 
L 3531 0 
L 628 0 
L 628 4666 
z
" transform="scale(0.015625)"/>
       <path id="DejaVuSans-66" d="M 2375 4863 
L 2375 4384 
L 1825 4384 
Q 1516 4384 1395 4259 
Q 1275 4134 1275 3809 
L 1275 3500 
L 2222 3500 
L 2222 3053 
L 1275 3053 
L 1275 0 
L 697 0 
L 697 3053 
L 147 3053 
L 147 3500 
L 697 3500 
L 697 3744 
Q 697 4328 969 4595 
Q 1241 4863 1831 4863 
L 2375 4863 
z
" transform="scale(0.015625)"/>
       <path id="DejaVuSans-45" d="M 628 4666 
L 3578 4666 
L 3578 4134 
L 1259 4134 
L 1259 2753 
L 3481 2753 
L 3481 2222 
L 1259 2222 
L 1259 531 
L 3634 531 
L 3634 0 
L 628 0 
L 628 4666 
z
" transform="scale(0.015625)"/>
       <path id="DejaVuSans-78" d="M 3513 3500 
L 2247 1797 
L 3578 0 
L 2900 0 
L 1881 1375 
L 863 0 
L 184 0 
L 1544 1831 
L 300 3500 
L 978 3500 
L 1906 2253 
L 2834 3500 
L 3513 3500 
z
" transform="scale(0.015625)"/>
       <path id="DejaVuSans-70" d="M 1159 525 
L 1159 -1331 
L 581 -1331 
L 581 3500 
L 1159 3500 
L 1159 2969 
Q 1341 3281 1617 3432 
Q 1894 3584 2278 3584 
Q 2916 3584 3314 3078 
Q 3713 2572 3713 1747 
Q 3713 922 3314 415 
Q 2916 -91 2278 -91 
Q 1894 -91 1617 61 
Q 1341 213 1159 525 
z
M 3116 1747 
Q 3116 2381 2855 2742 
Q 2594 3103 2138 3103 
Q 1681 3103 1420 2742 
Q 1159 2381 1159 1747 
Q 1159 1113 1420 752 
Q 1681 391 2138 391 
Q 2594 391 2855 752 
Q 3116 1113 3116 1747 
z
" transform="scale(0.015625)"/>
       <path id="DejaVuSans-63" d="M 3122 3366 
L 3122 2828 
Q 2878 2963 2633 3030 
Q 2388 3097 2138 3097 
Q 1578 3097 1268 2742 
Q 959 2388 959 1747 
Q 959 1106 1268 751 
Q 1578 397 2138 397 
Q 2388 397 2633 464 
Q 2878 531 3122 666 
L 3122 134 
Q 2881 22 2623 -34 
Q 2366 -91 2075 -91 
Q 1284 -91 818 406 
Q 353 903 353 1747 
Q 353 2603 823 3093 
Q 1294 3584 2113 3584 
Q 2378 3584 2631 3529 
Q 2884 3475 3122 3366 
z
" transform="scale(0.015625)"/>
       <path id="DejaVuSans-6e" d="M 3513 2113 
L 3513 0 
L 2938 0 
L 2938 2094 
Q 2938 2591 2744 2837 
Q 2550 3084 2163 3084 
Q 1697 3084 1428 2787 
Q 1159 2491 1159 1978 
L 1159 0 
L 581 0 
L 581 3500 
L 1159 3500 
L 1159 2956 
Q 1366 3272 1645 3428 
Q 1925 3584 2291 3584 
Q 2894 3584 3203 3211 
Q 3513 2838 3513 2113 
z
" transform="scale(0.015625)"/>
      </defs>
      <use xlink:href="#DejaVuSans-4c"/>
      <use xlink:href="#DejaVuSans-69" x="55.712891"/>
      <use xlink:href="#DejaVuSans-66" x="83.496094"/>
      <use xlink:href="#DejaVuSans-65" x="118.701172"/>
      <use xlink:href="#DejaVuSans-20" x="180.224609"/>
      <use xlink:href="#DejaVuSans-45" x="212.011719"/>
      <use xlink:href="#DejaVuSans-78" x="275.195312"/>
      <use xlink:href="#DejaVuSans-70" x="334.375"/>
      <use xlink:href="#DejaVuSans-65" x="397.851562"/>
      <use xlink:href="#DejaVuSans-63" x="459.375"/>
      <use xlink:href="#DejaVuSans-74" x="514.355469"/>
      <use xlink:href="#DejaVuSans-61" x="553.564453"/>
      <use xlink:href="#DejaVuSans-6e" x="614.84375"/>
      <use xlink:href="#DejaVuSans-63" x="678.222656"/>
      <use xlink:href="#DejaVuSans-79" x="733.203125"/>
     </g>
    </g>
   </g>
   <g id="PathCollection_8"/>
   <g id="PathCollection_9">
    <path d="M 57.6 210.705772 
L 61.207273 210.705772 
L 64.814545 210.705772 
L 68.421818 210.705772 
L 72.029091 210.705772 
L 75.636364 210.705772 
L 79.243636 210.705772 
L 82.850909 210.705772 
L 86.458182 210.705772 
L 90.065455 210.705772 
L 93.672727 210.705772 
L 97.28 210.705772 
L 100.887273 210.705772 
L 104.494545 210.705772 
L 108.101818 210.705772 
L 108.183182 210.705772 
" clip-path="url(#pf82cb6ff23)" style="fill: none; stroke: #000000; stroke-width: 0.5"/>
    <path d="M 144.093182 210.705772 
L 144.174545 210.705772 
L 147.781818 210.705772 
L 151.389091 210.705772 
L 154.996364 210.705772 
L 158.603636 210.705772 
L 162.210909 210.705772 
L 165.818182 210.705772 
L 169.425455 210.705772 
L 173.032727 210.705772 
L 176.64 210.705772 
L 180.247273 210.705772 
L 183.854545 210.705772 
L 187.461818 210.705772 
L 191.069091 210.705772 
L 194.676364 210.705772 
L 198.283636 210.705772 
L 201.890909 210.705772 
L 205.498182 210.705772 
L 209.105455 210.705772 
L 212.712727 210.705772 
L 216.32 210.705772 
L 219.927273 210.705772 
L 223.534545 210.705772 
L 227.141818 210.705772 
L 230.749091 210.705772 
L 234.356364 210.705772 
L 237.963636 210.705772 
L 241.570909 210.705772 
L 245.178182 210.705772 
L 248.785455 210.705772 
L 252.392727 210.705772 
L 256 210.705772 
L 259.607273 210.705772 
L 263.214545 210.705772 
L 266.821818 210.705772 
L 270.429091 210.705772 
L 274.036364 210.705772 
L 277.643636 210.705772 
L 281.250909 210.705772 
L 284.858182 210.705772 
L 288.465455 210.705772 
L 292.072727 210.705772 
L 295.68 210.705772 
L 299.287273 210.705772 
L 302.894545 210.705772 
L 306.501818 210.705772 
L 310.109091 210.705772 
L 313.716364 210.705772 
L 317.323636 210.705772 
L 320.930909 210.705772 
L 324.538182 210.705772 
L 328.145455 210.705772 
L 331.752727 210.705772 
L 335.36 210.705772 
L 338.967273 210.705772 
L 342.574545 210.705772 
L 346.181818 210.705772 
L 349.789091 210.705772 
L 353.396364 210.705772 
L 357.003636 210.705772 
L 360.610909 210.705772 
L 364.218182 210.705772 
L 367.825455 210.705772 
L 371.432727 210.705772 
L 375.04 210.705772 
L 378.647273 210.705772 
L 382.254545 210.705772 
L 385.861818 210.705772 
L 389.469091 210.705772 
L 393.076364 210.705772 
L 396.683636 210.705772 
L 400.290909 210.705772 
L 403.898182 210.705772 
L 407.505455 210.705772 
L 411.112727 210.705772 
L 414.72 210.705772 
" clip-path="url(#pf82cb6ff23)" style="fill: none; stroke: #000000; stroke-width: 0.5"/>
   </g>
   <g id="PathCollection_10">
    <path d="M 57.6 204.730078 
L 61.207273 204.730078 
L 64.814545 204.730078 
L 68.421818 204.730078 
L 72.029091 204.730078 
L 75.636364 204.730078 
L 79.243636 204.730078 
L 82.850909 204.730078 
L 86.458182 204.730078 
L 90.065455 204.730078 
L 93.672727 204.730078 
L 97.28 204.730078 
L 100.887273 204.730078 
L 104.494545 204.730078 
L 108.101818 204.730078 
L 111.709091 204.730078 
L 115.316364 204.730078 
L 118.923636 204.730078 
L 122.530909 204.730078 
L 126.138182 204.730078 
L 129.745455 204.730078 
L 133.352727 204.730078 
L 136.96 204.730078 
L 140.567273 204.730078 
L 144.174545 204.730078 
L 147.781818 204.730078 
L 151.389091 204.730078 
L 154.996364 204.730078 
L 158.603636 204.730078 
L 162.210909 204.730078 
L 165.818182 204.730078 
L 169.425455 204.730078 
L 173.032727 204.730078 
L 176.64 204.730078 
L 180.247273 204.730078 
L 183.854545 204.730078 
L 187.461818 204.730078 
L 191.069091 204.730078 
L 194.676364 204.730078 
L 198.283636 204.730078 
L 201.890909 204.730078 
L 205.498182 204.730078 
L 209.105455 204.730078 
L 212.712727 204.730078 
L 216.32 204.730078 
L 219.927273 204.730078 
L 223.534545 204.730078 
L 227.141818 204.730078 
L 230.749091 204.730078 
L 234.356364 204.730078 
L 237.963636 204.730078 
L 241.570909 204.730078 
L 245.178182 204.730078 
L 248.785455 204.730078 
L 248.866818 204.730078 
" clip-path="url(#pf82cb6ff23)" style="fill: none; stroke: #000000; stroke-width: 0.5"/>
    <path d="M 284.776818 204.730078 
L 284.858182 204.730078 
L 288.465455 204.730078 
L 292.072727 204.730078 
L 295.68 204.730078 
L 299.287273 204.730078 
L 302.894545 204.730078 
L 306.501818 204.730078 
L 310.109091 204.730078 
L 313.716364 204.730078 
L 317.323636 204.730078 
L 320.930909 204.730078 
L 324.538182 204.730078 
L 328.145455 204.730078 
L 331.752727 204.730078 
L 335.36 204.730078 
L 338.967273 204.730078 
L 342.574545 204.730078 
L 346.181818 204.730078 
L 349.789091 204.730078 
L 353.396364 204.730078 
L 357.003636 204.730078 
L 360.610909 204.730078 
L 364.218182 204.730078 
L 367.825455 204.730078 
L 371.432727 204.730078 
L 375.04 204.730078 
L 378.647273 204.730078 
L 382.254545 204.730078 
L 385.861818 204.730078 
L 389.469091 204.730078 
L 393.076364 204.730078 
L 396.683636 204.730078 
L 400.290909 204.730078 
L 403.898182 204.730078 
L 407.505455 204.730078 
L 411.112727 204.730078 
L 414.72 204.730078 
" clip-path="url(#pf82cb6ff23)" style="fill: none; stroke: #000000; stroke-width: 0.5"/>
   </g>
   <g id="PathCollection_11">
    <path d="M 57.6 121.580941 
L 61.207273 121.580941 
L 64.814545 121.580941 
L 68.421818 121.580941 
L 72.029091 121.580941 
L 75.636364 121.580941 
L 79.243636 121.580941 
L 82.850909 121.580941 
L 86.458182 121.580941 
L 90.065455 121.580941 
L 93.672727 121.580941 
L 97.28 121.580941 
L 100.887273 121.580941 
L 104.494545 121.580941 
L 108.101818 121.580941 
L 108.183182 121.580941 
" clip-path="url(#pf82cb6ff23)" style="fill: none; stroke: #000000; stroke-width: 0.5"/>
    <path d="M 144.093182 121.580941 
L 144.174545 121.580941 
L 147.781818 121.580941 
L 151.389091 121.580941 
L 154.996364 121.580941 
L 158.603636 121.580941 
L 162.210909 121.580941 
L 165.818182 121.580941 
L 169.425455 121.580941 
L 173.032727 121.580941 
L 176.64 121.580941 
L 180.247273 121.580941 
L 183.854545 121.580941 
L 187.461818 121.580941 
L 191.069091 121.580941 
L 194.676364 121.580941 
L 198.283636 121.580941 
L 201.890909 121.580941 
L 205.498182 121.580941 
L 209.105455 121.580941 
L 212.712727 121.580941 
L 216.32 121.580941 
L 219.927273 121.580941 
L 223.534545 121.580941 
L 227.141818 121.580941 
L 230.749091 121.580941 
L 234.356364 121.580941 
L 237.963636 121.580941 
L 241.570909 121.580941 
L 245.178182 121.580941 
L 248.785455 121.580941 
L 252.392727 121.580941 
L 256 121.580941 
L 259.607273 121.580941 
L 263.214545 121.580941 
L 266.821818 121.580941 
L 270.429091 121.580941 
L 274.036364 121.580941 
L 277.643636 121.580941 
L 281.250909 121.580941 
L 284.858182 121.580941 
L 288.465455 121.580941 
L 292.072727 121.580941 
L 295.68 121.580941 
L 299.287273 121.580941 
L 302.894545 121.580941 
L 306.501818 121.580941 
L 310.109091 121.580941 
L 313.716364 121.580941 
L 317.323636 121.580941 
L 320.930909 121.580941 
L 324.538182 121.580941 
L 328.145455 121.580941 
L 331.752727 121.580941 
L 335.36 121.580941 
L 338.967273 121.580941 
L 342.574545 121.580941 
L 346.181818 121.580941 
L 349.789091 121.580941 
L 353.396364 121.580941 
L 357.003636 121.580941 
L 360.610909 121.580941 
L 364.218182 121.580941 
L 367.825455 121.580941 
L 371.432727 121.580941 
L 375.04 121.580941 
L 378.647273 121.580941 
L 382.254545 121.580941 
L 385.861818 121.580941 
L 389.469091 121.580941 
L 393.076364 121.580941 
L 396.683636 121.580941 
L 400.290909 121.580941 
L 403.898182 121.580941 
L 407.505455 121.580941 
L 411.112727 121.580941 
L 414.72 121.580941 
" clip-path="url(#pf82cb6ff23)" style="fill: none; stroke: #000000; stroke-width: 0.5"/>
   </g>
   <g id="PathCollection_12">
    <path d="M 57.6 120.025968 
L 61.207273 120.025968 
L 64.814545 120.025968 
L 68.421818 120.025968 
L 72.029091 120.025968 
L 75.636364 120.025968 
L 79.243636 120.025968 
L 82.850909 120.025968 
L 86.458182 120.025968 
L 90.065455 120.025968 
L 93.672727 120.025968 
L 97.28 120.025968 
L 100.887273 120.025968 
L 104.494545 120.025968 
L 108.101818 120.025968 
L 111.709091 120.025968 
L 115.316364 120.025968 
L 118.923636 120.025968 
L 122.530909 120.025968 
L 126.138182 120.025968 
L 129.745455 120.025968 
L 133.352727 120.025968 
L 136.96 120.025968 
L 140.567273 120.025968 
L 144.174545 120.025968 
L 147.781818 120.025968 
L 151.389091 120.025968 
L 154.996364 120.025968 
L 158.603636 120.025968 
L 162.210909 120.025968 
L 165.818182 120.025968 
L 169.425455 120.025968 
L 173.032727 120.025968 
L 176.64 120.025968 
L 180.247273 120.025968 
L 183.854545 120.025968 
L 187.461818 120.025968 
L 191.069091 120.025968 
L 194.676364 120.025968 
L 198.283636 120.025968 
L 201.890909 120.025968 
L 205.498182 120.025968 
L 209.105455 120.025968 
L 212.712727 120.025968 
L 216.32 120.025968 
L 219.927273 120.025968 
L 223.534545 120.025968 
L 227.141818 120.025968 
L 230.749091 120.025968 
L 234.356364 120.025968 
L 237.963636 120.025968 
L 241.570909 120.025968 
L 245.178182 120.025968 
L 248.785455 120.025968 
L 248.866818 120.025968 
" clip-path="url(#pf82cb6ff23)" style="fill: none; stroke: #000000; stroke-width: 0.5"/>
    <path d="M 284.776818 120.025968 
L 284.858182 120.025968 
L 288.465455 120.025968 
L 292.072727 120.025968 
L 295.68 120.025968 
L 299.287273 120.025968 
L 302.894545 120.025968 
L 306.501818 120.025968 
L 310.109091 120.025968 
L 313.716364 120.025968 
L 317.323636 120.025968 
L 320.930909 120.025968 
L 324.538182 120.025968 
L 328.145455 120.025968 
L 331.752727 120.025968 
L 335.36 120.025968 
L 338.967273 120.025968 
L 342.574545 120.025968 
L 346.181818 120.025968 
L 349.789091 120.025968 
L 353.396364 120.025968 
L 357.003636 120.025968 
L 360.610909 120.025968 
L 364.218182 120.025968 
L 367.825455 120.025968 
L 371.432727 120.025968 
L 375.04 120.025968 
L 378.647273 120.025968 
L 382.254545 120.025968 
L 385.861818 120.025968 
L 389.469091 120.025968 
L 393.076364 120.025968 
L 396.683636 120.025968 
L 400.290909 120.025968 
L 403.898182 120.025968 
L 407.505455 120.025968 
L 411.112727 120.025968 
L 414.72 120.025968 
" clip-path="url(#pf82cb6ff23)" style="fill: none; stroke: #000000; stroke-width: 0.5"/>
   </g>
   <g id="PathCollection_13">
    <path d="M 57.6 98.946192 
L 61.207273 98.946192 
L 64.814545 98.946192 
L 68.421818 98.946192 
L 72.029091 98.946192 
L 75.636364 98.946192 
L 79.243636 98.946192 
L 82.850909 98.946192 
L 86.458182 98.946192 
L 90.065455 98.946192 
L 93.672727 98.946192 
L 97.28 98.946192 
L 100.887273 98.946192 
L 104.494545 98.946192 
L 108.101818 98.946192 
L 111.709091 98.946192 
L 115.316364 98.946192 
L 118.923636 98.946192 
L 122.530909 98.946192 
L 126.138182 98.946192 
L 129.745455 98.946192 
L 133.352727 98.946192 
L 136.96 98.946192 
L 140.567273 98.946192 
L 144.174545 98.946192 
L 147.781818 98.946192 
L 151.389091 98.946192 
L 154.996364 98.946192 
L 158.603636 98.946192 
L 162.210909 98.946192 
L 165.818182 98.946192 
L 169.425455 98.946192 
L 173.032727 98.946192 
L 176.64 98.946192 
L 180.247273 98.946192 
L 183.854545 98.946192 
L 187.461818 98.946192 
L 191.069091 98.946192 
L 194.676364 98.946192 
L 198.283636 98.946192 
L 201.890909 98.946192 
L 205.498182 98.946192 
L 209.105455 98.946192 
L 212.712727 98.946192 
L 216.32 98.946192 
L 219.927273 98.946192 
L 223.534545 98.946192 
L 227.141818 98.946192 
L 230.749091 98.946192 
L 234.356364 98.946192 
L 237.963636 98.946192 
L 241.570909 98.946192 
L 245.178182 98.946192 
L 248.785455 98.946192 
L 252.392727 98.946192 
L 256 98.946192 
L 259.607273 98.946192 
L 263.214545 98.946192 
L 266.821818 98.946192 
L 270.429091 98.946192 
L 274.036364 98.946192 
L 277.643636 98.946192 
L 281.250909 98.946192 
L 284.858182 98.946192 
L 288.465455 98.946192 
L 292.072727 98.946192 
L 295.68 98.946192 
L 299.287273 98.946192 
L 302.894545 98.946192 
L 306.501818 98.946192 
L 310.109091 98.946192 
L 313.716364 98.946192 
L 317.323636 98.946192 
L 320.930909 98.946192 
L 324.538182 98.946192 
L 328.145455 98.946192 
L 331.752727 98.946192 
L 335.36 98.946192 
L 338.967273 98.946192 
L 342.574545 98.946192 
L 346.181818 98.946192 
L 349.789091 98.946192 
L 353.396364 98.946192 
L 357.003636 98.946192 
L 360.610909 98.946192 
L 364.218182 98.946192 
L 367.825455 98.946192 
L 371.432727 98.946192 
L 375.04 98.946192 
L 378.647273 98.946192 
L 382.254545 98.946192 
L 385.861818 98.946192 
L 389.469091 98.946192 
L 389.550455 98.946192 
" clip-path="url(#pf82cb6ff23)" style="fill: none; stroke: #000000; stroke-width: 0.5"/>
   </g>
   <g id="PathCollection_14">
    <path d="M 57.6 96.218766 
L 61.207273 96.218766 
L 64.814545 96.218766 
L 68.421818 96.218766 
L 72.029091 96.218766 
L 75.636364 96.218766 
L 79.243636 96.218766 
L 82.850909 96.218766 
L 86.458182 96.218766 
L 90.065455 96.218766 
L 93.672727 96.218766 
L 97.28 96.218766 
L 100.887273 96.218766 
L 104.494545 96.218766 
L 108.101818 96.218766 
L 108.183182 96.218766 
" clip-path="url(#pf82cb6ff23)" style="fill: none; stroke: #000000; stroke-width: 0.5"/>
    <path d="M 144.093182 96.218766 
L 144.174545 96.218766 
L 147.781818 96.218766 
L 151.389091 96.218766 
L 154.996364 96.218766 
L 158.603636 96.218766 
L 162.210909 96.218766 
L 165.818182 96.218766 
L 169.425455 96.218766 
L 173.032727 96.218766 
L 176.64 96.218766 
L 180.247273 96.218766 
L 183.854545 96.218766 
L 187.461818 96.218766 
L 191.069091 96.218766 
L 194.676364 96.218766 
L 198.283636 96.218766 
L 201.890909 96.218766 
L 205.498182 96.218766 
L 209.105455 96.218766 
L 212.712727 96.218766 
L 216.32 96.218766 
L 219.927273 96.218766 
L 223.534545 96.218766 
L 227.141818 96.218766 
L 230.749091 96.218766 
L 234.356364 96.218766 
L 237.963636 96.218766 
L 241.570909 96.218766 
L 245.178182 96.218766 
L 248.785455 96.218766 
L 252.392727 96.218766 
L 256 96.218766 
L 259.607273 96.218766 
L 263.214545 96.218766 
L 266.821818 96.218766 
L 270.429091 96.218766 
L 274.036364 96.218766 
L 277.643636 96.218766 
L 281.250909 96.218766 
L 284.858182 96.218766 
L 288.465455 96.218766 
L 292.072727 96.218766 
L 295.68 96.218766 
L 299.287273 96.218766 
L 302.894545 96.218766 
L 306.501818 96.218766 
L 310.109091 96.218766 
L 313.716364 96.218766 
L 317.323636 96.218766 
L 320.930909 96.218766 
L 324.538182 96.218766 
L 328.145455 96.218766 
L 331.752727 96.218766 
L 335.36 96.218766 
L 338.967273 96.218766 
L 342.574545 96.218766 
L 346.181818 96.218766 
L 349.789091 96.218766 
L 353.396364 96.218766 
L 357.003636 96.218766 
L 360.610909 96.218766 
L 364.218182 96.218766 
L 367.825455 96.218766 
L 371.432727 96.218766 
L 375.04 96.218766 
L 378.647273 96.218766 
L 382.254545 96.218766 
L 385.861818 96.218766 
L 389.469091 96.218766 
L 393.076364 96.218766 
L 396.683636 96.218766 
L 400.290909 96.218766 
L 403.898182 96.218766 
L 407.505455 96.218766 
L 411.112727 96.218766 
L 414.72 96.218766 
" clip-path="url(#pf82cb6ff23)" style="fill: none; stroke: #000000; stroke-width: 0.5"/>
   </g>
   <g id="PathCollection_15"/>
   <g id="LineCollection_1">
    <path d="M 70.331738 307.584 
L 70.331738 294.2784 
" clip-path="url(#pf82cb6ff23)" style="fill: none; stroke: #000000; stroke-width: 1.5"/>
    <path d="M 99.846223 307.584 
L 99.846223 294.2784 
" clip-path="url(#pf82cb6ff23)" style="fill: none; stroke: #000000; stroke-width: 1.5"/>
    <path d="M 129.465928 307.584 
L 129.465928 294.2784 
" clip-path="url(#pf82cb6ff23)" style="fill: none; stroke: #000000; stroke-width: 1.5"/>
    <path d="M 223.533483 307.584 
L 223.533483 294.2784 
" clip-path="url(#pf82cb6ff23)" style="fill: none; stroke: #000000; stroke-width: 1.5"/>
    <path d="M 263.675286 307.584 
L 263.675286 294.2784 
" clip-path="url(#pf82cb6ff23)" style="fill: none; stroke: #000000; stroke-width: 1.5"/>
    <path d="M 284.088156 307.584 
L 284.088156 294.2784 
" clip-path="url(#pf82cb6ff23)" style="fill: none; stroke: #000000; stroke-width: 1.5"/>
    <path d="M 301.81789 307.584 
L 301.81789 294.2784 
" clip-path="url(#pf82cb6ff23)" style="fill: none; stroke: #000000; stroke-width: 1.5"/>
    <path d="M 335.435993 307.584 
L 335.435993 294.2784 
" clip-path="url(#pf82cb6ff23)" style="fill: none; stroke: #000000; stroke-width: 1.5"/>
    <path d="M 378.208321 307.584 
L 378.208321 294.2784 
" clip-path="url(#pf82cb6ff23)" style="fill: none; stroke: #000000; stroke-width: 1.5"/>
   </g>
   <g id="LineCollection_2">
    <path clip-path="url(#pf82cb6ff23)" style="fill: none; stroke: #000000; stroke-width: 1.5"/>
    <path clip-path="url(#pf82cb6ff23)" style="fill: none; stroke: #000000; stroke-width: 1.5"/>
    <path clip-path="url(#pf82cb6ff23)" style="fill: none; stroke: #000000; stroke-width: 1.5"/>
    <path clip-path="url(#pf82cb6ff23)" style="fill: none; stroke: #000000; stroke-width: 1.5"/>
    <path clip-path="url(#pf82cb6ff23)" style="fill: none; stroke: #000000; stroke-width: 1.5"/>
    <path clip-path="url(#pf82cb6ff23)" style="fill: none; stroke: #000000; stroke-width: 1.5"/>
    <path clip-path="url(#pf82cb6ff23)" style="fill: none; stroke: #000000; stroke-width: 1.5"/>
    <path clip-path="url(#pf82cb6ff23)" style="fill: none; stroke: #000000; stroke-width: 1.5"/>
    <path clip-path="url(#pf82cb6ff23)" style="fill: none; stroke: #000000; stroke-width: 1.5"/>
   </g>
   <g id="patch_3">
    <path d="M 57.6 307.584 
L 57.6 41.472 
" style="fill: none; stroke: #000000; stroke-width: 0.8; stroke-linejoin: miter; stroke-linecap: square"/>
   </g>
   <g id="patch_4">
    <path d="M 414.72 307.584 
L 414.72 41.472 
" style="fill: none; stroke: #000000; stroke-width: 0.8; stroke-linejoin: miter; stroke-linecap: square"/>
   </g>
   <g id="patch_5">
    <path d="M 57.6 307.584 
L 414.72 307.584 
" style="fill: none; stroke: #000000; stroke-width: 0.8; stroke-linejoin: miter; stroke-linecap: square"/>
   </g>
   <g id="patch_6">
    <path d="M 57.6 41.472 
L 414.72 41.472 
" style="fill: none; stroke: #000000; stroke-width: 0.8; stroke-linejoin: miter; stroke-linecap: square"/>
   </g>
   <g id="text_18">
    <!-- 2D-partial dependency plot between Obesity and LE -->
    <g transform="translate(79.054688 35.472) scale(0.12 -0.12)">
     <defs>
      <path id="DejaVuSans-44" d="M 1259 4147 
L 1259 519 
L 2022 519 
Q 2988 519 3436 956 
Q 3884 1394 3884 2338 
Q 3884 3275 3436 3711 
Q 2988 4147 2022 4147 
L 1259 4147 
z
M 628 4666 
L 1925 4666 
Q 3281 4666 3915 4102 
Q 4550 3538 4550 2338 
Q 4550 1131 3912 565 
Q 3275 0 1925 0 
L 628 0 
L 628 4666 
z
" transform="scale(0.015625)"/>
      <path id="DejaVuSans-2d" d="M 313 2009 
L 1997 2009 
L 1997 1497 
L 313 1497 
L 313 2009 
z
" transform="scale(0.015625)"/>
      <path id="DejaVuSans-72" d="M 2631 2963 
Q 2534 3019 2420 3045 
Q 2306 3072 2169 3072 
Q 1681 3072 1420 2755 
Q 1159 2438 1159 1844 
L 1159 0 
L 581 0 
L 581 3500 
L 1159 3500 
L 1159 2956 
Q 1341 3275 1631 3429 
Q 1922 3584 2338 3584 
Q 2397 3584 2469 3576 
Q 2541 3569 2628 3553 
L 2631 2963 
z
" transform="scale(0.015625)"/>
      <path id="DejaVuSans-6c" d="M 603 4863 
L 1178 4863 
L 1178 0 
L 603 0 
L 603 4863 
z
" transform="scale(0.015625)"/>
      <path id="DejaVuSans-64" d="M 2906 2969 
L 2906 4863 
L 3481 4863 
L 3481 0 
L 2906 0 
L 2906 525 
Q 2725 213 2448 61 
Q 2172 -91 1784 -91 
Q 1150 -91 751 415 
Q 353 922 353 1747 
Q 353 2572 751 3078 
Q 1150 3584 1784 3584 
Q 2172 3584 2448 3432 
Q 2725 3281 2906 2969 
z
M 947 1747 
Q 947 1113 1208 752 
Q 1469 391 1925 391 
Q 2381 391 2643 752 
Q 2906 1113 2906 1747 
Q 2906 2381 2643 2742 
Q 2381 3103 1925 3103 
Q 1469 3103 1208 2742 
Q 947 2381 947 1747 
z
" transform="scale(0.015625)"/>
      <path id="DejaVuSans-6f" d="M 1959 3097 
Q 1497 3097 1228 2736 
Q 959 2375 959 1747 
Q 959 1119 1226 758 
Q 1494 397 1959 397 
Q 2419 397 2687 759 
Q 2956 1122 2956 1747 
Q 2956 2369 2687 2733 
Q 2419 3097 1959 3097 
z
M 1959 3584 
Q 2709 3584 3137 3096 
Q 3566 2609 3566 1747 
Q 3566 888 3137 398 
Q 2709 -91 1959 -91 
Q 1206 -91 779 398 
Q 353 888 353 1747 
Q 353 2609 779 3096 
Q 1206 3584 1959 3584 
z
" transform="scale(0.015625)"/>
      <path id="DejaVuSans-77" d="M 269 3500 
L 844 3500 
L 1563 769 
L 2278 3500 
L 2956 3500 
L 3675 769 
L 4391 3500 
L 4966 3500 
L 4050 0 
L 3372 0 
L 2619 2869 
L 1863 0 
L 1184 0 
L 269 3500 
z
" transform="scale(0.015625)"/>
     </defs>
     <use xlink:href="#DejaVuSans-32"/>
     <use xlink:href="#DejaVuSans-44" x="63.623047"/>
     <use xlink:href="#DejaVuSans-2d" x="140.625"/>
     <use xlink:href="#DejaVuSans-70" x="176.708984"/>
     <use xlink:href="#DejaVuSans-61" x="240.185547"/>
     <use xlink:href="#DejaVuSans-72" x="301.464844"/>
     <use xlink:href="#DejaVuSans-74" x="342.578125"/>
     <use xlink:href="#DejaVuSans-69" x="381.787109"/>
     <use xlink:href="#DejaVuSans-61" x="409.570312"/>
     <use xlink:href="#DejaVuSans-6c" x="470.849609"/>
     <use xlink:href="#DejaVuSans-20" x="498.632812"/>
     <use xlink:href="#DejaVuSans-64" x="530.419922"/>
     <use xlink:href="#DejaVuSans-65" x="593.896484"/>
     <use xlink:href="#DejaVuSans-70" x="655.419922"/>
     <use xlink:href="#DejaVuSans-65" x="718.896484"/>
     <use xlink:href="#DejaVuSans-6e" x="780.419922"/>
     <use xlink:href="#DejaVuSans-64" x="843.798828"/>
     <use xlink:href="#DejaVuSans-65" x="907.275391"/>
     <use xlink:href="#DejaVuSans-6e" x="968.798828"/>
     <use xlink:href="#DejaVuSans-63" x="1032.177734"/>
     <use xlink:href="#DejaVuSans-79" x="1087.158203"/>
     <use xlink:href="#DejaVuSans-20" x="1146.337891"/>
     <use xlink:href="#DejaVuSans-70" x="1178.125"/>
     <use xlink:href="#DejaVuSans-6c" x="1241.601562"/>
     <use xlink:href="#DejaVuSans-6f" x="1269.384766"/>
     <use xlink:href="#DejaVuSans-74" x="1330.566406"/>
     <use xlink:href="#DejaVuSans-20" x="1369.775391"/>
     <use xlink:href="#DejaVuSans-62" x="1401.5625"/>
     <use xlink:href="#DejaVuSans-65" x="1465.039062"/>
     <use xlink:href="#DejaVuSans-74" x="1526.5625"/>
     <use xlink:href="#DejaVuSans-77" x="1565.771484"/>
     <use xlink:href="#DejaVuSans-65" x="1647.558594"/>
     <use xlink:href="#DejaVuSans-65" x="1709.082031"/>
     <use xlink:href="#DejaVuSans-6e" x="1770.605469"/>
     <use xlink:href="#DejaVuSans-20" x="1833.984375"/>
     <use xlink:href="#DejaVuSans-4f" x="1865.771484"/>
     <use xlink:href="#DejaVuSans-62" x="1944.482422"/>
     <use xlink:href="#DejaVuSans-65" x="2007.958984"/>
     <use xlink:href="#DejaVuSans-73" x="2069.482422"/>
     <use xlink:href="#DejaVuSans-69" x="2121.582031"/>
     <use xlink:href="#DejaVuSans-74" x="2149.365234"/>
     <use xlink:href="#DejaVuSans-79" x="2188.574219"/>
     <use xlink:href="#DejaVuSans-20" x="2247.753906"/>
     <use xlink:href="#DejaVuSans-61" x="2279.541016"/>
     <use xlink:href="#DejaVuSans-6e" x="2340.820312"/>
     <use xlink:href="#DejaVuSans-64" x="2404.199219"/>
     <use xlink:href="#DejaVuSans-20" x="2467.675781"/>
     <use xlink:href="#DejaVuSans-4c" x="2499.462891"/>
     <use xlink:href="#DejaVuSans-45" x="2555.175781"/>
    </g>
   </g>
   <g id="text_19">
    <g clip-path="url(#pf82cb6ff23)">
     <!-- 12.28 -->
     <g transform="translate(111.824119 213.465147) scale(0.1 -0.1)">
      <use xlink:href="#DejaVuSans-31"/>
      <use xlink:href="#DejaVuSans-32" x="63.623047"/>
      <use xlink:href="#DejaVuSans-2e" x="127.246094"/>
      <use xlink:href="#DejaVuSans-32" x="159.033203"/>
      <use xlink:href="#DejaVuSans-38" x="222.65625"/>
     </g>
    </g>
   </g>
   <g id="text_20">
    <g clip-path="url(#pf82cb6ff23)">
     <!-- 12.53 -->
     <g transform="translate(252.507756 207.489453) scale(0.1 -0.1)">
      <use xlink:href="#DejaVuSans-31"/>
      <use xlink:href="#DejaVuSans-32" x="63.623047"/>
      <use xlink:href="#DejaVuSans-2e" x="127.246094"/>
      <use xlink:href="#DejaVuSans-35" x="159.033203"/>
      <use xlink:href="#DejaVuSans-33" x="222.65625"/>
     </g>
    </g>
   </g>
   <g id="text_21">
    <g clip-path="url(#pf82cb6ff23)">
     <!-- 12.78 -->
     <g transform="translate(111.824119 124.340316) scale(0.1 -0.1)">
      <use xlink:href="#DejaVuSans-31"/>
      <use xlink:href="#DejaVuSans-32" x="63.623047"/>
      <use xlink:href="#DejaVuSans-2e" x="127.246094"/>
      <use xlink:href="#DejaVuSans-37" x="159.033203"/>
      <use xlink:href="#DejaVuSans-38" x="222.65625"/>
     </g>
    </g>
   </g>
   <g id="text_22">
    <g clip-path="url(#pf82cb6ff23)">
     <!-- 13.04 -->
     <g transform="translate(252.507756 122.785343) scale(0.1 -0.1)">
      <defs>
       <path id="DejaVuSans-34" d="M 2419 4116 
L 825 1625 
L 2419 1625 
L 2419 4116 
z
M 2253 4666 
L 3047 4666 
L 3047 1625 
L 3713 1625 
L 3713 1100 
L 3047 1100 
L 3047 0 
L 2419 0 
L 2419 1100 
L 313 1100 
L 313 1709 
L 2253 4666 
z
" transform="scale(0.015625)"/>
      </defs>
      <use xlink:href="#DejaVuSans-31"/>
      <use xlink:href="#DejaVuSans-33" x="63.623047"/>
      <use xlink:href="#DejaVuSans-2e" x="127.246094"/>
      <use xlink:href="#DejaVuSans-30" x="159.033203"/>
      <use xlink:href="#DejaVuSans-34" x="222.65625"/>
     </g>
    </g>
   </g>
   <g id="text_23">
    <g clip-path="url(#pf82cb6ff23)">
     <!-- 13.29 -->
     <g transform="translate(393.191392 101.705567) scale(0.1 -0.1)">
      <defs>
       <path id="DejaVuSans-39" d="M 703 97 
L 703 672 
Q 941 559 1184 500 
Q 1428 441 1663 441 
Q 2288 441 2617 861 
Q 2947 1281 2994 2138 
Q 2813 1869 2534 1725 
Q 2256 1581 1919 1581 
Q 1219 1581 811 2004 
Q 403 2428 403 3163 
Q 403 3881 828 4315 
Q 1253 4750 1959 4750 
Q 2769 4750 3195 4129 
Q 3622 3509 3622 2328 
Q 3622 1225 3098 567 
Q 2575 -91 1691 -91 
Q 1453 -91 1209 -44 
Q 966 3 703 97 
z
M 1959 2075 
Q 2384 2075 2632 2365 
Q 2881 2656 2881 3163 
Q 2881 3666 2632 3958 
Q 2384 4250 1959 4250 
Q 1534 4250 1286 3958 
Q 1038 3666 1038 3163 
Q 1038 2656 1286 2365 
Q 1534 2075 1959 2075 
z
" transform="scale(0.015625)"/>
      </defs>
      <use xlink:href="#DejaVuSans-31"/>
      <use xlink:href="#DejaVuSans-33" x="63.623047"/>
      <use xlink:href="#DejaVuSans-2e" x="127.246094"/>
      <use xlink:href="#DejaVuSans-32" x="159.033203"/>
      <use xlink:href="#DejaVuSans-39" x="222.65625"/>
     </g>
    </g>
   </g>
   <g id="text_24">
    <g clip-path="url(#pf82cb6ff23)">
     <!-- 13.55 -->
     <g transform="translate(111.824119 98.978141) scale(0.1 -0.1)">
      <use xlink:href="#DejaVuSans-31"/>
      <use xlink:href="#DejaVuSans-33" x="63.623047"/>
      <use xlink:href="#DejaVuSans-2e" x="127.246094"/>
      <use xlink:href="#DejaVuSans-35" x="159.033203"/>
      <use xlink:href="#DejaVuSans-35" x="222.65625"/>
     </g>
    </g>
   </g>
  </g>
 </g>
 <defs>
  <clipPath id="pf82cb6ff23">
   <rect x="57.6" y="41.472" width="357.12" height="266.112"/>
  </clipPath>
 </defs>
</svg>
