<?xml version="1.0" encoding="utf-8" standalone="no"?>
<!DOCTYPE svg PUBLIC "-//W3C//DTD SVG 1.1//EN"
  "http://www.w3.org/Graphics/SVG/1.1/DTD/svg11.dtd">
<svg xmlns:xlink="http://www.w3.org/1999/xlink" width="460.8pt" height="345.6pt" viewBox="0 0 460.8 345.6" xmlns="http://www.w3.org/2000/svg" version="1.1">
 <metadata>
  <rdf:RDF xmlns:dc="http://purl.org/dc/elements/1.1/" xmlns:cc="http://creativecommons.org/ns#" xmlns:rdf="http://www.w3.org/1999/02/22-rdf-syntax-ns#">
   <cc:Work>
    <dc:type rdf:resource="http://purl.org/dc/dcmitype/StillImage"/>
    <dc:date>2024-04-22T00:29:25.478637</dc:date>
    <dc:format>image/svg+xml</dc:format>
    <dc:creator>
     <cc:Agent>
      <dc:title>Matplotlib v3.7.0, https://matplotlib.org/</dc:title>
     </cc:Agent>
    </dc:creator>
   </cc:Work>
  </rdf:RDF>
 </metadata>
 <defs>
  <style type="text/css">*{stroke-linejoin: round; stroke-linecap: butt}</style>
 </defs>
 <g id="figure_1">
  <g id="patch_1">
   <path d="M 0 345.6 
L 460.8 345.6 
L 460.8 0 
L 0 0 
L 0 345.6 
z
" style="fill: none"/>
  </g>
  <g id="axes_1"/>
  <g id="axes_2">
   <g id="patch_2">
    <path d="M 57.6 307.584 
L 414.72 307.584 
L 414.72 41.472 
L 57.6 41.472 
L 57.6 307.584 
z
" style="fill: none"/>
   </g>
   <g id="PathCollection_1">
    <path d="M 61.207273 307.584 
L 64.814545 307.584 
L 68.421818 307.584 
L 72.029091 307.584 
L 75.636364 307.584 
L 79.243636 307.584 
L 82.850909 307.584 
L 86.458182 307.584 
L 90.065455 307.584 
L 93.672727 307.584 
L 97.28 307.584 
L 100.887273 307.584 
L 104.494545 307.584 
L 108.101818 307.584 
L 111.709091 307.584 
L 115.316364 307.584 
L 118.923636 307.584 
L 122.530909 307.584 
L 126.138182 307.584 
L 129.745455 307.584 
L 133.352727 307.584 
L 136.96 307.584 
L 140.567273 307.584 
L 144.174545 307.584 
L 147.781818 307.584 
L 151.389091 307.584 
L 154.996364 307.584 
L 158.603636 307.584 
L 162.210909 307.584 
L 165.818182 307.584 
L 169.425455 307.584 
L 173.032727 307.584 
L 176.64 307.584 
L 177.56167 307.584 
L 177.56167 304.896 
L 177.56167 302.208 
L 177.56167 299.52 
L 180.247273 298.269418 
L 183.854545 298.269418 
L 187.461818 297.056259 
L 187.636305 296.832 
L 187.636305 294.144 
L 187.636305 291.456 
L 187.727297 288.768 
L 188.016093 286.08 
L 188.016093 283.392 
L 188.016093 280.704 
L 188.016093 278.016 
L 188.016093 275.328 
L 188.016093 272.64 
L 188.016093 269.952 
L 188.016093 267.264 
L 187.502636 264.576 
L 187.502636 261.888 
L 187.502636 259.2 
L 187.502636 256.512 
L 187.502636 253.824 
L 187.502636 251.136 
L 187.502636 248.448 
L 187.502636 245.76 
L 187.502636 243.072 
L 187.502636 240.384 
L 187.502636 237.696 
L 187.502636 235.008 
L 187.502636 232.32 
L 187.502636 229.632 
L 187.502636 226.944 
L 187.502636 224.256 
L 187.502636 221.568 
L 187.502636 218.88 
L 187.502636 216.192 
L 187.502636 213.504 
L 187.502636 210.816 
L 187.502636 208.128 
L 187.502636 205.44 
L 187.502636 202.752 
L 187.502636 200.064 
L 187.502636 197.376 
L 187.502636 194.688 
L 187.502636 192 
L 187.502636 189.312 
L 187.502636 186.624 
L 187.502636 183.936 
L 187.502636 181.248 
L 187.502636 178.56 
L 187.502636 175.872 
L 187.502636 173.184 
L 187.502636 170.496 
L 187.502636 167.808 
L 187.502636 165.12 
L 187.502636 162.432 
L 187.502636 159.744 
L 187.502636 157.056 
L 187.502636 154.368 
L 187.502636 151.68 
L 187.502636 148.992 
L 187.502636 146.304 
L 187.502636 143.616 
L 187.502636 140.928 
L 187.502636 138.24 
L 187.502636 135.552 
L 187.502636 132.864 
L 187.502636 130.176 
L 187.502636 127.488 
L 187.502636 124.8 
L 187.502636 122.112 
L 187.502636 119.424 
L 187.502636 116.736 
L 187.502636 114.048 
L 187.502636 111.36 
L 187.502636 108.672 
L 187.502636 105.984 
L 187.502636 103.296 
L 187.502636 100.608 
L 187.502636 97.92 
L 187.502636 95.232 
L 187.502636 92.544 
L 187.502636 89.856 
L 187.502636 87.168 
L 187.502636 84.48 
L 187.502636 81.792 
L 187.502636 79.104 
L 187.502636 76.416 
L 187.502636 73.728 
L 187.502636 71.04 
L 187.502636 68.352 
L 187.502636 65.664 
L 187.502636 62.976 
L 187.502636 60.288 
L 187.502636 57.6 
L 187.502636 54.912 
L 187.502636 52.224 
L 187.502636 49.536 
L 187.502636 46.848 
L 187.502636 44.16 
L 187.502636 41.472 
L 187.461818 41.472 
L 183.854545 41.472 
L 180.247273 41.472 
L 176.64 41.472 
L 173.032727 41.472 
L 169.425455 41.472 
L 165.818182 41.472 
L 162.210909 41.472 
L 158.603636 41.472 
L 154.996364 41.472 
L 151.389091 41.472 
L 147.781818 41.472 
L 144.174545 41.472 
L 140.567273 41.472 
L 136.96 41.472 
L 133.352727 41.472 
L 129.745455 41.472 
L 126.138182 41.472 
L 122.530909 41.472 
L 118.923636 41.472 
L 115.316364 41.472 
L 111.709091 41.472 
L 108.101818 41.472 
L 104.494545 41.472 
L 100.887273 41.472 
L 97.28 41.472 
L 93.672727 41.472 
L 90.065455 41.472 
L 86.458182 41.472 
L 82.850909 41.472 
L 79.243636 41.472 
L 75.636364 41.472 
L 72.029091 41.472 
L 68.421818 41.472 
L 64.814545 41.472 
L 61.207273 41.472 
L 57.6 41.472 
L 57.6 44.16 
L 57.6 46.848 
L 57.6 49.536 
L 57.6 52.224 
L 57.6 54.912 
L 57.6 57.6 
L 57.6 60.288 
L 57.6 62.976 
L 57.6 65.664 
L 57.6 68.352 
L 57.6 71.04 
L 57.6 73.728 
L 57.6 76.416 
L 57.6 79.104 
L 57.6 81.792 
L 57.6 84.48 
L 57.6 87.168 
L 57.6 89.856 
L 57.6 92.544 
L 57.6 95.232 
L 57.6 97.92 
L 57.6 100.608 
L 57.6 103.296 
L 57.6 105.984 
L 57.6 108.672 
L 57.6 111.36 
L 57.6 114.048 
L 57.6 116.736 
L 57.6 119.424 
L 57.6 122.112 
L 57.6 124.8 
L 57.6 127.488 
L 57.6 130.176 
L 57.6 132.864 
L 57.6 135.552 
L 57.6 138.24 
L 57.6 140.928 
L 57.6 143.616 
L 57.6 146.304 
L 57.6 148.992 
L 57.6 151.68 
L 57.6 154.368 
L 57.6 157.056 
L 57.6 159.744 
L 57.6 162.432 
L 57.6 165.12 
L 57.6 167.808 
L 57.6 170.496 
L 57.6 173.184 
L 57.6 175.872 
L 57.6 178.56 
L 57.6 181.248 
L 57.6 183.936 
L 57.6 186.624 
L 57.6 189.312 
L 57.6 192 
L 57.6 194.688 
L 57.6 197.376 
L 57.6 200.064 
L 57.6 202.752 
L 57.6 205.44 
L 57.6 208.128 
L 57.6 210.816 
L 57.6 213.504 
L 57.6 216.192 
L 57.6 218.88 
L 57.6 221.568 
L 57.6 224.256 
L 57.6 226.944 
L 57.6 229.632 
L 57.6 232.32 
L 57.6 235.008 
L 57.6 237.696 
L 57.6 240.384 
L 57.6 243.072 
L 57.6 245.76 
L 57.6 248.448 
L 57.6 251.136 
L 57.6 253.824 
L 57.6 256.512 
L 57.6 259.2 
L 57.6 261.888 
L 57.6 264.576 
L 57.6 267.264 
L 57.6 269.952 
L 57.6 272.64 
L 57.6 275.328 
L 57.6 278.016 
L 57.6 280.704 
L 57.6 283.392 
L 57.6 286.08 
L 57.6 288.768 
L 57.6 291.456 
L 57.6 294.144 
L 57.6 296.832 
L 57.6 299.52 
L 57.6 302.208 
L 57.6 304.896 
L 57.6 307.584 
z
" clip-path="url(#p6ae046c85a)" style="fill: #481b6d; fill-opacity: 0.75"/>
   </g>
   <g id="PathCollection_2">
    <path d="M 180.247273 307.584 
L 183.854545 307.584 
L 187.461818 307.584 
L 191.069091 307.584 
L 193.423892 307.584 
L 193.423892 304.896 
L 193.423892 302.208 
L 193.423892 299.52 
L 194.676364 297.878978 
L 197.502713 296.832 
L 197.502713 294.144 
L 197.502713 291.456 
L 197.818417 288.768 
L 198.283636 287.519979 
L 201.890909 287.519979 
L 205.498182 287.519979 
L 209.105455 287.519979 
L 212.712727 287.519979 
L 216.32 287.519979 
L 217.311037 286.08 
L 217.311037 283.392 
L 217.311037 280.704 
L 217.311037 278.016 
L 217.311037 275.328 
L 217.311037 272.64 
L 217.311037 269.952 
L 217.311037 267.264 
L 216.32 266.454078 
L 212.712727 266.454078 
L 209.105455 266.454078 
L 205.498182 266.454078 
L 201.890909 266.454078 
L 198.283636 266.454078 
L 197.038941 264.576 
L 197.038941 261.888 
L 197.038941 259.2 
L 197.038941 256.512 
L 197.038941 253.824 
L 197.038941 251.136 
L 197.038941 248.448 
L 197.038941 245.76 
L 197.038941 243.072 
L 197.038941 240.384 
L 197.038941 237.696 
L 197.038941 235.008 
L 197.038941 232.32 
L 197.038941 229.632 
L 197.038941 226.944 
L 197.038941 224.256 
L 197.038941 221.568 
L 197.038941 218.88 
L 197.038941 216.192 
L 197.038941 213.504 
L 197.038941 210.816 
L 197.038941 208.128 
L 197.038941 205.44 
L 197.038941 202.752 
L 197.038941 200.064 
L 197.038941 197.376 
L 197.038941 194.688 
L 197.038941 192 
L 197.038941 189.312 
L 197.038941 186.624 
L 197.038941 183.936 
L 197.038941 181.248 
L 197.038941 178.56 
L 197.038941 175.872 
L 197.038941 173.184 
L 197.038941 170.496 
L 197.038941 167.808 
L 197.038941 165.12 
L 197.038941 162.432 
L 197.038941 159.744 
L 197.038941 157.056 
L 197.038941 154.368 
L 197.038941 151.68 
L 197.038941 148.992 
L 197.038941 146.304 
L 197.038941 143.616 
L 197.038941 140.928 
L 197.038941 138.24 
L 197.038941 135.552 
L 197.038941 132.864 
L 197.038941 130.176 
L 197.038941 127.488 
L 197.038941 124.8 
L 197.038941 122.112 
L 197.038941 119.424 
L 197.038941 116.736 
L 197.038941 114.048 
L 197.038941 111.36 
L 197.038941 108.672 
L 197.038941 105.984 
L 197.038941 103.296 
L 197.038941 100.608 
L 197.038941 97.92 
L 197.038941 95.232 
L 197.038941 92.544 
L 197.038941 89.856 
L 197.038941 87.168 
L 197.038941 84.48 
L 197.038941 81.792 
L 197.038941 79.104 
L 197.038941 76.416 
L 197.038941 73.728 
L 197.038941 71.04 
L 197.038941 68.352 
L 197.038941 65.664 
L 197.038941 62.976 
L 197.038941 60.288 
L 197.038941 57.6 
L 197.038941 54.912 
L 197.038941 52.224 
L 197.038941 49.536 
L 197.038941 46.848 
L 197.038941 44.16 
L 197.038941 41.472 
L 194.676364 41.472 
L 191.069091 41.472 
L 187.502636 41.472 
L 187.502636 44.16 
L 187.502636 46.848 
L 187.502636 49.536 
L 187.502636 52.224 
L 187.502636 54.912 
L 187.502636 57.6 
L 187.502636 60.288 
L 187.502636 62.976 
L 187.502636 65.664 
L 187.502636 68.352 
L 187.502636 71.04 
L 187.502636 73.728 
L 187.502636 76.416 
L 187.502636 79.104 
L 187.502636 81.792 
L 187.502636 84.48 
L 187.502636 87.168 
L 187.502636 89.856 
L 187.502636 92.544 
L 187.502636 95.232 
L 187.502636 97.92 
L 187.502636 100.608 
L 187.502636 103.296 
L 187.502636 105.984 
L 187.502636 108.672 
L 187.502636 111.36 
L 187.502636 114.048 
L 187.502636 116.736 
L 187.502636 119.424 
L 187.502636 122.112 
L 187.502636 124.8 
L 187.502636 127.488 
L 187.502636 130.176 
L 187.502636 132.864 
L 187.502636 135.552 
L 187.502636 138.24 
L 187.502636 140.928 
L 187.502636 143.616 
L 187.502636 146.304 
L 187.502636 148.992 
L 187.502636 151.68 
L 187.502636 154.368 
L 187.502636 157.056 
L 187.502636 159.744 
L 187.502636 162.432 
L 187.502636 165.12 
L 187.502636 167.808 
L 187.502636 170.496 
L 187.502636 173.184 
L 187.502636 175.872 
L 187.502636 178.56 
L 187.502636 181.248 
L 187.502636 183.936 
L 187.502636 186.624 
L 187.502636 189.312 
L 187.502636 192 
L 187.502636 194.688 
L 187.502636 197.376 
L 187.502636 200.064 
L 187.502636 202.752 
L 187.502636 205.44 
L 187.502636 208.128 
L 187.502636 210.816 
L 187.502636 213.504 
L 187.502636 216.192 
L 187.502636 218.88 
L 187.502636 221.568 
L 187.502636 224.256 
L 187.502636 226.944 
L 187.502636 229.632 
L 187.502636 232.32 
L 187.502636 235.008 
L 187.502636 237.696 
L 187.502636 240.384 
L 187.502636 243.072 
L 187.502636 245.76 
L 187.502636 248.448 
L 187.502636 251.136 
L 187.502636 253.824 
L 187.502636 256.512 
L 187.502636 259.2 
L 187.502636 261.888 
L 187.502636 264.576 
L 188.016093 267.264 
L 188.016093 269.952 
L 188.016093 272.64 
L 188.016093 275.328 
L 188.016093 278.016 
L 188.016093 280.704 
L 188.016093 283.392 
L 188.016093 286.08 
L 187.727297 288.768 
L 187.636305 291.456 
L 187.636305 294.144 
L 187.636305 296.832 
L 187.461818 297.056259 
L 183.854545 298.269418 
L 180.247273 298.269418 
L 177.56167 299.52 
L 177.56167 302.208 
L 177.56167 304.896 
L 177.56167 307.584 
z
" clip-path="url(#p6ae046c85a)" style="fill: #3f4788; fill-opacity: 0.75"/>
   </g>
   <g id="PathCollection_3">
    <path d="M 194.676364 307.584 
L 198.283636 307.584 
L 201.890909 307.584 
L 205.498182 307.584 
L 209.105455 307.584 
L 212.712727 307.584 
L 216.32 307.584 
L 219.927273 307.584 
L 223.534545 307.584 
L 227.141818 307.584 
L 230.749091 307.584 
L 234.356364 307.584 
L 237.963636 307.584 
L 241.570909 307.584 
L 245.178182 307.584 
L 248.785455 307.584 
L 252.392727 307.584 
L 256 307.584 
L 259.607273 307.584 
L 263.214545 307.584 
L 266.821818 307.584 
L 270.429091 307.584 
L 274.036364 307.584 
L 277.643636 307.584 
L 281.250909 307.584 
L 284.858182 307.584 
L 288.465455 307.584 
L 292.072727 307.584 
L 295.68 307.584 
L 299.287273 307.584 
L 302.894545 307.584 
L 306.501818 307.584 
L 306.896016 307.584 
L 306.896016 304.896 
L 306.896016 302.208 
L 306.896016 299.52 
L 307.448146 296.832 
L 307.448146 294.144 
L 307.448146 291.456 
L 307.472168 288.768 
L 307.548409 286.08 
L 307.548409 283.392 
L 307.548409 280.704 
L 307.666491 278.016 
L 307.666491 275.328 
L 307.666491 272.64 
L 307.666491 269.952 
L 307.666491 267.264 
L 307.515646 264.576 
L 307.515646 261.888 
L 307.515646 259.2 
L 307.515646 256.512 
L 307.515646 253.824 
L 307.515646 251.136 
L 307.515646 248.448 
L 307.515646 245.76 
L 307.515646 243.072 
L 307.515646 240.384 
L 307.515646 237.696 
L 307.515646 235.008 
L 307.515646 232.32 
L 307.515646 229.632 
L 307.515646 226.944 
L 307.515646 224.256 
L 307.515646 221.568 
L 307.515646 218.88 
L 307.515646 216.192 
L 307.515646 213.504 
L 307.515646 210.816 
L 307.515646 208.128 
L 307.515646 205.44 
L 307.515646 202.752 
L 307.515646 200.064 
L 307.515646 197.376 
L 307.515646 194.688 
L 307.515646 192 
L 307.515646 189.312 
L 307.515646 186.624 
L 307.515646 183.936 
L 307.515646 181.248 
L 307.515646 178.56 
L 307.515646 175.872 
L 307.515646 173.184 
L 307.515646 170.496 
L 307.515646 167.808 
L 307.515646 165.12 
L 307.515646 162.432 
L 307.515646 159.744 
L 307.515646 157.056 
L 307.515646 154.368 
L 307.515646 151.68 
L 307.515646 148.992 
L 307.515646 146.304 
L 307.515646 143.616 
L 307.515646 140.928 
L 307.515646 138.24 
L 307.515646 135.552 
L 307.515646 132.864 
L 307.515646 130.176 
L 307.515646 127.488 
L 307.515646 124.8 
L 307.515646 122.112 
L 307.515646 119.424 
L 307.515646 116.736 
L 307.515646 114.048 
L 307.515646 111.36 
L 307.515646 108.672 
L 307.515646 105.984 
L 307.515646 103.296 
L 307.515646 100.608 
L 307.515646 97.92 
L 307.515646 95.232 
L 307.515646 92.544 
L 307.515646 89.856 
L 307.515646 87.168 
L 307.515646 84.48 
L 307.515646 81.792 
L 307.515646 79.104 
L 307.515646 76.416 
L 307.515646 73.728 
L 307.515646 71.04 
L 307.515646 68.352 
L 307.515646 65.664 
L 307.515646 62.976 
L 307.515646 60.288 
L 307.515646 57.6 
L 307.515646 54.912 
L 307.515646 52.224 
L 307.515646 49.536 
L 307.515646 46.848 
L 307.515646 44.16 
L 307.515646 41.472 
L 306.501818 41.472 
L 302.894545 41.472 
L 299.287273 41.472 
L 295.68 41.472 
L 292.072727 41.472 
L 288.465455 41.472 
L 284.858182 41.472 
L 281.250909 41.472 
L 277.643636 41.472 
L 274.036364 41.472 
L 270.429091 41.472 
L 266.821818 41.472 
L 263.214545 41.472 
L 259.607273 41.472 
L 256 41.472 
L 252.392727 41.472 
L 248.785455 41.472 
L 245.178182 41.472 
L 241.570909 41.472 
L 237.963636 41.472 
L 234.356364 41.472 
L 230.749091 41.472 
L 227.141818 41.472 
L 223.534545 41.472 
L 219.927273 41.472 
L 216.32 41.472 
L 212.712727 41.472 
L 209.105455 41.472 
L 205.498182 41.472 
L 201.890909 41.472 
L 198.283636 41.472 
L 197.038941 41.472 
L 197.038941 44.16 
L 197.038941 46.848 
L 197.038941 49.536 
L 197.038941 52.224 
L 197.038941 54.912 
L 197.038941 57.6 
L 197.038941 60.288 
L 197.038941 62.976 
L 197.038941 65.664 
L 197.038941 68.352 
L 197.038941 71.04 
L 197.038941 73.728 
L 197.038941 76.416 
L 197.038941 79.104 
L 197.038941 81.792 
L 197.038941 84.48 
L 197.038941 87.168 
L 197.038941 89.856 
L 197.038941 92.544 
L 197.038941 95.232 
L 197.038941 97.92 
L 197.038941 100.608 
L 197.038941 103.296 
L 197.038941 105.984 
L 197.038941 108.672 
L 197.038941 111.36 
L 197.038941 114.048 
L 197.038941 116.736 
L 197.038941 119.424 
L 197.038941 122.112 
L 197.038941 124.8 
L 197.038941 127.488 
L 197.038941 130.176 
L 197.038941 132.864 
L 197.038941 135.552 
L 197.038941 138.24 
L 197.038941 140.928 
L 197.038941 143.616 
L 197.038941 146.304 
L 197.038941 148.992 
L 197.038941 151.68 
L 197.038941 154.368 
L 197.038941 157.056 
L 197.038941 159.744 
L 197.038941 162.432 
L 197.038941 165.12 
L 197.038941 167.808 
L 197.038941 170.496 
L 197.038941 173.184 
L 197.038941 175.872 
L 197.038941 178.56 
L 197.038941 181.248 
L 197.038941 183.936 
L 197.038941 186.624 
L 197.038941 189.312 
L 197.038941 192 
L 197.038941 194.688 
L 197.038941 197.376 
L 197.038941 200.064 
L 197.038941 202.752 
L 197.038941 205.44 
L 197.038941 208.128 
L 197.038941 210.816 
L 197.038941 213.504 
L 197.038941 216.192 
L 197.038941 218.88 
L 197.038941 221.568 
L 197.038941 224.256 
L 197.038941 226.944 
L 197.038941 229.632 
L 197.038941 232.32 
L 197.038941 235.008 
L 197.038941 237.696 
L 197.038941 240.384 
L 197.038941 243.072 
L 197.038941 245.76 
L 197.038941 248.448 
L 197.038941 251.136 
L 197.038941 253.824 
L 197.038941 256.512 
L 197.038941 259.2 
L 197.038941 261.888 
L 197.038941 264.576 
L 198.283636 266.454078 
L 201.890909 266.454078 
L 205.498182 266.454078 
L 209.105455 266.454078 
L 212.712727 266.454078 
L 216.32 266.454078 
L 217.311037 267.264 
L 217.311037 269.952 
L 217.311037 272.64 
L 217.311037 275.328 
L 217.311037 278.016 
L 217.311037 280.704 
L 217.311037 283.392 
L 217.311037 286.08 
L 216.32 287.519979 
L 212.712727 287.519979 
L 209.105455 287.519979 
L 205.498182 287.519979 
L 201.890909 287.519979 
L 198.283636 287.519979 
L 197.818417 288.768 
L 197.502713 291.456 
L 197.502713 294.144 
L 197.502713 296.832 
L 194.676364 297.878978 
L 193.423892 299.52 
L 193.423892 302.208 
L 193.423892 304.896 
L 193.423892 307.584 
z
" clip-path="url(#p6ae046c85a)" style="fill: #2e6e8e; fill-opacity: 0.75"/>
   </g>
   <g id="PathCollection_4">
    <path d="M 308.988132 304.896 
L 308.988132 302.208 
L 308.988132 299.52 
L 309.540262 296.832 
L 309.540262 294.144 
L 309.540262 291.456 
L 309.564283 288.768 
L 309.640525 286.08 
L 309.640525 283.392 
L 309.640525 280.704 
L 309.99465 278.016 
L 309.99465 275.328 
L 309.99465 272.64 
L 309.99465 269.952 
L 309.99465 267.264 
L 309.843805 264.576 
L 309.843805 261.888 
L 309.843805 259.2 
L 309.843805 256.512 
L 309.843805 253.824 
L 309.843805 251.136 
L 309.843805 248.448 
L 309.843805 245.76 
L 309.843805 243.072 
L 309.843805 240.384 
L 309.843805 237.696 
L 309.843805 235.008 
L 309.843805 232.32 
L 309.843805 229.632 
L 309.843805 226.944 
L 309.843805 224.256 
L 309.843805 221.568 
L 309.843805 218.88 
L 309.843805 216.192 
L 309.843805 213.504 
L 309.843805 210.816 
L 309.843805 208.128 
L 309.843805 205.44 
L 309.843805 202.752 
L 309.843805 200.064 
L 309.843805 197.376 
L 309.843805 194.688 
L 309.843805 192 
L 309.843805 189.312 
L 309.843805 186.624 
L 309.843805 183.936 
L 309.843805 181.248 
L 309.843805 178.56 
L 309.843805 175.872 
L 309.843805 173.184 
L 309.843805 170.496 
L 309.843805 167.808 
L 309.843805 165.12 
L 309.843805 162.432 
L 309.843805 159.744 
L 309.843805 157.056 
L 309.843805 154.368 
L 309.843805 151.68 
L 309.843805 148.992 
L 309.843805 146.304 
L 309.843805 143.616 
L 309.843805 140.928 
L 309.843805 138.24 
L 309.843805 135.552 
L 309.843805 132.864 
L 309.843805 130.176 
L 309.843805 127.488 
L 309.843805 124.8 
L 309.843805 122.112 
L 309.843805 119.424 
L 309.843805 116.736 
L 309.843805 114.048 
L 309.843805 111.36 
L 309.843805 108.672 
L 309.843805 105.984 
L 309.843805 103.296 
L 309.843805 100.608 
L 309.843805 97.92 
L 309.843805 95.232 
L 309.843805 92.544 
L 309.843805 89.856 
L 309.843805 87.168 
L 309.843805 84.48 
L 309.843805 81.792 
L 309.843805 79.104 
L 309.843805 76.416 
L 309.843805 73.728 
L 309.843805 71.04 
L 309.843805 68.352 
L 309.843805 65.664 
L 309.843805 62.976 
L 309.843805 60.288 
L 309.843805 57.6 
L 309.843805 54.912 
L 309.843805 52.224 
L 309.843805 49.536 
L 309.843805 46.848 
L 309.843805 44.16 
L 309.843805 41.472 
L 307.515646 41.472 
L 307.515646 44.16 
L 307.515646 46.848 
L 307.515646 49.536 
L 307.515646 52.224 
L 307.515646 54.912 
L 307.515646 57.6 
L 307.515646 60.288 
L 307.515646 62.976 
L 307.515646 65.664 
L 307.515646 68.352 
L 307.515646 71.04 
L 307.515646 73.728 
L 307.515646 76.416 
L 307.515646 79.104 
L 307.515646 81.792 
L 307.515646 84.48 
L 307.515646 87.168 
L 307.515646 89.856 
L 307.515646 92.544 
L 307.515646 95.232 
L 307.515646 97.92 
L 307.515646 100.608 
L 307.515646 103.296 
L 307.515646 105.984 
L 307.515646 108.672 
L 307.515646 111.36 
L 307.515646 114.048 
L 307.515646 116.736 
L 307.515646 119.424 
L 307.515646 122.112 
L 307.515646 124.8 
L 307.515646 127.488 
L 307.515646 130.176 
L 307.515646 132.864 
L 307.515646 135.552 
L 307.515646 138.24 
L 307.515646 140.928 
L 307.515646 143.616 
L 307.515646 146.304 
L 307.515646 148.992 
L 307.515646 151.68 
L 307.515646 154.368 
L 307.515646 157.056 
L 307.515646 159.744 
L 307.515646 162.432 
L 307.515646 165.12 
L 307.515646 167.808 
L 307.515646 170.496 
L 307.515646 173.184 
L 307.515646 175.872 
L 307.515646 178.56 
L 307.515646 181.248 
L 307.515646 183.936 
L 307.515646 186.624 
L 307.515646 189.312 
L 307.515646 192 
L 307.515646 194.688 
L 307.515646 197.376 
L 307.515646 200.064 
L 307.515646 202.752 
L 307.515646 205.44 
L 307.515646 208.128 
L 307.515646 210.816 
L 307.515646 213.504 
L 307.515646 216.192 
L 307.515646 218.88 
L 307.515646 221.568 
L 307.515646 224.256 
L 307.515646 226.944 
L 307.515646 229.632 
L 307.515646 232.32 
L 307.515646 235.008 
L 307.515646 237.696 
L 307.515646 240.384 
L 307.515646 243.072 
L 307.515646 245.76 
L 307.515646 248.448 
L 307.515646 251.136 
L 307.515646 253.824 
L 307.515646 256.512 
L 307.515646 259.2 
L 307.515646 261.888 
L 307.515646 264.576 
L 307.666491 267.264 
L 307.666491 269.952 
L 307.666491 272.64 
L 307.666491 275.328 
L 307.666491 278.016 
L 307.548409 280.704 
L 307.548409 283.392 
L 307.548409 286.08 
L 307.472168 288.768 
L 307.448146 291.456 
L 307.448146 294.144 
L 307.448146 296.832 
L 306.896016 299.52 
L 306.896016 302.208 
L 306.896016 304.896 
L 306.896016 307.584 
L 308.988132 307.584 
z
" clip-path="url(#p6ae046c85a)" style="fill: #21918c; fill-opacity: 0.75"/>
   </g>
   <g id="PathCollection_5">
    <path d="M 310.109091 307.584 
L 313.716364 307.584 
L 317.323636 307.584 
L 320.930909 307.584 
L 324.538182 307.584 
L 328.145455 307.584 
L 331.752727 307.584 
L 335.36 307.584 
L 335.375302 307.584 
L 335.375302 304.896 
L 335.375302 302.208 
L 335.375302 299.52 
L 338.967273 297.720031 
L 339.19674 296.832 
L 339.19674 294.144 
L 339.19674 291.456 
L 339.22696 288.768 
L 339.322871 286.08 
L 339.322871 283.392 
L 339.322871 280.704 
L 339.782958 278.016 
L 339.782958 275.328 
L 339.782958 272.64 
L 339.782958 269.952 
L 339.782958 267.264 
L 339.612435 264.576 
L 339.612435 261.888 
L 339.612435 259.2 
L 339.612435 256.512 
L 339.612435 253.824 
L 339.612435 251.136 
L 339.612435 248.448 
L 339.612435 245.76 
L 339.612435 243.072 
L 339.612435 240.384 
L 339.612435 237.696 
L 339.612435 235.008 
L 339.612435 232.32 
L 339.612435 229.632 
L 339.612435 226.944 
L 339.612435 224.256 
L 339.612435 221.568 
L 339.612435 218.88 
L 339.612435 216.192 
L 339.612435 213.504 
L 339.612435 210.816 
L 339.612435 208.128 
L 339.612435 205.44 
L 339.612435 202.752 
L 339.612435 200.064 
L 339.612435 197.376 
L 339.612435 194.688 
L 339.612435 192 
L 339.612435 189.312 
L 339.612435 186.624 
L 339.612435 183.936 
L 339.612435 181.248 
L 339.612435 178.56 
L 339.612435 175.872 
L 339.612435 173.184 
L 339.612435 170.496 
L 339.612435 167.808 
L 339.612435 165.12 
L 339.612435 162.432 
L 339.612435 159.744 
L 339.612435 157.056 
L 339.612435 154.368 
L 339.612435 151.68 
L 339.612435 148.992 
L 339.612435 146.304 
L 339.612435 143.616 
L 339.612435 140.928 
L 339.612435 138.24 
L 339.612435 135.552 
L 339.612435 132.864 
L 339.612435 130.176 
L 339.612435 127.488 
L 339.612435 124.8 
L 339.612435 122.112 
L 339.612435 119.424 
L 339.612435 116.736 
L 339.612435 114.048 
L 339.612435 111.36 
L 339.612435 108.672 
L 339.612435 105.984 
L 339.612435 103.296 
L 339.612435 100.608 
L 339.612435 97.92 
L 339.612435 95.232 
L 339.612435 92.544 
L 339.612435 89.856 
L 339.612435 87.168 
L 339.612435 84.48 
L 339.612435 81.792 
L 339.612435 79.104 
L 339.612435 76.416 
L 339.612435 73.728 
L 339.612435 71.04 
L 339.612435 68.352 
L 339.612435 65.664 
L 339.612435 62.976 
L 339.612435 60.288 
L 339.612435 57.6 
L 339.612435 54.912 
L 339.612435 52.224 
L 339.612435 49.536 
L 339.612435 46.848 
L 339.612435 44.16 
L 339.612435 41.472 
L 338.967273 41.472 
L 335.36 41.472 
L 331.752727 41.472 
L 328.145455 41.472 
L 324.538182 41.472 
L 320.930909 41.472 
L 317.323636 41.472 
L 313.716364 41.472 
L 310.109091 41.472 
L 309.843805 41.472 
L 309.843805 44.16 
L 309.843805 46.848 
L 309.843805 49.536 
L 309.843805 52.224 
L 309.843805 54.912 
L 309.843805 57.6 
L 309.843805 60.288 
L 309.843805 62.976 
L 309.843805 65.664 
L 309.843805 68.352 
L 309.843805 71.04 
L 309.843805 73.728 
L 309.843805 76.416 
L 309.843805 79.104 
L 309.843805 81.792 
L 309.843805 84.48 
L 309.843805 87.168 
L 309.843805 89.856 
L 309.843805 92.544 
L 309.843805 95.232 
L 309.843805 97.92 
L 309.843805 100.608 
L 309.843805 103.296 
L 309.843805 105.984 
L 309.843805 108.672 
L 309.843805 111.36 
L 309.843805 114.048 
L 309.843805 116.736 
L 309.843805 119.424 
L 309.843805 122.112 
L 309.843805 124.8 
L 309.843805 127.488 
L 309.843805 130.176 
L 309.843805 132.864 
L 309.843805 135.552 
L 309.843805 138.24 
L 309.843805 140.928 
L 309.843805 143.616 
L 309.843805 146.304 
L 309.843805 148.992 
L 309.843805 151.68 
L 309.843805 154.368 
L 309.843805 157.056 
L 309.843805 159.744 
L 309.843805 162.432 
L 309.843805 165.12 
L 309.843805 167.808 
L 309.843805 170.496 
L 309.843805 173.184 
L 309.843805 175.872 
L 309.843805 178.56 
L 309.843805 181.248 
L 309.843805 183.936 
L 309.843805 186.624 
L 309.843805 189.312 
L 309.843805 192 
L 309.843805 194.688 
L 309.843805 197.376 
L 309.843805 200.064 
L 309.843805 202.752 
L 309.843805 205.44 
L 309.843805 208.128 
L 309.843805 210.816 
L 309.843805 213.504 
L 309.843805 216.192 
L 309.843805 218.88 
L 309.843805 221.568 
L 309.843805 224.256 
L 309.843805 226.944 
L 309.843805 229.632 
L 309.843805 232.32 
L 309.843805 235.008 
L 309.843805 237.696 
L 309.843805 240.384 
L 309.843805 243.072 
L 309.843805 245.76 
L 309.843805 248.448 
L 309.843805 251.136 
L 309.843805 253.824 
L 309.843805 256.512 
L 309.843805 259.2 
L 309.843805 261.888 
L 309.843805 264.576 
L 309.99465 267.264 
L 309.99465 269.952 
L 309.99465 272.64 
L 309.99465 275.328 
L 309.99465 278.016 
L 309.640525 280.704 
L 309.640525 283.392 
L 309.640525 286.08 
L 309.564283 288.768 
L 309.540262 291.456 
L 309.540262 294.144 
L 309.540262 296.832 
L 308.988132 299.52 
L 308.988132 302.208 
L 308.988132 304.896 
L 308.988132 307.584 
z
" clip-path="url(#p6ae046c85a)" style="fill: #2db27d; fill-opacity: 0.75"/>
   </g>
   <g id="PathCollection_6">
    <path d="M 338.967273 307.584 
L 341.134047 307.584 
L 341.134047 304.896 
L 341.134047 302.208 
L 341.134047 299.52 
L 341.828627 296.832 
L 341.828627 294.144 
L 341.828627 291.456 
L 341.858847 288.768 
L 341.954758 286.08 
L 341.954758 283.392 
L 341.954758 280.704 
L 342.414845 278.016 
L 342.414845 275.328 
L 342.414845 272.64 
L 342.414845 269.952 
L 342.414845 267.264 
L 342.244321 264.576 
L 342.244321 261.888 
L 342.244321 259.2 
L 342.244321 256.512 
L 342.244321 253.824 
L 342.244321 251.136 
L 342.244321 248.448 
L 342.244321 245.76 
L 342.244321 243.072 
L 342.244321 240.384 
L 342.244321 237.696 
L 342.244321 235.008 
L 342.244321 232.32 
L 342.244321 229.632 
L 342.244321 226.944 
L 342.244321 224.256 
L 342.244321 221.568 
L 342.244321 218.88 
L 342.244321 216.192 
L 342.244321 213.504 
L 342.244321 210.816 
L 342.244321 208.128 
L 342.244321 205.44 
L 342.244321 202.752 
L 342.244321 200.064 
L 342.244321 197.376 
L 342.244321 194.688 
L 342.244321 192 
L 342.244321 189.312 
L 342.244321 186.624 
L 342.244321 183.936 
L 342.244321 181.248 
L 342.244321 178.56 
L 342.244321 175.872 
L 342.244321 173.184 
L 342.244321 170.496 
L 342.244321 167.808 
L 342.244321 165.12 
L 342.244321 162.432 
L 342.244321 159.744 
L 342.244321 157.056 
L 342.244321 154.368 
L 342.244321 151.68 
L 342.244321 148.992 
L 342.244321 146.304 
L 342.244321 143.616 
L 342.244321 140.928 
L 342.244321 138.24 
L 342.244321 135.552 
L 342.244321 132.864 
L 342.244321 130.176 
L 342.244321 127.488 
L 342.244321 124.8 
L 342.244321 122.112 
L 342.244321 119.424 
L 342.244321 116.736 
L 342.244321 114.048 
L 342.244321 111.36 
L 342.244321 108.672 
L 342.244321 105.984 
L 342.244321 103.296 
L 342.244321 100.608 
L 342.244321 97.92 
L 342.244321 95.232 
L 342.244321 92.544 
L 342.244321 89.856 
L 342.244321 87.168 
L 342.244321 84.48 
L 342.244321 81.792 
L 342.244321 79.104 
L 342.244321 76.416 
L 342.244321 73.728 
L 342.244321 71.04 
L 342.244321 68.352 
L 342.244321 65.664 
L 342.244321 62.976 
L 342.244321 60.288 
L 342.244321 57.6 
L 342.244321 54.912 
L 342.244321 52.224 
L 342.244321 49.536 
L 342.244321 46.848 
L 342.244321 44.16 
L 342.244321 41.472 
L 339.612435 41.472 
L 339.612435 44.16 
L 339.612435 46.848 
L 339.612435 49.536 
L 339.612435 52.224 
L 339.612435 54.912 
L 339.612435 57.6 
L 339.612435 60.288 
L 339.612435 62.976 
L 339.612435 65.664 
L 339.612435 68.352 
L 339.612435 71.04 
L 339.612435 73.728 
L 339.612435 76.416 
L 339.612435 79.104 
L 339.612435 81.792 
L 339.612435 84.48 
L 339.612435 87.168 
L 339.612435 89.856 
L 339.612435 92.544 
L 339.612435 95.232 
L 339.612435 97.92 
L 339.612435 100.608 
L 339.612435 103.296 
L 339.612435 105.984 
L 339.612435 108.672 
L 339.612435 111.36 
L 339.612435 114.048 
L 339.612435 116.736 
L 339.612435 119.424 
L 339.612435 122.112 
L 339.612435 124.8 
L 339.612435 127.488 
L 339.612435 130.176 
L 339.612435 132.864 
L 339.612435 135.552 
L 339.612435 138.24 
L 339.612435 140.928 
L 339.612435 143.616 
L 339.612435 146.304 
L 339.612435 148.992 
L 339.612435 151.68 
L 339.612435 154.368 
L 339.612435 157.056 
L 339.612435 159.744 
L 339.612435 162.432 
L 339.612435 165.12 
L 339.612435 167.808 
L 339.612435 170.496 
L 339.612435 173.184 
L 339.612435 175.872 
L 339.612435 178.56 
L 339.612435 181.248 
L 339.612435 183.936 
L 339.612435 186.624 
L 339.612435 189.312 
L 339.612435 192 
L 339.612435 194.688 
L 339.612435 197.376 
L 339.612435 200.064 
L 339.612435 202.752 
L 339.612435 205.44 
L 339.612435 208.128 
L 339.612435 210.816 
L 339.612435 213.504 
L 339.612435 216.192 
L 339.612435 218.88 
L 339.612435 221.568 
L 339.612435 224.256 
L 339.612435 226.944 
L 339.612435 229.632 
L 339.612435 232.32 
L 339.612435 235.008 
L 339.612435 237.696 
L 339.612435 240.384 
L 339.612435 243.072 
L 339.612435 245.76 
L 339.612435 248.448 
L 339.612435 251.136 
L 339.612435 253.824 
L 339.612435 256.512 
L 339.612435 259.2 
L 339.612435 261.888 
L 339.612435 264.576 
L 339.782958 267.264 
L 339.782958 269.952 
L 339.782958 272.64 
L 339.782958 275.328 
L 339.782958 278.016 
L 339.322871 280.704 
L 339.322871 283.392 
L 339.322871 286.08 
L 339.22696 288.768 
L 339.19674 291.456 
L 339.19674 294.144 
L 339.19674 296.832 
L 338.967273 297.720031 
L 335.375302 299.52 
L 335.375302 302.208 
L 335.375302 304.896 
L 335.375302 307.584 
z
" clip-path="url(#p6ae046c85a)" style="fill: #73d056; fill-opacity: 0.75"/>
   </g>
   <g id="PathCollection_7">
    <path d="M 342.574545 307.584 
L 346.181818 307.584 
L 349.789091 307.584 
L 353.396364 307.584 
L 357.003636 307.584 
L 360.610909 307.584 
L 364.218182 307.584 
L 367.825455 307.584 
L 371.432727 307.584 
L 375.04 307.584 
L 378.647273 307.584 
L 382.254545 307.584 
L 385.861818 307.584 
L 389.469091 307.584 
L 393.076364 307.584 
L 396.683636 307.584 
L 400.290909 307.584 
L 403.898182 307.584 
L 407.505455 307.584 
L 411.112727 307.584 
L 414.72 307.584 
L 414.72 304.896 
L 414.72 302.208 
L 414.72 299.52 
L 414.72 296.832 
L 414.72 294.144 
L 414.72 291.456 
L 414.72 288.768 
L 414.72 286.08 
L 414.72 283.392 
L 414.72 280.704 
L 414.72 278.016 
L 414.72 275.328 
L 414.72 272.64 
L 414.72 269.952 
L 414.72 267.264 
L 414.72 264.576 
L 414.72 261.888 
L 414.72 259.2 
L 414.72 256.512 
L 414.72 253.824 
L 414.72 251.136 
L 414.72 248.448 
L 414.72 245.76 
L 414.72 243.072 
L 414.72 240.384 
L 414.72 237.696 
L 414.72 235.008 
L 414.72 232.32 
L 414.72 229.632 
L 414.72 226.944 
L 414.72 224.256 
L 414.72 221.568 
L 414.72 218.88 
L 414.72 216.192 
L 414.72 213.504 
L 414.72 210.816 
L 414.72 208.128 
L 414.72 205.44 
L 414.72 202.752 
L 414.72 200.064 
L 414.72 197.376 
L 414.72 194.688 
L 414.72 192 
L 414.72 189.312 
L 414.72 186.624 
L 414.72 183.936 
L 414.72 181.248 
L 414.72 178.56 
L 414.72 175.872 
L 414.72 173.184 
L 414.72 170.496 
L 414.72 167.808 
L 414.72 165.12 
L 414.72 162.432 
L 414.72 159.744 
L 414.72 157.056 
L 414.72 154.368 
L 414.72 151.68 
L 414.72 148.992 
L 414.72 146.304 
L 414.72 143.616 
L 414.72 140.928 
L 414.72 138.24 
L 414.72 135.552 
L 414.72 132.864 
L 414.72 130.176 
L 414.72 127.488 
L 414.72 124.8 
L 414.72 122.112 
L 414.72 119.424 
L 414.72 116.736 
L 414.72 114.048 
L 414.72 111.36 
L 414.72 108.672 
L 414.72 105.984 
L 414.72 103.296 
L 414.72 100.608 
L 414.72 97.92 
L 414.72 95.232 
L 414.72 92.544 
L 414.72 89.856 
L 414.72 87.168 
L 414.72 84.48 
L 414.72 81.792 
L 414.72 79.104 
L 414.72 76.416 
L 414.72 73.728 
L 414.72 71.04 
L 414.72 68.352 
L 414.72 65.664 
L 414.72 62.976 
L 414.72 60.288 
L 414.72 57.6 
L 414.72 54.912 
L 414.72 52.224 
L 414.72 49.536 
L 414.72 46.848 
L 414.72 44.16 
L 414.72 41.472 
L 411.112727 41.472 
L 407.505455 41.472 
L 403.898182 41.472 
L 400.290909 41.472 
L 396.683636 41.472 
L 393.076364 41.472 
L 389.469091 41.472 
L 385.861818 41.472 
L 382.254545 41.472 
L 378.647273 41.472 
L 375.04 41.472 
L 371.432727 41.472 
L 367.825455 41.472 
L 364.218182 41.472 
L 360.610909 41.472 
L 357.003636 41.472 
L 353.396364 41.472 
L 349.789091 41.472 
L 346.181818 41.472 
L 342.574545 41.472 
L 342.244321 41.472 
L 342.244321 44.16 
L 342.244321 46.848 
L 342.244321 49.536 
L 342.244321 52.224 
L 342.244321 54.912 
L 342.244321 57.6 
L 342.244321 60.288 
L 342.244321 62.976 
L 342.244321 65.664 
L 342.244321 68.352 
L 342.244321 71.04 
L 342.244321 73.728 
L 342.244321 76.416 
L 342.244321 79.104 
L 342.244321 81.792 
L 342.244321 84.48 
L 342.244321 87.168 
L 342.244321 89.856 
L 342.244321 92.544 
L 342.244321 95.232 
L 342.244321 97.92 
L 342.244321 100.608 
L 342.244321 103.296 
L 342.244321 105.984 
L 342.244321 108.672 
L 342.244321 111.36 
L 342.244321 114.048 
L 342.244321 116.736 
L 342.244321 119.424 
L 342.244321 122.112 
L 342.244321 124.8 
L 342.244321 127.488 
L 342.244321 130.176 
L 342.244321 132.864 
L 342.244321 135.552 
L 342.244321 138.24 
L 342.244321 140.928 
L 342.244321 143.616 
L 342.244321 146.304 
L 342.244321 148.992 
L 342.244321 151.68 
L 342.244321 154.368 
L 342.244321 157.056 
L 342.244321 159.744 
L 342.244321 162.432 
L 342.244321 165.12 
L 342.244321 167.808 
L 342.244321 170.496 
L 342.244321 173.184 
L 342.244321 175.872 
L 342.244321 178.56 
L 342.244321 181.248 
L 342.244321 183.936 
L 342.244321 186.624 
L 342.244321 189.312 
L 342.244321 192 
L 342.244321 194.688 
L 342.244321 197.376 
L 342.244321 200.064 
L 342.244321 202.752 
L 342.244321 205.44 
L 342.244321 208.128 
L 342.244321 210.816 
L 342.244321 213.504 
L 342.244321 216.192 
L 342.244321 218.88 
L 342.244321 221.568 
L 342.244321 224.256 
L 342.244321 226.944 
L 342.244321 229.632 
L 342.244321 232.32 
L 342.244321 235.008 
L 342.244321 237.696 
L 342.244321 240.384 
L 342.244321 243.072 
L 342.244321 245.76 
L 342.244321 248.448 
L 342.244321 251.136 
L 342.244321 253.824 
L 342.244321 256.512 
L 342.244321 259.2 
L 342.244321 261.888 
L 342.244321 264.576 
L 342.414845 267.264 
L 342.414845 269.952 
L 342.414845 272.64 
L 342.414845 275.328 
L 342.414845 278.016 
L 341.954758 280.704 
L 341.954758 283.392 
L 341.954758 286.08 
L 341.858847 288.768 
L 341.828627 291.456 
L 341.828627 294.144 
L 341.828627 296.832 
L 341.134047 299.52 
L 341.134047 302.208 
L 341.134047 304.896 
L 341.134047 307.584 
z
" clip-path="url(#p6ae046c85a)" style="fill: #d0e11c; fill-opacity: 0.75"/>
   </g>
   <g id="matplotlib.axis_1">
    <g id="xtick_1">
     <g id="line2d_1">
      <defs>
       <path id="m0a1c769d32" d="M 0 0 
L 0 3.5 
" style="stroke: #000000; stroke-width: 0.8"/>
      </defs>
      <g>
       <use xlink:href="#m0a1c769d32" x="79.142351" y="307.584" style="stroke: #000000; stroke-width: 0.8"/>
      </g>
     </g>
     <g id="text_1">
      <!-- 62.5 -->
      <g transform="translate(68.009538 322.182437) scale(0.1 -0.1)">
       <defs>
        <path id="DejaVuSans-36" d="M 2113 2584 
Q 1688 2584 1439 2293 
Q 1191 2003 1191 1497 
Q 1191 994 1439 701 
Q 1688 409 2113 409 
Q 2538 409 2786 701 
Q 3034 994 3034 1497 
Q 3034 2003 2786 2293 
Q 2538 2584 2113 2584 
z
M 3366 4563 
L 3366 3988 
Q 3128 4100 2886 4159 
Q 2644 4219 2406 4219 
Q 1781 4219 1451 3797 
Q 1122 3375 1075 2522 
Q 1259 2794 1537 2939 
Q 1816 3084 2150 3084 
Q 2853 3084 3261 2657 
Q 3669 2231 3669 1497 
Q 3669 778 3244 343 
Q 2819 -91 2113 -91 
Q 1303 -91 875 529 
Q 447 1150 447 2328 
Q 447 3434 972 4092 
Q 1497 4750 2381 4750 
Q 2619 4750 2861 4703 
Q 3103 4656 3366 4563 
z
" transform="scale(0.015625)"/>
        <path id="DejaVuSans-32" d="M 1228 531 
L 3431 531 
L 3431 0 
L 469 0 
L 469 531 
Q 828 903 1448 1529 
Q 2069 2156 2228 2338 
Q 2531 2678 2651 2914 
Q 2772 3150 2772 3378 
Q 2772 3750 2511 3984 
Q 2250 4219 1831 4219 
Q 1534 4219 1204 4116 
Q 875 4013 500 3803 
L 500 4441 
Q 881 4594 1212 4672 
Q 1544 4750 1819 4750 
Q 2544 4750 2975 4387 
Q 3406 4025 3406 3419 
Q 3406 3131 3298 2873 
Q 3191 2616 2906 2266 
Q 2828 2175 2409 1742 
Q 1991 1309 1228 531 
z
" transform="scale(0.015625)"/>
        <path id="DejaVuSans-2e" d="M 684 794 
L 1344 794 
L 1344 0 
L 684 0 
L 684 794 
z
" transform="scale(0.015625)"/>
        <path id="DejaVuSans-35" d="M 691 4666 
L 3169 4666 
L 3169 4134 
L 1269 4134 
L 1269 2991 
Q 1406 3038 1543 3061 
Q 1681 3084 1819 3084 
Q 2600 3084 3056 2656 
Q 3513 2228 3513 1497 
Q 3513 744 3044 326 
Q 2575 -91 1722 -91 
Q 1428 -91 1123 -41 
Q 819 9 494 109 
L 494 744 
Q 775 591 1075 516 
Q 1375 441 1709 441 
Q 2250 441 2565 725 
Q 2881 1009 2881 1497 
Q 2881 1984 2565 2268 
Q 2250 2553 1709 2553 
Q 1456 2553 1204 2497 
Q 953 2441 691 2322 
L 691 4666 
z
" transform="scale(0.015625)"/>
       </defs>
       <use xlink:href="#DejaVuSans-36"/>
       <use xlink:href="#DejaVuSans-32" x="63.623047"/>
       <use xlink:href="#DejaVuSans-2e" x="127.246094"/>
       <use xlink:href="#DejaVuSans-35" x="159.033203"/>
      </g>
     </g>
    </g>
    <g id="xtick_2">
     <g id="line2d_2">
      <g>
       <use xlink:href="#m0a1c769d32" x="120.839375" y="307.584" style="stroke: #000000; stroke-width: 0.8"/>
      </g>
     </g>
     <g id="text_2">
      <!-- 65.0 -->
      <g transform="translate(109.706562 322.182437) scale(0.1 -0.1)">
       <defs>
        <path id="DejaVuSans-30" d="M 2034 4250 
Q 1547 4250 1301 3770 
Q 1056 3291 1056 2328 
Q 1056 1369 1301 889 
Q 1547 409 2034 409 
Q 2525 409 2770 889 
Q 3016 1369 3016 2328 
Q 3016 3291 2770 3770 
Q 2525 4250 2034 4250 
z
M 2034 4750 
Q 2819 4750 3233 4129 
Q 3647 3509 3647 2328 
Q 3647 1150 3233 529 
Q 2819 -91 2034 -91 
Q 1250 -91 836 529 
Q 422 1150 422 2328 
Q 422 3509 836 4129 
Q 1250 4750 2034 4750 
z
" transform="scale(0.015625)"/>
       </defs>
       <use xlink:href="#DejaVuSans-36"/>
       <use xlink:href="#DejaVuSans-35" x="63.623047"/>
       <use xlink:href="#DejaVuSans-2e" x="127.246094"/>
       <use xlink:href="#DejaVuSans-30" x="159.033203"/>
      </g>
     </g>
    </g>
    <g id="xtick_3">
     <g id="line2d_3">
      <g>
       <use xlink:href="#m0a1c769d32" x="162.536399" y="307.584" style="stroke: #000000; stroke-width: 0.8"/>
      </g>
     </g>
     <g id="text_3">
      <!-- 67.5 -->
      <g transform="translate(151.403586 322.182437) scale(0.1 -0.1)">
       <defs>
        <path id="DejaVuSans-37" d="M 525 4666 
L 3525 4666 
L 3525 4397 
L 1831 0 
L 1172 0 
L 2766 4134 
L 525 4134 
L 525 4666 
z
" transform="scale(0.015625)"/>
       </defs>
       <use xlink:href="#DejaVuSans-36"/>
       <use xlink:href="#DejaVuSans-37" x="63.623047"/>
       <use xlink:href="#DejaVuSans-2e" x="127.246094"/>
       <use xlink:href="#DejaVuSans-35" x="159.033203"/>
      </g>
     </g>
    </g>
    <g id="xtick_4">
     <g id="line2d_4">
      <g>
       <use xlink:href="#m0a1c769d32" x="204.233423" y="307.584" style="stroke: #000000; stroke-width: 0.8"/>
      </g>
     </g>
     <g id="text_4">
      <!-- 70.0 -->
      <g transform="translate(193.10061 322.182437) scale(0.1 -0.1)">
       <use xlink:href="#DejaVuSans-37"/>
       <use xlink:href="#DejaVuSans-30" x="63.623047"/>
       <use xlink:href="#DejaVuSans-2e" x="127.246094"/>
       <use xlink:href="#DejaVuSans-30" x="159.033203"/>
      </g>
     </g>
    </g>
    <g id="xtick_5">
     <g id="line2d_5">
      <g>
       <use xlink:href="#m0a1c769d32" x="245.930447" y="307.584" style="stroke: #000000; stroke-width: 0.8"/>
      </g>
     </g>
     <g id="text_5">
      <!-- 72.5 -->
      <g transform="translate(234.797634 322.182437) scale(0.1 -0.1)">
       <use xlink:href="#DejaVuSans-37"/>
       <use xlink:href="#DejaVuSans-32" x="63.623047"/>
       <use xlink:href="#DejaVuSans-2e" x="127.246094"/>
       <use xlink:href="#DejaVuSans-35" x="159.033203"/>
      </g>
     </g>
    </g>
    <g id="xtick_6">
     <g id="line2d_6">
      <g>
       <use xlink:href="#m0a1c769d32" x="287.627471" y="307.584" style="stroke: #000000; stroke-width: 0.8"/>
      </g>
     </g>
     <g id="text_6">
      <!-- 75.0 -->
      <g transform="translate(276.494658 322.182437) scale(0.1 -0.1)">
       <use xlink:href="#DejaVuSans-37"/>
       <use xlink:href="#DejaVuSans-35" x="63.623047"/>
       <use xlink:href="#DejaVuSans-2e" x="127.246094"/>
       <use xlink:href="#DejaVuSans-30" x="159.033203"/>
      </g>
     </g>
    </g>
    <g id="xtick_7">
     <g id="line2d_7">
      <g>
       <use xlink:href="#m0a1c769d32" x="329.324495" y="307.584" style="stroke: #000000; stroke-width: 0.8"/>
      </g>
     </g>
     <g id="text_7">
      <!-- 77.5 -->
      <g transform="translate(318.191682 322.182437) scale(0.1 -0.1)">
       <use xlink:href="#DejaVuSans-37"/>
       <use xlink:href="#DejaVuSans-37" x="63.623047"/>
       <use xlink:href="#DejaVuSans-2e" x="127.246094"/>
       <use xlink:href="#DejaVuSans-35" x="159.033203"/>
      </g>
     </g>
    </g>
    <g id="xtick_8">
     <g id="line2d_8">
      <g>
       <use xlink:href="#m0a1c769d32" x="371.021519" y="307.584" style="stroke: #000000; stroke-width: 0.8"/>
      </g>
     </g>
     <g id="text_8">
      <!-- 80.0 -->
      <g transform="translate(359.888706 322.182437) scale(0.1 -0.1)">
       <defs>
        <path id="DejaVuSans-38" d="M 2034 2216 
Q 1584 2216 1326 1975 
Q 1069 1734 1069 1313 
Q 1069 891 1326 650 
Q 1584 409 2034 409 
Q 2484 409 2743 651 
Q 3003 894 3003 1313 
Q 3003 1734 2745 1975 
Q 2488 2216 2034 2216 
z
M 1403 2484 
Q 997 2584 770 2862 
Q 544 3141 544 3541 
Q 544 4100 942 4425 
Q 1341 4750 2034 4750 
Q 2731 4750 3128 4425 
Q 3525 4100 3525 3541 
Q 3525 3141 3298 2862 
Q 3072 2584 2669 2484 
Q 3125 2378 3379 2068 
Q 3634 1759 3634 1313 
Q 3634 634 3220 271 
Q 2806 -91 2034 -91 
Q 1263 -91 848 271 
Q 434 634 434 1313 
Q 434 1759 690 2068 
Q 947 2378 1403 2484 
z
M 1172 3481 
Q 1172 3119 1398 2916 
Q 1625 2713 2034 2713 
Q 2441 2713 2670 2916 
Q 2900 3119 2900 3481 
Q 2900 3844 2670 4047 
Q 2441 4250 2034 4250 
Q 1625 4250 1398 4047 
Q 1172 3844 1172 3481 
z
" transform="scale(0.015625)"/>
       </defs>
       <use xlink:href="#DejaVuSans-38"/>
       <use xlink:href="#DejaVuSans-30" x="63.623047"/>
       <use xlink:href="#DejaVuSans-2e" x="127.246094"/>
       <use xlink:href="#DejaVuSans-30" x="159.033203"/>
      </g>
     </g>
    </g>
    <g id="xtick_9">
     <g id="line2d_9">
      <g>
       <use xlink:href="#m0a1c769d32" x="412.718543" y="307.584" style="stroke: #000000; stroke-width: 0.8"/>
      </g>
     </g>
     <g id="text_9">
      <!-- 82.5 -->
      <g transform="translate(401.58573 322.182437) scale(0.1 -0.1)">
       <use xlink:href="#DejaVuSans-38"/>
       <use xlink:href="#DejaVuSans-32" x="63.623047"/>
       <use xlink:href="#DejaVuSans-2e" x="127.246094"/>
       <use xlink:href="#DejaVuSans-35" x="159.033203"/>
      </g>
     </g>
    </g>
    <g id="text_10">
     <!-- Life Expectancy -->
     <g transform="translate(196.538906 335.860562) scale(0.1 -0.1)">
      <defs>
       <path id="DejaVuSans-4c" d="M 628 4666 
L 1259 4666 
L 1259 531 
L 3531 531 
L 3531 0 
L 628 0 
L 628 4666 
z
" transform="scale(0.015625)"/>
       <path id="DejaVuSans-69" d="M 603 3500 
L 1178 3500 
L 1178 0 
L 603 0 
L 603 3500 
z
M 603 4863 
L 1178 4863 
L 1178 4134 
L 603 4134 
L 603 4863 
z
" transform="scale(0.015625)"/>
       <path id="DejaVuSans-66" d="M 2375 4863 
L 2375 4384 
L 1825 4384 
Q 1516 4384 1395 4259 
Q 1275 4134 1275 3809 
L 1275 3500 
L 2222 3500 
L 2222 3053 
L 1275 3053 
L 1275 0 
L 697 0 
L 697 3053 
L 147 3053 
L 147 3500 
L 697 3500 
L 697 3744 
Q 697 4328 969 4595 
Q 1241 4863 1831 4863 
L 2375 4863 
z
" transform="scale(0.015625)"/>
       <path id="DejaVuSans-65" d="M 3597 1894 
L 3597 1613 
L 953 1613 
Q 991 1019 1311 708 
Q 1631 397 2203 397 
Q 2534 397 2845 478 
Q 3156 559 3463 722 
L 3463 178 
Q 3153 47 2828 -22 
Q 2503 -91 2169 -91 
Q 1331 -91 842 396 
Q 353 884 353 1716 
Q 353 2575 817 3079 
Q 1281 3584 2069 3584 
Q 2775 3584 3186 3129 
Q 3597 2675 3597 1894 
z
M 3022 2063 
Q 3016 2534 2758 2815 
Q 2500 3097 2075 3097 
Q 1594 3097 1305 2825 
Q 1016 2553 972 2059 
L 3022 2063 
z
" transform="scale(0.015625)"/>
       <path id="DejaVuSans-20" transform="scale(0.015625)"/>
       <path id="DejaVuSans-45" d="M 628 4666 
L 3578 4666 
L 3578 4134 
L 1259 4134 
L 1259 2753 
L 3481 2753 
L 3481 2222 
L 1259 2222 
L 1259 531 
L 3634 531 
L 3634 0 
L 628 0 
L 628 4666 
z
" transform="scale(0.015625)"/>
       <path id="DejaVuSans-78" d="M 3513 3500 
L 2247 1797 
L 3578 0 
L 2900 0 
L 1881 1375 
L 863 0 
L 184 0 
L 1544 1831 
L 300 3500 
L 978 3500 
L 1906 2253 
L 2834 3500 
L 3513 3500 
z
" transform="scale(0.015625)"/>
       <path id="DejaVuSans-70" d="M 1159 525 
L 1159 -1331 
L 581 -1331 
L 581 3500 
L 1159 3500 
L 1159 2969 
Q 1341 3281 1617 3432 
Q 1894 3584 2278 3584 
Q 2916 3584 3314 3078 
Q 3713 2572 3713 1747 
Q 3713 922 3314 415 
Q 2916 -91 2278 -91 
Q 1894 -91 1617 61 
Q 1341 213 1159 525 
z
M 3116 1747 
Q 3116 2381 2855 2742 
Q 2594 3103 2138 3103 
Q 1681 3103 1420 2742 
Q 1159 2381 1159 1747 
Q 1159 1113 1420 752 
Q 1681 391 2138 391 
Q 2594 391 2855 752 
Q 3116 1113 3116 1747 
z
" transform="scale(0.015625)"/>
       <path id="DejaVuSans-63" d="M 3122 3366 
L 3122 2828 
Q 2878 2963 2633 3030 
Q 2388 3097 2138 3097 
Q 1578 3097 1268 2742 
Q 959 2388 959 1747 
Q 959 1106 1268 751 
Q 1578 397 2138 397 
Q 2388 397 2633 464 
Q 2878 531 3122 666 
L 3122 134 
Q 2881 22 2623 -34 
Q 2366 -91 2075 -91 
Q 1284 -91 818 406 
Q 353 903 353 1747 
Q 353 2603 823 3093 
Q 1294 3584 2113 3584 
Q 2378 3584 2631 3529 
Q 2884 3475 3122 3366 
z
" transform="scale(0.015625)"/>
       <path id="DejaVuSans-74" d="M 1172 4494 
L 1172 3500 
L 2356 3500 
L 2356 3053 
L 1172 3053 
L 1172 1153 
Q 1172 725 1289 603 
Q 1406 481 1766 481 
L 2356 481 
L 2356 0 
L 1766 0 
Q 1100 0 847 248 
Q 594 497 594 1153 
L 594 3053 
L 172 3053 
L 172 3500 
L 594 3500 
L 594 4494 
L 1172 4494 
z
" transform="scale(0.015625)"/>
       <path id="DejaVuSans-61" d="M 2194 1759 
Q 1497 1759 1228 1600 
Q 959 1441 959 1056 
Q 959 750 1161 570 
Q 1363 391 1709 391 
Q 2188 391 2477 730 
Q 2766 1069 2766 1631 
L 2766 1759 
L 2194 1759 
z
M 3341 1997 
L 3341 0 
L 2766 0 
L 2766 531 
Q 2569 213 2275 61 
Q 1981 -91 1556 -91 
Q 1019 -91 701 211 
Q 384 513 384 1019 
Q 384 1609 779 1909 
Q 1175 2209 1959 2209 
L 2766 2209 
L 2766 2266 
Q 2766 2663 2505 2880 
Q 2244 3097 1772 3097 
Q 1472 3097 1187 3025 
Q 903 2953 641 2809 
L 641 3341 
Q 956 3463 1253 3523 
Q 1550 3584 1831 3584 
Q 2591 3584 2966 3190 
Q 3341 2797 3341 1997 
z
" transform="scale(0.015625)"/>
       <path id="DejaVuSans-6e" d="M 3513 2113 
L 3513 0 
L 2938 0 
L 2938 2094 
Q 2938 2591 2744 2837 
Q 2550 3084 2163 3084 
Q 1697 3084 1428 2787 
Q 1159 2491 1159 1978 
L 1159 0 
L 581 0 
L 581 3500 
L 1159 3500 
L 1159 2956 
Q 1366 3272 1645 3428 
Q 1925 3584 2291 3584 
Q 2894 3584 3203 3211 
Q 3513 2838 3513 2113 
z
" transform="scale(0.015625)"/>
       <path id="DejaVuSans-79" d="M 2059 -325 
Q 1816 -950 1584 -1140 
Q 1353 -1331 966 -1331 
L 506 -1331 
L 506 -850 
L 844 -850 
Q 1081 -850 1212 -737 
Q 1344 -625 1503 -206 
L 1606 56 
L 191 3500 
L 800 3500 
L 1894 763 
L 2988 3500 
L 3597 3500 
L 2059 -325 
z
" transform="scale(0.015625)"/>
      </defs>
      <use xlink:href="#DejaVuSans-4c"/>
      <use xlink:href="#DejaVuSans-69" x="55.712891"/>
      <use xlink:href="#DejaVuSans-66" x="83.496094"/>
      <use xlink:href="#DejaVuSans-65" x="118.701172"/>
      <use xlink:href="#DejaVuSans-20" x="180.224609"/>
      <use xlink:href="#DejaVuSans-45" x="212.011719"/>
      <use xlink:href="#DejaVuSans-78" x="275.195312"/>
      <use xlink:href="#DejaVuSans-70" x="334.375"/>
      <use xlink:href="#DejaVuSans-65" x="397.851562"/>
      <use xlink:href="#DejaVuSans-63" x="459.375"/>
      <use xlink:href="#DejaVuSans-74" x="514.355469"/>
      <use xlink:href="#DejaVuSans-61" x="553.564453"/>
      <use xlink:href="#DejaVuSans-6e" x="614.84375"/>
      <use xlink:href="#DejaVuSans-63" x="678.222656"/>
      <use xlink:href="#DejaVuSans-79" x="733.203125"/>
     </g>
    </g>
   </g>
   <g id="matplotlib.axis_2">
    <g id="ytick_1">
     <g id="line2d_10">
      <defs>
       <path id="m4dd0584766" d="M 0 0 
L -3.5 0 
" style="stroke: #000000; stroke-width: 0.8"/>
      </defs>
      <g>
       <use xlink:href="#m4dd0584766" x="57.6" y="307.584" style="stroke: #000000; stroke-width: 0.8"/>
      </g>
     </g>
     <g id="text_11">
      <!-- 0 -->
      <g transform="translate(44.2375 311.383219) scale(0.1 -0.1)">
       <use xlink:href="#DejaVuSans-30"/>
      </g>
     </g>
    </g>
    <g id="ytick_2">
     <g id="line2d_11">
      <g>
       <use xlink:href="#m4dd0584766" x="57.6" y="261.002523" style="stroke: #000000; stroke-width: 0.8"/>
      </g>
     </g>
     <g id="text_12">
      <!-- 1 -->
      <g transform="translate(44.2375 264.801742) scale(0.1 -0.1)">
       <defs>
        <path id="DejaVuSans-31" d="M 794 531 
L 1825 531 
L 1825 4091 
L 703 3866 
L 703 4441 
L 1819 4666 
L 2450 4666 
L 2450 531 
L 3481 531 
L 3481 0 
L 794 0 
L 794 531 
z
" transform="scale(0.015625)"/>
       </defs>
       <use xlink:href="#DejaVuSans-31"/>
      </g>
     </g>
    </g>
    <g id="ytick_3">
     <g id="line2d_12">
      <g>
       <use xlink:href="#m4dd0584766" x="57.6" y="214.421047" style="stroke: #000000; stroke-width: 0.8"/>
      </g>
     </g>
     <g id="text_13">
      <!-- 2 -->
      <g transform="translate(44.2375 218.220265) scale(0.1 -0.1)">
       <use xlink:href="#DejaVuSans-32"/>
      </g>
     </g>
    </g>
    <g id="ytick_4">
     <g id="line2d_13">
      <g>
       <use xlink:href="#m4dd0584766" x="57.6" y="167.83957" style="stroke: #000000; stroke-width: 0.8"/>
      </g>
     </g>
     <g id="text_14">
      <!-- 3 -->
      <g transform="translate(44.2375 171.638789) scale(0.1 -0.1)">
       <defs>
        <path id="DejaVuSans-33" d="M 2597 2516 
Q 3050 2419 3304 2112 
Q 3559 1806 3559 1356 
Q 3559 666 3084 287 
Q 2609 -91 1734 -91 
Q 1441 -91 1130 -33 
Q 819 25 488 141 
L 488 750 
Q 750 597 1062 519 
Q 1375 441 1716 441 
Q 2309 441 2620 675 
Q 2931 909 2931 1356 
Q 2931 1769 2642 2001 
Q 2353 2234 1838 2234 
L 1294 2234 
L 1294 2753 
L 1863 2753 
Q 2328 2753 2575 2939 
Q 2822 3125 2822 3475 
Q 2822 3834 2567 4026 
Q 2313 4219 1838 4219 
Q 1578 4219 1281 4162 
Q 984 4106 628 3988 
L 628 4550 
Q 988 4650 1302 4700 
Q 1616 4750 1894 4750 
Q 2613 4750 3031 4423 
Q 3450 4097 3450 3541 
Q 3450 3153 3228 2886 
Q 3006 2619 2597 2516 
z
" transform="scale(0.015625)"/>
       </defs>
       <use xlink:href="#DejaVuSans-33"/>
      </g>
     </g>
    </g>
    <g id="ytick_5">
     <g id="line2d_14">
      <g>
       <use xlink:href="#m4dd0584766" x="57.6" y="121.258093" style="stroke: #000000; stroke-width: 0.8"/>
      </g>
     </g>
     <g id="text_15">
      <!-- 4 -->
      <g transform="translate(44.2375 125.057312) scale(0.1 -0.1)">
       <defs>
        <path id="DejaVuSans-34" d="M 2419 4116 
L 825 1625 
L 2419 1625 
L 2419 4116 
z
M 2253 4666 
L 3047 4666 
L 3047 1625 
L 3713 1625 
L 3713 1100 
L 3047 1100 
L 3047 0 
L 2419 0 
L 2419 1100 
L 313 1100 
L 313 1709 
L 2253 4666 
z
" transform="scale(0.015625)"/>
       </defs>
       <use xlink:href="#DejaVuSans-34"/>
      </g>
     </g>
    </g>
    <g id="ytick_6">
     <g id="line2d_15">
      <g>
       <use xlink:href="#m4dd0584766" x="57.6" y="74.676617" style="stroke: #000000; stroke-width: 0.8"/>
      </g>
     </g>
     <g id="text_16">
      <!-- 5 -->
      <g transform="translate(44.2375 78.475836) scale(0.1 -0.1)">
       <use xlink:href="#DejaVuSans-35"/>
      </g>
     </g>
    </g>
    <g id="text_17">
     <!-- Other Meat Consumption -->
     <g transform="translate(38.157812 237.432687) rotate(-90) scale(0.1 -0.1)">
      <defs>
       <path id="DejaVuSans-4f" d="M 2522 4238 
Q 1834 4238 1429 3725 
Q 1025 3213 1025 2328 
Q 1025 1447 1429 934 
Q 1834 422 2522 422 
Q 3209 422 3611 934 
Q 4013 1447 4013 2328 
Q 4013 3213 3611 3725 
Q 3209 4238 2522 4238 
z
M 2522 4750 
Q 3503 4750 4090 4092 
Q 4678 3434 4678 2328 
Q 4678 1225 4090 567 
Q 3503 -91 2522 -91 
Q 1538 -91 948 565 
Q 359 1222 359 2328 
Q 359 3434 948 4092 
Q 1538 4750 2522 4750 
z
" transform="scale(0.015625)"/>
       <path id="DejaVuSans-68" d="M 3513 2113 
L 3513 0 
L 2938 0 
L 2938 2094 
Q 2938 2591 2744 2837 
Q 2550 3084 2163 3084 
Q 1697 3084 1428 2787 
Q 1159 2491 1159 1978 
L 1159 0 
L 581 0 
L 581 4863 
L 1159 4863 
L 1159 2956 
Q 1366 3272 1645 3428 
Q 1925 3584 2291 3584 
Q 2894 3584 3203 3211 
Q 3513 2838 3513 2113 
z
" transform="scale(0.015625)"/>
       <path id="DejaVuSans-72" d="M 2631 2963 
Q 2534 3019 2420 3045 
Q 2306 3072 2169 3072 
Q 1681 3072 1420 2755 
Q 1159 2438 1159 1844 
L 1159 0 
L 581 0 
L 581 3500 
L 1159 3500 
L 1159 2956 
Q 1341 3275 1631 3429 
Q 1922 3584 2338 3584 
Q 2397 3584 2469 3576 
Q 2541 3569 2628 3553 
L 2631 2963 
z
" transform="scale(0.015625)"/>
       <path id="DejaVuSans-4d" d="M 628 4666 
L 1569 4666 
L 2759 1491 
L 3956 4666 
L 4897 4666 
L 4897 0 
L 4281 0 
L 4281 4097 
L 3078 897 
L 2444 897 
L 1241 4097 
L 1241 0 
L 628 0 
L 628 4666 
z
" transform="scale(0.015625)"/>
       <path id="DejaVuSans-43" d="M 4122 4306 
L 4122 3641 
Q 3803 3938 3442 4084 
Q 3081 4231 2675 4231 
Q 1875 4231 1450 3742 
Q 1025 3253 1025 2328 
Q 1025 1406 1450 917 
Q 1875 428 2675 428 
Q 3081 428 3442 575 
Q 3803 722 4122 1019 
L 4122 359 
Q 3791 134 3420 21 
Q 3050 -91 2638 -91 
Q 1578 -91 968 557 
Q 359 1206 359 2328 
Q 359 3453 968 4101 
Q 1578 4750 2638 4750 
Q 3056 4750 3426 4639 
Q 3797 4528 4122 4306 
z
" transform="scale(0.015625)"/>
       <path id="DejaVuSans-6f" d="M 1959 3097 
Q 1497 3097 1228 2736 
Q 959 2375 959 1747 
Q 959 1119 1226 758 
Q 1494 397 1959 397 
Q 2419 397 2687 759 
Q 2956 1122 2956 1747 
Q 2956 2369 2687 2733 
Q 2419 3097 1959 3097 
z
M 1959 3584 
Q 2709 3584 3137 3096 
Q 3566 2609 3566 1747 
Q 3566 888 3137 398 
Q 2709 -91 1959 -91 
Q 1206 -91 779 398 
Q 353 888 353 1747 
Q 353 2609 779 3096 
Q 1206 3584 1959 3584 
z
" transform="scale(0.015625)"/>
       <path id="DejaVuSans-73" d="M 2834 3397 
L 2834 2853 
Q 2591 2978 2328 3040 
Q 2066 3103 1784 3103 
Q 1356 3103 1142 2972 
Q 928 2841 928 2578 
Q 928 2378 1081 2264 
Q 1234 2150 1697 2047 
L 1894 2003 
Q 2506 1872 2764 1633 
Q 3022 1394 3022 966 
Q 3022 478 2636 193 
Q 2250 -91 1575 -91 
Q 1294 -91 989 -36 
Q 684 19 347 128 
L 347 722 
Q 666 556 975 473 
Q 1284 391 1588 391 
Q 1994 391 2212 530 
Q 2431 669 2431 922 
Q 2431 1156 2273 1281 
Q 2116 1406 1581 1522 
L 1381 1569 
Q 847 1681 609 1914 
Q 372 2147 372 2553 
Q 372 3047 722 3315 
Q 1072 3584 1716 3584 
Q 2034 3584 2315 3537 
Q 2597 3491 2834 3397 
z
" transform="scale(0.015625)"/>
       <path id="DejaVuSans-75" d="M 544 1381 
L 544 3500 
L 1119 3500 
L 1119 1403 
Q 1119 906 1312 657 
Q 1506 409 1894 409 
Q 2359 409 2629 706 
Q 2900 1003 2900 1516 
L 2900 3500 
L 3475 3500 
L 3475 0 
L 2900 0 
L 2900 538 
Q 2691 219 2414 64 
Q 2138 -91 1772 -91 
Q 1169 -91 856 284 
Q 544 659 544 1381 
z
M 1991 3584 
L 1991 3584 
z
" transform="scale(0.015625)"/>
       <path id="DejaVuSans-6d" d="M 3328 2828 
Q 3544 3216 3844 3400 
Q 4144 3584 4550 3584 
Q 5097 3584 5394 3201 
Q 5691 2819 5691 2113 
L 5691 0 
L 5113 0 
L 5113 2094 
Q 5113 2597 4934 2840 
Q 4756 3084 4391 3084 
Q 3944 3084 3684 2787 
Q 3425 2491 3425 1978 
L 3425 0 
L 2847 0 
L 2847 2094 
Q 2847 2600 2669 2842 
Q 2491 3084 2119 3084 
Q 1678 3084 1418 2786 
Q 1159 2488 1159 1978 
L 1159 0 
L 581 0 
L 581 3500 
L 1159 3500 
L 1159 2956 
Q 1356 3278 1631 3431 
Q 1906 3584 2284 3584 
Q 2666 3584 2933 3390 
Q 3200 3197 3328 2828 
z
" transform="scale(0.015625)"/>
      </defs>
      <use xlink:href="#DejaVuSans-4f"/>
      <use xlink:href="#DejaVuSans-74" x="78.710938"/>
      <use xlink:href="#DejaVuSans-68" x="117.919922"/>
      <use xlink:href="#DejaVuSans-65" x="181.298828"/>
      <use xlink:href="#DejaVuSans-72" x="242.822266"/>
      <use xlink:href="#DejaVuSans-20" x="283.935547"/>
      <use xlink:href="#DejaVuSans-4d" x="315.722656"/>
      <use xlink:href="#DejaVuSans-65" x="402.001953"/>
      <use xlink:href="#DejaVuSans-61" x="463.525391"/>
      <use xlink:href="#DejaVuSans-74" x="524.804688"/>
      <use xlink:href="#DejaVuSans-20" x="564.013672"/>
      <use xlink:href="#DejaVuSans-43" x="595.800781"/>
      <use xlink:href="#DejaVuSans-6f" x="665.625"/>
      <use xlink:href="#DejaVuSans-6e" x="726.806641"/>
      <use xlink:href="#DejaVuSans-73" x="790.185547"/>
      <use xlink:href="#DejaVuSans-75" x="842.285156"/>
      <use xlink:href="#DejaVuSans-6d" x="905.664062"/>
      <use xlink:href="#DejaVuSans-70" x="1003.076172"/>
      <use xlink:href="#DejaVuSans-74" x="1066.552734"/>
      <use xlink:href="#DejaVuSans-69" x="1105.761719"/>
      <use xlink:href="#DejaVuSans-6f" x="1133.544922"/>
      <use xlink:href="#DejaVuSans-6e" x="1194.726562"/>
     </g>
    </g>
   </g>
   <g id="PathCollection_8"/>
   <g id="PathCollection_9">
    <path d="M 187.502636 41.472 
L 187.502636 44.16 
L 187.502636 46.848 
L 187.502636 49.536 
L 187.502636 52.224 
L 187.502636 54.912 
L 187.502636 57.6 
L 187.502636 60.288 
L 187.502636 62.976 
L 187.502636 65.664 
L 187.502636 68.352 
L 187.502636 71.04 
L 187.502636 73.728 
L 187.502636 74.589 
" clip-path="url(#p6ae046c85a)" style="fill: none; stroke: #000000; stroke-width: 0.5"/>
    <path d="M 187.502636 110.499 
L 187.502636 111.36 
L 187.502636 114.048 
L 187.502636 116.736 
L 187.502636 119.424 
L 187.502636 122.112 
L 187.502636 124.8 
L 187.502636 127.488 
L 187.502636 130.176 
L 187.502636 132.864 
L 187.502636 135.552 
L 187.502636 138.24 
L 187.502636 140.928 
L 187.502636 143.616 
L 187.502636 146.304 
L 187.502636 148.992 
L 187.502636 151.68 
L 187.502636 154.368 
L 187.502636 157.056 
L 187.502636 159.744 
L 187.502636 162.432 
L 187.502636 165.12 
L 187.502636 167.808 
L 187.502636 170.496 
L 187.502636 173.184 
L 187.502636 175.872 
L 187.502636 178.56 
L 187.502636 181.248 
L 187.502636 183.936 
L 187.502636 186.624 
L 187.502636 189.312 
L 187.502636 192 
L 187.502636 194.688 
L 187.502636 197.376 
L 187.502636 200.064 
L 187.502636 202.752 
L 187.502636 205.44 
L 187.502636 208.128 
L 187.502636 210.816 
L 187.502636 213.504 
L 187.502636 216.192 
L 187.502636 218.88 
L 187.502636 221.568 
L 187.502636 224.256 
L 187.502636 226.944 
L 187.502636 229.632 
L 187.502636 232.32 
L 187.502636 235.008 
L 187.502636 237.696 
L 187.502636 240.384 
L 187.502636 243.072 
L 187.502636 245.76 
L 187.502636 248.448 
L 187.502636 251.136 
L 187.502636 253.824 
L 187.502636 256.512 
L 187.502636 259.2 
L 187.502636 261.888 
L 187.502636 264.576 
L 188.016093 267.264 
L 188.016093 269.952 
L 188.016093 272.64 
L 188.016093 275.328 
L 188.016093 278.016 
L 188.016093 280.704 
L 188.016093 283.392 
L 188.016093 286.08 
L 187.727297 288.768 
L 187.636305 291.456 
L 187.636305 294.144 
L 187.636305 296.832 
L 187.461818 297.056259 
L 183.854545 298.269418 
L 180.247273 298.269418 
L 177.56167 299.52 
L 177.56167 302.208 
L 177.56167 304.896 
L 177.56167 307.584 
" clip-path="url(#p6ae046c85a)" style="fill: none; stroke: #000000; stroke-width: 0.5"/>
   </g>
   <g id="PathCollection_10">
    <path d="M 197.038941 41.472 
L 197.038941 44.16 
L 197.038941 46.848 
L 197.038941 49.536 
L 197.038941 52.224 
L 197.038941 54.912 
L 197.038941 57.6 
L 197.038941 60.288 
L 197.038941 62.976 
L 197.038941 65.664 
L 197.038941 68.352 
L 197.038941 71.04 
L 197.038941 73.728 
L 197.038941 76.416 
L 197.038941 79.104 
L 197.038941 81.792 
L 197.038941 84.48 
L 197.038941 87.168 
L 197.038941 89.856 
L 197.038941 92.544 
L 197.038941 95.232 
L 197.038941 97.92 
L 197.038941 100.608 
L 197.038941 103.296 
L 197.038941 105.984 
L 197.038941 108.672 
L 197.038941 111.36 
L 197.038941 114.048 
L 197.038941 116.736 
L 197.038941 119.424 
L 197.038941 122.112 
L 197.038941 124.8 
L 197.038941 127.488 
L 197.038941 130.176 
L 197.038941 132.864 
L 197.038941 135.552 
L 197.038941 138.24 
L 197.038941 140.928 
L 197.038941 143.616 
L 197.038941 146.304 
L 197.038941 148.992 
L 197.038941 151.68 
L 197.038941 154.368 
L 197.038941 157.056 
L 197.038941 159.744 
L 197.038941 162.432 
L 197.038941 165.12 
L 197.038941 167.808 
L 197.038941 170.496 
L 197.038941 173.184 
L 197.038941 175.872 
L 197.038941 178.56 
L 197.038941 179.421 
" clip-path="url(#p6ae046c85a)" style="fill: none; stroke: #000000; stroke-width: 0.5"/>
    <path d="M 197.038941 215.331 
L 197.038941 216.192 
L 197.038941 218.88 
L 197.038941 221.568 
L 197.038941 224.256 
L 197.038941 226.944 
L 197.038941 229.632 
L 197.038941 232.32 
L 197.038941 235.008 
L 197.038941 237.696 
L 197.038941 240.384 
L 197.038941 243.072 
L 197.038941 245.76 
L 197.038941 248.448 
L 197.038941 251.136 
L 197.038941 253.824 
L 197.038941 256.512 
L 197.038941 259.2 
L 197.038941 261.888 
L 197.038941 264.576 
L 198.283636 266.454078 
L 201.890909 266.454078 
L 205.498182 266.454078 
L 209.105455 266.454078 
L 212.712727 266.454078 
L 216.32 266.454078 
L 217.311037 267.264 
L 217.311037 269.952 
L 217.311037 272.64 
L 217.311037 275.328 
L 217.311037 278.016 
L 217.311037 280.704 
L 217.311037 283.392 
L 217.311037 286.08 
L 216.32 287.519979 
L 212.712727 287.519979 
L 209.105455 287.519979 
L 205.498182 287.519979 
L 201.890909 287.519979 
L 198.283636 287.519979 
L 197.818417 288.768 
L 197.502713 291.456 
L 197.502713 294.144 
L 197.502713 296.832 
L 194.676364 297.878978 
L 193.423892 299.52 
L 193.423892 302.208 
L 193.423892 304.896 
L 193.423892 307.584 
" clip-path="url(#p6ae046c85a)" style="fill: none; stroke: #000000; stroke-width: 0.5"/>
   </g>
   <g id="PathCollection_11">
    <path d="M 307.515646 41.472 
L 307.515646 44.16 
L 307.515646 46.848 
L 307.515646 49.536 
L 307.515646 52.224 
L 307.515646 54.912 
L 307.515646 57.6 
L 307.515646 60.288 
L 307.515646 62.976 
L 307.515646 65.664 
L 307.515646 68.352 
L 307.515646 71.04 
L 307.515646 73.728 
L 307.515646 74.589 
" clip-path="url(#p6ae046c85a)" style="fill: none; stroke: #000000; stroke-width: 0.5"/>
    <path d="M 307.515646 110.499 
L 307.515646 111.36 
L 307.515646 114.048 
L 307.515646 116.736 
L 307.515646 119.424 
L 307.515646 122.112 
L 307.515646 124.8 
L 307.515646 127.488 
L 307.515646 130.176 
L 307.515646 132.864 
L 307.515646 135.552 
L 307.515646 138.24 
L 307.515646 140.928 
L 307.515646 143.616 
L 307.515646 146.304 
L 307.515646 148.992 
L 307.515646 151.68 
L 307.515646 154.368 
L 307.515646 157.056 
L 307.515646 159.744 
L 307.515646 162.432 
L 307.515646 165.12 
L 307.515646 167.808 
L 307.515646 170.496 
L 307.515646 173.184 
L 307.515646 175.872 
L 307.515646 178.56 
L 307.515646 181.248 
L 307.515646 183.936 
L 307.515646 186.624 
L 307.515646 189.312 
L 307.515646 192 
L 307.515646 194.688 
L 307.515646 197.376 
L 307.515646 200.064 
L 307.515646 202.752 
L 307.515646 205.44 
L 307.515646 208.128 
L 307.515646 210.816 
L 307.515646 213.504 
L 307.515646 216.192 
L 307.515646 218.88 
L 307.515646 221.568 
L 307.515646 224.256 
L 307.515646 226.944 
L 307.515646 229.632 
L 307.515646 232.32 
L 307.515646 235.008 
L 307.515646 237.696 
L 307.515646 240.384 
L 307.515646 243.072 
L 307.515646 245.76 
L 307.515646 248.448 
L 307.515646 251.136 
L 307.515646 253.824 
L 307.515646 256.512 
L 307.515646 259.2 
L 307.515646 261.888 
L 307.515646 264.576 
L 307.666491 267.264 
L 307.666491 269.952 
L 307.666491 272.64 
L 307.666491 275.328 
L 307.666491 278.016 
L 307.548409 280.704 
L 307.548409 283.392 
L 307.548409 286.08 
L 307.472168 288.768 
L 307.448146 291.456 
L 307.448146 294.144 
L 307.448146 296.832 
L 306.896016 299.52 
L 306.896016 302.208 
L 306.896016 304.896 
L 306.896016 307.584 
" clip-path="url(#p6ae046c85a)" style="fill: none; stroke: #000000; stroke-width: 0.5"/>
   </g>
   <g id="PathCollection_12">
    <path d="M 309.843805 41.472 
L 309.843805 44.16 
L 309.843805 46.848 
L 309.843805 49.536 
L 309.843805 52.224 
L 309.843805 54.912 
L 309.843805 57.6 
L 309.843805 60.288 
L 309.843805 62.976 
L 309.843805 65.664 
L 309.843805 68.352 
L 309.843805 71.04 
L 309.843805 73.728 
L 309.843805 76.416 
L 309.843805 79.104 
L 309.843805 81.792 
L 309.843805 84.48 
L 309.843805 87.168 
L 309.843805 89.856 
L 309.843805 92.544 
L 309.843805 95.232 
L 309.843805 97.92 
L 309.843805 100.608 
L 309.843805 103.296 
L 309.843805 105.984 
L 309.843805 108.672 
L 309.843805 111.36 
L 309.843805 114.048 
L 309.843805 116.736 
L 309.843805 119.424 
L 309.843805 122.112 
L 309.843805 124.8 
L 309.843805 127.488 
L 309.843805 130.176 
L 309.843805 132.864 
L 309.843805 135.552 
L 309.843805 138.24 
L 309.843805 140.928 
L 309.843805 143.616 
L 309.843805 146.304 
L 309.843805 148.992 
L 309.843805 151.68 
L 309.843805 154.368 
L 309.843805 157.056 
L 309.843805 159.744 
L 309.843805 162.432 
L 309.843805 165.12 
L 309.843805 167.808 
L 309.843805 170.496 
L 309.843805 173.184 
L 309.843805 175.872 
L 309.843805 178.56 
L 309.843805 179.421 
" clip-path="url(#p6ae046c85a)" style="fill: none; stroke: #000000; stroke-width: 0.5"/>
    <path d="M 309.843805 215.331 
L 309.843805 216.192 
L 309.843805 218.88 
L 309.843805 221.568 
L 309.843805 224.256 
L 309.843805 226.944 
L 309.843805 229.632 
L 309.843805 232.32 
L 309.843805 235.008 
L 309.843805 237.696 
L 309.843805 240.384 
L 309.843805 243.072 
L 309.843805 245.76 
L 309.843805 248.448 
L 309.843805 251.136 
L 309.843805 253.824 
L 309.843805 256.512 
L 309.843805 259.2 
L 309.843805 261.888 
L 309.843805 264.576 
L 309.99465 267.264 
L 309.99465 269.952 
L 309.99465 272.64 
L 309.99465 275.328 
L 309.99465 278.016 
L 309.640525 280.704 
L 309.640525 283.392 
L 309.640525 286.08 
L 309.564283 288.768 
L 309.540262 291.456 
L 309.540262 294.144 
L 309.540262 296.832 
L 308.988132 299.52 
L 308.988132 302.208 
L 308.988132 304.896 
L 308.988132 307.584 
" clip-path="url(#p6ae046c85a)" style="fill: none; stroke: #000000; stroke-width: 0.5"/>
   </g>
   <g id="PathCollection_13">
    <path d="M 339.612435 41.472 
L 339.612435 44.16 
L 339.612435 46.848 
L 339.612435 49.536 
L 339.612435 52.224 
L 339.612435 54.912 
L 339.612435 57.6 
L 339.612435 60.288 
L 339.612435 62.976 
L 339.612435 65.664 
L 339.612435 68.352 
L 339.612435 71.04 
L 339.612435 73.728 
L 339.612435 76.416 
L 339.612435 79.104 
L 339.612435 81.792 
L 339.612435 84.48 
L 339.612435 87.168 
L 339.612435 89.856 
L 339.612435 92.544 
L 339.612435 95.232 
L 339.612435 97.92 
L 339.612435 100.608 
L 339.612435 103.296 
L 339.612435 105.984 
L 339.612435 108.672 
L 339.612435 111.36 
L 339.612435 114.048 
L 339.612435 116.736 
L 339.612435 119.424 
L 339.612435 122.112 
L 339.612435 124.8 
L 339.612435 127.488 
L 339.612435 130.176 
L 339.612435 132.864 
L 339.612435 135.552 
L 339.612435 138.24 
L 339.612435 140.928 
L 339.612435 143.616 
L 339.612435 146.304 
L 339.612435 148.992 
L 339.612435 151.68 
L 339.612435 154.368 
L 339.612435 157.056 
L 339.612435 159.744 
L 339.612435 162.432 
L 339.612435 165.12 
L 339.612435 167.808 
L 339.612435 170.496 
L 339.612435 173.184 
L 339.612435 175.872 
L 339.612435 178.56 
L 339.612435 181.248 
L 339.612435 183.936 
L 339.612435 186.624 
L 339.612435 189.312 
L 339.612435 192 
L 339.612435 194.688 
L 339.612435 197.376 
L 339.612435 200.064 
L 339.612435 202.752 
L 339.612435 205.44 
L 339.612435 208.128 
L 339.612435 210.816 
L 339.612435 213.504 
L 339.612435 216.192 
L 339.612435 218.88 
L 339.612435 221.568 
L 339.612435 224.256 
L 339.612435 226.944 
L 339.612435 229.632 
L 339.612435 232.32 
L 339.612435 235.008 
L 339.612435 237.696 
L 339.612435 240.384 
L 339.612435 243.072 
L 339.612435 245.76 
L 339.612435 248.448 
L 339.612435 251.136 
L 339.612435 253.824 
L 339.612435 256.512 
L 339.612435 259.2 
L 339.612435 261.888 
L 339.612435 264.576 
L 339.782958 267.264 
L 339.782958 269.952 
L 339.782958 272.64 
L 339.782958 275.328 
L 339.782958 278.016 
L 339.322871 280.704 
L 339.322871 283.392 
L 339.322871 283.813809 
" clip-path="url(#p6ae046c85a)" style="fill: none; stroke: #000000; stroke-width: 0.5"/>
   </g>
   <g id="PathCollection_14">
    <path d="M 342.244321 41.472 
L 342.244321 44.16 
L 342.244321 46.848 
L 342.244321 49.536 
L 342.244321 52.224 
L 342.244321 54.912 
L 342.244321 57.6 
L 342.244321 60.288 
L 342.244321 62.976 
L 342.244321 65.664 
L 342.244321 68.352 
L 342.244321 71.04 
L 342.244321 73.728 
L 342.244321 74.589 
" clip-path="url(#p6ae046c85a)" style="fill: none; stroke: #000000; stroke-width: 0.5"/>
    <path d="M 342.244321 110.499 
L 342.244321 111.36 
L 342.244321 114.048 
L 342.244321 116.736 
L 342.244321 119.424 
L 342.244321 122.112 
L 342.244321 124.8 
L 342.244321 127.488 
L 342.244321 130.176 
L 342.244321 132.864 
L 342.244321 135.552 
L 342.244321 138.24 
L 342.244321 140.928 
L 342.244321 143.616 
L 342.244321 146.304 
L 342.244321 148.992 
L 342.244321 151.68 
L 342.244321 154.368 
L 342.244321 157.056 
L 342.244321 159.744 
L 342.244321 162.432 
L 342.244321 165.12 
L 342.244321 167.808 
L 342.244321 170.496 
L 342.244321 173.184 
L 342.244321 175.872 
L 342.244321 178.56 
L 342.244321 181.248 
L 342.244321 183.936 
L 342.244321 186.624 
L 342.244321 189.312 
L 342.244321 192 
L 342.244321 194.688 
L 342.244321 197.376 
L 342.244321 200.064 
L 342.244321 202.752 
L 342.244321 205.44 
L 342.244321 208.128 
L 342.244321 210.816 
L 342.244321 213.504 
L 342.244321 216.192 
L 342.244321 218.88 
L 342.244321 221.568 
L 342.244321 224.256 
L 342.244321 226.944 
L 342.244321 229.632 
L 342.244321 232.32 
L 342.244321 235.008 
L 342.244321 237.696 
L 342.244321 240.384 
L 342.244321 243.072 
L 342.244321 245.76 
L 342.244321 248.448 
L 342.244321 251.136 
L 342.244321 253.824 
L 342.244321 256.512 
L 342.244321 259.2 
L 342.244321 261.888 
L 342.244321 264.576 
L 342.414845 267.264 
L 342.414845 269.952 
L 342.414845 272.64 
L 342.414845 275.328 
L 342.414845 278.016 
L 341.954758 280.704 
L 341.954758 283.392 
L 341.954758 286.08 
L 341.858847 288.768 
L 341.828627 291.456 
L 341.828627 294.144 
L 341.828627 296.832 
L 341.134047 299.52 
L 341.134047 302.208 
L 341.134047 304.896 
L 341.134047 307.584 
" clip-path="url(#p6ae046c85a)" style="fill: none; stroke: #000000; stroke-width: 0.5"/>
   </g>
   <g id="PathCollection_15"/>
   <g id="LineCollection_1">
    <path d="M 85.987334 307.584 
L 85.987334 294.2784 
" clip-path="url(#p6ae046c85a)" style="fill: none; stroke: #000000; stroke-width: 1.5"/>
    <path d="M 129.70583 307.584 
L 129.70583 294.2784 
" clip-path="url(#p6ae046c85a)" style="fill: none; stroke: #000000; stroke-width: 1.5"/>
    <path d="M 182.470912 307.584 
L 182.470912 294.2784 
" clip-path="url(#p6ae046c85a)" style="fill: none; stroke: #000000; stroke-width: 1.5"/>
    <path d="M 231.640043 307.584 
L 231.640043 294.2784 
" clip-path="url(#p6ae046c85a)" style="fill: none; stroke: #000000; stroke-width: 1.5"/>
    <path d="M 258.939918 307.584 
L 258.939918 294.2784 
" clip-path="url(#p6ae046c85a)" style="fill: none; stroke: #000000; stroke-width: 1.5"/>
    <path d="M 295.613285 307.584 
L 295.613285 294.2784 
" clip-path="url(#p6ae046c85a)" style="fill: none; stroke: #000000; stroke-width: 1.5"/>
    <path d="M 321.692271 307.584 
L 321.692271 294.2784 
" clip-path="url(#p6ae046c85a)" style="fill: none; stroke: #000000; stroke-width: 1.5"/>
    <path d="M 358.005376 307.584 
L 358.005376 294.2784 
" clip-path="url(#p6ae046c85a)" style="fill: none; stroke: #000000; stroke-width: 1.5"/>
    <path d="M 401.870645 307.584 
L 401.870645 294.2784 
" clip-path="url(#p6ae046c85a)" style="fill: none; stroke: #000000; stroke-width: 1.5"/>
   </g>
   <g id="LineCollection_2">
    <path clip-path="url(#p6ae046c85a)" style="fill: none; stroke: #000000; stroke-width: 1.5"/>
    <path clip-path="url(#p6ae046c85a)" style="fill: none; stroke: #000000; stroke-width: 1.5"/>
    <path clip-path="url(#p6ae046c85a)" style="fill: none; stroke: #000000; stroke-width: 1.5"/>
    <path clip-path="url(#p6ae046c85a)" style="fill: none; stroke: #000000; stroke-width: 1.5"/>
    <path clip-path="url(#p6ae046c85a)" style="fill: none; stroke: #000000; stroke-width: 1.5"/>
    <path clip-path="url(#p6ae046c85a)" style="fill: none; stroke: #000000; stroke-width: 1.5"/>
    <path clip-path="url(#p6ae046c85a)" style="fill: none; stroke: #000000; stroke-width: 1.5"/>
    <path clip-path="url(#p6ae046c85a)" style="fill: none; stroke: #000000; stroke-width: 1.5"/>
    <path clip-path="url(#p6ae046c85a)" style="fill: none; stroke: #000000; stroke-width: 1.5"/>
   </g>
   <g id="patch_3">
    <path d="M 57.6 307.584 
L 57.6 41.472 
" style="fill: none; stroke: #000000; stroke-width: 0.8; stroke-linejoin: miter; stroke-linecap: square"/>
   </g>
   <g id="patch_4">
    <path d="M 414.72 307.584 
L 414.72 41.472 
" style="fill: none; stroke: #000000; stroke-width: 0.8; stroke-linejoin: miter; stroke-linecap: square"/>
   </g>
   <g id="patch_5">
    <path d="M 57.6 307.584 
L 414.72 307.584 
" style="fill: none; stroke: #000000; stroke-width: 0.8; stroke-linejoin: miter; stroke-linecap: square"/>
   </g>
   <g id="patch_6">
    <path d="M 57.6 41.472 
L 414.72 41.472 
" style="fill: none; stroke: #000000; stroke-width: 0.8; stroke-linejoin: miter; stroke-linecap: square"/>
   </g>
   <g id="text_18">
    <!-- 2D-partial dependency plot between LE and OM -->
    <g transform="translate(92.074688 35.472) scale(0.12 -0.12)">
     <defs>
      <path id="DejaVuSans-44" d="M 1259 4147 
L 1259 519 
L 2022 519 
Q 2988 519 3436 956 
Q 3884 1394 3884 2338 
Q 3884 3275 3436 3711 
Q 2988 4147 2022 4147 
L 1259 4147 
z
M 628 4666 
L 1925 4666 
Q 3281 4666 3915 4102 
Q 4550 3538 4550 2338 
Q 4550 1131 3912 565 
Q 3275 0 1925 0 
L 628 0 
L 628 4666 
z
" transform="scale(0.015625)"/>
      <path id="DejaVuSans-2d" d="M 313 2009 
L 1997 2009 
L 1997 1497 
L 313 1497 
L 313 2009 
z
" transform="scale(0.015625)"/>
      <path id="DejaVuSans-6c" d="M 603 4863 
L 1178 4863 
L 1178 0 
L 603 0 
L 603 4863 
z
" transform="scale(0.015625)"/>
      <path id="DejaVuSans-64" d="M 2906 2969 
L 2906 4863 
L 3481 4863 
L 3481 0 
L 2906 0 
L 2906 525 
Q 2725 213 2448 61 
Q 2172 -91 1784 -91 
Q 1150 -91 751 415 
Q 353 922 353 1747 
Q 353 2572 751 3078 
Q 1150 3584 1784 3584 
Q 2172 3584 2448 3432 
Q 2725 3281 2906 2969 
z
M 947 1747 
Q 947 1113 1208 752 
Q 1469 391 1925 391 
Q 2381 391 2643 752 
Q 2906 1113 2906 1747 
Q 2906 2381 2643 2742 
Q 2381 3103 1925 3103 
Q 1469 3103 1208 2742 
Q 947 2381 947 1747 
z
" transform="scale(0.015625)"/>
      <path id="DejaVuSans-62" d="M 3116 1747 
Q 3116 2381 2855 2742 
Q 2594 3103 2138 3103 
Q 1681 3103 1420 2742 
Q 1159 2381 1159 1747 
Q 1159 1113 1420 752 
Q 1681 391 2138 391 
Q 2594 391 2855 752 
Q 3116 1113 3116 1747 
z
M 1159 2969 
Q 1341 3281 1617 3432 
Q 1894 3584 2278 3584 
Q 2916 3584 3314 3078 
Q 3713 2572 3713 1747 
Q 3713 922 3314 415 
Q 2916 -91 2278 -91 
Q 1894 -91 1617 61 
Q 1341 213 1159 525 
L 1159 0 
L 581 0 
L 581 4863 
L 1159 4863 
L 1159 2969 
z
" transform="scale(0.015625)"/>
      <path id="DejaVuSans-77" d="M 269 3500 
L 844 3500 
L 1563 769 
L 2278 3500 
L 2956 3500 
L 3675 769 
L 4391 3500 
L 4966 3500 
L 4050 0 
L 3372 0 
L 2619 2869 
L 1863 0 
L 1184 0 
L 269 3500 
z
" transform="scale(0.015625)"/>
     </defs>
     <use xlink:href="#DejaVuSans-32"/>
     <use xlink:href="#DejaVuSans-44" x="63.623047"/>
     <use xlink:href="#DejaVuSans-2d" x="140.625"/>
     <use xlink:href="#DejaVuSans-70" x="176.708984"/>
     <use xlink:href="#DejaVuSans-61" x="240.185547"/>
     <use xlink:href="#DejaVuSans-72" x="301.464844"/>
     <use xlink:href="#DejaVuSans-74" x="342.578125"/>
     <use xlink:href="#DejaVuSans-69" x="381.787109"/>
     <use xlink:href="#DejaVuSans-61" x="409.570312"/>
     <use xlink:href="#DejaVuSans-6c" x="470.849609"/>
     <use xlink:href="#DejaVuSans-20" x="498.632812"/>
     <use xlink:href="#DejaVuSans-64" x="530.419922"/>
     <use xlink:href="#DejaVuSans-65" x="593.896484"/>
     <use xlink:href="#DejaVuSans-70" x="655.419922"/>
     <use xlink:href="#DejaVuSans-65" x="718.896484"/>
     <use xlink:href="#DejaVuSans-6e" x="780.419922"/>
     <use xlink:href="#DejaVuSans-64" x="843.798828"/>
     <use xlink:href="#DejaVuSans-65" x="907.275391"/>
     <use xlink:href="#DejaVuSans-6e" x="968.798828"/>
     <use xlink:href="#DejaVuSans-63" x="1032.177734"/>
     <use xlink:href="#DejaVuSans-79" x="1087.158203"/>
     <use xlink:href="#DejaVuSans-20" x="1146.337891"/>
     <use xlink:href="#DejaVuSans-70" x="1178.125"/>
     <use xlink:href="#DejaVuSans-6c" x="1241.601562"/>
     <use xlink:href="#DejaVuSans-6f" x="1269.384766"/>
     <use xlink:href="#DejaVuSans-74" x="1330.566406"/>
     <use xlink:href="#DejaVuSans-20" x="1369.775391"/>
     <use xlink:href="#DejaVuSans-62" x="1401.5625"/>
     <use xlink:href="#DejaVuSans-65" x="1465.039062"/>
     <use xlink:href="#DejaVuSans-74" x="1526.5625"/>
     <use xlink:href="#DejaVuSans-77" x="1565.771484"/>
     <use xlink:href="#DejaVuSans-65" x="1647.558594"/>
     <use xlink:href="#DejaVuSans-65" x="1709.082031"/>
     <use xlink:href="#DejaVuSans-6e" x="1770.605469"/>
     <use xlink:href="#DejaVuSans-20" x="1833.984375"/>
     <use xlink:href="#DejaVuSans-4c" x="1865.771484"/>
     <use xlink:href="#DejaVuSans-45" x="1921.484375"/>
     <use xlink:href="#DejaVuSans-20" x="1984.667969"/>
     <use xlink:href="#DejaVuSans-61" x="2016.455078"/>
     <use xlink:href="#DejaVuSans-6e" x="2077.734375"/>
     <use xlink:href="#DejaVuSans-64" x="2141.113281"/>
     <use xlink:href="#DejaVuSans-20" x="2204.589844"/>
     <use xlink:href="#DejaVuSans-4f" x="2236.376953"/>
     <use xlink:href="#DejaVuSans-4d" x="2315.087891"/>
    </g>
   </g>
   <g id="text_19">
    <g clip-path="url(#p6ae046c85a)">
     <!-- 12.25 -->
     <g transform="translate(184.743261 78.229937) rotate(-270) scale(0.1 -0.1)">
      <use xlink:href="#DejaVuSans-31"/>
      <use xlink:href="#DejaVuSans-32" x="63.623047"/>
      <use xlink:href="#DejaVuSans-2e" x="127.246094"/>
      <use xlink:href="#DejaVuSans-32" x="159.033203"/>
      <use xlink:href="#DejaVuSans-35" x="222.65625"/>
     </g>
    </g>
   </g>
   <g id="text_20">
    <g clip-path="url(#p6ae046c85a)">
     <!-- 12.52 -->
     <g transform="translate(194.279566 183.061937) rotate(-270) scale(0.1 -0.1)">
      <use xlink:href="#DejaVuSans-31"/>
      <use xlink:href="#DejaVuSans-32" x="63.623047"/>
      <use xlink:href="#DejaVuSans-2e" x="127.246094"/>
      <use xlink:href="#DejaVuSans-35" x="159.033203"/>
      <use xlink:href="#DejaVuSans-32" x="222.65625"/>
     </g>
    </g>
   </g>
   <g id="text_21">
    <g clip-path="url(#p6ae046c85a)">
     <!-- 12.80 -->
     <g transform="translate(304.756271 78.229937) rotate(-270) scale(0.1 -0.1)">
      <use xlink:href="#DejaVuSans-31"/>
      <use xlink:href="#DejaVuSans-32" x="63.623047"/>
      <use xlink:href="#DejaVuSans-2e" x="127.246094"/>
      <use xlink:href="#DejaVuSans-38" x="159.033203"/>
      <use xlink:href="#DejaVuSans-30" x="222.65625"/>
     </g>
    </g>
   </g>
   <g id="text_22">
    <g clip-path="url(#p6ae046c85a)">
     <!-- 13.07 -->
     <g transform="translate(307.08443 183.061937) rotate(-270) scale(0.1 -0.1)">
      <use xlink:href="#DejaVuSans-31"/>
      <use xlink:href="#DejaVuSans-33" x="63.623047"/>
      <use xlink:href="#DejaVuSans-2e" x="127.246094"/>
      <use xlink:href="#DejaVuSans-30" x="159.033203"/>
      <use xlink:href="#DejaVuSans-37" x="222.65625"/>
     </g>
    </g>
   </g>
   <g id="text_23">
    <g clip-path="url(#p6ae046c85a)">
     <!-- 13.34 -->
     <g transform="translate(335.367246 314.097602) rotate(-79.057066) scale(0.1 -0.1)">
      <use xlink:href="#DejaVuSans-31"/>
      <use xlink:href="#DejaVuSans-33" x="63.623047"/>
      <use xlink:href="#DejaVuSans-2e" x="127.246094"/>
      <use xlink:href="#DejaVuSans-33" x="159.033203"/>
      <use xlink:href="#DejaVuSans-34" x="222.65625"/>
     </g>
    </g>
   </g>
   <g id="text_24">
    <g clip-path="url(#p6ae046c85a)">
     <!-- 13.61 -->
     <g transform="translate(339.484946 78.229937) rotate(-270) scale(0.1 -0.1)">
      <use xlink:href="#DejaVuSans-31"/>
      <use xlink:href="#DejaVuSans-33" x="63.623047"/>
      <use xlink:href="#DejaVuSans-2e" x="127.246094"/>
      <use xlink:href="#DejaVuSans-36" x="159.033203"/>
      <use xlink:href="#DejaVuSans-31" x="222.65625"/>
     </g>
    </g>
   </g>
  </g>
 </g>
 <defs>
  <clipPath id="p6ae046c85a">
   <rect x="57.6" y="41.472" width="357.12" height="266.112"/>
  </clipPath>
 </defs>
</svg>
