<?xml version="1.0" encoding="utf-8" standalone="no"?>
<!DOCTYPE svg PUBLIC "-//W3C//DTD SVG 1.1//EN"
  "http://www.w3.org/Graphics/SVG/1.1/DTD/svg11.dtd">
<svg xmlns:xlink="http://www.w3.org/1999/xlink" width="460.8pt" height="345.6pt" viewBox="0 0 460.8 345.6" xmlns="http://www.w3.org/2000/svg" version="1.1">
 <metadata>
  <rdf:RDF xmlns:dc="http://purl.org/dc/elements/1.1/" xmlns:cc="http://creativecommons.org/ns#" xmlns:rdf="http://www.w3.org/1999/02/22-rdf-syntax-ns#">
   <cc:Work>
    <dc:type rdf:resource="http://purl.org/dc/dcmitype/StillImage"/>
    <dc:date>2024-04-22T00:29:10.977287</dc:date>
    <dc:format>image/svg+xml</dc:format>
    <dc:creator>
     <cc:Agent>
      <dc:title>Matplotlib v3.7.0, https://matplotlib.org/</dc:title>
     </cc:Agent>
    </dc:creator>
   </cc:Work>
  </rdf:RDF>
 </metadata>
 <defs>
  <style type="text/css">*{stroke-linejoin: round; stroke-linecap: butt}</style>
 </defs>
 <g id="figure_1">
  <g id="patch_1">
   <path d="M 0 345.6 
L 460.8 345.6 
L 460.8 0 
L 0 0 
L 0 345.6 
z
" style="fill: none"/>
  </g>
  <g id="axes_1"/>
  <g id="axes_2">
   <g id="patch_2">
    <path d="M 57.6 307.584 
L 414.72 307.584 
L 414.72 41.472 
L 57.6 41.472 
L 57.6 307.584 
z
" style="fill: none"/>
   </g>
   <g id="PathCollection_1">
    <path d="M 61.207273 307.584 
L 64.814545 307.584 
L 68.421818 307.584 
L 72.029091 307.584 
L 75.636364 307.584 
L 79.243636 307.584 
L 82.850909 307.584 
L 86.458182 307.584 
L 90.065455 307.584 
L 93.672727 307.584 
L 97.28 307.584 
L 100.887273 307.584 
L 104.494545 307.584 
L 108.101818 307.584 
L 111.709091 307.584 
L 115.316364 307.584 
L 118.923636 307.584 
L 122.530909 307.584 
L 126.138182 307.584 
L 129.745455 307.584 
L 133.352727 307.584 
L 136.96 307.584 
L 140.567273 307.584 
L 144.174545 307.584 
L 147.781818 307.584 
L 151.389091 307.584 
L 154.996364 307.584 
L 158.603636 307.584 
L 160.809081 307.584 
L 160.809081 291.525517 
L 160.809081 282.349241 
L 160.809081 280.055172 
L 160.809081 277.761103 
L 160.809081 275.467034 
L 160.809081 273.172966 
L 160.809081 270.878897 
L 160.809081 263.99669 
L 160.809081 261.702621 
L 160.809081 259.408552 
L 160.809081 257.114483 
L 160.809081 254.820414 
L 160.809081 252.526345 
L 160.809081 250.232276 
L 160.809081 247.938207 
L 160.809081 245.644138 
L 160.809081 243.350069 
L 160.809081 241.056 
L 160.809081 238.761931 
L 160.809081 234.173793 
L 160.809081 231.879724 
L 160.809081 229.585655 
L 160.809081 227.291586 
L 160.809081 224.997517 
L 160.809081 222.703448 
L 160.809081 220.409379 
L 160.809081 218.11531 
L 160.809081 213.527172 
L 158.603636 212.941168 
L 154.996364 212.941168 
L 151.389091 212.941168 
L 147.781818 212.941168 
L 144.174545 212.941168 
L 140.567273 212.941168 
L 136.96 212.941168 
L 133.352727 212.941168 
L 129.745455 212.941168 
L 126.138182 212.941168 
L 122.530909 212.941168 
L 118.923636 212.941168 
L 115.316364 212.941168 
L 111.709091 212.941168 
L 108.101818 212.941168 
L 104.494545 212.941168 
L 100.887273 212.941168 
L 97.28 212.941168 
L 93.672727 212.941168 
L 90.065455 212.941168 
L 86.458182 212.941168 
L 82.850909 212.941168 
L 79.243636 212.941168 
L 75.636364 212.941168 
L 72.029091 212.941168 
L 68.421818 212.941168 
L 64.814545 212.941168 
L 61.207273 212.941168 
L 57.6 212.941168 
L 57.6 213.527172 
L 57.6 218.11531 
L 57.6 220.409379 
L 57.6 222.703448 
L 57.6 224.997517 
L 57.6 227.291586 
L 57.6 229.585655 
L 57.6 231.879724 
L 57.6 234.173793 
L 57.6 238.761931 
L 57.6 241.056 
L 57.6 243.350069 
L 57.6 245.644138 
L 57.6 247.938207 
L 57.6 250.232276 
L 57.6 252.526345 
L 57.6 254.820414 
L 57.6 257.114483 
L 57.6 259.408552 
L 57.6 261.702621 
L 57.6 263.99669 
L 57.6 270.878897 
L 57.6 273.172966 
L 57.6 275.467034 
L 57.6 277.761103 
L 57.6 280.055172 
L 57.6 282.349241 
L 57.6 291.525517 
L 57.6 307.584 
z
" clip-path="url(#p60e26fed10)" style="fill: #481b6d; fill-opacity: 0.75"/>
   </g>
   <g id="PathCollection_2">
    <path d="M 162.210909 307.584 
L 165.818182 307.584 
L 169.425455 307.584 
L 173.032727 307.584 
L 176.64 307.584 
L 180.247273 307.584 
L 183.854545 307.584 
L 187.461818 307.584 
L 191.069091 307.584 
L 194.676364 307.584 
L 198.283636 307.584 
L 201.890909 307.584 
L 205.498182 307.584 
L 209.105455 307.584 
L 212.712727 307.584 
L 216.32 307.584 
L 219.927273 307.584 
L 223.534545 307.584 
L 227.141818 307.584 
L 230.749091 307.584 
L 234.356364 307.584 
L 237.963636 307.584 
L 241.570909 307.584 
L 245.178182 307.584 
L 248.785455 307.584 
L 252.392727 307.584 
L 256 307.584 
L 259.607273 307.584 
L 263.214545 307.584 
L 266.821818 307.584 
L 270.429091 307.584 
L 274.036364 307.584 
L 277.643636 307.584 
L 281.250909 307.584 
L 284.858182 307.584 
L 288.465455 307.584 
L 292.072727 307.584 
L 295.68 307.584 
L 299.287273 307.584 
L 302.894545 307.584 
L 306.501818 307.584 
L 310.109091 307.584 
L 313.716364 307.584 
L 317.323636 307.584 
L 320.930909 307.584 
L 324.538182 307.584 
L 328.145455 307.584 
L 331.752727 307.584 
L 335.36 307.584 
L 338.967273 307.584 
L 342.574545 307.584 
L 346.181818 307.584 
L 349.789091 307.584 
L 353.396364 307.584 
L 357.003636 307.584 
L 360.610909 307.584 
L 364.218182 307.584 
L 367.825455 307.584 
L 371.432727 307.584 
L 375.04 307.584 
L 378.647273 307.584 
L 382.254545 307.584 
L 385.861818 307.584 
L 389.469091 307.584 
L 393.076364 307.584 
L 396.683636 307.584 
L 400.290909 307.584 
L 403.898182 307.584 
L 407.505455 307.584 
L 411.112727 307.584 
L 414.72 307.584 
L 414.72 291.525517 
L 414.72 282.349241 
L 414.72 280.055172 
L 414.72 277.761103 
L 414.72 275.467034 
L 414.72 273.172966 
L 414.72 270.878897 
L 414.72 263.99669 
L 414.72 261.702621 
L 414.72 259.408552 
L 414.72 257.114483 
L 414.72 254.820414 
L 414.72 252.526345 
L 414.72 250.232276 
L 414.72 247.938207 
L 414.72 245.644138 
L 414.72 243.350069 
L 414.72 241.056 
L 414.72 238.761931 
L 414.72 234.173793 
L 414.72 231.879724 
L 414.72 229.585655 
L 414.72 227.291586 
L 414.72 224.997517 
L 414.72 222.703448 
L 414.72 220.409379 
L 414.72 218.11531 
L 414.72 213.527172 
L 414.72 213.040176 
L 411.112727 213.040176 
L 407.505455 213.040176 
L 403.898182 213.040176 
L 400.290909 213.040176 
L 396.683636 213.040176 
L 393.076364 213.040176 
L 389.469091 213.040176 
L 385.861818 213.040176 
L 382.254545 213.040176 
L 378.647273 213.040176 
L 375.04 213.040176 
L 371.432727 213.040176 
L 367.825455 213.040176 
L 364.218182 213.040176 
L 360.610909 213.040176 
L 357.003636 213.040176 
L 353.396364 213.040176 
L 349.789091 213.040176 
L 346.181818 213.040176 
L 342.574545 213.040176 
L 338.967273 213.040176 
L 335.36 213.040176 
L 331.752727 213.040176 
L 328.145455 213.040176 
L 324.538182 213.040176 
L 320.930909 213.040176 
L 317.323636 213.040176 
L 313.716364 213.040176 
L 310.109091 213.040176 
L 306.501818 213.040176 
L 302.894545 213.040176 
L 299.287273 213.040176 
L 295.68 213.040176 
L 292.072727 213.040176 
L 288.465455 213.040176 
L 284.858182 213.040176 
L 281.250909 213.040176 
L 277.643636 213.040176 
L 274.036364 213.040176 
L 270.429091 213.040176 
L 266.821818 213.040176 
L 263.214545 213.040176 
L 259.607273 213.040176 
L 256 213.040176 
L 252.392727 213.040176 
L 248.785455 213.040176 
L 245.178182 213.040176 
L 241.570909 213.040176 
L 237.963636 213.040176 
L 234.356364 213.040176 
L 230.749091 213.040176 
L 227.141818 213.040176 
L 223.534545 213.040176 
L 219.927273 213.040176 
L 216.32 213.040176 
L 212.712727 213.040176 
L 209.105455 213.040176 
L 205.498182 213.040176 
L 201.890909 213.040176 
L 198.283636 213.040176 
L 194.676364 213.040176 
L 191.069091 213.040176 
L 187.461818 213.040176 
L 183.854545 213.040176 
L 180.247273 213.040176 
L 176.64 213.040176 
L 173.032727 213.040176 
L 169.425455 213.040176 
L 165.818182 213.040176 
L 162.210909 213.040176 
L 158.603636 212.081694 
L 154.996364 212.081694 
L 151.389091 212.081694 
L 147.781818 212.081694 
L 144.174545 212.081694 
L 140.567273 212.081694 
L 136.96 212.081694 
L 133.352727 212.081694 
L 129.745455 212.081694 
L 126.138182 212.081694 
L 122.530909 212.081694 
L 118.923636 212.081694 
L 115.316364 212.081694 
L 111.709091 212.081694 
L 108.101818 212.081694 
L 104.494545 212.081694 
L 100.887273 212.081694 
L 97.28 212.081694 
L 93.672727 212.081694 
L 90.065455 212.081694 
L 86.458182 212.081694 
L 82.850909 212.081694 
L 79.243636 212.081694 
L 75.636364 212.081694 
L 72.029091 212.081694 
L 68.421818 212.081694 
L 64.814545 212.081694 
L 61.207273 212.081694 
L 57.6 212.081694 
L 57.6 212.941168 
L 61.207273 212.941168 
L 64.814545 212.941168 
L 68.421818 212.941168 
L 72.029091 212.941168 
L 75.636364 212.941168 
L 79.243636 212.941168 
L 82.850909 212.941168 
L 86.458182 212.941168 
L 90.065455 212.941168 
L 93.672727 212.941168 
L 97.28 212.941168 
L 100.887273 212.941168 
L 104.494545 212.941168 
L 108.101818 212.941168 
L 111.709091 212.941168 
L 115.316364 212.941168 
L 118.923636 212.941168 
L 122.530909 212.941168 
L 126.138182 212.941168 
L 129.745455 212.941168 
L 133.352727 212.941168 
L 136.96 212.941168 
L 140.567273 212.941168 
L 144.174545 212.941168 
L 147.781818 212.941168 
L 151.389091 212.941168 
L 154.996364 212.941168 
L 158.603636 212.941168 
L 160.809081 213.527172 
L 160.809081 218.11531 
L 160.809081 220.409379 
L 160.809081 222.703448 
L 160.809081 224.997517 
L 160.809081 227.291586 
L 160.809081 229.585655 
L 160.809081 231.879724 
L 160.809081 234.173793 
L 160.809081 238.761931 
L 160.809081 241.056 
L 160.809081 243.350069 
L 160.809081 245.644138 
L 160.809081 247.938207 
L 160.809081 250.232276 
L 160.809081 252.526345 
L 160.809081 254.820414 
L 160.809081 257.114483 
L 160.809081 259.408552 
L 160.809081 261.702621 
L 160.809081 263.99669 
L 160.809081 270.878897 
L 160.809081 273.172966 
L 160.809081 275.467034 
L 160.809081 277.761103 
L 160.809081 280.055172 
L 160.809081 282.349241 
L 160.809081 291.525517 
L 160.809081 307.584 
z
" clip-path="url(#p60e26fed10)" style="fill: #3f4788; fill-opacity: 0.75"/>
   </g>
   <g id="PathCollection_3">
    <path d="M 61.207273 212.081694 
L 64.814545 212.081694 
L 68.421818 212.081694 
L 72.029091 212.081694 
L 75.636364 212.081694 
L 79.243636 212.081694 
L 82.850909 212.081694 
L 86.458182 212.081694 
L 90.065455 212.081694 
L 93.672727 212.081694 
L 97.28 212.081694 
L 100.887273 212.081694 
L 104.494545 212.081694 
L 108.101818 212.081694 
L 111.709091 212.081694 
L 115.316364 212.081694 
L 118.923636 212.081694 
L 122.530909 212.081694 
L 126.138182 212.081694 
L 129.745455 212.081694 
L 133.352727 212.081694 
L 136.96 212.081694 
L 140.567273 212.081694 
L 144.174545 212.081694 
L 147.781818 212.081694 
L 151.389091 212.081694 
L 154.996364 212.081694 
L 158.603636 212.081694 
L 162.210909 213.040176 
L 165.818182 213.040176 
L 169.425455 213.040176 
L 173.032727 213.040176 
L 176.64 213.040176 
L 180.247273 213.040176 
L 183.854545 213.040176 
L 187.461818 213.040176 
L 191.069091 213.040176 
L 194.676364 213.040176 
L 198.283636 213.040176 
L 201.890909 213.040176 
L 205.498182 213.040176 
L 209.105455 213.040176 
L 212.712727 213.040176 
L 216.32 213.040176 
L 219.927273 213.040176 
L 223.534545 213.040176 
L 227.141818 213.040176 
L 230.749091 213.040176 
L 234.356364 213.040176 
L 237.963636 213.040176 
L 241.570909 213.040176 
L 245.178182 213.040176 
L 248.785455 213.040176 
L 252.392727 213.040176 
L 256 213.040176 
L 259.607273 213.040176 
L 263.214545 213.040176 
L 266.821818 213.040176 
L 270.429091 213.040176 
L 274.036364 213.040176 
L 277.643636 213.040176 
L 281.250909 213.040176 
L 284.858182 213.040176 
L 288.465455 213.040176 
L 292.072727 213.040176 
L 295.68 213.040176 
L 299.287273 213.040176 
L 302.894545 213.040176 
L 306.501818 213.040176 
L 310.109091 213.040176 
L 313.716364 213.040176 
L 317.323636 213.040176 
L 320.930909 213.040176 
L 324.538182 213.040176 
L 328.145455 213.040176 
L 331.752727 213.040176 
L 335.36 213.040176 
L 338.967273 213.040176 
L 342.574545 213.040176 
L 346.181818 213.040176 
L 349.789091 213.040176 
L 353.396364 213.040176 
L 357.003636 213.040176 
L 360.610909 213.040176 
L 364.218182 213.040176 
L 367.825455 213.040176 
L 371.432727 213.040176 
L 375.04 213.040176 
L 378.647273 213.040176 
L 382.254545 213.040176 
L 385.861818 213.040176 
L 389.469091 213.040176 
L 393.076364 213.040176 
L 396.683636 213.040176 
L 400.290909 213.040176 
L 403.898182 213.040176 
L 407.505455 213.040176 
L 411.112727 213.040176 
L 414.72 213.040176 
L 414.72 212.180702 
L 411.112727 212.180702 
L 407.505455 212.180702 
L 403.898182 212.180702 
L 400.290909 212.180702 
L 396.683636 212.180702 
L 393.076364 212.180702 
L 389.469091 212.180702 
L 385.861818 212.180702 
L 382.254545 212.180702 
L 378.647273 212.180702 
L 375.04 212.180702 
L 371.432727 212.180702 
L 367.825455 212.180702 
L 364.218182 212.180702 
L 360.610909 212.180702 
L 357.003636 212.180702 
L 353.396364 212.180702 
L 349.789091 212.180702 
L 346.181818 212.180702 
L 342.574545 212.180702 
L 338.967273 212.180702 
L 335.36 212.180702 
L 331.752727 212.180702 
L 328.145455 212.180702 
L 324.538182 212.180702 
L 320.930909 212.180702 
L 317.323636 212.180702 
L 313.716364 212.180702 
L 310.109091 212.180702 
L 306.501818 212.180702 
L 302.894545 212.180702 
L 299.287273 212.180702 
L 295.68 212.180702 
L 292.072727 212.180702 
L 288.465455 212.180702 
L 284.858182 212.180702 
L 281.250909 212.180702 
L 277.643636 212.180702 
L 274.036364 212.180702 
L 270.429091 212.180702 
L 266.821818 212.180702 
L 263.214545 212.180702 
L 259.607273 212.180702 
L 256 212.180702 
L 252.392727 212.180702 
L 248.785455 212.180702 
L 245.178182 212.180702 
L 241.570909 212.180702 
L 237.963636 212.180702 
L 234.356364 212.180702 
L 230.749091 212.180702 
L 227.141818 212.180702 
L 223.534545 212.180702 
L 219.927273 212.180702 
L 216.32 212.180702 
L 212.712727 212.180702 
L 209.105455 212.180702 
L 205.498182 212.180702 
L 201.890909 212.180702 
L 198.283636 212.180702 
L 194.676364 212.180702 
L 191.069091 212.180702 
L 187.461818 212.180702 
L 183.854545 212.180702 
L 180.247273 212.180702 
L 176.64 212.180702 
L 173.032727 212.180702 
L 169.425455 212.180702 
L 165.818182 212.180702 
L 162.210909 212.180702 
L 158.644597 211.233103 
L 158.644597 208.939034 
L 158.644597 206.644966 
L 158.603636 206.62244 
L 154.996364 206.62244 
L 151.389091 206.62244 
L 147.781818 206.62244 
L 144.174545 206.62244 
L 140.567273 206.62244 
L 136.96 206.62244 
L 133.352727 206.62244 
L 129.745455 206.62244 
L 126.138182 206.62244 
L 122.530909 206.62244 
L 118.923636 206.62244 
L 115.316364 206.62244 
L 111.709091 206.62244 
L 108.101818 206.62244 
L 104.494545 206.62244 
L 100.887273 206.62244 
L 97.28 206.62244 
L 93.672727 206.62244 
L 90.065455 206.62244 
L 86.458182 206.62244 
L 82.850909 206.62244 
L 79.243636 206.62244 
L 75.636364 206.62244 
L 72.029091 206.62244 
L 68.421818 206.62244 
L 64.814545 206.62244 
L 61.207273 206.62244 
L 57.6 206.62244 
L 57.6 206.644966 
L 57.6 208.939034 
L 57.6 211.233103 
L 57.6 212.081694 
z
" clip-path="url(#p60e26fed10)" style="fill: #2e6e8e; fill-opacity: 0.75"/>
   </g>
   <g id="PathCollection_4">
    <path d="M 162.210909 212.180702 
L 165.818182 212.180702 
L 169.425455 212.180702 
L 173.032727 212.180702 
L 176.64 212.180702 
L 180.247273 212.180702 
L 183.854545 212.180702 
L 187.461818 212.180702 
L 191.069091 212.180702 
L 194.676364 212.180702 
L 198.283636 212.180702 
L 201.890909 212.180702 
L 205.498182 212.180702 
L 209.105455 212.180702 
L 212.712727 212.180702 
L 216.32 212.180702 
L 219.927273 212.180702 
L 223.534545 212.180702 
L 227.141818 212.180702 
L 230.749091 212.180702 
L 234.356364 212.180702 
L 237.963636 212.180702 
L 241.570909 212.180702 
L 245.178182 212.180702 
L 248.785455 212.180702 
L 252.392727 212.180702 
L 256 212.180702 
L 259.607273 212.180702 
L 263.214545 212.180702 
L 266.821818 212.180702 
L 270.429091 212.180702 
L 274.036364 212.180702 
L 277.643636 212.180702 
L 281.250909 212.180702 
L 284.858182 212.180702 
L 288.465455 212.180702 
L 292.072727 212.180702 
L 295.68 212.180702 
L 299.287273 212.180702 
L 302.894545 212.180702 
L 306.501818 212.180702 
L 310.109091 212.180702 
L 313.716364 212.180702 
L 317.323636 212.180702 
L 320.930909 212.180702 
L 324.538182 212.180702 
L 328.145455 212.180702 
L 331.752727 212.180702 
L 335.36 212.180702 
L 338.967273 212.180702 
L 342.574545 212.180702 
L 346.181818 212.180702 
L 349.789091 212.180702 
L 353.396364 212.180702 
L 357.003636 212.180702 
L 360.610909 212.180702 
L 364.218182 212.180702 
L 367.825455 212.180702 
L 371.432727 212.180702 
L 375.04 212.180702 
L 378.647273 212.180702 
L 382.254545 212.180702 
L 385.861818 212.180702 
L 389.469091 212.180702 
L 393.076364 212.180702 
L 396.683636 212.180702 
L 400.290909 212.180702 
L 403.898182 212.180702 
L 407.505455 212.180702 
L 411.112727 212.180702 
L 414.72 212.180702 
L 414.72 211.321228 
L 411.112727 211.321228 
L 407.505455 211.321228 
L 403.898182 211.321228 
L 400.290909 211.321228 
L 396.683636 211.321228 
L 393.076364 211.321228 
L 389.469091 211.321228 
L 385.861818 211.321228 
L 382.254545 211.321228 
L 378.647273 211.321228 
L 375.04 211.321228 
L 371.432727 211.321228 
L 367.825455 211.321228 
L 364.218182 211.321228 
L 360.610909 211.321228 
L 357.003636 211.321228 
L 353.396364 211.321228 
L 349.789091 211.321228 
L 346.181818 211.321228 
L 342.574545 211.321228 
L 338.967273 211.321228 
L 335.36 211.321228 
L 331.752727 211.321228 
L 328.145455 211.321228 
L 324.538182 211.321228 
L 320.930909 211.321228 
L 317.323636 211.321228 
L 313.716364 211.321228 
L 310.109091 211.321228 
L 306.501818 211.321228 
L 302.894545 211.321228 
L 299.287273 211.321228 
L 295.68 211.321228 
L 292.072727 211.321228 
L 288.465455 211.321228 
L 284.858182 211.321228 
L 281.250909 211.321228 
L 277.643636 211.321228 
L 274.036364 211.321228 
L 270.429091 211.321228 
L 266.821818 211.321228 
L 263.214545 211.321228 
L 259.607273 211.321228 
L 256 211.321228 
L 252.392727 211.321228 
L 248.785455 211.321228 
L 245.178182 211.321228 
L 241.570909 211.321228 
L 237.963636 211.321228 
L 234.356364 211.321228 
L 230.749091 211.321228 
L 227.141818 211.321228 
L 223.534545 211.321228 
L 219.927273 211.321228 
L 216.32 211.321228 
L 212.712727 211.321228 
L 209.105455 211.321228 
L 205.498182 211.321228 
L 201.890909 211.321228 
L 198.283636 211.321228 
L 194.676364 211.321228 
L 191.069091 211.321228 
L 187.461818 211.321228 
L 183.854545 211.321228 
L 180.247273 211.321228 
L 176.64 211.321228 
L 173.032727 211.321228 
L 169.425455 211.321228 
L 165.818182 211.321228 
L 162.210909 211.321228 
L 161.87925 211.233103 
L 161.87925 208.939034 
L 161.87925 206.644966 
L 158.603636 204.843599 
L 154.996364 204.843599 
L 151.389091 204.843599 
L 147.781818 204.843599 
L 144.174545 204.843599 
L 140.567273 204.843599 
L 136.96 204.843599 
L 133.352727 204.843599 
L 129.745455 204.843599 
L 126.138182 204.843599 
L 122.530909 204.843599 
L 118.923636 204.843599 
L 115.316364 204.843599 
L 111.709091 204.843599 
L 108.101818 204.843599 
L 104.494545 204.843599 
L 100.887273 204.843599 
L 97.28 204.843599 
L 93.672727 204.843599 
L 90.065455 204.843599 
L 86.458182 204.843599 
L 82.850909 204.843599 
L 79.243636 204.843599 
L 75.636364 204.843599 
L 72.029091 204.843599 
L 68.421818 204.843599 
L 64.814545 204.843599 
L 61.207273 204.843599 
L 57.6 204.843599 
L 57.6 206.62244 
L 61.207273 206.62244 
L 64.814545 206.62244 
L 68.421818 206.62244 
L 72.029091 206.62244 
L 75.636364 206.62244 
L 79.243636 206.62244 
L 82.850909 206.62244 
L 86.458182 206.62244 
L 90.065455 206.62244 
L 93.672727 206.62244 
L 97.28 206.62244 
L 100.887273 206.62244 
L 104.494545 206.62244 
L 108.101818 206.62244 
L 111.709091 206.62244 
L 115.316364 206.62244 
L 118.923636 206.62244 
L 122.530909 206.62244 
L 126.138182 206.62244 
L 129.745455 206.62244 
L 133.352727 206.62244 
L 136.96 206.62244 
L 140.567273 206.62244 
L 144.174545 206.62244 
L 147.781818 206.62244 
L 151.389091 206.62244 
L 154.996364 206.62244 
L 158.603636 206.62244 
L 158.644597 206.644966 
L 158.644597 208.939034 
L 158.644597 211.233103 
z
" clip-path="url(#p60e26fed10)" style="fill: #21918c; fill-opacity: 0.75"/>
   </g>
   <g id="PathCollection_5">
    <path d="M 162.210909 211.321228 
L 165.818182 211.321228 
L 169.425455 211.321228 
L 173.032727 211.321228 
L 176.64 211.321228 
L 180.247273 211.321228 
L 183.854545 211.321228 
L 187.461818 211.321228 
L 191.069091 211.321228 
L 194.676364 211.321228 
L 198.283636 211.321228 
L 201.890909 211.321228 
L 205.498182 211.321228 
L 209.105455 211.321228 
L 212.712727 211.321228 
L 216.32 211.321228 
L 219.927273 211.321228 
L 223.534545 211.321228 
L 227.141818 211.321228 
L 230.749091 211.321228 
L 234.356364 211.321228 
L 237.963636 211.321228 
L 241.570909 211.321228 
L 245.178182 211.321228 
L 248.785455 211.321228 
L 252.392727 211.321228 
L 256 211.321228 
L 259.607273 211.321228 
L 263.214545 211.321228 
L 266.821818 211.321228 
L 270.429091 211.321228 
L 274.036364 211.321228 
L 277.643636 211.321228 
L 281.250909 211.321228 
L 284.858182 211.321228 
L 288.465455 211.321228 
L 292.072727 211.321228 
L 295.68 211.321228 
L 299.287273 211.321228 
L 302.894545 211.321228 
L 306.501818 211.321228 
L 310.109091 211.321228 
L 313.716364 211.321228 
L 317.323636 211.321228 
L 320.930909 211.321228 
L 324.538182 211.321228 
L 328.145455 211.321228 
L 331.752727 211.321228 
L 335.36 211.321228 
L 338.967273 211.321228 
L 342.574545 211.321228 
L 346.181818 211.321228 
L 349.789091 211.321228 
L 353.396364 211.321228 
L 357.003636 211.321228 
L 360.610909 211.321228 
L 364.218182 211.321228 
L 367.825455 211.321228 
L 371.432727 211.321228 
L 375.04 211.321228 
L 378.647273 211.321228 
L 382.254545 211.321228 
L 385.861818 211.321228 
L 389.469091 211.321228 
L 393.076364 211.321228 
L 396.683636 211.321228 
L 400.290909 211.321228 
L 403.898182 211.321228 
L 407.505455 211.321228 
L 411.112727 211.321228 
L 414.72 211.321228 
L 414.72 211.233103 
L 414.72 208.939034 
L 414.72 206.644966 
L 414.72 205.048515 
L 411.112727 205.048515 
L 407.505455 205.048515 
L 403.898182 205.048515 
L 400.290909 205.048515 
L 396.683636 205.048515 
L 393.076364 205.048515 
L 389.469091 205.048515 
L 385.861818 205.048515 
L 382.254545 205.048515 
L 378.647273 205.048515 
L 375.04 205.048515 
L 371.432727 205.048515 
L 367.825455 205.048515 
L 364.218182 205.048515 
L 360.610909 205.048515 
L 357.003636 205.048515 
L 353.396364 205.048515 
L 349.789091 205.048515 
L 346.181818 205.048515 
L 342.574545 205.048515 
L 338.967273 205.048515 
L 335.36 205.048515 
L 331.752727 205.048515 
L 328.145455 205.048515 
L 324.538182 205.048515 
L 320.930909 205.048515 
L 317.323636 205.048515 
L 313.716364 205.048515 
L 310.109091 205.048515 
L 306.501818 205.048515 
L 302.894545 205.048515 
L 299.287273 205.048515 
L 295.68 205.048515 
L 292.072727 205.048515 
L 288.465455 205.048515 
L 284.858182 205.048515 
L 281.250909 205.048515 
L 277.643636 205.048515 
L 274.036364 205.048515 
L 270.429091 205.048515 
L 266.821818 205.048515 
L 263.214545 205.048515 
L 259.607273 205.048515 
L 256 205.048515 
L 252.392727 205.048515 
L 248.785455 205.048515 
L 245.178182 205.048515 
L 241.570909 205.048515 
L 237.963636 205.048515 
L 234.356364 205.048515 
L 230.749091 205.048515 
L 227.141818 205.048515 
L 223.534545 205.048515 
L 219.927273 205.048515 
L 216.32 205.048515 
L 212.712727 205.048515 
L 209.105455 205.048515 
L 205.498182 205.048515 
L 201.890909 205.048515 
L 198.283636 205.048515 
L 194.676364 205.048515 
L 191.069091 205.048515 
L 187.461818 205.048515 
L 183.854545 205.048515 
L 180.247273 205.048515 
L 176.64 205.048515 
L 173.032727 205.048515 
L 169.425455 205.048515 
L 165.818182 205.048515 
L 162.210909 205.048515 
L 158.603636 203.064758 
L 154.996364 203.064758 
L 151.389091 203.064758 
L 147.781818 203.064758 
L 144.174545 203.064758 
L 140.567273 203.064758 
L 136.96 203.064758 
L 133.352727 203.064758 
L 129.745455 203.064758 
L 126.138182 203.064758 
L 122.530909 203.064758 
L 118.923636 203.064758 
L 115.316364 203.064758 
L 111.709091 203.064758 
L 108.101818 203.064758 
L 104.494545 203.064758 
L 100.887273 203.064758 
L 97.28 203.064758 
L 93.672727 203.064758 
L 90.065455 203.064758 
L 86.458182 203.064758 
L 82.850909 203.064758 
L 79.243636 203.064758 
L 75.636364 203.064758 
L 72.029091 203.064758 
L 68.421818 203.064758 
L 64.814545 203.064758 
L 61.207273 203.064758 
L 57.6 203.064758 
L 57.6 204.843599 
L 61.207273 204.843599 
L 64.814545 204.843599 
L 68.421818 204.843599 
L 72.029091 204.843599 
L 75.636364 204.843599 
L 79.243636 204.843599 
L 82.850909 204.843599 
L 86.458182 204.843599 
L 90.065455 204.843599 
L 93.672727 204.843599 
L 97.28 204.843599 
L 100.887273 204.843599 
L 104.494545 204.843599 
L 108.101818 204.843599 
L 111.709091 204.843599 
L 115.316364 204.843599 
L 118.923636 204.843599 
L 122.530909 204.843599 
L 126.138182 204.843599 
L 129.745455 204.843599 
L 133.352727 204.843599 
L 136.96 204.843599 
L 140.567273 204.843599 
L 144.174545 204.843599 
L 147.781818 204.843599 
L 151.389091 204.843599 
L 154.996364 204.843599 
L 158.603636 204.843599 
L 161.87925 206.644966 
L 161.87925 208.939034 
L 161.87925 211.233103 
z
" clip-path="url(#p60e26fed10)" style="fill: #2db27d; fill-opacity: 0.75"/>
   </g>
   <g id="PathCollection_6">
    <path d="M 61.207273 203.064758 
L 64.814545 203.064758 
L 68.421818 203.064758 
L 72.029091 203.064758 
L 75.636364 203.064758 
L 79.243636 203.064758 
L 82.850909 203.064758 
L 86.458182 203.064758 
L 90.065455 203.064758 
L 93.672727 203.064758 
L 97.28 203.064758 
L 100.887273 203.064758 
L 104.494545 203.064758 
L 108.101818 203.064758 
L 111.709091 203.064758 
L 115.316364 203.064758 
L 118.923636 203.064758 
L 122.530909 203.064758 
L 126.138182 203.064758 
L 129.745455 203.064758 
L 133.352727 203.064758 
L 136.96 203.064758 
L 140.567273 203.064758 
L 144.174545 203.064758 
L 147.781818 203.064758 
L 151.389091 203.064758 
L 154.996364 203.064758 
L 158.603636 203.064758 
L 162.210909 205.048515 
L 165.818182 205.048515 
L 169.425455 205.048515 
L 173.032727 205.048515 
L 176.64 205.048515 
L 180.247273 205.048515 
L 183.854545 205.048515 
L 187.461818 205.048515 
L 191.069091 205.048515 
L 194.676364 205.048515 
L 198.283636 205.048515 
L 201.890909 205.048515 
L 205.498182 205.048515 
L 209.105455 205.048515 
L 212.712727 205.048515 
L 216.32 205.048515 
L 219.927273 205.048515 
L 223.534545 205.048515 
L 227.141818 205.048515 
L 230.749091 205.048515 
L 234.356364 205.048515 
L 237.963636 205.048515 
L 241.570909 205.048515 
L 245.178182 205.048515 
L 248.785455 205.048515 
L 252.392727 205.048515 
L 256 205.048515 
L 259.607273 205.048515 
L 263.214545 205.048515 
L 266.821818 205.048515 
L 270.429091 205.048515 
L 274.036364 205.048515 
L 277.643636 205.048515 
L 281.250909 205.048515 
L 284.858182 205.048515 
L 288.465455 205.048515 
L 292.072727 205.048515 
L 295.68 205.048515 
L 299.287273 205.048515 
L 302.894545 205.048515 
L 306.501818 205.048515 
L 310.109091 205.048515 
L 313.716364 205.048515 
L 317.323636 205.048515 
L 320.930909 205.048515 
L 324.538182 205.048515 
L 328.145455 205.048515 
L 331.752727 205.048515 
L 335.36 205.048515 
L 338.967273 205.048515 
L 342.574545 205.048515 
L 346.181818 205.048515 
L 349.789091 205.048515 
L 353.396364 205.048515 
L 357.003636 205.048515 
L 360.610909 205.048515 
L 364.218182 205.048515 
L 367.825455 205.048515 
L 371.432727 205.048515 
L 375.04 205.048515 
L 378.647273 205.048515 
L 382.254545 205.048515 
L 385.861818 205.048515 
L 389.469091 205.048515 
L 393.076364 205.048515 
L 396.683636 205.048515 
L 400.290909 205.048515 
L 403.898182 205.048515 
L 407.505455 205.048515 
L 411.112727 205.048515 
L 414.72 205.048515 
L 414.72 203.269674 
L 411.112727 203.269674 
L 407.505455 203.269674 
L 403.898182 203.269674 
L 400.290909 203.269674 
L 396.683636 203.269674 
L 393.076364 203.269674 
L 389.469091 203.269674 
L 385.861818 203.269674 
L 382.254545 203.269674 
L 378.647273 203.269674 
L 375.04 203.269674 
L 371.432727 203.269674 
L 367.825455 203.269674 
L 364.218182 203.269674 
L 360.610909 203.269674 
L 357.003636 203.269674 
L 353.396364 203.269674 
L 349.789091 203.269674 
L 346.181818 203.269674 
L 342.574545 203.269674 
L 338.967273 203.269674 
L 335.36 203.269674 
L 331.752727 203.269674 
L 328.145455 203.269674 
L 324.538182 203.269674 
L 320.930909 203.269674 
L 317.323636 203.269674 
L 313.716364 203.269674 
L 310.109091 203.269674 
L 306.501818 203.269674 
L 302.894545 203.269674 
L 299.287273 203.269674 
L 295.68 203.269674 
L 292.072727 203.269674 
L 288.465455 203.269674 
L 284.858182 203.269674 
L 281.250909 203.269674 
L 277.643636 203.269674 
L 274.036364 203.269674 
L 270.429091 203.269674 
L 266.821818 203.269674 
L 263.214545 203.269674 
L 259.607273 203.269674 
L 256 203.269674 
L 252.392727 203.269674 
L 248.785455 203.269674 
L 245.178182 203.269674 
L 241.570909 203.269674 
L 237.963636 203.269674 
L 234.356364 203.269674 
L 230.749091 203.269674 
L 227.141818 203.269674 
L 223.534545 203.269674 
L 219.927273 203.269674 
L 216.32 203.269674 
L 212.712727 203.269674 
L 209.105455 203.269674 
L 205.498182 203.269674 
L 201.890909 203.269674 
L 198.283636 203.269674 
L 194.676364 203.269674 
L 191.069091 203.269674 
L 187.461818 203.269674 
L 183.854545 203.269674 
L 180.247273 203.269674 
L 176.64 203.269674 
L 173.032727 203.269674 
L 169.425455 203.269674 
L 165.818182 203.269674 
L 162.210909 203.269674 
L 160.005464 202.056828 
L 160.005464 199.762759 
L 160.005464 195.174621 
L 160.005464 192.880552 
L 160.005464 190.586483 
L 160.005464 188.292414 
L 160.005464 185.998345 
L 160.005464 183.704276 
L 160.005464 181.410207 
L 160.005464 179.116138 
L 160.005464 176.822069 
L 160.005464 174.528 
L 160.005464 172.233931 
L 160.005464 169.939862 
L 160.005464 167.645793 
L 160.005464 165.351724 
L 160.005464 163.057655 
L 160.005464 160.763586 
L 160.005464 158.469517 
L 160.005464 156.175448 
L 160.005464 153.881379 
L 160.005464 151.58731 
L 160.005464 149.293241 
L 160.005464 146.999172 
L 160.005464 144.705103 
L 160.005464 142.411034 
L 160.005464 140.116966 
L 160.005464 137.822897 
L 160.005464 135.528828 
L 160.005464 130.94069 
L 160.005464 128.646621 
L 160.005464 119.470345 
L 160.005464 117.176276 
L 160.005464 114.882207 
L 160.005464 112.588138 
L 160.005464 110.294069 
L 160.005464 101.117793 
L 160.005464 91.941517 
L 160.005464 41.472 
L 158.603636 41.472 
L 154.996364 41.472 
L 151.389091 41.472 
L 147.781818 41.472 
L 144.174545 41.472 
L 140.567273 41.472 
L 136.96 41.472 
L 133.352727 41.472 
L 129.745455 41.472 
L 126.138182 41.472 
L 122.530909 41.472 
L 118.923636 41.472 
L 115.316364 41.472 
L 111.709091 41.472 
L 108.101818 41.472 
L 104.494545 41.472 
L 100.887273 41.472 
L 97.28 41.472 
L 93.672727 41.472 
L 90.065455 41.472 
L 86.458182 41.472 
L 82.850909 41.472 
L 79.243636 41.472 
L 75.636364 41.472 
L 72.029091 41.472 
L 68.421818 41.472 
L 64.814545 41.472 
L 61.207273 41.472 
L 57.6 41.472 
L 57.6 91.941517 
L 57.6 101.117793 
L 57.6 110.294069 
L 57.6 112.588138 
L 57.6 114.882207 
L 57.6 117.176276 
L 57.6 119.470345 
L 57.6 128.646621 
L 57.6 130.94069 
L 57.6 135.528828 
L 57.6 137.822897 
L 57.6 140.116966 
L 57.6 142.411034 
L 57.6 144.705103 
L 57.6 146.999172 
L 57.6 149.293241 
L 57.6 151.58731 
L 57.6 153.881379 
L 57.6 156.175448 
L 57.6 158.469517 
L 57.6 160.763586 
L 57.6 163.057655 
L 57.6 165.351724 
L 57.6 167.645793 
L 57.6 169.939862 
L 57.6 172.233931 
L 57.6 174.528 
L 57.6 176.822069 
L 57.6 179.116138 
L 57.6 181.410207 
L 57.6 183.704276 
L 57.6 185.998345 
L 57.6 188.292414 
L 57.6 190.586483 
L 57.6 192.880552 
L 57.6 195.174621 
L 57.6 199.762759 
L 57.6 202.056828 
L 57.6 203.064758 
z
" clip-path="url(#p60e26fed10)" style="fill: #73d056; fill-opacity: 0.75"/>
   </g>
   <g id="PathCollection_7">
    <path d="M 162.210909 203.269674 
L 165.818182 203.269674 
L 169.425455 203.269674 
L 173.032727 203.269674 
L 176.64 203.269674 
L 180.247273 203.269674 
L 183.854545 203.269674 
L 187.461818 203.269674 
L 191.069091 203.269674 
L 194.676364 203.269674 
L 198.283636 203.269674 
L 201.890909 203.269674 
L 205.498182 203.269674 
L 209.105455 203.269674 
L 212.712727 203.269674 
L 216.32 203.269674 
L 219.927273 203.269674 
L 223.534545 203.269674 
L 227.141818 203.269674 
L 230.749091 203.269674 
L 234.356364 203.269674 
L 237.963636 203.269674 
L 241.570909 203.269674 
L 245.178182 203.269674 
L 248.785455 203.269674 
L 252.392727 203.269674 
L 256 203.269674 
L 259.607273 203.269674 
L 263.214545 203.269674 
L 266.821818 203.269674 
L 270.429091 203.269674 
L 274.036364 203.269674 
L 277.643636 203.269674 
L 281.250909 203.269674 
L 284.858182 203.269674 
L 288.465455 203.269674 
L 292.072727 203.269674 
L 295.68 203.269674 
L 299.287273 203.269674 
L 302.894545 203.269674 
L 306.501818 203.269674 
L 310.109091 203.269674 
L 313.716364 203.269674 
L 317.323636 203.269674 
L 320.930909 203.269674 
L 324.538182 203.269674 
L 328.145455 203.269674 
L 331.752727 203.269674 
L 335.36 203.269674 
L 338.967273 203.269674 
L 342.574545 203.269674 
L 346.181818 203.269674 
L 349.789091 203.269674 
L 353.396364 203.269674 
L 357.003636 203.269674 
L 360.610909 203.269674 
L 364.218182 203.269674 
L 367.825455 203.269674 
L 371.432727 203.269674 
L 375.04 203.269674 
L 378.647273 203.269674 
L 382.254545 203.269674 
L 385.861818 203.269674 
L 389.469091 203.269674 
L 393.076364 203.269674 
L 396.683636 203.269674 
L 400.290909 203.269674 
L 403.898182 203.269674 
L 407.505455 203.269674 
L 411.112727 203.269674 
L 414.72 203.269674 
L 414.72 202.056828 
L 414.72 199.762759 
L 414.72 195.174621 
L 414.72 192.880552 
L 414.72 190.586483 
L 414.72 188.292414 
L 414.72 185.998345 
L 414.72 183.704276 
L 414.72 181.410207 
L 414.72 179.116138 
L 414.72 176.822069 
L 414.72 174.528 
L 414.72 172.233931 
L 414.72 169.939862 
L 414.72 167.645793 
L 414.72 165.351724 
L 414.72 163.057655 
L 414.72 160.763586 
L 414.72 158.469517 
L 414.72 156.175448 
L 414.72 153.881379 
L 414.72 151.58731 
L 414.72 149.293241 
L 414.72 146.999172 
L 414.72 144.705103 
L 414.72 142.411034 
L 414.72 140.116966 
L 414.72 137.822897 
L 414.72 135.528828 
L 414.72 130.94069 
L 414.72 128.646621 
L 414.72 119.470345 
L 414.72 117.176276 
L 414.72 114.882207 
L 414.72 112.588138 
L 414.72 110.294069 
L 414.72 101.117793 
L 414.72 91.941517 
L 414.72 41.472 
L 411.112727 41.472 
L 407.505455 41.472 
L 403.898182 41.472 
L 400.290909 41.472 
L 396.683636 41.472 
L 393.076364 41.472 
L 389.469091 41.472 
L 385.861818 41.472 
L 382.254545 41.472 
L 378.647273 41.472 
L 375.04 41.472 
L 371.432727 41.472 
L 367.825455 41.472 
L 364.218182 41.472 
L 360.610909 41.472 
L 357.003636 41.472 
L 353.396364 41.472 
L 349.789091 41.472 
L 346.181818 41.472 
L 342.574545 41.472 
L 338.967273 41.472 
L 335.36 41.472 
L 331.752727 41.472 
L 328.145455 41.472 
L 324.538182 41.472 
L 320.930909 41.472 
L 317.323636 41.472 
L 313.716364 41.472 
L 310.109091 41.472 
L 306.501818 41.472 
L 302.894545 41.472 
L 299.287273 41.472 
L 295.68 41.472 
L 292.072727 41.472 
L 288.465455 41.472 
L 284.858182 41.472 
L 281.250909 41.472 
L 277.643636 41.472 
L 274.036364 41.472 
L 270.429091 41.472 
L 266.821818 41.472 
L 263.214545 41.472 
L 259.607273 41.472 
L 256 41.472 
L 252.392727 41.472 
L 248.785455 41.472 
L 245.178182 41.472 
L 241.570909 41.472 
L 237.963636 41.472 
L 234.356364 41.472 
L 230.749091 41.472 
L 227.141818 41.472 
L 223.534545 41.472 
L 219.927273 41.472 
L 216.32 41.472 
L 212.712727 41.472 
L 209.105455 41.472 
L 205.498182 41.472 
L 201.890909 41.472 
L 198.283636 41.472 
L 194.676364 41.472 
L 191.069091 41.472 
L 187.461818 41.472 
L 183.854545 41.472 
L 180.247273 41.472 
L 176.64 41.472 
L 173.032727 41.472 
L 169.425455 41.472 
L 165.818182 41.472 
L 162.210909 41.472 
L 160.005464 41.472 
L 160.005464 91.941517 
L 160.005464 101.117793 
L 160.005464 110.294069 
L 160.005464 112.588138 
L 160.005464 114.882207 
L 160.005464 117.176276 
L 160.005464 119.470345 
L 160.005464 128.646621 
L 160.005464 130.94069 
L 160.005464 135.528828 
L 160.005464 137.822897 
L 160.005464 140.116966 
L 160.005464 142.411034 
L 160.005464 144.705103 
L 160.005464 146.999172 
L 160.005464 149.293241 
L 160.005464 151.58731 
L 160.005464 153.881379 
L 160.005464 156.175448 
L 160.005464 158.469517 
L 160.005464 160.763586 
L 160.005464 163.057655 
L 160.005464 165.351724 
L 160.005464 167.645793 
L 160.005464 169.939862 
L 160.005464 172.233931 
L 160.005464 174.528 
L 160.005464 176.822069 
L 160.005464 179.116138 
L 160.005464 181.410207 
L 160.005464 183.704276 
L 160.005464 185.998345 
L 160.005464 188.292414 
L 160.005464 190.586483 
L 160.005464 192.880552 
L 160.005464 195.174621 
L 160.005464 199.762759 
L 160.005464 202.056828 
z
" clip-path="url(#p60e26fed10)" style="fill: #d0e11c; fill-opacity: 0.75"/>
   </g>
   <g id="matplotlib.axis_1">
    <g id="xtick_1">
     <g id="line2d_1">
      <defs>
       <path id="me13c32627c" d="M 0 0 
L 0 3.5 
" style="stroke: #000000; stroke-width: 0.8"/>
      </defs>
      <g>
       <use xlink:href="#me13c32627c" x="63.755427" y="307.584" style="stroke: #000000; stroke-width: 0.8"/>
      </g>
     </g>
     <g id="text_1">
      <!-- 0.05 -->
      <g transform="translate(52.622615 322.182437) scale(0.1 -0.1)">
       <defs>
        <path id="DejaVuSans-30" d="M 2034 4250 
Q 1547 4250 1301 3770 
Q 1056 3291 1056 2328 
Q 1056 1369 1301 889 
Q 1547 409 2034 409 
Q 2525 409 2770 889 
Q 3016 1369 3016 2328 
Q 3016 3291 2770 3770 
Q 2525 4250 2034 4250 
z
M 2034 4750 
Q 2819 4750 3233 4129 
Q 3647 3509 3647 2328 
Q 3647 1150 3233 529 
Q 2819 -91 2034 -91 
Q 1250 -91 836 529 
Q 422 1150 422 2328 
Q 422 3509 836 4129 
Q 1250 4750 2034 4750 
z
" transform="scale(0.015625)"/>
        <path id="DejaVuSans-2e" d="M 684 794 
L 1344 794 
L 1344 0 
L 684 0 
L 684 794 
z
" transform="scale(0.015625)"/>
        <path id="DejaVuSans-35" d="M 691 4666 
L 3169 4666 
L 3169 4134 
L 1269 4134 
L 1269 2991 
Q 1406 3038 1543 3061 
Q 1681 3084 1819 3084 
Q 2600 3084 3056 2656 
Q 3513 2228 3513 1497 
Q 3513 744 3044 326 
Q 2575 -91 1722 -91 
Q 1428 -91 1123 -41 
Q 819 9 494 109 
L 494 744 
Q 775 591 1075 516 
Q 1375 441 1709 441 
Q 2250 441 2565 725 
Q 2881 1009 2881 1497 
Q 2881 1984 2565 2268 
Q 2250 2553 1709 2553 
Q 1456 2553 1204 2497 
Q 953 2441 691 2322 
L 691 4666 
z
" transform="scale(0.015625)"/>
       </defs>
       <use xlink:href="#DejaVuSans-30"/>
       <use xlink:href="#DejaVuSans-2e" x="63.623047"/>
       <use xlink:href="#DejaVuSans-30" x="95.410156"/>
       <use xlink:href="#DejaVuSans-35" x="159.033203"/>
      </g>
     </g>
    </g>
    <g id="xtick_2">
     <g id="line2d_2">
      <g>
       <use xlink:href="#me13c32627c" x="129.518539" y="307.584" style="stroke: #000000; stroke-width: 0.8"/>
      </g>
     </g>
     <g id="text_2">
      <!-- 0.10 -->
      <g transform="translate(118.385726 322.182437) scale(0.1 -0.1)">
       <defs>
        <path id="DejaVuSans-31" d="M 794 531 
L 1825 531 
L 1825 4091 
L 703 3866 
L 703 4441 
L 1819 4666 
L 2450 4666 
L 2450 531 
L 3481 531 
L 3481 0 
L 794 0 
L 794 531 
z
" transform="scale(0.015625)"/>
       </defs>
       <use xlink:href="#DejaVuSans-30"/>
       <use xlink:href="#DejaVuSans-2e" x="63.623047"/>
       <use xlink:href="#DejaVuSans-31" x="95.410156"/>
       <use xlink:href="#DejaVuSans-30" x="159.033203"/>
      </g>
     </g>
    </g>
    <g id="xtick_3">
     <g id="line2d_3">
      <g>
       <use xlink:href="#me13c32627c" x="195.28165" y="307.584" style="stroke: #000000; stroke-width: 0.8"/>
      </g>
     </g>
     <g id="text_3">
      <!-- 0.15 -->
      <g transform="translate(184.148837 322.182437) scale(0.1 -0.1)">
       <use xlink:href="#DejaVuSans-30"/>
       <use xlink:href="#DejaVuSans-2e" x="63.623047"/>
       <use xlink:href="#DejaVuSans-31" x="95.410156"/>
       <use xlink:href="#DejaVuSans-35" x="159.033203"/>
      </g>
     </g>
    </g>
    <g id="xtick_4">
     <g id="line2d_4">
      <g>
       <use xlink:href="#me13c32627c" x="261.044761" y="307.584" style="stroke: #000000; stroke-width: 0.8"/>
      </g>
     </g>
     <g id="text_4">
      <!-- 0.20 -->
      <g transform="translate(249.911949 322.182437) scale(0.1 -0.1)">
       <defs>
        <path id="DejaVuSans-32" d="M 1228 531 
L 3431 531 
L 3431 0 
L 469 0 
L 469 531 
Q 828 903 1448 1529 
Q 2069 2156 2228 2338 
Q 2531 2678 2651 2914 
Q 2772 3150 2772 3378 
Q 2772 3750 2511 3984 
Q 2250 4219 1831 4219 
Q 1534 4219 1204 4116 
Q 875 4013 500 3803 
L 500 4441 
Q 881 4594 1212 4672 
Q 1544 4750 1819 4750 
Q 2544 4750 2975 4387 
Q 3406 4025 3406 3419 
Q 3406 3131 3298 2873 
Q 3191 2616 2906 2266 
Q 2828 2175 2409 1742 
Q 1991 1309 1228 531 
z
" transform="scale(0.015625)"/>
       </defs>
       <use xlink:href="#DejaVuSans-30"/>
       <use xlink:href="#DejaVuSans-2e" x="63.623047"/>
       <use xlink:href="#DejaVuSans-32" x="95.410156"/>
       <use xlink:href="#DejaVuSans-30" x="159.033203"/>
      </g>
     </g>
    </g>
    <g id="xtick_5">
     <g id="line2d_5">
      <g>
       <use xlink:href="#me13c32627c" x="326.807873" y="307.584" style="stroke: #000000; stroke-width: 0.8"/>
      </g>
     </g>
     <g id="text_5">
      <!-- 0.25 -->
      <g transform="translate(315.67506 322.182437) scale(0.1 -0.1)">
       <use xlink:href="#DejaVuSans-30"/>
       <use xlink:href="#DejaVuSans-2e" x="63.623047"/>
       <use xlink:href="#DejaVuSans-32" x="95.410156"/>
       <use xlink:href="#DejaVuSans-35" x="159.033203"/>
      </g>
     </g>
    </g>
    <g id="xtick_6">
     <g id="line2d_6">
      <g>
       <use xlink:href="#me13c32627c" x="392.570984" y="307.584" style="stroke: #000000; stroke-width: 0.8"/>
      </g>
     </g>
     <g id="text_6">
      <!-- 0.30 -->
      <g transform="translate(381.438172 322.182437) scale(0.1 -0.1)">
       <defs>
        <path id="DejaVuSans-33" d="M 2597 2516 
Q 3050 2419 3304 2112 
Q 3559 1806 3559 1356 
Q 3559 666 3084 287 
Q 2609 -91 1734 -91 
Q 1441 -91 1130 -33 
Q 819 25 488 141 
L 488 750 
Q 750 597 1062 519 
Q 1375 441 1716 441 
Q 2309 441 2620 675 
Q 2931 909 2931 1356 
Q 2931 1769 2642 2001 
Q 2353 2234 1838 2234 
L 1294 2234 
L 1294 2753 
L 1863 2753 
Q 2328 2753 2575 2939 
Q 2822 3125 2822 3475 
Q 2822 3834 2567 4026 
Q 2313 4219 1838 4219 
Q 1578 4219 1281 4162 
Q 984 4106 628 3988 
L 628 4550 
Q 988 4650 1302 4700 
Q 1616 4750 1894 4750 
Q 2613 4750 3031 4423 
Q 3450 4097 3450 3541 
Q 3450 3153 3228 2886 
Q 3006 2619 2597 2516 
z
" transform="scale(0.015625)"/>
       </defs>
       <use xlink:href="#DejaVuSans-30"/>
       <use xlink:href="#DejaVuSans-2e" x="63.623047"/>
       <use xlink:href="#DejaVuSans-33" x="95.410156"/>
       <use xlink:href="#DejaVuSans-30" x="159.033203"/>
      </g>
     </g>
    </g>
    <g id="text_7">
     <!-- Obesity Rate -->
     <g transform="translate(204.008437 335.860562) scale(0.1 -0.1)">
      <defs>
       <path id="DejaVuSans-4f" d="M 2522 4238 
Q 1834 4238 1429 3725 
Q 1025 3213 1025 2328 
Q 1025 1447 1429 934 
Q 1834 422 2522 422 
Q 3209 422 3611 934 
Q 4013 1447 4013 2328 
Q 4013 3213 3611 3725 
Q 3209 4238 2522 4238 
z
M 2522 4750 
Q 3503 4750 4090 4092 
Q 4678 3434 4678 2328 
Q 4678 1225 4090 567 
Q 3503 -91 2522 -91 
Q 1538 -91 948 565 
Q 359 1222 359 2328 
Q 359 3434 948 4092 
Q 1538 4750 2522 4750 
z
" transform="scale(0.015625)"/>
       <path id="DejaVuSans-62" d="M 3116 1747 
Q 3116 2381 2855 2742 
Q 2594 3103 2138 3103 
Q 1681 3103 1420 2742 
Q 1159 2381 1159 1747 
Q 1159 1113 1420 752 
Q 1681 391 2138 391 
Q 2594 391 2855 752 
Q 3116 1113 3116 1747 
z
M 1159 2969 
Q 1341 3281 1617 3432 
Q 1894 3584 2278 3584 
Q 2916 3584 3314 3078 
Q 3713 2572 3713 1747 
Q 3713 922 3314 415 
Q 2916 -91 2278 -91 
Q 1894 -91 1617 61 
Q 1341 213 1159 525 
L 1159 0 
L 581 0 
L 581 4863 
L 1159 4863 
L 1159 2969 
z
" transform="scale(0.015625)"/>
       <path id="DejaVuSans-65" d="M 3597 1894 
L 3597 1613 
L 953 1613 
Q 991 1019 1311 708 
Q 1631 397 2203 397 
Q 2534 397 2845 478 
Q 3156 559 3463 722 
L 3463 178 
Q 3153 47 2828 -22 
Q 2503 -91 2169 -91 
Q 1331 -91 842 396 
Q 353 884 353 1716 
Q 353 2575 817 3079 
Q 1281 3584 2069 3584 
Q 2775 3584 3186 3129 
Q 3597 2675 3597 1894 
z
M 3022 2063 
Q 3016 2534 2758 2815 
Q 2500 3097 2075 3097 
Q 1594 3097 1305 2825 
Q 1016 2553 972 2059 
L 3022 2063 
z
" transform="scale(0.015625)"/>
       <path id="DejaVuSans-73" d="M 2834 3397 
L 2834 2853 
Q 2591 2978 2328 3040 
Q 2066 3103 1784 3103 
Q 1356 3103 1142 2972 
Q 928 2841 928 2578 
Q 928 2378 1081 2264 
Q 1234 2150 1697 2047 
L 1894 2003 
Q 2506 1872 2764 1633 
Q 3022 1394 3022 966 
Q 3022 478 2636 193 
Q 2250 -91 1575 -91 
Q 1294 -91 989 -36 
Q 684 19 347 128 
L 347 722 
Q 666 556 975 473 
Q 1284 391 1588 391 
Q 1994 391 2212 530 
Q 2431 669 2431 922 
Q 2431 1156 2273 1281 
Q 2116 1406 1581 1522 
L 1381 1569 
Q 847 1681 609 1914 
Q 372 2147 372 2553 
Q 372 3047 722 3315 
Q 1072 3584 1716 3584 
Q 2034 3584 2315 3537 
Q 2597 3491 2834 3397 
z
" transform="scale(0.015625)"/>
       <path id="DejaVuSans-69" d="M 603 3500 
L 1178 3500 
L 1178 0 
L 603 0 
L 603 3500 
z
M 603 4863 
L 1178 4863 
L 1178 4134 
L 603 4134 
L 603 4863 
z
" transform="scale(0.015625)"/>
       <path id="DejaVuSans-74" d="M 1172 4494 
L 1172 3500 
L 2356 3500 
L 2356 3053 
L 1172 3053 
L 1172 1153 
Q 1172 725 1289 603 
Q 1406 481 1766 481 
L 2356 481 
L 2356 0 
L 1766 0 
Q 1100 0 847 248 
Q 594 497 594 1153 
L 594 3053 
L 172 3053 
L 172 3500 
L 594 3500 
L 594 4494 
L 1172 4494 
z
" transform="scale(0.015625)"/>
       <path id="DejaVuSans-79" d="M 2059 -325 
Q 1816 -950 1584 -1140 
Q 1353 -1331 966 -1331 
L 506 -1331 
L 506 -850 
L 844 -850 
Q 1081 -850 1212 -737 
Q 1344 -625 1503 -206 
L 1606 56 
L 191 3500 
L 800 3500 
L 1894 763 
L 2988 3500 
L 3597 3500 
L 2059 -325 
z
" transform="scale(0.015625)"/>
       <path id="DejaVuSans-20" transform="scale(0.015625)"/>
       <path id="DejaVuSans-52" d="M 2841 2188 
Q 3044 2119 3236 1894 
Q 3428 1669 3622 1275 
L 4263 0 
L 3584 0 
L 2988 1197 
Q 2756 1666 2539 1819 
Q 2322 1972 1947 1972 
L 1259 1972 
L 1259 0 
L 628 0 
L 628 4666 
L 2053 4666 
Q 2853 4666 3247 4331 
Q 3641 3997 3641 3322 
Q 3641 2881 3436 2590 
Q 3231 2300 2841 2188 
z
M 1259 4147 
L 1259 2491 
L 2053 2491 
Q 2509 2491 2742 2702 
Q 2975 2913 2975 3322 
Q 2975 3731 2742 3939 
Q 2509 4147 2053 4147 
L 1259 4147 
z
" transform="scale(0.015625)"/>
       <path id="DejaVuSans-61" d="M 2194 1759 
Q 1497 1759 1228 1600 
Q 959 1441 959 1056 
Q 959 750 1161 570 
Q 1363 391 1709 391 
Q 2188 391 2477 730 
Q 2766 1069 2766 1631 
L 2766 1759 
L 2194 1759 
z
M 3341 1997 
L 3341 0 
L 2766 0 
L 2766 531 
Q 2569 213 2275 61 
Q 1981 -91 1556 -91 
Q 1019 -91 701 211 
Q 384 513 384 1019 
Q 384 1609 779 1909 
Q 1175 2209 1959 2209 
L 2766 2209 
L 2766 2266 
Q 2766 2663 2505 2880 
Q 2244 3097 1772 3097 
Q 1472 3097 1187 3025 
Q 903 2953 641 2809 
L 641 3341 
Q 956 3463 1253 3523 
Q 1550 3584 1831 3584 
Q 2591 3584 2966 3190 
Q 3341 2797 3341 1997 
z
" transform="scale(0.015625)"/>
      </defs>
      <use xlink:href="#DejaVuSans-4f"/>
      <use xlink:href="#DejaVuSans-62" x="78.710938"/>
      <use xlink:href="#DejaVuSans-65" x="142.1875"/>
      <use xlink:href="#DejaVuSans-73" x="203.710938"/>
      <use xlink:href="#DejaVuSans-69" x="255.810547"/>
      <use xlink:href="#DejaVuSans-74" x="283.59375"/>
      <use xlink:href="#DejaVuSans-79" x="322.802734"/>
      <use xlink:href="#DejaVuSans-20" x="381.982422"/>
      <use xlink:href="#DejaVuSans-52" x="413.769531"/>
      <use xlink:href="#DejaVuSans-61" x="481.001953"/>
      <use xlink:href="#DejaVuSans-74" x="542.28125"/>
      <use xlink:href="#DejaVuSans-65" x="581.490234"/>
     </g>
    </g>
   </g>
   <g id="matplotlib.axis_2">
    <g id="ytick_1">
     <g id="line2d_7">
      <defs>
       <path id="mce7481e502" d="M 0 0 
L -3.5 0 
" style="stroke: #000000; stroke-width: 0.8"/>
      </defs>
      <g>
       <use xlink:href="#mce7481e502" x="57.6" y="275.467034" style="stroke: #000000; stroke-width: 0.8"/>
      </g>
     </g>
     <g id="text_8">
      <!-- 22 -->
      <g transform="translate(37.875 279.266253) scale(0.1 -0.1)">
       <use xlink:href="#DejaVuSans-32"/>
       <use xlink:href="#DejaVuSans-32" x="63.623047"/>
      </g>
     </g>
    </g>
    <g id="ytick_2">
     <g id="line2d_8">
      <g>
       <use xlink:href="#mce7481e502" x="57.6" y="229.585655" style="stroke: #000000; stroke-width: 0.8"/>
      </g>
     </g>
     <g id="text_9">
      <!-- 24 -->
      <g transform="translate(37.875 233.384874) scale(0.1 -0.1)">
       <defs>
        <path id="DejaVuSans-34" d="M 2419 4116 
L 825 1625 
L 2419 1625 
L 2419 4116 
z
M 2253 4666 
L 3047 4666 
L 3047 1625 
L 3713 1625 
L 3713 1100 
L 3047 1100 
L 3047 0 
L 2419 0 
L 2419 1100 
L 313 1100 
L 313 1709 
L 2253 4666 
z
" transform="scale(0.015625)"/>
       </defs>
       <use xlink:href="#DejaVuSans-32"/>
       <use xlink:href="#DejaVuSans-34" x="63.623047"/>
      </g>
     </g>
    </g>
    <g id="ytick_3">
     <g id="line2d_9">
      <g>
       <use xlink:href="#mce7481e502" x="57.6" y="183.704276" style="stroke: #000000; stroke-width: 0.8"/>
      </g>
     </g>
     <g id="text_10">
      <!-- 26 -->
      <g transform="translate(37.875 187.503495) scale(0.1 -0.1)">
       <defs>
        <path id="DejaVuSans-36" d="M 2113 2584 
Q 1688 2584 1439 2293 
Q 1191 2003 1191 1497 
Q 1191 994 1439 701 
Q 1688 409 2113 409 
Q 2538 409 2786 701 
Q 3034 994 3034 1497 
Q 3034 2003 2786 2293 
Q 2538 2584 2113 2584 
z
M 3366 4563 
L 3366 3988 
Q 3128 4100 2886 4159 
Q 2644 4219 2406 4219 
Q 1781 4219 1451 3797 
Q 1122 3375 1075 2522 
Q 1259 2794 1537 2939 
Q 1816 3084 2150 3084 
Q 2853 3084 3261 2657 
Q 3669 2231 3669 1497 
Q 3669 778 3244 343 
Q 2819 -91 2113 -91 
Q 1303 -91 875 529 
Q 447 1150 447 2328 
Q 447 3434 972 4092 
Q 1497 4750 2381 4750 
Q 2619 4750 2861 4703 
Q 3103 4656 3366 4563 
z
" transform="scale(0.015625)"/>
       </defs>
       <use xlink:href="#DejaVuSans-32"/>
       <use xlink:href="#DejaVuSans-36" x="63.623047"/>
      </g>
     </g>
    </g>
    <g id="ytick_4">
     <g id="line2d_10">
      <g>
       <use xlink:href="#mce7481e502" x="57.6" y="137.822897" style="stroke: #000000; stroke-width: 0.8"/>
      </g>
     </g>
     <g id="text_11">
      <!-- 28 -->
      <g transform="translate(37.875 141.622115) scale(0.1 -0.1)">
       <defs>
        <path id="DejaVuSans-38" d="M 2034 2216 
Q 1584 2216 1326 1975 
Q 1069 1734 1069 1313 
Q 1069 891 1326 650 
Q 1584 409 2034 409 
Q 2484 409 2743 651 
Q 3003 894 3003 1313 
Q 3003 1734 2745 1975 
Q 2488 2216 2034 2216 
z
M 1403 2484 
Q 997 2584 770 2862 
Q 544 3141 544 3541 
Q 544 4100 942 4425 
Q 1341 4750 2034 4750 
Q 2731 4750 3128 4425 
Q 3525 4100 3525 3541 
Q 3525 3141 3298 2862 
Q 3072 2584 2669 2484 
Q 3125 2378 3379 2068 
Q 3634 1759 3634 1313 
Q 3634 634 3220 271 
Q 2806 -91 2034 -91 
Q 1263 -91 848 271 
Q 434 634 434 1313 
Q 434 1759 690 2068 
Q 947 2378 1403 2484 
z
M 1172 3481 
Q 1172 3119 1398 2916 
Q 1625 2713 2034 2713 
Q 2441 2713 2670 2916 
Q 2900 3119 2900 3481 
Q 2900 3844 2670 4047 
Q 2441 4250 2034 4250 
Q 1625 4250 1398 4047 
Q 1172 3844 1172 3481 
z
" transform="scale(0.015625)"/>
       </defs>
       <use xlink:href="#DejaVuSans-32"/>
       <use xlink:href="#DejaVuSans-38" x="63.623047"/>
      </g>
     </g>
    </g>
    <g id="ytick_5">
     <g id="line2d_11">
      <g>
       <use xlink:href="#mce7481e502" x="57.6" y="91.941517" style="stroke: #000000; stroke-width: 0.8"/>
      </g>
     </g>
     <g id="text_12">
      <!-- 30 -->
      <g transform="translate(37.875 95.740736) scale(0.1 -0.1)">
       <use xlink:href="#DejaVuSans-33"/>
       <use xlink:href="#DejaVuSans-30" x="63.623047"/>
      </g>
     </g>
    </g>
    <g id="ytick_6">
     <g id="line2d_12">
      <g>
       <use xlink:href="#mce7481e502" x="57.6" y="46.060138" style="stroke: #000000; stroke-width: 0.8"/>
      </g>
     </g>
     <g id="text_13">
      <!-- 32 -->
      <g transform="translate(37.875 49.859357) scale(0.1 -0.1)">
       <use xlink:href="#DejaVuSans-33"/>
       <use xlink:href="#DejaVuSans-32" x="63.623047"/>
      </g>
     </g>
    </g>
    <g id="text_14">
     <!-- Mean BMI -->
     <g transform="translate(31.795312 198.960031) rotate(-90) scale(0.1 -0.1)">
      <defs>
       <path id="DejaVuSans-4d" d="M 628 4666 
L 1569 4666 
L 2759 1491 
L 3956 4666 
L 4897 4666 
L 4897 0 
L 4281 0 
L 4281 4097 
L 3078 897 
L 2444 897 
L 1241 4097 
L 1241 0 
L 628 0 
L 628 4666 
z
" transform="scale(0.015625)"/>
       <path id="DejaVuSans-6e" d="M 3513 2113 
L 3513 0 
L 2938 0 
L 2938 2094 
Q 2938 2591 2744 2837 
Q 2550 3084 2163 3084 
Q 1697 3084 1428 2787 
Q 1159 2491 1159 1978 
L 1159 0 
L 581 0 
L 581 3500 
L 1159 3500 
L 1159 2956 
Q 1366 3272 1645 3428 
Q 1925 3584 2291 3584 
Q 2894 3584 3203 3211 
Q 3513 2838 3513 2113 
z
" transform="scale(0.015625)"/>
       <path id="DejaVuSans-42" d="M 1259 2228 
L 1259 519 
L 2272 519 
Q 2781 519 3026 730 
Q 3272 941 3272 1375 
Q 3272 1813 3026 2020 
Q 2781 2228 2272 2228 
L 1259 2228 
z
M 1259 4147 
L 1259 2741 
L 2194 2741 
Q 2656 2741 2882 2914 
Q 3109 3088 3109 3444 
Q 3109 3797 2882 3972 
Q 2656 4147 2194 4147 
L 1259 4147 
z
M 628 4666 
L 2241 4666 
Q 2963 4666 3353 4366 
Q 3744 4066 3744 3513 
Q 3744 3084 3544 2831 
Q 3344 2578 2956 2516 
Q 3422 2416 3680 2098 
Q 3938 1781 3938 1306 
Q 3938 681 3513 340 
Q 3088 0 2303 0 
L 628 0 
L 628 4666 
z
" transform="scale(0.015625)"/>
       <path id="DejaVuSans-49" d="M 628 4666 
L 1259 4666 
L 1259 0 
L 628 0 
L 628 4666 
z
" transform="scale(0.015625)"/>
      </defs>
      <use xlink:href="#DejaVuSans-4d"/>
      <use xlink:href="#DejaVuSans-65" x="86.279297"/>
      <use xlink:href="#DejaVuSans-61" x="147.802734"/>
      <use xlink:href="#DejaVuSans-6e" x="209.082031"/>
      <use xlink:href="#DejaVuSans-20" x="272.460938"/>
      <use xlink:href="#DejaVuSans-42" x="304.248047"/>
      <use xlink:href="#DejaVuSans-4d" x="372.851562"/>
      <use xlink:href="#DejaVuSans-49" x="459.130859"/>
     </g>
    </g>
   </g>
   <g id="PathCollection_8"/>
   <g id="PathCollection_9">
    <path d="M 57.6 212.941168 
L 61.207273 212.941168 
L 64.814545 212.941168 
L 68.421818 212.941168 
L 72.029091 212.941168 
L 75.636364 212.941168 
L 79.243636 212.941168 
L 82.850909 212.941168 
L 86.458182 212.941168 
L 90.065455 212.941168 
L 93.672727 212.941168 
L 97.28 212.941168 
L 100.887273 212.941168 
L 104.494545 212.941168 
L 108.101818 212.941168 
L 108.183182 212.941168 
" clip-path="url(#p60e26fed10)" style="fill: none; stroke: #000000; stroke-width: 0.5"/>
    <path d="M 144.093182 212.941168 
L 144.174545 212.941168 
L 147.781818 212.941168 
L 151.389091 212.941168 
L 154.996364 212.941168 
L 158.603636 212.941168 
L 160.809081 213.527172 
L 160.809081 218.11531 
L 160.809081 220.409379 
L 160.809081 222.703448 
L 160.809081 224.997517 
L 160.809081 227.291586 
L 160.809081 229.585655 
L 160.809081 231.879724 
L 160.809081 234.173793 
L 160.809081 238.761931 
L 160.809081 241.056 
L 160.809081 243.350069 
L 160.809081 245.644138 
L 160.809081 247.938207 
L 160.809081 250.232276 
L 160.809081 252.526345 
L 160.809081 254.820414 
L 160.809081 257.114483 
L 160.809081 259.408552 
L 160.809081 261.702621 
L 160.809081 263.99669 
L 160.809081 270.878897 
L 160.809081 273.172966 
L 160.809081 275.467034 
L 160.809081 277.761103 
L 160.809081 280.055172 
L 160.809081 282.349241 
L 160.809081 291.525517 
L 160.809081 307.584 
" clip-path="url(#p60e26fed10)" style="fill: none; stroke: #000000; stroke-width: 0.5"/>
   </g>
   <g id="PathCollection_10">
    <path d="M 57.6 212.081694 
L 61.207273 212.081694 
L 64.814545 212.081694 
L 68.421818 212.081694 
L 72.029091 212.081694 
L 75.636364 212.081694 
L 79.243636 212.081694 
L 82.850909 212.081694 
L 86.458182 212.081694 
L 90.065455 212.081694 
L 93.672727 212.081694 
L 97.28 212.081694 
L 100.887273 212.081694 
L 104.494545 212.081694 
L 108.101818 212.081694 
L 111.709091 212.081694 
L 115.316364 212.081694 
L 118.923636 212.081694 
L 122.530909 212.081694 
L 126.138182 212.081694 
L 129.745455 212.081694 
L 133.352727 212.081694 
L 136.96 212.081694 
L 140.567273 212.081694 
L 144.174545 212.081694 
L 147.781818 212.081694 
L 151.389091 212.081694 
L 154.996364 212.081694 
L 158.603636 212.081694 
L 162.210909 213.040176 
L 165.818182 213.040176 
L 169.425455 213.040176 
L 173.032727 213.040176 
L 176.64 213.040176 
L 180.247273 213.040176 
L 183.854545 213.040176 
L 187.461818 213.040176 
L 191.069091 213.040176 
L 194.676364 213.040176 
L 198.283636 213.040176 
L 201.890909 213.040176 
L 205.498182 213.040176 
L 209.105455 213.040176 
L 212.712727 213.040176 
L 216.32 213.040176 
L 219.927273 213.040176 
L 223.534545 213.040176 
L 227.141818 213.040176 
L 230.749091 213.040176 
L 234.356364 213.040176 
L 237.963636 213.040176 
L 241.570909 213.040176 
L 245.178182 213.040176 
L 248.785455 213.040176 
L 248.866818 213.040176 
" clip-path="url(#p60e26fed10)" style="fill: none; stroke: #000000; stroke-width: 0.5"/>
    <path d="M 284.776818 213.040176 
L 284.858182 213.040176 
L 288.465455 213.040176 
L 292.072727 213.040176 
L 295.68 213.040176 
L 299.287273 213.040176 
L 302.894545 213.040176 
L 306.501818 213.040176 
L 310.109091 213.040176 
L 313.716364 213.040176 
L 317.323636 213.040176 
L 320.930909 213.040176 
L 324.538182 213.040176 
L 328.145455 213.040176 
L 331.752727 213.040176 
L 335.36 213.040176 
L 338.967273 213.040176 
L 342.574545 213.040176 
L 346.181818 213.040176 
L 349.789091 213.040176 
L 353.396364 213.040176 
L 357.003636 213.040176 
L 360.610909 213.040176 
L 364.218182 213.040176 
L 367.825455 213.040176 
L 371.432727 213.040176 
L 375.04 213.040176 
L 378.647273 213.040176 
L 382.254545 213.040176 
L 385.861818 213.040176 
L 389.469091 213.040176 
L 393.076364 213.040176 
L 396.683636 213.040176 
L 400.290909 213.040176 
L 403.898182 213.040176 
L 407.505455 213.040176 
L 411.112727 213.040176 
L 414.72 213.040176 
" clip-path="url(#p60e26fed10)" style="fill: none; stroke: #000000; stroke-width: 0.5"/>
   </g>
   <g id="PathCollection_11">
    <path d="M 57.6 206.62244 
L 61.207273 206.62244 
L 64.814545 206.62244 
L 68.421818 206.62244 
L 72.029091 206.62244 
L 75.636364 206.62244 
L 79.243636 206.62244 
L 82.850909 206.62244 
L 86.458182 206.62244 
L 90.065455 206.62244 
L 93.672727 206.62244 
L 97.28 206.62244 
L 100.887273 206.62244 
L 104.494545 206.62244 
L 108.101818 206.62244 
L 111.709091 206.62244 
L 115.316364 206.62244 
L 118.923636 206.62244 
L 122.530909 206.62244 
L 126.138182 206.62244 
L 129.745455 206.62244 
L 133.352727 206.62244 
L 136.96 206.62244 
L 140.567273 206.62244 
L 144.174545 206.62244 
L 147.781818 206.62244 
L 151.389091 206.62244 
L 154.996364 206.62244 
L 158.603636 206.62244 
L 158.644597 206.644966 
L 158.644597 208.939034 
L 158.644597 211.233103 
L 162.210909 212.180702 
L 165.818182 212.180702 
L 169.425455 212.180702 
L 173.032727 212.180702 
L 176.64 212.180702 
L 180.247273 212.180702 
L 183.854545 212.180702 
L 187.461818 212.180702 
L 191.069091 212.180702 
L 194.676364 212.180702 
L 198.283636 212.180702 
L 201.890909 212.180702 
L 205.498182 212.180702 
L 209.105455 212.180702 
L 212.712727 212.180702 
L 216.32 212.180702 
L 219.927273 212.180702 
L 223.534545 212.180702 
L 227.141818 212.180702 
L 230.749091 212.180702 
L 234.356364 212.180702 
L 237.963636 212.180702 
L 241.570909 212.180702 
L 245.178182 212.180702 
L 248.785455 212.180702 
L 252.392727 212.180702 
L 256 212.180702 
L 259.607273 212.180702 
L 263.214545 212.180702 
L 266.821818 212.180702 
L 270.429091 212.180702 
L 274.036364 212.180702 
L 277.643636 212.180702 
L 281.250909 212.180702 
L 284.858182 212.180702 
L 288.465455 212.180702 
L 292.072727 212.180702 
L 295.68 212.180702 
L 299.287273 212.180702 
L 302.894545 212.180702 
L 306.501818 212.180702 
L 310.109091 212.180702 
L 313.716364 212.180702 
L 317.323636 212.180702 
L 320.930909 212.180702 
L 324.538182 212.180702 
L 328.145455 212.180702 
L 331.752727 212.180702 
L 335.36 212.180702 
L 338.967273 212.180702 
L 342.574545 212.180702 
L 346.181818 212.180702 
L 349.789091 212.180702 
L 353.396364 212.180702 
L 357.003636 212.180702 
L 360.610909 212.180702 
L 364.218182 212.180702 
L 367.825455 212.180702 
L 371.432727 212.180702 
L 375.04 212.180702 
L 378.647273 212.180702 
L 378.728636 212.180702 
" clip-path="url(#p60e26fed10)" style="fill: none; stroke: #000000; stroke-width: 0.5"/>
    <path d="M 414.638636 212.180702 
L 414.72 212.180702 
" clip-path="url(#p60e26fed10)" style="fill: none; stroke: #000000; stroke-width: 0.5"/>
   </g>
   <g id="PathCollection_12">
    <path d="M 57.6 204.843599 
L 61.207273 204.843599 
L 64.814545 204.843599 
L 68.421818 204.843599 
L 72.029091 204.843599 
L 75.636364 204.843599 
L 79.243636 204.843599 
L 82.850909 204.843599 
L 86.458182 204.843599 
L 90.065455 204.843599 
L 93.672727 204.843599 
L 97.28 204.843599 
L 100.887273 204.843599 
L 104.494545 204.843599 
L 108.101818 204.843599 
L 111.709091 204.843599 
L 115.316364 204.843599 
L 118.923636 204.843599 
L 122.530909 204.843599 
L 126.138182 204.843599 
L 129.745455 204.843599 
L 133.352727 204.843599 
L 136.96 204.843599 
L 140.567273 204.843599 
L 144.174545 204.843599 
L 147.781818 204.843599 
L 151.389091 204.843599 
L 154.996364 204.843599 
L 158.603636 204.843599 
L 161.87925 206.644966 
L 161.87925 208.939034 
L 161.87925 211.233103 
L 162.210909 211.321228 
L 165.818182 211.321228 
L 169.425455 211.321228 
L 173.032727 211.321228 
L 176.64 211.321228 
L 180.247273 211.321228 
L 183.854545 211.321228 
L 187.461818 211.321228 
L 191.069091 211.321228 
L 194.676364 211.321228 
L 198.283636 211.321228 
L 201.890909 211.321228 
L 205.498182 211.321228 
L 209.105455 211.321228 
L 212.712727 211.321228 
L 216.32 211.321228 
L 219.927273 211.321228 
L 223.534545 211.321228 
L 227.141818 211.321228 
L 230.749091 211.321228 
L 234.356364 211.321228 
L 237.963636 211.321228 
L 238.045 211.321228 
" clip-path="url(#p60e26fed10)" style="fill: none; stroke: #000000; stroke-width: 0.5"/>
    <path d="M 273.955 211.321228 
L 274.036364 211.321228 
L 277.643636 211.321228 
L 281.250909 211.321228 
L 284.858182 211.321228 
L 288.465455 211.321228 
L 292.072727 211.321228 
L 295.68 211.321228 
L 299.287273 211.321228 
L 302.894545 211.321228 
L 306.501818 211.321228 
L 310.109091 211.321228 
L 313.716364 211.321228 
L 317.323636 211.321228 
L 320.930909 211.321228 
L 324.538182 211.321228 
L 328.145455 211.321228 
L 331.752727 211.321228 
L 335.36 211.321228 
L 338.967273 211.321228 
L 342.574545 211.321228 
L 346.181818 211.321228 
L 349.789091 211.321228 
L 353.396364 211.321228 
L 357.003636 211.321228 
L 360.610909 211.321228 
L 364.218182 211.321228 
L 367.825455 211.321228 
L 371.432727 211.321228 
L 375.04 211.321228 
L 378.647273 211.321228 
L 382.254545 211.321228 
L 385.861818 211.321228 
L 389.469091 211.321228 
L 393.076364 211.321228 
L 396.683636 211.321228 
L 400.290909 211.321228 
L 403.898182 211.321228 
L 407.505455 211.321228 
L 411.112727 211.321228 
L 414.72 211.321228 
" clip-path="url(#p60e26fed10)" style="fill: none; stroke: #000000; stroke-width: 0.5"/>
   </g>
   <g id="PathCollection_13">
    <path d="M 57.6 203.064758 
L 61.207273 203.064758 
L 64.814545 203.064758 
L 68.421818 203.064758 
L 72.029091 203.064758 
L 75.636364 203.064758 
L 79.243636 203.064758 
L 82.850909 203.064758 
L 86.458182 203.064758 
L 90.065455 203.064758 
L 93.672727 203.064758 
L 97.28 203.064758 
L 100.887273 203.064758 
L 104.494545 203.064758 
L 108.101818 203.064758 
L 111.709091 203.064758 
L 115.316364 203.064758 
L 118.923636 203.064758 
L 122.530909 203.064758 
L 126.138182 203.064758 
L 129.745455 203.064758 
L 133.352727 203.064758 
L 136.96 203.064758 
L 140.567273 203.064758 
L 144.174545 203.064758 
L 147.781818 203.064758 
L 151.389091 203.064758 
L 154.996364 203.064758 
L 158.603636 203.064758 
L 162.210909 205.048515 
L 165.818182 205.048515 
L 169.425455 205.048515 
L 173.032727 205.048515 
L 176.64 205.048515 
L 180.247273 205.048515 
L 183.854545 205.048515 
L 187.461818 205.048515 
L 191.069091 205.048515 
L 194.676364 205.048515 
L 198.283636 205.048515 
L 201.890909 205.048515 
L 205.498182 205.048515 
L 209.105455 205.048515 
L 212.712727 205.048515 
L 216.32 205.048515 
L 219.927273 205.048515 
L 223.534545 205.048515 
L 227.141818 205.048515 
L 230.749091 205.048515 
L 234.356364 205.048515 
L 237.963636 205.048515 
L 241.570909 205.048515 
L 245.178182 205.048515 
L 248.785455 205.048515 
L 248.866818 205.048515 
" clip-path="url(#p60e26fed10)" style="fill: none; stroke: #000000; stroke-width: 0.5"/>
    <path d="M 284.776818 205.048515 
L 284.858182 205.048515 
L 288.465455 205.048515 
L 292.072727 205.048515 
L 295.68 205.048515 
L 299.287273 205.048515 
L 302.894545 205.048515 
L 306.501818 205.048515 
L 310.109091 205.048515 
L 313.716364 205.048515 
L 317.323636 205.048515 
L 320.930909 205.048515 
L 324.538182 205.048515 
L 328.145455 205.048515 
L 331.752727 205.048515 
L 335.36 205.048515 
L 338.967273 205.048515 
L 342.574545 205.048515 
L 346.181818 205.048515 
L 349.789091 205.048515 
L 353.396364 205.048515 
L 357.003636 205.048515 
L 360.610909 205.048515 
L 364.218182 205.048515 
L 367.825455 205.048515 
L 371.432727 205.048515 
L 375.04 205.048515 
L 378.647273 205.048515 
L 382.254545 205.048515 
L 385.861818 205.048515 
L 389.469091 205.048515 
L 393.076364 205.048515 
L 396.683636 205.048515 
L 400.290909 205.048515 
L 403.898182 205.048515 
L 407.505455 205.048515 
L 411.112727 205.048515 
L 414.72 205.048515 
" clip-path="url(#p60e26fed10)" style="fill: none; stroke: #000000; stroke-width: 0.5"/>
   </g>
   <g id="PathCollection_14">
    <path d="M 160.005464 41.472 
L 160.005464 91.941517 
L 160.005464 101.117793 
L 160.005464 110.294069 
L 160.005464 112.588138 
L 160.005464 114.882207 
L 160.005464 117.176276 
L 160.005464 119.470345 
L 160.005464 128.646621 
L 160.005464 130.94069 
L 160.005464 135.528828 
L 160.005464 137.822897 
L 160.005464 138.220448 
" clip-path="url(#p60e26fed10)" style="fill: none; stroke: #000000; stroke-width: 0.5"/>
    <path d="M 160.005464 174.130448 
L 160.005464 174.528 
L 160.005464 176.822069 
L 160.005464 179.116138 
L 160.005464 181.410207 
L 160.005464 183.704276 
L 160.005464 185.998345 
L 160.005464 188.292414 
L 160.005464 190.586483 
L 160.005464 192.880552 
L 160.005464 195.174621 
L 160.005464 199.762759 
L 160.005464 202.056828 
L 162.210909 203.269674 
L 165.818182 203.269674 
L 169.425455 203.269674 
L 173.032727 203.269674 
L 176.64 203.269674 
L 180.247273 203.269674 
L 183.854545 203.269674 
L 187.461818 203.269674 
L 191.069091 203.269674 
L 194.676364 203.269674 
L 198.283636 203.269674 
L 201.890909 203.269674 
L 205.498182 203.269674 
L 209.105455 203.269674 
L 212.712727 203.269674 
L 216.32 203.269674 
L 219.927273 203.269674 
L 223.534545 203.269674 
L 227.141818 203.269674 
L 230.749091 203.269674 
L 234.356364 203.269674 
L 237.963636 203.269674 
L 241.570909 203.269674 
L 245.178182 203.269674 
L 248.785455 203.269674 
L 252.392727 203.269674 
L 256 203.269674 
L 259.607273 203.269674 
L 263.214545 203.269674 
L 266.821818 203.269674 
L 270.429091 203.269674 
L 274.036364 203.269674 
L 277.643636 203.269674 
L 281.250909 203.269674 
L 284.858182 203.269674 
L 288.465455 203.269674 
L 292.072727 203.269674 
L 295.68 203.269674 
L 299.287273 203.269674 
L 302.894545 203.269674 
L 306.501818 203.269674 
L 310.109091 203.269674 
L 313.716364 203.269674 
L 317.323636 203.269674 
L 320.930909 203.269674 
L 324.538182 203.269674 
L 328.145455 203.269674 
L 331.752727 203.269674 
L 335.36 203.269674 
L 338.967273 203.269674 
L 342.574545 203.269674 
L 346.181818 203.269674 
L 349.789091 203.269674 
L 353.396364 203.269674 
L 357.003636 203.269674 
L 360.610909 203.269674 
L 364.218182 203.269674 
L 367.825455 203.269674 
L 371.432727 203.269674 
L 375.04 203.269674 
L 378.647273 203.269674 
L 382.254545 203.269674 
L 385.861818 203.269674 
L 389.469091 203.269674 
L 393.076364 203.269674 
L 396.683636 203.269674 
L 400.290909 203.269674 
L 403.898182 203.269674 
L 407.505455 203.269674 
L 411.112727 203.269674 
L 414.72 203.269674 
" clip-path="url(#p60e26fed10)" style="fill: none; stroke: #000000; stroke-width: 0.5"/>
   </g>
   <g id="PathCollection_15"/>
   <g id="LineCollection_1">
    <path d="M 70.331738 307.584 
L 70.331738 294.2784 
" clip-path="url(#p60e26fed10)" style="fill: none; stroke: #000000; stroke-width: 1.5"/>
    <path d="M 99.846223 307.584 
L 99.846223 294.2784 
" clip-path="url(#p60e26fed10)" style="fill: none; stroke: #000000; stroke-width: 1.5"/>
    <path d="M 129.465928 307.584 
L 129.465928 294.2784 
" clip-path="url(#p60e26fed10)" style="fill: none; stroke: #000000; stroke-width: 1.5"/>
    <path d="M 223.533483 307.584 
L 223.533483 294.2784 
" clip-path="url(#p60e26fed10)" style="fill: none; stroke: #000000; stroke-width: 1.5"/>
    <path d="M 263.675286 307.584 
L 263.675286 294.2784 
" clip-path="url(#p60e26fed10)" style="fill: none; stroke: #000000; stroke-width: 1.5"/>
    <path d="M 284.088156 307.584 
L 284.088156 294.2784 
" clip-path="url(#p60e26fed10)" style="fill: none; stroke: #000000; stroke-width: 1.5"/>
    <path d="M 301.81789 307.584 
L 301.81789 294.2784 
" clip-path="url(#p60e26fed10)" style="fill: none; stroke: #000000; stroke-width: 1.5"/>
    <path d="M 335.435993 307.584 
L 335.435993 294.2784 
" clip-path="url(#p60e26fed10)" style="fill: none; stroke: #000000; stroke-width: 1.5"/>
    <path d="M 378.208321 307.584 
L 378.208321 294.2784 
" clip-path="url(#p60e26fed10)" style="fill: none; stroke: #000000; stroke-width: 1.5"/>
   </g>
   <g id="LineCollection_2">
    <path clip-path="url(#p60e26fed10)" style="fill: none; stroke: #000000; stroke-width: 1.5"/>
    <path clip-path="url(#p60e26fed10)" style="fill: none; stroke: #000000; stroke-width: 1.5"/>
    <path clip-path="url(#p60e26fed10)" style="fill: none; stroke: #000000; stroke-width: 1.5"/>
    <path clip-path="url(#p60e26fed10)" style="fill: none; stroke: #000000; stroke-width: 1.5"/>
    <path clip-path="url(#p60e26fed10)" style="fill: none; stroke: #000000; stroke-width: 1.5"/>
    <path clip-path="url(#p60e26fed10)" style="fill: none; stroke: #000000; stroke-width: 1.5"/>
    <path clip-path="url(#p60e26fed10)" style="fill: none; stroke: #000000; stroke-width: 1.5"/>
    <path clip-path="url(#p60e26fed10)" style="fill: none; stroke: #000000; stroke-width: 1.5"/>
    <path clip-path="url(#p60e26fed10)" style="fill: none; stroke: #000000; stroke-width: 1.5"/>
   </g>
   <g id="patch_3">
    <path d="M 57.6 307.584 
L 57.6 41.472 
" style="fill: none; stroke: #000000; stroke-width: 0.8; stroke-linejoin: miter; stroke-linecap: square"/>
   </g>
   <g id="patch_4">
    <path d="M 414.72 307.584 
L 414.72 41.472 
" style="fill: none; stroke: #000000; stroke-width: 0.8; stroke-linejoin: miter; stroke-linecap: square"/>
   </g>
   <g id="patch_5">
    <path d="M 57.6 307.584 
L 414.72 307.584 
" style="fill: none; stroke: #000000; stroke-width: 0.8; stroke-linejoin: miter; stroke-linecap: square"/>
   </g>
   <g id="patch_6">
    <path d="M 57.6 41.472 
L 414.72 41.472 
" style="fill: none; stroke: #000000; stroke-width: 0.8; stroke-linejoin: miter; stroke-linecap: square"/>
   </g>
   <g id="text_15">
    <!-- 2D-partial dependency plot between Obesity and BMI -->
    <g transform="translate(75.125625 35.472) scale(0.12 -0.12)">
     <defs>
      <path id="DejaVuSans-44" d="M 1259 4147 
L 1259 519 
L 2022 519 
Q 2988 519 3436 956 
Q 3884 1394 3884 2338 
Q 3884 3275 3436 3711 
Q 2988 4147 2022 4147 
L 1259 4147 
z
M 628 4666 
L 1925 4666 
Q 3281 4666 3915 4102 
Q 4550 3538 4550 2338 
Q 4550 1131 3912 565 
Q 3275 0 1925 0 
L 628 0 
L 628 4666 
z
" transform="scale(0.015625)"/>
      <path id="DejaVuSans-2d" d="M 313 2009 
L 1997 2009 
L 1997 1497 
L 313 1497 
L 313 2009 
z
" transform="scale(0.015625)"/>
      <path id="DejaVuSans-70" d="M 1159 525 
L 1159 -1331 
L 581 -1331 
L 581 3500 
L 1159 3500 
L 1159 2969 
Q 1341 3281 1617 3432 
Q 1894 3584 2278 3584 
Q 2916 3584 3314 3078 
Q 3713 2572 3713 1747 
Q 3713 922 3314 415 
Q 2916 -91 2278 -91 
Q 1894 -91 1617 61 
Q 1341 213 1159 525 
z
M 3116 1747 
Q 3116 2381 2855 2742 
Q 2594 3103 2138 3103 
Q 1681 3103 1420 2742 
Q 1159 2381 1159 1747 
Q 1159 1113 1420 752 
Q 1681 391 2138 391 
Q 2594 391 2855 752 
Q 3116 1113 3116 1747 
z
" transform="scale(0.015625)"/>
      <path id="DejaVuSans-72" d="M 2631 2963 
Q 2534 3019 2420 3045 
Q 2306 3072 2169 3072 
Q 1681 3072 1420 2755 
Q 1159 2438 1159 1844 
L 1159 0 
L 581 0 
L 581 3500 
L 1159 3500 
L 1159 2956 
Q 1341 3275 1631 3429 
Q 1922 3584 2338 3584 
Q 2397 3584 2469 3576 
Q 2541 3569 2628 3553 
L 2631 2963 
z
" transform="scale(0.015625)"/>
      <path id="DejaVuSans-6c" d="M 603 4863 
L 1178 4863 
L 1178 0 
L 603 0 
L 603 4863 
z
" transform="scale(0.015625)"/>
      <path id="DejaVuSans-64" d="M 2906 2969 
L 2906 4863 
L 3481 4863 
L 3481 0 
L 2906 0 
L 2906 525 
Q 2725 213 2448 61 
Q 2172 -91 1784 -91 
Q 1150 -91 751 415 
Q 353 922 353 1747 
Q 353 2572 751 3078 
Q 1150 3584 1784 3584 
Q 2172 3584 2448 3432 
Q 2725 3281 2906 2969 
z
M 947 1747 
Q 947 1113 1208 752 
Q 1469 391 1925 391 
Q 2381 391 2643 752 
Q 2906 1113 2906 1747 
Q 2906 2381 2643 2742 
Q 2381 3103 1925 3103 
Q 1469 3103 1208 2742 
Q 947 2381 947 1747 
z
" transform="scale(0.015625)"/>
      <path id="DejaVuSans-63" d="M 3122 3366 
L 3122 2828 
Q 2878 2963 2633 3030 
Q 2388 3097 2138 3097 
Q 1578 3097 1268 2742 
Q 959 2388 959 1747 
Q 959 1106 1268 751 
Q 1578 397 2138 397 
Q 2388 397 2633 464 
Q 2878 531 3122 666 
L 3122 134 
Q 2881 22 2623 -34 
Q 2366 -91 2075 -91 
Q 1284 -91 818 406 
Q 353 903 353 1747 
Q 353 2603 823 3093 
Q 1294 3584 2113 3584 
Q 2378 3584 2631 3529 
Q 2884 3475 3122 3366 
z
" transform="scale(0.015625)"/>
      <path id="DejaVuSans-6f" d="M 1959 3097 
Q 1497 3097 1228 2736 
Q 959 2375 959 1747 
Q 959 1119 1226 758 
Q 1494 397 1959 397 
Q 2419 397 2687 759 
Q 2956 1122 2956 1747 
Q 2956 2369 2687 2733 
Q 2419 3097 1959 3097 
z
M 1959 3584 
Q 2709 3584 3137 3096 
Q 3566 2609 3566 1747 
Q 3566 888 3137 398 
Q 2709 -91 1959 -91 
Q 1206 -91 779 398 
Q 353 888 353 1747 
Q 353 2609 779 3096 
Q 1206 3584 1959 3584 
z
" transform="scale(0.015625)"/>
      <path id="DejaVuSans-77" d="M 269 3500 
L 844 3500 
L 1563 769 
L 2278 3500 
L 2956 3500 
L 3675 769 
L 4391 3500 
L 4966 3500 
L 4050 0 
L 3372 0 
L 2619 2869 
L 1863 0 
L 1184 0 
L 269 3500 
z
" transform="scale(0.015625)"/>
     </defs>
     <use xlink:href="#DejaVuSans-32"/>
     <use xlink:href="#DejaVuSans-44" x="63.623047"/>
     <use xlink:href="#DejaVuSans-2d" x="140.625"/>
     <use xlink:href="#DejaVuSans-70" x="176.708984"/>
     <use xlink:href="#DejaVuSans-61" x="240.185547"/>
     <use xlink:href="#DejaVuSans-72" x="301.464844"/>
     <use xlink:href="#DejaVuSans-74" x="342.578125"/>
     <use xlink:href="#DejaVuSans-69" x="381.787109"/>
     <use xlink:href="#DejaVuSans-61" x="409.570312"/>
     <use xlink:href="#DejaVuSans-6c" x="470.849609"/>
     <use xlink:href="#DejaVuSans-20" x="498.632812"/>
     <use xlink:href="#DejaVuSans-64" x="530.419922"/>
     <use xlink:href="#DejaVuSans-65" x="593.896484"/>
     <use xlink:href="#DejaVuSans-70" x="655.419922"/>
     <use xlink:href="#DejaVuSans-65" x="718.896484"/>
     <use xlink:href="#DejaVuSans-6e" x="780.419922"/>
     <use xlink:href="#DejaVuSans-64" x="843.798828"/>
     <use xlink:href="#DejaVuSans-65" x="907.275391"/>
     <use xlink:href="#DejaVuSans-6e" x="968.798828"/>
     <use xlink:href="#DejaVuSans-63" x="1032.177734"/>
     <use xlink:href="#DejaVuSans-79" x="1087.158203"/>
     <use xlink:href="#DejaVuSans-20" x="1146.337891"/>
     <use xlink:href="#DejaVuSans-70" x="1178.125"/>
     <use xlink:href="#DejaVuSans-6c" x="1241.601562"/>
     <use xlink:href="#DejaVuSans-6f" x="1269.384766"/>
     <use xlink:href="#DejaVuSans-74" x="1330.566406"/>
     <use xlink:href="#DejaVuSans-20" x="1369.775391"/>
     <use xlink:href="#DejaVuSans-62" x="1401.5625"/>
     <use xlink:href="#DejaVuSans-65" x="1465.039062"/>
     <use xlink:href="#DejaVuSans-74" x="1526.5625"/>
     <use xlink:href="#DejaVuSans-77" x="1565.771484"/>
     <use xlink:href="#DejaVuSans-65" x="1647.558594"/>
     <use xlink:href="#DejaVuSans-65" x="1709.082031"/>
     <use xlink:href="#DejaVuSans-6e" x="1770.605469"/>
     <use xlink:href="#DejaVuSans-20" x="1833.984375"/>
     <use xlink:href="#DejaVuSans-4f" x="1865.771484"/>
     <use xlink:href="#DejaVuSans-62" x="1944.482422"/>
     <use xlink:href="#DejaVuSans-65" x="2007.958984"/>
     <use xlink:href="#DejaVuSans-73" x="2069.482422"/>
     <use xlink:href="#DejaVuSans-69" x="2121.582031"/>
     <use xlink:href="#DejaVuSans-74" x="2149.365234"/>
     <use xlink:href="#DejaVuSans-79" x="2188.574219"/>
     <use xlink:href="#DejaVuSans-20" x="2247.753906"/>
     <use xlink:href="#DejaVuSans-61" x="2279.541016"/>
     <use xlink:href="#DejaVuSans-6e" x="2340.820312"/>
     <use xlink:href="#DejaVuSans-64" x="2404.199219"/>
     <use xlink:href="#DejaVuSans-20" x="2467.675781"/>
     <use xlink:href="#DejaVuSans-42" x="2499.462891"/>
     <use xlink:href="#DejaVuSans-4d" x="2568.066406"/>
     <use xlink:href="#DejaVuSans-49" x="2654.345703"/>
    </g>
   </g>
   <g id="text_16">
    <g clip-path="url(#p60e26fed10)">
     <!-- 13.00 -->
     <g transform="translate(111.824119 215.700543) scale(0.1 -0.1)">
      <use xlink:href="#DejaVuSans-31"/>
      <use xlink:href="#DejaVuSans-33" x="63.623047"/>
      <use xlink:href="#DejaVuSans-2e" x="127.246094"/>
      <use xlink:href="#DejaVuSans-30" x="159.033203"/>
      <use xlink:href="#DejaVuSans-30" x="222.65625"/>
     </g>
    </g>
   </g>
   <g id="text_17">
    <g clip-path="url(#p60e26fed10)">
     <!-- 13.00 -->
     <g transform="translate(252.507756 215.799551) scale(0.1 -0.1)">
      <use xlink:href="#DejaVuSans-31"/>
      <use xlink:href="#DejaVuSans-33" x="63.623047"/>
      <use xlink:href="#DejaVuSans-2e" x="127.246094"/>
      <use xlink:href="#DejaVuSans-30" x="159.033203"/>
      <use xlink:href="#DejaVuSans-30" x="222.65625"/>
     </g>
    </g>
   </g>
   <g id="text_18">
    <g clip-path="url(#p60e26fed10)">
     <!-- 13.00 -->
     <g transform="translate(382.369574 214.940077) scale(0.1 -0.1)">
      <use xlink:href="#DejaVuSans-31"/>
      <use xlink:href="#DejaVuSans-33" x="63.623047"/>
      <use xlink:href="#DejaVuSans-2e" x="127.246094"/>
      <use xlink:href="#DejaVuSans-30" x="159.033203"/>
      <use xlink:href="#DejaVuSans-30" x="222.65625"/>
     </g>
    </g>
   </g>
   <g id="text_19">
    <g clip-path="url(#p60e26fed10)">
     <!-- 13.01 -->
     <g transform="translate(241.685938 214.080603) scale(0.1 -0.1)">
      <use xlink:href="#DejaVuSans-31"/>
      <use xlink:href="#DejaVuSans-33" x="63.623047"/>
      <use xlink:href="#DejaVuSans-2e" x="127.246094"/>
      <use xlink:href="#DejaVuSans-30" x="159.033203"/>
      <use xlink:href="#DejaVuSans-31" x="222.65625"/>
     </g>
    </g>
   </g>
   <g id="text_20">
    <g clip-path="url(#p60e26fed10)">
     <!-- 13.01 -->
     <g transform="translate(252.507756 207.80789) scale(0.1 -0.1)">
      <use xlink:href="#DejaVuSans-31"/>
      <use xlink:href="#DejaVuSans-33" x="63.623047"/>
      <use xlink:href="#DejaVuSans-2e" x="127.246094"/>
      <use xlink:href="#DejaVuSans-30" x="159.033203"/>
      <use xlink:href="#DejaVuSans-31" x="222.65625"/>
     </g>
    </g>
   </g>
   <g id="text_21">
    <g clip-path="url(#p60e26fed10)">
     <!-- 13.01 -->
     <g transform="translate(157.246089 141.861386) rotate(-270) scale(0.1 -0.1)">
      <use xlink:href="#DejaVuSans-31"/>
      <use xlink:href="#DejaVuSans-33" x="63.623047"/>
      <use xlink:href="#DejaVuSans-2e" x="127.246094"/>
      <use xlink:href="#DejaVuSans-30" x="159.033203"/>
      <use xlink:href="#DejaVuSans-31" x="222.65625"/>
     </g>
    </g>
   </g>
  </g>
 </g>
 <defs>
  <clipPath id="p60e26fed10">
   <rect x="57.6" y="41.472" width="357.12" height="266.112"/>
  </clipPath>
 </defs>
</svg>
