<?xml version="1.0" encoding="utf-8" standalone="no"?>
<!DOCTYPE svg PUBLIC "-//W3C//DTD SVG 1.1//EN"
  "http://www.w3.org/Graphics/SVG/1.1/DTD/svg11.dtd">
<svg xmlns:xlink="http://www.w3.org/1999/xlink" width="460.8pt" height="345.6pt" viewBox="0 0 460.8 345.6" xmlns="http://www.w3.org/2000/svg" version="1.1">
 <metadata>
  <rdf:RDF xmlns:dc="http://purl.org/dc/elements/1.1/" xmlns:cc="http://creativecommons.org/ns#" xmlns:rdf="http://www.w3.org/1999/02/22-rdf-syntax-ns#">
   <cc:Work>
    <dc:type rdf:resource="http://purl.org/dc/dcmitype/StillImage"/>
    <dc:date>2024-04-22T00:29:13.293418</dc:date>
    <dc:format>image/svg+xml</dc:format>
    <dc:creator>
     <cc:Agent>
      <dc:title>Matplotlib v3.7.0, https://matplotlib.org/</dc:title>
     </cc:Agent>
    </dc:creator>
   </cc:Work>
  </rdf:RDF>
 </metadata>
 <defs>
  <style type="text/css">*{stroke-linejoin: round; stroke-linecap: butt}</style>
 </defs>
 <g id="figure_1">
  <g id="patch_1">
   <path d="M 0 345.6 
L 460.8 345.6 
L 460.8 0 
L 0 0 
L 0 345.6 
z
" style="fill: none"/>
  </g>
  <g id="axes_1"/>
  <g id="axes_2">
   <g id="patch_2">
    <path d="M 57.6 307.584 
L 414.72 307.584 
L 414.72 41.472 
L 57.6 41.472 
L 57.6 307.584 
z
" style="fill: none"/>
   </g>
   <g id="PathCollection_1">
    <path d="M 61.207273 307.584 
L 64.814545 307.584 
L 68.421818 307.584 
L 72.029091 307.584 
L 75.636364 307.584 
L 79.243636 307.584 
L 82.850909 307.584 
L 86.458182 307.584 
L 90.065455 307.584 
L 93.672727 307.584 
L 97.28 307.584 
L 100.887273 307.584 
L 104.494545 307.584 
L 108.101818 307.584 
L 111.709091 307.584 
L 115.316364 307.584 
L 118.923636 307.584 
L 122.530909 307.584 
L 126.138182 307.584 
L 129.745455 307.584 
L 133.352727 307.584 
L 136.96 307.584 
L 140.567273 307.584 
L 144.174545 307.584 
L 147.781818 307.584 
L 151.389091 307.584 
L 154.996364 307.584 
L 158.603636 307.584 
L 162.210909 307.584 
L 165.818182 307.584 
L 169.425455 307.584 
L 173.032727 307.584 
L 176.64 307.584 
L 180.247273 307.584 
L 183.854545 307.584 
L 187.461818 307.584 
L 191.069091 307.584 
L 194.676364 307.584 
L 198.283636 307.584 
L 201.890909 307.584 
L 205.498182 307.584 
L 209.105455 307.584 
L 212.712727 307.584 
L 216.32 307.584 
L 219.927273 307.584 
L 223.534545 307.584 
L 227.141818 307.584 
L 230.749091 307.584 
L 234.356364 307.584 
L 237.963636 307.584 
L 241.570909 307.584 
L 245.178182 307.584 
L 248.785455 307.584 
L 252.392727 307.584 
L 256 307.584 
L 259.607273 307.584 
L 263.214545 307.584 
L 266.821818 307.584 
L 270.429091 307.584 
L 274.036364 307.584 
L 277.643636 307.584 
L 281.250909 307.584 
L 284.858182 307.584 
L 288.465455 307.584 
L 292.072727 307.584 
L 295.68 307.584 
L 299.287273 307.584 
L 302.894545 307.584 
L 306.501818 307.584 
L 310.109091 307.584 
L 313.716364 307.584 
L 317.323636 307.584 
L 320.930909 307.584 
L 324.538182 307.584 
L 328.145455 307.584 
L 331.752727 307.584 
L 335.36 307.584 
L 338.967273 307.584 
L 342.574545 307.584 
L 346.181818 307.584 
L 349.789091 307.584 
L 353.396364 307.584 
L 357.003636 307.584 
L 360.610909 307.584 
L 364.218182 307.584 
L 367.825455 307.584 
L 371.432727 307.584 
L 375.04 307.584 
L 378.647273 307.584 
L 382.254545 307.584 
L 385.861818 307.584 
L 389.469091 307.584 
L 393.076364 307.584 
L 396.683636 307.584 
L 400.290909 307.584 
L 403.898182 307.584 
L 407.505455 307.584 
L 411.112727 307.584 
L 414.72 307.584 
L 414.72 304.896 
L 414.72 302.208 
L 414.72 299.52 
L 414.72 296.832 
L 414.72 294.144 
L 414.72 291.456 
L 414.72 288.768 
L 414.72 286.08 
L 414.72 283.392 
L 414.72 280.704 
L 414.72 278.016 
L 414.72 275.328 
L 414.72 272.64 
L 414.72 269.952 
L 414.72 267.264 
L 414.72 264.576 
L 414.72 261.888 
L 414.72 259.2 
L 414.72 256.512 
L 414.72 253.824 
L 414.72 251.136 
L 414.72 248.448 
L 414.72 245.76 
L 414.72 243.072 
L 414.72 240.384 
L 414.72 237.696 
L 414.72 235.008 
L 414.72 232.32 
L 414.72 229.632 
L 414.72 226.944 
L 414.72 224.256 
L 414.72 221.568 
L 414.72 218.88 
L 414.72 216.192 
L 414.72 213.504 
L 414.72 210.816 
L 414.72 208.128 
L 414.72 205.44 
L 414.72 202.752 
L 414.72 200.064 
L 414.72 197.376 
L 414.72 194.688 
L 414.72 192 
L 414.72 189.312 
L 414.72 186.624 
L 414.72 183.936 
L 414.72 182.881747 
L 411.112727 182.881747 
L 407.505455 182.881747 
L 403.898182 182.881747 
L 400.290909 182.881747 
L 396.683636 182.881747 
L 393.076364 182.881747 
L 389.469091 182.881747 
L 385.861818 182.881747 
L 382.254545 182.881747 
L 378.647273 182.881747 
L 375.04 182.881747 
L 371.432727 182.881747 
L 367.825455 182.881747 
L 364.218182 182.881747 
L 360.610909 182.881747 
L 357.003636 182.881747 
L 353.396364 182.881747 
L 349.789091 182.881747 
L 346.181818 182.881747 
L 342.574545 182.881747 
L 338.967273 182.881747 
L 335.36 182.881747 
L 331.752727 182.881747 
L 328.145455 182.881747 
L 324.538182 182.881747 
L 320.930909 182.881747 
L 317.323636 182.881747 
L 313.716364 182.881747 
L 310.109091 182.881747 
L 306.501818 182.881747 
L 302.894545 182.881747 
L 299.287273 182.881747 
L 295.68 182.881747 
L 292.072727 182.881747 
L 288.465455 182.881747 
L 284.858182 182.881747 
L 281.250909 182.881747 
L 277.643636 182.881747 
L 274.036364 182.881747 
L 270.429091 182.881747 
L 266.821818 182.881747 
L 263.214545 182.881747 
L 259.607273 182.881747 
L 256 182.881747 
L 252.392727 182.881747 
L 248.785455 182.881747 
L 245.178182 182.881747 
L 241.570909 182.881747 
L 237.963636 182.881747 
L 234.356364 182.881747 
L 230.749091 182.881747 
L 227.141818 182.881747 
L 223.534545 182.881747 
L 219.927273 182.881747 
L 216.32 182.881747 
L 212.712727 182.881747 
L 209.105455 182.881747 
L 205.498182 182.881747 
L 201.890909 182.881747 
L 198.283636 182.881747 
L 194.676364 182.881747 
L 191.069091 182.881747 
L 187.461818 182.881747 
L 183.854545 182.881747 
L 180.247273 182.881747 
L 176.64 182.881747 
L 173.032727 182.881747 
L 169.425455 182.881747 
L 165.818182 182.881747 
L 162.210909 182.881747 
L 158.603636 182.874358 
L 154.996364 182.874358 
L 151.389091 182.874358 
L 147.781818 182.874358 
L 144.174545 182.874358 
L 140.567273 182.874358 
L 136.96 182.874358 
L 133.352727 182.874358 
L 129.745455 182.874358 
L 126.138182 182.874358 
L 122.530909 182.874358 
L 118.923636 182.874358 
L 115.316364 182.874358 
L 111.709091 182.874358 
L 108.101818 182.874358 
L 104.494545 182.874358 
L 100.887273 182.874358 
L 97.28 182.874358 
L 93.672727 182.874358 
L 90.065455 182.874358 
L 86.458182 182.874358 
L 82.850909 182.874358 
L 79.243636 182.874358 
L 75.636364 182.874358 
L 72.029091 182.874358 
L 68.421818 182.874358 
L 64.814545 182.874358 
L 61.207273 182.874358 
L 57.6 182.874358 
L 57.6 183.936 
L 57.6 186.624 
L 57.6 189.312 
L 57.6 192 
L 57.6 194.688 
L 57.6 197.376 
L 57.6 200.064 
L 57.6 202.752 
L 57.6 205.44 
L 57.6 208.128 
L 57.6 210.816 
L 57.6 213.504 
L 57.6 216.192 
L 57.6 218.88 
L 57.6 221.568 
L 57.6 224.256 
L 57.6 226.944 
L 57.6 229.632 
L 57.6 232.32 
L 57.6 235.008 
L 57.6 237.696 
L 57.6 240.384 
L 57.6 243.072 
L 57.6 245.76 
L 57.6 248.448 
L 57.6 251.136 
L 57.6 253.824 
L 57.6 256.512 
L 57.6 259.2 
L 57.6 261.888 
L 57.6 264.576 
L 57.6 267.264 
L 57.6 269.952 
L 57.6 272.64 
L 57.6 275.328 
L 57.6 278.016 
L 57.6 280.704 
L 57.6 283.392 
L 57.6 286.08 
L 57.6 288.768 
L 57.6 291.456 
L 57.6 294.144 
L 57.6 296.832 
L 57.6 299.52 
L 57.6 302.208 
L 57.6 304.896 
L 57.6 307.584 
z
" clip-path="url(#p4de0e37b85)" style="fill: #481b6d; fill-opacity: 0.75"/>
   </g>
   <g id="PathCollection_2">
    <path d="M 61.207273 182.874358 
L 64.814545 182.874358 
L 68.421818 182.874358 
L 72.029091 182.874358 
L 75.636364 182.874358 
L 79.243636 182.874358 
L 82.850909 182.874358 
L 86.458182 182.874358 
L 90.065455 182.874358 
L 93.672727 182.874358 
L 97.28 182.874358 
L 100.887273 182.874358 
L 104.494545 182.874358 
L 108.101818 182.874358 
L 111.709091 182.874358 
L 115.316364 182.874358 
L 118.923636 182.874358 
L 122.530909 182.874358 
L 126.138182 182.874358 
L 129.745455 182.874358 
L 133.352727 182.874358 
L 136.96 182.874358 
L 140.567273 182.874358 
L 144.174545 182.874358 
L 147.781818 182.874358 
L 151.389091 182.874358 
L 154.996364 182.874358 
L 158.603636 182.874358 
L 162.210909 182.881747 
L 165.818182 182.881747 
L 169.425455 182.881747 
L 173.032727 182.881747 
L 176.64 182.881747 
L 180.247273 182.881747 
L 183.854545 182.881747 
L 187.461818 182.881747 
L 191.069091 182.881747 
L 194.676364 182.881747 
L 198.283636 182.881747 
L 201.890909 182.881747 
L 205.498182 182.881747 
L 209.105455 182.881747 
L 212.712727 182.881747 
L 216.32 182.881747 
L 219.927273 182.881747 
L 223.534545 182.881747 
L 227.141818 182.881747 
L 230.749091 182.881747 
L 234.356364 182.881747 
L 237.963636 182.881747 
L 241.570909 182.881747 
L 245.178182 182.881747 
L 248.785455 182.881747 
L 252.392727 182.881747 
L 256 182.881747 
L 259.607273 182.881747 
L 263.214545 182.881747 
L 266.821818 182.881747 
L 270.429091 182.881747 
L 274.036364 182.881747 
L 277.643636 182.881747 
L 281.250909 182.881747 
L 284.858182 182.881747 
L 288.465455 182.881747 
L 292.072727 182.881747 
L 295.68 182.881747 
L 299.287273 182.881747 
L 302.894545 182.881747 
L 306.501818 182.881747 
L 310.109091 182.881747 
L 313.716364 182.881747 
L 317.323636 182.881747 
L 320.930909 182.881747 
L 324.538182 182.881747 
L 328.145455 182.881747 
L 331.752727 182.881747 
L 335.36 182.881747 
L 338.967273 182.881747 
L 342.574545 182.881747 
L 346.181818 182.881747 
L 349.789091 182.881747 
L 353.396364 182.881747 
L 357.003636 182.881747 
L 360.610909 182.881747 
L 364.218182 182.881747 
L 367.825455 182.881747 
L 371.432727 182.881747 
L 375.04 182.881747 
L 378.647273 182.881747 
L 382.254545 182.881747 
L 385.861818 182.881747 
L 389.469091 182.881747 
L 393.076364 182.881747 
L 396.683636 182.881747 
L 400.290909 182.881747 
L 403.898182 182.881747 
L 407.505455 182.881747 
L 411.112727 182.881747 
L 414.72 182.881747 
L 414.72 181.248 
L 414.72 180.005976 
L 411.112727 180.005976 
L 407.505455 180.005976 
L 403.898182 180.005976 
L 400.290909 180.005976 
L 396.683636 180.005976 
L 393.076364 180.005976 
L 389.469091 180.005976 
L 385.861818 180.005976 
L 382.254545 180.005976 
L 378.647273 180.005976 
L 375.04 180.005976 
L 371.432727 180.005976 
L 367.825455 180.005976 
L 364.218182 180.005976 
L 360.610909 180.005976 
L 357.003636 180.005976 
L 353.396364 180.005976 
L 349.789091 180.005976 
L 346.181818 180.005976 
L 342.574545 180.005976 
L 338.967273 180.005976 
L 335.36 180.005976 
L 331.752727 180.005976 
L 328.145455 180.005976 
L 324.538182 180.005976 
L 320.930909 180.005976 
L 317.323636 180.005976 
L 313.716364 180.005976 
L 310.109091 180.005976 
L 306.501818 180.005976 
L 302.894545 180.005976 
L 299.287273 180.005976 
L 295.68 180.005976 
L 292.072727 180.005976 
L 288.465455 180.005976 
L 284.858182 180.005976 
L 281.250909 180.005976 
L 277.643636 180.005976 
L 274.036364 180.005976 
L 270.429091 180.005976 
L 266.821818 180.005976 
L 263.214545 180.005976 
L 259.607273 180.005976 
L 256 180.005976 
L 252.392727 180.005976 
L 248.785455 180.005976 
L 245.178182 180.005976 
L 241.570909 180.005976 
L 237.963636 180.005976 
L 234.356364 180.005976 
L 230.749091 180.005976 
L 227.141818 180.005976 
L 223.534545 180.005976 
L 219.927273 180.005976 
L 216.32 180.005976 
L 212.712727 180.005976 
L 209.105455 180.005976 
L 205.498182 180.005976 
L 201.890909 180.005976 
L 198.283636 180.005976 
L 194.676364 180.005976 
L 191.069091 180.005976 
L 187.461818 180.005976 
L 183.854545 180.005976 
L 180.247273 180.005976 
L 176.64 180.005976 
L 173.032727 180.005976 
L 169.425455 180.005976 
L 165.818182 180.005976 
L 162.210909 180.005976 
L 158.603636 179.985221 
L 154.996364 179.985221 
L 151.389091 179.985221 
L 147.781818 179.985221 
L 144.174545 179.985221 
L 140.567273 179.985221 
L 136.96 179.985221 
L 133.352727 179.985221 
L 129.745455 179.985221 
L 126.138182 179.985221 
L 122.530909 179.985221 
L 118.923636 179.985221 
L 115.316364 179.985221 
L 111.709091 179.985221 
L 108.101818 179.985221 
L 104.494545 179.985221 
L 100.887273 179.985221 
L 97.28 179.985221 
L 93.672727 179.985221 
L 90.065455 179.985221 
L 86.458182 179.985221 
L 82.850909 179.985221 
L 79.243636 179.985221 
L 75.636364 179.985221 
L 72.029091 179.985221 
L 68.421818 179.985221 
L 64.814545 179.985221 
L 61.207273 179.985221 
L 57.6 179.985221 
L 57.6 181.248 
L 57.6 182.874358 
z
" clip-path="url(#p4de0e37b85)" style="fill: #3f4788; fill-opacity: 0.75"/>
   </g>
   <g id="PathCollection_3">
    <path d="M 61.207273 179.985221 
L 64.814545 179.985221 
L 68.421818 179.985221 
L 72.029091 179.985221 
L 75.636364 179.985221 
L 79.243636 179.985221 
L 82.850909 179.985221 
L 86.458182 179.985221 
L 90.065455 179.985221 
L 93.672727 179.985221 
L 97.28 179.985221 
L 100.887273 179.985221 
L 104.494545 179.985221 
L 108.101818 179.985221 
L 111.709091 179.985221 
L 115.316364 179.985221 
L 118.923636 179.985221 
L 122.530909 179.985221 
L 126.138182 179.985221 
L 129.745455 179.985221 
L 133.352727 179.985221 
L 136.96 179.985221 
L 140.567273 179.985221 
L 144.174545 179.985221 
L 147.781818 179.985221 
L 151.389091 179.985221 
L 154.996364 179.985221 
L 158.603636 179.985221 
L 162.210909 180.005976 
L 165.818182 180.005976 
L 169.425455 180.005976 
L 173.032727 180.005976 
L 176.64 180.005976 
L 180.247273 180.005976 
L 183.854545 180.005976 
L 187.461818 180.005976 
L 191.069091 180.005976 
L 194.676364 180.005976 
L 198.283636 180.005976 
L 201.890909 180.005976 
L 205.498182 180.005976 
L 209.105455 180.005976 
L 212.712727 180.005976 
L 216.32 180.005976 
L 219.927273 180.005976 
L 223.534545 180.005976 
L 227.141818 180.005976 
L 230.749091 180.005976 
L 234.356364 180.005976 
L 237.963636 180.005976 
L 241.570909 180.005976 
L 245.178182 180.005976 
L 248.785455 180.005976 
L 252.392727 180.005976 
L 256 180.005976 
L 259.607273 180.005976 
L 263.214545 180.005976 
L 266.821818 180.005976 
L 270.429091 180.005976 
L 274.036364 180.005976 
L 277.643636 180.005976 
L 281.250909 180.005976 
L 284.858182 180.005976 
L 288.465455 180.005976 
L 292.072727 180.005976 
L 295.68 180.005976 
L 299.287273 180.005976 
L 302.894545 180.005976 
L 306.501818 180.005976 
L 310.109091 180.005976 
L 313.716364 180.005976 
L 317.323636 180.005976 
L 320.930909 180.005976 
L 324.538182 180.005976 
L 328.145455 180.005976 
L 331.752727 180.005976 
L 335.36 180.005976 
L 338.967273 180.005976 
L 342.574545 180.005976 
L 346.181818 180.005976 
L 349.789091 180.005976 
L 353.396364 180.005976 
L 357.003636 180.005976 
L 360.610909 180.005976 
L 364.218182 180.005976 
L 367.825455 180.005976 
L 371.432727 180.005976 
L 375.04 180.005976 
L 378.647273 180.005976 
L 382.254545 180.005976 
L 385.861818 180.005976 
L 389.469091 180.005976 
L 393.076364 180.005976 
L 396.683636 180.005976 
L 400.290909 180.005976 
L 403.898182 180.005976 
L 407.505455 180.005976 
L 411.112727 180.005976 
L 414.72 180.005976 
L 414.72 178.56 
L 414.72 175.872 
L 414.72 174.505684 
L 411.112727 174.505684 
L 407.505455 174.505684 
L 403.898182 174.505684 
L 400.290909 174.505684 
L 396.683636 174.505684 
L 393.076364 174.505684 
L 389.469091 174.505684 
L 385.861818 174.505684 
L 382.254545 174.505684 
L 378.647273 174.505684 
L 375.04 174.505684 
L 371.432727 174.505684 
L 367.825455 174.505684 
L 364.218182 174.505684 
L 360.610909 174.505684 
L 357.003636 174.505684 
L 353.396364 174.505684 
L 349.789091 174.505684 
L 346.181818 174.505684 
L 342.574545 174.505684 
L 338.967273 174.505684 
L 335.36 174.505684 
L 331.752727 174.505684 
L 328.145455 174.505684 
L 324.538182 174.505684 
L 320.930909 174.505684 
L 317.323636 174.505684 
L 313.716364 174.505684 
L 310.109091 174.505684 
L 306.501818 174.505684 
L 302.894545 174.505684 
L 299.287273 174.505684 
L 295.68 174.505684 
L 292.072727 174.505684 
L 288.465455 174.505684 
L 284.858182 174.505684 
L 281.250909 174.505684 
L 277.643636 174.505684 
L 274.036364 174.505684 
L 270.429091 174.505684 
L 266.821818 174.505684 
L 263.214545 174.505684 
L 259.607273 174.505684 
L 256 174.505684 
L 252.392727 174.505684 
L 248.785455 174.505684 
L 245.178182 174.505684 
L 241.570909 174.505684 
L 237.963636 174.505684 
L 234.356364 174.505684 
L 230.749091 174.505684 
L 227.141818 174.505684 
L 223.534545 174.505684 
L 219.927273 174.505684 
L 216.32 174.505684 
L 212.712727 174.505684 
L 209.105455 174.505684 
L 205.498182 174.505684 
L 201.890909 174.505684 
L 198.283636 174.505684 
L 194.676364 174.505684 
L 191.069091 174.505684 
L 187.461818 174.505684 
L 183.854545 174.505684 
L 180.247273 174.505684 
L 176.64 174.505684 
L 173.032727 174.505684 
L 169.425455 174.505684 
L 165.818182 174.505684 
L 162.210909 174.505684 
L 158.603636 174.497746 
L 154.996364 174.497746 
L 151.389091 174.497746 
L 147.781818 174.497746 
L 144.174545 174.497746 
L 140.567273 174.497746 
L 136.96 174.497746 
L 133.352727 174.497746 
L 129.745455 174.497746 
L 126.138182 174.497746 
L 122.530909 174.497746 
L 118.923636 174.497746 
L 115.316364 174.497746 
L 111.709091 174.497746 
L 108.101818 174.497746 
L 104.494545 174.497746 
L 100.887273 174.497746 
L 97.28 174.497746 
L 93.672727 174.497746 
L 90.065455 174.497746 
L 86.458182 174.497746 
L 82.850909 174.497746 
L 79.243636 174.497746 
L 75.636364 174.497746 
L 72.029091 174.497746 
L 68.421818 174.497746 
L 64.814545 174.497746 
L 61.207273 174.497746 
L 57.6 174.497746 
L 57.6 175.872 
L 57.6 178.56 
L 57.6 179.985221 
z
" clip-path="url(#p4de0e37b85)" style="fill: #2e6e8e; fill-opacity: 0.75"/>
   </g>
   <g id="PathCollection_4">
    <path d="M 61.207273 174.497746 
L 64.814545 174.497746 
L 68.421818 174.497746 
L 72.029091 174.497746 
L 75.636364 174.497746 
L 79.243636 174.497746 
L 82.850909 174.497746 
L 86.458182 174.497746 
L 90.065455 174.497746 
L 93.672727 174.497746 
L 97.28 174.497746 
L 100.887273 174.497746 
L 104.494545 174.497746 
L 108.101818 174.497746 
L 111.709091 174.497746 
L 115.316364 174.497746 
L 118.923636 174.497746 
L 122.530909 174.497746 
L 126.138182 174.497746 
L 129.745455 174.497746 
L 133.352727 174.497746 
L 136.96 174.497746 
L 140.567273 174.497746 
L 144.174545 174.497746 
L 147.781818 174.497746 
L 151.389091 174.497746 
L 154.996364 174.497746 
L 158.603636 174.497746 
L 162.210909 174.505684 
L 165.818182 174.505684 
L 169.425455 174.505684 
L 173.032727 174.505684 
L 176.64 174.505684 
L 180.247273 174.505684 
L 183.854545 174.505684 
L 187.461818 174.505684 
L 191.069091 174.505684 
L 194.676364 174.505684 
L 198.283636 174.505684 
L 201.890909 174.505684 
L 205.498182 174.505684 
L 209.105455 174.505684 
L 212.712727 174.505684 
L 216.32 174.505684 
L 219.927273 174.505684 
L 223.534545 174.505684 
L 227.141818 174.505684 
L 230.749091 174.505684 
L 234.356364 174.505684 
L 237.963636 174.505684 
L 241.570909 174.505684 
L 245.178182 174.505684 
L 248.785455 174.505684 
L 252.392727 174.505684 
L 256 174.505684 
L 259.607273 174.505684 
L 263.214545 174.505684 
L 266.821818 174.505684 
L 270.429091 174.505684 
L 274.036364 174.505684 
L 277.643636 174.505684 
L 281.250909 174.505684 
L 284.858182 174.505684 
L 288.465455 174.505684 
L 292.072727 174.505684 
L 295.68 174.505684 
L 299.287273 174.505684 
L 302.894545 174.505684 
L 306.501818 174.505684 
L 310.109091 174.505684 
L 313.716364 174.505684 
L 317.323636 174.505684 
L 320.930909 174.505684 
L 324.538182 174.505684 
L 328.145455 174.505684 
L 331.752727 174.505684 
L 335.36 174.505684 
L 338.967273 174.505684 
L 342.574545 174.505684 
L 346.181818 174.505684 
L 349.789091 174.505684 
L 353.396364 174.505684 
L 357.003636 174.505684 
L 360.610909 174.505684 
L 364.218182 174.505684 
L 367.825455 174.505684 
L 371.432727 174.505684 
L 375.04 174.505684 
L 378.647273 174.505684 
L 382.254545 174.505684 
L 385.861818 174.505684 
L 389.469091 174.505684 
L 393.076364 174.505684 
L 396.683636 174.505684 
L 400.290909 174.505684 
L 403.898182 174.505684 
L 407.505455 174.505684 
L 411.112727 174.505684 
L 414.72 174.505684 
L 414.72 173.184 
L 414.72 171.817648 
L 411.112727 171.817648 
L 407.505455 171.817648 
L 403.898182 171.817648 
L 400.290909 171.817648 
L 396.683636 171.817648 
L 393.076364 171.817648 
L 389.469091 171.817648 
L 385.861818 171.817648 
L 382.254545 171.817648 
L 378.647273 171.817648 
L 375.04 171.817648 
L 371.432727 171.817648 
L 367.825455 171.817648 
L 364.218182 171.817648 
L 360.610909 171.817648 
L 357.003636 171.817648 
L 353.396364 171.817648 
L 349.789091 171.817648 
L 346.181818 171.817648 
L 342.574545 171.817648 
L 338.967273 171.817648 
L 335.36 171.817648 
L 331.752727 171.817648 
L 328.145455 171.817648 
L 324.538182 171.817648 
L 320.930909 171.817648 
L 317.323636 171.817648 
L 313.716364 171.817648 
L 310.109091 171.817648 
L 306.501818 171.817648 
L 302.894545 171.817648 
L 299.287273 171.817648 
L 295.68 171.817648 
L 292.072727 171.817648 
L 288.465455 171.817648 
L 284.858182 171.817648 
L 281.250909 171.817648 
L 277.643636 171.817648 
L 274.036364 171.817648 
L 270.429091 171.817648 
L 266.821818 171.817648 
L 263.214545 171.817648 
L 259.607273 171.817648 
L 256 171.817648 
L 252.392727 171.817648 
L 248.785455 171.817648 
L 245.178182 171.817648 
L 241.570909 171.817648 
L 237.963636 171.817648 
L 234.356364 171.817648 
L 230.749091 171.817648 
L 227.141818 171.817648 
L 223.534545 171.817648 
L 219.927273 171.817648 
L 216.32 171.817648 
L 212.712727 171.817648 
L 209.105455 171.817648 
L 205.498182 171.817648 
L 201.890909 171.817648 
L 198.283636 171.817648 
L 194.676364 171.817648 
L 191.069091 171.817648 
L 187.461818 171.817648 
L 183.854545 171.817648 
L 180.247273 171.817648 
L 176.64 171.817648 
L 173.032727 171.817648 
L 169.425455 171.817648 
L 165.818182 171.817648 
L 162.210909 171.817648 
L 158.603636 171.805709 
L 154.996364 171.805709 
L 151.389091 171.805709 
L 147.781818 171.805709 
L 144.174545 171.805709 
L 140.567273 171.805709 
L 136.96 171.805709 
L 133.352727 171.805709 
L 129.745455 171.805709 
L 126.138182 171.805709 
L 122.530909 171.805709 
L 118.923636 171.805709 
L 115.316364 171.805709 
L 111.709091 171.805709 
L 108.101818 171.805709 
L 104.494545 171.805709 
L 100.887273 171.805709 
L 97.28 171.805709 
L 93.672727 171.805709 
L 90.065455 171.805709 
L 86.458182 171.805709 
L 82.850909 171.805709 
L 79.243636 171.805709 
L 75.636364 171.805709 
L 72.029091 171.805709 
L 68.421818 171.805709 
L 64.814545 171.805709 
L 61.207273 171.805709 
L 57.6 171.805709 
L 57.6 173.184 
L 57.6 174.497746 
z
" clip-path="url(#p4de0e37b85)" style="fill: #21918c; fill-opacity: 0.75"/>
   </g>
   <g id="PathCollection_5">
    <path d="M 61.207273 171.805709 
L 64.814545 171.805709 
L 68.421818 171.805709 
L 72.029091 171.805709 
L 75.636364 171.805709 
L 79.243636 171.805709 
L 82.850909 171.805709 
L 86.458182 171.805709 
L 90.065455 171.805709 
L 93.672727 171.805709 
L 97.28 171.805709 
L 100.887273 171.805709 
L 104.494545 171.805709 
L 108.101818 171.805709 
L 111.709091 171.805709 
L 115.316364 171.805709 
L 118.923636 171.805709 
L 122.530909 171.805709 
L 126.138182 171.805709 
L 129.745455 171.805709 
L 133.352727 171.805709 
L 136.96 171.805709 
L 140.567273 171.805709 
L 144.174545 171.805709 
L 147.781818 171.805709 
L 151.389091 171.805709 
L 154.996364 171.805709 
L 158.603636 171.805709 
L 162.210909 171.817648 
L 165.818182 171.817648 
L 169.425455 171.817648 
L 173.032727 171.817648 
L 176.64 171.817648 
L 180.247273 171.817648 
L 183.854545 171.817648 
L 187.461818 171.817648 
L 191.069091 171.817648 
L 194.676364 171.817648 
L 198.283636 171.817648 
L 201.890909 171.817648 
L 205.498182 171.817648 
L 209.105455 171.817648 
L 212.712727 171.817648 
L 216.32 171.817648 
L 219.927273 171.817648 
L 223.534545 171.817648 
L 227.141818 171.817648 
L 230.749091 171.817648 
L 234.356364 171.817648 
L 237.963636 171.817648 
L 241.570909 171.817648 
L 245.178182 171.817648 
L 248.785455 171.817648 
L 252.392727 171.817648 
L 256 171.817648 
L 259.607273 171.817648 
L 263.214545 171.817648 
L 266.821818 171.817648 
L 270.429091 171.817648 
L 274.036364 171.817648 
L 277.643636 171.817648 
L 281.250909 171.817648 
L 284.858182 171.817648 
L 288.465455 171.817648 
L 292.072727 171.817648 
L 295.68 171.817648 
L 299.287273 171.817648 
L 302.894545 171.817648 
L 306.501818 171.817648 
L 310.109091 171.817648 
L 313.716364 171.817648 
L 317.323636 171.817648 
L 320.930909 171.817648 
L 324.538182 171.817648 
L 328.145455 171.817648 
L 331.752727 171.817648 
L 335.36 171.817648 
L 338.967273 171.817648 
L 342.574545 171.817648 
L 346.181818 171.817648 
L 349.789091 171.817648 
L 353.396364 171.817648 
L 357.003636 171.817648 
L 360.610909 171.817648 
L 364.218182 171.817648 
L 367.825455 171.817648 
L 371.432727 171.817648 
L 375.04 171.817648 
L 378.647273 171.817648 
L 382.254545 171.817648 
L 385.861818 171.817648 
L 389.469091 171.817648 
L 393.076364 171.817648 
L 396.683636 171.817648 
L 400.290909 171.817648 
L 403.898182 171.817648 
L 407.505455 171.817648 
L 411.112727 171.817648 
L 414.72 171.817648 
L 414.72 170.496 
L 414.72 167.808 
L 414.72 165.12 
L 414.72 164.097458 
L 411.112727 164.097458 
L 407.505455 164.097458 
L 403.898182 164.097458 
L 400.290909 164.097458 
L 396.683636 164.097458 
L 393.076364 164.097458 
L 389.469091 164.097458 
L 385.861818 164.097458 
L 382.254545 164.097458 
L 378.647273 164.097458 
L 375.04 164.097458 
L 371.432727 164.097458 
L 367.825455 164.097458 
L 364.218182 164.097458 
L 360.610909 164.097458 
L 357.003636 164.097458 
L 353.396364 164.097458 
L 349.789091 164.097458 
L 346.181818 164.097458 
L 342.574545 164.097458 
L 338.967273 164.097458 
L 335.36 164.097458 
L 331.752727 164.097458 
L 328.145455 164.097458 
L 324.538182 164.097458 
L 320.930909 164.097458 
L 317.323636 164.097458 
L 313.716364 164.097458 
L 310.109091 164.097458 
L 306.501818 164.097458 
L 302.894545 164.097458 
L 299.287273 164.097458 
L 295.68 164.097458 
L 292.072727 164.097458 
L 288.465455 164.097458 
L 284.858182 164.097458 
L 281.250909 164.097458 
L 277.643636 164.097458 
L 274.036364 164.097458 
L 270.429091 164.097458 
L 266.821818 164.097458 
L 263.214545 164.097458 
L 259.607273 164.097458 
L 256 164.097458 
L 252.392727 164.097458 
L 248.785455 164.097458 
L 245.178182 164.097458 
L 241.570909 164.097458 
L 237.963636 164.097458 
L 234.356364 164.097458 
L 230.749091 164.097458 
L 227.141818 164.097458 
L 223.534545 164.097458 
L 219.927273 164.097458 
L 216.32 164.097458 
L 212.712727 164.097458 
L 209.105455 164.097458 
L 205.498182 164.097458 
L 201.890909 164.097458 
L 198.283636 164.097458 
L 194.676364 164.097458 
L 191.069091 164.097458 
L 187.461818 164.097458 
L 183.854545 164.097458 
L 180.247273 164.097458 
L 176.64 164.097458 
L 173.032727 164.097458 
L 169.425455 164.097458 
L 165.818182 164.097458 
L 162.210909 164.097458 
L 158.603636 164.091451 
L 154.996364 164.091451 
L 151.389091 164.091451 
L 147.781818 164.091451 
L 144.174545 164.091451 
L 140.567273 164.091451 
L 136.96 164.091451 
L 133.352727 164.091451 
L 129.745455 164.091451 
L 126.138182 164.091451 
L 122.530909 164.091451 
L 118.923636 164.091451 
L 115.316364 164.091451 
L 111.709091 164.091451 
L 108.101818 164.091451 
L 104.494545 164.091451 
L 100.887273 164.091451 
L 97.28 164.091451 
L 93.672727 164.091451 
L 90.065455 164.091451 
L 86.458182 164.091451 
L 82.850909 164.091451 
L 79.243636 164.091451 
L 75.636364 164.091451 
L 72.029091 164.091451 
L 68.421818 164.091451 
L 64.814545 164.091451 
L 61.207273 164.091451 
L 57.6 164.091451 
L 57.6 165.12 
L 57.6 167.808 
L 57.6 170.496 
L 57.6 171.805709 
z
" clip-path="url(#p4de0e37b85)" style="fill: #2db27d; fill-opacity: 0.75"/>
   </g>
   <g id="PathCollection_6">
    <path d="M 61.207273 164.091451 
L 64.814545 164.091451 
L 68.421818 164.091451 
L 72.029091 164.091451 
L 75.636364 164.091451 
L 79.243636 164.091451 
L 82.850909 164.091451 
L 86.458182 164.091451 
L 90.065455 164.091451 
L 93.672727 164.091451 
L 97.28 164.091451 
L 100.887273 164.091451 
L 104.494545 164.091451 
L 108.101818 164.091451 
L 111.709091 164.091451 
L 115.316364 164.091451 
L 118.923636 164.091451 
L 122.530909 164.091451 
L 126.138182 164.091451 
L 129.745455 164.091451 
L 133.352727 164.091451 
L 136.96 164.091451 
L 140.567273 164.091451 
L 144.174545 164.091451 
L 147.781818 164.091451 
L 151.389091 164.091451 
L 154.996364 164.091451 
L 158.603636 164.091451 
L 162.210909 164.097458 
L 165.818182 164.097458 
L 169.425455 164.097458 
L 173.032727 164.097458 
L 176.64 164.097458 
L 180.247273 164.097458 
L 183.854545 164.097458 
L 187.461818 164.097458 
L 191.069091 164.097458 
L 194.676364 164.097458 
L 198.283636 164.097458 
L 201.890909 164.097458 
L 205.498182 164.097458 
L 209.105455 164.097458 
L 212.712727 164.097458 
L 216.32 164.097458 
L 219.927273 164.097458 
L 223.534545 164.097458 
L 227.141818 164.097458 
L 230.749091 164.097458 
L 234.356364 164.097458 
L 237.963636 164.097458 
L 241.570909 164.097458 
L 245.178182 164.097458 
L 248.785455 164.097458 
L 252.392727 164.097458 
L 256 164.097458 
L 259.607273 164.097458 
L 263.214545 164.097458 
L 266.821818 164.097458 
L 270.429091 164.097458 
L 274.036364 164.097458 
L 277.643636 164.097458 
L 281.250909 164.097458 
L 284.858182 164.097458 
L 288.465455 164.097458 
L 292.072727 164.097458 
L 295.68 164.097458 
L 299.287273 164.097458 
L 302.894545 164.097458 
L 306.501818 164.097458 
L 310.109091 164.097458 
L 313.716364 164.097458 
L 317.323636 164.097458 
L 320.930909 164.097458 
L 324.538182 164.097458 
L 328.145455 164.097458 
L 331.752727 164.097458 
L 335.36 164.097458 
L 338.967273 164.097458 
L 342.574545 164.097458 
L 346.181818 164.097458 
L 349.789091 164.097458 
L 353.396364 164.097458 
L 357.003636 164.097458 
L 360.610909 164.097458 
L 364.218182 164.097458 
L 367.825455 164.097458 
L 371.432727 164.097458 
L 375.04 164.097458 
L 378.647273 164.097458 
L 382.254545 164.097458 
L 385.861818 164.097458 
L 389.469091 164.097458 
L 393.076364 164.097458 
L 396.683636 164.097458 
L 400.290909 164.097458 
L 403.898182 164.097458 
L 407.505455 164.097458 
L 411.112727 164.097458 
L 414.72 164.097458 
L 414.72 162.432 
L 414.72 159.744 
L 414.72 159.588623 
L 411.112727 159.588623 
L 407.505455 159.588623 
L 403.898182 159.588623 
L 400.290909 159.588623 
L 396.683636 159.588623 
L 393.076364 159.588623 
L 389.469091 159.588623 
L 385.861818 159.588623 
L 382.254545 159.588623 
L 378.647273 159.588623 
L 375.04 159.588623 
L 371.432727 159.588623 
L 367.825455 159.588623 
L 364.218182 159.588623 
L 360.610909 159.588623 
L 357.003636 159.588623 
L 353.396364 159.588623 
L 349.789091 159.588623 
L 346.181818 159.588623 
L 342.574545 159.588623 
L 338.967273 159.588623 
L 335.36 159.588623 
L 331.752727 159.588623 
L 328.145455 159.588623 
L 324.538182 159.588623 
L 320.930909 159.588623 
L 317.323636 159.588623 
L 313.716364 159.588623 
L 310.109091 159.588623 
L 306.501818 159.588623 
L 302.894545 159.588623 
L 299.287273 159.588623 
L 295.68 159.588623 
L 292.072727 159.588623 
L 288.465455 159.588623 
L 284.858182 159.588623 
L 281.250909 159.588623 
L 277.643636 159.588623 
L 274.036364 159.588623 
L 270.429091 159.588623 
L 266.821818 159.588623 
L 263.214545 159.588623 
L 259.607273 159.588623 
L 256 159.588623 
L 252.392727 159.588623 
L 248.785455 159.588623 
L 245.178182 159.588623 
L 241.570909 159.588623 
L 237.963636 159.588623 
L 234.356364 159.588623 
L 230.749091 159.588623 
L 227.141818 159.588623 
L 223.534545 159.588623 
L 219.927273 159.588623 
L 216.32 159.588623 
L 212.712727 159.588623 
L 209.105455 159.588623 
L 205.498182 159.588623 
L 201.890909 159.588623 
L 198.283636 159.588623 
L 194.676364 159.588623 
L 191.069091 159.588623 
L 187.461818 159.588623 
L 183.854545 159.588623 
L 180.247273 159.588623 
L 176.64 159.588623 
L 173.032727 159.588623 
L 169.425455 159.588623 
L 165.818182 159.588623 
L 162.210909 159.588623 
L 158.603636 159.546108 
L 154.996364 159.546108 
L 151.389091 159.546108 
L 147.781818 159.546108 
L 144.174545 159.546108 
L 140.567273 159.546108 
L 136.96 159.546108 
L 133.352727 159.546108 
L 129.745455 159.546108 
L 126.138182 159.546108 
L 122.530909 159.546108 
L 118.923636 159.546108 
L 115.316364 159.546108 
L 111.709091 159.546108 
L 108.101818 159.546108 
L 104.494545 159.546108 
L 100.887273 159.546108 
L 97.28 159.546108 
L 93.672727 159.546108 
L 90.065455 159.546108 
L 86.458182 159.546108 
L 82.850909 159.546108 
L 79.243636 159.546108 
L 75.636364 159.546108 
L 72.029091 159.546108 
L 68.421818 159.546108 
L 64.814545 159.546108 
L 61.207273 159.546108 
L 57.6 159.546108 
L 57.6 159.744 
L 57.6 162.432 
L 57.6 164.091451 
z
" clip-path="url(#p4de0e37b85)" style="fill: #73d056; fill-opacity: 0.75"/>
   </g>
   <g id="PathCollection_7">
    <path d="M 61.207273 159.546108 
L 64.814545 159.546108 
L 68.421818 159.546108 
L 72.029091 159.546108 
L 75.636364 159.546108 
L 79.243636 159.546108 
L 82.850909 159.546108 
L 86.458182 159.546108 
L 90.065455 159.546108 
L 93.672727 159.546108 
L 97.28 159.546108 
L 100.887273 159.546108 
L 104.494545 159.546108 
L 108.101818 159.546108 
L 111.709091 159.546108 
L 115.316364 159.546108 
L 118.923636 159.546108 
L 122.530909 159.546108 
L 126.138182 159.546108 
L 129.745455 159.546108 
L 133.352727 159.546108 
L 136.96 159.546108 
L 140.567273 159.546108 
L 144.174545 159.546108 
L 147.781818 159.546108 
L 151.389091 159.546108 
L 154.996364 159.546108 
L 158.603636 159.546108 
L 162.210909 159.588623 
L 165.818182 159.588623 
L 169.425455 159.588623 
L 173.032727 159.588623 
L 176.64 159.588623 
L 180.247273 159.588623 
L 183.854545 159.588623 
L 187.461818 159.588623 
L 191.069091 159.588623 
L 194.676364 159.588623 
L 198.283636 159.588623 
L 201.890909 159.588623 
L 205.498182 159.588623 
L 209.105455 159.588623 
L 212.712727 159.588623 
L 216.32 159.588623 
L 219.927273 159.588623 
L 223.534545 159.588623 
L 227.141818 159.588623 
L 230.749091 159.588623 
L 234.356364 159.588623 
L 237.963636 159.588623 
L 241.570909 159.588623 
L 245.178182 159.588623 
L 248.785455 159.588623 
L 252.392727 159.588623 
L 256 159.588623 
L 259.607273 159.588623 
L 263.214545 159.588623 
L 266.821818 159.588623 
L 270.429091 159.588623 
L 274.036364 159.588623 
L 277.643636 159.588623 
L 281.250909 159.588623 
L 284.858182 159.588623 
L 288.465455 159.588623 
L 292.072727 159.588623 
L 295.68 159.588623 
L 299.287273 159.588623 
L 302.894545 159.588623 
L 306.501818 159.588623 
L 310.109091 159.588623 
L 313.716364 159.588623 
L 317.323636 159.588623 
L 320.930909 159.588623 
L 324.538182 159.588623 
L 328.145455 159.588623 
L 331.752727 159.588623 
L 335.36 159.588623 
L 338.967273 159.588623 
L 342.574545 159.588623 
L 346.181818 159.588623 
L 349.789091 159.588623 
L 353.396364 159.588623 
L 357.003636 159.588623 
L 360.610909 159.588623 
L 364.218182 159.588623 
L 367.825455 159.588623 
L 371.432727 159.588623 
L 375.04 159.588623 
L 378.647273 159.588623 
L 382.254545 159.588623 
L 385.861818 159.588623 
L 389.469091 159.588623 
L 393.076364 159.588623 
L 396.683636 159.588623 
L 400.290909 159.588623 
L 403.898182 159.588623 
L 407.505455 159.588623 
L 411.112727 159.588623 
L 414.72 159.588623 
L 414.72 157.056 
L 414.72 154.368 
L 414.72 151.68 
L 414.72 148.992 
L 414.72 146.304 
L 414.72 143.616 
L 414.72 140.928 
L 414.72 138.24 
L 414.72 135.552 
L 414.72 132.864 
L 414.72 130.176 
L 414.72 127.488 
L 414.72 124.8 
L 414.72 122.112 
L 414.72 119.424 
L 414.72 116.736 
L 414.72 114.048 
L 414.72 111.36 
L 414.72 108.672 
L 414.72 105.984 
L 414.72 103.296 
L 414.72 100.608 
L 414.72 97.92 
L 414.72 95.232 
L 414.72 92.544 
L 414.72 89.856 
L 414.72 87.168 
L 414.72 84.48 
L 414.72 81.792 
L 414.72 79.104 
L 414.72 76.416 
L 414.72 73.728 
L 414.72 71.04 
L 414.72 68.352 
L 414.72 65.664 
L 414.72 62.976 
L 414.72 60.288 
L 414.72 57.6 
L 414.72 54.912 
L 414.72 52.224 
L 414.72 49.536 
L 414.72 46.848 
L 414.72 44.16 
L 414.72 41.472 
L 411.112727 41.472 
L 407.505455 41.472 
L 403.898182 41.472 
L 400.290909 41.472 
L 396.683636 41.472 
L 393.076364 41.472 
L 389.469091 41.472 
L 385.861818 41.472 
L 382.254545 41.472 
L 378.647273 41.472 
L 375.04 41.472 
L 371.432727 41.472 
L 367.825455 41.472 
L 364.218182 41.472 
L 360.610909 41.472 
L 357.003636 41.472 
L 353.396364 41.472 
L 349.789091 41.472 
L 346.181818 41.472 
L 342.574545 41.472 
L 338.967273 41.472 
L 335.36 41.472 
L 331.752727 41.472 
L 328.145455 41.472 
L 324.538182 41.472 
L 320.930909 41.472 
L 317.323636 41.472 
L 313.716364 41.472 
L 310.109091 41.472 
L 306.501818 41.472 
L 302.894545 41.472 
L 299.287273 41.472 
L 295.68 41.472 
L 292.072727 41.472 
L 288.465455 41.472 
L 284.858182 41.472 
L 281.250909 41.472 
L 277.643636 41.472 
L 274.036364 41.472 
L 270.429091 41.472 
L 266.821818 41.472 
L 263.214545 41.472 
L 259.607273 41.472 
L 256 41.472 
L 252.392727 41.472 
L 248.785455 41.472 
L 245.178182 41.472 
L 241.570909 41.472 
L 237.963636 41.472 
L 234.356364 41.472 
L 230.749091 41.472 
L 227.141818 41.472 
L 223.534545 41.472 
L 219.927273 41.472 
L 216.32 41.472 
L 212.712727 41.472 
L 209.105455 41.472 
L 205.498182 41.472 
L 201.890909 41.472 
L 198.283636 41.472 
L 194.676364 41.472 
L 191.069091 41.472 
L 187.461818 41.472 
L 183.854545 41.472 
L 180.247273 41.472 
L 176.64 41.472 
L 173.032727 41.472 
L 169.425455 41.472 
L 165.818182 41.472 
L 162.210909 41.472 
L 158.603636 41.472 
L 154.996364 41.472 
L 151.389091 41.472 
L 147.781818 41.472 
L 144.174545 41.472 
L 140.567273 41.472 
L 136.96 41.472 
L 133.352727 41.472 
L 129.745455 41.472 
L 126.138182 41.472 
L 122.530909 41.472 
L 118.923636 41.472 
L 115.316364 41.472 
L 111.709091 41.472 
L 108.101818 41.472 
L 104.494545 41.472 
L 100.887273 41.472 
L 97.28 41.472 
L 93.672727 41.472 
L 90.065455 41.472 
L 86.458182 41.472 
L 82.850909 41.472 
L 79.243636 41.472 
L 75.636364 41.472 
L 72.029091 41.472 
L 68.421818 41.472 
L 64.814545 41.472 
L 61.207273 41.472 
L 57.6 41.472 
L 57.6 44.16 
L 57.6 46.848 
L 57.6 49.536 
L 57.6 52.224 
L 57.6 54.912 
L 57.6 57.6 
L 57.6 60.288 
L 57.6 62.976 
L 57.6 65.664 
L 57.6 68.352 
L 57.6 71.04 
L 57.6 73.728 
L 57.6 76.416 
L 57.6 79.104 
L 57.6 81.792 
L 57.6 84.48 
L 57.6 87.168 
L 57.6 89.856 
L 57.6 92.544 
L 57.6 95.232 
L 57.6 97.92 
L 57.6 100.608 
L 57.6 103.296 
L 57.6 105.984 
L 57.6 108.672 
L 57.6 111.36 
L 57.6 114.048 
L 57.6 116.736 
L 57.6 119.424 
L 57.6 122.112 
L 57.6 124.8 
L 57.6 127.488 
L 57.6 130.176 
L 57.6 132.864 
L 57.6 135.552 
L 57.6 138.24 
L 57.6 140.928 
L 57.6 143.616 
L 57.6 146.304 
L 57.6 148.992 
L 57.6 151.68 
L 57.6 154.368 
L 57.6 157.056 
L 57.6 159.546108 
z
" clip-path="url(#p4de0e37b85)" style="fill: #d0e11c; fill-opacity: 0.75"/>
   </g>
   <g id="matplotlib.axis_1">
    <g id="xtick_1">
     <g id="line2d_1">
      <defs>
       <path id="m7d4ec7952d" d="M 0 0 
L 0 3.5 
" style="stroke: #000000; stroke-width: 0.8"/>
      </defs>
      <g>
       <use xlink:href="#m7d4ec7952d" x="63.755427" y="307.584" style="stroke: #000000; stroke-width: 0.8"/>
      </g>
     </g>
     <g id="text_1">
      <!-- 0.05 -->
      <g transform="translate(52.622615 322.182437) scale(0.1 -0.1)">
       <defs>
        <path id="DejaVuSans-30" d="M 2034 4250 
Q 1547 4250 1301 3770 
Q 1056 3291 1056 2328 
Q 1056 1369 1301 889 
Q 1547 409 2034 409 
Q 2525 409 2770 889 
Q 3016 1369 3016 2328 
Q 3016 3291 2770 3770 
Q 2525 4250 2034 4250 
z
M 2034 4750 
Q 2819 4750 3233 4129 
Q 3647 3509 3647 2328 
Q 3647 1150 3233 529 
Q 2819 -91 2034 -91 
Q 1250 -91 836 529 
Q 422 1150 422 2328 
Q 422 3509 836 4129 
Q 1250 4750 2034 4750 
z
" transform="scale(0.015625)"/>
        <path id="DejaVuSans-2e" d="M 684 794 
L 1344 794 
L 1344 0 
L 684 0 
L 684 794 
z
" transform="scale(0.015625)"/>
        <path id="DejaVuSans-35" d="M 691 4666 
L 3169 4666 
L 3169 4134 
L 1269 4134 
L 1269 2991 
Q 1406 3038 1543 3061 
Q 1681 3084 1819 3084 
Q 2600 3084 3056 2656 
Q 3513 2228 3513 1497 
Q 3513 744 3044 326 
Q 2575 -91 1722 -91 
Q 1428 -91 1123 -41 
Q 819 9 494 109 
L 494 744 
Q 775 591 1075 516 
Q 1375 441 1709 441 
Q 2250 441 2565 725 
Q 2881 1009 2881 1497 
Q 2881 1984 2565 2268 
Q 2250 2553 1709 2553 
Q 1456 2553 1204 2497 
Q 953 2441 691 2322 
L 691 4666 
z
" transform="scale(0.015625)"/>
       </defs>
       <use xlink:href="#DejaVuSans-30"/>
       <use xlink:href="#DejaVuSans-2e" x="63.623047"/>
       <use xlink:href="#DejaVuSans-30" x="95.410156"/>
       <use xlink:href="#DejaVuSans-35" x="159.033203"/>
      </g>
     </g>
    </g>
    <g id="xtick_2">
     <g id="line2d_2">
      <g>
       <use xlink:href="#m7d4ec7952d" x="129.518539" y="307.584" style="stroke: #000000; stroke-width: 0.8"/>
      </g>
     </g>
     <g id="text_2">
      <!-- 0.10 -->
      <g transform="translate(118.385726 322.182437) scale(0.1 -0.1)">
       <defs>
        <path id="DejaVuSans-31" d="M 794 531 
L 1825 531 
L 1825 4091 
L 703 3866 
L 703 4441 
L 1819 4666 
L 2450 4666 
L 2450 531 
L 3481 531 
L 3481 0 
L 794 0 
L 794 531 
z
" transform="scale(0.015625)"/>
       </defs>
       <use xlink:href="#DejaVuSans-30"/>
       <use xlink:href="#DejaVuSans-2e" x="63.623047"/>
       <use xlink:href="#DejaVuSans-31" x="95.410156"/>
       <use xlink:href="#DejaVuSans-30" x="159.033203"/>
      </g>
     </g>
    </g>
    <g id="xtick_3">
     <g id="line2d_3">
      <g>
       <use xlink:href="#m7d4ec7952d" x="195.28165" y="307.584" style="stroke: #000000; stroke-width: 0.8"/>
      </g>
     </g>
     <g id="text_3">
      <!-- 0.15 -->
      <g transform="translate(184.148837 322.182437) scale(0.1 -0.1)">
       <use xlink:href="#DejaVuSans-30"/>
       <use xlink:href="#DejaVuSans-2e" x="63.623047"/>
       <use xlink:href="#DejaVuSans-31" x="95.410156"/>
       <use xlink:href="#DejaVuSans-35" x="159.033203"/>
      </g>
     </g>
    </g>
    <g id="xtick_4">
     <g id="line2d_4">
      <g>
       <use xlink:href="#m7d4ec7952d" x="261.044761" y="307.584" style="stroke: #000000; stroke-width: 0.8"/>
      </g>
     </g>
     <g id="text_4">
      <!-- 0.20 -->
      <g transform="translate(249.911949 322.182437) scale(0.1 -0.1)">
       <defs>
        <path id="DejaVuSans-32" d="M 1228 531 
L 3431 531 
L 3431 0 
L 469 0 
L 469 531 
Q 828 903 1448 1529 
Q 2069 2156 2228 2338 
Q 2531 2678 2651 2914 
Q 2772 3150 2772 3378 
Q 2772 3750 2511 3984 
Q 2250 4219 1831 4219 
Q 1534 4219 1204 4116 
Q 875 4013 500 3803 
L 500 4441 
Q 881 4594 1212 4672 
Q 1544 4750 1819 4750 
Q 2544 4750 2975 4387 
Q 3406 4025 3406 3419 
Q 3406 3131 3298 2873 
Q 3191 2616 2906 2266 
Q 2828 2175 2409 1742 
Q 1991 1309 1228 531 
z
" transform="scale(0.015625)"/>
       </defs>
       <use xlink:href="#DejaVuSans-30"/>
       <use xlink:href="#DejaVuSans-2e" x="63.623047"/>
       <use xlink:href="#DejaVuSans-32" x="95.410156"/>
       <use xlink:href="#DejaVuSans-30" x="159.033203"/>
      </g>
     </g>
    </g>
    <g id="xtick_5">
     <g id="line2d_5">
      <g>
       <use xlink:href="#m7d4ec7952d" x="326.807873" y="307.584" style="stroke: #000000; stroke-width: 0.8"/>
      </g>
     </g>
     <g id="text_5">
      <!-- 0.25 -->
      <g transform="translate(315.67506 322.182437) scale(0.1 -0.1)">
       <use xlink:href="#DejaVuSans-30"/>
       <use xlink:href="#DejaVuSans-2e" x="63.623047"/>
       <use xlink:href="#DejaVuSans-32" x="95.410156"/>
       <use xlink:href="#DejaVuSans-35" x="159.033203"/>
      </g>
     </g>
    </g>
    <g id="xtick_6">
     <g id="line2d_6">
      <g>
       <use xlink:href="#m7d4ec7952d" x="392.570984" y="307.584" style="stroke: #000000; stroke-width: 0.8"/>
      </g>
     </g>
     <g id="text_6">
      <!-- 0.30 -->
      <g transform="translate(381.438172 322.182437) scale(0.1 -0.1)">
       <defs>
        <path id="DejaVuSans-33" d="M 2597 2516 
Q 3050 2419 3304 2112 
Q 3559 1806 3559 1356 
Q 3559 666 3084 287 
Q 2609 -91 1734 -91 
Q 1441 -91 1130 -33 
Q 819 25 488 141 
L 488 750 
Q 750 597 1062 519 
Q 1375 441 1716 441 
Q 2309 441 2620 675 
Q 2931 909 2931 1356 
Q 2931 1769 2642 2001 
Q 2353 2234 1838 2234 
L 1294 2234 
L 1294 2753 
L 1863 2753 
Q 2328 2753 2575 2939 
Q 2822 3125 2822 3475 
Q 2822 3834 2567 4026 
Q 2313 4219 1838 4219 
Q 1578 4219 1281 4162 
Q 984 4106 628 3988 
L 628 4550 
Q 988 4650 1302 4700 
Q 1616 4750 1894 4750 
Q 2613 4750 3031 4423 
Q 3450 4097 3450 3541 
Q 3450 3153 3228 2886 
Q 3006 2619 2597 2516 
z
" transform="scale(0.015625)"/>
       </defs>
       <use xlink:href="#DejaVuSans-30"/>
       <use xlink:href="#DejaVuSans-2e" x="63.623047"/>
       <use xlink:href="#DejaVuSans-33" x="95.410156"/>
       <use xlink:href="#DejaVuSans-30" x="159.033203"/>
      </g>
     </g>
    </g>
    <g id="text_7">
     <!-- Obesity Rate -->
     <g transform="translate(204.008437 335.860562) scale(0.1 -0.1)">
      <defs>
       <path id="DejaVuSans-4f" d="M 2522 4238 
Q 1834 4238 1429 3725 
Q 1025 3213 1025 2328 
Q 1025 1447 1429 934 
Q 1834 422 2522 422 
Q 3209 422 3611 934 
Q 4013 1447 4013 2328 
Q 4013 3213 3611 3725 
Q 3209 4238 2522 4238 
z
M 2522 4750 
Q 3503 4750 4090 4092 
Q 4678 3434 4678 2328 
Q 4678 1225 4090 567 
Q 3503 -91 2522 -91 
Q 1538 -91 948 565 
Q 359 1222 359 2328 
Q 359 3434 948 4092 
Q 1538 4750 2522 4750 
z
" transform="scale(0.015625)"/>
       <path id="DejaVuSans-62" d="M 3116 1747 
Q 3116 2381 2855 2742 
Q 2594 3103 2138 3103 
Q 1681 3103 1420 2742 
Q 1159 2381 1159 1747 
Q 1159 1113 1420 752 
Q 1681 391 2138 391 
Q 2594 391 2855 752 
Q 3116 1113 3116 1747 
z
M 1159 2969 
Q 1341 3281 1617 3432 
Q 1894 3584 2278 3584 
Q 2916 3584 3314 3078 
Q 3713 2572 3713 1747 
Q 3713 922 3314 415 
Q 2916 -91 2278 -91 
Q 1894 -91 1617 61 
Q 1341 213 1159 525 
L 1159 0 
L 581 0 
L 581 4863 
L 1159 4863 
L 1159 2969 
z
" transform="scale(0.015625)"/>
       <path id="DejaVuSans-65" d="M 3597 1894 
L 3597 1613 
L 953 1613 
Q 991 1019 1311 708 
Q 1631 397 2203 397 
Q 2534 397 2845 478 
Q 3156 559 3463 722 
L 3463 178 
Q 3153 47 2828 -22 
Q 2503 -91 2169 -91 
Q 1331 -91 842 396 
Q 353 884 353 1716 
Q 353 2575 817 3079 
Q 1281 3584 2069 3584 
Q 2775 3584 3186 3129 
Q 3597 2675 3597 1894 
z
M 3022 2063 
Q 3016 2534 2758 2815 
Q 2500 3097 2075 3097 
Q 1594 3097 1305 2825 
Q 1016 2553 972 2059 
L 3022 2063 
z
" transform="scale(0.015625)"/>
       <path id="DejaVuSans-73" d="M 2834 3397 
L 2834 2853 
Q 2591 2978 2328 3040 
Q 2066 3103 1784 3103 
Q 1356 3103 1142 2972 
Q 928 2841 928 2578 
Q 928 2378 1081 2264 
Q 1234 2150 1697 2047 
L 1894 2003 
Q 2506 1872 2764 1633 
Q 3022 1394 3022 966 
Q 3022 478 2636 193 
Q 2250 -91 1575 -91 
Q 1294 -91 989 -36 
Q 684 19 347 128 
L 347 722 
Q 666 556 975 473 
Q 1284 391 1588 391 
Q 1994 391 2212 530 
Q 2431 669 2431 922 
Q 2431 1156 2273 1281 
Q 2116 1406 1581 1522 
L 1381 1569 
Q 847 1681 609 1914 
Q 372 2147 372 2553 
Q 372 3047 722 3315 
Q 1072 3584 1716 3584 
Q 2034 3584 2315 3537 
Q 2597 3491 2834 3397 
z
" transform="scale(0.015625)"/>
       <path id="DejaVuSans-69" d="M 603 3500 
L 1178 3500 
L 1178 0 
L 603 0 
L 603 3500 
z
M 603 4863 
L 1178 4863 
L 1178 4134 
L 603 4134 
L 603 4863 
z
" transform="scale(0.015625)"/>
       <path id="DejaVuSans-74" d="M 1172 4494 
L 1172 3500 
L 2356 3500 
L 2356 3053 
L 1172 3053 
L 1172 1153 
Q 1172 725 1289 603 
Q 1406 481 1766 481 
L 2356 481 
L 2356 0 
L 1766 0 
Q 1100 0 847 248 
Q 594 497 594 1153 
L 594 3053 
L 172 3053 
L 172 3500 
L 594 3500 
L 594 4494 
L 1172 4494 
z
" transform="scale(0.015625)"/>
       <path id="DejaVuSans-79" d="M 2059 -325 
Q 1816 -950 1584 -1140 
Q 1353 -1331 966 -1331 
L 506 -1331 
L 506 -850 
L 844 -850 
Q 1081 -850 1212 -737 
Q 1344 -625 1503 -206 
L 1606 56 
L 191 3500 
L 800 3500 
L 1894 763 
L 2988 3500 
L 3597 3500 
L 2059 -325 
z
" transform="scale(0.015625)"/>
       <path id="DejaVuSans-20" transform="scale(0.015625)"/>
       <path id="DejaVuSans-52" d="M 2841 2188 
Q 3044 2119 3236 1894 
Q 3428 1669 3622 1275 
L 4263 0 
L 3584 0 
L 2988 1197 
Q 2756 1666 2539 1819 
Q 2322 1972 1947 1972 
L 1259 1972 
L 1259 0 
L 628 0 
L 628 4666 
L 2053 4666 
Q 2853 4666 3247 4331 
Q 3641 3997 3641 3322 
Q 3641 2881 3436 2590 
Q 3231 2300 2841 2188 
z
M 1259 4147 
L 1259 2491 
L 2053 2491 
Q 2509 2491 2742 2702 
Q 2975 2913 2975 3322 
Q 2975 3731 2742 3939 
Q 2509 4147 2053 4147 
L 1259 4147 
z
" transform="scale(0.015625)"/>
       <path id="DejaVuSans-61" d="M 2194 1759 
Q 1497 1759 1228 1600 
Q 959 1441 959 1056 
Q 959 750 1161 570 
Q 1363 391 1709 391 
Q 2188 391 2477 730 
Q 2766 1069 2766 1631 
L 2766 1759 
L 2194 1759 
z
M 3341 1997 
L 3341 0 
L 2766 0 
L 2766 531 
Q 2569 213 2275 61 
Q 1981 -91 1556 -91 
Q 1019 -91 701 211 
Q 384 513 384 1019 
Q 384 1609 779 1909 
Q 1175 2209 1959 2209 
L 2766 2209 
L 2766 2266 
Q 2766 2663 2505 2880 
Q 2244 3097 1772 3097 
Q 1472 3097 1187 3025 
Q 903 2953 641 2809 
L 641 3341 
Q 956 3463 1253 3523 
Q 1550 3584 1831 3584 
Q 2591 3584 2966 3190 
Q 3341 2797 3341 1997 
z
" transform="scale(0.015625)"/>
      </defs>
      <use xlink:href="#DejaVuSans-4f"/>
      <use xlink:href="#DejaVuSans-62" x="78.710938"/>
      <use xlink:href="#DejaVuSans-65" x="142.1875"/>
      <use xlink:href="#DejaVuSans-73" x="203.710938"/>
      <use xlink:href="#DejaVuSans-69" x="255.810547"/>
      <use xlink:href="#DejaVuSans-74" x="283.59375"/>
      <use xlink:href="#DejaVuSans-79" x="322.802734"/>
      <use xlink:href="#DejaVuSans-20" x="381.982422"/>
      <use xlink:href="#DejaVuSans-52" x="413.769531"/>
      <use xlink:href="#DejaVuSans-61" x="481.001953"/>
      <use xlink:href="#DejaVuSans-74" x="542.28125"/>
      <use xlink:href="#DejaVuSans-65" x="581.490234"/>
     </g>
    </g>
   </g>
   <g id="matplotlib.axis_2">
    <g id="ytick_1">
     <g id="line2d_7">
      <defs>
       <path id="ma253893272" d="M 0 0 
L -3.5 0 
" style="stroke: #000000; stroke-width: 0.8"/>
      </defs>
      <g>
       <use xlink:href="#ma253893272" x="57.6" y="274.933014" style="stroke: #000000; stroke-width: 0.8"/>
      </g>
     </g>
     <g id="text_8">
      <!-- 5 -->
      <g transform="translate(44.2375 278.732233) scale(0.1 -0.1)">
       <use xlink:href="#DejaVuSans-35"/>
      </g>
     </g>
    </g>
    <g id="ytick_2">
     <g id="line2d_8">
      <g>
       <use xlink:href="#ma253893272" x="57.6" y="242.27355" style="stroke: #000000; stroke-width: 0.8"/>
      </g>
     </g>
     <g id="text_9">
      <!-- 10 -->
      <g transform="translate(37.875 246.072769) scale(0.1 -0.1)">
       <use xlink:href="#DejaVuSans-31"/>
       <use xlink:href="#DejaVuSans-30" x="63.623047"/>
      </g>
     </g>
    </g>
    <g id="ytick_3">
     <g id="line2d_9">
      <g>
       <use xlink:href="#ma253893272" x="57.6" y="209.614086" style="stroke: #000000; stroke-width: 0.8"/>
      </g>
     </g>
     <g id="text_10">
      <!-- 15 -->
      <g transform="translate(37.875 213.413305) scale(0.1 -0.1)">
       <use xlink:href="#DejaVuSans-31"/>
       <use xlink:href="#DejaVuSans-35" x="63.623047"/>
      </g>
     </g>
    </g>
    <g id="ytick_4">
     <g id="line2d_10">
      <g>
       <use xlink:href="#ma253893272" x="57.6" y="176.954622" style="stroke: #000000; stroke-width: 0.8"/>
      </g>
     </g>
     <g id="text_11">
      <!-- 20 -->
      <g transform="translate(37.875 180.753841) scale(0.1 -0.1)">
       <use xlink:href="#DejaVuSans-32"/>
       <use xlink:href="#DejaVuSans-30" x="63.623047"/>
      </g>
     </g>
    </g>
    <g id="ytick_5">
     <g id="line2d_11">
      <g>
       <use xlink:href="#ma253893272" x="57.6" y="144.295158" style="stroke: #000000; stroke-width: 0.8"/>
      </g>
     </g>
     <g id="text_12">
      <!-- 25 -->
      <g transform="translate(37.875 148.094377) scale(0.1 -0.1)">
       <use xlink:href="#DejaVuSans-32"/>
       <use xlink:href="#DejaVuSans-35" x="63.623047"/>
      </g>
     </g>
    </g>
    <g id="ytick_6">
     <g id="line2d_12">
      <g>
       <use xlink:href="#ma253893272" x="57.6" y="111.635694" style="stroke: #000000; stroke-width: 0.8"/>
      </g>
     </g>
     <g id="text_13">
      <!-- 30 -->
      <g transform="translate(37.875 115.434913) scale(0.1 -0.1)">
       <use xlink:href="#DejaVuSans-33"/>
       <use xlink:href="#DejaVuSans-30" x="63.623047"/>
      </g>
     </g>
    </g>
    <g id="ytick_7">
     <g id="line2d_13">
      <g>
       <use xlink:href="#ma253893272" x="57.6" y="78.97623" style="stroke: #000000; stroke-width: 0.8"/>
      </g>
     </g>
     <g id="text_14">
      <!-- 35 -->
      <g transform="translate(37.875 82.775449) scale(0.1 -0.1)">
       <use xlink:href="#DejaVuSans-33"/>
       <use xlink:href="#DejaVuSans-35" x="63.623047"/>
      </g>
     </g>
    </g>
    <g id="ytick_8">
     <g id="line2d_14">
      <g>
       <use xlink:href="#ma253893272" x="57.6" y="46.316767" style="stroke: #000000; stroke-width: 0.8"/>
      </g>
     </g>
     <g id="text_15">
      <!-- 40 -->
      <g transform="translate(37.875 50.115985) scale(0.1 -0.1)">
       <defs>
        <path id="DejaVuSans-34" d="M 2419 4116 
L 825 1625 
L 2419 1625 
L 2419 4116 
z
M 2253 4666 
L 3047 4666 
L 3047 1625 
L 3713 1625 
L 3713 1100 
L 3047 1100 
L 3047 0 
L 2419 0 
L 2419 1100 
L 313 1100 
L 313 1709 
L 2253 4666 
z
" transform="scale(0.015625)"/>
       </defs>
       <use xlink:href="#DejaVuSans-34"/>
       <use xlink:href="#DejaVuSans-30" x="63.623047"/>
      </g>
     </g>
    </g>
    <g id="text_16">
     <!-- Pig Consumption -->
     <g transform="translate(31.795312 216.697531) rotate(-90) scale(0.1 -0.1)">
      <defs>
       <path id="DejaVuSans-50" d="M 1259 4147 
L 1259 2394 
L 2053 2394 
Q 2494 2394 2734 2622 
Q 2975 2850 2975 3272 
Q 2975 3691 2734 3919 
Q 2494 4147 2053 4147 
L 1259 4147 
z
M 628 4666 
L 2053 4666 
Q 2838 4666 3239 4311 
Q 3641 3956 3641 3272 
Q 3641 2581 3239 2228 
Q 2838 1875 2053 1875 
L 1259 1875 
L 1259 0 
L 628 0 
L 628 4666 
z
" transform="scale(0.015625)"/>
       <path id="DejaVuSans-67" d="M 2906 1791 
Q 2906 2416 2648 2759 
Q 2391 3103 1925 3103 
Q 1463 3103 1205 2759 
Q 947 2416 947 1791 
Q 947 1169 1205 825 
Q 1463 481 1925 481 
Q 2391 481 2648 825 
Q 2906 1169 2906 1791 
z
M 3481 434 
Q 3481 -459 3084 -895 
Q 2688 -1331 1869 -1331 
Q 1566 -1331 1297 -1286 
Q 1028 -1241 775 -1147 
L 775 -588 
Q 1028 -725 1275 -790 
Q 1522 -856 1778 -856 
Q 2344 -856 2625 -561 
Q 2906 -266 2906 331 
L 2906 616 
Q 2728 306 2450 153 
Q 2172 0 1784 0 
Q 1141 0 747 490 
Q 353 981 353 1791 
Q 353 2603 747 3093 
Q 1141 3584 1784 3584 
Q 2172 3584 2450 3431 
Q 2728 3278 2906 2969 
L 2906 3500 
L 3481 3500 
L 3481 434 
z
" transform="scale(0.015625)"/>
       <path id="DejaVuSans-43" d="M 4122 4306 
L 4122 3641 
Q 3803 3938 3442 4084 
Q 3081 4231 2675 4231 
Q 1875 4231 1450 3742 
Q 1025 3253 1025 2328 
Q 1025 1406 1450 917 
Q 1875 428 2675 428 
Q 3081 428 3442 575 
Q 3803 722 4122 1019 
L 4122 359 
Q 3791 134 3420 21 
Q 3050 -91 2638 -91 
Q 1578 -91 968 557 
Q 359 1206 359 2328 
Q 359 3453 968 4101 
Q 1578 4750 2638 4750 
Q 3056 4750 3426 4639 
Q 3797 4528 4122 4306 
z
" transform="scale(0.015625)"/>
       <path id="DejaVuSans-6f" d="M 1959 3097 
Q 1497 3097 1228 2736 
Q 959 2375 959 1747 
Q 959 1119 1226 758 
Q 1494 397 1959 397 
Q 2419 397 2687 759 
Q 2956 1122 2956 1747 
Q 2956 2369 2687 2733 
Q 2419 3097 1959 3097 
z
M 1959 3584 
Q 2709 3584 3137 3096 
Q 3566 2609 3566 1747 
Q 3566 888 3137 398 
Q 2709 -91 1959 -91 
Q 1206 -91 779 398 
Q 353 888 353 1747 
Q 353 2609 779 3096 
Q 1206 3584 1959 3584 
z
" transform="scale(0.015625)"/>
       <path id="DejaVuSans-6e" d="M 3513 2113 
L 3513 0 
L 2938 0 
L 2938 2094 
Q 2938 2591 2744 2837 
Q 2550 3084 2163 3084 
Q 1697 3084 1428 2787 
Q 1159 2491 1159 1978 
L 1159 0 
L 581 0 
L 581 3500 
L 1159 3500 
L 1159 2956 
Q 1366 3272 1645 3428 
Q 1925 3584 2291 3584 
Q 2894 3584 3203 3211 
Q 3513 2838 3513 2113 
z
" transform="scale(0.015625)"/>
       <path id="DejaVuSans-75" d="M 544 1381 
L 544 3500 
L 1119 3500 
L 1119 1403 
Q 1119 906 1312 657 
Q 1506 409 1894 409 
Q 2359 409 2629 706 
Q 2900 1003 2900 1516 
L 2900 3500 
L 3475 3500 
L 3475 0 
L 2900 0 
L 2900 538 
Q 2691 219 2414 64 
Q 2138 -91 1772 -91 
Q 1169 -91 856 284 
Q 544 659 544 1381 
z
M 1991 3584 
L 1991 3584 
z
" transform="scale(0.015625)"/>
       <path id="DejaVuSans-6d" d="M 3328 2828 
Q 3544 3216 3844 3400 
Q 4144 3584 4550 3584 
Q 5097 3584 5394 3201 
Q 5691 2819 5691 2113 
L 5691 0 
L 5113 0 
L 5113 2094 
Q 5113 2597 4934 2840 
Q 4756 3084 4391 3084 
Q 3944 3084 3684 2787 
Q 3425 2491 3425 1978 
L 3425 0 
L 2847 0 
L 2847 2094 
Q 2847 2600 2669 2842 
Q 2491 3084 2119 3084 
Q 1678 3084 1418 2786 
Q 1159 2488 1159 1978 
L 1159 0 
L 581 0 
L 581 3500 
L 1159 3500 
L 1159 2956 
Q 1356 3278 1631 3431 
Q 1906 3584 2284 3584 
Q 2666 3584 2933 3390 
Q 3200 3197 3328 2828 
z
" transform="scale(0.015625)"/>
       <path id="DejaVuSans-70" d="M 1159 525 
L 1159 -1331 
L 581 -1331 
L 581 3500 
L 1159 3500 
L 1159 2969 
Q 1341 3281 1617 3432 
Q 1894 3584 2278 3584 
Q 2916 3584 3314 3078 
Q 3713 2572 3713 1747 
Q 3713 922 3314 415 
Q 2916 -91 2278 -91 
Q 1894 -91 1617 61 
Q 1341 213 1159 525 
z
M 3116 1747 
Q 3116 2381 2855 2742 
Q 2594 3103 2138 3103 
Q 1681 3103 1420 2742 
Q 1159 2381 1159 1747 
Q 1159 1113 1420 752 
Q 1681 391 2138 391 
Q 2594 391 2855 752 
Q 3116 1113 3116 1747 
z
" transform="scale(0.015625)"/>
      </defs>
      <use xlink:href="#DejaVuSans-50"/>
      <use xlink:href="#DejaVuSans-69" x="58.052734"/>
      <use xlink:href="#DejaVuSans-67" x="85.835938"/>
      <use xlink:href="#DejaVuSans-20" x="149.3125"/>
      <use xlink:href="#DejaVuSans-43" x="181.099609"/>
      <use xlink:href="#DejaVuSans-6f" x="250.923828"/>
      <use xlink:href="#DejaVuSans-6e" x="312.105469"/>
      <use xlink:href="#DejaVuSans-73" x="375.484375"/>
      <use xlink:href="#DejaVuSans-75" x="427.583984"/>
      <use xlink:href="#DejaVuSans-6d" x="490.962891"/>
      <use xlink:href="#DejaVuSans-70" x="588.375"/>
      <use xlink:href="#DejaVuSans-74" x="651.851562"/>
      <use xlink:href="#DejaVuSans-69" x="691.060547"/>
      <use xlink:href="#DejaVuSans-6f" x="718.84375"/>
      <use xlink:href="#DejaVuSans-6e" x="780.025391"/>
     </g>
    </g>
   </g>
   <g id="PathCollection_8"/>
   <g id="PathCollection_9">
    <path d="M 57.6 182.874358 
L 61.207273 182.874358 
L 64.814545 182.874358 
L 68.421818 182.874358 
L 72.029091 182.874358 
L 75.636364 182.874358 
L 79.243636 182.874358 
L 82.850909 182.874358 
L 86.458182 182.874358 
L 90.065455 182.874358 
L 93.672727 182.874358 
L 97.28 182.874358 
L 100.887273 182.874358 
L 104.494545 182.874358 
L 108.101818 182.874358 
L 111.709091 182.874358 
L 115.316364 182.874358 
L 118.923636 182.874358 
L 122.530909 182.874358 
L 126.138182 182.874358 
L 129.745455 182.874358 
L 133.352727 182.874358 
L 136.96 182.874358 
L 140.567273 182.874358 
L 144.174545 182.874358 
L 147.781818 182.874358 
L 151.389091 182.874358 
L 154.996364 182.874358 
L 158.603636 182.874358 
L 162.210909 182.881747 
L 165.818182 182.881747 
L 169.425455 182.881747 
L 173.032727 182.881747 
L 176.64 182.881747 
L 180.247273 182.881747 
L 183.854545 182.881747 
L 187.461818 182.881747 
L 191.069091 182.881747 
L 194.676364 182.881747 
L 198.283636 182.881747 
L 201.890909 182.881747 
L 205.498182 182.881747 
L 209.105455 182.881747 
L 212.712727 182.881747 
L 216.32 182.881747 
L 219.927273 182.881747 
L 223.534545 182.881747 
L 227.141818 182.881747 
L 230.749091 182.881747 
L 234.356364 182.881747 
L 237.963636 182.881747 
L 241.570909 182.881747 
L 245.178182 182.881747 
L 248.785455 182.881747 
L 248.866818 182.881747 
" clip-path="url(#p4de0e37b85)" style="fill: none; stroke: #000000; stroke-width: 0.5"/>
    <path d="M 284.776818 182.881747 
L 284.858182 182.881747 
L 288.465455 182.881747 
L 292.072727 182.881747 
L 295.68 182.881747 
L 299.287273 182.881747 
L 302.894545 182.881747 
L 306.501818 182.881747 
L 310.109091 182.881747 
L 313.716364 182.881747 
L 317.323636 182.881747 
L 320.930909 182.881747 
L 324.538182 182.881747 
L 328.145455 182.881747 
L 331.752727 182.881747 
L 335.36 182.881747 
L 338.967273 182.881747 
L 342.574545 182.881747 
L 346.181818 182.881747 
L 349.789091 182.881747 
L 353.396364 182.881747 
L 357.003636 182.881747 
L 360.610909 182.881747 
L 364.218182 182.881747 
L 367.825455 182.881747 
L 371.432727 182.881747 
L 375.04 182.881747 
L 378.647273 182.881747 
L 382.254545 182.881747 
L 385.861818 182.881747 
L 389.469091 182.881747 
L 393.076364 182.881747 
L 396.683636 182.881747 
L 400.290909 182.881747 
L 403.898182 182.881747 
L 407.505455 182.881747 
L 411.112727 182.881747 
L 414.72 182.881747 
" clip-path="url(#p4de0e37b85)" style="fill: none; stroke: #000000; stroke-width: 0.5"/>
   </g>
   <g id="PathCollection_10">
    <path d="M 57.6 179.985221 
L 61.207273 179.985221 
L 64.814545 179.985221 
L 68.421818 179.985221 
L 72.029091 179.985221 
L 75.636364 179.985221 
L 79.243636 179.985221 
L 82.850909 179.985221 
L 86.458182 179.985221 
L 90.065455 179.985221 
L 93.672727 179.985221 
L 97.28 179.985221 
L 100.887273 179.985221 
L 104.494545 179.985221 
L 108.101818 179.985221 
L 111.709091 179.985221 
L 115.316364 179.985221 
L 118.923636 179.985221 
L 122.530909 179.985221 
L 126.138182 179.985221 
L 129.745455 179.985221 
L 133.352727 179.985221 
L 136.96 179.985221 
L 140.567273 179.985221 
L 144.174545 179.985221 
L 147.781818 179.985221 
L 151.389091 179.985221 
L 154.996364 179.985221 
L 158.603636 179.985221 
L 162.210909 180.005976 
L 165.818182 180.005976 
L 169.425455 180.005976 
L 173.032727 180.005976 
L 176.64 180.005976 
L 180.247273 180.005976 
L 183.854545 180.005976 
L 187.461818 180.005976 
L 191.069091 180.005976 
L 194.676364 180.005976 
L 198.283636 180.005976 
L 201.890909 180.005976 
L 205.498182 180.005976 
L 209.105455 180.005976 
L 212.712727 180.005976 
L 216.32 180.005976 
L 219.927273 180.005976 
L 223.534545 180.005976 
L 227.141818 180.005976 
L 230.749091 180.005976 
L 234.356364 180.005976 
L 237.963636 180.005976 
L 241.570909 180.005976 
L 245.178182 180.005976 
L 248.785455 180.005976 
L 252.392727 180.005976 
L 256 180.005976 
L 259.607273 180.005976 
L 263.214545 180.005976 
L 266.821818 180.005976 
L 270.429091 180.005976 
L 274.036364 180.005976 
L 277.643636 180.005976 
L 281.250909 180.005976 
L 284.858182 180.005976 
L 288.465455 180.005976 
L 292.072727 180.005976 
L 295.68 180.005976 
L 299.287273 180.005976 
L 302.894545 180.005976 
L 306.501818 180.005976 
L 310.109091 180.005976 
L 313.716364 180.005976 
L 317.323636 180.005976 
L 320.930909 180.005976 
L 324.538182 180.005976 
L 328.145455 180.005976 
L 331.752727 180.005976 
L 335.36 180.005976 
L 338.967273 180.005976 
L 342.574545 180.005976 
L 346.181818 180.005976 
L 349.789091 180.005976 
L 353.396364 180.005976 
L 357.003636 180.005976 
L 360.610909 180.005976 
L 364.218182 180.005976 
L 367.825455 180.005976 
L 371.432727 180.005976 
L 375.04 180.005976 
L 378.647273 180.005976 
L 382.254545 180.005976 
L 385.861818 180.005976 
L 389.469091 180.005976 
L 389.550455 180.005976 
" clip-path="url(#p4de0e37b85)" style="fill: none; stroke: #000000; stroke-width: 0.5"/>
   </g>
   <g id="PathCollection_11">
    <path d="M 57.6 174.497746 
L 61.207273 174.497746 
L 64.814545 174.497746 
L 68.421818 174.497746 
L 72.029091 174.497746 
L 75.636364 174.497746 
L 79.243636 174.497746 
L 82.850909 174.497746 
L 86.458182 174.497746 
L 90.065455 174.497746 
L 93.672727 174.497746 
L 97.28 174.497746 
L 100.887273 174.497746 
L 104.494545 174.497746 
L 108.101818 174.497746 
L 108.183182 174.497746 
" clip-path="url(#p4de0e37b85)" style="fill: none; stroke: #000000; stroke-width: 0.5"/>
    <path d="M 144.093182 174.497746 
L 144.174545 174.497746 
L 147.781818 174.497746 
L 151.389091 174.497746 
L 154.996364 174.497746 
L 158.603636 174.497746 
L 162.210909 174.505684 
L 165.818182 174.505684 
L 169.425455 174.505684 
L 173.032727 174.505684 
L 176.64 174.505684 
L 180.247273 174.505684 
L 183.854545 174.505684 
L 187.461818 174.505684 
L 191.069091 174.505684 
L 194.676364 174.505684 
L 198.283636 174.505684 
L 201.890909 174.505684 
L 205.498182 174.505684 
L 209.105455 174.505684 
L 212.712727 174.505684 
L 216.32 174.505684 
L 219.927273 174.505684 
L 223.534545 174.505684 
L 227.141818 174.505684 
L 230.749091 174.505684 
L 234.356364 174.505684 
L 237.963636 174.505684 
L 241.570909 174.505684 
L 245.178182 174.505684 
L 248.785455 174.505684 
L 252.392727 174.505684 
L 256 174.505684 
L 259.607273 174.505684 
L 263.214545 174.505684 
L 266.821818 174.505684 
L 270.429091 174.505684 
L 274.036364 174.505684 
L 277.643636 174.505684 
L 281.250909 174.505684 
L 284.858182 174.505684 
L 288.465455 174.505684 
L 292.072727 174.505684 
L 295.68 174.505684 
L 299.287273 174.505684 
L 302.894545 174.505684 
L 306.501818 174.505684 
L 310.109091 174.505684 
L 313.716364 174.505684 
L 317.323636 174.505684 
L 320.930909 174.505684 
L 324.538182 174.505684 
L 328.145455 174.505684 
L 331.752727 174.505684 
L 335.36 174.505684 
L 338.967273 174.505684 
L 342.574545 174.505684 
L 346.181818 174.505684 
L 349.789091 174.505684 
L 353.396364 174.505684 
L 357.003636 174.505684 
L 360.610909 174.505684 
L 364.218182 174.505684 
L 367.825455 174.505684 
L 371.432727 174.505684 
L 375.04 174.505684 
L 378.647273 174.505684 
L 382.254545 174.505684 
L 385.861818 174.505684 
L 389.469091 174.505684 
L 393.076364 174.505684 
L 396.683636 174.505684 
L 400.290909 174.505684 
L 403.898182 174.505684 
L 407.505455 174.505684 
L 411.112727 174.505684 
L 414.72 174.505684 
" clip-path="url(#p4de0e37b85)" style="fill: none; stroke: #000000; stroke-width: 0.5"/>
   </g>
   <g id="PathCollection_12">
    <path d="M 57.6 171.805709 
L 61.207273 171.805709 
L 64.814545 171.805709 
L 68.421818 171.805709 
L 72.029091 171.805709 
L 75.636364 171.805709 
L 79.243636 171.805709 
L 82.850909 171.805709 
L 86.458182 171.805709 
L 90.065455 171.805709 
L 93.672727 171.805709 
L 97.28 171.805709 
L 100.887273 171.805709 
L 104.494545 171.805709 
L 108.101818 171.805709 
L 111.709091 171.805709 
L 115.316364 171.805709 
L 118.923636 171.805709 
L 122.530909 171.805709 
L 126.138182 171.805709 
L 129.745455 171.805709 
L 133.352727 171.805709 
L 136.96 171.805709 
L 140.567273 171.805709 
L 144.174545 171.805709 
L 147.781818 171.805709 
L 151.389091 171.805709 
L 154.996364 171.805709 
L 158.603636 171.805709 
L 162.210909 171.817648 
L 165.818182 171.817648 
L 169.425455 171.817648 
L 173.032727 171.817648 
L 176.64 171.817648 
L 180.247273 171.817648 
L 183.854545 171.817648 
L 187.461818 171.817648 
L 191.069091 171.817648 
L 194.676364 171.817648 
L 198.283636 171.817648 
L 201.890909 171.817648 
L 205.498182 171.817648 
L 209.105455 171.817648 
L 212.712727 171.817648 
L 216.32 171.817648 
L 219.927273 171.817648 
L 223.534545 171.817648 
L 227.141818 171.817648 
L 230.749091 171.817648 
L 234.356364 171.817648 
L 237.963636 171.817648 
L 241.570909 171.817648 
L 245.178182 171.817648 
L 248.785455 171.817648 
L 248.866818 171.817648 
" clip-path="url(#p4de0e37b85)" style="fill: none; stroke: #000000; stroke-width: 0.5"/>
    <path d="M 284.776818 171.817648 
L 284.858182 171.817648 
L 288.465455 171.817648 
L 292.072727 171.817648 
L 295.68 171.817648 
L 299.287273 171.817648 
L 302.894545 171.817648 
L 306.501818 171.817648 
L 310.109091 171.817648 
L 313.716364 171.817648 
L 317.323636 171.817648 
L 320.930909 171.817648 
L 324.538182 171.817648 
L 328.145455 171.817648 
L 331.752727 171.817648 
L 335.36 171.817648 
L 338.967273 171.817648 
L 342.574545 171.817648 
L 346.181818 171.817648 
L 349.789091 171.817648 
L 353.396364 171.817648 
L 357.003636 171.817648 
L 360.610909 171.817648 
L 364.218182 171.817648 
L 367.825455 171.817648 
L 371.432727 171.817648 
L 375.04 171.817648 
L 378.647273 171.817648 
L 382.254545 171.817648 
L 385.861818 171.817648 
L 389.469091 171.817648 
L 393.076364 171.817648 
L 396.683636 171.817648 
L 400.290909 171.817648 
L 403.898182 171.817648 
L 407.505455 171.817648 
L 411.112727 171.817648 
L 414.72 171.817648 
" clip-path="url(#p4de0e37b85)" style="fill: none; stroke: #000000; stroke-width: 0.5"/>
   </g>
   <g id="PathCollection_13">
    <path d="M 57.6 164.091451 
L 61.207273 164.091451 
L 64.814545 164.091451 
L 68.421818 164.091451 
L 72.029091 164.091451 
L 75.636364 164.091451 
L 79.243636 164.091451 
L 82.850909 164.091451 
L 86.458182 164.091451 
L 90.065455 164.091451 
L 93.672727 164.091451 
L 97.28 164.091451 
L 100.887273 164.091451 
L 104.494545 164.091451 
L 108.101818 164.091451 
L 111.709091 164.091451 
L 115.316364 164.091451 
L 118.923636 164.091451 
L 122.530909 164.091451 
L 126.138182 164.091451 
L 129.745455 164.091451 
L 133.352727 164.091451 
L 136.96 164.091451 
L 140.567273 164.091451 
L 144.174545 164.091451 
L 147.781818 164.091451 
L 151.389091 164.091451 
L 154.996364 164.091451 
L 158.603636 164.091451 
L 162.210909 164.097458 
L 165.818182 164.097458 
L 169.425455 164.097458 
L 173.032727 164.097458 
L 176.64 164.097458 
L 180.247273 164.097458 
L 183.854545 164.097458 
L 187.461818 164.097458 
L 191.069091 164.097458 
L 194.676364 164.097458 
L 198.283636 164.097458 
L 201.890909 164.097458 
L 205.498182 164.097458 
L 209.105455 164.097458 
L 212.712727 164.097458 
L 216.32 164.097458 
L 219.927273 164.097458 
L 223.534545 164.097458 
L 227.141818 164.097458 
L 230.749091 164.097458 
L 234.356364 164.097458 
L 237.963636 164.097458 
L 241.570909 164.097458 
L 245.178182 164.097458 
L 248.785455 164.097458 
L 248.866818 164.097458 
" clip-path="url(#p4de0e37b85)" style="fill: none; stroke: #000000; stroke-width: 0.5"/>
    <path d="M 284.776818 164.097458 
L 284.858182 164.097458 
L 288.465455 164.097458 
L 292.072727 164.097458 
L 295.68 164.097458 
L 299.287273 164.097458 
L 302.894545 164.097458 
L 306.501818 164.097458 
L 310.109091 164.097458 
L 313.716364 164.097458 
L 317.323636 164.097458 
L 320.930909 164.097458 
L 324.538182 164.097458 
L 328.145455 164.097458 
L 331.752727 164.097458 
L 335.36 164.097458 
L 338.967273 164.097458 
L 342.574545 164.097458 
L 346.181818 164.097458 
L 349.789091 164.097458 
L 353.396364 164.097458 
L 357.003636 164.097458 
L 360.610909 164.097458 
L 364.218182 164.097458 
L 367.825455 164.097458 
L 371.432727 164.097458 
L 375.04 164.097458 
L 378.647273 164.097458 
L 382.254545 164.097458 
L 385.861818 164.097458 
L 389.469091 164.097458 
L 393.076364 164.097458 
L 396.683636 164.097458 
L 400.290909 164.097458 
L 403.898182 164.097458 
L 407.505455 164.097458 
L 411.112727 164.097458 
L 414.72 164.097458 
" clip-path="url(#p4de0e37b85)" style="fill: none; stroke: #000000; stroke-width: 0.5"/>
   </g>
   <g id="PathCollection_14">
    <path d="M 57.6 159.546108 
L 61.207273 159.546108 
L 64.814545 159.546108 
L 68.421818 159.546108 
L 72.029091 159.546108 
L 75.636364 159.546108 
L 79.243636 159.546108 
L 82.850909 159.546108 
L 86.458182 159.546108 
L 90.065455 159.546108 
L 93.672727 159.546108 
L 97.28 159.546108 
L 100.887273 159.546108 
L 104.494545 159.546108 
L 108.101818 159.546108 
L 111.709091 159.546108 
L 115.316364 159.546108 
L 118.923636 159.546108 
L 122.530909 159.546108 
L 126.138182 159.546108 
L 129.745455 159.546108 
L 133.352727 159.546108 
L 136.96 159.546108 
L 140.567273 159.546108 
L 144.174545 159.546108 
L 147.781818 159.546108 
L 151.389091 159.546108 
L 154.996364 159.546108 
L 158.603636 159.546108 
L 162.210909 159.588623 
L 165.818182 159.588623 
L 169.425455 159.588623 
L 173.032727 159.588623 
L 176.64 159.588623 
L 180.247273 159.588623 
L 183.854545 159.588623 
L 187.461818 159.588623 
L 191.069091 159.588623 
L 194.676364 159.588623 
L 198.283636 159.588623 
L 201.890909 159.588623 
L 205.498182 159.588623 
L 209.105455 159.588623 
L 212.712727 159.588623 
L 216.32 159.588623 
L 219.927273 159.588623 
L 223.534545 159.588623 
L 227.141818 159.588623 
L 230.749091 159.588623 
L 234.356364 159.588623 
L 237.963636 159.588623 
L 241.570909 159.588623 
L 245.178182 159.588623 
L 248.785455 159.588623 
L 248.866818 159.588623 
" clip-path="url(#p4de0e37b85)" style="fill: none; stroke: #000000; stroke-width: 0.5"/>
    <path d="M 284.776818 159.588623 
L 284.858182 159.588623 
L 288.465455 159.588623 
L 292.072727 159.588623 
L 295.68 159.588623 
L 299.287273 159.588623 
L 302.894545 159.588623 
L 306.501818 159.588623 
L 310.109091 159.588623 
L 313.716364 159.588623 
L 317.323636 159.588623 
L 320.930909 159.588623 
L 324.538182 159.588623 
L 328.145455 159.588623 
L 331.752727 159.588623 
L 335.36 159.588623 
L 338.967273 159.588623 
L 342.574545 159.588623 
L 346.181818 159.588623 
L 349.789091 159.588623 
L 353.396364 159.588623 
L 357.003636 159.588623 
L 360.610909 159.588623 
L 364.218182 159.588623 
L 367.825455 159.588623 
L 371.432727 159.588623 
L 375.04 159.588623 
L 378.647273 159.588623 
L 382.254545 159.588623 
L 385.861818 159.588623 
L 389.469091 159.588623 
L 393.076364 159.588623 
L 396.683636 159.588623 
L 400.290909 159.588623 
L 403.898182 159.588623 
L 407.505455 159.588623 
L 411.112727 159.588623 
L 414.72 159.588623 
" clip-path="url(#p4de0e37b85)" style="fill: none; stroke: #000000; stroke-width: 0.5"/>
   </g>
   <g id="PathCollection_15"/>
   <g id="LineCollection_1">
    <path d="M 70.331738 307.584 
L 70.331738 294.2784 
" clip-path="url(#p4de0e37b85)" style="fill: none; stroke: #000000; stroke-width: 1.5"/>
    <path d="M 99.846223 307.584 
L 99.846223 294.2784 
" clip-path="url(#p4de0e37b85)" style="fill: none; stroke: #000000; stroke-width: 1.5"/>
    <path d="M 129.465928 307.584 
L 129.465928 294.2784 
" clip-path="url(#p4de0e37b85)" style="fill: none; stroke: #000000; stroke-width: 1.5"/>
    <path d="M 223.533483 307.584 
L 223.533483 294.2784 
" clip-path="url(#p4de0e37b85)" style="fill: none; stroke: #000000; stroke-width: 1.5"/>
    <path d="M 263.675286 307.584 
L 263.675286 294.2784 
" clip-path="url(#p4de0e37b85)" style="fill: none; stroke: #000000; stroke-width: 1.5"/>
    <path d="M 284.088156 307.584 
L 284.088156 294.2784 
" clip-path="url(#p4de0e37b85)" style="fill: none; stroke: #000000; stroke-width: 1.5"/>
    <path d="M 301.81789 307.584 
L 301.81789 294.2784 
" clip-path="url(#p4de0e37b85)" style="fill: none; stroke: #000000; stroke-width: 1.5"/>
    <path d="M 335.435993 307.584 
L 335.435993 294.2784 
" clip-path="url(#p4de0e37b85)" style="fill: none; stroke: #000000; stroke-width: 1.5"/>
    <path d="M 378.208321 307.584 
L 378.208321 294.2784 
" clip-path="url(#p4de0e37b85)" style="fill: none; stroke: #000000; stroke-width: 1.5"/>
   </g>
   <g id="LineCollection_2">
    <path d="M -1 302.219934 
L 63.755427 302.219934 
" clip-path="url(#p4de0e37b85)" style="fill: none; stroke: #000000; stroke-width: 1.5"/>
    <path d="M -1 207.323494 
L 63.755427 207.323494 
" clip-path="url(#p4de0e37b85)" style="fill: none; stroke: #000000; stroke-width: 1.5"/>
    <path clip-path="url(#p4de0e37b85)" style="fill: none; stroke: #000000; stroke-width: 1.5"/>
    <path clip-path="url(#p4de0e37b85)" style="fill: none; stroke: #000000; stroke-width: 1.5"/>
    <path clip-path="url(#p4de0e37b85)" style="fill: none; stroke: #000000; stroke-width: 1.5"/>
    <path clip-path="url(#p4de0e37b85)" style="fill: none; stroke: #000000; stroke-width: 1.5"/>
    <path clip-path="url(#p4de0e37b85)" style="fill: none; stroke: #000000; stroke-width: 1.5"/>
    <path clip-path="url(#p4de0e37b85)" style="fill: none; stroke: #000000; stroke-width: 1.5"/>
    <path clip-path="url(#p4de0e37b85)" style="fill: none; stroke: #000000; stroke-width: 1.5"/>
   </g>
   <g id="patch_3">
    <path d="M 57.6 307.584 
L 57.6 41.472 
" style="fill: none; stroke: #000000; stroke-width: 0.8; stroke-linejoin: miter; stroke-linecap: square"/>
   </g>
   <g id="patch_4">
    <path d="M 414.72 307.584 
L 414.72 41.472 
" style="fill: none; stroke: #000000; stroke-width: 0.8; stroke-linejoin: miter; stroke-linecap: square"/>
   </g>
   <g id="patch_5">
    <path d="M 57.6 307.584 
L 414.72 307.584 
" style="fill: none; stroke: #000000; stroke-width: 0.8; stroke-linejoin: miter; stroke-linecap: square"/>
   </g>
   <g id="patch_6">
    <path d="M 57.6 41.472 
L 414.72 41.472 
" style="fill: none; stroke: #000000; stroke-width: 0.8; stroke-linejoin: miter; stroke-linecap: square"/>
   </g>
   <g id="text_17">
    <!-- 2D-partial dependency plot between Obesity and Pig -->
    <g transform="translate(77.230312 35.472) scale(0.12 -0.12)">
     <defs>
      <path id="DejaVuSans-44" d="M 1259 4147 
L 1259 519 
L 2022 519 
Q 2988 519 3436 956 
Q 3884 1394 3884 2338 
Q 3884 3275 3436 3711 
Q 2988 4147 2022 4147 
L 1259 4147 
z
M 628 4666 
L 1925 4666 
Q 3281 4666 3915 4102 
Q 4550 3538 4550 2338 
Q 4550 1131 3912 565 
Q 3275 0 1925 0 
L 628 0 
L 628 4666 
z
" transform="scale(0.015625)"/>
      <path id="DejaVuSans-2d" d="M 313 2009 
L 1997 2009 
L 1997 1497 
L 313 1497 
L 313 2009 
z
" transform="scale(0.015625)"/>
      <path id="DejaVuSans-72" d="M 2631 2963 
Q 2534 3019 2420 3045 
Q 2306 3072 2169 3072 
Q 1681 3072 1420 2755 
Q 1159 2438 1159 1844 
L 1159 0 
L 581 0 
L 581 3500 
L 1159 3500 
L 1159 2956 
Q 1341 3275 1631 3429 
Q 1922 3584 2338 3584 
Q 2397 3584 2469 3576 
Q 2541 3569 2628 3553 
L 2631 2963 
z
" transform="scale(0.015625)"/>
      <path id="DejaVuSans-6c" d="M 603 4863 
L 1178 4863 
L 1178 0 
L 603 0 
L 603 4863 
z
" transform="scale(0.015625)"/>
      <path id="DejaVuSans-64" d="M 2906 2969 
L 2906 4863 
L 3481 4863 
L 3481 0 
L 2906 0 
L 2906 525 
Q 2725 213 2448 61 
Q 2172 -91 1784 -91 
Q 1150 -91 751 415 
Q 353 922 353 1747 
Q 353 2572 751 3078 
Q 1150 3584 1784 3584 
Q 2172 3584 2448 3432 
Q 2725 3281 2906 2969 
z
M 947 1747 
Q 947 1113 1208 752 
Q 1469 391 1925 391 
Q 2381 391 2643 752 
Q 2906 1113 2906 1747 
Q 2906 2381 2643 2742 
Q 2381 3103 1925 3103 
Q 1469 3103 1208 2742 
Q 947 2381 947 1747 
z
" transform="scale(0.015625)"/>
      <path id="DejaVuSans-63" d="M 3122 3366 
L 3122 2828 
Q 2878 2963 2633 3030 
Q 2388 3097 2138 3097 
Q 1578 3097 1268 2742 
Q 959 2388 959 1747 
Q 959 1106 1268 751 
Q 1578 397 2138 397 
Q 2388 397 2633 464 
Q 2878 531 3122 666 
L 3122 134 
Q 2881 22 2623 -34 
Q 2366 -91 2075 -91 
Q 1284 -91 818 406 
Q 353 903 353 1747 
Q 353 2603 823 3093 
Q 1294 3584 2113 3584 
Q 2378 3584 2631 3529 
Q 2884 3475 3122 3366 
z
" transform="scale(0.015625)"/>
      <path id="DejaVuSans-77" d="M 269 3500 
L 844 3500 
L 1563 769 
L 2278 3500 
L 2956 3500 
L 3675 769 
L 4391 3500 
L 4966 3500 
L 4050 0 
L 3372 0 
L 2619 2869 
L 1863 0 
L 1184 0 
L 269 3500 
z
" transform="scale(0.015625)"/>
     </defs>
     <use xlink:href="#DejaVuSans-32"/>
     <use xlink:href="#DejaVuSans-44" x="63.623047"/>
     <use xlink:href="#DejaVuSans-2d" x="140.625"/>
     <use xlink:href="#DejaVuSans-70" x="176.708984"/>
     <use xlink:href="#DejaVuSans-61" x="240.185547"/>
     <use xlink:href="#DejaVuSans-72" x="301.464844"/>
     <use xlink:href="#DejaVuSans-74" x="342.578125"/>
     <use xlink:href="#DejaVuSans-69" x="381.787109"/>
     <use xlink:href="#DejaVuSans-61" x="409.570312"/>
     <use xlink:href="#DejaVuSans-6c" x="470.849609"/>
     <use xlink:href="#DejaVuSans-20" x="498.632812"/>
     <use xlink:href="#DejaVuSans-64" x="530.419922"/>
     <use xlink:href="#DejaVuSans-65" x="593.896484"/>
     <use xlink:href="#DejaVuSans-70" x="655.419922"/>
     <use xlink:href="#DejaVuSans-65" x="718.896484"/>
     <use xlink:href="#DejaVuSans-6e" x="780.419922"/>
     <use xlink:href="#DejaVuSans-64" x="843.798828"/>
     <use xlink:href="#DejaVuSans-65" x="907.275391"/>
     <use xlink:href="#DejaVuSans-6e" x="968.798828"/>
     <use xlink:href="#DejaVuSans-63" x="1032.177734"/>
     <use xlink:href="#DejaVuSans-79" x="1087.158203"/>
     <use xlink:href="#DejaVuSans-20" x="1146.337891"/>
     <use xlink:href="#DejaVuSans-70" x="1178.125"/>
     <use xlink:href="#DejaVuSans-6c" x="1241.601562"/>
     <use xlink:href="#DejaVuSans-6f" x="1269.384766"/>
     <use xlink:href="#DejaVuSans-74" x="1330.566406"/>
     <use xlink:href="#DejaVuSans-20" x="1369.775391"/>
     <use xlink:href="#DejaVuSans-62" x="1401.5625"/>
     <use xlink:href="#DejaVuSans-65" x="1465.039062"/>
     <use xlink:href="#DejaVuSans-74" x="1526.5625"/>
     <use xlink:href="#DejaVuSans-77" x="1565.771484"/>
     <use xlink:href="#DejaVuSans-65" x="1647.558594"/>
     <use xlink:href="#DejaVuSans-65" x="1709.082031"/>
     <use xlink:href="#DejaVuSans-6e" x="1770.605469"/>
     <use xlink:href="#DejaVuSans-20" x="1833.984375"/>
     <use xlink:href="#DejaVuSans-4f" x="1865.771484"/>
     <use xlink:href="#DejaVuSans-62" x="1944.482422"/>
     <use xlink:href="#DejaVuSans-65" x="2007.958984"/>
     <use xlink:href="#DejaVuSans-73" x="2069.482422"/>
     <use xlink:href="#DejaVuSans-69" x="2121.582031"/>
     <use xlink:href="#DejaVuSans-74" x="2149.365234"/>
     <use xlink:href="#DejaVuSans-79" x="2188.574219"/>
     <use xlink:href="#DejaVuSans-20" x="2247.753906"/>
     <use xlink:href="#DejaVuSans-61" x="2279.541016"/>
     <use xlink:href="#DejaVuSans-6e" x="2340.820312"/>
     <use xlink:href="#DejaVuSans-64" x="2404.199219"/>
     <use xlink:href="#DejaVuSans-20" x="2467.675781"/>
     <use xlink:href="#DejaVuSans-50" x="2499.462891"/>
     <use xlink:href="#DejaVuSans-69" x="2557.515625"/>
     <use xlink:href="#DejaVuSans-67" x="2585.298828"/>
    </g>
   </g>
   <g id="text_18">
    <g clip-path="url(#p4de0e37b85)">
     <!-- 11.75 -->
     <g transform="translate(252.507756 185.641122) scale(0.1 -0.1)">
      <defs>
       <path id="DejaVuSans-37" d="M 525 4666 
L 3525 4666 
L 3525 4397 
L 1831 0 
L 1172 0 
L 2766 4134 
L 525 4134 
L 525 4666 
z
" transform="scale(0.015625)"/>
      </defs>
      <use xlink:href="#DejaVuSans-31"/>
      <use xlink:href="#DejaVuSans-31" x="63.623047"/>
      <use xlink:href="#DejaVuSans-2e" x="127.246094"/>
      <use xlink:href="#DejaVuSans-37" x="159.033203"/>
      <use xlink:href="#DejaVuSans-35" x="222.65625"/>
     </g>
    </g>
   </g>
   <g id="text_19">
    <g clip-path="url(#p4de0e37b85)">
     <!-- 12.58 -->
     <g transform="translate(393.191392 182.765351) scale(0.1 -0.1)">
      <defs>
       <path id="DejaVuSans-38" d="M 2034 2216 
Q 1584 2216 1326 1975 
Q 1069 1734 1069 1313 
Q 1069 891 1326 650 
Q 1584 409 2034 409 
Q 2484 409 2743 651 
Q 3003 894 3003 1313 
Q 3003 1734 2745 1975 
Q 2488 2216 2034 2216 
z
M 1403 2484 
Q 997 2584 770 2862 
Q 544 3141 544 3541 
Q 544 4100 942 4425 
Q 1341 4750 2034 4750 
Q 2731 4750 3128 4425 
Q 3525 4100 3525 3541 
Q 3525 3141 3298 2862 
Q 3072 2584 2669 2484 
Q 3125 2378 3379 2068 
Q 3634 1759 3634 1313 
Q 3634 634 3220 271 
Q 2806 -91 2034 -91 
Q 1263 -91 848 271 
Q 434 634 434 1313 
Q 434 1759 690 2068 
Q 947 2378 1403 2484 
z
M 1172 3481 
Q 1172 3119 1398 2916 
Q 1625 2713 2034 2713 
Q 2441 2713 2670 2916 
Q 2900 3119 2900 3481 
Q 2900 3844 2670 4047 
Q 2441 4250 2034 4250 
Q 1625 4250 1398 4047 
Q 1172 3844 1172 3481 
z
" transform="scale(0.015625)"/>
      </defs>
      <use xlink:href="#DejaVuSans-31"/>
      <use xlink:href="#DejaVuSans-32" x="63.623047"/>
      <use xlink:href="#DejaVuSans-2e" x="127.246094"/>
      <use xlink:href="#DejaVuSans-35" x="159.033203"/>
      <use xlink:href="#DejaVuSans-38" x="222.65625"/>
     </g>
    </g>
   </g>
   <g id="text_20">
    <g clip-path="url(#p4de0e37b85)">
     <!-- 13.41 -->
     <g transform="translate(111.824119 177.257121) scale(0.1 -0.1)">
      <use xlink:href="#DejaVuSans-31"/>
      <use xlink:href="#DejaVuSans-33" x="63.623047"/>
      <use xlink:href="#DejaVuSans-2e" x="127.246094"/>
      <use xlink:href="#DejaVuSans-34" x="159.033203"/>
      <use xlink:href="#DejaVuSans-31" x="222.65625"/>
     </g>
    </g>
   </g>
   <g id="text_21">
    <g clip-path="url(#p4de0e37b85)">
     <!-- 14.25 -->
     <g transform="translate(252.507756 174.577023) scale(0.1 -0.1)">
      <use xlink:href="#DejaVuSans-31"/>
      <use xlink:href="#DejaVuSans-34" x="63.623047"/>
      <use xlink:href="#DejaVuSans-2e" x="127.246094"/>
      <use xlink:href="#DejaVuSans-32" x="159.033203"/>
      <use xlink:href="#DejaVuSans-35" x="222.65625"/>
     </g>
    </g>
   </g>
   <g id="text_22">
    <g clip-path="url(#p4de0e37b85)">
     <!-- 15.08 -->
     <g transform="translate(252.507756 166.856833) scale(0.1 -0.1)">
      <use xlink:href="#DejaVuSans-31"/>
      <use xlink:href="#DejaVuSans-35" x="63.623047"/>
      <use xlink:href="#DejaVuSans-2e" x="127.246094"/>
      <use xlink:href="#DejaVuSans-30" x="159.033203"/>
      <use xlink:href="#DejaVuSans-38" x="222.65625"/>
     </g>
    </g>
   </g>
   <g id="text_23">
    <g clip-path="url(#p4de0e37b85)">
     <!-- 15.91 -->
     <g transform="translate(252.507756 162.347998) scale(0.1 -0.1)">
      <defs>
       <path id="DejaVuSans-39" d="M 703 97 
L 703 672 
Q 941 559 1184 500 
Q 1428 441 1663 441 
Q 2288 441 2617 861 
Q 2947 1281 2994 2138 
Q 2813 1869 2534 1725 
Q 2256 1581 1919 1581 
Q 1219 1581 811 2004 
Q 403 2428 403 3163 
Q 403 3881 828 4315 
Q 1253 4750 1959 4750 
Q 2769 4750 3195 4129 
Q 3622 3509 3622 2328 
Q 3622 1225 3098 567 
Q 2575 -91 1691 -91 
Q 1453 -91 1209 -44 
Q 966 3 703 97 
z
M 1959 2075 
Q 2384 2075 2632 2365 
Q 2881 2656 2881 3163 
Q 2881 3666 2632 3958 
Q 2384 4250 1959 4250 
Q 1534 4250 1286 3958 
Q 1038 3666 1038 3163 
Q 1038 2656 1286 2365 
Q 1534 2075 1959 2075 
z
" transform="scale(0.015625)"/>
      </defs>
      <use xlink:href="#DejaVuSans-31"/>
      <use xlink:href="#DejaVuSans-35" x="63.623047"/>
      <use xlink:href="#DejaVuSans-2e" x="127.246094"/>
      <use xlink:href="#DejaVuSans-39" x="159.033203"/>
      <use xlink:href="#DejaVuSans-31" x="222.65625"/>
     </g>
    </g>
   </g>
  </g>
 </g>
 <defs>
  <clipPath id="p4de0e37b85">
   <rect x="57.6" y="41.472" width="357.12" height="266.112"/>
  </clipPath>
 </defs>
</svg>
