<?xml version="1.0" encoding="utf-8" standalone="no"?>
<!DOCTYPE svg PUBLIC "-//W3C//DTD SVG 1.1//EN"
  "http://www.w3.org/Graphics/SVG/1.1/DTD/svg11.dtd">
<svg xmlns:xlink="http://www.w3.org/1999/xlink" width="392.198125pt" height="325.986375pt" viewBox="0 0 392.198125 325.986375" xmlns="http://www.w3.org/2000/svg" version="1.1">
 <metadata>
  <rdf:RDF xmlns:dc="http://purl.org/dc/elements/1.1/" xmlns:cc="http://creativecommons.org/ns#" xmlns:rdf="http://www.w3.org/1999/02/22-rdf-syntax-ns#">
   <cc:Work>
    <dc:type rdf:resource="http://purl.org/dc/dcmitype/StillImage"/>
    <dc:date>2024-03-09T17:02:51.653824</dc:date>
    <dc:format>image/svg+xml</dc:format>
    <dc:creator>
     <cc:Agent>
      <dc:title>Matplotlib v3.7.0, https://matplotlib.org/</dc:title>
     </cc:Agent>
    </dc:creator>
   </cc:Work>
  </rdf:RDF>
 </metadata>
 <defs>
  <style type="text/css">*{stroke-linejoin: round; stroke-linecap: butt}</style>
 </defs>
 <g id="figure_1">
  <g id="patch_1">
   <path d="M 0 325.986375 
L 392.198125 325.986375 
L 392.198125 0 
L 0 0 
L 0 325.986375 
z
" style="fill: none"/>
  </g>
  <g id="axes_1">
   <g id="patch_2">
    <path d="M 27.878125 288.430125 
L 384.998125 288.430125 
L 384.998125 22.318125 
L 27.878125 22.318125 
L 27.878125 288.430125 
z
" style="fill: none"/>
   </g>
   <g id="matplotlib.axis_1">
    <g id="xtick_1">
     <g id="line2d_1">
      <defs>
       <path id="m539101f101" d="M 0 0 
L 0 3.5 
" style="stroke: #000000; stroke-width: 0.8"/>
      </defs>
      <g>
       <use xlink:href="#m539101f101" x="41.722397" y="288.430125" style="stroke: #000000; stroke-width: 0.8"/>
      </g>
     </g>
     <g id="text_1">
      <!-- 0 -->
      <g transform="translate(38.541147 303.028562) scale(0.1 -0.1)">
       <defs>
        <path id="DejaVuSans-30" d="M 2034 4250 
Q 1547 4250 1301 3770 
Q 1056 3291 1056 2328 
Q 1056 1369 1301 889 
Q 1547 409 2034 409 
Q 2525 409 2770 889 
Q 3016 1369 3016 2328 
Q 3016 3291 2770 3770 
Q 2525 4250 2034 4250 
z
M 2034 4750 
Q 2819 4750 3233 4129 
Q 3647 3509 3647 2328 
Q 3647 1150 3233 529 
Q 2819 -91 2034 -91 
Q 1250 -91 836 529 
Q 422 1150 422 2328 
Q 422 3509 836 4129 
Q 1250 4750 2034 4750 
z
" transform="scale(0.015625)"/>
       </defs>
       <use xlink:href="#DejaVuSans-30"/>
      </g>
     </g>
    </g>
    <g id="xtick_2">
     <g id="line2d_2">
      <g>
       <use xlink:href="#m539101f101" x="81.629111" y="288.430125" style="stroke: #000000; stroke-width: 0.8"/>
      </g>
     </g>
     <g id="text_2">
      <!-- 5 -->
      <g transform="translate(78.447861 303.028562) scale(0.1 -0.1)">
       <defs>
        <path id="DejaVuSans-35" d="M 691 4666 
L 3169 4666 
L 3169 4134 
L 1269 4134 
L 1269 2991 
Q 1406 3038 1543 3061 
Q 1681 3084 1819 3084 
Q 2600 3084 3056 2656 
Q 3513 2228 3513 1497 
Q 3513 744 3044 326 
Q 2575 -91 1722 -91 
Q 1428 -91 1123 -41 
Q 819 9 494 109 
L 494 744 
Q 775 591 1075 516 
Q 1375 441 1709 441 
Q 2250 441 2565 725 
Q 2881 1009 2881 1497 
Q 2881 1984 2565 2268 
Q 2250 2553 1709 2553 
Q 1456 2553 1204 2497 
Q 953 2441 691 2322 
L 691 4666 
z
" transform="scale(0.015625)"/>
       </defs>
       <use xlink:href="#DejaVuSans-35"/>
      </g>
     </g>
    </g>
    <g id="xtick_3">
     <g id="line2d_3">
      <g>
       <use xlink:href="#m539101f101" x="121.535825" y="288.430125" style="stroke: #000000; stroke-width: 0.8"/>
      </g>
     </g>
     <g id="text_3">
      <!-- 10 -->
      <g transform="translate(115.173325 303.028562) scale(0.1 -0.1)">
       <defs>
        <path id="DejaVuSans-31" d="M 794 531 
L 1825 531 
L 1825 4091 
L 703 3866 
L 703 4441 
L 1819 4666 
L 2450 4666 
L 2450 531 
L 3481 531 
L 3481 0 
L 794 0 
L 794 531 
z
" transform="scale(0.015625)"/>
       </defs>
       <use xlink:href="#DejaVuSans-31"/>
       <use xlink:href="#DejaVuSans-30" x="63.623047"/>
      </g>
     </g>
    </g>
    <g id="xtick_4">
     <g id="line2d_4">
      <g>
       <use xlink:href="#m539101f101" x="161.442539" y="288.430125" style="stroke: #000000; stroke-width: 0.8"/>
      </g>
     </g>
     <g id="text_4">
      <!-- 15 -->
      <g transform="translate(155.080039 303.028562) scale(0.1 -0.1)">
       <use xlink:href="#DejaVuSans-31"/>
       <use xlink:href="#DejaVuSans-35" x="63.623047"/>
      </g>
     </g>
    </g>
    <g id="xtick_5">
     <g id="line2d_5">
      <g>
       <use xlink:href="#m539101f101" x="201.349253" y="288.430125" style="stroke: #000000; stroke-width: 0.8"/>
      </g>
     </g>
     <g id="text_5">
      <!-- 20 -->
      <g transform="translate(194.986753 303.028562) scale(0.1 -0.1)">
       <defs>
        <path id="DejaVuSans-32" d="M 1228 531 
L 3431 531 
L 3431 0 
L 469 0 
L 469 531 
Q 828 903 1448 1529 
Q 2069 2156 2228 2338 
Q 2531 2678 2651 2914 
Q 2772 3150 2772 3378 
Q 2772 3750 2511 3984 
Q 2250 4219 1831 4219 
Q 1534 4219 1204 4116 
Q 875 4013 500 3803 
L 500 4441 
Q 881 4594 1212 4672 
Q 1544 4750 1819 4750 
Q 2544 4750 2975 4387 
Q 3406 4025 3406 3419 
Q 3406 3131 3298 2873 
Q 3191 2616 2906 2266 
Q 2828 2175 2409 1742 
Q 1991 1309 1228 531 
z
" transform="scale(0.015625)"/>
       </defs>
       <use xlink:href="#DejaVuSans-32"/>
       <use xlink:href="#DejaVuSans-30" x="63.623047"/>
      </g>
     </g>
    </g>
    <g id="xtick_6">
     <g id="line2d_6">
      <g>
       <use xlink:href="#m539101f101" x="241.255967" y="288.430125" style="stroke: #000000; stroke-width: 0.8"/>
      </g>
     </g>
     <g id="text_6">
      <!-- 25 -->
      <g transform="translate(234.893467 303.028562) scale(0.1 -0.1)">
       <use xlink:href="#DejaVuSans-32"/>
       <use xlink:href="#DejaVuSans-35" x="63.623047"/>
      </g>
     </g>
    </g>
    <g id="xtick_7">
     <g id="line2d_7">
      <g>
       <use xlink:href="#m539101f101" x="281.162682" y="288.430125" style="stroke: #000000; stroke-width: 0.8"/>
      </g>
     </g>
     <g id="text_7">
      <!-- 30 -->
      <g transform="translate(274.800182 303.028562) scale(0.1 -0.1)">
       <defs>
        <path id="DejaVuSans-33" d="M 2597 2516 
Q 3050 2419 3304 2112 
Q 3559 1806 3559 1356 
Q 3559 666 3084 287 
Q 2609 -91 1734 -91 
Q 1441 -91 1130 -33 
Q 819 25 488 141 
L 488 750 
Q 750 597 1062 519 
Q 1375 441 1716 441 
Q 2309 441 2620 675 
Q 2931 909 2931 1356 
Q 2931 1769 2642 2001 
Q 2353 2234 1838 2234 
L 1294 2234 
L 1294 2753 
L 1863 2753 
Q 2328 2753 2575 2939 
Q 2822 3125 2822 3475 
Q 2822 3834 2567 4026 
Q 2313 4219 1838 4219 
Q 1578 4219 1281 4162 
Q 984 4106 628 3988 
L 628 4550 
Q 988 4650 1302 4700 
Q 1616 4750 1894 4750 
Q 2613 4750 3031 4423 
Q 3450 4097 3450 3541 
Q 3450 3153 3228 2886 
Q 3006 2619 2597 2516 
z
" transform="scale(0.015625)"/>
       </defs>
       <use xlink:href="#DejaVuSans-33"/>
       <use xlink:href="#DejaVuSans-30" x="63.623047"/>
      </g>
     </g>
    </g>
    <g id="xtick_8">
     <g id="line2d_8">
      <g>
       <use xlink:href="#m539101f101" x="321.069396" y="288.430125" style="stroke: #000000; stroke-width: 0.8"/>
      </g>
     </g>
     <g id="text_8">
      <!-- 35 -->
      <g transform="translate(314.706896 303.028562) scale(0.1 -0.1)">
       <use xlink:href="#DejaVuSans-33"/>
       <use xlink:href="#DejaVuSans-35" x="63.623047"/>
      </g>
     </g>
    </g>
    <g id="xtick_9">
     <g id="line2d_9">
      <g>
       <use xlink:href="#m539101f101" x="360.97611" y="288.430125" style="stroke: #000000; stroke-width: 0.8"/>
      </g>
     </g>
     <g id="text_9">
      <!-- 40 -->
      <g transform="translate(354.61361 303.028562) scale(0.1 -0.1)">
       <defs>
        <path id="DejaVuSans-34" d="M 2419 4116 
L 825 1625 
L 2419 1625 
L 2419 4116 
z
M 2253 4666 
L 3047 4666 
L 3047 1625 
L 3713 1625 
L 3713 1100 
L 3047 1100 
L 3047 0 
L 2419 0 
L 2419 1100 
L 313 1100 
L 313 1709 
L 2253 4666 
z
" transform="scale(0.015625)"/>
       </defs>
       <use xlink:href="#DejaVuSans-34"/>
       <use xlink:href="#DejaVuSans-30" x="63.623047"/>
      </g>
     </g>
    </g>
    <g id="text_10">
     <!-- Beef kgpercapit(2019) -->
     <g transform="translate(150.27875 316.706687) scale(0.1 -0.1)">
      <defs>
       <path id="DejaVuSans-42" d="M 1259 2228 
L 1259 519 
L 2272 519 
Q 2781 519 3026 730 
Q 3272 941 3272 1375 
Q 3272 1813 3026 2020 
Q 2781 2228 2272 2228 
L 1259 2228 
z
M 1259 4147 
L 1259 2741 
L 2194 2741 
Q 2656 2741 2882 2914 
Q 3109 3088 3109 3444 
Q 3109 3797 2882 3972 
Q 2656 4147 2194 4147 
L 1259 4147 
z
M 628 4666 
L 2241 4666 
Q 2963 4666 3353 4366 
Q 3744 4066 3744 3513 
Q 3744 3084 3544 2831 
Q 3344 2578 2956 2516 
Q 3422 2416 3680 2098 
Q 3938 1781 3938 1306 
Q 3938 681 3513 340 
Q 3088 0 2303 0 
L 628 0 
L 628 4666 
z
" transform="scale(0.015625)"/>
       <path id="DejaVuSans-65" d="M 3597 1894 
L 3597 1613 
L 953 1613 
Q 991 1019 1311 708 
Q 1631 397 2203 397 
Q 2534 397 2845 478 
Q 3156 559 3463 722 
L 3463 178 
Q 3153 47 2828 -22 
Q 2503 -91 2169 -91 
Q 1331 -91 842 396 
Q 353 884 353 1716 
Q 353 2575 817 3079 
Q 1281 3584 2069 3584 
Q 2775 3584 3186 3129 
Q 3597 2675 3597 1894 
z
M 3022 2063 
Q 3016 2534 2758 2815 
Q 2500 3097 2075 3097 
Q 1594 3097 1305 2825 
Q 1016 2553 972 2059 
L 3022 2063 
z
" transform="scale(0.015625)"/>
       <path id="DejaVuSans-66" d="M 2375 4863 
L 2375 4384 
L 1825 4384 
Q 1516 4384 1395 4259 
Q 1275 4134 1275 3809 
L 1275 3500 
L 2222 3500 
L 2222 3053 
L 1275 3053 
L 1275 0 
L 697 0 
L 697 3053 
L 147 3053 
L 147 3500 
L 697 3500 
L 697 3744 
Q 697 4328 969 4595 
Q 1241 4863 1831 4863 
L 2375 4863 
z
" transform="scale(0.015625)"/>
       <path id="DejaVuSans-20" transform="scale(0.015625)"/>
       <path id="DejaVuSans-6b" d="M 581 4863 
L 1159 4863 
L 1159 1991 
L 2875 3500 
L 3609 3500 
L 1753 1863 
L 3688 0 
L 2938 0 
L 1159 1709 
L 1159 0 
L 581 0 
L 581 4863 
z
" transform="scale(0.015625)"/>
       <path id="DejaVuSans-67" d="M 2906 1791 
Q 2906 2416 2648 2759 
Q 2391 3103 1925 3103 
Q 1463 3103 1205 2759 
Q 947 2416 947 1791 
Q 947 1169 1205 825 
Q 1463 481 1925 481 
Q 2391 481 2648 825 
Q 2906 1169 2906 1791 
z
M 3481 434 
Q 3481 -459 3084 -895 
Q 2688 -1331 1869 -1331 
Q 1566 -1331 1297 -1286 
Q 1028 -1241 775 -1147 
L 775 -588 
Q 1028 -725 1275 -790 
Q 1522 -856 1778 -856 
Q 2344 -856 2625 -561 
Q 2906 -266 2906 331 
L 2906 616 
Q 2728 306 2450 153 
Q 2172 0 1784 0 
Q 1141 0 747 490 
Q 353 981 353 1791 
Q 353 2603 747 3093 
Q 1141 3584 1784 3584 
Q 2172 3584 2450 3431 
Q 2728 3278 2906 2969 
L 2906 3500 
L 3481 3500 
L 3481 434 
z
" transform="scale(0.015625)"/>
       <path id="DejaVuSans-70" d="M 1159 525 
L 1159 -1331 
L 581 -1331 
L 581 3500 
L 1159 3500 
L 1159 2969 
Q 1341 3281 1617 3432 
Q 1894 3584 2278 3584 
Q 2916 3584 3314 3078 
Q 3713 2572 3713 1747 
Q 3713 922 3314 415 
Q 2916 -91 2278 -91 
Q 1894 -91 1617 61 
Q 1341 213 1159 525 
z
M 3116 1747 
Q 3116 2381 2855 2742 
Q 2594 3103 2138 3103 
Q 1681 3103 1420 2742 
Q 1159 2381 1159 1747 
Q 1159 1113 1420 752 
Q 1681 391 2138 391 
Q 2594 391 2855 752 
Q 3116 1113 3116 1747 
z
" transform="scale(0.015625)"/>
       <path id="DejaVuSans-72" d="M 2631 2963 
Q 2534 3019 2420 3045 
Q 2306 3072 2169 3072 
Q 1681 3072 1420 2755 
Q 1159 2438 1159 1844 
L 1159 0 
L 581 0 
L 581 3500 
L 1159 3500 
L 1159 2956 
Q 1341 3275 1631 3429 
Q 1922 3584 2338 3584 
Q 2397 3584 2469 3576 
Q 2541 3569 2628 3553 
L 2631 2963 
z
" transform="scale(0.015625)"/>
       <path id="DejaVuSans-63" d="M 3122 3366 
L 3122 2828 
Q 2878 2963 2633 3030 
Q 2388 3097 2138 3097 
Q 1578 3097 1268 2742 
Q 959 2388 959 1747 
Q 959 1106 1268 751 
Q 1578 397 2138 397 
Q 2388 397 2633 464 
Q 2878 531 3122 666 
L 3122 134 
Q 2881 22 2623 -34 
Q 2366 -91 2075 -91 
Q 1284 -91 818 406 
Q 353 903 353 1747 
Q 353 2603 823 3093 
Q 1294 3584 2113 3584 
Q 2378 3584 2631 3529 
Q 2884 3475 3122 3366 
z
" transform="scale(0.015625)"/>
       <path id="DejaVuSans-61" d="M 2194 1759 
Q 1497 1759 1228 1600 
Q 959 1441 959 1056 
Q 959 750 1161 570 
Q 1363 391 1709 391 
Q 2188 391 2477 730 
Q 2766 1069 2766 1631 
L 2766 1759 
L 2194 1759 
z
M 3341 1997 
L 3341 0 
L 2766 0 
L 2766 531 
Q 2569 213 2275 61 
Q 1981 -91 1556 -91 
Q 1019 -91 701 211 
Q 384 513 384 1019 
Q 384 1609 779 1909 
Q 1175 2209 1959 2209 
L 2766 2209 
L 2766 2266 
Q 2766 2663 2505 2880 
Q 2244 3097 1772 3097 
Q 1472 3097 1187 3025 
Q 903 2953 641 2809 
L 641 3341 
Q 956 3463 1253 3523 
Q 1550 3584 1831 3584 
Q 2591 3584 2966 3190 
Q 3341 2797 3341 1997 
z
" transform="scale(0.015625)"/>
       <path id="DejaVuSans-69" d="M 603 3500 
L 1178 3500 
L 1178 0 
L 603 0 
L 603 3500 
z
M 603 4863 
L 1178 4863 
L 1178 4134 
L 603 4134 
L 603 4863 
z
" transform="scale(0.015625)"/>
       <path id="DejaVuSans-74" d="M 1172 4494 
L 1172 3500 
L 2356 3500 
L 2356 3053 
L 1172 3053 
L 1172 1153 
Q 1172 725 1289 603 
Q 1406 481 1766 481 
L 2356 481 
L 2356 0 
L 1766 0 
Q 1100 0 847 248 
Q 594 497 594 1153 
L 594 3053 
L 172 3053 
L 172 3500 
L 594 3500 
L 594 4494 
L 1172 4494 
z
" transform="scale(0.015625)"/>
       <path id="DejaVuSans-28" d="M 1984 4856 
Q 1566 4138 1362 3434 
Q 1159 2731 1159 2009 
Q 1159 1288 1364 580 
Q 1569 -128 1984 -844 
L 1484 -844 
Q 1016 -109 783 600 
Q 550 1309 550 2009 
Q 550 2706 781 3412 
Q 1013 4119 1484 4856 
L 1984 4856 
z
" transform="scale(0.015625)"/>
       <path id="DejaVuSans-39" d="M 703 97 
L 703 672 
Q 941 559 1184 500 
Q 1428 441 1663 441 
Q 2288 441 2617 861 
Q 2947 1281 2994 2138 
Q 2813 1869 2534 1725 
Q 2256 1581 1919 1581 
Q 1219 1581 811 2004 
Q 403 2428 403 3163 
Q 403 3881 828 4315 
Q 1253 4750 1959 4750 
Q 2769 4750 3195 4129 
Q 3622 3509 3622 2328 
Q 3622 1225 3098 567 
Q 2575 -91 1691 -91 
Q 1453 -91 1209 -44 
Q 966 3 703 97 
z
M 1959 2075 
Q 2384 2075 2632 2365 
Q 2881 2656 2881 3163 
Q 2881 3666 2632 3958 
Q 2384 4250 1959 4250 
Q 1534 4250 1286 3958 
Q 1038 3666 1038 3163 
Q 1038 2656 1286 2365 
Q 1534 2075 1959 2075 
z
" transform="scale(0.015625)"/>
       <path id="DejaVuSans-29" d="M 513 4856 
L 1013 4856 
Q 1481 4119 1714 3412 
Q 1947 2706 1947 2009 
Q 1947 1309 1714 600 
Q 1481 -109 1013 -844 
L 513 -844 
Q 928 -128 1133 580 
Q 1338 1288 1338 2009 
Q 1338 2731 1133 3434 
Q 928 4138 513 4856 
z
" transform="scale(0.015625)"/>
      </defs>
      <use xlink:href="#DejaVuSans-42"/>
      <use xlink:href="#DejaVuSans-65" x="68.603516"/>
      <use xlink:href="#DejaVuSans-65" x="130.126953"/>
      <use xlink:href="#DejaVuSans-66" x="191.650391"/>
      <use xlink:href="#DejaVuSans-20" x="226.855469"/>
      <use xlink:href="#DejaVuSans-6b" x="258.642578"/>
      <use xlink:href="#DejaVuSans-67" x="316.552734"/>
      <use xlink:href="#DejaVuSans-70" x="380.029297"/>
      <use xlink:href="#DejaVuSans-65" x="443.505859"/>
      <use xlink:href="#DejaVuSans-72" x="505.029297"/>
      <use xlink:href="#DejaVuSans-63" x="543.892578"/>
      <use xlink:href="#DejaVuSans-61" x="598.873047"/>
      <use xlink:href="#DejaVuSans-70" x="660.152344"/>
      <use xlink:href="#DejaVuSans-69" x="723.628906"/>
      <use xlink:href="#DejaVuSans-74" x="751.412109"/>
      <use xlink:href="#DejaVuSans-28" x="790.621094"/>
      <use xlink:href="#DejaVuSans-32" x="829.634766"/>
      <use xlink:href="#DejaVuSans-30" x="893.257812"/>
      <use xlink:href="#DejaVuSans-31" x="956.880859"/>
      <use xlink:href="#DejaVuSans-39" x="1020.503906"/>
      <use xlink:href="#DejaVuSans-29" x="1084.126953"/>
     </g>
    </g>
   </g>
   <g id="matplotlib.axis_2">
    <g id="ytick_1">
     <g id="line2d_10">
      <defs>
       <path id="m9197cfff91" d="M 0 0 
L -3.5 0 
" style="stroke: #000000; stroke-width: 0.8"/>
      </defs>
      <g>
       <use xlink:href="#m9197cfff91" x="27.878125" y="155.374125" style="stroke: #000000; stroke-width: 0.8"/>
      </g>
     </g>
    </g>
    <g id="text_11">
     <!-- Beef -->
     <g transform="translate(14.798438 166.717875) rotate(-90) scale(0.1 -0.1)">
      <use xlink:href="#DejaVuSans-42"/>
      <use xlink:href="#DejaVuSans-65" x="68.603516"/>
      <use xlink:href="#DejaVuSans-65" x="130.126953"/>
      <use xlink:href="#DejaVuSans-66" x="191.650391"/>
     </g>
    </g>
   </g>
   <g id="patch_3">
    <path d="M 27.878125 288.430125 
L 27.878125 22.318125 
" style="fill: none; stroke: #000000; stroke-width: 0.8; stroke-linejoin: miter; stroke-linecap: square"/>
   </g>
   <g id="patch_4">
    <path d="M 384.998125 288.430125 
L 384.998125 22.318125 
" style="fill: none; stroke: #000000; stroke-width: 0.8; stroke-linejoin: miter; stroke-linecap: square"/>
   </g>
   <g id="patch_5">
    <path d="M 27.878125 288.430125 
L 384.998125 288.430125 
" style="fill: none; stroke: #000000; stroke-width: 0.8; stroke-linejoin: miter; stroke-linecap: square"/>
   </g>
   <g id="patch_6">
    <path d="M 27.878125 22.318125 
L 384.998125 22.318125 
" style="fill: none; stroke: #000000; stroke-width: 0.8; stroke-linejoin: miter; stroke-linecap: square"/>
   </g>
   <g id="PathCollection_1">
    <defs>
     <path id="m885dc942b7" d="M 0 2.5 
C 0.663008 2.5 1.29895 2.236584 1.767767 1.767767 
C 2.236584 1.29895 2.5 0.663008 2.5 0 
C 2.5 -0.663008 2.236584 -1.29895 1.767767 -1.767767 
C 1.29895 -2.236584 0.663008 -2.5 0 -2.5 
C -0.663008 -2.5 -1.29895 -2.236584 -1.767767 -1.767767 
C -2.236584 -1.29895 -2.5 -0.663008 -2.5 0 
C -2.5 0.663008 -2.236584 1.29895 -1.767767 1.767767 
C -1.29895 2.236584 -0.663008 2.5 0 2.5 
z
"/>
    </defs>
    <g clip-path="url(#p17b2473421)">
     <use xlink:href="#m885dc942b7" x="63.668524" y="157.815805" style="fill: #1f77b4"/>
     <use xlink:href="#m885dc942b7" x="147.334087" y="162.958664" style="fill: #1f77b4"/>
     <use xlink:href="#m885dc942b7" x="80.747056" y="141.196296" style="fill: #1f77b4"/>
     <use xlink:href="#m885dc942b7" x="74.461131" y="138.465001" style="fill: #1f77b4"/>
     <use xlink:href="#m885dc942b7" x="245.181591" y="150.729157" style="fill: #1f77b4"/>
     <use xlink:href="#m885dc942b7" x="248.929238" y="132.915784" style="fill: #1f77b4"/>
     <use xlink:href="#m885dc942b7" x="171.148674" y="179.185369" style="fill: #1f77b4"/>
     <use xlink:href="#m885dc942b7" x="139.371596" y="172.674819" style="fill: #1f77b4"/>
     <use xlink:href="#m885dc942b7" x="93.895269" y="158.244491" style="fill: #1f77b4"/>
     <use xlink:href="#m885dc942b7" x="128.860607" y="181.050524" style="fill: #1f77b4"/>
     <use xlink:href="#m885dc942b7" x="51.471566" y="156.97236" style="fill: #1f77b4"/>
     <use xlink:href="#m885dc942b7" x="126.423791" y="141.504486" style="fill: #1f77b4"/>
     <use xlink:href="#m885dc942b7" x="195.275803" y="150.713037" style="fill: #1f77b4"/>
     <use xlink:href="#m885dc942b7" x="156.700871" y="152.013396" style="fill: #1f77b4"/>
     <use xlink:href="#m885dc942b7" x="75.351465" y="161.858474" style="fill: #1f77b4"/>
     <use xlink:href="#m885dc942b7" x="69.694534" y="137.168135" style="fill: #1f77b4"/>
     <use xlink:href="#m885dc942b7" x="115.68428" y="135.712098" style="fill: #1f77b4"/>
     <use xlink:href="#m885dc942b7" x="219.848569" y="129.467846" style="fill: #1f77b4"/>
     <use xlink:href="#m885dc942b7" x="149.98616" y="163.655049" style="fill: #1f77b4"/>
     <use xlink:href="#m885dc942b7" x="85.634823" y="173.956999" style="fill: #1f77b4"/>
     <use xlink:href="#m885dc942b7" x="337.520699" y="134.658816" style="fill: #1f77b4"/>
     <use xlink:href="#m885dc942b7" x="73.331272" y="134.569575" style="fill: #1f77b4"/>
     <use xlink:href="#m885dc942b7" x="91.65347" y="153.778154" style="fill: #1f77b4"/>
     <use xlink:href="#m885dc942b7" x="52.184842" y="142.888181" style="fill: #1f77b4"/>
     <use xlink:href="#m885dc942b7" x="72.735569" y="164.712071" style="fill: #1f77b4"/>
     <use xlink:href="#m885dc942b7" x="67.275746" y="130.408658" style="fill: #1f77b4"/>
     <use xlink:href="#m885dc942b7" x="246.949402" y="147.783996" style="fill: #1f77b4"/>
     <use xlink:href="#m885dc942b7" x="192.216035" y="146.566427" style="fill: #1f77b4"/>
     <use xlink:href="#m885dc942b7" x="256.549841" y="176.788632" style="fill: #1f77b4"/>
     <use xlink:href="#m885dc942b7" x="228.899189" y="146.306217" style="fill: #1f77b4"/>
     <use xlink:href="#m885dc942b7" x="91.863004" y="167.356737" style="fill: #1f77b4"/>
     <use xlink:href="#m885dc942b7" x="159.163395" y="133.594773" style="fill: #1f77b4"/>
     <use xlink:href="#m885dc942b7" x="64.732128" y="140.309216" style="fill: #1f77b4"/>
     <use xlink:href="#m885dc942b7" x="140.84306" y="167.221589" style="fill: #1f77b4"/>
     <use xlink:href="#m885dc942b7" x="52.319602" y="181.950113" style="fill: #1f77b4"/>
     <use xlink:href="#m885dc942b7" x="103.669528" y="164.29145" style="fill: #1f77b4"/>
     <use xlink:href="#m885dc942b7" x="97.539436" y="178.265277" style="fill: #1f77b4"/>
     <use xlink:href="#m885dc942b7" x="129.409986" y="180.091381" style="fill: #1f77b4"/>
     <use xlink:href="#m885dc942b7" x="44.110852" y="132.613523" style="fill: #1f77b4"/>
     <use xlink:href="#m885dc942b7" x="235.819747" y="167.830357" style="fill: #1f77b4"/>
     <use xlink:href="#m885dc942b7" x="87.302505" y="139.643086" style="fill: #1f77b4"/>
     <use xlink:href="#m885dc942b7" x="92.447145" y="177.607183" style="fill: #1f77b4"/>
     <use xlink:href="#m885dc942b7" x="147.1779" y="180.289208" style="fill: #1f77b4"/>
     <use xlink:href="#m885dc942b7" x="107.721286" y="135.925734" style="fill: #1f77b4"/>
     <use xlink:href="#m885dc942b7" x="111.846251" y="181.291122" style="fill: #1f77b4"/>
     <use xlink:href="#m885dc942b7" x="105.027928" y="150.143197" style="fill: #1f77b4"/>
     <use xlink:href="#m885dc942b7" x="70.176296" y="136.160009" style="fill: #1f77b4"/>
     <use xlink:href="#m885dc942b7" x="66.701577" y="147.05466" style="fill: #1f77b4"/>
     <use xlink:href="#m885dc942b7" x="184.543387" y="143.722317" style="fill: #1f77b4"/>
     <use xlink:href="#m885dc942b7" x="214.782037" y="135.832076" style="fill: #1f77b4"/>
     <use xlink:href="#m885dc942b7" x="82.235437" y="147.537625" style="fill: #1f77b4"/>
     <use xlink:href="#m885dc942b7" x="68.385357" y="131.014159" style="fill: #1f77b4"/>
     <use xlink:href="#m885dc942b7" x="100.347303" y="159.552688" style="fill: #1f77b4"/>
     <use xlink:href="#m885dc942b7" x="156.923136" y="128.907907" style="fill: #1f77b4"/>
     <use xlink:href="#m885dc942b7" x="51.811628" y="158.218433" style="fill: #1f77b4"/>
     <use xlink:href="#m885dc942b7" x="160.699085" y="176.749279" style="fill: #1f77b4"/>
     <use xlink:href="#m885dc942b7" x="139.830591" y="161.306403" style="fill: #1f77b4"/>
     <use xlink:href="#m885dc942b7" x="111.536815" y="155.341396" style="fill: #1f77b4"/>
     <use xlink:href="#m885dc942b7" x="70.822145" y="150.982183" style="fill: #1f77b4"/>
     <use xlink:href="#m885dc942b7" x="73.24328" y="180.049679" style="fill: #1f77b4"/>
     <use xlink:href="#m885dc942b7" x="76.03561" y="145.142155" style="fill: #1f77b4"/>
     <use xlink:href="#m885dc942b7" x="92.102495" y="158.294263" style="fill: #1f77b4"/>
     <use xlink:href="#m885dc942b7" x="80.482309" y="171.245191" style="fill: #1f77b4"/>
     <use xlink:href="#m885dc942b7" x="154.072894" y="146.996128" style="fill: #1f77b4"/>
     <use xlink:href="#m885dc942b7" x="50.001653" y="143.797131" style="fill: #1f77b4"/>
     <use xlink:href="#m885dc942b7" x="64.957814" y="149.468377" style="fill: #1f77b4"/>
     <use xlink:href="#m885dc942b7" x="64.318574" y="133.693815" style="fill: #1f77b4"/>
     <use xlink:href="#m885dc942b7" x="196.769279" y="131.903548" style="fill: #1f77b4"/>
     <use xlink:href="#m885dc942b7" x="260.215536" y="153.783641" style="fill: #1f77b4"/>
     <use xlink:href="#m885dc942b7" x="177.411881" y="157.750168" style="fill: #1f77b4"/>
     <use xlink:href="#m885dc942b7" x="77.431838" y="154.790411" style="fill: #1f77b4"/>
     <use xlink:href="#m885dc942b7" x="119.477141" y="177.270557" style="fill: #1f77b4"/>
     <use xlink:href="#m885dc942b7" x="92.06274" y="144.935298" style="fill: #1f77b4"/>
     <use xlink:href="#m885dc942b7" x="248.729904" y="142.762536" style="fill: #1f77b4"/>
     <use xlink:href="#m885dc942b7" x="93.194292" y="169.15282" style="fill: #1f77b4"/>
     <use xlink:href="#m885dc942b7" x="165.941446" y="132.45098" style="fill: #1f77b4"/>
     <use xlink:href="#m885dc942b7" x="105.433942" y="162.960819" style="fill: #1f77b4"/>
     <use xlink:href="#m885dc942b7" x="90.159334" y="140.722981" style="fill: #1f77b4"/>
     <use xlink:href="#m885dc942b7" x="53.382783" y="135.085302" style="fill: #1f77b4"/>
     <use xlink:href="#m885dc942b7" x="45.832801" y="137.339539" style="fill: #1f77b4"/>
     <use xlink:href="#m885dc942b7" x="61.485207" y="135.850697" style="fill: #1f77b4"/>
     <use xlink:href="#m885dc942b7" x="85.323832" y="136.297125" style="fill: #1f77b4"/>
     <use xlink:href="#m885dc942b7" x="249.558288" y="178.694489" style="fill: #1f77b4"/>
     <use xlink:href="#m885dc942b7" x="54.700112" y="172.719534" style="fill: #1f77b4"/>
     <use xlink:href="#m885dc942b7" x="65.04842" y="157.228066" style="fill: #1f77b4"/>
     <use xlink:href="#m885dc942b7" x="86.186828" y="178.240006" style="fill: #1f77b4"/>
     <use xlink:href="#m885dc942b7" x="74.982408" y="171.343799" style="fill: #1f77b4"/>
     <use xlink:href="#m885dc942b7" x="94.620585" y="160.916991" style="fill: #1f77b4"/>
     <use xlink:href="#m885dc942b7" x="162.930525" y="137.993726" style="fill: #1f77b4"/>
     <use xlink:href="#m885dc942b7" x="59.780282" y="178.806499" style="fill: #1f77b4"/>
     <use xlink:href="#m885dc942b7" x="106.348583" y="174.438002" style="fill: #1f77b4"/>
     <use xlink:href="#m885dc942b7" x="46.203819" y="134.559569" style="fill: #1f77b4"/>
     <use xlink:href="#m885dc942b7" x="114.265221" y="160.029389" style="fill: #1f77b4"/>
     <use xlink:href="#m885dc942b7" x="65.565393" y="164.761001" style="fill: #1f77b4"/>
     <use xlink:href="#m885dc942b7" x="119.570036" y="176.560573" style="fill: #1f77b4"/>
     <use xlink:href="#m885dc942b7" x="165.03028" y="138.960843" style="fill: #1f77b4"/>
     <use xlink:href="#m885dc942b7" x="182.213122" y="136.498128" style="fill: #1f77b4"/>
     <use xlink:href="#m885dc942b7" x="60.772414" y="147.469476" style="fill: #1f77b4"/>
     <use xlink:href="#m885dc942b7" x="61.324741" y="178.716934" style="fill: #1f77b4"/>
     <use xlink:href="#m885dc942b7" x="54.582189" y="137.015671" style="fill: #1f77b4"/>
     <use xlink:href="#m885dc942b7" x="48.24441" y="157.260963" style="fill: #1f77b4"/>
     <use xlink:href="#m885dc942b7" x="104.094928" y="172.692153" style="fill: #1f77b4"/>
     <use xlink:href="#m885dc942b7" x="180.027088" y="173.455658" style="fill: #1f77b4"/>
     <use xlink:href="#m885dc942b7" x="127.472643" y="151.166253" style="fill: #1f77b4"/>
     <use xlink:href="#m885dc942b7" x="117.737636" y="145.257555" style="fill: #1f77b4"/>
     <use xlink:href="#m885dc942b7" x="173.286573" y="135.473564" style="fill: #1f77b4"/>
     <use xlink:href="#m885dc942b7" x="47.154249" y="173.968745" style="fill: #1f77b4"/>
     <use xlink:href="#m885dc942b7" x="227.102756" y="174.037293" style="fill: #1f77b4"/>
     <use xlink:href="#m885dc942b7" x="76.424876" y="144.002426" style="fill: #1f77b4"/>
     <use xlink:href="#m885dc942b7" x="69.553145" y="129.681107" style="fill: #1f77b4"/>
     <use xlink:href="#m885dc942b7" x="50.285141" y="164.70561" style="fill: #1f77b4"/>
     <use xlink:href="#m885dc942b7" x="195.680768" y="148.594705" style="fill: #1f77b4"/>
     <use xlink:href="#m885dc942b7" x="104.527469" y="130.0117" style="fill: #1f77b4"/>
     <use xlink:href="#m885dc942b7" x="58.60467" y="169.385227" style="fill: #1f77b4"/>
     <use xlink:href="#m885dc942b7" x="75.682372" y="166.93082" style="fill: #1f77b4"/>
     <use xlink:href="#m885dc942b7" x="146.690775" y="150.804213" style="fill: #1f77b4"/>
     <use xlink:href="#m885dc942b7" x="63.236743" y="174.267833" style="fill: #1f77b4"/>
     <use xlink:href="#m885dc942b7" x="111.892918" y="149.34746" style="fill: #1f77b4"/>
     <use xlink:href="#m885dc942b7" x="80.992005" y="134.773188" style="fill: #1f77b4"/>
     <use xlink:href="#m885dc942b7" x="53.639422" y="179.526952" style="fill: #1f77b4"/>
     <use xlink:href="#m885dc942b7" x="83.992049" y="141.99172" style="fill: #1f77b4"/>
     <use xlink:href="#m885dc942b7" x="52.649381" y="138.046819" style="fill: #1f77b4"/>
     <use xlink:href="#m885dc942b7" x="87.481299" y="172.190563" style="fill: #1f77b4"/>
     <use xlink:href="#m885dc942b7" x="157.69565" y="165.481622" style="fill: #1f77b4"/>
     <use xlink:href="#m885dc942b7" x="56.691373" y="162.961298" style="fill: #1f77b4"/>
     <use xlink:href="#m885dc942b7" x="177.152735" y="164.807239" style="fill: #1f77b4"/>
     <use xlink:href="#m885dc942b7" x="147.935282" y="166.44919" style="fill: #1f77b4"/>
     <use xlink:href="#m885dc942b7" x="51.077206" y="135.76442" style="fill: #1f77b4"/>
     <use xlink:href="#m885dc942b7" x="105.744922" y="163.508619" style="fill: #1f77b4"/>
     <use xlink:href="#m885dc942b7" x="75.8099" y="167.339425" style="fill: #1f77b4"/>
     <use xlink:href="#m885dc942b7" x="228.17497" y="147.597167" style="fill: #1f77b4"/>
     <use xlink:href="#m885dc942b7" x="192.287412" y="138.892975" style="fill: #1f77b4"/>
     <use xlink:href="#m885dc942b7" x="56.02572" y="154.657493" style="fill: #1f77b4"/>
     <use xlink:href="#m885dc942b7" x="228.166007" y="157.180718" style="fill: #1f77b4"/>
     <use xlink:href="#m885dc942b7" x="102.808713" y="153.598258" style="fill: #1f77b4"/>
     <use xlink:href="#m885dc942b7" x="54.19129" y="128.905544" style="fill: #1f77b4"/>
     <use xlink:href="#m885dc942b7" x="55.989248" y="149.018548" style="fill: #1f77b4"/>
     <use xlink:href="#m885dc942b7" x="47.904718" y="129.891421" style="fill: #1f77b4"/>
     <use xlink:href="#m885dc942b7" x="76.516231" y="169.521792" style="fill: #1f77b4"/>
     <use xlink:href="#m885dc942b7" x="74.334994" y="181.662716" style="fill: #1f77b4"/>
     <use xlink:href="#m885dc942b7" x="144.936555" y="142.314385" style="fill: #1f77b4"/>
     <use xlink:href="#m885dc942b7" x="217.766636" y="157.886071" style="fill: #1f77b4"/>
     <use xlink:href="#m885dc942b7" x="72.654929" y="146.338215" style="fill: #1f77b4"/>
     <use xlink:href="#m885dc942b7" x="101.288036" y="145.206971" style="fill: #1f77b4"/>
     <use xlink:href="#m885dc942b7" x="97.510505" y="132.078524" style="fill: #1f77b4"/>
     <use xlink:href="#m885dc942b7" x="175.461568" y="145.964557" style="fill: #1f77b4"/>
     <use xlink:href="#m885dc942b7" x="337.653892" y="133.176391" style="fill: #1f77b4"/>
     <use xlink:href="#m885dc942b7" x="267.61357" y="130.612602" style="fill: #1f77b4"/>
     <use xlink:href="#m885dc942b7" x="279.99996" y="169.573196" style="fill: #1f77b4"/>
     <use xlink:href="#m885dc942b7" x="102.342018" y="130.51452" style="fill: #1f77b4"/>
     <use xlink:href="#m885dc942b7" x="141.019201" y="150.188766" style="fill: #1f77b4"/>
     <use xlink:href="#m885dc942b7" x="87.380842" y="172.551355" style="fill: #1f77b4"/>
     <use xlink:href="#m885dc942b7" x="60.978957" y="133.472599" style="fill: #1f77b4"/>
     <use xlink:href="#m885dc942b7" x="117.186161" y="147.722097" style="fill: #1f77b4"/>
     <use xlink:href="#m885dc942b7" x="368.765398" y="157.107546" style="fill: #1f77b4"/>
    </g>
   </g>
   <g id="text_12">
    <!-- Strip plots - Beef Consumption -->
    <g transform="translate(114.566875 16.318125) scale(0.12 -0.12)">
     <defs>
      <path id="DejaVuSans-53" d="M 3425 4513 
L 3425 3897 
Q 3066 4069 2747 4153 
Q 2428 4238 2131 4238 
Q 1616 4238 1336 4038 
Q 1056 3838 1056 3469 
Q 1056 3159 1242 3001 
Q 1428 2844 1947 2747 
L 2328 2669 
Q 3034 2534 3370 2195 
Q 3706 1856 3706 1288 
Q 3706 609 3251 259 
Q 2797 -91 1919 -91 
Q 1588 -91 1214 -16 
Q 841 59 441 206 
L 441 856 
Q 825 641 1194 531 
Q 1563 422 1919 422 
Q 2459 422 2753 634 
Q 3047 847 3047 1241 
Q 3047 1584 2836 1778 
Q 2625 1972 2144 2069 
L 1759 2144 
Q 1053 2284 737 2584 
Q 422 2884 422 3419 
Q 422 4038 858 4394 
Q 1294 4750 2059 4750 
Q 2388 4750 2728 4690 
Q 3069 4631 3425 4513 
z
" transform="scale(0.015625)"/>
      <path id="DejaVuSans-6c" d="M 603 4863 
L 1178 4863 
L 1178 0 
L 603 0 
L 603 4863 
z
" transform="scale(0.015625)"/>
      <path id="DejaVuSans-6f" d="M 1959 3097 
Q 1497 3097 1228 2736 
Q 959 2375 959 1747 
Q 959 1119 1226 758 
Q 1494 397 1959 397 
Q 2419 397 2687 759 
Q 2956 1122 2956 1747 
Q 2956 2369 2687 2733 
Q 2419 3097 1959 3097 
z
M 1959 3584 
Q 2709 3584 3137 3096 
Q 3566 2609 3566 1747 
Q 3566 888 3137 398 
Q 2709 -91 1959 -91 
Q 1206 -91 779 398 
Q 353 888 353 1747 
Q 353 2609 779 3096 
Q 1206 3584 1959 3584 
z
" transform="scale(0.015625)"/>
      <path id="DejaVuSans-73" d="M 2834 3397 
L 2834 2853 
Q 2591 2978 2328 3040 
Q 2066 3103 1784 3103 
Q 1356 3103 1142 2972 
Q 928 2841 928 2578 
Q 928 2378 1081 2264 
Q 1234 2150 1697 2047 
L 1894 2003 
Q 2506 1872 2764 1633 
Q 3022 1394 3022 966 
Q 3022 478 2636 193 
Q 2250 -91 1575 -91 
Q 1294 -91 989 -36 
Q 684 19 347 128 
L 347 722 
Q 666 556 975 473 
Q 1284 391 1588 391 
Q 1994 391 2212 530 
Q 2431 669 2431 922 
Q 2431 1156 2273 1281 
Q 2116 1406 1581 1522 
L 1381 1569 
Q 847 1681 609 1914 
Q 372 2147 372 2553 
Q 372 3047 722 3315 
Q 1072 3584 1716 3584 
Q 2034 3584 2315 3537 
Q 2597 3491 2834 3397 
z
" transform="scale(0.015625)"/>
      <path id="DejaVuSans-2d" d="M 313 2009 
L 1997 2009 
L 1997 1497 
L 313 1497 
L 313 2009 
z
" transform="scale(0.015625)"/>
      <path id="DejaVuSans-43" d="M 4122 4306 
L 4122 3641 
Q 3803 3938 3442 4084 
Q 3081 4231 2675 4231 
Q 1875 4231 1450 3742 
Q 1025 3253 1025 2328 
Q 1025 1406 1450 917 
Q 1875 428 2675 428 
Q 3081 428 3442 575 
Q 3803 722 4122 1019 
L 4122 359 
Q 3791 134 3420 21 
Q 3050 -91 2638 -91 
Q 1578 -91 968 557 
Q 359 1206 359 2328 
Q 359 3453 968 4101 
Q 1578 4750 2638 4750 
Q 3056 4750 3426 4639 
Q 3797 4528 4122 4306 
z
" transform="scale(0.015625)"/>
      <path id="DejaVuSans-6e" d="M 3513 2113 
L 3513 0 
L 2938 0 
L 2938 2094 
Q 2938 2591 2744 2837 
Q 2550 3084 2163 3084 
Q 1697 3084 1428 2787 
Q 1159 2491 1159 1978 
L 1159 0 
L 581 0 
L 581 3500 
L 1159 3500 
L 1159 2956 
Q 1366 3272 1645 3428 
Q 1925 3584 2291 3584 
Q 2894 3584 3203 3211 
Q 3513 2838 3513 2113 
z
" transform="scale(0.015625)"/>
      <path id="DejaVuSans-75" d="M 544 1381 
L 544 3500 
L 1119 3500 
L 1119 1403 
Q 1119 906 1312 657 
Q 1506 409 1894 409 
Q 2359 409 2629 706 
Q 2900 1003 2900 1516 
L 2900 3500 
L 3475 3500 
L 3475 0 
L 2900 0 
L 2900 538 
Q 2691 219 2414 64 
Q 2138 -91 1772 -91 
Q 1169 -91 856 284 
Q 544 659 544 1381 
z
M 1991 3584 
L 1991 3584 
z
" transform="scale(0.015625)"/>
      <path id="DejaVuSans-6d" d="M 3328 2828 
Q 3544 3216 3844 3400 
Q 4144 3584 4550 3584 
Q 5097 3584 5394 3201 
Q 5691 2819 5691 2113 
L 5691 0 
L 5113 0 
L 5113 2094 
Q 5113 2597 4934 2840 
Q 4756 3084 4391 3084 
Q 3944 3084 3684 2787 
Q 3425 2491 3425 1978 
L 3425 0 
L 2847 0 
L 2847 2094 
Q 2847 2600 2669 2842 
Q 2491 3084 2119 3084 
Q 1678 3084 1418 2786 
Q 1159 2488 1159 1978 
L 1159 0 
L 581 0 
L 581 3500 
L 1159 3500 
L 1159 2956 
Q 1356 3278 1631 3431 
Q 1906 3584 2284 3584 
Q 2666 3584 2933 3390 
Q 3200 3197 3328 2828 
z
" transform="scale(0.015625)"/>
     </defs>
     <use xlink:href="#DejaVuSans-53"/>
     <use xlink:href="#DejaVuSans-74" x="63.476562"/>
     <use xlink:href="#DejaVuSans-72" x="102.685547"/>
     <use xlink:href="#DejaVuSans-69" x="143.798828"/>
     <use xlink:href="#DejaVuSans-70" x="171.582031"/>
     <use xlink:href="#DejaVuSans-20" x="235.058594"/>
     <use xlink:href="#DejaVuSans-70" x="266.845703"/>
     <use xlink:href="#DejaVuSans-6c" x="330.322266"/>
     <use xlink:href="#DejaVuSans-6f" x="358.105469"/>
     <use xlink:href="#DejaVuSans-74" x="419.287109"/>
     <use xlink:href="#DejaVuSans-73" x="458.496094"/>
     <use xlink:href="#DejaVuSans-20" x="510.595703"/>
     <use xlink:href="#DejaVuSans-2d" x="542.382812"/>
     <use xlink:href="#DejaVuSans-20" x="578.466797"/>
     <use xlink:href="#DejaVuSans-42" x="610.253906"/>
     <use xlink:href="#DejaVuSans-65" x="678.857422"/>
     <use xlink:href="#DejaVuSans-65" x="740.380859"/>
     <use xlink:href="#DejaVuSans-66" x="801.904297"/>
     <use xlink:href="#DejaVuSans-20" x="837.109375"/>
     <use xlink:href="#DejaVuSans-43" x="868.896484"/>
     <use xlink:href="#DejaVuSans-6f" x="938.720703"/>
     <use xlink:href="#DejaVuSans-6e" x="999.902344"/>
     <use xlink:href="#DejaVuSans-73" x="1063.28125"/>
     <use xlink:href="#DejaVuSans-75" x="1115.380859"/>
     <use xlink:href="#DejaVuSans-6d" x="1178.759766"/>
     <use xlink:href="#DejaVuSans-70" x="1276.171875"/>
     <use xlink:href="#DejaVuSans-74" x="1339.648438"/>
     <use xlink:href="#DejaVuSans-69" x="1378.857422"/>
     <use xlink:href="#DejaVuSans-6f" x="1406.640625"/>
     <use xlink:href="#DejaVuSans-6e" x="1467.822266"/>
    </g>
   </g>
  </g>
 </g>
 <defs>
  <clipPath id="p17b2473421">
   <rect x="27.878125" y="22.318125" width="357.12" height="266.112"/>
  </clipPath>
 </defs>
</svg>
