<?xml version="1.0" encoding="utf-8" standalone="no"?>
<!DOCTYPE svg PUBLIC "-//W3C//DTD SVG 1.1//EN"
  "http://www.w3.org/Graphics/SVG/1.1/DTD/svg11.dtd">
<svg xmlns:xlink="http://www.w3.org/1999/xlink" width="392.198125pt" height="325.986375pt" viewBox="0 0 392.198125 325.986375" xmlns="http://www.w3.org/2000/svg" version="1.1">
 <metadata>
  <rdf:RDF xmlns:dc="http://purl.org/dc/elements/1.1/" xmlns:cc="http://creativecommons.org/ns#" xmlns:rdf="http://www.w3.org/1999/02/22-rdf-syntax-ns#">
   <cc:Work>
    <dc:type rdf:resource="http://purl.org/dc/dcmitype/StillImage"/>
    <dc:date>2024-03-09T17:02:59.754211</dc:date>
    <dc:format>image/svg+xml</dc:format>
    <dc:creator>
     <cc:Agent>
      <dc:title>Matplotlib v3.7.0, https://matplotlib.org/</dc:title>
     </cc:Agent>
    </dc:creator>
   </cc:Work>
  </rdf:RDF>
 </metadata>
 <defs>
  <style type="text/css">*{stroke-linejoin: round; stroke-linecap: butt}</style>
 </defs>
 <g id="figure_1">
  <g id="patch_1">
   <path d="M 0 325.986375 
L 392.198125 325.986375 
L 392.198125 0 
L 0 0 
L 0 325.986375 
z
" style="fill: none"/>
  </g>
  <g id="axes_1">
   <g id="patch_2">
    <path d="M 27.878125 288.430125 
L 384.998125 288.430125 
L 384.998125 22.318125 
L 27.878125 22.318125 
L 27.878125 288.430125 
z
" style="fill: none"/>
   </g>
   <g id="matplotlib.axis_1">
    <g id="xtick_1">
     <g id="line2d_1">
      <defs>
       <path id="m6b6b85fe5e" d="M 0 0 
L 0 3.5 
" style="stroke: #000000; stroke-width: 0.8"/>
      </defs>
      <g>
       <use xlink:href="#m6b6b85fe5e" x="42.692772" y="288.430125" style="stroke: #000000; stroke-width: 0.8"/>
      </g>
     </g>
     <g id="text_1">
      <!-- 0 -->
      <g transform="translate(39.511522 303.028562) scale(0.1 -0.1)">
       <defs>
        <path id="DejaVuSans-30" d="M 2034 4250 
Q 1547 4250 1301 3770 
Q 1056 3291 1056 2328 
Q 1056 1369 1301 889 
Q 1547 409 2034 409 
Q 2525 409 2770 889 
Q 3016 1369 3016 2328 
Q 3016 3291 2770 3770 
Q 2525 4250 2034 4250 
z
M 2034 4750 
Q 2819 4750 3233 4129 
Q 3647 3509 3647 2328 
Q 3647 1150 3233 529 
Q 2819 -91 2034 -91 
Q 1250 -91 836 529 
Q 422 1150 422 2328 
Q 422 3509 836 4129 
Q 1250 4750 2034 4750 
z
" transform="scale(0.015625)"/>
       </defs>
       <use xlink:href="#DejaVuSans-30"/>
      </g>
     </g>
    </g>
    <g id="xtick_2">
     <g id="line2d_2">
      <g>
       <use xlink:href="#m6b6b85fe5e" x="118.797184" y="288.430125" style="stroke: #000000; stroke-width: 0.8"/>
      </g>
     </g>
     <g id="text_2">
      <!-- 20 -->
      <g transform="translate(112.434684 303.028562) scale(0.1 -0.1)">
       <defs>
        <path id="DejaVuSans-32" d="M 1228 531 
L 3431 531 
L 3431 0 
L 469 0 
L 469 531 
Q 828 903 1448 1529 
Q 2069 2156 2228 2338 
Q 2531 2678 2651 2914 
Q 2772 3150 2772 3378 
Q 2772 3750 2511 3984 
Q 2250 4219 1831 4219 
Q 1534 4219 1204 4116 
Q 875 4013 500 3803 
L 500 4441 
Q 881 4594 1212 4672 
Q 1544 4750 1819 4750 
Q 2544 4750 2975 4387 
Q 3406 4025 3406 3419 
Q 3406 3131 3298 2873 
Q 3191 2616 2906 2266 
Q 2828 2175 2409 1742 
Q 1991 1309 1228 531 
z
" transform="scale(0.015625)"/>
       </defs>
       <use xlink:href="#DejaVuSans-32"/>
       <use xlink:href="#DejaVuSans-30" x="63.623047"/>
      </g>
     </g>
    </g>
    <g id="xtick_3">
     <g id="line2d_3">
      <g>
       <use xlink:href="#m6b6b85fe5e" x="194.901596" y="288.430125" style="stroke: #000000; stroke-width: 0.8"/>
      </g>
     </g>
     <g id="text_3">
      <!-- 40 -->
      <g transform="translate(188.539096 303.028562) scale(0.1 -0.1)">
       <defs>
        <path id="DejaVuSans-34" d="M 2419 4116 
L 825 1625 
L 2419 1625 
L 2419 4116 
z
M 2253 4666 
L 3047 4666 
L 3047 1625 
L 3713 1625 
L 3713 1100 
L 3047 1100 
L 3047 0 
L 2419 0 
L 2419 1100 
L 313 1100 
L 313 1709 
L 2253 4666 
z
" transform="scale(0.015625)"/>
       </defs>
       <use xlink:href="#DejaVuSans-34"/>
       <use xlink:href="#DejaVuSans-30" x="63.623047"/>
      </g>
     </g>
    </g>
    <g id="xtick_4">
     <g id="line2d_4">
      <g>
       <use xlink:href="#m6b6b85fe5e" x="271.006008" y="288.430125" style="stroke: #000000; stroke-width: 0.8"/>
      </g>
     </g>
     <g id="text_4">
      <!-- 60 -->
      <g transform="translate(264.643508 303.028562) scale(0.1 -0.1)">
       <defs>
        <path id="DejaVuSans-36" d="M 2113 2584 
Q 1688 2584 1439 2293 
Q 1191 2003 1191 1497 
Q 1191 994 1439 701 
Q 1688 409 2113 409 
Q 2538 409 2786 701 
Q 3034 994 3034 1497 
Q 3034 2003 2786 2293 
Q 2538 2584 2113 2584 
z
M 3366 4563 
L 3366 3988 
Q 3128 4100 2886 4159 
Q 2644 4219 2406 4219 
Q 1781 4219 1451 3797 
Q 1122 3375 1075 2522 
Q 1259 2794 1537 2939 
Q 1816 3084 2150 3084 
Q 2853 3084 3261 2657 
Q 3669 2231 3669 1497 
Q 3669 778 3244 343 
Q 2819 -91 2113 -91 
Q 1303 -91 875 529 
Q 447 1150 447 2328 
Q 447 3434 972 4092 
Q 1497 4750 2381 4750 
Q 2619 4750 2861 4703 
Q 3103 4656 3366 4563 
z
" transform="scale(0.015625)"/>
       </defs>
       <use xlink:href="#DejaVuSans-36"/>
       <use xlink:href="#DejaVuSans-30" x="63.623047"/>
      </g>
     </g>
    </g>
    <g id="xtick_5">
     <g id="line2d_5">
      <g>
       <use xlink:href="#m6b6b85fe5e" x="347.11042" y="288.430125" style="stroke: #000000; stroke-width: 0.8"/>
      </g>
     </g>
     <g id="text_5">
      <!-- 80 -->
      <g transform="translate(340.74792 303.028562) scale(0.1 -0.1)">
       <defs>
        <path id="DejaVuSans-38" d="M 2034 2216 
Q 1584 2216 1326 1975 
Q 1069 1734 1069 1313 
Q 1069 891 1326 650 
Q 1584 409 2034 409 
Q 2484 409 2743 651 
Q 3003 894 3003 1313 
Q 3003 1734 2745 1975 
Q 2488 2216 2034 2216 
z
M 1403 2484 
Q 997 2584 770 2862 
Q 544 3141 544 3541 
Q 544 4100 942 4425 
Q 1341 4750 2034 4750 
Q 2731 4750 3128 4425 
Q 3525 4100 3525 3541 
Q 3525 3141 3298 2862 
Q 3072 2584 2669 2484 
Q 3125 2378 3379 2068 
Q 3634 1759 3634 1313 
Q 3634 634 3220 271 
Q 2806 -91 2034 -91 
Q 1263 -91 848 271 
Q 434 634 434 1313 
Q 434 1759 690 2068 
Q 947 2378 1403 2484 
z
M 1172 3481 
Q 1172 3119 1398 2916 
Q 1625 2713 2034 2713 
Q 2441 2713 2670 2916 
Q 2900 3119 2900 3481 
Q 2900 3844 2670 4047 
Q 2441 4250 2034 4250 
Q 1625 4250 1398 4047 
Q 1172 3844 1172 3481 
z
" transform="scale(0.015625)"/>
       </defs>
       <use xlink:href="#DejaVuSans-38"/>
       <use xlink:href="#DejaVuSans-30" x="63.623047"/>
      </g>
     </g>
    </g>
    <g id="text_6">
     <!-- Fish &amp; seafood Kgpercapita (2019) -->
     <g transform="translate(120.034219 316.706687) scale(0.1 -0.1)">
      <defs>
       <path id="DejaVuSans-46" d="M 628 4666 
L 3309 4666 
L 3309 4134 
L 1259 4134 
L 1259 2759 
L 3109 2759 
L 3109 2228 
L 1259 2228 
L 1259 0 
L 628 0 
L 628 4666 
z
" transform="scale(0.015625)"/>
       <path id="DejaVuSans-69" d="M 603 3500 
L 1178 3500 
L 1178 0 
L 603 0 
L 603 3500 
z
M 603 4863 
L 1178 4863 
L 1178 4134 
L 603 4134 
L 603 4863 
z
" transform="scale(0.015625)"/>
       <path id="DejaVuSans-73" d="M 2834 3397 
L 2834 2853 
Q 2591 2978 2328 3040 
Q 2066 3103 1784 3103 
Q 1356 3103 1142 2972 
Q 928 2841 928 2578 
Q 928 2378 1081 2264 
Q 1234 2150 1697 2047 
L 1894 2003 
Q 2506 1872 2764 1633 
Q 3022 1394 3022 966 
Q 3022 478 2636 193 
Q 2250 -91 1575 -91 
Q 1294 -91 989 -36 
Q 684 19 347 128 
L 347 722 
Q 666 556 975 473 
Q 1284 391 1588 391 
Q 1994 391 2212 530 
Q 2431 669 2431 922 
Q 2431 1156 2273 1281 
Q 2116 1406 1581 1522 
L 1381 1569 
Q 847 1681 609 1914 
Q 372 2147 372 2553 
Q 372 3047 722 3315 
Q 1072 3584 1716 3584 
Q 2034 3584 2315 3537 
Q 2597 3491 2834 3397 
z
" transform="scale(0.015625)"/>
       <path id="DejaVuSans-68" d="M 3513 2113 
L 3513 0 
L 2938 0 
L 2938 2094 
Q 2938 2591 2744 2837 
Q 2550 3084 2163 3084 
Q 1697 3084 1428 2787 
Q 1159 2491 1159 1978 
L 1159 0 
L 581 0 
L 581 4863 
L 1159 4863 
L 1159 2956 
Q 1366 3272 1645 3428 
Q 1925 3584 2291 3584 
Q 2894 3584 3203 3211 
Q 3513 2838 3513 2113 
z
" transform="scale(0.015625)"/>
       <path id="DejaVuSans-20" transform="scale(0.015625)"/>
       <path id="DejaVuSans-26" d="M 1556 2509 
Q 1272 2256 1139 2004 
Q 1006 1753 1006 1478 
Q 1006 1022 1337 719 
Q 1669 416 2169 416 
Q 2466 416 2725 514 
Q 2984 613 3213 813 
L 1556 2509 
z
M 1997 2859 
L 3584 1234 
Q 3769 1513 3872 1830 
Q 3975 2147 3994 2503 
L 4575 2503 
Q 4538 2091 4375 1687 
Q 4213 1284 3922 891 
L 4794 0 
L 4006 0 
L 3559 459 
Q 3234 181 2878 45 
Q 2522 -91 2113 -91 
Q 1359 -91 881 339 
Q 403 769 403 1441 
Q 403 1841 612 2192 
Q 822 2544 1241 2853 
Q 1091 3050 1012 3245 
Q 934 3441 934 3628 
Q 934 4134 1281 4442 
Q 1628 4750 2203 4750 
Q 2463 4750 2720 4694 
Q 2978 4638 3244 4525 
L 3244 3956 
Q 2972 4103 2725 4179 
Q 2478 4256 2266 4256 
Q 1938 4256 1733 4082 
Q 1528 3909 1528 3634 
Q 1528 3475 1620 3314 
Q 1713 3153 1997 2859 
z
" transform="scale(0.015625)"/>
       <path id="DejaVuSans-65" d="M 3597 1894 
L 3597 1613 
L 953 1613 
Q 991 1019 1311 708 
Q 1631 397 2203 397 
Q 2534 397 2845 478 
Q 3156 559 3463 722 
L 3463 178 
Q 3153 47 2828 -22 
Q 2503 -91 2169 -91 
Q 1331 -91 842 396 
Q 353 884 353 1716 
Q 353 2575 817 3079 
Q 1281 3584 2069 3584 
Q 2775 3584 3186 3129 
Q 3597 2675 3597 1894 
z
M 3022 2063 
Q 3016 2534 2758 2815 
Q 2500 3097 2075 3097 
Q 1594 3097 1305 2825 
Q 1016 2553 972 2059 
L 3022 2063 
z
" transform="scale(0.015625)"/>
       <path id="DejaVuSans-61" d="M 2194 1759 
Q 1497 1759 1228 1600 
Q 959 1441 959 1056 
Q 959 750 1161 570 
Q 1363 391 1709 391 
Q 2188 391 2477 730 
Q 2766 1069 2766 1631 
L 2766 1759 
L 2194 1759 
z
M 3341 1997 
L 3341 0 
L 2766 0 
L 2766 531 
Q 2569 213 2275 61 
Q 1981 -91 1556 -91 
Q 1019 -91 701 211 
Q 384 513 384 1019 
Q 384 1609 779 1909 
Q 1175 2209 1959 2209 
L 2766 2209 
L 2766 2266 
Q 2766 2663 2505 2880 
Q 2244 3097 1772 3097 
Q 1472 3097 1187 3025 
Q 903 2953 641 2809 
L 641 3341 
Q 956 3463 1253 3523 
Q 1550 3584 1831 3584 
Q 2591 3584 2966 3190 
Q 3341 2797 3341 1997 
z
" transform="scale(0.015625)"/>
       <path id="DejaVuSans-66" d="M 2375 4863 
L 2375 4384 
L 1825 4384 
Q 1516 4384 1395 4259 
Q 1275 4134 1275 3809 
L 1275 3500 
L 2222 3500 
L 2222 3053 
L 1275 3053 
L 1275 0 
L 697 0 
L 697 3053 
L 147 3053 
L 147 3500 
L 697 3500 
L 697 3744 
Q 697 4328 969 4595 
Q 1241 4863 1831 4863 
L 2375 4863 
z
" transform="scale(0.015625)"/>
       <path id="DejaVuSans-6f" d="M 1959 3097 
Q 1497 3097 1228 2736 
Q 959 2375 959 1747 
Q 959 1119 1226 758 
Q 1494 397 1959 397 
Q 2419 397 2687 759 
Q 2956 1122 2956 1747 
Q 2956 2369 2687 2733 
Q 2419 3097 1959 3097 
z
M 1959 3584 
Q 2709 3584 3137 3096 
Q 3566 2609 3566 1747 
Q 3566 888 3137 398 
Q 2709 -91 1959 -91 
Q 1206 -91 779 398 
Q 353 888 353 1747 
Q 353 2609 779 3096 
Q 1206 3584 1959 3584 
z
" transform="scale(0.015625)"/>
       <path id="DejaVuSans-64" d="M 2906 2969 
L 2906 4863 
L 3481 4863 
L 3481 0 
L 2906 0 
L 2906 525 
Q 2725 213 2448 61 
Q 2172 -91 1784 -91 
Q 1150 -91 751 415 
Q 353 922 353 1747 
Q 353 2572 751 3078 
Q 1150 3584 1784 3584 
Q 2172 3584 2448 3432 
Q 2725 3281 2906 2969 
z
M 947 1747 
Q 947 1113 1208 752 
Q 1469 391 1925 391 
Q 2381 391 2643 752 
Q 2906 1113 2906 1747 
Q 2906 2381 2643 2742 
Q 2381 3103 1925 3103 
Q 1469 3103 1208 2742 
Q 947 2381 947 1747 
z
" transform="scale(0.015625)"/>
       <path id="DejaVuSans-4b" d="M 628 4666 
L 1259 4666 
L 1259 2694 
L 3353 4666 
L 4166 4666 
L 1850 2491 
L 4331 0 
L 3500 0 
L 1259 2247 
L 1259 0 
L 628 0 
L 628 4666 
z
" transform="scale(0.015625)"/>
       <path id="DejaVuSans-67" d="M 2906 1791 
Q 2906 2416 2648 2759 
Q 2391 3103 1925 3103 
Q 1463 3103 1205 2759 
Q 947 2416 947 1791 
Q 947 1169 1205 825 
Q 1463 481 1925 481 
Q 2391 481 2648 825 
Q 2906 1169 2906 1791 
z
M 3481 434 
Q 3481 -459 3084 -895 
Q 2688 -1331 1869 -1331 
Q 1566 -1331 1297 -1286 
Q 1028 -1241 775 -1147 
L 775 -588 
Q 1028 -725 1275 -790 
Q 1522 -856 1778 -856 
Q 2344 -856 2625 -561 
Q 2906 -266 2906 331 
L 2906 616 
Q 2728 306 2450 153 
Q 2172 0 1784 0 
Q 1141 0 747 490 
Q 353 981 353 1791 
Q 353 2603 747 3093 
Q 1141 3584 1784 3584 
Q 2172 3584 2450 3431 
Q 2728 3278 2906 2969 
L 2906 3500 
L 3481 3500 
L 3481 434 
z
" transform="scale(0.015625)"/>
       <path id="DejaVuSans-70" d="M 1159 525 
L 1159 -1331 
L 581 -1331 
L 581 3500 
L 1159 3500 
L 1159 2969 
Q 1341 3281 1617 3432 
Q 1894 3584 2278 3584 
Q 2916 3584 3314 3078 
Q 3713 2572 3713 1747 
Q 3713 922 3314 415 
Q 2916 -91 2278 -91 
Q 1894 -91 1617 61 
Q 1341 213 1159 525 
z
M 3116 1747 
Q 3116 2381 2855 2742 
Q 2594 3103 2138 3103 
Q 1681 3103 1420 2742 
Q 1159 2381 1159 1747 
Q 1159 1113 1420 752 
Q 1681 391 2138 391 
Q 2594 391 2855 752 
Q 3116 1113 3116 1747 
z
" transform="scale(0.015625)"/>
       <path id="DejaVuSans-72" d="M 2631 2963 
Q 2534 3019 2420 3045 
Q 2306 3072 2169 3072 
Q 1681 3072 1420 2755 
Q 1159 2438 1159 1844 
L 1159 0 
L 581 0 
L 581 3500 
L 1159 3500 
L 1159 2956 
Q 1341 3275 1631 3429 
Q 1922 3584 2338 3584 
Q 2397 3584 2469 3576 
Q 2541 3569 2628 3553 
L 2631 2963 
z
" transform="scale(0.015625)"/>
       <path id="DejaVuSans-63" d="M 3122 3366 
L 3122 2828 
Q 2878 2963 2633 3030 
Q 2388 3097 2138 3097 
Q 1578 3097 1268 2742 
Q 959 2388 959 1747 
Q 959 1106 1268 751 
Q 1578 397 2138 397 
Q 2388 397 2633 464 
Q 2878 531 3122 666 
L 3122 134 
Q 2881 22 2623 -34 
Q 2366 -91 2075 -91 
Q 1284 -91 818 406 
Q 353 903 353 1747 
Q 353 2603 823 3093 
Q 1294 3584 2113 3584 
Q 2378 3584 2631 3529 
Q 2884 3475 3122 3366 
z
" transform="scale(0.015625)"/>
       <path id="DejaVuSans-74" d="M 1172 4494 
L 1172 3500 
L 2356 3500 
L 2356 3053 
L 1172 3053 
L 1172 1153 
Q 1172 725 1289 603 
Q 1406 481 1766 481 
L 2356 481 
L 2356 0 
L 1766 0 
Q 1100 0 847 248 
Q 594 497 594 1153 
L 594 3053 
L 172 3053 
L 172 3500 
L 594 3500 
L 594 4494 
L 1172 4494 
z
" transform="scale(0.015625)"/>
       <path id="DejaVuSans-28" d="M 1984 4856 
Q 1566 4138 1362 3434 
Q 1159 2731 1159 2009 
Q 1159 1288 1364 580 
Q 1569 -128 1984 -844 
L 1484 -844 
Q 1016 -109 783 600 
Q 550 1309 550 2009 
Q 550 2706 781 3412 
Q 1013 4119 1484 4856 
L 1984 4856 
z
" transform="scale(0.015625)"/>
       <path id="DejaVuSans-31" d="M 794 531 
L 1825 531 
L 1825 4091 
L 703 3866 
L 703 4441 
L 1819 4666 
L 2450 4666 
L 2450 531 
L 3481 531 
L 3481 0 
L 794 0 
L 794 531 
z
" transform="scale(0.015625)"/>
       <path id="DejaVuSans-39" d="M 703 97 
L 703 672 
Q 941 559 1184 500 
Q 1428 441 1663 441 
Q 2288 441 2617 861 
Q 2947 1281 2994 2138 
Q 2813 1869 2534 1725 
Q 2256 1581 1919 1581 
Q 1219 1581 811 2004 
Q 403 2428 403 3163 
Q 403 3881 828 4315 
Q 1253 4750 1959 4750 
Q 2769 4750 3195 4129 
Q 3622 3509 3622 2328 
Q 3622 1225 3098 567 
Q 2575 -91 1691 -91 
Q 1453 -91 1209 -44 
Q 966 3 703 97 
z
M 1959 2075 
Q 2384 2075 2632 2365 
Q 2881 2656 2881 3163 
Q 2881 3666 2632 3958 
Q 2384 4250 1959 4250 
Q 1534 4250 1286 3958 
Q 1038 3666 1038 3163 
Q 1038 2656 1286 2365 
Q 1534 2075 1959 2075 
z
" transform="scale(0.015625)"/>
       <path id="DejaVuSans-29" d="M 513 4856 
L 1013 4856 
Q 1481 4119 1714 3412 
Q 1947 2706 1947 2009 
Q 1947 1309 1714 600 
Q 1481 -109 1013 -844 
L 513 -844 
Q 928 -128 1133 580 
Q 1338 1288 1338 2009 
Q 1338 2731 1133 3434 
Q 928 4138 513 4856 
z
" transform="scale(0.015625)"/>
      </defs>
      <use xlink:href="#DejaVuSans-46"/>
      <use xlink:href="#DejaVuSans-69" x="50.269531"/>
      <use xlink:href="#DejaVuSans-73" x="78.052734"/>
      <use xlink:href="#DejaVuSans-68" x="130.152344"/>
      <use xlink:href="#DejaVuSans-20" x="193.53125"/>
      <use xlink:href="#DejaVuSans-26" x="225.318359"/>
      <use xlink:href="#DejaVuSans-20" x="303.296875"/>
      <use xlink:href="#DejaVuSans-73" x="335.083984"/>
      <use xlink:href="#DejaVuSans-65" x="387.183594"/>
      <use xlink:href="#DejaVuSans-61" x="448.707031"/>
      <use xlink:href="#DejaVuSans-66" x="509.986328"/>
      <use xlink:href="#DejaVuSans-6f" x="545.191406"/>
      <use xlink:href="#DejaVuSans-6f" x="606.373047"/>
      <use xlink:href="#DejaVuSans-64" x="667.554688"/>
      <use xlink:href="#DejaVuSans-20" x="731.03125"/>
      <use xlink:href="#DejaVuSans-4b" x="762.818359"/>
      <use xlink:href="#DejaVuSans-67" x="828.394531"/>
      <use xlink:href="#DejaVuSans-70" x="891.871094"/>
      <use xlink:href="#DejaVuSans-65" x="955.347656"/>
      <use xlink:href="#DejaVuSans-72" x="1016.871094"/>
      <use xlink:href="#DejaVuSans-63" x="1055.734375"/>
      <use xlink:href="#DejaVuSans-61" x="1110.714844"/>
      <use xlink:href="#DejaVuSans-70" x="1171.994141"/>
      <use xlink:href="#DejaVuSans-69" x="1235.470703"/>
      <use xlink:href="#DejaVuSans-74" x="1263.253906"/>
      <use xlink:href="#DejaVuSans-61" x="1302.462891"/>
      <use xlink:href="#DejaVuSans-20" x="1363.742188"/>
      <use xlink:href="#DejaVuSans-28" x="1395.529297"/>
      <use xlink:href="#DejaVuSans-32" x="1434.542969"/>
      <use xlink:href="#DejaVuSans-30" x="1498.166016"/>
      <use xlink:href="#DejaVuSans-31" x="1561.789062"/>
      <use xlink:href="#DejaVuSans-39" x="1625.412109"/>
      <use xlink:href="#DejaVuSans-29" x="1689.035156"/>
     </g>
    </g>
   </g>
   <g id="matplotlib.axis_2">
    <g id="ytick_1">
     <g id="line2d_6">
      <defs>
       <path id="mdd7b3b98d9" d="M 0 0 
L -3.5 0 
" style="stroke: #000000; stroke-width: 0.8"/>
      </defs>
      <g>
       <use xlink:href="#mdd7b3b98d9" x="27.878125" y="155.374125" style="stroke: #000000; stroke-width: 0.8"/>
      </g>
     </g>
    </g>
    <g id="text_7">
     <!-- Fish -->
     <g transform="translate(14.798438 165.049906) rotate(-90) scale(0.1 -0.1)">
      <use xlink:href="#DejaVuSans-46"/>
      <use xlink:href="#DejaVuSans-69" x="50.269531"/>
      <use xlink:href="#DejaVuSans-73" x="78.052734"/>
      <use xlink:href="#DejaVuSans-68" x="130.152344"/>
     </g>
    </g>
   </g>
   <g id="patch_3">
    <path d="M 27.878125 288.430125 
L 27.878125 22.318125 
" style="fill: none; stroke: #000000; stroke-width: 0.8; stroke-linejoin: miter; stroke-linecap: square"/>
   </g>
   <g id="patch_4">
    <path d="M 384.998125 288.430125 
L 384.998125 22.318125 
" style="fill: none; stroke: #000000; stroke-width: 0.8; stroke-linejoin: miter; stroke-linecap: square"/>
   </g>
   <g id="patch_5">
    <path d="M 27.878125 288.430125 
L 384.998125 288.430125 
" style="fill: none; stroke: #000000; stroke-width: 0.8; stroke-linejoin: miter; stroke-linecap: square"/>
   </g>
   <g id="patch_6">
    <path d="M 27.878125 22.318125 
L 384.998125 22.318125 
" style="fill: none; stroke: #000000; stroke-width: 0.8; stroke-linejoin: miter; stroke-linecap: square"/>
   </g>
   <g id="PathCollection_1">
    <defs>
     <path id="m066840886e" d="M 0 2.5 
C 0.663008 2.5 1.29895 2.236584 1.767767 1.767767 
C 2.236584 1.29895 2.5 0.663008 2.5 0 
C 2.5 -0.663008 2.236584 -1.29895 1.767767 -1.767767 
C 1.29895 -2.236584 0.663008 -2.5 0 -2.5 
C -0.663008 -2.5 -1.29895 -2.236584 -1.767767 -1.767767 
C -2.236584 -1.29895 -2.5 -0.663008 -2.5 0 
C -2.5 0.663008 -2.236584 1.29895 -1.767767 1.767767 
C -1.29895 2.236584 -0.663008 2.5 0 2.5 
z
"/>
    </defs>
    <g clip-path="url(#p384c8b7dbe)">
     <use xlink:href="#m066840886e" x="44.110852" y="129.459944" style="fill: #1f77b4"/>
     <use xlink:href="#m066840886e" x="75.650381" y="165.739995" style="fill: #1f77b4"/>
     <use xlink:href="#m066840886e" x="57.462142" y="131.148159" style="fill: #1f77b4"/>
     <use xlink:href="#m066840886e" x="97.341813" y="158.269099" style="fill: #1f77b4"/>
     <use xlink:href="#m066840886e" x="64.59905" y="175.403847" style="fill: #1f77b4"/>
     <use xlink:href="#m066840886e" x="134.90074" y="142.883792" style="fill: #1f77b4"/>
     <use xlink:href="#m066840886e" x="97.836617" y="147.392193" style="fill: #1f77b4"/>
     <use xlink:href="#m066840886e" x="50.389776" y="177.961447" style="fill: #1f77b4"/>
     <use xlink:href="#m066840886e" x="132.225138" y="174.263965" style="fill: #1f77b4"/>
     <use xlink:href="#m066840886e" x="113.243023" y="151.262753" style="fill: #1f77b4"/>
     <use xlink:href="#m066840886e" x="143.825513" y="129.70867" style="fill: #1f77b4"/>
     <use xlink:href="#m066840886e" x="209.992169" y="161.0286" style="fill: #1f77b4"/>
     <use xlink:href="#m066840886e" x="86.714726" y="130.388838" style="fill: #1f77b4"/>
     <use xlink:href="#m066840886e" x="129.668577" y="168.547078" style="fill: #1f77b4"/>
     <use xlink:href="#m066840886e" x="94.227883" y="133.852009" style="fill: #1f77b4"/>
     <use xlink:href="#m066840886e" x="103.600476" y="176.284192" style="fill: #1f77b4"/>
     <use xlink:href="#m066840886e" x="70.690811" y="175.395309" style="fill: #1f77b4"/>
     <use xlink:href="#m066840886e" x="53.257153" y="166.401425" style="fill: #1f77b4"/>
     <use xlink:href="#m066840886e" x="69.678272" y="170.859906" style="fill: #1f77b4"/>
     <use xlink:href="#m066840886e" x="51.950852" y="141.365365" style="fill: #1f77b4"/>
     <use xlink:href="#m066840886e" x="73.522091" y="131.505233" style="fill: #1f77b4"/>
     <use xlink:href="#m066840886e" x="70.302199" y="167.487406" style="fill: #1f77b4"/>
     <use xlink:href="#m066840886e" x="76.536986" y="170.580026" style="fill: #1f77b4"/>
     <use xlink:href="#m066840886e" x="52.595118" y="147.27868" style="fill: #1f77b4"/>
     <use xlink:href="#m066840886e" x="222.253388" y="133.732703" style="fill: #1f77b4"/>
     <use xlink:href="#m066840886e" x="117.661695" y="159.822444" style="fill: #1f77b4"/>
     <use xlink:href="#m066840886e" x="122.061367" y="150.521481" style="fill: #1f77b4"/>
     <use xlink:href="#m066840886e" x="68.689155" y="167.176665" style="fill: #1f77b4"/>
     <use xlink:href="#m066840886e" x="68.241855" y="176.44192" style="fill: #1f77b4"/>
     <use xlink:href="#m066840886e" x="99.130156" y="141.434239" style="fill: #1f77b4"/>
     <use xlink:href="#m066840886e" x="196.522924" y="178.340458" style="fill: #1f77b4"/>
     <use xlink:href="#m066840886e" x="77.005336" y="178.998817" style="fill: #1f77b4"/>
     <use xlink:href="#m066840886e" x="102.537788" y="159.002979" style="fill: #1f77b4"/>
     <use xlink:href="#m066840886e" x="111.104295" y="169.593618" style="fill: #1f77b4"/>
     <use xlink:href="#m066840886e" x="131.651923" y="180.306508" style="fill: #1f77b4"/>
     <use xlink:href="#m066840886e" x="65.786604" y="148.087549" style="fill: #1f77b4"/>
     <use xlink:href="#m066840886e" x="137.930313" y="180.913228" style="fill: #1f77b4"/>
     <use xlink:href="#m066840886e" x="83.14802" y="147.024082" style="fill: #1f77b4"/>
     <use xlink:href="#m066840886e" x="58.48807" y="140.460842" style="fill: #1f77b4"/>
     <use xlink:href="#m066840886e" x="143.26516" y="135.408597" style="fill: #1f77b4"/>
     <use xlink:href="#m066840886e" x="55.006991" y="162.631341" style="fill: #1f77b4"/>
     <use xlink:href="#m066840886e" x="74.912743" y="144.292891" style="fill: #1f77b4"/>
     <use xlink:href="#m066840886e" x="74.521178" y="178.053508" style="fill: #1f77b4"/>
     <use xlink:href="#m066840886e" x="142.551879" y="134.540588" style="fill: #1f77b4"/>
     <use xlink:href="#m066840886e" x="68.383055" y="165.697202" style="fill: #1f77b4"/>
     <use xlink:href="#m066840886e" x="98.418915" y="178.103902" style="fill: #1f77b4"/>
     <use xlink:href="#m066840886e" x="44.748197" y="138.138314" style="fill: #1f77b4"/>
     <use xlink:href="#m066840886e" x="152.861953" y="164.771312" style="fill: #1f77b4"/>
     <use xlink:href="#m066840886e" x="170.41287" y="135.006813" style="fill: #1f77b4"/>
     <use xlink:href="#m066840886e" x="170.842921" y="138.744782" style="fill: #1f77b4"/>
     <use xlink:href="#m066840886e" x="151.064184" y="165.239782" style="fill: #1f77b4"/>
     <use xlink:href="#m066840886e" x="134.98796" y="177.06079" style="fill: #1f77b4"/>
     <use xlink:href="#m066840886e" x="83.025051" y="168.832663" style="fill: #1f77b4"/>
     <use xlink:href="#m066840886e" x="90.96593" y="181.60934" style="fill: #1f77b4"/>
     <use xlink:href="#m066840886e" x="136.216023" y="177.31004" style="fill: #1f77b4"/>
     <use xlink:href="#m066840886e" x="124.141445" y="163.300069" style="fill: #1f77b4"/>
     <use xlink:href="#m066840886e" x="54.542833" y="150.192105" style="fill: #1f77b4"/>
     <use xlink:href="#m066840886e" x="80.35543" y="137.1712" style="fill: #1f77b4"/>
     <use xlink:href="#m066840886e" x="47.107139" y="145.691939" style="fill: #1f77b4"/>
     <use xlink:href="#m066840886e" x="136.254417" y="157.888238" style="fill: #1f77b4"/>
     <use xlink:href="#m066840886e" x="62.124264" y="164.351467" style="fill: #1f77b4"/>
     <use xlink:href="#m066840886e" x="52.486746" y="149.560672" style="fill: #1f77b4"/>
     <use xlink:href="#m066840886e" x="66.602788" y="158.188845" style="fill: #1f77b4"/>
     <use xlink:href="#m066840886e" x="368.765398" y="171.549418" style="fill: #1f77b4"/>
     <use xlink:href="#m066840886e" x="72.992659" y="129.656573" style="fill: #1f77b4"/>
     <use xlink:href="#m066840886e" x="214.246204" y="178.228636" style="fill: #1f77b4"/>
     <use xlink:href="#m066840886e" x="54.052326" y="169.379331" style="fill: #1f77b4"/>
     <use xlink:href="#m066840886e" x="129.287922" y="157.459431" style="fill: #1f77b4"/>
     <use xlink:href="#m066840886e" x="137.259037" y="151.468752" style="fill: #1f77b4"/>
     <use xlink:href="#m066840886e" x="155.064604" y="158.958961" style="fill: #1f77b4"/>
     <use xlink:href="#m066840886e" x="143.447239" y="169.650217" style="fill: #1f77b4"/>
     <use xlink:href="#m066840886e" x="219.450162" y="181.13413" style="fill: #1f77b4"/>
     <use xlink:href="#m066840886e" x="61.303929" y="181.036175" style="fill: #1f77b4"/>
     <use xlink:href="#m066840886e" x="53.194517" y="165.351585" style="fill: #1f77b4"/>
     <use xlink:href="#m066840886e" x="54.236375" y="156.837197" style="fill: #1f77b4"/>
     <use xlink:href="#m066840886e" x="46.939548" y="166.334742" style="fill: #1f77b4"/>
     <use xlink:href="#m066840886e" x="135.407725" y="167.835426" style="fill: #1f77b4"/>
     <use xlink:href="#m066840886e" x="136.35196" y="144.687152" style="fill: #1f77b4"/>
     <use xlink:href="#m066840886e" x="53.702283" y="136.024611" style="fill: #1f77b4"/>
     <use xlink:href="#m066840886e" x="59.274805" y="163.568767" style="fill: #1f77b4"/>
     <use xlink:href="#m066840886e" x="99.461553" y="161.733472" style="fill: #1f77b4"/>
     <use xlink:href="#m066840886e" x="162.84813" y="164.688886" style="fill: #1f77b4"/>
     <use xlink:href="#m066840886e" x="164.456327" y="152.30506" style="fill: #1f77b4"/>
     <use xlink:href="#m066840886e" x="57.862873" y="176.105242" style="fill: #1f77b4"/>
     <use xlink:href="#m066840886e" x="81.841764" y="134.933586" style="fill: #1f77b4"/>
     <use xlink:href="#m066840886e" x="248.086457" y="142.827808" style="fill: #1f77b4"/>
     <use xlink:href="#m066840886e" x="74.661743" y="151.748601" style="fill: #1f77b4"/>
     <use xlink:href="#m066840886e" x="76.751524" y="141.54505" style="fill: #1f77b4"/>
     <use xlink:href="#m066840886e" x="96.172617" y="180.793062" style="fill: #1f77b4"/>
     <use xlink:href="#m066840886e" x="100.286409" y="142.285577" style="fill: #1f77b4"/>
     <use xlink:href="#m066840886e" x="113.75793" y="143.170497" style="fill: #1f77b4"/>
     <use xlink:href="#m066840886e" x="95.458746" y="151.327779" style="fill: #1f77b4"/>
     <use xlink:href="#m066840886e" x="218.452449" y="155.449932" style="fill: #1f77b4"/>
     <use xlink:href="#m066840886e" x="89.559433" y="177.738877" style="fill: #1f77b4"/>
     <use xlink:href="#m066840886e" x="56.209726" y="140.889978" style="fill: #1f77b4"/>
     <use xlink:href="#m066840886e" x="124.787297" y="147.560041" style="fill: #1f77b4"/>
     <use xlink:href="#m066840886e" x="140.356555" y="165.844079" style="fill: #1f77b4"/>
     <use xlink:href="#m066840886e" x="67.772075" y="129.467775" style="fill: #1f77b4"/>
     <use xlink:href="#m066840886e" x="49.995283" y="164.46297" style="fill: #1f77b4"/>
     <use xlink:href="#m066840886e" x="68.721704" y="156.549956" style="fill: #1f77b4"/>
     <use xlink:href="#m066840886e" x="84.594701" y="176.673018" style="fill: #1f77b4"/>
     <use xlink:href="#m066840886e" x="65.979885" y="158.857123" style="fill: #1f77b4"/>
     <use xlink:href="#m066840886e" x="236.222856" y="176.720731" style="fill: #1f77b4"/>
     <use xlink:href="#m066840886e" x="152.755182" y="156.069127" style="fill: #1f77b4"/>
     <use xlink:href="#m066840886e" x="48.819113" y="160.037063" style="fill: #1f77b4"/>
     <use xlink:href="#m066840886e" x="95.759066" y="132.06836" style="fill: #1f77b4"/>
     <use xlink:href="#m066840886e" x="94.837015" y="161.662826" style="fill: #1f77b4"/>
     <use xlink:href="#m066840886e" x="59.359471" y="136.433278" style="fill: #1f77b4"/>
     <use xlink:href="#m066840886e" x="146.258631" y="154.262306" style="fill: #1f77b4"/>
     <use xlink:href="#m066840886e" x="152.49508" y="164.983308" style="fill: #1f77b4"/>
     <use xlink:href="#m066840886e" x="89.284703" y="132.13082" style="fill: #1f77b4"/>
     <use xlink:href="#m066840886e" x="268.759977" y="173.616103" style="fill: #1f77b4"/>
     <use xlink:href="#m066840886e" x="124.959868" y="155.649795" style="fill: #1f77b4"/>
     <use xlink:href="#m066840886e" x="134.905604" y="134.46385" style="fill: #1f77b4"/>
     <use xlink:href="#m066840886e" x="73.904618" y="163.517374" style="fill: #1f77b4"/>
     <use xlink:href="#m066840886e" x="125.41587" y="137.172165" style="fill: #1f77b4"/>
     <use xlink:href="#m066840886e" x="60.175063" y="181.502264" style="fill: #1f77b4"/>
     <use xlink:href="#m066840886e" x="174.214172" y="167.299594" style="fill: #1f77b4"/>
     <use xlink:href="#m066840886e" x="212.397289" y="157.403358" style="fill: #1f77b4"/>
     <use xlink:href="#m066840886e" x="150.147731" y="164.496425" style="fill: #1f77b4"/>
     <use xlink:href="#m066840886e" x="90.090295" y="138.14144" style="fill: #1f77b4"/>
     <use xlink:href="#m066840886e" x="138.867124" y="164.012114" style="fill: #1f77b4"/>
     <use xlink:href="#m066840886e" x="81.566" y="137.100841" style="fill: #1f77b4"/>
     <use xlink:href="#m066840886e" x="92.144791" y="181.184026" style="fill: #1f77b4"/>
     <use xlink:href="#m066840886e" x="151.328841" y="166.821771" style="fill: #1f77b4"/>
     <use xlink:href="#m066840886e" x="250.846748" y="170.508848" style="fill: #1f77b4"/>
     <use xlink:href="#m066840886e" x="196.7969" y="143.858579" style="fill: #1f77b4"/>
     <use xlink:href="#m066840886e" x="151.720158" y="175.627714" style="fill: #1f77b4"/>
     <use xlink:href="#m066840886e" x="47.101746" y="158.151669" style="fill: #1f77b4"/>
     <use xlink:href="#m066840886e" x="104.051269" y="144.235108" style="fill: #1f77b4"/>
     <use xlink:href="#m066840886e" x="163.127357" y="146.211216" style="fill: #1f77b4"/>
     <use xlink:href="#m066840886e" x="104.107594" y="177.624727" style="fill: #1f77b4"/>
     <use xlink:href="#m066840886e" x="49.932236" y="133.260641" style="fill: #1f77b4"/>
     <use xlink:href="#m066840886e" x="45.237904" y="167.024086" style="fill: #1f77b4"/>
     <use xlink:href="#m066840886e" x="67.134632" y="168.075159" style="fill: #1f77b4"/>
     <use xlink:href="#m066840886e" x="151.295469" y="140.603236" style="fill: #1f77b4"/>
     <use xlink:href="#m066840886e" x="67.863748" y="168.699602" style="fill: #1f77b4"/>
     <use xlink:href="#m066840886e" x="87.390472" y="162.123064" style="fill: #1f77b4"/>
     <use xlink:href="#m066840886e" x="125.355702" y="139.297198" style="fill: #1f77b4"/>
     <use xlink:href="#m066840886e" x="95.136733" y="138.644374" style="fill: #1f77b4"/>
     <use xlink:href="#m066840886e" x="63.912659" y="153.655894" style="fill: #1f77b4"/>
     <use xlink:href="#m066840886e" x="53.156689" y="179.337124" style="fill: #1f77b4"/>
     <use xlink:href="#m066840886e" x="100.820013" y="157.937469" style="fill: #1f77b4"/>
     <use xlink:href="#m066840886e" x="94.492148" y="133.663372" style="fill: #1f77b4"/>
     <use xlink:href="#m066840886e" x="146.339382" y="170.342552" style="fill: #1f77b4"/>
     <use xlink:href="#m066840886e" x="111.957559" y="150.103061" style="fill: #1f77b4"/>
     <use xlink:href="#m066840886e" x="128.575048" y="161.706185" style="fill: #1f77b4"/>
     <use xlink:href="#m066840886e" x="77.925751" y="154.498382" style="fill: #1f77b4"/>
     <use xlink:href="#m066840886e" x="58.258377" y="179.039677" style="fill: #1f77b4"/>
     <use xlink:href="#m066840886e" x="153.987076" y="172.664341" style="fill: #1f77b4"/>
     <use xlink:href="#m066840886e" x="80.782954" y="130.348469" style="fill: #1f77b4"/>
     <use xlink:href="#m066840886e" x="195.684227" y="131.943794" style="fill: #1f77b4"/>
     <use xlink:href="#m066840886e" x="53.350993" y="149.104641" style="fill: #1f77b4"/>
     <use xlink:href="#m066840886e" x="92.42659" y="135.990349" style="fill: #1f77b4"/>
     <use xlink:href="#m066840886e" x="53.617508" y="141.306644" style="fill: #1f77b4"/>
    </g>
   </g>
   <g id="text_8">
    <!-- Strip plots - Fish &amp; Seafood Consumption -->
    <g transform="translate(83.634063 16.318125) scale(0.12 -0.12)">
     <defs>
      <path id="DejaVuSans-53" d="M 3425 4513 
L 3425 3897 
Q 3066 4069 2747 4153 
Q 2428 4238 2131 4238 
Q 1616 4238 1336 4038 
Q 1056 3838 1056 3469 
Q 1056 3159 1242 3001 
Q 1428 2844 1947 2747 
L 2328 2669 
Q 3034 2534 3370 2195 
Q 3706 1856 3706 1288 
Q 3706 609 3251 259 
Q 2797 -91 1919 -91 
Q 1588 -91 1214 -16 
Q 841 59 441 206 
L 441 856 
Q 825 641 1194 531 
Q 1563 422 1919 422 
Q 2459 422 2753 634 
Q 3047 847 3047 1241 
Q 3047 1584 2836 1778 
Q 2625 1972 2144 2069 
L 1759 2144 
Q 1053 2284 737 2584 
Q 422 2884 422 3419 
Q 422 4038 858 4394 
Q 1294 4750 2059 4750 
Q 2388 4750 2728 4690 
Q 3069 4631 3425 4513 
z
" transform="scale(0.015625)"/>
      <path id="DejaVuSans-6c" d="M 603 4863 
L 1178 4863 
L 1178 0 
L 603 0 
L 603 4863 
z
" transform="scale(0.015625)"/>
      <path id="DejaVuSans-2d" d="M 313 2009 
L 1997 2009 
L 1997 1497 
L 313 1497 
L 313 2009 
z
" transform="scale(0.015625)"/>
      <path id="DejaVuSans-43" d="M 4122 4306 
L 4122 3641 
Q 3803 3938 3442 4084 
Q 3081 4231 2675 4231 
Q 1875 4231 1450 3742 
Q 1025 3253 1025 2328 
Q 1025 1406 1450 917 
Q 1875 428 2675 428 
Q 3081 428 3442 575 
Q 3803 722 4122 1019 
L 4122 359 
Q 3791 134 3420 21 
Q 3050 -91 2638 -91 
Q 1578 -91 968 557 
Q 359 1206 359 2328 
Q 359 3453 968 4101 
Q 1578 4750 2638 4750 
Q 3056 4750 3426 4639 
Q 3797 4528 4122 4306 
z
" transform="scale(0.015625)"/>
      <path id="DejaVuSans-6e" d="M 3513 2113 
L 3513 0 
L 2938 0 
L 2938 2094 
Q 2938 2591 2744 2837 
Q 2550 3084 2163 3084 
Q 1697 3084 1428 2787 
Q 1159 2491 1159 1978 
L 1159 0 
L 581 0 
L 581 3500 
L 1159 3500 
L 1159 2956 
Q 1366 3272 1645 3428 
Q 1925 3584 2291 3584 
Q 2894 3584 3203 3211 
Q 3513 2838 3513 2113 
z
" transform="scale(0.015625)"/>
      <path id="DejaVuSans-75" d="M 544 1381 
L 544 3500 
L 1119 3500 
L 1119 1403 
Q 1119 906 1312 657 
Q 1506 409 1894 409 
Q 2359 409 2629 706 
Q 2900 1003 2900 1516 
L 2900 3500 
L 3475 3500 
L 3475 0 
L 2900 0 
L 2900 538 
Q 2691 219 2414 64 
Q 2138 -91 1772 -91 
Q 1169 -91 856 284 
Q 544 659 544 1381 
z
M 1991 3584 
L 1991 3584 
z
" transform="scale(0.015625)"/>
      <path id="DejaVuSans-6d" d="M 3328 2828 
Q 3544 3216 3844 3400 
Q 4144 3584 4550 3584 
Q 5097 3584 5394 3201 
Q 5691 2819 5691 2113 
L 5691 0 
L 5113 0 
L 5113 2094 
Q 5113 2597 4934 2840 
Q 4756 3084 4391 3084 
Q 3944 3084 3684 2787 
Q 3425 2491 3425 1978 
L 3425 0 
L 2847 0 
L 2847 2094 
Q 2847 2600 2669 2842 
Q 2491 3084 2119 3084 
Q 1678 3084 1418 2786 
Q 1159 2488 1159 1978 
L 1159 0 
L 581 0 
L 581 3500 
L 1159 3500 
L 1159 2956 
Q 1356 3278 1631 3431 
Q 1906 3584 2284 3584 
Q 2666 3584 2933 3390 
Q 3200 3197 3328 2828 
z
" transform="scale(0.015625)"/>
     </defs>
     <use xlink:href="#DejaVuSans-53"/>
     <use xlink:href="#DejaVuSans-74" x="63.476562"/>
     <use xlink:href="#DejaVuSans-72" x="102.685547"/>
     <use xlink:href="#DejaVuSans-69" x="143.798828"/>
     <use xlink:href="#DejaVuSans-70" x="171.582031"/>
     <use xlink:href="#DejaVuSans-20" x="235.058594"/>
     <use xlink:href="#DejaVuSans-70" x="266.845703"/>
     <use xlink:href="#DejaVuSans-6c" x="330.322266"/>
     <use xlink:href="#DejaVuSans-6f" x="358.105469"/>
     <use xlink:href="#DejaVuSans-74" x="419.287109"/>
     <use xlink:href="#DejaVuSans-73" x="458.496094"/>
     <use xlink:href="#DejaVuSans-20" x="510.595703"/>
     <use xlink:href="#DejaVuSans-2d" x="542.382812"/>
     <use xlink:href="#DejaVuSans-20" x="578.466797"/>
     <use xlink:href="#DejaVuSans-46" x="610.253906"/>
     <use xlink:href="#DejaVuSans-69" x="660.523438"/>
     <use xlink:href="#DejaVuSans-73" x="688.306641"/>
     <use xlink:href="#DejaVuSans-68" x="740.40625"/>
     <use xlink:href="#DejaVuSans-20" x="803.785156"/>
     <use xlink:href="#DejaVuSans-26" x="835.572266"/>
     <use xlink:href="#DejaVuSans-20" x="913.550781"/>
     <use xlink:href="#DejaVuSans-53" x="945.337891"/>
     <use xlink:href="#DejaVuSans-65" x="1008.814453"/>
     <use xlink:href="#DejaVuSans-61" x="1070.337891"/>
     <use xlink:href="#DejaVuSans-66" x="1131.617188"/>
     <use xlink:href="#DejaVuSans-6f" x="1166.822266"/>
     <use xlink:href="#DejaVuSans-6f" x="1228.003906"/>
     <use xlink:href="#DejaVuSans-64" x="1289.185547"/>
     <use xlink:href="#DejaVuSans-20" x="1352.662109"/>
     <use xlink:href="#DejaVuSans-43" x="1384.449219"/>
     <use xlink:href="#DejaVuSans-6f" x="1454.273438"/>
     <use xlink:href="#DejaVuSans-6e" x="1515.455078"/>
     <use xlink:href="#DejaVuSans-73" x="1578.833984"/>
     <use xlink:href="#DejaVuSans-75" x="1630.933594"/>
     <use xlink:href="#DejaVuSans-6d" x="1694.3125"/>
     <use xlink:href="#DejaVuSans-70" x="1791.724609"/>
     <use xlink:href="#DejaVuSans-74" x="1855.201172"/>
     <use xlink:href="#DejaVuSans-69" x="1894.410156"/>
     <use xlink:href="#DejaVuSans-6f" x="1922.193359"/>
     <use xlink:href="#DejaVuSans-6e" x="1983.375"/>
    </g>
   </g>
  </g>
 </g>
 <defs>
  <clipPath id="p384c8b7dbe">
   <rect x="27.878125" y="22.318125" width="357.12" height="266.112"/>
  </clipPath>
 </defs>
</svg>
