<?xml version="1.0" encoding="utf-8" standalone="no"?>
<!DOCTYPE svg PUBLIC "-//W3C//DTD SVG 1.1//EN"
  "http://www.w3.org/Graphics/SVG/1.1/DTD/svg11.dtd">
<svg xmlns:xlink="http://www.w3.org/1999/xlink" width="392.198125pt" height="325.986375pt" viewBox="0 0 392.198125 325.986375" xmlns="http://www.w3.org/2000/svg" version="1.1">
 <metadata>
  <rdf:RDF xmlns:dc="http://purl.org/dc/elements/1.1/" xmlns:cc="http://creativecommons.org/ns#" xmlns:rdf="http://www.w3.org/1999/02/22-rdf-syntax-ns#">
   <cc:Work>
    <dc:type rdf:resource="http://purl.org/dc/dcmitype/StillImage"/>
    <dc:date>2024-03-09T17:02:37.210407</dc:date>
    <dc:format>image/svg+xml</dc:format>
    <dc:creator>
     <cc:Agent>
      <dc:title>Matplotlib v3.7.0, https://matplotlib.org/</dc:title>
     </cc:Agent>
    </dc:creator>
   </cc:Work>
  </rdf:RDF>
 </metadata>
 <defs>
  <style type="text/css">*{stroke-linejoin: round; stroke-linecap: butt}</style>
 </defs>
 <g id="figure_1">
  <g id="patch_1">
   <path d="M 0 325.986375 
L 392.198125 325.986375 
L 392.198125 0 
L 0 0 
L 0 325.986375 
z
" style="fill: none"/>
  </g>
  <g id="axes_1">
   <g id="patch_2">
    <path d="M 27.878125 288.430125 
L 384.998125 288.430125 
L 384.998125 22.318125 
L 27.878125 22.318125 
L 27.878125 288.430125 
z
" style="fill: none"/>
   </g>
   <g id="matplotlib.axis_1">
    <g id="xtick_1">
     <g id="line2d_1">
      <defs>
       <path id="m778a3300db" d="M 0 0 
L 0 3.5 
" style="stroke: #000000; stroke-width: 0.8"/>
      </defs>
      <g>
       <use xlink:href="#m778a3300db" x="29.027345" y="288.430125" style="stroke: #000000; stroke-width: 0.8"/>
      </g>
     </g>
     <g id="text_1">
      <!-- 0.0 -->
      <g transform="translate(21.075782 303.028562) scale(0.1 -0.1)">
       <defs>
        <path id="DejaVuSans-30" d="M 2034 4250 
Q 1547 4250 1301 3770 
Q 1056 3291 1056 2328 
Q 1056 1369 1301 889 
Q 1547 409 2034 409 
Q 2525 409 2770 889 
Q 3016 1369 3016 2328 
Q 3016 3291 2770 3770 
Q 2525 4250 2034 4250 
z
M 2034 4750 
Q 2819 4750 3233 4129 
Q 3647 3509 3647 2328 
Q 3647 1150 3233 529 
Q 2819 -91 2034 -91 
Q 1250 -91 836 529 
Q 422 1150 422 2328 
Q 422 3509 836 4129 
Q 1250 4750 2034 4750 
z
" transform="scale(0.015625)"/>
        <path id="DejaVuSans-2e" d="M 684 794 
L 1344 794 
L 1344 0 
L 684 0 
L 684 794 
z
" transform="scale(0.015625)"/>
       </defs>
       <use xlink:href="#DejaVuSans-30"/>
       <use xlink:href="#DejaVuSans-2e" x="63.623047"/>
       <use xlink:href="#DejaVuSans-30" x="95.410156"/>
      </g>
     </g>
    </g>
    <g id="xtick_2">
     <g id="line2d_2">
      <g>
       <use xlink:href="#m778a3300db" x="100.853572" y="288.430125" style="stroke: #000000; stroke-width: 0.8"/>
      </g>
     </g>
     <g id="text_2">
      <!-- 0.1 -->
      <g transform="translate(92.902009 303.028562) scale(0.1 -0.1)">
       <defs>
        <path id="DejaVuSans-31" d="M 794 531 
L 1825 531 
L 1825 4091 
L 703 3866 
L 703 4441 
L 1819 4666 
L 2450 4666 
L 2450 531 
L 3481 531 
L 3481 0 
L 794 0 
L 794 531 
z
" transform="scale(0.015625)"/>
       </defs>
       <use xlink:href="#DejaVuSans-30"/>
       <use xlink:href="#DejaVuSans-2e" x="63.623047"/>
       <use xlink:href="#DejaVuSans-31" x="95.410156"/>
      </g>
     </g>
    </g>
    <g id="xtick_3">
     <g id="line2d_3">
      <g>
       <use xlink:href="#m778a3300db" x="172.679798" y="288.430125" style="stroke: #000000; stroke-width: 0.8"/>
      </g>
     </g>
     <g id="text_3">
      <!-- 0.2 -->
      <g transform="translate(164.728236 303.028562) scale(0.1 -0.1)">
       <defs>
        <path id="DejaVuSans-32" d="M 1228 531 
L 3431 531 
L 3431 0 
L 469 0 
L 469 531 
Q 828 903 1448 1529 
Q 2069 2156 2228 2338 
Q 2531 2678 2651 2914 
Q 2772 3150 2772 3378 
Q 2772 3750 2511 3984 
Q 2250 4219 1831 4219 
Q 1534 4219 1204 4116 
Q 875 4013 500 3803 
L 500 4441 
Q 881 4594 1212 4672 
Q 1544 4750 1819 4750 
Q 2544 4750 2975 4387 
Q 3406 4025 3406 3419 
Q 3406 3131 3298 2873 
Q 3191 2616 2906 2266 
Q 2828 2175 2409 1742 
Q 1991 1309 1228 531 
z
" transform="scale(0.015625)"/>
       </defs>
       <use xlink:href="#DejaVuSans-30"/>
       <use xlink:href="#DejaVuSans-2e" x="63.623047"/>
       <use xlink:href="#DejaVuSans-32" x="95.410156"/>
      </g>
     </g>
    </g>
    <g id="xtick_4">
     <g id="line2d_4">
      <g>
       <use xlink:href="#m778a3300db" x="244.506025" y="288.430125" style="stroke: #000000; stroke-width: 0.8"/>
      </g>
     </g>
     <g id="text_4">
      <!-- 0.3 -->
      <g transform="translate(236.554463 303.028562) scale(0.1 -0.1)">
       <defs>
        <path id="DejaVuSans-33" d="M 2597 2516 
Q 3050 2419 3304 2112 
Q 3559 1806 3559 1356 
Q 3559 666 3084 287 
Q 2609 -91 1734 -91 
Q 1441 -91 1130 -33 
Q 819 25 488 141 
L 488 750 
Q 750 597 1062 519 
Q 1375 441 1716 441 
Q 2309 441 2620 675 
Q 2931 909 2931 1356 
Q 2931 1769 2642 2001 
Q 2353 2234 1838 2234 
L 1294 2234 
L 1294 2753 
L 1863 2753 
Q 2328 2753 2575 2939 
Q 2822 3125 2822 3475 
Q 2822 3834 2567 4026 
Q 2313 4219 1838 4219 
Q 1578 4219 1281 4162 
Q 984 4106 628 3988 
L 628 4550 
Q 988 4650 1302 4700 
Q 1616 4750 1894 4750 
Q 2613 4750 3031 4423 
Q 3450 4097 3450 3541 
Q 3450 3153 3228 2886 
Q 3006 2619 2597 2516 
z
" transform="scale(0.015625)"/>
       </defs>
       <use xlink:href="#DejaVuSans-30"/>
       <use xlink:href="#DejaVuSans-2e" x="63.623047"/>
       <use xlink:href="#DejaVuSans-33" x="95.410156"/>
      </g>
     </g>
    </g>
    <g id="xtick_5">
     <g id="line2d_5">
      <g>
       <use xlink:href="#m778a3300db" x="316.332252" y="288.430125" style="stroke: #000000; stroke-width: 0.8"/>
      </g>
     </g>
     <g id="text_5">
      <!-- 0.4 -->
      <g transform="translate(308.38069 303.028562) scale(0.1 -0.1)">
       <defs>
        <path id="DejaVuSans-34" d="M 2419 4116 
L 825 1625 
L 2419 1625 
L 2419 4116 
z
M 2253 4666 
L 3047 4666 
L 3047 1625 
L 3713 1625 
L 3713 1100 
L 3047 1100 
L 3047 0 
L 2419 0 
L 2419 1100 
L 313 1100 
L 313 1709 
L 2253 4666 
z
" transform="scale(0.015625)"/>
       </defs>
       <use xlink:href="#DejaVuSans-30"/>
       <use xlink:href="#DejaVuSans-2e" x="63.623047"/>
       <use xlink:href="#DejaVuSans-34" x="95.410156"/>
      </g>
     </g>
    </g>
    <g id="text_6">
     <!-- Obesity rate of adult (2016) -->
     <g transform="translate(136.623281 316.706687) scale(0.1 -0.1)">
      <defs>
       <path id="DejaVuSans-4f" d="M 2522 4238 
Q 1834 4238 1429 3725 
Q 1025 3213 1025 2328 
Q 1025 1447 1429 934 
Q 1834 422 2522 422 
Q 3209 422 3611 934 
Q 4013 1447 4013 2328 
Q 4013 3213 3611 3725 
Q 3209 4238 2522 4238 
z
M 2522 4750 
Q 3503 4750 4090 4092 
Q 4678 3434 4678 2328 
Q 4678 1225 4090 567 
Q 3503 -91 2522 -91 
Q 1538 -91 948 565 
Q 359 1222 359 2328 
Q 359 3434 948 4092 
Q 1538 4750 2522 4750 
z
" transform="scale(0.015625)"/>
       <path id="DejaVuSans-62" d="M 3116 1747 
Q 3116 2381 2855 2742 
Q 2594 3103 2138 3103 
Q 1681 3103 1420 2742 
Q 1159 2381 1159 1747 
Q 1159 1113 1420 752 
Q 1681 391 2138 391 
Q 2594 391 2855 752 
Q 3116 1113 3116 1747 
z
M 1159 2969 
Q 1341 3281 1617 3432 
Q 1894 3584 2278 3584 
Q 2916 3584 3314 3078 
Q 3713 2572 3713 1747 
Q 3713 922 3314 415 
Q 2916 -91 2278 -91 
Q 1894 -91 1617 61 
Q 1341 213 1159 525 
L 1159 0 
L 581 0 
L 581 4863 
L 1159 4863 
L 1159 2969 
z
" transform="scale(0.015625)"/>
       <path id="DejaVuSans-65" d="M 3597 1894 
L 3597 1613 
L 953 1613 
Q 991 1019 1311 708 
Q 1631 397 2203 397 
Q 2534 397 2845 478 
Q 3156 559 3463 722 
L 3463 178 
Q 3153 47 2828 -22 
Q 2503 -91 2169 -91 
Q 1331 -91 842 396 
Q 353 884 353 1716 
Q 353 2575 817 3079 
Q 1281 3584 2069 3584 
Q 2775 3584 3186 3129 
Q 3597 2675 3597 1894 
z
M 3022 2063 
Q 3016 2534 2758 2815 
Q 2500 3097 2075 3097 
Q 1594 3097 1305 2825 
Q 1016 2553 972 2059 
L 3022 2063 
z
" transform="scale(0.015625)"/>
       <path id="DejaVuSans-73" d="M 2834 3397 
L 2834 2853 
Q 2591 2978 2328 3040 
Q 2066 3103 1784 3103 
Q 1356 3103 1142 2972 
Q 928 2841 928 2578 
Q 928 2378 1081 2264 
Q 1234 2150 1697 2047 
L 1894 2003 
Q 2506 1872 2764 1633 
Q 3022 1394 3022 966 
Q 3022 478 2636 193 
Q 2250 -91 1575 -91 
Q 1294 -91 989 -36 
Q 684 19 347 128 
L 347 722 
Q 666 556 975 473 
Q 1284 391 1588 391 
Q 1994 391 2212 530 
Q 2431 669 2431 922 
Q 2431 1156 2273 1281 
Q 2116 1406 1581 1522 
L 1381 1569 
Q 847 1681 609 1914 
Q 372 2147 372 2553 
Q 372 3047 722 3315 
Q 1072 3584 1716 3584 
Q 2034 3584 2315 3537 
Q 2597 3491 2834 3397 
z
" transform="scale(0.015625)"/>
       <path id="DejaVuSans-69" d="M 603 3500 
L 1178 3500 
L 1178 0 
L 603 0 
L 603 3500 
z
M 603 4863 
L 1178 4863 
L 1178 4134 
L 603 4134 
L 603 4863 
z
" transform="scale(0.015625)"/>
       <path id="DejaVuSans-74" d="M 1172 4494 
L 1172 3500 
L 2356 3500 
L 2356 3053 
L 1172 3053 
L 1172 1153 
Q 1172 725 1289 603 
Q 1406 481 1766 481 
L 2356 481 
L 2356 0 
L 1766 0 
Q 1100 0 847 248 
Q 594 497 594 1153 
L 594 3053 
L 172 3053 
L 172 3500 
L 594 3500 
L 594 4494 
L 1172 4494 
z
" transform="scale(0.015625)"/>
       <path id="DejaVuSans-79" d="M 2059 -325 
Q 1816 -950 1584 -1140 
Q 1353 -1331 966 -1331 
L 506 -1331 
L 506 -850 
L 844 -850 
Q 1081 -850 1212 -737 
Q 1344 -625 1503 -206 
L 1606 56 
L 191 3500 
L 800 3500 
L 1894 763 
L 2988 3500 
L 3597 3500 
L 2059 -325 
z
" transform="scale(0.015625)"/>
       <path id="DejaVuSans-20" transform="scale(0.015625)"/>
       <path id="DejaVuSans-72" d="M 2631 2963 
Q 2534 3019 2420 3045 
Q 2306 3072 2169 3072 
Q 1681 3072 1420 2755 
Q 1159 2438 1159 1844 
L 1159 0 
L 581 0 
L 581 3500 
L 1159 3500 
L 1159 2956 
Q 1341 3275 1631 3429 
Q 1922 3584 2338 3584 
Q 2397 3584 2469 3576 
Q 2541 3569 2628 3553 
L 2631 2963 
z
" transform="scale(0.015625)"/>
       <path id="DejaVuSans-61" d="M 2194 1759 
Q 1497 1759 1228 1600 
Q 959 1441 959 1056 
Q 959 750 1161 570 
Q 1363 391 1709 391 
Q 2188 391 2477 730 
Q 2766 1069 2766 1631 
L 2766 1759 
L 2194 1759 
z
M 3341 1997 
L 3341 0 
L 2766 0 
L 2766 531 
Q 2569 213 2275 61 
Q 1981 -91 1556 -91 
Q 1019 -91 701 211 
Q 384 513 384 1019 
Q 384 1609 779 1909 
Q 1175 2209 1959 2209 
L 2766 2209 
L 2766 2266 
Q 2766 2663 2505 2880 
Q 2244 3097 1772 3097 
Q 1472 3097 1187 3025 
Q 903 2953 641 2809 
L 641 3341 
Q 956 3463 1253 3523 
Q 1550 3584 1831 3584 
Q 2591 3584 2966 3190 
Q 3341 2797 3341 1997 
z
" transform="scale(0.015625)"/>
       <path id="DejaVuSans-6f" d="M 1959 3097 
Q 1497 3097 1228 2736 
Q 959 2375 959 1747 
Q 959 1119 1226 758 
Q 1494 397 1959 397 
Q 2419 397 2687 759 
Q 2956 1122 2956 1747 
Q 2956 2369 2687 2733 
Q 2419 3097 1959 3097 
z
M 1959 3584 
Q 2709 3584 3137 3096 
Q 3566 2609 3566 1747 
Q 3566 888 3137 398 
Q 2709 -91 1959 -91 
Q 1206 -91 779 398 
Q 353 888 353 1747 
Q 353 2609 779 3096 
Q 1206 3584 1959 3584 
z
" transform="scale(0.015625)"/>
       <path id="DejaVuSans-66" d="M 2375 4863 
L 2375 4384 
L 1825 4384 
Q 1516 4384 1395 4259 
Q 1275 4134 1275 3809 
L 1275 3500 
L 2222 3500 
L 2222 3053 
L 1275 3053 
L 1275 0 
L 697 0 
L 697 3053 
L 147 3053 
L 147 3500 
L 697 3500 
L 697 3744 
Q 697 4328 969 4595 
Q 1241 4863 1831 4863 
L 2375 4863 
z
" transform="scale(0.015625)"/>
       <path id="DejaVuSans-64" d="M 2906 2969 
L 2906 4863 
L 3481 4863 
L 3481 0 
L 2906 0 
L 2906 525 
Q 2725 213 2448 61 
Q 2172 -91 1784 -91 
Q 1150 -91 751 415 
Q 353 922 353 1747 
Q 353 2572 751 3078 
Q 1150 3584 1784 3584 
Q 2172 3584 2448 3432 
Q 2725 3281 2906 2969 
z
M 947 1747 
Q 947 1113 1208 752 
Q 1469 391 1925 391 
Q 2381 391 2643 752 
Q 2906 1113 2906 1747 
Q 2906 2381 2643 2742 
Q 2381 3103 1925 3103 
Q 1469 3103 1208 2742 
Q 947 2381 947 1747 
z
" transform="scale(0.015625)"/>
       <path id="DejaVuSans-75" d="M 544 1381 
L 544 3500 
L 1119 3500 
L 1119 1403 
Q 1119 906 1312 657 
Q 1506 409 1894 409 
Q 2359 409 2629 706 
Q 2900 1003 2900 1516 
L 2900 3500 
L 3475 3500 
L 3475 0 
L 2900 0 
L 2900 538 
Q 2691 219 2414 64 
Q 2138 -91 1772 -91 
Q 1169 -91 856 284 
Q 544 659 544 1381 
z
M 1991 3584 
L 1991 3584 
z
" transform="scale(0.015625)"/>
       <path id="DejaVuSans-6c" d="M 603 4863 
L 1178 4863 
L 1178 0 
L 603 0 
L 603 4863 
z
" transform="scale(0.015625)"/>
       <path id="DejaVuSans-28" d="M 1984 4856 
Q 1566 4138 1362 3434 
Q 1159 2731 1159 2009 
Q 1159 1288 1364 580 
Q 1569 -128 1984 -844 
L 1484 -844 
Q 1016 -109 783 600 
Q 550 1309 550 2009 
Q 550 2706 781 3412 
Q 1013 4119 1484 4856 
L 1984 4856 
z
" transform="scale(0.015625)"/>
       <path id="DejaVuSans-36" d="M 2113 2584 
Q 1688 2584 1439 2293 
Q 1191 2003 1191 1497 
Q 1191 994 1439 701 
Q 1688 409 2113 409 
Q 2538 409 2786 701 
Q 3034 994 3034 1497 
Q 3034 2003 2786 2293 
Q 2538 2584 2113 2584 
z
M 3366 4563 
L 3366 3988 
Q 3128 4100 2886 4159 
Q 2644 4219 2406 4219 
Q 1781 4219 1451 3797 
Q 1122 3375 1075 2522 
Q 1259 2794 1537 2939 
Q 1816 3084 2150 3084 
Q 2853 3084 3261 2657 
Q 3669 2231 3669 1497 
Q 3669 778 3244 343 
Q 2819 -91 2113 -91 
Q 1303 -91 875 529 
Q 447 1150 447 2328 
Q 447 3434 972 4092 
Q 1497 4750 2381 4750 
Q 2619 4750 2861 4703 
Q 3103 4656 3366 4563 
z
" transform="scale(0.015625)"/>
       <path id="DejaVuSans-29" d="M 513 4856 
L 1013 4856 
Q 1481 4119 1714 3412 
Q 1947 2706 1947 2009 
Q 1947 1309 1714 600 
Q 1481 -109 1013 -844 
L 513 -844 
Q 928 -128 1133 580 
Q 1338 1288 1338 2009 
Q 1338 2731 1133 3434 
Q 928 4138 513 4856 
z
" transform="scale(0.015625)"/>
      </defs>
      <use xlink:href="#DejaVuSans-4f"/>
      <use xlink:href="#DejaVuSans-62" x="78.710938"/>
      <use xlink:href="#DejaVuSans-65" x="142.1875"/>
      <use xlink:href="#DejaVuSans-73" x="203.710938"/>
      <use xlink:href="#DejaVuSans-69" x="255.810547"/>
      <use xlink:href="#DejaVuSans-74" x="283.59375"/>
      <use xlink:href="#DejaVuSans-79" x="322.802734"/>
      <use xlink:href="#DejaVuSans-20" x="381.982422"/>
      <use xlink:href="#DejaVuSans-72" x="413.769531"/>
      <use xlink:href="#DejaVuSans-61" x="454.882812"/>
      <use xlink:href="#DejaVuSans-74" x="516.162109"/>
      <use xlink:href="#DejaVuSans-65" x="555.371094"/>
      <use xlink:href="#DejaVuSans-20" x="616.894531"/>
      <use xlink:href="#DejaVuSans-6f" x="648.681641"/>
      <use xlink:href="#DejaVuSans-66" x="709.863281"/>
      <use xlink:href="#DejaVuSans-20" x="745.068359"/>
      <use xlink:href="#DejaVuSans-61" x="776.855469"/>
      <use xlink:href="#DejaVuSans-64" x="838.134766"/>
      <use xlink:href="#DejaVuSans-75" x="901.611328"/>
      <use xlink:href="#DejaVuSans-6c" x="964.990234"/>
      <use xlink:href="#DejaVuSans-74" x="992.773438"/>
      <use xlink:href="#DejaVuSans-20" x="1031.982422"/>
      <use xlink:href="#DejaVuSans-28" x="1063.769531"/>
      <use xlink:href="#DejaVuSans-32" x="1102.783203"/>
      <use xlink:href="#DejaVuSans-30" x="1166.40625"/>
      <use xlink:href="#DejaVuSans-31" x="1230.029297"/>
      <use xlink:href="#DejaVuSans-36" x="1293.652344"/>
      <use xlink:href="#DejaVuSans-29" x="1357.275391"/>
     </g>
    </g>
   </g>
   <g id="matplotlib.axis_2">
    <g id="ytick_1">
     <g id="line2d_6">
      <defs>
       <path id="m63b52e79af" d="M 0 0 
L -3.5 0 
" style="stroke: #000000; stroke-width: 0.8"/>
      </defs>
      <g>
       <use xlink:href="#m63b52e79af" x="27.878125" y="155.374125" style="stroke: #000000; stroke-width: 0.8"/>
      </g>
     </g>
    </g>
    <g id="text_7">
     <!-- Obesity -->
     <g transform="translate(14.798437 174.474125) rotate(-90) scale(0.1 -0.1)">
      <use xlink:href="#DejaVuSans-4f"/>
      <use xlink:href="#DejaVuSans-62" x="78.710938"/>
      <use xlink:href="#DejaVuSans-65" x="142.1875"/>
      <use xlink:href="#DejaVuSans-73" x="203.710938"/>
      <use xlink:href="#DejaVuSans-69" x="255.810547"/>
      <use xlink:href="#DejaVuSans-74" x="283.59375"/>
      <use xlink:href="#DejaVuSans-79" x="322.802734"/>
     </g>
    </g>
   </g>
   <g id="patch_3">
    <path d="M 27.878125 288.430125 
L 27.878125 22.318125 
" style="fill: none; stroke: #000000; stroke-width: 0.8; stroke-linejoin: miter; stroke-linecap: square"/>
   </g>
   <g id="patch_4">
    <path d="M 384.998125 288.430125 
L 384.998125 22.318125 
" style="fill: none; stroke: #000000; stroke-width: 0.8; stroke-linejoin: miter; stroke-linecap: square"/>
   </g>
   <g id="patch_5">
    <path d="M 27.878125 288.430125 
L 384.998125 288.430125 
" style="fill: none; stroke: #000000; stroke-width: 0.8; stroke-linejoin: miter; stroke-linecap: square"/>
   </g>
   <g id="patch_6">
    <path d="M 27.878125 22.318125 
L 384.998125 22.318125 
" style="fill: none; stroke: #000000; stroke-width: 0.8; stroke-linejoin: miter; stroke-linecap: square"/>
   </g>
   <g id="PathCollection_1">
    <defs>
     <path id="m212e984567" d="M 0 2.5 
C 0.663008 2.5 1.29895 2.236584 1.767767 1.767767 
C 2.236584 1.29895 2.5 0.663008 2.5 0 
C 2.5 -0.663008 2.236584 -1.29895 1.767767 -1.767767 
C 1.29895 -2.236584 0.663008 -2.5 0 -2.5 
C -0.663008 -2.5 -1.29895 -2.236584 -1.767767 -1.767767 
C -2.236584 -1.29895 -2.5 -0.663008 -2.5 0 
C -2.5 0.663008 -2.236584 1.29895 -1.767767 1.767767 
C -1.29895 2.236584 -0.663008 2.5 0 2.5 
z
"/>
    </defs>
    <g clip-path="url(#p558ad451fd)">
     <use xlink:href="#m212e984567" x="68.531769" y="130.948195" style="fill: #1f77b4"/>
     <use xlink:href="#m212e984567" x="184.890257" y="171.285762" style="fill: #1f77b4"/>
     <use xlink:href="#m212e984567" x="225.831206" y="136.324964" style="fill: #1f77b4"/>
     <use xlink:href="#m212e984567" x="87.924851" y="161.001998" style="fill: #1f77b4"/>
     <use xlink:href="#m212e984567" x="174.116323" y="157.40939" style="fill: #1f77b4"/>
     <use xlink:href="#m212e984567" x="237.323403" y="155.143839" style="fill: #1f77b4"/>
     <use xlink:href="#m212e984567" x="173.398061" y="180.96889" style="fill: #1f77b4"/>
     <use xlink:href="#m212e984567" x="171.961536" y="147.108012" style="fill: #1f77b4"/>
     <use xlink:href="#m212e984567" x="255.998222" y="176.318788" style="fill: #1f77b4"/>
     <use xlink:href="#m212e984567" x="243.069501" y="169.783807" style="fill: #1f77b4"/>
     <use xlink:href="#m212e984567" x="54.884786" y="152.830207" style="fill: #1f77b4"/>
     <use xlink:href="#m212e984567" x="194.945929" y="166.550583" style="fill: #1f77b4"/>
     <use xlink:href="#m212e984567" x="205.0016" y="162.620507" style="fill: #1f77b4"/>
     <use xlink:href="#m212e984567" x="187.763306" y="178.862434" style="fill: #1f77b4"/>
     <use xlink:href="#m212e984567" x="202.128551" y="162.320032" style="fill: #1f77b4"/>
     <use xlink:href="#m212e984567" x="97.980522" y="151.643762" style="fill: #1f77b4"/>
     <use xlink:href="#m212e984567" x="74.99613" y="143.118964" style="fill: #1f77b4"/>
     <use xlink:href="#m212e984567" x="174.116323" y="176.869515" style="fill: #1f77b4"/>
     <use xlink:href="#m212e984567" x="157.596291" y="174.01171" style="fill: #1f77b4"/>
     <use xlink:href="#m212e984567" x="164.778913" y="177.878584" style="fill: #1f77b4"/>
     <use xlink:href="#m212e984567" x="187.763306" y="135.02278" style="fill: #1f77b4"/>
     <use xlink:href="#m212e984567" x="208.592912" y="141.974505" style="fill: #1f77b4"/>
     <use xlink:href="#m212e984567" x="69.250032" y="154.422488" style="fill: #1f77b4"/>
     <use xlink:href="#m212e984567" x="67.813507" y="169.848704" style="fill: #1f77b4"/>
     <use xlink:href="#m212e984567" x="57.039573" y="140.325639" style="fill: #1f77b4"/>
     <use xlink:href="#m212e984567" x="110.909243" y="153.203672" style="fill: #1f77b4"/>
     <use xlink:href="#m212e984567" x="240.196452" y="179.537588" style="fill: #1f77b4"/>
     <use xlink:href="#m212e984567" x="82.897015" y="171.540425" style="fill: #1f77b4"/>
     <use xlink:href="#m212e984567" x="72.841343" y="178.262354" style="fill: #1f77b4"/>
     <use xlink:href="#m212e984567" x="230.14078" y="166.747966" style="fill: #1f77b4"/>
     <use xlink:href="#m212e984567" x="73.559605" y="151.356427" style="fill: #1f77b4"/>
     <use xlink:href="#m212e984567" x="189.199831" y="174.832434" style="fill: #1f77b4"/>
     <use xlink:href="#m212e984567" x="85.051802" y="143.991984" style="fill: #1f77b4"/>
     <use xlink:href="#m212e984567" x="213.620748" y="153.357972" style="fill: #1f77b4"/>
     <use xlink:href="#m212e984567" x="103.008358" y="138.333434" style="fill: #1f77b4"/>
     <use xlink:href="#m212e984567" x="205.719863" y="167.1612" style="fill: #1f77b4"/>
     <use xlink:href="#m212e984567" x="185.608519" y="137.063166" style="fill: #1f77b4"/>
     <use xlink:href="#m212e984567" x="215.775534" y="179.250153" style="fill: #1f77b4"/>
     <use xlink:href="#m212e984567" x="77.150917" y="136.033669" style="fill: #1f77b4"/>
     <use xlink:href="#m212e984567" x="170.525012" y="129.37834" style="fill: #1f77b4"/>
     <use xlink:href="#m212e984567" x="125.992751" y="176.171841" style="fill: #1f77b4"/>
     <use xlink:href="#m212e984567" x="227.267731" y="129.442875" style="fill: #1f77b4"/>
     <use xlink:href="#m212e984567" x="171.961536" y="176.348657" style="fill: #1f77b4"/>
     <use xlink:href="#m212e984567" x="258.871271" y="172.407494" style="fill: #1f77b4"/>
     <use xlink:href="#m212e984567" x="205.719863" y="150.139514" style="fill: #1f77b4"/>
     <use xlink:href="#m212e984567" x="181.298946" y="178.910281" style="fill: #1f77b4"/>
     <use xlink:href="#m212e984567" x="61.349147" y="175.589838" style="fill: #1f77b4"/>
     <use xlink:href="#m212e984567" x="245.94255" y="169.045708" style="fill: #1f77b4"/>
     <use xlink:href="#m212e984567" x="188.481568" y="151.991601" style="fill: #1f77b4"/>
     <use xlink:href="#m212e984567" x="184.171995" y="176.850891" style="fill: #1f77b4"/>
     <use xlink:href="#m212e984567" x="136.766685" y="180.61931" style="fill: #1f77b4"/>
     <use xlink:href="#m212e984567" x="103.008358" y="170.945027" style="fill: #1f77b4"/>
     <use xlink:href="#m212e984567" x="184.890257" y="152.757458" style="fill: #1f77b4"/>
     <use xlink:href="#m212e984567" x="189.199831" y="180.056465" style="fill: #1f77b4"/>
     <use xlink:href="#m212e984567" x="107.317932" y="140.242847" style="fill: #1f77b4"/>
     <use xlink:href="#m212e984567" x="207.87465" y="135.459241" style="fill: #1f77b4"/>
     <use xlink:href="#m212e984567" x="181.298946" y="160.426231" style="fill: #1f77b4"/>
     <use xlink:href="#m212e984567" x="84.333539" y="174.464995" style="fill: #1f77b4"/>
     <use xlink:href="#m212e984567" x="97.26226" y="175.072293" style="fill: #1f77b4"/>
     <use xlink:href="#m212e984567" x="174.116323" y="167.227465" style="fill: #1f77b4"/>
     <use xlink:href="#m212e984567" x="192.07288" y="169.720506" style="fill: #1f77b4"/>
     <use xlink:href="#m212e984567" x="182.73547" y="133.323611" style="fill: #1f77b4"/>
     <use xlink:href="#m212e984567" x="218.648584" y="159.96932" style="fill: #1f77b4"/>
     <use xlink:href="#m212e984567" x="186.326781" y="142.89314" style="fill: #1f77b4"/>
     <use xlink:href="#m212e984567" x="57.039573" y="174.451185" style="fill: #1f77b4"/>
     <use xlink:href="#m212e984567" x="78.587441" y="164.326244" style="fill: #1f77b4"/>
     <use xlink:href="#m212e984567" x="247.379074" y="171.812732" style="fill: #1f77b4"/>
     <use xlink:href="#m212e984567" x="210.747699" y="181.6563" style="fill: #1f77b4"/>
     <use xlink:href="#m212e984567" x="216.493797" y="176.417906" style="fill: #1f77b4"/>
     <use xlink:href="#m212e984567" x="171.961536" y="152.126659" style="fill: #1f77b4"/>
     <use xlink:href="#m212e984567" x="206.438125" y="146.641774" style="fill: #1f77b4"/>
     <use xlink:href="#m212e984567" x="59.912622" y="137.033824" style="fill: #1f77b4"/>
     <use xlink:href="#m212e984567" x="284.01045" y="147.257778" style="fill: #1f77b4"/>
     <use xlink:href="#m212e984567" x="179.862421" y="149.050503" style="fill: #1f77b4"/>
     <use xlink:href="#m212e984567" x="80.023966" y="131.657383" style="fill: #1f77b4"/>
     <use xlink:href="#m212e984567" x="148.258881" y="130.019705" style="fill: #1f77b4"/>
     <use xlink:href="#m212e984567" x="67.095245" y="165.663559" style="fill: #1f77b4"/>
     <use xlink:href="#m212e984567" x="198.53724" y="175.773768" style="fill: #1f77b4"/>
     <use xlink:href="#m212e984567" x="148.258881" y="165.728668" style="fill: #1f77b4"/>
     <use xlink:href="#m212e984567" x="100.135309" y="134.361438" style="fill: #1f77b4"/>
     <use xlink:href="#m212e984567" x="262.462582" y="159.429259" style="fill: #1f77b4"/>
     <use xlink:href="#m212e984567" x="217.930321" y="149.650705" style="fill: #1f77b4"/>
     <use xlink:href="#m212e984567" x="191.354617" y="176.387228" style="fill: #1f77b4"/>
     <use xlink:href="#m212e984567" x="67.095245" y="179.123527" style="fill: #1f77b4"/>
     <use xlink:href="#m212e984567" x="70.686556" y="167.669435" style="fill: #1f77b4"/>
     <use xlink:href="#m212e984567" x="141.076259" y="133.021226" style="fill: #1f77b4"/>
     <use xlink:href="#m212e984567" x="90.7979" y="177.954666" style="fill: #1f77b4"/>
     <use xlink:href="#m212e984567" x="120.246653" y="177.077141" style="fill: #1f77b4"/>
     <use xlink:href="#m212e984567" x="236.60514" y="135.623957" style="fill: #1f77b4"/>
     <use xlink:href="#m212e984567" x="164.778913" y="175.258154" style="fill: #1f77b4"/>
     <use xlink:href="#m212e984567" x="216.493797" y="175.183901" style="fill: #1f77b4"/>
     <use xlink:href="#m212e984567" x="80.742228" y="150.698702" style="fill: #1f77b4"/>
     <use xlink:href="#m212e984567" x="70.686556" y="167.380768" style="fill: #1f77b4"/>
     <use xlink:href="#m212e984567" x="152.568455" y="148.384358" style="fill: #1f77b4"/>
     <use xlink:href="#m212e984567" x="58.476098" y="160.230755" style="fill: #1f77b4"/>
     <use xlink:href="#m212e984567" x="175.552847" y="142.871236" style="fill: #1f77b4"/>
     <use xlink:href="#m212e984567" x="250.252123" y="158.478095" style="fill: #1f77b4"/>
     <use xlink:href="#m212e984567" x="199.255502" y="159.386419" style="fill: #1f77b4"/>
     <use xlink:href="#m212e984567" x="68.531769" y="171.512091" style="fill: #1f77b4"/>
     <use xlink:href="#m212e984567" x="92.952687" y="129.103984" style="fill: #1f77b4"/>
     <use xlink:href="#m212e984567" x="77.869179" y="143.37236" style="fill: #1f77b4"/>
     <use xlink:href="#m212e984567" x="189.918093" y="170.84467" style="fill: #1f77b4"/>
     <use xlink:href="#m212e984567" x="194.945929" y="178.227087" style="fill: #1f77b4"/>
     <use xlink:href="#m212e984567" x="222.958157" y="166.344997" style="fill: #1f77b4"/>
     <use xlink:href="#m212e984567" x="90.7979" y="178.109065" style="fill: #1f77b4"/>
     <use xlink:href="#m212e984567" x="192.07288" y="142.712059" style="fill: #1f77b4"/>
     <use xlink:href="#m212e984567" x="182.017208" y="178.885113" style="fill: #1f77b4"/>
     <use xlink:href="#m212e984567" x="174.834585" y="129.653144" style="fill: #1f77b4"/>
     <use xlink:href="#m212e984567" x="170.525012" y="152.018445" style="fill: #1f77b4"/>
     <use xlink:href="#m212e984567" x="74.99613" y="156.864262" style="fill: #1f77b4"/>
     <use xlink:href="#m212e984567" x="194.945929" y="181.194598" style="fill: #1f77b4"/>
     <use xlink:href="#m212e984567" x="178.425897" y="131.343308" style="fill: #1f77b4"/>
     <use xlink:href="#m212e984567" x="281.137401" y="136.768042" style="fill: #1f77b4"/>
     <use xlink:href="#m212e984567" x="97.980522" y="133.468816" style="fill: #1f77b4"/>
     <use xlink:href="#m212e984567" x="190.636355" y="175.793972" style="fill: #1f77b4"/>
     <use xlink:href="#m212e984567" x="194.945929" y="158.124038" style="fill: #1f77b4"/>
     <use xlink:href="#m212e984567" x="70.686556" y="130.151123" style="fill: #1f77b4"/>
     <use xlink:href="#m212e984567" x="170.525012" y="175.116058" style="fill: #1f77b4"/>
     <use xlink:href="#m212e984567" x="368.765398" y="149.614393" style="fill: #1f77b4"/>
     <use xlink:href="#m212e984567" x="118.091866" y="181.422465" style="fill: #1f77b4"/>
     <use xlink:href="#m212e984567" x="92.234424" y="135.605062" style="fill: #1f77b4"/>
     <use xlink:href="#m212e984567" x="91.516162" y="162.376335" style="fill: #1f77b4"/>
     <use xlink:href="#m212e984567" x="176.27111" y="139.946756" style="fill: #1f77b4"/>
     <use xlink:href="#m212e984567" x="174.116323" y="151.922146" style="fill: #1f77b4"/>
     <use xlink:href="#m212e984567" x="190.636355" y="152.910708" style="fill: #1f77b4"/>
     <use xlink:href="#m212e984567" x="62.785671" y="166.615921" style="fill: #1f77b4"/>
     <use xlink:href="#m212e984567" x="199.973765" y="160.494782" style="fill: #1f77b4"/>
     <use xlink:href="#m212e984567" x="66.376983" y="149.104359" style="fill: #1f77b4"/>
     <use xlink:href="#m212e984567" x="90.7979" y="138.714462" style="fill: #1f77b4"/>
     <use xlink:href="#m212e984567" x="218.648584" y="150.905781" style="fill: #1f77b4"/>
     <use xlink:href="#m212e984567" x="176.989372" y="141.570295" style="fill: #1f77b4"/>
     <use xlink:href="#m212e984567" x="169.088487" y="168.289866" style="fill: #1f77b4"/>
     <use xlink:href="#m212e984567" x="228.704255" y="146.204862" style="fill: #1f77b4"/>
     <use xlink:href="#m212e984567" x="131.020587" y="162.716561" style="fill: #1f77b4"/>
     <use xlink:href="#m212e984567" x="89.361375" y="128.949212" style="fill: #1f77b4"/>
     <use xlink:href="#m212e984567" x="100.853572" y="137.495407" style="fill: #1f77b4"/>
     <use xlink:href="#m212e984567" x="56.321311" y="175.177588" style="fill: #1f77b4"/>
     <use xlink:href="#m212e984567" x="89.361375" y="180.533112" style="fill: #1f77b4"/>
     <use xlink:href="#m212e984567" x="162.624127" y="151.363648" style="fill: #1f77b4"/>
     <use xlink:href="#m212e984567" x="222.239895" y="135.991728" style="fill: #1f77b4"/>
     <use xlink:href="#m212e984567" x="259.589533" y="162.752014" style="fill: #1f77b4"/>
     <use xlink:href="#m212e984567" x="162.624127" y="153.898539" style="fill: #1f77b4"/>
     <use xlink:href="#m212e984567" x="67.095245" y="177.325045" style="fill: #1f77b4"/>
     <use xlink:href="#m212e984567" x="202.128551" y="180.460717" style="fill: #1f77b4"/>
     <use xlink:href="#m212e984567" x="256.716484" y="166.549826" style="fill: #1f77b4"/>
     <use xlink:href="#m212e984567" x="228.704255" y="132.059074" style="fill: #1f77b4"/>
     <use xlink:href="#m212e984567" x="289.038286" y="173.623338" style="fill: #1f77b4"/>
     <use xlink:href="#m212e984567" x="229.422518" y="133.76047" style="fill: #1f77b4"/>
     <use xlink:href="#m212e984567" x="148.258881" y="155.438195" style="fill: #1f77b4"/>
     <use xlink:href="#m212e984567" x="210.029436" y="174.913408" style="fill: #1f77b4"/>
     <use xlink:href="#m212e984567" x="212.902485" y="134.455976" style="fill: #1f77b4"/>
     <use xlink:href="#m212e984567" x="44.110852" y="147.743425" style="fill: #1f77b4"/>
     <use xlink:href="#m212e984567" x="151.850193" y="169.88209" style="fill: #1f77b4"/>
     <use xlink:href="#m212e984567" x="87.206588" y="161.484069" style="fill: #1f77b4"/>
     <use xlink:href="#m212e984567" x="140.357996" y="129.601632" style="fill: #1f77b4"/>
    </g>
   </g>
   <g id="text_8">
    <!-- Strip plots - Obesity Rate -->
    <g transform="translate(131.242188 16.318125) scale(0.12 -0.12)">
     <defs>
      <path id="DejaVuSans-53" d="M 3425 4513 
L 3425 3897 
Q 3066 4069 2747 4153 
Q 2428 4238 2131 4238 
Q 1616 4238 1336 4038 
Q 1056 3838 1056 3469 
Q 1056 3159 1242 3001 
Q 1428 2844 1947 2747 
L 2328 2669 
Q 3034 2534 3370 2195 
Q 3706 1856 3706 1288 
Q 3706 609 3251 259 
Q 2797 -91 1919 -91 
Q 1588 -91 1214 -16 
Q 841 59 441 206 
L 441 856 
Q 825 641 1194 531 
Q 1563 422 1919 422 
Q 2459 422 2753 634 
Q 3047 847 3047 1241 
Q 3047 1584 2836 1778 
Q 2625 1972 2144 2069 
L 1759 2144 
Q 1053 2284 737 2584 
Q 422 2884 422 3419 
Q 422 4038 858 4394 
Q 1294 4750 2059 4750 
Q 2388 4750 2728 4690 
Q 3069 4631 3425 4513 
z
" transform="scale(0.015625)"/>
      <path id="DejaVuSans-70" d="M 1159 525 
L 1159 -1331 
L 581 -1331 
L 581 3500 
L 1159 3500 
L 1159 2969 
Q 1341 3281 1617 3432 
Q 1894 3584 2278 3584 
Q 2916 3584 3314 3078 
Q 3713 2572 3713 1747 
Q 3713 922 3314 415 
Q 2916 -91 2278 -91 
Q 1894 -91 1617 61 
Q 1341 213 1159 525 
z
M 3116 1747 
Q 3116 2381 2855 2742 
Q 2594 3103 2138 3103 
Q 1681 3103 1420 2742 
Q 1159 2381 1159 1747 
Q 1159 1113 1420 752 
Q 1681 391 2138 391 
Q 2594 391 2855 752 
Q 3116 1113 3116 1747 
z
" transform="scale(0.015625)"/>
      <path id="DejaVuSans-2d" d="M 313 2009 
L 1997 2009 
L 1997 1497 
L 313 1497 
L 313 2009 
z
" transform="scale(0.015625)"/>
      <path id="DejaVuSans-52" d="M 2841 2188 
Q 3044 2119 3236 1894 
Q 3428 1669 3622 1275 
L 4263 0 
L 3584 0 
L 2988 1197 
Q 2756 1666 2539 1819 
Q 2322 1972 1947 1972 
L 1259 1972 
L 1259 0 
L 628 0 
L 628 4666 
L 2053 4666 
Q 2853 4666 3247 4331 
Q 3641 3997 3641 3322 
Q 3641 2881 3436 2590 
Q 3231 2300 2841 2188 
z
M 1259 4147 
L 1259 2491 
L 2053 2491 
Q 2509 2491 2742 2702 
Q 2975 2913 2975 3322 
Q 2975 3731 2742 3939 
Q 2509 4147 2053 4147 
L 1259 4147 
z
" transform="scale(0.015625)"/>
     </defs>
     <use xlink:href="#DejaVuSans-53"/>
     <use xlink:href="#DejaVuSans-74" x="63.476562"/>
     <use xlink:href="#DejaVuSans-72" x="102.685547"/>
     <use xlink:href="#DejaVuSans-69" x="143.798828"/>
     <use xlink:href="#DejaVuSans-70" x="171.582031"/>
     <use xlink:href="#DejaVuSans-20" x="235.058594"/>
     <use xlink:href="#DejaVuSans-70" x="266.845703"/>
     <use xlink:href="#DejaVuSans-6c" x="330.322266"/>
     <use xlink:href="#DejaVuSans-6f" x="358.105469"/>
     <use xlink:href="#DejaVuSans-74" x="419.287109"/>
     <use xlink:href="#DejaVuSans-73" x="458.496094"/>
     <use xlink:href="#DejaVuSans-20" x="510.595703"/>
     <use xlink:href="#DejaVuSans-2d" x="542.382812"/>
     <use xlink:href="#DejaVuSans-20" x="578.466797"/>
     <use xlink:href="#DejaVuSans-4f" x="610.253906"/>
     <use xlink:href="#DejaVuSans-62" x="688.964844"/>
     <use xlink:href="#DejaVuSans-65" x="752.441406"/>
     <use xlink:href="#DejaVuSans-73" x="813.964844"/>
     <use xlink:href="#DejaVuSans-69" x="866.064453"/>
     <use xlink:href="#DejaVuSans-74" x="893.847656"/>
     <use xlink:href="#DejaVuSans-79" x="933.056641"/>
     <use xlink:href="#DejaVuSans-20" x="992.236328"/>
     <use xlink:href="#DejaVuSans-52" x="1024.023438"/>
     <use xlink:href="#DejaVuSans-61" x="1091.255859"/>
     <use xlink:href="#DejaVuSans-74" x="1152.535156"/>
     <use xlink:href="#DejaVuSans-65" x="1191.744141"/>
    </g>
   </g>
  </g>
 </g>
 <defs>
  <clipPath id="p558ad451fd">
   <rect x="27.878125" y="22.318125" width="357.12" height="266.112"/>
  </clipPath>
 </defs>
</svg>
