<?xml version="1.0" encoding="utf-8" standalone="no"?>
<!DOCTYPE svg PUBLIC "-//W3C//DTD SVG 1.1//EN"
  "http://www.w3.org/Graphics/SVG/1.1/DTD/svg11.dtd">
<svg xmlns:xlink="http://www.w3.org/1999/xlink" width="392.198125pt" height="325.986375pt" viewBox="0 0 392.198125 325.986375" xmlns="http://www.w3.org/2000/svg" version="1.1">
 <metadata>
  <rdf:RDF xmlns:dc="http://purl.org/dc/elements/1.1/" xmlns:cc="http://creativecommons.org/ns#" xmlns:rdf="http://www.w3.org/1999/02/22-rdf-syntax-ns#">
   <cc:Work>
    <dc:type rdf:resource="http://purl.org/dc/dcmitype/StillImage"/>
    <dc:date>2024-03-09T17:02:32.849019</dc:date>
    <dc:format>image/svg+xml</dc:format>
    <dc:creator>
     <cc:Agent>
      <dc:title>Matplotlib v3.7.0, https://matplotlib.org/</dc:title>
     </cc:Agent>
    </dc:creator>
   </cc:Work>
  </rdf:RDF>
 </metadata>
 <defs>
  <style type="text/css">*{stroke-linejoin: round; stroke-linecap: butt}</style>
 </defs>
 <g id="figure_1">
  <g id="patch_1">
   <path d="M 0 325.986375 
L 392.198125 325.986375 
L 392.198125 0 
L 0 0 
L 0 325.986375 
z
" style="fill: none"/>
  </g>
  <g id="axes_1">
   <g id="patch_2">
    <path d="M 27.878125 288.430125 
L 384.998125 288.430125 
L 384.998125 22.318125 
L 27.878125 22.318125 
L 27.878125 288.430125 
z
" style="fill: none"/>
   </g>
   <g id="matplotlib.axis_1">
    <g id="xtick_1">
     <g id="line2d_1">
      <defs>
       <path id="m3a61ea9f76" d="M 0 0 
L 0 3.5 
" style="stroke: #000000; stroke-width: 0.8"/>
      </defs>
      <g>
       <use xlink:href="#m3a61ea9f76" x="44.110852" y="288.430125" style="stroke: #000000; stroke-width: 0.8"/>
      </g>
     </g>
     <g id="text_1">
      <!-- 1 -->
      <g transform="translate(40.929602 303.028562) scale(0.1 -0.1)">
       <defs>
        <path id="DejaVuSans-31" d="M 794 531 
L 1825 531 
L 1825 4091 
L 703 3866 
L 703 4441 
L 1819 4666 
L 2450 4666 
L 2450 531 
L 3481 531 
L 3481 0 
L 794 0 
L 794 531 
z
" transform="scale(0.015625)"/>
       </defs>
       <use xlink:href="#DejaVuSans-31"/>
      </g>
     </g>
    </g>
    <g id="xtick_2">
     <g id="line2d_2">
      <g>
       <use xlink:href="#m3a61ea9f76" x="109.041761" y="288.430125" style="stroke: #000000; stroke-width: 0.8"/>
      </g>
     </g>
     <g id="text_2">
      <!-- 2 -->
      <g transform="translate(105.860511 303.028562) scale(0.1 -0.1)">
       <defs>
        <path id="DejaVuSans-32" d="M 1228 531 
L 3431 531 
L 3431 0 
L 469 0 
L 469 531 
Q 828 903 1448 1529 
Q 2069 2156 2228 2338 
Q 2531 2678 2651 2914 
Q 2772 3150 2772 3378 
Q 2772 3750 2511 3984 
Q 2250 4219 1831 4219 
Q 1534 4219 1204 4116 
Q 875 4013 500 3803 
L 500 4441 
Q 881 4594 1212 4672 
Q 1544 4750 1819 4750 
Q 2544 4750 2975 4387 
Q 3406 4025 3406 3419 
Q 3406 3131 3298 2873 
Q 3191 2616 2906 2266 
Q 2828 2175 2409 1742 
Q 1991 1309 1228 531 
z
" transform="scale(0.015625)"/>
       </defs>
       <use xlink:href="#DejaVuSans-32"/>
      </g>
     </g>
    </g>
    <g id="xtick_3">
     <g id="line2d_3">
      <g>
       <use xlink:href="#m3a61ea9f76" x="173.97267" y="288.430125" style="stroke: #000000; stroke-width: 0.8"/>
      </g>
     </g>
     <g id="text_3">
      <!-- 3 -->
      <g transform="translate(170.79142 303.028562) scale(0.1 -0.1)">
       <defs>
        <path id="DejaVuSans-33" d="M 2597 2516 
Q 3050 2419 3304 2112 
Q 3559 1806 3559 1356 
Q 3559 666 3084 287 
Q 2609 -91 1734 -91 
Q 1441 -91 1130 -33 
Q 819 25 488 141 
L 488 750 
Q 750 597 1062 519 
Q 1375 441 1716 441 
Q 2309 441 2620 675 
Q 2931 909 2931 1356 
Q 2931 1769 2642 2001 
Q 2353 2234 1838 2234 
L 1294 2234 
L 1294 2753 
L 1863 2753 
Q 2328 2753 2575 2939 
Q 2822 3125 2822 3475 
Q 2822 3834 2567 4026 
Q 2313 4219 1838 4219 
Q 1578 4219 1281 4162 
Q 984 4106 628 3988 
L 628 4550 
Q 988 4650 1302 4700 
Q 1616 4750 1894 4750 
Q 2613 4750 3031 4423 
Q 3450 4097 3450 3541 
Q 3450 3153 3228 2886 
Q 3006 2619 2597 2516 
z
" transform="scale(0.015625)"/>
       </defs>
       <use xlink:href="#DejaVuSans-33"/>
      </g>
     </g>
    </g>
    <g id="xtick_4">
     <g id="line2d_4">
      <g>
       <use xlink:href="#m3a61ea9f76" x="238.90358" y="288.430125" style="stroke: #000000; stroke-width: 0.8"/>
      </g>
     </g>
     <g id="text_4">
      <!-- 4 -->
      <g transform="translate(235.72233 303.028562) scale(0.1 -0.1)">
       <defs>
        <path id="DejaVuSans-34" d="M 2419 4116 
L 825 1625 
L 2419 1625 
L 2419 4116 
z
M 2253 4666 
L 3047 4666 
L 3047 1625 
L 3713 1625 
L 3713 1100 
L 3047 1100 
L 3047 0 
L 2419 0 
L 2419 1100 
L 313 1100 
L 313 1709 
L 2253 4666 
z
" transform="scale(0.015625)"/>
       </defs>
       <use xlink:href="#DejaVuSans-34"/>
      </g>
     </g>
    </g>
    <g id="xtick_5">
     <g id="line2d_5">
      <g>
       <use xlink:href="#m3a61ea9f76" x="303.834489" y="288.430125" style="stroke: #000000; stroke-width: 0.8"/>
      </g>
     </g>
     <g id="text_5">
      <!-- 5 -->
      <g transform="translate(300.653239 303.028562) scale(0.1 -0.1)">
       <defs>
        <path id="DejaVuSans-35" d="M 691 4666 
L 3169 4666 
L 3169 4134 
L 1269 4134 
L 1269 2991 
Q 1406 3038 1543 3061 
Q 1681 3084 1819 3084 
Q 2600 3084 3056 2656 
Q 3513 2228 3513 1497 
Q 3513 744 3044 326 
Q 2575 -91 1722 -91 
Q 1428 -91 1123 -41 
Q 819 9 494 109 
L 494 744 
Q 775 591 1075 516 
Q 1375 441 1709 441 
Q 2250 441 2565 725 
Q 2881 1009 2881 1497 
Q 2881 1984 2565 2268 
Q 2250 2553 1709 2553 
Q 1456 2553 1204 2497 
Q 953 2441 691 2322 
L 691 4666 
z
" transform="scale(0.015625)"/>
       </defs>
       <use xlink:href="#DejaVuSans-35"/>
      </g>
     </g>
    </g>
    <g id="xtick_6">
     <g id="line2d_6">
      <g>
       <use xlink:href="#m3a61ea9f76" x="368.765398" y="288.430125" style="stroke: #000000; stroke-width: 0.8"/>
      </g>
     </g>
     <g id="text_6">
      <!-- 6 -->
      <g transform="translate(365.584148 303.028562) scale(0.1 -0.1)">
       <defs>
        <path id="DejaVuSans-36" d="M 2113 2584 
Q 1688 2584 1439 2293 
Q 1191 2003 1191 1497 
Q 1191 994 1439 701 
Q 1688 409 2113 409 
Q 2538 409 2786 701 
Q 3034 994 3034 1497 
Q 3034 2003 2786 2293 
Q 2538 2584 2113 2584 
z
M 3366 4563 
L 3366 3988 
Q 3128 4100 2886 4159 
Q 2644 4219 2406 4219 
Q 1781 4219 1451 3797 
Q 1122 3375 1075 2522 
Q 1259 2794 1537 2939 
Q 1816 3084 2150 3084 
Q 2853 3084 3261 2657 
Q 3669 2231 3669 1497 
Q 3669 778 3244 343 
Q 2819 -91 2113 -91 
Q 1303 -91 875 529 
Q 447 1150 447 2328 
Q 447 3434 972 4092 
Q 1497 4750 2381 4750 
Q 2619 4750 2861 4703 
Q 3103 4656 3366 4563 
z
" transform="scale(0.015625)"/>
       </defs>
       <use xlink:href="#DejaVuSans-36"/>
      </g>
     </g>
    </g>
    <g id="text_7">
     <!-- Parent location -->
     <g transform="translate(169.007656 316.706687) scale(0.1 -0.1)">
      <defs>
       <path id="DejaVuSans-50" d="M 1259 4147 
L 1259 2394 
L 2053 2394 
Q 2494 2394 2734 2622 
Q 2975 2850 2975 3272 
Q 2975 3691 2734 3919 
Q 2494 4147 2053 4147 
L 1259 4147 
z
M 628 4666 
L 2053 4666 
Q 2838 4666 3239 4311 
Q 3641 3956 3641 3272 
Q 3641 2581 3239 2228 
Q 2838 1875 2053 1875 
L 1259 1875 
L 1259 0 
L 628 0 
L 628 4666 
z
" transform="scale(0.015625)"/>
       <path id="DejaVuSans-61" d="M 2194 1759 
Q 1497 1759 1228 1600 
Q 959 1441 959 1056 
Q 959 750 1161 570 
Q 1363 391 1709 391 
Q 2188 391 2477 730 
Q 2766 1069 2766 1631 
L 2766 1759 
L 2194 1759 
z
M 3341 1997 
L 3341 0 
L 2766 0 
L 2766 531 
Q 2569 213 2275 61 
Q 1981 -91 1556 -91 
Q 1019 -91 701 211 
Q 384 513 384 1019 
Q 384 1609 779 1909 
Q 1175 2209 1959 2209 
L 2766 2209 
L 2766 2266 
Q 2766 2663 2505 2880 
Q 2244 3097 1772 3097 
Q 1472 3097 1187 3025 
Q 903 2953 641 2809 
L 641 3341 
Q 956 3463 1253 3523 
Q 1550 3584 1831 3584 
Q 2591 3584 2966 3190 
Q 3341 2797 3341 1997 
z
" transform="scale(0.015625)"/>
       <path id="DejaVuSans-72" d="M 2631 2963 
Q 2534 3019 2420 3045 
Q 2306 3072 2169 3072 
Q 1681 3072 1420 2755 
Q 1159 2438 1159 1844 
L 1159 0 
L 581 0 
L 581 3500 
L 1159 3500 
L 1159 2956 
Q 1341 3275 1631 3429 
Q 1922 3584 2338 3584 
Q 2397 3584 2469 3576 
Q 2541 3569 2628 3553 
L 2631 2963 
z
" transform="scale(0.015625)"/>
       <path id="DejaVuSans-65" d="M 3597 1894 
L 3597 1613 
L 953 1613 
Q 991 1019 1311 708 
Q 1631 397 2203 397 
Q 2534 397 2845 478 
Q 3156 559 3463 722 
L 3463 178 
Q 3153 47 2828 -22 
Q 2503 -91 2169 -91 
Q 1331 -91 842 396 
Q 353 884 353 1716 
Q 353 2575 817 3079 
Q 1281 3584 2069 3584 
Q 2775 3584 3186 3129 
Q 3597 2675 3597 1894 
z
M 3022 2063 
Q 3016 2534 2758 2815 
Q 2500 3097 2075 3097 
Q 1594 3097 1305 2825 
Q 1016 2553 972 2059 
L 3022 2063 
z
" transform="scale(0.015625)"/>
       <path id="DejaVuSans-6e" d="M 3513 2113 
L 3513 0 
L 2938 0 
L 2938 2094 
Q 2938 2591 2744 2837 
Q 2550 3084 2163 3084 
Q 1697 3084 1428 2787 
Q 1159 2491 1159 1978 
L 1159 0 
L 581 0 
L 581 3500 
L 1159 3500 
L 1159 2956 
Q 1366 3272 1645 3428 
Q 1925 3584 2291 3584 
Q 2894 3584 3203 3211 
Q 3513 2838 3513 2113 
z
" transform="scale(0.015625)"/>
       <path id="DejaVuSans-74" d="M 1172 4494 
L 1172 3500 
L 2356 3500 
L 2356 3053 
L 1172 3053 
L 1172 1153 
Q 1172 725 1289 603 
Q 1406 481 1766 481 
L 2356 481 
L 2356 0 
L 1766 0 
Q 1100 0 847 248 
Q 594 497 594 1153 
L 594 3053 
L 172 3053 
L 172 3500 
L 594 3500 
L 594 4494 
L 1172 4494 
z
" transform="scale(0.015625)"/>
       <path id="DejaVuSans-20" transform="scale(0.015625)"/>
       <path id="DejaVuSans-6c" d="M 603 4863 
L 1178 4863 
L 1178 0 
L 603 0 
L 603 4863 
z
" transform="scale(0.015625)"/>
       <path id="DejaVuSans-6f" d="M 1959 3097 
Q 1497 3097 1228 2736 
Q 959 2375 959 1747 
Q 959 1119 1226 758 
Q 1494 397 1959 397 
Q 2419 397 2687 759 
Q 2956 1122 2956 1747 
Q 2956 2369 2687 2733 
Q 2419 3097 1959 3097 
z
M 1959 3584 
Q 2709 3584 3137 3096 
Q 3566 2609 3566 1747 
Q 3566 888 3137 398 
Q 2709 -91 1959 -91 
Q 1206 -91 779 398 
Q 353 888 353 1747 
Q 353 2609 779 3096 
Q 1206 3584 1959 3584 
z
" transform="scale(0.015625)"/>
       <path id="DejaVuSans-63" d="M 3122 3366 
L 3122 2828 
Q 2878 2963 2633 3030 
Q 2388 3097 2138 3097 
Q 1578 3097 1268 2742 
Q 959 2388 959 1747 
Q 959 1106 1268 751 
Q 1578 397 2138 397 
Q 2388 397 2633 464 
Q 2878 531 3122 666 
L 3122 134 
Q 2881 22 2623 -34 
Q 2366 -91 2075 -91 
Q 1284 -91 818 406 
Q 353 903 353 1747 
Q 353 2603 823 3093 
Q 1294 3584 2113 3584 
Q 2378 3584 2631 3529 
Q 2884 3475 3122 3366 
z
" transform="scale(0.015625)"/>
       <path id="DejaVuSans-69" d="M 603 3500 
L 1178 3500 
L 1178 0 
L 603 0 
L 603 3500 
z
M 603 4863 
L 1178 4863 
L 1178 4134 
L 603 4134 
L 603 4863 
z
" transform="scale(0.015625)"/>
      </defs>
      <use xlink:href="#DejaVuSans-50"/>
      <use xlink:href="#DejaVuSans-61" x="55.802734"/>
      <use xlink:href="#DejaVuSans-72" x="117.082031"/>
      <use xlink:href="#DejaVuSans-65" x="155.945312"/>
      <use xlink:href="#DejaVuSans-6e" x="217.46875"/>
      <use xlink:href="#DejaVuSans-74" x="280.847656"/>
      <use xlink:href="#DejaVuSans-20" x="320.056641"/>
      <use xlink:href="#DejaVuSans-6c" x="351.84375"/>
      <use xlink:href="#DejaVuSans-6f" x="379.626953"/>
      <use xlink:href="#DejaVuSans-63" x="440.808594"/>
      <use xlink:href="#DejaVuSans-61" x="495.789062"/>
      <use xlink:href="#DejaVuSans-74" x="557.068359"/>
      <use xlink:href="#DejaVuSans-69" x="596.277344"/>
      <use xlink:href="#DejaVuSans-6f" x="624.060547"/>
      <use xlink:href="#DejaVuSans-6e" x="685.242188"/>
     </g>
    </g>
   </g>
   <g id="matplotlib.axis_2">
    <g id="ytick_1">
     <g id="line2d_7">
      <defs>
       <path id="m302927fef6" d="M 0 0 
L -3.5 0 
" style="stroke: #000000; stroke-width: 0.8"/>
      </defs>
      <g>
       <use xlink:href="#m302927fef6" x="27.878125" y="155.374125" style="stroke: #000000; stroke-width: 0.8"/>
      </g>
     </g>
    </g>
    <g id="text_8">
     <!-- PL -->
     <g transform="translate(14.798438 161.174906) rotate(-90) scale(0.1 -0.1)">
      <defs>
       <path id="DejaVuSans-4c" d="M 628 4666 
L 1259 4666 
L 1259 531 
L 3531 531 
L 3531 0 
L 628 0 
L 628 4666 
z
" transform="scale(0.015625)"/>
      </defs>
      <use xlink:href="#DejaVuSans-50"/>
      <use xlink:href="#DejaVuSans-4c" x="60.302734"/>
     </g>
    </g>
   </g>
   <g id="patch_3">
    <path d="M 27.878125 288.430125 
L 27.878125 22.318125 
" style="fill: none; stroke: #000000; stroke-width: 0.8; stroke-linejoin: miter; stroke-linecap: square"/>
   </g>
   <g id="patch_4">
    <path d="M 384.998125 288.430125 
L 384.998125 22.318125 
" style="fill: none; stroke: #000000; stroke-width: 0.8; stroke-linejoin: miter; stroke-linecap: square"/>
   </g>
   <g id="patch_5">
    <path d="M 27.878125 288.430125 
L 384.998125 288.430125 
" style="fill: none; stroke: #000000; stroke-width: 0.8; stroke-linejoin: miter; stroke-linecap: square"/>
   </g>
   <g id="patch_6">
    <path d="M 27.878125 22.318125 
L 384.998125 22.318125 
" style="fill: none; stroke: #000000; stroke-width: 0.8; stroke-linejoin: miter; stroke-linecap: square"/>
   </g>
   <g id="PathCollection_1">
    <defs>
     <path id="m56cbc1a52c" d="M 0 2.5 
C 0.663008 2.5 1.29895 2.236584 1.767767 1.767767 
C 2.236584 1.29895 2.5 0.663008 2.5 0 
C 2.5 -0.663008 2.236584 -1.29895 1.767767 -1.767767 
C 1.29895 -2.236584 0.663008 -2.5 0 -2.5 
C -0.663008 -2.5 -1.29895 -2.236584 -1.767767 -1.767767 
C -2.236584 -1.29895 -2.5 -0.663008 -2.5 0 
C -2.5 0.663008 -2.236584 1.29895 -1.767767 1.767767 
C -1.29895 2.236584 -0.663008 2.5 0 2.5 
z
"/>
    </defs>
    <g clip-path="url(#p90564314a6)">
     <use xlink:href="#m56cbc1a52c" x="173.97267" y="151.314382" style="fill: #1f77b4"/>
     <use xlink:href="#m56cbc1a52c" x="238.90358" y="175.62028" style="fill: #1f77b4"/>
     <use xlink:href="#m56cbc1a52c" x="44.110852" y="180.309805" style="fill: #1f77b4"/>
     <use xlink:href="#m56cbc1a52c" x="44.110852" y="177.0998" style="fill: #1f77b4"/>
     <use xlink:href="#m56cbc1a52c" x="238.90358" y="181.037591" style="fill: #1f77b4"/>
     <use xlink:href="#m56cbc1a52c" x="368.765398" y="130.084681" style="fill: #1f77b4"/>
     <use xlink:href="#m56cbc1a52c" x="238.90358" y="181.695168" style="fill: #1f77b4"/>
     <use xlink:href="#m56cbc1a52c" x="238.90358" y="131.73265" style="fill: #1f77b4"/>
     <use xlink:href="#m56cbc1a52c" x="109.041761" y="160.56706" style="fill: #1f77b4"/>
     <use xlink:href="#m56cbc1a52c" x="173.97267" y="156.250115" style="fill: #1f77b4"/>
     <use xlink:href="#m56cbc1a52c" x="303.834489" y="144.502854" style="fill: #1f77b4"/>
     <use xlink:href="#m56cbc1a52c" x="109.041761" y="167.096414" style="fill: #1f77b4"/>
     <use xlink:href="#m56cbc1a52c" x="238.90358" y="133.019313" style="fill: #1f77b4"/>
     <use xlink:href="#m56cbc1a52c" x="238.90358" y="181.365913" style="fill: #1f77b4"/>
     <use xlink:href="#m56cbc1a52c" x="109.041761" y="180.181772" style="fill: #1f77b4"/>
     <use xlink:href="#m56cbc1a52c" x="44.110852" y="174.860851" style="fill: #1f77b4"/>
     <use xlink:href="#m56cbc1a52c" x="303.834489" y="163.633804" style="fill: #1f77b4"/>
     <use xlink:href="#m56cbc1a52c" x="109.041761" y="130.940936" style="fill: #1f77b4"/>
     <use xlink:href="#m56cbc1a52c" x="238.90358" y="165.900079" style="fill: #1f77b4"/>
     <use xlink:href="#m56cbc1a52c" x="44.110852" y="151.342288" style="fill: #1f77b4"/>
     <use xlink:href="#m56cbc1a52c" x="109.041761" y="172.808511" style="fill: #1f77b4"/>
     <use xlink:href="#m56cbc1a52c" x="238.90358" y="134.660629" style="fill: #1f77b4"/>
     <use xlink:href="#m56cbc1a52c" x="44.110852" y="151.78858" style="fill: #1f77b4"/>
     <use xlink:href="#m56cbc1a52c" x="44.110852" y="165.477227" style="fill: #1f77b4"/>
     <use xlink:href="#m56cbc1a52c" x="368.765398" y="153.059325" style="fill: #1f77b4"/>
     <use xlink:href="#m56cbc1a52c" x="44.110852" y="151.581893" style="fill: #1f77b4"/>
     <use xlink:href="#m56cbc1a52c" x="109.041761" y="149.252771" style="fill: #1f77b4"/>
     <use xlink:href="#m56cbc1a52c" x="44.110852" y="158.478716" style="fill: #1f77b4"/>
     <use xlink:href="#m56cbc1a52c" x="44.110852" y="176.103736" style="fill: #1f77b4"/>
     <use xlink:href="#m56cbc1a52c" x="109.041761" y="162.784927" style="fill: #1f77b4"/>
     <use xlink:href="#m56cbc1a52c" x="368.765398" y="160.463465" style="fill: #1f77b4"/>
     <use xlink:href="#m56cbc1a52c" x="109.041761" y="167.734804" style="fill: #1f77b4"/>
     <use xlink:href="#m56cbc1a52c" x="44.110852" y="174.558893" style="fill: #1f77b4"/>
     <use xlink:href="#m56cbc1a52c" x="109.041761" y="179.62325" style="fill: #1f77b4"/>
     <use xlink:href="#m56cbc1a52c" x="44.110852" y="130.384575" style="fill: #1f77b4"/>
     <use xlink:href="#m56cbc1a52c" x="109.041761" y="144.778842" style="fill: #1f77b4"/>
     <use xlink:href="#m56cbc1a52c" x="238.90358" y="128.938261" style="fill: #1f77b4"/>
     <use xlink:href="#m56cbc1a52c" x="238.90358" y="142.160861" style="fill: #1f77b4"/>
     <use xlink:href="#m56cbc1a52c" x="44.110852" y="169.510505" style="fill: #1f77b4"/>
     <use xlink:href="#m56cbc1a52c" x="238.90358" y="155.698202" style="fill: #1f77b4"/>
     <use xlink:href="#m56cbc1a52c" x="173.97267" y="174.465739" style="fill: #1f77b4"/>
     <use xlink:href="#m56cbc1a52c" x="109.041761" y="137.503948" style="fill: #1f77b4"/>
     <use xlink:href="#m56cbc1a52c" x="109.041761" y="135.236103" style="fill: #1f77b4"/>
     <use xlink:href="#m56cbc1a52c" x="173.97267" y="139.578787" style="fill: #1f77b4"/>
     <use xlink:href="#m56cbc1a52c" x="109.041761" y="167.148198" style="fill: #1f77b4"/>
     <use xlink:href="#m56cbc1a52c" x="238.90358" y="156.916253" style="fill: #1f77b4"/>
     <use xlink:href="#m56cbc1a52c" x="44.110852" y="181.200733" style="fill: #1f77b4"/>
     <use xlink:href="#m56cbc1a52c" x="368.765398" y="140.227146" style="fill: #1f77b4"/>
     <use xlink:href="#m56cbc1a52c" x="238.90358" y="130.861659" style="fill: #1f77b4"/>
     <use xlink:href="#m56cbc1a52c" x="238.90358" y="129.196293" style="fill: #1f77b4"/>
     <use xlink:href="#m56cbc1a52c" x="44.110852" y="129.160659" style="fill: #1f77b4"/>
     <use xlink:href="#m56cbc1a52c" x="44.110852" y="167.450312" style="fill: #1f77b4"/>
     <use xlink:href="#m56cbc1a52c" x="238.90358" y="149.08022" style="fill: #1f77b4"/>
     <use xlink:href="#m56cbc1a52c" x="238.90358" y="174.172467" style="fill: #1f77b4"/>
     <use xlink:href="#m56cbc1a52c" x="44.110852" y="156.586352" style="fill: #1f77b4"/>
     <use xlink:href="#m56cbc1a52c" x="238.90358" y="136.360757" style="fill: #1f77b4"/>
     <use xlink:href="#m56cbc1a52c" x="109.041761" y="165.898991" style="fill: #1f77b4"/>
     <use xlink:href="#m56cbc1a52c" x="44.110852" y="162.604673" style="fill: #1f77b4"/>
     <use xlink:href="#m56cbc1a52c" x="44.110852" y="131.405969" style="fill: #1f77b4"/>
     <use xlink:href="#m56cbc1a52c" x="109.041761" y="177.260786" style="fill: #1f77b4"/>
     <use xlink:href="#m56cbc1a52c" x="109.041761" y="146.79492" style="fill: #1f77b4"/>
     <use xlink:href="#m56cbc1a52c" x="109.041761" y="134.622381" style="fill: #1f77b4"/>
     <use xlink:href="#m56cbc1a52c" x="238.90358" y="137.628636" style="fill: #1f77b4"/>
     <use xlink:href="#m56cbc1a52c" x="238.90358" y="167.924792" style="fill: #1f77b4"/>
     <use xlink:href="#m56cbc1a52c" x="303.834489" y="146.568535" style="fill: #1f77b4"/>
     <use xlink:href="#m56cbc1a52c" x="303.834489" y="177.888114" style="fill: #1f77b4"/>
     <use xlink:href="#m56cbc1a52c" x="173.97267" y="143.345177" style="fill: #1f77b4"/>
     <use xlink:href="#m56cbc1a52c" x="238.90358" y="166.370487" style="fill: #1f77b4"/>
     <use xlink:href="#m56cbc1a52c" x="238.90358" y="154.798713" style="fill: #1f77b4"/>
     <use xlink:href="#m56cbc1a52c" x="238.90358" y="160.039084" style="fill: #1f77b4"/>
     <use xlink:href="#m56cbc1a52c" x="109.041761" y="137.65645" style="fill: #1f77b4"/>
     <use xlink:href="#m56cbc1a52c" x="368.765398" y="136.513157" style="fill: #1f77b4"/>
     <use xlink:href="#m56cbc1a52c" x="173.97267" y="139.686651" style="fill: #1f77b4"/>
     <use xlink:href="#m56cbc1a52c" x="238.90358" y="172.26276" style="fill: #1f77b4"/>
     <use xlink:href="#m56cbc1a52c" x="44.110852" y="159.905137" style="fill: #1f77b4"/>
     <use xlink:href="#m56cbc1a52c" x="238.90358" y="151.782" style="fill: #1f77b4"/>
     <use xlink:href="#m56cbc1a52c" x="368.765398" y="133.573397" style="fill: #1f77b4"/>
     <use xlink:href="#m56cbc1a52c" x="238.90358" y="169.035879" style="fill: #1f77b4"/>
     <use xlink:href="#m56cbc1a52c" x="44.110852" y="170.979437" style="fill: #1f77b4"/>
     <use xlink:href="#m56cbc1a52c" x="44.110852" y="130.066705" style="fill: #1f77b4"/>
     <use xlink:href="#m56cbc1a52c" x="173.97267" y="144.803529" style="fill: #1f77b4"/>
     <use xlink:href="#m56cbc1a52c" x="238.90358" y="148.244621" style="fill: #1f77b4"/>
     <use xlink:href="#m56cbc1a52c" x="238.90358" y="133.055997" style="fill: #1f77b4"/>
     <use xlink:href="#m56cbc1a52c" x="44.110852" y="131.058822" style="fill: #1f77b4"/>
     <use xlink:href="#m56cbc1a52c" x="44.110852" y="166.559081" style="fill: #1f77b4"/>
     <use xlink:href="#m56cbc1a52c" x="368.765398" y="130.572445" style="fill: #1f77b4"/>
     <use xlink:href="#m56cbc1a52c" x="44.110852" y="157.056267" style="fill: #1f77b4"/>
     <use xlink:href="#m56cbc1a52c" x="44.110852" y="154.079983" style="fill: #1f77b4"/>
     <use xlink:href="#m56cbc1a52c" x="109.041761" y="143.537507" style="fill: #1f77b4"/>
     <use xlink:href="#m56cbc1a52c" x="238.90358" y="144.206113" style="fill: #1f77b4"/>
     <use xlink:href="#m56cbc1a52c" x="173.97267" y="152.083259" style="fill: #1f77b4"/>
     <use xlink:href="#m56cbc1a52c" x="44.110852" y="174.958162" style="fill: #1f77b4"/>
     <use xlink:href="#m56cbc1a52c" x="303.834489" y="135.169073" style="fill: #1f77b4"/>
     <use xlink:href="#m56cbc1a52c" x="44.110852" y="144.80352" style="fill: #1f77b4"/>
     <use xlink:href="#m56cbc1a52c" x="303.834489" y="147.726115" style="fill: #1f77b4"/>
     <use xlink:href="#m56cbc1a52c" x="238.90358" y="163.655641" style="fill: #1f77b4"/>
     <use xlink:href="#m56cbc1a52c" x="368.765398" y="158.379596" style="fill: #1f77b4"/>
     <use xlink:href="#m56cbc1a52c" x="109.041761" y="160.721362" style="fill: #1f77b4"/>
     <use xlink:href="#m56cbc1a52c" x="44.110852" y="176.232224" style="fill: #1f77b4"/>
     <use xlink:href="#m56cbc1a52c" x="44.110852" y="163.935642" style="fill: #1f77b4"/>
     <use xlink:href="#m56cbc1a52c" x="303.834489" y="142.432725" style="fill: #1f77b4"/>
     <use xlink:href="#m56cbc1a52c" x="238.90358" y="142.27531" style="fill: #1f77b4"/>
     <use xlink:href="#m56cbc1a52c" x="238.90358" y="141.090042" style="fill: #1f77b4"/>
     <use xlink:href="#m56cbc1a52c" x="173.97267" y="132.836365" style="fill: #1f77b4"/>
     <use xlink:href="#m56cbc1a52c" x="173.97267" y="178.603572" style="fill: #1f77b4"/>
     <use xlink:href="#m56cbc1a52c" x="109.041761" y="145.436805" style="fill: #1f77b4"/>
     <use xlink:href="#m56cbc1a52c" x="368.765398" y="131.22811" style="fill: #1f77b4"/>
     <use xlink:href="#m56cbc1a52c" x="109.041761" y="180.604847" style="fill: #1f77b4"/>
     <use xlink:href="#m56cbc1a52c" x="109.041761" y="149.439253" style="fill: #1f77b4"/>
     <use xlink:href="#m56cbc1a52c" x="368.765398" y="171.36579" style="fill: #1f77b4"/>
     <use xlink:href="#m56cbc1a52c" x="238.90358" y="143.07942" style="fill: #1f77b4"/>
     <use xlink:href="#m56cbc1a52c" x="238.90358" y="154.986018" style="fill: #1f77b4"/>
     <use xlink:href="#m56cbc1a52c" x="173.97267" y="144.823304" style="fill: #1f77b4"/>
     <use xlink:href="#m56cbc1a52c" x="44.110852" y="167.459136" style="fill: #1f77b4"/>
     <use xlink:href="#m56cbc1a52c" x="238.90358" y="165.966445" style="fill: #1f77b4"/>
     <use xlink:href="#m56cbc1a52c" x="238.90358" y="178.751956" style="fill: #1f77b4"/>
     <use xlink:href="#m56cbc1a52c" x="44.110852" y="145.352605" style="fill: #1f77b4"/>
     <use xlink:href="#m56cbc1a52c" x="109.041761" y="173.063636" style="fill: #1f77b4"/>
     <use xlink:href="#m56cbc1a52c" x="368.765398" y="172.024758" style="fill: #1f77b4"/>
     <use xlink:href="#m56cbc1a52c" x="44.110852" y="137.877558" style="fill: #1f77b4"/>
     <use xlink:href="#m56cbc1a52c" x="44.110852" y="156.503374" style="fill: #1f77b4"/>
     <use xlink:href="#m56cbc1a52c" x="44.110852" y="180.590796" style="fill: #1f77b4"/>
     <use xlink:href="#m56cbc1a52c" x="238.90358" y="170.041246" style="fill: #1f77b4"/>
     <use xlink:href="#m56cbc1a52c" x="238.90358" y="154.2242" style="fill: #1f77b4"/>
     <use xlink:href="#m56cbc1a52c" x="368.765398" y="142.428413" style="fill: #1f77b4"/>
     <use xlink:href="#m56cbc1a52c" x="368.765398" y="133.674778" style="fill: #1f77b4"/>
     <use xlink:href="#m56cbc1a52c" x="238.90358" y="167.792417" style="fill: #1f77b4"/>
     <use xlink:href="#m56cbc1a52c" x="303.834489" y="142.361234" style="fill: #1f77b4"/>
     <use xlink:href="#m56cbc1a52c" x="173.97267" y="152.211032" style="fill: #1f77b4"/>
     <use xlink:href="#m56cbc1a52c" x="109.041761" y="161.903526" style="fill: #1f77b4"/>
     <use xlink:href="#m56cbc1a52c" x="238.90358" y="130.287329" style="fill: #1f77b4"/>
     <use xlink:href="#m56cbc1a52c" x="238.90358" y="136.849165" style="fill: #1f77b4"/>
     <use xlink:href="#m56cbc1a52c" x="173.97267" y="140.159308" style="fill: #1f77b4"/>
     <use xlink:href="#m56cbc1a52c" x="238.90358" y="150.201621" style="fill: #1f77b4"/>
     <use xlink:href="#m56cbc1a52c" x="44.110852" y="138.062897" style="fill: #1f77b4"/>
     <use xlink:href="#m56cbc1a52c" x="303.834489" y="137.589825" style="fill: #1f77b4"/>
     <use xlink:href="#m56cbc1a52c" x="303.834489" y="160.958532" style="fill: #1f77b4"/>
     <use xlink:href="#m56cbc1a52c" x="44.110852" y="145.439072" style="fill: #1f77b4"/>
     <use xlink:href="#m56cbc1a52c" x="109.041761" y="173.517087" style="fill: #1f77b4"/>
     <use xlink:href="#m56cbc1a52c" x="173.97267" y="172.462488" style="fill: #1f77b4"/>
     <use xlink:href="#m56cbc1a52c" x="238.90358" y="165.981703" style="fill: #1f77b4"/>
     <use xlink:href="#m56cbc1a52c" x="238.90358" y="158.869417" style="fill: #1f77b4"/>
     <use xlink:href="#m56cbc1a52c" x="44.110852" y="175.671923" style="fill: #1f77b4"/>
     <use xlink:href="#m56cbc1a52c" x="238.90358" y="155.925954" style="fill: #1f77b4"/>
     <use xlink:href="#m56cbc1a52c" x="173.97267" y="179.481052" style="fill: #1f77b4"/>
     <use xlink:href="#m56cbc1a52c" x="238.90358" y="129.573948" style="fill: #1f77b4"/>
     <use xlink:href="#m56cbc1a52c" x="109.041761" y="168.259395" style="fill: #1f77b4"/>
     <use xlink:href="#m56cbc1a52c" x="109.041761" y="139.898643" style="fill: #1f77b4"/>
     <use xlink:href="#m56cbc1a52c" x="238.90358" y="155.131117" style="fill: #1f77b4"/>
     <use xlink:href="#m56cbc1a52c" x="368.765398" y="152.618581" style="fill: #1f77b4"/>
     <use xlink:href="#m56cbc1a52c" x="109.041761" y="149.725068" style="fill: #1f77b4"/>
     <use xlink:href="#m56cbc1a52c" x="368.765398" y="138.558545" style="fill: #1f77b4"/>
     <use xlink:href="#m56cbc1a52c" x="173.97267" y="177.896858" style="fill: #1f77b4"/>
     <use xlink:href="#m56cbc1a52c" x="44.110852" y="148.804154" style="fill: #1f77b4"/>
     <use xlink:href="#m56cbc1a52c" x="44.110852" y="145.622384" style="fill: #1f77b4"/>
    </g>
   </g>
   <g id="text_9">
    <!-- Strip plots - Parent Location -->
    <g transform="translate(123.33625 16.318125) scale(0.12 -0.12)">
     <defs>
      <path id="DejaVuSans-53" d="M 3425 4513 
L 3425 3897 
Q 3066 4069 2747 4153 
Q 2428 4238 2131 4238 
Q 1616 4238 1336 4038 
Q 1056 3838 1056 3469 
Q 1056 3159 1242 3001 
Q 1428 2844 1947 2747 
L 2328 2669 
Q 3034 2534 3370 2195 
Q 3706 1856 3706 1288 
Q 3706 609 3251 259 
Q 2797 -91 1919 -91 
Q 1588 -91 1214 -16 
Q 841 59 441 206 
L 441 856 
Q 825 641 1194 531 
Q 1563 422 1919 422 
Q 2459 422 2753 634 
Q 3047 847 3047 1241 
Q 3047 1584 2836 1778 
Q 2625 1972 2144 2069 
L 1759 2144 
Q 1053 2284 737 2584 
Q 422 2884 422 3419 
Q 422 4038 858 4394 
Q 1294 4750 2059 4750 
Q 2388 4750 2728 4690 
Q 3069 4631 3425 4513 
z
" transform="scale(0.015625)"/>
      <path id="DejaVuSans-70" d="M 1159 525 
L 1159 -1331 
L 581 -1331 
L 581 3500 
L 1159 3500 
L 1159 2969 
Q 1341 3281 1617 3432 
Q 1894 3584 2278 3584 
Q 2916 3584 3314 3078 
Q 3713 2572 3713 1747 
Q 3713 922 3314 415 
Q 2916 -91 2278 -91 
Q 1894 -91 1617 61 
Q 1341 213 1159 525 
z
M 3116 1747 
Q 3116 2381 2855 2742 
Q 2594 3103 2138 3103 
Q 1681 3103 1420 2742 
Q 1159 2381 1159 1747 
Q 1159 1113 1420 752 
Q 1681 391 2138 391 
Q 2594 391 2855 752 
Q 3116 1113 3116 1747 
z
" transform="scale(0.015625)"/>
      <path id="DejaVuSans-73" d="M 2834 3397 
L 2834 2853 
Q 2591 2978 2328 3040 
Q 2066 3103 1784 3103 
Q 1356 3103 1142 2972 
Q 928 2841 928 2578 
Q 928 2378 1081 2264 
Q 1234 2150 1697 2047 
L 1894 2003 
Q 2506 1872 2764 1633 
Q 3022 1394 3022 966 
Q 3022 478 2636 193 
Q 2250 -91 1575 -91 
Q 1294 -91 989 -36 
Q 684 19 347 128 
L 347 722 
Q 666 556 975 473 
Q 1284 391 1588 391 
Q 1994 391 2212 530 
Q 2431 669 2431 922 
Q 2431 1156 2273 1281 
Q 2116 1406 1581 1522 
L 1381 1569 
Q 847 1681 609 1914 
Q 372 2147 372 2553 
Q 372 3047 722 3315 
Q 1072 3584 1716 3584 
Q 2034 3584 2315 3537 
Q 2597 3491 2834 3397 
z
" transform="scale(0.015625)"/>
      <path id="DejaVuSans-2d" d="M 313 2009 
L 1997 2009 
L 1997 1497 
L 313 1497 
L 313 2009 
z
" transform="scale(0.015625)"/>
     </defs>
     <use xlink:href="#DejaVuSans-53"/>
     <use xlink:href="#DejaVuSans-74" x="63.476562"/>
     <use xlink:href="#DejaVuSans-72" x="102.685547"/>
     <use xlink:href="#DejaVuSans-69" x="143.798828"/>
     <use xlink:href="#DejaVuSans-70" x="171.582031"/>
     <use xlink:href="#DejaVuSans-20" x="235.058594"/>
     <use xlink:href="#DejaVuSans-70" x="266.845703"/>
     <use xlink:href="#DejaVuSans-6c" x="330.322266"/>
     <use xlink:href="#DejaVuSans-6f" x="358.105469"/>
     <use xlink:href="#DejaVuSans-74" x="419.287109"/>
     <use xlink:href="#DejaVuSans-73" x="458.496094"/>
     <use xlink:href="#DejaVuSans-20" x="510.595703"/>
     <use xlink:href="#DejaVuSans-2d" x="542.382812"/>
     <use xlink:href="#DejaVuSans-20" x="578.466797"/>
     <use xlink:href="#DejaVuSans-50" x="610.253906"/>
     <use xlink:href="#DejaVuSans-61" x="666.056641"/>
     <use xlink:href="#DejaVuSans-72" x="727.335938"/>
     <use xlink:href="#DejaVuSans-65" x="766.199219"/>
     <use xlink:href="#DejaVuSans-6e" x="827.722656"/>
     <use xlink:href="#DejaVuSans-74" x="891.101562"/>
     <use xlink:href="#DejaVuSans-20" x="930.310547"/>
     <use xlink:href="#DejaVuSans-4c" x="962.097656"/>
     <use xlink:href="#DejaVuSans-6f" x="1016.060547"/>
     <use xlink:href="#DejaVuSans-63" x="1077.242188"/>
     <use xlink:href="#DejaVuSans-61" x="1132.222656"/>
     <use xlink:href="#DejaVuSans-74" x="1193.501953"/>
     <use xlink:href="#DejaVuSans-69" x="1232.710938"/>
     <use xlink:href="#DejaVuSans-6f" x="1260.494141"/>
     <use xlink:href="#DejaVuSans-6e" x="1321.675781"/>
    </g>
   </g>
  </g>
 </g>
 <defs>
  <clipPath id="p90564314a6">
   <rect x="27.878125" y="22.318125" width="357.12" height="266.112"/>
  </clipPath>
 </defs>
</svg>
