<?xml version="1.0" encoding="utf-8" standalone="no"?>
<!DOCTYPE svg PUBLIC "-//W3C//DTD SVG 1.1//EN"
  "http://www.w3.org/Graphics/SVG/1.1/DTD/svg11.dtd">
<svg xmlns:xlink="http://www.w3.org/1999/xlink" width="392.198125pt" height="325.986375pt" viewBox="0 0 392.198125 325.986375" xmlns="http://www.w3.org/2000/svg" version="1.1">
 <metadata>
  <rdf:RDF xmlns:dc="http://purl.org/dc/elements/1.1/" xmlns:cc="http://creativecommons.org/ns#" xmlns:rdf="http://www.w3.org/1999/02/22-rdf-syntax-ns#">
   <cc:Work>
    <dc:type rdf:resource="http://purl.org/dc/dcmitype/StillImage"/>
    <dc:date>2024-03-09T17:02:49.570443</dc:date>
    <dc:format>image/svg+xml</dc:format>
    <dc:creator>
     <cc:Agent>
      <dc:title>Matplotlib v3.7.0, https://matplotlib.org/</dc:title>
     </cc:Agent>
    </dc:creator>
   </cc:Work>
  </rdf:RDF>
 </metadata>
 <defs>
  <style type="text/css">*{stroke-linejoin: round; stroke-linecap: butt}</style>
 </defs>
 <g id="figure_1">
  <g id="patch_1">
   <path d="M 0 325.986375 
L 392.198125 325.986375 
L 392.198125 0 
L 0 0 
L 0 325.986375 
z
" style="fill: none"/>
  </g>
  <g id="axes_1">
   <g id="patch_2">
    <path d="M 27.878125 288.430125 
L 384.998125 288.430125 
L 384.998125 22.318125 
L 27.878125 22.318125 
L 27.878125 288.430125 
z
" style="fill: none"/>
   </g>
   <g id="matplotlib.axis_1">
    <g id="xtick_1">
     <g id="line2d_1">
      <defs>
       <path id="m4fb50ba446" d="M 0 0 
L 0 3.5 
" style="stroke: #000000; stroke-width: 0.8"/>
      </defs>
      <g>
       <use xlink:href="#m4fb50ba446" x="41.877698" y="288.430125" style="stroke: #000000; stroke-width: 0.8"/>
      </g>
     </g>
     <g id="text_1">
      <!-- 0 -->
      <g transform="translate(38.696448 303.028562) scale(0.1 -0.1)">
       <defs>
        <path id="DejaVuSans-30" d="M 2034 4250 
Q 1547 4250 1301 3770 
Q 1056 3291 1056 2328 
Q 1056 1369 1301 889 
Q 1547 409 2034 409 
Q 2525 409 2770 889 
Q 3016 1369 3016 2328 
Q 3016 3291 2770 3770 
Q 2525 4250 2034 4250 
z
M 2034 4750 
Q 2819 4750 3233 4129 
Q 3647 3509 3647 2328 
Q 3647 1150 3233 529 
Q 2819 -91 2034 -91 
Q 1250 -91 836 529 
Q 422 1150 422 2328 
Q 422 3509 836 4129 
Q 1250 4750 2034 4750 
z
" transform="scale(0.015625)"/>
       </defs>
       <use xlink:href="#DejaVuSans-30"/>
      </g>
     </g>
    </g>
    <g id="xtick_2">
     <g id="line2d_2">
      <g>
       <use xlink:href="#m4fb50ba446" x="88.926854" y="288.430125" style="stroke: #000000; stroke-width: 0.8"/>
      </g>
     </g>
     <g id="text_2">
      <!-- 10 -->
      <g transform="translate(82.564354 303.028562) scale(0.1 -0.1)">
       <defs>
        <path id="DejaVuSans-31" d="M 794 531 
L 1825 531 
L 1825 4091 
L 703 3866 
L 703 4441 
L 1819 4666 
L 2450 4666 
L 2450 531 
L 3481 531 
L 3481 0 
L 794 0 
L 794 531 
z
" transform="scale(0.015625)"/>
       </defs>
       <use xlink:href="#DejaVuSans-31"/>
       <use xlink:href="#DejaVuSans-30" x="63.623047"/>
      </g>
     </g>
    </g>
    <g id="xtick_3">
     <g id="line2d_3">
      <g>
       <use xlink:href="#m4fb50ba446" x="135.976009" y="288.430125" style="stroke: #000000; stroke-width: 0.8"/>
      </g>
     </g>
     <g id="text_3">
      <!-- 20 -->
      <g transform="translate(129.613509 303.028562) scale(0.1 -0.1)">
       <defs>
        <path id="DejaVuSans-32" d="M 1228 531 
L 3431 531 
L 3431 0 
L 469 0 
L 469 531 
Q 828 903 1448 1529 
Q 2069 2156 2228 2338 
Q 2531 2678 2651 2914 
Q 2772 3150 2772 3378 
Q 2772 3750 2511 3984 
Q 2250 4219 1831 4219 
Q 1534 4219 1204 4116 
Q 875 4013 500 3803 
L 500 4441 
Q 881 4594 1212 4672 
Q 1544 4750 1819 4750 
Q 2544 4750 2975 4387 
Q 3406 4025 3406 3419 
Q 3406 3131 3298 2873 
Q 3191 2616 2906 2266 
Q 2828 2175 2409 1742 
Q 1991 1309 1228 531 
z
" transform="scale(0.015625)"/>
       </defs>
       <use xlink:href="#DejaVuSans-32"/>
       <use xlink:href="#DejaVuSans-30" x="63.623047"/>
      </g>
     </g>
    </g>
    <g id="xtick_4">
     <g id="line2d_4">
      <g>
       <use xlink:href="#m4fb50ba446" x="183.025165" y="288.430125" style="stroke: #000000; stroke-width: 0.8"/>
      </g>
     </g>
     <g id="text_4">
      <!-- 30 -->
      <g transform="translate(176.662665 303.028562) scale(0.1 -0.1)">
       <defs>
        <path id="DejaVuSans-33" d="M 2597 2516 
Q 3050 2419 3304 2112 
Q 3559 1806 3559 1356 
Q 3559 666 3084 287 
Q 2609 -91 1734 -91 
Q 1441 -91 1130 -33 
Q 819 25 488 141 
L 488 750 
Q 750 597 1062 519 
Q 1375 441 1716 441 
Q 2309 441 2620 675 
Q 2931 909 2931 1356 
Q 2931 1769 2642 2001 
Q 2353 2234 1838 2234 
L 1294 2234 
L 1294 2753 
L 1863 2753 
Q 2328 2753 2575 2939 
Q 2822 3125 2822 3475 
Q 2822 3834 2567 4026 
Q 2313 4219 1838 4219 
Q 1578 4219 1281 4162 
Q 984 4106 628 3988 
L 628 4550 
Q 988 4650 1302 4700 
Q 1616 4750 1894 4750 
Q 2613 4750 3031 4423 
Q 3450 4097 3450 3541 
Q 3450 3153 3228 2886 
Q 3006 2619 2597 2516 
z
" transform="scale(0.015625)"/>
       </defs>
       <use xlink:href="#DejaVuSans-33"/>
       <use xlink:href="#DejaVuSans-30" x="63.623047"/>
      </g>
     </g>
    </g>
    <g id="xtick_5">
     <g id="line2d_5">
      <g>
       <use xlink:href="#m4fb50ba446" x="230.07432" y="288.430125" style="stroke: #000000; stroke-width: 0.8"/>
      </g>
     </g>
     <g id="text_5">
      <!-- 40 -->
      <g transform="translate(223.71182 303.028562) scale(0.1 -0.1)">
       <defs>
        <path id="DejaVuSans-34" d="M 2419 4116 
L 825 1625 
L 2419 1625 
L 2419 4116 
z
M 2253 4666 
L 3047 4666 
L 3047 1625 
L 3713 1625 
L 3713 1100 
L 3047 1100 
L 3047 0 
L 2419 0 
L 2419 1100 
L 313 1100 
L 313 1709 
L 2253 4666 
z
" transform="scale(0.015625)"/>
       </defs>
       <use xlink:href="#DejaVuSans-34"/>
       <use xlink:href="#DejaVuSans-30" x="63.623047"/>
      </g>
     </g>
    </g>
    <g id="xtick_6">
     <g id="line2d_6">
      <g>
       <use xlink:href="#m4fb50ba446" x="277.123476" y="288.430125" style="stroke: #000000; stroke-width: 0.8"/>
      </g>
     </g>
     <g id="text_6">
      <!-- 50 -->
      <g transform="translate(270.760976 303.028562) scale(0.1 -0.1)">
       <defs>
        <path id="DejaVuSans-35" d="M 691 4666 
L 3169 4666 
L 3169 4134 
L 1269 4134 
L 1269 2991 
Q 1406 3038 1543 3061 
Q 1681 3084 1819 3084 
Q 2600 3084 3056 2656 
Q 3513 2228 3513 1497 
Q 3513 744 3044 326 
Q 2575 -91 1722 -91 
Q 1428 -91 1123 -41 
Q 819 9 494 109 
L 494 744 
Q 775 591 1075 516 
Q 1375 441 1709 441 
Q 2250 441 2565 725 
Q 2881 1009 2881 1497 
Q 2881 1984 2565 2268 
Q 2250 2553 1709 2553 
Q 1456 2553 1204 2497 
Q 953 2441 691 2322 
L 691 4666 
z
" transform="scale(0.015625)"/>
       </defs>
       <use xlink:href="#DejaVuSans-35"/>
       <use xlink:href="#DejaVuSans-30" x="63.623047"/>
      </g>
     </g>
    </g>
    <g id="xtick_7">
     <g id="line2d_7">
      <g>
       <use xlink:href="#m4fb50ba446" x="324.172632" y="288.430125" style="stroke: #000000; stroke-width: 0.8"/>
      </g>
     </g>
     <g id="text_7">
      <!-- 60 -->
      <g transform="translate(317.810132 303.028562) scale(0.1 -0.1)">
       <defs>
        <path id="DejaVuSans-36" d="M 2113 2584 
Q 1688 2584 1439 2293 
Q 1191 2003 1191 1497 
Q 1191 994 1439 701 
Q 1688 409 2113 409 
Q 2538 409 2786 701 
Q 3034 994 3034 1497 
Q 3034 2003 2786 2293 
Q 2538 2584 2113 2584 
z
M 3366 4563 
L 3366 3988 
Q 3128 4100 2886 4159 
Q 2644 4219 2406 4219 
Q 1781 4219 1451 3797 
Q 1122 3375 1075 2522 
Q 1259 2794 1537 2939 
Q 1816 3084 2150 3084 
Q 2853 3084 3261 2657 
Q 3669 2231 3669 1497 
Q 3669 778 3244 343 
Q 2819 -91 2113 -91 
Q 1303 -91 875 529 
Q 447 1150 447 2328 
Q 447 3434 972 4092 
Q 1497 4750 2381 4750 
Q 2619 4750 2861 4703 
Q 3103 4656 3366 4563 
z
" transform="scale(0.015625)"/>
       </defs>
       <use xlink:href="#DejaVuSans-36"/>
       <use xlink:href="#DejaVuSans-30" x="63.623047"/>
      </g>
     </g>
    </g>
    <g id="xtick_8">
     <g id="line2d_8">
      <g>
       <use xlink:href="#m4fb50ba446" x="371.221787" y="288.430125" style="stroke: #000000; stroke-width: 0.8"/>
      </g>
     </g>
     <g id="text_8">
      <!-- 70 -->
      <g transform="translate(364.859287 303.028562) scale(0.1 -0.1)">
       <defs>
        <path id="DejaVuSans-37" d="M 525 4666 
L 3525 4666 
L 3525 4397 
L 1831 0 
L 1172 0 
L 2766 4134 
L 525 4134 
L 525 4666 
z
" transform="scale(0.015625)"/>
       </defs>
       <use xlink:href="#DejaVuSans-37"/>
       <use xlink:href="#DejaVuSans-30" x="63.623047"/>
      </g>
     </g>
    </g>
    <g id="text_9">
     <!-- Poultry kgpercapita(2019) -->
     <g transform="translate(141.132656 316.706687) scale(0.1 -0.1)">
      <defs>
       <path id="DejaVuSans-50" d="M 1259 4147 
L 1259 2394 
L 2053 2394 
Q 2494 2394 2734 2622 
Q 2975 2850 2975 3272 
Q 2975 3691 2734 3919 
Q 2494 4147 2053 4147 
L 1259 4147 
z
M 628 4666 
L 2053 4666 
Q 2838 4666 3239 4311 
Q 3641 3956 3641 3272 
Q 3641 2581 3239 2228 
Q 2838 1875 2053 1875 
L 1259 1875 
L 1259 0 
L 628 0 
L 628 4666 
z
" transform="scale(0.015625)"/>
       <path id="DejaVuSans-6f" d="M 1959 3097 
Q 1497 3097 1228 2736 
Q 959 2375 959 1747 
Q 959 1119 1226 758 
Q 1494 397 1959 397 
Q 2419 397 2687 759 
Q 2956 1122 2956 1747 
Q 2956 2369 2687 2733 
Q 2419 3097 1959 3097 
z
M 1959 3584 
Q 2709 3584 3137 3096 
Q 3566 2609 3566 1747 
Q 3566 888 3137 398 
Q 2709 -91 1959 -91 
Q 1206 -91 779 398 
Q 353 888 353 1747 
Q 353 2609 779 3096 
Q 1206 3584 1959 3584 
z
" transform="scale(0.015625)"/>
       <path id="DejaVuSans-75" d="M 544 1381 
L 544 3500 
L 1119 3500 
L 1119 1403 
Q 1119 906 1312 657 
Q 1506 409 1894 409 
Q 2359 409 2629 706 
Q 2900 1003 2900 1516 
L 2900 3500 
L 3475 3500 
L 3475 0 
L 2900 0 
L 2900 538 
Q 2691 219 2414 64 
Q 2138 -91 1772 -91 
Q 1169 -91 856 284 
Q 544 659 544 1381 
z
M 1991 3584 
L 1991 3584 
z
" transform="scale(0.015625)"/>
       <path id="DejaVuSans-6c" d="M 603 4863 
L 1178 4863 
L 1178 0 
L 603 0 
L 603 4863 
z
" transform="scale(0.015625)"/>
       <path id="DejaVuSans-74" d="M 1172 4494 
L 1172 3500 
L 2356 3500 
L 2356 3053 
L 1172 3053 
L 1172 1153 
Q 1172 725 1289 603 
Q 1406 481 1766 481 
L 2356 481 
L 2356 0 
L 1766 0 
Q 1100 0 847 248 
Q 594 497 594 1153 
L 594 3053 
L 172 3053 
L 172 3500 
L 594 3500 
L 594 4494 
L 1172 4494 
z
" transform="scale(0.015625)"/>
       <path id="DejaVuSans-72" d="M 2631 2963 
Q 2534 3019 2420 3045 
Q 2306 3072 2169 3072 
Q 1681 3072 1420 2755 
Q 1159 2438 1159 1844 
L 1159 0 
L 581 0 
L 581 3500 
L 1159 3500 
L 1159 2956 
Q 1341 3275 1631 3429 
Q 1922 3584 2338 3584 
Q 2397 3584 2469 3576 
Q 2541 3569 2628 3553 
L 2631 2963 
z
" transform="scale(0.015625)"/>
       <path id="DejaVuSans-79" d="M 2059 -325 
Q 1816 -950 1584 -1140 
Q 1353 -1331 966 -1331 
L 506 -1331 
L 506 -850 
L 844 -850 
Q 1081 -850 1212 -737 
Q 1344 -625 1503 -206 
L 1606 56 
L 191 3500 
L 800 3500 
L 1894 763 
L 2988 3500 
L 3597 3500 
L 2059 -325 
z
" transform="scale(0.015625)"/>
       <path id="DejaVuSans-20" transform="scale(0.015625)"/>
       <path id="DejaVuSans-6b" d="M 581 4863 
L 1159 4863 
L 1159 1991 
L 2875 3500 
L 3609 3500 
L 1753 1863 
L 3688 0 
L 2938 0 
L 1159 1709 
L 1159 0 
L 581 0 
L 581 4863 
z
" transform="scale(0.015625)"/>
       <path id="DejaVuSans-67" d="M 2906 1791 
Q 2906 2416 2648 2759 
Q 2391 3103 1925 3103 
Q 1463 3103 1205 2759 
Q 947 2416 947 1791 
Q 947 1169 1205 825 
Q 1463 481 1925 481 
Q 2391 481 2648 825 
Q 2906 1169 2906 1791 
z
M 3481 434 
Q 3481 -459 3084 -895 
Q 2688 -1331 1869 -1331 
Q 1566 -1331 1297 -1286 
Q 1028 -1241 775 -1147 
L 775 -588 
Q 1028 -725 1275 -790 
Q 1522 -856 1778 -856 
Q 2344 -856 2625 -561 
Q 2906 -266 2906 331 
L 2906 616 
Q 2728 306 2450 153 
Q 2172 0 1784 0 
Q 1141 0 747 490 
Q 353 981 353 1791 
Q 353 2603 747 3093 
Q 1141 3584 1784 3584 
Q 2172 3584 2450 3431 
Q 2728 3278 2906 2969 
L 2906 3500 
L 3481 3500 
L 3481 434 
z
" transform="scale(0.015625)"/>
       <path id="DejaVuSans-70" d="M 1159 525 
L 1159 -1331 
L 581 -1331 
L 581 3500 
L 1159 3500 
L 1159 2969 
Q 1341 3281 1617 3432 
Q 1894 3584 2278 3584 
Q 2916 3584 3314 3078 
Q 3713 2572 3713 1747 
Q 3713 922 3314 415 
Q 2916 -91 2278 -91 
Q 1894 -91 1617 61 
Q 1341 213 1159 525 
z
M 3116 1747 
Q 3116 2381 2855 2742 
Q 2594 3103 2138 3103 
Q 1681 3103 1420 2742 
Q 1159 2381 1159 1747 
Q 1159 1113 1420 752 
Q 1681 391 2138 391 
Q 2594 391 2855 752 
Q 3116 1113 3116 1747 
z
" transform="scale(0.015625)"/>
       <path id="DejaVuSans-65" d="M 3597 1894 
L 3597 1613 
L 953 1613 
Q 991 1019 1311 708 
Q 1631 397 2203 397 
Q 2534 397 2845 478 
Q 3156 559 3463 722 
L 3463 178 
Q 3153 47 2828 -22 
Q 2503 -91 2169 -91 
Q 1331 -91 842 396 
Q 353 884 353 1716 
Q 353 2575 817 3079 
Q 1281 3584 2069 3584 
Q 2775 3584 3186 3129 
Q 3597 2675 3597 1894 
z
M 3022 2063 
Q 3016 2534 2758 2815 
Q 2500 3097 2075 3097 
Q 1594 3097 1305 2825 
Q 1016 2553 972 2059 
L 3022 2063 
z
" transform="scale(0.015625)"/>
       <path id="DejaVuSans-63" d="M 3122 3366 
L 3122 2828 
Q 2878 2963 2633 3030 
Q 2388 3097 2138 3097 
Q 1578 3097 1268 2742 
Q 959 2388 959 1747 
Q 959 1106 1268 751 
Q 1578 397 2138 397 
Q 2388 397 2633 464 
Q 2878 531 3122 666 
L 3122 134 
Q 2881 22 2623 -34 
Q 2366 -91 2075 -91 
Q 1284 -91 818 406 
Q 353 903 353 1747 
Q 353 2603 823 3093 
Q 1294 3584 2113 3584 
Q 2378 3584 2631 3529 
Q 2884 3475 3122 3366 
z
" transform="scale(0.015625)"/>
       <path id="DejaVuSans-61" d="M 2194 1759 
Q 1497 1759 1228 1600 
Q 959 1441 959 1056 
Q 959 750 1161 570 
Q 1363 391 1709 391 
Q 2188 391 2477 730 
Q 2766 1069 2766 1631 
L 2766 1759 
L 2194 1759 
z
M 3341 1997 
L 3341 0 
L 2766 0 
L 2766 531 
Q 2569 213 2275 61 
Q 1981 -91 1556 -91 
Q 1019 -91 701 211 
Q 384 513 384 1019 
Q 384 1609 779 1909 
Q 1175 2209 1959 2209 
L 2766 2209 
L 2766 2266 
Q 2766 2663 2505 2880 
Q 2244 3097 1772 3097 
Q 1472 3097 1187 3025 
Q 903 2953 641 2809 
L 641 3341 
Q 956 3463 1253 3523 
Q 1550 3584 1831 3584 
Q 2591 3584 2966 3190 
Q 3341 2797 3341 1997 
z
" transform="scale(0.015625)"/>
       <path id="DejaVuSans-69" d="M 603 3500 
L 1178 3500 
L 1178 0 
L 603 0 
L 603 3500 
z
M 603 4863 
L 1178 4863 
L 1178 4134 
L 603 4134 
L 603 4863 
z
" transform="scale(0.015625)"/>
       <path id="DejaVuSans-28" d="M 1984 4856 
Q 1566 4138 1362 3434 
Q 1159 2731 1159 2009 
Q 1159 1288 1364 580 
Q 1569 -128 1984 -844 
L 1484 -844 
Q 1016 -109 783 600 
Q 550 1309 550 2009 
Q 550 2706 781 3412 
Q 1013 4119 1484 4856 
L 1984 4856 
z
" transform="scale(0.015625)"/>
       <path id="DejaVuSans-39" d="M 703 97 
L 703 672 
Q 941 559 1184 500 
Q 1428 441 1663 441 
Q 2288 441 2617 861 
Q 2947 1281 2994 2138 
Q 2813 1869 2534 1725 
Q 2256 1581 1919 1581 
Q 1219 1581 811 2004 
Q 403 2428 403 3163 
Q 403 3881 828 4315 
Q 1253 4750 1959 4750 
Q 2769 4750 3195 4129 
Q 3622 3509 3622 2328 
Q 3622 1225 3098 567 
Q 2575 -91 1691 -91 
Q 1453 -91 1209 -44 
Q 966 3 703 97 
z
M 1959 2075 
Q 2384 2075 2632 2365 
Q 2881 2656 2881 3163 
Q 2881 3666 2632 3958 
Q 2384 4250 1959 4250 
Q 1534 4250 1286 3958 
Q 1038 3666 1038 3163 
Q 1038 2656 1286 2365 
Q 1534 2075 1959 2075 
z
" transform="scale(0.015625)"/>
       <path id="DejaVuSans-29" d="M 513 4856 
L 1013 4856 
Q 1481 4119 1714 3412 
Q 1947 2706 1947 2009 
Q 1947 1309 1714 600 
Q 1481 -109 1013 -844 
L 513 -844 
Q 928 -128 1133 580 
Q 1338 1288 1338 2009 
Q 1338 2731 1133 3434 
Q 928 4138 513 4856 
z
" transform="scale(0.015625)"/>
      </defs>
      <use xlink:href="#DejaVuSans-50"/>
      <use xlink:href="#DejaVuSans-6f" x="56.677734"/>
      <use xlink:href="#DejaVuSans-75" x="117.859375"/>
      <use xlink:href="#DejaVuSans-6c" x="181.238281"/>
      <use xlink:href="#DejaVuSans-74" x="209.021484"/>
      <use xlink:href="#DejaVuSans-72" x="248.230469"/>
      <use xlink:href="#DejaVuSans-79" x="289.34375"/>
      <use xlink:href="#DejaVuSans-20" x="348.523438"/>
      <use xlink:href="#DejaVuSans-6b" x="380.310547"/>
      <use xlink:href="#DejaVuSans-67" x="438.220703"/>
      <use xlink:href="#DejaVuSans-70" x="501.697266"/>
      <use xlink:href="#DejaVuSans-65" x="565.173828"/>
      <use xlink:href="#DejaVuSans-72" x="626.697266"/>
      <use xlink:href="#DejaVuSans-63" x="665.560547"/>
      <use xlink:href="#DejaVuSans-61" x="720.541016"/>
      <use xlink:href="#DejaVuSans-70" x="781.820312"/>
      <use xlink:href="#DejaVuSans-69" x="845.296875"/>
      <use xlink:href="#DejaVuSans-74" x="873.080078"/>
      <use xlink:href="#DejaVuSans-61" x="912.289062"/>
      <use xlink:href="#DejaVuSans-28" x="973.568359"/>
      <use xlink:href="#DejaVuSans-32" x="1012.582031"/>
      <use xlink:href="#DejaVuSans-30" x="1076.205078"/>
      <use xlink:href="#DejaVuSans-31" x="1139.828125"/>
      <use xlink:href="#DejaVuSans-39" x="1203.451172"/>
      <use xlink:href="#DejaVuSans-29" x="1267.074219"/>
     </g>
    </g>
   </g>
   <g id="matplotlib.axis_2">
    <g id="ytick_1">
     <g id="line2d_9">
      <defs>
       <path id="m8e775d1251" d="M 0 0 
L -3.5 0 
" style="stroke: #000000; stroke-width: 0.8"/>
      </defs>
      <g>
       <use xlink:href="#m8e775d1251" x="27.878125" y="155.374125" style="stroke: #000000; stroke-width: 0.8"/>
      </g>
     </g>
    </g>
    <g id="text_10">
     <!-- Poultry -->
     <g transform="translate(14.798437 172.799906) rotate(-90) scale(0.1 -0.1)">
      <use xlink:href="#DejaVuSans-50"/>
      <use xlink:href="#DejaVuSans-6f" x="56.677734"/>
      <use xlink:href="#DejaVuSans-75" x="117.859375"/>
      <use xlink:href="#DejaVuSans-6c" x="181.238281"/>
      <use xlink:href="#DejaVuSans-74" x="209.021484"/>
      <use xlink:href="#DejaVuSans-72" x="248.230469"/>
      <use xlink:href="#DejaVuSans-79" x="289.34375"/>
     </g>
    </g>
   </g>
   <g id="patch_3">
    <path d="M 27.878125 288.430125 
L 27.878125 22.318125 
" style="fill: none; stroke: #000000; stroke-width: 0.8; stroke-linejoin: miter; stroke-linecap: square"/>
   </g>
   <g id="patch_4">
    <path d="M 384.998125 288.430125 
L 384.998125 22.318125 
" style="fill: none; stroke: #000000; stroke-width: 0.8; stroke-linejoin: miter; stroke-linecap: square"/>
   </g>
   <g id="patch_5">
    <path d="M 27.878125 288.430125 
L 384.998125 288.430125 
" style="fill: none; stroke: #000000; stroke-width: 0.8; stroke-linejoin: miter; stroke-linecap: square"/>
   </g>
   <g id="patch_6">
    <path d="M 27.878125 22.318125 
L 384.998125 22.318125 
" style="fill: none; stroke: #000000; stroke-width: 0.8; stroke-linejoin: miter; stroke-linecap: square"/>
   </g>
   <g id="PathCollection_1">
    <defs>
     <path id="me9be1d9474" d="M 0 2.5 
C 0.663008 2.5 1.29895 2.236584 1.767767 1.767767 
C 2.236584 1.29895 2.5 0.663008 2.5 0 
C 2.5 -0.663008 2.236584 -1.29895 1.767767 -1.767767 
C 1.29895 -2.236584 0.663008 -2.5 0 -2.5 
C -0.663008 -2.5 -1.29895 -2.236584 -1.767767 -1.767767 
C -2.236584 -1.29895 -2.5 -0.663008 -2.5 0 
C -2.5 0.663008 -2.236584 1.29895 -1.767767 1.767767 
C -1.29895 2.236584 -0.663008 2.5 0 2.5 
z
"/>
    </defs>
    <g clip-path="url(#pe0efc50658)">
     <use xlink:href="#me9be1d9474" x="50.407592" y="152.426109" style="fill: #1f77b4"/>
     <use xlink:href="#me9be1d9474" x="99.559709" y="145.797303" style="fill: #1f77b4"/>
     <use xlink:href="#me9be1d9474" x="72.756059" y="133.600105" style="fill: #1f77b4"/>
     <use xlink:href="#me9be1d9474" x="87.510655" y="161.617185" style="fill: #1f77b4"/>
     <use xlink:href="#me9be1d9474" x="133.742242" y="172.491902" style="fill: #1f77b4"/>
     <use xlink:href="#me9be1d9474" x="272.000754" y="164.739891" style="fill: #1f77b4"/>
     <use xlink:href="#me9be1d9474" x="115.705831" y="141.491183" style="fill: #1f77b4"/>
     <use xlink:href="#me9be1d9474" x="108.957712" y="140.626015" style="fill: #1f77b4"/>
     <use xlink:href="#me9be1d9474" x="284.523329" y="168.226741" style="fill: #1f77b4"/>
     <use xlink:href="#me9be1d9474" x="261.918789" y="172.36303" style="fill: #1f77b4"/>
     <use xlink:href="#me9be1d9474" x="49.293221" y="141.770101" style="fill: #1f77b4"/>
     <use xlink:href="#me9be1d9474" x="277.698398" y="139.8297" style="fill: #1f77b4"/>
     <use xlink:href="#me9be1d9474" x="169.356943" y="133.611618" style="fill: #1f77b4"/>
     <use xlink:href="#me9be1d9474" x="101.307764" y="172.571068" style="fill: #1f77b4"/>
     <use xlink:href="#me9be1d9474" x="170.497537" y="175.486366" style="fill: #1f77b4"/>
     <use xlink:href="#me9be1d9474" x="88.04766" y="172.776721" style="fill: #1f77b4"/>
     <use xlink:href="#me9be1d9474" x="61.244961" y="169.133883" style="fill: #1f77b4"/>
     <use xlink:href="#me9be1d9474" x="237.534604" y="144.897991" style="fill: #1f77b4"/>
     <use xlink:href="#me9be1d9474" x="138.509324" y="157.458257" style="fill: #1f77b4"/>
     <use xlink:href="#me9be1d9474" x="57.313848" y="177.911726" style="fill: #1f77b4"/>
     <use xlink:href="#me9be1d9474" x="262.946304" y="150.159654" style="fill: #1f77b4"/>
     <use xlink:href="#me9be1d9474" x="149.239797" y="174.779979" style="fill: #1f77b4"/>
     <use xlink:href="#me9be1d9474" x="87.739714" y="138.853009" style="fill: #1f77b4"/>
     <use xlink:href="#me9be1d9474" x="44.481753" y="161.605049" style="fill: #1f77b4"/>
     <use xlink:href="#me9be1d9474" x="50.300786" y="135.458774" style="fill: #1f77b4"/>
     <use xlink:href="#me9be1d9474" x="57.696654" y="133.300071" style="fill: #1f77b4"/>
     <use xlink:href="#me9be1d9474" x="233.689841" y="160.98261" style="fill: #1f77b4"/>
     <use xlink:href="#me9be1d9474" x="52.977709" y="154.132021" style="fill: #1f77b4"/>
     <use xlink:href="#me9be1d9474" x="44.110852" y="151.295532" style="fill: #1f77b4"/>
     <use xlink:href="#me9be1d9474" x="223.168492" y="175.438788" style="fill: #1f77b4"/>
     <use xlink:href="#me9be1d9474" x="112.283965" y="154.518025" style="fill: #1f77b4"/>
     <use xlink:href="#me9be1d9474" x="211.343035" y="163.52264" style="fill: #1f77b4"/>
     <use xlink:href="#me9be1d9474" x="48.102962" y="154.885343" style="fill: #1f77b4"/>
     <use xlink:href="#me9be1d9474" x="221.513152" y="139.126888" style="fill: #1f77b4"/>
     <use xlink:href="#me9be1d9474" x="55.389595" y="130.111643" style="fill: #1f77b4"/>
     <use xlink:href="#me9be1d9474" x="177.391729" y="129.815817" style="fill: #1f77b4"/>
     <use xlink:href="#me9be1d9474" x="183.174786" y="142.632848" style="fill: #1f77b4"/>
     <use xlink:href="#me9be1d9474" x="151.130185" y="176.058912" style="fill: #1f77b4"/>
     <use xlink:href="#me9be1d9474" x="49.644237" y="157.52129" style="fill: #1f77b4"/>
     <use xlink:href="#me9be1d9474" x="159.950636" y="152.512245" style="fill: #1f77b4"/>
     <use xlink:href="#me9be1d9474" x="56.890208" y="170.912617" style="fill: #1f77b4"/>
     <use xlink:href="#me9be1d9474" x="206.522713" y="133.153774" style="fill: #1f77b4"/>
     <use xlink:href="#me9be1d9474" x="129.304434" y="136.445416" style="fill: #1f77b4"/>
     <use xlink:href="#me9be1d9474" x="115.977276" y="170.548679" style="fill: #1f77b4"/>
     <use xlink:href="#me9be1d9474" x="160.76461" y="172.999211" style="fill: #1f77b4"/>
     <use xlink:href="#me9be1d9474" x="144.196508" y="155.857759" style="fill: #1f77b4"/>
     <use xlink:href="#me9be1d9474" x="44.326687" y="150.932404" style="fill: #1f77b4"/>
     <use xlink:href="#me9be1d9474" x="220.081597" y="171.6379" style="fill: #1f77b4"/>
     <use xlink:href="#me9be1d9474" x="137.854042" y="165.716991" style="fill: #1f77b4"/>
     <use xlink:href="#me9be1d9474" x="146.273611" y="150.191465" style="fill: #1f77b4"/>
     <use xlink:href="#me9be1d9474" x="200.89354" y="180.042484" style="fill: #1f77b4"/>
     <use xlink:href="#me9be1d9474" x="91.363699" y="150.218181" style="fill: #1f77b4"/>
     <use xlink:href="#me9be1d9474" x="132.787657" y="152.452917" style="fill: #1f77b4"/>
     <use xlink:href="#me9be1d9474" x="123.633854" y="175.66111" style="fill: #1f77b4"/>
     <use xlink:href="#me9be1d9474" x="74.929419" y="165.364711" style="fill: #1f77b4"/>
     <use xlink:href="#me9be1d9474" x="162.575955" y="171.536078" style="fill: #1f77b4"/>
     <use xlink:href="#me9be1d9474" x="162.477458" y="134.755022" style="fill: #1f77b4"/>
     <use xlink:href="#me9be1d9474" x="54.522782" y="148.515553" style="fill: #1f77b4"/>
     <use xlink:href="#me9be1d9474" x="56.233843" y="156.178405" style="fill: #1f77b4"/>
     <use xlink:href="#me9be1d9474" x="273.981566" y="130.674898" style="fill: #1f77b4"/>
     <use xlink:href="#me9be1d9474" x="88.077541" y="154.783868" style="fill: #1f77b4"/>
     <use xlink:href="#me9be1d9474" x="148.700312" y="130.900097" style="fill: #1f77b4"/>
     <use xlink:href="#me9be1d9474" x="170.435766" y="142.335309" style="fill: #1f77b4"/>
     <use xlink:href="#me9be1d9474" x="180.658813" y="179.697414" style="fill: #1f77b4"/>
     <use xlink:href="#me9be1d9474" x="56.798184" y="160.615722" style="fill: #1f77b4"/>
     <use xlink:href="#me9be1d9474" x="111.071301" y="161.017579" style="fill: #1f77b4"/>
     <use xlink:href="#me9be1d9474" x="70.846279" y="180.78624" style="fill: #1f77b4"/>
     <use xlink:href="#me9be1d9474" x="164.289706" y="146.044668" style="fill: #1f77b4"/>
     <use xlink:href="#me9be1d9474" x="368.765398" y="162.727244" style="fill: #1f77b4"/>
     <use xlink:href="#me9be1d9474" x="134.170949" y="165.850445" style="fill: #1f77b4"/>
     <use xlink:href="#me9be1d9474" x="313.510761" y="153.703025" style="fill: #1f77b4"/>
     <use xlink:href="#me9be1d9474" x="133.406528" y="164.350018" style="fill: #1f77b4"/>
     <use xlink:href="#me9be1d9474" x="144.985311" y="141.43672" style="fill: #1f77b4"/>
     <use xlink:href="#me9be1d9474" x="135.377191" y="130.295244" style="fill: #1f77b4"/>
     <use xlink:href="#me9be1d9474" x="50.08221" y="160.967124" style="fill: #1f77b4"/>
     <use xlink:href="#me9be1d9474" x="69.564112" y="163.806906" style="fill: #1f77b4"/>
     <use xlink:href="#me9be1d9474" x="69.145304" y="144.791643" style="fill: #1f77b4"/>
     <use xlink:href="#me9be1d9474" x="155.060125" y="178.731813" style="fill: #1f77b4"/>
     <use xlink:href="#me9be1d9474" x="48.661518" y="149.680302" style="fill: #1f77b4"/>
     <use xlink:href="#me9be1d9474" x="91.829584" y="153.530457" style="fill: #1f77b4"/>
     <use xlink:href="#me9be1d9474" x="188.181809" y="158.669659" style="fill: #1f77b4"/>
     <use xlink:href="#me9be1d9474" x="178.958104" y="142.31315" style="fill: #1f77b4"/>
     <use xlink:href="#me9be1d9474" x="129.863797" y="173.476626" style="fill: #1f77b4"/>
     <use xlink:href="#me9be1d9474" x="56.532945" y="175.599097" style="fill: #1f77b4"/>
     <use xlink:href="#me9be1d9474" x="68.170769" y="177.258996" style="fill: #1f77b4"/>
     <use xlink:href="#me9be1d9474" x="254.592482" y="164.086371" style="fill: #1f77b4"/>
     <use xlink:href="#me9be1d9474" x="52.850097" y="168.741855" style="fill: #1f77b4"/>
     <use xlink:href="#me9be1d9474" x="71.360607" y="128.920355" style="fill: #1f77b4"/>
     <use xlink:href="#me9be1d9474" x="216.881986" y="169.997078" style="fill: #1f77b4"/>
     <use xlink:href="#me9be1d9474" x="143.738649" y="159.878825" style="fill: #1f77b4"/>
     <use xlink:href="#me9be1d9474" x="151.676736" y="144.176756" style="fill: #1f77b4"/>
     <use xlink:href="#me9be1d9474" x="60.700171" y="169.247536" style="fill: #1f77b4"/>
     <use xlink:href="#me9be1d9474" x="182.008724" y="168.263376" style="fill: #1f77b4"/>
     <use xlink:href="#me9be1d9474" x="84.283116" y="168.674247" style="fill: #1f77b4"/>
     <use xlink:href="#me9be1d9474" x="53.595375" y="139.573027" style="fill: #1f77b4"/>
     <use xlink:href="#me9be1d9474" x="66.570536" y="175.570534" style="fill: #1f77b4"/>
     <use xlink:href="#me9be1d9474" x="170.619624" y="170.721512" style="fill: #1f77b4"/>
     <use xlink:href="#me9be1d9474" x="136.706951" y="143.755298" style="fill: #1f77b4"/>
     <use xlink:href="#me9be1d9474" x="47.351294" y="180.539814" style="fill: #1f77b4"/>
     <use xlink:href="#me9be1d9474" x="47.691125" y="131.827049" style="fill: #1f77b4"/>
     <use xlink:href="#me9be1d9474" x="51.02048" y="148.001782" style="fill: #1f77b4"/>
     <use xlink:href="#me9be1d9474" x="134.701669" y="153.608575" style="fill: #1f77b4"/>
     <use xlink:href="#me9be1d9474" x="136.987128" y="150.416107" style="fill: #1f77b4"/>
     <use xlink:href="#me9be1d9474" x="156.807677" y="142.652761" style="fill: #1f77b4"/>
     <use xlink:href="#me9be1d9474" x="70.397408" y="134.719122" style="fill: #1f77b4"/>
     <use xlink:href="#me9be1d9474" x="307.492873" y="130.410253" style="fill: #1f77b4"/>
     <use xlink:href="#me9be1d9474" x="59.791692" y="175.786596" style="fill: #1f77b4"/>
     <use xlink:href="#me9be1d9474" x="93.649789" y="134.804938" style="fill: #1f77b4"/>
     <use xlink:href="#me9be1d9474" x="247.936231" y="150.687567" style="fill: #1f77b4"/>
     <use xlink:href="#me9be1d9474" x="119.298914" y="142.44054" style="fill: #1f77b4"/>
     <use xlink:href="#me9be1d9474" x="182.887612" y="129.557385" style="fill: #1f77b4"/>
     <use xlink:href="#me9be1d9474" x="188.884088" y="129.774133" style="fill: #1f77b4"/>
     <use xlink:href="#me9be1d9474" x="296.528881" y="130.147794" style="fill: #1f77b4"/>
     <use xlink:href="#me9be1d9474" x="136.48908" y="154.983946" style="fill: #1f77b4"/>
     <use xlink:href="#me9be1d9474" x="152.239077" y="175.951427" style="fill: #1f77b4"/>
     <use xlink:href="#me9be1d9474" x="189.461254" y="156.423974" style="fill: #1f77b4"/>
     <use xlink:href="#me9be1d9474" x="49.607527" y="146.950015" style="fill: #1f77b4"/>
     <use xlink:href="#me9be1d9474" x="195.972278" y="134.449643" style="fill: #1f77b4"/>
     <use xlink:href="#me9be1d9474" x="348.678655" y="180.997881" style="fill: #1f77b4"/>
     <use xlink:href="#me9be1d9474" x="127.072996" y="175.085907" style="fill: #1f77b4"/>
     <use xlink:href="#me9be1d9474" x="76.235104" y="181.043151" style="fill: #1f77b4"/>
     <use xlink:href="#me9be1d9474" x="67.460322" y="178.280302" style="fill: #1f77b4"/>
     <use xlink:href="#me9be1d9474" x="129.15606" y="177.357853" style="fill: #1f77b4"/>
     <use xlink:href="#me9be1d9474" x="176.709917" y="135.118013" style="fill: #1f77b4"/>
     <use xlink:href="#me9be1d9474" x="67.929655" y="158.498344" style="fill: #1f77b4"/>
     <use xlink:href="#me9be1d9474" x="140.461487" y="156.999451" style="fill: #1f77b4"/>
     <use xlink:href="#me9be1d9474" x="197.4263" y="176.672809" style="fill: #1f77b4"/>
     <use xlink:href="#me9be1d9474" x="82.333244" y="158.439526" style="fill: #1f77b4"/>
     <use xlink:href="#me9be1d9474" x="50.078123" y="150.606698" style="fill: #1f77b4"/>
     <use xlink:href="#me9be1d9474" x="273.30292" y="145.47939" style="fill: #1f77b4"/>
     <use xlink:href="#me9be1d9474" x="116.88444" y="150.493862" style="fill: #1f77b4"/>
     <use xlink:href="#me9be1d9474" x="120.499985" y="144.20914" style="fill: #1f77b4"/>
     <use xlink:href="#me9be1d9474" x="68.291557" y="147.714935" style="fill: #1f77b4"/>
     <use xlink:href="#me9be1d9474" x="51.647164" y="173.812926" style="fill: #1f77b4"/>
     <use xlink:href="#me9be1d9474" x="45.660998" y="142.757757" style="fill: #1f77b4"/>
     <use xlink:href="#me9be1d9474" x="93.559342" y="180.684189" style="fill: #1f77b4"/>
     <use xlink:href="#me9be1d9474" x="84.641198" y="166.049465" style="fill: #1f77b4"/>
     <use xlink:href="#me9be1d9474" x="79.798038" y="148.627964" style="fill: #1f77b4"/>
     <use xlink:href="#me9be1d9474" x="316.374159" y="132.251696" style="fill: #1f77b4"/>
     <use xlink:href="#me9be1d9474" x="121.014359" y="133.417313" style="fill: #1f77b4"/>
     <use xlink:href="#me9be1d9474" x="139.020626" y="145.468274" style="fill: #1f77b4"/>
     <use xlink:href="#me9be1d9474" x="65.801604" y="152.958431" style="fill: #1f77b4"/>
     <use xlink:href="#me9be1d9474" x="49.394535" y="140.43725" style="fill: #1f77b4"/>
     <use xlink:href="#me9be1d9474" x="166.787419" y="151.752772" style="fill: #1f77b4"/>
     <use xlink:href="#me9be1d9474" x="207.457918" y="178.970307" style="fill: #1f77b4"/>
     <use xlink:href="#me9be1d9474" x="200.742757" y="175.028783" style="fill: #1f77b4"/>
     <use xlink:href="#me9be1d9474" x="312.233414" y="144.591472" style="fill: #1f77b4"/>
     <use xlink:href="#me9be1d9474" x="140.405946" y="137.380319" style="fill: #1f77b4"/>
     <use xlink:href="#me9be1d9474" x="54.771032" y="144.515746" style="fill: #1f77b4"/>
     <use xlink:href="#me9be1d9474" x="114.227544" y="134.435655" style="fill: #1f77b4"/>
     <use xlink:href="#me9be1d9474" x="120.695384" y="172.942062" style="fill: #1f77b4"/>
     <use xlink:href="#me9be1d9474" x="107.270171" y="173.132784" style="fill: #1f77b4"/>
     <use xlink:href="#me9be1d9474" x="91.111176" y="132.827137" style="fill: #1f77b4"/>
     <use xlink:href="#me9be1d9474" x="54.679159" y="181.098829" style="fill: #1f77b4"/>
     <use xlink:href="#me9be1d9474" x="62.924655" y="167.461705" style="fill: #1f77b4"/>
    </g>
   </g>
   <g id="text_11">
    <!-- Strip plots - Poultry Consumption -->
    <g transform="translate(107.268438 16.318125) scale(0.12 -0.12)">
     <defs>
      <path id="DejaVuSans-53" d="M 3425 4513 
L 3425 3897 
Q 3066 4069 2747 4153 
Q 2428 4238 2131 4238 
Q 1616 4238 1336 4038 
Q 1056 3838 1056 3469 
Q 1056 3159 1242 3001 
Q 1428 2844 1947 2747 
L 2328 2669 
Q 3034 2534 3370 2195 
Q 3706 1856 3706 1288 
Q 3706 609 3251 259 
Q 2797 -91 1919 -91 
Q 1588 -91 1214 -16 
Q 841 59 441 206 
L 441 856 
Q 825 641 1194 531 
Q 1563 422 1919 422 
Q 2459 422 2753 634 
Q 3047 847 3047 1241 
Q 3047 1584 2836 1778 
Q 2625 1972 2144 2069 
L 1759 2144 
Q 1053 2284 737 2584 
Q 422 2884 422 3419 
Q 422 4038 858 4394 
Q 1294 4750 2059 4750 
Q 2388 4750 2728 4690 
Q 3069 4631 3425 4513 
z
" transform="scale(0.015625)"/>
      <path id="DejaVuSans-73" d="M 2834 3397 
L 2834 2853 
Q 2591 2978 2328 3040 
Q 2066 3103 1784 3103 
Q 1356 3103 1142 2972 
Q 928 2841 928 2578 
Q 928 2378 1081 2264 
Q 1234 2150 1697 2047 
L 1894 2003 
Q 2506 1872 2764 1633 
Q 3022 1394 3022 966 
Q 3022 478 2636 193 
Q 2250 -91 1575 -91 
Q 1294 -91 989 -36 
Q 684 19 347 128 
L 347 722 
Q 666 556 975 473 
Q 1284 391 1588 391 
Q 1994 391 2212 530 
Q 2431 669 2431 922 
Q 2431 1156 2273 1281 
Q 2116 1406 1581 1522 
L 1381 1569 
Q 847 1681 609 1914 
Q 372 2147 372 2553 
Q 372 3047 722 3315 
Q 1072 3584 1716 3584 
Q 2034 3584 2315 3537 
Q 2597 3491 2834 3397 
z
" transform="scale(0.015625)"/>
      <path id="DejaVuSans-2d" d="M 313 2009 
L 1997 2009 
L 1997 1497 
L 313 1497 
L 313 2009 
z
" transform="scale(0.015625)"/>
      <path id="DejaVuSans-43" d="M 4122 4306 
L 4122 3641 
Q 3803 3938 3442 4084 
Q 3081 4231 2675 4231 
Q 1875 4231 1450 3742 
Q 1025 3253 1025 2328 
Q 1025 1406 1450 917 
Q 1875 428 2675 428 
Q 3081 428 3442 575 
Q 3803 722 4122 1019 
L 4122 359 
Q 3791 134 3420 21 
Q 3050 -91 2638 -91 
Q 1578 -91 968 557 
Q 359 1206 359 2328 
Q 359 3453 968 4101 
Q 1578 4750 2638 4750 
Q 3056 4750 3426 4639 
Q 3797 4528 4122 4306 
z
" transform="scale(0.015625)"/>
      <path id="DejaVuSans-6e" d="M 3513 2113 
L 3513 0 
L 2938 0 
L 2938 2094 
Q 2938 2591 2744 2837 
Q 2550 3084 2163 3084 
Q 1697 3084 1428 2787 
Q 1159 2491 1159 1978 
L 1159 0 
L 581 0 
L 581 3500 
L 1159 3500 
L 1159 2956 
Q 1366 3272 1645 3428 
Q 1925 3584 2291 3584 
Q 2894 3584 3203 3211 
Q 3513 2838 3513 2113 
z
" transform="scale(0.015625)"/>
      <path id="DejaVuSans-6d" d="M 3328 2828 
Q 3544 3216 3844 3400 
Q 4144 3584 4550 3584 
Q 5097 3584 5394 3201 
Q 5691 2819 5691 2113 
L 5691 0 
L 5113 0 
L 5113 2094 
Q 5113 2597 4934 2840 
Q 4756 3084 4391 3084 
Q 3944 3084 3684 2787 
Q 3425 2491 3425 1978 
L 3425 0 
L 2847 0 
L 2847 2094 
Q 2847 2600 2669 2842 
Q 2491 3084 2119 3084 
Q 1678 3084 1418 2786 
Q 1159 2488 1159 1978 
L 1159 0 
L 581 0 
L 581 3500 
L 1159 3500 
L 1159 2956 
Q 1356 3278 1631 3431 
Q 1906 3584 2284 3584 
Q 2666 3584 2933 3390 
Q 3200 3197 3328 2828 
z
" transform="scale(0.015625)"/>
     </defs>
     <use xlink:href="#DejaVuSans-53"/>
     <use xlink:href="#DejaVuSans-74" x="63.476562"/>
     <use xlink:href="#DejaVuSans-72" x="102.685547"/>
     <use xlink:href="#DejaVuSans-69" x="143.798828"/>
     <use xlink:href="#DejaVuSans-70" x="171.582031"/>
     <use xlink:href="#DejaVuSans-20" x="235.058594"/>
     <use xlink:href="#DejaVuSans-70" x="266.845703"/>
     <use xlink:href="#DejaVuSans-6c" x="330.322266"/>
     <use xlink:href="#DejaVuSans-6f" x="358.105469"/>
     <use xlink:href="#DejaVuSans-74" x="419.287109"/>
     <use xlink:href="#DejaVuSans-73" x="458.496094"/>
     <use xlink:href="#DejaVuSans-20" x="510.595703"/>
     <use xlink:href="#DejaVuSans-2d" x="542.382812"/>
     <use xlink:href="#DejaVuSans-20" x="578.466797"/>
     <use xlink:href="#DejaVuSans-50" x="610.253906"/>
     <use xlink:href="#DejaVuSans-6f" x="666.931641"/>
     <use xlink:href="#DejaVuSans-75" x="728.113281"/>
     <use xlink:href="#DejaVuSans-6c" x="791.492188"/>
     <use xlink:href="#DejaVuSans-74" x="819.275391"/>
     <use xlink:href="#DejaVuSans-72" x="858.484375"/>
     <use xlink:href="#DejaVuSans-79" x="899.597656"/>
     <use xlink:href="#DejaVuSans-20" x="958.777344"/>
     <use xlink:href="#DejaVuSans-43" x="990.564453"/>
     <use xlink:href="#DejaVuSans-6f" x="1060.388672"/>
     <use xlink:href="#DejaVuSans-6e" x="1121.570312"/>
     <use xlink:href="#DejaVuSans-73" x="1184.949219"/>
     <use xlink:href="#DejaVuSans-75" x="1237.048828"/>
     <use xlink:href="#DejaVuSans-6d" x="1300.427734"/>
     <use xlink:href="#DejaVuSans-70" x="1397.839844"/>
     <use xlink:href="#DejaVuSans-74" x="1461.316406"/>
     <use xlink:href="#DejaVuSans-69" x="1500.525391"/>
     <use xlink:href="#DejaVuSans-6f" x="1528.308594"/>
     <use xlink:href="#DejaVuSans-6e" x="1589.490234"/>
    </g>
   </g>
  </g>
 </g>
 <defs>
  <clipPath id="pe0efc50658">
   <rect x="27.878125" y="22.318125" width="357.12" height="266.112"/>
  </clipPath>
 </defs>
</svg>
