<?xml version="1.0" encoding="utf-8" standalone="no"?>
<!DOCTYPE svg PUBLIC "-//W3C//DTD SVG 1.1//EN"
  "http://www.w3.org/Graphics/SVG/1.1/DTD/svg11.dtd">
<svg xmlns:xlink="http://www.w3.org/1999/xlink" width="404.923125pt" height="325.986375pt" viewBox="0 0 404.923125 325.986375" xmlns="http://www.w3.org/2000/svg" version="1.1">
 <metadata>
  <rdf:RDF xmlns:dc="http://purl.org/dc/elements/1.1/" xmlns:cc="http://creativecommons.org/ns#" xmlns:rdf="http://www.w3.org/1999/02/22-rdf-syntax-ns#">
   <cc:Work>
    <dc:type rdf:resource="http://purl.org/dc/dcmitype/StillImage"/>
    <dc:date>2024-03-09T17:02:39.627211</dc:date>
    <dc:format>image/svg+xml</dc:format>
    <dc:creator>
     <cc:Agent>
      <dc:title>Matplotlib v3.7.0, https://matplotlib.org/</dc:title>
     </cc:Agent>
    </dc:creator>
   </cc:Work>
  </rdf:RDF>
 </metadata>
 <defs>
  <style type="text/css">*{stroke-linejoin: round; stroke-linecap: butt}</style>
 </defs>
 <g id="figure_1">
  <g id="patch_1">
   <path d="M 0 325.986375 
L 404.923125 325.986375 
L 404.923125 0 
L 0 0 
L 0 325.986375 
z
" style="fill: none"/>
  </g>
  <g id="axes_1">
   <g id="patch_2">
    <path d="M 40.603125 288.430125 
L 397.723125 288.430125 
L 397.723125 22.318125 
L 40.603125 22.318125 
L 40.603125 288.430125 
z
" style="fill: none"/>
   </g>
   <g id="matplotlib.axis_1">
    <g id="xtick_1">
     <g id="line2d_1">
      <defs>
       <path id="m921c2cd2c7" d="M 0 0 
L 0 3.5 
" style="stroke: #000000; stroke-width: 0.8"/>
      </defs>
      <g>
       <use xlink:href="#m921c2cd2c7" x="70.363125" y="288.430125" style="stroke: #000000; stroke-width: 0.8"/>
      </g>
     </g>
     <g id="text_1">
      <!-- 1 -->
      <g transform="translate(67.181875 303.028562) scale(0.1 -0.1)">
       <defs>
        <path id="DejaVuSans-31" d="M 794 531 
L 1825 531 
L 1825 4091 
L 703 3866 
L 703 4441 
L 1819 4666 
L 2450 4666 
L 2450 531 
L 3481 531 
L 3481 0 
L 794 0 
L 794 531 
z
" transform="scale(0.015625)"/>
       </defs>
       <use xlink:href="#DejaVuSans-31"/>
      </g>
     </g>
    </g>
    <g id="xtick_2">
     <g id="line2d_2">
      <g>
       <use xlink:href="#m921c2cd2c7" x="129.883125" y="288.430125" style="stroke: #000000; stroke-width: 0.8"/>
      </g>
     </g>
     <g id="text_2">
      <!-- 2 -->
      <g transform="translate(126.701875 303.028562) scale(0.1 -0.1)">
       <defs>
        <path id="DejaVuSans-32" d="M 1228 531 
L 3431 531 
L 3431 0 
L 469 0 
L 469 531 
Q 828 903 1448 1529 
Q 2069 2156 2228 2338 
Q 2531 2678 2651 2914 
Q 2772 3150 2772 3378 
Q 2772 3750 2511 3984 
Q 2250 4219 1831 4219 
Q 1534 4219 1204 4116 
Q 875 4013 500 3803 
L 500 4441 
Q 881 4594 1212 4672 
Q 1544 4750 1819 4750 
Q 2544 4750 2975 4387 
Q 3406 4025 3406 3419 
Q 3406 3131 3298 2873 
Q 3191 2616 2906 2266 
Q 2828 2175 2409 1742 
Q 1991 1309 1228 531 
z
" transform="scale(0.015625)"/>
       </defs>
       <use xlink:href="#DejaVuSans-32"/>
      </g>
     </g>
    </g>
    <g id="xtick_3">
     <g id="line2d_3">
      <g>
       <use xlink:href="#m921c2cd2c7" x="189.403125" y="288.430125" style="stroke: #000000; stroke-width: 0.8"/>
      </g>
     </g>
     <g id="text_3">
      <!-- 3 -->
      <g transform="translate(186.221875 303.028562) scale(0.1 -0.1)">
       <defs>
        <path id="DejaVuSans-33" d="M 2597 2516 
Q 3050 2419 3304 2112 
Q 3559 1806 3559 1356 
Q 3559 666 3084 287 
Q 2609 -91 1734 -91 
Q 1441 -91 1130 -33 
Q 819 25 488 141 
L 488 750 
Q 750 597 1062 519 
Q 1375 441 1716 441 
Q 2309 441 2620 675 
Q 2931 909 2931 1356 
Q 2931 1769 2642 2001 
Q 2353 2234 1838 2234 
L 1294 2234 
L 1294 2753 
L 1863 2753 
Q 2328 2753 2575 2939 
Q 2822 3125 2822 3475 
Q 2822 3834 2567 4026 
Q 2313 4219 1838 4219 
Q 1578 4219 1281 4162 
Q 984 4106 628 3988 
L 628 4550 
Q 988 4650 1302 4700 
Q 1616 4750 1894 4750 
Q 2613 4750 3031 4423 
Q 3450 4097 3450 3541 
Q 3450 3153 3228 2886 
Q 3006 2619 2597 2516 
z
" transform="scale(0.015625)"/>
       </defs>
       <use xlink:href="#DejaVuSans-33"/>
      </g>
     </g>
    </g>
    <g id="xtick_4">
     <g id="line2d_4">
      <g>
       <use xlink:href="#m921c2cd2c7" x="248.923125" y="288.430125" style="stroke: #000000; stroke-width: 0.8"/>
      </g>
     </g>
     <g id="text_4">
      <!-- 4 -->
      <g transform="translate(245.741875 303.028562) scale(0.1 -0.1)">
       <defs>
        <path id="DejaVuSans-34" d="M 2419 4116 
L 825 1625 
L 2419 1625 
L 2419 4116 
z
M 2253 4666 
L 3047 4666 
L 3047 1625 
L 3713 1625 
L 3713 1100 
L 3047 1100 
L 3047 0 
L 2419 0 
L 2419 1100 
L 313 1100 
L 313 1709 
L 2253 4666 
z
" transform="scale(0.015625)"/>
       </defs>
       <use xlink:href="#DejaVuSans-34"/>
      </g>
     </g>
    </g>
    <g id="xtick_5">
     <g id="line2d_5">
      <g>
       <use xlink:href="#m921c2cd2c7" x="308.443125" y="288.430125" style="stroke: #000000; stroke-width: 0.8"/>
      </g>
     </g>
     <g id="text_5">
      <!-- 5 -->
      <g transform="translate(305.261875 303.028562) scale(0.1 -0.1)">
       <defs>
        <path id="DejaVuSans-35" d="M 691 4666 
L 3169 4666 
L 3169 4134 
L 1269 4134 
L 1269 2991 
Q 1406 3038 1543 3061 
Q 1681 3084 1819 3084 
Q 2600 3084 3056 2656 
Q 3513 2228 3513 1497 
Q 3513 744 3044 326 
Q 2575 -91 1722 -91 
Q 1428 -91 1123 -41 
Q 819 9 494 109 
L 494 744 
Q 775 591 1075 516 
Q 1375 441 1709 441 
Q 2250 441 2565 725 
Q 2881 1009 2881 1497 
Q 2881 1984 2565 2268 
Q 2250 2553 1709 2553 
Q 1456 2553 1204 2497 
Q 953 2441 691 2322 
L 691 4666 
z
" transform="scale(0.015625)"/>
       </defs>
       <use xlink:href="#DejaVuSans-35"/>
      </g>
     </g>
    </g>
    <g id="xtick_6">
     <g id="line2d_6">
      <g>
       <use xlink:href="#m921c2cd2c7" x="367.963125" y="288.430125" style="stroke: #000000; stroke-width: 0.8"/>
      </g>
     </g>
     <g id="text_6">
      <!-- 6 -->
      <g transform="translate(364.781875 303.028562) scale(0.1 -0.1)">
       <defs>
        <path id="DejaVuSans-36" d="M 2113 2584 
Q 1688 2584 1439 2293 
Q 1191 2003 1191 1497 
Q 1191 994 1439 701 
Q 1688 409 2113 409 
Q 2538 409 2786 701 
Q 3034 994 3034 1497 
Q 3034 2003 2786 2293 
Q 2538 2584 2113 2584 
z
M 3366 4563 
L 3366 3988 
Q 3128 4100 2886 4159 
Q 2644 4219 2406 4219 
Q 1781 4219 1451 3797 
Q 1122 3375 1075 2522 
Q 1259 2794 1537 2939 
Q 1816 3084 2150 3084 
Q 2853 3084 3261 2657 
Q 3669 2231 3669 1497 
Q 3669 778 3244 343 
Q 2819 -91 2113 -91 
Q 1303 -91 875 529 
Q 447 1150 447 2328 
Q 447 3434 972 4092 
Q 1497 4750 2381 4750 
Q 2619 4750 2861 4703 
Q 3103 4656 3366 4563 
z
" transform="scale(0.015625)"/>
       </defs>
       <use xlink:href="#DejaVuSans-36"/>
      </g>
     </g>
    </g>
    <g id="text_7">
     <!-- Location Group -->
     <g transform="translate(181.206094 316.706687) scale(0.1 -0.1)">
      <defs>
       <path id="DejaVuSans-4c" d="M 628 4666 
L 1259 4666 
L 1259 531 
L 3531 531 
L 3531 0 
L 628 0 
L 628 4666 
z
" transform="scale(0.015625)"/>
       <path id="DejaVuSans-6f" d="M 1959 3097 
Q 1497 3097 1228 2736 
Q 959 2375 959 1747 
Q 959 1119 1226 758 
Q 1494 397 1959 397 
Q 2419 397 2687 759 
Q 2956 1122 2956 1747 
Q 2956 2369 2687 2733 
Q 2419 3097 1959 3097 
z
M 1959 3584 
Q 2709 3584 3137 3096 
Q 3566 2609 3566 1747 
Q 3566 888 3137 398 
Q 2709 -91 1959 -91 
Q 1206 -91 779 398 
Q 353 888 353 1747 
Q 353 2609 779 3096 
Q 1206 3584 1959 3584 
z
" transform="scale(0.015625)"/>
       <path id="DejaVuSans-63" d="M 3122 3366 
L 3122 2828 
Q 2878 2963 2633 3030 
Q 2388 3097 2138 3097 
Q 1578 3097 1268 2742 
Q 959 2388 959 1747 
Q 959 1106 1268 751 
Q 1578 397 2138 397 
Q 2388 397 2633 464 
Q 2878 531 3122 666 
L 3122 134 
Q 2881 22 2623 -34 
Q 2366 -91 2075 -91 
Q 1284 -91 818 406 
Q 353 903 353 1747 
Q 353 2603 823 3093 
Q 1294 3584 2113 3584 
Q 2378 3584 2631 3529 
Q 2884 3475 3122 3366 
z
" transform="scale(0.015625)"/>
       <path id="DejaVuSans-61" d="M 2194 1759 
Q 1497 1759 1228 1600 
Q 959 1441 959 1056 
Q 959 750 1161 570 
Q 1363 391 1709 391 
Q 2188 391 2477 730 
Q 2766 1069 2766 1631 
L 2766 1759 
L 2194 1759 
z
M 3341 1997 
L 3341 0 
L 2766 0 
L 2766 531 
Q 2569 213 2275 61 
Q 1981 -91 1556 -91 
Q 1019 -91 701 211 
Q 384 513 384 1019 
Q 384 1609 779 1909 
Q 1175 2209 1959 2209 
L 2766 2209 
L 2766 2266 
Q 2766 2663 2505 2880 
Q 2244 3097 1772 3097 
Q 1472 3097 1187 3025 
Q 903 2953 641 2809 
L 641 3341 
Q 956 3463 1253 3523 
Q 1550 3584 1831 3584 
Q 2591 3584 2966 3190 
Q 3341 2797 3341 1997 
z
" transform="scale(0.015625)"/>
       <path id="DejaVuSans-74" d="M 1172 4494 
L 1172 3500 
L 2356 3500 
L 2356 3053 
L 1172 3053 
L 1172 1153 
Q 1172 725 1289 603 
Q 1406 481 1766 481 
L 2356 481 
L 2356 0 
L 1766 0 
Q 1100 0 847 248 
Q 594 497 594 1153 
L 594 3053 
L 172 3053 
L 172 3500 
L 594 3500 
L 594 4494 
L 1172 4494 
z
" transform="scale(0.015625)"/>
       <path id="DejaVuSans-69" d="M 603 3500 
L 1178 3500 
L 1178 0 
L 603 0 
L 603 3500 
z
M 603 4863 
L 1178 4863 
L 1178 4134 
L 603 4134 
L 603 4863 
z
" transform="scale(0.015625)"/>
       <path id="DejaVuSans-6e" d="M 3513 2113 
L 3513 0 
L 2938 0 
L 2938 2094 
Q 2938 2591 2744 2837 
Q 2550 3084 2163 3084 
Q 1697 3084 1428 2787 
Q 1159 2491 1159 1978 
L 1159 0 
L 581 0 
L 581 3500 
L 1159 3500 
L 1159 2956 
Q 1366 3272 1645 3428 
Q 1925 3584 2291 3584 
Q 2894 3584 3203 3211 
Q 3513 2838 3513 2113 
z
" transform="scale(0.015625)"/>
       <path id="DejaVuSans-20" transform="scale(0.015625)"/>
       <path id="DejaVuSans-47" d="M 3809 666 
L 3809 1919 
L 2778 1919 
L 2778 2438 
L 4434 2438 
L 4434 434 
Q 4069 175 3628 42 
Q 3188 -91 2688 -91 
Q 1594 -91 976 548 
Q 359 1188 359 2328 
Q 359 3472 976 4111 
Q 1594 4750 2688 4750 
Q 3144 4750 3555 4637 
Q 3966 4525 4313 4306 
L 4313 3634 
Q 3963 3931 3569 4081 
Q 3175 4231 2741 4231 
Q 1884 4231 1454 3753 
Q 1025 3275 1025 2328 
Q 1025 1384 1454 906 
Q 1884 428 2741 428 
Q 3075 428 3337 486 
Q 3600 544 3809 666 
z
" transform="scale(0.015625)"/>
       <path id="DejaVuSans-72" d="M 2631 2963 
Q 2534 3019 2420 3045 
Q 2306 3072 2169 3072 
Q 1681 3072 1420 2755 
Q 1159 2438 1159 1844 
L 1159 0 
L 581 0 
L 581 3500 
L 1159 3500 
L 1159 2956 
Q 1341 3275 1631 3429 
Q 1922 3584 2338 3584 
Q 2397 3584 2469 3576 
Q 2541 3569 2628 3553 
L 2631 2963 
z
" transform="scale(0.015625)"/>
       <path id="DejaVuSans-75" d="M 544 1381 
L 544 3500 
L 1119 3500 
L 1119 1403 
Q 1119 906 1312 657 
Q 1506 409 1894 409 
Q 2359 409 2629 706 
Q 2900 1003 2900 1516 
L 2900 3500 
L 3475 3500 
L 3475 0 
L 2900 0 
L 2900 538 
Q 2691 219 2414 64 
Q 2138 -91 1772 -91 
Q 1169 -91 856 284 
Q 544 659 544 1381 
z
M 1991 3584 
L 1991 3584 
z
" transform="scale(0.015625)"/>
       <path id="DejaVuSans-70" d="M 1159 525 
L 1159 -1331 
L 581 -1331 
L 581 3500 
L 1159 3500 
L 1159 2969 
Q 1341 3281 1617 3432 
Q 1894 3584 2278 3584 
Q 2916 3584 3314 3078 
Q 3713 2572 3713 1747 
Q 3713 922 3314 415 
Q 2916 -91 2278 -91 
Q 1894 -91 1617 61 
Q 1341 213 1159 525 
z
M 3116 1747 
Q 3116 2381 2855 2742 
Q 2594 3103 2138 3103 
Q 1681 3103 1420 2742 
Q 1159 2381 1159 1747 
Q 1159 1113 1420 752 
Q 1681 391 2138 391 
Q 2594 391 2855 752 
Q 3116 1113 3116 1747 
z
" transform="scale(0.015625)"/>
      </defs>
      <use xlink:href="#DejaVuSans-4c"/>
      <use xlink:href="#DejaVuSans-6f" x="53.962891"/>
      <use xlink:href="#DejaVuSans-63" x="115.144531"/>
      <use xlink:href="#DejaVuSans-61" x="170.125"/>
      <use xlink:href="#DejaVuSans-74" x="231.404297"/>
      <use xlink:href="#DejaVuSans-69" x="270.613281"/>
      <use xlink:href="#DejaVuSans-6f" x="298.396484"/>
      <use xlink:href="#DejaVuSans-6e" x="359.578125"/>
      <use xlink:href="#DejaVuSans-20" x="422.957031"/>
      <use xlink:href="#DejaVuSans-47" x="454.744141"/>
      <use xlink:href="#DejaVuSans-72" x="532.234375"/>
      <use xlink:href="#DejaVuSans-6f" x="571.097656"/>
      <use xlink:href="#DejaVuSans-75" x="632.279297"/>
      <use xlink:href="#DejaVuSans-70" x="695.658203"/>
     </g>
    </g>
   </g>
   <g id="matplotlib.axis_2">
    <g id="ytick_1">
     <g id="line2d_7">
      <defs>
       <path id="m9e702969f1" d="M 0 0 
L -3.5 0 
" style="stroke: #000000; stroke-width: 0.8"/>
      </defs>
      <g>
       <use xlink:href="#m9e702969f1" x="40.603125" y="256.299342" style="stroke: #000000; stroke-width: 0.8"/>
      </g>
     </g>
     <g id="text_8">
      <!-- 10 -->
      <g transform="translate(20.878125 260.098561) scale(0.1 -0.1)">
       <defs>
        <path id="DejaVuSans-30" d="M 2034 4250 
Q 1547 4250 1301 3770 
Q 1056 3291 1056 2328 
Q 1056 1369 1301 889 
Q 1547 409 2034 409 
Q 2525 409 2770 889 
Q 3016 1369 3016 2328 
Q 3016 3291 2770 3770 
Q 2525 4250 2034 4250 
z
M 2034 4750 
Q 2819 4750 3233 4129 
Q 3647 3509 3647 2328 
Q 3647 1150 3233 529 
Q 2819 -91 2034 -91 
Q 1250 -91 836 529 
Q 422 1150 422 2328 
Q 422 3509 836 4129 
Q 1250 4750 2034 4750 
z
" transform="scale(0.015625)"/>
       </defs>
       <use xlink:href="#DejaVuSans-31"/>
       <use xlink:href="#DejaVuSans-30" x="63.623047"/>
      </g>
     </g>
    </g>
    <g id="ytick_2">
     <g id="line2d_8">
      <g>
       <use xlink:href="#m9e702969f1" x="40.603125" y="214.560212" style="stroke: #000000; stroke-width: 0.8"/>
      </g>
     </g>
     <g id="text_9">
      <!-- 20 -->
      <g transform="translate(20.878125 218.359431) scale(0.1 -0.1)">
       <use xlink:href="#DejaVuSans-32"/>
       <use xlink:href="#DejaVuSans-30" x="63.623047"/>
      </g>
     </g>
    </g>
    <g id="ytick_3">
     <g id="line2d_9">
      <g>
       <use xlink:href="#m9e702969f1" x="40.603125" y="172.821082" style="stroke: #000000; stroke-width: 0.8"/>
      </g>
     </g>
     <g id="text_10">
      <!-- 30 -->
      <g transform="translate(20.878125 176.6203) scale(0.1 -0.1)">
       <use xlink:href="#DejaVuSans-33"/>
       <use xlink:href="#DejaVuSans-30" x="63.623047"/>
      </g>
     </g>
    </g>
    <g id="ytick_4">
     <g id="line2d_10">
      <g>
       <use xlink:href="#m9e702969f1" x="40.603125" y="131.081951" style="stroke: #000000; stroke-width: 0.8"/>
      </g>
     </g>
     <g id="text_11">
      <!-- 40 -->
      <g transform="translate(20.878125 134.88117) scale(0.1 -0.1)">
       <use xlink:href="#DejaVuSans-34"/>
       <use xlink:href="#DejaVuSans-30" x="63.623047"/>
      </g>
     </g>
    </g>
    <g id="ytick_5">
     <g id="line2d_11">
      <g>
       <use xlink:href="#m9e702969f1" x="40.603125" y="89.342821" style="stroke: #000000; stroke-width: 0.8"/>
      </g>
     </g>
     <g id="text_12">
      <!-- 50 -->
      <g transform="translate(20.878125 93.142039) scale(0.1 -0.1)">
       <use xlink:href="#DejaVuSans-35"/>
       <use xlink:href="#DejaVuSans-30" x="63.623047"/>
      </g>
     </g>
    </g>
    <g id="ytick_6">
     <g id="line2d_12">
      <g>
       <use xlink:href="#m9e702969f1" x="40.603125" y="47.60369" style="stroke: #000000; stroke-width: 0.8"/>
      </g>
     </g>
     <g id="text_13">
      <!-- 60 -->
      <g transform="translate(20.878125 51.402909) scale(0.1 -0.1)">
       <use xlink:href="#DejaVuSans-36"/>
       <use xlink:href="#DejaVuSans-30" x="63.623047"/>
      </g>
     </g>
    </g>
    <g id="text_14">
     <!-- PM -->
     <g transform="translate(14.798438 162.703031) rotate(-90) scale(0.1 -0.1)">
      <defs>
       <path id="DejaVuSans-50" d="M 1259 4147 
L 1259 2394 
L 2053 2394 
Q 2494 2394 2734 2622 
Q 2975 2850 2975 3272 
Q 2975 3691 2734 3919 
Q 2494 4147 2053 4147 
L 1259 4147 
z
M 628 4666 
L 2053 4666 
Q 2838 4666 3239 4311 
Q 3641 3956 3641 3272 
Q 3641 2581 3239 2228 
Q 2838 1875 2053 1875 
L 1259 1875 
L 1259 0 
L 628 0 
L 628 4666 
z
" transform="scale(0.015625)"/>
       <path id="DejaVuSans-4d" d="M 628 4666 
L 1569 4666 
L 2759 1491 
L 3956 4666 
L 4897 4666 
L 4897 0 
L 4281 0 
L 4281 4097 
L 3078 897 
L 2444 897 
L 1241 4097 
L 1241 0 
L 628 0 
L 628 4666 
z
" transform="scale(0.015625)"/>
      </defs>
      <use xlink:href="#DejaVuSans-50"/>
      <use xlink:href="#DejaVuSans-4d" x="60.302734"/>
     </g>
    </g>
   </g>
   <g id="patch_3">
    <path d="M 40.603125 288.430125 
L 40.603125 22.318125 
" style="fill: none; stroke: #000000; stroke-width: 0.8; stroke-linejoin: miter; stroke-linecap: square"/>
   </g>
   <g id="patch_4">
    <path d="M 397.723125 288.430125 
L 397.723125 22.318125 
" style="fill: none; stroke: #000000; stroke-width: 0.8; stroke-linejoin: miter; stroke-linecap: square"/>
   </g>
   <g id="patch_5">
    <path d="M 40.603125 288.430125 
L 397.723125 288.430125 
" style="fill: none; stroke: #000000; stroke-width: 0.8; stroke-linejoin: miter; stroke-linecap: square"/>
   </g>
   <g id="patch_6">
    <path d="M 40.603125 22.318125 
L 397.723125 22.318125 
" style="fill: none; stroke: #000000; stroke-width: 0.8; stroke-linejoin: miter; stroke-linecap: square"/>
   </g>
   <g id="PathCollection_1">
    <defs>
     <path id="m5893df899f" d="M 0 2.5 
C 0.663008 2.5 1.29895 2.236584 1.767767 1.767767 
C 2.236584 1.29895 2.5 0.663008 2.5 0 
C 2.5 -0.663008 2.236584 -1.29895 1.767767 -1.767767 
C 1.29895 -2.236584 0.663008 -2.5 0 -2.5 
C -0.663008 -2.5 -1.29895 -2.236584 -1.767767 -1.767767 
C -2.236584 -1.29895 -2.5 -0.663008 -2.5 0 
C -2.5 0.663008 -2.236584 1.29895 -1.767767 1.767767 
C -1.29895 2.236584 -0.663008 2.5 0 2.5 
z
"/>
    </defs>
    <g clip-path="url(#pfd30fcb040)">
     <use xlink:href="#m5893df899f" x="70.730086" y="203.374125" style="fill: #1f77b4"/>
     <use xlink:href="#m5893df899f" x="75.1262" y="184.674995" style="fill: #1f77b4"/>
     <use xlink:href="#m5893df899f" x="72.004638" y="166.518473" style="fill: #1f77b4"/>
     <use xlink:href="#m5893df899f" x="67.518791" y="244.528908" style="fill: #1f77b4"/>
     <use xlink:href="#m5893df899f" x="70.689731" y="127.993255" style="fill: #1f77b4"/>
     <use xlink:href="#m5893df899f" x="72.156896" y="181.168908" style="fill: #1f77b4"/>
     <use xlink:href="#m5893df899f" x="73.822068" y="62.754995" style="fill: #1f77b4"/>
     <use xlink:href="#m5893df899f" x="74.334351" y="184.508038" style="fill: #1f77b4"/>
     <use xlink:href="#m5893df899f" x="67.303958" y="126.281951" style="fill: #1f77b4"/>
     <use xlink:href="#m5893df899f" x="76.119661" y="238.059342" style="fill: #1f77b4"/>
     <use xlink:href="#m5893df899f" x="66.160309" y="129.370647" style="fill: #1f77b4"/>
     <use xlink:href="#m5893df899f" x="65.505353" y="166.226299" style="fill: #1f77b4"/>
     <use xlink:href="#m5893df899f" x="72.347279" y="207.047168" style="fill: #1f77b4"/>
     <use xlink:href="#m5893df899f" x="67.226165" y="188.306299" style="fill: #1f77b4"/>
     <use xlink:href="#m5893df899f" x="73.042547" y="134.838473" style="fill: #1f77b4"/>
     <use xlink:href="#m5893df899f" x="72.387361" y="105.871516" style="fill: #1f77b4"/>
     <use xlink:href="#m5893df899f" x="72.277185" y="141.22456" style="fill: #1f77b4"/>
     <use xlink:href="#m5893df899f" x="65.866918" y="152.577603" style="fill: #1f77b4"/>
     <use xlink:href="#m5893df899f" x="74.653699" y="245.781082" style="fill: #1f77b4"/>
     <use xlink:href="#m5893df899f" x="69.429844" y="224.577603" style="fill: #1f77b4"/>
     <use xlink:href="#m5893df899f" x="73.602925" y="148.612386" style="fill: #1f77b4"/>
     <use xlink:href="#m5893df899f" x="73.730969" y="231.172386" style="fill: #1f77b4"/>
     <use xlink:href="#m5893df899f" x="71.178884" y="220.528908" style="fill: #1f77b4"/>
     <use xlink:href="#m5893df899f" x="67.199352" y="137.134125" style="fill: #1f77b4"/>
     <use xlink:href="#m5893df899f" x="73.109282" y="122.817603" style="fill: #1f77b4"/>
     <use xlink:href="#m5893df899f" x="75.478256" y="229.377603" style="fill: #1f77b4"/>
     <use xlink:href="#m5893df899f" x="69.05783" y="248.74456" style="fill: #1f77b4"/>
     <use xlink:href="#m5893df899f" x="70.83804" y="88.716734" style="fill: #1f77b4"/>
     <use xlink:href="#m5893df899f" x="73.396023" y="65.801951" style="fill: #1f77b4"/>
     <use xlink:href="#m5893df899f" x="64.570628" y="174.991516" style="fill: #1f77b4"/>
     <use xlink:href="#m5893df899f" x="72.259712" y="149.196734" style="fill: #1f77b4"/>
     <use xlink:href="#m5893df899f" x="73.831276" y="157.168908" style="fill: #1f77b4"/>
     <use xlink:href="#m5893df899f" x="75.33912" y="138.553255" style="fill: #1f77b4"/>
     <use xlink:href="#m5893df899f" x="75.426432" y="133.502821" style="fill: #1f77b4"/>
     <use xlink:href="#m5893df899f" x="64.936672" y="233.927168" style="fill: #1f77b4"/>
     <use xlink:href="#m5893df899f" x="71.870155" y="149.196734" style="fill: #1f77b4"/>
     <use xlink:href="#m5893df899f" x="67.421405" y="167.353255" style="fill: #1f77b4"/>
     <use xlink:href="#m5893df899f" x="69.322996" y="227.499342" style="fill: #1f77b4"/>
     <use xlink:href="#m5893df899f" x="67.260142" y="243.44369" style="fill: #1f77b4"/>
    </g>
   </g>
   <g id="PathCollection_2">
    <g clip-path="url(#pfd30fcb040)">
     <use xlink:href="#m5893df899f" x="126.847857" y="276.334125" style="fill: #1f77b4"/>
     <use xlink:href="#m5893df899f" x="130.544265" y="257.175864" style="fill: #1f77b4"/>
     <use xlink:href="#m5893df899f" x="124.99341" y="254.170647" style="fill: #1f77b4"/>
     <use xlink:href="#m5893df899f" x="127.259253" y="192.730647" style="fill: #1f77b4"/>
     <use xlink:href="#m5893df899f" x="133.949041" y="252.375864" style="fill: #1f77b4"/>
     <use xlink:href="#m5893df899f" x="129.356634" y="271.367168" style="fill: #1f77b4"/>
     <use xlink:href="#m5893df899f" x="129.41006" y="212.514995" style="fill: #1f77b4"/>
     <use xlink:href="#m5893df899f" x="129.112226" y="239.436734" style="fill: #1f77b4"/>
     <use xlink:href="#m5893df899f" x="133.810329" y="236.681951" style="fill: #1f77b4"/>
     <use xlink:href="#m5893df899f" x="133.216963" y="242.441951" style="fill: #1f77b4"/>
     <use xlink:href="#m5893df899f" x="130.824543" y="266.358473" style="fill: #1f77b4"/>
     <use xlink:href="#m5893df899f" x="134.824263" y="228.960212" style="fill: #1f77b4"/>
     <use xlink:href="#m5893df899f" x="128.630132" y="205.586299" style="fill: #1f77b4"/>
     <use xlink:href="#m5893df899f" x="131.23742" y="211.429777" style="fill: #1f77b4"/>
     <use xlink:href="#m5893df899f" x="125.037124" y="251.666299" style="fill: #1f77b4"/>
     <use xlink:href="#m5893df899f" x="124.549967" y="257.593255" style="fill: #1f77b4"/>
     <use xlink:href="#m5893df899f" x="132.969532" y="219.026299" style="fill: #1f77b4"/>
     <use xlink:href="#m5893df899f" x="125.210836" y="236.139342" style="fill: #1f77b4"/>
     <use xlink:href="#m5893df899f" x="130.772022" y="223.617603" style="fill: #1f77b4"/>
     <use xlink:href="#m5893df899f" x="124.458294" y="231.255864" style="fill: #1f77b4"/>
     <use xlink:href="#m5893df899f" x="133.117587" y="248.869777" style="fill: #1f77b4"/>
     <use xlink:href="#m5893df899f" x="127.695078" y="246.657603" style="fill: #1f77b4"/>
     <use xlink:href="#m5893df899f" x="135.709721" y="176.702821" style="fill: #1f77b4"/>
     <use xlink:href="#m5893df899f" x="129.301452" y="260.556734" style="fill: #1f77b4"/>
     <use xlink:href="#m5893df899f" x="128.408235" y="247.241951" style="fill: #1f77b4"/>
     <use xlink:href="#m5893df899f" x="124.008743" y="255.214125" style="fill: #1f77b4"/>
     <use xlink:href="#m5893df899f" x="126.188846" y="268.069777" style="fill: #1f77b4"/>
     <use xlink:href="#m5893df899f" x="124.21865" y="262.64369" style="fill: #1f77b4"/>
     <use xlink:href="#m5893df899f" x="129.882365" y="230.379342" style="fill: #1f77b4"/>
    </g>
   </g>
   <g id="PathCollection_3">
    <g clip-path="url(#pfd30fcb040)">
     <use xlink:href="#m5893df899f" x="185.909926" y="37.210647" style="fill: #1f77b4"/>
     <use xlink:href="#m5893df899f" x="190.214207" y="81.746299" style="fill: #1f77b4"/>
     <use xlink:href="#m5893df899f" x="185.554185" y="214.64369" style="fill: #1f77b4"/>
     <use xlink:href="#m5893df899f" x="190.049383" y="34.414125" style="fill: #1f77b4"/>
     <use xlink:href="#m5893df899f" x="187.937228" y="134.045429" style="fill: #1f77b4"/>
     <use xlink:href="#m5893df899f" x="186.066845" y="190.059342" style="fill: #1f77b4"/>
     <use xlink:href="#m5893df899f" x="191.098213" y="173.488908" style="fill: #1f77b4"/>
     <use xlink:href="#m5893df899f" x="185.00479" y="241.941082" style="fill: #1f77b4"/>
     <use xlink:href="#m5893df899f" x="185.051788" y="152.452386" style="fill: #1f77b4"/>
     <use xlink:href="#m5893df899f" x="193.50541" y="88.800212" style="fill: #1f77b4"/>
     <use xlink:href="#m5893df899f" x="183.905819" y="51.610647" style="fill: #1f77b4"/>
     <use xlink:href="#m5893df899f" x="188.170548" y="208.591516" style="fill: #1f77b4"/>
     <use xlink:href="#m5893df899f" x="195.196959" y="193.106299" style="fill: #1f77b4"/>
     <use xlink:href="#m5893df899f" x="190.001647" y="187.346299" style="fill: #1f77b4"/>
     <use xlink:href="#m5893df899f" x="185.674162" y="123.777603" style="fill: #1f77b4"/>
     <use xlink:href="#m5893df899f" x="189.038834" y="124.361951" style="fill: #1f77b4"/>
    </g>
   </g>
   <g id="PathCollection_4">
    <g clip-path="url(#pfd30fcb040)">
     <use xlink:href="#m5893df899f" x="244.28001" y="230.087168" style="fill: #1f77b4"/>
     <use xlink:href="#m5893df899f" x="249.234827" y="155.582821" style="fill: #1f77b4"/>
     <use xlink:href="#m5893df899f" x="253.529782" y="249.996734" style="fill: #1f77b4"/>
     <use xlink:href="#m5893df899f" x="243.659605" y="195.193255" style="fill: #1f77b4"/>
     <use xlink:href="#m5893df899f" x="248.441615" y="233.426299" style="fill: #1f77b4"/>
     <use xlink:href="#m5893df899f" x="250.571453" y="251.040212" style="fill: #1f77b4"/>
     <use xlink:href="#m5893df899f" x="253.536856" y="188.72369" style="fill: #1f77b4"/>
     <use xlink:href="#m5893df899f" x="250.402726" y="225.871516" style="fill: #1f77b4"/>
     <use xlink:href="#m5893df899f" x="252.386357" y="237.433255" style="fill: #1f77b4"/>
     <use xlink:href="#m5893df899f" x="245.889393" y="238.18456" style="fill: #1f77b4"/>
     <use xlink:href="#m5893df899f" x="249.550377" y="257.718473" style="fill: #1f77b4"/>
     <use xlink:href="#m5893df899f" x="251.495582" y="271.534125" style="fill: #1f77b4"/>
     <use xlink:href="#m5893df899f" x="246.398962" y="275.207168" style="fill: #1f77b4"/>
     <use xlink:href="#m5893df899f" x="254.582915" y="254.379342" style="fill: #1f77b4"/>
     <use xlink:href="#m5893df899f" x="249.97706" y="218.48369" style="fill: #1f77b4"/>
     <use xlink:href="#m5893df899f" x="245.073613" y="253.252386" style="fill: #1f77b4"/>
     <use xlink:href="#m5893df899f" x="247.945264" y="237.015864" style="fill: #1f77b4"/>
     <use xlink:href="#m5893df899f" x="249.043344" y="238.601951" style="fill: #1f77b4"/>
     <use xlink:href="#m5893df899f" x="254.727445" y="273.871516" style="fill: #1f77b4"/>
     <use xlink:href="#m5893df899f" x="250.316858" y="263.812386" style="fill: #1f77b4"/>
     <use xlink:href="#m5893df899f" x="254.833071" y="216.772386" style="fill: #1f77b4"/>
     <use xlink:href="#m5893df899f" x="248.724204" y="238.685429" style="fill: #1f77b4"/>
     <use xlink:href="#m5893df899f" x="248.798473" y="187.429777" style="fill: #1f77b4"/>
     <use xlink:href="#m5893df899f" x="245.799197" y="141.182821" style="fill: #1f77b4"/>
     <use xlink:href="#m5893df899f" x="247.18761" y="247.868038" style="fill: #1f77b4"/>
     <use xlink:href="#m5893df899f" x="251.695765" y="254.754995" style="fill: #1f77b4"/>
     <use xlink:href="#m5893df899f" x="244.095502" y="260.932386" style="fill: #1f77b4"/>
     <use xlink:href="#m5893df899f" x="246.281671" y="246.407168" style="fill: #1f77b4"/>
     <use xlink:href="#m5893df899f" x="245.943379" y="253.210647" style="fill: #1f77b4"/>
     <use xlink:href="#m5893df899f" x="245.057102" y="192.981082" style="fill: #1f77b4"/>
     <use xlink:href="#m5893df899f" x="247.966248" y="271.742821" style="fill: #1f77b4"/>
     <use xlink:href="#m5893df899f" x="254.629569" y="219.44369" style="fill: #1f77b4"/>
     <use xlink:href="#m5893df899f" x="248.741316" y="267.401951" style="fill: #1f77b4"/>
     <use xlink:href="#m5893df899f" x="246.196085" y="242.525429" style="fill: #1f77b4"/>
     <use xlink:href="#m5893df899f" x="253.410208" y="260.974125" style="fill: #1f77b4"/>
     <use xlink:href="#m5893df899f" x="247.150472" y="231.714995" style="fill: #1f77b4"/>
     <use xlink:href="#m5893df899f" x="247.896321" y="239.269777" style="fill: #1f77b4"/>
     <use xlink:href="#m5893df899f" x="254.424852" y="259.054125" style="fill: #1f77b4"/>
     <use xlink:href="#m5893df899f" x="249.86507" y="273.161951" style="fill: #1f77b4"/>
     <use xlink:href="#m5893df899f" x="250.286602" y="260.598473" style="fill: #1f77b4"/>
     <use xlink:href="#m5893df899f" x="245.719976" y="74.108038" style="fill: #1f77b4"/>
     <use xlink:href="#m5893df899f" x="251.710563" y="200.994995" style="fill: #1f77b4"/>
     <use xlink:href="#m5893df899f" x="245.216081" y="187.805429" style="fill: #1f77b4"/>
     <use xlink:href="#m5893df899f" x="246.008389" y="241.648908" style="fill: #1f77b4"/>
     <use xlink:href="#m5893df899f" x="244.339753" y="258.302821" style="fill: #1f77b4"/>
     <use xlink:href="#m5893df899f" x="252.406046" y="126.991516" style="fill: #1f77b4"/>
    </g>
   </g>
   <g id="PathCollection_5">
    <g clip-path="url(#pfd30fcb040)">
     <use xlink:href="#m5893df899f" x="303.363594" y="106.080212" style="fill: #1f77b4"/>
     <use xlink:href="#m5893df899f" x="305.906239" y="189.099342" style="fill: #1f77b4"/>
     <use xlink:href="#m5893df899f" x="307.821863" y="88.633255" style="fill: #1f77b4"/>
     <use xlink:href="#m5893df899f" x="306.190409" y="217.314995" style="fill: #1f77b4"/>
     <use xlink:href="#m5893df899f" x="302.537721" y="184.674995" style="fill: #1f77b4"/>
     <use xlink:href="#m5893df899f" x="305.247133" y="145.982821" style="fill: #1f77b4"/>
     <use xlink:href="#m5893df899f" x="311.681232" y="124.988038" style="fill: #1f77b4"/>
     <use xlink:href="#m5893df899f" x="309.581243" y="198.365429" style="fill: #1f77b4"/>
     <use xlink:href="#m5893df899f" x="305.380188" y="195.193255" style="fill: #1f77b4"/>
     <use xlink:href="#m5893df899f" x="309.692412" y="212.598473" style="fill: #1f77b4"/>
    </g>
   </g>
   <g id="PathCollection_6">
    <g clip-path="url(#pfd30fcb040)">
     <use xlink:href="#m5893df899f" x="367.28508" y="260.765429" style="fill: #1f77b4"/>
     <use xlink:href="#m5893df899f" x="372.044941" y="223.742821" style="fill: #1f77b4"/>
     <use xlink:href="#m5893df899f" x="365.968291" y="138.80369" style="fill: #1f77b4"/>
     <use xlink:href="#m5893df899f" x="368.302263" y="267.318473" style="fill: #1f77b4"/>
     <use xlink:href="#m5893df899f" x="369.698455" y="252.793255" style="fill: #1f77b4"/>
     <use xlink:href="#m5893df899f" x="366.451097" y="209.760212" style="fill: #1f77b4"/>
     <use xlink:href="#m5893df899f" x="370.324953" y="208.215864" style="fill: #1f77b4"/>
     <use xlink:href="#m5893df899f" x="367.665058" y="262.101082" style="fill: #1f77b4"/>
     <use xlink:href="#m5893df899f" x="363.198968" y="260.932386" style="fill: #1f77b4"/>
     <use xlink:href="#m5893df899f" x="368.514605" y="204.334125" style="fill: #1f77b4"/>
     <use xlink:href="#m5893df899f" x="366.374804" y="265.565429" style="fill: #1f77b4"/>
     <use xlink:href="#m5893df899f" x="370.430082" y="265.356734" style="fill: #1f77b4"/>
     <use xlink:href="#m5893df899f" x="364.278873" y="197.697603" style="fill: #1f77b4"/>
     <use xlink:href="#m5893df899f" x="365.41174" y="262.894125" style="fill: #1f77b4"/>
     <use xlink:href="#m5893df899f" x="366.723221" y="210.845429" style="fill: #1f77b4"/>
    </g>
   </g>
   <g id="text_15">
    <!-- Strip plots - PM2.5 -->
    <g transform="translate(164.2125 16.318125) scale(0.12 -0.12)">
     <defs>
      <path id="DejaVuSans-53" d="M 3425 4513 
L 3425 3897 
Q 3066 4069 2747 4153 
Q 2428 4238 2131 4238 
Q 1616 4238 1336 4038 
Q 1056 3838 1056 3469 
Q 1056 3159 1242 3001 
Q 1428 2844 1947 2747 
L 2328 2669 
Q 3034 2534 3370 2195 
Q 3706 1856 3706 1288 
Q 3706 609 3251 259 
Q 2797 -91 1919 -91 
Q 1588 -91 1214 -16 
Q 841 59 441 206 
L 441 856 
Q 825 641 1194 531 
Q 1563 422 1919 422 
Q 2459 422 2753 634 
Q 3047 847 3047 1241 
Q 3047 1584 2836 1778 
Q 2625 1972 2144 2069 
L 1759 2144 
Q 1053 2284 737 2584 
Q 422 2884 422 3419 
Q 422 4038 858 4394 
Q 1294 4750 2059 4750 
Q 2388 4750 2728 4690 
Q 3069 4631 3425 4513 
z
" transform="scale(0.015625)"/>
      <path id="DejaVuSans-6c" d="M 603 4863 
L 1178 4863 
L 1178 0 
L 603 0 
L 603 4863 
z
" transform="scale(0.015625)"/>
      <path id="DejaVuSans-73" d="M 2834 3397 
L 2834 2853 
Q 2591 2978 2328 3040 
Q 2066 3103 1784 3103 
Q 1356 3103 1142 2972 
Q 928 2841 928 2578 
Q 928 2378 1081 2264 
Q 1234 2150 1697 2047 
L 1894 2003 
Q 2506 1872 2764 1633 
Q 3022 1394 3022 966 
Q 3022 478 2636 193 
Q 2250 -91 1575 -91 
Q 1294 -91 989 -36 
Q 684 19 347 128 
L 347 722 
Q 666 556 975 473 
Q 1284 391 1588 391 
Q 1994 391 2212 530 
Q 2431 669 2431 922 
Q 2431 1156 2273 1281 
Q 2116 1406 1581 1522 
L 1381 1569 
Q 847 1681 609 1914 
Q 372 2147 372 2553 
Q 372 3047 722 3315 
Q 1072 3584 1716 3584 
Q 2034 3584 2315 3537 
Q 2597 3491 2834 3397 
z
" transform="scale(0.015625)"/>
      <path id="DejaVuSans-2d" d="M 313 2009 
L 1997 2009 
L 1997 1497 
L 313 1497 
L 313 2009 
z
" transform="scale(0.015625)"/>
      <path id="DejaVuSans-2e" d="M 684 794 
L 1344 794 
L 1344 0 
L 684 0 
L 684 794 
z
" transform="scale(0.015625)"/>
     </defs>
     <use xlink:href="#DejaVuSans-53"/>
     <use xlink:href="#DejaVuSans-74" x="63.476562"/>
     <use xlink:href="#DejaVuSans-72" x="102.685547"/>
     <use xlink:href="#DejaVuSans-69" x="143.798828"/>
     <use xlink:href="#DejaVuSans-70" x="171.582031"/>
     <use xlink:href="#DejaVuSans-20" x="235.058594"/>
     <use xlink:href="#DejaVuSans-70" x="266.845703"/>
     <use xlink:href="#DejaVuSans-6c" x="330.322266"/>
     <use xlink:href="#DejaVuSans-6f" x="358.105469"/>
     <use xlink:href="#DejaVuSans-74" x="419.287109"/>
     <use xlink:href="#DejaVuSans-73" x="458.496094"/>
     <use xlink:href="#DejaVuSans-20" x="510.595703"/>
     <use xlink:href="#DejaVuSans-2d" x="542.382812"/>
     <use xlink:href="#DejaVuSans-20" x="578.466797"/>
     <use xlink:href="#DejaVuSans-50" x="610.253906"/>
     <use xlink:href="#DejaVuSans-4d" x="670.556641"/>
     <use xlink:href="#DejaVuSans-32" x="756.835938"/>
     <use xlink:href="#DejaVuSans-2e" x="820.458984"/>
     <use xlink:href="#DejaVuSans-35" x="852.246094"/>
    </g>
   </g>
  </g>
 </g>
 <defs>
  <clipPath id="pfd30fcb040">
   <rect x="40.603125" y="22.318125" width="357.12" height="266.112"/>
  </clipPath>
 </defs>
</svg>
