<?xml version="1.0" encoding="utf-8" standalone="no"?>
<!DOCTYPE svg PUBLIC "-//W3C//DTD SVG 1.1//EN"
  "http://www.w3.org/Graphics/SVG/1.1/DTD/svg11.dtd">
<svg xmlns:xlink="http://www.w3.org/1999/xlink" width="404.923125pt" height="325.986375pt" viewBox="0 0 404.923125 325.986375" xmlns="http://www.w3.org/2000/svg" version="1.1">
 <metadata>
  <rdf:RDF xmlns:dc="http://purl.org/dc/elements/1.1/" xmlns:cc="http://creativecommons.org/ns#" xmlns:rdf="http://www.w3.org/1999/02/22-rdf-syntax-ns#">
   <cc:Work>
    <dc:type rdf:resource="http://purl.org/dc/dcmitype/StillImage"/>
    <dc:date>2024-03-09T17:02:49.990544</dc:date>
    <dc:format>image/svg+xml</dc:format>
    <dc:creator>
     <cc:Agent>
      <dc:title>Matplotlib v3.7.0, https://matplotlib.org/</dc:title>
     </cc:Agent>
    </dc:creator>
   </cc:Work>
  </rdf:RDF>
 </metadata>
 <defs>
  <style type="text/css">*{stroke-linejoin: round; stroke-linecap: butt}</style>
 </defs>
 <g id="figure_1">
  <g id="patch_1">
   <path d="M 0 325.986375 
L 404.923125 325.986375 
L 404.923125 0 
L 0 0 
L 0 325.986375 
z
" style="fill: none"/>
  </g>
  <g id="axes_1">
   <g id="patch_2">
    <path d="M 40.603125 288.430125 
L 397.723125 288.430125 
L 397.723125 22.318125 
L 40.603125 22.318125 
L 40.603125 288.430125 
z
" style="fill: none"/>
   </g>
   <g id="matplotlib.axis_1">
    <g id="xtick_1">
     <g id="line2d_1">
      <defs>
       <path id="m8f480be8f6" d="M 0 0 
L 0 3.5 
" style="stroke: #000000; stroke-width: 0.8"/>
      </defs>
      <g>
       <use xlink:href="#m8f480be8f6" x="70.363125" y="288.430125" style="stroke: #000000; stroke-width: 0.8"/>
      </g>
     </g>
     <g id="text_1">
      <!-- 1 -->
      <g transform="translate(67.181875 303.028562) scale(0.1 -0.1)">
       <defs>
        <path id="DejaVuSans-31" d="M 794 531 
L 1825 531 
L 1825 4091 
L 703 3866 
L 703 4441 
L 1819 4666 
L 2450 4666 
L 2450 531 
L 3481 531 
L 3481 0 
L 794 0 
L 794 531 
z
" transform="scale(0.015625)"/>
       </defs>
       <use xlink:href="#DejaVuSans-31"/>
      </g>
     </g>
    </g>
    <g id="xtick_2">
     <g id="line2d_2">
      <g>
       <use xlink:href="#m8f480be8f6" x="129.883125" y="288.430125" style="stroke: #000000; stroke-width: 0.8"/>
      </g>
     </g>
     <g id="text_2">
      <!-- 2 -->
      <g transform="translate(126.701875 303.028562) scale(0.1 -0.1)">
       <defs>
        <path id="DejaVuSans-32" d="M 1228 531 
L 3431 531 
L 3431 0 
L 469 0 
L 469 531 
Q 828 903 1448 1529 
Q 2069 2156 2228 2338 
Q 2531 2678 2651 2914 
Q 2772 3150 2772 3378 
Q 2772 3750 2511 3984 
Q 2250 4219 1831 4219 
Q 1534 4219 1204 4116 
Q 875 4013 500 3803 
L 500 4441 
Q 881 4594 1212 4672 
Q 1544 4750 1819 4750 
Q 2544 4750 2975 4387 
Q 3406 4025 3406 3419 
Q 3406 3131 3298 2873 
Q 3191 2616 2906 2266 
Q 2828 2175 2409 1742 
Q 1991 1309 1228 531 
z
" transform="scale(0.015625)"/>
       </defs>
       <use xlink:href="#DejaVuSans-32"/>
      </g>
     </g>
    </g>
    <g id="xtick_3">
     <g id="line2d_3">
      <g>
       <use xlink:href="#m8f480be8f6" x="189.403125" y="288.430125" style="stroke: #000000; stroke-width: 0.8"/>
      </g>
     </g>
     <g id="text_3">
      <!-- 3 -->
      <g transform="translate(186.221875 303.028562) scale(0.1 -0.1)">
       <defs>
        <path id="DejaVuSans-33" d="M 2597 2516 
Q 3050 2419 3304 2112 
Q 3559 1806 3559 1356 
Q 3559 666 3084 287 
Q 2609 -91 1734 -91 
Q 1441 -91 1130 -33 
Q 819 25 488 141 
L 488 750 
Q 750 597 1062 519 
Q 1375 441 1716 441 
Q 2309 441 2620 675 
Q 2931 909 2931 1356 
Q 2931 1769 2642 2001 
Q 2353 2234 1838 2234 
L 1294 2234 
L 1294 2753 
L 1863 2753 
Q 2328 2753 2575 2939 
Q 2822 3125 2822 3475 
Q 2822 3834 2567 4026 
Q 2313 4219 1838 4219 
Q 1578 4219 1281 4162 
Q 984 4106 628 3988 
L 628 4550 
Q 988 4650 1302 4700 
Q 1616 4750 1894 4750 
Q 2613 4750 3031 4423 
Q 3450 4097 3450 3541 
Q 3450 3153 3228 2886 
Q 3006 2619 2597 2516 
z
" transform="scale(0.015625)"/>
       </defs>
       <use xlink:href="#DejaVuSans-33"/>
      </g>
     </g>
    </g>
    <g id="xtick_4">
     <g id="line2d_4">
      <g>
       <use xlink:href="#m8f480be8f6" x="248.923125" y="288.430125" style="stroke: #000000; stroke-width: 0.8"/>
      </g>
     </g>
     <g id="text_4">
      <!-- 4 -->
      <g transform="translate(245.741875 303.028562) scale(0.1 -0.1)">
       <defs>
        <path id="DejaVuSans-34" d="M 2419 4116 
L 825 1625 
L 2419 1625 
L 2419 4116 
z
M 2253 4666 
L 3047 4666 
L 3047 1625 
L 3713 1625 
L 3713 1100 
L 3047 1100 
L 3047 0 
L 2419 0 
L 2419 1100 
L 313 1100 
L 313 1709 
L 2253 4666 
z
" transform="scale(0.015625)"/>
       </defs>
       <use xlink:href="#DejaVuSans-34"/>
      </g>
     </g>
    </g>
    <g id="xtick_5">
     <g id="line2d_5">
      <g>
       <use xlink:href="#m8f480be8f6" x="308.443125" y="288.430125" style="stroke: #000000; stroke-width: 0.8"/>
      </g>
     </g>
     <g id="text_5">
      <!-- 5 -->
      <g transform="translate(305.261875 303.028562) scale(0.1 -0.1)">
       <defs>
        <path id="DejaVuSans-35" d="M 691 4666 
L 3169 4666 
L 3169 4134 
L 1269 4134 
L 1269 2991 
Q 1406 3038 1543 3061 
Q 1681 3084 1819 3084 
Q 2600 3084 3056 2656 
Q 3513 2228 3513 1497 
Q 3513 744 3044 326 
Q 2575 -91 1722 -91 
Q 1428 -91 1123 -41 
Q 819 9 494 109 
L 494 744 
Q 775 591 1075 516 
Q 1375 441 1709 441 
Q 2250 441 2565 725 
Q 2881 1009 2881 1497 
Q 2881 1984 2565 2268 
Q 2250 2553 1709 2553 
Q 1456 2553 1204 2497 
Q 953 2441 691 2322 
L 691 4666 
z
" transform="scale(0.015625)"/>
       </defs>
       <use xlink:href="#DejaVuSans-35"/>
      </g>
     </g>
    </g>
    <g id="xtick_6">
     <g id="line2d_6">
      <g>
       <use xlink:href="#m8f480be8f6" x="367.963125" y="288.430125" style="stroke: #000000; stroke-width: 0.8"/>
      </g>
     </g>
     <g id="text_6">
      <!-- 6 -->
      <g transform="translate(364.781875 303.028562) scale(0.1 -0.1)">
       <defs>
        <path id="DejaVuSans-36" d="M 2113 2584 
Q 1688 2584 1439 2293 
Q 1191 2003 1191 1497 
Q 1191 994 1439 701 
Q 1688 409 2113 409 
Q 2538 409 2786 701 
Q 3034 994 3034 1497 
Q 3034 2003 2786 2293 
Q 2538 2584 2113 2584 
z
M 3366 4563 
L 3366 3988 
Q 3128 4100 2886 4159 
Q 2644 4219 2406 4219 
Q 1781 4219 1451 3797 
Q 1122 3375 1075 2522 
Q 1259 2794 1537 2939 
Q 1816 3084 2150 3084 
Q 2853 3084 3261 2657 
Q 3669 2231 3669 1497 
Q 3669 778 3244 343 
Q 2819 -91 2113 -91 
Q 1303 -91 875 529 
Q 447 1150 447 2328 
Q 447 3434 972 4092 
Q 1497 4750 2381 4750 
Q 2619 4750 2861 4703 
Q 3103 4656 3366 4563 
z
" transform="scale(0.015625)"/>
       </defs>
       <use xlink:href="#DejaVuSans-36"/>
      </g>
     </g>
    </g>
    <g id="text_7">
     <!-- Location Group -->
     <g transform="translate(181.206094 316.706687) scale(0.1 -0.1)">
      <defs>
       <path id="DejaVuSans-4c" d="M 628 4666 
L 1259 4666 
L 1259 531 
L 3531 531 
L 3531 0 
L 628 0 
L 628 4666 
z
" transform="scale(0.015625)"/>
       <path id="DejaVuSans-6f" d="M 1959 3097 
Q 1497 3097 1228 2736 
Q 959 2375 959 1747 
Q 959 1119 1226 758 
Q 1494 397 1959 397 
Q 2419 397 2687 759 
Q 2956 1122 2956 1747 
Q 2956 2369 2687 2733 
Q 2419 3097 1959 3097 
z
M 1959 3584 
Q 2709 3584 3137 3096 
Q 3566 2609 3566 1747 
Q 3566 888 3137 398 
Q 2709 -91 1959 -91 
Q 1206 -91 779 398 
Q 353 888 353 1747 
Q 353 2609 779 3096 
Q 1206 3584 1959 3584 
z
" transform="scale(0.015625)"/>
       <path id="DejaVuSans-63" d="M 3122 3366 
L 3122 2828 
Q 2878 2963 2633 3030 
Q 2388 3097 2138 3097 
Q 1578 3097 1268 2742 
Q 959 2388 959 1747 
Q 959 1106 1268 751 
Q 1578 397 2138 397 
Q 2388 397 2633 464 
Q 2878 531 3122 666 
L 3122 134 
Q 2881 22 2623 -34 
Q 2366 -91 2075 -91 
Q 1284 -91 818 406 
Q 353 903 353 1747 
Q 353 2603 823 3093 
Q 1294 3584 2113 3584 
Q 2378 3584 2631 3529 
Q 2884 3475 3122 3366 
z
" transform="scale(0.015625)"/>
       <path id="DejaVuSans-61" d="M 2194 1759 
Q 1497 1759 1228 1600 
Q 959 1441 959 1056 
Q 959 750 1161 570 
Q 1363 391 1709 391 
Q 2188 391 2477 730 
Q 2766 1069 2766 1631 
L 2766 1759 
L 2194 1759 
z
M 3341 1997 
L 3341 0 
L 2766 0 
L 2766 531 
Q 2569 213 2275 61 
Q 1981 -91 1556 -91 
Q 1019 -91 701 211 
Q 384 513 384 1019 
Q 384 1609 779 1909 
Q 1175 2209 1959 2209 
L 2766 2209 
L 2766 2266 
Q 2766 2663 2505 2880 
Q 2244 3097 1772 3097 
Q 1472 3097 1187 3025 
Q 903 2953 641 2809 
L 641 3341 
Q 956 3463 1253 3523 
Q 1550 3584 1831 3584 
Q 2591 3584 2966 3190 
Q 3341 2797 3341 1997 
z
" transform="scale(0.015625)"/>
       <path id="DejaVuSans-74" d="M 1172 4494 
L 1172 3500 
L 2356 3500 
L 2356 3053 
L 1172 3053 
L 1172 1153 
Q 1172 725 1289 603 
Q 1406 481 1766 481 
L 2356 481 
L 2356 0 
L 1766 0 
Q 1100 0 847 248 
Q 594 497 594 1153 
L 594 3053 
L 172 3053 
L 172 3500 
L 594 3500 
L 594 4494 
L 1172 4494 
z
" transform="scale(0.015625)"/>
       <path id="DejaVuSans-69" d="M 603 3500 
L 1178 3500 
L 1178 0 
L 603 0 
L 603 3500 
z
M 603 4863 
L 1178 4863 
L 1178 4134 
L 603 4134 
L 603 4863 
z
" transform="scale(0.015625)"/>
       <path id="DejaVuSans-6e" d="M 3513 2113 
L 3513 0 
L 2938 0 
L 2938 2094 
Q 2938 2591 2744 2837 
Q 2550 3084 2163 3084 
Q 1697 3084 1428 2787 
Q 1159 2491 1159 1978 
L 1159 0 
L 581 0 
L 581 3500 
L 1159 3500 
L 1159 2956 
Q 1366 3272 1645 3428 
Q 1925 3584 2291 3584 
Q 2894 3584 3203 3211 
Q 3513 2838 3513 2113 
z
" transform="scale(0.015625)"/>
       <path id="DejaVuSans-20" transform="scale(0.015625)"/>
       <path id="DejaVuSans-47" d="M 3809 666 
L 3809 1919 
L 2778 1919 
L 2778 2438 
L 4434 2438 
L 4434 434 
Q 4069 175 3628 42 
Q 3188 -91 2688 -91 
Q 1594 -91 976 548 
Q 359 1188 359 2328 
Q 359 3472 976 4111 
Q 1594 4750 2688 4750 
Q 3144 4750 3555 4637 
Q 3966 4525 4313 4306 
L 4313 3634 
Q 3963 3931 3569 4081 
Q 3175 4231 2741 4231 
Q 1884 4231 1454 3753 
Q 1025 3275 1025 2328 
Q 1025 1384 1454 906 
Q 1884 428 2741 428 
Q 3075 428 3337 486 
Q 3600 544 3809 666 
z
" transform="scale(0.015625)"/>
       <path id="DejaVuSans-72" d="M 2631 2963 
Q 2534 3019 2420 3045 
Q 2306 3072 2169 3072 
Q 1681 3072 1420 2755 
Q 1159 2438 1159 1844 
L 1159 0 
L 581 0 
L 581 3500 
L 1159 3500 
L 1159 2956 
Q 1341 3275 1631 3429 
Q 1922 3584 2338 3584 
Q 2397 3584 2469 3576 
Q 2541 3569 2628 3553 
L 2631 2963 
z
" transform="scale(0.015625)"/>
       <path id="DejaVuSans-75" d="M 544 1381 
L 544 3500 
L 1119 3500 
L 1119 1403 
Q 1119 906 1312 657 
Q 1506 409 1894 409 
Q 2359 409 2629 706 
Q 2900 1003 2900 1516 
L 2900 3500 
L 3475 3500 
L 3475 0 
L 2900 0 
L 2900 538 
Q 2691 219 2414 64 
Q 2138 -91 1772 -91 
Q 1169 -91 856 284 
Q 544 659 544 1381 
z
M 1991 3584 
L 1991 3584 
z
" transform="scale(0.015625)"/>
       <path id="DejaVuSans-70" d="M 1159 525 
L 1159 -1331 
L 581 -1331 
L 581 3500 
L 1159 3500 
L 1159 2969 
Q 1341 3281 1617 3432 
Q 1894 3584 2278 3584 
Q 2916 3584 3314 3078 
Q 3713 2572 3713 1747 
Q 3713 922 3314 415 
Q 2916 -91 2278 -91 
Q 1894 -91 1617 61 
Q 1341 213 1159 525 
z
M 3116 1747 
Q 3116 2381 2855 2742 
Q 2594 3103 2138 3103 
Q 1681 3103 1420 2742 
Q 1159 2381 1159 1747 
Q 1159 1113 1420 752 
Q 1681 391 2138 391 
Q 2594 391 2855 752 
Q 3116 1113 3116 1747 
z
" transform="scale(0.015625)"/>
      </defs>
      <use xlink:href="#DejaVuSans-4c"/>
      <use xlink:href="#DejaVuSans-6f" x="53.962891"/>
      <use xlink:href="#DejaVuSans-63" x="115.144531"/>
      <use xlink:href="#DejaVuSans-61" x="170.125"/>
      <use xlink:href="#DejaVuSans-74" x="231.404297"/>
      <use xlink:href="#DejaVuSans-69" x="270.613281"/>
      <use xlink:href="#DejaVuSans-6f" x="298.396484"/>
      <use xlink:href="#DejaVuSans-6e" x="359.578125"/>
      <use xlink:href="#DejaVuSans-20" x="422.957031"/>
      <use xlink:href="#DejaVuSans-47" x="454.744141"/>
      <use xlink:href="#DejaVuSans-72" x="532.234375"/>
      <use xlink:href="#DejaVuSans-6f" x="571.097656"/>
      <use xlink:href="#DejaVuSans-75" x="632.279297"/>
      <use xlink:href="#DejaVuSans-70" x="695.658203"/>
     </g>
    </g>
   </g>
   <g id="matplotlib.axis_2">
    <g id="ytick_1">
     <g id="line2d_7">
      <defs>
       <path id="m154e422263" d="M 0 0 
L -3.5 0 
" style="stroke: #000000; stroke-width: 0.8"/>
      </defs>
      <g>
       <use xlink:href="#m154e422263" x="40.603125" y="277.998185" style="stroke: #000000; stroke-width: 0.8"/>
      </g>
     </g>
     <g id="text_8">
      <!-- 0 -->
      <g transform="translate(27.240625 281.797404) scale(0.1 -0.1)">
       <defs>
        <path id="DejaVuSans-30" d="M 2034 4250 
Q 1547 4250 1301 3770 
Q 1056 3291 1056 2328 
Q 1056 1369 1301 889 
Q 1547 409 2034 409 
Q 2525 409 2770 889 
Q 3016 1369 3016 2328 
Q 3016 3291 2770 3770 
Q 2525 4250 2034 4250 
z
M 2034 4750 
Q 2819 4750 3233 4129 
Q 3647 3509 3647 2328 
Q 3647 1150 3233 529 
Q 2819 -91 2034 -91 
Q 1250 -91 836 529 
Q 422 1150 422 2328 
Q 422 3509 836 4129 
Q 1250 4750 2034 4750 
z
" transform="scale(0.015625)"/>
       </defs>
       <use xlink:href="#DejaVuSans-30"/>
      </g>
     </g>
    </g>
    <g id="ytick_2">
     <g id="line2d_8">
      <g>
       <use xlink:href="#m154e422263" x="40.603125" y="242.938976" style="stroke: #000000; stroke-width: 0.8"/>
      </g>
     </g>
     <g id="text_9">
      <!-- 10 -->
      <g transform="translate(20.878125 246.738194) scale(0.1 -0.1)">
       <use xlink:href="#DejaVuSans-31"/>
       <use xlink:href="#DejaVuSans-30" x="63.623047"/>
      </g>
     </g>
    </g>
    <g id="ytick_3">
     <g id="line2d_9">
      <g>
       <use xlink:href="#m154e422263" x="40.603125" y="207.879766" style="stroke: #000000; stroke-width: 0.8"/>
      </g>
     </g>
     <g id="text_10">
      <!-- 20 -->
      <g transform="translate(20.878125 211.678985) scale(0.1 -0.1)">
       <use xlink:href="#DejaVuSans-32"/>
       <use xlink:href="#DejaVuSans-30" x="63.623047"/>
      </g>
     </g>
    </g>
    <g id="ytick_4">
     <g id="line2d_10">
      <g>
       <use xlink:href="#m154e422263" x="40.603125" y="172.820557" style="stroke: #000000; stroke-width: 0.8"/>
      </g>
     </g>
     <g id="text_11">
      <!-- 30 -->
      <g transform="translate(20.878125 176.619775) scale(0.1 -0.1)">
       <use xlink:href="#DejaVuSans-33"/>
       <use xlink:href="#DejaVuSans-30" x="63.623047"/>
      </g>
     </g>
    </g>
    <g id="ytick_5">
     <g id="line2d_11">
      <g>
       <use xlink:href="#m154e422263" x="40.603125" y="137.761347" style="stroke: #000000; stroke-width: 0.8"/>
      </g>
     </g>
     <g id="text_12">
      <!-- 40 -->
      <g transform="translate(20.878125 141.560566) scale(0.1 -0.1)">
       <use xlink:href="#DejaVuSans-34"/>
       <use xlink:href="#DejaVuSans-30" x="63.623047"/>
      </g>
     </g>
    </g>
    <g id="ytick_6">
     <g id="line2d_12">
      <g>
       <use xlink:href="#m154e422263" x="40.603125" y="102.702138" style="stroke: #000000; stroke-width: 0.8"/>
      </g>
     </g>
     <g id="text_13">
      <!-- 50 -->
      <g transform="translate(20.878125 106.501356) scale(0.1 -0.1)">
       <use xlink:href="#DejaVuSans-35"/>
       <use xlink:href="#DejaVuSans-30" x="63.623047"/>
      </g>
     </g>
    </g>
    <g id="ytick_7">
     <g id="line2d_13">
      <g>
       <use xlink:href="#m154e422263" x="40.603125" y="67.642928" style="stroke: #000000; stroke-width: 0.8"/>
      </g>
     </g>
     <g id="text_14">
      <!-- 60 -->
      <g transform="translate(20.878125 71.442147) scale(0.1 -0.1)">
       <use xlink:href="#DejaVuSans-36"/>
       <use xlink:href="#DejaVuSans-30" x="63.623047"/>
      </g>
     </g>
    </g>
    <g id="ytick_8">
     <g id="line2d_14">
      <g>
       <use xlink:href="#m154e422263" x="40.603125" y="32.583719" style="stroke: #000000; stroke-width: 0.8"/>
      </g>
     </g>
     <g id="text_15">
      <!-- 70 -->
      <g transform="translate(20.878125 36.382937) scale(0.1 -0.1)">
       <defs>
        <path id="DejaVuSans-37" d="M 525 4666 
L 3525 4666 
L 3525 4397 
L 1831 0 
L 1172 0 
L 2766 4134 
L 525 4134 
L 525 4666 
z
" transform="scale(0.015625)"/>
       </defs>
       <use xlink:href="#DejaVuSans-37"/>
       <use xlink:href="#DejaVuSans-30" x="63.623047"/>
      </g>
     </g>
    </g>
    <g id="text_16">
     <!-- Poultry -->
     <g transform="translate(14.798438 172.799906) rotate(-90) scale(0.1 -0.1)">
      <defs>
       <path id="DejaVuSans-50" d="M 1259 4147 
L 1259 2394 
L 2053 2394 
Q 2494 2394 2734 2622 
Q 2975 2850 2975 3272 
Q 2975 3691 2734 3919 
Q 2494 4147 2053 4147 
L 1259 4147 
z
M 628 4666 
L 2053 4666 
Q 2838 4666 3239 4311 
Q 3641 3956 3641 3272 
Q 3641 2581 3239 2228 
Q 2838 1875 2053 1875 
L 1259 1875 
L 1259 0 
L 628 0 
L 628 4666 
z
" transform="scale(0.015625)"/>
       <path id="DejaVuSans-6c" d="M 603 4863 
L 1178 4863 
L 1178 0 
L 603 0 
L 603 4863 
z
" transform="scale(0.015625)"/>
       <path id="DejaVuSans-79" d="M 2059 -325 
Q 1816 -950 1584 -1140 
Q 1353 -1331 966 -1331 
L 506 -1331 
L 506 -850 
L 844 -850 
Q 1081 -850 1212 -737 
Q 1344 -625 1503 -206 
L 1606 56 
L 191 3500 
L 800 3500 
L 1894 763 
L 2988 3500 
L 3597 3500 
L 2059 -325 
z
" transform="scale(0.015625)"/>
      </defs>
      <use xlink:href="#DejaVuSans-50"/>
      <use xlink:href="#DejaVuSans-6f" x="56.677734"/>
      <use xlink:href="#DejaVuSans-75" x="117.859375"/>
      <use xlink:href="#DejaVuSans-6c" x="181.238281"/>
      <use xlink:href="#DejaVuSans-74" x="209.021484"/>
      <use xlink:href="#DejaVuSans-72" x="248.230469"/>
      <use xlink:href="#DejaVuSans-79" x="289.34375"/>
     </g>
    </g>
   </g>
   <g id="patch_3">
    <path d="M 40.603125 288.430125 
L 40.603125 22.318125 
" style="fill: none; stroke: #000000; stroke-width: 0.8; stroke-linejoin: miter; stroke-linecap: square"/>
   </g>
   <g id="patch_4">
    <path d="M 397.723125 288.430125 
L 397.723125 22.318125 
" style="fill: none; stroke: #000000; stroke-width: 0.8; stroke-linejoin: miter; stroke-linecap: square"/>
   </g>
   <g id="patch_5">
    <path d="M 40.603125 288.430125 
L 397.723125 288.430125 
" style="fill: none; stroke: #000000; stroke-width: 0.8; stroke-linejoin: miter; stroke-linecap: square"/>
   </g>
   <g id="patch_6">
    <path d="M 40.603125 22.318125 
L 397.723125 22.318125 
" style="fill: none; stroke: #000000; stroke-width: 0.8; stroke-linejoin: miter; stroke-linecap: square"/>
   </g>
   <g id="PathCollection_1">
    <defs>
     <path id="mf06b196d99" d="M 0 2.5 
C 0.663008 2.5 1.29895 2.236584 1.767767 1.767767 
C 2.236584 1.29895 2.5 0.663008 2.5 0 
C 2.5 -0.663008 2.236584 -1.29895 1.767767 -1.767767 
C 1.29895 -2.236584 0.663008 -2.5 0 -2.5 
C -0.663008 -2.5 -1.29895 -2.236584 -1.767767 -1.767767 
C -2.236584 -1.29895 -2.5 -0.663008 -2.5 0 
C -2.5 0.663008 -2.236584 1.29895 -1.767767 1.767767 
C -1.29895 2.236584 -0.663008 2.5 0 2.5 
z
"/>
    </defs>
    <g clip-path="url(#pfed3839a4f)">
     <use xlink:href="#mf06b196d99" x="74.109093" y="254.988826" style="fill: #1f77b4"/>
     <use xlink:href="#mf06b196d99" x="65.904173" y="243.994272" style="fill: #1f77b4"/>
     <use xlink:href="#mf06b196d99" x="72.509379" y="243.594117" style="fill: #1f77b4"/>
     <use xlink:href="#mf06b196d99" x="65.821015" y="266.495763" style="fill: #1f77b4"/>
     <use xlink:href="#mf06b196d99" x="74.002352" y="243.823586" style="fill: #1f77b4"/>
     <use xlink:href="#mf06b196d99" x="66.037895" y="276.057744" style="fill: #1f77b4"/>
     <use xlink:href="#mf06b196d99" x="71.405233" y="266.210511" style="fill: #1f77b4"/>
     <use xlink:href="#mf06b196d99" x="66.658841" y="269.726887" style="fill: #1f77b4"/>
     <use xlink:href="#mf06b196d99" x="72.367403" y="276.334125" style="fill: #1f77b4"/>
     <use xlink:href="#mf06b196d99" x="67.773623" y="273.359359" style="fill: #1f77b4"/>
     <use xlink:href="#mf06b196d99" x="68.005612" y="267.929643" style="fill: #1f77b4"/>
     <use xlink:href="#mf06b196d99" x="75.635265" y="272.210861" style="fill: #1f77b4"/>
     <use xlink:href="#mf06b196d99" x="76.094334" y="276.173293" style="fill: #1f77b4"/>
     <use xlink:href="#mf06b196d99" x="70.463464" y="159.505735" style="fill: #1f77b4"/>
     <use xlink:href="#mf06b196d99" x="65.426588" y="241.123133" style="fill: #1f77b4"/>
     <use xlink:href="#mf06b196d99" x="74.288042" y="253.369322" style="fill: #1f77b4"/>
     <use xlink:href="#mf06b196d99" x="68.771524" y="268.575558" style="fill: #1f77b4"/>
     <use xlink:href="#mf06b196d99" x="66.948571" y="267.300542" style="fill: #1f77b4"/>
     <use xlink:href="#mf06b196d99" x="75.18018" y="271.8845" style="fill: #1f77b4"/>
     <use xlink:href="#mf06b196d99" x="73.205791" y="272.943145" style="fill: #1f77b4"/>
     <use xlink:href="#mf06b196d99" x="69.478385" y="240.775973" style="fill: #1f77b4"/>
     <use xlink:href="#mf06b196d99" x="66.800236" y="267.077662" style="fill: #1f77b4"/>
     <use xlink:href="#mf06b196d99" x="71.201412" y="258.405607" style="fill: #1f77b4"/>
     <use xlink:href="#mf06b196d99" x="66.662517" y="269.821978" style="fill: #1f77b4"/>
     <use xlink:href="#mf06b196d99" x="70.114446" y="256.028662" style="fill: #1f77b4"/>
     <use xlink:href="#mf06b196d99" x="72.002654" y="263.972407" style="fill: #1f77b4"/>
     <use xlink:href="#mf06b196d99" x="73.422917" y="246.399309" style="fill: #1f77b4"/>
     <use xlink:href="#mf06b196d99" x="74.250592" y="273.919473" style="fill: #1f77b4"/>
     <use xlink:href="#mf06b196d99" x="73.982645" y="273.666244" style="fill: #1f77b4"/>
     <use xlink:href="#mf06b196d99" x="76.282982" y="207.497445" style="fill: #1f77b4"/>
     <use xlink:href="#mf06b196d99" x="69.502008" y="272.238216" style="fill: #1f77b4"/>
     <use xlink:href="#mf06b196d99" x="69.261588" y="214.513947" style="fill: #1f77b4"/>
     <use xlink:href="#mf06b196d99" x="74.554794" y="252.396376" style="fill: #1f77b4"/>
     <use xlink:href="#mf06b196d99" x="66.906591" y="258.935004" style="fill: #1f77b4"/>
     <use xlink:href="#mf06b196d99" x="64.762887" y="275.179016" style="fill: #1f77b4"/>
     <use xlink:href="#mf06b196d99" x="66.974913" y="249.741416" style="fill: #1f77b4"/>
     <use xlink:href="#mf06b196d99" x="70.731284" y="272.396929" style="fill: #1f77b4"/>
     <use xlink:href="#mf06b196d99" x="72.459075" y="268.459032" style="fill: #1f77b4"/>
     <use xlink:href="#mf06b196d99" x="71.023742" y="262.314808" style="fill: #1f77b4"/>
    </g>
   </g>
   <g id="PathCollection_2">
    <g clip-path="url(#pfed3839a4f)">
     <use xlink:href="#mf06b196d99" x="133.884263" y="97.188053" style="fill: #1f77b4"/>
     <use xlink:href="#mf06b196d99" x="128.812319" y="102.273728" style="fill: #1f77b4"/>
     <use xlink:href="#mf06b196d99" x="130.629533" y="182.15566" style="fill: #1f77b4"/>
     <use xlink:href="#mf06b196d99" x="133.570538" y="132.202233" style="fill: #1f77b4"/>
     <use xlink:href="#mf06b196d99" x="125.735451" y="113.266417" style="fill: #1f77b4"/>
     <use xlink:href="#mf06b196d99" x="134.869675" y="135.067201" style="fill: #1f77b4"/>
     <use xlink:href="#mf06b196d99" x="130.173096" y="142.907303" style="fill: #1f77b4"/>
     <use xlink:href="#mf06b196d99" x="126.32245" y="151.719176" style="fill: #1f77b4"/>
     <use xlink:href="#mf06b196d99" x="124.966495" y="144.140798" style="fill: #1f77b4"/>
     <use xlink:href="#mf06b196d99" x="134.520978" y="177.018375" style="fill: #1f77b4"/>
     <use xlink:href="#mf06b196d99" x="131.2144" y="155.311093" style="fill: #1f77b4"/>
     <use xlink:href="#mf06b196d99" x="127.846938" y="212.851166" style="fill: #1f77b4"/>
     <use xlink:href="#mf06b196d99" x="129.720959" y="189.408261" style="fill: #1f77b4"/>
     <use xlink:href="#mf06b196d99" x="127.344484" y="188.131913" style="fill: #1f77b4"/>
     <use xlink:href="#mf06b196d99" x="124.278274" y="105.043367" style="fill: #1f77b4"/>
     <use xlink:href="#mf06b196d99" x="135.110757" y="243.57185" style="fill: #1f77b4"/>
     <use xlink:href="#mf06b196d99" x="126.791611" y="198.398108" style="fill: #1f77b4"/>
     <use xlink:href="#mf06b196d99" x="131.602309" y="75.587741" style="fill: #1f77b4"/>
     <use xlink:href="#mf06b196d99" x="124.179674" y="147.591764" style="fill: #1f77b4"/>
     <use xlink:href="#mf06b196d99" x="126.890442" y="207.335097" style="fill: #1f77b4"/>
     <use xlink:href="#mf06b196d99" x="135.694402" y="80.072039" style="fill: #1f77b4"/>
     <use xlink:href="#mf06b196d99" x="130.900361" y="239.419627" style="fill: #1f77b4"/>
     <use xlink:href="#mf06b196d99" x="126.842741" y="124.451343" style="fill: #1f77b4"/>
     <use xlink:href="#mf06b196d99" x="134.04739" y="163.172869" style="fill: #1f77b4"/>
     <use xlink:href="#mf06b196d99" x="133.898545" y="105.549068" style="fill: #1f77b4"/>
     <use xlink:href="#mf06b196d99" x="125.44401" y="73.454048" style="fill: #1f77b4"/>
     <use xlink:href="#mf06b196d99" x="127.447801" y="76.539571" style="fill: #1f77b4"/>
     <use xlink:href="#mf06b196d99" x="125.564144" y="204.578749" style="fill: #1f77b4"/>
     <use xlink:href="#mf06b196d99" x="132.981499" y="219.266296" style="fill: #1f77b4"/>
    </g>
   </g>
   <g id="PathCollection_3">
    <g clip-path="url(#pfed3839a4f)">
     <use xlink:href="#mf06b196d99" x="192.635742" y="271.642038" style="fill: #1f77b4"/>
     <use xlink:href="#mf06b196d99" x="194.613166" y="114.032082" style="fill: #1f77b4"/>
     <use xlink:href="#mf06b196d99" x="189.797518" y="266.811443" style="fill: #1f77b4"/>
     <use xlink:href="#mf06b196d99" x="186.99333" y="222.782048" style="fill: #1f77b4"/>
     <use xlink:href="#mf06b196d99" x="185.628893" y="256.41192" style="fill: #1f77b4"/>
     <use xlink:href="#mf06b196d99" x="193.716393" y="201.166383" style="fill: #1f77b4"/>
     <use xlink:href="#mf06b196d99" x="193.271126" y="168.978025" style="fill: #1f77b4"/>
     <use xlink:href="#mf06b196d99" x="189.941613" y="196.180192" style="fill: #1f77b4"/>
     <use xlink:href="#mf06b196d99" x="185.251648" y="192.356814" style="fill: #1f77b4"/>
     <use xlink:href="#mf06b196d99" x="185.936606" y="256.746401" style="fill: #1f77b4"/>
     <use xlink:href="#mf06b196d99" x="194.213674" y="88.241981" style="fill: #1f77b4"/>
     <use xlink:href="#mf06b196d99" x="191.244506" y="271.887546" style="fill: #1f77b4"/>
     <use xlink:href="#mf06b196d99" x="190.729285" y="258.3156" style="fill: #1f77b4"/>
     <use xlink:href="#mf06b196d99" x="192.988539" y="219.028609" style="fill: #1f77b4"/>
     <use xlink:href="#mf06b196d99" x="185.645116" y="154.614215" style="fill: #1f77b4"/>
     <use xlink:href="#mf06b196d99" x="184.498899" y="241.311303" style="fill: #1f77b4"/>
    </g>
   </g>
   <g id="PathCollection_4">
    <g clip-path="url(#pfed3839a4f)">
     <use xlink:href="#mf06b196d99" x="243.62648" y="235.015784" style="fill: #1f77b4"/>
     <use xlink:href="#mf06b196d99" x="247.641411" y="209.544283" style="fill: #1f77b4"/>
     <use xlink:href="#mf06b196d99" x="248.244114" y="222.984318" style="fill: #1f77b4"/>
     <use xlink:href="#mf06b196d99" x="251.309644" y="228.012756" style="fill: #1f77b4"/>
     <use xlink:href="#mf06b196d99" x="247.956066" y="183.005587" style="fill: #1f77b4"/>
     <use xlink:href="#mf06b196d99" x="251.810586" y="233.713201" style="fill: #1f77b4"/>
     <use xlink:href="#mf06b196d99" x="243.933333" y="205.992038" style="fill: #1f77b4"/>
     <use xlink:href="#mf06b196d99" x="251.322567" y="197.996105" style="fill: #1f77b4"/>
     <use xlink:href="#mf06b196d99" x="252.689811" y="172.709065" style="fill: #1f77b4"/>
     <use xlink:href="#mf06b196d99" x="249.067347" y="196.587461" style="fill: #1f77b4"/>
     <use xlink:href="#mf06b196d99" x="253.797465" y="190.014803" style="fill: #1f77b4"/>
     <use xlink:href="#mf06b196d99" x="244.22437" y="201.754168" style="fill: #1f77b4"/>
     <use xlink:href="#mf06b196d99" x="254.08035" y="206.480329" style="fill: #1f77b4"/>
     <use xlink:href="#mf06b196d99" x="248.796519" y="200.206392" style="fill: #1f77b4"/>
     <use xlink:href="#mf06b196d99" x="245.611415" y="210.255603" style="fill: #1f77b4"/>
     <use xlink:href="#mf06b196d99" x="254.502769" y="217.076663" style="fill: #1f77b4"/>
     <use xlink:href="#mf06b196d99" x="253.611811" y="188.058516" style="fill: #1f77b4"/>
     <use xlink:href="#mf06b196d99" x="245.64579" y="182.201689" style="fill: #1f77b4"/>
     <use xlink:href="#mf06b196d99" x="244.450248" y="174.58387" style="fill: #1f77b4"/>
     <use xlink:href="#mf06b196d99" x="244.416523" y="186.781495" style="fill: #1f77b4"/>
     <use xlink:href="#mf06b196d99" x="250.83814" y="34.414125" style="fill: #1f77b4"/>
     <use xlink:href="#mf06b196d99" x="250.529432" y="209.224827" style="fill: #1f77b4"/>
     <use xlink:href="#mf06b196d99" x="244.016477" y="208.325982" style="fill: #1f77b4"/>
     <use xlink:href="#mf06b196d99" x="247.812159" y="257.367341" style="fill: #1f77b4"/>
     <use xlink:href="#mf06b196d99" x="252.218907" y="193.659022" style="fill: #1f77b4"/>
     <use xlink:href="#mf06b196d99" x="248.619479" y="175.851173" style="fill: #1f77b4"/>
     <use xlink:href="#mf06b196d99" x="244.618025" y="212.43435" style="fill: #1f77b4"/>
     <use xlink:href="#mf06b196d99" x="246.35318" y="202.095347" style="fill: #1f77b4"/>
     <use xlink:href="#mf06b196d99" x="245.58084" y="259.598038" style="fill: #1f77b4"/>
     <use xlink:href="#mf06b196d99" x="252.877747" y="208.829355" style="fill: #1f77b4"/>
     <use xlink:href="#mf06b196d99" x="254.402017" y="207.126319" style="fill: #1f77b4"/>
     <use xlink:href="#mf06b196d99" x="253.102986" y="172.923056" style="fill: #1f77b4"/>
     <use xlink:href="#mf06b196d99" x="244.913014" y="168.454714" style="fill: #1f77b4"/>
     <use xlink:href="#mf06b196d99" x="246.311019" y="195.761158" style="fill: #1f77b4"/>
     <use xlink:href="#mf06b196d99" x="243.701746" y="168.024632" style="fill: #1f77b4"/>
     <use xlink:href="#mf06b196d99" x="249.714169" y="212.961728" style="fill: #1f77b4"/>
     <use xlink:href="#mf06b196d99" x="249.687331" y="177.526435" style="fill: #1f77b4"/>
     <use xlink:href="#mf06b196d99" x="248.45975" y="162.089388" style="fill: #1f77b4"/>
     <use xlink:href="#mf06b196d99" x="244.892678" y="222.106064" style="fill: #1f77b4"/>
     <use xlink:href="#mf06b196d99" x="245.295248" y="219.411901" style="fill: #1f77b4"/>
     <use xlink:href="#mf06b196d99" x="251.622561" y="270.718357" style="fill: #1f77b4"/>
     <use xlink:href="#mf06b196d99" x="244.201132" y="205.611036" style="fill: #1f77b4"/>
     <use xlink:href="#mf06b196d99" x="251.091708" y="260.171017" style="fill: #1f77b4"/>
     <use xlink:href="#mf06b196d99" x="252.1861" y="184.920296" style="fill: #1f77b4"/>
     <use xlink:href="#mf06b196d99" x="248.835617" y="159.618093" style="fill: #1f77b4"/>
     <use xlink:href="#mf06b196d99" x="248.000707" y="268.390572" style="fill: #1f77b4"/>
    </g>
   </g>
   <g id="PathCollection_5">
    <g clip-path="url(#pfed3839a4f)">
     <use xlink:href="#mf06b196d99" x="306.745773" y="272.472424" style="fill: #1f77b4"/>
     <use xlink:href="#mf06b196d99" x="313.125514" y="263.566451" style="fill: #1f77b4"/>
     <use xlink:href="#mf06b196d99" x="312.117748" y="266.880016" style="fill: #1f77b4"/>
     <use xlink:href="#mf06b196d99" x="306.265421" y="226.437791" style="fill: #1f77b4"/>
     <use xlink:href="#mf06b196d99" x="311.539572" y="173.577969" style="fill: #1f77b4"/>
     <use xlink:href="#mf06b196d99" x="305.596701" y="269.266626" style="fill: #1f77b4"/>
     <use xlink:href="#mf06b196d99" x="312.09967" y="271.185338" style="fill: #1f77b4"/>
     <use xlink:href="#mf06b196d99" x="313.275674" y="247.852278" style="fill: #1f77b4"/>
     <use xlink:href="#mf06b196d99" x="309.855315" y="239.487025" style="fill: #1f77b4"/>
     <use xlink:href="#mf06b196d99" x="307.389378" y="246.13248" style="fill: #1f77b4"/>
    </g>
   </g>
   <g id="PathCollection_6">
    <g clip-path="url(#pfed3839a4f)">
     <use xlink:href="#mf06b196d99" x="370.891445" y="106.519391" style="fill: #1f77b4"/>
     <use xlink:href="#mf06b196d99" x="368.232168" y="271.721626" style="fill: #1f77b4"/>
     <use xlink:href="#mf06b196d99" x="372.887025" y="225.534161" style="fill: #1f77b4"/>
     <use xlink:href="#mf06b196d99" x="372.614854" y="145.207538" style="fill: #1f77b4"/>
     <use xlink:href="#mf06b196d99" x="368.983038" y="209.794444" style="fill: #1f77b4"/>
     <use xlink:href="#mf06b196d99" x="369.051402" y="257.67942" style="fill: #1f77b4"/>
     <use xlink:href="#mf06b196d99" x="363.494904" y="119.491362" style="fill: #1f77b4"/>
     <use xlink:href="#mf06b196d99" x="362.725563" y="182.064685" style="fill: #1f77b4"/>
     <use xlink:href="#mf06b196d99" x="366.066851" y="264.64937" style="fill: #1f77b4"/>
     <use xlink:href="#mf06b196d99" x="365.125768" y="220.306892" style="fill: #1f77b4"/>
     <use xlink:href="#mf06b196d99" x="373.764336" y="49.381988" style="fill: #1f77b4"/>
     <use xlink:href="#mf06b196d99" x="369.323431" y="258.585275" style="fill: #1f77b4"/>
     <use xlink:href="#mf06b196d99" x="371.737352" y="204.537361" style="fill: #1f77b4"/>
     <use xlink:href="#mf06b196d99" x="372.723206" y="224.08588" style="fill: #1f77b4"/>
     <use xlink:href="#mf06b196d99" x="368.111789" y="229.270245" style="fill: #1f77b4"/>
    </g>
   </g>
   <g id="text_17">
    <!-- Strip plots - Poultry Consumption -->
    <g transform="translate(119.993438 16.318125) scale(0.12 -0.12)">
     <defs>
      <path id="DejaVuSans-53" d="M 3425 4513 
L 3425 3897 
Q 3066 4069 2747 4153 
Q 2428 4238 2131 4238 
Q 1616 4238 1336 4038 
Q 1056 3838 1056 3469 
Q 1056 3159 1242 3001 
Q 1428 2844 1947 2747 
L 2328 2669 
Q 3034 2534 3370 2195 
Q 3706 1856 3706 1288 
Q 3706 609 3251 259 
Q 2797 -91 1919 -91 
Q 1588 -91 1214 -16 
Q 841 59 441 206 
L 441 856 
Q 825 641 1194 531 
Q 1563 422 1919 422 
Q 2459 422 2753 634 
Q 3047 847 3047 1241 
Q 3047 1584 2836 1778 
Q 2625 1972 2144 2069 
L 1759 2144 
Q 1053 2284 737 2584 
Q 422 2884 422 3419 
Q 422 4038 858 4394 
Q 1294 4750 2059 4750 
Q 2388 4750 2728 4690 
Q 3069 4631 3425 4513 
z
" transform="scale(0.015625)"/>
      <path id="DejaVuSans-73" d="M 2834 3397 
L 2834 2853 
Q 2591 2978 2328 3040 
Q 2066 3103 1784 3103 
Q 1356 3103 1142 2972 
Q 928 2841 928 2578 
Q 928 2378 1081 2264 
Q 1234 2150 1697 2047 
L 1894 2003 
Q 2506 1872 2764 1633 
Q 3022 1394 3022 966 
Q 3022 478 2636 193 
Q 2250 -91 1575 -91 
Q 1294 -91 989 -36 
Q 684 19 347 128 
L 347 722 
Q 666 556 975 473 
Q 1284 391 1588 391 
Q 1994 391 2212 530 
Q 2431 669 2431 922 
Q 2431 1156 2273 1281 
Q 2116 1406 1581 1522 
L 1381 1569 
Q 847 1681 609 1914 
Q 372 2147 372 2553 
Q 372 3047 722 3315 
Q 1072 3584 1716 3584 
Q 2034 3584 2315 3537 
Q 2597 3491 2834 3397 
z
" transform="scale(0.015625)"/>
      <path id="DejaVuSans-2d" d="M 313 2009 
L 1997 2009 
L 1997 1497 
L 313 1497 
L 313 2009 
z
" transform="scale(0.015625)"/>
      <path id="DejaVuSans-43" d="M 4122 4306 
L 4122 3641 
Q 3803 3938 3442 4084 
Q 3081 4231 2675 4231 
Q 1875 4231 1450 3742 
Q 1025 3253 1025 2328 
Q 1025 1406 1450 917 
Q 1875 428 2675 428 
Q 3081 428 3442 575 
Q 3803 722 4122 1019 
L 4122 359 
Q 3791 134 3420 21 
Q 3050 -91 2638 -91 
Q 1578 -91 968 557 
Q 359 1206 359 2328 
Q 359 3453 968 4101 
Q 1578 4750 2638 4750 
Q 3056 4750 3426 4639 
Q 3797 4528 4122 4306 
z
" transform="scale(0.015625)"/>
      <path id="DejaVuSans-6d" d="M 3328 2828 
Q 3544 3216 3844 3400 
Q 4144 3584 4550 3584 
Q 5097 3584 5394 3201 
Q 5691 2819 5691 2113 
L 5691 0 
L 5113 0 
L 5113 2094 
Q 5113 2597 4934 2840 
Q 4756 3084 4391 3084 
Q 3944 3084 3684 2787 
Q 3425 2491 3425 1978 
L 3425 0 
L 2847 0 
L 2847 2094 
Q 2847 2600 2669 2842 
Q 2491 3084 2119 3084 
Q 1678 3084 1418 2786 
Q 1159 2488 1159 1978 
L 1159 0 
L 581 0 
L 581 3500 
L 1159 3500 
L 1159 2956 
Q 1356 3278 1631 3431 
Q 1906 3584 2284 3584 
Q 2666 3584 2933 3390 
Q 3200 3197 3328 2828 
z
" transform="scale(0.015625)"/>
     </defs>
     <use xlink:href="#DejaVuSans-53"/>
     <use xlink:href="#DejaVuSans-74" x="63.476562"/>
     <use xlink:href="#DejaVuSans-72" x="102.685547"/>
     <use xlink:href="#DejaVuSans-69" x="143.798828"/>
     <use xlink:href="#DejaVuSans-70" x="171.582031"/>
     <use xlink:href="#DejaVuSans-20" x="235.058594"/>
     <use xlink:href="#DejaVuSans-70" x="266.845703"/>
     <use xlink:href="#DejaVuSans-6c" x="330.322266"/>
     <use xlink:href="#DejaVuSans-6f" x="358.105469"/>
     <use xlink:href="#DejaVuSans-74" x="419.287109"/>
     <use xlink:href="#DejaVuSans-73" x="458.496094"/>
     <use xlink:href="#DejaVuSans-20" x="510.595703"/>
     <use xlink:href="#DejaVuSans-2d" x="542.382812"/>
     <use xlink:href="#DejaVuSans-20" x="578.466797"/>
     <use xlink:href="#DejaVuSans-50" x="610.253906"/>
     <use xlink:href="#DejaVuSans-6f" x="666.931641"/>
     <use xlink:href="#DejaVuSans-75" x="728.113281"/>
     <use xlink:href="#DejaVuSans-6c" x="791.492188"/>
     <use xlink:href="#DejaVuSans-74" x="819.275391"/>
     <use xlink:href="#DejaVuSans-72" x="858.484375"/>
     <use xlink:href="#DejaVuSans-79" x="899.597656"/>
     <use xlink:href="#DejaVuSans-20" x="958.777344"/>
     <use xlink:href="#DejaVuSans-43" x="990.564453"/>
     <use xlink:href="#DejaVuSans-6f" x="1060.388672"/>
     <use xlink:href="#DejaVuSans-6e" x="1121.570312"/>
     <use xlink:href="#DejaVuSans-73" x="1184.949219"/>
     <use xlink:href="#DejaVuSans-75" x="1237.048828"/>
     <use xlink:href="#DejaVuSans-6d" x="1300.427734"/>
     <use xlink:href="#DejaVuSans-70" x="1397.839844"/>
     <use xlink:href="#DejaVuSans-74" x="1461.316406"/>
     <use xlink:href="#DejaVuSans-69" x="1500.525391"/>
     <use xlink:href="#DejaVuSans-6f" x="1528.308594"/>
     <use xlink:href="#DejaVuSans-6e" x="1589.490234"/>
    </g>
   </g>
  </g>
 </g>
 <defs>
  <clipPath id="pfed3839a4f">
   <rect x="40.603125" y="22.318125" width="357.12" height="266.112"/>
  </clipPath>
 </defs>
</svg>
