<?xml version="1.0" encoding="utf-8" standalone="no"?>
<!DOCTYPE svg PUBLIC "-//W3C//DTD SVG 1.1//EN"
  "http://www.w3.org/Graphics/SVG/1.1/DTD/svg11.dtd">
<svg xmlns:xlink="http://www.w3.org/1999/xlink" width="460.8pt" height="345.6pt" viewBox="0 0 460.8 345.6" xmlns="http://www.w3.org/2000/svg" version="1.1">
 <metadata>
  <rdf:RDF xmlns:dc="http://purl.org/dc/elements/1.1/" xmlns:cc="http://creativecommons.org/ns#" xmlns:rdf="http://www.w3.org/1999/02/22-rdf-syntax-ns#">
   <cc:Work>
    <dc:type rdf:resource="http://purl.org/dc/dcmitype/StillImage"/>
    <dc:date>2024-03-09T16:47:24.891120</dc:date>
    <dc:format>image/svg+xml</dc:format>
    <dc:creator>
     <cc:Agent>
      <dc:title>Matplotlib v3.7.0, https://matplotlib.org/</dc:title>
     </cc:Agent>
    </dc:creator>
   </cc:Work>
  </rdf:RDF>
 </metadata>
 <defs>
  <style type="text/css">*{stroke-linejoin: round; stroke-linecap: butt}</style>
 </defs>
 <g id="figure_1">
  <g id="patch_1">
   <path d="M 0 345.6 
L 460.8 345.6 
L 460.8 0 
L 0 0 
L 0 345.6 
z
" style="fill: none"/>
  </g>
  <g id="axes_1"/>
  <g id="axes_2">
   <g id="patch_2">
    <path d="M 57.6 307.584 
L 414.72 307.584 
L 414.72 41.472 
L 57.6 41.472 
L 57.6 307.584 
z
" style="fill: none"/>
   </g>
   <g id="PathCollection_1">
    <path d="M 61.207273 307.584 
L 64.814545 307.584 
L 68.421818 307.584 
L 72.029091 307.584 
L 75.636364 307.584 
L 79.243636 307.584 
L 82.850909 307.584 
L 86.458182 307.584 
L 90.065455 307.584 
L 93.672727 307.584 
L 97.28 307.584 
L 100.887273 307.584 
L 104.494545 307.584 
L 108.101818 307.584 
L 111.709091 307.584 
L 115.316364 307.584 
L 118.923636 307.584 
L 122.530909 307.584 
L 126.138182 307.584 
L 129.745455 307.584 
L 133.352727 307.584 
L 136.96 307.584 
L 140.567273 307.584 
L 144.174545 307.584 
L 147.781818 307.584 
L 151.389091 307.584 
L 154.996364 307.584 
L 158.603636 307.584 
L 162.210909 307.584 
L 165.818182 307.584 
L 166.179867 307.584 
L 166.179867 304.896 
L 166.179867 302.208 
L 166.179867 299.52 
L 166.179867 296.832 
L 166.179867 294.144 
L 166.179867 291.456 
L 166.179867 288.768 
L 166.179867 286.08 
L 166.179867 283.392 
L 166.179867 280.704 
L 166.179867 278.016 
L 166.179867 275.328 
L 166.179867 272.64 
L 166.179867 269.952 
L 166.179867 267.264 
L 166.179867 264.576 
L 166.179867 261.888 
L 166.179867 259.2 
L 166.179867 256.512 
L 166.179867 253.824 
L 166.179867 251.136 
L 166.179867 248.448 
L 166.179867 245.76 
L 166.179867 243.072 
L 166.179867 240.384 
L 166.179867 237.696 
L 166.179867 235.008 
L 166.179867 232.32 
L 166.179867 229.632 
L 166.179867 226.944 
L 167.913962 224.256 
L 168.99254 221.568 
L 168.99254 218.88 
L 168.99254 216.192 
L 168.99254 213.504 
L 168.99254 210.816 
L 168.99254 208.128 
L 168.99254 205.44 
L 168.99254 202.752 
L 168.299608 200.064 
L 168.299608 197.376 
L 168.299608 194.688 
L 168.299608 192 
L 168.299608 189.312 
L 168.299608 186.624 
L 168.299608 183.936 
L 168.299608 181.248 
L 168.299608 178.56 
L 168.299608 175.872 
L 168.299608 173.184 
L 168.299608 170.496 
L 168.299608 167.808 
L 168.299608 165.12 
L 168.299608 162.432 
L 168.299608 159.744 
L 168.299608 157.056 
L 168.299608 154.368 
L 168.299608 151.68 
L 168.299608 148.992 
L 168.299608 146.304 
L 168.299608 143.616 
L 168.299608 140.928 
L 168.299608 138.24 
L 168.299608 135.552 
L 168.299608 132.864 
L 168.299608 130.176 
L 168.299608 127.488 
L 168.299608 124.8 
L 168.299608 122.112 
L 168.299608 119.424 
L 168.299608 116.736 
L 168.299608 114.048 
L 168.299608 111.36 
L 168.299608 108.672 
L 168.299608 105.984 
L 168.299608 103.296 
L 168.299608 100.608 
L 168.299608 97.92 
L 168.299608 95.232 
L 168.299608 92.544 
L 168.299608 89.856 
L 168.299608 87.168 
L 168.299608 84.48 
L 168.299608 81.792 
L 168.299608 79.104 
L 168.299608 76.416 
L 168.299608 73.728 
L 168.299608 71.04 
L 168.299608 68.352 
L 168.299608 65.664 
L 168.299608 62.976 
L 168.299608 60.288 
L 168.299608 57.6 
L 168.299608 54.912 
L 168.299608 52.224 
L 168.299608 49.536 
L 168.299608 46.848 
L 168.299608 44.16 
L 168.299608 41.472 
L 165.818182 41.472 
L 162.210909 41.472 
L 158.603636 41.472 
L 154.996364 41.472 
L 151.389091 41.472 
L 147.781818 41.472 
L 144.174545 41.472 
L 140.567273 41.472 
L 136.96 41.472 
L 133.352727 41.472 
L 129.745455 41.472 
L 126.138182 41.472 
L 122.530909 41.472 
L 118.923636 41.472 
L 115.316364 41.472 
L 111.709091 41.472 
L 108.101818 41.472 
L 104.494545 41.472 
L 100.887273 41.472 
L 97.28 41.472 
L 93.672727 41.472 
L 90.065455 41.472 
L 86.458182 41.472 
L 82.850909 41.472 
L 79.243636 41.472 
L 75.636364 41.472 
L 72.029091 41.472 
L 68.421818 41.472 
L 64.814545 41.472 
L 61.207273 41.472 
L 57.6 41.472 
L 57.6 44.16 
L 57.6 46.848 
L 57.6 49.536 
L 57.6 52.224 
L 57.6 54.912 
L 57.6 57.6 
L 57.6 60.288 
L 57.6 62.976 
L 57.6 65.664 
L 57.6 68.352 
L 57.6 71.04 
L 57.6 73.728 
L 57.6 76.416 
L 57.6 79.104 
L 57.6 81.792 
L 57.6 84.48 
L 57.6 87.168 
L 57.6 89.856 
L 57.6 92.544 
L 57.6 95.232 
L 57.6 97.92 
L 57.6 100.608 
L 57.6 103.296 
L 57.6 105.984 
L 57.6 108.672 
L 57.6 111.36 
L 57.6 114.048 
L 57.6 116.736 
L 57.6 119.424 
L 57.6 122.112 
L 57.6 124.8 
L 57.6 127.488 
L 57.6 130.176 
L 57.6 132.864 
L 57.6 135.552 
L 57.6 138.24 
L 57.6 140.928 
L 57.6 143.616 
L 57.6 146.304 
L 57.6 148.992 
L 57.6 151.68 
L 57.6 154.368 
L 57.6 157.056 
L 57.6 159.744 
L 57.6 162.432 
L 57.6 165.12 
L 57.6 167.808 
L 57.6 170.496 
L 57.6 173.184 
L 57.6 175.872 
L 57.6 178.56 
L 57.6 181.248 
L 57.6 183.936 
L 57.6 186.624 
L 57.6 189.312 
L 57.6 192 
L 57.6 194.688 
L 57.6 197.376 
L 57.6 200.064 
L 57.6 202.752 
L 57.6 205.44 
L 57.6 208.128 
L 57.6 210.816 
L 57.6 213.504 
L 57.6 216.192 
L 57.6 218.88 
L 57.6 221.568 
L 57.6 224.256 
L 57.6 226.944 
L 57.6 229.632 
L 57.6 232.32 
L 57.6 235.008 
L 57.6 237.696 
L 57.6 240.384 
L 57.6 243.072 
L 57.6 245.76 
L 57.6 248.448 
L 57.6 251.136 
L 57.6 253.824 
L 57.6 256.512 
L 57.6 259.2 
L 57.6 261.888 
L 57.6 264.576 
L 57.6 267.264 
L 57.6 269.952 
L 57.6 272.64 
L 57.6 275.328 
L 57.6 278.016 
L 57.6 280.704 
L 57.6 283.392 
L 57.6 286.08 
L 57.6 288.768 
L 57.6 291.456 
L 57.6 294.144 
L 57.6 296.832 
L 57.6 299.52 
L 57.6 302.208 
L 57.6 304.896 
L 57.6 307.584 
z
" clip-path="url(#pe4b5546e78)" style="fill: #481b6d; fill-opacity: 0.75"/>
   </g>
   <g id="PathCollection_2">
    <path d="M 169.425455 307.584 
L 173.032727 307.584 
L 176.64 307.584 
L 180.247273 307.584 
L 183.854545 307.584 
L 187.461818 307.584 
L 191.069091 307.584 
L 194.676364 307.584 
L 198.283636 307.584 
L 201.890909 307.584 
L 205.498182 307.584 
L 209.105455 307.584 
L 212.712727 307.584 
L 216.32 307.584 
L 219.927273 307.584 
L 223.534545 307.584 
L 227.141818 307.584 
L 230.749091 307.584 
L 234.356364 307.584 
L 237.963636 307.584 
L 241.570909 307.584 
L 245.178182 307.584 
L 248.785455 307.584 
L 252.392727 307.584 
L 256 307.584 
L 259.607273 307.584 
L 263.214545 307.584 
L 266.070385 307.584 
L 266.070385 304.896 
L 266.070385 302.208 
L 266.070385 299.52 
L 266.070385 296.832 
L 266.070385 294.144 
L 266.070385 291.456 
L 266.070385 288.768 
L 266.070385 286.08 
L 266.070385 283.392 
L 266.070385 280.704 
L 266.070385 278.016 
L 266.070385 275.328 
L 266.070385 272.64 
L 266.070385 269.952 
L 266.070385 267.264 
L 266.070385 264.576 
L 266.070385 261.888 
L 266.070385 259.2 
L 266.070385 256.512 
L 266.070385 253.824 
L 266.070385 251.136 
L 266.070385 248.448 
L 266.070385 245.76 
L 266.070385 243.072 
L 266.070385 240.384 
L 266.070385 237.696 
L 266.070385 235.008 
L 266.070385 232.32 
L 266.070385 229.632 
L 266.070385 226.944 
L 266.821818 226.182798 
L 267.658247 224.256 
L 268.38402 221.568 
L 268.38402 218.88 
L 268.38402 216.192 
L 268.38402 213.504 
L 268.38402 210.816 
L 268.38402 208.128 
L 268.38402 205.44 
L 268.38402 202.752 
L 267.917747 200.064 
L 267.917747 197.376 
L 267.917747 194.688 
L 267.917747 192 
L 267.917747 189.312 
L 267.917747 186.624 
L 267.917747 183.936 
L 267.917747 181.248 
L 267.917747 178.56 
L 267.917747 175.872 
L 267.917747 173.184 
L 267.917747 170.496 
L 267.917747 167.808 
L 267.917747 165.12 
L 267.917747 162.432 
L 267.917747 159.744 
L 267.917747 157.056 
L 267.917747 154.368 
L 267.917747 151.68 
L 267.917747 148.992 
L 267.917747 146.304 
L 267.917747 143.616 
L 267.917747 140.928 
L 267.917747 138.24 
L 267.917747 135.552 
L 267.917747 132.864 
L 267.917747 130.176 
L 267.917747 127.488 
L 267.917747 124.8 
L 267.917747 122.112 
L 267.917747 119.424 
L 267.917747 116.736 
L 267.917747 114.048 
L 267.917747 111.36 
L 267.917747 108.672 
L 267.917747 105.984 
L 267.917747 103.296 
L 267.917747 100.608 
L 267.917747 97.92 
L 267.917747 95.232 
L 267.917747 92.544 
L 267.917747 89.856 
L 267.917747 87.168 
L 267.917747 84.48 
L 267.917747 81.792 
L 267.917747 79.104 
L 267.917747 76.416 
L 267.917747 73.728 
L 267.917747 71.04 
L 267.917747 68.352 
L 267.917747 65.664 
L 267.917747 62.976 
L 267.917747 60.288 
L 267.917747 57.6 
L 267.917747 54.912 
L 267.917747 52.224 
L 267.917747 49.536 
L 267.917747 46.848 
L 267.917747 44.16 
L 267.917747 41.472 
L 266.821818 41.472 
L 263.214545 41.472 
L 259.607273 41.472 
L 256 41.472 
L 252.392727 41.472 
L 248.785455 41.472 
L 245.178182 41.472 
L 241.570909 41.472 
L 237.963636 41.472 
L 234.356364 41.472 
L 230.749091 41.472 
L 227.141818 41.472 
L 223.534545 41.472 
L 219.927273 41.472 
L 216.32 41.472 
L 212.712727 41.472 
L 209.105455 41.472 
L 205.498182 41.472 
L 201.890909 41.472 
L 198.283636 41.472 
L 194.676364 41.472 
L 191.069091 41.472 
L 187.461818 41.472 
L 183.854545 41.472 
L 180.247273 41.472 
L 176.64 41.472 
L 173.032727 41.472 
L 169.425455 41.472 
L 168.299608 41.472 
L 168.299608 44.16 
L 168.299608 46.848 
L 168.299608 49.536 
L 168.299608 52.224 
L 168.299608 54.912 
L 168.299608 57.6 
L 168.299608 60.288 
L 168.299608 62.976 
L 168.299608 65.664 
L 168.299608 68.352 
L 168.299608 71.04 
L 168.299608 73.728 
L 168.299608 76.416 
L 168.299608 79.104 
L 168.299608 81.792 
L 168.299608 84.48 
L 168.299608 87.168 
L 168.299608 89.856 
L 168.299608 92.544 
L 168.299608 95.232 
L 168.299608 97.92 
L 168.299608 100.608 
L 168.299608 103.296 
L 168.299608 105.984 
L 168.299608 108.672 
L 168.299608 111.36 
L 168.299608 114.048 
L 168.299608 116.736 
L 168.299608 119.424 
L 168.299608 122.112 
L 168.299608 124.8 
L 168.299608 127.488 
L 168.299608 130.176 
L 168.299608 132.864 
L 168.299608 135.552 
L 168.299608 138.24 
L 168.299608 140.928 
L 168.299608 143.616 
L 168.299608 146.304 
L 168.299608 148.992 
L 168.299608 151.68 
L 168.299608 154.368 
L 168.299608 157.056 
L 168.299608 159.744 
L 168.299608 162.432 
L 168.299608 165.12 
L 168.299608 167.808 
L 168.299608 170.496 
L 168.299608 173.184 
L 168.299608 175.872 
L 168.299608 178.56 
L 168.299608 181.248 
L 168.299608 183.936 
L 168.299608 186.624 
L 168.299608 189.312 
L 168.299608 192 
L 168.299608 194.688 
L 168.299608 197.376 
L 168.299608 200.064 
L 168.99254 202.752 
L 168.99254 205.44 
L 168.99254 208.128 
L 168.99254 210.816 
L 168.99254 213.504 
L 168.99254 216.192 
L 168.99254 218.88 
L 168.99254 221.568 
L 167.913962 224.256 
L 166.179867 226.944 
L 166.179867 229.632 
L 166.179867 232.32 
L 166.179867 235.008 
L 166.179867 237.696 
L 166.179867 240.384 
L 166.179867 243.072 
L 166.179867 245.76 
L 166.179867 248.448 
L 166.179867 251.136 
L 166.179867 253.824 
L 166.179867 256.512 
L 166.179867 259.2 
L 166.179867 261.888 
L 166.179867 264.576 
L 166.179867 267.264 
L 166.179867 269.952 
L 166.179867 272.64 
L 166.179867 275.328 
L 166.179867 278.016 
L 166.179867 280.704 
L 166.179867 283.392 
L 166.179867 286.08 
L 166.179867 288.768 
L 166.179867 291.456 
L 166.179867 294.144 
L 166.179867 296.832 
L 166.179867 299.52 
L 166.179867 302.208 
L 166.179867 304.896 
L 166.179867 307.584 
z
" clip-path="url(#pe4b5546e78)" style="fill: #3f4788; fill-opacity: 0.75"/>
   </g>
   <g id="PathCollection_3">
    <path d="M 266.821818 307.584 
L 270.409102 307.584 
L 270.409102 304.896 
L 270.409102 302.208 
L 270.409102 299.52 
L 270.409102 296.832 
L 270.409102 294.144 
L 270.409102 291.456 
L 270.409102 288.768 
L 270.409102 286.08 
L 270.409102 283.392 
L 270.409102 280.704 
L 270.409102 278.016 
L 270.409102 275.328 
L 270.409102 272.64 
L 270.409102 269.952 
L 270.409102 267.264 
L 270.409102 264.576 
L 270.409102 261.888 
L 270.409102 259.2 
L 270.409102 256.512 
L 270.409102 253.824 
L 270.409102 251.136 
L 270.409102 248.448 
L 270.409102 245.76 
L 270.409102 243.072 
L 270.409102 240.384 
L 270.409102 237.696 
L 270.409102 235.008 
L 270.409102 232.32 
L 270.409102 229.632 
L 270.409102 226.944 
L 270.429091 226.897954 
L 271.348483 224.256 
L 271.930296 221.568 
L 271.930296 218.88 
L 271.930296 216.192 
L 271.930296 213.504 
L 271.930296 210.816 
L 271.930296 208.128 
L 271.930296 205.44 
L 271.930296 202.752 
L 271.55651 200.064 
L 271.55651 197.376 
L 271.55651 194.688 
L 271.55651 192 
L 271.55651 189.312 
L 271.55651 186.624 
L 271.55651 183.936 
L 271.55651 181.248 
L 271.55651 178.56 
L 271.55651 175.872 
L 271.55651 173.184 
L 271.55651 170.496 
L 271.55651 167.808 
L 271.55651 165.12 
L 271.55651 162.432 
L 271.55651 159.744 
L 271.55651 157.056 
L 271.55651 154.368 
L 271.55651 151.68 
L 271.55651 148.992 
L 271.55651 146.304 
L 271.55651 143.616 
L 271.55651 140.928 
L 271.55651 138.24 
L 271.55651 135.552 
L 271.55651 132.864 
L 271.55651 130.176 
L 271.55651 127.488 
L 271.55651 124.8 
L 271.55651 122.112 
L 271.55651 119.424 
L 271.55651 116.736 
L 271.55651 114.048 
L 271.55651 111.36 
L 271.55651 108.672 
L 271.55651 105.984 
L 271.55651 103.296 
L 271.55651 100.608 
L 271.55651 97.92 
L 271.55651 95.232 
L 271.55651 92.544 
L 271.55651 89.856 
L 271.55651 87.168 
L 271.55651 84.48 
L 271.55651 81.792 
L 271.55651 79.104 
L 271.55651 76.416 
L 271.55651 73.728 
L 271.55651 71.04 
L 271.55651 68.352 
L 271.55651 65.664 
L 271.55651 62.976 
L 271.55651 60.288 
L 271.55651 57.6 
L 271.55651 54.912 
L 271.55651 52.224 
L 271.55651 49.536 
L 271.55651 46.848 
L 271.55651 44.16 
L 271.55651 41.472 
L 270.429091 41.472 
L 267.917747 41.472 
L 267.917747 44.16 
L 267.917747 46.848 
L 267.917747 49.536 
L 267.917747 52.224 
L 267.917747 54.912 
L 267.917747 57.6 
L 267.917747 60.288 
L 267.917747 62.976 
L 267.917747 65.664 
L 267.917747 68.352 
L 267.917747 71.04 
L 267.917747 73.728 
L 267.917747 76.416 
L 267.917747 79.104 
L 267.917747 81.792 
L 267.917747 84.48 
L 267.917747 87.168 
L 267.917747 89.856 
L 267.917747 92.544 
L 267.917747 95.232 
L 267.917747 97.92 
L 267.917747 100.608 
L 267.917747 103.296 
L 267.917747 105.984 
L 267.917747 108.672 
L 267.917747 111.36 
L 267.917747 114.048 
L 267.917747 116.736 
L 267.917747 119.424 
L 267.917747 122.112 
L 267.917747 124.8 
L 267.917747 127.488 
L 267.917747 130.176 
L 267.917747 132.864 
L 267.917747 135.552 
L 267.917747 138.24 
L 267.917747 140.928 
L 267.917747 143.616 
L 267.917747 146.304 
L 267.917747 148.992 
L 267.917747 151.68 
L 267.917747 154.368 
L 267.917747 157.056 
L 267.917747 159.744 
L 267.917747 162.432 
L 267.917747 165.12 
L 267.917747 167.808 
L 267.917747 170.496 
L 267.917747 173.184 
L 267.917747 175.872 
L 267.917747 178.56 
L 267.917747 181.248 
L 267.917747 183.936 
L 267.917747 186.624 
L 267.917747 189.312 
L 267.917747 192 
L 267.917747 194.688 
L 267.917747 197.376 
L 267.917747 200.064 
L 268.38402 202.752 
L 268.38402 205.44 
L 268.38402 208.128 
L 268.38402 210.816 
L 268.38402 213.504 
L 268.38402 216.192 
L 268.38402 218.88 
L 268.38402 221.568 
L 267.658247 224.256 
L 266.821818 226.182798 
L 266.070385 226.944 
L 266.070385 229.632 
L 266.070385 232.32 
L 266.070385 235.008 
L 266.070385 237.696 
L 266.070385 240.384 
L 266.070385 243.072 
L 266.070385 245.76 
L 266.070385 248.448 
L 266.070385 251.136 
L 266.070385 253.824 
L 266.070385 256.512 
L 266.070385 259.2 
L 266.070385 261.888 
L 266.070385 264.576 
L 266.070385 267.264 
L 266.070385 269.952 
L 266.070385 272.64 
L 266.070385 275.328 
L 266.070385 278.016 
L 266.070385 280.704 
L 266.070385 283.392 
L 266.070385 286.08 
L 266.070385 288.768 
L 266.070385 291.456 
L 266.070385 294.144 
L 266.070385 296.832 
L 266.070385 299.52 
L 266.070385 302.208 
L 266.070385 304.896 
L 266.070385 307.584 
z
" clip-path="url(#pe4b5546e78)" style="fill: #2e6e8e; fill-opacity: 0.75"/>
   </g>
   <g id="PathCollection_4">
    <path d="M 270.429091 307.584 
L 273.553694 307.584 
L 273.553694 304.896 
L 273.553694 302.208 
L 273.553694 299.52 
L 273.553694 296.832 
L 273.553694 294.144 
L 273.553694 291.456 
L 273.553694 288.768 
L 273.553694 286.08 
L 273.553694 283.392 
L 273.553694 280.704 
L 273.553694 278.016 
L 273.553694 275.328 
L 273.553694 272.64 
L 273.553694 269.952 
L 273.553694 267.264 
L 273.553694 264.576 
L 273.553694 261.888 
L 273.553694 259.2 
L 273.553694 256.512 
L 273.553694 253.824 
L 273.553694 251.136 
L 273.553694 248.448 
L 273.553694 245.76 
L 273.553694 243.072 
L 273.553694 240.384 
L 273.553694 237.696 
L 273.553694 235.008 
L 273.553694 232.32 
L 273.553694 229.632 
L 273.553694 226.944 
L 274.036364 225.557007 
L 277.643636 225.557007 
L 279.33906 224.256 
L 281.250909 221.89728 
L 284.858182 221.89728 
L 288.465455 221.89728 
L 292.072727 221.89728 
L 295.68 221.89728 
L 296.70929 221.568 
L 296.70929 218.88 
L 296.70929 216.192 
L 296.70929 213.504 
L 296.70929 210.816 
L 296.70929 208.128 
L 296.70929 205.44 
L 296.70929 202.752 
L 295.68 202.239461 
L 292.072727 202.239461 
L 288.465455 202.239461 
L 284.858182 202.239461 
L 281.250909 202.239461 
L 280.118071 200.064 
L 280.118071 197.376 
L 280.118071 194.688 
L 280.118071 192 
L 280.118071 189.312 
L 280.118071 186.624 
L 280.118071 183.936 
L 280.118071 181.248 
L 280.118071 178.56 
L 280.118071 175.872 
L 280.118071 173.184 
L 280.118071 170.496 
L 280.118071 167.808 
L 280.118071 165.12 
L 280.118071 162.432 
L 280.118071 159.744 
L 280.118071 157.056 
L 280.118071 154.368 
L 280.118071 151.68 
L 280.118071 148.992 
L 280.118071 146.304 
L 280.118071 143.616 
L 280.118071 140.928 
L 280.118071 138.24 
L 280.118071 135.552 
L 280.118071 132.864 
L 280.118071 130.176 
L 280.118071 127.488 
L 280.118071 124.8 
L 280.118071 122.112 
L 280.118071 119.424 
L 280.118071 116.736 
L 280.118071 114.048 
L 280.118071 111.36 
L 280.118071 108.672 
L 280.118071 105.984 
L 280.118071 103.296 
L 280.118071 100.608 
L 280.118071 97.92 
L 280.118071 95.232 
L 280.118071 92.544 
L 280.118071 89.856 
L 280.118071 87.168 
L 280.118071 84.48 
L 280.118071 81.792 
L 280.118071 79.104 
L 280.118071 76.416 
L 280.118071 73.728 
L 280.118071 71.04 
L 280.118071 68.352 
L 280.118071 65.664 
L 280.118071 62.976 
L 280.118071 60.288 
L 280.118071 57.6 
L 280.118071 54.912 
L 280.118071 52.224 
L 280.118071 49.536 
L 280.118071 46.848 
L 280.118071 44.16 
L 280.118071 41.472 
L 277.643636 41.472 
L 274.036364 41.472 
L 271.55651 41.472 
L 271.55651 44.16 
L 271.55651 46.848 
L 271.55651 49.536 
L 271.55651 52.224 
L 271.55651 54.912 
L 271.55651 57.6 
L 271.55651 60.288 
L 271.55651 62.976 
L 271.55651 65.664 
L 271.55651 68.352 
L 271.55651 71.04 
L 271.55651 73.728 
L 271.55651 76.416 
L 271.55651 79.104 
L 271.55651 81.792 
L 271.55651 84.48 
L 271.55651 87.168 
L 271.55651 89.856 
L 271.55651 92.544 
L 271.55651 95.232 
L 271.55651 97.92 
L 271.55651 100.608 
L 271.55651 103.296 
L 271.55651 105.984 
L 271.55651 108.672 
L 271.55651 111.36 
L 271.55651 114.048 
L 271.55651 116.736 
L 271.55651 119.424 
L 271.55651 122.112 
L 271.55651 124.8 
L 271.55651 127.488 
L 271.55651 130.176 
L 271.55651 132.864 
L 271.55651 135.552 
L 271.55651 138.24 
L 271.55651 140.928 
L 271.55651 143.616 
L 271.55651 146.304 
L 271.55651 148.992 
L 271.55651 151.68 
L 271.55651 154.368 
L 271.55651 157.056 
L 271.55651 159.744 
L 271.55651 162.432 
L 271.55651 165.12 
L 271.55651 167.808 
L 271.55651 170.496 
L 271.55651 173.184 
L 271.55651 175.872 
L 271.55651 178.56 
L 271.55651 181.248 
L 271.55651 183.936 
L 271.55651 186.624 
L 271.55651 189.312 
L 271.55651 192 
L 271.55651 194.688 
L 271.55651 197.376 
L 271.55651 200.064 
L 271.930296 202.752 
L 271.930296 205.44 
L 271.930296 208.128 
L 271.930296 210.816 
L 271.930296 213.504 
L 271.930296 216.192 
L 271.930296 218.88 
L 271.930296 221.568 
L 271.348483 224.256 
L 270.429091 226.897954 
L 270.409102 226.944 
L 270.409102 229.632 
L 270.409102 232.32 
L 270.409102 235.008 
L 270.409102 237.696 
L 270.409102 240.384 
L 270.409102 243.072 
L 270.409102 245.76 
L 270.409102 248.448 
L 270.409102 251.136 
L 270.409102 253.824 
L 270.409102 256.512 
L 270.409102 259.2 
L 270.409102 261.888 
L 270.409102 264.576 
L 270.409102 267.264 
L 270.409102 269.952 
L 270.409102 272.64 
L 270.409102 275.328 
L 270.409102 278.016 
L 270.409102 280.704 
L 270.409102 283.392 
L 270.409102 286.08 
L 270.409102 288.768 
L 270.409102 291.456 
L 270.409102 294.144 
L 270.409102 296.832 
L 270.409102 299.52 
L 270.409102 302.208 
L 270.409102 304.896 
L 270.409102 307.584 
z
" clip-path="url(#pe4b5546e78)" style="fill: #21918c; fill-opacity: 0.75"/>
   </g>
   <g id="PathCollection_5">
    <path d="M 274.036364 307.584 
L 277.643636 307.584 
L 281.250909 307.584 
L 284.858182 307.584 
L 288.465455 307.584 
L 292.072727 307.584 
L 295.68 307.584 
L 299.287273 307.584 
L 301.598248 307.584 
L 301.598248 304.896 
L 301.598248 302.208 
L 301.598248 299.52 
L 301.598248 296.832 
L 301.598248 294.144 
L 301.598248 291.456 
L 301.598248 288.768 
L 301.598248 286.08 
L 301.598248 283.392 
L 301.598248 280.704 
L 301.598248 278.016 
L 301.598248 275.328 
L 301.598248 272.64 
L 301.598248 269.952 
L 301.598248 267.264 
L 301.598248 264.576 
L 301.598248 261.888 
L 301.598248 259.2 
L 301.598248 256.512 
L 301.598248 253.824 
L 301.598248 251.136 
L 301.598248 248.448 
L 301.598248 245.76 
L 301.598248 243.072 
L 301.598248 240.384 
L 301.598248 237.696 
L 301.598248 235.008 
L 301.598248 232.32 
L 301.598248 229.632 
L 301.598248 226.944 
L 302.894545 224.615007 
L 306.501818 224.615007 
L 310.109091 224.615007 
L 313.716364 224.615007 
L 317.323636 224.615007 
L 320.930909 224.615007 
L 322.516611 224.256 
L 324.538182 223.520147 
L 328.145455 223.520147 
L 331.752727 223.520147 
L 335.36 223.520147 
L 336.698603 221.568 
L 336.698603 218.88 
L 336.698603 216.192 
L 336.698603 213.504 
L 336.698603 210.816 
L 336.698603 208.128 
L 336.698603 205.44 
L 336.698603 202.752 
L 335.51445 200.064 
L 335.51445 197.376 
L 335.51445 194.688 
L 335.51445 192 
L 335.51445 189.312 
L 335.51445 186.624 
L 335.51445 183.936 
L 335.51445 181.248 
L 335.51445 178.56 
L 335.51445 175.872 
L 335.51445 173.184 
L 335.51445 170.496 
L 335.51445 167.808 
L 335.51445 165.12 
L 335.51445 162.432 
L 335.51445 159.744 
L 335.51445 157.056 
L 335.51445 154.368 
L 335.51445 151.68 
L 335.51445 148.992 
L 335.51445 146.304 
L 335.51445 143.616 
L 335.51445 140.928 
L 335.51445 138.24 
L 335.51445 135.552 
L 335.51445 132.864 
L 335.51445 130.176 
L 335.51445 127.488 
L 335.51445 124.8 
L 335.51445 122.112 
L 335.51445 119.424 
L 335.51445 116.736 
L 335.51445 114.048 
L 335.51445 111.36 
L 335.51445 108.672 
L 335.51445 105.984 
L 335.51445 103.296 
L 335.51445 100.608 
L 335.51445 97.92 
L 335.51445 95.232 
L 335.51445 92.544 
L 335.51445 89.856 
L 335.51445 87.168 
L 335.51445 84.48 
L 335.51445 81.792 
L 335.51445 79.104 
L 335.51445 76.416 
L 335.51445 73.728 
L 335.51445 71.04 
L 335.51445 68.352 
L 335.51445 65.664 
L 335.51445 62.976 
L 335.51445 60.288 
L 335.51445 57.6 
L 335.51445 54.912 
L 335.51445 52.224 
L 335.51445 49.536 
L 335.51445 46.848 
L 335.51445 44.16 
L 335.51445 41.472 
L 335.36 41.472 
L 331.752727 41.472 
L 328.145455 41.472 
L 324.538182 41.472 
L 320.930909 41.472 
L 317.323636 41.472 
L 313.716364 41.472 
L 310.109091 41.472 
L 306.501818 41.472 
L 302.894545 41.472 
L 299.287273 41.472 
L 295.68 41.472 
L 292.072727 41.472 
L 288.465455 41.472 
L 284.858182 41.472 
L 281.250909 41.472 
L 280.118071 41.472 
L 280.118071 44.16 
L 280.118071 46.848 
L 280.118071 49.536 
L 280.118071 52.224 
L 280.118071 54.912 
L 280.118071 57.6 
L 280.118071 60.288 
L 280.118071 62.976 
L 280.118071 65.664 
L 280.118071 68.352 
L 280.118071 71.04 
L 280.118071 73.728 
L 280.118071 76.416 
L 280.118071 79.104 
L 280.118071 81.792 
L 280.118071 84.48 
L 280.118071 87.168 
L 280.118071 89.856 
L 280.118071 92.544 
L 280.118071 95.232 
L 280.118071 97.92 
L 280.118071 100.608 
L 280.118071 103.296 
L 280.118071 105.984 
L 280.118071 108.672 
L 280.118071 111.36 
L 280.118071 114.048 
L 280.118071 116.736 
L 280.118071 119.424 
L 280.118071 122.112 
L 280.118071 124.8 
L 280.118071 127.488 
L 280.118071 130.176 
L 280.118071 132.864 
L 280.118071 135.552 
L 280.118071 138.24 
L 280.118071 140.928 
L 280.118071 143.616 
L 280.118071 146.304 
L 280.118071 148.992 
L 280.118071 151.68 
L 280.118071 154.368 
L 280.118071 157.056 
L 280.118071 159.744 
L 280.118071 162.432 
L 280.118071 165.12 
L 280.118071 167.808 
L 280.118071 170.496 
L 280.118071 173.184 
L 280.118071 175.872 
L 280.118071 178.56 
L 280.118071 181.248 
L 280.118071 183.936 
L 280.118071 186.624 
L 280.118071 189.312 
L 280.118071 192 
L 280.118071 194.688 
L 280.118071 197.376 
L 280.118071 200.064 
L 281.250909 202.239461 
L 284.858182 202.239461 
L 288.465455 202.239461 
L 292.072727 202.239461 
L 295.68 202.239461 
L 296.70929 202.752 
L 296.70929 205.44 
L 296.70929 208.128 
L 296.70929 210.816 
L 296.70929 213.504 
L 296.70929 216.192 
L 296.70929 218.88 
L 296.70929 221.568 
L 295.68 221.89728 
L 292.072727 221.89728 
L 288.465455 221.89728 
L 284.858182 221.89728 
L 281.250909 221.89728 
L 279.33906 224.256 
L 277.643636 225.557007 
L 274.036364 225.557007 
L 273.553694 226.944 
L 273.553694 229.632 
L 273.553694 232.32 
L 273.553694 235.008 
L 273.553694 237.696 
L 273.553694 240.384 
L 273.553694 243.072 
L 273.553694 245.76 
L 273.553694 248.448 
L 273.553694 251.136 
L 273.553694 253.824 
L 273.553694 256.512 
L 273.553694 259.2 
L 273.553694 261.888 
L 273.553694 264.576 
L 273.553694 267.264 
L 273.553694 269.952 
L 273.553694 272.64 
L 273.553694 275.328 
L 273.553694 278.016 
L 273.553694 280.704 
L 273.553694 283.392 
L 273.553694 286.08 
L 273.553694 288.768 
L 273.553694 291.456 
L 273.553694 294.144 
L 273.553694 296.832 
L 273.553694 299.52 
L 273.553694 302.208 
L 273.553694 304.896 
L 273.553694 307.584 
z
" clip-path="url(#pe4b5546e78)" style="fill: #2db27d; fill-opacity: 0.75"/>
   </g>
   <g id="PathCollection_6">
    <path d="M 302.894545 307.584 
L 306.501818 307.584 
L 310.109091 307.584 
L 313.716364 307.584 
L 317.323636 307.584 
L 320.930909 307.584 
L 324.538182 307.584 
L 328.145455 307.584 
L 331.752727 307.584 
L 335.36 307.584 
L 338.967273 307.584 
L 341.431067 307.584 
L 341.431067 304.896 
L 341.431067 302.208 
L 341.431067 299.52 
L 341.431067 296.832 
L 341.431067 294.144 
L 341.431067 291.456 
L 341.431067 288.768 
L 341.431067 286.08 
L 341.431067 283.392 
L 341.431067 280.704 
L 341.431067 278.016 
L 341.431067 275.328 
L 341.431067 272.64 
L 341.431067 269.952 
L 341.431067 267.264 
L 341.431067 264.576 
L 341.431067 261.888 
L 341.431067 259.2 
L 341.431067 256.512 
L 341.431067 253.824 
L 341.431067 251.136 
L 341.431067 248.448 
L 341.431067 245.76 
L 341.431067 243.072 
L 341.431067 240.384 
L 341.431067 237.696 
L 341.431067 235.008 
L 341.431067 232.32 
L 341.431067 229.632 
L 341.431067 226.944 
L 342.574545 225.733992 
L 346.181818 225.733992 
L 349.789091 225.733992 
L 353.396364 225.733992 
L 357.003636 225.733992 
L 360.610909 225.733992 
L 361.689441 224.256 
L 362.909466 221.568 
L 362.909466 218.88 
L 362.909466 216.192 
L 362.909466 213.504 
L 362.909466 210.816 
L 362.909466 208.128 
L 362.909466 205.44 
L 362.909466 202.752 
L 362.125661 200.064 
L 362.125661 197.376 
L 362.125661 194.688 
L 362.125661 192 
L 362.125661 189.312 
L 362.125661 186.624 
L 362.125661 183.936 
L 362.125661 181.248 
L 362.125661 178.56 
L 362.125661 175.872 
L 362.125661 173.184 
L 362.125661 170.496 
L 362.125661 167.808 
L 362.125661 165.12 
L 362.125661 162.432 
L 362.125661 159.744 
L 362.125661 157.056 
L 362.125661 154.368 
L 362.125661 151.68 
L 362.125661 148.992 
L 362.125661 146.304 
L 362.125661 143.616 
L 362.125661 140.928 
L 362.125661 138.24 
L 362.125661 135.552 
L 362.125661 132.864 
L 362.125661 130.176 
L 362.125661 127.488 
L 362.125661 124.8 
L 362.125661 122.112 
L 362.125661 119.424 
L 362.125661 116.736 
L 362.125661 114.048 
L 362.125661 111.36 
L 362.125661 108.672 
L 362.125661 105.984 
L 362.125661 103.296 
L 362.125661 100.608 
L 362.125661 97.92 
L 362.125661 95.232 
L 362.125661 92.544 
L 362.125661 89.856 
L 362.125661 87.168 
L 362.125661 84.48 
L 362.125661 81.792 
L 362.125661 79.104 
L 362.125661 76.416 
L 362.125661 73.728 
L 362.125661 71.04 
L 362.125661 68.352 
L 362.125661 65.664 
L 362.125661 62.976 
L 362.125661 60.288 
L 362.125661 57.6 
L 362.125661 54.912 
L 362.125661 52.224 
L 362.125661 49.536 
L 362.125661 46.848 
L 362.125661 44.16 
L 362.125661 41.472 
L 360.610909 41.472 
L 357.003636 41.472 
L 353.396364 41.472 
L 349.789091 41.472 
L 346.181818 41.472 
L 342.574545 41.472 
L 338.967273 41.472 
L 335.51445 41.472 
L 335.51445 44.16 
L 335.51445 46.848 
L 335.51445 49.536 
L 335.51445 52.224 
L 335.51445 54.912 
L 335.51445 57.6 
L 335.51445 60.288 
L 335.51445 62.976 
L 335.51445 65.664 
L 335.51445 68.352 
L 335.51445 71.04 
L 335.51445 73.728 
L 335.51445 76.416 
L 335.51445 79.104 
L 335.51445 81.792 
L 335.51445 84.48 
L 335.51445 87.168 
L 335.51445 89.856 
L 335.51445 92.544 
L 335.51445 95.232 
L 335.51445 97.92 
L 335.51445 100.608 
L 335.51445 103.296 
L 335.51445 105.984 
L 335.51445 108.672 
L 335.51445 111.36 
L 335.51445 114.048 
L 335.51445 116.736 
L 335.51445 119.424 
L 335.51445 122.112 
L 335.51445 124.8 
L 335.51445 127.488 
L 335.51445 130.176 
L 335.51445 132.864 
L 335.51445 135.552 
L 335.51445 138.24 
L 335.51445 140.928 
L 335.51445 143.616 
L 335.51445 146.304 
L 335.51445 148.992 
L 335.51445 151.68 
L 335.51445 154.368 
L 335.51445 157.056 
L 335.51445 159.744 
L 335.51445 162.432 
L 335.51445 165.12 
L 335.51445 167.808 
L 335.51445 170.496 
L 335.51445 173.184 
L 335.51445 175.872 
L 335.51445 178.56 
L 335.51445 181.248 
L 335.51445 183.936 
L 335.51445 186.624 
L 335.51445 189.312 
L 335.51445 192 
L 335.51445 194.688 
L 335.51445 197.376 
L 335.51445 200.064 
L 336.698603 202.752 
L 336.698603 205.44 
L 336.698603 208.128 
L 336.698603 210.816 
L 336.698603 213.504 
L 336.698603 216.192 
L 336.698603 218.88 
L 336.698603 221.568 
L 335.36 223.520147 
L 331.752727 223.520147 
L 328.145455 223.520147 
L 324.538182 223.520147 
L 322.516611 224.256 
L 320.930909 224.615007 
L 317.323636 224.615007 
L 313.716364 224.615007 
L 310.109091 224.615007 
L 306.501818 224.615007 
L 302.894545 224.615007 
L 301.598248 226.944 
L 301.598248 229.632 
L 301.598248 232.32 
L 301.598248 235.008 
L 301.598248 237.696 
L 301.598248 240.384 
L 301.598248 243.072 
L 301.598248 245.76 
L 301.598248 248.448 
L 301.598248 251.136 
L 301.598248 253.824 
L 301.598248 256.512 
L 301.598248 259.2 
L 301.598248 261.888 
L 301.598248 264.576 
L 301.598248 267.264 
L 301.598248 269.952 
L 301.598248 272.64 
L 301.598248 275.328 
L 301.598248 278.016 
L 301.598248 280.704 
L 301.598248 283.392 
L 301.598248 286.08 
L 301.598248 288.768 
L 301.598248 291.456 
L 301.598248 294.144 
L 301.598248 296.832 
L 301.598248 299.52 
L 301.598248 302.208 
L 301.598248 304.896 
L 301.598248 307.584 
z
" clip-path="url(#pe4b5546e78)" style="fill: #73d056; fill-opacity: 0.75"/>
   </g>
   <g id="PathCollection_7">
    <path d="M 342.574545 307.584 
L 346.181818 307.584 
L 349.789091 307.584 
L 353.396364 307.584 
L 357.003636 307.584 
L 360.610909 307.584 
L 364.218182 307.584 
L 367.825455 307.584 
L 371.432727 307.584 
L 375.04 307.584 
L 378.647273 307.584 
L 382.254545 307.584 
L 385.861818 307.584 
L 389.469091 307.584 
L 393.076364 307.584 
L 396.683636 307.584 
L 400.290909 307.584 
L 403.898182 307.584 
L 407.505455 307.584 
L 411.112727 307.584 
L 414.72 307.584 
L 414.72 304.896 
L 414.72 302.208 
L 414.72 299.52 
L 414.72 296.832 
L 414.72 294.144 
L 414.72 291.456 
L 414.72 288.768 
L 414.72 286.08 
L 414.72 283.392 
L 414.72 280.704 
L 414.72 278.016 
L 414.72 275.328 
L 414.72 272.64 
L 414.72 269.952 
L 414.72 267.264 
L 414.72 264.576 
L 414.72 261.888 
L 414.72 259.2 
L 414.72 256.512 
L 414.72 253.824 
L 414.72 251.136 
L 414.72 248.448 
L 414.72 245.76 
L 414.72 243.072 
L 414.72 240.384 
L 414.72 237.696 
L 414.72 235.008 
L 414.72 232.32 
L 414.72 229.632 
L 414.72 226.944 
L 414.72 224.256 
L 414.72 221.568 
L 414.72 218.88 
L 414.72 216.192 
L 414.72 213.504 
L 414.72 210.816 
L 414.72 208.128 
L 414.72 205.44 
L 414.72 202.752 
L 414.72 200.064 
L 414.72 197.376 
L 414.72 194.688 
L 414.72 192 
L 414.72 189.312 
L 414.72 186.624 
L 414.72 183.936 
L 414.72 181.248 
L 414.72 178.56 
L 414.72 175.872 
L 414.72 173.184 
L 414.72 170.496 
L 414.72 167.808 
L 414.72 165.12 
L 414.72 162.432 
L 414.72 159.744 
L 414.72 157.056 
L 414.72 154.368 
L 414.72 151.68 
L 414.72 148.992 
L 414.72 146.304 
L 414.72 143.616 
L 414.72 140.928 
L 414.72 138.24 
L 414.72 135.552 
L 414.72 132.864 
L 414.72 130.176 
L 414.72 127.488 
L 414.72 124.8 
L 414.72 122.112 
L 414.72 119.424 
L 414.72 116.736 
L 414.72 114.048 
L 414.72 111.36 
L 414.72 108.672 
L 414.72 105.984 
L 414.72 103.296 
L 414.72 100.608 
L 414.72 97.92 
L 414.72 95.232 
L 414.72 92.544 
L 414.72 89.856 
L 414.72 87.168 
L 414.72 84.48 
L 414.72 81.792 
L 414.72 79.104 
L 414.72 76.416 
L 414.72 73.728 
L 414.72 71.04 
L 414.72 68.352 
L 414.72 65.664 
L 414.72 62.976 
L 414.72 60.288 
L 414.72 57.6 
L 414.72 54.912 
L 414.72 52.224 
L 414.72 49.536 
L 414.72 46.848 
L 414.72 44.16 
L 414.72 41.472 
L 411.112727 41.472 
L 407.505455 41.472 
L 403.898182 41.472 
L 400.290909 41.472 
L 396.683636 41.472 
L 393.076364 41.472 
L 389.469091 41.472 
L 385.861818 41.472 
L 382.254545 41.472 
L 378.647273 41.472 
L 375.04 41.472 
L 371.432727 41.472 
L 367.825455 41.472 
L 364.218182 41.472 
L 362.125661 41.472 
L 362.125661 44.16 
L 362.125661 46.848 
L 362.125661 49.536 
L 362.125661 52.224 
L 362.125661 54.912 
L 362.125661 57.6 
L 362.125661 60.288 
L 362.125661 62.976 
L 362.125661 65.664 
L 362.125661 68.352 
L 362.125661 71.04 
L 362.125661 73.728 
L 362.125661 76.416 
L 362.125661 79.104 
L 362.125661 81.792 
L 362.125661 84.48 
L 362.125661 87.168 
L 362.125661 89.856 
L 362.125661 92.544 
L 362.125661 95.232 
L 362.125661 97.92 
L 362.125661 100.608 
L 362.125661 103.296 
L 362.125661 105.984 
L 362.125661 108.672 
L 362.125661 111.36 
L 362.125661 114.048 
L 362.125661 116.736 
L 362.125661 119.424 
L 362.125661 122.112 
L 362.125661 124.8 
L 362.125661 127.488 
L 362.125661 130.176 
L 362.125661 132.864 
L 362.125661 135.552 
L 362.125661 138.24 
L 362.125661 140.928 
L 362.125661 143.616 
L 362.125661 146.304 
L 362.125661 148.992 
L 362.125661 151.68 
L 362.125661 154.368 
L 362.125661 157.056 
L 362.125661 159.744 
L 362.125661 162.432 
L 362.125661 165.12 
L 362.125661 167.808 
L 362.125661 170.496 
L 362.125661 173.184 
L 362.125661 175.872 
L 362.125661 178.56 
L 362.125661 181.248 
L 362.125661 183.936 
L 362.125661 186.624 
L 362.125661 189.312 
L 362.125661 192 
L 362.125661 194.688 
L 362.125661 197.376 
L 362.125661 200.064 
L 362.909466 202.752 
L 362.909466 205.44 
L 362.909466 208.128 
L 362.909466 210.816 
L 362.909466 213.504 
L 362.909466 216.192 
L 362.909466 218.88 
L 362.909466 221.568 
L 361.689441 224.256 
L 360.610909 225.733992 
L 357.003636 225.733992 
L 353.396364 225.733992 
L 349.789091 225.733992 
L 346.181818 225.733992 
L 342.574545 225.733992 
L 341.431067 226.944 
L 341.431067 229.632 
L 341.431067 232.32 
L 341.431067 235.008 
L 341.431067 237.696 
L 341.431067 240.384 
L 341.431067 243.072 
L 341.431067 245.76 
L 341.431067 248.448 
L 341.431067 251.136 
L 341.431067 253.824 
L 341.431067 256.512 
L 341.431067 259.2 
L 341.431067 261.888 
L 341.431067 264.576 
L 341.431067 267.264 
L 341.431067 269.952 
L 341.431067 272.64 
L 341.431067 275.328 
L 341.431067 278.016 
L 341.431067 280.704 
L 341.431067 283.392 
L 341.431067 286.08 
L 341.431067 288.768 
L 341.431067 291.456 
L 341.431067 294.144 
L 341.431067 296.832 
L 341.431067 299.52 
L 341.431067 302.208 
L 341.431067 304.896 
L 341.431067 307.584 
z
" clip-path="url(#pe4b5546e78)" style="fill: #d0e11c; fill-opacity: 0.75"/>
   </g>
   <g id="matplotlib.axis_1">
    <g id="xtick_1">
     <g id="line2d_1">
      <defs>
       <path id="m31c21da70c" d="M 0 0 
L 0 3.5 
" style="stroke: #000000; stroke-width: 0.8"/>
      </defs>
      <g>
       <use xlink:href="#m31c21da70c" x="109.40615" y="307.584" style="stroke: #000000; stroke-width: 0.8"/>
      </g>
     </g>
     <g id="text_1">
      <!-- 50 -->
      <g transform="translate(103.04365 322.182437) scale(0.1 -0.1)">
       <defs>
        <path id="DejaVuSans-35" d="M 691 4666 
L 3169 4666 
L 3169 4134 
L 1269 4134 
L 1269 2991 
Q 1406 3038 1543 3061 
Q 1681 3084 1819 3084 
Q 2600 3084 3056 2656 
Q 3513 2228 3513 1497 
Q 3513 744 3044 326 
Q 2575 -91 1722 -91 
Q 1428 -91 1123 -41 
Q 819 9 494 109 
L 494 744 
Q 775 591 1075 516 
Q 1375 441 1709 441 
Q 2250 441 2565 725 
Q 2881 1009 2881 1497 
Q 2881 1984 2565 2268 
Q 2250 2553 1709 2553 
Q 1456 2553 1204 2497 
Q 953 2441 691 2322 
L 691 4666 
z
" transform="scale(0.015625)"/>
        <path id="DejaVuSans-30" d="M 2034 4250 
Q 1547 4250 1301 3770 
Q 1056 3291 1056 2328 
Q 1056 1369 1301 889 
Q 1547 409 2034 409 
Q 2525 409 2770 889 
Q 3016 1369 3016 2328 
Q 3016 3291 2770 3770 
Q 2525 4250 2034 4250 
z
M 2034 4750 
Q 2819 4750 3233 4129 
Q 3647 3509 3647 2328 
Q 3647 1150 3233 529 
Q 2819 -91 2034 -91 
Q 1250 -91 836 529 
Q 422 1150 422 2328 
Q 422 3509 836 4129 
Q 1250 4750 2034 4750 
z
" transform="scale(0.015625)"/>
       </defs>
       <use xlink:href="#DejaVuSans-35"/>
       <use xlink:href="#DejaVuSans-30" x="63.623047"/>
      </g>
     </g>
    </g>
    <g id="xtick_2">
     <g id="line2d_2">
      <g>
       <use xlink:href="#m31c21da70c" x="183.671976" y="307.584" style="stroke: #000000; stroke-width: 0.8"/>
      </g>
     </g>
     <g id="text_2">
      <!-- 100 -->
      <g transform="translate(174.128226 322.182437) scale(0.1 -0.1)">
       <defs>
        <path id="DejaVuSans-31" d="M 794 531 
L 1825 531 
L 1825 4091 
L 703 3866 
L 703 4441 
L 1819 4666 
L 2450 4666 
L 2450 531 
L 3481 531 
L 3481 0 
L 794 0 
L 794 531 
z
" transform="scale(0.015625)"/>
       </defs>
       <use xlink:href="#DejaVuSans-31"/>
       <use xlink:href="#DejaVuSans-30" x="63.623047"/>
       <use xlink:href="#DejaVuSans-30" x="127.246094"/>
      </g>
     </g>
    </g>
    <g id="xtick_3">
     <g id="line2d_3">
      <g>
       <use xlink:href="#m31c21da70c" x="257.937801" y="307.584" style="stroke: #000000; stroke-width: 0.8"/>
      </g>
     </g>
     <g id="text_3">
      <!-- 150 -->
      <g transform="translate(248.394051 322.182437) scale(0.1 -0.1)">
       <use xlink:href="#DejaVuSans-31"/>
       <use xlink:href="#DejaVuSans-35" x="63.623047"/>
       <use xlink:href="#DejaVuSans-30" x="127.246094"/>
      </g>
     </g>
    </g>
    <g id="xtick_4">
     <g id="line2d_4">
      <g>
       <use xlink:href="#m31c21da70c" x="332.203627" y="307.584" style="stroke: #000000; stroke-width: 0.8"/>
      </g>
     </g>
     <g id="text_4">
      <!-- 200 -->
      <g transform="translate(322.659877 322.182437) scale(0.1 -0.1)">
       <defs>
        <path id="DejaVuSans-32" d="M 1228 531 
L 3431 531 
L 3431 0 
L 469 0 
L 469 531 
Q 828 903 1448 1529 
Q 2069 2156 2228 2338 
Q 2531 2678 2651 2914 
Q 2772 3150 2772 3378 
Q 2772 3750 2511 3984 
Q 2250 4219 1831 4219 
Q 1534 4219 1204 4116 
Q 875 4013 500 3803 
L 500 4441 
Q 881 4594 1212 4672 
Q 1544 4750 1819 4750 
Q 2544 4750 2975 4387 
Q 3406 4025 3406 3419 
Q 3406 3131 3298 2873 
Q 3191 2616 2906 2266 
Q 2828 2175 2409 1742 
Q 1991 1309 1228 531 
z
" transform="scale(0.015625)"/>
       </defs>
       <use xlink:href="#DejaVuSans-32"/>
       <use xlink:href="#DejaVuSans-30" x="63.623047"/>
       <use xlink:href="#DejaVuSans-30" x="127.246094"/>
      </g>
     </g>
    </g>
    <g id="xtick_5">
     <g id="line2d_5">
      <g>
       <use xlink:href="#m31c21da70c" x="406.469453" y="307.584" style="stroke: #000000; stroke-width: 0.8"/>
      </g>
     </g>
     <g id="text_5">
      <!-- 250 -->
      <g transform="translate(396.925703 322.182437) scale(0.1 -0.1)">
       <use xlink:href="#DejaVuSans-32"/>
       <use xlink:href="#DejaVuSans-35" x="63.623047"/>
       <use xlink:href="#DejaVuSans-30" x="127.246094"/>
      </g>
     </g>
    </g>
    <g id="text_6">
     <!-- Vegetable Consumption -->
     <g transform="translate(176.431875 335.860562) scale(0.1 -0.1)">
      <defs>
       <path id="DejaVuSans-56" d="M 1831 0 
L 50 4666 
L 709 4666 
L 2188 738 
L 3669 4666 
L 4325 4666 
L 2547 0 
L 1831 0 
z
" transform="scale(0.015625)"/>
       <path id="DejaVuSans-65" d="M 3597 1894 
L 3597 1613 
L 953 1613 
Q 991 1019 1311 708 
Q 1631 397 2203 397 
Q 2534 397 2845 478 
Q 3156 559 3463 722 
L 3463 178 
Q 3153 47 2828 -22 
Q 2503 -91 2169 -91 
Q 1331 -91 842 396 
Q 353 884 353 1716 
Q 353 2575 817 3079 
Q 1281 3584 2069 3584 
Q 2775 3584 3186 3129 
Q 3597 2675 3597 1894 
z
M 3022 2063 
Q 3016 2534 2758 2815 
Q 2500 3097 2075 3097 
Q 1594 3097 1305 2825 
Q 1016 2553 972 2059 
L 3022 2063 
z
" transform="scale(0.015625)"/>
       <path id="DejaVuSans-67" d="M 2906 1791 
Q 2906 2416 2648 2759 
Q 2391 3103 1925 3103 
Q 1463 3103 1205 2759 
Q 947 2416 947 1791 
Q 947 1169 1205 825 
Q 1463 481 1925 481 
Q 2391 481 2648 825 
Q 2906 1169 2906 1791 
z
M 3481 434 
Q 3481 -459 3084 -895 
Q 2688 -1331 1869 -1331 
Q 1566 -1331 1297 -1286 
Q 1028 -1241 775 -1147 
L 775 -588 
Q 1028 -725 1275 -790 
Q 1522 -856 1778 -856 
Q 2344 -856 2625 -561 
Q 2906 -266 2906 331 
L 2906 616 
Q 2728 306 2450 153 
Q 2172 0 1784 0 
Q 1141 0 747 490 
Q 353 981 353 1791 
Q 353 2603 747 3093 
Q 1141 3584 1784 3584 
Q 2172 3584 2450 3431 
Q 2728 3278 2906 2969 
L 2906 3500 
L 3481 3500 
L 3481 434 
z
" transform="scale(0.015625)"/>
       <path id="DejaVuSans-74" d="M 1172 4494 
L 1172 3500 
L 2356 3500 
L 2356 3053 
L 1172 3053 
L 1172 1153 
Q 1172 725 1289 603 
Q 1406 481 1766 481 
L 2356 481 
L 2356 0 
L 1766 0 
Q 1100 0 847 248 
Q 594 497 594 1153 
L 594 3053 
L 172 3053 
L 172 3500 
L 594 3500 
L 594 4494 
L 1172 4494 
z
" transform="scale(0.015625)"/>
       <path id="DejaVuSans-61" d="M 2194 1759 
Q 1497 1759 1228 1600 
Q 959 1441 959 1056 
Q 959 750 1161 570 
Q 1363 391 1709 391 
Q 2188 391 2477 730 
Q 2766 1069 2766 1631 
L 2766 1759 
L 2194 1759 
z
M 3341 1997 
L 3341 0 
L 2766 0 
L 2766 531 
Q 2569 213 2275 61 
Q 1981 -91 1556 -91 
Q 1019 -91 701 211 
Q 384 513 384 1019 
Q 384 1609 779 1909 
Q 1175 2209 1959 2209 
L 2766 2209 
L 2766 2266 
Q 2766 2663 2505 2880 
Q 2244 3097 1772 3097 
Q 1472 3097 1187 3025 
Q 903 2953 641 2809 
L 641 3341 
Q 956 3463 1253 3523 
Q 1550 3584 1831 3584 
Q 2591 3584 2966 3190 
Q 3341 2797 3341 1997 
z
" transform="scale(0.015625)"/>
       <path id="DejaVuSans-62" d="M 3116 1747 
Q 3116 2381 2855 2742 
Q 2594 3103 2138 3103 
Q 1681 3103 1420 2742 
Q 1159 2381 1159 1747 
Q 1159 1113 1420 752 
Q 1681 391 2138 391 
Q 2594 391 2855 752 
Q 3116 1113 3116 1747 
z
M 1159 2969 
Q 1341 3281 1617 3432 
Q 1894 3584 2278 3584 
Q 2916 3584 3314 3078 
Q 3713 2572 3713 1747 
Q 3713 922 3314 415 
Q 2916 -91 2278 -91 
Q 1894 -91 1617 61 
Q 1341 213 1159 525 
L 1159 0 
L 581 0 
L 581 4863 
L 1159 4863 
L 1159 2969 
z
" transform="scale(0.015625)"/>
       <path id="DejaVuSans-6c" d="M 603 4863 
L 1178 4863 
L 1178 0 
L 603 0 
L 603 4863 
z
" transform="scale(0.015625)"/>
       <path id="DejaVuSans-20" transform="scale(0.015625)"/>
       <path id="DejaVuSans-43" d="M 4122 4306 
L 4122 3641 
Q 3803 3938 3442 4084 
Q 3081 4231 2675 4231 
Q 1875 4231 1450 3742 
Q 1025 3253 1025 2328 
Q 1025 1406 1450 917 
Q 1875 428 2675 428 
Q 3081 428 3442 575 
Q 3803 722 4122 1019 
L 4122 359 
Q 3791 134 3420 21 
Q 3050 -91 2638 -91 
Q 1578 -91 968 557 
Q 359 1206 359 2328 
Q 359 3453 968 4101 
Q 1578 4750 2638 4750 
Q 3056 4750 3426 4639 
Q 3797 4528 4122 4306 
z
" transform="scale(0.015625)"/>
       <path id="DejaVuSans-6f" d="M 1959 3097 
Q 1497 3097 1228 2736 
Q 959 2375 959 1747 
Q 959 1119 1226 758 
Q 1494 397 1959 397 
Q 2419 397 2687 759 
Q 2956 1122 2956 1747 
Q 2956 2369 2687 2733 
Q 2419 3097 1959 3097 
z
M 1959 3584 
Q 2709 3584 3137 3096 
Q 3566 2609 3566 1747 
Q 3566 888 3137 398 
Q 2709 -91 1959 -91 
Q 1206 -91 779 398 
Q 353 888 353 1747 
Q 353 2609 779 3096 
Q 1206 3584 1959 3584 
z
" transform="scale(0.015625)"/>
       <path id="DejaVuSans-6e" d="M 3513 2113 
L 3513 0 
L 2938 0 
L 2938 2094 
Q 2938 2591 2744 2837 
Q 2550 3084 2163 3084 
Q 1697 3084 1428 2787 
Q 1159 2491 1159 1978 
L 1159 0 
L 581 0 
L 581 3500 
L 1159 3500 
L 1159 2956 
Q 1366 3272 1645 3428 
Q 1925 3584 2291 3584 
Q 2894 3584 3203 3211 
Q 3513 2838 3513 2113 
z
" transform="scale(0.015625)"/>
       <path id="DejaVuSans-73" d="M 2834 3397 
L 2834 2853 
Q 2591 2978 2328 3040 
Q 2066 3103 1784 3103 
Q 1356 3103 1142 2972 
Q 928 2841 928 2578 
Q 928 2378 1081 2264 
Q 1234 2150 1697 2047 
L 1894 2003 
Q 2506 1872 2764 1633 
Q 3022 1394 3022 966 
Q 3022 478 2636 193 
Q 2250 -91 1575 -91 
Q 1294 -91 989 -36 
Q 684 19 347 128 
L 347 722 
Q 666 556 975 473 
Q 1284 391 1588 391 
Q 1994 391 2212 530 
Q 2431 669 2431 922 
Q 2431 1156 2273 1281 
Q 2116 1406 1581 1522 
L 1381 1569 
Q 847 1681 609 1914 
Q 372 2147 372 2553 
Q 372 3047 722 3315 
Q 1072 3584 1716 3584 
Q 2034 3584 2315 3537 
Q 2597 3491 2834 3397 
z
" transform="scale(0.015625)"/>
       <path id="DejaVuSans-75" d="M 544 1381 
L 544 3500 
L 1119 3500 
L 1119 1403 
Q 1119 906 1312 657 
Q 1506 409 1894 409 
Q 2359 409 2629 706 
Q 2900 1003 2900 1516 
L 2900 3500 
L 3475 3500 
L 3475 0 
L 2900 0 
L 2900 538 
Q 2691 219 2414 64 
Q 2138 -91 1772 -91 
Q 1169 -91 856 284 
Q 544 659 544 1381 
z
M 1991 3584 
L 1991 3584 
z
" transform="scale(0.015625)"/>
       <path id="DejaVuSans-6d" d="M 3328 2828 
Q 3544 3216 3844 3400 
Q 4144 3584 4550 3584 
Q 5097 3584 5394 3201 
Q 5691 2819 5691 2113 
L 5691 0 
L 5113 0 
L 5113 2094 
Q 5113 2597 4934 2840 
Q 4756 3084 4391 3084 
Q 3944 3084 3684 2787 
Q 3425 2491 3425 1978 
L 3425 0 
L 2847 0 
L 2847 2094 
Q 2847 2600 2669 2842 
Q 2491 3084 2119 3084 
Q 1678 3084 1418 2786 
Q 1159 2488 1159 1978 
L 1159 0 
L 581 0 
L 581 3500 
L 1159 3500 
L 1159 2956 
Q 1356 3278 1631 3431 
Q 1906 3584 2284 3584 
Q 2666 3584 2933 3390 
Q 3200 3197 3328 2828 
z
" transform="scale(0.015625)"/>
       <path id="DejaVuSans-70" d="M 1159 525 
L 1159 -1331 
L 581 -1331 
L 581 3500 
L 1159 3500 
L 1159 2969 
Q 1341 3281 1617 3432 
Q 1894 3584 2278 3584 
Q 2916 3584 3314 3078 
Q 3713 2572 3713 1747 
Q 3713 922 3314 415 
Q 2916 -91 2278 -91 
Q 1894 -91 1617 61 
Q 1341 213 1159 525 
z
M 3116 1747 
Q 3116 2381 2855 2742 
Q 2594 3103 2138 3103 
Q 1681 3103 1420 2742 
Q 1159 2381 1159 1747 
Q 1159 1113 1420 752 
Q 1681 391 2138 391 
Q 2594 391 2855 752 
Q 3116 1113 3116 1747 
z
" transform="scale(0.015625)"/>
       <path id="DejaVuSans-69" d="M 603 3500 
L 1178 3500 
L 1178 0 
L 603 0 
L 603 3500 
z
M 603 4863 
L 1178 4863 
L 1178 4134 
L 603 4134 
L 603 4863 
z
" transform="scale(0.015625)"/>
      </defs>
      <use xlink:href="#DejaVuSans-56"/>
      <use xlink:href="#DejaVuSans-65" x="60.658203"/>
      <use xlink:href="#DejaVuSans-67" x="122.181641"/>
      <use xlink:href="#DejaVuSans-65" x="185.658203"/>
      <use xlink:href="#DejaVuSans-74" x="247.181641"/>
      <use xlink:href="#DejaVuSans-61" x="286.390625"/>
      <use xlink:href="#DejaVuSans-62" x="347.669922"/>
      <use xlink:href="#DejaVuSans-6c" x="411.146484"/>
      <use xlink:href="#DejaVuSans-65" x="438.929688"/>
      <use xlink:href="#DejaVuSans-20" x="500.453125"/>
      <use xlink:href="#DejaVuSans-43" x="532.240234"/>
      <use xlink:href="#DejaVuSans-6f" x="602.064453"/>
      <use xlink:href="#DejaVuSans-6e" x="663.246094"/>
      <use xlink:href="#DejaVuSans-73" x="726.625"/>
      <use xlink:href="#DejaVuSans-75" x="778.724609"/>
      <use xlink:href="#DejaVuSans-6d" x="842.103516"/>
      <use xlink:href="#DejaVuSans-70" x="939.515625"/>
      <use xlink:href="#DejaVuSans-74" x="1002.992188"/>
      <use xlink:href="#DejaVuSans-69" x="1042.201172"/>
      <use xlink:href="#DejaVuSans-6f" x="1069.984375"/>
      <use xlink:href="#DejaVuSans-6e" x="1131.166016"/>
     </g>
    </g>
   </g>
   <g id="matplotlib.axis_2">
    <g id="ytick_1">
     <g id="line2d_6">
      <defs>
       <path id="me08d49c0d6" d="M 0 0 
L -3.5 0 
" style="stroke: #000000; stroke-width: 0.8"/>
      </defs>
      <g>
       <use xlink:href="#me08d49c0d6" x="57.6" y="297.984246" style="stroke: #000000; stroke-width: 0.8"/>
      </g>
     </g>
     <g id="text_7">
      <!-- 20 -->
      <g transform="translate(37.875 301.783465) scale(0.1 -0.1)">
       <use xlink:href="#DejaVuSans-32"/>
       <use xlink:href="#DejaVuSans-30" x="63.623047"/>
      </g>
     </g>
    </g>
    <g id="ytick_2">
     <g id="line2d_7">
      <g>
       <use xlink:href="#me08d49c0d6" x="57.6" y="261.856842" style="stroke: #000000; stroke-width: 0.8"/>
      </g>
     </g>
     <g id="text_8">
      <!-- 40 -->
      <g transform="translate(37.875 265.656061) scale(0.1 -0.1)">
       <defs>
        <path id="DejaVuSans-34" d="M 2419 4116 
L 825 1625 
L 2419 1625 
L 2419 4116 
z
M 2253 4666 
L 3047 4666 
L 3047 1625 
L 3713 1625 
L 3713 1100 
L 3047 1100 
L 3047 0 
L 2419 0 
L 2419 1100 
L 313 1100 
L 313 1709 
L 2253 4666 
z
" transform="scale(0.015625)"/>
       </defs>
       <use xlink:href="#DejaVuSans-34"/>
       <use xlink:href="#DejaVuSans-30" x="63.623047"/>
      </g>
     </g>
    </g>
    <g id="ytick_3">
     <g id="line2d_8">
      <g>
       <use xlink:href="#me08d49c0d6" x="57.6" y="225.729438" style="stroke: #000000; stroke-width: 0.8"/>
      </g>
     </g>
     <g id="text_9">
      <!-- 60 -->
      <g transform="translate(37.875 229.528657) scale(0.1 -0.1)">
       <defs>
        <path id="DejaVuSans-36" d="M 2113 2584 
Q 1688 2584 1439 2293 
Q 1191 2003 1191 1497 
Q 1191 994 1439 701 
Q 1688 409 2113 409 
Q 2538 409 2786 701 
Q 3034 994 3034 1497 
Q 3034 2003 2786 2293 
Q 2538 2584 2113 2584 
z
M 3366 4563 
L 3366 3988 
Q 3128 4100 2886 4159 
Q 2644 4219 2406 4219 
Q 1781 4219 1451 3797 
Q 1122 3375 1075 2522 
Q 1259 2794 1537 2939 
Q 1816 3084 2150 3084 
Q 2853 3084 3261 2657 
Q 3669 2231 3669 1497 
Q 3669 778 3244 343 
Q 2819 -91 2113 -91 
Q 1303 -91 875 529 
Q 447 1150 447 2328 
Q 447 3434 972 4092 
Q 1497 4750 2381 4750 
Q 2619 4750 2861 4703 
Q 3103 4656 3366 4563 
z
" transform="scale(0.015625)"/>
       </defs>
       <use xlink:href="#DejaVuSans-36"/>
       <use xlink:href="#DejaVuSans-30" x="63.623047"/>
      </g>
     </g>
    </g>
    <g id="ytick_4">
     <g id="line2d_9">
      <g>
       <use xlink:href="#me08d49c0d6" x="57.6" y="189.602034" style="stroke: #000000; stroke-width: 0.8"/>
      </g>
     </g>
     <g id="text_10">
      <!-- 80 -->
      <g transform="translate(37.875 193.401253) scale(0.1 -0.1)">
       <defs>
        <path id="DejaVuSans-38" d="M 2034 2216 
Q 1584 2216 1326 1975 
Q 1069 1734 1069 1313 
Q 1069 891 1326 650 
Q 1584 409 2034 409 
Q 2484 409 2743 651 
Q 3003 894 3003 1313 
Q 3003 1734 2745 1975 
Q 2488 2216 2034 2216 
z
M 1403 2484 
Q 997 2584 770 2862 
Q 544 3141 544 3541 
Q 544 4100 942 4425 
Q 1341 4750 2034 4750 
Q 2731 4750 3128 4425 
Q 3525 4100 3525 3541 
Q 3525 3141 3298 2862 
Q 3072 2584 2669 2484 
Q 3125 2378 3379 2068 
Q 3634 1759 3634 1313 
Q 3634 634 3220 271 
Q 2806 -91 2034 -91 
Q 1263 -91 848 271 
Q 434 634 434 1313 
Q 434 1759 690 2068 
Q 947 2378 1403 2484 
z
M 1172 3481 
Q 1172 3119 1398 2916 
Q 1625 2713 2034 2713 
Q 2441 2713 2670 2916 
Q 2900 3119 2900 3481 
Q 2900 3844 2670 4047 
Q 2441 4250 2034 4250 
Q 1625 4250 1398 4047 
Q 1172 3844 1172 3481 
z
" transform="scale(0.015625)"/>
       </defs>
       <use xlink:href="#DejaVuSans-38"/>
       <use xlink:href="#DejaVuSans-30" x="63.623047"/>
      </g>
     </g>
    </g>
    <g id="ytick_5">
     <g id="line2d_10">
      <g>
       <use xlink:href="#me08d49c0d6" x="57.6" y="153.47463" style="stroke: #000000; stroke-width: 0.8"/>
      </g>
     </g>
     <g id="text_11">
      <!-- 100 -->
      <g transform="translate(31.5125 157.273849) scale(0.1 -0.1)">
       <use xlink:href="#DejaVuSans-31"/>
       <use xlink:href="#DejaVuSans-30" x="63.623047"/>
       <use xlink:href="#DejaVuSans-30" x="127.246094"/>
      </g>
     </g>
    </g>
    <g id="ytick_6">
     <g id="line2d_11">
      <g>
       <use xlink:href="#me08d49c0d6" x="57.6" y="117.347226" style="stroke: #000000; stroke-width: 0.8"/>
      </g>
     </g>
     <g id="text_12">
      <!-- 120 -->
      <g transform="translate(31.5125 121.146445) scale(0.1 -0.1)">
       <use xlink:href="#DejaVuSans-31"/>
       <use xlink:href="#DejaVuSans-32" x="63.623047"/>
       <use xlink:href="#DejaVuSans-30" x="127.246094"/>
      </g>
     </g>
    </g>
    <g id="ytick_7">
     <g id="line2d_12">
      <g>
       <use xlink:href="#me08d49c0d6" x="57.6" y="81.219822" style="stroke: #000000; stroke-width: 0.8"/>
      </g>
     </g>
     <g id="text_13">
      <!-- 140 -->
      <g transform="translate(31.5125 85.019041) scale(0.1 -0.1)">
       <use xlink:href="#DejaVuSans-31"/>
       <use xlink:href="#DejaVuSans-34" x="63.623047"/>
       <use xlink:href="#DejaVuSans-30" x="127.246094"/>
      </g>
     </g>
    </g>
    <g id="ytick_8">
     <g id="line2d_13">
      <g>
       <use xlink:href="#me08d49c0d6" x="57.6" y="45.092418" style="stroke: #000000; stroke-width: 0.8"/>
      </g>
     </g>
     <g id="text_14">
      <!-- 160 -->
      <g transform="translate(31.5125 48.891637) scale(0.1 -0.1)">
       <use xlink:href="#DejaVuSans-31"/>
       <use xlink:href="#DejaVuSans-36" x="63.623047"/>
       <use xlink:href="#DejaVuSans-30" x="127.246094"/>
      </g>
     </g>
    </g>
    <g id="text_15">
     <!-- Fruit Consumption -->
     <g transform="translate(25.432812 220.318625) rotate(-90) scale(0.1 -0.1)">
      <defs>
       <path id="DejaVuSans-46" d="M 628 4666 
L 3309 4666 
L 3309 4134 
L 1259 4134 
L 1259 2759 
L 3109 2759 
L 3109 2228 
L 1259 2228 
L 1259 0 
L 628 0 
L 628 4666 
z
" transform="scale(0.015625)"/>
       <path id="DejaVuSans-72" d="M 2631 2963 
Q 2534 3019 2420 3045 
Q 2306 3072 2169 3072 
Q 1681 3072 1420 2755 
Q 1159 2438 1159 1844 
L 1159 0 
L 581 0 
L 581 3500 
L 1159 3500 
L 1159 2956 
Q 1341 3275 1631 3429 
Q 1922 3584 2338 3584 
Q 2397 3584 2469 3576 
Q 2541 3569 2628 3553 
L 2631 2963 
z
" transform="scale(0.015625)"/>
      </defs>
      <use xlink:href="#DejaVuSans-46"/>
      <use xlink:href="#DejaVuSans-72" x="50.269531"/>
      <use xlink:href="#DejaVuSans-75" x="91.382812"/>
      <use xlink:href="#DejaVuSans-69" x="154.761719"/>
      <use xlink:href="#DejaVuSans-74" x="182.544922"/>
      <use xlink:href="#DejaVuSans-20" x="221.753906"/>
      <use xlink:href="#DejaVuSans-43" x="253.541016"/>
      <use xlink:href="#DejaVuSans-6f" x="323.365234"/>
      <use xlink:href="#DejaVuSans-6e" x="384.546875"/>
      <use xlink:href="#DejaVuSans-73" x="447.925781"/>
      <use xlink:href="#DejaVuSans-75" x="500.025391"/>
      <use xlink:href="#DejaVuSans-6d" x="563.404297"/>
      <use xlink:href="#DejaVuSans-70" x="660.816406"/>
      <use xlink:href="#DejaVuSans-74" x="724.292969"/>
      <use xlink:href="#DejaVuSans-69" x="763.501953"/>
      <use xlink:href="#DejaVuSans-6f" x="791.285156"/>
      <use xlink:href="#DejaVuSans-6e" x="852.466797"/>
     </g>
    </g>
   </g>
   <g id="PathCollection_8"/>
   <g id="PathCollection_9">
    <path d="M 168.299608 41.472 
L 168.299608 44.16 
L 168.299608 46.848 
L 168.299608 49.536 
L 168.299608 52.224 
L 168.299608 54.912 
L 168.299608 57.6 
L 168.299608 60.288 
L 168.299608 62.976 
L 168.299608 65.664 
L 168.299608 68.352 
L 168.299608 71.04 
L 168.299608 73.728 
L 168.299608 74.589 
" clip-path="url(#pe4b5546e78)" style="fill: none; stroke: #000000; stroke-width: 0.5"/>
    <path d="M 168.299608 110.499 
L 168.299608 111.36 
L 168.299608 114.048 
L 168.299608 116.736 
L 168.299608 119.424 
L 168.299608 122.112 
L 168.299608 124.8 
L 168.299608 127.488 
L 168.299608 130.176 
L 168.299608 132.864 
L 168.299608 135.552 
L 168.299608 138.24 
L 168.299608 140.928 
L 168.299608 143.616 
L 168.299608 146.304 
L 168.299608 148.992 
L 168.299608 151.68 
L 168.299608 154.368 
L 168.299608 157.056 
L 168.299608 159.744 
L 168.299608 162.432 
L 168.299608 165.12 
L 168.299608 167.808 
L 168.299608 170.496 
L 168.299608 173.184 
L 168.299608 175.872 
L 168.299608 178.56 
L 168.299608 181.248 
L 168.299608 183.936 
L 168.299608 186.624 
L 168.299608 189.312 
L 168.299608 192 
L 168.299608 194.688 
L 168.299608 197.376 
L 168.299608 200.064 
L 168.99254 202.752 
L 168.99254 205.44 
L 168.99254 208.128 
L 168.99254 210.816 
L 168.99254 213.504 
L 168.99254 216.192 
L 168.99254 218.88 
L 168.99254 221.568 
L 167.913962 224.256 
L 166.179867 226.944 
L 166.179867 229.632 
L 166.179867 232.32 
L 166.179867 235.008 
L 166.179867 237.696 
L 166.179867 240.384 
L 166.179867 243.072 
L 166.179867 245.76 
L 166.179867 248.448 
L 166.179867 251.136 
L 166.179867 253.824 
L 166.179867 256.512 
L 166.179867 259.2 
L 166.179867 261.888 
L 166.179867 264.576 
L 166.179867 267.264 
L 166.179867 269.952 
L 166.179867 272.64 
L 166.179867 275.328 
L 166.179867 278.016 
L 166.179867 280.704 
L 166.179867 283.392 
L 166.179867 286.08 
L 166.179867 288.768 
L 166.179867 291.456 
L 166.179867 294.144 
L 166.179867 296.832 
L 166.179867 299.52 
L 166.179867 302.208 
L 166.179867 304.896 
L 166.179867 307.584 
" clip-path="url(#pe4b5546e78)" style="fill: none; stroke: #000000; stroke-width: 0.5"/>
   </g>
   <g id="PathCollection_10">
    <path d="M 267.917747 41.472 
L 267.917747 44.16 
L 267.917747 46.848 
L 267.917747 49.536 
L 267.917747 52.224 
L 267.917747 54.912 
L 267.917747 57.6 
L 267.917747 60.288 
L 267.917747 62.976 
L 267.917747 65.664 
L 267.917747 68.352 
L 267.917747 71.04 
L 267.917747 73.728 
L 267.917747 74.589 
" clip-path="url(#pe4b5546e78)" style="fill: none; stroke: #000000; stroke-width: 0.5"/>
    <path d="M 267.917747 110.499 
L 267.917747 111.36 
L 267.917747 114.048 
L 267.917747 116.736 
L 267.917747 119.424 
L 267.917747 122.112 
L 267.917747 124.8 
L 267.917747 127.488 
L 267.917747 130.176 
L 267.917747 132.864 
L 267.917747 135.552 
L 267.917747 138.24 
L 267.917747 140.928 
L 267.917747 143.616 
L 267.917747 146.304 
L 267.917747 148.992 
L 267.917747 151.68 
L 267.917747 154.368 
L 267.917747 157.056 
L 267.917747 159.744 
L 267.917747 162.432 
L 267.917747 165.12 
L 267.917747 167.808 
L 267.917747 170.496 
L 267.917747 173.184 
L 267.917747 175.872 
L 267.917747 178.56 
L 267.917747 181.248 
L 267.917747 183.936 
L 267.917747 186.624 
L 267.917747 189.312 
L 267.917747 192 
L 267.917747 194.688 
L 267.917747 197.376 
L 267.917747 200.064 
L 268.38402 202.752 
L 268.38402 205.44 
L 268.38402 208.128 
L 268.38402 210.816 
L 268.38402 213.504 
L 268.38402 216.192 
L 268.38402 218.88 
L 268.38402 221.568 
L 267.658247 224.256 
L 266.821818 226.182798 
L 266.070385 226.944 
L 266.070385 229.632 
L 266.070385 232.32 
L 266.070385 235.008 
L 266.070385 237.696 
L 266.070385 240.384 
L 266.070385 243.072 
L 266.070385 245.76 
L 266.070385 248.448 
L 266.070385 251.136 
L 266.070385 253.824 
L 266.070385 256.512 
L 266.070385 259.2 
L 266.070385 261.888 
L 266.070385 264.576 
L 266.070385 267.264 
L 266.070385 269.952 
L 266.070385 272.64 
L 266.070385 275.328 
L 266.070385 278.016 
L 266.070385 280.704 
L 266.070385 283.392 
L 266.070385 286.08 
L 266.070385 288.768 
L 266.070385 291.456 
L 266.070385 294.144 
L 266.070385 296.832 
L 266.070385 299.52 
L 266.070385 302.208 
L 266.070385 304.896 
L 266.070385 307.584 
" clip-path="url(#pe4b5546e78)" style="fill: none; stroke: #000000; stroke-width: 0.5"/>
   </g>
   <g id="PathCollection_11">
    <path d="M 271.55651 41.472 
L 271.55651 44.16 
L 271.55651 46.848 
L 271.55651 49.536 
L 271.55651 52.224 
L 271.55651 54.912 
L 271.55651 57.6 
L 271.55651 60.288 
L 271.55651 62.976 
L 271.55651 65.664 
L 271.55651 68.352 
L 271.55651 71.04 
L 271.55651 73.728 
L 271.55651 76.416 
L 271.55651 79.104 
L 271.55651 81.792 
L 271.55651 84.48 
L 271.55651 87.168 
L 271.55651 89.856 
L 271.55651 92.544 
L 271.55651 95.232 
L 271.55651 97.92 
L 271.55651 100.608 
L 271.55651 103.296 
L 271.55651 105.984 
L 271.55651 108.672 
L 271.55651 111.36 
L 271.55651 114.048 
L 271.55651 116.736 
L 271.55651 119.424 
L 271.55651 122.112 
L 271.55651 124.8 
L 271.55651 127.488 
L 271.55651 130.176 
L 271.55651 132.864 
L 271.55651 135.552 
L 271.55651 138.24 
L 271.55651 140.928 
L 271.55651 143.616 
L 271.55651 146.304 
L 271.55651 148.992 
L 271.55651 151.68 
L 271.55651 154.368 
L 271.55651 157.056 
L 271.55651 159.744 
L 271.55651 162.432 
L 271.55651 165.12 
L 271.55651 167.808 
L 271.55651 170.496 
L 271.55651 173.184 
L 271.55651 175.872 
L 271.55651 178.56 
L 271.55651 181.248 
L 271.55651 183.936 
L 271.55651 186.624 
L 271.55651 189.312 
L 271.55651 192 
L 271.55651 194.688 
L 271.55651 197.376 
L 271.55651 200.064 
L 271.930296 202.752 
L 271.930296 205.44 
L 271.930296 208.128 
L 271.930296 210.816 
L 271.930296 213.504 
L 271.930296 216.192 
L 271.930296 218.88 
L 271.930296 221.568 
L 271.348483 224.256 
L 270.429091 226.897954 
L 270.409102 226.944 
L 270.409102 229.632 
L 270.409102 232.32 
L 270.409102 235.008 
L 270.409102 237.696 
L 270.409102 240.384 
L 270.409102 243.072 
L 270.409102 245.76 
L 270.409102 248.448 
L 270.409102 251.136 
L 270.409102 253.824 
L 270.409102 256.512 
L 270.409102 259.2 
L 270.409102 261.888 
L 270.409102 264.576 
L 270.409102 267.264 
L 270.409102 269.952 
L 270.409102 272.64 
L 270.409102 275.328 
L 270.409102 278.016 
L 270.409102 280.704 
L 270.409102 281.565 
" clip-path="url(#pe4b5546e78)" style="fill: none; stroke: #000000; stroke-width: 0.5"/>
   </g>
   <g id="PathCollection_12">
    <path d="M 280.118071 41.472 
L 280.118071 44.16 
L 280.118071 46.848 
L 280.118071 49.536 
L 280.118071 52.224 
L 280.118071 54.912 
L 280.118071 57.6 
L 280.118071 60.288 
L 280.118071 62.976 
L 280.118071 65.664 
L 280.118071 68.352 
L 280.118071 71.04 
L 280.118071 73.728 
L 280.118071 76.416 
L 280.118071 79.104 
L 280.118071 81.792 
L 280.118071 84.48 
L 280.118071 87.168 
L 280.118071 89.856 
L 280.118071 92.544 
L 280.118071 95.232 
L 280.118071 97.92 
L 280.118071 100.608 
L 280.118071 103.296 
L 280.118071 105.984 
L 280.118071 108.672 
L 280.118071 111.36 
L 280.118071 114.048 
L 280.118071 116.736 
L 280.118071 119.424 
L 280.118071 122.112 
L 280.118071 124.8 
L 280.118071 127.488 
L 280.118071 130.176 
L 280.118071 132.864 
L 280.118071 135.552 
L 280.118071 138.24 
L 280.118071 140.928 
L 280.118071 143.616 
L 280.118071 146.304 
L 280.118071 148.992 
L 280.118071 151.68 
L 280.118071 154.368 
L 280.118071 157.056 
L 280.118071 159.744 
L 280.118071 162.432 
L 280.118071 165.12 
L 280.118071 167.808 
L 280.118071 170.496 
L 280.118071 173.184 
L 280.118071 175.872 
L 280.118071 178.56 
L 280.118071 179.421 
" clip-path="url(#pe4b5546e78)" style="fill: none; stroke: #000000; stroke-width: 0.5"/>
    <path d="M 294.065165 202.239461 
L 295.68 202.239461 
L 296.70929 202.752 
L 296.70929 205.44 
L 296.70929 208.128 
L 296.70929 210.816 
L 296.70929 213.504 
L 296.70929 216.192 
L 296.70929 218.88 
L 296.70929 221.568 
L 295.68 221.89728 
L 292.072727 221.89728 
L 288.465455 221.89728 
L 284.858182 221.89728 
L 281.250909 221.89728 
L 279.33906 224.256 
L 277.643636 225.557007 
L 274.036364 225.557007 
L 273.553694 226.944 
L 273.553694 229.632 
L 273.553694 232.32 
L 273.553694 235.008 
L 273.553694 237.696 
L 273.553694 240.384 
L 273.553694 243.072 
L 273.553694 245.76 
L 273.553694 248.448 
L 273.553694 251.136 
L 273.553694 253.824 
L 273.553694 256.512 
L 273.553694 259.2 
L 273.553694 261.888 
L 273.553694 264.576 
L 273.553694 267.264 
L 273.553694 269.952 
L 273.553694 272.64 
L 273.553694 275.328 
L 273.553694 278.016 
L 273.553694 280.704 
L 273.553694 283.392 
L 273.553694 286.08 
L 273.553694 288.768 
L 273.553694 291.456 
L 273.553694 294.144 
L 273.553694 296.832 
L 273.553694 299.52 
L 273.553694 302.208 
L 273.553694 304.896 
L 273.553694 307.584 
" clip-path="url(#pe4b5546e78)" style="fill: none; stroke: #000000; stroke-width: 0.5"/>
   </g>
   <g id="PathCollection_13">
    <path d="M 335.51445 41.472 
L 335.51445 44.16 
L 335.51445 46.848 
L 335.51445 49.536 
L 335.51445 52.224 
L 335.51445 54.912 
L 335.51445 57.6 
L 335.51445 60.288 
L 335.51445 62.976 
L 335.51445 65.664 
L 335.51445 68.352 
L 335.51445 71.04 
L 335.51445 73.728 
L 335.51445 74.589 
" clip-path="url(#pe4b5546e78)" style="fill: none; stroke: #000000; stroke-width: 0.5"/>
    <path d="M 335.51445 110.499 
L 335.51445 111.36 
L 335.51445 114.048 
L 335.51445 116.736 
L 335.51445 119.424 
L 335.51445 122.112 
L 335.51445 124.8 
L 335.51445 127.488 
L 335.51445 130.176 
L 335.51445 132.864 
L 335.51445 135.552 
L 335.51445 138.24 
L 335.51445 140.928 
L 335.51445 143.616 
L 335.51445 146.304 
L 335.51445 148.992 
L 335.51445 151.68 
L 335.51445 154.368 
L 335.51445 157.056 
L 335.51445 159.744 
L 335.51445 162.432 
L 335.51445 165.12 
L 335.51445 167.808 
L 335.51445 170.496 
L 335.51445 173.184 
L 335.51445 175.872 
L 335.51445 178.56 
L 335.51445 181.248 
L 335.51445 183.936 
L 335.51445 186.624 
L 335.51445 189.312 
L 335.51445 192 
L 335.51445 194.688 
L 335.51445 197.376 
L 335.51445 200.064 
L 336.698603 202.752 
L 336.698603 205.44 
L 336.698603 208.128 
L 336.698603 210.816 
L 336.698603 213.504 
L 336.698603 216.192 
L 336.698603 218.88 
L 336.698603 221.568 
L 335.36 223.520147 
L 331.752727 223.520147 
L 328.145455 223.520147 
L 324.538182 223.520147 
L 322.516611 224.256 
L 320.930909 224.615007 
L 317.323636 224.615007 
L 313.716364 224.615007 
L 310.109091 224.615007 
L 306.501818 224.615007 
L 302.894545 224.615007 
L 301.598248 226.944 
L 301.598248 229.632 
L 301.598248 232.32 
L 301.598248 235.008 
L 301.598248 237.696 
L 301.598248 240.384 
L 301.598248 243.072 
L 301.598248 245.76 
L 301.598248 248.448 
L 301.598248 251.136 
L 301.598248 253.824 
L 301.598248 256.512 
L 301.598248 259.2 
L 301.598248 261.888 
L 301.598248 264.576 
L 301.598248 267.264 
L 301.598248 269.952 
L 301.598248 272.64 
L 301.598248 275.328 
L 301.598248 278.016 
L 301.598248 280.704 
L 301.598248 283.392 
L 301.598248 286.08 
L 301.598248 288.768 
L 301.598248 291.456 
L 301.598248 294.144 
L 301.598248 296.832 
L 301.598248 299.52 
L 301.598248 302.208 
L 301.598248 304.896 
L 301.598248 307.584 
" clip-path="url(#pe4b5546e78)" style="fill: none; stroke: #000000; stroke-width: 0.5"/>
   </g>
   <g id="PathCollection_14">
    <path d="M 362.125661 41.472 
L 362.125661 44.16 
L 362.125661 46.848 
L 362.125661 49.536 
L 362.125661 52.224 
L 362.125661 54.912 
L 362.125661 57.6 
L 362.125661 60.288 
L 362.125661 62.976 
L 362.125661 65.664 
L 362.125661 68.352 
L 362.125661 71.04 
L 362.125661 73.728 
L 362.125661 76.416 
L 362.125661 79.104 
L 362.125661 81.792 
L 362.125661 84.48 
L 362.125661 87.168 
L 362.125661 89.856 
L 362.125661 92.544 
L 362.125661 95.232 
L 362.125661 97.92 
L 362.125661 100.608 
L 362.125661 103.296 
L 362.125661 105.984 
L 362.125661 108.672 
L 362.125661 111.36 
L 362.125661 114.048 
L 362.125661 116.736 
L 362.125661 119.424 
L 362.125661 122.112 
L 362.125661 124.8 
L 362.125661 127.488 
L 362.125661 130.176 
L 362.125661 132.864 
L 362.125661 135.552 
L 362.125661 138.24 
L 362.125661 140.928 
L 362.125661 143.616 
L 362.125661 146.304 
L 362.125661 148.992 
L 362.125661 151.68 
L 362.125661 154.368 
L 362.125661 157.056 
L 362.125661 159.744 
L 362.125661 162.432 
L 362.125661 165.12 
L 362.125661 167.808 
L 362.125661 170.496 
L 362.125661 173.184 
L 362.125661 175.872 
L 362.125661 178.56 
L 362.125661 181.248 
L 362.125661 183.936 
L 362.125661 186.624 
L 362.125661 189.312 
L 362.125661 192 
L 362.125661 194.688 
L 362.125661 197.376 
L 362.125661 200.064 
L 362.909466 202.752 
L 362.909466 205.44 
L 362.909466 208.128 
L 362.909466 210.816 
L 362.909466 213.504 
L 362.909466 216.192 
L 362.909466 218.88 
L 362.909466 221.568 
L 361.689441 224.256 
L 360.610909 225.733992 
L 357.003636 225.733992 
L 353.396364 225.733992 
L 349.789091 225.733992 
L 346.181818 225.733992 
L 342.574545 225.733992 
L 341.431067 226.944 
L 341.431067 229.632 
L 341.431067 232.32 
L 341.431067 235.008 
L 341.431067 237.696 
L 341.431067 240.384 
L 341.431067 243.072 
L 341.431067 245.76 
L 341.431067 248.448 
L 341.431067 251.136 
L 341.431067 253.824 
L 341.431067 256.512 
L 341.431067 259.2 
L 341.431067 261.888 
L 341.431067 264.576 
L 341.431067 267.264 
L 341.431067 268.125 
" clip-path="url(#pe4b5546e78)" style="fill: none; stroke: #000000; stroke-width: 0.5"/>
    <path d="M 341.431067 304.035 
L 341.431067 304.896 
L 341.431067 307.584 
" clip-path="url(#pe4b5546e78)" style="fill: none; stroke: #000000; stroke-width: 0.5"/>
   </g>
   <g id="PathCollection_15"/>
   <g id="LineCollection_1">
    <path d="M 66.476784 307.584 
L 66.476784 294.2784 
" clip-path="url(#pe4b5546e78)" style="fill: none; stroke: #000000; stroke-width: 1.5"/>
    <path d="M 87.212156 307.584 
L 87.212156 294.2784 
" clip-path="url(#pe4b5546e78)" style="fill: none; stroke: #000000; stroke-width: 1.5"/>
    <path d="M 104.935634 307.584 
L 104.935634 294.2784 
" clip-path="url(#pe4b5546e78)" style="fill: none; stroke: #000000; stroke-width: 1.5"/>
    <path d="M 127.377088 307.584 
L 127.377088 294.2784 
" clip-path="url(#pe4b5546e78)" style="fill: none; stroke: #000000; stroke-width: 1.5"/>
    <path d="M 148.281324 307.584 
L 148.281324 294.2784 
" clip-path="url(#pe4b5546e78)" style="fill: none; stroke: #000000; stroke-width: 1.5"/>
    <path d="M 166.732429 307.584 
L 166.732429 294.2784 
" clip-path="url(#pe4b5546e78)" style="fill: none; stroke: #000000; stroke-width: 1.5"/>
    <path d="M 185.03924 307.584 
L 185.03924 294.2784 
" clip-path="url(#pe4b5546e78)" style="fill: none; stroke: #000000; stroke-width: 1.5"/>
    <path d="M 225.987843 307.584 
L 225.987843 294.2784 
" clip-path="url(#pe4b5546e78)" style="fill: none; stroke: #000000; stroke-width: 1.5"/>
    <path d="M 310.519409 307.584 
L 310.519409 294.2784 
" clip-path="url(#pe4b5546e78)" style="fill: none; stroke: #000000; stroke-width: 1.5"/>
   </g>
   <g id="LineCollection_2">
    <path clip-path="url(#pe4b5546e78)" style="fill: none; stroke: #000000; stroke-width: 1.5"/>
    <path clip-path="url(#pe4b5546e78)" style="fill: none; stroke: #000000; stroke-width: 1.5"/>
    <path clip-path="url(#pe4b5546e78)" style="fill: none; stroke: #000000; stroke-width: 1.5"/>
    <path clip-path="url(#pe4b5546e78)" style="fill: none; stroke: #000000; stroke-width: 1.5"/>
    <path clip-path="url(#pe4b5546e78)" style="fill: none; stroke: #000000; stroke-width: 1.5"/>
    <path clip-path="url(#pe4b5546e78)" style="fill: none; stroke: #000000; stroke-width: 1.5"/>
    <path clip-path="url(#pe4b5546e78)" style="fill: none; stroke: #000000; stroke-width: 1.5"/>
    <path clip-path="url(#pe4b5546e78)" style="fill: none; stroke: #000000; stroke-width: 1.5"/>
    <path clip-path="url(#pe4b5546e78)" style="fill: none; stroke: #000000; stroke-width: 1.5"/>
   </g>
   <g id="patch_3">
    <path d="M 57.6 307.584 
L 57.6 41.472 
" style="fill: none; stroke: #000000; stroke-width: 0.8; stroke-linejoin: miter; stroke-linecap: square"/>
   </g>
   <g id="patch_4">
    <path d="M 414.72 307.584 
L 414.72 41.472 
" style="fill: none; stroke: #000000; stroke-width: 0.8; stroke-linejoin: miter; stroke-linecap: square"/>
   </g>
   <g id="patch_5">
    <path d="M 57.6 307.584 
L 414.72 307.584 
" style="fill: none; stroke: #000000; stroke-width: 0.8; stroke-linejoin: miter; stroke-linecap: square"/>
   </g>
   <g id="patch_6">
    <path d="M 57.6 41.472 
L 414.72 41.472 
" style="fill: none; stroke: #000000; stroke-width: 0.8; stroke-linejoin: miter; stroke-linecap: square"/>
   </g>
   <g id="text_16">
    <!-- 2D-partial dependency plot between Veg and Fruit -->
    <g transform="translate(84.664688 35.472) scale(0.12 -0.12)">
     <defs>
      <path id="DejaVuSans-44" d="M 1259 4147 
L 1259 519 
L 2022 519 
Q 2988 519 3436 956 
Q 3884 1394 3884 2338 
Q 3884 3275 3436 3711 
Q 2988 4147 2022 4147 
L 1259 4147 
z
M 628 4666 
L 1925 4666 
Q 3281 4666 3915 4102 
Q 4550 3538 4550 2338 
Q 4550 1131 3912 565 
Q 3275 0 1925 0 
L 628 0 
L 628 4666 
z
" transform="scale(0.015625)"/>
      <path id="DejaVuSans-2d" d="M 313 2009 
L 1997 2009 
L 1997 1497 
L 313 1497 
L 313 2009 
z
" transform="scale(0.015625)"/>
      <path id="DejaVuSans-64" d="M 2906 2969 
L 2906 4863 
L 3481 4863 
L 3481 0 
L 2906 0 
L 2906 525 
Q 2725 213 2448 61 
Q 2172 -91 1784 -91 
Q 1150 -91 751 415 
Q 353 922 353 1747 
Q 353 2572 751 3078 
Q 1150 3584 1784 3584 
Q 2172 3584 2448 3432 
Q 2725 3281 2906 2969 
z
M 947 1747 
Q 947 1113 1208 752 
Q 1469 391 1925 391 
Q 2381 391 2643 752 
Q 2906 1113 2906 1747 
Q 2906 2381 2643 2742 
Q 2381 3103 1925 3103 
Q 1469 3103 1208 2742 
Q 947 2381 947 1747 
z
" transform="scale(0.015625)"/>
      <path id="DejaVuSans-63" d="M 3122 3366 
L 3122 2828 
Q 2878 2963 2633 3030 
Q 2388 3097 2138 3097 
Q 1578 3097 1268 2742 
Q 959 2388 959 1747 
Q 959 1106 1268 751 
Q 1578 397 2138 397 
Q 2388 397 2633 464 
Q 2878 531 3122 666 
L 3122 134 
Q 2881 22 2623 -34 
Q 2366 -91 2075 -91 
Q 1284 -91 818 406 
Q 353 903 353 1747 
Q 353 2603 823 3093 
Q 1294 3584 2113 3584 
Q 2378 3584 2631 3529 
Q 2884 3475 3122 3366 
z
" transform="scale(0.015625)"/>
      <path id="DejaVuSans-79" d="M 2059 -325 
Q 1816 -950 1584 -1140 
Q 1353 -1331 966 -1331 
L 506 -1331 
L 506 -850 
L 844 -850 
Q 1081 -850 1212 -737 
Q 1344 -625 1503 -206 
L 1606 56 
L 191 3500 
L 800 3500 
L 1894 763 
L 2988 3500 
L 3597 3500 
L 2059 -325 
z
" transform="scale(0.015625)"/>
      <path id="DejaVuSans-77" d="M 269 3500 
L 844 3500 
L 1563 769 
L 2278 3500 
L 2956 3500 
L 3675 769 
L 4391 3500 
L 4966 3500 
L 4050 0 
L 3372 0 
L 2619 2869 
L 1863 0 
L 1184 0 
L 269 3500 
z
" transform="scale(0.015625)"/>
     </defs>
     <use xlink:href="#DejaVuSans-32"/>
     <use xlink:href="#DejaVuSans-44" x="63.623047"/>
     <use xlink:href="#DejaVuSans-2d" x="140.625"/>
     <use xlink:href="#DejaVuSans-70" x="176.708984"/>
     <use xlink:href="#DejaVuSans-61" x="240.185547"/>
     <use xlink:href="#DejaVuSans-72" x="301.464844"/>
     <use xlink:href="#DejaVuSans-74" x="342.578125"/>
     <use xlink:href="#DejaVuSans-69" x="381.787109"/>
     <use xlink:href="#DejaVuSans-61" x="409.570312"/>
     <use xlink:href="#DejaVuSans-6c" x="470.849609"/>
     <use xlink:href="#DejaVuSans-20" x="498.632812"/>
     <use xlink:href="#DejaVuSans-64" x="530.419922"/>
     <use xlink:href="#DejaVuSans-65" x="593.896484"/>
     <use xlink:href="#DejaVuSans-70" x="655.419922"/>
     <use xlink:href="#DejaVuSans-65" x="718.896484"/>
     <use xlink:href="#DejaVuSans-6e" x="780.419922"/>
     <use xlink:href="#DejaVuSans-64" x="843.798828"/>
     <use xlink:href="#DejaVuSans-65" x="907.275391"/>
     <use xlink:href="#DejaVuSans-6e" x="968.798828"/>
     <use xlink:href="#DejaVuSans-63" x="1032.177734"/>
     <use xlink:href="#DejaVuSans-79" x="1087.158203"/>
     <use xlink:href="#DejaVuSans-20" x="1146.337891"/>
     <use xlink:href="#DejaVuSans-70" x="1178.125"/>
     <use xlink:href="#DejaVuSans-6c" x="1241.601562"/>
     <use xlink:href="#DejaVuSans-6f" x="1269.384766"/>
     <use xlink:href="#DejaVuSans-74" x="1330.566406"/>
     <use xlink:href="#DejaVuSans-20" x="1369.775391"/>
     <use xlink:href="#DejaVuSans-62" x="1401.5625"/>
     <use xlink:href="#DejaVuSans-65" x="1465.039062"/>
     <use xlink:href="#DejaVuSans-74" x="1526.5625"/>
     <use xlink:href="#DejaVuSans-77" x="1565.771484"/>
     <use xlink:href="#DejaVuSans-65" x="1647.558594"/>
     <use xlink:href="#DejaVuSans-65" x="1709.082031"/>
     <use xlink:href="#DejaVuSans-6e" x="1770.605469"/>
     <use xlink:href="#DejaVuSans-20" x="1833.984375"/>
     <use xlink:href="#DejaVuSans-56" x="1865.771484"/>
     <use xlink:href="#DejaVuSans-65" x="1926.429688"/>
     <use xlink:href="#DejaVuSans-67" x="1987.953125"/>
     <use xlink:href="#DejaVuSans-20" x="2051.429688"/>
     <use xlink:href="#DejaVuSans-61" x="2083.216797"/>
     <use xlink:href="#DejaVuSans-6e" x="2144.496094"/>
     <use xlink:href="#DejaVuSans-64" x="2207.875"/>
     <use xlink:href="#DejaVuSans-20" x="2271.351562"/>
     <use xlink:href="#DejaVuSans-46" x="2303.138672"/>
     <use xlink:href="#DejaVuSans-72" x="2353.408203"/>
     <use xlink:href="#DejaVuSans-75" x="2394.521484"/>
     <use xlink:href="#DejaVuSans-69" x="2457.900391"/>
     <use xlink:href="#DejaVuSans-74" x="2485.683594"/>
    </g>
   </g>
   <g id="text_17">
    <g clip-path="url(#pe4b5546e78)">
     <!-- 12.87 -->
     <g transform="translate(165.540233 78.229938) rotate(-270) scale(0.1 -0.1)">
      <defs>
       <path id="DejaVuSans-2e" d="M 684 794 
L 1344 794 
L 1344 0 
L 684 0 
L 684 794 
z
" transform="scale(0.015625)"/>
       <path id="DejaVuSans-37" d="M 525 4666 
L 3525 4666 
L 3525 4397 
L 1831 0 
L 1172 0 
L 2766 4134 
L 525 4134 
L 525 4666 
z
" transform="scale(0.015625)"/>
      </defs>
      <use xlink:href="#DejaVuSans-31"/>
      <use xlink:href="#DejaVuSans-32" x="63.623047"/>
      <use xlink:href="#DejaVuSans-2e" x="127.246094"/>
      <use xlink:href="#DejaVuSans-38" x="159.033203"/>
      <use xlink:href="#DejaVuSans-37" x="222.65625"/>
     </g>
    </g>
   </g>
   <g id="text_18">
    <g clip-path="url(#pe4b5546e78)">
     <!-- 13.07 -->
     <g transform="translate(265.158372 78.229938) rotate(-270) scale(0.1 -0.1)">
      <defs>
       <path id="DejaVuSans-33" d="M 2597 2516 
Q 3050 2419 3304 2112 
Q 3559 1806 3559 1356 
Q 3559 666 3084 287 
Q 2609 -91 1734 -91 
Q 1441 -91 1130 -33 
Q 819 25 488 141 
L 488 750 
Q 750 597 1062 519 
Q 1375 441 1716 441 
Q 2309 441 2620 675 
Q 2931 909 2931 1356 
Q 2931 1769 2642 2001 
Q 2353 2234 1838 2234 
L 1294 2234 
L 1294 2753 
L 1863 2753 
Q 2328 2753 2575 2939 
Q 2822 3125 2822 3475 
Q 2822 3834 2567 4026 
Q 2313 4219 1838 4219 
Q 1578 4219 1281 4162 
Q 984 4106 628 3988 
L 628 4550 
Q 988 4650 1302 4700 
Q 1616 4750 1894 4750 
Q 2613 4750 3031 4423 
Q 3450 4097 3450 3541 
Q 3450 3153 3228 2886 
Q 3006 2619 2597 2516 
z
" transform="scale(0.015625)"/>
      </defs>
      <use xlink:href="#DejaVuSans-31"/>
      <use xlink:href="#DejaVuSans-33" x="63.623047"/>
      <use xlink:href="#DejaVuSans-2e" x="127.246094"/>
      <use xlink:href="#DejaVuSans-30" x="159.033203"/>
      <use xlink:href="#DejaVuSans-37" x="222.65625"/>
     </g>
    </g>
   </g>
   <g id="text_19">
    <g clip-path="url(#pe4b5546e78)">
     <!-- 13.26 -->
     <g transform="translate(267.649727 285.205938) rotate(-270) scale(0.1 -0.1)">
      <use xlink:href="#DejaVuSans-31"/>
      <use xlink:href="#DejaVuSans-33" x="63.623047"/>
      <use xlink:href="#DejaVuSans-2e" x="127.246094"/>
      <use xlink:href="#DejaVuSans-32" x="159.033203"/>
      <use xlink:href="#DejaVuSans-36" x="222.65625"/>
     </g>
    </g>
   </g>
   <g id="text_20">
    <g clip-path="url(#pe4b5546e78)">
     <!-- 13.46 -->
     <g transform="translate(270.902823 186.080614) rotate(-298.297732) scale(0.1 -0.1)">
      <use xlink:href="#DejaVuSans-31"/>
      <use xlink:href="#DejaVuSans-33" x="63.623047"/>
      <use xlink:href="#DejaVuSans-2e" x="127.246094"/>
      <use xlink:href="#DejaVuSans-34" x="159.033203"/>
      <use xlink:href="#DejaVuSans-36" x="222.65625"/>
     </g>
    </g>
   </g>
   <g id="text_21">
    <g clip-path="url(#pe4b5546e78)">
     <!-- 13.65 -->
     <g transform="translate(332.755075 78.229938) rotate(-270) scale(0.1 -0.1)">
      <use xlink:href="#DejaVuSans-31"/>
      <use xlink:href="#DejaVuSans-33" x="63.623047"/>
      <use xlink:href="#DejaVuSans-2e" x="127.246094"/>
      <use xlink:href="#DejaVuSans-36" x="159.033203"/>
      <use xlink:href="#DejaVuSans-35" x="222.65625"/>
     </g>
    </g>
   </g>
   <g id="text_22">
    <g clip-path="url(#pe4b5546e78)">
     <!-- 13.85 -->
     <g transform="translate(338.671692 271.765937) rotate(-270) scale(0.1 -0.1)">
      <use xlink:href="#DejaVuSans-31"/>
      <use xlink:href="#DejaVuSans-33" x="63.623047"/>
      <use xlink:href="#DejaVuSans-2e" x="127.246094"/>
      <use xlink:href="#DejaVuSans-38" x="159.033203"/>
      <use xlink:href="#DejaVuSans-35" x="222.65625"/>
     </g>
    </g>
   </g>
  </g>
 </g>
 <defs>
  <clipPath id="pe4b5546e78">
   <rect x="57.6" y="41.472" width="357.12" height="266.112"/>
  </clipPath>
 </defs>
</svg>
