<?xml version="1.0" encoding="utf-8" standalone="no"?>
<!DOCTYPE svg PUBLIC "-//W3C//DTD SVG 1.1//EN"
  "http://www.w3.org/Graphics/SVG/1.1/DTD/svg11.dtd">
<svg xmlns:xlink="http://www.w3.org/1999/xlink" width="460.8pt" height="345.6pt" viewBox="0 0 460.8 345.6" xmlns="http://www.w3.org/2000/svg" version="1.1">
 <metadata>
  <rdf:RDF xmlns:dc="http://purl.org/dc/elements/1.1/" xmlns:cc="http://creativecommons.org/ns#" xmlns:rdf="http://www.w3.org/1999/02/22-rdf-syntax-ns#">
   <cc:Work>
    <dc:type rdf:resource="http://purl.org/dc/dcmitype/StillImage"/>
    <dc:date>2024-03-09T16:47:15.999619</dc:date>
    <dc:format>image/svg+xml</dc:format>
    <dc:creator>
     <cc:Agent>
      <dc:title>Matplotlib v3.7.0, https://matplotlib.org/</dc:title>
     </cc:Agent>
    </dc:creator>
   </cc:Work>
  </rdf:RDF>
 </metadata>
 <defs>
  <style type="text/css">*{stroke-linejoin: round; stroke-linecap: butt}</style>
 </defs>
 <g id="figure_1">
  <g id="patch_1">
   <path d="M 0 345.6 
L 460.8 345.6 
L 460.8 0 
L 0 0 
L 0 345.6 
z
" style="fill: none"/>
  </g>
  <g id="axes_1"/>
  <g id="axes_2">
   <g id="patch_2">
    <path d="M 57.6 307.584 
L 414.72 307.584 
L 414.72 41.472 
L 57.6 41.472 
L 57.6 307.584 
z
" style="fill: none"/>
   </g>
   <g id="PathCollection_1">
    <path d="M 61.207273 307.584 
L 64.814545 307.584 
L 68.421818 307.584 
L 72.029091 307.584 
L 75.636364 307.584 
L 79.243636 307.584 
L 82.850909 307.584 
L 86.458182 307.584 
L 90.065455 307.584 
L 93.672727 307.584 
L 97.28 307.584 
L 100.887273 307.584 
L 104.494545 307.584 
L 108.101818 307.584 
L 111.709091 307.584 
L 115.316364 307.584 
L 118.923636 307.584 
L 122.530909 307.584 
L 126.138182 307.584 
L 129.745455 307.584 
L 133.352727 307.584 
L 136.96 307.584 
L 140.567273 307.584 
L 144.174545 307.584 
L 147.781818 307.584 
L 151.389091 307.584 
L 154.996364 307.584 
L 158.603636 307.584 
L 162.210909 307.584 
L 165.818182 307.584 
L 169.425455 307.584 
L 173.032727 307.584 
L 176.64 307.584 
L 180.247273 307.584 
L 183.854545 307.584 
L 187.461818 307.584 
L 189.182482 307.584 
L 189.182482 304.896 
L 189.182482 302.208 
L 189.182482 299.52 
L 189.182482 296.832 
L 189.182482 294.144 
L 189.182482 291.456 
L 189.182482 288.768 
L 189.182482 286.08 
L 189.182482 283.392 
L 189.182482 280.704 
L 189.182482 278.016 
L 189.182482 275.328 
L 189.182482 272.64 
L 189.182482 269.952 
L 189.182482 267.264 
L 189.182482 264.576 
L 189.182482 261.888 
L 189.182482 259.2 
L 189.182482 256.512 
L 189.182482 253.824 
L 189.182482 251.136 
L 189.182482 248.448 
L 189.018088 245.76 
L 189.018088 243.072 
L 189.018088 240.384 
L 189.018088 237.696 
L 189.018088 235.008 
L 189.018088 232.32 
L 189.018088 229.632 
L 189.018088 226.944 
L 189.018088 224.256 
L 188.900747 221.568 
L 188.302163 218.88 
L 188.302163 216.192 
L 188.302163 213.504 
L 187.461818 211.451737 
L 186.466986 210.816 
L 186.466986 208.128 
L 186.466986 205.44 
L 186.466986 202.752 
L 186.466986 200.064 
L 186.466986 197.376 
L 183.854545 196.64626 
L 180.247273 196.64626 
L 176.64 195.251072 
L 173.032727 195.251072 
L 169.872099 194.688 
L 169.425455 194.513717 
L 165.818182 192.10735 
L 165.646899 192 
L 164.019085 189.312 
L 164.019085 186.624 
L 164.019085 183.936 
L 164.019085 181.248 
L 164.019085 178.56 
L 162.210909 177.032787 
L 158.603636 177.032787 
L 154.996364 177.032787 
L 151.389091 177.032787 
L 147.781818 177.032787 
L 144.174545 177.032787 
L 140.567273 177.032787 
L 136.96 177.032787 
L 133.352727 177.032787 
L 129.745455 177.032787 
L 126.138182 177.032787 
L 122.530909 177.032787 
L 118.923636 177.032787 
L 115.316364 177.032787 
L 111.709091 177.032787 
L 108.101818 177.032787 
L 104.494545 177.032787 
L 100.887273 177.032787 
L 97.28 177.032787 
L 93.672727 177.032787 
L 90.065455 177.032787 
L 86.458182 177.032787 
L 82.850909 177.032787 
L 79.243636 177.032787 
L 75.636364 177.032787 
L 72.029091 177.032787 
L 68.421818 177.032787 
L 64.814545 177.032787 
L 61.207273 177.032787 
L 57.6 177.032787 
L 57.6 178.56 
L 57.6 181.248 
L 57.6 183.936 
L 57.6 186.624 
L 57.6 189.312 
L 57.6 192 
L 57.6 194.688 
L 57.6 197.376 
L 57.6 200.064 
L 57.6 202.752 
L 57.6 205.44 
L 57.6 208.128 
L 57.6 210.816 
L 57.6 213.504 
L 57.6 216.192 
L 57.6 218.88 
L 57.6 221.568 
L 57.6 224.256 
L 57.6 226.944 
L 57.6 229.632 
L 57.6 232.32 
L 57.6 235.008 
L 57.6 237.696 
L 57.6 240.384 
L 57.6 243.072 
L 57.6 245.76 
L 57.6 248.448 
L 57.6 251.136 
L 57.6 253.824 
L 57.6 256.512 
L 57.6 259.2 
L 57.6 261.888 
L 57.6 264.576 
L 57.6 267.264 
L 57.6 269.952 
L 57.6 272.64 
L 57.6 275.328 
L 57.6 278.016 
L 57.6 280.704 
L 57.6 283.392 
L 57.6 286.08 
L 57.6 288.768 
L 57.6 291.456 
L 57.6 294.144 
L 57.6 296.832 
L 57.6 299.52 
L 57.6 302.208 
L 57.6 304.896 
L 57.6 307.584 
z
" clip-path="url(#p00769e773a)" style="fill: #481b6d; fill-opacity: 0.75"/>
   </g>
   <g id="PathCollection_2">
    <path d="M 191.069091 307.584 
L 194.676364 307.584 
L 198.283636 307.584 
L 201.890909 307.584 
L 205.498182 307.584 
L 209.105455 307.584 
L 212.712727 307.584 
L 216.32 307.584 
L 219.927273 307.584 
L 223.534545 307.584 
L 227.141818 307.584 
L 230.749091 307.584 
L 234.356364 307.584 
L 237.963636 307.584 
L 241.570909 307.584 
L 245.178182 307.584 
L 248.785455 307.584 
L 252.392727 307.584 
L 256 307.584 
L 259.607273 307.584 
L 263.214545 307.584 
L 266.821818 307.584 
L 270.429091 307.584 
L 274.036364 307.584 
L 277.643636 307.584 
L 281.250909 307.584 
L 284.858182 307.584 
L 286.349847 307.584 
L 286.349847 304.896 
L 286.349847 302.208 
L 286.349847 299.52 
L 286.349847 296.832 
L 286.349847 294.144 
L 286.349847 291.456 
L 286.349847 288.768 
L 286.349847 286.08 
L 286.349847 283.392 
L 286.349847 280.704 
L 286.349847 278.016 
L 286.349847 275.328 
L 286.349847 272.64 
L 286.349847 269.952 
L 286.349847 267.264 
L 286.349847 264.576 
L 286.349847 261.888 
L 286.349847 259.2 
L 286.349847 256.512 
L 286.349847 253.824 
L 286.349847 251.136 
L 286.349847 248.448 
L 286.059365 245.76 
L 286.059365 243.072 
L 286.059365 240.384 
L 286.059365 237.696 
L 286.059365 235.008 
L 286.059365 232.32 
L 286.059365 229.632 
L 286.059365 226.944 
L 286.059365 224.256 
L 285.852024 221.568 
L 285.852024 218.88 
L 285.852024 216.192 
L 285.852024 213.504 
L 284.858182 212.130404 
L 281.250909 212.130404 
L 277.643636 212.130404 
L 274.036364 212.130404 
L 270.429091 212.130404 
L 266.821818 212.130404 
L 263.214545 212.130404 
L 259.607273 212.130404 
L 257.757299 210.816 
L 257.757299 208.128 
L 257.757299 205.44 
L 257.757299 202.752 
L 257.757299 200.064 
L 257.757299 197.376 
L 256 196.830238 
L 252.392727 196.830238 
L 248.785455 196.830238 
L 245.178182 196.830238 
L 241.570909 196.830238 
L 237.963636 196.338105 
L 234.356364 196.338105 
L 230.749091 196.338105 
L 227.141818 196.338105 
L 223.534545 196.338105 
L 219.927273 196.338105 
L 216.32 195.736964 
L 212.712727 195.736964 
L 209.105455 195.736964 
L 205.498182 195.736964 
L 201.890909 195.736964 
L 198.283636 195.736964 
L 194.874334 194.688 
L 194.676364 194.554587 
L 193.44197 192 
L 192.948993 189.312 
L 192.948993 186.624 
L 192.948993 183.936 
L 192.948993 181.248 
L 192.948993 178.56 
L 191.985181 175.872 
L 191.985181 173.184 
L 191.2024 170.496 
L 191.069091 170.333604 
L 189.234055 167.808 
L 189.234055 165.12 
L 189.234055 162.432 
L 188.768828 159.744 
L 188.768828 157.056 
L 187.461818 154.638559 
L 186.902793 154.368 
L 183.854545 153.261837 
L 180.247273 153.261837 
L 177.099083 151.68 
L 177.099083 148.992 
L 177.099083 146.304 
L 177.099083 143.616 
L 176.64 142.626079 
L 173.032727 142.626079 
L 171.323062 140.928 
L 171.323062 138.24 
L 171.323062 135.552 
L 171.323062 132.864 
L 169.425455 130.87559 
L 169.034925 130.176 
L 169.034925 127.488 
L 169.034925 124.8 
L 169.034925 122.112 
L 169.034925 119.424 
L 169.034925 116.736 
L 169.034925 114.048 
L 169.034925 111.36 
L 169.034925 108.672 
L 169.034925 105.984 
L 169.034925 103.296 
L 169.034925 100.608 
L 169.034925 97.92 
L 169.034925 95.232 
L 169.034925 92.544 
L 169.034925 89.856 
L 169.034925 87.168 
L 169.034925 84.48 
L 169.034925 81.792 
L 169.034925 79.104 
L 169.034925 76.416 
L 169.034925 73.728 
L 169.034925 71.04 
L 169.034925 68.352 
L 169.034925 65.664 
L 169.425455 65.385332 
L 173.032727 63.879686 
L 176.64 63.879686 
L 177.637265 62.976 
L 177.637265 60.288 
L 177.637265 57.6 
L 177.637265 54.912 
L 177.637265 52.224 
L 177.637265 49.536 
L 177.637265 46.848 
L 177.637265 44.16 
L 177.637265 41.472 
L 176.64 41.472 
L 173.032727 41.472 
L 169.425455 41.472 
L 165.818182 41.472 
L 162.210909 41.472 
L 158.603636 41.472 
L 154.996364 41.472 
L 151.389091 41.472 
L 147.781818 41.472 
L 144.174545 41.472 
L 140.567273 41.472 
L 136.96 41.472 
L 133.352727 41.472 
L 129.745455 41.472 
L 126.138182 41.472 
L 122.530909 41.472 
L 118.923636 41.472 
L 115.316364 41.472 
L 111.709091 41.472 
L 108.101818 41.472 
L 104.494545 41.472 
L 100.887273 41.472 
L 97.28 41.472 
L 93.672727 41.472 
L 90.065455 41.472 
L 86.458182 41.472 
L 82.850909 41.472 
L 79.243636 41.472 
L 75.636364 41.472 
L 72.029091 41.472 
L 68.421818 41.472 
L 64.814545 41.472 
L 61.207273 41.472 
L 57.6 41.472 
L 57.6 44.16 
L 57.6 46.848 
L 57.6 49.536 
L 57.6 52.224 
L 57.6 54.912 
L 57.6 57.6 
L 57.6 60.288 
L 57.6 62.976 
L 57.6 65.664 
L 57.6 68.352 
L 57.6 71.04 
L 57.6 73.728 
L 57.6 76.416 
L 57.6 79.104 
L 57.6 81.792 
L 57.6 84.48 
L 57.6 87.168 
L 57.6 89.856 
L 57.6 92.544 
L 57.6 95.232 
L 57.6 97.92 
L 57.6 100.608 
L 57.6 103.296 
L 57.6 105.984 
L 57.6 108.672 
L 57.6 111.36 
L 57.6 114.048 
L 57.6 116.736 
L 57.6 119.424 
L 57.6 122.112 
L 57.6 124.8 
L 57.6 127.488 
L 57.6 130.176 
L 57.6 132.864 
L 57.6 135.552 
L 57.6 138.24 
L 57.6 140.928 
L 57.6 143.616 
L 57.6 146.304 
L 57.6 148.992 
L 57.6 151.68 
L 57.6 154.368 
L 57.6 157.056 
L 57.6 159.744 
L 57.6 162.432 
L 57.6 165.12 
L 57.6 167.808 
L 57.6 170.496 
L 57.6 173.184 
L 57.6 175.872 
L 57.6 177.032787 
L 61.207273 177.032787 
L 64.814545 177.032787 
L 68.421818 177.032787 
L 72.029091 177.032787 
L 75.636364 177.032787 
L 79.243636 177.032787 
L 82.850909 177.032787 
L 86.458182 177.032787 
L 90.065455 177.032787 
L 93.672727 177.032787 
L 97.28 177.032787 
L 100.887273 177.032787 
L 104.494545 177.032787 
L 108.101818 177.032787 
L 111.709091 177.032787 
L 115.316364 177.032787 
L 118.923636 177.032787 
L 122.530909 177.032787 
L 126.138182 177.032787 
L 129.745455 177.032787 
L 133.352727 177.032787 
L 136.96 177.032787 
L 140.567273 177.032787 
L 144.174545 177.032787 
L 147.781818 177.032787 
L 151.389091 177.032787 
L 154.996364 177.032787 
L 158.603636 177.032787 
L 162.210909 177.032787 
L 164.019085 178.56 
L 164.019085 181.248 
L 164.019085 183.936 
L 164.019085 186.624 
L 164.019085 189.312 
L 165.646899 192 
L 165.818182 192.10735 
L 169.425455 194.513717 
L 169.872099 194.688 
L 173.032727 195.251072 
L 176.64 195.251072 
L 180.247273 196.64626 
L 183.854545 196.64626 
L 186.466986 197.376 
L 186.466986 200.064 
L 186.466986 202.752 
L 186.466986 205.44 
L 186.466986 208.128 
L 186.466986 210.816 
L 187.461818 211.451737 
L 188.302163 213.504 
L 188.302163 216.192 
L 188.302163 218.88 
L 188.900747 221.568 
L 189.018088 224.256 
L 189.018088 226.944 
L 189.018088 229.632 
L 189.018088 232.32 
L 189.018088 235.008 
L 189.018088 237.696 
L 189.018088 240.384 
L 189.018088 243.072 
L 189.018088 245.76 
L 189.182482 248.448 
L 189.182482 251.136 
L 189.182482 253.824 
L 189.182482 256.512 
L 189.182482 259.2 
L 189.182482 261.888 
L 189.182482 264.576 
L 189.182482 267.264 
L 189.182482 269.952 
L 189.182482 272.64 
L 189.182482 275.328 
L 189.182482 278.016 
L 189.182482 280.704 
L 189.182482 283.392 
L 189.182482 286.08 
L 189.182482 288.768 
L 189.182482 291.456 
L 189.182482 294.144 
L 189.182482 296.832 
L 189.182482 299.52 
L 189.182482 302.208 
L 189.182482 304.896 
L 189.182482 307.584 
z
" clip-path="url(#p00769e773a)" style="fill: #3f4788; fill-opacity: 0.75"/>
   </g>
   <g id="PathCollection_3">
    <path d="M 288.465455 307.584 
L 292.072727 307.584 
L 295.68 307.584 
L 299.287273 307.584 
L 302.894545 307.584 
L 306.501818 307.584 
L 309.036322 307.584 
L 309.036322 304.896 
L 309.036322 302.208 
L 309.036322 299.52 
L 309.036322 296.832 
L 309.036322 294.144 
L 309.036322 291.456 
L 309.036322 288.768 
L 309.036322 286.08 
L 309.036322 283.392 
L 309.036322 280.704 
L 309.036322 278.016 
L 309.036322 275.328 
L 309.036322 272.64 
L 309.036322 269.952 
L 309.036322 267.264 
L 309.036322 264.576 
L 309.036322 261.888 
L 309.036322 259.2 
L 309.036322 256.512 
L 309.036322 253.824 
L 309.036322 251.136 
L 309.036322 248.448 
L 308.986944 245.76 
L 308.986944 243.072 
L 308.986944 240.384 
L 308.986944 237.696 
L 308.986944 235.008 
L 308.986944 232.32 
L 308.986944 229.632 
L 308.986944 226.944 
L 308.986944 224.256 
L 308.951699 221.568 
L 308.951699 218.88 
L 308.951699 216.192 
L 308.951699 213.504 
L 308.621103 210.816 
L 308.621103 208.128 
L 308.621103 205.44 
L 308.621103 202.752 
L 308.621103 200.064 
L 308.621103 197.376 
L 307.864788 194.688 
L 307.519484 192 
L 307.388426 189.312 
L 307.388426 186.624 
L 307.388426 183.936 
L 307.388426 181.248 
L 307.388426 178.56 
L 307.132196 175.872 
L 307.132196 173.184 
L 306.924093 170.496 
L 306.501818 168.561041 
L 302.894545 168.561041 
L 299.287273 168.561041 
L 295.68 168.561041 
L 292.072727 168.561041 
L 288.465455 168.561041 
L 287.498666 167.808 
L 287.498666 165.12 
L 287.498666 162.432 
L 286.676615 159.744 
L 286.676615 157.056 
L 284.858182 155.152553 
L 281.250909 155.152553 
L 277.643636 155.152553 
L 274.036364 155.152553 
L 270.429091 155.152553 
L 266.821818 155.152553 
L 263.214545 155.152553 
L 259.607273 155.152553 
L 258.149274 154.368 
L 256 153.500846 
L 252.392727 153.500846 
L 248.785455 153.500846 
L 245.178182 153.500846 
L 241.570909 153.500846 
L 237.963636 152.861509 
L 234.356364 152.861509 
L 230.749091 152.861509 
L 227.141818 152.861509 
L 223.534545 152.861509 
L 219.927273 152.861509 
L 216.32 152.080558 
L 212.712727 152.080558 
L 209.105455 152.080558 
L 205.498182 152.080558 
L 201.890909 152.080558 
L 198.283636 152.080558 
L 197.281508 151.68 
L 197.281508 148.992 
L 197.281508 146.304 
L 197.281508 143.616 
L 195.714475 140.928 
L 195.714475 138.24 
L 195.714475 135.552 
L 195.714475 132.864 
L 194.676364 130.985341 
L 194.530731 130.176 
L 194.530731 127.488 
L 194.530731 124.8 
L 194.530731 122.112 
L 194.530731 119.424 
L 194.530731 116.736 
L 194.530731 114.048 
L 194.530731 111.36 
L 194.530731 108.672 
L 194.530731 105.984 
L 194.530731 103.296 
L 194.530731 100.608 
L 194.530731 97.92 
L 194.530731 95.232 
L 194.530731 92.544 
L 194.530731 89.856 
L 194.530731 87.168 
L 194.530731 84.48 
L 194.530731 81.792 
L 194.530731 79.104 
L 194.530731 76.416 
L 194.530731 73.728 
L 194.530731 71.04 
L 194.530731 68.352 
L 194.530731 65.664 
L 194.676364 65.341614 
L 197.95804 62.976 
L 197.95804 60.288 
L 197.95804 57.6 
L 197.95804 54.912 
L 197.95804 52.224 
L 197.95804 49.536 
L 197.95804 46.848 
L 197.95804 44.16 
L 197.95804 41.472 
L 194.676364 41.472 
L 191.069091 41.472 
L 187.461818 41.472 
L 183.854545 41.472 
L 180.247273 41.472 
L 177.637265 41.472 
L 177.637265 44.16 
L 177.637265 46.848 
L 177.637265 49.536 
L 177.637265 52.224 
L 177.637265 54.912 
L 177.637265 57.6 
L 177.637265 60.288 
L 177.637265 62.976 
L 176.64 63.879686 
L 173.032727 63.879686 
L 169.425455 65.385332 
L 169.034925 65.664 
L 169.034925 68.352 
L 169.034925 71.04 
L 169.034925 73.728 
L 169.034925 76.416 
L 169.034925 79.104 
L 169.034925 81.792 
L 169.034925 84.48 
L 169.034925 87.168 
L 169.034925 89.856 
L 169.034925 92.544 
L 169.034925 95.232 
L 169.034925 97.92 
L 169.034925 100.608 
L 169.034925 103.296 
L 169.034925 105.984 
L 169.034925 108.672 
L 169.034925 111.36 
L 169.034925 114.048 
L 169.034925 116.736 
L 169.034925 119.424 
L 169.034925 122.112 
L 169.034925 124.8 
L 169.034925 127.488 
L 169.034925 130.176 
L 169.425455 130.87559 
L 171.323062 132.864 
L 171.323062 135.552 
L 171.323062 138.24 
L 171.323062 140.928 
L 173.032727 142.626079 
L 176.64 142.626079 
L 177.099083 143.616 
L 177.099083 146.304 
L 177.099083 148.992 
L 177.099083 151.68 
L 180.247273 153.261837 
L 183.854545 153.261837 
L 186.902793 154.368 
L 187.461818 154.638559 
L 188.768828 157.056 
L 188.768828 159.744 
L 189.234055 162.432 
L 189.234055 165.12 
L 189.234055 167.808 
L 191.069091 170.333604 
L 191.2024 170.496 
L 191.985181 173.184 
L 191.985181 175.872 
L 192.948993 178.56 
L 192.948993 181.248 
L 192.948993 183.936 
L 192.948993 186.624 
L 192.948993 189.312 
L 193.44197 192 
L 194.676364 194.554587 
L 194.874334 194.688 
L 198.283636 195.736964 
L 201.890909 195.736964 
L 205.498182 195.736964 
L 209.105455 195.736964 
L 212.712727 195.736964 
L 216.32 195.736964 
L 219.927273 196.338105 
L 223.534545 196.338105 
L 227.141818 196.338105 
L 230.749091 196.338105 
L 234.356364 196.338105 
L 237.963636 196.338105 
L 241.570909 196.830238 
L 245.178182 196.830238 
L 248.785455 196.830238 
L 252.392727 196.830238 
L 256 196.830238 
L 257.757299 197.376 
L 257.757299 200.064 
L 257.757299 202.752 
L 257.757299 205.44 
L 257.757299 208.128 
L 257.757299 210.816 
L 259.607273 212.130404 
L 263.214545 212.130404 
L 266.821818 212.130404 
L 270.429091 212.130404 
L 274.036364 212.130404 
L 277.643636 212.130404 
L 281.250909 212.130404 
L 284.858182 212.130404 
L 285.852024 213.504 
L 285.852024 216.192 
L 285.852024 218.88 
L 285.852024 221.568 
L 286.059365 224.256 
L 286.059365 226.944 
L 286.059365 229.632 
L 286.059365 232.32 
L 286.059365 235.008 
L 286.059365 237.696 
L 286.059365 240.384 
L 286.059365 243.072 
L 286.059365 245.76 
L 286.349847 248.448 
L 286.349847 251.136 
L 286.349847 253.824 
L 286.349847 256.512 
L 286.349847 259.2 
L 286.349847 261.888 
L 286.349847 264.576 
L 286.349847 267.264 
L 286.349847 269.952 
L 286.349847 272.64 
L 286.349847 275.328 
L 286.349847 278.016 
L 286.349847 280.704 
L 286.349847 283.392 
L 286.349847 286.08 
L 286.349847 288.768 
L 286.349847 291.456 
L 286.349847 294.144 
L 286.349847 296.832 
L 286.349847 299.52 
L 286.349847 302.208 
L 286.349847 304.896 
L 286.349847 307.584 
z
" clip-path="url(#p00769e773a)" style="fill: #2e6e8e; fill-opacity: 0.75"/>
   </g>
   <g id="PathCollection_4">
    <path d="M 310.109091 307.584 
L 313.716364 307.584 
L 317.323636 307.584 
L 320.930909 307.584 
L 324.538182 307.584 
L 328.145455 307.584 
L 331.752727 307.584 
L 335.36 307.584 
L 338.967273 307.584 
L 339.29431 307.584 
L 339.29431 304.896 
L 339.29431 302.208 
L 339.29431 299.52 
L 339.29431 296.832 
L 339.29431 294.144 
L 339.29431 291.456 
L 339.29431 288.768 
L 339.29431 286.08 
L 339.29431 283.392 
L 339.29431 280.704 
L 339.29431 278.016 
L 339.29431 275.328 
L 339.29431 272.64 
L 339.29431 269.952 
L 339.29431 267.264 
L 339.29431 264.576 
L 339.29431 261.888 
L 339.29431 259.2 
L 339.29431 256.512 
L 339.29431 253.824 
L 339.29431 251.136 
L 339.29431 248.448 
L 339.239713 245.76 
L 339.239713 243.072 
L 339.239713 240.384 
L 339.239713 237.696 
L 339.239713 235.008 
L 339.239713 232.32 
L 339.239713 229.632 
L 339.239713 226.944 
L 339.239713 224.256 
L 339.200743 221.568 
L 339.200743 218.88 
L 339.200743 216.192 
L 339.200743 213.504 
L 338.967273 211.787171 
L 337.947333 210.816 
L 337.947333 208.128 
L 337.947333 205.44 
L 337.947333 202.752 
L 337.947333 200.064 
L 337.947333 197.376 
L 335.36 196.299119 
L 331.752727 196.299119 
L 328.145455 196.299119 
L 324.900265 194.688 
L 324.538182 194.29427 
L 320.930909 194.29427 
L 319.15675 192 
L 318.367814 189.312 
L 318.367814 186.624 
L 318.367814 183.936 
L 318.367814 181.248 
L 318.367814 178.56 
L 317.323636 176.740313 
L 313.716364 176.740313 
L 310.109091 176.740313 
L 310.02632 175.872 
L 310.02632 173.184 
L 309.818217 170.496 
L 309.231603 167.808 
L 309.231603 165.12 
L 309.231603 162.432 
L 309.091867 159.744 
L 309.091867 157.056 
L 308.655356 154.368 
L 308.073177 151.68 
L 308.073177 148.992 
L 308.073177 146.304 
L 307.93304 143.616 
L 307.80948 140.928 
L 307.80948 138.24 
L 307.80948 135.552 
L 307.80948 132.864 
L 307.692362 130.176 
L 307.692362 127.488 
L 307.692362 124.8 
L 307.692362 122.112 
L 307.692362 119.424 
L 307.692362 116.736 
L 307.692362 114.048 
L 307.692362 111.36 
L 307.692362 108.672 
L 307.692362 105.984 
L 307.692362 103.296 
L 307.692362 100.608 
L 307.692362 97.92 
L 307.692362 95.232 
L 307.692362 92.544 
L 307.692362 89.856 
L 307.692362 87.168 
L 307.692362 84.48 
L 307.692362 81.792 
L 307.692362 79.104 
L 307.692362 76.416 
L 307.692362 73.728 
L 307.692362 71.04 
L 307.692362 68.352 
L 307.692362 65.664 
L 307.986385 62.976 
L 307.986385 60.288 
L 307.986385 57.6 
L 307.986385 54.912 
L 307.986385 52.224 
L 307.986385 49.536 
L 307.986385 46.848 
L 307.986385 44.16 
L 307.986385 41.472 
L 306.501818 41.472 
L 302.894545 41.472 
L 299.287273 41.472 
L 295.68 41.472 
L 292.072727 41.472 
L 288.465455 41.472 
L 284.858182 41.472 
L 281.250909 41.472 
L 277.643636 41.472 
L 274.036364 41.472 
L 270.429091 41.472 
L 266.821818 41.472 
L 263.214545 41.472 
L 259.607273 41.472 
L 256 41.472 
L 252.392727 41.472 
L 248.785455 41.472 
L 245.178182 41.472 
L 241.570909 41.472 
L 237.963636 41.472 
L 234.356364 41.472 
L 230.749091 41.472 
L 227.141818 41.472 
L 223.534545 41.472 
L 219.927273 41.472 
L 216.32 41.472 
L 212.712727 41.472 
L 209.105455 41.472 
L 205.498182 41.472 
L 201.890909 41.472 
L 198.283636 41.472 
L 197.95804 41.472 
L 197.95804 44.16 
L 197.95804 46.848 
L 197.95804 49.536 
L 197.95804 52.224 
L 197.95804 54.912 
L 197.95804 57.6 
L 197.95804 60.288 
L 197.95804 62.976 
L 194.676364 65.341614 
L 194.530731 65.664 
L 194.530731 68.352 
L 194.530731 71.04 
L 194.530731 73.728 
L 194.530731 76.416 
L 194.530731 79.104 
L 194.530731 81.792 
L 194.530731 84.48 
L 194.530731 87.168 
L 194.530731 89.856 
L 194.530731 92.544 
L 194.530731 95.232 
L 194.530731 97.92 
L 194.530731 100.608 
L 194.530731 103.296 
L 194.530731 105.984 
L 194.530731 108.672 
L 194.530731 111.36 
L 194.530731 114.048 
L 194.530731 116.736 
L 194.530731 119.424 
L 194.530731 122.112 
L 194.530731 124.8 
L 194.530731 127.488 
L 194.530731 130.176 
L 194.676364 130.985341 
L 195.714475 132.864 
L 195.714475 135.552 
L 195.714475 138.24 
L 195.714475 140.928 
L 197.281508 143.616 
L 197.281508 146.304 
L 197.281508 148.992 
L 197.281508 151.68 
L 198.283636 152.080558 
L 201.890909 152.080558 
L 205.498182 152.080558 
L 209.105455 152.080558 
L 212.712727 152.080558 
L 216.32 152.080558 
L 219.927273 152.861509 
L 223.534545 152.861509 
L 227.141818 152.861509 
L 230.749091 152.861509 
L 234.356364 152.861509 
L 237.963636 152.861509 
L 241.570909 153.500846 
L 245.178182 153.500846 
L 248.785455 153.500846 
L 252.392727 153.500846 
L 256 153.500846 
L 258.149274 154.368 
L 259.607273 155.152553 
L 263.214545 155.152553 
L 266.821818 155.152553 
L 270.429091 155.152553 
L 274.036364 155.152553 
L 277.643636 155.152553 
L 281.250909 155.152553 
L 284.858182 155.152553 
L 286.676615 157.056 
L 286.676615 159.744 
L 287.498666 162.432 
L 287.498666 165.12 
L 287.498666 167.808 
L 288.465455 168.561041 
L 292.072727 168.561041 
L 295.68 168.561041 
L 299.287273 168.561041 
L 302.894545 168.561041 
L 306.501818 168.561041 
L 306.924093 170.496 
L 307.132196 173.184 
L 307.132196 175.872 
L 307.388426 178.56 
L 307.388426 181.248 
L 307.388426 183.936 
L 307.388426 186.624 
L 307.388426 189.312 
L 307.519484 192 
L 307.864788 194.688 
L 308.621103 197.376 
L 308.621103 200.064 
L 308.621103 202.752 
L 308.621103 205.44 
L 308.621103 208.128 
L 308.621103 210.816 
L 308.951699 213.504 
L 308.951699 216.192 
L 308.951699 218.88 
L 308.951699 221.568 
L 308.986944 224.256 
L 308.986944 226.944 
L 308.986944 229.632 
L 308.986944 232.32 
L 308.986944 235.008 
L 308.986944 237.696 
L 308.986944 240.384 
L 308.986944 243.072 
L 308.986944 245.76 
L 309.036322 248.448 
L 309.036322 251.136 
L 309.036322 253.824 
L 309.036322 256.512 
L 309.036322 259.2 
L 309.036322 261.888 
L 309.036322 264.576 
L 309.036322 267.264 
L 309.036322 269.952 
L 309.036322 272.64 
L 309.036322 275.328 
L 309.036322 278.016 
L 309.036322 280.704 
L 309.036322 283.392 
L 309.036322 286.08 
L 309.036322 288.768 
L 309.036322 291.456 
L 309.036322 294.144 
L 309.036322 296.832 
L 309.036322 299.52 
L 309.036322 302.208 
L 309.036322 304.896 
L 309.036322 307.584 
z
" clip-path="url(#p00769e773a)" style="fill: #21918c; fill-opacity: 0.75"/>
   </g>
   <g id="PathCollection_5">
    <path d="M 342.494336 304.896 
L 342.494336 302.208 
L 342.494336 299.52 
L 342.494336 296.832 
L 342.494336 294.144 
L 342.494336 291.456 
L 342.494336 288.768 
L 342.494336 286.08 
L 342.494336 283.392 
L 342.494336 280.704 
L 342.494336 278.016 
L 342.494336 275.328 
L 342.494336 272.64 
L 342.494336 269.952 
L 342.494336 267.264 
L 342.494336 264.576 
L 342.494336 261.888 
L 342.494336 259.2 
L 342.494336 256.512 
L 342.494336 253.824 
L 342.494336 251.136 
L 342.494336 248.448 
L 342.439739 245.76 
L 342.439739 243.072 
L 342.439739 240.384 
L 342.439739 237.696 
L 342.439739 235.008 
L 342.439739 232.32 
L 342.439739 229.632 
L 342.439739 226.944 
L 342.439739 224.256 
L 342.400769 221.568 
L 342.400769 218.88 
L 342.400769 216.192 
L 342.400769 213.504 
L 342.03523 210.816 
L 342.03523 208.128 
L 342.03523 205.44 
L 342.03523 202.752 
L 342.03523 200.064 
L 342.03523 197.376 
L 341.198974 194.688 
L 340.817173 192 
L 340.672262 189.312 
L 340.672262 186.624 
L 340.672262 183.936 
L 340.672262 181.248 
L 340.672262 178.56 
L 340.388949 175.872 
L 340.388949 173.184 
L 340.158849 170.496 
L 339.510232 167.808 
L 339.510232 165.12 
L 339.510232 162.432 
L 339.355726 159.744 
L 339.355726 157.056 
L 338.967273 154.892602 
L 338.239816 154.368 
L 335.36 152.810862 
L 331.752727 152.810862 
L 328.145455 152.810862 
L 326.392079 151.68 
L 326.392079 148.992 
L 326.392079 146.304 
L 324.538182 144.333159 
L 320.930909 144.333159 
L 320.363641 143.616 
L 319.547014 140.928 
L 319.547014 138.24 
L 319.547014 135.552 
L 319.547014 132.864 
L 318.772961 130.176 
L 318.772961 127.488 
L 318.772961 124.8 
L 318.772961 122.112 
L 318.772961 119.424 
L 318.772961 116.736 
L 318.772961 114.048 
L 318.772961 111.36 
L 318.772961 108.672 
L 318.772961 105.984 
L 318.772961 103.296 
L 318.772961 100.608 
L 318.772961 97.92 
L 318.772961 95.232 
L 318.772961 92.544 
L 318.772961 89.856 
L 318.772961 87.168 
L 318.772961 84.48 
L 318.772961 81.792 
L 318.772961 79.104 
L 318.772961 76.416 
L 318.772961 73.728 
L 318.772961 71.04 
L 318.772961 68.352 
L 318.772961 65.664 
L 320.716202 62.976 
L 320.716202 60.288 
L 320.716202 57.6 
L 320.716202 54.912 
L 320.716202 52.224 
L 320.716202 49.536 
L 320.716202 46.848 
L 320.716202 44.16 
L 320.716202 41.472 
L 317.323636 41.472 
L 313.716364 41.472 
L 310.109091 41.472 
L 307.986385 41.472 
L 307.986385 44.16 
L 307.986385 46.848 
L 307.986385 49.536 
L 307.986385 52.224 
L 307.986385 54.912 
L 307.986385 57.6 
L 307.986385 60.288 
L 307.986385 62.976 
L 307.692362 65.664 
L 307.692362 68.352 
L 307.692362 71.04 
L 307.692362 73.728 
L 307.692362 76.416 
L 307.692362 79.104 
L 307.692362 81.792 
L 307.692362 84.48 
L 307.692362 87.168 
L 307.692362 89.856 
L 307.692362 92.544 
L 307.692362 95.232 
L 307.692362 97.92 
L 307.692362 100.608 
L 307.692362 103.296 
L 307.692362 105.984 
L 307.692362 108.672 
L 307.692362 111.36 
L 307.692362 114.048 
L 307.692362 116.736 
L 307.692362 119.424 
L 307.692362 122.112 
L 307.692362 124.8 
L 307.692362 127.488 
L 307.692362 130.176 
L 307.80948 132.864 
L 307.80948 135.552 
L 307.80948 138.24 
L 307.80948 140.928 
L 307.93304 143.616 
L 308.073177 146.304 
L 308.073177 148.992 
L 308.073177 151.68 
L 308.655356 154.368 
L 309.091867 157.056 
L 309.091867 159.744 
L 309.231603 162.432 
L 309.231603 165.12 
L 309.231603 167.808 
L 309.818217 170.496 
L 310.02632 173.184 
L 310.02632 175.872 
L 310.109091 176.740313 
L 313.716364 176.740313 
L 317.323636 176.740313 
L 318.367814 178.56 
L 318.367814 181.248 
L 318.367814 183.936 
L 318.367814 186.624 
L 318.367814 189.312 
L 319.15675 192 
L 320.930909 194.29427 
L 324.538182 194.29427 
L 324.900265 194.688 
L 328.145455 196.299119 
L 331.752727 196.299119 
L 335.36 196.299119 
L 337.947333 197.376 
L 337.947333 200.064 
L 337.947333 202.752 
L 337.947333 205.44 
L 337.947333 208.128 
L 337.947333 210.816 
L 338.967273 211.787171 
L 339.200743 213.504 
L 339.200743 216.192 
L 339.200743 218.88 
L 339.200743 221.568 
L 339.239713 224.256 
L 339.239713 226.944 
L 339.239713 229.632 
L 339.239713 232.32 
L 339.239713 235.008 
L 339.239713 237.696 
L 339.239713 240.384 
L 339.239713 243.072 
L 339.239713 245.76 
L 339.29431 248.448 
L 339.29431 251.136 
L 339.29431 253.824 
L 339.29431 256.512 
L 339.29431 259.2 
L 339.29431 261.888 
L 339.29431 264.576 
L 339.29431 267.264 
L 339.29431 269.952 
L 339.29431 272.64 
L 339.29431 275.328 
L 339.29431 278.016 
L 339.29431 280.704 
L 339.29431 283.392 
L 339.29431 286.08 
L 339.29431 288.768 
L 339.29431 291.456 
L 339.29431 294.144 
L 339.29431 296.832 
L 339.29431 299.52 
L 339.29431 302.208 
L 339.29431 304.896 
L 339.29431 307.584 
L 342.494336 307.584 
z
" clip-path="url(#p00769e773a)" style="fill: #2db27d; fill-opacity: 0.75"/>
   </g>
   <g id="PathCollection_6">
    <path d="M 342.574545 307.584 
L 346.181818 307.584 
L 349.789091 307.584 
L 353.396364 307.584 
L 357.003636 307.584 
L 360.610909 307.584 
L 364.218182 307.584 
L 367.825455 307.584 
L 371.432727 307.584 
L 375.04 307.584 
L 378.647273 307.584 
L 382.254545 307.584 
L 385.861818 307.584 
L 389.469091 307.584 
L 393.076364 307.584 
L 396.683636 307.584 
L 400.290909 307.584 
L 403.898182 307.584 
L 407.505455 307.584 
L 411.112727 307.584 
L 414.72 307.584 
L 414.72 304.896 
L 414.72 302.208 
L 414.72 299.52 
L 414.72 296.832 
L 414.72 294.144 
L 414.72 291.456 
L 414.72 288.768 
L 414.72 286.08 
L 414.72 283.392 
L 414.72 280.704 
L 414.72 278.016 
L 414.72 275.328 
L 414.72 272.64 
L 414.72 269.952 
L 414.72 267.264 
L 414.72 264.576 
L 414.72 261.888 
L 414.72 259.2 
L 414.72 256.512 
L 414.72 253.824 
L 414.72 251.136 
L 414.72 248.448 
L 414.72 245.76 
L 414.72 243.072 
L 414.72 240.384 
L 414.72 237.696 
L 414.72 235.008 
L 414.72 232.32 
L 414.72 229.632 
L 414.72 226.944 
L 414.72 224.256 
L 414.72 221.568 
L 414.72 218.88 
L 414.72 216.192 
L 414.72 213.504 
L 414.72 210.816 
L 414.72 208.128 
L 414.72 205.44 
L 414.72 202.752 
L 414.72 200.064 
L 414.72 197.376 
L 414.72 194.688 
L 414.72 192 
L 414.72 189.312 
L 414.72 186.624 
L 414.72 183.936 
L 414.72 181.248 
L 414.72 178.56 
L 414.72 175.872 
L 414.72 173.184 
L 414.72 170.496 
L 414.72 168.712499 
L 411.112727 168.712499 
L 407.505455 168.712499 
L 403.898182 168.712499 
L 400.290909 168.712499 
L 396.683636 168.712499 
L 393.076364 168.712499 
L 389.469091 168.712499 
L 385.861818 168.712499 
L 382.254545 168.712499 
L 378.647273 168.712499 
L 375.04 168.712499 
L 371.432727 168.712499 
L 367.825455 168.712499 
L 364.218182 168.712499 
L 360.610909 168.712499 
L 357.003636 168.712499 
L 353.396364 168.712499 
L 349.789091 168.712499 
L 346.181818 168.712499 
L 343.957584 167.808 
L 343.957584 165.12 
L 343.957584 162.432 
L 342.574545 160.07095 
L 342.555752 159.744 
L 342.555752 157.056 
L 342.073103 154.368 
L 341.42939 151.68 
L 341.42939 148.992 
L 341.42939 146.304 
L 341.038853 143.616 
L 340.888856 140.928 
L 340.888856 138.24 
L 340.888856 135.552 
L 340.888856 132.864 
L 340.746679 130.176 
L 340.746679 127.488 
L 340.746679 124.8 
L 340.746679 122.112 
L 340.746679 119.424 
L 340.746679 116.736 
L 340.746679 114.048 
L 340.746679 111.36 
L 340.746679 108.672 
L 340.746679 105.984 
L 340.746679 103.296 
L 340.746679 100.608 
L 340.746679 97.92 
L 340.746679 95.232 
L 340.746679 92.544 
L 340.746679 89.856 
L 340.746679 87.168 
L 340.746679 84.48 
L 340.746679 81.792 
L 340.746679 79.104 
L 340.746679 76.416 
L 340.746679 73.728 
L 340.746679 71.04 
L 340.746679 68.352 
L 340.746679 65.664 
L 341.103612 62.976 
L 341.103612 60.288 
L 341.103612 57.6 
L 341.103612 54.912 
L 341.103612 52.224 
L 341.103612 49.536 
L 341.103612 46.848 
L 341.103612 44.16 
L 341.103612 41.472 
L 338.967273 41.472 
L 335.36 41.472 
L 331.752727 41.472 
L 328.145455 41.472 
L 324.538182 41.472 
L 320.930909 41.472 
L 320.716202 41.472 
L 320.716202 44.16 
L 320.716202 46.848 
L 320.716202 49.536 
L 320.716202 52.224 
L 320.716202 54.912 
L 320.716202 57.6 
L 320.716202 60.288 
L 320.716202 62.976 
L 318.772961 65.664 
L 318.772961 68.352 
L 318.772961 71.04 
L 318.772961 73.728 
L 318.772961 76.416 
L 318.772961 79.104 
L 318.772961 81.792 
L 318.772961 84.48 
L 318.772961 87.168 
L 318.772961 89.856 
L 318.772961 92.544 
L 318.772961 95.232 
L 318.772961 97.92 
L 318.772961 100.608 
L 318.772961 103.296 
L 318.772961 105.984 
L 318.772961 108.672 
L 318.772961 111.36 
L 318.772961 114.048 
L 318.772961 116.736 
L 318.772961 119.424 
L 318.772961 122.112 
L 318.772961 124.8 
L 318.772961 127.488 
L 318.772961 130.176 
L 319.547014 132.864 
L 319.547014 135.552 
L 319.547014 138.24 
L 319.547014 140.928 
L 320.363641 143.616 
L 320.930909 144.333159 
L 324.538182 144.333159 
L 326.392079 146.304 
L 326.392079 148.992 
L 326.392079 151.68 
L 328.145455 152.810862 
L 331.752727 152.810862 
L 335.36 152.810862 
L 338.239816 154.368 
L 338.967273 154.892602 
L 339.355726 157.056 
L 339.355726 159.744 
L 339.510232 162.432 
L 339.510232 165.12 
L 339.510232 167.808 
L 340.158849 170.496 
L 340.388949 173.184 
L 340.388949 175.872 
L 340.672262 178.56 
L 340.672262 181.248 
L 340.672262 183.936 
L 340.672262 186.624 
L 340.672262 189.312 
L 340.817173 192 
L 341.198974 194.688 
L 342.03523 197.376 
L 342.03523 200.064 
L 342.03523 202.752 
L 342.03523 205.44 
L 342.03523 208.128 
L 342.03523 210.816 
L 342.400769 213.504 
L 342.400769 216.192 
L 342.400769 218.88 
L 342.400769 221.568 
L 342.439739 224.256 
L 342.439739 226.944 
L 342.439739 229.632 
L 342.439739 232.32 
L 342.439739 235.008 
L 342.439739 237.696 
L 342.439739 240.384 
L 342.439739 243.072 
L 342.439739 245.76 
L 342.494336 248.448 
L 342.494336 251.136 
L 342.494336 253.824 
L 342.494336 256.512 
L 342.494336 259.2 
L 342.494336 261.888 
L 342.494336 264.576 
L 342.494336 267.264 
L 342.494336 269.952 
L 342.494336 272.64 
L 342.494336 275.328 
L 342.494336 278.016 
L 342.494336 280.704 
L 342.494336 283.392 
L 342.494336 286.08 
L 342.494336 288.768 
L 342.494336 291.456 
L 342.494336 294.144 
L 342.494336 296.832 
L 342.494336 299.52 
L 342.494336 302.208 
L 342.494336 304.896 
L 342.494336 307.584 
z
" clip-path="url(#p00769e773a)" style="fill: #73d056; fill-opacity: 0.75"/>
   </g>
   <g id="PathCollection_7">
    <path d="M 346.181818 168.712499 
L 349.789091 168.712499 
L 353.396364 168.712499 
L 357.003636 168.712499 
L 360.610909 168.712499 
L 364.218182 168.712499 
L 367.825455 168.712499 
L 371.432727 168.712499 
L 375.04 168.712499 
L 378.647273 168.712499 
L 382.254545 168.712499 
L 385.861818 168.712499 
L 389.469091 168.712499 
L 393.076364 168.712499 
L 396.683636 168.712499 
L 400.290909 168.712499 
L 403.898182 168.712499 
L 407.505455 168.712499 
L 411.112727 168.712499 
L 414.72 168.712499 
L 414.72 167.808 
L 414.72 165.12 
L 414.72 162.432 
L 414.72 159.744 
L 414.72 157.056 
L 414.72 154.368 
L 414.72 151.68 
L 414.72 148.992 
L 414.72 146.304 
L 414.72 143.616 
L 414.72 140.928 
L 414.72 138.24 
L 414.72 135.552 
L 414.72 132.864 
L 414.72 130.176 
L 414.72 127.488 
L 414.72 124.8 
L 414.72 122.112 
L 414.72 119.424 
L 414.72 116.736 
L 414.72 114.048 
L 414.72 111.36 
L 414.72 108.672 
L 414.72 105.984 
L 414.72 103.296 
L 414.72 100.608 
L 414.72 97.92 
L 414.72 95.232 
L 414.72 92.544 
L 414.72 89.856 
L 414.72 87.168 
L 414.72 84.48 
L 414.72 81.792 
L 414.72 79.104 
L 414.72 76.416 
L 414.72 73.728 
L 414.72 71.04 
L 414.72 68.352 
L 414.72 65.664 
L 414.72 62.976 
L 414.72 60.288 
L 414.72 57.6 
L 414.72 54.912 
L 414.72 52.224 
L 414.72 49.536 
L 414.72 46.848 
L 414.72 44.16 
L 414.72 41.472 
L 411.112727 41.472 
L 407.505455 41.472 
L 403.898182 41.472 
L 400.290909 41.472 
L 396.683636 41.472 
L 393.076364 41.472 
L 389.469091 41.472 
L 385.861818 41.472 
L 382.254545 41.472 
L 378.647273 41.472 
L 375.04 41.472 
L 371.432727 41.472 
L 367.825455 41.472 
L 364.218182 41.472 
L 360.610909 41.472 
L 357.003636 41.472 
L 353.396364 41.472 
L 349.789091 41.472 
L 346.181818 41.472 
L 342.574545 41.472 
L 341.103612 41.472 
L 341.103612 44.16 
L 341.103612 46.848 
L 341.103612 49.536 
L 341.103612 52.224 
L 341.103612 54.912 
L 341.103612 57.6 
L 341.103612 60.288 
L 341.103612 62.976 
L 340.746679 65.664 
L 340.746679 68.352 
L 340.746679 71.04 
L 340.746679 73.728 
L 340.746679 76.416 
L 340.746679 79.104 
L 340.746679 81.792 
L 340.746679 84.48 
L 340.746679 87.168 
L 340.746679 89.856 
L 340.746679 92.544 
L 340.746679 95.232 
L 340.746679 97.92 
L 340.746679 100.608 
L 340.746679 103.296 
L 340.746679 105.984 
L 340.746679 108.672 
L 340.746679 111.36 
L 340.746679 114.048 
L 340.746679 116.736 
L 340.746679 119.424 
L 340.746679 122.112 
L 340.746679 124.8 
L 340.746679 127.488 
L 340.746679 130.176 
L 340.888856 132.864 
L 340.888856 135.552 
L 340.888856 138.24 
L 340.888856 140.928 
L 341.038853 143.616 
L 341.42939 146.304 
L 341.42939 148.992 
L 341.42939 151.68 
L 342.073103 154.368 
L 342.555752 157.056 
L 342.555752 159.744 
L 342.574545 160.07095 
L 343.957584 162.432 
L 343.957584 165.12 
L 343.957584 167.808 
z
" clip-path="url(#p00769e773a)" style="fill: #d0e11c; fill-opacity: 0.75"/>
   </g>
   <g id="matplotlib.axis_1">
    <g id="xtick_1">
     <g id="line2d_1">
      <defs>
       <path id="m5899d121fd" d="M 0 0 
L 0 3.5 
" style="stroke: #000000; stroke-width: 0.8"/>
      </defs>
      <g>
       <use xlink:href="#m5899d121fd" x="79.142351" y="307.584" style="stroke: #000000; stroke-width: 0.8"/>
      </g>
     </g>
     <g id="text_1">
      <!-- 62.5 -->
      <g transform="translate(68.009538 322.182437) scale(0.1 -0.1)">
       <defs>
        <path id="DejaVuSans-36" d="M 2113 2584 
Q 1688 2584 1439 2293 
Q 1191 2003 1191 1497 
Q 1191 994 1439 701 
Q 1688 409 2113 409 
Q 2538 409 2786 701 
Q 3034 994 3034 1497 
Q 3034 2003 2786 2293 
Q 2538 2584 2113 2584 
z
M 3366 4563 
L 3366 3988 
Q 3128 4100 2886 4159 
Q 2644 4219 2406 4219 
Q 1781 4219 1451 3797 
Q 1122 3375 1075 2522 
Q 1259 2794 1537 2939 
Q 1816 3084 2150 3084 
Q 2853 3084 3261 2657 
Q 3669 2231 3669 1497 
Q 3669 778 3244 343 
Q 2819 -91 2113 -91 
Q 1303 -91 875 529 
Q 447 1150 447 2328 
Q 447 3434 972 4092 
Q 1497 4750 2381 4750 
Q 2619 4750 2861 4703 
Q 3103 4656 3366 4563 
z
" transform="scale(0.015625)"/>
        <path id="DejaVuSans-32" d="M 1228 531 
L 3431 531 
L 3431 0 
L 469 0 
L 469 531 
Q 828 903 1448 1529 
Q 2069 2156 2228 2338 
Q 2531 2678 2651 2914 
Q 2772 3150 2772 3378 
Q 2772 3750 2511 3984 
Q 2250 4219 1831 4219 
Q 1534 4219 1204 4116 
Q 875 4013 500 3803 
L 500 4441 
Q 881 4594 1212 4672 
Q 1544 4750 1819 4750 
Q 2544 4750 2975 4387 
Q 3406 4025 3406 3419 
Q 3406 3131 3298 2873 
Q 3191 2616 2906 2266 
Q 2828 2175 2409 1742 
Q 1991 1309 1228 531 
z
" transform="scale(0.015625)"/>
        <path id="DejaVuSans-2e" d="M 684 794 
L 1344 794 
L 1344 0 
L 684 0 
L 684 794 
z
" transform="scale(0.015625)"/>
        <path id="DejaVuSans-35" d="M 691 4666 
L 3169 4666 
L 3169 4134 
L 1269 4134 
L 1269 2991 
Q 1406 3038 1543 3061 
Q 1681 3084 1819 3084 
Q 2600 3084 3056 2656 
Q 3513 2228 3513 1497 
Q 3513 744 3044 326 
Q 2575 -91 1722 -91 
Q 1428 -91 1123 -41 
Q 819 9 494 109 
L 494 744 
Q 775 591 1075 516 
Q 1375 441 1709 441 
Q 2250 441 2565 725 
Q 2881 1009 2881 1497 
Q 2881 1984 2565 2268 
Q 2250 2553 1709 2553 
Q 1456 2553 1204 2497 
Q 953 2441 691 2322 
L 691 4666 
z
" transform="scale(0.015625)"/>
       </defs>
       <use xlink:href="#DejaVuSans-36"/>
       <use xlink:href="#DejaVuSans-32" x="63.623047"/>
       <use xlink:href="#DejaVuSans-2e" x="127.246094"/>
       <use xlink:href="#DejaVuSans-35" x="159.033203"/>
      </g>
     </g>
    </g>
    <g id="xtick_2">
     <g id="line2d_2">
      <g>
       <use xlink:href="#m5899d121fd" x="120.839375" y="307.584" style="stroke: #000000; stroke-width: 0.8"/>
      </g>
     </g>
     <g id="text_2">
      <!-- 65.0 -->
      <g transform="translate(109.706562 322.182437) scale(0.1 -0.1)">
       <defs>
        <path id="DejaVuSans-30" d="M 2034 4250 
Q 1547 4250 1301 3770 
Q 1056 3291 1056 2328 
Q 1056 1369 1301 889 
Q 1547 409 2034 409 
Q 2525 409 2770 889 
Q 3016 1369 3016 2328 
Q 3016 3291 2770 3770 
Q 2525 4250 2034 4250 
z
M 2034 4750 
Q 2819 4750 3233 4129 
Q 3647 3509 3647 2328 
Q 3647 1150 3233 529 
Q 2819 -91 2034 -91 
Q 1250 -91 836 529 
Q 422 1150 422 2328 
Q 422 3509 836 4129 
Q 1250 4750 2034 4750 
z
" transform="scale(0.015625)"/>
       </defs>
       <use xlink:href="#DejaVuSans-36"/>
       <use xlink:href="#DejaVuSans-35" x="63.623047"/>
       <use xlink:href="#DejaVuSans-2e" x="127.246094"/>
       <use xlink:href="#DejaVuSans-30" x="159.033203"/>
      </g>
     </g>
    </g>
    <g id="xtick_3">
     <g id="line2d_3">
      <g>
       <use xlink:href="#m5899d121fd" x="162.536399" y="307.584" style="stroke: #000000; stroke-width: 0.8"/>
      </g>
     </g>
     <g id="text_3">
      <!-- 67.5 -->
      <g transform="translate(151.403586 322.182437) scale(0.1 -0.1)">
       <defs>
        <path id="DejaVuSans-37" d="M 525 4666 
L 3525 4666 
L 3525 4397 
L 1831 0 
L 1172 0 
L 2766 4134 
L 525 4134 
L 525 4666 
z
" transform="scale(0.015625)"/>
       </defs>
       <use xlink:href="#DejaVuSans-36"/>
       <use xlink:href="#DejaVuSans-37" x="63.623047"/>
       <use xlink:href="#DejaVuSans-2e" x="127.246094"/>
       <use xlink:href="#DejaVuSans-35" x="159.033203"/>
      </g>
     </g>
    </g>
    <g id="xtick_4">
     <g id="line2d_4">
      <g>
       <use xlink:href="#m5899d121fd" x="204.233423" y="307.584" style="stroke: #000000; stroke-width: 0.8"/>
      </g>
     </g>
     <g id="text_4">
      <!-- 70.0 -->
      <g transform="translate(193.10061 322.182437) scale(0.1 -0.1)">
       <use xlink:href="#DejaVuSans-37"/>
       <use xlink:href="#DejaVuSans-30" x="63.623047"/>
       <use xlink:href="#DejaVuSans-2e" x="127.246094"/>
       <use xlink:href="#DejaVuSans-30" x="159.033203"/>
      </g>
     </g>
    </g>
    <g id="xtick_5">
     <g id="line2d_5">
      <g>
       <use xlink:href="#m5899d121fd" x="245.930447" y="307.584" style="stroke: #000000; stroke-width: 0.8"/>
      </g>
     </g>
     <g id="text_5">
      <!-- 72.5 -->
      <g transform="translate(234.797634 322.182437) scale(0.1 -0.1)">
       <use xlink:href="#DejaVuSans-37"/>
       <use xlink:href="#DejaVuSans-32" x="63.623047"/>
       <use xlink:href="#DejaVuSans-2e" x="127.246094"/>
       <use xlink:href="#DejaVuSans-35" x="159.033203"/>
      </g>
     </g>
    </g>
    <g id="xtick_6">
     <g id="line2d_6">
      <g>
       <use xlink:href="#m5899d121fd" x="287.627471" y="307.584" style="stroke: #000000; stroke-width: 0.8"/>
      </g>
     </g>
     <g id="text_6">
      <!-- 75.0 -->
      <g transform="translate(276.494658 322.182437) scale(0.1 -0.1)">
       <use xlink:href="#DejaVuSans-37"/>
       <use xlink:href="#DejaVuSans-35" x="63.623047"/>
       <use xlink:href="#DejaVuSans-2e" x="127.246094"/>
       <use xlink:href="#DejaVuSans-30" x="159.033203"/>
      </g>
     </g>
    </g>
    <g id="xtick_7">
     <g id="line2d_7">
      <g>
       <use xlink:href="#m5899d121fd" x="329.324495" y="307.584" style="stroke: #000000; stroke-width: 0.8"/>
      </g>
     </g>
     <g id="text_7">
      <!-- 77.5 -->
      <g transform="translate(318.191682 322.182437) scale(0.1 -0.1)">
       <use xlink:href="#DejaVuSans-37"/>
       <use xlink:href="#DejaVuSans-37" x="63.623047"/>
       <use xlink:href="#DejaVuSans-2e" x="127.246094"/>
       <use xlink:href="#DejaVuSans-35" x="159.033203"/>
      </g>
     </g>
    </g>
    <g id="xtick_8">
     <g id="line2d_8">
      <g>
       <use xlink:href="#m5899d121fd" x="371.021519" y="307.584" style="stroke: #000000; stroke-width: 0.8"/>
      </g>
     </g>
     <g id="text_8">
      <!-- 80.0 -->
      <g transform="translate(359.888706 322.182437) scale(0.1 -0.1)">
       <defs>
        <path id="DejaVuSans-38" d="M 2034 2216 
Q 1584 2216 1326 1975 
Q 1069 1734 1069 1313 
Q 1069 891 1326 650 
Q 1584 409 2034 409 
Q 2484 409 2743 651 
Q 3003 894 3003 1313 
Q 3003 1734 2745 1975 
Q 2488 2216 2034 2216 
z
M 1403 2484 
Q 997 2584 770 2862 
Q 544 3141 544 3541 
Q 544 4100 942 4425 
Q 1341 4750 2034 4750 
Q 2731 4750 3128 4425 
Q 3525 4100 3525 3541 
Q 3525 3141 3298 2862 
Q 3072 2584 2669 2484 
Q 3125 2378 3379 2068 
Q 3634 1759 3634 1313 
Q 3634 634 3220 271 
Q 2806 -91 2034 -91 
Q 1263 -91 848 271 
Q 434 634 434 1313 
Q 434 1759 690 2068 
Q 947 2378 1403 2484 
z
M 1172 3481 
Q 1172 3119 1398 2916 
Q 1625 2713 2034 2713 
Q 2441 2713 2670 2916 
Q 2900 3119 2900 3481 
Q 2900 3844 2670 4047 
Q 2441 4250 2034 4250 
Q 1625 4250 1398 4047 
Q 1172 3844 1172 3481 
z
" transform="scale(0.015625)"/>
       </defs>
       <use xlink:href="#DejaVuSans-38"/>
       <use xlink:href="#DejaVuSans-30" x="63.623047"/>
       <use xlink:href="#DejaVuSans-2e" x="127.246094"/>
       <use xlink:href="#DejaVuSans-30" x="159.033203"/>
      </g>
     </g>
    </g>
    <g id="xtick_9">
     <g id="line2d_9">
      <g>
       <use xlink:href="#m5899d121fd" x="412.718543" y="307.584" style="stroke: #000000; stroke-width: 0.8"/>
      </g>
     </g>
     <g id="text_9">
      <!-- 82.5 -->
      <g transform="translate(401.58573 322.182437) scale(0.1 -0.1)">
       <use xlink:href="#DejaVuSans-38"/>
       <use xlink:href="#DejaVuSans-32" x="63.623047"/>
       <use xlink:href="#DejaVuSans-2e" x="127.246094"/>
       <use xlink:href="#DejaVuSans-35" x="159.033203"/>
      </g>
     </g>
    </g>
    <g id="text_10">
     <!-- Life Expectancy -->
     <g transform="translate(196.538906 335.860562) scale(0.1 -0.1)">
      <defs>
       <path id="DejaVuSans-4c" d="M 628 4666 
L 1259 4666 
L 1259 531 
L 3531 531 
L 3531 0 
L 628 0 
L 628 4666 
z
" transform="scale(0.015625)"/>
       <path id="DejaVuSans-69" d="M 603 3500 
L 1178 3500 
L 1178 0 
L 603 0 
L 603 3500 
z
M 603 4863 
L 1178 4863 
L 1178 4134 
L 603 4134 
L 603 4863 
z
" transform="scale(0.015625)"/>
       <path id="DejaVuSans-66" d="M 2375 4863 
L 2375 4384 
L 1825 4384 
Q 1516 4384 1395 4259 
Q 1275 4134 1275 3809 
L 1275 3500 
L 2222 3500 
L 2222 3053 
L 1275 3053 
L 1275 0 
L 697 0 
L 697 3053 
L 147 3053 
L 147 3500 
L 697 3500 
L 697 3744 
Q 697 4328 969 4595 
Q 1241 4863 1831 4863 
L 2375 4863 
z
" transform="scale(0.015625)"/>
       <path id="DejaVuSans-65" d="M 3597 1894 
L 3597 1613 
L 953 1613 
Q 991 1019 1311 708 
Q 1631 397 2203 397 
Q 2534 397 2845 478 
Q 3156 559 3463 722 
L 3463 178 
Q 3153 47 2828 -22 
Q 2503 -91 2169 -91 
Q 1331 -91 842 396 
Q 353 884 353 1716 
Q 353 2575 817 3079 
Q 1281 3584 2069 3584 
Q 2775 3584 3186 3129 
Q 3597 2675 3597 1894 
z
M 3022 2063 
Q 3016 2534 2758 2815 
Q 2500 3097 2075 3097 
Q 1594 3097 1305 2825 
Q 1016 2553 972 2059 
L 3022 2063 
z
" transform="scale(0.015625)"/>
       <path id="DejaVuSans-20" transform="scale(0.015625)"/>
       <path id="DejaVuSans-45" d="M 628 4666 
L 3578 4666 
L 3578 4134 
L 1259 4134 
L 1259 2753 
L 3481 2753 
L 3481 2222 
L 1259 2222 
L 1259 531 
L 3634 531 
L 3634 0 
L 628 0 
L 628 4666 
z
" transform="scale(0.015625)"/>
       <path id="DejaVuSans-78" d="M 3513 3500 
L 2247 1797 
L 3578 0 
L 2900 0 
L 1881 1375 
L 863 0 
L 184 0 
L 1544 1831 
L 300 3500 
L 978 3500 
L 1906 2253 
L 2834 3500 
L 3513 3500 
z
" transform="scale(0.015625)"/>
       <path id="DejaVuSans-70" d="M 1159 525 
L 1159 -1331 
L 581 -1331 
L 581 3500 
L 1159 3500 
L 1159 2969 
Q 1341 3281 1617 3432 
Q 1894 3584 2278 3584 
Q 2916 3584 3314 3078 
Q 3713 2572 3713 1747 
Q 3713 922 3314 415 
Q 2916 -91 2278 -91 
Q 1894 -91 1617 61 
Q 1341 213 1159 525 
z
M 3116 1747 
Q 3116 2381 2855 2742 
Q 2594 3103 2138 3103 
Q 1681 3103 1420 2742 
Q 1159 2381 1159 1747 
Q 1159 1113 1420 752 
Q 1681 391 2138 391 
Q 2594 391 2855 752 
Q 3116 1113 3116 1747 
z
" transform="scale(0.015625)"/>
       <path id="DejaVuSans-63" d="M 3122 3366 
L 3122 2828 
Q 2878 2963 2633 3030 
Q 2388 3097 2138 3097 
Q 1578 3097 1268 2742 
Q 959 2388 959 1747 
Q 959 1106 1268 751 
Q 1578 397 2138 397 
Q 2388 397 2633 464 
Q 2878 531 3122 666 
L 3122 134 
Q 2881 22 2623 -34 
Q 2366 -91 2075 -91 
Q 1284 -91 818 406 
Q 353 903 353 1747 
Q 353 2603 823 3093 
Q 1294 3584 2113 3584 
Q 2378 3584 2631 3529 
Q 2884 3475 3122 3366 
z
" transform="scale(0.015625)"/>
       <path id="DejaVuSans-74" d="M 1172 4494 
L 1172 3500 
L 2356 3500 
L 2356 3053 
L 1172 3053 
L 1172 1153 
Q 1172 725 1289 603 
Q 1406 481 1766 481 
L 2356 481 
L 2356 0 
L 1766 0 
Q 1100 0 847 248 
Q 594 497 594 1153 
L 594 3053 
L 172 3053 
L 172 3500 
L 594 3500 
L 594 4494 
L 1172 4494 
z
" transform="scale(0.015625)"/>
       <path id="DejaVuSans-61" d="M 2194 1759 
Q 1497 1759 1228 1600 
Q 959 1441 959 1056 
Q 959 750 1161 570 
Q 1363 391 1709 391 
Q 2188 391 2477 730 
Q 2766 1069 2766 1631 
L 2766 1759 
L 2194 1759 
z
M 3341 1997 
L 3341 0 
L 2766 0 
L 2766 531 
Q 2569 213 2275 61 
Q 1981 -91 1556 -91 
Q 1019 -91 701 211 
Q 384 513 384 1019 
Q 384 1609 779 1909 
Q 1175 2209 1959 2209 
L 2766 2209 
L 2766 2266 
Q 2766 2663 2505 2880 
Q 2244 3097 1772 3097 
Q 1472 3097 1187 3025 
Q 903 2953 641 2809 
L 641 3341 
Q 956 3463 1253 3523 
Q 1550 3584 1831 3584 
Q 2591 3584 2966 3190 
Q 3341 2797 3341 1997 
z
" transform="scale(0.015625)"/>
       <path id="DejaVuSans-6e" d="M 3513 2113 
L 3513 0 
L 2938 0 
L 2938 2094 
Q 2938 2591 2744 2837 
Q 2550 3084 2163 3084 
Q 1697 3084 1428 2787 
Q 1159 2491 1159 1978 
L 1159 0 
L 581 0 
L 581 3500 
L 1159 3500 
L 1159 2956 
Q 1366 3272 1645 3428 
Q 1925 3584 2291 3584 
Q 2894 3584 3203 3211 
Q 3513 2838 3513 2113 
z
" transform="scale(0.015625)"/>
       <path id="DejaVuSans-79" d="M 2059 -325 
Q 1816 -950 1584 -1140 
Q 1353 -1331 966 -1331 
L 506 -1331 
L 506 -850 
L 844 -850 
Q 1081 -850 1212 -737 
Q 1344 -625 1503 -206 
L 1606 56 
L 191 3500 
L 800 3500 
L 1894 763 
L 2988 3500 
L 3597 3500 
L 2059 -325 
z
" transform="scale(0.015625)"/>
      </defs>
      <use xlink:href="#DejaVuSans-4c"/>
      <use xlink:href="#DejaVuSans-69" x="55.712891"/>
      <use xlink:href="#DejaVuSans-66" x="83.496094"/>
      <use xlink:href="#DejaVuSans-65" x="118.701172"/>
      <use xlink:href="#DejaVuSans-20" x="180.224609"/>
      <use xlink:href="#DejaVuSans-45" x="212.011719"/>
      <use xlink:href="#DejaVuSans-78" x="275.195312"/>
      <use xlink:href="#DejaVuSans-70" x="334.375"/>
      <use xlink:href="#DejaVuSans-65" x="397.851562"/>
      <use xlink:href="#DejaVuSans-63" x="459.375"/>
      <use xlink:href="#DejaVuSans-74" x="514.355469"/>
      <use xlink:href="#DejaVuSans-61" x="553.564453"/>
      <use xlink:href="#DejaVuSans-6e" x="614.84375"/>
      <use xlink:href="#DejaVuSans-63" x="678.222656"/>
      <use xlink:href="#DejaVuSans-79" x="733.203125"/>
     </g>
    </g>
   </g>
   <g id="matplotlib.axis_2">
    <g id="ytick_1">
     <g id="line2d_10">
      <defs>
       <path id="m884a83373d" d="M 0 0 
L -3.5 0 
" style="stroke: #000000; stroke-width: 0.8"/>
      </defs>
      <g>
       <use xlink:href="#m884a83373d" x="57.6" y="264.611316" style="stroke: #000000; stroke-width: 0.8"/>
      </g>
     </g>
     <g id="text_11">
      <!-- 10 -->
      <g transform="translate(37.875 268.410535) scale(0.1 -0.1)">
       <defs>
        <path id="DejaVuSans-31" d="M 794 531 
L 1825 531 
L 1825 4091 
L 703 3866 
L 703 4441 
L 1819 4666 
L 2450 4666 
L 2450 531 
L 3481 531 
L 3481 0 
L 794 0 
L 794 531 
z
" transform="scale(0.015625)"/>
       </defs>
       <use xlink:href="#DejaVuSans-31"/>
       <use xlink:href="#DejaVuSans-30" x="63.623047"/>
      </g>
     </g>
    </g>
    <g id="ytick_2">
     <g id="line2d_11">
      <g>
       <use xlink:href="#m884a83373d" x="57.6" y="209.291178" style="stroke: #000000; stroke-width: 0.8"/>
      </g>
     </g>
     <g id="text_12">
      <!-- 15 -->
      <g transform="translate(37.875 213.090397) scale(0.1 -0.1)">
       <use xlink:href="#DejaVuSans-31"/>
       <use xlink:href="#DejaVuSans-35" x="63.623047"/>
      </g>
     </g>
    </g>
    <g id="ytick_3">
     <g id="line2d_12">
      <g>
       <use xlink:href="#m884a83373d" x="57.6" y="153.971041" style="stroke: #000000; stroke-width: 0.8"/>
      </g>
     </g>
     <g id="text_13">
      <!-- 20 -->
      <g transform="translate(37.875 157.77026) scale(0.1 -0.1)">
       <use xlink:href="#DejaVuSans-32"/>
       <use xlink:href="#DejaVuSans-30" x="63.623047"/>
      </g>
     </g>
    </g>
    <g id="ytick_4">
     <g id="line2d_13">
      <g>
       <use xlink:href="#m884a83373d" x="57.6" y="98.650903" style="stroke: #000000; stroke-width: 0.8"/>
      </g>
     </g>
     <g id="text_14">
      <!-- 25 -->
      <g transform="translate(37.875 102.450122) scale(0.1 -0.1)">
       <use xlink:href="#DejaVuSans-32"/>
       <use xlink:href="#DejaVuSans-35" x="63.623047"/>
      </g>
     </g>
    </g>
    <g id="ytick_5">
     <g id="line2d_14">
      <g>
       <use xlink:href="#m884a83373d" x="57.6" y="43.330766" style="stroke: #000000; stroke-width: 0.8"/>
      </g>
     </g>
     <g id="text_15">
      <!-- 30 -->
      <g transform="translate(37.875 47.129985) scale(0.1 -0.1)">
       <defs>
        <path id="DejaVuSans-33" d="M 2597 2516 
Q 3050 2419 3304 2112 
Q 3559 1806 3559 1356 
Q 3559 666 3084 287 
Q 2609 -91 1734 -91 
Q 1441 -91 1130 -33 
Q 819 25 488 141 
L 488 750 
Q 750 597 1062 519 
Q 1375 441 1716 441 
Q 2309 441 2620 675 
Q 2931 909 2931 1356 
Q 2931 1769 2642 2001 
Q 2353 2234 1838 2234 
L 1294 2234 
L 1294 2753 
L 1863 2753 
Q 2328 2753 2575 2939 
Q 2822 3125 2822 3475 
Q 2822 3834 2567 4026 
Q 2313 4219 1838 4219 
Q 1578 4219 1281 4162 
Q 984 4106 628 3988 
L 628 4550 
Q 988 4650 1302 4700 
Q 1616 4750 1894 4750 
Q 2613 4750 3031 4423 
Q 3450 4097 3450 3541 
Q 3450 3153 3228 2886 
Q 3006 2619 2597 2516 
z
" transform="scale(0.015625)"/>
       </defs>
       <use xlink:href="#DejaVuSans-33"/>
       <use xlink:href="#DejaVuSans-30" x="63.623047"/>
      </g>
     </g>
    </g>
    <g id="text_16">
     <!-- Smoking Prevalence -->
     <g transform="translate(31.795312 225.278781) rotate(-90) scale(0.1 -0.1)">
      <defs>
       <path id="DejaVuSans-53" d="M 3425 4513 
L 3425 3897 
Q 3066 4069 2747 4153 
Q 2428 4238 2131 4238 
Q 1616 4238 1336 4038 
Q 1056 3838 1056 3469 
Q 1056 3159 1242 3001 
Q 1428 2844 1947 2747 
L 2328 2669 
Q 3034 2534 3370 2195 
Q 3706 1856 3706 1288 
Q 3706 609 3251 259 
Q 2797 -91 1919 -91 
Q 1588 -91 1214 -16 
Q 841 59 441 206 
L 441 856 
Q 825 641 1194 531 
Q 1563 422 1919 422 
Q 2459 422 2753 634 
Q 3047 847 3047 1241 
Q 3047 1584 2836 1778 
Q 2625 1972 2144 2069 
L 1759 2144 
Q 1053 2284 737 2584 
Q 422 2884 422 3419 
Q 422 4038 858 4394 
Q 1294 4750 2059 4750 
Q 2388 4750 2728 4690 
Q 3069 4631 3425 4513 
z
" transform="scale(0.015625)"/>
       <path id="DejaVuSans-6d" d="M 3328 2828 
Q 3544 3216 3844 3400 
Q 4144 3584 4550 3584 
Q 5097 3584 5394 3201 
Q 5691 2819 5691 2113 
L 5691 0 
L 5113 0 
L 5113 2094 
Q 5113 2597 4934 2840 
Q 4756 3084 4391 3084 
Q 3944 3084 3684 2787 
Q 3425 2491 3425 1978 
L 3425 0 
L 2847 0 
L 2847 2094 
Q 2847 2600 2669 2842 
Q 2491 3084 2119 3084 
Q 1678 3084 1418 2786 
Q 1159 2488 1159 1978 
L 1159 0 
L 581 0 
L 581 3500 
L 1159 3500 
L 1159 2956 
Q 1356 3278 1631 3431 
Q 1906 3584 2284 3584 
Q 2666 3584 2933 3390 
Q 3200 3197 3328 2828 
z
" transform="scale(0.015625)"/>
       <path id="DejaVuSans-6f" d="M 1959 3097 
Q 1497 3097 1228 2736 
Q 959 2375 959 1747 
Q 959 1119 1226 758 
Q 1494 397 1959 397 
Q 2419 397 2687 759 
Q 2956 1122 2956 1747 
Q 2956 2369 2687 2733 
Q 2419 3097 1959 3097 
z
M 1959 3584 
Q 2709 3584 3137 3096 
Q 3566 2609 3566 1747 
Q 3566 888 3137 398 
Q 2709 -91 1959 -91 
Q 1206 -91 779 398 
Q 353 888 353 1747 
Q 353 2609 779 3096 
Q 1206 3584 1959 3584 
z
" transform="scale(0.015625)"/>
       <path id="DejaVuSans-6b" d="M 581 4863 
L 1159 4863 
L 1159 1991 
L 2875 3500 
L 3609 3500 
L 1753 1863 
L 3688 0 
L 2938 0 
L 1159 1709 
L 1159 0 
L 581 0 
L 581 4863 
z
" transform="scale(0.015625)"/>
       <path id="DejaVuSans-67" d="M 2906 1791 
Q 2906 2416 2648 2759 
Q 2391 3103 1925 3103 
Q 1463 3103 1205 2759 
Q 947 2416 947 1791 
Q 947 1169 1205 825 
Q 1463 481 1925 481 
Q 2391 481 2648 825 
Q 2906 1169 2906 1791 
z
M 3481 434 
Q 3481 -459 3084 -895 
Q 2688 -1331 1869 -1331 
Q 1566 -1331 1297 -1286 
Q 1028 -1241 775 -1147 
L 775 -588 
Q 1028 -725 1275 -790 
Q 1522 -856 1778 -856 
Q 2344 -856 2625 -561 
Q 2906 -266 2906 331 
L 2906 616 
Q 2728 306 2450 153 
Q 2172 0 1784 0 
Q 1141 0 747 490 
Q 353 981 353 1791 
Q 353 2603 747 3093 
Q 1141 3584 1784 3584 
Q 2172 3584 2450 3431 
Q 2728 3278 2906 2969 
L 2906 3500 
L 3481 3500 
L 3481 434 
z
" transform="scale(0.015625)"/>
       <path id="DejaVuSans-50" d="M 1259 4147 
L 1259 2394 
L 2053 2394 
Q 2494 2394 2734 2622 
Q 2975 2850 2975 3272 
Q 2975 3691 2734 3919 
Q 2494 4147 2053 4147 
L 1259 4147 
z
M 628 4666 
L 2053 4666 
Q 2838 4666 3239 4311 
Q 3641 3956 3641 3272 
Q 3641 2581 3239 2228 
Q 2838 1875 2053 1875 
L 1259 1875 
L 1259 0 
L 628 0 
L 628 4666 
z
" transform="scale(0.015625)"/>
       <path id="DejaVuSans-72" d="M 2631 2963 
Q 2534 3019 2420 3045 
Q 2306 3072 2169 3072 
Q 1681 3072 1420 2755 
Q 1159 2438 1159 1844 
L 1159 0 
L 581 0 
L 581 3500 
L 1159 3500 
L 1159 2956 
Q 1341 3275 1631 3429 
Q 1922 3584 2338 3584 
Q 2397 3584 2469 3576 
Q 2541 3569 2628 3553 
L 2631 2963 
z
" transform="scale(0.015625)"/>
       <path id="DejaVuSans-76" d="M 191 3500 
L 800 3500 
L 1894 563 
L 2988 3500 
L 3597 3500 
L 2284 0 
L 1503 0 
L 191 3500 
z
" transform="scale(0.015625)"/>
       <path id="DejaVuSans-6c" d="M 603 4863 
L 1178 4863 
L 1178 0 
L 603 0 
L 603 4863 
z
" transform="scale(0.015625)"/>
      </defs>
      <use xlink:href="#DejaVuSans-53"/>
      <use xlink:href="#DejaVuSans-6d" x="63.476562"/>
      <use xlink:href="#DejaVuSans-6f" x="160.888672"/>
      <use xlink:href="#DejaVuSans-6b" x="222.070312"/>
      <use xlink:href="#DejaVuSans-69" x="279.980469"/>
      <use xlink:href="#DejaVuSans-6e" x="307.763672"/>
      <use xlink:href="#DejaVuSans-67" x="371.142578"/>
      <use xlink:href="#DejaVuSans-20" x="434.619141"/>
      <use xlink:href="#DejaVuSans-50" x="466.40625"/>
      <use xlink:href="#DejaVuSans-72" x="524.958984"/>
      <use xlink:href="#DejaVuSans-65" x="563.822266"/>
      <use xlink:href="#DejaVuSans-76" x="625.345703"/>
      <use xlink:href="#DejaVuSans-61" x="684.525391"/>
      <use xlink:href="#DejaVuSans-6c" x="745.804688"/>
      <use xlink:href="#DejaVuSans-65" x="773.587891"/>
      <use xlink:href="#DejaVuSans-6e" x="835.111328"/>
      <use xlink:href="#DejaVuSans-63" x="898.490234"/>
      <use xlink:href="#DejaVuSans-65" x="953.470703"/>
     </g>
    </g>
   </g>
   <g id="PathCollection_8"/>
   <g id="PathCollection_9">
    <path d="M 57.6 177.032787 
L 61.207273 177.032787 
L 64.814545 177.032787 
L 68.421818 177.032787 
L 72.029091 177.032787 
L 75.636364 177.032787 
L 79.243636 177.032787 
L 82.850909 177.032787 
L 86.458182 177.032787 
L 90.065455 177.032787 
L 93.672727 177.032787 
L 97.28 177.032787 
L 100.887273 177.032787 
L 104.494545 177.032787 
L 108.101818 177.032787 
L 111.709091 177.032787 
L 115.316364 177.032787 
L 118.923636 177.032787 
L 122.530909 177.032787 
L 126.138182 177.032787 
L 129.745455 177.032787 
L 133.352727 177.032787 
L 136.96 177.032787 
L 140.567273 177.032787 
L 144.174545 177.032787 
L 147.781818 177.032787 
L 151.389091 177.032787 
L 154.996364 177.032787 
L 158.603636 177.032787 
L 162.210909 177.032787 
L 164.019085 178.56 
L 164.019085 181.248 
L 164.019085 183.936 
L 164.019085 186.624 
L 164.019085 189.312 
L 165.646899 192 
L 165.818182 192.10735 
L 169.425455 194.513717 
L 169.872099 194.688 
L 173.032727 195.251072 
L 176.64 195.251072 
L 180.247273 196.64626 
L 183.854545 196.64626 
L 186.466986 197.376 
L 186.466986 200.064 
L 186.466986 202.752 
L 186.466986 205.44 
L 186.466986 208.128 
L 186.466986 210.816 
L 187.461818 211.451737 
L 188.302163 213.504 
L 188.302163 216.192 
L 188.302163 217.121402 
" clip-path="url(#p00769e773a)" style="fill: none; stroke: #000000; stroke-width: 0.5"/>
    <path d="M 189.182482 252.957978 
L 189.182482 253.824 
L 189.182482 256.512 
L 189.182482 259.2 
L 189.182482 261.888 
L 189.182482 264.576 
L 189.182482 267.264 
L 189.182482 269.952 
L 189.182482 272.64 
L 189.182482 275.328 
L 189.182482 278.016 
L 189.182482 280.704 
L 189.182482 283.392 
L 189.182482 286.08 
L 189.182482 288.768 
L 189.182482 291.456 
L 189.182482 294.144 
L 189.182482 296.832 
L 189.182482 299.52 
L 189.182482 302.208 
L 189.182482 304.896 
L 189.182482 307.584 
" clip-path="url(#p00769e773a)" style="fill: none; stroke: #000000; stroke-width: 0.5"/>
   </g>
   <g id="PathCollection_10">
    <path d="M 177.637265 41.472 
L 177.637265 44.16 
L 177.637265 46.848 
L 177.637265 49.536 
L 177.637265 52.224 
L 177.637265 54.912 
L 177.637265 57.6 
L 177.637265 60.288 
L 177.637265 62.976 
L 176.64 63.879686 
L 173.032727 63.879686 
L 169.425455 65.385332 
L 169.034925 65.664 
L 169.034925 66.525 
" clip-path="url(#p00769e773a)" style="fill: none; stroke: #000000; stroke-width: 0.5"/>
    <path d="M 169.034925 102.435 
L 169.034925 103.296 
L 169.034925 105.984 
L 169.034925 108.672 
L 169.034925 111.36 
L 169.034925 114.048 
L 169.034925 116.736 
L 169.034925 119.424 
L 169.034925 122.112 
L 169.034925 124.8 
L 169.034925 127.488 
L 169.034925 130.176 
L 169.425455 130.87559 
L 171.323062 132.864 
L 171.323062 135.552 
L 171.323062 138.24 
L 171.323062 140.928 
L 173.032727 142.626079 
L 176.64 142.626079 
L 177.099083 143.616 
L 177.099083 146.304 
L 177.099083 148.992 
L 177.099083 151.68 
L 180.247273 153.261837 
L 183.854545 153.261837 
L 186.902793 154.368 
L 187.461818 154.638559 
L 188.768828 157.056 
L 188.768828 159.744 
L 189.234055 162.432 
L 189.234055 165.12 
L 189.234055 167.808 
L 191.069091 170.333604 
L 191.2024 170.496 
L 191.985181 173.184 
L 191.985181 175.872 
L 192.948993 178.56 
L 192.948993 181.248 
L 192.948993 183.936 
L 192.948993 186.624 
L 192.948993 189.312 
L 193.44197 192 
L 194.676364 194.554587 
L 194.874334 194.688 
L 198.283636 195.736964 
L 201.890909 195.736964 
L 205.498182 195.736964 
L 209.105455 195.736964 
L 212.712727 195.736964 
L 216.32 195.736964 
L 219.927273 196.338105 
L 223.534545 196.338105 
L 227.141818 196.338105 
L 230.749091 196.338105 
L 234.356364 196.338105 
L 237.963636 196.338105 
L 241.570909 196.830238 
L 245.178182 196.830238 
L 248.785455 196.830238 
L 252.392727 196.830238 
L 256 196.830238 
L 257.757299 197.376 
L 257.757299 200.064 
L 257.757299 202.752 
L 257.757299 205.44 
L 257.757299 208.128 
L 257.757299 210.816 
L 259.607273 212.130404 
L 263.214545 212.130404 
L 266.821818 212.130404 
L 270.429091 212.130404 
L 274.036364 212.130404 
L 277.643636 212.130404 
L 281.250909 212.130404 
L 284.858182 212.130404 
L 285.852024 213.504 
L 285.852024 216.192 
L 285.852024 218.88 
L 285.852024 221.568 
L 286.059365 224.256 
L 286.059365 226.944 
L 286.059365 229.632 
L 286.059365 232.32 
L 286.059365 235.008 
L 286.059365 237.696 
L 286.059365 240.384 
L 286.059365 243.072 
L 286.059365 245.76 
L 286.349847 248.448 
L 286.349847 251.136 
L 286.349847 253.824 
L 286.349847 256.512 
L 286.349847 259.2 
L 286.349847 261.888 
L 286.349847 264.576 
L 286.349847 267.264 
L 286.349847 269.952 
L 286.349847 272.64 
L 286.349847 275.328 
L 286.349847 278.016 
L 286.349847 280.704 
L 286.349847 283.392 
L 286.349847 286.08 
L 286.349847 288.768 
L 286.349847 291.456 
L 286.349847 294.144 
L 286.349847 296.832 
L 286.349847 299.52 
L 286.349847 302.208 
L 286.349847 304.896 
L 286.349847 307.584 
" clip-path="url(#p00769e773a)" style="fill: none; stroke: #000000; stroke-width: 0.5"/>
   </g>
   <g id="PathCollection_11">
    <path d="M 197.95804 41.472 
L 197.95804 44.16 
L 197.95804 46.848 
L 197.95804 49.536 
L 197.95804 52.224 
L 197.95804 54.912 
L 197.95804 57.6 
L 197.95804 60.288 
L 197.95804 62.976 
L 194.676364 65.341614 
L 194.530731 65.664 
L 194.530731 68.352 
L 194.530731 71.04 
L 194.530731 73.728 
L 194.530731 76.416 
L 194.530731 79.104 
L 194.530731 81.792 
L 194.530731 84.48 
L 194.530731 87.168 
L 194.530731 89.856 
L 194.530731 92.544 
L 194.530731 95.232 
L 194.530731 97.92 
L 194.530731 100.608 
L 194.530731 103.296 
L 194.530731 105.984 
L 194.530731 108.672 
L 194.530731 111.36 
L 194.530731 114.048 
L 194.530731 116.736 
L 194.530731 119.424 
L 194.530731 122.112 
L 194.530731 124.8 
L 194.530731 127.488 
L 194.530731 130.176 
L 194.676364 130.985341 
L 195.714475 132.864 
L 195.714475 135.552 
L 195.714475 138.24 
L 195.714475 140.928 
L 197.281508 143.616 
L 197.281508 146.304 
L 197.281508 148.992 
L 197.281508 151.68 
L 198.283636 152.080558 
L 201.890909 152.080558 
L 205.498182 152.080558 
L 209.105455 152.080558 
L 212.712727 152.080558 
L 216.32 152.080558 
L 219.927273 152.861509 
L 223.534545 152.861509 
L 227.141818 152.861509 
L 230.749091 152.861509 
L 234.356364 152.861509 
L 237.963636 152.861509 
L 241.570909 153.500846 
L 245.178182 153.500846 
L 248.785455 153.500846 
L 252.392727 153.500846 
L 256 153.500846 
L 258.149274 154.368 
L 259.607273 155.152553 
L 263.214545 155.152553 
L 266.821818 155.152553 
L 270.429091 155.152553 
L 274.036364 155.152553 
L 277.643636 155.152553 
L 281.250909 155.152553 
L 284.858182 155.152553 
L 286.676615 157.056 
L 286.676615 159.744 
L 287.498666 162.432 
L 287.498666 165.12 
L 287.498666 167.808 
L 288.465455 168.561041 
L 292.072727 168.561041 
L 295.68 168.561041 
L 299.287273 168.561041 
L 302.894545 168.561041 
L 306.501818 168.561041 
L 306.924093 170.496 
L 307.132196 173.184 
L 307.132196 175.872 
L 307.388426 178.56 
L 307.388426 181.248 
L 307.388426 183.936 
L 307.388426 186.624 
L 307.388426 189.312 
L 307.519484 192 
L 307.864788 194.688 
L 308.131745 195.636787 
" clip-path="url(#p00769e773a)" style="fill: none; stroke: #000000; stroke-width: 0.5"/>
    <path d="M 308.986944 231.458769 
L 308.986944 232.32 
L 308.986944 235.008 
L 308.986944 237.696 
L 308.986944 240.384 
L 308.986944 243.072 
L 308.986944 245.76 
L 309.036322 248.448 
L 309.036322 251.136 
L 309.036322 253.824 
L 309.036322 256.512 
L 309.036322 259.2 
L 309.036322 261.888 
L 309.036322 264.576 
L 309.036322 267.264 
L 309.036322 269.952 
L 309.036322 272.64 
L 309.036322 275.328 
L 309.036322 278.016 
L 309.036322 280.704 
L 309.036322 283.392 
L 309.036322 286.08 
L 309.036322 288.768 
L 309.036322 291.456 
L 309.036322 294.144 
L 309.036322 296.832 
L 309.036322 299.52 
L 309.036322 302.208 
L 309.036322 304.896 
L 309.036322 307.584 
" clip-path="url(#p00769e773a)" style="fill: none; stroke: #000000; stroke-width: 0.5"/>
   </g>
   <g id="PathCollection_12">
    <path d="M 307.986385 41.472 
L 307.986385 44.16 
L 307.986385 46.848 
L 307.986385 49.536 
L 307.986385 52.224 
L 307.986385 54.912 
L 307.986385 57.6 
L 307.986385 60.288 
L 307.986385 62.976 
L 307.692362 65.664 
L 307.692362 68.352 
L 307.692362 71.04 
L 307.692362 73.728 
L 307.692362 74.589 
" clip-path="url(#p00769e773a)" style="fill: none; stroke: #000000; stroke-width: 0.5"/>
    <path d="M 307.692362 110.499 
L 307.692362 111.36 
L 307.692362 114.048 
L 307.692362 116.736 
L 307.692362 119.424 
L 307.692362 122.112 
L 307.692362 124.8 
L 307.692362 127.488 
L 307.692362 130.176 
L 307.80948 132.864 
L 307.80948 135.552 
L 307.80948 138.24 
L 307.80948 140.928 
L 307.93304 143.616 
L 308.073177 146.304 
L 308.073177 148.992 
L 308.073177 151.68 
L 308.655356 154.368 
L 309.091867 157.056 
L 309.091867 159.744 
L 309.231603 162.432 
L 309.231603 165.12 
L 309.231603 167.808 
L 309.818217 170.496 
L 310.02632 173.184 
L 310.02632 175.872 
L 310.109091 176.740313 
L 313.716364 176.740313 
L 317.323636 176.740313 
L 318.367814 178.56 
L 318.367814 181.248 
L 318.367814 183.936 
L 318.367814 186.624 
L 318.367814 189.312 
L 319.15675 192 
L 320.930909 194.29427 
L 324.538182 194.29427 
L 324.900265 194.688 
L 328.145455 196.299119 
L 331.752727 196.299119 
L 335.36 196.299119 
L 337.947333 197.376 
L 337.947333 200.064 
L 337.947333 202.752 
L 337.947333 205.44 
L 337.947333 208.128 
L 337.947333 210.816 
L 338.967273 211.787171 
L 339.200743 213.504 
L 339.200743 216.192 
L 339.200743 218.88 
L 339.200743 221.568 
L 339.239713 224.256 
L 339.239713 226.944 
L 339.239713 229.632 
L 339.239713 232.32 
L 339.239713 235.008 
L 339.239713 237.696 
L 339.239713 240.384 
L 339.239713 243.072 
L 339.239713 245.76 
L 339.29431 248.448 
L 339.29431 251.136 
L 339.29431 253.824 
L 339.29431 256.512 
L 339.29431 259.2 
L 339.29431 261.888 
L 339.29431 264.576 
L 339.29431 267.264 
L 339.29431 269.952 
L 339.29431 272.64 
L 339.29431 275.328 
L 339.29431 278.016 
L 339.29431 280.704 
L 339.29431 283.392 
L 339.29431 286.08 
L 339.29431 288.768 
L 339.29431 291.456 
L 339.29431 294.144 
L 339.29431 296.832 
L 339.29431 299.52 
L 339.29431 302.208 
L 339.29431 304.896 
L 339.29431 307.584 
" clip-path="url(#p00769e773a)" style="fill: none; stroke: #000000; stroke-width: 0.5"/>
   </g>
   <g id="PathCollection_13">
    <path d="M 320.716202 41.472 
L 320.716202 44.16 
L 320.716202 46.848 
L 320.716202 49.536 
L 320.716202 52.224 
L 320.716202 54.912 
L 320.716202 57.6 
L 320.716202 60.288 
L 320.716202 62.976 
L 318.772961 65.664 
L 318.772961 68.352 
L 318.772961 71.04 
L 318.772961 73.728 
L 318.772961 76.416 
L 318.772961 79.104 
L 318.772961 81.792 
L 318.772961 84.48 
L 318.772961 87.168 
L 318.772961 89.856 
L 318.772961 92.544 
L 318.772961 95.232 
L 318.772961 97.92 
L 318.772961 100.608 
L 318.772961 103.296 
L 318.772961 105.984 
L 318.772961 108.672 
L 318.772961 111.36 
L 318.772961 114.048 
L 318.772961 116.736 
L 318.772961 119.424 
L 318.772961 122.112 
L 318.772961 124.8 
L 318.772961 127.488 
L 318.772961 130.176 
L 319.547014 132.864 
L 319.547014 135.552 
L 319.547014 138.24 
L 319.547014 140.928 
L 320.363641 143.616 
L 320.930909 144.333159 
L 324.538182 144.333159 
L 326.392079 146.304 
L 326.392079 148.992 
L 326.392079 151.68 
L 328.145455 152.810862 
L 331.752727 152.810862 
L 335.36 152.810862 
L 338.239816 154.368 
L 338.967273 154.892602 
L 339.355726 157.056 
L 339.355726 159.744 
L 339.510232 162.432 
L 339.510232 165.12 
L 339.510232 167.808 
L 340.158849 170.496 
L 340.388949 173.184 
L 340.388949 175.872 
L 340.672262 178.56 
L 340.672262 181.248 
L 340.672262 183.936 
L 340.672262 186.624 
L 340.672262 189.312 
L 340.817173 192 
L 341.198974 194.688 
L 342.03523 197.376 
L 342.03523 200.064 
L 342.03523 202.752 
L 342.03523 205.44 
L 342.03523 208.128 
L 342.03523 210.816 
L 342.400769 213.504 
L 342.400769 216.192 
L 342.400769 218.88 
L 342.400769 221.568 
L 342.439739 224.256 
L 342.439739 226.944 
L 342.439739 229.632 
L 342.439739 232.32 
L 342.439739 235.008 
L 342.439739 237.696 
L 342.439739 240.384 
L 342.439739 243.072 
L 342.439739 245.76 
L 342.494336 248.448 
L 342.494336 251.136 
L 342.494336 253.824 
L 342.494336 256.512 
L 342.494336 259.2 
L 342.494336 261.888 
L 342.494336 264.576 
L 342.494336 267.264 
L 342.494336 268.125 
" clip-path="url(#p00769e773a)" style="fill: none; stroke: #000000; stroke-width: 0.5"/>
    <path d="M 342.494336 304.035 
L 342.494336 304.896 
L 342.494336 307.584 
" clip-path="url(#p00769e773a)" style="fill: none; stroke: #000000; stroke-width: 0.5"/>
   </g>
   <g id="PathCollection_14">
    <path d="M 341.103612 41.472 
L 341.103612 44.16 
L 341.103612 46.848 
L 341.103612 49.536 
L 341.103612 52.224 
L 341.103612 54.912 
L 341.103612 57.6 
L 341.103612 60.288 
L 341.103612 62.976 
L 340.746679 65.664 
L 340.746679 68.352 
L 340.746679 71.04 
L 340.746679 73.728 
L 340.746679 76.416 
L 340.746679 79.104 
L 340.746679 81.792 
L 340.746679 84.48 
L 340.746679 87.168 
L 340.746679 89.856 
L 340.746679 92.544 
L 340.746679 95.232 
L 340.746679 97.92 
L 340.746679 100.608 
L 340.746679 103.296 
L 340.746679 105.984 
L 340.746679 108.672 
L 340.746679 111.36 
L 340.746679 114.048 
L 340.746679 116.736 
L 340.746679 119.424 
L 340.746679 122.112 
L 340.746679 124.8 
L 340.746679 127.488 
L 340.746679 130.176 
L 340.888856 132.864 
L 340.888856 135.552 
L 340.888856 138.24 
L 340.888856 140.928 
L 341.038853 143.616 
L 341.42939 146.304 
L 341.42939 148.992 
L 341.42939 151.68 
L 342.073103 154.368 
L 342.555752 157.056 
L 342.555752 159.744 
L 342.574545 160.07095 
L 343.957584 162.432 
L 343.957584 165.12 
L 343.957584 167.808 
L 346.181818 168.712499 
L 349.789091 168.712499 
L 353.396364 168.712499 
L 357.003636 168.712499 
L 360.610909 168.712499 
L 360.692273 168.712499 
" clip-path="url(#p00769e773a)" style="fill: none; stroke: #000000; stroke-width: 0.5"/>
    <path d="M 396.602273 168.712499 
L 396.683636 168.712499 
L 400.290909 168.712499 
L 403.898182 168.712499 
L 407.505455 168.712499 
L 411.112727 168.712499 
L 414.72 168.712499 
" clip-path="url(#p00769e773a)" style="fill: none; stroke: #000000; stroke-width: 0.5"/>
   </g>
   <g id="PathCollection_15"/>
   <g id="LineCollection_1">
    <path d="M 85.987334 307.584 
L 85.987334 294.2784 
" clip-path="url(#p00769e773a)" style="fill: none; stroke: #000000; stroke-width: 1.5"/>
    <path d="M 129.70583 307.584 
L 129.70583 294.2784 
" clip-path="url(#p00769e773a)" style="fill: none; stroke: #000000; stroke-width: 1.5"/>
    <path d="M 182.470912 307.584 
L 182.470912 294.2784 
" clip-path="url(#p00769e773a)" style="fill: none; stroke: #000000; stroke-width: 1.5"/>
    <path d="M 231.640043 307.584 
L 231.640043 294.2784 
" clip-path="url(#p00769e773a)" style="fill: none; stroke: #000000; stroke-width: 1.5"/>
    <path d="M 258.939918 307.584 
L 258.939918 294.2784 
" clip-path="url(#p00769e773a)" style="fill: none; stroke: #000000; stroke-width: 1.5"/>
    <path d="M 295.613285 307.584 
L 295.613285 294.2784 
" clip-path="url(#p00769e773a)" style="fill: none; stroke: #000000; stroke-width: 1.5"/>
    <path d="M 321.692271 307.584 
L 321.692271 294.2784 
" clip-path="url(#p00769e773a)" style="fill: none; stroke: #000000; stroke-width: 1.5"/>
    <path d="M 358.005376 307.584 
L 358.005376 294.2784 
" clip-path="url(#p00769e773a)" style="fill: none; stroke: #000000; stroke-width: 1.5"/>
    <path d="M 401.870645 307.584 
L 401.870645 294.2784 
" clip-path="url(#p00769e773a)" style="fill: none; stroke: #000000; stroke-width: 1.5"/>
   </g>
   <g id="LineCollection_2">
    <path clip-path="url(#p00769e773a)" style="fill: none; stroke: #000000; stroke-width: 1.5"/>
    <path clip-path="url(#p00769e773a)" style="fill: none; stroke: #000000; stroke-width: 1.5"/>
    <path clip-path="url(#p00769e773a)" style="fill: none; stroke: #000000; stroke-width: 1.5"/>
    <path clip-path="url(#p00769e773a)" style="fill: none; stroke: #000000; stroke-width: 1.5"/>
    <path clip-path="url(#p00769e773a)" style="fill: none; stroke: #000000; stroke-width: 1.5"/>
    <path clip-path="url(#p00769e773a)" style="fill: none; stroke: #000000; stroke-width: 1.5"/>
    <path clip-path="url(#p00769e773a)" style="fill: none; stroke: #000000; stroke-width: 1.5"/>
    <path clip-path="url(#p00769e773a)" style="fill: none; stroke: #000000; stroke-width: 1.5"/>
    <path clip-path="url(#p00769e773a)" style="fill: none; stroke: #000000; stroke-width: 1.5"/>
   </g>
   <g id="patch_3">
    <path d="M 57.6 307.584 
L 57.6 41.472 
" style="fill: none; stroke: #000000; stroke-width: 0.8; stroke-linejoin: miter; stroke-linecap: square"/>
   </g>
   <g id="patch_4">
    <path d="M 414.72 307.584 
L 414.72 41.472 
" style="fill: none; stroke: #000000; stroke-width: 0.8; stroke-linejoin: miter; stroke-linecap: square"/>
   </g>
   <g id="patch_5">
    <path d="M 57.6 307.584 
L 414.72 307.584 
" style="fill: none; stroke: #000000; stroke-width: 0.8; stroke-linejoin: miter; stroke-linecap: square"/>
   </g>
   <g id="patch_6">
    <path d="M 57.6 41.472 
L 414.72 41.472 
" style="fill: none; stroke: #000000; stroke-width: 0.8; stroke-linejoin: miter; stroke-linecap: square"/>
   </g>
   <g id="text_17">
    <!-- 2D-partial dependency plot between LE and Smoking -->
    <g transform="translate(75.897188 35.472) scale(0.12 -0.12)">
     <defs>
      <path id="DejaVuSans-44" d="M 1259 4147 
L 1259 519 
L 2022 519 
Q 2988 519 3436 956 
Q 3884 1394 3884 2338 
Q 3884 3275 3436 3711 
Q 2988 4147 2022 4147 
L 1259 4147 
z
M 628 4666 
L 1925 4666 
Q 3281 4666 3915 4102 
Q 4550 3538 4550 2338 
Q 4550 1131 3912 565 
Q 3275 0 1925 0 
L 628 0 
L 628 4666 
z
" transform="scale(0.015625)"/>
      <path id="DejaVuSans-2d" d="M 313 2009 
L 1997 2009 
L 1997 1497 
L 313 1497 
L 313 2009 
z
" transform="scale(0.015625)"/>
      <path id="DejaVuSans-64" d="M 2906 2969 
L 2906 4863 
L 3481 4863 
L 3481 0 
L 2906 0 
L 2906 525 
Q 2725 213 2448 61 
Q 2172 -91 1784 -91 
Q 1150 -91 751 415 
Q 353 922 353 1747 
Q 353 2572 751 3078 
Q 1150 3584 1784 3584 
Q 2172 3584 2448 3432 
Q 2725 3281 2906 2969 
z
M 947 1747 
Q 947 1113 1208 752 
Q 1469 391 1925 391 
Q 2381 391 2643 752 
Q 2906 1113 2906 1747 
Q 2906 2381 2643 2742 
Q 2381 3103 1925 3103 
Q 1469 3103 1208 2742 
Q 947 2381 947 1747 
z
" transform="scale(0.015625)"/>
      <path id="DejaVuSans-62" d="M 3116 1747 
Q 3116 2381 2855 2742 
Q 2594 3103 2138 3103 
Q 1681 3103 1420 2742 
Q 1159 2381 1159 1747 
Q 1159 1113 1420 752 
Q 1681 391 2138 391 
Q 2594 391 2855 752 
Q 3116 1113 3116 1747 
z
M 1159 2969 
Q 1341 3281 1617 3432 
Q 1894 3584 2278 3584 
Q 2916 3584 3314 3078 
Q 3713 2572 3713 1747 
Q 3713 922 3314 415 
Q 2916 -91 2278 -91 
Q 1894 -91 1617 61 
Q 1341 213 1159 525 
L 1159 0 
L 581 0 
L 581 4863 
L 1159 4863 
L 1159 2969 
z
" transform="scale(0.015625)"/>
      <path id="DejaVuSans-77" d="M 269 3500 
L 844 3500 
L 1563 769 
L 2278 3500 
L 2956 3500 
L 3675 769 
L 4391 3500 
L 4966 3500 
L 4050 0 
L 3372 0 
L 2619 2869 
L 1863 0 
L 1184 0 
L 269 3500 
z
" transform="scale(0.015625)"/>
     </defs>
     <use xlink:href="#DejaVuSans-32"/>
     <use xlink:href="#DejaVuSans-44" x="63.623047"/>
     <use xlink:href="#DejaVuSans-2d" x="140.625"/>
     <use xlink:href="#DejaVuSans-70" x="176.708984"/>
     <use xlink:href="#DejaVuSans-61" x="240.185547"/>
     <use xlink:href="#DejaVuSans-72" x="301.464844"/>
     <use xlink:href="#DejaVuSans-74" x="342.578125"/>
     <use xlink:href="#DejaVuSans-69" x="381.787109"/>
     <use xlink:href="#DejaVuSans-61" x="409.570312"/>
     <use xlink:href="#DejaVuSans-6c" x="470.849609"/>
     <use xlink:href="#DejaVuSans-20" x="498.632812"/>
     <use xlink:href="#DejaVuSans-64" x="530.419922"/>
     <use xlink:href="#DejaVuSans-65" x="593.896484"/>
     <use xlink:href="#DejaVuSans-70" x="655.419922"/>
     <use xlink:href="#DejaVuSans-65" x="718.896484"/>
     <use xlink:href="#DejaVuSans-6e" x="780.419922"/>
     <use xlink:href="#DejaVuSans-64" x="843.798828"/>
     <use xlink:href="#DejaVuSans-65" x="907.275391"/>
     <use xlink:href="#DejaVuSans-6e" x="968.798828"/>
     <use xlink:href="#DejaVuSans-63" x="1032.177734"/>
     <use xlink:href="#DejaVuSans-79" x="1087.158203"/>
     <use xlink:href="#DejaVuSans-20" x="1146.337891"/>
     <use xlink:href="#DejaVuSans-70" x="1178.125"/>
     <use xlink:href="#DejaVuSans-6c" x="1241.601562"/>
     <use xlink:href="#DejaVuSans-6f" x="1269.384766"/>
     <use xlink:href="#DejaVuSans-74" x="1330.566406"/>
     <use xlink:href="#DejaVuSans-20" x="1369.775391"/>
     <use xlink:href="#DejaVuSans-62" x="1401.5625"/>
     <use xlink:href="#DejaVuSans-65" x="1465.039062"/>
     <use xlink:href="#DejaVuSans-74" x="1526.5625"/>
     <use xlink:href="#DejaVuSans-77" x="1565.771484"/>
     <use xlink:href="#DejaVuSans-65" x="1647.558594"/>
     <use xlink:href="#DejaVuSans-65" x="1709.082031"/>
     <use xlink:href="#DejaVuSans-6e" x="1770.605469"/>
     <use xlink:href="#DejaVuSans-20" x="1833.984375"/>
     <use xlink:href="#DejaVuSans-4c" x="1865.771484"/>
     <use xlink:href="#DejaVuSans-45" x="1921.484375"/>
     <use xlink:href="#DejaVuSans-20" x="1984.667969"/>
     <use xlink:href="#DejaVuSans-61" x="2016.455078"/>
     <use xlink:href="#DejaVuSans-6e" x="2077.734375"/>
     <use xlink:href="#DejaVuSans-64" x="2141.113281"/>
     <use xlink:href="#DejaVuSans-20" x="2204.589844"/>
     <use xlink:href="#DejaVuSans-53" x="2236.376953"/>
     <use xlink:href="#DejaVuSans-6d" x="2299.853516"/>
     <use xlink:href="#DejaVuSans-6f" x="2397.265625"/>
     <use xlink:href="#DejaVuSans-6b" x="2458.447266"/>
     <use xlink:href="#DejaVuSans-69" x="2516.357422"/>
     <use xlink:href="#DejaVuSans-6e" x="2544.140625"/>
     <use xlink:href="#DejaVuSans-67" x="2607.519531"/>
    </g>
   </g>
   <g id="text_18">
    <g clip-path="url(#p00769e773a)">
     <!-- 12.21 -->
     <g transform="translate(186.019539 220.742123) rotate(-270.958948) scale(0.1 -0.1)">
      <use xlink:href="#DejaVuSans-31"/>
      <use xlink:href="#DejaVuSans-32" x="63.623047"/>
      <use xlink:href="#DejaVuSans-2e" x="127.246094"/>
      <use xlink:href="#DejaVuSans-32" x="159.033203"/>
      <use xlink:href="#DejaVuSans-31" x="222.65625"/>
     </g>
    </g>
   </g>
   <g id="text_19">
    <g clip-path="url(#p00769e773a)">
     <!-- 12.54 -->
     <g transform="translate(166.27555 70.165938) rotate(-270) scale(0.1 -0.1)">
      <defs>
       <path id="DejaVuSans-34" d="M 2419 4116 
L 825 1625 
L 2419 1625 
L 2419 4116 
z
M 2253 4666 
L 3047 4666 
L 3047 1625 
L 3713 1625 
L 3713 1100 
L 3047 1100 
L 3047 0 
L 2419 0 
L 2419 1100 
L 313 1100 
L 313 1709 
L 2253 4666 
z
" transform="scale(0.015625)"/>
      </defs>
      <use xlink:href="#DejaVuSans-31"/>
      <use xlink:href="#DejaVuSans-32" x="63.623047"/>
      <use xlink:href="#DejaVuSans-2e" x="127.246094"/>
      <use xlink:href="#DejaVuSans-35" x="159.033203"/>
      <use xlink:href="#DejaVuSans-34" x="222.65625"/>
     </g>
    </g>
   </g>
   <g id="text_20">
    <g clip-path="url(#p00769e773a)">
     <!-- 12.87 -->
     <g transform="translate(306.010034 199.226285) rotate(-270.73058) scale(0.1 -0.1)">
      <use xlink:href="#DejaVuSans-31"/>
      <use xlink:href="#DejaVuSans-32" x="63.623047"/>
      <use xlink:href="#DejaVuSans-2e" x="127.246094"/>
      <use xlink:href="#DejaVuSans-38" x="159.033203"/>
      <use xlink:href="#DejaVuSans-37" x="222.65625"/>
     </g>
    </g>
   </g>
   <g id="text_21">
    <g clip-path="url(#p00769e773a)">
     <!-- 13.20 -->
     <g transform="translate(304.932987 78.229938) rotate(-270) scale(0.1 -0.1)">
      <use xlink:href="#DejaVuSans-31"/>
      <use xlink:href="#DejaVuSans-33" x="63.623047"/>
      <use xlink:href="#DejaVuSans-2e" x="127.246094"/>
      <use xlink:href="#DejaVuSans-32" x="159.033203"/>
      <use xlink:href="#DejaVuSans-30" x="222.65625"/>
     </g>
    </g>
   </g>
   <g id="text_22">
    <g clip-path="url(#p00769e773a)">
     <!-- 13.53 -->
     <g transform="translate(339.734961 271.765937) rotate(-270) scale(0.1 -0.1)">
      <use xlink:href="#DejaVuSans-31"/>
      <use xlink:href="#DejaVuSans-33" x="63.623047"/>
      <use xlink:href="#DejaVuSans-2e" x="127.246094"/>
      <use xlink:href="#DejaVuSans-35" x="159.033203"/>
      <use xlink:href="#DejaVuSans-33" x="222.65625"/>
     </g>
    </g>
   </g>
   <g id="text_23">
    <g clip-path="url(#p00769e773a)">
     <!-- 13.86 -->
     <g transform="translate(364.33321 171.471874) scale(0.1 -0.1)">
      <use xlink:href="#DejaVuSans-31"/>
      <use xlink:href="#DejaVuSans-33" x="63.623047"/>
      <use xlink:href="#DejaVuSans-2e" x="127.246094"/>
      <use xlink:href="#DejaVuSans-38" x="159.033203"/>
      <use xlink:href="#DejaVuSans-36" x="222.65625"/>
     </g>
    </g>
   </g>
  </g>
 </g>
 <defs>
  <clipPath id="p00769e773a">
   <rect x="57.6" y="41.472" width="357.12" height="266.112"/>
  </clipPath>
 </defs>
</svg>
