<?xml version="1.0" encoding="utf-8" standalone="no"?>
<!DOCTYPE svg PUBLIC "-//W3C//DTD SVG 1.1//EN"
  "http://www.w3.org/Graphics/SVG/1.1/DTD/svg11.dtd">
<svg xmlns:xlink="http://www.w3.org/1999/xlink" width="460.8pt" height="345.6pt" viewBox="0 0 460.8 345.6" xmlns="http://www.w3.org/2000/svg" version="1.1">
 <metadata>
  <rdf:RDF xmlns:dc="http://purl.org/dc/elements/1.1/" xmlns:cc="http://creativecommons.org/ns#" xmlns:rdf="http://www.w3.org/1999/02/22-rdf-syntax-ns#">
   <cc:Work>
    <dc:type rdf:resource="http://purl.org/dc/dcmitype/StillImage"/>
    <dc:date>2024-03-09T16:46:39.412396</dc:date>
    <dc:format>image/svg+xml</dc:format>
    <dc:creator>
     <cc:Agent>
      <dc:title>Matplotlib v3.7.0, https://matplotlib.org/</dc:title>
     </cc:Agent>
    </dc:creator>
   </cc:Work>
  </rdf:RDF>
 </metadata>
 <defs>
  <style type="text/css">*{stroke-linejoin: round; stroke-linecap: butt}</style>
 </defs>
 <g id="figure_1">
  <g id="patch_1">
   <path d="M 0 345.6 
L 460.8 345.6 
L 460.8 0 
L 0 0 
L 0 345.6 
z
" style="fill: none"/>
  </g>
  <g id="axes_1"/>
  <g id="axes_2">
   <g id="patch_2">
    <path d="M 57.6 307.584 
L 414.72 307.584 
L 414.72 41.472 
L 57.6 41.472 
L 57.6 307.584 
z
" style="fill: none"/>
   </g>
   <g id="PathCollection_1">
    <path d="M 67.347171 304.896 
L 67.347171 302.208 
L 67.347171 299.52 
L 67.347171 296.832 
L 67.347171 294.144 
L 67.347171 291.456 
L 67.347171 288.768 
L 67.347171 286.08 
L 67.347171 283.392 
L 67.347171 280.704 
L 67.347171 278.016 
L 67.347171 275.328 
L 67.347171 272.64 
L 67.347171 269.952 
L 67.347171 267.264 
L 67.347171 264.576 
L 67.347171 261.888 
L 67.347171 259.2 
L 67.347171 256.512 
L 67.347171 253.824 
L 67.347171 251.136 
L 67.347171 248.448 
L 67.347171 245.76 
L 67.347171 243.072 
L 67.347171 240.384 
L 67.347171 237.696 
L 67.347171 235.008 
L 67.347171 232.32 
L 65.068553 229.632 
L 65.068553 226.944 
L 65.068553 224.256 
L 65.068553 221.568 
L 65.068553 218.88 
L 65.068553 216.192 
L 65.068553 213.504 
L 65.068553 210.816 
L 65.068553 208.128 
L 65.068553 205.44 
L 65.068553 202.752 
L 65.068553 200.064 
L 65.068553 197.376 
L 65.068553 194.688 
L 65.068553 192 
L 65.068553 189.312 
L 65.068553 186.624 
L 65.068553 183.936 
L 65.068553 181.248 
L 65.068553 178.56 
L 65.068553 175.872 
L 65.068553 173.184 
L 65.068553 170.496 
L 65.068553 167.808 
L 65.068553 165.12 
L 65.068553 162.432 
L 65.068553 159.744 
L 65.068553 157.056 
L 65.068553 154.368 
L 65.068553 151.68 
L 65.068553 148.992 
L 65.068553 146.304 
L 65.068553 143.616 
L 65.068553 140.928 
L 65.068553 138.24 
L 65.068553 135.552 
L 65.068553 132.864 
L 65.068553 130.176 
L 65.068553 127.488 
L 65.068553 124.8 
L 65.068553 122.112 
L 65.068553 119.424 
L 65.068553 116.736 
L 65.068553 114.048 
L 65.068553 111.36 
L 65.068553 108.672 
L 65.068553 105.984 
L 65.068553 103.296 
L 65.068553 100.608 
L 65.068553 97.92 
L 65.068553 95.232 
L 65.068553 92.544 
L 65.068553 89.856 
L 65.068553 87.168 
L 65.068553 84.48 
L 65.068553 81.792 
L 65.068553 79.104 
L 65.068553 76.416 
L 65.068553 73.728 
L 65.068553 71.04 
L 65.068553 68.352 
L 65.068553 65.664 
L 65.068553 62.976 
L 65.068553 60.288 
L 65.068553 57.6 
L 65.068553 54.912 
L 65.068553 52.224 
L 65.068553 49.536 
L 65.068553 46.848 
L 65.068553 44.16 
L 65.068553 41.472 
L 57.6 41.472 
L 57.6 44.16 
L 57.6 46.848 
L 57.6 49.536 
L 57.6 52.224 
L 57.6 54.912 
L 57.6 57.6 
L 57.6 60.288 
L 57.6 62.976 
L 57.6 65.664 
L 57.6 68.352 
L 57.6 71.04 
L 57.6 73.728 
L 57.6 76.416 
L 57.6 79.104 
L 57.6 81.792 
L 57.6 84.48 
L 57.6 87.168 
L 57.6 89.856 
L 57.6 92.544 
L 57.6 95.232 
L 57.6 97.92 
L 57.6 100.608 
L 57.6 103.296 
L 57.6 105.984 
L 57.6 108.672 
L 57.6 111.36 
L 57.6 114.048 
L 57.6 116.736 
L 57.6 119.424 
L 57.6 122.112 
L 57.6 124.8 
L 57.6 127.488 
L 57.6 130.176 
L 57.6 132.864 
L 57.6 135.552 
L 57.6 138.24 
L 57.6 140.928 
L 57.6 143.616 
L 57.6 146.304 
L 57.6 148.992 
L 57.6 151.68 
L 57.6 154.368 
L 57.6 157.056 
L 57.6 159.744 
L 57.6 162.432 
L 57.6 165.12 
L 57.6 167.808 
L 57.6 170.496 
L 57.6 173.184 
L 57.6 175.872 
L 57.6 178.56 
L 57.6 181.248 
L 57.6 183.936 
L 57.6 186.624 
L 57.6 189.312 
L 57.6 192 
L 57.6 194.688 
L 57.6 197.376 
L 57.6 200.064 
L 57.6 202.752 
L 57.6 205.44 
L 57.6 208.128 
L 57.6 210.816 
L 57.6 213.504 
L 57.6 216.192 
L 57.6 218.88 
L 57.6 221.568 
L 57.6 224.256 
L 57.6 226.944 
L 57.6 229.632 
L 57.6 232.32 
L 57.6 235.008 
L 57.6 237.696 
L 57.6 240.384 
L 57.6 243.072 
L 57.6 245.76 
L 57.6 248.448 
L 57.6 251.136 
L 57.6 253.824 
L 57.6 256.512 
L 57.6 259.2 
L 57.6 261.888 
L 57.6 264.576 
L 57.6 267.264 
L 57.6 269.952 
L 57.6 272.64 
L 57.6 275.328 
L 57.6 278.016 
L 57.6 280.704 
L 57.6 283.392 
L 57.6 286.08 
L 57.6 288.768 
L 57.6 291.456 
L 57.6 294.144 
L 57.6 296.832 
L 57.6 299.52 
L 57.6 302.208 
L 57.6 304.896 
L 57.6 307.584 
L 67.347171 307.584 
z
" clip-path="url(#p7b6db9ecb5)" style="fill: #481b6d; fill-opacity: 0.75"/>
   </g>
   <g id="PathCollection_2">
    <path d="M 81.643022 304.896 
L 81.643022 302.208 
L 81.643022 299.52 
L 81.643022 296.832 
L 81.643022 294.144 
L 81.643022 291.456 
L 81.643022 288.768 
L 81.643022 286.08 
L 81.643022 283.392 
L 81.643022 280.704 
L 81.643022 278.016 
L 81.643022 275.328 
L 81.643022 272.64 
L 81.643022 269.952 
L 81.643022 267.264 
L 81.643022 264.576 
L 81.643022 261.888 
L 81.643022 259.2 
L 81.643022 256.512 
L 81.643022 253.824 
L 81.643022 251.136 
L 81.643022 248.448 
L 81.643022 245.76 
L 81.643022 243.072 
L 81.643022 240.384 
L 81.643022 237.696 
L 81.643022 235.008 
L 81.643022 232.32 
L 79.364404 229.632 
L 79.364404 226.944 
L 79.364404 224.256 
L 79.364404 221.568 
L 79.364404 218.88 
L 79.364404 216.192 
L 79.364404 213.504 
L 79.364404 210.816 
L 79.364404 208.128 
L 79.364404 205.44 
L 79.364404 202.752 
L 79.364404 200.064 
L 79.364404 197.376 
L 79.364404 194.688 
L 79.364404 192 
L 79.364404 189.312 
L 79.364404 186.624 
L 79.364404 183.936 
L 79.364404 181.248 
L 79.364404 178.56 
L 79.364404 175.872 
L 79.364404 173.184 
L 79.364404 170.496 
L 79.364404 167.808 
L 79.364404 165.12 
L 79.364404 162.432 
L 79.364404 159.744 
L 79.364404 157.056 
L 79.364404 154.368 
L 79.364404 151.68 
L 79.364404 148.992 
L 79.364404 146.304 
L 79.364404 143.616 
L 79.364404 140.928 
L 79.364404 138.24 
L 79.364404 135.552 
L 79.364404 132.864 
L 79.364404 130.176 
L 79.364404 127.488 
L 79.364404 124.8 
L 79.364404 122.112 
L 79.364404 119.424 
L 79.364404 116.736 
L 79.364404 114.048 
L 79.364404 111.36 
L 79.364404 108.672 
L 79.364404 105.984 
L 79.364404 103.296 
L 79.364404 100.608 
L 79.364404 97.92 
L 79.364404 95.232 
L 79.364404 92.544 
L 79.364404 89.856 
L 79.364404 87.168 
L 79.364404 84.48 
L 79.364404 81.792 
L 79.364404 79.104 
L 79.364404 76.416 
L 79.364404 73.728 
L 79.364404 71.04 
L 79.364404 68.352 
L 79.364404 65.664 
L 79.364404 62.976 
L 79.364404 60.288 
L 79.364404 57.6 
L 79.364404 54.912 
L 79.364404 52.224 
L 79.364404 49.536 
L 79.364404 46.848 
L 79.364404 44.16 
L 79.364404 41.472 
L 65.068553 41.472 
L 65.068553 44.16 
L 65.068553 46.848 
L 65.068553 49.536 
L 65.068553 52.224 
L 65.068553 54.912 
L 65.068553 57.6 
L 65.068553 60.288 
L 65.068553 62.976 
L 65.068553 65.664 
L 65.068553 68.352 
L 65.068553 71.04 
L 65.068553 73.728 
L 65.068553 76.416 
L 65.068553 79.104 
L 65.068553 81.792 
L 65.068553 84.48 
L 65.068553 87.168 
L 65.068553 89.856 
L 65.068553 92.544 
L 65.068553 95.232 
L 65.068553 97.92 
L 65.068553 100.608 
L 65.068553 103.296 
L 65.068553 105.984 
L 65.068553 108.672 
L 65.068553 111.36 
L 65.068553 114.048 
L 65.068553 116.736 
L 65.068553 119.424 
L 65.068553 122.112 
L 65.068553 124.8 
L 65.068553 127.488 
L 65.068553 130.176 
L 65.068553 132.864 
L 65.068553 135.552 
L 65.068553 138.24 
L 65.068553 140.928 
L 65.068553 143.616 
L 65.068553 146.304 
L 65.068553 148.992 
L 65.068553 151.68 
L 65.068553 154.368 
L 65.068553 157.056 
L 65.068553 159.744 
L 65.068553 162.432 
L 65.068553 165.12 
L 65.068553 167.808 
L 65.068553 170.496 
L 65.068553 173.184 
L 65.068553 175.872 
L 65.068553 178.56 
L 65.068553 181.248 
L 65.068553 183.936 
L 65.068553 186.624 
L 65.068553 189.312 
L 65.068553 192 
L 65.068553 194.688 
L 65.068553 197.376 
L 65.068553 200.064 
L 65.068553 202.752 
L 65.068553 205.44 
L 65.068553 208.128 
L 65.068553 210.816 
L 65.068553 213.504 
L 65.068553 216.192 
L 65.068553 218.88 
L 65.068553 221.568 
L 65.068553 224.256 
L 65.068553 226.944 
L 65.068553 229.632 
L 67.347171 232.32 
L 67.347171 235.008 
L 67.347171 237.696 
L 67.347171 240.384 
L 67.347171 243.072 
L 67.347171 245.76 
L 67.347171 248.448 
L 67.347171 251.136 
L 67.347171 253.824 
L 67.347171 256.512 
L 67.347171 259.2 
L 67.347171 261.888 
L 67.347171 264.576 
L 67.347171 267.264 
L 67.347171 269.952 
L 67.347171 272.64 
L 67.347171 275.328 
L 67.347171 278.016 
L 67.347171 280.704 
L 67.347171 283.392 
L 67.347171 286.08 
L 67.347171 288.768 
L 67.347171 291.456 
L 67.347171 294.144 
L 67.347171 296.832 
L 67.347171 299.52 
L 67.347171 302.208 
L 67.347171 304.896 
L 67.347171 307.584 
L 81.643022 307.584 
z
" clip-path="url(#p7b6db9ecb5)" style="fill: #3f4788; fill-opacity: 0.75"/>
   </g>
   <g id="PathCollection_3">
    <path d="M 95.938873 304.896 
L 95.938873 302.208 
L 95.938873 299.52 
L 95.938873 296.832 
L 95.938873 294.144 
L 95.938873 291.456 
L 95.938873 288.768 
L 95.938873 286.08 
L 95.938873 283.392 
L 95.938873 280.704 
L 95.938873 278.016 
L 95.938873 275.328 
L 95.938873 272.64 
L 95.938873 269.952 
L 95.938873 267.264 
L 95.938873 264.576 
L 95.938873 261.888 
L 95.938873 259.2 
L 95.938873 256.512 
L 95.938873 253.824 
L 95.938873 251.136 
L 95.938873 248.448 
L 95.938873 245.76 
L 95.938873 243.072 
L 95.938873 240.384 
L 95.938873 237.696 
L 95.938873 235.008 
L 95.938873 232.32 
L 93.660255 229.632 
L 93.660255 226.944 
L 93.660255 224.256 
L 93.660255 221.568 
L 93.660255 218.88 
L 93.660255 216.192 
L 93.660255 213.504 
L 93.660255 210.816 
L 93.660255 208.128 
L 93.660255 205.44 
L 93.660255 202.752 
L 93.660255 200.064 
L 93.660255 197.376 
L 93.660255 194.688 
L 93.660255 192 
L 93.660255 189.312 
L 93.660255 186.624 
L 93.660255 183.936 
L 93.660255 181.248 
L 93.660255 178.56 
L 93.660255 175.872 
L 93.660255 173.184 
L 93.660255 170.496 
L 93.660255 167.808 
L 93.660255 165.12 
L 93.660255 162.432 
L 93.660255 159.744 
L 93.660255 157.056 
L 93.660255 154.368 
L 93.660255 151.68 
L 93.660255 148.992 
L 93.660255 146.304 
L 93.660255 143.616 
L 93.660255 140.928 
L 93.660255 138.24 
L 93.660255 135.552 
L 93.660255 132.864 
L 93.660255 130.176 
L 93.660255 127.488 
L 93.660255 124.8 
L 93.660255 122.112 
L 93.660255 119.424 
L 93.660255 116.736 
L 93.660255 114.048 
L 93.660255 111.36 
L 93.660255 108.672 
L 93.660255 105.984 
L 93.660255 103.296 
L 93.660255 100.608 
L 93.660255 97.92 
L 93.660255 95.232 
L 93.660255 92.544 
L 93.660255 89.856 
L 93.660255 87.168 
L 93.660255 84.48 
L 93.660255 81.792 
L 93.660255 79.104 
L 93.660255 76.416 
L 93.660255 73.728 
L 93.660255 71.04 
L 93.660255 68.352 
L 93.660255 65.664 
L 93.660255 62.976 
L 93.660255 60.288 
L 93.660255 57.6 
L 93.660255 54.912 
L 93.660255 52.224 
L 93.660255 49.536 
L 93.660255 46.848 
L 93.660255 44.16 
L 93.660255 41.472 
L 79.364404 41.472 
L 79.364404 44.16 
L 79.364404 46.848 
L 79.364404 49.536 
L 79.364404 52.224 
L 79.364404 54.912 
L 79.364404 57.6 
L 79.364404 60.288 
L 79.364404 62.976 
L 79.364404 65.664 
L 79.364404 68.352 
L 79.364404 71.04 
L 79.364404 73.728 
L 79.364404 76.416 
L 79.364404 79.104 
L 79.364404 81.792 
L 79.364404 84.48 
L 79.364404 87.168 
L 79.364404 89.856 
L 79.364404 92.544 
L 79.364404 95.232 
L 79.364404 97.92 
L 79.364404 100.608 
L 79.364404 103.296 
L 79.364404 105.984 
L 79.364404 108.672 
L 79.364404 111.36 
L 79.364404 114.048 
L 79.364404 116.736 
L 79.364404 119.424 
L 79.364404 122.112 
L 79.364404 124.8 
L 79.364404 127.488 
L 79.364404 130.176 
L 79.364404 132.864 
L 79.364404 135.552 
L 79.364404 138.24 
L 79.364404 140.928 
L 79.364404 143.616 
L 79.364404 146.304 
L 79.364404 148.992 
L 79.364404 151.68 
L 79.364404 154.368 
L 79.364404 157.056 
L 79.364404 159.744 
L 79.364404 162.432 
L 79.364404 165.12 
L 79.364404 167.808 
L 79.364404 170.496 
L 79.364404 173.184 
L 79.364404 175.872 
L 79.364404 178.56 
L 79.364404 181.248 
L 79.364404 183.936 
L 79.364404 186.624 
L 79.364404 189.312 
L 79.364404 192 
L 79.364404 194.688 
L 79.364404 197.376 
L 79.364404 200.064 
L 79.364404 202.752 
L 79.364404 205.44 
L 79.364404 208.128 
L 79.364404 210.816 
L 79.364404 213.504 
L 79.364404 216.192 
L 79.364404 218.88 
L 79.364404 221.568 
L 79.364404 224.256 
L 79.364404 226.944 
L 79.364404 229.632 
L 81.643022 232.32 
L 81.643022 235.008 
L 81.643022 237.696 
L 81.643022 240.384 
L 81.643022 243.072 
L 81.643022 245.76 
L 81.643022 248.448 
L 81.643022 251.136 
L 81.643022 253.824 
L 81.643022 256.512 
L 81.643022 259.2 
L 81.643022 261.888 
L 81.643022 264.576 
L 81.643022 267.264 
L 81.643022 269.952 
L 81.643022 272.64 
L 81.643022 275.328 
L 81.643022 278.016 
L 81.643022 280.704 
L 81.643022 283.392 
L 81.643022 286.08 
L 81.643022 288.768 
L 81.643022 291.456 
L 81.643022 294.144 
L 81.643022 296.832 
L 81.643022 299.52 
L 81.643022 302.208 
L 81.643022 304.896 
L 81.643022 307.584 
L 95.938873 307.584 
z
" clip-path="url(#p7b6db9ecb5)" style="fill: #2e6e8e; fill-opacity: 0.75"/>
   </g>
   <g id="PathCollection_4">
    <path d="M 110.234724 304.896 
L 110.234724 302.208 
L 110.234724 299.52 
L 110.234724 296.832 
L 110.234724 294.144 
L 110.234724 291.456 
L 110.234724 288.768 
L 110.234724 286.08 
L 110.234724 283.392 
L 110.234724 280.704 
L 110.234724 278.016 
L 110.234724 275.328 
L 110.234724 272.64 
L 110.234724 269.952 
L 110.234724 267.264 
L 110.234724 264.576 
L 110.234724 261.888 
L 110.234724 259.2 
L 110.234724 256.512 
L 110.234724 253.824 
L 110.234724 251.136 
L 110.234724 248.448 
L 110.234724 245.76 
L 110.234724 243.072 
L 110.234724 240.384 
L 110.234724 237.696 
L 110.234724 235.008 
L 110.234724 232.32 
L 107.956106 229.632 
L 107.956106 226.944 
L 107.956106 224.256 
L 107.956106 221.568 
L 107.956106 218.88 
L 107.956106 216.192 
L 107.956106 213.504 
L 107.956106 210.816 
L 107.956106 208.128 
L 107.956106 205.44 
L 107.956106 202.752 
L 107.956106 200.064 
L 107.956106 197.376 
L 107.956106 194.688 
L 107.956106 192 
L 107.956106 189.312 
L 107.956106 186.624 
L 107.956106 183.936 
L 107.956106 181.248 
L 107.956106 178.56 
L 107.956106 175.872 
L 107.956106 173.184 
L 107.956106 170.496 
L 107.956106 167.808 
L 107.956106 165.12 
L 107.956106 162.432 
L 107.956106 159.744 
L 107.956106 157.056 
L 107.956106 154.368 
L 107.956106 151.68 
L 107.956106 148.992 
L 107.956106 146.304 
L 107.956106 143.616 
L 107.956106 140.928 
L 107.956106 138.24 
L 107.956106 135.552 
L 107.956106 132.864 
L 107.956106 130.176 
L 107.956106 127.488 
L 107.956106 124.8 
L 107.956106 122.112 
L 107.956106 119.424 
L 107.956106 116.736 
L 107.956106 114.048 
L 107.956106 111.36 
L 107.956106 108.672 
L 107.956106 105.984 
L 107.956106 103.296 
L 107.956106 100.608 
L 107.956106 97.92 
L 107.956106 95.232 
L 107.956106 92.544 
L 107.956106 89.856 
L 107.956106 87.168 
L 107.956106 84.48 
L 107.956106 81.792 
L 107.956106 79.104 
L 107.956106 76.416 
L 107.956106 73.728 
L 107.956106 71.04 
L 107.956106 68.352 
L 107.956106 65.664 
L 107.956106 62.976 
L 107.956106 60.288 
L 107.956106 57.6 
L 107.956106 54.912 
L 107.956106 52.224 
L 107.956106 49.536 
L 107.956106 46.848 
L 107.956106 44.16 
L 107.956106 41.472 
L 93.660255 41.472 
L 93.660255 44.16 
L 93.660255 46.848 
L 93.660255 49.536 
L 93.660255 52.224 
L 93.660255 54.912 
L 93.660255 57.6 
L 93.660255 60.288 
L 93.660255 62.976 
L 93.660255 65.664 
L 93.660255 68.352 
L 93.660255 71.04 
L 93.660255 73.728 
L 93.660255 76.416 
L 93.660255 79.104 
L 93.660255 81.792 
L 93.660255 84.48 
L 93.660255 87.168 
L 93.660255 89.856 
L 93.660255 92.544 
L 93.660255 95.232 
L 93.660255 97.92 
L 93.660255 100.608 
L 93.660255 103.296 
L 93.660255 105.984 
L 93.660255 108.672 
L 93.660255 111.36 
L 93.660255 114.048 
L 93.660255 116.736 
L 93.660255 119.424 
L 93.660255 122.112 
L 93.660255 124.8 
L 93.660255 127.488 
L 93.660255 130.176 
L 93.660255 132.864 
L 93.660255 135.552 
L 93.660255 138.24 
L 93.660255 140.928 
L 93.660255 143.616 
L 93.660255 146.304 
L 93.660255 148.992 
L 93.660255 151.68 
L 93.660255 154.368 
L 93.660255 157.056 
L 93.660255 159.744 
L 93.660255 162.432 
L 93.660255 165.12 
L 93.660255 167.808 
L 93.660255 170.496 
L 93.660255 173.184 
L 93.660255 175.872 
L 93.660255 178.56 
L 93.660255 181.248 
L 93.660255 183.936 
L 93.660255 186.624 
L 93.660255 189.312 
L 93.660255 192 
L 93.660255 194.688 
L 93.660255 197.376 
L 93.660255 200.064 
L 93.660255 202.752 
L 93.660255 205.44 
L 93.660255 208.128 
L 93.660255 210.816 
L 93.660255 213.504 
L 93.660255 216.192 
L 93.660255 218.88 
L 93.660255 221.568 
L 93.660255 224.256 
L 93.660255 226.944 
L 93.660255 229.632 
L 95.938873 232.32 
L 95.938873 235.008 
L 95.938873 237.696 
L 95.938873 240.384 
L 95.938873 243.072 
L 95.938873 245.76 
L 95.938873 248.448 
L 95.938873 251.136 
L 95.938873 253.824 
L 95.938873 256.512 
L 95.938873 259.2 
L 95.938873 261.888 
L 95.938873 264.576 
L 95.938873 267.264 
L 95.938873 269.952 
L 95.938873 272.64 
L 95.938873 275.328 
L 95.938873 278.016 
L 95.938873 280.704 
L 95.938873 283.392 
L 95.938873 286.08 
L 95.938873 288.768 
L 95.938873 291.456 
L 95.938873 294.144 
L 95.938873 296.832 
L 95.938873 299.52 
L 95.938873 302.208 
L 95.938873 304.896 
L 95.938873 307.584 
L 110.234724 307.584 
z
" clip-path="url(#p7b6db9ecb5)" style="fill: #21918c; fill-opacity: 0.75"/>
   </g>
   <g id="PathCollection_5">
    <path d="M 124.530576 304.896 
L 124.530576 302.208 
L 124.530576 299.52 
L 124.530576 296.832 
L 124.530576 294.144 
L 124.530576 291.456 
L 124.530576 288.768 
L 124.530576 286.08 
L 124.530576 283.392 
L 124.530576 280.704 
L 124.530576 278.016 
L 124.530576 275.328 
L 124.530576 272.64 
L 124.530576 269.952 
L 124.530576 267.264 
L 124.530576 264.576 
L 124.530576 261.888 
L 124.530576 259.2 
L 124.530576 256.512 
L 124.530576 253.824 
L 124.530576 251.136 
L 124.530576 248.448 
L 124.530576 245.76 
L 124.530576 243.072 
L 124.530576 240.384 
L 124.530576 237.696 
L 124.530576 235.008 
L 124.530576 232.32 
L 122.251957 229.632 
L 122.251957 226.944 
L 122.251957 224.256 
L 122.251957 221.568 
L 122.251957 218.88 
L 122.251957 216.192 
L 122.251957 213.504 
L 122.251957 210.816 
L 122.251957 208.128 
L 122.251957 205.44 
L 122.251957 202.752 
L 122.251957 200.064 
L 122.251957 197.376 
L 122.251957 194.688 
L 122.251957 192 
L 122.251957 189.312 
L 122.251957 186.624 
L 122.251957 183.936 
L 122.251957 181.248 
L 122.251957 178.56 
L 122.251957 175.872 
L 122.251957 173.184 
L 122.251957 170.496 
L 122.251957 167.808 
L 122.251957 165.12 
L 122.251957 162.432 
L 122.251957 159.744 
L 122.251957 157.056 
L 122.251957 154.368 
L 122.251957 151.68 
L 122.251957 148.992 
L 122.251957 146.304 
L 122.251957 143.616 
L 122.251957 140.928 
L 122.251957 138.24 
L 122.251957 135.552 
L 122.251957 132.864 
L 122.251957 130.176 
L 122.251957 127.488 
L 122.251957 124.8 
L 122.251957 122.112 
L 122.251957 119.424 
L 122.251957 116.736 
L 122.251957 114.048 
L 122.251957 111.36 
L 122.251957 108.672 
L 122.251957 105.984 
L 122.251957 103.296 
L 122.251957 100.608 
L 122.251957 97.92 
L 122.251957 95.232 
L 122.251957 92.544 
L 122.251957 89.856 
L 122.251957 87.168 
L 122.251957 84.48 
L 122.251957 81.792 
L 122.251957 79.104 
L 122.251957 76.416 
L 122.251957 73.728 
L 122.251957 71.04 
L 122.251957 68.352 
L 122.251957 65.664 
L 122.251957 62.976 
L 122.251957 60.288 
L 122.251957 57.6 
L 122.251957 54.912 
L 122.251957 52.224 
L 122.251957 49.536 
L 122.251957 46.848 
L 122.251957 44.16 
L 122.251957 41.472 
L 107.956106 41.472 
L 107.956106 44.16 
L 107.956106 46.848 
L 107.956106 49.536 
L 107.956106 52.224 
L 107.956106 54.912 
L 107.956106 57.6 
L 107.956106 60.288 
L 107.956106 62.976 
L 107.956106 65.664 
L 107.956106 68.352 
L 107.956106 71.04 
L 107.956106 73.728 
L 107.956106 76.416 
L 107.956106 79.104 
L 107.956106 81.792 
L 107.956106 84.48 
L 107.956106 87.168 
L 107.956106 89.856 
L 107.956106 92.544 
L 107.956106 95.232 
L 107.956106 97.92 
L 107.956106 100.608 
L 107.956106 103.296 
L 107.956106 105.984 
L 107.956106 108.672 
L 107.956106 111.36 
L 107.956106 114.048 
L 107.956106 116.736 
L 107.956106 119.424 
L 107.956106 122.112 
L 107.956106 124.8 
L 107.956106 127.488 
L 107.956106 130.176 
L 107.956106 132.864 
L 107.956106 135.552 
L 107.956106 138.24 
L 107.956106 140.928 
L 107.956106 143.616 
L 107.956106 146.304 
L 107.956106 148.992 
L 107.956106 151.68 
L 107.956106 154.368 
L 107.956106 157.056 
L 107.956106 159.744 
L 107.956106 162.432 
L 107.956106 165.12 
L 107.956106 167.808 
L 107.956106 170.496 
L 107.956106 173.184 
L 107.956106 175.872 
L 107.956106 178.56 
L 107.956106 181.248 
L 107.956106 183.936 
L 107.956106 186.624 
L 107.956106 189.312 
L 107.956106 192 
L 107.956106 194.688 
L 107.956106 197.376 
L 107.956106 200.064 
L 107.956106 202.752 
L 107.956106 205.44 
L 107.956106 208.128 
L 107.956106 210.816 
L 107.956106 213.504 
L 107.956106 216.192 
L 107.956106 218.88 
L 107.956106 221.568 
L 107.956106 224.256 
L 107.956106 226.944 
L 107.956106 229.632 
L 110.234724 232.32 
L 110.234724 235.008 
L 110.234724 237.696 
L 110.234724 240.384 
L 110.234724 243.072 
L 110.234724 245.76 
L 110.234724 248.448 
L 110.234724 251.136 
L 110.234724 253.824 
L 110.234724 256.512 
L 110.234724 259.2 
L 110.234724 261.888 
L 110.234724 264.576 
L 110.234724 267.264 
L 110.234724 269.952 
L 110.234724 272.64 
L 110.234724 275.328 
L 110.234724 278.016 
L 110.234724 280.704 
L 110.234724 283.392 
L 110.234724 286.08 
L 110.234724 288.768 
L 110.234724 291.456 
L 110.234724 294.144 
L 110.234724 296.832 
L 110.234724 299.52 
L 110.234724 302.208 
L 110.234724 304.896 
L 110.234724 307.584 
L 124.530576 307.584 
z
" clip-path="url(#p7b6db9ecb5)" style="fill: #2db27d; fill-opacity: 0.75"/>
   </g>
   <g id="PathCollection_6">
    <path d="M 129.024 307.584 
L 169.561858 307.584 
L 169.561858 304.896 
L 169.561858 302.208 
L 169.561858 299.52 
L 169.561858 296.832 
L 169.561858 294.144 
L 169.561858 291.456 
L 169.561858 288.768 
L 169.561858 286.08 
L 169.561858 283.392 
L 169.561858 280.704 
L 169.561858 278.016 
L 169.561858 275.328 
L 169.561858 272.64 
L 169.561858 269.952 
L 169.561858 267.264 
L 169.561858 264.576 
L 169.561858 261.888 
L 169.561858 259.2 
L 169.561858 256.512 
L 169.561858 253.824 
L 169.561858 251.136 
L 169.561858 248.448 
L 169.561858 245.76 
L 169.561858 243.072 
L 169.561858 240.384 
L 169.561858 237.696 
L 169.561858 235.008 
L 169.561858 232.32 
L 160.13865 229.632 
L 160.13865 226.944 
L 160.13865 224.256 
L 160.13865 221.568 
L 160.13865 218.88 
L 160.13865 216.192 
L 160.13865 213.504 
L 160.13865 210.816 
L 160.13865 208.128 
L 160.13865 205.44 
L 160.13865 202.752 
L 160.13865 200.064 
L 160.13865 197.376 
L 160.13865 194.688 
L 160.13865 192 
L 160.13865 189.312 
L 160.13865 186.624 
L 160.13865 183.936 
L 160.13865 181.248 
L 160.13865 178.56 
L 160.13865 175.872 
L 160.13865 173.184 
L 160.13865 170.496 
L 160.13865 167.808 
L 160.13865 165.12 
L 160.13865 162.432 
L 160.13865 159.744 
L 160.13865 157.056 
L 160.13865 154.368 
L 160.13865 151.68 
L 160.13865 148.992 
L 160.13865 146.304 
L 160.13865 143.616 
L 160.13865 140.928 
L 160.13865 138.24 
L 160.13865 135.552 
L 160.13865 132.864 
L 160.13865 130.176 
L 160.13865 127.488 
L 160.13865 124.8 
L 160.13865 122.112 
L 160.13865 119.424 
L 160.13865 116.736 
L 160.13865 114.048 
L 160.13865 111.36 
L 160.13865 108.672 
L 160.13865 105.984 
L 160.13865 103.296 
L 160.13865 100.608 
L 160.13865 97.92 
L 160.13865 95.232 
L 160.13865 92.544 
L 160.13865 89.856 
L 160.13865 87.168 
L 160.13865 84.48 
L 160.13865 81.792 
L 160.13865 79.104 
L 160.13865 76.416 
L 160.13865 73.728 
L 160.13865 71.04 
L 160.13865 68.352 
L 160.13865 65.664 
L 160.13865 62.976 
L 160.13865 60.288 
L 160.13865 57.6 
L 160.13865 54.912 
L 160.13865 52.224 
L 160.13865 49.536 
L 160.13865 46.848 
L 160.13865 44.16 
L 160.13865 41.472 
L 129.024 41.472 
L 122.251957 41.472 
L 122.251957 44.16 
L 122.251957 46.848 
L 122.251957 49.536 
L 122.251957 52.224 
L 122.251957 54.912 
L 122.251957 57.6 
L 122.251957 60.288 
L 122.251957 62.976 
L 122.251957 65.664 
L 122.251957 68.352 
L 122.251957 71.04 
L 122.251957 73.728 
L 122.251957 76.416 
L 122.251957 79.104 
L 122.251957 81.792 
L 122.251957 84.48 
L 122.251957 87.168 
L 122.251957 89.856 
L 122.251957 92.544 
L 122.251957 95.232 
L 122.251957 97.92 
L 122.251957 100.608 
L 122.251957 103.296 
L 122.251957 105.984 
L 122.251957 108.672 
L 122.251957 111.36 
L 122.251957 114.048 
L 122.251957 116.736 
L 122.251957 119.424 
L 122.251957 122.112 
L 122.251957 124.8 
L 122.251957 127.488 
L 122.251957 130.176 
L 122.251957 132.864 
L 122.251957 135.552 
L 122.251957 138.24 
L 122.251957 140.928 
L 122.251957 143.616 
L 122.251957 146.304 
L 122.251957 148.992 
L 122.251957 151.68 
L 122.251957 154.368 
L 122.251957 157.056 
L 122.251957 159.744 
L 122.251957 162.432 
L 122.251957 165.12 
L 122.251957 167.808 
L 122.251957 170.496 
L 122.251957 173.184 
L 122.251957 175.872 
L 122.251957 178.56 
L 122.251957 181.248 
L 122.251957 183.936 
L 122.251957 186.624 
L 122.251957 189.312 
L 122.251957 192 
L 122.251957 194.688 
L 122.251957 197.376 
L 122.251957 200.064 
L 122.251957 202.752 
L 122.251957 205.44 
L 122.251957 208.128 
L 122.251957 210.816 
L 122.251957 213.504 
L 122.251957 216.192 
L 122.251957 218.88 
L 122.251957 221.568 
L 122.251957 224.256 
L 122.251957 226.944 
L 122.251957 229.632 
L 124.530576 232.32 
L 124.530576 235.008 
L 124.530576 237.696 
L 124.530576 240.384 
L 124.530576 243.072 
L 124.530576 245.76 
L 124.530576 248.448 
L 124.530576 251.136 
L 124.530576 253.824 
L 124.530576 256.512 
L 124.530576 259.2 
L 124.530576 261.888 
L 124.530576 264.576 
L 124.530576 267.264 
L 124.530576 269.952 
L 124.530576 272.64 
L 124.530576 275.328 
L 124.530576 278.016 
L 124.530576 280.704 
L 124.530576 283.392 
L 124.530576 286.08 
L 124.530576 288.768 
L 124.530576 291.456 
L 124.530576 294.144 
L 124.530576 296.832 
L 124.530576 299.52 
L 124.530576 302.208 
L 124.530576 304.896 
L 124.530576 307.584 
z
" clip-path="url(#p7b6db9ecb5)" style="fill: #73d056; fill-opacity: 0.75"/>
   </g>
   <g id="PathCollection_7">
    <path d="M 200.448 307.584 
L 271.872 307.584 
L 343.296 307.584 
L 414.72 307.584 
L 414.72 304.896 
L 414.72 302.208 
L 414.72 299.52 
L 414.72 296.832 
L 414.72 294.144 
L 414.72 291.456 
L 414.72 288.768 
L 414.72 286.08 
L 414.72 283.392 
L 414.72 280.704 
L 414.72 278.016 
L 414.72 275.328 
L 414.72 272.64 
L 414.72 269.952 
L 414.72 267.264 
L 414.72 264.576 
L 414.72 261.888 
L 414.72 259.2 
L 414.72 256.512 
L 414.72 253.824 
L 414.72 251.136 
L 414.72 248.448 
L 414.72 245.76 
L 414.72 243.072 
L 414.72 240.384 
L 414.72 237.696 
L 414.72 235.008 
L 414.72 232.32 
L 414.72 229.632 
L 414.72 226.944 
L 414.72 224.256 
L 414.72 221.568 
L 414.72 218.88 
L 414.72 216.192 
L 414.72 213.504 
L 414.72 210.816 
L 414.72 208.128 
L 414.72 205.44 
L 414.72 202.752 
L 414.72 200.064 
L 414.72 197.376 
L 414.72 194.688 
L 414.72 192 
L 414.72 189.312 
L 414.72 186.624 
L 414.72 183.936 
L 414.72 181.248 
L 414.72 178.56 
L 414.72 175.872 
L 414.72 173.184 
L 414.72 170.496 
L 414.72 167.808 
L 414.72 165.12 
L 414.72 162.432 
L 414.72 159.744 
L 414.72 157.056 
L 414.72 154.368 
L 414.72 151.68 
L 414.72 148.992 
L 414.72 146.304 
L 414.72 143.616 
L 414.72 140.928 
L 414.72 138.24 
L 414.72 135.552 
L 414.72 132.864 
L 414.72 130.176 
L 414.72 127.488 
L 414.72 124.8 
L 414.72 122.112 
L 414.72 119.424 
L 414.72 116.736 
L 414.72 114.048 
L 414.72 111.36 
L 414.72 108.672 
L 414.72 105.984 
L 414.72 103.296 
L 414.72 100.608 
L 414.72 97.92 
L 414.72 95.232 
L 414.72 92.544 
L 414.72 89.856 
L 414.72 87.168 
L 414.72 84.48 
L 414.72 81.792 
L 414.72 79.104 
L 414.72 76.416 
L 414.72 73.728 
L 414.72 71.04 
L 414.72 68.352 
L 414.72 65.664 
L 414.72 62.976 
L 414.72 60.288 
L 414.72 57.6 
L 414.72 54.912 
L 414.72 52.224 
L 414.72 49.536 
L 414.72 46.848 
L 414.72 44.16 
L 414.72 41.472 
L 343.296 41.472 
L 271.872 41.472 
L 200.448 41.472 
L 160.13865 41.472 
L 160.13865 44.16 
L 160.13865 46.848 
L 160.13865 49.536 
L 160.13865 52.224 
L 160.13865 54.912 
L 160.13865 57.6 
L 160.13865 60.288 
L 160.13865 62.976 
L 160.13865 65.664 
L 160.13865 68.352 
L 160.13865 71.04 
L 160.13865 73.728 
L 160.13865 76.416 
L 160.13865 79.104 
L 160.13865 81.792 
L 160.13865 84.48 
L 160.13865 87.168 
L 160.13865 89.856 
L 160.13865 92.544 
L 160.13865 95.232 
L 160.13865 97.92 
L 160.13865 100.608 
L 160.13865 103.296 
L 160.13865 105.984 
L 160.13865 108.672 
L 160.13865 111.36 
L 160.13865 114.048 
L 160.13865 116.736 
L 160.13865 119.424 
L 160.13865 122.112 
L 160.13865 124.8 
L 160.13865 127.488 
L 160.13865 130.176 
L 160.13865 132.864 
L 160.13865 135.552 
L 160.13865 138.24 
L 160.13865 140.928 
L 160.13865 143.616 
L 160.13865 146.304 
L 160.13865 148.992 
L 160.13865 151.68 
L 160.13865 154.368 
L 160.13865 157.056 
L 160.13865 159.744 
L 160.13865 162.432 
L 160.13865 165.12 
L 160.13865 167.808 
L 160.13865 170.496 
L 160.13865 173.184 
L 160.13865 175.872 
L 160.13865 178.56 
L 160.13865 181.248 
L 160.13865 183.936 
L 160.13865 186.624 
L 160.13865 189.312 
L 160.13865 192 
L 160.13865 194.688 
L 160.13865 197.376 
L 160.13865 200.064 
L 160.13865 202.752 
L 160.13865 205.44 
L 160.13865 208.128 
L 160.13865 210.816 
L 160.13865 213.504 
L 160.13865 216.192 
L 160.13865 218.88 
L 160.13865 221.568 
L 160.13865 224.256 
L 160.13865 226.944 
L 160.13865 229.632 
L 169.561858 232.32 
L 169.561858 235.008 
L 169.561858 237.696 
L 169.561858 240.384 
L 169.561858 243.072 
L 169.561858 245.76 
L 169.561858 248.448 
L 169.561858 251.136 
L 169.561858 253.824 
L 169.561858 256.512 
L 169.561858 259.2 
L 169.561858 261.888 
L 169.561858 264.576 
L 169.561858 267.264 
L 169.561858 269.952 
L 169.561858 272.64 
L 169.561858 275.328 
L 169.561858 278.016 
L 169.561858 280.704 
L 169.561858 283.392 
L 169.561858 286.08 
L 169.561858 288.768 
L 169.561858 291.456 
L 169.561858 294.144 
L 169.561858 296.832 
L 169.561858 299.52 
L 169.561858 302.208 
L 169.561858 304.896 
L 169.561858 307.584 
z
" clip-path="url(#p7b6db9ecb5)" style="fill: #d0e11c; fill-opacity: 0.75"/>
   </g>
   <g id="matplotlib.axis_1">
    <g id="xtick_1">
     <g id="line2d_1">
      <defs>
       <path id="me79695c62e" d="M 0 0 
L 0 3.5 
" style="stroke: #000000; stroke-width: 0.8"/>
      </defs>
      <g>
       <use xlink:href="#me79695c62e" x="57.6" y="307.584" style="stroke: #000000; stroke-width: 0.8"/>
      </g>
     </g>
     <g id="text_1">
      <!-- 1 -->
      <g transform="translate(54.41875 322.182437) scale(0.1 -0.1)">
       <defs>
        <path id="DejaVuSans-31" d="M 794 531 
L 1825 531 
L 1825 4091 
L 703 3866 
L 703 4441 
L 1819 4666 
L 2450 4666 
L 2450 531 
L 3481 531 
L 3481 0 
L 794 0 
L 794 531 
z
" transform="scale(0.015625)"/>
       </defs>
       <use xlink:href="#DejaVuSans-31"/>
      </g>
     </g>
    </g>
    <g id="xtick_2">
     <g id="line2d_2">
      <g>
       <use xlink:href="#me79695c62e" x="129.024" y="307.584" style="stroke: #000000; stroke-width: 0.8"/>
      </g>
     </g>
     <g id="text_2">
      <!-- 2 -->
      <g transform="translate(125.84275 322.182437) scale(0.1 -0.1)">
       <defs>
        <path id="DejaVuSans-32" d="M 1228 531 
L 3431 531 
L 3431 0 
L 469 0 
L 469 531 
Q 828 903 1448 1529 
Q 2069 2156 2228 2338 
Q 2531 2678 2651 2914 
Q 2772 3150 2772 3378 
Q 2772 3750 2511 3984 
Q 2250 4219 1831 4219 
Q 1534 4219 1204 4116 
Q 875 4013 500 3803 
L 500 4441 
Q 881 4594 1212 4672 
Q 1544 4750 1819 4750 
Q 2544 4750 2975 4387 
Q 3406 4025 3406 3419 
Q 3406 3131 3298 2873 
Q 3191 2616 2906 2266 
Q 2828 2175 2409 1742 
Q 1991 1309 1228 531 
z
" transform="scale(0.015625)"/>
       </defs>
       <use xlink:href="#DejaVuSans-32"/>
      </g>
     </g>
    </g>
    <g id="xtick_3">
     <g id="line2d_3">
      <g>
       <use xlink:href="#me79695c62e" x="200.448" y="307.584" style="stroke: #000000; stroke-width: 0.8"/>
      </g>
     </g>
     <g id="text_3">
      <!-- 3 -->
      <g transform="translate(197.26675 322.182437) scale(0.1 -0.1)">
       <defs>
        <path id="DejaVuSans-33" d="M 2597 2516 
Q 3050 2419 3304 2112 
Q 3559 1806 3559 1356 
Q 3559 666 3084 287 
Q 2609 -91 1734 -91 
Q 1441 -91 1130 -33 
Q 819 25 488 141 
L 488 750 
Q 750 597 1062 519 
Q 1375 441 1716 441 
Q 2309 441 2620 675 
Q 2931 909 2931 1356 
Q 2931 1769 2642 2001 
Q 2353 2234 1838 2234 
L 1294 2234 
L 1294 2753 
L 1863 2753 
Q 2328 2753 2575 2939 
Q 2822 3125 2822 3475 
Q 2822 3834 2567 4026 
Q 2313 4219 1838 4219 
Q 1578 4219 1281 4162 
Q 984 4106 628 3988 
L 628 4550 
Q 988 4650 1302 4700 
Q 1616 4750 1894 4750 
Q 2613 4750 3031 4423 
Q 3450 4097 3450 3541 
Q 3450 3153 3228 2886 
Q 3006 2619 2597 2516 
z
" transform="scale(0.015625)"/>
       </defs>
       <use xlink:href="#DejaVuSans-33"/>
      </g>
     </g>
    </g>
    <g id="xtick_4">
     <g id="line2d_4">
      <g>
       <use xlink:href="#me79695c62e" x="271.872" y="307.584" style="stroke: #000000; stroke-width: 0.8"/>
      </g>
     </g>
     <g id="text_4">
      <!-- 4 -->
      <g transform="translate(268.69075 322.182437) scale(0.1 -0.1)">
       <defs>
        <path id="DejaVuSans-34" d="M 2419 4116 
L 825 1625 
L 2419 1625 
L 2419 4116 
z
M 2253 4666 
L 3047 4666 
L 3047 1625 
L 3713 1625 
L 3713 1100 
L 3047 1100 
L 3047 0 
L 2419 0 
L 2419 1100 
L 313 1100 
L 313 1709 
L 2253 4666 
z
" transform="scale(0.015625)"/>
       </defs>
       <use xlink:href="#DejaVuSans-34"/>
      </g>
     </g>
    </g>
    <g id="xtick_5">
     <g id="line2d_5">
      <g>
       <use xlink:href="#me79695c62e" x="343.296" y="307.584" style="stroke: #000000; stroke-width: 0.8"/>
      </g>
     </g>
     <g id="text_5">
      <!-- 5 -->
      <g transform="translate(340.11475 322.182437) scale(0.1 -0.1)">
       <defs>
        <path id="DejaVuSans-35" d="M 691 4666 
L 3169 4666 
L 3169 4134 
L 1269 4134 
L 1269 2991 
Q 1406 3038 1543 3061 
Q 1681 3084 1819 3084 
Q 2600 3084 3056 2656 
Q 3513 2228 3513 1497 
Q 3513 744 3044 326 
Q 2575 -91 1722 -91 
Q 1428 -91 1123 -41 
Q 819 9 494 109 
L 494 744 
Q 775 591 1075 516 
Q 1375 441 1709 441 
Q 2250 441 2565 725 
Q 2881 1009 2881 1497 
Q 2881 1984 2565 2268 
Q 2250 2553 1709 2553 
Q 1456 2553 1204 2497 
Q 953 2441 691 2322 
L 691 4666 
z
" transform="scale(0.015625)"/>
       </defs>
       <use xlink:href="#DejaVuSans-35"/>
      </g>
     </g>
    </g>
    <g id="xtick_6">
     <g id="line2d_6">
      <g>
       <use xlink:href="#me79695c62e" x="414.72" y="307.584" style="stroke: #000000; stroke-width: 0.8"/>
      </g>
     </g>
     <g id="text_6">
      <!-- 6 -->
      <g transform="translate(411.53875 322.182437) scale(0.1 -0.1)">
       <defs>
        <path id="DejaVuSans-36" d="M 2113 2584 
Q 1688 2584 1439 2293 
Q 1191 2003 1191 1497 
Q 1191 994 1439 701 
Q 1688 409 2113 409 
Q 2538 409 2786 701 
Q 3034 994 3034 1497 
Q 3034 2003 2786 2293 
Q 2538 2584 2113 2584 
z
M 3366 4563 
L 3366 3988 
Q 3128 4100 2886 4159 
Q 2644 4219 2406 4219 
Q 1781 4219 1451 3797 
Q 1122 3375 1075 2522 
Q 1259 2794 1537 2939 
Q 1816 3084 2150 3084 
Q 2853 3084 3261 2657 
Q 3669 2231 3669 1497 
Q 3669 778 3244 343 
Q 2819 -91 2113 -91 
Q 1303 -91 875 529 
Q 447 1150 447 2328 
Q 447 3434 972 4092 
Q 1497 4750 2381 4750 
Q 2619 4750 2861 4703 
Q 3103 4656 3366 4563 
z
" transform="scale(0.015625)"/>
       </defs>
       <use xlink:href="#DejaVuSans-36"/>
      </g>
     </g>
    </g>
    <g id="text_7">
     <!-- Parent Location -->
     <g transform="translate(197.420156 335.860562) scale(0.1 -0.1)">
      <defs>
       <path id="DejaVuSans-50" d="M 1259 4147 
L 1259 2394 
L 2053 2394 
Q 2494 2394 2734 2622 
Q 2975 2850 2975 3272 
Q 2975 3691 2734 3919 
Q 2494 4147 2053 4147 
L 1259 4147 
z
M 628 4666 
L 2053 4666 
Q 2838 4666 3239 4311 
Q 3641 3956 3641 3272 
Q 3641 2581 3239 2228 
Q 2838 1875 2053 1875 
L 1259 1875 
L 1259 0 
L 628 0 
L 628 4666 
z
" transform="scale(0.015625)"/>
       <path id="DejaVuSans-61" d="M 2194 1759 
Q 1497 1759 1228 1600 
Q 959 1441 959 1056 
Q 959 750 1161 570 
Q 1363 391 1709 391 
Q 2188 391 2477 730 
Q 2766 1069 2766 1631 
L 2766 1759 
L 2194 1759 
z
M 3341 1997 
L 3341 0 
L 2766 0 
L 2766 531 
Q 2569 213 2275 61 
Q 1981 -91 1556 -91 
Q 1019 -91 701 211 
Q 384 513 384 1019 
Q 384 1609 779 1909 
Q 1175 2209 1959 2209 
L 2766 2209 
L 2766 2266 
Q 2766 2663 2505 2880 
Q 2244 3097 1772 3097 
Q 1472 3097 1187 3025 
Q 903 2953 641 2809 
L 641 3341 
Q 956 3463 1253 3523 
Q 1550 3584 1831 3584 
Q 2591 3584 2966 3190 
Q 3341 2797 3341 1997 
z
" transform="scale(0.015625)"/>
       <path id="DejaVuSans-72" d="M 2631 2963 
Q 2534 3019 2420 3045 
Q 2306 3072 2169 3072 
Q 1681 3072 1420 2755 
Q 1159 2438 1159 1844 
L 1159 0 
L 581 0 
L 581 3500 
L 1159 3500 
L 1159 2956 
Q 1341 3275 1631 3429 
Q 1922 3584 2338 3584 
Q 2397 3584 2469 3576 
Q 2541 3569 2628 3553 
L 2631 2963 
z
" transform="scale(0.015625)"/>
       <path id="DejaVuSans-65" d="M 3597 1894 
L 3597 1613 
L 953 1613 
Q 991 1019 1311 708 
Q 1631 397 2203 397 
Q 2534 397 2845 478 
Q 3156 559 3463 722 
L 3463 178 
Q 3153 47 2828 -22 
Q 2503 -91 2169 -91 
Q 1331 -91 842 396 
Q 353 884 353 1716 
Q 353 2575 817 3079 
Q 1281 3584 2069 3584 
Q 2775 3584 3186 3129 
Q 3597 2675 3597 1894 
z
M 3022 2063 
Q 3016 2534 2758 2815 
Q 2500 3097 2075 3097 
Q 1594 3097 1305 2825 
Q 1016 2553 972 2059 
L 3022 2063 
z
" transform="scale(0.015625)"/>
       <path id="DejaVuSans-6e" d="M 3513 2113 
L 3513 0 
L 2938 0 
L 2938 2094 
Q 2938 2591 2744 2837 
Q 2550 3084 2163 3084 
Q 1697 3084 1428 2787 
Q 1159 2491 1159 1978 
L 1159 0 
L 581 0 
L 581 3500 
L 1159 3500 
L 1159 2956 
Q 1366 3272 1645 3428 
Q 1925 3584 2291 3584 
Q 2894 3584 3203 3211 
Q 3513 2838 3513 2113 
z
" transform="scale(0.015625)"/>
       <path id="DejaVuSans-74" d="M 1172 4494 
L 1172 3500 
L 2356 3500 
L 2356 3053 
L 1172 3053 
L 1172 1153 
Q 1172 725 1289 603 
Q 1406 481 1766 481 
L 2356 481 
L 2356 0 
L 1766 0 
Q 1100 0 847 248 
Q 594 497 594 1153 
L 594 3053 
L 172 3053 
L 172 3500 
L 594 3500 
L 594 4494 
L 1172 4494 
z
" transform="scale(0.015625)"/>
       <path id="DejaVuSans-20" transform="scale(0.015625)"/>
       <path id="DejaVuSans-4c" d="M 628 4666 
L 1259 4666 
L 1259 531 
L 3531 531 
L 3531 0 
L 628 0 
L 628 4666 
z
" transform="scale(0.015625)"/>
       <path id="DejaVuSans-6f" d="M 1959 3097 
Q 1497 3097 1228 2736 
Q 959 2375 959 1747 
Q 959 1119 1226 758 
Q 1494 397 1959 397 
Q 2419 397 2687 759 
Q 2956 1122 2956 1747 
Q 2956 2369 2687 2733 
Q 2419 3097 1959 3097 
z
M 1959 3584 
Q 2709 3584 3137 3096 
Q 3566 2609 3566 1747 
Q 3566 888 3137 398 
Q 2709 -91 1959 -91 
Q 1206 -91 779 398 
Q 353 888 353 1747 
Q 353 2609 779 3096 
Q 1206 3584 1959 3584 
z
" transform="scale(0.015625)"/>
       <path id="DejaVuSans-63" d="M 3122 3366 
L 3122 2828 
Q 2878 2963 2633 3030 
Q 2388 3097 2138 3097 
Q 1578 3097 1268 2742 
Q 959 2388 959 1747 
Q 959 1106 1268 751 
Q 1578 397 2138 397 
Q 2388 397 2633 464 
Q 2878 531 3122 666 
L 3122 134 
Q 2881 22 2623 -34 
Q 2366 -91 2075 -91 
Q 1284 -91 818 406 
Q 353 903 353 1747 
Q 353 2603 823 3093 
Q 1294 3584 2113 3584 
Q 2378 3584 2631 3529 
Q 2884 3475 3122 3366 
z
" transform="scale(0.015625)"/>
       <path id="DejaVuSans-69" d="M 603 3500 
L 1178 3500 
L 1178 0 
L 603 0 
L 603 3500 
z
M 603 4863 
L 1178 4863 
L 1178 4134 
L 603 4134 
L 603 4863 
z
" transform="scale(0.015625)"/>
      </defs>
      <use xlink:href="#DejaVuSans-50"/>
      <use xlink:href="#DejaVuSans-61" x="55.802734"/>
      <use xlink:href="#DejaVuSans-72" x="117.082031"/>
      <use xlink:href="#DejaVuSans-65" x="155.945312"/>
      <use xlink:href="#DejaVuSans-6e" x="217.46875"/>
      <use xlink:href="#DejaVuSans-74" x="280.847656"/>
      <use xlink:href="#DejaVuSans-20" x="320.056641"/>
      <use xlink:href="#DejaVuSans-4c" x="351.84375"/>
      <use xlink:href="#DejaVuSans-6f" x="405.806641"/>
      <use xlink:href="#DejaVuSans-63" x="466.988281"/>
      <use xlink:href="#DejaVuSans-61" x="521.96875"/>
      <use xlink:href="#DejaVuSans-74" x="583.248047"/>
      <use xlink:href="#DejaVuSans-69" x="622.457031"/>
      <use xlink:href="#DejaVuSans-6f" x="650.240234"/>
      <use xlink:href="#DejaVuSans-6e" x="711.421875"/>
     </g>
    </g>
   </g>
   <g id="matplotlib.axis_2">
    <g id="ytick_1">
     <g id="line2d_7">
      <defs>
       <path id="mf83d13a903" d="M 0 0 
L -3.5 0 
" style="stroke: #000000; stroke-width: 0.8"/>
      </defs>
      <g>
       <use xlink:href="#mf83d13a903" x="57.6" y="302.997214" style="stroke: #000000; stroke-width: 0.8"/>
      </g>
     </g>
     <g id="text_8">
      <!-- 0.05 -->
      <g transform="translate(28.334375 306.796433) scale(0.1 -0.1)">
       <defs>
        <path id="DejaVuSans-30" d="M 2034 4250 
Q 1547 4250 1301 3770 
Q 1056 3291 1056 2328 
Q 1056 1369 1301 889 
Q 1547 409 2034 409 
Q 2525 409 2770 889 
Q 3016 1369 3016 2328 
Q 3016 3291 2770 3770 
Q 2525 4250 2034 4250 
z
M 2034 4750 
Q 2819 4750 3233 4129 
Q 3647 3509 3647 2328 
Q 3647 1150 3233 529 
Q 2819 -91 2034 -91 
Q 1250 -91 836 529 
Q 422 1150 422 2328 
Q 422 3509 836 4129 
Q 1250 4750 2034 4750 
z
" transform="scale(0.015625)"/>
        <path id="DejaVuSans-2e" d="M 684 794 
L 1344 794 
L 1344 0 
L 684 0 
L 684 794 
z
" transform="scale(0.015625)"/>
       </defs>
       <use xlink:href="#DejaVuSans-30"/>
       <use xlink:href="#DejaVuSans-2e" x="63.623047"/>
       <use xlink:href="#DejaVuSans-30" x="95.410156"/>
       <use xlink:href="#DejaVuSans-35" x="159.033203"/>
      </g>
     </g>
    </g>
    <g id="ytick_2">
     <g id="line2d_8">
      <g>
       <use xlink:href="#mf83d13a903" x="57.6" y="253.993089" style="stroke: #000000; stroke-width: 0.8"/>
      </g>
     </g>
     <g id="text_9">
      <!-- 0.10 -->
      <g transform="translate(28.334375 257.792308) scale(0.1 -0.1)">
       <use xlink:href="#DejaVuSans-30"/>
       <use xlink:href="#DejaVuSans-2e" x="63.623047"/>
       <use xlink:href="#DejaVuSans-31" x="95.410156"/>
       <use xlink:href="#DejaVuSans-30" x="159.033203"/>
      </g>
     </g>
    </g>
    <g id="ytick_3">
     <g id="line2d_9">
      <g>
       <use xlink:href="#mf83d13a903" x="57.6" y="204.988964" style="stroke: #000000; stroke-width: 0.8"/>
      </g>
     </g>
     <g id="text_10">
      <!-- 0.15 -->
      <g transform="translate(28.334375 208.788183) scale(0.1 -0.1)">
       <use xlink:href="#DejaVuSans-30"/>
       <use xlink:href="#DejaVuSans-2e" x="63.623047"/>
       <use xlink:href="#DejaVuSans-31" x="95.410156"/>
       <use xlink:href="#DejaVuSans-35" x="159.033203"/>
      </g>
     </g>
    </g>
    <g id="ytick_4">
     <g id="line2d_10">
      <g>
       <use xlink:href="#mf83d13a903" x="57.6" y="155.984839" style="stroke: #000000; stroke-width: 0.8"/>
      </g>
     </g>
     <g id="text_11">
      <!-- 0.20 -->
      <g transform="translate(28.334375 159.784058) scale(0.1 -0.1)">
       <use xlink:href="#DejaVuSans-30"/>
       <use xlink:href="#DejaVuSans-2e" x="63.623047"/>
       <use xlink:href="#DejaVuSans-32" x="95.410156"/>
       <use xlink:href="#DejaVuSans-30" x="159.033203"/>
      </g>
     </g>
    </g>
    <g id="ytick_5">
     <g id="line2d_11">
      <g>
       <use xlink:href="#mf83d13a903" x="57.6" y="106.980714" style="stroke: #000000; stroke-width: 0.8"/>
      </g>
     </g>
     <g id="text_12">
      <!-- 0.25 -->
      <g transform="translate(28.334375 110.779933) scale(0.1 -0.1)">
       <use xlink:href="#DejaVuSans-30"/>
       <use xlink:href="#DejaVuSans-2e" x="63.623047"/>
       <use xlink:href="#DejaVuSans-32" x="95.410156"/>
       <use xlink:href="#DejaVuSans-35" x="159.033203"/>
      </g>
     </g>
    </g>
    <g id="ytick_6">
     <g id="line2d_12">
      <g>
       <use xlink:href="#mf83d13a903" x="57.6" y="57.976589" style="stroke: #000000; stroke-width: 0.8"/>
      </g>
     </g>
     <g id="text_13">
      <!-- 0.30 -->
      <g transform="translate(28.334375 61.775808) scale(0.1 -0.1)">
       <use xlink:href="#DejaVuSans-30"/>
       <use xlink:href="#DejaVuSans-2e" x="63.623047"/>
       <use xlink:href="#DejaVuSans-33" x="95.410156"/>
       <use xlink:href="#DejaVuSans-30" x="159.033203"/>
      </g>
     </g>
    </g>
    <g id="text_14">
     <!-- Obesity Rate -->
     <g transform="translate(22.254687 206.679563) rotate(-90) scale(0.1 -0.1)">
      <defs>
       <path id="DejaVuSans-4f" d="M 2522 4238 
Q 1834 4238 1429 3725 
Q 1025 3213 1025 2328 
Q 1025 1447 1429 934 
Q 1834 422 2522 422 
Q 3209 422 3611 934 
Q 4013 1447 4013 2328 
Q 4013 3213 3611 3725 
Q 3209 4238 2522 4238 
z
M 2522 4750 
Q 3503 4750 4090 4092 
Q 4678 3434 4678 2328 
Q 4678 1225 4090 567 
Q 3503 -91 2522 -91 
Q 1538 -91 948 565 
Q 359 1222 359 2328 
Q 359 3434 948 4092 
Q 1538 4750 2522 4750 
z
" transform="scale(0.015625)"/>
       <path id="DejaVuSans-62" d="M 3116 1747 
Q 3116 2381 2855 2742 
Q 2594 3103 2138 3103 
Q 1681 3103 1420 2742 
Q 1159 2381 1159 1747 
Q 1159 1113 1420 752 
Q 1681 391 2138 391 
Q 2594 391 2855 752 
Q 3116 1113 3116 1747 
z
M 1159 2969 
Q 1341 3281 1617 3432 
Q 1894 3584 2278 3584 
Q 2916 3584 3314 3078 
Q 3713 2572 3713 1747 
Q 3713 922 3314 415 
Q 2916 -91 2278 -91 
Q 1894 -91 1617 61 
Q 1341 213 1159 525 
L 1159 0 
L 581 0 
L 581 4863 
L 1159 4863 
L 1159 2969 
z
" transform="scale(0.015625)"/>
       <path id="DejaVuSans-73" d="M 2834 3397 
L 2834 2853 
Q 2591 2978 2328 3040 
Q 2066 3103 1784 3103 
Q 1356 3103 1142 2972 
Q 928 2841 928 2578 
Q 928 2378 1081 2264 
Q 1234 2150 1697 2047 
L 1894 2003 
Q 2506 1872 2764 1633 
Q 3022 1394 3022 966 
Q 3022 478 2636 193 
Q 2250 -91 1575 -91 
Q 1294 -91 989 -36 
Q 684 19 347 128 
L 347 722 
Q 666 556 975 473 
Q 1284 391 1588 391 
Q 1994 391 2212 530 
Q 2431 669 2431 922 
Q 2431 1156 2273 1281 
Q 2116 1406 1581 1522 
L 1381 1569 
Q 847 1681 609 1914 
Q 372 2147 372 2553 
Q 372 3047 722 3315 
Q 1072 3584 1716 3584 
Q 2034 3584 2315 3537 
Q 2597 3491 2834 3397 
z
" transform="scale(0.015625)"/>
       <path id="DejaVuSans-79" d="M 2059 -325 
Q 1816 -950 1584 -1140 
Q 1353 -1331 966 -1331 
L 506 -1331 
L 506 -850 
L 844 -850 
Q 1081 -850 1212 -737 
Q 1344 -625 1503 -206 
L 1606 56 
L 191 3500 
L 800 3500 
L 1894 763 
L 2988 3500 
L 3597 3500 
L 2059 -325 
z
" transform="scale(0.015625)"/>
       <path id="DejaVuSans-52" d="M 2841 2188 
Q 3044 2119 3236 1894 
Q 3428 1669 3622 1275 
L 4263 0 
L 3584 0 
L 2988 1197 
Q 2756 1666 2539 1819 
Q 2322 1972 1947 1972 
L 1259 1972 
L 1259 0 
L 628 0 
L 628 4666 
L 2053 4666 
Q 2853 4666 3247 4331 
Q 3641 3997 3641 3322 
Q 3641 2881 3436 2590 
Q 3231 2300 2841 2188 
z
M 1259 4147 
L 1259 2491 
L 2053 2491 
Q 2509 2491 2742 2702 
Q 2975 2913 2975 3322 
Q 2975 3731 2742 3939 
Q 2509 4147 2053 4147 
L 1259 4147 
z
" transform="scale(0.015625)"/>
      </defs>
      <use xlink:href="#DejaVuSans-4f"/>
      <use xlink:href="#DejaVuSans-62" x="78.710938"/>
      <use xlink:href="#DejaVuSans-65" x="142.1875"/>
      <use xlink:href="#DejaVuSans-73" x="203.710938"/>
      <use xlink:href="#DejaVuSans-69" x="255.810547"/>
      <use xlink:href="#DejaVuSans-74" x="283.59375"/>
      <use xlink:href="#DejaVuSans-79" x="322.802734"/>
      <use xlink:href="#DejaVuSans-20" x="381.982422"/>
      <use xlink:href="#DejaVuSans-52" x="413.769531"/>
      <use xlink:href="#DejaVuSans-61" x="481.001953"/>
      <use xlink:href="#DejaVuSans-74" x="542.28125"/>
      <use xlink:href="#DejaVuSans-65" x="581.490234"/>
     </g>
    </g>
   </g>
   <g id="PathCollection_8"/>
   <g id="PathCollection_9">
    <path d="M 65.068553 41.472 
L 65.068553 44.16 
L 65.068553 46.848 
L 65.068553 49.536 
L 65.068553 52.224 
L 65.068553 54.912 
L 65.068553 57.6 
L 65.068553 60.288 
L 65.068553 62.976 
L 65.068553 65.664 
L 65.068553 68.352 
L 65.068553 71.04 
L 65.068553 73.728 
L 65.068553 74.589 
" clip-path="url(#p7b6db9ecb5)" style="fill: none; stroke: #000000; stroke-width: 0.5"/>
    <path d="M 65.068553 110.499 
L 65.068553 111.36 
L 65.068553 114.048 
L 65.068553 116.736 
L 65.068553 119.424 
L 65.068553 122.112 
L 65.068553 124.8 
L 65.068553 127.488 
L 65.068553 130.176 
L 65.068553 132.864 
L 65.068553 135.552 
L 65.068553 138.24 
L 65.068553 140.928 
L 65.068553 143.616 
L 65.068553 146.304 
L 65.068553 148.992 
L 65.068553 151.68 
L 65.068553 154.368 
L 65.068553 157.056 
L 65.068553 159.744 
L 65.068553 162.432 
L 65.068553 165.12 
L 65.068553 167.808 
L 65.068553 170.496 
L 65.068553 173.184 
L 65.068553 175.872 
L 65.068553 178.56 
L 65.068553 181.248 
L 65.068553 183.936 
L 65.068553 186.624 
L 65.068553 189.312 
L 65.068553 192 
L 65.068553 194.688 
L 65.068553 197.376 
L 65.068553 200.064 
L 65.068553 202.752 
L 65.068553 205.44 
L 65.068553 208.128 
L 65.068553 210.816 
L 65.068553 213.504 
L 65.068553 216.192 
L 65.068553 218.88 
L 65.068553 221.568 
L 65.068553 224.256 
L 65.068553 226.944 
L 65.068553 229.632 
L 67.347171 232.32 
L 67.347171 235.008 
L 67.347171 237.696 
L 67.347171 240.384 
L 67.347171 243.072 
L 67.347171 245.76 
L 67.347171 248.448 
L 67.347171 251.136 
L 67.347171 253.824 
L 67.347171 256.512 
L 67.347171 259.2 
L 67.347171 261.888 
L 67.347171 264.576 
L 67.347171 267.264 
L 67.347171 269.952 
L 67.347171 272.64 
L 67.347171 275.328 
L 67.347171 278.016 
L 67.347171 280.704 
L 67.347171 283.392 
L 67.347171 286.08 
L 67.347171 288.768 
L 67.347171 291.456 
L 67.347171 294.144 
L 67.347171 296.832 
L 67.347171 299.52 
L 67.347171 302.208 
L 67.347171 304.896 
L 67.347171 307.584 
" clip-path="url(#p7b6db9ecb5)" style="fill: none; stroke: #000000; stroke-width: 0.5"/>
   </g>
   <g id="PathCollection_10">
    <path d="M 79.364404 41.472 
L 79.364404 44.16 
L 79.364404 46.848 
L 79.364404 49.536 
L 79.364404 52.224 
L 79.364404 54.912 
L 79.364404 57.6 
L 79.364404 60.288 
L 79.364404 62.976 
L 79.364404 65.664 
L 79.364404 68.352 
L 79.364404 71.04 
L 79.364404 73.728 
L 79.364404 76.416 
L 79.364404 79.104 
L 79.364404 81.792 
L 79.364404 84.48 
L 79.364404 87.168 
L 79.364404 89.856 
L 79.364404 92.544 
L 79.364404 95.232 
L 79.364404 97.92 
L 79.364404 100.608 
L 79.364404 103.296 
L 79.364404 105.984 
L 79.364404 108.672 
L 79.364404 111.36 
L 79.364404 114.048 
L 79.364404 116.736 
L 79.364404 119.424 
L 79.364404 122.112 
L 79.364404 124.8 
L 79.364404 127.488 
L 79.364404 130.176 
L 79.364404 132.864 
L 79.364404 135.552 
L 79.364404 138.24 
L 79.364404 140.928 
L 79.364404 143.616 
L 79.364404 146.304 
L 79.364404 148.992 
L 79.364404 151.68 
L 79.364404 154.368 
L 79.364404 157.056 
L 79.364404 159.744 
L 79.364404 162.432 
L 79.364404 165.12 
L 79.364404 167.808 
L 79.364404 170.496 
L 79.364404 173.184 
L 79.364404 175.872 
L 79.364404 178.56 
L 79.364404 181.248 
L 79.364404 183.936 
L 79.364404 186.624 
L 79.364404 189.312 
L 79.364404 192 
L 79.364404 194.688 
L 79.364404 197.376 
L 79.364404 200.064 
L 79.364404 202.752 
L 79.364404 205.44 
L 79.364404 208.128 
L 79.364404 210.816 
L 79.364404 213.504 
L 79.364404 216.192 
L 79.364404 218.88 
L 79.364404 221.568 
L 79.364404 224.256 
L 79.364404 226.944 
L 79.364404 229.632 
L 81.643022 232.32 
L 81.643022 235.008 
L 81.643022 237.696 
L 81.643022 240.384 
L 81.643022 243.072 
L 81.643022 245.76 
L 81.643022 248.448 
L 81.643022 251.136 
L 81.643022 253.824 
L 81.643022 256.512 
L 81.643022 259.2 
L 81.643022 261.888 
L 81.643022 264.576 
L 81.643022 267.264 
L 81.643022 269.952 
L 81.643022 272.64 
L 81.643022 275.328 
L 81.643022 278.016 
L 81.643022 280.704 
L 81.643022 283.392 
L 81.643022 284.253 
" clip-path="url(#p7b6db9ecb5)" style="fill: none; stroke: #000000; stroke-width: 0.5"/>
   </g>
   <g id="PathCollection_11">
    <path d="M 93.660255 41.472 
L 93.660255 44.16 
L 93.660255 46.848 
L 93.660255 49.536 
L 93.660255 52.224 
L 93.660255 54.912 
L 93.660255 57.6 
L 93.660255 60.288 
L 93.660255 62.976 
L 93.660255 65.664 
L 93.660255 68.352 
L 93.660255 71.04 
L 93.660255 73.728 
L 93.660255 76.416 
L 93.660255 79.104 
L 93.660255 81.792 
L 93.660255 84.48 
L 93.660255 87.168 
L 93.660255 89.856 
L 93.660255 92.544 
L 93.660255 95.232 
L 93.660255 97.92 
L 93.660255 100.608 
L 93.660255 103.296 
L 93.660255 105.984 
L 93.660255 108.672 
L 93.660255 111.36 
L 93.660255 114.048 
L 93.660255 116.736 
L 93.660255 119.424 
L 93.660255 122.112 
L 93.660255 124.8 
L 93.660255 127.488 
L 93.660255 130.176 
L 93.660255 132.864 
L 93.660255 135.552 
L 93.660255 138.24 
L 93.660255 140.928 
L 93.660255 143.616 
L 93.660255 146.304 
L 93.660255 148.992 
L 93.660255 151.68 
L 93.660255 154.368 
L 93.660255 157.056 
L 93.660255 159.744 
L 93.660255 162.432 
L 93.660255 165.12 
L 93.660255 167.808 
L 93.660255 170.496 
L 93.660255 173.184 
L 93.660255 175.872 
L 93.660255 178.56 
L 93.660255 179.421 
" clip-path="url(#p7b6db9ecb5)" style="fill: none; stroke: #000000; stroke-width: 0.5"/>
    <path d="M 93.660255 215.331 
L 93.660255 216.192 
L 93.660255 218.88 
L 93.660255 221.568 
L 93.660255 224.256 
L 93.660255 226.944 
L 93.660255 229.632 
L 95.938873 232.32 
L 95.938873 235.008 
L 95.938873 237.696 
L 95.938873 240.384 
L 95.938873 243.072 
L 95.938873 245.76 
L 95.938873 248.448 
L 95.938873 251.136 
L 95.938873 253.824 
L 95.938873 256.512 
L 95.938873 259.2 
L 95.938873 261.888 
L 95.938873 264.576 
L 95.938873 267.264 
L 95.938873 269.952 
L 95.938873 272.64 
L 95.938873 275.328 
L 95.938873 278.016 
L 95.938873 280.704 
L 95.938873 283.392 
L 95.938873 286.08 
L 95.938873 288.768 
L 95.938873 291.456 
L 95.938873 294.144 
L 95.938873 296.832 
L 95.938873 299.52 
L 95.938873 302.208 
L 95.938873 304.896 
L 95.938873 307.584 
" clip-path="url(#p7b6db9ecb5)" style="fill: none; stroke: #000000; stroke-width: 0.5"/>
   </g>
   <g id="PathCollection_12">
    <path d="M 107.956106 41.472 
L 107.956106 44.16 
L 107.956106 46.848 
L 107.956106 49.536 
L 107.956106 52.224 
L 107.956106 54.912 
L 107.956106 57.6 
L 107.956106 60.288 
L 107.956106 62.976 
L 107.956106 65.664 
L 107.956106 68.352 
L 107.956106 71.04 
L 107.956106 73.728 
L 107.956106 74.589 
" clip-path="url(#p7b6db9ecb5)" style="fill: none; stroke: #000000; stroke-width: 0.5"/>
    <path d="M 107.956106 110.499 
L 107.956106 111.36 
L 107.956106 114.048 
L 107.956106 116.736 
L 107.956106 119.424 
L 107.956106 122.112 
L 107.956106 124.8 
L 107.956106 127.488 
L 107.956106 130.176 
L 107.956106 132.864 
L 107.956106 135.552 
L 107.956106 138.24 
L 107.956106 140.928 
L 107.956106 143.616 
L 107.956106 146.304 
L 107.956106 148.992 
L 107.956106 151.68 
L 107.956106 154.368 
L 107.956106 157.056 
L 107.956106 159.744 
L 107.956106 162.432 
L 107.956106 165.12 
L 107.956106 167.808 
L 107.956106 170.496 
L 107.956106 173.184 
L 107.956106 175.872 
L 107.956106 178.56 
L 107.956106 181.248 
L 107.956106 183.936 
L 107.956106 186.624 
L 107.956106 189.312 
L 107.956106 192 
L 107.956106 194.688 
L 107.956106 197.376 
L 107.956106 200.064 
L 107.956106 202.752 
L 107.956106 205.44 
L 107.956106 208.128 
L 107.956106 210.816 
L 107.956106 213.504 
L 107.956106 216.192 
L 107.956106 218.88 
L 107.956106 221.568 
L 107.956106 224.256 
L 107.956106 226.944 
L 107.956106 229.632 
L 110.234724 232.32 
L 110.234724 235.008 
L 110.234724 237.696 
L 110.234724 240.384 
L 110.234724 243.072 
L 110.234724 245.76 
L 110.234724 248.448 
L 110.234724 251.136 
L 110.234724 253.824 
L 110.234724 256.512 
L 110.234724 259.2 
L 110.234724 261.888 
L 110.234724 264.576 
L 110.234724 267.264 
L 110.234724 269.952 
L 110.234724 272.64 
L 110.234724 275.328 
L 110.234724 278.016 
L 110.234724 280.704 
L 110.234724 283.392 
L 110.234724 286.08 
L 110.234724 288.768 
L 110.234724 291.456 
L 110.234724 294.144 
L 110.234724 296.832 
L 110.234724 299.52 
L 110.234724 302.208 
L 110.234724 304.896 
L 110.234724 307.584 
" clip-path="url(#p7b6db9ecb5)" style="fill: none; stroke: #000000; stroke-width: 0.5"/>
   </g>
   <g id="PathCollection_13">
    <path d="M 122.251957 41.472 
L 122.251957 44.16 
L 122.251957 46.848 
L 122.251957 49.536 
L 122.251957 52.224 
L 122.251957 54.912 
L 122.251957 57.6 
L 122.251957 60.288 
L 122.251957 62.976 
L 122.251957 65.664 
L 122.251957 68.352 
L 122.251957 71.04 
L 122.251957 73.728 
L 122.251957 76.416 
L 122.251957 79.104 
L 122.251957 81.792 
L 122.251957 84.48 
L 122.251957 87.168 
L 122.251957 89.856 
L 122.251957 92.544 
L 122.251957 95.232 
L 122.251957 97.92 
L 122.251957 100.608 
L 122.251957 103.296 
L 122.251957 105.984 
L 122.251957 108.672 
L 122.251957 111.36 
L 122.251957 114.048 
L 122.251957 116.736 
L 122.251957 119.424 
L 122.251957 122.112 
L 122.251957 124.8 
L 122.251957 127.488 
L 122.251957 130.176 
L 122.251957 132.864 
L 122.251957 135.552 
L 122.251957 138.24 
L 122.251957 140.928 
L 122.251957 143.616 
L 122.251957 146.304 
L 122.251957 148.992 
L 122.251957 151.68 
L 122.251957 154.368 
L 122.251957 157.056 
L 122.251957 159.744 
L 122.251957 162.432 
L 122.251957 165.12 
L 122.251957 167.808 
L 122.251957 170.496 
L 122.251957 173.184 
L 122.251957 175.872 
L 122.251957 178.56 
L 122.251957 181.248 
L 122.251957 183.936 
L 122.251957 186.624 
L 122.251957 189.312 
L 122.251957 192 
L 122.251957 194.688 
L 122.251957 197.376 
L 122.251957 200.064 
L 122.251957 202.752 
L 122.251957 205.44 
L 122.251957 208.128 
L 122.251957 210.816 
L 122.251957 213.504 
L 122.251957 216.192 
L 122.251957 218.88 
L 122.251957 221.568 
L 122.251957 224.256 
L 122.251957 226.944 
L 122.251957 229.632 
L 124.530576 232.32 
L 124.530576 235.008 
L 124.530576 237.696 
L 124.530576 240.384 
L 124.530576 243.072 
L 124.530576 245.76 
L 124.530576 248.448 
L 124.530576 251.136 
L 124.530576 253.824 
L 124.530576 256.512 
L 124.530576 259.2 
L 124.530576 261.888 
L 124.530576 264.576 
L 124.530576 267.264 
L 124.530576 269.952 
L 124.530576 272.64 
L 124.530576 275.328 
L 124.530576 278.016 
L 124.530576 280.704 
L 124.530576 283.392 
L 124.530576 284.253 
" clip-path="url(#p7b6db9ecb5)" style="fill: none; stroke: #000000; stroke-width: 0.5"/>
   </g>
   <g id="PathCollection_14">
    <path d="M 160.13865 41.472 
L 160.13865 44.16 
L 160.13865 46.848 
L 160.13865 49.536 
L 160.13865 52.224 
L 160.13865 54.912 
L 160.13865 57.6 
L 160.13865 60.288 
L 160.13865 62.976 
L 160.13865 65.664 
L 160.13865 68.352 
L 160.13865 71.04 
L 160.13865 73.728 
L 160.13865 74.589 
" clip-path="url(#p7b6db9ecb5)" style="fill: none; stroke: #000000; stroke-width: 0.5"/>
    <path d="M 160.13865 110.499 
L 160.13865 111.36 
L 160.13865 114.048 
L 160.13865 116.736 
L 160.13865 119.424 
L 160.13865 122.112 
L 160.13865 124.8 
L 160.13865 127.488 
L 160.13865 130.176 
L 160.13865 132.864 
L 160.13865 135.552 
L 160.13865 138.24 
L 160.13865 140.928 
L 160.13865 143.616 
L 160.13865 146.304 
L 160.13865 148.992 
L 160.13865 151.68 
L 160.13865 154.368 
L 160.13865 157.056 
L 160.13865 159.744 
L 160.13865 162.432 
L 160.13865 165.12 
L 160.13865 167.808 
L 160.13865 170.496 
L 160.13865 173.184 
L 160.13865 175.872 
L 160.13865 178.56 
L 160.13865 181.248 
L 160.13865 183.936 
L 160.13865 186.624 
L 160.13865 189.312 
L 160.13865 192 
L 160.13865 194.688 
L 160.13865 197.376 
L 160.13865 200.064 
L 160.13865 202.752 
L 160.13865 205.44 
L 160.13865 208.128 
L 160.13865 210.816 
L 160.13865 213.504 
L 160.13865 216.192 
L 160.13865 218.88 
L 160.13865 221.568 
L 160.13865 224.256 
L 160.13865 226.944 
L 160.13865 229.632 
L 169.561858 232.32 
L 169.561858 235.008 
L 169.561858 237.696 
L 169.561858 240.384 
L 169.561858 243.072 
L 169.561858 245.76 
L 169.561858 248.448 
L 169.561858 251.136 
L 169.561858 253.824 
L 169.561858 256.512 
L 169.561858 259.2 
L 169.561858 261.888 
L 169.561858 264.576 
L 169.561858 267.264 
L 169.561858 269.952 
L 169.561858 272.64 
L 169.561858 275.328 
L 169.561858 278.016 
L 169.561858 280.704 
L 169.561858 283.392 
L 169.561858 286.08 
L 169.561858 288.768 
L 169.561858 291.456 
L 169.561858 294.144 
L 169.561858 296.832 
L 169.561858 299.52 
L 169.561858 302.208 
L 169.561858 304.896 
L 169.561858 307.584 
" clip-path="url(#p7b6db9ecb5)" style="fill: none; stroke: #000000; stroke-width: 0.5"/>
   </g>
   <g id="PathCollection_15"/>
   <g id="LineCollection_1">
    <path d="M 57.6 307.584 
L 57.6 294.2784 
" clip-path="url(#p7b6db9ecb5)" style="fill: none; stroke: #000000; stroke-width: 1.5"/>
    <path d="M 57.6 307.584 
L 57.6 294.2784 
" clip-path="url(#p7b6db9ecb5)" style="fill: none; stroke: #000000; stroke-width: 1.5"/>
    <path d="M 129.024 307.584 
L 129.024 294.2784 
" clip-path="url(#p7b6db9ecb5)" style="fill: none; stroke: #000000; stroke-width: 1.5"/>
    <path d="M 129.024 307.584 
L 129.024 294.2784 
" clip-path="url(#p7b6db9ecb5)" style="fill: none; stroke: #000000; stroke-width: 1.5"/>
    <path d="M 200.448 307.584 
L 200.448 294.2784 
" clip-path="url(#p7b6db9ecb5)" style="fill: none; stroke: #000000; stroke-width: 1.5"/>
    <path d="M 271.872 307.584 
L 271.872 294.2784 
" clip-path="url(#p7b6db9ecb5)" style="fill: none; stroke: #000000; stroke-width: 1.5"/>
    <path d="M 271.872 307.584 
L 271.872 294.2784 
" clip-path="url(#p7b6db9ecb5)" style="fill: none; stroke: #000000; stroke-width: 1.5"/>
    <path d="M 271.872 307.584 
L 271.872 294.2784 
" clip-path="url(#p7b6db9ecb5)" style="fill: none; stroke: #000000; stroke-width: 1.5"/>
    <path d="M 349.00992 307.584 
L 349.00992 294.2784 
" clip-path="url(#p7b6db9ecb5)" style="fill: none; stroke: #000000; stroke-width: 1.5"/>
   </g>
   <g id="LineCollection_2">
    <path clip-path="url(#p7b6db9ecb5)" style="fill: none; stroke: #000000; stroke-width: 1.5"/>
    <path clip-path="url(#p7b6db9ecb5)" style="fill: none; stroke: #000000; stroke-width: 1.5"/>
    <path clip-path="url(#p7b6db9ecb5)" style="fill: none; stroke: #000000; stroke-width: 1.5"/>
    <path clip-path="url(#p7b6db9ecb5)" style="fill: none; stroke: #000000; stroke-width: 1.5"/>
    <path clip-path="url(#p7b6db9ecb5)" style="fill: none; stroke: #000000; stroke-width: 1.5"/>
    <path clip-path="url(#p7b6db9ecb5)" style="fill: none; stroke: #000000; stroke-width: 1.5"/>
    <path clip-path="url(#p7b6db9ecb5)" style="fill: none; stroke: #000000; stroke-width: 1.5"/>
    <path clip-path="url(#p7b6db9ecb5)" style="fill: none; stroke: #000000; stroke-width: 1.5"/>
    <path clip-path="url(#p7b6db9ecb5)" style="fill: none; stroke: #000000; stroke-width: 1.5"/>
   </g>
   <g id="patch_3">
    <path d="M 57.6 307.584 
L 57.6 41.472 
" style="fill: none; stroke: #000000; stroke-width: 0.8; stroke-linejoin: miter; stroke-linecap: square"/>
   </g>
   <g id="patch_4">
    <path d="M 414.72 307.584 
L 414.72 41.472 
" style="fill: none; stroke: #000000; stroke-width: 0.8; stroke-linejoin: miter; stroke-linecap: square"/>
   </g>
   <g id="patch_5">
    <path d="M 57.6 307.584 
L 414.72 307.584 
" style="fill: none; stroke: #000000; stroke-width: 0.8; stroke-linejoin: miter; stroke-linecap: square"/>
   </g>
   <g id="patch_6">
    <path d="M 57.6 41.472 
L 414.72 41.472 
" style="fill: none; stroke: #000000; stroke-width: 0.8; stroke-linejoin: miter; stroke-linecap: square"/>
   </g>
   <g id="text_15">
    <!-- 2D-partial dependency plot between PL and Obesity -->
    <g transform="translate(79.228125 35.472) scale(0.12 -0.12)">
     <defs>
      <path id="DejaVuSans-44" d="M 1259 4147 
L 1259 519 
L 2022 519 
Q 2988 519 3436 956 
Q 3884 1394 3884 2338 
Q 3884 3275 3436 3711 
Q 2988 4147 2022 4147 
L 1259 4147 
z
M 628 4666 
L 1925 4666 
Q 3281 4666 3915 4102 
Q 4550 3538 4550 2338 
Q 4550 1131 3912 565 
Q 3275 0 1925 0 
L 628 0 
L 628 4666 
z
" transform="scale(0.015625)"/>
      <path id="DejaVuSans-2d" d="M 313 2009 
L 1997 2009 
L 1997 1497 
L 313 1497 
L 313 2009 
z
" transform="scale(0.015625)"/>
      <path id="DejaVuSans-70" d="M 1159 525 
L 1159 -1331 
L 581 -1331 
L 581 3500 
L 1159 3500 
L 1159 2969 
Q 1341 3281 1617 3432 
Q 1894 3584 2278 3584 
Q 2916 3584 3314 3078 
Q 3713 2572 3713 1747 
Q 3713 922 3314 415 
Q 2916 -91 2278 -91 
Q 1894 -91 1617 61 
Q 1341 213 1159 525 
z
M 3116 1747 
Q 3116 2381 2855 2742 
Q 2594 3103 2138 3103 
Q 1681 3103 1420 2742 
Q 1159 2381 1159 1747 
Q 1159 1113 1420 752 
Q 1681 391 2138 391 
Q 2594 391 2855 752 
Q 3116 1113 3116 1747 
z
" transform="scale(0.015625)"/>
      <path id="DejaVuSans-6c" d="M 603 4863 
L 1178 4863 
L 1178 0 
L 603 0 
L 603 4863 
z
" transform="scale(0.015625)"/>
      <path id="DejaVuSans-64" d="M 2906 2969 
L 2906 4863 
L 3481 4863 
L 3481 0 
L 2906 0 
L 2906 525 
Q 2725 213 2448 61 
Q 2172 -91 1784 -91 
Q 1150 -91 751 415 
Q 353 922 353 1747 
Q 353 2572 751 3078 
Q 1150 3584 1784 3584 
Q 2172 3584 2448 3432 
Q 2725 3281 2906 2969 
z
M 947 1747 
Q 947 1113 1208 752 
Q 1469 391 1925 391 
Q 2381 391 2643 752 
Q 2906 1113 2906 1747 
Q 2906 2381 2643 2742 
Q 2381 3103 1925 3103 
Q 1469 3103 1208 2742 
Q 947 2381 947 1747 
z
" transform="scale(0.015625)"/>
      <path id="DejaVuSans-77" d="M 269 3500 
L 844 3500 
L 1563 769 
L 2278 3500 
L 2956 3500 
L 3675 769 
L 4391 3500 
L 4966 3500 
L 4050 0 
L 3372 0 
L 2619 2869 
L 1863 0 
L 1184 0 
L 269 3500 
z
" transform="scale(0.015625)"/>
     </defs>
     <use xlink:href="#DejaVuSans-32"/>
     <use xlink:href="#DejaVuSans-44" x="63.623047"/>
     <use xlink:href="#DejaVuSans-2d" x="140.625"/>
     <use xlink:href="#DejaVuSans-70" x="176.708984"/>
     <use xlink:href="#DejaVuSans-61" x="240.185547"/>
     <use xlink:href="#DejaVuSans-72" x="301.464844"/>
     <use xlink:href="#DejaVuSans-74" x="342.578125"/>
     <use xlink:href="#DejaVuSans-69" x="381.787109"/>
     <use xlink:href="#DejaVuSans-61" x="409.570312"/>
     <use xlink:href="#DejaVuSans-6c" x="470.849609"/>
     <use xlink:href="#DejaVuSans-20" x="498.632812"/>
     <use xlink:href="#DejaVuSans-64" x="530.419922"/>
     <use xlink:href="#DejaVuSans-65" x="593.896484"/>
     <use xlink:href="#DejaVuSans-70" x="655.419922"/>
     <use xlink:href="#DejaVuSans-65" x="718.896484"/>
     <use xlink:href="#DejaVuSans-6e" x="780.419922"/>
     <use xlink:href="#DejaVuSans-64" x="843.798828"/>
     <use xlink:href="#DejaVuSans-65" x="907.275391"/>
     <use xlink:href="#DejaVuSans-6e" x="968.798828"/>
     <use xlink:href="#DejaVuSans-63" x="1032.177734"/>
     <use xlink:href="#DejaVuSans-79" x="1087.158203"/>
     <use xlink:href="#DejaVuSans-20" x="1146.337891"/>
     <use xlink:href="#DejaVuSans-70" x="1178.125"/>
     <use xlink:href="#DejaVuSans-6c" x="1241.601562"/>
     <use xlink:href="#DejaVuSans-6f" x="1269.384766"/>
     <use xlink:href="#DejaVuSans-74" x="1330.566406"/>
     <use xlink:href="#DejaVuSans-20" x="1369.775391"/>
     <use xlink:href="#DejaVuSans-62" x="1401.5625"/>
     <use xlink:href="#DejaVuSans-65" x="1465.039062"/>
     <use xlink:href="#DejaVuSans-74" x="1526.5625"/>
     <use xlink:href="#DejaVuSans-77" x="1565.771484"/>
     <use xlink:href="#DejaVuSans-65" x="1647.558594"/>
     <use xlink:href="#DejaVuSans-65" x="1709.082031"/>
     <use xlink:href="#DejaVuSans-6e" x="1770.605469"/>
     <use xlink:href="#DejaVuSans-20" x="1833.984375"/>
     <use xlink:href="#DejaVuSans-50" x="1865.771484"/>
     <use xlink:href="#DejaVuSans-4c" x="1926.074219"/>
     <use xlink:href="#DejaVuSans-20" x="1981.787109"/>
     <use xlink:href="#DejaVuSans-61" x="2013.574219"/>
     <use xlink:href="#DejaVuSans-6e" x="2074.853516"/>
     <use xlink:href="#DejaVuSans-64" x="2138.232422"/>
     <use xlink:href="#DejaVuSans-20" x="2201.708984"/>
     <use xlink:href="#DejaVuSans-4f" x="2233.496094"/>
     <use xlink:href="#DejaVuSans-62" x="2312.207031"/>
     <use xlink:href="#DejaVuSans-65" x="2375.683594"/>
     <use xlink:href="#DejaVuSans-73" x="2437.207031"/>
     <use xlink:href="#DejaVuSans-69" x="2489.306641"/>
     <use xlink:href="#DejaVuSans-74" x="2517.089844"/>
     <use xlink:href="#DejaVuSans-79" x="2556.298828"/>
    </g>
   </g>
   <g id="text_16">
    <g clip-path="url(#p7b6db9ecb5)">
     <!-- 12.96 -->
     <g transform="translate(62.309178 78.229938) rotate(-270) scale(0.1 -0.1)">
      <defs>
       <path id="DejaVuSans-39" d="M 703 97 
L 703 672 
Q 941 559 1184 500 
Q 1428 441 1663 441 
Q 2288 441 2617 861 
Q 2947 1281 2994 2138 
Q 2813 1869 2534 1725 
Q 2256 1581 1919 1581 
Q 1219 1581 811 2004 
Q 403 2428 403 3163 
Q 403 3881 828 4315 
Q 1253 4750 1959 4750 
Q 2769 4750 3195 4129 
Q 3622 3509 3622 2328 
Q 3622 1225 3098 567 
Q 2575 -91 1691 -91 
Q 1453 -91 1209 -44 
Q 966 3 703 97 
z
M 1959 2075 
Q 2384 2075 2632 2365 
Q 2881 2656 2881 3163 
Q 2881 3666 2632 3958 
Q 2384 4250 1959 4250 
Q 1534 4250 1286 3958 
Q 1038 3666 1038 3163 
Q 1038 2656 1286 2365 
Q 1534 2075 1959 2075 
z
" transform="scale(0.015625)"/>
      </defs>
      <use xlink:href="#DejaVuSans-31"/>
      <use xlink:href="#DejaVuSans-32" x="63.623047"/>
      <use xlink:href="#DejaVuSans-2e" x="127.246094"/>
      <use xlink:href="#DejaVuSans-39" x="159.033203"/>
      <use xlink:href="#DejaVuSans-36" x="222.65625"/>
     </g>
    </g>
   </g>
   <g id="text_17">
    <g clip-path="url(#p7b6db9ecb5)">
     <!-- 12.98 -->
     <g transform="translate(78.883647 287.893937) rotate(-270) scale(0.1 -0.1)">
      <defs>
       <path id="DejaVuSans-38" d="M 2034 2216 
Q 1584 2216 1326 1975 
Q 1069 1734 1069 1313 
Q 1069 891 1326 650 
Q 1584 409 2034 409 
Q 2484 409 2743 651 
Q 3003 894 3003 1313 
Q 3003 1734 2745 1975 
Q 2488 2216 2034 2216 
z
M 1403 2484 
Q 997 2584 770 2862 
Q 544 3141 544 3541 
Q 544 4100 942 4425 
Q 1341 4750 2034 4750 
Q 2731 4750 3128 4425 
Q 3525 4100 3525 3541 
Q 3525 3141 3298 2862 
Q 3072 2584 2669 2484 
Q 3125 2378 3379 2068 
Q 3634 1759 3634 1313 
Q 3634 634 3220 271 
Q 2806 -91 2034 -91 
Q 1263 -91 848 271 
Q 434 634 434 1313 
Q 434 1759 690 2068 
Q 947 2378 1403 2484 
z
M 1172 3481 
Q 1172 3119 1398 2916 
Q 1625 2713 2034 2713 
Q 2441 2713 2670 2916 
Q 2900 3119 2900 3481 
Q 2900 3844 2670 4047 
Q 2441 4250 2034 4250 
Q 1625 4250 1398 4047 
Q 1172 3844 1172 3481 
z
" transform="scale(0.015625)"/>
      </defs>
      <use xlink:href="#DejaVuSans-31"/>
      <use xlink:href="#DejaVuSans-32" x="63.623047"/>
      <use xlink:href="#DejaVuSans-2e" x="127.246094"/>
      <use xlink:href="#DejaVuSans-39" x="159.033203"/>
      <use xlink:href="#DejaVuSans-38" x="222.65625"/>
     </g>
    </g>
   </g>
   <g id="text_18">
    <g clip-path="url(#p7b6db9ecb5)">
     <!-- 13.00 -->
     <g transform="translate(90.90088 183.061937) rotate(-270) scale(0.1 -0.1)">
      <use xlink:href="#DejaVuSans-31"/>
      <use xlink:href="#DejaVuSans-33" x="63.623047"/>
      <use xlink:href="#DejaVuSans-2e" x="127.246094"/>
      <use xlink:href="#DejaVuSans-30" x="159.033203"/>
      <use xlink:href="#DejaVuSans-30" x="222.65625"/>
     </g>
    </g>
   </g>
   <g id="text_19">
    <g clip-path="url(#p7b6db9ecb5)">
     <!-- 13.02 -->
     <g transform="translate(105.196731 78.229938) rotate(-270) scale(0.1 -0.1)">
      <use xlink:href="#DejaVuSans-31"/>
      <use xlink:href="#DejaVuSans-33" x="63.623047"/>
      <use xlink:href="#DejaVuSans-2e" x="127.246094"/>
      <use xlink:href="#DejaVuSans-30" x="159.033203"/>
      <use xlink:href="#DejaVuSans-32" x="222.65625"/>
     </g>
    </g>
   </g>
   <g id="text_20">
    <g clip-path="url(#p7b6db9ecb5)">
     <!-- 13.04 -->
     <g transform="translate(121.771201 287.893937) rotate(-270) scale(0.1 -0.1)">
      <use xlink:href="#DejaVuSans-31"/>
      <use xlink:href="#DejaVuSans-33" x="63.623047"/>
      <use xlink:href="#DejaVuSans-2e" x="127.246094"/>
      <use xlink:href="#DejaVuSans-30" x="159.033203"/>
      <use xlink:href="#DejaVuSans-34" x="222.65625"/>
     </g>
    </g>
   </g>
   <g id="text_21">
    <g clip-path="url(#p7b6db9ecb5)">
     <!-- 13.06 -->
     <g transform="translate(157.379275 78.229938) rotate(-270) scale(0.1 -0.1)">
      <use xlink:href="#DejaVuSans-31"/>
      <use xlink:href="#DejaVuSans-33" x="63.623047"/>
      <use xlink:href="#DejaVuSans-2e" x="127.246094"/>
      <use xlink:href="#DejaVuSans-30" x="159.033203"/>
      <use xlink:href="#DejaVuSans-36" x="222.65625"/>
     </g>
    </g>
   </g>
  </g>
 </g>
 <defs>
  <clipPath id="p7b6db9ecb5">
   <rect x="57.6" y="41.472" width="357.12" height="266.112"/>
  </clipPath>
 </defs>
</svg>
