<?xml version="1.0" encoding="utf-8" standalone="no"?>
<!DOCTYPE svg PUBLIC "-//W3C//DTD SVG 1.1//EN"
  "http://www.w3.org/Graphics/SVG/1.1/DTD/svg11.dtd">
<svg xmlns:xlink="http://www.w3.org/1999/xlink" width="460.8pt" height="345.6pt" viewBox="0 0 460.8 345.6" xmlns="http://www.w3.org/2000/svg" version="1.1">
 <metadata>
  <rdf:RDF xmlns:dc="http://purl.org/dc/elements/1.1/" xmlns:cc="http://creativecommons.org/ns#" xmlns:rdf="http://www.w3.org/1999/02/22-rdf-syntax-ns#">
   <cc:Work>
    <dc:type rdf:resource="http://purl.org/dc/dcmitype/StillImage"/>
    <dc:date>2024-03-09T16:47:11.228113</dc:date>
    <dc:format>image/svg+xml</dc:format>
    <dc:creator>
     <cc:Agent>
      <dc:title>Matplotlib v3.7.0, https://matplotlib.org/</dc:title>
     </cc:Agent>
    </dc:creator>
   </cc:Work>
  </rdf:RDF>
 </metadata>
 <defs>
  <style type="text/css">*{stroke-linejoin: round; stroke-linecap: butt}</style>
 </defs>
 <g id="figure_1">
  <g id="patch_1">
   <path d="M 0 345.6 
L 460.8 345.6 
L 460.8 0 
L 0 0 
L 0 345.6 
z
" style="fill: none"/>
  </g>
  <g id="axes_1"/>
  <g id="axes_2">
   <g id="patch_2">
    <path d="M 57.6 307.584 
L 414.72 307.584 
L 414.72 41.472 
L 57.6 41.472 
L 57.6 307.584 
z
" style="fill: none"/>
   </g>
   <g id="PathCollection_1">
    <path d="M 61.207273 307.584 
L 64.814545 307.584 
L 68.421818 307.584 
L 72.029091 307.584 
L 75.636364 307.584 
L 79.243636 307.584 
L 82.850909 307.584 
L 86.458182 307.584 
L 90.065455 307.584 
L 93.672727 307.584 
L 97.28 307.584 
L 100.887273 307.584 
L 104.494545 307.584 
L 108.101818 307.584 
L 111.709091 307.584 
L 115.316364 307.584 
L 118.923636 307.584 
L 122.530909 307.584 
L 126.138182 307.584 
L 129.745455 307.584 
L 133.352727 307.584 
L 136.96 307.584 
L 140.567273 307.584 
L 144.174545 307.584 
L 147.781818 307.584 
L 151.389091 307.584 
L 154.996364 307.584 
L 158.603636 307.584 
L 162.210909 307.584 
L 165.818182 307.584 
L 169.425455 307.584 
L 173.032727 307.584 
L 176.64 307.584 
L 180.247273 307.584 
L 183.854545 307.584 
L 187.461818 307.584 
L 191.069091 307.584 
L 194.676364 307.584 
L 198.283636 307.584 
L 201.890909 307.584 
L 205.498182 307.584 
L 209.105455 307.584 
L 212.712727 307.584 
L 216.32 307.584 
L 219.927273 307.584 
L 223.534545 307.584 
L 227.141818 307.584 
L 230.749091 307.584 
L 234.356364 307.584 
L 237.963636 307.584 
L 241.570909 307.584 
L 245.178182 307.584 
L 248.785455 307.584 
L 252.392727 307.584 
L 256 307.584 
L 259.607273 307.584 
L 263.214545 307.584 
L 266.821818 307.584 
L 270.429091 307.584 
L 274.036364 307.584 
L 277.643636 307.584 
L 281.250909 307.584 
L 284.858182 307.584 
L 288.465455 307.584 
L 292.072727 307.584 
L 295.68 307.584 
L 299.287273 307.584 
L 302.894545 307.584 
L 306.501818 307.584 
L 310.109091 307.584 
L 313.716364 307.584 
L 317.323636 307.584 
L 320.930909 307.584 
L 324.538182 307.584 
L 328.145455 307.584 
L 331.752727 307.584 
L 335.36 307.584 
L 338.967273 307.584 
L 342.574545 307.584 
L 346.181818 307.584 
L 349.789091 307.584 
L 353.396364 307.584 
L 357.003636 307.584 
L 360.610909 307.584 
L 364.218182 307.584 
L 367.825455 307.584 
L 371.432727 307.584 
L 375.04 307.584 
L 378.647273 307.584 
L 382.254545 307.584 
L 385.861818 307.584 
L 389.469091 307.584 
L 393.076364 307.584 
L 396.683636 307.584 
L 400.290909 307.584 
L 403.898182 307.584 
L 407.505455 307.584 
L 411.112727 307.584 
L 414.72 307.584 
L 414.72 304.896 
L 414.72 302.208 
L 414.72 299.52 
L 414.72 296.832 
L 414.72 294.144 
L 414.72 291.456 
L 414.72 288.768 
L 414.72 286.08 
L 414.72 283.392 
L 414.72 280.704 
L 414.72 278.016 
L 414.72 275.328 
L 414.72 272.64 
L 414.72 269.952 
L 414.72 267.264 
L 414.72 264.576 
L 414.72 261.888 
L 414.72 259.2 
L 414.72 256.512 
L 414.72 253.824 
L 414.72 251.136 
L 414.72 248.448 
L 414.72 245.76 
L 414.72 243.072 
L 414.72 240.384 
L 414.72 237.696 
L 414.72 235.008 
L 414.72 232.32 
L 414.72 229.632 
L 414.72 226.944 
L 414.72 224.256 
L 414.72 221.568 
L 414.72 218.88 
L 414.72 216.192 
L 414.72 213.504 
L 414.72 210.816 
L 414.72 208.128 
L 414.72 205.44 
L 414.72 202.752 
L 414.72 200.064 
L 414.72 197.376 
L 414.72 194.688 
L 414.72 192 
L 414.72 189.312 
L 414.72 186.624 
L 414.72 185.62098 
L 411.112727 185.62098 
L 407.505455 185.62098 
L 403.898182 185.62098 
L 400.290909 185.62098 
L 396.683636 185.62098 
L 393.076364 185.62098 
L 389.469091 185.62098 
L 385.861818 185.62098 
L 382.254545 185.62098 
L 378.647273 185.62098 
L 375.04 185.62098 
L 371.432727 185.62098 
L 367.825455 185.62098 
L 364.218182 185.62098 
L 360.610909 185.62098 
L 357.003636 185.62098 
L 353.396364 185.62098 
L 349.789091 185.62098 
L 346.181818 185.62098 
L 342.574545 185.62098 
L 338.967273 185.62098 
L 335.36 185.62098 
L 331.752727 185.62098 
L 328.145455 185.62098 
L 324.538182 185.62098 
L 320.930909 185.62098 
L 317.323636 185.62098 
L 313.716364 185.62098 
L 310.109091 185.62098 
L 306.501818 185.62098 
L 302.894545 185.62098 
L 299.287273 185.62098 
L 295.68 185.62098 
L 292.072727 185.62098 
L 288.465455 185.62098 
L 284.858182 185.62098 
L 281.250909 185.62098 
L 277.643636 185.62098 
L 274.036364 185.62098 
L 270.429091 185.805389 
L 266.821818 185.805389 
L 263.214545 186.000232 
L 259.607273 186.220215 
L 256 186.220215 
L 252.392727 186.220215 
L 248.785455 186.220215 
L 245.178182 186.220215 
L 241.570909 186.220215 
L 237.963636 186.220215 
L 234.356364 186.220215 
L 230.749091 186.220215 
L 227.141818 186.220215 
L 223.534545 186.220215 
L 219.927273 186.220215 
L 216.32 186.220215 
L 212.712727 186.220215 
L 209.105455 186.220215 
L 205.498182 186.298435 
L 201.890909 186.298435 
L 198.283636 186.298435 
L 194.676364 186.298435 
L 191.069091 186.298435 
L 187.461818 186.298435 
L 183.854545 186.298435 
L 180.247273 186.298435 
L 176.64 186.298435 
L 173.032727 186.298435 
L 169.425455 186.298435 
L 165.818182 186.298435 
L 162.210909 186.298435 
L 158.603636 186.298435 
L 154.996364 186.298435 
L 151.389091 186.298435 
L 147.781818 186.298435 
L 144.174545 186.298435 
L 140.567273 186.298435 
L 136.96 186.298435 
L 133.352727 186.298435 
L 129.745455 186.298435 
L 126.138182 186.298435 
L 122.530909 186.298435 
L 118.923636 186.298435 
L 115.316364 186.298435 
L 111.709091 186.298435 
L 108.101818 186.298435 
L 104.494545 186.298435 
L 100.887273 186.298435 
L 97.28 186.298435 
L 93.672727 186.298435 
L 90.065455 186.298435 
L 86.458182 186.298435 
L 82.850909 186.187186 
L 79.243636 186.187186 
L 75.636364 186.187186 
L 72.029091 186.187186 
L 68.421818 186.187186 
L 64.814545 186.187186 
L 61.207273 186.187186 
L 57.6 186.187186 
L 57.6 186.624 
L 57.6 189.312 
L 57.6 192 
L 57.6 194.688 
L 57.6 197.376 
L 57.6 200.064 
L 57.6 202.752 
L 57.6 205.44 
L 57.6 208.128 
L 57.6 210.816 
L 57.6 213.504 
L 57.6 216.192 
L 57.6 218.88 
L 57.6 221.568 
L 57.6 224.256 
L 57.6 226.944 
L 57.6 229.632 
L 57.6 232.32 
L 57.6 235.008 
L 57.6 237.696 
L 57.6 240.384 
L 57.6 243.072 
L 57.6 245.76 
L 57.6 248.448 
L 57.6 251.136 
L 57.6 253.824 
L 57.6 256.512 
L 57.6 259.2 
L 57.6 261.888 
L 57.6 264.576 
L 57.6 267.264 
L 57.6 269.952 
L 57.6 272.64 
L 57.6 275.328 
L 57.6 278.016 
L 57.6 280.704 
L 57.6 283.392 
L 57.6 286.08 
L 57.6 288.768 
L 57.6 291.456 
L 57.6 294.144 
L 57.6 296.832 
L 57.6 299.52 
L 57.6 302.208 
L 57.6 304.896 
L 57.6 307.584 
z
" clip-path="url(#pbf013b36bf)" style="fill: #481b6d; fill-opacity: 0.75"/>
   </g>
   <g id="PathCollection_2">
    <path d="M 61.207273 186.187186 
L 64.814545 186.187186 
L 68.421818 186.187186 
L 72.029091 186.187186 
L 75.636364 186.187186 
L 79.243636 186.187186 
L 82.850909 186.187186 
L 86.458182 186.298435 
L 90.065455 186.298435 
L 93.672727 186.298435 
L 97.28 186.298435 
L 100.887273 186.298435 
L 104.494545 186.298435 
L 108.101818 186.298435 
L 111.709091 186.298435 
L 115.316364 186.298435 
L 118.923636 186.298435 
L 122.530909 186.298435 
L 126.138182 186.298435 
L 129.745455 186.298435 
L 133.352727 186.298435 
L 136.96 186.298435 
L 140.567273 186.298435 
L 144.174545 186.298435 
L 147.781818 186.298435 
L 151.389091 186.298435 
L 154.996364 186.298435 
L 158.603636 186.298435 
L 162.210909 186.298435 
L 165.818182 186.298435 
L 169.425455 186.298435 
L 173.032727 186.298435 
L 176.64 186.298435 
L 180.247273 186.298435 
L 183.854545 186.298435 
L 187.461818 186.298435 
L 191.069091 186.298435 
L 194.676364 186.298435 
L 198.283636 186.298435 
L 201.890909 186.298435 
L 205.498182 186.298435 
L 209.105455 186.220215 
L 212.712727 186.220215 
L 216.32 186.220215 
L 219.927273 186.220215 
L 223.534545 186.220215 
L 227.141818 186.220215 
L 230.749091 186.220215 
L 234.356364 186.220215 
L 237.963636 186.220215 
L 241.570909 186.220215 
L 245.178182 186.220215 
L 248.785455 186.220215 
L 252.392727 186.220215 
L 256 186.220215 
L 259.607273 186.220215 
L 263.214545 186.000232 
L 266.821818 185.805389 
L 270.429091 185.805389 
L 274.036364 185.62098 
L 277.643636 185.62098 
L 281.250909 185.62098 
L 284.858182 185.62098 
L 288.465455 185.62098 
L 292.072727 185.62098 
L 295.68 185.62098 
L 299.287273 185.62098 
L 302.894545 185.62098 
L 306.501818 185.62098 
L 310.109091 185.62098 
L 313.716364 185.62098 
L 317.323636 185.62098 
L 320.930909 185.62098 
L 324.538182 185.62098 
L 328.145455 185.62098 
L 331.752727 185.62098 
L 335.36 185.62098 
L 338.967273 185.62098 
L 342.574545 185.62098 
L 346.181818 185.62098 
L 349.789091 185.62098 
L 353.396364 185.62098 
L 357.003636 185.62098 
L 360.610909 185.62098 
L 364.218182 185.62098 
L 367.825455 185.62098 
L 371.432727 185.62098 
L 375.04 185.62098 
L 378.647273 185.62098 
L 382.254545 185.62098 
L 385.861818 185.62098 
L 389.469091 185.62098 
L 393.076364 185.62098 
L 396.683636 185.62098 
L 400.290909 185.62098 
L 403.898182 185.62098 
L 407.505455 185.62098 
L 411.112727 185.62098 
L 414.72 185.62098 
L 414.72 183.936 
L 414.72 181.248 
L 414.72 178.56 
L 414.72 175.872 
L 414.72 173.184 
L 414.72 170.496 
L 414.72 167.808 
L 414.72 165.12 
L 414.72 162.432 
L 414.72 159.744 
L 414.72 157.056 
L 414.72 154.368 
L 414.72 151.68 
L 414.72 148.992 
L 414.72 146.304 
L 414.72 143.616 
L 414.72 143.059515 
L 411.112727 143.059515 
L 407.505455 143.059515 
L 403.898182 143.059515 
L 400.290909 143.059515 
L 396.683636 143.059515 
L 393.076364 143.059515 
L 389.469091 143.059515 
L 385.861818 143.059515 
L 382.254545 143.059515 
L 378.647273 143.059515 
L 375.04 143.059515 
L 371.432727 143.059515 
L 367.825455 143.059515 
L 364.218182 143.059515 
L 360.610909 143.059515 
L 357.003636 143.059515 
L 353.396364 143.059515 
L 349.789091 143.059515 
L 346.181818 143.059515 
L 342.574545 143.059515 
L 338.967273 143.059515 
L 335.36 143.059515 
L 331.752727 143.059515 
L 328.145455 143.059515 
L 324.538182 143.059515 
L 320.930909 143.059515 
L 317.323636 143.059515 
L 313.716364 143.059515 
L 310.109091 143.059515 
L 306.501818 143.059515 
L 302.894545 143.059515 
L 299.287273 143.059515 
L 295.68 143.059515 
L 292.072727 143.059515 
L 288.465455 143.059515 
L 284.858182 143.059515 
L 281.250909 143.059515 
L 277.643636 143.059515 
L 274.036364 143.059515 
L 270.429091 143.065839 
L 266.821818 143.065839 
L 263.214545 143.072563 
L 259.607273 143.080204 
L 256 143.080204 
L 252.392727 143.080204 
L 248.785455 143.080204 
L 245.178182 143.080204 
L 241.570909 143.080204 
L 237.963636 143.080204 
L 234.356364 143.080204 
L 230.749091 143.080204 
L 227.141818 143.080204 
L 223.534545 143.080204 
L 219.927273 143.080204 
L 216.32 143.080204 
L 212.712727 143.080204 
L 209.105455 143.080204 
L 205.498182 143.082935 
L 201.890909 143.082935 
L 198.283636 143.082935 
L 194.676364 143.082935 
L 191.069091 143.082935 
L 187.461818 143.082935 
L 183.854545 143.082935 
L 180.247273 143.082935 
L 176.64 143.082935 
L 173.032727 143.082935 
L 169.425455 143.082935 
L 165.818182 143.082935 
L 162.210909 143.082935 
L 158.603636 143.082935 
L 154.996364 143.082935 
L 151.389091 143.082935 
L 147.781818 143.082935 
L 144.174545 143.082935 
L 140.567273 143.082935 
L 136.96 143.082935 
L 133.352727 143.082935 
L 129.745455 143.082935 
L 126.138182 143.082935 
L 122.530909 143.088746 
L 118.923636 143.088746 
L 115.316364 143.093796 
L 111.709091 143.093796 
L 108.101818 143.093796 
L 104.494545 143.093796 
L 100.887273 143.093796 
L 97.28 143.093796 
L 93.672727 143.093796 
L 90.065455 143.093796 
L 86.458182 143.093796 
L 82.850909 143.089045 
L 79.243636 143.089045 
L 75.636364 143.089045 
L 72.029091 143.089045 
L 68.421818 143.089045 
L 64.814545 143.089045 
L 61.207273 143.089045 
L 57.6 143.089045 
L 57.6 143.616 
L 57.6 146.304 
L 57.6 148.992 
L 57.6 151.68 
L 57.6 154.368 
L 57.6 157.056 
L 57.6 159.744 
L 57.6 162.432 
L 57.6 165.12 
L 57.6 167.808 
L 57.6 170.496 
L 57.6 173.184 
L 57.6 175.872 
L 57.6 178.56 
L 57.6 181.248 
L 57.6 183.936 
L 57.6 186.187186 
z
" clip-path="url(#pbf013b36bf)" style="fill: #3f4788; fill-opacity: 0.75"/>
   </g>
   <g id="PathCollection_3">
    <path d="M 61.207273 143.089045 
L 64.814545 143.089045 
L 68.421818 143.089045 
L 72.029091 143.089045 
L 75.636364 143.089045 
L 79.243636 143.089045 
L 82.850909 143.089045 
L 86.458182 143.093796 
L 90.065455 143.093796 
L 93.672727 143.093796 
L 97.28 143.093796 
L 100.887273 143.093796 
L 104.494545 143.093796 
L 108.101818 143.093796 
L 111.709091 143.093796 
L 115.316364 143.093796 
L 118.923636 143.088746 
L 122.530909 143.088746 
L 126.138182 143.082935 
L 129.745455 143.082935 
L 133.352727 143.082935 
L 136.96 143.082935 
L 140.567273 143.082935 
L 144.174545 143.082935 
L 147.781818 143.082935 
L 151.389091 143.082935 
L 154.996364 143.082935 
L 158.603636 143.082935 
L 162.210909 143.082935 
L 165.818182 143.082935 
L 169.425455 143.082935 
L 173.032727 143.082935 
L 176.64 143.082935 
L 180.247273 143.082935 
L 183.854545 143.082935 
L 187.461818 143.082935 
L 191.069091 143.082935 
L 194.676364 143.082935 
L 198.283636 143.082935 
L 201.890909 143.082935 
L 205.498182 143.082935 
L 209.105455 143.080204 
L 212.712727 143.080204 
L 216.32 143.080204 
L 219.927273 143.080204 
L 223.534545 143.080204 
L 227.141818 143.080204 
L 230.749091 143.080204 
L 234.356364 143.080204 
L 237.963636 143.080204 
L 241.570909 143.080204 
L 245.178182 143.080204 
L 248.785455 143.080204 
L 252.392727 143.080204 
L 256 143.080204 
L 259.607273 143.080204 
L 263.214545 143.072563 
L 266.821818 143.065839 
L 270.429091 143.065839 
L 274.036364 143.059515 
L 277.643636 143.059515 
L 281.250909 143.059515 
L 284.858182 143.059515 
L 288.465455 143.059515 
L 292.072727 143.059515 
L 295.68 143.059515 
L 299.287273 143.059515 
L 302.894545 143.059515 
L 306.501818 143.059515 
L 310.109091 143.059515 
L 313.716364 143.059515 
L 317.323636 143.059515 
L 320.930909 143.059515 
L 324.538182 143.059515 
L 328.145455 143.059515 
L 331.752727 143.059515 
L 335.36 143.059515 
L 338.967273 143.059515 
L 342.574545 143.059515 
L 346.181818 143.059515 
L 349.789091 143.059515 
L 353.396364 143.059515 
L 357.003636 143.059515 
L 360.610909 143.059515 
L 364.218182 143.059515 
L 367.825455 143.059515 
L 371.432727 143.059515 
L 375.04 143.059515 
L 378.647273 143.059515 
L 382.254545 143.059515 
L 385.861818 143.059515 
L 389.469091 143.059515 
L 393.076364 143.059515 
L 396.683636 143.059515 
L 400.290909 143.059515 
L 403.898182 143.059515 
L 407.505455 143.059515 
L 411.112727 143.059515 
L 414.72 143.059515 
L 414.72 142.09594 
L 411.112727 142.09594 
L 407.505455 142.09594 
L 403.898182 142.09594 
L 400.290909 142.09594 
L 396.683636 142.09594 
L 393.076364 142.09594 
L 389.469091 142.09594 
L 385.861818 142.09594 
L 382.254545 142.09594 
L 378.647273 142.09594 
L 375.04 142.09594 
L 371.432727 142.09594 
L 367.825455 142.09594 
L 364.218182 142.09594 
L 360.610909 142.09594 
L 357.003636 142.09594 
L 353.396364 142.09594 
L 349.789091 142.09594 
L 346.181818 142.09594 
L 342.574545 142.09594 
L 338.967273 142.09594 
L 335.36 142.09594 
L 331.752727 142.09594 
L 328.145455 142.09594 
L 324.538182 142.09594 
L 320.930909 142.09594 
L 317.323636 142.09594 
L 313.716364 142.09594 
L 310.109091 142.09594 
L 306.501818 142.09594 
L 302.894545 142.09594 
L 299.287273 142.09594 
L 295.68 142.09594 
L 292.072727 142.09594 
L 288.465455 142.09594 
L 284.858182 142.09594 
L 281.250909 142.09594 
L 277.643636 142.09594 
L 274.036364 142.09594 
L 270.429091 142.099405 
L 266.821818 142.099405 
L 263.214545 142.103089 
L 259.607273 142.107276 
L 256 142.107276 
L 252.392727 142.107276 
L 248.785455 142.107276 
L 245.178182 142.107276 
L 241.570909 142.107276 
L 237.963636 142.107276 
L 234.356364 142.107276 
L 230.749091 142.107276 
L 227.141818 142.107276 
L 223.534545 142.107276 
L 219.927273 142.107276 
L 216.32 142.107276 
L 212.712727 142.107276 
L 209.105455 142.107276 
L 205.498182 142.108772 
L 201.890909 142.108772 
L 198.283636 142.108772 
L 194.676364 142.108772 
L 191.069091 142.108772 
L 187.461818 142.108772 
L 183.854545 142.108772 
L 180.247273 142.108772 
L 176.64 142.108772 
L 173.032727 142.108772 
L 169.425455 142.108772 
L 165.818182 142.108772 
L 162.210909 142.108772 
L 158.603636 142.108772 
L 154.996364 142.108772 
L 151.389091 142.108772 
L 147.781818 142.108772 
L 144.174545 142.108772 
L 140.567273 142.108772 
L 136.96 142.108772 
L 133.352727 142.108772 
L 129.745455 142.108772 
L 126.138182 142.108772 
L 122.530909 142.125205 
L 118.923636 142.125205 
L 115.316364 142.139483 
L 111.709091 142.139483 
L 108.101818 142.139483 
L 104.494545 142.139483 
L 100.887273 142.139483 
L 97.28 142.139483 
L 93.672727 142.139483 
L 90.065455 142.139483 
L 86.458182 142.139483 
L 82.850909 142.134732 
L 79.243636 142.134732 
L 75.636364 142.134732 
L 72.029091 142.134732 
L 68.421818 142.134732 
L 64.814545 142.134732 
L 61.207273 142.134732 
L 57.6 142.134732 
L 57.6 143.089045 
z
" clip-path="url(#pbf013b36bf)" style="fill: #2e6e8e; fill-opacity: 0.75"/>
   </g>
   <g id="PathCollection_4">
    <path d="M 61.207273 142.134732 
L 64.814545 142.134732 
L 68.421818 142.134732 
L 72.029091 142.134732 
L 75.636364 142.134732 
L 79.243636 142.134732 
L 82.850909 142.134732 
L 86.458182 142.139483 
L 90.065455 142.139483 
L 93.672727 142.139483 
L 97.28 142.139483 
L 100.887273 142.139483 
L 104.494545 142.139483 
L 108.101818 142.139483 
L 111.709091 142.139483 
L 115.316364 142.139483 
L 118.923636 142.125205 
L 122.530909 142.125205 
L 126.138182 142.108772 
L 129.745455 142.108772 
L 133.352727 142.108772 
L 136.96 142.108772 
L 140.567273 142.108772 
L 144.174545 142.108772 
L 147.781818 142.108772 
L 151.389091 142.108772 
L 154.996364 142.108772 
L 158.603636 142.108772 
L 162.210909 142.108772 
L 165.818182 142.108772 
L 169.425455 142.108772 
L 173.032727 142.108772 
L 176.64 142.108772 
L 180.247273 142.108772 
L 183.854545 142.108772 
L 187.461818 142.108772 
L 191.069091 142.108772 
L 194.676364 142.108772 
L 198.283636 142.108772 
L 201.890909 142.108772 
L 205.498182 142.108772 
L 209.105455 142.107276 
L 212.712727 142.107276 
L 216.32 142.107276 
L 219.927273 142.107276 
L 223.534545 142.107276 
L 227.141818 142.107276 
L 230.749091 142.107276 
L 234.356364 142.107276 
L 237.963636 142.107276 
L 241.570909 142.107276 
L 245.178182 142.107276 
L 248.785455 142.107276 
L 252.392727 142.107276 
L 256 142.107276 
L 259.607273 142.107276 
L 263.214545 142.103089 
L 266.821818 142.099405 
L 270.429091 142.099405 
L 274.036364 142.09594 
L 277.643636 142.09594 
L 281.250909 142.09594 
L 284.858182 142.09594 
L 288.465455 142.09594 
L 292.072727 142.09594 
L 295.68 142.09594 
L 299.287273 142.09594 
L 302.894545 142.09594 
L 306.501818 142.09594 
L 310.109091 142.09594 
L 313.716364 142.09594 
L 317.323636 142.09594 
L 320.930909 142.09594 
L 324.538182 142.09594 
L 328.145455 142.09594 
L 331.752727 142.09594 
L 335.36 142.09594 
L 338.967273 142.09594 
L 342.574545 142.09594 
L 346.181818 142.09594 
L 349.789091 142.09594 
L 353.396364 142.09594 
L 357.003636 142.09594 
L 360.610909 142.09594 
L 364.218182 142.09594 
L 367.825455 142.09594 
L 371.432727 142.09594 
L 375.04 142.09594 
L 378.647273 142.09594 
L 382.254545 142.09594 
L 385.861818 142.09594 
L 389.469091 142.09594 
L 393.076364 142.09594 
L 396.683636 142.09594 
L 400.290909 142.09594 
L 403.898182 142.09594 
L 407.505455 142.09594 
L 411.112727 142.09594 
L 414.72 142.09594 
L 414.72 141.132364 
L 411.112727 141.132364 
L 407.505455 141.132364 
L 403.898182 141.132364 
L 400.290909 141.132364 
L 396.683636 141.132364 
L 393.076364 141.132364 
L 389.469091 141.132364 
L 385.861818 141.132364 
L 382.254545 141.132364 
L 378.647273 141.132364 
L 375.04 141.132364 
L 371.432727 141.132364 
L 367.825455 141.132364 
L 364.218182 141.132364 
L 360.610909 141.132364 
L 357.003636 141.132364 
L 353.396364 141.132364 
L 349.789091 141.132364 
L 346.181818 141.132364 
L 342.574545 141.132364 
L 338.967273 141.132364 
L 335.36 141.132364 
L 331.752727 141.132364 
L 328.145455 141.132364 
L 324.538182 141.132364 
L 320.930909 141.132364 
L 317.323636 141.132364 
L 313.716364 141.132364 
L 310.109091 141.132364 
L 306.501818 141.132364 
L 302.894545 141.132364 
L 299.287273 141.132364 
L 295.68 141.132364 
L 292.072727 141.132364 
L 288.465455 141.132364 
L 284.858182 141.132364 
L 281.250909 141.132364 
L 277.643636 141.132364 
L 274.036364 141.132364 
L 270.429091 141.132971 
L 266.821818 141.132971 
L 263.214545 141.133615 
L 259.607273 141.134348 
L 256 141.134348 
L 252.392727 141.134348 
L 248.785455 141.134348 
L 245.178182 141.134348 
L 241.570909 141.134348 
L 237.963636 141.134348 
L 234.356364 141.134348 
L 230.749091 141.134348 
L 227.141818 141.134348 
L 223.534545 141.134348 
L 219.927273 141.134348 
L 216.32 141.134348 
L 212.712727 141.134348 
L 209.105455 141.134348 
L 205.498182 141.13461 
L 201.890909 141.13461 
L 198.283636 141.13461 
L 194.676364 141.13461 
L 191.069091 141.13461 
L 187.461818 141.13461 
L 183.854545 141.13461 
L 180.247273 141.13461 
L 176.64 141.13461 
L 173.032727 141.13461 
L 169.425455 141.13461 
L 165.818182 141.13461 
L 162.210909 141.13461 
L 158.603636 141.13461 
L 154.996364 141.13461 
L 151.389091 141.13461 
L 147.781818 141.13461 
L 144.174545 141.13461 
L 140.567273 141.13461 
L 136.96 141.13461 
L 133.352727 141.13461 
L 129.745455 141.13461 
L 126.138182 141.13461 
L 122.530909 141.161663 
L 118.923636 141.161663 
L 115.316364 141.185169 
L 111.709091 141.185169 
L 108.101818 141.185169 
L 104.494545 141.185169 
L 100.887273 141.185169 
L 97.28 141.185169 
L 93.672727 141.185169 
L 90.065455 141.185169 
L 86.458182 141.185169 
L 82.850909 141.180418 
L 79.243636 141.180418 
L 75.636364 141.180418 
L 72.029091 141.180418 
L 68.421818 141.180418 
L 64.814545 141.180418 
L 61.207273 141.180418 
L 57.6 141.180418 
L 57.6 142.134732 
z
" clip-path="url(#pbf013b36bf)" style="fill: #21918c; fill-opacity: 0.75"/>
   </g>
   <g id="PathCollection_5">
    <path d="M 61.207273 141.180418 
L 64.814545 141.180418 
L 68.421818 141.180418 
L 72.029091 141.180418 
L 75.636364 141.180418 
L 79.243636 141.180418 
L 82.850909 141.180418 
L 86.458182 141.185169 
L 90.065455 141.185169 
L 93.672727 141.185169 
L 97.28 141.185169 
L 100.887273 141.185169 
L 104.494545 141.185169 
L 108.101818 141.185169 
L 111.709091 141.185169 
L 115.316364 141.185169 
L 118.923636 141.161663 
L 122.530909 141.161663 
L 126.138182 141.13461 
L 129.745455 141.13461 
L 133.352727 141.13461 
L 136.96 141.13461 
L 140.567273 141.13461 
L 144.174545 141.13461 
L 147.781818 141.13461 
L 151.389091 141.13461 
L 154.996364 141.13461 
L 158.603636 141.13461 
L 162.210909 141.13461 
L 165.818182 141.13461 
L 169.425455 141.13461 
L 173.032727 141.13461 
L 176.64 141.13461 
L 180.247273 141.13461 
L 183.854545 141.13461 
L 187.461818 141.13461 
L 191.069091 141.13461 
L 194.676364 141.13461 
L 198.283636 141.13461 
L 201.890909 141.13461 
L 205.498182 141.13461 
L 209.105455 141.134348 
L 212.712727 141.134348 
L 216.32 141.134348 
L 219.927273 141.134348 
L 223.534545 141.134348 
L 227.141818 141.134348 
L 230.749091 141.134348 
L 234.356364 141.134348 
L 237.963636 141.134348 
L 241.570909 141.134348 
L 245.178182 141.134348 
L 248.785455 141.134348 
L 252.392727 141.134348 
L 256 141.134348 
L 259.607273 141.134348 
L 263.214545 141.133615 
L 266.821818 141.132971 
L 270.429091 141.132971 
L 274.036364 141.132364 
L 277.643636 141.132364 
L 281.250909 141.132364 
L 284.858182 141.132364 
L 288.465455 141.132364 
L 292.072727 141.132364 
L 295.68 141.132364 
L 299.287273 141.132364 
L 302.894545 141.132364 
L 306.501818 141.132364 
L 310.109091 141.132364 
L 313.716364 141.132364 
L 317.323636 141.132364 
L 320.930909 141.132364 
L 324.538182 141.132364 
L 328.145455 141.132364 
L 331.752727 141.132364 
L 335.36 141.132364 
L 338.967273 141.132364 
L 342.574545 141.132364 
L 346.181818 141.132364 
L 349.789091 141.132364 
L 353.396364 141.132364 
L 357.003636 141.132364 
L 360.610909 141.132364 
L 364.218182 141.132364 
L 367.825455 141.132364 
L 371.432727 141.132364 
L 375.04 141.132364 
L 378.647273 141.132364 
L 382.254545 141.132364 
L 385.861818 141.132364 
L 389.469091 141.132364 
L 393.076364 141.132364 
L 396.683636 141.132364 
L 400.290909 141.132364 
L 403.898182 141.132364 
L 407.505455 141.132364 
L 411.112727 141.132364 
L 414.72 141.132364 
L 414.72 140.928 
L 414.72 138.24 
L 414.72 135.79328 
L 411.112727 135.79328 
L 407.505455 135.79328 
L 403.898182 135.79328 
L 400.290909 135.79328 
L 396.683636 135.79328 
L 393.076364 135.79328 
L 389.469091 135.79328 
L 385.861818 135.79328 
L 382.254545 135.79328 
L 378.647273 135.79328 
L 375.04 135.79328 
L 371.432727 135.79328 
L 367.825455 135.79328 
L 364.218182 135.79328 
L 360.610909 135.79328 
L 357.003636 135.79328 
L 353.396364 135.79328 
L 349.789091 135.79328 
L 346.181818 135.79328 
L 342.574545 135.79328 
L 338.967273 135.79328 
L 335.36 135.79328 
L 331.752727 135.79328 
L 328.145455 135.79328 
L 324.538182 135.79328 
L 320.930909 135.79328 
L 317.323636 135.79328 
L 313.716364 135.79328 
L 310.109091 135.79328 
L 306.501818 135.79328 
L 302.894545 135.79328 
L 299.287273 135.79328 
L 295.68 135.79328 
L 292.072727 135.79328 
L 288.465455 135.79328 
L 284.858182 135.79328 
L 281.250909 135.79328 
L 277.643636 135.79328 
L 274.036364 135.79328 
L 270.429091 135.79328 
L 266.821818 135.79328 
L 263.214545 135.79328 
L 259.607273 135.79328 
L 256 135.79328 
L 252.392727 135.79328 
L 248.785455 135.79328 
L 245.178182 135.79328 
L 241.570909 135.79328 
L 237.963636 135.79328 
L 234.356364 135.79328 
L 230.749091 135.79328 
L 227.141818 135.79328 
L 223.534545 135.79328 
L 219.927273 135.79328 
L 216.32 135.79328 
L 212.712727 135.79328 
L 209.105455 135.79328 
L 205.498182 135.79328 
L 201.890909 135.79328 
L 198.283636 135.79328 
L 194.676364 135.79328 
L 191.069091 135.79328 
L 187.461818 135.79328 
L 183.854545 135.79328 
L 180.247273 135.79328 
L 176.64 135.79328 
L 173.032727 135.79328 
L 169.425455 135.79328 
L 165.818182 135.79328 
L 162.210909 135.79328 
L 158.603636 135.79328 
L 154.996364 135.79328 
L 151.389091 135.79328 
L 147.781818 135.79328 
L 144.174545 135.79328 
L 140.567273 135.79328 
L 136.96 135.79328 
L 133.352727 135.79328 
L 129.745455 135.79328 
L 126.138182 135.79328 
L 122.530909 135.887727 
L 118.923636 135.887727 
L 115.316364 135.9715 
L 111.709091 135.9715 
L 108.101818 135.9715 
L 104.494545 135.9715 
L 100.887273 135.9715 
L 97.28 135.9715 
L 93.672727 135.9715 
L 90.065455 135.9715 
L 86.458182 135.9715 
L 82.850909 135.95604 
L 79.243636 135.95604 
L 75.636364 135.95604 
L 72.029091 135.95604 
L 68.421818 135.95604 
L 64.814545 135.95604 
L 61.207273 135.95604 
L 57.6 135.95604 
L 57.6 138.24 
L 57.6 140.928 
L 57.6 141.180418 
z
" clip-path="url(#pbf013b36bf)" style="fill: #2db27d; fill-opacity: 0.75"/>
   </g>
   <g id="PathCollection_6">
    <path d="M 61.207273 135.95604 
L 64.814545 135.95604 
L 68.421818 135.95604 
L 72.029091 135.95604 
L 75.636364 135.95604 
L 79.243636 135.95604 
L 82.850909 135.95604 
L 86.458182 135.9715 
L 90.065455 135.9715 
L 93.672727 135.9715 
L 97.28 135.9715 
L 100.887273 135.9715 
L 104.494545 135.9715 
L 108.101818 135.9715 
L 111.709091 135.9715 
L 115.316364 135.9715 
L 118.923636 135.887727 
L 122.530909 135.887727 
L 126.138182 135.79328 
L 129.745455 135.79328 
L 133.352727 135.79328 
L 136.96 135.79328 
L 140.567273 135.79328 
L 144.174545 135.79328 
L 147.781818 135.79328 
L 151.389091 135.79328 
L 154.996364 135.79328 
L 158.603636 135.79328 
L 162.210909 135.79328 
L 165.818182 135.79328 
L 169.425455 135.79328 
L 173.032727 135.79328 
L 176.64 135.79328 
L 180.247273 135.79328 
L 183.854545 135.79328 
L 187.461818 135.79328 
L 191.069091 135.79328 
L 194.676364 135.79328 
L 198.283636 135.79328 
L 201.890909 135.79328 
L 205.498182 135.79328 
L 209.105455 135.79328 
L 212.712727 135.79328 
L 216.32 135.79328 
L 219.927273 135.79328 
L 223.534545 135.79328 
L 227.141818 135.79328 
L 230.749091 135.79328 
L 234.356364 135.79328 
L 237.963636 135.79328 
L 241.570909 135.79328 
L 245.178182 135.79328 
L 248.785455 135.79328 
L 252.392727 135.79328 
L 256 135.79328 
L 259.607273 135.79328 
L 263.214545 135.79328 
L 266.821818 135.79328 
L 270.429091 135.79328 
L 274.036364 135.79328 
L 277.643636 135.79328 
L 281.250909 135.79328 
L 284.858182 135.79328 
L 288.465455 135.79328 
L 292.072727 135.79328 
L 295.68 135.79328 
L 299.287273 135.79328 
L 302.894545 135.79328 
L 306.501818 135.79328 
L 310.109091 135.79328 
L 313.716364 135.79328 
L 317.323636 135.79328 
L 320.930909 135.79328 
L 324.538182 135.79328 
L 328.145455 135.79328 
L 331.752727 135.79328 
L 335.36 135.79328 
L 338.967273 135.79328 
L 342.574545 135.79328 
L 346.181818 135.79328 
L 349.789091 135.79328 
L 353.396364 135.79328 
L 357.003636 135.79328 
L 360.610909 135.79328 
L 364.218182 135.79328 
L 367.825455 135.79328 
L 371.432727 135.79328 
L 375.04 135.79328 
L 378.647273 135.79328 
L 382.254545 135.79328 
L 385.861818 135.79328 
L 389.469091 135.79328 
L 393.076364 135.79328 
L 396.683636 135.79328 
L 400.290909 135.79328 
L 403.898182 135.79328 
L 407.505455 135.79328 
L 411.112727 135.79328 
L 414.72 135.79328 
L 414.72 135.552 
L 414.72 132.864 
L 414.72 130.176 
L 414.72 127.488 
L 414.72 124.8 
L 414.72 122.112 
L 414.72 119.424 
L 414.72 116.736 
L 414.72 114.048 
L 414.72 111.36 
L 414.72 108.672 
L 414.72 105.984 
L 414.72 103.296 
L 414.72 100.608 
L 414.72 97.92 
L 414.72 95.232 
L 414.72 92.544 
L 414.72 89.856 
L 414.72 87.168 
L 414.72 84.48 
L 414.72 84.409066 
L 411.112727 84.409066 
L 407.505455 84.409066 
L 403.898182 84.409066 
L 400.290909 84.409066 
L 396.683636 84.409066 
L 393.076364 84.409066 
L 389.469091 84.409066 
L 385.861818 84.409066 
L 382.254545 84.409066 
L 378.647273 84.409066 
L 375.04 84.409066 
L 371.432727 84.409066 
L 367.825455 84.409066 
L 364.218182 84.409066 
L 360.610909 84.409066 
L 357.003636 84.409066 
L 353.396364 84.409066 
L 349.789091 84.409066 
L 346.181818 84.409066 
L 342.574545 84.409066 
L 338.967273 84.409066 
L 335.36 84.409066 
L 331.752727 84.409066 
L 328.145455 84.409066 
L 324.538182 84.409066 
L 320.930909 84.409066 
L 317.323636 84.409066 
L 313.716364 84.409066 
L 310.109091 84.409066 
L 306.501818 84.409066 
L 302.894545 84.409066 
L 299.287273 84.409066 
L 295.68 84.409066 
L 292.072727 84.409066 
L 288.465455 84.409066 
L 284.858182 84.409066 
L 281.250909 84.409066 
L 277.643636 84.409066 
L 274.036364 84.409066 
L 270.429091 84.409066 
L 266.821818 84.409066 
L 263.214545 84.409066 
L 259.607273 84.409066 
L 256 84.409066 
L 252.392727 84.409066 
L 248.785455 84.409066 
L 245.178182 84.409066 
L 241.570909 84.409066 
L 237.963636 84.409066 
L 234.356364 84.409066 
L 230.749091 84.409066 
L 227.141818 84.409066 
L 223.534545 84.409066 
L 219.927273 84.409066 
L 216.32 84.409066 
L 212.712727 84.409066 
L 209.105455 84.409066 
L 205.498182 84.409066 
L 201.890909 84.409066 
L 198.283636 84.409066 
L 194.676364 84.409066 
L 191.069091 84.409066 
L 187.461818 84.409066 
L 183.854545 84.409066 
L 180.247273 84.409066 
L 176.64 84.409066 
L 173.032727 84.409066 
L 169.425455 84.409066 
L 165.818182 84.409066 
L 162.210909 84.409066 
L 158.603636 84.409066 
L 154.996364 84.409066 
L 151.389091 84.409066 
L 147.781818 84.409066 
L 144.174545 84.409066 
L 140.567273 84.409066 
L 136.96 84.409066 
L 133.352727 84.409066 
L 129.745455 84.409066 
L 126.138182 84.409066 
L 125.603432 84.48 
L 122.530909 84.981792 
L 118.923636 84.981792 
L 115.316364 85.504331 
L 111.709091 85.504331 
L 108.101818 85.504331 
L 104.494545 85.504331 
L 100.887273 85.504331 
L 97.28 85.504331 
L 93.672727 85.504331 
L 90.065455 85.504331 
L 86.458182 85.504331 
L 82.850909 85.407897 
L 79.243636 85.407897 
L 75.636364 85.407897 
L 72.029091 85.407897 
L 68.421818 85.407897 
L 64.814545 85.407897 
L 61.207273 85.407897 
L 57.6 85.407897 
L 57.6 87.168 
L 57.6 89.856 
L 57.6 92.544 
L 57.6 95.232 
L 57.6 97.92 
L 57.6 100.608 
L 57.6 103.296 
L 57.6 105.984 
L 57.6 108.672 
L 57.6 111.36 
L 57.6 114.048 
L 57.6 116.736 
L 57.6 119.424 
L 57.6 122.112 
L 57.6 124.8 
L 57.6 127.488 
L 57.6 130.176 
L 57.6 132.864 
L 57.6 135.552 
L 57.6 135.95604 
z
" clip-path="url(#pbf013b36bf)" style="fill: #73d056; fill-opacity: 0.75"/>
   </g>
   <g id="PathCollection_7">
    <path d="M 61.207273 85.407897 
L 64.814545 85.407897 
L 68.421818 85.407897 
L 72.029091 85.407897 
L 75.636364 85.407897 
L 79.243636 85.407897 
L 82.850909 85.407897 
L 86.458182 85.504331 
L 90.065455 85.504331 
L 93.672727 85.504331 
L 97.28 85.504331 
L 100.887273 85.504331 
L 104.494545 85.504331 
L 108.101818 85.504331 
L 111.709091 85.504331 
L 115.316364 85.504331 
L 118.923636 84.981792 
L 122.530909 84.981792 
L 125.603432 84.48 
L 126.138182 84.409066 
L 129.745455 84.409066 
L 133.352727 84.409066 
L 136.96 84.409066 
L 140.567273 84.409066 
L 144.174545 84.409066 
L 147.781818 84.409066 
L 151.389091 84.409066 
L 154.996364 84.409066 
L 158.603636 84.409066 
L 162.210909 84.409066 
L 165.818182 84.409066 
L 169.425455 84.409066 
L 173.032727 84.409066 
L 176.64 84.409066 
L 180.247273 84.409066 
L 183.854545 84.409066 
L 187.461818 84.409066 
L 191.069091 84.409066 
L 194.676364 84.409066 
L 198.283636 84.409066 
L 201.890909 84.409066 
L 205.498182 84.409066 
L 209.105455 84.409066 
L 212.712727 84.409066 
L 216.32 84.409066 
L 219.927273 84.409066 
L 223.534545 84.409066 
L 227.141818 84.409066 
L 230.749091 84.409066 
L 234.356364 84.409066 
L 237.963636 84.409066 
L 241.570909 84.409066 
L 245.178182 84.409066 
L 248.785455 84.409066 
L 252.392727 84.409066 
L 256 84.409066 
L 259.607273 84.409066 
L 263.214545 84.409066 
L 266.821818 84.409066 
L 270.429091 84.409066 
L 274.036364 84.409066 
L 277.643636 84.409066 
L 281.250909 84.409066 
L 284.858182 84.409066 
L 288.465455 84.409066 
L 292.072727 84.409066 
L 295.68 84.409066 
L 299.287273 84.409066 
L 302.894545 84.409066 
L 306.501818 84.409066 
L 310.109091 84.409066 
L 313.716364 84.409066 
L 317.323636 84.409066 
L 320.930909 84.409066 
L 324.538182 84.409066 
L 328.145455 84.409066 
L 331.752727 84.409066 
L 335.36 84.409066 
L 338.967273 84.409066 
L 342.574545 84.409066 
L 346.181818 84.409066 
L 349.789091 84.409066 
L 353.396364 84.409066 
L 357.003636 84.409066 
L 360.610909 84.409066 
L 364.218182 84.409066 
L 367.825455 84.409066 
L 371.432727 84.409066 
L 375.04 84.409066 
L 378.647273 84.409066 
L 382.254545 84.409066 
L 385.861818 84.409066 
L 389.469091 84.409066 
L 393.076364 84.409066 
L 396.683636 84.409066 
L 400.290909 84.409066 
L 403.898182 84.409066 
L 407.505455 84.409066 
L 411.112727 84.409066 
L 414.72 84.409066 
L 414.72 81.792 
L 414.72 79.104 
L 414.72 76.416 
L 414.72 73.728 
L 414.72 71.04 
L 414.72 68.352 
L 414.72 65.664 
L 414.72 62.976 
L 414.72 60.288 
L 414.72 57.6 
L 414.72 54.912 
L 414.72 52.224 
L 414.72 49.536 
L 414.72 46.848 
L 414.72 44.16 
L 414.72 41.472 
L 411.112727 41.472 
L 407.505455 41.472 
L 403.898182 41.472 
L 400.290909 41.472 
L 396.683636 41.472 
L 393.076364 41.472 
L 389.469091 41.472 
L 385.861818 41.472 
L 382.254545 41.472 
L 378.647273 41.472 
L 375.04 41.472 
L 371.432727 41.472 
L 367.825455 41.472 
L 364.218182 41.472 
L 360.610909 41.472 
L 357.003636 41.472 
L 353.396364 41.472 
L 349.789091 41.472 
L 346.181818 41.472 
L 342.574545 41.472 
L 338.967273 41.472 
L 335.36 41.472 
L 331.752727 41.472 
L 328.145455 41.472 
L 324.538182 41.472 
L 320.930909 41.472 
L 317.323636 41.472 
L 313.716364 41.472 
L 310.109091 41.472 
L 306.501818 41.472 
L 302.894545 41.472 
L 299.287273 41.472 
L 295.68 41.472 
L 292.072727 41.472 
L 288.465455 41.472 
L 284.858182 41.472 
L 281.250909 41.472 
L 277.643636 41.472 
L 274.036364 41.472 
L 270.429091 41.472 
L 266.821818 41.472 
L 263.214545 41.472 
L 259.607273 41.472 
L 256 41.472 
L 252.392727 41.472 
L 248.785455 41.472 
L 245.178182 41.472 
L 241.570909 41.472 
L 237.963636 41.472 
L 234.356364 41.472 
L 230.749091 41.472 
L 227.141818 41.472 
L 223.534545 41.472 
L 219.927273 41.472 
L 216.32 41.472 
L 212.712727 41.472 
L 209.105455 41.472 
L 205.498182 41.472 
L 201.890909 41.472 
L 198.283636 41.472 
L 194.676364 41.472 
L 191.069091 41.472 
L 187.461818 41.472 
L 183.854545 41.472 
L 180.247273 41.472 
L 176.64 41.472 
L 173.032727 41.472 
L 169.425455 41.472 
L 165.818182 41.472 
L 162.210909 41.472 
L 158.603636 41.472 
L 154.996364 41.472 
L 151.389091 41.472 
L 147.781818 41.472 
L 144.174545 41.472 
L 140.567273 41.472 
L 136.96 41.472 
L 133.352727 41.472 
L 129.745455 41.472 
L 126.138182 41.472 
L 122.530909 41.472 
L 118.923636 41.472 
L 115.316364 41.472 
L 111.709091 41.472 
L 108.101818 41.472 
L 104.494545 41.472 
L 100.887273 41.472 
L 97.28 41.472 
L 93.672727 41.472 
L 90.065455 41.472 
L 86.458182 41.472 
L 82.850909 41.472 
L 79.243636 41.472 
L 75.636364 41.472 
L 72.029091 41.472 
L 68.421818 41.472 
L 64.814545 41.472 
L 61.207273 41.472 
L 57.6 41.472 
L 57.6 44.16 
L 57.6 46.848 
L 57.6 49.536 
L 57.6 52.224 
L 57.6 54.912 
L 57.6 57.6 
L 57.6 60.288 
L 57.6 62.976 
L 57.6 65.664 
L 57.6 68.352 
L 57.6 71.04 
L 57.6 73.728 
L 57.6 76.416 
L 57.6 79.104 
L 57.6 81.792 
L 57.6 84.48 
L 57.6 85.407897 
z
" clip-path="url(#pbf013b36bf)" style="fill: #d0e11c; fill-opacity: 0.75"/>
   </g>
   <g id="matplotlib.axis_1">
    <g id="xtick_1">
     <g id="line2d_1">
      <defs>
       <path id="m626ac1bc17" d="M 0 0 
L 0 3.5 
" style="stroke: #000000; stroke-width: 0.8"/>
      </defs>
      <g>
       <use xlink:href="#m626ac1bc17" x="80.828777" y="307.584" style="stroke: #000000; stroke-width: 0.8"/>
      </g>
     </g>
     <g id="text_1">
      <!-- 10 -->
      <g transform="translate(74.466277 322.182437) scale(0.1 -0.1)">
       <defs>
        <path id="DejaVuSans-31" d="M 794 531 
L 1825 531 
L 1825 4091 
L 703 3866 
L 703 4441 
L 1819 4666 
L 2450 4666 
L 2450 531 
L 3481 531 
L 3481 0 
L 794 0 
L 794 531 
z
" transform="scale(0.015625)"/>
        <path id="DejaVuSans-30" d="M 2034 4250 
Q 1547 4250 1301 3770 
Q 1056 3291 1056 2328 
Q 1056 1369 1301 889 
Q 1547 409 2034 409 
Q 2525 409 2770 889 
Q 3016 1369 3016 2328 
Q 3016 3291 2770 3770 
Q 2525 4250 2034 4250 
z
M 2034 4750 
Q 2819 4750 3233 4129 
Q 3647 3509 3647 2328 
Q 3647 1150 3233 529 
Q 2819 -91 2034 -91 
Q 1250 -91 836 529 
Q 422 1150 422 2328 
Q 422 3509 836 4129 
Q 1250 4750 2034 4750 
z
" transform="scale(0.015625)"/>
       </defs>
       <use xlink:href="#DejaVuSans-31"/>
       <use xlink:href="#DejaVuSans-30" x="63.623047"/>
      </g>
     </g>
    </g>
    <g id="xtick_2">
     <g id="line2d_2">
      <g>
       <use xlink:href="#m626ac1bc17" x="122.391862" y="307.584" style="stroke: #000000; stroke-width: 0.8"/>
      </g>
     </g>
     <g id="text_2">
      <!-- 15 -->
      <g transform="translate(116.029362 322.182437) scale(0.1 -0.1)">
       <defs>
        <path id="DejaVuSans-35" d="M 691 4666 
L 3169 4666 
L 3169 4134 
L 1269 4134 
L 1269 2991 
Q 1406 3038 1543 3061 
Q 1681 3084 1819 3084 
Q 2600 3084 3056 2656 
Q 3513 2228 3513 1497 
Q 3513 744 3044 326 
Q 2575 -91 1722 -91 
Q 1428 -91 1123 -41 
Q 819 9 494 109 
L 494 744 
Q 775 591 1075 516 
Q 1375 441 1709 441 
Q 2250 441 2565 725 
Q 2881 1009 2881 1497 
Q 2881 1984 2565 2268 
Q 2250 2553 1709 2553 
Q 1456 2553 1204 2497 
Q 953 2441 691 2322 
L 691 4666 
z
" transform="scale(0.015625)"/>
       </defs>
       <use xlink:href="#DejaVuSans-31"/>
       <use xlink:href="#DejaVuSans-35" x="63.623047"/>
      </g>
     </g>
    </g>
    <g id="xtick_3">
     <g id="line2d_3">
      <g>
       <use xlink:href="#m626ac1bc17" x="163.954947" y="307.584" style="stroke: #000000; stroke-width: 0.8"/>
      </g>
     </g>
     <g id="text_3">
      <!-- 20 -->
      <g transform="translate(157.592447 322.182437) scale(0.1 -0.1)">
       <defs>
        <path id="DejaVuSans-32" d="M 1228 531 
L 3431 531 
L 3431 0 
L 469 0 
L 469 531 
Q 828 903 1448 1529 
Q 2069 2156 2228 2338 
Q 2531 2678 2651 2914 
Q 2772 3150 2772 3378 
Q 2772 3750 2511 3984 
Q 2250 4219 1831 4219 
Q 1534 4219 1204 4116 
Q 875 4013 500 3803 
L 500 4441 
Q 881 4594 1212 4672 
Q 1544 4750 1819 4750 
Q 2544 4750 2975 4387 
Q 3406 4025 3406 3419 
Q 3406 3131 3298 2873 
Q 3191 2616 2906 2266 
Q 2828 2175 2409 1742 
Q 1991 1309 1228 531 
z
" transform="scale(0.015625)"/>
       </defs>
       <use xlink:href="#DejaVuSans-32"/>
       <use xlink:href="#DejaVuSans-30" x="63.623047"/>
      </g>
     </g>
    </g>
    <g id="xtick_4">
     <g id="line2d_4">
      <g>
       <use xlink:href="#m626ac1bc17" x="205.518031" y="307.584" style="stroke: #000000; stroke-width: 0.8"/>
      </g>
     </g>
     <g id="text_4">
      <!-- 25 -->
      <g transform="translate(199.155531 322.182437) scale(0.1 -0.1)">
       <use xlink:href="#DejaVuSans-32"/>
       <use xlink:href="#DejaVuSans-35" x="63.623047"/>
      </g>
     </g>
    </g>
    <g id="xtick_5">
     <g id="line2d_5">
      <g>
       <use xlink:href="#m626ac1bc17" x="247.081116" y="307.584" style="stroke: #000000; stroke-width: 0.8"/>
      </g>
     </g>
     <g id="text_5">
      <!-- 30 -->
      <g transform="translate(240.718616 322.182437) scale(0.1 -0.1)">
       <defs>
        <path id="DejaVuSans-33" d="M 2597 2516 
Q 3050 2419 3304 2112 
Q 3559 1806 3559 1356 
Q 3559 666 3084 287 
Q 2609 -91 1734 -91 
Q 1441 -91 1130 -33 
Q 819 25 488 141 
L 488 750 
Q 750 597 1062 519 
Q 1375 441 1716 441 
Q 2309 441 2620 675 
Q 2931 909 2931 1356 
Q 2931 1769 2642 2001 
Q 2353 2234 1838 2234 
L 1294 2234 
L 1294 2753 
L 1863 2753 
Q 2328 2753 2575 2939 
Q 2822 3125 2822 3475 
Q 2822 3834 2567 4026 
Q 2313 4219 1838 4219 
Q 1578 4219 1281 4162 
Q 984 4106 628 3988 
L 628 4550 
Q 988 4650 1302 4700 
Q 1616 4750 1894 4750 
Q 2613 4750 3031 4423 
Q 3450 4097 3450 3541 
Q 3450 3153 3228 2886 
Q 3006 2619 2597 2516 
z
" transform="scale(0.015625)"/>
       </defs>
       <use xlink:href="#DejaVuSans-33"/>
       <use xlink:href="#DejaVuSans-30" x="63.623047"/>
      </g>
     </g>
    </g>
    <g id="xtick_6">
     <g id="line2d_6">
      <g>
       <use xlink:href="#m626ac1bc17" x="288.644201" y="307.584" style="stroke: #000000; stroke-width: 0.8"/>
      </g>
     </g>
     <g id="text_6">
      <!-- 35 -->
      <g transform="translate(282.281701 322.182437) scale(0.1 -0.1)">
       <use xlink:href="#DejaVuSans-33"/>
       <use xlink:href="#DejaVuSans-35" x="63.623047"/>
      </g>
     </g>
    </g>
    <g id="xtick_7">
     <g id="line2d_7">
      <g>
       <use xlink:href="#m626ac1bc17" x="330.207286" y="307.584" style="stroke: #000000; stroke-width: 0.8"/>
      </g>
     </g>
     <g id="text_7">
      <!-- 40 -->
      <g transform="translate(323.844786 322.182437) scale(0.1 -0.1)">
       <defs>
        <path id="DejaVuSans-34" d="M 2419 4116 
L 825 1625 
L 2419 1625 
L 2419 4116 
z
M 2253 4666 
L 3047 4666 
L 3047 1625 
L 3713 1625 
L 3713 1100 
L 3047 1100 
L 3047 0 
L 2419 0 
L 2419 1100 
L 313 1100 
L 313 1709 
L 2253 4666 
z
" transform="scale(0.015625)"/>
       </defs>
       <use xlink:href="#DejaVuSans-34"/>
       <use xlink:href="#DejaVuSans-30" x="63.623047"/>
      </g>
     </g>
    </g>
    <g id="xtick_8">
     <g id="line2d_8">
      <g>
       <use xlink:href="#m626ac1bc17" x="371.770371" y="307.584" style="stroke: #000000; stroke-width: 0.8"/>
      </g>
     </g>
     <g id="text_8">
      <!-- 45 -->
      <g transform="translate(365.407871 322.182437) scale(0.1 -0.1)">
       <use xlink:href="#DejaVuSans-34"/>
       <use xlink:href="#DejaVuSans-35" x="63.623047"/>
      </g>
     </g>
    </g>
    <g id="xtick_9">
     <g id="line2d_9">
      <g>
       <use xlink:href="#m626ac1bc17" x="413.333455" y="307.584" style="stroke: #000000; stroke-width: 0.8"/>
      </g>
     </g>
     <g id="text_9">
      <!-- 50 -->
      <g transform="translate(406.970955 322.182437) scale(0.1 -0.1)">
       <use xlink:href="#DejaVuSans-35"/>
       <use xlink:href="#DejaVuSans-30" x="63.623047"/>
      </g>
     </g>
    </g>
    <g id="text_10">
     <!-- PM2.5 -->
     <g transform="translate(220.879531 335.860562) scale(0.1 -0.1)">
      <defs>
       <path id="DejaVuSans-50" d="M 1259 4147 
L 1259 2394 
L 2053 2394 
Q 2494 2394 2734 2622 
Q 2975 2850 2975 3272 
Q 2975 3691 2734 3919 
Q 2494 4147 2053 4147 
L 1259 4147 
z
M 628 4666 
L 2053 4666 
Q 2838 4666 3239 4311 
Q 3641 3956 3641 3272 
Q 3641 2581 3239 2228 
Q 2838 1875 2053 1875 
L 1259 1875 
L 1259 0 
L 628 0 
L 628 4666 
z
" transform="scale(0.015625)"/>
       <path id="DejaVuSans-4d" d="M 628 4666 
L 1569 4666 
L 2759 1491 
L 3956 4666 
L 4897 4666 
L 4897 0 
L 4281 0 
L 4281 4097 
L 3078 897 
L 2444 897 
L 1241 4097 
L 1241 0 
L 628 0 
L 628 4666 
z
" transform="scale(0.015625)"/>
       <path id="DejaVuSans-2e" d="M 684 794 
L 1344 794 
L 1344 0 
L 684 0 
L 684 794 
z
" transform="scale(0.015625)"/>
      </defs>
      <use xlink:href="#DejaVuSans-50"/>
      <use xlink:href="#DejaVuSans-4d" x="60.302734"/>
      <use xlink:href="#DejaVuSans-32" x="146.582031"/>
      <use xlink:href="#DejaVuSans-2e" x="210.205078"/>
      <use xlink:href="#DejaVuSans-35" x="241.992188"/>
     </g>
    </g>
   </g>
   <g id="matplotlib.axis_2">
    <g id="ytick_1">
     <g id="line2d_10">
      <defs>
       <path id="m5a9b667f11" d="M 0 0 
L -3.5 0 
" style="stroke: #000000; stroke-width: 0.8"/>
      </defs>
      <g>
       <use xlink:href="#m5a9b667f11" x="57.6" y="269.534273" style="stroke: #000000; stroke-width: 0.8"/>
      </g>
     </g>
     <g id="text_11">
      <!-- 20 -->
      <g transform="translate(37.875 273.333492) scale(0.1 -0.1)">
       <use xlink:href="#DejaVuSans-32"/>
       <use xlink:href="#DejaVuSans-30" x="63.623047"/>
      </g>
     </g>
    </g>
    <g id="ytick_2">
     <g id="line2d_11">
      <g>
       <use xlink:href="#m5a9b667f11" x="57.6" y="220.349" style="stroke: #000000; stroke-width: 0.8"/>
      </g>
     </g>
     <g id="text_12">
      <!-- 25 -->
      <g transform="translate(37.875 224.148219) scale(0.1 -0.1)">
       <use xlink:href="#DejaVuSans-32"/>
       <use xlink:href="#DejaVuSans-35" x="63.623047"/>
      </g>
     </g>
    </g>
    <g id="ytick_3">
     <g id="line2d_12">
      <g>
       <use xlink:href="#m5a9b667f11" x="57.6" y="171.163727" style="stroke: #000000; stroke-width: 0.8"/>
      </g>
     </g>
     <g id="text_13">
      <!-- 30 -->
      <g transform="translate(37.875 174.962946) scale(0.1 -0.1)">
       <use xlink:href="#DejaVuSans-33"/>
       <use xlink:href="#DejaVuSans-30" x="63.623047"/>
      </g>
     </g>
    </g>
    <g id="ytick_4">
     <g id="line2d_13">
      <g>
       <use xlink:href="#m5a9b667f11" x="57.6" y="121.978455" style="stroke: #000000; stroke-width: 0.8"/>
      </g>
     </g>
     <g id="text_14">
      <!-- 35 -->
      <g transform="translate(37.875 125.777673) scale(0.1 -0.1)">
       <use xlink:href="#DejaVuSans-33"/>
       <use xlink:href="#DejaVuSans-35" x="63.623047"/>
      </g>
     </g>
    </g>
    <g id="ytick_5">
     <g id="line2d_14">
      <g>
       <use xlink:href="#m5a9b667f11" x="57.6" y="72.793182" style="stroke: #000000; stroke-width: 0.8"/>
      </g>
     </g>
     <g id="text_15">
      <!-- 40 -->
      <g transform="translate(37.875 76.5924) scale(0.1 -0.1)">
       <use xlink:href="#DejaVuSans-34"/>
       <use xlink:href="#DejaVuSans-30" x="63.623047"/>
      </g>
     </g>
    </g>
    <g id="text_16">
     <!-- Median Age -->
     <g transform="translate(31.795312 203.974875) rotate(-90) scale(0.1 -0.1)">
      <defs>
       <path id="DejaVuSans-65" d="M 3597 1894 
L 3597 1613 
L 953 1613 
Q 991 1019 1311 708 
Q 1631 397 2203 397 
Q 2534 397 2845 478 
Q 3156 559 3463 722 
L 3463 178 
Q 3153 47 2828 -22 
Q 2503 -91 2169 -91 
Q 1331 -91 842 396 
Q 353 884 353 1716 
Q 353 2575 817 3079 
Q 1281 3584 2069 3584 
Q 2775 3584 3186 3129 
Q 3597 2675 3597 1894 
z
M 3022 2063 
Q 3016 2534 2758 2815 
Q 2500 3097 2075 3097 
Q 1594 3097 1305 2825 
Q 1016 2553 972 2059 
L 3022 2063 
z
" transform="scale(0.015625)"/>
       <path id="DejaVuSans-64" d="M 2906 2969 
L 2906 4863 
L 3481 4863 
L 3481 0 
L 2906 0 
L 2906 525 
Q 2725 213 2448 61 
Q 2172 -91 1784 -91 
Q 1150 -91 751 415 
Q 353 922 353 1747 
Q 353 2572 751 3078 
Q 1150 3584 1784 3584 
Q 2172 3584 2448 3432 
Q 2725 3281 2906 2969 
z
M 947 1747 
Q 947 1113 1208 752 
Q 1469 391 1925 391 
Q 2381 391 2643 752 
Q 2906 1113 2906 1747 
Q 2906 2381 2643 2742 
Q 2381 3103 1925 3103 
Q 1469 3103 1208 2742 
Q 947 2381 947 1747 
z
" transform="scale(0.015625)"/>
       <path id="DejaVuSans-69" d="M 603 3500 
L 1178 3500 
L 1178 0 
L 603 0 
L 603 3500 
z
M 603 4863 
L 1178 4863 
L 1178 4134 
L 603 4134 
L 603 4863 
z
" transform="scale(0.015625)"/>
       <path id="DejaVuSans-61" d="M 2194 1759 
Q 1497 1759 1228 1600 
Q 959 1441 959 1056 
Q 959 750 1161 570 
Q 1363 391 1709 391 
Q 2188 391 2477 730 
Q 2766 1069 2766 1631 
L 2766 1759 
L 2194 1759 
z
M 3341 1997 
L 3341 0 
L 2766 0 
L 2766 531 
Q 2569 213 2275 61 
Q 1981 -91 1556 -91 
Q 1019 -91 701 211 
Q 384 513 384 1019 
Q 384 1609 779 1909 
Q 1175 2209 1959 2209 
L 2766 2209 
L 2766 2266 
Q 2766 2663 2505 2880 
Q 2244 3097 1772 3097 
Q 1472 3097 1187 3025 
Q 903 2953 641 2809 
L 641 3341 
Q 956 3463 1253 3523 
Q 1550 3584 1831 3584 
Q 2591 3584 2966 3190 
Q 3341 2797 3341 1997 
z
" transform="scale(0.015625)"/>
       <path id="DejaVuSans-6e" d="M 3513 2113 
L 3513 0 
L 2938 0 
L 2938 2094 
Q 2938 2591 2744 2837 
Q 2550 3084 2163 3084 
Q 1697 3084 1428 2787 
Q 1159 2491 1159 1978 
L 1159 0 
L 581 0 
L 581 3500 
L 1159 3500 
L 1159 2956 
Q 1366 3272 1645 3428 
Q 1925 3584 2291 3584 
Q 2894 3584 3203 3211 
Q 3513 2838 3513 2113 
z
" transform="scale(0.015625)"/>
       <path id="DejaVuSans-20" transform="scale(0.015625)"/>
       <path id="DejaVuSans-41" d="M 2188 4044 
L 1331 1722 
L 3047 1722 
L 2188 4044 
z
M 1831 4666 
L 2547 4666 
L 4325 0 
L 3669 0 
L 3244 1197 
L 1141 1197 
L 716 0 
L 50 0 
L 1831 4666 
z
" transform="scale(0.015625)"/>
       <path id="DejaVuSans-67" d="M 2906 1791 
Q 2906 2416 2648 2759 
Q 2391 3103 1925 3103 
Q 1463 3103 1205 2759 
Q 947 2416 947 1791 
Q 947 1169 1205 825 
Q 1463 481 1925 481 
Q 2391 481 2648 825 
Q 2906 1169 2906 1791 
z
M 3481 434 
Q 3481 -459 3084 -895 
Q 2688 -1331 1869 -1331 
Q 1566 -1331 1297 -1286 
Q 1028 -1241 775 -1147 
L 775 -588 
Q 1028 -725 1275 -790 
Q 1522 -856 1778 -856 
Q 2344 -856 2625 -561 
Q 2906 -266 2906 331 
L 2906 616 
Q 2728 306 2450 153 
Q 2172 0 1784 0 
Q 1141 0 747 490 
Q 353 981 353 1791 
Q 353 2603 747 3093 
Q 1141 3584 1784 3584 
Q 2172 3584 2450 3431 
Q 2728 3278 2906 2969 
L 2906 3500 
L 3481 3500 
L 3481 434 
z
" transform="scale(0.015625)"/>
      </defs>
      <use xlink:href="#DejaVuSans-4d"/>
      <use xlink:href="#DejaVuSans-65" x="86.279297"/>
      <use xlink:href="#DejaVuSans-64" x="147.802734"/>
      <use xlink:href="#DejaVuSans-69" x="211.279297"/>
      <use xlink:href="#DejaVuSans-61" x="239.0625"/>
      <use xlink:href="#DejaVuSans-6e" x="300.341797"/>
      <use xlink:href="#DejaVuSans-20" x="363.720703"/>
      <use xlink:href="#DejaVuSans-41" x="395.507812"/>
      <use xlink:href="#DejaVuSans-67" x="463.916016"/>
      <use xlink:href="#DejaVuSans-65" x="527.392578"/>
     </g>
    </g>
   </g>
   <g id="PathCollection_8"/>
   <g id="PathCollection_9">
    <path d="M 57.6 186.187186 
L 61.207273 186.187186 
L 64.814545 186.187186 
L 68.421818 186.187186 
L 72.029091 186.187186 
L 75.636364 186.187186 
L 79.243636 186.187186 
L 82.850909 186.187186 
L 86.458182 186.298435 
L 90.065455 186.298435 
L 93.672727 186.298435 
L 97.28 186.298435 
L 100.887273 186.298435 
L 104.494545 186.298435 
L 108.101818 186.298435 
L 111.709091 186.298435 
L 115.316364 186.298435 
L 118.923636 186.298435 
L 122.530909 186.298435 
L 126.138182 186.298435 
L 129.745455 186.298435 
L 133.352727 186.298435 
L 136.96 186.298435 
L 140.567273 186.298435 
L 144.174545 186.298435 
L 147.781818 186.298435 
L 151.389091 186.298435 
L 154.996364 186.298435 
L 158.603636 186.298435 
L 162.210909 186.298435 
L 165.818182 186.298435 
L 169.425455 186.298435 
L 173.032727 186.298435 
L 176.64 186.298435 
L 180.247273 186.298435 
L 183.854545 186.298435 
L 187.461818 186.298435 
L 191.069091 186.298435 
L 194.676364 186.298435 
L 198.283636 186.298435 
L 201.890909 186.298435 
L 205.498182 186.298435 
L 209.105455 186.220215 
L 212.712727 186.220215 
L 216.32 186.220215 
L 219.927273 186.220215 
L 223.534545 186.220215 
L 227.141818 186.220215 
L 230.749091 186.220215 
L 234.356364 186.220215 
L 237.963636 186.220215 
L 241.570909 186.220215 
L 245.178182 186.220215 
L 248.785455 186.220215 
L 252.392727 186.220215 
L 256 186.220215 
L 259.607273 186.220215 
L 263.214545 186.000232 
L 266.821818 185.805389 
L 270.429091 185.805389 
L 274.036364 185.62098 
L 277.643636 185.62098 
L 281.250909 185.62098 
L 284.858182 185.62098 
L 288.465455 185.62098 
L 292.072727 185.62098 
L 295.68 185.62098 
L 299.287273 185.62098 
L 302.894545 185.62098 
L 306.501818 185.62098 
L 310.109091 185.62098 
L 313.716364 185.62098 
L 317.323636 185.62098 
L 320.6 185.62098 
" clip-path="url(#pbf013b36bf)" style="fill: none; stroke: #000000; stroke-width: 0.5"/>
    <path d="M 350.12 185.62098 
L 353.396364 185.62098 
L 357.003636 185.62098 
L 360.610909 185.62098 
L 364.218182 185.62098 
L 367.825455 185.62098 
L 371.432727 185.62098 
L 375.04 185.62098 
L 378.647273 185.62098 
L 382.254545 185.62098 
L 385.861818 185.62098 
L 389.469091 185.62098 
L 393.076364 185.62098 
L 396.683636 185.62098 
L 400.290909 185.62098 
L 403.898182 185.62098 
L 407.505455 185.62098 
L 411.112727 185.62098 
L 414.72 185.62098 
" clip-path="url(#pbf013b36bf)" style="fill: none; stroke: #000000; stroke-width: 0.5"/>
   </g>
   <g id="PathCollection_10">
    <path d="M 57.6 143.089045 
L 61.207273 143.089045 
L 64.814545 143.089045 
L 68.421818 143.089045 
L 72.029091 143.089045 
L 75.636364 143.089045 
L 79.243636 143.089045 
L 82.850909 143.089045 
L 86.458182 143.093796 
L 90.065455 143.093796 
L 93.672727 143.093796 
L 97.28 143.093796 
L 100.887273 143.093796 
L 104.494545 143.093796 
L 108.101818 143.093796 
L 108.18319 143.093796 
" clip-path="url(#pbf013b36bf)" style="fill: none; stroke: #000000; stroke-width: 0.5"/>
    <path d="M 144.093182 143.082935 
L 144.174545 143.082935 
L 147.781818 143.082935 
L 151.389091 143.082935 
L 154.996364 143.082935 
L 158.603636 143.082935 
L 162.210909 143.082935 
L 165.818182 143.082935 
L 169.425455 143.082935 
L 173.032727 143.082935 
L 176.64 143.082935 
L 180.247273 143.082935 
L 183.854545 143.082935 
L 187.461818 143.082935 
L 191.069091 143.082935 
L 194.676364 143.082935 
L 198.283636 143.082935 
L 201.890909 143.082935 
L 205.498182 143.082935 
L 209.105455 143.080204 
L 212.712727 143.080204 
L 216.32 143.080204 
L 219.927273 143.080204 
L 223.534545 143.080204 
L 227.141818 143.080204 
L 230.749091 143.080204 
L 234.356364 143.080204 
L 237.963636 143.080204 
L 241.570909 143.080204 
L 245.178182 143.080204 
L 248.785455 143.080204 
L 252.392727 143.080204 
L 256 143.080204 
L 259.607273 143.080204 
L 263.214545 143.072563 
L 266.821818 143.065839 
L 270.429091 143.065839 
L 274.036364 143.059515 
L 277.643636 143.059515 
L 281.250909 143.059515 
L 284.858182 143.059515 
L 288.465455 143.059515 
L 292.072727 143.059515 
L 295.68 143.059515 
L 299.287273 143.059515 
L 302.894545 143.059515 
L 306.501818 143.059515 
L 310.109091 143.059515 
L 313.716364 143.059515 
L 317.323636 143.059515 
L 320.930909 143.059515 
L 324.538182 143.059515 
L 328.145455 143.059515 
L 331.752727 143.059515 
L 335.36 143.059515 
L 338.967273 143.059515 
L 342.574545 143.059515 
L 346.181818 143.059515 
L 349.789091 143.059515 
L 353.396364 143.059515 
L 357.003636 143.059515 
L 360.610909 143.059515 
L 364.218182 143.059515 
L 367.825455 143.059515 
L 371.432727 143.059515 
L 375.04 143.059515 
L 378.647273 143.059515 
L 382.254545 143.059515 
L 385.861818 143.059515 
L 389.469091 143.059515 
L 393.076364 143.059515 
L 396.683636 143.059515 
L 400.290909 143.059515 
L 403.898182 143.059515 
L 407.505455 143.059515 
L 411.112727 143.059515 
L 414.72 143.059515 
" clip-path="url(#pbf013b36bf)" style="fill: none; stroke: #000000; stroke-width: 0.5"/>
   </g>
   <g id="PathCollection_11">
    <path d="M 57.6 142.134732 
L 61.207273 142.134732 
L 64.814545 142.134732 
L 68.421818 142.134732 
L 72.029091 142.134732 
L 75.636364 142.134732 
L 79.243636 142.134732 
L 82.850909 142.134732 
L 86.458182 142.139483 
L 90.065455 142.139483 
L 93.672727 142.139483 
L 97.28 142.139483 
L 100.887273 142.139483 
L 104.494545 142.139483 
L 108.101818 142.139483 
L 111.709091 142.139483 
L 115.316364 142.139483 
L 118.923636 142.125205 
L 122.530909 142.125205 
L 126.138182 142.108772 
L 129.745455 142.108772 
L 133.352727 142.108772 
L 136.96 142.108772 
L 140.567273 142.108772 
L 144.174545 142.108772 
L 147.781818 142.108772 
L 151.389091 142.108772 
L 154.996364 142.108772 
L 158.603636 142.108772 
L 162.210909 142.108772 
L 165.818182 142.108772 
L 169.425455 142.108772 
L 173.032727 142.108772 
L 176.64 142.108772 
L 180.247273 142.108772 
L 183.854545 142.108772 
L 187.461818 142.108772 
L 191.069091 142.108772 
L 194.676364 142.108772 
L 198.283636 142.108772 
L 201.890909 142.108772 
L 205.498182 142.108772 
L 209.105455 142.107276 
L 212.712727 142.107276 
L 216.32 142.107276 
L 219.927273 142.107276 
L 223.534545 142.107276 
L 227.141818 142.107276 
L 230.749091 142.107276 
L 234.356364 142.107276 
L 237.963636 142.107276 
L 241.570909 142.107276 
L 245.178182 142.107276 
L 248.785455 142.107276 
L 248.866822 142.107276 
" clip-path="url(#pbf013b36bf)" style="fill: none; stroke: #000000; stroke-width: 0.5"/>
    <path d="M 284.776817 142.09594 
L 284.858182 142.09594 
L 288.465455 142.09594 
L 292.072727 142.09594 
L 295.68 142.09594 
L 299.287273 142.09594 
L 302.894545 142.09594 
L 306.501818 142.09594 
L 310.109091 142.09594 
L 313.716364 142.09594 
L 317.323636 142.09594 
L 320.930909 142.09594 
L 324.538182 142.09594 
L 328.145455 142.09594 
L 331.752727 142.09594 
L 335.36 142.09594 
L 338.967273 142.09594 
L 342.574545 142.09594 
L 346.181818 142.09594 
L 349.789091 142.09594 
L 353.396364 142.09594 
L 357.003636 142.09594 
L 360.610909 142.09594 
L 364.218182 142.09594 
L 367.825455 142.09594 
L 371.432727 142.09594 
L 375.04 142.09594 
L 378.647273 142.09594 
L 382.254545 142.09594 
L 385.861818 142.09594 
L 389.469091 142.09594 
L 393.076364 142.09594 
L 396.683636 142.09594 
L 400.290909 142.09594 
L 403.898182 142.09594 
L 407.505455 142.09594 
L 411.112727 142.09594 
L 414.72 142.09594 
" clip-path="url(#pbf013b36bf)" style="fill: none; stroke: #000000; stroke-width: 0.5"/>
   </g>
   <g id="PathCollection_12">
    <path d="M 57.6 141.180418 
L 61.207273 141.180418 
L 64.814545 141.180418 
L 68.421818 141.180418 
L 72.029091 141.180418 
L 75.636364 141.180418 
L 79.243636 141.180418 
L 82.850909 141.180418 
L 86.458182 141.185169 
L 90.065455 141.185169 
L 93.672727 141.185169 
L 97.28 141.185169 
L 100.887273 141.185169 
L 104.494545 141.185169 
L 108.101818 141.185169 
L 111.709091 141.185169 
L 115.316364 141.185169 
L 118.923636 141.161663 
L 122.530909 141.161663 
L 126.138182 141.13461 
L 129.745455 141.13461 
L 133.352727 141.13461 
L 136.96 141.13461 
L 140.567273 141.13461 
L 144.174545 141.13461 
L 147.781818 141.13461 
L 151.389091 141.13461 
L 154.996364 141.13461 
L 158.603636 141.13461 
L 162.210909 141.13461 
L 165.818182 141.13461 
L 169.425455 141.13461 
L 173.032727 141.13461 
L 176.64 141.13461 
L 180.247273 141.13461 
L 183.854545 141.13461 
L 187.461818 141.13461 
L 191.069091 141.13461 
L 194.676364 141.13461 
L 198.283636 141.13461 
L 201.890909 141.13461 
L 205.498182 141.13461 
L 209.105455 141.134348 
L 212.712727 141.134348 
L 216.32 141.134348 
L 219.927273 141.134348 
L 223.534545 141.134348 
L 227.141818 141.134348 
L 230.749091 141.134348 
L 234.356364 141.134348 
L 237.963636 141.134348 
L 241.570909 141.134348 
L 245.178182 141.134348 
L 248.785455 141.134348 
L 252.392727 141.134348 
L 256 141.134348 
L 259.607273 141.134348 
L 263.214545 141.133615 
L 266.821818 141.132971 
L 270.429091 141.132971 
L 274.036364 141.132364 
L 277.643636 141.132364 
L 281.250909 141.132364 
L 284.858182 141.132364 
L 288.465455 141.132364 
L 292.072727 141.132364 
L 295.68 141.132364 
L 299.287273 141.132364 
L 302.894545 141.132364 
L 306.501818 141.132364 
L 310.109091 141.132364 
L 313.716364 141.132364 
L 317.323636 141.132364 
L 320.930909 141.132364 
L 324.538182 141.132364 
L 328.145455 141.132364 
L 331.752727 141.132364 
L 335.36 141.132364 
L 338.967273 141.132364 
L 342.574545 141.132364 
L 346.181818 141.132364 
L 349.789091 141.132364 
L 353.396364 141.132364 
L 357.003636 141.132364 
L 360.610909 141.132364 
L 364.218182 141.132364 
L 367.825455 141.132364 
L 371.432727 141.132364 
L 375.04 141.132364 
L 378.647273 141.132364 
L 382.254545 141.132364 
L 385.861818 141.132364 
L 389.469091 141.132364 
L 389.550455 141.132364 
" clip-path="url(#pbf013b36bf)" style="fill: none; stroke: #000000; stroke-width: 0.5"/>
   </g>
   <g id="PathCollection_13">
    <path d="M 57.6 135.95604 
L 61.207273 135.95604 
L 64.814545 135.95604 
L 68.421818 135.95604 
L 72.029091 135.95604 
L 75.636364 135.95604 
L 79.243636 135.95604 
L 82.850909 135.95604 
L 86.458182 135.9715 
L 90.065455 135.9715 
L 93.672727 135.9715 
L 97.28 135.9715 
L 100.887273 135.9715 
L 104.494545 135.9715 
L 108.101818 135.9715 
L 111.709091 135.9715 
L 115.316364 135.9715 
L 118.923636 135.887727 
L 122.530909 135.887727 
L 126.138182 135.79328 
L 129.745455 135.79328 
L 133.352727 135.79328 
L 136.96 135.79328 
L 140.567273 135.79328 
L 144.174545 135.79328 
L 147.781818 135.79328 
L 151.389091 135.79328 
L 154.996364 135.79328 
L 158.603636 135.79328 
L 162.210909 135.79328 
L 165.818182 135.79328 
L 169.425455 135.79328 
L 173.032727 135.79328 
L 176.64 135.79328 
L 180.247273 135.79328 
L 183.854545 135.79328 
L 187.461818 135.79328 
L 191.069091 135.79328 
L 194.676364 135.79328 
L 198.283636 135.79328 
L 201.890909 135.79328 
L 205.498182 135.79328 
L 209.105455 135.79328 
L 212.712727 135.79328 
L 216.32 135.79328 
L 219.927273 135.79328 
L 223.534545 135.79328 
L 227.141818 135.79328 
L 230.749091 135.79328 
L 234.356364 135.79328 
L 237.963636 135.79328 
L 241.570909 135.79328 
L 245.178182 135.79328 
L 248.785455 135.79328 
L 248.866818 135.79328 
" clip-path="url(#pbf013b36bf)" style="fill: none; stroke: #000000; stroke-width: 0.5"/>
    <path d="M 284.776818 135.79328 
L 284.858182 135.79328 
L 288.465455 135.79328 
L 292.072727 135.79328 
L 295.68 135.79328 
L 299.287273 135.79328 
L 302.894545 135.79328 
L 306.501818 135.79328 
L 310.109091 135.79328 
L 313.716364 135.79328 
L 317.323636 135.79328 
L 320.930909 135.79328 
L 324.538182 135.79328 
L 328.145455 135.79328 
L 331.752727 135.79328 
L 335.36 135.79328 
L 338.967273 135.79328 
L 342.574545 135.79328 
L 346.181818 135.79328 
L 349.789091 135.79328 
L 353.396364 135.79328 
L 357.003636 135.79328 
L 360.610909 135.79328 
L 364.218182 135.79328 
L 367.825455 135.79328 
L 371.432727 135.79328 
L 375.04 135.79328 
L 378.647273 135.79328 
L 382.254545 135.79328 
L 385.861818 135.79328 
L 389.469091 135.79328 
L 393.076364 135.79328 
L 396.683636 135.79328 
L 400.290909 135.79328 
L 403.898182 135.79328 
L 407.505455 135.79328 
L 411.112727 135.79328 
L 414.72 135.79328 
" clip-path="url(#pbf013b36bf)" style="fill: none; stroke: #000000; stroke-width: 0.5"/>
   </g>
   <g id="PathCollection_14">
    <path d="M 57.6 85.407897 
L 61.207273 85.407897 
L 64.814545 85.407897 
L 68.421818 85.407897 
L 72.029091 85.407897 
L 75.636364 85.407897 
L 79.243636 85.407897 
L 82.850909 85.407897 
L 86.458182 85.504331 
L 90.065455 85.504331 
L 93.672727 85.504331 
L 97.28 85.504331 
L 100.887273 85.504331 
L 104.494545 85.504331 
L 108.101818 85.504331 
L 111.709091 85.504331 
L 115.316364 85.504331 
L 118.923636 84.981792 
L 122.530909 84.981792 
L 125.603432 84.48 
L 126.138182 84.409066 
L 129.745455 84.409066 
L 133.352727 84.409066 
L 136.96 84.409066 
L 140.567273 84.409066 
L 144.174545 84.409066 
L 147.781818 84.409066 
L 151.389091 84.409066 
L 154.996364 84.409066 
L 158.603636 84.409066 
L 162.210909 84.409066 
L 165.818182 84.409066 
L 169.425455 84.409066 
L 173.032727 84.409066 
L 176.64 84.409066 
L 180.247273 84.409066 
L 183.854545 84.409066 
L 187.461818 84.409066 
L 191.069091 84.409066 
L 194.676364 84.409066 
L 198.283636 84.409066 
L 201.890909 84.409066 
L 205.498182 84.409066 
L 209.105455 84.409066 
L 212.712727 84.409066 
L 216.32 84.409066 
L 219.927273 84.409066 
L 223.534545 84.409066 
L 227.141818 84.409066 
L 230.749091 84.409066 
L 234.356364 84.409066 
L 237.963636 84.409066 
L 241.570909 84.409066 
L 245.178182 84.409066 
L 245.259545 84.409066 
" clip-path="url(#pbf013b36bf)" style="fill: none; stroke: #000000; stroke-width: 0.5"/>
    <path d="M 281.169545 84.409066 
L 281.250909 84.409066 
L 284.858182 84.409066 
L 288.465455 84.409066 
L 292.072727 84.409066 
L 295.68 84.409066 
L 299.287273 84.409066 
L 302.894545 84.409066 
L 306.501818 84.409066 
L 310.109091 84.409066 
L 313.716364 84.409066 
L 317.323636 84.409066 
L 320.930909 84.409066 
L 324.538182 84.409066 
L 328.145455 84.409066 
L 331.752727 84.409066 
L 335.36 84.409066 
L 338.967273 84.409066 
L 342.574545 84.409066 
L 346.181818 84.409066 
L 349.789091 84.409066 
L 353.396364 84.409066 
L 357.003636 84.409066 
L 360.610909 84.409066 
L 364.218182 84.409066 
L 367.825455 84.409066 
L 371.432727 84.409066 
L 375.04 84.409066 
L 378.647273 84.409066 
L 382.254545 84.409066 
L 385.861818 84.409066 
L 389.469091 84.409066 
L 393.076364 84.409066 
L 396.683636 84.409066 
L 400.290909 84.409066 
L 403.898182 84.409066 
L 407.505455 84.409066 
L 411.112727 84.409066 
L 414.72 84.409066 
" clip-path="url(#pbf013b36bf)" style="fill: none; stroke: #000000; stroke-width: 0.5"/>
   </g>
   <g id="PathCollection_15"/>
   <g id="LineCollection_1">
    <path d="M 68.153699 307.584 
L 68.153699 294.2784 
" clip-path="url(#pbf013b36bf)" style="fill: none; stroke: #000000; stroke-width: 1.5"/>
    <path d="M 84.835458 307.584 
L 84.835458 294.2784 
" clip-path="url(#pbf013b36bf)" style="fill: none; stroke: #000000; stroke-width: 1.5"/>
    <path d="M 104.170605 307.584 
L 104.170605 294.2784 
" clip-path="url(#pbf013b36bf)" style="fill: none; stroke: #000000; stroke-width: 1.5"/>
    <path d="M 123.093447 307.584 
L 123.093447 294.2784 
" clip-path="url(#pbf013b36bf)" style="fill: none; stroke: #000000; stroke-width: 1.5"/>
    <path d="M 154.229185 307.584 
L 154.229185 294.2784 
" clip-path="url(#pbf013b36bf)" style="fill: none; stroke: #000000; stroke-width: 1.5"/>
    <path d="M 185.315047 307.584 
L 185.315047 294.2784 
" clip-path="url(#pbf013b36bf)" style="fill: none; stroke: #000000; stroke-width: 1.5"/>
    <path d="M 218.366012 307.584 
L 218.366012 294.2784 
" clip-path="url(#pbf013b36bf)" style="fill: none; stroke: #000000; stroke-width: 1.5"/>
    <path d="M 294.130528 307.584 
L 294.130528 294.2784 
" clip-path="url(#pbf013b36bf)" style="fill: none; stroke: #000000; stroke-width: 1.5"/>
    <path d="M 342.443458 307.584 
L 342.443458 294.2784 
" clip-path="url(#pbf013b36bf)" style="fill: none; stroke: #000000; stroke-width: 1.5"/>
   </g>
   <g id="LineCollection_2">
    <path clip-path="url(#pbf013b36bf)" style="fill: none; stroke: #000000; stroke-width: 1.5"/>
    <path clip-path="url(#pbf013b36bf)" style="fill: none; stroke: #000000; stroke-width: 1.5"/>
    <path clip-path="url(#pbf013b36bf)" style="fill: none; stroke: #000000; stroke-width: 1.5"/>
    <path clip-path="url(#pbf013b36bf)" style="fill: none; stroke: #000000; stroke-width: 1.5"/>
    <path clip-path="url(#pbf013b36bf)" style="fill: none; stroke: #000000; stroke-width: 1.5"/>
    <path clip-path="url(#pbf013b36bf)" style="fill: none; stroke: #000000; stroke-width: 1.5"/>
    <path clip-path="url(#pbf013b36bf)" style="fill: none; stroke: #000000; stroke-width: 1.5"/>
    <path clip-path="url(#pbf013b36bf)" style="fill: none; stroke: #000000; stroke-width: 1.5"/>
    <path clip-path="url(#pbf013b36bf)" style="fill: none; stroke: #000000; stroke-width: 1.5"/>
   </g>
   <g id="patch_3">
    <path d="M 57.6 307.584 
L 57.6 41.472 
" style="fill: none; stroke: #000000; stroke-width: 0.8; stroke-linejoin: miter; stroke-linecap: square"/>
   </g>
   <g id="patch_4">
    <path d="M 414.72 307.584 
L 414.72 41.472 
" style="fill: none; stroke: #000000; stroke-width: 0.8; stroke-linejoin: miter; stroke-linecap: square"/>
   </g>
   <g id="patch_5">
    <path d="M 57.6 307.584 
L 414.72 307.584 
" style="fill: none; stroke: #000000; stroke-width: 0.8; stroke-linejoin: miter; stroke-linecap: square"/>
   </g>
   <g id="patch_6">
    <path d="M 57.6 41.472 
L 414.72 41.472 
" style="fill: none; stroke: #000000; stroke-width: 0.8; stroke-linejoin: miter; stroke-linecap: square"/>
   </g>
   <g id="text_17">
    <!-- 2D-partial dependency plot between PM and Age -->
    <g transform="translate(88.709063 35.472) scale(0.12 -0.12)">
     <defs>
      <path id="DejaVuSans-44" d="M 1259 4147 
L 1259 519 
L 2022 519 
Q 2988 519 3436 956 
Q 3884 1394 3884 2338 
Q 3884 3275 3436 3711 
Q 2988 4147 2022 4147 
L 1259 4147 
z
M 628 4666 
L 1925 4666 
Q 3281 4666 3915 4102 
Q 4550 3538 4550 2338 
Q 4550 1131 3912 565 
Q 3275 0 1925 0 
L 628 0 
L 628 4666 
z
" transform="scale(0.015625)"/>
      <path id="DejaVuSans-2d" d="M 313 2009 
L 1997 2009 
L 1997 1497 
L 313 1497 
L 313 2009 
z
" transform="scale(0.015625)"/>
      <path id="DejaVuSans-70" d="M 1159 525 
L 1159 -1331 
L 581 -1331 
L 581 3500 
L 1159 3500 
L 1159 2969 
Q 1341 3281 1617 3432 
Q 1894 3584 2278 3584 
Q 2916 3584 3314 3078 
Q 3713 2572 3713 1747 
Q 3713 922 3314 415 
Q 2916 -91 2278 -91 
Q 1894 -91 1617 61 
Q 1341 213 1159 525 
z
M 3116 1747 
Q 3116 2381 2855 2742 
Q 2594 3103 2138 3103 
Q 1681 3103 1420 2742 
Q 1159 2381 1159 1747 
Q 1159 1113 1420 752 
Q 1681 391 2138 391 
Q 2594 391 2855 752 
Q 3116 1113 3116 1747 
z
" transform="scale(0.015625)"/>
      <path id="DejaVuSans-72" d="M 2631 2963 
Q 2534 3019 2420 3045 
Q 2306 3072 2169 3072 
Q 1681 3072 1420 2755 
Q 1159 2438 1159 1844 
L 1159 0 
L 581 0 
L 581 3500 
L 1159 3500 
L 1159 2956 
Q 1341 3275 1631 3429 
Q 1922 3584 2338 3584 
Q 2397 3584 2469 3576 
Q 2541 3569 2628 3553 
L 2631 2963 
z
" transform="scale(0.015625)"/>
      <path id="DejaVuSans-74" d="M 1172 4494 
L 1172 3500 
L 2356 3500 
L 2356 3053 
L 1172 3053 
L 1172 1153 
Q 1172 725 1289 603 
Q 1406 481 1766 481 
L 2356 481 
L 2356 0 
L 1766 0 
Q 1100 0 847 248 
Q 594 497 594 1153 
L 594 3053 
L 172 3053 
L 172 3500 
L 594 3500 
L 594 4494 
L 1172 4494 
z
" transform="scale(0.015625)"/>
      <path id="DejaVuSans-6c" d="M 603 4863 
L 1178 4863 
L 1178 0 
L 603 0 
L 603 4863 
z
" transform="scale(0.015625)"/>
      <path id="DejaVuSans-63" d="M 3122 3366 
L 3122 2828 
Q 2878 2963 2633 3030 
Q 2388 3097 2138 3097 
Q 1578 3097 1268 2742 
Q 959 2388 959 1747 
Q 959 1106 1268 751 
Q 1578 397 2138 397 
Q 2388 397 2633 464 
Q 2878 531 3122 666 
L 3122 134 
Q 2881 22 2623 -34 
Q 2366 -91 2075 -91 
Q 1284 -91 818 406 
Q 353 903 353 1747 
Q 353 2603 823 3093 
Q 1294 3584 2113 3584 
Q 2378 3584 2631 3529 
Q 2884 3475 3122 3366 
z
" transform="scale(0.015625)"/>
      <path id="DejaVuSans-79" d="M 2059 -325 
Q 1816 -950 1584 -1140 
Q 1353 -1331 966 -1331 
L 506 -1331 
L 506 -850 
L 844 -850 
Q 1081 -850 1212 -737 
Q 1344 -625 1503 -206 
L 1606 56 
L 191 3500 
L 800 3500 
L 1894 763 
L 2988 3500 
L 3597 3500 
L 2059 -325 
z
" transform="scale(0.015625)"/>
      <path id="DejaVuSans-6f" d="M 1959 3097 
Q 1497 3097 1228 2736 
Q 959 2375 959 1747 
Q 959 1119 1226 758 
Q 1494 397 1959 397 
Q 2419 397 2687 759 
Q 2956 1122 2956 1747 
Q 2956 2369 2687 2733 
Q 2419 3097 1959 3097 
z
M 1959 3584 
Q 2709 3584 3137 3096 
Q 3566 2609 3566 1747 
Q 3566 888 3137 398 
Q 2709 -91 1959 -91 
Q 1206 -91 779 398 
Q 353 888 353 1747 
Q 353 2609 779 3096 
Q 1206 3584 1959 3584 
z
" transform="scale(0.015625)"/>
      <path id="DejaVuSans-62" d="M 3116 1747 
Q 3116 2381 2855 2742 
Q 2594 3103 2138 3103 
Q 1681 3103 1420 2742 
Q 1159 2381 1159 1747 
Q 1159 1113 1420 752 
Q 1681 391 2138 391 
Q 2594 391 2855 752 
Q 3116 1113 3116 1747 
z
M 1159 2969 
Q 1341 3281 1617 3432 
Q 1894 3584 2278 3584 
Q 2916 3584 3314 3078 
Q 3713 2572 3713 1747 
Q 3713 922 3314 415 
Q 2916 -91 2278 -91 
Q 1894 -91 1617 61 
Q 1341 213 1159 525 
L 1159 0 
L 581 0 
L 581 4863 
L 1159 4863 
L 1159 2969 
z
" transform="scale(0.015625)"/>
      <path id="DejaVuSans-77" d="M 269 3500 
L 844 3500 
L 1563 769 
L 2278 3500 
L 2956 3500 
L 3675 769 
L 4391 3500 
L 4966 3500 
L 4050 0 
L 3372 0 
L 2619 2869 
L 1863 0 
L 1184 0 
L 269 3500 
z
" transform="scale(0.015625)"/>
     </defs>
     <use xlink:href="#DejaVuSans-32"/>
     <use xlink:href="#DejaVuSans-44" x="63.623047"/>
     <use xlink:href="#DejaVuSans-2d" x="140.625"/>
     <use xlink:href="#DejaVuSans-70" x="176.708984"/>
     <use xlink:href="#DejaVuSans-61" x="240.185547"/>
     <use xlink:href="#DejaVuSans-72" x="301.464844"/>
     <use xlink:href="#DejaVuSans-74" x="342.578125"/>
     <use xlink:href="#DejaVuSans-69" x="381.787109"/>
     <use xlink:href="#DejaVuSans-61" x="409.570312"/>
     <use xlink:href="#DejaVuSans-6c" x="470.849609"/>
     <use xlink:href="#DejaVuSans-20" x="498.632812"/>
     <use xlink:href="#DejaVuSans-64" x="530.419922"/>
     <use xlink:href="#DejaVuSans-65" x="593.896484"/>
     <use xlink:href="#DejaVuSans-70" x="655.419922"/>
     <use xlink:href="#DejaVuSans-65" x="718.896484"/>
     <use xlink:href="#DejaVuSans-6e" x="780.419922"/>
     <use xlink:href="#DejaVuSans-64" x="843.798828"/>
     <use xlink:href="#DejaVuSans-65" x="907.275391"/>
     <use xlink:href="#DejaVuSans-6e" x="968.798828"/>
     <use xlink:href="#DejaVuSans-63" x="1032.177734"/>
     <use xlink:href="#DejaVuSans-79" x="1087.158203"/>
     <use xlink:href="#DejaVuSans-20" x="1146.337891"/>
     <use xlink:href="#DejaVuSans-70" x="1178.125"/>
     <use xlink:href="#DejaVuSans-6c" x="1241.601562"/>
     <use xlink:href="#DejaVuSans-6f" x="1269.384766"/>
     <use xlink:href="#DejaVuSans-74" x="1330.566406"/>
     <use xlink:href="#DejaVuSans-20" x="1369.775391"/>
     <use xlink:href="#DejaVuSans-62" x="1401.5625"/>
     <use xlink:href="#DejaVuSans-65" x="1465.039062"/>
     <use xlink:href="#DejaVuSans-74" x="1526.5625"/>
     <use xlink:href="#DejaVuSans-77" x="1565.771484"/>
     <use xlink:href="#DejaVuSans-65" x="1647.558594"/>
     <use xlink:href="#DejaVuSans-65" x="1709.082031"/>
     <use xlink:href="#DejaVuSans-6e" x="1770.605469"/>
     <use xlink:href="#DejaVuSans-20" x="1833.984375"/>
     <use xlink:href="#DejaVuSans-50" x="1865.771484"/>
     <use xlink:href="#DejaVuSans-4d" x="1926.074219"/>
     <use xlink:href="#DejaVuSans-20" x="2012.353516"/>
     <use xlink:href="#DejaVuSans-61" x="2044.140625"/>
     <use xlink:href="#DejaVuSans-6e" x="2105.419922"/>
     <use xlink:href="#DejaVuSans-64" x="2168.798828"/>
     <use xlink:href="#DejaVuSans-20" x="2232.275391"/>
     <use xlink:href="#DejaVuSans-41" x="2264.0625"/>
     <use xlink:href="#DejaVuSans-67" x="2332.470703"/>
     <use xlink:href="#DejaVuSans-65" x="2395.947266"/>
    </g>
   </g>
   <g id="text_18">
    <g clip-path="url(#pbf013b36bf)">
     <!-- 6.35 -->
     <g transform="translate(324.227188 188.380355) scale(0.1 -0.1)">
      <defs>
       <path id="DejaVuSans-36" d="M 2113 2584 
Q 1688 2584 1439 2293 
Q 1191 2003 1191 1497 
Q 1191 994 1439 701 
Q 1688 409 2113 409 
Q 2538 409 2786 701 
Q 3034 994 3034 1497 
Q 3034 2003 2786 2293 
Q 2538 2584 2113 2584 
z
M 3366 4563 
L 3366 3988 
Q 3128 4100 2886 4159 
Q 2644 4219 2406 4219 
Q 1781 4219 1451 3797 
Q 1122 3375 1075 2522 
Q 1259 2794 1537 2939 
Q 1816 3084 2150 3084 
Q 2853 3084 3261 2657 
Q 3669 2231 3669 1497 
Q 3669 778 3244 343 
Q 2819 -91 2113 -91 
Q 1303 -91 875 529 
Q 447 1150 447 2328 
Q 447 3434 972 4092 
Q 1497 4750 2381 4750 
Q 2619 4750 2861 4703 
Q 3103 4656 3366 4563 
z
" transform="scale(0.015625)"/>
      </defs>
      <use xlink:href="#DejaVuSans-36"/>
      <use xlink:href="#DejaVuSans-2e" x="63.623047"/>
      <use xlink:href="#DejaVuSans-33" x="95.410156"/>
      <use xlink:href="#DejaVuSans-35" x="159.033203"/>
     </g>
    </g>
   </g>
   <g id="text_19">
    <g clip-path="url(#pbf013b36bf)">
     <!-- 11.34 -->
     <g transform="translate(111.825164 145.847725) rotate(-0.021676) scale(0.1 -0.1)">
      <use xlink:href="#DejaVuSans-31"/>
      <use xlink:href="#DejaVuSans-31" x="63.623047"/>
      <use xlink:href="#DejaVuSans-2e" x="127.246094"/>
      <use xlink:href="#DejaVuSans-33" x="159.033203"/>
      <use xlink:href="#DejaVuSans-34" x="222.65625"/>
     </g>
    </g>
   </g>
   <g id="text_20">
    <g clip-path="url(#pbf013b36bf)">
     <!-- 16.32 -->
     <g transform="translate(252.508846 144.864432) rotate(-0.022624) scale(0.1 -0.1)">
      <use xlink:href="#DejaVuSans-31"/>
      <use xlink:href="#DejaVuSans-36" x="63.623047"/>
      <use xlink:href="#DejaVuSans-2e" x="127.246094"/>
      <use xlink:href="#DejaVuSans-33" x="159.033203"/>
      <use xlink:href="#DejaVuSans-32" x="222.65625"/>
     </g>
    </g>
   </g>
   <g id="text_21">
    <g clip-path="url(#pbf013b36bf)">
     <!-- 21.30 -->
     <g transform="translate(393.191392 143.891739) scale(0.1 -0.1)">
      <use xlink:href="#DejaVuSans-32"/>
      <use xlink:href="#DejaVuSans-31" x="63.623047"/>
      <use xlink:href="#DejaVuSans-2e" x="127.246094"/>
      <use xlink:href="#DejaVuSans-33" x="159.033203"/>
      <use xlink:href="#DejaVuSans-30" x="222.65625"/>
     </g>
    </g>
   </g>
   <g id="text_22">
    <g clip-path="url(#pbf013b36bf)">
     <!-- 26.28 -->
     <g transform="translate(252.507756 138.552655) scale(0.1 -0.1)">
      <defs>
       <path id="DejaVuSans-38" d="M 2034 2216 
Q 1584 2216 1326 1975 
Q 1069 1734 1069 1313 
Q 1069 891 1326 650 
Q 1584 409 2034 409 
Q 2484 409 2743 651 
Q 3003 894 3003 1313 
Q 3003 1734 2745 1975 
Q 2488 2216 2034 2216 
z
M 1403 2484 
Q 997 2584 770 2862 
Q 544 3141 544 3541 
Q 544 4100 942 4425 
Q 1341 4750 2034 4750 
Q 2731 4750 3128 4425 
Q 3525 4100 3525 3541 
Q 3525 3141 3298 2862 
Q 3072 2584 2669 2484 
Q 3125 2378 3379 2068 
Q 3634 1759 3634 1313 
Q 3634 634 3220 271 
Q 2806 -91 2034 -91 
Q 1263 -91 848 271 
Q 434 634 434 1313 
Q 434 1759 690 2068 
Q 947 2378 1403 2484 
z
M 1172 3481 
Q 1172 3119 1398 2916 
Q 1625 2713 2034 2713 
Q 2441 2713 2670 2916 
Q 2900 3119 2900 3481 
Q 2900 3844 2670 4047 
Q 2441 4250 2034 4250 
Q 1625 4250 1398 4047 
Q 1172 3844 1172 3481 
z
" transform="scale(0.015625)"/>
      </defs>
      <use xlink:href="#DejaVuSans-32"/>
      <use xlink:href="#DejaVuSans-36" x="63.623047"/>
      <use xlink:href="#DejaVuSans-2e" x="127.246094"/>
      <use xlink:href="#DejaVuSans-32" x="159.033203"/>
      <use xlink:href="#DejaVuSans-38" x="222.65625"/>
     </g>
    </g>
   </g>
   <g id="text_23">
    <g clip-path="url(#pbf013b36bf)">
     <!-- 31.26 -->
     <g transform="translate(248.900483 87.168441) scale(0.1 -0.1)">
      <use xlink:href="#DejaVuSans-33"/>
      <use xlink:href="#DejaVuSans-31" x="63.623047"/>
      <use xlink:href="#DejaVuSans-2e" x="127.246094"/>
      <use xlink:href="#DejaVuSans-32" x="159.033203"/>
      <use xlink:href="#DejaVuSans-36" x="222.65625"/>
     </g>
    </g>
   </g>
  </g>
 </g>
 <defs>
  <clipPath id="pbf013b36bf">
   <rect x="57.6" y="41.472" width="357.12" height="266.112"/>
  </clipPath>
 </defs>
</svg>
