<?xml version="1.0" encoding="utf-8" standalone="no"?>
<!DOCTYPE svg PUBLIC "-//W3C//DTD SVG 1.1//EN"
  "http://www.w3.org/Graphics/SVG/1.1/DTD/svg11.dtd">
<svg xmlns:xlink="http://www.w3.org/1999/xlink" width="460.8pt" height="345.6pt" viewBox="0 0 460.8 345.6" xmlns="http://www.w3.org/2000/svg" version="1.1">
 <metadata>
  <rdf:RDF xmlns:dc="http://purl.org/dc/elements/1.1/" xmlns:cc="http://creativecommons.org/ns#" xmlns:rdf="http://www.w3.org/1999/02/22-rdf-syntax-ns#">
   <cc:Work>
    <dc:type rdf:resource="http://purl.org/dc/dcmitype/StillImage"/>
    <dc:date>2024-03-09T16:47:29.311118</dc:date>
    <dc:format>image/svg+xml</dc:format>
    <dc:creator>
     <cc:Agent>
      <dc:title>Matplotlib v3.7.0, https://matplotlib.org/</dc:title>
     </cc:Agent>
    </dc:creator>
   </cc:Work>
  </rdf:RDF>
 </metadata>
 <defs>
  <style type="text/css">*{stroke-linejoin: round; stroke-linecap: butt}</style>
 </defs>
 <g id="figure_1">
  <g id="patch_1">
   <path d="M 0 345.6 
L 460.8 345.6 
L 460.8 0 
L 0 0 
L 0 345.6 
z
" style="fill: none"/>
  </g>
  <g id="axes_1"/>
  <g id="axes_2">
   <g id="patch_2">
    <path d="M 57.6 307.584 
L 414.72 307.584 
L 414.72 41.472 
L 57.6 41.472 
L 57.6 307.584 
z
" style="fill: none"/>
   </g>
   <g id="PathCollection_1">
    <path d="M 61.207273 279.512861 
L 64.814545 279.512861 
L 68.421818 279.512861 
L 72.029091 279.512861 
L 75.636364 279.512861 
L 79.243636 279.512861 
L 82.850909 279.512861 
L 86.458182 279.512861 
L 90.065455 279.512861 
L 93.672727 279.512861 
L 97.28 279.512861 
L 100.887273 279.512861 
L 104.494545 279.512861 
L 108.101818 279.512861 
L 111.709091 279.512861 
L 115.316364 279.512861 
L 118.923636 279.512861 
L 122.530909 279.512861 
L 126.138182 279.512861 
L 129.745455 279.512861 
L 133.352727 279.512861 
L 136.96 279.512861 
L 140.567273 279.512861 
L 144.174545 279.512861 
L 147.781818 279.512861 
L 151.389091 279.512861 
L 154.996364 279.512861 
L 158.603636 279.512861 
L 162.210909 279.512861 
L 165.818182 279.512861 
L 169.425455 279.512861 
L 173.032727 279.512861 
L 176.64 279.512861 
L 180.247273 279.512861 
L 183.854545 279.512861 
L 187.461818 279.512861 
L 191.069091 279.512861 
L 194.676364 279.512861 
L 198.283636 279.512861 
L 201.890909 279.512861 
L 205.498182 279.512861 
L 209.105455 279.512861 
L 212.712727 279.512861 
L 216.32 279.512861 
L 219.927273 279.512861 
L 223.534545 279.512861 
L 227.141818 279.512861 
L 230.749091 279.512861 
L 234.356364 279.512861 
L 236.473665 278.016 
L 236.473665 275.328 
L 236.473665 272.64 
L 236.473665 269.952 
L 236.473665 267.264 
L 234.356364 264.638871 
L 230.749091 264.638871 
L 227.141818 264.638871 
L 223.534545 264.638871 
L 219.927273 264.638871 
L 216.32 264.638871 
L 212.712727 264.638871 
L 209.105455 264.638871 
L 205.498182 264.638871 
L 201.890909 264.638871 
L 198.283636 264.638871 
L 194.676364 264.638871 
L 191.069091 264.638871 
L 187.461818 264.638871 
L 183.854545 264.638871 
L 180.247273 264.638871 
L 176.64 264.638871 
L 173.032727 264.638871 
L 169.425455 264.638871 
L 165.818182 264.638871 
L 162.210909 264.638871 
L 158.603636 264.638871 
L 154.996364 264.638871 
L 151.389091 264.638871 
L 147.781818 264.638871 
L 144.174545 264.638871 
L 140.567273 264.638871 
L 136.96 264.638871 
L 133.352727 264.638871 
L 129.745455 264.638871 
L 126.138182 264.638871 
L 122.530909 264.638871 
L 118.923636 264.638871 
L 115.316364 264.638871 
L 111.709091 264.638871 
L 108.101818 264.638871 
L 104.494545 264.638871 
L 100.887273 264.638871 
L 97.28 264.638871 
L 93.672727 264.638871 
L 90.065455 264.638871 
L 86.458182 264.638871 
L 82.850909 264.638871 
L 79.243636 264.638871 
L 75.636364 264.638871 
L 72.029091 264.638871 
L 68.421818 264.638871 
L 64.814545 264.638871 
L 61.207273 264.638871 
L 57.6 264.638871 
L 57.6 267.264 
L 57.6 269.952 
L 57.6 272.64 
L 57.6 275.328 
L 57.6 278.016 
L 57.6 279.512861 
z
" clip-path="url(#p2a631cd753)" style="fill: #481b6d; fill-opacity: 0.75"/>
   </g>
   <g id="PathCollection_2">
    <path d="M 61.207273 290.175018 
L 64.814545 290.175018 
L 68.421818 290.175018 
L 72.029091 290.175018 
L 75.636364 290.175018 
L 79.243636 290.175018 
L 82.850909 290.175018 
L 86.458182 290.175018 
L 90.065455 290.175018 
L 93.672727 290.175018 
L 97.28 290.175018 
L 100.887273 290.175018 
L 104.494545 290.175018 
L 108.101818 290.175018 
L 111.709091 290.175018 
L 115.316364 290.175018 
L 118.923636 290.175018 
L 122.530909 290.175018 
L 126.138182 290.175018 
L 129.745455 290.175018 
L 133.352727 290.175018 
L 136.96 290.175018 
L 140.567273 290.175018 
L 144.174545 290.175018 
L 147.781818 290.175018 
L 151.389091 290.175018 
L 154.996364 290.175018 
L 158.603636 290.175018 
L 162.210909 290.175018 
L 165.818182 290.175018 
L 169.425455 290.175018 
L 173.032727 290.175018 
L 176.64 290.175018 
L 180.247273 290.175018 
L 183.854545 290.175018 
L 187.461818 290.175018 
L 191.069091 290.175018 
L 194.676364 290.175018 
L 198.283636 290.175018 
L 201.890909 290.175018 
L 205.498182 290.175018 
L 209.105455 290.175018 
L 212.712727 290.175018 
L 216.32 290.175018 
L 219.927273 290.175018 
L 223.534545 290.175018 
L 227.141818 290.175018 
L 230.749091 290.175018 
L 234.356364 290.175018 
L 234.557473 288.768 
L 235.776879 286.08 
L 235.776879 283.392 
L 235.776879 280.704 
L 237.963636 279.158036 
L 239.566549 278.016 
L 239.566549 275.328 
L 239.566549 272.64 
L 239.566549 269.952 
L 239.566549 267.264 
L 237.963636 265.261146 
L 237.411031 264.576 
L 237.411031 261.888 
L 237.411031 259.2 
L 237.411031 256.512 
L 237.411031 253.824 
L 237.411031 251.136 
L 237.411031 248.448 
L 237.411031 245.76 
L 237.411031 243.072 
L 237.411031 240.384 
L 237.411031 237.696 
L 237.411031 235.008 
L 237.411031 232.32 
L 237.411031 229.632 
L 237.411031 226.944 
L 237.411031 224.256 
L 237.411031 221.568 
L 237.411031 218.88 
L 237.411031 216.192 
L 237.411031 213.504 
L 237.411031 210.816 
L 237.411031 208.128 
L 237.411031 205.44 
L 237.411031 202.752 
L 237.411031 200.064 
L 237.411031 197.376 
L 237.411031 194.688 
L 237.411031 192 
L 237.411031 189.312 
L 237.411031 186.624 
L 237.411031 183.936 
L 237.411031 181.248 
L 237.411031 178.56 
L 237.411031 175.872 
L 237.411031 173.184 
L 237.411031 170.496 
L 237.411031 167.808 
L 237.411031 165.12 
L 237.411031 162.432 
L 237.411031 159.744 
L 237.411031 157.056 
L 237.411031 154.368 
L 237.411031 151.68 
L 237.411031 148.992 
L 237.411031 146.304 
L 237.411031 143.616 
L 237.411031 140.928 
L 237.411031 138.24 
L 237.411031 135.552 
L 237.411031 132.864 
L 237.411031 130.176 
L 237.411031 127.488 
L 237.411031 124.8 
L 237.411031 122.112 
L 237.411031 119.424 
L 237.411031 116.736 
L 237.411031 114.048 
L 237.411031 111.36 
L 237.411031 108.672 
L 237.411031 105.984 
L 237.411031 103.296 
L 237.411031 100.608 
L 237.411031 97.92 
L 237.411031 95.232 
L 237.411031 92.544 
L 237.411031 89.856 
L 237.411031 87.168 
L 237.411031 84.48 
L 237.411031 81.792 
L 237.411031 79.104 
L 237.411031 76.416 
L 237.411031 73.728 
L 237.411031 71.04 
L 237.411031 68.352 
L 237.411031 65.664 
L 237.411031 62.976 
L 237.411031 60.288 
L 237.411031 57.6 
L 237.411031 54.912 
L 237.411031 52.224 
L 237.411031 49.536 
L 237.411031 46.848 
L 237.411031 44.16 
L 237.411031 41.472 
L 234.356364 41.472 
L 230.749091 41.472 
L 227.141818 41.472 
L 223.534545 41.472 
L 219.927273 41.472 
L 216.32 41.472 
L 212.712727 41.472 
L 209.105455 41.472 
L 205.498182 41.472 
L 201.890909 41.472 
L 198.283636 41.472 
L 194.676364 41.472 
L 191.069091 41.472 
L 187.461818 41.472 
L 183.854545 41.472 
L 180.247273 41.472 
L 176.64 41.472 
L 173.032727 41.472 
L 169.425455 41.472 
L 165.818182 41.472 
L 162.210909 41.472 
L 158.603636 41.472 
L 154.996364 41.472 
L 151.389091 41.472 
L 147.781818 41.472 
L 144.174545 41.472 
L 140.567273 41.472 
L 136.96 41.472 
L 133.352727 41.472 
L 129.745455 41.472 
L 126.138182 41.472 
L 122.530909 41.472 
L 118.923636 41.472 
L 115.316364 41.472 
L 111.709091 41.472 
L 108.101818 41.472 
L 104.494545 41.472 
L 100.887273 41.472 
L 97.28 41.472 
L 93.672727 41.472 
L 90.065455 41.472 
L 86.458182 41.472 
L 82.850909 41.472 
L 79.243636 41.472 
L 75.636364 41.472 
L 72.029091 41.472 
L 68.421818 41.472 
L 64.814545 41.472 
L 61.207273 41.472 
L 57.6 41.472 
L 57.6 44.16 
L 57.6 46.848 
L 57.6 49.536 
L 57.6 52.224 
L 57.6 54.912 
L 57.6 57.6 
L 57.6 60.288 
L 57.6 62.976 
L 57.6 65.664 
L 57.6 68.352 
L 57.6 71.04 
L 57.6 73.728 
L 57.6 76.416 
L 57.6 79.104 
L 57.6 81.792 
L 57.6 84.48 
L 57.6 87.168 
L 57.6 89.856 
L 57.6 92.544 
L 57.6 95.232 
L 57.6 97.92 
L 57.6 100.608 
L 57.6 103.296 
L 57.6 105.984 
L 57.6 108.672 
L 57.6 111.36 
L 57.6 114.048 
L 57.6 116.736 
L 57.6 119.424 
L 57.6 122.112 
L 57.6 124.8 
L 57.6 127.488 
L 57.6 130.176 
L 57.6 132.864 
L 57.6 135.552 
L 57.6 138.24 
L 57.6 140.928 
L 57.6 143.616 
L 57.6 146.304 
L 57.6 148.992 
L 57.6 151.68 
L 57.6 154.368 
L 57.6 157.056 
L 57.6 159.744 
L 57.6 162.432 
L 57.6 165.12 
L 57.6 167.808 
L 57.6 170.496 
L 57.6 173.184 
L 57.6 175.872 
L 57.6 178.56 
L 57.6 181.248 
L 57.6 183.936 
L 57.6 186.624 
L 57.6 189.312 
L 57.6 192 
L 57.6 194.688 
L 57.6 197.376 
L 57.6 200.064 
L 57.6 202.752 
L 57.6 205.44 
L 57.6 208.128 
L 57.6 210.816 
L 57.6 213.504 
L 57.6 216.192 
L 57.6 218.88 
L 57.6 221.568 
L 57.6 224.256 
L 57.6 226.944 
L 57.6 229.632 
L 57.6 232.32 
L 57.6 235.008 
L 57.6 237.696 
L 57.6 240.384 
L 57.6 243.072 
L 57.6 245.76 
L 57.6 248.448 
L 57.6 251.136 
L 57.6 253.824 
L 57.6 256.512 
L 57.6 259.2 
L 57.6 261.888 
L 57.6 264.576 
L 57.6 264.638871 
L 61.207273 264.638871 
L 64.814545 264.638871 
L 68.421818 264.638871 
L 72.029091 264.638871 
L 75.636364 264.638871 
L 79.243636 264.638871 
L 82.850909 264.638871 
L 86.458182 264.638871 
L 90.065455 264.638871 
L 93.672727 264.638871 
L 97.28 264.638871 
L 100.887273 264.638871 
L 104.494545 264.638871 
L 108.101818 264.638871 
L 111.709091 264.638871 
L 115.316364 264.638871 
L 118.923636 264.638871 
L 122.530909 264.638871 
L 126.138182 264.638871 
L 129.745455 264.638871 
L 133.352727 264.638871 
L 136.96 264.638871 
L 140.567273 264.638871 
L 144.174545 264.638871 
L 147.781818 264.638871 
L 151.389091 264.638871 
L 154.996364 264.638871 
L 158.603636 264.638871 
L 162.210909 264.638871 
L 165.818182 264.638871 
L 169.425455 264.638871 
L 173.032727 264.638871 
L 176.64 264.638871 
L 180.247273 264.638871 
L 183.854545 264.638871 
L 187.461818 264.638871 
L 191.069091 264.638871 
L 194.676364 264.638871 
L 198.283636 264.638871 
L 201.890909 264.638871 
L 205.498182 264.638871 
L 209.105455 264.638871 
L 212.712727 264.638871 
L 216.32 264.638871 
L 219.927273 264.638871 
L 223.534545 264.638871 
L 227.141818 264.638871 
L 230.749091 264.638871 
L 234.356364 264.638871 
L 236.473665 267.264 
L 236.473665 269.952 
L 236.473665 272.64 
L 236.473665 275.328 
L 236.473665 278.016 
L 234.356364 279.512861 
L 230.749091 279.512861 
L 227.141818 279.512861 
L 223.534545 279.512861 
L 219.927273 279.512861 
L 216.32 279.512861 
L 212.712727 279.512861 
L 209.105455 279.512861 
L 205.498182 279.512861 
L 201.890909 279.512861 
L 198.283636 279.512861 
L 194.676364 279.512861 
L 191.069091 279.512861 
L 187.461818 279.512861 
L 183.854545 279.512861 
L 180.247273 279.512861 
L 176.64 279.512861 
L 173.032727 279.512861 
L 169.425455 279.512861 
L 165.818182 279.512861 
L 162.210909 279.512861 
L 158.603636 279.512861 
L 154.996364 279.512861 
L 151.389091 279.512861 
L 147.781818 279.512861 
L 144.174545 279.512861 
L 140.567273 279.512861 
L 136.96 279.512861 
L 133.352727 279.512861 
L 129.745455 279.512861 
L 126.138182 279.512861 
L 122.530909 279.512861 
L 118.923636 279.512861 
L 115.316364 279.512861 
L 111.709091 279.512861 
L 108.101818 279.512861 
L 104.494545 279.512861 
L 100.887273 279.512861 
L 97.28 279.512861 
L 93.672727 279.512861 
L 90.065455 279.512861 
L 86.458182 279.512861 
L 82.850909 279.512861 
L 79.243636 279.512861 
L 75.636364 279.512861 
L 72.029091 279.512861 
L 68.421818 279.512861 
L 64.814545 279.512861 
L 61.207273 279.512861 
L 57.6 279.512861 
L 57.6 280.704 
L 57.6 283.392 
L 57.6 286.08 
L 57.6 288.768 
L 57.6 290.175018 
z
" clip-path="url(#p2a631cd753)" style="fill: #3f4788; fill-opacity: 0.75"/>
   </g>
   <g id="PathCollection_3">
    <path d="M 61.207273 297.564729 
L 64.814545 297.564729 
L 68.421818 297.564729 
L 72.029091 297.564729 
L 75.636364 297.564729 
L 79.243636 297.564729 
L 82.850909 297.564729 
L 86.458182 297.564729 
L 90.065455 297.564729 
L 93.672727 297.564729 
L 97.28 297.564729 
L 100.887273 297.564729 
L 104.494545 297.564729 
L 108.101818 297.564729 
L 111.709091 297.564729 
L 115.316364 297.564729 
L 118.923636 297.564729 
L 122.530909 297.564729 
L 126.138182 297.564729 
L 129.745455 297.564729 
L 133.352727 297.564729 
L 136.96 297.564729 
L 140.567273 297.564729 
L 144.174545 297.564729 
L 147.781818 297.564729 
L 151.389091 297.564729 
L 154.996364 297.564729 
L 158.603636 297.564729 
L 162.210909 297.564729 
L 165.818182 297.564729 
L 169.425455 297.564729 
L 173.032727 297.564729 
L 176.64 297.564729 
L 180.247273 297.564729 
L 183.854545 297.564729 
L 187.461818 297.564729 
L 191.069091 297.564729 
L 194.676364 297.564729 
L 198.283636 297.564729 
L 201.890909 297.564729 
L 205.498182 297.564729 
L 209.105455 297.564729 
L 212.712727 297.564729 
L 216.32 297.564729 
L 219.927273 297.564729 
L 223.534545 297.564729 
L 227.141818 297.564729 
L 230.749091 297.564729 
L 234.356364 297.564729 
L 237.278644 296.832 
L 237.278644 294.144 
L 237.278644 291.456 
L 237.662849 288.768 
L 237.963636 288.104959 
L 238.875151 286.08 
L 238.875151 283.392 
L 238.875151 280.704 
L 241.570909 278.783338 
L 245.178182 278.783338 
L 248.785455 278.783338 
L 252.392727 278.783338 
L 256 278.783338 
L 259.607273 278.783338 
L 263.214545 278.783338 
L 266.821818 278.783338 
L 270.429091 278.783338 
L 274.036364 278.783338 
L 277.643636 278.783338 
L 281.250909 278.783338 
L 284.858182 278.783338 
L 288.465455 278.783338 
L 292.072727 278.783338 
L 295.68 278.783338 
L 299.287273 278.783338 
L 302.894545 278.783338 
L 306.501818 278.783338 
L 310.109091 278.783338 
L 313.716364 278.783338 
L 317.323636 278.783338 
L 320.930909 278.783338 
L 324.538182 278.783338 
L 328.145455 278.783338 
L 331.752727 278.783338 
L 335.36 278.783338 
L 338.967273 278.783338 
L 342.574545 278.783338 
L 346.181818 278.783338 
L 349.789091 278.783338 
L 353.396364 278.783338 
L 357.003636 278.783338 
L 360.610909 278.783338 
L 364.218182 278.783338 
L 367.825455 278.783338 
L 371.432727 278.783338 
L 375.04 278.783338 
L 378.647273 278.783338 
L 382.254545 278.783338 
L 385.861818 278.783338 
L 389.469091 278.783338 
L 393.076364 278.783338 
L 396.683636 278.783338 
L 400.290909 278.783338 
L 403.898182 278.783338 
L 407.505455 278.783338 
L 411.112727 278.783338 
L 414.72 278.783338 
L 414.72 278.016 
L 414.72 275.328 
L 414.72 272.64 
L 414.72 269.952 
L 414.72 267.264 
L 414.72 265.918275 
L 411.112727 265.918275 
L 407.505455 265.918275 
L 403.898182 265.918275 
L 400.290909 265.918275 
L 396.683636 265.918275 
L 393.076364 265.918275 
L 389.469091 265.918275 
L 385.861818 265.918275 
L 382.254545 265.918275 
L 378.647273 265.918275 
L 375.04 265.918275 
L 371.432727 265.918275 
L 367.825455 265.918275 
L 364.218182 265.918275 
L 360.610909 265.918275 
L 357.003636 265.918275 
L 353.396364 265.918275 
L 349.789091 265.918275 
L 346.181818 265.918275 
L 342.574545 265.918275 
L 338.967273 265.918275 
L 335.36 265.918275 
L 331.752727 265.918275 
L 328.145455 265.918275 
L 324.538182 265.918275 
L 320.930909 265.918275 
L 317.323636 265.918275 
L 313.716364 265.918275 
L 310.109091 265.918275 
L 306.501818 265.918275 
L 302.894545 265.918275 
L 299.287273 265.918275 
L 295.68 265.918275 
L 292.072727 265.918275 
L 288.465455 265.918275 
L 284.858182 265.918275 
L 281.250909 265.918275 
L 277.643636 265.918275 
L 274.036364 265.918275 
L 270.429091 265.918275 
L 266.821818 265.918275 
L 263.214545 265.918275 
L 259.607273 265.918275 
L 256 265.918275 
L 252.392727 265.918275 
L 248.785455 265.918275 
L 245.178182 265.918275 
L 241.570909 265.918275 
L 240.496667 264.576 
L 240.496667 261.888 
L 240.496667 259.2 
L 240.496667 256.512 
L 240.496667 253.824 
L 240.496667 251.136 
L 240.496667 248.448 
L 240.496667 245.76 
L 240.496667 243.072 
L 240.496667 240.384 
L 240.496667 237.696 
L 240.496667 235.008 
L 240.496667 232.32 
L 240.496667 229.632 
L 240.496667 226.944 
L 240.496667 224.256 
L 240.496667 221.568 
L 240.496667 218.88 
L 240.496667 216.192 
L 240.496667 213.504 
L 240.496667 210.816 
L 240.496667 208.128 
L 240.496667 205.44 
L 240.496667 202.752 
L 240.496667 200.064 
L 240.496667 197.376 
L 240.496667 194.688 
L 240.496667 192 
L 240.496667 189.312 
L 240.496667 186.624 
L 240.496667 183.936 
L 240.496667 181.248 
L 240.496667 178.56 
L 240.496667 175.872 
L 240.496667 173.184 
L 240.496667 170.496 
L 240.496667 167.808 
L 240.496667 165.12 
L 240.496667 162.432 
L 240.496667 159.744 
L 240.496667 157.056 
L 240.496667 154.368 
L 240.496667 151.68 
L 240.496667 148.992 
L 240.496667 146.304 
L 240.496667 143.616 
L 240.496667 140.928 
L 240.496667 138.24 
L 240.496667 135.552 
L 240.496667 132.864 
L 240.496667 130.176 
L 240.496667 127.488 
L 240.496667 124.8 
L 240.496667 122.112 
L 240.496667 119.424 
L 240.496667 116.736 
L 240.496667 114.048 
L 240.496667 111.36 
L 240.496667 108.672 
L 240.496667 105.984 
L 240.496667 103.296 
L 240.496667 100.608 
L 240.496667 97.92 
L 240.496667 95.232 
L 240.496667 92.544 
L 240.496667 89.856 
L 240.496667 87.168 
L 240.496667 84.48 
L 240.496667 81.792 
L 240.496667 79.104 
L 240.496667 76.416 
L 240.496667 73.728 
L 240.496667 71.04 
L 240.496667 68.352 
L 240.496667 65.664 
L 240.496667 62.976 
L 240.496667 60.288 
L 240.496667 57.6 
L 240.496667 54.912 
L 240.496667 52.224 
L 240.496667 49.536 
L 240.496667 46.848 
L 240.496667 44.16 
L 240.496667 41.472 
L 237.963636 41.472 
L 237.411031 41.472 
L 237.411031 44.16 
L 237.411031 46.848 
L 237.411031 49.536 
L 237.411031 52.224 
L 237.411031 54.912 
L 237.411031 57.6 
L 237.411031 60.288 
L 237.411031 62.976 
L 237.411031 65.664 
L 237.411031 68.352 
L 237.411031 71.04 
L 237.411031 73.728 
L 237.411031 76.416 
L 237.411031 79.104 
L 237.411031 81.792 
L 237.411031 84.48 
L 237.411031 87.168 
L 237.411031 89.856 
L 237.411031 92.544 
L 237.411031 95.232 
L 237.411031 97.92 
L 237.411031 100.608 
L 237.411031 103.296 
L 237.411031 105.984 
L 237.411031 108.672 
L 237.411031 111.36 
L 237.411031 114.048 
L 237.411031 116.736 
L 237.411031 119.424 
L 237.411031 122.112 
L 237.411031 124.8 
L 237.411031 127.488 
L 237.411031 130.176 
L 237.411031 132.864 
L 237.411031 135.552 
L 237.411031 138.24 
L 237.411031 140.928 
L 237.411031 143.616 
L 237.411031 146.304 
L 237.411031 148.992 
L 237.411031 151.68 
L 237.411031 154.368 
L 237.411031 157.056 
L 237.411031 159.744 
L 237.411031 162.432 
L 237.411031 165.12 
L 237.411031 167.808 
L 237.411031 170.496 
L 237.411031 173.184 
L 237.411031 175.872 
L 237.411031 178.56 
L 237.411031 181.248 
L 237.411031 183.936 
L 237.411031 186.624 
L 237.411031 189.312 
L 237.411031 192 
L 237.411031 194.688 
L 237.411031 197.376 
L 237.411031 200.064 
L 237.411031 202.752 
L 237.411031 205.44 
L 237.411031 208.128 
L 237.411031 210.816 
L 237.411031 213.504 
L 237.411031 216.192 
L 237.411031 218.88 
L 237.411031 221.568 
L 237.411031 224.256 
L 237.411031 226.944 
L 237.411031 229.632 
L 237.411031 232.32 
L 237.411031 235.008 
L 237.411031 237.696 
L 237.411031 240.384 
L 237.411031 243.072 
L 237.411031 245.76 
L 237.411031 248.448 
L 237.411031 251.136 
L 237.411031 253.824 
L 237.411031 256.512 
L 237.411031 259.2 
L 237.411031 261.888 
L 237.411031 264.576 
L 237.963636 265.261146 
L 239.566549 267.264 
L 239.566549 269.952 
L 239.566549 272.64 
L 239.566549 275.328 
L 239.566549 278.016 
L 237.963636 279.158036 
L 235.776879 280.704 
L 235.776879 283.392 
L 235.776879 286.08 
L 234.557473 288.768 
L 234.356364 290.175018 
L 230.749091 290.175018 
L 227.141818 290.175018 
L 223.534545 290.175018 
L 219.927273 290.175018 
L 216.32 290.175018 
L 212.712727 290.175018 
L 209.105455 290.175018 
L 205.498182 290.175018 
L 201.890909 290.175018 
L 198.283636 290.175018 
L 194.676364 290.175018 
L 191.069091 290.175018 
L 187.461818 290.175018 
L 183.854545 290.175018 
L 180.247273 290.175018 
L 176.64 290.175018 
L 173.032727 290.175018 
L 169.425455 290.175018 
L 165.818182 290.175018 
L 162.210909 290.175018 
L 158.603636 290.175018 
L 154.996364 290.175018 
L 151.389091 290.175018 
L 147.781818 290.175018 
L 144.174545 290.175018 
L 140.567273 290.175018 
L 136.96 290.175018 
L 133.352727 290.175018 
L 129.745455 290.175018 
L 126.138182 290.175018 
L 122.530909 290.175018 
L 118.923636 290.175018 
L 115.316364 290.175018 
L 111.709091 290.175018 
L 108.101818 290.175018 
L 104.494545 290.175018 
L 100.887273 290.175018 
L 97.28 290.175018 
L 93.672727 290.175018 
L 90.065455 290.175018 
L 86.458182 290.175018 
L 82.850909 290.175018 
L 79.243636 290.175018 
L 75.636364 290.175018 
L 72.029091 290.175018 
L 68.421818 290.175018 
L 64.814545 290.175018 
L 61.207273 290.175018 
L 57.6 290.175018 
L 57.6 291.456 
L 57.6 294.144 
L 57.6 296.832 
L 57.6 297.564729 
z
" clip-path="url(#p2a631cd753)" style="fill: #2e6e8e; fill-opacity: 0.75"/>
   </g>
   <g id="PathCollection_4">
    <path d="M 61.207273 298.343366 
L 64.814545 298.343366 
L 68.421818 298.343366 
L 72.029091 298.343366 
L 75.636364 298.343366 
L 79.243636 298.343366 
L 82.850909 298.343366 
L 86.458182 298.343366 
L 90.065455 298.343366 
L 93.672727 298.343366 
L 97.28 298.343366 
L 100.887273 298.343366 
L 104.494545 298.343366 
L 108.101818 298.343366 
L 111.709091 298.343366 
L 115.316364 298.343366 
L 118.923636 298.343366 
L 122.530909 298.343366 
L 126.138182 298.343366 
L 129.745455 298.343366 
L 133.352727 298.343366 
L 136.96 298.343366 
L 140.567273 298.343366 
L 144.174545 298.343366 
L 147.781818 298.343366 
L 151.389091 298.343366 
L 154.996364 298.343366 
L 158.603636 298.343366 
L 162.210909 298.343366 
L 165.818182 298.343366 
L 169.425455 298.343366 
L 173.032727 298.343366 
L 176.64 298.343366 
L 180.247273 298.343366 
L 183.854545 298.343366 
L 187.461818 298.343366 
L 191.069091 298.343366 
L 194.676364 298.343366 
L 198.283636 298.343366 
L 201.890909 298.343366 
L 205.498182 298.343366 
L 209.105455 298.343366 
L 212.712727 298.343366 
L 216.32 298.343366 
L 219.927273 298.343366 
L 223.534545 298.343366 
L 227.141818 298.343366 
L 230.749091 298.343366 
L 234.356364 298.343366 
L 237.963636 297.746655 
L 240.365304 296.832 
L 240.365304 294.144 
L 240.365304 291.456 
L 240.746538 288.768 
L 241.570909 286.936633 
L 245.178182 286.936633 
L 248.785455 286.936633 
L 252.392727 286.936633 
L 256 286.936633 
L 259.607273 286.936633 
L 263.214545 286.936633 
L 266.821818 286.936633 
L 270.429091 286.936633 
L 274.036364 286.936633 
L 277.643636 286.936633 
L 281.250909 286.936633 
L 284.858182 286.936633 
L 288.465455 286.936633 
L 292.072727 286.936633 
L 295.68 286.936633 
L 299.287273 286.936633 
L 302.894545 286.936633 
L 306.501818 286.936633 
L 310.109091 286.936633 
L 313.716364 286.936633 
L 317.323636 286.936633 
L 320.930909 286.936633 
L 324.538182 286.936633 
L 328.145455 286.936633 
L 331.752727 286.936633 
L 335.36 286.936633 
L 338.967273 286.936633 
L 342.574545 286.936633 
L 346.181818 286.936633 
L 349.789091 286.936633 
L 353.396364 286.936633 
L 357.003636 286.936633 
L 360.610909 286.936633 
L 364.218182 286.936633 
L 367.825455 286.936633 
L 371.432727 286.936633 
L 375.04 286.936633 
L 378.647273 286.936633 
L 382.254545 286.936633 
L 385.861818 286.936633 
L 389.469091 286.936633 
L 393.076364 286.936633 
L 396.683636 286.936633 
L 400.290909 286.936633 
L 403.898182 286.936633 
L 407.505455 286.936633 
L 411.112727 286.936633 
L 414.72 286.936633 
L 414.72 286.08 
L 414.72 283.392 
L 414.72 280.704 
L 414.72 278.783338 
L 411.112727 278.783338 
L 407.505455 278.783338 
L 403.898182 278.783338 
L 400.290909 278.783338 
L 396.683636 278.783338 
L 393.076364 278.783338 
L 389.469091 278.783338 
L 385.861818 278.783338 
L 382.254545 278.783338 
L 378.647273 278.783338 
L 375.04 278.783338 
L 371.432727 278.783338 
L 367.825455 278.783338 
L 364.218182 278.783338 
L 360.610909 278.783338 
L 357.003636 278.783338 
L 353.396364 278.783338 
L 349.789091 278.783338 
L 346.181818 278.783338 
L 342.574545 278.783338 
L 338.967273 278.783338 
L 335.36 278.783338 
L 331.752727 278.783338 
L 328.145455 278.783338 
L 324.538182 278.783338 
L 320.930909 278.783338 
L 317.323636 278.783338 
L 313.716364 278.783338 
L 310.109091 278.783338 
L 306.501818 278.783338 
L 302.894545 278.783338 
L 299.287273 278.783338 
L 295.68 278.783338 
L 292.072727 278.783338 
L 288.465455 278.783338 
L 284.858182 278.783338 
L 281.250909 278.783338 
L 277.643636 278.783338 
L 274.036364 278.783338 
L 270.429091 278.783338 
L 266.821818 278.783338 
L 263.214545 278.783338 
L 259.607273 278.783338 
L 256 278.783338 
L 252.392727 278.783338 
L 248.785455 278.783338 
L 245.178182 278.783338 
L 241.570909 278.783338 
L 238.875151 280.704 
L 238.875151 283.392 
L 238.875151 286.08 
L 237.963636 288.104959 
L 237.662849 288.768 
L 237.278644 291.456 
L 237.278644 294.144 
L 237.278644 296.832 
L 234.356364 297.564729 
L 230.749091 297.564729 
L 227.141818 297.564729 
L 223.534545 297.564729 
L 219.927273 297.564729 
L 216.32 297.564729 
L 212.712727 297.564729 
L 209.105455 297.564729 
L 205.498182 297.564729 
L 201.890909 297.564729 
L 198.283636 297.564729 
L 194.676364 297.564729 
L 191.069091 297.564729 
L 187.461818 297.564729 
L 183.854545 297.564729 
L 180.247273 297.564729 
L 176.64 297.564729 
L 173.032727 297.564729 
L 169.425455 297.564729 
L 165.818182 297.564729 
L 162.210909 297.564729 
L 158.603636 297.564729 
L 154.996364 297.564729 
L 151.389091 297.564729 
L 147.781818 297.564729 
L 144.174545 297.564729 
L 140.567273 297.564729 
L 136.96 297.564729 
L 133.352727 297.564729 
L 129.745455 297.564729 
L 126.138182 297.564729 
L 122.530909 297.564729 
L 118.923636 297.564729 
L 115.316364 297.564729 
L 111.709091 297.564729 
L 108.101818 297.564729 
L 104.494545 297.564729 
L 100.887273 297.564729 
L 97.28 297.564729 
L 93.672727 297.564729 
L 90.065455 297.564729 
L 86.458182 297.564729 
L 82.850909 297.564729 
L 79.243636 297.564729 
L 75.636364 297.564729 
L 72.029091 297.564729 
L 68.421818 297.564729 
L 64.814545 297.564729 
L 61.207273 297.564729 
L 57.6 297.564729 
L 57.6 298.343366 
z
" clip-path="url(#p2a631cd753)" style="fill: #21908d; fill-opacity: 0.75"/>
    <path d="M 241.570909 265.918275 
L 245.178182 265.918275 
L 248.785455 265.918275 
L 252.392727 265.918275 
L 256 265.918275 
L 259.607273 265.918275 
L 263.214545 265.918275 
L 266.821818 265.918275 
L 270.429091 265.918275 
L 274.036364 265.918275 
L 277.643636 265.918275 
L 281.250909 265.918275 
L 284.858182 265.918275 
L 288.465455 265.918275 
L 292.072727 265.918275 
L 295.68 265.918275 
L 299.287273 265.918275 
L 302.894545 265.918275 
L 306.501818 265.918275 
L 310.109091 265.918275 
L 313.716364 265.918275 
L 317.323636 265.918275 
L 320.930909 265.918275 
L 324.538182 265.918275 
L 328.145455 265.918275 
L 331.752727 265.918275 
L 335.36 265.918275 
L 338.967273 265.918275 
L 342.574545 265.918275 
L 346.181818 265.918275 
L 349.789091 265.918275 
L 353.396364 265.918275 
L 357.003636 265.918275 
L 360.610909 265.918275 
L 364.218182 265.918275 
L 367.825455 265.918275 
L 371.432727 265.918275 
L 375.04 265.918275 
L 378.647273 265.918275 
L 382.254545 265.918275 
L 385.861818 265.918275 
L 389.469091 265.918275 
L 393.076364 265.918275 
L 396.683636 265.918275 
L 400.290909 265.918275 
L 403.898182 265.918275 
L 407.505455 265.918275 
L 411.112727 265.918275 
L 414.72 265.918275 
L 414.72 264.576 
L 414.72 261.888 
L 414.72 259.2 
L 414.72 256.512 
L 414.72 253.824 
L 414.72 251.136 
L 414.72 248.448 
L 414.72 245.76 
L 414.72 243.072 
L 414.72 240.384 
L 414.72 237.696 
L 414.72 235.008 
L 414.72 232.32 
L 414.72 229.632 
L 414.72 226.944 
L 414.72 224.256 
L 414.72 221.568 
L 414.72 218.88 
L 414.72 216.192 
L 414.72 213.504 
L 414.72 210.816 
L 414.72 208.128 
L 414.72 205.44 
L 414.72 202.752 
L 414.72 200.064 
L 414.72 197.376 
L 414.72 194.688 
L 414.72 192 
L 414.72 189.312 
L 414.72 186.624 
L 414.72 183.936 
L 414.72 181.248 
L 414.72 178.56 
L 414.72 175.872 
L 414.72 173.184 
L 414.72 170.496 
L 414.72 167.808 
L 414.72 165.12 
L 414.72 162.432 
L 414.72 159.744 
L 414.72 157.056 
L 414.72 154.368 
L 414.72 151.68 
L 414.72 148.992 
L 414.72 146.304 
L 414.72 143.616 
L 414.72 140.928 
L 414.72 138.24 
L 414.72 135.552 
L 414.72 132.864 
L 414.72 130.176 
L 414.72 127.488 
L 414.72 124.8 
L 414.72 122.112 
L 414.72 119.424 
L 414.72 116.736 
L 414.72 114.048 
L 414.72 111.36 
L 414.72 108.672 
L 414.72 105.984 
L 414.72 103.296 
L 414.72 100.608 
L 414.72 97.92 
L 414.72 95.232 
L 414.72 92.544 
L 414.72 89.856 
L 414.72 87.168 
L 414.72 84.48 
L 414.72 81.792 
L 414.72 79.104 
L 414.72 76.416 
L 414.72 73.728 
L 414.72 71.04 
L 414.72 68.352 
L 414.72 65.664 
L 414.72 62.976 
L 414.72 60.288 
L 414.72 57.6 
L 414.72 54.912 
L 414.72 52.224 
L 414.72 49.536 
L 414.72 46.848 
L 414.72 44.16 
L 414.72 41.472 
L 411.112727 41.472 
L 407.505455 41.472 
L 403.898182 41.472 
L 400.290909 41.472 
L 396.683636 41.472 
L 393.076364 41.472 
L 389.469091 41.472 
L 385.861818 41.472 
L 382.254545 41.472 
L 378.647273 41.472 
L 375.04 41.472 
L 371.432727 41.472 
L 367.825455 41.472 
L 364.218182 41.472 
L 360.610909 41.472 
L 357.003636 41.472 
L 353.396364 41.472 
L 349.789091 41.472 
L 346.181818 41.472 
L 342.574545 41.472 
L 338.967273 41.472 
L 335.36 41.472 
L 331.752727 41.472 
L 328.145455 41.472 
L 324.538182 41.472 
L 320.930909 41.472 
L 317.323636 41.472 
L 313.716364 41.472 
L 310.109091 41.472 
L 306.501818 41.472 
L 302.894545 41.472 
L 299.287273 41.472 
L 295.68 41.472 
L 292.072727 41.472 
L 288.465455 41.472 
L 284.858182 41.472 
L 281.250909 41.472 
L 277.643636 41.472 
L 274.036364 41.472 
L 270.429091 41.472 
L 266.821818 41.472 
L 263.214545 41.472 
L 259.607273 41.472 
L 256 41.472 
L 252.392727 41.472 
L 248.785455 41.472 
L 245.178182 41.472 
L 241.570909 41.472 
L 240.496667 41.472 
L 240.496667 44.16 
L 240.496667 46.848 
L 240.496667 49.536 
L 240.496667 52.224 
L 240.496667 54.912 
L 240.496667 57.6 
L 240.496667 60.288 
L 240.496667 62.976 
L 240.496667 65.664 
L 240.496667 68.352 
L 240.496667 71.04 
L 240.496667 73.728 
L 240.496667 76.416 
L 240.496667 79.104 
L 240.496667 81.792 
L 240.496667 84.48 
L 240.496667 87.168 
L 240.496667 89.856 
L 240.496667 92.544 
L 240.496667 95.232 
L 240.496667 97.92 
L 240.496667 100.608 
L 240.496667 103.296 
L 240.496667 105.984 
L 240.496667 108.672 
L 240.496667 111.36 
L 240.496667 114.048 
L 240.496667 116.736 
L 240.496667 119.424 
L 240.496667 122.112 
L 240.496667 124.8 
L 240.496667 127.488 
L 240.496667 130.176 
L 240.496667 132.864 
L 240.496667 135.552 
L 240.496667 138.24 
L 240.496667 140.928 
L 240.496667 143.616 
L 240.496667 146.304 
L 240.496667 148.992 
L 240.496667 151.68 
L 240.496667 154.368 
L 240.496667 157.056 
L 240.496667 159.744 
L 240.496667 162.432 
L 240.496667 165.12 
L 240.496667 167.808 
L 240.496667 170.496 
L 240.496667 173.184 
L 240.496667 175.872 
L 240.496667 178.56 
L 240.496667 181.248 
L 240.496667 183.936 
L 240.496667 186.624 
L 240.496667 189.312 
L 240.496667 192 
L 240.496667 194.688 
L 240.496667 197.376 
L 240.496667 200.064 
L 240.496667 202.752 
L 240.496667 205.44 
L 240.496667 208.128 
L 240.496667 210.816 
L 240.496667 213.504 
L 240.496667 216.192 
L 240.496667 218.88 
L 240.496667 221.568 
L 240.496667 224.256 
L 240.496667 226.944 
L 240.496667 229.632 
L 240.496667 232.32 
L 240.496667 235.008 
L 240.496667 237.696 
L 240.496667 240.384 
L 240.496667 243.072 
L 240.496667 245.76 
L 240.496667 248.448 
L 240.496667 251.136 
L 240.496667 253.824 
L 240.496667 256.512 
L 240.496667 259.2 
L 240.496667 261.888 
L 240.496667 264.576 
z
" clip-path="url(#p2a631cd753)" style="fill: #21908d; fill-opacity: 0.75"/>
   </g>
   <g id="PathCollection_5">
    <path d="M 61.207273 299.122004 
L 64.814545 299.122004 
L 68.421818 299.122004 
L 72.029091 299.122004 
L 75.636364 299.122004 
L 79.243636 299.122004 
L 82.850909 299.122004 
L 86.458182 299.122004 
L 90.065455 299.122004 
L 93.672727 299.122004 
L 97.28 299.122004 
L 100.887273 299.122004 
L 104.494545 299.122004 
L 108.101818 299.122004 
L 111.709091 299.122004 
L 115.316364 299.122004 
L 118.923636 299.122004 
L 122.530909 299.122004 
L 126.138182 299.122004 
L 129.745455 299.122004 
L 133.352727 299.122004 
L 136.96 299.122004 
L 140.567273 299.122004 
L 144.174545 299.122004 
L 147.781818 299.122004 
L 151.389091 299.122004 
L 154.996364 299.122004 
L 158.603636 299.122004 
L 162.210909 299.122004 
L 165.818182 299.122004 
L 169.425455 299.122004 
L 173.032727 299.122004 
L 176.64 299.122004 
L 180.247273 299.122004 
L 183.854545 299.122004 
L 187.461818 299.122004 
L 191.069091 299.122004 
L 194.676364 299.122004 
L 198.283636 299.122004 
L 201.890909 299.122004 
L 205.498182 299.122004 
L 209.105455 299.122004 
L 212.712727 299.122004 
L 216.32 299.122004 
L 219.927273 299.122004 
L 223.534545 299.122004 
L 227.141818 299.122004 
L 230.749091 299.122004 
L 234.356364 299.122004 
L 237.963636 298.920167 
L 241.570909 297.546367 
L 245.178182 297.546367 
L 248.785455 297.546367 
L 252.392727 297.546367 
L 256 297.546367 
L 259.607273 297.546367 
L 263.214545 297.546367 
L 266.821818 297.546367 
L 270.429091 297.546367 
L 274.036364 297.546367 
L 277.643636 297.546367 
L 281.250909 297.546367 
L 284.858182 297.546367 
L 288.465455 297.546367 
L 292.072727 297.546367 
L 295.68 297.546367 
L 299.287273 297.546367 
L 302.894545 297.546367 
L 306.501818 297.546367 
L 310.109091 297.546367 
L 313.716364 297.546367 
L 317.323636 297.546367 
L 320.930909 297.546367 
L 324.538182 297.546367 
L 328.145455 297.546367 
L 331.752727 297.546367 
L 335.36 297.546367 
L 338.967273 297.546367 
L 342.574545 297.546367 
L 346.181818 297.546367 
L 349.789091 297.546367 
L 353.396364 297.546367 
L 357.003636 297.546367 
L 360.610909 297.546367 
L 364.218182 297.546367 
L 367.825455 297.546367 
L 371.432727 297.546367 
L 375.04 297.546367 
L 378.647273 297.546367 
L 382.254545 297.546367 
L 385.861818 297.546367 
L 389.469091 297.546367 
L 393.076364 297.546367 
L 396.683636 297.546367 
L 400.290909 297.546367 
L 403.898182 297.546367 
L 407.505455 297.546367 
L 411.112727 297.546367 
L 414.72 297.546367 
L 414.72 296.832 
L 414.72 294.144 
L 414.72 291.456 
L 414.72 288.768 
L 414.72 286.936633 
L 411.112727 286.936633 
L 407.505455 286.936633 
L 403.898182 286.936633 
L 400.290909 286.936633 
L 396.683636 286.936633 
L 393.076364 286.936633 
L 389.469091 286.936633 
L 385.861818 286.936633 
L 382.254545 286.936633 
L 378.647273 286.936633 
L 375.04 286.936633 
L 371.432727 286.936633 
L 367.825455 286.936633 
L 364.218182 286.936633 
L 360.610909 286.936633 
L 357.003636 286.936633 
L 353.396364 286.936633 
L 349.789091 286.936633 
L 346.181818 286.936633 
L 342.574545 286.936633 
L 338.967273 286.936633 
L 335.36 286.936633 
L 331.752727 286.936633 
L 328.145455 286.936633 
L 324.538182 286.936633 
L 320.930909 286.936633 
L 317.323636 286.936633 
L 313.716364 286.936633 
L 310.109091 286.936633 
L 306.501818 286.936633 
L 302.894545 286.936633 
L 299.287273 286.936633 
L 295.68 286.936633 
L 292.072727 286.936633 
L 288.465455 286.936633 
L 284.858182 286.936633 
L 281.250909 286.936633 
L 277.643636 286.936633 
L 274.036364 286.936633 
L 270.429091 286.936633 
L 266.821818 286.936633 
L 263.214545 286.936633 
L 259.607273 286.936633 
L 256 286.936633 
L 252.392727 286.936633 
L 248.785455 286.936633 
L 245.178182 286.936633 
L 241.570909 286.936633 
L 240.746538 288.768 
L 240.365304 291.456 
L 240.365304 294.144 
L 240.365304 296.832 
L 237.963636 297.746655 
L 234.356364 298.343366 
L 230.749091 298.343366 
L 227.141818 298.343366 
L 223.534545 298.343366 
L 219.927273 298.343366 
L 216.32 298.343366 
L 212.712727 298.343366 
L 209.105455 298.343366 
L 205.498182 298.343366 
L 201.890909 298.343366 
L 198.283636 298.343366 
L 194.676364 298.343366 
L 191.069091 298.343366 
L 187.461818 298.343366 
L 183.854545 298.343366 
L 180.247273 298.343366 
L 176.64 298.343366 
L 173.032727 298.343366 
L 169.425455 298.343366 
L 165.818182 298.343366 
L 162.210909 298.343366 
L 158.603636 298.343366 
L 154.996364 298.343366 
L 151.389091 298.343366 
L 147.781818 298.343366 
L 144.174545 298.343366 
L 140.567273 298.343366 
L 136.96 298.343366 
L 133.352727 298.343366 
L 129.745455 298.343366 
L 126.138182 298.343366 
L 122.530909 298.343366 
L 118.923636 298.343366 
L 115.316364 298.343366 
L 111.709091 298.343366 
L 108.101818 298.343366 
L 104.494545 298.343366 
L 100.887273 298.343366 
L 97.28 298.343366 
L 93.672727 298.343366 
L 90.065455 298.343366 
L 86.458182 298.343366 
L 82.850909 298.343366 
L 79.243636 298.343366 
L 75.636364 298.343366 
L 72.029091 298.343366 
L 68.421818 298.343366 
L 64.814545 298.343366 
L 61.207273 298.343366 
L 57.6 298.343366 
L 57.6 299.122004 
z
" clip-path="url(#p2a631cd753)" style="fill: #2db27d; fill-opacity: 0.75"/>
   </g>
   <g id="PathCollection_6">
    <path d="M 61.207273 307.584 
L 64.814545 307.584 
L 68.421818 307.584 
L 72.029091 307.584 
L 75.636364 307.584 
L 79.243636 307.584 
L 82.850909 307.584 
L 86.458182 307.584 
L 90.065455 307.584 
L 93.672727 307.584 
L 97.28 307.584 
L 100.887273 307.584 
L 104.494545 307.584 
L 108.101818 307.584 
L 111.709091 307.584 
L 115.316364 307.584 
L 118.923636 307.584 
L 122.530909 307.584 
L 126.138182 307.584 
L 129.745455 307.584 
L 133.352727 307.584 
L 136.96 307.584 
L 140.567273 307.584 
L 144.174545 307.584 
L 147.781818 307.584 
L 151.389091 307.584 
L 154.996364 307.584 
L 158.603636 307.584 
L 162.210909 307.584 
L 165.818182 307.584 
L 169.425455 307.584 
L 173.032727 307.584 
L 176.64 307.584 
L 180.247273 307.584 
L 183.854545 307.584 
L 187.461818 307.584 
L 191.069091 307.584 
L 194.676364 307.584 
L 198.283636 307.584 
L 201.890909 307.584 
L 205.498182 307.584 
L 209.105455 307.584 
L 212.712727 307.584 
L 216.32 307.584 
L 219.927273 307.584 
L 223.534545 307.584 
L 227.141818 307.584 
L 230.749091 307.584 
L 234.356364 307.584 
L 237.963636 307.584 
L 239.46998 307.584 
L 239.46998 304.896 
L 239.46998 302.208 
L 239.46998 299.52 
L 241.570909 298.719878 
L 245.178182 298.719878 
L 248.785455 298.719878 
L 252.392727 298.719878 
L 256 298.719878 
L 259.607273 298.719878 
L 263.214545 298.719878 
L 266.821818 298.719878 
L 270.429091 298.719878 
L 274.036364 298.719878 
L 277.643636 298.719878 
L 281.250909 298.719878 
L 284.858182 298.719878 
L 288.465455 298.719878 
L 292.072727 298.719878 
L 295.68 298.719878 
L 299.287273 298.719878 
L 302.894545 298.719878 
L 306.501818 298.719878 
L 310.109091 298.719878 
L 313.716364 298.719878 
L 317.323636 298.719878 
L 320.930909 298.719878 
L 324.538182 298.719878 
L 328.145455 298.719878 
L 331.752727 298.719878 
L 335.36 298.719878 
L 338.967273 298.719878 
L 342.574545 298.719878 
L 346.181818 298.719878 
L 349.789091 298.719878 
L 353.396364 298.719878 
L 357.003636 298.719878 
L 360.610909 298.719878 
L 364.218182 298.719878 
L 367.825455 298.719878 
L 371.432727 298.719878 
L 375.04 298.719878 
L 378.647273 298.719878 
L 382.254545 298.719878 
L 385.861818 298.719878 
L 389.469091 298.719878 
L 393.076364 298.719878 
L 396.683636 298.719878 
L 400.290909 298.719878 
L 403.898182 298.719878 
L 407.505455 298.719878 
L 411.112727 298.719878 
L 414.72 298.719878 
L 414.72 297.546367 
L 411.112727 297.546367 
L 407.505455 297.546367 
L 403.898182 297.546367 
L 400.290909 297.546367 
L 396.683636 297.546367 
L 393.076364 297.546367 
L 389.469091 297.546367 
L 385.861818 297.546367 
L 382.254545 297.546367 
L 378.647273 297.546367 
L 375.04 297.546367 
L 371.432727 297.546367 
L 367.825455 297.546367 
L 364.218182 297.546367 
L 360.610909 297.546367 
L 357.003636 297.546367 
L 353.396364 297.546367 
L 349.789091 297.546367 
L 346.181818 297.546367 
L 342.574545 297.546367 
L 338.967273 297.546367 
L 335.36 297.546367 
L 331.752727 297.546367 
L 328.145455 297.546367 
L 324.538182 297.546367 
L 320.930909 297.546367 
L 317.323636 297.546367 
L 313.716364 297.546367 
L 310.109091 297.546367 
L 306.501818 297.546367 
L 302.894545 297.546367 
L 299.287273 297.546367 
L 295.68 297.546367 
L 292.072727 297.546367 
L 288.465455 297.546367 
L 284.858182 297.546367 
L 281.250909 297.546367 
L 277.643636 297.546367 
L 274.036364 297.546367 
L 270.429091 297.546367 
L 266.821818 297.546367 
L 263.214545 297.546367 
L 259.607273 297.546367 
L 256 297.546367 
L 252.392727 297.546367 
L 248.785455 297.546367 
L 245.178182 297.546367 
L 241.570909 297.546367 
L 237.963636 298.920167 
L 234.356364 299.122004 
L 230.749091 299.122004 
L 227.141818 299.122004 
L 223.534545 299.122004 
L 219.927273 299.122004 
L 216.32 299.122004 
L 212.712727 299.122004 
L 209.105455 299.122004 
L 205.498182 299.122004 
L 201.890909 299.122004 
L 198.283636 299.122004 
L 194.676364 299.122004 
L 191.069091 299.122004 
L 187.461818 299.122004 
L 183.854545 299.122004 
L 180.247273 299.122004 
L 176.64 299.122004 
L 173.032727 299.122004 
L 169.425455 299.122004 
L 165.818182 299.122004 
L 162.210909 299.122004 
L 158.603636 299.122004 
L 154.996364 299.122004 
L 151.389091 299.122004 
L 147.781818 299.122004 
L 144.174545 299.122004 
L 140.567273 299.122004 
L 136.96 299.122004 
L 133.352727 299.122004 
L 129.745455 299.122004 
L 126.138182 299.122004 
L 122.530909 299.122004 
L 118.923636 299.122004 
L 115.316364 299.122004 
L 111.709091 299.122004 
L 108.101818 299.122004 
L 104.494545 299.122004 
L 100.887273 299.122004 
L 97.28 299.122004 
L 93.672727 299.122004 
L 90.065455 299.122004 
L 86.458182 299.122004 
L 82.850909 299.122004 
L 79.243636 299.122004 
L 75.636364 299.122004 
L 72.029091 299.122004 
L 68.421818 299.122004 
L 64.814545 299.122004 
L 61.207273 299.122004 
L 57.6 299.122004 
L 57.6 299.52 
L 57.6 302.208 
L 57.6 304.896 
L 57.6 307.584 
z
" clip-path="url(#p2a631cd753)" style="fill: #73d056; fill-opacity: 0.75"/>
   </g>
   <g id="PathCollection_7">
    <path d="M 241.570909 307.584 
L 245.178182 307.584 
L 248.785455 307.584 
L 252.392727 307.584 
L 256 307.584 
L 259.607273 307.584 
L 263.214545 307.584 
L 266.821818 307.584 
L 270.429091 307.584 
L 274.036364 307.584 
L 277.643636 307.584 
L 281.250909 307.584 
L 284.858182 307.584 
L 288.465455 307.584 
L 292.072727 307.584 
L 295.68 307.584 
L 299.287273 307.584 
L 302.894545 307.584 
L 306.501818 307.584 
L 310.109091 307.584 
L 313.716364 307.584 
L 317.323636 307.584 
L 320.930909 307.584 
L 324.538182 307.584 
L 328.145455 307.584 
L 331.752727 307.584 
L 335.36 307.584 
L 338.967273 307.584 
L 342.574545 307.584 
L 346.181818 307.584 
L 349.789091 307.584 
L 353.396364 307.584 
L 357.003636 307.584 
L 360.610909 307.584 
L 364.218182 307.584 
L 367.825455 307.584 
L 371.432727 307.584 
L 375.04 307.584 
L 378.647273 307.584 
L 382.254545 307.584 
L 385.861818 307.584 
L 389.469091 307.584 
L 393.076364 307.584 
L 396.683636 307.584 
L 400.290909 307.584 
L 403.898182 307.584 
L 407.505455 307.584 
L 411.112727 307.584 
L 414.72 307.584 
L 414.72 304.896 
L 414.72 302.208 
L 414.72 299.52 
L 414.72 298.719878 
L 411.112727 298.719878 
L 407.505455 298.719878 
L 403.898182 298.719878 
L 400.290909 298.719878 
L 396.683636 298.719878 
L 393.076364 298.719878 
L 389.469091 298.719878 
L 385.861818 298.719878 
L 382.254545 298.719878 
L 378.647273 298.719878 
L 375.04 298.719878 
L 371.432727 298.719878 
L 367.825455 298.719878 
L 364.218182 298.719878 
L 360.610909 298.719878 
L 357.003636 298.719878 
L 353.396364 298.719878 
L 349.789091 298.719878 
L 346.181818 298.719878 
L 342.574545 298.719878 
L 338.967273 298.719878 
L 335.36 298.719878 
L 331.752727 298.719878 
L 328.145455 298.719878 
L 324.538182 298.719878 
L 320.930909 298.719878 
L 317.323636 298.719878 
L 313.716364 298.719878 
L 310.109091 298.719878 
L 306.501818 298.719878 
L 302.894545 298.719878 
L 299.287273 298.719878 
L 295.68 298.719878 
L 292.072727 298.719878 
L 288.465455 298.719878 
L 284.858182 298.719878 
L 281.250909 298.719878 
L 277.643636 298.719878 
L 274.036364 298.719878 
L 270.429091 298.719878 
L 266.821818 298.719878 
L 263.214545 298.719878 
L 259.607273 298.719878 
L 256 298.719878 
L 252.392727 298.719878 
L 248.785455 298.719878 
L 245.178182 298.719878 
L 241.570909 298.719878 
L 239.46998 299.52 
L 239.46998 302.208 
L 239.46998 304.896 
L 239.46998 307.584 
z
" clip-path="url(#p2a631cd753)" style="fill: #d0e11c; fill-opacity: 0.75"/>
   </g>
   <g id="matplotlib.axis_1">
    <g id="xtick_1">
     <g id="line2d_1">
      <defs>
       <path id="m0550c00186" d="M 0 0 
L 0 3.5 
" style="stroke: #000000; stroke-width: 0.8"/>
      </defs>
      <g>
       <use xlink:href="#m0550c00186" x="113.608729" y="307.584" style="stroke: #000000; stroke-width: 0.8"/>
      </g>
     </g>
     <g id="text_1">
      <!-- 5 -->
      <g transform="translate(110.427479 322.182437) scale(0.1 -0.1)">
       <defs>
        <path id="DejaVuSans-35" d="M 691 4666 
L 3169 4666 
L 3169 4134 
L 1269 4134 
L 1269 2991 
Q 1406 3038 1543 3061 
Q 1681 3084 1819 3084 
Q 2600 3084 3056 2656 
Q 3513 2228 3513 1497 
Q 3513 744 3044 326 
Q 2575 -91 1722 -91 
Q 1428 -91 1123 -41 
Q 819 9 494 109 
L 494 744 
Q 775 591 1075 516 
Q 1375 441 1709 441 
Q 2250 441 2565 725 
Q 2881 1009 2881 1497 
Q 2881 1984 2565 2268 
Q 2250 2553 1709 2553 
Q 1456 2553 1204 2497 
Q 953 2441 691 2322 
L 691 4666 
z
" transform="scale(0.015625)"/>
       </defs>
       <use xlink:href="#DejaVuSans-35"/>
      </g>
     </g>
    </g>
    <g id="xtick_2">
     <g id="line2d_2">
      <g>
       <use xlink:href="#m0550c00186" x="185.207768" y="307.584" style="stroke: #000000; stroke-width: 0.8"/>
      </g>
     </g>
     <g id="text_2">
      <!-- 10 -->
      <g transform="translate(178.845268 322.182437) scale(0.1 -0.1)">
       <defs>
        <path id="DejaVuSans-31" d="M 794 531 
L 1825 531 
L 1825 4091 
L 703 3866 
L 703 4441 
L 1819 4666 
L 2450 4666 
L 2450 531 
L 3481 531 
L 3481 0 
L 794 0 
L 794 531 
z
" transform="scale(0.015625)"/>
        <path id="DejaVuSans-30" d="M 2034 4250 
Q 1547 4250 1301 3770 
Q 1056 3291 1056 2328 
Q 1056 1369 1301 889 
Q 1547 409 2034 409 
Q 2525 409 2770 889 
Q 3016 1369 3016 2328 
Q 3016 3291 2770 3770 
Q 2525 4250 2034 4250 
z
M 2034 4750 
Q 2819 4750 3233 4129 
Q 3647 3509 3647 2328 
Q 3647 1150 3233 529 
Q 2819 -91 2034 -91 
Q 1250 -91 836 529 
Q 422 1150 422 2328 
Q 422 3509 836 4129 
Q 1250 4750 2034 4750 
z
" transform="scale(0.015625)"/>
       </defs>
       <use xlink:href="#DejaVuSans-31"/>
       <use xlink:href="#DejaVuSans-30" x="63.623047"/>
      </g>
     </g>
    </g>
    <g id="xtick_3">
     <g id="line2d_3">
      <g>
       <use xlink:href="#m0550c00186" x="256.806807" y="307.584" style="stroke: #000000; stroke-width: 0.8"/>
      </g>
     </g>
     <g id="text_3">
      <!-- 15 -->
      <g transform="translate(250.444307 322.182437) scale(0.1 -0.1)">
       <use xlink:href="#DejaVuSans-31"/>
       <use xlink:href="#DejaVuSans-35" x="63.623047"/>
      </g>
     </g>
    </g>
    <g id="xtick_4">
     <g id="line2d_4">
      <g>
       <use xlink:href="#m0550c00186" x="328.405846" y="307.584" style="stroke: #000000; stroke-width: 0.8"/>
      </g>
     </g>
     <g id="text_4">
      <!-- 20 -->
      <g transform="translate(322.043346 322.182437) scale(0.1 -0.1)">
       <defs>
        <path id="DejaVuSans-32" d="M 1228 531 
L 3431 531 
L 3431 0 
L 469 0 
L 469 531 
Q 828 903 1448 1529 
Q 2069 2156 2228 2338 
Q 2531 2678 2651 2914 
Q 2772 3150 2772 3378 
Q 2772 3750 2511 3984 
Q 2250 4219 1831 4219 
Q 1534 4219 1204 4116 
Q 875 4013 500 3803 
L 500 4441 
Q 881 4594 1212 4672 
Q 1544 4750 1819 4750 
Q 2544 4750 2975 4387 
Q 3406 4025 3406 3419 
Q 3406 3131 3298 2873 
Q 3191 2616 2906 2266 
Q 2828 2175 2409 1742 
Q 1991 1309 1228 531 
z
" transform="scale(0.015625)"/>
       </defs>
       <use xlink:href="#DejaVuSans-32"/>
       <use xlink:href="#DejaVuSans-30" x="63.623047"/>
      </g>
     </g>
    </g>
    <g id="xtick_5">
     <g id="line2d_5">
      <g>
       <use xlink:href="#m0550c00186" x="400.004885" y="307.584" style="stroke: #000000; stroke-width: 0.8"/>
      </g>
     </g>
     <g id="text_5">
      <!-- 25 -->
      <g transform="translate(393.642385 322.182437) scale(0.1 -0.1)">
       <use xlink:href="#DejaVuSans-32"/>
       <use xlink:href="#DejaVuSans-35" x="63.623047"/>
      </g>
     </g>
    </g>
    <g id="text_6">
     <!-- Beef Consumption -->
     <g transform="translate(190.112344 335.860562) scale(0.1 -0.1)">
      <defs>
       <path id="DejaVuSans-42" d="M 1259 2228 
L 1259 519 
L 2272 519 
Q 2781 519 3026 730 
Q 3272 941 3272 1375 
Q 3272 1813 3026 2020 
Q 2781 2228 2272 2228 
L 1259 2228 
z
M 1259 4147 
L 1259 2741 
L 2194 2741 
Q 2656 2741 2882 2914 
Q 3109 3088 3109 3444 
Q 3109 3797 2882 3972 
Q 2656 4147 2194 4147 
L 1259 4147 
z
M 628 4666 
L 2241 4666 
Q 2963 4666 3353 4366 
Q 3744 4066 3744 3513 
Q 3744 3084 3544 2831 
Q 3344 2578 2956 2516 
Q 3422 2416 3680 2098 
Q 3938 1781 3938 1306 
Q 3938 681 3513 340 
Q 3088 0 2303 0 
L 628 0 
L 628 4666 
z
" transform="scale(0.015625)"/>
       <path id="DejaVuSans-65" d="M 3597 1894 
L 3597 1613 
L 953 1613 
Q 991 1019 1311 708 
Q 1631 397 2203 397 
Q 2534 397 2845 478 
Q 3156 559 3463 722 
L 3463 178 
Q 3153 47 2828 -22 
Q 2503 -91 2169 -91 
Q 1331 -91 842 396 
Q 353 884 353 1716 
Q 353 2575 817 3079 
Q 1281 3584 2069 3584 
Q 2775 3584 3186 3129 
Q 3597 2675 3597 1894 
z
M 3022 2063 
Q 3016 2534 2758 2815 
Q 2500 3097 2075 3097 
Q 1594 3097 1305 2825 
Q 1016 2553 972 2059 
L 3022 2063 
z
" transform="scale(0.015625)"/>
       <path id="DejaVuSans-66" d="M 2375 4863 
L 2375 4384 
L 1825 4384 
Q 1516 4384 1395 4259 
Q 1275 4134 1275 3809 
L 1275 3500 
L 2222 3500 
L 2222 3053 
L 1275 3053 
L 1275 0 
L 697 0 
L 697 3053 
L 147 3053 
L 147 3500 
L 697 3500 
L 697 3744 
Q 697 4328 969 4595 
Q 1241 4863 1831 4863 
L 2375 4863 
z
" transform="scale(0.015625)"/>
       <path id="DejaVuSans-20" transform="scale(0.015625)"/>
       <path id="DejaVuSans-43" d="M 4122 4306 
L 4122 3641 
Q 3803 3938 3442 4084 
Q 3081 4231 2675 4231 
Q 1875 4231 1450 3742 
Q 1025 3253 1025 2328 
Q 1025 1406 1450 917 
Q 1875 428 2675 428 
Q 3081 428 3442 575 
Q 3803 722 4122 1019 
L 4122 359 
Q 3791 134 3420 21 
Q 3050 -91 2638 -91 
Q 1578 -91 968 557 
Q 359 1206 359 2328 
Q 359 3453 968 4101 
Q 1578 4750 2638 4750 
Q 3056 4750 3426 4639 
Q 3797 4528 4122 4306 
z
" transform="scale(0.015625)"/>
       <path id="DejaVuSans-6f" d="M 1959 3097 
Q 1497 3097 1228 2736 
Q 959 2375 959 1747 
Q 959 1119 1226 758 
Q 1494 397 1959 397 
Q 2419 397 2687 759 
Q 2956 1122 2956 1747 
Q 2956 2369 2687 2733 
Q 2419 3097 1959 3097 
z
M 1959 3584 
Q 2709 3584 3137 3096 
Q 3566 2609 3566 1747 
Q 3566 888 3137 398 
Q 2709 -91 1959 -91 
Q 1206 -91 779 398 
Q 353 888 353 1747 
Q 353 2609 779 3096 
Q 1206 3584 1959 3584 
z
" transform="scale(0.015625)"/>
       <path id="DejaVuSans-6e" d="M 3513 2113 
L 3513 0 
L 2938 0 
L 2938 2094 
Q 2938 2591 2744 2837 
Q 2550 3084 2163 3084 
Q 1697 3084 1428 2787 
Q 1159 2491 1159 1978 
L 1159 0 
L 581 0 
L 581 3500 
L 1159 3500 
L 1159 2956 
Q 1366 3272 1645 3428 
Q 1925 3584 2291 3584 
Q 2894 3584 3203 3211 
Q 3513 2838 3513 2113 
z
" transform="scale(0.015625)"/>
       <path id="DejaVuSans-73" d="M 2834 3397 
L 2834 2853 
Q 2591 2978 2328 3040 
Q 2066 3103 1784 3103 
Q 1356 3103 1142 2972 
Q 928 2841 928 2578 
Q 928 2378 1081 2264 
Q 1234 2150 1697 2047 
L 1894 2003 
Q 2506 1872 2764 1633 
Q 3022 1394 3022 966 
Q 3022 478 2636 193 
Q 2250 -91 1575 -91 
Q 1294 -91 989 -36 
Q 684 19 347 128 
L 347 722 
Q 666 556 975 473 
Q 1284 391 1588 391 
Q 1994 391 2212 530 
Q 2431 669 2431 922 
Q 2431 1156 2273 1281 
Q 2116 1406 1581 1522 
L 1381 1569 
Q 847 1681 609 1914 
Q 372 2147 372 2553 
Q 372 3047 722 3315 
Q 1072 3584 1716 3584 
Q 2034 3584 2315 3537 
Q 2597 3491 2834 3397 
z
" transform="scale(0.015625)"/>
       <path id="DejaVuSans-75" d="M 544 1381 
L 544 3500 
L 1119 3500 
L 1119 1403 
Q 1119 906 1312 657 
Q 1506 409 1894 409 
Q 2359 409 2629 706 
Q 2900 1003 2900 1516 
L 2900 3500 
L 3475 3500 
L 3475 0 
L 2900 0 
L 2900 538 
Q 2691 219 2414 64 
Q 2138 -91 1772 -91 
Q 1169 -91 856 284 
Q 544 659 544 1381 
z
M 1991 3584 
L 1991 3584 
z
" transform="scale(0.015625)"/>
       <path id="DejaVuSans-6d" d="M 3328 2828 
Q 3544 3216 3844 3400 
Q 4144 3584 4550 3584 
Q 5097 3584 5394 3201 
Q 5691 2819 5691 2113 
L 5691 0 
L 5113 0 
L 5113 2094 
Q 5113 2597 4934 2840 
Q 4756 3084 4391 3084 
Q 3944 3084 3684 2787 
Q 3425 2491 3425 1978 
L 3425 0 
L 2847 0 
L 2847 2094 
Q 2847 2600 2669 2842 
Q 2491 3084 2119 3084 
Q 1678 3084 1418 2786 
Q 1159 2488 1159 1978 
L 1159 0 
L 581 0 
L 581 3500 
L 1159 3500 
L 1159 2956 
Q 1356 3278 1631 3431 
Q 1906 3584 2284 3584 
Q 2666 3584 2933 3390 
Q 3200 3197 3328 2828 
z
" transform="scale(0.015625)"/>
       <path id="DejaVuSans-70" d="M 1159 525 
L 1159 -1331 
L 581 -1331 
L 581 3500 
L 1159 3500 
L 1159 2969 
Q 1341 3281 1617 3432 
Q 1894 3584 2278 3584 
Q 2916 3584 3314 3078 
Q 3713 2572 3713 1747 
Q 3713 922 3314 415 
Q 2916 -91 2278 -91 
Q 1894 -91 1617 61 
Q 1341 213 1159 525 
z
M 3116 1747 
Q 3116 2381 2855 2742 
Q 2594 3103 2138 3103 
Q 1681 3103 1420 2742 
Q 1159 2381 1159 1747 
Q 1159 1113 1420 752 
Q 1681 391 2138 391 
Q 2594 391 2855 752 
Q 3116 1113 3116 1747 
z
" transform="scale(0.015625)"/>
       <path id="DejaVuSans-74" d="M 1172 4494 
L 1172 3500 
L 2356 3500 
L 2356 3053 
L 1172 3053 
L 1172 1153 
Q 1172 725 1289 603 
Q 1406 481 1766 481 
L 2356 481 
L 2356 0 
L 1766 0 
Q 1100 0 847 248 
Q 594 497 594 1153 
L 594 3053 
L 172 3053 
L 172 3500 
L 594 3500 
L 594 4494 
L 1172 4494 
z
" transform="scale(0.015625)"/>
       <path id="DejaVuSans-69" d="M 603 3500 
L 1178 3500 
L 1178 0 
L 603 0 
L 603 3500 
z
M 603 4863 
L 1178 4863 
L 1178 4134 
L 603 4134 
L 603 4863 
z
" transform="scale(0.015625)"/>
      </defs>
      <use xlink:href="#DejaVuSans-42"/>
      <use xlink:href="#DejaVuSans-65" x="68.603516"/>
      <use xlink:href="#DejaVuSans-65" x="130.126953"/>
      <use xlink:href="#DejaVuSans-66" x="191.650391"/>
      <use xlink:href="#DejaVuSans-20" x="226.855469"/>
      <use xlink:href="#DejaVuSans-43" x="258.642578"/>
      <use xlink:href="#DejaVuSans-6f" x="328.466797"/>
      <use xlink:href="#DejaVuSans-6e" x="389.648438"/>
      <use xlink:href="#DejaVuSans-73" x="453.027344"/>
      <use xlink:href="#DejaVuSans-75" x="505.126953"/>
      <use xlink:href="#DejaVuSans-6d" x="568.505859"/>
      <use xlink:href="#DejaVuSans-70" x="665.917969"/>
      <use xlink:href="#DejaVuSans-74" x="729.394531"/>
      <use xlink:href="#DejaVuSans-69" x="768.603516"/>
      <use xlink:href="#DejaVuSans-6f" x="796.386719"/>
      <use xlink:href="#DejaVuSans-6e" x="857.568359"/>
     </g>
    </g>
   </g>
   <g id="matplotlib.axis_2">
    <g id="ytick_1">
     <g id="line2d_6">
      <defs>
       <path id="mab58724585" d="M 0 0 
L -3.5 0 
" style="stroke: #000000; stroke-width: 0.8"/>
      </defs>
      <g>
       <use xlink:href="#mab58724585" x="57.6" y="307.584" style="stroke: #000000; stroke-width: 0.8"/>
      </g>
     </g>
     <g id="text_7">
      <!-- 0 -->
      <g transform="translate(44.2375 311.383219) scale(0.1 -0.1)">
       <use xlink:href="#DejaVuSans-30"/>
      </g>
     </g>
    </g>
    <g id="ytick_2">
     <g id="line2d_7">
      <g>
       <use xlink:href="#mab58724585" x="57.6" y="261.002523" style="stroke: #000000; stroke-width: 0.8"/>
      </g>
     </g>
     <g id="text_8">
      <!-- 1 -->
      <g transform="translate(44.2375 264.801742) scale(0.1 -0.1)">
       <use xlink:href="#DejaVuSans-31"/>
      </g>
     </g>
    </g>
    <g id="ytick_3">
     <g id="line2d_8">
      <g>
       <use xlink:href="#mab58724585" x="57.6" y="214.421047" style="stroke: #000000; stroke-width: 0.8"/>
      </g>
     </g>
     <g id="text_9">
      <!-- 2 -->
      <g transform="translate(44.2375 218.220265) scale(0.1 -0.1)">
       <use xlink:href="#DejaVuSans-32"/>
      </g>
     </g>
    </g>
    <g id="ytick_4">
     <g id="line2d_9">
      <g>
       <use xlink:href="#mab58724585" x="57.6" y="167.83957" style="stroke: #000000; stroke-width: 0.8"/>
      </g>
     </g>
     <g id="text_10">
      <!-- 3 -->
      <g transform="translate(44.2375 171.638789) scale(0.1 -0.1)">
       <defs>
        <path id="DejaVuSans-33" d="M 2597 2516 
Q 3050 2419 3304 2112 
Q 3559 1806 3559 1356 
Q 3559 666 3084 287 
Q 2609 -91 1734 -91 
Q 1441 -91 1130 -33 
Q 819 25 488 141 
L 488 750 
Q 750 597 1062 519 
Q 1375 441 1716 441 
Q 2309 441 2620 675 
Q 2931 909 2931 1356 
Q 2931 1769 2642 2001 
Q 2353 2234 1838 2234 
L 1294 2234 
L 1294 2753 
L 1863 2753 
Q 2328 2753 2575 2939 
Q 2822 3125 2822 3475 
Q 2822 3834 2567 4026 
Q 2313 4219 1838 4219 
Q 1578 4219 1281 4162 
Q 984 4106 628 3988 
L 628 4550 
Q 988 4650 1302 4700 
Q 1616 4750 1894 4750 
Q 2613 4750 3031 4423 
Q 3450 4097 3450 3541 
Q 3450 3153 3228 2886 
Q 3006 2619 2597 2516 
z
" transform="scale(0.015625)"/>
       </defs>
       <use xlink:href="#DejaVuSans-33"/>
      </g>
     </g>
    </g>
    <g id="ytick_5">
     <g id="line2d_10">
      <g>
       <use xlink:href="#mab58724585" x="57.6" y="121.258093" style="stroke: #000000; stroke-width: 0.8"/>
      </g>
     </g>
     <g id="text_11">
      <!-- 4 -->
      <g transform="translate(44.2375 125.057312) scale(0.1 -0.1)">
       <defs>
        <path id="DejaVuSans-34" d="M 2419 4116 
L 825 1625 
L 2419 1625 
L 2419 4116 
z
M 2253 4666 
L 3047 4666 
L 3047 1625 
L 3713 1625 
L 3713 1100 
L 3047 1100 
L 3047 0 
L 2419 0 
L 2419 1100 
L 313 1100 
L 313 1709 
L 2253 4666 
z
" transform="scale(0.015625)"/>
       </defs>
       <use xlink:href="#DejaVuSans-34"/>
      </g>
     </g>
    </g>
    <g id="ytick_6">
     <g id="line2d_11">
      <g>
       <use xlink:href="#mab58724585" x="57.6" y="74.676617" style="stroke: #000000; stroke-width: 0.8"/>
      </g>
     </g>
     <g id="text_12">
      <!-- 5 -->
      <g transform="translate(44.2375 78.475836) scale(0.1 -0.1)">
       <use xlink:href="#DejaVuSans-35"/>
      </g>
     </g>
    </g>
    <g id="text_13">
     <!-- Other Meat Consumption -->
     <g transform="translate(38.157812 237.432687) rotate(-90) scale(0.1 -0.1)">
      <defs>
       <path id="DejaVuSans-4f" d="M 2522 4238 
Q 1834 4238 1429 3725 
Q 1025 3213 1025 2328 
Q 1025 1447 1429 934 
Q 1834 422 2522 422 
Q 3209 422 3611 934 
Q 4013 1447 4013 2328 
Q 4013 3213 3611 3725 
Q 3209 4238 2522 4238 
z
M 2522 4750 
Q 3503 4750 4090 4092 
Q 4678 3434 4678 2328 
Q 4678 1225 4090 567 
Q 3503 -91 2522 -91 
Q 1538 -91 948 565 
Q 359 1222 359 2328 
Q 359 3434 948 4092 
Q 1538 4750 2522 4750 
z
" transform="scale(0.015625)"/>
       <path id="DejaVuSans-68" d="M 3513 2113 
L 3513 0 
L 2938 0 
L 2938 2094 
Q 2938 2591 2744 2837 
Q 2550 3084 2163 3084 
Q 1697 3084 1428 2787 
Q 1159 2491 1159 1978 
L 1159 0 
L 581 0 
L 581 4863 
L 1159 4863 
L 1159 2956 
Q 1366 3272 1645 3428 
Q 1925 3584 2291 3584 
Q 2894 3584 3203 3211 
Q 3513 2838 3513 2113 
z
" transform="scale(0.015625)"/>
       <path id="DejaVuSans-72" d="M 2631 2963 
Q 2534 3019 2420 3045 
Q 2306 3072 2169 3072 
Q 1681 3072 1420 2755 
Q 1159 2438 1159 1844 
L 1159 0 
L 581 0 
L 581 3500 
L 1159 3500 
L 1159 2956 
Q 1341 3275 1631 3429 
Q 1922 3584 2338 3584 
Q 2397 3584 2469 3576 
Q 2541 3569 2628 3553 
L 2631 2963 
z
" transform="scale(0.015625)"/>
       <path id="DejaVuSans-4d" d="M 628 4666 
L 1569 4666 
L 2759 1491 
L 3956 4666 
L 4897 4666 
L 4897 0 
L 4281 0 
L 4281 4097 
L 3078 897 
L 2444 897 
L 1241 4097 
L 1241 0 
L 628 0 
L 628 4666 
z
" transform="scale(0.015625)"/>
       <path id="DejaVuSans-61" d="M 2194 1759 
Q 1497 1759 1228 1600 
Q 959 1441 959 1056 
Q 959 750 1161 570 
Q 1363 391 1709 391 
Q 2188 391 2477 730 
Q 2766 1069 2766 1631 
L 2766 1759 
L 2194 1759 
z
M 3341 1997 
L 3341 0 
L 2766 0 
L 2766 531 
Q 2569 213 2275 61 
Q 1981 -91 1556 -91 
Q 1019 -91 701 211 
Q 384 513 384 1019 
Q 384 1609 779 1909 
Q 1175 2209 1959 2209 
L 2766 2209 
L 2766 2266 
Q 2766 2663 2505 2880 
Q 2244 3097 1772 3097 
Q 1472 3097 1187 3025 
Q 903 2953 641 2809 
L 641 3341 
Q 956 3463 1253 3523 
Q 1550 3584 1831 3584 
Q 2591 3584 2966 3190 
Q 3341 2797 3341 1997 
z
" transform="scale(0.015625)"/>
      </defs>
      <use xlink:href="#DejaVuSans-4f"/>
      <use xlink:href="#DejaVuSans-74" x="78.710938"/>
      <use xlink:href="#DejaVuSans-68" x="117.919922"/>
      <use xlink:href="#DejaVuSans-65" x="181.298828"/>
      <use xlink:href="#DejaVuSans-72" x="242.822266"/>
      <use xlink:href="#DejaVuSans-20" x="283.935547"/>
      <use xlink:href="#DejaVuSans-4d" x="315.722656"/>
      <use xlink:href="#DejaVuSans-65" x="402.001953"/>
      <use xlink:href="#DejaVuSans-61" x="463.525391"/>
      <use xlink:href="#DejaVuSans-74" x="524.804688"/>
      <use xlink:href="#DejaVuSans-20" x="564.013672"/>
      <use xlink:href="#DejaVuSans-43" x="595.800781"/>
      <use xlink:href="#DejaVuSans-6f" x="665.625"/>
      <use xlink:href="#DejaVuSans-6e" x="726.806641"/>
      <use xlink:href="#DejaVuSans-73" x="790.185547"/>
      <use xlink:href="#DejaVuSans-75" x="842.285156"/>
      <use xlink:href="#DejaVuSans-6d" x="905.664062"/>
      <use xlink:href="#DejaVuSans-70" x="1003.076172"/>
      <use xlink:href="#DejaVuSans-74" x="1066.552734"/>
      <use xlink:href="#DejaVuSans-69" x="1105.761719"/>
      <use xlink:href="#DejaVuSans-6f" x="1133.544922"/>
      <use xlink:href="#DejaVuSans-6e" x="1194.726562"/>
     </g>
    </g>
   </g>
   <g id="PathCollection_8"/>
   <g id="PathCollection_9">
    <path d="M 57.6 264.638871 
L 61.207273 264.638871 
L 64.814545 264.638871 
L 68.421818 264.638871 
L 72.029091 264.638871 
L 75.636364 264.638871 
L 79.243636 264.638871 
L 82.850909 264.638871 
L 86.458182 264.638871 
L 90.065455 264.638871 
L 93.672727 264.638871 
L 97.28 264.638871 
L 100.887273 264.638871 
L 104.494545 264.638871 
L 108.101818 264.638871 
L 108.183182 264.638871 
" clip-path="url(#p2a631cd753)" style="fill: none; stroke: #000000; stroke-width: 0.5"/>
    <path d="M 144.093182 264.638871 
L 144.174545 264.638871 
L 147.781818 264.638871 
L 151.389091 264.638871 
L 154.996364 264.638871 
L 158.603636 264.638871 
L 162.210909 264.638871 
L 165.818182 264.638871 
L 169.425455 264.638871 
L 173.032727 264.638871 
L 176.64 264.638871 
L 180.247273 264.638871 
L 183.854545 264.638871 
L 187.461818 264.638871 
L 191.069091 264.638871 
L 194.676364 264.638871 
L 198.283636 264.638871 
L 201.890909 264.638871 
L 205.498182 264.638871 
L 209.105455 264.638871 
L 212.712727 264.638871 
L 216.32 264.638871 
L 219.927273 264.638871 
L 223.534545 264.638871 
L 227.141818 264.638871 
L 230.749091 264.638871 
L 234.356364 264.638871 
L 236.473665 267.264 
L 236.473665 269.952 
L 236.473665 272.64 
L 236.473665 275.328 
L 236.473665 278.016 
L 234.356364 279.512861 
L 230.749091 279.512861 
L 227.141818 279.512861 
L 223.534545 279.512861 
L 219.927273 279.512861 
L 216.32 279.512861 
L 212.712727 279.512861 
L 209.105455 279.512861 
L 205.498182 279.512861 
L 201.890909 279.512861 
L 198.283636 279.512861 
L 194.676364 279.512861 
L 191.069091 279.512861 
L 187.461818 279.512861 
L 183.854545 279.512861 
L 180.247273 279.512861 
L 176.64 279.512861 
L 173.032727 279.512861 
L 169.425455 279.512861 
L 165.818182 279.512861 
L 162.210909 279.512861 
L 158.603636 279.512861 
L 154.996364 279.512861 
L 151.389091 279.512861 
L 147.781818 279.512861 
L 144.174545 279.512861 
L 140.567273 279.512861 
L 136.96 279.512861 
L 133.352727 279.512861 
L 129.745455 279.512861 
L 126.138182 279.512861 
L 122.530909 279.512861 
L 118.923636 279.512861 
L 115.316364 279.512861 
L 111.709091 279.512861 
L 108.101818 279.512861 
L 104.494545 279.512861 
L 100.887273 279.512861 
L 97.28 279.512861 
L 93.672727 279.512861 
L 90.065455 279.512861 
L 86.458182 279.512861 
L 82.850909 279.512861 
L 79.243636 279.512861 
L 75.636364 279.512861 
L 72.029091 279.512861 
L 68.421818 279.512861 
L 64.814545 279.512861 
L 61.207273 279.512861 
L 57.6 279.512861 
" clip-path="url(#p2a631cd753)" style="fill: none; stroke: #000000; stroke-width: 0.5"/>
   </g>
   <g id="PathCollection_10">
    <path d="M 237.411031 41.472 
L 237.411031 44.16 
L 237.411031 46.848 
L 237.411031 49.536 
L 237.411031 52.224 
L 237.411031 54.912 
L 237.411031 57.6 
L 237.411031 60.288 
L 237.411031 62.976 
L 237.411031 65.664 
L 237.411031 68.352 
L 237.411031 71.04 
L 237.411031 73.728 
L 237.411031 74.589 
" clip-path="url(#p2a631cd753)" style="fill: none; stroke: #000000; stroke-width: 0.5"/>
    <path d="M 237.411031 110.499 
L 237.411031 111.36 
L 237.411031 114.048 
L 237.411031 116.736 
L 237.411031 119.424 
L 237.411031 122.112 
L 237.411031 124.8 
L 237.411031 127.488 
L 237.411031 130.176 
L 237.411031 132.864 
L 237.411031 135.552 
L 237.411031 138.24 
L 237.411031 140.928 
L 237.411031 143.616 
L 237.411031 146.304 
L 237.411031 148.992 
L 237.411031 151.68 
L 237.411031 154.368 
L 237.411031 157.056 
L 237.411031 159.744 
L 237.411031 162.432 
L 237.411031 165.12 
L 237.411031 167.808 
L 237.411031 170.496 
L 237.411031 173.184 
L 237.411031 175.872 
L 237.411031 178.56 
L 237.411031 181.248 
L 237.411031 183.936 
L 237.411031 186.624 
L 237.411031 189.312 
L 237.411031 192 
L 237.411031 194.688 
L 237.411031 197.376 
L 237.411031 200.064 
L 237.411031 202.752 
L 237.411031 205.44 
L 237.411031 208.128 
L 237.411031 210.816 
L 237.411031 213.504 
L 237.411031 216.192 
L 237.411031 218.88 
L 237.411031 221.568 
L 237.411031 224.256 
L 237.411031 226.944 
L 237.411031 229.632 
L 237.411031 232.32 
L 237.411031 235.008 
L 237.411031 237.696 
L 237.411031 240.384 
L 237.411031 243.072 
L 237.411031 245.76 
L 237.411031 248.448 
L 237.411031 251.136 
L 237.411031 253.824 
L 237.411031 256.512 
L 237.411031 259.2 
L 237.411031 261.888 
L 237.411031 264.576 
L 237.963636 265.261146 
L 239.566549 267.264 
L 239.566549 269.952 
L 239.566549 272.64 
L 239.566549 275.328 
L 239.566549 278.016 
L 237.963636 279.158036 
L 235.776879 280.704 
L 235.776879 283.392 
L 235.776879 286.08 
L 234.557473 288.768 
L 234.356364 290.175018 
L 230.749091 290.175018 
L 227.141818 290.175018 
L 223.534545 290.175018 
L 219.927273 290.175018 
L 216.32 290.175018 
L 212.712727 290.175018 
L 209.105455 290.175018 
L 205.498182 290.175018 
L 201.890909 290.175018 
L 198.283636 290.175018 
L 194.676364 290.175018 
L 191.069091 290.175018 
L 187.461818 290.175018 
L 183.854545 290.175018 
L 180.247273 290.175018 
L 176.64 290.175018 
L 173.032727 290.175018 
L 169.425455 290.175018 
L 165.818182 290.175018 
L 162.210909 290.175018 
L 158.603636 290.175018 
L 154.996364 290.175018 
L 151.389091 290.175018 
L 147.781818 290.175018 
L 144.174545 290.175018 
L 140.567273 290.175018 
L 136.96 290.175018 
L 133.352727 290.175018 
L 129.745455 290.175018 
L 126.138182 290.175018 
L 122.530909 290.175018 
L 118.923636 290.175018 
L 115.316364 290.175018 
L 111.709091 290.175018 
L 108.101818 290.175018 
L 104.494545 290.175018 
L 100.887273 290.175018 
L 97.28 290.175018 
L 93.672727 290.175018 
L 90.065455 290.175018 
L 86.458182 290.175018 
L 82.850909 290.175018 
L 79.243636 290.175018 
L 75.636364 290.175018 
L 72.029091 290.175018 
L 68.421818 290.175018 
L 64.814545 290.175018 
L 61.207273 290.175018 
L 57.6 290.175018 
" clip-path="url(#p2a631cd753)" style="fill: none; stroke: #000000; stroke-width: 0.5"/>
   </g>
   <g id="PathCollection_11">
    <path d="M 414.72 278.783338 
L 411.112727 278.783338 
L 407.505455 278.783338 
L 403.898182 278.783338 
L 400.290909 278.783338 
L 396.683636 278.783338 
L 393.076364 278.783338 
L 389.469091 278.783338 
L 385.861818 278.783338 
L 382.254545 278.783338 
L 378.647273 278.783338 
L 375.04 278.783338 
L 371.432727 278.783338 
L 367.825455 278.783338 
L 364.218182 278.783338 
L 364.136818 278.783338 
" clip-path="url(#p2a631cd753)" style="fill: none; stroke: #000000; stroke-width: 0.5"/>
    <path d="M 328.226818 278.783338 
L 328.145455 278.783338 
L 324.538182 278.783338 
L 320.930909 278.783338 
L 317.323636 278.783338 
L 313.716364 278.783338 
L 310.109091 278.783338 
L 306.501818 278.783338 
L 302.894545 278.783338 
L 299.287273 278.783338 
L 295.68 278.783338 
L 292.072727 278.783338 
L 288.465455 278.783338 
L 284.858182 278.783338 
L 281.250909 278.783338 
L 277.643636 278.783338 
L 274.036364 278.783338 
L 270.429091 278.783338 
L 266.821818 278.783338 
L 263.214545 278.783338 
L 259.607273 278.783338 
L 256 278.783338 
L 252.392727 278.783338 
L 248.785455 278.783338 
L 245.178182 278.783338 
L 241.570909 278.783338 
L 238.875151 280.704 
L 238.875151 283.392 
L 238.875151 286.08 
L 237.963636 288.104959 
L 237.662849 288.768 
L 237.278644 291.456 
L 237.278644 294.144 
L 237.278644 296.832 
L 234.356364 297.564729 
L 230.749091 297.564729 
L 227.141818 297.564729 
L 223.534545 297.564729 
L 219.927273 297.564729 
L 216.32 297.564729 
L 212.712727 297.564729 
L 209.105455 297.564729 
L 205.498182 297.564729 
L 201.890909 297.564729 
L 198.283636 297.564729 
L 194.676364 297.564729 
L 191.069091 297.564729 
L 187.461818 297.564729 
L 183.854545 297.564729 
L 180.247273 297.564729 
L 176.64 297.564729 
L 173.032727 297.564729 
L 169.425455 297.564729 
L 165.818182 297.564729 
L 162.210909 297.564729 
L 158.603636 297.564729 
L 154.996364 297.564729 
L 151.389091 297.564729 
L 147.781818 297.564729 
L 144.174545 297.564729 
L 140.567273 297.564729 
L 136.96 297.564729 
L 133.352727 297.564729 
L 129.745455 297.564729 
L 126.138182 297.564729 
L 122.530909 297.564729 
L 118.923636 297.564729 
L 115.316364 297.564729 
L 111.709091 297.564729 
L 108.101818 297.564729 
L 104.494545 297.564729 
L 100.887273 297.564729 
L 97.28 297.564729 
L 93.672727 297.564729 
L 90.065455 297.564729 
L 86.458182 297.564729 
L 82.850909 297.564729 
L 79.243636 297.564729 
L 75.636364 297.564729 
L 72.029091 297.564729 
L 68.421818 297.564729 
L 64.814545 297.564729 
L 61.207273 297.564729 
L 57.6 297.564729 
" clip-path="url(#p2a631cd753)" style="fill: none; stroke: #000000; stroke-width: 0.5"/>
    <path d="M 240.496667 41.472 
L 240.496667 44.16 
L 240.496667 46.848 
L 240.496667 49.536 
L 240.496667 52.224 
L 240.496667 54.912 
L 240.496667 57.6 
L 240.496667 60.288 
L 240.496667 62.976 
L 240.496667 65.664 
L 240.496667 68.352 
L 240.496667 71.04 
L 240.496667 73.728 
L 240.496667 76.416 
L 240.496667 79.104 
L 240.496667 81.792 
L 240.496667 84.48 
L 240.496667 87.168 
L 240.496667 89.856 
L 240.496667 92.544 
L 240.496667 95.232 
L 240.496667 97.92 
L 240.496667 100.608 
L 240.496667 103.296 
L 240.496667 105.984 
L 240.496667 108.672 
L 240.496667 111.36 
L 240.496667 114.048 
L 240.496667 116.736 
L 240.496667 119.424 
L 240.496667 122.112 
L 240.496667 124.8 
L 240.496667 127.488 
L 240.496667 130.176 
L 240.496667 132.864 
L 240.496667 135.552 
L 240.496667 138.24 
L 240.496667 140.928 
L 240.496667 143.616 
L 240.496667 146.304 
L 240.496667 148.992 
L 240.496667 151.68 
L 240.496667 154.368 
L 240.496667 157.056 
L 240.496667 159.744 
L 240.496667 162.432 
L 240.496667 165.12 
L 240.496667 167.808 
L 240.496667 170.496 
L 240.496667 173.184 
L 240.496667 175.872 
L 240.496667 178.56 
L 240.496667 179.421 
" clip-path="url(#p2a631cd753)" style="fill: none; stroke: #000000; stroke-width: 0.5"/>
    <path d="M 240.496667 215.331 
L 240.496667 216.192 
L 240.496667 218.88 
L 240.496667 221.568 
L 240.496667 224.256 
L 240.496667 226.944 
L 240.496667 229.632 
L 240.496667 232.32 
L 240.496667 235.008 
L 240.496667 237.696 
L 240.496667 240.384 
L 240.496667 243.072 
L 240.496667 245.76 
L 240.496667 248.448 
L 240.496667 251.136 
L 240.496667 253.824 
L 240.496667 256.512 
L 240.496667 259.2 
L 240.496667 261.888 
L 240.496667 264.576 
L 241.570909 265.918275 
L 245.178182 265.918275 
L 248.785455 265.918275 
L 252.392727 265.918275 
L 256 265.918275 
L 259.607273 265.918275 
L 263.214545 265.918275 
L 266.821818 265.918275 
L 270.429091 265.918275 
L 274.036364 265.918275 
L 277.643636 265.918275 
L 281.250909 265.918275 
L 284.858182 265.918275 
L 288.465455 265.918275 
L 292.072727 265.918275 
L 295.68 265.918275 
L 299.287273 265.918275 
L 302.894545 265.918275 
L 306.501818 265.918275 
L 310.109091 265.918275 
L 313.716364 265.918275 
L 317.323636 265.918275 
L 320.930909 265.918275 
L 324.538182 265.918275 
L 328.145455 265.918275 
L 331.752727 265.918275 
L 335.36 265.918275 
L 338.967273 265.918275 
L 342.574545 265.918275 
L 346.181818 265.918275 
L 349.789091 265.918275 
L 353.396364 265.918275 
L 357.003636 265.918275 
L 360.610909 265.918275 
L 364.218182 265.918275 
L 367.825455 265.918275 
L 371.432727 265.918275 
L 375.04 265.918275 
L 378.647273 265.918275 
L 382.254545 265.918275 
L 385.861818 265.918275 
L 389.469091 265.918275 
L 393.076364 265.918275 
L 396.683636 265.918275 
L 400.290909 265.918275 
L 403.898182 265.918275 
L 407.505455 265.918275 
L 411.112727 265.918275 
L 414.72 265.918275 
" clip-path="url(#p2a631cd753)" style="fill: none; stroke: #000000; stroke-width: 0.5"/>
   </g>
   <g id="PathCollection_12">
    <path d="M 414.72 286.936633 
L 411.112727 286.936633 
L 407.505455 286.936633 
L 403.898182 286.936633 
L 400.290909 286.936633 
L 396.683636 286.936633 
L 393.076364 286.936633 
L 389.469091 286.936633 
L 385.861818 286.936633 
L 382.254545 286.936633 
L 378.647273 286.936633 
L 375.04 286.936633 
L 371.432727 286.936633 
L 367.825455 286.936633 
L 364.218182 286.936633 
L 360.610909 286.936633 
L 357.003636 286.936633 
L 353.396364 286.936633 
L 349.789091 286.936633 
L 346.181818 286.936633 
L 342.574545 286.936633 
L 338.967273 286.936633 
L 335.36 286.936633 
L 331.752727 286.936633 
L 328.145455 286.936633 
L 324.538182 286.936633 
L 320.930909 286.936633 
L 317.323636 286.936633 
L 313.716364 286.936633 
L 310.109091 286.936633 
L 306.501818 286.936633 
L 302.894545 286.936633 
L 299.287273 286.936633 
L 295.68 286.936633 
L 292.072727 286.936633 
L 288.465455 286.936633 
L 284.858182 286.936633 
L 281.250909 286.936633 
L 277.643636 286.936633 
L 274.036364 286.936633 
L 270.429091 286.936633 
L 266.821818 286.936633 
L 263.214545 286.936633 
L 259.607273 286.936633 
L 256 286.936633 
L 252.392727 286.936633 
L 248.785455 286.936633 
L 245.178182 286.936633 
L 241.570909 286.936633 
L 240.746538 288.768 
L 240.365304 291.456 
L 240.365304 294.144 
L 240.365304 296.832 
L 237.963636 297.746655 
L 234.356364 298.343366 
L 230.749091 298.343366 
L 227.141818 298.343366 
L 223.534545 298.343366 
L 219.927273 298.343366 
L 216.32 298.343366 
L 212.712727 298.343366 
L 209.105455 298.343366 
L 205.498182 298.343366 
L 201.890909 298.343366 
L 198.283636 298.343366 
L 194.676364 298.343366 
L 191.069091 298.343366 
L 187.461818 298.343366 
L 183.854545 298.343366 
L 180.247273 298.343366 
L 176.64 298.343366 
L 173.032727 298.343366 
L 169.425455 298.343366 
L 165.818182 298.343366 
L 162.210909 298.343366 
L 158.603636 298.343366 
L 154.996364 298.343366 
L 151.389091 298.343366 
L 147.781818 298.343366 
L 144.174545 298.343366 
L 140.567273 298.343366 
L 136.96 298.343366 
L 133.352727 298.343366 
L 129.745455 298.343366 
L 126.138182 298.343366 
L 122.530909 298.343366 
L 118.923636 298.343366 
L 115.316364 298.343366 
L 111.709091 298.343366 
L 108.101818 298.343366 
L 104.494545 298.343366 
L 100.887273 298.343366 
L 97.28 298.343366 
L 97.198636 298.343366 
" clip-path="url(#p2a631cd753)" style="fill: none; stroke: #000000; stroke-width: 0.5"/>
    <path d="M 61.288636 298.343366 
L 61.207273 298.343366 
L 57.6 298.343366 
" clip-path="url(#p2a631cd753)" style="fill: none; stroke: #000000; stroke-width: 0.5"/>
   </g>
   <g id="PathCollection_13">
    <path d="M 414.72 297.546367 
L 411.112727 297.546367 
L 407.505455 297.546367 
L 403.898182 297.546367 
L 400.290909 297.546367 
L 396.683636 297.546367 
L 393.076364 297.546367 
L 389.469091 297.546367 
L 385.861818 297.546367 
L 382.254545 297.546367 
L 378.647273 297.546367 
L 375.04 297.546367 
L 371.432727 297.546367 
L 367.825455 297.546367 
L 364.218182 297.546367 
L 360.610909 297.546367 
L 357.003636 297.546367 
L 353.396364 297.546367 
L 349.789091 297.546367 
L 346.181818 297.546367 
L 342.574545 297.546367 
L 338.967273 297.546367 
L 335.36 297.546367 
L 331.752727 297.546367 
L 328.145455 297.546367 
L 324.538182 297.546367 
L 320.930909 297.546367 
L 317.323636 297.546367 
L 313.716364 297.546367 
L 310.109091 297.546367 
L 306.501818 297.546367 
L 302.894545 297.546367 
L 299.287273 297.546367 
L 295.68 297.546367 
L 292.072727 297.546367 
L 288.465455 297.546367 
L 284.858182 297.546367 
L 281.250909 297.546367 
L 277.643636 297.546367 
L 274.036364 297.546367 
L 270.429091 297.546367 
L 266.821818 297.546367 
L 263.214545 297.546367 
L 259.607273 297.546367 
L 256 297.546367 
L 252.392727 297.546367 
L 248.785455 297.546367 
L 245.178182 297.546367 
L 241.570909 297.546367 
L 237.963636 298.920167 
L 234.356364 299.122004 
L 230.749091 299.122004 
L 227.141818 299.122004 
L 223.534545 299.122004 
L 223.453182 299.122004 
" clip-path="url(#p2a631cd753)" style="fill: none; stroke: #000000; stroke-width: 0.5"/>
    <path d="M 187.543182 299.122004 
L 187.461818 299.122004 
L 183.854545 299.122004 
L 180.247273 299.122004 
L 176.64 299.122004 
L 173.032727 299.122004 
L 169.425455 299.122004 
L 165.818182 299.122004 
L 162.210909 299.122004 
L 158.603636 299.122004 
L 154.996364 299.122004 
L 151.389091 299.122004 
L 147.781818 299.122004 
L 144.174545 299.122004 
L 140.567273 299.122004 
L 136.96 299.122004 
L 133.352727 299.122004 
L 129.745455 299.122004 
L 126.138182 299.122004 
L 122.530909 299.122004 
L 118.923636 299.122004 
L 115.316364 299.122004 
L 111.709091 299.122004 
L 108.101818 299.122004 
L 104.494545 299.122004 
L 100.887273 299.122004 
L 97.28 299.122004 
L 93.672727 299.122004 
L 90.065455 299.122004 
L 86.458182 299.122004 
L 82.850909 299.122004 
L 79.243636 299.122004 
L 75.636364 299.122004 
L 72.029091 299.122004 
L 68.421818 299.122004 
L 64.814545 299.122004 
L 61.207273 299.122004 
L 57.6 299.122004 
" clip-path="url(#p2a631cd753)" style="fill: none; stroke: #000000; stroke-width: 0.5"/>
   </g>
   <g id="PathCollection_14">
    <path d="M 414.72 298.719878 
L 414.638636 298.719878 
" clip-path="url(#p2a631cd753)" style="fill: none; stroke: #000000; stroke-width: 0.5"/>
    <path d="M 378.728636 298.719878 
L 378.647273 298.719878 
L 375.04 298.719878 
L 371.432727 298.719878 
L 367.825455 298.719878 
L 364.218182 298.719878 
L 360.610909 298.719878 
L 357.003636 298.719878 
L 353.396364 298.719878 
L 349.789091 298.719878 
L 346.181818 298.719878 
L 342.574545 298.719878 
L 338.967273 298.719878 
L 335.36 298.719878 
L 331.752727 298.719878 
L 328.145455 298.719878 
L 324.538182 298.719878 
L 320.930909 298.719878 
L 317.323636 298.719878 
L 313.716364 298.719878 
L 310.109091 298.719878 
L 306.501818 298.719878 
L 302.894545 298.719878 
L 299.287273 298.719878 
L 295.68 298.719878 
L 292.072727 298.719878 
L 288.465455 298.719878 
L 284.858182 298.719878 
L 281.250909 298.719878 
L 277.643636 298.719878 
L 274.036364 298.719878 
L 270.429091 298.719878 
L 266.821818 298.719878 
L 263.214545 298.719878 
L 259.607273 298.719878 
L 256 298.719878 
L 252.392727 298.719878 
L 248.785455 298.719878 
L 245.178182 298.719878 
L 241.570909 298.719878 
L 239.46998 299.52 
L 239.46998 302.208 
L 239.46998 304.896 
L 239.46998 307.584 
" clip-path="url(#p2a631cd753)" style="fill: none; stroke: #000000; stroke-width: 0.5"/>
   </g>
   <g id="PathCollection_15"/>
   <g id="LineCollection_1">
    <path d="M 63.353906 307.584 
L 63.353906 294.2784 
" clip-path="url(#p2a631cd753)" style="fill: none; stroke: #000000; stroke-width: 1.5"/>
    <path d="M 82.877324 307.584 
L 82.877324 294.2784 
" clip-path="url(#p2a631cd753)" style="fill: none; stroke: #000000; stroke-width: 1.5"/>
    <path d="M 100.44988 307.584 
L 100.44988 294.2784 
" clip-path="url(#p2a631cd753)" style="fill: none; stroke: #000000; stroke-width: 1.5"/>
    <path d="M 120.505475 307.584 
L 120.505475 294.2784 
" clip-path="url(#p2a631cd753)" style="fill: none; stroke: #000000; stroke-width: 1.5"/>
    <path d="M 142.154402 307.584 
L 142.154402 294.2784 
" clip-path="url(#p2a631cd753)" style="fill: none; stroke: #000000; stroke-width: 1.5"/>
    <path d="M 170.120119 307.584 
L 170.120119 294.2784 
" clip-path="url(#p2a631cd753)" style="fill: none; stroke: #000000; stroke-width: 1.5"/>
    <path d="M 230.374738 307.584 
L 230.374738 294.2784 
" clip-path="url(#p2a631cd753)" style="fill: none; stroke: #000000; stroke-width: 1.5"/>
    <path d="M 280.242184 307.584 
L 280.242184 294.2784 
" clip-path="url(#p2a631cd753)" style="fill: none; stroke: #000000; stroke-width: 1.5"/>
    <path d="M 376.520685 307.584 
L 376.520685 294.2784 
" clip-path="url(#p2a631cd753)" style="fill: none; stroke: #000000; stroke-width: 1.5"/>
   </g>
   <g id="LineCollection_2">
    <path d="M 42.00969 307.584 
L 42.72568 307.584 
" clip-path="url(#p2a631cd753)" style="fill: none; stroke: #000000; stroke-width: 1.5"/>
    <path d="M 42.00969 296.299919 
L 42.72568 296.299919 
" clip-path="url(#p2a631cd753)" style="fill: none; stroke: #000000; stroke-width: 1.5"/>
    <path d="M 42.00969 278.091382 
L 42.72568 278.091382 
" clip-path="url(#p2a631cd753)" style="fill: none; stroke: #000000; stroke-width: 1.5"/>
    <path d="M 42.00969 236.172866 
L 42.72568 236.172866 
" clip-path="url(#p2a631cd753)" style="fill: none; stroke: #000000; stroke-width: 1.5"/>
    <path d="M 42.00969 178.265351 
L 42.72568 178.265351 
" clip-path="url(#p2a631cd753)" style="fill: none; stroke: #000000; stroke-width: 1.5"/>
    <path d="M 42.00969 105.165976 
L 42.72568 105.165976 
" clip-path="url(#p2a631cd753)" style="fill: none; stroke: #000000; stroke-width: 1.5"/>
    <path d="M 42.00969 42.228088 
L 42.72568 42.228088 
" clip-path="url(#p2a631cd753)" style="fill: none; stroke: #000000; stroke-width: 1.5"/>
    <path clip-path="url(#p2a631cd753)" style="fill: none; stroke: #000000; stroke-width: 1.5"/>
    <path clip-path="url(#p2a631cd753)" style="fill: none; stroke: #000000; stroke-width: 1.5"/>
   </g>
   <g id="patch_3">
    <path d="M 57.6 307.584 
L 57.6 41.472 
" style="fill: none; stroke: #000000; stroke-width: 0.8; stroke-linejoin: miter; stroke-linecap: square"/>
   </g>
   <g id="patch_4">
    <path d="M 414.72 307.584 
L 414.72 41.472 
" style="fill: none; stroke: #000000; stroke-width: 0.8; stroke-linejoin: miter; stroke-linecap: square"/>
   </g>
   <g id="patch_5">
    <path d="M 57.6 307.584 
L 414.72 307.584 
" style="fill: none; stroke: #000000; stroke-width: 0.8; stroke-linejoin: miter; stroke-linecap: square"/>
   </g>
   <g id="patch_6">
    <path d="M 57.6 41.472 
L 414.72 41.472 
" style="fill: none; stroke: #000000; stroke-width: 0.8; stroke-linejoin: miter; stroke-linecap: square"/>
   </g>
   <g id="text_14">
    <!-- 2D-partial dependency plot between Beef and OM -->
    <g transform="translate(85.596563 35.472) scale(0.12 -0.12)">
     <defs>
      <path id="DejaVuSans-44" d="M 1259 4147 
L 1259 519 
L 2022 519 
Q 2988 519 3436 956 
Q 3884 1394 3884 2338 
Q 3884 3275 3436 3711 
Q 2988 4147 2022 4147 
L 1259 4147 
z
M 628 4666 
L 1925 4666 
Q 3281 4666 3915 4102 
Q 4550 3538 4550 2338 
Q 4550 1131 3912 565 
Q 3275 0 1925 0 
L 628 0 
L 628 4666 
z
" transform="scale(0.015625)"/>
      <path id="DejaVuSans-2d" d="M 313 2009 
L 1997 2009 
L 1997 1497 
L 313 1497 
L 313 2009 
z
" transform="scale(0.015625)"/>
      <path id="DejaVuSans-6c" d="M 603 4863 
L 1178 4863 
L 1178 0 
L 603 0 
L 603 4863 
z
" transform="scale(0.015625)"/>
      <path id="DejaVuSans-64" d="M 2906 2969 
L 2906 4863 
L 3481 4863 
L 3481 0 
L 2906 0 
L 2906 525 
Q 2725 213 2448 61 
Q 2172 -91 1784 -91 
Q 1150 -91 751 415 
Q 353 922 353 1747 
Q 353 2572 751 3078 
Q 1150 3584 1784 3584 
Q 2172 3584 2448 3432 
Q 2725 3281 2906 2969 
z
M 947 1747 
Q 947 1113 1208 752 
Q 1469 391 1925 391 
Q 2381 391 2643 752 
Q 2906 1113 2906 1747 
Q 2906 2381 2643 2742 
Q 2381 3103 1925 3103 
Q 1469 3103 1208 2742 
Q 947 2381 947 1747 
z
" transform="scale(0.015625)"/>
      <path id="DejaVuSans-63" d="M 3122 3366 
L 3122 2828 
Q 2878 2963 2633 3030 
Q 2388 3097 2138 3097 
Q 1578 3097 1268 2742 
Q 959 2388 959 1747 
Q 959 1106 1268 751 
Q 1578 397 2138 397 
Q 2388 397 2633 464 
Q 2878 531 3122 666 
L 3122 134 
Q 2881 22 2623 -34 
Q 2366 -91 2075 -91 
Q 1284 -91 818 406 
Q 353 903 353 1747 
Q 353 2603 823 3093 
Q 1294 3584 2113 3584 
Q 2378 3584 2631 3529 
Q 2884 3475 3122 3366 
z
" transform="scale(0.015625)"/>
      <path id="DejaVuSans-79" d="M 2059 -325 
Q 1816 -950 1584 -1140 
Q 1353 -1331 966 -1331 
L 506 -1331 
L 506 -850 
L 844 -850 
Q 1081 -850 1212 -737 
Q 1344 -625 1503 -206 
L 1606 56 
L 191 3500 
L 800 3500 
L 1894 763 
L 2988 3500 
L 3597 3500 
L 2059 -325 
z
" transform="scale(0.015625)"/>
      <path id="DejaVuSans-62" d="M 3116 1747 
Q 3116 2381 2855 2742 
Q 2594 3103 2138 3103 
Q 1681 3103 1420 2742 
Q 1159 2381 1159 1747 
Q 1159 1113 1420 752 
Q 1681 391 2138 391 
Q 2594 391 2855 752 
Q 3116 1113 3116 1747 
z
M 1159 2969 
Q 1341 3281 1617 3432 
Q 1894 3584 2278 3584 
Q 2916 3584 3314 3078 
Q 3713 2572 3713 1747 
Q 3713 922 3314 415 
Q 2916 -91 2278 -91 
Q 1894 -91 1617 61 
Q 1341 213 1159 525 
L 1159 0 
L 581 0 
L 581 4863 
L 1159 4863 
L 1159 2969 
z
" transform="scale(0.015625)"/>
      <path id="DejaVuSans-77" d="M 269 3500 
L 844 3500 
L 1563 769 
L 2278 3500 
L 2956 3500 
L 3675 769 
L 4391 3500 
L 4966 3500 
L 4050 0 
L 3372 0 
L 2619 2869 
L 1863 0 
L 1184 0 
L 269 3500 
z
" transform="scale(0.015625)"/>
     </defs>
     <use xlink:href="#DejaVuSans-32"/>
     <use xlink:href="#DejaVuSans-44" x="63.623047"/>
     <use xlink:href="#DejaVuSans-2d" x="140.625"/>
     <use xlink:href="#DejaVuSans-70" x="176.708984"/>
     <use xlink:href="#DejaVuSans-61" x="240.185547"/>
     <use xlink:href="#DejaVuSans-72" x="301.464844"/>
     <use xlink:href="#DejaVuSans-74" x="342.578125"/>
     <use xlink:href="#DejaVuSans-69" x="381.787109"/>
     <use xlink:href="#DejaVuSans-61" x="409.570312"/>
     <use xlink:href="#DejaVuSans-6c" x="470.849609"/>
     <use xlink:href="#DejaVuSans-20" x="498.632812"/>
     <use xlink:href="#DejaVuSans-64" x="530.419922"/>
     <use xlink:href="#DejaVuSans-65" x="593.896484"/>
     <use xlink:href="#DejaVuSans-70" x="655.419922"/>
     <use xlink:href="#DejaVuSans-65" x="718.896484"/>
     <use xlink:href="#DejaVuSans-6e" x="780.419922"/>
     <use xlink:href="#DejaVuSans-64" x="843.798828"/>
     <use xlink:href="#DejaVuSans-65" x="907.275391"/>
     <use xlink:href="#DejaVuSans-6e" x="968.798828"/>
     <use xlink:href="#DejaVuSans-63" x="1032.177734"/>
     <use xlink:href="#DejaVuSans-79" x="1087.158203"/>
     <use xlink:href="#DejaVuSans-20" x="1146.337891"/>
     <use xlink:href="#DejaVuSans-70" x="1178.125"/>
     <use xlink:href="#DejaVuSans-6c" x="1241.601562"/>
     <use xlink:href="#DejaVuSans-6f" x="1269.384766"/>
     <use xlink:href="#DejaVuSans-74" x="1330.566406"/>
     <use xlink:href="#DejaVuSans-20" x="1369.775391"/>
     <use xlink:href="#DejaVuSans-62" x="1401.5625"/>
     <use xlink:href="#DejaVuSans-65" x="1465.039062"/>
     <use xlink:href="#DejaVuSans-74" x="1526.5625"/>
     <use xlink:href="#DejaVuSans-77" x="1565.771484"/>
     <use xlink:href="#DejaVuSans-65" x="1647.558594"/>
     <use xlink:href="#DejaVuSans-65" x="1709.082031"/>
     <use xlink:href="#DejaVuSans-6e" x="1770.605469"/>
     <use xlink:href="#DejaVuSans-20" x="1833.984375"/>
     <use xlink:href="#DejaVuSans-42" x="1865.771484"/>
     <use xlink:href="#DejaVuSans-65" x="1934.375"/>
     <use xlink:href="#DejaVuSans-65" x="1995.898438"/>
     <use xlink:href="#DejaVuSans-66" x="2057.421875"/>
     <use xlink:href="#DejaVuSans-20" x="2092.626953"/>
     <use xlink:href="#DejaVuSans-61" x="2124.414062"/>
     <use xlink:href="#DejaVuSans-6e" x="2185.693359"/>
     <use xlink:href="#DejaVuSans-64" x="2249.072266"/>
     <use xlink:href="#DejaVuSans-20" x="2312.548828"/>
     <use xlink:href="#DejaVuSans-4f" x="2344.335938"/>
     <use xlink:href="#DejaVuSans-4d" x="2423.046875"/>
    </g>
   </g>
   <g id="text_15">
    <g clip-path="url(#p2a631cd753)">
     <!-- 12.94 -->
     <g transform="translate(111.824119 267.398246) scale(0.1 -0.1)">
      <defs>
       <path id="DejaVuSans-2e" d="M 684 794 
L 1344 794 
L 1344 0 
L 684 0 
L 684 794 
z
" transform="scale(0.015625)"/>
       <path id="DejaVuSans-39" d="M 703 97 
L 703 672 
Q 941 559 1184 500 
Q 1428 441 1663 441 
Q 2288 441 2617 861 
Q 2947 1281 2994 2138 
Q 2813 1869 2534 1725 
Q 2256 1581 1919 1581 
Q 1219 1581 811 2004 
Q 403 2428 403 3163 
Q 403 3881 828 4315 
Q 1253 4750 1959 4750 
Q 2769 4750 3195 4129 
Q 3622 3509 3622 2328 
Q 3622 1225 3098 567 
Q 2575 -91 1691 -91 
Q 1453 -91 1209 -44 
Q 966 3 703 97 
z
M 1959 2075 
Q 2384 2075 2632 2365 
Q 2881 2656 2881 3163 
Q 2881 3666 2632 3958 
Q 2384 4250 1959 4250 
Q 1534 4250 1286 3958 
Q 1038 3666 1038 3163 
Q 1038 2656 1286 2365 
Q 1534 2075 1959 2075 
z
" transform="scale(0.015625)"/>
      </defs>
      <use xlink:href="#DejaVuSans-31"/>
      <use xlink:href="#DejaVuSans-32" x="63.623047"/>
      <use xlink:href="#DejaVuSans-2e" x="127.246094"/>
      <use xlink:href="#DejaVuSans-39" x="159.033203"/>
      <use xlink:href="#DejaVuSans-34" x="222.65625"/>
     </g>
    </g>
   </g>
   <g id="text_16">
    <g clip-path="url(#p2a631cd753)">
     <!-- 12.97 -->
     <g transform="translate(234.651656 78.229937) rotate(-270) scale(0.1 -0.1)">
      <defs>
       <path id="DejaVuSans-37" d="M 525 4666 
L 3525 4666 
L 3525 4397 
L 1831 0 
L 1172 0 
L 2766 4134 
L 525 4134 
L 525 4666 
z
" transform="scale(0.015625)"/>
      </defs>
      <use xlink:href="#DejaVuSans-31"/>
      <use xlink:href="#DejaVuSans-32" x="63.623047"/>
      <use xlink:href="#DejaVuSans-2e" x="127.246094"/>
      <use xlink:href="#DejaVuSans-39" x="159.033203"/>
      <use xlink:href="#DejaVuSans-37" x="222.65625"/>
     </g>
    </g>
   </g>
   <g id="text_17">
    <g clip-path="url(#p2a631cd753)">
     <!-- 12.99 -->
     <g transform="translate(331.867756 281.542713) scale(0.1 -0.1)">
      <use xlink:href="#DejaVuSans-31"/>
      <use xlink:href="#DejaVuSans-32" x="63.623047"/>
      <use xlink:href="#DejaVuSans-2e" x="127.246094"/>
      <use xlink:href="#DejaVuSans-39" x="159.033203"/>
      <use xlink:href="#DejaVuSans-39" x="222.65625"/>
     </g>
    </g>
   </g>
   <g id="text_18">
    <g clip-path="url(#p2a631cd753)">
     <!-- 12.99 -->
     <g transform="translate(237.737292 183.061937) rotate(-270) scale(0.1 -0.1)">
      <use xlink:href="#DejaVuSans-31"/>
      <use xlink:href="#DejaVuSans-32" x="63.623047"/>
      <use xlink:href="#DejaVuSans-2e" x="127.246094"/>
      <use xlink:href="#DejaVuSans-39" x="159.033203"/>
      <use xlink:href="#DejaVuSans-39" x="222.65625"/>
     </g>
    </g>
   </g>
   <g id="text_19">
    <g clip-path="url(#p2a631cd753)">
     <!-- 13.02 -->
     <g transform="translate(64.929574 301.102741) scale(0.1 -0.1)">
      <use xlink:href="#DejaVuSans-31"/>
      <use xlink:href="#DejaVuSans-33" x="63.623047"/>
      <use xlink:href="#DejaVuSans-2e" x="127.246094"/>
      <use xlink:href="#DejaVuSans-30" x="159.033203"/>
      <use xlink:href="#DejaVuSans-32" x="222.65625"/>
     </g>
    </g>
   </g>
   <g id="text_20">
    <g clip-path="url(#p2a631cd753)">
     <!-- 13.04 -->
     <g transform="translate(191.184119 301.881379) scale(0.1 -0.1)">
      <use xlink:href="#DejaVuSans-31"/>
      <use xlink:href="#DejaVuSans-33" x="63.623047"/>
      <use xlink:href="#DejaVuSans-2e" x="127.246094"/>
      <use xlink:href="#DejaVuSans-30" x="159.033203"/>
      <use xlink:href="#DejaVuSans-34" x="222.65625"/>
     </g>
    </g>
   </g>
   <g id="text_21">
    <g clip-path="url(#p2a631cd753)">
     <!-- 13.07 -->
     <g transform="translate(382.369574 301.479253) scale(0.1 -0.1)">
      <use xlink:href="#DejaVuSans-31"/>
      <use xlink:href="#DejaVuSans-33" x="63.623047"/>
      <use xlink:href="#DejaVuSans-2e" x="127.246094"/>
      <use xlink:href="#DejaVuSans-30" x="159.033203"/>
      <use xlink:href="#DejaVuSans-37" x="222.65625"/>
     </g>
    </g>
   </g>
  </g>
 </g>
 <defs>
  <clipPath id="p2a631cd753">
   <rect x="57.6" y="41.472" width="357.12" height="266.112"/>
  </clipPath>
 </defs>
</svg>
