<?xml version="1.0" encoding="utf-8" standalone="no"?>
<!DOCTYPE svg PUBLIC "-//W3C//DTD SVG 1.1//EN"
  "http://www.w3.org/Graphics/SVG/1.1/DTD/svg11.dtd">
<svg xmlns:xlink="http://www.w3.org/1999/xlink" width="460.8pt" height="345.6pt" viewBox="0 0 460.8 345.6" xmlns="http://www.w3.org/2000/svg" version="1.1">
 <metadata>
  <rdf:RDF xmlns:dc="http://purl.org/dc/elements/1.1/" xmlns:cc="http://creativecommons.org/ns#" xmlns:rdf="http://www.w3.org/1999/02/22-rdf-syntax-ns#">
   <cc:Work>
    <dc:type rdf:resource="http://purl.org/dc/dcmitype/StillImage"/>
    <dc:date>2024-03-09T16:46:59.618432</dc:date>
    <dc:format>image/svg+xml</dc:format>
    <dc:creator>
     <cc:Agent>
      <dc:title>Matplotlib v3.7.0, https://matplotlib.org/</dc:title>
     </cc:Agent>
    </dc:creator>
   </cc:Work>
  </rdf:RDF>
 </metadata>
 <defs>
  <style type="text/css">*{stroke-linejoin: round; stroke-linecap: butt}</style>
 </defs>
 <g id="figure_1">
  <g id="patch_1">
   <path d="M 0 345.6 
L 460.8 345.6 
L 460.8 0 
L 0 0 
L 0 345.6 
z
" style="fill: none"/>
  </g>
  <g id="axes_1"/>
  <g id="axes_2">
   <g id="patch_2">
    <path d="M 57.6 307.584 
L 414.72 307.584 
L 414.72 41.472 
L 57.6 41.472 
L 57.6 307.584 
z
" style="fill: none"/>
   </g>
   <g id="PathCollection_1">
    <path d="M 61.207273 307.584 
L 64.814545 307.584 
L 68.421818 307.584 
L 72.029091 307.584 
L 75.636364 307.584 
L 79.243636 307.584 
L 82.850909 307.584 
L 86.458182 307.584 
L 90.065455 307.584 
L 93.672727 307.584 
L 97.28 307.584 
L 100.887273 307.584 
L 104.494545 307.584 
L 108.101818 307.584 
L 111.709091 307.584 
L 115.316364 307.584 
L 118.923636 307.584 
L 122.530909 307.584 
L 126.138182 307.584 
L 129.745455 307.584 
L 133.352727 307.584 
L 136.96 307.584 
L 140.567273 307.584 
L 141.681897 307.584 
L 141.681897 304.896 
L 141.681897 302.208 
L 141.681897 299.52 
L 141.681897 296.832 
L 141.681897 294.144 
L 141.681897 291.456 
L 141.681897 288.768 
L 141.681897 286.08 
L 141.681897 283.392 
L 141.681897 280.704 
L 141.681897 278.016 
L 141.681897 275.328 
L 141.681897 272.64 
L 141.681897 269.952 
L 141.681897 267.264 
L 141.681897 264.576 
L 141.681897 261.888 
L 141.681897 259.2 
L 141.681897 256.512 
L 141.681897 253.824 
L 141.681897 251.136 
L 141.681897 248.448 
L 141.681897 245.76 
L 141.681897 243.072 
L 141.681897 240.384 
L 141.681897 237.696 
L 141.681897 235.008 
L 141.681897 232.32 
L 141.681897 229.632 
L 140.770904 226.944 
L 140.567273 226.822934 
L 136.96 226.822934 
L 133.352727 225.717599 
L 129.745455 225.717599 
L 128.643983 224.256 
L 128.643983 221.568 
L 128.643983 218.88 
L 128.643983 216.192 
L 128.643983 213.504 
L 128.340584 210.816 
L 128.340584 208.128 
L 128.340584 205.44 
L 128.340584 202.752 
L 128.340584 200.064 
L 128.340584 197.376 
L 128.340584 194.688 
L 128.340584 192 
L 128.340584 189.312 
L 128.340584 186.624 
L 128.080676 183.936 
L 128.080676 181.248 
L 128.080676 178.56 
L 128.080676 175.872 
L 128.080676 173.184 
L 128.080676 170.496 
L 128.080676 167.808 
L 128.080676 165.12 
L 128.080676 162.432 
L 128.080676 159.744 
L 128.080676 157.056 
L 128.080676 154.368 
L 126.211015 151.68 
L 126.138182 151.633953 
L 122.530909 151.633953 
L 118.923636 151.633953 
L 115.316364 151.633953 
L 111.709091 151.633953 
L 108.101818 151.633953 
L 104.494545 151.633953 
L 100.887273 151.633953 
L 97.28 151.633953 
L 93.672727 151.633953 
L 90.065455 151.633953 
L 86.458182 151.633953 
L 82.850909 151.633953 
L 79.243636 151.633953 
L 75.636364 151.633953 
L 72.029091 151.633953 
L 68.421818 151.633953 
L 64.814545 151.633953 
L 61.207273 151.633953 
L 57.6 151.633953 
L 57.6 151.68 
L 57.6 154.368 
L 57.6 157.056 
L 57.6 159.744 
L 57.6 162.432 
L 57.6 165.12 
L 57.6 167.808 
L 57.6 170.496 
L 57.6 173.184 
L 57.6 175.872 
L 57.6 178.56 
L 57.6 181.248 
L 57.6 183.936 
L 57.6 186.624 
L 57.6 189.312 
L 57.6 192 
L 57.6 194.688 
L 57.6 197.376 
L 57.6 200.064 
L 57.6 202.752 
L 57.6 205.44 
L 57.6 208.128 
L 57.6 210.816 
L 57.6 213.504 
L 57.6 216.192 
L 57.6 218.88 
L 57.6 221.568 
L 57.6 224.256 
L 57.6 226.944 
L 57.6 229.632 
L 57.6 232.32 
L 57.6 235.008 
L 57.6 237.696 
L 57.6 240.384 
L 57.6 243.072 
L 57.6 245.76 
L 57.6 248.448 
L 57.6 251.136 
L 57.6 253.824 
L 57.6 256.512 
L 57.6 259.2 
L 57.6 261.888 
L 57.6 264.576 
L 57.6 267.264 
L 57.6 269.952 
L 57.6 272.64 
L 57.6 275.328 
L 57.6 278.016 
L 57.6 280.704 
L 57.6 283.392 
L 57.6 286.08 
L 57.6 288.768 
L 57.6 291.456 
L 57.6 294.144 
L 57.6 296.832 
L 57.6 299.52 
L 57.6 302.208 
L 57.6 304.896 
L 57.6 307.584 
z
" clip-path="url(#p34bf51e622)" style="fill: #481b6d; fill-opacity: 0.75"/>
   </g>
   <g id="PathCollection_2">
    <path d="M 144.174545 307.584 
L 147.781818 307.584 
L 150.920999 307.584 
L 150.920999 304.896 
L 150.920999 302.208 
L 150.920999 299.52 
L 150.920999 296.832 
L 150.920999 294.144 
L 150.920999 291.456 
L 150.920999 288.768 
L 150.920999 286.08 
L 150.920999 283.392 
L 150.920999 280.704 
L 150.920999 278.016 
L 150.920999 275.328 
L 150.920999 272.64 
L 150.920999 269.952 
L 150.920999 267.264 
L 150.920999 264.576 
L 150.920999 261.888 
L 150.920999 259.2 
L 150.920999 256.512 
L 150.920999 253.824 
L 150.920999 251.136 
L 150.920999 248.448 
L 150.920999 245.76 
L 150.920999 243.072 
L 150.920999 240.384 
L 150.920999 237.696 
L 150.920999 235.008 
L 150.920999 232.32 
L 150.920999 229.632 
L 150.582263 226.944 
L 148.90115 224.256 
L 148.90115 221.568 
L 148.90115 218.88 
L 148.90115 216.192 
L 148.90115 213.504 
L 148.738215 210.816 
L 148.738215 208.128 
L 148.738215 205.44 
L 148.738215 202.752 
L 148.738215 200.064 
L 148.738215 197.376 
L 148.738215 194.688 
L 148.738215 192 
L 148.738215 189.312 
L 148.738215 186.624 
L 148.598637 183.936 
L 148.598637 181.248 
L 148.598637 178.56 
L 148.598637 175.872 
L 148.598637 173.184 
L 148.598637 170.496 
L 148.598637 167.808 
L 148.598637 165.12 
L 148.598637 162.432 
L 148.598637 159.744 
L 148.598637 157.056 
L 148.598637 154.368 
L 147.781818 152.181283 
L 144.174545 152.181283 
L 143.670964 151.68 
L 140.567273 150.321391 
L 136.96 150.321391 
L 133.352727 149.127809 
L 129.745455 149.127809 
L 129.530642 148.992 
L 126.138182 147.272643 
L 122.530909 147.272643 
L 118.923636 147.272643 
L 115.316364 147.272643 
L 111.709091 147.272643 
L 108.101818 147.272643 
L 104.494545 147.272643 
L 100.887273 147.272643 
L 97.28 147.272643 
L 93.672727 147.272643 
L 90.065455 147.272643 
L 86.458182 147.272643 
L 82.850909 147.272643 
L 79.243636 147.272643 
L 75.636364 147.272643 
L 72.029091 147.272643 
L 68.421818 147.272643 
L 64.814545 147.272643 
L 61.207273 147.272643 
L 57.6 147.272643 
L 57.6 148.992 
L 57.6 151.633953 
L 61.207273 151.633953 
L 64.814545 151.633953 
L 68.421818 151.633953 
L 72.029091 151.633953 
L 75.636364 151.633953 
L 79.243636 151.633953 
L 82.850909 151.633953 
L 86.458182 151.633953 
L 90.065455 151.633953 
L 93.672727 151.633953 
L 97.28 151.633953 
L 100.887273 151.633953 
L 104.494545 151.633953 
L 108.101818 151.633953 
L 111.709091 151.633953 
L 115.316364 151.633953 
L 118.923636 151.633953 
L 122.530909 151.633953 
L 126.138182 151.633953 
L 126.211015 151.68 
L 128.080676 154.368 
L 128.080676 157.056 
L 128.080676 159.744 
L 128.080676 162.432 
L 128.080676 165.12 
L 128.080676 167.808 
L 128.080676 170.496 
L 128.080676 173.184 
L 128.080676 175.872 
L 128.080676 178.56 
L 128.080676 181.248 
L 128.080676 183.936 
L 128.340584 186.624 
L 128.340584 189.312 
L 128.340584 192 
L 128.340584 194.688 
L 128.340584 197.376 
L 128.340584 200.064 
L 128.340584 202.752 
L 128.340584 205.44 
L 128.340584 208.128 
L 128.340584 210.816 
L 128.643983 213.504 
L 128.643983 216.192 
L 128.643983 218.88 
L 128.643983 221.568 
L 128.643983 224.256 
L 129.745455 225.717599 
L 133.352727 225.717599 
L 136.96 226.822934 
L 140.567273 226.822934 
L 140.770904 226.944 
L 141.681897 229.632 
L 141.681897 232.32 
L 141.681897 235.008 
L 141.681897 237.696 
L 141.681897 240.384 
L 141.681897 243.072 
L 141.681897 245.76 
L 141.681897 248.448 
L 141.681897 251.136 
L 141.681897 253.824 
L 141.681897 256.512 
L 141.681897 259.2 
L 141.681897 261.888 
L 141.681897 264.576 
L 141.681897 267.264 
L 141.681897 269.952 
L 141.681897 272.64 
L 141.681897 275.328 
L 141.681897 278.016 
L 141.681897 280.704 
L 141.681897 283.392 
L 141.681897 286.08 
L 141.681897 288.768 
L 141.681897 291.456 
L 141.681897 294.144 
L 141.681897 296.832 
L 141.681897 299.52 
L 141.681897 302.208 
L 141.681897 304.896 
L 141.681897 307.584 
z
" clip-path="url(#p34bf51e622)" style="fill: #3f4788; fill-opacity: 0.75"/>
   </g>
   <g id="PathCollection_3">
    <path d="M 151.389091 307.584 
L 154.996364 307.584 
L 158.603636 307.584 
L 162.210909 307.584 
L 165.818182 307.584 
L 169.425455 307.584 
L 173.032727 307.584 
L 176.64 307.584 
L 180.247273 307.584 
L 183.854545 307.584 
L 187.461818 307.584 
L 191.069091 307.584 
L 194.676364 307.584 
L 198.283636 307.584 
L 201.890909 307.584 
L 202.57759 307.584 
L 202.57759 304.896 
L 202.57759 302.208 
L 202.57759 299.52 
L 202.57759 296.832 
L 202.57759 294.144 
L 202.57759 291.456 
L 202.57759 288.768 
L 202.57759 286.08 
L 202.57759 283.392 
L 202.57759 280.704 
L 202.57759 278.016 
L 202.57759 275.328 
L 202.57759 272.64 
L 202.57759 269.952 
L 202.57759 267.264 
L 202.57759 264.576 
L 202.57759 261.888 
L 202.57759 259.2 
L 202.57759 256.512 
L 202.57759 253.824 
L 202.57759 251.136 
L 202.57759 248.448 
L 202.57759 245.76 
L 202.57759 243.072 
L 202.57759 240.384 
L 202.57759 237.696 
L 202.57759 235.008 
L 202.57759 232.32 
L 202.57759 229.632 
L 201.890909 229.178293 
L 198.283636 229.178293 
L 194.676364 229.178293 
L 191.069091 229.178293 
L 187.461818 229.178293 
L 183.854545 229.178293 
L 180.247273 229.178293 
L 177.666113 226.944 
L 176.64 226.765028 
L 173.153928 224.256 
L 173.153928 221.568 
L 173.153928 218.88 
L 173.153928 216.192 
L 173.153928 213.504 
L 173.032727 212.60397 
L 169.425455 212.60397 
L 165.818182 212.60397 
L 164.919468 210.816 
L 164.919468 208.128 
L 164.919468 205.44 
L 164.919468 202.752 
L 164.919468 200.064 
L 164.919468 197.376 
L 164.919468 194.688 
L 164.919468 192 
L 164.919468 189.312 
L 164.919468 186.624 
L 163.76204 183.936 
L 163.76204 181.248 
L 163.76204 178.56 
L 163.76204 175.872 
L 163.76204 173.184 
L 163.76204 170.496 
L 163.76204 167.808 
L 163.76204 165.12 
L 163.76204 162.432 
L 163.76204 159.744 
L 163.76204 157.056 
L 163.76204 154.368 
L 162.210909 153.867229 
L 159.503393 151.68 
L 158.603636 151.360368 
L 154.996364 151.360368 
L 151.389091 151.360368 
L 149.377314 148.992 
L 147.781818 147.486269 
L 144.174545 147.486269 
L 140.805415 146.304 
L 140.805415 143.616 
L 140.567273 143.303062 
L 136.96 143.303062 
L 134.56891 140.928 
L 134.56891 138.24 
L 134.56891 135.552 
L 134.56891 132.864 
L 134.56891 130.176 
L 133.867203 127.488 
L 133.352727 127.269736 
L 129.745455 127.269736 
L 126.698694 124.8 
L 126.698694 122.112 
L 126.698694 119.424 
L 126.698694 116.736 
L 126.698694 114.048 
L 126.698694 111.36 
L 126.280831 108.672 
L 126.280831 105.984 
L 126.280831 103.296 
L 126.280831 100.608 
L 126.138182 100.378963 
L 122.530909 100.378963 
L 118.923636 100.378963 
L 115.316364 100.378963 
L 111.709091 100.378963 
L 108.101818 100.378963 
L 104.494545 100.378963 
L 100.887273 100.378963 
L 97.28 100.378963 
L 93.672727 100.378963 
L 90.065455 100.378963 
L 86.458182 100.378963 
L 82.850909 100.378963 
L 79.243636 100.378963 
L 75.636364 100.378963 
L 72.029091 100.378963 
L 68.421818 100.378963 
L 64.814545 100.378963 
L 61.207273 100.378963 
L 57.6 100.378963 
L 57.6 100.608 
L 57.6 103.296 
L 57.6 105.984 
L 57.6 108.672 
L 57.6 111.36 
L 57.6 114.048 
L 57.6 116.736 
L 57.6 119.424 
L 57.6 122.112 
L 57.6 124.8 
L 57.6 127.488 
L 57.6 130.176 
L 57.6 132.864 
L 57.6 135.552 
L 57.6 138.24 
L 57.6 140.928 
L 57.6 143.616 
L 57.6 146.304 
L 57.6 147.272643 
L 61.207273 147.272643 
L 64.814545 147.272643 
L 68.421818 147.272643 
L 72.029091 147.272643 
L 75.636364 147.272643 
L 79.243636 147.272643 
L 82.850909 147.272643 
L 86.458182 147.272643 
L 90.065455 147.272643 
L 93.672727 147.272643 
L 97.28 147.272643 
L 100.887273 147.272643 
L 104.494545 147.272643 
L 108.101818 147.272643 
L 111.709091 147.272643 
L 115.316364 147.272643 
L 118.923636 147.272643 
L 122.530909 147.272643 
L 126.138182 147.272643 
L 129.530642 148.992 
L 129.745455 149.127809 
L 133.352727 149.127809 
L 136.96 150.321391 
L 140.567273 150.321391 
L 143.670964 151.68 
L 144.174545 152.181283 
L 147.781818 152.181283 
L 148.598637 154.368 
L 148.598637 157.056 
L 148.598637 159.744 
L 148.598637 162.432 
L 148.598637 165.12 
L 148.598637 167.808 
L 148.598637 170.496 
L 148.598637 173.184 
L 148.598637 175.872 
L 148.598637 178.56 
L 148.598637 181.248 
L 148.598637 183.936 
L 148.738215 186.624 
L 148.738215 189.312 
L 148.738215 192 
L 148.738215 194.688 
L 148.738215 197.376 
L 148.738215 200.064 
L 148.738215 202.752 
L 148.738215 205.44 
L 148.738215 208.128 
L 148.738215 210.816 
L 148.90115 213.504 
L 148.90115 216.192 
L 148.90115 218.88 
L 148.90115 221.568 
L 148.90115 224.256 
L 150.582263 226.944 
L 150.920999 229.632 
L 150.920999 232.32 
L 150.920999 235.008 
L 150.920999 237.696 
L 150.920999 240.384 
L 150.920999 243.072 
L 150.920999 245.76 
L 150.920999 248.448 
L 150.920999 251.136 
L 150.920999 253.824 
L 150.920999 256.512 
L 150.920999 259.2 
L 150.920999 261.888 
L 150.920999 264.576 
L 150.920999 267.264 
L 150.920999 269.952 
L 150.920999 272.64 
L 150.920999 275.328 
L 150.920999 278.016 
L 150.920999 280.704 
L 150.920999 283.392 
L 150.920999 286.08 
L 150.920999 288.768 
L 150.920999 291.456 
L 150.920999 294.144 
L 150.920999 296.832 
L 150.920999 299.52 
L 150.920999 302.208 
L 150.920999 304.896 
L 150.920999 307.584 
z
" clip-path="url(#p34bf51e622)" style="fill: #2e6e8e; fill-opacity: 0.75"/>
    <path d="M 227.141818 307.584 
L 230.749091 307.584 
L 234.356364 307.584 
L 237.963636 307.584 
L 241.570909 307.584 
L 245.178182 307.584 
L 248.785455 307.584 
L 252.392727 307.584 
L 256 307.584 
L 259.607273 307.584 
L 263.214545 307.584 
L 266.821818 307.584 
L 270.429091 307.584 
L 274.036364 307.584 
L 277.643636 307.584 
L 281.250909 307.584 
L 284.858182 307.584 
L 288.465455 307.584 
L 292.072727 307.584 
L 295.68 307.584 
L 299.287273 307.584 
L 302.894545 307.584 
L 306.501818 307.584 
L 310.109091 307.584 
L 313.716364 307.584 
L 317.323636 307.584 
L 320.930909 307.584 
L 324.538182 307.584 
L 328.145455 307.584 
L 331.752727 307.584 
L 335.36 307.584 
L 338.967273 307.584 
L 342.574545 307.584 
L 346.181818 307.584 
L 349.789091 307.584 
L 353.396364 307.584 
L 357.003636 307.584 
L 360.610909 307.584 
L 364.218182 307.584 
L 367.825455 307.584 
L 371.432727 307.584 
L 375.04 307.584 
L 378.647273 307.584 
L 382.254545 307.584 
L 385.861818 307.584 
L 389.469091 307.584 
L 393.076364 307.584 
L 396.683636 307.584 
L 400.290909 307.584 
L 403.898182 307.584 
L 407.505455 307.584 
L 411.112727 307.584 
L 414.72 307.584 
L 414.72 304.896 
L 414.72 302.208 
L 414.72 299.52 
L 414.72 296.832 
L 414.72 294.144 
L 414.72 291.456 
L 414.72 288.768 
L 414.72 286.08 
L 414.72 283.392 
L 414.72 280.704 
L 414.72 278.016 
L 414.72 275.328 
L 414.72 272.64 
L 414.72 269.952 
L 414.72 267.264 
L 414.72 264.576 
L 414.72 261.888 
L 414.72 259.2 
L 414.72 256.512 
L 414.72 253.824 
L 414.72 251.136 
L 414.72 248.448 
L 414.72 245.76 
L 414.72 243.072 
L 414.72 240.384 
L 414.72 237.696 
L 414.72 235.008 
L 414.72 232.32 
L 414.72 229.632 
L 414.72 226.944 
L 414.72 225.46464 
L 411.112727 225.46464 
L 407.505455 225.46464 
L 403.898182 225.46464 
L 400.290909 225.46464 
L 396.683636 225.46464 
L 393.076364 225.46464 
L 389.469091 225.46464 
L 385.861818 225.46464 
L 382.254545 225.46464 
L 378.647273 225.46464 
L 375.04 225.46464 
L 371.432727 225.46464 
L 367.825455 225.46464 
L 364.218182 225.46464 
L 360.610909 225.46464 
L 357.003636 225.46464 
L 353.396364 225.46464 
L 349.789091 225.46464 
L 346.181818 225.46464 
L 342.574545 225.46464 
L 338.967273 225.46464 
L 335.36 225.46464 
L 331.752727 225.46464 
L 328.145455 225.46464 
L 324.538182 225.46464 
L 320.930909 225.46464 
L 317.323636 225.46464 
L 313.716364 225.46464 
L 310.109091 225.46464 
L 306.501818 225.46464 
L 302.894545 225.46464 
L 299.287273 225.46464 
L 295.68 225.46464 
L 292.072727 225.46464 
L 288.465455 225.46464 
L 284.858182 225.46464 
L 281.250909 225.46464 
L 277.643636 225.46464 
L 274.036364 225.46464 
L 270.429091 225.46464 
L 266.821818 225.46464 
L 263.214545 225.46464 
L 259.607273 225.46464 
L 256 225.46464 
L 252.392727 225.46464 
L 248.785455 225.46464 
L 245.178182 225.46464 
L 241.570909 225.46464 
L 237.963636 225.46464 
L 234.356364 225.46464 
L 230.749091 225.46464 
L 227.141818 225.46464 
L 224.927343 226.944 
L 224.116586 229.632 
L 224.116586 232.32 
L 224.116586 235.008 
L 224.116586 237.696 
L 224.116586 240.384 
L 224.116586 243.072 
L 224.116586 245.76 
L 224.116586 248.448 
L 224.116586 251.136 
L 224.116586 253.824 
L 224.116586 256.512 
L 224.116586 259.2 
L 224.116586 261.888 
L 224.116586 264.576 
L 224.116586 267.264 
L 224.116586 269.952 
L 224.116586 272.64 
L 224.116586 275.328 
L 224.116586 278.016 
L 224.116586 280.704 
L 224.116586 283.392 
L 224.116586 286.08 
L 224.116586 288.768 
L 224.116586 291.456 
L 224.116586 294.144 
L 224.116586 296.832 
L 224.116586 299.52 
L 224.116586 302.208 
L 224.116586 304.896 
L 224.116586 307.584 
z
" clip-path="url(#p34bf51e622)" style="fill: #2e6e8e; fill-opacity: 0.75"/>
   </g>
   <g id="PathCollection_4">
    <path d="M 205.498182 307.584 
L 209.105455 307.584 
L 212.712727 307.584 
L 216.32 307.584 
L 219.927273 307.584 
L 223.534545 307.584 
L 224.116586 307.584 
L 224.116586 304.896 
L 224.116586 302.208 
L 224.116586 299.52 
L 224.116586 296.832 
L 224.116586 294.144 
L 224.116586 291.456 
L 224.116586 288.768 
L 224.116586 286.08 
L 224.116586 283.392 
L 224.116586 280.704 
L 224.116586 278.016 
L 224.116586 275.328 
L 224.116586 272.64 
L 224.116586 269.952 
L 224.116586 267.264 
L 224.116586 264.576 
L 224.116586 261.888 
L 224.116586 259.2 
L 224.116586 256.512 
L 224.116586 253.824 
L 224.116586 251.136 
L 224.116586 248.448 
L 224.116586 245.76 
L 224.116586 243.072 
L 224.116586 240.384 
L 224.116586 237.696 
L 224.116586 235.008 
L 224.116586 232.32 
L 224.116586 229.632 
L 224.927343 226.944 
L 227.141818 225.46464 
L 230.749091 225.46464 
L 234.356364 225.46464 
L 237.963636 225.46464 
L 241.570909 225.46464 
L 245.178182 225.46464 
L 248.785455 225.46464 
L 252.392727 225.46464 
L 256 225.46464 
L 259.607273 225.46464 
L 263.214545 225.46464 
L 266.821818 225.46464 
L 270.429091 225.46464 
L 274.036364 225.46464 
L 277.643636 225.46464 
L 281.250909 225.46464 
L 284.858182 225.46464 
L 288.465455 225.46464 
L 292.072727 225.46464 
L 295.68 225.46464 
L 299.287273 225.46464 
L 302.894545 225.46464 
L 306.501818 225.46464 
L 310.109091 225.46464 
L 313.716364 225.46464 
L 317.323636 225.46464 
L 320.930909 225.46464 
L 324.538182 225.46464 
L 328.145455 225.46464 
L 331.752727 225.46464 
L 335.36 225.46464 
L 338.967273 225.46464 
L 342.574545 225.46464 
L 346.181818 225.46464 
L 349.789091 225.46464 
L 353.396364 225.46464 
L 357.003636 225.46464 
L 360.610909 225.46464 
L 364.218182 225.46464 
L 367.825455 225.46464 
L 371.432727 225.46464 
L 375.04 225.46464 
L 378.647273 225.46464 
L 382.254545 225.46464 
L 385.861818 225.46464 
L 389.469091 225.46464 
L 393.076364 225.46464 
L 396.683636 225.46464 
L 400.290909 225.46464 
L 403.898182 225.46464 
L 407.505455 225.46464 
L 411.112727 225.46464 
L 414.72 225.46464 
L 414.72 224.256 
L 414.72 221.568 
L 414.72 218.88 
L 414.72 216.192 
L 414.72 213.504 
L 414.72 210.816 
L 414.72 208.128 
L 414.72 205.44 
L 414.72 202.752 
L 414.72 200.064 
L 414.72 197.376 
L 414.72 194.688 
L 414.72 192 
L 414.72 189.312 
L 414.72 186.624 
L 414.72 183.936 
L 414.72 181.248 
L 414.72 178.56 
L 414.72 175.872 
L 414.72 173.184 
L 414.72 170.496 
L 414.72 167.808 
L 414.72 165.12 
L 414.72 162.432 
L 414.72 159.744 
L 414.72 157.056 
L 414.72 154.368 
L 414.72 151.68 
L 414.72 149.321321 
L 411.112727 149.321321 
L 407.505455 149.321321 
L 403.898182 149.321321 
L 400.290909 149.321321 
L 396.683636 149.321321 
L 393.076364 149.321321 
L 389.469091 149.321321 
L 385.861818 149.321321 
L 382.254545 149.321321 
L 378.647273 149.321321 
L 375.04 149.321321 
L 371.432727 149.321321 
L 367.825455 149.321321 
L 364.218182 149.321321 
L 360.610909 149.321321 
L 357.003636 149.321321 
L 353.396364 149.321321 
L 349.789091 149.321321 
L 346.181818 149.321321 
L 342.574545 149.321321 
L 338.967273 149.321321 
L 335.36 149.321321 
L 331.752727 149.321321 
L 328.145455 149.321321 
L 324.538182 149.321321 
L 320.930909 149.321321 
L 317.323636 149.321321 
L 313.716364 149.321321 
L 310.109091 149.321321 
L 306.501818 149.321321 
L 302.894545 149.321321 
L 299.287273 149.321321 
L 295.68 149.321321 
L 292.072727 149.321321 
L 288.465455 149.321321 
L 284.858182 149.321321 
L 281.250909 149.321321 
L 277.643636 149.321321 
L 274.036364 149.321321 
L 270.429091 149.321321 
L 266.821818 149.321321 
L 263.214545 149.321321 
L 259.607273 149.321321 
L 256 149.321321 
L 252.392727 149.321321 
L 248.785455 149.321321 
L 245.178182 149.321321 
L 241.570909 149.321321 
L 237.963636 149.321321 
L 234.356364 149.321321 
L 230.749091 149.321321 
L 227.141818 149.321321 
L 223.534545 151.095588 
L 219.927273 151.095588 
L 216.32 151.095588 
L 212.712727 151.095588 
L 209.105455 151.095588 
L 205.498182 151.095588 
L 201.890909 150.741997 
L 198.283636 150.741997 
L 194.676364 150.741997 
L 191.069091 150.741997 
L 187.461818 150.741997 
L 183.854545 150.741997 
L 180.247273 150.741997 
L 176.64 150.278757 
L 174.211766 148.992 
L 173.032727 148.49114 
L 169.425455 148.49114 
L 165.818182 148.49114 
L 162.210909 148.0806 
L 158.603636 147.053324 
L 154.996364 147.053324 
L 151.389091 147.053324 
L 150.595096 146.304 
L 150.595096 143.616 
L 149.834499 140.928 
L 149.834499 138.24 
L 149.834499 135.552 
L 149.834499 132.864 
L 149.834499 130.176 
L 149.637275 127.488 
L 147.85647 124.8 
L 147.85647 122.112 
L 147.85647 119.424 
L 147.85647 116.736 
L 147.85647 114.048 
L 147.85647 111.36 
L 147.781818 110.465803 
L 144.174545 110.465803 
L 143.771798 108.672 
L 143.771798 105.984 
L 143.771798 103.296 
L 143.771798 100.608 
L 141.353856 97.92 
L 140.567273 97.170438 
L 136.96 97.170438 
L 134.268888 95.232 
L 134.268888 92.544 
L 134.268888 89.856 
L 134.268888 87.168 
L 134.268888 84.48 
L 134.268888 81.792 
L 133.352727 81.282419 
L 129.745455 81.282419 
L 127.695687 79.104 
L 127.695687 76.416 
L 127.695687 73.728 
L 127.695687 71.04 
L 127.695687 68.352 
L 127.695687 65.664 
L 127.695687 62.976 
L 127.695687 60.288 
L 127.695687 57.6 
L 127.695687 54.912 
L 127.695687 52.224 
L 127.695687 49.536 
L 127.695687 46.848 
L 127.695687 44.16 
L 127.695687 41.472 
L 126.138182 41.472 
L 122.530909 41.472 
L 118.923636 41.472 
L 115.316364 41.472 
L 111.709091 41.472 
L 108.101818 41.472 
L 104.494545 41.472 
L 100.887273 41.472 
L 97.28 41.472 
L 93.672727 41.472 
L 90.065455 41.472 
L 86.458182 41.472 
L 82.850909 41.472 
L 79.243636 41.472 
L 75.636364 41.472 
L 72.029091 41.472 
L 68.421818 41.472 
L 64.814545 41.472 
L 61.207273 41.472 
L 57.6 41.472 
L 57.6 44.16 
L 57.6 46.848 
L 57.6 49.536 
L 57.6 52.224 
L 57.6 54.912 
L 57.6 57.6 
L 57.6 60.288 
L 57.6 62.976 
L 57.6 65.664 
L 57.6 68.352 
L 57.6 71.04 
L 57.6 73.728 
L 57.6 76.416 
L 57.6 79.104 
L 57.6 81.792 
L 57.6 84.48 
L 57.6 87.168 
L 57.6 89.856 
L 57.6 92.544 
L 57.6 95.232 
L 57.6 97.92 
L 57.6 100.378963 
L 61.207273 100.378963 
L 64.814545 100.378963 
L 68.421818 100.378963 
L 72.029091 100.378963 
L 75.636364 100.378963 
L 79.243636 100.378963 
L 82.850909 100.378963 
L 86.458182 100.378963 
L 90.065455 100.378963 
L 93.672727 100.378963 
L 97.28 100.378963 
L 100.887273 100.378963 
L 104.494545 100.378963 
L 108.101818 100.378963 
L 111.709091 100.378963 
L 115.316364 100.378963 
L 118.923636 100.378963 
L 122.530909 100.378963 
L 126.138182 100.378963 
L 126.280831 100.608 
L 126.280831 103.296 
L 126.280831 105.984 
L 126.280831 108.672 
L 126.698694 111.36 
L 126.698694 114.048 
L 126.698694 116.736 
L 126.698694 119.424 
L 126.698694 122.112 
L 126.698694 124.8 
L 129.745455 127.269736 
L 133.352727 127.269736 
L 133.867203 127.488 
L 134.56891 130.176 
L 134.56891 132.864 
L 134.56891 135.552 
L 134.56891 138.24 
L 134.56891 140.928 
L 136.96 143.303062 
L 140.567273 143.303062 
L 140.805415 143.616 
L 140.805415 146.304 
L 144.174545 147.486269 
L 147.781818 147.486269 
L 149.377314 148.992 
L 151.389091 151.360368 
L 154.996364 151.360368 
L 158.603636 151.360368 
L 159.503393 151.68 
L 162.210909 153.867229 
L 163.76204 154.368 
L 163.76204 157.056 
L 163.76204 159.744 
L 163.76204 162.432 
L 163.76204 165.12 
L 163.76204 167.808 
L 163.76204 170.496 
L 163.76204 173.184 
L 163.76204 175.872 
L 163.76204 178.56 
L 163.76204 181.248 
L 163.76204 183.936 
L 164.919468 186.624 
L 164.919468 189.312 
L 164.919468 192 
L 164.919468 194.688 
L 164.919468 197.376 
L 164.919468 200.064 
L 164.919468 202.752 
L 164.919468 205.44 
L 164.919468 208.128 
L 164.919468 210.816 
L 165.818182 212.60397 
L 169.425455 212.60397 
L 173.032727 212.60397 
L 173.153928 213.504 
L 173.153928 216.192 
L 173.153928 218.88 
L 173.153928 221.568 
L 173.153928 224.256 
L 176.64 226.765028 
L 177.666113 226.944 
L 180.247273 229.178293 
L 183.854545 229.178293 
L 187.461818 229.178293 
L 191.069091 229.178293 
L 194.676364 229.178293 
L 198.283636 229.178293 
L 201.890909 229.178293 
L 202.57759 229.632 
L 202.57759 232.32 
L 202.57759 235.008 
L 202.57759 237.696 
L 202.57759 240.384 
L 202.57759 243.072 
L 202.57759 245.76 
L 202.57759 248.448 
L 202.57759 251.136 
L 202.57759 253.824 
L 202.57759 256.512 
L 202.57759 259.2 
L 202.57759 261.888 
L 202.57759 264.576 
L 202.57759 267.264 
L 202.57759 269.952 
L 202.57759 272.64 
L 202.57759 275.328 
L 202.57759 278.016 
L 202.57759 280.704 
L 202.57759 283.392 
L 202.57759 286.08 
L 202.57759 288.768 
L 202.57759 291.456 
L 202.57759 294.144 
L 202.57759 296.832 
L 202.57759 299.52 
L 202.57759 302.208 
L 202.57759 304.896 
L 202.57759 307.584 
z
" clip-path="url(#p34bf51e622)" style="fill: #21918c; fill-opacity: 0.75"/>
   </g>
   <g id="PathCollection_5">
    <path d="M 176.64 150.278757 
L 180.247273 150.741997 
L 183.854545 150.741997 
L 187.461818 150.741997 
L 191.069091 150.741997 
L 194.676364 150.741997 
L 198.283636 150.741997 
L 201.890909 150.741997 
L 205.498182 151.095588 
L 209.105455 151.095588 
L 212.712727 151.095588 
L 216.32 151.095588 
L 219.927273 151.095588 
L 223.534545 151.095588 
L 227.141818 149.321321 
L 230.749091 149.321321 
L 234.356364 149.321321 
L 237.963636 149.321321 
L 241.570909 149.321321 
L 245.178182 149.321321 
L 248.785455 149.321321 
L 252.392727 149.321321 
L 256 149.321321 
L 259.607273 149.321321 
L 263.214545 149.321321 
L 266.821818 149.321321 
L 270.429091 149.321321 
L 274.036364 149.321321 
L 277.643636 149.321321 
L 281.250909 149.321321 
L 284.858182 149.321321 
L 288.465455 149.321321 
L 292.072727 149.321321 
L 295.68 149.321321 
L 299.287273 149.321321 
L 302.894545 149.321321 
L 306.501818 149.321321 
L 310.109091 149.321321 
L 313.716364 149.321321 
L 317.323636 149.321321 
L 320.930909 149.321321 
L 324.538182 149.321321 
L 328.145455 149.321321 
L 331.752727 149.321321 
L 335.36 149.321321 
L 338.967273 149.321321 
L 342.574545 149.321321 
L 346.181818 149.321321 
L 349.789091 149.321321 
L 353.396364 149.321321 
L 357.003636 149.321321 
L 360.610909 149.321321 
L 364.218182 149.321321 
L 367.825455 149.321321 
L 371.432727 149.321321 
L 375.04 149.321321 
L 378.647273 149.321321 
L 382.254545 149.321321 
L 385.861818 149.321321 
L 389.469091 149.321321 
L 393.076364 149.321321 
L 396.683636 149.321321 
L 400.290909 149.321321 
L 403.898182 149.321321 
L 407.505455 149.321321 
L 411.112727 149.321321 
L 414.72 149.321321 
L 414.72 148.992 
L 414.72 146.304 
L 414.72 143.616 
L 414.72 140.928 
L 414.72 138.24 
L 414.72 135.552 
L 414.72 132.864 
L 414.72 130.176 
L 414.72 127.75753 
L 411.112727 127.75753 
L 407.505455 127.75753 
L 403.898182 127.75753 
L 400.290909 127.75753 
L 396.683636 127.75753 
L 393.076364 127.75753 
L 389.469091 127.75753 
L 385.861818 127.75753 
L 382.254545 127.75753 
L 378.647273 127.75753 
L 375.04 127.75753 
L 371.432727 127.75753 
L 367.825455 127.75753 
L 364.218182 127.75753 
L 360.610909 127.75753 
L 357.003636 127.75753 
L 353.396364 127.75753 
L 349.789091 127.75753 
L 346.181818 127.75753 
L 342.574545 127.75753 
L 338.967273 127.75753 
L 335.36 127.75753 
L 331.752727 127.75753 
L 328.145455 127.75753 
L 324.538182 127.75753 
L 320.930909 127.75753 
L 317.323636 127.75753 
L 313.716364 127.75753 
L 310.109091 127.75753 
L 306.501818 127.75753 
L 302.894545 127.75753 
L 299.287273 127.75753 
L 295.68 127.75753 
L 292.072727 127.75753 
L 288.465455 127.75753 
L 284.858182 127.75753 
L 281.250909 127.75753 
L 277.643636 127.75753 
L 274.036364 127.75753 
L 270.429091 127.75753 
L 266.821818 127.75753 
L 263.214545 127.75753 
L 259.607273 127.75753 
L 256 127.75753 
L 252.392727 127.75753 
L 248.785455 127.75753 
L 245.178182 127.75753 
L 241.570909 127.75753 
L 237.963636 127.75753 
L 234.356364 127.75753 
L 230.749091 127.75753 
L 227.141818 127.75753 
L 226.717101 130.176 
L 226.717101 132.864 
L 226.717101 135.552 
L 226.717101 138.24 
L 226.717101 140.928 
L 224.89663 143.616 
L 224.89663 146.304 
L 223.534545 146.841064 
L 219.927273 146.841064 
L 216.32 146.841064 
L 212.712727 146.841064 
L 209.105455 146.841064 
L 205.498182 146.841064 
L 201.890909 146.55761 
L 198.283636 146.55761 
L 194.676364 146.55761 
L 191.069091 146.55761 
L 187.461818 146.55761 
L 183.854545 146.55761 
L 180.247273 146.55761 
L 177.78375 146.304 
L 177.78375 143.616 
L 176.64 143.175076 
L 175.227443 140.928 
L 175.227443 138.24 
L 175.227443 135.552 
L 175.227443 132.864 
L 175.227443 130.176 
L 174.789293 127.488 
L 173.032727 126.294523 
L 169.425455 126.294523 
L 165.818182 126.294523 
L 162.210909 125.637901 
L 160.371308 124.8 
L 160.371308 122.112 
L 160.371308 119.424 
L 160.371308 116.736 
L 160.371308 114.048 
L 160.371308 111.36 
L 159.627643 108.672 
L 159.627643 105.984 
L 159.627643 103.296 
L 159.627643 100.608 
L 158.603636 99.684162 
L 154.996364 99.684162 
L 151.389091 99.684162 
L 150.799023 97.92 
L 149.750174 95.232 
L 149.750174 92.544 
L 149.750174 89.856 
L 149.750174 87.168 
L 149.750174 84.48 
L 149.750174 81.792 
L 148.391886 79.104 
L 148.391886 76.416 
L 148.391886 73.728 
L 148.391886 71.04 
L 148.391886 68.352 
L 148.391886 65.664 
L 148.391886 62.976 
L 148.391886 60.288 
L 148.391886 57.6 
L 148.391886 54.912 
L 148.391886 52.224 
L 148.391886 49.536 
L 148.391886 46.848 
L 148.391886 44.16 
L 148.391886 41.472 
L 147.781818 41.472 
L 144.174545 41.472 
L 140.567273 41.472 
L 136.96 41.472 
L 133.352727 41.472 
L 129.745455 41.472 
L 127.695687 41.472 
L 127.695687 44.16 
L 127.695687 46.848 
L 127.695687 49.536 
L 127.695687 52.224 
L 127.695687 54.912 
L 127.695687 57.6 
L 127.695687 60.288 
L 127.695687 62.976 
L 127.695687 65.664 
L 127.695687 68.352 
L 127.695687 71.04 
L 127.695687 73.728 
L 127.695687 76.416 
L 127.695687 79.104 
L 129.745455 81.282419 
L 133.352727 81.282419 
L 134.268888 81.792 
L 134.268888 84.48 
L 134.268888 87.168 
L 134.268888 89.856 
L 134.268888 92.544 
L 134.268888 95.232 
L 136.96 97.170438 
L 140.567273 97.170438 
L 141.353856 97.92 
L 143.771798 100.608 
L 143.771798 103.296 
L 143.771798 105.984 
L 143.771798 108.672 
L 144.174545 110.465803 
L 147.781818 110.465803 
L 147.85647 111.36 
L 147.85647 114.048 
L 147.85647 116.736 
L 147.85647 119.424 
L 147.85647 122.112 
L 147.85647 124.8 
L 149.637275 127.488 
L 149.834499 130.176 
L 149.834499 132.864 
L 149.834499 135.552 
L 149.834499 138.24 
L 149.834499 140.928 
L 150.595096 143.616 
L 150.595096 146.304 
L 151.389091 147.053324 
L 154.996364 147.053324 
L 158.603636 147.053324 
L 162.210909 148.0806 
L 165.818182 148.49114 
L 169.425455 148.49114 
L 173.032727 148.49114 
L 174.211766 148.992 
z
" clip-path="url(#p34bf51e622)" style="fill: #2db27d; fill-opacity: 0.75"/>
   </g>
   <g id="PathCollection_6">
    <path d="M 180.247273 146.55761 
L 183.854545 146.55761 
L 187.461818 146.55761 
L 191.069091 146.55761 
L 194.676364 146.55761 
L 198.283636 146.55761 
L 201.890909 146.55761 
L 205.498182 146.841064 
L 209.105455 146.841064 
L 212.712727 146.841064 
L 216.32 146.841064 
L 219.927273 146.841064 
L 223.534545 146.841064 
L 224.89663 146.304 
L 224.89663 143.616 
L 226.717101 140.928 
L 226.717101 138.24 
L 226.717101 135.552 
L 226.717101 132.864 
L 226.717101 130.176 
L 227.141818 127.75753 
L 230.749091 127.75753 
L 234.356364 127.75753 
L 237.963636 127.75753 
L 241.570909 127.75753 
L 245.178182 127.75753 
L 248.785455 127.75753 
L 252.392727 127.75753 
L 256 127.75753 
L 259.607273 127.75753 
L 263.214545 127.75753 
L 266.821818 127.75753 
L 270.429091 127.75753 
L 274.036364 127.75753 
L 277.643636 127.75753 
L 281.250909 127.75753 
L 284.858182 127.75753 
L 288.465455 127.75753 
L 292.072727 127.75753 
L 295.68 127.75753 
L 299.287273 127.75753 
L 302.894545 127.75753 
L 306.501818 127.75753 
L 310.109091 127.75753 
L 313.716364 127.75753 
L 317.323636 127.75753 
L 320.930909 127.75753 
L 324.538182 127.75753 
L 328.145455 127.75753 
L 331.752727 127.75753 
L 335.36 127.75753 
L 338.967273 127.75753 
L 342.574545 127.75753 
L 346.181818 127.75753 
L 349.789091 127.75753 
L 353.396364 127.75753 
L 357.003636 127.75753 
L 360.610909 127.75753 
L 364.218182 127.75753 
L 367.825455 127.75753 
L 371.432727 127.75753 
L 375.04 127.75753 
L 378.647273 127.75753 
L 382.254545 127.75753 
L 385.861818 127.75753 
L 389.469091 127.75753 
L 393.076364 127.75753 
L 396.683636 127.75753 
L 400.290909 127.75753 
L 403.898182 127.75753 
L 407.505455 127.75753 
L 411.112727 127.75753 
L 414.72 127.75753 
L 414.72 127.488 
L 414.72 124.8 
L 414.72 122.112 
L 414.72 119.424 
L 414.72 116.736 
L 414.72 114.048 
L 414.72 111.36 
L 414.72 108.672 
L 414.72 105.984 
L 414.72 103.296 
L 414.72 100.608 
L 414.72 97.92 
L 414.72 95.232 
L 414.72 92.544 
L 414.72 89.856 
L 414.72 87.168 
L 414.72 84.48 
L 414.72 81.792 
L 414.72 81.607714 
L 411.112727 81.607714 
L 407.505455 81.607714 
L 403.898182 81.607714 
L 400.290909 81.607714 
L 396.683636 81.607714 
L 393.076364 81.607714 
L 389.469091 81.607714 
L 385.861818 81.607714 
L 382.254545 81.607714 
L 378.647273 81.607714 
L 375.04 81.607714 
L 371.432727 81.607714 
L 367.825455 81.607714 
L 364.218182 81.607714 
L 360.610909 81.607714 
L 357.003636 81.607714 
L 353.396364 81.607714 
L 349.789091 81.607714 
L 346.181818 81.607714 
L 342.574545 81.607714 
L 338.967273 81.607714 
L 335.36 81.607714 
L 331.752727 81.607714 
L 328.145455 81.607714 
L 324.538182 81.607714 
L 320.930909 81.607714 
L 317.323636 81.607714 
L 313.716364 81.607714 
L 310.109091 81.607714 
L 306.501818 81.607714 
L 302.894545 81.607714 
L 299.287273 81.607714 
L 295.68 81.607714 
L 292.072727 81.607714 
L 288.465455 81.607714 
L 284.858182 81.607714 
L 281.250909 81.607714 
L 277.643636 81.607714 
L 274.036364 81.607714 
L 270.429091 81.607714 
L 266.821818 81.607714 
L 263.214545 81.607714 
L 259.607273 81.607714 
L 256 81.607714 
L 252.392727 81.607714 
L 248.785455 81.607714 
L 245.178182 81.607714 
L 241.570909 81.607714 
L 237.963636 81.607714 
L 234.356364 81.607714 
L 230.749091 81.607714 
L 227.141818 81.607714 
L 226.918931 81.792 
L 226.918931 84.48 
L 226.918931 87.168 
L 226.918931 89.856 
L 226.918931 92.544 
L 226.918931 95.232 
L 224.408532 97.92 
L 223.534545 99.011723 
L 219.927273 99.011723 
L 216.32 99.011723 
L 212.712727 99.011723 
L 209.105455 99.011723 
L 205.498182 99.011723 
L 201.890909 98.113739 
L 198.283636 98.113739 
L 194.676364 98.113739 
L 191.069091 98.113739 
L 187.461818 98.113739 
L 183.854545 98.113739 
L 180.247273 98.113739 
L 179.653224 97.92 
L 176.64 97.077626 
L 175.040107 95.232 
L 175.040107 92.544 
L 175.040107 89.856 
L 175.040107 87.168 
L 175.040107 84.48 
L 175.040107 81.792 
L 173.032727 80.003851 
L 169.425455 80.003851 
L 165.818182 80.003851 
L 162.210909 79.142976 
L 162.14564 79.104 
L 162.14564 76.416 
L 162.14564 73.728 
L 162.14564 71.04 
L 162.14564 68.352 
L 162.14564 65.664 
L 162.14564 62.976 
L 162.14564 60.288 
L 162.14564 57.6 
L 162.14564 54.912 
L 162.14564 52.224 
L 162.14564 49.536 
L 162.14564 46.848 
L 162.14564 44.16 
L 162.14564 41.472 
L 158.603636 41.472 
L 154.996364 41.472 
L 151.389091 41.472 
L 148.391886 41.472 
L 148.391886 44.16 
L 148.391886 46.848 
L 148.391886 49.536 
L 148.391886 52.224 
L 148.391886 54.912 
L 148.391886 57.6 
L 148.391886 60.288 
L 148.391886 62.976 
L 148.391886 65.664 
L 148.391886 68.352 
L 148.391886 71.04 
L 148.391886 73.728 
L 148.391886 76.416 
L 148.391886 79.104 
L 149.750174 81.792 
L 149.750174 84.48 
L 149.750174 87.168 
L 149.750174 89.856 
L 149.750174 92.544 
L 149.750174 95.232 
L 150.799023 97.92 
L 151.389091 99.684162 
L 154.996364 99.684162 
L 158.603636 99.684162 
L 159.627643 100.608 
L 159.627643 103.296 
L 159.627643 105.984 
L 159.627643 108.672 
L 160.371308 111.36 
L 160.371308 114.048 
L 160.371308 116.736 
L 160.371308 119.424 
L 160.371308 122.112 
L 160.371308 124.8 
L 162.210909 125.637901 
L 165.818182 126.294523 
L 169.425455 126.294523 
L 173.032727 126.294523 
L 174.789293 127.488 
L 175.227443 130.176 
L 175.227443 132.864 
L 175.227443 135.552 
L 175.227443 138.24 
L 175.227443 140.928 
L 176.64 143.175076 
L 177.78375 143.616 
L 177.78375 146.304 
z
" clip-path="url(#p34bf51e622)" style="fill: #73d056; fill-opacity: 0.75"/>
   </g>
   <g id="PathCollection_7">
    <path d="M 180.247273 98.113739 
L 183.854545 98.113739 
L 187.461818 98.113739 
L 191.069091 98.113739 
L 194.676364 98.113739 
L 198.283636 98.113739 
L 201.890909 98.113739 
L 205.498182 99.011723 
L 209.105455 99.011723 
L 212.712727 99.011723 
L 216.32 99.011723 
L 219.927273 99.011723 
L 223.534545 99.011723 
L 224.408532 97.92 
L 226.918931 95.232 
L 226.918931 92.544 
L 226.918931 89.856 
L 226.918931 87.168 
L 226.918931 84.48 
L 226.918931 81.792 
L 227.141818 81.607714 
L 230.749091 81.607714 
L 234.356364 81.607714 
L 237.963636 81.607714 
L 241.570909 81.607714 
L 245.178182 81.607714 
L 248.785455 81.607714 
L 252.392727 81.607714 
L 256 81.607714 
L 259.607273 81.607714 
L 263.214545 81.607714 
L 266.821818 81.607714 
L 270.429091 81.607714 
L 274.036364 81.607714 
L 277.643636 81.607714 
L 281.250909 81.607714 
L 284.858182 81.607714 
L 288.465455 81.607714 
L 292.072727 81.607714 
L 295.68 81.607714 
L 299.287273 81.607714 
L 302.894545 81.607714 
L 306.501818 81.607714 
L 310.109091 81.607714 
L 313.716364 81.607714 
L 317.323636 81.607714 
L 320.930909 81.607714 
L 324.538182 81.607714 
L 328.145455 81.607714 
L 331.752727 81.607714 
L 335.36 81.607714 
L 338.967273 81.607714 
L 342.574545 81.607714 
L 346.181818 81.607714 
L 349.789091 81.607714 
L 353.396364 81.607714 
L 357.003636 81.607714 
L 360.610909 81.607714 
L 364.218182 81.607714 
L 367.825455 81.607714 
L 371.432727 81.607714 
L 375.04 81.607714 
L 378.647273 81.607714 
L 382.254545 81.607714 
L 385.861818 81.607714 
L 389.469091 81.607714 
L 393.076364 81.607714 
L 396.683636 81.607714 
L 400.290909 81.607714 
L 403.898182 81.607714 
L 407.505455 81.607714 
L 411.112727 81.607714 
L 414.72 81.607714 
L 414.72 79.104 
L 414.72 76.416 
L 414.72 73.728 
L 414.72 71.04 
L 414.72 68.352 
L 414.72 65.664 
L 414.72 62.976 
L 414.72 60.288 
L 414.72 57.6 
L 414.72 54.912 
L 414.72 52.224 
L 414.72 49.536 
L 414.72 46.848 
L 414.72 44.16 
L 414.72 41.472 
L 411.112727 41.472 
L 407.505455 41.472 
L 403.898182 41.472 
L 400.290909 41.472 
L 396.683636 41.472 
L 393.076364 41.472 
L 389.469091 41.472 
L 385.861818 41.472 
L 382.254545 41.472 
L 378.647273 41.472 
L 375.04 41.472 
L 371.432727 41.472 
L 367.825455 41.472 
L 364.218182 41.472 
L 360.610909 41.472 
L 357.003636 41.472 
L 353.396364 41.472 
L 349.789091 41.472 
L 346.181818 41.472 
L 342.574545 41.472 
L 338.967273 41.472 
L 335.36 41.472 
L 331.752727 41.472 
L 328.145455 41.472 
L 324.538182 41.472 
L 320.930909 41.472 
L 317.323636 41.472 
L 313.716364 41.472 
L 310.109091 41.472 
L 306.501818 41.472 
L 302.894545 41.472 
L 299.287273 41.472 
L 295.68 41.472 
L 292.072727 41.472 
L 288.465455 41.472 
L 284.858182 41.472 
L 281.250909 41.472 
L 277.643636 41.472 
L 274.036364 41.472 
L 270.429091 41.472 
L 266.821818 41.472 
L 263.214545 41.472 
L 259.607273 41.472 
L 256 41.472 
L 252.392727 41.472 
L 248.785455 41.472 
L 245.178182 41.472 
L 241.570909 41.472 
L 237.963636 41.472 
L 234.356364 41.472 
L 230.749091 41.472 
L 227.141818 41.472 
L 223.534545 41.472 
L 219.927273 41.472 
L 216.32 41.472 
L 212.712727 41.472 
L 209.105455 41.472 
L 205.498182 41.472 
L 201.890909 41.472 
L 198.283636 41.472 
L 194.676364 41.472 
L 191.069091 41.472 
L 187.461818 41.472 
L 183.854545 41.472 
L 180.247273 41.472 
L 176.64 41.472 
L 173.032727 41.472 
L 169.425455 41.472 
L 165.818182 41.472 
L 162.210909 41.472 
L 162.14564 41.472 
L 162.14564 44.16 
L 162.14564 46.848 
L 162.14564 49.536 
L 162.14564 52.224 
L 162.14564 54.912 
L 162.14564 57.6 
L 162.14564 60.288 
L 162.14564 62.976 
L 162.14564 65.664 
L 162.14564 68.352 
L 162.14564 71.04 
L 162.14564 73.728 
L 162.14564 76.416 
L 162.14564 79.104 
L 162.210909 79.142976 
L 165.818182 80.003851 
L 169.425455 80.003851 
L 173.032727 80.003851 
L 175.040107 81.792 
L 175.040107 84.48 
L 175.040107 87.168 
L 175.040107 89.856 
L 175.040107 92.544 
L 175.040107 95.232 
L 176.64 97.077626 
L 179.653224 97.92 
z
" clip-path="url(#p34bf51e622)" style="fill: #d0e11c; fill-opacity: 0.75"/>
   </g>
   <g id="matplotlib.axis_1">
    <g id="xtick_1">
     <g id="line2d_1">
      <defs>
       <path id="m9ef398d64b" d="M 0 0 
L 0 3.5 
" style="stroke: #000000; stroke-width: 0.8"/>
      </defs>
      <g>
       <use xlink:href="#m9ef398d64b" x="117.804183" y="307.584" style="stroke: #000000; stroke-width: 0.8"/>
      </g>
     </g>
     <g id="text_1">
      <!-- 5 -->
      <g transform="translate(114.622933 322.182437) scale(0.1 -0.1)">
       <defs>
        <path id="DejaVuSans-35" d="M 691 4666 
L 3169 4666 
L 3169 4134 
L 1269 4134 
L 1269 2991 
Q 1406 3038 1543 3061 
Q 1681 3084 1819 3084 
Q 2600 3084 3056 2656 
Q 3513 2228 3513 1497 
Q 3513 744 3044 326 
Q 2575 -91 1722 -91 
Q 1428 -91 1123 -41 
Q 819 9 494 109 
L 494 744 
Q 775 591 1075 516 
Q 1375 441 1709 441 
Q 2250 441 2565 725 
Q 2881 1009 2881 1497 
Q 2881 1984 2565 2268 
Q 2250 2553 1709 2553 
Q 1456 2553 1204 2497 
Q 953 2441 691 2322 
L 691 4666 
z
" transform="scale(0.015625)"/>
       </defs>
       <use xlink:href="#DejaVuSans-35"/>
      </g>
     </g>
    </g>
    <g id="xtick_2">
     <g id="line2d_2">
      <g>
       <use xlink:href="#m9ef398d64b" x="191.10949" y="307.584" style="stroke: #000000; stroke-width: 0.8"/>
      </g>
     </g>
     <g id="text_2">
      <!-- 10 -->
      <g transform="translate(184.74699 322.182437) scale(0.1 -0.1)">
       <defs>
        <path id="DejaVuSans-31" d="M 794 531 
L 1825 531 
L 1825 4091 
L 703 3866 
L 703 4441 
L 1819 4666 
L 2450 4666 
L 2450 531 
L 3481 531 
L 3481 0 
L 794 0 
L 794 531 
z
" transform="scale(0.015625)"/>
        <path id="DejaVuSans-30" d="M 2034 4250 
Q 1547 4250 1301 3770 
Q 1056 3291 1056 2328 
Q 1056 1369 1301 889 
Q 1547 409 2034 409 
Q 2525 409 2770 889 
Q 3016 1369 3016 2328 
Q 3016 3291 2770 3770 
Q 2525 4250 2034 4250 
z
M 2034 4750 
Q 2819 4750 3233 4129 
Q 3647 3509 3647 2328 
Q 3647 1150 3233 529 
Q 2819 -91 2034 -91 
Q 1250 -91 836 529 
Q 422 1150 422 2328 
Q 422 3509 836 4129 
Q 1250 4750 2034 4750 
z
" transform="scale(0.015625)"/>
       </defs>
       <use xlink:href="#DejaVuSans-31"/>
       <use xlink:href="#DejaVuSans-30" x="63.623047"/>
      </g>
     </g>
    </g>
    <g id="xtick_3">
     <g id="line2d_3">
      <g>
       <use xlink:href="#m9ef398d64b" x="264.414798" y="307.584" style="stroke: #000000; stroke-width: 0.8"/>
      </g>
     </g>
     <g id="text_3">
      <!-- 15 -->
      <g transform="translate(258.052298 322.182437) scale(0.1 -0.1)">
       <use xlink:href="#DejaVuSans-31"/>
       <use xlink:href="#DejaVuSans-35" x="63.623047"/>
      </g>
     </g>
    </g>
    <g id="xtick_4">
     <g id="line2d_4">
      <g>
       <use xlink:href="#m9ef398d64b" x="337.720105" y="307.584" style="stroke: #000000; stroke-width: 0.8"/>
      </g>
     </g>
     <g id="text_4">
      <!-- 20 -->
      <g transform="translate(331.357605 322.182437) scale(0.1 -0.1)">
       <defs>
        <path id="DejaVuSans-32" d="M 1228 531 
L 3431 531 
L 3431 0 
L 469 0 
L 469 531 
Q 828 903 1448 1529 
Q 2069 2156 2228 2338 
Q 2531 2678 2651 2914 
Q 2772 3150 2772 3378 
Q 2772 3750 2511 3984 
Q 2250 4219 1831 4219 
Q 1534 4219 1204 4116 
Q 875 4013 500 3803 
L 500 4441 
Q 881 4594 1212 4672 
Q 1544 4750 1819 4750 
Q 2544 4750 2975 4387 
Q 3406 4025 3406 3419 
Q 3406 3131 3298 2873 
Q 3191 2616 2906 2266 
Q 2828 2175 2409 1742 
Q 1991 1309 1228 531 
z
" transform="scale(0.015625)"/>
       </defs>
       <use xlink:href="#DejaVuSans-32"/>
       <use xlink:href="#DejaVuSans-30" x="63.623047"/>
      </g>
     </g>
    </g>
    <g id="xtick_5">
     <g id="line2d_5">
      <g>
       <use xlink:href="#m9ef398d64b" x="411.025413" y="307.584" style="stroke: #000000; stroke-width: 0.8"/>
      </g>
     </g>
     <g id="text_5">
      <!-- 25 -->
      <g transform="translate(404.662913 322.182437) scale(0.1 -0.1)">
       <use xlink:href="#DejaVuSans-32"/>
       <use xlink:href="#DejaVuSans-35" x="63.623047"/>
      </g>
     </g>
    </g>
    <g id="text_6">
     <!-- GHG Emissions -->
     <g transform="translate(198.212344 335.860562) scale(0.1 -0.1)">
      <defs>
       <path id="DejaVuSans-47" d="M 3809 666 
L 3809 1919 
L 2778 1919 
L 2778 2438 
L 4434 2438 
L 4434 434 
Q 4069 175 3628 42 
Q 3188 -91 2688 -91 
Q 1594 -91 976 548 
Q 359 1188 359 2328 
Q 359 3472 976 4111 
Q 1594 4750 2688 4750 
Q 3144 4750 3555 4637 
Q 3966 4525 4313 4306 
L 4313 3634 
Q 3963 3931 3569 4081 
Q 3175 4231 2741 4231 
Q 1884 4231 1454 3753 
Q 1025 3275 1025 2328 
Q 1025 1384 1454 906 
Q 1884 428 2741 428 
Q 3075 428 3337 486 
Q 3600 544 3809 666 
z
" transform="scale(0.015625)"/>
       <path id="DejaVuSans-48" d="M 628 4666 
L 1259 4666 
L 1259 2753 
L 3553 2753 
L 3553 4666 
L 4184 4666 
L 4184 0 
L 3553 0 
L 3553 2222 
L 1259 2222 
L 1259 0 
L 628 0 
L 628 4666 
z
" transform="scale(0.015625)"/>
       <path id="DejaVuSans-20" transform="scale(0.015625)"/>
       <path id="DejaVuSans-45" d="M 628 4666 
L 3578 4666 
L 3578 4134 
L 1259 4134 
L 1259 2753 
L 3481 2753 
L 3481 2222 
L 1259 2222 
L 1259 531 
L 3634 531 
L 3634 0 
L 628 0 
L 628 4666 
z
" transform="scale(0.015625)"/>
       <path id="DejaVuSans-6d" d="M 3328 2828 
Q 3544 3216 3844 3400 
Q 4144 3584 4550 3584 
Q 5097 3584 5394 3201 
Q 5691 2819 5691 2113 
L 5691 0 
L 5113 0 
L 5113 2094 
Q 5113 2597 4934 2840 
Q 4756 3084 4391 3084 
Q 3944 3084 3684 2787 
Q 3425 2491 3425 1978 
L 3425 0 
L 2847 0 
L 2847 2094 
Q 2847 2600 2669 2842 
Q 2491 3084 2119 3084 
Q 1678 3084 1418 2786 
Q 1159 2488 1159 1978 
L 1159 0 
L 581 0 
L 581 3500 
L 1159 3500 
L 1159 2956 
Q 1356 3278 1631 3431 
Q 1906 3584 2284 3584 
Q 2666 3584 2933 3390 
Q 3200 3197 3328 2828 
z
" transform="scale(0.015625)"/>
       <path id="DejaVuSans-69" d="M 603 3500 
L 1178 3500 
L 1178 0 
L 603 0 
L 603 3500 
z
M 603 4863 
L 1178 4863 
L 1178 4134 
L 603 4134 
L 603 4863 
z
" transform="scale(0.015625)"/>
       <path id="DejaVuSans-73" d="M 2834 3397 
L 2834 2853 
Q 2591 2978 2328 3040 
Q 2066 3103 1784 3103 
Q 1356 3103 1142 2972 
Q 928 2841 928 2578 
Q 928 2378 1081 2264 
Q 1234 2150 1697 2047 
L 1894 2003 
Q 2506 1872 2764 1633 
Q 3022 1394 3022 966 
Q 3022 478 2636 193 
Q 2250 -91 1575 -91 
Q 1294 -91 989 -36 
Q 684 19 347 128 
L 347 722 
Q 666 556 975 473 
Q 1284 391 1588 391 
Q 1994 391 2212 530 
Q 2431 669 2431 922 
Q 2431 1156 2273 1281 
Q 2116 1406 1581 1522 
L 1381 1569 
Q 847 1681 609 1914 
Q 372 2147 372 2553 
Q 372 3047 722 3315 
Q 1072 3584 1716 3584 
Q 2034 3584 2315 3537 
Q 2597 3491 2834 3397 
z
" transform="scale(0.015625)"/>
       <path id="DejaVuSans-6f" d="M 1959 3097 
Q 1497 3097 1228 2736 
Q 959 2375 959 1747 
Q 959 1119 1226 758 
Q 1494 397 1959 397 
Q 2419 397 2687 759 
Q 2956 1122 2956 1747 
Q 2956 2369 2687 2733 
Q 2419 3097 1959 3097 
z
M 1959 3584 
Q 2709 3584 3137 3096 
Q 3566 2609 3566 1747 
Q 3566 888 3137 398 
Q 2709 -91 1959 -91 
Q 1206 -91 779 398 
Q 353 888 353 1747 
Q 353 2609 779 3096 
Q 1206 3584 1959 3584 
z
" transform="scale(0.015625)"/>
       <path id="DejaVuSans-6e" d="M 3513 2113 
L 3513 0 
L 2938 0 
L 2938 2094 
Q 2938 2591 2744 2837 
Q 2550 3084 2163 3084 
Q 1697 3084 1428 2787 
Q 1159 2491 1159 1978 
L 1159 0 
L 581 0 
L 581 3500 
L 1159 3500 
L 1159 2956 
Q 1366 3272 1645 3428 
Q 1925 3584 2291 3584 
Q 2894 3584 3203 3211 
Q 3513 2838 3513 2113 
z
" transform="scale(0.015625)"/>
      </defs>
      <use xlink:href="#DejaVuSans-47"/>
      <use xlink:href="#DejaVuSans-48" x="77.490234"/>
      <use xlink:href="#DejaVuSans-47" x="152.685547"/>
      <use xlink:href="#DejaVuSans-20" x="230.175781"/>
      <use xlink:href="#DejaVuSans-45" x="261.962891"/>
      <use xlink:href="#DejaVuSans-6d" x="325.146484"/>
      <use xlink:href="#DejaVuSans-69" x="422.558594"/>
      <use xlink:href="#DejaVuSans-73" x="450.341797"/>
      <use xlink:href="#DejaVuSans-73" x="502.441406"/>
      <use xlink:href="#DejaVuSans-69" x="554.541016"/>
      <use xlink:href="#DejaVuSans-6f" x="582.324219"/>
      <use xlink:href="#DejaVuSans-6e" x="643.505859"/>
      <use xlink:href="#DejaVuSans-73" x="706.884766"/>
     </g>
    </g>
   </g>
   <g id="matplotlib.axis_2">
    <g id="ytick_1">
     <g id="line2d_6">
      <defs>
       <path id="m82574b589c" d="M 0 0 
L -3.5 0 
" style="stroke: #000000; stroke-width: 0.8"/>
      </defs>
      <g>
       <use xlink:href="#m82574b589c" x="57.6" y="268.980062" style="stroke: #000000; stroke-width: 0.8"/>
      </g>
     </g>
     <g id="text_7">
      <!-- 50 -->
      <g transform="translate(37.875 272.779281) scale(0.1 -0.1)">
       <use xlink:href="#DejaVuSans-35"/>
       <use xlink:href="#DejaVuSans-30" x="63.623047"/>
      </g>
     </g>
    </g>
    <g id="ytick_2">
     <g id="line2d_7">
      <g>
       <use xlink:href="#m82574b589c" x="57.6" y="213.640044" style="stroke: #000000; stroke-width: 0.8"/>
      </g>
     </g>
     <g id="text_8">
      <!-- 100 -->
      <g transform="translate(31.5125 217.439263) scale(0.1 -0.1)">
       <use xlink:href="#DejaVuSans-31"/>
       <use xlink:href="#DejaVuSans-30" x="63.623047"/>
       <use xlink:href="#DejaVuSans-30" x="127.246094"/>
      </g>
     </g>
    </g>
    <g id="ytick_3">
     <g id="line2d_8">
      <g>
       <use xlink:href="#m82574b589c" x="57.6" y="158.300025" style="stroke: #000000; stroke-width: 0.8"/>
      </g>
     </g>
     <g id="text_9">
      <!-- 150 -->
      <g transform="translate(31.5125 162.099244) scale(0.1 -0.1)">
       <use xlink:href="#DejaVuSans-31"/>
       <use xlink:href="#DejaVuSans-35" x="63.623047"/>
       <use xlink:href="#DejaVuSans-30" x="127.246094"/>
      </g>
     </g>
    </g>
    <g id="ytick_4">
     <g id="line2d_9">
      <g>
       <use xlink:href="#m82574b589c" x="57.6" y="102.960007" style="stroke: #000000; stroke-width: 0.8"/>
      </g>
     </g>
     <g id="text_10">
      <!-- 200 -->
      <g transform="translate(31.5125 106.759226) scale(0.1 -0.1)">
       <use xlink:href="#DejaVuSans-32"/>
       <use xlink:href="#DejaVuSans-30" x="63.623047"/>
       <use xlink:href="#DejaVuSans-30" x="127.246094"/>
      </g>
     </g>
    </g>
    <g id="ytick_5">
     <g id="line2d_10">
      <g>
       <use xlink:href="#m82574b589c" x="57.6" y="47.619988" style="stroke: #000000; stroke-width: 0.8"/>
      </g>
     </g>
     <g id="text_11">
      <!-- 250 -->
      <g transform="translate(31.5125 51.419207) scale(0.1 -0.1)">
       <use xlink:href="#DejaVuSans-32"/>
       <use xlink:href="#DejaVuSans-35" x="63.623047"/>
       <use xlink:href="#DejaVuSans-30" x="127.246094"/>
      </g>
     </g>
    </g>
    <g id="text_12">
     <!-- Vegetable Consumption -->
     <g transform="translate(25.432812 234.256125) rotate(-90) scale(0.1 -0.1)">
      <defs>
       <path id="DejaVuSans-56" d="M 1831 0 
L 50 4666 
L 709 4666 
L 2188 738 
L 3669 4666 
L 4325 4666 
L 2547 0 
L 1831 0 
z
" transform="scale(0.015625)"/>
       <path id="DejaVuSans-65" d="M 3597 1894 
L 3597 1613 
L 953 1613 
Q 991 1019 1311 708 
Q 1631 397 2203 397 
Q 2534 397 2845 478 
Q 3156 559 3463 722 
L 3463 178 
Q 3153 47 2828 -22 
Q 2503 -91 2169 -91 
Q 1331 -91 842 396 
Q 353 884 353 1716 
Q 353 2575 817 3079 
Q 1281 3584 2069 3584 
Q 2775 3584 3186 3129 
Q 3597 2675 3597 1894 
z
M 3022 2063 
Q 3016 2534 2758 2815 
Q 2500 3097 2075 3097 
Q 1594 3097 1305 2825 
Q 1016 2553 972 2059 
L 3022 2063 
z
" transform="scale(0.015625)"/>
       <path id="DejaVuSans-67" d="M 2906 1791 
Q 2906 2416 2648 2759 
Q 2391 3103 1925 3103 
Q 1463 3103 1205 2759 
Q 947 2416 947 1791 
Q 947 1169 1205 825 
Q 1463 481 1925 481 
Q 2391 481 2648 825 
Q 2906 1169 2906 1791 
z
M 3481 434 
Q 3481 -459 3084 -895 
Q 2688 -1331 1869 -1331 
Q 1566 -1331 1297 -1286 
Q 1028 -1241 775 -1147 
L 775 -588 
Q 1028 -725 1275 -790 
Q 1522 -856 1778 -856 
Q 2344 -856 2625 -561 
Q 2906 -266 2906 331 
L 2906 616 
Q 2728 306 2450 153 
Q 2172 0 1784 0 
Q 1141 0 747 490 
Q 353 981 353 1791 
Q 353 2603 747 3093 
Q 1141 3584 1784 3584 
Q 2172 3584 2450 3431 
Q 2728 3278 2906 2969 
L 2906 3500 
L 3481 3500 
L 3481 434 
z
" transform="scale(0.015625)"/>
       <path id="DejaVuSans-74" d="M 1172 4494 
L 1172 3500 
L 2356 3500 
L 2356 3053 
L 1172 3053 
L 1172 1153 
Q 1172 725 1289 603 
Q 1406 481 1766 481 
L 2356 481 
L 2356 0 
L 1766 0 
Q 1100 0 847 248 
Q 594 497 594 1153 
L 594 3053 
L 172 3053 
L 172 3500 
L 594 3500 
L 594 4494 
L 1172 4494 
z
" transform="scale(0.015625)"/>
       <path id="DejaVuSans-61" d="M 2194 1759 
Q 1497 1759 1228 1600 
Q 959 1441 959 1056 
Q 959 750 1161 570 
Q 1363 391 1709 391 
Q 2188 391 2477 730 
Q 2766 1069 2766 1631 
L 2766 1759 
L 2194 1759 
z
M 3341 1997 
L 3341 0 
L 2766 0 
L 2766 531 
Q 2569 213 2275 61 
Q 1981 -91 1556 -91 
Q 1019 -91 701 211 
Q 384 513 384 1019 
Q 384 1609 779 1909 
Q 1175 2209 1959 2209 
L 2766 2209 
L 2766 2266 
Q 2766 2663 2505 2880 
Q 2244 3097 1772 3097 
Q 1472 3097 1187 3025 
Q 903 2953 641 2809 
L 641 3341 
Q 956 3463 1253 3523 
Q 1550 3584 1831 3584 
Q 2591 3584 2966 3190 
Q 3341 2797 3341 1997 
z
" transform="scale(0.015625)"/>
       <path id="DejaVuSans-62" d="M 3116 1747 
Q 3116 2381 2855 2742 
Q 2594 3103 2138 3103 
Q 1681 3103 1420 2742 
Q 1159 2381 1159 1747 
Q 1159 1113 1420 752 
Q 1681 391 2138 391 
Q 2594 391 2855 752 
Q 3116 1113 3116 1747 
z
M 1159 2969 
Q 1341 3281 1617 3432 
Q 1894 3584 2278 3584 
Q 2916 3584 3314 3078 
Q 3713 2572 3713 1747 
Q 3713 922 3314 415 
Q 2916 -91 2278 -91 
Q 1894 -91 1617 61 
Q 1341 213 1159 525 
L 1159 0 
L 581 0 
L 581 4863 
L 1159 4863 
L 1159 2969 
z
" transform="scale(0.015625)"/>
       <path id="DejaVuSans-6c" d="M 603 4863 
L 1178 4863 
L 1178 0 
L 603 0 
L 603 4863 
z
" transform="scale(0.015625)"/>
       <path id="DejaVuSans-43" d="M 4122 4306 
L 4122 3641 
Q 3803 3938 3442 4084 
Q 3081 4231 2675 4231 
Q 1875 4231 1450 3742 
Q 1025 3253 1025 2328 
Q 1025 1406 1450 917 
Q 1875 428 2675 428 
Q 3081 428 3442 575 
Q 3803 722 4122 1019 
L 4122 359 
Q 3791 134 3420 21 
Q 3050 -91 2638 -91 
Q 1578 -91 968 557 
Q 359 1206 359 2328 
Q 359 3453 968 4101 
Q 1578 4750 2638 4750 
Q 3056 4750 3426 4639 
Q 3797 4528 4122 4306 
z
" transform="scale(0.015625)"/>
       <path id="DejaVuSans-75" d="M 544 1381 
L 544 3500 
L 1119 3500 
L 1119 1403 
Q 1119 906 1312 657 
Q 1506 409 1894 409 
Q 2359 409 2629 706 
Q 2900 1003 2900 1516 
L 2900 3500 
L 3475 3500 
L 3475 0 
L 2900 0 
L 2900 538 
Q 2691 219 2414 64 
Q 2138 -91 1772 -91 
Q 1169 -91 856 284 
Q 544 659 544 1381 
z
M 1991 3584 
L 1991 3584 
z
" transform="scale(0.015625)"/>
       <path id="DejaVuSans-70" d="M 1159 525 
L 1159 -1331 
L 581 -1331 
L 581 3500 
L 1159 3500 
L 1159 2969 
Q 1341 3281 1617 3432 
Q 1894 3584 2278 3584 
Q 2916 3584 3314 3078 
Q 3713 2572 3713 1747 
Q 3713 922 3314 415 
Q 2916 -91 2278 -91 
Q 1894 -91 1617 61 
Q 1341 213 1159 525 
z
M 3116 1747 
Q 3116 2381 2855 2742 
Q 2594 3103 2138 3103 
Q 1681 3103 1420 2742 
Q 1159 2381 1159 1747 
Q 1159 1113 1420 752 
Q 1681 391 2138 391 
Q 2594 391 2855 752 
Q 3116 1113 3116 1747 
z
" transform="scale(0.015625)"/>
      </defs>
      <use xlink:href="#DejaVuSans-56"/>
      <use xlink:href="#DejaVuSans-65" x="60.658203"/>
      <use xlink:href="#DejaVuSans-67" x="122.181641"/>
      <use xlink:href="#DejaVuSans-65" x="185.658203"/>
      <use xlink:href="#DejaVuSans-74" x="247.181641"/>
      <use xlink:href="#DejaVuSans-61" x="286.390625"/>
      <use xlink:href="#DejaVuSans-62" x="347.669922"/>
      <use xlink:href="#DejaVuSans-6c" x="411.146484"/>
      <use xlink:href="#DejaVuSans-65" x="438.929688"/>
      <use xlink:href="#DejaVuSans-20" x="500.453125"/>
      <use xlink:href="#DejaVuSans-43" x="532.240234"/>
      <use xlink:href="#DejaVuSans-6f" x="602.064453"/>
      <use xlink:href="#DejaVuSans-6e" x="663.246094"/>
      <use xlink:href="#DejaVuSans-73" x="726.625"/>
      <use xlink:href="#DejaVuSans-75" x="778.724609"/>
      <use xlink:href="#DejaVuSans-6d" x="842.103516"/>
      <use xlink:href="#DejaVuSans-70" x="939.515625"/>
      <use xlink:href="#DejaVuSans-74" x="1002.992188"/>
      <use xlink:href="#DejaVuSans-69" x="1042.201172"/>
      <use xlink:href="#DejaVuSans-6f" x="1069.984375"/>
      <use xlink:href="#DejaVuSans-6e" x="1131.166016"/>
     </g>
    </g>
   </g>
   <g id="PathCollection_8"/>
   <g id="PathCollection_9">
    <path d="M 57.6 151.633953 
L 61.207273 151.633953 
L 64.814545 151.633953 
L 68.421818 151.633953 
L 72.029091 151.633953 
L 75.636364 151.633953 
L 79.243636 151.633953 
L 82.850909 151.633953 
L 86.458182 151.633953 
L 90.065455 151.633953 
L 93.672727 151.633953 
L 97.28 151.633953 
L 100.887273 151.633953 
L 104.494545 151.633953 
L 108.101818 151.633953 
L 111.709091 151.633953 
L 115.316364 151.633953 
L 118.923636 151.633953 
L 122.530909 151.633953 
L 126.138182 151.633953 
L 126.211015 151.68 
L 128.080676 154.368 
L 128.080676 157.056 
L 128.080676 159.744 
L 128.080676 162.432 
L 128.080676 165.12 
L 128.080676 167.808 
L 128.080676 170.496 
L 128.080676 173.184 
L 128.080676 175.872 
L 128.080676 178.56 
L 128.080676 181.248 
L 128.080676 183.936 
L 128.340584 186.624 
L 128.340584 189.312 
L 128.340584 192 
L 128.340584 194.688 
L 128.340584 197.376 
L 128.340584 200.064 
L 128.340584 202.752 
L 128.340584 205.44 
L 128.340584 208.128 
L 128.340584 210.816 
L 128.643983 213.504 
L 128.643983 216.192 
L 128.643983 218.88 
L 128.643983 221.568 
L 128.643983 224.256 
L 129.745455 225.717599 
L 133.352727 225.717599 
L 136.96 226.822934 
L 139.127353 226.822934 
" clip-path="url(#p34bf51e622)" style="fill: none; stroke: #000000; stroke-width: 0.5"/>
    <path d="M 141.681897 261.027 
L 141.681897 261.888 
L 141.681897 264.576 
L 141.681897 267.264 
L 141.681897 269.952 
L 141.681897 272.64 
L 141.681897 275.328 
L 141.681897 278.016 
L 141.681897 280.704 
L 141.681897 283.392 
L 141.681897 286.08 
L 141.681897 288.768 
L 141.681897 291.456 
L 141.681897 294.144 
L 141.681897 296.832 
L 141.681897 299.52 
L 141.681897 302.208 
L 141.681897 304.896 
L 141.681897 307.584 
" clip-path="url(#p34bf51e622)" style="fill: none; stroke: #000000; stroke-width: 0.5"/>
   </g>
   <g id="PathCollection_10">
    <path d="M 57.6 147.272643 
L 61.207273 147.272643 
L 64.814545 147.272643 
L 68.421818 147.272643 
L 72.029091 147.272643 
L 75.636364 147.272643 
L 79.243636 147.272643 
L 82.850909 147.272643 
L 86.458182 147.272643 
L 90.065455 147.272643 
L 93.672727 147.272643 
L 97.28 147.272643 
L 100.887273 147.272643 
L 104.494545 147.272643 
L 108.101818 147.272643 
L 108.183182 147.272643 
" clip-path="url(#p34bf51e622)" style="fill: none; stroke: #000000; stroke-width: 0.5"/>
    <path d="M 143.208702 151.477649 
L 143.670964 151.68 
L 144.174545 152.181283 
L 147.781818 152.181283 
L 148.598637 154.368 
L 148.598637 157.056 
L 148.598637 159.744 
L 148.598637 162.432 
L 148.598637 165.12 
L 148.598637 167.808 
L 148.598637 170.496 
L 148.598637 173.184 
L 148.598637 175.872 
L 148.598637 178.56 
L 148.598637 181.248 
L 148.598637 183.936 
L 148.738215 186.624 
L 148.738215 189.312 
L 148.738215 192 
L 148.738215 194.688 
L 148.738215 197.376 
L 148.738215 200.064 
L 148.738215 202.752 
L 148.738215 205.44 
L 148.738215 208.128 
L 148.738215 210.816 
L 148.90115 213.504 
L 148.90115 216.192 
L 148.90115 218.88 
L 148.90115 221.568 
L 148.90115 224.256 
L 150.582263 226.944 
L 150.920999 229.632 
L 150.920999 232.32 
L 150.920999 235.008 
L 150.920999 237.696 
L 150.920999 240.384 
L 150.920999 243.072 
L 150.920999 245.76 
L 150.920999 248.448 
L 150.920999 251.136 
L 150.920999 253.824 
L 150.920999 256.512 
L 150.920999 259.2 
L 150.920999 261.888 
L 150.920999 264.576 
L 150.920999 267.264 
L 150.920999 269.952 
L 150.920999 272.64 
L 150.920999 275.328 
L 150.920999 278.016 
L 150.920999 280.704 
L 150.920999 283.392 
L 150.920999 286.08 
L 150.920999 288.768 
L 150.920999 291.456 
L 150.920999 294.144 
L 150.920999 296.832 
L 150.920999 299.52 
L 150.920999 302.208 
L 150.920999 304.896 
L 150.920999 307.584 
" clip-path="url(#p34bf51e622)" style="fill: none; stroke: #000000; stroke-width: 0.5"/>
   </g>
   <g id="PathCollection_11">
    <path d="M 224.116586 307.584 
L 224.116586 304.896 
L 224.116586 302.208 
L 224.116586 299.52 
L 224.116586 296.832 
L 224.116586 294.144 
L 224.116586 291.456 
L 224.116586 288.768 
L 224.116586 286.08 
L 224.116586 283.392 
L 224.116586 280.704 
L 224.116586 278.016 
L 224.116586 275.328 
L 224.116586 272.64 
L 224.116586 269.952 
L 224.116586 267.264 
L 224.116586 264.576 
L 224.116586 261.888 
L 224.116586 259.2 
L 224.116586 256.512 
L 224.116586 253.824 
L 224.116586 251.136 
L 224.116586 248.448 
L 224.116586 245.76 
L 224.116586 243.072 
L 224.116586 240.384 
L 224.116586 237.696 
L 224.116586 235.008 
L 224.116586 232.32 
L 224.116586 229.632 
L 224.927343 226.944 
L 227.141818 225.46464 
L 230.749091 225.46464 
L 234.356364 225.46464 
L 237.963636 225.46464 
L 241.570909 225.46464 
L 245.178182 225.46464 
L 248.785455 225.46464 
L 252.392727 225.46464 
L 256 225.46464 
L 259.607273 225.46464 
L 263.214545 225.46464 
L 266.821818 225.46464 
L 270.429091 225.46464 
L 274.036364 225.46464 
L 277.643636 225.46464 
L 281.250909 225.46464 
L 284.858182 225.46464 
L 288.465455 225.46464 
L 292.072727 225.46464 
L 295.68 225.46464 
L 299.287273 225.46464 
L 302.894545 225.46464 
L 306.501818 225.46464 
L 306.583182 225.46464 
" clip-path="url(#p34bf51e622)" style="fill: none; stroke: #000000; stroke-width: 0.5"/>
    <path d="M 342.493182 225.46464 
L 342.574545 225.46464 
L 346.181818 225.46464 
L 349.789091 225.46464 
L 353.396364 225.46464 
L 357.003636 225.46464 
L 360.610909 225.46464 
L 364.218182 225.46464 
L 367.825455 225.46464 
L 371.432727 225.46464 
L 375.04 225.46464 
L 378.647273 225.46464 
L 382.254545 225.46464 
L 385.861818 225.46464 
L 389.469091 225.46464 
L 393.076364 225.46464 
L 396.683636 225.46464 
L 400.290909 225.46464 
L 403.898182 225.46464 
L 407.505455 225.46464 
L 411.112727 225.46464 
L 414.72 225.46464 
" clip-path="url(#p34bf51e622)" style="fill: none; stroke: #000000; stroke-width: 0.5"/>
    <path d="M 57.6 100.378963 
L 61.207273 100.378963 
L 64.814545 100.378963 
L 68.421818 100.378963 
L 72.029091 100.378963 
L 75.636364 100.378963 
L 79.243636 100.378963 
L 82.850909 100.378963 
L 86.458182 100.378963 
L 90.065455 100.378963 
L 93.672727 100.378963 
L 97.28 100.378963 
L 100.887273 100.378963 
L 104.494545 100.378963 
L 108.101818 100.378963 
L 111.709091 100.378963 
L 115.316364 100.378963 
L 118.923636 100.378963 
L 122.530909 100.378963 
L 126.138182 100.378963 
L 126.280831 100.608 
L 126.280831 103.296 
L 126.280831 105.984 
L 126.280831 108.672 
L 126.698694 111.36 
L 126.698694 114.048 
L 126.698694 116.736 
L 126.698694 119.424 
L 126.698694 122.112 
L 126.698694 124.8 
L 129.745455 127.269736 
L 133.352727 127.269736 
L 133.867203 127.488 
L 134.56891 130.176 
L 134.56891 132.864 
L 134.56891 135.552 
L 134.56891 138.24 
L 134.56891 140.928 
L 136.96 143.303062 
L 140.567273 143.303062 
L 140.805415 143.616 
L 140.805415 146.304 
L 144.174545 147.486269 
L 147.781818 147.486269 
L 149.377314 148.992 
L 151.389091 151.360368 
L 154.996364 151.360368 
L 158.603636 151.360368 
L 159.503393 151.68 
L 162.210909 153.867229 
L 163.76204 154.368 
L 163.76204 157.056 
L 163.76204 157.917 
" clip-path="url(#p34bf51e622)" style="fill: none; stroke: #000000; stroke-width: 0.5"/>
    <path d="M 164.919468 193.588401 
L 164.919468 194.688 
L 164.919468 197.376 
L 164.919468 200.064 
L 164.919468 202.752 
L 164.919468 205.44 
L 164.919468 208.128 
L 164.919468 210.816 
L 165.818182 212.60397 
L 169.425455 212.60397 
L 173.032727 212.60397 
L 173.153928 213.504 
L 173.153928 216.192 
L 173.153928 218.88 
L 173.153928 221.568 
L 173.153928 224.256 
L 176.64 226.765028 
L 177.666113 226.944 
L 180.247273 229.178293 
L 183.854545 229.178293 
L 187.461818 229.178293 
L 191.069091 229.178293 
L 194.676364 229.178293 
L 198.283636 229.178293 
L 201.890909 229.178293 
L 202.57759 229.632 
L 202.57759 232.32 
L 202.57759 235.008 
L 202.57759 237.696 
L 202.57759 240.384 
L 202.57759 243.072 
L 202.57759 245.76 
L 202.57759 248.448 
L 202.57759 251.136 
L 202.57759 253.824 
L 202.57759 256.512 
L 202.57759 259.2 
L 202.57759 261.888 
L 202.57759 264.576 
L 202.57759 267.264 
L 202.57759 269.952 
L 202.57759 272.64 
L 202.57759 275.328 
L 202.57759 278.016 
L 202.57759 280.704 
L 202.57759 283.392 
L 202.57759 286.08 
L 202.57759 288.768 
L 202.57759 291.456 
L 202.57759 294.144 
L 202.57759 296.832 
L 202.57759 299.52 
L 202.57759 302.208 
L 202.57759 304.896 
L 202.57759 307.584 
" clip-path="url(#p34bf51e622)" style="fill: none; stroke: #000000; stroke-width: 0.5"/>
   </g>
   <g id="PathCollection_12">
    <path d="M 127.695687 41.472 
L 127.695687 44.16 
L 127.695687 46.848 
L 127.695687 49.536 
L 127.695687 52.224 
L 127.695687 54.912 
L 127.695687 57.6 
L 127.695687 60.288 
L 127.695687 62.976 
L 127.695687 65.664 
L 127.695687 68.352 
L 127.695687 71.04 
L 127.695687 73.728 
L 127.695687 76.416 
L 127.695687 79.104 
L 129.745455 81.282419 
L 133.352727 81.282419 
L 134.268888 81.792 
L 134.268888 84.48 
L 134.268888 87.168 
L 134.268888 89.856 
L 134.268888 92.544 
L 134.268888 95.232 
L 136.96 97.170438 
L 140.567273 97.170438 
L 141.353856 97.92 
L 143.771798 100.608 
L 143.771798 103.296 
L 143.771798 105.984 
L 143.771798 108.672 
L 144.174545 110.465803 
L 147.781818 110.465803 
L 147.85647 111.36 
L 147.85647 114.048 
L 147.85647 116.736 
L 147.85647 119.424 
L 147.85647 122.112 
L 147.85647 124.8 
L 149.637275 127.488 
L 149.834499 130.176 
L 149.834499 132.864 
L 149.834499 135.552 
L 149.834499 138.24 
L 149.834499 140.928 
L 150.595096 143.616 
L 150.595096 146.304 
L 151.389091 147.053324 
L 154.996364 147.053324 
L 158.603636 147.053324 
L 162.210909 148.0806 
L 165.818182 148.49114 
L 169.425455 148.49114 
L 173.032727 148.49114 
L 174.211766 148.992 
L 176.64 150.278757 
L 180.247273 150.741997 
L 183.854545 150.741997 
L 187.461818 150.741997 
L 191.069091 150.741997 
L 194.676364 150.741997 
L 198.283636 150.741997 
L 201.890909 150.741997 
L 205.498182 151.095588 
L 209.105455 151.095588 
L 212.712727 151.095588 
L 216.32 151.095588 
L 219.927273 151.095588 
L 223.534545 151.095588 
L 227.141818 149.321321 
L 230.749091 149.321321 
L 234.356364 149.321321 
L 237.963636 149.321321 
L 241.570909 149.321321 
L 245.178182 149.321321 
L 248.785455 149.321321 
L 252.392727 149.321321 
L 256 149.321321 
L 259.607273 149.321321 
L 263.214545 149.321321 
L 266.821818 149.321321 
L 270.429091 149.321321 
L 274.036364 149.321321 
L 277.643636 149.321321 
L 281.250909 149.321321 
L 284.858182 149.321321 
L 288.465455 149.321321 
L 292.072727 149.321321 
L 295.68 149.321321 
L 299.287273 149.321321 
L 302.894545 149.321321 
L 306.501818 149.321321 
L 310.109091 149.321321 
L 313.716364 149.321321 
L 313.797727 149.321321 
" clip-path="url(#p34bf51e622)" style="fill: none; stroke: #000000; stroke-width: 0.5"/>
    <path d="M 349.707727 149.321321 
L 349.789091 149.321321 
L 353.396364 149.321321 
L 357.003636 149.321321 
L 360.610909 149.321321 
L 364.218182 149.321321 
L 367.825455 149.321321 
L 371.432727 149.321321 
L 375.04 149.321321 
L 378.647273 149.321321 
L 382.254545 149.321321 
L 385.861818 149.321321 
L 389.469091 149.321321 
L 393.076364 149.321321 
L 396.683636 149.321321 
L 400.290909 149.321321 
L 403.898182 149.321321 
L 407.505455 149.321321 
L 411.112727 149.321321 
L 414.72 149.321321 
" clip-path="url(#p34bf51e622)" style="fill: none; stroke: #000000; stroke-width: 0.5"/>
   </g>
   <g id="PathCollection_13">
    <path d="M 148.391886 41.472 
L 148.391886 44.16 
L 148.391886 46.848 
L 148.391886 49.536 
L 148.391886 52.224 
L 148.391886 54.912 
L 148.391886 57.6 
L 148.391886 60.288 
L 148.391886 62.976 
L 148.391886 65.664 
L 148.391886 68.352 
L 148.391886 71.04 
L 148.391886 73.728 
L 148.391886 74.912692 
" clip-path="url(#p34bf51e622)" style="fill: none; stroke: #000000; stroke-width: 0.5"/>
    <path d="M 159.627643 102.535691 
L 159.627643 103.296 
L 159.627643 105.984 
L 159.627643 108.672 
L 160.371308 111.36 
L 160.371308 114.048 
L 160.371308 116.736 
L 160.371308 119.424 
L 160.371308 122.112 
L 160.371308 124.8 
L 162.210909 125.637901 
L 165.818182 126.294523 
L 169.425455 126.294523 
L 173.032727 126.294523 
L 174.789293 127.488 
L 175.227443 130.176 
L 175.227443 132.864 
L 175.227443 135.552 
L 175.227443 138.24 
L 175.227443 140.928 
L 176.64 143.175076 
L 177.78375 143.616 
L 177.78375 146.304 
L 180.247273 146.55761 
L 183.854545 146.55761 
L 187.461818 146.55761 
L 191.069091 146.55761 
L 194.676364 146.55761 
L 198.283636 146.55761 
L 201.890909 146.55761 
L 205.498182 146.841064 
L 209.105455 146.841064 
L 212.712727 146.841064 
L 216.32 146.841064 
L 219.927273 146.841064 
L 223.534545 146.841064 
L 224.89663 146.304 
L 224.89663 143.616 
L 226.717101 140.928 
L 226.717101 138.24 
L 226.717101 135.552 
L 226.717101 132.864 
L 226.717101 130.176 
L 227.141818 127.75753 
L 230.749091 127.75753 
L 234.356364 127.75753 
L 237.963636 127.75753 
L 241.570909 127.75753 
L 245.178182 127.75753 
L 248.785455 127.75753 
L 252.392727 127.75753 
L 256 127.75753 
L 259.607273 127.75753 
L 263.214545 127.75753 
L 266.821818 127.75753 
L 270.429091 127.75753 
L 274.036364 127.75753 
L 277.643636 127.75753 
L 281.250909 127.75753 
L 284.858182 127.75753 
L 288.465455 127.75753 
L 292.072727 127.75753 
L 295.68 127.75753 
L 299.287273 127.75753 
L 302.894545 127.75753 
L 306.501818 127.75753 
L 310.109091 127.75753 
L 313.716364 127.75753 
L 317.323636 127.75753 
L 320.930909 127.75753 
L 324.538182 127.75753 
L 328.145455 127.75753 
L 331.752727 127.75753 
L 335.36 127.75753 
L 338.967273 127.75753 
L 342.574545 127.75753 
L 346.181818 127.75753 
L 349.789091 127.75753 
L 353.396364 127.75753 
L 357.003636 127.75753 
L 360.610909 127.75753 
L 364.218182 127.75753 
L 367.825455 127.75753 
L 371.432727 127.75753 
L 375.04 127.75753 
L 378.647273 127.75753 
L 382.254545 127.75753 
L 385.861818 127.75753 
L 389.469091 127.75753 
L 393.076364 127.75753 
L 396.683636 127.75753 
L 400.290909 127.75753 
L 403.898182 127.75753 
L 407.505455 127.75753 
L 411.112727 127.75753 
L 414.72 127.75753 
" clip-path="url(#p34bf51e622)" style="fill: none; stroke: #000000; stroke-width: 0.5"/>
   </g>
   <g id="PathCollection_14">
    <path d="M 162.14564 41.472 
L 162.14564 44.16 
L 162.14564 46.848 
L 162.14564 49.536 
L 162.14564 52.224 
L 162.14564 54.912 
L 162.14564 57.6 
L 162.14564 60.288 
L 162.14564 62.976 
L 162.14564 65.664 
L 162.14564 68.352 
L 162.14564 71.04 
L 162.14564 73.728 
L 162.14564 76.416 
L 162.14564 79.104 
L 162.210909 79.142976 
L 165.818182 80.003851 
L 169.425455 80.003851 
L 173.032727 80.003851 
L 175.040107 81.792 
L 175.040107 84.48 
L 175.040107 87.168 
L 175.040107 89.856 
L 175.040107 92.544 
L 175.040107 95.232 
L 176.64 97.077626 
L 179.653224 97.92 
L 180.247273 98.113739 
L 183.854545 98.113739 
L 187.461818 98.113739 
L 191.069091 98.113739 
L 194.676364 98.113739 
L 198.283636 98.113739 
L 201.890909 98.113739 
L 205.498182 99.011723 
L 209.105455 99.011723 
L 212.712727 99.011723 
L 216.32 99.011723 
L 219.927273 99.011723 
L 223.534545 99.011723 
L 224.408532 97.92 
L 226.918931 95.232 
L 226.918931 92.544 
L 226.918931 89.856 
L 226.918931 87.168 
L 226.918931 84.48 
L 226.918931 81.792 
L 227.141818 81.607714 
L 230.749091 81.607714 
L 234.356364 81.607714 
L 237.963636 81.607714 
L 241.570909 81.607714 
L 245.178182 81.607714 
L 248.785455 81.607714 
L 252.392727 81.607714 
L 256 81.607714 
L 259.607273 81.607714 
L 263.214545 81.607714 
L 266.821818 81.607714 
L 270.429091 81.607714 
L 274.036364 81.607714 
L 277.643636 81.607714 
L 281.250909 81.607714 
L 284.858182 81.607714 
L 288.465455 81.607714 
L 292.072727 81.607714 
L 295.68 81.607714 
L 299.287273 81.607714 
L 302.894545 81.607714 
L 306.501818 81.607714 
L 310.109091 81.607714 
L 313.716364 81.607714 
L 317.323636 81.607714 
L 320.930909 81.607714 
L 324.538182 81.607714 
L 328.145455 81.607714 
L 331.752727 81.607714 
L 335.36 81.607714 
L 338.967273 81.607714 
L 342.574545 81.607714 
L 346.181818 81.607714 
L 349.789091 81.607714 
L 353.396364 81.607714 
L 357.003636 81.607714 
L 360.610909 81.607714 
L 364.218182 81.607714 
L 367.825455 81.607714 
L 371.432727 81.607714 
L 375.04 81.607714 
L 378.647273 81.607714 
L 382.254545 81.607714 
L 385.861818 81.607714 
L 389.469091 81.607714 
L 389.550455 81.607714 
" clip-path="url(#p34bf51e622)" style="fill: none; stroke: #000000; stroke-width: 0.5"/>
   </g>
   <g id="PathCollection_15"/>
   <g id="LineCollection_1">
    <path d="M 67.288029 307.584 
L 67.288029 294.2784 
" clip-path="url(#p34bf51e622)" style="fill: none; stroke: #000000; stroke-width: 1.5"/>
    <path d="M 78.078571 307.584 
L 78.078571 294.2784 
" clip-path="url(#p34bf51e622)" style="fill: none; stroke: #000000; stroke-width: 1.5"/>
    <path d="M 93.889059 307.584 
L 93.889059 294.2784 
" clip-path="url(#p34bf51e622)" style="fill: none; stroke: #000000; stroke-width: 1.5"/>
    <path d="M 108.995817 307.584 
L 108.995817 294.2784 
" clip-path="url(#p34bf51e622)" style="fill: none; stroke: #000000; stroke-width: 1.5"/>
    <path d="M 131.732191 307.584 
L 131.732191 294.2784 
" clip-path="url(#p34bf51e622)" style="fill: none; stroke: #000000; stroke-width: 1.5"/>
    <path d="M 156.761555 307.584 
L 156.761555 294.2784 
" clip-path="url(#p34bf51e622)" style="fill: none; stroke: #000000; stroke-width: 1.5"/>
    <path d="M 184.822827 307.584 
L 184.822827 294.2784 
" clip-path="url(#p34bf51e622)" style="fill: none; stroke: #000000; stroke-width: 1.5"/>
    <path d="M 230.928933 307.584 
L 230.928933 294.2784 
" clip-path="url(#p34bf51e622)" style="fill: none; stroke: #000000; stroke-width: 1.5"/>
    <path d="M 331.679748 307.584 
L 331.679748 294.2784 
" clip-path="url(#p34bf51e622)" style="fill: none; stroke: #000000; stroke-width: 1.5"/>
   </g>
   <g id="LineCollection_2">
    <path clip-path="url(#p34bf51e622)" style="fill: none; stroke: #000000; stroke-width: 1.5"/>
    <path clip-path="url(#p34bf51e622)" style="fill: none; stroke: #000000; stroke-width: 1.5"/>
    <path clip-path="url(#p34bf51e622)" style="fill: none; stroke: #000000; stroke-width: 1.5"/>
    <path clip-path="url(#p34bf51e622)" style="fill: none; stroke: #000000; stroke-width: 1.5"/>
    <path clip-path="url(#p34bf51e622)" style="fill: none; stroke: #000000; stroke-width: 1.5"/>
    <path clip-path="url(#p34bf51e622)" style="fill: none; stroke: #000000; stroke-width: 1.5"/>
    <path clip-path="url(#p34bf51e622)" style="fill: none; stroke: #000000; stroke-width: 1.5"/>
    <path clip-path="url(#p34bf51e622)" style="fill: none; stroke: #000000; stroke-width: 1.5"/>
    <path clip-path="url(#p34bf51e622)" style="fill: none; stroke: #000000; stroke-width: 1.5"/>
   </g>
   <g id="patch_3">
    <path d="M 57.6 307.584 
L 57.6 41.472 
" style="fill: none; stroke: #000000; stroke-width: 0.8; stroke-linejoin: miter; stroke-linecap: square"/>
   </g>
   <g id="patch_4">
    <path d="M 414.72 307.584 
L 414.72 41.472 
" style="fill: none; stroke: #000000; stroke-width: 0.8; stroke-linejoin: miter; stroke-linecap: square"/>
   </g>
   <g id="patch_5">
    <path d="M 57.6 307.584 
L 414.72 307.584 
" style="fill: none; stroke: #000000; stroke-width: 0.8; stroke-linejoin: miter; stroke-linecap: square"/>
   </g>
   <g id="patch_6">
    <path d="M 57.6 41.472 
L 414.72 41.472 
" style="fill: none; stroke: #000000; stroke-width: 0.8; stroke-linejoin: miter; stroke-linecap: square"/>
   </g>
   <g id="text_13">
    <!-- 2D-partial dependency plot between GHG and Veg -->
    <g transform="translate(84.158437 35.472) scale(0.12 -0.12)">
     <defs>
      <path id="DejaVuSans-44" d="M 1259 4147 
L 1259 519 
L 2022 519 
Q 2988 519 3436 956 
Q 3884 1394 3884 2338 
Q 3884 3275 3436 3711 
Q 2988 4147 2022 4147 
L 1259 4147 
z
M 628 4666 
L 1925 4666 
Q 3281 4666 3915 4102 
Q 4550 3538 4550 2338 
Q 4550 1131 3912 565 
Q 3275 0 1925 0 
L 628 0 
L 628 4666 
z
" transform="scale(0.015625)"/>
      <path id="DejaVuSans-2d" d="M 313 2009 
L 1997 2009 
L 1997 1497 
L 313 1497 
L 313 2009 
z
" transform="scale(0.015625)"/>
      <path id="DejaVuSans-72" d="M 2631 2963 
Q 2534 3019 2420 3045 
Q 2306 3072 2169 3072 
Q 1681 3072 1420 2755 
Q 1159 2438 1159 1844 
L 1159 0 
L 581 0 
L 581 3500 
L 1159 3500 
L 1159 2956 
Q 1341 3275 1631 3429 
Q 1922 3584 2338 3584 
Q 2397 3584 2469 3576 
Q 2541 3569 2628 3553 
L 2631 2963 
z
" transform="scale(0.015625)"/>
      <path id="DejaVuSans-64" d="M 2906 2969 
L 2906 4863 
L 3481 4863 
L 3481 0 
L 2906 0 
L 2906 525 
Q 2725 213 2448 61 
Q 2172 -91 1784 -91 
Q 1150 -91 751 415 
Q 353 922 353 1747 
Q 353 2572 751 3078 
Q 1150 3584 1784 3584 
Q 2172 3584 2448 3432 
Q 2725 3281 2906 2969 
z
M 947 1747 
Q 947 1113 1208 752 
Q 1469 391 1925 391 
Q 2381 391 2643 752 
Q 2906 1113 2906 1747 
Q 2906 2381 2643 2742 
Q 2381 3103 1925 3103 
Q 1469 3103 1208 2742 
Q 947 2381 947 1747 
z
" transform="scale(0.015625)"/>
      <path id="DejaVuSans-63" d="M 3122 3366 
L 3122 2828 
Q 2878 2963 2633 3030 
Q 2388 3097 2138 3097 
Q 1578 3097 1268 2742 
Q 959 2388 959 1747 
Q 959 1106 1268 751 
Q 1578 397 2138 397 
Q 2388 397 2633 464 
Q 2878 531 3122 666 
L 3122 134 
Q 2881 22 2623 -34 
Q 2366 -91 2075 -91 
Q 1284 -91 818 406 
Q 353 903 353 1747 
Q 353 2603 823 3093 
Q 1294 3584 2113 3584 
Q 2378 3584 2631 3529 
Q 2884 3475 3122 3366 
z
" transform="scale(0.015625)"/>
      <path id="DejaVuSans-79" d="M 2059 -325 
Q 1816 -950 1584 -1140 
Q 1353 -1331 966 -1331 
L 506 -1331 
L 506 -850 
L 844 -850 
Q 1081 -850 1212 -737 
Q 1344 -625 1503 -206 
L 1606 56 
L 191 3500 
L 800 3500 
L 1894 763 
L 2988 3500 
L 3597 3500 
L 2059 -325 
z
" transform="scale(0.015625)"/>
      <path id="DejaVuSans-77" d="M 269 3500 
L 844 3500 
L 1563 769 
L 2278 3500 
L 2956 3500 
L 3675 769 
L 4391 3500 
L 4966 3500 
L 4050 0 
L 3372 0 
L 2619 2869 
L 1863 0 
L 1184 0 
L 269 3500 
z
" transform="scale(0.015625)"/>
     </defs>
     <use xlink:href="#DejaVuSans-32"/>
     <use xlink:href="#DejaVuSans-44" x="63.623047"/>
     <use xlink:href="#DejaVuSans-2d" x="140.625"/>
     <use xlink:href="#DejaVuSans-70" x="176.708984"/>
     <use xlink:href="#DejaVuSans-61" x="240.185547"/>
     <use xlink:href="#DejaVuSans-72" x="301.464844"/>
     <use xlink:href="#DejaVuSans-74" x="342.578125"/>
     <use xlink:href="#DejaVuSans-69" x="381.787109"/>
     <use xlink:href="#DejaVuSans-61" x="409.570312"/>
     <use xlink:href="#DejaVuSans-6c" x="470.849609"/>
     <use xlink:href="#DejaVuSans-20" x="498.632812"/>
     <use xlink:href="#DejaVuSans-64" x="530.419922"/>
     <use xlink:href="#DejaVuSans-65" x="593.896484"/>
     <use xlink:href="#DejaVuSans-70" x="655.419922"/>
     <use xlink:href="#DejaVuSans-65" x="718.896484"/>
     <use xlink:href="#DejaVuSans-6e" x="780.419922"/>
     <use xlink:href="#DejaVuSans-64" x="843.798828"/>
     <use xlink:href="#DejaVuSans-65" x="907.275391"/>
     <use xlink:href="#DejaVuSans-6e" x="968.798828"/>
     <use xlink:href="#DejaVuSans-63" x="1032.177734"/>
     <use xlink:href="#DejaVuSans-79" x="1087.158203"/>
     <use xlink:href="#DejaVuSans-20" x="1146.337891"/>
     <use xlink:href="#DejaVuSans-70" x="1178.125"/>
     <use xlink:href="#DejaVuSans-6c" x="1241.601562"/>
     <use xlink:href="#DejaVuSans-6f" x="1269.384766"/>
     <use xlink:href="#DejaVuSans-74" x="1330.566406"/>
     <use xlink:href="#DejaVuSans-20" x="1369.775391"/>
     <use xlink:href="#DejaVuSans-62" x="1401.5625"/>
     <use xlink:href="#DejaVuSans-65" x="1465.039062"/>
     <use xlink:href="#DejaVuSans-74" x="1526.5625"/>
     <use xlink:href="#DejaVuSans-77" x="1565.771484"/>
     <use xlink:href="#DejaVuSans-65" x="1647.558594"/>
     <use xlink:href="#DejaVuSans-65" x="1709.082031"/>
     <use xlink:href="#DejaVuSans-6e" x="1770.605469"/>
     <use xlink:href="#DejaVuSans-20" x="1833.984375"/>
     <use xlink:href="#DejaVuSans-47" x="1865.771484"/>
     <use xlink:href="#DejaVuSans-48" x="1943.261719"/>
     <use xlink:href="#DejaVuSans-47" x="2018.457031"/>
     <use xlink:href="#DejaVuSans-20" x="2095.947266"/>
     <use xlink:href="#DejaVuSans-61" x="2127.734375"/>
     <use xlink:href="#DejaVuSans-6e" x="2189.013672"/>
     <use xlink:href="#DejaVuSans-64" x="2252.392578"/>
     <use xlink:href="#DejaVuSans-20" x="2315.869141"/>
     <use xlink:href="#DejaVuSans-56" x="2347.65625"/>
     <use xlink:href="#DejaVuSans-65" x="2408.314453"/>
     <use xlink:href="#DejaVuSans-67" x="2469.837891"/>
    </g>
   </g>
   <g id="text_14">
    <g clip-path="url(#p34bf51e622)">
     <!-- 12.48 -->
     <g transform="translate(138.775998 228.786963) rotate(-270.587089) scale(0.1 -0.1)">
      <defs>
       <path id="DejaVuSans-2e" d="M 684 794 
L 1344 794 
L 1344 0 
L 684 0 
L 684 794 
z
" transform="scale(0.015625)"/>
       <path id="DejaVuSans-34" d="M 2419 4116 
L 825 1625 
L 2419 1625 
L 2419 4116 
z
M 2253 4666 
L 3047 4666 
L 3047 1625 
L 3713 1625 
L 3713 1100 
L 3047 1100 
L 3047 0 
L 2419 0 
L 2419 1100 
L 313 1100 
L 313 1709 
L 2253 4666 
z
" transform="scale(0.015625)"/>
       <path id="DejaVuSans-38" d="M 2034 2216 
Q 1584 2216 1326 1975 
Q 1069 1734 1069 1313 
Q 1069 891 1326 650 
Q 1584 409 2034 409 
Q 2484 409 2743 651 
Q 3003 894 3003 1313 
Q 3003 1734 2745 1975 
Q 2488 2216 2034 2216 
z
M 1403 2484 
Q 997 2584 770 2862 
Q 544 3141 544 3541 
Q 544 4100 942 4425 
Q 1341 4750 2034 4750 
Q 2731 4750 3128 4425 
Q 3525 4100 3525 3541 
Q 3525 3141 3298 2862 
Q 3072 2584 2669 2484 
Q 3125 2378 3379 2068 
Q 3634 1759 3634 1313 
Q 3634 634 3220 271 
Q 2806 -91 2034 -91 
Q 1263 -91 848 271 
Q 434 634 434 1313 
Q 434 1759 690 2068 
Q 947 2378 1403 2484 
z
M 1172 3481 
Q 1172 3119 1398 2916 
Q 1625 2713 2034 2713 
Q 2441 2713 2670 2916 
Q 2900 3119 2900 3481 
Q 2900 3844 2670 4047 
Q 2441 4250 2034 4250 
Q 1625 4250 1398 4047 
Q 1172 3844 1172 3481 
z
" transform="scale(0.015625)"/>
      </defs>
      <use xlink:href="#DejaVuSans-31"/>
      <use xlink:href="#DejaVuSans-32" x="63.623047"/>
      <use xlink:href="#DejaVuSans-2e" x="127.246094"/>
      <use xlink:href="#DejaVuSans-34" x="159.033203"/>
      <use xlink:href="#DejaVuSans-38" x="222.65625"/>
     </g>
    </g>
   </g>
   <g id="text_15">
    <g clip-path="url(#p34bf51e622)">
     <!-- 12.80 -->
     <g transform="translate(111.609847 148.470152) rotate(-353.800724) scale(0.1 -0.1)">
      <use xlink:href="#DejaVuSans-31"/>
      <use xlink:href="#DejaVuSans-32" x="63.623047"/>
      <use xlink:href="#DejaVuSans-2e" x="127.246094"/>
      <use xlink:href="#DejaVuSans-38" x="159.033203"/>
      <use xlink:href="#DejaVuSans-30" x="222.65625"/>
     </g>
    </g>
   </g>
   <g id="text_16">
    <g clip-path="url(#p34bf51e622)">
     <!-- 13.12 -->
     <g transform="translate(310.224119 228.224015) scale(0.1 -0.1)">
      <defs>
       <path id="DejaVuSans-33" d="M 2597 2516 
Q 3050 2419 3304 2112 
Q 3559 1806 3559 1356 
Q 3559 666 3084 287 
Q 2609 -91 1734 -91 
Q 1441 -91 1130 -33 
Q 819 25 488 141 
L 488 750 
Q 750 597 1062 519 
Q 1375 441 1716 441 
Q 2309 441 2620 675 
Q 2931 909 2931 1356 
Q 2931 1769 2642 2001 
Q 2353 2234 1838 2234 
L 1294 2234 
L 1294 2753 
L 1863 2753 
Q 2328 2753 2575 2939 
Q 2822 3125 2822 3475 
Q 2822 3834 2567 4026 
Q 2313 4219 1838 4219 
Q 1578 4219 1281 4162 
Q 984 4106 628 3988 
L 628 4550 
Q 988 4650 1302 4700 
Q 1616 4750 1894 4750 
Q 2613 4750 3031 4423 
Q 3450 4097 3450 3541 
Q 3450 3153 3228 2886 
Q 3006 2619 2597 2516 
z
" transform="scale(0.015625)"/>
      </defs>
      <use xlink:href="#DejaVuSans-31"/>
      <use xlink:href="#DejaVuSans-33" x="63.623047"/>
      <use xlink:href="#DejaVuSans-2e" x="127.246094"/>
      <use xlink:href="#DejaVuSans-31" x="159.033203"/>
      <use xlink:href="#DejaVuSans-32" x="222.65625"/>
     </g>
    </g>
   </g>
   <g id="text_17">
    <g clip-path="url(#p34bf51e622)">
     <!-- 13.12 -->
     <g transform="translate(160.423522 161.681833) rotate(-272.327924) scale(0.1 -0.1)">
      <use xlink:href="#DejaVuSans-31"/>
      <use xlink:href="#DejaVuSans-33" x="63.623047"/>
      <use xlink:href="#DejaVuSans-2e" x="127.246094"/>
      <use xlink:href="#DejaVuSans-31" x="159.033203"/>
      <use xlink:href="#DejaVuSans-32" x="222.65625"/>
     </g>
    </g>
   </g>
   <g id="text_18">
    <g clip-path="url(#p34bf51e622)">
     <!-- 13.44 -->
     <g transform="translate(317.438665 152.080696) scale(0.1 -0.1)">
      <use xlink:href="#DejaVuSans-31"/>
      <use xlink:href="#DejaVuSans-33" x="63.623047"/>
      <use xlink:href="#DejaVuSans-2e" x="127.246094"/>
      <use xlink:href="#DejaVuSans-34" x="159.033203"/>
      <use xlink:href="#DejaVuSans-34" x="222.65625"/>
     </g>
    </g>
   </g>
   <g id="text_19">
    <g clip-path="url(#p34bf51e622)">
     <!-- 13.75 -->
     <g transform="translate(141.178825 80.75254) rotate(-295.102563) scale(0.1 -0.1)">
      <defs>
       <path id="DejaVuSans-37" d="M 525 4666 
L 3525 4666 
L 3525 4397 
L 1831 0 
L 1172 0 
L 2766 4134 
L 525 4134 
L 525 4666 
z
" transform="scale(0.015625)"/>
      </defs>
      <use xlink:href="#DejaVuSans-31"/>
      <use xlink:href="#DejaVuSans-33" x="63.623047"/>
      <use xlink:href="#DejaVuSans-2e" x="127.246094"/>
      <use xlink:href="#DejaVuSans-37" x="159.033203"/>
      <use xlink:href="#DejaVuSans-35" x="222.65625"/>
     </g>
    </g>
   </g>
   <g id="text_20">
    <g clip-path="url(#p34bf51e622)">
     <!-- 14.07 -->
     <g transform="translate(393.191392 84.367089) scale(0.1 -0.1)">
      <use xlink:href="#DejaVuSans-31"/>
      <use xlink:href="#DejaVuSans-34" x="63.623047"/>
      <use xlink:href="#DejaVuSans-2e" x="127.246094"/>
      <use xlink:href="#DejaVuSans-30" x="159.033203"/>
      <use xlink:href="#DejaVuSans-37" x="222.65625"/>
     </g>
    </g>
   </g>
  </g>
 </g>
 <defs>
  <clipPath id="p34bf51e622">
   <rect x="57.6" y="41.472" width="357.12" height="266.112"/>
  </clipPath>
 </defs>
</svg>
