<?xml version="1.0" encoding="utf-8" standalone="no"?>
<!DOCTYPE svg PUBLIC "-//W3C//DTD SVG 1.1//EN"
  "http://www.w3.org/Graphics/SVG/1.1/DTD/svg11.dtd">
<svg xmlns:xlink="http://www.w3.org/1999/xlink" width="460.8pt" height="345.6pt" viewBox="0 0 460.8 345.6" xmlns="http://www.w3.org/2000/svg" version="1.1">
 <metadata>
  <rdf:RDF xmlns:dc="http://purl.org/dc/elements/1.1/" xmlns:cc="http://creativecommons.org/ns#" xmlns:rdf="http://www.w3.org/1999/02/22-rdf-syntax-ns#">
   <cc:Work>
    <dc:type rdf:resource="http://purl.org/dc/dcmitype/StillImage"/>
    <dc:date>2024-03-09T16:47:19.052146</dc:date>
    <dc:format>image/svg+xml</dc:format>
    <dc:creator>
     <cc:Agent>
      <dc:title>Matplotlib v3.7.0, https://matplotlib.org/</dc:title>
     </cc:Agent>
    </dc:creator>
   </cc:Work>
  </rdf:RDF>
 </metadata>
 <defs>
  <style type="text/css">*{stroke-linejoin: round; stroke-linecap: butt}</style>
 </defs>
 <g id="figure_1">
  <g id="patch_1">
   <path d="M 0 345.6 
L 460.8 345.6 
L 460.8 0 
L 0 0 
L 0 345.6 
z
" style="fill: none"/>
  </g>
  <g id="axes_1"/>
  <g id="axes_2">
   <g id="patch_2">
    <path d="M 57.6 307.584 
L 414.72 307.584 
L 414.72 41.472 
L 57.6 41.472 
L 57.6 307.584 
z
" style="fill: none"/>
   </g>
   <g id="PathCollection_1">
    <path d="M 61.207273 283.648271 
L 64.814545 283.648271 
L 68.421818 283.648271 
L 72.029091 283.648271 
L 75.636364 283.648271 
L 79.243636 283.648271 
L 82.850909 283.648271 
L 86.458182 283.648271 
L 90.065455 283.648271 
L 93.672727 283.648271 
L 97.28 283.648271 
L 100.887273 283.648271 
L 104.494545 283.648271 
L 108.101818 283.648271 
L 111.709091 283.648271 
L 115.316364 283.648271 
L 118.923636 283.648271 
L 122.530909 283.648271 
L 126.138182 283.648271 
L 129.745455 283.648271 
L 133.352727 283.648271 
L 136.96 283.648271 
L 140.567273 283.648271 
L 144.174545 283.648271 
L 147.781818 283.648271 
L 151.389091 283.648271 
L 154.996364 283.648271 
L 158.603636 283.648271 
L 162.210909 283.648271 
L 162.464696 283.392 
L 162.464696 280.704 
L 162.464696 278.016 
L 162.464696 275.328 
L 162.464696 272.64 
L 164.221491 269.952 
L 164.221491 267.264 
L 164.221491 264.576 
L 164.221491 261.888 
L 164.221491 259.2 
L 164.221491 256.512 
L 164.221491 253.824 
L 164.221491 251.136 
L 164.221491 248.448 
L 165.818182 247.692286 
L 169.425455 245.875057 
L 169.815911 245.76 
L 173.032727 244.613005 
L 176.64 244.613005 
L 178.630698 243.072 
L 180.247273 240.782628 
L 183.854545 240.782628 
L 184.244289 240.384 
L 184.244289 237.696 
L 186.409478 235.008 
L 187.461818 234.146631 
L 188.04576 232.32 
L 188.04576 229.632 
L 188.04576 226.944 
L 188.04576 224.256 
L 188.04576 221.568 
L 188.332775 218.88 
L 188.332775 216.192 
L 188.780179 213.504 
L 188.780179 210.816 
L 188.780179 208.128 
L 188.780179 205.44 
L 189.473496 202.752 
L 189.473496 200.064 
L 189.923336 197.376 
L 189.923336 194.688 
L 189.923336 192 
L 189.923336 189.312 
L 189.923336 186.624 
L 189.923336 183.936 
L 189.923336 181.248 
L 189.923336 178.56 
L 189.923336 175.872 
L 189.923336 173.184 
L 189.923336 170.496 
L 189.923336 167.808 
L 189.923336 165.12 
L 189.923336 162.432 
L 189.923336 159.744 
L 189.923336 157.056 
L 189.923336 154.368 
L 189.923336 151.68 
L 189.923336 148.992 
L 189.923336 146.304 
L 189.923336 143.616 
L 189.923336 140.928 
L 189.923336 138.24 
L 189.923336 135.552 
L 189.923336 132.864 
L 189.923336 130.176 
L 189.923336 127.488 
L 189.923336 124.8 
L 189.923336 122.112 
L 189.923336 119.424 
L 189.923336 116.736 
L 189.923336 114.048 
L 189.923336 111.36 
L 189.923336 108.672 
L 189.923336 105.984 
L 189.923336 103.296 
L 189.923336 100.608 
L 189.923336 97.92 
L 189.923336 95.232 
L 189.923336 92.544 
L 189.923336 89.856 
L 189.923336 87.168 
L 189.923336 84.48 
L 189.923336 81.792 
L 189.923336 79.104 
L 189.923336 76.416 
L 189.923336 73.728 
L 189.923336 71.04 
L 189.923336 68.352 
L 189.923336 65.664 
L 189.923336 62.976 
L 189.923336 60.288 
L 189.923336 57.6 
L 189.923336 54.912 
L 189.923336 52.224 
L 189.923336 49.536 
L 189.923336 46.848 
L 189.923336 44.16 
L 189.923336 41.472 
L 187.461818 41.472 
L 183.854545 41.472 
L 180.247273 41.472 
L 176.64 41.472 
L 173.032727 41.472 
L 169.425455 41.472 
L 165.818182 41.472 
L 162.210909 41.472 
L 158.603636 41.472 
L 154.996364 41.472 
L 151.389091 41.472 
L 147.781818 41.472 
L 144.174545 41.472 
L 140.567273 41.472 
L 136.96 41.472 
L 133.352727 41.472 
L 129.745455 41.472 
L 126.138182 41.472 
L 122.530909 41.472 
L 118.923636 41.472 
L 115.316364 41.472 
L 111.709091 41.472 
L 108.101818 41.472 
L 104.494545 41.472 
L 100.887273 41.472 
L 97.28 41.472 
L 93.672727 41.472 
L 90.065455 41.472 
L 86.458182 41.472 
L 82.850909 41.472 
L 79.243636 41.472 
L 75.636364 41.472 
L 72.029091 41.472 
L 68.421818 41.472 
L 64.814545 41.472 
L 61.207273 41.472 
L 57.6 41.472 
L 57.6 44.16 
L 57.6 46.848 
L 57.6 49.536 
L 57.6 52.224 
L 57.6 54.912 
L 57.6 57.6 
L 57.6 60.288 
L 57.6 62.976 
L 57.6 65.664 
L 57.6 68.352 
L 57.6 71.04 
L 57.6 73.728 
L 57.6 76.416 
L 57.6 79.104 
L 57.6 81.792 
L 57.6 84.48 
L 57.6 87.168 
L 57.6 89.856 
L 57.6 92.544 
L 57.6 95.232 
L 57.6 97.92 
L 57.6 100.608 
L 57.6 103.296 
L 57.6 105.984 
L 57.6 108.672 
L 57.6 111.36 
L 57.6 114.048 
L 57.6 116.736 
L 57.6 119.424 
L 57.6 122.112 
L 57.6 124.8 
L 57.6 127.488 
L 57.6 130.176 
L 57.6 132.864 
L 57.6 135.552 
L 57.6 138.24 
L 57.6 140.928 
L 57.6 143.616 
L 57.6 146.304 
L 57.6 148.992 
L 57.6 151.68 
L 57.6 154.368 
L 57.6 157.056 
L 57.6 159.744 
L 57.6 162.432 
L 57.6 165.12 
L 57.6 167.808 
L 57.6 170.496 
L 57.6 173.184 
L 57.6 175.872 
L 57.6 178.56 
L 57.6 181.248 
L 57.6 183.936 
L 57.6 186.624 
L 57.6 189.312 
L 57.6 192 
L 57.6 194.688 
L 57.6 197.376 
L 57.6 200.064 
L 57.6 202.752 
L 57.6 205.44 
L 57.6 208.128 
L 57.6 210.816 
L 57.6 213.504 
L 57.6 216.192 
L 57.6 218.88 
L 57.6 221.568 
L 57.6 224.256 
L 57.6 226.944 
L 57.6 229.632 
L 57.6 232.32 
L 57.6 235.008 
L 57.6 237.696 
L 57.6 240.384 
L 57.6 243.072 
L 57.6 245.76 
L 57.6 248.448 
L 57.6 251.136 
L 57.6 253.824 
L 57.6 256.512 
L 57.6 259.2 
L 57.6 261.888 
L 57.6 264.576 
L 57.6 267.264 
L 57.6 269.952 
L 57.6 272.64 
L 57.6 275.328 
L 57.6 278.016 
L 57.6 280.704 
L 57.6 283.392 
L 57.6 283.648271 
z
" clip-path="url(#p5b60818ecb)" style="fill: #481b6d; fill-opacity: 0.75"/>
   </g>
   <g id="PathCollection_2">
    <path d="M 61.207273 306.841716 
L 64.814545 306.841716 
L 68.421818 306.841716 
L 72.029091 306.841716 
L 75.636364 306.841716 
L 79.243636 306.841716 
L 82.850909 306.841716 
L 86.458182 306.841716 
L 90.065455 306.841716 
L 93.672727 306.841716 
L 97.28 306.841716 
L 100.887273 306.841716 
L 104.494545 306.841716 
L 108.101818 306.841716 
L 111.709091 306.841716 
L 115.316364 306.841716 
L 118.923636 306.841716 
L 122.530909 306.841716 
L 126.138182 306.841716 
L 129.745455 306.841716 
L 133.352727 306.841716 
L 136.96 306.841716 
L 140.567273 306.841716 
L 144.174545 306.841716 
L 147.781818 306.841716 
L 151.389091 306.841716 
L 154.996364 306.841716 
L 158.603636 306.841716 
L 162.210909 306.841716 
L 165.818182 306.627156 
L 169.425455 306.398785 
L 173.032727 306.265201 
L 176.64 306.265201 
L 180.247273 305.97519 
L 183.854545 305.97519 
L 187.461818 305.765738 
L 191.069091 304.965294 
L 191.375415 304.896 
L 191.375415 302.208 
L 191.375415 299.52 
L 193.048659 296.832 
L 193.048659 294.144 
L 193.048659 291.456 
L 193.048659 288.768 
L 192.658507 286.08 
L 193.358437 283.392 
L 193.358437 280.704 
L 193.358437 278.016 
L 193.358437 275.328 
L 193.358437 272.64 
L 193.820369 269.952 
L 193.820369 267.264 
L 193.820369 264.576 
L 193.820369 261.888 
L 193.820369 259.2 
L 193.820369 256.512 
L 193.820369 253.824 
L 193.820369 251.136 
L 193.820369 248.448 
L 194.676364 246.907184 
L 196.930539 245.76 
L 198.283636 244.926762 
L 201.890909 244.926762 
L 205.498182 244.926762 
L 209.105455 244.926762 
L 212.712727 244.926762 
L 216.32 244.926762 
L 219.927273 243.723608 
L 223.534545 243.723608 
L 227.141818 243.723608 
L 230.749091 243.723608 
L 234.356364 243.723608 
L 237.963636 243.723608 
L 240.350007 243.072 
L 241.570909 242.46211 
L 245.178182 242.46211 
L 248.785455 242.46211 
L 252.392727 242.46211 
L 256 242.46211 
L 258.408139 240.384 
L 258.408139 237.696 
L 259.607273 236.439972 
L 263.214545 236.439972 
L 266.821818 236.439972 
L 270.429091 236.439972 
L 274.036364 236.439972 
L 277.643636 236.439972 
L 281.250909 236.439972 
L 284.858182 236.439972 
L 285.391501 235.008 
L 286.909885 232.32 
L 286.909885 229.632 
L 286.909885 226.944 
L 286.909885 224.256 
L 286.909885 221.568 
L 287.417038 218.88 
L 287.417038 216.192 
L 288.207596 213.504 
L 288.207596 210.816 
L 288.207596 208.128 
L 288.207596 205.44 
L 288.465455 204.031872 
L 292.072727 204.031872 
L 295.68 204.031872 
L 299.287273 204.031872 
L 302.894545 204.031872 
L 306.501818 204.031872 
L 306.539165 202.752 
L 306.539165 200.064 
L 306.665823 197.376 
L 306.665823 194.688 
L 306.665823 192 
L 306.665823 189.312 
L 306.665823 186.624 
L 306.665823 183.936 
L 306.665823 181.248 
L 306.665823 178.56 
L 306.665823 175.872 
L 306.665823 173.184 
L 306.665823 170.496 
L 306.665823 167.808 
L 306.665823 165.12 
L 306.665823 162.432 
L 306.665823 159.744 
L 306.665823 157.056 
L 306.665823 154.368 
L 306.665823 151.68 
L 306.665823 148.992 
L 306.665823 146.304 
L 306.665823 143.616 
L 306.665823 140.928 
L 306.665823 138.24 
L 306.665823 135.552 
L 306.665823 132.864 
L 306.665823 130.176 
L 306.665823 127.488 
L 306.665823 124.8 
L 306.665823 122.112 
L 306.665823 119.424 
L 306.665823 116.736 
L 306.665823 114.048 
L 306.665823 111.36 
L 306.665823 108.672 
L 306.665823 105.984 
L 306.665823 103.296 
L 306.665823 100.608 
L 306.665823 97.92 
L 306.665823 95.232 
L 306.665823 92.544 
L 306.665823 89.856 
L 306.665823 87.168 
L 306.665823 84.48 
L 306.665823 81.792 
L 306.665823 79.104 
L 306.665823 76.416 
L 306.665823 73.728 
L 306.665823 71.04 
L 306.665823 68.352 
L 306.665823 65.664 
L 306.665823 62.976 
L 306.665823 60.288 
L 306.665823 57.6 
L 306.665823 54.912 
L 306.665823 52.224 
L 306.665823 49.536 
L 306.665823 46.848 
L 306.665823 44.16 
L 306.665823 41.472 
L 306.501818 41.472 
L 302.894545 41.472 
L 299.287273 41.472 
L 295.68 41.472 
L 292.072727 41.472 
L 288.465455 41.472 
L 284.858182 41.472 
L 281.250909 41.472 
L 277.643636 41.472 
L 274.036364 41.472 
L 270.429091 41.472 
L 266.821818 41.472 
L 263.214545 41.472 
L 259.607273 41.472 
L 256 41.472 
L 252.392727 41.472 
L 248.785455 41.472 
L 245.178182 41.472 
L 241.570909 41.472 
L 237.963636 41.472 
L 234.356364 41.472 
L 230.749091 41.472 
L 227.141818 41.472 
L 223.534545 41.472 
L 219.927273 41.472 
L 216.32 41.472 
L 212.712727 41.472 
L 209.105455 41.472 
L 205.498182 41.472 
L 201.890909 41.472 
L 198.283636 41.472 
L 194.676364 41.472 
L 191.069091 41.472 
L 189.923336 41.472 
L 189.923336 44.16 
L 189.923336 46.848 
L 189.923336 49.536 
L 189.923336 52.224 
L 189.923336 54.912 
L 189.923336 57.6 
L 189.923336 60.288 
L 189.923336 62.976 
L 189.923336 65.664 
L 189.923336 68.352 
L 189.923336 71.04 
L 189.923336 73.728 
L 189.923336 76.416 
L 189.923336 79.104 
L 189.923336 81.792 
L 189.923336 84.48 
L 189.923336 87.168 
L 189.923336 89.856 
L 189.923336 92.544 
L 189.923336 95.232 
L 189.923336 97.92 
L 189.923336 100.608 
L 189.923336 103.296 
L 189.923336 105.984 
L 189.923336 108.672 
L 189.923336 111.36 
L 189.923336 114.048 
L 189.923336 116.736 
L 189.923336 119.424 
L 189.923336 122.112 
L 189.923336 124.8 
L 189.923336 127.488 
L 189.923336 130.176 
L 189.923336 132.864 
L 189.923336 135.552 
L 189.923336 138.24 
L 189.923336 140.928 
L 189.923336 143.616 
L 189.923336 146.304 
L 189.923336 148.992 
L 189.923336 151.68 
L 189.923336 154.368 
L 189.923336 157.056 
L 189.923336 159.744 
L 189.923336 162.432 
L 189.923336 165.12 
L 189.923336 167.808 
L 189.923336 170.496 
L 189.923336 173.184 
L 189.923336 175.872 
L 189.923336 178.56 
L 189.923336 181.248 
L 189.923336 183.936 
L 189.923336 186.624 
L 189.923336 189.312 
L 189.923336 192 
L 189.923336 194.688 
L 189.923336 197.376 
L 189.473496 200.064 
L 189.473496 202.752 
L 188.780179 205.44 
L 188.780179 208.128 
L 188.780179 210.816 
L 188.780179 213.504 
L 188.332775 216.192 
L 188.332775 218.88 
L 188.04576 221.568 
L 188.04576 224.256 
L 188.04576 226.944 
L 188.04576 229.632 
L 188.04576 232.32 
L 187.461818 234.146631 
L 186.409478 235.008 
L 184.244289 237.696 
L 184.244289 240.384 
L 183.854545 240.782628 
L 180.247273 240.782628 
L 178.630698 243.072 
L 176.64 244.613005 
L 173.032727 244.613005 
L 169.815911 245.76 
L 169.425455 245.875057 
L 165.818182 247.692286 
L 164.221491 248.448 
L 164.221491 251.136 
L 164.221491 253.824 
L 164.221491 256.512 
L 164.221491 259.2 
L 164.221491 261.888 
L 164.221491 264.576 
L 164.221491 267.264 
L 164.221491 269.952 
L 162.464696 272.64 
L 162.464696 275.328 
L 162.464696 278.016 
L 162.464696 280.704 
L 162.464696 283.392 
L 162.210909 283.648271 
L 158.603636 283.648271 
L 154.996364 283.648271 
L 151.389091 283.648271 
L 147.781818 283.648271 
L 144.174545 283.648271 
L 140.567273 283.648271 
L 136.96 283.648271 
L 133.352727 283.648271 
L 129.745455 283.648271 
L 126.138182 283.648271 
L 122.530909 283.648271 
L 118.923636 283.648271 
L 115.316364 283.648271 
L 111.709091 283.648271 
L 108.101818 283.648271 
L 104.494545 283.648271 
L 100.887273 283.648271 
L 97.28 283.648271 
L 93.672727 283.648271 
L 90.065455 283.648271 
L 86.458182 283.648271 
L 82.850909 283.648271 
L 79.243636 283.648271 
L 75.636364 283.648271 
L 72.029091 283.648271 
L 68.421818 283.648271 
L 64.814545 283.648271 
L 61.207273 283.648271 
L 57.6 283.648271 
L 57.6 286.08 
L 57.6 288.768 
L 57.6 291.456 
L 57.6 294.144 
L 57.6 296.832 
L 57.6 299.52 
L 57.6 302.208 
L 57.6 304.896 
L 57.6 306.841716 
z
" clip-path="url(#p5b60818ecb)" style="fill: #3f4788; fill-opacity: 0.75"/>
   </g>
   <g id="PathCollection_3">
    <path d="M 61.207273 307.584 
L 64.814545 307.584 
L 68.421818 307.584 
L 72.029091 307.584 
L 75.636364 307.584 
L 79.243636 307.584 
L 82.850909 307.584 
L 86.458182 307.584 
L 90.065455 307.584 
L 93.672727 307.584 
L 97.28 307.584 
L 100.887273 307.584 
L 104.494545 307.584 
L 108.101818 307.584 
L 111.709091 307.584 
L 115.316364 307.584 
L 118.923636 307.584 
L 122.530909 307.584 
L 126.138182 307.584 
L 129.745455 307.584 
L 133.352727 307.584 
L 136.96 307.584 
L 140.567273 307.584 
L 144.174545 307.584 
L 147.781818 307.584 
L 151.389091 307.584 
L 154.996364 307.584 
L 158.603636 307.584 
L 162.210909 307.584 
L 165.818182 307.584 
L 169.425455 307.584 
L 173.032727 307.584 
L 176.64 307.584 
L 180.247273 307.584 
L 183.854545 307.584 
L 187.461818 307.584 
L 189.989737 307.584 
L 191.069091 307.344494 
L 194.676364 306.528492 
L 198.283636 306.297787 
L 201.890909 306.297787 
L 205.498182 306.297787 
L 209.105455 306.297787 
L 212.712727 306.297787 
L 216.32 306.297787 
L 219.927273 306.172831 
L 223.534545 306.172831 
L 227.141818 306.172831 
L 230.749091 306.172831 
L 234.356364 306.172831 
L 237.963636 306.172831 
L 241.570909 306.070533 
L 245.178182 306.070533 
L 248.785455 306.070533 
L 252.392727 306.070533 
L 256 306.070533 
L 259.607273 305.893815 
L 263.214545 305.893815 
L 266.821818 305.893815 
L 270.429091 305.893815 
L 274.036364 305.893815 
L 277.643636 305.893815 
L 281.250909 305.893815 
L 284.858182 305.893815 
L 288.465455 305.440816 
L 292.072727 305.440816 
L 295.68 305.440816 
L 299.287273 305.440816 
L 302.894545 305.440816 
L 306.501818 305.440816 
L 307.19313 304.896 
L 307.19313 302.208 
L 307.19313 299.52 
L 307.673412 296.832 
L 307.673412 294.144 
L 307.673412 291.456 
L 307.673412 288.768 
L 307.561424 286.08 
L 307.76233 283.392 
L 307.76233 280.704 
L 307.76233 278.016 
L 307.76233 275.328 
L 307.76233 272.64 
L 307.894921 269.952 
L 307.894921 267.264 
L 307.894921 264.576 
L 307.894921 261.888 
L 307.894921 259.2 
L 307.894921 256.512 
L 307.894921 253.824 
L 307.894921 251.136 
L 307.894921 248.448 
L 308.323554 245.76 
L 308.67779 243.072 
L 308.871418 240.384 
L 308.871418 237.696 
L 309.030942 235.008 
L 309.272891 232.32 
L 309.272891 229.632 
L 309.272891 226.944 
L 309.272891 224.256 
L 309.272891 221.568 
L 309.353705 218.88 
L 309.353705 216.192 
L 309.479677 213.504 
L 309.479677 210.816 
L 309.479677 208.128 
L 309.479677 205.44 
L 309.558113 202.752 
L 309.558113 200.064 
L 309.684772 197.376 
L 309.684772 194.688 
L 309.684772 192 
L 309.684772 189.312 
L 309.684772 186.624 
L 309.684772 183.936 
L 309.684772 181.248 
L 309.684772 178.56 
L 309.684772 175.872 
L 309.684772 173.184 
L 309.684772 170.496 
L 309.684772 167.808 
L 309.684772 165.12 
L 309.684772 162.432 
L 309.684772 159.744 
L 309.684772 157.056 
L 309.684772 154.368 
L 309.684772 151.68 
L 309.684772 148.992 
L 309.684772 146.304 
L 309.684772 143.616 
L 309.684772 140.928 
L 309.684772 138.24 
L 309.684772 135.552 
L 309.684772 132.864 
L 309.684772 130.176 
L 309.684772 127.488 
L 309.684772 124.8 
L 309.684772 122.112 
L 309.684772 119.424 
L 309.684772 116.736 
L 309.684772 114.048 
L 309.684772 111.36 
L 309.684772 108.672 
L 309.684772 105.984 
L 309.684772 103.296 
L 309.684772 100.608 
L 309.684772 97.92 
L 309.684772 95.232 
L 309.684772 92.544 
L 309.684772 89.856 
L 309.684772 87.168 
L 309.684772 84.48 
L 309.684772 81.792 
L 309.684772 79.104 
L 309.684772 76.416 
L 309.684772 73.728 
L 309.684772 71.04 
L 309.684772 68.352 
L 309.684772 65.664 
L 309.684772 62.976 
L 309.684772 60.288 
L 309.684772 57.6 
L 309.684772 54.912 
L 309.684772 52.224 
L 309.684772 49.536 
L 309.684772 46.848 
L 309.684772 44.16 
L 309.684772 41.472 
L 306.665823 41.472 
L 306.665823 44.16 
L 306.665823 46.848 
L 306.665823 49.536 
L 306.665823 52.224 
L 306.665823 54.912 
L 306.665823 57.6 
L 306.665823 60.288 
L 306.665823 62.976 
L 306.665823 65.664 
L 306.665823 68.352 
L 306.665823 71.04 
L 306.665823 73.728 
L 306.665823 76.416 
L 306.665823 79.104 
L 306.665823 81.792 
L 306.665823 84.48 
L 306.665823 87.168 
L 306.665823 89.856 
L 306.665823 92.544 
L 306.665823 95.232 
L 306.665823 97.92 
L 306.665823 100.608 
L 306.665823 103.296 
L 306.665823 105.984 
L 306.665823 108.672 
L 306.665823 111.36 
L 306.665823 114.048 
L 306.665823 116.736 
L 306.665823 119.424 
L 306.665823 122.112 
L 306.665823 124.8 
L 306.665823 127.488 
L 306.665823 130.176 
L 306.665823 132.864 
L 306.665823 135.552 
L 306.665823 138.24 
L 306.665823 140.928 
L 306.665823 143.616 
L 306.665823 146.304 
L 306.665823 148.992 
L 306.665823 151.68 
L 306.665823 154.368 
L 306.665823 157.056 
L 306.665823 159.744 
L 306.665823 162.432 
L 306.665823 165.12 
L 306.665823 167.808 
L 306.665823 170.496 
L 306.665823 173.184 
L 306.665823 175.872 
L 306.665823 178.56 
L 306.665823 181.248 
L 306.665823 183.936 
L 306.665823 186.624 
L 306.665823 189.312 
L 306.665823 192 
L 306.665823 194.688 
L 306.665823 197.376 
L 306.539165 200.064 
L 306.539165 202.752 
L 306.501818 204.031872 
L 302.894545 204.031872 
L 299.287273 204.031872 
L 295.68 204.031872 
L 292.072727 204.031872 
L 288.465455 204.031872 
L 288.207596 205.44 
L 288.207596 208.128 
L 288.207596 210.816 
L 288.207596 213.504 
L 287.417038 216.192 
L 287.417038 218.88 
L 286.909885 221.568 
L 286.909885 224.256 
L 286.909885 226.944 
L 286.909885 229.632 
L 286.909885 232.32 
L 285.391501 235.008 
L 284.858182 236.439972 
L 281.250909 236.439972 
L 277.643636 236.439972 
L 274.036364 236.439972 
L 270.429091 236.439972 
L 266.821818 236.439972 
L 263.214545 236.439972 
L 259.607273 236.439972 
L 258.408139 237.696 
L 258.408139 240.384 
L 256 242.46211 
L 252.392727 242.46211 
L 248.785455 242.46211 
L 245.178182 242.46211 
L 241.570909 242.46211 
L 240.350007 243.072 
L 237.963636 243.723608 
L 234.356364 243.723608 
L 230.749091 243.723608 
L 227.141818 243.723608 
L 223.534545 243.723608 
L 219.927273 243.723608 
L 216.32 244.926762 
L 212.712727 244.926762 
L 209.105455 244.926762 
L 205.498182 244.926762 
L 201.890909 244.926762 
L 198.283636 244.926762 
L 196.930539 245.76 
L 194.676364 246.907184 
L 193.820369 248.448 
L 193.820369 251.136 
L 193.820369 253.824 
L 193.820369 256.512 
L 193.820369 259.2 
L 193.820369 261.888 
L 193.820369 264.576 
L 193.820369 267.264 
L 193.820369 269.952 
L 193.358437 272.64 
L 193.358437 275.328 
L 193.358437 278.016 
L 193.358437 280.704 
L 193.358437 283.392 
L 192.658507 286.08 
L 193.048659 288.768 
L 193.048659 291.456 
L 193.048659 294.144 
L 193.048659 296.832 
L 191.375415 299.52 
L 191.375415 302.208 
L 191.375415 304.896 
L 191.069091 304.965294 
L 187.461818 305.765738 
L 183.854545 305.97519 
L 180.247273 305.97519 
L 176.64 306.265201 
L 173.032727 306.265201 
L 169.425455 306.398785 
L 165.818182 306.627156 
L 162.210909 306.841716 
L 158.603636 306.841716 
L 154.996364 306.841716 
L 151.389091 306.841716 
L 147.781818 306.841716 
L 144.174545 306.841716 
L 140.567273 306.841716 
L 136.96 306.841716 
L 133.352727 306.841716 
L 129.745455 306.841716 
L 126.138182 306.841716 
L 122.530909 306.841716 
L 118.923636 306.841716 
L 115.316364 306.841716 
L 111.709091 306.841716 
L 108.101818 306.841716 
L 104.494545 306.841716 
L 100.887273 306.841716 
L 97.28 306.841716 
L 93.672727 306.841716 
L 90.065455 306.841716 
L 86.458182 306.841716 
L 82.850909 306.841716 
L 79.243636 306.841716 
L 75.636364 306.841716 
L 72.029091 306.841716 
L 68.421818 306.841716 
L 64.814545 306.841716 
L 61.207273 306.841716 
L 57.6 306.841716 
L 57.6 307.584 
z
" clip-path="url(#p5b60818ecb)" style="fill: #2e6e8e; fill-opacity: 0.75"/>
   </g>
   <g id="PathCollection_4">
    <path d="M 191.069091 307.584 
L 194.676364 307.584 
L 198.283636 307.584 
L 201.890909 307.584 
L 205.498182 307.584 
L 209.105455 307.584 
L 212.712727 307.584 
L 216.32 307.584 
L 219.927273 307.584 
L 223.534545 307.584 
L 227.141818 307.584 
L 230.749091 307.584 
L 234.356364 307.584 
L 237.963636 307.584 
L 241.570909 307.584 
L 245.178182 307.584 
L 248.785455 307.584 
L 252.392727 307.584 
L 256 307.584 
L 259.607273 307.584 
L 263.214545 307.584 
L 266.821818 307.584 
L 270.429091 307.584 
L 274.036364 307.584 
L 277.643636 307.584 
L 281.250909 307.584 
L 284.858182 307.584 
L 288.465455 307.584 
L 292.072727 307.584 
L 295.68 307.584 
L 299.287273 307.584 
L 302.894545 307.584 
L 306.501818 307.584 
L 306.801297 307.584 
L 310.109091 304.977163 
L 313.716364 304.977163 
L 317.323636 304.977163 
L 317.984982 304.896 
L 317.984982 302.208 
L 317.984982 299.52 
L 320.930909 296.952491 
L 324.538182 296.952491 
L 324.702591 296.832 
L 324.702591 294.144 
L 324.702591 291.456 
L 324.702591 288.768 
L 324.538182 288.251251 
L 320.930909 288.251251 
L 320.350017 286.08 
L 320.930909 284.869709 
L 324.538182 284.869709 
L 325.381627 283.392 
L 325.381627 280.704 
L 325.381627 278.016 
L 325.381627 275.328 
L 325.381627 272.64 
L 326.394185 269.952 
L 326.394185 267.264 
L 326.394185 264.576 
L 326.394185 261.888 
L 326.394185 259.2 
L 326.394185 256.512 
L 326.394185 253.824 
L 326.394185 251.136 
L 326.394185 248.448 
L 328.145455 247.009894 
L 331.752727 247.009894 
L 335.36 247.009894 
L 337.175547 245.76 
L 338.967273 244.26744 
L 339.153093 243.072 
L 339.381481 240.384 
L 339.381481 237.696 
L 339.569641 235.008 
L 339.855024 232.32 
L 339.855024 229.632 
L 339.855024 226.944 
L 339.855024 224.256 
L 339.855024 221.568 
L 339.950344 218.88 
L 339.950344 216.192 
L 340.098931 213.504 
L 340.098931 210.816 
L 340.098931 208.128 
L 340.098931 205.44 
L 340.191446 202.752 
L 340.191446 200.064 
L 340.340842 197.376 
L 340.340842 194.688 
L 340.340842 192 
L 340.340842 189.312 
L 340.340842 186.624 
L 340.340842 183.936 
L 340.340842 181.248 
L 340.340842 178.56 
L 340.340842 175.872 
L 340.340842 173.184 
L 340.340842 170.496 
L 340.340842 167.808 
L 340.340842 165.12 
L 340.340842 162.432 
L 340.340842 159.744 
L 340.340842 157.056 
L 340.340842 154.368 
L 340.340842 151.68 
L 340.340842 148.992 
L 340.340842 146.304 
L 340.340842 143.616 
L 340.340842 140.928 
L 340.340842 138.24 
L 340.340842 135.552 
L 340.340842 132.864 
L 340.340842 130.176 
L 340.340842 127.488 
L 340.340842 124.8 
L 340.340842 122.112 
L 340.340842 119.424 
L 340.340842 116.736 
L 340.340842 114.048 
L 340.340842 111.36 
L 340.340842 108.672 
L 340.340842 105.984 
L 340.340842 103.296 
L 340.340842 100.608 
L 340.340842 97.92 
L 340.340842 95.232 
L 340.340842 92.544 
L 340.340842 89.856 
L 340.340842 87.168 
L 340.340842 84.48 
L 340.340842 81.792 
L 340.340842 79.104 
L 340.340842 76.416 
L 340.340842 73.728 
L 340.340842 71.04 
L 340.340842 68.352 
L 340.340842 65.664 
L 340.340842 62.976 
L 340.340842 60.288 
L 340.340842 57.6 
L 340.340842 54.912 
L 340.340842 52.224 
L 340.340842 49.536 
L 340.340842 46.848 
L 340.340842 44.16 
L 340.340842 41.472 
L 338.967273 41.472 
L 335.36 41.472 
L 331.752727 41.472 
L 328.145455 41.472 
L 324.538182 41.472 
L 320.930909 41.472 
L 317.323636 41.472 
L 313.716364 41.472 
L 310.109091 41.472 
L 309.684772 41.472 
L 309.684772 44.16 
L 309.684772 46.848 
L 309.684772 49.536 
L 309.684772 52.224 
L 309.684772 54.912 
L 309.684772 57.6 
L 309.684772 60.288 
L 309.684772 62.976 
L 309.684772 65.664 
L 309.684772 68.352 
L 309.684772 71.04 
L 309.684772 73.728 
L 309.684772 76.416 
L 309.684772 79.104 
L 309.684772 81.792 
L 309.684772 84.48 
L 309.684772 87.168 
L 309.684772 89.856 
L 309.684772 92.544 
L 309.684772 95.232 
L 309.684772 97.92 
L 309.684772 100.608 
L 309.684772 103.296 
L 309.684772 105.984 
L 309.684772 108.672 
L 309.684772 111.36 
L 309.684772 114.048 
L 309.684772 116.736 
L 309.684772 119.424 
L 309.684772 122.112 
L 309.684772 124.8 
L 309.684772 127.488 
L 309.684772 130.176 
L 309.684772 132.864 
L 309.684772 135.552 
L 309.684772 138.24 
L 309.684772 140.928 
L 309.684772 143.616 
L 309.684772 146.304 
L 309.684772 148.992 
L 309.684772 151.68 
L 309.684772 154.368 
L 309.684772 157.056 
L 309.684772 159.744 
L 309.684772 162.432 
L 309.684772 165.12 
L 309.684772 167.808 
L 309.684772 170.496 
L 309.684772 173.184 
L 309.684772 175.872 
L 309.684772 178.56 
L 309.684772 181.248 
L 309.684772 183.936 
L 309.684772 186.624 
L 309.684772 189.312 
L 309.684772 192 
L 309.684772 194.688 
L 309.684772 197.376 
L 309.558113 200.064 
L 309.558113 202.752 
L 309.479677 205.44 
L 309.479677 208.128 
L 309.479677 210.816 
L 309.479677 213.504 
L 309.353705 216.192 
L 309.353705 218.88 
L 309.272891 221.568 
L 309.272891 224.256 
L 309.272891 226.944 
L 309.272891 229.632 
L 309.272891 232.32 
L 309.030942 235.008 
L 308.871418 237.696 
L 308.871418 240.384 
L 308.67779 243.072 
L 308.323554 245.76 
L 307.894921 248.448 
L 307.894921 251.136 
L 307.894921 253.824 
L 307.894921 256.512 
L 307.894921 259.2 
L 307.894921 261.888 
L 307.894921 264.576 
L 307.894921 267.264 
L 307.894921 269.952 
L 307.76233 272.64 
L 307.76233 275.328 
L 307.76233 278.016 
L 307.76233 280.704 
L 307.76233 283.392 
L 307.561424 286.08 
L 307.673412 288.768 
L 307.673412 291.456 
L 307.673412 294.144 
L 307.673412 296.832 
L 307.19313 299.52 
L 307.19313 302.208 
L 307.19313 304.896 
L 306.501818 305.440816 
L 302.894545 305.440816 
L 299.287273 305.440816 
L 295.68 305.440816 
L 292.072727 305.440816 
L 288.465455 305.440816 
L 284.858182 305.893815 
L 281.250909 305.893815 
L 277.643636 305.893815 
L 274.036364 305.893815 
L 270.429091 305.893815 
L 266.821818 305.893815 
L 263.214545 305.893815 
L 259.607273 305.893815 
L 256 306.070533 
L 252.392727 306.070533 
L 248.785455 306.070533 
L 245.178182 306.070533 
L 241.570909 306.070533 
L 237.963636 306.172831 
L 234.356364 306.172831 
L 230.749091 306.172831 
L 227.141818 306.172831 
L 223.534545 306.172831 
L 219.927273 306.172831 
L 216.32 306.297787 
L 212.712727 306.297787 
L 209.105455 306.297787 
L 205.498182 306.297787 
L 201.890909 306.297787 
L 198.283636 306.297787 
L 194.676364 306.528492 
L 191.069091 307.344494 
L 189.989737 307.584 
z
" clip-path="url(#p5b60818ecb)" style="fill: #21918c; fill-opacity: 0.75"/>
   </g>
   <g id="PathCollection_5">
    <path d="M 310.109091 307.356364 
L 313.716364 307.356364 
L 317.323636 307.356364 
L 320.930909 306.913662 
L 324.538182 306.913662 
L 328.145455 306.5414 
L 331.752727 306.5414 
L 335.36 306.5414 
L 338.967273 306.229312 
L 340.962808 304.896 
L 340.962808 302.208 
L 340.962808 299.52 
L 341.529307 296.832 
L 341.529307 294.144 
L 341.529307 291.456 
L 341.529307 288.768 
L 341.397215 286.08 
L 341.634186 283.392 
L 341.634186 280.704 
L 341.634186 278.016 
L 341.634186 275.328 
L 341.634186 272.64 
L 341.790579 269.952 
L 341.790579 267.264 
L 341.790579 264.576 
L 341.790579 261.888 
L 341.790579 259.2 
L 341.790579 256.512 
L 341.790579 253.824 
L 341.790579 251.136 
L 341.790579 248.448 
L 342.296158 245.76 
L 342.574545 243.969049 
L 343.995547 243.072 
L 346.181818 240.547081 
L 349.789091 240.547081 
L 353.396364 240.547081 
L 357.003636 240.547081 
L 360.610909 240.547081 
L 364.218182 240.547081 
L 367.825455 240.547081 
L 371.432727 240.547081 
L 375.04 240.547081 
L 378.647273 240.547081 
L 382.254545 240.547081 
L 385.861818 240.547081 
L 389.469091 240.547081 
L 393.076364 240.547081 
L 396.683636 240.547081 
L 400.290909 240.547081 
L 403.898182 240.547081 
L 407.505455 240.547081 
L 411.112727 240.547081 
L 414.72 240.547081 
L 414.72 240.384 
L 414.72 237.696 
L 414.72 235.008 
L 414.72 232.32 
L 414.72 229.632 
L 414.72 226.944 
L 414.72 224.256 
L 414.72 221.568 
L 414.72 218.88 
L 414.72 216.192 
L 414.72 213.504 
L 414.72 210.816 
L 414.72 208.128 
L 414.72 205.44 
L 414.72 202.752 
L 414.72 200.064 
L 414.72 197.376 
L 414.72 194.688 
L 414.72 192 
L 414.72 189.312 
L 414.72 186.624 
L 414.72 183.936 
L 414.72 181.248 
L 414.72 178.56 
L 414.72 175.872 
L 414.72 173.184 
L 414.72 170.496 
L 414.72 167.808 
L 414.72 165.12 
L 414.72 162.432 
L 414.72 159.744 
L 414.72 157.056 
L 414.72 154.368 
L 414.72 151.68 
L 414.72 148.992 
L 414.72 146.304 
L 414.72 143.616 
L 414.72 140.928 
L 414.72 138.24 
L 414.72 135.552 
L 414.72 132.864 
L 414.72 130.176 
L 414.72 127.488 
L 414.72 124.8 
L 414.72 122.112 
L 414.72 119.424 
L 414.72 116.736 
L 414.72 114.048 
L 414.72 111.36 
L 414.72 108.672 
L 414.72 105.984 
L 414.72 103.296 
L 414.72 100.608 
L 414.72 97.92 
L 414.72 95.232 
L 414.72 92.544 
L 414.72 89.856 
L 414.72 87.168 
L 414.72 84.48 
L 414.72 81.792 
L 414.72 79.104 
L 414.72 76.416 
L 414.72 73.728 
L 414.72 71.04 
L 414.72 68.352 
L 414.72 65.664 
L 414.72 62.976 
L 414.72 60.288 
L 414.72 57.6 
L 414.72 54.912 
L 414.72 52.224 
L 414.72 49.536 
L 414.72 46.848 
L 414.72 44.16 
L 414.72 41.472 
L 411.112727 41.472 
L 407.505455 41.472 
L 403.898182 41.472 
L 400.290909 41.472 
L 396.683636 41.472 
L 393.076364 41.472 
L 389.469091 41.472 
L 385.861818 41.472 
L 382.254545 41.472 
L 378.647273 41.472 
L 375.04 41.472 
L 371.432727 41.472 
L 367.825455 41.472 
L 364.218182 41.472 
L 360.610909 41.472 
L 357.003636 41.472 
L 353.396364 41.472 
L 349.789091 41.472 
L 346.181818 41.472 
L 342.574545 41.472 
L 340.340842 41.472 
L 340.340842 44.16 
L 340.340842 46.848 
L 340.340842 49.536 
L 340.340842 52.224 
L 340.340842 54.912 
L 340.340842 57.6 
L 340.340842 60.288 
L 340.340842 62.976 
L 340.340842 65.664 
L 340.340842 68.352 
L 340.340842 71.04 
L 340.340842 73.728 
L 340.340842 76.416 
L 340.340842 79.104 
L 340.340842 81.792 
L 340.340842 84.48 
L 340.340842 87.168 
L 340.340842 89.856 
L 340.340842 92.544 
L 340.340842 95.232 
L 340.340842 97.92 
L 340.340842 100.608 
L 340.340842 103.296 
L 340.340842 105.984 
L 340.340842 108.672 
L 340.340842 111.36 
L 340.340842 114.048 
L 340.340842 116.736 
L 340.340842 119.424 
L 340.340842 122.112 
L 340.340842 124.8 
L 340.340842 127.488 
L 340.340842 130.176 
L 340.340842 132.864 
L 340.340842 135.552 
L 340.340842 138.24 
L 340.340842 140.928 
L 340.340842 143.616 
L 340.340842 146.304 
L 340.340842 148.992 
L 340.340842 151.68 
L 340.340842 154.368 
L 340.340842 157.056 
L 340.340842 159.744 
L 340.340842 162.432 
L 340.340842 165.12 
L 340.340842 167.808 
L 340.340842 170.496 
L 340.340842 173.184 
L 340.340842 175.872 
L 340.340842 178.56 
L 340.340842 181.248 
L 340.340842 183.936 
L 340.340842 186.624 
L 340.340842 189.312 
L 340.340842 192 
L 340.340842 194.688 
L 340.340842 197.376 
L 340.191446 200.064 
L 340.191446 202.752 
L 340.098931 205.44 
L 340.098931 208.128 
L 340.098931 210.816 
L 340.098931 213.504 
L 339.950344 216.192 
L 339.950344 218.88 
L 339.855024 221.568 
L 339.855024 224.256 
L 339.855024 226.944 
L 339.855024 229.632 
L 339.855024 232.32 
L 339.569641 235.008 
L 339.381481 237.696 
L 339.381481 240.384 
L 339.153093 243.072 
L 338.967273 244.26744 
L 337.175547 245.76 
L 335.36 247.009894 
L 331.752727 247.009894 
L 328.145455 247.009894 
L 326.394185 248.448 
L 326.394185 251.136 
L 326.394185 253.824 
L 326.394185 256.512 
L 326.394185 259.2 
L 326.394185 261.888 
L 326.394185 264.576 
L 326.394185 267.264 
L 326.394185 269.952 
L 325.381627 272.64 
L 325.381627 275.328 
L 325.381627 278.016 
L 325.381627 280.704 
L 325.381627 283.392 
L 324.538182 284.869709 
L 320.930909 284.869709 
L 320.350017 286.08 
L 320.930909 288.251251 
L 324.538182 288.251251 
L 324.702591 288.768 
L 324.702591 291.456 
L 324.702591 294.144 
L 324.702591 296.832 
L 324.538182 296.952491 
L 320.930909 296.952491 
L 317.984982 299.52 
L 317.984982 302.208 
L 317.984982 304.896 
L 317.323636 304.977163 
L 313.716364 304.977163 
L 310.109091 304.977163 
L 306.801297 307.584 
L 309.820245 307.584 
z
" clip-path="url(#p5b60818ecb)" style="fill: #2db27d; fill-opacity: 0.75"/>
   </g>
   <g id="PathCollection_6">
    <path d="M 310.109091 307.584 
L 313.716364 307.584 
L 317.323636 307.584 
L 320.930909 307.584 
L 324.538182 307.584 
L 328.145455 307.584 
L 331.752727 307.584 
L 335.36 307.584 
L 338.967273 307.584 
L 340.500635 307.584 
L 342.574545 306.198322 
L 346.181818 305.961818 
L 349.789091 305.961818 
L 353.396364 305.961818 
L 357.003636 305.961818 
L 360.610909 305.961818 
L 364.218182 305.961818 
L 367.825455 305.961818 
L 371.432727 305.961818 
L 375.04 305.961818 
L 378.647273 305.961818 
L 382.254545 305.961818 
L 385.861818 305.961818 
L 389.469091 305.961818 
L 393.076364 305.961818 
L 396.683636 305.961818 
L 400.290909 305.961818 
L 403.898182 305.961818 
L 407.505455 305.961818 
L 411.112727 305.961818 
L 414.72 305.961818 
L 414.72 304.896 
L 414.72 302.208 
L 414.72 299.52 
L 414.72 296.832 
L 414.72 294.144 
L 414.72 291.456 
L 414.72 288.768 
L 414.72 286.08 
L 414.72 283.392 
L 414.72 280.704 
L 414.72 278.016 
L 414.72 275.328 
L 414.72 272.64 
L 414.72 269.952 
L 414.72 267.264 
L 414.72 264.576 
L 414.72 261.888 
L 414.72 259.2 
L 414.72 256.512 
L 414.72 253.824 
L 414.72 251.136 
L 414.72 248.448 
L 414.72 245.76 
L 414.72 243.072 
L 414.72 240.547081 
L 411.112727 240.547081 
L 407.505455 240.547081 
L 403.898182 240.547081 
L 400.290909 240.547081 
L 396.683636 240.547081 
L 393.076364 240.547081 
L 389.469091 240.547081 
L 385.861818 240.547081 
L 382.254545 240.547081 
L 378.647273 240.547081 
L 375.04 240.547081 
L 371.432727 240.547081 
L 367.825455 240.547081 
L 364.218182 240.547081 
L 360.610909 240.547081 
L 357.003636 240.547081 
L 353.396364 240.547081 
L 349.789091 240.547081 
L 346.181818 240.547081 
L 343.995547 243.072 
L 342.574545 243.969049 
L 342.296158 245.76 
L 341.790579 248.448 
L 341.790579 251.136 
L 341.790579 253.824 
L 341.790579 256.512 
L 341.790579 259.2 
L 341.790579 261.888 
L 341.790579 264.576 
L 341.790579 267.264 
L 341.790579 269.952 
L 341.634186 272.64 
L 341.634186 275.328 
L 341.634186 278.016 
L 341.634186 280.704 
L 341.634186 283.392 
L 341.397215 286.08 
L 341.529307 288.768 
L 341.529307 291.456 
L 341.529307 294.144 
L 341.529307 296.832 
L 340.962808 299.52 
L 340.962808 302.208 
L 340.962808 304.896 
L 338.967273 306.229312 
L 335.36 306.5414 
L 331.752727 306.5414 
L 328.145455 306.5414 
L 324.538182 306.913662 
L 320.930909 306.913662 
L 317.323636 307.356364 
L 313.716364 307.356364 
L 310.109091 307.356364 
L 309.820245 307.584 
z
" clip-path="url(#p5b60818ecb)" style="fill: #73d056; fill-opacity: 0.75"/>
   </g>
   <g id="PathCollection_7">
    <path d="M 342.574545 307.584 
L 346.181818 307.584 
L 349.789091 307.584 
L 353.396364 307.584 
L 357.003636 307.584 
L 360.610909 307.584 
L 364.218182 307.584 
L 367.825455 307.584 
L 371.432727 307.584 
L 375.04 307.584 
L 378.647273 307.584 
L 382.254545 307.584 
L 385.861818 307.584 
L 389.469091 307.584 
L 393.076364 307.584 
L 396.683636 307.584 
L 400.290909 307.584 
L 403.898182 307.584 
L 407.505455 307.584 
L 411.112727 307.584 
L 414.72 307.584 
L 414.72 305.961818 
L 411.112727 305.961818 
L 407.505455 305.961818 
L 403.898182 305.961818 
L 400.290909 305.961818 
L 396.683636 305.961818 
L 393.076364 305.961818 
L 389.469091 305.961818 
L 385.861818 305.961818 
L 382.254545 305.961818 
L 378.647273 305.961818 
L 375.04 305.961818 
L 371.432727 305.961818 
L 367.825455 305.961818 
L 364.218182 305.961818 
L 360.610909 305.961818 
L 357.003636 305.961818 
L 353.396364 305.961818 
L 349.789091 305.961818 
L 346.181818 305.961818 
L 342.574545 306.198322 
L 340.500635 307.584 
z
" clip-path="url(#p5b60818ecb)" style="fill: #d0e11c; fill-opacity: 0.75"/>
   </g>
   <g id="matplotlib.axis_1">
    <g id="xtick_1">
     <g id="line2d_1">
      <defs>
       <path id="m866417ee16" d="M 0 0 
L 0 3.5 
" style="stroke: #000000; stroke-width: 0.8"/>
      </defs>
      <g>
       <use xlink:href="#m866417ee16" x="79.142351" y="307.584" style="stroke: #000000; stroke-width: 0.8"/>
      </g>
     </g>
     <g id="text_1">
      <!-- 62.5 -->
      <g transform="translate(68.009538 322.182437) scale(0.1 -0.1)">
       <defs>
        <path id="DejaVuSans-36" d="M 2113 2584 
Q 1688 2584 1439 2293 
Q 1191 2003 1191 1497 
Q 1191 994 1439 701 
Q 1688 409 2113 409 
Q 2538 409 2786 701 
Q 3034 994 3034 1497 
Q 3034 2003 2786 2293 
Q 2538 2584 2113 2584 
z
M 3366 4563 
L 3366 3988 
Q 3128 4100 2886 4159 
Q 2644 4219 2406 4219 
Q 1781 4219 1451 3797 
Q 1122 3375 1075 2522 
Q 1259 2794 1537 2939 
Q 1816 3084 2150 3084 
Q 2853 3084 3261 2657 
Q 3669 2231 3669 1497 
Q 3669 778 3244 343 
Q 2819 -91 2113 -91 
Q 1303 -91 875 529 
Q 447 1150 447 2328 
Q 447 3434 972 4092 
Q 1497 4750 2381 4750 
Q 2619 4750 2861 4703 
Q 3103 4656 3366 4563 
z
" transform="scale(0.015625)"/>
        <path id="DejaVuSans-32" d="M 1228 531 
L 3431 531 
L 3431 0 
L 469 0 
L 469 531 
Q 828 903 1448 1529 
Q 2069 2156 2228 2338 
Q 2531 2678 2651 2914 
Q 2772 3150 2772 3378 
Q 2772 3750 2511 3984 
Q 2250 4219 1831 4219 
Q 1534 4219 1204 4116 
Q 875 4013 500 3803 
L 500 4441 
Q 881 4594 1212 4672 
Q 1544 4750 1819 4750 
Q 2544 4750 2975 4387 
Q 3406 4025 3406 3419 
Q 3406 3131 3298 2873 
Q 3191 2616 2906 2266 
Q 2828 2175 2409 1742 
Q 1991 1309 1228 531 
z
" transform="scale(0.015625)"/>
        <path id="DejaVuSans-2e" d="M 684 794 
L 1344 794 
L 1344 0 
L 684 0 
L 684 794 
z
" transform="scale(0.015625)"/>
        <path id="DejaVuSans-35" d="M 691 4666 
L 3169 4666 
L 3169 4134 
L 1269 4134 
L 1269 2991 
Q 1406 3038 1543 3061 
Q 1681 3084 1819 3084 
Q 2600 3084 3056 2656 
Q 3513 2228 3513 1497 
Q 3513 744 3044 326 
Q 2575 -91 1722 -91 
Q 1428 -91 1123 -41 
Q 819 9 494 109 
L 494 744 
Q 775 591 1075 516 
Q 1375 441 1709 441 
Q 2250 441 2565 725 
Q 2881 1009 2881 1497 
Q 2881 1984 2565 2268 
Q 2250 2553 1709 2553 
Q 1456 2553 1204 2497 
Q 953 2441 691 2322 
L 691 4666 
z
" transform="scale(0.015625)"/>
       </defs>
       <use xlink:href="#DejaVuSans-36"/>
       <use xlink:href="#DejaVuSans-32" x="63.623047"/>
       <use xlink:href="#DejaVuSans-2e" x="127.246094"/>
       <use xlink:href="#DejaVuSans-35" x="159.033203"/>
      </g>
     </g>
    </g>
    <g id="xtick_2">
     <g id="line2d_2">
      <g>
       <use xlink:href="#m866417ee16" x="120.839375" y="307.584" style="stroke: #000000; stroke-width: 0.8"/>
      </g>
     </g>
     <g id="text_2">
      <!-- 65.0 -->
      <g transform="translate(109.706562 322.182437) scale(0.1 -0.1)">
       <defs>
        <path id="DejaVuSans-30" d="M 2034 4250 
Q 1547 4250 1301 3770 
Q 1056 3291 1056 2328 
Q 1056 1369 1301 889 
Q 1547 409 2034 409 
Q 2525 409 2770 889 
Q 3016 1369 3016 2328 
Q 3016 3291 2770 3770 
Q 2525 4250 2034 4250 
z
M 2034 4750 
Q 2819 4750 3233 4129 
Q 3647 3509 3647 2328 
Q 3647 1150 3233 529 
Q 2819 -91 2034 -91 
Q 1250 -91 836 529 
Q 422 1150 422 2328 
Q 422 3509 836 4129 
Q 1250 4750 2034 4750 
z
" transform="scale(0.015625)"/>
       </defs>
       <use xlink:href="#DejaVuSans-36"/>
       <use xlink:href="#DejaVuSans-35" x="63.623047"/>
       <use xlink:href="#DejaVuSans-2e" x="127.246094"/>
       <use xlink:href="#DejaVuSans-30" x="159.033203"/>
      </g>
     </g>
    </g>
    <g id="xtick_3">
     <g id="line2d_3">
      <g>
       <use xlink:href="#m866417ee16" x="162.536399" y="307.584" style="stroke: #000000; stroke-width: 0.8"/>
      </g>
     </g>
     <g id="text_3">
      <!-- 67.5 -->
      <g transform="translate(151.403586 322.182437) scale(0.1 -0.1)">
       <defs>
        <path id="DejaVuSans-37" d="M 525 4666 
L 3525 4666 
L 3525 4397 
L 1831 0 
L 1172 0 
L 2766 4134 
L 525 4134 
L 525 4666 
z
" transform="scale(0.015625)"/>
       </defs>
       <use xlink:href="#DejaVuSans-36"/>
       <use xlink:href="#DejaVuSans-37" x="63.623047"/>
       <use xlink:href="#DejaVuSans-2e" x="127.246094"/>
       <use xlink:href="#DejaVuSans-35" x="159.033203"/>
      </g>
     </g>
    </g>
    <g id="xtick_4">
     <g id="line2d_4">
      <g>
       <use xlink:href="#m866417ee16" x="204.233423" y="307.584" style="stroke: #000000; stroke-width: 0.8"/>
      </g>
     </g>
     <g id="text_4">
      <!-- 70.0 -->
      <g transform="translate(193.10061 322.182437) scale(0.1 -0.1)">
       <use xlink:href="#DejaVuSans-37"/>
       <use xlink:href="#DejaVuSans-30" x="63.623047"/>
       <use xlink:href="#DejaVuSans-2e" x="127.246094"/>
       <use xlink:href="#DejaVuSans-30" x="159.033203"/>
      </g>
     </g>
    </g>
    <g id="xtick_5">
     <g id="line2d_5">
      <g>
       <use xlink:href="#m866417ee16" x="245.930447" y="307.584" style="stroke: #000000; stroke-width: 0.8"/>
      </g>
     </g>
     <g id="text_5">
      <!-- 72.5 -->
      <g transform="translate(234.797634 322.182437) scale(0.1 -0.1)">
       <use xlink:href="#DejaVuSans-37"/>
       <use xlink:href="#DejaVuSans-32" x="63.623047"/>
       <use xlink:href="#DejaVuSans-2e" x="127.246094"/>
       <use xlink:href="#DejaVuSans-35" x="159.033203"/>
      </g>
     </g>
    </g>
    <g id="xtick_6">
     <g id="line2d_6">
      <g>
       <use xlink:href="#m866417ee16" x="287.627471" y="307.584" style="stroke: #000000; stroke-width: 0.8"/>
      </g>
     </g>
     <g id="text_6">
      <!-- 75.0 -->
      <g transform="translate(276.494658 322.182437) scale(0.1 -0.1)">
       <use xlink:href="#DejaVuSans-37"/>
       <use xlink:href="#DejaVuSans-35" x="63.623047"/>
       <use xlink:href="#DejaVuSans-2e" x="127.246094"/>
       <use xlink:href="#DejaVuSans-30" x="159.033203"/>
      </g>
     </g>
    </g>
    <g id="xtick_7">
     <g id="line2d_7">
      <g>
       <use xlink:href="#m866417ee16" x="329.324495" y="307.584" style="stroke: #000000; stroke-width: 0.8"/>
      </g>
     </g>
     <g id="text_7">
      <!-- 77.5 -->
      <g transform="translate(318.191682 322.182437) scale(0.1 -0.1)">
       <use xlink:href="#DejaVuSans-37"/>
       <use xlink:href="#DejaVuSans-37" x="63.623047"/>
       <use xlink:href="#DejaVuSans-2e" x="127.246094"/>
       <use xlink:href="#DejaVuSans-35" x="159.033203"/>
      </g>
     </g>
    </g>
    <g id="xtick_8">
     <g id="line2d_8">
      <g>
       <use xlink:href="#m866417ee16" x="371.021519" y="307.584" style="stroke: #000000; stroke-width: 0.8"/>
      </g>
     </g>
     <g id="text_8">
      <!-- 80.0 -->
      <g transform="translate(359.888706 322.182437) scale(0.1 -0.1)">
       <defs>
        <path id="DejaVuSans-38" d="M 2034 2216 
Q 1584 2216 1326 1975 
Q 1069 1734 1069 1313 
Q 1069 891 1326 650 
Q 1584 409 2034 409 
Q 2484 409 2743 651 
Q 3003 894 3003 1313 
Q 3003 1734 2745 1975 
Q 2488 2216 2034 2216 
z
M 1403 2484 
Q 997 2584 770 2862 
Q 544 3141 544 3541 
Q 544 4100 942 4425 
Q 1341 4750 2034 4750 
Q 2731 4750 3128 4425 
Q 3525 4100 3525 3541 
Q 3525 3141 3298 2862 
Q 3072 2584 2669 2484 
Q 3125 2378 3379 2068 
Q 3634 1759 3634 1313 
Q 3634 634 3220 271 
Q 2806 -91 2034 -91 
Q 1263 -91 848 271 
Q 434 634 434 1313 
Q 434 1759 690 2068 
Q 947 2378 1403 2484 
z
M 1172 3481 
Q 1172 3119 1398 2916 
Q 1625 2713 2034 2713 
Q 2441 2713 2670 2916 
Q 2900 3119 2900 3481 
Q 2900 3844 2670 4047 
Q 2441 4250 2034 4250 
Q 1625 4250 1398 4047 
Q 1172 3844 1172 3481 
z
" transform="scale(0.015625)"/>
       </defs>
       <use xlink:href="#DejaVuSans-38"/>
       <use xlink:href="#DejaVuSans-30" x="63.623047"/>
       <use xlink:href="#DejaVuSans-2e" x="127.246094"/>
       <use xlink:href="#DejaVuSans-30" x="159.033203"/>
      </g>
     </g>
    </g>
    <g id="xtick_9">
     <g id="line2d_9">
      <g>
       <use xlink:href="#m866417ee16" x="412.718543" y="307.584" style="stroke: #000000; stroke-width: 0.8"/>
      </g>
     </g>
     <g id="text_9">
      <!-- 82.5 -->
      <g transform="translate(401.58573 322.182437) scale(0.1 -0.1)">
       <use xlink:href="#DejaVuSans-38"/>
       <use xlink:href="#DejaVuSans-32" x="63.623047"/>
       <use xlink:href="#DejaVuSans-2e" x="127.246094"/>
       <use xlink:href="#DejaVuSans-35" x="159.033203"/>
      </g>
     </g>
    </g>
    <g id="text_10">
     <!-- Life Expectancy -->
     <g transform="translate(196.538906 335.860562) scale(0.1 -0.1)">
      <defs>
       <path id="DejaVuSans-4c" d="M 628 4666 
L 1259 4666 
L 1259 531 
L 3531 531 
L 3531 0 
L 628 0 
L 628 4666 
z
" transform="scale(0.015625)"/>
       <path id="DejaVuSans-69" d="M 603 3500 
L 1178 3500 
L 1178 0 
L 603 0 
L 603 3500 
z
M 603 4863 
L 1178 4863 
L 1178 4134 
L 603 4134 
L 603 4863 
z
" transform="scale(0.015625)"/>
       <path id="DejaVuSans-66" d="M 2375 4863 
L 2375 4384 
L 1825 4384 
Q 1516 4384 1395 4259 
Q 1275 4134 1275 3809 
L 1275 3500 
L 2222 3500 
L 2222 3053 
L 1275 3053 
L 1275 0 
L 697 0 
L 697 3053 
L 147 3053 
L 147 3500 
L 697 3500 
L 697 3744 
Q 697 4328 969 4595 
Q 1241 4863 1831 4863 
L 2375 4863 
z
" transform="scale(0.015625)"/>
       <path id="DejaVuSans-65" d="M 3597 1894 
L 3597 1613 
L 953 1613 
Q 991 1019 1311 708 
Q 1631 397 2203 397 
Q 2534 397 2845 478 
Q 3156 559 3463 722 
L 3463 178 
Q 3153 47 2828 -22 
Q 2503 -91 2169 -91 
Q 1331 -91 842 396 
Q 353 884 353 1716 
Q 353 2575 817 3079 
Q 1281 3584 2069 3584 
Q 2775 3584 3186 3129 
Q 3597 2675 3597 1894 
z
M 3022 2063 
Q 3016 2534 2758 2815 
Q 2500 3097 2075 3097 
Q 1594 3097 1305 2825 
Q 1016 2553 972 2059 
L 3022 2063 
z
" transform="scale(0.015625)"/>
       <path id="DejaVuSans-20" transform="scale(0.015625)"/>
       <path id="DejaVuSans-45" d="M 628 4666 
L 3578 4666 
L 3578 4134 
L 1259 4134 
L 1259 2753 
L 3481 2753 
L 3481 2222 
L 1259 2222 
L 1259 531 
L 3634 531 
L 3634 0 
L 628 0 
L 628 4666 
z
" transform="scale(0.015625)"/>
       <path id="DejaVuSans-78" d="M 3513 3500 
L 2247 1797 
L 3578 0 
L 2900 0 
L 1881 1375 
L 863 0 
L 184 0 
L 1544 1831 
L 300 3500 
L 978 3500 
L 1906 2253 
L 2834 3500 
L 3513 3500 
z
" transform="scale(0.015625)"/>
       <path id="DejaVuSans-70" d="M 1159 525 
L 1159 -1331 
L 581 -1331 
L 581 3500 
L 1159 3500 
L 1159 2969 
Q 1341 3281 1617 3432 
Q 1894 3584 2278 3584 
Q 2916 3584 3314 3078 
Q 3713 2572 3713 1747 
Q 3713 922 3314 415 
Q 2916 -91 2278 -91 
Q 1894 -91 1617 61 
Q 1341 213 1159 525 
z
M 3116 1747 
Q 3116 2381 2855 2742 
Q 2594 3103 2138 3103 
Q 1681 3103 1420 2742 
Q 1159 2381 1159 1747 
Q 1159 1113 1420 752 
Q 1681 391 2138 391 
Q 2594 391 2855 752 
Q 3116 1113 3116 1747 
z
" transform="scale(0.015625)"/>
       <path id="DejaVuSans-63" d="M 3122 3366 
L 3122 2828 
Q 2878 2963 2633 3030 
Q 2388 3097 2138 3097 
Q 1578 3097 1268 2742 
Q 959 2388 959 1747 
Q 959 1106 1268 751 
Q 1578 397 2138 397 
Q 2388 397 2633 464 
Q 2878 531 3122 666 
L 3122 134 
Q 2881 22 2623 -34 
Q 2366 -91 2075 -91 
Q 1284 -91 818 406 
Q 353 903 353 1747 
Q 353 2603 823 3093 
Q 1294 3584 2113 3584 
Q 2378 3584 2631 3529 
Q 2884 3475 3122 3366 
z
" transform="scale(0.015625)"/>
       <path id="DejaVuSans-74" d="M 1172 4494 
L 1172 3500 
L 2356 3500 
L 2356 3053 
L 1172 3053 
L 1172 1153 
Q 1172 725 1289 603 
Q 1406 481 1766 481 
L 2356 481 
L 2356 0 
L 1766 0 
Q 1100 0 847 248 
Q 594 497 594 1153 
L 594 3053 
L 172 3053 
L 172 3500 
L 594 3500 
L 594 4494 
L 1172 4494 
z
" transform="scale(0.015625)"/>
       <path id="DejaVuSans-61" d="M 2194 1759 
Q 1497 1759 1228 1600 
Q 959 1441 959 1056 
Q 959 750 1161 570 
Q 1363 391 1709 391 
Q 2188 391 2477 730 
Q 2766 1069 2766 1631 
L 2766 1759 
L 2194 1759 
z
M 3341 1997 
L 3341 0 
L 2766 0 
L 2766 531 
Q 2569 213 2275 61 
Q 1981 -91 1556 -91 
Q 1019 -91 701 211 
Q 384 513 384 1019 
Q 384 1609 779 1909 
Q 1175 2209 1959 2209 
L 2766 2209 
L 2766 2266 
Q 2766 2663 2505 2880 
Q 2244 3097 1772 3097 
Q 1472 3097 1187 3025 
Q 903 2953 641 2809 
L 641 3341 
Q 956 3463 1253 3523 
Q 1550 3584 1831 3584 
Q 2591 3584 2966 3190 
Q 3341 2797 3341 1997 
z
" transform="scale(0.015625)"/>
       <path id="DejaVuSans-6e" d="M 3513 2113 
L 3513 0 
L 2938 0 
L 2938 2094 
Q 2938 2591 2744 2837 
Q 2550 3084 2163 3084 
Q 1697 3084 1428 2787 
Q 1159 2491 1159 1978 
L 1159 0 
L 581 0 
L 581 3500 
L 1159 3500 
L 1159 2956 
Q 1366 3272 1645 3428 
Q 1925 3584 2291 3584 
Q 2894 3584 3203 3211 
Q 3513 2838 3513 2113 
z
" transform="scale(0.015625)"/>
       <path id="DejaVuSans-79" d="M 2059 -325 
Q 1816 -950 1584 -1140 
Q 1353 -1331 966 -1331 
L 506 -1331 
L 506 -850 
L 844 -850 
Q 1081 -850 1212 -737 
Q 1344 -625 1503 -206 
L 1606 56 
L 191 3500 
L 800 3500 
L 1894 763 
L 2988 3500 
L 3597 3500 
L 2059 -325 
z
" transform="scale(0.015625)"/>
      </defs>
      <use xlink:href="#DejaVuSans-4c"/>
      <use xlink:href="#DejaVuSans-69" x="55.712891"/>
      <use xlink:href="#DejaVuSans-66" x="83.496094"/>
      <use xlink:href="#DejaVuSans-65" x="118.701172"/>
      <use xlink:href="#DejaVuSans-20" x="180.224609"/>
      <use xlink:href="#DejaVuSans-45" x="212.011719"/>
      <use xlink:href="#DejaVuSans-78" x="275.195312"/>
      <use xlink:href="#DejaVuSans-70" x="334.375"/>
      <use xlink:href="#DejaVuSans-65" x="397.851562"/>
      <use xlink:href="#DejaVuSans-63" x="459.375"/>
      <use xlink:href="#DejaVuSans-74" x="514.355469"/>
      <use xlink:href="#DejaVuSans-61" x="553.564453"/>
      <use xlink:href="#DejaVuSans-6e" x="614.84375"/>
      <use xlink:href="#DejaVuSans-63" x="678.222656"/>
      <use xlink:href="#DejaVuSans-79" x="733.203125"/>
     </g>
    </g>
   </g>
   <g id="matplotlib.axis_2">
    <g id="ytick_1">
     <g id="line2d_10">
      <defs>
       <path id="mbd9c084081" d="M 0 0 
L -3.5 0 
" style="stroke: #000000; stroke-width: 0.8"/>
      </defs>
      <g>
       <use xlink:href="#mbd9c084081" x="57.6" y="307.584" style="stroke: #000000; stroke-width: 0.8"/>
      </g>
     </g>
     <g id="text_11">
      <!-- 0 -->
      <g transform="translate(44.2375 311.383219) scale(0.1 -0.1)">
       <use xlink:href="#DejaVuSans-30"/>
      </g>
     </g>
    </g>
    <g id="ytick_2">
     <g id="line2d_11">
      <g>
       <use xlink:href="#mbd9c084081" x="57.6" y="262.630826" style="stroke: #000000; stroke-width: 0.8"/>
      </g>
     </g>
     <g id="text_12">
      <!-- 5 -->
      <g transform="translate(44.2375 266.430045) scale(0.1 -0.1)">
       <use xlink:href="#DejaVuSans-35"/>
      </g>
     </g>
    </g>
    <g id="ytick_3">
     <g id="line2d_12">
      <g>
       <use xlink:href="#mbd9c084081" x="57.6" y="217.677652" style="stroke: #000000; stroke-width: 0.8"/>
      </g>
     </g>
     <g id="text_13">
      <!-- 10 -->
      <g transform="translate(37.875 221.476871) scale(0.1 -0.1)">
       <defs>
        <path id="DejaVuSans-31" d="M 794 531 
L 1825 531 
L 1825 4091 
L 703 3866 
L 703 4441 
L 1819 4666 
L 2450 4666 
L 2450 531 
L 3481 531 
L 3481 0 
L 794 0 
L 794 531 
z
" transform="scale(0.015625)"/>
       </defs>
       <use xlink:href="#DejaVuSans-31"/>
       <use xlink:href="#DejaVuSans-30" x="63.623047"/>
      </g>
     </g>
    </g>
    <g id="ytick_4">
     <g id="line2d_13">
      <g>
       <use xlink:href="#mbd9c084081" x="57.6" y="172.724479" style="stroke: #000000; stroke-width: 0.8"/>
      </g>
     </g>
     <g id="text_14">
      <!-- 15 -->
      <g transform="translate(37.875 176.523697) scale(0.1 -0.1)">
       <use xlink:href="#DejaVuSans-31"/>
       <use xlink:href="#DejaVuSans-35" x="63.623047"/>
      </g>
     </g>
    </g>
    <g id="ytick_5">
     <g id="line2d_14">
      <g>
       <use xlink:href="#mbd9c084081" x="57.6" y="127.771305" style="stroke: #000000; stroke-width: 0.8"/>
      </g>
     </g>
     <g id="text_15">
      <!-- 20 -->
      <g transform="translate(37.875 131.570524) scale(0.1 -0.1)">
       <use xlink:href="#DejaVuSans-32"/>
       <use xlink:href="#DejaVuSans-30" x="63.623047"/>
      </g>
     </g>
    </g>
    <g id="ytick_6">
     <g id="line2d_15">
      <g>
       <use xlink:href="#mbd9c084081" x="57.6" y="82.818131" style="stroke: #000000; stroke-width: 0.8"/>
      </g>
     </g>
     <g id="text_16">
      <!-- 25 -->
      <g transform="translate(37.875 86.61735) scale(0.1 -0.1)">
       <use xlink:href="#DejaVuSans-32"/>
       <use xlink:href="#DejaVuSans-35" x="63.623047"/>
      </g>
     </g>
    </g>
    <g id="text_17">
     <!-- Share without Improved Water -->
     <g transform="translate(31.795312 251.030344) rotate(-90) scale(0.1 -0.1)">
      <defs>
       <path id="DejaVuSans-53" d="M 3425 4513 
L 3425 3897 
Q 3066 4069 2747 4153 
Q 2428 4238 2131 4238 
Q 1616 4238 1336 4038 
Q 1056 3838 1056 3469 
Q 1056 3159 1242 3001 
Q 1428 2844 1947 2747 
L 2328 2669 
Q 3034 2534 3370 2195 
Q 3706 1856 3706 1288 
Q 3706 609 3251 259 
Q 2797 -91 1919 -91 
Q 1588 -91 1214 -16 
Q 841 59 441 206 
L 441 856 
Q 825 641 1194 531 
Q 1563 422 1919 422 
Q 2459 422 2753 634 
Q 3047 847 3047 1241 
Q 3047 1584 2836 1778 
Q 2625 1972 2144 2069 
L 1759 2144 
Q 1053 2284 737 2584 
Q 422 2884 422 3419 
Q 422 4038 858 4394 
Q 1294 4750 2059 4750 
Q 2388 4750 2728 4690 
Q 3069 4631 3425 4513 
z
" transform="scale(0.015625)"/>
       <path id="DejaVuSans-68" d="M 3513 2113 
L 3513 0 
L 2938 0 
L 2938 2094 
Q 2938 2591 2744 2837 
Q 2550 3084 2163 3084 
Q 1697 3084 1428 2787 
Q 1159 2491 1159 1978 
L 1159 0 
L 581 0 
L 581 4863 
L 1159 4863 
L 1159 2956 
Q 1366 3272 1645 3428 
Q 1925 3584 2291 3584 
Q 2894 3584 3203 3211 
Q 3513 2838 3513 2113 
z
" transform="scale(0.015625)"/>
       <path id="DejaVuSans-72" d="M 2631 2963 
Q 2534 3019 2420 3045 
Q 2306 3072 2169 3072 
Q 1681 3072 1420 2755 
Q 1159 2438 1159 1844 
L 1159 0 
L 581 0 
L 581 3500 
L 1159 3500 
L 1159 2956 
Q 1341 3275 1631 3429 
Q 1922 3584 2338 3584 
Q 2397 3584 2469 3576 
Q 2541 3569 2628 3553 
L 2631 2963 
z
" transform="scale(0.015625)"/>
       <path id="DejaVuSans-77" d="M 269 3500 
L 844 3500 
L 1563 769 
L 2278 3500 
L 2956 3500 
L 3675 769 
L 4391 3500 
L 4966 3500 
L 4050 0 
L 3372 0 
L 2619 2869 
L 1863 0 
L 1184 0 
L 269 3500 
z
" transform="scale(0.015625)"/>
       <path id="DejaVuSans-6f" d="M 1959 3097 
Q 1497 3097 1228 2736 
Q 959 2375 959 1747 
Q 959 1119 1226 758 
Q 1494 397 1959 397 
Q 2419 397 2687 759 
Q 2956 1122 2956 1747 
Q 2956 2369 2687 2733 
Q 2419 3097 1959 3097 
z
M 1959 3584 
Q 2709 3584 3137 3096 
Q 3566 2609 3566 1747 
Q 3566 888 3137 398 
Q 2709 -91 1959 -91 
Q 1206 -91 779 398 
Q 353 888 353 1747 
Q 353 2609 779 3096 
Q 1206 3584 1959 3584 
z
" transform="scale(0.015625)"/>
       <path id="DejaVuSans-75" d="M 544 1381 
L 544 3500 
L 1119 3500 
L 1119 1403 
Q 1119 906 1312 657 
Q 1506 409 1894 409 
Q 2359 409 2629 706 
Q 2900 1003 2900 1516 
L 2900 3500 
L 3475 3500 
L 3475 0 
L 2900 0 
L 2900 538 
Q 2691 219 2414 64 
Q 2138 -91 1772 -91 
Q 1169 -91 856 284 
Q 544 659 544 1381 
z
M 1991 3584 
L 1991 3584 
z
" transform="scale(0.015625)"/>
       <path id="DejaVuSans-49" d="M 628 4666 
L 1259 4666 
L 1259 0 
L 628 0 
L 628 4666 
z
" transform="scale(0.015625)"/>
       <path id="DejaVuSans-6d" d="M 3328 2828 
Q 3544 3216 3844 3400 
Q 4144 3584 4550 3584 
Q 5097 3584 5394 3201 
Q 5691 2819 5691 2113 
L 5691 0 
L 5113 0 
L 5113 2094 
Q 5113 2597 4934 2840 
Q 4756 3084 4391 3084 
Q 3944 3084 3684 2787 
Q 3425 2491 3425 1978 
L 3425 0 
L 2847 0 
L 2847 2094 
Q 2847 2600 2669 2842 
Q 2491 3084 2119 3084 
Q 1678 3084 1418 2786 
Q 1159 2488 1159 1978 
L 1159 0 
L 581 0 
L 581 3500 
L 1159 3500 
L 1159 2956 
Q 1356 3278 1631 3431 
Q 1906 3584 2284 3584 
Q 2666 3584 2933 3390 
Q 3200 3197 3328 2828 
z
" transform="scale(0.015625)"/>
       <path id="DejaVuSans-76" d="M 191 3500 
L 800 3500 
L 1894 563 
L 2988 3500 
L 3597 3500 
L 2284 0 
L 1503 0 
L 191 3500 
z
" transform="scale(0.015625)"/>
       <path id="DejaVuSans-64" d="M 2906 2969 
L 2906 4863 
L 3481 4863 
L 3481 0 
L 2906 0 
L 2906 525 
Q 2725 213 2448 61 
Q 2172 -91 1784 -91 
Q 1150 -91 751 415 
Q 353 922 353 1747 
Q 353 2572 751 3078 
Q 1150 3584 1784 3584 
Q 2172 3584 2448 3432 
Q 2725 3281 2906 2969 
z
M 947 1747 
Q 947 1113 1208 752 
Q 1469 391 1925 391 
Q 2381 391 2643 752 
Q 2906 1113 2906 1747 
Q 2906 2381 2643 2742 
Q 2381 3103 1925 3103 
Q 1469 3103 1208 2742 
Q 947 2381 947 1747 
z
" transform="scale(0.015625)"/>
       <path id="DejaVuSans-57" d="M 213 4666 
L 850 4666 
L 1831 722 
L 2809 4666 
L 3519 4666 
L 4500 722 
L 5478 4666 
L 6119 4666 
L 4947 0 
L 4153 0 
L 3169 4050 
L 2175 0 
L 1381 0 
L 213 4666 
z
" transform="scale(0.015625)"/>
      </defs>
      <use xlink:href="#DejaVuSans-53"/>
      <use xlink:href="#DejaVuSans-68" x="63.476562"/>
      <use xlink:href="#DejaVuSans-61" x="126.855469"/>
      <use xlink:href="#DejaVuSans-72" x="188.134766"/>
      <use xlink:href="#DejaVuSans-65" x="226.998047"/>
      <use xlink:href="#DejaVuSans-20" x="288.521484"/>
      <use xlink:href="#DejaVuSans-77" x="320.308594"/>
      <use xlink:href="#DejaVuSans-69" x="402.095703"/>
      <use xlink:href="#DejaVuSans-74" x="429.878906"/>
      <use xlink:href="#DejaVuSans-68" x="469.087891"/>
      <use xlink:href="#DejaVuSans-6f" x="532.466797"/>
      <use xlink:href="#DejaVuSans-75" x="593.648438"/>
      <use xlink:href="#DejaVuSans-74" x="657.027344"/>
      <use xlink:href="#DejaVuSans-20" x="696.236328"/>
      <use xlink:href="#DejaVuSans-49" x="728.023438"/>
      <use xlink:href="#DejaVuSans-6d" x="757.515625"/>
      <use xlink:href="#DejaVuSans-70" x="854.927734"/>
      <use xlink:href="#DejaVuSans-72" x="918.404297"/>
      <use xlink:href="#DejaVuSans-6f" x="957.267578"/>
      <use xlink:href="#DejaVuSans-76" x="1018.449219"/>
      <use xlink:href="#DejaVuSans-65" x="1077.628906"/>
      <use xlink:href="#DejaVuSans-64" x="1139.152344"/>
      <use xlink:href="#DejaVuSans-20" x="1202.628906"/>
      <use xlink:href="#DejaVuSans-57" x="1234.416016"/>
      <use xlink:href="#DejaVuSans-61" x="1326.917969"/>
      <use xlink:href="#DejaVuSans-74" x="1388.197266"/>
      <use xlink:href="#DejaVuSans-65" x="1427.40625"/>
      <use xlink:href="#DejaVuSans-72" x="1488.929688"/>
     </g>
    </g>
   </g>
   <g id="PathCollection_8"/>
   <g id="PathCollection_9">
    <path d="M 189.923336 41.472 
L 189.923336 44.16 
L 189.923336 46.848 
L 189.923336 49.536 
L 189.923336 52.224 
L 189.923336 54.912 
L 189.923336 57.6 
L 189.923336 60.288 
L 189.923336 62.976 
L 189.923336 65.664 
L 189.923336 68.352 
L 189.923336 71.04 
L 189.923336 73.728 
L 189.923336 74.589 
" clip-path="url(#p5b60818ecb)" style="fill: none; stroke: #000000; stroke-width: 0.5"/>
    <path d="M 189.923336 110.499 
L 189.923336 111.36 
L 189.923336 114.048 
L 189.923336 116.736 
L 189.923336 119.424 
L 189.923336 122.112 
L 189.923336 124.8 
L 189.923336 127.488 
L 189.923336 130.176 
L 189.923336 132.864 
L 189.923336 135.552 
L 189.923336 138.24 
L 189.923336 140.928 
L 189.923336 143.616 
L 189.923336 146.304 
L 189.923336 148.992 
L 189.923336 151.68 
L 189.923336 154.368 
L 189.923336 157.056 
L 189.923336 159.744 
L 189.923336 162.432 
L 189.923336 165.12 
L 189.923336 167.808 
L 189.923336 170.496 
L 189.923336 173.184 
L 189.923336 175.872 
L 189.923336 178.56 
L 189.923336 181.248 
L 189.923336 183.936 
L 189.923336 186.624 
L 189.923336 189.312 
L 189.923336 192 
L 189.923336 194.688 
L 189.923336 197.376 
L 189.473496 200.064 
L 189.473496 202.752 
L 188.780179 205.44 
L 188.780179 208.128 
L 188.780179 210.816 
L 188.780179 213.504 
L 188.332775 216.192 
L 188.332775 218.88 
L 188.04576 221.568 
L 188.04576 224.256 
L 188.04576 226.944 
L 188.04576 229.632 
L 188.04576 232.32 
L 187.461818 234.146631 
L 186.409478 235.008 
L 184.244289 237.696 
L 184.244289 240.384 
L 183.854545 240.782628 
L 180.247273 240.782628 
L 178.630698 243.072 
L 176.64 244.613005 
L 173.032727 244.613005 
L 169.815911 245.76 
L 169.425455 245.875057 
L 165.818182 247.692286 
L 164.221491 248.448 
L 164.221491 251.136 
L 164.221491 253.824 
L 164.221491 256.512 
L 164.221491 259.2 
L 164.221491 261.888 
L 164.221491 264.576 
L 164.221491 267.264 
L 164.221491 269.952 
L 162.464696 272.64 
L 162.464696 275.328 
L 162.464696 278.016 
L 162.464696 280.704 
L 162.464696 283.392 
L 162.210909 283.648271 
L 158.603636 283.648271 
L 154.996364 283.648271 
L 151.389091 283.648271 
L 147.781818 283.648271 
L 144.174545 283.648271 
L 140.567273 283.648271 
L 136.96 283.648271 
L 133.352727 283.648271 
L 129.745455 283.648271 
L 126.138182 283.648271 
L 122.530909 283.648271 
L 118.923636 283.648271 
L 115.316364 283.648271 
L 111.709091 283.648271 
L 108.101818 283.648271 
L 104.494545 283.648271 
L 100.887273 283.648271 
L 97.28 283.648271 
L 93.672727 283.648271 
L 90.065455 283.648271 
L 86.458182 283.648271 
L 82.850909 283.648271 
L 79.243636 283.648271 
L 75.636364 283.648271 
L 72.029091 283.648271 
L 68.421818 283.648271 
L 64.814545 283.648271 
L 61.207273 283.648271 
L 57.6 283.648271 
" clip-path="url(#p5b60818ecb)" style="fill: none; stroke: #000000; stroke-width: 0.5"/>
   </g>
   <g id="PathCollection_10">
    <path d="M 306.665823 41.472 
L 306.665823 44.16 
L 306.665823 46.848 
L 306.665823 49.536 
L 306.665823 52.224 
L 306.665823 54.912 
L 306.665823 57.6 
L 306.665823 60.288 
L 306.665823 62.976 
L 306.665823 65.664 
L 306.665823 68.352 
L 306.665823 71.04 
L 306.665823 73.728 
L 306.665823 74.589 
" clip-path="url(#p5b60818ecb)" style="fill: none; stroke: #000000; stroke-width: 0.5"/>
    <path d="M 306.665823 110.499 
L 306.665823 197.376 
L 306.539165 200.064 
L 306.501818 204.031872 
L 288.465455 204.031872 
L 288.207596 205.44 
L 288.207596 213.504 
L 287.417038 216.192 
L 287.417038 218.88 
L 286.909885 221.568 
L 286.909885 232.32 
L 285.391501 235.008 
L 284.858182 236.439972 
L 259.607273 236.439972 
L 258.408139 237.696 
L 258.408139 240.384 
L 256 242.46211 
L 241.570909 242.46211 
L 240.350007 243.072 
L 237.963636 243.723608 
L 219.927273 243.723608 
L 216.32 244.926762 
L 198.283636 244.926762 
L 196.930539 245.76 
L 194.676364 246.907184 
L 193.820369 248.448 
L 193.820369 269.952 
L 193.358437 272.64 
L 193.358437 283.392 
L 192.658507 286.08 
L 193.048659 288.768 
L 193.048659 296.832 
L 191.375415 299.52 
L 191.375415 304.896 
L 187.461818 305.765738 
L 183.854545 305.97519 
L 180.247273 305.97519 
L 176.64 306.265201 
L 173.032727 306.265201 
L 165.818182 306.627156 
L 162.210909 306.841716 
L 57.6 306.841716 
L 57.6 306.841716 
" clip-path="url(#p5b60818ecb)" style="fill: none; stroke: #000000; stroke-width: 0.5"/>
   </g>
   <g id="PathCollection_11">
    <path d="M 309.684772 41.472 
L 309.684772 44.16 
L 309.684772 46.848 
L 309.684772 49.536 
L 309.684772 52.224 
L 309.684772 54.912 
L 309.684772 57.6 
L 309.684772 60.288 
L 309.684772 62.976 
L 309.684772 65.664 
L 309.684772 68.352 
L 309.684772 71.04 
L 309.684772 73.728 
L 309.684772 76.416 
L 309.684772 79.104 
L 309.684772 81.792 
L 309.684772 84.48 
L 309.684772 87.168 
L 309.684772 89.856 
L 309.684772 92.544 
L 309.684772 95.232 
L 309.684772 97.92 
L 309.684772 100.608 
L 309.684772 103.296 
L 309.684772 105.984 
L 309.684772 108.672 
L 309.684772 111.36 
L 309.684772 114.048 
L 309.684772 116.736 
L 309.684772 119.424 
L 309.684772 122.112 
L 309.684772 124.8 
L 309.684772 127.488 
L 309.684772 130.176 
L 309.684772 132.864 
L 309.684772 135.552 
L 309.684772 138.24 
L 309.684772 140.928 
L 309.684772 143.616 
L 309.684772 146.304 
L 309.684772 148.992 
L 309.684772 151.68 
L 309.684772 154.368 
L 309.684772 157.056 
L 309.684772 159.744 
L 309.684772 162.432 
L 309.684772 165.12 
L 309.684772 167.808 
L 309.684772 170.496 
L 309.684772 173.184 
L 309.684772 175.872 
L 309.684772 178.56 
L 309.684772 179.421 
" clip-path="url(#p5b60818ecb)" style="fill: none; stroke: #000000; stroke-width: 0.5"/>
    <path d="M 309.394342 215.324875 
L 309.353705 216.192 
L 309.353705 218.88 
L 309.272891 221.568 
L 309.272891 224.256 
L 309.272891 226.944 
L 309.272891 229.632 
L 309.272891 232.32 
L 309.030942 235.008 
L 308.871418 237.696 
L 308.871418 240.384 
L 308.67779 243.072 
L 308.323554 245.76 
L 307.894921 248.448 
L 307.894921 251.136 
L 307.894921 253.824 
L 307.894921 256.512 
L 307.894921 259.2 
L 307.894921 261.888 
L 307.894921 264.576 
L 307.894921 267.264 
L 307.894921 269.952 
L 307.76233 272.64 
L 307.76233 275.328 
L 307.76233 278.016 
L 307.76233 280.704 
L 307.76233 283.392 
L 307.561424 286.08 
L 307.673412 288.768 
L 307.673412 291.456 
L 307.673412 294.144 
L 307.673412 296.832 
L 307.19313 299.52 
L 307.19313 302.208 
L 307.19313 304.896 
L 306.501818 305.440816 
L 302.894545 305.440816 
L 299.287273 305.440816 
L 295.68 305.440816 
L 292.072727 305.440816 
L 288.465455 305.440816 
L 284.858182 305.893815 
L 281.250909 305.893815 
L 277.643636 305.893815 
L 274.036364 305.893815 
L 270.429091 305.893815 
L 266.821818 305.893815 
L 263.214545 305.893815 
L 259.607273 305.893815 
L 256 306.070533 
L 252.392727 306.070533 
L 248.785455 306.070533 
L 245.178182 306.070533 
L 241.570909 306.070533 
L 237.963636 306.172831 
L 234.356364 306.172831 
L 230.749091 306.172831 
L 227.141818 306.172831 
L 223.534545 306.172831 
L 219.927273 306.172831 
L 216.32 306.297787 
L 212.712727 306.297787 
L 209.105455 306.297787 
L 205.498182 306.297787 
L 201.890909 306.297787 
L 198.283636 306.297787 
L 194.676364 306.528492 
L 191.069091 307.344494 
L 189.989737 307.584 
" clip-path="url(#p5b60818ecb)" style="fill: none; stroke: #000000; stroke-width: 0.5"/>
   </g>
   <g id="PathCollection_12">
    <path d="M 340.340842 41.472 
L 340.340842 44.16 
L 340.340842 46.848 
L 340.340842 49.536 
L 340.340842 52.224 
L 340.340842 54.912 
L 340.340842 57.6 
L 340.340842 60.288 
L 340.340842 62.976 
L 340.340842 65.664 
L 340.340842 68.352 
L 340.340842 71.04 
L 340.340842 73.728 
L 340.340842 76.416 
L 340.340842 79.104 
L 340.340842 81.792 
L 340.340842 84.48 
L 340.340842 87.168 
L 340.340842 89.856 
L 340.340842 92.544 
L 340.340842 95.232 
L 340.340842 97.92 
L 340.340842 100.608 
L 340.340842 103.296 
L 340.340842 105.984 
L 340.340842 108.672 
L 340.340842 111.36 
L 340.340842 114.048 
L 340.340842 116.736 
L 340.340842 119.424 
L 340.340842 122.112 
L 340.340842 124.8 
L 340.340842 127.488 
L 340.340842 130.176 
L 340.340842 132.864 
L 340.340842 135.552 
L 340.340842 138.24 
L 340.340842 140.928 
L 340.340842 143.616 
L 340.340842 146.304 
L 340.340842 148.992 
L 340.340842 151.68 
L 340.340842 154.368 
L 340.340842 157.056 
L 340.340842 159.744 
L 340.340842 162.432 
L 340.340842 165.12 
L 340.340842 167.808 
L 340.340842 170.496 
L 340.340842 173.184 
L 340.340842 175.872 
L 340.340842 178.56 
L 340.340842 181.248 
L 340.340842 183.936 
L 340.340842 186.624 
L 340.340842 189.312 
L 340.340842 192 
L 340.340842 194.688 
L 340.340842 197.376 
L 340.191446 200.064 
L 340.191446 202.752 
L 340.098931 205.44 
L 340.098931 208.128 
L 340.098931 210.816 
L 340.098931 213.504 
L 339.950344 216.192 
L 339.950344 218.88 
L 339.855024 221.568 
L 339.855024 224.256 
L 339.855024 226.944 
L 339.855024 229.632 
L 339.855024 232.32 
L 339.569641 235.008 
L 339.381481 237.696 
L 339.381481 240.384 
L 339.153093 243.072 
L 338.967273 244.26744 
L 337.175547 245.76 
L 335.36 247.009894 
L 331.752727 247.009894 
L 328.145455 247.009894 
L 326.394185 248.448 
L 326.394185 251.136 
L 326.394185 253.824 
L 326.394185 256.512 
L 326.394185 259.2 
L 326.394185 261.888 
L 326.394185 264.576 
L 326.394185 267.264 
L 326.394185 269.952 
L 325.576135 272.123645 
" clip-path="url(#p5b60818ecb)" style="fill: none; stroke: #000000; stroke-width: 0.5"/>
    <path d="M 321.248176 296.952491 
L 320.930909 296.952491 
L 317.984982 299.52 
L 317.984982 302.208 
L 317.984982 304.896 
L 317.323636 304.977163 
L 313.716364 304.977163 
L 310.109091 304.977163 
L 306.801297 307.584 
" clip-path="url(#p5b60818ecb)" style="fill: none; stroke: #000000; stroke-width: 0.5"/>
   </g>
   <g id="PathCollection_13">
    <path d="M 414.72 240.547081 
L 411.112727 240.547081 
L 407.505455 240.547081 
L 403.898182 240.547081 
L 400.290909 240.547081 
L 396.683636 240.547081 
L 393.076364 240.547081 
L 389.469091 240.547081 
L 385.861818 240.547081 
L 382.254545 240.547081 
L 378.647273 240.547081 
L 375.04 240.547081 
L 371.432727 240.547081 
L 367.825455 240.547081 
L 364.218182 240.547081 
L 364.136818 240.547081 
" clip-path="url(#p5b60818ecb)" style="fill: none; stroke: #000000; stroke-width: 0.5"/>
    <path d="M 341.790579 256.835039 
L 341.790579 259.2 
L 341.790579 261.888 
L 341.790579 264.576 
L 341.790579 267.264 
L 341.790579 269.952 
L 341.634186 272.64 
L 341.634186 275.328 
L 341.634186 278.016 
L 341.634186 280.704 
L 341.634186 283.392 
L 341.397215 286.08 
L 341.529307 288.768 
L 341.529307 291.456 
L 341.529307 294.144 
L 341.529307 296.832 
L 340.962808 299.52 
L 340.962808 302.208 
L 340.962808 304.896 
L 338.967273 306.229312 
L 335.36 306.5414 
L 331.752727 306.5414 
L 328.145455 306.5414 
L 324.538182 306.913662 
L 320.930909 306.913662 
L 317.323636 307.356364 
L 313.716364 307.356364 
L 310.109091 307.356364 
L 309.820245 307.584 
" clip-path="url(#p5b60818ecb)" style="fill: none; stroke: #000000; stroke-width: 0.5"/>
   </g>
   <g id="PathCollection_14">
    <path d="M 414.72 305.961818 
L 411.112727 305.961818 
L 407.505455 305.961818 
L 403.898182 305.961818 
L 400.290909 305.961818 
L 396.683636 305.961818 
L 393.076364 305.961818 
L 392.995 305.961818 
" clip-path="url(#p5b60818ecb)" style="fill: none; stroke: #000000; stroke-width: 0.5"/>
    <path d="M 357.085 305.961818 
L 357.003636 305.961818 
L 353.396364 305.961818 
L 349.789091 305.961818 
L 346.181818 305.961818 
L 342.574545 306.198322 
L 340.500635 307.584 
" clip-path="url(#p5b60818ecb)" style="fill: none; stroke: #000000; stroke-width: 0.5"/>
   </g>
   <g id="PathCollection_15"/>
   <g id="LineCollection_1">
    <path d="M 85.987334 307.584 
L 85.987334 294.2784 
" clip-path="url(#p5b60818ecb)" style="fill: none; stroke: #000000; stroke-width: 1.5"/>
    <path d="M 129.70583 307.584 
L 129.70583 294.2784 
" clip-path="url(#p5b60818ecb)" style="fill: none; stroke: #000000; stroke-width: 1.5"/>
    <path d="M 182.470912 307.584 
L 182.470912 294.2784 
" clip-path="url(#p5b60818ecb)" style="fill: none; stroke: #000000; stroke-width: 1.5"/>
    <path d="M 231.640043 307.584 
L 231.640043 294.2784 
" clip-path="url(#p5b60818ecb)" style="fill: none; stroke: #000000; stroke-width: 1.5"/>
    <path d="M 258.939918 307.584 
L 258.939918 294.2784 
" clip-path="url(#p5b60818ecb)" style="fill: none; stroke: #000000; stroke-width: 1.5"/>
    <path d="M 295.613285 307.584 
L 295.613285 294.2784 
" clip-path="url(#p5b60818ecb)" style="fill: none; stroke: #000000; stroke-width: 1.5"/>
    <path d="M 321.692271 307.584 
L 321.692271 294.2784 
" clip-path="url(#p5b60818ecb)" style="fill: none; stroke: #000000; stroke-width: 1.5"/>
    <path d="M 358.005376 307.584 
L 358.005376 294.2784 
" clip-path="url(#p5b60818ecb)" style="fill: none; stroke: #000000; stroke-width: 1.5"/>
    <path d="M 401.870645 307.584 
L 401.870645 294.2784 
" clip-path="url(#p5b60818ecb)" style="fill: none; stroke: #000000; stroke-width: 1.5"/>
   </g>
   <g id="LineCollection_2">
    <path clip-path="url(#p5b60818ecb)" style="fill: none; stroke: #000000; stroke-width: 1.5"/>
    <path clip-path="url(#p5b60818ecb)" style="fill: none; stroke: #000000; stroke-width: 1.5"/>
    <path clip-path="url(#p5b60818ecb)" style="fill: none; stroke: #000000; stroke-width: 1.5"/>
    <path clip-path="url(#p5b60818ecb)" style="fill: none; stroke: #000000; stroke-width: 1.5"/>
    <path clip-path="url(#p5b60818ecb)" style="fill: none; stroke: #000000; stroke-width: 1.5"/>
    <path clip-path="url(#p5b60818ecb)" style="fill: none; stroke: #000000; stroke-width: 1.5"/>
    <path clip-path="url(#p5b60818ecb)" style="fill: none; stroke: #000000; stroke-width: 1.5"/>
    <path clip-path="url(#p5b60818ecb)" style="fill: none; stroke: #000000; stroke-width: 1.5"/>
    <path clip-path="url(#p5b60818ecb)" style="fill: none; stroke: #000000; stroke-width: 1.5"/>
   </g>
   <g id="patch_3">
    <path d="M 57.6 307.584 
L 57.6 41.472 
" style="fill: none; stroke: #000000; stroke-width: 0.8; stroke-linejoin: miter; stroke-linecap: square"/>
   </g>
   <g id="patch_4">
    <path d="M 414.72 307.584 
L 414.72 41.472 
" style="fill: none; stroke: #000000; stroke-width: 0.8; stroke-linejoin: miter; stroke-linecap: square"/>
   </g>
   <g id="patch_5">
    <path d="M 57.6 307.584 
L 414.72 307.584 
" style="fill: none; stroke: #000000; stroke-width: 0.8; stroke-linejoin: miter; stroke-linecap: square"/>
   </g>
   <g id="patch_6">
    <path d="M 57.6 41.472 
L 414.72 41.472 
" style="fill: none; stroke: #000000; stroke-width: 0.8; stroke-linejoin: miter; stroke-linecap: square"/>
   </g>
   <g id="text_18">
    <!-- 2D-partial dependency plot between LE and SWIW -->
    <g transform="translate(84.530625 35.472) scale(0.12 -0.12)">
     <defs>
      <path id="DejaVuSans-44" d="M 1259 4147 
L 1259 519 
L 2022 519 
Q 2988 519 3436 956 
Q 3884 1394 3884 2338 
Q 3884 3275 3436 3711 
Q 2988 4147 2022 4147 
L 1259 4147 
z
M 628 4666 
L 1925 4666 
Q 3281 4666 3915 4102 
Q 4550 3538 4550 2338 
Q 4550 1131 3912 565 
Q 3275 0 1925 0 
L 628 0 
L 628 4666 
z
" transform="scale(0.015625)"/>
      <path id="DejaVuSans-2d" d="M 313 2009 
L 1997 2009 
L 1997 1497 
L 313 1497 
L 313 2009 
z
" transform="scale(0.015625)"/>
      <path id="DejaVuSans-6c" d="M 603 4863 
L 1178 4863 
L 1178 0 
L 603 0 
L 603 4863 
z
" transform="scale(0.015625)"/>
      <path id="DejaVuSans-62" d="M 3116 1747 
Q 3116 2381 2855 2742 
Q 2594 3103 2138 3103 
Q 1681 3103 1420 2742 
Q 1159 2381 1159 1747 
Q 1159 1113 1420 752 
Q 1681 391 2138 391 
Q 2594 391 2855 752 
Q 3116 1113 3116 1747 
z
M 1159 2969 
Q 1341 3281 1617 3432 
Q 1894 3584 2278 3584 
Q 2916 3584 3314 3078 
Q 3713 2572 3713 1747 
Q 3713 922 3314 415 
Q 2916 -91 2278 -91 
Q 1894 -91 1617 61 
Q 1341 213 1159 525 
L 1159 0 
L 581 0 
L 581 4863 
L 1159 4863 
L 1159 2969 
z
" transform="scale(0.015625)"/>
     </defs>
     <use xlink:href="#DejaVuSans-32"/>
     <use xlink:href="#DejaVuSans-44" x="63.623047"/>
     <use xlink:href="#DejaVuSans-2d" x="140.625"/>
     <use xlink:href="#DejaVuSans-70" x="176.708984"/>
     <use xlink:href="#DejaVuSans-61" x="240.185547"/>
     <use xlink:href="#DejaVuSans-72" x="301.464844"/>
     <use xlink:href="#DejaVuSans-74" x="342.578125"/>
     <use xlink:href="#DejaVuSans-69" x="381.787109"/>
     <use xlink:href="#DejaVuSans-61" x="409.570312"/>
     <use xlink:href="#DejaVuSans-6c" x="470.849609"/>
     <use xlink:href="#DejaVuSans-20" x="498.632812"/>
     <use xlink:href="#DejaVuSans-64" x="530.419922"/>
     <use xlink:href="#DejaVuSans-65" x="593.896484"/>
     <use xlink:href="#DejaVuSans-70" x="655.419922"/>
     <use xlink:href="#DejaVuSans-65" x="718.896484"/>
     <use xlink:href="#DejaVuSans-6e" x="780.419922"/>
     <use xlink:href="#DejaVuSans-64" x="843.798828"/>
     <use xlink:href="#DejaVuSans-65" x="907.275391"/>
     <use xlink:href="#DejaVuSans-6e" x="968.798828"/>
     <use xlink:href="#DejaVuSans-63" x="1032.177734"/>
     <use xlink:href="#DejaVuSans-79" x="1087.158203"/>
     <use xlink:href="#DejaVuSans-20" x="1146.337891"/>
     <use xlink:href="#DejaVuSans-70" x="1178.125"/>
     <use xlink:href="#DejaVuSans-6c" x="1241.601562"/>
     <use xlink:href="#DejaVuSans-6f" x="1269.384766"/>
     <use xlink:href="#DejaVuSans-74" x="1330.566406"/>
     <use xlink:href="#DejaVuSans-20" x="1369.775391"/>
     <use xlink:href="#DejaVuSans-62" x="1401.5625"/>
     <use xlink:href="#DejaVuSans-65" x="1465.039062"/>
     <use xlink:href="#DejaVuSans-74" x="1526.5625"/>
     <use xlink:href="#DejaVuSans-77" x="1565.771484"/>
     <use xlink:href="#DejaVuSans-65" x="1647.558594"/>
     <use xlink:href="#DejaVuSans-65" x="1709.082031"/>
     <use xlink:href="#DejaVuSans-6e" x="1770.605469"/>
     <use xlink:href="#DejaVuSans-20" x="1833.984375"/>
     <use xlink:href="#DejaVuSans-4c" x="1865.771484"/>
     <use xlink:href="#DejaVuSans-45" x="1921.484375"/>
     <use xlink:href="#DejaVuSans-20" x="1984.667969"/>
     <use xlink:href="#DejaVuSans-61" x="2016.455078"/>
     <use xlink:href="#DejaVuSans-6e" x="2077.734375"/>
     <use xlink:href="#DejaVuSans-64" x="2141.113281"/>
     <use xlink:href="#DejaVuSans-20" x="2204.589844"/>
     <use xlink:href="#DejaVuSans-53" x="2236.376953"/>
     <use xlink:href="#DejaVuSans-57" x="2299.853516"/>
     <use xlink:href="#DejaVuSans-49" x="2398.730469"/>
     <use xlink:href="#DejaVuSans-57" x="2428.222656"/>
    </g>
   </g>
   <g id="text_19">
    <g clip-path="url(#p5b60818ecb)">
     <!-- 12.02 -->
     <g transform="translate(187.163961 78.229938) rotate(-270) scale(0.1 -0.1)">
      <use xlink:href="#DejaVuSans-31"/>
      <use xlink:href="#DejaVuSans-32" x="63.623047"/>
      <use xlink:href="#DejaVuSans-2e" x="127.246094"/>
      <use xlink:href="#DejaVuSans-30" x="159.033203"/>
      <use xlink:href="#DejaVuSans-32" x="222.65625"/>
     </g>
    </g>
   </g>
   <g id="text_20">
    <g clip-path="url(#p5b60818ecb)">
     <!-- 12.38 -->
     <g transform="translate(303.906448 78.229938) rotate(-270) scale(0.1 -0.1)">
      <defs>
       <path id="DejaVuSans-33" d="M 2597 2516 
Q 3050 2419 3304 2112 
Q 3559 1806 3559 1356 
Q 3559 666 3084 287 
Q 2609 -91 1734 -91 
Q 1441 -91 1130 -33 
Q 819 25 488 141 
L 488 750 
Q 750 597 1062 519 
Q 1375 441 1716 441 
Q 2309 441 2620 675 
Q 2931 909 2931 1356 
Q 2931 1769 2642 2001 
Q 2353 2234 1838 2234 
L 1294 2234 
L 1294 2753 
L 1863 2753 
Q 2328 2753 2575 2939 
Q 2822 3125 2822 3475 
Q 2822 3834 2567 4026 
Q 2313 4219 1838 4219 
Q 1578 4219 1281 4162 
Q 984 4106 628 3988 
L 628 4550 
Q 988 4650 1302 4700 
Q 1616 4750 1894 4750 
Q 2613 4750 3031 4423 
Q 3450 4097 3450 3541 
Q 3450 3153 3228 2886 
Q 3006 2619 2597 2516 
z
" transform="scale(0.015625)"/>
      </defs>
      <use xlink:href="#DejaVuSans-31"/>
      <use xlink:href="#DejaVuSans-32" x="63.623047"/>
      <use xlink:href="#DejaVuSans-2e" x="127.246094"/>
      <use xlink:href="#DejaVuSans-33" x="159.033203"/>
      <use xlink:href="#DejaVuSans-38" x="222.65625"/>
     </g>
    </g>
   </g>
   <g id="text_21">
    <g clip-path="url(#p5b60818ecb)">
     <!-- 12.75 -->
     <g transform="translate(312.341809 211.709412) rotate(-89.590647) scale(0.1 -0.1)">
      <use xlink:href="#DejaVuSans-31"/>
      <use xlink:href="#DejaVuSans-32" x="63.623047"/>
      <use xlink:href="#DejaVuSans-2e" x="127.246094"/>
      <use xlink:href="#DejaVuSans-37" x="159.033203"/>
      <use xlink:href="#DejaVuSans-35" x="222.65625"/>
     </g>
    </g>
   </g>
   <g id="text_22">
    <g clip-path="url(#p5b60818ecb)">
     <!-- 13.12 -->
     <g transform="translate(322.646178 300.475631) rotate(-88.151294) scale(0.1 -0.1)">
      <use xlink:href="#DejaVuSans-31"/>
      <use xlink:href="#DejaVuSans-33" x="63.623047"/>
      <use xlink:href="#DejaVuSans-2e" x="127.246094"/>
      <use xlink:href="#DejaVuSans-31" x="159.033203"/>
      <use xlink:href="#DejaVuSans-32" x="222.65625"/>
     </g>
    </g>
   </g>
   <g id="text_23">
    <g clip-path="url(#p5b60818ecb)">
     <!-- 13.49 -->
     <g transform="translate(335.87434 250.855448) rotate(-34.091198) scale(0.1 -0.1)">
      <defs>
       <path id="DejaVuSans-34" d="M 2419 4116 
L 825 1625 
L 2419 1625 
L 2419 4116 
z
M 2253 4666 
L 3047 4666 
L 3047 1625 
L 3713 1625 
L 3713 1100 
L 3047 1100 
L 3047 0 
L 2419 0 
L 2419 1100 
L 313 1100 
L 313 1709 
L 2253 4666 
z
" transform="scale(0.015625)"/>
       <path id="DejaVuSans-39" d="M 703 97 
L 703 672 
Q 941 559 1184 500 
Q 1428 441 1663 441 
Q 2288 441 2617 861 
Q 2947 1281 2994 2138 
Q 2813 1869 2534 1725 
Q 2256 1581 1919 1581 
Q 1219 1581 811 2004 
Q 403 2428 403 3163 
Q 403 3881 828 4315 
Q 1253 4750 1959 4750 
Q 2769 4750 3195 4129 
Q 3622 3509 3622 2328 
Q 3622 1225 3098 567 
Q 2575 -91 1691 -91 
Q 1453 -91 1209 -44 
Q 966 3 703 97 
z
M 1959 2075 
Q 2384 2075 2632 2365 
Q 2881 2656 2881 3163 
Q 2881 3666 2632 3958 
Q 2384 4250 1959 4250 
Q 1534 4250 1286 3958 
Q 1038 3666 1038 3163 
Q 1038 2656 1286 2365 
Q 1534 2075 1959 2075 
z
" transform="scale(0.015625)"/>
      </defs>
      <use xlink:href="#DejaVuSans-31"/>
      <use xlink:href="#DejaVuSans-33" x="63.623047"/>
      <use xlink:href="#DejaVuSans-2e" x="127.246094"/>
      <use xlink:href="#DejaVuSans-34" x="159.033203"/>
      <use xlink:href="#DejaVuSans-39" x="222.65625"/>
     </g>
    </g>
   </g>
   <g id="text_24">
    <g clip-path="url(#p5b60818ecb)">
     <!-- 13.85 -->
     <g transform="translate(360.725937 308.721193) scale(0.1 -0.1)">
      <use xlink:href="#DejaVuSans-31"/>
      <use xlink:href="#DejaVuSans-33" x="63.623047"/>
      <use xlink:href="#DejaVuSans-2e" x="127.246094"/>
      <use xlink:href="#DejaVuSans-38" x="159.033203"/>
      <use xlink:href="#DejaVuSans-35" x="222.65625"/>
     </g>
    </g>
   </g>
  </g>
 </g>
 <defs>
  <clipPath id="p5b60818ecb">
   <rect x="57.6" y="41.472" width="357.12" height="266.112"/>
  </clipPath>
 </defs>
</svg>
