<?xml version="1.0" encoding="utf-8" standalone="no"?>
<!DOCTYPE svg PUBLIC "-//W3C//DTD SVG 1.1//EN"
  "http://www.w3.org/Graphics/SVG/1.1/DTD/svg11.dtd">
<svg xmlns:xlink="http://www.w3.org/1999/xlink" width="460.8pt" height="345.6pt" viewBox="0 0 460.8 345.6" xmlns="http://www.w3.org/2000/svg" version="1.1">
 <metadata>
  <rdf:RDF xmlns:dc="http://purl.org/dc/elements/1.1/" xmlns:cc="http://creativecommons.org/ns#" xmlns:rdf="http://www.w3.org/1999/02/22-rdf-syntax-ns#">
   <cc:Work>
    <dc:type rdf:resource="http://purl.org/dc/dcmitype/StillImage"/>
    <dc:date>2024-03-09T16:47:08.482977</dc:date>
    <dc:format>image/svg+xml</dc:format>
    <dc:creator>
     <cc:Agent>
      <dc:title>Matplotlib v3.7.0, https://matplotlib.org/</dc:title>
     </cc:Agent>
    </dc:creator>
   </cc:Work>
  </rdf:RDF>
 </metadata>
 <defs>
  <style type="text/css">*{stroke-linejoin: round; stroke-linecap: butt}</style>
 </defs>
 <g id="figure_1">
  <g id="patch_1">
   <path d="M 0 345.6 
L 460.8 345.6 
L 460.8 0 
L 0 0 
L 0 345.6 
z
" style="fill: none"/>
  </g>
  <g id="axes_1"/>
  <g id="axes_2">
   <g id="patch_2">
    <path d="M 57.6 307.584 
L 414.72 307.584 
L 414.72 41.472 
L 57.6 41.472 
L 57.6 307.584 
z
" style="fill: none"/>
   </g>
   <g id="PathCollection_1">
    <path d="M 209.105455 307.584 
L 212.712727 307.584 
L 216.32 307.584 
L 219.927273 307.584 
L 223.534545 307.584 
L 227.141818 307.584 
L 230.749091 307.584 
L 234.356364 307.584 
L 237.963636 307.584 
L 241.570909 307.584 
L 245.178182 307.584 
L 248.785455 307.584 
L 252.392727 307.584 
L 256 307.584 
L 259.607273 307.584 
L 263.214545 307.584 
L 266.821818 307.584 
L 270.429091 307.584 
L 274.036364 307.584 
L 277.643636 307.584 
L 281.250909 307.584 
L 284.858182 307.584 
L 288.465455 307.584 
L 292.072727 307.584 
L 295.68 307.584 
L 299.287273 307.584 
L 302.894545 307.584 
L 306.501818 307.584 
L 310.109091 307.584 
L 313.716364 307.584 
L 317.323636 307.584 
L 320.930909 307.584 
L 324.538182 307.584 
L 328.145455 307.584 
L 331.752727 307.584 
L 335.36 307.584 
L 338.967273 307.584 
L 342.574545 307.584 
L 346.181818 307.584 
L 349.789091 307.584 
L 353.396364 307.584 
L 357.003636 307.584 
L 360.610909 307.584 
L 364.218182 307.584 
L 367.825455 307.584 
L 371.432727 307.584 
L 375.04 307.584 
L 378.647273 307.584 
L 382.254545 307.584 
L 385.861818 307.584 
L 389.469091 307.584 
L 393.076364 307.584 
L 396.683636 307.584 
L 400.290909 307.584 
L 403.898182 307.584 
L 407.505455 307.584 
L 411.112727 307.584 
L 414.72 307.584 
L 414.72 304.896 
L 414.72 302.208 
L 414.72 299.52 
L 414.72 296.832 
L 414.72 294.144 
L 414.72 291.456 
L 414.72 288.768 
L 414.72 286.08 
L 414.72 283.392 
L 414.72 280.704 
L 414.72 278.016 
L 414.72 275.328 
L 414.72 272.64 
L 414.72 269.952 
L 414.72 267.264 
L 414.72 264.576 
L 414.72 261.888 
L 414.72 259.2 
L 414.72 256.512 
L 414.72 253.824 
L 414.72 251.136 
L 414.72 248.448 
L 414.72 245.76 
L 414.72 243.072 
L 414.72 240.384 
L 414.72 237.696 
L 414.72 235.008 
L 414.72 232.32 
L 414.72 229.632 
L 414.72 226.944 
L 414.72 224.256 
L 414.72 221.568 
L 414.72 218.88 
L 414.72 216.192 
L 414.72 213.504 
L 414.72 210.816 
L 414.72 208.128 
L 414.72 205.44 
L 414.72 202.752 
L 414.72 200.064 
L 414.72 197.376 
L 414.72 196.993241 
L 411.112727 196.993241 
L 407.505455 196.993241 
L 403.898182 196.993241 
L 400.290909 196.993241 
L 396.683636 196.993241 
L 393.076364 196.993241 
L 389.469091 196.993241 
L 385.861818 196.993241 
L 382.254545 196.993241 
L 378.647273 196.993241 
L 375.04 196.993241 
L 371.432727 196.993241 
L 367.825455 196.993241 
L 364.218182 196.993241 
L 360.610909 196.993241 
L 357.003636 196.993241 
L 353.396364 196.993241 
L 349.789091 196.993241 
L 346.181818 196.993241 
L 342.574545 196.993241 
L 338.967273 196.993241 
L 335.36 196.993241 
L 331.752727 196.993241 
L 328.145455 196.993241 
L 324.538182 196.993241 
L 320.930909 196.993241 
L 317.323636 196.993241 
L 313.716364 196.993241 
L 310.109091 196.993241 
L 306.501818 196.993241 
L 302.894545 196.993241 
L 299.287273 196.993241 
L 295.68 196.993241 
L 292.072727 196.993241 
L 288.465455 196.993241 
L 284.858182 196.993241 
L 281.250909 196.993241 
L 277.643636 196.993241 
L 274.036364 196.993241 
L 270.746066 197.376 
L 270.746066 200.064 
L 270.746066 202.752 
L 270.746066 205.44 
L 270.746066 208.128 
L 270.746066 210.816 
L 270.429091 210.900357 
L 266.821818 210.900357 
L 263.214545 212.021449 
L 261.054845 213.504 
L 261.054845 216.192 
L 261.054845 218.88 
L 260.01484 221.568 
L 259.607273 224.19233 
L 256 224.19233 
L 252.392727 224.19233 
L 248.785455 224.19233 
L 245.178182 224.19233 
L 241.570909 224.19233 
L 237.963636 224.19233 
L 234.356364 224.19233 
L 230.749091 224.19233 
L 227.141818 224.19233 
L 223.534545 224.19233 
L 219.927273 224.19233 
L 216.32 224.19233 
L 212.712727 224.19233 
L 209.105455 224.19233 
L 209.078884 224.256 
L 209.078884 226.944 
L 209.078884 229.632 
L 209.078884 232.32 
L 209.078884 235.008 
L 209.078884 237.696 
L 209.078884 240.384 
L 209.078884 243.072 
L 209.078884 245.76 
L 207.507366 248.448 
L 207.507366 251.136 
L 207.507366 253.824 
L 207.507366 256.512 
L 207.507366 259.2 
L 207.507366 261.888 
L 207.507366 264.576 
L 207.507366 267.264 
L 207.507366 269.952 
L 207.507366 272.64 
L 207.507366 275.328 
L 207.507366 278.016 
L 207.507366 280.704 
L 207.507366 283.392 
L 207.507366 286.08 
L 207.507366 288.768 
L 207.507366 291.456 
L 207.507366 294.144 
L 207.507366 296.832 
L 207.507366 299.52 
L 207.507366 302.208 
L 207.507366 304.896 
L 207.507366 307.584 
z
" clip-path="url(#p780e4e0b79)" style="fill: #481b6d; fill-opacity: 0.75"/>
   </g>
   <g id="PathCollection_2">
    <path d="M 61.207273 307.584 
L 64.814545 307.584 
L 68.421818 307.584 
L 72.029091 307.584 
L 75.636364 307.584 
L 79.243636 307.584 
L 82.850909 307.584 
L 86.458182 307.584 
L 90.065455 307.584 
L 93.672727 307.584 
L 97.28 307.584 
L 100.887273 307.584 
L 104.494545 307.584 
L 108.101818 307.584 
L 111.709091 307.584 
L 115.316364 307.584 
L 118.923636 307.584 
L 122.530909 307.584 
L 126.138182 307.584 
L 129.745455 307.584 
L 133.352727 307.584 
L 136.96 307.584 
L 140.567273 307.584 
L 144.174545 307.584 
L 147.781818 307.584 
L 151.389091 307.584 
L 154.996364 307.584 
L 158.603636 307.584 
L 162.210909 307.584 
L 165.818182 307.584 
L 169.425455 307.584 
L 173.032727 307.584 
L 176.64 307.584 
L 180.247273 307.584 
L 183.854545 307.584 
L 187.461818 307.584 
L 191.069091 307.584 
L 194.676364 307.584 
L 198.283636 307.584 
L 201.890909 307.584 
L 205.498182 307.584 
L 207.507366 307.584 
L 207.507366 304.896 
L 207.507366 302.208 
L 207.507366 299.52 
L 207.507366 296.832 
L 207.507366 294.144 
L 207.507366 291.456 
L 207.507366 288.768 
L 207.507366 286.08 
L 207.507366 283.392 
L 207.507366 280.704 
L 207.507366 278.016 
L 207.507366 275.328 
L 207.507366 272.64 
L 207.507366 269.952 
L 207.507366 267.264 
L 207.507366 264.576 
L 207.507366 261.888 
L 207.507366 259.2 
L 207.507366 256.512 
L 207.507366 253.824 
L 207.507366 251.136 
L 207.507366 248.448 
L 209.078884 245.76 
L 209.078884 243.072 
L 209.078884 240.384 
L 209.078884 237.696 
L 209.078884 235.008 
L 209.078884 232.32 
L 209.078884 229.632 
L 209.078884 226.944 
L 209.078884 224.256 
L 209.105455 224.19233 
L 212.712727 224.19233 
L 216.32 224.19233 
L 219.927273 224.19233 
L 223.534545 224.19233 
L 227.141818 224.19233 
L 230.749091 224.19233 
L 234.356364 224.19233 
L 237.963636 224.19233 
L 241.570909 224.19233 
L 245.178182 224.19233 
L 248.785455 224.19233 
L 252.392727 224.19233 
L 256 224.19233 
L 259.607273 224.19233 
L 260.01484 221.568 
L 261.054845 218.88 
L 261.054845 216.192 
L 261.054845 213.504 
L 263.214545 212.021449 
L 266.821818 210.900357 
L 270.429091 210.900357 
L 270.746066 210.816 
L 270.746066 208.128 
L 270.746066 205.44 
L 270.746066 202.752 
L 270.746066 200.064 
L 270.746066 197.376 
L 274.036364 196.993241 
L 277.643636 196.993241 
L 281.250909 196.993241 
L 284.858182 196.993241 
L 288.465455 196.993241 
L 292.072727 196.993241 
L 295.68 196.993241 
L 299.287273 196.993241 
L 302.894545 196.993241 
L 306.501818 196.993241 
L 310.109091 196.993241 
L 313.716364 196.993241 
L 317.323636 196.993241 
L 320.930909 196.993241 
L 324.538182 196.993241 
L 328.145455 196.993241 
L 331.752727 196.993241 
L 335.36 196.993241 
L 338.967273 196.993241 
L 342.574545 196.993241 
L 346.181818 196.993241 
L 349.789091 196.993241 
L 353.396364 196.993241 
L 357.003636 196.993241 
L 360.610909 196.993241 
L 364.218182 196.993241 
L 367.825455 196.993241 
L 371.432727 196.993241 
L 375.04 196.993241 
L 378.647273 196.993241 
L 382.254545 196.993241 
L 385.861818 196.993241 
L 389.469091 196.993241 
L 393.076364 196.993241 
L 396.683636 196.993241 
L 400.290909 196.993241 
L 403.898182 196.993241 
L 407.505455 196.993241 
L 411.112727 196.993241 
L 414.72 196.993241 
L 414.72 194.688 
L 414.72 192.764444 
L 411.112727 192.764444 
L 407.505455 192.764444 
L 403.898182 192.764444 
L 400.290909 192.764444 
L 396.683636 192.764444 
L 393.076364 192.764444 
L 389.469091 192.764444 
L 385.861818 192.764444 
L 382.254545 192.764444 
L 378.647273 192.764444 
L 375.04 192.764444 
L 371.432727 192.764444 
L 367.825455 192.764444 
L 364.218182 192.764444 
L 360.610909 192.764444 
L 357.003636 192.764444 
L 353.396364 192.764444 
L 349.789091 192.764444 
L 346.181818 192.764444 
L 342.574545 192.764444 
L 338.967273 192.764444 
L 335.36 192.764444 
L 331.752727 192.764444 
L 328.145455 192.764444 
L 324.538182 192.764444 
L 320.930909 192.764444 
L 317.323636 192.764444 
L 313.716364 192.764444 
L 310.109091 192.764444 
L 306.501818 192.764444 
L 302.894545 192.764444 
L 299.287273 192.764444 
L 295.68 192.764444 
L 292.072727 192.764444 
L 288.465455 192.764444 
L 284.858182 192.764444 
L 281.250909 192.764444 
L 277.643636 192.764444 
L 274.036364 192.764444 
L 270.429091 193.683564 
L 266.821818 193.683564 
L 263.446124 194.688 
L 263.214545 194.71946 
L 259.607273 195.801863 
L 256 195.801863 
L 252.392727 195.801863 
L 248.785455 195.801863 
L 245.178182 195.801863 
L 241.570909 195.801863 
L 237.963636 195.801863 
L 234.356364 195.801863 
L 230.749091 195.801863 
L 227.141818 195.801863 
L 223.534545 195.801863 
L 219.927273 195.801863 
L 216.32 195.801863 
L 212.712727 195.801863 
L 209.105455 195.801863 
L 205.498182 196.204687 
L 201.890909 196.204687 
L 198.283636 196.204687 
L 194.676364 196.204687 
L 191.069091 196.204687 
L 187.461818 196.204687 
L 183.854545 196.204687 
L 180.247273 196.204687 
L 176.64 196.204687 
L 173.032727 196.204687 
L 169.425455 196.204687 
L 165.818182 196.204687 
L 162.210909 196.204687 
L 158.603636 196.204687 
L 154.996364 196.204687 
L 151.389091 196.204687 
L 147.781818 196.204687 
L 144.174545 196.204687 
L 140.567273 196.204687 
L 136.96 196.204687 
L 133.352727 196.204687 
L 129.745455 196.204687 
L 126.138182 196.204687 
L 122.530909 197.344234 
L 118.923636 197.344234 
L 118.806069 197.376 
L 118.806069 200.064 
L 118.806069 202.752 
L 118.806069 205.44 
L 118.806069 208.128 
L 118.806069 210.816 
L 115.316364 212.973072 
L 111.709091 212.973072 
L 108.101818 212.973072 
L 104.494545 212.973072 
L 100.887273 212.973072 
L 97.28 212.973072 
L 93.672727 212.973072 
L 90.065455 212.973072 
L 86.458182 212.973072 
L 82.850909 211.20516 
L 79.243636 211.20516 
L 75.636364 211.20516 
L 72.029091 211.20516 
L 68.421818 211.20516 
L 64.814545 211.20516 
L 61.207273 211.20516 
L 57.6 211.20516 
L 57.6 213.504 
L 57.6 216.192 
L 57.6 218.88 
L 57.6 221.568 
L 57.6 224.256 
L 57.6 226.944 
L 57.6 229.632 
L 57.6 232.32 
L 57.6 235.008 
L 57.6 237.696 
L 57.6 240.384 
L 57.6 243.072 
L 57.6 245.76 
L 57.6 248.448 
L 57.6 251.136 
L 57.6 253.824 
L 57.6 256.512 
L 57.6 259.2 
L 57.6 261.888 
L 57.6 264.576 
L 57.6 267.264 
L 57.6 269.952 
L 57.6 272.64 
L 57.6 275.328 
L 57.6 278.016 
L 57.6 280.704 
L 57.6 283.392 
L 57.6 286.08 
L 57.6 288.768 
L 57.6 291.456 
L 57.6 294.144 
L 57.6 296.832 
L 57.6 299.52 
L 57.6 302.208 
L 57.6 304.896 
L 57.6 307.584 
z
" clip-path="url(#p780e4e0b79)" style="fill: #3f4788; fill-opacity: 0.75"/>
   </g>
   <g id="PathCollection_3">
    <path d="M 61.207273 211.20516 
L 64.814545 211.20516 
L 68.421818 211.20516 
L 72.029091 211.20516 
L 75.636364 211.20516 
L 79.243636 211.20516 
L 82.850909 211.20516 
L 86.458182 212.973072 
L 90.065455 212.973072 
L 93.672727 212.973072 
L 97.28 212.973072 
L 100.887273 212.973072 
L 104.494545 212.973072 
L 108.101818 212.973072 
L 111.709091 212.973072 
L 115.316364 212.973072 
L 118.806069 210.816 
L 118.806069 208.128 
L 118.806069 205.44 
L 118.806069 202.752 
L 118.806069 200.064 
L 118.806069 197.376 
L 118.923636 197.344234 
L 122.530909 197.344234 
L 126.138182 196.204687 
L 129.745455 196.204687 
L 133.352727 196.204687 
L 136.96 196.204687 
L 140.567273 196.204687 
L 144.174545 196.204687 
L 147.781818 196.204687 
L 151.389091 196.204687 
L 154.996364 196.204687 
L 158.603636 196.204687 
L 162.210909 196.204687 
L 165.818182 196.204687 
L 169.425455 196.204687 
L 173.032727 196.204687 
L 176.64 196.204687 
L 180.247273 196.204687 
L 183.854545 196.204687 
L 187.461818 196.204687 
L 191.069091 196.204687 
L 194.676364 196.204687 
L 198.283636 196.204687 
L 201.890909 196.204687 
L 205.498182 196.204687 
L 209.105455 195.801863 
L 212.712727 195.801863 
L 216.32 195.801863 
L 219.927273 195.801863 
L 223.534545 195.801863 
L 227.141818 195.801863 
L 230.749091 195.801863 
L 234.356364 195.801863 
L 237.963636 195.801863 
L 241.570909 195.801863 
L 245.178182 195.801863 
L 248.785455 195.801863 
L 252.392727 195.801863 
L 256 195.801863 
L 259.607273 195.801863 
L 263.214545 194.71946 
L 263.446124 194.688 
L 266.821818 193.683564 
L 270.429091 193.683564 
L 274.036364 192.764444 
L 277.643636 192.764444 
L 281.250909 192.764444 
L 284.858182 192.764444 
L 288.465455 192.764444 
L 292.072727 192.764444 
L 295.68 192.764444 
L 299.287273 192.764444 
L 302.894545 192.764444 
L 306.501818 192.764444 
L 310.109091 192.764444 
L 313.716364 192.764444 
L 317.323636 192.764444 
L 320.930909 192.764444 
L 324.538182 192.764444 
L 328.145455 192.764444 
L 331.752727 192.764444 
L 335.36 192.764444 
L 338.967273 192.764444 
L 342.574545 192.764444 
L 346.181818 192.764444 
L 349.789091 192.764444 
L 353.396364 192.764444 
L 357.003636 192.764444 
L 360.610909 192.764444 
L 364.218182 192.764444 
L 367.825455 192.764444 
L 371.432727 192.764444 
L 375.04 192.764444 
L 378.647273 192.764444 
L 382.254545 192.764444 
L 385.861818 192.764444 
L 389.469091 192.764444 
L 393.076364 192.764444 
L 396.683636 192.764444 
L 400.290909 192.764444 
L 403.898182 192.764444 
L 407.505455 192.764444 
L 411.112727 192.764444 
L 414.72 192.764444 
L 414.72 192 
L 414.72 189.312 
L 414.72 186.624 
L 414.72 183.936 
L 414.72 181.248 
L 414.72 178.56 
L 414.72 175.872 
L 414.72 173.184 
L 414.72 170.496 
L 414.72 169.5698 
L 411.112727 169.5698 
L 407.505455 169.5698 
L 403.898182 169.5698 
L 400.290909 169.5698 
L 396.683636 169.5698 
L 393.076364 169.5698 
L 389.469091 169.5698 
L 385.861818 169.5698 
L 382.254545 169.5698 
L 378.647273 169.5698 
L 375.04 169.5698 
L 371.432727 169.5698 
L 367.825455 169.5698 
L 364.218182 169.5698 
L 360.610909 169.5698 
L 357.003636 169.5698 
L 353.396364 169.5698 
L 349.789091 169.5698 
L 346.181818 169.5698 
L 342.574545 169.5698 
L 338.967273 169.5698 
L 335.36 169.5698 
L 331.752727 169.5698 
L 328.145455 169.5698 
L 324.538182 169.5698 
L 320.930909 169.5698 
L 317.323636 169.5698 
L 313.716364 169.5698 
L 310.109091 169.5698 
L 306.501818 169.5698 
L 302.894545 169.5698 
L 299.287273 169.5698 
L 295.68 169.5698 
L 292.072727 169.5698 
L 288.465455 169.5698 
L 284.858182 169.5698 
L 281.250909 169.5698 
L 277.643636 169.5698 
L 274.036364 169.5698 
L 270.429091 170.110829 
L 266.821818 170.110829 
L 264.622715 170.496 
L 263.214545 171.191242 
L 261.387204 173.184 
L 261.387204 175.872 
L 259.607273 177.448472 
L 256 177.448472 
L 252.392727 177.448472 
L 248.785455 177.448472 
L 245.178182 177.448472 
L 241.570909 177.448472 
L 237.963636 177.448472 
L 234.356364 177.448472 
L 230.749091 177.448472 
L 227.141818 177.448472 
L 223.534545 177.448472 
L 219.927273 177.448472 
L 216.32 177.448472 
L 212.712727 177.448472 
L 209.105455 177.448472 
L 205.733268 178.56 
L 205.733268 181.248 
L 205.733268 183.936 
L 205.733268 186.624 
L 205.733268 189.312 
L 205.498182 189.463496 
L 201.890909 189.463496 
L 198.283636 189.463496 
L 194.676364 189.463496 
L 191.069091 189.463496 
L 187.461818 189.463496 
L 183.854545 189.463496 
L 180.247273 189.463496 
L 176.64 189.463496 
L 173.032727 189.463496 
L 169.425455 189.463496 
L 165.818182 189.463496 
L 162.210909 189.463496 
L 158.603636 189.463496 
L 154.996364 189.463496 
L 151.389091 189.463496 
L 147.781818 189.463496 
L 144.174545 189.463496 
L 140.567273 189.463496 
L 136.96 189.463496 
L 133.352727 189.463496 
L 129.745455 189.463496 
L 126.138182 189.463496 
L 124.746807 192 
L 122.530909 193.533224 
L 118.923636 193.533224 
L 116.972332 194.688 
L 115.316364 195.135427 
L 111.709091 195.135427 
L 108.101818 195.135427 
L 104.494545 195.135427 
L 100.887273 195.135427 
L 97.28 195.135427 
L 93.672727 195.135427 
L 90.065455 195.135427 
L 86.458182 195.135427 
L 84.369626 194.688 
L 82.850909 193.975385 
L 79.243636 193.975385 
L 75.636364 193.975385 
L 72.029091 193.975385 
L 68.421818 193.975385 
L 64.814545 193.975385 
L 61.207273 193.975385 
L 57.6 193.975385 
L 57.6 194.688 
L 57.6 197.376 
L 57.6 200.064 
L 57.6 202.752 
L 57.6 205.44 
L 57.6 208.128 
L 57.6 210.816 
L 57.6 211.20516 
z
" clip-path="url(#p780e4e0b79)" style="fill: #2e6e8e; fill-opacity: 0.75"/>
   </g>
   <g id="PathCollection_4">
    <path d="M 86.458182 195.135427 
L 90.065455 195.135427 
L 93.672727 195.135427 
L 97.28 195.135427 
L 100.887273 195.135427 
L 104.494545 195.135427 
L 108.101818 195.135427 
L 111.709091 195.135427 
L 115.316364 195.135427 
L 116.972332 194.688 
L 118.923636 193.533224 
L 122.530909 193.533224 
L 124.746807 192 
L 126.138182 189.463496 
L 129.745455 189.463496 
L 133.352727 189.463496 
L 136.96 189.463496 
L 140.567273 189.463496 
L 144.174545 189.463496 
L 147.781818 189.463496 
L 151.389091 189.463496 
L 154.996364 189.463496 
L 158.603636 189.463496 
L 162.210909 189.463496 
L 165.818182 189.463496 
L 169.425455 189.463496 
L 173.032727 189.463496 
L 176.64 189.463496 
L 180.247273 189.463496 
L 183.854545 189.463496 
L 187.461818 189.463496 
L 191.069091 189.463496 
L 194.676364 189.463496 
L 198.283636 189.463496 
L 201.890909 189.463496 
L 205.498182 189.463496 
L 205.733268 189.312 
L 205.733268 186.624 
L 205.733268 183.936 
L 205.733268 181.248 
L 205.733268 178.56 
L 209.105455 177.448472 
L 212.712727 177.448472 
L 216.32 177.448472 
L 219.927273 177.448472 
L 223.534545 177.448472 
L 227.141818 177.448472 
L 230.749091 177.448472 
L 234.356364 177.448472 
L 237.963636 177.448472 
L 241.570909 177.448472 
L 245.178182 177.448472 
L 248.785455 177.448472 
L 252.392727 177.448472 
L 256 177.448472 
L 259.607273 177.448472 
L 261.387204 175.872 
L 261.387204 173.184 
L 263.214545 171.191242 
L 264.622715 170.496 
L 266.821818 170.110829 
L 270.429091 170.110829 
L 274.036364 169.5698 
L 277.643636 169.5698 
L 281.250909 169.5698 
L 284.858182 169.5698 
L 288.465455 169.5698 
L 292.072727 169.5698 
L 295.68 169.5698 
L 299.287273 169.5698 
L 302.894545 169.5698 
L 306.501818 169.5698 
L 310.109091 169.5698 
L 313.716364 169.5698 
L 317.323636 169.5698 
L 320.930909 169.5698 
L 324.538182 169.5698 
L 328.145455 169.5698 
L 331.752727 169.5698 
L 335.36 169.5698 
L 338.967273 169.5698 
L 342.574545 169.5698 
L 346.181818 169.5698 
L 349.789091 169.5698 
L 353.396364 169.5698 
L 357.003636 169.5698 
L 360.610909 169.5698 
L 364.218182 169.5698 
L 367.825455 169.5698 
L 371.432727 169.5698 
L 375.04 169.5698 
L 378.647273 169.5698 
L 382.254545 169.5698 
L 385.861818 169.5698 
L 389.469091 169.5698 
L 393.076364 169.5698 
L 396.683636 169.5698 
L 400.290909 169.5698 
L 403.898182 169.5698 
L 407.505455 169.5698 
L 411.112727 169.5698 
L 414.72 169.5698 
L 414.72 167.808 
L 414.72 165.12 
L 414.72 162.432 
L 414.72 159.744 
L 414.72 157.056 
L 414.72 154.768333 
L 411.112727 154.768333 
L 407.505455 154.768333 
L 403.898182 154.768333 
L 400.290909 154.768333 
L 396.683636 154.768333 
L 393.076364 154.768333 
L 389.469091 154.768333 
L 385.861818 154.768333 
L 382.254545 154.768333 
L 378.647273 154.768333 
L 375.04 154.768333 
L 371.432727 154.768333 
L 367.825455 154.768333 
L 364.218182 154.768333 
L 360.610909 154.768333 
L 357.003636 154.768333 
L 353.396364 154.768333 
L 349.789091 154.768333 
L 346.181818 154.768333 
L 342.574545 154.768333 
L 338.967273 154.768333 
L 335.36 154.768333 
L 331.752727 154.768333 
L 328.145455 154.768333 
L 324.538182 154.768333 
L 320.930909 154.768333 
L 317.323636 154.768333 
L 313.716364 154.768333 
L 310.109091 154.768333 
L 306.501818 154.768333 
L 302.894545 154.768333 
L 299.287273 154.768333 
L 295.68 154.768333 
L 292.072727 154.768333 
L 288.465455 154.768333 
L 284.858182 154.768333 
L 281.250909 154.768333 
L 277.643636 154.768333 
L 274.036364 154.768333 
L 270.429091 155.495405 
L 266.821818 155.495405 
L 263.214545 156.344474 
L 261.845957 157.056 
L 261.845957 159.744 
L 260.190855 162.432 
L 260.190855 165.12 
L 260.190855 167.808 
L 259.607273 168.033769 
L 256 168.033769 
L 252.392727 168.033769 
L 248.785455 168.033769 
L 245.178182 168.033769 
L 241.570909 168.033769 
L 237.963636 168.033769 
L 234.356364 168.033769 
L 230.749091 168.033769 
L 227.141818 168.033769 
L 223.534545 168.033769 
L 219.927273 168.033769 
L 216.32 168.033769 
L 212.712727 168.033769 
L 209.105455 168.033769 
L 205.498182 168.553126 
L 201.890909 168.553126 
L 198.283636 168.553126 
L 194.676364 168.553126 
L 191.069091 168.553126 
L 187.461818 168.553126 
L 183.854545 168.553126 
L 180.247273 168.553126 
L 176.64 168.553126 
L 173.032727 168.553126 
L 169.425455 168.553126 
L 165.818182 168.553126 
L 162.210909 168.553126 
L 158.603636 168.553126 
L 154.996364 168.553126 
L 151.389091 168.553126 
L 147.781818 168.553126 
L 144.174545 168.553126 
L 140.567273 168.553126 
L 136.96 168.553126 
L 133.352727 168.553126 
L 129.745455 168.553126 
L 126.138182 168.553126 
L 122.530909 170.022334 
L 118.923636 170.022334 
L 117.56391 170.496 
L 115.316364 172.703004 
L 111.709091 172.703004 
L 108.101818 172.703004 
L 104.494545 172.703004 
L 100.887273 172.703004 
L 97.28 172.703004 
L 93.672727 172.703004 
L 90.065455 172.703004 
L 86.458182 172.703004 
L 83.623509 170.496 
L 82.850909 170.282606 
L 79.243636 170.282606 
L 75.636364 170.282606 
L 72.029091 170.282606 
L 68.421818 170.282606 
L 64.814545 170.282606 
L 61.207273 170.282606 
L 57.6 170.282606 
L 57.6 170.496 
L 57.6 173.184 
L 57.6 175.872 
L 57.6 178.56 
L 57.6 181.248 
L 57.6 183.936 
L 57.6 186.624 
L 57.6 189.312 
L 57.6 192 
L 57.6 193.975385 
L 61.207273 193.975385 
L 64.814545 193.975385 
L 68.421818 193.975385 
L 72.029091 193.975385 
L 75.636364 193.975385 
L 79.243636 193.975385 
L 82.850909 193.975385 
L 84.369626 194.688 
z
" clip-path="url(#p780e4e0b79)" style="fill: #21918c; fill-opacity: 0.75"/>
   </g>
   <g id="PathCollection_5">
    <path d="M 86.458182 172.703004 
L 90.065455 172.703004 
L 93.672727 172.703004 
L 97.28 172.703004 
L 100.887273 172.703004 
L 104.494545 172.703004 
L 108.101818 172.703004 
L 111.709091 172.703004 
L 115.316364 172.703004 
L 117.56391 170.496 
L 118.923636 170.022334 
L 122.530909 170.022334 
L 126.138182 168.553126 
L 129.745455 168.553126 
L 133.352727 168.553126 
L 136.96 168.553126 
L 140.567273 168.553126 
L 144.174545 168.553126 
L 147.781818 168.553126 
L 151.389091 168.553126 
L 154.996364 168.553126 
L 158.603636 168.553126 
L 162.210909 168.553126 
L 165.818182 168.553126 
L 169.425455 168.553126 
L 173.032727 168.553126 
L 176.64 168.553126 
L 180.247273 168.553126 
L 183.854545 168.553126 
L 187.461818 168.553126 
L 191.069091 168.553126 
L 194.676364 168.553126 
L 198.283636 168.553126 
L 201.890909 168.553126 
L 205.498182 168.553126 
L 209.105455 168.033769 
L 212.712727 168.033769 
L 216.32 168.033769 
L 219.927273 168.033769 
L 223.534545 168.033769 
L 227.141818 168.033769 
L 230.749091 168.033769 
L 234.356364 168.033769 
L 237.963636 168.033769 
L 241.570909 168.033769 
L 245.178182 168.033769 
L 248.785455 168.033769 
L 252.392727 168.033769 
L 256 168.033769 
L 259.607273 168.033769 
L 260.190855 167.808 
L 260.190855 165.12 
L 260.190855 162.432 
L 261.845957 159.744 
L 261.845957 157.056 
L 263.214545 156.344474 
L 266.821818 155.495405 
L 270.429091 155.495405 
L 274.036364 154.768333 
L 277.643636 154.768333 
L 281.250909 154.768333 
L 284.858182 154.768333 
L 288.465455 154.768333 
L 292.072727 154.768333 
L 295.68 154.768333 
L 299.287273 154.768333 
L 302.894545 154.768333 
L 306.501818 154.768333 
L 310.109091 154.768333 
L 313.716364 154.768333 
L 317.323636 154.768333 
L 320.930909 154.768333 
L 324.538182 154.768333 
L 328.145455 154.768333 
L 331.752727 154.768333 
L 335.36 154.768333 
L 338.967273 154.768333 
L 342.574545 154.768333 
L 346.181818 154.768333 
L 349.789091 154.768333 
L 353.396364 154.768333 
L 357.003636 154.768333 
L 360.610909 154.768333 
L 364.218182 154.768333 
L 367.825455 154.768333 
L 371.432727 154.768333 
L 375.04 154.768333 
L 378.647273 154.768333 
L 382.254545 154.768333 
L 385.861818 154.768333 
L 389.469091 154.768333 
L 393.076364 154.768333 
L 396.683636 154.768333 
L 400.290909 154.768333 
L 403.898182 154.768333 
L 407.505455 154.768333 
L 411.112727 154.768333 
L 414.72 154.768333 
L 414.72 154.368 
L 414.72 151.68 
L 414.72 148.992 
L 414.72 146.304 
L 414.72 143.616 
L 414.72 143.090548 
L 411.112727 143.090548 
L 407.505455 143.090548 
L 403.898182 143.090548 
L 400.290909 143.090548 
L 396.683636 143.090548 
L 393.076364 143.090548 
L 389.469091 143.090548 
L 385.861818 143.090548 
L 382.254545 143.090548 
L 378.647273 143.090548 
L 375.04 143.090548 
L 371.432727 143.090548 
L 367.825455 143.090548 
L 364.218182 143.090548 
L 360.610909 143.090548 
L 357.003636 143.090548 
L 353.396364 143.090548 
L 349.789091 143.090548 
L 346.181818 143.090548 
L 342.574545 143.090548 
L 338.967273 143.090548 
L 335.36 143.090548 
L 331.752727 143.090548 
L 328.145455 143.090548 
L 324.538182 143.090548 
L 320.930909 143.090548 
L 317.323636 143.090548 
L 313.716364 143.090548 
L 310.109091 143.090548 
L 306.501818 143.090548 
L 302.894545 143.090548 
L 299.287273 143.090548 
L 295.68 143.090548 
L 292.072727 143.090548 
L 288.465455 143.090548 
L 284.858182 143.090548 
L 281.250909 143.090548 
L 277.643636 143.090548 
L 274.036364 143.090548 
L 273.226175 143.616 
L 270.429091 144.724459 
L 266.821818 144.724459 
L 263.408706 146.304 
L 263.408706 148.992 
L 263.408706 151.68 
L 263.214545 151.714266 
L 259.607273 153.120431 
L 256 153.120431 
L 252.392727 153.120431 
L 248.785455 153.120431 
L 245.178182 153.120431 
L 241.570909 153.120431 
L 237.963636 153.120431 
L 234.356364 153.120431 
L 230.749091 153.120431 
L 227.141818 153.120431 
L 223.534545 153.120431 
L 219.927273 153.120431 
L 216.32 153.120431 
L 212.712727 153.120431 
L 209.105455 153.120431 
L 205.498182 153.643745 
L 201.890909 153.643745 
L 198.283636 153.643745 
L 194.676364 153.643745 
L 191.069091 153.643745 
L 187.461818 153.643745 
L 183.854545 153.643745 
L 180.247273 153.643745 
L 176.64 153.643745 
L 173.032727 153.643745 
L 169.425455 153.643745 
L 165.818182 153.643745 
L 162.210909 153.643745 
L 158.603636 153.643745 
L 154.996364 153.643745 
L 151.389091 153.643745 
L 147.781818 153.643745 
L 144.174545 153.643745 
L 140.567273 153.643745 
L 136.96 153.643745 
L 133.352727 153.643745 
L 129.745455 153.643745 
L 126.138182 153.643745 
L 124.373401 154.368 
L 122.530909 155.376478 
L 118.923636 155.376478 
L 115.336002 157.056 
L 115.336002 159.744 
L 115.316364 159.772719 
L 111.709091 159.772719 
L 108.101818 159.772719 
L 104.494545 159.772719 
L 100.887273 159.772719 
L 97.28 159.772719 
L 93.672727 159.772719 
L 90.065455 159.772719 
L 86.458182 159.772719 
L 86.433413 159.744 
L 86.433413 157.056 
L 82.850909 155.72625 
L 79.243636 155.72625 
L 75.636364 155.72625 
L 72.029091 155.72625 
L 68.421818 155.72625 
L 64.814545 155.72625 
L 61.207273 155.72625 
L 57.6 155.72625 
L 57.6 157.056 
L 57.6 159.744 
L 57.6 162.432 
L 57.6 165.12 
L 57.6 167.808 
L 57.6 170.282606 
L 61.207273 170.282606 
L 64.814545 170.282606 
L 68.421818 170.282606 
L 72.029091 170.282606 
L 75.636364 170.282606 
L 79.243636 170.282606 
L 82.850909 170.282606 
L 83.623509 170.496 
z
" clip-path="url(#p780e4e0b79)" style="fill: #2db27d; fill-opacity: 0.75"/>
    <path d="M 274.036364 63.684498 
L 277.643636 63.684498 
L 281.250909 63.684498 
L 284.858182 63.684498 
L 288.465455 63.684498 
L 292.072727 63.684498 
L 295.68 63.684498 
L 299.287273 63.684498 
L 302.894545 63.684498 
L 306.501818 63.684498 
L 310.109091 63.684498 
L 313.716364 63.684498 
L 317.323636 63.684498 
L 320.930909 63.684498 
L 324.538182 63.684498 
L 328.145455 63.684498 
L 331.752727 63.684498 
L 335.36 63.684498 
L 338.967273 63.684498 
L 342.574545 63.684498 
L 346.181818 63.684498 
L 349.789091 63.684498 
L 353.396364 63.684498 
L 357.003636 63.684498 
L 360.610909 63.684498 
L 364.218182 63.684498 
L 367.825455 63.684498 
L 371.432727 63.684498 
L 375.04 63.684498 
L 378.647273 63.684498 
L 382.254545 63.684498 
L 385.861818 63.684498 
L 389.469091 63.684498 
L 393.076364 63.684498 
L 396.683636 63.684498 
L 400.290909 63.684498 
L 403.898182 63.684498 
L 407.505455 63.684498 
L 411.112727 63.684498 
L 414.72 63.684498 
L 414.72 62.976 
L 414.72 60.288 
L 414.72 57.6 
L 414.72 54.912 
L 414.72 52.224 
L 414.72 49.536 
L 414.72 46.848 
L 414.72 44.16 
L 414.72 41.472 
L 411.112727 41.472 
L 407.505455 41.472 
L 403.898182 41.472 
L 400.290909 41.472 
L 396.683636 41.472 
L 393.076364 41.472 
L 389.469091 41.472 
L 385.861818 41.472 
L 382.254545 41.472 
L 378.647273 41.472 
L 375.04 41.472 
L 371.432727 41.472 
L 367.825455 41.472 
L 364.218182 41.472 
L 360.610909 41.472 
L 357.003636 41.472 
L 353.396364 41.472 
L 349.789091 41.472 
L 346.181818 41.472 
L 342.574545 41.472 
L 338.967273 41.472 
L 335.36 41.472 
L 331.752727 41.472 
L 328.145455 41.472 
L 324.538182 41.472 
L 320.930909 41.472 
L 317.323636 41.472 
L 313.716364 41.472 
L 310.109091 41.472 
L 306.501818 41.472 
L 302.894545 41.472 
L 299.287273 41.472 
L 295.68 41.472 
L 292.072727 41.472 
L 288.465455 41.472 
L 284.858182 41.472 
L 281.250909 41.472 
L 277.643636 41.472 
L 274.036364 41.472 
L 271.436836 41.472 
L 271.436836 44.16 
L 271.436836 46.848 
L 271.436836 49.536 
L 271.436836 52.224 
L 271.436836 54.912 
L 271.436836 57.6 
L 271.436836 60.288 
L 271.436836 62.976 
z
" clip-path="url(#p780e4e0b79)" style="fill: #2db27d; fill-opacity: 0.75"/>
   </g>
   <g id="PathCollection_6">
    <path d="M 86.458182 159.772719 
L 90.065455 159.772719 
L 93.672727 159.772719 
L 97.28 159.772719 
L 100.887273 159.772719 
L 104.494545 159.772719 
L 108.101818 159.772719 
L 111.709091 159.772719 
L 115.316364 159.772719 
L 115.336002 159.744 
L 115.336002 157.056 
L 118.923636 155.376478 
L 122.530909 155.376478 
L 124.373401 154.368 
L 126.138182 153.643745 
L 129.745455 153.643745 
L 133.352727 153.643745 
L 136.96 153.643745 
L 140.567273 153.643745 
L 144.174545 153.643745 
L 147.781818 153.643745 
L 151.389091 153.643745 
L 154.996364 153.643745 
L 158.603636 153.643745 
L 162.210909 153.643745 
L 165.818182 153.643745 
L 169.425455 153.643745 
L 173.032727 153.643745 
L 176.64 153.643745 
L 180.247273 153.643745 
L 183.854545 153.643745 
L 187.461818 153.643745 
L 191.069091 153.643745 
L 194.676364 153.643745 
L 198.283636 153.643745 
L 201.890909 153.643745 
L 205.498182 153.643745 
L 209.105455 153.120431 
L 212.712727 153.120431 
L 216.32 153.120431 
L 219.927273 153.120431 
L 223.534545 153.120431 
L 227.141818 153.120431 
L 230.749091 153.120431 
L 234.356364 153.120431 
L 237.963636 153.120431 
L 241.570909 153.120431 
L 245.178182 153.120431 
L 248.785455 153.120431 
L 252.392727 153.120431 
L 256 153.120431 
L 259.607273 153.120431 
L 263.214545 151.714266 
L 263.408706 151.68 
L 263.408706 148.992 
L 263.408706 146.304 
L 266.821818 144.724459 
L 270.429091 144.724459 
L 273.226175 143.616 
L 274.036364 143.090548 
L 277.643636 143.090548 
L 281.250909 143.090548 
L 284.858182 143.090548 
L 288.465455 143.090548 
L 292.072727 143.090548 
L 295.68 143.090548 
L 299.287273 143.090548 
L 302.894545 143.090548 
L 306.501818 143.090548 
L 310.109091 143.090548 
L 313.716364 143.090548 
L 317.323636 143.090548 
L 320.930909 143.090548 
L 324.538182 143.090548 
L 328.145455 143.090548 
L 331.752727 143.090548 
L 335.36 143.090548 
L 338.967273 143.090548 
L 342.574545 143.090548 
L 346.181818 143.090548 
L 349.789091 143.090548 
L 353.396364 143.090548 
L 357.003636 143.090548 
L 360.610909 143.090548 
L 364.218182 143.090548 
L 367.825455 143.090548 
L 371.432727 143.090548 
L 375.04 143.090548 
L 378.647273 143.090548 
L 382.254545 143.090548 
L 385.861818 143.090548 
L 389.469091 143.090548 
L 393.076364 143.090548 
L 396.683636 143.090548 
L 400.290909 143.090548 
L 403.898182 143.090548 
L 407.505455 143.090548 
L 411.112727 143.090548 
L 414.72 143.090548 
L 414.72 140.928 
L 414.72 138.24 
L 414.72 135.552 
L 414.72 132.864 
L 414.72 130.176 
L 414.72 127.488 
L 414.72 124.8 
L 414.72 122.112 
L 414.72 119.424 
L 414.72 116.736 
L 414.72 114.048 
L 414.72 111.36 
L 414.72 108.672 
L 414.72 105.984 
L 414.72 103.296 
L 414.72 100.608 
L 414.72 97.92 
L 414.72 95.232 
L 414.72 92.544 
L 414.72 89.856 
L 414.72 87.168 
L 414.72 84.48 
L 414.72 81.792 
L 414.72 79.104 
L 414.72 76.416 
L 414.72 73.728 
L 414.72 71.04 
L 414.72 68.352 
L 414.72 65.664 
L 414.72 63.684498 
L 411.112727 63.684498 
L 407.505455 63.684498 
L 403.898182 63.684498 
L 400.290909 63.684498 
L 396.683636 63.684498 
L 393.076364 63.684498 
L 389.469091 63.684498 
L 385.861818 63.684498 
L 382.254545 63.684498 
L 378.647273 63.684498 
L 375.04 63.684498 
L 371.432727 63.684498 
L 367.825455 63.684498 
L 364.218182 63.684498 
L 360.610909 63.684498 
L 357.003636 63.684498 
L 353.396364 63.684498 
L 349.789091 63.684498 
L 346.181818 63.684498 
L 342.574545 63.684498 
L 338.967273 63.684498 
L 335.36 63.684498 
L 331.752727 63.684498 
L 328.145455 63.684498 
L 324.538182 63.684498 
L 320.930909 63.684498 
L 317.323636 63.684498 
L 313.716364 63.684498 
L 310.109091 63.684498 
L 306.501818 63.684498 
L 302.894545 63.684498 
L 299.287273 63.684498 
L 295.68 63.684498 
L 292.072727 63.684498 
L 288.465455 63.684498 
L 284.858182 63.684498 
L 281.250909 63.684498 
L 277.643636 63.684498 
L 274.036364 63.684498 
L 271.436836 62.976 
L 271.436836 60.288 
L 271.436836 57.6 
L 271.436836 54.912 
L 271.436836 52.224 
L 271.436836 49.536 
L 271.436836 46.848 
L 271.436836 44.16 
L 271.436836 41.472 
L 270.429091 41.472 
L 266.821818 41.472 
L 263.214545 41.472 
L 259.607273 41.472 
L 256 41.472 
L 252.392727 41.472 
L 248.785455 41.472 
L 245.178182 41.472 
L 241.570909 41.472 
L 237.963636 41.472 
L 234.356364 41.472 
L 230.749091 41.472 
L 227.141818 41.472 
L 223.534545 41.472 
L 219.927273 41.472 
L 216.32 41.472 
L 212.712727 41.472 
L 209.105455 41.472 
L 205.498182 41.472 
L 201.890909 41.472 
L 198.283636 41.472 
L 194.676364 41.472 
L 191.069091 41.472 
L 187.461818 41.472 
L 183.854545 41.472 
L 180.247273 41.472 
L 176.64 41.472 
L 173.032727 41.472 
L 169.425455 41.472 
L 165.818182 41.472 
L 162.210909 41.472 
L 158.603636 41.472 
L 154.996364 41.472 
L 151.389091 41.472 
L 147.781818 41.472 
L 144.174545 41.472 
L 140.567273 41.472 
L 136.96 41.472 
L 133.352727 41.472 
L 129.745455 41.472 
L 126.138182 41.472 
L 122.684727 41.472 
L 122.684727 44.16 
L 122.684727 46.848 
L 122.684727 49.536 
L 122.684727 52.224 
L 122.684727 54.912 
L 122.684727 57.6 
L 122.684727 60.288 
L 122.684727 62.976 
L 126.138182 65.531996 
L 129.745455 65.531996 
L 133.352727 65.531996 
L 136.96 65.531996 
L 140.567273 65.531996 
L 144.174545 65.531996 
L 147.781818 65.531996 
L 151.389091 65.531996 
L 154.996364 65.531996 
L 158.603636 65.531996 
L 162.210909 65.531996 
L 165.818182 65.531996 
L 169.425455 65.531996 
L 173.032727 65.531996 
L 176.64 65.531996 
L 180.247273 65.531996 
L 183.854545 65.531996 
L 187.461818 65.531996 
L 191.069091 65.531996 
L 194.676364 65.531996 
L 198.283636 65.531996 
L 201.890909 65.531996 
L 205.498182 65.531996 
L 206.002723 65.664 
L 206.002723 68.352 
L 206.002723 71.04 
L 206.002723 73.728 
L 206.002723 76.416 
L 206.002723 79.104 
L 206.002723 81.792 
L 206.002723 84.48 
L 206.002723 87.168 
L 206.002723 89.856 
L 206.002723 92.544 
L 206.002723 95.232 
L 206.002723 97.92 
L 206.002723 100.608 
L 206.002723 103.296 
L 206.002723 105.984 
L 206.002723 108.672 
L 206.002723 111.36 
L 206.002723 114.048 
L 206.002723 116.736 
L 206.002723 119.424 
L 206.002723 122.112 
L 206.002723 124.8 
L 206.002723 127.488 
L 206.002723 130.176 
L 205.498182 130.507392 
L 201.890909 130.507392 
L 198.283636 130.507392 
L 194.676364 130.507392 
L 191.069091 130.507392 
L 187.461818 130.507392 
L 183.854545 130.507392 
L 180.247273 130.507392 
L 176.64 130.507392 
L 173.032727 130.507392 
L 169.425455 130.507392 
L 165.818182 130.507392 
L 162.210909 130.507392 
L 158.603636 130.507392 
L 154.996364 130.507392 
L 151.389091 130.507392 
L 147.781818 130.507392 
L 144.174545 130.507392 
L 140.567273 130.507392 
L 136.96 130.507392 
L 133.352727 130.507392 
L 129.745455 130.507392 
L 126.138182 130.507392 
L 124.869873 132.864 
L 124.869873 135.552 
L 124.869873 138.24 
L 124.869873 140.928 
L 123.343643 143.616 
L 122.530909 144.490632 
L 118.923636 144.490632 
L 116.953518 146.304 
L 116.953518 148.992 
L 116.953518 151.68 
L 115.316364 152.254654 
L 111.709091 152.254654 
L 108.101818 152.254654 
L 104.494545 152.254654 
L 100.887273 152.254654 
L 97.28 152.254654 
L 93.672727 152.254654 
L 90.065455 152.254654 
L 86.458182 152.254654 
L 84.393354 151.68 
L 84.393354 148.992 
L 84.393354 146.304 
L 82.850909 145.178336 
L 79.243636 145.178336 
L 75.636364 145.178336 
L 72.029091 145.178336 
L 68.421818 145.178336 
L 64.814545 145.178336 
L 61.207273 145.178336 
L 57.6 145.178336 
L 57.6 146.304 
L 57.6 148.992 
L 57.6 151.68 
L 57.6 154.368 
L 57.6 155.72625 
L 61.207273 155.72625 
L 64.814545 155.72625 
L 68.421818 155.72625 
L 72.029091 155.72625 
L 75.636364 155.72625 
L 79.243636 155.72625 
L 82.850909 155.72625 
L 86.433413 157.056 
L 86.433413 159.744 
z
" clip-path="url(#p780e4e0b79)" style="fill: #73d056; fill-opacity: 0.75"/>
   </g>
   <g id="PathCollection_7">
    <path d="M 86.458182 152.254654 
L 90.065455 152.254654 
L 93.672727 152.254654 
L 97.28 152.254654 
L 100.887273 152.254654 
L 104.494545 152.254654 
L 108.101818 152.254654 
L 111.709091 152.254654 
L 115.316364 152.254654 
L 116.953518 151.68 
L 116.953518 148.992 
L 116.953518 146.304 
L 118.923636 144.490632 
L 122.530909 144.490632 
L 123.343643 143.616 
L 124.869873 140.928 
L 124.869873 138.24 
L 124.869873 135.552 
L 124.869873 132.864 
L 126.138182 130.507392 
L 129.745455 130.507392 
L 133.352727 130.507392 
L 136.96 130.507392 
L 140.567273 130.507392 
L 144.174545 130.507392 
L 147.781818 130.507392 
L 151.389091 130.507392 
L 154.996364 130.507392 
L 158.603636 130.507392 
L 162.210909 130.507392 
L 165.818182 130.507392 
L 169.425455 130.507392 
L 173.032727 130.507392 
L 176.64 130.507392 
L 180.247273 130.507392 
L 183.854545 130.507392 
L 187.461818 130.507392 
L 191.069091 130.507392 
L 194.676364 130.507392 
L 198.283636 130.507392 
L 201.890909 130.507392 
L 205.498182 130.507392 
L 206.002723 130.176 
L 206.002723 127.488 
L 206.002723 124.8 
L 206.002723 122.112 
L 206.002723 119.424 
L 206.002723 116.736 
L 206.002723 114.048 
L 206.002723 111.36 
L 206.002723 108.672 
L 206.002723 105.984 
L 206.002723 103.296 
L 206.002723 100.608 
L 206.002723 97.92 
L 206.002723 95.232 
L 206.002723 92.544 
L 206.002723 89.856 
L 206.002723 87.168 
L 206.002723 84.48 
L 206.002723 81.792 
L 206.002723 79.104 
L 206.002723 76.416 
L 206.002723 73.728 
L 206.002723 71.04 
L 206.002723 68.352 
L 206.002723 65.664 
L 205.498182 65.531996 
L 201.890909 65.531996 
L 198.283636 65.531996 
L 194.676364 65.531996 
L 191.069091 65.531996 
L 187.461818 65.531996 
L 183.854545 65.531996 
L 180.247273 65.531996 
L 176.64 65.531996 
L 173.032727 65.531996 
L 169.425455 65.531996 
L 165.818182 65.531996 
L 162.210909 65.531996 
L 158.603636 65.531996 
L 154.996364 65.531996 
L 151.389091 65.531996 
L 147.781818 65.531996 
L 144.174545 65.531996 
L 140.567273 65.531996 
L 136.96 65.531996 
L 133.352727 65.531996 
L 129.745455 65.531996 
L 126.138182 65.531996 
L 122.684727 62.976 
L 122.684727 60.288 
L 122.684727 57.6 
L 122.684727 54.912 
L 122.684727 52.224 
L 122.684727 49.536 
L 122.684727 46.848 
L 122.684727 44.16 
L 122.684727 41.472 
L 122.530909 41.472 
L 118.923636 41.472 
L 115.316364 41.472 
L 111.709091 41.472 
L 108.101818 41.472 
L 104.494545 41.472 
L 100.887273 41.472 
L 97.28 41.472 
L 93.672727 41.472 
L 90.065455 41.472 
L 86.458182 41.472 
L 82.850909 41.472 
L 79.243636 41.472 
L 75.636364 41.472 
L 72.029091 41.472 
L 68.421818 41.472 
L 64.814545 41.472 
L 61.207273 41.472 
L 57.6 41.472 
L 57.6 44.16 
L 57.6 46.848 
L 57.6 49.536 
L 57.6 52.224 
L 57.6 54.912 
L 57.6 57.6 
L 57.6 60.288 
L 57.6 62.976 
L 57.6 65.664 
L 57.6 68.352 
L 57.6 71.04 
L 57.6 73.728 
L 57.6 76.416 
L 57.6 79.104 
L 57.6 81.792 
L 57.6 84.48 
L 57.6 87.168 
L 57.6 89.856 
L 57.6 92.544 
L 57.6 95.232 
L 57.6 97.92 
L 57.6 100.608 
L 57.6 103.296 
L 57.6 105.984 
L 57.6 108.672 
L 57.6 111.36 
L 57.6 114.048 
L 57.6 116.736 
L 57.6 119.424 
L 57.6 122.112 
L 57.6 124.8 
L 57.6 127.488 
L 57.6 130.176 
L 57.6 132.864 
L 57.6 135.552 
L 57.6 138.24 
L 57.6 140.928 
L 57.6 143.616 
L 57.6 145.178336 
L 61.207273 145.178336 
L 64.814545 145.178336 
L 68.421818 145.178336 
L 72.029091 145.178336 
L 75.636364 145.178336 
L 79.243636 145.178336 
L 82.850909 145.178336 
L 84.393354 146.304 
L 84.393354 148.992 
L 84.393354 151.68 
z
" clip-path="url(#p780e4e0b79)" style="fill: #d0e11c; fill-opacity: 0.75"/>
   </g>
   <g id="matplotlib.axis_1">
    <g id="xtick_1">
     <g id="line2d_1">
      <defs>
       <path id="m6e2ae0f167" d="M 0 0 
L 0 3.5 
" style="stroke: #000000; stroke-width: 0.8"/>
      </defs>
      <g>
       <use xlink:href="#m6e2ae0f167" x="80.828777" y="307.584" style="stroke: #000000; stroke-width: 0.8"/>
      </g>
     </g>
     <g id="text_1">
      <!-- 10 -->
      <g transform="translate(74.466277 322.182437) scale(0.1 -0.1)">
       <defs>
        <path id="DejaVuSans-31" d="M 794 531 
L 1825 531 
L 1825 4091 
L 703 3866 
L 703 4441 
L 1819 4666 
L 2450 4666 
L 2450 531 
L 3481 531 
L 3481 0 
L 794 0 
L 794 531 
z
" transform="scale(0.015625)"/>
        <path id="DejaVuSans-30" d="M 2034 4250 
Q 1547 4250 1301 3770 
Q 1056 3291 1056 2328 
Q 1056 1369 1301 889 
Q 1547 409 2034 409 
Q 2525 409 2770 889 
Q 3016 1369 3016 2328 
Q 3016 3291 2770 3770 
Q 2525 4250 2034 4250 
z
M 2034 4750 
Q 2819 4750 3233 4129 
Q 3647 3509 3647 2328 
Q 3647 1150 3233 529 
Q 2819 -91 2034 -91 
Q 1250 -91 836 529 
Q 422 1150 422 2328 
Q 422 3509 836 4129 
Q 1250 4750 2034 4750 
z
" transform="scale(0.015625)"/>
       </defs>
       <use xlink:href="#DejaVuSans-31"/>
       <use xlink:href="#DejaVuSans-30" x="63.623047"/>
      </g>
     </g>
    </g>
    <g id="xtick_2">
     <g id="line2d_2">
      <g>
       <use xlink:href="#m6e2ae0f167" x="122.391862" y="307.584" style="stroke: #000000; stroke-width: 0.8"/>
      </g>
     </g>
     <g id="text_2">
      <!-- 15 -->
      <g transform="translate(116.029362 322.182437) scale(0.1 -0.1)">
       <defs>
        <path id="DejaVuSans-35" d="M 691 4666 
L 3169 4666 
L 3169 4134 
L 1269 4134 
L 1269 2991 
Q 1406 3038 1543 3061 
Q 1681 3084 1819 3084 
Q 2600 3084 3056 2656 
Q 3513 2228 3513 1497 
Q 3513 744 3044 326 
Q 2575 -91 1722 -91 
Q 1428 -91 1123 -41 
Q 819 9 494 109 
L 494 744 
Q 775 591 1075 516 
Q 1375 441 1709 441 
Q 2250 441 2565 725 
Q 2881 1009 2881 1497 
Q 2881 1984 2565 2268 
Q 2250 2553 1709 2553 
Q 1456 2553 1204 2497 
Q 953 2441 691 2322 
L 691 4666 
z
" transform="scale(0.015625)"/>
       </defs>
       <use xlink:href="#DejaVuSans-31"/>
       <use xlink:href="#DejaVuSans-35" x="63.623047"/>
      </g>
     </g>
    </g>
    <g id="xtick_3">
     <g id="line2d_3">
      <g>
       <use xlink:href="#m6e2ae0f167" x="163.954947" y="307.584" style="stroke: #000000; stroke-width: 0.8"/>
      </g>
     </g>
     <g id="text_3">
      <!-- 20 -->
      <g transform="translate(157.592447 322.182437) scale(0.1 -0.1)">
       <defs>
        <path id="DejaVuSans-32" d="M 1228 531 
L 3431 531 
L 3431 0 
L 469 0 
L 469 531 
Q 828 903 1448 1529 
Q 2069 2156 2228 2338 
Q 2531 2678 2651 2914 
Q 2772 3150 2772 3378 
Q 2772 3750 2511 3984 
Q 2250 4219 1831 4219 
Q 1534 4219 1204 4116 
Q 875 4013 500 3803 
L 500 4441 
Q 881 4594 1212 4672 
Q 1544 4750 1819 4750 
Q 2544 4750 2975 4387 
Q 3406 4025 3406 3419 
Q 3406 3131 3298 2873 
Q 3191 2616 2906 2266 
Q 2828 2175 2409 1742 
Q 1991 1309 1228 531 
z
" transform="scale(0.015625)"/>
       </defs>
       <use xlink:href="#DejaVuSans-32"/>
       <use xlink:href="#DejaVuSans-30" x="63.623047"/>
      </g>
     </g>
    </g>
    <g id="xtick_4">
     <g id="line2d_4">
      <g>
       <use xlink:href="#m6e2ae0f167" x="205.518031" y="307.584" style="stroke: #000000; stroke-width: 0.8"/>
      </g>
     </g>
     <g id="text_4">
      <!-- 25 -->
      <g transform="translate(199.155531 322.182437) scale(0.1 -0.1)">
       <use xlink:href="#DejaVuSans-32"/>
       <use xlink:href="#DejaVuSans-35" x="63.623047"/>
      </g>
     </g>
    </g>
    <g id="xtick_5">
     <g id="line2d_5">
      <g>
       <use xlink:href="#m6e2ae0f167" x="247.081116" y="307.584" style="stroke: #000000; stroke-width: 0.8"/>
      </g>
     </g>
     <g id="text_5">
      <!-- 30 -->
      <g transform="translate(240.718616 322.182437) scale(0.1 -0.1)">
       <defs>
        <path id="DejaVuSans-33" d="M 2597 2516 
Q 3050 2419 3304 2112 
Q 3559 1806 3559 1356 
Q 3559 666 3084 287 
Q 2609 -91 1734 -91 
Q 1441 -91 1130 -33 
Q 819 25 488 141 
L 488 750 
Q 750 597 1062 519 
Q 1375 441 1716 441 
Q 2309 441 2620 675 
Q 2931 909 2931 1356 
Q 2931 1769 2642 2001 
Q 2353 2234 1838 2234 
L 1294 2234 
L 1294 2753 
L 1863 2753 
Q 2328 2753 2575 2939 
Q 2822 3125 2822 3475 
Q 2822 3834 2567 4026 
Q 2313 4219 1838 4219 
Q 1578 4219 1281 4162 
Q 984 4106 628 3988 
L 628 4550 
Q 988 4650 1302 4700 
Q 1616 4750 1894 4750 
Q 2613 4750 3031 4423 
Q 3450 4097 3450 3541 
Q 3450 3153 3228 2886 
Q 3006 2619 2597 2516 
z
" transform="scale(0.015625)"/>
       </defs>
       <use xlink:href="#DejaVuSans-33"/>
       <use xlink:href="#DejaVuSans-30" x="63.623047"/>
      </g>
     </g>
    </g>
    <g id="xtick_6">
     <g id="line2d_6">
      <g>
       <use xlink:href="#m6e2ae0f167" x="288.644201" y="307.584" style="stroke: #000000; stroke-width: 0.8"/>
      </g>
     </g>
     <g id="text_6">
      <!-- 35 -->
      <g transform="translate(282.281701 322.182437) scale(0.1 -0.1)">
       <use xlink:href="#DejaVuSans-33"/>
       <use xlink:href="#DejaVuSans-35" x="63.623047"/>
      </g>
     </g>
    </g>
    <g id="xtick_7">
     <g id="line2d_7">
      <g>
       <use xlink:href="#m6e2ae0f167" x="330.207286" y="307.584" style="stroke: #000000; stroke-width: 0.8"/>
      </g>
     </g>
     <g id="text_7">
      <!-- 40 -->
      <g transform="translate(323.844786 322.182437) scale(0.1 -0.1)">
       <defs>
        <path id="DejaVuSans-34" d="M 2419 4116 
L 825 1625 
L 2419 1625 
L 2419 4116 
z
M 2253 4666 
L 3047 4666 
L 3047 1625 
L 3713 1625 
L 3713 1100 
L 3047 1100 
L 3047 0 
L 2419 0 
L 2419 1100 
L 313 1100 
L 313 1709 
L 2253 4666 
z
" transform="scale(0.015625)"/>
       </defs>
       <use xlink:href="#DejaVuSans-34"/>
       <use xlink:href="#DejaVuSans-30" x="63.623047"/>
      </g>
     </g>
    </g>
    <g id="xtick_8">
     <g id="line2d_8">
      <g>
       <use xlink:href="#m6e2ae0f167" x="371.770371" y="307.584" style="stroke: #000000; stroke-width: 0.8"/>
      </g>
     </g>
     <g id="text_8">
      <!-- 45 -->
      <g transform="translate(365.407871 322.182437) scale(0.1 -0.1)">
       <use xlink:href="#DejaVuSans-34"/>
       <use xlink:href="#DejaVuSans-35" x="63.623047"/>
      </g>
     </g>
    </g>
    <g id="xtick_9">
     <g id="line2d_9">
      <g>
       <use xlink:href="#m6e2ae0f167" x="413.333455" y="307.584" style="stroke: #000000; stroke-width: 0.8"/>
      </g>
     </g>
     <g id="text_9">
      <!-- 50 -->
      <g transform="translate(406.970955 322.182437) scale(0.1 -0.1)">
       <use xlink:href="#DejaVuSans-35"/>
       <use xlink:href="#DejaVuSans-30" x="63.623047"/>
      </g>
     </g>
    </g>
    <g id="text_10">
     <!-- PM2.5 -->
     <g transform="translate(220.879531 335.860562) scale(0.1 -0.1)">
      <defs>
       <path id="DejaVuSans-50" d="M 1259 4147 
L 1259 2394 
L 2053 2394 
Q 2494 2394 2734 2622 
Q 2975 2850 2975 3272 
Q 2975 3691 2734 3919 
Q 2494 4147 2053 4147 
L 1259 4147 
z
M 628 4666 
L 2053 4666 
Q 2838 4666 3239 4311 
Q 3641 3956 3641 3272 
Q 3641 2581 3239 2228 
Q 2838 1875 2053 1875 
L 1259 1875 
L 1259 0 
L 628 0 
L 628 4666 
z
" transform="scale(0.015625)"/>
       <path id="DejaVuSans-4d" d="M 628 4666 
L 1569 4666 
L 2759 1491 
L 3956 4666 
L 4897 4666 
L 4897 0 
L 4281 0 
L 4281 4097 
L 3078 897 
L 2444 897 
L 1241 4097 
L 1241 0 
L 628 0 
L 628 4666 
z
" transform="scale(0.015625)"/>
       <path id="DejaVuSans-2e" d="M 684 794 
L 1344 794 
L 1344 0 
L 684 0 
L 684 794 
z
" transform="scale(0.015625)"/>
      </defs>
      <use xlink:href="#DejaVuSans-50"/>
      <use xlink:href="#DejaVuSans-4d" x="60.302734"/>
      <use xlink:href="#DejaVuSans-32" x="146.582031"/>
      <use xlink:href="#DejaVuSans-2e" x="210.205078"/>
      <use xlink:href="#DejaVuSans-35" x="241.992188"/>
     </g>
    </g>
   </g>
   <g id="matplotlib.axis_2">
    <g id="ytick_1">
     <g id="line2d_10">
      <defs>
       <path id="m999dba7b4f" d="M 0 0 
L -3.5 0 
" style="stroke: #000000; stroke-width: 0.8"/>
      </defs>
      <g>
       <use xlink:href="#m999dba7b4f" x="57.6" y="264.611316" style="stroke: #000000; stroke-width: 0.8"/>
      </g>
     </g>
     <g id="text_11">
      <!-- 10 -->
      <g transform="translate(37.875 268.410535) scale(0.1 -0.1)">
       <use xlink:href="#DejaVuSans-31"/>
       <use xlink:href="#DejaVuSans-30" x="63.623047"/>
      </g>
     </g>
    </g>
    <g id="ytick_2">
     <g id="line2d_11">
      <g>
       <use xlink:href="#m999dba7b4f" x="57.6" y="209.291178" style="stroke: #000000; stroke-width: 0.8"/>
      </g>
     </g>
     <g id="text_12">
      <!-- 15 -->
      <g transform="translate(37.875 213.090397) scale(0.1 -0.1)">
       <use xlink:href="#DejaVuSans-31"/>
       <use xlink:href="#DejaVuSans-35" x="63.623047"/>
      </g>
     </g>
    </g>
    <g id="ytick_3">
     <g id="line2d_12">
      <g>
       <use xlink:href="#m999dba7b4f" x="57.6" y="153.971041" style="stroke: #000000; stroke-width: 0.8"/>
      </g>
     </g>
     <g id="text_13">
      <!-- 20 -->
      <g transform="translate(37.875 157.77026) scale(0.1 -0.1)">
       <use xlink:href="#DejaVuSans-32"/>
       <use xlink:href="#DejaVuSans-30" x="63.623047"/>
      </g>
     </g>
    </g>
    <g id="ytick_4">
     <g id="line2d_13">
      <g>
       <use xlink:href="#m999dba7b4f" x="57.6" y="98.650903" style="stroke: #000000; stroke-width: 0.8"/>
      </g>
     </g>
     <g id="text_14">
      <!-- 25 -->
      <g transform="translate(37.875 102.450122) scale(0.1 -0.1)">
       <use xlink:href="#DejaVuSans-32"/>
       <use xlink:href="#DejaVuSans-35" x="63.623047"/>
      </g>
     </g>
    </g>
    <g id="ytick_5">
     <g id="line2d_14">
      <g>
       <use xlink:href="#m999dba7b4f" x="57.6" y="43.330766" style="stroke: #000000; stroke-width: 0.8"/>
      </g>
     </g>
     <g id="text_15">
      <!-- 30 -->
      <g transform="translate(37.875 47.129985) scale(0.1 -0.1)">
       <use xlink:href="#DejaVuSans-33"/>
       <use xlink:href="#DejaVuSans-30" x="63.623047"/>
      </g>
     </g>
    </g>
    <g id="text_16">
     <!-- Smoking Prevalence -->
     <g transform="translate(31.795312 225.278781) rotate(-90) scale(0.1 -0.1)">
      <defs>
       <path id="DejaVuSans-53" d="M 3425 4513 
L 3425 3897 
Q 3066 4069 2747 4153 
Q 2428 4238 2131 4238 
Q 1616 4238 1336 4038 
Q 1056 3838 1056 3469 
Q 1056 3159 1242 3001 
Q 1428 2844 1947 2747 
L 2328 2669 
Q 3034 2534 3370 2195 
Q 3706 1856 3706 1288 
Q 3706 609 3251 259 
Q 2797 -91 1919 -91 
Q 1588 -91 1214 -16 
Q 841 59 441 206 
L 441 856 
Q 825 641 1194 531 
Q 1563 422 1919 422 
Q 2459 422 2753 634 
Q 3047 847 3047 1241 
Q 3047 1584 2836 1778 
Q 2625 1972 2144 2069 
L 1759 2144 
Q 1053 2284 737 2584 
Q 422 2884 422 3419 
Q 422 4038 858 4394 
Q 1294 4750 2059 4750 
Q 2388 4750 2728 4690 
Q 3069 4631 3425 4513 
z
" transform="scale(0.015625)"/>
       <path id="DejaVuSans-6d" d="M 3328 2828 
Q 3544 3216 3844 3400 
Q 4144 3584 4550 3584 
Q 5097 3584 5394 3201 
Q 5691 2819 5691 2113 
L 5691 0 
L 5113 0 
L 5113 2094 
Q 5113 2597 4934 2840 
Q 4756 3084 4391 3084 
Q 3944 3084 3684 2787 
Q 3425 2491 3425 1978 
L 3425 0 
L 2847 0 
L 2847 2094 
Q 2847 2600 2669 2842 
Q 2491 3084 2119 3084 
Q 1678 3084 1418 2786 
Q 1159 2488 1159 1978 
L 1159 0 
L 581 0 
L 581 3500 
L 1159 3500 
L 1159 2956 
Q 1356 3278 1631 3431 
Q 1906 3584 2284 3584 
Q 2666 3584 2933 3390 
Q 3200 3197 3328 2828 
z
" transform="scale(0.015625)"/>
       <path id="DejaVuSans-6f" d="M 1959 3097 
Q 1497 3097 1228 2736 
Q 959 2375 959 1747 
Q 959 1119 1226 758 
Q 1494 397 1959 397 
Q 2419 397 2687 759 
Q 2956 1122 2956 1747 
Q 2956 2369 2687 2733 
Q 2419 3097 1959 3097 
z
M 1959 3584 
Q 2709 3584 3137 3096 
Q 3566 2609 3566 1747 
Q 3566 888 3137 398 
Q 2709 -91 1959 -91 
Q 1206 -91 779 398 
Q 353 888 353 1747 
Q 353 2609 779 3096 
Q 1206 3584 1959 3584 
z
" transform="scale(0.015625)"/>
       <path id="DejaVuSans-6b" d="M 581 4863 
L 1159 4863 
L 1159 1991 
L 2875 3500 
L 3609 3500 
L 1753 1863 
L 3688 0 
L 2938 0 
L 1159 1709 
L 1159 0 
L 581 0 
L 581 4863 
z
" transform="scale(0.015625)"/>
       <path id="DejaVuSans-69" d="M 603 3500 
L 1178 3500 
L 1178 0 
L 603 0 
L 603 3500 
z
M 603 4863 
L 1178 4863 
L 1178 4134 
L 603 4134 
L 603 4863 
z
" transform="scale(0.015625)"/>
       <path id="DejaVuSans-6e" d="M 3513 2113 
L 3513 0 
L 2938 0 
L 2938 2094 
Q 2938 2591 2744 2837 
Q 2550 3084 2163 3084 
Q 1697 3084 1428 2787 
Q 1159 2491 1159 1978 
L 1159 0 
L 581 0 
L 581 3500 
L 1159 3500 
L 1159 2956 
Q 1366 3272 1645 3428 
Q 1925 3584 2291 3584 
Q 2894 3584 3203 3211 
Q 3513 2838 3513 2113 
z
" transform="scale(0.015625)"/>
       <path id="DejaVuSans-67" d="M 2906 1791 
Q 2906 2416 2648 2759 
Q 2391 3103 1925 3103 
Q 1463 3103 1205 2759 
Q 947 2416 947 1791 
Q 947 1169 1205 825 
Q 1463 481 1925 481 
Q 2391 481 2648 825 
Q 2906 1169 2906 1791 
z
M 3481 434 
Q 3481 -459 3084 -895 
Q 2688 -1331 1869 -1331 
Q 1566 -1331 1297 -1286 
Q 1028 -1241 775 -1147 
L 775 -588 
Q 1028 -725 1275 -790 
Q 1522 -856 1778 -856 
Q 2344 -856 2625 -561 
Q 2906 -266 2906 331 
L 2906 616 
Q 2728 306 2450 153 
Q 2172 0 1784 0 
Q 1141 0 747 490 
Q 353 981 353 1791 
Q 353 2603 747 3093 
Q 1141 3584 1784 3584 
Q 2172 3584 2450 3431 
Q 2728 3278 2906 2969 
L 2906 3500 
L 3481 3500 
L 3481 434 
z
" transform="scale(0.015625)"/>
       <path id="DejaVuSans-20" transform="scale(0.015625)"/>
       <path id="DejaVuSans-72" d="M 2631 2963 
Q 2534 3019 2420 3045 
Q 2306 3072 2169 3072 
Q 1681 3072 1420 2755 
Q 1159 2438 1159 1844 
L 1159 0 
L 581 0 
L 581 3500 
L 1159 3500 
L 1159 2956 
Q 1341 3275 1631 3429 
Q 1922 3584 2338 3584 
Q 2397 3584 2469 3576 
Q 2541 3569 2628 3553 
L 2631 2963 
z
" transform="scale(0.015625)"/>
       <path id="DejaVuSans-65" d="M 3597 1894 
L 3597 1613 
L 953 1613 
Q 991 1019 1311 708 
Q 1631 397 2203 397 
Q 2534 397 2845 478 
Q 3156 559 3463 722 
L 3463 178 
Q 3153 47 2828 -22 
Q 2503 -91 2169 -91 
Q 1331 -91 842 396 
Q 353 884 353 1716 
Q 353 2575 817 3079 
Q 1281 3584 2069 3584 
Q 2775 3584 3186 3129 
Q 3597 2675 3597 1894 
z
M 3022 2063 
Q 3016 2534 2758 2815 
Q 2500 3097 2075 3097 
Q 1594 3097 1305 2825 
Q 1016 2553 972 2059 
L 3022 2063 
z
" transform="scale(0.015625)"/>
       <path id="DejaVuSans-76" d="M 191 3500 
L 800 3500 
L 1894 563 
L 2988 3500 
L 3597 3500 
L 2284 0 
L 1503 0 
L 191 3500 
z
" transform="scale(0.015625)"/>
       <path id="DejaVuSans-61" d="M 2194 1759 
Q 1497 1759 1228 1600 
Q 959 1441 959 1056 
Q 959 750 1161 570 
Q 1363 391 1709 391 
Q 2188 391 2477 730 
Q 2766 1069 2766 1631 
L 2766 1759 
L 2194 1759 
z
M 3341 1997 
L 3341 0 
L 2766 0 
L 2766 531 
Q 2569 213 2275 61 
Q 1981 -91 1556 -91 
Q 1019 -91 701 211 
Q 384 513 384 1019 
Q 384 1609 779 1909 
Q 1175 2209 1959 2209 
L 2766 2209 
L 2766 2266 
Q 2766 2663 2505 2880 
Q 2244 3097 1772 3097 
Q 1472 3097 1187 3025 
Q 903 2953 641 2809 
L 641 3341 
Q 956 3463 1253 3523 
Q 1550 3584 1831 3584 
Q 2591 3584 2966 3190 
Q 3341 2797 3341 1997 
z
" transform="scale(0.015625)"/>
       <path id="DejaVuSans-6c" d="M 603 4863 
L 1178 4863 
L 1178 0 
L 603 0 
L 603 4863 
z
" transform="scale(0.015625)"/>
       <path id="DejaVuSans-63" d="M 3122 3366 
L 3122 2828 
Q 2878 2963 2633 3030 
Q 2388 3097 2138 3097 
Q 1578 3097 1268 2742 
Q 959 2388 959 1747 
Q 959 1106 1268 751 
Q 1578 397 2138 397 
Q 2388 397 2633 464 
Q 2878 531 3122 666 
L 3122 134 
Q 2881 22 2623 -34 
Q 2366 -91 2075 -91 
Q 1284 -91 818 406 
Q 353 903 353 1747 
Q 353 2603 823 3093 
Q 1294 3584 2113 3584 
Q 2378 3584 2631 3529 
Q 2884 3475 3122 3366 
z
" transform="scale(0.015625)"/>
      </defs>
      <use xlink:href="#DejaVuSans-53"/>
      <use xlink:href="#DejaVuSans-6d" x="63.476562"/>
      <use xlink:href="#DejaVuSans-6f" x="160.888672"/>
      <use xlink:href="#DejaVuSans-6b" x="222.070312"/>
      <use xlink:href="#DejaVuSans-69" x="279.980469"/>
      <use xlink:href="#DejaVuSans-6e" x="307.763672"/>
      <use xlink:href="#DejaVuSans-67" x="371.142578"/>
      <use xlink:href="#DejaVuSans-20" x="434.619141"/>
      <use xlink:href="#DejaVuSans-50" x="466.40625"/>
      <use xlink:href="#DejaVuSans-72" x="524.958984"/>
      <use xlink:href="#DejaVuSans-65" x="563.822266"/>
      <use xlink:href="#DejaVuSans-76" x="625.345703"/>
      <use xlink:href="#DejaVuSans-61" x="684.525391"/>
      <use xlink:href="#DejaVuSans-6c" x="745.804688"/>
      <use xlink:href="#DejaVuSans-65" x="773.587891"/>
      <use xlink:href="#DejaVuSans-6e" x="835.111328"/>
      <use xlink:href="#DejaVuSans-63" x="898.490234"/>
      <use xlink:href="#DejaVuSans-65" x="953.470703"/>
     </g>
    </g>
   </g>
   <g id="PathCollection_8"/>
   <g id="PathCollection_9">
    <path d="M 207.507366 307.584 
L 207.507366 304.896 
L 207.507366 302.208 
L 207.507366 299.52 
L 207.507366 296.832 
L 207.507366 294.144 
L 207.507366 291.456 
L 207.507366 288.768 
L 207.507366 286.08 
L 207.507366 283.392 
L 207.507366 280.704 
L 207.507366 278.016 
L 207.507366 275.328 
L 207.507366 272.64 
L 207.507366 269.952 
L 207.507366 267.264 
L 207.507366 264.576 
L 207.507366 261.888 
L 207.507366 259.2 
L 207.507366 256.512 
L 207.507366 253.824 
L 207.507366 251.136 
L 207.507366 248.448 
L 209.078884 245.76 
L 209.078884 243.072 
L 209.078884 240.384 
L 209.078884 237.696 
L 209.078884 235.008 
L 209.078884 232.32 
L 209.078884 229.632 
L 209.078884 226.944 
L 209.078884 224.256 
L 209.105455 224.19233 
L 212.712727 224.19233 
L 216.32 224.19233 
L 219.927273 224.19233 
L 223.534545 224.19233 
L 227.141818 224.19233 
L 230.749091 224.19233 
L 234.356364 224.19233 
L 237.963636 224.19233 
L 241.570909 224.19233 
L 245.178182 224.19233 
L 248.785455 224.19233 
L 252.392727 224.19233 
L 256 224.19233 
L 259.607273 224.19233 
L 260.01484 221.568 
L 261.054845 218.88 
L 261.054845 216.192 
L 261.054845 213.504 
L 263.214545 212.021449 
L 263.701327 211.870164 
" clip-path="url(#p780e4e0b79)" style="fill: none; stroke: #000000; stroke-width: 0.5"/>
    <path d="M 285.990878 196.993241 
L 288.465455 196.993241 
L 292.072727 196.993241 
L 295.68 196.993241 
L 299.287273 196.993241 
L 302.894545 196.993241 
L 306.501818 196.993241 
L 310.109091 196.993241 
L 313.716364 196.993241 
L 317.323636 196.993241 
L 320.930909 196.993241 
L 324.538182 196.993241 
L 328.145455 196.993241 
L 331.752727 196.993241 
L 335.36 196.993241 
L 338.967273 196.993241 
L 342.574545 196.993241 
L 346.181818 196.993241 
L 349.789091 196.993241 
L 353.396364 196.993241 
L 357.003636 196.993241 
L 360.610909 196.993241 
L 364.218182 196.993241 
L 367.825455 196.993241 
L 371.432727 196.993241 
L 375.04 196.993241 
L 378.647273 196.993241 
L 382.254545 196.993241 
L 385.861818 196.993241 
L 389.469091 196.993241 
L 393.076364 196.993241 
L 396.683636 196.993241 
L 400.290909 196.993241 
L 403.898182 196.993241 
L 407.505455 196.993241 
L 411.112727 196.993241 
L 414.72 196.993241 
" clip-path="url(#p780e4e0b79)" style="fill: none; stroke: #000000; stroke-width: 0.5"/>
   </g>
   <g id="PathCollection_10">
    <path d="M 57.6 211.20516 
L 61.207273 211.20516 
L 64.814545 211.20516 
L 68.421818 211.20516 
L 72.029091 211.20516 
L 75.636364 211.20516 
L 79.243636 211.20516 
L 82.850909 211.20516 
L 86.458182 212.973072 
L 90.065455 212.973072 
L 93.672727 212.973072 
L 97.28 212.973072 
L 100.887273 212.973072 
L 104.494545 212.973072 
L 106.839924 212.973072 
" clip-path="url(#p780e4e0b79)" style="fill: none; stroke: #000000; stroke-width: 0.5"/>
    <path d="M 128.51714 196.204687 
L 129.745455 196.204687 
L 133.352727 196.204687 
L 136.96 196.204687 
L 140.567273 196.204687 
L 144.174545 196.204687 
L 147.781818 196.204687 
L 151.389091 196.204687 
L 154.996364 196.204687 
L 158.603636 196.204687 
L 162.210909 196.204687 
L 165.818182 196.204687 
L 169.425455 196.204687 
L 173.032727 196.204687 
L 176.64 196.204687 
L 180.247273 196.204687 
L 183.854545 196.204687 
L 187.461818 196.204687 
L 191.069091 196.204687 
L 194.676364 196.204687 
L 198.283636 196.204687 
L 201.890909 196.204687 
L 205.498182 196.204687 
L 209.105455 195.801863 
L 212.712727 195.801863 
L 216.32 195.801863 
L 219.927273 195.801863 
L 223.534545 195.801863 
L 227.141818 195.801863 
L 230.749091 195.801863 
L 234.356364 195.801863 
L 237.963636 195.801863 
L 241.570909 195.801863 
L 245.178182 195.801863 
L 248.785455 195.801863 
L 252.392727 195.801863 
L 256 195.801863 
L 259.607273 195.801863 
L 263.214545 194.71946 
L 263.446124 194.688 
L 266.821818 193.683564 
L 270.429091 193.683564 
L 274.036364 192.764444 
L 277.643636 192.764444 
L 281.250909 192.764444 
L 284.858182 192.764444 
L 288.465455 192.764444 
L 292.072727 192.764444 
L 295.68 192.764444 
L 299.287273 192.764444 
L 302.894545 192.764444 
L 306.501818 192.764444 
L 310.109091 192.764444 
L 313.716364 192.764444 
L 317.323636 192.764444 
L 320.930909 192.764444 
L 324.538182 192.764444 
L 328.145455 192.764444 
L 331.752727 192.764444 
L 335.36 192.764444 
L 338.967273 192.764444 
L 342.574545 192.764444 
L 346.181818 192.764444 
L 349.789091 192.764444 
L 353.396364 192.764444 
L 357.003636 192.764444 
L 360.610909 192.764444 
L 364.218182 192.764444 
L 367.825455 192.764444 
L 371.432727 192.764444 
L 375.04 192.764444 
L 378.647273 192.764444 
L 382.254545 192.764444 
L 385.861818 192.764444 
L 389.469091 192.764444 
L 393.076364 192.764444 
L 396.683636 192.764444 
L 400.290909 192.764444 
L 403.898182 192.764444 
L 407.505455 192.764444 
L 411.112727 192.764444 
L 414.72 192.764444 
" clip-path="url(#p780e4e0b79)" style="fill: none; stroke: #000000; stroke-width: 0.5"/>
   </g>
   <g id="PathCollection_11">
    <path d="M 57.6 193.975385 
L 61.207273 193.975385 
L 64.814545 193.975385 
L 68.421818 193.975385 
L 72.029091 193.975385 
L 75.636364 193.975385 
L 79.243636 193.975385 
L 82.850909 193.975385 
L 84.369626 194.688 
L 86.458182 195.135427 
L 90.065455 195.135427 
L 93.672727 195.135427 
L 97.28 195.135427 
L 100.887273 195.135427 
L 104.494545 195.135427 
L 108.101818 195.135427 
L 111.709091 195.135427 
L 115.316364 195.135427 
L 116.972332 194.688 
L 118.923636 193.533224 
L 122.530909 193.533224 
L 124.746807 192 
L 126.138182 189.463496 
L 129.745455 189.463496 
L 133.352727 189.463496 
L 136.96 189.463496 
L 140.567273 189.463496 
L 144.174545 189.463496 
L 147.781818 189.463496 
L 151.389091 189.463496 
L 154.996364 189.463496 
L 158.603636 189.463496 
L 162.210909 189.463496 
L 165.818182 189.463496 
L 169.425455 189.463496 
L 173.032727 189.463496 
L 176.64 189.463496 
L 180.247273 189.463496 
L 183.854545 189.463496 
L 187.461818 189.463496 
L 191.069091 189.463496 
L 194.676364 189.463496 
L 198.283636 189.463496 
L 201.890909 189.463496 
L 205.498182 189.463496 
L 205.733268 189.312 
L 205.733268 186.624 
L 205.733268 183.936 
L 205.733268 181.248 
L 205.733268 178.56 
L 209.105455 177.448472 
L 212.712727 177.448472 
L 216.32 177.448472 
L 219.927273 177.448472 
L 220.008636 177.448472 
" clip-path="url(#p780e4e0b79)" style="fill: none; stroke: #000000; stroke-width: 0.5"/>
    <path d="M 255.918636 177.448472 
L 256 177.448472 
L 259.607273 177.448472 
L 261.387204 175.872 
L 261.387204 173.184 
L 263.214545 171.191242 
L 264.622715 170.496 
L 266.821818 170.110829 
L 270.429091 170.110829 
L 274.036364 169.5698 
L 277.643636 169.5698 
L 281.250909 169.5698 
L 284.858182 169.5698 
L 288.465455 169.5698 
L 292.072727 169.5698 
L 295.68 169.5698 
L 299.287273 169.5698 
L 302.894545 169.5698 
L 306.501818 169.5698 
L 310.109091 169.5698 
L 313.716364 169.5698 
L 317.323636 169.5698 
L 320.930909 169.5698 
L 324.538182 169.5698 
L 328.145455 169.5698 
L 331.752727 169.5698 
L 335.36 169.5698 
L 338.967273 169.5698 
L 342.574545 169.5698 
L 346.181818 169.5698 
L 349.789091 169.5698 
L 353.396364 169.5698 
L 357.003636 169.5698 
L 360.610909 169.5698 
L 364.218182 169.5698 
L 367.825455 169.5698 
L 371.432727 169.5698 
L 375.04 169.5698 
L 378.647273 169.5698 
L 382.254545 169.5698 
L 385.861818 169.5698 
L 389.469091 169.5698 
L 393.076364 169.5698 
L 396.683636 169.5698 
L 400.290909 169.5698 
L 403.898182 169.5698 
L 407.505455 169.5698 
L 411.112727 169.5698 
L 414.72 169.5698 
" clip-path="url(#p780e4e0b79)" style="fill: none; stroke: #000000; stroke-width: 0.5"/>
   </g>
   <g id="PathCollection_12">
    <path d="M 57.6 170.282606 
L 61.207273 170.282606 
L 64.814545 170.282606 
L 68.421818 170.282606 
L 72.029091 170.282606 
L 75.636364 170.282606 
L 79.243636 170.282606 
L 82.850909 170.282606 
L 83.623509 170.496 
L 86.458182 172.703004 
L 90.065455 172.703004 
L 93.672727 172.703004 
L 97.28 172.703004 
L 100.887273 172.703004 
L 101.951204 172.703004 
" clip-path="url(#p780e4e0b79)" style="fill: none; stroke: #000000; stroke-width: 0.5"/>
    <path d="M 136.590914 168.553126 
L 136.96 168.553126 
L 140.567273 168.553126 
L 144.174545 168.553126 
L 147.781818 168.553126 
L 151.389091 168.553126 
L 154.996364 168.553126 
L 158.603636 168.553126 
L 162.210909 168.553126 
L 165.818182 168.553126 
L 169.425455 168.553126 
L 173.032727 168.553126 
L 176.64 168.553126 
L 180.247273 168.553126 
L 183.854545 168.553126 
L 187.461818 168.553126 
L 191.069091 168.553126 
L 194.676364 168.553126 
L 198.283636 168.553126 
L 201.890909 168.553126 
L 205.498182 168.553126 
L 209.105455 168.033769 
L 212.712727 168.033769 
L 216.32 168.033769 
L 219.927273 168.033769 
L 223.534545 168.033769 
L 227.141818 168.033769 
L 230.749091 168.033769 
L 234.356364 168.033769 
L 237.963636 168.033769 
L 241.570909 168.033769 
L 245.178182 168.033769 
L 248.785455 168.033769 
L 252.392727 168.033769 
L 256 168.033769 
L 259.607273 168.033769 
L 260.190855 167.808 
L 260.190855 165.12 
L 260.190855 162.432 
L 261.845957 159.744 
L 261.845957 157.056 
L 263.214545 156.344474 
L 266.821818 155.495405 
L 270.429091 155.495405 
L 274.036364 154.768333 
L 277.643636 154.768333 
L 281.250909 154.768333 
L 284.858182 154.768333 
L 288.465455 154.768333 
L 292.072727 154.768333 
L 295.68 154.768333 
L 299.287273 154.768333 
L 302.894545 154.768333 
L 306.501818 154.768333 
L 310.109091 154.768333 
L 313.716364 154.768333 
L 317.323636 154.768333 
L 320.930909 154.768333 
L 324.538182 154.768333 
L 328.145455 154.768333 
L 331.752727 154.768333 
L 335.36 154.768333 
L 338.967273 154.768333 
L 342.574545 154.768333 
L 346.181818 154.768333 
L 349.789091 154.768333 
L 353.396364 154.768333 
L 357.003636 154.768333 
L 360.610909 154.768333 
L 364.218182 154.768333 
L 367.825455 154.768333 
L 371.432727 154.768333 
L 375.04 154.768333 
L 378.647273 154.768333 
L 382.254545 154.768333 
L 385.861818 154.768333 
L 389.469091 154.768333 
L 393.076364 154.768333 
L 396.683636 154.768333 
L 400.290909 154.768333 
L 403.898182 154.768333 
L 407.505455 154.768333 
L 411.112727 154.768333 
L 414.72 154.768333 
" clip-path="url(#p780e4e0b79)" style="fill: none; stroke: #000000; stroke-width: 0.5"/>
   </g>
   <g id="PathCollection_13">
    <path d="M 57.6 155.72625 
L 61.207273 155.72625 
L 64.814545 155.72625 
L 68.421818 155.72625 
L 72.029091 155.72625 
L 75.636364 155.72625 
L 79.243636 155.72625 
L 82.850909 155.72625 
L 86.433413 157.056 
L 86.433413 159.744 
L 86.458182 159.772719 
L 90.065455 159.772719 
L 93.672727 159.772719 
L 97.28 159.772719 
L 100.887273 159.772719 
L 104.494545 159.772719 
L 108.101818 159.772719 
L 111.709091 159.772719 
L 115.316364 159.772719 
L 115.336002 159.744 
L 115.336002 157.056 
L 118.923636 155.376478 
L 122.530909 155.376478 
L 124.373401 154.368 
L 126.138182 153.643745 
L 129.745455 153.643745 
L 133.352727 153.643745 
L 136.96 153.643745 
L 140.567273 153.643745 
L 144.174545 153.643745 
L 147.781818 153.643745 
L 151.389091 153.643745 
L 154.996364 153.643745 
L 158.603636 153.643745 
L 162.210909 153.643745 
L 165.818182 153.643745 
L 169.425455 153.643745 
L 173.032727 153.643745 
L 176.64 153.643745 
L 180.247273 153.643745 
L 183.854545 153.643745 
L 187.461818 153.643745 
L 191.069091 153.643745 
L 194.676364 153.643745 
L 198.283636 153.643745 
L 201.890909 153.643745 
L 205.498182 153.643745 
L 209.105455 153.120431 
L 212.712727 153.120431 
L 216.32 153.120431 
L 219.927273 153.120431 
L 223.534545 153.120431 
L 227.141818 153.120431 
L 230.749091 153.120431 
L 234.356364 153.120431 
L 237.963636 153.120431 
L 241.570909 153.120431 
L 245.178182 153.120431 
L 248.785455 153.120431 
L 252.392727 153.120431 
L 256 153.120431 
L 259.607273 153.120431 
L 263.214545 151.714266 
L 263.408706 151.68 
L 263.408706 148.992 
L 263.408706 146.304 
L 266.821818 144.724459 
L 270.429091 144.724459 
L 273.226175 143.616 
L 274.036364 143.090548 
L 277.643636 143.090548 
L 281.250909 143.090548 
L 284.858182 143.090548 
L 288.465455 143.090548 
L 292.072727 143.090548 
L 295.68 143.090548 
L 299.287273 143.090548 
L 302.894545 143.090548 
L 306.501818 143.090548 
L 310.109091 143.090548 
L 313.716364 143.090548 
L 317.323636 143.090548 
L 320.930909 143.090548 
L 324.538182 143.090548 
L 328.145455 143.090548 
L 331.752727 143.090548 
L 335.36 143.090548 
L 338.967273 143.090548 
L 342.574545 143.090548 
L 346.181818 143.090548 
L 349.789091 143.090548 
L 353.396364 143.090548 
L 357.003636 143.090548 
L 357.085 143.090548 
" clip-path="url(#p780e4e0b79)" style="fill: none; stroke: #000000; stroke-width: 0.5"/>
    <path d="M 392.995 143.090548 
L 393.076364 143.090548 
L 396.683636 143.090548 
L 400.290909 143.090548 
L 403.898182 143.090548 
L 407.505455 143.090548 
L 411.112727 143.090548 
L 414.72 143.090548 
" clip-path="url(#p780e4e0b79)" style="fill: none; stroke: #000000; stroke-width: 0.5"/>
    <path d="M 414.72 63.684498 
L 411.112727 63.684498 
L 407.505455 63.684498 
L 403.898182 63.684498 
L 400.290909 63.684498 
L 396.683636 63.684498 
L 393.076364 63.684498 
L 389.469091 63.684498 
L 385.861818 63.684498 
L 382.254545 63.684498 
L 378.647273 63.684498 
L 375.04 63.684498 
L 371.432727 63.684498 
L 367.825455 63.684498 
L 364.218182 63.684498 
L 364.136818 63.684498 
" clip-path="url(#p780e4e0b79)" style="fill: none; stroke: #000000; stroke-width: 0.5"/>
    <path d="M 328.226818 63.684498 
L 328.145455 63.684498 
L 324.538182 63.684498 
L 320.930909 63.684498 
L 317.323636 63.684498 
L 313.716364 63.684498 
L 310.109091 63.684498 
L 306.501818 63.684498 
L 302.894545 63.684498 
L 299.287273 63.684498 
L 295.68 63.684498 
L 292.072727 63.684498 
L 288.465455 63.684498 
L 284.858182 63.684498 
L 281.250909 63.684498 
L 277.643636 63.684498 
L 274.036364 63.684498 
L 271.436836 62.976 
L 271.436836 60.288 
L 271.436836 57.6 
L 271.436836 54.912 
L 271.436836 52.224 
L 271.436836 49.536 
L 271.436836 46.848 
L 271.436836 44.16 
L 271.436836 41.472 
" clip-path="url(#p780e4e0b79)" style="fill: none; stroke: #000000; stroke-width: 0.5"/>
   </g>
   <g id="PathCollection_14">
    <path d="M 57.6 145.178336 
L 61.207273 145.178336 
L 64.814545 145.178336 
L 68.421818 145.178336 
L 72.029091 145.178336 
L 75.636364 145.178336 
L 79.243636 145.178336 
L 82.850909 145.178336 
L 84.393354 146.304 
L 84.393354 148.992 
L 84.393354 151.68 
L 86.458182 152.254654 
L 90.065455 152.254654 
L 93.672727 152.254654 
L 97.28 152.254654 
L 100.887273 152.254654 
L 104.494545 152.254654 
L 108.101818 152.254654 
L 111.709091 152.254654 
L 115.316364 152.254654 
L 116.953518 151.68 
L 116.953518 148.992 
L 116.953518 146.304 
L 118.923636 144.490632 
L 122.530909 144.490632 
L 123.343643 143.616 
L 124.869873 140.928 
L 124.869873 138.24 
L 124.869873 135.552 
L 124.869873 132.864 
L 126.138182 130.507392 
L 129.745455 130.507392 
L 133.352727 130.507392 
L 136.96 130.507392 
L 140.567273 130.507392 
L 144.174545 130.507392 
L 147.781818 130.507392 
L 151.389091 130.507392 
L 154.996364 130.507392 
L 158.603636 130.507392 
L 162.210909 130.507392 
L 165.818182 130.507392 
L 169.425455 130.507392 
L 173.032727 130.507392 
L 176.64 130.507392 
L 180.247273 130.507392 
L 183.854545 130.507392 
L 187.461818 130.507392 
L 191.069091 130.507392 
L 194.676364 130.507392 
L 198.283636 130.507392 
L 201.586823 130.507392 
" clip-path="url(#p780e4e0b79)" style="fill: none; stroke: #000000; stroke-width: 0.5"/>
    <path d="M 206.002723 98.781 
L 206.002723 97.92 
L 206.002723 95.232 
L 206.002723 92.544 
L 206.002723 89.856 
L 206.002723 87.168 
L 206.002723 84.48 
L 206.002723 81.792 
L 206.002723 79.104 
L 206.002723 76.416 
L 206.002723 73.728 
L 206.002723 71.04 
L 206.002723 68.352 
L 206.002723 65.664 
L 205.498182 65.531996 
L 201.890909 65.531996 
L 198.283636 65.531996 
L 194.676364 65.531996 
L 191.069091 65.531996 
L 187.461818 65.531996 
L 183.854545 65.531996 
L 180.247273 65.531996 
L 176.64 65.531996 
L 173.032727 65.531996 
L 169.425455 65.531996 
L 165.818182 65.531996 
L 162.210909 65.531996 
L 158.603636 65.531996 
L 154.996364 65.531996 
L 151.389091 65.531996 
L 147.781818 65.531996 
L 144.174545 65.531996 
L 140.567273 65.531996 
L 136.96 65.531996 
L 133.352727 65.531996 
L 129.745455 65.531996 
L 126.138182 65.531996 
L 122.684727 62.976 
L 122.684727 60.288 
L 122.684727 57.6 
L 122.684727 54.912 
L 122.684727 52.224 
L 122.684727 49.536 
L 122.684727 46.848 
L 122.684727 44.16 
L 122.684727 41.472 
" clip-path="url(#p780e4e0b79)" style="fill: none; stroke: #000000; stroke-width: 0.5"/>
   </g>
   <g id="PathCollection_15"/>
   <g id="LineCollection_1">
    <path d="M 68.153699 307.584 
L 68.153699 294.2784 
" clip-path="url(#p780e4e0b79)" style="fill: none; stroke: #000000; stroke-width: 1.5"/>
    <path d="M 84.835458 307.584 
L 84.835458 294.2784 
" clip-path="url(#p780e4e0b79)" style="fill: none; stroke: #000000; stroke-width: 1.5"/>
    <path d="M 104.170605 307.584 
L 104.170605 294.2784 
" clip-path="url(#p780e4e0b79)" style="fill: none; stroke: #000000; stroke-width: 1.5"/>
    <path d="M 123.093447 307.584 
L 123.093447 294.2784 
" clip-path="url(#p780e4e0b79)" style="fill: none; stroke: #000000; stroke-width: 1.5"/>
    <path d="M 154.229185 307.584 
L 154.229185 294.2784 
" clip-path="url(#p780e4e0b79)" style="fill: none; stroke: #000000; stroke-width: 1.5"/>
    <path d="M 185.315047 307.584 
L 185.315047 294.2784 
" clip-path="url(#p780e4e0b79)" style="fill: none; stroke: #000000; stroke-width: 1.5"/>
    <path d="M 218.366012 307.584 
L 218.366012 294.2784 
" clip-path="url(#p780e4e0b79)" style="fill: none; stroke: #000000; stroke-width: 1.5"/>
    <path d="M 294.130528 307.584 
L 294.130528 294.2784 
" clip-path="url(#p780e4e0b79)" style="fill: none; stroke: #000000; stroke-width: 1.5"/>
    <path d="M 342.443458 307.584 
L 342.443458 294.2784 
" clip-path="url(#p780e4e0b79)" style="fill: none; stroke: #000000; stroke-width: 1.5"/>
   </g>
   <g id="LineCollection_2">
    <path clip-path="url(#p780e4e0b79)" style="fill: none; stroke: #000000; stroke-width: 1.5"/>
    <path clip-path="url(#p780e4e0b79)" style="fill: none; stroke: #000000; stroke-width: 1.5"/>
    <path clip-path="url(#p780e4e0b79)" style="fill: none; stroke: #000000; stroke-width: 1.5"/>
    <path clip-path="url(#p780e4e0b79)" style="fill: none; stroke: #000000; stroke-width: 1.5"/>
    <path clip-path="url(#p780e4e0b79)" style="fill: none; stroke: #000000; stroke-width: 1.5"/>
    <path clip-path="url(#p780e4e0b79)" style="fill: none; stroke: #000000; stroke-width: 1.5"/>
    <path clip-path="url(#p780e4e0b79)" style="fill: none; stroke: #000000; stroke-width: 1.5"/>
    <path clip-path="url(#p780e4e0b79)" style="fill: none; stroke: #000000; stroke-width: 1.5"/>
    <path clip-path="url(#p780e4e0b79)" style="fill: none; stroke: #000000; stroke-width: 1.5"/>
   </g>
   <g id="patch_3">
    <path d="M 57.6 307.584 
L 57.6 41.472 
" style="fill: none; stroke: #000000; stroke-width: 0.8; stroke-linejoin: miter; stroke-linecap: square"/>
   </g>
   <g id="patch_4">
    <path d="M 414.72 307.584 
L 414.72 41.472 
" style="fill: none; stroke: #000000; stroke-width: 0.8; stroke-linejoin: miter; stroke-linecap: square"/>
   </g>
   <g id="patch_5">
    <path d="M 57.6 307.584 
L 414.72 307.584 
" style="fill: none; stroke: #000000; stroke-width: 0.8; stroke-linejoin: miter; stroke-linecap: square"/>
   </g>
   <g id="patch_6">
    <path d="M 57.6 41.472 
L 414.72 41.472 
" style="fill: none; stroke: #000000; stroke-width: 0.8; stroke-linejoin: miter; stroke-linecap: square"/>
   </g>
   <g id="text_17">
    <!-- 2D-partial dependency plot between PM and Smoking -->
    <g transform="translate(74.236875 35.472) scale(0.12 -0.12)">
     <defs>
      <path id="DejaVuSans-44" d="M 1259 4147 
L 1259 519 
L 2022 519 
Q 2988 519 3436 956 
Q 3884 1394 3884 2338 
Q 3884 3275 3436 3711 
Q 2988 4147 2022 4147 
L 1259 4147 
z
M 628 4666 
L 1925 4666 
Q 3281 4666 3915 4102 
Q 4550 3538 4550 2338 
Q 4550 1131 3912 565 
Q 3275 0 1925 0 
L 628 0 
L 628 4666 
z
" transform="scale(0.015625)"/>
      <path id="DejaVuSans-2d" d="M 313 2009 
L 1997 2009 
L 1997 1497 
L 313 1497 
L 313 2009 
z
" transform="scale(0.015625)"/>
      <path id="DejaVuSans-70" d="M 1159 525 
L 1159 -1331 
L 581 -1331 
L 581 3500 
L 1159 3500 
L 1159 2969 
Q 1341 3281 1617 3432 
Q 1894 3584 2278 3584 
Q 2916 3584 3314 3078 
Q 3713 2572 3713 1747 
Q 3713 922 3314 415 
Q 2916 -91 2278 -91 
Q 1894 -91 1617 61 
Q 1341 213 1159 525 
z
M 3116 1747 
Q 3116 2381 2855 2742 
Q 2594 3103 2138 3103 
Q 1681 3103 1420 2742 
Q 1159 2381 1159 1747 
Q 1159 1113 1420 752 
Q 1681 391 2138 391 
Q 2594 391 2855 752 
Q 3116 1113 3116 1747 
z
" transform="scale(0.015625)"/>
      <path id="DejaVuSans-74" d="M 1172 4494 
L 1172 3500 
L 2356 3500 
L 2356 3053 
L 1172 3053 
L 1172 1153 
Q 1172 725 1289 603 
Q 1406 481 1766 481 
L 2356 481 
L 2356 0 
L 1766 0 
Q 1100 0 847 248 
Q 594 497 594 1153 
L 594 3053 
L 172 3053 
L 172 3500 
L 594 3500 
L 594 4494 
L 1172 4494 
z
" transform="scale(0.015625)"/>
      <path id="DejaVuSans-64" d="M 2906 2969 
L 2906 4863 
L 3481 4863 
L 3481 0 
L 2906 0 
L 2906 525 
Q 2725 213 2448 61 
Q 2172 -91 1784 -91 
Q 1150 -91 751 415 
Q 353 922 353 1747 
Q 353 2572 751 3078 
Q 1150 3584 1784 3584 
Q 2172 3584 2448 3432 
Q 2725 3281 2906 2969 
z
M 947 1747 
Q 947 1113 1208 752 
Q 1469 391 1925 391 
Q 2381 391 2643 752 
Q 2906 1113 2906 1747 
Q 2906 2381 2643 2742 
Q 2381 3103 1925 3103 
Q 1469 3103 1208 2742 
Q 947 2381 947 1747 
z
" transform="scale(0.015625)"/>
      <path id="DejaVuSans-79" d="M 2059 -325 
Q 1816 -950 1584 -1140 
Q 1353 -1331 966 -1331 
L 506 -1331 
L 506 -850 
L 844 -850 
Q 1081 -850 1212 -737 
Q 1344 -625 1503 -206 
L 1606 56 
L 191 3500 
L 800 3500 
L 1894 763 
L 2988 3500 
L 3597 3500 
L 2059 -325 
z
" transform="scale(0.015625)"/>
      <path id="DejaVuSans-62" d="M 3116 1747 
Q 3116 2381 2855 2742 
Q 2594 3103 2138 3103 
Q 1681 3103 1420 2742 
Q 1159 2381 1159 1747 
Q 1159 1113 1420 752 
Q 1681 391 2138 391 
Q 2594 391 2855 752 
Q 3116 1113 3116 1747 
z
M 1159 2969 
Q 1341 3281 1617 3432 
Q 1894 3584 2278 3584 
Q 2916 3584 3314 3078 
Q 3713 2572 3713 1747 
Q 3713 922 3314 415 
Q 2916 -91 2278 -91 
Q 1894 -91 1617 61 
Q 1341 213 1159 525 
L 1159 0 
L 581 0 
L 581 4863 
L 1159 4863 
L 1159 2969 
z
" transform="scale(0.015625)"/>
      <path id="DejaVuSans-77" d="M 269 3500 
L 844 3500 
L 1563 769 
L 2278 3500 
L 2956 3500 
L 3675 769 
L 4391 3500 
L 4966 3500 
L 4050 0 
L 3372 0 
L 2619 2869 
L 1863 0 
L 1184 0 
L 269 3500 
z
" transform="scale(0.015625)"/>
     </defs>
     <use xlink:href="#DejaVuSans-32"/>
     <use xlink:href="#DejaVuSans-44" x="63.623047"/>
     <use xlink:href="#DejaVuSans-2d" x="140.625"/>
     <use xlink:href="#DejaVuSans-70" x="176.708984"/>
     <use xlink:href="#DejaVuSans-61" x="240.185547"/>
     <use xlink:href="#DejaVuSans-72" x="301.464844"/>
     <use xlink:href="#DejaVuSans-74" x="342.578125"/>
     <use xlink:href="#DejaVuSans-69" x="381.787109"/>
     <use xlink:href="#DejaVuSans-61" x="409.570312"/>
     <use xlink:href="#DejaVuSans-6c" x="470.849609"/>
     <use xlink:href="#DejaVuSans-20" x="498.632812"/>
     <use xlink:href="#DejaVuSans-64" x="530.419922"/>
     <use xlink:href="#DejaVuSans-65" x="593.896484"/>
     <use xlink:href="#DejaVuSans-70" x="655.419922"/>
     <use xlink:href="#DejaVuSans-65" x="718.896484"/>
     <use xlink:href="#DejaVuSans-6e" x="780.419922"/>
     <use xlink:href="#DejaVuSans-64" x="843.798828"/>
     <use xlink:href="#DejaVuSans-65" x="907.275391"/>
     <use xlink:href="#DejaVuSans-6e" x="968.798828"/>
     <use xlink:href="#DejaVuSans-63" x="1032.177734"/>
     <use xlink:href="#DejaVuSans-79" x="1087.158203"/>
     <use xlink:href="#DejaVuSans-20" x="1146.337891"/>
     <use xlink:href="#DejaVuSans-70" x="1178.125"/>
     <use xlink:href="#DejaVuSans-6c" x="1241.601562"/>
     <use xlink:href="#DejaVuSans-6f" x="1269.384766"/>
     <use xlink:href="#DejaVuSans-74" x="1330.566406"/>
     <use xlink:href="#DejaVuSans-20" x="1369.775391"/>
     <use xlink:href="#DejaVuSans-62" x="1401.5625"/>
     <use xlink:href="#DejaVuSans-65" x="1465.039062"/>
     <use xlink:href="#DejaVuSans-74" x="1526.5625"/>
     <use xlink:href="#DejaVuSans-77" x="1565.771484"/>
     <use xlink:href="#DejaVuSans-65" x="1647.558594"/>
     <use xlink:href="#DejaVuSans-65" x="1709.082031"/>
     <use xlink:href="#DejaVuSans-6e" x="1770.605469"/>
     <use xlink:href="#DejaVuSans-20" x="1833.984375"/>
     <use xlink:href="#DejaVuSans-50" x="1865.771484"/>
     <use xlink:href="#DejaVuSans-4d" x="1926.074219"/>
     <use xlink:href="#DejaVuSans-20" x="2012.353516"/>
     <use xlink:href="#DejaVuSans-61" x="2044.140625"/>
     <use xlink:href="#DejaVuSans-6e" x="2105.419922"/>
     <use xlink:href="#DejaVuSans-64" x="2168.798828"/>
     <use xlink:href="#DejaVuSans-20" x="2232.275391"/>
     <use xlink:href="#DejaVuSans-53" x="2264.0625"/>
     <use xlink:href="#DejaVuSans-6d" x="2327.539062"/>
     <use xlink:href="#DejaVuSans-6f" x="2424.951172"/>
     <use xlink:href="#DejaVuSans-6b" x="2486.132812"/>
     <use xlink:href="#DejaVuSans-69" x="2544.042969"/>
     <use xlink:href="#DejaVuSans-6e" x="2571.826172"/>
     <use xlink:href="#DejaVuSans-67" x="2635.205078"/>
    </g>
   </g>
   <g id="text_18">
    <g clip-path="url(#p780e4e0b79)">
     <!-- 12.85 -->
     <g transform="translate(262.033923 211.751819) rotate(-42.387747) scale(0.1 -0.1)">
      <defs>
       <path id="DejaVuSans-38" d="M 2034 2216 
Q 1584 2216 1326 1975 
Q 1069 1734 1069 1313 
Q 1069 891 1326 650 
Q 1584 409 2034 409 
Q 2484 409 2743 651 
Q 3003 894 3003 1313 
Q 3003 1734 2745 1975 
Q 2488 2216 2034 2216 
z
M 1403 2484 
Q 997 2584 770 2862 
Q 544 3141 544 3541 
Q 544 4100 942 4425 
Q 1341 4750 2034 4750 
Q 2731 4750 3128 4425 
Q 3525 4100 3525 3541 
Q 3525 3141 3298 2862 
Q 3072 2584 2669 2484 
Q 3125 2378 3379 2068 
Q 3634 1759 3634 1313 
Q 3634 634 3220 271 
Q 2806 -91 2034 -91 
Q 1263 -91 848 271 
Q 434 634 434 1313 
Q 434 1759 690 2068 
Q 947 2378 1403 2484 
z
M 1172 3481 
Q 1172 3119 1398 2916 
Q 1625 2713 2034 2713 
Q 2441 2713 2670 2916 
Q 2900 3119 2900 3481 
Q 2900 3844 2670 4047 
Q 2441 4250 2034 4250 
Q 1625 4250 1398 4047 
Q 1172 3844 1172 3481 
z
" transform="scale(0.015625)"/>
      </defs>
      <use xlink:href="#DejaVuSans-31"/>
      <use xlink:href="#DejaVuSans-32" x="63.623047"/>
      <use xlink:href="#DejaVuSans-2e" x="127.246094"/>
      <use xlink:href="#DejaVuSans-38" x="159.033203"/>
      <use xlink:href="#DejaVuSans-35" x="222.65625"/>
     </g>
    </g>
   </g>
   <g id="text_19">
    <g clip-path="url(#p780e4e0b79)">
     <!-- 12.95 -->
     <g transform="translate(111.377672 217.982944) rotate(-48.453135) scale(0.1 -0.1)">
      <defs>
       <path id="DejaVuSans-39" d="M 703 97 
L 703 672 
Q 941 559 1184 500 
Q 1428 441 1663 441 
Q 2288 441 2617 861 
Q 2947 1281 2994 2138 
Q 2813 1869 2534 1725 
Q 2256 1581 1919 1581 
Q 1219 1581 811 2004 
Q 403 2428 403 3163 
Q 403 3881 828 4315 
Q 1253 4750 1959 4750 
Q 2769 4750 3195 4129 
Q 3622 3509 3622 2328 
Q 3622 1225 3098 567 
Q 2575 -91 1691 -91 
Q 1453 -91 1209 -44 
Q 966 3 703 97 
z
M 1959 2075 
Q 2384 2075 2632 2365 
Q 2881 2656 2881 3163 
Q 2881 3666 2632 3958 
Q 2384 4250 1959 4250 
Q 1534 4250 1286 3958 
Q 1038 3666 1038 3163 
Q 1038 2656 1286 2365 
Q 1534 2075 1959 2075 
z
" transform="scale(0.015625)"/>
      </defs>
      <use xlink:href="#DejaVuSans-31"/>
      <use xlink:href="#DejaVuSans-32" x="63.623047"/>
      <use xlink:href="#DejaVuSans-2e" x="127.246094"/>
      <use xlink:href="#DejaVuSans-39" x="159.033203"/>
      <use xlink:href="#DejaVuSans-35" x="222.65625"/>
     </g>
    </g>
   </g>
   <g id="text_20">
    <g clip-path="url(#p780e4e0b79)">
     <!-- 13.05 -->
     <g transform="translate(223.649574 180.207847) scale(0.1 -0.1)">
      <use xlink:href="#DejaVuSans-31"/>
      <use xlink:href="#DejaVuSans-33" x="63.623047"/>
      <use xlink:href="#DejaVuSans-2e" x="127.246094"/>
      <use xlink:href="#DejaVuSans-30" x="159.033203"/>
      <use xlink:href="#DejaVuSans-35" x="222.65625"/>
     </g>
    </g>
   </g>
   <g id="text_21">
    <g clip-path="url(#p780e4e0b79)">
     <!-- 13.15 -->
     <g transform="translate(105.183142 174.891148) rotate(-8.600026) scale(0.1 -0.1)">
      <use xlink:href="#DejaVuSans-31"/>
      <use xlink:href="#DejaVuSans-33" x="63.623047"/>
      <use xlink:href="#DejaVuSans-2e" x="127.246094"/>
      <use xlink:href="#DejaVuSans-31" x="159.033203"/>
      <use xlink:href="#DejaVuSans-35" x="222.65625"/>
     </g>
    </g>
   </g>
   <g id="text_22">
    <g clip-path="url(#p780e4e0b79)">
     <!-- 13.26 -->
     <g transform="translate(360.725938 145.849923) scale(0.1 -0.1)">
      <defs>
       <path id="DejaVuSans-36" d="M 2113 2584 
Q 1688 2584 1439 2293 
Q 1191 2003 1191 1497 
Q 1191 994 1439 701 
Q 1688 409 2113 409 
Q 2538 409 2786 701 
Q 3034 994 3034 1497 
Q 3034 2003 2786 2293 
Q 2538 2584 2113 2584 
z
M 3366 4563 
L 3366 3988 
Q 3128 4100 2886 4159 
Q 2644 4219 2406 4219 
Q 1781 4219 1451 3797 
Q 1122 3375 1075 2522 
Q 1259 2794 1537 2939 
Q 1816 3084 2150 3084 
Q 2853 3084 3261 2657 
Q 3669 2231 3669 1497 
Q 3669 778 3244 343 
Q 2819 -91 2113 -91 
Q 1303 -91 875 529 
Q 447 1150 447 2328 
Q 447 3434 972 4092 
Q 1497 4750 2381 4750 
Q 2619 4750 2861 4703 
Q 3103 4656 3366 4563 
z
" transform="scale(0.015625)"/>
      </defs>
      <use xlink:href="#DejaVuSans-31"/>
      <use xlink:href="#DejaVuSans-33" x="63.623047"/>
      <use xlink:href="#DejaVuSans-2e" x="127.246094"/>
      <use xlink:href="#DejaVuSans-32" x="159.033203"/>
      <use xlink:href="#DejaVuSans-36" x="222.65625"/>
     </g>
    </g>
   </g>
   <g id="text_23">
    <g clip-path="url(#p780e4e0b79)">
     <!-- 13.26 -->
     <g transform="translate(331.867756 66.443873) scale(0.1 -0.1)">
      <use xlink:href="#DejaVuSans-31"/>
      <use xlink:href="#DejaVuSans-33" x="63.623047"/>
      <use xlink:href="#DejaVuSans-2e" x="127.246094"/>
      <use xlink:href="#DejaVuSans-32" x="159.033203"/>
      <use xlink:href="#DejaVuSans-36" x="222.65625"/>
     </g>
    </g>
   </g>
   <g id="text_24">
    <g clip-path="url(#p780e4e0b79)">
     <!-- 13.36 -->
     <g transform="translate(208.345885 131.124055) rotate(-88.33841) scale(0.1 -0.1)">
      <use xlink:href="#DejaVuSans-31"/>
      <use xlink:href="#DejaVuSans-33" x="63.623047"/>
      <use xlink:href="#DejaVuSans-2e" x="127.246094"/>
      <use xlink:href="#DejaVuSans-33" x="159.033203"/>
      <use xlink:href="#DejaVuSans-36" x="222.65625"/>
     </g>
    </g>
   </g>
  </g>
 </g>
 <defs>
  <clipPath id="p780e4e0b79">
   <rect x="57.6" y="41.472" width="357.12" height="266.112"/>
  </clipPath>
 </defs>
</svg>
