<?xml version="1.0" encoding="utf-8" standalone="no"?>
<!DOCTYPE svg PUBLIC "-//W3C//DTD SVG 1.1//EN"
  "http://www.w3.org/Graphics/SVG/1.1/DTD/svg11.dtd">
<svg xmlns:xlink="http://www.w3.org/1999/xlink" width="460.8pt" height="345.6pt" viewBox="0 0 460.8 345.6" xmlns="http://www.w3.org/2000/svg" version="1.1">
 <metadata>
  <rdf:RDF xmlns:dc="http://purl.org/dc/elements/1.1/" xmlns:cc="http://creativecommons.org/ns#" xmlns:rdf="http://www.w3.org/1999/02/22-rdf-syntax-ns#">
   <cc:Work>
    <dc:type rdf:resource="http://purl.org/dc/dcmitype/StillImage"/>
    <dc:date>2024-04-21T23:28:30.073399</dc:date>
    <dc:format>image/svg+xml</dc:format>
    <dc:creator>
     <cc:Agent>
      <dc:title>Matplotlib v3.7.0, https://matplotlib.org/</dc:title>
     </cc:Agent>
    </dc:creator>
   </cc:Work>
  </rdf:RDF>
 </metadata>
 <defs>
  <style type="text/css">*{stroke-linejoin: round; stroke-linecap: butt}</style>
 </defs>
 <g id="figure_1">
  <g id="patch_1">
   <path d="M 0 345.6 
L 460.8 345.6 
L 460.8 0 
L 0 0 
L 0 345.6 
z
" style="fill: none"/>
  </g>
  <g id="axes_1"/>
  <g id="axes_2">
   <g id="patch_2">
    <path d="M 57.6 307.584 
L 414.72 307.584 
L 414.72 41.472 
L 57.6 41.472 
L 57.6 307.584 
z
" style="fill: none"/>
   </g>
   <g id="PathCollection_1">
    <path d="M 129.024 307.584 
L 200.448 307.584 
L 271.872 307.584 
L 343.296 307.584 
L 414.72 307.584 
L 414.72 304.896 
L 414.72 302.208 
L 414.72 299.52 
L 414.72 296.832 
L 414.72 294.144 
L 414.72 291.456 
L 414.72 288.768 
L 414.72 286.08 
L 414.72 283.392 
L 414.72 280.704 
L 414.72 278.016 
L 414.72 275.328 
L 414.72 272.64 
L 414.72 269.952 
L 414.72 267.264 
L 414.72 264.576 
L 414.72 261.888 
L 414.72 259.2 
L 414.72 256.512 
L 414.72 253.824 
L 414.72 251.136 
L 414.72 248.448 
L 414.72 245.76 
L 414.72 243.072 
L 414.72 240.384 
L 414.72 237.696 
L 414.72 235.008 
L 414.72 232.32 
L 414.72 229.632 
L 414.72 226.944 
L 414.72 224.256 
L 414.72 221.568 
L 414.72 218.88 
L 414.72 216.192 
L 414.72 213.504 
L 414.72 210.816 
L 414.72 208.128 
L 414.72 205.44 
L 414.72 202.752 
L 414.72 200.064 
L 414.72 197.376 
L 414.72 194.688 
L 414.72 192 
L 414.72 189.312 
L 414.72 186.624 
L 414.72 183.936 
L 414.72 181.248 
L 414.72 178.56 
L 414.72 175.872 
L 414.72 173.184 
L 414.72 170.496 
L 414.72 167.808 
L 414.72 165.12 
L 414.72 162.432 
L 414.72 159.744 
L 414.72 157.056 
L 414.72 154.368 
L 414.72 151.68 
L 414.72 148.992 
L 414.72 146.304 
L 414.72 143.616 
L 414.72 140.928 
L 414.72 138.24 
L 414.72 135.552 
L 414.72 132.864 
L 414.72 130.176 
L 414.72 127.488 
L 414.72 124.8 
L 414.72 122.112 
L 414.72 119.424 
L 414.72 116.736 
L 414.72 114.048 
L 414.72 111.36 
L 414.72 108.672 
L 414.72 105.984 
L 414.72 103.296 
L 414.72 100.608 
L 414.72 97.92 
L 414.72 95.232 
L 414.72 92.544 
L 414.72 89.856 
L 414.72 87.168 
L 414.72 84.48 
L 414.72 81.792 
L 414.72 79.104 
L 414.72 76.416 
L 414.72 73.728 
L 414.72 71.04 
L 414.72 68.352 
L 414.72 65.664 
L 414.72 62.976 
L 414.72 60.288 
L 414.72 57.6 
L 414.72 54.912 
L 414.72 52.224 
L 414.72 49.536 
L 414.72 46.848 
L 414.72 44.16 
L 414.72 41.472 
L 343.296 41.472 
L 271.872 41.472 
L 200.448 41.472 
L 129.024 41.472 
L 121.371429 41.472 
L 121.371429 44.16 
L 121.371429 46.848 
L 121.371429 49.536 
L 121.371429 52.224 
L 121.371429 54.912 
L 121.371429 57.6 
L 121.371429 60.288 
L 121.371429 62.976 
L 121.371429 65.664 
L 121.371429 68.352 
L 121.371429 71.04 
L 121.371429 73.728 
L 121.371429 76.416 
L 121.371429 79.104 
L 121.371429 81.792 
L 121.371429 84.48 
L 121.371429 87.168 
L 121.371429 89.856 
L 121.371429 92.544 
L 121.371429 95.232 
L 121.371429 97.92 
L 121.371429 100.608 
L 121.371429 103.296 
L 121.371429 105.984 
L 121.371429 108.672 
L 121.371429 111.36 
L 121.371429 114.048 
L 121.371429 116.736 
L 121.371429 119.424 
L 121.371429 122.112 
L 121.371429 124.8 
L 121.371429 127.488 
L 121.371429 130.176 
L 121.371429 132.864 
L 121.371429 135.552 
L 121.371429 138.24 
L 121.371429 140.928 
L 121.371429 143.616 
L 121.371429 146.304 
L 121.371429 148.992 
L 121.371429 151.68 
L 121.371429 154.368 
L 121.371429 157.056 
L 121.371429 159.744 
L 121.371429 162.432 
L 121.371429 165.12 
L 121.371429 167.808 
L 121.371429 170.496 
L 121.371429 173.184 
L 121.371429 175.872 
L 121.371429 178.56 
L 121.371429 181.248 
L 121.371429 183.936 
L 121.371429 186.624 
L 121.371429 189.312 
L 121.371429 192 
L 121.371429 194.688 
L 121.371429 197.376 
L 121.371429 200.064 
L 121.371429 202.752 
L 121.371429 205.44 
L 121.371429 208.128 
L 121.371429 210.816 
L 121.371429 213.504 
L 121.371429 216.192 
L 121.371429 218.88 
L 121.371429 221.568 
L 121.371429 224.256 
L 121.371429 226.944 
L 121.371429 229.632 
L 121.371429 232.32 
L 121.371429 235.008 
L 121.371429 237.696 
L 121.371429 240.384 
L 121.371429 243.072 
L 121.371429 245.76 
L 121.371429 248.448 
L 121.371429 251.136 
L 121.371429 253.824 
L 121.371429 256.512 
L 121.371429 259.2 
L 121.371429 261.888 
L 121.371429 264.576 
L 121.371429 267.264 
L 121.371429 269.952 
L 121.371429 272.64 
L 121.371429 275.328 
L 121.371429 278.016 
L 121.371429 280.704 
L 121.371429 283.392 
L 121.371429 286.08 
L 121.371429 288.768 
L 121.371429 291.456 
L 121.371429 294.144 
L 121.371429 296.832 
L 121.371429 299.52 
L 121.371429 302.208 
L 121.371429 304.896 
L 121.371429 307.584 
z
" clip-path="url(#p310e544b63)" style="fill: #481b6d; fill-opacity: 0.75"/>
   </g>
   <g id="PathCollection_2">
    <path d="M 121.371429 304.896 
L 121.371429 302.208 
L 121.371429 299.52 
L 121.371429 296.832 
L 121.371429 294.144 
L 121.371429 291.456 
L 121.371429 288.768 
L 121.371429 286.08 
L 121.371429 283.392 
L 121.371429 280.704 
L 121.371429 278.016 
L 121.371429 275.328 
L 121.371429 272.64 
L 121.371429 269.952 
L 121.371429 267.264 
L 121.371429 264.576 
L 121.371429 261.888 
L 121.371429 259.2 
L 121.371429 256.512 
L 121.371429 253.824 
L 121.371429 251.136 
L 121.371429 248.448 
L 121.371429 245.76 
L 121.371429 243.072 
L 121.371429 240.384 
L 121.371429 237.696 
L 121.371429 235.008 
L 121.371429 232.32 
L 121.371429 229.632 
L 121.371429 226.944 
L 121.371429 224.256 
L 121.371429 221.568 
L 121.371429 218.88 
L 121.371429 216.192 
L 121.371429 213.504 
L 121.371429 210.816 
L 121.371429 208.128 
L 121.371429 205.44 
L 121.371429 202.752 
L 121.371429 200.064 
L 121.371429 197.376 
L 121.371429 194.688 
L 121.371429 192 
L 121.371429 189.312 
L 121.371429 186.624 
L 121.371429 183.936 
L 121.371429 181.248 
L 121.371429 178.56 
L 121.371429 175.872 
L 121.371429 173.184 
L 121.371429 170.496 
L 121.371429 167.808 
L 121.371429 165.12 
L 121.371429 162.432 
L 121.371429 159.744 
L 121.371429 157.056 
L 121.371429 154.368 
L 121.371429 151.68 
L 121.371429 148.992 
L 121.371429 146.304 
L 121.371429 143.616 
L 121.371429 140.928 
L 121.371429 138.24 
L 121.371429 135.552 
L 121.371429 132.864 
L 121.371429 130.176 
L 121.371429 127.488 
L 121.371429 124.8 
L 121.371429 122.112 
L 121.371429 119.424 
L 121.371429 116.736 
L 121.371429 114.048 
L 121.371429 111.36 
L 121.371429 108.672 
L 121.371429 105.984 
L 121.371429 103.296 
L 121.371429 100.608 
L 121.371429 97.92 
L 121.371429 95.232 
L 121.371429 92.544 
L 121.371429 89.856 
L 121.371429 87.168 
L 121.371429 84.48 
L 121.371429 81.792 
L 121.371429 79.104 
L 121.371429 76.416 
L 121.371429 73.728 
L 121.371429 71.04 
L 121.371429 68.352 
L 121.371429 65.664 
L 121.371429 62.976 
L 121.371429 60.288 
L 121.371429 57.6 
L 121.371429 54.912 
L 121.371429 52.224 
L 121.371429 49.536 
L 121.371429 46.848 
L 121.371429 44.16 
L 121.371429 41.472 
L 110.147657 41.472 
L 110.147657 44.16 
L 110.147657 46.848 
L 110.147657 49.536 
L 110.147657 52.224 
L 110.147657 54.912 
L 110.147657 57.6 
L 110.147657 60.288 
L 110.147657 62.976 
L 110.147657 65.664 
L 110.147657 68.352 
L 110.147657 71.04 
L 110.147657 73.728 
L 110.147657 76.416 
L 110.147657 79.104 
L 110.147657 81.792 
L 110.147657 84.48 
L 110.147657 87.168 
L 110.147657 89.856 
L 110.147657 92.544 
L 110.147657 95.232 
L 110.147657 97.92 
L 110.147657 100.608 
L 110.147657 103.296 
L 110.147657 105.984 
L 110.147657 108.672 
L 110.147657 111.36 
L 110.147657 114.048 
L 110.147657 116.736 
L 110.147657 119.424 
L 110.147657 122.112 
L 110.147657 124.8 
L 110.147657 127.488 
L 110.147657 130.176 
L 110.147657 132.864 
L 110.147657 135.552 
L 110.147657 138.24 
L 110.147657 140.928 
L 110.147657 143.616 
L 110.147657 146.304 
L 110.147657 148.992 
L 110.147657 151.68 
L 110.147657 154.368 
L 110.147657 157.056 
L 110.147657 159.744 
L 110.147657 162.432 
L 110.147657 165.12 
L 110.147657 167.808 
L 110.147657 170.496 
L 110.147657 173.184 
L 110.147657 175.872 
L 110.147657 178.56 
L 110.147657 181.248 
L 110.147657 183.936 
L 110.147657 186.624 
L 110.147657 189.312 
L 110.147657 192 
L 110.147657 194.688 
L 110.147657 197.376 
L 110.147657 200.064 
L 110.147657 202.752 
L 110.147657 205.44 
L 110.147657 208.128 
L 110.147657 210.816 
L 110.147657 213.504 
L 110.147657 216.192 
L 110.147657 218.88 
L 110.147657 221.568 
L 110.147657 224.256 
L 110.147657 226.944 
L 110.147657 229.632 
L 110.147657 232.32 
L 110.147657 235.008 
L 110.147657 237.696 
L 110.147657 240.384 
L 110.147657 243.072 
L 110.147657 245.76 
L 110.147657 248.448 
L 110.147657 251.136 
L 110.147657 253.824 
L 110.147657 256.512 
L 110.147657 259.2 
L 110.147657 261.888 
L 110.147657 264.576 
L 110.147657 267.264 
L 110.147657 269.952 
L 110.147657 272.64 
L 110.147657 275.328 
L 110.147657 278.016 
L 110.147657 280.704 
L 110.147657 283.392 
L 110.147657 286.08 
L 110.147657 288.768 
L 110.147657 291.456 
L 110.147657 294.144 
L 110.147657 296.832 
L 110.147657 299.52 
L 110.147657 302.208 
L 110.147657 304.896 
L 110.147657 307.584 
L 121.371429 307.584 
z
" clip-path="url(#p310e544b63)" style="fill: #3f4788; fill-opacity: 0.75"/>
   </g>
   <g id="PathCollection_3">
    <path d="M 110.147657 304.896 
L 110.147657 302.208 
L 110.147657 299.52 
L 110.147657 296.832 
L 110.147657 294.144 
L 110.147657 291.456 
L 110.147657 288.768 
L 110.147657 286.08 
L 110.147657 283.392 
L 110.147657 280.704 
L 110.147657 278.016 
L 110.147657 275.328 
L 110.147657 272.64 
L 110.147657 269.952 
L 110.147657 267.264 
L 110.147657 264.576 
L 110.147657 261.888 
L 110.147657 259.2 
L 110.147657 256.512 
L 110.147657 253.824 
L 110.147657 251.136 
L 110.147657 248.448 
L 110.147657 245.76 
L 110.147657 243.072 
L 110.147657 240.384 
L 110.147657 237.696 
L 110.147657 235.008 
L 110.147657 232.32 
L 110.147657 229.632 
L 110.147657 226.944 
L 110.147657 224.256 
L 110.147657 221.568 
L 110.147657 218.88 
L 110.147657 216.192 
L 110.147657 213.504 
L 110.147657 210.816 
L 110.147657 208.128 
L 110.147657 205.44 
L 110.147657 202.752 
L 110.147657 200.064 
L 110.147657 197.376 
L 110.147657 194.688 
L 110.147657 192 
L 110.147657 189.312 
L 110.147657 186.624 
L 110.147657 183.936 
L 110.147657 181.248 
L 110.147657 178.56 
L 110.147657 175.872 
L 110.147657 173.184 
L 110.147657 170.496 
L 110.147657 167.808 
L 110.147657 165.12 
L 110.147657 162.432 
L 110.147657 159.744 
L 110.147657 157.056 
L 110.147657 154.368 
L 110.147657 151.68 
L 110.147657 148.992 
L 110.147657 146.304 
L 110.147657 143.616 
L 110.147657 140.928 
L 110.147657 138.24 
L 110.147657 135.552 
L 110.147657 132.864 
L 110.147657 130.176 
L 110.147657 127.488 
L 110.147657 124.8 
L 110.147657 122.112 
L 110.147657 119.424 
L 110.147657 116.736 
L 110.147657 114.048 
L 110.147657 111.36 
L 110.147657 108.672 
L 110.147657 105.984 
L 110.147657 103.296 
L 110.147657 100.608 
L 110.147657 97.92 
L 110.147657 95.232 
L 110.147657 92.544 
L 110.147657 89.856 
L 110.147657 87.168 
L 110.147657 84.48 
L 110.147657 81.792 
L 110.147657 79.104 
L 110.147657 76.416 
L 110.147657 73.728 
L 110.147657 71.04 
L 110.147657 68.352 
L 110.147657 65.664 
L 110.147657 62.976 
L 110.147657 60.288 
L 110.147657 57.6 
L 110.147657 54.912 
L 110.147657 52.224 
L 110.147657 49.536 
L 110.147657 46.848 
L 110.147657 44.16 
L 110.147657 41.472 
L 98.923886 41.472 
L 98.923886 44.16 
L 98.923886 46.848 
L 98.923886 49.536 
L 98.923886 52.224 
L 98.923886 54.912 
L 98.923886 57.6 
L 98.923886 60.288 
L 98.923886 62.976 
L 98.923886 65.664 
L 98.923886 68.352 
L 98.923886 71.04 
L 98.923886 73.728 
L 98.923886 76.416 
L 98.923886 79.104 
L 98.923886 81.792 
L 98.923886 84.48 
L 98.923886 87.168 
L 98.923886 89.856 
L 98.923886 92.544 
L 98.923886 95.232 
L 98.923886 97.92 
L 98.923886 100.608 
L 98.923886 103.296 
L 98.923886 105.984 
L 98.923886 108.672 
L 98.923886 111.36 
L 98.923886 114.048 
L 98.923886 116.736 
L 98.923886 119.424 
L 98.923886 122.112 
L 98.923886 124.8 
L 98.923886 127.488 
L 98.923886 130.176 
L 98.923886 132.864 
L 98.923886 135.552 
L 98.923886 138.24 
L 98.923886 140.928 
L 98.923886 143.616 
L 98.923886 146.304 
L 98.923886 148.992 
L 98.923886 151.68 
L 98.923886 154.368 
L 98.923886 157.056 
L 98.923886 159.744 
L 98.923886 162.432 
L 98.923886 165.12 
L 98.923886 167.808 
L 98.923886 170.496 
L 98.923886 173.184 
L 98.923886 175.872 
L 98.923886 178.56 
L 98.923886 181.248 
L 98.923886 183.936 
L 98.923886 186.624 
L 98.923886 189.312 
L 98.923886 192 
L 98.923886 194.688 
L 98.923886 197.376 
L 98.923886 200.064 
L 98.923886 202.752 
L 98.923886 205.44 
L 98.923886 208.128 
L 98.923886 210.816 
L 98.923886 213.504 
L 98.923886 216.192 
L 98.923886 218.88 
L 98.923886 221.568 
L 98.923886 224.256 
L 98.923886 226.944 
L 98.923886 229.632 
L 98.923886 232.32 
L 98.923886 235.008 
L 98.923886 237.696 
L 98.923886 240.384 
L 98.923886 243.072 
L 98.923886 245.76 
L 98.923886 248.448 
L 98.923886 251.136 
L 98.923886 253.824 
L 98.923886 256.512 
L 98.923886 259.2 
L 98.923886 261.888 
L 98.923886 264.576 
L 98.923886 267.264 
L 98.923886 269.952 
L 98.923886 272.64 
L 98.923886 275.328 
L 98.923886 278.016 
L 98.923886 280.704 
L 98.923886 283.392 
L 98.923886 286.08 
L 98.923886 288.768 
L 98.923886 291.456 
L 98.923886 294.144 
L 98.923886 296.832 
L 98.923886 299.52 
L 98.923886 302.208 
L 98.923886 304.896 
L 98.923886 307.584 
L 110.147657 307.584 
z
" clip-path="url(#p310e544b63)" style="fill: #2e6e8e; fill-opacity: 0.75"/>
   </g>
   <g id="PathCollection_4">
    <path d="M 98.923886 304.896 
L 98.923886 302.208 
L 98.923886 299.52 
L 98.923886 296.832 
L 98.923886 294.144 
L 98.923886 291.456 
L 98.923886 288.768 
L 98.923886 286.08 
L 98.923886 283.392 
L 98.923886 280.704 
L 98.923886 278.016 
L 98.923886 275.328 
L 98.923886 272.64 
L 98.923886 269.952 
L 98.923886 267.264 
L 98.923886 264.576 
L 98.923886 261.888 
L 98.923886 259.2 
L 98.923886 256.512 
L 98.923886 253.824 
L 98.923886 251.136 
L 98.923886 248.448 
L 98.923886 245.76 
L 98.923886 243.072 
L 98.923886 240.384 
L 98.923886 237.696 
L 98.923886 235.008 
L 98.923886 232.32 
L 98.923886 229.632 
L 98.923886 226.944 
L 98.923886 224.256 
L 98.923886 221.568 
L 98.923886 218.88 
L 98.923886 216.192 
L 98.923886 213.504 
L 98.923886 210.816 
L 98.923886 208.128 
L 98.923886 205.44 
L 98.923886 202.752 
L 98.923886 200.064 
L 98.923886 197.376 
L 98.923886 194.688 
L 98.923886 192 
L 98.923886 189.312 
L 98.923886 186.624 
L 98.923886 183.936 
L 98.923886 181.248 
L 98.923886 178.56 
L 98.923886 175.872 
L 98.923886 173.184 
L 98.923886 170.496 
L 98.923886 167.808 
L 98.923886 165.12 
L 98.923886 162.432 
L 98.923886 159.744 
L 98.923886 157.056 
L 98.923886 154.368 
L 98.923886 151.68 
L 98.923886 148.992 
L 98.923886 146.304 
L 98.923886 143.616 
L 98.923886 140.928 
L 98.923886 138.24 
L 98.923886 135.552 
L 98.923886 132.864 
L 98.923886 130.176 
L 98.923886 127.488 
L 98.923886 124.8 
L 98.923886 122.112 
L 98.923886 119.424 
L 98.923886 116.736 
L 98.923886 114.048 
L 98.923886 111.36 
L 98.923886 108.672 
L 98.923886 105.984 
L 98.923886 103.296 
L 98.923886 100.608 
L 98.923886 97.92 
L 98.923886 95.232 
L 98.923886 92.544 
L 98.923886 89.856 
L 98.923886 87.168 
L 98.923886 84.48 
L 98.923886 81.792 
L 98.923886 79.104 
L 98.923886 76.416 
L 98.923886 73.728 
L 98.923886 71.04 
L 98.923886 68.352 
L 98.923886 65.664 
L 98.923886 62.976 
L 98.923886 60.288 
L 98.923886 57.6 
L 98.923886 54.912 
L 98.923886 52.224 
L 98.923886 49.536 
L 98.923886 46.848 
L 98.923886 44.16 
L 98.923886 41.472 
L 87.700114 41.472 
L 87.700114 44.16 
L 87.700114 46.848 
L 87.700114 49.536 
L 87.700114 52.224 
L 87.700114 54.912 
L 87.700114 57.6 
L 87.700114 60.288 
L 87.700114 62.976 
L 87.700114 65.664 
L 87.700114 68.352 
L 87.700114 71.04 
L 87.700114 73.728 
L 87.700114 76.416 
L 87.700114 79.104 
L 87.700114 81.792 
L 87.700114 84.48 
L 87.700114 87.168 
L 87.700114 89.856 
L 87.700114 92.544 
L 87.700114 95.232 
L 87.700114 97.92 
L 87.700114 100.608 
L 87.700114 103.296 
L 87.700114 105.984 
L 87.700114 108.672 
L 87.700114 111.36 
L 87.700114 114.048 
L 87.700114 116.736 
L 87.700114 119.424 
L 87.700114 122.112 
L 87.700114 124.8 
L 87.700114 127.488 
L 87.700114 130.176 
L 87.700114 132.864 
L 87.700114 135.552 
L 87.700114 138.24 
L 87.700114 140.928 
L 87.700114 143.616 
L 87.700114 146.304 
L 87.700114 148.992 
L 87.700114 151.68 
L 87.700114 154.368 
L 87.700114 157.056 
L 87.700114 159.744 
L 87.700114 162.432 
L 87.700114 165.12 
L 87.700114 167.808 
L 87.700114 170.496 
L 87.700114 173.184 
L 87.700114 175.872 
L 87.700114 178.56 
L 87.700114 181.248 
L 87.700114 183.936 
L 87.700114 186.624 
L 87.700114 189.312 
L 87.700114 192 
L 87.700114 194.688 
L 87.700114 197.376 
L 87.700114 200.064 
L 87.700114 202.752 
L 87.700114 205.44 
L 87.700114 208.128 
L 87.700114 210.816 
L 87.700114 213.504 
L 87.700114 216.192 
L 87.700114 218.88 
L 87.700114 221.568 
L 87.700114 224.256 
L 87.700114 226.944 
L 87.700114 229.632 
L 87.700114 232.32 
L 87.700114 235.008 
L 87.700114 237.696 
L 87.700114 240.384 
L 87.700114 243.072 
L 87.700114 245.76 
L 87.700114 248.448 
L 87.700114 251.136 
L 87.700114 253.824 
L 87.700114 256.512 
L 87.700114 259.2 
L 87.700114 261.888 
L 87.700114 264.576 
L 87.700114 267.264 
L 87.700114 269.952 
L 87.700114 272.64 
L 87.700114 275.328 
L 87.700114 278.016 
L 87.700114 280.704 
L 87.700114 283.392 
L 87.700114 286.08 
L 87.700114 288.768 
L 87.700114 291.456 
L 87.700114 294.144 
L 87.700114 296.832 
L 87.700114 299.52 
L 87.700114 302.208 
L 87.700114 304.896 
L 87.700114 307.584 
L 98.923886 307.584 
z
" clip-path="url(#p310e544b63)" style="fill: #21918c; fill-opacity: 0.75"/>
   </g>
   <g id="PathCollection_5">
    <path d="M 87.700114 304.896 
L 87.700114 302.208 
L 87.700114 299.52 
L 87.700114 296.832 
L 87.700114 294.144 
L 87.700114 291.456 
L 87.700114 288.768 
L 87.700114 286.08 
L 87.700114 283.392 
L 87.700114 280.704 
L 87.700114 278.016 
L 87.700114 275.328 
L 87.700114 272.64 
L 87.700114 269.952 
L 87.700114 267.264 
L 87.700114 264.576 
L 87.700114 261.888 
L 87.700114 259.2 
L 87.700114 256.512 
L 87.700114 253.824 
L 87.700114 251.136 
L 87.700114 248.448 
L 87.700114 245.76 
L 87.700114 243.072 
L 87.700114 240.384 
L 87.700114 237.696 
L 87.700114 235.008 
L 87.700114 232.32 
L 87.700114 229.632 
L 87.700114 226.944 
L 87.700114 224.256 
L 87.700114 221.568 
L 87.700114 218.88 
L 87.700114 216.192 
L 87.700114 213.504 
L 87.700114 210.816 
L 87.700114 208.128 
L 87.700114 205.44 
L 87.700114 202.752 
L 87.700114 200.064 
L 87.700114 197.376 
L 87.700114 194.688 
L 87.700114 192 
L 87.700114 189.312 
L 87.700114 186.624 
L 87.700114 183.936 
L 87.700114 181.248 
L 87.700114 178.56 
L 87.700114 175.872 
L 87.700114 173.184 
L 87.700114 170.496 
L 87.700114 167.808 
L 87.700114 165.12 
L 87.700114 162.432 
L 87.700114 159.744 
L 87.700114 157.056 
L 87.700114 154.368 
L 87.700114 151.68 
L 87.700114 148.992 
L 87.700114 146.304 
L 87.700114 143.616 
L 87.700114 140.928 
L 87.700114 138.24 
L 87.700114 135.552 
L 87.700114 132.864 
L 87.700114 130.176 
L 87.700114 127.488 
L 87.700114 124.8 
L 87.700114 122.112 
L 87.700114 119.424 
L 87.700114 116.736 
L 87.700114 114.048 
L 87.700114 111.36 
L 87.700114 108.672 
L 87.700114 105.984 
L 87.700114 103.296 
L 87.700114 100.608 
L 87.700114 97.92 
L 87.700114 95.232 
L 87.700114 92.544 
L 87.700114 89.856 
L 87.700114 87.168 
L 87.700114 84.48 
L 87.700114 81.792 
L 87.700114 79.104 
L 87.700114 76.416 
L 87.700114 73.728 
L 87.700114 71.04 
L 87.700114 68.352 
L 87.700114 65.664 
L 87.700114 62.976 
L 87.700114 60.288 
L 87.700114 57.6 
L 87.700114 54.912 
L 87.700114 52.224 
L 87.700114 49.536 
L 87.700114 46.848 
L 87.700114 44.16 
L 87.700114 41.472 
L 76.476343 41.472 
L 76.476343 44.16 
L 76.476343 46.848 
L 76.476343 49.536 
L 76.476343 52.224 
L 76.476343 54.912 
L 76.476343 57.6 
L 76.476343 60.288 
L 76.476343 62.976 
L 76.476343 65.664 
L 76.476343 68.352 
L 76.476343 71.04 
L 76.476343 73.728 
L 76.476343 76.416 
L 76.476343 79.104 
L 76.476343 81.792 
L 76.476343 84.48 
L 76.476343 87.168 
L 76.476343 89.856 
L 76.476343 92.544 
L 76.476343 95.232 
L 76.476343 97.92 
L 76.476343 100.608 
L 76.476343 103.296 
L 76.476343 105.984 
L 76.476343 108.672 
L 76.476343 111.36 
L 76.476343 114.048 
L 76.476343 116.736 
L 76.476343 119.424 
L 76.476343 122.112 
L 76.476343 124.8 
L 76.476343 127.488 
L 76.476343 130.176 
L 76.476343 132.864 
L 76.476343 135.552 
L 76.476343 138.24 
L 76.476343 140.928 
L 76.476343 143.616 
L 76.476343 146.304 
L 76.476343 148.992 
L 76.476343 151.68 
L 76.476343 154.368 
L 76.476343 157.056 
L 76.476343 159.744 
L 76.476343 162.432 
L 76.476343 165.12 
L 76.476343 167.808 
L 76.476343 170.496 
L 76.476343 173.184 
L 76.476343 175.872 
L 76.476343 178.56 
L 76.476343 181.248 
L 76.476343 183.936 
L 76.476343 186.624 
L 76.476343 189.312 
L 76.476343 192 
L 76.476343 194.688 
L 76.476343 197.376 
L 76.476343 200.064 
L 76.476343 202.752 
L 76.476343 205.44 
L 76.476343 208.128 
L 76.476343 210.816 
L 76.476343 213.504 
L 76.476343 216.192 
L 76.476343 218.88 
L 76.476343 221.568 
L 76.476343 224.256 
L 76.476343 226.944 
L 76.476343 229.632 
L 76.476343 232.32 
L 76.476343 235.008 
L 76.476343 237.696 
L 76.476343 240.384 
L 76.476343 243.072 
L 76.476343 245.76 
L 76.476343 248.448 
L 76.476343 251.136 
L 76.476343 253.824 
L 76.476343 256.512 
L 76.476343 259.2 
L 76.476343 261.888 
L 76.476343 264.576 
L 76.476343 267.264 
L 76.476343 269.952 
L 76.476343 272.64 
L 76.476343 275.328 
L 76.476343 278.016 
L 76.476343 280.704 
L 76.476343 283.392 
L 76.476343 286.08 
L 76.476343 288.768 
L 76.476343 291.456 
L 76.476343 294.144 
L 76.476343 296.832 
L 76.476343 299.52 
L 76.476343 302.208 
L 76.476343 304.896 
L 76.476343 307.584 
L 87.700114 307.584 
z
" clip-path="url(#p310e544b63)" style="fill: #2db27d; fill-opacity: 0.75"/>
   </g>
   <g id="PathCollection_6">
    <path d="M 76.476343 304.896 
L 76.476343 302.208 
L 76.476343 299.52 
L 76.476343 296.832 
L 76.476343 294.144 
L 76.476343 291.456 
L 76.476343 288.768 
L 76.476343 286.08 
L 76.476343 283.392 
L 76.476343 280.704 
L 76.476343 278.016 
L 76.476343 275.328 
L 76.476343 272.64 
L 76.476343 269.952 
L 76.476343 267.264 
L 76.476343 264.576 
L 76.476343 261.888 
L 76.476343 259.2 
L 76.476343 256.512 
L 76.476343 253.824 
L 76.476343 251.136 
L 76.476343 248.448 
L 76.476343 245.76 
L 76.476343 243.072 
L 76.476343 240.384 
L 76.476343 237.696 
L 76.476343 235.008 
L 76.476343 232.32 
L 76.476343 229.632 
L 76.476343 226.944 
L 76.476343 224.256 
L 76.476343 221.568 
L 76.476343 218.88 
L 76.476343 216.192 
L 76.476343 213.504 
L 76.476343 210.816 
L 76.476343 208.128 
L 76.476343 205.44 
L 76.476343 202.752 
L 76.476343 200.064 
L 76.476343 197.376 
L 76.476343 194.688 
L 76.476343 192 
L 76.476343 189.312 
L 76.476343 186.624 
L 76.476343 183.936 
L 76.476343 181.248 
L 76.476343 178.56 
L 76.476343 175.872 
L 76.476343 173.184 
L 76.476343 170.496 
L 76.476343 167.808 
L 76.476343 165.12 
L 76.476343 162.432 
L 76.476343 159.744 
L 76.476343 157.056 
L 76.476343 154.368 
L 76.476343 151.68 
L 76.476343 148.992 
L 76.476343 146.304 
L 76.476343 143.616 
L 76.476343 140.928 
L 76.476343 138.24 
L 76.476343 135.552 
L 76.476343 132.864 
L 76.476343 130.176 
L 76.476343 127.488 
L 76.476343 124.8 
L 76.476343 122.112 
L 76.476343 119.424 
L 76.476343 116.736 
L 76.476343 114.048 
L 76.476343 111.36 
L 76.476343 108.672 
L 76.476343 105.984 
L 76.476343 103.296 
L 76.476343 100.608 
L 76.476343 97.92 
L 76.476343 95.232 
L 76.476343 92.544 
L 76.476343 89.856 
L 76.476343 87.168 
L 76.476343 84.48 
L 76.476343 81.792 
L 76.476343 79.104 
L 76.476343 76.416 
L 76.476343 73.728 
L 76.476343 71.04 
L 76.476343 68.352 
L 76.476343 65.664 
L 76.476343 62.976 
L 76.476343 60.288 
L 76.476343 57.6 
L 76.476343 54.912 
L 76.476343 52.224 
L 76.476343 49.536 
L 76.476343 46.848 
L 76.476343 44.16 
L 76.476343 41.472 
L 65.252571 41.472 
L 65.252571 44.16 
L 65.252571 46.848 
L 65.252571 49.536 
L 65.252571 52.224 
L 65.252571 54.912 
L 65.252571 57.6 
L 65.252571 60.288 
L 65.252571 62.976 
L 65.252571 65.664 
L 65.252571 68.352 
L 65.252571 71.04 
L 65.252571 73.728 
L 65.252571 76.416 
L 65.252571 79.104 
L 65.252571 81.792 
L 65.252571 84.48 
L 65.252571 87.168 
L 65.252571 89.856 
L 65.252571 92.544 
L 65.252571 95.232 
L 65.252571 97.92 
L 65.252571 100.608 
L 65.252571 103.296 
L 65.252571 105.984 
L 65.252571 108.672 
L 65.252571 111.36 
L 65.252571 114.048 
L 65.252571 116.736 
L 65.252571 119.424 
L 65.252571 122.112 
L 65.252571 124.8 
L 65.252571 127.488 
L 65.252571 130.176 
L 65.252571 132.864 
L 65.252571 135.552 
L 65.252571 138.24 
L 65.252571 140.928 
L 65.252571 143.616 
L 65.252571 146.304 
L 65.252571 148.992 
L 65.252571 151.68 
L 65.252571 154.368 
L 65.252571 157.056 
L 65.252571 159.744 
L 65.252571 162.432 
L 65.252571 165.12 
L 65.252571 167.808 
L 65.252571 170.496 
L 65.252571 173.184 
L 65.252571 175.872 
L 65.252571 178.56 
L 65.252571 181.248 
L 65.252571 183.936 
L 65.252571 186.624 
L 65.252571 189.312 
L 65.252571 192 
L 65.252571 194.688 
L 65.252571 197.376 
L 65.252571 200.064 
L 65.252571 202.752 
L 65.252571 205.44 
L 65.252571 208.128 
L 65.252571 210.816 
L 65.252571 213.504 
L 65.252571 216.192 
L 65.252571 218.88 
L 65.252571 221.568 
L 65.252571 224.256 
L 65.252571 226.944 
L 65.252571 229.632 
L 65.252571 232.32 
L 65.252571 235.008 
L 65.252571 237.696 
L 65.252571 240.384 
L 65.252571 243.072 
L 65.252571 245.76 
L 65.252571 248.448 
L 65.252571 251.136 
L 65.252571 253.824 
L 65.252571 256.512 
L 65.252571 259.2 
L 65.252571 261.888 
L 65.252571 264.576 
L 65.252571 267.264 
L 65.252571 269.952 
L 65.252571 272.64 
L 65.252571 275.328 
L 65.252571 278.016 
L 65.252571 280.704 
L 65.252571 283.392 
L 65.252571 286.08 
L 65.252571 288.768 
L 65.252571 291.456 
L 65.252571 294.144 
L 65.252571 296.832 
L 65.252571 299.52 
L 65.252571 302.208 
L 65.252571 304.896 
L 65.252571 307.584 
L 76.476343 307.584 
z
" clip-path="url(#p310e544b63)" style="fill: #73d056; fill-opacity: 0.75"/>
   </g>
   <g id="PathCollection_7">
    <path d="M 65.252571 304.896 
L 65.252571 302.208 
L 65.252571 299.52 
L 65.252571 296.832 
L 65.252571 294.144 
L 65.252571 291.456 
L 65.252571 288.768 
L 65.252571 286.08 
L 65.252571 283.392 
L 65.252571 280.704 
L 65.252571 278.016 
L 65.252571 275.328 
L 65.252571 272.64 
L 65.252571 269.952 
L 65.252571 267.264 
L 65.252571 264.576 
L 65.252571 261.888 
L 65.252571 259.2 
L 65.252571 256.512 
L 65.252571 253.824 
L 65.252571 251.136 
L 65.252571 248.448 
L 65.252571 245.76 
L 65.252571 243.072 
L 65.252571 240.384 
L 65.252571 237.696 
L 65.252571 235.008 
L 65.252571 232.32 
L 65.252571 229.632 
L 65.252571 226.944 
L 65.252571 224.256 
L 65.252571 221.568 
L 65.252571 218.88 
L 65.252571 216.192 
L 65.252571 213.504 
L 65.252571 210.816 
L 65.252571 208.128 
L 65.252571 205.44 
L 65.252571 202.752 
L 65.252571 200.064 
L 65.252571 197.376 
L 65.252571 194.688 
L 65.252571 192 
L 65.252571 189.312 
L 65.252571 186.624 
L 65.252571 183.936 
L 65.252571 181.248 
L 65.252571 178.56 
L 65.252571 175.872 
L 65.252571 173.184 
L 65.252571 170.496 
L 65.252571 167.808 
L 65.252571 165.12 
L 65.252571 162.432 
L 65.252571 159.744 
L 65.252571 157.056 
L 65.252571 154.368 
L 65.252571 151.68 
L 65.252571 148.992 
L 65.252571 146.304 
L 65.252571 143.616 
L 65.252571 140.928 
L 65.252571 138.24 
L 65.252571 135.552 
L 65.252571 132.864 
L 65.252571 130.176 
L 65.252571 127.488 
L 65.252571 124.8 
L 65.252571 122.112 
L 65.252571 119.424 
L 65.252571 116.736 
L 65.252571 114.048 
L 65.252571 111.36 
L 65.252571 108.672 
L 65.252571 105.984 
L 65.252571 103.296 
L 65.252571 100.608 
L 65.252571 97.92 
L 65.252571 95.232 
L 65.252571 92.544 
L 65.252571 89.856 
L 65.252571 87.168 
L 65.252571 84.48 
L 65.252571 81.792 
L 65.252571 79.104 
L 65.252571 76.416 
L 65.252571 73.728 
L 65.252571 71.04 
L 65.252571 68.352 
L 65.252571 65.664 
L 65.252571 62.976 
L 65.252571 60.288 
L 65.252571 57.6 
L 65.252571 54.912 
L 65.252571 52.224 
L 65.252571 49.536 
L 65.252571 46.848 
L 65.252571 44.16 
L 65.252571 41.472 
L 57.6 41.472 
L 57.6 44.16 
L 57.6 46.848 
L 57.6 49.536 
L 57.6 52.224 
L 57.6 54.912 
L 57.6 57.6 
L 57.6 60.288 
L 57.6 62.976 
L 57.6 65.664 
L 57.6 68.352 
L 57.6 71.04 
L 57.6 73.728 
L 57.6 76.416 
L 57.6 79.104 
L 57.6 81.792 
L 57.6 84.48 
L 57.6 87.168 
L 57.6 89.856 
L 57.6 92.544 
L 57.6 95.232 
L 57.6 97.92 
L 57.6 100.608 
L 57.6 103.296 
L 57.6 105.984 
L 57.6 108.672 
L 57.6 111.36 
L 57.6 114.048 
L 57.6 116.736 
L 57.6 119.424 
L 57.6 122.112 
L 57.6 124.8 
L 57.6 127.488 
L 57.6 130.176 
L 57.6 132.864 
L 57.6 135.552 
L 57.6 138.24 
L 57.6 140.928 
L 57.6 143.616 
L 57.6 146.304 
L 57.6 148.992 
L 57.6 151.68 
L 57.6 154.368 
L 57.6 157.056 
L 57.6 159.744 
L 57.6 162.432 
L 57.6 165.12 
L 57.6 167.808 
L 57.6 170.496 
L 57.6 173.184 
L 57.6 175.872 
L 57.6 178.56 
L 57.6 181.248 
L 57.6 183.936 
L 57.6 186.624 
L 57.6 189.312 
L 57.6 192 
L 57.6 194.688 
L 57.6 197.376 
L 57.6 200.064 
L 57.6 202.752 
L 57.6 205.44 
L 57.6 208.128 
L 57.6 210.816 
L 57.6 213.504 
L 57.6 216.192 
L 57.6 218.88 
L 57.6 221.568 
L 57.6 224.256 
L 57.6 226.944 
L 57.6 229.632 
L 57.6 232.32 
L 57.6 235.008 
L 57.6 237.696 
L 57.6 240.384 
L 57.6 243.072 
L 57.6 245.76 
L 57.6 248.448 
L 57.6 251.136 
L 57.6 253.824 
L 57.6 256.512 
L 57.6 259.2 
L 57.6 261.888 
L 57.6 264.576 
L 57.6 267.264 
L 57.6 269.952 
L 57.6 272.64 
L 57.6 275.328 
L 57.6 278.016 
L 57.6 280.704 
L 57.6 283.392 
L 57.6 286.08 
L 57.6 288.768 
L 57.6 291.456 
L 57.6 294.144 
L 57.6 296.832 
L 57.6 299.52 
L 57.6 302.208 
L 57.6 304.896 
L 57.6 307.584 
L 65.252571 307.584 
z
" clip-path="url(#p310e544b63)" style="fill: #d0e11c; fill-opacity: 0.75"/>
   </g>
   <g id="matplotlib.axis_1">
    <g id="xtick_1">
     <g id="line2d_1">
      <defs>
       <path id="m71a66a8b7c" d="M 0 0 
L 0 3.5 
" style="stroke: #000000; stroke-width: 0.8"/>
      </defs>
      <g>
       <use xlink:href="#m71a66a8b7c" x="57.6" y="307.584" style="stroke: #000000; stroke-width: 0.8"/>
      </g>
     </g>
     <g id="text_1">
      <!-- 1 -->
      <g transform="translate(54.41875 322.182437) scale(0.1 -0.1)">
       <defs>
        <path id="DejaVuSans-31" d="M 794 531 
L 1825 531 
L 1825 4091 
L 703 3866 
L 703 4441 
L 1819 4666 
L 2450 4666 
L 2450 531 
L 3481 531 
L 3481 0 
L 794 0 
L 794 531 
z
" transform="scale(0.015625)"/>
       </defs>
       <use xlink:href="#DejaVuSans-31"/>
      </g>
     </g>
    </g>
    <g id="xtick_2">
     <g id="line2d_2">
      <g>
       <use xlink:href="#m71a66a8b7c" x="129.024" y="307.584" style="stroke: #000000; stroke-width: 0.8"/>
      </g>
     </g>
     <g id="text_2">
      <!-- 2 -->
      <g transform="translate(125.84275 322.182437) scale(0.1 -0.1)">
       <defs>
        <path id="DejaVuSans-32" d="M 1228 531 
L 3431 531 
L 3431 0 
L 469 0 
L 469 531 
Q 828 903 1448 1529 
Q 2069 2156 2228 2338 
Q 2531 2678 2651 2914 
Q 2772 3150 2772 3378 
Q 2772 3750 2511 3984 
Q 2250 4219 1831 4219 
Q 1534 4219 1204 4116 
Q 875 4013 500 3803 
L 500 4441 
Q 881 4594 1212 4672 
Q 1544 4750 1819 4750 
Q 2544 4750 2975 4387 
Q 3406 4025 3406 3419 
Q 3406 3131 3298 2873 
Q 3191 2616 2906 2266 
Q 2828 2175 2409 1742 
Q 1991 1309 1228 531 
z
" transform="scale(0.015625)"/>
       </defs>
       <use xlink:href="#DejaVuSans-32"/>
      </g>
     </g>
    </g>
    <g id="xtick_3">
     <g id="line2d_3">
      <g>
       <use xlink:href="#m71a66a8b7c" x="200.448" y="307.584" style="stroke: #000000; stroke-width: 0.8"/>
      </g>
     </g>
     <g id="text_3">
      <!-- 3 -->
      <g transform="translate(197.26675 322.182437) scale(0.1 -0.1)">
       <defs>
        <path id="DejaVuSans-33" d="M 2597 2516 
Q 3050 2419 3304 2112 
Q 3559 1806 3559 1356 
Q 3559 666 3084 287 
Q 2609 -91 1734 -91 
Q 1441 -91 1130 -33 
Q 819 25 488 141 
L 488 750 
Q 750 597 1062 519 
Q 1375 441 1716 441 
Q 2309 441 2620 675 
Q 2931 909 2931 1356 
Q 2931 1769 2642 2001 
Q 2353 2234 1838 2234 
L 1294 2234 
L 1294 2753 
L 1863 2753 
Q 2328 2753 2575 2939 
Q 2822 3125 2822 3475 
Q 2822 3834 2567 4026 
Q 2313 4219 1838 4219 
Q 1578 4219 1281 4162 
Q 984 4106 628 3988 
L 628 4550 
Q 988 4650 1302 4700 
Q 1616 4750 1894 4750 
Q 2613 4750 3031 4423 
Q 3450 4097 3450 3541 
Q 3450 3153 3228 2886 
Q 3006 2619 2597 2516 
z
" transform="scale(0.015625)"/>
       </defs>
       <use xlink:href="#DejaVuSans-33"/>
      </g>
     </g>
    </g>
    <g id="xtick_4">
     <g id="line2d_4">
      <g>
       <use xlink:href="#m71a66a8b7c" x="271.872" y="307.584" style="stroke: #000000; stroke-width: 0.8"/>
      </g>
     </g>
     <g id="text_4">
      <!-- 4 -->
      <g transform="translate(268.69075 322.182437) scale(0.1 -0.1)">
       <defs>
        <path id="DejaVuSans-34" d="M 2419 4116 
L 825 1625 
L 2419 1625 
L 2419 4116 
z
M 2253 4666 
L 3047 4666 
L 3047 1625 
L 3713 1625 
L 3713 1100 
L 3047 1100 
L 3047 0 
L 2419 0 
L 2419 1100 
L 313 1100 
L 313 1709 
L 2253 4666 
z
" transform="scale(0.015625)"/>
       </defs>
       <use xlink:href="#DejaVuSans-34"/>
      </g>
     </g>
    </g>
    <g id="xtick_5">
     <g id="line2d_5">
      <g>
       <use xlink:href="#m71a66a8b7c" x="343.296" y="307.584" style="stroke: #000000; stroke-width: 0.8"/>
      </g>
     </g>
     <g id="text_5">
      <!-- 5 -->
      <g transform="translate(340.11475 322.182437) scale(0.1 -0.1)">
       <defs>
        <path id="DejaVuSans-35" d="M 691 4666 
L 3169 4666 
L 3169 4134 
L 1269 4134 
L 1269 2991 
Q 1406 3038 1543 3061 
Q 1681 3084 1819 3084 
Q 2600 3084 3056 2656 
Q 3513 2228 3513 1497 
Q 3513 744 3044 326 
Q 2575 -91 1722 -91 
Q 1428 -91 1123 -41 
Q 819 9 494 109 
L 494 744 
Q 775 591 1075 516 
Q 1375 441 1709 441 
Q 2250 441 2565 725 
Q 2881 1009 2881 1497 
Q 2881 1984 2565 2268 
Q 2250 2553 1709 2553 
Q 1456 2553 1204 2497 
Q 953 2441 691 2322 
L 691 4666 
z
" transform="scale(0.015625)"/>
       </defs>
       <use xlink:href="#DejaVuSans-35"/>
      </g>
     </g>
    </g>
    <g id="xtick_6">
     <g id="line2d_6">
      <g>
       <use xlink:href="#m71a66a8b7c" x="414.72" y="307.584" style="stroke: #000000; stroke-width: 0.8"/>
      </g>
     </g>
     <g id="text_6">
      <!-- 6 -->
      <g transform="translate(411.53875 322.182437) scale(0.1 -0.1)">
       <defs>
        <path id="DejaVuSans-36" d="M 2113 2584 
Q 1688 2584 1439 2293 
Q 1191 2003 1191 1497 
Q 1191 994 1439 701 
Q 1688 409 2113 409 
Q 2538 409 2786 701 
Q 3034 994 3034 1497 
Q 3034 2003 2786 2293 
Q 2538 2584 2113 2584 
z
M 3366 4563 
L 3366 3988 
Q 3128 4100 2886 4159 
Q 2644 4219 2406 4219 
Q 1781 4219 1451 3797 
Q 1122 3375 1075 2522 
Q 1259 2794 1537 2939 
Q 1816 3084 2150 3084 
Q 2853 3084 3261 2657 
Q 3669 2231 3669 1497 
Q 3669 778 3244 343 
Q 2819 -91 2113 -91 
Q 1303 -91 875 529 
Q 447 1150 447 2328 
Q 447 3434 972 4092 
Q 1497 4750 2381 4750 
Q 2619 4750 2861 4703 
Q 3103 4656 3366 4563 
z
" transform="scale(0.015625)"/>
       </defs>
       <use xlink:href="#DejaVuSans-36"/>
      </g>
     </g>
    </g>
    <g id="text_7">
     <!-- Parent Location -->
     <g transform="translate(197.420156 335.860562) scale(0.1 -0.1)">
      <defs>
       <path id="DejaVuSans-50" d="M 1259 4147 
L 1259 2394 
L 2053 2394 
Q 2494 2394 2734 2622 
Q 2975 2850 2975 3272 
Q 2975 3691 2734 3919 
Q 2494 4147 2053 4147 
L 1259 4147 
z
M 628 4666 
L 2053 4666 
Q 2838 4666 3239 4311 
Q 3641 3956 3641 3272 
Q 3641 2581 3239 2228 
Q 2838 1875 2053 1875 
L 1259 1875 
L 1259 0 
L 628 0 
L 628 4666 
z
" transform="scale(0.015625)"/>
       <path id="DejaVuSans-61" d="M 2194 1759 
Q 1497 1759 1228 1600 
Q 959 1441 959 1056 
Q 959 750 1161 570 
Q 1363 391 1709 391 
Q 2188 391 2477 730 
Q 2766 1069 2766 1631 
L 2766 1759 
L 2194 1759 
z
M 3341 1997 
L 3341 0 
L 2766 0 
L 2766 531 
Q 2569 213 2275 61 
Q 1981 -91 1556 -91 
Q 1019 -91 701 211 
Q 384 513 384 1019 
Q 384 1609 779 1909 
Q 1175 2209 1959 2209 
L 2766 2209 
L 2766 2266 
Q 2766 2663 2505 2880 
Q 2244 3097 1772 3097 
Q 1472 3097 1187 3025 
Q 903 2953 641 2809 
L 641 3341 
Q 956 3463 1253 3523 
Q 1550 3584 1831 3584 
Q 2591 3584 2966 3190 
Q 3341 2797 3341 1997 
z
" transform="scale(0.015625)"/>
       <path id="DejaVuSans-72" d="M 2631 2963 
Q 2534 3019 2420 3045 
Q 2306 3072 2169 3072 
Q 1681 3072 1420 2755 
Q 1159 2438 1159 1844 
L 1159 0 
L 581 0 
L 581 3500 
L 1159 3500 
L 1159 2956 
Q 1341 3275 1631 3429 
Q 1922 3584 2338 3584 
Q 2397 3584 2469 3576 
Q 2541 3569 2628 3553 
L 2631 2963 
z
" transform="scale(0.015625)"/>
       <path id="DejaVuSans-65" d="M 3597 1894 
L 3597 1613 
L 953 1613 
Q 991 1019 1311 708 
Q 1631 397 2203 397 
Q 2534 397 2845 478 
Q 3156 559 3463 722 
L 3463 178 
Q 3153 47 2828 -22 
Q 2503 -91 2169 -91 
Q 1331 -91 842 396 
Q 353 884 353 1716 
Q 353 2575 817 3079 
Q 1281 3584 2069 3584 
Q 2775 3584 3186 3129 
Q 3597 2675 3597 1894 
z
M 3022 2063 
Q 3016 2534 2758 2815 
Q 2500 3097 2075 3097 
Q 1594 3097 1305 2825 
Q 1016 2553 972 2059 
L 3022 2063 
z
" transform="scale(0.015625)"/>
       <path id="DejaVuSans-6e" d="M 3513 2113 
L 3513 0 
L 2938 0 
L 2938 2094 
Q 2938 2591 2744 2837 
Q 2550 3084 2163 3084 
Q 1697 3084 1428 2787 
Q 1159 2491 1159 1978 
L 1159 0 
L 581 0 
L 581 3500 
L 1159 3500 
L 1159 2956 
Q 1366 3272 1645 3428 
Q 1925 3584 2291 3584 
Q 2894 3584 3203 3211 
Q 3513 2838 3513 2113 
z
" transform="scale(0.015625)"/>
       <path id="DejaVuSans-74" d="M 1172 4494 
L 1172 3500 
L 2356 3500 
L 2356 3053 
L 1172 3053 
L 1172 1153 
Q 1172 725 1289 603 
Q 1406 481 1766 481 
L 2356 481 
L 2356 0 
L 1766 0 
Q 1100 0 847 248 
Q 594 497 594 1153 
L 594 3053 
L 172 3053 
L 172 3500 
L 594 3500 
L 594 4494 
L 1172 4494 
z
" transform="scale(0.015625)"/>
       <path id="DejaVuSans-20" transform="scale(0.015625)"/>
       <path id="DejaVuSans-4c" d="M 628 4666 
L 1259 4666 
L 1259 531 
L 3531 531 
L 3531 0 
L 628 0 
L 628 4666 
z
" transform="scale(0.015625)"/>
       <path id="DejaVuSans-6f" d="M 1959 3097 
Q 1497 3097 1228 2736 
Q 959 2375 959 1747 
Q 959 1119 1226 758 
Q 1494 397 1959 397 
Q 2419 397 2687 759 
Q 2956 1122 2956 1747 
Q 2956 2369 2687 2733 
Q 2419 3097 1959 3097 
z
M 1959 3584 
Q 2709 3584 3137 3096 
Q 3566 2609 3566 1747 
Q 3566 888 3137 398 
Q 2709 -91 1959 -91 
Q 1206 -91 779 398 
Q 353 888 353 1747 
Q 353 2609 779 3096 
Q 1206 3584 1959 3584 
z
" transform="scale(0.015625)"/>
       <path id="DejaVuSans-63" d="M 3122 3366 
L 3122 2828 
Q 2878 2963 2633 3030 
Q 2388 3097 2138 3097 
Q 1578 3097 1268 2742 
Q 959 2388 959 1747 
Q 959 1106 1268 751 
Q 1578 397 2138 397 
Q 2388 397 2633 464 
Q 2878 531 3122 666 
L 3122 134 
Q 2881 22 2623 -34 
Q 2366 -91 2075 -91 
Q 1284 -91 818 406 
Q 353 903 353 1747 
Q 353 2603 823 3093 
Q 1294 3584 2113 3584 
Q 2378 3584 2631 3529 
Q 2884 3475 3122 3366 
z
" transform="scale(0.015625)"/>
       <path id="DejaVuSans-69" d="M 603 3500 
L 1178 3500 
L 1178 0 
L 603 0 
L 603 3500 
z
M 603 4863 
L 1178 4863 
L 1178 4134 
L 603 4134 
L 603 4863 
z
" transform="scale(0.015625)"/>
      </defs>
      <use xlink:href="#DejaVuSans-50"/>
      <use xlink:href="#DejaVuSans-61" x="55.802734"/>
      <use xlink:href="#DejaVuSans-72" x="117.082031"/>
      <use xlink:href="#DejaVuSans-65" x="155.945312"/>
      <use xlink:href="#DejaVuSans-6e" x="217.46875"/>
      <use xlink:href="#DejaVuSans-74" x="280.847656"/>
      <use xlink:href="#DejaVuSans-20" x="320.056641"/>
      <use xlink:href="#DejaVuSans-4c" x="351.84375"/>
      <use xlink:href="#DejaVuSans-6f" x="405.806641"/>
      <use xlink:href="#DejaVuSans-63" x="466.988281"/>
      <use xlink:href="#DejaVuSans-61" x="521.96875"/>
      <use xlink:href="#DejaVuSans-74" x="583.248047"/>
      <use xlink:href="#DejaVuSans-69" x="622.457031"/>
      <use xlink:href="#DejaVuSans-6f" x="650.240234"/>
      <use xlink:href="#DejaVuSans-6e" x="711.421875"/>
     </g>
    </g>
   </g>
   <g id="matplotlib.axis_2">
    <g id="ytick_1">
     <g id="line2d_7">
      <defs>
       <path id="m1ee6d9be64" d="M 0 0 
L -3.5 0 
" style="stroke: #000000; stroke-width: 0.8"/>
      </defs>
      <g>
       <use xlink:href="#m1ee6d9be64" x="57.6" y="291.531474" style="stroke: #000000; stroke-width: 0.8"/>
      </g>
     </g>
     <g id="text_8">
      <!-- 62.5 -->
      <g transform="translate(28.334375 295.330693) scale(0.1 -0.1)">
       <defs>
        <path id="DejaVuSans-2e" d="M 684 794 
L 1344 794 
L 1344 0 
L 684 0 
L 684 794 
z
" transform="scale(0.015625)"/>
       </defs>
       <use xlink:href="#DejaVuSans-36"/>
       <use xlink:href="#DejaVuSans-32" x="63.623047"/>
       <use xlink:href="#DejaVuSans-2e" x="127.246094"/>
       <use xlink:href="#DejaVuSans-35" x="159.033203"/>
      </g>
     </g>
    </g>
    <g id="ytick_2">
     <g id="line2d_8">
      <g>
       <use xlink:href="#m1ee6d9be64" x="57.6" y="260.460466" style="stroke: #000000; stroke-width: 0.8"/>
      </g>
     </g>
     <g id="text_9">
      <!-- 65.0 -->
      <g transform="translate(28.334375 264.259685) scale(0.1 -0.1)">
       <defs>
        <path id="DejaVuSans-30" d="M 2034 4250 
Q 1547 4250 1301 3770 
Q 1056 3291 1056 2328 
Q 1056 1369 1301 889 
Q 1547 409 2034 409 
Q 2525 409 2770 889 
Q 3016 1369 3016 2328 
Q 3016 3291 2770 3770 
Q 2525 4250 2034 4250 
z
M 2034 4750 
Q 2819 4750 3233 4129 
Q 3647 3509 3647 2328 
Q 3647 1150 3233 529 
Q 2819 -91 2034 -91 
Q 1250 -91 836 529 
Q 422 1150 422 2328 
Q 422 3509 836 4129 
Q 1250 4750 2034 4750 
z
" transform="scale(0.015625)"/>
       </defs>
       <use xlink:href="#DejaVuSans-36"/>
       <use xlink:href="#DejaVuSans-35" x="63.623047"/>
       <use xlink:href="#DejaVuSans-2e" x="127.246094"/>
       <use xlink:href="#DejaVuSans-30" x="159.033203"/>
      </g>
     </g>
    </g>
    <g id="ytick_3">
     <g id="line2d_9">
      <g>
       <use xlink:href="#m1ee6d9be64" x="57.6" y="229.389458" style="stroke: #000000; stroke-width: 0.8"/>
      </g>
     </g>
     <g id="text_10">
      <!-- 67.5 -->
      <g transform="translate(28.334375 233.188677) scale(0.1 -0.1)">
       <defs>
        <path id="DejaVuSans-37" d="M 525 4666 
L 3525 4666 
L 3525 4397 
L 1831 0 
L 1172 0 
L 2766 4134 
L 525 4134 
L 525 4666 
z
" transform="scale(0.015625)"/>
       </defs>
       <use xlink:href="#DejaVuSans-36"/>
       <use xlink:href="#DejaVuSans-37" x="63.623047"/>
       <use xlink:href="#DejaVuSans-2e" x="127.246094"/>
       <use xlink:href="#DejaVuSans-35" x="159.033203"/>
      </g>
     </g>
    </g>
    <g id="ytick_4">
     <g id="line2d_10">
      <g>
       <use xlink:href="#m1ee6d9be64" x="57.6" y="198.31845" style="stroke: #000000; stroke-width: 0.8"/>
      </g>
     </g>
     <g id="text_11">
      <!-- 70.0 -->
      <g transform="translate(28.334375 202.117668) scale(0.1 -0.1)">
       <use xlink:href="#DejaVuSans-37"/>
       <use xlink:href="#DejaVuSans-30" x="63.623047"/>
       <use xlink:href="#DejaVuSans-2e" x="127.246094"/>
       <use xlink:href="#DejaVuSans-30" x="159.033203"/>
      </g>
     </g>
    </g>
    <g id="ytick_5">
     <g id="line2d_11">
      <g>
       <use xlink:href="#m1ee6d9be64" x="57.6" y="167.247441" style="stroke: #000000; stroke-width: 0.8"/>
      </g>
     </g>
     <g id="text_12">
      <!-- 72.5 -->
      <g transform="translate(28.334375 171.04666) scale(0.1 -0.1)">
       <use xlink:href="#DejaVuSans-37"/>
       <use xlink:href="#DejaVuSans-32" x="63.623047"/>
       <use xlink:href="#DejaVuSans-2e" x="127.246094"/>
       <use xlink:href="#DejaVuSans-35" x="159.033203"/>
      </g>
     </g>
    </g>
    <g id="ytick_6">
     <g id="line2d_12">
      <g>
       <use xlink:href="#m1ee6d9be64" x="57.6" y="136.176433" style="stroke: #000000; stroke-width: 0.8"/>
      </g>
     </g>
     <g id="text_13">
      <!-- 75.0 -->
      <g transform="translate(28.334375 139.975652) scale(0.1 -0.1)">
       <use xlink:href="#DejaVuSans-37"/>
       <use xlink:href="#DejaVuSans-35" x="63.623047"/>
       <use xlink:href="#DejaVuSans-2e" x="127.246094"/>
       <use xlink:href="#DejaVuSans-30" x="159.033203"/>
      </g>
     </g>
    </g>
    <g id="ytick_7">
     <g id="line2d_13">
      <g>
       <use xlink:href="#m1ee6d9be64" x="57.6" y="105.105425" style="stroke: #000000; stroke-width: 0.8"/>
      </g>
     </g>
     <g id="text_14">
      <!-- 77.5 -->
      <g transform="translate(28.334375 108.904644) scale(0.1 -0.1)">
       <use xlink:href="#DejaVuSans-37"/>
       <use xlink:href="#DejaVuSans-37" x="63.623047"/>
       <use xlink:href="#DejaVuSans-2e" x="127.246094"/>
       <use xlink:href="#DejaVuSans-35" x="159.033203"/>
      </g>
     </g>
    </g>
    <g id="ytick_8">
     <g id="line2d_14">
      <g>
       <use xlink:href="#m1ee6d9be64" x="57.6" y="74.034417" style="stroke: #000000; stroke-width: 0.8"/>
      </g>
     </g>
     <g id="text_15">
      <!-- 80.0 -->
      <g transform="translate(28.334375 77.833635) scale(0.1 -0.1)">
       <defs>
        <path id="DejaVuSans-38" d="M 2034 2216 
Q 1584 2216 1326 1975 
Q 1069 1734 1069 1313 
Q 1069 891 1326 650 
Q 1584 409 2034 409 
Q 2484 409 2743 651 
Q 3003 894 3003 1313 
Q 3003 1734 2745 1975 
Q 2488 2216 2034 2216 
z
M 1403 2484 
Q 997 2584 770 2862 
Q 544 3141 544 3541 
Q 544 4100 942 4425 
Q 1341 4750 2034 4750 
Q 2731 4750 3128 4425 
Q 3525 4100 3525 3541 
Q 3525 3141 3298 2862 
Q 3072 2584 2669 2484 
Q 3125 2378 3379 2068 
Q 3634 1759 3634 1313 
Q 3634 634 3220 271 
Q 2806 -91 2034 -91 
Q 1263 -91 848 271 
Q 434 634 434 1313 
Q 434 1759 690 2068 
Q 947 2378 1403 2484 
z
M 1172 3481 
Q 1172 3119 1398 2916 
Q 1625 2713 2034 2713 
Q 2441 2713 2670 2916 
Q 2900 3119 2900 3481 
Q 2900 3844 2670 4047 
Q 2441 4250 2034 4250 
Q 1625 4250 1398 4047 
Q 1172 3844 1172 3481 
z
" transform="scale(0.015625)"/>
       </defs>
       <use xlink:href="#DejaVuSans-38"/>
       <use xlink:href="#DejaVuSans-30" x="63.623047"/>
       <use xlink:href="#DejaVuSans-2e" x="127.246094"/>
       <use xlink:href="#DejaVuSans-30" x="159.033203"/>
      </g>
     </g>
    </g>
    <g id="ytick_9">
     <g id="line2d_15">
      <g>
       <use xlink:href="#m1ee6d9be64" x="57.6" y="42.963408" style="stroke: #000000; stroke-width: 0.8"/>
      </g>
     </g>
     <g id="text_16">
      <!-- 82.5 -->
      <g transform="translate(28.334375 46.762627) scale(0.1 -0.1)">
       <use xlink:href="#DejaVuSans-38"/>
       <use xlink:href="#DejaVuSans-32" x="63.623047"/>
       <use xlink:href="#DejaVuSans-2e" x="127.246094"/>
       <use xlink:href="#DejaVuSans-35" x="159.033203"/>
      </g>
     </g>
    </g>
    <g id="text_17">
     <!-- Life Expectancy -->
     <g transform="translate(22.254687 214.149094) rotate(-90) scale(0.1 -0.1)">
      <defs>
       <path id="DejaVuSans-66" d="M 2375 4863 
L 2375 4384 
L 1825 4384 
Q 1516 4384 1395 4259 
Q 1275 4134 1275 3809 
L 1275 3500 
L 2222 3500 
L 2222 3053 
L 1275 3053 
L 1275 0 
L 697 0 
L 697 3053 
L 147 3053 
L 147 3500 
L 697 3500 
L 697 3744 
Q 697 4328 969 4595 
Q 1241 4863 1831 4863 
L 2375 4863 
z
" transform="scale(0.015625)"/>
       <path id="DejaVuSans-45" d="M 628 4666 
L 3578 4666 
L 3578 4134 
L 1259 4134 
L 1259 2753 
L 3481 2753 
L 3481 2222 
L 1259 2222 
L 1259 531 
L 3634 531 
L 3634 0 
L 628 0 
L 628 4666 
z
" transform="scale(0.015625)"/>
       <path id="DejaVuSans-78" d="M 3513 3500 
L 2247 1797 
L 3578 0 
L 2900 0 
L 1881 1375 
L 863 0 
L 184 0 
L 1544 1831 
L 300 3500 
L 978 3500 
L 1906 2253 
L 2834 3500 
L 3513 3500 
z
" transform="scale(0.015625)"/>
       <path id="DejaVuSans-70" d="M 1159 525 
L 1159 -1331 
L 581 -1331 
L 581 3500 
L 1159 3500 
L 1159 2969 
Q 1341 3281 1617 3432 
Q 1894 3584 2278 3584 
Q 2916 3584 3314 3078 
Q 3713 2572 3713 1747 
Q 3713 922 3314 415 
Q 2916 -91 2278 -91 
Q 1894 -91 1617 61 
Q 1341 213 1159 525 
z
M 3116 1747 
Q 3116 2381 2855 2742 
Q 2594 3103 2138 3103 
Q 1681 3103 1420 2742 
Q 1159 2381 1159 1747 
Q 1159 1113 1420 752 
Q 1681 391 2138 391 
Q 2594 391 2855 752 
Q 3116 1113 3116 1747 
z
" transform="scale(0.015625)"/>
       <path id="DejaVuSans-79" d="M 2059 -325 
Q 1816 -950 1584 -1140 
Q 1353 -1331 966 -1331 
L 506 -1331 
L 506 -850 
L 844 -850 
Q 1081 -850 1212 -737 
Q 1344 -625 1503 -206 
L 1606 56 
L 191 3500 
L 800 3500 
L 1894 763 
L 2988 3500 
L 3597 3500 
L 2059 -325 
z
" transform="scale(0.015625)"/>
      </defs>
      <use xlink:href="#DejaVuSans-4c"/>
      <use xlink:href="#DejaVuSans-69" x="55.712891"/>
      <use xlink:href="#DejaVuSans-66" x="83.496094"/>
      <use xlink:href="#DejaVuSans-65" x="118.701172"/>
      <use xlink:href="#DejaVuSans-20" x="180.224609"/>
      <use xlink:href="#DejaVuSans-45" x="212.011719"/>
      <use xlink:href="#DejaVuSans-78" x="275.195312"/>
      <use xlink:href="#DejaVuSans-70" x="334.375"/>
      <use xlink:href="#DejaVuSans-65" x="397.851562"/>
      <use xlink:href="#DejaVuSans-63" x="459.375"/>
      <use xlink:href="#DejaVuSans-74" x="514.355469"/>
      <use xlink:href="#DejaVuSans-61" x="553.564453"/>
      <use xlink:href="#DejaVuSans-6e" x="614.84375"/>
      <use xlink:href="#DejaVuSans-63" x="678.222656"/>
      <use xlink:href="#DejaVuSans-79" x="733.203125"/>
     </g>
    </g>
   </g>
   <g id="PathCollection_8"/>
   <g id="PathCollection_9">
    <path d="M 121.371429 307.584 
L 121.371429 304.896 
L 121.371429 302.208 
L 121.371429 299.52 
L 121.371429 296.832 
L 121.371429 294.144 
L 121.371429 291.456 
L 121.371429 288.768 
L 121.371429 286.08 
L 121.371429 283.392 
L 121.371429 282.024 
" clip-path="url(#p310e544b63)" style="fill: none; stroke: #000000; stroke-width: 0.5"/>
    <path d="M 121.371429 252.504 
L 121.371429 251.136 
L 121.371429 248.448 
L 121.371429 245.76 
L 121.371429 243.072 
L 121.371429 240.384 
L 121.371429 237.696 
L 121.371429 235.008 
L 121.371429 232.32 
L 121.371429 229.632 
L 121.371429 226.944 
L 121.371429 224.256 
L 121.371429 221.568 
L 121.371429 218.88 
L 121.371429 216.192 
L 121.371429 213.504 
L 121.371429 210.816 
L 121.371429 208.128 
L 121.371429 205.44 
L 121.371429 202.752 
L 121.371429 200.064 
L 121.371429 197.376 
L 121.371429 194.688 
L 121.371429 192 
L 121.371429 189.312 
L 121.371429 186.624 
L 121.371429 183.936 
L 121.371429 181.248 
L 121.371429 178.56 
L 121.371429 175.872 
L 121.371429 173.184 
L 121.371429 170.496 
L 121.371429 167.808 
L 121.371429 165.12 
L 121.371429 162.432 
L 121.371429 159.744 
L 121.371429 157.056 
L 121.371429 154.368 
L 121.371429 151.68 
L 121.371429 148.992 
L 121.371429 146.304 
L 121.371429 143.616 
L 121.371429 140.928 
L 121.371429 138.24 
L 121.371429 135.552 
L 121.371429 132.864 
L 121.371429 130.176 
L 121.371429 127.488 
L 121.371429 124.8 
L 121.371429 122.112 
L 121.371429 119.424 
L 121.371429 116.736 
L 121.371429 114.048 
L 121.371429 111.36 
L 121.371429 108.672 
L 121.371429 105.984 
L 121.371429 103.296 
L 121.371429 100.608 
L 121.371429 97.92 
L 121.371429 95.232 
L 121.371429 92.544 
L 121.371429 89.856 
L 121.371429 87.168 
L 121.371429 84.48 
L 121.371429 81.792 
L 121.371429 79.104 
L 121.371429 76.416 
L 121.371429 73.728 
L 121.371429 71.04 
L 121.371429 68.352 
L 121.371429 65.664 
L 121.371429 62.976 
L 121.371429 60.288 
L 121.371429 57.6 
L 121.371429 54.912 
L 121.371429 52.224 
L 121.371429 49.536 
L 121.371429 46.848 
L 121.371429 44.16 
L 121.371429 41.472 
" clip-path="url(#p310e544b63)" style="fill: none; stroke: #000000; stroke-width: 0.5"/>
   </g>
   <g id="PathCollection_10">
    <path d="M 110.147657 307.584 
L 110.147657 304.896 
L 110.147657 302.208 
L 110.147657 299.52 
L 110.147657 296.832 
L 110.147657 294.144 
L 110.147657 291.456 
L 110.147657 288.768 
L 110.147657 286.08 
L 110.147657 283.392 
L 110.147657 280.704 
L 110.147657 278.016 
L 110.147657 275.328 
L 110.147657 272.64 
L 110.147657 269.952 
L 110.147657 267.264 
L 110.147657 264.576 
L 110.147657 261.888 
L 110.147657 259.2 
L 110.147657 256.512 
L 110.147657 253.824 
L 110.147657 251.136 
L 110.147657 248.448 
L 110.147657 245.76 
L 110.147657 243.072 
L 110.147657 240.384 
L 110.147657 237.696 
L 110.147657 235.008 
L 110.147657 232.32 
L 110.147657 229.632 
L 110.147657 226.944 
L 110.147657 224.256 
L 110.147657 221.568 
L 110.147657 218.88 
L 110.147657 216.192 
L 110.147657 213.504 
L 110.147657 210.816 
L 110.147657 208.128 
L 110.147657 205.44 
L 110.147657 202.752 
L 110.147657 200.064 
L 110.147657 198.696 
" clip-path="url(#p310e544b63)" style="fill: none; stroke: #000000; stroke-width: 0.5"/>
    <path d="M 110.147657 169.176 
L 110.147657 167.808 
L 110.147657 165.12 
L 110.147657 162.432 
L 110.147657 159.744 
L 110.147657 157.056 
L 110.147657 154.368 
L 110.147657 151.68 
L 110.147657 148.992 
L 110.147657 146.304 
L 110.147657 143.616 
L 110.147657 140.928 
L 110.147657 138.24 
L 110.147657 135.552 
L 110.147657 132.864 
L 110.147657 130.176 
L 110.147657 127.488 
L 110.147657 124.8 
L 110.147657 122.112 
L 110.147657 119.424 
L 110.147657 116.736 
L 110.147657 114.048 
L 110.147657 111.36 
L 110.147657 108.672 
L 110.147657 105.984 
L 110.147657 103.296 
L 110.147657 100.608 
L 110.147657 97.92 
L 110.147657 95.232 
L 110.147657 92.544 
L 110.147657 89.856 
L 110.147657 87.168 
L 110.147657 84.48 
L 110.147657 81.792 
L 110.147657 79.104 
L 110.147657 76.416 
L 110.147657 73.728 
L 110.147657 71.04 
L 110.147657 68.352 
L 110.147657 65.664 
L 110.147657 62.976 
L 110.147657 60.288 
L 110.147657 57.6 
L 110.147657 54.912 
L 110.147657 52.224 
L 110.147657 49.536 
L 110.147657 46.848 
L 110.147657 44.16 
L 110.147657 41.472 
" clip-path="url(#p310e544b63)" style="fill: none; stroke: #000000; stroke-width: 0.5"/>
   </g>
   <g id="PathCollection_11">
    <path d="M 98.923886 307.584 
L 98.923886 304.896 
L 98.923886 302.208 
L 98.923886 299.52 
L 98.923886 296.832 
L 98.923886 294.144 
L 98.923886 291.456 
L 98.923886 288.768 
L 98.923886 286.08 
L 98.923886 283.392 
L 98.923886 280.704 
L 98.923886 278.016 
L 98.923886 275.328 
L 98.923886 272.64 
L 98.923886 269.952 
L 98.923886 267.264 
L 98.923886 264.576 
L 98.923886 261.888 
L 98.923886 259.2 
L 98.923886 256.512 
L 98.923886 253.824 
L 98.923886 251.136 
L 98.923886 248.448 
L 98.923886 245.76 
L 98.923886 243.072 
L 98.923886 240.384 
L 98.923886 237.696 
L 98.923886 235.008 
L 98.923886 232.32 
L 98.923886 229.632 
L 98.923886 226.944 
L 98.923886 224.256 
L 98.923886 221.568 
L 98.923886 218.88 
L 98.923886 216.192 
L 98.923886 213.504 
L 98.923886 210.816 
L 98.923886 208.128 
L 98.923886 205.44 
L 98.923886 202.752 
L 98.923886 200.064 
L 98.923886 197.376 
L 98.923886 194.688 
L 98.923886 192 
L 98.923886 189.312 
L 98.923886 186.624 
L 98.923886 183.936 
L 98.923886 181.248 
L 98.923886 178.56 
L 98.923886 175.872 
L 98.923886 173.184 
L 98.923886 170.496 
L 98.923886 167.808 
L 98.923886 165.12 
L 98.923886 162.432 
L 98.923886 159.744 
L 98.923886 157.056 
L 98.923886 154.368 
L 98.923886 151.68 
L 98.923886 148.992 
L 98.923886 146.304 
L 98.923886 143.616 
L 98.923886 140.928 
L 98.923886 138.24 
L 98.923886 135.552 
L 98.923886 132.864 
L 98.923886 130.176 
L 98.923886 127.488 
L 98.923886 124.8 
L 98.923886 122.112 
L 98.923886 119.424 
L 98.923886 116.736 
L 98.923886 115.368 
" clip-path="url(#p310e544b63)" style="fill: none; stroke: #000000; stroke-width: 0.5"/>
    <path d="M 98.923886 85.848 
L 98.923886 84.48 
L 98.923886 81.792 
L 98.923886 79.104 
L 98.923886 76.416 
L 98.923886 73.728 
L 98.923886 71.04 
L 98.923886 68.352 
L 98.923886 65.664 
L 98.923886 62.976 
L 98.923886 60.288 
L 98.923886 57.6 
L 98.923886 54.912 
L 98.923886 52.224 
L 98.923886 49.536 
L 98.923886 46.848 
L 98.923886 44.16 
L 98.923886 41.472 
" clip-path="url(#p310e544b63)" style="fill: none; stroke: #000000; stroke-width: 0.5"/>
   </g>
   <g id="PathCollection_12">
    <path d="M 87.700114 307.584 
L 87.700114 304.896 
L 87.700114 302.208 
L 87.700114 299.52 
L 87.700114 296.832 
L 87.700114 294.144 
L 87.700114 291.456 
L 87.700114 288.768 
L 87.700114 286.08 
L 87.700114 283.392 
L 87.700114 282.024 
" clip-path="url(#p310e544b63)" style="fill: none; stroke: #000000; stroke-width: 0.5"/>
    <path d="M 87.700114 252.504 
L 87.700114 251.136 
L 87.700114 248.448 
L 87.700114 245.76 
L 87.700114 243.072 
L 87.700114 240.384 
L 87.700114 237.696 
L 87.700114 235.008 
L 87.700114 232.32 
L 87.700114 229.632 
L 87.700114 226.944 
L 87.700114 224.256 
L 87.700114 221.568 
L 87.700114 218.88 
L 87.700114 216.192 
L 87.700114 213.504 
L 87.700114 210.816 
L 87.700114 208.128 
L 87.700114 205.44 
L 87.700114 202.752 
L 87.700114 200.064 
L 87.700114 197.376 
L 87.700114 194.688 
L 87.700114 192 
L 87.700114 189.312 
L 87.700114 186.624 
L 87.700114 183.936 
L 87.700114 181.248 
L 87.700114 178.56 
L 87.700114 175.872 
L 87.700114 173.184 
L 87.700114 170.496 
L 87.700114 167.808 
L 87.700114 165.12 
L 87.700114 162.432 
L 87.700114 159.744 
L 87.700114 157.056 
L 87.700114 154.368 
L 87.700114 151.68 
L 87.700114 148.992 
L 87.700114 146.304 
L 87.700114 143.616 
L 87.700114 140.928 
L 87.700114 138.24 
L 87.700114 135.552 
L 87.700114 132.864 
L 87.700114 130.176 
L 87.700114 127.488 
L 87.700114 124.8 
L 87.700114 122.112 
L 87.700114 119.424 
L 87.700114 116.736 
L 87.700114 114.048 
L 87.700114 111.36 
L 87.700114 108.672 
L 87.700114 105.984 
L 87.700114 103.296 
L 87.700114 100.608 
L 87.700114 97.92 
L 87.700114 95.232 
L 87.700114 92.544 
L 87.700114 89.856 
L 87.700114 87.168 
L 87.700114 84.48 
L 87.700114 81.792 
L 87.700114 79.104 
L 87.700114 76.416 
L 87.700114 73.728 
L 87.700114 71.04 
L 87.700114 68.352 
L 87.700114 65.664 
L 87.700114 62.976 
L 87.700114 60.288 
L 87.700114 57.6 
L 87.700114 54.912 
L 87.700114 52.224 
L 87.700114 49.536 
L 87.700114 46.848 
L 87.700114 44.16 
L 87.700114 41.472 
" clip-path="url(#p310e544b63)" style="fill: none; stroke: #000000; stroke-width: 0.5"/>
   </g>
   <g id="PathCollection_13">
    <path d="M 76.476343 307.584 
L 76.476343 304.896 
L 76.476343 302.208 
L 76.476343 299.52 
L 76.476343 296.832 
L 76.476343 294.144 
L 76.476343 291.456 
L 76.476343 288.768 
L 76.476343 286.08 
L 76.476343 283.392 
L 76.476343 280.704 
L 76.476343 278.016 
L 76.476343 275.328 
L 76.476343 272.64 
L 76.476343 269.952 
L 76.476343 267.264 
L 76.476343 264.576 
L 76.476343 261.888 
L 76.476343 259.2 
L 76.476343 256.512 
L 76.476343 253.824 
L 76.476343 251.136 
L 76.476343 248.448 
L 76.476343 245.76 
L 76.476343 243.072 
L 76.476343 240.384 
L 76.476343 237.696 
L 76.476343 235.008 
L 76.476343 232.32 
L 76.476343 229.632 
L 76.476343 226.944 
L 76.476343 224.256 
L 76.476343 221.568 
L 76.476343 218.88 
L 76.476343 216.192 
L 76.476343 213.504 
L 76.476343 210.816 
L 76.476343 208.128 
L 76.476343 205.44 
L 76.476343 202.752 
L 76.476343 200.064 
L 76.476343 198.696 
" clip-path="url(#p310e544b63)" style="fill: none; stroke: #000000; stroke-width: 0.5"/>
    <path d="M 76.476343 169.176 
L 76.476343 167.808 
L 76.476343 165.12 
L 76.476343 162.432 
L 76.476343 159.744 
L 76.476343 157.056 
L 76.476343 154.368 
L 76.476343 151.68 
L 76.476343 148.992 
L 76.476343 146.304 
L 76.476343 143.616 
L 76.476343 140.928 
L 76.476343 138.24 
L 76.476343 135.552 
L 76.476343 132.864 
L 76.476343 130.176 
L 76.476343 127.488 
L 76.476343 124.8 
L 76.476343 122.112 
L 76.476343 119.424 
L 76.476343 116.736 
L 76.476343 114.048 
L 76.476343 111.36 
L 76.476343 108.672 
L 76.476343 105.984 
L 76.476343 103.296 
L 76.476343 100.608 
L 76.476343 97.92 
L 76.476343 95.232 
L 76.476343 92.544 
L 76.476343 89.856 
L 76.476343 87.168 
L 76.476343 84.48 
L 76.476343 81.792 
L 76.476343 79.104 
L 76.476343 76.416 
L 76.476343 73.728 
L 76.476343 71.04 
L 76.476343 68.352 
L 76.476343 65.664 
L 76.476343 62.976 
L 76.476343 60.288 
L 76.476343 57.6 
L 76.476343 54.912 
L 76.476343 52.224 
L 76.476343 49.536 
L 76.476343 46.848 
L 76.476343 44.16 
L 76.476343 41.472 
" clip-path="url(#p310e544b63)" style="fill: none; stroke: #000000; stroke-width: 0.5"/>
   </g>
   <g id="PathCollection_14">
    <path d="M 65.252571 307.584 
L 65.252571 304.896 
L 65.252571 302.208 
L 65.252571 299.52 
L 65.252571 296.832 
L 65.252571 294.144 
L 65.252571 291.456 
L 65.252571 288.768 
L 65.252571 286.08 
L 65.252571 283.392 
L 65.252571 280.704 
L 65.252571 278.016 
L 65.252571 275.328 
L 65.252571 272.64 
L 65.252571 269.952 
L 65.252571 267.264 
L 65.252571 264.576 
L 65.252571 261.888 
L 65.252571 259.2 
L 65.252571 256.512 
L 65.252571 253.824 
L 65.252571 251.136 
L 65.252571 248.448 
L 65.252571 245.76 
L 65.252571 243.072 
L 65.252571 240.384 
L 65.252571 237.696 
L 65.252571 235.008 
L 65.252571 232.32 
L 65.252571 229.632 
L 65.252571 226.944 
L 65.252571 224.256 
L 65.252571 221.568 
L 65.252571 218.88 
L 65.252571 216.192 
L 65.252571 213.504 
L 65.252571 210.816 
L 65.252571 208.128 
L 65.252571 205.44 
L 65.252571 202.752 
L 65.252571 200.064 
L 65.252571 197.376 
L 65.252571 194.688 
L 65.252571 192 
L 65.252571 189.312 
L 65.252571 186.624 
L 65.252571 183.936 
L 65.252571 181.248 
L 65.252571 178.56 
L 65.252571 175.872 
L 65.252571 173.184 
L 65.252571 170.496 
L 65.252571 167.808 
L 65.252571 165.12 
L 65.252571 162.432 
L 65.252571 159.744 
L 65.252571 157.056 
L 65.252571 154.368 
L 65.252571 151.68 
L 65.252571 148.992 
L 65.252571 146.304 
L 65.252571 143.616 
L 65.252571 140.928 
L 65.252571 138.24 
L 65.252571 135.552 
L 65.252571 132.864 
L 65.252571 130.176 
L 65.252571 127.488 
L 65.252571 124.8 
L 65.252571 122.112 
L 65.252571 119.424 
L 65.252571 116.736 
L 65.252571 115.368 
" clip-path="url(#p310e544b63)" style="fill: none; stroke: #000000; stroke-width: 0.5"/>
    <path d="M 65.252571 85.848 
L 65.252571 84.48 
L 65.252571 81.792 
L 65.252571 79.104 
L 65.252571 76.416 
L 65.252571 73.728 
L 65.252571 71.04 
L 65.252571 68.352 
L 65.252571 65.664 
L 65.252571 62.976 
L 65.252571 60.288 
L 65.252571 57.6 
L 65.252571 54.912 
L 65.252571 52.224 
L 65.252571 49.536 
L 65.252571 46.848 
L 65.252571 44.16 
L 65.252571 41.472 
" clip-path="url(#p310e544b63)" style="fill: none; stroke: #000000; stroke-width: 0.5"/>
   </g>
   <g id="PathCollection_15"/>
   <g id="LineCollection_1">
    <path d="M 57.6 307.584 
L 57.6 294.2784 
" clip-path="url(#p310e544b63)" style="fill: none; stroke: #000000; stroke-width: 1.5"/>
    <path d="M 57.6 307.584 
L 57.6 294.2784 
" clip-path="url(#p310e544b63)" style="fill: none; stroke: #000000; stroke-width: 1.5"/>
    <path d="M 129.024 307.584 
L 129.024 294.2784 
" clip-path="url(#p310e544b63)" style="fill: none; stroke: #000000; stroke-width: 1.5"/>
    <path d="M 129.024 307.584 
L 129.024 294.2784 
" clip-path="url(#p310e544b63)" style="fill: none; stroke: #000000; stroke-width: 1.5"/>
    <path d="M 200.448 307.584 
L 200.448 294.2784 
" clip-path="url(#p310e544b63)" style="fill: none; stroke: #000000; stroke-width: 1.5"/>
    <path d="M 271.872 307.584 
L 271.872 294.2784 
" clip-path="url(#p310e544b63)" style="fill: none; stroke: #000000; stroke-width: 1.5"/>
    <path d="M 271.872 307.584 
L 271.872 294.2784 
" clip-path="url(#p310e544b63)" style="fill: none; stroke: #000000; stroke-width: 1.5"/>
    <path d="M 271.872 307.584 
L 271.872 294.2784 
" clip-path="url(#p310e544b63)" style="fill: none; stroke: #000000; stroke-width: 1.5"/>
    <path d="M 349.00992 307.584 
L 349.00992 294.2784 
" clip-path="url(#p310e544b63)" style="fill: none; stroke: #000000; stroke-width: 1.5"/>
   </g>
   <g id="LineCollection_2">
    <path clip-path="url(#p310e544b63)" style="fill: none; stroke: #000000; stroke-width: 1.5"/>
    <path clip-path="url(#p310e544b63)" style="fill: none; stroke: #000000; stroke-width: 1.5"/>
    <path clip-path="url(#p310e544b63)" style="fill: none; stroke: #000000; stroke-width: 1.5"/>
    <path clip-path="url(#p310e544b63)" style="fill: none; stroke: #000000; stroke-width: 1.5"/>
    <path clip-path="url(#p310e544b63)" style="fill: none; stroke: #000000; stroke-width: 1.5"/>
    <path clip-path="url(#p310e544b63)" style="fill: none; stroke: #000000; stroke-width: 1.5"/>
    <path clip-path="url(#p310e544b63)" style="fill: none; stroke: #000000; stroke-width: 1.5"/>
    <path clip-path="url(#p310e544b63)" style="fill: none; stroke: #000000; stroke-width: 1.5"/>
    <path clip-path="url(#p310e544b63)" style="fill: none; stroke: #000000; stroke-width: 1.5"/>
   </g>
   <g id="patch_3">
    <path d="M 57.6 307.584 
L 57.6 41.472 
" style="fill: none; stroke: #000000; stroke-width: 0.8; stroke-linejoin: miter; stroke-linecap: square"/>
   </g>
   <g id="patch_4">
    <path d="M 414.72 307.584 
L 414.72 41.472 
" style="fill: none; stroke: #000000; stroke-width: 0.8; stroke-linejoin: miter; stroke-linecap: square"/>
   </g>
   <g id="patch_5">
    <path d="M 57.6 307.584 
L 414.72 307.584 
" style="fill: none; stroke: #000000; stroke-width: 0.8; stroke-linejoin: miter; stroke-linecap: square"/>
   </g>
   <g id="patch_6">
    <path d="M 57.6 41.472 
L 414.72 41.472 
" style="fill: none; stroke: #000000; stroke-width: 0.8; stroke-linejoin: miter; stroke-linecap: square"/>
   </g>
   <g id="text_18">
    <!-- 2D-partial dependency plot between PL and LE -->
    <g transform="translate(95.01375 35.472) scale(0.12 -0.12)">
     <defs>
      <path id="DejaVuSans-44" d="M 1259 4147 
L 1259 519 
L 2022 519 
Q 2988 519 3436 956 
Q 3884 1394 3884 2338 
Q 3884 3275 3436 3711 
Q 2988 4147 2022 4147 
L 1259 4147 
z
M 628 4666 
L 1925 4666 
Q 3281 4666 3915 4102 
Q 4550 3538 4550 2338 
Q 4550 1131 3912 565 
Q 3275 0 1925 0 
L 628 0 
L 628 4666 
z
" transform="scale(0.015625)"/>
      <path id="DejaVuSans-2d" d="M 313 2009 
L 1997 2009 
L 1997 1497 
L 313 1497 
L 313 2009 
z
" transform="scale(0.015625)"/>
      <path id="DejaVuSans-6c" d="M 603 4863 
L 1178 4863 
L 1178 0 
L 603 0 
L 603 4863 
z
" transform="scale(0.015625)"/>
      <path id="DejaVuSans-64" d="M 2906 2969 
L 2906 4863 
L 3481 4863 
L 3481 0 
L 2906 0 
L 2906 525 
Q 2725 213 2448 61 
Q 2172 -91 1784 -91 
Q 1150 -91 751 415 
Q 353 922 353 1747 
Q 353 2572 751 3078 
Q 1150 3584 1784 3584 
Q 2172 3584 2448 3432 
Q 2725 3281 2906 2969 
z
M 947 1747 
Q 947 1113 1208 752 
Q 1469 391 1925 391 
Q 2381 391 2643 752 
Q 2906 1113 2906 1747 
Q 2906 2381 2643 2742 
Q 2381 3103 1925 3103 
Q 1469 3103 1208 2742 
Q 947 2381 947 1747 
z
" transform="scale(0.015625)"/>
      <path id="DejaVuSans-62" d="M 3116 1747 
Q 3116 2381 2855 2742 
Q 2594 3103 2138 3103 
Q 1681 3103 1420 2742 
Q 1159 2381 1159 1747 
Q 1159 1113 1420 752 
Q 1681 391 2138 391 
Q 2594 391 2855 752 
Q 3116 1113 3116 1747 
z
M 1159 2969 
Q 1341 3281 1617 3432 
Q 1894 3584 2278 3584 
Q 2916 3584 3314 3078 
Q 3713 2572 3713 1747 
Q 3713 922 3314 415 
Q 2916 -91 2278 -91 
Q 1894 -91 1617 61 
Q 1341 213 1159 525 
L 1159 0 
L 581 0 
L 581 4863 
L 1159 4863 
L 1159 2969 
z
" transform="scale(0.015625)"/>
      <path id="DejaVuSans-77" d="M 269 3500 
L 844 3500 
L 1563 769 
L 2278 3500 
L 2956 3500 
L 3675 769 
L 4391 3500 
L 4966 3500 
L 4050 0 
L 3372 0 
L 2619 2869 
L 1863 0 
L 1184 0 
L 269 3500 
z
" transform="scale(0.015625)"/>
     </defs>
     <use xlink:href="#DejaVuSans-32"/>
     <use xlink:href="#DejaVuSans-44" x="63.623047"/>
     <use xlink:href="#DejaVuSans-2d" x="140.625"/>
     <use xlink:href="#DejaVuSans-70" x="176.708984"/>
     <use xlink:href="#DejaVuSans-61" x="240.185547"/>
     <use xlink:href="#DejaVuSans-72" x="301.464844"/>
     <use xlink:href="#DejaVuSans-74" x="342.578125"/>
     <use xlink:href="#DejaVuSans-69" x="381.787109"/>
     <use xlink:href="#DejaVuSans-61" x="409.570312"/>
     <use xlink:href="#DejaVuSans-6c" x="470.849609"/>
     <use xlink:href="#DejaVuSans-20" x="498.632812"/>
     <use xlink:href="#DejaVuSans-64" x="530.419922"/>
     <use xlink:href="#DejaVuSans-65" x="593.896484"/>
     <use xlink:href="#DejaVuSans-70" x="655.419922"/>
     <use xlink:href="#DejaVuSans-65" x="718.896484"/>
     <use xlink:href="#DejaVuSans-6e" x="780.419922"/>
     <use xlink:href="#DejaVuSans-64" x="843.798828"/>
     <use xlink:href="#DejaVuSans-65" x="907.275391"/>
     <use xlink:href="#DejaVuSans-6e" x="968.798828"/>
     <use xlink:href="#DejaVuSans-63" x="1032.177734"/>
     <use xlink:href="#DejaVuSans-79" x="1087.158203"/>
     <use xlink:href="#DejaVuSans-20" x="1146.337891"/>
     <use xlink:href="#DejaVuSans-70" x="1178.125"/>
     <use xlink:href="#DejaVuSans-6c" x="1241.601562"/>
     <use xlink:href="#DejaVuSans-6f" x="1269.384766"/>
     <use xlink:href="#DejaVuSans-74" x="1330.566406"/>
     <use xlink:href="#DejaVuSans-20" x="1369.775391"/>
     <use xlink:href="#DejaVuSans-62" x="1401.5625"/>
     <use xlink:href="#DejaVuSans-65" x="1465.039062"/>
     <use xlink:href="#DejaVuSans-74" x="1526.5625"/>
     <use xlink:href="#DejaVuSans-77" x="1565.771484"/>
     <use xlink:href="#DejaVuSans-65" x="1647.558594"/>
     <use xlink:href="#DejaVuSans-65" x="1709.082031"/>
     <use xlink:href="#DejaVuSans-6e" x="1770.605469"/>
     <use xlink:href="#DejaVuSans-20" x="1833.984375"/>
     <use xlink:href="#DejaVuSans-50" x="1865.771484"/>
     <use xlink:href="#DejaVuSans-4c" x="1926.074219"/>
     <use xlink:href="#DejaVuSans-20" x="1981.787109"/>
     <use xlink:href="#DejaVuSans-61" x="2013.574219"/>
     <use xlink:href="#DejaVuSans-6e" x="2074.853516"/>
     <use xlink:href="#DejaVuSans-64" x="2138.232422"/>
     <use xlink:href="#DejaVuSans-20" x="2201.708984"/>
     <use xlink:href="#DejaVuSans-4c" x="2233.496094"/>
     <use xlink:href="#DejaVuSans-45" x="2289.208984"/>
    </g>
   </g>
   <g id="text_19">
    <g clip-path="url(#p310e544b63)">
     <!-- 1.50 -->
     <g transform="translate(118.612054 256.131188) rotate(-270) scale(0.1 -0.1)">
      <use xlink:href="#DejaVuSans-31"/>
      <use xlink:href="#DejaVuSans-2e" x="63.623047"/>
      <use xlink:href="#DejaVuSans-35" x="95.410156"/>
      <use xlink:href="#DejaVuSans-30" x="159.033203"/>
     </g>
    </g>
   </g>
   <g id="text_20">
    <g clip-path="url(#p310e544b63)">
     <!-- 1.50 -->
     <g transform="translate(107.388282 172.803187) rotate(-270) scale(0.1 -0.1)">
      <use xlink:href="#DejaVuSans-31"/>
      <use xlink:href="#DejaVuSans-2e" x="63.623047"/>
      <use xlink:href="#DejaVuSans-35" x="95.410156"/>
      <use xlink:href="#DejaVuSans-30" x="159.033203"/>
     </g>
    </g>
   </g>
   <g id="text_21">
    <g clip-path="url(#p310e544b63)">
     <!-- 1.50 -->
     <g transform="translate(96.164511 89.475188) rotate(-270) scale(0.1 -0.1)">
      <use xlink:href="#DejaVuSans-31"/>
      <use xlink:href="#DejaVuSans-2e" x="63.623047"/>
      <use xlink:href="#DejaVuSans-35" x="95.410156"/>
      <use xlink:href="#DejaVuSans-30" x="159.033203"/>
     </g>
    </g>
   </g>
   <g id="text_22">
    <g clip-path="url(#p310e544b63)">
     <!-- 1.51 -->
     <g transform="translate(84.940739 256.131188) rotate(-270) scale(0.1 -0.1)">
      <use xlink:href="#DejaVuSans-31"/>
      <use xlink:href="#DejaVuSans-2e" x="63.623047"/>
      <use xlink:href="#DejaVuSans-35" x="95.410156"/>
      <use xlink:href="#DejaVuSans-31" x="159.033203"/>
     </g>
    </g>
   </g>
   <g id="text_23">
    <g clip-path="url(#p310e544b63)">
     <!-- 1.51 -->
     <g transform="translate(73.716968 172.803187) rotate(-270) scale(0.1 -0.1)">
      <use xlink:href="#DejaVuSans-31"/>
      <use xlink:href="#DejaVuSans-2e" x="63.623047"/>
      <use xlink:href="#DejaVuSans-35" x="95.410156"/>
      <use xlink:href="#DejaVuSans-31" x="159.033203"/>
     </g>
    </g>
   </g>
   <g id="text_24">
    <g clip-path="url(#p310e544b63)">
     <!-- 1.51 -->
     <g transform="translate(62.493196 89.475188) rotate(-270) scale(0.1 -0.1)">
      <use xlink:href="#DejaVuSans-31"/>
      <use xlink:href="#DejaVuSans-2e" x="63.623047"/>
      <use xlink:href="#DejaVuSans-35" x="95.410156"/>
      <use xlink:href="#DejaVuSans-31" x="159.033203"/>
     </g>
    </g>
   </g>
  </g>
 </g>
 <defs>
  <clipPath id="p310e544b63">
   <rect x="57.6" y="41.472" width="357.12" height="266.112"/>
  </clipPath>
 </defs>
</svg>
