<?xml version="1.0" encoding="utf-8" standalone="no"?>
<!DOCTYPE svg PUBLIC "-//W3C//DTD SVG 1.1//EN"
  "http://www.w3.org/Graphics/SVG/1.1/DTD/svg11.dtd">
<svg xmlns:xlink="http://www.w3.org/1999/xlink" width="460.8pt" height="345.6pt" viewBox="0 0 460.8 345.6" xmlns="http://www.w3.org/2000/svg" version="1.1">
 <metadata>
  <rdf:RDF xmlns:dc="http://purl.org/dc/elements/1.1/" xmlns:cc="http://creativecommons.org/ns#" xmlns:rdf="http://www.w3.org/1999/02/22-rdf-syntax-ns#">
   <cc:Work>
    <dc:type rdf:resource="http://purl.org/dc/dcmitype/StillImage"/>
    <dc:date>2024-02-15T12:27:04.245481</dc:date>
    <dc:format>image/svg+xml</dc:format>
    <dc:creator>
     <cc:Agent>
      <dc:title>Matplotlib v3.7.0, https://matplotlib.org/</dc:title>
     </cc:Agent>
    </dc:creator>
   </cc:Work>
  </rdf:RDF>
 </metadata>
 <defs>
  <style type="text/css">*{stroke-linejoin: round; stroke-linecap: butt}</style>
 </defs>
 <g id="figure_1">
  <g id="patch_1">
   <path d="M 0 345.6 
L 460.8 345.6 
L 460.8 0 
L 0 0 
L 0 345.6 
z
" style="fill: none"/>
  </g>
  <g id="axes_1"/>
  <g id="axes_2">
   <g id="patch_2">
    <path d="M 57.6 307.584 
L 414.72 307.584 
L 414.72 41.472 
L 57.6 41.472 
L 57.6 307.584 
z
" style="fill: none"/>
   </g>
   <g id="PathCollection_1">
    <path d="M 97.28 224.464559 
L 100.887273 224.464559 
L 104.494545 224.464559 
L 108.101818 224.464559 
L 111.709091 224.464559 
L 115.316364 224.464559 
L 118.923636 224.464559 
L 122.530909 224.464559 
L 126.138182 224.464559 
L 129.745455 224.464559 
L 133.352727 224.464559 
L 136.96 224.464559 
L 140.567273 224.464559 
L 144.174545 224.464559 
L 147.781818 224.464559 
L 151.389091 224.464559 
L 154.996364 224.464559 
L 158.603636 224.464559 
L 162.210909 224.464559 
L 165.818182 224.464559 
L 169.425455 224.464559 
L 173.032727 224.464559 
L 176.64 224.464559 
L 180.247273 224.464559 
L 183.854545 224.464559 
L 187.461818 224.464559 
L 191.069091 224.464559 
L 194.676364 224.464559 
L 198.283636 224.464559 
L 201.890909 224.464559 
L 205.498182 224.464559 
L 209.105455 224.464559 
L 212.712727 224.464559 
L 216.32 224.464559 
L 219.927273 224.464559 
L 223.534545 224.464559 
L 227.141818 224.464559 
L 230.749091 224.464559 
L 234.356364 224.464559 
L 237.963636 224.464559 
L 241.570909 224.464559 
L 245.178182 224.464559 
L 248.785455 224.464559 
L 252.392727 224.464559 
L 256 224.464559 
L 259.607273 224.464559 
L 263.214545 224.464559 
L 266.821818 224.464559 
L 270.429091 224.464559 
L 274.036364 224.464559 
L 277.643636 224.464559 
L 281.250909 224.464559 
L 284.858182 224.464559 
L 288.465455 224.464559 
L 292.072727 224.464559 
L 295.68 224.464559 
L 299.287273 224.464559 
L 302.894545 224.464559 
L 306.501818 224.464559 
L 310.109091 224.464559 
L 313.716364 224.464559 
L 317.323636 224.464559 
L 320.930909 224.464559 
L 324.538182 224.464559 
L 328.145455 224.464559 
L 331.752727 224.464559 
L 335.36 224.464559 
L 338.967273 224.464559 
L 342.574545 224.464559 
L 346.181818 224.464559 
L 349.789091 224.464559 
L 353.396364 224.464559 
L 357.003636 224.464559 
L 360.610909 224.464559 
L 364.218182 224.464559 
L 367.825455 224.464559 
L 371.432727 224.464559 
L 375.04 224.464559 
L 378.647273 224.464559 
L 382.254545 224.464559 
L 385.861818 224.464559 
L 389.469091 224.464559 
L 393.076364 224.464559 
L 396.683636 224.464559 
L 400.290909 224.464559 
L 403.898182 224.464559 
L 407.505455 224.464559 
L 411.112727 224.464559 
L 414.72 224.464559 
L 414.72 224.256 
L 414.72 221.568 
L 414.72 218.88 
L 414.72 216.192 
L 414.72 213.504 
L 414.72 210.816 
L 414.72 208.128 
L 414.72 205.44 
L 414.72 202.752 
L 414.72 200.064 
L 414.72 197.376 
L 414.72 194.688 
L 414.72 192 
L 414.72 189.312 
L 414.72 186.624 
L 414.72 183.936 
L 414.72 181.248 
L 414.72 178.56 
L 414.72 175.872 
L 414.72 173.184 
L 414.72 170.496 
L 414.72 167.808 
L 414.72 165.12 
L 414.72 162.432 
L 414.72 159.744 
L 414.72 157.056 
L 414.72 154.368 
L 414.72 151.68 
L 414.72 148.992 
L 414.72 146.304 
L 414.72 143.616 
L 414.72 140.928 
L 414.72 138.24 
L 414.72 135.552 
L 414.72 132.864 
L 414.72 130.176 
L 414.72 127.488 
L 414.72 124.8 
L 414.72 122.112 
L 414.72 119.424 
L 414.72 116.736 
L 414.72 114.048 
L 414.72 111.36 
L 414.72 108.672 
L 414.72 105.984 
L 414.72 103.296 
L 414.72 100.608 
L 414.72 97.92 
L 414.72 95.232 
L 414.72 92.544 
L 414.72 89.856 
L 414.72 87.168 
L 414.72 84.48 
L 414.72 81.792 
L 414.72 79.104 
L 414.72 76.416 
L 414.72 73.728 
L 414.72 71.04 
L 414.72 68.352 
L 414.72 65.664 
L 414.72 62.976 
L 414.72 60.288 
L 414.72 57.6 
L 414.72 54.912 
L 414.72 52.224 
L 414.72 49.536 
L 414.72 46.848 
L 414.72 44.16 
L 414.72 41.472 
L 411.112727 41.472 
L 407.505455 41.472 
L 403.898182 41.472 
L 400.290909 41.472 
L 396.683636 41.472 
L 393.076364 41.472 
L 389.469091 41.472 
L 385.861818 41.472 
L 382.254545 41.472 
L 378.647273 41.472 
L 375.04 41.472 
L 371.432727 41.472 
L 367.825455 41.472 
L 364.218182 41.472 
L 360.610909 41.472 
L 357.003636 41.472 
L 353.396364 41.472 
L 349.789091 41.472 
L 346.181818 41.472 
L 342.574545 41.472 
L 338.967273 41.472 
L 335.36 41.472 
L 331.752727 41.472 
L 328.145455 41.472 
L 324.538182 41.472 
L 320.930909 41.472 
L 317.323636 41.472 
L 313.716364 41.472 
L 310.109091 41.472 
L 306.501818 41.472 
L 302.894545 41.472 
L 299.287273 41.472 
L 295.68 41.472 
L 292.072727 41.472 
L 288.465455 41.472 
L 284.858182 41.472 
L 281.250909 41.472 
L 277.643636 41.472 
L 274.036364 41.472 
L 270.429091 41.472 
L 266.821818 41.472 
L 263.214545 41.472 
L 259.607273 41.472 
L 256 41.472 
L 252.392727 41.472 
L 248.785455 41.472 
L 245.178182 41.472 
L 241.570909 41.472 
L 237.963636 41.472 
L 234.356364 41.472 
L 230.749091 41.472 
L 227.141818 41.472 
L 223.534545 41.472 
L 219.927273 41.472 
L 216.32 41.472 
L 212.712727 41.472 
L 209.105455 41.472 
L 205.498182 41.472 
L 201.890909 41.472 
L 198.283636 41.472 
L 194.676364 41.472 
L 191.069091 41.472 
L 187.461818 41.472 
L 183.854545 41.472 
L 180.247273 41.472 
L 176.64 41.472 
L 173.032727 41.472 
L 169.425455 41.472 
L 165.818182 41.472 
L 162.210909 41.472 
L 158.603636 41.472 
L 154.996364 41.472 
L 151.389091 41.472 
L 147.781818 41.472 
L 144.174545 41.472 
L 140.567273 41.472 
L 136.96 41.472 
L 133.352727 41.472 
L 129.745455 41.472 
L 126.138182 41.472 
L 122.530909 41.472 
L 118.923636 41.472 
L 115.316364 41.472 
L 111.709091 41.472 
L 108.101818 41.472 
L 104.494545 41.472 
L 100.887273 41.472 
L 97.28 41.472 
L 94.717746 41.472 
L 94.717746 44.16 
L 94.717746 46.848 
L 94.717746 49.536 
L 94.717746 52.224 
L 94.717746 54.912 
L 94.717746 57.6 
L 94.717746 60.288 
L 94.717746 62.976 
L 94.717746 65.664 
L 94.717746 68.352 
L 94.717746 71.04 
L 94.717746 73.728 
L 94.717746 76.416 
L 94.717746 79.104 
L 94.717746 81.792 
L 94.717746 84.48 
L 94.717746 87.168 
L 94.717746 89.856 
L 94.717746 92.544 
L 94.717746 95.232 
L 94.717746 97.92 
L 94.717746 100.608 
L 94.717746 103.296 
L 94.717746 105.984 
L 94.717746 108.672 
L 94.717746 111.36 
L 94.717746 114.048 
L 94.717746 116.736 
L 94.717746 119.424 
L 94.717746 122.112 
L 94.717746 124.8 
L 94.717746 127.488 
L 94.717746 130.176 
L 94.717746 132.864 
L 94.717746 135.552 
L 94.717746 138.24 
L 94.717746 140.928 
L 94.717746 143.616 
L 94.717746 146.304 
L 94.717746 148.992 
L 94.717746 151.68 
L 94.717746 154.368 
L 94.717746 157.056 
L 94.717746 159.744 
L 94.717746 162.432 
L 94.717746 165.12 
L 94.717746 167.808 
L 94.717746 170.496 
L 94.717746 173.184 
L 94.717746 175.872 
L 94.717746 178.56 
L 94.717746 181.248 
L 94.717746 183.936 
L 94.717746 186.624 
L 94.717746 189.312 
L 94.717746 192 
L 94.717746 194.688 
L 94.717746 197.376 
L 94.717746 200.064 
L 93.672727 200.887008 
L 92.684904 202.752 
L 92.684904 205.44 
L 92.684904 208.128 
L 92.684904 210.816 
L 92.684904 213.504 
L 92.684904 216.192 
L 92.684904 218.88 
L 92.684904 221.568 
L 93.672727 222.766163 
L 96.61728 224.256 
z
" clip-path="url(#p695d265134)" style="fill: #481b6d; fill-opacity: 0.75"/>
   </g>
   <g id="PathCollection_2">
    <path d="M 97.28 307.584 
L 100.887273 307.584 
L 104.494545 307.584 
L 108.101818 307.584 
L 111.709091 307.584 
L 115.316364 307.584 
L 118.923636 307.584 
L 122.530909 307.584 
L 126.138182 307.584 
L 129.745455 307.584 
L 133.352727 307.584 
L 136.96 307.584 
L 140.567273 307.584 
L 144.174545 307.584 
L 147.781818 307.584 
L 151.389091 307.584 
L 154.996364 307.584 
L 158.603636 307.584 
L 162.210909 307.584 
L 165.818182 307.584 
L 169.425455 307.584 
L 173.032727 307.584 
L 176.64 307.584 
L 180.247273 307.584 
L 183.854545 307.584 
L 187.461818 307.584 
L 191.069091 307.584 
L 194.676364 307.584 
L 198.283636 307.584 
L 201.890909 307.584 
L 205.498182 307.584 
L 209.105455 307.584 
L 212.712727 307.584 
L 216.32 307.584 
L 219.927273 307.584 
L 223.534545 307.584 
L 227.141818 307.584 
L 230.749091 307.584 
L 234.356364 307.584 
L 237.963636 307.584 
L 241.570909 307.584 
L 245.178182 307.584 
L 248.785455 307.584 
L 252.392727 307.584 
L 256 307.584 
L 259.607273 307.584 
L 263.214545 307.584 
L 266.821818 307.584 
L 270.429091 307.584 
L 274.036364 307.584 
L 277.643636 307.584 
L 281.250909 307.584 
L 284.858182 307.584 
L 288.465455 307.584 
L 292.072727 307.584 
L 295.68 307.584 
L 299.287273 307.584 
L 302.894545 307.584 
L 306.501818 307.584 
L 310.109091 307.584 
L 313.716364 307.584 
L 317.323636 307.584 
L 320.930909 307.584 
L 324.538182 307.584 
L 328.145455 307.584 
L 331.752727 307.584 
L 335.36 307.584 
L 338.967273 307.584 
L 342.574545 307.584 
L 346.181818 307.584 
L 349.789091 307.584 
L 353.396364 307.584 
L 357.003636 307.584 
L 360.610909 307.584 
L 364.218182 307.584 
L 367.825455 307.584 
L 371.432727 307.584 
L 375.04 307.584 
L 378.647273 307.584 
L 382.254545 307.584 
L 385.861818 307.584 
L 389.469091 307.584 
L 393.076364 307.584 
L 396.683636 307.584 
L 400.290909 307.584 
L 403.898182 307.584 
L 407.505455 307.584 
L 411.112727 307.584 
L 414.72 307.584 
L 414.72 304.896 
L 414.72 302.208 
L 414.72 299.52 
L 414.72 296.832 
L 414.72 294.144 
L 414.72 291.456 
L 414.72 288.768 
L 414.72 286.08 
L 414.72 283.392 
L 414.72 280.704 
L 414.72 278.016 
L 414.72 275.328 
L 414.72 272.64 
L 414.72 269.952 
L 414.72 267.264 
L 414.72 264.576 
L 414.72 261.888 
L 414.72 259.2 
L 414.72 256.512 
L 414.72 253.824 
L 414.72 251.136 
L 414.72 248.448 
L 414.72 245.76 
L 414.72 243.072 
L 414.72 240.384 
L 414.72 237.696 
L 414.72 235.008 
L 414.72 232.32 
L 414.72 229.632 
L 414.72 226.944 
L 414.72 224.464559 
L 411.112727 224.464559 
L 407.505455 224.464559 
L 403.898182 224.464559 
L 400.290909 224.464559 
L 396.683636 224.464559 
L 393.076364 224.464559 
L 389.469091 224.464559 
L 385.861818 224.464559 
L 382.254545 224.464559 
L 378.647273 224.464559 
L 375.04 224.464559 
L 371.432727 224.464559 
L 367.825455 224.464559 
L 364.218182 224.464559 
L 360.610909 224.464559 
L 357.003636 224.464559 
L 353.396364 224.464559 
L 349.789091 224.464559 
L 346.181818 224.464559 
L 342.574545 224.464559 
L 338.967273 224.464559 
L 335.36 224.464559 
L 331.752727 224.464559 
L 328.145455 224.464559 
L 324.538182 224.464559 
L 320.930909 224.464559 
L 317.323636 224.464559 
L 313.716364 224.464559 
L 310.109091 224.464559 
L 306.501818 224.464559 
L 302.894545 224.464559 
L 299.287273 224.464559 
L 295.68 224.464559 
L 292.072727 224.464559 
L 288.465455 224.464559 
L 284.858182 224.464559 
L 281.250909 224.464559 
L 277.643636 224.464559 
L 274.036364 224.464559 
L 270.429091 224.464559 
L 266.821818 224.464559 
L 263.214545 224.464559 
L 259.607273 224.464559 
L 256 224.464559 
L 252.392727 224.464559 
L 248.785455 224.464559 
L 245.178182 224.464559 
L 241.570909 224.464559 
L 237.963636 224.464559 
L 234.356364 224.464559 
L 230.749091 224.464559 
L 227.141818 224.464559 
L 223.534545 224.464559 
L 219.927273 224.464559 
L 216.32 224.464559 
L 212.712727 224.464559 
L 209.105455 224.464559 
L 205.498182 224.464559 
L 201.890909 224.464559 
L 198.283636 224.464559 
L 194.676364 224.464559 
L 191.069091 224.464559 
L 187.461818 224.464559 
L 183.854545 224.464559 
L 180.247273 224.464559 
L 176.64 224.464559 
L 173.032727 224.464559 
L 169.425455 224.464559 
L 165.818182 224.464559 
L 162.210909 224.464559 
L 158.603636 224.464559 
L 154.996364 224.464559 
L 151.389091 224.464559 
L 147.781818 224.464559 
L 144.174545 224.464559 
L 140.567273 224.464559 
L 136.96 224.464559 
L 133.352727 224.464559 
L 129.745455 224.464559 
L 126.138182 224.464559 
L 122.530909 224.464559 
L 118.923636 224.464559 
L 115.316364 224.464559 
L 111.709091 224.464559 
L 108.101818 224.464559 
L 104.494545 224.464559 
L 100.887273 224.464559 
L 97.28 224.464559 
L 96.61728 224.256 
L 93.672727 222.766163 
L 92.684904 221.568 
L 92.684904 218.88 
L 92.684904 216.192 
L 92.684904 213.504 
L 92.684904 210.816 
L 92.684904 208.128 
L 92.684904 205.44 
L 92.684904 202.752 
L 93.672727 200.887008 
L 94.717746 200.064 
L 94.717746 197.376 
L 94.717746 194.688 
L 94.717746 192 
L 94.717746 189.312 
L 94.717746 186.624 
L 94.717746 183.936 
L 94.717746 181.248 
L 94.717746 178.56 
L 94.717746 175.872 
L 94.717746 173.184 
L 94.717746 170.496 
L 94.717746 167.808 
L 94.717746 165.12 
L 94.717746 162.432 
L 94.717746 159.744 
L 94.717746 157.056 
L 94.717746 154.368 
L 94.717746 151.68 
L 94.717746 148.992 
L 94.717746 146.304 
L 94.717746 143.616 
L 94.717746 140.928 
L 94.717746 138.24 
L 94.717746 135.552 
L 94.717746 132.864 
L 94.717746 130.176 
L 94.717746 127.488 
L 94.717746 124.8 
L 94.717746 122.112 
L 94.717746 119.424 
L 94.717746 116.736 
L 94.717746 114.048 
L 94.717746 111.36 
L 94.717746 108.672 
L 94.717746 105.984 
L 94.717746 103.296 
L 94.717746 100.608 
L 94.717746 97.92 
L 94.717746 95.232 
L 94.717746 92.544 
L 94.717746 89.856 
L 94.717746 87.168 
L 94.717746 84.48 
L 94.717746 81.792 
L 94.717746 79.104 
L 94.717746 76.416 
L 94.717746 73.728 
L 94.717746 71.04 
L 94.717746 68.352 
L 94.717746 65.664 
L 94.717746 62.976 
L 94.717746 60.288 
L 94.717746 57.6 
L 94.717746 54.912 
L 94.717746 52.224 
L 94.717746 49.536 
L 94.717746 46.848 
L 94.717746 44.16 
L 94.717746 41.472 
L 93.672727 41.472 
L 90.452888 41.472 
L 90.452888 44.16 
L 90.452888 46.848 
L 90.452888 49.536 
L 90.452888 52.224 
L 90.452888 54.912 
L 90.452888 57.6 
L 90.452888 60.288 
L 90.452888 62.976 
L 90.452888 65.664 
L 90.452888 68.352 
L 90.452888 71.04 
L 90.452888 73.728 
L 90.452888 76.416 
L 90.452888 79.104 
L 90.452888 81.792 
L 90.452888 84.48 
L 90.452888 87.168 
L 90.452888 89.856 
L 90.452888 92.544 
L 90.452888 95.232 
L 90.452888 97.92 
L 90.452888 100.608 
L 90.452888 103.296 
L 90.452888 105.984 
L 90.452888 108.672 
L 90.452888 111.36 
L 90.452888 114.048 
L 90.452888 116.736 
L 90.452888 119.424 
L 90.452888 122.112 
L 90.452888 124.8 
L 90.452888 127.488 
L 90.452888 130.176 
L 90.452888 132.864 
L 90.452888 135.552 
L 90.452888 138.24 
L 90.452888 140.928 
L 90.452888 143.616 
L 90.452888 146.304 
L 90.452888 148.992 
L 90.452888 151.68 
L 90.452888 154.368 
L 90.452888 157.056 
L 90.452888 159.744 
L 90.452888 162.432 
L 90.452888 165.12 
L 90.452888 167.808 
L 90.452888 170.496 
L 90.452888 173.184 
L 90.452888 175.872 
L 90.452888 178.56 
L 90.452888 181.248 
L 90.452888 183.936 
L 90.452888 186.624 
L 90.452888 189.312 
L 90.452888 192 
L 90.452888 194.688 
L 90.452888 197.376 
L 90.452888 200.064 
L 90.065455 200.795468 
L 86.458182 200.795468 
L 85.906275 202.752 
L 85.906275 205.44 
L 85.906275 208.128 
L 85.906275 210.816 
L 85.906275 213.504 
L 85.906275 216.192 
L 85.906275 218.88 
L 85.906275 221.568 
L 86.458182 222.824973 
L 90.065455 222.824973 
L 91.245261 224.256 
L 93.672727 226.08734 
L 96.394867 226.944 
L 96.394867 229.632 
L 96.394867 232.32 
L 96.394867 235.008 
L 96.394867 237.696 
L 96.394867 240.384 
L 96.394867 243.072 
L 96.394867 245.76 
L 96.394867 248.448 
L 96.394867 251.136 
L 96.394867 253.824 
L 96.394867 256.512 
L 96.394867 259.2 
L 96.394867 261.888 
L 96.394867 264.576 
L 96.394867 267.264 
L 96.394867 269.952 
L 96.394867 272.64 
L 96.394867 275.328 
L 96.394867 278.016 
L 96.394867 280.704 
L 96.394867 283.392 
L 96.394867 286.08 
L 96.394867 288.768 
L 96.394867 291.456 
L 96.394867 294.144 
L 96.394867 296.832 
L 96.394867 299.52 
L 96.394867 302.208 
L 96.394867 304.896 
L 96.394867 307.584 
z
" clip-path="url(#p695d265134)" style="fill: #3f4788; fill-opacity: 0.75"/>
   </g>
   <g id="PathCollection_3">
    <path d="M 93.672727 307.584 
L 96.394867 307.584 
L 96.394867 304.896 
L 96.394867 302.208 
L 96.394867 299.52 
L 96.394867 296.832 
L 96.394867 294.144 
L 96.394867 291.456 
L 96.394867 288.768 
L 96.394867 286.08 
L 96.394867 283.392 
L 96.394867 280.704 
L 96.394867 278.016 
L 96.394867 275.328 
L 96.394867 272.64 
L 96.394867 269.952 
L 96.394867 267.264 
L 96.394867 264.576 
L 96.394867 261.888 
L 96.394867 259.2 
L 96.394867 256.512 
L 96.394867 253.824 
L 96.394867 251.136 
L 96.394867 248.448 
L 96.394867 245.76 
L 96.394867 243.072 
L 96.394867 240.384 
L 96.394867 237.696 
L 96.394867 235.008 
L 96.394867 232.32 
L 96.394867 229.632 
L 96.394867 226.944 
L 93.672727 226.08734 
L 91.245261 224.256 
L 90.065455 222.824973 
L 86.458182 222.824973 
L 85.906275 221.568 
L 85.906275 218.88 
L 85.906275 216.192 
L 85.906275 213.504 
L 85.906275 210.816 
L 85.906275 208.128 
L 85.906275 205.44 
L 85.906275 202.752 
L 86.458182 200.795468 
L 90.065455 200.795468 
L 90.452888 200.064 
L 90.452888 197.376 
L 90.452888 194.688 
L 90.452888 192 
L 90.452888 189.312 
L 90.452888 186.624 
L 90.452888 183.936 
L 90.452888 181.248 
L 90.452888 178.56 
L 90.452888 175.872 
L 90.452888 173.184 
L 90.452888 170.496 
L 90.452888 167.808 
L 90.452888 165.12 
L 90.452888 162.432 
L 90.452888 159.744 
L 90.452888 157.056 
L 90.452888 154.368 
L 90.452888 151.68 
L 90.452888 148.992 
L 90.452888 146.304 
L 90.452888 143.616 
L 90.452888 140.928 
L 90.452888 138.24 
L 90.452888 135.552 
L 90.452888 132.864 
L 90.452888 130.176 
L 90.452888 127.488 
L 90.452888 124.8 
L 90.452888 122.112 
L 90.452888 119.424 
L 90.452888 116.736 
L 90.452888 114.048 
L 90.452888 111.36 
L 90.452888 108.672 
L 90.452888 105.984 
L 90.452888 103.296 
L 90.452888 100.608 
L 90.452888 97.92 
L 90.452888 95.232 
L 90.452888 92.544 
L 90.452888 89.856 
L 90.452888 87.168 
L 90.452888 84.48 
L 90.452888 81.792 
L 90.452888 79.104 
L 90.452888 76.416 
L 90.452888 73.728 
L 90.452888 71.04 
L 90.452888 68.352 
L 90.452888 65.664 
L 90.452888 62.976 
L 90.452888 60.288 
L 90.452888 57.6 
L 90.452888 54.912 
L 90.452888 52.224 
L 90.452888 49.536 
L 90.452888 46.848 
L 90.452888 44.16 
L 90.452888 41.472 
L 90.065455 41.472 
L 86.458182 41.472 
L 84.71757 41.472 
L 84.71757 44.16 
L 84.71757 46.848 
L 84.71757 49.536 
L 84.71757 52.224 
L 84.71757 54.912 
L 84.71757 57.6 
L 84.71757 60.288 
L 84.71757 62.976 
L 84.71757 65.664 
L 84.71757 68.352 
L 84.71757 71.04 
L 84.71757 73.728 
L 84.71757 76.416 
L 84.71757 79.104 
L 84.71757 81.792 
L 84.71757 84.48 
L 84.71757 87.168 
L 84.71757 89.856 
L 84.71757 92.544 
L 84.71757 95.232 
L 84.71757 97.92 
L 84.71757 100.608 
L 84.71757 103.296 
L 84.71757 105.984 
L 84.71757 108.672 
L 84.71757 111.36 
L 84.71757 114.048 
L 84.71757 116.736 
L 84.71757 119.424 
L 84.71757 122.112 
L 84.71757 124.8 
L 84.71757 127.488 
L 84.71757 130.176 
L 84.71757 132.864 
L 84.71757 135.552 
L 84.71757 138.24 
L 84.71757 140.928 
L 84.71757 143.616 
L 84.71757 146.304 
L 84.71757 148.992 
L 84.71757 151.68 
L 84.71757 154.368 
L 84.71757 157.056 
L 84.71757 159.744 
L 84.71757 162.432 
L 84.71757 165.12 
L 84.71757 167.808 
L 84.71757 170.496 
L 84.71757 173.184 
L 84.71757 175.872 
L 84.71757 178.56 
L 84.71757 181.248 
L 84.71757 183.936 
L 84.71757 186.624 
L 84.71757 189.312 
L 84.71757 192 
L 84.71757 194.688 
L 84.71757 197.376 
L 84.71757 200.064 
L 83.959327 202.752 
L 83.959327 205.44 
L 83.959327 208.128 
L 83.959327 210.816 
L 83.959327 213.504 
L 83.959327 216.192 
L 83.959327 218.88 
L 83.959327 221.568 
L 85.139564 224.256 
L 86.458182 226.123919 
L 90.065455 226.123919 
L 91.152483 226.944 
L 91.152483 229.632 
L 91.152483 232.32 
L 91.152483 235.008 
L 91.152483 237.696 
L 91.152483 240.384 
L 91.152483 243.072 
L 91.152483 245.76 
L 91.152483 248.448 
L 91.152483 251.136 
L 91.152483 253.824 
L 91.152483 256.512 
L 91.152483 259.2 
L 91.152483 261.888 
L 91.152483 264.576 
L 91.152483 267.264 
L 91.152483 269.952 
L 91.152483 272.64 
L 91.152483 275.328 
L 91.152483 278.016 
L 91.152483 280.704 
L 91.152483 283.392 
L 91.152483 286.08 
L 91.152483 288.768 
L 91.152483 291.456 
L 91.152483 294.144 
L 91.152483 296.832 
L 91.152483 299.52 
L 91.152483 302.208 
L 91.152483 304.896 
L 91.152483 307.584 
z
" clip-path="url(#p695d265134)" style="fill: #2e6e8e; fill-opacity: 0.75"/>
   </g>
   <g id="PathCollection_4">
    <path d="M 86.458182 307.584 
L 90.065455 307.584 
L 91.152483 307.584 
L 91.152483 304.896 
L 91.152483 302.208 
L 91.152483 299.52 
L 91.152483 296.832 
L 91.152483 294.144 
L 91.152483 291.456 
L 91.152483 288.768 
L 91.152483 286.08 
L 91.152483 283.392 
L 91.152483 280.704 
L 91.152483 278.016 
L 91.152483 275.328 
L 91.152483 272.64 
L 91.152483 269.952 
L 91.152483 267.264 
L 91.152483 264.576 
L 91.152483 261.888 
L 91.152483 259.2 
L 91.152483 256.512 
L 91.152483 253.824 
L 91.152483 251.136 
L 91.152483 248.448 
L 91.152483 245.76 
L 91.152483 243.072 
L 91.152483 240.384 
L 91.152483 237.696 
L 91.152483 235.008 
L 91.152483 232.32 
L 91.152483 229.632 
L 91.152483 226.944 
L 90.065455 226.123919 
L 86.458182 226.123919 
L 85.139564 224.256 
L 83.959327 221.568 
L 83.959327 218.88 
L 83.959327 216.192 
L 83.959327 213.504 
L 83.959327 210.816 
L 83.959327 208.128 
L 83.959327 205.44 
L 83.959327 202.752 
L 84.71757 200.064 
L 84.71757 197.376 
L 84.71757 194.688 
L 84.71757 192 
L 84.71757 189.312 
L 84.71757 186.624 
L 84.71757 183.936 
L 84.71757 181.248 
L 84.71757 178.56 
L 84.71757 175.872 
L 84.71757 173.184 
L 84.71757 170.496 
L 84.71757 167.808 
L 84.71757 165.12 
L 84.71757 162.432 
L 84.71757 159.744 
L 84.71757 157.056 
L 84.71757 154.368 
L 84.71757 151.68 
L 84.71757 148.992 
L 84.71757 146.304 
L 84.71757 143.616 
L 84.71757 140.928 
L 84.71757 138.24 
L 84.71757 135.552 
L 84.71757 132.864 
L 84.71757 130.176 
L 84.71757 127.488 
L 84.71757 124.8 
L 84.71757 122.112 
L 84.71757 119.424 
L 84.71757 116.736 
L 84.71757 114.048 
L 84.71757 111.36 
L 84.71757 108.672 
L 84.71757 105.984 
L 84.71757 103.296 
L 84.71757 100.608 
L 84.71757 97.92 
L 84.71757 95.232 
L 84.71757 92.544 
L 84.71757 89.856 
L 84.71757 87.168 
L 84.71757 84.48 
L 84.71757 81.792 
L 84.71757 79.104 
L 84.71757 76.416 
L 84.71757 73.728 
L 84.71757 71.04 
L 84.71757 68.352 
L 84.71757 65.664 
L 84.71757 62.976 
L 84.71757 60.288 
L 84.71757 57.6 
L 84.71757 54.912 
L 84.71757 52.224 
L 84.71757 49.536 
L 84.71757 46.848 
L 84.71757 44.16 
L 84.71757 41.472 
L 82.850909 41.472 
L 82.694538 41.472 
L 82.694538 44.16 
L 82.694538 46.848 
L 82.694538 49.536 
L 82.694538 52.224 
L 82.694538 54.912 
L 82.694538 57.6 
L 82.694538 60.288 
L 82.694538 62.976 
L 82.694538 65.664 
L 82.694538 68.352 
L 82.694538 71.04 
L 82.694538 73.728 
L 82.694538 76.416 
L 82.694538 79.104 
L 82.694538 81.792 
L 82.694538 84.48 
L 82.694538 87.168 
L 82.694538 89.856 
L 82.694538 92.544 
L 82.694538 95.232 
L 82.694538 97.92 
L 82.694538 100.608 
L 82.694538 103.296 
L 82.694538 105.984 
L 82.694538 108.672 
L 82.694538 111.36 
L 82.694538 114.048 
L 82.694538 116.736 
L 82.694538 119.424 
L 82.694538 122.112 
L 82.694538 124.8 
L 82.694538 127.488 
L 82.694538 130.176 
L 82.694538 132.864 
L 82.694538 135.552 
L 82.694538 138.24 
L 82.694538 140.928 
L 82.694538 143.616 
L 82.694538 146.304 
L 82.694538 148.992 
L 82.694538 151.68 
L 82.694538 154.368 
L 82.694538 157.056 
L 82.694538 159.744 
L 82.694538 162.432 
L 82.694538 165.12 
L 82.694538 167.808 
L 82.694538 170.496 
L 82.694538 173.184 
L 82.694538 175.872 
L 82.694538 178.56 
L 82.694538 181.248 
L 82.694538 183.936 
L 82.694538 186.624 
L 82.694538 189.312 
L 82.694538 192 
L 82.694538 194.688 
L 82.694538 197.376 
L 82.694538 200.064 
L 81.217752 202.752 
L 81.217752 205.44 
L 81.217752 208.128 
L 81.217752 210.816 
L 81.217752 213.504 
L 81.217752 216.192 
L 81.217752 218.88 
L 81.217752 221.568 
L 82.850909 223.47776 
L 83.192616 224.256 
L 85.090153 226.944 
L 85.090153 229.632 
L 85.090153 232.32 
L 85.090153 235.008 
L 85.090153 237.696 
L 85.090153 240.384 
L 85.090153 243.072 
L 85.090153 245.76 
L 85.090153 248.448 
L 85.090153 251.136 
L 85.090153 253.824 
L 85.090153 256.512 
L 85.090153 259.2 
L 85.090153 261.888 
L 85.090153 264.576 
L 85.090153 267.264 
L 85.090153 269.952 
L 85.090153 272.64 
L 85.090153 275.328 
L 85.090153 278.016 
L 85.090153 280.704 
L 85.090153 283.392 
L 85.090153 286.08 
L 85.090153 288.768 
L 85.090153 291.456 
L 85.090153 294.144 
L 85.090153 296.832 
L 85.090153 299.52 
L 85.090153 302.208 
L 85.090153 304.896 
L 85.090153 307.584 
z
" clip-path="url(#p695d265134)" style="fill: #21918c; fill-opacity: 0.75"/>
   </g>
   <g id="PathCollection_5">
    <path d="M 85.090153 304.896 
L 85.090153 302.208 
L 85.090153 299.52 
L 85.090153 296.832 
L 85.090153 294.144 
L 85.090153 291.456 
L 85.090153 288.768 
L 85.090153 286.08 
L 85.090153 283.392 
L 85.090153 280.704 
L 85.090153 278.016 
L 85.090153 275.328 
L 85.090153 272.64 
L 85.090153 269.952 
L 85.090153 267.264 
L 85.090153 264.576 
L 85.090153 261.888 
L 85.090153 259.2 
L 85.090153 256.512 
L 85.090153 253.824 
L 85.090153 251.136 
L 85.090153 248.448 
L 85.090153 245.76 
L 85.090153 243.072 
L 85.090153 240.384 
L 85.090153 237.696 
L 85.090153 235.008 
L 85.090153 232.32 
L 85.090153 229.632 
L 85.090153 226.944 
L 83.192616 224.256 
L 82.850909 223.47776 
L 81.217752 221.568 
L 81.217752 218.88 
L 81.217752 216.192 
L 81.217752 213.504 
L 81.217752 210.816 
L 81.217752 208.128 
L 81.217752 205.44 
L 81.217752 202.752 
L 82.694538 200.064 
L 82.694538 197.376 
L 82.694538 194.688 
L 82.694538 192 
L 82.694538 189.312 
L 82.694538 186.624 
L 82.694538 183.936 
L 82.694538 181.248 
L 82.694538 178.56 
L 82.694538 175.872 
L 82.694538 173.184 
L 82.694538 170.496 
L 82.694538 167.808 
L 82.694538 165.12 
L 82.694538 162.432 
L 82.694538 159.744 
L 82.694538 157.056 
L 82.694538 154.368 
L 82.694538 151.68 
L 82.694538 148.992 
L 82.694538 146.304 
L 82.694538 143.616 
L 82.694538 140.928 
L 82.694538 138.24 
L 82.694538 135.552 
L 82.694538 132.864 
L 82.694538 130.176 
L 82.694538 127.488 
L 82.694538 124.8 
L 82.694538 122.112 
L 82.694538 119.424 
L 82.694538 116.736 
L 82.694538 114.048 
L 82.694538 111.36 
L 82.694538 108.672 
L 82.694538 105.984 
L 82.694538 103.296 
L 82.694538 100.608 
L 82.694538 97.92 
L 82.694538 95.232 
L 82.694538 92.544 
L 82.694538 89.856 
L 82.694538 87.168 
L 82.694538 84.48 
L 82.694538 81.792 
L 82.694538 79.104 
L 82.694538 76.416 
L 82.694538 73.728 
L 82.694538 71.04 
L 82.694538 68.352 
L 82.694538 65.664 
L 82.694538 62.976 
L 82.694538 60.288 
L 82.694538 57.6 
L 82.694538 54.912 
L 82.694538 52.224 
L 82.694538 49.536 
L 82.694538 46.848 
L 82.694538 44.16 
L 82.694538 41.472 
L 79.243636 41.472 
L 75.636364 41.472 
L 72.029091 41.472 
L 68.421818 41.472 
L 67.862807 41.472 
L 67.862807 44.16 
L 67.862807 46.848 
L 67.862807 49.536 
L 67.862807 52.224 
L 67.862807 54.912 
L 67.862807 57.6 
L 67.862807 60.288 
L 67.862807 62.976 
L 67.862807 65.664 
L 67.862807 68.352 
L 67.862807 71.04 
L 67.862807 73.728 
L 67.862807 76.416 
L 67.862807 79.104 
L 67.862807 81.792 
L 67.862807 84.48 
L 67.862807 87.168 
L 67.862807 89.856 
L 67.862807 92.544 
L 67.862807 95.232 
L 67.862807 97.92 
L 67.862807 100.608 
L 67.862807 103.296 
L 67.862807 105.984 
L 67.862807 108.672 
L 67.862807 111.36 
L 67.862807 114.048 
L 67.862807 116.736 
L 67.862807 119.424 
L 67.862807 122.112 
L 67.862807 124.8 
L 67.862807 127.488 
L 67.862807 130.176 
L 67.862807 132.864 
L 67.862807 135.552 
L 67.862807 138.24 
L 67.862807 140.928 
L 67.862807 143.616 
L 67.862807 146.304 
L 67.862807 148.992 
L 67.862807 151.68 
L 67.862807 154.368 
L 67.862807 157.056 
L 67.862807 159.744 
L 67.862807 162.432 
L 67.862807 165.12 
L 67.862807 167.808 
L 67.862807 170.496 
L 67.862807 173.184 
L 67.862807 175.872 
L 67.862807 178.56 
L 67.862807 181.248 
L 67.862807 183.936 
L 67.862807 186.624 
L 67.862807 189.312 
L 67.862807 192 
L 67.862807 194.688 
L 67.862807 197.376 
L 67.862807 200.064 
L 65.442273 202.752 
L 65.442273 205.44 
L 65.442273 208.128 
L 65.442273 210.816 
L 65.442273 213.504 
L 65.442273 216.192 
L 65.442273 218.88 
L 65.442273 221.568 
L 68.421818 223.693725 
L 72.029091 223.693725 
L 75.636364 223.693725 
L 79.243636 223.693725 
L 79.724474 224.256 
L 82.850909 226.529941 
L 83.143205 226.944 
L 83.143205 229.632 
L 83.143205 232.32 
L 83.143205 235.008 
L 83.143205 237.696 
L 83.143205 240.384 
L 83.143205 243.072 
L 83.143205 245.76 
L 83.143205 248.448 
L 83.143205 251.136 
L 83.143205 253.824 
L 83.143205 256.512 
L 83.143205 259.2 
L 83.143205 261.888 
L 83.143205 264.576 
L 83.143205 267.264 
L 83.143205 269.952 
L 83.143205 272.64 
L 83.143205 275.328 
L 83.143205 278.016 
L 83.143205 280.704 
L 83.143205 283.392 
L 83.143205 286.08 
L 83.143205 288.768 
L 83.143205 291.456 
L 83.143205 294.144 
L 83.143205 296.832 
L 83.143205 299.52 
L 83.143205 302.208 
L 83.143205 304.896 
L 83.143205 307.584 
L 85.090153 307.584 
z
" clip-path="url(#p695d265134)" style="fill: #2db27d; fill-opacity: 0.75"/>
   </g>
   <g id="PathCollection_6">
    <path d="M 82.850909 307.584 
L 83.143205 307.584 
L 83.143205 304.896 
L 83.143205 302.208 
L 83.143205 299.52 
L 83.143205 296.832 
L 83.143205 294.144 
L 83.143205 291.456 
L 83.143205 288.768 
L 83.143205 286.08 
L 83.143205 283.392 
L 83.143205 280.704 
L 83.143205 278.016 
L 83.143205 275.328 
L 83.143205 272.64 
L 83.143205 269.952 
L 83.143205 267.264 
L 83.143205 264.576 
L 83.143205 261.888 
L 83.143205 259.2 
L 83.143205 256.512 
L 83.143205 253.824 
L 83.143205 251.136 
L 83.143205 248.448 
L 83.143205 245.76 
L 83.143205 243.072 
L 83.143205 240.384 
L 83.143205 237.696 
L 83.143205 235.008 
L 83.143205 232.32 
L 83.143205 229.632 
L 83.143205 226.944 
L 82.850909 226.529941 
L 79.724474 224.256 
L 79.243636 223.693725 
L 75.636364 223.693725 
L 72.029091 223.693725 
L 68.421818 223.693725 
L 65.442273 221.568 
L 65.442273 218.88 
L 65.442273 216.192 
L 65.442273 213.504 
L 65.442273 210.816 
L 65.442273 208.128 
L 65.442273 205.44 
L 65.442273 202.752 
L 67.862807 200.064 
L 67.862807 197.376 
L 67.862807 194.688 
L 67.862807 192 
L 67.862807 189.312 
L 67.862807 186.624 
L 67.862807 183.936 
L 67.862807 181.248 
L 67.862807 178.56 
L 67.862807 175.872 
L 67.862807 173.184 
L 67.862807 170.496 
L 67.862807 167.808 
L 67.862807 165.12 
L 67.862807 162.432 
L 67.862807 159.744 
L 67.862807 157.056 
L 67.862807 154.368 
L 67.862807 151.68 
L 67.862807 148.992 
L 67.862807 146.304 
L 67.862807 143.616 
L 67.862807 140.928 
L 67.862807 138.24 
L 67.862807 135.552 
L 67.862807 132.864 
L 67.862807 130.176 
L 67.862807 127.488 
L 67.862807 124.8 
L 67.862807 122.112 
L 67.862807 119.424 
L 67.862807 116.736 
L 67.862807 114.048 
L 67.862807 111.36 
L 67.862807 108.672 
L 67.862807 105.984 
L 67.862807 103.296 
L 67.862807 100.608 
L 67.862807 97.92 
L 67.862807 95.232 
L 67.862807 92.544 
L 67.862807 89.856 
L 67.862807 87.168 
L 67.862807 84.48 
L 67.862807 81.792 
L 67.862807 79.104 
L 67.862807 76.416 
L 67.862807 73.728 
L 67.862807 71.04 
L 67.862807 68.352 
L 67.862807 65.664 
L 67.862807 62.976 
L 67.862807 60.288 
L 67.862807 57.6 
L 67.862807 54.912 
L 67.862807 52.224 
L 67.862807 49.536 
L 67.862807 46.848 
L 67.862807 44.16 
L 67.862807 41.472 
L 64.814545 41.472 
L 61.207273 41.472 
L 57.6 41.472 
L 57.6 44.16 
L 57.6 46.848 
L 57.6 49.536 
L 57.6 52.224 
L 57.6 54.912 
L 57.6 57.6 
L 57.6 60.288 
L 57.6 62.976 
L 57.6 65.664 
L 57.6 68.352 
L 57.6 71.04 
L 57.6 73.728 
L 57.6 76.416 
L 57.6 79.104 
L 57.6 81.792 
L 57.6 84.48 
L 57.6 87.168 
L 57.6 89.856 
L 57.6 92.544 
L 57.6 95.232 
L 57.6 97.92 
L 57.6 100.608 
L 57.6 103.296 
L 57.6 105.984 
L 57.6 108.672 
L 57.6 111.36 
L 57.6 114.048 
L 57.6 116.736 
L 57.6 119.424 
L 57.6 122.112 
L 57.6 124.8 
L 57.6 127.488 
L 57.6 130.176 
L 57.6 132.864 
L 57.6 135.552 
L 57.6 138.24 
L 57.6 140.928 
L 57.6 143.616 
L 57.6 146.304 
L 57.6 148.992 
L 57.6 151.68 
L 57.6 154.368 
L 57.6 157.056 
L 57.6 159.744 
L 57.6 162.432 
L 57.6 165.12 
L 57.6 167.808 
L 57.6 170.496 
L 57.6 173.184 
L 57.6 175.872 
L 57.6 178.56 
L 57.6 181.248 
L 57.6 183.936 
L 57.6 186.624 
L 57.6 189.312 
L 57.6 192 
L 57.6 194.688 
L 57.6 197.376 
L 57.6 200.064 
L 57.6 202.752 
L 57.6 205.44 
L 57.6 208.128 
L 57.6 210.816 
L 57.6 213.504 
L 57.6 216.192 
L 57.6 218.88 
L 57.6 221.568 
L 57.6 224.256 
L 57.6 225.06355 
L 61.207273 225.06355 
L 64.814545 225.06355 
L 68.421818 226.664268 
L 72.029091 226.664268 
L 75.636364 226.664268 
L 79.243636 226.664268 
L 79.628239 226.944 
L 79.628239 229.632 
L 79.628239 232.32 
L 79.628239 235.008 
L 79.628239 237.696 
L 79.628239 240.384 
L 79.628239 243.072 
L 79.628239 245.76 
L 79.628239 248.448 
L 79.628239 251.136 
L 79.628239 253.824 
L 79.628239 256.512 
L 79.628239 259.2 
L 79.628239 261.888 
L 79.628239 264.576 
L 79.628239 267.264 
L 79.628239 269.952 
L 79.628239 272.64 
L 79.628239 275.328 
L 79.628239 278.016 
L 79.628239 280.704 
L 79.628239 283.392 
L 79.628239 286.08 
L 79.628239 288.768 
L 79.628239 291.456 
L 79.628239 294.144 
L 79.628239 296.832 
L 79.628239 299.52 
L 79.628239 302.208 
L 79.628239 304.896 
L 79.628239 307.584 
z
" clip-path="url(#p695d265134)" style="fill: #73d056; fill-opacity: 0.75"/>
   </g>
   <g id="PathCollection_7">
    <path d="M 61.207273 307.584 
L 64.814545 307.584 
L 68.421818 307.584 
L 72.029091 307.584 
L 75.636364 307.584 
L 79.243636 307.584 
L 79.628239 307.584 
L 79.628239 304.896 
L 79.628239 302.208 
L 79.628239 299.52 
L 79.628239 296.832 
L 79.628239 294.144 
L 79.628239 291.456 
L 79.628239 288.768 
L 79.628239 286.08 
L 79.628239 283.392 
L 79.628239 280.704 
L 79.628239 278.016 
L 79.628239 275.328 
L 79.628239 272.64 
L 79.628239 269.952 
L 79.628239 267.264 
L 79.628239 264.576 
L 79.628239 261.888 
L 79.628239 259.2 
L 79.628239 256.512 
L 79.628239 253.824 
L 79.628239 251.136 
L 79.628239 248.448 
L 79.628239 245.76 
L 79.628239 243.072 
L 79.628239 240.384 
L 79.628239 237.696 
L 79.628239 235.008 
L 79.628239 232.32 
L 79.628239 229.632 
L 79.628239 226.944 
L 79.243636 226.664268 
L 75.636364 226.664268 
L 72.029091 226.664268 
L 68.421818 226.664268 
L 64.814545 225.06355 
L 61.207273 225.06355 
L 57.6 225.06355 
L 57.6 226.944 
L 57.6 229.632 
L 57.6 232.32 
L 57.6 235.008 
L 57.6 237.696 
L 57.6 240.384 
L 57.6 243.072 
L 57.6 245.76 
L 57.6 248.448 
L 57.6 251.136 
L 57.6 253.824 
L 57.6 256.512 
L 57.6 259.2 
L 57.6 261.888 
L 57.6 264.576 
L 57.6 267.264 
L 57.6 269.952 
L 57.6 272.64 
L 57.6 275.328 
L 57.6 278.016 
L 57.6 280.704 
L 57.6 283.392 
L 57.6 286.08 
L 57.6 288.768 
L 57.6 291.456 
L 57.6 294.144 
L 57.6 296.832 
L 57.6 299.52 
L 57.6 302.208 
L 57.6 304.896 
L 57.6 307.584 
z
" clip-path="url(#p695d265134)" style="fill: #d0e11c; fill-opacity: 0.75"/>
   </g>
   <g id="matplotlib.axis_1">
    <g id="xtick_1">
     <g id="line2d_1">
      <defs>
       <path id="m1499b0c539" d="M 0 0 
L 0 3.5 
" style="stroke: #000000; stroke-width: 0.8"/>
      </defs>
      <g>
       <use xlink:href="#m1499b0c539" x="76.86603" y="307.584" style="stroke: #000000; stroke-width: 0.8"/>
      </g>
     </g>
     <g id="text_1">
      <!-- −0.5 -->
      <g transform="translate(64.724624 322.182437) scale(0.1 -0.1)">
       <defs>
        <path id="DejaVuSans-2212" d="M 678 2272 
L 4684 2272 
L 4684 1741 
L 678 1741 
L 678 2272 
z
" transform="scale(0.015625)"/>
        <path id="DejaVuSans-30" d="M 2034 4250 
Q 1547 4250 1301 3770 
Q 1056 3291 1056 2328 
Q 1056 1369 1301 889 
Q 1547 409 2034 409 
Q 2525 409 2770 889 
Q 3016 1369 3016 2328 
Q 3016 3291 2770 3770 
Q 2525 4250 2034 4250 
z
M 2034 4750 
Q 2819 4750 3233 4129 
Q 3647 3509 3647 2328 
Q 3647 1150 3233 529 
Q 2819 -91 2034 -91 
Q 1250 -91 836 529 
Q 422 1150 422 2328 
Q 422 3509 836 4129 
Q 1250 4750 2034 4750 
z
" transform="scale(0.015625)"/>
        <path id="DejaVuSans-2e" d="M 684 794 
L 1344 794 
L 1344 0 
L 684 0 
L 684 794 
z
" transform="scale(0.015625)"/>
        <path id="DejaVuSans-35" d="M 691 4666 
L 3169 4666 
L 3169 4134 
L 1269 4134 
L 1269 2991 
Q 1406 3038 1543 3061 
Q 1681 3084 1819 3084 
Q 2600 3084 3056 2656 
Q 3513 2228 3513 1497 
Q 3513 744 3044 326 
Q 2575 -91 1722 -91 
Q 1428 -91 1123 -41 
Q 819 9 494 109 
L 494 744 
Q 775 591 1075 516 
Q 1375 441 1709 441 
Q 2250 441 2565 725 
Q 2881 1009 2881 1497 
Q 2881 1984 2565 2268 
Q 2250 2553 1709 2553 
Q 1456 2553 1204 2497 
Q 953 2441 691 2322 
L 691 4666 
z
" transform="scale(0.015625)"/>
       </defs>
       <use xlink:href="#DejaVuSans-2212"/>
       <use xlink:href="#DejaVuSans-30" x="83.789062"/>
       <use xlink:href="#DejaVuSans-2e" x="147.412109"/>
       <use xlink:href="#DejaVuSans-35" x="179.199219"/>
      </g>
     </g>
    </g>
    <g id="xtick_2">
     <g id="line2d_2">
      <g>
       <use xlink:href="#m1499b0c539" x="137.238718" y="307.584" style="stroke: #000000; stroke-width: 0.8"/>
      </g>
     </g>
     <g id="text_2">
      <!-- 0.0 -->
      <g transform="translate(129.287156 322.182437) scale(0.1 -0.1)">
       <use xlink:href="#DejaVuSans-30"/>
       <use xlink:href="#DejaVuSans-2e" x="63.623047"/>
       <use xlink:href="#DejaVuSans-30" x="95.410156"/>
      </g>
     </g>
    </g>
    <g id="xtick_3">
     <g id="line2d_3">
      <g>
       <use xlink:href="#m1499b0c539" x="197.611406" y="307.584" style="stroke: #000000; stroke-width: 0.8"/>
      </g>
     </g>
     <g id="text_3">
      <!-- 0.5 -->
      <g transform="translate(189.659844 322.182437) scale(0.1 -0.1)">
       <use xlink:href="#DejaVuSans-30"/>
       <use xlink:href="#DejaVuSans-2e" x="63.623047"/>
       <use xlink:href="#DejaVuSans-35" x="95.410156"/>
      </g>
     </g>
    </g>
    <g id="xtick_4">
     <g id="line2d_4">
      <g>
       <use xlink:href="#m1499b0c539" x="257.984095" y="307.584" style="stroke: #000000; stroke-width: 0.8"/>
      </g>
     </g>
     <g id="text_4">
      <!-- 1.0 -->
      <g transform="translate(250.032532 322.182437) scale(0.1 -0.1)">
       <defs>
        <path id="DejaVuSans-31" d="M 794 531 
L 1825 531 
L 1825 4091 
L 703 3866 
L 703 4441 
L 1819 4666 
L 2450 4666 
L 2450 531 
L 3481 531 
L 3481 0 
L 794 0 
L 794 531 
z
" transform="scale(0.015625)"/>
       </defs>
       <use xlink:href="#DejaVuSans-31"/>
       <use xlink:href="#DejaVuSans-2e" x="63.623047"/>
       <use xlink:href="#DejaVuSans-30" x="95.410156"/>
      </g>
     </g>
    </g>
    <g id="xtick_5">
     <g id="line2d_5">
      <g>
       <use xlink:href="#m1499b0c539" x="318.356783" y="307.584" style="stroke: #000000; stroke-width: 0.8"/>
      </g>
     </g>
     <g id="text_5">
      <!-- 1.5 -->
      <g transform="translate(310.40522 322.182437) scale(0.1 -0.1)">
       <use xlink:href="#DejaVuSans-31"/>
       <use xlink:href="#DejaVuSans-2e" x="63.623047"/>
       <use xlink:href="#DejaVuSans-35" x="95.410156"/>
      </g>
     </g>
    </g>
    <g id="xtick_6">
     <g id="line2d_6">
      <g>
       <use xlink:href="#m1499b0c539" x="378.729471" y="307.584" style="stroke: #000000; stroke-width: 0.8"/>
      </g>
     </g>
     <g id="text_6">
      <!-- 2.0 -->
      <g transform="translate(370.777909 322.182437) scale(0.1 -0.1)">
       <defs>
        <path id="DejaVuSans-32" d="M 1228 531 
L 3431 531 
L 3431 0 
L 469 0 
L 469 531 
Q 828 903 1448 1529 
Q 2069 2156 2228 2338 
Q 2531 2678 2651 2914 
Q 2772 3150 2772 3378 
Q 2772 3750 2511 3984 
Q 2250 4219 1831 4219 
Q 1534 4219 1204 4116 
Q 875 4013 500 3803 
L 500 4441 
Q 881 4594 1212 4672 
Q 1544 4750 1819 4750 
Q 2544 4750 2975 4387 
Q 3406 4025 3406 3419 
Q 3406 3131 3298 2873 
Q 3191 2616 2906 2266 
Q 2828 2175 2409 1742 
Q 1991 1309 1228 531 
z
" transform="scale(0.015625)"/>
       </defs>
       <use xlink:href="#DejaVuSans-32"/>
       <use xlink:href="#DejaVuSans-2e" x="63.623047"/>
       <use xlink:href="#DejaVuSans-30" x="95.410156"/>
      </g>
     </g>
    </g>
    <g id="text_7">
     <!-- Sheep &amp; Goat Consumption -->
     <g transform="translate(166.750625 335.860562) scale(0.1 -0.1)">
      <defs>
       <path id="DejaVuSans-53" d="M 3425 4513 
L 3425 3897 
Q 3066 4069 2747 4153 
Q 2428 4238 2131 4238 
Q 1616 4238 1336 4038 
Q 1056 3838 1056 3469 
Q 1056 3159 1242 3001 
Q 1428 2844 1947 2747 
L 2328 2669 
Q 3034 2534 3370 2195 
Q 3706 1856 3706 1288 
Q 3706 609 3251 259 
Q 2797 -91 1919 -91 
Q 1588 -91 1214 -16 
Q 841 59 441 206 
L 441 856 
Q 825 641 1194 531 
Q 1563 422 1919 422 
Q 2459 422 2753 634 
Q 3047 847 3047 1241 
Q 3047 1584 2836 1778 
Q 2625 1972 2144 2069 
L 1759 2144 
Q 1053 2284 737 2584 
Q 422 2884 422 3419 
Q 422 4038 858 4394 
Q 1294 4750 2059 4750 
Q 2388 4750 2728 4690 
Q 3069 4631 3425 4513 
z
" transform="scale(0.015625)"/>
       <path id="DejaVuSans-68" d="M 3513 2113 
L 3513 0 
L 2938 0 
L 2938 2094 
Q 2938 2591 2744 2837 
Q 2550 3084 2163 3084 
Q 1697 3084 1428 2787 
Q 1159 2491 1159 1978 
L 1159 0 
L 581 0 
L 581 4863 
L 1159 4863 
L 1159 2956 
Q 1366 3272 1645 3428 
Q 1925 3584 2291 3584 
Q 2894 3584 3203 3211 
Q 3513 2838 3513 2113 
z
" transform="scale(0.015625)"/>
       <path id="DejaVuSans-65" d="M 3597 1894 
L 3597 1613 
L 953 1613 
Q 991 1019 1311 708 
Q 1631 397 2203 397 
Q 2534 397 2845 478 
Q 3156 559 3463 722 
L 3463 178 
Q 3153 47 2828 -22 
Q 2503 -91 2169 -91 
Q 1331 -91 842 396 
Q 353 884 353 1716 
Q 353 2575 817 3079 
Q 1281 3584 2069 3584 
Q 2775 3584 3186 3129 
Q 3597 2675 3597 1894 
z
M 3022 2063 
Q 3016 2534 2758 2815 
Q 2500 3097 2075 3097 
Q 1594 3097 1305 2825 
Q 1016 2553 972 2059 
L 3022 2063 
z
" transform="scale(0.015625)"/>
       <path id="DejaVuSans-70" d="M 1159 525 
L 1159 -1331 
L 581 -1331 
L 581 3500 
L 1159 3500 
L 1159 2969 
Q 1341 3281 1617 3432 
Q 1894 3584 2278 3584 
Q 2916 3584 3314 3078 
Q 3713 2572 3713 1747 
Q 3713 922 3314 415 
Q 2916 -91 2278 -91 
Q 1894 -91 1617 61 
Q 1341 213 1159 525 
z
M 3116 1747 
Q 3116 2381 2855 2742 
Q 2594 3103 2138 3103 
Q 1681 3103 1420 2742 
Q 1159 2381 1159 1747 
Q 1159 1113 1420 752 
Q 1681 391 2138 391 
Q 2594 391 2855 752 
Q 3116 1113 3116 1747 
z
" transform="scale(0.015625)"/>
       <path id="DejaVuSans-20" transform="scale(0.015625)"/>
       <path id="DejaVuSans-26" d="M 1556 2509 
Q 1272 2256 1139 2004 
Q 1006 1753 1006 1478 
Q 1006 1022 1337 719 
Q 1669 416 2169 416 
Q 2466 416 2725 514 
Q 2984 613 3213 813 
L 1556 2509 
z
M 1997 2859 
L 3584 1234 
Q 3769 1513 3872 1830 
Q 3975 2147 3994 2503 
L 4575 2503 
Q 4538 2091 4375 1687 
Q 4213 1284 3922 891 
L 4794 0 
L 4006 0 
L 3559 459 
Q 3234 181 2878 45 
Q 2522 -91 2113 -91 
Q 1359 -91 881 339 
Q 403 769 403 1441 
Q 403 1841 612 2192 
Q 822 2544 1241 2853 
Q 1091 3050 1012 3245 
Q 934 3441 934 3628 
Q 934 4134 1281 4442 
Q 1628 4750 2203 4750 
Q 2463 4750 2720 4694 
Q 2978 4638 3244 4525 
L 3244 3956 
Q 2972 4103 2725 4179 
Q 2478 4256 2266 4256 
Q 1938 4256 1733 4082 
Q 1528 3909 1528 3634 
Q 1528 3475 1620 3314 
Q 1713 3153 1997 2859 
z
" transform="scale(0.015625)"/>
       <path id="DejaVuSans-47" d="M 3809 666 
L 3809 1919 
L 2778 1919 
L 2778 2438 
L 4434 2438 
L 4434 434 
Q 4069 175 3628 42 
Q 3188 -91 2688 -91 
Q 1594 -91 976 548 
Q 359 1188 359 2328 
Q 359 3472 976 4111 
Q 1594 4750 2688 4750 
Q 3144 4750 3555 4637 
Q 3966 4525 4313 4306 
L 4313 3634 
Q 3963 3931 3569 4081 
Q 3175 4231 2741 4231 
Q 1884 4231 1454 3753 
Q 1025 3275 1025 2328 
Q 1025 1384 1454 906 
Q 1884 428 2741 428 
Q 3075 428 3337 486 
Q 3600 544 3809 666 
z
" transform="scale(0.015625)"/>
       <path id="DejaVuSans-6f" d="M 1959 3097 
Q 1497 3097 1228 2736 
Q 959 2375 959 1747 
Q 959 1119 1226 758 
Q 1494 397 1959 397 
Q 2419 397 2687 759 
Q 2956 1122 2956 1747 
Q 2956 2369 2687 2733 
Q 2419 3097 1959 3097 
z
M 1959 3584 
Q 2709 3584 3137 3096 
Q 3566 2609 3566 1747 
Q 3566 888 3137 398 
Q 2709 -91 1959 -91 
Q 1206 -91 779 398 
Q 353 888 353 1747 
Q 353 2609 779 3096 
Q 1206 3584 1959 3584 
z
" transform="scale(0.015625)"/>
       <path id="DejaVuSans-61" d="M 2194 1759 
Q 1497 1759 1228 1600 
Q 959 1441 959 1056 
Q 959 750 1161 570 
Q 1363 391 1709 391 
Q 2188 391 2477 730 
Q 2766 1069 2766 1631 
L 2766 1759 
L 2194 1759 
z
M 3341 1997 
L 3341 0 
L 2766 0 
L 2766 531 
Q 2569 213 2275 61 
Q 1981 -91 1556 -91 
Q 1019 -91 701 211 
Q 384 513 384 1019 
Q 384 1609 779 1909 
Q 1175 2209 1959 2209 
L 2766 2209 
L 2766 2266 
Q 2766 2663 2505 2880 
Q 2244 3097 1772 3097 
Q 1472 3097 1187 3025 
Q 903 2953 641 2809 
L 641 3341 
Q 956 3463 1253 3523 
Q 1550 3584 1831 3584 
Q 2591 3584 2966 3190 
Q 3341 2797 3341 1997 
z
" transform="scale(0.015625)"/>
       <path id="DejaVuSans-74" d="M 1172 4494 
L 1172 3500 
L 2356 3500 
L 2356 3053 
L 1172 3053 
L 1172 1153 
Q 1172 725 1289 603 
Q 1406 481 1766 481 
L 2356 481 
L 2356 0 
L 1766 0 
Q 1100 0 847 248 
Q 594 497 594 1153 
L 594 3053 
L 172 3053 
L 172 3500 
L 594 3500 
L 594 4494 
L 1172 4494 
z
" transform="scale(0.015625)"/>
       <path id="DejaVuSans-43" d="M 4122 4306 
L 4122 3641 
Q 3803 3938 3442 4084 
Q 3081 4231 2675 4231 
Q 1875 4231 1450 3742 
Q 1025 3253 1025 2328 
Q 1025 1406 1450 917 
Q 1875 428 2675 428 
Q 3081 428 3442 575 
Q 3803 722 4122 1019 
L 4122 359 
Q 3791 134 3420 21 
Q 3050 -91 2638 -91 
Q 1578 -91 968 557 
Q 359 1206 359 2328 
Q 359 3453 968 4101 
Q 1578 4750 2638 4750 
Q 3056 4750 3426 4639 
Q 3797 4528 4122 4306 
z
" transform="scale(0.015625)"/>
       <path id="DejaVuSans-6e" d="M 3513 2113 
L 3513 0 
L 2938 0 
L 2938 2094 
Q 2938 2591 2744 2837 
Q 2550 3084 2163 3084 
Q 1697 3084 1428 2787 
Q 1159 2491 1159 1978 
L 1159 0 
L 581 0 
L 581 3500 
L 1159 3500 
L 1159 2956 
Q 1366 3272 1645 3428 
Q 1925 3584 2291 3584 
Q 2894 3584 3203 3211 
Q 3513 2838 3513 2113 
z
" transform="scale(0.015625)"/>
       <path id="DejaVuSans-73" d="M 2834 3397 
L 2834 2853 
Q 2591 2978 2328 3040 
Q 2066 3103 1784 3103 
Q 1356 3103 1142 2972 
Q 928 2841 928 2578 
Q 928 2378 1081 2264 
Q 1234 2150 1697 2047 
L 1894 2003 
Q 2506 1872 2764 1633 
Q 3022 1394 3022 966 
Q 3022 478 2636 193 
Q 2250 -91 1575 -91 
Q 1294 -91 989 -36 
Q 684 19 347 128 
L 347 722 
Q 666 556 975 473 
Q 1284 391 1588 391 
Q 1994 391 2212 530 
Q 2431 669 2431 922 
Q 2431 1156 2273 1281 
Q 2116 1406 1581 1522 
L 1381 1569 
Q 847 1681 609 1914 
Q 372 2147 372 2553 
Q 372 3047 722 3315 
Q 1072 3584 1716 3584 
Q 2034 3584 2315 3537 
Q 2597 3491 2834 3397 
z
" transform="scale(0.015625)"/>
       <path id="DejaVuSans-75" d="M 544 1381 
L 544 3500 
L 1119 3500 
L 1119 1403 
Q 1119 906 1312 657 
Q 1506 409 1894 409 
Q 2359 409 2629 706 
Q 2900 1003 2900 1516 
L 2900 3500 
L 3475 3500 
L 3475 0 
L 2900 0 
L 2900 538 
Q 2691 219 2414 64 
Q 2138 -91 1772 -91 
Q 1169 -91 856 284 
Q 544 659 544 1381 
z
M 1991 3584 
L 1991 3584 
z
" transform="scale(0.015625)"/>
       <path id="DejaVuSans-6d" d="M 3328 2828 
Q 3544 3216 3844 3400 
Q 4144 3584 4550 3584 
Q 5097 3584 5394 3201 
Q 5691 2819 5691 2113 
L 5691 0 
L 5113 0 
L 5113 2094 
Q 5113 2597 4934 2840 
Q 4756 3084 4391 3084 
Q 3944 3084 3684 2787 
Q 3425 2491 3425 1978 
L 3425 0 
L 2847 0 
L 2847 2094 
Q 2847 2600 2669 2842 
Q 2491 3084 2119 3084 
Q 1678 3084 1418 2786 
Q 1159 2488 1159 1978 
L 1159 0 
L 581 0 
L 581 3500 
L 1159 3500 
L 1159 2956 
Q 1356 3278 1631 3431 
Q 1906 3584 2284 3584 
Q 2666 3584 2933 3390 
Q 3200 3197 3328 2828 
z
" transform="scale(0.015625)"/>
       <path id="DejaVuSans-69" d="M 603 3500 
L 1178 3500 
L 1178 0 
L 603 0 
L 603 3500 
z
M 603 4863 
L 1178 4863 
L 1178 4134 
L 603 4134 
L 603 4863 
z
" transform="scale(0.015625)"/>
      </defs>
      <use xlink:href="#DejaVuSans-53"/>
      <use xlink:href="#DejaVuSans-68" x="63.476562"/>
      <use xlink:href="#DejaVuSans-65" x="126.855469"/>
      <use xlink:href="#DejaVuSans-65" x="188.378906"/>
      <use xlink:href="#DejaVuSans-70" x="249.902344"/>
      <use xlink:href="#DejaVuSans-20" x="313.378906"/>
      <use xlink:href="#DejaVuSans-26" x="345.166016"/>
      <use xlink:href="#DejaVuSans-20" x="423.144531"/>
      <use xlink:href="#DejaVuSans-47" x="454.931641"/>
      <use xlink:href="#DejaVuSans-6f" x="532.421875"/>
      <use xlink:href="#DejaVuSans-61" x="593.603516"/>
      <use xlink:href="#DejaVuSans-74" x="654.882812"/>
      <use xlink:href="#DejaVuSans-20" x="694.091797"/>
      <use xlink:href="#DejaVuSans-43" x="725.878906"/>
      <use xlink:href="#DejaVuSans-6f" x="795.703125"/>
      <use xlink:href="#DejaVuSans-6e" x="856.884766"/>
      <use xlink:href="#DejaVuSans-73" x="920.263672"/>
      <use xlink:href="#DejaVuSans-75" x="972.363281"/>
      <use xlink:href="#DejaVuSans-6d" x="1035.742188"/>
      <use xlink:href="#DejaVuSans-70" x="1133.154297"/>
      <use xlink:href="#DejaVuSans-74" x="1196.630859"/>
      <use xlink:href="#DejaVuSans-69" x="1235.839844"/>
      <use xlink:href="#DejaVuSans-6f" x="1263.623047"/>
      <use xlink:href="#DejaVuSans-6e" x="1324.804688"/>
     </g>
    </g>
   </g>
   <g id="matplotlib.axis_2">
    <g id="ytick_1">
     <g id="line2d_7">
      <defs>
       <path id="mae8aea0787" d="M 0 0 
L -3.5 0 
" style="stroke: #000000; stroke-width: 0.8"/>
      </defs>
      <g>
       <use xlink:href="#mae8aea0787" x="57.6" y="281.944293" style="stroke: #000000; stroke-width: 0.8"/>
      </g>
     </g>
     <g id="text_8">
      <!-- −1.0 -->
      <g transform="translate(26.317187 285.743512) scale(0.1 -0.1)">
       <use xlink:href="#DejaVuSans-2212"/>
       <use xlink:href="#DejaVuSans-31" x="83.789062"/>
       <use xlink:href="#DejaVuSans-2e" x="147.412109"/>
       <use xlink:href="#DejaVuSans-30" x="179.199219"/>
      </g>
     </g>
    </g>
    <g id="ytick_2">
     <g id="line2d_8">
      <g>
       <use xlink:href="#mae8aea0787" x="57.6" y="236.867969" style="stroke: #000000; stroke-width: 0.8"/>
      </g>
     </g>
     <g id="text_9">
      <!-- −0.5 -->
      <g transform="translate(26.317187 240.667187) scale(0.1 -0.1)">
       <use xlink:href="#DejaVuSans-2212"/>
       <use xlink:href="#DejaVuSans-30" x="83.789062"/>
       <use xlink:href="#DejaVuSans-2e" x="147.412109"/>
       <use xlink:href="#DejaVuSans-35" x="179.199219"/>
      </g>
     </g>
    </g>
    <g id="ytick_3">
     <g id="line2d_9">
      <g>
       <use xlink:href="#mae8aea0787" x="57.6" y="191.791644" style="stroke: #000000; stroke-width: 0.8"/>
      </g>
     </g>
     <g id="text_10">
      <!-- 0.0 -->
      <g transform="translate(34.696875 195.590863) scale(0.1 -0.1)">
       <use xlink:href="#DejaVuSans-30"/>
       <use xlink:href="#DejaVuSans-2e" x="63.623047"/>
       <use xlink:href="#DejaVuSans-30" x="95.410156"/>
      </g>
     </g>
    </g>
    <g id="ytick_4">
     <g id="line2d_10">
      <g>
       <use xlink:href="#mae8aea0787" x="57.6" y="146.715319" style="stroke: #000000; stroke-width: 0.8"/>
      </g>
     </g>
     <g id="text_11">
      <!-- 0.5 -->
      <g transform="translate(34.696875 150.514538) scale(0.1 -0.1)">
       <use xlink:href="#DejaVuSans-30"/>
       <use xlink:href="#DejaVuSans-2e" x="63.623047"/>
       <use xlink:href="#DejaVuSans-35" x="95.410156"/>
      </g>
     </g>
    </g>
    <g id="ytick_5">
     <g id="line2d_11">
      <g>
       <use xlink:href="#mae8aea0787" x="57.6" y="101.638995" style="stroke: #000000; stroke-width: 0.8"/>
      </g>
     </g>
     <g id="text_12">
      <!-- 1.0 -->
      <g transform="translate(34.696875 105.438213) scale(0.1 -0.1)">
       <use xlink:href="#DejaVuSans-31"/>
       <use xlink:href="#DejaVuSans-2e" x="63.623047"/>
       <use xlink:href="#DejaVuSans-30" x="95.410156"/>
      </g>
     </g>
    </g>
    <g id="ytick_6">
     <g id="line2d_12">
      <g>
       <use xlink:href="#mae8aea0787" x="57.6" y="56.56267" style="stroke: #000000; stroke-width: 0.8"/>
      </g>
     </g>
     <g id="text_13">
      <!-- 1.5 -->
      <g transform="translate(34.696875 60.361889) scale(0.1 -0.1)">
       <use xlink:href="#DejaVuSans-31"/>
       <use xlink:href="#DejaVuSans-2e" x="63.623047"/>
       <use xlink:href="#DejaVuSans-35" x="95.410156"/>
      </g>
     </g>
    </g>
    <g id="text_14">
     <!-- Fruit Consumption -->
     <g transform="translate(20.2375 220.318625) rotate(-90) scale(0.1 -0.1)">
      <defs>
       <path id="DejaVuSans-46" d="M 628 4666 
L 3309 4666 
L 3309 4134 
L 1259 4134 
L 1259 2759 
L 3109 2759 
L 3109 2228 
L 1259 2228 
L 1259 0 
L 628 0 
L 628 4666 
z
" transform="scale(0.015625)"/>
       <path id="DejaVuSans-72" d="M 2631 2963 
Q 2534 3019 2420 3045 
Q 2306 3072 2169 3072 
Q 1681 3072 1420 2755 
Q 1159 2438 1159 1844 
L 1159 0 
L 581 0 
L 581 3500 
L 1159 3500 
L 1159 2956 
Q 1341 3275 1631 3429 
Q 1922 3584 2338 3584 
Q 2397 3584 2469 3576 
Q 2541 3569 2628 3553 
L 2631 2963 
z
" transform="scale(0.015625)"/>
      </defs>
      <use xlink:href="#DejaVuSans-46"/>
      <use xlink:href="#DejaVuSans-72" x="50.269531"/>
      <use xlink:href="#DejaVuSans-75" x="91.382812"/>
      <use xlink:href="#DejaVuSans-69" x="154.761719"/>
      <use xlink:href="#DejaVuSans-74" x="182.544922"/>
      <use xlink:href="#DejaVuSans-20" x="221.753906"/>
      <use xlink:href="#DejaVuSans-43" x="253.541016"/>
      <use xlink:href="#DejaVuSans-6f" x="323.365234"/>
      <use xlink:href="#DejaVuSans-6e" x="384.546875"/>
      <use xlink:href="#DejaVuSans-73" x="447.925781"/>
      <use xlink:href="#DejaVuSans-75" x="500.025391"/>
      <use xlink:href="#DejaVuSans-6d" x="563.404297"/>
      <use xlink:href="#DejaVuSans-70" x="660.816406"/>
      <use xlink:href="#DejaVuSans-74" x="724.292969"/>
      <use xlink:href="#DejaVuSans-69" x="763.501953"/>
      <use xlink:href="#DejaVuSans-6f" x="791.285156"/>
      <use xlink:href="#DejaVuSans-6e" x="852.466797"/>
     </g>
    </g>
   </g>
   <g id="PathCollection_8"/>
   <g id="PathCollection_9">
    <path d="M 414.72 224.464559 
L 411.112727 224.464559 
L 407.505455 224.464559 
L 403.898182 224.464559 
L 400.290909 224.464559 
L 396.683636 224.464559 
L 393.076364 224.464559 
L 389.469091 224.464559 
L 385.861818 224.464559 
L 382.254545 224.464559 
L 378.647273 224.464559 
L 375.04 224.464559 
L 371.432727 224.464559 
L 369.911364 224.464559 
" clip-path="url(#p695d265134)" style="fill: none; stroke-dasharray: 1.85,0.8; stroke-dashoffset: 0; stroke: #000000; stroke-width: 0.5"/>
    <path d="M 336.881364 224.464559 
L 97.28 224.464559 
L 96.61728 224.256 
L 93.672727 222.766163 
L 92.684904 221.568 
L 92.684904 202.752 
L 93.672727 200.887008 
L 94.717746 200.064 
L 94.717746 41.472 
L 94.717746 41.472 
" clip-path="url(#p695d265134)" style="fill: none; stroke-dasharray: 1.85,0.8; stroke-dashoffset: 0; stroke: #000000; stroke-width: 0.5"/>
   </g>
   <g id="PathCollection_10">
    <path d="M 96.394867 307.584 
L 96.394867 304.896 
L 96.394867 302.208 
L 96.394867 299.52 
L 96.394867 296.832 
L 96.394867 294.144 
L 96.394867 291.456 
L 96.394867 288.768 
L 96.394867 286.08 
L 96.394867 283.392 
L 96.394867 280.704 
L 96.394867 278.016 
L 96.394867 275.328 
L 96.394867 272.64 
L 96.394867 269.952 
L 96.394867 267.264 
L 96.394867 264.576 
L 96.394867 261.888 
L 96.394867 259.2 
L 96.394867 256.512 
L 96.394867 253.824 
L 96.394867 251.136 
L 96.394867 248.448 
L 96.394867 245.76 
L 96.394867 243.072 
L 96.394867 240.384 
L 96.394867 237.696 
L 96.394867 235.008 
L 96.394867 232.32 
L 96.394867 229.632 
L 96.394867 226.944 
L 93.672727 226.08734 
L 91.245261 224.256 
L 90.065455 222.824973 
L 86.458182 222.824973 
L 85.906275 221.568 
L 85.906275 218.88 
L 85.906275 216.192 
L 85.906275 213.504 
L 85.906275 210.816 
L 85.906275 208.128 
L 85.906275 205.44 
L 85.906275 202.752 
L 86.458182 200.795468 
L 90.065455 200.795468 
L 90.452888 200.064 
L 90.452888 197.376 
L 90.452888 194.688 
L 90.452888 192 
L 90.452888 189.312 
L 90.452888 186.624 
L 90.452888 183.936 
L 90.452888 181.248 
L 90.452888 178.56 
L 90.452888 175.872 
L 90.452888 173.184 
L 90.452888 170.496 
L 90.452888 167.808 
L 90.452888 165.12 
L 90.452888 162.432 
L 90.452888 159.744 
L 90.452888 157.056 
L 90.452888 154.368 
L 90.452888 151.68 
L 90.452888 148.992 
L 90.452888 146.304 
L 90.452888 143.616 
L 90.452888 140.928 
L 90.452888 138.24 
L 90.452888 135.552 
L 90.452888 132.864 
L 90.452888 130.176 
L 90.452888 127.488 
L 90.452888 124.8 
L 90.452888 122.112 
L 90.452888 119.424 
L 90.452888 116.736 
L 90.452888 114.048 
L 90.452888 111.36 
L 90.452888 108.672 
L 90.452888 105.984 
L 90.452888 103.683 
" clip-path="url(#p695d265134)" style="fill: none; stroke-dasharray: 1.85,0.8; stroke-dashoffset: 0; stroke: #000000; stroke-width: 0.5"/>
    <path d="M 90.452888 70.653 
L 90.452888 68.352 
L 90.452888 65.664 
L 90.452888 62.976 
L 90.452888 60.288 
L 90.452888 57.6 
L 90.452888 54.912 
L 90.452888 52.224 
L 90.452888 49.536 
L 90.452888 46.848 
L 90.452888 44.16 
L 90.452888 41.472 
" clip-path="url(#p695d265134)" style="fill: none; stroke-dasharray: 1.85,0.8; stroke-dashoffset: 0; stroke: #000000; stroke-width: 0.5"/>
   </g>
   <g id="PathCollection_11">
    <path d="M 91.152483 307.584 
L 91.152483 304.896 
L 91.152483 302.208 
L 91.152483 299.52 
L 91.152483 296.832 
L 91.152483 294.144 
L 91.152483 291.456 
L 91.152483 288.768 
L 91.152483 286.08 
L 91.152483 283.392 
L 91.152483 280.704 
L 91.152483 278.016 
L 91.152483 275.328 
L 91.152483 272.64 
L 91.152483 269.952 
L 91.152483 267.264 
L 91.152483 264.576 
L 91.152483 261.888 
L 91.152483 259.2 
L 91.152483 256.512 
L 91.152483 253.824 
L 91.152483 251.136 
L 91.152483 248.448 
L 91.152483 245.76 
L 91.152483 243.072 
L 91.152483 240.384 
L 91.152483 237.696 
L 91.152483 235.008 
L 91.152483 232.32 
L 91.152483 229.632 
L 91.152483 226.944 
L 90.065455 226.123919 
L 86.458182 226.123919 
L 85.139564 224.256 
L 83.959327 221.568 
L 83.959327 218.88 
L 83.959327 216.192 
L 83.959327 213.504 
L 83.959327 210.816 
L 83.959327 208.128 
L 83.959327 205.44 
L 83.959327 202.752 
L 84.71757 200.064 
L 84.71757 197.376 
L 84.71757 194.688 
L 84.71757 192 
L 84.71757 189.699 
" clip-path="url(#p695d265134)" style="fill: none; stroke-dasharray: 1.85,0.8; stroke-dashoffset: 0; stroke: #000000; stroke-width: 0.5"/>
    <path d="M 84.71757 156.669 
L 84.71757 154.368 
L 84.71757 151.68 
L 84.71757 148.992 
L 84.71757 146.304 
L 84.71757 143.616 
L 84.71757 140.928 
L 84.71757 138.24 
L 84.71757 135.552 
L 84.71757 132.864 
L 84.71757 130.176 
L 84.71757 127.488 
L 84.71757 124.8 
L 84.71757 122.112 
L 84.71757 119.424 
L 84.71757 116.736 
L 84.71757 114.048 
L 84.71757 111.36 
L 84.71757 108.672 
L 84.71757 105.984 
L 84.71757 103.296 
L 84.71757 100.608 
L 84.71757 97.92 
L 84.71757 95.232 
L 84.71757 92.544 
L 84.71757 89.856 
L 84.71757 87.168 
L 84.71757 84.48 
L 84.71757 81.792 
L 84.71757 79.104 
L 84.71757 76.416 
L 84.71757 73.728 
L 84.71757 71.04 
L 84.71757 68.352 
L 84.71757 65.664 
L 84.71757 62.976 
L 84.71757 60.288 
L 84.71757 57.6 
L 84.71757 54.912 
L 84.71757 52.224 
L 84.71757 49.536 
L 84.71757 46.848 
L 84.71757 44.16 
L 84.71757 41.472 
" clip-path="url(#p695d265134)" style="fill: none; stroke-dasharray: 1.85,0.8; stroke-dashoffset: 0; stroke: #000000; stroke-width: 0.5"/>
   </g>
   <g id="PathCollection_12">
    <path d="M 85.090153 307.584 
L 85.090153 304.896 
L 85.090153 302.208 
L 85.090153 299.52 
L 85.090153 296.832 
L 85.090153 294.144 
L 85.090153 291.456 
L 85.090153 288.768 
L 85.090153 286.08 
L 85.090153 283.392 
L 85.090153 280.704 
L 85.090153 278.403 
" clip-path="url(#p695d265134)" style="fill: none; stroke-dasharray: 1.85,0.8; stroke-dashoffset: 0; stroke: #000000; stroke-width: 0.5"/>
    <path d="M 85.090153 245.373 
L 85.090153 243.072 
L 85.090153 240.384 
L 85.090153 237.696 
L 85.090153 235.008 
L 85.090153 232.32 
L 85.090153 229.632 
L 85.090153 226.944 
L 83.192616 224.256 
L 82.850909 223.47776 
L 81.217752 221.568 
L 81.217752 218.88 
L 81.217752 216.192 
L 81.217752 213.504 
L 81.217752 210.816 
L 81.217752 208.128 
L 81.217752 205.44 
L 81.217752 202.752 
L 82.694538 200.064 
L 82.694538 197.376 
L 82.694538 194.688 
L 82.694538 192 
L 82.694538 189.312 
L 82.694538 186.624 
L 82.694538 183.936 
L 82.694538 181.248 
L 82.694538 178.56 
L 82.694538 175.872 
L 82.694538 173.184 
L 82.694538 170.496 
L 82.694538 167.808 
L 82.694538 165.12 
L 82.694538 162.432 
L 82.694538 159.744 
L 82.694538 157.056 
L 82.694538 154.368 
L 82.694538 151.68 
L 82.694538 148.992 
L 82.694538 146.304 
L 82.694538 143.616 
L 82.694538 140.928 
L 82.694538 138.24 
L 82.694538 135.552 
L 82.694538 132.864 
L 82.694538 130.176 
L 82.694538 127.488 
L 82.694538 124.8 
L 82.694538 122.112 
L 82.694538 119.424 
L 82.694538 116.736 
L 82.694538 114.048 
L 82.694538 111.36 
L 82.694538 108.672 
L 82.694538 105.984 
L 82.694538 103.296 
L 82.694538 100.608 
L 82.694538 97.92 
L 82.694538 95.232 
L 82.694538 92.544 
L 82.694538 89.856 
L 82.694538 87.168 
L 82.694538 84.48 
L 82.694538 81.792 
L 82.694538 79.104 
L 82.694538 76.416 
L 82.694538 73.728 
L 82.694538 71.04 
L 82.694538 68.352 
L 82.694538 65.664 
L 82.694538 62.976 
L 82.694538 60.288 
L 82.694538 57.6 
L 82.694538 54.912 
L 82.694538 52.224 
L 82.694538 49.536 
L 82.694538 46.848 
L 82.694538 44.16 
L 82.694538 41.472 
" clip-path="url(#p695d265134)" style="fill: none; stroke-dasharray: 1.85,0.8; stroke-dashoffset: 0; stroke: #000000; stroke-width: 0.5"/>
   </g>
   <g id="PathCollection_13">
    <path d="M 83.143205 307.584 
L 83.143205 304.896 
L 83.143205 302.208 
L 83.143205 299.52 
L 83.143205 296.832 
L 83.143205 294.144 
L 83.143205 291.456 
L 83.143205 288.768 
L 83.143205 286.08 
L 83.143205 283.392 
L 83.143205 280.704 
L 83.143205 278.016 
L 83.143205 275.328 
L 83.143205 272.64 
L 83.143205 269.952 
L 83.143205 267.264 
L 83.143205 264.576 
L 83.143205 261.888 
L 83.143205 259.2 
L 83.143205 256.512 
L 83.143205 253.824 
L 83.143205 251.136 
L 83.143205 248.448 
L 83.143205 245.76 
L 83.143205 243.072 
L 83.143205 240.384 
L 83.143205 237.696 
L 83.143205 235.008 
L 83.143205 232.32 
L 83.143205 229.632 
L 83.143205 226.944 
L 82.850909 226.529941 
L 79.724474 224.256 
L 79.243636 223.693725 
L 75.636364 223.693725 
L 72.029091 223.693725 
L 68.421818 223.693725 
L 65.442273 221.568 
L 65.442273 218.88 
L 65.442273 216.192 
L 65.442273 213.504 
L 65.442273 210.816 
L 65.442273 208.128 
L 65.442273 205.44 
L 65.442273 202.752 
L 67.862807 200.064 
L 67.862807 197.376 
L 67.862807 194.688 
L 67.862807 192 
L 67.862807 189.312 
L 67.862807 186.624 
L 67.862807 183.936 
L 67.862807 181.248 
L 67.862807 178.56 
L 67.862807 175.872 
L 67.862807 173.184 
L 67.862807 170.496 
L 67.862807 167.808 
L 67.862807 165.12 
L 67.862807 162.432 
L 67.862807 159.744 
L 67.862807 157.056 
L 67.862807 154.368 
L 67.862807 151.68 
L 67.862807 148.992 
L 67.862807 146.304 
L 67.862807 143.616 
L 67.862807 140.928 
L 67.862807 138.24 
L 67.862807 135.552 
L 67.862807 132.864 
L 67.862807 130.176 
L 67.862807 127.488 
L 67.862807 124.8 
L 67.862807 122.112 
L 67.862807 119.424 
L 67.862807 116.736 
L 67.862807 114.048 
L 67.862807 111.36 
L 67.862807 108.672 
L 67.862807 105.984 
L 67.862807 103.683 
" clip-path="url(#p695d265134)" style="fill: none; stroke-dasharray: 1.85,0.8; stroke-dashoffset: 0; stroke: #000000; stroke-width: 0.5"/>
    <path d="M 67.862807 70.653 
L 67.862807 68.352 
L 67.862807 65.664 
L 67.862807 62.976 
L 67.862807 60.288 
L 67.862807 57.6 
L 67.862807 54.912 
L 67.862807 52.224 
L 67.862807 49.536 
L 67.862807 46.848 
L 67.862807 44.16 
L 67.862807 41.472 
" clip-path="url(#p695d265134)" style="fill: none; stroke-dasharray: 1.85,0.8; stroke-dashoffset: 0; stroke: #000000; stroke-width: 0.5"/>
   </g>
   <g id="PathCollection_14">
    <path d="M 79.628239 307.584 
L 79.628239 304.896 
L 79.628239 302.208 
L 79.628239 299.52 
L 79.628239 296.832 
L 79.628239 294.144 
L 79.628239 291.456 
L 79.628239 288.768 
L 79.628239 286.08 
L 79.628239 283.392 
L 79.628239 280.704 
L 79.628239 278.403 
" clip-path="url(#p695d265134)" style="fill: none; stroke-dasharray: 1.85,0.8; stroke-dashoffset: 0; stroke: #000000; stroke-width: 0.5"/>
    <path d="M 79.628239 245.373 
L 79.628239 243.072 
L 79.628239 240.384 
L 79.628239 237.696 
L 79.628239 235.008 
L 79.628239 232.32 
L 79.628239 229.632 
L 79.628239 226.944 
L 79.243636 226.664268 
L 75.636364 226.664268 
L 72.029091 226.664268 
L 68.421818 226.664268 
L 64.814545 225.06355 
L 61.207273 225.06355 
L 57.6 225.06355 
" clip-path="url(#p695d265134)" style="fill: none; stroke-dasharray: 1.85,0.8; stroke-dashoffset: 0; stroke: #000000; stroke-width: 0.5"/>
   </g>
   <g id="PathCollection_15"/>
   <g id="LineCollection_1">
    <path d="M 59.185761 307.584 
L 59.185761 294.2784 
" clip-path="url(#p695d265134)" style="fill: none; stroke: #000000; stroke-width: 1.5"/>
    <path d="M 65.960483 307.584 
L 65.960483 294.2784 
" clip-path="url(#p695d265134)" style="fill: none; stroke: #000000; stroke-width: 1.5"/>
    <path d="M 71.939636 307.584 
L 71.939636 294.2784 
" clip-path="url(#p695d265134)" style="fill: none; stroke: #000000; stroke-width: 1.5"/>
    <path d="M 79.954663 307.584 
L 79.954663 294.2784 
" clip-path="url(#p695d265134)" style="fill: none; stroke: #000000; stroke-width: 1.5"/>
    <path d="M 90.987915 307.584 
L 90.987915 294.2784 
" clip-path="url(#p695d265134)" style="fill: none; stroke: #000000; stroke-width: 1.5"/>
    <path d="M 105.01019 307.584 
L 105.01019 294.2784 
" clip-path="url(#p695d265134)" style="fill: none; stroke: #000000; stroke-width: 1.5"/>
    <path d="M 127.283336 307.584 
L 127.283336 294.2784 
" clip-path="url(#p695d265134)" style="fill: none; stroke: #000000; stroke-width: 1.5"/>
    <path d="M 179.58089 307.584 
L 179.58089 294.2784 
" clip-path="url(#p695d265134)" style="fill: none; stroke: #000000; stroke-width: 1.5"/>
    <path d="M 298.529341 307.584 
L 298.529341 294.2784 
" clip-path="url(#p695d265134)" style="fill: none; stroke: #000000; stroke-width: 1.5"/>
   </g>
   <g id="LineCollection_2">
    <path clip-path="url(#p695d265134)" style="fill: none; stroke: #000000; stroke-width: 1.5"/>
    <path clip-path="url(#p695d265134)" style="fill: none; stroke: #000000; stroke-width: 1.5"/>
    <path clip-path="url(#p695d265134)" style="fill: none; stroke: #000000; stroke-width: 1.5"/>
    <path clip-path="url(#p695d265134)" style="fill: none; stroke: #000000; stroke-width: 1.5"/>
    <path clip-path="url(#p695d265134)" style="fill: none; stroke: #000000; stroke-width: 1.5"/>
    <path d="M 137.238718 293.72192 
L 143.275987 293.72192 
" clip-path="url(#p695d265134)" style="fill: none; stroke: #000000; stroke-width: 1.5"/>
    <path d="M 137.238718 255.620895 
L 143.275987 255.620895 
" clip-path="url(#p695d265134)" style="fill: none; stroke: #000000; stroke-width: 1.5"/>
    <path d="M 137.238718 160.053891 
L 143.275987 160.053891 
" clip-path="url(#p695d265134)" style="fill: none; stroke: #000000; stroke-width: 1.5"/>
    <path d="M 137.238718 21.085803 
L 143.275987 21.085803 
" clip-path="url(#p695d265134)" style="fill: none; stroke: #000000; stroke-width: 1.5"/>
   </g>
   <g id="patch_3">
    <path d="M 57.6 307.584 
L 57.6 41.472 
" style="fill: none; stroke: #000000; stroke-width: 0.8; stroke-linejoin: miter; stroke-linecap: square"/>
   </g>
   <g id="patch_4">
    <path d="M 414.72 307.584 
L 414.72 41.472 
" style="fill: none; stroke: #000000; stroke-width: 0.8; stroke-linejoin: miter; stroke-linecap: square"/>
   </g>
   <g id="patch_5">
    <path d="M 57.6 307.584 
L 414.72 307.584 
" style="fill: none; stroke: #000000; stroke-width: 0.8; stroke-linejoin: miter; stroke-linecap: square"/>
   </g>
   <g id="patch_6">
    <path d="M 57.6 41.472 
L 414.72 41.472 
" style="fill: none; stroke: #000000; stroke-width: 0.8; stroke-linejoin: miter; stroke-linecap: square"/>
   </g>
   <g id="text_15">
    <!-- 2D-partial dependency plot between SG and Fruit -->
    <g transform="translate(87.346875 35.472) scale(0.12 -0.12)">
     <defs>
      <path id="DejaVuSans-44" d="M 1259 4147 
L 1259 519 
L 2022 519 
Q 2988 519 3436 956 
Q 3884 1394 3884 2338 
Q 3884 3275 3436 3711 
Q 2988 4147 2022 4147 
L 1259 4147 
z
M 628 4666 
L 1925 4666 
Q 3281 4666 3915 4102 
Q 4550 3538 4550 2338 
Q 4550 1131 3912 565 
Q 3275 0 1925 0 
L 628 0 
L 628 4666 
z
" transform="scale(0.015625)"/>
      <path id="DejaVuSans-2d" d="M 313 2009 
L 1997 2009 
L 1997 1497 
L 313 1497 
L 313 2009 
z
" transform="scale(0.015625)"/>
      <path id="DejaVuSans-6c" d="M 603 4863 
L 1178 4863 
L 1178 0 
L 603 0 
L 603 4863 
z
" transform="scale(0.015625)"/>
      <path id="DejaVuSans-64" d="M 2906 2969 
L 2906 4863 
L 3481 4863 
L 3481 0 
L 2906 0 
L 2906 525 
Q 2725 213 2448 61 
Q 2172 -91 1784 -91 
Q 1150 -91 751 415 
Q 353 922 353 1747 
Q 353 2572 751 3078 
Q 1150 3584 1784 3584 
Q 2172 3584 2448 3432 
Q 2725 3281 2906 2969 
z
M 947 1747 
Q 947 1113 1208 752 
Q 1469 391 1925 391 
Q 2381 391 2643 752 
Q 2906 1113 2906 1747 
Q 2906 2381 2643 2742 
Q 2381 3103 1925 3103 
Q 1469 3103 1208 2742 
Q 947 2381 947 1747 
z
" transform="scale(0.015625)"/>
      <path id="DejaVuSans-63" d="M 3122 3366 
L 3122 2828 
Q 2878 2963 2633 3030 
Q 2388 3097 2138 3097 
Q 1578 3097 1268 2742 
Q 959 2388 959 1747 
Q 959 1106 1268 751 
Q 1578 397 2138 397 
Q 2388 397 2633 464 
Q 2878 531 3122 666 
L 3122 134 
Q 2881 22 2623 -34 
Q 2366 -91 2075 -91 
Q 1284 -91 818 406 
Q 353 903 353 1747 
Q 353 2603 823 3093 
Q 1294 3584 2113 3584 
Q 2378 3584 2631 3529 
Q 2884 3475 3122 3366 
z
" transform="scale(0.015625)"/>
      <path id="DejaVuSans-79" d="M 2059 -325 
Q 1816 -950 1584 -1140 
Q 1353 -1331 966 -1331 
L 506 -1331 
L 506 -850 
L 844 -850 
Q 1081 -850 1212 -737 
Q 1344 -625 1503 -206 
L 1606 56 
L 191 3500 
L 800 3500 
L 1894 763 
L 2988 3500 
L 3597 3500 
L 2059 -325 
z
" transform="scale(0.015625)"/>
      <path id="DejaVuSans-62" d="M 3116 1747 
Q 3116 2381 2855 2742 
Q 2594 3103 2138 3103 
Q 1681 3103 1420 2742 
Q 1159 2381 1159 1747 
Q 1159 1113 1420 752 
Q 1681 391 2138 391 
Q 2594 391 2855 752 
Q 3116 1113 3116 1747 
z
M 1159 2969 
Q 1341 3281 1617 3432 
Q 1894 3584 2278 3584 
Q 2916 3584 3314 3078 
Q 3713 2572 3713 1747 
Q 3713 922 3314 415 
Q 2916 -91 2278 -91 
Q 1894 -91 1617 61 
Q 1341 213 1159 525 
L 1159 0 
L 581 0 
L 581 4863 
L 1159 4863 
L 1159 2969 
z
" transform="scale(0.015625)"/>
      <path id="DejaVuSans-77" d="M 269 3500 
L 844 3500 
L 1563 769 
L 2278 3500 
L 2956 3500 
L 3675 769 
L 4391 3500 
L 4966 3500 
L 4050 0 
L 3372 0 
L 2619 2869 
L 1863 0 
L 1184 0 
L 269 3500 
z
" transform="scale(0.015625)"/>
     </defs>
     <use xlink:href="#DejaVuSans-32"/>
     <use xlink:href="#DejaVuSans-44" x="63.623047"/>
     <use xlink:href="#DejaVuSans-2d" x="140.625"/>
     <use xlink:href="#DejaVuSans-70" x="176.708984"/>
     <use xlink:href="#DejaVuSans-61" x="240.185547"/>
     <use xlink:href="#DejaVuSans-72" x="301.464844"/>
     <use xlink:href="#DejaVuSans-74" x="342.578125"/>
     <use xlink:href="#DejaVuSans-69" x="381.787109"/>
     <use xlink:href="#DejaVuSans-61" x="409.570312"/>
     <use xlink:href="#DejaVuSans-6c" x="470.849609"/>
     <use xlink:href="#DejaVuSans-20" x="498.632812"/>
     <use xlink:href="#DejaVuSans-64" x="530.419922"/>
     <use xlink:href="#DejaVuSans-65" x="593.896484"/>
     <use xlink:href="#DejaVuSans-70" x="655.419922"/>
     <use xlink:href="#DejaVuSans-65" x="718.896484"/>
     <use xlink:href="#DejaVuSans-6e" x="780.419922"/>
     <use xlink:href="#DejaVuSans-64" x="843.798828"/>
     <use xlink:href="#DejaVuSans-65" x="907.275391"/>
     <use xlink:href="#DejaVuSans-6e" x="968.798828"/>
     <use xlink:href="#DejaVuSans-63" x="1032.177734"/>
     <use xlink:href="#DejaVuSans-79" x="1087.158203"/>
     <use xlink:href="#DejaVuSans-20" x="1146.337891"/>
     <use xlink:href="#DejaVuSans-70" x="1178.125"/>
     <use xlink:href="#DejaVuSans-6c" x="1241.601562"/>
     <use xlink:href="#DejaVuSans-6f" x="1269.384766"/>
     <use xlink:href="#DejaVuSans-74" x="1330.566406"/>
     <use xlink:href="#DejaVuSans-20" x="1369.775391"/>
     <use xlink:href="#DejaVuSans-62" x="1401.5625"/>
     <use xlink:href="#DejaVuSans-65" x="1465.039062"/>
     <use xlink:href="#DejaVuSans-74" x="1526.5625"/>
     <use xlink:href="#DejaVuSans-77" x="1565.771484"/>
     <use xlink:href="#DejaVuSans-65" x="1647.558594"/>
     <use xlink:href="#DejaVuSans-65" x="1709.082031"/>
     <use xlink:href="#DejaVuSans-6e" x="1770.605469"/>
     <use xlink:href="#DejaVuSans-20" x="1833.984375"/>
     <use xlink:href="#DejaVuSans-53" x="1865.771484"/>
     <use xlink:href="#DejaVuSans-47" x="1929.248047"/>
     <use xlink:href="#DejaVuSans-20" x="2006.738281"/>
     <use xlink:href="#DejaVuSans-61" x="2038.525391"/>
     <use xlink:href="#DejaVuSans-6e" x="2099.804688"/>
     <use xlink:href="#DejaVuSans-64" x="2163.183594"/>
     <use xlink:href="#DejaVuSans-20" x="2226.660156"/>
     <use xlink:href="#DejaVuSans-46" x="2258.447266"/>
     <use xlink:href="#DejaVuSans-72" x="2308.716797"/>
     <use xlink:href="#DejaVuSans-75" x="2349.830078"/>
     <use xlink:href="#DejaVuSans-69" x="2413.208984"/>
     <use xlink:href="#DejaVuSans-74" x="2440.992188"/>
    </g>
   </g>
   <g id="text_16">
    <g clip-path="url(#p695d265134)">
     <!-- -0.04 -->
     <g transform="translate(340.459645 227.223934) scale(0.1 -0.1)">
      <defs>
       <path id="DejaVuSans-34" d="M 2419 4116 
L 825 1625 
L 2419 1625 
L 2419 4116 
z
M 2253 4666 
L 3047 4666 
L 3047 1625 
L 3713 1625 
L 3713 1100 
L 3047 1100 
L 3047 0 
L 2419 0 
L 2419 1100 
L 313 1100 
L 313 1709 
L 2253 4666 
z
" transform="scale(0.015625)"/>
      </defs>
      <use xlink:href="#DejaVuSans-2d"/>
      <use xlink:href="#DejaVuSans-30" x="36.083984"/>
      <use xlink:href="#DejaVuSans-2e" x="99.707031"/>
      <use xlink:href="#DejaVuSans-30" x="131.494141"/>
      <use xlink:href="#DejaVuSans-34" x="195.117188"/>
     </g>
    </g>
   </g>
   <g id="text_17">
    <g clip-path="url(#p695d265134)">
     <!-- -0.03 -->
     <g transform="translate(87.693513 74.231281) rotate(-270) scale(0.1 -0.1)">
      <defs>
       <path id="DejaVuSans-33" d="M 2597 2516 
Q 3050 2419 3304 2112 
Q 3559 1806 3559 1356 
Q 3559 666 3084 287 
Q 2609 -91 1734 -91 
Q 1441 -91 1130 -33 
Q 819 25 488 141 
L 488 750 
Q 750 597 1062 519 
Q 1375 441 1716 441 
Q 2309 441 2620 675 
Q 2931 909 2931 1356 
Q 2931 1769 2642 2001 
Q 2353 2234 1838 2234 
L 1294 2234 
L 1294 2753 
L 1863 2753 
Q 2328 2753 2575 2939 
Q 2822 3125 2822 3475 
Q 2822 3834 2567 4026 
Q 2313 4219 1838 4219 
Q 1578 4219 1281 4162 
Q 984 4106 628 3988 
L 628 4550 
Q 988 4650 1302 4700 
Q 1616 4750 1894 4750 
Q 2613 4750 3031 4423 
Q 3450 4097 3450 3541 
Q 3450 3153 3228 2886 
Q 3006 2619 2597 2516 
z
" transform="scale(0.015625)"/>
      </defs>
      <use xlink:href="#DejaVuSans-2d"/>
      <use xlink:href="#DejaVuSans-30" x="36.083984"/>
      <use xlink:href="#DejaVuSans-2e" x="99.707031"/>
      <use xlink:href="#DejaVuSans-30" x="131.494141"/>
      <use xlink:href="#DejaVuSans-33" x="195.117188"/>
     </g>
    </g>
   </g>
   <g id="text_18">
    <g clip-path="url(#p695d265134)">
     <!-- -0.03 -->
     <g transform="translate(81.958195 160.247281) rotate(-270) scale(0.1 -0.1)">
      <use xlink:href="#DejaVuSans-2d"/>
      <use xlink:href="#DejaVuSans-30" x="36.083984"/>
      <use xlink:href="#DejaVuSans-2e" x="99.707031"/>
      <use xlink:href="#DejaVuSans-30" x="131.494141"/>
      <use xlink:href="#DejaVuSans-33" x="195.117188"/>
     </g>
    </g>
   </g>
   <g id="text_19">
    <g clip-path="url(#p695d265134)">
     <!-- -0.03 -->
     <g transform="translate(82.330778 248.951281) rotate(-270) scale(0.1 -0.1)">
      <use xlink:href="#DejaVuSans-2d"/>
      <use xlink:href="#DejaVuSans-30" x="36.083984"/>
      <use xlink:href="#DejaVuSans-2e" x="99.707031"/>
      <use xlink:href="#DejaVuSans-30" x="131.494141"/>
      <use xlink:href="#DejaVuSans-33" x="195.117188"/>
     </g>
    </g>
   </g>
   <g id="text_20">
    <g clip-path="url(#p695d265134)">
     <!-- -0.02 -->
     <g transform="translate(65.103432 74.231281) rotate(-270) scale(0.1 -0.1)">
      <use xlink:href="#DejaVuSans-2d"/>
      <use xlink:href="#DejaVuSans-30" x="36.083984"/>
      <use xlink:href="#DejaVuSans-2e" x="99.707031"/>
      <use xlink:href="#DejaVuSans-30" x="131.494141"/>
      <use xlink:href="#DejaVuSans-32" x="195.117188"/>
     </g>
    </g>
   </g>
   <g id="text_21">
    <g clip-path="url(#p695d265134)">
     <!-- -0.02 -->
     <g transform="translate(76.868864 248.951281) rotate(-270) scale(0.1 -0.1)">
      <use xlink:href="#DejaVuSans-2d"/>
      <use xlink:href="#DejaVuSans-30" x="36.083984"/>
      <use xlink:href="#DejaVuSans-2e" x="99.707031"/>
      <use xlink:href="#DejaVuSans-30" x="131.494141"/>
      <use xlink:href="#DejaVuSans-32" x="195.117188"/>
     </g>
    </g>
   </g>
  </g>
 </g>
 <defs>
  <clipPath id="p695d265134">
   <rect x="57.6" y="41.472" width="357.12" height="266.112"/>
  </clipPath>
 </defs>
</svg>
