<?xml version="1.0" encoding="utf-8" standalone="no"?>
<!DOCTYPE svg PUBLIC "-//W3C//DTD SVG 1.1//EN"
  "http://www.w3.org/Graphics/SVG/1.1/DTD/svg11.dtd">
<svg xmlns:xlink="http://www.w3.org/1999/xlink" width="460.8pt" height="345.6pt" viewBox="0 0 460.8 345.6" xmlns="http://www.w3.org/2000/svg" version="1.1">
 <metadata>
  <rdf:RDF xmlns:dc="http://purl.org/dc/elements/1.1/" xmlns:cc="http://creativecommons.org/ns#" xmlns:rdf="http://www.w3.org/1999/02/22-rdf-syntax-ns#">
   <cc:Work>
    <dc:type rdf:resource="http://purl.org/dc/dcmitype/StillImage"/>
    <dc:date>2024-02-15T12:26:45.194445</dc:date>
    <dc:format>image/svg+xml</dc:format>
    <dc:creator>
     <cc:Agent>
      <dc:title>Matplotlib v3.7.0, https://matplotlib.org/</dc:title>
     </cc:Agent>
    </dc:creator>
   </cc:Work>
  </rdf:RDF>
 </metadata>
 <defs>
  <style type="text/css">*{stroke-linejoin: round; stroke-linecap: butt}</style>
 </defs>
 <g id="figure_1">
  <g id="patch_1">
   <path d="M 0 345.6 
L 460.8 345.6 
L 460.8 0 
L 0 0 
L 0 345.6 
z
" style="fill: none"/>
  </g>
  <g id="axes_1"/>
  <g id="axes_2">
   <g id="patch_2">
    <path d="M 57.6 307.584 
L 414.72 307.584 
L 414.72 41.472 
L 57.6 41.472 
L 57.6 307.584 
z
" style="fill: none"/>
   </g>
   <g id="PathCollection_1">
    <path d="M 79.150345 307.584 
L 91.464828 307.584 
L 94.543448 307.584 
L 97.622069 307.584 
L 100.70069 307.584 
L 103.77931 307.584 
L 106.857931 307.584 
L 116.093793 307.584 
L 119.172414 307.584 
L 122.251034 307.584 
L 125.329655 307.584 
L 128.408276 307.584 
L 131.486897 307.584 
L 134.565517 307.584 
L 137.644138 307.584 
L 140.722759 307.584 
L 143.801379 307.584 
L 146.88 307.584 
L 149.958621 307.584 
L 156.115862 307.584 
L 159.194483 307.584 
L 162.273103 307.584 
L 165.351724 307.584 
L 168.430345 307.584 
L 171.508966 307.584 
L 174.587586 307.584 
L 177.666207 307.584 
L 183.823448 307.584 
L 186.902069 307.584 
L 189.98069 307.584 
L 193.05931 307.584 
L 199.216552 307.584 
L 202.295172 307.584 
L 208.452414 307.584 
L 211.531034 307.584 
L 214.609655 307.584 
L 217.688276 307.584 
L 220.766897 307.584 
L 223.845517 307.584 
L 226.924138 307.584 
L 230.002759 307.584 
L 233.081379 307.584 
L 236.16 307.584 
L 239.238621 307.584 
L 242.317241 307.584 
L 245.395862 307.584 
L 248.474483 307.584 
L 251.553103 307.584 
L 254.631724 307.584 
L 257.710345 307.584 
L 260.788966 307.584 
L 263.867586 307.584 
L 266.946207 307.584 
L 270.024828 307.584 
L 273.103448 307.584 
L 276.182069 307.584 
L 279.26069 307.584 
L 282.33931 307.584 
L 285.417931 307.584 
L 288.496552 307.584 
L 294.653793 307.584 
L 297.732414 307.584 
L 310.046897 307.584 
L 313.125517 307.584 
L 316.204138 307.584 
L 319.282759 307.584 
L 322.361379 307.584 
L 334.675862 307.584 
L 346.990345 307.584 
L 414.72 307.584 
L 414.72 304.896 
L 414.72 302.208 
L 414.72 299.52 
L 414.72 296.832 
L 414.72 294.144 
L 414.72 291.456 
L 414.72 288.768 
L 414.72 286.08 
L 414.72 283.392 
L 414.72 280.704 
L 414.72 278.016 
L 414.72 275.328 
L 414.72 272.64 
L 414.72 269.952 
L 414.72 267.264 
L 414.72 264.576 
L 414.72 261.888 
L 414.72 259.2 
L 414.72 256.512 
L 414.72 253.824 
L 414.72 251.136 
L 414.72 248.448 
L 414.72 245.76 
L 414.72 243.072 
L 414.72 240.384 
L 414.72 237.696 
L 414.72 235.008 
L 414.72 232.32 
L 414.72 229.632 
L 414.72 226.944 
L 414.72 225.080626 
L 346.990345 225.080626 
L 334.675862 225.080626 
L 322.361379 225.080626 
L 319.282759 225.080626 
L 316.204138 225.080626 
L 313.125517 225.080626 
L 310.046897 225.080626 
L 297.732414 225.080626 
L 294.653793 225.080626 
L 288.496552 225.080626 
L 285.417931 225.080626 
L 282.33931 225.080626 
L 279.26069 225.080626 
L 276.182069 225.080626 
L 273.103448 225.080626 
L 270.024828 225.080626 
L 266.946207 225.080626 
L 263.867586 225.080626 
L 260.788966 225.080626 
L 257.710345 225.080626 
L 254.631724 225.080626 
L 251.553103 225.080626 
L 248.474483 225.080626 
L 245.395862 225.080626 
L 242.317241 225.080626 
L 239.238621 225.080626 
L 236.16 225.080626 
L 233.081379 225.080626 
L 230.002759 225.080626 
L 226.924138 225.080626 
L 223.845517 225.080626 
L 220.766897 225.080626 
L 217.688276 225.080626 
L 214.609655 225.080626 
L 211.531034 225.080626 
L 208.452414 225.080626 
L 202.295172 225.080626 
L 199.216552 225.080626 
L 193.05931 224.927901 
L 189.98069 224.927901 
L 186.902069 224.927901 
L 183.823448 224.769854 
L 177.666207 224.769854 
L 174.587586 224.769854 
L 171.508966 224.769854 
L 168.430345 224.769854 
L 165.351724 224.769854 
L 162.273103 224.769854 
L 159.194483 224.769854 
L 156.115862 224.769854 
L 149.958621 224.769854 
L 146.88 224.769854 
L 143.801379 224.769854 
L 140.722759 224.769854 
L 137.644138 224.769854 
L 134.565517 224.769854 
L 131.486897 224.769854 
L 128.408276 224.769854 
L 125.329655 224.769854 
L 122.251034 224.769854 
L 119.172414 224.769854 
L 116.093793 224.769854 
L 106.857931 224.769854 
L 103.77931 224.769854 
L 100.70069 224.769854 
L 97.622069 224.769854 
L 94.543448 224.769854 
L 91.464828 224.769854 
L 79.150345 224.769854 
L 57.6 224.769854 
L 57.6 226.944 
L 57.6 229.632 
L 57.6 232.32 
L 57.6 235.008 
L 57.6 237.696 
L 57.6 240.384 
L 57.6 243.072 
L 57.6 245.76 
L 57.6 248.448 
L 57.6 251.136 
L 57.6 253.824 
L 57.6 256.512 
L 57.6 259.2 
L 57.6 261.888 
L 57.6 264.576 
L 57.6 267.264 
L 57.6 269.952 
L 57.6 272.64 
L 57.6 275.328 
L 57.6 278.016 
L 57.6 280.704 
L 57.6 283.392 
L 57.6 286.08 
L 57.6 288.768 
L 57.6 291.456 
L 57.6 294.144 
L 57.6 296.832 
L 57.6 299.52 
L 57.6 302.208 
L 57.6 304.896 
L 57.6 307.584 
z
" clip-path="url(#pe757dc98b3)" style="fill: #481b6d; fill-opacity: 0.75"/>
   </g>
   <g id="PathCollection_2">
    <path d="M 79.150345 224.769854 
L 91.464828 224.769854 
L 94.543448 224.769854 
L 97.622069 224.769854 
L 100.70069 224.769854 
L 103.77931 224.769854 
L 106.857931 224.769854 
L 116.093793 224.769854 
L 119.172414 224.769854 
L 122.251034 224.769854 
L 125.329655 224.769854 
L 128.408276 224.769854 
L 131.486897 224.769854 
L 134.565517 224.769854 
L 137.644138 224.769854 
L 140.722759 224.769854 
L 143.801379 224.769854 
L 146.88 224.769854 
L 149.958621 224.769854 
L 156.115862 224.769854 
L 159.194483 224.769854 
L 162.273103 224.769854 
L 165.351724 224.769854 
L 168.430345 224.769854 
L 171.508966 224.769854 
L 174.587586 224.769854 
L 177.666207 224.769854 
L 183.823448 224.769854 
L 186.902069 224.927901 
L 189.98069 224.927901 
L 193.05931 224.927901 
L 199.216552 225.080626 
L 202.295172 225.080626 
L 208.452414 225.080626 
L 211.531034 225.080626 
L 214.609655 225.080626 
L 217.688276 225.080626 
L 220.766897 225.080626 
L 223.845517 225.080626 
L 226.924138 225.080626 
L 230.002759 225.080626 
L 233.081379 225.080626 
L 236.16 225.080626 
L 239.238621 225.080626 
L 242.317241 225.080626 
L 245.395862 225.080626 
L 248.474483 225.080626 
L 251.553103 225.080626 
L 254.631724 225.080626 
L 257.710345 225.080626 
L 260.788966 225.080626 
L 263.867586 225.080626 
L 266.946207 225.080626 
L 270.024828 225.080626 
L 273.103448 225.080626 
L 276.182069 225.080626 
L 279.26069 225.080626 
L 282.33931 225.080626 
L 285.417931 225.080626 
L 288.496552 225.080626 
L 294.653793 225.080626 
L 297.732414 225.080626 
L 310.046897 225.080626 
L 313.125517 225.080626 
L 316.204138 225.080626 
L 319.282759 225.080626 
L 322.361379 225.080626 
L 334.675862 225.080626 
L 346.990345 225.080626 
L 414.72 225.080626 
L 414.72 224.256 
L 414.72 221.568 
L 414.72 218.88 
L 414.72 216.192 
L 414.72 213.504 
L 414.72 210.816 
L 414.72 208.128 
L 414.72 205.44 
L 414.72 202.752 
L 414.72 200.064 
L 414.72 197.376 
L 414.72 194.688 
L 414.72 192 
L 414.72 189.312 
L 414.72 186.624 
L 414.72 183.936 
L 414.72 181.248 
L 414.72 178.56 
L 414.72 175.872 
L 414.72 173.184 
L 414.72 170.496 
L 414.72 167.808 
L 414.72 165.12 
L 414.72 162.432 
L 414.72 159.744 
L 414.72 157.056 
L 414.72 154.368 
L 414.72 151.68 
L 414.72 151.042487 
L 346.990345 151.042487 
L 334.675862 151.042487 
L 322.361379 151.042487 
L 319.282759 151.042487 
L 316.204138 151.042487 
L 313.125517 151.042487 
L 310.046897 151.042487 
L 297.732414 151.042487 
L 294.653793 151.042487 
L 288.496552 151.042487 
L 285.417931 151.042487 
L 282.33931 151.042487 
L 279.26069 151.042487 
L 276.182069 151.042487 
L 273.103448 151.042487 
L 270.024828 151.042487 
L 266.946207 151.042487 
L 263.867586 151.042487 
L 260.788966 151.042487 
L 257.710345 151.042487 
L 254.631724 151.042487 
L 251.553103 151.042487 
L 248.474483 151.042487 
L 245.395862 151.042487 
L 242.317241 151.042487 
L 239.238621 151.042487 
L 236.16 151.042487 
L 233.081379 151.042487 
L 230.002759 151.042487 
L 226.924138 151.042487 
L 223.845517 151.042487 
L 220.766897 151.042487 
L 217.688276 151.042487 
L 214.609655 151.042487 
L 211.531034 151.042487 
L 208.452414 151.042487 
L 202.295172 151.042487 
L 199.216552 151.042487 
L 193.05931 150.939718 
L 189.98069 150.939718 
L 186.902069 150.939718 
L 183.823448 150.833369 
L 177.666207 150.833369 
L 174.587586 150.833369 
L 171.508966 150.833369 
L 168.430345 150.833369 
L 165.351724 150.833369 
L 162.273103 150.833369 
L 159.194483 150.833369 
L 156.115862 150.833369 
L 149.958621 150.833369 
L 146.88 150.833369 
L 143.801379 150.833369 
L 140.722759 150.833369 
L 137.644138 150.833369 
L 134.565517 150.833369 
L 131.486897 150.833369 
L 128.408276 150.833369 
L 125.329655 150.833369 
L 122.251034 150.833369 
L 119.172414 150.833369 
L 116.093793 150.833369 
L 106.857931 150.833369 
L 103.77931 150.833369 
L 100.70069 150.833369 
L 97.622069 150.833369 
L 94.543448 150.833369 
L 91.464828 150.833369 
L 79.150345 150.833369 
L 57.6 150.833369 
L 57.6 151.68 
L 57.6 154.368 
L 57.6 157.056 
L 57.6 159.744 
L 57.6 162.432 
L 57.6 165.12 
L 57.6 167.808 
L 57.6 170.496 
L 57.6 173.184 
L 57.6 175.872 
L 57.6 178.56 
L 57.6 181.248 
L 57.6 183.936 
L 57.6 186.624 
L 57.6 189.312 
L 57.6 192 
L 57.6 194.688 
L 57.6 197.376 
L 57.6 200.064 
L 57.6 202.752 
L 57.6 205.44 
L 57.6 208.128 
L 57.6 210.816 
L 57.6 213.504 
L 57.6 216.192 
L 57.6 218.88 
L 57.6 221.568 
L 57.6 224.256 
L 57.6 224.769854 
z
" clip-path="url(#pe757dc98b3)" style="fill: #3f4788; fill-opacity: 0.75"/>
   </g>
   <g id="PathCollection_3">
    <path d="M 79.150345 150.833369 
L 91.464828 150.833369 
L 94.543448 150.833369 
L 97.622069 150.833369 
L 100.70069 150.833369 
L 103.77931 150.833369 
L 106.857931 150.833369 
L 116.093793 150.833369 
L 119.172414 150.833369 
L 122.251034 150.833369 
L 125.329655 150.833369 
L 128.408276 150.833369 
L 131.486897 150.833369 
L 134.565517 150.833369 
L 137.644138 150.833369 
L 140.722759 150.833369 
L 143.801379 150.833369 
L 146.88 150.833369 
L 149.958621 150.833369 
L 156.115862 150.833369 
L 159.194483 150.833369 
L 162.273103 150.833369 
L 165.351724 150.833369 
L 168.430345 150.833369 
L 171.508966 150.833369 
L 174.587586 150.833369 
L 177.666207 150.833369 
L 183.823448 150.833369 
L 186.902069 150.939718 
L 189.98069 150.939718 
L 193.05931 150.939718 
L 199.216552 151.042487 
L 202.295172 151.042487 
L 208.452414 151.042487 
L 211.531034 151.042487 
L 214.609655 151.042487 
L 217.688276 151.042487 
L 220.766897 151.042487 
L 223.845517 151.042487 
L 226.924138 151.042487 
L 230.002759 151.042487 
L 233.081379 151.042487 
L 236.16 151.042487 
L 239.238621 151.042487 
L 242.317241 151.042487 
L 245.395862 151.042487 
L 248.474483 151.042487 
L 251.553103 151.042487 
L 254.631724 151.042487 
L 257.710345 151.042487 
L 260.788966 151.042487 
L 263.867586 151.042487 
L 266.946207 151.042487 
L 270.024828 151.042487 
L 273.103448 151.042487 
L 276.182069 151.042487 
L 279.26069 151.042487 
L 282.33931 151.042487 
L 285.417931 151.042487 
L 288.496552 151.042487 
L 294.653793 151.042487 
L 297.732414 151.042487 
L 310.046897 151.042487 
L 313.125517 151.042487 
L 316.204138 151.042487 
L 319.282759 151.042487 
L 322.361379 151.042487 
L 334.675862 151.042487 
L 346.990345 151.042487 
L 414.72 151.042487 
L 414.72 148.992 
L 414.72 148.44681 
L 346.990345 148.44681 
L 334.675862 148.44681 
L 322.361379 148.44681 
L 319.282759 148.44681 
L 316.204138 148.44681 
L 313.125517 148.44681 
L 310.046897 148.44681 
L 297.732414 148.44681 
L 294.653793 148.44681 
L 288.496552 148.44681 
L 285.417931 148.44681 
L 282.33931 148.44681 
L 279.26069 148.44681 
L 276.182069 148.44681 
L 273.103448 148.44681 
L 270.024828 148.44681 
L 266.946207 148.44681 
L 263.867586 148.44681 
L 260.788966 148.44681 
L 257.710345 148.44681 
L 254.631724 148.44681 
L 251.553103 148.44681 
L 248.474483 148.44681 
L 245.395862 148.44681 
L 242.317241 148.44681 
L 239.238621 148.44681 
L 236.16 148.44681 
L 233.081379 148.44681 
L 230.002759 148.44681 
L 226.924138 148.44681 
L 223.845517 148.44681 
L 220.766897 148.44681 
L 217.688276 148.44681 
L 214.609655 148.44681 
L 211.531034 148.44681 
L 208.452414 148.44681 
L 202.295172 148.44681 
L 199.216552 148.44681 
L 193.05931 148.364426 
L 189.98069 148.364426 
L 186.902069 148.364426 
L 183.823448 148.279171 
L 177.666207 148.279171 
L 174.587586 148.279171 
L 171.508966 148.279171 
L 168.430345 148.279171 
L 165.351724 148.279171 
L 162.273103 148.279171 
L 159.194483 148.279171 
L 156.115862 148.279171 
L 149.958621 148.279171 
L 146.88 148.279171 
L 143.801379 148.279171 
L 140.722759 148.279171 
L 137.644138 148.279171 
L 134.565517 148.279171 
L 131.486897 148.279171 
L 128.408276 148.279171 
L 125.329655 148.279171 
L 122.251034 148.279171 
L 119.172414 148.279171 
L 116.093793 148.279171 
L 106.857931 148.279171 
L 103.77931 148.279171 
L 100.70069 148.279171 
L 97.622069 148.279171 
L 94.543448 148.279171 
L 91.464828 148.279171 
L 79.150345 148.279171 
L 57.6 148.279171 
L 57.6 148.992 
L 57.6 150.833369 
z
" clip-path="url(#pe757dc98b3)" style="fill: #2e6e8e; fill-opacity: 0.75"/>
   </g>
   <g id="PathCollection_4">
    <path d="M 79.150345 148.279171 
L 91.464828 148.279171 
L 94.543448 148.279171 
L 97.622069 148.279171 
L 100.70069 148.279171 
L 103.77931 148.279171 
L 106.857931 148.279171 
L 116.093793 148.279171 
L 119.172414 148.279171 
L 122.251034 148.279171 
L 125.329655 148.279171 
L 128.408276 148.279171 
L 131.486897 148.279171 
L 134.565517 148.279171 
L 137.644138 148.279171 
L 140.722759 148.279171 
L 143.801379 148.279171 
L 146.88 148.279171 
L 149.958621 148.279171 
L 156.115862 148.279171 
L 159.194483 148.279171 
L 162.273103 148.279171 
L 165.351724 148.279171 
L 168.430345 148.279171 
L 171.508966 148.279171 
L 174.587586 148.279171 
L 177.666207 148.279171 
L 183.823448 148.279171 
L 186.902069 148.364426 
L 189.98069 148.364426 
L 193.05931 148.364426 
L 199.216552 148.44681 
L 202.295172 148.44681 
L 208.452414 148.44681 
L 211.531034 148.44681 
L 214.609655 148.44681 
L 217.688276 148.44681 
L 220.766897 148.44681 
L 223.845517 148.44681 
L 226.924138 148.44681 
L 230.002759 148.44681 
L 233.081379 148.44681 
L 236.16 148.44681 
L 239.238621 148.44681 
L 242.317241 148.44681 
L 245.395862 148.44681 
L 248.474483 148.44681 
L 251.553103 148.44681 
L 254.631724 148.44681 
L 257.710345 148.44681 
L 260.788966 148.44681 
L 263.867586 148.44681 
L 266.946207 148.44681 
L 270.024828 148.44681 
L 273.103448 148.44681 
L 276.182069 148.44681 
L 279.26069 148.44681 
L 282.33931 148.44681 
L 285.417931 148.44681 
L 288.496552 148.44681 
L 294.653793 148.44681 
L 297.732414 148.44681 
L 310.046897 148.44681 
L 313.125517 148.44681 
L 316.204138 148.44681 
L 319.282759 148.44681 
L 322.361379 148.44681 
L 334.675862 148.44681 
L 346.990345 148.44681 
L 414.72 148.44681 
L 414.72 146.304 
L 414.72 143.616 
L 414.72 143.443199 
L 346.990345 143.443199 
L 334.675862 143.443199 
L 322.361379 143.443199 
L 319.282759 143.443199 
L 316.204138 143.443199 
L 313.125517 143.443199 
L 310.046897 143.443199 
L 297.732414 143.443199 
L 294.653793 143.443199 
L 288.496552 143.443199 
L 285.417931 143.443199 
L 282.33931 143.443199 
L 279.26069 143.443199 
L 276.182069 143.443199 
L 273.103448 143.443199 
L 270.024828 143.443199 
L 266.946207 143.443199 
L 263.867586 143.443199 
L 260.788966 143.443199 
L 257.710345 143.443199 
L 254.631724 143.443199 
L 251.553103 143.443199 
L 248.474483 143.443199 
L 245.395862 143.443199 
L 242.317241 143.443199 
L 239.238621 143.443199 
L 236.16 143.443199 
L 233.081379 143.443199 
L 230.002759 143.443199 
L 226.924138 143.443199 
L 223.845517 143.443199 
L 220.766897 143.443199 
L 217.688276 143.443199 
L 214.609655 143.443199 
L 211.531034 143.443199 
L 208.452414 143.443199 
L 202.295172 143.443199 
L 199.216552 143.443199 
L 193.05931 143.134692 
L 189.98069 143.134692 
L 186.902069 143.134692 
L 183.823448 142.815435 
L 177.666207 142.815435 
L 174.587586 142.815435 
L 171.508966 142.815435 
L 168.430345 142.815435 
L 165.351724 142.815435 
L 162.273103 142.815435 
L 159.194483 142.815435 
L 156.115862 142.815435 
L 149.958621 142.815435 
L 146.88 142.815435 
L 143.801379 142.815435 
L 140.722759 142.815435 
L 137.644138 142.815435 
L 134.565517 142.815435 
L 131.486897 142.815435 
L 128.408276 142.815435 
L 125.329655 142.815435 
L 122.251034 142.815435 
L 119.172414 142.815435 
L 116.093793 142.815435 
L 106.857931 142.815435 
L 103.77931 142.815435 
L 100.70069 142.815435 
L 97.622069 142.815435 
L 94.543448 142.815435 
L 91.464828 142.815435 
L 79.150345 142.815435 
L 57.6 142.815435 
L 57.6 143.616 
L 57.6 146.304 
L 57.6 148.279171 
z
" clip-path="url(#pe757dc98b3)" style="fill: #21918c; fill-opacity: 0.75"/>
   </g>
   <g id="PathCollection_5">
    <path d="M 79.150345 142.815435 
L 91.464828 142.815435 
L 94.543448 142.815435 
L 97.622069 142.815435 
L 100.70069 142.815435 
L 103.77931 142.815435 
L 106.857931 142.815435 
L 116.093793 142.815435 
L 119.172414 142.815435 
L 122.251034 142.815435 
L 125.329655 142.815435 
L 128.408276 142.815435 
L 131.486897 142.815435 
L 134.565517 142.815435 
L 137.644138 142.815435 
L 140.722759 142.815435 
L 143.801379 142.815435 
L 146.88 142.815435 
L 149.958621 142.815435 
L 156.115862 142.815435 
L 159.194483 142.815435 
L 162.273103 142.815435 
L 165.351724 142.815435 
L 168.430345 142.815435 
L 171.508966 142.815435 
L 174.587586 142.815435 
L 177.666207 142.815435 
L 183.823448 142.815435 
L 186.902069 143.134692 
L 189.98069 143.134692 
L 193.05931 143.134692 
L 199.216552 143.443199 
L 202.295172 143.443199 
L 208.452414 143.443199 
L 211.531034 143.443199 
L 214.609655 143.443199 
L 217.688276 143.443199 
L 220.766897 143.443199 
L 223.845517 143.443199 
L 226.924138 143.443199 
L 230.002759 143.443199 
L 233.081379 143.443199 
L 236.16 143.443199 
L 239.238621 143.443199 
L 242.317241 143.443199 
L 245.395862 143.443199 
L 248.474483 143.443199 
L 251.553103 143.443199 
L 254.631724 143.443199 
L 257.710345 143.443199 
L 260.788966 143.443199 
L 263.867586 143.443199 
L 266.946207 143.443199 
L 270.024828 143.443199 
L 273.103448 143.443199 
L 276.182069 143.443199 
L 279.26069 143.443199 
L 282.33931 143.443199 
L 285.417931 143.443199 
L 288.496552 143.443199 
L 294.653793 143.443199 
L 297.732414 143.443199 
L 310.046897 143.443199 
L 313.125517 143.443199 
L 316.204138 143.443199 
L 319.282759 143.443199 
L 322.361379 143.443199 
L 334.675862 143.443199 
L 346.990345 143.443199 
L 414.72 143.443199 
L 414.72 140.928 
L 414.72 138.24 
L 414.72 135.552 
L 414.72 132.864 
L 414.72 130.176 
L 414.72 127.488 
L 414.72 125.358913 
L 346.990345 125.358913 
L 334.675862 125.358913 
L 322.361379 125.358913 
L 319.282759 125.358913 
L 316.204138 125.358913 
L 313.125517 125.358913 
L 310.046897 125.358913 
L 297.732414 125.358913 
L 294.653793 125.358913 
L 288.496552 125.358913 
L 285.417931 125.358913 
L 282.33931 125.358913 
L 279.26069 125.358913 
L 276.182069 125.358913 
L 273.103448 125.358913 
L 270.024828 125.358913 
L 266.946207 125.358913 
L 263.867586 125.358913 
L 260.788966 125.358913 
L 257.710345 125.358913 
L 254.631724 125.358913 
L 251.553103 125.358913 
L 248.474483 125.358913 
L 245.395862 125.358913 
L 242.317241 125.358913 
L 239.238621 125.358913 
L 236.16 125.358913 
L 233.081379 125.358913 
L 230.002759 125.358913 
L 226.924138 125.358913 
L 223.845517 125.358913 
L 220.766897 125.358913 
L 217.688276 125.358913 
L 214.609655 125.358913 
L 211.531034 125.358913 
L 208.452414 125.358913 
L 202.295172 125.358913 
L 199.216552 125.358913 
L 193.05931 125.227147 
L 189.98069 125.227147 
L 186.902069 125.227147 
L 183.823448 125.09079 
L 177.666207 125.09079 
L 174.587586 125.09079 
L 171.508966 125.09079 
L 168.430345 125.09079 
L 165.351724 125.09079 
L 162.273103 125.09079 
L 159.194483 125.09079 
L 156.115862 125.09079 
L 149.958621 125.09079 
L 146.88 125.09079 
L 143.801379 125.09079 
L 140.722759 125.09079 
L 137.644138 125.09079 
L 134.565517 125.09079 
L 131.486897 125.09079 
L 128.408276 125.09079 
L 125.329655 125.09079 
L 122.251034 125.09079 
L 119.172414 125.09079 
L 116.093793 125.09079 
L 106.857931 125.09079 
L 103.77931 125.09079 
L 100.70069 125.09079 
L 97.622069 125.09079 
L 94.543448 125.09079 
L 91.464828 125.09079 
L 79.150345 125.09079 
L 57.6 125.09079 
L 57.6 127.488 
L 57.6 130.176 
L 57.6 132.864 
L 57.6 135.552 
L 57.6 138.24 
L 57.6 140.928 
L 57.6 142.815435 
z
" clip-path="url(#pe757dc98b3)" style="fill: #2db27d; fill-opacity: 0.75"/>
   </g>
   <g id="PathCollection_6">
    <path d="M 79.150345 125.09079 
L 91.464828 125.09079 
L 94.543448 125.09079 
L 97.622069 125.09079 
L 100.70069 125.09079 
L 103.77931 125.09079 
L 106.857931 125.09079 
L 116.093793 125.09079 
L 119.172414 125.09079 
L 122.251034 125.09079 
L 125.329655 125.09079 
L 128.408276 125.09079 
L 131.486897 125.09079 
L 134.565517 125.09079 
L 137.644138 125.09079 
L 140.722759 125.09079 
L 143.801379 125.09079 
L 146.88 125.09079 
L 149.958621 125.09079 
L 156.115862 125.09079 
L 159.194483 125.09079 
L 162.273103 125.09079 
L 165.351724 125.09079 
L 168.430345 125.09079 
L 171.508966 125.09079 
L 174.587586 125.09079 
L 177.666207 125.09079 
L 183.823448 125.09079 
L 186.902069 125.227147 
L 189.98069 125.227147 
L 193.05931 125.227147 
L 199.216552 125.358913 
L 202.295172 125.358913 
L 208.452414 125.358913 
L 211.531034 125.358913 
L 214.609655 125.358913 
L 217.688276 125.358913 
L 220.766897 125.358913 
L 223.845517 125.358913 
L 226.924138 125.358913 
L 230.002759 125.358913 
L 233.081379 125.358913 
L 236.16 125.358913 
L 239.238621 125.358913 
L 242.317241 125.358913 
L 245.395862 125.358913 
L 248.474483 125.358913 
L 251.553103 125.358913 
L 254.631724 125.358913 
L 257.710345 125.358913 
L 260.788966 125.358913 
L 263.867586 125.358913 
L 266.946207 125.358913 
L 270.024828 125.358913 
L 273.103448 125.358913 
L 276.182069 125.358913 
L 279.26069 125.358913 
L 282.33931 125.358913 
L 285.417931 125.358913 
L 288.496552 125.358913 
L 294.653793 125.358913 
L 297.732414 125.358913 
L 310.046897 125.358913 
L 313.125517 125.358913 
L 316.204138 125.358913 
L 319.282759 125.358913 
L 322.361379 125.358913 
L 334.675862 125.358913 
L 346.990345 125.358913 
L 414.72 125.358913 
L 414.72 124.8 
L 414.72 122.112 
L 414.72 119.424 
L 414.72 116.736 
L 414.72 114.048 
L 414.72 111.36 
L 414.72 108.672 
L 414.72 105.984 
L 414.72 103.296 
L 414.72 100.608 
L 414.72 97.92 
L 414.72 95.803902 
L 346.990345 95.803902 
L 334.675862 95.803902 
L 322.361379 95.803902 
L 319.282759 95.803902 
L 316.204138 95.803902 
L 313.125517 95.803902 
L 310.046897 95.803902 
L 297.732414 95.803902 
L 294.653793 95.803902 
L 288.496552 95.803902 
L 285.417931 95.803902 
L 282.33931 95.803902 
L 279.26069 95.803902 
L 276.182069 95.803902 
L 273.103448 95.803902 
L 270.024828 95.803902 
L 266.946207 95.803902 
L 263.867586 95.803902 
L 260.788966 95.803902 
L 257.710345 95.803902 
L 254.631724 95.803902 
L 251.553103 95.803902 
L 248.474483 95.803902 
L 245.395862 95.803902 
L 242.317241 95.803902 
L 239.238621 95.803902 
L 236.16 95.803902 
L 233.081379 95.803902 
L 230.002759 95.803902 
L 226.924138 95.803902 
L 223.845517 95.803902 
L 220.766897 95.803902 
L 217.688276 95.803902 
L 214.609655 95.803902 
L 211.531034 95.803902 
L 208.452414 95.803902 
L 202.295172 95.803902 
L 199.216552 95.803902 
L 193.05931 95.580181 
L 189.98069 95.580181 
L 186.902069 95.580181 
L 183.823448 95.348665 
L 177.666207 95.348665 
L 174.587586 95.348665 
L 171.508966 95.348665 
L 168.430345 95.348665 
L 165.351724 95.348665 
L 162.273103 95.348665 
L 159.194483 95.348665 
L 156.115862 95.348665 
L 149.958621 95.348665 
L 146.88 95.348665 
L 143.801379 95.348665 
L 140.722759 95.348665 
L 137.644138 95.348665 
L 134.565517 95.348665 
L 131.486897 95.348665 
L 128.408276 95.348665 
L 125.329655 95.348665 
L 122.251034 95.348665 
L 119.172414 95.348665 
L 116.093793 95.348665 
L 106.857931 95.348665 
L 103.77931 95.348665 
L 100.70069 95.348665 
L 97.622069 95.348665 
L 94.543448 95.348665 
L 91.464828 95.348665 
L 79.150345 95.348665 
L 57.6 95.348665 
L 57.6 97.92 
L 57.6 100.608 
L 57.6 103.296 
L 57.6 105.984 
L 57.6 108.672 
L 57.6 111.36 
L 57.6 114.048 
L 57.6 116.736 
L 57.6 119.424 
L 57.6 122.112 
L 57.6 124.8 
L 57.6 125.09079 
z
" clip-path="url(#pe757dc98b3)" style="fill: #73d056; fill-opacity: 0.75"/>
   </g>
   <g id="PathCollection_7">
    <path d="M 79.150345 95.348665 
L 91.464828 95.348665 
L 94.543448 95.348665 
L 97.622069 95.348665 
L 100.70069 95.348665 
L 103.77931 95.348665 
L 106.857931 95.348665 
L 116.093793 95.348665 
L 119.172414 95.348665 
L 122.251034 95.348665 
L 125.329655 95.348665 
L 128.408276 95.348665 
L 131.486897 95.348665 
L 134.565517 95.348665 
L 137.644138 95.348665 
L 140.722759 95.348665 
L 143.801379 95.348665 
L 146.88 95.348665 
L 149.958621 95.348665 
L 156.115862 95.348665 
L 159.194483 95.348665 
L 162.273103 95.348665 
L 165.351724 95.348665 
L 168.430345 95.348665 
L 171.508966 95.348665 
L 174.587586 95.348665 
L 177.666207 95.348665 
L 183.823448 95.348665 
L 186.902069 95.580181 
L 189.98069 95.580181 
L 193.05931 95.580181 
L 199.216552 95.803902 
L 202.295172 95.803902 
L 208.452414 95.803902 
L 211.531034 95.803902 
L 214.609655 95.803902 
L 217.688276 95.803902 
L 220.766897 95.803902 
L 223.845517 95.803902 
L 226.924138 95.803902 
L 230.002759 95.803902 
L 233.081379 95.803902 
L 236.16 95.803902 
L 239.238621 95.803902 
L 242.317241 95.803902 
L 245.395862 95.803902 
L 248.474483 95.803902 
L 251.553103 95.803902 
L 254.631724 95.803902 
L 257.710345 95.803902 
L 260.788966 95.803902 
L 263.867586 95.803902 
L 266.946207 95.803902 
L 270.024828 95.803902 
L 273.103448 95.803902 
L 276.182069 95.803902 
L 279.26069 95.803902 
L 282.33931 95.803902 
L 285.417931 95.803902 
L 288.496552 95.803902 
L 294.653793 95.803902 
L 297.732414 95.803902 
L 310.046897 95.803902 
L 313.125517 95.803902 
L 316.204138 95.803902 
L 319.282759 95.803902 
L 322.361379 95.803902 
L 334.675862 95.803902 
L 346.990345 95.803902 
L 414.72 95.803902 
L 414.72 95.232 
L 414.72 92.544 
L 414.72 89.856 
L 414.72 87.168 
L 414.72 84.48 
L 414.72 81.792 
L 414.72 79.104 
L 414.72 76.416 
L 414.72 73.728 
L 414.72 71.04 
L 414.72 68.352 
L 414.72 65.664 
L 414.72 62.976 
L 414.72 60.288 
L 414.72 57.6 
L 414.72 54.912 
L 414.72 52.224 
L 414.72 49.536 
L 414.72 46.848 
L 414.72 44.16 
L 414.72 41.472 
L 346.990345 41.472 
L 334.675862 41.472 
L 322.361379 41.472 
L 319.282759 41.472 
L 316.204138 41.472 
L 313.125517 41.472 
L 310.046897 41.472 
L 297.732414 41.472 
L 294.653793 41.472 
L 288.496552 41.472 
L 285.417931 41.472 
L 282.33931 41.472 
L 279.26069 41.472 
L 276.182069 41.472 
L 273.103448 41.472 
L 270.024828 41.472 
L 266.946207 41.472 
L 263.867586 41.472 
L 260.788966 41.472 
L 257.710345 41.472 
L 254.631724 41.472 
L 251.553103 41.472 
L 248.474483 41.472 
L 245.395862 41.472 
L 242.317241 41.472 
L 239.238621 41.472 
L 236.16 41.472 
L 233.081379 41.472 
L 230.002759 41.472 
L 226.924138 41.472 
L 223.845517 41.472 
L 220.766897 41.472 
L 217.688276 41.472 
L 214.609655 41.472 
L 211.531034 41.472 
L 208.452414 41.472 
L 202.295172 41.472 
L 199.216552 41.472 
L 193.05931 41.472 
L 189.98069 41.472 
L 186.902069 41.472 
L 183.823448 41.472 
L 177.666207 41.472 
L 174.587586 41.472 
L 171.508966 41.472 
L 168.430345 41.472 
L 165.351724 41.472 
L 162.273103 41.472 
L 159.194483 41.472 
L 156.115862 41.472 
L 149.958621 41.472 
L 146.88 41.472 
L 143.801379 41.472 
L 140.722759 41.472 
L 137.644138 41.472 
L 134.565517 41.472 
L 131.486897 41.472 
L 128.408276 41.472 
L 125.329655 41.472 
L 122.251034 41.472 
L 119.172414 41.472 
L 116.093793 41.472 
L 106.857931 41.472 
L 103.77931 41.472 
L 100.70069 41.472 
L 97.622069 41.472 
L 94.543448 41.472 
L 91.464828 41.472 
L 79.150345 41.472 
L 57.6 41.472 
L 57.6 44.16 
L 57.6 46.848 
L 57.6 49.536 
L 57.6 52.224 
L 57.6 54.912 
L 57.6 57.6 
L 57.6 60.288 
L 57.6 62.976 
L 57.6 65.664 
L 57.6 68.352 
L 57.6 71.04 
L 57.6 73.728 
L 57.6 76.416 
L 57.6 79.104 
L 57.6 81.792 
L 57.6 84.48 
L 57.6 87.168 
L 57.6 89.856 
L 57.6 92.544 
L 57.6 95.232 
L 57.6 95.348665 
z
" clip-path="url(#pe757dc98b3)" style="fill: #d0e11c; fill-opacity: 0.75"/>
   </g>
   <g id="matplotlib.axis_1">
    <g id="xtick_1">
     <g id="line2d_1">
      <defs>
       <path id="me19bfccca8" d="M 0 0 
L 0 3.5 
" style="stroke: #000000; stroke-width: 0.8"/>
      </defs>
      <g>
       <use xlink:href="#me19bfccca8" x="76.898447" y="307.584" style="stroke: #000000; stroke-width: 0.8"/>
      </g>
     </g>
     <g id="text_1">
      <!-- −2 -->
      <g transform="translate(69.527354 322.182437) scale(0.1 -0.1)">
       <defs>
        <path id="DejaVuSans-2212" d="M 678 2272 
L 4684 2272 
L 4684 1741 
L 678 1741 
L 678 2272 
z
" transform="scale(0.015625)"/>
        <path id="DejaVuSans-32" d="M 1228 531 
L 3431 531 
L 3431 0 
L 469 0 
L 469 531 
Q 828 903 1448 1529 
Q 2069 2156 2228 2338 
Q 2531 2678 2651 2914 
Q 2772 3150 2772 3378 
Q 2772 3750 2511 3984 
Q 2250 4219 1831 4219 
Q 1534 4219 1204 4116 
Q 875 4013 500 3803 
L 500 4441 
Q 881 4594 1212 4672 
Q 1544 4750 1819 4750 
Q 2544 4750 2975 4387 
Q 3406 4025 3406 3419 
Q 3406 3131 3298 2873 
Q 3191 2616 2906 2266 
Q 2828 2175 2409 1742 
Q 1991 1309 1228 531 
z
" transform="scale(0.015625)"/>
       </defs>
       <use xlink:href="#DejaVuSans-2212"/>
       <use xlink:href="#DejaVuSans-32" x="83.789062"/>
      </g>
     </g>
    </g>
    <g id="xtick_2">
     <g id="line2d_2">
      <g>
       <use xlink:href="#me19bfccca8" x="142.109362" y="307.584" style="stroke: #000000; stroke-width: 0.8"/>
      </g>
     </g>
     <g id="text_2">
      <!-- −1 -->
      <g transform="translate(134.738268 322.182437) scale(0.1 -0.1)">
       <defs>
        <path id="DejaVuSans-31" d="M 794 531 
L 1825 531 
L 1825 4091 
L 703 3866 
L 703 4441 
L 1819 4666 
L 2450 4666 
L 2450 531 
L 3481 531 
L 3481 0 
L 794 0 
L 794 531 
z
" transform="scale(0.015625)"/>
       </defs>
       <use xlink:href="#DejaVuSans-2212"/>
       <use xlink:href="#DejaVuSans-31" x="83.789062"/>
      </g>
     </g>
    </g>
    <g id="xtick_3">
     <g id="line2d_3">
      <g>
       <use xlink:href="#me19bfccca8" x="207.320276" y="307.584" style="stroke: #000000; stroke-width: 0.8"/>
      </g>
     </g>
     <g id="text_3">
      <!-- 0 -->
      <g transform="translate(204.139026 322.182437) scale(0.1 -0.1)">
       <defs>
        <path id="DejaVuSans-30" d="M 2034 4250 
Q 1547 4250 1301 3770 
Q 1056 3291 1056 2328 
Q 1056 1369 1301 889 
Q 1547 409 2034 409 
Q 2525 409 2770 889 
Q 3016 1369 3016 2328 
Q 3016 3291 2770 3770 
Q 2525 4250 2034 4250 
z
M 2034 4750 
Q 2819 4750 3233 4129 
Q 3647 3509 3647 2328 
Q 3647 1150 3233 529 
Q 2819 -91 2034 -91 
Q 1250 -91 836 529 
Q 422 1150 422 2328 
Q 422 3509 836 4129 
Q 1250 4750 2034 4750 
z
" transform="scale(0.015625)"/>
       </defs>
       <use xlink:href="#DejaVuSans-30"/>
      </g>
     </g>
    </g>
    <g id="xtick_4">
     <g id="line2d_4">
      <g>
       <use xlink:href="#me19bfccca8" x="272.53119" y="307.584" style="stroke: #000000; stroke-width: 0.8"/>
      </g>
     </g>
     <g id="text_4">
      <!-- 1 -->
      <g transform="translate(269.34994 322.182437) scale(0.1 -0.1)">
       <use xlink:href="#DejaVuSans-31"/>
      </g>
     </g>
    </g>
    <g id="xtick_5">
     <g id="line2d_5">
      <g>
       <use xlink:href="#me19bfccca8" x="337.742104" y="307.584" style="stroke: #000000; stroke-width: 0.8"/>
      </g>
     </g>
     <g id="text_5">
      <!-- 2 -->
      <g transform="translate(334.560854 322.182437) scale(0.1 -0.1)">
       <use xlink:href="#DejaVuSans-32"/>
      </g>
     </g>
    </g>
    <g id="xtick_6">
     <g id="line2d_6">
      <g>
       <use xlink:href="#me19bfccca8" x="402.953019" y="307.584" style="stroke: #000000; stroke-width: 0.8"/>
      </g>
     </g>
     <g id="text_6">
      <!-- 3 -->
      <g transform="translate(399.771769 322.182437) scale(0.1 -0.1)">
       <defs>
        <path id="DejaVuSans-33" d="M 2597 2516 
Q 3050 2419 3304 2112 
Q 3559 1806 3559 1356 
Q 3559 666 3084 287 
Q 2609 -91 1734 -91 
Q 1441 -91 1130 -33 
Q 819 25 488 141 
L 488 750 
Q 750 597 1062 519 
Q 1375 441 1716 441 
Q 2309 441 2620 675 
Q 2931 909 2931 1356 
Q 2931 1769 2642 2001 
Q 2353 2234 1838 2234 
L 1294 2234 
L 1294 2753 
L 1863 2753 
Q 2328 2753 2575 2939 
Q 2822 3125 2822 3475 
Q 2822 3834 2567 4026 
Q 2313 4219 1838 4219 
Q 1578 4219 1281 4162 
Q 984 4106 628 3988 
L 628 4550 
Q 988 4650 1302 4700 
Q 1616 4750 1894 4750 
Q 2613 4750 3031 4423 
Q 3450 4097 3450 3541 
Q 3450 3153 3228 2886 
Q 3006 2619 2597 2516 
z
" transform="scale(0.015625)"/>
       </defs>
       <use xlink:href="#DejaVuSans-33"/>
      </g>
     </g>
    </g>
    <g id="text_7">
     <!-- Mean BMI -->
     <g transform="translate(211.727969 335.860562) scale(0.1 -0.1)">
      <defs>
       <path id="DejaVuSans-4d" d="M 628 4666 
L 1569 4666 
L 2759 1491 
L 3956 4666 
L 4897 4666 
L 4897 0 
L 4281 0 
L 4281 4097 
L 3078 897 
L 2444 897 
L 1241 4097 
L 1241 0 
L 628 0 
L 628 4666 
z
" transform="scale(0.015625)"/>
       <path id="DejaVuSans-65" d="M 3597 1894 
L 3597 1613 
L 953 1613 
Q 991 1019 1311 708 
Q 1631 397 2203 397 
Q 2534 397 2845 478 
Q 3156 559 3463 722 
L 3463 178 
Q 3153 47 2828 -22 
Q 2503 -91 2169 -91 
Q 1331 -91 842 396 
Q 353 884 353 1716 
Q 353 2575 817 3079 
Q 1281 3584 2069 3584 
Q 2775 3584 3186 3129 
Q 3597 2675 3597 1894 
z
M 3022 2063 
Q 3016 2534 2758 2815 
Q 2500 3097 2075 3097 
Q 1594 3097 1305 2825 
Q 1016 2553 972 2059 
L 3022 2063 
z
" transform="scale(0.015625)"/>
       <path id="DejaVuSans-61" d="M 2194 1759 
Q 1497 1759 1228 1600 
Q 959 1441 959 1056 
Q 959 750 1161 570 
Q 1363 391 1709 391 
Q 2188 391 2477 730 
Q 2766 1069 2766 1631 
L 2766 1759 
L 2194 1759 
z
M 3341 1997 
L 3341 0 
L 2766 0 
L 2766 531 
Q 2569 213 2275 61 
Q 1981 -91 1556 -91 
Q 1019 -91 701 211 
Q 384 513 384 1019 
Q 384 1609 779 1909 
Q 1175 2209 1959 2209 
L 2766 2209 
L 2766 2266 
Q 2766 2663 2505 2880 
Q 2244 3097 1772 3097 
Q 1472 3097 1187 3025 
Q 903 2953 641 2809 
L 641 3341 
Q 956 3463 1253 3523 
Q 1550 3584 1831 3584 
Q 2591 3584 2966 3190 
Q 3341 2797 3341 1997 
z
" transform="scale(0.015625)"/>
       <path id="DejaVuSans-6e" d="M 3513 2113 
L 3513 0 
L 2938 0 
L 2938 2094 
Q 2938 2591 2744 2837 
Q 2550 3084 2163 3084 
Q 1697 3084 1428 2787 
Q 1159 2491 1159 1978 
L 1159 0 
L 581 0 
L 581 3500 
L 1159 3500 
L 1159 2956 
Q 1366 3272 1645 3428 
Q 1925 3584 2291 3584 
Q 2894 3584 3203 3211 
Q 3513 2838 3513 2113 
z
" transform="scale(0.015625)"/>
       <path id="DejaVuSans-20" transform="scale(0.015625)"/>
       <path id="DejaVuSans-42" d="M 1259 2228 
L 1259 519 
L 2272 519 
Q 2781 519 3026 730 
Q 3272 941 3272 1375 
Q 3272 1813 3026 2020 
Q 2781 2228 2272 2228 
L 1259 2228 
z
M 1259 4147 
L 1259 2741 
L 2194 2741 
Q 2656 2741 2882 2914 
Q 3109 3088 3109 3444 
Q 3109 3797 2882 3972 
Q 2656 4147 2194 4147 
L 1259 4147 
z
M 628 4666 
L 2241 4666 
Q 2963 4666 3353 4366 
Q 3744 4066 3744 3513 
Q 3744 3084 3544 2831 
Q 3344 2578 2956 2516 
Q 3422 2416 3680 2098 
Q 3938 1781 3938 1306 
Q 3938 681 3513 340 
Q 3088 0 2303 0 
L 628 0 
L 628 4666 
z
" transform="scale(0.015625)"/>
       <path id="DejaVuSans-49" d="M 628 4666 
L 1259 4666 
L 1259 0 
L 628 0 
L 628 4666 
z
" transform="scale(0.015625)"/>
      </defs>
      <use xlink:href="#DejaVuSans-4d"/>
      <use xlink:href="#DejaVuSans-65" x="86.279297"/>
      <use xlink:href="#DejaVuSans-61" x="147.802734"/>
      <use xlink:href="#DejaVuSans-6e" x="209.082031"/>
      <use xlink:href="#DejaVuSans-20" x="272.460938"/>
      <use xlink:href="#DejaVuSans-42" x="304.248047"/>
      <use xlink:href="#DejaVuSans-4d" x="372.851562"/>
      <use xlink:href="#DejaVuSans-49" x="459.130859"/>
     </g>
    </g>
   </g>
   <g id="matplotlib.axis_2">
    <g id="ytick_1">
     <g id="line2d_7">
      <defs>
       <path id="m88108ed6cd" d="M 0 0 
L -3.5 0 
" style="stroke: #000000; stroke-width: 0.8"/>
      </defs>
      <g>
       <use xlink:href="#m88108ed6cd" x="57.6" y="300.926179" style="stroke: #000000; stroke-width: 0.8"/>
      </g>
     </g>
     <g id="text_8">
      <!-- −1.0 -->
      <g transform="translate(26.317187 304.725398) scale(0.1 -0.1)">
       <defs>
        <path id="DejaVuSans-2e" d="M 684 794 
L 1344 794 
L 1344 0 
L 684 0 
L 684 794 
z
" transform="scale(0.015625)"/>
       </defs>
       <use xlink:href="#DejaVuSans-2212"/>
       <use xlink:href="#DejaVuSans-31" x="83.789062"/>
       <use xlink:href="#DejaVuSans-2e" x="147.412109"/>
       <use xlink:href="#DejaVuSans-30" x="179.199219"/>
      </g>
     </g>
    </g>
    <g id="ytick_2">
     <g id="line2d_8">
      <g>
       <use xlink:href="#m88108ed6cd" x="57.6" y="262.995577" style="stroke: #000000; stroke-width: 0.8"/>
      </g>
     </g>
     <g id="text_9">
      <!-- −0.5 -->
      <g transform="translate(26.317187 266.794795) scale(0.1 -0.1)">
       <defs>
        <path id="DejaVuSans-35" d="M 691 4666 
L 3169 4666 
L 3169 4134 
L 1269 4134 
L 1269 2991 
Q 1406 3038 1543 3061 
Q 1681 3084 1819 3084 
Q 2600 3084 3056 2656 
Q 3513 2228 3513 1497 
Q 3513 744 3044 326 
Q 2575 -91 1722 -91 
Q 1428 -91 1123 -41 
Q 819 9 494 109 
L 494 744 
Q 775 591 1075 516 
Q 1375 441 1709 441 
Q 2250 441 2565 725 
Q 2881 1009 2881 1497 
Q 2881 1984 2565 2268 
Q 2250 2553 1709 2553 
Q 1456 2553 1204 2497 
Q 953 2441 691 2322 
L 691 4666 
z
" transform="scale(0.015625)"/>
       </defs>
       <use xlink:href="#DejaVuSans-2212"/>
       <use xlink:href="#DejaVuSans-30" x="83.789062"/>
       <use xlink:href="#DejaVuSans-2e" x="147.412109"/>
       <use xlink:href="#DejaVuSans-35" x="179.199219"/>
      </g>
     </g>
    </g>
    <g id="ytick_3">
     <g id="line2d_9">
      <g>
       <use xlink:href="#m88108ed6cd" x="57.6" y="225.064974" style="stroke: #000000; stroke-width: 0.8"/>
      </g>
     </g>
     <g id="text_10">
      <!-- 0.0 -->
      <g transform="translate(34.696875 228.864193) scale(0.1 -0.1)">
       <use xlink:href="#DejaVuSans-30"/>
       <use xlink:href="#DejaVuSans-2e" x="63.623047"/>
       <use xlink:href="#DejaVuSans-30" x="95.410156"/>
      </g>
     </g>
    </g>
    <g id="ytick_4">
     <g id="line2d_10">
      <g>
       <use xlink:href="#m88108ed6cd" x="57.6" y="187.134372" style="stroke: #000000; stroke-width: 0.8"/>
      </g>
     </g>
     <g id="text_11">
      <!-- 0.5 -->
      <g transform="translate(34.696875 190.93359) scale(0.1 -0.1)">
       <use xlink:href="#DejaVuSans-30"/>
       <use xlink:href="#DejaVuSans-2e" x="63.623047"/>
       <use xlink:href="#DejaVuSans-35" x="95.410156"/>
      </g>
     </g>
    </g>
    <g id="ytick_5">
     <g id="line2d_11">
      <g>
       <use xlink:href="#m88108ed6cd" x="57.6" y="149.203769" style="stroke: #000000; stroke-width: 0.8"/>
      </g>
     </g>
     <g id="text_12">
      <!-- 1.0 -->
      <g transform="translate(34.696875 153.002988) scale(0.1 -0.1)">
       <use xlink:href="#DejaVuSans-31"/>
       <use xlink:href="#DejaVuSans-2e" x="63.623047"/>
       <use xlink:href="#DejaVuSans-30" x="95.410156"/>
      </g>
     </g>
    </g>
    <g id="ytick_6">
     <g id="line2d_12">
      <g>
       <use xlink:href="#m88108ed6cd" x="57.6" y="111.273167" style="stroke: #000000; stroke-width: 0.8"/>
      </g>
     </g>
     <g id="text_13">
      <!-- 1.5 -->
      <g transform="translate(34.696875 115.072385) scale(0.1 -0.1)">
       <use xlink:href="#DejaVuSans-31"/>
       <use xlink:href="#DejaVuSans-2e" x="63.623047"/>
       <use xlink:href="#DejaVuSans-35" x="95.410156"/>
      </g>
     </g>
    </g>
    <g id="ytick_7">
     <g id="line2d_13">
      <g>
       <use xlink:href="#m88108ed6cd" x="57.6" y="73.342564" style="stroke: #000000; stroke-width: 0.8"/>
      </g>
     </g>
     <g id="text_14">
      <!-- 2.0 -->
      <g transform="translate(34.696875 77.141783) scale(0.1 -0.1)">
       <use xlink:href="#DejaVuSans-32"/>
       <use xlink:href="#DejaVuSans-2e" x="63.623047"/>
       <use xlink:href="#DejaVuSans-30" x="95.410156"/>
      </g>
     </g>
    </g>
    <g id="text_15">
     <!-- Vegetable Consumption -->
     <g transform="translate(20.2375 234.256125) rotate(-90) scale(0.1 -0.1)">
      <defs>
       <path id="DejaVuSans-56" d="M 1831 0 
L 50 4666 
L 709 4666 
L 2188 738 
L 3669 4666 
L 4325 4666 
L 2547 0 
L 1831 0 
z
" transform="scale(0.015625)"/>
       <path id="DejaVuSans-67" d="M 2906 1791 
Q 2906 2416 2648 2759 
Q 2391 3103 1925 3103 
Q 1463 3103 1205 2759 
Q 947 2416 947 1791 
Q 947 1169 1205 825 
Q 1463 481 1925 481 
Q 2391 481 2648 825 
Q 2906 1169 2906 1791 
z
M 3481 434 
Q 3481 -459 3084 -895 
Q 2688 -1331 1869 -1331 
Q 1566 -1331 1297 -1286 
Q 1028 -1241 775 -1147 
L 775 -588 
Q 1028 -725 1275 -790 
Q 1522 -856 1778 -856 
Q 2344 -856 2625 -561 
Q 2906 -266 2906 331 
L 2906 616 
Q 2728 306 2450 153 
Q 2172 0 1784 0 
Q 1141 0 747 490 
Q 353 981 353 1791 
Q 353 2603 747 3093 
Q 1141 3584 1784 3584 
Q 2172 3584 2450 3431 
Q 2728 3278 2906 2969 
L 2906 3500 
L 3481 3500 
L 3481 434 
z
" transform="scale(0.015625)"/>
       <path id="DejaVuSans-74" d="M 1172 4494 
L 1172 3500 
L 2356 3500 
L 2356 3053 
L 1172 3053 
L 1172 1153 
Q 1172 725 1289 603 
Q 1406 481 1766 481 
L 2356 481 
L 2356 0 
L 1766 0 
Q 1100 0 847 248 
Q 594 497 594 1153 
L 594 3053 
L 172 3053 
L 172 3500 
L 594 3500 
L 594 4494 
L 1172 4494 
z
" transform="scale(0.015625)"/>
       <path id="DejaVuSans-62" d="M 3116 1747 
Q 3116 2381 2855 2742 
Q 2594 3103 2138 3103 
Q 1681 3103 1420 2742 
Q 1159 2381 1159 1747 
Q 1159 1113 1420 752 
Q 1681 391 2138 391 
Q 2594 391 2855 752 
Q 3116 1113 3116 1747 
z
M 1159 2969 
Q 1341 3281 1617 3432 
Q 1894 3584 2278 3584 
Q 2916 3584 3314 3078 
Q 3713 2572 3713 1747 
Q 3713 922 3314 415 
Q 2916 -91 2278 -91 
Q 1894 -91 1617 61 
Q 1341 213 1159 525 
L 1159 0 
L 581 0 
L 581 4863 
L 1159 4863 
L 1159 2969 
z
" transform="scale(0.015625)"/>
       <path id="DejaVuSans-6c" d="M 603 4863 
L 1178 4863 
L 1178 0 
L 603 0 
L 603 4863 
z
" transform="scale(0.015625)"/>
       <path id="DejaVuSans-43" d="M 4122 4306 
L 4122 3641 
Q 3803 3938 3442 4084 
Q 3081 4231 2675 4231 
Q 1875 4231 1450 3742 
Q 1025 3253 1025 2328 
Q 1025 1406 1450 917 
Q 1875 428 2675 428 
Q 3081 428 3442 575 
Q 3803 722 4122 1019 
L 4122 359 
Q 3791 134 3420 21 
Q 3050 -91 2638 -91 
Q 1578 -91 968 557 
Q 359 1206 359 2328 
Q 359 3453 968 4101 
Q 1578 4750 2638 4750 
Q 3056 4750 3426 4639 
Q 3797 4528 4122 4306 
z
" transform="scale(0.015625)"/>
       <path id="DejaVuSans-6f" d="M 1959 3097 
Q 1497 3097 1228 2736 
Q 959 2375 959 1747 
Q 959 1119 1226 758 
Q 1494 397 1959 397 
Q 2419 397 2687 759 
Q 2956 1122 2956 1747 
Q 2956 2369 2687 2733 
Q 2419 3097 1959 3097 
z
M 1959 3584 
Q 2709 3584 3137 3096 
Q 3566 2609 3566 1747 
Q 3566 888 3137 398 
Q 2709 -91 1959 -91 
Q 1206 -91 779 398 
Q 353 888 353 1747 
Q 353 2609 779 3096 
Q 1206 3584 1959 3584 
z
" transform="scale(0.015625)"/>
       <path id="DejaVuSans-73" d="M 2834 3397 
L 2834 2853 
Q 2591 2978 2328 3040 
Q 2066 3103 1784 3103 
Q 1356 3103 1142 2972 
Q 928 2841 928 2578 
Q 928 2378 1081 2264 
Q 1234 2150 1697 2047 
L 1894 2003 
Q 2506 1872 2764 1633 
Q 3022 1394 3022 966 
Q 3022 478 2636 193 
Q 2250 -91 1575 -91 
Q 1294 -91 989 -36 
Q 684 19 347 128 
L 347 722 
Q 666 556 975 473 
Q 1284 391 1588 391 
Q 1994 391 2212 530 
Q 2431 669 2431 922 
Q 2431 1156 2273 1281 
Q 2116 1406 1581 1522 
L 1381 1569 
Q 847 1681 609 1914 
Q 372 2147 372 2553 
Q 372 3047 722 3315 
Q 1072 3584 1716 3584 
Q 2034 3584 2315 3537 
Q 2597 3491 2834 3397 
z
" transform="scale(0.015625)"/>
       <path id="DejaVuSans-75" d="M 544 1381 
L 544 3500 
L 1119 3500 
L 1119 1403 
Q 1119 906 1312 657 
Q 1506 409 1894 409 
Q 2359 409 2629 706 
Q 2900 1003 2900 1516 
L 2900 3500 
L 3475 3500 
L 3475 0 
L 2900 0 
L 2900 538 
Q 2691 219 2414 64 
Q 2138 -91 1772 -91 
Q 1169 -91 856 284 
Q 544 659 544 1381 
z
M 1991 3584 
L 1991 3584 
z
" transform="scale(0.015625)"/>
       <path id="DejaVuSans-6d" d="M 3328 2828 
Q 3544 3216 3844 3400 
Q 4144 3584 4550 3584 
Q 5097 3584 5394 3201 
Q 5691 2819 5691 2113 
L 5691 0 
L 5113 0 
L 5113 2094 
Q 5113 2597 4934 2840 
Q 4756 3084 4391 3084 
Q 3944 3084 3684 2787 
Q 3425 2491 3425 1978 
L 3425 0 
L 2847 0 
L 2847 2094 
Q 2847 2600 2669 2842 
Q 2491 3084 2119 3084 
Q 1678 3084 1418 2786 
Q 1159 2488 1159 1978 
L 1159 0 
L 581 0 
L 581 3500 
L 1159 3500 
L 1159 2956 
Q 1356 3278 1631 3431 
Q 1906 3584 2284 3584 
Q 2666 3584 2933 3390 
Q 3200 3197 3328 2828 
z
" transform="scale(0.015625)"/>
       <path id="DejaVuSans-70" d="M 1159 525 
L 1159 -1331 
L 581 -1331 
L 581 3500 
L 1159 3500 
L 1159 2969 
Q 1341 3281 1617 3432 
Q 1894 3584 2278 3584 
Q 2916 3584 3314 3078 
Q 3713 2572 3713 1747 
Q 3713 922 3314 415 
Q 2916 -91 2278 -91 
Q 1894 -91 1617 61 
Q 1341 213 1159 525 
z
M 3116 1747 
Q 3116 2381 2855 2742 
Q 2594 3103 2138 3103 
Q 1681 3103 1420 2742 
Q 1159 2381 1159 1747 
Q 1159 1113 1420 752 
Q 1681 391 2138 391 
Q 2594 391 2855 752 
Q 3116 1113 3116 1747 
z
" transform="scale(0.015625)"/>
       <path id="DejaVuSans-69" d="M 603 3500 
L 1178 3500 
L 1178 0 
L 603 0 
L 603 3500 
z
M 603 4863 
L 1178 4863 
L 1178 4134 
L 603 4134 
L 603 4863 
z
" transform="scale(0.015625)"/>
      </defs>
      <use xlink:href="#DejaVuSans-56"/>
      <use xlink:href="#DejaVuSans-65" x="60.658203"/>
      <use xlink:href="#DejaVuSans-67" x="122.181641"/>
      <use xlink:href="#DejaVuSans-65" x="185.658203"/>
      <use xlink:href="#DejaVuSans-74" x="247.181641"/>
      <use xlink:href="#DejaVuSans-61" x="286.390625"/>
      <use xlink:href="#DejaVuSans-62" x="347.669922"/>
      <use xlink:href="#DejaVuSans-6c" x="411.146484"/>
      <use xlink:href="#DejaVuSans-65" x="438.929688"/>
      <use xlink:href="#DejaVuSans-20" x="500.453125"/>
      <use xlink:href="#DejaVuSans-43" x="532.240234"/>
      <use xlink:href="#DejaVuSans-6f" x="602.064453"/>
      <use xlink:href="#DejaVuSans-6e" x="663.246094"/>
      <use xlink:href="#DejaVuSans-73" x="726.625"/>
      <use xlink:href="#DejaVuSans-75" x="778.724609"/>
      <use xlink:href="#DejaVuSans-6d" x="842.103516"/>
      <use xlink:href="#DejaVuSans-70" x="939.515625"/>
      <use xlink:href="#DejaVuSans-74" x="1002.992188"/>
      <use xlink:href="#DejaVuSans-69" x="1042.201172"/>
      <use xlink:href="#DejaVuSans-6f" x="1069.984375"/>
      <use xlink:href="#DejaVuSans-6e" x="1131.166016"/>
     </g>
    </g>
   </g>
   <g id="PathCollection_8"/>
   <g id="PathCollection_9">
    <path d="M 57.6 224.769854 
L 79.150345 224.769854 
L 91.464828 224.769854 
L 94.543448 224.769854 
L 97.622069 224.769854 
L 100.70069 224.769854 
L 103.77931 224.769854 
L 106.857931 224.769854 
L 116.093793 224.769854 
L 119.172414 224.769854 
L 122.251034 224.769854 
L 125.329655 224.769854 
L 128.408276 224.769854 
L 131.486897 224.769854 
L 134.565517 224.769854 
L 137.644138 224.769854 
L 140.722759 224.769854 
L 143.801379 224.769854 
L 146.88 224.769854 
L 149.958621 224.769854 
L 156.115862 224.769854 
L 159.194483 224.769854 
L 162.273103 224.769854 
L 165.351724 224.769854 
L 168.430345 224.769854 
L 171.508966 224.769854 
L 174.587586 224.769854 
L 177.666207 224.769854 
L 183.823448 224.769854 
L 186.902069 224.927901 
L 189.98069 224.927901 
L 193.05931 224.927901 
L 199.216552 225.080626 
L 202.295172 225.080626 
L 208.452414 225.080626 
L 211.531034 225.080626 
L 214.609655 225.080626 
L 217.688276 225.080626 
L 220.766897 225.080626 
L 223.845517 225.080626 
L 226.924138 225.080626 
L 230.002759 225.080626 
L 233.081379 225.080626 
L 236.16 225.080626 
L 239.238621 225.080626 
L 242.317241 225.080626 
L 245.395862 225.080626 
L 247.352586 225.080626 
" clip-path="url(#pe757dc98b3)" style="fill: none; stroke-dasharray: 1.85,0.8; stroke-dashoffset: 0; stroke: #000000; stroke-width: 0.5"/>
    <path d="M 280.382586 225.080626 
L 282.33931 225.080626 
L 285.417931 225.080626 
L 288.496552 225.080626 
L 294.653793 225.080626 
L 297.732414 225.080626 
L 310.046897 225.080626 
L 313.125517 225.080626 
L 316.204138 225.080626 
L 319.282759 225.080626 
L 322.361379 225.080626 
L 334.675862 225.080626 
L 346.990345 225.080626 
L 414.72 225.080626 
" clip-path="url(#pe757dc98b3)" style="fill: none; stroke-dasharray: 1.85,0.8; stroke-dashoffset: 0; stroke: #000000; stroke-width: 0.5"/>
   </g>
   <g id="PathCollection_10">
    <path d="M 57.6 150.833369 
L 79.150345 150.833369 
L 91.464828 150.833369 
L 94.543448 150.833369 
L 97.622069 150.833369 
L 100.70069 150.833369 
L 103.77931 150.833369 
L 106.857931 150.833369 
L 116.093793 150.833369 
L 119.172414 150.833369 
L 122.251034 150.833369 
L 125.329655 150.833369 
L 128.408276 150.833369 
L 131.486897 150.833369 
L 134.565517 150.833369 
L 137.644138 150.833369 
L 140.722759 150.833369 
L 143.801379 150.833369 
L 146.88 150.833369 
L 149.958621 150.833369 
L 156.115862 150.833369 
L 159.194483 150.833369 
L 162.273103 150.833369 
L 165.351724 150.833369 
L 168.430345 150.833369 
L 171.508966 150.833369 
L 174.587586 150.833369 
L 177.666207 150.833369 
L 183.823448 150.833369 
L 186.902069 150.939718 
L 189.98069 150.939718 
L 193.05931 150.939718 
L 199.216552 151.042487 
L 202.295172 151.042487 
L 208.452414 151.042487 
L 211.531034 151.042487 
L 214.609655 151.042487 
L 217.688276 151.042487 
L 220.766897 151.042487 
L 223.845517 151.042487 
L 226.924138 151.042487 
L 230.002759 151.042487 
L 233.081379 151.042487 
L 236.16 151.042487 
L 239.238621 151.042487 
L 242.317241 151.042487 
L 245.395862 151.042487 
L 247.352586 151.042487 
" clip-path="url(#pe757dc98b3)" style="fill: none; stroke-dasharray: 1.85,0.8; stroke-dashoffset: 0; stroke: #000000; stroke-width: 0.5"/>
    <path d="M 280.382586 151.042487 
L 282.33931 151.042487 
L 285.417931 151.042487 
L 288.496552 151.042487 
L 294.653793 151.042487 
L 297.732414 151.042487 
L 310.046897 151.042487 
L 313.125517 151.042487 
L 316.204138 151.042487 
L 319.282759 151.042487 
L 322.361379 151.042487 
L 334.675862 151.042487 
L 346.990345 151.042487 
L 414.72 151.042487 
" clip-path="url(#pe757dc98b3)" style="fill: none; stroke-dasharray: 1.85,0.8; stroke-dashoffset: 0; stroke: #000000; stroke-width: 0.5"/>
   </g>
   <g id="PathCollection_11">
    <path d="M 57.6 148.279171 
L 79.150345 148.279171 
L 91.464828 148.279171 
L 94.543448 148.279171 
L 97.622069 148.279171 
L 100.70069 148.279171 
L 103.77931 148.279171 
L 106.857931 148.279171 
L 116.093793 148.279171 
L 119.172414 148.279171 
L 122.251034 148.279171 
L 125.329655 148.279171 
L 127.286379 148.279171 
" clip-path="url(#pe757dc98b3)" style="fill: none; stroke-dasharray: 1.85,0.8; stroke-dashoffset: 0; stroke: #000000; stroke-width: 0.5"/>
    <path d="M 160.316379 148.279171 
L 162.273103 148.279171 
L 165.351724 148.279171 
L 168.430345 148.279171 
L 171.508966 148.279171 
L 174.587586 148.279171 
L 177.666207 148.279171 
L 183.823448 148.279171 
L 186.902069 148.364426 
L 189.98069 148.364426 
L 193.05931 148.364426 
L 199.216552 148.44681 
L 202.295172 148.44681 
L 208.452414 148.44681 
L 211.531034 148.44681 
L 214.609655 148.44681 
L 217.688276 148.44681 
L 220.766897 148.44681 
L 223.845517 148.44681 
L 226.924138 148.44681 
L 230.002759 148.44681 
L 233.081379 148.44681 
L 236.16 148.44681 
L 239.238621 148.44681 
L 242.317241 148.44681 
L 245.395862 148.44681 
L 248.474483 148.44681 
L 251.553103 148.44681 
L 254.631724 148.44681 
L 257.710345 148.44681 
L 260.788966 148.44681 
L 263.867586 148.44681 
L 266.946207 148.44681 
L 270.024828 148.44681 
L 273.103448 148.44681 
L 276.182069 148.44681 
L 279.26069 148.44681 
L 282.33931 148.44681 
L 285.417931 148.44681 
L 288.496552 148.44681 
L 294.653793 148.44681 
L 297.732414 148.44681 
L 310.046897 148.44681 
L 313.125517 148.44681 
L 316.204138 148.44681 
L 319.282759 148.44681 
L 322.361379 148.44681 
L 334.675862 148.44681 
L 346.990345 148.44681 
L 414.72 148.44681 
" clip-path="url(#pe757dc98b3)" style="fill: none; stroke-dasharray: 1.85,0.8; stroke-dashoffset: 0; stroke: #000000; stroke-width: 0.5"/>
   </g>
   <g id="PathCollection_12">
    <path d="M 57.6 142.815435 
L 79.150345 142.815435 
L 91.464828 142.815435 
L 94.543448 142.815435 
L 97.622069 142.815435 
L 100.70069 142.815435 
L 103.77931 142.815435 
L 106.857931 142.815435 
L 116.093793 142.815435 
L 119.172414 142.815435 
L 122.251034 142.815435 
L 125.329655 142.815435 
L 128.408276 142.815435 
L 131.486897 142.815435 
L 134.565517 142.815435 
L 137.644138 142.815435 
L 140.722759 142.815435 
L 143.801379 142.815435 
L 146.88 142.815435 
L 149.958621 142.815435 
L 156.115862 142.815435 
L 159.194483 142.815435 
L 162.273103 142.815435 
L 165.351724 142.815435 
L 168.430345 142.815435 
L 171.508966 142.815435 
L 174.587586 142.815435 
L 177.666207 142.815435 
L 183.823448 142.815435 
L 186.902069 143.134692 
L 189.98069 143.134692 
L 193.05931 143.134692 
L 199.216552 143.443199 
L 202.295172 143.443199 
L 208.452414 143.443199 
L 211.531034 143.443199 
L 214.609655 143.443199 
L 217.688276 143.443199 
L 220.766897 143.443199 
L 223.845517 143.443199 
L 226.924138 143.443199 
L 230.002759 143.443199 
L 233.081379 143.443199 
L 236.16 143.443199 
L 239.238621 143.443199 
L 242.317241 143.443199 
L 245.395862 143.443199 
L 247.352586 143.443199 
" clip-path="url(#pe757dc98b3)" style="fill: none; stroke-dasharray: 1.85,0.8; stroke-dashoffset: 0; stroke: #000000; stroke-width: 0.5"/>
    <path d="M 280.382586 143.443199 
L 282.33931 143.443199 
L 285.417931 143.443199 
L 288.496552 143.443199 
L 294.653793 143.443199 
L 297.732414 143.443199 
L 310.046897 143.443199 
L 313.125517 143.443199 
L 316.204138 143.443199 
L 319.282759 143.443199 
L 322.361379 143.443199 
L 334.675862 143.443199 
L 346.990345 143.443199 
L 414.72 143.443199 
" clip-path="url(#pe757dc98b3)" style="fill: none; stroke-dasharray: 1.85,0.8; stroke-dashoffset: 0; stroke: #000000; stroke-width: 0.5"/>
   </g>
   <g id="PathCollection_13">
    <path d="M 57.6 125.09079 
L 79.150345 125.09079 
L 89.01931 125.09079 
" clip-path="url(#pe757dc98b3)" style="fill: none; stroke: #000000; stroke-width: 0.5"/>
    <path d="M 118.53931 125.09079 
L 119.172414 125.09079 
L 122.251034 125.09079 
L 125.329655 125.09079 
L 128.408276 125.09079 
L 131.486897 125.09079 
L 134.565517 125.09079 
L 137.644138 125.09079 
L 140.722759 125.09079 
L 143.801379 125.09079 
L 146.88 125.09079 
L 149.958621 125.09079 
L 156.115862 125.09079 
L 159.194483 125.09079 
L 162.273103 125.09079 
L 165.351724 125.09079 
L 168.430345 125.09079 
L 171.508966 125.09079 
L 174.587586 125.09079 
L 177.666207 125.09079 
L 183.823448 125.09079 
L 186.902069 125.227147 
L 189.98069 125.227147 
L 193.05931 125.227147 
L 199.216552 125.358913 
L 202.295172 125.358913 
L 208.452414 125.358913 
L 211.531034 125.358913 
L 214.609655 125.358913 
L 217.688276 125.358913 
L 220.766897 125.358913 
L 223.845517 125.358913 
L 226.924138 125.358913 
L 230.002759 125.358913 
L 233.081379 125.358913 
L 236.16 125.358913 
L 239.238621 125.358913 
L 242.317241 125.358913 
L 245.395862 125.358913 
L 248.474483 125.358913 
L 251.553103 125.358913 
L 254.631724 125.358913 
L 257.710345 125.358913 
L 260.788966 125.358913 
L 263.867586 125.358913 
L 266.946207 125.358913 
L 270.024828 125.358913 
L 273.103448 125.358913 
L 276.182069 125.358913 
L 279.26069 125.358913 
L 282.33931 125.358913 
L 285.417931 125.358913 
L 288.496552 125.358913 
L 294.653793 125.358913 
L 297.732414 125.358913 
L 310.046897 125.358913 
L 313.125517 125.358913 
L 316.204138 125.358913 
L 319.282759 125.358913 
L 322.361379 125.358913 
L 334.675862 125.358913 
L 346.990345 125.358913 
L 414.72 125.358913 
" clip-path="url(#pe757dc98b3)" style="fill: none; stroke: #000000; stroke-width: 0.5"/>
   </g>
   <g id="PathCollection_14">
    <path d="M 57.6 95.348665 
L 79.150345 95.348665 
L 91.464828 95.348665 
L 94.543448 95.348665 
L 97.622069 95.348665 
L 100.70069 95.348665 
L 103.77931 95.348665 
L 106.857931 95.348665 
L 116.093793 95.348665 
L 119.172414 95.348665 
L 122.251034 95.348665 
L 125.329655 95.348665 
L 128.408276 95.348665 
L 131.486897 95.348665 
L 134.565517 95.348665 
L 137.644138 95.348665 
L 140.722759 95.348665 
L 143.801379 95.348665 
L 146.88 95.348665 
L 149.958621 95.348665 
L 156.115862 95.348665 
L 159.194483 95.348665 
L 162.273103 95.348665 
L 165.351724 95.348665 
L 168.430345 95.348665 
L 171.508966 95.348665 
L 174.587586 95.348665 
L 177.666207 95.348665 
L 183.823448 95.348665 
L 186.902069 95.580181 
L 189.98069 95.580181 
L 193.05931 95.580181 
L 199.216552 95.803902 
L 202.295172 95.803902 
L 208.452414 95.803902 
L 211.531034 95.803902 
L 214.609655 95.803902 
L 217.688276 95.803902 
L 220.766897 95.803902 
L 223.845517 95.803902 
L 226.924138 95.803902 
L 230.002759 95.803902 
L 230.635862 95.803902 
" clip-path="url(#pe757dc98b3)" style="fill: none; stroke: #000000; stroke-width: 0.5"/>
    <path d="M 260.155862 95.803902 
L 260.788966 95.803902 
L 263.867586 95.803902 
L 266.946207 95.803902 
L 270.024828 95.803902 
L 273.103448 95.803902 
L 276.182069 95.803902 
L 279.26069 95.803902 
L 282.33931 95.803902 
L 285.417931 95.803902 
L 288.496552 95.803902 
L 294.653793 95.803902 
L 297.732414 95.803902 
L 310.046897 95.803902 
L 313.125517 95.803902 
L 316.204138 95.803902 
L 319.282759 95.803902 
L 322.361379 95.803902 
L 334.675862 95.803902 
L 346.990345 95.803902 
L 414.72 95.803902 
" clip-path="url(#pe757dc98b3)" style="fill: none; stroke: #000000; stroke-width: 0.5"/>
   </g>
   <g id="PathCollection_15"/>
   <g id="LineCollection_1">
    <path d="M 118.926124 307.584 
L 118.926124 294.2784 
" clip-path="url(#pe757dc98b3)" style="fill: none; stroke: #000000; stroke-width: 1.5"/>
    <path d="M 137.644138 307.584 
L 137.644138 294.2784 
" clip-path="url(#pe757dc98b3)" style="fill: none; stroke: #000000; stroke-width: 1.5"/>
    <path d="M 162.149959 307.584 
L 162.149959 294.2784 
" clip-path="url(#pe757dc98b3)" style="fill: none; stroke: #000000; stroke-width: 1.5"/>
    <path d="M 199.216552 307.584 
L 199.216552 294.2784 
" clip-path="url(#pe757dc98b3)" style="fill: none; stroke: #000000; stroke-width: 1.5"/>
    <path d="M 223.845517 307.584 
L 223.845517 294.2784 
" clip-path="url(#pe757dc98b3)" style="fill: none; stroke: #000000; stroke-width: 1.5"/>
    <path d="M 236.16 307.584 
L 236.16 294.2784 
" clip-path="url(#pe757dc98b3)" style="fill: none; stroke: #000000; stroke-width: 1.5"/>
    <path d="M 245.395862 307.584 
L 245.395862 294.2784 
" clip-path="url(#pe757dc98b3)" style="fill: none; stroke: #000000; stroke-width: 1.5"/>
    <path d="M 257.710345 307.584 
L 257.710345 294.2784 
" clip-path="url(#pe757dc98b3)" style="fill: none; stroke: #000000; stroke-width: 1.5"/>
    <path d="M 282.5856 307.584 
L 282.5856 294.2784 
" clip-path="url(#pe757dc98b3)" style="fill: none; stroke: #000000; stroke-width: 1.5"/>
   </g>
   <g id="LineCollection_2">
    <path clip-path="url(#pe757dc98b3)" style="fill: none; stroke: #000000; stroke-width: 1.5"/>
    <path clip-path="url(#pe757dc98b3)" style="fill: none; stroke: #000000; stroke-width: 1.5"/>
    <path clip-path="url(#pe757dc98b3)" style="fill: none; stroke: #000000; stroke-width: 1.5"/>
    <path clip-path="url(#pe757dc98b3)" style="fill: none; stroke: #000000; stroke-width: 1.5"/>
    <path clip-path="url(#pe757dc98b3)" style="fill: none; stroke: #000000; stroke-width: 1.5"/>
    <path d="M 207.320276 311.785614 
L 210.580822 311.785614 
" clip-path="url(#pe757dc98b3)" style="fill: none; stroke: #000000; stroke-width: 1.5"/>
    <path d="M 207.320276 263.932775 
L 210.580822 263.932775 
" clip-path="url(#pe757dc98b3)" style="fill: none; stroke: #000000; stroke-width: 1.5"/>
    <path d="M 207.320276 156.895733 
L 210.580822 156.895733 
" clip-path="url(#pe757dc98b3)" style="fill: none; stroke: #000000; stroke-width: 1.5"/>
    <path clip-path="url(#pe757dc98b3)" style="fill: none; stroke: #000000; stroke-width: 1.5"/>
   </g>
   <g id="patch_3">
    <path d="M 57.6 307.584 
L 57.6 41.472 
" style="fill: none; stroke: #000000; stroke-width: 0.8; stroke-linejoin: miter; stroke-linecap: square"/>
   </g>
   <g id="patch_4">
    <path d="M 414.72 307.584 
L 414.72 41.472 
" style="fill: none; stroke: #000000; stroke-width: 0.8; stroke-linejoin: miter; stroke-linecap: square"/>
   </g>
   <g id="patch_5">
    <path d="M 57.6 307.584 
L 414.72 307.584 
" style="fill: none; stroke: #000000; stroke-width: 0.8; stroke-linejoin: miter; stroke-linecap: square"/>
   </g>
   <g id="patch_6">
    <path d="M 57.6 41.472 
L 414.72 41.472 
" style="fill: none; stroke: #000000; stroke-width: 0.8; stroke-linejoin: miter; stroke-linecap: square"/>
   </g>
   <g id="text_16">
    <!-- 2D-partial dependency plot between BMI and Veg -->
    <g transform="translate(86.905313 35.472) scale(0.12 -0.12)">
     <defs>
      <path id="DejaVuSans-44" d="M 1259 4147 
L 1259 519 
L 2022 519 
Q 2988 519 3436 956 
Q 3884 1394 3884 2338 
Q 3884 3275 3436 3711 
Q 2988 4147 2022 4147 
L 1259 4147 
z
M 628 4666 
L 1925 4666 
Q 3281 4666 3915 4102 
Q 4550 3538 4550 2338 
Q 4550 1131 3912 565 
Q 3275 0 1925 0 
L 628 0 
L 628 4666 
z
" transform="scale(0.015625)"/>
      <path id="DejaVuSans-2d" d="M 313 2009 
L 1997 2009 
L 1997 1497 
L 313 1497 
L 313 2009 
z
" transform="scale(0.015625)"/>
      <path id="DejaVuSans-72" d="M 2631 2963 
Q 2534 3019 2420 3045 
Q 2306 3072 2169 3072 
Q 1681 3072 1420 2755 
Q 1159 2438 1159 1844 
L 1159 0 
L 581 0 
L 581 3500 
L 1159 3500 
L 1159 2956 
Q 1341 3275 1631 3429 
Q 1922 3584 2338 3584 
Q 2397 3584 2469 3576 
Q 2541 3569 2628 3553 
L 2631 2963 
z
" transform="scale(0.015625)"/>
      <path id="DejaVuSans-64" d="M 2906 2969 
L 2906 4863 
L 3481 4863 
L 3481 0 
L 2906 0 
L 2906 525 
Q 2725 213 2448 61 
Q 2172 -91 1784 -91 
Q 1150 -91 751 415 
Q 353 922 353 1747 
Q 353 2572 751 3078 
Q 1150 3584 1784 3584 
Q 2172 3584 2448 3432 
Q 2725 3281 2906 2969 
z
M 947 1747 
Q 947 1113 1208 752 
Q 1469 391 1925 391 
Q 2381 391 2643 752 
Q 2906 1113 2906 1747 
Q 2906 2381 2643 2742 
Q 2381 3103 1925 3103 
Q 1469 3103 1208 2742 
Q 947 2381 947 1747 
z
" transform="scale(0.015625)"/>
      <path id="DejaVuSans-63" d="M 3122 3366 
L 3122 2828 
Q 2878 2963 2633 3030 
Q 2388 3097 2138 3097 
Q 1578 3097 1268 2742 
Q 959 2388 959 1747 
Q 959 1106 1268 751 
Q 1578 397 2138 397 
Q 2388 397 2633 464 
Q 2878 531 3122 666 
L 3122 134 
Q 2881 22 2623 -34 
Q 2366 -91 2075 -91 
Q 1284 -91 818 406 
Q 353 903 353 1747 
Q 353 2603 823 3093 
Q 1294 3584 2113 3584 
Q 2378 3584 2631 3529 
Q 2884 3475 3122 3366 
z
" transform="scale(0.015625)"/>
      <path id="DejaVuSans-79" d="M 2059 -325 
Q 1816 -950 1584 -1140 
Q 1353 -1331 966 -1331 
L 506 -1331 
L 506 -850 
L 844 -850 
Q 1081 -850 1212 -737 
Q 1344 -625 1503 -206 
L 1606 56 
L 191 3500 
L 800 3500 
L 1894 763 
L 2988 3500 
L 3597 3500 
L 2059 -325 
z
" transform="scale(0.015625)"/>
      <path id="DejaVuSans-77" d="M 269 3500 
L 844 3500 
L 1563 769 
L 2278 3500 
L 2956 3500 
L 3675 769 
L 4391 3500 
L 4966 3500 
L 4050 0 
L 3372 0 
L 2619 2869 
L 1863 0 
L 1184 0 
L 269 3500 
z
" transform="scale(0.015625)"/>
     </defs>
     <use xlink:href="#DejaVuSans-32"/>
     <use xlink:href="#DejaVuSans-44" x="63.623047"/>
     <use xlink:href="#DejaVuSans-2d" x="140.625"/>
     <use xlink:href="#DejaVuSans-70" x="176.708984"/>
     <use xlink:href="#DejaVuSans-61" x="240.185547"/>
     <use xlink:href="#DejaVuSans-72" x="301.464844"/>
     <use xlink:href="#DejaVuSans-74" x="342.578125"/>
     <use xlink:href="#DejaVuSans-69" x="381.787109"/>
     <use xlink:href="#DejaVuSans-61" x="409.570312"/>
     <use xlink:href="#DejaVuSans-6c" x="470.849609"/>
     <use xlink:href="#DejaVuSans-20" x="498.632812"/>
     <use xlink:href="#DejaVuSans-64" x="530.419922"/>
     <use xlink:href="#DejaVuSans-65" x="593.896484"/>
     <use xlink:href="#DejaVuSans-70" x="655.419922"/>
     <use xlink:href="#DejaVuSans-65" x="718.896484"/>
     <use xlink:href="#DejaVuSans-6e" x="780.419922"/>
     <use xlink:href="#DejaVuSans-64" x="843.798828"/>
     <use xlink:href="#DejaVuSans-65" x="907.275391"/>
     <use xlink:href="#DejaVuSans-6e" x="968.798828"/>
     <use xlink:href="#DejaVuSans-63" x="1032.177734"/>
     <use xlink:href="#DejaVuSans-79" x="1087.158203"/>
     <use xlink:href="#DejaVuSans-20" x="1146.337891"/>
     <use xlink:href="#DejaVuSans-70" x="1178.125"/>
     <use xlink:href="#DejaVuSans-6c" x="1241.601562"/>
     <use xlink:href="#DejaVuSans-6f" x="1269.384766"/>
     <use xlink:href="#DejaVuSans-74" x="1330.566406"/>
     <use xlink:href="#DejaVuSans-20" x="1369.775391"/>
     <use xlink:href="#DejaVuSans-62" x="1401.5625"/>
     <use xlink:href="#DejaVuSans-65" x="1465.039062"/>
     <use xlink:href="#DejaVuSans-74" x="1526.5625"/>
     <use xlink:href="#DejaVuSans-77" x="1565.771484"/>
     <use xlink:href="#DejaVuSans-65" x="1647.558594"/>
     <use xlink:href="#DejaVuSans-65" x="1709.082031"/>
     <use xlink:href="#DejaVuSans-6e" x="1770.605469"/>
     <use xlink:href="#DejaVuSans-20" x="1833.984375"/>
     <use xlink:href="#DejaVuSans-42" x="1865.771484"/>
     <use xlink:href="#DejaVuSans-4d" x="1934.375"/>
     <use xlink:href="#DejaVuSans-49" x="2020.654297"/>
     <use xlink:href="#DejaVuSans-20" x="2050.146484"/>
     <use xlink:href="#DejaVuSans-61" x="2081.933594"/>
     <use xlink:href="#DejaVuSans-6e" x="2143.212891"/>
     <use xlink:href="#DejaVuSans-64" x="2206.591797"/>
     <use xlink:href="#DejaVuSans-20" x="2270.068359"/>
     <use xlink:href="#DejaVuSans-56" x="2301.855469"/>
     <use xlink:href="#DejaVuSans-65" x="2362.513672"/>
     <use xlink:href="#DejaVuSans-67" x="2424.037109"/>
    </g>
   </g>
   <g id="text_17">
    <g clip-path="url(#pe757dc98b3)">
     <!-- -0.04 -->
     <g transform="translate(250.930867 227.840001) scale(0.1 -0.1)">
      <defs>
       <path id="DejaVuSans-34" d="M 2419 4116 
L 825 1625 
L 2419 1625 
L 2419 4116 
z
M 2253 4666 
L 3047 4666 
L 3047 1625 
L 3713 1625 
L 3713 1100 
L 3047 1100 
L 3047 0 
L 2419 0 
L 2419 1100 
L 313 1100 
L 313 1709 
L 2253 4666 
z
" transform="scale(0.015625)"/>
      </defs>
      <use xlink:href="#DejaVuSans-2d"/>
      <use xlink:href="#DejaVuSans-30" x="36.083984"/>
      <use xlink:href="#DejaVuSans-2e" x="99.707031"/>
      <use xlink:href="#DejaVuSans-30" x="131.494141"/>
      <use xlink:href="#DejaVuSans-34" x="195.117188"/>
     </g>
    </g>
   </g>
   <g id="text_18">
    <g clip-path="url(#pe757dc98b3)">
     <!-- -0.03 -->
     <g transform="translate(250.930867 153.801862) scale(0.1 -0.1)">
      <use xlink:href="#DejaVuSans-2d"/>
      <use xlink:href="#DejaVuSans-30" x="36.083984"/>
      <use xlink:href="#DejaVuSans-2e" x="99.707031"/>
      <use xlink:href="#DejaVuSans-30" x="131.494141"/>
      <use xlink:href="#DejaVuSans-33" x="195.117188"/>
     </g>
    </g>
   </g>
   <g id="text_19">
    <g clip-path="url(#pe757dc98b3)">
     <!-- -0.01 -->
     <g transform="translate(130.864661 151.038546) scale(0.1 -0.1)">
      <use xlink:href="#DejaVuSans-2d"/>
      <use xlink:href="#DejaVuSans-30" x="36.083984"/>
      <use xlink:href="#DejaVuSans-2e" x="99.707031"/>
      <use xlink:href="#DejaVuSans-30" x="131.494141"/>
      <use xlink:href="#DejaVuSans-31" x="195.117188"/>
     </g>
    </g>
   </g>
   <g id="text_20">
    <g clip-path="url(#pe757dc98b3)">
     <!-- -0.00 -->
     <g transform="translate(250.930867 146.202574) scale(0.1 -0.1)">
      <use xlink:href="#DejaVuSans-2d"/>
      <use xlink:href="#DejaVuSans-30" x="36.083984"/>
      <use xlink:href="#DejaVuSans-2e" x="99.707031"/>
      <use xlink:href="#DejaVuSans-30" x="131.494141"/>
      <use xlink:href="#DejaVuSans-30" x="195.117188"/>
     </g>
    </g>
   </g>
   <g id="text_21">
    <g clip-path="url(#pe757dc98b3)">
     <!-- 0.01 -->
     <g transform="translate(92.646498 127.850165) scale(0.1 -0.1)">
      <use xlink:href="#DejaVuSans-30"/>
      <use xlink:href="#DejaVuSans-2e" x="63.623047"/>
      <use xlink:href="#DejaVuSans-30" x="95.410156"/>
      <use xlink:href="#DejaVuSans-31" x="159.033203"/>
     </g>
    </g>
   </g>
   <g id="text_22">
    <g clip-path="url(#pe757dc98b3)">
     <!-- 0.02 -->
     <g transform="translate(234.26305 98.563277) scale(0.1 -0.1)">
      <use xlink:href="#DejaVuSans-30"/>
      <use xlink:href="#DejaVuSans-2e" x="63.623047"/>
      <use xlink:href="#DejaVuSans-30" x="95.410156"/>
      <use xlink:href="#DejaVuSans-32" x="159.033203"/>
     </g>
    </g>
   </g>
  </g>
 </g>
 <defs>
  <clipPath id="pe757dc98b3">
   <rect x="57.6" y="41.472" width="357.12" height="266.112"/>
  </clipPath>
 </defs>
</svg>
