<?xml version="1.0" encoding="utf-8" standalone="no"?>
<!DOCTYPE svg PUBLIC "-//W3C//DTD SVG 1.1//EN"
  "http://www.w3.org/Graphics/SVG/1.1/DTD/svg11.dtd">
<svg xmlns:xlink="http://www.w3.org/1999/xlink" width="460.8pt" height="345.6pt" viewBox="0 0 460.8 345.6" xmlns="http://www.w3.org/2000/svg" version="1.1">
 <metadata>
  <rdf:RDF xmlns:dc="http://purl.org/dc/elements/1.1/" xmlns:cc="http://creativecommons.org/ns#" xmlns:rdf="http://www.w3.org/1999/02/22-rdf-syntax-ns#">
   <cc:Work>
    <dc:type rdf:resource="http://purl.org/dc/dcmitype/StillImage"/>
    <dc:date>2024-02-15T12:26:35.986726</dc:date>
    <dc:format>image/svg+xml</dc:format>
    <dc:creator>
     <cc:Agent>
      <dc:title>Matplotlib v3.7.0, https://matplotlib.org/</dc:title>
     </cc:Agent>
    </dc:creator>
   </cc:Work>
  </rdf:RDF>
 </metadata>
 <defs>
  <style type="text/css">*{stroke-linejoin: round; stroke-linecap: butt}</style>
 </defs>
 <g id="figure_1">
  <g id="patch_1">
   <path d="M 0 345.6 
L 460.8 345.6 
L 460.8 0 
L 0 0 
L 0 345.6 
z
" style="fill: none"/>
  </g>
  <g id="axes_1"/>
  <g id="axes_2">
   <g id="patch_2">
    <path d="M 57.6 307.584 
L 414.72 307.584 
L 414.72 41.472 
L 57.6 41.472 
L 57.6 307.584 
z
" style="fill: none"/>
   </g>
   <g id="PathCollection_1">
    <path d="M 61.207273 152.082525 
L 64.814545 152.082525 
L 68.421818 152.082525 
L 72.029091 152.082525 
L 75.636364 152.082525 
L 79.243636 152.082525 
L 82.850909 152.082525 
L 86.458182 152.082525 
L 90.065455 152.082525 
L 93.672727 152.082525 
L 97.28 152.082525 
L 100.887273 152.082525 
L 104.494545 152.082525 
L 108.101818 152.082525 
L 111.709091 152.082525 
L 115.316364 152.082525 
L 118.923636 152.082525 
L 122.530909 152.082525 
L 126.138182 152.082525 
L 129.745455 152.082525 
L 133.352727 152.082525 
L 136.96 152.082525 
L 140.567273 152.082525 
L 144.174545 152.082525 
L 147.781818 152.082525 
L 151.389091 152.082525 
L 154.996364 152.082525 
L 158.603636 152.082525 
L 161.468956 151.68 
L 161.468956 148.992 
L 162.210909 148.87028 
L 165.818182 148.87028 
L 169.425455 148.87028 
L 173.032727 148.87028 
L 176.64 148.87028 
L 180.247273 148.87028 
L 183.854545 148.87028 
L 187.461818 148.87028 
L 191.069091 148.87028 
L 194.676364 148.87028 
L 198.283636 148.87028 
L 201.890909 148.87028 
L 205.498182 148.87028 
L 209.105455 148.87028 
L 212.712727 148.87028 
L 216.32 148.87028 
L 219.927273 148.87028 
L 223.534545 148.87028 
L 227.141818 148.87028 
L 230.749091 148.87028 
L 234.356364 148.87028 
L 237.963636 148.87028 
L 241.570909 148.87028 
L 245.178182 148.87028 
L 248.785455 148.87028 
L 252.392727 148.87028 
L 256 148.87028 
L 259.607273 148.87028 
L 263.214545 148.87028 
L 266.821818 148.87028 
L 270.429091 148.87028 
L 274.036364 148.87028 
L 277.643636 148.87028 
L 281.250909 148.87028 
L 284.858182 148.87028 
L 288.465455 148.87028 
L 292.072727 148.87028 
L 295.68 148.87028 
L 299.287273 148.87028 
L 302.894545 148.87028 
L 306.501818 148.87028 
L 310.109091 148.87028 
L 313.716364 148.87028 
L 317.323636 148.87028 
L 320.930909 148.87028 
L 324.538182 148.87028 
L 328.145455 148.87028 
L 331.752727 148.87028 
L 335.36 148.87028 
L 338.967273 148.87028 
L 342.574545 148.87028 
L 346.181818 148.87028 
L 349.789091 148.87028 
L 353.396364 148.87028 
L 357.003636 148.87028 
L 360.610909 148.87028 
L 364.218182 148.87028 
L 367.825455 148.87028 
L 371.432727 148.87028 
L 375.04 148.87028 
L 378.647273 148.87028 
L 382.254545 148.87028 
L 385.861818 148.87028 
L 389.469091 148.87028 
L 393.076364 148.87028 
L 396.683636 148.87028 
L 400.290909 148.87028 
L 403.898182 148.87028 
L 407.505455 148.87028 
L 411.112727 148.87028 
L 414.72 148.87028 
L 414.72 146.304 
L 414.72 143.616 
L 414.72 140.928 
L 414.72 138.24 
L 414.72 135.552 
L 414.72 132.864 
L 414.72 130.176 
L 414.72 127.488 
L 414.72 124.8 
L 414.72 122.112 
L 414.72 119.424 
L 414.72 116.736 
L 414.72 114.048 
L 414.72 111.36 
L 414.72 108.672 
L 414.72 105.984 
L 414.72 103.296 
L 414.72 100.608 
L 414.72 97.92 
L 414.72 95.232 
L 414.72 92.544 
L 414.72 89.856 
L 414.72 87.168 
L 414.72 84.48 
L 414.72 81.792 
L 414.72 79.104 
L 414.72 76.416 
L 414.72 73.728 
L 414.72 71.04 
L 414.72 68.352 
L 414.72 65.664 
L 414.72 62.976 
L 414.72 60.288 
L 414.72 57.6 
L 414.72 54.912 
L 414.72 52.224 
L 414.72 49.536 
L 414.72 46.848 
L 414.72 44.16 
L 414.72 41.472 
L 411.112727 41.472 
L 407.505455 41.472 
L 403.898182 41.472 
L 400.290909 41.472 
L 396.683636 41.472 
L 393.076364 41.472 
L 389.469091 41.472 
L 385.861818 41.472 
L 382.254545 41.472 
L 378.647273 41.472 
L 375.04 41.472 
L 371.432727 41.472 
L 367.825455 41.472 
L 364.218182 41.472 
L 360.610909 41.472 
L 357.003636 41.472 
L 353.396364 41.472 
L 349.789091 41.472 
L 346.181818 41.472 
L 342.574545 41.472 
L 338.967273 41.472 
L 335.36 41.472 
L 331.752727 41.472 
L 328.145455 41.472 
L 324.538182 41.472 
L 320.930909 41.472 
L 317.323636 41.472 
L 313.716364 41.472 
L 310.109091 41.472 
L 306.501818 41.472 
L 302.894545 41.472 
L 299.287273 41.472 
L 295.68 41.472 
L 292.072727 41.472 
L 288.465455 41.472 
L 284.858182 41.472 
L 281.250909 41.472 
L 277.643636 41.472 
L 274.036364 41.472 
L 270.429091 41.472 
L 266.821818 41.472 
L 263.214545 41.472 
L 259.607273 41.472 
L 256 41.472 
L 252.392727 41.472 
L 248.785455 41.472 
L 245.178182 41.472 
L 241.570909 41.472 
L 237.963636 41.472 
L 234.356364 41.472 
L 230.749091 41.472 
L 227.141818 41.472 
L 223.534545 41.472 
L 219.927273 41.472 
L 216.32 41.472 
L 212.712727 41.472 
L 209.105455 41.472 
L 205.498182 41.472 
L 201.890909 41.472 
L 198.283636 41.472 
L 194.676364 41.472 
L 191.069091 41.472 
L 187.461818 41.472 
L 183.854545 41.472 
L 180.247273 41.472 
L 176.64 41.472 
L 173.032727 41.472 
L 169.425455 41.472 
L 165.818182 41.472 
L 162.210909 41.472 
L 158.603636 41.472 
L 154.996364 41.472 
L 151.389091 41.472 
L 147.781818 41.472 
L 144.174545 41.472 
L 140.567273 41.472 
L 136.96 41.472 
L 133.352727 41.472 
L 129.745455 41.472 
L 126.138182 41.472 
L 122.530909 41.472 
L 118.923636 41.472 
L 115.316364 41.472 
L 111.709091 41.472 
L 108.101818 41.472 
L 104.494545 41.472 
L 100.887273 41.472 
L 97.28 41.472 
L 93.672727 41.472 
L 90.065455 41.472 
L 86.458182 41.472 
L 82.850909 41.472 
L 79.243636 41.472 
L 75.636364 41.472 
L 72.029091 41.472 
L 68.421818 41.472 
L 64.814545 41.472 
L 61.207273 41.472 
L 57.6 41.472 
L 57.6 44.16 
L 57.6 46.848 
L 57.6 49.536 
L 57.6 52.224 
L 57.6 54.912 
L 57.6 57.6 
L 57.6 60.288 
L 57.6 62.976 
L 57.6 65.664 
L 57.6 68.352 
L 57.6 71.04 
L 57.6 73.728 
L 57.6 76.416 
L 57.6 79.104 
L 57.6 81.792 
L 57.6 84.48 
L 57.6 87.168 
L 57.6 89.856 
L 57.6 92.544 
L 57.6 95.232 
L 57.6 97.92 
L 57.6 100.608 
L 57.6 103.296 
L 57.6 105.984 
L 57.6 108.672 
L 57.6 111.36 
L 57.6 114.048 
L 57.6 116.736 
L 57.6 119.424 
L 57.6 122.112 
L 57.6 124.8 
L 57.6 127.488 
L 57.6 130.176 
L 57.6 132.864 
L 57.6 135.552 
L 57.6 138.24 
L 57.6 140.928 
L 57.6 143.616 
L 57.6 146.304 
L 57.6 148.992 
L 57.6 151.68 
L 57.6 152.082525 
z
" clip-path="url(#p3461759017)" style="fill: #481b6d; fill-opacity: 0.75"/>
   </g>
   <g id="PathCollection_2">
    <path d="M 61.207273 155.128977 
L 64.814545 155.128977 
L 68.421818 155.128977 
L 72.029091 155.128977 
L 75.636364 155.128977 
L 79.243636 155.128977 
L 82.850909 155.128977 
L 86.458182 155.128977 
L 90.065455 155.128977 
L 93.672727 155.128977 
L 97.28 155.128977 
L 100.887273 155.128977 
L 104.494545 155.128977 
L 108.101818 155.128977 
L 111.709091 155.128977 
L 115.316364 155.128977 
L 118.923636 155.128977 
L 122.530909 155.128977 
L 126.138182 155.128977 
L 129.745455 155.128977 
L 133.352727 155.128977 
L 136.96 155.128977 
L 140.567273 155.128977 
L 144.174545 155.128977 
L 147.781818 155.128977 
L 151.389091 155.128977 
L 154.996364 155.128977 
L 158.603636 155.128977 
L 162.210909 154.89955 
L 165.818182 154.89955 
L 169.425455 154.89955 
L 173.032727 154.89955 
L 176.64 154.89955 
L 180.247273 154.89955 
L 183.854545 154.89955 
L 187.461818 154.89955 
L 191.069091 154.89955 
L 194.676364 154.89955 
L 198.283636 154.89955 
L 201.890909 154.89955 
L 205.498182 154.89955 
L 209.105455 154.89955 
L 212.712727 154.89955 
L 216.32 154.89955 
L 219.927273 154.89955 
L 223.534545 154.89955 
L 227.141818 154.89955 
L 230.749091 154.89955 
L 234.356364 154.89955 
L 237.963636 154.89955 
L 241.570909 154.89955 
L 245.178182 154.89955 
L 248.785455 154.89955 
L 252.392727 154.89955 
L 256 154.89955 
L 259.607273 154.89955 
L 263.214545 154.89955 
L 266.821818 154.89955 
L 270.429091 154.89955 
L 274.036364 154.89955 
L 277.643636 154.89955 
L 281.250909 154.89955 
L 284.858182 154.89955 
L 288.465455 154.89955 
L 292.072727 154.89955 
L 295.68 154.89955 
L 299.287273 154.89955 
L 302.894545 154.89955 
L 306.501818 154.89955 
L 310.109091 154.89955 
L 313.716364 154.89955 
L 317.323636 154.89955 
L 320.930909 154.89955 
L 324.538182 154.89955 
L 328.145455 154.89955 
L 331.752727 154.89955 
L 335.36 154.89955 
L 338.967273 154.89955 
L 342.574545 154.89955 
L 346.181818 154.89955 
L 349.789091 154.89955 
L 353.396364 154.89955 
L 357.003636 154.89955 
L 360.610909 154.89955 
L 364.218182 154.89955 
L 367.825455 154.89955 
L 371.432727 154.89955 
L 375.04 154.89955 
L 378.647273 154.89955 
L 382.254545 154.89955 
L 385.861818 154.89955 
L 389.469091 154.89955 
L 393.076364 154.89955 
L 396.683636 154.89955 
L 400.290909 154.89955 
L 403.898182 154.89955 
L 407.505455 154.89955 
L 411.112727 154.89955 
L 414.72 154.89955 
L 414.72 154.368 
L 414.72 151.68 
L 414.72 148.992 
L 414.72 148.87028 
L 411.112727 148.87028 
L 407.505455 148.87028 
L 403.898182 148.87028 
L 400.290909 148.87028 
L 396.683636 148.87028 
L 393.076364 148.87028 
L 389.469091 148.87028 
L 385.861818 148.87028 
L 382.254545 148.87028 
L 378.647273 148.87028 
L 375.04 148.87028 
L 371.432727 148.87028 
L 367.825455 148.87028 
L 364.218182 148.87028 
L 360.610909 148.87028 
L 357.003636 148.87028 
L 353.396364 148.87028 
L 349.789091 148.87028 
L 346.181818 148.87028 
L 342.574545 148.87028 
L 338.967273 148.87028 
L 335.36 148.87028 
L 331.752727 148.87028 
L 328.145455 148.87028 
L 324.538182 148.87028 
L 320.930909 148.87028 
L 317.323636 148.87028 
L 313.716364 148.87028 
L 310.109091 148.87028 
L 306.501818 148.87028 
L 302.894545 148.87028 
L 299.287273 148.87028 
L 295.68 148.87028 
L 292.072727 148.87028 
L 288.465455 148.87028 
L 284.858182 148.87028 
L 281.250909 148.87028 
L 277.643636 148.87028 
L 274.036364 148.87028 
L 270.429091 148.87028 
L 266.821818 148.87028 
L 263.214545 148.87028 
L 259.607273 148.87028 
L 256 148.87028 
L 252.392727 148.87028 
L 248.785455 148.87028 
L 245.178182 148.87028 
L 241.570909 148.87028 
L 237.963636 148.87028 
L 234.356364 148.87028 
L 230.749091 148.87028 
L 227.141818 148.87028 
L 223.534545 148.87028 
L 219.927273 148.87028 
L 216.32 148.87028 
L 212.712727 148.87028 
L 209.105455 148.87028 
L 205.498182 148.87028 
L 201.890909 148.87028 
L 198.283636 148.87028 
L 194.676364 148.87028 
L 191.069091 148.87028 
L 187.461818 148.87028 
L 183.854545 148.87028 
L 180.247273 148.87028 
L 176.64 148.87028 
L 173.032727 148.87028 
L 169.425455 148.87028 
L 165.818182 148.87028 
L 162.210909 148.87028 
L 161.468956 148.992 
L 161.468956 151.68 
L 158.603636 152.082525 
L 154.996364 152.082525 
L 151.389091 152.082525 
L 147.781818 152.082525 
L 144.174545 152.082525 
L 140.567273 152.082525 
L 136.96 152.082525 
L 133.352727 152.082525 
L 129.745455 152.082525 
L 126.138182 152.082525 
L 122.530909 152.082525 
L 118.923636 152.082525 
L 115.316364 152.082525 
L 111.709091 152.082525 
L 108.101818 152.082525 
L 104.494545 152.082525 
L 100.887273 152.082525 
L 97.28 152.082525 
L 93.672727 152.082525 
L 90.065455 152.082525 
L 86.458182 152.082525 
L 82.850909 152.082525 
L 79.243636 152.082525 
L 75.636364 152.082525 
L 72.029091 152.082525 
L 68.421818 152.082525 
L 64.814545 152.082525 
L 61.207273 152.082525 
L 57.6 152.082525 
L 57.6 154.368 
L 57.6 155.128977 
z
" clip-path="url(#p3461759017)" style="fill: #3f4788; fill-opacity: 0.75"/>
   </g>
   <g id="PathCollection_3">
    <path d="M 61.207273 156.924674 
L 64.814545 156.924674 
L 68.421818 156.924674 
L 72.029091 156.924674 
L 75.636364 156.924674 
L 79.243636 156.924674 
L 82.850909 156.924674 
L 86.458182 156.924674 
L 90.065455 156.924674 
L 93.672727 156.924674 
L 97.28 156.924674 
L 100.887273 156.924674 
L 104.494545 156.924674 
L 108.101818 156.924674 
L 111.709091 156.924674 
L 115.316364 156.924674 
L 118.923636 156.924674 
L 122.530909 156.924674 
L 126.138182 156.924674 
L 129.745455 156.924674 
L 133.352727 156.924674 
L 136.96 156.924674 
L 140.567273 156.924674 
L 144.174545 156.924674 
L 147.781818 156.924674 
L 151.389091 156.924674 
L 154.996364 156.924674 
L 158.603636 156.924674 
L 162.210909 156.695246 
L 165.818182 156.695246 
L 169.425455 156.695246 
L 173.032727 156.695246 
L 176.64 156.695246 
L 180.247273 156.695246 
L 183.854545 156.695246 
L 187.461818 156.695246 
L 191.069091 156.695246 
L 194.676364 156.695246 
L 198.283636 156.695246 
L 201.890909 156.695246 
L 205.498182 156.695246 
L 209.105455 156.695246 
L 212.712727 156.695246 
L 216.32 156.695246 
L 219.927273 156.695246 
L 223.534545 156.695246 
L 227.141818 156.695246 
L 230.749091 156.695246 
L 234.356364 156.695246 
L 237.963636 156.695246 
L 241.570909 156.695246 
L 245.178182 156.695246 
L 248.785455 156.695246 
L 252.392727 156.695246 
L 256 156.695246 
L 259.607273 156.695246 
L 263.214545 156.695246 
L 266.821818 156.695246 
L 270.429091 156.695246 
L 274.036364 156.695246 
L 277.643636 156.695246 
L 281.250909 156.695246 
L 284.858182 156.695246 
L 288.465455 156.695246 
L 292.072727 156.695246 
L 295.68 156.695246 
L 299.287273 156.695246 
L 302.894545 156.695246 
L 306.501818 156.695246 
L 310.109091 156.695246 
L 313.716364 156.695246 
L 317.323636 156.695246 
L 320.930909 156.695246 
L 324.538182 156.695246 
L 328.145455 156.695246 
L 331.752727 156.695246 
L 335.36 156.695246 
L 338.967273 156.695246 
L 342.574545 156.695246 
L 346.181818 156.695246 
L 349.789091 156.695246 
L 353.396364 156.695246 
L 357.003636 156.695246 
L 360.610909 156.695246 
L 364.218182 156.695246 
L 367.825455 156.695246 
L 371.432727 156.695246 
L 375.04 156.695246 
L 378.647273 156.695246 
L 382.254545 156.695246 
L 385.861818 156.695246 
L 389.469091 156.695246 
L 393.076364 156.695246 
L 396.683636 156.695246 
L 400.290909 156.695246 
L 403.898182 156.695246 
L 407.505455 156.695246 
L 411.112727 156.695246 
L 414.72 156.695246 
L 414.72 154.89955 
L 411.112727 154.89955 
L 407.505455 154.89955 
L 403.898182 154.89955 
L 400.290909 154.89955 
L 396.683636 154.89955 
L 393.076364 154.89955 
L 389.469091 154.89955 
L 385.861818 154.89955 
L 382.254545 154.89955 
L 378.647273 154.89955 
L 375.04 154.89955 
L 371.432727 154.89955 
L 367.825455 154.89955 
L 364.218182 154.89955 
L 360.610909 154.89955 
L 357.003636 154.89955 
L 353.396364 154.89955 
L 349.789091 154.89955 
L 346.181818 154.89955 
L 342.574545 154.89955 
L 338.967273 154.89955 
L 335.36 154.89955 
L 331.752727 154.89955 
L 328.145455 154.89955 
L 324.538182 154.89955 
L 320.930909 154.89955 
L 317.323636 154.89955 
L 313.716364 154.89955 
L 310.109091 154.89955 
L 306.501818 154.89955 
L 302.894545 154.89955 
L 299.287273 154.89955 
L 295.68 154.89955 
L 292.072727 154.89955 
L 288.465455 154.89955 
L 284.858182 154.89955 
L 281.250909 154.89955 
L 277.643636 154.89955 
L 274.036364 154.89955 
L 270.429091 154.89955 
L 266.821818 154.89955 
L 263.214545 154.89955 
L 259.607273 154.89955 
L 256 154.89955 
L 252.392727 154.89955 
L 248.785455 154.89955 
L 245.178182 154.89955 
L 241.570909 154.89955 
L 237.963636 154.89955 
L 234.356364 154.89955 
L 230.749091 154.89955 
L 227.141818 154.89955 
L 223.534545 154.89955 
L 219.927273 154.89955 
L 216.32 154.89955 
L 212.712727 154.89955 
L 209.105455 154.89955 
L 205.498182 154.89955 
L 201.890909 154.89955 
L 198.283636 154.89955 
L 194.676364 154.89955 
L 191.069091 154.89955 
L 187.461818 154.89955 
L 183.854545 154.89955 
L 180.247273 154.89955 
L 176.64 154.89955 
L 173.032727 154.89955 
L 169.425455 154.89955 
L 165.818182 154.89955 
L 162.210909 154.89955 
L 158.603636 155.128977 
L 154.996364 155.128977 
L 151.389091 155.128977 
L 147.781818 155.128977 
L 144.174545 155.128977 
L 140.567273 155.128977 
L 136.96 155.128977 
L 133.352727 155.128977 
L 129.745455 155.128977 
L 126.138182 155.128977 
L 122.530909 155.128977 
L 118.923636 155.128977 
L 115.316364 155.128977 
L 111.709091 155.128977 
L 108.101818 155.128977 
L 104.494545 155.128977 
L 100.887273 155.128977 
L 97.28 155.128977 
L 93.672727 155.128977 
L 90.065455 155.128977 
L 86.458182 155.128977 
L 82.850909 155.128977 
L 79.243636 155.128977 
L 75.636364 155.128977 
L 72.029091 155.128977 
L 68.421818 155.128977 
L 64.814545 155.128977 
L 61.207273 155.128977 
L 57.6 155.128977 
L 57.6 156.924674 
z
" clip-path="url(#p3461759017)" style="fill: #2e6e8e; fill-opacity: 0.75"/>
   </g>
   <g id="PathCollection_4">
    <path d="M 61.207273 257.142715 
L 64.814545 257.142715 
L 68.421818 257.142715 
L 72.029091 257.142715 
L 75.636364 257.142715 
L 79.243636 257.142715 
L 82.850909 257.142715 
L 86.458182 257.142715 
L 90.065455 257.142715 
L 93.672727 257.142715 
L 97.28 257.142715 
L 100.887273 257.142715 
L 104.494545 257.142715 
L 108.101818 257.142715 
L 111.709091 257.142715 
L 115.316364 257.142715 
L 118.923636 257.142715 
L 122.530909 257.142715 
L 126.138182 257.142715 
L 129.745455 257.142715 
L 133.352727 257.142715 
L 136.96 257.142715 
L 140.567273 257.142715 
L 144.174545 257.142715 
L 147.781818 257.142715 
L 151.389091 257.142715 
L 154.996364 257.142715 
L 158.603636 257.142715 
L 162.210909 256.924793 
L 165.818182 256.924793 
L 169.425455 256.924793 
L 173.032727 256.924793 
L 176.64 256.924793 
L 180.247273 256.924793 
L 183.854545 256.924793 
L 187.461818 256.924793 
L 191.069091 256.924793 
L 194.676364 256.924793 
L 198.283636 256.924793 
L 201.890909 256.924793 
L 205.498182 256.924793 
L 209.105455 256.924793 
L 212.712727 256.924793 
L 216.32 256.924793 
L 219.927273 256.924793 
L 223.534545 256.924793 
L 227.141818 256.924793 
L 230.749091 256.924793 
L 234.356364 256.924793 
L 237.963636 256.924793 
L 241.570909 256.924793 
L 245.178182 256.924793 
L 248.785455 256.924793 
L 252.392727 256.924793 
L 256 256.924793 
L 259.607273 256.924793 
L 263.214545 256.924793 
L 266.821818 256.924793 
L 270.429091 256.924793 
L 274.036364 256.924793 
L 277.643636 256.924793 
L 281.250909 256.924793 
L 284.858182 256.924793 
L 288.465455 256.924793 
L 292.072727 256.924793 
L 295.68 256.924793 
L 299.287273 256.924793 
L 302.894545 256.924793 
L 306.501818 256.924793 
L 310.109091 256.924793 
L 313.716364 256.924793 
L 317.323636 256.924793 
L 320.930909 256.924793 
L 324.538182 256.924793 
L 328.145455 256.924793 
L 331.752727 256.924793 
L 335.36 256.924793 
L 338.967273 256.924793 
L 342.574545 256.924793 
L 346.181818 256.924793 
L 349.789091 256.924793 
L 353.396364 256.924793 
L 357.003636 256.924793 
L 360.610909 256.924793 
L 364.218182 256.924793 
L 367.825455 256.924793 
L 371.432727 256.924793 
L 375.04 256.924793 
L 378.647273 256.924793 
L 382.254545 256.924793 
L 385.861818 256.924793 
L 389.469091 256.924793 
L 393.076364 256.924793 
L 396.683636 256.924793 
L 400.290909 256.924793 
L 403.898182 256.924793 
L 407.505455 256.924793 
L 411.112727 256.924793 
L 414.72 256.924793 
L 414.72 256.512 
L 414.72 253.824 
L 414.72 251.136 
L 414.72 248.448 
L 414.72 245.76 
L 414.72 243.072 
L 414.72 240.384 
L 414.72 237.696 
L 414.72 235.008 
L 414.72 232.32 
L 414.72 229.632 
L 414.72 226.944 
L 414.72 224.256 
L 414.72 221.568 
L 414.72 218.88 
L 414.72 216.192 
L 414.72 213.504 
L 414.72 210.816 
L 414.72 208.128 
L 414.72 205.44 
L 414.72 202.752 
L 414.72 200.064 
L 414.72 197.376 
L 414.72 194.688 
L 414.72 192 
L 414.72 189.312 
L 414.72 186.624 
L 414.72 183.936 
L 414.72 181.248 
L 414.72 178.56 
L 414.72 175.872 
L 414.72 173.184 
L 414.72 170.496 
L 414.72 167.808 
L 414.72 165.12 
L 414.72 162.432 
L 414.72 159.744 
L 414.72 157.056 
L 414.72 156.695246 
L 411.112727 156.695246 
L 407.505455 156.695246 
L 403.898182 156.695246 
L 400.290909 156.695246 
L 396.683636 156.695246 
L 393.076364 156.695246 
L 389.469091 156.695246 
L 385.861818 156.695246 
L 382.254545 156.695246 
L 378.647273 156.695246 
L 375.04 156.695246 
L 371.432727 156.695246 
L 367.825455 156.695246 
L 364.218182 156.695246 
L 360.610909 156.695246 
L 357.003636 156.695246 
L 353.396364 156.695246 
L 349.789091 156.695246 
L 346.181818 156.695246 
L 342.574545 156.695246 
L 338.967273 156.695246 
L 335.36 156.695246 
L 331.752727 156.695246 
L 328.145455 156.695246 
L 324.538182 156.695246 
L 320.930909 156.695246 
L 317.323636 156.695246 
L 313.716364 156.695246 
L 310.109091 156.695246 
L 306.501818 156.695246 
L 302.894545 156.695246 
L 299.287273 156.695246 
L 295.68 156.695246 
L 292.072727 156.695246 
L 288.465455 156.695246 
L 284.858182 156.695246 
L 281.250909 156.695246 
L 277.643636 156.695246 
L 274.036364 156.695246 
L 270.429091 156.695246 
L 266.821818 156.695246 
L 263.214545 156.695246 
L 259.607273 156.695246 
L 256 156.695246 
L 252.392727 156.695246 
L 248.785455 156.695246 
L 245.178182 156.695246 
L 241.570909 156.695246 
L 237.963636 156.695246 
L 234.356364 156.695246 
L 230.749091 156.695246 
L 227.141818 156.695246 
L 223.534545 156.695246 
L 219.927273 156.695246 
L 216.32 156.695246 
L 212.712727 156.695246 
L 209.105455 156.695246 
L 205.498182 156.695246 
L 201.890909 156.695246 
L 198.283636 156.695246 
L 194.676364 156.695246 
L 191.069091 156.695246 
L 187.461818 156.695246 
L 183.854545 156.695246 
L 180.247273 156.695246 
L 176.64 156.695246 
L 173.032727 156.695246 
L 169.425455 156.695246 
L 165.818182 156.695246 
L 162.210909 156.695246 
L 158.603636 156.924674 
L 154.996364 156.924674 
L 151.389091 156.924674 
L 147.781818 156.924674 
L 144.174545 156.924674 
L 140.567273 156.924674 
L 136.96 156.924674 
L 133.352727 156.924674 
L 129.745455 156.924674 
L 126.138182 156.924674 
L 122.530909 156.924674 
L 118.923636 156.924674 
L 115.316364 156.924674 
L 111.709091 156.924674 
L 108.101818 156.924674 
L 104.494545 156.924674 
L 100.887273 156.924674 
L 97.28 156.924674 
L 93.672727 156.924674 
L 90.065455 156.924674 
L 86.458182 156.924674 
L 82.850909 156.924674 
L 79.243636 156.924674 
L 75.636364 156.924674 
L 72.029091 156.924674 
L 68.421818 156.924674 
L 64.814545 156.924674 
L 61.207273 156.924674 
L 57.6 156.924674 
L 57.6 157.056 
L 57.6 159.744 
L 57.6 162.432 
L 57.6 165.12 
L 57.6 167.808 
L 57.6 170.496 
L 57.6 173.184 
L 57.6 175.872 
L 57.6 178.56 
L 57.6 181.248 
L 57.6 183.936 
L 57.6 186.624 
L 57.6 189.312 
L 57.6 192 
L 57.6 194.688 
L 57.6 197.376 
L 57.6 200.064 
L 57.6 202.752 
L 57.6 205.44 
L 57.6 208.128 
L 57.6 210.816 
L 57.6 213.504 
L 57.6 216.192 
L 57.6 218.88 
L 57.6 221.568 
L 57.6 224.256 
L 57.6 226.944 
L 57.6 229.632 
L 57.6 232.32 
L 57.6 235.008 
L 57.6 237.696 
L 57.6 240.384 
L 57.6 243.072 
L 57.6 245.76 
L 57.6 248.448 
L 57.6 251.136 
L 57.6 253.824 
L 57.6 256.512 
L 57.6 257.142715 
z
" clip-path="url(#p3461759017)" style="fill: #21918c; fill-opacity: 0.75"/>
   </g>
   <g id="PathCollection_5">
    <path d="M 61.207273 258.848366 
L 64.814545 258.848366 
L 68.421818 258.848366 
L 72.029091 258.848366 
L 75.636364 258.848366 
L 79.243636 258.848366 
L 82.850909 258.848366 
L 86.458182 258.848366 
L 90.065455 258.848366 
L 93.672727 258.848366 
L 97.28 258.848366 
L 100.887273 258.848366 
L 104.494545 258.848366 
L 108.101818 258.848366 
L 111.709091 258.848366 
L 115.316364 258.848366 
L 118.923636 258.848366 
L 122.530909 258.848366 
L 126.138182 258.848366 
L 129.745455 258.848366 
L 133.352727 258.848366 
L 136.96 258.848366 
L 140.567273 258.848366 
L 144.174545 258.848366 
L 147.781818 258.848366 
L 151.389091 258.848366 
L 154.996364 258.848366 
L 158.603636 258.848366 
L 162.210909 258.630443 
L 165.818182 258.630443 
L 169.425455 258.630443 
L 173.032727 258.630443 
L 176.64 258.630443 
L 180.247273 258.630443 
L 183.854545 258.630443 
L 187.461818 258.630443 
L 191.069091 258.630443 
L 194.676364 258.630443 
L 198.283636 258.630443 
L 201.890909 258.630443 
L 205.498182 258.630443 
L 209.105455 258.630443 
L 212.712727 258.630443 
L 216.32 258.630443 
L 219.927273 258.630443 
L 223.534545 258.630443 
L 227.141818 258.630443 
L 230.749091 258.630443 
L 234.356364 258.630443 
L 237.963636 258.630443 
L 241.570909 258.630443 
L 245.178182 258.630443 
L 248.785455 258.630443 
L 252.392727 258.630443 
L 256 258.630443 
L 259.607273 258.630443 
L 263.214545 258.630443 
L 266.821818 258.630443 
L 270.429091 258.630443 
L 274.036364 258.630443 
L 277.643636 258.630443 
L 281.250909 258.630443 
L 284.858182 258.630443 
L 288.465455 258.630443 
L 292.072727 258.630443 
L 295.68 258.630443 
L 299.287273 258.630443 
L 302.894545 258.630443 
L 306.501818 258.630443 
L 310.109091 258.630443 
L 313.716364 258.630443 
L 317.323636 258.630443 
L 320.930909 258.630443 
L 324.538182 258.630443 
L 328.145455 258.630443 
L 331.752727 258.630443 
L 335.36 258.630443 
L 338.967273 258.630443 
L 342.574545 258.630443 
L 346.181818 258.630443 
L 349.789091 258.630443 
L 353.396364 258.630443 
L 357.003636 258.630443 
L 360.610909 258.630443 
L 364.218182 258.630443 
L 367.825455 258.630443 
L 371.432727 258.630443 
L 375.04 258.630443 
L 378.647273 258.630443 
L 382.254545 258.630443 
L 385.861818 258.630443 
L 389.469091 258.630443 
L 393.076364 258.630443 
L 396.683636 258.630443 
L 400.290909 258.630443 
L 403.898182 258.630443 
L 407.505455 258.630443 
L 411.112727 258.630443 
L 414.72 258.630443 
L 414.72 256.924793 
L 411.112727 256.924793 
L 407.505455 256.924793 
L 403.898182 256.924793 
L 400.290909 256.924793 
L 396.683636 256.924793 
L 393.076364 256.924793 
L 389.469091 256.924793 
L 385.861818 256.924793 
L 382.254545 256.924793 
L 378.647273 256.924793 
L 375.04 256.924793 
L 371.432727 256.924793 
L 367.825455 256.924793 
L 364.218182 256.924793 
L 360.610909 256.924793 
L 357.003636 256.924793 
L 353.396364 256.924793 
L 349.789091 256.924793 
L 346.181818 256.924793 
L 342.574545 256.924793 
L 338.967273 256.924793 
L 335.36 256.924793 
L 331.752727 256.924793 
L 328.145455 256.924793 
L 324.538182 256.924793 
L 320.930909 256.924793 
L 317.323636 256.924793 
L 313.716364 256.924793 
L 310.109091 256.924793 
L 306.501818 256.924793 
L 302.894545 256.924793 
L 299.287273 256.924793 
L 295.68 256.924793 
L 292.072727 256.924793 
L 288.465455 256.924793 
L 284.858182 256.924793 
L 281.250909 256.924793 
L 277.643636 256.924793 
L 274.036364 256.924793 
L 270.429091 256.924793 
L 266.821818 256.924793 
L 263.214545 256.924793 
L 259.607273 256.924793 
L 256 256.924793 
L 252.392727 256.924793 
L 248.785455 256.924793 
L 245.178182 256.924793 
L 241.570909 256.924793 
L 237.963636 256.924793 
L 234.356364 256.924793 
L 230.749091 256.924793 
L 227.141818 256.924793 
L 223.534545 256.924793 
L 219.927273 256.924793 
L 216.32 256.924793 
L 212.712727 256.924793 
L 209.105455 256.924793 
L 205.498182 256.924793 
L 201.890909 256.924793 
L 198.283636 256.924793 
L 194.676364 256.924793 
L 191.069091 256.924793 
L 187.461818 256.924793 
L 183.854545 256.924793 
L 180.247273 256.924793 
L 176.64 256.924793 
L 173.032727 256.924793 
L 169.425455 256.924793 
L 165.818182 256.924793 
L 162.210909 256.924793 
L 158.603636 257.142715 
L 154.996364 257.142715 
L 151.389091 257.142715 
L 147.781818 257.142715 
L 144.174545 257.142715 
L 140.567273 257.142715 
L 136.96 257.142715 
L 133.352727 257.142715 
L 129.745455 257.142715 
L 126.138182 257.142715 
L 122.530909 257.142715 
L 118.923636 257.142715 
L 115.316364 257.142715 
L 111.709091 257.142715 
L 108.101818 257.142715 
L 104.494545 257.142715 
L 100.887273 257.142715 
L 97.28 257.142715 
L 93.672727 257.142715 
L 90.065455 257.142715 
L 86.458182 257.142715 
L 82.850909 257.142715 
L 79.243636 257.142715 
L 75.636364 257.142715 
L 72.029091 257.142715 
L 68.421818 257.142715 
L 64.814545 257.142715 
L 61.207273 257.142715 
L 57.6 257.142715 
L 57.6 258.848366 
z
" clip-path="url(#p3461759017)" style="fill: #2db27d; fill-opacity: 0.75"/>
   </g>
   <g id="PathCollection_6">
    <path d="M 61.207273 307.584 
L 64.814545 307.584 
L 68.421818 307.584 
L 72.029091 307.584 
L 75.636364 307.584 
L 79.243636 307.584 
L 82.850909 307.584 
L 86.458182 307.584 
L 90.065455 307.584 
L 93.672727 307.584 
L 97.28 307.584 
L 100.887273 307.584 
L 104.494545 307.584 
L 108.101818 307.584 
L 111.709091 307.584 
L 115.316364 307.584 
L 118.923636 307.584 
L 122.530909 307.584 
L 126.138182 307.584 
L 129.745455 307.584 
L 133.352727 307.584 
L 136.96 307.584 
L 140.567273 307.584 
L 144.174545 307.584 
L 147.781818 307.584 
L 151.389091 307.584 
L 154.996364 307.584 
L 158.603636 307.584 
L 162.210909 307.584 
L 165.818182 307.584 
L 169.425455 307.584 
L 173.032727 307.584 
L 176.64 307.584 
L 180.247273 307.584 
L 183.854545 307.584 
L 187.461818 307.584 
L 191.069091 307.584 
L 194.676364 307.584 
L 198.283636 307.584 
L 201.890909 307.584 
L 205.498182 307.584 
L 209.105455 307.584 
L 212.712727 307.584 
L 216.32 307.584 
L 219.927273 307.584 
L 223.534545 307.584 
L 227.141818 307.584 
L 230.749091 307.584 
L 234.356364 307.584 
L 237.963636 307.584 
L 241.570909 307.584 
L 245.178182 307.584 
L 248.785455 307.584 
L 252.392727 307.584 
L 256 307.584 
L 259.607273 307.584 
L 263.214545 307.584 
L 266.821818 307.584 
L 270.429091 307.584 
L 274.036364 307.584 
L 277.643636 307.584 
L 281.250909 307.584 
L 284.858182 307.584 
L 288.465455 307.584 
L 292.072727 307.584 
L 295.68 307.584 
L 299.287273 307.584 
L 302.894545 307.584 
L 306.501818 307.584 
L 310.109091 307.584 
L 313.716364 307.584 
L 317.323636 307.584 
L 320.930909 307.584 
L 324.538182 307.584 
L 328.145455 307.584 
L 331.752727 307.584 
L 335.36 307.584 
L 338.967273 307.584 
L 342.574545 307.584 
L 346.181818 307.584 
L 349.789091 307.584 
L 353.396364 307.584 
L 357.003636 307.584 
L 360.610909 307.584 
L 364.218182 307.584 
L 367.825455 307.584 
L 371.432727 307.584 
L 375.04 307.584 
L 378.647273 307.584 
L 382.254545 307.584 
L 385.861818 307.584 
L 389.469091 307.584 
L 393.076364 307.584 
L 396.683636 307.584 
L 400.290909 307.584 
L 403.898182 307.584 
L 407.505455 307.584 
L 411.112727 307.584 
L 414.72 307.584 
L 414.72 304.896 
L 414.72 302.208 
L 414.72 299.52 
L 414.72 296.832 
L 414.72 294.144 
L 414.72 291.456 
L 414.72 288.768 
L 414.72 287.794889 
L 411.112727 287.794889 
L 407.505455 287.794889 
L 403.898182 287.794889 
L 400.290909 287.794889 
L 396.683636 287.794889 
L 393.076364 287.794889 
L 389.469091 287.794889 
L 385.861818 287.794889 
L 382.254545 287.794889 
L 378.647273 287.794889 
L 375.04 287.794889 
L 371.432727 287.794889 
L 367.825455 287.794889 
L 364.218182 287.794889 
L 360.610909 287.794889 
L 357.003636 287.794889 
L 353.396364 287.794889 
L 349.789091 287.794889 
L 346.181818 287.794889 
L 342.574545 287.794889 
L 338.967273 287.794889 
L 335.36 287.794889 
L 331.752727 287.794889 
L 328.145455 287.794889 
L 324.538182 287.794889 
L 320.930909 287.794889 
L 317.323636 287.794889 
L 313.716364 287.794889 
L 310.109091 287.794889 
L 306.501818 287.794889 
L 302.894545 287.794889 
L 299.287273 287.794889 
L 295.68 287.794889 
L 292.072727 287.794889 
L 288.465455 287.794889 
L 284.858182 287.794889 
L 281.250909 287.794889 
L 277.643636 287.794889 
L 274.036364 287.794889 
L 270.429091 287.794889 
L 266.821818 287.794889 
L 263.214545 287.794889 
L 259.607273 287.794889 
L 256 287.794889 
L 252.392727 287.794889 
L 248.785455 287.794889 
L 245.178182 287.794889 
L 241.570909 287.794889 
L 237.963636 287.794889 
L 234.356364 287.794889 
L 230.749091 287.794889 
L 227.141818 287.794889 
L 223.534545 287.794889 
L 219.927273 287.794889 
L 216.32 287.794889 
L 212.712727 287.794889 
L 209.105455 287.794889 
L 205.498182 287.794889 
L 201.890909 287.794889 
L 198.283636 287.794889 
L 194.676364 287.794889 
L 191.069091 287.794889 
L 187.461818 287.794889 
L 183.854545 287.794889 
L 180.247273 287.794889 
L 176.64 287.794889 
L 173.032727 287.794889 
L 169.425455 287.794889 
L 165.818182 287.794889 
L 162.210909 287.794889 
L 158.603636 287.473538 
L 154.996364 287.473538 
L 151.389091 287.473538 
L 147.781818 287.473538 
L 144.174545 287.473538 
L 140.567273 287.473538 
L 136.96 287.473538 
L 133.352727 287.473538 
L 129.745455 287.473538 
L 126.138182 287.473538 
L 122.530909 287.473538 
L 118.923636 287.473538 
L 115.316364 287.473538 
L 111.709091 287.473538 
L 108.101818 287.473538 
L 104.494545 287.473538 
L 100.887273 287.473538 
L 97.28 287.473538 
L 93.672727 287.473538 
L 90.065455 287.473538 
L 86.458182 287.473538 
L 82.850909 287.473538 
L 79.243636 287.473538 
L 75.636364 287.473538 
L 72.029091 287.473538 
L 68.421818 287.473538 
L 64.814545 287.473538 
L 61.207273 287.473538 
L 57.6 287.473538 
L 57.6 288.768 
L 57.6 291.456 
L 57.6 294.144 
L 57.6 296.832 
L 57.6 299.52 
L 57.6 302.208 
L 57.6 304.896 
L 57.6 307.584 
z
" clip-path="url(#p3461759017)" style="fill: #73d056; fill-opacity: 0.75"/>
    <path d="M 61.207273 263.471096 
L 64.814545 263.471096 
L 68.421818 263.471096 
L 72.029091 263.471096 
L 75.636364 263.471096 
L 79.243636 263.471096 
L 82.850909 263.471096 
L 86.458182 263.471096 
L 90.065455 263.471096 
L 93.672727 263.471096 
L 97.28 263.471096 
L 100.887273 263.471096 
L 104.494545 263.471096 
L 108.101818 263.471096 
L 111.709091 263.471096 
L 115.316364 263.471096 
L 118.923636 263.471096 
L 122.530909 263.471096 
L 126.138182 263.471096 
L 129.745455 263.471096 
L 133.352727 263.471096 
L 136.96 263.471096 
L 140.567273 263.471096 
L 144.174545 263.471096 
L 147.781818 263.471096 
L 151.389091 263.471096 
L 154.996364 263.471096 
L 158.603636 263.471096 
L 162.210909 263.216304 
L 165.818182 263.216304 
L 169.425455 263.216304 
L 173.032727 263.216304 
L 176.64 263.216304 
L 180.247273 263.216304 
L 183.854545 263.216304 
L 187.461818 263.216304 
L 191.069091 263.216304 
L 194.676364 263.216304 
L 198.283636 263.216304 
L 201.890909 263.216304 
L 205.498182 263.216304 
L 209.105455 263.216304 
L 212.712727 263.216304 
L 216.32 263.216304 
L 219.927273 263.216304 
L 223.534545 263.216304 
L 227.141818 263.216304 
L 230.749091 263.216304 
L 234.356364 263.216304 
L 237.963636 263.216304 
L 241.570909 263.216304 
L 245.178182 263.216304 
L 248.785455 263.216304 
L 252.392727 263.216304 
L 256 263.216304 
L 259.607273 263.216304 
L 263.214545 263.216304 
L 266.821818 263.216304 
L 270.429091 263.216304 
L 274.036364 263.216304 
L 277.643636 263.216304 
L 281.250909 263.216304 
L 284.858182 263.216304 
L 288.465455 263.216304 
L 292.072727 263.216304 
L 295.68 263.216304 
L 299.287273 263.216304 
L 302.894545 263.216304 
L 306.501818 263.216304 
L 310.109091 263.216304 
L 313.716364 263.216304 
L 317.323636 263.216304 
L 320.930909 263.216304 
L 324.538182 263.216304 
L 328.145455 263.216304 
L 331.752727 263.216304 
L 335.36 263.216304 
L 338.967273 263.216304 
L 342.574545 263.216304 
L 346.181818 263.216304 
L 349.789091 263.216304 
L 353.396364 263.216304 
L 357.003636 263.216304 
L 360.610909 263.216304 
L 364.218182 263.216304 
L 367.825455 263.216304 
L 371.432727 263.216304 
L 375.04 263.216304 
L 378.647273 263.216304 
L 382.254545 263.216304 
L 385.861818 263.216304 
L 389.469091 263.216304 
L 393.076364 263.216304 
L 396.683636 263.216304 
L 400.290909 263.216304 
L 403.898182 263.216304 
L 407.505455 263.216304 
L 411.112727 263.216304 
L 414.72 263.216304 
L 414.72 261.888 
L 414.72 259.2 
L 414.72 258.630443 
L 411.112727 258.630443 
L 407.505455 258.630443 
L 403.898182 258.630443 
L 400.290909 258.630443 
L 396.683636 258.630443 
L 393.076364 258.630443 
L 389.469091 258.630443 
L 385.861818 258.630443 
L 382.254545 258.630443 
L 378.647273 258.630443 
L 375.04 258.630443 
L 371.432727 258.630443 
L 367.825455 258.630443 
L 364.218182 258.630443 
L 360.610909 258.630443 
L 357.003636 258.630443 
L 353.396364 258.630443 
L 349.789091 258.630443 
L 346.181818 258.630443 
L 342.574545 258.630443 
L 338.967273 258.630443 
L 335.36 258.630443 
L 331.752727 258.630443 
L 328.145455 258.630443 
L 324.538182 258.630443 
L 320.930909 258.630443 
L 317.323636 258.630443 
L 313.716364 258.630443 
L 310.109091 258.630443 
L 306.501818 258.630443 
L 302.894545 258.630443 
L 299.287273 258.630443 
L 295.68 258.630443 
L 292.072727 258.630443 
L 288.465455 258.630443 
L 284.858182 258.630443 
L 281.250909 258.630443 
L 277.643636 258.630443 
L 274.036364 258.630443 
L 270.429091 258.630443 
L 266.821818 258.630443 
L 263.214545 258.630443 
L 259.607273 258.630443 
L 256 258.630443 
L 252.392727 258.630443 
L 248.785455 258.630443 
L 245.178182 258.630443 
L 241.570909 258.630443 
L 237.963636 258.630443 
L 234.356364 258.630443 
L 230.749091 258.630443 
L 227.141818 258.630443 
L 223.534545 258.630443 
L 219.927273 258.630443 
L 216.32 258.630443 
L 212.712727 258.630443 
L 209.105455 258.630443 
L 205.498182 258.630443 
L 201.890909 258.630443 
L 198.283636 258.630443 
L 194.676364 258.630443 
L 191.069091 258.630443 
L 187.461818 258.630443 
L 183.854545 258.630443 
L 180.247273 258.630443 
L 176.64 258.630443 
L 173.032727 258.630443 
L 169.425455 258.630443 
L 165.818182 258.630443 
L 162.210909 258.630443 
L 158.603636 258.848366 
L 154.996364 258.848366 
L 151.389091 258.848366 
L 147.781818 258.848366 
L 144.174545 258.848366 
L 140.567273 258.848366 
L 136.96 258.848366 
L 133.352727 258.848366 
L 129.745455 258.848366 
L 126.138182 258.848366 
L 122.530909 258.848366 
L 118.923636 258.848366 
L 115.316364 258.848366 
L 111.709091 258.848366 
L 108.101818 258.848366 
L 104.494545 258.848366 
L 100.887273 258.848366 
L 97.28 258.848366 
L 93.672727 258.848366 
L 90.065455 258.848366 
L 86.458182 258.848366 
L 82.850909 258.848366 
L 79.243636 258.848366 
L 75.636364 258.848366 
L 72.029091 258.848366 
L 68.421818 258.848366 
L 64.814545 258.848366 
L 61.207273 258.848366 
L 57.6 258.848366 
L 57.6 259.2 
L 57.6 261.888 
L 57.6 263.471096 
z
" clip-path="url(#p3461759017)" style="fill: #73d056; fill-opacity: 0.75"/>
   </g>
   <g id="PathCollection_7">
    <path d="M 61.207273 287.473538 
L 64.814545 287.473538 
L 68.421818 287.473538 
L 72.029091 287.473538 
L 75.636364 287.473538 
L 79.243636 287.473538 
L 82.850909 287.473538 
L 86.458182 287.473538 
L 90.065455 287.473538 
L 93.672727 287.473538 
L 97.28 287.473538 
L 100.887273 287.473538 
L 104.494545 287.473538 
L 108.101818 287.473538 
L 111.709091 287.473538 
L 115.316364 287.473538 
L 118.923636 287.473538 
L 122.530909 287.473538 
L 126.138182 287.473538 
L 129.745455 287.473538 
L 133.352727 287.473538 
L 136.96 287.473538 
L 140.567273 287.473538 
L 144.174545 287.473538 
L 147.781818 287.473538 
L 151.389091 287.473538 
L 154.996364 287.473538 
L 158.603636 287.473538 
L 162.210909 287.794889 
L 165.818182 287.794889 
L 169.425455 287.794889 
L 173.032727 287.794889 
L 176.64 287.794889 
L 180.247273 287.794889 
L 183.854545 287.794889 
L 187.461818 287.794889 
L 191.069091 287.794889 
L 194.676364 287.794889 
L 198.283636 287.794889 
L 201.890909 287.794889 
L 205.498182 287.794889 
L 209.105455 287.794889 
L 212.712727 287.794889 
L 216.32 287.794889 
L 219.927273 287.794889 
L 223.534545 287.794889 
L 227.141818 287.794889 
L 230.749091 287.794889 
L 234.356364 287.794889 
L 237.963636 287.794889 
L 241.570909 287.794889 
L 245.178182 287.794889 
L 248.785455 287.794889 
L 252.392727 287.794889 
L 256 287.794889 
L 259.607273 287.794889 
L 263.214545 287.794889 
L 266.821818 287.794889 
L 270.429091 287.794889 
L 274.036364 287.794889 
L 277.643636 287.794889 
L 281.250909 287.794889 
L 284.858182 287.794889 
L 288.465455 287.794889 
L 292.072727 287.794889 
L 295.68 287.794889 
L 299.287273 287.794889 
L 302.894545 287.794889 
L 306.501818 287.794889 
L 310.109091 287.794889 
L 313.716364 287.794889 
L 317.323636 287.794889 
L 320.930909 287.794889 
L 324.538182 287.794889 
L 328.145455 287.794889 
L 331.752727 287.794889 
L 335.36 287.794889 
L 338.967273 287.794889 
L 342.574545 287.794889 
L 346.181818 287.794889 
L 349.789091 287.794889 
L 353.396364 287.794889 
L 357.003636 287.794889 
L 360.610909 287.794889 
L 364.218182 287.794889 
L 367.825455 287.794889 
L 371.432727 287.794889 
L 375.04 287.794889 
L 378.647273 287.794889 
L 382.254545 287.794889 
L 385.861818 287.794889 
L 389.469091 287.794889 
L 393.076364 287.794889 
L 396.683636 287.794889 
L 400.290909 287.794889 
L 403.898182 287.794889 
L 407.505455 287.794889 
L 411.112727 287.794889 
L 414.72 287.794889 
L 414.72 286.08 
L 414.72 283.392 
L 414.72 280.704 
L 414.72 278.016 
L 414.72 275.328 
L 414.72 272.64 
L 414.72 269.952 
L 414.72 267.264 
L 414.72 264.576 
L 414.72 263.216304 
L 411.112727 263.216304 
L 407.505455 263.216304 
L 403.898182 263.216304 
L 400.290909 263.216304 
L 396.683636 263.216304 
L 393.076364 263.216304 
L 389.469091 263.216304 
L 385.861818 263.216304 
L 382.254545 263.216304 
L 378.647273 263.216304 
L 375.04 263.216304 
L 371.432727 263.216304 
L 367.825455 263.216304 
L 364.218182 263.216304 
L 360.610909 263.216304 
L 357.003636 263.216304 
L 353.396364 263.216304 
L 349.789091 263.216304 
L 346.181818 263.216304 
L 342.574545 263.216304 
L 338.967273 263.216304 
L 335.36 263.216304 
L 331.752727 263.216304 
L 328.145455 263.216304 
L 324.538182 263.216304 
L 320.930909 263.216304 
L 317.323636 263.216304 
L 313.716364 263.216304 
L 310.109091 263.216304 
L 306.501818 263.216304 
L 302.894545 263.216304 
L 299.287273 263.216304 
L 295.68 263.216304 
L 292.072727 263.216304 
L 288.465455 263.216304 
L 284.858182 263.216304 
L 281.250909 263.216304 
L 277.643636 263.216304 
L 274.036364 263.216304 
L 270.429091 263.216304 
L 266.821818 263.216304 
L 263.214545 263.216304 
L 259.607273 263.216304 
L 256 263.216304 
L 252.392727 263.216304 
L 248.785455 263.216304 
L 245.178182 263.216304 
L 241.570909 263.216304 
L 237.963636 263.216304 
L 234.356364 263.216304 
L 230.749091 263.216304 
L 227.141818 263.216304 
L 223.534545 263.216304 
L 219.927273 263.216304 
L 216.32 263.216304 
L 212.712727 263.216304 
L 209.105455 263.216304 
L 205.498182 263.216304 
L 201.890909 263.216304 
L 198.283636 263.216304 
L 194.676364 263.216304 
L 191.069091 263.216304 
L 187.461818 263.216304 
L 183.854545 263.216304 
L 180.247273 263.216304 
L 176.64 263.216304 
L 173.032727 263.216304 
L 169.425455 263.216304 
L 165.818182 263.216304 
L 162.210909 263.216304 
L 158.603636 263.471096 
L 154.996364 263.471096 
L 151.389091 263.471096 
L 147.781818 263.471096 
L 144.174545 263.471096 
L 140.567273 263.471096 
L 136.96 263.471096 
L 133.352727 263.471096 
L 129.745455 263.471096 
L 126.138182 263.471096 
L 122.530909 263.471096 
L 118.923636 263.471096 
L 115.316364 263.471096 
L 111.709091 263.471096 
L 108.101818 263.471096 
L 104.494545 263.471096 
L 100.887273 263.471096 
L 97.28 263.471096 
L 93.672727 263.471096 
L 90.065455 263.471096 
L 86.458182 263.471096 
L 82.850909 263.471096 
L 79.243636 263.471096 
L 75.636364 263.471096 
L 72.029091 263.471096 
L 68.421818 263.471096 
L 64.814545 263.471096 
L 61.207273 263.471096 
L 57.6 263.471096 
L 57.6 264.576 
L 57.6 267.264 
L 57.6 269.952 
L 57.6 272.64 
L 57.6 275.328 
L 57.6 278.016 
L 57.6 280.704 
L 57.6 283.392 
L 57.6 286.08 
L 57.6 287.473538 
z
" clip-path="url(#p3461759017)" style="fill: #d0e11c; fill-opacity: 0.75"/>
   </g>
   <g id="matplotlib.axis_1">
    <g id="xtick_1">
     <g id="line2d_1">
      <defs>
       <path id="m20c713165e" d="M 0 0 
L 0 3.5 
" style="stroke: #000000; stroke-width: 0.8"/>
      </defs>
      <g>
       <use xlink:href="#m20c713165e" x="116.477033" y="307.584" style="stroke: #000000; stroke-width: 0.8"/>
      </g>
     </g>
     <g id="text_1">
      <!-- −1.0 -->
      <g transform="translate(104.335626 322.182437) scale(0.1 -0.1)">
       <defs>
        <path id="DejaVuSans-2212" d="M 678 2272 
L 4684 2272 
L 4684 1741 
L 678 1741 
L 678 2272 
z
" transform="scale(0.015625)"/>
        <path id="DejaVuSans-31" d="M 794 531 
L 1825 531 
L 1825 4091 
L 703 3866 
L 703 4441 
L 1819 4666 
L 2450 4666 
L 2450 531 
L 3481 531 
L 3481 0 
L 794 0 
L 794 531 
z
" transform="scale(0.015625)"/>
        <path id="DejaVuSans-2e" d="M 684 794 
L 1344 794 
L 1344 0 
L 684 0 
L 684 794 
z
" transform="scale(0.015625)"/>
        <path id="DejaVuSans-30" d="M 2034 4250 
Q 1547 4250 1301 3770 
Q 1056 3291 1056 2328 
Q 1056 1369 1301 889 
Q 1547 409 2034 409 
Q 2525 409 2770 889 
Q 3016 1369 3016 2328 
Q 3016 3291 2770 3770 
Q 2525 4250 2034 4250 
z
M 2034 4750 
Q 2819 4750 3233 4129 
Q 3647 3509 3647 2328 
Q 3647 1150 3233 529 
Q 2819 -91 2034 -91 
Q 1250 -91 836 529 
Q 422 1150 422 2328 
Q 422 3509 836 4129 
Q 1250 4750 2034 4750 
z
" transform="scale(0.015625)"/>
       </defs>
       <use xlink:href="#DejaVuSans-2212"/>
       <use xlink:href="#DejaVuSans-31" x="83.789062"/>
       <use xlink:href="#DejaVuSans-2e" x="147.412109"/>
       <use xlink:href="#DejaVuSans-30" x="179.199219"/>
      </g>
     </g>
    </g>
    <g id="xtick_2">
     <g id="line2d_2">
      <g>
       <use xlink:href="#m20c713165e" x="175.858599" y="307.584" style="stroke: #000000; stroke-width: 0.8"/>
      </g>
     </g>
     <g id="text_2">
      <!-- −0.5 -->
      <g transform="translate(163.717193 322.182437) scale(0.1 -0.1)">
       <defs>
        <path id="DejaVuSans-35" d="M 691 4666 
L 3169 4666 
L 3169 4134 
L 1269 4134 
L 1269 2991 
Q 1406 3038 1543 3061 
Q 1681 3084 1819 3084 
Q 2600 3084 3056 2656 
Q 3513 2228 3513 1497 
Q 3513 744 3044 326 
Q 2575 -91 1722 -91 
Q 1428 -91 1123 -41 
Q 819 9 494 109 
L 494 744 
Q 775 591 1075 516 
Q 1375 441 1709 441 
Q 2250 441 2565 725 
Q 2881 1009 2881 1497 
Q 2881 1984 2565 2268 
Q 2250 2553 1709 2553 
Q 1456 2553 1204 2497 
Q 953 2441 691 2322 
L 691 4666 
z
" transform="scale(0.015625)"/>
       </defs>
       <use xlink:href="#DejaVuSans-2212"/>
       <use xlink:href="#DejaVuSans-30" x="83.789062"/>
       <use xlink:href="#DejaVuSans-2e" x="147.412109"/>
       <use xlink:href="#DejaVuSans-35" x="179.199219"/>
      </g>
     </g>
    </g>
    <g id="xtick_3">
     <g id="line2d_3">
      <g>
       <use xlink:href="#m20c713165e" x="235.240165" y="307.584" style="stroke: #000000; stroke-width: 0.8"/>
      </g>
     </g>
     <g id="text_3">
      <!-- 0.0 -->
      <g transform="translate(227.288602 322.182437) scale(0.1 -0.1)">
       <use xlink:href="#DejaVuSans-30"/>
       <use xlink:href="#DejaVuSans-2e" x="63.623047"/>
       <use xlink:href="#DejaVuSans-30" x="95.410156"/>
      </g>
     </g>
    </g>
    <g id="xtick_4">
     <g id="line2d_4">
      <g>
       <use xlink:href="#m20c713165e" x="294.621731" y="307.584" style="stroke: #000000; stroke-width: 0.8"/>
      </g>
     </g>
     <g id="text_4">
      <!-- 0.5 -->
      <g transform="translate(286.670169 322.182437) scale(0.1 -0.1)">
       <use xlink:href="#DejaVuSans-30"/>
       <use xlink:href="#DejaVuSans-2e" x="63.623047"/>
       <use xlink:href="#DejaVuSans-35" x="95.410156"/>
      </g>
     </g>
    </g>
    <g id="xtick_5">
     <g id="line2d_5">
      <g>
       <use xlink:href="#m20c713165e" x="354.003297" y="307.584" style="stroke: #000000; stroke-width: 0.8"/>
      </g>
     </g>
     <g id="text_5">
      <!-- 1.0 -->
      <g transform="translate(346.051735 322.182437) scale(0.1 -0.1)">
       <use xlink:href="#DejaVuSans-31"/>
       <use xlink:href="#DejaVuSans-2e" x="63.623047"/>
       <use xlink:href="#DejaVuSans-30" x="95.410156"/>
      </g>
     </g>
    </g>
    <g id="xtick_6">
     <g id="line2d_6">
      <g>
       <use xlink:href="#m20c713165e" x="413.384864" y="307.584" style="stroke: #000000; stroke-width: 0.8"/>
      </g>
     </g>
     <g id="text_6">
      <!-- 1.5 -->
      <g transform="translate(405.433301 322.182437) scale(0.1 -0.1)">
       <use xlink:href="#DejaVuSans-31"/>
       <use xlink:href="#DejaVuSans-2e" x="63.623047"/>
       <use xlink:href="#DejaVuSans-35" x="95.410156"/>
      </g>
     </g>
    </g>
    <g id="text_7">
     <!-- Obesity Rate -->
     <g transform="translate(204.008437 335.860562) scale(0.1 -0.1)">
      <defs>
       <path id="DejaVuSans-4f" d="M 2522 4238 
Q 1834 4238 1429 3725 
Q 1025 3213 1025 2328 
Q 1025 1447 1429 934 
Q 1834 422 2522 422 
Q 3209 422 3611 934 
Q 4013 1447 4013 2328 
Q 4013 3213 3611 3725 
Q 3209 4238 2522 4238 
z
M 2522 4750 
Q 3503 4750 4090 4092 
Q 4678 3434 4678 2328 
Q 4678 1225 4090 567 
Q 3503 -91 2522 -91 
Q 1538 -91 948 565 
Q 359 1222 359 2328 
Q 359 3434 948 4092 
Q 1538 4750 2522 4750 
z
" transform="scale(0.015625)"/>
       <path id="DejaVuSans-62" d="M 3116 1747 
Q 3116 2381 2855 2742 
Q 2594 3103 2138 3103 
Q 1681 3103 1420 2742 
Q 1159 2381 1159 1747 
Q 1159 1113 1420 752 
Q 1681 391 2138 391 
Q 2594 391 2855 752 
Q 3116 1113 3116 1747 
z
M 1159 2969 
Q 1341 3281 1617 3432 
Q 1894 3584 2278 3584 
Q 2916 3584 3314 3078 
Q 3713 2572 3713 1747 
Q 3713 922 3314 415 
Q 2916 -91 2278 -91 
Q 1894 -91 1617 61 
Q 1341 213 1159 525 
L 1159 0 
L 581 0 
L 581 4863 
L 1159 4863 
L 1159 2969 
z
" transform="scale(0.015625)"/>
       <path id="DejaVuSans-65" d="M 3597 1894 
L 3597 1613 
L 953 1613 
Q 991 1019 1311 708 
Q 1631 397 2203 397 
Q 2534 397 2845 478 
Q 3156 559 3463 722 
L 3463 178 
Q 3153 47 2828 -22 
Q 2503 -91 2169 -91 
Q 1331 -91 842 396 
Q 353 884 353 1716 
Q 353 2575 817 3079 
Q 1281 3584 2069 3584 
Q 2775 3584 3186 3129 
Q 3597 2675 3597 1894 
z
M 3022 2063 
Q 3016 2534 2758 2815 
Q 2500 3097 2075 3097 
Q 1594 3097 1305 2825 
Q 1016 2553 972 2059 
L 3022 2063 
z
" transform="scale(0.015625)"/>
       <path id="DejaVuSans-73" d="M 2834 3397 
L 2834 2853 
Q 2591 2978 2328 3040 
Q 2066 3103 1784 3103 
Q 1356 3103 1142 2972 
Q 928 2841 928 2578 
Q 928 2378 1081 2264 
Q 1234 2150 1697 2047 
L 1894 2003 
Q 2506 1872 2764 1633 
Q 3022 1394 3022 966 
Q 3022 478 2636 193 
Q 2250 -91 1575 -91 
Q 1294 -91 989 -36 
Q 684 19 347 128 
L 347 722 
Q 666 556 975 473 
Q 1284 391 1588 391 
Q 1994 391 2212 530 
Q 2431 669 2431 922 
Q 2431 1156 2273 1281 
Q 2116 1406 1581 1522 
L 1381 1569 
Q 847 1681 609 1914 
Q 372 2147 372 2553 
Q 372 3047 722 3315 
Q 1072 3584 1716 3584 
Q 2034 3584 2315 3537 
Q 2597 3491 2834 3397 
z
" transform="scale(0.015625)"/>
       <path id="DejaVuSans-69" d="M 603 3500 
L 1178 3500 
L 1178 0 
L 603 0 
L 603 3500 
z
M 603 4863 
L 1178 4863 
L 1178 4134 
L 603 4134 
L 603 4863 
z
" transform="scale(0.015625)"/>
       <path id="DejaVuSans-74" d="M 1172 4494 
L 1172 3500 
L 2356 3500 
L 2356 3053 
L 1172 3053 
L 1172 1153 
Q 1172 725 1289 603 
Q 1406 481 1766 481 
L 2356 481 
L 2356 0 
L 1766 0 
Q 1100 0 847 248 
Q 594 497 594 1153 
L 594 3053 
L 172 3053 
L 172 3500 
L 594 3500 
L 594 4494 
L 1172 4494 
z
" transform="scale(0.015625)"/>
       <path id="DejaVuSans-79" d="M 2059 -325 
Q 1816 -950 1584 -1140 
Q 1353 -1331 966 -1331 
L 506 -1331 
L 506 -850 
L 844 -850 
Q 1081 -850 1212 -737 
Q 1344 -625 1503 -206 
L 1606 56 
L 191 3500 
L 800 3500 
L 1894 763 
L 2988 3500 
L 3597 3500 
L 2059 -325 
z
" transform="scale(0.015625)"/>
       <path id="DejaVuSans-20" transform="scale(0.015625)"/>
       <path id="DejaVuSans-52" d="M 2841 2188 
Q 3044 2119 3236 1894 
Q 3428 1669 3622 1275 
L 4263 0 
L 3584 0 
L 2988 1197 
Q 2756 1666 2539 1819 
Q 2322 1972 1947 1972 
L 1259 1972 
L 1259 0 
L 628 0 
L 628 4666 
L 2053 4666 
Q 2853 4666 3247 4331 
Q 3641 3997 3641 3322 
Q 3641 2881 3436 2590 
Q 3231 2300 2841 2188 
z
M 1259 4147 
L 1259 2491 
L 2053 2491 
Q 2509 2491 2742 2702 
Q 2975 2913 2975 3322 
Q 2975 3731 2742 3939 
Q 2509 4147 2053 4147 
L 1259 4147 
z
" transform="scale(0.015625)"/>
       <path id="DejaVuSans-61" d="M 2194 1759 
Q 1497 1759 1228 1600 
Q 959 1441 959 1056 
Q 959 750 1161 570 
Q 1363 391 1709 391 
Q 2188 391 2477 730 
Q 2766 1069 2766 1631 
L 2766 1759 
L 2194 1759 
z
M 3341 1997 
L 3341 0 
L 2766 0 
L 2766 531 
Q 2569 213 2275 61 
Q 1981 -91 1556 -91 
Q 1019 -91 701 211 
Q 384 513 384 1019 
Q 384 1609 779 1909 
Q 1175 2209 1959 2209 
L 2766 2209 
L 2766 2266 
Q 2766 2663 2505 2880 
Q 2244 3097 1772 3097 
Q 1472 3097 1187 3025 
Q 903 2953 641 2809 
L 641 3341 
Q 956 3463 1253 3523 
Q 1550 3584 1831 3584 
Q 2591 3584 2966 3190 
Q 3341 2797 3341 1997 
z
" transform="scale(0.015625)"/>
      </defs>
      <use xlink:href="#DejaVuSans-4f"/>
      <use xlink:href="#DejaVuSans-62" x="78.710938"/>
      <use xlink:href="#DejaVuSans-65" x="142.1875"/>
      <use xlink:href="#DejaVuSans-73" x="203.710938"/>
      <use xlink:href="#DejaVuSans-69" x="255.810547"/>
      <use xlink:href="#DejaVuSans-74" x="283.59375"/>
      <use xlink:href="#DejaVuSans-79" x="322.802734"/>
      <use xlink:href="#DejaVuSans-20" x="381.982422"/>
      <use xlink:href="#DejaVuSans-52" x="413.769531"/>
      <use xlink:href="#DejaVuSans-61" x="481.001953"/>
      <use xlink:href="#DejaVuSans-74" x="542.28125"/>
      <use xlink:href="#DejaVuSans-65" x="581.490234"/>
     </g>
    </g>
   </g>
   <g id="matplotlib.axis_2">
    <g id="ytick_1">
     <g id="line2d_7">
      <defs>
       <path id="me470c50ef3" d="M 0 0 
L -3.5 0 
" style="stroke: #000000; stroke-width: 0.8"/>
      </defs>
      <g>
       <use xlink:href="#me470c50ef3" x="57.6" y="297.42162" style="stroke: #000000; stroke-width: 0.8"/>
      </g>
     </g>
     <g id="text_8">
      <!-- −1.0 -->
      <g transform="translate(26.317187 301.220839) scale(0.1 -0.1)">
       <use xlink:href="#DejaVuSans-2212"/>
       <use xlink:href="#DejaVuSans-31" x="83.789062"/>
       <use xlink:href="#DejaVuSans-2e" x="147.412109"/>
       <use xlink:href="#DejaVuSans-30" x="179.199219"/>
      </g>
     </g>
    </g>
    <g id="ytick_2">
     <g id="line2d_8">
      <g>
       <use xlink:href="#me470c50ef3" x="57.6" y="255.154396" style="stroke: #000000; stroke-width: 0.8"/>
      </g>
     </g>
     <g id="text_9">
      <!-- −0.5 -->
      <g transform="translate(26.317187 258.953615) scale(0.1 -0.1)">
       <use xlink:href="#DejaVuSans-2212"/>
       <use xlink:href="#DejaVuSans-30" x="83.789062"/>
       <use xlink:href="#DejaVuSans-2e" x="147.412109"/>
       <use xlink:href="#DejaVuSans-35" x="179.199219"/>
      </g>
     </g>
    </g>
    <g id="ytick_3">
     <g id="line2d_9">
      <g>
       <use xlink:href="#me470c50ef3" x="57.6" y="212.887172" style="stroke: #000000; stroke-width: 0.8"/>
      </g>
     </g>
     <g id="text_10">
      <!-- 0.0 -->
      <g transform="translate(34.696875 216.686391) scale(0.1 -0.1)">
       <use xlink:href="#DejaVuSans-30"/>
       <use xlink:href="#DejaVuSans-2e" x="63.623047"/>
       <use xlink:href="#DejaVuSans-30" x="95.410156"/>
      </g>
     </g>
    </g>
    <g id="ytick_4">
     <g id="line2d_10">
      <g>
       <use xlink:href="#me470c50ef3" x="57.6" y="170.619949" style="stroke: #000000; stroke-width: 0.8"/>
      </g>
     </g>
     <g id="text_11">
      <!-- 0.5 -->
      <g transform="translate(34.696875 174.419167) scale(0.1 -0.1)">
       <use xlink:href="#DejaVuSans-30"/>
       <use xlink:href="#DejaVuSans-2e" x="63.623047"/>
       <use xlink:href="#DejaVuSans-35" x="95.410156"/>
      </g>
     </g>
    </g>
    <g id="ytick_5">
     <g id="line2d_11">
      <g>
       <use xlink:href="#me470c50ef3" x="57.6" y="128.352725" style="stroke: #000000; stroke-width: 0.8"/>
      </g>
     </g>
     <g id="text_12">
      <!-- 1.0 -->
      <g transform="translate(34.696875 132.151943) scale(0.1 -0.1)">
       <use xlink:href="#DejaVuSans-31"/>
       <use xlink:href="#DejaVuSans-2e" x="63.623047"/>
       <use xlink:href="#DejaVuSans-30" x="95.410156"/>
      </g>
     </g>
    </g>
    <g id="ytick_6">
     <g id="line2d_12">
      <g>
       <use xlink:href="#me470c50ef3" x="57.6" y="86.085501" style="stroke: #000000; stroke-width: 0.8"/>
      </g>
     </g>
     <g id="text_13">
      <!-- 1.5 -->
      <g transform="translate(34.696875 89.88472) scale(0.1 -0.1)">
       <use xlink:href="#DejaVuSans-31"/>
       <use xlink:href="#DejaVuSans-2e" x="63.623047"/>
       <use xlink:href="#DejaVuSans-35" x="95.410156"/>
      </g>
     </g>
    </g>
    <g id="ytick_7">
     <g id="line2d_13">
      <g>
       <use xlink:href="#me470c50ef3" x="57.6" y="43.818277" style="stroke: #000000; stroke-width: 0.8"/>
      </g>
     </g>
     <g id="text_14">
      <!-- 2.0 -->
      <g transform="translate(34.696875 47.617496) scale(0.1 -0.1)">
       <defs>
        <path id="DejaVuSans-32" d="M 1228 531 
L 3431 531 
L 3431 0 
L 469 0 
L 469 531 
Q 828 903 1448 1529 
Q 2069 2156 2228 2338 
Q 2531 2678 2651 2914 
Q 2772 3150 2772 3378 
Q 2772 3750 2511 3984 
Q 2250 4219 1831 4219 
Q 1534 4219 1204 4116 
Q 875 4013 500 3803 
L 500 4441 
Q 881 4594 1212 4672 
Q 1544 4750 1819 4750 
Q 2544 4750 2975 4387 
Q 3406 4025 3406 3419 
Q 3406 3131 3298 2873 
Q 3191 2616 2906 2266 
Q 2828 2175 2409 1742 
Q 1991 1309 1228 531 
z
" transform="scale(0.015625)"/>
       </defs>
       <use xlink:href="#DejaVuSans-32"/>
       <use xlink:href="#DejaVuSans-2e" x="63.623047"/>
       <use xlink:href="#DejaVuSans-30" x="95.410156"/>
      </g>
     </g>
    </g>
    <g id="text_15">
     <!-- PM2.5 -->
     <g transform="translate(20.2375 189.808469) rotate(-90) scale(0.1 -0.1)">
      <defs>
       <path id="DejaVuSans-50" d="M 1259 4147 
L 1259 2394 
L 2053 2394 
Q 2494 2394 2734 2622 
Q 2975 2850 2975 3272 
Q 2975 3691 2734 3919 
Q 2494 4147 2053 4147 
L 1259 4147 
z
M 628 4666 
L 2053 4666 
Q 2838 4666 3239 4311 
Q 3641 3956 3641 3272 
Q 3641 2581 3239 2228 
Q 2838 1875 2053 1875 
L 1259 1875 
L 1259 0 
L 628 0 
L 628 4666 
z
" transform="scale(0.015625)"/>
       <path id="DejaVuSans-4d" d="M 628 4666 
L 1569 4666 
L 2759 1491 
L 3956 4666 
L 4897 4666 
L 4897 0 
L 4281 0 
L 4281 4097 
L 3078 897 
L 2444 897 
L 1241 4097 
L 1241 0 
L 628 0 
L 628 4666 
z
" transform="scale(0.015625)"/>
      </defs>
      <use xlink:href="#DejaVuSans-50"/>
      <use xlink:href="#DejaVuSans-4d" x="60.302734"/>
      <use xlink:href="#DejaVuSans-32" x="146.582031"/>
      <use xlink:href="#DejaVuSans-2e" x="210.205078"/>
      <use xlink:href="#DejaVuSans-35" x="241.992188"/>
     </g>
    </g>
   </g>
   <g id="PathCollection_8"/>
   <g id="PathCollection_9">
    <path d="M 414.72 148.87028 
L 411.112727 148.87028 
L 407.505455 148.87028 
L 403.898182 148.87028 
L 400.290909 148.87028 
L 396.683636 148.87028 
L 393.076364 148.87028 
L 389.469091 148.87028 
L 385.861818 148.87028 
L 382.254545 148.87028 
L 378.647273 148.87028 
L 375.04 148.87028 
L 371.432727 148.87028 
L 369.911364 148.87028 
" clip-path="url(#p3461759017)" style="fill: none; stroke-dasharray: 1.85,0.8; stroke-dashoffset: 0; stroke: #000000; stroke-width: 0.5"/>
    <path d="M 336.881364 148.87028 
L 335.36 148.87028 
L 331.752727 148.87028 
L 328.145455 148.87028 
L 324.538182 148.87028 
L 320.930909 148.87028 
L 317.323636 148.87028 
L 313.716364 148.87028 
L 310.109091 148.87028 
L 306.501818 148.87028 
L 302.894545 148.87028 
L 299.287273 148.87028 
L 295.68 148.87028 
L 292.072727 148.87028 
L 288.465455 148.87028 
L 284.858182 148.87028 
L 281.250909 148.87028 
L 277.643636 148.87028 
L 274.036364 148.87028 
L 270.429091 148.87028 
L 266.821818 148.87028 
L 263.214545 148.87028 
L 259.607273 148.87028 
L 256 148.87028 
L 252.392727 148.87028 
L 248.785455 148.87028 
L 245.178182 148.87028 
L 241.570909 148.87028 
L 237.963636 148.87028 
L 234.356364 148.87028 
L 230.749091 148.87028 
L 227.141818 148.87028 
L 223.534545 148.87028 
L 219.927273 148.87028 
L 216.32 148.87028 
L 212.712727 148.87028 
L 209.105455 148.87028 
L 205.498182 148.87028 
L 201.890909 148.87028 
L 198.283636 148.87028 
L 194.676364 148.87028 
L 191.069091 148.87028 
L 187.461818 148.87028 
L 183.854545 148.87028 
L 180.247273 148.87028 
L 176.64 148.87028 
L 173.032727 148.87028 
L 169.425455 148.87028 
L 165.818182 148.87028 
L 162.210909 148.87028 
L 161.468956 148.992 
L 161.468956 151.68 
L 158.603636 152.082525 
L 154.996364 152.082525 
L 151.389091 152.082525 
L 147.781818 152.082525 
L 144.174545 152.082525 
L 140.567273 152.082525 
L 136.96 152.082525 
L 133.352727 152.082525 
L 129.745455 152.082525 
L 126.138182 152.082525 
L 122.530909 152.082525 
L 118.923636 152.082525 
L 115.316364 152.082525 
L 111.709091 152.082525 
L 108.101818 152.082525 
L 104.494545 152.082525 
L 100.887273 152.082525 
L 97.28 152.082525 
L 93.672727 152.082525 
L 90.065455 152.082525 
L 86.458182 152.082525 
L 82.850909 152.082525 
L 79.243636 152.082525 
L 75.636364 152.082525 
L 72.029091 152.082525 
L 68.421818 152.082525 
L 64.814545 152.082525 
L 61.207273 152.082525 
L 57.6 152.082525 
" clip-path="url(#p3461759017)" style="fill: none; stroke-dasharray: 1.85,0.8; stroke-dashoffset: 0; stroke: #000000; stroke-width: 0.5"/>
   </g>
   <g id="PathCollection_10">
    <path d="M 414.72 154.89955 
L 411.112727 154.89955 
L 407.505455 154.89955 
L 403.898182 154.89955 
L 400.290909 154.89955 
L 396.683636 154.89955 
L 393.076364 154.89955 
L 389.469091 154.89955 
L 385.861818 154.89955 
L 382.254545 154.89955 
L 378.647273 154.89955 
L 375.04 154.89955 
L 371.432727 154.89955 
L 367.825455 154.89955 
L 364.218182 154.89955 
L 360.610909 154.89955 
L 357.003636 154.89955 
L 353.396364 154.89955 
L 349.789091 154.89955 
L 346.181818 154.89955 
L 342.574545 154.89955 
L 338.967273 154.89955 
L 335.36 154.89955 
L 331.752727 154.89955 
L 328.145455 154.89955 
L 324.538182 154.89955 
L 320.930909 154.89955 
L 317.323636 154.89955 
L 313.716364 154.89955 
L 310.109091 154.89955 
L 306.501818 154.89955 
L 302.894545 154.89955 
L 299.287273 154.89955 
L 295.68 154.89955 
L 292.072727 154.89955 
L 288.465455 154.89955 
L 284.858182 154.89955 
L 281.250909 154.89955 
L 277.643636 154.89955 
L 274.036364 154.89955 
L 270.429091 154.89955 
L 266.821818 154.89955 
L 263.214545 154.89955 
L 259.607273 154.89955 
L 256 154.89955 
L 252.392727 154.89955 
L 248.785455 154.89955 
L 245.178182 154.89955 
L 243.656818 154.89955 
" clip-path="url(#p3461759017)" style="fill: none; stroke-dasharray: 1.85,0.8; stroke-dashoffset: 0; stroke: #000000; stroke-width: 0.5"/>
    <path d="M 210.626818 154.89955 
L 209.105455 154.89955 
L 205.498182 154.89955 
L 201.890909 154.89955 
L 198.283636 154.89955 
L 194.676364 154.89955 
L 191.069091 154.89955 
L 187.461818 154.89955 
L 183.854545 154.89955 
L 180.247273 154.89955 
L 176.64 154.89955 
L 173.032727 154.89955 
L 169.425455 154.89955 
L 165.818182 154.89955 
L 162.210909 154.89955 
L 158.603636 155.128977 
L 154.996364 155.128977 
L 151.389091 155.128977 
L 147.781818 155.128977 
L 144.174545 155.128977 
L 140.567273 155.128977 
L 136.96 155.128977 
L 133.352727 155.128977 
L 129.745455 155.128977 
L 126.138182 155.128977 
L 122.530909 155.128977 
L 118.923636 155.128977 
L 115.316364 155.128977 
L 111.709091 155.128977 
L 108.101818 155.128977 
L 104.494545 155.128977 
L 100.887273 155.128977 
L 97.28 155.128977 
L 93.672727 155.128977 
L 90.065455 155.128977 
L 86.458182 155.128977 
L 82.850909 155.128977 
L 79.243636 155.128977 
L 75.636364 155.128977 
L 72.029091 155.128977 
L 68.421818 155.128977 
L 64.814545 155.128977 
L 61.207273 155.128977 
L 57.6 155.128977 
" clip-path="url(#p3461759017)" style="fill: none; stroke-dasharray: 1.85,0.8; stroke-dashoffset: 0; stroke: #000000; stroke-width: 0.5"/>
   </g>
   <g id="PathCollection_11">
    <path d="M 414.72 156.695246 
L 411.112727 156.695246 
L 407.505455 156.695246 
L 403.898182 156.695246 
L 400.290909 156.695246 
L 396.683636 156.695246 
L 393.076364 156.695246 
L 389.469091 156.695246 
L 385.861818 156.695246 
L 382.254545 156.695246 
L 378.647273 156.695246 
L 375.04 156.695246 
L 371.432727 156.695246 
L 367.825455 156.695246 
L 364.218182 156.695246 
L 360.610909 156.695246 
L 357.003636 156.695246 
L 353.396364 156.695246 
L 349.789091 156.695246 
L 346.181818 156.695246 
L 342.574545 156.695246 
L 338.967273 156.695246 
L 335.36 156.695246 
L 331.752727 156.695246 
L 328.145455 156.695246 
L 324.538182 156.695246 
L 320.930909 156.695246 
L 317.323636 156.695246 
L 313.716364 156.695246 
L 310.109091 156.695246 
L 306.501818 156.695246 
L 302.894545 156.695246 
L 299.287273 156.695246 
L 295.68 156.695246 
L 292.072727 156.695246 
L 288.465455 156.695246 
L 284.858182 156.695246 
L 281.250909 156.695246 
L 277.643636 156.695246 
L 274.036364 156.695246 
L 270.429091 156.695246 
L 266.821818 156.695246 
L 263.214545 156.695246 
L 259.607273 156.695246 
L 256 156.695246 
L 252.392727 156.695246 
L 248.785455 156.695246 
L 245.178182 156.695246 
L 241.570909 156.695246 
L 237.963636 156.695246 
L 234.356364 156.695246 
L 230.749091 156.695246 
L 227.141818 156.695246 
L 223.534545 156.695246 
L 219.927273 156.695246 
L 216.32 156.695246 
L 212.712727 156.695246 
L 209.105455 156.695246 
L 205.498182 156.695246 
L 201.890909 156.695246 
L 198.283636 156.695246 
L 194.676364 156.695246 
L 191.069091 156.695246 
L 187.461818 156.695246 
L 183.854545 156.695246 
L 180.247273 156.695246 
L 176.64 156.695246 
L 173.032727 156.695246 
L 169.425455 156.695246 
L 165.818182 156.695246 
L 162.210909 156.695246 
L 158.603636 156.924674 
L 154.996364 156.924674 
L 151.389091 156.924674 
L 147.781818 156.924674 
L 144.174545 156.924674 
L 140.567273 156.924674 
L 136.96 156.924674 
L 133.352727 156.924674 
L 129.745455 156.924674 
L 126.138182 156.924674 
L 122.530909 156.924674 
L 118.923636 156.924674 
L 117.402273 156.924674 
" clip-path="url(#p3461759017)" style="fill: none; stroke-dasharray: 1.85,0.8; stroke-dashoffset: 0; stroke: #000000; stroke-width: 0.5"/>
    <path d="M 84.372273 156.924674 
L 82.850909 156.924674 
L 79.243636 156.924674 
L 75.636364 156.924674 
L 72.029091 156.924674 
L 68.421818 156.924674 
L 64.814545 156.924674 
L 61.207273 156.924674 
L 57.6 156.924674 
" clip-path="url(#p3461759017)" style="fill: none; stroke-dasharray: 1.85,0.8; stroke-dashoffset: 0; stroke: #000000; stroke-width: 0.5"/>
   </g>
   <g id="PathCollection_12">
    <path d="M 414.72 256.924793 
L 411.112727 256.924793 
L 407.505455 256.924793 
L 403.898182 256.924793 
L 400.290909 256.924793 
L 396.683636 256.924793 
L 393.076364 256.924793 
L 389.469091 256.924793 
L 385.861818 256.924793 
L 382.254545 256.924793 
L 378.647273 256.924793 
L 375.04 256.924793 
L 371.432727 256.924793 
L 369.911364 256.924793 
" clip-path="url(#p3461759017)" style="fill: none; stroke-dasharray: 1.85,0.8; stroke-dashoffset: 0; stroke: #000000; stroke-width: 0.5"/>
    <path d="M 336.881364 256.924793 
L 335.36 256.924793 
L 331.752727 256.924793 
L 328.145455 256.924793 
L 324.538182 256.924793 
L 320.930909 256.924793 
L 317.323636 256.924793 
L 313.716364 256.924793 
L 310.109091 256.924793 
L 306.501818 256.924793 
L 302.894545 256.924793 
L 299.287273 256.924793 
L 295.68 256.924793 
L 292.072727 256.924793 
L 288.465455 256.924793 
L 284.858182 256.924793 
L 281.250909 256.924793 
L 277.643636 256.924793 
L 274.036364 256.924793 
L 270.429091 256.924793 
L 266.821818 256.924793 
L 263.214545 256.924793 
L 259.607273 256.924793 
L 256 256.924793 
L 252.392727 256.924793 
L 248.785455 256.924793 
L 245.178182 256.924793 
L 241.570909 256.924793 
L 237.963636 256.924793 
L 234.356364 256.924793 
L 230.749091 256.924793 
L 227.141818 256.924793 
L 223.534545 256.924793 
L 219.927273 256.924793 
L 216.32 256.924793 
L 212.712727 256.924793 
L 209.105455 256.924793 
L 205.498182 256.924793 
L 201.890909 256.924793 
L 198.283636 256.924793 
L 194.676364 256.924793 
L 191.069091 256.924793 
L 187.461818 256.924793 
L 183.854545 256.924793 
L 180.247273 256.924793 
L 176.64 256.924793 
L 173.032727 256.924793 
L 169.425455 256.924793 
L 165.818182 256.924793 
L 162.210909 256.924793 
L 158.603636 257.142715 
L 154.996364 257.142715 
L 151.389091 257.142715 
L 147.781818 257.142715 
L 144.174545 257.142715 
L 140.567273 257.142715 
L 136.96 257.142715 
L 133.352727 257.142715 
L 129.745455 257.142715 
L 126.138182 257.142715 
L 122.530909 257.142715 
L 118.923636 257.142715 
L 115.316364 257.142715 
L 111.709091 257.142715 
L 108.101818 257.142715 
L 104.494545 257.142715 
L 100.887273 257.142715 
L 97.28 257.142715 
L 93.672727 257.142715 
L 90.065455 257.142715 
L 86.458182 257.142715 
L 82.850909 257.142715 
L 79.243636 257.142715 
L 75.636364 257.142715 
L 72.029091 257.142715 
L 68.421818 257.142715 
L 64.814545 257.142715 
L 61.207273 257.142715 
L 57.6 257.142715 
" clip-path="url(#p3461759017)" style="fill: none; stroke-dasharray: 1.85,0.8; stroke-dashoffset: 0; stroke: #000000; stroke-width: 0.5"/>
   </g>
   <g id="PathCollection_13">
    <path d="M 414.72 258.630443 
L 411.112727 258.630443 
L 407.505455 258.630443 
L 403.898182 258.630443 
L 400.290909 258.630443 
L 396.683636 258.630443 
L 393.076364 258.630443 
L 389.469091 258.630443 
L 385.861818 258.630443 
L 382.254545 258.630443 
L 378.647273 258.630443 
L 375.04 258.630443 
L 371.432727 258.630443 
L 367.825455 258.630443 
L 364.218182 258.630443 
L 360.610909 258.630443 
L 357.003636 258.630443 
L 353.396364 258.630443 
L 349.789091 258.630443 
L 346.181818 258.630443 
L 342.574545 258.630443 
L 338.967273 258.630443 
L 335.36 258.630443 
L 331.752727 258.630443 
L 328.145455 258.630443 
L 324.538182 258.630443 
L 320.930909 258.630443 
L 317.323636 258.630443 
L 313.716364 258.630443 
L 310.109091 258.630443 
L 306.501818 258.630443 
L 302.894545 258.630443 
L 299.287273 258.630443 
L 295.68 258.630443 
L 292.072727 258.630443 
L 288.465455 258.630443 
L 284.858182 258.630443 
L 281.250909 258.630443 
L 277.643636 258.630443 
L 274.036364 258.630443 
L 270.429091 258.630443 
L 266.821818 258.630443 
L 263.214545 258.630443 
L 259.607273 258.630443 
L 256 258.630443 
L 252.392727 258.630443 
L 248.785455 258.630443 
L 245.178182 258.630443 
L 243.656818 258.630443 
" clip-path="url(#p3461759017)" style="fill: none; stroke-dasharray: 1.85,0.8; stroke-dashoffset: 0; stroke: #000000; stroke-width: 0.5"/>
    <path d="M 210.626818 258.630443 
L 209.105455 258.630443 
L 205.498182 258.630443 
L 201.890909 258.630443 
L 198.283636 258.630443 
L 194.676364 258.630443 
L 191.069091 258.630443 
L 187.461818 258.630443 
L 183.854545 258.630443 
L 180.247273 258.630443 
L 176.64 258.630443 
L 173.032727 258.630443 
L 169.425455 258.630443 
L 165.818182 258.630443 
L 162.210909 258.630443 
L 158.603636 258.848366 
L 154.996364 258.848366 
L 151.389091 258.848366 
L 147.781818 258.848366 
L 144.174545 258.848366 
L 140.567273 258.848366 
L 136.96 258.848366 
L 133.352727 258.848366 
L 129.745455 258.848366 
L 126.138182 258.848366 
L 122.530909 258.848366 
L 118.923636 258.848366 
L 115.316364 258.848366 
L 111.709091 258.848366 
L 108.101818 258.848366 
L 104.494545 258.848366 
L 100.887273 258.848366 
L 97.28 258.848366 
L 93.672727 258.848366 
L 90.065455 258.848366 
L 86.458182 258.848366 
L 82.850909 258.848366 
L 79.243636 258.848366 
L 75.636364 258.848366 
L 72.029091 258.848366 
L 68.421818 258.848366 
L 64.814545 258.848366 
L 61.207273 258.848366 
L 57.6 258.848366 
" clip-path="url(#p3461759017)" style="fill: none; stroke-dasharray: 1.85,0.8; stroke-dashoffset: 0; stroke: #000000; stroke-width: 0.5"/>
   </g>
   <g id="PathCollection_14">
    <path d="M 57.6 287.473538 
L 61.207273 287.473538 
L 64.814545 287.473538 
L 68.421818 287.473538 
L 72.029091 287.473538 
L 75.636364 287.473538 
L 79.243636 287.473538 
L 82.850909 287.473538 
L 86.458182 287.473538 
L 90.065455 287.473538 
L 93.672727 287.473538 
L 97.28 287.473538 
L 100.887273 287.473538 
L 104.494545 287.473538 
L 108.101818 287.473538 
L 111.709091 287.473538 
L 115.316364 287.473538 
L 118.923636 287.473538 
L 122.530909 287.473538 
L 126.138182 287.473538 
L 129.745455 287.473538 
L 133.352727 287.473538 
L 136.96 287.473538 
L 140.567273 287.473538 
L 144.174545 287.473538 
L 147.781818 287.473538 
L 151.389091 287.473538 
L 154.996364 287.473538 
L 158.603636 287.473538 
L 162.210909 287.794889 
L 165.818182 287.794889 
L 169.425455 287.794889 
L 173.032727 287.794889 
L 176.64 287.794889 
L 180.247273 287.794889 
L 183.854545 287.794889 
L 187.461818 287.794889 
L 191.069091 287.794889 
L 194.676364 287.794889 
L 198.283636 287.794889 
L 201.890909 287.794889 
L 205.498182 287.794889 
L 209.105455 287.794889 
L 212.712727 287.794889 
L 216.32 287.794889 
L 219.927273 287.794889 
L 223.534545 287.794889 
L 227.141818 287.794889 
L 228.663182 287.794889 
" clip-path="url(#p3461759017)" style="fill: none; stroke-dasharray: 1.85,0.8; stroke-dashoffset: 0; stroke: #000000; stroke-width: 0.5"/>
    <path d="M 261.693182 287.794889 
L 263.214545 287.794889 
L 266.821818 287.794889 
L 270.429091 287.794889 
L 274.036364 287.794889 
L 277.643636 287.794889 
L 281.250909 287.794889 
L 284.858182 287.794889 
L 288.465455 287.794889 
L 292.072727 287.794889 
L 295.68 287.794889 
L 299.287273 287.794889 
L 302.894545 287.794889 
L 306.501818 287.794889 
L 310.109091 287.794889 
L 313.716364 287.794889 
L 317.323636 287.794889 
L 320.930909 287.794889 
L 324.538182 287.794889 
L 328.145455 287.794889 
L 331.752727 287.794889 
L 335.36 287.794889 
L 338.967273 287.794889 
L 342.574545 287.794889 
L 346.181818 287.794889 
L 349.789091 287.794889 
L 353.396364 287.794889 
L 357.003636 287.794889 
L 360.610909 287.794889 
L 364.218182 287.794889 
L 367.825455 287.794889 
L 371.432727 287.794889 
L 375.04 287.794889 
L 378.647273 287.794889 
L 382.254545 287.794889 
L 385.861818 287.794889 
L 389.469091 287.794889 
L 393.076364 287.794889 
L 396.683636 287.794889 
L 400.290909 287.794889 
L 403.898182 287.794889 
L 407.505455 287.794889 
L 411.112727 287.794889 
L 414.72 287.794889 
" clip-path="url(#p3461759017)" style="fill: none; stroke-dasharray: 1.85,0.8; stroke-dashoffset: 0; stroke: #000000; stroke-width: 0.5"/>
    <path d="M 414.72 263.216304 
L 411.112727 263.216304 
L 407.505455 263.216304 
L 403.898182 263.216304 
L 400.290909 263.216304 
L 396.683636 263.216304 
L 393.076364 263.216304 
L 389.469091 263.216304 
L 385.861818 263.216304 
L 382.254545 263.216304 
L 378.647273 263.216304 
L 375.04 263.216304 
L 371.432727 263.216304 
L 367.825455 263.216304 
L 364.218182 263.216304 
L 360.610909 263.216304 
L 357.003636 263.216304 
L 353.396364 263.216304 
L 349.789091 263.216304 
L 346.181818 263.216304 
L 342.574545 263.216304 
L 338.967273 263.216304 
L 335.36 263.216304 
L 331.752727 263.216304 
L 328.145455 263.216304 
L 324.538182 263.216304 
L 320.930909 263.216304 
L 317.323636 263.216304 
L 313.716364 263.216304 
L 310.109091 263.216304 
L 306.501818 263.216304 
L 302.894545 263.216304 
L 299.287273 263.216304 
L 295.68 263.216304 
L 292.072727 263.216304 
L 288.465455 263.216304 
L 284.858182 263.216304 
L 281.250909 263.216304 
L 277.643636 263.216304 
L 274.036364 263.216304 
L 270.429091 263.216304 
L 266.821818 263.216304 
L 263.214545 263.216304 
L 259.607273 263.216304 
L 256 263.216304 
L 252.392727 263.216304 
L 248.785455 263.216304 
L 245.178182 263.216304 
L 241.570909 263.216304 
L 237.963636 263.216304 
L 234.356364 263.216304 
L 230.749091 263.216304 
L 227.141818 263.216304 
L 223.534545 263.216304 
L 219.927273 263.216304 
L 216.32 263.216304 
L 212.712727 263.216304 
L 209.105455 263.216304 
L 205.498182 263.216304 
L 201.890909 263.216304 
L 198.283636 263.216304 
L 194.676364 263.216304 
L 191.069091 263.216304 
L 187.461818 263.216304 
L 183.854545 263.216304 
L 180.247273 263.216304 
L 176.64 263.216304 
L 173.032727 263.216304 
L 169.425455 263.216304 
L 165.818182 263.216304 
L 162.210909 263.216304 
L 158.603636 263.471096 
L 154.996364 263.471096 
L 151.389091 263.471096 
L 147.781818 263.471096 
L 144.174545 263.471096 
L 140.567273 263.471096 
L 136.96 263.471096 
L 133.352727 263.471096 
L 129.745455 263.471096 
L 126.138182 263.471096 
L 122.530909 263.471096 
L 118.923636 263.471096 
L 117.402273 263.471096 
" clip-path="url(#p3461759017)" style="fill: none; stroke-dasharray: 1.85,0.8; stroke-dashoffset: 0; stroke: #000000; stroke-width: 0.5"/>
    <path d="M 84.372273 263.471096 
L 82.850909 263.471096 
L 79.243636 263.471096 
L 75.636364 263.471096 
L 72.029091 263.471096 
L 68.421818 263.471096 
L 64.814545 263.471096 
L 61.207273 263.471096 
L 57.6 263.471096 
" clip-path="url(#p3461759017)" style="fill: none; stroke-dasharray: 1.85,0.8; stroke-dashoffset: 0; stroke: #000000; stroke-width: 0.5"/>
   </g>
   <g id="PathCollection_15"/>
   <g id="LineCollection_1">
    <path d="M 70.331738 307.584 
L 70.331738 294.2784 
" clip-path="url(#p3461759017)" style="fill: none; stroke: #000000; stroke-width: 1.5"/>
    <path d="M 99.846223 307.584 
L 99.846223 294.2784 
" clip-path="url(#p3461759017)" style="fill: none; stroke: #000000; stroke-width: 1.5"/>
    <path d="M 129.465928 307.584 
L 129.465928 294.2784 
" clip-path="url(#p3461759017)" style="fill: none; stroke: #000000; stroke-width: 1.5"/>
    <path d="M 223.533483 307.584 
L 223.533483 294.2784 
" clip-path="url(#p3461759017)" style="fill: none; stroke: #000000; stroke-width: 1.5"/>
    <path d="M 263.675286 307.584 
L 263.675286 294.2784 
" clip-path="url(#p3461759017)" style="fill: none; stroke: #000000; stroke-width: 1.5"/>
    <path d="M 284.088156 307.584 
L 284.088156 294.2784 
" clip-path="url(#p3461759017)" style="fill: none; stroke: #000000; stroke-width: 1.5"/>
    <path d="M 301.81789 307.584 
L 301.81789 294.2784 
" clip-path="url(#p3461759017)" style="fill: none; stroke: #000000; stroke-width: 1.5"/>
    <path d="M 335.435993 307.584 
L 335.435993 294.2784 
" clip-path="url(#p3461759017)" style="fill: none; stroke: #000000; stroke-width: 1.5"/>
    <path d="M 378.208321 307.584 
L 378.208321 294.2784 
" clip-path="url(#p3461759017)" style="fill: none; stroke: #000000; stroke-width: 1.5"/>
   </g>
   <g id="LineCollection_2">
    <path clip-path="url(#p3461759017)" style="fill: none; stroke: #000000; stroke-width: 1.5"/>
    <path clip-path="url(#p3461759017)" style="fill: none; stroke: #000000; stroke-width: 1.5"/>
    <path clip-path="url(#p3461759017)" style="fill: none; stroke: #000000; stroke-width: 1.5"/>
    <path clip-path="url(#p3461759017)" style="fill: none; stroke: #000000; stroke-width: 1.5"/>
    <path clip-path="url(#p3461759017)" style="fill: none; stroke: #000000; stroke-width: 1.5"/>
    <path d="M 235.240165 306.09979 
L 241.178322 306.09979 
" clip-path="url(#p3461759017)" style="fill: none; stroke: #000000; stroke-width: 1.5"/>
    <path d="M 235.240165 228.570613 
L 241.178322 228.570613 
" clip-path="url(#p3461759017)" style="fill: none; stroke: #000000; stroke-width: 1.5"/>
    <path d="M 235.240165 50.846286 
L 241.178322 50.846286 
" clip-path="url(#p3461759017)" style="fill: none; stroke: #000000; stroke-width: 1.5"/>
    <path clip-path="url(#p3461759017)" style="fill: none; stroke: #000000; stroke-width: 1.5"/>
   </g>
   <g id="patch_3">
    <path d="M 57.6 307.584 
L 57.6 41.472 
" style="fill: none; stroke: #000000; stroke-width: 0.8; stroke-linejoin: miter; stroke-linecap: square"/>
   </g>
   <g id="patch_4">
    <path d="M 414.72 307.584 
L 414.72 41.472 
" style="fill: none; stroke: #000000; stroke-width: 0.8; stroke-linejoin: miter; stroke-linecap: square"/>
   </g>
   <g id="patch_5">
    <path d="M 57.6 307.584 
L 414.72 307.584 
" style="fill: none; stroke: #000000; stroke-width: 0.8; stroke-linejoin: miter; stroke-linecap: square"/>
   </g>
   <g id="patch_6">
    <path d="M 57.6 41.472 
L 414.72 41.472 
" style="fill: none; stroke: #000000; stroke-width: 0.8; stroke-linejoin: miter; stroke-linecap: square"/>
   </g>
   <g id="text_16">
    <!-- 2D-partial dependency plot between Obesity and PM -->
    <g transform="translate(77.394375 35.472) scale(0.12 -0.12)">
     <defs>
      <path id="DejaVuSans-44" d="M 1259 4147 
L 1259 519 
L 2022 519 
Q 2988 519 3436 956 
Q 3884 1394 3884 2338 
Q 3884 3275 3436 3711 
Q 2988 4147 2022 4147 
L 1259 4147 
z
M 628 4666 
L 1925 4666 
Q 3281 4666 3915 4102 
Q 4550 3538 4550 2338 
Q 4550 1131 3912 565 
Q 3275 0 1925 0 
L 628 0 
L 628 4666 
z
" transform="scale(0.015625)"/>
      <path id="DejaVuSans-2d" d="M 313 2009 
L 1997 2009 
L 1997 1497 
L 313 1497 
L 313 2009 
z
" transform="scale(0.015625)"/>
      <path id="DejaVuSans-70" d="M 1159 525 
L 1159 -1331 
L 581 -1331 
L 581 3500 
L 1159 3500 
L 1159 2969 
Q 1341 3281 1617 3432 
Q 1894 3584 2278 3584 
Q 2916 3584 3314 3078 
Q 3713 2572 3713 1747 
Q 3713 922 3314 415 
Q 2916 -91 2278 -91 
Q 1894 -91 1617 61 
Q 1341 213 1159 525 
z
M 3116 1747 
Q 3116 2381 2855 2742 
Q 2594 3103 2138 3103 
Q 1681 3103 1420 2742 
Q 1159 2381 1159 1747 
Q 1159 1113 1420 752 
Q 1681 391 2138 391 
Q 2594 391 2855 752 
Q 3116 1113 3116 1747 
z
" transform="scale(0.015625)"/>
      <path id="DejaVuSans-72" d="M 2631 2963 
Q 2534 3019 2420 3045 
Q 2306 3072 2169 3072 
Q 1681 3072 1420 2755 
Q 1159 2438 1159 1844 
L 1159 0 
L 581 0 
L 581 3500 
L 1159 3500 
L 1159 2956 
Q 1341 3275 1631 3429 
Q 1922 3584 2338 3584 
Q 2397 3584 2469 3576 
Q 2541 3569 2628 3553 
L 2631 2963 
z
" transform="scale(0.015625)"/>
      <path id="DejaVuSans-6c" d="M 603 4863 
L 1178 4863 
L 1178 0 
L 603 0 
L 603 4863 
z
" transform="scale(0.015625)"/>
      <path id="DejaVuSans-64" d="M 2906 2969 
L 2906 4863 
L 3481 4863 
L 3481 0 
L 2906 0 
L 2906 525 
Q 2725 213 2448 61 
Q 2172 -91 1784 -91 
Q 1150 -91 751 415 
Q 353 922 353 1747 
Q 353 2572 751 3078 
Q 1150 3584 1784 3584 
Q 2172 3584 2448 3432 
Q 2725 3281 2906 2969 
z
M 947 1747 
Q 947 1113 1208 752 
Q 1469 391 1925 391 
Q 2381 391 2643 752 
Q 2906 1113 2906 1747 
Q 2906 2381 2643 2742 
Q 2381 3103 1925 3103 
Q 1469 3103 1208 2742 
Q 947 2381 947 1747 
z
" transform="scale(0.015625)"/>
      <path id="DejaVuSans-6e" d="M 3513 2113 
L 3513 0 
L 2938 0 
L 2938 2094 
Q 2938 2591 2744 2837 
Q 2550 3084 2163 3084 
Q 1697 3084 1428 2787 
Q 1159 2491 1159 1978 
L 1159 0 
L 581 0 
L 581 3500 
L 1159 3500 
L 1159 2956 
Q 1366 3272 1645 3428 
Q 1925 3584 2291 3584 
Q 2894 3584 3203 3211 
Q 3513 2838 3513 2113 
z
" transform="scale(0.015625)"/>
      <path id="DejaVuSans-63" d="M 3122 3366 
L 3122 2828 
Q 2878 2963 2633 3030 
Q 2388 3097 2138 3097 
Q 1578 3097 1268 2742 
Q 959 2388 959 1747 
Q 959 1106 1268 751 
Q 1578 397 2138 397 
Q 2388 397 2633 464 
Q 2878 531 3122 666 
L 3122 134 
Q 2881 22 2623 -34 
Q 2366 -91 2075 -91 
Q 1284 -91 818 406 
Q 353 903 353 1747 
Q 353 2603 823 3093 
Q 1294 3584 2113 3584 
Q 2378 3584 2631 3529 
Q 2884 3475 3122 3366 
z
" transform="scale(0.015625)"/>
      <path id="DejaVuSans-6f" d="M 1959 3097 
Q 1497 3097 1228 2736 
Q 959 2375 959 1747 
Q 959 1119 1226 758 
Q 1494 397 1959 397 
Q 2419 397 2687 759 
Q 2956 1122 2956 1747 
Q 2956 2369 2687 2733 
Q 2419 3097 1959 3097 
z
M 1959 3584 
Q 2709 3584 3137 3096 
Q 3566 2609 3566 1747 
Q 3566 888 3137 398 
Q 2709 -91 1959 -91 
Q 1206 -91 779 398 
Q 353 888 353 1747 
Q 353 2609 779 3096 
Q 1206 3584 1959 3584 
z
" transform="scale(0.015625)"/>
      <path id="DejaVuSans-77" d="M 269 3500 
L 844 3500 
L 1563 769 
L 2278 3500 
L 2956 3500 
L 3675 769 
L 4391 3500 
L 4966 3500 
L 4050 0 
L 3372 0 
L 2619 2869 
L 1863 0 
L 1184 0 
L 269 3500 
z
" transform="scale(0.015625)"/>
     </defs>
     <use xlink:href="#DejaVuSans-32"/>
     <use xlink:href="#DejaVuSans-44" x="63.623047"/>
     <use xlink:href="#DejaVuSans-2d" x="140.625"/>
     <use xlink:href="#DejaVuSans-70" x="176.708984"/>
     <use xlink:href="#DejaVuSans-61" x="240.185547"/>
     <use xlink:href="#DejaVuSans-72" x="301.464844"/>
     <use xlink:href="#DejaVuSans-74" x="342.578125"/>
     <use xlink:href="#DejaVuSans-69" x="381.787109"/>
     <use xlink:href="#DejaVuSans-61" x="409.570312"/>
     <use xlink:href="#DejaVuSans-6c" x="470.849609"/>
     <use xlink:href="#DejaVuSans-20" x="498.632812"/>
     <use xlink:href="#DejaVuSans-64" x="530.419922"/>
     <use xlink:href="#DejaVuSans-65" x="593.896484"/>
     <use xlink:href="#DejaVuSans-70" x="655.419922"/>
     <use xlink:href="#DejaVuSans-65" x="718.896484"/>
     <use xlink:href="#DejaVuSans-6e" x="780.419922"/>
     <use xlink:href="#DejaVuSans-64" x="843.798828"/>
     <use xlink:href="#DejaVuSans-65" x="907.275391"/>
     <use xlink:href="#DejaVuSans-6e" x="968.798828"/>
     <use xlink:href="#DejaVuSans-63" x="1032.177734"/>
     <use xlink:href="#DejaVuSans-79" x="1087.158203"/>
     <use xlink:href="#DejaVuSans-20" x="1146.337891"/>
     <use xlink:href="#DejaVuSans-70" x="1178.125"/>
     <use xlink:href="#DejaVuSans-6c" x="1241.601562"/>
     <use xlink:href="#DejaVuSans-6f" x="1269.384766"/>
     <use xlink:href="#DejaVuSans-74" x="1330.566406"/>
     <use xlink:href="#DejaVuSans-20" x="1369.775391"/>
     <use xlink:href="#DejaVuSans-62" x="1401.5625"/>
     <use xlink:href="#DejaVuSans-65" x="1465.039062"/>
     <use xlink:href="#DejaVuSans-74" x="1526.5625"/>
     <use xlink:href="#DejaVuSans-77" x="1565.771484"/>
     <use xlink:href="#DejaVuSans-65" x="1647.558594"/>
     <use xlink:href="#DejaVuSans-65" x="1709.082031"/>
     <use xlink:href="#DejaVuSans-6e" x="1770.605469"/>
     <use xlink:href="#DejaVuSans-20" x="1833.984375"/>
     <use xlink:href="#DejaVuSans-4f" x="1865.771484"/>
     <use xlink:href="#DejaVuSans-62" x="1944.482422"/>
     <use xlink:href="#DejaVuSans-65" x="2007.958984"/>
     <use xlink:href="#DejaVuSans-73" x="2069.482422"/>
     <use xlink:href="#DejaVuSans-69" x="2121.582031"/>
     <use xlink:href="#DejaVuSans-74" x="2149.365234"/>
     <use xlink:href="#DejaVuSans-79" x="2188.574219"/>
     <use xlink:href="#DejaVuSans-20" x="2247.753906"/>
     <use xlink:href="#DejaVuSans-61" x="2279.541016"/>
     <use xlink:href="#DejaVuSans-6e" x="2340.820312"/>
     <use xlink:href="#DejaVuSans-64" x="2404.199219"/>
     <use xlink:href="#DejaVuSans-20" x="2467.675781"/>
     <use xlink:href="#DejaVuSans-50" x="2499.462891"/>
     <use xlink:href="#DejaVuSans-4d" x="2559.765625"/>
    </g>
   </g>
   <g id="text_17">
    <g clip-path="url(#p3461759017)">
     <!-- -0.04 -->
     <g transform="translate(340.459645 151.629655) scale(0.1 -0.1)">
      <defs>
       <path id="DejaVuSans-34" d="M 2419 4116 
L 825 1625 
L 2419 1625 
L 2419 4116 
z
M 2253 4666 
L 3047 4666 
L 3047 1625 
L 3713 1625 
L 3713 1100 
L 3047 1100 
L 3047 0 
L 2419 0 
L 2419 1100 
L 313 1100 
L 313 1709 
L 2253 4666 
z
" transform="scale(0.015625)"/>
      </defs>
      <use xlink:href="#DejaVuSans-2d"/>
      <use xlink:href="#DejaVuSans-30" x="36.083984"/>
      <use xlink:href="#DejaVuSans-2e" x="99.707031"/>
      <use xlink:href="#DejaVuSans-30" x="131.494141"/>
      <use xlink:href="#DejaVuSans-34" x="195.117188"/>
     </g>
    </g>
   </g>
   <g id="text_18">
    <g clip-path="url(#p3461759017)">
     <!-- -0.03 -->
     <g transform="translate(214.205099 157.658925) scale(0.1 -0.1)">
      <defs>
       <path id="DejaVuSans-33" d="M 2597 2516 
Q 3050 2419 3304 2112 
Q 3559 1806 3559 1356 
Q 3559 666 3084 287 
Q 2609 -91 1734 -91 
Q 1441 -91 1130 -33 
Q 819 25 488 141 
L 488 750 
Q 750 597 1062 519 
Q 1375 441 1716 441 
Q 2309 441 2620 675 
Q 2931 909 2931 1356 
Q 2931 1769 2642 2001 
Q 2353 2234 1838 2234 
L 1294 2234 
L 1294 2753 
L 1863 2753 
Q 2328 2753 2575 2939 
Q 2822 3125 2822 3475 
Q 2822 3834 2567 4026 
Q 2313 4219 1838 4219 
Q 1578 4219 1281 4162 
Q 984 4106 628 3988 
L 628 4550 
Q 988 4650 1302 4700 
Q 1616 4750 1894 4750 
Q 2613 4750 3031 4423 
Q 3450 4097 3450 3541 
Q 3450 3153 3228 2886 
Q 3006 2619 2597 2516 
z
" transform="scale(0.015625)"/>
      </defs>
      <use xlink:href="#DejaVuSans-2d"/>
      <use xlink:href="#DejaVuSans-30" x="36.083984"/>
      <use xlink:href="#DejaVuSans-2e" x="99.707031"/>
      <use xlink:href="#DejaVuSans-30" x="131.494141"/>
      <use xlink:href="#DejaVuSans-33" x="195.117188"/>
     </g>
    </g>
   </g>
   <g id="text_19">
    <g clip-path="url(#p3461759017)">
     <!-- -0.03 -->
     <g transform="translate(87.950554 159.684049) scale(0.1 -0.1)">
      <use xlink:href="#DejaVuSans-2d"/>
      <use xlink:href="#DejaVuSans-30" x="36.083984"/>
      <use xlink:href="#DejaVuSans-2e" x="99.707031"/>
      <use xlink:href="#DejaVuSans-30" x="131.494141"/>
      <use xlink:href="#DejaVuSans-33" x="195.117188"/>
     </g>
    </g>
   </g>
   <g id="text_20">
    <g clip-path="url(#p3461759017)">
     <!-- -0.03 -->
     <g transform="translate(340.459645 259.684168) scale(0.1 -0.1)">
      <use xlink:href="#DejaVuSans-2d"/>
      <use xlink:href="#DejaVuSans-30" x="36.083984"/>
      <use xlink:href="#DejaVuSans-2e" x="99.707031"/>
      <use xlink:href="#DejaVuSans-30" x="131.494141"/>
      <use xlink:href="#DejaVuSans-33" x="195.117188"/>
     </g>
    </g>
   </g>
   <g id="text_21">
    <g clip-path="url(#p3461759017)">
     <!-- -0.03 -->
     <g transform="translate(214.205099 261.389818) scale(0.1 -0.1)">
      <use xlink:href="#DejaVuSans-2d"/>
      <use xlink:href="#DejaVuSans-30" x="36.083984"/>
      <use xlink:href="#DejaVuSans-2e" x="99.707031"/>
      <use xlink:href="#DejaVuSans-30" x="131.494141"/>
      <use xlink:href="#DejaVuSans-33" x="195.117188"/>
     </g>
    </g>
   </g>
   <g id="text_22">
    <g clip-path="url(#p3461759017)">
     <!-- -0.03 -->
     <g transform="translate(232.241463 290.554264) scale(0.1 -0.1)">
      <use xlink:href="#DejaVuSans-2d"/>
      <use xlink:href="#DejaVuSans-30" x="36.083984"/>
      <use xlink:href="#DejaVuSans-2e" x="99.707031"/>
      <use xlink:href="#DejaVuSans-30" x="131.494141"/>
      <use xlink:href="#DejaVuSans-33" x="195.117188"/>
     </g>
    </g>
   </g>
   <g id="text_23">
    <g clip-path="url(#p3461759017)">
     <!-- -0.03 -->
     <g transform="translate(87.950554 266.230471) scale(0.1 -0.1)">
      <use xlink:href="#DejaVuSans-2d"/>
      <use xlink:href="#DejaVuSans-30" x="36.083984"/>
      <use xlink:href="#DejaVuSans-2e" x="99.707031"/>
      <use xlink:href="#DejaVuSans-30" x="131.494141"/>
      <use xlink:href="#DejaVuSans-33" x="195.117188"/>
     </g>
    </g>
   </g>
  </g>
 </g>
 <defs>
  <clipPath id="p3461759017">
   <rect x="57.6" y="41.472" width="357.12" height="266.112"/>
  </clipPath>
 </defs>
</svg>
