<?xml version="1.0" encoding="utf-8" standalone="no"?>
<!DOCTYPE svg PUBLIC "-//W3C//DTD SVG 1.1//EN"
  "http://www.w3.org/Graphics/SVG/1.1/DTD/svg11.dtd">
<svg xmlns:xlink="http://www.w3.org/1999/xlink" width="460.8pt" height="345.6pt" viewBox="0 0 460.8 345.6" xmlns="http://www.w3.org/2000/svg" version="1.1">
 <metadata>
  <rdf:RDF xmlns:dc="http://purl.org/dc/elements/1.1/" xmlns:cc="http://creativecommons.org/ns#" xmlns:rdf="http://www.w3.org/1999/02/22-rdf-syntax-ns#">
   <cc:Work>
    <dc:type rdf:resource="http://purl.org/dc/dcmitype/StillImage"/>
    <dc:date>2024-02-15T12:26:15.302085</dc:date>
    <dc:format>image/svg+xml</dc:format>
    <dc:creator>
     <cc:Agent>
      <dc:title>Matplotlib v3.7.0, https://matplotlib.org/</dc:title>
     </cc:Agent>
    </dc:creator>
   </cc:Work>
  </rdf:RDF>
 </metadata>
 <defs>
  <style type="text/css">*{stroke-linejoin: round; stroke-linecap: butt}</style>
 </defs>
 <g id="figure_1">
  <g id="patch_1">
   <path d="M 0 345.6 
L 460.8 345.6 
L 460.8 0 
L 0 0 
L 0 345.6 
z
" style="fill: none"/>
  </g>
  <g id="axes_1"/>
  <g id="axes_2">
   <g id="patch_2">
    <path d="M 57.6 307.584 
L 414.72 307.584 
L 414.72 41.472 
L 57.6 41.472 
L 57.6 307.584 
z
" style="fill: none"/>
   </g>
   <g id="PathCollection_1">
    <path d="M 67.744073 291.525517 
L 67.744073 282.349241 
L 67.744073 280.055172 
L 67.744073 277.761103 
L 67.744073 275.467034 
L 67.744073 273.172966 
L 67.744073 270.878897 
L 67.744073 263.99669 
L 67.744073 261.702621 
L 67.744073 259.408552 
L 67.744073 257.114483 
L 67.744073 254.820414 
L 67.744073 252.526345 
L 67.744073 250.232276 
L 67.744073 247.938207 
L 67.744073 245.644138 
L 67.744073 243.350069 
L 67.744073 241.056 
L 67.744073 238.761931 
L 67.744073 234.173793 
L 67.744073 231.879724 
L 67.744073 229.585655 
L 67.744073 227.291586 
L 67.744073 224.997517 
L 67.744073 222.703448 
L 67.744073 220.409379 
L 67.744073 218.11531 
L 67.744073 213.527172 
L 62.550401 211.233103 
L 62.550401 208.939034 
L 62.550401 206.644966 
L 57.6 202.11936 
L 57.6 206.644966 
L 57.6 208.939034 
L 57.6 211.233103 
L 57.6 213.527172 
L 57.6 218.11531 
L 57.6 220.409379 
L 57.6 222.703448 
L 57.6 224.997517 
L 57.6 227.291586 
L 57.6 229.585655 
L 57.6 231.879724 
L 57.6 234.173793 
L 57.6 238.761931 
L 57.6 241.056 
L 57.6 243.350069 
L 57.6 245.644138 
L 57.6 247.938207 
L 57.6 250.232276 
L 57.6 252.526345 
L 57.6 254.820414 
L 57.6 257.114483 
L 57.6 259.408552 
L 57.6 261.702621 
L 57.6 263.99669 
L 57.6 270.878897 
L 57.6 273.172966 
L 57.6 275.467034 
L 57.6 277.761103 
L 57.6 280.055172 
L 57.6 282.349241 
L 57.6 291.525517 
L 57.6 307.584 
L 67.744073 307.584 
z
" clip-path="url(#p5032dd356d)" style="fill: #481b6d; fill-opacity: 0.75"/>
   </g>
   <g id="PathCollection_2">
    <path d="M 82.622048 291.525517 
L 82.622048 282.349241 
L 82.622048 280.055172 
L 82.622048 277.761103 
L 82.622048 275.467034 
L 82.622048 273.172966 
L 82.622048 270.878897 
L 82.622048 263.99669 
L 82.622048 261.702621 
L 82.622048 259.408552 
L 82.622048 257.114483 
L 82.622048 254.820414 
L 82.622048 252.526345 
L 82.622048 250.232276 
L 82.622048 247.938207 
L 82.622048 245.644138 
L 82.622048 243.350069 
L 82.622048 241.056 
L 82.622048 238.761931 
L 82.622048 234.173793 
L 82.622048 231.879724 
L 82.622048 229.585655 
L 82.622048 227.291586 
L 82.622048 224.997517 
L 82.622048 222.703448 
L 82.622048 220.409379 
L 82.622048 218.11531 
L 82.622048 213.527172 
L 77.428375 211.233103 
L 77.428375 208.939034 
L 77.428375 206.644966 
L 72.409573 202.056828 
L 72.409573 199.762759 
L 72.409573 195.174621 
L 72.409573 192.880552 
L 72.409573 190.586483 
L 72.409573 188.292414 
L 72.409573 185.998345 
L 72.409573 183.704276 
L 72.409573 181.410207 
L 72.409573 179.116138 
L 72.409573 176.822069 
L 72.409573 174.528 
L 72.409573 172.233931 
L 72.409573 169.939862 
L 72.409573 167.645793 
L 72.409573 165.351724 
L 72.409573 163.057655 
L 72.409573 160.763586 
L 72.409573 158.469517 
L 72.409573 156.175448 
L 72.409573 153.881379 
L 72.409573 151.58731 
L 72.409573 149.293241 
L 72.409573 146.999172 
L 72.409573 144.705103 
L 72.409573 142.411034 
L 72.409573 140.116966 
L 72.409573 137.822897 
L 72.409573 135.528828 
L 72.409573 130.94069 
L 72.409573 128.646621 
L 72.409573 119.470345 
L 72.409573 117.176276 
L 72.409573 114.882207 
L 72.409573 112.588138 
L 72.409573 110.294069 
L 72.409573 101.117793 
L 72.409573 91.941517 
L 72.409573 41.472 
L 57.6 41.472 
L 57.6 91.941517 
L 57.6 101.117793 
L 57.6 110.294069 
L 57.6 112.588138 
L 57.6 114.882207 
L 57.6 117.176276 
L 57.6 119.470345 
L 57.6 128.646621 
L 57.6 130.94069 
L 57.6 135.528828 
L 57.6 137.822897 
L 57.6 140.116966 
L 57.6 142.411034 
L 57.6 144.705103 
L 57.6 146.999172 
L 57.6 149.293241 
L 57.6 151.58731 
L 57.6 153.881379 
L 57.6 156.175448 
L 57.6 158.469517 
L 57.6 160.763586 
L 57.6 163.057655 
L 57.6 165.351724 
L 57.6 167.645793 
L 57.6 169.939862 
L 57.6 172.233931 
L 57.6 174.528 
L 57.6 176.822069 
L 57.6 179.116138 
L 57.6 181.410207 
L 57.6 183.704276 
L 57.6 185.998345 
L 57.6 188.292414 
L 57.6 190.586483 
L 57.6 192.880552 
L 57.6 195.174621 
L 57.6 199.762759 
L 57.6 202.056828 
L 57.6 202.11936 
L 62.550401 206.644966 
L 62.550401 208.939034 
L 62.550401 211.233103 
L 67.744073 213.527172 
L 67.744073 218.11531 
L 67.744073 220.409379 
L 67.744073 222.703448 
L 67.744073 224.997517 
L 67.744073 227.291586 
L 67.744073 229.585655 
L 67.744073 231.879724 
L 67.744073 234.173793 
L 67.744073 238.761931 
L 67.744073 241.056 
L 67.744073 243.350069 
L 67.744073 245.644138 
L 67.744073 247.938207 
L 67.744073 250.232276 
L 67.744073 252.526345 
L 67.744073 254.820414 
L 67.744073 257.114483 
L 67.744073 259.408552 
L 67.744073 261.702621 
L 67.744073 263.99669 
L 67.744073 270.878897 
L 67.744073 273.172966 
L 67.744073 275.467034 
L 67.744073 277.761103 
L 67.744073 280.055172 
L 67.744073 282.349241 
L 67.744073 291.525517 
L 67.744073 307.584 
L 82.622048 307.584 
z
" clip-path="url(#p5032dd356d)" style="fill: #3f4788; fill-opacity: 0.75"/>
   </g>
   <g id="PathCollection_3">
    <path d="M 97.500022 291.525517 
L 97.500022 282.349241 
L 97.500022 280.055172 
L 97.500022 277.761103 
L 97.500022 275.467034 
L 97.500022 273.172966 
L 97.500022 270.878897 
L 97.500022 263.99669 
L 97.500022 261.702621 
L 97.500022 259.408552 
L 97.500022 257.114483 
L 97.500022 254.820414 
L 97.500022 252.526345 
L 97.500022 250.232276 
L 97.500022 247.938207 
L 97.500022 245.644138 
L 97.500022 243.350069 
L 97.500022 241.056 
L 97.500022 238.761931 
L 97.500022 234.173793 
L 97.500022 231.879724 
L 97.500022 229.585655 
L 97.500022 227.291586 
L 97.500022 224.997517 
L 97.500022 222.703448 
L 97.500022 220.409379 
L 97.500022 218.11531 
L 97.500022 213.527172 
L 92.306349 211.233103 
L 92.306349 208.939034 
L 92.306349 206.644966 
L 87.287547 202.056828 
L 87.287547 199.762759 
L 87.287547 195.174621 
L 87.287547 192.880552 
L 87.287547 190.586483 
L 87.287547 188.292414 
L 87.287547 185.998345 
L 87.287547 183.704276 
L 87.287547 181.410207 
L 87.287547 179.116138 
L 87.287547 176.822069 
L 87.287547 174.528 
L 87.287547 172.233931 
L 87.287547 169.939862 
L 87.287547 167.645793 
L 87.287547 165.351724 
L 87.287547 163.057655 
L 87.287547 160.763586 
L 87.287547 158.469517 
L 87.287547 156.175448 
L 87.287547 153.881379 
L 87.287547 151.58731 
L 87.287547 149.293241 
L 87.287547 146.999172 
L 87.287547 144.705103 
L 87.287547 142.411034 
L 87.287547 140.116966 
L 87.287547 137.822897 
L 87.287547 135.528828 
L 87.287547 130.94069 
L 87.287547 128.646621 
L 87.287547 119.470345 
L 87.287547 117.176276 
L 87.287547 114.882207 
L 87.287547 112.588138 
L 87.287547 110.294069 
L 87.287547 101.117793 
L 87.287547 91.941517 
L 87.287547 41.472 
L 72.409573 41.472 
L 72.409573 91.941517 
L 72.409573 101.117793 
L 72.409573 110.294069 
L 72.409573 112.588138 
L 72.409573 114.882207 
L 72.409573 117.176276 
L 72.409573 119.470345 
L 72.409573 128.646621 
L 72.409573 130.94069 
L 72.409573 135.528828 
L 72.409573 137.822897 
L 72.409573 140.116966 
L 72.409573 142.411034 
L 72.409573 144.705103 
L 72.409573 146.999172 
L 72.409573 149.293241 
L 72.409573 151.58731 
L 72.409573 153.881379 
L 72.409573 156.175448 
L 72.409573 158.469517 
L 72.409573 160.763586 
L 72.409573 163.057655 
L 72.409573 165.351724 
L 72.409573 167.645793 
L 72.409573 169.939862 
L 72.409573 172.233931 
L 72.409573 174.528 
L 72.409573 176.822069 
L 72.409573 179.116138 
L 72.409573 181.410207 
L 72.409573 183.704276 
L 72.409573 185.998345 
L 72.409573 188.292414 
L 72.409573 190.586483 
L 72.409573 192.880552 
L 72.409573 195.174621 
L 72.409573 199.762759 
L 72.409573 202.056828 
L 77.428375 206.644966 
L 77.428375 208.939034 
L 77.428375 211.233103 
L 82.622048 213.527172 
L 82.622048 218.11531 
L 82.622048 220.409379 
L 82.622048 222.703448 
L 82.622048 224.997517 
L 82.622048 227.291586 
L 82.622048 229.585655 
L 82.622048 231.879724 
L 82.622048 234.173793 
L 82.622048 238.761931 
L 82.622048 241.056 
L 82.622048 243.350069 
L 82.622048 245.644138 
L 82.622048 247.938207 
L 82.622048 250.232276 
L 82.622048 252.526345 
L 82.622048 254.820414 
L 82.622048 257.114483 
L 82.622048 259.408552 
L 82.622048 261.702621 
L 82.622048 263.99669 
L 82.622048 270.878897 
L 82.622048 273.172966 
L 82.622048 275.467034 
L 82.622048 277.761103 
L 82.622048 280.055172 
L 82.622048 282.349241 
L 82.622048 291.525517 
L 82.622048 307.584 
L 97.500022 307.584 
z
" clip-path="url(#p5032dd356d)" style="fill: #2e6e8e; fill-opacity: 0.75"/>
   </g>
   <g id="PathCollection_4">
    <path d="M 112.377996 291.525517 
L 112.377996 282.349241 
L 112.377996 280.055172 
L 112.377996 277.761103 
L 112.377996 275.467034 
L 112.377996 273.172966 
L 112.377996 270.878897 
L 112.377996 263.99669 
L 112.377996 261.702621 
L 112.377996 259.408552 
L 112.377996 257.114483 
L 112.377996 254.820414 
L 112.377996 252.526345 
L 112.377996 250.232276 
L 112.377996 247.938207 
L 112.377996 245.644138 
L 112.377996 243.350069 
L 112.377996 241.056 
L 112.377996 238.761931 
L 112.377996 234.173793 
L 112.377996 231.879724 
L 112.377996 229.585655 
L 112.377996 227.291586 
L 112.377996 224.997517 
L 112.377996 222.703448 
L 112.377996 220.409379 
L 112.377996 218.11531 
L 112.377996 213.527172 
L 107.184324 211.233103 
L 107.184324 208.939034 
L 107.184324 206.644966 
L 102.165521 202.056828 
L 102.165521 199.762759 
L 102.165521 195.174621 
L 102.165521 192.880552 
L 102.165521 190.586483 
L 102.165521 188.292414 
L 102.165521 185.998345 
L 102.165521 183.704276 
L 102.165521 181.410207 
L 102.165521 179.116138 
L 102.165521 176.822069 
L 102.165521 174.528 
L 102.165521 172.233931 
L 102.165521 169.939862 
L 102.165521 167.645793 
L 102.165521 165.351724 
L 102.165521 163.057655 
L 102.165521 160.763586 
L 102.165521 158.469517 
L 102.165521 156.175448 
L 102.165521 153.881379 
L 102.165521 151.58731 
L 102.165521 149.293241 
L 102.165521 146.999172 
L 102.165521 144.705103 
L 102.165521 142.411034 
L 102.165521 140.116966 
L 102.165521 137.822897 
L 102.165521 135.528828 
L 102.165521 130.94069 
L 102.165521 128.646621 
L 102.165521 119.470345 
L 102.165521 117.176276 
L 102.165521 114.882207 
L 102.165521 112.588138 
L 102.165521 110.294069 
L 102.165521 101.117793 
L 102.165521 91.941517 
L 102.165521 41.472 
L 87.287547 41.472 
L 87.287547 91.941517 
L 87.287547 101.117793 
L 87.287547 110.294069 
L 87.287547 112.588138 
L 87.287547 114.882207 
L 87.287547 117.176276 
L 87.287547 119.470345 
L 87.287547 128.646621 
L 87.287547 130.94069 
L 87.287547 135.528828 
L 87.287547 137.822897 
L 87.287547 140.116966 
L 87.287547 142.411034 
L 87.287547 144.705103 
L 87.287547 146.999172 
L 87.287547 149.293241 
L 87.287547 151.58731 
L 87.287547 153.881379 
L 87.287547 156.175448 
L 87.287547 158.469517 
L 87.287547 160.763586 
L 87.287547 163.057655 
L 87.287547 165.351724 
L 87.287547 167.645793 
L 87.287547 169.939862 
L 87.287547 172.233931 
L 87.287547 174.528 
L 87.287547 176.822069 
L 87.287547 179.116138 
L 87.287547 181.410207 
L 87.287547 183.704276 
L 87.287547 185.998345 
L 87.287547 188.292414 
L 87.287547 190.586483 
L 87.287547 192.880552 
L 87.287547 195.174621 
L 87.287547 199.762759 
L 87.287547 202.056828 
L 92.306349 206.644966 
L 92.306349 208.939034 
L 92.306349 211.233103 
L 97.500022 213.527172 
L 97.500022 218.11531 
L 97.500022 220.409379 
L 97.500022 222.703448 
L 97.500022 224.997517 
L 97.500022 227.291586 
L 97.500022 229.585655 
L 97.500022 231.879724 
L 97.500022 234.173793 
L 97.500022 238.761931 
L 97.500022 241.056 
L 97.500022 243.350069 
L 97.500022 245.644138 
L 97.500022 247.938207 
L 97.500022 250.232276 
L 97.500022 252.526345 
L 97.500022 254.820414 
L 97.500022 257.114483 
L 97.500022 259.408552 
L 97.500022 261.702621 
L 97.500022 263.99669 
L 97.500022 270.878897 
L 97.500022 273.172966 
L 97.500022 275.467034 
L 97.500022 277.761103 
L 97.500022 280.055172 
L 97.500022 282.349241 
L 97.500022 291.525517 
L 97.500022 307.584 
L 112.377996 307.584 
z
" clip-path="url(#p5032dd356d)" style="fill: #21908d; fill-opacity: 0.75"/>
   </g>
   <g id="PathCollection_5">
    <path d="M 127.255971 291.525517 
L 127.255971 282.349241 
L 127.255971 280.055172 
L 127.255971 277.761103 
L 127.255971 275.467034 
L 127.255971 273.172966 
L 127.255971 270.878897 
L 127.255971 263.99669 
L 127.255971 261.702621 
L 127.255971 259.408552 
L 127.255971 257.114483 
L 127.255971 254.820414 
L 127.255971 252.526345 
L 127.255971 250.232276 
L 127.255971 247.938207 
L 127.255971 245.644138 
L 127.255971 243.350069 
L 127.255971 241.056 
L 127.255971 238.761931 
L 127.255971 234.173793 
L 127.255971 231.879724 
L 127.255971 229.585655 
L 127.255971 227.291586 
L 127.255971 224.997517 
L 127.255971 222.703448 
L 127.255971 220.409379 
L 127.255971 218.11531 
L 127.255971 213.527172 
L 122.062298 211.233103 
L 122.062298 208.939034 
L 122.062298 206.644966 
L 117.043496 202.056828 
L 117.043496 199.762759 
L 117.043496 195.174621 
L 117.043496 192.880552 
L 117.043496 190.586483 
L 117.043496 188.292414 
L 117.043496 185.998345 
L 117.043496 183.704276 
L 117.043496 181.410207 
L 117.043496 179.116138 
L 117.043496 176.822069 
L 117.043496 174.528 
L 117.043496 172.233931 
L 117.043496 169.939862 
L 117.043496 167.645793 
L 117.043496 165.351724 
L 117.043496 163.057655 
L 117.043496 160.763586 
L 117.043496 158.469517 
L 117.043496 156.175448 
L 117.043496 153.881379 
L 117.043496 151.58731 
L 117.043496 149.293241 
L 117.043496 146.999172 
L 117.043496 144.705103 
L 117.043496 142.411034 
L 117.043496 140.116966 
L 117.043496 137.822897 
L 117.043496 135.528828 
L 117.043496 130.94069 
L 117.043496 128.646621 
L 117.043496 119.470345 
L 117.043496 117.176276 
L 117.043496 114.882207 
L 117.043496 112.588138 
L 117.043496 110.294069 
L 117.043496 101.117793 
L 117.043496 91.941517 
L 117.043496 41.472 
L 102.165521 41.472 
L 102.165521 91.941517 
L 102.165521 101.117793 
L 102.165521 110.294069 
L 102.165521 112.588138 
L 102.165521 114.882207 
L 102.165521 117.176276 
L 102.165521 119.470345 
L 102.165521 128.646621 
L 102.165521 130.94069 
L 102.165521 135.528828 
L 102.165521 137.822897 
L 102.165521 140.116966 
L 102.165521 142.411034 
L 102.165521 144.705103 
L 102.165521 146.999172 
L 102.165521 149.293241 
L 102.165521 151.58731 
L 102.165521 153.881379 
L 102.165521 156.175448 
L 102.165521 158.469517 
L 102.165521 160.763586 
L 102.165521 163.057655 
L 102.165521 165.351724 
L 102.165521 167.645793 
L 102.165521 169.939862 
L 102.165521 172.233931 
L 102.165521 174.528 
L 102.165521 176.822069 
L 102.165521 179.116138 
L 102.165521 181.410207 
L 102.165521 183.704276 
L 102.165521 185.998345 
L 102.165521 188.292414 
L 102.165521 190.586483 
L 102.165521 192.880552 
L 102.165521 195.174621 
L 102.165521 199.762759 
L 102.165521 202.056828 
L 107.184324 206.644966 
L 107.184324 208.939034 
L 107.184324 211.233103 
L 112.377996 213.527172 
L 112.377996 218.11531 
L 112.377996 220.409379 
L 112.377996 222.703448 
L 112.377996 224.997517 
L 112.377996 227.291586 
L 112.377996 229.585655 
L 112.377996 231.879724 
L 112.377996 234.173793 
L 112.377996 238.761931 
L 112.377996 241.056 
L 112.377996 243.350069 
L 112.377996 245.644138 
L 112.377996 247.938207 
L 112.377996 250.232276 
L 112.377996 252.526345 
L 112.377996 254.820414 
L 112.377996 257.114483 
L 112.377996 259.408552 
L 112.377996 261.702621 
L 112.377996 263.99669 
L 112.377996 270.878897 
L 112.377996 273.172966 
L 112.377996 275.467034 
L 112.377996 277.761103 
L 112.377996 280.055172 
L 112.377996 282.349241 
L 112.377996 291.525517 
L 112.377996 307.584 
L 127.255971 307.584 
z
" clip-path="url(#p5032dd356d)" style="fill: #2db27d; fill-opacity: 0.75"/>
   </g>
   <g id="PathCollection_6">
    <path d="M 129.024 307.584 
L 200.448 307.584 
L 271.872 307.584 
L 343.296 307.584 
L 414.72 307.584 
L 414.72 291.525517 
L 414.72 282.349241 
L 414.72 280.055172 
L 414.72 277.761103 
L 414.72 275.467034 
L 414.72 273.172966 
L 414.72 270.878897 
L 414.72 263.99669 
L 414.72 261.702621 
L 414.72 259.408552 
L 414.72 257.114483 
L 414.72 254.820414 
L 414.72 252.526345 
L 414.72 250.232276 
L 414.72 247.938207 
L 414.72 245.644138 
L 414.72 243.350069 
L 414.72 241.056 
L 414.72 238.761931 
L 414.72 234.173793 
L 414.72 231.879724 
L 414.72 229.585655 
L 414.72 227.291586 
L 414.72 224.997517 
L 414.72 222.703448 
L 414.72 220.409379 
L 414.72 218.11531 
L 414.72 213.527172 
L 414.72 213.496959 
L 343.296 213.496959 
L 271.872 213.496959 
L 200.448 213.496959 
L 172.378673 211.233103 
L 172.378673 208.939034 
L 172.378673 206.644966 
L 144.892436 202.056828 
L 144.892436 199.762759 
L 144.892436 195.174621 
L 144.892436 192.880552 
L 144.892436 190.586483 
L 144.892436 188.292414 
L 144.892436 185.998345 
L 144.892436 183.704276 
L 144.892436 181.410207 
L 144.892436 179.116138 
L 144.892436 176.822069 
L 144.892436 174.528 
L 144.892436 172.233931 
L 144.892436 169.939862 
L 144.892436 167.645793 
L 144.892436 165.351724 
L 144.892436 163.057655 
L 144.892436 160.763586 
L 144.892436 158.469517 
L 144.892436 156.175448 
L 144.892436 153.881379 
L 144.892436 151.58731 
L 144.892436 149.293241 
L 144.892436 146.999172 
L 144.892436 144.705103 
L 144.892436 142.411034 
L 144.892436 140.116966 
L 144.892436 137.822897 
L 144.892436 135.528828 
L 144.892436 130.94069 
L 144.892436 128.646621 
L 144.892436 119.470345 
L 144.892436 117.176276 
L 144.892436 114.882207 
L 144.892436 112.588138 
L 144.892436 110.294069 
L 144.892436 101.117793 
L 144.892436 91.941517 
L 144.892436 41.472 
L 129.024 41.472 
L 117.043496 41.472 
L 117.043496 91.941517 
L 117.043496 101.117793 
L 117.043496 110.294069 
L 117.043496 112.588138 
L 117.043496 114.882207 
L 117.043496 117.176276 
L 117.043496 119.470345 
L 117.043496 128.646621 
L 117.043496 130.94069 
L 117.043496 135.528828 
L 117.043496 137.822897 
L 117.043496 140.116966 
L 117.043496 142.411034 
L 117.043496 144.705103 
L 117.043496 146.999172 
L 117.043496 149.293241 
L 117.043496 151.58731 
L 117.043496 153.881379 
L 117.043496 156.175448 
L 117.043496 158.469517 
L 117.043496 160.763586 
L 117.043496 163.057655 
L 117.043496 165.351724 
L 117.043496 167.645793 
L 117.043496 169.939862 
L 117.043496 172.233931 
L 117.043496 174.528 
L 117.043496 176.822069 
L 117.043496 179.116138 
L 117.043496 181.410207 
L 117.043496 183.704276 
L 117.043496 185.998345 
L 117.043496 188.292414 
L 117.043496 190.586483 
L 117.043496 192.880552 
L 117.043496 195.174621 
L 117.043496 199.762759 
L 117.043496 202.056828 
L 122.062298 206.644966 
L 122.062298 208.939034 
L 122.062298 211.233103 
L 127.255971 213.527172 
L 127.255971 218.11531 
L 127.255971 220.409379 
L 127.255971 222.703448 
L 127.255971 224.997517 
L 127.255971 227.291586 
L 127.255971 229.585655 
L 127.255971 231.879724 
L 127.255971 234.173793 
L 127.255971 238.761931 
L 127.255971 241.056 
L 127.255971 243.350069 
L 127.255971 245.644138 
L 127.255971 247.938207 
L 127.255971 250.232276 
L 127.255971 252.526345 
L 127.255971 254.820414 
L 127.255971 257.114483 
L 127.255971 259.408552 
L 127.255971 261.702621 
L 127.255971 263.99669 
L 127.255971 270.878897 
L 127.255971 273.172966 
L 127.255971 275.467034 
L 127.255971 277.761103 
L 127.255971 280.055172 
L 127.255971 282.349241 
L 127.255971 291.525517 
L 127.255971 307.584 
z
" clip-path="url(#p5032dd356d)" style="fill: #73d056; fill-opacity: 0.75"/>
   </g>
   <g id="PathCollection_7">
    <path d="M 200.448 213.496959 
L 271.872 213.496959 
L 343.296 213.496959 
L 414.72 213.496959 
L 414.72 211.233103 
L 414.72 208.939034 
L 414.72 206.644966 
L 414.72 202.056828 
L 414.72 199.762759 
L 414.72 195.174621 
L 414.72 192.880552 
L 414.72 190.586483 
L 414.72 188.292414 
L 414.72 185.998345 
L 414.72 183.704276 
L 414.72 181.410207 
L 414.72 179.116138 
L 414.72 176.822069 
L 414.72 174.528 
L 414.72 172.233931 
L 414.72 169.939862 
L 414.72 167.645793 
L 414.72 165.351724 
L 414.72 163.057655 
L 414.72 160.763586 
L 414.72 158.469517 
L 414.72 156.175448 
L 414.72 153.881379 
L 414.72 151.58731 
L 414.72 149.293241 
L 414.72 146.999172 
L 414.72 144.705103 
L 414.72 142.411034 
L 414.72 140.116966 
L 414.72 137.822897 
L 414.72 135.528828 
L 414.72 130.94069 
L 414.72 128.646621 
L 414.72 119.470345 
L 414.72 117.176276 
L 414.72 114.882207 
L 414.72 112.588138 
L 414.72 110.294069 
L 414.72 101.117793 
L 414.72 91.941517 
L 414.72 41.472 
L 343.296 41.472 
L 271.872 41.472 
L 200.448 41.472 
L 144.892436 41.472 
L 144.892436 91.941517 
L 144.892436 101.117793 
L 144.892436 110.294069 
L 144.892436 112.588138 
L 144.892436 114.882207 
L 144.892436 117.176276 
L 144.892436 119.470345 
L 144.892436 128.646621 
L 144.892436 130.94069 
L 144.892436 135.528828 
L 144.892436 137.822897 
L 144.892436 140.116966 
L 144.892436 142.411034 
L 144.892436 144.705103 
L 144.892436 146.999172 
L 144.892436 149.293241 
L 144.892436 151.58731 
L 144.892436 153.881379 
L 144.892436 156.175448 
L 144.892436 158.469517 
L 144.892436 160.763586 
L 144.892436 163.057655 
L 144.892436 165.351724 
L 144.892436 167.645793 
L 144.892436 169.939862 
L 144.892436 172.233931 
L 144.892436 174.528 
L 144.892436 176.822069 
L 144.892436 179.116138 
L 144.892436 181.410207 
L 144.892436 183.704276 
L 144.892436 185.998345 
L 144.892436 188.292414 
L 144.892436 190.586483 
L 144.892436 192.880552 
L 144.892436 195.174621 
L 144.892436 199.762759 
L 144.892436 202.056828 
L 172.378673 206.644966 
L 172.378673 208.939034 
L 172.378673 211.233103 
z
" clip-path="url(#p5032dd356d)" style="fill: #d0e11c; fill-opacity: 0.75"/>
   </g>
   <g id="matplotlib.axis_1">
    <g id="xtick_1">
     <g id="line2d_1">
      <defs>
       <path id="mb1f8ed07b8" d="M 0 0 
L 0 3.5 
" style="stroke: #000000; stroke-width: 0.8"/>
      </defs>
      <g>
       <use xlink:href="#mb1f8ed07b8" x="86.710287" y="307.584" style="stroke: #000000; stroke-width: 0.8"/>
      </g>
     </g>
     <g id="text_1">
      <!-- −1.0 -->
      <g transform="translate(74.568881 322.182437) scale(0.1 -0.1)">
       <defs>
        <path id="DejaVuSans-2212" d="M 678 2272 
L 4684 2272 
L 4684 1741 
L 678 1741 
L 678 2272 
z
" transform="scale(0.015625)"/>
        <path id="DejaVuSans-31" d="M 794 531 
L 1825 531 
L 1825 4091 
L 703 3866 
L 703 4441 
L 1819 4666 
L 2450 4666 
L 2450 531 
L 3481 531 
L 3481 0 
L 794 0 
L 794 531 
z
" transform="scale(0.015625)"/>
        <path id="DejaVuSans-2e" d="M 684 794 
L 1344 794 
L 1344 0 
L 684 0 
L 684 794 
z
" transform="scale(0.015625)"/>
        <path id="DejaVuSans-30" d="M 2034 4250 
Q 1547 4250 1301 3770 
Q 1056 3291 1056 2328 
Q 1056 1369 1301 889 
Q 1547 409 2034 409 
Q 2525 409 2770 889 
Q 3016 1369 3016 2328 
Q 3016 3291 2770 3770 
Q 2525 4250 2034 4250 
z
M 2034 4750 
Q 2819 4750 3233 4129 
Q 3647 3509 3647 2328 
Q 3647 1150 3233 529 
Q 2819 -91 2034 -91 
Q 1250 -91 836 529 
Q 422 1150 422 2328 
Q 422 3509 836 4129 
Q 1250 4750 2034 4750 
z
" transform="scale(0.015625)"/>
       </defs>
       <use xlink:href="#DejaVuSans-2212"/>
       <use xlink:href="#DejaVuSans-31" x="83.789062"/>
       <use xlink:href="#DejaVuSans-2e" x="147.412109"/>
       <use xlink:href="#DejaVuSans-30" x="179.199219"/>
      </g>
     </g>
    </g>
    <g id="xtick_2">
     <g id="line2d_2">
      <g>
       <use xlink:href="#mb1f8ed07b8" x="144.500744" y="307.584" style="stroke: #000000; stroke-width: 0.8"/>
      </g>
     </g>
     <g id="text_2">
      <!-- −0.5 -->
      <g transform="translate(132.359337 322.182437) scale(0.1 -0.1)">
       <defs>
        <path id="DejaVuSans-35" d="M 691 4666 
L 3169 4666 
L 3169 4134 
L 1269 4134 
L 1269 2991 
Q 1406 3038 1543 3061 
Q 1681 3084 1819 3084 
Q 2600 3084 3056 2656 
Q 3513 2228 3513 1497 
Q 3513 744 3044 326 
Q 2575 -91 1722 -91 
Q 1428 -91 1123 -41 
Q 819 9 494 109 
L 494 744 
Q 775 591 1075 516 
Q 1375 441 1709 441 
Q 2250 441 2565 725 
Q 2881 1009 2881 1497 
Q 2881 1984 2565 2268 
Q 2250 2553 1709 2553 
Q 1456 2553 1204 2497 
Q 953 2441 691 2322 
L 691 4666 
z
" transform="scale(0.015625)"/>
       </defs>
       <use xlink:href="#DejaVuSans-2212"/>
       <use xlink:href="#DejaVuSans-30" x="83.789062"/>
       <use xlink:href="#DejaVuSans-2e" x="147.412109"/>
       <use xlink:href="#DejaVuSans-35" x="179.199219"/>
      </g>
     </g>
    </g>
    <g id="xtick_3">
     <g id="line2d_3">
      <g>
       <use xlink:href="#mb1f8ed07b8" x="202.2912" y="307.584" style="stroke: #000000; stroke-width: 0.8"/>
      </g>
     </g>
     <g id="text_3">
      <!-- 0.0 -->
      <g transform="translate(194.339638 322.182437) scale(0.1 -0.1)">
       <use xlink:href="#DejaVuSans-30"/>
       <use xlink:href="#DejaVuSans-2e" x="63.623047"/>
       <use xlink:href="#DejaVuSans-30" x="95.410156"/>
      </g>
     </g>
    </g>
    <g id="xtick_4">
     <g id="line2d_4">
      <g>
       <use xlink:href="#mb1f8ed07b8" x="260.081656" y="307.584" style="stroke: #000000; stroke-width: 0.8"/>
      </g>
     </g>
     <g id="text_4">
      <!-- 0.5 -->
      <g transform="translate(252.130094 322.182437) scale(0.1 -0.1)">
       <use xlink:href="#DejaVuSans-30"/>
       <use xlink:href="#DejaVuSans-2e" x="63.623047"/>
       <use xlink:href="#DejaVuSans-35" x="95.410156"/>
      </g>
     </g>
    </g>
    <g id="xtick_5">
     <g id="line2d_5">
      <g>
       <use xlink:href="#mb1f8ed07b8" x="317.872113" y="307.584" style="stroke: #000000; stroke-width: 0.8"/>
      </g>
     </g>
     <g id="text_5">
      <!-- 1.0 -->
      <g transform="translate(309.92055 322.182437) scale(0.1 -0.1)">
       <use xlink:href="#DejaVuSans-31"/>
       <use xlink:href="#DejaVuSans-2e" x="63.623047"/>
       <use xlink:href="#DejaVuSans-30" x="95.410156"/>
      </g>
     </g>
    </g>
    <g id="xtick_6">
     <g id="line2d_6">
      <g>
       <use xlink:href="#mb1f8ed07b8" x="375.662569" y="307.584" style="stroke: #000000; stroke-width: 0.8"/>
      </g>
     </g>
     <g id="text_6">
      <!-- 1.5 -->
      <g transform="translate(367.711006 322.182437) scale(0.1 -0.1)">
       <use xlink:href="#DejaVuSans-31"/>
       <use xlink:href="#DejaVuSans-2e" x="63.623047"/>
       <use xlink:href="#DejaVuSans-35" x="95.410156"/>
      </g>
     </g>
    </g>
    <g id="text_7">
     <!-- Parent Location -->
     <g transform="translate(197.420156 335.860562) scale(0.1 -0.1)">
      <defs>
       <path id="DejaVuSans-50" d="M 1259 4147 
L 1259 2394 
L 2053 2394 
Q 2494 2394 2734 2622 
Q 2975 2850 2975 3272 
Q 2975 3691 2734 3919 
Q 2494 4147 2053 4147 
L 1259 4147 
z
M 628 4666 
L 2053 4666 
Q 2838 4666 3239 4311 
Q 3641 3956 3641 3272 
Q 3641 2581 3239 2228 
Q 2838 1875 2053 1875 
L 1259 1875 
L 1259 0 
L 628 0 
L 628 4666 
z
" transform="scale(0.015625)"/>
       <path id="DejaVuSans-61" d="M 2194 1759 
Q 1497 1759 1228 1600 
Q 959 1441 959 1056 
Q 959 750 1161 570 
Q 1363 391 1709 391 
Q 2188 391 2477 730 
Q 2766 1069 2766 1631 
L 2766 1759 
L 2194 1759 
z
M 3341 1997 
L 3341 0 
L 2766 0 
L 2766 531 
Q 2569 213 2275 61 
Q 1981 -91 1556 -91 
Q 1019 -91 701 211 
Q 384 513 384 1019 
Q 384 1609 779 1909 
Q 1175 2209 1959 2209 
L 2766 2209 
L 2766 2266 
Q 2766 2663 2505 2880 
Q 2244 3097 1772 3097 
Q 1472 3097 1187 3025 
Q 903 2953 641 2809 
L 641 3341 
Q 956 3463 1253 3523 
Q 1550 3584 1831 3584 
Q 2591 3584 2966 3190 
Q 3341 2797 3341 1997 
z
" transform="scale(0.015625)"/>
       <path id="DejaVuSans-72" d="M 2631 2963 
Q 2534 3019 2420 3045 
Q 2306 3072 2169 3072 
Q 1681 3072 1420 2755 
Q 1159 2438 1159 1844 
L 1159 0 
L 581 0 
L 581 3500 
L 1159 3500 
L 1159 2956 
Q 1341 3275 1631 3429 
Q 1922 3584 2338 3584 
Q 2397 3584 2469 3576 
Q 2541 3569 2628 3553 
L 2631 2963 
z
" transform="scale(0.015625)"/>
       <path id="DejaVuSans-65" d="M 3597 1894 
L 3597 1613 
L 953 1613 
Q 991 1019 1311 708 
Q 1631 397 2203 397 
Q 2534 397 2845 478 
Q 3156 559 3463 722 
L 3463 178 
Q 3153 47 2828 -22 
Q 2503 -91 2169 -91 
Q 1331 -91 842 396 
Q 353 884 353 1716 
Q 353 2575 817 3079 
Q 1281 3584 2069 3584 
Q 2775 3584 3186 3129 
Q 3597 2675 3597 1894 
z
M 3022 2063 
Q 3016 2534 2758 2815 
Q 2500 3097 2075 3097 
Q 1594 3097 1305 2825 
Q 1016 2553 972 2059 
L 3022 2063 
z
" transform="scale(0.015625)"/>
       <path id="DejaVuSans-6e" d="M 3513 2113 
L 3513 0 
L 2938 0 
L 2938 2094 
Q 2938 2591 2744 2837 
Q 2550 3084 2163 3084 
Q 1697 3084 1428 2787 
Q 1159 2491 1159 1978 
L 1159 0 
L 581 0 
L 581 3500 
L 1159 3500 
L 1159 2956 
Q 1366 3272 1645 3428 
Q 1925 3584 2291 3584 
Q 2894 3584 3203 3211 
Q 3513 2838 3513 2113 
z
" transform="scale(0.015625)"/>
       <path id="DejaVuSans-74" d="M 1172 4494 
L 1172 3500 
L 2356 3500 
L 2356 3053 
L 1172 3053 
L 1172 1153 
Q 1172 725 1289 603 
Q 1406 481 1766 481 
L 2356 481 
L 2356 0 
L 1766 0 
Q 1100 0 847 248 
Q 594 497 594 1153 
L 594 3053 
L 172 3053 
L 172 3500 
L 594 3500 
L 594 4494 
L 1172 4494 
z
" transform="scale(0.015625)"/>
       <path id="DejaVuSans-20" transform="scale(0.015625)"/>
       <path id="DejaVuSans-4c" d="M 628 4666 
L 1259 4666 
L 1259 531 
L 3531 531 
L 3531 0 
L 628 0 
L 628 4666 
z
" transform="scale(0.015625)"/>
       <path id="DejaVuSans-6f" d="M 1959 3097 
Q 1497 3097 1228 2736 
Q 959 2375 959 1747 
Q 959 1119 1226 758 
Q 1494 397 1959 397 
Q 2419 397 2687 759 
Q 2956 1122 2956 1747 
Q 2956 2369 2687 2733 
Q 2419 3097 1959 3097 
z
M 1959 3584 
Q 2709 3584 3137 3096 
Q 3566 2609 3566 1747 
Q 3566 888 3137 398 
Q 2709 -91 1959 -91 
Q 1206 -91 779 398 
Q 353 888 353 1747 
Q 353 2609 779 3096 
Q 1206 3584 1959 3584 
z
" transform="scale(0.015625)"/>
       <path id="DejaVuSans-63" d="M 3122 3366 
L 3122 2828 
Q 2878 2963 2633 3030 
Q 2388 3097 2138 3097 
Q 1578 3097 1268 2742 
Q 959 2388 959 1747 
Q 959 1106 1268 751 
Q 1578 397 2138 397 
Q 2388 397 2633 464 
Q 2878 531 3122 666 
L 3122 134 
Q 2881 22 2623 -34 
Q 2366 -91 2075 -91 
Q 1284 -91 818 406 
Q 353 903 353 1747 
Q 353 2603 823 3093 
Q 1294 3584 2113 3584 
Q 2378 3584 2631 3529 
Q 2884 3475 3122 3366 
z
" transform="scale(0.015625)"/>
       <path id="DejaVuSans-69" d="M 603 3500 
L 1178 3500 
L 1178 0 
L 603 0 
L 603 3500 
z
M 603 4863 
L 1178 4863 
L 1178 4134 
L 603 4134 
L 603 4863 
z
" transform="scale(0.015625)"/>
      </defs>
      <use xlink:href="#DejaVuSans-50"/>
      <use xlink:href="#DejaVuSans-61" x="55.802734"/>
      <use xlink:href="#DejaVuSans-72" x="117.082031"/>
      <use xlink:href="#DejaVuSans-65" x="155.945312"/>
      <use xlink:href="#DejaVuSans-6e" x="217.46875"/>
      <use xlink:href="#DejaVuSans-74" x="280.847656"/>
      <use xlink:href="#DejaVuSans-20" x="320.056641"/>
      <use xlink:href="#DejaVuSans-4c" x="351.84375"/>
      <use xlink:href="#DejaVuSans-6f" x="405.806641"/>
      <use xlink:href="#DejaVuSans-63" x="466.988281"/>
      <use xlink:href="#DejaVuSans-61" x="521.96875"/>
      <use xlink:href="#DejaVuSans-74" x="583.248047"/>
      <use xlink:href="#DejaVuSans-69" x="622.457031"/>
      <use xlink:href="#DejaVuSans-6f" x="650.240234"/>
      <use xlink:href="#DejaVuSans-6e" x="711.421875"/>
     </g>
    </g>
   </g>
   <g id="matplotlib.axis_2">
    <g id="ytick_1">
     <g id="line2d_7">
      <defs>
       <path id="m1a6d2b296e" d="M 0 0 
L -3.5 0 
" style="stroke: #000000; stroke-width: 0.8"/>
      </defs>
      <g>
       <use xlink:href="#m1a6d2b296e" x="57.6" y="293.203544" style="stroke: #000000; stroke-width: 0.8"/>
      </g>
     </g>
     <g id="text_8">
      <!-- −2 -->
      <g transform="translate(35.857813 297.002763) scale(0.1 -0.1)">
       <defs>
        <path id="DejaVuSans-32" d="M 1228 531 
L 3431 531 
L 3431 0 
L 469 0 
L 469 531 
Q 828 903 1448 1529 
Q 2069 2156 2228 2338 
Q 2531 2678 2651 2914 
Q 2772 3150 2772 3378 
Q 2772 3750 2511 3984 
Q 2250 4219 1831 4219 
Q 1534 4219 1204 4116 
Q 875 4013 500 3803 
L 500 4441 
Q 881 4594 1212 4672 
Q 1544 4750 1819 4750 
Q 2544 4750 2975 4387 
Q 3406 4025 3406 3419 
Q 3406 3131 3298 2873 
Q 3191 2616 2906 2266 
Q 2828 2175 2409 1742 
Q 1991 1309 1228 531 
z
" transform="scale(0.015625)"/>
       </defs>
       <use xlink:href="#DejaVuSans-2212"/>
       <use xlink:href="#DejaVuSans-32" x="83.789062"/>
      </g>
     </g>
    </g>
    <g id="ytick_2">
     <g id="line2d_8">
      <g>
       <use xlink:href="#m1a6d2b296e" x="57.6" y="244.610895" style="stroke: #000000; stroke-width: 0.8"/>
      </g>
     </g>
     <g id="text_9">
      <!-- −1 -->
      <g transform="translate(35.857813 248.410114) scale(0.1 -0.1)">
       <use xlink:href="#DejaVuSans-2212"/>
       <use xlink:href="#DejaVuSans-31" x="83.789062"/>
      </g>
     </g>
    </g>
    <g id="ytick_3">
     <g id="line2d_9">
      <g>
       <use xlink:href="#m1a6d2b296e" x="57.6" y="196.018246" style="stroke: #000000; stroke-width: 0.8"/>
      </g>
     </g>
     <g id="text_10">
      <!-- 0 -->
      <g transform="translate(44.2375 199.817465) scale(0.1 -0.1)">
       <use xlink:href="#DejaVuSans-30"/>
      </g>
     </g>
    </g>
    <g id="ytick_4">
     <g id="line2d_10">
      <g>
       <use xlink:href="#m1a6d2b296e" x="57.6" y="147.425597" style="stroke: #000000; stroke-width: 0.8"/>
      </g>
     </g>
     <g id="text_11">
      <!-- 1 -->
      <g transform="translate(44.2375 151.224816) scale(0.1 -0.1)">
       <use xlink:href="#DejaVuSans-31"/>
      </g>
     </g>
    </g>
    <g id="ytick_5">
     <g id="line2d_11">
      <g>
       <use xlink:href="#m1a6d2b296e" x="57.6" y="98.832948" style="stroke: #000000; stroke-width: 0.8"/>
      </g>
     </g>
     <g id="text_12">
      <!-- 2 -->
      <g transform="translate(44.2375 102.632167) scale(0.1 -0.1)">
       <use xlink:href="#DejaVuSans-32"/>
      </g>
     </g>
    </g>
    <g id="ytick_6">
     <g id="line2d_12">
      <g>
       <use xlink:href="#m1a6d2b296e" x="57.6" y="50.240299" style="stroke: #000000; stroke-width: 0.8"/>
      </g>
     </g>
     <g id="text_13">
      <!-- 3 -->
      <g transform="translate(44.2375 54.039518) scale(0.1 -0.1)">
       <defs>
        <path id="DejaVuSans-33" d="M 2597 2516 
Q 3050 2419 3304 2112 
Q 3559 1806 3559 1356 
Q 3559 666 3084 287 
Q 2609 -91 1734 -91 
Q 1441 -91 1130 -33 
Q 819 25 488 141 
L 488 750 
Q 750 597 1062 519 
Q 1375 441 1716 441 
Q 2309 441 2620 675 
Q 2931 909 2931 1356 
Q 2931 1769 2642 2001 
Q 2353 2234 1838 2234 
L 1294 2234 
L 1294 2753 
L 1863 2753 
Q 2328 2753 2575 2939 
Q 2822 3125 2822 3475 
Q 2822 3834 2567 4026 
Q 2313 4219 1838 4219 
Q 1578 4219 1281 4162 
Q 984 4106 628 3988 
L 628 4550 
Q 988 4650 1302 4700 
Q 1616 4750 1894 4750 
Q 2613 4750 3031 4423 
Q 3450 4097 3450 3541 
Q 3450 3153 3228 2886 
Q 3006 2619 2597 2516 
z
" transform="scale(0.015625)"/>
       </defs>
       <use xlink:href="#DejaVuSans-33"/>
      </g>
     </g>
    </g>
    <g id="text_14">
     <!-- Mean BMI -->
     <g transform="translate(29.778125 198.960031) rotate(-90) scale(0.1 -0.1)">
      <defs>
       <path id="DejaVuSans-4d" d="M 628 4666 
L 1569 4666 
L 2759 1491 
L 3956 4666 
L 4897 4666 
L 4897 0 
L 4281 0 
L 4281 4097 
L 3078 897 
L 2444 897 
L 1241 4097 
L 1241 0 
L 628 0 
L 628 4666 
z
" transform="scale(0.015625)"/>
       <path id="DejaVuSans-42" d="M 1259 2228 
L 1259 519 
L 2272 519 
Q 2781 519 3026 730 
Q 3272 941 3272 1375 
Q 3272 1813 3026 2020 
Q 2781 2228 2272 2228 
L 1259 2228 
z
M 1259 4147 
L 1259 2741 
L 2194 2741 
Q 2656 2741 2882 2914 
Q 3109 3088 3109 3444 
Q 3109 3797 2882 3972 
Q 2656 4147 2194 4147 
L 1259 4147 
z
M 628 4666 
L 2241 4666 
Q 2963 4666 3353 4366 
Q 3744 4066 3744 3513 
Q 3744 3084 3544 2831 
Q 3344 2578 2956 2516 
Q 3422 2416 3680 2098 
Q 3938 1781 3938 1306 
Q 3938 681 3513 340 
Q 3088 0 2303 0 
L 628 0 
L 628 4666 
z
" transform="scale(0.015625)"/>
       <path id="DejaVuSans-49" d="M 628 4666 
L 1259 4666 
L 1259 0 
L 628 0 
L 628 4666 
z
" transform="scale(0.015625)"/>
      </defs>
      <use xlink:href="#DejaVuSans-4d"/>
      <use xlink:href="#DejaVuSans-65" x="86.279297"/>
      <use xlink:href="#DejaVuSans-61" x="147.802734"/>
      <use xlink:href="#DejaVuSans-6e" x="209.082031"/>
      <use xlink:href="#DejaVuSans-20" x="272.460938"/>
      <use xlink:href="#DejaVuSans-42" x="304.248047"/>
      <use xlink:href="#DejaVuSans-4d" x="372.851562"/>
      <use xlink:href="#DejaVuSans-49" x="459.130859"/>
     </g>
    </g>
   </g>
   <g id="PathCollection_8"/>
   <g id="PathCollection_9">
    <path d="M 57.6 202.11936 
L 62.550401 206.644966 
L 62.550401 208.939034 
L 62.550401 211.233103 
L 67.744073 213.527172 
L 67.744073 218.11531 
L 67.744073 220.409379 
L 67.744073 222.703448 
L 67.744073 224.997517 
L 67.744073 227.291586 
L 67.744073 229.129138 
" clip-path="url(#p5032dd356d)" style="fill: none; stroke-dasharray: 1.85,0.8; stroke-dashoffset: 0; stroke: #000000; stroke-width: 0.5"/>
    <path d="M 67.744073 262.159138 
L 67.744073 263.99669 
L 67.744073 270.878897 
L 67.744073 273.172966 
L 67.744073 275.467034 
L 67.744073 277.761103 
L 67.744073 280.055172 
L 67.744073 282.349241 
L 67.744073 291.525517 
L 67.744073 307.584 
" clip-path="url(#p5032dd356d)" style="fill: none; stroke-dasharray: 1.85,0.8; stroke-dashoffset: 0; stroke: #000000; stroke-width: 0.5"/>
   </g>
   <g id="PathCollection_10">
    <path d="M 72.409573 41.472 
L 72.409573 91.941517 
L 72.409573 101.117793 
L 72.409573 110.294069 
L 72.409573 112.588138 
L 72.409573 114.882207 
L 72.409573 117.176276 
L 72.409573 119.470345 
L 72.409573 128.646621 
L 72.409573 130.94069 
L 72.409573 135.07231 
" clip-path="url(#p5032dd356d)" style="fill: none; stroke-dasharray: 1.85,0.8; stroke-dashoffset: 0; stroke: #000000; stroke-width: 0.5"/>
    <path d="M 72.409573 168.10231 
L 72.409573 169.939862 
L 72.409573 172.233931 
L 72.409573 174.528 
L 72.409573 176.822069 
L 72.409573 179.116138 
L 72.409573 181.410207 
L 72.409573 183.704276 
L 72.409573 185.998345 
L 72.409573 188.292414 
L 72.409573 190.586483 
L 72.409573 192.880552 
L 72.409573 195.174621 
L 72.409573 199.762759 
L 72.409573 202.056828 
L 77.428375 206.644966 
L 77.428375 208.939034 
L 77.428375 211.233103 
L 82.622048 213.527172 
L 82.622048 218.11531 
L 82.622048 220.409379 
L 82.622048 222.703448 
L 82.622048 224.997517 
L 82.622048 227.291586 
L 82.622048 229.585655 
L 82.622048 231.879724 
L 82.622048 234.173793 
L 82.622048 238.761931 
L 82.622048 241.056 
L 82.622048 243.350069 
L 82.622048 245.644138 
L 82.622048 247.938207 
L 82.622048 250.232276 
L 82.622048 252.526345 
L 82.622048 254.820414 
L 82.622048 257.114483 
L 82.622048 259.408552 
L 82.622048 261.702621 
L 82.622048 263.99669 
L 82.622048 270.878897 
L 82.622048 273.172966 
L 82.622048 275.467034 
L 82.622048 277.761103 
L 82.622048 280.055172 
L 82.622048 282.349241 
L 82.622048 291.525517 
L 82.622048 307.584 
" clip-path="url(#p5032dd356d)" style="fill: none; stroke-dasharray: 1.85,0.8; stroke-dashoffset: 0; stroke: #000000; stroke-width: 0.5"/>
   </g>
   <g id="PathCollection_11">
    <path d="M 87.287547 41.472 
L 87.287547 91.941517 
L 87.287547 101.117793 
L 87.287547 110.294069 
L 87.287547 112.588138 
L 87.287547 114.882207 
L 87.287547 117.176276 
L 87.287547 119.470345 
L 87.287547 128.646621 
L 87.287547 130.94069 
L 87.287547 135.07231 
" clip-path="url(#p5032dd356d)" style="fill: none; stroke-dasharray: 1.85,0.8; stroke-dashoffset: 0; stroke: #000000; stroke-width: 0.5"/>
    <path d="M 87.287547 168.10231 
L 87.287547 169.939862 
L 87.287547 172.233931 
L 87.287547 174.528 
L 87.287547 176.822069 
L 87.287547 179.116138 
L 87.287547 181.410207 
L 87.287547 183.704276 
L 87.287547 185.998345 
L 87.287547 188.292414 
L 87.287547 190.586483 
L 87.287547 192.880552 
L 87.287547 195.174621 
L 87.287547 199.762759 
L 87.287547 202.056828 
L 92.306349 206.644966 
L 92.306349 208.939034 
L 92.306349 211.233103 
L 97.500022 213.527172 
L 97.500022 218.11531 
L 97.500022 220.409379 
L 97.500022 222.703448 
L 97.500022 224.997517 
L 97.500022 227.291586 
L 97.500022 229.585655 
L 97.500022 231.879724 
L 97.500022 234.173793 
L 97.500022 238.761931 
L 97.500022 241.056 
L 97.500022 243.350069 
L 97.500022 245.644138 
L 97.500022 247.938207 
L 97.500022 250.232276 
L 97.500022 252.526345 
L 97.500022 254.820414 
L 97.500022 257.114483 
L 97.500022 259.408552 
L 97.500022 261.702621 
L 97.500022 263.99669 
L 97.500022 270.878897 
L 97.500022 273.172966 
L 97.500022 275.467034 
L 97.500022 277.761103 
L 97.500022 280.055172 
L 97.500022 282.349241 
L 97.500022 291.525517 
L 97.500022 307.584 
" clip-path="url(#p5032dd356d)" style="fill: none; stroke-dasharray: 1.85,0.8; stroke-dashoffset: 0; stroke: #000000; stroke-width: 0.5"/>
   </g>
   <g id="PathCollection_12">
    <path d="M 102.165521 41.472 
L 102.165521 91.941517 
L 102.165521 101.117793 
L 102.165521 110.294069 
L 102.165521 112.588138 
L 102.165521 114.882207 
L 102.165521 117.176276 
L 102.165521 119.470345 
L 102.165521 128.646621 
L 102.165521 130.94069 
L 102.165521 135.528828 
L 102.165521 137.822897 
L 102.165521 140.116966 
L 102.165521 142.411034 
L 102.165521 144.705103 
L 102.165521 146.999172 
L 102.165521 149.293241 
L 102.165521 151.58731 
L 102.165521 153.881379 
L 102.165521 156.175448 
L 102.165521 158.469517 
L 102.165521 160.763586 
L 102.165521 163.057655 
L 102.165521 165.351724 
L 102.165521 167.645793 
L 102.165521 169.939862 
L 102.165521 172.233931 
L 102.165521 174.528 
L 102.165521 176.822069 
L 102.165521 179.116138 
L 102.165521 181.410207 
L 102.165521 183.704276 
L 102.165521 185.998345 
L 102.165521 188.292414 
L 102.165521 190.586483 
L 102.165521 192.880552 
L 102.165521 195.174621 
L 102.165521 199.762759 
L 102.165521 202.056828 
L 107.184324 206.644966 
L 107.184324 208.939034 
L 107.184324 211.233103 
L 112.377996 213.527172 
L 112.377996 218.11531 
L 112.377996 220.409379 
L 112.377996 222.703448 
L 112.377996 224.541 
" clip-path="url(#p5032dd356d)" style="fill: none; stroke-dasharray: 1.85,0.8; stroke-dashoffset: 0; stroke: #000000; stroke-width: 0.5"/>
    <path d="M 112.377996 257.571 
L 112.377996 259.408552 
L 112.377996 261.702621 
L 112.377996 263.99669 
L 112.377996 270.878897 
L 112.377996 273.172966 
L 112.377996 275.467034 
L 112.377996 277.761103 
L 112.377996 280.055172 
L 112.377996 282.349241 
L 112.377996 291.525517 
L 112.377996 307.584 
" clip-path="url(#p5032dd356d)" style="fill: none; stroke-dasharray: 1.85,0.8; stroke-dashoffset: 0; stroke: #000000; stroke-width: 0.5"/>
   </g>
   <g id="PathCollection_13">
    <path d="M 117.043496 41.472 
L 117.043496 91.941517 
L 117.043496 101.117793 
L 117.043496 110.294069 
L 117.043496 112.588138 
L 117.043496 114.882207 
L 117.043496 117.176276 
L 117.043496 119.470345 
L 117.043496 128.646621 
L 117.043496 130.94069 
L 117.043496 135.07231 
" clip-path="url(#p5032dd356d)" style="fill: none; stroke-dasharray: 1.85,0.8; stroke-dashoffset: 0; stroke: #000000; stroke-width: 0.5"/>
    <path d="M 117.043496 168.10231 
L 117.043496 169.939862 
L 117.043496 172.233931 
L 117.043496 174.528 
L 117.043496 176.822069 
L 117.043496 179.116138 
L 117.043496 181.410207 
L 117.043496 183.704276 
L 117.043496 185.998345 
L 117.043496 188.292414 
L 117.043496 190.586483 
L 117.043496 192.880552 
L 117.043496 195.174621 
L 117.043496 199.762759 
L 117.043496 202.056828 
L 122.062298 206.644966 
L 122.062298 208.939034 
L 122.062298 211.233103 
L 127.255971 213.527172 
L 127.255971 218.11531 
L 127.255971 220.409379 
L 127.255971 222.703448 
L 127.255971 224.997517 
L 127.255971 227.291586 
L 127.255971 229.585655 
L 127.255971 231.879724 
L 127.255971 234.173793 
L 127.255971 238.761931 
L 127.255971 241.056 
L 127.255971 243.350069 
L 127.255971 245.644138 
L 127.255971 247.938207 
L 127.255971 250.232276 
L 127.255971 252.526345 
L 127.255971 254.820414 
L 127.255971 257.114483 
L 127.255971 259.408552 
L 127.255971 261.702621 
L 127.255971 263.99669 
L 127.255971 270.878897 
L 127.255971 273.172966 
L 127.255971 275.467034 
L 127.255971 277.761103 
L 127.255971 280.055172 
L 127.255971 282.349241 
L 127.255971 291.525517 
L 127.255971 307.584 
" clip-path="url(#p5032dd356d)" style="fill: none; stroke-dasharray: 1.85,0.8; stroke-dashoffset: 0; stroke: #000000; stroke-width: 0.5"/>
   </g>
   <g id="PathCollection_14">
    <path d="M 144.892436 41.472 
L 144.892436 91.941517 
L 144.892436 100.661276 
" clip-path="url(#p5032dd356d)" style="fill: none; stroke-dasharray: 1.85,0.8; stroke-dashoffset: 0; stroke: #000000; stroke-width: 0.5"/>
    <path d="M 144.892436 133.691276 
L 144.892436 135.528828 
L 144.892436 137.822897 
L 144.892436 140.116966 
L 144.892436 142.411034 
L 144.892436 144.705103 
L 144.892436 146.999172 
L 144.892436 149.293241 
L 144.892436 151.58731 
L 144.892436 153.881379 
L 144.892436 156.175448 
L 144.892436 158.469517 
L 144.892436 160.763586 
L 144.892436 163.057655 
L 144.892436 165.351724 
L 144.892436 167.645793 
L 144.892436 169.939862 
L 144.892436 172.233931 
L 144.892436 174.528 
L 144.892436 176.822069 
L 144.892436 179.116138 
L 144.892436 181.410207 
L 144.892436 183.704276 
L 144.892436 185.998345 
L 144.892436 188.292414 
L 144.892436 190.586483 
L 144.892436 192.880552 
L 144.892436 195.174621 
L 144.892436 199.762759 
L 144.892436 202.056828 
L 172.378673 206.644966 
L 172.378673 208.939034 
L 172.378673 211.233103 
L 200.448 213.496959 
L 271.872 213.496959 
L 343.296 213.496959 
L 414.72 213.496959 
" clip-path="url(#p5032dd356d)" style="fill: none; stroke-dasharray: 1.85,0.8; stroke-dashoffset: 0; stroke: #000000; stroke-width: 0.5"/>
   </g>
   <g id="PathCollection_15"/>
   <g id="LineCollection_1">
    <path d="M 57.6 307.584 
L 57.6 294.2784 
" clip-path="url(#p5032dd356d)" style="fill: none; stroke: #000000; stroke-width: 1.5"/>
    <path d="M 57.6 307.584 
L 57.6 294.2784 
" clip-path="url(#p5032dd356d)" style="fill: none; stroke: #000000; stroke-width: 1.5"/>
    <path d="M 129.024 307.584 
L 129.024 294.2784 
" clip-path="url(#p5032dd356d)" style="fill: none; stroke: #000000; stroke-width: 1.5"/>
    <path d="M 129.024 307.584 
L 129.024 294.2784 
" clip-path="url(#p5032dd356d)" style="fill: none; stroke: #000000; stroke-width: 1.5"/>
    <path d="M 200.448 307.584 
L 200.448 294.2784 
" clip-path="url(#p5032dd356d)" style="fill: none; stroke: #000000; stroke-width: 1.5"/>
    <path d="M 271.872 307.584 
L 271.872 294.2784 
" clip-path="url(#p5032dd356d)" style="fill: none; stroke: #000000; stroke-width: 1.5"/>
    <path d="M 271.872 307.584 
L 271.872 294.2784 
" clip-path="url(#p5032dd356d)" style="fill: none; stroke: #000000; stroke-width: 1.5"/>
    <path d="M 271.872 307.584 
L 271.872 294.2784 
" clip-path="url(#p5032dd356d)" style="fill: none; stroke: #000000; stroke-width: 1.5"/>
    <path d="M 349.00992 307.584 
L 349.00992 294.2784 
" clip-path="url(#p5032dd356d)" style="fill: none; stroke: #000000; stroke-width: 1.5"/>
   </g>
   <g id="LineCollection_2">
    <path clip-path="url(#p5032dd356d)" style="fill: none; stroke: #000000; stroke-width: 1.5"/>
    <path clip-path="url(#p5032dd356d)" style="fill: none; stroke: #000000; stroke-width: 1.5"/>
    <path clip-path="url(#p5032dd356d)" style="fill: none; stroke: #000000; stroke-width: 1.5"/>
    <path d="M 202.2912 340.653591 
L 208.070246 340.653591 
" clip-path="url(#p5032dd356d)" style="fill: none; stroke: #000000; stroke-width: 1.5"/>
    <path d="M 202.2912 240.147972 
L 208.070246 240.147972 
" clip-path="url(#p5032dd356d)" style="fill: none; stroke: #000000; stroke-width: 1.5"/>
    <path d="M 202.2912 189.895163 
L 208.070246 189.895163 
" clip-path="url(#p5032dd356d)" style="fill: none; stroke: #000000; stroke-width: 1.5"/>
    <path d="M 202.2912 152.205556 
L 208.070246 152.205556 
" clip-path="url(#p5032dd356d)" style="fill: none; stroke: #000000; stroke-width: 1.5"/>
    <path d="M 202.2912 101.952746 
L 208.070246 101.952746 
" clip-path="url(#p5032dd356d)" style="fill: none; stroke: #000000; stroke-width: 1.5"/>
    <path d="M 202.2912 0.442072 
L 208.070246 0.442072 
" clip-path="url(#p5032dd356d)" style="fill: none; stroke: #000000; stroke-width: 1.5"/>
   </g>
   <g id="patch_3">
    <path d="M 57.6 307.584 
L 57.6 41.472 
" style="fill: none; stroke: #000000; stroke-width: 0.8; stroke-linejoin: miter; stroke-linecap: square"/>
   </g>
   <g id="patch_4">
    <path d="M 414.72 307.584 
L 414.72 41.472 
" style="fill: none; stroke: #000000; stroke-width: 0.8; stroke-linejoin: miter; stroke-linecap: square"/>
   </g>
   <g id="patch_5">
    <path d="M 57.6 307.584 
L 414.72 307.584 
" style="fill: none; stroke: #000000; stroke-width: 0.8; stroke-linejoin: miter; stroke-linecap: square"/>
   </g>
   <g id="patch_6">
    <path d="M 57.6 41.472 
L 414.72 41.472 
" style="fill: none; stroke: #000000; stroke-width: 0.8; stroke-linejoin: miter; stroke-linecap: square"/>
   </g>
   <g id="text_15">
    <!-- 2D-partial dependency plot between PL and BMI -->
    <g transform="translate(91.084688 35.472) scale(0.12 -0.12)">
     <defs>
      <path id="DejaVuSans-44" d="M 1259 4147 
L 1259 519 
L 2022 519 
Q 2988 519 3436 956 
Q 3884 1394 3884 2338 
Q 3884 3275 3436 3711 
Q 2988 4147 2022 4147 
L 1259 4147 
z
M 628 4666 
L 1925 4666 
Q 3281 4666 3915 4102 
Q 4550 3538 4550 2338 
Q 4550 1131 3912 565 
Q 3275 0 1925 0 
L 628 0 
L 628 4666 
z
" transform="scale(0.015625)"/>
      <path id="DejaVuSans-2d" d="M 313 2009 
L 1997 2009 
L 1997 1497 
L 313 1497 
L 313 2009 
z
" transform="scale(0.015625)"/>
      <path id="DejaVuSans-70" d="M 1159 525 
L 1159 -1331 
L 581 -1331 
L 581 3500 
L 1159 3500 
L 1159 2969 
Q 1341 3281 1617 3432 
Q 1894 3584 2278 3584 
Q 2916 3584 3314 3078 
Q 3713 2572 3713 1747 
Q 3713 922 3314 415 
Q 2916 -91 2278 -91 
Q 1894 -91 1617 61 
Q 1341 213 1159 525 
z
M 3116 1747 
Q 3116 2381 2855 2742 
Q 2594 3103 2138 3103 
Q 1681 3103 1420 2742 
Q 1159 2381 1159 1747 
Q 1159 1113 1420 752 
Q 1681 391 2138 391 
Q 2594 391 2855 752 
Q 3116 1113 3116 1747 
z
" transform="scale(0.015625)"/>
      <path id="DejaVuSans-6c" d="M 603 4863 
L 1178 4863 
L 1178 0 
L 603 0 
L 603 4863 
z
" transform="scale(0.015625)"/>
      <path id="DejaVuSans-64" d="M 2906 2969 
L 2906 4863 
L 3481 4863 
L 3481 0 
L 2906 0 
L 2906 525 
Q 2725 213 2448 61 
Q 2172 -91 1784 -91 
Q 1150 -91 751 415 
Q 353 922 353 1747 
Q 353 2572 751 3078 
Q 1150 3584 1784 3584 
Q 2172 3584 2448 3432 
Q 2725 3281 2906 2969 
z
M 947 1747 
Q 947 1113 1208 752 
Q 1469 391 1925 391 
Q 2381 391 2643 752 
Q 2906 1113 2906 1747 
Q 2906 2381 2643 2742 
Q 2381 3103 1925 3103 
Q 1469 3103 1208 2742 
Q 947 2381 947 1747 
z
" transform="scale(0.015625)"/>
      <path id="DejaVuSans-79" d="M 2059 -325 
Q 1816 -950 1584 -1140 
Q 1353 -1331 966 -1331 
L 506 -1331 
L 506 -850 
L 844 -850 
Q 1081 -850 1212 -737 
Q 1344 -625 1503 -206 
L 1606 56 
L 191 3500 
L 800 3500 
L 1894 763 
L 2988 3500 
L 3597 3500 
L 2059 -325 
z
" transform="scale(0.015625)"/>
      <path id="DejaVuSans-62" d="M 3116 1747 
Q 3116 2381 2855 2742 
Q 2594 3103 2138 3103 
Q 1681 3103 1420 2742 
Q 1159 2381 1159 1747 
Q 1159 1113 1420 752 
Q 1681 391 2138 391 
Q 2594 391 2855 752 
Q 3116 1113 3116 1747 
z
M 1159 2969 
Q 1341 3281 1617 3432 
Q 1894 3584 2278 3584 
Q 2916 3584 3314 3078 
Q 3713 2572 3713 1747 
Q 3713 922 3314 415 
Q 2916 -91 2278 -91 
Q 1894 -91 1617 61 
Q 1341 213 1159 525 
L 1159 0 
L 581 0 
L 581 4863 
L 1159 4863 
L 1159 2969 
z
" transform="scale(0.015625)"/>
      <path id="DejaVuSans-77" d="M 269 3500 
L 844 3500 
L 1563 769 
L 2278 3500 
L 2956 3500 
L 3675 769 
L 4391 3500 
L 4966 3500 
L 4050 0 
L 3372 0 
L 2619 2869 
L 1863 0 
L 1184 0 
L 269 3500 
z
" transform="scale(0.015625)"/>
     </defs>
     <use xlink:href="#DejaVuSans-32"/>
     <use xlink:href="#DejaVuSans-44" x="63.623047"/>
     <use xlink:href="#DejaVuSans-2d" x="140.625"/>
     <use xlink:href="#DejaVuSans-70" x="176.708984"/>
     <use xlink:href="#DejaVuSans-61" x="240.185547"/>
     <use xlink:href="#DejaVuSans-72" x="301.464844"/>
     <use xlink:href="#DejaVuSans-74" x="342.578125"/>
     <use xlink:href="#DejaVuSans-69" x="381.787109"/>
     <use xlink:href="#DejaVuSans-61" x="409.570312"/>
     <use xlink:href="#DejaVuSans-6c" x="470.849609"/>
     <use xlink:href="#DejaVuSans-20" x="498.632812"/>
     <use xlink:href="#DejaVuSans-64" x="530.419922"/>
     <use xlink:href="#DejaVuSans-65" x="593.896484"/>
     <use xlink:href="#DejaVuSans-70" x="655.419922"/>
     <use xlink:href="#DejaVuSans-65" x="718.896484"/>
     <use xlink:href="#DejaVuSans-6e" x="780.419922"/>
     <use xlink:href="#DejaVuSans-64" x="843.798828"/>
     <use xlink:href="#DejaVuSans-65" x="907.275391"/>
     <use xlink:href="#DejaVuSans-6e" x="968.798828"/>
     <use xlink:href="#DejaVuSans-63" x="1032.177734"/>
     <use xlink:href="#DejaVuSans-79" x="1087.158203"/>
     <use xlink:href="#DejaVuSans-20" x="1146.337891"/>
     <use xlink:href="#DejaVuSans-70" x="1178.125"/>
     <use xlink:href="#DejaVuSans-6c" x="1241.601562"/>
     <use xlink:href="#DejaVuSans-6f" x="1269.384766"/>
     <use xlink:href="#DejaVuSans-74" x="1330.566406"/>
     <use xlink:href="#DejaVuSans-20" x="1369.775391"/>
     <use xlink:href="#DejaVuSans-62" x="1401.5625"/>
     <use xlink:href="#DejaVuSans-65" x="1465.039062"/>
     <use xlink:href="#DejaVuSans-74" x="1526.5625"/>
     <use xlink:href="#DejaVuSans-77" x="1565.771484"/>
     <use xlink:href="#DejaVuSans-65" x="1647.558594"/>
     <use xlink:href="#DejaVuSans-65" x="1709.082031"/>
     <use xlink:href="#DejaVuSans-6e" x="1770.605469"/>
     <use xlink:href="#DejaVuSans-20" x="1833.984375"/>
     <use xlink:href="#DejaVuSans-50" x="1865.771484"/>
     <use xlink:href="#DejaVuSans-4c" x="1926.074219"/>
     <use xlink:href="#DejaVuSans-20" x="1981.787109"/>
     <use xlink:href="#DejaVuSans-61" x="2013.574219"/>
     <use xlink:href="#DejaVuSans-6e" x="2074.853516"/>
     <use xlink:href="#DejaVuSans-64" x="2138.232422"/>
     <use xlink:href="#DejaVuSans-20" x="2201.708984"/>
     <use xlink:href="#DejaVuSans-42" x="2233.496094"/>
     <use xlink:href="#DejaVuSans-4d" x="2302.099609"/>
     <use xlink:href="#DejaVuSans-49" x="2388.378906"/>
    </g>
   </g>
   <g id="text_16">
    <g clip-path="url(#p5032dd356d)">
     <!-- -0.03 -->
     <g transform="translate(64.984698 232.707419) rotate(-270) scale(0.1 -0.1)">
      <use xlink:href="#DejaVuSans-2d"/>
      <use xlink:href="#DejaVuSans-30" x="36.083984"/>
      <use xlink:href="#DejaVuSans-2e" x="99.707031"/>
      <use xlink:href="#DejaVuSans-30" x="131.494141"/>
      <use xlink:href="#DejaVuSans-33" x="195.117188"/>
     </g>
    </g>
   </g>
   <g id="text_17">
    <g clip-path="url(#p5032dd356d)">
     <!-- -0.03 -->
     <g transform="translate(69.650198 138.650592) rotate(-270) scale(0.1 -0.1)">
      <use xlink:href="#DejaVuSans-2d"/>
      <use xlink:href="#DejaVuSans-30" x="36.083984"/>
      <use xlink:href="#DejaVuSans-2e" x="99.707031"/>
      <use xlink:href="#DejaVuSans-30" x="131.494141"/>
      <use xlink:href="#DejaVuSans-33" x="195.117188"/>
     </g>
    </g>
   </g>
   <g id="text_18">
    <g clip-path="url(#p5032dd356d)">
     <!-- -0.03 -->
     <g transform="translate(84.528172 138.650592) rotate(-270) scale(0.1 -0.1)">
      <use xlink:href="#DejaVuSans-2d"/>
      <use xlink:href="#DejaVuSans-30" x="36.083984"/>
      <use xlink:href="#DejaVuSans-2e" x="99.707031"/>
      <use xlink:href="#DejaVuSans-30" x="131.494141"/>
      <use xlink:href="#DejaVuSans-33" x="195.117188"/>
     </g>
    </g>
   </g>
   <g id="text_19">
    <g clip-path="url(#p5032dd356d)">
     <!-- -0.03 -->
     <g transform="translate(109.618621 228.119281) rotate(-270) scale(0.1 -0.1)">
      <use xlink:href="#DejaVuSans-2d"/>
      <use xlink:href="#DejaVuSans-30" x="36.083984"/>
      <use xlink:href="#DejaVuSans-2e" x="99.707031"/>
      <use xlink:href="#DejaVuSans-30" x="131.494141"/>
      <use xlink:href="#DejaVuSans-33" x="195.117188"/>
     </g>
    </g>
   </g>
   <g id="text_20">
    <g clip-path="url(#p5032dd356d)">
     <!-- -0.03 -->
     <g transform="translate(114.284121 138.650592) rotate(-270) scale(0.1 -0.1)">
      <use xlink:href="#DejaVuSans-2d"/>
      <use xlink:href="#DejaVuSans-30" x="36.083984"/>
      <use xlink:href="#DejaVuSans-2e" x="99.707031"/>
      <use xlink:href="#DejaVuSans-30" x="131.494141"/>
      <use xlink:href="#DejaVuSans-33" x="195.117188"/>
     </g>
    </g>
   </g>
   <g id="text_21">
    <g clip-path="url(#p5032dd356d)">
     <!-- -0.03 -->
     <g transform="translate(142.133061 104.239557) rotate(-270) scale(0.1 -0.1)">
      <use xlink:href="#DejaVuSans-2d"/>
      <use xlink:href="#DejaVuSans-30" x="36.083984"/>
      <use xlink:href="#DejaVuSans-2e" x="99.707031"/>
      <use xlink:href="#DejaVuSans-30" x="131.494141"/>
      <use xlink:href="#DejaVuSans-33" x="195.117188"/>
     </g>
    </g>
   </g>
  </g>
 </g>
 <defs>
  <clipPath id="p5032dd356d">
   <rect x="57.6" y="41.472" width="357.12" height="266.112"/>
  </clipPath>
 </defs>
</svg>
