<?xml version="1.0" encoding="utf-8" standalone="no"?>
<!DOCTYPE svg PUBLIC "-//W3C//DTD SVG 1.1//EN"
  "http://www.w3.org/Graphics/SVG/1.1/DTD/svg11.dtd">
<svg xmlns:xlink="http://www.w3.org/1999/xlink" width="460.8pt" height="345.6pt" viewBox="0 0 460.8 345.6" xmlns="http://www.w3.org/2000/svg" version="1.1">
 <metadata>
  <rdf:RDF xmlns:dc="http://purl.org/dc/elements/1.1/" xmlns:cc="http://creativecommons.org/ns#" xmlns:rdf="http://www.w3.org/1999/02/22-rdf-syntax-ns#">
   <cc:Work>
    <dc:type rdf:resource="http://purl.org/dc/dcmitype/StillImage"/>
    <dc:date>2024-02-15T12:26:22.381440</dc:date>
    <dc:format>image/svg+xml</dc:format>
    <dc:creator>
     <cc:Agent>
      <dc:title>Matplotlib v3.7.0, https://matplotlib.org/</dc:title>
     </cc:Agent>
    </dc:creator>
   </cc:Work>
  </rdf:RDF>
 </metadata>
 <defs>
  <style type="text/css">*{stroke-linejoin: round; stroke-linecap: butt}</style>
 </defs>
 <g id="figure_1">
  <g id="patch_1">
   <path d="M 0 345.6 
L 460.8 345.6 
L 460.8 0 
L 0 0 
L 0 345.6 
z
" style="fill: none"/>
  </g>
  <g id="axes_1"/>
  <g id="axes_2">
   <g id="patch_2">
    <path d="M 57.6 307.584 
L 414.72 307.584 
L 414.72 41.472 
L 57.6 41.472 
L 57.6 307.584 
z
" style="fill: none"/>
   </g>
   <g id="PathCollection_1">
    <path d="M 70.569435 304.896 
L 70.569435 302.208 
L 70.569435 299.52 
L 70.569435 296.832 
L 70.569435 294.144 
L 70.569435 291.456 
L 70.569435 288.768 
L 70.569435 286.08 
L 70.569435 283.392 
L 70.569435 280.704 
L 70.569435 278.016 
L 70.569435 275.328 
L 70.569435 272.64 
L 70.569435 269.952 
L 70.569435 267.264 
L 70.569435 264.576 
L 70.569435 261.888 
L 70.569435 259.2 
L 70.569435 256.512 
L 70.569435 253.824 
L 70.569435 251.136 
L 70.569435 248.448 
L 70.569435 245.76 
L 70.569435 243.072 
L 70.569435 240.384 
L 70.569435 237.696 
L 70.569435 235.008 
L 70.569435 232.32 
L 70.569435 229.632 
L 70.569435 226.944 
L 70.569435 224.256 
L 70.569435 221.568 
L 70.569435 218.88 
L 70.569435 216.192 
L 70.569435 213.504 
L 70.569435 210.816 
L 70.569435 208.128 
L 70.569435 205.44 
L 70.569435 202.752 
L 70.569435 200.064 
L 70.569435 197.376 
L 70.569435 194.688 
L 70.569435 192 
L 70.569435 189.312 
L 70.569435 186.624 
L 70.569435 183.936 
L 70.569435 181.248 
L 70.569435 178.56 
L 70.569435 175.872 
L 57.6 173.547048 
L 57.6 175.872 
L 57.6 178.56 
L 57.6 181.248 
L 57.6 183.936 
L 57.6 186.624 
L 57.6 189.312 
L 57.6 192 
L 57.6 194.688 
L 57.6 197.376 
L 57.6 200.064 
L 57.6 202.752 
L 57.6 205.44 
L 57.6 208.128 
L 57.6 210.816 
L 57.6 213.504 
L 57.6 216.192 
L 57.6 218.88 
L 57.6 221.568 
L 57.6 224.256 
L 57.6 226.944 
L 57.6 229.632 
L 57.6 232.32 
L 57.6 235.008 
L 57.6 237.696 
L 57.6 240.384 
L 57.6 243.072 
L 57.6 245.76 
L 57.6 248.448 
L 57.6 251.136 
L 57.6 253.824 
L 57.6 256.512 
L 57.6 259.2 
L 57.6 261.888 
L 57.6 264.576 
L 57.6 267.264 
L 57.6 269.952 
L 57.6 272.64 
L 57.6 275.328 
L 57.6 278.016 
L 57.6 280.704 
L 57.6 283.392 
L 57.6 286.08 
L 57.6 288.768 
L 57.6 291.456 
L 57.6 294.144 
L 57.6 296.832 
L 57.6 299.52 
L 57.6 302.208 
L 57.6 304.896 
L 57.6 307.584 
L 70.569435 307.584 
z
" clip-path="url(#p5058ad33fc)" style="fill: #481b6d; fill-opacity: 0.75"/>
   </g>
   <g id="PathCollection_2">
    <path d="M 89.591273 304.896 
L 89.591273 302.208 
L 89.591273 299.52 
L 89.591273 296.832 
L 89.591273 294.144 
L 89.591273 291.456 
L 89.591273 288.768 
L 89.591273 286.08 
L 89.591273 283.392 
L 89.591273 280.704 
L 89.591273 278.016 
L 89.591273 275.328 
L 89.591273 272.64 
L 89.591273 269.952 
L 89.591273 267.264 
L 89.591273 264.576 
L 89.591273 261.888 
L 89.591273 259.2 
L 89.591273 256.512 
L 89.591273 253.824 
L 89.591273 251.136 
L 89.591273 248.448 
L 89.591273 245.76 
L 89.591273 243.072 
L 89.591273 240.384 
L 89.591273 237.696 
L 89.591273 235.008 
L 89.591273 232.32 
L 89.591273 229.632 
L 89.591273 226.944 
L 89.591273 224.256 
L 89.591273 221.568 
L 89.591273 218.88 
L 89.591273 216.192 
L 89.591273 213.504 
L 89.591273 210.816 
L 89.591273 208.128 
L 89.591273 205.44 
L 89.591273 202.752 
L 89.591273 200.064 
L 89.591273 197.376 
L 89.591273 194.688 
L 89.591273 192 
L 89.591273 189.312 
L 89.591273 186.624 
L 89.591273 183.936 
L 89.591273 181.248 
L 89.591273 178.56 
L 89.591273 175.872 
L 74.596621 173.184 
L 57.6 171.067676 
L 57.6 173.184 
L 57.6 173.547048 
L 70.569435 175.872 
L 70.569435 178.56 
L 70.569435 181.248 
L 70.569435 183.936 
L 70.569435 186.624 
L 70.569435 189.312 
L 70.569435 192 
L 70.569435 194.688 
L 70.569435 197.376 
L 70.569435 200.064 
L 70.569435 202.752 
L 70.569435 205.44 
L 70.569435 208.128 
L 70.569435 210.816 
L 70.569435 213.504 
L 70.569435 216.192 
L 70.569435 218.88 
L 70.569435 221.568 
L 70.569435 224.256 
L 70.569435 226.944 
L 70.569435 229.632 
L 70.569435 232.32 
L 70.569435 235.008 
L 70.569435 237.696 
L 70.569435 240.384 
L 70.569435 243.072 
L 70.569435 245.76 
L 70.569435 248.448 
L 70.569435 251.136 
L 70.569435 253.824 
L 70.569435 256.512 
L 70.569435 259.2 
L 70.569435 261.888 
L 70.569435 264.576 
L 70.569435 267.264 
L 70.569435 269.952 
L 70.569435 272.64 
L 70.569435 275.328 
L 70.569435 278.016 
L 70.569435 280.704 
L 70.569435 283.392 
L 70.569435 286.08 
L 70.569435 288.768 
L 70.569435 291.456 
L 70.569435 294.144 
L 70.569435 296.832 
L 70.569435 299.52 
L 70.569435 302.208 
L 70.569435 304.896 
L 70.569435 307.584 
L 89.591273 307.584 
z
" clip-path="url(#p5058ad33fc)" style="fill: #3f4788; fill-opacity: 0.75"/>
   </g>
   <g id="PathCollection_3">
    <path d="M 108.61311 304.896 
L 108.61311 302.208 
L 108.61311 299.52 
L 108.61311 296.832 
L 108.61311 294.144 
L 108.61311 291.456 
L 108.61311 288.768 
L 108.61311 286.08 
L 108.61311 283.392 
L 108.61311 280.704 
L 108.61311 278.016 
L 108.61311 275.328 
L 108.61311 272.64 
L 108.61311 269.952 
L 108.61311 267.264 
L 108.61311 264.576 
L 108.61311 261.888 
L 108.61311 259.2 
L 108.61311 256.512 
L 108.61311 253.824 
L 108.61311 251.136 
L 108.61311 248.448 
L 108.61311 245.76 
L 108.61311 243.072 
L 108.61311 240.384 
L 108.61311 237.696 
L 108.61311 235.008 
L 108.61311 232.32 
L 108.61311 229.632 
L 108.61311 226.944 
L 108.61311 224.256 
L 108.61311 221.568 
L 108.61311 218.88 
L 108.61311 216.192 
L 108.61311 213.504 
L 108.61311 210.816 
L 108.61311 208.128 
L 108.61311 205.44 
L 108.61311 202.752 
L 108.61311 200.064 
L 108.61311 197.376 
L 108.61311 194.688 
L 108.61311 192 
L 108.61311 189.312 
L 108.61311 186.624 
L 108.61311 183.936 
L 108.61311 181.248 
L 108.61311 178.56 
L 108.61311 175.872 
L 93.618459 173.184 
L 72.030595 170.496 
L 72.030595 167.808 
L 72.030595 165.12 
L 72.030595 162.432 
L 72.030595 159.744 
L 72.030595 157.056 
L 72.030595 154.368 
L 72.030595 151.68 
L 72.030595 148.992 
L 72.030595 146.304 
L 72.030595 143.616 
L 72.030595 140.928 
L 72.030595 138.24 
L 72.030595 135.552 
L 72.030595 132.864 
L 72.030595 130.176 
L 72.030595 127.488 
L 72.030595 124.8 
L 72.030595 122.112 
L 72.030595 119.424 
L 72.030595 116.736 
L 72.030595 114.048 
L 72.030595 111.36 
L 72.030595 108.672 
L 72.030595 105.984 
L 72.030595 103.296 
L 72.030595 100.608 
L 72.030595 97.92 
L 72.030595 95.232 
L 72.030595 92.544 
L 72.030595 89.856 
L 72.030595 87.168 
L 72.030595 84.48 
L 72.030595 81.792 
L 72.030595 79.104 
L 72.030595 76.416 
L 72.030595 73.728 
L 72.030595 71.04 
L 72.030595 68.352 
L 72.030595 65.664 
L 72.030595 62.976 
L 72.030595 60.288 
L 72.030595 57.6 
L 72.030595 54.912 
L 72.030595 52.224 
L 72.030595 49.536 
L 72.030595 46.848 
L 72.030595 44.16 
L 72.030595 41.472 
L 57.6 41.472 
L 57.6 44.16 
L 57.6 46.848 
L 57.6 49.536 
L 57.6 52.224 
L 57.6 54.912 
L 57.6 57.6 
L 57.6 60.288 
L 57.6 62.976 
L 57.6 65.664 
L 57.6 68.352 
L 57.6 71.04 
L 57.6 73.728 
L 57.6 76.416 
L 57.6 79.104 
L 57.6 81.792 
L 57.6 84.48 
L 57.6 87.168 
L 57.6 89.856 
L 57.6 92.544 
L 57.6 95.232 
L 57.6 97.92 
L 57.6 100.608 
L 57.6 103.296 
L 57.6 105.984 
L 57.6 108.672 
L 57.6 111.36 
L 57.6 114.048 
L 57.6 116.736 
L 57.6 119.424 
L 57.6 122.112 
L 57.6 124.8 
L 57.6 127.488 
L 57.6 130.176 
L 57.6 132.864 
L 57.6 135.552 
L 57.6 138.24 
L 57.6 140.928 
L 57.6 143.616 
L 57.6 146.304 
L 57.6 148.992 
L 57.6 151.68 
L 57.6 154.368 
L 57.6 157.056 
L 57.6 159.744 
L 57.6 162.432 
L 57.6 165.12 
L 57.6 167.808 
L 57.6 170.496 
L 57.6 171.067676 
L 74.596621 173.184 
L 89.591273 175.872 
L 89.591273 178.56 
L 89.591273 181.248 
L 89.591273 183.936 
L 89.591273 186.624 
L 89.591273 189.312 
L 89.591273 192 
L 89.591273 194.688 
L 89.591273 197.376 
L 89.591273 200.064 
L 89.591273 202.752 
L 89.591273 205.44 
L 89.591273 208.128 
L 89.591273 210.816 
L 89.591273 213.504 
L 89.591273 216.192 
L 89.591273 218.88 
L 89.591273 221.568 
L 89.591273 224.256 
L 89.591273 226.944 
L 89.591273 229.632 
L 89.591273 232.32 
L 89.591273 235.008 
L 89.591273 237.696 
L 89.591273 240.384 
L 89.591273 243.072 
L 89.591273 245.76 
L 89.591273 248.448 
L 89.591273 251.136 
L 89.591273 253.824 
L 89.591273 256.512 
L 89.591273 259.2 
L 89.591273 261.888 
L 89.591273 264.576 
L 89.591273 267.264 
L 89.591273 269.952 
L 89.591273 272.64 
L 89.591273 275.328 
L 89.591273 278.016 
L 89.591273 280.704 
L 89.591273 283.392 
L 89.591273 286.08 
L 89.591273 288.768 
L 89.591273 291.456 
L 89.591273 294.144 
L 89.591273 296.832 
L 89.591273 299.52 
L 89.591273 302.208 
L 89.591273 304.896 
L 89.591273 307.584 
L 108.61311 307.584 
z
" clip-path="url(#p5058ad33fc)" style="fill: #2e6e8e; fill-opacity: 0.75"/>
   </g>
   <g id="PathCollection_4">
    <path d="M 127.634948 304.896 
L 127.634948 302.208 
L 127.634948 299.52 
L 127.634948 296.832 
L 127.634948 294.144 
L 127.634948 291.456 
L 127.634948 288.768 
L 127.634948 286.08 
L 127.634948 283.392 
L 127.634948 280.704 
L 127.634948 278.016 
L 127.634948 275.328 
L 127.634948 272.64 
L 127.634948 269.952 
L 127.634948 267.264 
L 127.634948 264.576 
L 127.634948 261.888 
L 127.634948 259.2 
L 127.634948 256.512 
L 127.634948 253.824 
L 127.634948 251.136 
L 127.634948 248.448 
L 127.634948 245.76 
L 127.634948 243.072 
L 127.634948 240.384 
L 127.634948 237.696 
L 127.634948 235.008 
L 127.634948 232.32 
L 127.634948 229.632 
L 127.634948 226.944 
L 127.634948 224.256 
L 127.634948 221.568 
L 127.634948 218.88 
L 127.634948 216.192 
L 127.634948 213.504 
L 127.634948 210.816 
L 127.634948 208.128 
L 127.634948 205.44 
L 127.634948 202.752 
L 127.634948 200.064 
L 127.634948 197.376 
L 127.634948 194.688 
L 127.634948 192 
L 127.634948 189.312 
L 127.634948 186.624 
L 127.634948 183.936 
L 127.634948 181.248 
L 127.634948 178.56 
L 127.634948 175.872 
L 112.640296 173.184 
L 91.052433 170.496 
L 91.052433 167.808 
L 91.052433 165.12 
L 91.052433 162.432 
L 91.052433 159.744 
L 91.052433 157.056 
L 91.052433 154.368 
L 91.052433 151.68 
L 91.052433 148.992 
L 91.052433 146.304 
L 91.052433 143.616 
L 91.052433 140.928 
L 91.052433 138.24 
L 91.052433 135.552 
L 91.052433 132.864 
L 91.052433 130.176 
L 91.052433 127.488 
L 91.052433 124.8 
L 91.052433 122.112 
L 91.052433 119.424 
L 91.052433 116.736 
L 91.052433 114.048 
L 91.052433 111.36 
L 91.052433 108.672 
L 91.052433 105.984 
L 91.052433 103.296 
L 91.052433 100.608 
L 91.052433 97.92 
L 91.052433 95.232 
L 91.052433 92.544 
L 91.052433 89.856 
L 91.052433 87.168 
L 91.052433 84.48 
L 91.052433 81.792 
L 91.052433 79.104 
L 91.052433 76.416 
L 91.052433 73.728 
L 91.052433 71.04 
L 91.052433 68.352 
L 91.052433 65.664 
L 91.052433 62.976 
L 91.052433 60.288 
L 91.052433 57.6 
L 91.052433 54.912 
L 91.052433 52.224 
L 91.052433 49.536 
L 91.052433 46.848 
L 91.052433 44.16 
L 91.052433 41.472 
L 72.030595 41.472 
L 72.030595 44.16 
L 72.030595 46.848 
L 72.030595 49.536 
L 72.030595 52.224 
L 72.030595 54.912 
L 72.030595 57.6 
L 72.030595 60.288 
L 72.030595 62.976 
L 72.030595 65.664 
L 72.030595 68.352 
L 72.030595 71.04 
L 72.030595 73.728 
L 72.030595 76.416 
L 72.030595 79.104 
L 72.030595 81.792 
L 72.030595 84.48 
L 72.030595 87.168 
L 72.030595 89.856 
L 72.030595 92.544 
L 72.030595 95.232 
L 72.030595 97.92 
L 72.030595 100.608 
L 72.030595 103.296 
L 72.030595 105.984 
L 72.030595 108.672 
L 72.030595 111.36 
L 72.030595 114.048 
L 72.030595 116.736 
L 72.030595 119.424 
L 72.030595 122.112 
L 72.030595 124.8 
L 72.030595 127.488 
L 72.030595 130.176 
L 72.030595 132.864 
L 72.030595 135.552 
L 72.030595 138.24 
L 72.030595 140.928 
L 72.030595 143.616 
L 72.030595 146.304 
L 72.030595 148.992 
L 72.030595 151.68 
L 72.030595 154.368 
L 72.030595 157.056 
L 72.030595 159.744 
L 72.030595 162.432 
L 72.030595 165.12 
L 72.030595 167.808 
L 72.030595 170.496 
L 93.618459 173.184 
L 108.61311 175.872 
L 108.61311 178.56 
L 108.61311 181.248 
L 108.61311 183.936 
L 108.61311 186.624 
L 108.61311 189.312 
L 108.61311 192 
L 108.61311 194.688 
L 108.61311 197.376 
L 108.61311 200.064 
L 108.61311 202.752 
L 108.61311 205.44 
L 108.61311 208.128 
L 108.61311 210.816 
L 108.61311 213.504 
L 108.61311 216.192 
L 108.61311 218.88 
L 108.61311 221.568 
L 108.61311 224.256 
L 108.61311 226.944 
L 108.61311 229.632 
L 108.61311 232.32 
L 108.61311 235.008 
L 108.61311 237.696 
L 108.61311 240.384 
L 108.61311 243.072 
L 108.61311 245.76 
L 108.61311 248.448 
L 108.61311 251.136 
L 108.61311 253.824 
L 108.61311 256.512 
L 108.61311 259.2 
L 108.61311 261.888 
L 108.61311 264.576 
L 108.61311 267.264 
L 108.61311 269.952 
L 108.61311 272.64 
L 108.61311 275.328 
L 108.61311 278.016 
L 108.61311 280.704 
L 108.61311 283.392 
L 108.61311 286.08 
L 108.61311 288.768 
L 108.61311 291.456 
L 108.61311 294.144 
L 108.61311 296.832 
L 108.61311 299.52 
L 108.61311 302.208 
L 108.61311 304.896 
L 108.61311 307.584 
L 127.634948 307.584 
z
" clip-path="url(#p5058ad33fc)" style="fill: #21918c; fill-opacity: 0.75"/>
   </g>
   <g id="PathCollection_5">
    <path d="M 129.024 307.584 
L 200.448 307.584 
L 271.872 307.584 
L 343.296 307.584 
L 414.72 307.584 
L 414.72 304.896 
L 414.72 302.208 
L 414.72 299.52 
L 414.72 296.832 
L 414.72 294.144 
L 414.72 291.456 
L 414.72 288.768 
L 414.72 286.08 
L 414.72 283.392 
L 414.72 280.704 
L 414.72 278.016 
L 414.72 275.328 
L 414.72 272.64 
L 414.72 269.952 
L 414.72 267.264 
L 414.72 264.576 
L 414.72 261.888 
L 414.72 259.2 
L 414.72 256.512 
L 414.72 253.824 
L 414.72 251.136 
L 414.72 248.448 
L 414.72 245.76 
L 414.72 243.072 
L 414.72 240.384 
L 414.72 237.696 
L 414.72 235.008 
L 414.72 232.32 
L 414.72 229.632 
L 414.72 226.944 
L 414.72 224.256 
L 414.72 221.568 
L 414.72 218.88 
L 414.72 216.192 
L 414.72 213.504 
L 414.72 210.816 
L 414.72 208.128 
L 414.72 205.44 
L 414.72 202.752 
L 414.72 200.064 
L 414.72 197.376 
L 414.72 194.688 
L 414.72 192 
L 414.72 189.312 
L 414.72 186.624 
L 414.72 183.936 
L 414.72 181.248 
L 414.72 178.56 
L 414.72 175.872 
L 414.72 175.048956 
L 343.296 175.048956 
L 271.872 175.048956 
L 200.448 175.048956 
L 143.472144 173.184 
L 129.024 172.855514 
L 110.074271 170.496 
L 110.074271 167.808 
L 110.074271 165.12 
L 110.074271 162.432 
L 110.074271 159.744 
L 110.074271 157.056 
L 110.074271 154.368 
L 110.074271 151.68 
L 110.074271 148.992 
L 110.074271 146.304 
L 110.074271 143.616 
L 110.074271 140.928 
L 110.074271 138.24 
L 110.074271 135.552 
L 110.074271 132.864 
L 110.074271 130.176 
L 110.074271 127.488 
L 110.074271 124.8 
L 110.074271 122.112 
L 110.074271 119.424 
L 110.074271 116.736 
L 110.074271 114.048 
L 110.074271 111.36 
L 110.074271 108.672 
L 110.074271 105.984 
L 110.074271 103.296 
L 110.074271 100.608 
L 110.074271 97.92 
L 110.074271 95.232 
L 110.074271 92.544 
L 110.074271 89.856 
L 110.074271 87.168 
L 110.074271 84.48 
L 110.074271 81.792 
L 110.074271 79.104 
L 110.074271 76.416 
L 110.074271 73.728 
L 110.074271 71.04 
L 110.074271 68.352 
L 110.074271 65.664 
L 110.074271 62.976 
L 110.074271 60.288 
L 110.074271 57.6 
L 110.074271 54.912 
L 110.074271 52.224 
L 110.074271 49.536 
L 110.074271 46.848 
L 110.074271 44.16 
L 110.074271 41.472 
L 91.052433 41.472 
L 91.052433 44.16 
L 91.052433 46.848 
L 91.052433 49.536 
L 91.052433 52.224 
L 91.052433 54.912 
L 91.052433 57.6 
L 91.052433 60.288 
L 91.052433 62.976 
L 91.052433 65.664 
L 91.052433 68.352 
L 91.052433 71.04 
L 91.052433 73.728 
L 91.052433 76.416 
L 91.052433 79.104 
L 91.052433 81.792 
L 91.052433 84.48 
L 91.052433 87.168 
L 91.052433 89.856 
L 91.052433 92.544 
L 91.052433 95.232 
L 91.052433 97.92 
L 91.052433 100.608 
L 91.052433 103.296 
L 91.052433 105.984 
L 91.052433 108.672 
L 91.052433 111.36 
L 91.052433 114.048 
L 91.052433 116.736 
L 91.052433 119.424 
L 91.052433 122.112 
L 91.052433 124.8 
L 91.052433 127.488 
L 91.052433 130.176 
L 91.052433 132.864 
L 91.052433 135.552 
L 91.052433 138.24 
L 91.052433 140.928 
L 91.052433 143.616 
L 91.052433 146.304 
L 91.052433 148.992 
L 91.052433 151.68 
L 91.052433 154.368 
L 91.052433 157.056 
L 91.052433 159.744 
L 91.052433 162.432 
L 91.052433 165.12 
L 91.052433 167.808 
L 91.052433 170.496 
L 112.640296 173.184 
L 127.634948 175.872 
L 127.634948 178.56 
L 127.634948 181.248 
L 127.634948 183.936 
L 127.634948 186.624 
L 127.634948 189.312 
L 127.634948 192 
L 127.634948 194.688 
L 127.634948 197.376 
L 127.634948 200.064 
L 127.634948 202.752 
L 127.634948 205.44 
L 127.634948 208.128 
L 127.634948 210.816 
L 127.634948 213.504 
L 127.634948 216.192 
L 127.634948 218.88 
L 127.634948 221.568 
L 127.634948 224.256 
L 127.634948 226.944 
L 127.634948 229.632 
L 127.634948 232.32 
L 127.634948 235.008 
L 127.634948 237.696 
L 127.634948 240.384 
L 127.634948 243.072 
L 127.634948 245.76 
L 127.634948 248.448 
L 127.634948 251.136 
L 127.634948 253.824 
L 127.634948 256.512 
L 127.634948 259.2 
L 127.634948 261.888 
L 127.634948 264.576 
L 127.634948 267.264 
L 127.634948 269.952 
L 127.634948 272.64 
L 127.634948 275.328 
L 127.634948 278.016 
L 127.634948 280.704 
L 127.634948 283.392 
L 127.634948 286.08 
L 127.634948 288.768 
L 127.634948 291.456 
L 127.634948 294.144 
L 127.634948 296.832 
L 127.634948 299.52 
L 127.634948 302.208 
L 127.634948 304.896 
L 127.634948 307.584 
z
" clip-path="url(#p5058ad33fc)" style="fill: #2db27d; fill-opacity: 0.75"/>
   </g>
   <g id="PathCollection_6">
    <path d="M 200.448 175.048956 
L 271.872 175.048956 
L 343.296 175.048956 
L 414.72 175.048956 
L 414.72 173.184 
L 414.72 172.110881 
L 343.296 172.110881 
L 271.872 172.110881 
L 200.448 172.110881 
L 129.418913 170.496 
L 129.418913 167.808 
L 129.418913 165.12 
L 129.418913 162.432 
L 129.418913 159.744 
L 129.418913 157.056 
L 129.418913 154.368 
L 129.418913 151.68 
L 129.418913 148.992 
L 129.418913 146.304 
L 129.418913 143.616 
L 129.418913 140.928 
L 129.418913 138.24 
L 129.418913 135.552 
L 129.418913 132.864 
L 129.418913 130.176 
L 129.418913 127.488 
L 129.418913 124.8 
L 129.418913 122.112 
L 129.418913 119.424 
L 129.418913 116.736 
L 129.418913 114.048 
L 129.418913 111.36 
L 129.418913 108.672 
L 129.418913 105.984 
L 129.418913 103.296 
L 129.418913 100.608 
L 129.418913 97.92 
L 129.418913 95.232 
L 129.418913 92.544 
L 129.418913 89.856 
L 129.418913 87.168 
L 129.418913 84.48 
L 129.418913 81.792 
L 129.418913 79.104 
L 129.418913 76.416 
L 129.418913 73.728 
L 129.418913 71.04 
L 129.418913 68.352 
L 129.418913 65.664 
L 129.418913 62.976 
L 129.418913 60.288 
L 129.418913 57.6 
L 129.418913 54.912 
L 129.418913 52.224 
L 129.418913 49.536 
L 129.418913 46.848 
L 129.418913 44.16 
L 129.418913 41.472 
L 129.024 41.472 
L 110.074271 41.472 
L 110.074271 44.16 
L 110.074271 46.848 
L 110.074271 49.536 
L 110.074271 52.224 
L 110.074271 54.912 
L 110.074271 57.6 
L 110.074271 60.288 
L 110.074271 62.976 
L 110.074271 65.664 
L 110.074271 68.352 
L 110.074271 71.04 
L 110.074271 73.728 
L 110.074271 76.416 
L 110.074271 79.104 
L 110.074271 81.792 
L 110.074271 84.48 
L 110.074271 87.168 
L 110.074271 89.856 
L 110.074271 92.544 
L 110.074271 95.232 
L 110.074271 97.92 
L 110.074271 100.608 
L 110.074271 103.296 
L 110.074271 105.984 
L 110.074271 108.672 
L 110.074271 111.36 
L 110.074271 114.048 
L 110.074271 116.736 
L 110.074271 119.424 
L 110.074271 122.112 
L 110.074271 124.8 
L 110.074271 127.488 
L 110.074271 130.176 
L 110.074271 132.864 
L 110.074271 135.552 
L 110.074271 138.24 
L 110.074271 140.928 
L 110.074271 143.616 
L 110.074271 146.304 
L 110.074271 148.992 
L 110.074271 151.68 
L 110.074271 154.368 
L 110.074271 157.056 
L 110.074271 159.744 
L 110.074271 162.432 
L 110.074271 165.12 
L 110.074271 167.808 
L 110.074271 170.496 
L 129.024 172.855514 
L 143.472144 173.184 
z
" clip-path="url(#p5058ad33fc)" style="fill: #73d056; fill-opacity: 0.75"/>
   </g>
   <g id="PathCollection_7">
    <path d="M 200.448 172.110881 
L 271.872 172.110881 
L 343.296 172.110881 
L 414.72 172.110881 
L 414.72 170.496 
L 414.72 167.808 
L 414.72 165.12 
L 414.72 162.432 
L 414.72 159.744 
L 414.72 157.056 
L 414.72 154.368 
L 414.72 151.68 
L 414.72 148.992 
L 414.72 146.304 
L 414.72 143.616 
L 414.72 140.928 
L 414.72 138.24 
L 414.72 135.552 
L 414.72 132.864 
L 414.72 130.176 
L 414.72 127.488 
L 414.72 124.8 
L 414.72 122.112 
L 414.72 119.424 
L 414.72 116.736 
L 414.72 114.048 
L 414.72 111.36 
L 414.72 108.672 
L 414.72 105.984 
L 414.72 103.296 
L 414.72 100.608 
L 414.72 97.92 
L 414.72 95.232 
L 414.72 92.544 
L 414.72 89.856 
L 414.72 87.168 
L 414.72 84.48 
L 414.72 81.792 
L 414.72 79.104 
L 414.72 76.416 
L 414.72 73.728 
L 414.72 71.04 
L 414.72 68.352 
L 414.72 65.664 
L 414.72 62.976 
L 414.72 60.288 
L 414.72 57.6 
L 414.72 54.912 
L 414.72 52.224 
L 414.72 49.536 
L 414.72 46.848 
L 414.72 44.16 
L 414.72 41.472 
L 343.296 41.472 
L 271.872 41.472 
L 200.448 41.472 
L 129.418913 41.472 
L 129.418913 44.16 
L 129.418913 46.848 
L 129.418913 49.536 
L 129.418913 52.224 
L 129.418913 54.912 
L 129.418913 57.6 
L 129.418913 60.288 
L 129.418913 62.976 
L 129.418913 65.664 
L 129.418913 68.352 
L 129.418913 71.04 
L 129.418913 73.728 
L 129.418913 76.416 
L 129.418913 79.104 
L 129.418913 81.792 
L 129.418913 84.48 
L 129.418913 87.168 
L 129.418913 89.856 
L 129.418913 92.544 
L 129.418913 95.232 
L 129.418913 97.92 
L 129.418913 100.608 
L 129.418913 103.296 
L 129.418913 105.984 
L 129.418913 108.672 
L 129.418913 111.36 
L 129.418913 114.048 
L 129.418913 116.736 
L 129.418913 119.424 
L 129.418913 122.112 
L 129.418913 124.8 
L 129.418913 127.488 
L 129.418913 130.176 
L 129.418913 132.864 
L 129.418913 135.552 
L 129.418913 138.24 
L 129.418913 140.928 
L 129.418913 143.616 
L 129.418913 146.304 
L 129.418913 148.992 
L 129.418913 151.68 
L 129.418913 154.368 
L 129.418913 157.056 
L 129.418913 159.744 
L 129.418913 162.432 
L 129.418913 165.12 
L 129.418913 167.808 
L 129.418913 170.496 
z
" clip-path="url(#p5058ad33fc)" style="fill: #d0e11c; fill-opacity: 0.75"/>
   </g>
   <g id="matplotlib.axis_1">
    <g id="xtick_1">
     <g id="line2d_1">
      <defs>
       <path id="m5128f293da" d="M 0 0 
L 0 3.5 
" style="stroke: #000000; stroke-width: 0.8"/>
      </defs>
      <g>
       <use xlink:href="#m5128f293da" x="86.710287" y="307.584" style="stroke: #000000; stroke-width: 0.8"/>
      </g>
     </g>
     <g id="text_1">
      <!-- −1.0 -->
      <g transform="translate(74.568881 322.182437) scale(0.1 -0.1)">
       <defs>
        <path id="DejaVuSans-2212" d="M 678 2272 
L 4684 2272 
L 4684 1741 
L 678 1741 
L 678 2272 
z
" transform="scale(0.015625)"/>
        <path id="DejaVuSans-31" d="M 794 531 
L 1825 531 
L 1825 4091 
L 703 3866 
L 703 4441 
L 1819 4666 
L 2450 4666 
L 2450 531 
L 3481 531 
L 3481 0 
L 794 0 
L 794 531 
z
" transform="scale(0.015625)"/>
        <path id="DejaVuSans-2e" d="M 684 794 
L 1344 794 
L 1344 0 
L 684 0 
L 684 794 
z
" transform="scale(0.015625)"/>
        <path id="DejaVuSans-30" d="M 2034 4250 
Q 1547 4250 1301 3770 
Q 1056 3291 1056 2328 
Q 1056 1369 1301 889 
Q 1547 409 2034 409 
Q 2525 409 2770 889 
Q 3016 1369 3016 2328 
Q 3016 3291 2770 3770 
Q 2525 4250 2034 4250 
z
M 2034 4750 
Q 2819 4750 3233 4129 
Q 3647 3509 3647 2328 
Q 3647 1150 3233 529 
Q 2819 -91 2034 -91 
Q 1250 -91 836 529 
Q 422 1150 422 2328 
Q 422 3509 836 4129 
Q 1250 4750 2034 4750 
z
" transform="scale(0.015625)"/>
       </defs>
       <use xlink:href="#DejaVuSans-2212"/>
       <use xlink:href="#DejaVuSans-31" x="83.789062"/>
       <use xlink:href="#DejaVuSans-2e" x="147.412109"/>
       <use xlink:href="#DejaVuSans-30" x="179.199219"/>
      </g>
     </g>
    </g>
    <g id="xtick_2">
     <g id="line2d_2">
      <g>
       <use xlink:href="#m5128f293da" x="144.500744" y="307.584" style="stroke: #000000; stroke-width: 0.8"/>
      </g>
     </g>
     <g id="text_2">
      <!-- −0.5 -->
      <g transform="translate(132.359337 322.182437) scale(0.1 -0.1)">
       <defs>
        <path id="DejaVuSans-35" d="M 691 4666 
L 3169 4666 
L 3169 4134 
L 1269 4134 
L 1269 2991 
Q 1406 3038 1543 3061 
Q 1681 3084 1819 3084 
Q 2600 3084 3056 2656 
Q 3513 2228 3513 1497 
Q 3513 744 3044 326 
Q 2575 -91 1722 -91 
Q 1428 -91 1123 -41 
Q 819 9 494 109 
L 494 744 
Q 775 591 1075 516 
Q 1375 441 1709 441 
Q 2250 441 2565 725 
Q 2881 1009 2881 1497 
Q 2881 1984 2565 2268 
Q 2250 2553 1709 2553 
Q 1456 2553 1204 2497 
Q 953 2441 691 2322 
L 691 4666 
z
" transform="scale(0.015625)"/>
       </defs>
       <use xlink:href="#DejaVuSans-2212"/>
       <use xlink:href="#DejaVuSans-30" x="83.789062"/>
       <use xlink:href="#DejaVuSans-2e" x="147.412109"/>
       <use xlink:href="#DejaVuSans-35" x="179.199219"/>
      </g>
     </g>
    </g>
    <g id="xtick_3">
     <g id="line2d_3">
      <g>
       <use xlink:href="#m5128f293da" x="202.2912" y="307.584" style="stroke: #000000; stroke-width: 0.8"/>
      </g>
     </g>
     <g id="text_3">
      <!-- 0.0 -->
      <g transform="translate(194.339638 322.182437) scale(0.1 -0.1)">
       <use xlink:href="#DejaVuSans-30"/>
       <use xlink:href="#DejaVuSans-2e" x="63.623047"/>
       <use xlink:href="#DejaVuSans-30" x="95.410156"/>
      </g>
     </g>
    </g>
    <g id="xtick_4">
     <g id="line2d_4">
      <g>
       <use xlink:href="#m5128f293da" x="260.081656" y="307.584" style="stroke: #000000; stroke-width: 0.8"/>
      </g>
     </g>
     <g id="text_4">
      <!-- 0.5 -->
      <g transform="translate(252.130094 322.182437) scale(0.1 -0.1)">
       <use xlink:href="#DejaVuSans-30"/>
       <use xlink:href="#DejaVuSans-2e" x="63.623047"/>
       <use xlink:href="#DejaVuSans-35" x="95.410156"/>
      </g>
     </g>
    </g>
    <g id="xtick_5">
     <g id="line2d_5">
      <g>
       <use xlink:href="#m5128f293da" x="317.872113" y="307.584" style="stroke: #000000; stroke-width: 0.8"/>
      </g>
     </g>
     <g id="text_5">
      <!-- 1.0 -->
      <g transform="translate(309.92055 322.182437) scale(0.1 -0.1)">
       <use xlink:href="#DejaVuSans-31"/>
       <use xlink:href="#DejaVuSans-2e" x="63.623047"/>
       <use xlink:href="#DejaVuSans-30" x="95.410156"/>
      </g>
     </g>
    </g>
    <g id="xtick_6">
     <g id="line2d_6">
      <g>
       <use xlink:href="#m5128f293da" x="375.662569" y="307.584" style="stroke: #000000; stroke-width: 0.8"/>
      </g>
     </g>
     <g id="text_6">
      <!-- 1.5 -->
      <g transform="translate(367.711006 322.182437) scale(0.1 -0.1)">
       <use xlink:href="#DejaVuSans-31"/>
       <use xlink:href="#DejaVuSans-2e" x="63.623047"/>
       <use xlink:href="#DejaVuSans-35" x="95.410156"/>
      </g>
     </g>
    </g>
    <g id="text_7">
     <!-- Parent Location -->
     <g transform="translate(197.420156 335.860562) scale(0.1 -0.1)">
      <defs>
       <path id="DejaVuSans-50" d="M 1259 4147 
L 1259 2394 
L 2053 2394 
Q 2494 2394 2734 2622 
Q 2975 2850 2975 3272 
Q 2975 3691 2734 3919 
Q 2494 4147 2053 4147 
L 1259 4147 
z
M 628 4666 
L 2053 4666 
Q 2838 4666 3239 4311 
Q 3641 3956 3641 3272 
Q 3641 2581 3239 2228 
Q 2838 1875 2053 1875 
L 1259 1875 
L 1259 0 
L 628 0 
L 628 4666 
z
" transform="scale(0.015625)"/>
       <path id="DejaVuSans-61" d="M 2194 1759 
Q 1497 1759 1228 1600 
Q 959 1441 959 1056 
Q 959 750 1161 570 
Q 1363 391 1709 391 
Q 2188 391 2477 730 
Q 2766 1069 2766 1631 
L 2766 1759 
L 2194 1759 
z
M 3341 1997 
L 3341 0 
L 2766 0 
L 2766 531 
Q 2569 213 2275 61 
Q 1981 -91 1556 -91 
Q 1019 -91 701 211 
Q 384 513 384 1019 
Q 384 1609 779 1909 
Q 1175 2209 1959 2209 
L 2766 2209 
L 2766 2266 
Q 2766 2663 2505 2880 
Q 2244 3097 1772 3097 
Q 1472 3097 1187 3025 
Q 903 2953 641 2809 
L 641 3341 
Q 956 3463 1253 3523 
Q 1550 3584 1831 3584 
Q 2591 3584 2966 3190 
Q 3341 2797 3341 1997 
z
" transform="scale(0.015625)"/>
       <path id="DejaVuSans-72" d="M 2631 2963 
Q 2534 3019 2420 3045 
Q 2306 3072 2169 3072 
Q 1681 3072 1420 2755 
Q 1159 2438 1159 1844 
L 1159 0 
L 581 0 
L 581 3500 
L 1159 3500 
L 1159 2956 
Q 1341 3275 1631 3429 
Q 1922 3584 2338 3584 
Q 2397 3584 2469 3576 
Q 2541 3569 2628 3553 
L 2631 2963 
z
" transform="scale(0.015625)"/>
       <path id="DejaVuSans-65" d="M 3597 1894 
L 3597 1613 
L 953 1613 
Q 991 1019 1311 708 
Q 1631 397 2203 397 
Q 2534 397 2845 478 
Q 3156 559 3463 722 
L 3463 178 
Q 3153 47 2828 -22 
Q 2503 -91 2169 -91 
Q 1331 -91 842 396 
Q 353 884 353 1716 
Q 353 2575 817 3079 
Q 1281 3584 2069 3584 
Q 2775 3584 3186 3129 
Q 3597 2675 3597 1894 
z
M 3022 2063 
Q 3016 2534 2758 2815 
Q 2500 3097 2075 3097 
Q 1594 3097 1305 2825 
Q 1016 2553 972 2059 
L 3022 2063 
z
" transform="scale(0.015625)"/>
       <path id="DejaVuSans-6e" d="M 3513 2113 
L 3513 0 
L 2938 0 
L 2938 2094 
Q 2938 2591 2744 2837 
Q 2550 3084 2163 3084 
Q 1697 3084 1428 2787 
Q 1159 2491 1159 1978 
L 1159 0 
L 581 0 
L 581 3500 
L 1159 3500 
L 1159 2956 
Q 1366 3272 1645 3428 
Q 1925 3584 2291 3584 
Q 2894 3584 3203 3211 
Q 3513 2838 3513 2113 
z
" transform="scale(0.015625)"/>
       <path id="DejaVuSans-74" d="M 1172 4494 
L 1172 3500 
L 2356 3500 
L 2356 3053 
L 1172 3053 
L 1172 1153 
Q 1172 725 1289 603 
Q 1406 481 1766 481 
L 2356 481 
L 2356 0 
L 1766 0 
Q 1100 0 847 248 
Q 594 497 594 1153 
L 594 3053 
L 172 3053 
L 172 3500 
L 594 3500 
L 594 4494 
L 1172 4494 
z
" transform="scale(0.015625)"/>
       <path id="DejaVuSans-20" transform="scale(0.015625)"/>
       <path id="DejaVuSans-4c" d="M 628 4666 
L 1259 4666 
L 1259 531 
L 3531 531 
L 3531 0 
L 628 0 
L 628 4666 
z
" transform="scale(0.015625)"/>
       <path id="DejaVuSans-6f" d="M 1959 3097 
Q 1497 3097 1228 2736 
Q 959 2375 959 1747 
Q 959 1119 1226 758 
Q 1494 397 1959 397 
Q 2419 397 2687 759 
Q 2956 1122 2956 1747 
Q 2956 2369 2687 2733 
Q 2419 3097 1959 3097 
z
M 1959 3584 
Q 2709 3584 3137 3096 
Q 3566 2609 3566 1747 
Q 3566 888 3137 398 
Q 2709 -91 1959 -91 
Q 1206 -91 779 398 
Q 353 888 353 1747 
Q 353 2609 779 3096 
Q 1206 3584 1959 3584 
z
" transform="scale(0.015625)"/>
       <path id="DejaVuSans-63" d="M 3122 3366 
L 3122 2828 
Q 2878 2963 2633 3030 
Q 2388 3097 2138 3097 
Q 1578 3097 1268 2742 
Q 959 2388 959 1747 
Q 959 1106 1268 751 
Q 1578 397 2138 397 
Q 2388 397 2633 464 
Q 2878 531 3122 666 
L 3122 134 
Q 2881 22 2623 -34 
Q 2366 -91 2075 -91 
Q 1284 -91 818 406 
Q 353 903 353 1747 
Q 353 2603 823 3093 
Q 1294 3584 2113 3584 
Q 2378 3584 2631 3529 
Q 2884 3475 3122 3366 
z
" transform="scale(0.015625)"/>
       <path id="DejaVuSans-69" d="M 603 3500 
L 1178 3500 
L 1178 0 
L 603 0 
L 603 3500 
z
M 603 4863 
L 1178 4863 
L 1178 4134 
L 603 4134 
L 603 4863 
z
" transform="scale(0.015625)"/>
      </defs>
      <use xlink:href="#DejaVuSans-50"/>
      <use xlink:href="#DejaVuSans-61" x="55.802734"/>
      <use xlink:href="#DejaVuSans-72" x="117.082031"/>
      <use xlink:href="#DejaVuSans-65" x="155.945312"/>
      <use xlink:href="#DejaVuSans-6e" x="217.46875"/>
      <use xlink:href="#DejaVuSans-74" x="280.847656"/>
      <use xlink:href="#DejaVuSans-20" x="320.056641"/>
      <use xlink:href="#DejaVuSans-4c" x="351.84375"/>
      <use xlink:href="#DejaVuSans-6f" x="405.806641"/>
      <use xlink:href="#DejaVuSans-63" x="466.988281"/>
      <use xlink:href="#DejaVuSans-61" x="521.96875"/>
      <use xlink:href="#DejaVuSans-74" x="583.248047"/>
      <use xlink:href="#DejaVuSans-69" x="622.457031"/>
      <use xlink:href="#DejaVuSans-6f" x="650.240234"/>
      <use xlink:href="#DejaVuSans-6e" x="711.421875"/>
     </g>
    </g>
   </g>
   <g id="matplotlib.axis_2">
    <g id="ytick_1">
     <g id="line2d_7">
      <defs>
       <path id="me7fdc622ff" d="M 0 0 
L -3.5 0 
" style="stroke: #000000; stroke-width: 0.8"/>
      </defs>
      <g>
       <use xlink:href="#me7fdc622ff" x="57.6" y="304.320345" style="stroke: #000000; stroke-width: 0.8"/>
      </g>
     </g>
     <g id="text_8">
      <!-- −1.0 -->
      <g transform="translate(26.317187 308.119564) scale(0.1 -0.1)">
       <use xlink:href="#DejaVuSans-2212"/>
       <use xlink:href="#DejaVuSans-31" x="83.789062"/>
       <use xlink:href="#DejaVuSans-2e" x="147.412109"/>
       <use xlink:href="#DejaVuSans-30" x="179.199219"/>
      </g>
     </g>
    </g>
    <g id="ytick_2">
     <g id="line2d_8">
      <g>
       <use xlink:href="#me7fdc622ff" x="57.6" y="259.184322" style="stroke: #000000; stroke-width: 0.8"/>
      </g>
     </g>
     <g id="text_9">
      <!-- −0.5 -->
      <g transform="translate(26.317187 262.983541) scale(0.1 -0.1)">
       <use xlink:href="#DejaVuSans-2212"/>
       <use xlink:href="#DejaVuSans-30" x="83.789062"/>
       <use xlink:href="#DejaVuSans-2e" x="147.412109"/>
       <use xlink:href="#DejaVuSans-35" x="179.199219"/>
      </g>
     </g>
    </g>
    <g id="ytick_3">
     <g id="line2d_9">
      <g>
       <use xlink:href="#me7fdc622ff" x="57.6" y="214.048299" style="stroke: #000000; stroke-width: 0.8"/>
      </g>
     </g>
     <g id="text_10">
      <!-- 0.0 -->
      <g transform="translate(34.696875 217.847518) scale(0.1 -0.1)">
       <use xlink:href="#DejaVuSans-30"/>
       <use xlink:href="#DejaVuSans-2e" x="63.623047"/>
       <use xlink:href="#DejaVuSans-30" x="95.410156"/>
      </g>
     </g>
    </g>
    <g id="ytick_4">
     <g id="line2d_10">
      <g>
       <use xlink:href="#me7fdc622ff" x="57.6" y="168.912276" style="stroke: #000000; stroke-width: 0.8"/>
      </g>
     </g>
     <g id="text_11">
      <!-- 0.5 -->
      <g transform="translate(34.696875 172.711494) scale(0.1 -0.1)">
       <use xlink:href="#DejaVuSans-30"/>
       <use xlink:href="#DejaVuSans-2e" x="63.623047"/>
       <use xlink:href="#DejaVuSans-35" x="95.410156"/>
      </g>
     </g>
    </g>
    <g id="ytick_5">
     <g id="line2d_11">
      <g>
       <use xlink:href="#me7fdc622ff" x="57.6" y="123.776252" style="stroke: #000000; stroke-width: 0.8"/>
      </g>
     </g>
     <g id="text_12">
      <!-- 1.0 -->
      <g transform="translate(34.696875 127.575471) scale(0.1 -0.1)">
       <use xlink:href="#DejaVuSans-31"/>
       <use xlink:href="#DejaVuSans-2e" x="63.623047"/>
       <use xlink:href="#DejaVuSans-30" x="95.410156"/>
      </g>
     </g>
    </g>
    <g id="ytick_6">
     <g id="line2d_12">
      <g>
       <use xlink:href="#me7fdc622ff" x="57.6" y="78.640229" style="stroke: #000000; stroke-width: 0.8"/>
      </g>
     </g>
     <g id="text_13">
      <!-- 1.5 -->
      <g transform="translate(34.696875 82.439448) scale(0.1 -0.1)">
       <use xlink:href="#DejaVuSans-31"/>
       <use xlink:href="#DejaVuSans-2e" x="63.623047"/>
       <use xlink:href="#DejaVuSans-35" x="95.410156"/>
      </g>
     </g>
    </g>
    <g id="text_14">
     <!-- Beef Consumption -->
     <g transform="translate(20.2375 220.575656) rotate(-90) scale(0.1 -0.1)">
      <defs>
       <path id="DejaVuSans-42" d="M 1259 2228 
L 1259 519 
L 2272 519 
Q 2781 519 3026 730 
Q 3272 941 3272 1375 
Q 3272 1813 3026 2020 
Q 2781 2228 2272 2228 
L 1259 2228 
z
M 1259 4147 
L 1259 2741 
L 2194 2741 
Q 2656 2741 2882 2914 
Q 3109 3088 3109 3444 
Q 3109 3797 2882 3972 
Q 2656 4147 2194 4147 
L 1259 4147 
z
M 628 4666 
L 2241 4666 
Q 2963 4666 3353 4366 
Q 3744 4066 3744 3513 
Q 3744 3084 3544 2831 
Q 3344 2578 2956 2516 
Q 3422 2416 3680 2098 
Q 3938 1781 3938 1306 
Q 3938 681 3513 340 
Q 3088 0 2303 0 
L 628 0 
L 628 4666 
z
" transform="scale(0.015625)"/>
       <path id="DejaVuSans-66" d="M 2375 4863 
L 2375 4384 
L 1825 4384 
Q 1516 4384 1395 4259 
Q 1275 4134 1275 3809 
L 1275 3500 
L 2222 3500 
L 2222 3053 
L 1275 3053 
L 1275 0 
L 697 0 
L 697 3053 
L 147 3053 
L 147 3500 
L 697 3500 
L 697 3744 
Q 697 4328 969 4595 
Q 1241 4863 1831 4863 
L 2375 4863 
z
" transform="scale(0.015625)"/>
       <path id="DejaVuSans-43" d="M 4122 4306 
L 4122 3641 
Q 3803 3938 3442 4084 
Q 3081 4231 2675 4231 
Q 1875 4231 1450 3742 
Q 1025 3253 1025 2328 
Q 1025 1406 1450 917 
Q 1875 428 2675 428 
Q 3081 428 3442 575 
Q 3803 722 4122 1019 
L 4122 359 
Q 3791 134 3420 21 
Q 3050 -91 2638 -91 
Q 1578 -91 968 557 
Q 359 1206 359 2328 
Q 359 3453 968 4101 
Q 1578 4750 2638 4750 
Q 3056 4750 3426 4639 
Q 3797 4528 4122 4306 
z
" transform="scale(0.015625)"/>
       <path id="DejaVuSans-73" d="M 2834 3397 
L 2834 2853 
Q 2591 2978 2328 3040 
Q 2066 3103 1784 3103 
Q 1356 3103 1142 2972 
Q 928 2841 928 2578 
Q 928 2378 1081 2264 
Q 1234 2150 1697 2047 
L 1894 2003 
Q 2506 1872 2764 1633 
Q 3022 1394 3022 966 
Q 3022 478 2636 193 
Q 2250 -91 1575 -91 
Q 1294 -91 989 -36 
Q 684 19 347 128 
L 347 722 
Q 666 556 975 473 
Q 1284 391 1588 391 
Q 1994 391 2212 530 
Q 2431 669 2431 922 
Q 2431 1156 2273 1281 
Q 2116 1406 1581 1522 
L 1381 1569 
Q 847 1681 609 1914 
Q 372 2147 372 2553 
Q 372 3047 722 3315 
Q 1072 3584 1716 3584 
Q 2034 3584 2315 3537 
Q 2597 3491 2834 3397 
z
" transform="scale(0.015625)"/>
       <path id="DejaVuSans-75" d="M 544 1381 
L 544 3500 
L 1119 3500 
L 1119 1403 
Q 1119 906 1312 657 
Q 1506 409 1894 409 
Q 2359 409 2629 706 
Q 2900 1003 2900 1516 
L 2900 3500 
L 3475 3500 
L 3475 0 
L 2900 0 
L 2900 538 
Q 2691 219 2414 64 
Q 2138 -91 1772 -91 
Q 1169 -91 856 284 
Q 544 659 544 1381 
z
M 1991 3584 
L 1991 3584 
z
" transform="scale(0.015625)"/>
       <path id="DejaVuSans-6d" d="M 3328 2828 
Q 3544 3216 3844 3400 
Q 4144 3584 4550 3584 
Q 5097 3584 5394 3201 
Q 5691 2819 5691 2113 
L 5691 0 
L 5113 0 
L 5113 2094 
Q 5113 2597 4934 2840 
Q 4756 3084 4391 3084 
Q 3944 3084 3684 2787 
Q 3425 2491 3425 1978 
L 3425 0 
L 2847 0 
L 2847 2094 
Q 2847 2600 2669 2842 
Q 2491 3084 2119 3084 
Q 1678 3084 1418 2786 
Q 1159 2488 1159 1978 
L 1159 0 
L 581 0 
L 581 3500 
L 1159 3500 
L 1159 2956 
Q 1356 3278 1631 3431 
Q 1906 3584 2284 3584 
Q 2666 3584 2933 3390 
Q 3200 3197 3328 2828 
z
" transform="scale(0.015625)"/>
       <path id="DejaVuSans-70" d="M 1159 525 
L 1159 -1331 
L 581 -1331 
L 581 3500 
L 1159 3500 
L 1159 2969 
Q 1341 3281 1617 3432 
Q 1894 3584 2278 3584 
Q 2916 3584 3314 3078 
Q 3713 2572 3713 1747 
Q 3713 922 3314 415 
Q 2916 -91 2278 -91 
Q 1894 -91 1617 61 
Q 1341 213 1159 525 
z
M 3116 1747 
Q 3116 2381 2855 2742 
Q 2594 3103 2138 3103 
Q 1681 3103 1420 2742 
Q 1159 2381 1159 1747 
Q 1159 1113 1420 752 
Q 1681 391 2138 391 
Q 2594 391 2855 752 
Q 3116 1113 3116 1747 
z
" transform="scale(0.015625)"/>
      </defs>
      <use xlink:href="#DejaVuSans-42"/>
      <use xlink:href="#DejaVuSans-65" x="68.603516"/>
      <use xlink:href="#DejaVuSans-65" x="130.126953"/>
      <use xlink:href="#DejaVuSans-66" x="191.650391"/>
      <use xlink:href="#DejaVuSans-20" x="226.855469"/>
      <use xlink:href="#DejaVuSans-43" x="258.642578"/>
      <use xlink:href="#DejaVuSans-6f" x="328.466797"/>
      <use xlink:href="#DejaVuSans-6e" x="389.648438"/>
      <use xlink:href="#DejaVuSans-73" x="453.027344"/>
      <use xlink:href="#DejaVuSans-75" x="505.126953"/>
      <use xlink:href="#DejaVuSans-6d" x="568.505859"/>
      <use xlink:href="#DejaVuSans-70" x="665.917969"/>
      <use xlink:href="#DejaVuSans-74" x="729.394531"/>
      <use xlink:href="#DejaVuSans-69" x="768.603516"/>
      <use xlink:href="#DejaVuSans-6f" x="796.386719"/>
      <use xlink:href="#DejaVuSans-6e" x="857.568359"/>
     </g>
    </g>
   </g>
   <g id="PathCollection_8"/>
   <g id="PathCollection_9">
    <path d="M 70.569435 192.387 
L 70.569435 194.688 
L 70.569435 197.376 
L 70.569435 200.064 
L 70.569435 202.752 
L 70.569435 205.44 
L 70.569435 208.128 
L 70.569435 210.816 
L 70.569435 213.504 
L 70.569435 216.192 
L 70.569435 218.88 
L 70.569435 221.568 
L 70.569435 224.256 
L 70.569435 226.944 
L 70.569435 229.632 
L 70.569435 232.32 
L 70.569435 235.008 
L 70.569435 237.696 
L 70.569435 240.384 
L 70.569435 243.072 
L 70.569435 245.76 
L 70.569435 248.448 
L 70.569435 251.136 
L 70.569435 253.824 
L 70.569435 256.512 
L 70.569435 259.2 
L 70.569435 261.888 
L 70.569435 264.576 
L 70.569435 267.264 
L 70.569435 269.952 
L 70.569435 272.64 
L 70.569435 275.328 
L 70.569435 278.016 
L 70.569435 280.704 
L 70.569435 283.392 
L 70.569435 286.08 
L 70.569435 288.768 
L 70.569435 291.456 
L 70.569435 294.144 
L 70.569435 296.832 
L 70.569435 299.52 
L 70.569435 302.208 
L 70.569435 304.896 
L 70.569435 307.584 
" clip-path="url(#p5058ad33fc)" style="fill: none; stroke-dasharray: 1.85,0.8; stroke-dashoffset: 0; stroke: #000000; stroke-width: 0.5"/>
   </g>
   <g id="PathCollection_10">
    <path d="M 57.6 171.067676 
L 74.596621 173.184 
L 89.591273 175.872 
L 89.591273 178.56 
L 89.591273 181.248 
L 89.591273 183.936 
L 89.591273 186.624 
L 89.591273 189.312 
L 89.591273 192 
L 89.591273 194.688 
L 89.591273 197.376 
L 89.591273 199.677 
" clip-path="url(#p5058ad33fc)" style="fill: none; stroke-dasharray: 1.85,0.8; stroke-dashoffset: 0; stroke: #000000; stroke-width: 0.5"/>
    <path d="M 89.591273 232.707 
L 89.591273 235.008 
L 89.591273 237.696 
L 89.591273 240.384 
L 89.591273 243.072 
L 89.591273 245.76 
L 89.591273 248.448 
L 89.591273 251.136 
L 89.591273 253.824 
L 89.591273 256.512 
L 89.591273 259.2 
L 89.591273 261.888 
L 89.591273 264.576 
L 89.591273 267.264 
L 89.591273 269.952 
L 89.591273 272.64 
L 89.591273 275.328 
L 89.591273 278.016 
L 89.591273 280.704 
L 89.591273 283.392 
L 89.591273 286.08 
L 89.591273 288.768 
L 89.591273 291.456 
L 89.591273 294.144 
L 89.591273 296.832 
L 89.591273 299.52 
L 89.591273 302.208 
L 89.591273 304.896 
L 89.591273 307.584 
" clip-path="url(#p5058ad33fc)" style="fill: none; stroke-dasharray: 1.85,0.8; stroke-dashoffset: 0; stroke: #000000; stroke-width: 0.5"/>
   </g>
   <g id="PathCollection_11">
    <path d="M 72.030595 41.472 
L 72.030595 44.16 
L 72.030595 46.848 
L 72.030595 49.536 
L 72.030595 52.224 
L 72.030595 54.912 
L 72.030595 57.6 
L 72.030595 60.288 
L 72.030595 62.976 
L 72.030595 65.664 
L 72.030595 68.352 
L 72.030595 70.653 
" clip-path="url(#p5058ad33fc)" style="fill: none; stroke-dasharray: 1.85,0.8; stroke-dashoffset: 0; stroke: #000000; stroke-width: 0.5"/>
    <path d="M 72.030595 103.683 
L 72.030595 105.984 
L 72.030595 108.672 
L 72.030595 111.36 
L 72.030595 114.048 
L 72.030595 116.736 
L 72.030595 119.424 
L 72.030595 122.112 
L 72.030595 124.8 
L 72.030595 127.488 
L 72.030595 130.176 
L 72.030595 132.864 
L 72.030595 135.552 
L 72.030595 138.24 
L 72.030595 140.928 
L 72.030595 143.616 
L 72.030595 146.304 
L 72.030595 148.992 
L 72.030595 151.68 
L 72.030595 154.368 
L 72.030595 157.056 
L 72.030595 159.744 
L 72.030595 162.432 
L 72.030595 165.12 
L 72.030595 167.808 
L 72.030595 170.496 
L 93.618459 173.184 
L 108.61311 175.872 
L 108.61311 178.56 
L 108.61311 181.248 
L 108.61311 183.936 
L 108.61311 186.624 
L 108.61311 189.312 
L 108.61311 192 
L 108.61311 194.688 
L 108.61311 197.376 
L 108.61311 200.064 
L 108.61311 202.752 
L 108.61311 205.44 
L 108.61311 208.128 
L 108.61311 210.816 
L 108.61311 213.504 
L 108.61311 216.192 
L 108.61311 218.88 
L 108.61311 221.568 
L 108.61311 224.256 
L 108.61311 226.944 
L 108.61311 229.632 
L 108.61311 232.32 
L 108.61311 235.008 
L 108.61311 237.696 
L 108.61311 240.384 
L 108.61311 243.072 
L 108.61311 245.76 
L 108.61311 248.448 
L 108.61311 251.136 
L 108.61311 253.824 
L 108.61311 256.512 
L 108.61311 259.2 
L 108.61311 261.888 
L 108.61311 264.576 
L 108.61311 267.264 
L 108.61311 269.952 
L 108.61311 272.64 
L 108.61311 275.328 
L 108.61311 278.016 
L 108.61311 280.704 
L 108.61311 283.392 
L 108.61311 286.08 
L 108.61311 288.768 
L 108.61311 291.456 
L 108.61311 294.144 
L 108.61311 296.832 
L 108.61311 299.52 
L 108.61311 302.208 
L 108.61311 304.896 
L 108.61311 307.584 
" clip-path="url(#p5058ad33fc)" style="fill: none; stroke-dasharray: 1.85,0.8; stroke-dashoffset: 0; stroke: #000000; stroke-width: 0.5"/>
   </g>
   <g id="PathCollection_12">
    <path d="M 91.052433 41.472 
L 91.052433 44.16 
L 91.052433 46.848 
L 91.052433 49.536 
L 91.052433 52.224 
L 91.052433 54.912 
L 91.052433 57.6 
L 91.052433 60.288 
L 91.052433 62.976 
L 91.052433 65.664 
L 91.052433 68.352 
L 91.052433 71.04 
L 91.052433 73.728 
L 91.052433 76.416 
L 91.052433 79.104 
L 91.052433 81.792 
L 91.052433 84.48 
L 91.052433 87.168 
L 91.052433 89.856 
L 91.052433 92.544 
L 91.052433 95.232 
L 91.052433 97.92 
L 91.052433 100.608 
L 91.052433 103.296 
L 91.052433 105.984 
L 91.052433 108.672 
L 91.052433 111.36 
L 91.052433 114.048 
L 91.052433 116.736 
L 91.052433 119.424 
L 91.052433 122.112 
L 91.052433 124.8 
L 91.052433 127.488 
L 91.052433 130.176 
L 91.052433 132.864 
L 91.052433 135.552 
L 91.052433 138.24 
L 91.052433 140.928 
L 91.052433 143.616 
L 91.052433 146.304 
L 91.052433 148.992 
L 91.052433 151.68 
L 91.052433 154.368 
L 91.052433 157.056 
L 91.052433 159.744 
L 91.052433 162.432 
L 91.052433 165.12 
L 91.052433 167.808 
L 91.052433 170.496 
L 112.640296 173.184 
L 127.634948 175.872 
L 127.634948 178.56 
L 127.634948 181.248 
L 127.634948 183.936 
L 127.634948 186.624 
L 127.634948 189.312 
L 127.634948 192 
L 127.634948 194.688 
L 127.634948 197.376 
L 127.634948 200.064 
L 127.634948 202.752 
L 127.634948 205.44 
L 127.634948 208.128 
L 127.634948 210.816 
L 127.634948 213.504 
L 127.634948 216.192 
L 127.634948 218.88 
L 127.634948 221.568 
L 127.634948 224.256 
L 127.634948 226.944 
L 127.634948 229.632 
L 127.634948 232.32 
L 127.634948 235.008 
L 127.634948 237.696 
L 127.634948 240.384 
L 127.634948 243.072 
L 127.634948 245.76 
L 127.634948 248.448 
L 127.634948 251.136 
L 127.634948 253.824 
L 127.634948 256.512 
L 127.634948 258.813 
" clip-path="url(#p5058ad33fc)" style="fill: none; stroke-dasharray: 1.85,0.8; stroke-dashoffset: 0; stroke: #000000; stroke-width: 0.5"/>
    <path d="M 127.634948 291.843 
L 127.634948 294.144 
L 127.634948 296.832 
L 127.634948 299.52 
L 127.634948 302.208 
L 127.634948 304.896 
L 127.634948 307.584 
" clip-path="url(#p5058ad33fc)" style="fill: none; stroke-dasharray: 1.85,0.8; stroke-dashoffset: 0; stroke: #000000; stroke-width: 0.5"/>
   </g>
   <g id="PathCollection_13">
    <path d="M 110.074271 41.472 
L 110.074271 44.16 
L 110.074271 46.848 
L 110.074271 49.536 
L 110.074271 52.224 
L 110.074271 54.912 
L 110.074271 57.6 
L 110.074271 60.288 
L 110.074271 62.976 
L 110.074271 65.664 
L 110.074271 68.352 
L 110.074271 70.653 
" clip-path="url(#p5058ad33fc)" style="fill: none; stroke-dasharray: 1.85,0.8; stroke-dashoffset: 0; stroke: #000000; stroke-width: 0.5"/>
    <path d="M 110.074271 103.683 
L 110.074271 105.984 
L 110.074271 108.672 
L 110.074271 111.36 
L 110.074271 114.048 
L 110.074271 116.736 
L 110.074271 119.424 
L 110.074271 122.112 
L 110.074271 124.8 
L 110.074271 127.488 
L 110.074271 130.176 
L 110.074271 132.864 
L 110.074271 135.552 
L 110.074271 138.24 
L 110.074271 140.928 
L 110.074271 143.616 
L 110.074271 146.304 
L 110.074271 148.992 
L 110.074271 151.68 
L 110.074271 154.368 
L 110.074271 157.056 
L 110.074271 159.744 
L 110.074271 162.432 
L 110.074271 165.12 
L 110.074271 167.808 
L 110.074271 170.496 
L 129.024 172.855514 
L 143.472144 173.184 
L 200.448 175.048956 
L 271.872 175.048956 
L 343.296 175.048956 
L 414.72 175.048956 
" clip-path="url(#p5058ad33fc)" style="fill: none; stroke-dasharray: 1.85,0.8; stroke-dashoffset: 0; stroke: #000000; stroke-width: 0.5"/>
   </g>
   <g id="PathCollection_14">
    <path d="M 129.418913 41.472 
L 129.418913 44.16 
L 129.418913 46.848 
L 129.418913 49.536 
L 129.418913 52.224 
L 129.418913 54.912 
L 129.418913 57.6 
L 129.418913 60.288 
L 129.418913 62.976 
L 129.418913 65.664 
L 129.418913 68.352 
L 129.418913 71.04 
L 129.418913 73.728 
L 129.418913 76.416 
L 129.418913 79.104 
L 129.418913 81.792 
L 129.418913 84.48 
L 129.418913 87.168 
L 129.418913 89.856 
L 129.418913 92.544 
L 129.418913 95.232 
L 129.418913 97.92 
L 129.418913 100.608 
L 129.418913 103.296 
L 129.418913 105.984 
L 129.418913 108.672 
L 129.418913 111.36 
L 129.418913 114.048 
L 129.418913 116.736 
L 129.418913 119.424 
L 129.418913 122.112 
L 129.418913 124.8 
L 129.418913 127.488 
L 129.418913 130.176 
L 129.418913 132.864 
L 129.418913 135.552 
L 129.418913 138.24 
L 129.418913 140.928 
L 129.418913 143.616 
L 129.418913 146.304 
L 129.418913 148.992 
L 129.418913 151.68 
L 129.418913 154.368 
L 129.418913 157.056 
L 129.418913 159.744 
L 129.418913 162.432 
L 129.418913 165.12 
L 129.418913 167.808 
L 129.418913 170.496 
L 200.448 172.110881 
L 271.872 172.110881 
L 343.296 172.110881 
L 398.205 172.110881 
" clip-path="url(#p5058ad33fc)" style="fill: none; stroke-dasharray: 1.85,0.8; stroke-dashoffset: 0; stroke: #000000; stroke-width: 0.5"/>
   </g>
   <g id="PathCollection_15"/>
   <g id="LineCollection_1">
    <path d="M 57.6 307.584 
L 57.6 294.2784 
" clip-path="url(#p5058ad33fc)" style="fill: none; stroke: #000000; stroke-width: 1.5"/>
    <path d="M 57.6 307.584 
L 57.6 294.2784 
" clip-path="url(#p5058ad33fc)" style="fill: none; stroke: #000000; stroke-width: 1.5"/>
    <path d="M 129.024 307.584 
L 129.024 294.2784 
" clip-path="url(#p5058ad33fc)" style="fill: none; stroke: #000000; stroke-width: 1.5"/>
    <path d="M 129.024 307.584 
L 129.024 294.2784 
" clip-path="url(#p5058ad33fc)" style="fill: none; stroke: #000000; stroke-width: 1.5"/>
    <path d="M 200.448 307.584 
L 200.448 294.2784 
" clip-path="url(#p5058ad33fc)" style="fill: none; stroke: #000000; stroke-width: 1.5"/>
    <path d="M 271.872 307.584 
L 271.872 294.2784 
" clip-path="url(#p5058ad33fc)" style="fill: none; stroke: #000000; stroke-width: 1.5"/>
    <path d="M 271.872 307.584 
L 271.872 294.2784 
" clip-path="url(#p5058ad33fc)" style="fill: none; stroke: #000000; stroke-width: 1.5"/>
    <path d="M 271.872 307.584 
L 271.872 294.2784 
" clip-path="url(#p5058ad33fc)" style="fill: none; stroke: #000000; stroke-width: 1.5"/>
    <path d="M 349.00992 307.584 
L 349.00992 294.2784 
" clip-path="url(#p5058ad33fc)" style="fill: none; stroke: #000000; stroke-width: 1.5"/>
   </g>
   <g id="LineCollection_2">
    <path clip-path="url(#p5058ad33fc)" style="fill: none; stroke: #000000; stroke-width: 1.5"/>
    <path clip-path="url(#p5058ad33fc)" style="fill: none; stroke: #000000; stroke-width: 1.5"/>
    <path clip-path="url(#p5058ad33fc)" style="fill: none; stroke: #000000; stroke-width: 1.5"/>
    <path clip-path="url(#p5058ad33fc)" style="fill: none; stroke: #000000; stroke-width: 1.5"/>
    <path clip-path="url(#p5058ad33fc)" style="fill: none; stroke: #000000; stroke-width: 1.5"/>
    <path d="M 202.2912 336.149235 
L 208.070246 336.149235 
" clip-path="url(#p5058ad33fc)" style="fill: none; stroke: #000000; stroke-width: 1.5"/>
    <path d="M 202.2912 203.790748 
L 208.070246 203.790748 
" clip-path="url(#p5058ad33fc)" style="fill: none; stroke: #000000; stroke-width: 1.5"/>
    <path d="M 202.2912 94.249274 
L 208.070246 94.249274 
" clip-path="url(#p5058ad33fc)" style="fill: none; stroke: #000000; stroke-width: 1.5"/>
    <path clip-path="url(#p5058ad33fc)" style="fill: none; stroke: #000000; stroke-width: 1.5"/>
   </g>
   <g id="patch_3">
    <path d="M 57.6 307.584 
L 57.6 41.472 
" style="fill: none; stroke: #000000; stroke-width: 0.8; stroke-linejoin: miter; stroke-linecap: square"/>
   </g>
   <g id="patch_4">
    <path d="M 414.72 307.584 
L 414.72 41.472 
" style="fill: none; stroke: #000000; stroke-width: 0.8; stroke-linejoin: miter; stroke-linecap: square"/>
   </g>
   <g id="patch_5">
    <path d="M 57.6 307.584 
L 414.72 307.584 
" style="fill: none; stroke: #000000; stroke-width: 0.8; stroke-linejoin: miter; stroke-linecap: square"/>
   </g>
   <g id="patch_6">
    <path d="M 57.6 41.472 
L 414.72 41.472 
" style="fill: none; stroke: #000000; stroke-width: 0.8; stroke-linejoin: miter; stroke-linecap: square"/>
   </g>
   <g id="text_15">
    <!-- 2D-partial dependency plot between PL and Beef -->
    <g transform="translate(88.535625 35.472) scale(0.12 -0.12)">
     <defs>
      <path id="DejaVuSans-32" d="M 1228 531 
L 3431 531 
L 3431 0 
L 469 0 
L 469 531 
Q 828 903 1448 1529 
Q 2069 2156 2228 2338 
Q 2531 2678 2651 2914 
Q 2772 3150 2772 3378 
Q 2772 3750 2511 3984 
Q 2250 4219 1831 4219 
Q 1534 4219 1204 4116 
Q 875 4013 500 3803 
L 500 4441 
Q 881 4594 1212 4672 
Q 1544 4750 1819 4750 
Q 2544 4750 2975 4387 
Q 3406 4025 3406 3419 
Q 3406 3131 3298 2873 
Q 3191 2616 2906 2266 
Q 2828 2175 2409 1742 
Q 1991 1309 1228 531 
z
" transform="scale(0.015625)"/>
      <path id="DejaVuSans-44" d="M 1259 4147 
L 1259 519 
L 2022 519 
Q 2988 519 3436 956 
Q 3884 1394 3884 2338 
Q 3884 3275 3436 3711 
Q 2988 4147 2022 4147 
L 1259 4147 
z
M 628 4666 
L 1925 4666 
Q 3281 4666 3915 4102 
Q 4550 3538 4550 2338 
Q 4550 1131 3912 565 
Q 3275 0 1925 0 
L 628 0 
L 628 4666 
z
" transform="scale(0.015625)"/>
      <path id="DejaVuSans-2d" d="M 313 2009 
L 1997 2009 
L 1997 1497 
L 313 1497 
L 313 2009 
z
" transform="scale(0.015625)"/>
      <path id="DejaVuSans-6c" d="M 603 4863 
L 1178 4863 
L 1178 0 
L 603 0 
L 603 4863 
z
" transform="scale(0.015625)"/>
      <path id="DejaVuSans-64" d="M 2906 2969 
L 2906 4863 
L 3481 4863 
L 3481 0 
L 2906 0 
L 2906 525 
Q 2725 213 2448 61 
Q 2172 -91 1784 -91 
Q 1150 -91 751 415 
Q 353 922 353 1747 
Q 353 2572 751 3078 
Q 1150 3584 1784 3584 
Q 2172 3584 2448 3432 
Q 2725 3281 2906 2969 
z
M 947 1747 
Q 947 1113 1208 752 
Q 1469 391 1925 391 
Q 2381 391 2643 752 
Q 2906 1113 2906 1747 
Q 2906 2381 2643 2742 
Q 2381 3103 1925 3103 
Q 1469 3103 1208 2742 
Q 947 2381 947 1747 
z
" transform="scale(0.015625)"/>
      <path id="DejaVuSans-79" d="M 2059 -325 
Q 1816 -950 1584 -1140 
Q 1353 -1331 966 -1331 
L 506 -1331 
L 506 -850 
L 844 -850 
Q 1081 -850 1212 -737 
Q 1344 -625 1503 -206 
L 1606 56 
L 191 3500 
L 800 3500 
L 1894 763 
L 2988 3500 
L 3597 3500 
L 2059 -325 
z
" transform="scale(0.015625)"/>
      <path id="DejaVuSans-62" d="M 3116 1747 
Q 3116 2381 2855 2742 
Q 2594 3103 2138 3103 
Q 1681 3103 1420 2742 
Q 1159 2381 1159 1747 
Q 1159 1113 1420 752 
Q 1681 391 2138 391 
Q 2594 391 2855 752 
Q 3116 1113 3116 1747 
z
M 1159 2969 
Q 1341 3281 1617 3432 
Q 1894 3584 2278 3584 
Q 2916 3584 3314 3078 
Q 3713 2572 3713 1747 
Q 3713 922 3314 415 
Q 2916 -91 2278 -91 
Q 1894 -91 1617 61 
Q 1341 213 1159 525 
L 1159 0 
L 581 0 
L 581 4863 
L 1159 4863 
L 1159 2969 
z
" transform="scale(0.015625)"/>
      <path id="DejaVuSans-77" d="M 269 3500 
L 844 3500 
L 1563 769 
L 2278 3500 
L 2956 3500 
L 3675 769 
L 4391 3500 
L 4966 3500 
L 4050 0 
L 3372 0 
L 2619 2869 
L 1863 0 
L 1184 0 
L 269 3500 
z
" transform="scale(0.015625)"/>
     </defs>
     <use xlink:href="#DejaVuSans-32"/>
     <use xlink:href="#DejaVuSans-44" x="63.623047"/>
     <use xlink:href="#DejaVuSans-2d" x="140.625"/>
     <use xlink:href="#DejaVuSans-70" x="176.708984"/>
     <use xlink:href="#DejaVuSans-61" x="240.185547"/>
     <use xlink:href="#DejaVuSans-72" x="301.464844"/>
     <use xlink:href="#DejaVuSans-74" x="342.578125"/>
     <use xlink:href="#DejaVuSans-69" x="381.787109"/>
     <use xlink:href="#DejaVuSans-61" x="409.570312"/>
     <use xlink:href="#DejaVuSans-6c" x="470.849609"/>
     <use xlink:href="#DejaVuSans-20" x="498.632812"/>
     <use xlink:href="#DejaVuSans-64" x="530.419922"/>
     <use xlink:href="#DejaVuSans-65" x="593.896484"/>
     <use xlink:href="#DejaVuSans-70" x="655.419922"/>
     <use xlink:href="#DejaVuSans-65" x="718.896484"/>
     <use xlink:href="#DejaVuSans-6e" x="780.419922"/>
     <use xlink:href="#DejaVuSans-64" x="843.798828"/>
     <use xlink:href="#DejaVuSans-65" x="907.275391"/>
     <use xlink:href="#DejaVuSans-6e" x="968.798828"/>
     <use xlink:href="#DejaVuSans-63" x="1032.177734"/>
     <use xlink:href="#DejaVuSans-79" x="1087.158203"/>
     <use xlink:href="#DejaVuSans-20" x="1146.337891"/>
     <use xlink:href="#DejaVuSans-70" x="1178.125"/>
     <use xlink:href="#DejaVuSans-6c" x="1241.601562"/>
     <use xlink:href="#DejaVuSans-6f" x="1269.384766"/>
     <use xlink:href="#DejaVuSans-74" x="1330.566406"/>
     <use xlink:href="#DejaVuSans-20" x="1369.775391"/>
     <use xlink:href="#DejaVuSans-62" x="1401.5625"/>
     <use xlink:href="#DejaVuSans-65" x="1465.039062"/>
     <use xlink:href="#DejaVuSans-74" x="1526.5625"/>
     <use xlink:href="#DejaVuSans-77" x="1565.771484"/>
     <use xlink:href="#DejaVuSans-65" x="1647.558594"/>
     <use xlink:href="#DejaVuSans-65" x="1709.082031"/>
     <use xlink:href="#DejaVuSans-6e" x="1770.605469"/>
     <use xlink:href="#DejaVuSans-20" x="1833.984375"/>
     <use xlink:href="#DejaVuSans-50" x="1865.771484"/>
     <use xlink:href="#DejaVuSans-4c" x="1926.074219"/>
     <use xlink:href="#DejaVuSans-20" x="1981.787109"/>
     <use xlink:href="#DejaVuSans-61" x="2013.574219"/>
     <use xlink:href="#DejaVuSans-6e" x="2074.853516"/>
     <use xlink:href="#DejaVuSans-64" x="2138.232422"/>
     <use xlink:href="#DejaVuSans-20" x="2201.708984"/>
     <use xlink:href="#DejaVuSans-42" x="2233.496094"/>
     <use xlink:href="#DejaVuSans-65" x="2302.099609"/>
     <use xlink:href="#DejaVuSans-65" x="2363.623047"/>
     <use xlink:href="#DejaVuSans-66" x="2425.146484"/>
    </g>
   </g>
   <g id="text_16">
    <g clip-path="url(#p5058ad33fc)">
     <!-- -0.03 -->
     <g transform="translate(60.151661 167.720753) rotate(-309.918441) scale(0.1 -0.1)">
      <defs>
       <path id="DejaVuSans-33" d="M 2597 2516 
Q 3050 2419 3304 2112 
Q 3559 1806 3559 1356 
Q 3559 666 3084 287 
Q 2609 -91 1734 -91 
Q 1441 -91 1130 -33 
Q 819 25 488 141 
L 488 750 
Q 750 597 1062 519 
Q 1375 441 1716 441 
Q 2309 441 2620 675 
Q 2931 909 2931 1356 
Q 2931 1769 2642 2001 
Q 2353 2234 1838 2234 
L 1294 2234 
L 1294 2753 
L 1863 2753 
Q 2328 2753 2575 2939 
Q 2822 3125 2822 3475 
Q 2822 3834 2567 4026 
Q 2313 4219 1838 4219 
Q 1578 4219 1281 4162 
Q 984 4106 628 3988 
L 628 4550 
Q 988 4650 1302 4700 
Q 1616 4750 1894 4750 
Q 2613 4750 3031 4423 
Q 3450 4097 3450 3541 
Q 3450 3153 3228 2886 
Q 3006 2619 2597 2516 
z
" transform="scale(0.015625)"/>
      </defs>
      <use xlink:href="#DejaVuSans-2d"/>
      <use xlink:href="#DejaVuSans-30" x="36.083984"/>
      <use xlink:href="#DejaVuSans-2e" x="99.707031"/>
      <use xlink:href="#DejaVuSans-30" x="131.494141"/>
      <use xlink:href="#DejaVuSans-33" x="195.117188"/>
     </g>
    </g>
   </g>
   <g id="text_17">
    <g clip-path="url(#p5058ad33fc)">
     <!-- -0.03 -->
     <g transform="translate(86.831898 203.255281) rotate(-270) scale(0.1 -0.1)">
      <use xlink:href="#DejaVuSans-2d"/>
      <use xlink:href="#DejaVuSans-30" x="36.083984"/>
      <use xlink:href="#DejaVuSans-2e" x="99.707031"/>
      <use xlink:href="#DejaVuSans-30" x="131.494141"/>
      <use xlink:href="#DejaVuSans-33" x="195.117188"/>
     </g>
    </g>
   </g>
   <g id="text_18">
    <g clip-path="url(#p5058ad33fc)">
     <!-- -0.03 -->
     <g transform="translate(69.27122 74.231281) rotate(-270) scale(0.1 -0.1)">
      <use xlink:href="#DejaVuSans-2d"/>
      <use xlink:href="#DejaVuSans-30" x="36.083984"/>
      <use xlink:href="#DejaVuSans-2e" x="99.707031"/>
      <use xlink:href="#DejaVuSans-30" x="131.494141"/>
      <use xlink:href="#DejaVuSans-33" x="195.117188"/>
     </g>
    </g>
   </g>
   <g id="text_19">
    <g clip-path="url(#p5058ad33fc)">
     <!-- -0.03 -->
     <g transform="translate(124.875573 262.391281) rotate(-270) scale(0.1 -0.1)">
      <use xlink:href="#DejaVuSans-2d"/>
      <use xlink:href="#DejaVuSans-30" x="36.083984"/>
      <use xlink:href="#DejaVuSans-2e" x="99.707031"/>
      <use xlink:href="#DejaVuSans-30" x="131.494141"/>
      <use xlink:href="#DejaVuSans-33" x="195.117188"/>
     </g>
    </g>
   </g>
   <g id="text_20">
    <g clip-path="url(#p5058ad33fc)">
     <!-- -0.03 -->
     <g transform="translate(107.314896 74.231281) rotate(-270) scale(0.1 -0.1)">
      <use xlink:href="#DejaVuSans-2d"/>
      <use xlink:href="#DejaVuSans-30" x="36.083984"/>
      <use xlink:href="#DejaVuSans-2e" x="99.707031"/>
      <use xlink:href="#DejaVuSans-30" x="131.494141"/>
      <use xlink:href="#DejaVuSans-33" x="195.117188"/>
     </g>
    </g>
   </g>
   <g id="text_21">
    <g clip-path="url(#p5058ad33fc)">
     <!-- -0.03 -->
     <g transform="translate(401.783281 174.870256) scale(0.1 -0.1)">
      <use xlink:href="#DejaVuSans-2d"/>
      <use xlink:href="#DejaVuSans-30" x="36.083984"/>
      <use xlink:href="#DejaVuSans-2e" x="99.707031"/>
      <use xlink:href="#DejaVuSans-30" x="131.494141"/>
      <use xlink:href="#DejaVuSans-33" x="195.117188"/>
     </g>
    </g>
   </g>
  </g>
 </g>
 <defs>
  <clipPath id="p5058ad33fc">
   <rect x="57.6" y="41.472" width="357.12" height="266.112"/>
  </clipPath>
 </defs>
</svg>
