<?xml version="1.0" encoding="utf-8" standalone="no"?>
<!DOCTYPE svg PUBLIC "-//W3C//DTD SVG 1.1//EN"
  "http://www.w3.org/Graphics/SVG/1.1/DTD/svg11.dtd">
<svg xmlns:xlink="http://www.w3.org/1999/xlink" width="460.8pt" height="345.6pt" viewBox="0 0 460.8 345.6" xmlns="http://www.w3.org/2000/svg" version="1.1">
 <metadata>
  <rdf:RDF xmlns:dc="http://purl.org/dc/elements/1.1/" xmlns:cc="http://creativecommons.org/ns#" xmlns:rdf="http://www.w3.org/1999/02/22-rdf-syntax-ns#">
   <cc:Work>
    <dc:type rdf:resource="http://purl.org/dc/dcmitype/StillImage"/>
    <dc:date>2024-02-15T12:26:17.995698</dc:date>
    <dc:format>image/svg+xml</dc:format>
    <dc:creator>
     <cc:Agent>
      <dc:title>Matplotlib v3.7.0, https://matplotlib.org/</dc:title>
     </cc:Agent>
    </dc:creator>
   </cc:Work>
  </rdf:RDF>
 </metadata>
 <defs>
  <style type="text/css">*{stroke-linejoin: round; stroke-linecap: butt}</style>
 </defs>
 <g id="figure_1">
  <g id="patch_1">
   <path d="M 0 345.6 
L 460.8 345.6 
L 460.8 0 
L 0 0 
L 0 345.6 
z
" style="fill: none"/>
  </g>
  <g id="axes_1"/>
  <g id="axes_2">
   <g id="patch_2">
    <path d="M 57.6 307.584 
L 414.72 307.584 
L 414.72 41.472 
L 57.6 41.472 
L 57.6 307.584 
z
" style="fill: none"/>
   </g>
   <g id="PathCollection_1">
    <path d="M 106.284135 304.896 
L 106.284135 302.208 
L 106.284135 299.52 
L 106.284135 296.832 
L 106.284135 294.144 
L 106.284135 291.456 
L 106.284135 288.768 
L 106.284135 286.08 
L 106.284135 283.392 
L 106.284135 280.704 
L 106.284135 278.016 
L 106.284135 275.328 
L 106.284135 272.64 
L 106.284135 269.952 
L 106.284135 267.264 
L 106.284135 264.576 
L 106.284135 261.888 
L 106.284135 259.2 
L 106.284135 256.512 
L 106.284135 253.824 
L 106.284135 251.136 
L 106.284135 248.448 
L 102.162183 245.76 
L 102.162183 243.072 
L 102.162183 240.384 
L 102.162183 237.696 
L 102.162183 235.008 
L 102.162183 232.32 
L 102.162183 229.632 
L 102.162183 226.944 
L 102.162183 224.256 
L 99.220012 221.568 
L 91.890203 218.88 
L 91.890203 216.192 
L 91.890203 213.504 
L 64.292648 210.816 
L 64.292648 208.128 
L 64.292648 205.44 
L 64.292648 202.752 
L 64.292648 200.064 
L 64.292648 197.376 
L 57.6 197.091062 
L 57.6 197.376 
L 57.6 200.064 
L 57.6 202.752 
L 57.6 205.44 
L 57.6 208.128 
L 57.6 210.816 
L 57.6 213.504 
L 57.6 216.192 
L 57.6 218.88 
L 57.6 221.568 
L 57.6 224.256 
L 57.6 226.944 
L 57.6 229.632 
L 57.6 232.32 
L 57.6 235.008 
L 57.6 237.696 
L 57.6 240.384 
L 57.6 243.072 
L 57.6 245.76 
L 57.6 248.448 
L 57.6 251.136 
L 57.6 253.824 
L 57.6 256.512 
L 57.6 259.2 
L 57.6 261.888 
L 57.6 264.576 
L 57.6 267.264 
L 57.6 269.952 
L 57.6 272.64 
L 57.6 275.328 
L 57.6 278.016 
L 57.6 280.704 
L 57.6 283.392 
L 57.6 286.08 
L 57.6 288.768 
L 57.6 291.456 
L 57.6 294.144 
L 57.6 296.832 
L 57.6 299.52 
L 57.6 302.208 
L 57.6 304.896 
L 57.6 307.584 
L 106.284135 307.584 
z
" clip-path="url(#p8d74e98efe)" style="fill: #481b6d; fill-opacity: 0.75"/>
   </g>
   <g id="PathCollection_2">
    <path d="M 129.024 307.584 
L 200.448 307.584 
L 271.872 307.584 
L 343.296 307.584 
L 414.72 307.584 
L 414.72 304.896 
L 414.72 302.208 
L 414.72 299.52 
L 414.72 296.832 
L 414.72 294.144 
L 414.72 291.456 
L 414.72 288.768 
L 414.72 286.08 
L 414.72 283.392 
L 414.72 280.704 
L 414.72 278.016 
L 414.72 275.328 
L 414.72 272.64 
L 414.72 269.952 
L 414.72 267.264 
L 414.72 264.576 
L 414.72 261.888 
L 414.72 259.2 
L 414.72 256.512 
L 414.72 253.824 
L 414.72 251.136 
L 414.72 248.448 
L 414.72 245.76 
L 414.72 243.072 
L 414.72 240.384 
L 414.72 237.696 
L 414.72 235.008 
L 414.72 232.32 
L 414.72 229.632 
L 414.72 226.944 
L 414.72 224.256 
L 414.72 221.568 
L 414.72 218.88 
L 414.72 216.192 
L 414.72 213.504 
L 414.72 211.436389 
L 343.296 211.436389 
L 271.872 211.436389 
L 200.448 211.436389 
L 165.564479 210.816 
L 165.564479 208.128 
L 165.564479 205.44 
L 165.564479 202.752 
L 165.564479 200.064 
L 165.564479 197.376 
L 129.024 197.091939 
L 72.56015 194.688 
L 57.6 193.292945 
L 57.6 194.688 
L 57.6 197.091062 
L 64.292648 197.376 
L 64.292648 200.064 
L 64.292648 202.752 
L 64.292648 205.44 
L 64.292648 208.128 
L 64.292648 210.816 
L 91.890203 213.504 
L 91.890203 216.192 
L 91.890203 218.88 
L 99.220012 221.568 
L 102.162183 224.256 
L 102.162183 226.944 
L 102.162183 229.632 
L 102.162183 232.32 
L 102.162183 235.008 
L 102.162183 237.696 
L 102.162183 240.384 
L 102.162183 243.072 
L 102.162183 245.76 
L 106.284135 248.448 
L 106.284135 251.136 
L 106.284135 253.824 
L 106.284135 256.512 
L 106.284135 259.2 
L 106.284135 261.888 
L 106.284135 264.576 
L 106.284135 267.264 
L 106.284135 269.952 
L 106.284135 272.64 
L 106.284135 275.328 
L 106.284135 278.016 
L 106.284135 280.704 
L 106.284135 283.392 
L 106.284135 286.08 
L 106.284135 288.768 
L 106.284135 291.456 
L 106.284135 294.144 
L 106.284135 296.832 
L 106.284135 299.52 
L 106.284135 302.208 
L 106.284135 304.896 
L 106.284135 307.584 
z
" clip-path="url(#p8d74e98efe)" style="fill: #3f4788; fill-opacity: 0.75"/>
   </g>
   <g id="PathCollection_3">
    <path d="M 200.448 211.436389 
L 271.872 211.436389 
L 343.296 211.436389 
L 414.72 211.436389 
L 414.72 210.816 
L 414.72 208.128 
L 414.72 205.44 
L 414.72 202.752 
L 414.72 200.064 
L 414.72 197.376 
L 414.72 194.688 
L 414.72 194.511008 
L 343.296 194.511008 
L 271.872 194.511008 
L 200.448 194.511008 
L 129.024 193.294866 
L 115.13825 192 
L 104.197726 189.312 
L 104.197726 186.624 
L 104.197726 183.936 
L 104.197726 181.248 
L 104.197726 178.56 
L 82.808072 175.872 
L 82.808072 173.184 
L 65.435993 170.496 
L 57.6 170.065872 
L 57.6 170.496 
L 57.6 173.184 
L 57.6 175.872 
L 57.6 178.56 
L 57.6 181.248 
L 57.6 183.936 
L 57.6 186.624 
L 57.6 189.312 
L 57.6 192 
L 57.6 193.292945 
L 72.56015 194.688 
L 129.024 197.091939 
L 165.564479 197.376 
L 165.564479 200.064 
L 165.564479 202.752 
L 165.564479 205.44 
L 165.564479 208.128 
L 165.564479 210.816 
z
" clip-path="url(#p8d74e98efe)" style="fill: #2e6e8e; fill-opacity: 0.75"/>
   </g>
   <g id="PathCollection_4">
    <path d="M 129.024 193.294866 
L 200.448 194.511008 
L 271.872 194.511008 
L 343.296 194.511008 
L 414.72 194.511008 
L 414.72 192 
L 414.72 189.312 
L 414.72 186.624 
L 414.72 183.936 
L 414.72 181.248 
L 414.72 178.56 
L 414.72 175.872 
L 414.72 173.184 
L 414.72 171.304648 
L 343.296 171.304648 
L 271.872 171.304648 
L 200.448 171.304648 
L 171.826184 170.496 
L 129.024 170.067003 
L 87.86992 167.808 
L 87.86992 165.12 
L 87.86992 162.432 
L 76.204995 159.744 
L 76.204995 157.056 
L 57.6 155.683571 
L 57.6 157.056 
L 57.6 159.744 
L 57.6 162.432 
L 57.6 165.12 
L 57.6 167.808 
L 57.6 170.065872 
L 65.435993 170.496 
L 82.808072 173.184 
L 82.808072 175.872 
L 104.197726 178.56 
L 104.197726 181.248 
L 104.197726 183.936 
L 104.197726 186.624 
L 104.197726 189.312 
L 115.13825 192 
z
" clip-path="url(#p8d74e98efe)" style="fill: #21918c; fill-opacity: 0.75"/>
   </g>
   <g id="PathCollection_5">
    <path d="M 200.448 171.304648 
L 271.872 171.304648 
L 343.296 171.304648 
L 414.72 171.304648 
L 414.72 170.496 
L 414.72 167.808 
L 414.72 165.12 
L 414.72 162.432 
L 414.72 159.744 
L 414.72 157.056 
L 414.72 156.647122 
L 343.296 156.647122 
L 271.872 156.647122 
L 200.448 156.647122 
L 129.024 155.68509 
L 111.169197 154.368 
L 62.569983 151.68 
L 62.569983 148.992 
L 62.569983 146.304 
L 57.6 145.583172 
L 57.6 146.304 
L 57.6 148.992 
L 57.6 151.68 
L 57.6 154.368 
L 57.6 155.683571 
L 76.204995 157.056 
L 76.204995 159.744 
L 87.86992 162.432 
L 87.86992 165.12 
L 87.86992 167.808 
L 129.024 170.067003 
L 171.826184 170.496 
z
" clip-path="url(#p8d74e98efe)" style="fill: #2db27d; fill-opacity: 0.75"/>
   </g>
   <g id="PathCollection_6">
    <path d="M 129.024 155.68509 
L 200.448 156.647122 
L 271.872 156.647122 
L 343.296 156.647122 
L 414.72 156.647122 
L 414.72 154.368 
L 414.72 152.127574 
L 343.296 152.127574 
L 271.872 152.127574 
L 200.448 152.127574 
L 156.130043 151.68 
L 156.130043 148.992 
L 156.130043 146.304 
L 129.024 145.58616 
L 115.44008 143.616 
L 104.115548 140.928 
L 104.115548 138.24 
L 104.115548 135.552 
L 104.115548 132.864 
L 93.381408 130.176 
L 93.381408 127.488 
L 93.381408 124.8 
L 93.381408 122.112 
L 93.381408 119.424 
L 93.381408 116.736 
L 93.381408 114.048 
L 93.381408 111.36 
L 93.381408 108.672 
L 93.381408 105.984 
L 93.381408 103.296 
L 93.381408 100.608 
L 93.381408 97.92 
L 93.381408 95.232 
L 93.381408 92.544 
L 93.381408 89.856 
L 93.381408 87.168 
L 93.381408 84.48 
L 93.381408 81.792 
L 93.381408 79.104 
L 93.381408 76.416 
L 93.381408 73.728 
L 93.381408 71.04 
L 93.381408 68.352 
L 93.381408 65.664 
L 120.329197 62.976 
L 120.329197 60.288 
L 120.329197 57.6 
L 120.329197 54.912 
L 120.329197 52.224 
L 120.329197 49.536 
L 120.329197 46.848 
L 120.329197 44.16 
L 120.329197 41.472 
L 57.6 41.472 
L 57.6 44.16 
L 57.6 46.848 
L 57.6 49.536 
L 57.6 52.224 
L 57.6 54.912 
L 57.6 57.6 
L 57.6 60.288 
L 57.6 62.976 
L 57.6 65.664 
L 57.6 68.352 
L 57.6 71.04 
L 57.6 73.728 
L 57.6 76.416 
L 57.6 79.104 
L 57.6 81.792 
L 57.6 84.48 
L 57.6 87.168 
L 57.6 89.856 
L 57.6 92.544 
L 57.6 95.232 
L 57.6 97.92 
L 57.6 100.608 
L 57.6 103.296 
L 57.6 105.984 
L 57.6 108.672 
L 57.6 111.36 
L 57.6 114.048 
L 57.6 116.736 
L 57.6 119.424 
L 57.6 122.112 
L 57.6 124.8 
L 57.6 127.488 
L 57.6 130.176 
L 57.6 132.864 
L 57.6 135.552 
L 57.6 138.24 
L 57.6 140.928 
L 57.6 143.616 
L 57.6 145.583172 
L 62.569983 146.304 
L 62.569983 148.992 
L 62.569983 151.68 
L 111.169197 154.368 
z
" clip-path="url(#p8d74e98efe)" style="fill: #73d056; fill-opacity: 0.75"/>
   </g>
   <g id="PathCollection_7">
    <path d="M 200.448 152.127574 
L 271.872 152.127574 
L 343.296 152.127574 
L 414.72 152.127574 
L 414.72 151.68 
L 414.72 148.992 
L 414.72 146.304 
L 414.72 143.616 
L 414.72 140.928 
L 414.72 138.24 
L 414.72 135.552 
L 414.72 132.864 
L 414.72 130.176 
L 414.72 127.488 
L 414.72 124.8 
L 414.72 122.112 
L 414.72 119.424 
L 414.72 116.736 
L 414.72 114.048 
L 414.72 111.36 
L 414.72 108.672 
L 414.72 105.984 
L 414.72 103.296 
L 414.72 100.608 
L 414.72 97.92 
L 414.72 95.232 
L 414.72 92.544 
L 414.72 89.856 
L 414.72 87.168 
L 414.72 84.48 
L 414.72 81.792 
L 414.72 79.104 
L 414.72 76.416 
L 414.72 73.728 
L 414.72 71.04 
L 414.72 68.352 
L 414.72 65.664 
L 414.72 62.976 
L 414.72 60.288 
L 414.72 57.6 
L 414.72 54.912 
L 414.72 52.224 
L 414.72 49.536 
L 414.72 46.848 
L 414.72 44.16 
L 414.72 41.472 
L 343.296 41.472 
L 271.872 41.472 
L 200.448 41.472 
L 129.024 41.472 
L 120.329197 41.472 
L 120.329197 44.16 
L 120.329197 46.848 
L 120.329197 49.536 
L 120.329197 52.224 
L 120.329197 54.912 
L 120.329197 57.6 
L 120.329197 60.288 
L 120.329197 62.976 
L 93.381408 65.664 
L 93.381408 68.352 
L 93.381408 71.04 
L 93.381408 73.728 
L 93.381408 76.416 
L 93.381408 79.104 
L 93.381408 81.792 
L 93.381408 84.48 
L 93.381408 87.168 
L 93.381408 89.856 
L 93.381408 92.544 
L 93.381408 95.232 
L 93.381408 97.92 
L 93.381408 100.608 
L 93.381408 103.296 
L 93.381408 105.984 
L 93.381408 108.672 
L 93.381408 111.36 
L 93.381408 114.048 
L 93.381408 116.736 
L 93.381408 119.424 
L 93.381408 122.112 
L 93.381408 124.8 
L 93.381408 127.488 
L 93.381408 130.176 
L 104.115548 132.864 
L 104.115548 135.552 
L 104.115548 138.24 
L 104.115548 140.928 
L 115.44008 143.616 
L 129.024 145.58616 
L 156.130043 146.304 
L 156.130043 148.992 
L 156.130043 151.68 
z
" clip-path="url(#p8d74e98efe)" style="fill: #d0e11c; fill-opacity: 0.75"/>
   </g>
   <g id="matplotlib.axis_1">
    <g id="xtick_1">
     <g id="line2d_1">
      <defs>
       <path id="m441ee8fb54" d="M 0 0 
L 0 3.5 
" style="stroke: #000000; stroke-width: 0.8"/>
      </defs>
      <g>
       <use xlink:href="#m441ee8fb54" x="86.710287" y="307.584" style="stroke: #000000; stroke-width: 0.8"/>
      </g>
     </g>
     <g id="text_1">
      <!-- −1.0 -->
      <g transform="translate(74.568881 322.182437) scale(0.1 -0.1)">
       <defs>
        <path id="DejaVuSans-2212" d="M 678 2272 
L 4684 2272 
L 4684 1741 
L 678 1741 
L 678 2272 
z
" transform="scale(0.015625)"/>
        <path id="DejaVuSans-31" d="M 794 531 
L 1825 531 
L 1825 4091 
L 703 3866 
L 703 4441 
L 1819 4666 
L 2450 4666 
L 2450 531 
L 3481 531 
L 3481 0 
L 794 0 
L 794 531 
z
" transform="scale(0.015625)"/>
        <path id="DejaVuSans-2e" d="M 684 794 
L 1344 794 
L 1344 0 
L 684 0 
L 684 794 
z
" transform="scale(0.015625)"/>
        <path id="DejaVuSans-30" d="M 2034 4250 
Q 1547 4250 1301 3770 
Q 1056 3291 1056 2328 
Q 1056 1369 1301 889 
Q 1547 409 2034 409 
Q 2525 409 2770 889 
Q 3016 1369 3016 2328 
Q 3016 3291 2770 3770 
Q 2525 4250 2034 4250 
z
M 2034 4750 
Q 2819 4750 3233 4129 
Q 3647 3509 3647 2328 
Q 3647 1150 3233 529 
Q 2819 -91 2034 -91 
Q 1250 -91 836 529 
Q 422 1150 422 2328 
Q 422 3509 836 4129 
Q 1250 4750 2034 4750 
z
" transform="scale(0.015625)"/>
       </defs>
       <use xlink:href="#DejaVuSans-2212"/>
       <use xlink:href="#DejaVuSans-31" x="83.789062"/>
       <use xlink:href="#DejaVuSans-2e" x="147.412109"/>
       <use xlink:href="#DejaVuSans-30" x="179.199219"/>
      </g>
     </g>
    </g>
    <g id="xtick_2">
     <g id="line2d_2">
      <g>
       <use xlink:href="#m441ee8fb54" x="144.500744" y="307.584" style="stroke: #000000; stroke-width: 0.8"/>
      </g>
     </g>
     <g id="text_2">
      <!-- −0.5 -->
      <g transform="translate(132.359337 322.182437) scale(0.1 -0.1)">
       <defs>
        <path id="DejaVuSans-35" d="M 691 4666 
L 3169 4666 
L 3169 4134 
L 1269 4134 
L 1269 2991 
Q 1406 3038 1543 3061 
Q 1681 3084 1819 3084 
Q 2600 3084 3056 2656 
Q 3513 2228 3513 1497 
Q 3513 744 3044 326 
Q 2575 -91 1722 -91 
Q 1428 -91 1123 -41 
Q 819 9 494 109 
L 494 744 
Q 775 591 1075 516 
Q 1375 441 1709 441 
Q 2250 441 2565 725 
Q 2881 1009 2881 1497 
Q 2881 1984 2565 2268 
Q 2250 2553 1709 2553 
Q 1456 2553 1204 2497 
Q 953 2441 691 2322 
L 691 4666 
z
" transform="scale(0.015625)"/>
       </defs>
       <use xlink:href="#DejaVuSans-2212"/>
       <use xlink:href="#DejaVuSans-30" x="83.789062"/>
       <use xlink:href="#DejaVuSans-2e" x="147.412109"/>
       <use xlink:href="#DejaVuSans-35" x="179.199219"/>
      </g>
     </g>
    </g>
    <g id="xtick_3">
     <g id="line2d_3">
      <g>
       <use xlink:href="#m441ee8fb54" x="202.2912" y="307.584" style="stroke: #000000; stroke-width: 0.8"/>
      </g>
     </g>
     <g id="text_3">
      <!-- 0.0 -->
      <g transform="translate(194.339638 322.182437) scale(0.1 -0.1)">
       <use xlink:href="#DejaVuSans-30"/>
       <use xlink:href="#DejaVuSans-2e" x="63.623047"/>
       <use xlink:href="#DejaVuSans-30" x="95.410156"/>
      </g>
     </g>
    </g>
    <g id="xtick_4">
     <g id="line2d_4">
      <g>
       <use xlink:href="#m441ee8fb54" x="260.081656" y="307.584" style="stroke: #000000; stroke-width: 0.8"/>
      </g>
     </g>
     <g id="text_4">
      <!-- 0.5 -->
      <g transform="translate(252.130094 322.182437) scale(0.1 -0.1)">
       <use xlink:href="#DejaVuSans-30"/>
       <use xlink:href="#DejaVuSans-2e" x="63.623047"/>
       <use xlink:href="#DejaVuSans-35" x="95.410156"/>
      </g>
     </g>
    </g>
    <g id="xtick_5">
     <g id="line2d_5">
      <g>
       <use xlink:href="#m441ee8fb54" x="317.872113" y="307.584" style="stroke: #000000; stroke-width: 0.8"/>
      </g>
     </g>
     <g id="text_5">
      <!-- 1.0 -->
      <g transform="translate(309.92055 322.182437) scale(0.1 -0.1)">
       <use xlink:href="#DejaVuSans-31"/>
       <use xlink:href="#DejaVuSans-2e" x="63.623047"/>
       <use xlink:href="#DejaVuSans-30" x="95.410156"/>
      </g>
     </g>
    </g>
    <g id="xtick_6">
     <g id="line2d_6">
      <g>
       <use xlink:href="#m441ee8fb54" x="375.662569" y="307.584" style="stroke: #000000; stroke-width: 0.8"/>
      </g>
     </g>
     <g id="text_6">
      <!-- 1.5 -->
      <g transform="translate(367.711006 322.182437) scale(0.1 -0.1)">
       <use xlink:href="#DejaVuSans-31"/>
       <use xlink:href="#DejaVuSans-2e" x="63.623047"/>
       <use xlink:href="#DejaVuSans-35" x="95.410156"/>
      </g>
     </g>
    </g>
    <g id="text_7">
     <!-- Parent Location -->
     <g transform="translate(197.420156 335.860562) scale(0.1 -0.1)">
      <defs>
       <path id="DejaVuSans-50" d="M 1259 4147 
L 1259 2394 
L 2053 2394 
Q 2494 2394 2734 2622 
Q 2975 2850 2975 3272 
Q 2975 3691 2734 3919 
Q 2494 4147 2053 4147 
L 1259 4147 
z
M 628 4666 
L 2053 4666 
Q 2838 4666 3239 4311 
Q 3641 3956 3641 3272 
Q 3641 2581 3239 2228 
Q 2838 1875 2053 1875 
L 1259 1875 
L 1259 0 
L 628 0 
L 628 4666 
z
" transform="scale(0.015625)"/>
       <path id="DejaVuSans-61" d="M 2194 1759 
Q 1497 1759 1228 1600 
Q 959 1441 959 1056 
Q 959 750 1161 570 
Q 1363 391 1709 391 
Q 2188 391 2477 730 
Q 2766 1069 2766 1631 
L 2766 1759 
L 2194 1759 
z
M 3341 1997 
L 3341 0 
L 2766 0 
L 2766 531 
Q 2569 213 2275 61 
Q 1981 -91 1556 -91 
Q 1019 -91 701 211 
Q 384 513 384 1019 
Q 384 1609 779 1909 
Q 1175 2209 1959 2209 
L 2766 2209 
L 2766 2266 
Q 2766 2663 2505 2880 
Q 2244 3097 1772 3097 
Q 1472 3097 1187 3025 
Q 903 2953 641 2809 
L 641 3341 
Q 956 3463 1253 3523 
Q 1550 3584 1831 3584 
Q 2591 3584 2966 3190 
Q 3341 2797 3341 1997 
z
" transform="scale(0.015625)"/>
       <path id="DejaVuSans-72" d="M 2631 2963 
Q 2534 3019 2420 3045 
Q 2306 3072 2169 3072 
Q 1681 3072 1420 2755 
Q 1159 2438 1159 1844 
L 1159 0 
L 581 0 
L 581 3500 
L 1159 3500 
L 1159 2956 
Q 1341 3275 1631 3429 
Q 1922 3584 2338 3584 
Q 2397 3584 2469 3576 
Q 2541 3569 2628 3553 
L 2631 2963 
z
" transform="scale(0.015625)"/>
       <path id="DejaVuSans-65" d="M 3597 1894 
L 3597 1613 
L 953 1613 
Q 991 1019 1311 708 
Q 1631 397 2203 397 
Q 2534 397 2845 478 
Q 3156 559 3463 722 
L 3463 178 
Q 3153 47 2828 -22 
Q 2503 -91 2169 -91 
Q 1331 -91 842 396 
Q 353 884 353 1716 
Q 353 2575 817 3079 
Q 1281 3584 2069 3584 
Q 2775 3584 3186 3129 
Q 3597 2675 3597 1894 
z
M 3022 2063 
Q 3016 2534 2758 2815 
Q 2500 3097 2075 3097 
Q 1594 3097 1305 2825 
Q 1016 2553 972 2059 
L 3022 2063 
z
" transform="scale(0.015625)"/>
       <path id="DejaVuSans-6e" d="M 3513 2113 
L 3513 0 
L 2938 0 
L 2938 2094 
Q 2938 2591 2744 2837 
Q 2550 3084 2163 3084 
Q 1697 3084 1428 2787 
Q 1159 2491 1159 1978 
L 1159 0 
L 581 0 
L 581 3500 
L 1159 3500 
L 1159 2956 
Q 1366 3272 1645 3428 
Q 1925 3584 2291 3584 
Q 2894 3584 3203 3211 
Q 3513 2838 3513 2113 
z
" transform="scale(0.015625)"/>
       <path id="DejaVuSans-74" d="M 1172 4494 
L 1172 3500 
L 2356 3500 
L 2356 3053 
L 1172 3053 
L 1172 1153 
Q 1172 725 1289 603 
Q 1406 481 1766 481 
L 2356 481 
L 2356 0 
L 1766 0 
Q 1100 0 847 248 
Q 594 497 594 1153 
L 594 3053 
L 172 3053 
L 172 3500 
L 594 3500 
L 594 4494 
L 1172 4494 
z
" transform="scale(0.015625)"/>
       <path id="DejaVuSans-20" transform="scale(0.015625)"/>
       <path id="DejaVuSans-4c" d="M 628 4666 
L 1259 4666 
L 1259 531 
L 3531 531 
L 3531 0 
L 628 0 
L 628 4666 
z
" transform="scale(0.015625)"/>
       <path id="DejaVuSans-6f" d="M 1959 3097 
Q 1497 3097 1228 2736 
Q 959 2375 959 1747 
Q 959 1119 1226 758 
Q 1494 397 1959 397 
Q 2419 397 2687 759 
Q 2956 1122 2956 1747 
Q 2956 2369 2687 2733 
Q 2419 3097 1959 3097 
z
M 1959 3584 
Q 2709 3584 3137 3096 
Q 3566 2609 3566 1747 
Q 3566 888 3137 398 
Q 2709 -91 1959 -91 
Q 1206 -91 779 398 
Q 353 888 353 1747 
Q 353 2609 779 3096 
Q 1206 3584 1959 3584 
z
" transform="scale(0.015625)"/>
       <path id="DejaVuSans-63" d="M 3122 3366 
L 3122 2828 
Q 2878 2963 2633 3030 
Q 2388 3097 2138 3097 
Q 1578 3097 1268 2742 
Q 959 2388 959 1747 
Q 959 1106 1268 751 
Q 1578 397 2138 397 
Q 2388 397 2633 464 
Q 2878 531 3122 666 
L 3122 134 
Q 2881 22 2623 -34 
Q 2366 -91 2075 -91 
Q 1284 -91 818 406 
Q 353 903 353 1747 
Q 353 2603 823 3093 
Q 1294 3584 2113 3584 
Q 2378 3584 2631 3529 
Q 2884 3475 3122 3366 
z
" transform="scale(0.015625)"/>
       <path id="DejaVuSans-69" d="M 603 3500 
L 1178 3500 
L 1178 0 
L 603 0 
L 603 3500 
z
M 603 4863 
L 1178 4863 
L 1178 4134 
L 603 4134 
L 603 4863 
z
" transform="scale(0.015625)"/>
      </defs>
      <use xlink:href="#DejaVuSans-50"/>
      <use xlink:href="#DejaVuSans-61" x="55.802734"/>
      <use xlink:href="#DejaVuSans-72" x="117.082031"/>
      <use xlink:href="#DejaVuSans-65" x="155.945312"/>
      <use xlink:href="#DejaVuSans-6e" x="217.46875"/>
      <use xlink:href="#DejaVuSans-74" x="280.847656"/>
      <use xlink:href="#DejaVuSans-20" x="320.056641"/>
      <use xlink:href="#DejaVuSans-4c" x="351.84375"/>
      <use xlink:href="#DejaVuSans-6f" x="405.806641"/>
      <use xlink:href="#DejaVuSans-63" x="466.988281"/>
      <use xlink:href="#DejaVuSans-61" x="521.96875"/>
      <use xlink:href="#DejaVuSans-74" x="583.248047"/>
      <use xlink:href="#DejaVuSans-69" x="622.457031"/>
      <use xlink:href="#DejaVuSans-6f" x="650.240234"/>
      <use xlink:href="#DejaVuSans-6e" x="711.421875"/>
     </g>
    </g>
   </g>
   <g id="matplotlib.axis_2">
    <g id="ytick_1">
     <g id="line2d_7">
      <defs>
       <path id="mdc833134ad" d="M 0 0 
L -3.5 0 
" style="stroke: #000000; stroke-width: 0.8"/>
      </defs>
      <g>
       <use xlink:href="#mdc833134ad" x="57.6" y="274.614683" style="stroke: #000000; stroke-width: 0.8"/>
      </g>
     </g>
     <g id="text_8">
      <!-- −1.0 -->
      <g transform="translate(26.317187 278.413902) scale(0.1 -0.1)">
       <use xlink:href="#DejaVuSans-2212"/>
       <use xlink:href="#DejaVuSans-31" x="83.789062"/>
       <use xlink:href="#DejaVuSans-2e" x="147.412109"/>
       <use xlink:href="#DejaVuSans-30" x="179.199219"/>
      </g>
     </g>
    </g>
    <g id="ytick_2">
     <g id="line2d_8">
      <g>
       <use xlink:href="#mdc833134ad" x="57.6" y="231.363586" style="stroke: #000000; stroke-width: 0.8"/>
      </g>
     </g>
     <g id="text_9">
      <!-- −0.5 -->
      <g transform="translate(26.317187 235.162805) scale(0.1 -0.1)">
       <use xlink:href="#DejaVuSans-2212"/>
       <use xlink:href="#DejaVuSans-30" x="83.789062"/>
       <use xlink:href="#DejaVuSans-2e" x="147.412109"/>
       <use xlink:href="#DejaVuSans-35" x="179.199219"/>
      </g>
     </g>
    </g>
    <g id="ytick_3">
     <g id="line2d_9">
      <g>
       <use xlink:href="#mdc833134ad" x="57.6" y="188.112489" style="stroke: #000000; stroke-width: 0.8"/>
      </g>
     </g>
     <g id="text_10">
      <!-- 0.0 -->
      <g transform="translate(34.696875 191.911707) scale(0.1 -0.1)">
       <use xlink:href="#DejaVuSans-30"/>
       <use xlink:href="#DejaVuSans-2e" x="63.623047"/>
       <use xlink:href="#DejaVuSans-30" x="95.410156"/>
      </g>
     </g>
    </g>
    <g id="ytick_4">
     <g id="line2d_10">
      <g>
       <use xlink:href="#mdc833134ad" x="57.6" y="144.861391" style="stroke: #000000; stroke-width: 0.8"/>
      </g>
     </g>
     <g id="text_11">
      <!-- 0.5 -->
      <g transform="translate(34.696875 148.66061) scale(0.1 -0.1)">
       <use xlink:href="#DejaVuSans-30"/>
       <use xlink:href="#DejaVuSans-2e" x="63.623047"/>
       <use xlink:href="#DejaVuSans-35" x="95.410156"/>
      </g>
     </g>
    </g>
    <g id="ytick_5">
     <g id="line2d_11">
      <g>
       <use xlink:href="#mdc833134ad" x="57.6" y="101.610294" style="stroke: #000000; stroke-width: 0.8"/>
      </g>
     </g>
     <g id="text_12">
      <!-- 1.0 -->
      <g transform="translate(34.696875 105.409513) scale(0.1 -0.1)">
       <use xlink:href="#DejaVuSans-31"/>
       <use xlink:href="#DejaVuSans-2e" x="63.623047"/>
       <use xlink:href="#DejaVuSans-30" x="95.410156"/>
      </g>
     </g>
    </g>
    <g id="ytick_6">
     <g id="line2d_12">
      <g>
       <use xlink:href="#mdc833134ad" x="57.6" y="58.359197" style="stroke: #000000; stroke-width: 0.8"/>
      </g>
     </g>
     <g id="text_13">
      <!-- 1.5 -->
      <g transform="translate(34.696875 62.158416) scale(0.1 -0.1)">
       <use xlink:href="#DejaVuSans-31"/>
       <use xlink:href="#DejaVuSans-2e" x="63.623047"/>
       <use xlink:href="#DejaVuSans-35" x="95.410156"/>
      </g>
     </g>
    </g>
    <g id="text_14">
     <!-- Smoking Prevalence -->
     <g transform="translate(20.2375 225.278781) rotate(-90) scale(0.1 -0.1)">
      <defs>
       <path id="DejaVuSans-53" d="M 3425 4513 
L 3425 3897 
Q 3066 4069 2747 4153 
Q 2428 4238 2131 4238 
Q 1616 4238 1336 4038 
Q 1056 3838 1056 3469 
Q 1056 3159 1242 3001 
Q 1428 2844 1947 2747 
L 2328 2669 
Q 3034 2534 3370 2195 
Q 3706 1856 3706 1288 
Q 3706 609 3251 259 
Q 2797 -91 1919 -91 
Q 1588 -91 1214 -16 
Q 841 59 441 206 
L 441 856 
Q 825 641 1194 531 
Q 1563 422 1919 422 
Q 2459 422 2753 634 
Q 3047 847 3047 1241 
Q 3047 1584 2836 1778 
Q 2625 1972 2144 2069 
L 1759 2144 
Q 1053 2284 737 2584 
Q 422 2884 422 3419 
Q 422 4038 858 4394 
Q 1294 4750 2059 4750 
Q 2388 4750 2728 4690 
Q 3069 4631 3425 4513 
z
" transform="scale(0.015625)"/>
       <path id="DejaVuSans-6d" d="M 3328 2828 
Q 3544 3216 3844 3400 
Q 4144 3584 4550 3584 
Q 5097 3584 5394 3201 
Q 5691 2819 5691 2113 
L 5691 0 
L 5113 0 
L 5113 2094 
Q 5113 2597 4934 2840 
Q 4756 3084 4391 3084 
Q 3944 3084 3684 2787 
Q 3425 2491 3425 1978 
L 3425 0 
L 2847 0 
L 2847 2094 
Q 2847 2600 2669 2842 
Q 2491 3084 2119 3084 
Q 1678 3084 1418 2786 
Q 1159 2488 1159 1978 
L 1159 0 
L 581 0 
L 581 3500 
L 1159 3500 
L 1159 2956 
Q 1356 3278 1631 3431 
Q 1906 3584 2284 3584 
Q 2666 3584 2933 3390 
Q 3200 3197 3328 2828 
z
" transform="scale(0.015625)"/>
       <path id="DejaVuSans-6b" d="M 581 4863 
L 1159 4863 
L 1159 1991 
L 2875 3500 
L 3609 3500 
L 1753 1863 
L 3688 0 
L 2938 0 
L 1159 1709 
L 1159 0 
L 581 0 
L 581 4863 
z
" transform="scale(0.015625)"/>
       <path id="DejaVuSans-67" d="M 2906 1791 
Q 2906 2416 2648 2759 
Q 2391 3103 1925 3103 
Q 1463 3103 1205 2759 
Q 947 2416 947 1791 
Q 947 1169 1205 825 
Q 1463 481 1925 481 
Q 2391 481 2648 825 
Q 2906 1169 2906 1791 
z
M 3481 434 
Q 3481 -459 3084 -895 
Q 2688 -1331 1869 -1331 
Q 1566 -1331 1297 -1286 
Q 1028 -1241 775 -1147 
L 775 -588 
Q 1028 -725 1275 -790 
Q 1522 -856 1778 -856 
Q 2344 -856 2625 -561 
Q 2906 -266 2906 331 
L 2906 616 
Q 2728 306 2450 153 
Q 2172 0 1784 0 
Q 1141 0 747 490 
Q 353 981 353 1791 
Q 353 2603 747 3093 
Q 1141 3584 1784 3584 
Q 2172 3584 2450 3431 
Q 2728 3278 2906 2969 
L 2906 3500 
L 3481 3500 
L 3481 434 
z
" transform="scale(0.015625)"/>
       <path id="DejaVuSans-76" d="M 191 3500 
L 800 3500 
L 1894 563 
L 2988 3500 
L 3597 3500 
L 2284 0 
L 1503 0 
L 191 3500 
z
" transform="scale(0.015625)"/>
       <path id="DejaVuSans-6c" d="M 603 4863 
L 1178 4863 
L 1178 0 
L 603 0 
L 603 4863 
z
" transform="scale(0.015625)"/>
      </defs>
      <use xlink:href="#DejaVuSans-53"/>
      <use xlink:href="#DejaVuSans-6d" x="63.476562"/>
      <use xlink:href="#DejaVuSans-6f" x="160.888672"/>
      <use xlink:href="#DejaVuSans-6b" x="222.070312"/>
      <use xlink:href="#DejaVuSans-69" x="279.980469"/>
      <use xlink:href="#DejaVuSans-6e" x="307.763672"/>
      <use xlink:href="#DejaVuSans-67" x="371.142578"/>
      <use xlink:href="#DejaVuSans-20" x="434.619141"/>
      <use xlink:href="#DejaVuSans-50" x="466.40625"/>
      <use xlink:href="#DejaVuSans-72" x="524.958984"/>
      <use xlink:href="#DejaVuSans-65" x="563.822266"/>
      <use xlink:href="#DejaVuSans-76" x="625.345703"/>
      <use xlink:href="#DejaVuSans-61" x="684.525391"/>
      <use xlink:href="#DejaVuSans-6c" x="745.804688"/>
      <use xlink:href="#DejaVuSans-65" x="773.587891"/>
      <use xlink:href="#DejaVuSans-6e" x="835.111328"/>
      <use xlink:href="#DejaVuSans-63" x="898.490234"/>
      <use xlink:href="#DejaVuSans-65" x="953.470703"/>
     </g>
    </g>
   </g>
   <g id="PathCollection_8"/>
   <g id="PathCollection_9">
    <path d="M 57.6 197.091062 
L 64.292648 197.376 
L 64.292648 200.064 
L 64.292648 202.752 
L 64.292648 205.44 
L 64.292648 208.128 
L 64.292648 210.816 
L 80.803666 212.424172 
" clip-path="url(#p8d74e98efe)" style="fill: none; stroke-dasharray: 1.85,0.8; stroke-dashoffset: 0; stroke: #000000; stroke-width: 0.5"/>
    <path d="M 102.162183 228.978672 
L 102.162183 229.632 
L 102.162183 232.32 
L 102.162183 235.008 
L 102.162183 237.696 
L 102.162183 240.384 
L 102.162183 243.072 
L 102.162183 245.76 
L 106.284135 248.448 
L 106.284135 251.136 
L 106.284135 253.824 
L 106.284135 256.512 
L 106.284135 259.2 
L 106.284135 261.888 
L 106.284135 264.576 
L 106.284135 267.264 
L 106.284135 269.952 
L 106.284135 272.64 
L 106.284135 275.328 
L 106.284135 278.016 
L 106.284135 280.704 
L 106.284135 283.392 
L 106.284135 286.08 
L 106.284135 288.768 
L 106.284135 291.456 
L 106.284135 294.144 
L 106.284135 296.832 
L 106.284135 299.52 
L 106.284135 302.208 
L 106.284135 304.896 
L 106.284135 307.584 
" clip-path="url(#p8d74e98efe)" style="fill: none; stroke-dasharray: 1.85,0.8; stroke-dashoffset: 0; stroke: #000000; stroke-width: 0.5"/>
   </g>
   <g id="PathCollection_10">
    <path d="M 57.6 193.292945 
L 72.56015 194.688 
L 129.024 197.091939 
L 157.113734 197.310305 
" clip-path="url(#p8d74e98efe)" style="fill: none; stroke-dasharray: 1.85,0.8; stroke-dashoffset: 0; stroke: #000000; stroke-width: 0.5"/>
    <path d="M 176.701718 211.014071 
L 200.448 211.436389 
L 271.872 211.436389 
L 343.296 211.436389 
L 414.72 211.436389 
" clip-path="url(#p8d74e98efe)" style="fill: none; stroke-dasharray: 1.85,0.8; stroke-dashoffset: 0; stroke: #000000; stroke-width: 0.5"/>
   </g>
   <g id="PathCollection_11">
    <path d="M 57.6 170.065872 
L 65.435993 170.496 
L 82.808072 173.184 
L 82.808072 175.872 
L 95.812677 177.506266 
" clip-path="url(#p8d74e98efe)" style="fill: none; stroke-dasharray: 1.85,0.8; stroke-dashoffset: 0; stroke: #000000; stroke-width: 0.5"/>
    <path d="M 117.688291 192.237795 
L 129.024 193.294866 
L 200.448 194.511008 
L 271.872 194.511008 
L 343.296 194.511008 
L 414.72 194.511008 
" clip-path="url(#p8d74e98efe)" style="fill: none; stroke-dasharray: 1.85,0.8; stroke-dashoffset: 0; stroke: #000000; stroke-width: 0.5"/>
   </g>
   <g id="PathCollection_12">
    <path d="M 57.6 155.683571 
L 76.204995 157.056 
L 76.204995 159.744 
L 87.86992 162.432 
L 87.86992 165.12 
L 87.86992 167.808 
L 112.533824 169.161835 
" clip-path="url(#p8d74e98efe)" style="fill: none; stroke-dasharray: 1.85,0.8; stroke-dashoffset: 0; stroke: #000000; stroke-width: 0.5"/>
    <path d="M 145.538171 170.232521 
L 171.826184 170.496 
L 200.448 171.304648 
L 271.872 171.304648 
L 343.296 171.304648 
L 414.72 171.304648 
" clip-path="url(#p8d74e98efe)" style="fill: none; stroke-dasharray: 1.85,0.8; stroke-dashoffset: 0; stroke: #000000; stroke-width: 0.5"/>
   </g>
   <g id="PathCollection_13">
    <path d="M 57.6 145.583172 
L 62.569983 146.304 
L 62.569983 148.992 
L 62.569983 151.68 
L 111.169197 154.368 
L 112.553751 154.470134 
" clip-path="url(#p8d74e98efe)" style="fill: none; stroke-dasharray: 1.85,0.8; stroke-dashoffset: 0; stroke: #000000; stroke-width: 0.5"/>
    <path d="M 145.537502 155.907516 
L 200.448 156.647122 
L 271.872 156.647122 
L 343.296 156.647122 
L 414.72 156.647122 
" clip-path="url(#p8d74e98efe)" style="fill: none; stroke-dasharray: 1.85,0.8; stroke-dashoffset: 0; stroke: #000000; stroke-width: 0.5"/>
   </g>
   <g id="PathCollection_14">
    <path d="M 120.329197 41.472 
L 120.329197 44.16 
L 120.329197 46.848 
L 120.329197 49.536 
L 120.329197 52.224 
L 120.329197 54.912 
L 120.329197 57.6 
L 120.329197 60.288 
L 120.329197 62.976 
L 93.381408 65.664 
L 93.381408 68.352 
L 93.381408 70.653 
" clip-path="url(#p8d74e98efe)" style="fill: none; stroke-dasharray: 1.85,0.8; stroke-dashoffset: 0; stroke: #000000; stroke-width: 0.5"/>
    <path d="M 93.381408 103.683 
L 93.381408 105.984 
L 93.381408 108.672 
L 93.381408 111.36 
L 93.381408 114.048 
L 93.381408 116.736 
L 93.381408 119.424 
L 93.381408 122.112 
L 93.381408 124.8 
L 93.381408 127.488 
L 93.381408 130.176 
L 104.115548 132.864 
L 104.115548 135.552 
L 104.115548 138.24 
L 104.115548 140.928 
L 115.44008 143.616 
L 129.024 145.58616 
L 156.130043 146.304 
L 156.130043 148.992 
L 156.130043 151.68 
L 200.448 152.127574 
L 271.872 152.127574 
L 343.296 152.127574 
L 414.72 152.127574 
" clip-path="url(#p8d74e98efe)" style="fill: none; stroke-dasharray: 1.85,0.8; stroke-dashoffset: 0; stroke: #000000; stroke-width: 0.5"/>
   </g>
   <g id="PathCollection_15"/>
   <g id="LineCollection_1">
    <path d="M 57.6 307.584 
L 57.6 294.2784 
" clip-path="url(#p8d74e98efe)" style="fill: none; stroke: #000000; stroke-width: 1.5"/>
    <path d="M 57.6 307.584 
L 57.6 294.2784 
" clip-path="url(#p8d74e98efe)" style="fill: none; stroke: #000000; stroke-width: 1.5"/>
    <path d="M 129.024 307.584 
L 129.024 294.2784 
" clip-path="url(#p8d74e98efe)" style="fill: none; stroke: #000000; stroke-width: 1.5"/>
    <path d="M 129.024 307.584 
L 129.024 294.2784 
" clip-path="url(#p8d74e98efe)" style="fill: none; stroke: #000000; stroke-width: 1.5"/>
    <path d="M 200.448 307.584 
L 200.448 294.2784 
" clip-path="url(#p8d74e98efe)" style="fill: none; stroke: #000000; stroke-width: 1.5"/>
    <path d="M 271.872 307.584 
L 271.872 294.2784 
" clip-path="url(#p8d74e98efe)" style="fill: none; stroke: #000000; stroke-width: 1.5"/>
    <path d="M 271.872 307.584 
L 271.872 294.2784 
" clip-path="url(#p8d74e98efe)" style="fill: none; stroke: #000000; stroke-width: 1.5"/>
    <path d="M 271.872 307.584 
L 271.872 294.2784 
" clip-path="url(#p8d74e98efe)" style="fill: none; stroke: #000000; stroke-width: 1.5"/>
    <path d="M 349.00992 307.584 
L 349.00992 294.2784 
" clip-path="url(#p8d74e98efe)" style="fill: none; stroke: #000000; stroke-width: 1.5"/>
   </g>
   <g id="LineCollection_2">
    <path clip-path="url(#p8d74e98efe)" style="fill: none; stroke: #000000; stroke-width: 1.5"/>
    <path clip-path="url(#p8d74e98efe)" style="fill: none; stroke: #000000; stroke-width: 1.5"/>
    <path clip-path="url(#p8d74e98efe)" style="fill: none; stroke: #000000; stroke-width: 1.5"/>
    <path clip-path="url(#p8d74e98efe)" style="fill: none; stroke: #000000; stroke-width: 1.5"/>
    <path d="M 202.2912 328.489305 
L 208.070246 328.489305 
" clip-path="url(#p8d74e98efe)" style="fill: none; stroke: #000000; stroke-width: 1.5"/>
    <path d="M 202.2912 241.490822 
L 208.070246 241.490822 
" clip-path="url(#p8d74e98efe)" style="fill: none; stroke: #000000; stroke-width: 1.5"/>
    <path d="M 202.2912 127.671259 
L 208.070246 127.671259 
" clip-path="url(#p8d74e98efe)" style="fill: none; stroke: #000000; stroke-width: 1.5"/>
    <path d="M 202.2912 52.790013 
L 208.070246 52.790013 
" clip-path="url(#p8d74e98efe)" style="fill: none; stroke: #000000; stroke-width: 1.5"/>
    <path clip-path="url(#p8d74e98efe)" style="fill: none; stroke: #000000; stroke-width: 1.5"/>
   </g>
   <g id="patch_3">
    <path d="M 57.6 307.584 
L 57.6 41.472 
" style="fill: none; stroke: #000000; stroke-width: 0.8; stroke-linejoin: miter; stroke-linecap: square"/>
   </g>
   <g id="patch_4">
    <path d="M 414.72 307.584 
L 414.72 41.472 
" style="fill: none; stroke: #000000; stroke-width: 0.8; stroke-linejoin: miter; stroke-linecap: square"/>
   </g>
   <g id="patch_5">
    <path d="M 57.6 307.584 
L 414.72 307.584 
" style="fill: none; stroke: #000000; stroke-width: 0.8; stroke-linejoin: miter; stroke-linecap: square"/>
   </g>
   <g id="patch_6">
    <path d="M 57.6 41.472 
L 414.72 41.472 
" style="fill: none; stroke: #000000; stroke-width: 0.8; stroke-linejoin: miter; stroke-linecap: square"/>
   </g>
   <g id="text_15">
    <!-- 2D-partial dependency plot between PL and Smoking -->
    <g transform="translate(76.070625 35.472) scale(0.12 -0.12)">
     <defs>
      <path id="DejaVuSans-32" d="M 1228 531 
L 3431 531 
L 3431 0 
L 469 0 
L 469 531 
Q 828 903 1448 1529 
Q 2069 2156 2228 2338 
Q 2531 2678 2651 2914 
Q 2772 3150 2772 3378 
Q 2772 3750 2511 3984 
Q 2250 4219 1831 4219 
Q 1534 4219 1204 4116 
Q 875 4013 500 3803 
L 500 4441 
Q 881 4594 1212 4672 
Q 1544 4750 1819 4750 
Q 2544 4750 2975 4387 
Q 3406 4025 3406 3419 
Q 3406 3131 3298 2873 
Q 3191 2616 2906 2266 
Q 2828 2175 2409 1742 
Q 1991 1309 1228 531 
z
" transform="scale(0.015625)"/>
      <path id="DejaVuSans-44" d="M 1259 4147 
L 1259 519 
L 2022 519 
Q 2988 519 3436 956 
Q 3884 1394 3884 2338 
Q 3884 3275 3436 3711 
Q 2988 4147 2022 4147 
L 1259 4147 
z
M 628 4666 
L 1925 4666 
Q 3281 4666 3915 4102 
Q 4550 3538 4550 2338 
Q 4550 1131 3912 565 
Q 3275 0 1925 0 
L 628 0 
L 628 4666 
z
" transform="scale(0.015625)"/>
      <path id="DejaVuSans-2d" d="M 313 2009 
L 1997 2009 
L 1997 1497 
L 313 1497 
L 313 2009 
z
" transform="scale(0.015625)"/>
      <path id="DejaVuSans-70" d="M 1159 525 
L 1159 -1331 
L 581 -1331 
L 581 3500 
L 1159 3500 
L 1159 2969 
Q 1341 3281 1617 3432 
Q 1894 3584 2278 3584 
Q 2916 3584 3314 3078 
Q 3713 2572 3713 1747 
Q 3713 922 3314 415 
Q 2916 -91 2278 -91 
Q 1894 -91 1617 61 
Q 1341 213 1159 525 
z
M 3116 1747 
Q 3116 2381 2855 2742 
Q 2594 3103 2138 3103 
Q 1681 3103 1420 2742 
Q 1159 2381 1159 1747 
Q 1159 1113 1420 752 
Q 1681 391 2138 391 
Q 2594 391 2855 752 
Q 3116 1113 3116 1747 
z
" transform="scale(0.015625)"/>
      <path id="DejaVuSans-64" d="M 2906 2969 
L 2906 4863 
L 3481 4863 
L 3481 0 
L 2906 0 
L 2906 525 
Q 2725 213 2448 61 
Q 2172 -91 1784 -91 
Q 1150 -91 751 415 
Q 353 922 353 1747 
Q 353 2572 751 3078 
Q 1150 3584 1784 3584 
Q 2172 3584 2448 3432 
Q 2725 3281 2906 2969 
z
M 947 1747 
Q 947 1113 1208 752 
Q 1469 391 1925 391 
Q 2381 391 2643 752 
Q 2906 1113 2906 1747 
Q 2906 2381 2643 2742 
Q 2381 3103 1925 3103 
Q 1469 3103 1208 2742 
Q 947 2381 947 1747 
z
" transform="scale(0.015625)"/>
      <path id="DejaVuSans-79" d="M 2059 -325 
Q 1816 -950 1584 -1140 
Q 1353 -1331 966 -1331 
L 506 -1331 
L 506 -850 
L 844 -850 
Q 1081 -850 1212 -737 
Q 1344 -625 1503 -206 
L 1606 56 
L 191 3500 
L 800 3500 
L 1894 763 
L 2988 3500 
L 3597 3500 
L 2059 -325 
z
" transform="scale(0.015625)"/>
      <path id="DejaVuSans-62" d="M 3116 1747 
Q 3116 2381 2855 2742 
Q 2594 3103 2138 3103 
Q 1681 3103 1420 2742 
Q 1159 2381 1159 1747 
Q 1159 1113 1420 752 
Q 1681 391 2138 391 
Q 2594 391 2855 752 
Q 3116 1113 3116 1747 
z
M 1159 2969 
Q 1341 3281 1617 3432 
Q 1894 3584 2278 3584 
Q 2916 3584 3314 3078 
Q 3713 2572 3713 1747 
Q 3713 922 3314 415 
Q 2916 -91 2278 -91 
Q 1894 -91 1617 61 
Q 1341 213 1159 525 
L 1159 0 
L 581 0 
L 581 4863 
L 1159 4863 
L 1159 2969 
z
" transform="scale(0.015625)"/>
      <path id="DejaVuSans-77" d="M 269 3500 
L 844 3500 
L 1563 769 
L 2278 3500 
L 2956 3500 
L 3675 769 
L 4391 3500 
L 4966 3500 
L 4050 0 
L 3372 0 
L 2619 2869 
L 1863 0 
L 1184 0 
L 269 3500 
z
" transform="scale(0.015625)"/>
     </defs>
     <use xlink:href="#DejaVuSans-32"/>
     <use xlink:href="#DejaVuSans-44" x="63.623047"/>
     <use xlink:href="#DejaVuSans-2d" x="140.625"/>
     <use xlink:href="#DejaVuSans-70" x="176.708984"/>
     <use xlink:href="#DejaVuSans-61" x="240.185547"/>
     <use xlink:href="#DejaVuSans-72" x="301.464844"/>
     <use xlink:href="#DejaVuSans-74" x="342.578125"/>
     <use xlink:href="#DejaVuSans-69" x="381.787109"/>
     <use xlink:href="#DejaVuSans-61" x="409.570312"/>
     <use xlink:href="#DejaVuSans-6c" x="470.849609"/>
     <use xlink:href="#DejaVuSans-20" x="498.632812"/>
     <use xlink:href="#DejaVuSans-64" x="530.419922"/>
     <use xlink:href="#DejaVuSans-65" x="593.896484"/>
     <use xlink:href="#DejaVuSans-70" x="655.419922"/>
     <use xlink:href="#DejaVuSans-65" x="718.896484"/>
     <use xlink:href="#DejaVuSans-6e" x="780.419922"/>
     <use xlink:href="#DejaVuSans-64" x="843.798828"/>
     <use xlink:href="#DejaVuSans-65" x="907.275391"/>
     <use xlink:href="#DejaVuSans-6e" x="968.798828"/>
     <use xlink:href="#DejaVuSans-63" x="1032.177734"/>
     <use xlink:href="#DejaVuSans-79" x="1087.158203"/>
     <use xlink:href="#DejaVuSans-20" x="1146.337891"/>
     <use xlink:href="#DejaVuSans-70" x="1178.125"/>
     <use xlink:href="#DejaVuSans-6c" x="1241.601562"/>
     <use xlink:href="#DejaVuSans-6f" x="1269.384766"/>
     <use xlink:href="#DejaVuSans-74" x="1330.566406"/>
     <use xlink:href="#DejaVuSans-20" x="1369.775391"/>
     <use xlink:href="#DejaVuSans-62" x="1401.5625"/>
     <use xlink:href="#DejaVuSans-65" x="1465.039062"/>
     <use xlink:href="#DejaVuSans-74" x="1526.5625"/>
     <use xlink:href="#DejaVuSans-77" x="1565.771484"/>
     <use xlink:href="#DejaVuSans-65" x="1647.558594"/>
     <use xlink:href="#DejaVuSans-65" x="1709.082031"/>
     <use xlink:href="#DejaVuSans-6e" x="1770.605469"/>
     <use xlink:href="#DejaVuSans-20" x="1833.984375"/>
     <use xlink:href="#DejaVuSans-50" x="1865.771484"/>
     <use xlink:href="#DejaVuSans-4c" x="1926.074219"/>
     <use xlink:href="#DejaVuSans-20" x="1981.787109"/>
     <use xlink:href="#DejaVuSans-61" x="2013.574219"/>
     <use xlink:href="#DejaVuSans-6e" x="2074.853516"/>
     <use xlink:href="#DejaVuSans-64" x="2138.232422"/>
     <use xlink:href="#DejaVuSans-20" x="2201.708984"/>
     <use xlink:href="#DejaVuSans-53" x="2233.496094"/>
     <use xlink:href="#DejaVuSans-6d" x="2296.972656"/>
     <use xlink:href="#DejaVuSans-6f" x="2394.384766"/>
     <use xlink:href="#DejaVuSans-6b" x="2455.566406"/>
     <use xlink:href="#DejaVuSans-69" x="2513.476562"/>
     <use xlink:href="#DejaVuSans-6e" x="2541.259766"/>
     <use xlink:href="#DejaVuSans-67" x="2604.638672"/>
    </g>
   </g>
   <g id="text_16">
    <g clip-path="url(#p8d74e98efe)">
     <!-- -0.04 -->
     <g transform="translate(79.741407 213.647449) rotate(-324.657565) scale(0.1 -0.1)">
      <defs>
       <path id="DejaVuSans-34" d="M 2419 4116 
L 825 1625 
L 2419 1625 
L 2419 4116 
z
M 2253 4666 
L 3047 4666 
L 3047 1625 
L 3713 1625 
L 3713 1100 
L 3047 1100 
L 3047 0 
L 2419 0 
L 2419 1100 
L 313 1100 
L 313 1709 
L 2253 4666 
z
" transform="scale(0.015625)"/>
      </defs>
      <use xlink:href="#DejaVuSans-2d"/>
      <use xlink:href="#DejaVuSans-30" x="36.083984"/>
      <use xlink:href="#DejaVuSans-2e" x="99.707031"/>
      <use xlink:href="#DejaVuSans-30" x="131.494141"/>
      <use xlink:href="#DejaVuSans-34" x="195.117188"/>
     </g>
    </g>
   </g>
   <g id="text_17">
    <g clip-path="url(#p8d74e98efe)">
     <!-- -0.03 -->
     <g transform="translate(154.816085 197.72995) rotate(-312.306693) scale(0.1 -0.1)">
      <defs>
       <path id="DejaVuSans-33" d="M 2597 2516 
Q 3050 2419 3304 2112 
Q 3559 1806 3559 1356 
Q 3559 666 3084 287 
Q 2609 -91 1734 -91 
Q 1441 -91 1130 -33 
Q 819 25 488 141 
L 488 750 
Q 750 597 1062 519 
Q 1375 441 1716 441 
Q 2309 441 2620 675 
Q 2931 909 2931 1356 
Q 2931 1769 2642 2001 
Q 2353 2234 1838 2234 
L 1294 2234 
L 1294 2753 
L 1863 2753 
Q 2328 2753 2575 2939 
Q 2822 3125 2822 3475 
Q 2822 3834 2567 4026 
Q 2313 4219 1838 4219 
Q 1578 4219 1281 4162 
Q 984 4106 628 3988 
L 628 4550 
Q 988 4650 1302 4700 
Q 1616 4750 1894 4750 
Q 2613 4750 3031 4423 
Q 3450 4097 3450 3541 
Q 3450 3153 3228 2886 
Q 3006 2619 2597 2516 
z
" transform="scale(0.015625)"/>
      </defs>
      <use xlink:href="#DejaVuSans-2d"/>
      <use xlink:href="#DejaVuSans-30" x="36.083984"/>
      <use xlink:href="#DejaVuSans-2e" x="99.707031"/>
      <use xlink:href="#DejaVuSans-30" x="131.494141"/>
      <use xlink:href="#DejaVuSans-33" x="195.117188"/>
     </g>
    </g>
   </g>
   <g id="text_18">
    <g clip-path="url(#p8d74e98efe)">
     <!-- -0.03 -->
     <g transform="translate(92.866183 179.799854) rotate(-316.901936) scale(0.1 -0.1)">
      <use xlink:href="#DejaVuSans-2d"/>
      <use xlink:href="#DejaVuSans-30" x="36.083984"/>
      <use xlink:href="#DejaVuSans-2e" x="99.707031"/>
      <use xlink:href="#DejaVuSans-30" x="131.494141"/>
      <use xlink:href="#DejaVuSans-33" x="195.117188"/>
     </g>
    </g>
   </g>
   <g id="text_19">
    <g clip-path="url(#p8d74e98efe)">
     <!-- -0.02 -->
     <g transform="translate(116.004614 172.405471) rotate(-358.141933) scale(0.1 -0.1)">
      <use xlink:href="#DejaVuSans-2d"/>
      <use xlink:href="#DejaVuSans-30" x="36.083984"/>
      <use xlink:href="#DejaVuSans-2e" x="99.707031"/>
      <use xlink:href="#DejaVuSans-30" x="131.494141"/>
      <use xlink:href="#DejaVuSans-32" x="195.117188"/>
     </g>
    </g>
   </g>
   <g id="text_20">
    <g clip-path="url(#p8d74e98efe)">
     <!-- -0.01 -->
     <g transform="translate(115.979412 157.878621) rotate(-357.504716) scale(0.1 -0.1)">
      <use xlink:href="#DejaVuSans-2d"/>
      <use xlink:href="#DejaVuSans-30" x="36.083984"/>
      <use xlink:href="#DejaVuSans-2e" x="99.707031"/>
      <use xlink:href="#DejaVuSans-30" x="131.494141"/>
      <use xlink:href="#DejaVuSans-31" x="195.117188"/>
     </g>
    </g>
   </g>
   <g id="text_21">
    <g clip-path="url(#p8d74e98efe)">
     <!-- -0.01 -->
     <g transform="translate(90.622033 74.231281) rotate(-270) scale(0.1 -0.1)">
      <use xlink:href="#DejaVuSans-2d"/>
      <use xlink:href="#DejaVuSans-30" x="36.083984"/>
      <use xlink:href="#DejaVuSans-2e" x="99.707031"/>
      <use xlink:href="#DejaVuSans-30" x="131.494141"/>
      <use xlink:href="#DejaVuSans-31" x="195.117188"/>
     </g>
    </g>
   </g>
  </g>
 </g>
 <defs>
  <clipPath id="p8d74e98efe">
   <rect x="57.6" y="41.472" width="357.12" height="266.112"/>
  </clipPath>
 </defs>
</svg>
