<?xml version="1.0" encoding="utf-8" standalone="no"?>
<!DOCTYPE svg PUBLIC "-//W3C//DTD SVG 1.1//EN"
  "http://www.w3.org/Graphics/SVG/1.1/DTD/svg11.dtd">
<svg xmlns:xlink="http://www.w3.org/1999/xlink" width="460.8pt" height="345.6pt" viewBox="0 0 460.8 345.6" xmlns="http://www.w3.org/2000/svg" version="1.1">
 <metadata>
  <rdf:RDF xmlns:dc="http://purl.org/dc/elements/1.1/" xmlns:cc="http://creativecommons.org/ns#" xmlns:rdf="http://www.w3.org/1999/02/22-rdf-syntax-ns#">
   <cc:Work>
    <dc:type rdf:resource="http://purl.org/dc/dcmitype/StillImage"/>
    <dc:date>2024-02-15T12:26:28.158467</dc:date>
    <dc:format>image/svg+xml</dc:format>
    <dc:creator>
     <cc:Agent>
      <dc:title>Matplotlib v3.7.0, https://matplotlib.org/</dc:title>
     </cc:Agent>
    </dc:creator>
   </cc:Work>
  </rdf:RDF>
 </metadata>
 <defs>
  <style type="text/css">*{stroke-linejoin: round; stroke-linecap: butt}</style>
 </defs>
 <g id="figure_1">
  <g id="patch_1">
   <path d="M 0 345.6 
L 460.8 345.6 
L 460.8 0 
L 0 0 
L 0 345.6 
z
" style="fill: none"/>
  </g>
  <g id="axes_1"/>
  <g id="axes_2">
   <g id="patch_2">
    <path d="M 57.6 307.584 
L 414.72 307.584 
L 414.72 41.472 
L 57.6 41.472 
L 57.6 307.584 
z
" style="fill: none"/>
   </g>
   <g id="PathCollection_1">
    <path d="M 68.641735 175.872 
L 68.641735 173.184 
L 68.641735 170.496 
L 68.641735 167.808 
L 68.641735 165.12 
L 68.641735 162.432 
L 68.641735 159.744 
L 68.641735 157.056 
L 68.641735 154.368 
L 68.641735 151.68 
L 68.641735 148.992 
L 68.641735 146.304 
L 68.641735 143.616 
L 68.641735 140.928 
L 68.641735 138.24 
L 68.641735 135.552 
L 68.641735 132.864 
L 68.641735 130.176 
L 68.641735 127.488 
L 68.641735 124.8 
L 68.641735 122.112 
L 68.641735 119.424 
L 68.641735 116.736 
L 68.641735 114.048 
L 68.641735 111.36 
L 68.641735 108.672 
L 68.641735 105.984 
L 68.641735 103.296 
L 68.641735 100.608 
L 68.641735 97.92 
L 68.641735 95.232 
L 68.641735 92.544 
L 68.641735 89.856 
L 68.641735 87.168 
L 68.641735 84.48 
L 68.641735 81.792 
L 68.641735 79.104 
L 68.641735 76.416 
L 68.641735 73.728 
L 68.641735 71.04 
L 68.641735 68.352 
L 68.641735 65.664 
L 68.641735 62.976 
L 68.641735 60.288 
L 68.641735 57.6 
L 68.641735 54.912 
L 68.641735 52.224 
L 68.641735 49.536 
L 68.641735 46.848 
L 68.641735 44.16 
L 68.641735 41.472 
L 57.6 41.472 
L 57.6 44.16 
L 57.6 46.848 
L 57.6 49.536 
L 57.6 52.224 
L 57.6 54.912 
L 57.6 57.6 
L 57.6 60.288 
L 57.6 62.976 
L 57.6 65.664 
L 57.6 68.352 
L 57.6 71.04 
L 57.6 73.728 
L 57.6 76.416 
L 57.6 79.104 
L 57.6 81.792 
L 57.6 84.48 
L 57.6 87.168 
L 57.6 89.856 
L 57.6 92.544 
L 57.6 95.232 
L 57.6 97.92 
L 57.6 100.608 
L 57.6 103.296 
L 57.6 105.984 
L 57.6 108.672 
L 57.6 111.36 
L 57.6 114.048 
L 57.6 116.736 
L 57.6 119.424 
L 57.6 122.112 
L 57.6 124.8 
L 57.6 127.488 
L 57.6 130.176 
L 57.6 132.864 
L 57.6 135.552 
L 57.6 138.24 
L 57.6 140.928 
L 57.6 143.616 
L 57.6 146.304 
L 57.6 148.992 
L 57.6 151.68 
L 57.6 154.368 
L 57.6 157.056 
L 57.6 159.744 
L 57.6 162.432 
L 57.6 165.12 
L 57.6 167.808 
L 57.6 170.496 
L 57.6 173.184 
L 57.6 175.872 
L 57.6 177.468511 
z
" clip-path="url(#p0c1db8594f)" style="fill: #481b6d; fill-opacity: 0.75"/>
   </g>
   <g id="PathCollection_2">
    <path d="M 66.245627 304.896 
L 66.245627 302.208 
L 66.245627 299.52 
L 66.245627 296.832 
L 66.245627 294.144 
L 66.245627 291.456 
L 66.245627 288.768 
L 66.245627 286.08 
L 66.245627 283.392 
L 66.245627 280.704 
L 66.245627 278.016 
L 66.245627 275.328 
L 66.245627 272.64 
L 66.245627 269.952 
L 66.245627 267.264 
L 66.245627 264.576 
L 66.245627 261.888 
L 66.245627 259.2 
L 66.245627 256.512 
L 66.245627 253.824 
L 66.245627 251.136 
L 66.245627 248.448 
L 66.245627 245.76 
L 66.245627 243.072 
L 66.245627 240.384 
L 66.245627 237.696 
L 66.245627 235.008 
L 66.245627 232.32 
L 66.245627 229.632 
L 66.245627 226.944 
L 66.245627 224.256 
L 66.245627 221.568 
L 66.245627 218.88 
L 66.245627 216.192 
L 66.245627 213.504 
L 66.245627 210.816 
L 66.245627 208.128 
L 66.245627 205.44 
L 66.245627 202.752 
L 66.245627 200.064 
L 66.245627 197.376 
L 66.245627 194.688 
L 66.245627 192 
L 66.245627 189.312 
L 66.245627 186.624 
L 66.245627 183.936 
L 66.245627 181.248 
L 66.245627 178.56 
L 84.836281 175.872 
L 84.836281 173.184 
L 84.836281 170.496 
L 84.836281 167.808 
L 84.836281 165.12 
L 84.836281 162.432 
L 84.836281 159.744 
L 84.836281 157.056 
L 84.836281 154.368 
L 84.836281 151.68 
L 84.836281 148.992 
L 84.836281 146.304 
L 84.836281 143.616 
L 84.836281 140.928 
L 84.836281 138.24 
L 84.836281 135.552 
L 84.836281 132.864 
L 84.836281 130.176 
L 84.836281 127.488 
L 84.836281 124.8 
L 84.836281 122.112 
L 84.836281 119.424 
L 84.836281 116.736 
L 84.836281 114.048 
L 84.836281 111.36 
L 84.836281 108.672 
L 84.836281 105.984 
L 84.836281 103.296 
L 84.836281 100.608 
L 84.836281 97.92 
L 84.836281 95.232 
L 84.836281 92.544 
L 84.836281 89.856 
L 84.836281 87.168 
L 84.836281 84.48 
L 84.836281 81.792 
L 84.836281 79.104 
L 84.836281 76.416 
L 84.836281 73.728 
L 84.836281 71.04 
L 84.836281 68.352 
L 84.836281 65.664 
L 84.836281 62.976 
L 84.836281 60.288 
L 84.836281 57.6 
L 84.836281 54.912 
L 84.836281 52.224 
L 84.836281 49.536 
L 84.836281 46.848 
L 84.836281 44.16 
L 84.836281 41.472 
L 68.641735 41.472 
L 68.641735 44.16 
L 68.641735 46.848 
L 68.641735 49.536 
L 68.641735 52.224 
L 68.641735 54.912 
L 68.641735 57.6 
L 68.641735 60.288 
L 68.641735 62.976 
L 68.641735 65.664 
L 68.641735 68.352 
L 68.641735 71.04 
L 68.641735 73.728 
L 68.641735 76.416 
L 68.641735 79.104 
L 68.641735 81.792 
L 68.641735 84.48 
L 68.641735 87.168 
L 68.641735 89.856 
L 68.641735 92.544 
L 68.641735 95.232 
L 68.641735 97.92 
L 68.641735 100.608 
L 68.641735 103.296 
L 68.641735 105.984 
L 68.641735 108.672 
L 68.641735 111.36 
L 68.641735 114.048 
L 68.641735 116.736 
L 68.641735 119.424 
L 68.641735 122.112 
L 68.641735 124.8 
L 68.641735 127.488 
L 68.641735 130.176 
L 68.641735 132.864 
L 68.641735 135.552 
L 68.641735 138.24 
L 68.641735 140.928 
L 68.641735 143.616 
L 68.641735 146.304 
L 68.641735 148.992 
L 68.641735 151.68 
L 68.641735 154.368 
L 68.641735 157.056 
L 68.641735 159.744 
L 68.641735 162.432 
L 68.641735 165.12 
L 68.641735 167.808 
L 68.641735 170.496 
L 68.641735 173.184 
L 68.641735 175.872 
L 57.6 177.468511 
L 57.6 178.56 
L 57.6 181.248 
L 57.6 183.936 
L 57.6 186.624 
L 57.6 189.312 
L 57.6 192 
L 57.6 194.688 
L 57.6 197.376 
L 57.6 200.064 
L 57.6 202.752 
L 57.6 205.44 
L 57.6 208.128 
L 57.6 210.816 
L 57.6 213.504 
L 57.6 216.192 
L 57.6 218.88 
L 57.6 221.568 
L 57.6 224.256 
L 57.6 226.944 
L 57.6 229.632 
L 57.6 232.32 
L 57.6 235.008 
L 57.6 237.696 
L 57.6 240.384 
L 57.6 243.072 
L 57.6 245.76 
L 57.6 248.448 
L 57.6 251.136 
L 57.6 253.824 
L 57.6 256.512 
L 57.6 259.2 
L 57.6 261.888 
L 57.6 264.576 
L 57.6 267.264 
L 57.6 269.952 
L 57.6 272.64 
L 57.6 275.328 
L 57.6 278.016 
L 57.6 280.704 
L 57.6 283.392 
L 57.6 286.08 
L 57.6 288.768 
L 57.6 291.456 
L 57.6 294.144 
L 57.6 296.832 
L 57.6 299.52 
L 57.6 302.208 
L 57.6 304.896 
L 57.6 307.584 
L 66.245627 307.584 
z
" clip-path="url(#p0c1db8594f)" style="fill: #3f4788; fill-opacity: 0.75"/>
   </g>
   <g id="PathCollection_3">
    <path d="M 82.440172 304.896 
L 82.440172 302.208 
L 82.440172 299.52 
L 82.440172 296.832 
L 82.440172 294.144 
L 82.440172 291.456 
L 82.440172 288.768 
L 82.440172 286.08 
L 82.440172 283.392 
L 82.440172 280.704 
L 82.440172 278.016 
L 82.440172 275.328 
L 82.440172 272.64 
L 82.440172 269.952 
L 82.440172 267.264 
L 82.440172 264.576 
L 82.440172 261.888 
L 82.440172 259.2 
L 82.440172 256.512 
L 82.440172 253.824 
L 82.440172 251.136 
L 82.440172 248.448 
L 82.440172 245.76 
L 82.440172 243.072 
L 82.440172 240.384 
L 82.440172 237.696 
L 82.440172 235.008 
L 82.440172 232.32 
L 82.440172 229.632 
L 82.440172 226.944 
L 82.440172 224.256 
L 82.440172 221.568 
L 82.440172 218.88 
L 82.440172 216.192 
L 82.440172 213.504 
L 82.440172 210.816 
L 82.440172 208.128 
L 82.440172 205.44 
L 82.440172 202.752 
L 82.440172 200.064 
L 82.440172 197.376 
L 82.440172 194.688 
L 82.440172 192 
L 82.440172 189.312 
L 82.440172 186.624 
L 82.440172 183.936 
L 82.440172 181.248 
L 82.440172 178.56 
L 101.030826 175.872 
L 101.030826 173.184 
L 101.030826 170.496 
L 101.030826 167.808 
L 101.030826 165.12 
L 101.030826 162.432 
L 101.030826 159.744 
L 101.030826 157.056 
L 101.030826 154.368 
L 101.030826 151.68 
L 101.030826 148.992 
L 101.030826 146.304 
L 101.030826 143.616 
L 101.030826 140.928 
L 101.030826 138.24 
L 101.030826 135.552 
L 101.030826 132.864 
L 101.030826 130.176 
L 101.030826 127.488 
L 101.030826 124.8 
L 101.030826 122.112 
L 101.030826 119.424 
L 101.030826 116.736 
L 101.030826 114.048 
L 101.030826 111.36 
L 101.030826 108.672 
L 101.030826 105.984 
L 101.030826 103.296 
L 101.030826 100.608 
L 101.030826 97.92 
L 101.030826 95.232 
L 101.030826 92.544 
L 101.030826 89.856 
L 101.030826 87.168 
L 101.030826 84.48 
L 101.030826 81.792 
L 101.030826 79.104 
L 101.030826 76.416 
L 101.030826 73.728 
L 101.030826 71.04 
L 101.030826 68.352 
L 101.030826 65.664 
L 101.030826 62.976 
L 101.030826 60.288 
L 101.030826 57.6 
L 101.030826 54.912 
L 101.030826 52.224 
L 101.030826 49.536 
L 101.030826 46.848 
L 101.030826 44.16 
L 101.030826 41.472 
L 84.836281 41.472 
L 84.836281 44.16 
L 84.836281 46.848 
L 84.836281 49.536 
L 84.836281 52.224 
L 84.836281 54.912 
L 84.836281 57.6 
L 84.836281 60.288 
L 84.836281 62.976 
L 84.836281 65.664 
L 84.836281 68.352 
L 84.836281 71.04 
L 84.836281 73.728 
L 84.836281 76.416 
L 84.836281 79.104 
L 84.836281 81.792 
L 84.836281 84.48 
L 84.836281 87.168 
L 84.836281 89.856 
L 84.836281 92.544 
L 84.836281 95.232 
L 84.836281 97.92 
L 84.836281 100.608 
L 84.836281 103.296 
L 84.836281 105.984 
L 84.836281 108.672 
L 84.836281 111.36 
L 84.836281 114.048 
L 84.836281 116.736 
L 84.836281 119.424 
L 84.836281 122.112 
L 84.836281 124.8 
L 84.836281 127.488 
L 84.836281 130.176 
L 84.836281 132.864 
L 84.836281 135.552 
L 84.836281 138.24 
L 84.836281 140.928 
L 84.836281 143.616 
L 84.836281 146.304 
L 84.836281 148.992 
L 84.836281 151.68 
L 84.836281 154.368 
L 84.836281 157.056 
L 84.836281 159.744 
L 84.836281 162.432 
L 84.836281 165.12 
L 84.836281 167.808 
L 84.836281 170.496 
L 84.836281 173.184 
L 84.836281 175.872 
L 66.245627 178.56 
L 66.245627 181.248 
L 66.245627 183.936 
L 66.245627 186.624 
L 66.245627 189.312 
L 66.245627 192 
L 66.245627 194.688 
L 66.245627 197.376 
L 66.245627 200.064 
L 66.245627 202.752 
L 66.245627 205.44 
L 66.245627 208.128 
L 66.245627 210.816 
L 66.245627 213.504 
L 66.245627 216.192 
L 66.245627 218.88 
L 66.245627 221.568 
L 66.245627 224.256 
L 66.245627 226.944 
L 66.245627 229.632 
L 66.245627 232.32 
L 66.245627 235.008 
L 66.245627 237.696 
L 66.245627 240.384 
L 66.245627 243.072 
L 66.245627 245.76 
L 66.245627 248.448 
L 66.245627 251.136 
L 66.245627 253.824 
L 66.245627 256.512 
L 66.245627 259.2 
L 66.245627 261.888 
L 66.245627 264.576 
L 66.245627 267.264 
L 66.245627 269.952 
L 66.245627 272.64 
L 66.245627 275.328 
L 66.245627 278.016 
L 66.245627 280.704 
L 66.245627 283.392 
L 66.245627 286.08 
L 66.245627 288.768 
L 66.245627 291.456 
L 66.245627 294.144 
L 66.245627 296.832 
L 66.245627 299.52 
L 66.245627 302.208 
L 66.245627 304.896 
L 66.245627 307.584 
L 82.440172 307.584 
z
" clip-path="url(#p0c1db8594f)" style="fill: #2e6e8e; fill-opacity: 0.75"/>
   </g>
   <g id="PathCollection_4">
    <path d="M 98.634717 304.896 
L 98.634717 302.208 
L 98.634717 299.52 
L 98.634717 296.832 
L 98.634717 294.144 
L 98.634717 291.456 
L 98.634717 288.768 
L 98.634717 286.08 
L 98.634717 283.392 
L 98.634717 280.704 
L 98.634717 278.016 
L 98.634717 275.328 
L 98.634717 272.64 
L 98.634717 269.952 
L 98.634717 267.264 
L 98.634717 264.576 
L 98.634717 261.888 
L 98.634717 259.2 
L 98.634717 256.512 
L 98.634717 253.824 
L 98.634717 251.136 
L 98.634717 248.448 
L 98.634717 245.76 
L 98.634717 243.072 
L 98.634717 240.384 
L 98.634717 237.696 
L 98.634717 235.008 
L 98.634717 232.32 
L 98.634717 229.632 
L 98.634717 226.944 
L 98.634717 224.256 
L 98.634717 221.568 
L 98.634717 218.88 
L 98.634717 216.192 
L 98.634717 213.504 
L 98.634717 210.816 
L 98.634717 208.128 
L 98.634717 205.44 
L 98.634717 202.752 
L 98.634717 200.064 
L 98.634717 197.376 
L 98.634717 194.688 
L 98.634717 192 
L 98.634717 189.312 
L 98.634717 186.624 
L 98.634717 183.936 
L 98.634717 181.248 
L 98.634717 178.56 
L 117.225371 175.872 
L 117.225371 173.184 
L 117.225371 170.496 
L 117.225371 167.808 
L 117.225371 165.12 
L 117.225371 162.432 
L 117.225371 159.744 
L 117.225371 157.056 
L 117.225371 154.368 
L 117.225371 151.68 
L 117.225371 148.992 
L 117.225371 146.304 
L 117.225371 143.616 
L 117.225371 140.928 
L 117.225371 138.24 
L 117.225371 135.552 
L 117.225371 132.864 
L 117.225371 130.176 
L 117.225371 127.488 
L 117.225371 124.8 
L 117.225371 122.112 
L 117.225371 119.424 
L 117.225371 116.736 
L 117.225371 114.048 
L 117.225371 111.36 
L 117.225371 108.672 
L 117.225371 105.984 
L 117.225371 103.296 
L 117.225371 100.608 
L 117.225371 97.92 
L 117.225371 95.232 
L 117.225371 92.544 
L 117.225371 89.856 
L 117.225371 87.168 
L 117.225371 84.48 
L 117.225371 81.792 
L 117.225371 79.104 
L 117.225371 76.416 
L 117.225371 73.728 
L 117.225371 71.04 
L 117.225371 68.352 
L 117.225371 65.664 
L 117.225371 62.976 
L 117.225371 60.288 
L 117.225371 57.6 
L 117.225371 54.912 
L 117.225371 52.224 
L 117.225371 49.536 
L 117.225371 46.848 
L 117.225371 44.16 
L 117.225371 41.472 
L 101.030826 41.472 
L 101.030826 44.16 
L 101.030826 46.848 
L 101.030826 49.536 
L 101.030826 52.224 
L 101.030826 54.912 
L 101.030826 57.6 
L 101.030826 60.288 
L 101.030826 62.976 
L 101.030826 65.664 
L 101.030826 68.352 
L 101.030826 71.04 
L 101.030826 73.728 
L 101.030826 76.416 
L 101.030826 79.104 
L 101.030826 81.792 
L 101.030826 84.48 
L 101.030826 87.168 
L 101.030826 89.856 
L 101.030826 92.544 
L 101.030826 95.232 
L 101.030826 97.92 
L 101.030826 100.608 
L 101.030826 103.296 
L 101.030826 105.984 
L 101.030826 108.672 
L 101.030826 111.36 
L 101.030826 114.048 
L 101.030826 116.736 
L 101.030826 119.424 
L 101.030826 122.112 
L 101.030826 124.8 
L 101.030826 127.488 
L 101.030826 130.176 
L 101.030826 132.864 
L 101.030826 135.552 
L 101.030826 138.24 
L 101.030826 140.928 
L 101.030826 143.616 
L 101.030826 146.304 
L 101.030826 148.992 
L 101.030826 151.68 
L 101.030826 154.368 
L 101.030826 157.056 
L 101.030826 159.744 
L 101.030826 162.432 
L 101.030826 165.12 
L 101.030826 167.808 
L 101.030826 170.496 
L 101.030826 173.184 
L 101.030826 175.872 
L 82.440172 178.56 
L 82.440172 181.248 
L 82.440172 183.936 
L 82.440172 186.624 
L 82.440172 189.312 
L 82.440172 192 
L 82.440172 194.688 
L 82.440172 197.376 
L 82.440172 200.064 
L 82.440172 202.752 
L 82.440172 205.44 
L 82.440172 208.128 
L 82.440172 210.816 
L 82.440172 213.504 
L 82.440172 216.192 
L 82.440172 218.88 
L 82.440172 221.568 
L 82.440172 224.256 
L 82.440172 226.944 
L 82.440172 229.632 
L 82.440172 232.32 
L 82.440172 235.008 
L 82.440172 237.696 
L 82.440172 240.384 
L 82.440172 243.072 
L 82.440172 245.76 
L 82.440172 248.448 
L 82.440172 251.136 
L 82.440172 253.824 
L 82.440172 256.512 
L 82.440172 259.2 
L 82.440172 261.888 
L 82.440172 264.576 
L 82.440172 267.264 
L 82.440172 269.952 
L 82.440172 272.64 
L 82.440172 275.328 
L 82.440172 278.016 
L 82.440172 280.704 
L 82.440172 283.392 
L 82.440172 286.08 
L 82.440172 288.768 
L 82.440172 291.456 
L 82.440172 294.144 
L 82.440172 296.832 
L 82.440172 299.52 
L 82.440172 302.208 
L 82.440172 304.896 
L 82.440172 307.584 
L 98.634717 307.584 
z
" clip-path="url(#p0c1db8594f)" style="fill: #21918c; fill-opacity: 0.75"/>
   </g>
   <g id="PathCollection_5">
    <path d="M 114.829263 304.896 
L 114.829263 302.208 
L 114.829263 299.52 
L 114.829263 296.832 
L 114.829263 294.144 
L 114.829263 291.456 
L 114.829263 288.768 
L 114.829263 286.08 
L 114.829263 283.392 
L 114.829263 280.704 
L 114.829263 278.016 
L 114.829263 275.328 
L 114.829263 272.64 
L 114.829263 269.952 
L 114.829263 267.264 
L 114.829263 264.576 
L 114.829263 261.888 
L 114.829263 259.2 
L 114.829263 256.512 
L 114.829263 253.824 
L 114.829263 251.136 
L 114.829263 248.448 
L 114.829263 245.76 
L 114.829263 243.072 
L 114.829263 240.384 
L 114.829263 237.696 
L 114.829263 235.008 
L 114.829263 232.32 
L 114.829263 229.632 
L 114.829263 226.944 
L 114.829263 224.256 
L 114.829263 221.568 
L 114.829263 218.88 
L 114.829263 216.192 
L 114.829263 213.504 
L 114.829263 210.816 
L 114.829263 208.128 
L 114.829263 205.44 
L 114.829263 202.752 
L 114.829263 200.064 
L 114.829263 197.376 
L 114.829263 194.688 
L 114.829263 192 
L 114.829263 189.312 
L 114.829263 186.624 
L 114.829263 183.936 
L 114.829263 181.248 
L 114.829263 178.56 
L 129.024 176.5076 
L 153.098906 175.872 
L 153.098906 173.184 
L 153.098906 170.496 
L 153.098906 167.808 
L 153.098906 165.12 
L 153.098906 162.432 
L 153.098906 159.744 
L 153.098906 157.056 
L 153.098906 154.368 
L 153.098906 151.68 
L 153.098906 148.992 
L 153.098906 146.304 
L 153.098906 143.616 
L 153.098906 140.928 
L 153.098906 138.24 
L 153.098906 135.552 
L 153.098906 132.864 
L 153.098906 130.176 
L 153.098906 127.488 
L 153.098906 124.8 
L 153.098906 122.112 
L 153.098906 119.424 
L 153.098906 116.736 
L 153.098906 114.048 
L 153.098906 111.36 
L 153.098906 108.672 
L 153.098906 105.984 
L 153.098906 103.296 
L 153.098906 100.608 
L 153.098906 97.92 
L 153.098906 95.232 
L 153.098906 92.544 
L 153.098906 89.856 
L 153.098906 87.168 
L 153.098906 84.48 
L 153.098906 81.792 
L 153.098906 79.104 
L 153.098906 76.416 
L 153.098906 73.728 
L 153.098906 71.04 
L 153.098906 68.352 
L 153.098906 65.664 
L 153.098906 62.976 
L 153.098906 60.288 
L 153.098906 57.6 
L 153.098906 54.912 
L 153.098906 52.224 
L 153.098906 49.536 
L 153.098906 46.848 
L 153.098906 44.16 
L 153.098906 41.472 
L 129.024 41.472 
L 117.225371 41.472 
L 117.225371 44.16 
L 117.225371 46.848 
L 117.225371 49.536 
L 117.225371 52.224 
L 117.225371 54.912 
L 117.225371 57.6 
L 117.225371 60.288 
L 117.225371 62.976 
L 117.225371 65.664 
L 117.225371 68.352 
L 117.225371 71.04 
L 117.225371 73.728 
L 117.225371 76.416 
L 117.225371 79.104 
L 117.225371 81.792 
L 117.225371 84.48 
L 117.225371 87.168 
L 117.225371 89.856 
L 117.225371 92.544 
L 117.225371 95.232 
L 117.225371 97.92 
L 117.225371 100.608 
L 117.225371 103.296 
L 117.225371 105.984 
L 117.225371 108.672 
L 117.225371 111.36 
L 117.225371 114.048 
L 117.225371 116.736 
L 117.225371 119.424 
L 117.225371 122.112 
L 117.225371 124.8 
L 117.225371 127.488 
L 117.225371 130.176 
L 117.225371 132.864 
L 117.225371 135.552 
L 117.225371 138.24 
L 117.225371 140.928 
L 117.225371 143.616 
L 117.225371 146.304 
L 117.225371 148.992 
L 117.225371 151.68 
L 117.225371 154.368 
L 117.225371 157.056 
L 117.225371 159.744 
L 117.225371 162.432 
L 117.225371 165.12 
L 117.225371 167.808 
L 117.225371 170.496 
L 117.225371 173.184 
L 117.225371 175.872 
L 98.634717 178.56 
L 98.634717 181.248 
L 98.634717 183.936 
L 98.634717 186.624 
L 98.634717 189.312 
L 98.634717 192 
L 98.634717 194.688 
L 98.634717 197.376 
L 98.634717 200.064 
L 98.634717 202.752 
L 98.634717 205.44 
L 98.634717 208.128 
L 98.634717 210.816 
L 98.634717 213.504 
L 98.634717 216.192 
L 98.634717 218.88 
L 98.634717 221.568 
L 98.634717 224.256 
L 98.634717 226.944 
L 98.634717 229.632 
L 98.634717 232.32 
L 98.634717 235.008 
L 98.634717 237.696 
L 98.634717 240.384 
L 98.634717 243.072 
L 98.634717 245.76 
L 98.634717 248.448 
L 98.634717 251.136 
L 98.634717 253.824 
L 98.634717 256.512 
L 98.634717 259.2 
L 98.634717 261.888 
L 98.634717 264.576 
L 98.634717 267.264 
L 98.634717 269.952 
L 98.634717 272.64 
L 98.634717 275.328 
L 98.634717 278.016 
L 98.634717 280.704 
L 98.634717 283.392 
L 98.634717 286.08 
L 98.634717 288.768 
L 98.634717 291.456 
L 98.634717 294.144 
L 98.634717 296.832 
L 98.634717 299.52 
L 98.634717 302.208 
L 98.634717 304.896 
L 98.634717 307.584 
L 114.829263 307.584 
z
" clip-path="url(#p0c1db8594f)" style="fill: #2db27d; fill-opacity: 0.75"/>
   </g>
   <g id="PathCollection_6">
    <path d="M 129.024 307.584 
L 139.976253 307.584 
L 139.976253 304.896 
L 139.976253 302.208 
L 139.976253 299.52 
L 139.976253 296.832 
L 139.976253 294.144 
L 139.976253 291.456 
L 139.976253 288.768 
L 139.976253 286.08 
L 139.976253 283.392 
L 139.976253 280.704 
L 139.976253 278.016 
L 139.976253 275.328 
L 139.976253 272.64 
L 139.976253 269.952 
L 139.976253 267.264 
L 139.976253 264.576 
L 139.976253 261.888 
L 139.976253 259.2 
L 139.976253 256.512 
L 139.976253 253.824 
L 139.976253 251.136 
L 139.976253 248.448 
L 139.976253 245.76 
L 139.976253 243.072 
L 139.976253 240.384 
L 139.976253 237.696 
L 139.976253 235.008 
L 139.976253 232.32 
L 139.976253 229.632 
L 139.976253 226.944 
L 139.976253 224.256 
L 139.976253 221.568 
L 139.976253 218.88 
L 139.976253 216.192 
L 139.976253 213.504 
L 139.976253 210.816 
L 139.976253 208.128 
L 139.976253 205.44 
L 139.976253 202.752 
L 139.976253 200.064 
L 139.976253 197.376 
L 139.976253 194.688 
L 139.976253 192 
L 139.976253 189.312 
L 139.976253 186.624 
L 139.976253 183.936 
L 139.976253 181.248 
L 139.976253 178.56 
L 200.448 176.963489 
L 271.872 176.963489 
L 343.296 176.963489 
L 414.72 176.963489 
L 414.72 175.872 
L 414.72 173.184 
L 414.72 170.496 
L 414.72 167.808 
L 414.72 165.12 
L 414.72 162.432 
L 414.72 159.744 
L 414.72 157.056 
L 414.72 154.368 
L 414.72 151.68 
L 414.72 148.992 
L 414.72 146.304 
L 414.72 143.616 
L 414.72 140.928 
L 414.72 138.24 
L 414.72 135.552 
L 414.72 132.864 
L 414.72 130.176 
L 414.72 127.488 
L 414.72 124.8 
L 414.72 122.112 
L 414.72 119.424 
L 414.72 116.736 
L 414.72 114.048 
L 414.72 111.36 
L 414.72 108.672 
L 414.72 105.984 
L 414.72 103.296 
L 414.72 100.608 
L 414.72 97.92 
L 414.72 95.232 
L 414.72 92.544 
L 414.72 89.856 
L 414.72 87.168 
L 414.72 84.48 
L 414.72 81.792 
L 414.72 79.104 
L 414.72 76.416 
L 414.72 73.728 
L 414.72 71.04 
L 414.72 68.352 
L 414.72 65.664 
L 414.72 62.976 
L 414.72 60.288 
L 414.72 57.6 
L 414.72 54.912 
L 414.72 52.224 
L 414.72 49.536 
L 414.72 46.848 
L 414.72 44.16 
L 414.72 41.472 
L 343.296 41.472 
L 271.872 41.472 
L 200.448 41.472 
L 153.098906 41.472 
L 153.098906 44.16 
L 153.098906 46.848 
L 153.098906 49.536 
L 153.098906 52.224 
L 153.098906 54.912 
L 153.098906 57.6 
L 153.098906 60.288 
L 153.098906 62.976 
L 153.098906 65.664 
L 153.098906 68.352 
L 153.098906 71.04 
L 153.098906 73.728 
L 153.098906 76.416 
L 153.098906 79.104 
L 153.098906 81.792 
L 153.098906 84.48 
L 153.098906 87.168 
L 153.098906 89.856 
L 153.098906 92.544 
L 153.098906 95.232 
L 153.098906 97.92 
L 153.098906 100.608 
L 153.098906 103.296 
L 153.098906 105.984 
L 153.098906 108.672 
L 153.098906 111.36 
L 153.098906 114.048 
L 153.098906 116.736 
L 153.098906 119.424 
L 153.098906 122.112 
L 153.098906 124.8 
L 153.098906 127.488 
L 153.098906 130.176 
L 153.098906 132.864 
L 153.098906 135.552 
L 153.098906 138.24 
L 153.098906 140.928 
L 153.098906 143.616 
L 153.098906 146.304 
L 153.098906 148.992 
L 153.098906 151.68 
L 153.098906 154.368 
L 153.098906 157.056 
L 153.098906 159.744 
L 153.098906 162.432 
L 153.098906 165.12 
L 153.098906 167.808 
L 153.098906 170.496 
L 153.098906 173.184 
L 153.098906 175.872 
L 129.024 176.5076 
L 114.829263 178.56 
L 114.829263 181.248 
L 114.829263 183.936 
L 114.829263 186.624 
L 114.829263 189.312 
L 114.829263 192 
L 114.829263 194.688 
L 114.829263 197.376 
L 114.829263 200.064 
L 114.829263 202.752 
L 114.829263 205.44 
L 114.829263 208.128 
L 114.829263 210.816 
L 114.829263 213.504 
L 114.829263 216.192 
L 114.829263 218.88 
L 114.829263 221.568 
L 114.829263 224.256 
L 114.829263 226.944 
L 114.829263 229.632 
L 114.829263 232.32 
L 114.829263 235.008 
L 114.829263 237.696 
L 114.829263 240.384 
L 114.829263 243.072 
L 114.829263 245.76 
L 114.829263 248.448 
L 114.829263 251.136 
L 114.829263 253.824 
L 114.829263 256.512 
L 114.829263 259.2 
L 114.829263 261.888 
L 114.829263 264.576 
L 114.829263 267.264 
L 114.829263 269.952 
L 114.829263 272.64 
L 114.829263 275.328 
L 114.829263 278.016 
L 114.829263 280.704 
L 114.829263 283.392 
L 114.829263 286.08 
L 114.829263 288.768 
L 114.829263 291.456 
L 114.829263 294.144 
L 114.829263 296.832 
L 114.829263 299.52 
L 114.829263 302.208 
L 114.829263 304.896 
L 114.829263 307.584 
z
" clip-path="url(#p0c1db8594f)" style="fill: #73d056; fill-opacity: 0.75"/>
   </g>
   <g id="PathCollection_7">
    <path d="M 200.448 307.584 
L 271.872 307.584 
L 343.296 307.584 
L 414.72 307.584 
L 414.72 304.896 
L 414.72 302.208 
L 414.72 299.52 
L 414.72 296.832 
L 414.72 294.144 
L 414.72 291.456 
L 414.72 288.768 
L 414.72 286.08 
L 414.72 283.392 
L 414.72 280.704 
L 414.72 278.016 
L 414.72 275.328 
L 414.72 272.64 
L 414.72 269.952 
L 414.72 267.264 
L 414.72 264.576 
L 414.72 261.888 
L 414.72 259.2 
L 414.72 256.512 
L 414.72 253.824 
L 414.72 251.136 
L 414.72 248.448 
L 414.72 245.76 
L 414.72 243.072 
L 414.72 240.384 
L 414.72 237.696 
L 414.72 235.008 
L 414.72 232.32 
L 414.72 229.632 
L 414.72 226.944 
L 414.72 224.256 
L 414.72 221.568 
L 414.72 218.88 
L 414.72 216.192 
L 414.72 213.504 
L 414.72 210.816 
L 414.72 208.128 
L 414.72 205.44 
L 414.72 202.752 
L 414.72 200.064 
L 414.72 197.376 
L 414.72 194.688 
L 414.72 192 
L 414.72 189.312 
L 414.72 186.624 
L 414.72 183.936 
L 414.72 181.248 
L 414.72 178.56 
L 414.72 176.963489 
L 343.296 176.963489 
L 271.872 176.963489 
L 200.448 176.963489 
L 139.976253 178.56 
L 139.976253 181.248 
L 139.976253 183.936 
L 139.976253 186.624 
L 139.976253 189.312 
L 139.976253 192 
L 139.976253 194.688 
L 139.976253 197.376 
L 139.976253 200.064 
L 139.976253 202.752 
L 139.976253 205.44 
L 139.976253 208.128 
L 139.976253 210.816 
L 139.976253 213.504 
L 139.976253 216.192 
L 139.976253 218.88 
L 139.976253 221.568 
L 139.976253 224.256 
L 139.976253 226.944 
L 139.976253 229.632 
L 139.976253 232.32 
L 139.976253 235.008 
L 139.976253 237.696 
L 139.976253 240.384 
L 139.976253 243.072 
L 139.976253 245.76 
L 139.976253 248.448 
L 139.976253 251.136 
L 139.976253 253.824 
L 139.976253 256.512 
L 139.976253 259.2 
L 139.976253 261.888 
L 139.976253 264.576 
L 139.976253 267.264 
L 139.976253 269.952 
L 139.976253 272.64 
L 139.976253 275.328 
L 139.976253 278.016 
L 139.976253 280.704 
L 139.976253 283.392 
L 139.976253 286.08 
L 139.976253 288.768 
L 139.976253 291.456 
L 139.976253 294.144 
L 139.976253 296.832 
L 139.976253 299.52 
L 139.976253 302.208 
L 139.976253 304.896 
L 139.976253 307.584 
z
" clip-path="url(#p0c1db8594f)" style="fill: #d0e11c; fill-opacity: 0.75"/>
   </g>
   <g id="matplotlib.axis_1">
    <g id="xtick_1">
     <g id="line2d_1">
      <defs>
       <path id="m78a8345f8f" d="M 0 0 
L 0 3.5 
" style="stroke: #000000; stroke-width: 0.8"/>
      </defs>
      <g>
       <use xlink:href="#m78a8345f8f" x="86.710287" y="307.584" style="stroke: #000000; stroke-width: 0.8"/>
      </g>
     </g>
     <g id="text_1">
      <!-- −1.0 -->
      <g transform="translate(74.568881 322.182437) scale(0.1 -0.1)">
       <defs>
        <path id="DejaVuSans-2212" d="M 678 2272 
L 4684 2272 
L 4684 1741 
L 678 1741 
L 678 2272 
z
" transform="scale(0.015625)"/>
        <path id="DejaVuSans-31" d="M 794 531 
L 1825 531 
L 1825 4091 
L 703 3866 
L 703 4441 
L 1819 4666 
L 2450 4666 
L 2450 531 
L 3481 531 
L 3481 0 
L 794 0 
L 794 531 
z
" transform="scale(0.015625)"/>
        <path id="DejaVuSans-2e" d="M 684 794 
L 1344 794 
L 1344 0 
L 684 0 
L 684 794 
z
" transform="scale(0.015625)"/>
        <path id="DejaVuSans-30" d="M 2034 4250 
Q 1547 4250 1301 3770 
Q 1056 3291 1056 2328 
Q 1056 1369 1301 889 
Q 1547 409 2034 409 
Q 2525 409 2770 889 
Q 3016 1369 3016 2328 
Q 3016 3291 2770 3770 
Q 2525 4250 2034 4250 
z
M 2034 4750 
Q 2819 4750 3233 4129 
Q 3647 3509 3647 2328 
Q 3647 1150 3233 529 
Q 2819 -91 2034 -91 
Q 1250 -91 836 529 
Q 422 1150 422 2328 
Q 422 3509 836 4129 
Q 1250 4750 2034 4750 
z
" transform="scale(0.015625)"/>
       </defs>
       <use xlink:href="#DejaVuSans-2212"/>
       <use xlink:href="#DejaVuSans-31" x="83.789062"/>
       <use xlink:href="#DejaVuSans-2e" x="147.412109"/>
       <use xlink:href="#DejaVuSans-30" x="179.199219"/>
      </g>
     </g>
    </g>
    <g id="xtick_2">
     <g id="line2d_2">
      <g>
       <use xlink:href="#m78a8345f8f" x="144.500744" y="307.584" style="stroke: #000000; stroke-width: 0.8"/>
      </g>
     </g>
     <g id="text_2">
      <!-- −0.5 -->
      <g transform="translate(132.359337 322.182437) scale(0.1 -0.1)">
       <defs>
        <path id="DejaVuSans-35" d="M 691 4666 
L 3169 4666 
L 3169 4134 
L 1269 4134 
L 1269 2991 
Q 1406 3038 1543 3061 
Q 1681 3084 1819 3084 
Q 2600 3084 3056 2656 
Q 3513 2228 3513 1497 
Q 3513 744 3044 326 
Q 2575 -91 1722 -91 
Q 1428 -91 1123 -41 
Q 819 9 494 109 
L 494 744 
Q 775 591 1075 516 
Q 1375 441 1709 441 
Q 2250 441 2565 725 
Q 2881 1009 2881 1497 
Q 2881 1984 2565 2268 
Q 2250 2553 1709 2553 
Q 1456 2553 1204 2497 
Q 953 2441 691 2322 
L 691 4666 
z
" transform="scale(0.015625)"/>
       </defs>
       <use xlink:href="#DejaVuSans-2212"/>
       <use xlink:href="#DejaVuSans-30" x="83.789062"/>
       <use xlink:href="#DejaVuSans-2e" x="147.412109"/>
       <use xlink:href="#DejaVuSans-35" x="179.199219"/>
      </g>
     </g>
    </g>
    <g id="xtick_3">
     <g id="line2d_3">
      <g>
       <use xlink:href="#m78a8345f8f" x="202.2912" y="307.584" style="stroke: #000000; stroke-width: 0.8"/>
      </g>
     </g>
     <g id="text_3">
      <!-- 0.0 -->
      <g transform="translate(194.339638 322.182437) scale(0.1 -0.1)">
       <use xlink:href="#DejaVuSans-30"/>
       <use xlink:href="#DejaVuSans-2e" x="63.623047"/>
       <use xlink:href="#DejaVuSans-30" x="95.410156"/>
      </g>
     </g>
    </g>
    <g id="xtick_4">
     <g id="line2d_4">
      <g>
       <use xlink:href="#m78a8345f8f" x="260.081656" y="307.584" style="stroke: #000000; stroke-width: 0.8"/>
      </g>
     </g>
     <g id="text_4">
      <!-- 0.5 -->
      <g transform="translate(252.130094 322.182437) scale(0.1 -0.1)">
       <use xlink:href="#DejaVuSans-30"/>
       <use xlink:href="#DejaVuSans-2e" x="63.623047"/>
       <use xlink:href="#DejaVuSans-35" x="95.410156"/>
      </g>
     </g>
    </g>
    <g id="xtick_5">
     <g id="line2d_5">
      <g>
       <use xlink:href="#m78a8345f8f" x="317.872113" y="307.584" style="stroke: #000000; stroke-width: 0.8"/>
      </g>
     </g>
     <g id="text_5">
      <!-- 1.0 -->
      <g transform="translate(309.92055 322.182437) scale(0.1 -0.1)">
       <use xlink:href="#DejaVuSans-31"/>
       <use xlink:href="#DejaVuSans-2e" x="63.623047"/>
       <use xlink:href="#DejaVuSans-30" x="95.410156"/>
      </g>
     </g>
    </g>
    <g id="xtick_6">
     <g id="line2d_6">
      <g>
       <use xlink:href="#m78a8345f8f" x="375.662569" y="307.584" style="stroke: #000000; stroke-width: 0.8"/>
      </g>
     </g>
     <g id="text_6">
      <!-- 1.5 -->
      <g transform="translate(367.711006 322.182437) scale(0.1 -0.1)">
       <use xlink:href="#DejaVuSans-31"/>
       <use xlink:href="#DejaVuSans-2e" x="63.623047"/>
       <use xlink:href="#DejaVuSans-35" x="95.410156"/>
      </g>
     </g>
    </g>
    <g id="text_7">
     <!-- Parent Location -->
     <g transform="translate(197.420156 335.860562) scale(0.1 -0.1)">
      <defs>
       <path id="DejaVuSans-50" d="M 1259 4147 
L 1259 2394 
L 2053 2394 
Q 2494 2394 2734 2622 
Q 2975 2850 2975 3272 
Q 2975 3691 2734 3919 
Q 2494 4147 2053 4147 
L 1259 4147 
z
M 628 4666 
L 2053 4666 
Q 2838 4666 3239 4311 
Q 3641 3956 3641 3272 
Q 3641 2581 3239 2228 
Q 2838 1875 2053 1875 
L 1259 1875 
L 1259 0 
L 628 0 
L 628 4666 
z
" transform="scale(0.015625)"/>
       <path id="DejaVuSans-61" d="M 2194 1759 
Q 1497 1759 1228 1600 
Q 959 1441 959 1056 
Q 959 750 1161 570 
Q 1363 391 1709 391 
Q 2188 391 2477 730 
Q 2766 1069 2766 1631 
L 2766 1759 
L 2194 1759 
z
M 3341 1997 
L 3341 0 
L 2766 0 
L 2766 531 
Q 2569 213 2275 61 
Q 1981 -91 1556 -91 
Q 1019 -91 701 211 
Q 384 513 384 1019 
Q 384 1609 779 1909 
Q 1175 2209 1959 2209 
L 2766 2209 
L 2766 2266 
Q 2766 2663 2505 2880 
Q 2244 3097 1772 3097 
Q 1472 3097 1187 3025 
Q 903 2953 641 2809 
L 641 3341 
Q 956 3463 1253 3523 
Q 1550 3584 1831 3584 
Q 2591 3584 2966 3190 
Q 3341 2797 3341 1997 
z
" transform="scale(0.015625)"/>
       <path id="DejaVuSans-72" d="M 2631 2963 
Q 2534 3019 2420 3045 
Q 2306 3072 2169 3072 
Q 1681 3072 1420 2755 
Q 1159 2438 1159 1844 
L 1159 0 
L 581 0 
L 581 3500 
L 1159 3500 
L 1159 2956 
Q 1341 3275 1631 3429 
Q 1922 3584 2338 3584 
Q 2397 3584 2469 3576 
Q 2541 3569 2628 3553 
L 2631 2963 
z
" transform="scale(0.015625)"/>
       <path id="DejaVuSans-65" d="M 3597 1894 
L 3597 1613 
L 953 1613 
Q 991 1019 1311 708 
Q 1631 397 2203 397 
Q 2534 397 2845 478 
Q 3156 559 3463 722 
L 3463 178 
Q 3153 47 2828 -22 
Q 2503 -91 2169 -91 
Q 1331 -91 842 396 
Q 353 884 353 1716 
Q 353 2575 817 3079 
Q 1281 3584 2069 3584 
Q 2775 3584 3186 3129 
Q 3597 2675 3597 1894 
z
M 3022 2063 
Q 3016 2534 2758 2815 
Q 2500 3097 2075 3097 
Q 1594 3097 1305 2825 
Q 1016 2553 972 2059 
L 3022 2063 
z
" transform="scale(0.015625)"/>
       <path id="DejaVuSans-6e" d="M 3513 2113 
L 3513 0 
L 2938 0 
L 2938 2094 
Q 2938 2591 2744 2837 
Q 2550 3084 2163 3084 
Q 1697 3084 1428 2787 
Q 1159 2491 1159 1978 
L 1159 0 
L 581 0 
L 581 3500 
L 1159 3500 
L 1159 2956 
Q 1366 3272 1645 3428 
Q 1925 3584 2291 3584 
Q 2894 3584 3203 3211 
Q 3513 2838 3513 2113 
z
" transform="scale(0.015625)"/>
       <path id="DejaVuSans-74" d="M 1172 4494 
L 1172 3500 
L 2356 3500 
L 2356 3053 
L 1172 3053 
L 1172 1153 
Q 1172 725 1289 603 
Q 1406 481 1766 481 
L 2356 481 
L 2356 0 
L 1766 0 
Q 1100 0 847 248 
Q 594 497 594 1153 
L 594 3053 
L 172 3053 
L 172 3500 
L 594 3500 
L 594 4494 
L 1172 4494 
z
" transform="scale(0.015625)"/>
       <path id="DejaVuSans-20" transform="scale(0.015625)"/>
       <path id="DejaVuSans-4c" d="M 628 4666 
L 1259 4666 
L 1259 531 
L 3531 531 
L 3531 0 
L 628 0 
L 628 4666 
z
" transform="scale(0.015625)"/>
       <path id="DejaVuSans-6f" d="M 1959 3097 
Q 1497 3097 1228 2736 
Q 959 2375 959 1747 
Q 959 1119 1226 758 
Q 1494 397 1959 397 
Q 2419 397 2687 759 
Q 2956 1122 2956 1747 
Q 2956 2369 2687 2733 
Q 2419 3097 1959 3097 
z
M 1959 3584 
Q 2709 3584 3137 3096 
Q 3566 2609 3566 1747 
Q 3566 888 3137 398 
Q 2709 -91 1959 -91 
Q 1206 -91 779 398 
Q 353 888 353 1747 
Q 353 2609 779 3096 
Q 1206 3584 1959 3584 
z
" transform="scale(0.015625)"/>
       <path id="DejaVuSans-63" d="M 3122 3366 
L 3122 2828 
Q 2878 2963 2633 3030 
Q 2388 3097 2138 3097 
Q 1578 3097 1268 2742 
Q 959 2388 959 1747 
Q 959 1106 1268 751 
Q 1578 397 2138 397 
Q 2388 397 2633 464 
Q 2878 531 3122 666 
L 3122 134 
Q 2881 22 2623 -34 
Q 2366 -91 2075 -91 
Q 1284 -91 818 406 
Q 353 903 353 1747 
Q 353 2603 823 3093 
Q 1294 3584 2113 3584 
Q 2378 3584 2631 3529 
Q 2884 3475 3122 3366 
z
" transform="scale(0.015625)"/>
       <path id="DejaVuSans-69" d="M 603 3500 
L 1178 3500 
L 1178 0 
L 603 0 
L 603 3500 
z
M 603 4863 
L 1178 4863 
L 1178 4134 
L 603 4134 
L 603 4863 
z
" transform="scale(0.015625)"/>
      </defs>
      <use xlink:href="#DejaVuSans-50"/>
      <use xlink:href="#DejaVuSans-61" x="55.802734"/>
      <use xlink:href="#DejaVuSans-72" x="117.082031"/>
      <use xlink:href="#DejaVuSans-65" x="155.945312"/>
      <use xlink:href="#DejaVuSans-6e" x="217.46875"/>
      <use xlink:href="#DejaVuSans-74" x="280.847656"/>
      <use xlink:href="#DejaVuSans-20" x="320.056641"/>
      <use xlink:href="#DejaVuSans-4c" x="351.84375"/>
      <use xlink:href="#DejaVuSans-6f" x="405.806641"/>
      <use xlink:href="#DejaVuSans-63" x="466.988281"/>
      <use xlink:href="#DejaVuSans-61" x="521.96875"/>
      <use xlink:href="#DejaVuSans-74" x="583.248047"/>
      <use xlink:href="#DejaVuSans-69" x="622.457031"/>
      <use xlink:href="#DejaVuSans-6f" x="650.240234"/>
      <use xlink:href="#DejaVuSans-6e" x="711.421875"/>
     </g>
    </g>
   </g>
   <g id="matplotlib.axis_2">
    <g id="ytick_1">
     <g id="line2d_7">
      <defs>
       <path id="m1dc479df10" d="M 0 0 
L -3.5 0 
" style="stroke: #000000; stroke-width: 0.8"/>
      </defs>
      <g>
       <use xlink:href="#m1dc479df10" x="57.6" y="300.536805" style="stroke: #000000; stroke-width: 0.8"/>
      </g>
     </g>
     <g id="text_8">
      <!-- −1.0 -->
      <g transform="translate(26.317187 304.336024) scale(0.1 -0.1)">
       <use xlink:href="#DejaVuSans-2212"/>
       <use xlink:href="#DejaVuSans-31" x="83.789062"/>
       <use xlink:href="#DejaVuSans-2e" x="147.412109"/>
       <use xlink:href="#DejaVuSans-30" x="179.199219"/>
      </g>
     </g>
    </g>
    <g id="ytick_2">
     <g id="line2d_8">
      <g>
       <use xlink:href="#m1dc479df10" x="57.6" y="257.765883" style="stroke: #000000; stroke-width: 0.8"/>
      </g>
     </g>
     <g id="text_9">
      <!-- −0.5 -->
      <g transform="translate(26.317187 261.565102) scale(0.1 -0.1)">
       <use xlink:href="#DejaVuSans-2212"/>
       <use xlink:href="#DejaVuSans-30" x="83.789062"/>
       <use xlink:href="#DejaVuSans-2e" x="147.412109"/>
       <use xlink:href="#DejaVuSans-35" x="179.199219"/>
      </g>
     </g>
    </g>
    <g id="ytick_3">
     <g id="line2d_9">
      <g>
       <use xlink:href="#m1dc479df10" x="57.6" y="214.994961" style="stroke: #000000; stroke-width: 0.8"/>
      </g>
     </g>
     <g id="text_10">
      <!-- 0.0 -->
      <g transform="translate(34.696875 218.79418) scale(0.1 -0.1)">
       <use xlink:href="#DejaVuSans-30"/>
       <use xlink:href="#DejaVuSans-2e" x="63.623047"/>
       <use xlink:href="#DejaVuSans-30" x="95.410156"/>
      </g>
     </g>
    </g>
    <g id="ytick_4">
     <g id="line2d_10">
      <g>
       <use xlink:href="#m1dc479df10" x="57.6" y="172.224039" style="stroke: #000000; stroke-width: 0.8"/>
      </g>
     </g>
     <g id="text_11">
      <!-- 0.5 -->
      <g transform="translate(34.696875 176.023258) scale(0.1 -0.1)">
       <use xlink:href="#DejaVuSans-30"/>
       <use xlink:href="#DejaVuSans-2e" x="63.623047"/>
       <use xlink:href="#DejaVuSans-35" x="95.410156"/>
      </g>
     </g>
    </g>
    <g id="ytick_5">
     <g id="line2d_11">
      <g>
       <use xlink:href="#m1dc479df10" x="57.6" y="129.453117" style="stroke: #000000; stroke-width: 0.8"/>
      </g>
     </g>
     <g id="text_12">
      <!-- 1.0 -->
      <g transform="translate(34.696875 133.252336) scale(0.1 -0.1)">
       <use xlink:href="#DejaVuSans-31"/>
       <use xlink:href="#DejaVuSans-2e" x="63.623047"/>
       <use xlink:href="#DejaVuSans-30" x="95.410156"/>
      </g>
     </g>
    </g>
    <g id="ytick_6">
     <g id="line2d_12">
      <g>
       <use xlink:href="#m1dc479df10" x="57.6" y="86.682195" style="stroke: #000000; stroke-width: 0.8"/>
      </g>
     </g>
     <g id="text_13">
      <!-- 1.5 -->
      <g transform="translate(34.696875 90.481414) scale(0.1 -0.1)">
       <use xlink:href="#DejaVuSans-31"/>
       <use xlink:href="#DejaVuSans-2e" x="63.623047"/>
       <use xlink:href="#DejaVuSans-35" x="95.410156"/>
      </g>
     </g>
    </g>
    <g id="ytick_7">
     <g id="line2d_13">
      <g>
       <use xlink:href="#m1dc479df10" x="57.6" y="43.911273" style="stroke: #000000; stroke-width: 0.8"/>
      </g>
     </g>
     <g id="text_14">
      <!-- 2.0 -->
      <g transform="translate(34.696875 47.710492) scale(0.1 -0.1)">
       <defs>
        <path id="DejaVuSans-32" d="M 1228 531 
L 3431 531 
L 3431 0 
L 469 0 
L 469 531 
Q 828 903 1448 1529 
Q 2069 2156 2228 2338 
Q 2531 2678 2651 2914 
Q 2772 3150 2772 3378 
Q 2772 3750 2511 3984 
Q 2250 4219 1831 4219 
Q 1534 4219 1204 4116 
Q 875 4013 500 3803 
L 500 4441 
Q 881 4594 1212 4672 
Q 1544 4750 1819 4750 
Q 2544 4750 2975 4387 
Q 3406 4025 3406 3419 
Q 3406 3131 3298 2873 
Q 3191 2616 2906 2266 
Q 2828 2175 2409 1742 
Q 1991 1309 1228 531 
z
" transform="scale(0.015625)"/>
       </defs>
       <use xlink:href="#DejaVuSans-32"/>
       <use xlink:href="#DejaVuSans-2e" x="63.623047"/>
       <use xlink:href="#DejaVuSans-30" x="95.410156"/>
      </g>
     </g>
    </g>
    <g id="text_15">
     <!-- Fish &amp; Seafood Consumption -->
     <g transform="translate(20.2375 246.353) rotate(-90) scale(0.1 -0.1)">
      <defs>
       <path id="DejaVuSans-46" d="M 628 4666 
L 3309 4666 
L 3309 4134 
L 1259 4134 
L 1259 2759 
L 3109 2759 
L 3109 2228 
L 1259 2228 
L 1259 0 
L 628 0 
L 628 4666 
z
" transform="scale(0.015625)"/>
       <path id="DejaVuSans-73" d="M 2834 3397 
L 2834 2853 
Q 2591 2978 2328 3040 
Q 2066 3103 1784 3103 
Q 1356 3103 1142 2972 
Q 928 2841 928 2578 
Q 928 2378 1081 2264 
Q 1234 2150 1697 2047 
L 1894 2003 
Q 2506 1872 2764 1633 
Q 3022 1394 3022 966 
Q 3022 478 2636 193 
Q 2250 -91 1575 -91 
Q 1294 -91 989 -36 
Q 684 19 347 128 
L 347 722 
Q 666 556 975 473 
Q 1284 391 1588 391 
Q 1994 391 2212 530 
Q 2431 669 2431 922 
Q 2431 1156 2273 1281 
Q 2116 1406 1581 1522 
L 1381 1569 
Q 847 1681 609 1914 
Q 372 2147 372 2553 
Q 372 3047 722 3315 
Q 1072 3584 1716 3584 
Q 2034 3584 2315 3537 
Q 2597 3491 2834 3397 
z
" transform="scale(0.015625)"/>
       <path id="DejaVuSans-68" d="M 3513 2113 
L 3513 0 
L 2938 0 
L 2938 2094 
Q 2938 2591 2744 2837 
Q 2550 3084 2163 3084 
Q 1697 3084 1428 2787 
Q 1159 2491 1159 1978 
L 1159 0 
L 581 0 
L 581 4863 
L 1159 4863 
L 1159 2956 
Q 1366 3272 1645 3428 
Q 1925 3584 2291 3584 
Q 2894 3584 3203 3211 
Q 3513 2838 3513 2113 
z
" transform="scale(0.015625)"/>
       <path id="DejaVuSans-26" d="M 1556 2509 
Q 1272 2256 1139 2004 
Q 1006 1753 1006 1478 
Q 1006 1022 1337 719 
Q 1669 416 2169 416 
Q 2466 416 2725 514 
Q 2984 613 3213 813 
L 1556 2509 
z
M 1997 2859 
L 3584 1234 
Q 3769 1513 3872 1830 
Q 3975 2147 3994 2503 
L 4575 2503 
Q 4538 2091 4375 1687 
Q 4213 1284 3922 891 
L 4794 0 
L 4006 0 
L 3559 459 
Q 3234 181 2878 45 
Q 2522 -91 2113 -91 
Q 1359 -91 881 339 
Q 403 769 403 1441 
Q 403 1841 612 2192 
Q 822 2544 1241 2853 
Q 1091 3050 1012 3245 
Q 934 3441 934 3628 
Q 934 4134 1281 4442 
Q 1628 4750 2203 4750 
Q 2463 4750 2720 4694 
Q 2978 4638 3244 4525 
L 3244 3956 
Q 2972 4103 2725 4179 
Q 2478 4256 2266 4256 
Q 1938 4256 1733 4082 
Q 1528 3909 1528 3634 
Q 1528 3475 1620 3314 
Q 1713 3153 1997 2859 
z
" transform="scale(0.015625)"/>
       <path id="DejaVuSans-53" d="M 3425 4513 
L 3425 3897 
Q 3066 4069 2747 4153 
Q 2428 4238 2131 4238 
Q 1616 4238 1336 4038 
Q 1056 3838 1056 3469 
Q 1056 3159 1242 3001 
Q 1428 2844 1947 2747 
L 2328 2669 
Q 3034 2534 3370 2195 
Q 3706 1856 3706 1288 
Q 3706 609 3251 259 
Q 2797 -91 1919 -91 
Q 1588 -91 1214 -16 
Q 841 59 441 206 
L 441 856 
Q 825 641 1194 531 
Q 1563 422 1919 422 
Q 2459 422 2753 634 
Q 3047 847 3047 1241 
Q 3047 1584 2836 1778 
Q 2625 1972 2144 2069 
L 1759 2144 
Q 1053 2284 737 2584 
Q 422 2884 422 3419 
Q 422 4038 858 4394 
Q 1294 4750 2059 4750 
Q 2388 4750 2728 4690 
Q 3069 4631 3425 4513 
z
" transform="scale(0.015625)"/>
       <path id="DejaVuSans-66" d="M 2375 4863 
L 2375 4384 
L 1825 4384 
Q 1516 4384 1395 4259 
Q 1275 4134 1275 3809 
L 1275 3500 
L 2222 3500 
L 2222 3053 
L 1275 3053 
L 1275 0 
L 697 0 
L 697 3053 
L 147 3053 
L 147 3500 
L 697 3500 
L 697 3744 
Q 697 4328 969 4595 
Q 1241 4863 1831 4863 
L 2375 4863 
z
" transform="scale(0.015625)"/>
       <path id="DejaVuSans-64" d="M 2906 2969 
L 2906 4863 
L 3481 4863 
L 3481 0 
L 2906 0 
L 2906 525 
Q 2725 213 2448 61 
Q 2172 -91 1784 -91 
Q 1150 -91 751 415 
Q 353 922 353 1747 
Q 353 2572 751 3078 
Q 1150 3584 1784 3584 
Q 2172 3584 2448 3432 
Q 2725 3281 2906 2969 
z
M 947 1747 
Q 947 1113 1208 752 
Q 1469 391 1925 391 
Q 2381 391 2643 752 
Q 2906 1113 2906 1747 
Q 2906 2381 2643 2742 
Q 2381 3103 1925 3103 
Q 1469 3103 1208 2742 
Q 947 2381 947 1747 
z
" transform="scale(0.015625)"/>
       <path id="DejaVuSans-43" d="M 4122 4306 
L 4122 3641 
Q 3803 3938 3442 4084 
Q 3081 4231 2675 4231 
Q 1875 4231 1450 3742 
Q 1025 3253 1025 2328 
Q 1025 1406 1450 917 
Q 1875 428 2675 428 
Q 3081 428 3442 575 
Q 3803 722 4122 1019 
L 4122 359 
Q 3791 134 3420 21 
Q 3050 -91 2638 -91 
Q 1578 -91 968 557 
Q 359 1206 359 2328 
Q 359 3453 968 4101 
Q 1578 4750 2638 4750 
Q 3056 4750 3426 4639 
Q 3797 4528 4122 4306 
z
" transform="scale(0.015625)"/>
       <path id="DejaVuSans-75" d="M 544 1381 
L 544 3500 
L 1119 3500 
L 1119 1403 
Q 1119 906 1312 657 
Q 1506 409 1894 409 
Q 2359 409 2629 706 
Q 2900 1003 2900 1516 
L 2900 3500 
L 3475 3500 
L 3475 0 
L 2900 0 
L 2900 538 
Q 2691 219 2414 64 
Q 2138 -91 1772 -91 
Q 1169 -91 856 284 
Q 544 659 544 1381 
z
M 1991 3584 
L 1991 3584 
z
" transform="scale(0.015625)"/>
       <path id="DejaVuSans-6d" d="M 3328 2828 
Q 3544 3216 3844 3400 
Q 4144 3584 4550 3584 
Q 5097 3584 5394 3201 
Q 5691 2819 5691 2113 
L 5691 0 
L 5113 0 
L 5113 2094 
Q 5113 2597 4934 2840 
Q 4756 3084 4391 3084 
Q 3944 3084 3684 2787 
Q 3425 2491 3425 1978 
L 3425 0 
L 2847 0 
L 2847 2094 
Q 2847 2600 2669 2842 
Q 2491 3084 2119 3084 
Q 1678 3084 1418 2786 
Q 1159 2488 1159 1978 
L 1159 0 
L 581 0 
L 581 3500 
L 1159 3500 
L 1159 2956 
Q 1356 3278 1631 3431 
Q 1906 3584 2284 3584 
Q 2666 3584 2933 3390 
Q 3200 3197 3328 2828 
z
" transform="scale(0.015625)"/>
       <path id="DejaVuSans-70" d="M 1159 525 
L 1159 -1331 
L 581 -1331 
L 581 3500 
L 1159 3500 
L 1159 2969 
Q 1341 3281 1617 3432 
Q 1894 3584 2278 3584 
Q 2916 3584 3314 3078 
Q 3713 2572 3713 1747 
Q 3713 922 3314 415 
Q 2916 -91 2278 -91 
Q 1894 -91 1617 61 
Q 1341 213 1159 525 
z
M 3116 1747 
Q 3116 2381 2855 2742 
Q 2594 3103 2138 3103 
Q 1681 3103 1420 2742 
Q 1159 2381 1159 1747 
Q 1159 1113 1420 752 
Q 1681 391 2138 391 
Q 2594 391 2855 752 
Q 3116 1113 3116 1747 
z
" transform="scale(0.015625)"/>
      </defs>
      <use xlink:href="#DejaVuSans-46"/>
      <use xlink:href="#DejaVuSans-69" x="50.269531"/>
      <use xlink:href="#DejaVuSans-73" x="78.052734"/>
      <use xlink:href="#DejaVuSans-68" x="130.152344"/>
      <use xlink:href="#DejaVuSans-20" x="193.53125"/>
      <use xlink:href="#DejaVuSans-26" x="225.318359"/>
      <use xlink:href="#DejaVuSans-20" x="303.296875"/>
      <use xlink:href="#DejaVuSans-53" x="335.083984"/>
      <use xlink:href="#DejaVuSans-65" x="398.560547"/>
      <use xlink:href="#DejaVuSans-61" x="460.083984"/>
      <use xlink:href="#DejaVuSans-66" x="521.363281"/>
      <use xlink:href="#DejaVuSans-6f" x="556.568359"/>
      <use xlink:href="#DejaVuSans-6f" x="617.75"/>
      <use xlink:href="#DejaVuSans-64" x="678.931641"/>
      <use xlink:href="#DejaVuSans-20" x="742.408203"/>
      <use xlink:href="#DejaVuSans-43" x="774.195312"/>
      <use xlink:href="#DejaVuSans-6f" x="844.019531"/>
      <use xlink:href="#DejaVuSans-6e" x="905.201172"/>
      <use xlink:href="#DejaVuSans-73" x="968.580078"/>
      <use xlink:href="#DejaVuSans-75" x="1020.679688"/>
      <use xlink:href="#DejaVuSans-6d" x="1084.058594"/>
      <use xlink:href="#DejaVuSans-70" x="1181.470703"/>
      <use xlink:href="#DejaVuSans-74" x="1244.947266"/>
      <use xlink:href="#DejaVuSans-69" x="1284.15625"/>
      <use xlink:href="#DejaVuSans-6f" x="1311.939453"/>
      <use xlink:href="#DejaVuSans-6e" x="1373.121094"/>
     </g>
    </g>
   </g>
   <g id="PathCollection_8"/>
   <g id="PathCollection_9">
    <path d="M 68.641735 41.472 
L 68.641735 44.16 
L 68.641735 46.848 
L 68.641735 49.536 
L 68.641735 52.224 
L 68.641735 54.912 
L 68.641735 57.6 
L 68.641735 60.288 
L 68.641735 62.976 
L 68.641735 65.664 
L 68.641735 68.352 
L 68.641735 70.653 
" clip-path="url(#p0c1db8594f)" style="fill: none; stroke-dasharray: 1.85,0.8; stroke-dashoffset: 0; stroke: #000000; stroke-width: 0.5"/>
    <path d="M 68.641735 103.683 
L 68.641735 105.984 
L 68.641735 108.672 
L 68.641735 111.36 
L 68.641735 114.048 
L 68.641735 116.736 
L 68.641735 119.424 
L 68.641735 122.112 
L 68.641735 124.8 
L 68.641735 127.488 
L 68.641735 130.176 
L 68.641735 132.864 
L 68.641735 135.552 
L 68.641735 138.24 
L 68.641735 140.928 
L 68.641735 143.616 
L 68.641735 146.304 
L 68.641735 148.992 
L 68.641735 151.68 
L 68.641735 154.368 
L 68.641735 157.056 
L 68.641735 159.744 
L 68.641735 162.432 
L 68.641735 165.12 
L 68.641735 167.808 
L 68.641735 170.496 
L 68.641735 173.184 
L 68.641735 175.872 
L 57.6 177.468511 
" clip-path="url(#p0c1db8594f)" style="fill: none; stroke-dasharray: 1.85,0.8; stroke-dashoffset: 0; stroke: #000000; stroke-width: 0.5"/>
   </g>
   <g id="PathCollection_10">
    <path d="M 84.836281 41.472 
L 84.836281 44.16 
L 84.836281 46.848 
L 84.836281 49.536 
L 84.836281 52.224 
L 84.836281 54.912 
L 84.836281 57.6 
L 84.836281 60.288 
L 84.836281 62.976 
L 84.836281 65.664 
L 84.836281 68.352 
L 84.836281 71.04 
L 84.836281 73.728 
L 84.836281 76.416 
L 84.836281 79.104 
L 84.836281 81.792 
L 84.836281 84.48 
L 84.836281 87.168 
L 84.836281 89.856 
L 84.836281 92.544 
L 84.836281 95.232 
L 84.836281 97.92 
L 84.836281 100.608 
L 84.836281 103.296 
L 84.836281 105.984 
L 84.836281 108.672 
L 84.836281 111.36 
L 84.836281 114.048 
L 84.836281 116.736 
L 84.836281 119.424 
L 84.836281 122.112 
L 84.836281 124.8 
L 84.836281 127.488 
L 84.836281 130.176 
L 84.836281 132.864 
L 84.836281 135.552 
L 84.836281 138.24 
L 84.836281 140.928 
L 84.836281 143.616 
L 84.836281 146.304 
L 84.836281 148.992 
L 84.836281 151.68 
L 84.836281 154.368 
L 84.836281 157.056 
L 84.836281 159.744 
L 84.836281 162.432 
L 84.836281 165.12 
L 84.836281 167.808 
L 84.836281 170.496 
L 84.836281 173.184 
L 84.836281 175.872 
L 66.245627 178.56 
L 66.245627 181.248 
L 66.245627 183.936 
L 66.245627 186.624 
L 66.245627 189.312 
L 66.245627 192 
L 66.245627 194.688 
L 66.245627 197.376 
L 66.245627 200.064 
L 66.245627 202.752 
L 66.245627 205.44 
L 66.245627 208.128 
L 66.245627 210.816 
L 66.245627 213.504 
L 66.245627 216.192 
L 66.245627 218.88 
L 66.245627 221.568 
L 66.245627 224.256 
L 66.245627 226.944 
L 66.245627 229.632 
L 66.245627 232.32 
L 66.245627 235.008 
L 66.245627 237.696 
L 66.245627 240.384 
L 66.245627 243.072 
L 66.245627 245.76 
L 66.245627 248.448 
L 66.245627 251.136 
L 66.245627 253.824 
L 66.245627 256.512 
L 66.245627 258.813 
" clip-path="url(#p0c1db8594f)" style="fill: none; stroke-dasharray: 1.85,0.8; stroke-dashoffset: 0; stroke: #000000; stroke-width: 0.5"/>
    <path d="M 66.245627 291.843 
L 66.245627 294.144 
L 66.245627 296.832 
L 66.245627 299.52 
L 66.245627 302.208 
L 66.245627 304.896 
L 66.245627 307.584 
" clip-path="url(#p0c1db8594f)" style="fill: none; stroke-dasharray: 1.85,0.8; stroke-dashoffset: 0; stroke: #000000; stroke-width: 0.5"/>
   </g>
   <g id="PathCollection_11">
    <path d="M 101.030826 41.472 
L 101.030826 44.16 
L 101.030826 46.848 
L 101.030826 49.536 
L 101.030826 52.224 
L 101.030826 54.912 
L 101.030826 57.6 
L 101.030826 60.288 
L 101.030826 62.976 
L 101.030826 65.664 
L 101.030826 68.352 
L 101.030826 70.653 
" clip-path="url(#p0c1db8594f)" style="fill: none; stroke-dasharray: 1.85,0.8; stroke-dashoffset: 0; stroke: #000000; stroke-width: 0.5"/>
    <path d="M 101.030826 103.683 
L 101.030826 105.984 
L 101.030826 108.672 
L 101.030826 111.36 
L 101.030826 114.048 
L 101.030826 116.736 
L 101.030826 119.424 
L 101.030826 122.112 
L 101.030826 124.8 
L 101.030826 127.488 
L 101.030826 130.176 
L 101.030826 132.864 
L 101.030826 135.552 
L 101.030826 138.24 
L 101.030826 140.928 
L 101.030826 143.616 
L 101.030826 146.304 
L 101.030826 148.992 
L 101.030826 151.68 
L 101.030826 154.368 
L 101.030826 157.056 
L 101.030826 159.744 
L 101.030826 162.432 
L 101.030826 165.12 
L 101.030826 167.808 
L 101.030826 170.496 
L 101.030826 173.184 
L 101.030826 175.872 
L 82.440172 178.56 
L 82.440172 181.248 
L 82.440172 183.936 
L 82.440172 186.624 
L 82.440172 189.312 
L 82.440172 192 
L 82.440172 194.688 
L 82.440172 197.376 
L 82.440172 200.064 
L 82.440172 202.752 
L 82.440172 205.44 
L 82.440172 208.128 
L 82.440172 210.816 
L 82.440172 213.504 
L 82.440172 216.192 
L 82.440172 218.88 
L 82.440172 221.568 
L 82.440172 224.256 
L 82.440172 226.944 
L 82.440172 229.632 
L 82.440172 232.32 
L 82.440172 235.008 
L 82.440172 237.696 
L 82.440172 240.384 
L 82.440172 243.072 
L 82.440172 245.76 
L 82.440172 248.448 
L 82.440172 251.136 
L 82.440172 253.824 
L 82.440172 256.512 
L 82.440172 259.2 
L 82.440172 261.888 
L 82.440172 264.576 
L 82.440172 267.264 
L 82.440172 269.952 
L 82.440172 272.64 
L 82.440172 275.328 
L 82.440172 278.016 
L 82.440172 280.704 
L 82.440172 283.392 
L 82.440172 286.08 
L 82.440172 288.768 
L 82.440172 291.456 
L 82.440172 294.144 
L 82.440172 296.832 
L 82.440172 299.52 
L 82.440172 302.208 
L 82.440172 304.896 
L 82.440172 307.584 
" clip-path="url(#p0c1db8594f)" style="fill: none; stroke-dasharray: 1.85,0.8; stroke-dashoffset: 0; stroke: #000000; stroke-width: 0.5"/>
   </g>
   <g id="PathCollection_12">
    <path d="M 117.225371 41.472 
L 117.225371 44.16 
L 117.225371 46.848 
L 117.225371 49.536 
L 117.225371 52.224 
L 117.225371 54.912 
L 117.225371 57.6 
L 117.225371 60.288 
L 117.225371 62.976 
L 117.225371 65.664 
L 117.225371 68.352 
L 117.225371 71.04 
L 117.225371 73.728 
L 117.225371 76.416 
L 117.225371 79.104 
L 117.225371 81.792 
L 117.225371 84.48 
L 117.225371 87.168 
L 117.225371 89.856 
L 117.225371 92.544 
L 117.225371 95.232 
L 117.225371 97.92 
L 117.225371 100.608 
L 117.225371 103.296 
L 117.225371 105.984 
L 117.225371 108.672 
L 117.225371 111.36 
L 117.225371 114.048 
L 117.225371 116.736 
L 117.225371 119.424 
L 117.225371 122.112 
L 117.225371 124.8 
L 117.225371 127.488 
L 117.225371 130.176 
L 117.225371 132.864 
L 117.225371 135.552 
L 117.225371 138.24 
L 117.225371 140.928 
L 117.225371 143.616 
L 117.225371 146.304 
L 117.225371 148.992 
L 117.225371 151.68 
L 117.225371 154.368 
L 117.225371 157.056 
L 117.225371 159.744 
L 117.225371 162.432 
L 117.225371 165.12 
L 117.225371 167.808 
L 117.225371 170.496 
L 117.225371 173.184 
L 117.225371 175.872 
L 98.634717 178.56 
L 98.634717 181.248 
L 98.634717 183.936 
L 98.634717 186.624 
L 98.634717 189.312 
L 98.634717 192 
L 98.634717 194.688 
L 98.634717 197.376 
L 98.634717 200.064 
L 98.634717 202.752 
L 98.634717 205.44 
L 98.634717 208.128 
L 98.634717 210.816 
L 98.634717 213.504 
L 98.634717 216.192 
L 98.634717 218.88 
L 98.634717 221.568 
L 98.634717 224.256 
L 98.634717 226.944 
L 98.634717 229.632 
L 98.634717 232.32 
L 98.634717 235.008 
L 98.634717 237.696 
L 98.634717 240.384 
L 98.634717 243.072 
L 98.634717 245.76 
L 98.634717 248.448 
L 98.634717 251.136 
L 98.634717 253.824 
L 98.634717 256.512 
L 98.634717 258.813 
" clip-path="url(#p0c1db8594f)" style="fill: none; stroke-dasharray: 1.85,0.8; stroke-dashoffset: 0; stroke: #000000; stroke-width: 0.5"/>
    <path d="M 98.634717 291.843 
L 98.634717 294.144 
L 98.634717 296.832 
L 98.634717 299.52 
L 98.634717 302.208 
L 98.634717 304.896 
L 98.634717 307.584 
" clip-path="url(#p0c1db8594f)" style="fill: none; stroke-dasharray: 1.85,0.8; stroke-dashoffset: 0; stroke: #000000; stroke-width: 0.5"/>
   </g>
   <g id="PathCollection_13">
    <path d="M 153.098906 41.472 
L 153.098906 44.16 
L 153.098906 46.848 
L 153.098906 49.536 
L 153.098906 52.224 
L 153.098906 54.912 
L 153.098906 57.6 
L 153.098906 60.288 
L 153.098906 62.976 
L 153.098906 65.664 
L 153.098906 68.352 
L 153.098906 70.653 
" clip-path="url(#p0c1db8594f)" style="fill: none; stroke-dasharray: 1.85,0.8; stroke-dashoffset: 0; stroke: #000000; stroke-width: 0.5"/>
    <path d="M 153.098906 103.683 
L 153.098906 105.984 
L 153.098906 108.672 
L 153.098906 111.36 
L 153.098906 114.048 
L 153.098906 116.736 
L 153.098906 119.424 
L 153.098906 122.112 
L 153.098906 124.8 
L 153.098906 127.488 
L 153.098906 130.176 
L 153.098906 132.864 
L 153.098906 135.552 
L 153.098906 138.24 
L 153.098906 140.928 
L 153.098906 143.616 
L 153.098906 146.304 
L 153.098906 148.992 
L 153.098906 151.68 
L 153.098906 154.368 
L 153.098906 157.056 
L 153.098906 159.744 
L 153.098906 162.432 
L 153.098906 165.12 
L 153.098906 167.808 
L 153.098906 170.496 
L 153.098906 173.184 
L 153.098906 175.872 
L 129.024 176.5076 
L 114.829263 178.56 
L 114.829263 181.248 
L 114.829263 183.936 
L 114.829263 186.624 
L 114.829263 189.312 
L 114.829263 192 
L 114.829263 194.688 
L 114.829263 197.376 
L 114.829263 200.064 
L 114.829263 202.752 
L 114.829263 205.44 
L 114.829263 208.128 
L 114.829263 210.816 
L 114.829263 213.504 
L 114.829263 216.192 
L 114.829263 218.88 
L 114.829263 221.568 
L 114.829263 224.256 
L 114.829263 226.944 
L 114.829263 229.632 
L 114.829263 232.32 
L 114.829263 235.008 
L 114.829263 237.696 
L 114.829263 240.384 
L 114.829263 243.072 
L 114.829263 245.76 
L 114.829263 248.448 
L 114.829263 251.136 
L 114.829263 253.824 
L 114.829263 256.512 
L 114.829263 259.2 
L 114.829263 261.888 
L 114.829263 264.576 
L 114.829263 267.264 
L 114.829263 269.952 
L 114.829263 272.64 
L 114.829263 275.328 
L 114.829263 278.016 
L 114.829263 280.704 
L 114.829263 283.392 
L 114.829263 286.08 
L 114.829263 288.768 
L 114.829263 291.456 
L 114.829263 294.144 
L 114.829263 296.832 
L 114.829263 299.52 
L 114.829263 302.208 
L 114.829263 304.896 
L 114.829263 307.584 
" clip-path="url(#p0c1db8594f)" style="fill: none; stroke-dasharray: 1.85,0.8; stroke-dashoffset: 0; stroke: #000000; stroke-width: 0.5"/>
   </g>
   <g id="PathCollection_14">
    <path d="M 414.72 176.963489 
L 343.296 176.963489 
L 271.872 176.963489 
L 200.448 176.963489 
L 139.976253 178.56 
L 139.976253 181.248 
L 139.976253 183.936 
L 139.976253 186.624 
L 139.976253 189.312 
L 139.976253 192 
L 139.976253 194.688 
L 139.976253 197.376 
L 139.976253 200.064 
L 139.976253 202.752 
L 139.976253 205.44 
L 139.976253 208.128 
L 139.976253 210.816 
L 139.976253 213.504 
L 139.976253 216.192 
L 139.976253 218.88 
L 139.976253 221.568 
L 139.976253 224.256 
L 139.976253 226.944 
L 139.976253 229.632 
L 139.976253 232.32 
L 139.976253 235.008 
L 139.976253 237.696 
L 139.976253 240.384 
L 139.976253 243.072 
L 139.976253 245.76 
L 139.976253 248.448 
L 139.976253 251.136 
L 139.976253 253.824 
L 139.976253 256.512 
L 139.976253 259.2 
L 139.976253 261.888 
L 139.976253 264.576 
L 139.976253 267.264 
L 139.976253 269.952 
L 139.976253 272.64 
L 139.976253 275.328 
L 139.976253 278.016 
L 139.976253 280.704 
L 139.976253 283.392 
L 139.976253 286.08 
L 139.976253 288.768 
L 139.976253 291.069 
" clip-path="url(#p0c1db8594f)" style="fill: none; stroke-dasharray: 1.85,0.8; stroke-dashoffset: 0; stroke: #000000; stroke-width: 0.5"/>
   </g>
   <g id="PathCollection_15"/>
   <g id="LineCollection_1">
    <path d="M 57.6 307.584 
L 57.6 294.2784 
" clip-path="url(#p0c1db8594f)" style="fill: none; stroke: #000000; stroke-width: 1.5"/>
    <path d="M 57.6 307.584 
L 57.6 294.2784 
" clip-path="url(#p0c1db8594f)" style="fill: none; stroke: #000000; stroke-width: 1.5"/>
    <path d="M 129.024 307.584 
L 129.024 294.2784 
" clip-path="url(#p0c1db8594f)" style="fill: none; stroke: #000000; stroke-width: 1.5"/>
    <path d="M 129.024 307.584 
L 129.024 294.2784 
" clip-path="url(#p0c1db8594f)" style="fill: none; stroke: #000000; stroke-width: 1.5"/>
    <path d="M 200.448 307.584 
L 200.448 294.2784 
" clip-path="url(#p0c1db8594f)" style="fill: none; stroke: #000000; stroke-width: 1.5"/>
    <path d="M 271.872 307.584 
L 271.872 294.2784 
" clip-path="url(#p0c1db8594f)" style="fill: none; stroke: #000000; stroke-width: 1.5"/>
    <path d="M 271.872 307.584 
L 271.872 294.2784 
" clip-path="url(#p0c1db8594f)" style="fill: none; stroke: #000000; stroke-width: 1.5"/>
    <path d="M 271.872 307.584 
L 271.872 294.2784 
" clip-path="url(#p0c1db8594f)" style="fill: none; stroke: #000000; stroke-width: 1.5"/>
    <path d="M 349.00992 307.584 
L 349.00992 294.2784 
" clip-path="url(#p0c1db8594f)" style="fill: none; stroke: #000000; stroke-width: 1.5"/>
   </g>
   <g id="LineCollection_2">
    <path clip-path="url(#p0c1db8594f)" style="fill: none; stroke: #000000; stroke-width: 1.5"/>
    <path clip-path="url(#p0c1db8594f)" style="fill: none; stroke: #000000; stroke-width: 1.5"/>
    <path clip-path="url(#p0c1db8594f)" style="fill: none; stroke: #000000; stroke-width: 1.5"/>
    <path clip-path="url(#p0c1db8594f)" style="fill: none; stroke: #000000; stroke-width: 1.5"/>
    <path clip-path="url(#p0c1db8594f)" style="fill: none; stroke: #000000; stroke-width: 1.5"/>
    <path d="M 202.2912 291.752519 
L 208.070246 291.752519 
" clip-path="url(#p0c1db8594f)" style="fill: none; stroke: #000000; stroke-width: 1.5"/>
    <path d="M 202.2912 176.565405 
L 208.070246 176.565405 
" clip-path="url(#p0c1db8594f)" style="fill: none; stroke: #000000; stroke-width: 1.5"/>
    <path d="M 202.2912 120.321143 
L 208.070246 120.321143 
" clip-path="url(#p0c1db8594f)" style="fill: none; stroke: #000000; stroke-width: 1.5"/>
    <path clip-path="url(#p0c1db8594f)" style="fill: none; stroke: #000000; stroke-width: 1.5"/>
   </g>
   <g id="patch_3">
    <path d="M 57.6 307.584 
L 57.6 41.472 
" style="fill: none; stroke: #000000; stroke-width: 0.8; stroke-linejoin: miter; stroke-linecap: square"/>
   </g>
   <g id="patch_4">
    <path d="M 414.72 307.584 
L 414.72 41.472 
" style="fill: none; stroke: #000000; stroke-width: 0.8; stroke-linejoin: miter; stroke-linecap: square"/>
   </g>
   <g id="patch_5">
    <path d="M 57.6 307.584 
L 414.72 307.584 
" style="fill: none; stroke: #000000; stroke-width: 0.8; stroke-linejoin: miter; stroke-linecap: square"/>
   </g>
   <g id="patch_6">
    <path d="M 57.6 41.472 
L 414.72 41.472 
" style="fill: none; stroke: #000000; stroke-width: 0.8; stroke-linejoin: miter; stroke-linecap: square"/>
   </g>
   <g id="text_16">
    <!-- 2D-partial dependency plot between PL and Fish -->
    <g transform="translate(90.537188 35.472) scale(0.12 -0.12)">
     <defs>
      <path id="DejaVuSans-44" d="M 1259 4147 
L 1259 519 
L 2022 519 
Q 2988 519 3436 956 
Q 3884 1394 3884 2338 
Q 3884 3275 3436 3711 
Q 2988 4147 2022 4147 
L 1259 4147 
z
M 628 4666 
L 1925 4666 
Q 3281 4666 3915 4102 
Q 4550 3538 4550 2338 
Q 4550 1131 3912 565 
Q 3275 0 1925 0 
L 628 0 
L 628 4666 
z
" transform="scale(0.015625)"/>
      <path id="DejaVuSans-2d" d="M 313 2009 
L 1997 2009 
L 1997 1497 
L 313 1497 
L 313 2009 
z
" transform="scale(0.015625)"/>
      <path id="DejaVuSans-6c" d="M 603 4863 
L 1178 4863 
L 1178 0 
L 603 0 
L 603 4863 
z
" transform="scale(0.015625)"/>
      <path id="DejaVuSans-79" d="M 2059 -325 
Q 1816 -950 1584 -1140 
Q 1353 -1331 966 -1331 
L 506 -1331 
L 506 -850 
L 844 -850 
Q 1081 -850 1212 -737 
Q 1344 -625 1503 -206 
L 1606 56 
L 191 3500 
L 800 3500 
L 1894 763 
L 2988 3500 
L 3597 3500 
L 2059 -325 
z
" transform="scale(0.015625)"/>
      <path id="DejaVuSans-62" d="M 3116 1747 
Q 3116 2381 2855 2742 
Q 2594 3103 2138 3103 
Q 1681 3103 1420 2742 
Q 1159 2381 1159 1747 
Q 1159 1113 1420 752 
Q 1681 391 2138 391 
Q 2594 391 2855 752 
Q 3116 1113 3116 1747 
z
M 1159 2969 
Q 1341 3281 1617 3432 
Q 1894 3584 2278 3584 
Q 2916 3584 3314 3078 
Q 3713 2572 3713 1747 
Q 3713 922 3314 415 
Q 2916 -91 2278 -91 
Q 1894 -91 1617 61 
Q 1341 213 1159 525 
L 1159 0 
L 581 0 
L 581 4863 
L 1159 4863 
L 1159 2969 
z
" transform="scale(0.015625)"/>
      <path id="DejaVuSans-77" d="M 269 3500 
L 844 3500 
L 1563 769 
L 2278 3500 
L 2956 3500 
L 3675 769 
L 4391 3500 
L 4966 3500 
L 4050 0 
L 3372 0 
L 2619 2869 
L 1863 0 
L 1184 0 
L 269 3500 
z
" transform="scale(0.015625)"/>
     </defs>
     <use xlink:href="#DejaVuSans-32"/>
     <use xlink:href="#DejaVuSans-44" x="63.623047"/>
     <use xlink:href="#DejaVuSans-2d" x="140.625"/>
     <use xlink:href="#DejaVuSans-70" x="176.708984"/>
     <use xlink:href="#DejaVuSans-61" x="240.185547"/>
     <use xlink:href="#DejaVuSans-72" x="301.464844"/>
     <use xlink:href="#DejaVuSans-74" x="342.578125"/>
     <use xlink:href="#DejaVuSans-69" x="381.787109"/>
     <use xlink:href="#DejaVuSans-61" x="409.570312"/>
     <use xlink:href="#DejaVuSans-6c" x="470.849609"/>
     <use xlink:href="#DejaVuSans-20" x="498.632812"/>
     <use xlink:href="#DejaVuSans-64" x="530.419922"/>
     <use xlink:href="#DejaVuSans-65" x="593.896484"/>
     <use xlink:href="#DejaVuSans-70" x="655.419922"/>
     <use xlink:href="#DejaVuSans-65" x="718.896484"/>
     <use xlink:href="#DejaVuSans-6e" x="780.419922"/>
     <use xlink:href="#DejaVuSans-64" x="843.798828"/>
     <use xlink:href="#DejaVuSans-65" x="907.275391"/>
     <use xlink:href="#DejaVuSans-6e" x="968.798828"/>
     <use xlink:href="#DejaVuSans-63" x="1032.177734"/>
     <use xlink:href="#DejaVuSans-79" x="1087.158203"/>
     <use xlink:href="#DejaVuSans-20" x="1146.337891"/>
     <use xlink:href="#DejaVuSans-70" x="1178.125"/>
     <use xlink:href="#DejaVuSans-6c" x="1241.601562"/>
     <use xlink:href="#DejaVuSans-6f" x="1269.384766"/>
     <use xlink:href="#DejaVuSans-74" x="1330.566406"/>
     <use xlink:href="#DejaVuSans-20" x="1369.775391"/>
     <use xlink:href="#DejaVuSans-62" x="1401.5625"/>
     <use xlink:href="#DejaVuSans-65" x="1465.039062"/>
     <use xlink:href="#DejaVuSans-74" x="1526.5625"/>
     <use xlink:href="#DejaVuSans-77" x="1565.771484"/>
     <use xlink:href="#DejaVuSans-65" x="1647.558594"/>
     <use xlink:href="#DejaVuSans-65" x="1709.082031"/>
     <use xlink:href="#DejaVuSans-6e" x="1770.605469"/>
     <use xlink:href="#DejaVuSans-20" x="1833.984375"/>
     <use xlink:href="#DejaVuSans-50" x="1865.771484"/>
     <use xlink:href="#DejaVuSans-4c" x="1926.074219"/>
     <use xlink:href="#DejaVuSans-20" x="1981.787109"/>
     <use xlink:href="#DejaVuSans-61" x="2013.574219"/>
     <use xlink:href="#DejaVuSans-6e" x="2074.853516"/>
     <use xlink:href="#DejaVuSans-64" x="2138.232422"/>
     <use xlink:href="#DejaVuSans-20" x="2201.708984"/>
     <use xlink:href="#DejaVuSans-46" x="2233.496094"/>
     <use xlink:href="#DejaVuSans-69" x="2283.765625"/>
     <use xlink:href="#DejaVuSans-73" x="2311.548828"/>
     <use xlink:href="#DejaVuSans-68" x="2363.648438"/>
    </g>
   </g>
   <g id="text_17">
    <g clip-path="url(#p0c1db8594f)">
     <!-- -0.03 -->
     <g transform="translate(65.88236 74.231281) rotate(-270) scale(0.1 -0.1)">
      <defs>
       <path id="DejaVuSans-33" d="M 2597 2516 
Q 3050 2419 3304 2112 
Q 3559 1806 3559 1356 
Q 3559 666 3084 287 
Q 2609 -91 1734 -91 
Q 1441 -91 1130 -33 
Q 819 25 488 141 
L 488 750 
Q 750 597 1062 519 
Q 1375 441 1716 441 
Q 2309 441 2620 675 
Q 2931 909 2931 1356 
Q 2931 1769 2642 2001 
Q 2353 2234 1838 2234 
L 1294 2234 
L 1294 2753 
L 1863 2753 
Q 2328 2753 2575 2939 
Q 2822 3125 2822 3475 
Q 2822 3834 2567 4026 
Q 2313 4219 1838 4219 
Q 1578 4219 1281 4162 
Q 984 4106 628 3988 
L 628 4550 
Q 988 4650 1302 4700 
Q 1616 4750 1894 4750 
Q 2613 4750 3031 4423 
Q 3450 4097 3450 3541 
Q 3450 3153 3228 2886 
Q 3006 2619 2597 2516 
z
" transform="scale(0.015625)"/>
      </defs>
      <use xlink:href="#DejaVuSans-2d"/>
      <use xlink:href="#DejaVuSans-30" x="36.083984"/>
      <use xlink:href="#DejaVuSans-2e" x="99.707031"/>
      <use xlink:href="#DejaVuSans-30" x="131.494141"/>
      <use xlink:href="#DejaVuSans-33" x="195.117188"/>
     </g>
    </g>
   </g>
   <g id="text_18">
    <g clip-path="url(#p0c1db8594f)">
     <!-- -0.03 -->
     <g transform="translate(63.486252 262.391281) rotate(-270) scale(0.1 -0.1)">
      <use xlink:href="#DejaVuSans-2d"/>
      <use xlink:href="#DejaVuSans-30" x="36.083984"/>
      <use xlink:href="#DejaVuSans-2e" x="99.707031"/>
      <use xlink:href="#DejaVuSans-30" x="131.494141"/>
      <use xlink:href="#DejaVuSans-33" x="195.117188"/>
     </g>
    </g>
   </g>
   <g id="text_19">
    <g clip-path="url(#p0c1db8594f)">
     <!-- -0.03 -->
     <g transform="translate(98.271451 74.231281) rotate(-270) scale(0.1 -0.1)">
      <use xlink:href="#DejaVuSans-2d"/>
      <use xlink:href="#DejaVuSans-30" x="36.083984"/>
      <use xlink:href="#DejaVuSans-2e" x="99.707031"/>
      <use xlink:href="#DejaVuSans-30" x="131.494141"/>
      <use xlink:href="#DejaVuSans-33" x="195.117188"/>
     </g>
    </g>
   </g>
   <g id="text_20">
    <g clip-path="url(#p0c1db8594f)">
     <!-- -0.03 -->
     <g transform="translate(95.875342 262.391281) rotate(-270) scale(0.1 -0.1)">
      <use xlink:href="#DejaVuSans-2d"/>
      <use xlink:href="#DejaVuSans-30" x="36.083984"/>
      <use xlink:href="#DejaVuSans-2e" x="99.707031"/>
      <use xlink:href="#DejaVuSans-30" x="131.494141"/>
      <use xlink:href="#DejaVuSans-33" x="195.117188"/>
     </g>
    </g>
   </g>
   <g id="text_21">
    <g clip-path="url(#p0c1db8594f)">
     <!-- -0.03 -->
     <g transform="translate(150.339531 74.231281) rotate(-270) scale(0.1 -0.1)">
      <use xlink:href="#DejaVuSans-2d"/>
      <use xlink:href="#DejaVuSans-30" x="36.083984"/>
      <use xlink:href="#DejaVuSans-2e" x="99.707031"/>
      <use xlink:href="#DejaVuSans-30" x="131.494141"/>
      <use xlink:href="#DejaVuSans-33" x="195.117188"/>
     </g>
    </g>
   </g>
   <g id="text_22">
    <g clip-path="url(#p0c1db8594f)">
     <!-- -0.03 -->
     <g transform="translate(137.216878 294.647281) rotate(-270) scale(0.1 -0.1)">
      <use xlink:href="#DejaVuSans-2d"/>
      <use xlink:href="#DejaVuSans-30" x="36.083984"/>
      <use xlink:href="#DejaVuSans-2e" x="99.707031"/>
      <use xlink:href="#DejaVuSans-30" x="131.494141"/>
      <use xlink:href="#DejaVuSans-33" x="195.117188"/>
     </g>
    </g>
   </g>
  </g>
 </g>
 <defs>
  <clipPath id="p0c1db8594f">
   <rect x="57.6" y="41.472" width="357.12" height="266.112"/>
  </clipPath>
 </defs>
</svg>
