<?xml version="1.0" encoding="utf-8" standalone="no"?>
<!DOCTYPE svg PUBLIC "-//W3C//DTD SVG 1.1//EN"
  "http://www.w3.org/Graphics/SVG/1.1/DTD/svg11.dtd">
<svg xmlns:xlink="http://www.w3.org/1999/xlink" width="460.8pt" height="345.6pt" viewBox="0 0 460.8 345.6" xmlns="http://www.w3.org/2000/svg" version="1.1">
 <metadata>
  <rdf:RDF xmlns:dc="http://purl.org/dc/elements/1.1/" xmlns:cc="http://creativecommons.org/ns#" xmlns:rdf="http://www.w3.org/1999/02/22-rdf-syntax-ns#">
   <cc:Work>
    <dc:type rdf:resource="http://purl.org/dc/dcmitype/StillImage"/>
    <dc:date>2024-02-15T12:26:12.548486</dc:date>
    <dc:format>image/svg+xml</dc:format>
    <dc:creator>
     <cc:Agent>
      <dc:title>Matplotlib v3.7.0, https://matplotlib.org/</dc:title>
     </cc:Agent>
    </dc:creator>
   </cc:Work>
  </rdf:RDF>
 </metadata>
 <defs>
  <style type="text/css">*{stroke-linejoin: round; stroke-linecap: butt}</style>
 </defs>
 <g id="figure_1">
  <g id="patch_1">
   <path d="M 0 345.6 
L 460.8 345.6 
L 460.8 0 
L 0 0 
L 0 345.6 
z
" style="fill: none"/>
  </g>
  <g id="axes_1"/>
  <g id="axes_2">
   <g id="patch_2">
    <path d="M 57.6 307.584 
L 414.72 307.584 
L 414.72 41.472 
L 57.6 41.472 
L 57.6 307.584 
z
" style="fill: none"/>
   </g>
   <g id="PathCollection_1">
    <path d="M 66.882376 304.896 
L 66.882376 302.208 
L 66.882376 299.52 
L 66.882376 296.832 
L 66.882376 294.144 
L 66.882376 291.456 
L 66.882376 288.768 
L 66.882376 286.08 
L 66.882376 283.392 
L 66.882376 280.704 
L 66.882376 278.016 
L 66.882376 275.328 
L 66.882376 272.64 
L 66.882376 269.952 
L 66.882376 267.264 
L 66.882376 264.576 
L 66.882376 261.888 
L 66.882376 259.2 
L 66.882376 256.512 
L 66.882376 253.824 
L 66.882376 251.136 
L 66.882376 248.448 
L 66.882376 245.76 
L 66.882376 243.072 
L 66.882376 240.384 
L 66.882376 237.696 
L 66.882376 235.008 
L 66.882376 232.32 
L 64.712414 229.632 
L 64.712414 226.944 
L 64.712414 224.256 
L 64.712414 221.568 
L 64.712414 218.88 
L 64.712414 216.192 
L 64.712414 213.504 
L 64.712414 210.816 
L 64.712414 208.128 
L 64.712414 205.44 
L 64.712414 202.752 
L 64.712414 200.064 
L 64.712414 197.376 
L 64.712414 194.688 
L 64.712414 192 
L 64.712414 189.312 
L 64.712414 186.624 
L 64.712414 183.936 
L 64.712414 181.248 
L 64.712414 178.56 
L 64.712414 175.872 
L 64.712414 173.184 
L 64.712414 170.496 
L 64.712414 167.808 
L 64.712414 165.12 
L 64.712414 162.432 
L 64.712414 159.744 
L 64.712414 157.056 
L 64.712414 154.368 
L 64.712414 151.68 
L 64.712414 148.992 
L 64.712414 146.304 
L 64.712414 143.616 
L 64.712414 140.928 
L 64.712414 138.24 
L 64.712414 135.552 
L 64.712414 132.864 
L 64.712414 130.176 
L 64.712414 127.488 
L 64.712414 124.8 
L 64.712414 122.112 
L 64.712414 119.424 
L 64.712414 116.736 
L 64.712414 114.048 
L 64.712414 111.36 
L 64.712414 108.672 
L 64.712414 105.984 
L 64.712414 103.296 
L 64.712414 100.608 
L 64.712414 97.92 
L 64.712414 95.232 
L 64.712414 92.544 
L 64.712414 89.856 
L 64.712414 87.168 
L 64.712414 84.48 
L 64.712414 81.792 
L 64.712414 79.104 
L 64.712414 76.416 
L 64.712414 73.728 
L 64.712414 71.04 
L 64.712414 68.352 
L 64.712414 65.664 
L 64.712414 62.976 
L 64.712414 60.288 
L 64.712414 57.6 
L 64.712414 54.912 
L 64.712414 52.224 
L 64.712414 49.536 
L 64.712414 46.848 
L 64.712414 44.16 
L 64.712414 41.472 
L 57.6 41.472 
L 57.6 44.16 
L 57.6 46.848 
L 57.6 49.536 
L 57.6 52.224 
L 57.6 54.912 
L 57.6 57.6 
L 57.6 60.288 
L 57.6 62.976 
L 57.6 65.664 
L 57.6 68.352 
L 57.6 71.04 
L 57.6 73.728 
L 57.6 76.416 
L 57.6 79.104 
L 57.6 81.792 
L 57.6 84.48 
L 57.6 87.168 
L 57.6 89.856 
L 57.6 92.544 
L 57.6 95.232 
L 57.6 97.92 
L 57.6 100.608 
L 57.6 103.296 
L 57.6 105.984 
L 57.6 108.672 
L 57.6 111.36 
L 57.6 114.048 
L 57.6 116.736 
L 57.6 119.424 
L 57.6 122.112 
L 57.6 124.8 
L 57.6 127.488 
L 57.6 130.176 
L 57.6 132.864 
L 57.6 135.552 
L 57.6 138.24 
L 57.6 140.928 
L 57.6 143.616 
L 57.6 146.304 
L 57.6 148.992 
L 57.6 151.68 
L 57.6 154.368 
L 57.6 157.056 
L 57.6 159.744 
L 57.6 162.432 
L 57.6 165.12 
L 57.6 167.808 
L 57.6 170.496 
L 57.6 173.184 
L 57.6 175.872 
L 57.6 178.56 
L 57.6 181.248 
L 57.6 183.936 
L 57.6 186.624 
L 57.6 189.312 
L 57.6 192 
L 57.6 194.688 
L 57.6 197.376 
L 57.6 200.064 
L 57.6 202.752 
L 57.6 205.44 
L 57.6 208.128 
L 57.6 210.816 
L 57.6 213.504 
L 57.6 216.192 
L 57.6 218.88 
L 57.6 221.568 
L 57.6 224.256 
L 57.6 226.944 
L 57.6 229.632 
L 57.6 232.32 
L 57.6 235.008 
L 57.6 237.696 
L 57.6 240.384 
L 57.6 243.072 
L 57.6 245.76 
L 57.6 248.448 
L 57.6 251.136 
L 57.6 253.824 
L 57.6 256.512 
L 57.6 259.2 
L 57.6 261.888 
L 57.6 264.576 
L 57.6 267.264 
L 57.6 269.952 
L 57.6 272.64 
L 57.6 275.328 
L 57.6 278.016 
L 57.6 280.704 
L 57.6 283.392 
L 57.6 286.08 
L 57.6 288.768 
L 57.6 291.456 
L 57.6 294.144 
L 57.6 296.832 
L 57.6 299.52 
L 57.6 302.208 
L 57.6 304.896 
L 57.6 307.584 
L 66.882376 307.584 
z
" clip-path="url(#pf68b8f5385)" style="fill: #481b6d; fill-opacity: 0.75"/>
   </g>
   <g id="PathCollection_2">
    <path d="M 80.496526 304.896 
L 80.496526 302.208 
L 80.496526 299.52 
L 80.496526 296.832 
L 80.496526 294.144 
L 80.496526 291.456 
L 80.496526 288.768 
L 80.496526 286.08 
L 80.496526 283.392 
L 80.496526 280.704 
L 80.496526 278.016 
L 80.496526 275.328 
L 80.496526 272.64 
L 80.496526 269.952 
L 80.496526 267.264 
L 80.496526 264.576 
L 80.496526 261.888 
L 80.496526 259.2 
L 80.496526 256.512 
L 80.496526 253.824 
L 80.496526 251.136 
L 80.496526 248.448 
L 80.496526 245.76 
L 80.496526 243.072 
L 80.496526 240.384 
L 80.496526 237.696 
L 80.496526 235.008 
L 80.496526 232.32 
L 78.326564 229.632 
L 78.326564 226.944 
L 78.326564 224.256 
L 78.326564 221.568 
L 78.326564 218.88 
L 78.326564 216.192 
L 78.326564 213.504 
L 78.326564 210.816 
L 78.326564 208.128 
L 78.326564 205.44 
L 78.326564 202.752 
L 78.326564 200.064 
L 78.326564 197.376 
L 78.326564 194.688 
L 78.326564 192 
L 78.326564 189.312 
L 78.326564 186.624 
L 78.326564 183.936 
L 78.326564 181.248 
L 78.326564 178.56 
L 78.326564 175.872 
L 78.326564 173.184 
L 78.326564 170.496 
L 78.326564 167.808 
L 78.326564 165.12 
L 78.326564 162.432 
L 78.326564 159.744 
L 78.326564 157.056 
L 78.326564 154.368 
L 78.326564 151.68 
L 78.326564 148.992 
L 78.326564 146.304 
L 78.326564 143.616 
L 78.326564 140.928 
L 78.326564 138.24 
L 78.326564 135.552 
L 78.326564 132.864 
L 78.326564 130.176 
L 78.326564 127.488 
L 78.326564 124.8 
L 78.326564 122.112 
L 78.326564 119.424 
L 78.326564 116.736 
L 78.326564 114.048 
L 78.326564 111.36 
L 78.326564 108.672 
L 78.326564 105.984 
L 78.326564 103.296 
L 78.326564 100.608 
L 78.326564 97.92 
L 78.326564 95.232 
L 78.326564 92.544 
L 78.326564 89.856 
L 78.326564 87.168 
L 78.326564 84.48 
L 78.326564 81.792 
L 78.326564 79.104 
L 78.326564 76.416 
L 78.326564 73.728 
L 78.326564 71.04 
L 78.326564 68.352 
L 78.326564 65.664 
L 78.326564 62.976 
L 78.326564 60.288 
L 78.326564 57.6 
L 78.326564 54.912 
L 78.326564 52.224 
L 78.326564 49.536 
L 78.326564 46.848 
L 78.326564 44.16 
L 78.326564 41.472 
L 64.712414 41.472 
L 64.712414 44.16 
L 64.712414 46.848 
L 64.712414 49.536 
L 64.712414 52.224 
L 64.712414 54.912 
L 64.712414 57.6 
L 64.712414 60.288 
L 64.712414 62.976 
L 64.712414 65.664 
L 64.712414 68.352 
L 64.712414 71.04 
L 64.712414 73.728 
L 64.712414 76.416 
L 64.712414 79.104 
L 64.712414 81.792 
L 64.712414 84.48 
L 64.712414 87.168 
L 64.712414 89.856 
L 64.712414 92.544 
L 64.712414 95.232 
L 64.712414 97.92 
L 64.712414 100.608 
L 64.712414 103.296 
L 64.712414 105.984 
L 64.712414 108.672 
L 64.712414 111.36 
L 64.712414 114.048 
L 64.712414 116.736 
L 64.712414 119.424 
L 64.712414 122.112 
L 64.712414 124.8 
L 64.712414 127.488 
L 64.712414 130.176 
L 64.712414 132.864 
L 64.712414 135.552 
L 64.712414 138.24 
L 64.712414 140.928 
L 64.712414 143.616 
L 64.712414 146.304 
L 64.712414 148.992 
L 64.712414 151.68 
L 64.712414 154.368 
L 64.712414 157.056 
L 64.712414 159.744 
L 64.712414 162.432 
L 64.712414 165.12 
L 64.712414 167.808 
L 64.712414 170.496 
L 64.712414 173.184 
L 64.712414 175.872 
L 64.712414 178.56 
L 64.712414 181.248 
L 64.712414 183.936 
L 64.712414 186.624 
L 64.712414 189.312 
L 64.712414 192 
L 64.712414 194.688 
L 64.712414 197.376 
L 64.712414 200.064 
L 64.712414 202.752 
L 64.712414 205.44 
L 64.712414 208.128 
L 64.712414 210.816 
L 64.712414 213.504 
L 64.712414 216.192 
L 64.712414 218.88 
L 64.712414 221.568 
L 64.712414 224.256 
L 64.712414 226.944 
L 64.712414 229.632 
L 66.882376 232.32 
L 66.882376 235.008 
L 66.882376 237.696 
L 66.882376 240.384 
L 66.882376 243.072 
L 66.882376 245.76 
L 66.882376 248.448 
L 66.882376 251.136 
L 66.882376 253.824 
L 66.882376 256.512 
L 66.882376 259.2 
L 66.882376 261.888 
L 66.882376 264.576 
L 66.882376 267.264 
L 66.882376 269.952 
L 66.882376 272.64 
L 66.882376 275.328 
L 66.882376 278.016 
L 66.882376 280.704 
L 66.882376 283.392 
L 66.882376 286.08 
L 66.882376 288.768 
L 66.882376 291.456 
L 66.882376 294.144 
L 66.882376 296.832 
L 66.882376 299.52 
L 66.882376 302.208 
L 66.882376 304.896 
L 66.882376 307.584 
L 80.496526 307.584 
z
" clip-path="url(#pf68b8f5385)" style="fill: #3f4788; fill-opacity: 0.75"/>
   </g>
   <g id="PathCollection_3">
    <path d="M 94.110677 304.896 
L 94.110677 302.208 
L 94.110677 299.52 
L 94.110677 296.832 
L 94.110677 294.144 
L 94.110677 291.456 
L 94.110677 288.768 
L 94.110677 286.08 
L 94.110677 283.392 
L 94.110677 280.704 
L 94.110677 278.016 
L 94.110677 275.328 
L 94.110677 272.64 
L 94.110677 269.952 
L 94.110677 267.264 
L 94.110677 264.576 
L 94.110677 261.888 
L 94.110677 259.2 
L 94.110677 256.512 
L 94.110677 253.824 
L 94.110677 251.136 
L 94.110677 248.448 
L 94.110677 245.76 
L 94.110677 243.072 
L 94.110677 240.384 
L 94.110677 237.696 
L 94.110677 235.008 
L 94.110677 232.32 
L 91.940715 229.632 
L 91.940715 226.944 
L 91.940715 224.256 
L 91.940715 221.568 
L 91.940715 218.88 
L 91.940715 216.192 
L 91.940715 213.504 
L 91.940715 210.816 
L 91.940715 208.128 
L 91.940715 205.44 
L 91.940715 202.752 
L 91.940715 200.064 
L 91.940715 197.376 
L 91.940715 194.688 
L 91.940715 192 
L 91.940715 189.312 
L 91.940715 186.624 
L 91.940715 183.936 
L 91.940715 181.248 
L 91.940715 178.56 
L 91.940715 175.872 
L 91.940715 173.184 
L 91.940715 170.496 
L 91.940715 167.808 
L 91.940715 165.12 
L 91.940715 162.432 
L 91.940715 159.744 
L 91.940715 157.056 
L 91.940715 154.368 
L 91.940715 151.68 
L 91.940715 148.992 
L 91.940715 146.304 
L 91.940715 143.616 
L 91.940715 140.928 
L 91.940715 138.24 
L 91.940715 135.552 
L 91.940715 132.864 
L 91.940715 130.176 
L 91.940715 127.488 
L 91.940715 124.8 
L 91.940715 122.112 
L 91.940715 119.424 
L 91.940715 116.736 
L 91.940715 114.048 
L 91.940715 111.36 
L 91.940715 108.672 
L 91.940715 105.984 
L 91.940715 103.296 
L 91.940715 100.608 
L 91.940715 97.92 
L 91.940715 95.232 
L 91.940715 92.544 
L 91.940715 89.856 
L 91.940715 87.168 
L 91.940715 84.48 
L 91.940715 81.792 
L 91.940715 79.104 
L 91.940715 76.416 
L 91.940715 73.728 
L 91.940715 71.04 
L 91.940715 68.352 
L 91.940715 65.664 
L 91.940715 62.976 
L 91.940715 60.288 
L 91.940715 57.6 
L 91.940715 54.912 
L 91.940715 52.224 
L 91.940715 49.536 
L 91.940715 46.848 
L 91.940715 44.16 
L 91.940715 41.472 
L 78.326564 41.472 
L 78.326564 44.16 
L 78.326564 46.848 
L 78.326564 49.536 
L 78.326564 52.224 
L 78.326564 54.912 
L 78.326564 57.6 
L 78.326564 60.288 
L 78.326564 62.976 
L 78.326564 65.664 
L 78.326564 68.352 
L 78.326564 71.04 
L 78.326564 73.728 
L 78.326564 76.416 
L 78.326564 79.104 
L 78.326564 81.792 
L 78.326564 84.48 
L 78.326564 87.168 
L 78.326564 89.856 
L 78.326564 92.544 
L 78.326564 95.232 
L 78.326564 97.92 
L 78.326564 100.608 
L 78.326564 103.296 
L 78.326564 105.984 
L 78.326564 108.672 
L 78.326564 111.36 
L 78.326564 114.048 
L 78.326564 116.736 
L 78.326564 119.424 
L 78.326564 122.112 
L 78.326564 124.8 
L 78.326564 127.488 
L 78.326564 130.176 
L 78.326564 132.864 
L 78.326564 135.552 
L 78.326564 138.24 
L 78.326564 140.928 
L 78.326564 143.616 
L 78.326564 146.304 
L 78.326564 148.992 
L 78.326564 151.68 
L 78.326564 154.368 
L 78.326564 157.056 
L 78.326564 159.744 
L 78.326564 162.432 
L 78.326564 165.12 
L 78.326564 167.808 
L 78.326564 170.496 
L 78.326564 173.184 
L 78.326564 175.872 
L 78.326564 178.56 
L 78.326564 181.248 
L 78.326564 183.936 
L 78.326564 186.624 
L 78.326564 189.312 
L 78.326564 192 
L 78.326564 194.688 
L 78.326564 197.376 
L 78.326564 200.064 
L 78.326564 202.752 
L 78.326564 205.44 
L 78.326564 208.128 
L 78.326564 210.816 
L 78.326564 213.504 
L 78.326564 216.192 
L 78.326564 218.88 
L 78.326564 221.568 
L 78.326564 224.256 
L 78.326564 226.944 
L 78.326564 229.632 
L 80.496526 232.32 
L 80.496526 235.008 
L 80.496526 237.696 
L 80.496526 240.384 
L 80.496526 243.072 
L 80.496526 245.76 
L 80.496526 248.448 
L 80.496526 251.136 
L 80.496526 253.824 
L 80.496526 256.512 
L 80.496526 259.2 
L 80.496526 261.888 
L 80.496526 264.576 
L 80.496526 267.264 
L 80.496526 269.952 
L 80.496526 272.64 
L 80.496526 275.328 
L 80.496526 278.016 
L 80.496526 280.704 
L 80.496526 283.392 
L 80.496526 286.08 
L 80.496526 288.768 
L 80.496526 291.456 
L 80.496526 294.144 
L 80.496526 296.832 
L 80.496526 299.52 
L 80.496526 302.208 
L 80.496526 304.896 
L 80.496526 307.584 
L 94.110677 307.584 
z
" clip-path="url(#pf68b8f5385)" style="fill: #2e6e8e; fill-opacity: 0.75"/>
   </g>
   <g id="PathCollection_4">
    <path d="M 107.724828 304.896 
L 107.724828 302.208 
L 107.724828 299.52 
L 107.724828 296.832 
L 107.724828 294.144 
L 107.724828 291.456 
L 107.724828 288.768 
L 107.724828 286.08 
L 107.724828 283.392 
L 107.724828 280.704 
L 107.724828 278.016 
L 107.724828 275.328 
L 107.724828 272.64 
L 107.724828 269.952 
L 107.724828 267.264 
L 107.724828 264.576 
L 107.724828 261.888 
L 107.724828 259.2 
L 107.724828 256.512 
L 107.724828 253.824 
L 107.724828 251.136 
L 107.724828 248.448 
L 107.724828 245.76 
L 107.724828 243.072 
L 107.724828 240.384 
L 107.724828 237.696 
L 107.724828 235.008 
L 107.724828 232.32 
L 105.554866 229.632 
L 105.554866 226.944 
L 105.554866 224.256 
L 105.554866 221.568 
L 105.554866 218.88 
L 105.554866 216.192 
L 105.554866 213.504 
L 105.554866 210.816 
L 105.554866 208.128 
L 105.554866 205.44 
L 105.554866 202.752 
L 105.554866 200.064 
L 105.554866 197.376 
L 105.554866 194.688 
L 105.554866 192 
L 105.554866 189.312 
L 105.554866 186.624 
L 105.554866 183.936 
L 105.554866 181.248 
L 105.554866 178.56 
L 105.554866 175.872 
L 105.554866 173.184 
L 105.554866 170.496 
L 105.554866 167.808 
L 105.554866 165.12 
L 105.554866 162.432 
L 105.554866 159.744 
L 105.554866 157.056 
L 105.554866 154.368 
L 105.554866 151.68 
L 105.554866 148.992 
L 105.554866 146.304 
L 105.554866 143.616 
L 105.554866 140.928 
L 105.554866 138.24 
L 105.554866 135.552 
L 105.554866 132.864 
L 105.554866 130.176 
L 105.554866 127.488 
L 105.554866 124.8 
L 105.554866 122.112 
L 105.554866 119.424 
L 105.554866 116.736 
L 105.554866 114.048 
L 105.554866 111.36 
L 105.554866 108.672 
L 105.554866 105.984 
L 105.554866 103.296 
L 105.554866 100.608 
L 105.554866 97.92 
L 105.554866 95.232 
L 105.554866 92.544 
L 105.554866 89.856 
L 105.554866 87.168 
L 105.554866 84.48 
L 105.554866 81.792 
L 105.554866 79.104 
L 105.554866 76.416 
L 105.554866 73.728 
L 105.554866 71.04 
L 105.554866 68.352 
L 105.554866 65.664 
L 105.554866 62.976 
L 105.554866 60.288 
L 105.554866 57.6 
L 105.554866 54.912 
L 105.554866 52.224 
L 105.554866 49.536 
L 105.554866 46.848 
L 105.554866 44.16 
L 105.554866 41.472 
L 91.940715 41.472 
L 91.940715 44.16 
L 91.940715 46.848 
L 91.940715 49.536 
L 91.940715 52.224 
L 91.940715 54.912 
L 91.940715 57.6 
L 91.940715 60.288 
L 91.940715 62.976 
L 91.940715 65.664 
L 91.940715 68.352 
L 91.940715 71.04 
L 91.940715 73.728 
L 91.940715 76.416 
L 91.940715 79.104 
L 91.940715 81.792 
L 91.940715 84.48 
L 91.940715 87.168 
L 91.940715 89.856 
L 91.940715 92.544 
L 91.940715 95.232 
L 91.940715 97.92 
L 91.940715 100.608 
L 91.940715 103.296 
L 91.940715 105.984 
L 91.940715 108.672 
L 91.940715 111.36 
L 91.940715 114.048 
L 91.940715 116.736 
L 91.940715 119.424 
L 91.940715 122.112 
L 91.940715 124.8 
L 91.940715 127.488 
L 91.940715 130.176 
L 91.940715 132.864 
L 91.940715 135.552 
L 91.940715 138.24 
L 91.940715 140.928 
L 91.940715 143.616 
L 91.940715 146.304 
L 91.940715 148.992 
L 91.940715 151.68 
L 91.940715 154.368 
L 91.940715 157.056 
L 91.940715 159.744 
L 91.940715 162.432 
L 91.940715 165.12 
L 91.940715 167.808 
L 91.940715 170.496 
L 91.940715 173.184 
L 91.940715 175.872 
L 91.940715 178.56 
L 91.940715 181.248 
L 91.940715 183.936 
L 91.940715 186.624 
L 91.940715 189.312 
L 91.940715 192 
L 91.940715 194.688 
L 91.940715 197.376 
L 91.940715 200.064 
L 91.940715 202.752 
L 91.940715 205.44 
L 91.940715 208.128 
L 91.940715 210.816 
L 91.940715 213.504 
L 91.940715 216.192 
L 91.940715 218.88 
L 91.940715 221.568 
L 91.940715 224.256 
L 91.940715 226.944 
L 91.940715 229.632 
L 94.110677 232.32 
L 94.110677 235.008 
L 94.110677 237.696 
L 94.110677 240.384 
L 94.110677 243.072 
L 94.110677 245.76 
L 94.110677 248.448 
L 94.110677 251.136 
L 94.110677 253.824 
L 94.110677 256.512 
L 94.110677 259.2 
L 94.110677 261.888 
L 94.110677 264.576 
L 94.110677 267.264 
L 94.110677 269.952 
L 94.110677 272.64 
L 94.110677 275.328 
L 94.110677 278.016 
L 94.110677 280.704 
L 94.110677 283.392 
L 94.110677 286.08 
L 94.110677 288.768 
L 94.110677 291.456 
L 94.110677 294.144 
L 94.110677 296.832 
L 94.110677 299.52 
L 94.110677 302.208 
L 94.110677 304.896 
L 94.110677 307.584 
L 107.724828 307.584 
z
" clip-path="url(#pf68b8f5385)" style="fill: #21908d; fill-opacity: 0.75"/>
   </g>
   <g id="PathCollection_5">
    <path d="M 121.338979 304.896 
L 121.338979 302.208 
L 121.338979 299.52 
L 121.338979 296.832 
L 121.338979 294.144 
L 121.338979 291.456 
L 121.338979 288.768 
L 121.338979 286.08 
L 121.338979 283.392 
L 121.338979 280.704 
L 121.338979 278.016 
L 121.338979 275.328 
L 121.338979 272.64 
L 121.338979 269.952 
L 121.338979 267.264 
L 121.338979 264.576 
L 121.338979 261.888 
L 121.338979 259.2 
L 121.338979 256.512 
L 121.338979 253.824 
L 121.338979 251.136 
L 121.338979 248.448 
L 121.338979 245.76 
L 121.338979 243.072 
L 121.338979 240.384 
L 121.338979 237.696 
L 121.338979 235.008 
L 121.338979 232.32 
L 119.169017 229.632 
L 119.169017 226.944 
L 119.169017 224.256 
L 119.169017 221.568 
L 119.169017 218.88 
L 119.169017 216.192 
L 119.169017 213.504 
L 119.169017 210.816 
L 119.169017 208.128 
L 119.169017 205.44 
L 119.169017 202.752 
L 119.169017 200.064 
L 119.169017 197.376 
L 119.169017 194.688 
L 119.169017 192 
L 119.169017 189.312 
L 119.169017 186.624 
L 119.169017 183.936 
L 119.169017 181.248 
L 119.169017 178.56 
L 119.169017 175.872 
L 119.169017 173.184 
L 119.169017 170.496 
L 119.169017 167.808 
L 119.169017 165.12 
L 119.169017 162.432 
L 119.169017 159.744 
L 119.169017 157.056 
L 119.169017 154.368 
L 119.169017 151.68 
L 119.169017 148.992 
L 119.169017 146.304 
L 119.169017 143.616 
L 119.169017 140.928 
L 119.169017 138.24 
L 119.169017 135.552 
L 119.169017 132.864 
L 119.169017 130.176 
L 119.169017 127.488 
L 119.169017 124.8 
L 119.169017 122.112 
L 119.169017 119.424 
L 119.169017 116.736 
L 119.169017 114.048 
L 119.169017 111.36 
L 119.169017 108.672 
L 119.169017 105.984 
L 119.169017 103.296 
L 119.169017 100.608 
L 119.169017 97.92 
L 119.169017 95.232 
L 119.169017 92.544 
L 119.169017 89.856 
L 119.169017 87.168 
L 119.169017 84.48 
L 119.169017 81.792 
L 119.169017 79.104 
L 119.169017 76.416 
L 119.169017 73.728 
L 119.169017 71.04 
L 119.169017 68.352 
L 119.169017 65.664 
L 119.169017 62.976 
L 119.169017 60.288 
L 119.169017 57.6 
L 119.169017 54.912 
L 119.169017 52.224 
L 119.169017 49.536 
L 119.169017 46.848 
L 119.169017 44.16 
L 119.169017 41.472 
L 105.554866 41.472 
L 105.554866 44.16 
L 105.554866 46.848 
L 105.554866 49.536 
L 105.554866 52.224 
L 105.554866 54.912 
L 105.554866 57.6 
L 105.554866 60.288 
L 105.554866 62.976 
L 105.554866 65.664 
L 105.554866 68.352 
L 105.554866 71.04 
L 105.554866 73.728 
L 105.554866 76.416 
L 105.554866 79.104 
L 105.554866 81.792 
L 105.554866 84.48 
L 105.554866 87.168 
L 105.554866 89.856 
L 105.554866 92.544 
L 105.554866 95.232 
L 105.554866 97.92 
L 105.554866 100.608 
L 105.554866 103.296 
L 105.554866 105.984 
L 105.554866 108.672 
L 105.554866 111.36 
L 105.554866 114.048 
L 105.554866 116.736 
L 105.554866 119.424 
L 105.554866 122.112 
L 105.554866 124.8 
L 105.554866 127.488 
L 105.554866 130.176 
L 105.554866 132.864 
L 105.554866 135.552 
L 105.554866 138.24 
L 105.554866 140.928 
L 105.554866 143.616 
L 105.554866 146.304 
L 105.554866 148.992 
L 105.554866 151.68 
L 105.554866 154.368 
L 105.554866 157.056 
L 105.554866 159.744 
L 105.554866 162.432 
L 105.554866 165.12 
L 105.554866 167.808 
L 105.554866 170.496 
L 105.554866 173.184 
L 105.554866 175.872 
L 105.554866 178.56 
L 105.554866 181.248 
L 105.554866 183.936 
L 105.554866 186.624 
L 105.554866 189.312 
L 105.554866 192 
L 105.554866 194.688 
L 105.554866 197.376 
L 105.554866 200.064 
L 105.554866 202.752 
L 105.554866 205.44 
L 105.554866 208.128 
L 105.554866 210.816 
L 105.554866 213.504 
L 105.554866 216.192 
L 105.554866 218.88 
L 105.554866 221.568 
L 105.554866 224.256 
L 105.554866 226.944 
L 105.554866 229.632 
L 107.724828 232.32 
L 107.724828 235.008 
L 107.724828 237.696 
L 107.724828 240.384 
L 107.724828 243.072 
L 107.724828 245.76 
L 107.724828 248.448 
L 107.724828 251.136 
L 107.724828 253.824 
L 107.724828 256.512 
L 107.724828 259.2 
L 107.724828 261.888 
L 107.724828 264.576 
L 107.724828 267.264 
L 107.724828 269.952 
L 107.724828 272.64 
L 107.724828 275.328 
L 107.724828 278.016 
L 107.724828 280.704 
L 107.724828 283.392 
L 107.724828 286.08 
L 107.724828 288.768 
L 107.724828 291.456 
L 107.724828 294.144 
L 107.724828 296.832 
L 107.724828 299.52 
L 107.724828 302.208 
L 107.724828 304.896 
L 107.724828 307.584 
L 121.338979 307.584 
z
" clip-path="url(#pf68b8f5385)" style="fill: #2db27d; fill-opacity: 0.75"/>
   </g>
   <g id="PathCollection_6">
    <path d="M 129.024 307.584 
L 161.495782 307.584 
L 161.495782 304.896 
L 161.495782 302.208 
L 161.495782 299.52 
L 161.495782 296.832 
L 161.495782 294.144 
L 161.495782 291.456 
L 161.495782 288.768 
L 161.495782 286.08 
L 161.495782 283.392 
L 161.495782 280.704 
L 161.495782 278.016 
L 161.495782 275.328 
L 161.495782 272.64 
L 161.495782 269.952 
L 161.495782 267.264 
L 161.495782 264.576 
L 161.495782 261.888 
L 161.495782 259.2 
L 161.495782 256.512 
L 161.495782 253.824 
L 161.495782 251.136 
L 161.495782 248.448 
L 161.495782 245.76 
L 161.495782 243.072 
L 161.495782 240.384 
L 161.495782 237.696 
L 161.495782 235.008 
L 161.495782 232.32 
L 149.611655 229.632 
L 149.611655 226.944 
L 149.611655 224.256 
L 149.611655 221.568 
L 149.611655 218.88 
L 149.611655 216.192 
L 149.611655 213.504 
L 149.611655 210.816 
L 149.611655 208.128 
L 149.611655 205.44 
L 149.611655 202.752 
L 149.611655 200.064 
L 149.611655 197.376 
L 149.611655 194.688 
L 149.611655 192 
L 149.611655 189.312 
L 149.611655 186.624 
L 149.611655 183.936 
L 149.611655 181.248 
L 149.611655 178.56 
L 149.611655 175.872 
L 149.611655 173.184 
L 149.611655 170.496 
L 149.611655 167.808 
L 149.611655 165.12 
L 149.611655 162.432 
L 149.611655 159.744 
L 149.611655 157.056 
L 149.611655 154.368 
L 149.611655 151.68 
L 149.611655 148.992 
L 149.611655 146.304 
L 149.611655 143.616 
L 149.611655 140.928 
L 149.611655 138.24 
L 149.611655 135.552 
L 149.611655 132.864 
L 149.611655 130.176 
L 149.611655 127.488 
L 149.611655 124.8 
L 149.611655 122.112 
L 149.611655 119.424 
L 149.611655 116.736 
L 149.611655 114.048 
L 149.611655 111.36 
L 149.611655 108.672 
L 149.611655 105.984 
L 149.611655 103.296 
L 149.611655 100.608 
L 149.611655 97.92 
L 149.611655 95.232 
L 149.611655 92.544 
L 149.611655 89.856 
L 149.611655 87.168 
L 149.611655 84.48 
L 149.611655 81.792 
L 149.611655 79.104 
L 149.611655 76.416 
L 149.611655 73.728 
L 149.611655 71.04 
L 149.611655 68.352 
L 149.611655 65.664 
L 149.611655 62.976 
L 149.611655 60.288 
L 149.611655 57.6 
L 149.611655 54.912 
L 149.611655 52.224 
L 149.611655 49.536 
L 149.611655 46.848 
L 149.611655 44.16 
L 149.611655 41.472 
L 129.024 41.472 
L 119.169017 41.472 
L 119.169017 44.16 
L 119.169017 46.848 
L 119.169017 49.536 
L 119.169017 52.224 
L 119.169017 54.912 
L 119.169017 57.6 
L 119.169017 60.288 
L 119.169017 62.976 
L 119.169017 65.664 
L 119.169017 68.352 
L 119.169017 71.04 
L 119.169017 73.728 
L 119.169017 76.416 
L 119.169017 79.104 
L 119.169017 81.792 
L 119.169017 84.48 
L 119.169017 87.168 
L 119.169017 89.856 
L 119.169017 92.544 
L 119.169017 95.232 
L 119.169017 97.92 
L 119.169017 100.608 
L 119.169017 103.296 
L 119.169017 105.984 
L 119.169017 108.672 
L 119.169017 111.36 
L 119.169017 114.048 
L 119.169017 116.736 
L 119.169017 119.424 
L 119.169017 122.112 
L 119.169017 124.8 
L 119.169017 127.488 
L 119.169017 130.176 
L 119.169017 132.864 
L 119.169017 135.552 
L 119.169017 138.24 
L 119.169017 140.928 
L 119.169017 143.616 
L 119.169017 146.304 
L 119.169017 148.992 
L 119.169017 151.68 
L 119.169017 154.368 
L 119.169017 157.056 
L 119.169017 159.744 
L 119.169017 162.432 
L 119.169017 165.12 
L 119.169017 167.808 
L 119.169017 170.496 
L 119.169017 173.184 
L 119.169017 175.872 
L 119.169017 178.56 
L 119.169017 181.248 
L 119.169017 183.936 
L 119.169017 186.624 
L 119.169017 189.312 
L 119.169017 192 
L 119.169017 194.688 
L 119.169017 197.376 
L 119.169017 200.064 
L 119.169017 202.752 
L 119.169017 205.44 
L 119.169017 208.128 
L 119.169017 210.816 
L 119.169017 213.504 
L 119.169017 216.192 
L 119.169017 218.88 
L 119.169017 221.568 
L 119.169017 224.256 
L 119.169017 226.944 
L 119.169017 229.632 
L 121.338979 232.32 
L 121.338979 235.008 
L 121.338979 237.696 
L 121.338979 240.384 
L 121.338979 243.072 
L 121.338979 245.76 
L 121.338979 248.448 
L 121.338979 251.136 
L 121.338979 253.824 
L 121.338979 256.512 
L 121.338979 259.2 
L 121.338979 261.888 
L 121.338979 264.576 
L 121.338979 267.264 
L 121.338979 269.952 
L 121.338979 272.64 
L 121.338979 275.328 
L 121.338979 278.016 
L 121.338979 280.704 
L 121.338979 283.392 
L 121.338979 286.08 
L 121.338979 288.768 
L 121.338979 291.456 
L 121.338979 294.144 
L 121.338979 296.832 
L 121.338979 299.52 
L 121.338979 302.208 
L 121.338979 304.896 
L 121.338979 307.584 
z
" clip-path="url(#pf68b8f5385)" style="fill: #73d056; fill-opacity: 0.75"/>
   </g>
   <g id="PathCollection_7">
    <path d="M 200.448 307.584 
L 271.872 307.584 
L 343.296 307.584 
L 414.72 307.584 
L 414.72 304.896 
L 414.72 302.208 
L 414.72 299.52 
L 414.72 296.832 
L 414.72 294.144 
L 414.72 291.456 
L 414.72 288.768 
L 414.72 286.08 
L 414.72 283.392 
L 414.72 280.704 
L 414.72 278.016 
L 414.72 275.328 
L 414.72 272.64 
L 414.72 269.952 
L 414.72 267.264 
L 414.72 264.576 
L 414.72 261.888 
L 414.72 259.2 
L 414.72 256.512 
L 414.72 253.824 
L 414.72 251.136 
L 414.72 248.448 
L 414.72 245.76 
L 414.72 243.072 
L 414.72 240.384 
L 414.72 237.696 
L 414.72 235.008 
L 414.72 232.32 
L 414.72 229.632 
L 414.72 226.944 
L 414.72 224.256 
L 414.72 221.568 
L 414.72 218.88 
L 414.72 216.192 
L 414.72 213.504 
L 414.72 210.816 
L 414.72 208.128 
L 414.72 205.44 
L 414.72 202.752 
L 414.72 200.064 
L 414.72 197.376 
L 414.72 194.688 
L 414.72 192 
L 414.72 189.312 
L 414.72 186.624 
L 414.72 183.936 
L 414.72 181.248 
L 414.72 178.56 
L 414.72 175.872 
L 414.72 173.184 
L 414.72 170.496 
L 414.72 167.808 
L 414.72 165.12 
L 414.72 162.432 
L 414.72 159.744 
L 414.72 157.056 
L 414.72 154.368 
L 414.72 151.68 
L 414.72 148.992 
L 414.72 146.304 
L 414.72 143.616 
L 414.72 140.928 
L 414.72 138.24 
L 414.72 135.552 
L 414.72 132.864 
L 414.72 130.176 
L 414.72 127.488 
L 414.72 124.8 
L 414.72 122.112 
L 414.72 119.424 
L 414.72 116.736 
L 414.72 114.048 
L 414.72 111.36 
L 414.72 108.672 
L 414.72 105.984 
L 414.72 103.296 
L 414.72 100.608 
L 414.72 97.92 
L 414.72 95.232 
L 414.72 92.544 
L 414.72 89.856 
L 414.72 87.168 
L 414.72 84.48 
L 414.72 81.792 
L 414.72 79.104 
L 414.72 76.416 
L 414.72 73.728 
L 414.72 71.04 
L 414.72 68.352 
L 414.72 65.664 
L 414.72 62.976 
L 414.72 60.288 
L 414.72 57.6 
L 414.72 54.912 
L 414.72 52.224 
L 414.72 49.536 
L 414.72 46.848 
L 414.72 44.16 
L 414.72 41.472 
L 343.296 41.472 
L 271.872 41.472 
L 200.448 41.472 
L 149.611655 41.472 
L 149.611655 44.16 
L 149.611655 46.848 
L 149.611655 49.536 
L 149.611655 52.224 
L 149.611655 54.912 
L 149.611655 57.6 
L 149.611655 60.288 
L 149.611655 62.976 
L 149.611655 65.664 
L 149.611655 68.352 
L 149.611655 71.04 
L 149.611655 73.728 
L 149.611655 76.416 
L 149.611655 79.104 
L 149.611655 81.792 
L 149.611655 84.48 
L 149.611655 87.168 
L 149.611655 89.856 
L 149.611655 92.544 
L 149.611655 95.232 
L 149.611655 97.92 
L 149.611655 100.608 
L 149.611655 103.296 
L 149.611655 105.984 
L 149.611655 108.672 
L 149.611655 111.36 
L 149.611655 114.048 
L 149.611655 116.736 
L 149.611655 119.424 
L 149.611655 122.112 
L 149.611655 124.8 
L 149.611655 127.488 
L 149.611655 130.176 
L 149.611655 132.864 
L 149.611655 135.552 
L 149.611655 138.24 
L 149.611655 140.928 
L 149.611655 143.616 
L 149.611655 146.304 
L 149.611655 148.992 
L 149.611655 151.68 
L 149.611655 154.368 
L 149.611655 157.056 
L 149.611655 159.744 
L 149.611655 162.432 
L 149.611655 165.12 
L 149.611655 167.808 
L 149.611655 170.496 
L 149.611655 173.184 
L 149.611655 175.872 
L 149.611655 178.56 
L 149.611655 181.248 
L 149.611655 183.936 
L 149.611655 186.624 
L 149.611655 189.312 
L 149.611655 192 
L 149.611655 194.688 
L 149.611655 197.376 
L 149.611655 200.064 
L 149.611655 202.752 
L 149.611655 205.44 
L 149.611655 208.128 
L 149.611655 210.816 
L 149.611655 213.504 
L 149.611655 216.192 
L 149.611655 218.88 
L 149.611655 221.568 
L 149.611655 224.256 
L 149.611655 226.944 
L 149.611655 229.632 
L 161.495782 232.32 
L 161.495782 235.008 
L 161.495782 237.696 
L 161.495782 240.384 
L 161.495782 243.072 
L 161.495782 245.76 
L 161.495782 248.448 
L 161.495782 251.136 
L 161.495782 253.824 
L 161.495782 256.512 
L 161.495782 259.2 
L 161.495782 261.888 
L 161.495782 264.576 
L 161.495782 267.264 
L 161.495782 269.952 
L 161.495782 272.64 
L 161.495782 275.328 
L 161.495782 278.016 
L 161.495782 280.704 
L 161.495782 283.392 
L 161.495782 286.08 
L 161.495782 288.768 
L 161.495782 291.456 
L 161.495782 294.144 
L 161.495782 296.832 
L 161.495782 299.52 
L 161.495782 302.208 
L 161.495782 304.896 
L 161.495782 307.584 
z
" clip-path="url(#pf68b8f5385)" style="fill: #d0e11c; fill-opacity: 0.75"/>
   </g>
   <g id="matplotlib.axis_1">
    <g id="xtick_1">
     <g id="line2d_1">
      <defs>
       <path id="m0bc36b9c5f" d="M 0 0 
L 0 3.5 
" style="stroke: #000000; stroke-width: 0.8"/>
      </defs>
      <g>
       <use xlink:href="#m0bc36b9c5f" x="86.710287" y="307.584" style="stroke: #000000; stroke-width: 0.8"/>
      </g>
     </g>
     <g id="text_1">
      <!-- −1.0 -->
      <g transform="translate(74.568881 322.182437) scale(0.1 -0.1)">
       <defs>
        <path id="DejaVuSans-2212" d="M 678 2272 
L 4684 2272 
L 4684 1741 
L 678 1741 
L 678 2272 
z
" transform="scale(0.015625)"/>
        <path id="DejaVuSans-31" d="M 794 531 
L 1825 531 
L 1825 4091 
L 703 3866 
L 703 4441 
L 1819 4666 
L 2450 4666 
L 2450 531 
L 3481 531 
L 3481 0 
L 794 0 
L 794 531 
z
" transform="scale(0.015625)"/>
        <path id="DejaVuSans-2e" d="M 684 794 
L 1344 794 
L 1344 0 
L 684 0 
L 684 794 
z
" transform="scale(0.015625)"/>
        <path id="DejaVuSans-30" d="M 2034 4250 
Q 1547 4250 1301 3770 
Q 1056 3291 1056 2328 
Q 1056 1369 1301 889 
Q 1547 409 2034 409 
Q 2525 409 2770 889 
Q 3016 1369 3016 2328 
Q 3016 3291 2770 3770 
Q 2525 4250 2034 4250 
z
M 2034 4750 
Q 2819 4750 3233 4129 
Q 3647 3509 3647 2328 
Q 3647 1150 3233 529 
Q 2819 -91 2034 -91 
Q 1250 -91 836 529 
Q 422 1150 422 2328 
Q 422 3509 836 4129 
Q 1250 4750 2034 4750 
z
" transform="scale(0.015625)"/>
       </defs>
       <use xlink:href="#DejaVuSans-2212"/>
       <use xlink:href="#DejaVuSans-31" x="83.789062"/>
       <use xlink:href="#DejaVuSans-2e" x="147.412109"/>
       <use xlink:href="#DejaVuSans-30" x="179.199219"/>
      </g>
     </g>
    </g>
    <g id="xtick_2">
     <g id="line2d_2">
      <g>
       <use xlink:href="#m0bc36b9c5f" x="144.500744" y="307.584" style="stroke: #000000; stroke-width: 0.8"/>
      </g>
     </g>
     <g id="text_2">
      <!-- −0.5 -->
      <g transform="translate(132.359337 322.182437) scale(0.1 -0.1)">
       <defs>
        <path id="DejaVuSans-35" d="M 691 4666 
L 3169 4666 
L 3169 4134 
L 1269 4134 
L 1269 2991 
Q 1406 3038 1543 3061 
Q 1681 3084 1819 3084 
Q 2600 3084 3056 2656 
Q 3513 2228 3513 1497 
Q 3513 744 3044 326 
Q 2575 -91 1722 -91 
Q 1428 -91 1123 -41 
Q 819 9 494 109 
L 494 744 
Q 775 591 1075 516 
Q 1375 441 1709 441 
Q 2250 441 2565 725 
Q 2881 1009 2881 1497 
Q 2881 1984 2565 2268 
Q 2250 2553 1709 2553 
Q 1456 2553 1204 2497 
Q 953 2441 691 2322 
L 691 4666 
z
" transform="scale(0.015625)"/>
       </defs>
       <use xlink:href="#DejaVuSans-2212"/>
       <use xlink:href="#DejaVuSans-30" x="83.789062"/>
       <use xlink:href="#DejaVuSans-2e" x="147.412109"/>
       <use xlink:href="#DejaVuSans-35" x="179.199219"/>
      </g>
     </g>
    </g>
    <g id="xtick_3">
     <g id="line2d_3">
      <g>
       <use xlink:href="#m0bc36b9c5f" x="202.2912" y="307.584" style="stroke: #000000; stroke-width: 0.8"/>
      </g>
     </g>
     <g id="text_3">
      <!-- 0.0 -->
      <g transform="translate(194.339638 322.182437) scale(0.1 -0.1)">
       <use xlink:href="#DejaVuSans-30"/>
       <use xlink:href="#DejaVuSans-2e" x="63.623047"/>
       <use xlink:href="#DejaVuSans-30" x="95.410156"/>
      </g>
     </g>
    </g>
    <g id="xtick_4">
     <g id="line2d_4">
      <g>
       <use xlink:href="#m0bc36b9c5f" x="260.081656" y="307.584" style="stroke: #000000; stroke-width: 0.8"/>
      </g>
     </g>
     <g id="text_4">
      <!-- 0.5 -->
      <g transform="translate(252.130094 322.182437) scale(0.1 -0.1)">
       <use xlink:href="#DejaVuSans-30"/>
       <use xlink:href="#DejaVuSans-2e" x="63.623047"/>
       <use xlink:href="#DejaVuSans-35" x="95.410156"/>
      </g>
     </g>
    </g>
    <g id="xtick_5">
     <g id="line2d_5">
      <g>
       <use xlink:href="#m0bc36b9c5f" x="317.872113" y="307.584" style="stroke: #000000; stroke-width: 0.8"/>
      </g>
     </g>
     <g id="text_5">
      <!-- 1.0 -->
      <g transform="translate(309.92055 322.182437) scale(0.1 -0.1)">
       <use xlink:href="#DejaVuSans-31"/>
       <use xlink:href="#DejaVuSans-2e" x="63.623047"/>
       <use xlink:href="#DejaVuSans-30" x="95.410156"/>
      </g>
     </g>
    </g>
    <g id="xtick_6">
     <g id="line2d_6">
      <g>
       <use xlink:href="#m0bc36b9c5f" x="375.662569" y="307.584" style="stroke: #000000; stroke-width: 0.8"/>
      </g>
     </g>
     <g id="text_6">
      <!-- 1.5 -->
      <g transform="translate(367.711006 322.182437) scale(0.1 -0.1)">
       <use xlink:href="#DejaVuSans-31"/>
       <use xlink:href="#DejaVuSans-2e" x="63.623047"/>
       <use xlink:href="#DejaVuSans-35" x="95.410156"/>
      </g>
     </g>
    </g>
    <g id="text_7">
     <!-- Parent Location -->
     <g transform="translate(197.420156 335.860562) scale(0.1 -0.1)">
      <defs>
       <path id="DejaVuSans-50" d="M 1259 4147 
L 1259 2394 
L 2053 2394 
Q 2494 2394 2734 2622 
Q 2975 2850 2975 3272 
Q 2975 3691 2734 3919 
Q 2494 4147 2053 4147 
L 1259 4147 
z
M 628 4666 
L 2053 4666 
Q 2838 4666 3239 4311 
Q 3641 3956 3641 3272 
Q 3641 2581 3239 2228 
Q 2838 1875 2053 1875 
L 1259 1875 
L 1259 0 
L 628 0 
L 628 4666 
z
" transform="scale(0.015625)"/>
       <path id="DejaVuSans-61" d="M 2194 1759 
Q 1497 1759 1228 1600 
Q 959 1441 959 1056 
Q 959 750 1161 570 
Q 1363 391 1709 391 
Q 2188 391 2477 730 
Q 2766 1069 2766 1631 
L 2766 1759 
L 2194 1759 
z
M 3341 1997 
L 3341 0 
L 2766 0 
L 2766 531 
Q 2569 213 2275 61 
Q 1981 -91 1556 -91 
Q 1019 -91 701 211 
Q 384 513 384 1019 
Q 384 1609 779 1909 
Q 1175 2209 1959 2209 
L 2766 2209 
L 2766 2266 
Q 2766 2663 2505 2880 
Q 2244 3097 1772 3097 
Q 1472 3097 1187 3025 
Q 903 2953 641 2809 
L 641 3341 
Q 956 3463 1253 3523 
Q 1550 3584 1831 3584 
Q 2591 3584 2966 3190 
Q 3341 2797 3341 1997 
z
" transform="scale(0.015625)"/>
       <path id="DejaVuSans-72" d="M 2631 2963 
Q 2534 3019 2420 3045 
Q 2306 3072 2169 3072 
Q 1681 3072 1420 2755 
Q 1159 2438 1159 1844 
L 1159 0 
L 581 0 
L 581 3500 
L 1159 3500 
L 1159 2956 
Q 1341 3275 1631 3429 
Q 1922 3584 2338 3584 
Q 2397 3584 2469 3576 
Q 2541 3569 2628 3553 
L 2631 2963 
z
" transform="scale(0.015625)"/>
       <path id="DejaVuSans-65" d="M 3597 1894 
L 3597 1613 
L 953 1613 
Q 991 1019 1311 708 
Q 1631 397 2203 397 
Q 2534 397 2845 478 
Q 3156 559 3463 722 
L 3463 178 
Q 3153 47 2828 -22 
Q 2503 -91 2169 -91 
Q 1331 -91 842 396 
Q 353 884 353 1716 
Q 353 2575 817 3079 
Q 1281 3584 2069 3584 
Q 2775 3584 3186 3129 
Q 3597 2675 3597 1894 
z
M 3022 2063 
Q 3016 2534 2758 2815 
Q 2500 3097 2075 3097 
Q 1594 3097 1305 2825 
Q 1016 2553 972 2059 
L 3022 2063 
z
" transform="scale(0.015625)"/>
       <path id="DejaVuSans-6e" d="M 3513 2113 
L 3513 0 
L 2938 0 
L 2938 2094 
Q 2938 2591 2744 2837 
Q 2550 3084 2163 3084 
Q 1697 3084 1428 2787 
Q 1159 2491 1159 1978 
L 1159 0 
L 581 0 
L 581 3500 
L 1159 3500 
L 1159 2956 
Q 1366 3272 1645 3428 
Q 1925 3584 2291 3584 
Q 2894 3584 3203 3211 
Q 3513 2838 3513 2113 
z
" transform="scale(0.015625)"/>
       <path id="DejaVuSans-74" d="M 1172 4494 
L 1172 3500 
L 2356 3500 
L 2356 3053 
L 1172 3053 
L 1172 1153 
Q 1172 725 1289 603 
Q 1406 481 1766 481 
L 2356 481 
L 2356 0 
L 1766 0 
Q 1100 0 847 248 
Q 594 497 594 1153 
L 594 3053 
L 172 3053 
L 172 3500 
L 594 3500 
L 594 4494 
L 1172 4494 
z
" transform="scale(0.015625)"/>
       <path id="DejaVuSans-20" transform="scale(0.015625)"/>
       <path id="DejaVuSans-4c" d="M 628 4666 
L 1259 4666 
L 1259 531 
L 3531 531 
L 3531 0 
L 628 0 
L 628 4666 
z
" transform="scale(0.015625)"/>
       <path id="DejaVuSans-6f" d="M 1959 3097 
Q 1497 3097 1228 2736 
Q 959 2375 959 1747 
Q 959 1119 1226 758 
Q 1494 397 1959 397 
Q 2419 397 2687 759 
Q 2956 1122 2956 1747 
Q 2956 2369 2687 2733 
Q 2419 3097 1959 3097 
z
M 1959 3584 
Q 2709 3584 3137 3096 
Q 3566 2609 3566 1747 
Q 3566 888 3137 398 
Q 2709 -91 1959 -91 
Q 1206 -91 779 398 
Q 353 888 353 1747 
Q 353 2609 779 3096 
Q 1206 3584 1959 3584 
z
" transform="scale(0.015625)"/>
       <path id="DejaVuSans-63" d="M 3122 3366 
L 3122 2828 
Q 2878 2963 2633 3030 
Q 2388 3097 2138 3097 
Q 1578 3097 1268 2742 
Q 959 2388 959 1747 
Q 959 1106 1268 751 
Q 1578 397 2138 397 
Q 2388 397 2633 464 
Q 2878 531 3122 666 
L 3122 134 
Q 2881 22 2623 -34 
Q 2366 -91 2075 -91 
Q 1284 -91 818 406 
Q 353 903 353 1747 
Q 353 2603 823 3093 
Q 1294 3584 2113 3584 
Q 2378 3584 2631 3529 
Q 2884 3475 3122 3366 
z
" transform="scale(0.015625)"/>
       <path id="DejaVuSans-69" d="M 603 3500 
L 1178 3500 
L 1178 0 
L 603 0 
L 603 3500 
z
M 603 4863 
L 1178 4863 
L 1178 4134 
L 603 4134 
L 603 4863 
z
" transform="scale(0.015625)"/>
      </defs>
      <use xlink:href="#DejaVuSans-50"/>
      <use xlink:href="#DejaVuSans-61" x="55.802734"/>
      <use xlink:href="#DejaVuSans-72" x="117.082031"/>
      <use xlink:href="#DejaVuSans-65" x="155.945312"/>
      <use xlink:href="#DejaVuSans-6e" x="217.46875"/>
      <use xlink:href="#DejaVuSans-74" x="280.847656"/>
      <use xlink:href="#DejaVuSans-20" x="320.056641"/>
      <use xlink:href="#DejaVuSans-4c" x="351.84375"/>
      <use xlink:href="#DejaVuSans-6f" x="405.806641"/>
      <use xlink:href="#DejaVuSans-63" x="466.988281"/>
      <use xlink:href="#DejaVuSans-61" x="521.96875"/>
      <use xlink:href="#DejaVuSans-74" x="583.248047"/>
      <use xlink:href="#DejaVuSans-69" x="622.457031"/>
      <use xlink:href="#DejaVuSans-6f" x="650.240234"/>
      <use xlink:href="#DejaVuSans-6e" x="711.421875"/>
     </g>
    </g>
   </g>
   <g id="matplotlib.axis_2">
    <g id="ytick_1">
     <g id="line2d_7">
      <defs>
       <path id="md6e6550d60" d="M 0 0 
L -3.5 0 
" style="stroke: #000000; stroke-width: 0.8"/>
      </defs>
      <g>
       <use xlink:href="#md6e6550d60" x="57.6" y="263.711114" style="stroke: #000000; stroke-width: 0.8"/>
      </g>
     </g>
     <g id="text_8">
      <!-- −1.0 -->
      <g transform="translate(26.317187 267.510333) scale(0.1 -0.1)">
       <use xlink:href="#DejaVuSans-2212"/>
       <use xlink:href="#DejaVuSans-31" x="83.789062"/>
       <use xlink:href="#DejaVuSans-2e" x="147.412109"/>
       <use xlink:href="#DejaVuSans-30" x="179.199219"/>
      </g>
     </g>
    </g>
    <g id="ytick_2">
     <g id="line2d_8">
      <g>
       <use xlink:href="#md6e6550d60" x="57.6" y="219.46227" style="stroke: #000000; stroke-width: 0.8"/>
      </g>
     </g>
     <g id="text_9">
      <!-- −0.5 -->
      <g transform="translate(26.317187 223.261489) scale(0.1 -0.1)">
       <use xlink:href="#DejaVuSans-2212"/>
       <use xlink:href="#DejaVuSans-30" x="83.789062"/>
       <use xlink:href="#DejaVuSans-2e" x="147.412109"/>
       <use xlink:href="#DejaVuSans-35" x="179.199219"/>
      </g>
     </g>
    </g>
    <g id="ytick_3">
     <g id="line2d_9">
      <g>
       <use xlink:href="#md6e6550d60" x="57.6" y="175.213425" style="stroke: #000000; stroke-width: 0.8"/>
      </g>
     </g>
     <g id="text_10">
      <!-- 0.0 -->
      <g transform="translate(34.696875 179.012644) scale(0.1 -0.1)">
       <use xlink:href="#DejaVuSans-30"/>
       <use xlink:href="#DejaVuSans-2e" x="63.623047"/>
       <use xlink:href="#DejaVuSans-30" x="95.410156"/>
      </g>
     </g>
    </g>
    <g id="ytick_4">
     <g id="line2d_10">
      <g>
       <use xlink:href="#md6e6550d60" x="57.6" y="130.964581" style="stroke: #000000; stroke-width: 0.8"/>
      </g>
     </g>
     <g id="text_11">
      <!-- 0.5 -->
      <g transform="translate(34.696875 134.7638) scale(0.1 -0.1)">
       <use xlink:href="#DejaVuSans-30"/>
       <use xlink:href="#DejaVuSans-2e" x="63.623047"/>
       <use xlink:href="#DejaVuSans-35" x="95.410156"/>
      </g>
     </g>
    </g>
    <g id="ytick_5">
     <g id="line2d_11">
      <g>
       <use xlink:href="#md6e6550d60" x="57.6" y="86.715736" style="stroke: #000000; stroke-width: 0.8"/>
      </g>
     </g>
     <g id="text_12">
      <!-- 1.0 -->
      <g transform="translate(34.696875 90.514955) scale(0.1 -0.1)">
       <use xlink:href="#DejaVuSans-31"/>
       <use xlink:href="#DejaVuSans-2e" x="63.623047"/>
       <use xlink:href="#DejaVuSans-30" x="95.410156"/>
      </g>
     </g>
    </g>
    <g id="ytick_6">
     <g id="line2d_12">
      <g>
       <use xlink:href="#md6e6550d60" x="57.6" y="42.466892" style="stroke: #000000; stroke-width: 0.8"/>
      </g>
     </g>
     <g id="text_13">
      <!-- 1.5 -->
      <g transform="translate(34.696875 46.266111) scale(0.1 -0.1)">
       <use xlink:href="#DejaVuSans-31"/>
       <use xlink:href="#DejaVuSans-2e" x="63.623047"/>
       <use xlink:href="#DejaVuSans-35" x="95.410156"/>
      </g>
     </g>
    </g>
    <g id="text_14">
     <!-- Obesity Rate -->
     <g transform="translate(20.2375 206.679563) rotate(-90) scale(0.1 -0.1)">
      <defs>
       <path id="DejaVuSans-4f" d="M 2522 4238 
Q 1834 4238 1429 3725 
Q 1025 3213 1025 2328 
Q 1025 1447 1429 934 
Q 1834 422 2522 422 
Q 3209 422 3611 934 
Q 4013 1447 4013 2328 
Q 4013 3213 3611 3725 
Q 3209 4238 2522 4238 
z
M 2522 4750 
Q 3503 4750 4090 4092 
Q 4678 3434 4678 2328 
Q 4678 1225 4090 567 
Q 3503 -91 2522 -91 
Q 1538 -91 948 565 
Q 359 1222 359 2328 
Q 359 3434 948 4092 
Q 1538 4750 2522 4750 
z
" transform="scale(0.015625)"/>
       <path id="DejaVuSans-62" d="M 3116 1747 
Q 3116 2381 2855 2742 
Q 2594 3103 2138 3103 
Q 1681 3103 1420 2742 
Q 1159 2381 1159 1747 
Q 1159 1113 1420 752 
Q 1681 391 2138 391 
Q 2594 391 2855 752 
Q 3116 1113 3116 1747 
z
M 1159 2969 
Q 1341 3281 1617 3432 
Q 1894 3584 2278 3584 
Q 2916 3584 3314 3078 
Q 3713 2572 3713 1747 
Q 3713 922 3314 415 
Q 2916 -91 2278 -91 
Q 1894 -91 1617 61 
Q 1341 213 1159 525 
L 1159 0 
L 581 0 
L 581 4863 
L 1159 4863 
L 1159 2969 
z
" transform="scale(0.015625)"/>
       <path id="DejaVuSans-73" d="M 2834 3397 
L 2834 2853 
Q 2591 2978 2328 3040 
Q 2066 3103 1784 3103 
Q 1356 3103 1142 2972 
Q 928 2841 928 2578 
Q 928 2378 1081 2264 
Q 1234 2150 1697 2047 
L 1894 2003 
Q 2506 1872 2764 1633 
Q 3022 1394 3022 966 
Q 3022 478 2636 193 
Q 2250 -91 1575 -91 
Q 1294 -91 989 -36 
Q 684 19 347 128 
L 347 722 
Q 666 556 975 473 
Q 1284 391 1588 391 
Q 1994 391 2212 530 
Q 2431 669 2431 922 
Q 2431 1156 2273 1281 
Q 2116 1406 1581 1522 
L 1381 1569 
Q 847 1681 609 1914 
Q 372 2147 372 2553 
Q 372 3047 722 3315 
Q 1072 3584 1716 3584 
Q 2034 3584 2315 3537 
Q 2597 3491 2834 3397 
z
" transform="scale(0.015625)"/>
       <path id="DejaVuSans-79" d="M 2059 -325 
Q 1816 -950 1584 -1140 
Q 1353 -1331 966 -1331 
L 506 -1331 
L 506 -850 
L 844 -850 
Q 1081 -850 1212 -737 
Q 1344 -625 1503 -206 
L 1606 56 
L 191 3500 
L 800 3500 
L 1894 763 
L 2988 3500 
L 3597 3500 
L 2059 -325 
z
" transform="scale(0.015625)"/>
       <path id="DejaVuSans-52" d="M 2841 2188 
Q 3044 2119 3236 1894 
Q 3428 1669 3622 1275 
L 4263 0 
L 3584 0 
L 2988 1197 
Q 2756 1666 2539 1819 
Q 2322 1972 1947 1972 
L 1259 1972 
L 1259 0 
L 628 0 
L 628 4666 
L 2053 4666 
Q 2853 4666 3247 4331 
Q 3641 3997 3641 3322 
Q 3641 2881 3436 2590 
Q 3231 2300 2841 2188 
z
M 1259 4147 
L 1259 2491 
L 2053 2491 
Q 2509 2491 2742 2702 
Q 2975 2913 2975 3322 
Q 2975 3731 2742 3939 
Q 2509 4147 2053 4147 
L 1259 4147 
z
" transform="scale(0.015625)"/>
      </defs>
      <use xlink:href="#DejaVuSans-4f"/>
      <use xlink:href="#DejaVuSans-62" x="78.710938"/>
      <use xlink:href="#DejaVuSans-65" x="142.1875"/>
      <use xlink:href="#DejaVuSans-73" x="203.710938"/>
      <use xlink:href="#DejaVuSans-69" x="255.810547"/>
      <use xlink:href="#DejaVuSans-74" x="283.59375"/>
      <use xlink:href="#DejaVuSans-79" x="322.802734"/>
      <use xlink:href="#DejaVuSans-20" x="381.982422"/>
      <use xlink:href="#DejaVuSans-52" x="413.769531"/>
      <use xlink:href="#DejaVuSans-61" x="481.001953"/>
      <use xlink:href="#DejaVuSans-74" x="542.28125"/>
      <use xlink:href="#DejaVuSans-65" x="581.490234"/>
     </g>
    </g>
   </g>
   <g id="PathCollection_8"/>
   <g id="PathCollection_9">
    <path d="M 64.712414 41.472 
L 64.712414 44.16 
L 64.712414 46.848 
L 64.712414 49.536 
L 64.712414 52.224 
L 64.712414 54.912 
L 64.712414 57.6 
L 64.712414 60.288 
L 64.712414 62.976 
L 64.712414 65.664 
L 64.712414 68.352 
L 64.712414 70.653 
" clip-path="url(#pf68b8f5385)" style="fill: none; stroke-dasharray: 1.85,0.8; stroke-dashoffset: 0; stroke: #000000; stroke-width: 0.5"/>
    <path d="M 64.712414 103.683 
L 64.712414 105.984 
L 64.712414 108.672 
L 64.712414 111.36 
L 64.712414 114.048 
L 64.712414 116.736 
L 64.712414 119.424 
L 64.712414 122.112 
L 64.712414 124.8 
L 64.712414 127.488 
L 64.712414 130.176 
L 64.712414 132.864 
L 64.712414 135.552 
L 64.712414 138.24 
L 64.712414 140.928 
L 64.712414 143.616 
L 64.712414 146.304 
L 64.712414 148.992 
L 64.712414 151.68 
L 64.712414 154.368 
L 64.712414 157.056 
L 64.712414 159.744 
L 64.712414 162.432 
L 64.712414 165.12 
L 64.712414 167.808 
L 64.712414 170.496 
L 64.712414 173.184 
L 64.712414 175.872 
L 64.712414 178.56 
L 64.712414 181.248 
L 64.712414 183.936 
L 64.712414 186.624 
L 64.712414 189.312 
L 64.712414 192 
L 64.712414 194.688 
L 64.712414 197.376 
L 64.712414 200.064 
L 64.712414 202.752 
L 64.712414 205.44 
L 64.712414 208.128 
L 64.712414 210.816 
L 64.712414 213.504 
L 64.712414 216.192 
L 64.712414 218.88 
L 64.712414 221.568 
L 64.712414 224.256 
L 64.712414 226.944 
L 64.712414 229.632 
L 66.882376 232.32 
L 66.882376 235.008 
L 66.882376 237.696 
L 66.882376 240.384 
L 66.882376 243.072 
L 66.882376 245.76 
L 66.882376 248.448 
L 66.882376 251.136 
L 66.882376 253.824 
L 66.882376 256.512 
L 66.882376 259.2 
L 66.882376 261.888 
L 66.882376 264.576 
L 66.882376 267.264 
L 66.882376 269.952 
L 66.882376 272.64 
L 66.882376 275.328 
L 66.882376 278.016 
L 66.882376 280.704 
L 66.882376 283.392 
L 66.882376 286.08 
L 66.882376 288.768 
L 66.882376 291.456 
L 66.882376 294.144 
L 66.882376 296.832 
L 66.882376 299.52 
L 66.882376 302.208 
L 66.882376 304.896 
L 66.882376 307.584 
" clip-path="url(#pf68b8f5385)" style="fill: none; stroke-dasharray: 1.85,0.8; stroke-dashoffset: 0; stroke: #000000; stroke-width: 0.5"/>
   </g>
   <g id="PathCollection_10">
    <path d="M 78.326564 41.472 
L 78.326564 44.16 
L 78.326564 46.848 
L 78.326564 49.536 
L 78.326564 52.224 
L 78.326564 54.912 
L 78.326564 57.6 
L 78.326564 60.288 
L 78.326564 62.976 
L 78.326564 65.664 
L 78.326564 68.352 
L 78.326564 71.04 
L 78.326564 73.728 
L 78.326564 76.416 
L 78.326564 79.104 
L 78.326564 81.792 
L 78.326564 84.48 
L 78.326564 87.168 
L 78.326564 89.856 
L 78.326564 92.544 
L 78.326564 95.232 
L 78.326564 97.92 
L 78.326564 100.608 
L 78.326564 103.296 
L 78.326564 105.984 
L 78.326564 108.672 
L 78.326564 111.36 
L 78.326564 114.048 
L 78.326564 116.736 
L 78.326564 119.424 
L 78.326564 122.112 
L 78.326564 124.8 
L 78.326564 127.488 
L 78.326564 130.176 
L 78.326564 132.864 
L 78.326564 135.552 
L 78.326564 138.24 
L 78.326564 140.928 
L 78.326564 143.616 
L 78.326564 146.304 
L 78.326564 148.992 
L 78.326564 151.68 
L 78.326564 154.368 
L 78.326564 157.056 
L 78.326564 159.744 
L 78.326564 162.432 
L 78.326564 164.733 
" clip-path="url(#pf68b8f5385)" style="fill: none; stroke-dasharray: 1.85,0.8; stroke-dashoffset: 0; stroke: #000000; stroke-width: 0.5"/>
    <path d="M 78.326564 197.763 
L 78.326564 200.064 
L 78.326564 202.752 
L 78.326564 205.44 
L 78.326564 208.128 
L 78.326564 210.816 
L 78.326564 213.504 
L 78.326564 216.192 
L 78.326564 218.88 
L 78.326564 221.568 
L 78.326564 224.256 
L 78.326564 226.944 
L 78.326564 229.632 
L 80.496526 232.32 
L 80.496526 235.008 
L 80.496526 237.696 
L 80.496526 240.384 
L 80.496526 243.072 
L 80.496526 245.76 
L 80.496526 248.448 
L 80.496526 251.136 
L 80.496526 253.824 
L 80.496526 256.512 
L 80.496526 259.2 
L 80.496526 261.888 
L 80.496526 264.576 
L 80.496526 267.264 
L 80.496526 269.952 
L 80.496526 272.64 
L 80.496526 275.328 
L 80.496526 278.016 
L 80.496526 280.704 
L 80.496526 283.392 
L 80.496526 286.08 
L 80.496526 288.768 
L 80.496526 291.456 
L 80.496526 294.144 
L 80.496526 296.832 
L 80.496526 299.52 
L 80.496526 302.208 
L 80.496526 304.896 
L 80.496526 307.584 
" clip-path="url(#pf68b8f5385)" style="fill: none; stroke-dasharray: 1.85,0.8; stroke-dashoffset: 0; stroke: #000000; stroke-width: 0.5"/>
   </g>
   <g id="PathCollection_11">
    <path d="M 91.940715 41.472 
L 91.940715 44.16 
L 91.940715 46.848 
L 91.940715 49.536 
L 91.940715 52.224 
L 91.940715 54.912 
L 91.940715 57.6 
L 91.940715 60.288 
L 91.940715 62.976 
L 91.940715 65.664 
L 91.940715 68.352 
L 91.940715 71.04 
L 91.940715 73.728 
L 91.940715 76.416 
L 91.940715 79.104 
L 91.940715 81.792 
L 91.940715 84.48 
L 91.940715 87.168 
L 91.940715 89.856 
L 91.940715 92.544 
L 91.940715 95.232 
L 91.940715 97.92 
L 91.940715 100.608 
L 91.940715 103.296 
L 91.940715 105.984 
L 91.940715 108.672 
L 91.940715 111.36 
L 91.940715 114.048 
L 91.940715 116.736 
L 91.940715 119.424 
L 91.940715 122.112 
L 91.940715 124.8 
L 91.940715 127.488 
L 91.940715 130.176 
L 91.940715 132.864 
L 91.940715 135.552 
L 91.940715 138.24 
L 91.940715 140.928 
L 91.940715 143.616 
L 91.940715 146.304 
L 91.940715 148.992 
L 91.940715 151.68 
L 91.940715 154.368 
L 91.940715 157.056 
L 91.940715 159.744 
L 91.940715 162.432 
L 91.940715 165.12 
L 91.940715 167.808 
L 91.940715 170.496 
L 91.940715 173.184 
L 91.940715 175.872 
L 91.940715 178.56 
L 91.940715 181.248 
L 91.940715 183.936 
L 91.940715 186.624 
L 91.940715 189.312 
L 91.940715 192 
L 91.940715 194.688 
L 91.940715 197.376 
L 91.940715 200.064 
L 91.940715 202.752 
L 91.940715 205.44 
L 91.940715 208.128 
L 91.940715 210.816 
L 91.940715 213.504 
L 91.940715 216.192 
L 91.940715 218.88 
L 91.940715 221.568 
L 91.940715 224.256 
L 91.940715 226.944 
L 91.940715 229.632 
L 94.110677 232.32 
L 94.110677 235.008 
L 94.110677 237.696 
L 94.110677 240.384 
L 94.110677 243.072 
L 94.110677 245.76 
L 94.110677 248.448 
L 94.110677 251.136 
L 94.110677 253.824 
L 94.110677 256.512 
L 94.110677 258.813 
" clip-path="url(#pf68b8f5385)" style="fill: none; stroke-dasharray: 1.85,0.8; stroke-dashoffset: 0; stroke: #000000; stroke-width: 0.5"/>
    <path d="M 94.110677 291.843 
L 94.110677 294.144 
L 94.110677 296.832 
L 94.110677 299.52 
L 94.110677 302.208 
L 94.110677 304.896 
L 94.110677 307.584 
" clip-path="url(#pf68b8f5385)" style="fill: none; stroke-dasharray: 1.85,0.8; stroke-dashoffset: 0; stroke: #000000; stroke-width: 0.5"/>
   </g>
   <g id="PathCollection_12">
    <path d="M 105.554866 41.472 
L 105.554866 44.16 
L 105.554866 46.848 
L 105.554866 49.536 
L 105.554866 52.224 
L 105.554866 54.912 
L 105.554866 57.6 
L 105.554866 60.288 
L 105.554866 62.976 
L 105.554866 65.664 
L 105.554866 68.352 
L 105.554866 70.653 
" clip-path="url(#pf68b8f5385)" style="fill: none; stroke-dasharray: 1.85,0.8; stroke-dashoffset: 0; stroke: #000000; stroke-width: 0.5"/>
    <path d="M 105.554866 103.683 
L 105.554866 105.984 
L 105.554866 108.672 
L 105.554866 111.36 
L 105.554866 114.048 
L 105.554866 116.736 
L 105.554866 119.424 
L 105.554866 122.112 
L 105.554866 124.8 
L 105.554866 127.488 
L 105.554866 130.176 
L 105.554866 132.864 
L 105.554866 135.552 
L 105.554866 138.24 
L 105.554866 140.928 
L 105.554866 143.616 
L 105.554866 146.304 
L 105.554866 148.992 
L 105.554866 151.68 
L 105.554866 154.368 
L 105.554866 157.056 
L 105.554866 159.744 
L 105.554866 162.432 
L 105.554866 165.12 
L 105.554866 167.808 
L 105.554866 170.496 
L 105.554866 173.184 
L 105.554866 175.872 
L 105.554866 178.56 
L 105.554866 181.248 
L 105.554866 183.936 
L 105.554866 186.624 
L 105.554866 189.312 
L 105.554866 192 
L 105.554866 194.688 
L 105.554866 197.376 
L 105.554866 200.064 
L 105.554866 202.752 
L 105.554866 205.44 
L 105.554866 208.128 
L 105.554866 210.816 
L 105.554866 213.504 
L 105.554866 216.192 
L 105.554866 218.88 
L 105.554866 221.568 
L 105.554866 224.256 
L 105.554866 226.944 
L 105.554866 229.632 
L 107.724828 232.32 
L 107.724828 235.008 
L 107.724828 237.696 
L 107.724828 240.384 
L 107.724828 243.072 
L 107.724828 245.76 
L 107.724828 248.448 
L 107.724828 251.136 
L 107.724828 253.824 
L 107.724828 256.512 
L 107.724828 259.2 
L 107.724828 261.888 
L 107.724828 264.576 
L 107.724828 267.264 
L 107.724828 269.952 
L 107.724828 272.64 
L 107.724828 275.328 
L 107.724828 278.016 
L 107.724828 280.704 
L 107.724828 283.392 
L 107.724828 286.08 
L 107.724828 288.768 
L 107.724828 291.456 
L 107.724828 294.144 
L 107.724828 296.832 
L 107.724828 299.52 
L 107.724828 302.208 
L 107.724828 304.896 
L 107.724828 307.584 
" clip-path="url(#pf68b8f5385)" style="fill: none; stroke-dasharray: 1.85,0.8; stroke-dashoffset: 0; stroke: #000000; stroke-width: 0.5"/>
   </g>
   <g id="PathCollection_13">
    <path d="M 119.169017 41.472 
L 119.169017 44.16 
L 119.169017 46.848 
L 119.169017 49.536 
L 119.169017 52.224 
L 119.169017 54.912 
L 119.169017 57.6 
L 119.169017 60.288 
L 119.169017 62.976 
L 119.169017 65.664 
L 119.169017 68.352 
L 119.169017 71.04 
L 119.169017 73.728 
L 119.169017 76.416 
L 119.169017 79.104 
L 119.169017 81.792 
L 119.169017 84.48 
L 119.169017 87.168 
L 119.169017 89.856 
L 119.169017 92.544 
L 119.169017 95.232 
L 119.169017 97.92 
L 119.169017 100.608 
L 119.169017 103.296 
L 119.169017 105.984 
L 119.169017 108.672 
L 119.169017 111.36 
L 119.169017 114.048 
L 119.169017 116.736 
L 119.169017 119.424 
L 119.169017 122.112 
L 119.169017 124.8 
L 119.169017 127.488 
L 119.169017 130.176 
L 119.169017 132.864 
L 119.169017 135.552 
L 119.169017 138.24 
L 119.169017 140.928 
L 119.169017 143.616 
L 119.169017 146.304 
L 119.169017 148.992 
L 119.169017 151.68 
L 119.169017 154.368 
L 119.169017 157.056 
L 119.169017 159.744 
L 119.169017 162.432 
L 119.169017 164.733 
" clip-path="url(#pf68b8f5385)" style="fill: none; stroke-dasharray: 1.85,0.8; stroke-dashoffset: 0; stroke: #000000; stroke-width: 0.5"/>
    <path d="M 119.169017 197.763 
L 119.169017 200.064 
L 119.169017 202.752 
L 119.169017 205.44 
L 119.169017 208.128 
L 119.169017 210.816 
L 119.169017 213.504 
L 119.169017 216.192 
L 119.169017 218.88 
L 119.169017 221.568 
L 119.169017 224.256 
L 119.169017 226.944 
L 119.169017 229.632 
L 121.338979 232.32 
L 121.338979 235.008 
L 121.338979 237.696 
L 121.338979 240.384 
L 121.338979 243.072 
L 121.338979 245.76 
L 121.338979 248.448 
L 121.338979 251.136 
L 121.338979 253.824 
L 121.338979 256.512 
L 121.338979 259.2 
L 121.338979 261.888 
L 121.338979 264.576 
L 121.338979 267.264 
L 121.338979 269.952 
L 121.338979 272.64 
L 121.338979 275.328 
L 121.338979 278.016 
L 121.338979 280.704 
L 121.338979 283.392 
L 121.338979 286.08 
L 121.338979 288.768 
L 121.338979 291.456 
L 121.338979 294.144 
L 121.338979 296.832 
L 121.338979 299.52 
L 121.338979 302.208 
L 121.338979 304.896 
L 121.338979 307.584 
" clip-path="url(#pf68b8f5385)" style="fill: none; stroke-dasharray: 1.85,0.8; stroke-dashoffset: 0; stroke: #000000; stroke-width: 0.5"/>
   </g>
   <g id="PathCollection_14">
    <path d="M 149.611655 41.472 
L 149.611655 44.16 
L 149.611655 46.848 
L 149.611655 49.536 
L 149.611655 52.224 
L 149.611655 54.912 
L 149.611655 57.6 
L 149.611655 60.288 
L 149.611655 62.976 
L 149.611655 65.664 
L 149.611655 68.352 
L 149.611655 70.653 
" clip-path="url(#pf68b8f5385)" style="fill: none; stroke-dasharray: 1.85,0.8; stroke-dashoffset: 0; stroke: #000000; stroke-width: 0.5"/>
    <path d="M 149.611655 103.683 
L 149.611655 105.984 
L 149.611655 108.672 
L 149.611655 111.36 
L 149.611655 114.048 
L 149.611655 116.736 
L 149.611655 119.424 
L 149.611655 122.112 
L 149.611655 124.8 
L 149.611655 127.488 
L 149.611655 130.176 
L 149.611655 132.864 
L 149.611655 135.552 
L 149.611655 138.24 
L 149.611655 140.928 
L 149.611655 143.616 
L 149.611655 146.304 
L 149.611655 148.992 
L 149.611655 151.68 
L 149.611655 154.368 
L 149.611655 157.056 
L 149.611655 159.744 
L 149.611655 162.432 
L 149.611655 165.12 
L 149.611655 167.808 
L 149.611655 170.496 
L 149.611655 173.184 
L 149.611655 175.872 
L 149.611655 178.56 
L 149.611655 181.248 
L 149.611655 183.936 
L 149.611655 186.624 
L 149.611655 189.312 
L 149.611655 192 
L 149.611655 194.688 
L 149.611655 197.376 
L 149.611655 200.064 
L 149.611655 202.752 
L 149.611655 205.44 
L 149.611655 208.128 
L 149.611655 210.816 
L 149.611655 213.504 
L 149.611655 216.192 
L 149.611655 218.88 
L 149.611655 221.568 
L 149.611655 224.256 
L 149.611655 226.944 
L 149.611655 229.632 
L 161.495782 232.32 
L 161.495782 235.008 
L 161.495782 237.696 
L 161.495782 240.384 
L 161.495782 243.072 
L 161.495782 245.76 
L 161.495782 248.448 
L 161.495782 251.136 
L 161.495782 253.824 
L 161.495782 256.512 
L 161.495782 259.2 
L 161.495782 261.888 
L 161.495782 264.576 
L 161.495782 267.264 
L 161.495782 269.952 
L 161.495782 272.64 
L 161.495782 275.328 
L 161.495782 278.016 
L 161.495782 280.704 
L 161.495782 283.392 
L 161.495782 286.08 
L 161.495782 288.768 
L 161.495782 291.456 
L 161.495782 294.144 
L 161.495782 296.832 
L 161.495782 299.52 
L 161.495782 302.208 
L 161.495782 304.896 
L 161.495782 307.584 
" clip-path="url(#pf68b8f5385)" style="fill: none; stroke-dasharray: 1.85,0.8; stroke-dashoffset: 0; stroke: #000000; stroke-width: 0.5"/>
   </g>
   <g id="PathCollection_15"/>
   <g id="LineCollection_1">
    <path d="M 57.6 307.584 
L 57.6 294.2784 
" clip-path="url(#pf68b8f5385)" style="fill: none; stroke: #000000; stroke-width: 1.5"/>
    <path d="M 57.6 307.584 
L 57.6 294.2784 
" clip-path="url(#pf68b8f5385)" style="fill: none; stroke: #000000; stroke-width: 1.5"/>
    <path d="M 129.024 307.584 
L 129.024 294.2784 
" clip-path="url(#pf68b8f5385)" style="fill: none; stroke: #000000; stroke-width: 1.5"/>
    <path d="M 129.024 307.584 
L 129.024 294.2784 
" clip-path="url(#pf68b8f5385)" style="fill: none; stroke: #000000; stroke-width: 1.5"/>
    <path d="M 200.448 307.584 
L 200.448 294.2784 
" clip-path="url(#pf68b8f5385)" style="fill: none; stroke: #000000; stroke-width: 1.5"/>
    <path d="M 271.872 307.584 
L 271.872 294.2784 
" clip-path="url(#pf68b8f5385)" style="fill: none; stroke: #000000; stroke-width: 1.5"/>
    <path d="M 271.872 307.584 
L 271.872 294.2784 
" clip-path="url(#pf68b8f5385)" style="fill: none; stroke: #000000; stroke-width: 1.5"/>
    <path d="M 271.872 307.584 
L 271.872 294.2784 
" clip-path="url(#pf68b8f5385)" style="fill: none; stroke: #000000; stroke-width: 1.5"/>
    <path d="M 349.00992 307.584 
L 349.00992 294.2784 
" clip-path="url(#pf68b8f5385)" style="fill: none; stroke: #000000; stroke-width: 1.5"/>
   </g>
   <g id="LineCollection_2">
    <path clip-path="url(#pf68b8f5385)" style="fill: none; stroke: #000000; stroke-width: 1.5"/>
    <path clip-path="url(#pf68b8f5385)" style="fill: none; stroke: #000000; stroke-width: 1.5"/>
    <path clip-path="url(#pf68b8f5385)" style="fill: none; stroke: #000000; stroke-width: 1.5"/>
    <path d="M 202.2912 333.815109 
L 208.070246 333.815109 
" clip-path="url(#pf68b8f5385)" style="fill: none; stroke: #000000; stroke-width: 1.5"/>
    <path d="M 202.2912 243.869557 
L 208.070246 243.869557 
" clip-path="url(#pf68b8f5385)" style="fill: none; stroke: #000000; stroke-width: 1.5"/>
    <path d="M 202.2912 198.130534 
L 208.070246 198.130534 
" clip-path="url(#pf68b8f5385)" style="fill: none; stroke: #000000; stroke-width: 1.5"/>
    <path d="M 202.2912 158.403599 
L 208.070246 158.403599 
" clip-path="url(#pf68b8f5385)" style="fill: none; stroke: #000000; stroke-width: 1.5"/>
    <path d="M 202.2912 83.075673 
L 208.070246 83.075673 
" clip-path="url(#pf68b8f5385)" style="fill: none; stroke: #000000; stroke-width: 1.5"/>
    <path clip-path="url(#pf68b8f5385)" style="fill: none; stroke: #000000; stroke-width: 1.5"/>
   </g>
   <g id="patch_3">
    <path d="M 57.6 307.584 
L 57.6 41.472 
" style="fill: none; stroke: #000000; stroke-width: 0.8; stroke-linejoin: miter; stroke-linecap: square"/>
   </g>
   <g id="patch_4">
    <path d="M 414.72 307.584 
L 414.72 41.472 
" style="fill: none; stroke: #000000; stroke-width: 0.8; stroke-linejoin: miter; stroke-linecap: square"/>
   </g>
   <g id="patch_5">
    <path d="M 57.6 307.584 
L 414.72 307.584 
" style="fill: none; stroke: #000000; stroke-width: 0.8; stroke-linejoin: miter; stroke-linecap: square"/>
   </g>
   <g id="patch_6">
    <path d="M 57.6 41.472 
L 414.72 41.472 
" style="fill: none; stroke: #000000; stroke-width: 0.8; stroke-linejoin: miter; stroke-linecap: square"/>
   </g>
   <g id="text_15">
    <!-- 2D-partial dependency plot between PL and Obesity -->
    <g transform="translate(79.228125 35.472) scale(0.12 -0.12)">
     <defs>
      <path id="DejaVuSans-32" d="M 1228 531 
L 3431 531 
L 3431 0 
L 469 0 
L 469 531 
Q 828 903 1448 1529 
Q 2069 2156 2228 2338 
Q 2531 2678 2651 2914 
Q 2772 3150 2772 3378 
Q 2772 3750 2511 3984 
Q 2250 4219 1831 4219 
Q 1534 4219 1204 4116 
Q 875 4013 500 3803 
L 500 4441 
Q 881 4594 1212 4672 
Q 1544 4750 1819 4750 
Q 2544 4750 2975 4387 
Q 3406 4025 3406 3419 
Q 3406 3131 3298 2873 
Q 3191 2616 2906 2266 
Q 2828 2175 2409 1742 
Q 1991 1309 1228 531 
z
" transform="scale(0.015625)"/>
      <path id="DejaVuSans-44" d="M 1259 4147 
L 1259 519 
L 2022 519 
Q 2988 519 3436 956 
Q 3884 1394 3884 2338 
Q 3884 3275 3436 3711 
Q 2988 4147 2022 4147 
L 1259 4147 
z
M 628 4666 
L 1925 4666 
Q 3281 4666 3915 4102 
Q 4550 3538 4550 2338 
Q 4550 1131 3912 565 
Q 3275 0 1925 0 
L 628 0 
L 628 4666 
z
" transform="scale(0.015625)"/>
      <path id="DejaVuSans-2d" d="M 313 2009 
L 1997 2009 
L 1997 1497 
L 313 1497 
L 313 2009 
z
" transform="scale(0.015625)"/>
      <path id="DejaVuSans-70" d="M 1159 525 
L 1159 -1331 
L 581 -1331 
L 581 3500 
L 1159 3500 
L 1159 2969 
Q 1341 3281 1617 3432 
Q 1894 3584 2278 3584 
Q 2916 3584 3314 3078 
Q 3713 2572 3713 1747 
Q 3713 922 3314 415 
Q 2916 -91 2278 -91 
Q 1894 -91 1617 61 
Q 1341 213 1159 525 
z
M 3116 1747 
Q 3116 2381 2855 2742 
Q 2594 3103 2138 3103 
Q 1681 3103 1420 2742 
Q 1159 2381 1159 1747 
Q 1159 1113 1420 752 
Q 1681 391 2138 391 
Q 2594 391 2855 752 
Q 3116 1113 3116 1747 
z
" transform="scale(0.015625)"/>
      <path id="DejaVuSans-6c" d="M 603 4863 
L 1178 4863 
L 1178 0 
L 603 0 
L 603 4863 
z
" transform="scale(0.015625)"/>
      <path id="DejaVuSans-64" d="M 2906 2969 
L 2906 4863 
L 3481 4863 
L 3481 0 
L 2906 0 
L 2906 525 
Q 2725 213 2448 61 
Q 2172 -91 1784 -91 
Q 1150 -91 751 415 
Q 353 922 353 1747 
Q 353 2572 751 3078 
Q 1150 3584 1784 3584 
Q 2172 3584 2448 3432 
Q 2725 3281 2906 2969 
z
M 947 1747 
Q 947 1113 1208 752 
Q 1469 391 1925 391 
Q 2381 391 2643 752 
Q 2906 1113 2906 1747 
Q 2906 2381 2643 2742 
Q 2381 3103 1925 3103 
Q 1469 3103 1208 2742 
Q 947 2381 947 1747 
z
" transform="scale(0.015625)"/>
      <path id="DejaVuSans-77" d="M 269 3500 
L 844 3500 
L 1563 769 
L 2278 3500 
L 2956 3500 
L 3675 769 
L 4391 3500 
L 4966 3500 
L 4050 0 
L 3372 0 
L 2619 2869 
L 1863 0 
L 1184 0 
L 269 3500 
z
" transform="scale(0.015625)"/>
     </defs>
     <use xlink:href="#DejaVuSans-32"/>
     <use xlink:href="#DejaVuSans-44" x="63.623047"/>
     <use xlink:href="#DejaVuSans-2d" x="140.625"/>
     <use xlink:href="#DejaVuSans-70" x="176.708984"/>
     <use xlink:href="#DejaVuSans-61" x="240.185547"/>
     <use xlink:href="#DejaVuSans-72" x="301.464844"/>
     <use xlink:href="#DejaVuSans-74" x="342.578125"/>
     <use xlink:href="#DejaVuSans-69" x="381.787109"/>
     <use xlink:href="#DejaVuSans-61" x="409.570312"/>
     <use xlink:href="#DejaVuSans-6c" x="470.849609"/>
     <use xlink:href="#DejaVuSans-20" x="498.632812"/>
     <use xlink:href="#DejaVuSans-64" x="530.419922"/>
     <use xlink:href="#DejaVuSans-65" x="593.896484"/>
     <use xlink:href="#DejaVuSans-70" x="655.419922"/>
     <use xlink:href="#DejaVuSans-65" x="718.896484"/>
     <use xlink:href="#DejaVuSans-6e" x="780.419922"/>
     <use xlink:href="#DejaVuSans-64" x="843.798828"/>
     <use xlink:href="#DejaVuSans-65" x="907.275391"/>
     <use xlink:href="#DejaVuSans-6e" x="968.798828"/>
     <use xlink:href="#DejaVuSans-63" x="1032.177734"/>
     <use xlink:href="#DejaVuSans-79" x="1087.158203"/>
     <use xlink:href="#DejaVuSans-20" x="1146.337891"/>
     <use xlink:href="#DejaVuSans-70" x="1178.125"/>
     <use xlink:href="#DejaVuSans-6c" x="1241.601562"/>
     <use xlink:href="#DejaVuSans-6f" x="1269.384766"/>
     <use xlink:href="#DejaVuSans-74" x="1330.566406"/>
     <use xlink:href="#DejaVuSans-20" x="1369.775391"/>
     <use xlink:href="#DejaVuSans-62" x="1401.5625"/>
     <use xlink:href="#DejaVuSans-65" x="1465.039062"/>
     <use xlink:href="#DejaVuSans-74" x="1526.5625"/>
     <use xlink:href="#DejaVuSans-77" x="1565.771484"/>
     <use xlink:href="#DejaVuSans-65" x="1647.558594"/>
     <use xlink:href="#DejaVuSans-65" x="1709.082031"/>
     <use xlink:href="#DejaVuSans-6e" x="1770.605469"/>
     <use xlink:href="#DejaVuSans-20" x="1833.984375"/>
     <use xlink:href="#DejaVuSans-50" x="1865.771484"/>
     <use xlink:href="#DejaVuSans-4c" x="1926.074219"/>
     <use xlink:href="#DejaVuSans-20" x="1981.787109"/>
     <use xlink:href="#DejaVuSans-61" x="2013.574219"/>
     <use xlink:href="#DejaVuSans-6e" x="2074.853516"/>
     <use xlink:href="#DejaVuSans-64" x="2138.232422"/>
     <use xlink:href="#DejaVuSans-20" x="2201.708984"/>
     <use xlink:href="#DejaVuSans-4f" x="2233.496094"/>
     <use xlink:href="#DejaVuSans-62" x="2312.207031"/>
     <use xlink:href="#DejaVuSans-65" x="2375.683594"/>
     <use xlink:href="#DejaVuSans-73" x="2437.207031"/>
     <use xlink:href="#DejaVuSans-69" x="2489.306641"/>
     <use xlink:href="#DejaVuSans-74" x="2517.089844"/>
     <use xlink:href="#DejaVuSans-79" x="2556.298828"/>
    </g>
   </g>
   <g id="text_16">
    <g clip-path="url(#pf68b8f5385)">
     <!-- -0.03 -->
     <g transform="translate(61.953039 74.231281) rotate(-270) scale(0.1 -0.1)">
      <defs>
       <path id="DejaVuSans-33" d="M 2597 2516 
Q 3050 2419 3304 2112 
Q 3559 1806 3559 1356 
Q 3559 666 3084 287 
Q 2609 -91 1734 -91 
Q 1441 -91 1130 -33 
Q 819 25 488 141 
L 488 750 
Q 750 597 1062 519 
Q 1375 441 1716 441 
Q 2309 441 2620 675 
Q 2931 909 2931 1356 
Q 2931 1769 2642 2001 
Q 2353 2234 1838 2234 
L 1294 2234 
L 1294 2753 
L 1863 2753 
Q 2328 2753 2575 2939 
Q 2822 3125 2822 3475 
Q 2822 3834 2567 4026 
Q 2313 4219 1838 4219 
Q 1578 4219 1281 4162 
Q 984 4106 628 3988 
L 628 4550 
Q 988 4650 1302 4700 
Q 1616 4750 1894 4750 
Q 2613 4750 3031 4423 
Q 3450 4097 3450 3541 
Q 3450 3153 3228 2886 
Q 3006 2619 2597 2516 
z
" transform="scale(0.015625)"/>
      </defs>
      <use xlink:href="#DejaVuSans-2d"/>
      <use xlink:href="#DejaVuSans-30" x="36.083984"/>
      <use xlink:href="#DejaVuSans-2e" x="99.707031"/>
      <use xlink:href="#DejaVuSans-30" x="131.494141"/>
      <use xlink:href="#DejaVuSans-33" x="195.117188"/>
     </g>
    </g>
   </g>
   <g id="text_17">
    <g clip-path="url(#pf68b8f5385)">
     <!-- -0.03 -->
     <g transform="translate(75.567189 168.311281) rotate(-270) scale(0.1 -0.1)">
      <use xlink:href="#DejaVuSans-2d"/>
      <use xlink:href="#DejaVuSans-30" x="36.083984"/>
      <use xlink:href="#DejaVuSans-2e" x="99.707031"/>
      <use xlink:href="#DejaVuSans-30" x="131.494141"/>
      <use xlink:href="#DejaVuSans-33" x="195.117188"/>
     </g>
    </g>
   </g>
   <g id="text_18">
    <g clip-path="url(#pf68b8f5385)">
     <!-- -0.03 -->
     <g transform="translate(91.351302 262.391281) rotate(-270) scale(0.1 -0.1)">
      <use xlink:href="#DejaVuSans-2d"/>
      <use xlink:href="#DejaVuSans-30" x="36.083984"/>
      <use xlink:href="#DejaVuSans-2e" x="99.707031"/>
      <use xlink:href="#DejaVuSans-30" x="131.494141"/>
      <use xlink:href="#DejaVuSans-33" x="195.117188"/>
     </g>
    </g>
   </g>
   <g id="text_19">
    <g clip-path="url(#pf68b8f5385)">
     <!-- -0.03 -->
     <g transform="translate(102.795491 74.231281) rotate(-270) scale(0.1 -0.1)">
      <use xlink:href="#DejaVuSans-2d"/>
      <use xlink:href="#DejaVuSans-30" x="36.083984"/>
      <use xlink:href="#DejaVuSans-2e" x="99.707031"/>
      <use xlink:href="#DejaVuSans-30" x="131.494141"/>
      <use xlink:href="#DejaVuSans-33" x="195.117188"/>
     </g>
    </g>
   </g>
   <g id="text_20">
    <g clip-path="url(#pf68b8f5385)">
     <!-- -0.03 -->
     <g transform="translate(116.409642 168.311281) rotate(-270) scale(0.1 -0.1)">
      <use xlink:href="#DejaVuSans-2d"/>
      <use xlink:href="#DejaVuSans-30" x="36.083984"/>
      <use xlink:href="#DejaVuSans-2e" x="99.707031"/>
      <use xlink:href="#DejaVuSans-30" x="131.494141"/>
      <use xlink:href="#DejaVuSans-33" x="195.117188"/>
     </g>
    </g>
   </g>
   <g id="text_21">
    <g clip-path="url(#pf68b8f5385)">
     <!-- -0.03 -->
     <g transform="translate(146.85228 74.231281) rotate(-270) scale(0.1 -0.1)">
      <use xlink:href="#DejaVuSans-2d"/>
      <use xlink:href="#DejaVuSans-30" x="36.083984"/>
      <use xlink:href="#DejaVuSans-2e" x="99.707031"/>
      <use xlink:href="#DejaVuSans-30" x="131.494141"/>
      <use xlink:href="#DejaVuSans-33" x="195.117188"/>
     </g>
    </g>
   </g>
  </g>
 </g>
 <defs>
  <clipPath id="pf68b8f5385">
   <rect x="57.6" y="41.472" width="357.12" height="266.112"/>
  </clipPath>
 </defs>
</svg>
