<?xml version="1.0" encoding="utf-8" standalone="no"?>
<!DOCTYPE svg PUBLIC "-//W3C//DTD SVG 1.1//EN"
  "http://www.w3.org/Graphics/SVG/1.1/DTD/svg11.dtd">
<svg xmlns:xlink="http://www.w3.org/1999/xlink" width="460.8pt" height="345.6pt" viewBox="0 0 460.8 345.6" xmlns="http://www.w3.org/2000/svg" version="1.1">
 <metadata>
  <rdf:RDF xmlns:dc="http://purl.org/dc/elements/1.1/" xmlns:cc="http://creativecommons.org/ns#" xmlns:rdf="http://www.w3.org/1999/02/22-rdf-syntax-ns#">
   <cc:Work>
    <dc:type rdf:resource="http://purl.org/dc/dcmitype/StillImage"/>
    <dc:date>2024-02-15T12:26:46.872126</dc:date>
    <dc:format>image/svg+xml</dc:format>
    <dc:creator>
     <cc:Agent>
      <dc:title>Matplotlib v3.7.0, https://matplotlib.org/</dc:title>
     </cc:Agent>
    </dc:creator>
   </cc:Work>
  </rdf:RDF>
 </metadata>
 <defs>
  <style type="text/css">*{stroke-linejoin: round; stroke-linecap: butt}</style>
 </defs>
 <g id="figure_1">
  <g id="patch_1">
   <path d="M 0 345.6 
L 460.8 345.6 
L 460.8 0 
L 0 0 
L 0 345.6 
z
" style="fill: none"/>
  </g>
  <g id="axes_1"/>
  <g id="axes_2">
   <g id="patch_2">
    <path d="M 57.6 307.584 
L 414.72 307.584 
L 414.72 41.472 
L 57.6 41.472 
L 57.6 307.584 
z
" style="fill: none"/>
   </g>
   <g id="PathCollection_1">
    <path d="M 79.150345 176.318208 
L 91.464828 176.318208 
L 94.543448 176.318208 
L 97.622069 176.318208 
L 100.70069 176.318208 
L 103.77931 176.318208 
L 106.857931 176.318208 
L 116.093793 176.318208 
L 119.172414 176.318208 
L 122.251034 176.318208 
L 125.329655 176.318208 
L 128.408276 176.318208 
L 131.486897 176.318208 
L 134.565517 176.318208 
L 137.644138 176.318208 
L 140.722759 176.318208 
L 143.801379 176.318208 
L 146.88 176.318208 
L 149.958621 176.318208 
L 156.115862 176.318208 
L 159.194483 176.318208 
L 162.273103 176.318208 
L 165.351724 176.318208 
L 168.430345 176.318208 
L 171.508966 176.318208 
L 174.587586 176.318208 
L 177.666207 176.318208 
L 183.823448 176.318208 
L 185.652746 175.872 
L 185.652746 173.184 
L 185.652746 170.496 
L 185.652746 167.808 
L 185.652746 165.12 
L 185.652746 162.432 
L 185.652746 159.744 
L 185.652746 157.056 
L 185.652746 154.368 
L 185.652746 151.68 
L 185.652746 148.992 
L 185.652746 146.304 
L 185.652746 143.616 
L 185.652746 140.928 
L 185.652746 138.24 
L 185.652746 135.552 
L 185.652746 132.864 
L 185.652746 130.176 
L 185.652746 127.488 
L 185.652746 124.8 
L 185.652746 122.112 
L 185.652746 119.424 
L 185.652746 116.736 
L 185.652746 114.048 
L 185.652746 111.36 
L 185.652746 108.672 
L 185.652746 105.984 
L 185.652746 103.296 
L 185.652746 100.608 
L 185.652746 97.92 
L 185.652746 95.232 
L 185.652746 92.544 
L 185.652746 89.856 
L 185.652746 87.168 
L 185.652746 84.48 
L 185.652746 81.792 
L 185.652746 79.104 
L 185.652746 76.416 
L 185.652746 73.728 
L 185.652746 71.04 
L 185.652746 68.352 
L 185.652746 65.664 
L 185.652746 62.976 
L 185.652746 60.288 
L 185.652746 57.6 
L 185.652746 54.912 
L 185.652746 52.224 
L 185.652746 49.536 
L 185.652746 46.848 
L 185.652746 44.16 
L 185.652746 41.472 
L 183.823448 41.472 
L 177.666207 41.472 
L 174.587586 41.472 
L 171.508966 41.472 
L 168.430345 41.472 
L 165.351724 41.472 
L 162.273103 41.472 
L 159.194483 41.472 
L 156.115862 41.472 
L 149.958621 41.472 
L 146.88 41.472 
L 143.801379 41.472 
L 140.722759 41.472 
L 137.644138 41.472 
L 134.565517 41.472 
L 131.486897 41.472 
L 128.408276 41.472 
L 125.329655 41.472 
L 122.251034 41.472 
L 119.172414 41.472 
L 116.093793 41.472 
L 106.857931 41.472 
L 103.77931 41.472 
L 100.70069 41.472 
L 97.622069 41.472 
L 94.543448 41.472 
L 91.464828 41.472 
L 79.150345 41.472 
L 57.6 41.472 
L 57.6 44.16 
L 57.6 46.848 
L 57.6 49.536 
L 57.6 52.224 
L 57.6 54.912 
L 57.6 57.6 
L 57.6 60.288 
L 57.6 62.976 
L 57.6 65.664 
L 57.6 68.352 
L 57.6 71.04 
L 57.6 73.728 
L 57.6 76.416 
L 57.6 79.104 
L 57.6 81.792 
L 57.6 84.48 
L 57.6 87.168 
L 57.6 89.856 
L 57.6 92.544 
L 57.6 95.232 
L 57.6 97.92 
L 57.6 100.608 
L 57.6 103.296 
L 57.6 105.984 
L 57.6 108.672 
L 57.6 111.36 
L 57.6 114.048 
L 57.6 116.736 
L 57.6 119.424 
L 57.6 122.112 
L 57.6 124.8 
L 57.6 127.488 
L 57.6 130.176 
L 57.6 132.864 
L 57.6 135.552 
L 57.6 138.24 
L 57.6 140.928 
L 57.6 143.616 
L 57.6 146.304 
L 57.6 148.992 
L 57.6 151.68 
L 57.6 154.368 
L 57.6 157.056 
L 57.6 159.744 
L 57.6 162.432 
L 57.6 165.12 
L 57.6 167.808 
L 57.6 170.496 
L 57.6 173.184 
L 57.6 175.872 
L 57.6 176.318208 
z
" clip-path="url(#pfa1482d352)" style="fill: #481b6d; fill-opacity: 0.75"/>
   </g>
   <g id="PathCollection_2">
    <path d="M 79.150345 176.972647 
L 91.464828 176.972647 
L 94.543448 176.972647 
L 97.622069 176.972647 
L 100.70069 176.972647 
L 103.77931 176.972647 
L 106.857931 176.972647 
L 116.093793 176.972647 
L 119.172414 176.972647 
L 122.251034 176.972647 
L 125.329655 176.972647 
L 128.408276 176.972647 
L 131.486897 176.972647 
L 134.565517 176.972647 
L 137.644138 176.972647 
L 140.722759 176.972647 
L 143.801379 176.972647 
L 146.88 176.972647 
L 149.958621 176.972647 
L 156.115862 176.972647 
L 159.194483 176.972647 
L 162.273103 176.972647 
L 165.351724 176.972647 
L 168.430345 176.972647 
L 171.508966 176.972647 
L 174.587586 176.972647 
L 177.666207 176.972647 
L 183.823448 176.972647 
L 186.902069 176.2217 
L 189.98069 176.2217 
L 193.05931 176.2217 
L 196.026512 175.872 
L 196.026512 173.184 
L 196.026512 170.496 
L 196.026512 167.808 
L 196.026512 165.12 
L 196.026512 162.432 
L 196.026512 159.744 
L 196.026512 157.056 
L 196.026512 154.368 
L 196.026512 151.68 
L 196.026512 148.992 
L 196.026512 146.304 
L 196.026512 143.616 
L 196.026512 140.928 
L 196.026512 138.24 
L 196.026512 135.552 
L 196.026512 132.864 
L 196.026512 130.176 
L 196.026512 127.488 
L 196.026512 124.8 
L 196.026512 122.112 
L 196.026512 119.424 
L 196.026512 116.736 
L 196.026512 114.048 
L 196.026512 111.36 
L 196.026512 108.672 
L 196.026512 105.984 
L 196.026512 103.296 
L 196.026512 100.608 
L 196.026512 97.92 
L 196.026512 95.232 
L 196.026512 92.544 
L 196.026512 89.856 
L 196.026512 87.168 
L 196.026512 84.48 
L 196.026512 81.792 
L 196.026512 79.104 
L 196.026512 76.416 
L 196.026512 73.728 
L 196.026512 71.04 
L 196.026512 68.352 
L 196.026512 65.664 
L 196.026512 62.976 
L 196.026512 60.288 
L 196.026512 57.6 
L 196.026512 54.912 
L 196.026512 52.224 
L 196.026512 49.536 
L 196.026512 46.848 
L 196.026512 44.16 
L 196.026512 41.472 
L 193.05931 41.472 
L 189.98069 41.472 
L 186.902069 41.472 
L 185.652746 41.472 
L 185.652746 44.16 
L 185.652746 46.848 
L 185.652746 49.536 
L 185.652746 52.224 
L 185.652746 54.912 
L 185.652746 57.6 
L 185.652746 60.288 
L 185.652746 62.976 
L 185.652746 65.664 
L 185.652746 68.352 
L 185.652746 71.04 
L 185.652746 73.728 
L 185.652746 76.416 
L 185.652746 79.104 
L 185.652746 81.792 
L 185.652746 84.48 
L 185.652746 87.168 
L 185.652746 89.856 
L 185.652746 92.544 
L 185.652746 95.232 
L 185.652746 97.92 
L 185.652746 100.608 
L 185.652746 103.296 
L 185.652746 105.984 
L 185.652746 108.672 
L 185.652746 111.36 
L 185.652746 114.048 
L 185.652746 116.736 
L 185.652746 119.424 
L 185.652746 122.112 
L 185.652746 124.8 
L 185.652746 127.488 
L 185.652746 130.176 
L 185.652746 132.864 
L 185.652746 135.552 
L 185.652746 138.24 
L 185.652746 140.928 
L 185.652746 143.616 
L 185.652746 146.304 
L 185.652746 148.992 
L 185.652746 151.68 
L 185.652746 154.368 
L 185.652746 157.056 
L 185.652746 159.744 
L 185.652746 162.432 
L 185.652746 165.12 
L 185.652746 167.808 
L 185.652746 170.496 
L 185.652746 173.184 
L 185.652746 175.872 
L 183.823448 176.318208 
L 177.666207 176.318208 
L 174.587586 176.318208 
L 171.508966 176.318208 
L 168.430345 176.318208 
L 165.351724 176.318208 
L 162.273103 176.318208 
L 159.194483 176.318208 
L 156.115862 176.318208 
L 149.958621 176.318208 
L 146.88 176.318208 
L 143.801379 176.318208 
L 140.722759 176.318208 
L 137.644138 176.318208 
L 134.565517 176.318208 
L 131.486897 176.318208 
L 128.408276 176.318208 
L 125.329655 176.318208 
L 122.251034 176.318208 
L 119.172414 176.318208 
L 116.093793 176.318208 
L 106.857931 176.318208 
L 103.77931 176.318208 
L 100.70069 176.318208 
L 97.622069 176.318208 
L 94.543448 176.318208 
L 91.464828 176.318208 
L 79.150345 176.318208 
L 57.6 176.318208 
L 57.6 176.972647 
z
" clip-path="url(#pfa1482d352)" style="fill: #3f4788; fill-opacity: 0.75"/>
   </g>
   <g id="PathCollection_3">
    <path d="M 79.150345 177.627085 
L 91.464828 177.627085 
L 94.543448 177.627085 
L 97.622069 177.627085 
L 100.70069 177.627085 
L 103.77931 177.627085 
L 106.857931 177.627085 
L 116.093793 177.627085 
L 119.172414 177.627085 
L 122.251034 177.627085 
L 125.329655 177.627085 
L 128.408276 177.627085 
L 131.486897 177.627085 
L 134.565517 177.627085 
L 137.644138 177.627085 
L 140.722759 177.627085 
L 143.801379 177.627085 
L 146.88 177.627085 
L 149.958621 177.627085 
L 156.115862 177.627085 
L 159.194483 177.627085 
L 162.273103 177.627085 
L 165.351724 177.627085 
L 168.430345 177.627085 
L 171.508966 177.627085 
L 174.587586 177.627085 
L 177.666207 177.627085 
L 183.823448 177.627085 
L 186.902069 176.876139 
L 189.98069 176.876139 
L 193.05931 176.876139 
L 199.216552 176.150476 
L 202.295172 176.150476 
L 208.452414 176.150476 
L 211.531034 176.150476 
L 214.609655 176.150476 
L 217.688276 176.150476 
L 220.766897 176.150476 
L 223.845517 176.150476 
L 226.924138 176.150476 
L 230.002759 176.150476 
L 233.081379 176.150476 
L 236.16 176.150476 
L 239.238621 176.150476 
L 242.317241 176.150476 
L 245.395862 176.150476 
L 248.474483 176.150476 
L 251.553103 176.150476 
L 254.631724 176.150476 
L 257.710345 176.150476 
L 260.788966 176.150476 
L 263.867586 176.150476 
L 266.946207 176.150476 
L 270.024828 176.150476 
L 273.103448 176.150476 
L 276.182069 176.150476 
L 279.26069 176.150476 
L 282.33931 176.150476 
L 285.417931 176.150476 
L 288.496552 176.150476 
L 294.653793 176.150476 
L 297.732414 176.150476 
L 310.046897 176.150476 
L 313.125517 176.150476 
L 316.204138 176.150476 
L 319.282759 176.150476 
L 322.361379 176.150476 
L 334.675862 176.150476 
L 346.990345 176.150476 
L 414.72 176.150476 
L 414.72 175.872 
L 414.72 173.184 
L 414.72 170.496 
L 414.72 167.808 
L 414.72 165.12 
L 414.72 162.432 
L 414.72 159.744 
L 414.72 157.056 
L 414.72 154.368 
L 414.72 151.68 
L 414.72 148.992 
L 414.72 146.304 
L 414.72 143.616 
L 414.72 140.928 
L 414.72 138.24 
L 414.72 135.552 
L 414.72 132.864 
L 414.72 130.176 
L 414.72 127.488 
L 414.72 124.8 
L 414.72 122.112 
L 414.72 119.424 
L 414.72 116.736 
L 414.72 114.048 
L 414.72 111.36 
L 414.72 108.672 
L 414.72 105.984 
L 414.72 103.296 
L 414.72 100.608 
L 414.72 97.92 
L 414.72 95.232 
L 414.72 92.544 
L 414.72 89.856 
L 414.72 87.168 
L 414.72 84.48 
L 414.72 81.792 
L 414.72 79.104 
L 414.72 76.416 
L 414.72 73.728 
L 414.72 71.04 
L 414.72 68.352 
L 414.72 65.664 
L 414.72 62.976 
L 414.72 60.288 
L 414.72 57.6 
L 414.72 54.912 
L 414.72 52.224 
L 414.72 49.536 
L 414.72 46.848 
L 414.72 44.16 
L 414.72 41.472 
L 346.990345 41.472 
L 334.675862 41.472 
L 322.361379 41.472 
L 319.282759 41.472 
L 316.204138 41.472 
L 313.125517 41.472 
L 310.046897 41.472 
L 297.732414 41.472 
L 294.653793 41.472 
L 288.496552 41.472 
L 285.417931 41.472 
L 282.33931 41.472 
L 279.26069 41.472 
L 276.182069 41.472 
L 273.103448 41.472 
L 270.024828 41.472 
L 266.946207 41.472 
L 263.867586 41.472 
L 260.788966 41.472 
L 257.710345 41.472 
L 254.631724 41.472 
L 251.553103 41.472 
L 248.474483 41.472 
L 245.395862 41.472 
L 242.317241 41.472 
L 239.238621 41.472 
L 236.16 41.472 
L 233.081379 41.472 
L 230.002759 41.472 
L 226.924138 41.472 
L 223.845517 41.472 
L 220.766897 41.472 
L 217.688276 41.472 
L 214.609655 41.472 
L 211.531034 41.472 
L 208.452414 41.472 
L 202.295172 41.472 
L 199.216552 41.472 
L 196.026512 41.472 
L 196.026512 44.16 
L 196.026512 46.848 
L 196.026512 49.536 
L 196.026512 52.224 
L 196.026512 54.912 
L 196.026512 57.6 
L 196.026512 60.288 
L 196.026512 62.976 
L 196.026512 65.664 
L 196.026512 68.352 
L 196.026512 71.04 
L 196.026512 73.728 
L 196.026512 76.416 
L 196.026512 79.104 
L 196.026512 81.792 
L 196.026512 84.48 
L 196.026512 87.168 
L 196.026512 89.856 
L 196.026512 92.544 
L 196.026512 95.232 
L 196.026512 97.92 
L 196.026512 100.608 
L 196.026512 103.296 
L 196.026512 105.984 
L 196.026512 108.672 
L 196.026512 111.36 
L 196.026512 114.048 
L 196.026512 116.736 
L 196.026512 119.424 
L 196.026512 122.112 
L 196.026512 124.8 
L 196.026512 127.488 
L 196.026512 130.176 
L 196.026512 132.864 
L 196.026512 135.552 
L 196.026512 138.24 
L 196.026512 140.928 
L 196.026512 143.616 
L 196.026512 146.304 
L 196.026512 148.992 
L 196.026512 151.68 
L 196.026512 154.368 
L 196.026512 157.056 
L 196.026512 159.744 
L 196.026512 162.432 
L 196.026512 165.12 
L 196.026512 167.808 
L 196.026512 170.496 
L 196.026512 173.184 
L 196.026512 175.872 
L 193.05931 176.2217 
L 189.98069 176.2217 
L 186.902069 176.2217 
L 183.823448 176.972647 
L 177.666207 176.972647 
L 174.587586 176.972647 
L 171.508966 176.972647 
L 168.430345 176.972647 
L 165.351724 176.972647 
L 162.273103 176.972647 
L 159.194483 176.972647 
L 156.115862 176.972647 
L 149.958621 176.972647 
L 146.88 176.972647 
L 143.801379 176.972647 
L 140.722759 176.972647 
L 137.644138 176.972647 
L 134.565517 176.972647 
L 131.486897 176.972647 
L 128.408276 176.972647 
L 125.329655 176.972647 
L 122.251034 176.972647 
L 119.172414 176.972647 
L 116.093793 176.972647 
L 106.857931 176.972647 
L 103.77931 176.972647 
L 100.70069 176.972647 
L 97.622069 176.972647 
L 94.543448 176.972647 
L 91.464828 176.972647 
L 79.150345 176.972647 
L 57.6 176.972647 
L 57.6 177.627085 
z
" clip-path="url(#pfa1482d352)" style="fill: #2e6e8e; fill-opacity: 0.75"/>
   </g>
   <g id="PathCollection_4">
    <path d="M 79.150345 178.281524 
L 91.464828 178.281524 
L 94.543448 178.281524 
L 97.622069 178.281524 
L 100.70069 178.281524 
L 103.77931 178.281524 
L 106.857931 178.281524 
L 116.093793 178.281524 
L 119.172414 178.281524 
L 122.251034 178.281524 
L 125.329655 178.281524 
L 128.408276 178.281524 
L 131.486897 178.281524 
L 134.565517 178.281524 
L 137.644138 178.281524 
L 140.722759 178.281524 
L 143.801379 178.281524 
L 146.88 178.281524 
L 149.958621 178.281524 
L 156.115862 178.281524 
L 159.194483 178.281524 
L 162.273103 178.281524 
L 165.351724 178.281524 
L 168.430345 178.281524 
L 171.508966 178.281524 
L 174.587586 178.281524 
L 177.666207 178.281524 
L 183.823448 178.281524 
L 186.902069 177.530577 
L 189.98069 177.530577 
L 193.05931 177.530577 
L 199.216552 176.804915 
L 202.295172 176.804915 
L 208.452414 176.804915 
L 211.531034 176.804915 
L 214.609655 176.804915 
L 217.688276 176.804915 
L 220.766897 176.804915 
L 223.845517 176.804915 
L 226.924138 176.804915 
L 230.002759 176.804915 
L 233.081379 176.804915 
L 236.16 176.804915 
L 239.238621 176.804915 
L 242.317241 176.804915 
L 245.395862 176.804915 
L 248.474483 176.804915 
L 251.553103 176.804915 
L 254.631724 176.804915 
L 257.710345 176.804915 
L 260.788966 176.804915 
L 263.867586 176.804915 
L 266.946207 176.804915 
L 270.024828 176.804915 
L 273.103448 176.804915 
L 276.182069 176.804915 
L 279.26069 176.804915 
L 282.33931 176.804915 
L 285.417931 176.804915 
L 288.496552 176.804915 
L 294.653793 176.804915 
L 297.732414 176.804915 
L 310.046897 176.804915 
L 313.125517 176.804915 
L 316.204138 176.804915 
L 319.282759 176.804915 
L 322.361379 176.804915 
L 334.675862 176.804915 
L 346.990345 176.804915 
L 414.72 176.804915 
L 414.72 176.150476 
L 346.990345 176.150476 
L 334.675862 176.150476 
L 322.361379 176.150476 
L 319.282759 176.150476 
L 316.204138 176.150476 
L 313.125517 176.150476 
L 310.046897 176.150476 
L 297.732414 176.150476 
L 294.653793 176.150476 
L 288.496552 176.150476 
L 285.417931 176.150476 
L 282.33931 176.150476 
L 279.26069 176.150476 
L 276.182069 176.150476 
L 273.103448 176.150476 
L 270.024828 176.150476 
L 266.946207 176.150476 
L 263.867586 176.150476 
L 260.788966 176.150476 
L 257.710345 176.150476 
L 254.631724 176.150476 
L 251.553103 176.150476 
L 248.474483 176.150476 
L 245.395862 176.150476 
L 242.317241 176.150476 
L 239.238621 176.150476 
L 236.16 176.150476 
L 233.081379 176.150476 
L 230.002759 176.150476 
L 226.924138 176.150476 
L 223.845517 176.150476 
L 220.766897 176.150476 
L 217.688276 176.150476 
L 214.609655 176.150476 
L 211.531034 176.150476 
L 208.452414 176.150476 
L 202.295172 176.150476 
L 199.216552 176.150476 
L 193.05931 176.876139 
L 189.98069 176.876139 
L 186.902069 176.876139 
L 183.823448 177.627085 
L 177.666207 177.627085 
L 174.587586 177.627085 
L 171.508966 177.627085 
L 168.430345 177.627085 
L 165.351724 177.627085 
L 162.273103 177.627085 
L 159.194483 177.627085 
L 156.115862 177.627085 
L 149.958621 177.627085 
L 146.88 177.627085 
L 143.801379 177.627085 
L 140.722759 177.627085 
L 137.644138 177.627085 
L 134.565517 177.627085 
L 131.486897 177.627085 
L 128.408276 177.627085 
L 125.329655 177.627085 
L 122.251034 177.627085 
L 119.172414 177.627085 
L 116.093793 177.627085 
L 106.857931 177.627085 
L 103.77931 177.627085 
L 100.70069 177.627085 
L 97.622069 177.627085 
L 94.543448 177.627085 
L 91.464828 177.627085 
L 79.150345 177.627085 
L 57.6 177.627085 
L 57.6 178.281524 
z
" clip-path="url(#pfa1482d352)" style="fill: #21918c; fill-opacity: 0.75"/>
   </g>
   <g id="PathCollection_5">
    <path d="M 79.150345 307.584 
L 91.464828 307.584 
L 94.543448 307.584 
L 97.622069 307.584 
L 100.70069 307.584 
L 103.77931 307.584 
L 106.857931 307.584 
L 116.093793 307.584 
L 119.172414 307.584 
L 122.251034 307.584 
L 125.329655 307.584 
L 128.408276 307.584 
L 131.486897 307.584 
L 134.565517 307.584 
L 137.644138 307.584 
L 140.722759 307.584 
L 143.801379 307.584 
L 146.88 307.584 
L 149.958621 307.584 
L 156.115862 307.584 
L 159.194483 307.584 
L 162.273103 307.584 
L 165.351724 307.584 
L 168.430345 307.584 
L 171.508966 307.584 
L 174.587586 307.584 
L 177.666207 307.584 
L 183.823448 307.584 
L 185.364764 307.584 
L 185.364764 304.896 
L 185.364764 302.208 
L 185.364764 299.52 
L 185.364764 296.832 
L 185.364764 294.144 
L 185.364764 291.456 
L 185.364764 288.768 
L 185.364764 286.08 
L 185.364764 283.392 
L 185.364764 280.704 
L 185.364764 278.016 
L 185.364764 275.328 
L 185.364764 272.64 
L 185.364764 269.952 
L 185.364764 267.264 
L 185.364764 264.576 
L 185.364764 261.888 
L 185.364764 259.2 
L 185.364764 256.512 
L 185.364764 253.824 
L 185.364764 251.136 
L 185.364764 248.448 
L 185.364764 245.76 
L 185.364764 243.072 
L 185.364764 240.384 
L 185.364764 237.696 
L 185.364764 235.008 
L 185.364764 232.32 
L 185.364764 229.632 
L 185.364764 226.944 
L 185.364764 224.256 
L 185.364764 221.568 
L 185.364764 218.88 
L 185.364764 216.192 
L 185.364764 213.504 
L 185.364764 210.816 
L 185.364764 208.128 
L 185.364764 205.44 
L 185.364764 202.752 
L 185.364764 200.064 
L 185.364764 197.376 
L 185.364764 194.688 
L 185.364764 192 
L 185.364764 189.312 
L 185.364764 186.624 
L 185.364764 183.936 
L 185.364764 181.248 
L 185.364764 178.56 
L 186.902069 178.185016 
L 189.98069 178.185016 
L 193.05931 178.185016 
L 199.216552 177.459353 
L 202.295172 177.459353 
L 208.452414 177.459353 
L 211.531034 177.459353 
L 214.609655 177.459353 
L 217.688276 177.459353 
L 220.766897 177.459353 
L 223.845517 177.459353 
L 226.924138 177.459353 
L 230.002759 177.459353 
L 233.081379 177.459353 
L 236.16 177.459353 
L 239.238621 177.459353 
L 242.317241 177.459353 
L 245.395862 177.459353 
L 248.474483 177.459353 
L 251.553103 177.459353 
L 254.631724 177.459353 
L 257.710345 177.459353 
L 260.788966 177.459353 
L 263.867586 177.459353 
L 266.946207 177.459353 
L 270.024828 177.459353 
L 273.103448 177.459353 
L 276.182069 177.459353 
L 279.26069 177.459353 
L 282.33931 177.459353 
L 285.417931 177.459353 
L 288.496552 177.459353 
L 294.653793 177.459353 
L 297.732414 177.459353 
L 310.046897 177.459353 
L 313.125517 177.459353 
L 316.204138 177.459353 
L 319.282759 177.459353 
L 322.361379 177.459353 
L 334.675862 177.459353 
L 346.990345 177.459353 
L 414.72 177.459353 
L 414.72 176.804915 
L 346.990345 176.804915 
L 334.675862 176.804915 
L 322.361379 176.804915 
L 319.282759 176.804915 
L 316.204138 176.804915 
L 313.125517 176.804915 
L 310.046897 176.804915 
L 297.732414 176.804915 
L 294.653793 176.804915 
L 288.496552 176.804915 
L 285.417931 176.804915 
L 282.33931 176.804915 
L 279.26069 176.804915 
L 276.182069 176.804915 
L 273.103448 176.804915 
L 270.024828 176.804915 
L 266.946207 176.804915 
L 263.867586 176.804915 
L 260.788966 176.804915 
L 257.710345 176.804915 
L 254.631724 176.804915 
L 251.553103 176.804915 
L 248.474483 176.804915 
L 245.395862 176.804915 
L 242.317241 176.804915 
L 239.238621 176.804915 
L 236.16 176.804915 
L 233.081379 176.804915 
L 230.002759 176.804915 
L 226.924138 176.804915 
L 223.845517 176.804915 
L 220.766897 176.804915 
L 217.688276 176.804915 
L 214.609655 176.804915 
L 211.531034 176.804915 
L 208.452414 176.804915 
L 202.295172 176.804915 
L 199.216552 176.804915 
L 193.05931 177.530577 
L 189.98069 177.530577 
L 186.902069 177.530577 
L 183.823448 178.281524 
L 177.666207 178.281524 
L 174.587586 178.281524 
L 171.508966 178.281524 
L 168.430345 178.281524 
L 165.351724 178.281524 
L 162.273103 178.281524 
L 159.194483 178.281524 
L 156.115862 178.281524 
L 149.958621 178.281524 
L 146.88 178.281524 
L 143.801379 178.281524 
L 140.722759 178.281524 
L 137.644138 178.281524 
L 134.565517 178.281524 
L 131.486897 178.281524 
L 128.408276 178.281524 
L 125.329655 178.281524 
L 122.251034 178.281524 
L 119.172414 178.281524 
L 116.093793 178.281524 
L 106.857931 178.281524 
L 103.77931 178.281524 
L 100.70069 178.281524 
L 97.622069 178.281524 
L 94.543448 178.281524 
L 91.464828 178.281524 
L 79.150345 178.281524 
L 57.6 178.281524 
L 57.6 178.56 
L 57.6 181.248 
L 57.6 183.936 
L 57.6 186.624 
L 57.6 189.312 
L 57.6 192 
L 57.6 194.688 
L 57.6 197.376 
L 57.6 200.064 
L 57.6 202.752 
L 57.6 205.44 
L 57.6 208.128 
L 57.6 210.816 
L 57.6 213.504 
L 57.6 216.192 
L 57.6 218.88 
L 57.6 221.568 
L 57.6 224.256 
L 57.6 226.944 
L 57.6 229.632 
L 57.6 232.32 
L 57.6 235.008 
L 57.6 237.696 
L 57.6 240.384 
L 57.6 243.072 
L 57.6 245.76 
L 57.6 248.448 
L 57.6 251.136 
L 57.6 253.824 
L 57.6 256.512 
L 57.6 259.2 
L 57.6 261.888 
L 57.6 264.576 
L 57.6 267.264 
L 57.6 269.952 
L 57.6 272.64 
L 57.6 275.328 
L 57.6 278.016 
L 57.6 280.704 
L 57.6 283.392 
L 57.6 286.08 
L 57.6 288.768 
L 57.6 291.456 
L 57.6 294.144 
L 57.6 296.832 
L 57.6 299.52 
L 57.6 302.208 
L 57.6 304.896 
L 57.6 307.584 
z
" clip-path="url(#pfa1482d352)" style="fill: #2db27d; fill-opacity: 0.75"/>
   </g>
   <g id="PathCollection_6">
    <path d="M 186.902069 307.584 
L 189.98069 307.584 
L 193.05931 307.584 
L 195.430479 307.584 
L 195.430479 304.896 
L 195.430479 302.208 
L 195.430479 299.52 
L 195.430479 296.832 
L 195.430479 294.144 
L 195.430479 291.456 
L 195.430479 288.768 
L 195.430479 286.08 
L 195.430479 283.392 
L 195.430479 280.704 
L 195.430479 278.016 
L 195.430479 275.328 
L 195.430479 272.64 
L 195.430479 269.952 
L 195.430479 267.264 
L 195.430479 264.576 
L 195.430479 261.888 
L 195.430479 259.2 
L 195.430479 256.512 
L 195.430479 253.824 
L 195.430479 251.136 
L 195.430479 248.448 
L 195.430479 245.76 
L 195.430479 243.072 
L 195.430479 240.384 
L 195.430479 237.696 
L 195.430479 235.008 
L 195.430479 232.32 
L 195.430479 229.632 
L 195.430479 226.944 
L 195.430479 224.256 
L 195.430479 221.568 
L 195.430479 218.88 
L 195.430479 216.192 
L 195.430479 213.504 
L 195.430479 210.816 
L 195.430479 208.128 
L 195.430479 205.44 
L 195.430479 202.752 
L 195.430479 200.064 
L 195.430479 197.376 
L 195.430479 194.688 
L 195.430479 192 
L 195.430479 189.312 
L 195.430479 186.624 
L 195.430479 183.936 
L 195.430479 181.248 
L 195.430479 178.56 
L 199.216552 178.113792 
L 202.295172 178.113792 
L 208.452414 178.113792 
L 211.531034 178.113792 
L 214.609655 178.113792 
L 217.688276 178.113792 
L 220.766897 178.113792 
L 223.845517 178.113792 
L 226.924138 178.113792 
L 230.002759 178.113792 
L 233.081379 178.113792 
L 236.16 178.113792 
L 239.238621 178.113792 
L 242.317241 178.113792 
L 245.395862 178.113792 
L 248.474483 178.113792 
L 251.553103 178.113792 
L 254.631724 178.113792 
L 257.710345 178.113792 
L 260.788966 178.113792 
L 263.867586 178.113792 
L 266.946207 178.113792 
L 270.024828 178.113792 
L 273.103448 178.113792 
L 276.182069 178.113792 
L 279.26069 178.113792 
L 282.33931 178.113792 
L 285.417931 178.113792 
L 288.496552 178.113792 
L 294.653793 178.113792 
L 297.732414 178.113792 
L 310.046897 178.113792 
L 313.125517 178.113792 
L 316.204138 178.113792 
L 319.282759 178.113792 
L 322.361379 178.113792 
L 334.675862 178.113792 
L 346.990345 178.113792 
L 414.72 178.113792 
L 414.72 177.459353 
L 346.990345 177.459353 
L 334.675862 177.459353 
L 322.361379 177.459353 
L 319.282759 177.459353 
L 316.204138 177.459353 
L 313.125517 177.459353 
L 310.046897 177.459353 
L 297.732414 177.459353 
L 294.653793 177.459353 
L 288.496552 177.459353 
L 285.417931 177.459353 
L 282.33931 177.459353 
L 279.26069 177.459353 
L 276.182069 177.459353 
L 273.103448 177.459353 
L 270.024828 177.459353 
L 266.946207 177.459353 
L 263.867586 177.459353 
L 260.788966 177.459353 
L 257.710345 177.459353 
L 254.631724 177.459353 
L 251.553103 177.459353 
L 248.474483 177.459353 
L 245.395862 177.459353 
L 242.317241 177.459353 
L 239.238621 177.459353 
L 236.16 177.459353 
L 233.081379 177.459353 
L 230.002759 177.459353 
L 226.924138 177.459353 
L 223.845517 177.459353 
L 220.766897 177.459353 
L 217.688276 177.459353 
L 214.609655 177.459353 
L 211.531034 177.459353 
L 208.452414 177.459353 
L 202.295172 177.459353 
L 199.216552 177.459353 
L 193.05931 178.185016 
L 189.98069 178.185016 
L 186.902069 178.185016 
L 185.364764 178.56 
L 185.364764 181.248 
L 185.364764 183.936 
L 185.364764 186.624 
L 185.364764 189.312 
L 185.364764 192 
L 185.364764 194.688 
L 185.364764 197.376 
L 185.364764 200.064 
L 185.364764 202.752 
L 185.364764 205.44 
L 185.364764 208.128 
L 185.364764 210.816 
L 185.364764 213.504 
L 185.364764 216.192 
L 185.364764 218.88 
L 185.364764 221.568 
L 185.364764 224.256 
L 185.364764 226.944 
L 185.364764 229.632 
L 185.364764 232.32 
L 185.364764 235.008 
L 185.364764 237.696 
L 185.364764 240.384 
L 185.364764 243.072 
L 185.364764 245.76 
L 185.364764 248.448 
L 185.364764 251.136 
L 185.364764 253.824 
L 185.364764 256.512 
L 185.364764 259.2 
L 185.364764 261.888 
L 185.364764 264.576 
L 185.364764 267.264 
L 185.364764 269.952 
L 185.364764 272.64 
L 185.364764 275.328 
L 185.364764 278.016 
L 185.364764 280.704 
L 185.364764 283.392 
L 185.364764 286.08 
L 185.364764 288.768 
L 185.364764 291.456 
L 185.364764 294.144 
L 185.364764 296.832 
L 185.364764 299.52 
L 185.364764 302.208 
L 185.364764 304.896 
L 185.364764 307.584 
z
" clip-path="url(#pfa1482d352)" style="fill: #73d056; fill-opacity: 0.75"/>
   </g>
   <g id="PathCollection_7">
    <path d="M 199.216552 307.584 
L 202.295172 307.584 
L 208.452414 307.584 
L 211.531034 307.584 
L 214.609655 307.584 
L 217.688276 307.584 
L 220.766897 307.584 
L 223.845517 307.584 
L 226.924138 307.584 
L 230.002759 307.584 
L 233.081379 307.584 
L 236.16 307.584 
L 239.238621 307.584 
L 242.317241 307.584 
L 245.395862 307.584 
L 248.474483 307.584 
L 251.553103 307.584 
L 254.631724 307.584 
L 257.710345 307.584 
L 260.788966 307.584 
L 263.867586 307.584 
L 266.946207 307.584 
L 270.024828 307.584 
L 273.103448 307.584 
L 276.182069 307.584 
L 279.26069 307.584 
L 282.33931 307.584 
L 285.417931 307.584 
L 288.496552 307.584 
L 294.653793 307.584 
L 297.732414 307.584 
L 310.046897 307.584 
L 313.125517 307.584 
L 316.204138 307.584 
L 319.282759 307.584 
L 322.361379 307.584 
L 334.675862 307.584 
L 346.990345 307.584 
L 414.72 307.584 
L 414.72 304.896 
L 414.72 302.208 
L 414.72 299.52 
L 414.72 296.832 
L 414.72 294.144 
L 414.72 291.456 
L 414.72 288.768 
L 414.72 286.08 
L 414.72 283.392 
L 414.72 280.704 
L 414.72 278.016 
L 414.72 275.328 
L 414.72 272.64 
L 414.72 269.952 
L 414.72 267.264 
L 414.72 264.576 
L 414.72 261.888 
L 414.72 259.2 
L 414.72 256.512 
L 414.72 253.824 
L 414.72 251.136 
L 414.72 248.448 
L 414.72 245.76 
L 414.72 243.072 
L 414.72 240.384 
L 414.72 237.696 
L 414.72 235.008 
L 414.72 232.32 
L 414.72 229.632 
L 414.72 226.944 
L 414.72 224.256 
L 414.72 221.568 
L 414.72 218.88 
L 414.72 216.192 
L 414.72 213.504 
L 414.72 210.816 
L 414.72 208.128 
L 414.72 205.44 
L 414.72 202.752 
L 414.72 200.064 
L 414.72 197.376 
L 414.72 194.688 
L 414.72 192 
L 414.72 189.312 
L 414.72 186.624 
L 414.72 183.936 
L 414.72 181.248 
L 414.72 178.56 
L 414.72 178.113792 
L 346.990345 178.113792 
L 334.675862 178.113792 
L 322.361379 178.113792 
L 319.282759 178.113792 
L 316.204138 178.113792 
L 313.125517 178.113792 
L 310.046897 178.113792 
L 297.732414 178.113792 
L 294.653793 178.113792 
L 288.496552 178.113792 
L 285.417931 178.113792 
L 282.33931 178.113792 
L 279.26069 178.113792 
L 276.182069 178.113792 
L 273.103448 178.113792 
L 270.024828 178.113792 
L 266.946207 178.113792 
L 263.867586 178.113792 
L 260.788966 178.113792 
L 257.710345 178.113792 
L 254.631724 178.113792 
L 251.553103 178.113792 
L 248.474483 178.113792 
L 245.395862 178.113792 
L 242.317241 178.113792 
L 239.238621 178.113792 
L 236.16 178.113792 
L 233.081379 178.113792 
L 230.002759 178.113792 
L 226.924138 178.113792 
L 223.845517 178.113792 
L 220.766897 178.113792 
L 217.688276 178.113792 
L 214.609655 178.113792 
L 211.531034 178.113792 
L 208.452414 178.113792 
L 202.295172 178.113792 
L 199.216552 178.113792 
L 195.430479 178.56 
L 195.430479 181.248 
L 195.430479 183.936 
L 195.430479 186.624 
L 195.430479 189.312 
L 195.430479 192 
L 195.430479 194.688 
L 195.430479 197.376 
L 195.430479 200.064 
L 195.430479 202.752 
L 195.430479 205.44 
L 195.430479 208.128 
L 195.430479 210.816 
L 195.430479 213.504 
L 195.430479 216.192 
L 195.430479 218.88 
L 195.430479 221.568 
L 195.430479 224.256 
L 195.430479 226.944 
L 195.430479 229.632 
L 195.430479 232.32 
L 195.430479 235.008 
L 195.430479 237.696 
L 195.430479 240.384 
L 195.430479 243.072 
L 195.430479 245.76 
L 195.430479 248.448 
L 195.430479 251.136 
L 195.430479 253.824 
L 195.430479 256.512 
L 195.430479 259.2 
L 195.430479 261.888 
L 195.430479 264.576 
L 195.430479 267.264 
L 195.430479 269.952 
L 195.430479 272.64 
L 195.430479 275.328 
L 195.430479 278.016 
L 195.430479 280.704 
L 195.430479 283.392 
L 195.430479 286.08 
L 195.430479 288.768 
L 195.430479 291.456 
L 195.430479 294.144 
L 195.430479 296.832 
L 195.430479 299.52 
L 195.430479 302.208 
L 195.430479 304.896 
L 195.430479 307.584 
z
" clip-path="url(#pfa1482d352)" style="fill: #d0e11c; fill-opacity: 0.75"/>
   </g>
   <g id="matplotlib.axis_1">
    <g id="xtick_1">
     <g id="line2d_1">
      <defs>
       <path id="me168197818" d="M 0 0 
L 0 3.5 
" style="stroke: #000000; stroke-width: 0.8"/>
      </defs>
      <g>
       <use xlink:href="#me168197818" x="76.898447" y="307.584" style="stroke: #000000; stroke-width: 0.8"/>
      </g>
     </g>
     <g id="text_1">
      <!-- −2 -->
      <g transform="translate(69.527354 322.182437) scale(0.1 -0.1)">
       <defs>
        <path id="DejaVuSans-2212" d="M 678 2272 
L 4684 2272 
L 4684 1741 
L 678 1741 
L 678 2272 
z
" transform="scale(0.015625)"/>
        <path id="DejaVuSans-32" d="M 1228 531 
L 3431 531 
L 3431 0 
L 469 0 
L 469 531 
Q 828 903 1448 1529 
Q 2069 2156 2228 2338 
Q 2531 2678 2651 2914 
Q 2772 3150 2772 3378 
Q 2772 3750 2511 3984 
Q 2250 4219 1831 4219 
Q 1534 4219 1204 4116 
Q 875 4013 500 3803 
L 500 4441 
Q 881 4594 1212 4672 
Q 1544 4750 1819 4750 
Q 2544 4750 2975 4387 
Q 3406 4025 3406 3419 
Q 3406 3131 3298 2873 
Q 3191 2616 2906 2266 
Q 2828 2175 2409 1742 
Q 1991 1309 1228 531 
z
" transform="scale(0.015625)"/>
       </defs>
       <use xlink:href="#DejaVuSans-2212"/>
       <use xlink:href="#DejaVuSans-32" x="83.789062"/>
      </g>
     </g>
    </g>
    <g id="xtick_2">
     <g id="line2d_2">
      <g>
       <use xlink:href="#me168197818" x="142.109362" y="307.584" style="stroke: #000000; stroke-width: 0.8"/>
      </g>
     </g>
     <g id="text_2">
      <!-- −1 -->
      <g transform="translate(134.738268 322.182437) scale(0.1 -0.1)">
       <defs>
        <path id="DejaVuSans-31" d="M 794 531 
L 1825 531 
L 1825 4091 
L 703 3866 
L 703 4441 
L 1819 4666 
L 2450 4666 
L 2450 531 
L 3481 531 
L 3481 0 
L 794 0 
L 794 531 
z
" transform="scale(0.015625)"/>
       </defs>
       <use xlink:href="#DejaVuSans-2212"/>
       <use xlink:href="#DejaVuSans-31" x="83.789062"/>
      </g>
     </g>
    </g>
    <g id="xtick_3">
     <g id="line2d_3">
      <g>
       <use xlink:href="#me168197818" x="207.320276" y="307.584" style="stroke: #000000; stroke-width: 0.8"/>
      </g>
     </g>
     <g id="text_3">
      <!-- 0 -->
      <g transform="translate(204.139026 322.182437) scale(0.1 -0.1)">
       <defs>
        <path id="DejaVuSans-30" d="M 2034 4250 
Q 1547 4250 1301 3770 
Q 1056 3291 1056 2328 
Q 1056 1369 1301 889 
Q 1547 409 2034 409 
Q 2525 409 2770 889 
Q 3016 1369 3016 2328 
Q 3016 3291 2770 3770 
Q 2525 4250 2034 4250 
z
M 2034 4750 
Q 2819 4750 3233 4129 
Q 3647 3509 3647 2328 
Q 3647 1150 3233 529 
Q 2819 -91 2034 -91 
Q 1250 -91 836 529 
Q 422 1150 422 2328 
Q 422 3509 836 4129 
Q 1250 4750 2034 4750 
z
" transform="scale(0.015625)"/>
       </defs>
       <use xlink:href="#DejaVuSans-30"/>
      </g>
     </g>
    </g>
    <g id="xtick_4">
     <g id="line2d_4">
      <g>
       <use xlink:href="#me168197818" x="272.53119" y="307.584" style="stroke: #000000; stroke-width: 0.8"/>
      </g>
     </g>
     <g id="text_4">
      <!-- 1 -->
      <g transform="translate(269.34994 322.182437) scale(0.1 -0.1)">
       <use xlink:href="#DejaVuSans-31"/>
      </g>
     </g>
    </g>
    <g id="xtick_5">
     <g id="line2d_5">
      <g>
       <use xlink:href="#me168197818" x="337.742104" y="307.584" style="stroke: #000000; stroke-width: 0.8"/>
      </g>
     </g>
     <g id="text_5">
      <!-- 2 -->
      <g transform="translate(334.560854 322.182437) scale(0.1 -0.1)">
       <use xlink:href="#DejaVuSans-32"/>
      </g>
     </g>
    </g>
    <g id="xtick_6">
     <g id="line2d_6">
      <g>
       <use xlink:href="#me168197818" x="402.953019" y="307.584" style="stroke: #000000; stroke-width: 0.8"/>
      </g>
     </g>
     <g id="text_6">
      <!-- 3 -->
      <g transform="translate(399.771769 322.182437) scale(0.1 -0.1)">
       <defs>
        <path id="DejaVuSans-33" d="M 2597 2516 
Q 3050 2419 3304 2112 
Q 3559 1806 3559 1356 
Q 3559 666 3084 287 
Q 2609 -91 1734 -91 
Q 1441 -91 1130 -33 
Q 819 25 488 141 
L 488 750 
Q 750 597 1062 519 
Q 1375 441 1716 441 
Q 2309 441 2620 675 
Q 2931 909 2931 1356 
Q 2931 1769 2642 2001 
Q 2353 2234 1838 2234 
L 1294 2234 
L 1294 2753 
L 1863 2753 
Q 2328 2753 2575 2939 
Q 2822 3125 2822 3475 
Q 2822 3834 2567 4026 
Q 2313 4219 1838 4219 
Q 1578 4219 1281 4162 
Q 984 4106 628 3988 
L 628 4550 
Q 988 4650 1302 4700 
Q 1616 4750 1894 4750 
Q 2613 4750 3031 4423 
Q 3450 4097 3450 3541 
Q 3450 3153 3228 2886 
Q 3006 2619 2597 2516 
z
" transform="scale(0.015625)"/>
       </defs>
       <use xlink:href="#DejaVuSans-33"/>
      </g>
     </g>
    </g>
    <g id="text_7">
     <!-- Mean BMI -->
     <g transform="translate(211.727969 335.860562) scale(0.1 -0.1)">
      <defs>
       <path id="DejaVuSans-4d" d="M 628 4666 
L 1569 4666 
L 2759 1491 
L 3956 4666 
L 4897 4666 
L 4897 0 
L 4281 0 
L 4281 4097 
L 3078 897 
L 2444 897 
L 1241 4097 
L 1241 0 
L 628 0 
L 628 4666 
z
" transform="scale(0.015625)"/>
       <path id="DejaVuSans-65" d="M 3597 1894 
L 3597 1613 
L 953 1613 
Q 991 1019 1311 708 
Q 1631 397 2203 397 
Q 2534 397 2845 478 
Q 3156 559 3463 722 
L 3463 178 
Q 3153 47 2828 -22 
Q 2503 -91 2169 -91 
Q 1331 -91 842 396 
Q 353 884 353 1716 
Q 353 2575 817 3079 
Q 1281 3584 2069 3584 
Q 2775 3584 3186 3129 
Q 3597 2675 3597 1894 
z
M 3022 2063 
Q 3016 2534 2758 2815 
Q 2500 3097 2075 3097 
Q 1594 3097 1305 2825 
Q 1016 2553 972 2059 
L 3022 2063 
z
" transform="scale(0.015625)"/>
       <path id="DejaVuSans-61" d="M 2194 1759 
Q 1497 1759 1228 1600 
Q 959 1441 959 1056 
Q 959 750 1161 570 
Q 1363 391 1709 391 
Q 2188 391 2477 730 
Q 2766 1069 2766 1631 
L 2766 1759 
L 2194 1759 
z
M 3341 1997 
L 3341 0 
L 2766 0 
L 2766 531 
Q 2569 213 2275 61 
Q 1981 -91 1556 -91 
Q 1019 -91 701 211 
Q 384 513 384 1019 
Q 384 1609 779 1909 
Q 1175 2209 1959 2209 
L 2766 2209 
L 2766 2266 
Q 2766 2663 2505 2880 
Q 2244 3097 1772 3097 
Q 1472 3097 1187 3025 
Q 903 2953 641 2809 
L 641 3341 
Q 956 3463 1253 3523 
Q 1550 3584 1831 3584 
Q 2591 3584 2966 3190 
Q 3341 2797 3341 1997 
z
" transform="scale(0.015625)"/>
       <path id="DejaVuSans-6e" d="M 3513 2113 
L 3513 0 
L 2938 0 
L 2938 2094 
Q 2938 2591 2744 2837 
Q 2550 3084 2163 3084 
Q 1697 3084 1428 2787 
Q 1159 2491 1159 1978 
L 1159 0 
L 581 0 
L 581 3500 
L 1159 3500 
L 1159 2956 
Q 1366 3272 1645 3428 
Q 1925 3584 2291 3584 
Q 2894 3584 3203 3211 
Q 3513 2838 3513 2113 
z
" transform="scale(0.015625)"/>
       <path id="DejaVuSans-20" transform="scale(0.015625)"/>
       <path id="DejaVuSans-42" d="M 1259 2228 
L 1259 519 
L 2272 519 
Q 2781 519 3026 730 
Q 3272 941 3272 1375 
Q 3272 1813 3026 2020 
Q 2781 2228 2272 2228 
L 1259 2228 
z
M 1259 4147 
L 1259 2741 
L 2194 2741 
Q 2656 2741 2882 2914 
Q 3109 3088 3109 3444 
Q 3109 3797 2882 3972 
Q 2656 4147 2194 4147 
L 1259 4147 
z
M 628 4666 
L 2241 4666 
Q 2963 4666 3353 4366 
Q 3744 4066 3744 3513 
Q 3744 3084 3544 2831 
Q 3344 2578 2956 2516 
Q 3422 2416 3680 2098 
Q 3938 1781 3938 1306 
Q 3938 681 3513 340 
Q 3088 0 2303 0 
L 628 0 
L 628 4666 
z
" transform="scale(0.015625)"/>
       <path id="DejaVuSans-49" d="M 628 4666 
L 1259 4666 
L 1259 0 
L 628 0 
L 628 4666 
z
" transform="scale(0.015625)"/>
      </defs>
      <use xlink:href="#DejaVuSans-4d"/>
      <use xlink:href="#DejaVuSans-65" x="86.279297"/>
      <use xlink:href="#DejaVuSans-61" x="147.802734"/>
      <use xlink:href="#DejaVuSans-6e" x="209.082031"/>
      <use xlink:href="#DejaVuSans-20" x="272.460938"/>
      <use xlink:href="#DejaVuSans-42" x="304.248047"/>
      <use xlink:href="#DejaVuSans-4d" x="372.851562"/>
      <use xlink:href="#DejaVuSans-49" x="459.130859"/>
     </g>
    </g>
   </g>
   <g id="matplotlib.axis_2">
    <g id="ytick_1">
     <g id="line2d_7">
      <defs>
       <path id="m7da700b513" d="M 0 0 
L -3.5 0 
" style="stroke: #000000; stroke-width: 0.8"/>
      </defs>
      <g>
       <use xlink:href="#m7da700b513" x="57.6" y="300.536805" style="stroke: #000000; stroke-width: 0.8"/>
      </g>
     </g>
     <g id="text_8">
      <!-- −1.0 -->
      <g transform="translate(26.317187 304.336024) scale(0.1 -0.1)">
       <defs>
        <path id="DejaVuSans-2e" d="M 684 794 
L 1344 794 
L 1344 0 
L 684 0 
L 684 794 
z
" transform="scale(0.015625)"/>
       </defs>
       <use xlink:href="#DejaVuSans-2212"/>
       <use xlink:href="#DejaVuSans-31" x="83.789062"/>
       <use xlink:href="#DejaVuSans-2e" x="147.412109"/>
       <use xlink:href="#DejaVuSans-30" x="179.199219"/>
      </g>
     </g>
    </g>
    <g id="ytick_2">
     <g id="line2d_8">
      <g>
       <use xlink:href="#m7da700b513" x="57.6" y="257.765883" style="stroke: #000000; stroke-width: 0.8"/>
      </g>
     </g>
     <g id="text_9">
      <!-- −0.5 -->
      <g transform="translate(26.317187 261.565102) scale(0.1 -0.1)">
       <defs>
        <path id="DejaVuSans-35" d="M 691 4666 
L 3169 4666 
L 3169 4134 
L 1269 4134 
L 1269 2991 
Q 1406 3038 1543 3061 
Q 1681 3084 1819 3084 
Q 2600 3084 3056 2656 
Q 3513 2228 3513 1497 
Q 3513 744 3044 326 
Q 2575 -91 1722 -91 
Q 1428 -91 1123 -41 
Q 819 9 494 109 
L 494 744 
Q 775 591 1075 516 
Q 1375 441 1709 441 
Q 2250 441 2565 725 
Q 2881 1009 2881 1497 
Q 2881 1984 2565 2268 
Q 2250 2553 1709 2553 
Q 1456 2553 1204 2497 
Q 953 2441 691 2322 
L 691 4666 
z
" transform="scale(0.015625)"/>
       </defs>
       <use xlink:href="#DejaVuSans-2212"/>
       <use xlink:href="#DejaVuSans-30" x="83.789062"/>
       <use xlink:href="#DejaVuSans-2e" x="147.412109"/>
       <use xlink:href="#DejaVuSans-35" x="179.199219"/>
      </g>
     </g>
    </g>
    <g id="ytick_3">
     <g id="line2d_9">
      <g>
       <use xlink:href="#m7da700b513" x="57.6" y="214.994961" style="stroke: #000000; stroke-width: 0.8"/>
      </g>
     </g>
     <g id="text_10">
      <!-- 0.0 -->
      <g transform="translate(34.696875 218.79418) scale(0.1 -0.1)">
       <use xlink:href="#DejaVuSans-30"/>
       <use xlink:href="#DejaVuSans-2e" x="63.623047"/>
       <use xlink:href="#DejaVuSans-30" x="95.410156"/>
      </g>
     </g>
    </g>
    <g id="ytick_4">
     <g id="line2d_10">
      <g>
       <use xlink:href="#m7da700b513" x="57.6" y="172.224039" style="stroke: #000000; stroke-width: 0.8"/>
      </g>
     </g>
     <g id="text_11">
      <!-- 0.5 -->
      <g transform="translate(34.696875 176.023258) scale(0.1 -0.1)">
       <use xlink:href="#DejaVuSans-30"/>
       <use xlink:href="#DejaVuSans-2e" x="63.623047"/>
       <use xlink:href="#DejaVuSans-35" x="95.410156"/>
      </g>
     </g>
    </g>
    <g id="ytick_5">
     <g id="line2d_11">
      <g>
       <use xlink:href="#m7da700b513" x="57.6" y="129.453117" style="stroke: #000000; stroke-width: 0.8"/>
      </g>
     </g>
     <g id="text_12">
      <!-- 1.0 -->
      <g transform="translate(34.696875 133.252336) scale(0.1 -0.1)">
       <use xlink:href="#DejaVuSans-31"/>
       <use xlink:href="#DejaVuSans-2e" x="63.623047"/>
       <use xlink:href="#DejaVuSans-30" x="95.410156"/>
      </g>
     </g>
    </g>
    <g id="ytick_6">
     <g id="line2d_12">
      <g>
       <use xlink:href="#m7da700b513" x="57.6" y="86.682195" style="stroke: #000000; stroke-width: 0.8"/>
      </g>
     </g>
     <g id="text_13">
      <!-- 1.5 -->
      <g transform="translate(34.696875 90.481414) scale(0.1 -0.1)">
       <use xlink:href="#DejaVuSans-31"/>
       <use xlink:href="#DejaVuSans-2e" x="63.623047"/>
       <use xlink:href="#DejaVuSans-35" x="95.410156"/>
      </g>
     </g>
    </g>
    <g id="ytick_7">
     <g id="line2d_13">
      <g>
       <use xlink:href="#m7da700b513" x="57.6" y="43.911273" style="stroke: #000000; stroke-width: 0.8"/>
      </g>
     </g>
     <g id="text_14">
      <!-- 2.0 -->
      <g transform="translate(34.696875 47.710492) scale(0.1 -0.1)">
       <use xlink:href="#DejaVuSans-32"/>
       <use xlink:href="#DejaVuSans-2e" x="63.623047"/>
       <use xlink:href="#DejaVuSans-30" x="95.410156"/>
      </g>
     </g>
    </g>
    <g id="text_15">
     <!-- Fish &amp; Seafood Consumption -->
     <g transform="translate(20.2375 246.353) rotate(-90) scale(0.1 -0.1)">
      <defs>
       <path id="DejaVuSans-46" d="M 628 4666 
L 3309 4666 
L 3309 4134 
L 1259 4134 
L 1259 2759 
L 3109 2759 
L 3109 2228 
L 1259 2228 
L 1259 0 
L 628 0 
L 628 4666 
z
" transform="scale(0.015625)"/>
       <path id="DejaVuSans-69" d="M 603 3500 
L 1178 3500 
L 1178 0 
L 603 0 
L 603 3500 
z
M 603 4863 
L 1178 4863 
L 1178 4134 
L 603 4134 
L 603 4863 
z
" transform="scale(0.015625)"/>
       <path id="DejaVuSans-73" d="M 2834 3397 
L 2834 2853 
Q 2591 2978 2328 3040 
Q 2066 3103 1784 3103 
Q 1356 3103 1142 2972 
Q 928 2841 928 2578 
Q 928 2378 1081 2264 
Q 1234 2150 1697 2047 
L 1894 2003 
Q 2506 1872 2764 1633 
Q 3022 1394 3022 966 
Q 3022 478 2636 193 
Q 2250 -91 1575 -91 
Q 1294 -91 989 -36 
Q 684 19 347 128 
L 347 722 
Q 666 556 975 473 
Q 1284 391 1588 391 
Q 1994 391 2212 530 
Q 2431 669 2431 922 
Q 2431 1156 2273 1281 
Q 2116 1406 1581 1522 
L 1381 1569 
Q 847 1681 609 1914 
Q 372 2147 372 2553 
Q 372 3047 722 3315 
Q 1072 3584 1716 3584 
Q 2034 3584 2315 3537 
Q 2597 3491 2834 3397 
z
" transform="scale(0.015625)"/>
       <path id="DejaVuSans-68" d="M 3513 2113 
L 3513 0 
L 2938 0 
L 2938 2094 
Q 2938 2591 2744 2837 
Q 2550 3084 2163 3084 
Q 1697 3084 1428 2787 
Q 1159 2491 1159 1978 
L 1159 0 
L 581 0 
L 581 4863 
L 1159 4863 
L 1159 2956 
Q 1366 3272 1645 3428 
Q 1925 3584 2291 3584 
Q 2894 3584 3203 3211 
Q 3513 2838 3513 2113 
z
" transform="scale(0.015625)"/>
       <path id="DejaVuSans-26" d="M 1556 2509 
Q 1272 2256 1139 2004 
Q 1006 1753 1006 1478 
Q 1006 1022 1337 719 
Q 1669 416 2169 416 
Q 2466 416 2725 514 
Q 2984 613 3213 813 
L 1556 2509 
z
M 1997 2859 
L 3584 1234 
Q 3769 1513 3872 1830 
Q 3975 2147 3994 2503 
L 4575 2503 
Q 4538 2091 4375 1687 
Q 4213 1284 3922 891 
L 4794 0 
L 4006 0 
L 3559 459 
Q 3234 181 2878 45 
Q 2522 -91 2113 -91 
Q 1359 -91 881 339 
Q 403 769 403 1441 
Q 403 1841 612 2192 
Q 822 2544 1241 2853 
Q 1091 3050 1012 3245 
Q 934 3441 934 3628 
Q 934 4134 1281 4442 
Q 1628 4750 2203 4750 
Q 2463 4750 2720 4694 
Q 2978 4638 3244 4525 
L 3244 3956 
Q 2972 4103 2725 4179 
Q 2478 4256 2266 4256 
Q 1938 4256 1733 4082 
Q 1528 3909 1528 3634 
Q 1528 3475 1620 3314 
Q 1713 3153 1997 2859 
z
" transform="scale(0.015625)"/>
       <path id="DejaVuSans-53" d="M 3425 4513 
L 3425 3897 
Q 3066 4069 2747 4153 
Q 2428 4238 2131 4238 
Q 1616 4238 1336 4038 
Q 1056 3838 1056 3469 
Q 1056 3159 1242 3001 
Q 1428 2844 1947 2747 
L 2328 2669 
Q 3034 2534 3370 2195 
Q 3706 1856 3706 1288 
Q 3706 609 3251 259 
Q 2797 -91 1919 -91 
Q 1588 -91 1214 -16 
Q 841 59 441 206 
L 441 856 
Q 825 641 1194 531 
Q 1563 422 1919 422 
Q 2459 422 2753 634 
Q 3047 847 3047 1241 
Q 3047 1584 2836 1778 
Q 2625 1972 2144 2069 
L 1759 2144 
Q 1053 2284 737 2584 
Q 422 2884 422 3419 
Q 422 4038 858 4394 
Q 1294 4750 2059 4750 
Q 2388 4750 2728 4690 
Q 3069 4631 3425 4513 
z
" transform="scale(0.015625)"/>
       <path id="DejaVuSans-66" d="M 2375 4863 
L 2375 4384 
L 1825 4384 
Q 1516 4384 1395 4259 
Q 1275 4134 1275 3809 
L 1275 3500 
L 2222 3500 
L 2222 3053 
L 1275 3053 
L 1275 0 
L 697 0 
L 697 3053 
L 147 3053 
L 147 3500 
L 697 3500 
L 697 3744 
Q 697 4328 969 4595 
Q 1241 4863 1831 4863 
L 2375 4863 
z
" transform="scale(0.015625)"/>
       <path id="DejaVuSans-6f" d="M 1959 3097 
Q 1497 3097 1228 2736 
Q 959 2375 959 1747 
Q 959 1119 1226 758 
Q 1494 397 1959 397 
Q 2419 397 2687 759 
Q 2956 1122 2956 1747 
Q 2956 2369 2687 2733 
Q 2419 3097 1959 3097 
z
M 1959 3584 
Q 2709 3584 3137 3096 
Q 3566 2609 3566 1747 
Q 3566 888 3137 398 
Q 2709 -91 1959 -91 
Q 1206 -91 779 398 
Q 353 888 353 1747 
Q 353 2609 779 3096 
Q 1206 3584 1959 3584 
z
" transform="scale(0.015625)"/>
       <path id="DejaVuSans-64" d="M 2906 2969 
L 2906 4863 
L 3481 4863 
L 3481 0 
L 2906 0 
L 2906 525 
Q 2725 213 2448 61 
Q 2172 -91 1784 -91 
Q 1150 -91 751 415 
Q 353 922 353 1747 
Q 353 2572 751 3078 
Q 1150 3584 1784 3584 
Q 2172 3584 2448 3432 
Q 2725 3281 2906 2969 
z
M 947 1747 
Q 947 1113 1208 752 
Q 1469 391 1925 391 
Q 2381 391 2643 752 
Q 2906 1113 2906 1747 
Q 2906 2381 2643 2742 
Q 2381 3103 1925 3103 
Q 1469 3103 1208 2742 
Q 947 2381 947 1747 
z
" transform="scale(0.015625)"/>
       <path id="DejaVuSans-43" d="M 4122 4306 
L 4122 3641 
Q 3803 3938 3442 4084 
Q 3081 4231 2675 4231 
Q 1875 4231 1450 3742 
Q 1025 3253 1025 2328 
Q 1025 1406 1450 917 
Q 1875 428 2675 428 
Q 3081 428 3442 575 
Q 3803 722 4122 1019 
L 4122 359 
Q 3791 134 3420 21 
Q 3050 -91 2638 -91 
Q 1578 -91 968 557 
Q 359 1206 359 2328 
Q 359 3453 968 4101 
Q 1578 4750 2638 4750 
Q 3056 4750 3426 4639 
Q 3797 4528 4122 4306 
z
" transform="scale(0.015625)"/>
       <path id="DejaVuSans-75" d="M 544 1381 
L 544 3500 
L 1119 3500 
L 1119 1403 
Q 1119 906 1312 657 
Q 1506 409 1894 409 
Q 2359 409 2629 706 
Q 2900 1003 2900 1516 
L 2900 3500 
L 3475 3500 
L 3475 0 
L 2900 0 
L 2900 538 
Q 2691 219 2414 64 
Q 2138 -91 1772 -91 
Q 1169 -91 856 284 
Q 544 659 544 1381 
z
M 1991 3584 
L 1991 3584 
z
" transform="scale(0.015625)"/>
       <path id="DejaVuSans-6d" d="M 3328 2828 
Q 3544 3216 3844 3400 
Q 4144 3584 4550 3584 
Q 5097 3584 5394 3201 
Q 5691 2819 5691 2113 
L 5691 0 
L 5113 0 
L 5113 2094 
Q 5113 2597 4934 2840 
Q 4756 3084 4391 3084 
Q 3944 3084 3684 2787 
Q 3425 2491 3425 1978 
L 3425 0 
L 2847 0 
L 2847 2094 
Q 2847 2600 2669 2842 
Q 2491 3084 2119 3084 
Q 1678 3084 1418 2786 
Q 1159 2488 1159 1978 
L 1159 0 
L 581 0 
L 581 3500 
L 1159 3500 
L 1159 2956 
Q 1356 3278 1631 3431 
Q 1906 3584 2284 3584 
Q 2666 3584 2933 3390 
Q 3200 3197 3328 2828 
z
" transform="scale(0.015625)"/>
       <path id="DejaVuSans-70" d="M 1159 525 
L 1159 -1331 
L 581 -1331 
L 581 3500 
L 1159 3500 
L 1159 2969 
Q 1341 3281 1617 3432 
Q 1894 3584 2278 3584 
Q 2916 3584 3314 3078 
Q 3713 2572 3713 1747 
Q 3713 922 3314 415 
Q 2916 -91 2278 -91 
Q 1894 -91 1617 61 
Q 1341 213 1159 525 
z
M 3116 1747 
Q 3116 2381 2855 2742 
Q 2594 3103 2138 3103 
Q 1681 3103 1420 2742 
Q 1159 2381 1159 1747 
Q 1159 1113 1420 752 
Q 1681 391 2138 391 
Q 2594 391 2855 752 
Q 3116 1113 3116 1747 
z
" transform="scale(0.015625)"/>
       <path id="DejaVuSans-74" d="M 1172 4494 
L 1172 3500 
L 2356 3500 
L 2356 3053 
L 1172 3053 
L 1172 1153 
Q 1172 725 1289 603 
Q 1406 481 1766 481 
L 2356 481 
L 2356 0 
L 1766 0 
Q 1100 0 847 248 
Q 594 497 594 1153 
L 594 3053 
L 172 3053 
L 172 3500 
L 594 3500 
L 594 4494 
L 1172 4494 
z
" transform="scale(0.015625)"/>
      </defs>
      <use xlink:href="#DejaVuSans-46"/>
      <use xlink:href="#DejaVuSans-69" x="50.269531"/>
      <use xlink:href="#DejaVuSans-73" x="78.052734"/>
      <use xlink:href="#DejaVuSans-68" x="130.152344"/>
      <use xlink:href="#DejaVuSans-20" x="193.53125"/>
      <use xlink:href="#DejaVuSans-26" x="225.318359"/>
      <use xlink:href="#DejaVuSans-20" x="303.296875"/>
      <use xlink:href="#DejaVuSans-53" x="335.083984"/>
      <use xlink:href="#DejaVuSans-65" x="398.560547"/>
      <use xlink:href="#DejaVuSans-61" x="460.083984"/>
      <use xlink:href="#DejaVuSans-66" x="521.363281"/>
      <use xlink:href="#DejaVuSans-6f" x="556.568359"/>
      <use xlink:href="#DejaVuSans-6f" x="617.75"/>
      <use xlink:href="#DejaVuSans-64" x="678.931641"/>
      <use xlink:href="#DejaVuSans-20" x="742.408203"/>
      <use xlink:href="#DejaVuSans-43" x="774.195312"/>
      <use xlink:href="#DejaVuSans-6f" x="844.019531"/>
      <use xlink:href="#DejaVuSans-6e" x="905.201172"/>
      <use xlink:href="#DejaVuSans-73" x="968.580078"/>
      <use xlink:href="#DejaVuSans-75" x="1020.679688"/>
      <use xlink:href="#DejaVuSans-6d" x="1084.058594"/>
      <use xlink:href="#DejaVuSans-70" x="1181.470703"/>
      <use xlink:href="#DejaVuSans-74" x="1244.947266"/>
      <use xlink:href="#DejaVuSans-69" x="1284.15625"/>
      <use xlink:href="#DejaVuSans-6f" x="1311.939453"/>
      <use xlink:href="#DejaVuSans-6e" x="1373.121094"/>
     </g>
    </g>
   </g>
   <g id="PathCollection_8"/>
   <g id="PathCollection_9">
    <path d="M 185.652746 41.472 
L 185.652746 44.16 
L 185.652746 46.848 
L 185.652746 49.536 
L 185.652746 52.224 
L 185.652746 54.912 
L 185.652746 57.6 
L 185.652746 60.288 
L 185.652746 62.976 
L 185.652746 65.664 
L 185.652746 68.352 
L 185.652746 70.653 
" clip-path="url(#pfa1482d352)" style="fill: none; stroke-dasharray: 1.85,0.8; stroke-dashoffset: 0; stroke: #000000; stroke-width: 0.5"/>
    <path d="M 185.652746 103.683 
L 185.652746 105.984 
L 185.652746 108.672 
L 185.652746 111.36 
L 185.652746 114.048 
L 185.652746 116.736 
L 185.652746 119.424 
L 185.652746 122.112 
L 185.652746 124.8 
L 185.652746 127.488 
L 185.652746 130.176 
L 185.652746 132.864 
L 185.652746 135.552 
L 185.652746 138.24 
L 185.652746 140.928 
L 185.652746 143.616 
L 185.652746 146.304 
L 185.652746 148.992 
L 185.652746 151.68 
L 185.652746 154.368 
L 185.652746 157.056 
L 185.652746 159.744 
L 185.652746 162.432 
L 185.652746 165.12 
L 185.652746 167.808 
L 185.652746 170.496 
L 185.652746 173.184 
L 185.652746 175.872 
L 183.823448 176.318208 
L 177.666207 176.318208 
L 174.587586 176.318208 
L 171.508966 176.318208 
L 168.430345 176.318208 
L 165.351724 176.318208 
L 162.273103 176.318208 
L 159.194483 176.318208 
L 156.115862 176.318208 
L 149.958621 176.318208 
L 146.88 176.318208 
L 143.801379 176.318208 
L 140.722759 176.318208 
L 137.644138 176.318208 
L 134.565517 176.318208 
L 131.486897 176.318208 
L 128.408276 176.318208 
L 125.329655 176.318208 
L 122.251034 176.318208 
L 119.172414 176.318208 
L 116.093793 176.318208 
L 106.857931 176.318208 
L 103.77931 176.318208 
L 100.70069 176.318208 
L 97.622069 176.318208 
L 94.543448 176.318208 
L 91.464828 176.318208 
L 79.150345 176.318208 
L 57.6 176.318208 
" clip-path="url(#pfa1482d352)" style="fill: none; stroke-dasharray: 1.85,0.8; stroke-dashoffset: 0; stroke: #000000; stroke-width: 0.5"/>
   </g>
   <g id="PathCollection_10">
    <path d="M 196.026512 41.472 
L 196.026512 44.16 
L 196.026512 46.848 
L 196.026512 49.536 
L 196.026512 52.224 
L 196.026512 54.912 
L 196.026512 57.6 
L 196.026512 60.288 
L 196.026512 62.976 
L 196.026512 65.664 
L 196.026512 68.352 
L 196.026512 71.04 
L 196.026512 73.728 
L 196.026512 76.416 
L 196.026512 79.104 
L 196.026512 81.792 
L 196.026512 84.48 
L 196.026512 87.168 
L 196.026512 89.856 
L 196.026512 92.544 
L 196.026512 95.232 
L 196.026512 97.92 
L 196.026512 100.608 
L 196.026512 103.296 
L 196.026512 105.984 
L 196.026512 108.672 
L 196.026512 111.36 
L 196.026512 114.048 
L 196.026512 116.736 
L 196.026512 119.424 
L 196.026512 122.112 
L 196.026512 124.8 
L 196.026512 127.488 
L 196.026512 130.176 
L 196.026512 132.864 
L 196.026512 135.552 
L 196.026512 138.24 
L 196.026512 140.928 
L 196.026512 143.616 
L 196.026512 146.304 
L 196.026512 148.992 
L 196.026512 151.68 
L 196.026512 154.368 
L 196.026512 157.056 
L 196.026512 159.744 
L 196.026512 162.432 
L 196.026512 165.12 
L 196.026512 165.423358 
" clip-path="url(#pfa1482d352)" style="fill: none; stroke-dasharray: 1.85,0.8; stroke-dashoffset: 0; stroke: #000000; stroke-width: 0.5"/>
    <path d="M 173.555953 176.972647 
L 171.508966 176.972647 
L 168.430345 176.972647 
L 165.351724 176.972647 
L 162.273103 176.972647 
L 159.194483 176.972647 
L 156.115862 176.972647 
L 149.958621 176.972647 
L 146.88 176.972647 
L 143.801379 176.972647 
L 140.722759 176.972647 
L 137.644138 176.972647 
L 134.565517 176.972647 
L 131.486897 176.972647 
L 128.408276 176.972647 
L 125.329655 176.972647 
L 122.251034 176.972647 
L 119.172414 176.972647 
L 116.093793 176.972647 
L 106.857931 176.972647 
L 103.77931 176.972647 
L 100.70069 176.972647 
L 97.622069 176.972647 
L 94.543448 176.972647 
L 91.464828 176.972647 
L 79.150345 176.972647 
L 57.6 176.972647 
" clip-path="url(#pfa1482d352)" style="fill: none; stroke-dasharray: 1.85,0.8; stroke-dashoffset: 0; stroke: #000000; stroke-width: 0.5"/>
   </g>
   <g id="PathCollection_11">
    <path d="M 414.72 176.150476 
L 346.990345 176.150476 
L 334.675862 176.150476 
L 322.361379 176.150476 
L 319.282759 176.150476 
L 316.204138 176.150476 
L 313.125517 176.150476 
L 310.046897 176.150476 
L 297.732414 176.150476 
L 294.653793 176.150476 
L 288.496552 176.150476 
L 285.417931 176.150476 
L 283.461207 176.150476 
" clip-path="url(#pfa1482d352)" style="fill: none; stroke-dasharray: 1.85,0.8; stroke-dashoffset: 0; stroke: #000000; stroke-width: 0.5"/>
    <path d="M 250.431207 176.150476 
L 248.474483 176.150476 
L 245.395862 176.150476 
L 242.317241 176.150476 
L 239.238621 176.150476 
L 236.16 176.150476 
L 233.081379 176.150476 
L 230.002759 176.150476 
L 226.924138 176.150476 
L 223.845517 176.150476 
L 220.766897 176.150476 
L 217.688276 176.150476 
L 214.609655 176.150476 
L 211.531034 176.150476 
L 208.452414 176.150476 
L 202.295172 176.150476 
L 199.216552 176.150476 
L 193.05931 176.876139 
L 189.98069 176.876139 
L 186.902069 176.876139 
L 183.823448 177.627085 
L 177.666207 177.627085 
L 174.587586 177.627085 
L 171.508966 177.627085 
L 168.430345 177.627085 
L 165.351724 177.627085 
L 162.273103 177.627085 
L 159.194483 177.627085 
L 156.115862 177.627085 
L 149.958621 177.627085 
L 146.88 177.627085 
L 143.801379 177.627085 
L 140.722759 177.627085 
L 137.644138 177.627085 
L 134.565517 177.627085 
L 131.486897 177.627085 
L 128.408276 177.627085 
L 125.329655 177.627085 
L 122.251034 177.627085 
L 119.172414 177.627085 
L 116.093793 177.627085 
L 106.857931 177.627085 
L 103.77931 177.627085 
L 100.70069 177.627085 
L 97.622069 177.627085 
L 94.543448 177.627085 
L 91.464828 177.627085 
L 79.150345 177.627085 
L 57.6 177.627085 
" clip-path="url(#pfa1482d352)" style="fill: none; stroke-dasharray: 1.85,0.8; stroke-dashoffset: 0; stroke: #000000; stroke-width: 0.5"/>
   </g>
   <g id="PathCollection_12">
    <path d="M 414.72 176.804915 
L 346.990345 176.804915 
L 334.675862 176.804915 
L 322.361379 176.804915 
L 319.282759 176.804915 
L 316.204138 176.804915 
L 313.125517 176.804915 
L 310.046897 176.804915 
L 297.732414 176.804915 
L 294.653793 176.804915 
L 288.496552 176.804915 
L 285.417931 176.804915 
L 282.33931 176.804915 
L 279.26069 176.804915 
L 276.182069 176.804915 
L 273.103448 176.804915 
L 270.024828 176.804915 
L 266.946207 176.804915 
L 263.867586 176.804915 
L 260.788966 176.804915 
L 257.710345 176.804915 
L 254.631724 176.804915 
L 251.553103 176.804915 
L 248.474483 176.804915 
L 245.395862 176.804915 
L 242.317241 176.804915 
L 239.238621 176.804915 
L 236.16 176.804915 
L 233.081379 176.804915 
L 230.002759 176.804915 
L 226.924138 176.804915 
L 223.845517 176.804915 
L 220.766897 176.804915 
L 217.688276 176.804915 
L 214.609655 176.804915 
L 211.531034 176.804915 
L 208.452414 176.804915 
L 202.295172 176.804915 
L 199.216552 176.804915 
L 193.05931 177.530577 
L 189.98069 177.530577 
L 186.902069 177.530577 
L 183.823448 178.281524 
L 177.666207 178.281524 
L 174.587586 178.281524 
L 171.508966 178.281524 
L 168.430345 178.281524 
L 165.351724 178.281524 
L 163.395 178.281524 
" clip-path="url(#pfa1482d352)" style="fill: none; stroke-dasharray: 1.85,0.8; stroke-dashoffset: 0; stroke: #000000; stroke-width: 0.5"/>
    <path d="M 130.365 178.281524 
L 128.408276 178.281524 
L 125.329655 178.281524 
L 122.251034 178.281524 
L 119.172414 178.281524 
L 116.093793 178.281524 
L 106.857931 178.281524 
L 103.77931 178.281524 
L 100.70069 178.281524 
L 97.622069 178.281524 
L 94.543448 178.281524 
L 91.464828 178.281524 
L 79.150345 178.281524 
L 57.6 178.281524 
" clip-path="url(#pfa1482d352)" style="fill: none; stroke-dasharray: 1.85,0.8; stroke-dashoffset: 0; stroke: #000000; stroke-width: 0.5"/>
   </g>
   <g id="PathCollection_13">
    <path d="M 414.72 177.459353 
L 346.990345 177.459353 
L 334.675862 177.459353 
L 322.361379 177.459353 
L 319.282759 177.459353 
L 316.204138 177.459353 
L 313.125517 177.459353 
L 310.046897 177.459353 
L 297.732414 177.459353 
L 294.653793 177.459353 
L 288.496552 177.459353 
L 285.417931 177.459353 
L 282.33931 177.459353 
L 279.26069 177.459353 
L 276.182069 177.459353 
L 273.103448 177.459353 
L 270.024828 177.459353 
L 266.946207 177.459353 
L 263.867586 177.459353 
L 260.788966 177.459353 
L 257.710345 177.459353 
L 254.631724 177.459353 
L 251.553103 177.459353 
L 248.474483 177.459353 
L 245.395862 177.459353 
L 242.317241 177.459353 
L 239.238621 177.459353 
L 236.16 177.459353 
L 233.081379 177.459353 
L 230.002759 177.459353 
L 226.924138 177.459353 
L 223.845517 177.459353 
L 220.766897 177.459353 
L 217.688276 177.459353 
L 214.609655 177.459353 
L 211.531034 177.459353 
L 208.452414 177.459353 
L 202.295172 177.459353 
L 199.216552 177.459353 
L 193.05931 178.185016 
L 189.98069 178.185016 
L 186.902069 178.185016 
L 185.364764 178.56 
L 185.364764 181.248 
L 185.364764 183.936 
L 185.364764 186.624 
L 185.364764 189.312 
L 185.364764 192 
L 185.364764 194.688 
L 185.364764 197.376 
L 185.364764 200.064 
L 185.364764 202.752 
L 185.364764 205.44 
L 185.364764 208.128 
L 185.364764 210.816 
L 185.364764 213.504 
L 185.364764 216.192 
L 185.364764 218.88 
L 185.364764 221.568 
L 185.364764 224.256 
L 185.364764 226.944 
L 185.364764 229.632 
L 185.364764 232.32 
L 185.364764 235.008 
L 185.364764 237.696 
L 185.364764 240.384 
L 185.364764 243.072 
L 185.364764 245.76 
L 185.364764 248.448 
L 185.364764 251.136 
L 185.364764 253.824 
L 185.364764 256.512 
L 185.364764 259.2 
L 185.364764 261.888 
L 185.364764 264.576 
L 185.364764 267.264 
L 185.364764 269.952 
L 185.364764 272.64 
L 185.364764 275.328 
L 185.364764 278.016 
L 185.364764 280.704 
L 185.364764 283.005 
" clip-path="url(#pfa1482d352)" style="fill: none; stroke-dasharray: 1.85,0.8; stroke-dashoffset: 0; stroke: #000000; stroke-width: 0.5"/>
   </g>
   <g id="PathCollection_14">
    <path d="M 414.72 178.113792 
L 346.990345 178.113792 
L 334.675862 178.113792 
L 322.361379 178.113792 
L 319.282759 178.113792 
L 316.204138 178.113792 
L 313.125517 178.113792 
L 310.046897 178.113792 
L 297.732414 178.113792 
L 294.653793 178.113792 
L 288.496552 178.113792 
L 285.417931 178.113792 
L 282.33931 178.113792 
L 279.26069 178.113792 
L 276.182069 178.113792 
L 273.103448 178.113792 
L 270.024828 178.113792 
L 266.946207 178.113792 
L 263.867586 178.113792 
L 260.788966 178.113792 
L 257.710345 178.113792 
L 254.631724 178.113792 
L 251.553103 178.113792 
L 248.474483 178.113792 
L 245.395862 178.113792 
L 242.317241 178.113792 
L 239.238621 178.113792 
L 236.16 178.113792 
L 233.081379 178.113792 
L 230.002759 178.113792 
L 226.924138 178.113792 
L 223.845517 178.113792 
L 220.766897 178.113792 
L 217.688276 178.113792 
L 214.609655 178.113792 
L 211.531034 178.113792 
L 208.452414 178.113792 
L 202.295172 178.113792 
L 199.216552 178.113792 
L 195.430479 178.56 
L 195.430479 181.248 
L 195.430479 183.936 
L 195.430479 186.624 
L 195.430479 189.312 
L 195.430479 192 
L 195.430479 194.688 
L 195.430479 196.989 
" clip-path="url(#pfa1482d352)" style="fill: none; stroke-dasharray: 1.85,0.8; stroke-dashoffset: 0; stroke: #000000; stroke-width: 0.5"/>
    <path d="M 195.430479 230.019 
L 195.430479 232.32 
L 195.430479 235.008 
L 195.430479 237.696 
L 195.430479 240.384 
L 195.430479 243.072 
L 195.430479 245.76 
L 195.430479 248.448 
L 195.430479 251.136 
L 195.430479 253.824 
L 195.430479 256.512 
L 195.430479 259.2 
L 195.430479 261.888 
L 195.430479 264.576 
L 195.430479 267.264 
L 195.430479 269.952 
L 195.430479 272.64 
L 195.430479 275.328 
L 195.430479 278.016 
L 195.430479 280.704 
L 195.430479 283.392 
L 195.430479 286.08 
L 195.430479 288.768 
L 195.430479 291.456 
L 195.430479 294.144 
L 195.430479 296.832 
L 195.430479 299.52 
L 195.430479 302.208 
L 195.430479 304.896 
L 195.430479 307.584 
" clip-path="url(#pfa1482d352)" style="fill: none; stroke-dasharray: 1.85,0.8; stroke-dashoffset: 0; stroke: #000000; stroke-width: 0.5"/>
   </g>
   <g id="PathCollection_15"/>
   <g id="LineCollection_1">
    <path d="M 118.926124 307.584 
L 118.926124 294.2784 
" clip-path="url(#pfa1482d352)" style="fill: none; stroke: #000000; stroke-width: 1.5"/>
    <path d="M 137.644138 307.584 
L 137.644138 294.2784 
" clip-path="url(#pfa1482d352)" style="fill: none; stroke: #000000; stroke-width: 1.5"/>
    <path d="M 162.149959 307.584 
L 162.149959 294.2784 
" clip-path="url(#pfa1482d352)" style="fill: none; stroke: #000000; stroke-width: 1.5"/>
    <path d="M 199.216552 307.584 
L 199.216552 294.2784 
" clip-path="url(#pfa1482d352)" style="fill: none; stroke: #000000; stroke-width: 1.5"/>
    <path d="M 223.845517 307.584 
L 223.845517 294.2784 
" clip-path="url(#pfa1482d352)" style="fill: none; stroke: #000000; stroke-width: 1.5"/>
    <path d="M 236.16 307.584 
L 236.16 294.2784 
" clip-path="url(#pfa1482d352)" style="fill: none; stroke: #000000; stroke-width: 1.5"/>
    <path d="M 245.395862 307.584 
L 245.395862 294.2784 
" clip-path="url(#pfa1482d352)" style="fill: none; stroke: #000000; stroke-width: 1.5"/>
    <path d="M 257.710345 307.584 
L 257.710345 294.2784 
" clip-path="url(#pfa1482d352)" style="fill: none; stroke: #000000; stroke-width: 1.5"/>
    <path d="M 282.5856 307.584 
L 282.5856 294.2784 
" clip-path="url(#pfa1482d352)" style="fill: none; stroke: #000000; stroke-width: 1.5"/>
   </g>
   <g id="LineCollection_2">
    <path clip-path="url(#pfa1482d352)" style="fill: none; stroke: #000000; stroke-width: 1.5"/>
    <path clip-path="url(#pfa1482d352)" style="fill: none; stroke: #000000; stroke-width: 1.5"/>
    <path clip-path="url(#pfa1482d352)" style="fill: none; stroke: #000000; stroke-width: 1.5"/>
    <path clip-path="url(#pfa1482d352)" style="fill: none; stroke: #000000; stroke-width: 1.5"/>
    <path clip-path="url(#pfa1482d352)" style="fill: none; stroke: #000000; stroke-width: 1.5"/>
    <path d="M 207.320276 291.752519 
L 210.580822 291.752519 
" clip-path="url(#pfa1482d352)" style="fill: none; stroke: #000000; stroke-width: 1.5"/>
    <path d="M 207.320276 176.565405 
L 210.580822 176.565405 
" clip-path="url(#pfa1482d352)" style="fill: none; stroke: #000000; stroke-width: 1.5"/>
    <path d="M 207.320276 120.321143 
L 210.580822 120.321143 
" clip-path="url(#pfa1482d352)" style="fill: none; stroke: #000000; stroke-width: 1.5"/>
    <path clip-path="url(#pfa1482d352)" style="fill: none; stroke: #000000; stroke-width: 1.5"/>
   </g>
   <g id="patch_3">
    <path d="M 57.6 307.584 
L 57.6 41.472 
" style="fill: none; stroke: #000000; stroke-width: 0.8; stroke-linejoin: miter; stroke-linecap: square"/>
   </g>
   <g id="patch_4">
    <path d="M 414.72 307.584 
L 414.72 41.472 
" style="fill: none; stroke: #000000; stroke-width: 0.8; stroke-linejoin: miter; stroke-linecap: square"/>
   </g>
   <g id="patch_5">
    <path d="M 57.6 307.584 
L 414.72 307.584 
" style="fill: none; stroke: #000000; stroke-width: 0.8; stroke-linejoin: miter; stroke-linecap: square"/>
   </g>
   <g id="patch_6">
    <path d="M 57.6 41.472 
L 414.72 41.472 
" style="fill: none; stroke: #000000; stroke-width: 0.8; stroke-linejoin: miter; stroke-linecap: square"/>
   </g>
   <g id="text_16">
    <!-- 2D-partial dependency plot between BMI and Fish -->
    <g transform="translate(86.434687 35.472) scale(0.12 -0.12)">
     <defs>
      <path id="DejaVuSans-44" d="M 1259 4147 
L 1259 519 
L 2022 519 
Q 2988 519 3436 956 
Q 3884 1394 3884 2338 
Q 3884 3275 3436 3711 
Q 2988 4147 2022 4147 
L 1259 4147 
z
M 628 4666 
L 1925 4666 
Q 3281 4666 3915 4102 
Q 4550 3538 4550 2338 
Q 4550 1131 3912 565 
Q 3275 0 1925 0 
L 628 0 
L 628 4666 
z
" transform="scale(0.015625)"/>
      <path id="DejaVuSans-2d" d="M 313 2009 
L 1997 2009 
L 1997 1497 
L 313 1497 
L 313 2009 
z
" transform="scale(0.015625)"/>
      <path id="DejaVuSans-72" d="M 2631 2963 
Q 2534 3019 2420 3045 
Q 2306 3072 2169 3072 
Q 1681 3072 1420 2755 
Q 1159 2438 1159 1844 
L 1159 0 
L 581 0 
L 581 3500 
L 1159 3500 
L 1159 2956 
Q 1341 3275 1631 3429 
Q 1922 3584 2338 3584 
Q 2397 3584 2469 3576 
Q 2541 3569 2628 3553 
L 2631 2963 
z
" transform="scale(0.015625)"/>
      <path id="DejaVuSans-6c" d="M 603 4863 
L 1178 4863 
L 1178 0 
L 603 0 
L 603 4863 
z
" transform="scale(0.015625)"/>
      <path id="DejaVuSans-63" d="M 3122 3366 
L 3122 2828 
Q 2878 2963 2633 3030 
Q 2388 3097 2138 3097 
Q 1578 3097 1268 2742 
Q 959 2388 959 1747 
Q 959 1106 1268 751 
Q 1578 397 2138 397 
Q 2388 397 2633 464 
Q 2878 531 3122 666 
L 3122 134 
Q 2881 22 2623 -34 
Q 2366 -91 2075 -91 
Q 1284 -91 818 406 
Q 353 903 353 1747 
Q 353 2603 823 3093 
Q 1294 3584 2113 3584 
Q 2378 3584 2631 3529 
Q 2884 3475 3122 3366 
z
" transform="scale(0.015625)"/>
      <path id="DejaVuSans-79" d="M 2059 -325 
Q 1816 -950 1584 -1140 
Q 1353 -1331 966 -1331 
L 506 -1331 
L 506 -850 
L 844 -850 
Q 1081 -850 1212 -737 
Q 1344 -625 1503 -206 
L 1606 56 
L 191 3500 
L 800 3500 
L 1894 763 
L 2988 3500 
L 3597 3500 
L 2059 -325 
z
" transform="scale(0.015625)"/>
      <path id="DejaVuSans-62" d="M 3116 1747 
Q 3116 2381 2855 2742 
Q 2594 3103 2138 3103 
Q 1681 3103 1420 2742 
Q 1159 2381 1159 1747 
Q 1159 1113 1420 752 
Q 1681 391 2138 391 
Q 2594 391 2855 752 
Q 3116 1113 3116 1747 
z
M 1159 2969 
Q 1341 3281 1617 3432 
Q 1894 3584 2278 3584 
Q 2916 3584 3314 3078 
Q 3713 2572 3713 1747 
Q 3713 922 3314 415 
Q 2916 -91 2278 -91 
Q 1894 -91 1617 61 
Q 1341 213 1159 525 
L 1159 0 
L 581 0 
L 581 4863 
L 1159 4863 
L 1159 2969 
z
" transform="scale(0.015625)"/>
      <path id="DejaVuSans-77" d="M 269 3500 
L 844 3500 
L 1563 769 
L 2278 3500 
L 2956 3500 
L 3675 769 
L 4391 3500 
L 4966 3500 
L 4050 0 
L 3372 0 
L 2619 2869 
L 1863 0 
L 1184 0 
L 269 3500 
z
" transform="scale(0.015625)"/>
     </defs>
     <use xlink:href="#DejaVuSans-32"/>
     <use xlink:href="#DejaVuSans-44" x="63.623047"/>
     <use xlink:href="#DejaVuSans-2d" x="140.625"/>
     <use xlink:href="#DejaVuSans-70" x="176.708984"/>
     <use xlink:href="#DejaVuSans-61" x="240.185547"/>
     <use xlink:href="#DejaVuSans-72" x="301.464844"/>
     <use xlink:href="#DejaVuSans-74" x="342.578125"/>
     <use xlink:href="#DejaVuSans-69" x="381.787109"/>
     <use xlink:href="#DejaVuSans-61" x="409.570312"/>
     <use xlink:href="#DejaVuSans-6c" x="470.849609"/>
     <use xlink:href="#DejaVuSans-20" x="498.632812"/>
     <use xlink:href="#DejaVuSans-64" x="530.419922"/>
     <use xlink:href="#DejaVuSans-65" x="593.896484"/>
     <use xlink:href="#DejaVuSans-70" x="655.419922"/>
     <use xlink:href="#DejaVuSans-65" x="718.896484"/>
     <use xlink:href="#DejaVuSans-6e" x="780.419922"/>
     <use xlink:href="#DejaVuSans-64" x="843.798828"/>
     <use xlink:href="#DejaVuSans-65" x="907.275391"/>
     <use xlink:href="#DejaVuSans-6e" x="968.798828"/>
     <use xlink:href="#DejaVuSans-63" x="1032.177734"/>
     <use xlink:href="#DejaVuSans-79" x="1087.158203"/>
     <use xlink:href="#DejaVuSans-20" x="1146.337891"/>
     <use xlink:href="#DejaVuSans-70" x="1178.125"/>
     <use xlink:href="#DejaVuSans-6c" x="1241.601562"/>
     <use xlink:href="#DejaVuSans-6f" x="1269.384766"/>
     <use xlink:href="#DejaVuSans-74" x="1330.566406"/>
     <use xlink:href="#DejaVuSans-20" x="1369.775391"/>
     <use xlink:href="#DejaVuSans-62" x="1401.5625"/>
     <use xlink:href="#DejaVuSans-65" x="1465.039062"/>
     <use xlink:href="#DejaVuSans-74" x="1526.5625"/>
     <use xlink:href="#DejaVuSans-77" x="1565.771484"/>
     <use xlink:href="#DejaVuSans-65" x="1647.558594"/>
     <use xlink:href="#DejaVuSans-65" x="1709.082031"/>
     <use xlink:href="#DejaVuSans-6e" x="1770.605469"/>
     <use xlink:href="#DejaVuSans-20" x="1833.984375"/>
     <use xlink:href="#DejaVuSans-42" x="1865.771484"/>
     <use xlink:href="#DejaVuSans-4d" x="1934.375"/>
     <use xlink:href="#DejaVuSans-49" x="2020.654297"/>
     <use xlink:href="#DejaVuSans-20" x="2050.146484"/>
     <use xlink:href="#DejaVuSans-61" x="2081.933594"/>
     <use xlink:href="#DejaVuSans-6e" x="2143.212891"/>
     <use xlink:href="#DejaVuSans-64" x="2206.591797"/>
     <use xlink:href="#DejaVuSans-20" x="2270.068359"/>
     <use xlink:href="#DejaVuSans-46" x="2301.855469"/>
     <use xlink:href="#DejaVuSans-69" x="2352.125"/>
     <use xlink:href="#DejaVuSans-73" x="2379.908203"/>
     <use xlink:href="#DejaVuSans-68" x="2432.007812"/>
    </g>
   </g>
   <g id="text_17">
    <g clip-path="url(#pfa1482d352)">
     <!-- -0.03 -->
     <g transform="translate(182.893371 74.231281) rotate(-270) scale(0.1 -0.1)">
      <use xlink:href="#DejaVuSans-2d"/>
      <use xlink:href="#DejaVuSans-30" x="36.083984"/>
      <use xlink:href="#DejaVuSans-2e" x="99.707031"/>
      <use xlink:href="#DejaVuSans-30" x="131.494141"/>
      <use xlink:href="#DejaVuSans-33" x="195.117188"/>
     </g>
    </g>
   </g>
   <g id="text_18">
    <g clip-path="url(#pfa1482d352)">
     <!-- -0.03 -->
     <g transform="translate(179.129837 183.786873) rotate(-22.843428) scale(0.1 -0.1)">
      <use xlink:href="#DejaVuSans-2d"/>
      <use xlink:href="#DejaVuSans-30" x="36.083984"/>
      <use xlink:href="#DejaVuSans-2e" x="99.707031"/>
      <use xlink:href="#DejaVuSans-30" x="131.494141"/>
      <use xlink:href="#DejaVuSans-33" x="195.117188"/>
     </g>
    </g>
   </g>
   <g id="text_19">
    <g clip-path="url(#pfa1482d352)">
     <!-- -0.03 -->
     <g transform="translate(254.009488 178.909851) scale(0.1 -0.1)">
      <use xlink:href="#DejaVuSans-2d"/>
      <use xlink:href="#DejaVuSans-30" x="36.083984"/>
      <use xlink:href="#DejaVuSans-2e" x="99.707031"/>
      <use xlink:href="#DejaVuSans-30" x="131.494141"/>
      <use xlink:href="#DejaVuSans-33" x="195.117188"/>
     </g>
    </g>
   </g>
   <g id="text_20">
    <g clip-path="url(#pfa1482d352)">
     <!-- -0.03 -->
     <g transform="translate(133.943281 181.040899) scale(0.1 -0.1)">
      <use xlink:href="#DejaVuSans-2d"/>
      <use xlink:href="#DejaVuSans-30" x="36.083984"/>
      <use xlink:href="#DejaVuSans-2e" x="99.707031"/>
      <use xlink:href="#DejaVuSans-30" x="131.494141"/>
      <use xlink:href="#DejaVuSans-33" x="195.117188"/>
     </g>
    </g>
   </g>
   <g id="text_21">
    <g clip-path="url(#pfa1482d352)">
     <!-- -0.03 -->
     <g transform="translate(182.605389 286.583281) rotate(-270) scale(0.1 -0.1)">
      <use xlink:href="#DejaVuSans-2d"/>
      <use xlink:href="#DejaVuSans-30" x="36.083984"/>
      <use xlink:href="#DejaVuSans-2e" x="99.707031"/>
      <use xlink:href="#DejaVuSans-30" x="131.494141"/>
      <use xlink:href="#DejaVuSans-33" x="195.117188"/>
     </g>
    </g>
   </g>
   <g id="text_22">
    <g clip-path="url(#pfa1482d352)">
     <!-- -0.03 -->
     <g transform="translate(192.671104 200.567281) rotate(-270) scale(0.1 -0.1)">
      <use xlink:href="#DejaVuSans-2d"/>
      <use xlink:href="#DejaVuSans-30" x="36.083984"/>
      <use xlink:href="#DejaVuSans-2e" x="99.707031"/>
      <use xlink:href="#DejaVuSans-30" x="131.494141"/>
      <use xlink:href="#DejaVuSans-33" x="195.117188"/>
     </g>
    </g>
   </g>
  </g>
 </g>
 <defs>
  <clipPath id="pfa1482d352">
   <rect x="57.6" y="41.472" width="357.12" height="266.112"/>
  </clipPath>
 </defs>
</svg>
