<?xml version="1.0" encoding="utf-8" standalone="no"?>
<!DOCTYPE svg PUBLIC "-//W3C//DTD SVG 1.1//EN"
  "http://www.w3.org/Graphics/SVG/1.1/DTD/svg11.dtd">
<svg xmlns:xlink="http://www.w3.org/1999/xlink" width="460.8pt" height="345.6pt" viewBox="0 0 460.8 345.6" xmlns="http://www.w3.org/2000/svg" version="1.1">
 <metadata>
  <rdf:RDF xmlns:dc="http://purl.org/dc/elements/1.1/" xmlns:cc="http://creativecommons.org/ns#" xmlns:rdf="http://www.w3.org/1999/02/22-rdf-syntax-ns#">
   <cc:Work>
    <dc:type rdf:resource="http://purl.org/dc/dcmitype/StillImage"/>
    <dc:date>2024-02-15T12:26:56.963944</dc:date>
    <dc:format>image/svg+xml</dc:format>
    <dc:creator>
     <cc:Agent>
      <dc:title>Matplotlib v3.7.0, https://matplotlib.org/</dc:title>
     </cc:Agent>
    </dc:creator>
   </cc:Work>
  </rdf:RDF>
 </metadata>
 <defs>
  <style type="text/css">*{stroke-linejoin: round; stroke-linecap: butt}</style>
 </defs>
 <g id="figure_1">
  <g id="patch_1">
   <path d="M 0 345.6 
L 460.8 345.6 
L 460.8 0 
L 0 0 
L 0 345.6 
z
" style="fill: none"/>
  </g>
  <g id="axes_1"/>
  <g id="axes_2">
   <g id="patch_2">
    <path d="M 57.6 307.584 
L 414.72 307.584 
L 414.72 41.472 
L 57.6 41.472 
L 57.6 307.584 
z
" style="fill: none"/>
   </g>
   <g id="PathCollection_1">
    <path d="M 61.207273 307.584 
L 64.814545 307.584 
L 68.421818 307.584 
L 72.029091 307.584 
L 75.636364 307.584 
L 79.243636 307.584 
L 82.850909 307.584 
L 86.458182 307.584 
L 90.065455 307.584 
L 93.672727 307.584 
L 97.28 307.584 
L 100.887273 307.584 
L 104.494545 307.584 
L 108.101818 307.584 
L 111.709091 307.584 
L 115.316364 307.584 
L 118.923636 307.584 
L 122.530909 307.584 
L 126.138182 307.584 
L 129.745455 307.584 
L 133.352727 307.584 
L 136.96 307.584 
L 140.567273 307.584 
L 144.174545 307.584 
L 147.781818 307.584 
L 151.389091 307.584 
L 154.996364 307.584 
L 158.603636 307.584 
L 162.210909 307.584 
L 165.818182 307.584 
L 168.013327 307.584 
L 168.013327 304.896 
L 168.013327 302.208 
L 168.013327 299.52 
L 168.013327 296.832 
L 168.013327 294.144 
L 168.013327 291.456 
L 168.013327 288.768 
L 168.013327 286.08 
L 168.013327 283.392 
L 168.013327 280.704 
L 168.013327 278.016 
L 168.013327 275.328 
L 168.013327 272.64 
L 168.013327 269.952 
L 168.013327 267.264 
L 168.013327 264.576 
L 168.013327 261.888 
L 168.013327 259.2 
L 168.013327 256.512 
L 168.013327 253.824 
L 168.013327 251.136 
L 168.013327 248.448 
L 168.013327 245.76 
L 168.013327 243.072 
L 168.013327 240.384 
L 168.013327 237.696 
L 168.013327 235.008 
L 168.013327 232.32 
L 168.013327 229.632 
L 168.013327 226.944 
L 168.013327 224.256 
L 168.013327 221.568 
L 168.013327 218.88 
L 168.013327 216.192 
L 168.013327 213.504 
L 168.013327 210.816 
L 168.013327 208.128 
L 168.013327 205.44 
L 168.013327 202.752 
L 168.013327 200.064 
L 168.013327 197.376 
L 168.013327 194.688 
L 168.013327 192 
L 168.013327 189.312 
L 168.013327 186.624 
L 168.013327 183.936 
L 168.013327 181.248 
L 168.013327 178.56 
L 168.772525 175.872 
L 168.772525 173.184 
L 168.772525 170.496 
L 168.772525 167.808 
L 168.772525 165.12 
L 168.772525 162.432 
L 168.772525 159.744 
L 168.772525 157.056 
L 168.772525 154.368 
L 168.772525 151.68 
L 168.772525 148.992 
L 168.772525 146.304 
L 168.772525 143.616 
L 168.772525 140.928 
L 168.772525 138.24 
L 168.772525 135.552 
L 168.772525 132.864 
L 168.772525 130.176 
L 168.772525 127.488 
L 168.772525 124.8 
L 168.772525 122.112 
L 168.772525 119.424 
L 168.772525 116.736 
L 168.772525 114.048 
L 168.772525 111.36 
L 168.772525 108.672 
L 168.772525 105.984 
L 168.772525 103.296 
L 168.772525 100.608 
L 168.772525 97.92 
L 168.772525 95.232 
L 168.772525 92.544 
L 168.772525 89.856 
L 168.772525 87.168 
L 168.772525 84.48 
L 168.772525 81.792 
L 168.772525 79.104 
L 168.772525 76.416 
L 168.772525 73.728 
L 168.772525 71.04 
L 168.772525 68.352 
L 168.772525 65.664 
L 168.772525 62.976 
L 168.772525 60.288 
L 168.772525 57.6 
L 168.772525 54.912 
L 168.772525 52.224 
L 168.772525 49.536 
L 168.772525 46.848 
L 168.772525 44.16 
L 168.772525 41.472 
L 165.818182 41.472 
L 162.210909 41.472 
L 158.603636 41.472 
L 154.996364 41.472 
L 151.389091 41.472 
L 147.781818 41.472 
L 144.174545 41.472 
L 140.567273 41.472 
L 136.96 41.472 
L 133.352727 41.472 
L 129.745455 41.472 
L 126.138182 41.472 
L 122.530909 41.472 
L 118.923636 41.472 
L 115.316364 41.472 
L 111.709091 41.472 
L 108.101818 41.472 
L 104.494545 41.472 
L 100.887273 41.472 
L 97.28 41.472 
L 93.672727 41.472 
L 90.065455 41.472 
L 86.458182 41.472 
L 82.850909 41.472 
L 79.243636 41.472 
L 75.636364 41.472 
L 72.029091 41.472 
L 68.421818 41.472 
L 64.814545 41.472 
L 61.207273 41.472 
L 57.6 41.472 
L 57.6 44.16 
L 57.6 46.848 
L 57.6 49.536 
L 57.6 52.224 
L 57.6 54.912 
L 57.6 57.6 
L 57.6 60.288 
L 57.6 62.976 
L 57.6 65.664 
L 57.6 68.352 
L 57.6 71.04 
L 57.6 73.728 
L 57.6 76.416 
L 57.6 79.104 
L 57.6 81.792 
L 57.6 84.48 
L 57.6 87.168 
L 57.6 89.856 
L 57.6 92.544 
L 57.6 95.232 
L 57.6 97.92 
L 57.6 100.608 
L 57.6 103.296 
L 57.6 105.984 
L 57.6 108.672 
L 57.6 111.36 
L 57.6 114.048 
L 57.6 116.736 
L 57.6 119.424 
L 57.6 122.112 
L 57.6 124.8 
L 57.6 127.488 
L 57.6 130.176 
L 57.6 132.864 
L 57.6 135.552 
L 57.6 138.24 
L 57.6 140.928 
L 57.6 143.616 
L 57.6 146.304 
L 57.6 148.992 
L 57.6 151.68 
L 57.6 154.368 
L 57.6 157.056 
L 57.6 159.744 
L 57.6 162.432 
L 57.6 165.12 
L 57.6 167.808 
L 57.6 170.496 
L 57.6 173.184 
L 57.6 175.872 
L 57.6 178.56 
L 57.6 181.248 
L 57.6 183.936 
L 57.6 186.624 
L 57.6 189.312 
L 57.6 192 
L 57.6 194.688 
L 57.6 197.376 
L 57.6 200.064 
L 57.6 202.752 
L 57.6 205.44 
L 57.6 208.128 
L 57.6 210.816 
L 57.6 213.504 
L 57.6 216.192 
L 57.6 218.88 
L 57.6 221.568 
L 57.6 224.256 
L 57.6 226.944 
L 57.6 229.632 
L 57.6 232.32 
L 57.6 235.008 
L 57.6 237.696 
L 57.6 240.384 
L 57.6 243.072 
L 57.6 245.76 
L 57.6 248.448 
L 57.6 251.136 
L 57.6 253.824 
L 57.6 256.512 
L 57.6 259.2 
L 57.6 261.888 
L 57.6 264.576 
L 57.6 267.264 
L 57.6 269.952 
L 57.6 272.64 
L 57.6 275.328 
L 57.6 278.016 
L 57.6 280.704 
L 57.6 283.392 
L 57.6 286.08 
L 57.6 288.768 
L 57.6 291.456 
L 57.6 294.144 
L 57.6 296.832 
L 57.6 299.52 
L 57.6 302.208 
L 57.6 304.896 
L 57.6 307.584 
z
" clip-path="url(#p5efc679feb)" style="fill: #481b6d; fill-opacity: 0.75"/>
   </g>
   <g id="PathCollection_2">
    <path d="M 169.425455 307.584 
L 173.032727 307.584 
L 176.64 307.584 
L 180.247273 307.584 
L 183.854545 307.584 
L 187.461818 307.584 
L 191.069091 307.584 
L 194.676364 307.584 
L 198.283636 307.584 
L 201.890909 307.584 
L 205.498182 307.584 
L 209.105455 307.584 
L 212.712727 307.584 
L 216.32 307.584 
L 219.927273 307.584 
L 223.534545 307.584 
L 227.141818 307.584 
L 230.749091 307.584 
L 234.356364 307.584 
L 237.963636 307.584 
L 241.570909 307.584 
L 245.178182 307.584 
L 248.785455 307.584 
L 252.392727 307.584 
L 256 307.584 
L 259.607273 307.584 
L 263.214545 307.584 
L 266.821818 307.584 
L 267.507973 307.584 
L 267.507973 304.896 
L 267.507973 302.208 
L 267.507973 299.52 
L 267.507973 296.832 
L 267.507973 294.144 
L 267.507973 291.456 
L 267.507973 288.768 
L 267.507973 286.08 
L 267.507973 283.392 
L 267.507973 280.704 
L 267.507973 278.016 
L 267.507973 275.328 
L 267.507973 272.64 
L 267.507973 269.952 
L 267.507973 267.264 
L 267.507973 264.576 
L 267.507973 261.888 
L 267.507973 259.2 
L 267.507973 256.512 
L 267.507973 253.824 
L 267.507973 251.136 
L 267.507973 248.448 
L 267.507973 245.76 
L 267.507973 243.072 
L 267.507973 240.384 
L 267.507973 237.696 
L 267.507973 235.008 
L 267.507973 232.32 
L 267.507973 229.632 
L 267.507973 226.944 
L 267.507973 224.256 
L 267.507973 221.568 
L 267.507973 218.88 
L 267.507973 216.192 
L 267.507973 213.504 
L 267.507973 210.816 
L 267.507973 208.128 
L 267.507973 205.44 
L 267.507973 202.752 
L 267.507973 200.064 
L 267.507973 197.376 
L 267.507973 194.688 
L 267.507973 192 
L 267.507973 189.312 
L 267.507973 186.624 
L 267.507973 183.936 
L 267.507973 181.248 
L 267.507973 178.56 
L 268.018836 175.872 
L 268.018836 173.184 
L 268.018836 170.496 
L 268.018836 167.808 
L 268.018836 165.12 
L 268.018836 162.432 
L 268.018836 159.744 
L 268.018836 157.056 
L 268.018836 154.368 
L 268.018836 151.68 
L 268.018836 148.992 
L 268.018836 146.304 
L 268.018836 143.616 
L 268.018836 140.928 
L 268.018836 138.24 
L 268.018836 135.552 
L 268.018836 132.864 
L 268.018836 130.176 
L 268.018836 127.488 
L 268.018836 124.8 
L 268.018836 122.112 
L 268.018836 119.424 
L 268.018836 116.736 
L 268.018836 114.048 
L 268.018836 111.36 
L 268.018836 108.672 
L 268.018836 105.984 
L 268.018836 103.296 
L 268.018836 100.608 
L 268.018836 97.92 
L 268.018836 95.232 
L 268.018836 92.544 
L 268.018836 89.856 
L 268.018836 87.168 
L 268.018836 84.48 
L 268.018836 81.792 
L 268.018836 79.104 
L 268.018836 76.416 
L 268.018836 73.728 
L 268.018836 71.04 
L 268.018836 68.352 
L 268.018836 65.664 
L 268.018836 62.976 
L 268.018836 60.288 
L 268.018836 57.6 
L 268.018836 54.912 
L 268.018836 52.224 
L 268.018836 49.536 
L 268.018836 46.848 
L 268.018836 44.16 
L 268.018836 41.472 
L 266.821818 41.472 
L 263.214545 41.472 
L 259.607273 41.472 
L 256 41.472 
L 252.392727 41.472 
L 248.785455 41.472 
L 245.178182 41.472 
L 241.570909 41.472 
L 237.963636 41.472 
L 234.356364 41.472 
L 230.749091 41.472 
L 227.141818 41.472 
L 223.534545 41.472 
L 219.927273 41.472 
L 216.32 41.472 
L 212.712727 41.472 
L 209.105455 41.472 
L 205.498182 41.472 
L 201.890909 41.472 
L 198.283636 41.472 
L 194.676364 41.472 
L 191.069091 41.472 
L 187.461818 41.472 
L 183.854545 41.472 
L 180.247273 41.472 
L 176.64 41.472 
L 173.032727 41.472 
L 169.425455 41.472 
L 168.772525 41.472 
L 168.772525 44.16 
L 168.772525 46.848 
L 168.772525 49.536 
L 168.772525 52.224 
L 168.772525 54.912 
L 168.772525 57.6 
L 168.772525 60.288 
L 168.772525 62.976 
L 168.772525 65.664 
L 168.772525 68.352 
L 168.772525 71.04 
L 168.772525 73.728 
L 168.772525 76.416 
L 168.772525 79.104 
L 168.772525 81.792 
L 168.772525 84.48 
L 168.772525 87.168 
L 168.772525 89.856 
L 168.772525 92.544 
L 168.772525 95.232 
L 168.772525 97.92 
L 168.772525 100.608 
L 168.772525 103.296 
L 168.772525 105.984 
L 168.772525 108.672 
L 168.772525 111.36 
L 168.772525 114.048 
L 168.772525 116.736 
L 168.772525 119.424 
L 168.772525 122.112 
L 168.772525 124.8 
L 168.772525 127.488 
L 168.772525 130.176 
L 168.772525 132.864 
L 168.772525 135.552 
L 168.772525 138.24 
L 168.772525 140.928 
L 168.772525 143.616 
L 168.772525 146.304 
L 168.772525 148.992 
L 168.772525 151.68 
L 168.772525 154.368 
L 168.772525 157.056 
L 168.772525 159.744 
L 168.772525 162.432 
L 168.772525 165.12 
L 168.772525 167.808 
L 168.772525 170.496 
L 168.772525 173.184 
L 168.772525 175.872 
L 168.013327 178.56 
L 168.013327 181.248 
L 168.013327 183.936 
L 168.013327 186.624 
L 168.013327 189.312 
L 168.013327 192 
L 168.013327 194.688 
L 168.013327 197.376 
L 168.013327 200.064 
L 168.013327 202.752 
L 168.013327 205.44 
L 168.013327 208.128 
L 168.013327 210.816 
L 168.013327 213.504 
L 168.013327 216.192 
L 168.013327 218.88 
L 168.013327 221.568 
L 168.013327 224.256 
L 168.013327 226.944 
L 168.013327 229.632 
L 168.013327 232.32 
L 168.013327 235.008 
L 168.013327 237.696 
L 168.013327 240.384 
L 168.013327 243.072 
L 168.013327 245.76 
L 168.013327 248.448 
L 168.013327 251.136 
L 168.013327 253.824 
L 168.013327 256.512 
L 168.013327 259.2 
L 168.013327 261.888 
L 168.013327 264.576 
L 168.013327 267.264 
L 168.013327 269.952 
L 168.013327 272.64 
L 168.013327 275.328 
L 168.013327 278.016 
L 168.013327 280.704 
L 168.013327 283.392 
L 168.013327 286.08 
L 168.013327 288.768 
L 168.013327 291.456 
L 168.013327 294.144 
L 168.013327 296.832 
L 168.013327 299.52 
L 168.013327 302.208 
L 168.013327 304.896 
L 168.013327 307.584 
z
" clip-path="url(#p5efc679feb)" style="fill: #3f4788; fill-opacity: 0.75"/>
   </g>
   <g id="PathCollection_3">
    <path d="M 270.429091 307.584 
L 271.053949 307.584 
L 271.053949 304.896 
L 271.053949 302.208 
L 271.053949 299.52 
L 271.053949 296.832 
L 271.053949 294.144 
L 271.053949 291.456 
L 271.053949 288.768 
L 271.053949 286.08 
L 271.053949 283.392 
L 271.053949 280.704 
L 271.053949 278.016 
L 271.053949 275.328 
L 271.053949 272.64 
L 271.053949 269.952 
L 271.053949 267.264 
L 271.053949 264.576 
L 271.053949 261.888 
L 271.053949 259.2 
L 271.053949 256.512 
L 271.053949 253.824 
L 271.053949 251.136 
L 271.053949 248.448 
L 271.053949 245.76 
L 271.053949 243.072 
L 271.053949 240.384 
L 271.053949 237.696 
L 271.053949 235.008 
L 271.053949 232.32 
L 271.053949 229.632 
L 271.053949 226.944 
L 271.053949 224.256 
L 271.053949 221.568 
L 271.053949 218.88 
L 271.053949 216.192 
L 271.053949 213.504 
L 271.053949 210.816 
L 271.053949 208.128 
L 271.053949 205.44 
L 271.053949 202.752 
L 271.053949 200.064 
L 271.053949 197.376 
L 271.053949 194.688 
L 271.053949 192 
L 271.053949 189.312 
L 271.053949 186.624 
L 271.053949 183.936 
L 271.053949 181.248 
L 271.053949 178.56 
L 271.46348 175.872 
L 271.46348 173.184 
L 271.46348 170.496 
L 271.46348 167.808 
L 271.46348 165.12 
L 271.46348 162.432 
L 271.46348 159.744 
L 271.46348 157.056 
L 271.46348 154.368 
L 271.46348 151.68 
L 271.46348 148.992 
L 271.46348 146.304 
L 271.46348 143.616 
L 271.46348 140.928 
L 271.46348 138.24 
L 271.46348 135.552 
L 271.46348 132.864 
L 271.46348 130.176 
L 271.46348 127.488 
L 271.46348 124.8 
L 271.46348 122.112 
L 271.46348 119.424 
L 271.46348 116.736 
L 271.46348 114.048 
L 271.46348 111.36 
L 271.46348 108.672 
L 271.46348 105.984 
L 271.46348 103.296 
L 271.46348 100.608 
L 271.46348 97.92 
L 271.46348 95.232 
L 271.46348 92.544 
L 271.46348 89.856 
L 271.46348 87.168 
L 271.46348 84.48 
L 271.46348 81.792 
L 271.46348 79.104 
L 271.46348 76.416 
L 271.46348 73.728 
L 271.46348 71.04 
L 271.46348 68.352 
L 271.46348 65.664 
L 271.46348 62.976 
L 271.46348 60.288 
L 271.46348 57.6 
L 271.46348 54.912 
L 271.46348 52.224 
L 271.46348 49.536 
L 271.46348 46.848 
L 271.46348 44.16 
L 271.46348 41.472 
L 270.429091 41.472 
L 268.018836 41.472 
L 268.018836 44.16 
L 268.018836 46.848 
L 268.018836 49.536 
L 268.018836 52.224 
L 268.018836 54.912 
L 268.018836 57.6 
L 268.018836 60.288 
L 268.018836 62.976 
L 268.018836 65.664 
L 268.018836 68.352 
L 268.018836 71.04 
L 268.018836 73.728 
L 268.018836 76.416 
L 268.018836 79.104 
L 268.018836 81.792 
L 268.018836 84.48 
L 268.018836 87.168 
L 268.018836 89.856 
L 268.018836 92.544 
L 268.018836 95.232 
L 268.018836 97.92 
L 268.018836 100.608 
L 268.018836 103.296 
L 268.018836 105.984 
L 268.018836 108.672 
L 268.018836 111.36 
L 268.018836 114.048 
L 268.018836 116.736 
L 268.018836 119.424 
L 268.018836 122.112 
L 268.018836 124.8 
L 268.018836 127.488 
L 268.018836 130.176 
L 268.018836 132.864 
L 268.018836 135.552 
L 268.018836 138.24 
L 268.018836 140.928 
L 268.018836 143.616 
L 268.018836 146.304 
L 268.018836 148.992 
L 268.018836 151.68 
L 268.018836 154.368 
L 268.018836 157.056 
L 268.018836 159.744 
L 268.018836 162.432 
L 268.018836 165.12 
L 268.018836 167.808 
L 268.018836 170.496 
L 268.018836 173.184 
L 268.018836 175.872 
L 267.507973 178.56 
L 267.507973 181.248 
L 267.507973 183.936 
L 267.507973 186.624 
L 267.507973 189.312 
L 267.507973 192 
L 267.507973 194.688 
L 267.507973 197.376 
L 267.507973 200.064 
L 267.507973 202.752 
L 267.507973 205.44 
L 267.507973 208.128 
L 267.507973 210.816 
L 267.507973 213.504 
L 267.507973 216.192 
L 267.507973 218.88 
L 267.507973 221.568 
L 267.507973 224.256 
L 267.507973 226.944 
L 267.507973 229.632 
L 267.507973 232.32 
L 267.507973 235.008 
L 267.507973 237.696 
L 267.507973 240.384 
L 267.507973 243.072 
L 267.507973 245.76 
L 267.507973 248.448 
L 267.507973 251.136 
L 267.507973 253.824 
L 267.507973 256.512 
L 267.507973 259.2 
L 267.507973 261.888 
L 267.507973 264.576 
L 267.507973 267.264 
L 267.507973 269.952 
L 267.507973 272.64 
L 267.507973 275.328 
L 267.507973 278.016 
L 267.507973 280.704 
L 267.507973 283.392 
L 267.507973 286.08 
L 267.507973 288.768 
L 267.507973 291.456 
L 267.507973 294.144 
L 267.507973 296.832 
L 267.507973 299.52 
L 267.507973 302.208 
L 267.507973 304.896 
L 267.507973 307.584 
z
" clip-path="url(#p5efc679feb)" style="fill: #2e6e8e; fill-opacity: 0.75"/>
   </g>
   <g id="PathCollection_4">
    <path d="M 274.02051 304.896 
L 274.02051 302.208 
L 274.02051 299.52 
L 274.02051 296.832 
L 274.02051 294.144 
L 274.02051 291.456 
L 274.02051 288.768 
L 274.02051 286.08 
L 274.02051 283.392 
L 274.02051 280.704 
L 274.02051 278.016 
L 274.02051 275.328 
L 274.02051 272.64 
L 274.02051 269.952 
L 274.02051 267.264 
L 274.02051 264.576 
L 274.02051 261.888 
L 274.02051 259.2 
L 274.02051 256.512 
L 274.02051 253.824 
L 274.02051 251.136 
L 274.02051 248.448 
L 274.02051 245.76 
L 274.02051 243.072 
L 274.02051 240.384 
L 274.02051 237.696 
L 274.02051 235.008 
L 274.02051 232.32 
L 274.02051 229.632 
L 274.02051 226.944 
L 274.02051 224.256 
L 274.02051 221.568 
L 274.02051 218.88 
L 274.02051 216.192 
L 274.02051 213.504 
L 274.02051 210.816 
L 274.02051 208.128 
L 274.02051 205.44 
L 274.02051 202.752 
L 274.02051 200.064 
L 274.02051 197.376 
L 274.02051 194.688 
L 274.02051 192 
L 274.02051 189.312 
L 274.02051 186.624 
L 274.02051 183.936 
L 274.02051 181.248 
L 274.02051 178.56 
L 274.036364 178.455942 
L 277.643636 178.455942 
L 279.11786 175.872 
L 279.11786 173.184 
L 279.11786 170.496 
L 279.11786 167.808 
L 279.11786 165.12 
L 279.11786 162.432 
L 279.11786 159.744 
L 279.11786 157.056 
L 279.11786 154.368 
L 279.11786 151.68 
L 279.11786 148.992 
L 279.11786 146.304 
L 279.11786 143.616 
L 279.11786 140.928 
L 279.11786 138.24 
L 279.11786 135.552 
L 279.11786 132.864 
L 279.11786 130.176 
L 279.11786 127.488 
L 279.11786 124.8 
L 279.11786 122.112 
L 279.11786 119.424 
L 279.11786 116.736 
L 279.11786 114.048 
L 279.11786 111.36 
L 279.11786 108.672 
L 279.11786 105.984 
L 279.11786 103.296 
L 279.11786 100.608 
L 279.11786 97.92 
L 279.11786 95.232 
L 279.11786 92.544 
L 279.11786 89.856 
L 279.11786 87.168 
L 279.11786 84.48 
L 279.11786 81.792 
L 279.11786 79.104 
L 279.11786 76.416 
L 279.11786 73.728 
L 279.11786 71.04 
L 279.11786 68.352 
L 279.11786 65.664 
L 279.11786 62.976 
L 279.11786 60.288 
L 279.11786 57.6 
L 279.11786 54.912 
L 279.11786 52.224 
L 279.11786 49.536 
L 279.11786 46.848 
L 279.11786 44.16 
L 279.11786 41.472 
L 277.643636 41.472 
L 274.036364 41.472 
L 271.46348 41.472 
L 271.46348 44.16 
L 271.46348 46.848 
L 271.46348 49.536 
L 271.46348 52.224 
L 271.46348 54.912 
L 271.46348 57.6 
L 271.46348 60.288 
L 271.46348 62.976 
L 271.46348 65.664 
L 271.46348 68.352 
L 271.46348 71.04 
L 271.46348 73.728 
L 271.46348 76.416 
L 271.46348 79.104 
L 271.46348 81.792 
L 271.46348 84.48 
L 271.46348 87.168 
L 271.46348 89.856 
L 271.46348 92.544 
L 271.46348 95.232 
L 271.46348 97.92 
L 271.46348 100.608 
L 271.46348 103.296 
L 271.46348 105.984 
L 271.46348 108.672 
L 271.46348 111.36 
L 271.46348 114.048 
L 271.46348 116.736 
L 271.46348 119.424 
L 271.46348 122.112 
L 271.46348 124.8 
L 271.46348 127.488 
L 271.46348 130.176 
L 271.46348 132.864 
L 271.46348 135.552 
L 271.46348 138.24 
L 271.46348 140.928 
L 271.46348 143.616 
L 271.46348 146.304 
L 271.46348 148.992 
L 271.46348 151.68 
L 271.46348 154.368 
L 271.46348 157.056 
L 271.46348 159.744 
L 271.46348 162.432 
L 271.46348 165.12 
L 271.46348 167.808 
L 271.46348 170.496 
L 271.46348 173.184 
L 271.46348 175.872 
L 271.053949 178.56 
L 271.053949 181.248 
L 271.053949 183.936 
L 271.053949 186.624 
L 271.053949 189.312 
L 271.053949 192 
L 271.053949 194.688 
L 271.053949 197.376 
L 271.053949 200.064 
L 271.053949 202.752 
L 271.053949 205.44 
L 271.053949 208.128 
L 271.053949 210.816 
L 271.053949 213.504 
L 271.053949 216.192 
L 271.053949 218.88 
L 271.053949 221.568 
L 271.053949 224.256 
L 271.053949 226.944 
L 271.053949 229.632 
L 271.053949 232.32 
L 271.053949 235.008 
L 271.053949 237.696 
L 271.053949 240.384 
L 271.053949 243.072 
L 271.053949 245.76 
L 271.053949 248.448 
L 271.053949 251.136 
L 271.053949 253.824 
L 271.053949 256.512 
L 271.053949 259.2 
L 271.053949 261.888 
L 271.053949 264.576 
L 271.053949 267.264 
L 271.053949 269.952 
L 271.053949 272.64 
L 271.053949 275.328 
L 271.053949 278.016 
L 271.053949 280.704 
L 271.053949 283.392 
L 271.053949 286.08 
L 271.053949 288.768 
L 271.053949 291.456 
L 271.053949 294.144 
L 271.053949 296.832 
L 271.053949 299.52 
L 271.053949 302.208 
L 271.053949 304.896 
L 271.053949 307.584 
L 274.02051 307.584 
z
" clip-path="url(#p5efc679feb)" style="fill: #21918c; fill-opacity: 0.75"/>
   </g>
   <g id="PathCollection_5">
    <path d="M 274.036364 307.584 
L 277.643636 307.584 
L 281.250909 307.584 
L 284.858182 307.584 
L 288.465455 307.584 
L 292.072727 307.584 
L 295.68 307.584 
L 299.287273 307.584 
L 302.066475 307.584 
L 302.066475 304.896 
L 302.066475 302.208 
L 302.066475 299.52 
L 302.066475 296.832 
L 302.066475 294.144 
L 302.066475 291.456 
L 302.066475 288.768 
L 302.066475 286.08 
L 302.066475 283.392 
L 302.066475 280.704 
L 302.066475 278.016 
L 302.066475 275.328 
L 302.066475 272.64 
L 302.066475 269.952 
L 302.066475 267.264 
L 302.066475 264.576 
L 302.066475 261.888 
L 302.066475 259.2 
L 302.066475 256.512 
L 302.066475 253.824 
L 302.066475 251.136 
L 302.066475 248.448 
L 302.066475 245.76 
L 302.066475 243.072 
L 302.066475 240.384 
L 302.066475 237.696 
L 302.066475 235.008 
L 302.066475 232.32 
L 302.066475 229.632 
L 302.066475 226.944 
L 302.066475 224.256 
L 302.066475 221.568 
L 302.066475 218.88 
L 302.066475 216.192 
L 302.066475 213.504 
L 302.066475 210.816 
L 302.066475 208.128 
L 302.066475 205.44 
L 302.066475 202.752 
L 302.066475 200.064 
L 302.066475 197.376 
L 302.066475 194.688 
L 302.066475 192 
L 302.066475 189.312 
L 302.066475 186.624 
L 302.066475 183.936 
L 302.066475 181.248 
L 302.066475 178.56 
L 302.721484 175.872 
L 302.721484 173.184 
L 302.721484 170.496 
L 302.721484 167.808 
L 302.721484 165.12 
L 302.721484 162.432 
L 302.721484 159.744 
L 302.721484 157.056 
L 302.721484 154.368 
L 302.721484 151.68 
L 302.721484 148.992 
L 302.721484 146.304 
L 302.721484 143.616 
L 302.721484 140.928 
L 302.721484 138.24 
L 302.721484 135.552 
L 302.721484 132.864 
L 302.721484 130.176 
L 302.721484 127.488 
L 302.721484 124.8 
L 302.721484 122.112 
L 302.721484 119.424 
L 302.721484 116.736 
L 302.721484 114.048 
L 302.721484 111.36 
L 302.721484 108.672 
L 302.721484 105.984 
L 302.721484 103.296 
L 302.721484 100.608 
L 302.721484 97.92 
L 302.721484 95.232 
L 302.721484 92.544 
L 302.721484 89.856 
L 302.721484 87.168 
L 302.721484 84.48 
L 302.721484 81.792 
L 302.721484 79.104 
L 302.721484 76.416 
L 302.721484 73.728 
L 302.721484 71.04 
L 302.721484 68.352 
L 302.721484 65.664 
L 302.721484 62.976 
L 302.721484 60.288 
L 302.721484 57.6 
L 302.721484 54.912 
L 302.721484 52.224 
L 302.721484 49.536 
L 302.721484 46.848 
L 302.721484 44.16 
L 302.721484 41.472 
L 299.287273 41.472 
L 295.68 41.472 
L 292.072727 41.472 
L 288.465455 41.472 
L 284.858182 41.472 
L 281.250909 41.472 
L 279.11786 41.472 
L 279.11786 44.16 
L 279.11786 46.848 
L 279.11786 49.536 
L 279.11786 52.224 
L 279.11786 54.912 
L 279.11786 57.6 
L 279.11786 60.288 
L 279.11786 62.976 
L 279.11786 65.664 
L 279.11786 68.352 
L 279.11786 71.04 
L 279.11786 73.728 
L 279.11786 76.416 
L 279.11786 79.104 
L 279.11786 81.792 
L 279.11786 84.48 
L 279.11786 87.168 
L 279.11786 89.856 
L 279.11786 92.544 
L 279.11786 95.232 
L 279.11786 97.92 
L 279.11786 100.608 
L 279.11786 103.296 
L 279.11786 105.984 
L 279.11786 108.672 
L 279.11786 111.36 
L 279.11786 114.048 
L 279.11786 116.736 
L 279.11786 119.424 
L 279.11786 122.112 
L 279.11786 124.8 
L 279.11786 127.488 
L 279.11786 130.176 
L 279.11786 132.864 
L 279.11786 135.552 
L 279.11786 138.24 
L 279.11786 140.928 
L 279.11786 143.616 
L 279.11786 146.304 
L 279.11786 148.992 
L 279.11786 151.68 
L 279.11786 154.368 
L 279.11786 157.056 
L 279.11786 159.744 
L 279.11786 162.432 
L 279.11786 165.12 
L 279.11786 167.808 
L 279.11786 170.496 
L 279.11786 173.184 
L 279.11786 175.872 
L 277.643636 178.455942 
L 274.036364 178.455942 
L 274.02051 178.56 
L 274.02051 181.248 
L 274.02051 183.936 
L 274.02051 186.624 
L 274.02051 189.312 
L 274.02051 192 
L 274.02051 194.688 
L 274.02051 197.376 
L 274.02051 200.064 
L 274.02051 202.752 
L 274.02051 205.44 
L 274.02051 208.128 
L 274.02051 210.816 
L 274.02051 213.504 
L 274.02051 216.192 
L 274.02051 218.88 
L 274.02051 221.568 
L 274.02051 224.256 
L 274.02051 226.944 
L 274.02051 229.632 
L 274.02051 232.32 
L 274.02051 235.008 
L 274.02051 237.696 
L 274.02051 240.384 
L 274.02051 243.072 
L 274.02051 245.76 
L 274.02051 248.448 
L 274.02051 251.136 
L 274.02051 253.824 
L 274.02051 256.512 
L 274.02051 259.2 
L 274.02051 261.888 
L 274.02051 264.576 
L 274.02051 267.264 
L 274.02051 269.952 
L 274.02051 272.64 
L 274.02051 275.328 
L 274.02051 278.016 
L 274.02051 280.704 
L 274.02051 283.392 
L 274.02051 286.08 
L 274.02051 288.768 
L 274.02051 291.456 
L 274.02051 294.144 
L 274.02051 296.832 
L 274.02051 299.52 
L 274.02051 302.208 
L 274.02051 304.896 
L 274.02051 307.584 
z
" clip-path="url(#p5efc679feb)" style="fill: #2db27d; fill-opacity: 0.75"/>
   </g>
   <g id="PathCollection_6">
    <path d="M 302.894545 307.584 
L 306.501818 307.584 
L 310.109091 307.584 
L 313.716364 307.584 
L 317.323636 307.584 
L 320.930909 307.584 
L 324.538182 307.584 
L 328.145455 307.584 
L 331.752727 307.584 
L 335.36 307.584 
L 338.967273 307.584 
L 341.753358 307.584 
L 341.753358 304.896 
L 341.753358 302.208 
L 341.753358 299.52 
L 341.753358 296.832 
L 341.753358 294.144 
L 341.753358 291.456 
L 341.753358 288.768 
L 341.753358 286.08 
L 341.753358 283.392 
L 341.753358 280.704 
L 341.753358 278.016 
L 341.753358 275.328 
L 341.753358 272.64 
L 341.753358 269.952 
L 341.753358 267.264 
L 341.753358 264.576 
L 341.753358 261.888 
L 341.753358 259.2 
L 341.753358 256.512 
L 341.753358 253.824 
L 341.753358 251.136 
L 341.753358 248.448 
L 341.753358 245.76 
L 341.753358 243.072 
L 341.753358 240.384 
L 341.753358 237.696 
L 341.753358 235.008 
L 341.753358 232.32 
L 341.753358 229.632 
L 341.753358 226.944 
L 341.753358 224.256 
L 341.753358 221.568 
L 341.753358 218.88 
L 341.753358 216.192 
L 341.753358 213.504 
L 341.753358 210.816 
L 341.753358 208.128 
L 341.753358 205.44 
L 341.753358 202.752 
L 341.753358 200.064 
L 341.753358 197.376 
L 341.753358 194.688 
L 341.753358 192 
L 341.753358 189.312 
L 341.753358 186.624 
L 341.753358 183.936 
L 341.753358 181.248 
L 341.753358 178.56 
L 342.574545 176.575183 
L 346.181818 176.575183 
L 349.789091 176.575183 
L 353.396364 176.575183 
L 357.003636 176.575183 
L 360.610909 176.575183 
L 360.835562 175.872 
L 360.835562 173.184 
L 360.835562 170.496 
L 360.835562 167.808 
L 360.835562 165.12 
L 360.835562 162.432 
L 360.835562 159.744 
L 360.835562 157.056 
L 360.835562 154.368 
L 360.835562 151.68 
L 360.835562 148.992 
L 360.835562 146.304 
L 360.835562 143.616 
L 360.835562 140.928 
L 360.835562 138.24 
L 360.835562 135.552 
L 360.835562 132.864 
L 360.835562 130.176 
L 360.835562 127.488 
L 360.835562 124.8 
L 360.835562 122.112 
L 360.835562 119.424 
L 360.835562 116.736 
L 360.835562 114.048 
L 360.835562 111.36 
L 360.835562 108.672 
L 360.835562 105.984 
L 360.835562 103.296 
L 360.835562 100.608 
L 360.835562 97.92 
L 360.835562 95.232 
L 360.835562 92.544 
L 360.835562 89.856 
L 360.835562 87.168 
L 360.835562 84.48 
L 360.835562 81.792 
L 360.835562 79.104 
L 360.835562 76.416 
L 360.835562 73.728 
L 360.835562 71.04 
L 360.835562 68.352 
L 360.835562 65.664 
L 360.835562 62.976 
L 360.835562 60.288 
L 360.835562 57.6 
L 360.835562 54.912 
L 360.835562 52.224 
L 360.835562 49.536 
L 360.835562 46.848 
L 360.835562 44.16 
L 360.835562 41.472 
L 360.610909 41.472 
L 357.003636 41.472 
L 353.396364 41.472 
L 349.789091 41.472 
L 346.181818 41.472 
L 342.574545 41.472 
L 338.967273 41.472 
L 335.36 41.472 
L 331.752727 41.472 
L 328.145455 41.472 
L 324.538182 41.472 
L 320.930909 41.472 
L 317.323636 41.472 
L 313.716364 41.472 
L 310.109091 41.472 
L 306.501818 41.472 
L 302.894545 41.472 
L 302.721484 41.472 
L 302.721484 44.16 
L 302.721484 46.848 
L 302.721484 49.536 
L 302.721484 52.224 
L 302.721484 54.912 
L 302.721484 57.6 
L 302.721484 60.288 
L 302.721484 62.976 
L 302.721484 65.664 
L 302.721484 68.352 
L 302.721484 71.04 
L 302.721484 73.728 
L 302.721484 76.416 
L 302.721484 79.104 
L 302.721484 81.792 
L 302.721484 84.48 
L 302.721484 87.168 
L 302.721484 89.856 
L 302.721484 92.544 
L 302.721484 95.232 
L 302.721484 97.92 
L 302.721484 100.608 
L 302.721484 103.296 
L 302.721484 105.984 
L 302.721484 108.672 
L 302.721484 111.36 
L 302.721484 114.048 
L 302.721484 116.736 
L 302.721484 119.424 
L 302.721484 122.112 
L 302.721484 124.8 
L 302.721484 127.488 
L 302.721484 130.176 
L 302.721484 132.864 
L 302.721484 135.552 
L 302.721484 138.24 
L 302.721484 140.928 
L 302.721484 143.616 
L 302.721484 146.304 
L 302.721484 148.992 
L 302.721484 151.68 
L 302.721484 154.368 
L 302.721484 157.056 
L 302.721484 159.744 
L 302.721484 162.432 
L 302.721484 165.12 
L 302.721484 167.808 
L 302.721484 170.496 
L 302.721484 173.184 
L 302.721484 175.872 
L 302.066475 178.56 
L 302.066475 181.248 
L 302.066475 183.936 
L 302.066475 186.624 
L 302.066475 189.312 
L 302.066475 192 
L 302.066475 194.688 
L 302.066475 197.376 
L 302.066475 200.064 
L 302.066475 202.752 
L 302.066475 205.44 
L 302.066475 208.128 
L 302.066475 210.816 
L 302.066475 213.504 
L 302.066475 216.192 
L 302.066475 218.88 
L 302.066475 221.568 
L 302.066475 224.256 
L 302.066475 226.944 
L 302.066475 229.632 
L 302.066475 232.32 
L 302.066475 235.008 
L 302.066475 237.696 
L 302.066475 240.384 
L 302.066475 243.072 
L 302.066475 245.76 
L 302.066475 248.448 
L 302.066475 251.136 
L 302.066475 253.824 
L 302.066475 256.512 
L 302.066475 259.2 
L 302.066475 261.888 
L 302.066475 264.576 
L 302.066475 267.264 
L 302.066475 269.952 
L 302.066475 272.64 
L 302.066475 275.328 
L 302.066475 278.016 
L 302.066475 280.704 
L 302.066475 283.392 
L 302.066475 286.08 
L 302.066475 288.768 
L 302.066475 291.456 
L 302.066475 294.144 
L 302.066475 296.832 
L 302.066475 299.52 
L 302.066475 302.208 
L 302.066475 304.896 
L 302.066475 307.584 
z
" clip-path="url(#p5efc679feb)" style="fill: #73d056; fill-opacity: 0.75"/>
   </g>
   <g id="PathCollection_7">
    <path d="M 342.574545 307.584 
L 346.181818 307.584 
L 349.789091 307.584 
L 353.396364 307.584 
L 357.003636 307.584 
L 360.610909 307.584 
L 364.218182 307.584 
L 367.825455 307.584 
L 371.432727 307.584 
L 375.04 307.584 
L 378.647273 307.584 
L 382.254545 307.584 
L 385.861818 307.584 
L 389.469091 307.584 
L 393.076364 307.584 
L 396.683636 307.584 
L 400.290909 307.584 
L 403.898182 307.584 
L 407.505455 307.584 
L 411.112727 307.584 
L 414.72 307.584 
L 414.72 304.896 
L 414.72 302.208 
L 414.72 299.52 
L 414.72 296.832 
L 414.72 294.144 
L 414.72 291.456 
L 414.72 288.768 
L 414.72 286.08 
L 414.72 283.392 
L 414.72 280.704 
L 414.72 278.016 
L 414.72 275.328 
L 414.72 272.64 
L 414.72 269.952 
L 414.72 267.264 
L 414.72 264.576 
L 414.72 261.888 
L 414.72 259.2 
L 414.72 256.512 
L 414.72 253.824 
L 414.72 251.136 
L 414.72 248.448 
L 414.72 245.76 
L 414.72 243.072 
L 414.72 240.384 
L 414.72 237.696 
L 414.72 235.008 
L 414.72 232.32 
L 414.72 229.632 
L 414.72 226.944 
L 414.72 224.256 
L 414.72 221.568 
L 414.72 218.88 
L 414.72 216.192 
L 414.72 213.504 
L 414.72 210.816 
L 414.72 208.128 
L 414.72 205.44 
L 414.72 202.752 
L 414.72 200.064 
L 414.72 197.376 
L 414.72 194.688 
L 414.72 192 
L 414.72 189.312 
L 414.72 186.624 
L 414.72 183.936 
L 414.72 181.248 
L 414.72 178.56 
L 414.72 175.872 
L 414.72 173.184 
L 414.72 170.496 
L 414.72 167.808 
L 414.72 165.12 
L 414.72 162.432 
L 414.72 159.744 
L 414.72 157.056 
L 414.72 154.368 
L 414.72 151.68 
L 414.72 148.992 
L 414.72 146.304 
L 414.72 143.616 
L 414.72 140.928 
L 414.72 138.24 
L 414.72 135.552 
L 414.72 132.864 
L 414.72 130.176 
L 414.72 127.488 
L 414.72 124.8 
L 414.72 122.112 
L 414.72 119.424 
L 414.72 116.736 
L 414.72 114.048 
L 414.72 111.36 
L 414.72 108.672 
L 414.72 105.984 
L 414.72 103.296 
L 414.72 100.608 
L 414.72 97.92 
L 414.72 95.232 
L 414.72 92.544 
L 414.72 89.856 
L 414.72 87.168 
L 414.72 84.48 
L 414.72 81.792 
L 414.72 79.104 
L 414.72 76.416 
L 414.72 73.728 
L 414.72 71.04 
L 414.72 68.352 
L 414.72 65.664 
L 414.72 62.976 
L 414.72 60.288 
L 414.72 57.6 
L 414.72 54.912 
L 414.72 52.224 
L 414.72 49.536 
L 414.72 46.848 
L 414.72 44.16 
L 414.72 41.472 
L 411.112727 41.472 
L 407.505455 41.472 
L 403.898182 41.472 
L 400.290909 41.472 
L 396.683636 41.472 
L 393.076364 41.472 
L 389.469091 41.472 
L 385.861818 41.472 
L 382.254545 41.472 
L 378.647273 41.472 
L 375.04 41.472 
L 371.432727 41.472 
L 367.825455 41.472 
L 364.218182 41.472 
L 360.835562 41.472 
L 360.835562 44.16 
L 360.835562 46.848 
L 360.835562 49.536 
L 360.835562 52.224 
L 360.835562 54.912 
L 360.835562 57.6 
L 360.835562 60.288 
L 360.835562 62.976 
L 360.835562 65.664 
L 360.835562 68.352 
L 360.835562 71.04 
L 360.835562 73.728 
L 360.835562 76.416 
L 360.835562 79.104 
L 360.835562 81.792 
L 360.835562 84.48 
L 360.835562 87.168 
L 360.835562 89.856 
L 360.835562 92.544 
L 360.835562 95.232 
L 360.835562 97.92 
L 360.835562 100.608 
L 360.835562 103.296 
L 360.835562 105.984 
L 360.835562 108.672 
L 360.835562 111.36 
L 360.835562 114.048 
L 360.835562 116.736 
L 360.835562 119.424 
L 360.835562 122.112 
L 360.835562 124.8 
L 360.835562 127.488 
L 360.835562 130.176 
L 360.835562 132.864 
L 360.835562 135.552 
L 360.835562 138.24 
L 360.835562 140.928 
L 360.835562 143.616 
L 360.835562 146.304 
L 360.835562 148.992 
L 360.835562 151.68 
L 360.835562 154.368 
L 360.835562 157.056 
L 360.835562 159.744 
L 360.835562 162.432 
L 360.835562 165.12 
L 360.835562 167.808 
L 360.835562 170.496 
L 360.835562 173.184 
L 360.835562 175.872 
L 360.610909 176.575183 
L 357.003636 176.575183 
L 353.396364 176.575183 
L 349.789091 176.575183 
L 346.181818 176.575183 
L 342.574545 176.575183 
L 341.753358 178.56 
L 341.753358 181.248 
L 341.753358 183.936 
L 341.753358 186.624 
L 341.753358 189.312 
L 341.753358 192 
L 341.753358 194.688 
L 341.753358 197.376 
L 341.753358 200.064 
L 341.753358 202.752 
L 341.753358 205.44 
L 341.753358 208.128 
L 341.753358 210.816 
L 341.753358 213.504 
L 341.753358 216.192 
L 341.753358 218.88 
L 341.753358 221.568 
L 341.753358 224.256 
L 341.753358 226.944 
L 341.753358 229.632 
L 341.753358 232.32 
L 341.753358 235.008 
L 341.753358 237.696 
L 341.753358 240.384 
L 341.753358 243.072 
L 341.753358 245.76 
L 341.753358 248.448 
L 341.753358 251.136 
L 341.753358 253.824 
L 341.753358 256.512 
L 341.753358 259.2 
L 341.753358 261.888 
L 341.753358 264.576 
L 341.753358 267.264 
L 341.753358 269.952 
L 341.753358 272.64 
L 341.753358 275.328 
L 341.753358 278.016 
L 341.753358 280.704 
L 341.753358 283.392 
L 341.753358 286.08 
L 341.753358 288.768 
L 341.753358 291.456 
L 341.753358 294.144 
L 341.753358 296.832 
L 341.753358 299.52 
L 341.753358 302.208 
L 341.753358 304.896 
L 341.753358 307.584 
z
" clip-path="url(#p5efc679feb)" style="fill: #d0e11c; fill-opacity: 0.75"/>
   </g>
   <g id="matplotlib.axis_1">
    <g id="xtick_1">
     <g id="line2d_1">
      <defs>
       <path id="m49afd6c554" d="M 0 0 
L 0 3.5 
" style="stroke: #000000; stroke-width: 0.8"/>
      </defs>
      <g>
       <use xlink:href="#m49afd6c554" x="66.534738" y="307.584" style="stroke: #000000; stroke-width: 0.8"/>
      </g>
     </g>
     <g id="text_1">
      <!-- −1.0 -->
      <g transform="translate(54.393332 322.182437) scale(0.1 -0.1)">
       <defs>
        <path id="DejaVuSans-2212" d="M 678 2272 
L 4684 2272 
L 4684 1741 
L 678 1741 
L 678 2272 
z
" transform="scale(0.015625)"/>
        <path id="DejaVuSans-31" d="M 794 531 
L 1825 531 
L 1825 4091 
L 703 3866 
L 703 4441 
L 1819 4666 
L 2450 4666 
L 2450 531 
L 3481 531 
L 3481 0 
L 794 0 
L 794 531 
z
" transform="scale(0.015625)"/>
        <path id="DejaVuSans-2e" d="M 684 794 
L 1344 794 
L 1344 0 
L 684 0 
L 684 794 
z
" transform="scale(0.015625)"/>
        <path id="DejaVuSans-30" d="M 2034 4250 
Q 1547 4250 1301 3770 
Q 1056 3291 1056 2328 
Q 1056 1369 1301 889 
Q 1547 409 2034 409 
Q 2525 409 2770 889 
Q 3016 1369 3016 2328 
Q 3016 3291 2770 3770 
Q 2525 4250 2034 4250 
z
M 2034 4750 
Q 2819 4750 3233 4129 
Q 3647 3509 3647 2328 
Q 3647 1150 3233 529 
Q 2819 -91 2034 -91 
Q 1250 -91 836 529 
Q 422 1150 422 2328 
Q 422 3509 836 4129 
Q 1250 4750 2034 4750 
z
" transform="scale(0.015625)"/>
       </defs>
       <use xlink:href="#DejaVuSans-2212"/>
       <use xlink:href="#DejaVuSans-31" x="83.789062"/>
       <use xlink:href="#DejaVuSans-2e" x="147.412109"/>
       <use xlink:href="#DejaVuSans-30" x="179.199219"/>
      </g>
     </g>
    </g>
    <g id="xtick_2">
     <g id="line2d_2">
      <g>
       <use xlink:href="#m49afd6c554" x="117.437278" y="307.584" style="stroke: #000000; stroke-width: 0.8"/>
      </g>
     </g>
     <g id="text_2">
      <!-- −0.5 -->
      <g transform="translate(105.295872 322.182437) scale(0.1 -0.1)">
       <defs>
        <path id="DejaVuSans-35" d="M 691 4666 
L 3169 4666 
L 3169 4134 
L 1269 4134 
L 1269 2991 
Q 1406 3038 1543 3061 
Q 1681 3084 1819 3084 
Q 2600 3084 3056 2656 
Q 3513 2228 3513 1497 
Q 3513 744 3044 326 
Q 2575 -91 1722 -91 
Q 1428 -91 1123 -41 
Q 819 9 494 109 
L 494 744 
Q 775 591 1075 516 
Q 1375 441 1709 441 
Q 2250 441 2565 725 
Q 2881 1009 2881 1497 
Q 2881 1984 2565 2268 
Q 2250 2553 1709 2553 
Q 1456 2553 1204 2497 
Q 953 2441 691 2322 
L 691 4666 
z
" transform="scale(0.015625)"/>
       </defs>
       <use xlink:href="#DejaVuSans-2212"/>
       <use xlink:href="#DejaVuSans-30" x="83.789062"/>
       <use xlink:href="#DejaVuSans-2e" x="147.412109"/>
       <use xlink:href="#DejaVuSans-35" x="179.199219"/>
      </g>
     </g>
    </g>
    <g id="xtick_3">
     <g id="line2d_3">
      <g>
       <use xlink:href="#m49afd6c554" x="168.339818" y="307.584" style="stroke: #000000; stroke-width: 0.8"/>
      </g>
     </g>
     <g id="text_3">
      <!-- 0.0 -->
      <g transform="translate(160.388256 322.182437) scale(0.1 -0.1)">
       <use xlink:href="#DejaVuSans-30"/>
       <use xlink:href="#DejaVuSans-2e" x="63.623047"/>
       <use xlink:href="#DejaVuSans-30" x="95.410156"/>
      </g>
     </g>
    </g>
    <g id="xtick_4">
     <g id="line2d_4">
      <g>
       <use xlink:href="#m49afd6c554" x="219.242358" y="307.584" style="stroke: #000000; stroke-width: 0.8"/>
      </g>
     </g>
     <g id="text_4">
      <!-- 0.5 -->
      <g transform="translate(211.290796 322.182437) scale(0.1 -0.1)">
       <use xlink:href="#DejaVuSans-30"/>
       <use xlink:href="#DejaVuSans-2e" x="63.623047"/>
       <use xlink:href="#DejaVuSans-35" x="95.410156"/>
      </g>
     </g>
    </g>
    <g id="xtick_5">
     <g id="line2d_5">
      <g>
       <use xlink:href="#m49afd6c554" x="270.144898" y="307.584" style="stroke: #000000; stroke-width: 0.8"/>
      </g>
     </g>
     <g id="text_5">
      <!-- 1.0 -->
      <g transform="translate(262.193336 322.182437) scale(0.1 -0.1)">
       <use xlink:href="#DejaVuSans-31"/>
       <use xlink:href="#DejaVuSans-2e" x="63.623047"/>
       <use xlink:href="#DejaVuSans-30" x="95.410156"/>
      </g>
     </g>
    </g>
    <g id="xtick_6">
     <g id="line2d_6">
      <g>
       <use xlink:href="#m49afd6c554" x="321.047439" y="307.584" style="stroke: #000000; stroke-width: 0.8"/>
      </g>
     </g>
     <g id="text_6">
      <!-- 1.5 -->
      <g transform="translate(313.095876 322.182437) scale(0.1 -0.1)">
       <use xlink:href="#DejaVuSans-31"/>
       <use xlink:href="#DejaVuSans-2e" x="63.623047"/>
       <use xlink:href="#DejaVuSans-35" x="95.410156"/>
      </g>
     </g>
    </g>
    <g id="xtick_7">
     <g id="line2d_7">
      <g>
       <use xlink:href="#m49afd6c554" x="371.949979" y="307.584" style="stroke: #000000; stroke-width: 0.8"/>
      </g>
     </g>
     <g id="text_7">
      <!-- 2.0 -->
      <g transform="translate(363.998416 322.182437) scale(0.1 -0.1)">
       <defs>
        <path id="DejaVuSans-32" d="M 1228 531 
L 3431 531 
L 3431 0 
L 469 0 
L 469 531 
Q 828 903 1448 1529 
Q 2069 2156 2228 2338 
Q 2531 2678 2651 2914 
Q 2772 3150 2772 3378 
Q 2772 3750 2511 3984 
Q 2250 4219 1831 4219 
Q 1534 4219 1204 4116 
Q 875 4013 500 3803 
L 500 4441 
Q 881 4594 1212 4672 
Q 1544 4750 1819 4750 
Q 2544 4750 2975 4387 
Q 3406 4025 3406 3419 
Q 3406 3131 3298 2873 
Q 3191 2616 2906 2266 
Q 2828 2175 2409 1742 
Q 1991 1309 1228 531 
z
" transform="scale(0.015625)"/>
       </defs>
       <use xlink:href="#DejaVuSans-32"/>
       <use xlink:href="#DejaVuSans-2e" x="63.623047"/>
       <use xlink:href="#DejaVuSans-30" x="95.410156"/>
      </g>
     </g>
    </g>
    <g id="text_8">
     <!-- Vegetable Consumption -->
     <g transform="translate(176.431875 335.860562) scale(0.1 -0.1)">
      <defs>
       <path id="DejaVuSans-56" d="M 1831 0 
L 50 4666 
L 709 4666 
L 2188 738 
L 3669 4666 
L 4325 4666 
L 2547 0 
L 1831 0 
z
" transform="scale(0.015625)"/>
       <path id="DejaVuSans-65" d="M 3597 1894 
L 3597 1613 
L 953 1613 
Q 991 1019 1311 708 
Q 1631 397 2203 397 
Q 2534 397 2845 478 
Q 3156 559 3463 722 
L 3463 178 
Q 3153 47 2828 -22 
Q 2503 -91 2169 -91 
Q 1331 -91 842 396 
Q 353 884 353 1716 
Q 353 2575 817 3079 
Q 1281 3584 2069 3584 
Q 2775 3584 3186 3129 
Q 3597 2675 3597 1894 
z
M 3022 2063 
Q 3016 2534 2758 2815 
Q 2500 3097 2075 3097 
Q 1594 3097 1305 2825 
Q 1016 2553 972 2059 
L 3022 2063 
z
" transform="scale(0.015625)"/>
       <path id="DejaVuSans-67" d="M 2906 1791 
Q 2906 2416 2648 2759 
Q 2391 3103 1925 3103 
Q 1463 3103 1205 2759 
Q 947 2416 947 1791 
Q 947 1169 1205 825 
Q 1463 481 1925 481 
Q 2391 481 2648 825 
Q 2906 1169 2906 1791 
z
M 3481 434 
Q 3481 -459 3084 -895 
Q 2688 -1331 1869 -1331 
Q 1566 -1331 1297 -1286 
Q 1028 -1241 775 -1147 
L 775 -588 
Q 1028 -725 1275 -790 
Q 1522 -856 1778 -856 
Q 2344 -856 2625 -561 
Q 2906 -266 2906 331 
L 2906 616 
Q 2728 306 2450 153 
Q 2172 0 1784 0 
Q 1141 0 747 490 
Q 353 981 353 1791 
Q 353 2603 747 3093 
Q 1141 3584 1784 3584 
Q 2172 3584 2450 3431 
Q 2728 3278 2906 2969 
L 2906 3500 
L 3481 3500 
L 3481 434 
z
" transform="scale(0.015625)"/>
       <path id="DejaVuSans-74" d="M 1172 4494 
L 1172 3500 
L 2356 3500 
L 2356 3053 
L 1172 3053 
L 1172 1153 
Q 1172 725 1289 603 
Q 1406 481 1766 481 
L 2356 481 
L 2356 0 
L 1766 0 
Q 1100 0 847 248 
Q 594 497 594 1153 
L 594 3053 
L 172 3053 
L 172 3500 
L 594 3500 
L 594 4494 
L 1172 4494 
z
" transform="scale(0.015625)"/>
       <path id="DejaVuSans-61" d="M 2194 1759 
Q 1497 1759 1228 1600 
Q 959 1441 959 1056 
Q 959 750 1161 570 
Q 1363 391 1709 391 
Q 2188 391 2477 730 
Q 2766 1069 2766 1631 
L 2766 1759 
L 2194 1759 
z
M 3341 1997 
L 3341 0 
L 2766 0 
L 2766 531 
Q 2569 213 2275 61 
Q 1981 -91 1556 -91 
Q 1019 -91 701 211 
Q 384 513 384 1019 
Q 384 1609 779 1909 
Q 1175 2209 1959 2209 
L 2766 2209 
L 2766 2266 
Q 2766 2663 2505 2880 
Q 2244 3097 1772 3097 
Q 1472 3097 1187 3025 
Q 903 2953 641 2809 
L 641 3341 
Q 956 3463 1253 3523 
Q 1550 3584 1831 3584 
Q 2591 3584 2966 3190 
Q 3341 2797 3341 1997 
z
" transform="scale(0.015625)"/>
       <path id="DejaVuSans-62" d="M 3116 1747 
Q 3116 2381 2855 2742 
Q 2594 3103 2138 3103 
Q 1681 3103 1420 2742 
Q 1159 2381 1159 1747 
Q 1159 1113 1420 752 
Q 1681 391 2138 391 
Q 2594 391 2855 752 
Q 3116 1113 3116 1747 
z
M 1159 2969 
Q 1341 3281 1617 3432 
Q 1894 3584 2278 3584 
Q 2916 3584 3314 3078 
Q 3713 2572 3713 1747 
Q 3713 922 3314 415 
Q 2916 -91 2278 -91 
Q 1894 -91 1617 61 
Q 1341 213 1159 525 
L 1159 0 
L 581 0 
L 581 4863 
L 1159 4863 
L 1159 2969 
z
" transform="scale(0.015625)"/>
       <path id="DejaVuSans-6c" d="M 603 4863 
L 1178 4863 
L 1178 0 
L 603 0 
L 603 4863 
z
" transform="scale(0.015625)"/>
       <path id="DejaVuSans-20" transform="scale(0.015625)"/>
       <path id="DejaVuSans-43" d="M 4122 4306 
L 4122 3641 
Q 3803 3938 3442 4084 
Q 3081 4231 2675 4231 
Q 1875 4231 1450 3742 
Q 1025 3253 1025 2328 
Q 1025 1406 1450 917 
Q 1875 428 2675 428 
Q 3081 428 3442 575 
Q 3803 722 4122 1019 
L 4122 359 
Q 3791 134 3420 21 
Q 3050 -91 2638 -91 
Q 1578 -91 968 557 
Q 359 1206 359 2328 
Q 359 3453 968 4101 
Q 1578 4750 2638 4750 
Q 3056 4750 3426 4639 
Q 3797 4528 4122 4306 
z
" transform="scale(0.015625)"/>
       <path id="DejaVuSans-6f" d="M 1959 3097 
Q 1497 3097 1228 2736 
Q 959 2375 959 1747 
Q 959 1119 1226 758 
Q 1494 397 1959 397 
Q 2419 397 2687 759 
Q 2956 1122 2956 1747 
Q 2956 2369 2687 2733 
Q 2419 3097 1959 3097 
z
M 1959 3584 
Q 2709 3584 3137 3096 
Q 3566 2609 3566 1747 
Q 3566 888 3137 398 
Q 2709 -91 1959 -91 
Q 1206 -91 779 398 
Q 353 888 353 1747 
Q 353 2609 779 3096 
Q 1206 3584 1959 3584 
z
" transform="scale(0.015625)"/>
       <path id="DejaVuSans-6e" d="M 3513 2113 
L 3513 0 
L 2938 0 
L 2938 2094 
Q 2938 2591 2744 2837 
Q 2550 3084 2163 3084 
Q 1697 3084 1428 2787 
Q 1159 2491 1159 1978 
L 1159 0 
L 581 0 
L 581 3500 
L 1159 3500 
L 1159 2956 
Q 1366 3272 1645 3428 
Q 1925 3584 2291 3584 
Q 2894 3584 3203 3211 
Q 3513 2838 3513 2113 
z
" transform="scale(0.015625)"/>
       <path id="DejaVuSans-73" d="M 2834 3397 
L 2834 2853 
Q 2591 2978 2328 3040 
Q 2066 3103 1784 3103 
Q 1356 3103 1142 2972 
Q 928 2841 928 2578 
Q 928 2378 1081 2264 
Q 1234 2150 1697 2047 
L 1894 2003 
Q 2506 1872 2764 1633 
Q 3022 1394 3022 966 
Q 3022 478 2636 193 
Q 2250 -91 1575 -91 
Q 1294 -91 989 -36 
Q 684 19 347 128 
L 347 722 
Q 666 556 975 473 
Q 1284 391 1588 391 
Q 1994 391 2212 530 
Q 2431 669 2431 922 
Q 2431 1156 2273 1281 
Q 2116 1406 1581 1522 
L 1381 1569 
Q 847 1681 609 1914 
Q 372 2147 372 2553 
Q 372 3047 722 3315 
Q 1072 3584 1716 3584 
Q 2034 3584 2315 3537 
Q 2597 3491 2834 3397 
z
" transform="scale(0.015625)"/>
       <path id="DejaVuSans-75" d="M 544 1381 
L 544 3500 
L 1119 3500 
L 1119 1403 
Q 1119 906 1312 657 
Q 1506 409 1894 409 
Q 2359 409 2629 706 
Q 2900 1003 2900 1516 
L 2900 3500 
L 3475 3500 
L 3475 0 
L 2900 0 
L 2900 538 
Q 2691 219 2414 64 
Q 2138 -91 1772 -91 
Q 1169 -91 856 284 
Q 544 659 544 1381 
z
M 1991 3584 
L 1991 3584 
z
" transform="scale(0.015625)"/>
       <path id="DejaVuSans-6d" d="M 3328 2828 
Q 3544 3216 3844 3400 
Q 4144 3584 4550 3584 
Q 5097 3584 5394 3201 
Q 5691 2819 5691 2113 
L 5691 0 
L 5113 0 
L 5113 2094 
Q 5113 2597 4934 2840 
Q 4756 3084 4391 3084 
Q 3944 3084 3684 2787 
Q 3425 2491 3425 1978 
L 3425 0 
L 2847 0 
L 2847 2094 
Q 2847 2600 2669 2842 
Q 2491 3084 2119 3084 
Q 1678 3084 1418 2786 
Q 1159 2488 1159 1978 
L 1159 0 
L 581 0 
L 581 3500 
L 1159 3500 
L 1159 2956 
Q 1356 3278 1631 3431 
Q 1906 3584 2284 3584 
Q 2666 3584 2933 3390 
Q 3200 3197 3328 2828 
z
" transform="scale(0.015625)"/>
       <path id="DejaVuSans-70" d="M 1159 525 
L 1159 -1331 
L 581 -1331 
L 581 3500 
L 1159 3500 
L 1159 2969 
Q 1341 3281 1617 3432 
Q 1894 3584 2278 3584 
Q 2916 3584 3314 3078 
Q 3713 2572 3713 1747 
Q 3713 922 3314 415 
Q 2916 -91 2278 -91 
Q 1894 -91 1617 61 
Q 1341 213 1159 525 
z
M 3116 1747 
Q 3116 2381 2855 2742 
Q 2594 3103 2138 3103 
Q 1681 3103 1420 2742 
Q 1159 2381 1159 1747 
Q 1159 1113 1420 752 
Q 1681 391 2138 391 
Q 2594 391 2855 752 
Q 3116 1113 3116 1747 
z
" transform="scale(0.015625)"/>
       <path id="DejaVuSans-69" d="M 603 3500 
L 1178 3500 
L 1178 0 
L 603 0 
L 603 3500 
z
M 603 4863 
L 1178 4863 
L 1178 4134 
L 603 4134 
L 603 4863 
z
" transform="scale(0.015625)"/>
      </defs>
      <use xlink:href="#DejaVuSans-56"/>
      <use xlink:href="#DejaVuSans-65" x="60.658203"/>
      <use xlink:href="#DejaVuSans-67" x="122.181641"/>
      <use xlink:href="#DejaVuSans-65" x="185.658203"/>
      <use xlink:href="#DejaVuSans-74" x="247.181641"/>
      <use xlink:href="#DejaVuSans-61" x="286.390625"/>
      <use xlink:href="#DejaVuSans-62" x="347.669922"/>
      <use xlink:href="#DejaVuSans-6c" x="411.146484"/>
      <use xlink:href="#DejaVuSans-65" x="438.929688"/>
      <use xlink:href="#DejaVuSans-20" x="500.453125"/>
      <use xlink:href="#DejaVuSans-43" x="532.240234"/>
      <use xlink:href="#DejaVuSans-6f" x="602.064453"/>
      <use xlink:href="#DejaVuSans-6e" x="663.246094"/>
      <use xlink:href="#DejaVuSans-73" x="726.625"/>
      <use xlink:href="#DejaVuSans-75" x="778.724609"/>
      <use xlink:href="#DejaVuSans-6d" x="842.103516"/>
      <use xlink:href="#DejaVuSans-70" x="939.515625"/>
      <use xlink:href="#DejaVuSans-74" x="1002.992188"/>
      <use xlink:href="#DejaVuSans-69" x="1042.201172"/>
      <use xlink:href="#DejaVuSans-6f" x="1069.984375"/>
      <use xlink:href="#DejaVuSans-6e" x="1131.166016"/>
     </g>
    </g>
   </g>
   <g id="matplotlib.axis_2">
    <g id="ytick_1">
     <g id="line2d_8">
      <defs>
       <path id="mcfc016014a" d="M 0 0 
L -3.5 0 
" style="stroke: #000000; stroke-width: 0.8"/>
      </defs>
      <g>
       <use xlink:href="#mcfc016014a" x="57.6" y="300.536805" style="stroke: #000000; stroke-width: 0.8"/>
      </g>
     </g>
     <g id="text_9">
      <!-- −1.0 -->
      <g transform="translate(26.317187 304.336024) scale(0.1 -0.1)">
       <use xlink:href="#DejaVuSans-2212"/>
       <use xlink:href="#DejaVuSans-31" x="83.789062"/>
       <use xlink:href="#DejaVuSans-2e" x="147.412109"/>
       <use xlink:href="#DejaVuSans-30" x="179.199219"/>
      </g>
     </g>
    </g>
    <g id="ytick_2">
     <g id="line2d_9">
      <g>
       <use xlink:href="#mcfc016014a" x="57.6" y="257.765883" style="stroke: #000000; stroke-width: 0.8"/>
      </g>
     </g>
     <g id="text_10">
      <!-- −0.5 -->
      <g transform="translate(26.317187 261.565102) scale(0.1 -0.1)">
       <use xlink:href="#DejaVuSans-2212"/>
       <use xlink:href="#DejaVuSans-30" x="83.789062"/>
       <use xlink:href="#DejaVuSans-2e" x="147.412109"/>
       <use xlink:href="#DejaVuSans-35" x="179.199219"/>
      </g>
     </g>
    </g>
    <g id="ytick_3">
     <g id="line2d_10">
      <g>
       <use xlink:href="#mcfc016014a" x="57.6" y="214.994961" style="stroke: #000000; stroke-width: 0.8"/>
      </g>
     </g>
     <g id="text_11">
      <!-- 0.0 -->
      <g transform="translate(34.696875 218.79418) scale(0.1 -0.1)">
       <use xlink:href="#DejaVuSans-30"/>
       <use xlink:href="#DejaVuSans-2e" x="63.623047"/>
       <use xlink:href="#DejaVuSans-30" x="95.410156"/>
      </g>
     </g>
    </g>
    <g id="ytick_4">
     <g id="line2d_11">
      <g>
       <use xlink:href="#mcfc016014a" x="57.6" y="172.224039" style="stroke: #000000; stroke-width: 0.8"/>
      </g>
     </g>
     <g id="text_12">
      <!-- 0.5 -->
      <g transform="translate(34.696875 176.023258) scale(0.1 -0.1)">
       <use xlink:href="#DejaVuSans-30"/>
       <use xlink:href="#DejaVuSans-2e" x="63.623047"/>
       <use xlink:href="#DejaVuSans-35" x="95.410156"/>
      </g>
     </g>
    </g>
    <g id="ytick_5">
     <g id="line2d_12">
      <g>
       <use xlink:href="#mcfc016014a" x="57.6" y="129.453117" style="stroke: #000000; stroke-width: 0.8"/>
      </g>
     </g>
     <g id="text_13">
      <!-- 1.0 -->
      <g transform="translate(34.696875 133.252336) scale(0.1 -0.1)">
       <use xlink:href="#DejaVuSans-31"/>
       <use xlink:href="#DejaVuSans-2e" x="63.623047"/>
       <use xlink:href="#DejaVuSans-30" x="95.410156"/>
      </g>
     </g>
    </g>
    <g id="ytick_6">
     <g id="line2d_13">
      <g>
       <use xlink:href="#mcfc016014a" x="57.6" y="86.682195" style="stroke: #000000; stroke-width: 0.8"/>
      </g>
     </g>
     <g id="text_14">
      <!-- 1.5 -->
      <g transform="translate(34.696875 90.481414) scale(0.1 -0.1)">
       <use xlink:href="#DejaVuSans-31"/>
       <use xlink:href="#DejaVuSans-2e" x="63.623047"/>
       <use xlink:href="#DejaVuSans-35" x="95.410156"/>
      </g>
     </g>
    </g>
    <g id="ytick_7">
     <g id="line2d_14">
      <g>
       <use xlink:href="#mcfc016014a" x="57.6" y="43.911273" style="stroke: #000000; stroke-width: 0.8"/>
      </g>
     </g>
     <g id="text_15">
      <!-- 2.0 -->
      <g transform="translate(34.696875 47.710492) scale(0.1 -0.1)">
       <use xlink:href="#DejaVuSans-32"/>
       <use xlink:href="#DejaVuSans-2e" x="63.623047"/>
       <use xlink:href="#DejaVuSans-30" x="95.410156"/>
      </g>
     </g>
    </g>
    <g id="text_16">
     <!-- Fish &amp; Seafood Consumption -->
     <g transform="translate(20.2375 246.353) rotate(-90) scale(0.1 -0.1)">
      <defs>
       <path id="DejaVuSans-46" d="M 628 4666 
L 3309 4666 
L 3309 4134 
L 1259 4134 
L 1259 2759 
L 3109 2759 
L 3109 2228 
L 1259 2228 
L 1259 0 
L 628 0 
L 628 4666 
z
" transform="scale(0.015625)"/>
       <path id="DejaVuSans-68" d="M 3513 2113 
L 3513 0 
L 2938 0 
L 2938 2094 
Q 2938 2591 2744 2837 
Q 2550 3084 2163 3084 
Q 1697 3084 1428 2787 
Q 1159 2491 1159 1978 
L 1159 0 
L 581 0 
L 581 4863 
L 1159 4863 
L 1159 2956 
Q 1366 3272 1645 3428 
Q 1925 3584 2291 3584 
Q 2894 3584 3203 3211 
Q 3513 2838 3513 2113 
z
" transform="scale(0.015625)"/>
       <path id="DejaVuSans-26" d="M 1556 2509 
Q 1272 2256 1139 2004 
Q 1006 1753 1006 1478 
Q 1006 1022 1337 719 
Q 1669 416 2169 416 
Q 2466 416 2725 514 
Q 2984 613 3213 813 
L 1556 2509 
z
M 1997 2859 
L 3584 1234 
Q 3769 1513 3872 1830 
Q 3975 2147 3994 2503 
L 4575 2503 
Q 4538 2091 4375 1687 
Q 4213 1284 3922 891 
L 4794 0 
L 4006 0 
L 3559 459 
Q 3234 181 2878 45 
Q 2522 -91 2113 -91 
Q 1359 -91 881 339 
Q 403 769 403 1441 
Q 403 1841 612 2192 
Q 822 2544 1241 2853 
Q 1091 3050 1012 3245 
Q 934 3441 934 3628 
Q 934 4134 1281 4442 
Q 1628 4750 2203 4750 
Q 2463 4750 2720 4694 
Q 2978 4638 3244 4525 
L 3244 3956 
Q 2972 4103 2725 4179 
Q 2478 4256 2266 4256 
Q 1938 4256 1733 4082 
Q 1528 3909 1528 3634 
Q 1528 3475 1620 3314 
Q 1713 3153 1997 2859 
z
" transform="scale(0.015625)"/>
       <path id="DejaVuSans-53" d="M 3425 4513 
L 3425 3897 
Q 3066 4069 2747 4153 
Q 2428 4238 2131 4238 
Q 1616 4238 1336 4038 
Q 1056 3838 1056 3469 
Q 1056 3159 1242 3001 
Q 1428 2844 1947 2747 
L 2328 2669 
Q 3034 2534 3370 2195 
Q 3706 1856 3706 1288 
Q 3706 609 3251 259 
Q 2797 -91 1919 -91 
Q 1588 -91 1214 -16 
Q 841 59 441 206 
L 441 856 
Q 825 641 1194 531 
Q 1563 422 1919 422 
Q 2459 422 2753 634 
Q 3047 847 3047 1241 
Q 3047 1584 2836 1778 
Q 2625 1972 2144 2069 
L 1759 2144 
Q 1053 2284 737 2584 
Q 422 2884 422 3419 
Q 422 4038 858 4394 
Q 1294 4750 2059 4750 
Q 2388 4750 2728 4690 
Q 3069 4631 3425 4513 
z
" transform="scale(0.015625)"/>
       <path id="DejaVuSans-66" d="M 2375 4863 
L 2375 4384 
L 1825 4384 
Q 1516 4384 1395 4259 
Q 1275 4134 1275 3809 
L 1275 3500 
L 2222 3500 
L 2222 3053 
L 1275 3053 
L 1275 0 
L 697 0 
L 697 3053 
L 147 3053 
L 147 3500 
L 697 3500 
L 697 3744 
Q 697 4328 969 4595 
Q 1241 4863 1831 4863 
L 2375 4863 
z
" transform="scale(0.015625)"/>
       <path id="DejaVuSans-64" d="M 2906 2969 
L 2906 4863 
L 3481 4863 
L 3481 0 
L 2906 0 
L 2906 525 
Q 2725 213 2448 61 
Q 2172 -91 1784 -91 
Q 1150 -91 751 415 
Q 353 922 353 1747 
Q 353 2572 751 3078 
Q 1150 3584 1784 3584 
Q 2172 3584 2448 3432 
Q 2725 3281 2906 2969 
z
M 947 1747 
Q 947 1113 1208 752 
Q 1469 391 1925 391 
Q 2381 391 2643 752 
Q 2906 1113 2906 1747 
Q 2906 2381 2643 2742 
Q 2381 3103 1925 3103 
Q 1469 3103 1208 2742 
Q 947 2381 947 1747 
z
" transform="scale(0.015625)"/>
      </defs>
      <use xlink:href="#DejaVuSans-46"/>
      <use xlink:href="#DejaVuSans-69" x="50.269531"/>
      <use xlink:href="#DejaVuSans-73" x="78.052734"/>
      <use xlink:href="#DejaVuSans-68" x="130.152344"/>
      <use xlink:href="#DejaVuSans-20" x="193.53125"/>
      <use xlink:href="#DejaVuSans-26" x="225.318359"/>
      <use xlink:href="#DejaVuSans-20" x="303.296875"/>
      <use xlink:href="#DejaVuSans-53" x="335.083984"/>
      <use xlink:href="#DejaVuSans-65" x="398.560547"/>
      <use xlink:href="#DejaVuSans-61" x="460.083984"/>
      <use xlink:href="#DejaVuSans-66" x="521.363281"/>
      <use xlink:href="#DejaVuSans-6f" x="556.568359"/>
      <use xlink:href="#DejaVuSans-6f" x="617.75"/>
      <use xlink:href="#DejaVuSans-64" x="678.931641"/>
      <use xlink:href="#DejaVuSans-20" x="742.408203"/>
      <use xlink:href="#DejaVuSans-43" x="774.195312"/>
      <use xlink:href="#DejaVuSans-6f" x="844.019531"/>
      <use xlink:href="#DejaVuSans-6e" x="905.201172"/>
      <use xlink:href="#DejaVuSans-73" x="968.580078"/>
      <use xlink:href="#DejaVuSans-75" x="1020.679688"/>
      <use xlink:href="#DejaVuSans-6d" x="1084.058594"/>
      <use xlink:href="#DejaVuSans-70" x="1181.470703"/>
      <use xlink:href="#DejaVuSans-74" x="1244.947266"/>
      <use xlink:href="#DejaVuSans-69" x="1284.15625"/>
      <use xlink:href="#DejaVuSans-6f" x="1311.939453"/>
      <use xlink:href="#DejaVuSans-6e" x="1373.121094"/>
     </g>
    </g>
   </g>
   <g id="PathCollection_8"/>
   <g id="PathCollection_9">
    <path d="M 168.772525 41.472 
L 168.772525 44.16 
L 168.772525 46.848 
L 168.772525 49.536 
L 168.772525 52.224 
L 168.772525 54.912 
L 168.772525 57.6 
L 168.772525 60.288 
L 168.772525 62.976 
L 168.772525 65.664 
L 168.772525 68.352 
L 168.772525 70.653 
" clip-path="url(#p5efc679feb)" style="fill: none; stroke-dasharray: 1.85,0.8; stroke-dashoffset: 0; stroke: #000000; stroke-width: 0.5"/>
    <path d="M 168.772525 103.683 
L 168.772525 105.984 
L 168.772525 108.672 
L 168.772525 111.36 
L 168.772525 114.048 
L 168.772525 116.736 
L 168.772525 119.424 
L 168.772525 122.112 
L 168.772525 124.8 
L 168.772525 127.488 
L 168.772525 130.176 
L 168.772525 132.864 
L 168.772525 135.552 
L 168.772525 138.24 
L 168.772525 140.928 
L 168.772525 143.616 
L 168.772525 146.304 
L 168.772525 148.992 
L 168.772525 151.68 
L 168.772525 154.368 
L 168.772525 157.056 
L 168.772525 159.744 
L 168.772525 162.432 
L 168.772525 165.12 
L 168.772525 167.808 
L 168.772525 170.496 
L 168.772525 173.184 
L 168.772525 175.872 
L 168.013327 178.56 
L 168.013327 181.248 
L 168.013327 183.936 
L 168.013327 186.624 
L 168.013327 189.312 
L 168.013327 192 
L 168.013327 194.688 
L 168.013327 197.376 
L 168.013327 200.064 
L 168.013327 202.752 
L 168.013327 205.44 
L 168.013327 208.128 
L 168.013327 210.816 
L 168.013327 213.504 
L 168.013327 216.192 
L 168.013327 218.88 
L 168.013327 221.568 
L 168.013327 224.256 
L 168.013327 226.944 
L 168.013327 229.632 
L 168.013327 232.32 
L 168.013327 235.008 
L 168.013327 237.696 
L 168.013327 240.384 
L 168.013327 243.072 
L 168.013327 245.76 
L 168.013327 248.448 
L 168.013327 251.136 
L 168.013327 253.824 
L 168.013327 256.512 
L 168.013327 259.2 
L 168.013327 261.888 
L 168.013327 264.576 
L 168.013327 267.264 
L 168.013327 269.952 
L 168.013327 272.64 
L 168.013327 275.328 
L 168.013327 278.016 
L 168.013327 280.704 
L 168.013327 283.392 
L 168.013327 286.08 
L 168.013327 288.768 
L 168.013327 291.456 
L 168.013327 294.144 
L 168.013327 296.832 
L 168.013327 299.52 
L 168.013327 302.208 
L 168.013327 304.896 
L 168.013327 307.584 
" clip-path="url(#p5efc679feb)" style="fill: none; stroke-dasharray: 1.85,0.8; stroke-dashoffset: 0; stroke: #000000; stroke-width: 0.5"/>
   </g>
   <g id="PathCollection_10">
    <path d="M 268.018836 41.472 
L 268.018836 44.16 
L 268.018836 46.848 
L 268.018836 49.536 
L 268.018836 52.224 
L 268.018836 54.912 
L 268.018836 57.6 
L 268.018836 60.288 
L 268.018836 62.976 
L 268.018836 65.664 
L 268.018836 68.352 
L 268.018836 70.653 
" clip-path="url(#p5efc679feb)" style="fill: none; stroke-dasharray: 1.85,0.8; stroke-dashoffset: 0; stroke: #000000; stroke-width: 0.5"/>
    <path d="M 268.018836 103.683 
L 268.018836 105.984 
L 268.018836 108.672 
L 268.018836 111.36 
L 268.018836 114.048 
L 268.018836 116.736 
L 268.018836 119.424 
L 268.018836 122.112 
L 268.018836 124.8 
L 268.018836 127.488 
L 268.018836 130.176 
L 268.018836 132.864 
L 268.018836 135.552 
L 268.018836 138.24 
L 268.018836 140.928 
L 268.018836 143.616 
L 268.018836 146.304 
L 268.018836 148.992 
L 268.018836 151.68 
L 268.018836 154.368 
L 268.018836 157.056 
L 268.018836 159.744 
L 268.018836 162.432 
L 268.018836 165.12 
L 268.018836 167.808 
L 268.018836 170.496 
L 268.018836 173.184 
L 268.018836 175.872 
L 267.507973 178.56 
L 267.507973 181.248 
L 267.507973 183.936 
L 267.507973 186.624 
L 267.507973 189.312 
L 267.507973 192 
L 267.507973 194.688 
L 267.507973 197.376 
L 267.507973 200.064 
L 267.507973 202.752 
L 267.507973 205.44 
L 267.507973 208.128 
L 267.507973 210.816 
L 267.507973 213.504 
L 267.507973 216.192 
L 267.507973 218.88 
L 267.507973 221.568 
L 267.507973 224.256 
L 267.507973 226.944 
L 267.507973 229.632 
L 267.507973 232.32 
L 267.507973 235.008 
L 267.507973 237.696 
L 267.507973 240.384 
L 267.507973 243.072 
L 267.507973 245.76 
L 267.507973 248.448 
L 267.507973 251.136 
L 267.507973 253.824 
L 267.507973 256.512 
L 267.507973 259.2 
L 267.507973 261.888 
L 267.507973 264.576 
L 267.507973 267.264 
L 267.507973 269.952 
L 267.507973 272.64 
L 267.507973 275.328 
L 267.507973 278.016 
L 267.507973 280.704 
L 267.507973 283.392 
L 267.507973 286.08 
L 267.507973 288.768 
L 267.507973 291.456 
L 267.507973 294.144 
L 267.507973 296.832 
L 267.507973 299.52 
L 267.507973 302.208 
L 267.507973 304.896 
L 267.507973 307.584 
" clip-path="url(#p5efc679feb)" style="fill: none; stroke-dasharray: 1.85,0.8; stroke-dashoffset: 0; stroke: #000000; stroke-width: 0.5"/>
   </g>
   <g id="PathCollection_11">
    <path d="M 271.46348 41.472 
L 271.46348 44.16 
L 271.46348 46.848 
L 271.46348 49.536 
L 271.46348 52.224 
L 271.46348 54.912 
L 271.46348 57.6 
L 271.46348 60.288 
L 271.46348 62.976 
L 271.46348 65.664 
L 271.46348 68.352 
L 271.46348 71.04 
L 271.46348 73.728 
L 271.46348 76.416 
L 271.46348 79.104 
L 271.46348 81.792 
L 271.46348 84.48 
L 271.46348 87.168 
L 271.46348 89.856 
L 271.46348 92.544 
L 271.46348 95.232 
L 271.46348 97.92 
L 271.46348 100.608 
L 271.46348 103.296 
L 271.46348 105.984 
L 271.46348 108.672 
L 271.46348 111.36 
L 271.46348 114.048 
L 271.46348 116.736 
L 271.46348 119.424 
L 271.46348 122.112 
L 271.46348 124.8 
L 271.46348 127.488 
L 271.46348 130.176 
L 271.46348 132.864 
L 271.46348 135.552 
L 271.46348 138.24 
L 271.46348 140.928 
L 271.46348 143.616 
L 271.46348 146.304 
L 271.46348 148.992 
L 271.46348 151.68 
L 271.46348 154.368 
L 271.46348 157.056 
L 271.46348 159.744 
L 271.46348 162.432 
L 271.46348 165.12 
L 271.46348 167.808 
L 271.46348 170.496 
L 271.46348 173.184 
L 271.46348 175.872 
L 271.053949 178.56 
L 271.053949 181.248 
L 271.053949 183.936 
L 271.053949 186.624 
L 271.053949 189.312 
L 271.053949 192 
L 271.053949 194.688 
L 271.053949 197.376 
L 271.053949 200.064 
L 271.053949 202.752 
L 271.053949 205.44 
L 271.053949 208.128 
L 271.053949 210.816 
L 271.053949 213.504 
L 271.053949 216.192 
L 271.053949 218.88 
L 271.053949 221.568 
L 271.053949 224.256 
L 271.053949 226.944 
L 271.053949 229.632 
L 271.053949 232.32 
L 271.053949 235.008 
L 271.053949 237.696 
L 271.053949 240.384 
L 271.053949 243.072 
L 271.053949 245.76 
L 271.053949 248.448 
L 271.053949 251.136 
L 271.053949 253.824 
L 271.053949 256.512 
L 271.053949 258.813 
" clip-path="url(#p5efc679feb)" style="fill: none; stroke-dasharray: 1.85,0.8; stroke-dashoffset: 0; stroke: #000000; stroke-width: 0.5"/>
    <path d="M 271.053949 291.843 
L 271.053949 294.144 
L 271.053949 296.832 
L 271.053949 299.52 
L 271.053949 302.208 
L 271.053949 304.896 
L 271.053949 307.584 
" clip-path="url(#p5efc679feb)" style="fill: none; stroke-dasharray: 1.85,0.8; stroke-dashoffset: 0; stroke: #000000; stroke-width: 0.5"/>
   </g>
   <g id="PathCollection_12">
    <path d="M 279.11786 41.472 
L 279.11786 44.16 
L 279.11786 46.848 
L 279.11786 49.536 
L 279.11786 52.224 
L 279.11786 54.912 
L 279.11786 57.6 
L 279.11786 60.288 
L 279.11786 62.976 
L 279.11786 65.664 
L 279.11786 68.352 
L 279.11786 71.04 
L 279.11786 73.728 
L 279.11786 76.416 
L 279.11786 79.104 
L 279.11786 81.792 
L 279.11786 84.48 
L 279.11786 87.168 
L 279.11786 89.856 
L 279.11786 92.544 
L 279.11786 95.232 
L 279.11786 97.92 
L 279.11786 100.608 
L 279.11786 103.296 
L 279.11786 105.984 
L 279.11786 108.672 
L 279.11786 111.36 
L 279.11786 114.048 
L 279.11786 116.736 
L 279.11786 119.424 
L 279.11786 122.112 
L 279.11786 124.8 
L 279.11786 127.488 
L 279.11786 130.176 
L 279.11786 132.864 
L 279.11786 135.552 
L 279.11786 138.24 
L 279.11786 140.928 
L 279.11786 143.616 
L 279.11786 146.304 
L 279.11786 148.992 
L 279.11786 151.68 
L 279.11786 154.368 
L 279.11786 157.056 
L 279.11786 159.744 
L 279.11786 162.432 
L 279.11786 165.12 
L 279.11786 165.939183 
" clip-path="url(#p5efc679feb)" style="fill: none; stroke-dasharray: 1.85,0.8; stroke-dashoffset: 0; stroke: #000000; stroke-width: 0.5"/>
    <path d="M 274.02051 194.969741 
L 274.02051 197.376 
L 274.02051 200.064 
L 274.02051 202.752 
L 274.02051 205.44 
L 274.02051 208.128 
L 274.02051 210.816 
L 274.02051 213.504 
L 274.02051 216.192 
L 274.02051 218.88 
L 274.02051 221.568 
L 274.02051 224.256 
L 274.02051 226.944 
L 274.02051 229.632 
L 274.02051 232.32 
L 274.02051 235.008 
L 274.02051 237.696 
L 274.02051 240.384 
L 274.02051 243.072 
L 274.02051 245.76 
L 274.02051 248.448 
L 274.02051 251.136 
L 274.02051 253.824 
L 274.02051 256.512 
L 274.02051 259.2 
L 274.02051 261.888 
L 274.02051 264.576 
L 274.02051 267.264 
L 274.02051 269.952 
L 274.02051 272.64 
L 274.02051 275.328 
L 274.02051 278.016 
L 274.02051 280.704 
L 274.02051 283.392 
L 274.02051 286.08 
L 274.02051 288.768 
L 274.02051 291.456 
L 274.02051 294.144 
L 274.02051 296.832 
L 274.02051 299.52 
L 274.02051 302.208 
L 274.02051 304.896 
L 274.02051 307.584 
" clip-path="url(#p5efc679feb)" style="fill: none; stroke-dasharray: 1.85,0.8; stroke-dashoffset: 0; stroke: #000000; stroke-width: 0.5"/>
   </g>
   <g id="PathCollection_13">
    <path d="M 302.721484 41.472 
L 302.721484 44.16 
L 302.721484 46.848 
L 302.721484 49.536 
L 302.721484 52.224 
L 302.721484 54.912 
L 302.721484 57.6 
L 302.721484 60.288 
L 302.721484 62.976 
L 302.721484 65.664 
L 302.721484 67.032 
" clip-path="url(#p5efc679feb)" style="fill: none; stroke: #000000; stroke-width: 0.5"/>
    <path d="M 302.721484 96.552 
L 302.721484 97.92 
L 302.721484 100.608 
L 302.721484 103.296 
L 302.721484 105.984 
L 302.721484 108.672 
L 302.721484 111.36 
L 302.721484 114.048 
L 302.721484 116.736 
L 302.721484 119.424 
L 302.721484 122.112 
L 302.721484 124.8 
L 302.721484 127.488 
L 302.721484 130.176 
L 302.721484 132.864 
L 302.721484 135.552 
L 302.721484 138.24 
L 302.721484 140.928 
L 302.721484 143.616 
L 302.721484 146.304 
L 302.721484 148.992 
L 302.721484 151.68 
L 302.721484 154.368 
L 302.721484 157.056 
L 302.721484 159.744 
L 302.721484 162.432 
L 302.721484 165.12 
L 302.721484 167.808 
L 302.721484 170.496 
L 302.721484 173.184 
L 302.721484 175.872 
L 302.066475 178.56 
L 302.066475 181.248 
L 302.066475 183.936 
L 302.066475 186.624 
L 302.066475 189.312 
L 302.066475 192 
L 302.066475 194.688 
L 302.066475 197.376 
L 302.066475 200.064 
L 302.066475 202.752 
L 302.066475 205.44 
L 302.066475 208.128 
L 302.066475 210.816 
L 302.066475 213.504 
L 302.066475 216.192 
L 302.066475 218.88 
L 302.066475 221.568 
L 302.066475 224.256 
L 302.066475 226.944 
L 302.066475 229.632 
L 302.066475 232.32 
L 302.066475 235.008 
L 302.066475 237.696 
L 302.066475 240.384 
L 302.066475 243.072 
L 302.066475 245.76 
L 302.066475 248.448 
L 302.066475 251.136 
L 302.066475 253.824 
L 302.066475 256.512 
L 302.066475 259.2 
L 302.066475 261.888 
L 302.066475 264.576 
L 302.066475 267.264 
L 302.066475 269.952 
L 302.066475 272.64 
L 302.066475 275.328 
L 302.066475 278.016 
L 302.066475 280.704 
L 302.066475 283.392 
L 302.066475 286.08 
L 302.066475 288.768 
L 302.066475 291.456 
L 302.066475 294.144 
L 302.066475 296.832 
L 302.066475 299.52 
L 302.066475 302.208 
L 302.066475 304.896 
L 302.066475 307.584 
" clip-path="url(#p5efc679feb)" style="fill: none; stroke: #000000; stroke-width: 0.5"/>
   </g>
   <g id="PathCollection_14">
    <path d="M 360.835562 41.472 
L 360.835562 44.16 
L 360.835562 46.848 
L 360.835562 49.536 
L 360.835562 52.224 
L 360.835562 54.912 
L 360.835562 57.6 
L 360.835562 60.288 
L 360.835562 62.976 
L 360.835562 65.664 
L 360.835562 67.032 
" clip-path="url(#p5efc679feb)" style="fill: none; stroke: #000000; stroke-width: 0.5"/>
    <path d="M 360.835562 96.552 
L 360.835562 97.92 
L 360.835562 100.608 
L 360.835562 103.296 
L 360.835562 105.984 
L 360.835562 108.672 
L 360.835562 111.36 
L 360.835562 114.048 
L 360.835562 116.736 
L 360.835562 119.424 
L 360.835562 122.112 
L 360.835562 124.8 
L 360.835562 127.488 
L 360.835562 130.176 
L 360.835562 132.864 
L 360.835562 135.552 
L 360.835562 138.24 
L 360.835562 140.928 
L 360.835562 143.616 
L 360.835562 146.304 
L 360.835562 148.992 
L 360.835562 151.68 
L 360.835562 154.368 
L 360.835562 157.056 
L 360.835562 159.744 
L 360.835562 162.432 
L 360.835562 165.12 
L 360.835562 167.808 
L 360.835562 170.496 
L 360.835562 173.184 
L 360.835562 175.872 
L 360.610909 176.575183 
L 357.003636 176.575183 
L 353.396364 176.575183 
L 349.789091 176.575183 
L 346.181818 176.575183 
L 342.574545 176.575183 
L 341.753358 178.56 
L 341.753358 181.248 
L 341.753358 183.936 
L 341.753358 186.624 
L 341.753358 189.312 
L 341.753358 192 
L 341.753358 194.688 
L 341.753358 197.376 
L 341.753358 200.064 
L 341.753358 202.752 
L 341.753358 205.44 
L 341.753358 208.128 
L 341.753358 210.816 
L 341.753358 213.504 
L 341.753358 216.192 
L 341.753358 218.88 
L 341.753358 221.568 
L 341.753358 224.256 
L 341.753358 226.944 
L 341.753358 229.632 
L 341.753358 232.32 
L 341.753358 235.008 
L 341.753358 237.696 
L 341.753358 240.384 
L 341.753358 243.072 
L 341.753358 245.76 
L 341.753358 248.448 
L 341.753358 251.136 
L 341.753358 253.824 
L 341.753358 256.512 
L 341.753358 259.2 
L 341.753358 261.888 
L 341.753358 264.576 
L 341.753358 267.264 
L 341.753358 269.952 
L 341.753358 272.64 
L 341.753358 275.328 
L 341.753358 278.016 
L 341.753358 280.704 
L 341.753358 283.392 
L 341.753358 286.08 
L 341.753358 288.768 
L 341.753358 291.456 
L 341.753358 294.144 
L 341.753358 296.832 
L 341.753358 299.52 
L 341.753358 302.208 
L 341.753358 304.896 
L 341.753358 307.584 
" clip-path="url(#p5efc679feb)" style="fill: none; stroke: #000000; stroke-width: 0.5"/>
   </g>
   <g id="PathCollection_15"/>
   <g id="LineCollection_1">
    <path d="M 66.476784 307.584 
L 66.476784 294.2784 
" clip-path="url(#p5efc679feb)" style="fill: none; stroke: #000000; stroke-width: 1.5"/>
    <path d="M 87.212156 307.584 
L 87.212156 294.2784 
" clip-path="url(#p5efc679feb)" style="fill: none; stroke: #000000; stroke-width: 1.5"/>
    <path d="M 104.935634 307.584 
L 104.935634 294.2784 
" clip-path="url(#p5efc679feb)" style="fill: none; stroke: #000000; stroke-width: 1.5"/>
    <path d="M 127.377088 307.584 
L 127.377088 294.2784 
" clip-path="url(#p5efc679feb)" style="fill: none; stroke: #000000; stroke-width: 1.5"/>
    <path d="M 148.281324 307.584 
L 148.281324 294.2784 
" clip-path="url(#p5efc679feb)" style="fill: none; stroke: #000000; stroke-width: 1.5"/>
    <path d="M 166.732429 307.584 
L 166.732429 294.2784 
" clip-path="url(#p5efc679feb)" style="fill: none; stroke: #000000; stroke-width: 1.5"/>
    <path d="M 185.03924 307.584 
L 185.03924 294.2784 
" clip-path="url(#p5efc679feb)" style="fill: none; stroke: #000000; stroke-width: 1.5"/>
    <path d="M 225.987843 307.584 
L 225.987843 294.2784 
" clip-path="url(#p5efc679feb)" style="fill: none; stroke: #000000; stroke-width: 1.5"/>
    <path d="M 310.519409 307.584 
L 310.519409 294.2784 
" clip-path="url(#p5efc679feb)" style="fill: none; stroke: #000000; stroke-width: 1.5"/>
   </g>
   <g id="LineCollection_2">
    <path clip-path="url(#p5efc679feb)" style="fill: none; stroke: #000000; stroke-width: 1.5"/>
    <path clip-path="url(#p5efc679feb)" style="fill: none; stroke: #000000; stroke-width: 1.5"/>
    <path clip-path="url(#p5efc679feb)" style="fill: none; stroke: #000000; stroke-width: 1.5"/>
    <path clip-path="url(#p5efc679feb)" style="fill: none; stroke: #000000; stroke-width: 1.5"/>
    <path clip-path="url(#p5efc679feb)" style="fill: none; stroke: #000000; stroke-width: 1.5"/>
    <path d="M 168.339818 291.752519 
L 173.430072 291.752519 
" clip-path="url(#p5efc679feb)" style="fill: none; stroke: #000000; stroke-width: 1.5"/>
    <path d="M 168.339818 176.565405 
L 173.430072 176.565405 
" clip-path="url(#p5efc679feb)" style="fill: none; stroke: #000000; stroke-width: 1.5"/>
    <path d="M 168.339818 120.321143 
L 173.430072 120.321143 
" clip-path="url(#p5efc679feb)" style="fill: none; stroke: #000000; stroke-width: 1.5"/>
    <path clip-path="url(#p5efc679feb)" style="fill: none; stroke: #000000; stroke-width: 1.5"/>
   </g>
   <g id="patch_3">
    <path d="M 57.6 307.584 
L 57.6 41.472 
" style="fill: none; stroke: #000000; stroke-width: 0.8; stroke-linejoin: miter; stroke-linecap: square"/>
   </g>
   <g id="patch_4">
    <path d="M 414.72 307.584 
L 414.72 41.472 
" style="fill: none; stroke: #000000; stroke-width: 0.8; stroke-linejoin: miter; stroke-linecap: square"/>
   </g>
   <g id="patch_5">
    <path d="M 57.6 307.584 
L 414.72 307.584 
" style="fill: none; stroke: #000000; stroke-width: 0.8; stroke-linejoin: miter; stroke-linecap: square"/>
   </g>
   <g id="patch_6">
    <path d="M 57.6 41.472 
L 414.72 41.472 
" style="fill: none; stroke: #000000; stroke-width: 0.8; stroke-linejoin: miter; stroke-linecap: square"/>
   </g>
   <g id="text_17">
    <!-- 2D-partial dependency plot between Veg and Fish -->
    <g transform="translate(86.357812 35.472) scale(0.12 -0.12)">
     <defs>
      <path id="DejaVuSans-44" d="M 1259 4147 
L 1259 519 
L 2022 519 
Q 2988 519 3436 956 
Q 3884 1394 3884 2338 
Q 3884 3275 3436 3711 
Q 2988 4147 2022 4147 
L 1259 4147 
z
M 628 4666 
L 1925 4666 
Q 3281 4666 3915 4102 
Q 4550 3538 4550 2338 
Q 4550 1131 3912 565 
Q 3275 0 1925 0 
L 628 0 
L 628 4666 
z
" transform="scale(0.015625)"/>
      <path id="DejaVuSans-2d" d="M 313 2009 
L 1997 2009 
L 1997 1497 
L 313 1497 
L 313 2009 
z
" transform="scale(0.015625)"/>
      <path id="DejaVuSans-72" d="M 2631 2963 
Q 2534 3019 2420 3045 
Q 2306 3072 2169 3072 
Q 1681 3072 1420 2755 
Q 1159 2438 1159 1844 
L 1159 0 
L 581 0 
L 581 3500 
L 1159 3500 
L 1159 2956 
Q 1341 3275 1631 3429 
Q 1922 3584 2338 3584 
Q 2397 3584 2469 3576 
Q 2541 3569 2628 3553 
L 2631 2963 
z
" transform="scale(0.015625)"/>
      <path id="DejaVuSans-63" d="M 3122 3366 
L 3122 2828 
Q 2878 2963 2633 3030 
Q 2388 3097 2138 3097 
Q 1578 3097 1268 2742 
Q 959 2388 959 1747 
Q 959 1106 1268 751 
Q 1578 397 2138 397 
Q 2388 397 2633 464 
Q 2878 531 3122 666 
L 3122 134 
Q 2881 22 2623 -34 
Q 2366 -91 2075 -91 
Q 1284 -91 818 406 
Q 353 903 353 1747 
Q 353 2603 823 3093 
Q 1294 3584 2113 3584 
Q 2378 3584 2631 3529 
Q 2884 3475 3122 3366 
z
" transform="scale(0.015625)"/>
      <path id="DejaVuSans-79" d="M 2059 -325 
Q 1816 -950 1584 -1140 
Q 1353 -1331 966 -1331 
L 506 -1331 
L 506 -850 
L 844 -850 
Q 1081 -850 1212 -737 
Q 1344 -625 1503 -206 
L 1606 56 
L 191 3500 
L 800 3500 
L 1894 763 
L 2988 3500 
L 3597 3500 
L 2059 -325 
z
" transform="scale(0.015625)"/>
      <path id="DejaVuSans-77" d="M 269 3500 
L 844 3500 
L 1563 769 
L 2278 3500 
L 2956 3500 
L 3675 769 
L 4391 3500 
L 4966 3500 
L 4050 0 
L 3372 0 
L 2619 2869 
L 1863 0 
L 1184 0 
L 269 3500 
z
" transform="scale(0.015625)"/>
     </defs>
     <use xlink:href="#DejaVuSans-32"/>
     <use xlink:href="#DejaVuSans-44" x="63.623047"/>
     <use xlink:href="#DejaVuSans-2d" x="140.625"/>
     <use xlink:href="#DejaVuSans-70" x="176.708984"/>
     <use xlink:href="#DejaVuSans-61" x="240.185547"/>
     <use xlink:href="#DejaVuSans-72" x="301.464844"/>
     <use xlink:href="#DejaVuSans-74" x="342.578125"/>
     <use xlink:href="#DejaVuSans-69" x="381.787109"/>
     <use xlink:href="#DejaVuSans-61" x="409.570312"/>
     <use xlink:href="#DejaVuSans-6c" x="470.849609"/>
     <use xlink:href="#DejaVuSans-20" x="498.632812"/>
     <use xlink:href="#DejaVuSans-64" x="530.419922"/>
     <use xlink:href="#DejaVuSans-65" x="593.896484"/>
     <use xlink:href="#DejaVuSans-70" x="655.419922"/>
     <use xlink:href="#DejaVuSans-65" x="718.896484"/>
     <use xlink:href="#DejaVuSans-6e" x="780.419922"/>
     <use xlink:href="#DejaVuSans-64" x="843.798828"/>
     <use xlink:href="#DejaVuSans-65" x="907.275391"/>
     <use xlink:href="#DejaVuSans-6e" x="968.798828"/>
     <use xlink:href="#DejaVuSans-63" x="1032.177734"/>
     <use xlink:href="#DejaVuSans-79" x="1087.158203"/>
     <use xlink:href="#DejaVuSans-20" x="1146.337891"/>
     <use xlink:href="#DejaVuSans-70" x="1178.125"/>
     <use xlink:href="#DejaVuSans-6c" x="1241.601562"/>
     <use xlink:href="#DejaVuSans-6f" x="1269.384766"/>
     <use xlink:href="#DejaVuSans-74" x="1330.566406"/>
     <use xlink:href="#DejaVuSans-20" x="1369.775391"/>
     <use xlink:href="#DejaVuSans-62" x="1401.5625"/>
     <use xlink:href="#DejaVuSans-65" x="1465.039062"/>
     <use xlink:href="#DejaVuSans-74" x="1526.5625"/>
     <use xlink:href="#DejaVuSans-77" x="1565.771484"/>
     <use xlink:href="#DejaVuSans-65" x="1647.558594"/>
     <use xlink:href="#DejaVuSans-65" x="1709.082031"/>
     <use xlink:href="#DejaVuSans-6e" x="1770.605469"/>
     <use xlink:href="#DejaVuSans-20" x="1833.984375"/>
     <use xlink:href="#DejaVuSans-56" x="1865.771484"/>
     <use xlink:href="#DejaVuSans-65" x="1926.429688"/>
     <use xlink:href="#DejaVuSans-67" x="1987.953125"/>
     <use xlink:href="#DejaVuSans-20" x="2051.429688"/>
     <use xlink:href="#DejaVuSans-61" x="2083.216797"/>
     <use xlink:href="#DejaVuSans-6e" x="2144.496094"/>
     <use xlink:href="#DejaVuSans-64" x="2207.875"/>
     <use xlink:href="#DejaVuSans-20" x="2271.351562"/>
     <use xlink:href="#DejaVuSans-46" x="2303.138672"/>
     <use xlink:href="#DejaVuSans-69" x="2353.408203"/>
     <use xlink:href="#DejaVuSans-73" x="2381.191406"/>
     <use xlink:href="#DejaVuSans-68" x="2433.291016"/>
    </g>
   </g>
   <g id="text_18">
    <g clip-path="url(#p5efc679feb)">
     <!-- -0.04 -->
     <g transform="translate(166.01315 74.231281) rotate(-270) scale(0.1 -0.1)">
      <defs>
       <path id="DejaVuSans-34" d="M 2419 4116 
L 825 1625 
L 2419 1625 
L 2419 4116 
z
M 2253 4666 
L 3047 4666 
L 3047 1625 
L 3713 1625 
L 3713 1100 
L 3047 1100 
L 3047 0 
L 2419 0 
L 2419 1100 
L 313 1100 
L 313 1709 
L 2253 4666 
z
" transform="scale(0.015625)"/>
      </defs>
      <use xlink:href="#DejaVuSans-2d"/>
      <use xlink:href="#DejaVuSans-30" x="36.083984"/>
      <use xlink:href="#DejaVuSans-2e" x="99.707031"/>
      <use xlink:href="#DejaVuSans-30" x="131.494141"/>
      <use xlink:href="#DejaVuSans-34" x="195.117188"/>
     </g>
    </g>
   </g>
   <g id="text_19">
    <g clip-path="url(#p5efc679feb)">
     <!-- -0.03 -->
     <g transform="translate(265.259461 74.231281) rotate(-270) scale(0.1 -0.1)">
      <defs>
       <path id="DejaVuSans-33" d="M 2597 2516 
Q 3050 2419 3304 2112 
Q 3559 1806 3559 1356 
Q 3559 666 3084 287 
Q 2609 -91 1734 -91 
Q 1441 -91 1130 -33 
Q 819 25 488 141 
L 488 750 
Q 750 597 1062 519 
Q 1375 441 1716 441 
Q 2309 441 2620 675 
Q 2931 909 2931 1356 
Q 2931 1769 2642 2001 
Q 2353 2234 1838 2234 
L 1294 2234 
L 1294 2753 
L 1863 2753 
Q 2328 2753 2575 2939 
Q 2822 3125 2822 3475 
Q 2822 3834 2567 4026 
Q 2313 4219 1838 4219 
Q 1578 4219 1281 4162 
Q 984 4106 628 3988 
L 628 4550 
Q 988 4650 1302 4700 
Q 1616 4750 1894 4750 
Q 2613 4750 3031 4423 
Q 3450 4097 3450 3541 
Q 3450 3153 3228 2886 
Q 3006 2619 2597 2516 
z
" transform="scale(0.015625)"/>
      </defs>
      <use xlink:href="#DejaVuSans-2d"/>
      <use xlink:href="#DejaVuSans-30" x="36.083984"/>
      <use xlink:href="#DejaVuSans-2e" x="99.707031"/>
      <use xlink:href="#DejaVuSans-30" x="131.494141"/>
      <use xlink:href="#DejaVuSans-33" x="195.117188"/>
     </g>
    </g>
   </g>
   <g id="text_20">
    <g clip-path="url(#p5efc679feb)">
     <!-- -0.01 -->
     <g transform="translate(268.294574 262.391281) rotate(-270) scale(0.1 -0.1)">
      <use xlink:href="#DejaVuSans-2d"/>
      <use xlink:href="#DejaVuSans-30" x="36.083984"/>
      <use xlink:href="#DejaVuSans-2e" x="99.707031"/>
      <use xlink:href="#DejaVuSans-30" x="131.494141"/>
      <use xlink:href="#DejaVuSans-31" x="195.117188"/>
     </g>
    </g>
   </g>
   <g id="text_21">
    <g clip-path="url(#p5efc679feb)">
     <!-- -0.00 -->
     <g transform="translate(273.78191 191.681225) rotate(-76.857134) scale(0.1 -0.1)">
      <use xlink:href="#DejaVuSans-2d"/>
      <use xlink:href="#DejaVuSans-30" x="36.083984"/>
      <use xlink:href="#DejaVuSans-2e" x="99.707031"/>
      <use xlink:href="#DejaVuSans-30" x="131.494141"/>
      <use xlink:href="#DejaVuSans-30" x="195.117188"/>
     </g>
    </g>
   </g>
   <g id="text_22">
    <g clip-path="url(#p5efc679feb)">
     <!-- 0.01 -->
     <g transform="translate(299.962109 70.659187) rotate(-270) scale(0.1 -0.1)">
      <use xlink:href="#DejaVuSans-30"/>
      <use xlink:href="#DejaVuSans-2e" x="63.623047"/>
      <use xlink:href="#DejaVuSans-30" x="95.410156"/>
      <use xlink:href="#DejaVuSans-31" x="159.033203"/>
     </g>
    </g>
   </g>
   <g id="text_23">
    <g clip-path="url(#p5efc679feb)">
     <!-- 0.02 -->
     <g transform="translate(358.076187 70.659187) rotate(-270) scale(0.1 -0.1)">
      <use xlink:href="#DejaVuSans-30"/>
      <use xlink:href="#DejaVuSans-2e" x="63.623047"/>
      <use xlink:href="#DejaVuSans-30" x="95.410156"/>
      <use xlink:href="#DejaVuSans-32" x="159.033203"/>
     </g>
    </g>
   </g>
  </g>
 </g>
 <defs>
  <clipPath id="p5efc679feb">
   <rect x="57.6" y="41.472" width="357.12" height="266.112"/>
  </clipPath>
 </defs>
</svg>
