<?xml version="1.0" encoding="utf-8" standalone="no"?>
<!DOCTYPE svg PUBLIC "-//W3C//DTD SVG 1.1//EN"
  "http://www.w3.org/Graphics/SVG/1.1/DTD/svg11.dtd">
<svg xmlns:xlink="http://www.w3.org/1999/xlink" width="460.8pt" height="345.6pt" viewBox="0 0 460.8 345.6" xmlns="http://www.w3.org/2000/svg" version="1.1">
 <metadata>
  <rdf:RDF xmlns:dc="http://purl.org/dc/elements/1.1/" xmlns:cc="http://creativecommons.org/ns#" xmlns:rdf="http://www.w3.org/1999/02/22-rdf-syntax-ns#">
   <cc:Work>
    <dc:type rdf:resource="http://purl.org/dc/dcmitype/StillImage"/>
    <dc:date>2024-02-15T12:26:47.409245</dc:date>
    <dc:format>image/svg+xml</dc:format>
    <dc:creator>
     <cc:Agent>
      <dc:title>Matplotlib v3.7.0, https://matplotlib.org/</dc:title>
     </cc:Agent>
    </dc:creator>
   </cc:Work>
  </rdf:RDF>
 </metadata>
 <defs>
  <style type="text/css">*{stroke-linejoin: round; stroke-linecap: butt}</style>
 </defs>
 <g id="figure_1">
  <g id="patch_1">
   <path d="M 0 345.6 
L 460.8 345.6 
L 460.8 0 
L 0 0 
L 0 345.6 
z
" style="fill: none"/>
  </g>
  <g id="axes_1"/>
  <g id="axes_2">
   <g id="patch_2">
    <path d="M 57.6 307.584 
L 414.72 307.584 
L 414.72 41.472 
L 57.6 41.472 
L 57.6 307.584 
z
" style="fill: none"/>
   </g>
   <g id="PathCollection_1">
    <path d="M 79.150345 307.584 
L 91.464828 307.584 
L 94.543448 307.584 
L 97.622069 307.584 
L 100.70069 307.584 
L 103.77931 307.584 
L 106.857931 307.584 
L 116.093793 307.584 
L 119.172414 307.584 
L 122.251034 307.584 
L 125.329655 307.584 
L 128.408276 307.584 
L 131.486897 307.584 
L 134.565517 307.584 
L 137.644138 307.584 
L 140.722759 307.584 
L 143.801379 307.584 
L 146.88 307.584 
L 149.958621 307.584 
L 156.115862 307.584 
L 159.194483 307.584 
L 162.273103 307.584 
L 165.351724 307.584 
L 168.430345 307.584 
L 171.508966 307.584 
L 174.587586 307.584 
L 177.666207 307.584 
L 183.823448 307.584 
L 186.902069 307.584 
L 189.98069 307.584 
L 193.05931 307.584 
L 199.216552 307.584 
L 202.295172 307.584 
L 208.452414 307.584 
L 211.531034 307.584 
L 214.609655 307.584 
L 217.688276 307.584 
L 220.766897 307.584 
L 223.845517 307.584 
L 226.924138 307.584 
L 230.002759 307.584 
L 233.081379 307.584 
L 236.16 307.584 
L 239.238621 307.584 
L 242.317241 307.584 
L 245.395862 307.584 
L 248.474483 307.584 
L 251.553103 307.584 
L 254.631724 307.584 
L 257.710345 307.584 
L 260.788966 307.584 
L 263.867586 307.584 
L 266.946207 307.584 
L 270.024828 307.584 
L 273.103448 307.584 
L 276.182069 307.584 
L 279.26069 307.584 
L 282.33931 307.584 
L 285.417931 307.584 
L 288.496552 307.584 
L 294.653793 307.584 
L 297.732414 307.584 
L 310.046897 307.584 
L 313.125517 307.584 
L 316.204138 307.584 
L 319.282759 307.584 
L 322.361379 307.584 
L 334.675862 307.584 
L 346.990345 307.584 
L 414.72 307.584 
L 414.72 304.896 
L 414.72 302.208 
L 414.72 299.52 
L 414.72 296.832 
L 414.72 294.144 
L 414.72 291.456 
L 414.72 288.768 
L 414.72 286.08 
L 414.72 283.392 
L 414.72 280.704 
L 414.72 278.016 
L 414.72 275.328 
L 414.72 272.64 
L 414.72 269.952 
L 414.72 267.264 
L 414.72 264.576 
L 414.72 261.888 
L 414.72 259.2 
L 414.72 256.512 
L 414.72 253.824 
L 414.72 251.136 
L 414.72 248.448 
L 414.72 245.76 
L 414.72 243.072 
L 414.72 240.384 
L 414.72 237.696 
L 414.72 235.008 
L 414.72 232.32 
L 414.72 229.632 
L 414.72 226.944 
L 414.72 224.256 
L 414.72 221.568 
L 414.72 218.88 
L 414.72 216.192 
L 414.72 213.504 
L 414.72 210.816 
L 414.72 208.128 
L 414.72 205.44 
L 414.72 202.752 
L 414.72 200.064 
L 414.72 197.376 
L 414.72 194.688 
L 414.72 192 
L 414.72 189.312 
L 414.72 186.624 
L 414.72 186.028819 
L 346.990345 186.028819 
L 334.675862 186.028819 
L 322.361379 186.028819 
L 319.282759 186.028819 
L 316.204138 186.028819 
L 313.125517 186.028819 
L 310.046897 186.028819 
L 297.732414 186.028819 
L 294.653793 186.028819 
L 288.496552 186.028819 
L 285.417931 186.028819 
L 282.33931 186.028819 
L 279.26069 186.028819 
L 276.182069 186.028819 
L 273.103448 186.028819 
L 270.024828 186.028819 
L 266.946207 186.028819 
L 263.867586 186.028819 
L 260.788966 186.028819 
L 257.710345 186.028819 
L 254.631724 186.028819 
L 251.553103 186.028819 
L 248.474483 186.028819 
L 245.395862 186.028819 
L 242.317241 186.028819 
L 239.238621 186.028819 
L 236.16 186.028819 
L 233.081379 186.028819 
L 230.002759 186.028819 
L 226.924138 186.028819 
L 223.845517 186.028819 
L 220.766897 186.028819 
L 217.688276 186.028819 
L 214.609655 186.028819 
L 211.531034 186.028819 
L 208.452414 186.028819 
L 202.295172 186.028819 
L 199.216552 186.028819 
L 193.05931 185.981869 
L 189.98069 185.981869 
L 186.902069 185.981869 
L 183.823448 185.981869 
L 177.666207 185.981869 
L 174.587586 185.981869 
L 171.508966 185.981869 
L 168.430345 185.981869 
L 165.351724 185.981869 
L 162.273103 185.981869 
L 159.194483 185.981869 
L 156.115862 185.981869 
L 149.958621 185.981869 
L 146.88 185.981869 
L 143.801379 185.981869 
L 140.722759 185.981869 
L 137.644138 185.981869 
L 134.565517 185.981869 
L 131.486897 185.981869 
L 128.408276 185.981869 
L 125.329655 185.981869 
L 122.251034 185.981869 
L 119.172414 185.981869 
L 116.093793 185.981869 
L 106.857931 185.981869 
L 103.77931 185.981869 
L 100.70069 185.981869 
L 97.622069 185.981869 
L 94.543448 185.981869 
L 91.464828 185.981869 
L 79.150345 185.981869 
L 57.6 185.981869 
L 57.6 186.624 
L 57.6 189.312 
L 57.6 192 
L 57.6 194.688 
L 57.6 197.376 
L 57.6 200.064 
L 57.6 202.752 
L 57.6 205.44 
L 57.6 208.128 
L 57.6 210.816 
L 57.6 213.504 
L 57.6 216.192 
L 57.6 218.88 
L 57.6 221.568 
L 57.6 224.256 
L 57.6 226.944 
L 57.6 229.632 
L 57.6 232.32 
L 57.6 235.008 
L 57.6 237.696 
L 57.6 240.384 
L 57.6 243.072 
L 57.6 245.76 
L 57.6 248.448 
L 57.6 251.136 
L 57.6 253.824 
L 57.6 256.512 
L 57.6 259.2 
L 57.6 261.888 
L 57.6 264.576 
L 57.6 267.264 
L 57.6 269.952 
L 57.6 272.64 
L 57.6 275.328 
L 57.6 278.016 
L 57.6 280.704 
L 57.6 283.392 
L 57.6 286.08 
L 57.6 288.768 
L 57.6 291.456 
L 57.6 294.144 
L 57.6 296.832 
L 57.6 299.52 
L 57.6 302.208 
L 57.6 304.896 
L 57.6 307.584 
z
" clip-path="url(#p54cec41545)" style="fill: #481b6d; fill-opacity: 0.75"/>
   </g>
   <g id="PathCollection_2">
    <path d="M 79.150345 185.981869 
L 91.464828 185.981869 
L 94.543448 185.981869 
L 97.622069 185.981869 
L 100.70069 185.981869 
L 103.77931 185.981869 
L 106.857931 185.981869 
L 116.093793 185.981869 
L 119.172414 185.981869 
L 122.251034 185.981869 
L 125.329655 185.981869 
L 128.408276 185.981869 
L 131.486897 185.981869 
L 134.565517 185.981869 
L 137.644138 185.981869 
L 140.722759 185.981869 
L 143.801379 185.981869 
L 146.88 185.981869 
L 149.958621 185.981869 
L 156.115862 185.981869 
L 159.194483 185.981869 
L 162.273103 185.981869 
L 165.351724 185.981869 
L 168.430345 185.981869 
L 171.508966 185.981869 
L 174.587586 185.981869 
L 177.666207 185.981869 
L 183.823448 185.981869 
L 186.902069 185.981869 
L 189.98069 185.981869 
L 193.05931 185.981869 
L 199.216552 186.028819 
L 202.295172 186.028819 
L 208.452414 186.028819 
L 211.531034 186.028819 
L 214.609655 186.028819 
L 217.688276 186.028819 
L 220.766897 186.028819 
L 223.845517 186.028819 
L 226.924138 186.028819 
L 230.002759 186.028819 
L 233.081379 186.028819 
L 236.16 186.028819 
L 239.238621 186.028819 
L 242.317241 186.028819 
L 245.395862 186.028819 
L 248.474483 186.028819 
L 251.553103 186.028819 
L 254.631724 186.028819 
L 257.710345 186.028819 
L 260.788966 186.028819 
L 263.867586 186.028819 
L 266.946207 186.028819 
L 270.024828 186.028819 
L 273.103448 186.028819 
L 276.182069 186.028819 
L 279.26069 186.028819 
L 282.33931 186.028819 
L 285.417931 186.028819 
L 288.496552 186.028819 
L 294.653793 186.028819 
L 297.732414 186.028819 
L 310.046897 186.028819 
L 313.125517 186.028819 
L 316.204138 186.028819 
L 319.282759 186.028819 
L 322.361379 186.028819 
L 334.675862 186.028819 
L 346.990345 186.028819 
L 414.72 186.028819 
L 414.72 183.936 
L 414.72 181.248 
L 414.72 178.56 
L 414.72 175.872 
L 414.72 173.184 
L 414.72 170.496 
L 414.72 167.808 
L 414.72 165.12 
L 414.72 162.432 
L 414.72 159.744 
L 414.72 157.056 
L 414.72 154.368 
L 414.72 151.68 
L 414.72 148.992 
L 414.72 146.304 
L 414.72 143.616 
L 414.72 143.084098 
L 346.990345 143.084098 
L 334.675862 143.084098 
L 322.361379 143.084098 
L 319.282759 143.084098 
L 316.204138 143.084098 
L 313.125517 143.084098 
L 310.046897 143.084098 
L 297.732414 143.084098 
L 294.653793 143.084098 
L 288.496552 143.084098 
L 285.417931 143.084098 
L 282.33931 143.084098 
L 279.26069 143.084098 
L 276.182069 143.084098 
L 273.103448 143.084098 
L 270.024828 143.084098 
L 266.946207 143.084098 
L 263.867586 143.084098 
L 260.788966 143.084098 
L 257.710345 143.084098 
L 254.631724 143.084098 
L 251.553103 143.084098 
L 248.474483 143.084098 
L 245.395862 143.084098 
L 242.317241 143.084098 
L 239.238621 143.084098 
L 236.16 143.084098 
L 233.081379 143.084098 
L 230.002759 143.084098 
L 226.924138 143.084098 
L 223.845517 143.084098 
L 220.766897 143.084098 
L 217.688276 143.084098 
L 214.609655 143.084098 
L 211.531034 143.084098 
L 208.452414 143.084098 
L 202.295172 143.084098 
L 199.216552 143.084098 
L 193.05931 143.082485 
L 189.98069 143.082485 
L 186.902069 143.082485 
L 183.823448 143.082485 
L 177.666207 143.082485 
L 174.587586 143.082485 
L 171.508966 143.082485 
L 168.430345 143.082485 
L 165.351724 143.082485 
L 162.273103 143.082485 
L 159.194483 143.082485 
L 156.115862 143.082485 
L 149.958621 143.082485 
L 146.88 143.082485 
L 143.801379 143.082485 
L 140.722759 143.082485 
L 137.644138 143.082485 
L 134.565517 143.082485 
L 131.486897 143.082485 
L 128.408276 143.082485 
L 125.329655 143.082485 
L 122.251034 143.082485 
L 119.172414 143.082485 
L 116.093793 143.082485 
L 106.857931 143.082485 
L 103.77931 143.082485 
L 100.70069 143.082485 
L 97.622069 143.082485 
L 94.543448 143.082485 
L 91.464828 143.082485 
L 79.150345 143.082485 
L 57.6 143.082485 
L 57.6 143.616 
L 57.6 146.304 
L 57.6 148.992 
L 57.6 151.68 
L 57.6 154.368 
L 57.6 157.056 
L 57.6 159.744 
L 57.6 162.432 
L 57.6 165.12 
L 57.6 167.808 
L 57.6 170.496 
L 57.6 173.184 
L 57.6 175.872 
L 57.6 178.56 
L 57.6 181.248 
L 57.6 183.936 
L 57.6 185.981869 
z
" clip-path="url(#p54cec41545)" style="fill: #3f4788; fill-opacity: 0.75"/>
   </g>
   <g id="PathCollection_3">
    <path d="M 79.150345 143.082485 
L 91.464828 143.082485 
L 94.543448 143.082485 
L 97.622069 143.082485 
L 100.70069 143.082485 
L 103.77931 143.082485 
L 106.857931 143.082485 
L 116.093793 143.082485 
L 119.172414 143.082485 
L 122.251034 143.082485 
L 125.329655 143.082485 
L 128.408276 143.082485 
L 131.486897 143.082485 
L 134.565517 143.082485 
L 137.644138 143.082485 
L 140.722759 143.082485 
L 143.801379 143.082485 
L 146.88 143.082485 
L 149.958621 143.082485 
L 156.115862 143.082485 
L 159.194483 143.082485 
L 162.273103 143.082485 
L 165.351724 143.082485 
L 168.430345 143.082485 
L 171.508966 143.082485 
L 174.587586 143.082485 
L 177.666207 143.082485 
L 183.823448 143.082485 
L 186.902069 143.082485 
L 189.98069 143.082485 
L 193.05931 143.082485 
L 199.216552 143.084098 
L 202.295172 143.084098 
L 208.452414 143.084098 
L 211.531034 143.084098 
L 214.609655 143.084098 
L 217.688276 143.084098 
L 220.766897 143.084098 
L 223.845517 143.084098 
L 226.924138 143.084098 
L 230.002759 143.084098 
L 233.081379 143.084098 
L 236.16 143.084098 
L 239.238621 143.084098 
L 242.317241 143.084098 
L 245.395862 143.084098 
L 248.474483 143.084098 
L 251.553103 143.084098 
L 254.631724 143.084098 
L 257.710345 143.084098 
L 260.788966 143.084098 
L 263.867586 143.084098 
L 266.946207 143.084098 
L 270.024828 143.084098 
L 273.103448 143.084098 
L 276.182069 143.084098 
L 279.26069 143.084098 
L 282.33931 143.084098 
L 285.417931 143.084098 
L 288.496552 143.084098 
L 294.653793 143.084098 
L 297.732414 143.084098 
L 310.046897 143.084098 
L 313.125517 143.084098 
L 316.204138 143.084098 
L 319.282759 143.084098 
L 322.361379 143.084098 
L 334.675862 143.084098 
L 346.990345 143.084098 
L 414.72 143.084098 
L 414.72 142.130088 
L 346.990345 142.130088 
L 334.675862 142.130088 
L 322.361379 142.130088 
L 319.282759 142.130088 
L 316.204138 142.130088 
L 313.125517 142.130088 
L 310.046897 142.130088 
L 297.732414 142.130088 
L 294.653793 142.130088 
L 288.496552 142.130088 
L 285.417931 142.130088 
L 282.33931 142.130088 
L 279.26069 142.130088 
L 276.182069 142.130088 
L 273.103448 142.130088 
L 270.024828 142.130088 
L 266.946207 142.130088 
L 263.867586 142.130088 
L 260.788966 142.130088 
L 257.710345 142.130088 
L 254.631724 142.130088 
L 251.553103 142.130088 
L 248.474483 142.130088 
L 245.395862 142.130088 
L 242.317241 142.130088 
L 239.238621 142.130088 
L 236.16 142.130088 
L 233.081379 142.130088 
L 230.002759 142.130088 
L 226.924138 142.130088 
L 223.845517 142.130088 
L 220.766897 142.130088 
L 217.688276 142.130088 
L 214.609655 142.130088 
L 211.531034 142.130088 
L 208.452414 142.130088 
L 202.295172 142.130088 
L 199.216552 142.130088 
L 193.05931 142.129189 
L 189.98069 142.129189 
L 186.902069 142.129189 
L 183.823448 142.129189 
L 177.666207 142.129189 
L 174.587586 142.129189 
L 171.508966 142.129189 
L 168.430345 142.129189 
L 165.351724 142.129189 
L 162.273103 142.129189 
L 159.194483 142.129189 
L 156.115862 142.129189 
L 149.958621 142.129189 
L 146.88 142.129189 
L 143.801379 142.129189 
L 140.722759 142.129189 
L 137.644138 142.129189 
L 134.565517 142.129189 
L 131.486897 142.129189 
L 128.408276 142.129189 
L 125.329655 142.129189 
L 122.251034 142.129189 
L 119.172414 142.129189 
L 116.093793 142.129189 
L 106.857931 142.129189 
L 103.77931 142.129189 
L 100.70069 142.129189 
L 97.622069 142.129189 
L 94.543448 142.129189 
L 91.464828 142.129189 
L 79.150345 142.129189 
L 57.6 142.129189 
L 57.6 143.082485 
z
" clip-path="url(#p54cec41545)" style="fill: #2e6e8e; fill-opacity: 0.75"/>
   </g>
   <g id="PathCollection_4">
    <path d="M 79.150345 142.129189 
L 91.464828 142.129189 
L 94.543448 142.129189 
L 97.622069 142.129189 
L 100.70069 142.129189 
L 103.77931 142.129189 
L 106.857931 142.129189 
L 116.093793 142.129189 
L 119.172414 142.129189 
L 122.251034 142.129189 
L 125.329655 142.129189 
L 128.408276 142.129189 
L 131.486897 142.129189 
L 134.565517 142.129189 
L 137.644138 142.129189 
L 140.722759 142.129189 
L 143.801379 142.129189 
L 146.88 142.129189 
L 149.958621 142.129189 
L 156.115862 142.129189 
L 159.194483 142.129189 
L 162.273103 142.129189 
L 165.351724 142.129189 
L 168.430345 142.129189 
L 171.508966 142.129189 
L 174.587586 142.129189 
L 177.666207 142.129189 
L 183.823448 142.129189 
L 186.902069 142.129189 
L 189.98069 142.129189 
L 193.05931 142.129189 
L 199.216552 142.130088 
L 202.295172 142.130088 
L 208.452414 142.130088 
L 211.531034 142.130088 
L 214.609655 142.130088 
L 217.688276 142.130088 
L 220.766897 142.130088 
L 223.845517 142.130088 
L 226.924138 142.130088 
L 230.002759 142.130088 
L 233.081379 142.130088 
L 236.16 142.130088 
L 239.238621 142.130088 
L 242.317241 142.130088 
L 245.395862 142.130088 
L 248.474483 142.130088 
L 251.553103 142.130088 
L 254.631724 142.130088 
L 257.710345 142.130088 
L 260.788966 142.130088 
L 263.867586 142.130088 
L 266.946207 142.130088 
L 270.024828 142.130088 
L 273.103448 142.130088 
L 276.182069 142.130088 
L 279.26069 142.130088 
L 282.33931 142.130088 
L 285.417931 142.130088 
L 288.496552 142.130088 
L 294.653793 142.130088 
L 297.732414 142.130088 
L 310.046897 142.130088 
L 313.125517 142.130088 
L 316.204138 142.130088 
L 319.282759 142.130088 
L 322.361379 142.130088 
L 334.675862 142.130088 
L 346.990345 142.130088 
L 414.72 142.130088 
L 414.72 141.176079 
L 346.990345 141.176079 
L 334.675862 141.176079 
L 322.361379 141.176079 
L 319.282759 141.176079 
L 316.204138 141.176079 
L 313.125517 141.176079 
L 310.046897 141.176079 
L 297.732414 141.176079 
L 294.653793 141.176079 
L 288.496552 141.176079 
L 285.417931 141.176079 
L 282.33931 141.176079 
L 279.26069 141.176079 
L 276.182069 141.176079 
L 273.103448 141.176079 
L 270.024828 141.176079 
L 266.946207 141.176079 
L 263.867586 141.176079 
L 260.788966 141.176079 
L 257.710345 141.176079 
L 254.631724 141.176079 
L 251.553103 141.176079 
L 248.474483 141.176079 
L 245.395862 141.176079 
L 242.317241 141.176079 
L 239.238621 141.176079 
L 236.16 141.176079 
L 233.081379 141.176079 
L 230.002759 141.176079 
L 226.924138 141.176079 
L 223.845517 141.176079 
L 220.766897 141.176079 
L 217.688276 141.176079 
L 214.609655 141.176079 
L 211.531034 141.176079 
L 208.452414 141.176079 
L 202.295172 141.176079 
L 199.216552 141.176079 
L 193.05931 141.175894 
L 189.98069 141.175894 
L 186.902069 141.175894 
L 183.823448 141.175894 
L 177.666207 141.175894 
L 174.587586 141.175894 
L 171.508966 141.175894 
L 168.430345 141.175894 
L 165.351724 141.175894 
L 162.273103 141.175894 
L 159.194483 141.175894 
L 156.115862 141.175894 
L 149.958621 141.175894 
L 146.88 141.175894 
L 143.801379 141.175894 
L 140.722759 141.175894 
L 137.644138 141.175894 
L 134.565517 141.175894 
L 131.486897 141.175894 
L 128.408276 141.175894 
L 125.329655 141.175894 
L 122.251034 141.175894 
L 119.172414 141.175894 
L 116.093793 141.175894 
L 106.857931 141.175894 
L 103.77931 141.175894 
L 100.70069 141.175894 
L 97.622069 141.175894 
L 94.543448 141.175894 
L 91.464828 141.175894 
L 79.150345 141.175894 
L 57.6 141.175894 
L 57.6 142.129189 
z
" clip-path="url(#p54cec41545)" style="fill: #21918c; fill-opacity: 0.75"/>
   </g>
   <g id="PathCollection_5">
    <path d="M 79.150345 141.175894 
L 91.464828 141.175894 
L 94.543448 141.175894 
L 97.622069 141.175894 
L 100.70069 141.175894 
L 103.77931 141.175894 
L 106.857931 141.175894 
L 116.093793 141.175894 
L 119.172414 141.175894 
L 122.251034 141.175894 
L 125.329655 141.175894 
L 128.408276 141.175894 
L 131.486897 141.175894 
L 134.565517 141.175894 
L 137.644138 141.175894 
L 140.722759 141.175894 
L 143.801379 141.175894 
L 146.88 141.175894 
L 149.958621 141.175894 
L 156.115862 141.175894 
L 159.194483 141.175894 
L 162.273103 141.175894 
L 165.351724 141.175894 
L 168.430345 141.175894 
L 171.508966 141.175894 
L 174.587586 141.175894 
L 177.666207 141.175894 
L 183.823448 141.175894 
L 186.902069 141.175894 
L 189.98069 141.175894 
L 193.05931 141.175894 
L 199.216552 141.176079 
L 202.295172 141.176079 
L 208.452414 141.176079 
L 211.531034 141.176079 
L 214.609655 141.176079 
L 217.688276 141.176079 
L 220.766897 141.176079 
L 223.845517 141.176079 
L 226.924138 141.176079 
L 230.002759 141.176079 
L 233.081379 141.176079 
L 236.16 141.176079 
L 239.238621 141.176079 
L 242.317241 141.176079 
L 245.395862 141.176079 
L 248.474483 141.176079 
L 251.553103 141.176079 
L 254.631724 141.176079 
L 257.710345 141.176079 
L 260.788966 141.176079 
L 263.867586 141.176079 
L 266.946207 141.176079 
L 270.024828 141.176079 
L 273.103448 141.176079 
L 276.182069 141.176079 
L 279.26069 141.176079 
L 282.33931 141.176079 
L 285.417931 141.176079 
L 288.496552 141.176079 
L 294.653793 141.176079 
L 297.732414 141.176079 
L 310.046897 141.176079 
L 313.125517 141.176079 
L 316.204138 141.176079 
L 319.282759 141.176079 
L 322.361379 141.176079 
L 334.675862 141.176079 
L 346.990345 141.176079 
L 414.72 141.176079 
L 414.72 140.928 
L 414.72 138.24 
L 414.72 135.951138 
L 346.990345 135.951138 
L 334.675862 135.951138 
L 322.361379 135.951138 
L 319.282759 135.951138 
L 316.204138 135.951138 
L 313.125517 135.951138 
L 310.046897 135.951138 
L 297.732414 135.951138 
L 294.653793 135.951138 
L 288.496552 135.951138 
L 285.417931 135.951138 
L 282.33931 135.951138 
L 279.26069 135.951138 
L 276.182069 135.951138 
L 273.103448 135.951138 
L 270.024828 135.951138 
L 266.946207 135.951138 
L 263.867586 135.951138 
L 260.788966 135.951138 
L 257.710345 135.951138 
L 254.631724 135.951138 
L 251.553103 135.951138 
L 248.474483 135.951138 
L 245.395862 135.951138 
L 242.317241 135.951138 
L 239.238621 135.951138 
L 236.16 135.951138 
L 233.081379 135.951138 
L 230.002759 135.951138 
L 226.924138 135.951138 
L 223.845517 135.951138 
L 220.766897 135.951138 
L 217.688276 135.951138 
L 214.609655 135.951138 
L 211.531034 135.951138 
L 208.452414 135.951138 
L 202.295172 135.951138 
L 199.216552 135.951138 
L 193.05931 135.951138 
L 189.98069 135.951138 
L 186.902069 135.951138 
L 183.823448 135.951138 
L 177.666207 135.951138 
L 174.587586 135.951138 
L 171.508966 135.951138 
L 168.430345 135.951138 
L 165.351724 135.951138 
L 162.273103 135.951138 
L 159.194483 135.951138 
L 156.115862 135.951138 
L 149.958621 135.951138 
L 146.88 135.951138 
L 143.801379 135.951138 
L 140.722759 135.951138 
L 137.644138 135.951138 
L 134.565517 135.951138 
L 131.486897 135.951138 
L 128.408276 135.951138 
L 125.329655 135.951138 
L 122.251034 135.951138 
L 119.172414 135.951138 
L 116.093793 135.951138 
L 106.857931 135.951138 
L 103.77931 135.951138 
L 100.70069 135.951138 
L 97.622069 135.951138 
L 94.543448 135.951138 
L 91.464828 135.951138 
L 79.150345 135.951138 
L 57.6 135.951138 
L 57.6 138.24 
L 57.6 140.928 
L 57.6 141.175894 
z
" clip-path="url(#p54cec41545)" style="fill: #2db27d; fill-opacity: 0.75"/>
   </g>
   <g id="PathCollection_6">
    <path d="M 79.150345 135.951138 
L 91.464828 135.951138 
L 94.543448 135.951138 
L 97.622069 135.951138 
L 100.70069 135.951138 
L 103.77931 135.951138 
L 106.857931 135.951138 
L 116.093793 135.951138 
L 119.172414 135.951138 
L 122.251034 135.951138 
L 125.329655 135.951138 
L 128.408276 135.951138 
L 131.486897 135.951138 
L 134.565517 135.951138 
L 137.644138 135.951138 
L 140.722759 135.951138 
L 143.801379 135.951138 
L 146.88 135.951138 
L 149.958621 135.951138 
L 156.115862 135.951138 
L 159.194483 135.951138 
L 162.273103 135.951138 
L 165.351724 135.951138 
L 168.430345 135.951138 
L 171.508966 135.951138 
L 174.587586 135.951138 
L 177.666207 135.951138 
L 183.823448 135.951138 
L 186.902069 135.951138 
L 189.98069 135.951138 
L 193.05931 135.951138 
L 199.216552 135.951138 
L 202.295172 135.951138 
L 208.452414 135.951138 
L 211.531034 135.951138 
L 214.609655 135.951138 
L 217.688276 135.951138 
L 220.766897 135.951138 
L 223.845517 135.951138 
L 226.924138 135.951138 
L 230.002759 135.951138 
L 233.081379 135.951138 
L 236.16 135.951138 
L 239.238621 135.951138 
L 242.317241 135.951138 
L 245.395862 135.951138 
L 248.474483 135.951138 
L 251.553103 135.951138 
L 254.631724 135.951138 
L 257.710345 135.951138 
L 260.788966 135.951138 
L 263.867586 135.951138 
L 266.946207 135.951138 
L 270.024828 135.951138 
L 273.103448 135.951138 
L 276.182069 135.951138 
L 279.26069 135.951138 
L 282.33931 135.951138 
L 285.417931 135.951138 
L 288.496552 135.951138 
L 294.653793 135.951138 
L 297.732414 135.951138 
L 310.046897 135.951138 
L 313.125517 135.951138 
L 316.204138 135.951138 
L 319.282759 135.951138 
L 322.361379 135.951138 
L 334.675862 135.951138 
L 346.990345 135.951138 
L 414.72 135.951138 
L 414.72 135.552 
L 414.72 132.864 
L 414.72 130.176 
L 414.72 127.488 
L 414.72 124.8 
L 414.72 122.112 
L 414.72 119.424 
L 414.72 116.736 
L 414.72 114.048 
L 414.72 111.36 
L 414.72 108.672 
L 414.72 105.984 
L 414.72 103.296 
L 414.72 100.608 
L 414.72 97.92 
L 414.72 95.232 
L 414.72 92.544 
L 414.72 89.856 
L 414.72 87.168 
L 414.72 85.45284 
L 346.990345 85.45284 
L 334.675862 85.45284 
L 322.361379 85.45284 
L 319.282759 85.45284 
L 316.204138 85.45284 
L 313.125517 85.45284 
L 310.046897 85.45284 
L 297.732414 85.45284 
L 294.653793 85.45284 
L 288.496552 85.45284 
L 285.417931 85.45284 
L 282.33931 85.45284 
L 279.26069 85.45284 
L 276.182069 85.45284 
L 273.103448 85.45284 
L 270.024828 85.45284 
L 266.946207 85.45284 
L 263.867586 85.45284 
L 260.788966 85.45284 
L 257.710345 85.45284 
L 254.631724 85.45284 
L 251.553103 85.45284 
L 248.474483 85.45284 
L 245.395862 85.45284 
L 242.317241 85.45284 
L 239.238621 85.45284 
L 236.16 85.45284 
L 233.081379 85.45284 
L 230.002759 85.45284 
L 226.924138 85.45284 
L 223.845517 85.45284 
L 220.766897 85.45284 
L 217.688276 85.45284 
L 214.609655 85.45284 
L 211.531034 85.45284 
L 208.452414 85.45284 
L 202.295172 85.45284 
L 199.216552 85.45284 
L 193.05931 85.45284 
L 189.98069 85.45284 
L 186.902069 85.45284 
L 183.823448 85.45284 
L 177.666207 85.45284 
L 174.587586 85.45284 
L 171.508966 85.45284 
L 168.430345 85.45284 
L 165.351724 85.45284 
L 162.273103 85.45284 
L 159.194483 85.45284 
L 156.115862 85.45284 
L 149.958621 85.45284 
L 146.88 85.45284 
L 143.801379 85.45284 
L 140.722759 85.45284 
L 137.644138 85.45284 
L 134.565517 85.45284 
L 131.486897 85.45284 
L 128.408276 85.45284 
L 125.329655 85.45284 
L 122.251034 85.45284 
L 119.172414 85.45284 
L 116.093793 85.45284 
L 106.857931 85.45284 
L 103.77931 85.45284 
L 100.70069 85.45284 
L 97.622069 85.45284 
L 94.543448 85.45284 
L 91.464828 85.45284 
L 79.150345 85.45284 
L 57.6 85.45284 
L 57.6 87.168 
L 57.6 89.856 
L 57.6 92.544 
L 57.6 95.232 
L 57.6 97.92 
L 57.6 100.608 
L 57.6 103.296 
L 57.6 105.984 
L 57.6 108.672 
L 57.6 111.36 
L 57.6 114.048 
L 57.6 116.736 
L 57.6 119.424 
L 57.6 122.112 
L 57.6 124.8 
L 57.6 127.488 
L 57.6 130.176 
L 57.6 132.864 
L 57.6 135.552 
L 57.6 135.951138 
z
" clip-path="url(#p54cec41545)" style="fill: #73d056; fill-opacity: 0.75"/>
   </g>
   <g id="PathCollection_7">
    <path d="M 79.150345 85.45284 
L 91.464828 85.45284 
L 94.543448 85.45284 
L 97.622069 85.45284 
L 100.70069 85.45284 
L 103.77931 85.45284 
L 106.857931 85.45284 
L 116.093793 85.45284 
L 119.172414 85.45284 
L 122.251034 85.45284 
L 125.329655 85.45284 
L 128.408276 85.45284 
L 131.486897 85.45284 
L 134.565517 85.45284 
L 137.644138 85.45284 
L 140.722759 85.45284 
L 143.801379 85.45284 
L 146.88 85.45284 
L 149.958621 85.45284 
L 156.115862 85.45284 
L 159.194483 85.45284 
L 162.273103 85.45284 
L 165.351724 85.45284 
L 168.430345 85.45284 
L 171.508966 85.45284 
L 174.587586 85.45284 
L 177.666207 85.45284 
L 183.823448 85.45284 
L 186.902069 85.45284 
L 189.98069 85.45284 
L 193.05931 85.45284 
L 199.216552 85.45284 
L 202.295172 85.45284 
L 208.452414 85.45284 
L 211.531034 85.45284 
L 214.609655 85.45284 
L 217.688276 85.45284 
L 220.766897 85.45284 
L 223.845517 85.45284 
L 226.924138 85.45284 
L 230.002759 85.45284 
L 233.081379 85.45284 
L 236.16 85.45284 
L 239.238621 85.45284 
L 242.317241 85.45284 
L 245.395862 85.45284 
L 248.474483 85.45284 
L 251.553103 85.45284 
L 254.631724 85.45284 
L 257.710345 85.45284 
L 260.788966 85.45284 
L 263.867586 85.45284 
L 266.946207 85.45284 
L 270.024828 85.45284 
L 273.103448 85.45284 
L 276.182069 85.45284 
L 279.26069 85.45284 
L 282.33931 85.45284 
L 285.417931 85.45284 
L 288.496552 85.45284 
L 294.653793 85.45284 
L 297.732414 85.45284 
L 310.046897 85.45284 
L 313.125517 85.45284 
L 316.204138 85.45284 
L 319.282759 85.45284 
L 322.361379 85.45284 
L 334.675862 85.45284 
L 346.990345 85.45284 
L 414.72 85.45284 
L 414.72 84.48 
L 414.72 81.792 
L 414.72 79.104 
L 414.72 76.416 
L 414.72 73.728 
L 414.72 71.04 
L 414.72 68.352 
L 414.72 65.664 
L 414.72 62.976 
L 414.72 60.288 
L 414.72 57.6 
L 414.72 54.912 
L 414.72 52.224 
L 414.72 49.536 
L 414.72 46.848 
L 414.72 44.16 
L 414.72 41.472 
L 346.990345 41.472 
L 334.675862 41.472 
L 322.361379 41.472 
L 319.282759 41.472 
L 316.204138 41.472 
L 313.125517 41.472 
L 310.046897 41.472 
L 297.732414 41.472 
L 294.653793 41.472 
L 288.496552 41.472 
L 285.417931 41.472 
L 282.33931 41.472 
L 279.26069 41.472 
L 276.182069 41.472 
L 273.103448 41.472 
L 270.024828 41.472 
L 266.946207 41.472 
L 263.867586 41.472 
L 260.788966 41.472 
L 257.710345 41.472 
L 254.631724 41.472 
L 251.553103 41.472 
L 248.474483 41.472 
L 245.395862 41.472 
L 242.317241 41.472 
L 239.238621 41.472 
L 236.16 41.472 
L 233.081379 41.472 
L 230.002759 41.472 
L 226.924138 41.472 
L 223.845517 41.472 
L 220.766897 41.472 
L 217.688276 41.472 
L 214.609655 41.472 
L 211.531034 41.472 
L 208.452414 41.472 
L 202.295172 41.472 
L 199.216552 41.472 
L 193.05931 41.472 
L 189.98069 41.472 
L 186.902069 41.472 
L 183.823448 41.472 
L 177.666207 41.472 
L 174.587586 41.472 
L 171.508966 41.472 
L 168.430345 41.472 
L 165.351724 41.472 
L 162.273103 41.472 
L 159.194483 41.472 
L 156.115862 41.472 
L 149.958621 41.472 
L 146.88 41.472 
L 143.801379 41.472 
L 140.722759 41.472 
L 137.644138 41.472 
L 134.565517 41.472 
L 131.486897 41.472 
L 128.408276 41.472 
L 125.329655 41.472 
L 122.251034 41.472 
L 119.172414 41.472 
L 116.093793 41.472 
L 106.857931 41.472 
L 103.77931 41.472 
L 100.70069 41.472 
L 97.622069 41.472 
L 94.543448 41.472 
L 91.464828 41.472 
L 79.150345 41.472 
L 57.6 41.472 
L 57.6 44.16 
L 57.6 46.848 
L 57.6 49.536 
L 57.6 52.224 
L 57.6 54.912 
L 57.6 57.6 
L 57.6 60.288 
L 57.6 62.976 
L 57.6 65.664 
L 57.6 68.352 
L 57.6 71.04 
L 57.6 73.728 
L 57.6 76.416 
L 57.6 79.104 
L 57.6 81.792 
L 57.6 84.48 
L 57.6 85.45284 
z
" clip-path="url(#p54cec41545)" style="fill: #d0e11c; fill-opacity: 0.75"/>
   </g>
   <g id="matplotlib.axis_1">
    <g id="xtick_1">
     <g id="line2d_1">
      <defs>
       <path id="ma045ea9535" d="M 0 0 
L 0 3.5 
" style="stroke: #000000; stroke-width: 0.8"/>
      </defs>
      <g>
       <use xlink:href="#ma045ea9535" x="76.898447" y="307.584" style="stroke: #000000; stroke-width: 0.8"/>
      </g>
     </g>
     <g id="text_1">
      <!-- −2 -->
      <g transform="translate(69.527354 322.182437) scale(0.1 -0.1)">
       <defs>
        <path id="DejaVuSans-2212" d="M 678 2272 
L 4684 2272 
L 4684 1741 
L 678 1741 
L 678 2272 
z
" transform="scale(0.015625)"/>
        <path id="DejaVuSans-32" d="M 1228 531 
L 3431 531 
L 3431 0 
L 469 0 
L 469 531 
Q 828 903 1448 1529 
Q 2069 2156 2228 2338 
Q 2531 2678 2651 2914 
Q 2772 3150 2772 3378 
Q 2772 3750 2511 3984 
Q 2250 4219 1831 4219 
Q 1534 4219 1204 4116 
Q 875 4013 500 3803 
L 500 4441 
Q 881 4594 1212 4672 
Q 1544 4750 1819 4750 
Q 2544 4750 2975 4387 
Q 3406 4025 3406 3419 
Q 3406 3131 3298 2873 
Q 3191 2616 2906 2266 
Q 2828 2175 2409 1742 
Q 1991 1309 1228 531 
z
" transform="scale(0.015625)"/>
       </defs>
       <use xlink:href="#DejaVuSans-2212"/>
       <use xlink:href="#DejaVuSans-32" x="83.789062"/>
      </g>
     </g>
    </g>
    <g id="xtick_2">
     <g id="line2d_2">
      <g>
       <use xlink:href="#ma045ea9535" x="142.109362" y="307.584" style="stroke: #000000; stroke-width: 0.8"/>
      </g>
     </g>
     <g id="text_2">
      <!-- −1 -->
      <g transform="translate(134.738268 322.182437) scale(0.1 -0.1)">
       <defs>
        <path id="DejaVuSans-31" d="M 794 531 
L 1825 531 
L 1825 4091 
L 703 3866 
L 703 4441 
L 1819 4666 
L 2450 4666 
L 2450 531 
L 3481 531 
L 3481 0 
L 794 0 
L 794 531 
z
" transform="scale(0.015625)"/>
       </defs>
       <use xlink:href="#DejaVuSans-2212"/>
       <use xlink:href="#DejaVuSans-31" x="83.789062"/>
      </g>
     </g>
    </g>
    <g id="xtick_3">
     <g id="line2d_3">
      <g>
       <use xlink:href="#ma045ea9535" x="207.320276" y="307.584" style="stroke: #000000; stroke-width: 0.8"/>
      </g>
     </g>
     <g id="text_3">
      <!-- 0 -->
      <g transform="translate(204.139026 322.182437) scale(0.1 -0.1)">
       <defs>
        <path id="DejaVuSans-30" d="M 2034 4250 
Q 1547 4250 1301 3770 
Q 1056 3291 1056 2328 
Q 1056 1369 1301 889 
Q 1547 409 2034 409 
Q 2525 409 2770 889 
Q 3016 1369 3016 2328 
Q 3016 3291 2770 3770 
Q 2525 4250 2034 4250 
z
M 2034 4750 
Q 2819 4750 3233 4129 
Q 3647 3509 3647 2328 
Q 3647 1150 3233 529 
Q 2819 -91 2034 -91 
Q 1250 -91 836 529 
Q 422 1150 422 2328 
Q 422 3509 836 4129 
Q 1250 4750 2034 4750 
z
" transform="scale(0.015625)"/>
       </defs>
       <use xlink:href="#DejaVuSans-30"/>
      </g>
     </g>
    </g>
    <g id="xtick_4">
     <g id="line2d_4">
      <g>
       <use xlink:href="#ma045ea9535" x="272.53119" y="307.584" style="stroke: #000000; stroke-width: 0.8"/>
      </g>
     </g>
     <g id="text_4">
      <!-- 1 -->
      <g transform="translate(269.34994 322.182437) scale(0.1 -0.1)">
       <use xlink:href="#DejaVuSans-31"/>
      </g>
     </g>
    </g>
    <g id="xtick_5">
     <g id="line2d_5">
      <g>
       <use xlink:href="#ma045ea9535" x="337.742104" y="307.584" style="stroke: #000000; stroke-width: 0.8"/>
      </g>
     </g>
     <g id="text_5">
      <!-- 2 -->
      <g transform="translate(334.560854 322.182437) scale(0.1 -0.1)">
       <use xlink:href="#DejaVuSans-32"/>
      </g>
     </g>
    </g>
    <g id="xtick_6">
     <g id="line2d_6">
      <g>
       <use xlink:href="#ma045ea9535" x="402.953019" y="307.584" style="stroke: #000000; stroke-width: 0.8"/>
      </g>
     </g>
     <g id="text_6">
      <!-- 3 -->
      <g transform="translate(399.771769 322.182437) scale(0.1 -0.1)">
       <defs>
        <path id="DejaVuSans-33" d="M 2597 2516 
Q 3050 2419 3304 2112 
Q 3559 1806 3559 1356 
Q 3559 666 3084 287 
Q 2609 -91 1734 -91 
Q 1441 -91 1130 -33 
Q 819 25 488 141 
L 488 750 
Q 750 597 1062 519 
Q 1375 441 1716 441 
Q 2309 441 2620 675 
Q 2931 909 2931 1356 
Q 2931 1769 2642 2001 
Q 2353 2234 1838 2234 
L 1294 2234 
L 1294 2753 
L 1863 2753 
Q 2328 2753 2575 2939 
Q 2822 3125 2822 3475 
Q 2822 3834 2567 4026 
Q 2313 4219 1838 4219 
Q 1578 4219 1281 4162 
Q 984 4106 628 3988 
L 628 4550 
Q 988 4650 1302 4700 
Q 1616 4750 1894 4750 
Q 2613 4750 3031 4423 
Q 3450 4097 3450 3541 
Q 3450 3153 3228 2886 
Q 3006 2619 2597 2516 
z
" transform="scale(0.015625)"/>
       </defs>
       <use xlink:href="#DejaVuSans-33"/>
      </g>
     </g>
    </g>
    <g id="text_7">
     <!-- Mean BMI -->
     <g transform="translate(211.727969 335.860562) scale(0.1 -0.1)">
      <defs>
       <path id="DejaVuSans-4d" d="M 628 4666 
L 1569 4666 
L 2759 1491 
L 3956 4666 
L 4897 4666 
L 4897 0 
L 4281 0 
L 4281 4097 
L 3078 897 
L 2444 897 
L 1241 4097 
L 1241 0 
L 628 0 
L 628 4666 
z
" transform="scale(0.015625)"/>
       <path id="DejaVuSans-65" d="M 3597 1894 
L 3597 1613 
L 953 1613 
Q 991 1019 1311 708 
Q 1631 397 2203 397 
Q 2534 397 2845 478 
Q 3156 559 3463 722 
L 3463 178 
Q 3153 47 2828 -22 
Q 2503 -91 2169 -91 
Q 1331 -91 842 396 
Q 353 884 353 1716 
Q 353 2575 817 3079 
Q 1281 3584 2069 3584 
Q 2775 3584 3186 3129 
Q 3597 2675 3597 1894 
z
M 3022 2063 
Q 3016 2534 2758 2815 
Q 2500 3097 2075 3097 
Q 1594 3097 1305 2825 
Q 1016 2553 972 2059 
L 3022 2063 
z
" transform="scale(0.015625)"/>
       <path id="DejaVuSans-61" d="M 2194 1759 
Q 1497 1759 1228 1600 
Q 959 1441 959 1056 
Q 959 750 1161 570 
Q 1363 391 1709 391 
Q 2188 391 2477 730 
Q 2766 1069 2766 1631 
L 2766 1759 
L 2194 1759 
z
M 3341 1997 
L 3341 0 
L 2766 0 
L 2766 531 
Q 2569 213 2275 61 
Q 1981 -91 1556 -91 
Q 1019 -91 701 211 
Q 384 513 384 1019 
Q 384 1609 779 1909 
Q 1175 2209 1959 2209 
L 2766 2209 
L 2766 2266 
Q 2766 2663 2505 2880 
Q 2244 3097 1772 3097 
Q 1472 3097 1187 3025 
Q 903 2953 641 2809 
L 641 3341 
Q 956 3463 1253 3523 
Q 1550 3584 1831 3584 
Q 2591 3584 2966 3190 
Q 3341 2797 3341 1997 
z
" transform="scale(0.015625)"/>
       <path id="DejaVuSans-6e" d="M 3513 2113 
L 3513 0 
L 2938 0 
L 2938 2094 
Q 2938 2591 2744 2837 
Q 2550 3084 2163 3084 
Q 1697 3084 1428 2787 
Q 1159 2491 1159 1978 
L 1159 0 
L 581 0 
L 581 3500 
L 1159 3500 
L 1159 2956 
Q 1366 3272 1645 3428 
Q 1925 3584 2291 3584 
Q 2894 3584 3203 3211 
Q 3513 2838 3513 2113 
z
" transform="scale(0.015625)"/>
       <path id="DejaVuSans-20" transform="scale(0.015625)"/>
       <path id="DejaVuSans-42" d="M 1259 2228 
L 1259 519 
L 2272 519 
Q 2781 519 3026 730 
Q 3272 941 3272 1375 
Q 3272 1813 3026 2020 
Q 2781 2228 2272 2228 
L 1259 2228 
z
M 1259 4147 
L 1259 2741 
L 2194 2741 
Q 2656 2741 2882 2914 
Q 3109 3088 3109 3444 
Q 3109 3797 2882 3972 
Q 2656 4147 2194 4147 
L 1259 4147 
z
M 628 4666 
L 2241 4666 
Q 2963 4666 3353 4366 
Q 3744 4066 3744 3513 
Q 3744 3084 3544 2831 
Q 3344 2578 2956 2516 
Q 3422 2416 3680 2098 
Q 3938 1781 3938 1306 
Q 3938 681 3513 340 
Q 3088 0 2303 0 
L 628 0 
L 628 4666 
z
" transform="scale(0.015625)"/>
       <path id="DejaVuSans-49" d="M 628 4666 
L 1259 4666 
L 1259 0 
L 628 0 
L 628 4666 
z
" transform="scale(0.015625)"/>
      </defs>
      <use xlink:href="#DejaVuSans-4d"/>
      <use xlink:href="#DejaVuSans-65" x="86.279297"/>
      <use xlink:href="#DejaVuSans-61" x="147.802734"/>
      <use xlink:href="#DejaVuSans-6e" x="209.082031"/>
      <use xlink:href="#DejaVuSans-20" x="272.460938"/>
      <use xlink:href="#DejaVuSans-42" x="304.248047"/>
      <use xlink:href="#DejaVuSans-4d" x="372.851562"/>
      <use xlink:href="#DejaVuSans-49" x="459.130859"/>
     </g>
    </g>
   </g>
   <g id="matplotlib.axis_2">
    <g id="ytick_1">
     <g id="line2d_7">
      <defs>
       <path id="m43264cd578" d="M 0 0 
L -3.5 0 
" style="stroke: #000000; stroke-width: 0.8"/>
      </defs>
      <g>
       <use xlink:href="#m43264cd578" x="57.6" y="277.619222" style="stroke: #000000; stroke-width: 0.8"/>
      </g>
     </g>
     <g id="text_8">
      <!-- −1.0 -->
      <g transform="translate(26.317187 281.418441) scale(0.1 -0.1)">
       <defs>
        <path id="DejaVuSans-2e" d="M 684 794 
L 1344 794 
L 1344 0 
L 684 0 
L 684 794 
z
" transform="scale(0.015625)"/>
       </defs>
       <use xlink:href="#DejaVuSans-2212"/>
       <use xlink:href="#DejaVuSans-31" x="83.789062"/>
       <use xlink:href="#DejaVuSans-2e" x="147.412109"/>
       <use xlink:href="#DejaVuSans-30" x="179.199219"/>
      </g>
     </g>
    </g>
    <g id="ytick_2">
     <g id="line2d_8">
      <g>
       <use xlink:href="#m43264cd578" x="57.6" y="231.835904" style="stroke: #000000; stroke-width: 0.8"/>
      </g>
     </g>
     <g id="text_9">
      <!-- −0.5 -->
      <g transform="translate(26.317187 235.635122) scale(0.1 -0.1)">
       <defs>
        <path id="DejaVuSans-35" d="M 691 4666 
L 3169 4666 
L 3169 4134 
L 1269 4134 
L 1269 2991 
Q 1406 3038 1543 3061 
Q 1681 3084 1819 3084 
Q 2600 3084 3056 2656 
Q 3513 2228 3513 1497 
Q 3513 744 3044 326 
Q 2575 -91 1722 -91 
Q 1428 -91 1123 -41 
Q 819 9 494 109 
L 494 744 
Q 775 591 1075 516 
Q 1375 441 1709 441 
Q 2250 441 2565 725 
Q 2881 1009 2881 1497 
Q 2881 1984 2565 2268 
Q 2250 2553 1709 2553 
Q 1456 2553 1204 2497 
Q 953 2441 691 2322 
L 691 4666 
z
" transform="scale(0.015625)"/>
       </defs>
       <use xlink:href="#DejaVuSans-2212"/>
       <use xlink:href="#DejaVuSans-30" x="83.789062"/>
       <use xlink:href="#DejaVuSans-2e" x="147.412109"/>
       <use xlink:href="#DejaVuSans-35" x="179.199219"/>
      </g>
     </g>
    </g>
    <g id="ytick_3">
     <g id="line2d_9">
      <g>
       <use xlink:href="#m43264cd578" x="57.6" y="186.052585" style="stroke: #000000; stroke-width: 0.8"/>
      </g>
     </g>
     <g id="text_10">
      <!-- 0.0 -->
      <g transform="translate(34.696875 189.851804) scale(0.1 -0.1)">
       <use xlink:href="#DejaVuSans-30"/>
       <use xlink:href="#DejaVuSans-2e" x="63.623047"/>
       <use xlink:href="#DejaVuSans-30" x="95.410156"/>
      </g>
     </g>
    </g>
    <g id="ytick_4">
     <g id="line2d_10">
      <g>
       <use xlink:href="#m43264cd578" x="57.6" y="140.269267" style="stroke: #000000; stroke-width: 0.8"/>
      </g>
     </g>
     <g id="text_11">
      <!-- 0.5 -->
      <g transform="translate(34.696875 144.068486) scale(0.1 -0.1)">
       <use xlink:href="#DejaVuSans-30"/>
       <use xlink:href="#DejaVuSans-2e" x="63.623047"/>
       <use xlink:href="#DejaVuSans-35" x="95.410156"/>
      </g>
     </g>
    </g>
    <g id="ytick_5">
     <g id="line2d_11">
      <g>
       <use xlink:href="#m43264cd578" x="57.6" y="94.485949" style="stroke: #000000; stroke-width: 0.8"/>
      </g>
     </g>
     <g id="text_12">
      <!-- 1.0 -->
      <g transform="translate(34.696875 98.285167) scale(0.1 -0.1)">
       <use xlink:href="#DejaVuSans-31"/>
       <use xlink:href="#DejaVuSans-2e" x="63.623047"/>
       <use xlink:href="#DejaVuSans-30" x="95.410156"/>
      </g>
     </g>
    </g>
    <g id="ytick_6">
     <g id="line2d_12">
      <g>
       <use xlink:href="#m43264cd578" x="57.6" y="48.70263" style="stroke: #000000; stroke-width: 0.8"/>
      </g>
     </g>
     <g id="text_13">
      <!-- 1.5 -->
      <g transform="translate(34.696875 52.501849) scale(0.1 -0.1)">
       <use xlink:href="#DejaVuSans-31"/>
       <use xlink:href="#DejaVuSans-2e" x="63.623047"/>
       <use xlink:href="#DejaVuSans-35" x="95.410156"/>
      </g>
     </g>
    </g>
    <g id="text_14">
     <!-- Median Age -->
     <g transform="translate(20.2375 203.974875) rotate(-90) scale(0.1 -0.1)">
      <defs>
       <path id="DejaVuSans-64" d="M 2906 2969 
L 2906 4863 
L 3481 4863 
L 3481 0 
L 2906 0 
L 2906 525 
Q 2725 213 2448 61 
Q 2172 -91 1784 -91 
Q 1150 -91 751 415 
Q 353 922 353 1747 
Q 353 2572 751 3078 
Q 1150 3584 1784 3584 
Q 2172 3584 2448 3432 
Q 2725 3281 2906 2969 
z
M 947 1747 
Q 947 1113 1208 752 
Q 1469 391 1925 391 
Q 2381 391 2643 752 
Q 2906 1113 2906 1747 
Q 2906 2381 2643 2742 
Q 2381 3103 1925 3103 
Q 1469 3103 1208 2742 
Q 947 2381 947 1747 
z
" transform="scale(0.015625)"/>
       <path id="DejaVuSans-69" d="M 603 3500 
L 1178 3500 
L 1178 0 
L 603 0 
L 603 3500 
z
M 603 4863 
L 1178 4863 
L 1178 4134 
L 603 4134 
L 603 4863 
z
" transform="scale(0.015625)"/>
       <path id="DejaVuSans-41" d="M 2188 4044 
L 1331 1722 
L 3047 1722 
L 2188 4044 
z
M 1831 4666 
L 2547 4666 
L 4325 0 
L 3669 0 
L 3244 1197 
L 1141 1197 
L 716 0 
L 50 0 
L 1831 4666 
z
" transform="scale(0.015625)"/>
       <path id="DejaVuSans-67" d="M 2906 1791 
Q 2906 2416 2648 2759 
Q 2391 3103 1925 3103 
Q 1463 3103 1205 2759 
Q 947 2416 947 1791 
Q 947 1169 1205 825 
Q 1463 481 1925 481 
Q 2391 481 2648 825 
Q 2906 1169 2906 1791 
z
M 3481 434 
Q 3481 -459 3084 -895 
Q 2688 -1331 1869 -1331 
Q 1566 -1331 1297 -1286 
Q 1028 -1241 775 -1147 
L 775 -588 
Q 1028 -725 1275 -790 
Q 1522 -856 1778 -856 
Q 2344 -856 2625 -561 
Q 2906 -266 2906 331 
L 2906 616 
Q 2728 306 2450 153 
Q 2172 0 1784 0 
Q 1141 0 747 490 
Q 353 981 353 1791 
Q 353 2603 747 3093 
Q 1141 3584 1784 3584 
Q 2172 3584 2450 3431 
Q 2728 3278 2906 2969 
L 2906 3500 
L 3481 3500 
L 3481 434 
z
" transform="scale(0.015625)"/>
      </defs>
      <use xlink:href="#DejaVuSans-4d"/>
      <use xlink:href="#DejaVuSans-65" x="86.279297"/>
      <use xlink:href="#DejaVuSans-64" x="147.802734"/>
      <use xlink:href="#DejaVuSans-69" x="211.279297"/>
      <use xlink:href="#DejaVuSans-61" x="239.0625"/>
      <use xlink:href="#DejaVuSans-6e" x="300.341797"/>
      <use xlink:href="#DejaVuSans-20" x="363.720703"/>
      <use xlink:href="#DejaVuSans-41" x="395.507812"/>
      <use xlink:href="#DejaVuSans-67" x="463.916016"/>
      <use xlink:href="#DejaVuSans-65" x="527.392578"/>
     </g>
    </g>
   </g>
   <g id="PathCollection_8"/>
   <g id="PathCollection_9">
    <path d="M 57.6 185.981869 
L 79.150345 185.981869 
L 91.464828 185.981869 
L 94.543448 185.981869 
L 97.622069 185.981869 
L 100.70069 185.981869 
L 103.77931 185.981869 
L 106.857931 185.981869 
L 116.093793 185.981869 
L 119.172414 185.981869 
L 122.251034 185.981869 
L 125.329655 185.981869 
L 128.408276 185.981869 
L 131.486897 185.981869 
L 134.565517 185.981869 
L 137.644138 185.981869 
L 140.722759 185.981869 
L 143.801379 185.981869 
L 146.88 185.981869 
L 149.958621 185.981869 
L 156.115862 185.981869 
L 159.194483 185.981869 
L 162.273103 185.981869 
L 165.351724 185.981869 
L 168.430345 185.981869 
L 171.508966 185.981869 
L 174.587586 185.981869 
L 177.666207 185.981869 
L 183.823448 185.981869 
L 186.902069 185.981869 
L 189.98069 185.981869 
L 193.05931 185.981869 
L 199.216552 186.028819 
L 202.295172 186.028819 
L 208.452414 186.028819 
L 211.531034 186.028819 
L 214.609655 186.028819 
L 217.688276 186.028819 
L 220.766897 186.028819 
L 223.845517 186.028819 
L 226.924138 186.028819 
L 230.002759 186.028819 
L 233.081379 186.028819 
L 236.16 186.028819 
L 239.238621 186.028819 
L 242.317241 186.028819 
L 245.395862 186.028819 
L 247.352586 186.028819 
" clip-path="url(#p54cec41545)" style="fill: none; stroke-dasharray: 1.85,0.8; stroke-dashoffset: 0; stroke: #000000; stroke-width: 0.5"/>
    <path d="M 280.382586 186.028819 
L 282.33931 186.028819 
L 285.417931 186.028819 
L 288.496552 186.028819 
L 294.653793 186.028819 
L 297.732414 186.028819 
L 310.046897 186.028819 
L 313.125517 186.028819 
L 316.204138 186.028819 
L 319.282759 186.028819 
L 322.361379 186.028819 
L 334.675862 186.028819 
L 346.990345 186.028819 
L 414.72 186.028819 
" clip-path="url(#p54cec41545)" style="fill: none; stroke-dasharray: 1.85,0.8; stroke-dashoffset: 0; stroke: #000000; stroke-width: 0.5"/>
   </g>
   <g id="PathCollection_10">
    <path d="M 57.6 143.082485 
L 79.150345 143.082485 
L 91.464828 143.082485 
L 94.543448 143.082485 
L 97.622069 143.082485 
L 100.70069 143.082485 
L 103.77931 143.082485 
L 106.857931 143.082485 
L 116.093793 143.082485 
L 119.172414 143.082485 
L 122.251034 143.082485 
L 125.329655 143.082485 
L 128.408276 143.082485 
L 131.486897 143.082485 
L 134.565517 143.082485 
L 137.644138 143.082485 
L 140.722759 143.082485 
L 143.801379 143.082485 
L 146.88 143.082485 
L 149.958621 143.082485 
L 156.115862 143.082485 
L 159.194483 143.082485 
L 162.273103 143.082485 
L 165.351724 143.082485 
L 168.430345 143.082485 
L 171.508966 143.082485 
L 174.587586 143.082485 
L 177.666207 143.082485 
L 183.823448 143.082485 
L 186.902069 143.082485 
L 189.98069 143.082485 
L 193.05931 143.082485 
L 199.216552 143.084098 
L 202.295172 143.084098 
L 208.452414 143.084098 
L 211.531034 143.084098 
L 214.609655 143.084098 
L 217.688276 143.084098 
L 220.766897 143.084098 
L 223.845517 143.084098 
L 226.924138 143.084098 
L 230.002759 143.084098 
L 233.081379 143.084098 
L 236.16 143.084098 
L 239.238621 143.084098 
L 242.317241 143.084098 
L 245.395862 143.084098 
L 247.352586 143.084098 
" clip-path="url(#p54cec41545)" style="fill: none; stroke-dasharray: 1.85,0.8; stroke-dashoffset: 0; stroke: #000000; stroke-width: 0.5"/>
    <path d="M 280.382586 143.084098 
L 282.33931 143.084098 
L 285.417931 143.084098 
L 288.496552 143.084098 
L 294.653793 143.084098 
L 297.732414 143.084098 
L 310.046897 143.084098 
L 313.125517 143.084098 
L 316.204138 143.084098 
L 319.282759 143.084098 
L 322.361379 143.084098 
L 334.675862 143.084098 
L 346.990345 143.084098 
L 414.72 143.084098 
" clip-path="url(#p54cec41545)" style="fill: none; stroke-dasharray: 1.85,0.8; stroke-dashoffset: 0; stroke: #000000; stroke-width: 0.5"/>
   </g>
   <g id="PathCollection_11">
    <path d="M 57.6 142.129189 
L 79.150345 142.129189 
L 91.464828 142.129189 
L 94.543448 142.129189 
L 97.622069 142.129189 
L 100.70069 142.129189 
L 103.77931 142.129189 
L 106.857931 142.129189 
L 116.093793 142.129189 
L 119.172414 142.129189 
L 122.251034 142.129189 
L 122.884138 142.129189 
" clip-path="url(#p54cec41545)" style="fill: none; stroke: #000000; stroke-width: 0.5"/>
    <path d="M 152.404138 142.129189 
L 156.115862 142.129189 
L 159.194483 142.129189 
L 162.273103 142.129189 
L 165.351724 142.129189 
L 168.430345 142.129189 
L 171.508966 142.129189 
L 174.587586 142.129189 
L 177.666207 142.129189 
L 183.823448 142.129189 
L 186.902069 142.129189 
L 189.98069 142.129189 
L 193.05931 142.129189 
L 199.216552 142.130088 
L 202.295172 142.130088 
L 208.452414 142.130088 
L 211.531034 142.130088 
L 214.609655 142.130088 
L 217.688276 142.130088 
L 220.766897 142.130088 
L 223.845517 142.130088 
L 226.924138 142.130088 
L 230.002759 142.130088 
L 233.081379 142.130088 
L 236.16 142.130088 
L 239.238621 142.130088 
L 242.317241 142.130088 
L 245.395862 142.130088 
L 248.474483 142.130088 
L 251.553103 142.130088 
L 254.631724 142.130088 
L 257.710345 142.130088 
L 260.788966 142.130088 
L 263.867586 142.130088 
L 266.946207 142.130088 
L 270.024828 142.130088 
L 273.103448 142.130088 
L 276.182069 142.130088 
L 279.26069 142.130088 
L 282.33931 142.130088 
L 285.417931 142.130088 
L 288.496552 142.130088 
L 294.653793 142.130088 
L 297.732414 142.130088 
L 310.046897 142.130088 
L 313.125517 142.130088 
L 316.204138 142.130088 
L 319.282759 142.130088 
L 322.361379 142.130088 
L 334.675862 142.130088 
L 346.990345 142.130088 
L 414.72 142.130088 
" clip-path="url(#p54cec41545)" style="fill: none; stroke: #000000; stroke-width: 0.5"/>
   </g>
   <g id="PathCollection_12">
    <path d="M 57.6 141.175894 
L 79.150345 141.175894 
L 89.01931 141.175894 
" clip-path="url(#p54cec41545)" style="fill: none; stroke: #000000; stroke-width: 0.5"/>
    <path d="M 118.53931 141.175894 
L 119.172414 141.175894 
L 122.251034 141.175894 
L 125.329655 141.175894 
L 128.408276 141.175894 
L 131.486897 141.175894 
L 134.565517 141.175894 
L 137.644138 141.175894 
L 140.722759 141.175894 
L 143.801379 141.175894 
L 146.88 141.175894 
L 149.958621 141.175894 
L 156.115862 141.175894 
L 159.194483 141.175894 
L 162.273103 141.175894 
L 165.351724 141.175894 
L 168.430345 141.175894 
L 171.508966 141.175894 
L 174.587586 141.175894 
L 177.666207 141.175894 
L 183.823448 141.175894 
L 186.902069 141.175894 
L 189.98069 141.175894 
L 193.05931 141.175894 
L 199.216552 141.176079 
L 202.295172 141.176079 
L 208.452414 141.176079 
L 211.531034 141.176079 
L 214.609655 141.176079 
L 217.688276 141.176079 
L 220.766897 141.176079 
L 223.845517 141.176079 
L 226.924138 141.176079 
L 230.002759 141.176079 
L 233.081379 141.176079 
L 236.16 141.176079 
L 239.238621 141.176079 
L 242.317241 141.176079 
L 245.395862 141.176079 
L 248.474483 141.176079 
L 251.553103 141.176079 
L 254.631724 141.176079 
L 257.710345 141.176079 
L 260.788966 141.176079 
L 263.867586 141.176079 
L 266.946207 141.176079 
L 270.024828 141.176079 
L 273.103448 141.176079 
L 276.182069 141.176079 
L 279.26069 141.176079 
L 282.33931 141.176079 
L 285.417931 141.176079 
L 288.496552 141.176079 
L 294.653793 141.176079 
L 297.732414 141.176079 
L 310.046897 141.176079 
L 313.125517 141.176079 
L 316.204138 141.176079 
L 319.282759 141.176079 
L 322.361379 141.176079 
L 334.675862 141.176079 
L 346.990345 141.176079 
L 414.72 141.176079 
" clip-path="url(#p54cec41545)" style="fill: none; stroke: #000000; stroke-width: 0.5"/>
   </g>
   <g id="PathCollection_13">
    <path d="M 57.6 135.951138 
L 79.150345 135.951138 
L 91.464828 135.951138 
L 94.543448 135.951138 
L 97.622069 135.951138 
L 100.70069 135.951138 
L 103.77931 135.951138 
L 106.857931 135.951138 
L 116.093793 135.951138 
L 119.172414 135.951138 
L 122.251034 135.951138 
L 122.884138 135.951138 
" clip-path="url(#p54cec41545)" style="fill: none; stroke: #000000; stroke-width: 0.5"/>
    <path d="M 152.404138 135.951138 
L 156.115862 135.951138 
L 159.194483 135.951138 
L 162.273103 135.951138 
L 165.351724 135.951138 
L 168.430345 135.951138 
L 171.508966 135.951138 
L 174.587586 135.951138 
L 177.666207 135.951138 
L 183.823448 135.951138 
L 186.902069 135.951138 
L 189.98069 135.951138 
L 193.05931 135.951138 
L 199.216552 135.951138 
L 202.295172 135.951138 
L 208.452414 135.951138 
L 211.531034 135.951138 
L 214.609655 135.951138 
L 217.688276 135.951138 
L 220.766897 135.951138 
L 223.845517 135.951138 
L 226.924138 135.951138 
L 230.002759 135.951138 
L 233.081379 135.951138 
L 236.16 135.951138 
L 239.238621 135.951138 
L 242.317241 135.951138 
L 245.395862 135.951138 
L 248.474483 135.951138 
L 251.553103 135.951138 
L 254.631724 135.951138 
L 257.710345 135.951138 
L 260.788966 135.951138 
L 263.867586 135.951138 
L 266.946207 135.951138 
L 270.024828 135.951138 
L 273.103448 135.951138 
L 276.182069 135.951138 
L 279.26069 135.951138 
L 282.33931 135.951138 
L 285.417931 135.951138 
L 288.496552 135.951138 
L 294.653793 135.951138 
L 297.732414 135.951138 
L 310.046897 135.951138 
L 313.125517 135.951138 
L 316.204138 135.951138 
L 319.282759 135.951138 
L 322.361379 135.951138 
L 334.675862 135.951138 
L 346.990345 135.951138 
L 414.72 135.951138 
" clip-path="url(#p54cec41545)" style="fill: none; stroke: #000000; stroke-width: 0.5"/>
   </g>
   <g id="PathCollection_14">
    <path d="M 57.6 85.45284 
L 79.150345 85.45284 
L 91.464828 85.45284 
L 94.543448 85.45284 
L 97.622069 85.45284 
L 100.70069 85.45284 
L 103.77931 85.45284 
L 106.857931 85.45284 
L 116.093793 85.45284 
L 119.172414 85.45284 
L 122.251034 85.45284 
L 122.884138 85.45284 
" clip-path="url(#p54cec41545)" style="fill: none; stroke: #000000; stroke-width: 0.5"/>
    <path d="M 152.404138 85.45284 
L 156.115862 85.45284 
L 159.194483 85.45284 
L 162.273103 85.45284 
L 165.351724 85.45284 
L 168.430345 85.45284 
L 171.508966 85.45284 
L 174.587586 85.45284 
L 177.666207 85.45284 
L 183.823448 85.45284 
L 186.902069 85.45284 
L 189.98069 85.45284 
L 193.05931 85.45284 
L 199.216552 85.45284 
L 202.295172 85.45284 
L 208.452414 85.45284 
L 211.531034 85.45284 
L 214.609655 85.45284 
L 217.688276 85.45284 
L 220.766897 85.45284 
L 223.845517 85.45284 
L 226.924138 85.45284 
L 230.002759 85.45284 
L 233.081379 85.45284 
L 236.16 85.45284 
L 239.238621 85.45284 
L 242.317241 85.45284 
L 245.395862 85.45284 
L 248.474483 85.45284 
L 251.553103 85.45284 
L 254.631724 85.45284 
L 257.710345 85.45284 
L 260.788966 85.45284 
L 263.867586 85.45284 
L 266.946207 85.45284 
L 270.024828 85.45284 
L 273.103448 85.45284 
L 276.182069 85.45284 
L 279.26069 85.45284 
L 282.33931 85.45284 
L 285.417931 85.45284 
L 288.496552 85.45284 
L 294.653793 85.45284 
L 297.732414 85.45284 
L 310.046897 85.45284 
L 313.125517 85.45284 
L 316.204138 85.45284 
L 319.282759 85.45284 
L 322.361379 85.45284 
L 334.675862 85.45284 
L 346.990345 85.45284 
L 414.72 85.45284 
" clip-path="url(#p54cec41545)" style="fill: none; stroke: #000000; stroke-width: 0.5"/>
   </g>
   <g id="PathCollection_15"/>
   <g id="LineCollection_1">
    <path d="M 118.926124 307.584 
L 118.926124 294.2784 
" clip-path="url(#p54cec41545)" style="fill: none; stroke: #000000; stroke-width: 1.5"/>
    <path d="M 137.644138 307.584 
L 137.644138 294.2784 
" clip-path="url(#p54cec41545)" style="fill: none; stroke: #000000; stroke-width: 1.5"/>
    <path d="M 162.149959 307.584 
L 162.149959 294.2784 
" clip-path="url(#p54cec41545)" style="fill: none; stroke: #000000; stroke-width: 1.5"/>
    <path d="M 199.216552 307.584 
L 199.216552 294.2784 
" clip-path="url(#p54cec41545)" style="fill: none; stroke: #000000; stroke-width: 1.5"/>
    <path d="M 223.845517 307.584 
L 223.845517 294.2784 
" clip-path="url(#p54cec41545)" style="fill: none; stroke: #000000; stroke-width: 1.5"/>
    <path d="M 236.16 307.584 
L 236.16 294.2784 
" clip-path="url(#p54cec41545)" style="fill: none; stroke: #000000; stroke-width: 1.5"/>
    <path d="M 245.395862 307.584 
L 245.395862 294.2784 
" clip-path="url(#p54cec41545)" style="fill: none; stroke: #000000; stroke-width: 1.5"/>
    <path d="M 257.710345 307.584 
L 257.710345 294.2784 
" clip-path="url(#p54cec41545)" style="fill: none; stroke: #000000; stroke-width: 1.5"/>
    <path d="M 282.5856 307.584 
L 282.5856 294.2784 
" clip-path="url(#p54cec41545)" style="fill: none; stroke: #000000; stroke-width: 1.5"/>
   </g>
   <g id="LineCollection_2">
    <path clip-path="url(#p54cec41545)" style="fill: none; stroke: #000000; stroke-width: 1.5"/>
    <path clip-path="url(#p54cec41545)" style="fill: none; stroke: #000000; stroke-width: 1.5"/>
    <path clip-path="url(#p54cec41545)" style="fill: none; stroke: #000000; stroke-width: 1.5"/>
    <path clip-path="url(#p54cec41545)" style="fill: none; stroke: #000000; stroke-width: 1.5"/>
    <path d="M 207.320276 335.785231 
L 210.580822 335.785231 
" clip-path="url(#p54cec41545)" style="fill: none; stroke: #000000; stroke-width: 1.5"/>
    <path d="M 207.320276 239.72767 
L 210.580822 239.72767 
" clip-path="url(#p54cec41545)" style="fill: none; stroke: #000000; stroke-width: 1.5"/>
    <path d="M 207.320276 106.962399 
L 210.580822 106.962399 
" clip-path="url(#p54cec41545)" style="fill: none; stroke: #000000; stroke-width: 1.5"/>
    <path d="M 207.320276 4.729709 
L 210.580822 4.729709 
" clip-path="url(#p54cec41545)" style="fill: none; stroke: #000000; stroke-width: 1.5"/>
    <path clip-path="url(#p54cec41545)" style="fill: none; stroke: #000000; stroke-width: 1.5"/>
   </g>
   <g id="patch_3">
    <path d="M 57.6 307.584 
L 57.6 41.472 
" style="fill: none; stroke: #000000; stroke-width: 0.8; stroke-linejoin: miter; stroke-linecap: square"/>
   </g>
   <g id="patch_4">
    <path d="M 414.72 307.584 
L 414.72 41.472 
" style="fill: none; stroke: #000000; stroke-width: 0.8; stroke-linejoin: miter; stroke-linecap: square"/>
   </g>
   <g id="patch_5">
    <path d="M 57.6 307.584 
L 414.72 307.584 
" style="fill: none; stroke: #000000; stroke-width: 0.8; stroke-linejoin: miter; stroke-linecap: square"/>
   </g>
   <g id="patch_6">
    <path d="M 57.6 41.472 
L 414.72 41.472 
" style="fill: none; stroke: #000000; stroke-width: 0.8; stroke-linejoin: miter; stroke-linecap: square"/>
   </g>
   <g id="text_15">
    <!-- 2D-partial dependency plot between BMI and Age -->
    <g transform="translate(86.440313 35.472) scale(0.12 -0.12)">
     <defs>
      <path id="DejaVuSans-44" d="M 1259 4147 
L 1259 519 
L 2022 519 
Q 2988 519 3436 956 
Q 3884 1394 3884 2338 
Q 3884 3275 3436 3711 
Q 2988 4147 2022 4147 
L 1259 4147 
z
M 628 4666 
L 1925 4666 
Q 3281 4666 3915 4102 
Q 4550 3538 4550 2338 
Q 4550 1131 3912 565 
Q 3275 0 1925 0 
L 628 0 
L 628 4666 
z
" transform="scale(0.015625)"/>
      <path id="DejaVuSans-2d" d="M 313 2009 
L 1997 2009 
L 1997 1497 
L 313 1497 
L 313 2009 
z
" transform="scale(0.015625)"/>
      <path id="DejaVuSans-70" d="M 1159 525 
L 1159 -1331 
L 581 -1331 
L 581 3500 
L 1159 3500 
L 1159 2969 
Q 1341 3281 1617 3432 
Q 1894 3584 2278 3584 
Q 2916 3584 3314 3078 
Q 3713 2572 3713 1747 
Q 3713 922 3314 415 
Q 2916 -91 2278 -91 
Q 1894 -91 1617 61 
Q 1341 213 1159 525 
z
M 3116 1747 
Q 3116 2381 2855 2742 
Q 2594 3103 2138 3103 
Q 1681 3103 1420 2742 
Q 1159 2381 1159 1747 
Q 1159 1113 1420 752 
Q 1681 391 2138 391 
Q 2594 391 2855 752 
Q 3116 1113 3116 1747 
z
" transform="scale(0.015625)"/>
      <path id="DejaVuSans-72" d="M 2631 2963 
Q 2534 3019 2420 3045 
Q 2306 3072 2169 3072 
Q 1681 3072 1420 2755 
Q 1159 2438 1159 1844 
L 1159 0 
L 581 0 
L 581 3500 
L 1159 3500 
L 1159 2956 
Q 1341 3275 1631 3429 
Q 1922 3584 2338 3584 
Q 2397 3584 2469 3576 
Q 2541 3569 2628 3553 
L 2631 2963 
z
" transform="scale(0.015625)"/>
      <path id="DejaVuSans-74" d="M 1172 4494 
L 1172 3500 
L 2356 3500 
L 2356 3053 
L 1172 3053 
L 1172 1153 
Q 1172 725 1289 603 
Q 1406 481 1766 481 
L 2356 481 
L 2356 0 
L 1766 0 
Q 1100 0 847 248 
Q 594 497 594 1153 
L 594 3053 
L 172 3053 
L 172 3500 
L 594 3500 
L 594 4494 
L 1172 4494 
z
" transform="scale(0.015625)"/>
      <path id="DejaVuSans-6c" d="M 603 4863 
L 1178 4863 
L 1178 0 
L 603 0 
L 603 4863 
z
" transform="scale(0.015625)"/>
      <path id="DejaVuSans-63" d="M 3122 3366 
L 3122 2828 
Q 2878 2963 2633 3030 
Q 2388 3097 2138 3097 
Q 1578 3097 1268 2742 
Q 959 2388 959 1747 
Q 959 1106 1268 751 
Q 1578 397 2138 397 
Q 2388 397 2633 464 
Q 2878 531 3122 666 
L 3122 134 
Q 2881 22 2623 -34 
Q 2366 -91 2075 -91 
Q 1284 -91 818 406 
Q 353 903 353 1747 
Q 353 2603 823 3093 
Q 1294 3584 2113 3584 
Q 2378 3584 2631 3529 
Q 2884 3475 3122 3366 
z
" transform="scale(0.015625)"/>
      <path id="DejaVuSans-79" d="M 2059 -325 
Q 1816 -950 1584 -1140 
Q 1353 -1331 966 -1331 
L 506 -1331 
L 506 -850 
L 844 -850 
Q 1081 -850 1212 -737 
Q 1344 -625 1503 -206 
L 1606 56 
L 191 3500 
L 800 3500 
L 1894 763 
L 2988 3500 
L 3597 3500 
L 2059 -325 
z
" transform="scale(0.015625)"/>
      <path id="DejaVuSans-6f" d="M 1959 3097 
Q 1497 3097 1228 2736 
Q 959 2375 959 1747 
Q 959 1119 1226 758 
Q 1494 397 1959 397 
Q 2419 397 2687 759 
Q 2956 1122 2956 1747 
Q 2956 2369 2687 2733 
Q 2419 3097 1959 3097 
z
M 1959 3584 
Q 2709 3584 3137 3096 
Q 3566 2609 3566 1747 
Q 3566 888 3137 398 
Q 2709 -91 1959 -91 
Q 1206 -91 779 398 
Q 353 888 353 1747 
Q 353 2609 779 3096 
Q 1206 3584 1959 3584 
z
" transform="scale(0.015625)"/>
      <path id="DejaVuSans-62" d="M 3116 1747 
Q 3116 2381 2855 2742 
Q 2594 3103 2138 3103 
Q 1681 3103 1420 2742 
Q 1159 2381 1159 1747 
Q 1159 1113 1420 752 
Q 1681 391 2138 391 
Q 2594 391 2855 752 
Q 3116 1113 3116 1747 
z
M 1159 2969 
Q 1341 3281 1617 3432 
Q 1894 3584 2278 3584 
Q 2916 3584 3314 3078 
Q 3713 2572 3713 1747 
Q 3713 922 3314 415 
Q 2916 -91 2278 -91 
Q 1894 -91 1617 61 
Q 1341 213 1159 525 
L 1159 0 
L 581 0 
L 581 4863 
L 1159 4863 
L 1159 2969 
z
" transform="scale(0.015625)"/>
      <path id="DejaVuSans-77" d="M 269 3500 
L 844 3500 
L 1563 769 
L 2278 3500 
L 2956 3500 
L 3675 769 
L 4391 3500 
L 4966 3500 
L 4050 0 
L 3372 0 
L 2619 2869 
L 1863 0 
L 1184 0 
L 269 3500 
z
" transform="scale(0.015625)"/>
     </defs>
     <use xlink:href="#DejaVuSans-32"/>
     <use xlink:href="#DejaVuSans-44" x="63.623047"/>
     <use xlink:href="#DejaVuSans-2d" x="140.625"/>
     <use xlink:href="#DejaVuSans-70" x="176.708984"/>
     <use xlink:href="#DejaVuSans-61" x="240.185547"/>
     <use xlink:href="#DejaVuSans-72" x="301.464844"/>
     <use xlink:href="#DejaVuSans-74" x="342.578125"/>
     <use xlink:href="#DejaVuSans-69" x="381.787109"/>
     <use xlink:href="#DejaVuSans-61" x="409.570312"/>
     <use xlink:href="#DejaVuSans-6c" x="470.849609"/>
     <use xlink:href="#DejaVuSans-20" x="498.632812"/>
     <use xlink:href="#DejaVuSans-64" x="530.419922"/>
     <use xlink:href="#DejaVuSans-65" x="593.896484"/>
     <use xlink:href="#DejaVuSans-70" x="655.419922"/>
     <use xlink:href="#DejaVuSans-65" x="718.896484"/>
     <use xlink:href="#DejaVuSans-6e" x="780.419922"/>
     <use xlink:href="#DejaVuSans-64" x="843.798828"/>
     <use xlink:href="#DejaVuSans-65" x="907.275391"/>
     <use xlink:href="#DejaVuSans-6e" x="968.798828"/>
     <use xlink:href="#DejaVuSans-63" x="1032.177734"/>
     <use xlink:href="#DejaVuSans-79" x="1087.158203"/>
     <use xlink:href="#DejaVuSans-20" x="1146.337891"/>
     <use xlink:href="#DejaVuSans-70" x="1178.125"/>
     <use xlink:href="#DejaVuSans-6c" x="1241.601562"/>
     <use xlink:href="#DejaVuSans-6f" x="1269.384766"/>
     <use xlink:href="#DejaVuSans-74" x="1330.566406"/>
     <use xlink:href="#DejaVuSans-20" x="1369.775391"/>
     <use xlink:href="#DejaVuSans-62" x="1401.5625"/>
     <use xlink:href="#DejaVuSans-65" x="1465.039062"/>
     <use xlink:href="#DejaVuSans-74" x="1526.5625"/>
     <use xlink:href="#DejaVuSans-77" x="1565.771484"/>
     <use xlink:href="#DejaVuSans-65" x="1647.558594"/>
     <use xlink:href="#DejaVuSans-65" x="1709.082031"/>
     <use xlink:href="#DejaVuSans-6e" x="1770.605469"/>
     <use xlink:href="#DejaVuSans-20" x="1833.984375"/>
     <use xlink:href="#DejaVuSans-42" x="1865.771484"/>
     <use xlink:href="#DejaVuSans-4d" x="1934.375"/>
     <use xlink:href="#DejaVuSans-49" x="2020.654297"/>
     <use xlink:href="#DejaVuSans-20" x="2050.146484"/>
     <use xlink:href="#DejaVuSans-61" x="2081.933594"/>
     <use xlink:href="#DejaVuSans-6e" x="2143.212891"/>
     <use xlink:href="#DejaVuSans-64" x="2206.591797"/>
     <use xlink:href="#DejaVuSans-20" x="2270.068359"/>
     <use xlink:href="#DejaVuSans-41" x="2301.855469"/>
     <use xlink:href="#DejaVuSans-67" x="2370.263672"/>
     <use xlink:href="#DejaVuSans-65" x="2433.740234"/>
    </g>
   </g>
   <g id="text_16">
    <g clip-path="url(#p54cec41545)">
     <!-- -0.46 -->
     <g transform="translate(250.930867 188.788194) scale(0.1 -0.1)">
      <defs>
       <path id="DejaVuSans-34" d="M 2419 4116 
L 825 1625 
L 2419 1625 
L 2419 4116 
z
M 2253 4666 
L 3047 4666 
L 3047 1625 
L 3713 1625 
L 3713 1100 
L 3047 1100 
L 3047 0 
L 2419 0 
L 2419 1100 
L 313 1100 
L 313 1709 
L 2253 4666 
z
" transform="scale(0.015625)"/>
       <path id="DejaVuSans-36" d="M 2113 2584 
Q 1688 2584 1439 2293 
Q 1191 2003 1191 1497 
Q 1191 994 1439 701 
Q 1688 409 2113 409 
Q 2538 409 2786 701 
Q 3034 994 3034 1497 
Q 3034 2003 2786 2293 
Q 2538 2584 2113 2584 
z
M 3366 4563 
L 3366 3988 
Q 3128 4100 2886 4159 
Q 2644 4219 2406 4219 
Q 1781 4219 1451 3797 
Q 1122 3375 1075 2522 
Q 1259 2794 1537 2939 
Q 1816 3084 2150 3084 
Q 2853 3084 3261 2657 
Q 3669 2231 3669 1497 
Q 3669 778 3244 343 
Q 2819 -91 2113 -91 
Q 1303 -91 875 529 
Q 447 1150 447 2328 
Q 447 3434 972 4092 
Q 1497 4750 2381 4750 
Q 2619 4750 2861 4703 
Q 3103 4656 3366 4563 
z
" transform="scale(0.015625)"/>
      </defs>
      <use xlink:href="#DejaVuSans-2d"/>
      <use xlink:href="#DejaVuSans-30" x="36.083984"/>
      <use xlink:href="#DejaVuSans-2e" x="99.707031"/>
      <use xlink:href="#DejaVuSans-34" x="131.494141"/>
      <use xlink:href="#DejaVuSans-36" x="195.117188"/>
     </g>
    </g>
   </g>
   <g id="text_17">
    <g clip-path="url(#p54cec41545)">
     <!-- -0.14 -->
     <g transform="translate(250.930867 145.843473) scale(0.1 -0.1)">
      <use xlink:href="#DejaVuSans-2d"/>
      <use xlink:href="#DejaVuSans-30" x="36.083984"/>
      <use xlink:href="#DejaVuSans-2e" x="99.707031"/>
      <use xlink:href="#DejaVuSans-31" x="131.494141"/>
      <use xlink:href="#DejaVuSans-34" x="195.117188"/>
     </g>
    </g>
   </g>
   <g id="text_18">
    <g clip-path="url(#p54cec41545)">
     <!-- 0.18 -->
     <g transform="translate(126.511325 144.888564) scale(0.1 -0.1)">
      <defs>
       <path id="DejaVuSans-38" d="M 2034 2216 
Q 1584 2216 1326 1975 
Q 1069 1734 1069 1313 
Q 1069 891 1326 650 
Q 1584 409 2034 409 
Q 2484 409 2743 651 
Q 3003 894 3003 1313 
Q 3003 1734 2745 1975 
Q 2488 2216 2034 2216 
z
M 1403 2484 
Q 997 2584 770 2862 
Q 544 3141 544 3541 
Q 544 4100 942 4425 
Q 1341 4750 2034 4750 
Q 2731 4750 3128 4425 
Q 3525 4100 3525 3541 
Q 3525 3141 3298 2862 
Q 3072 2584 2669 2484 
Q 3125 2378 3379 2068 
Q 3634 1759 3634 1313 
Q 3634 634 3220 271 
Q 2806 -91 2034 -91 
Q 1263 -91 848 271 
Q 434 634 434 1313 
Q 434 1759 690 2068 
Q 947 2378 1403 2484 
z
M 1172 3481 
Q 1172 3119 1398 2916 
Q 1625 2713 2034 2713 
Q 2441 2713 2670 2916 
Q 2900 3119 2900 3481 
Q 2900 3844 2670 4047 
Q 2441 4250 2034 4250 
Q 1625 4250 1398 4047 
Q 1172 3844 1172 3481 
z
" transform="scale(0.015625)"/>
      </defs>
      <use xlink:href="#DejaVuSans-30"/>
      <use xlink:href="#DejaVuSans-2e" x="63.623047"/>
      <use xlink:href="#DejaVuSans-31" x="95.410156"/>
      <use xlink:href="#DejaVuSans-38" x="159.033203"/>
     </g>
    </g>
   </g>
   <g id="text_19">
    <g clip-path="url(#p54cec41545)">
     <!-- 0.50 -->
     <g transform="translate(92.646498 143.935269) scale(0.1 -0.1)">
      <use xlink:href="#DejaVuSans-30"/>
      <use xlink:href="#DejaVuSans-2e" x="63.623047"/>
      <use xlink:href="#DejaVuSans-35" x="95.410156"/>
      <use xlink:href="#DejaVuSans-30" x="159.033203"/>
     </g>
    </g>
   </g>
   <g id="text_20">
    <g clip-path="url(#p54cec41545)">
     <!-- 0.82 -->
     <g transform="translate(126.511325 138.710513) scale(0.1 -0.1)">
      <use xlink:href="#DejaVuSans-30"/>
      <use xlink:href="#DejaVuSans-2e" x="63.623047"/>
      <use xlink:href="#DejaVuSans-38" x="95.410156"/>
      <use xlink:href="#DejaVuSans-32" x="159.033203"/>
     </g>
    </g>
   </g>
   <g id="text_21">
    <g clip-path="url(#p54cec41545)">
     <!-- 1.14 -->
     <g transform="translate(126.511325 88.212215) scale(0.1 -0.1)">
      <use xlink:href="#DejaVuSans-31"/>
      <use xlink:href="#DejaVuSans-2e" x="63.623047"/>
      <use xlink:href="#DejaVuSans-31" x="95.410156"/>
      <use xlink:href="#DejaVuSans-34" x="159.033203"/>
     </g>
    </g>
   </g>
  </g>
 </g>
 <defs>
  <clipPath id="p54cec41545">
   <rect x="57.6" y="41.472" width="357.12" height="266.112"/>
  </clipPath>
 </defs>
</svg>
