<?xml version="1.0" encoding="utf-8" standalone="no"?>
<!DOCTYPE svg PUBLIC "-//W3C//DTD SVG 1.1//EN"
  "http://www.w3.org/Graphics/SVG/1.1/DTD/svg11.dtd">
<svg xmlns:xlink="http://www.w3.org/1999/xlink" width="460.8pt" height="345.6pt" viewBox="0 0 460.8 345.6" xmlns="http://www.w3.org/2000/svg" version="1.1">
 <metadata>
  <rdf:RDF xmlns:dc="http://purl.org/dc/elements/1.1/" xmlns:cc="http://creativecommons.org/ns#" xmlns:rdf="http://www.w3.org/1999/02/22-rdf-syntax-ns#">
   <cc:Work>
    <dc:type rdf:resource="http://purl.org/dc/dcmitype/StillImage"/>
    <dc:date>2024-02-15T12:27:10.875983</dc:date>
    <dc:format>image/svg+xml</dc:format>
    <dc:creator>
     <cc:Agent>
      <dc:title>Matplotlib v3.7.0, https://matplotlib.org/</dc:title>
     </cc:Agent>
    </dc:creator>
   </cc:Work>
  </rdf:RDF>
 </metadata>
 <defs>
  <style type="text/css">*{stroke-linejoin: round; stroke-linecap: butt}</style>
 </defs>
 <g id="figure_1">
  <g id="patch_1">
   <path d="M 0 345.6 
L 460.8 345.6 
L 460.8 0 
L 0 0 
L 0 345.6 
z
" style="fill: none"/>
  </g>
  <g id="axes_1"/>
  <g id="axes_2">
   <g id="patch_2">
    <path d="M 57.6 307.584 
L 414.72 307.584 
L 414.72 41.472 
L 57.6 41.472 
L 57.6 307.584 
z
" style="fill: none"/>
   </g>
   <g id="PathCollection_1">
    <path d="M 61.207273 307.584 
L 64.814545 307.584 
L 68.421818 307.584 
L 72.029091 307.584 
L 75.636364 307.584 
L 79.243636 307.584 
L 82.850909 307.584 
L 86.458182 307.584 
L 90.065455 307.584 
L 93.672727 307.584 
L 97.28 307.584 
L 100.887273 307.584 
L 104.494545 307.584 
L 108.101818 307.584 
L 111.709091 307.584 
L 115.316364 307.584 
L 118.923636 307.584 
L 122.530909 307.584 
L 126.138182 307.584 
L 129.745455 307.584 
L 133.352727 307.584 
L 136.96 307.584 
L 140.567273 307.584 
L 144.174545 307.584 
L 147.781818 307.584 
L 151.389091 307.584 
L 154.996364 307.584 
L 158.603636 307.584 
L 162.210909 307.584 
L 165.818182 307.584 
L 169.425455 307.584 
L 173.032727 307.584 
L 176.64 307.584 
L 180.247273 307.584 
L 183.854545 307.584 
L 187.461818 307.584 
L 191.069091 307.584 
L 194.676364 307.584 
L 198.283636 307.584 
L 201.890909 307.584 
L 205.498182 307.584 
L 208.064574 307.584 
L 208.451158 304.896 
L 208.451158 302.208 
L 208.451158 299.52 
L 208.194423 296.832 
L 208.194423 294.144 
L 208.194423 291.456 
L 208.194423 288.768 
L 207.707868 286.08 
L 207.707868 283.392 
L 207.707868 280.704 
L 207.707868 278.016 
L 207.707868 275.328 
L 207.707868 272.64 
L 208.11509 269.952 
L 208.11509 267.264 
L 208.11509 264.576 
L 208.11509 261.888 
L 208.11509 259.2 
L 208.11509 256.512 
L 208.11509 253.824 
L 208.11509 251.136 
L 208.11509 248.448 
L 208.948413 245.76 
L 209.105455 245.211031 
L 212.712727 245.211031 
L 216.32 245.211031 
L 219.927273 245.211031 
L 220.227554 243.072 
L 220.406428 240.384 
L 220.406428 237.696 
L 220.564711 235.008 
L 220.564711 232.32 
L 220.564711 229.632 
L 220.564711 226.944 
L 220.564711 224.256 
L 220.564711 221.568 
L 220.564711 218.88 
L 220.564711 216.192 
L 220.686693 213.504 
L 220.686693 210.816 
L 220.686693 208.128 
L 220.686693 205.44 
L 220.759852 202.752 
L 220.759852 200.064 
L 220.759852 197.376 
L 220.759852 194.688 
L 220.759852 192 
L 220.759852 189.312 
L 220.759852 186.624 
L 220.759852 183.936 
L 220.759852 181.248 
L 220.759852 178.56 
L 220.759852 175.872 
L 220.759852 173.184 
L 220.759852 170.496 
L 220.759852 167.808 
L 220.759852 165.12 
L 220.759852 162.432 
L 220.759852 159.744 
L 220.759852 157.056 
L 220.759852 154.368 
L 220.759852 151.68 
L 220.759852 148.992 
L 220.759852 146.304 
L 220.759852 143.616 
L 220.759852 140.928 
L 220.759852 138.24 
L 220.759852 135.552 
L 220.759852 132.864 
L 220.759852 130.176 
L 220.759852 127.488 
L 220.759852 124.8 
L 220.759852 122.112 
L 220.759852 119.424 
L 220.759852 116.736 
L 220.759852 114.048 
L 220.759852 111.36 
L 220.759852 108.672 
L 220.759852 105.984 
L 220.759852 103.296 
L 220.759852 100.608 
L 220.759852 97.92 
L 220.759852 95.232 
L 220.759852 92.544 
L 220.759852 89.856 
L 220.759852 87.168 
L 220.759852 84.48 
L 220.759852 81.792 
L 220.759852 79.104 
L 220.759852 76.416 
L 220.759852 73.728 
L 220.759852 71.04 
L 220.759852 68.352 
L 220.759852 65.664 
L 220.759852 62.976 
L 220.759852 60.288 
L 220.759852 57.6 
L 220.759852 54.912 
L 220.759852 52.224 
L 220.759852 49.536 
L 220.759852 46.848 
L 220.759852 44.16 
L 220.759852 41.472 
L 219.927273 41.472 
L 216.32 41.472 
L 212.712727 41.472 
L 209.105455 41.472 
L 205.498182 41.472 
L 201.890909 41.472 
L 198.283636 41.472 
L 194.676364 41.472 
L 191.069091 41.472 
L 187.461818 41.472 
L 183.854545 41.472 
L 180.247273 41.472 
L 176.64 41.472 
L 173.032727 41.472 
L 169.425455 41.472 
L 165.818182 41.472 
L 162.210909 41.472 
L 158.603636 41.472 
L 154.996364 41.472 
L 151.389091 41.472 
L 147.781818 41.472 
L 144.174545 41.472 
L 140.567273 41.472 
L 136.96 41.472 
L 133.352727 41.472 
L 129.745455 41.472 
L 126.138182 41.472 
L 122.530909 41.472 
L 118.923636 41.472 
L 115.316364 41.472 
L 111.709091 41.472 
L 108.101818 41.472 
L 104.494545 41.472 
L 100.887273 41.472 
L 97.28 41.472 
L 93.672727 41.472 
L 90.065455 41.472 
L 86.458182 41.472 
L 82.850909 41.472 
L 79.243636 41.472 
L 75.636364 41.472 
L 72.029091 41.472 
L 68.421818 41.472 
L 64.814545 41.472 
L 61.207273 41.472 
L 57.6 41.472 
L 57.6 44.16 
L 57.6 46.848 
L 57.6 49.536 
L 57.6 52.224 
L 57.6 54.912 
L 57.6 57.6 
L 57.6 60.288 
L 57.6 62.976 
L 57.6 65.664 
L 57.6 68.352 
L 57.6 71.04 
L 57.6 73.728 
L 57.6 76.416 
L 57.6 79.104 
L 57.6 81.792 
L 57.6 84.48 
L 57.6 87.168 
L 57.6 89.856 
L 57.6 92.544 
L 57.6 95.232 
L 57.6 97.92 
L 57.6 100.608 
L 57.6 103.296 
L 57.6 105.984 
L 57.6 108.672 
L 57.6 111.36 
L 57.6 114.048 
L 57.6 116.736 
L 57.6 119.424 
L 57.6 122.112 
L 57.6 124.8 
L 57.6 127.488 
L 57.6 130.176 
L 57.6 132.864 
L 57.6 135.552 
L 57.6 138.24 
L 57.6 140.928 
L 57.6 143.616 
L 57.6 146.304 
L 57.6 148.992 
L 57.6 151.68 
L 57.6 154.368 
L 57.6 157.056 
L 57.6 159.744 
L 57.6 162.432 
L 57.6 165.12 
L 57.6 167.808 
L 57.6 170.496 
L 57.6 173.184 
L 57.6 175.872 
L 57.6 178.56 
L 57.6 181.248 
L 57.6 183.936 
L 57.6 186.624 
L 57.6 189.312 
L 57.6 192 
L 57.6 194.688 
L 57.6 197.376 
L 57.6 200.064 
L 57.6 202.752 
L 57.6 205.44 
L 57.6 208.128 
L 57.6 210.816 
L 57.6 213.504 
L 57.6 216.192 
L 57.6 218.88 
L 57.6 221.568 
L 57.6 224.256 
L 57.6 226.944 
L 57.6 229.632 
L 57.6 232.32 
L 57.6 235.008 
L 57.6 237.696 
L 57.6 240.384 
L 57.6 243.072 
L 57.6 245.76 
L 57.6 248.448 
L 57.6 251.136 
L 57.6 253.824 
L 57.6 256.512 
L 57.6 259.2 
L 57.6 261.888 
L 57.6 264.576 
L 57.6 267.264 
L 57.6 269.952 
L 57.6 272.64 
L 57.6 275.328 
L 57.6 278.016 
L 57.6 280.704 
L 57.6 283.392 
L 57.6 286.08 
L 57.6 288.768 
L 57.6 291.456 
L 57.6 294.144 
L 57.6 296.832 
L 57.6 299.52 
L 57.6 302.208 
L 57.6 304.896 
L 57.6 307.584 
z
" clip-path="url(#p8df54d3786)" style="fill: #481b6d; fill-opacity: 0.75"/>
   </g>
   <g id="PathCollection_2">
    <path d="M 209.105455 307.584 
L 212.712727 307.584 
L 216.32 307.584 
L 219.927273 307.584 
L 223.534545 307.584 
L 227.141818 307.584 
L 230.749091 307.584 
L 234.356364 307.584 
L 237.963636 307.584 
L 241.570909 307.584 
L 245.178182 307.584 
L 248.785455 307.584 
L 252.392727 307.584 
L 256 307.584 
L 259.607273 307.584 
L 263.214545 307.584 
L 266.821818 307.584 
L 270.429091 307.584 
L 274.036364 307.584 
L 277.643636 307.584 
L 278.335478 307.584 
L 278.3893 304.896 
L 278.3893 302.208 
L 278.3893 299.52 
L 278.390619 296.832 
L 278.390619 294.144 
L 278.390619 291.456 
L 278.390619 288.768 
L 278.380302 286.08 
L 278.380302 283.392 
L 278.380302 280.704 
L 278.380302 278.016 
L 278.380302 275.328 
L 278.380302 272.64 
L 278.380302 269.952 
L 278.380302 267.264 
L 278.380302 264.576 
L 278.380302 261.888 
L 278.380302 259.2 
L 278.380302 256.512 
L 278.380302 253.824 
L 278.380302 251.136 
L 278.380302 248.448 
L 278.387593 245.76 
L 278.387593 243.072 
L 278.395978 240.384 
L 278.395978 237.696 
L 278.401839 235.008 
L 278.401839 232.32 
L 278.401839 229.632 
L 278.401839 226.944 
L 278.401839 224.256 
L 278.401839 221.568 
L 278.401839 218.88 
L 278.401839 216.192 
L 278.406339 213.504 
L 278.406339 210.816 
L 278.406339 208.128 
L 278.406339 205.44 
L 278.409031 202.752 
L 278.409031 200.064 
L 278.409031 197.376 
L 278.409031 194.688 
L 278.409031 192 
L 278.409031 189.312 
L 278.409031 186.624 
L 278.409031 183.936 
L 278.409031 181.248 
L 278.409031 178.56 
L 278.409031 175.872 
L 278.409031 173.184 
L 278.409031 170.496 
L 278.409031 167.808 
L 278.409031 165.12 
L 278.409031 162.432 
L 278.409031 159.744 
L 278.409031 157.056 
L 278.409031 154.368 
L 278.409031 151.68 
L 278.409031 148.992 
L 278.409031 146.304 
L 278.409031 143.616 
L 278.409031 140.928 
L 278.409031 138.24 
L 278.409031 135.552 
L 278.409031 132.864 
L 278.409031 130.176 
L 278.409031 127.488 
L 278.409031 124.8 
L 278.409031 122.112 
L 278.409031 119.424 
L 278.409031 116.736 
L 278.409031 114.048 
L 278.409031 111.36 
L 278.409031 108.672 
L 278.409031 105.984 
L 278.409031 103.296 
L 278.409031 100.608 
L 278.409031 97.92 
L 278.409031 95.232 
L 278.409031 92.544 
L 278.409031 89.856 
L 278.409031 87.168 
L 278.409031 84.48 
L 278.409031 81.792 
L 278.409031 79.104 
L 278.409031 76.416 
L 278.409031 73.728 
L 278.409031 71.04 
L 278.409031 68.352 
L 278.409031 65.664 
L 278.409031 62.976 
L 278.409031 60.288 
L 278.409031 57.6 
L 278.409031 54.912 
L 278.409031 52.224 
L 278.409031 49.536 
L 278.409031 46.848 
L 278.409031 44.16 
L 278.409031 41.472 
L 277.643636 41.472 
L 274.036364 41.472 
L 270.429091 41.472 
L 266.821818 41.472 
L 263.214545 41.472 
L 259.607273 41.472 
L 256 41.472 
L 252.392727 41.472 
L 248.785455 41.472 
L 245.178182 41.472 
L 241.570909 41.472 
L 237.963636 41.472 
L 234.356364 41.472 
L 230.749091 41.472 
L 227.141818 41.472 
L 223.534545 41.472 
L 220.759852 41.472 
L 220.759852 44.16 
L 220.759852 46.848 
L 220.759852 49.536 
L 220.759852 52.224 
L 220.759852 54.912 
L 220.759852 57.6 
L 220.759852 60.288 
L 220.759852 62.976 
L 220.759852 65.664 
L 220.759852 68.352 
L 220.759852 71.04 
L 220.759852 73.728 
L 220.759852 76.416 
L 220.759852 79.104 
L 220.759852 81.792 
L 220.759852 84.48 
L 220.759852 87.168 
L 220.759852 89.856 
L 220.759852 92.544 
L 220.759852 95.232 
L 220.759852 97.92 
L 220.759852 100.608 
L 220.759852 103.296 
L 220.759852 105.984 
L 220.759852 108.672 
L 220.759852 111.36 
L 220.759852 114.048 
L 220.759852 116.736 
L 220.759852 119.424 
L 220.759852 122.112 
L 220.759852 124.8 
L 220.759852 127.488 
L 220.759852 130.176 
L 220.759852 132.864 
L 220.759852 135.552 
L 220.759852 138.24 
L 220.759852 140.928 
L 220.759852 143.616 
L 220.759852 146.304 
L 220.759852 148.992 
L 220.759852 151.68 
L 220.759852 154.368 
L 220.759852 157.056 
L 220.759852 159.744 
L 220.759852 162.432 
L 220.759852 165.12 
L 220.759852 167.808 
L 220.759852 170.496 
L 220.759852 173.184 
L 220.759852 175.872 
L 220.759852 178.56 
L 220.759852 181.248 
L 220.759852 183.936 
L 220.759852 186.624 
L 220.759852 189.312 
L 220.759852 192 
L 220.759852 194.688 
L 220.759852 197.376 
L 220.759852 200.064 
L 220.759852 202.752 
L 220.686693 205.44 
L 220.686693 208.128 
L 220.686693 210.816 
L 220.686693 213.504 
L 220.564711 216.192 
L 220.564711 218.88 
L 220.564711 221.568 
L 220.564711 224.256 
L 220.564711 226.944 
L 220.564711 229.632 
L 220.564711 232.32 
L 220.564711 235.008 
L 220.406428 237.696 
L 220.406428 240.384 
L 220.227554 243.072 
L 219.927273 245.211031 
L 216.32 245.211031 
L 212.712727 245.211031 
L 209.105455 245.211031 
L 208.948413 245.76 
L 208.11509 248.448 
L 208.11509 251.136 
L 208.11509 253.824 
L 208.11509 256.512 
L 208.11509 259.2 
L 208.11509 261.888 
L 208.11509 264.576 
L 208.11509 267.264 
L 208.11509 269.952 
L 207.707868 272.64 
L 207.707868 275.328 
L 207.707868 278.016 
L 207.707868 280.704 
L 207.707868 283.392 
L 207.707868 286.08 
L 208.194423 288.768 
L 208.194423 291.456 
L 208.194423 294.144 
L 208.194423 296.832 
L 208.451158 299.52 
L 208.451158 302.208 
L 208.451158 304.896 
L 208.064574 307.584 
z
" clip-path="url(#p8df54d3786)" style="fill: #3f4788; fill-opacity: 0.75"/>
   </g>
   <g id="PathCollection_3">
    <path d="M 279.74692 304.896 
L 279.74692 302.208 
L 279.74692 299.52 
L 279.760553 296.832 
L 279.760553 294.144 
L 279.760553 291.456 
L 279.760553 288.768 
L 279.750235 286.08 
L 279.750235 283.392 
L 279.750235 280.704 
L 279.750235 278.016 
L 279.750235 275.328 
L 279.750235 272.64 
L 279.750235 269.952 
L 279.750235 267.264 
L 279.750235 264.576 
L 279.750235 261.888 
L 279.750235 259.2 
L 279.750235 256.512 
L 279.750235 253.824 
L 279.750235 251.136 
L 279.750235 248.448 
L 279.754047 245.76 
L 279.754047 243.072 
L 279.762432 240.384 
L 279.762432 237.696 
L 279.765488 235.008 
L 279.765488 232.32 
L 279.765488 229.632 
L 279.765488 226.944 
L 279.765488 224.256 
L 279.765488 221.568 
L 279.765488 218.88 
L 279.765488 216.192 
L 279.767834 213.504 
L 279.767834 210.816 
L 279.767834 208.128 
L 279.767834 205.44 
L 279.769238 202.752 
L 279.769238 200.064 
L 279.769238 197.376 
L 279.769238 194.688 
L 279.769238 192 
L 279.769238 189.312 
L 279.769238 186.624 
L 279.769238 183.936 
L 279.769238 181.248 
L 279.769238 178.56 
L 279.769238 175.872 
L 279.769238 173.184 
L 279.769238 170.496 
L 279.769238 167.808 
L 279.769238 165.12 
L 279.769238 162.432 
L 279.769238 159.744 
L 279.769238 157.056 
L 279.769238 154.368 
L 279.769238 151.68 
L 279.769238 148.992 
L 279.769238 146.304 
L 279.769238 143.616 
L 279.769238 140.928 
L 279.769238 138.24 
L 279.769238 135.552 
L 279.769238 132.864 
L 279.769238 130.176 
L 279.769238 127.488 
L 279.769238 124.8 
L 279.769238 122.112 
L 279.769238 119.424 
L 279.769238 116.736 
L 279.769238 114.048 
L 279.769238 111.36 
L 279.769238 108.672 
L 279.769238 105.984 
L 279.769238 103.296 
L 279.769238 100.608 
L 279.769238 97.92 
L 279.769238 95.232 
L 279.769238 92.544 
L 279.769238 89.856 
L 279.769238 87.168 
L 279.769238 84.48 
L 279.769238 81.792 
L 279.769238 79.104 
L 279.769238 76.416 
L 279.769238 73.728 
L 279.769238 71.04 
L 279.769238 68.352 
L 279.769238 65.664 
L 279.769238 62.976 
L 279.769238 60.288 
L 279.769238 57.6 
L 279.769238 54.912 
L 279.769238 52.224 
L 279.769238 49.536 
L 279.769238 46.848 
L 279.769238 44.16 
L 279.769238 41.472 
L 278.409031 41.472 
L 278.409031 44.16 
L 278.409031 46.848 
L 278.409031 49.536 
L 278.409031 52.224 
L 278.409031 54.912 
L 278.409031 57.6 
L 278.409031 60.288 
L 278.409031 62.976 
L 278.409031 65.664 
L 278.409031 68.352 
L 278.409031 71.04 
L 278.409031 73.728 
L 278.409031 76.416 
L 278.409031 79.104 
L 278.409031 81.792 
L 278.409031 84.48 
L 278.409031 87.168 
L 278.409031 89.856 
L 278.409031 92.544 
L 278.409031 95.232 
L 278.409031 97.92 
L 278.409031 100.608 
L 278.409031 103.296 
L 278.409031 105.984 
L 278.409031 108.672 
L 278.409031 111.36 
L 278.409031 114.048 
L 278.409031 116.736 
L 278.409031 119.424 
L 278.409031 122.112 
L 278.409031 124.8 
L 278.409031 127.488 
L 278.409031 130.176 
L 278.409031 132.864 
L 278.409031 135.552 
L 278.409031 138.24 
L 278.409031 140.928 
L 278.409031 143.616 
L 278.409031 146.304 
L 278.409031 148.992 
L 278.409031 151.68 
L 278.409031 154.368 
L 278.409031 157.056 
L 278.409031 159.744 
L 278.409031 162.432 
L 278.409031 165.12 
L 278.409031 167.808 
L 278.409031 170.496 
L 278.409031 173.184 
L 278.409031 175.872 
L 278.409031 178.56 
L 278.409031 181.248 
L 278.409031 183.936 
L 278.409031 186.624 
L 278.409031 189.312 
L 278.409031 192 
L 278.409031 194.688 
L 278.409031 197.376 
L 278.409031 200.064 
L 278.409031 202.752 
L 278.406339 205.44 
L 278.406339 208.128 
L 278.406339 210.816 
L 278.406339 213.504 
L 278.401839 216.192 
L 278.401839 218.88 
L 278.401839 221.568 
L 278.401839 224.256 
L 278.401839 226.944 
L 278.401839 229.632 
L 278.401839 232.32 
L 278.401839 235.008 
L 278.395978 237.696 
L 278.395978 240.384 
L 278.387593 243.072 
L 278.387593 245.76 
L 278.380302 248.448 
L 278.380302 251.136 
L 278.380302 253.824 
L 278.380302 256.512 
L 278.380302 259.2 
L 278.380302 261.888 
L 278.380302 264.576 
L 278.380302 267.264 
L 278.380302 269.952 
L 278.380302 272.64 
L 278.380302 275.328 
L 278.380302 278.016 
L 278.380302 280.704 
L 278.380302 283.392 
L 278.380302 286.08 
L 278.390619 288.768 
L 278.390619 291.456 
L 278.390619 294.144 
L 278.390619 296.832 
L 278.3893 299.52 
L 278.3893 302.208 
L 278.3893 304.896 
L 278.335478 307.584 
L 279.60898 307.584 
z
" clip-path="url(#p8df54d3786)" style="fill: #2e6e8e; fill-opacity: 0.75"/>
   </g>
   <g id="PathCollection_4">
    <path d="M 281.104541 304.896 
L 281.104541 302.208 
L 281.104541 299.52 
L 281.130486 296.832 
L 281.130486 294.144 
L 281.130486 291.456 
L 281.130486 288.768 
L 281.120169 286.08 
L 281.120169 283.392 
L 281.120169 280.704 
L 281.120169 278.016 
L 281.120169 275.328 
L 281.120169 272.64 
L 281.120169 269.952 
L 281.120169 267.264 
L 281.120169 264.576 
L 281.120169 261.888 
L 281.120169 259.2 
L 281.120169 256.512 
L 281.120169 253.824 
L 281.120169 251.136 
L 281.120169 248.448 
L 281.120501 245.76 
L 281.120501 243.072 
L 281.128886 240.384 
L 281.128886 237.696 
L 281.129137 235.008 
L 281.129137 232.32 
L 281.129137 229.632 
L 281.129137 226.944 
L 281.129137 224.256 
L 281.129137 221.568 
L 281.129137 218.88 
L 281.129137 216.192 
L 281.129329 213.504 
L 281.129329 210.816 
L 281.129329 208.128 
L 281.129329 205.44 
L 281.129444 202.752 
L 281.129444 200.064 
L 281.129444 197.376 
L 281.129444 194.688 
L 281.129444 192 
L 281.129444 189.312 
L 281.129444 186.624 
L 281.129444 183.936 
L 281.129444 181.248 
L 281.129444 178.56 
L 281.129444 175.872 
L 281.129444 173.184 
L 281.129444 170.496 
L 281.129444 167.808 
L 281.129444 165.12 
L 281.129444 162.432 
L 281.129444 159.744 
L 281.129444 157.056 
L 281.129444 154.368 
L 281.129444 151.68 
L 281.129444 148.992 
L 281.129444 146.304 
L 281.129444 143.616 
L 281.129444 140.928 
L 281.129444 138.24 
L 281.129444 135.552 
L 281.129444 132.864 
L 281.129444 130.176 
L 281.129444 127.488 
L 281.129444 124.8 
L 281.129444 122.112 
L 281.129444 119.424 
L 281.129444 116.736 
L 281.129444 114.048 
L 281.129444 111.36 
L 281.129444 108.672 
L 281.129444 105.984 
L 281.129444 103.296 
L 281.129444 100.608 
L 281.129444 97.92 
L 281.129444 95.232 
L 281.129444 92.544 
L 281.129444 89.856 
L 281.129444 87.168 
L 281.129444 84.48 
L 281.129444 81.792 
L 281.129444 79.104 
L 281.129444 76.416 
L 281.129444 73.728 
L 281.129444 71.04 
L 281.129444 68.352 
L 281.129444 65.664 
L 281.129444 62.976 
L 281.129444 60.288 
L 281.129444 57.6 
L 281.129444 54.912 
L 281.129444 52.224 
L 281.129444 49.536 
L 281.129444 46.848 
L 281.129444 44.16 
L 281.129444 41.472 
L 279.769238 41.472 
L 279.769238 44.16 
L 279.769238 46.848 
L 279.769238 49.536 
L 279.769238 52.224 
L 279.769238 54.912 
L 279.769238 57.6 
L 279.769238 60.288 
L 279.769238 62.976 
L 279.769238 65.664 
L 279.769238 68.352 
L 279.769238 71.04 
L 279.769238 73.728 
L 279.769238 76.416 
L 279.769238 79.104 
L 279.769238 81.792 
L 279.769238 84.48 
L 279.769238 87.168 
L 279.769238 89.856 
L 279.769238 92.544 
L 279.769238 95.232 
L 279.769238 97.92 
L 279.769238 100.608 
L 279.769238 103.296 
L 279.769238 105.984 
L 279.769238 108.672 
L 279.769238 111.36 
L 279.769238 114.048 
L 279.769238 116.736 
L 279.769238 119.424 
L 279.769238 122.112 
L 279.769238 124.8 
L 279.769238 127.488 
L 279.769238 130.176 
L 279.769238 132.864 
L 279.769238 135.552 
L 279.769238 138.24 
L 279.769238 140.928 
L 279.769238 143.616 
L 279.769238 146.304 
L 279.769238 148.992 
L 279.769238 151.68 
L 279.769238 154.368 
L 279.769238 157.056 
L 279.769238 159.744 
L 279.769238 162.432 
L 279.769238 165.12 
L 279.769238 167.808 
L 279.769238 170.496 
L 279.769238 173.184 
L 279.769238 175.872 
L 279.769238 178.56 
L 279.769238 181.248 
L 279.769238 183.936 
L 279.769238 186.624 
L 279.769238 189.312 
L 279.769238 192 
L 279.769238 194.688 
L 279.769238 197.376 
L 279.769238 200.064 
L 279.769238 202.752 
L 279.767834 205.44 
L 279.767834 208.128 
L 279.767834 210.816 
L 279.767834 213.504 
L 279.765488 216.192 
L 279.765488 218.88 
L 279.765488 221.568 
L 279.765488 224.256 
L 279.765488 226.944 
L 279.765488 229.632 
L 279.765488 232.32 
L 279.765488 235.008 
L 279.762432 237.696 
L 279.762432 240.384 
L 279.754047 243.072 
L 279.754047 245.76 
L 279.750235 248.448 
L 279.750235 251.136 
L 279.750235 253.824 
L 279.750235 256.512 
L 279.750235 259.2 
L 279.750235 261.888 
L 279.750235 264.576 
L 279.750235 267.264 
L 279.750235 269.952 
L 279.750235 272.64 
L 279.750235 275.328 
L 279.750235 278.016 
L 279.750235 280.704 
L 279.750235 283.392 
L 279.750235 286.08 
L 279.760553 288.768 
L 279.760553 291.456 
L 279.760553 294.144 
L 279.760553 296.832 
L 279.74692 299.52 
L 279.74692 302.208 
L 279.74692 304.896 
L 279.60898 307.584 
L 280.882482 307.584 
z
" clip-path="url(#p8df54d3786)" style="fill: #21918c; fill-opacity: 0.75"/>
   </g>
   <g id="PathCollection_5">
    <path d="M 281.250909 307.584 
L 284.858182 307.584 
L 287.828506 307.584 
L 288.465455 305.56619 
L 289.313347 304.896 
L 289.313347 302.208 
L 289.313347 299.52 
L 289.819687 296.832 
L 289.819687 294.144 
L 289.819687 291.456 
L 289.819687 288.768 
L 289.819687 286.08 
L 289.819687 283.392 
L 289.819687 280.704 
L 289.819687 278.016 
L 289.819687 275.328 
L 289.819687 272.64 
L 289.819687 269.952 
L 289.819687 267.264 
L 289.819687 264.576 
L 289.819687 261.888 
L 289.819687 259.2 
L 289.819687 256.512 
L 289.819687 253.824 
L 289.819687 251.136 
L 289.819687 248.448 
L 289.819687 245.76 
L 289.819687 243.072 
L 289.922482 240.384 
L 289.922482 237.696 
L 289.922482 235.008 
L 289.922482 232.32 
L 289.922482 229.632 
L 289.922482 226.944 
L 289.922482 224.256 
L 289.922482 221.568 
L 289.922482 218.88 
L 289.922482 216.192 
L 289.922482 213.504 
L 289.922482 210.816 
L 289.922482 208.128 
L 289.922482 205.44 
L 289.922482 202.752 
L 289.922482 200.064 
L 289.922482 197.376 
L 289.922482 194.688 
L 289.922482 192 
L 289.922482 189.312 
L 289.922482 186.624 
L 289.922482 183.936 
L 289.922482 181.248 
L 289.922482 178.56 
L 289.922482 175.872 
L 289.922482 173.184 
L 289.922482 170.496 
L 289.922482 167.808 
L 289.922482 165.12 
L 289.922482 162.432 
L 289.922482 159.744 
L 289.922482 157.056 
L 289.922482 154.368 
L 289.922482 151.68 
L 289.922482 148.992 
L 289.922482 146.304 
L 289.922482 143.616 
L 289.922482 140.928 
L 289.922482 138.24 
L 289.922482 135.552 
L 289.922482 132.864 
L 289.922482 130.176 
L 289.922482 127.488 
L 289.922482 124.8 
L 289.922482 122.112 
L 289.922482 119.424 
L 289.922482 116.736 
L 289.922482 114.048 
L 289.922482 111.36 
L 289.922482 108.672 
L 289.922482 105.984 
L 289.922482 103.296 
L 289.922482 100.608 
L 289.922482 97.92 
L 289.922482 95.232 
L 289.922482 92.544 
L 289.922482 89.856 
L 289.922482 87.168 
L 289.922482 84.48 
L 289.922482 81.792 
L 289.922482 79.104 
L 289.922482 76.416 
L 289.922482 73.728 
L 289.922482 71.04 
L 289.922482 68.352 
L 289.922482 65.664 
L 289.922482 62.976 
L 289.922482 60.288 
L 289.922482 57.6 
L 289.922482 54.912 
L 289.922482 52.224 
L 289.922482 49.536 
L 289.922482 46.848 
L 289.922482 44.16 
L 289.922482 41.472 
L 288.465455 41.472 
L 284.858182 41.472 
L 281.250909 41.472 
L 281.129444 41.472 
L 281.129444 44.16 
L 281.129444 46.848 
L 281.129444 49.536 
L 281.129444 52.224 
L 281.129444 54.912 
L 281.129444 57.6 
L 281.129444 60.288 
L 281.129444 62.976 
L 281.129444 65.664 
L 281.129444 68.352 
L 281.129444 71.04 
L 281.129444 73.728 
L 281.129444 76.416 
L 281.129444 79.104 
L 281.129444 81.792 
L 281.129444 84.48 
L 281.129444 87.168 
L 281.129444 89.856 
L 281.129444 92.544 
L 281.129444 95.232 
L 281.129444 97.92 
L 281.129444 100.608 
L 281.129444 103.296 
L 281.129444 105.984 
L 281.129444 108.672 
L 281.129444 111.36 
L 281.129444 114.048 
L 281.129444 116.736 
L 281.129444 119.424 
L 281.129444 122.112 
L 281.129444 124.8 
L 281.129444 127.488 
L 281.129444 130.176 
L 281.129444 132.864 
L 281.129444 135.552 
L 281.129444 138.24 
L 281.129444 140.928 
L 281.129444 143.616 
L 281.129444 146.304 
L 281.129444 148.992 
L 281.129444 151.68 
L 281.129444 154.368 
L 281.129444 157.056 
L 281.129444 159.744 
L 281.129444 162.432 
L 281.129444 165.12 
L 281.129444 167.808 
L 281.129444 170.496 
L 281.129444 173.184 
L 281.129444 175.872 
L 281.129444 178.56 
L 281.129444 181.248 
L 281.129444 183.936 
L 281.129444 186.624 
L 281.129444 189.312 
L 281.129444 192 
L 281.129444 194.688 
L 281.129444 197.376 
L 281.129444 200.064 
L 281.129444 202.752 
L 281.129329 205.44 
L 281.129329 208.128 
L 281.129329 210.816 
L 281.129329 213.504 
L 281.129137 216.192 
L 281.129137 218.88 
L 281.129137 221.568 
L 281.129137 224.256 
L 281.129137 226.944 
L 281.129137 229.632 
L 281.129137 232.32 
L 281.129137 235.008 
L 281.128886 237.696 
L 281.128886 240.384 
L 281.120501 243.072 
L 281.120501 245.76 
L 281.120169 248.448 
L 281.120169 251.136 
L 281.120169 253.824 
L 281.120169 256.512 
L 281.120169 259.2 
L 281.120169 261.888 
L 281.120169 264.576 
L 281.120169 267.264 
L 281.120169 269.952 
L 281.120169 272.64 
L 281.120169 275.328 
L 281.120169 278.016 
L 281.120169 280.704 
L 281.120169 283.392 
L 281.120169 286.08 
L 281.130486 288.768 
L 281.130486 291.456 
L 281.130486 294.144 
L 281.130486 296.832 
L 281.104541 299.52 
L 281.104541 302.208 
L 281.104541 304.896 
L 280.882482 307.584 
z
" clip-path="url(#p8df54d3786)" style="fill: #2db27d; fill-opacity: 0.75"/>
   </g>
   <g id="PathCollection_6">
    <path d="M 288.465455 307.584 
L 292.072727 307.584 
L 295.68 307.584 
L 299.287273 307.584 
L 302.894545 307.584 
L 306.501818 307.584 
L 310.109091 307.584 
L 313.716364 307.584 
L 317.323636 307.584 
L 320.930909 307.584 
L 324.538182 307.584 
L 328.145455 307.584 
L 331.752727 307.584 
L 335.36 307.584 
L 338.967273 307.584 
L 342.574545 307.584 
L 346.181818 307.584 
L 349.789091 307.584 
L 353.396364 307.584 
L 355.253819 307.584 
L 357.003636 306.84926 
L 360.610909 305.098181 
L 364.218182 305.098181 
L 367.825455 305.098181 
L 368.759094 304.896 
L 368.759094 302.208 
L 368.759094 299.52 
L 370.229169 296.832 
L 370.229169 294.144 
L 370.229169 291.456 
L 370.229169 288.768 
L 370.229169 286.08 
L 370.229169 283.392 
L 370.229169 280.704 
L 370.229169 278.016 
L 370.229169 275.328 
L 370.229169 272.64 
L 370.229169 269.952 
L 370.229169 267.264 
L 370.229169 264.576 
L 370.229169 261.888 
L 370.229169 259.2 
L 370.229169 256.512 
L 370.229169 253.824 
L 370.229169 251.136 
L 370.229169 248.448 
L 370.229169 245.76 
L 370.229169 243.072 
L 370.229169 240.384 
L 370.229169 237.696 
L 370.229169 235.008 
L 370.229169 232.32 
L 370.229169 229.632 
L 370.229169 226.944 
L 370.229169 224.256 
L 370.229169 221.568 
L 370.229169 218.88 
L 370.229169 216.192 
L 370.229169 213.504 
L 370.229169 210.816 
L 370.229169 208.128 
L 370.229169 205.44 
L 370.229169 202.752 
L 370.229169 200.064 
L 370.229169 197.376 
L 370.229169 194.688 
L 370.229169 192 
L 370.229169 189.312 
L 370.229169 186.624 
L 370.229169 183.936 
L 370.229169 181.248 
L 370.229169 178.56 
L 370.229169 175.872 
L 370.229169 173.184 
L 370.229169 170.496 
L 370.229169 167.808 
L 370.229169 165.12 
L 370.229169 162.432 
L 370.229169 159.744 
L 370.229169 157.056 
L 370.229169 154.368 
L 370.229169 151.68 
L 370.229169 148.992 
L 370.229169 146.304 
L 370.229169 143.616 
L 370.229169 140.928 
L 370.229169 138.24 
L 370.229169 135.552 
L 370.229169 132.864 
L 370.229169 130.176 
L 370.229169 127.488 
L 370.229169 124.8 
L 370.229169 122.112 
L 370.229169 119.424 
L 370.229169 116.736 
L 370.229169 114.048 
L 370.229169 111.36 
L 370.229169 108.672 
L 370.229169 105.984 
L 370.229169 103.296 
L 370.229169 100.608 
L 370.229169 97.92 
L 370.229169 95.232 
L 370.229169 92.544 
L 370.229169 89.856 
L 370.229169 87.168 
L 370.229169 84.48 
L 370.229169 81.792 
L 370.229169 79.104 
L 370.229169 76.416 
L 370.229169 73.728 
L 370.229169 71.04 
L 370.229169 68.352 
L 370.229169 65.664 
L 370.229169 62.976 
L 370.229169 60.288 
L 370.229169 57.6 
L 370.229169 54.912 
L 370.229169 52.224 
L 370.229169 49.536 
L 370.229169 46.848 
L 370.229169 44.16 
L 370.229169 41.472 
L 367.825455 41.472 
L 364.218182 41.472 
L 360.610909 41.472 
L 357.003636 41.472 
L 353.396364 41.472 
L 349.789091 41.472 
L 346.181818 41.472 
L 342.574545 41.472 
L 338.967273 41.472 
L 335.36 41.472 
L 331.752727 41.472 
L 328.145455 41.472 
L 324.538182 41.472 
L 320.930909 41.472 
L 317.323636 41.472 
L 313.716364 41.472 
L 310.109091 41.472 
L 306.501818 41.472 
L 302.894545 41.472 
L 299.287273 41.472 
L 295.68 41.472 
L 292.072727 41.472 
L 289.922482 41.472 
L 289.922482 44.16 
L 289.922482 46.848 
L 289.922482 49.536 
L 289.922482 52.224 
L 289.922482 54.912 
L 289.922482 57.6 
L 289.922482 60.288 
L 289.922482 62.976 
L 289.922482 65.664 
L 289.922482 68.352 
L 289.922482 71.04 
L 289.922482 73.728 
L 289.922482 76.416 
L 289.922482 79.104 
L 289.922482 81.792 
L 289.922482 84.48 
L 289.922482 87.168 
L 289.922482 89.856 
L 289.922482 92.544 
L 289.922482 95.232 
L 289.922482 97.92 
L 289.922482 100.608 
L 289.922482 103.296 
L 289.922482 105.984 
L 289.922482 108.672 
L 289.922482 111.36 
L 289.922482 114.048 
L 289.922482 116.736 
L 289.922482 119.424 
L 289.922482 122.112 
L 289.922482 124.8 
L 289.922482 127.488 
L 289.922482 130.176 
L 289.922482 132.864 
L 289.922482 135.552 
L 289.922482 138.24 
L 289.922482 140.928 
L 289.922482 143.616 
L 289.922482 146.304 
L 289.922482 148.992 
L 289.922482 151.68 
L 289.922482 154.368 
L 289.922482 157.056 
L 289.922482 159.744 
L 289.922482 162.432 
L 289.922482 165.12 
L 289.922482 167.808 
L 289.922482 170.496 
L 289.922482 173.184 
L 289.922482 175.872 
L 289.922482 178.56 
L 289.922482 181.248 
L 289.922482 183.936 
L 289.922482 186.624 
L 289.922482 189.312 
L 289.922482 192 
L 289.922482 194.688 
L 289.922482 197.376 
L 289.922482 200.064 
L 289.922482 202.752 
L 289.922482 205.44 
L 289.922482 208.128 
L 289.922482 210.816 
L 289.922482 213.504 
L 289.922482 216.192 
L 289.922482 218.88 
L 289.922482 221.568 
L 289.922482 224.256 
L 289.922482 226.944 
L 289.922482 229.632 
L 289.922482 232.32 
L 289.922482 235.008 
L 289.922482 237.696 
L 289.922482 240.384 
L 289.819687 243.072 
L 289.819687 245.76 
L 289.819687 248.448 
L 289.819687 251.136 
L 289.819687 253.824 
L 289.819687 256.512 
L 289.819687 259.2 
L 289.819687 261.888 
L 289.819687 264.576 
L 289.819687 267.264 
L 289.819687 269.952 
L 289.819687 272.64 
L 289.819687 275.328 
L 289.819687 278.016 
L 289.819687 280.704 
L 289.819687 283.392 
L 289.819687 286.08 
L 289.819687 288.768 
L 289.819687 291.456 
L 289.819687 294.144 
L 289.819687 296.832 
L 289.313347 299.52 
L 289.313347 302.208 
L 289.313347 304.896 
L 288.465455 305.56619 
L 287.828506 307.584 
z
" clip-path="url(#p8df54d3786)" style="fill: #73d056; fill-opacity: 0.75"/>
   </g>
   <g id="PathCollection_7">
    <path d="M 357.003636 307.584 
L 360.610909 307.584 
L 364.218182 307.584 
L 367.825455 307.584 
L 371.432727 307.584 
L 375.04 307.584 
L 378.647273 307.584 
L 382.254545 307.584 
L 385.861818 307.584 
L 389.469091 307.584 
L 393.076364 307.584 
L 396.683636 307.584 
L 400.290909 307.584 
L 403.898182 307.584 
L 407.505455 307.584 
L 411.112727 307.584 
L 414.72 307.584 
L 414.72 304.896 
L 414.72 302.208 
L 414.72 299.52 
L 414.72 296.832 
L 414.72 294.144 
L 414.72 291.456 
L 414.72 288.768 
L 414.72 286.08 
L 414.72 283.392 
L 414.72 280.704 
L 414.72 278.016 
L 414.72 275.328 
L 414.72 272.64 
L 414.72 269.952 
L 414.72 267.264 
L 414.72 264.576 
L 414.72 261.888 
L 414.72 259.2 
L 414.72 256.512 
L 414.72 253.824 
L 414.72 251.136 
L 414.72 248.448 
L 414.72 245.76 
L 414.72 243.072 
L 414.72 240.384 
L 414.72 237.696 
L 414.72 235.008 
L 414.72 232.32 
L 414.72 229.632 
L 414.72 226.944 
L 414.72 224.256 
L 414.72 221.568 
L 414.72 218.88 
L 414.72 216.192 
L 414.72 213.504 
L 414.72 210.816 
L 414.72 208.128 
L 414.72 205.44 
L 414.72 202.752 
L 414.72 200.064 
L 414.72 197.376 
L 414.72 194.688 
L 414.72 192 
L 414.72 189.312 
L 414.72 186.624 
L 414.72 183.936 
L 414.72 181.248 
L 414.72 178.56 
L 414.72 175.872 
L 414.72 173.184 
L 414.72 170.496 
L 414.72 167.808 
L 414.72 165.12 
L 414.72 162.432 
L 414.72 159.744 
L 414.72 157.056 
L 414.72 154.368 
L 414.72 151.68 
L 414.72 148.992 
L 414.72 146.304 
L 414.72 143.616 
L 414.72 140.928 
L 414.72 138.24 
L 414.72 135.552 
L 414.72 132.864 
L 414.72 130.176 
L 414.72 127.488 
L 414.72 124.8 
L 414.72 122.112 
L 414.72 119.424 
L 414.72 116.736 
L 414.72 114.048 
L 414.72 111.36 
L 414.72 108.672 
L 414.72 105.984 
L 414.72 103.296 
L 414.72 100.608 
L 414.72 97.92 
L 414.72 95.232 
L 414.72 92.544 
L 414.72 89.856 
L 414.72 87.168 
L 414.72 84.48 
L 414.72 81.792 
L 414.72 79.104 
L 414.72 76.416 
L 414.72 73.728 
L 414.72 71.04 
L 414.72 68.352 
L 414.72 65.664 
L 414.72 62.976 
L 414.72 60.288 
L 414.72 57.6 
L 414.72 54.912 
L 414.72 52.224 
L 414.72 49.536 
L 414.72 46.848 
L 414.72 44.16 
L 414.72 41.472 
L 411.112727 41.472 
L 407.505455 41.472 
L 403.898182 41.472 
L 400.290909 41.472 
L 396.683636 41.472 
L 393.076364 41.472 
L 389.469091 41.472 
L 385.861818 41.472 
L 382.254545 41.472 
L 378.647273 41.472 
L 375.04 41.472 
L 371.432727 41.472 
L 370.229169 41.472 
L 370.229169 44.16 
L 370.229169 46.848 
L 370.229169 49.536 
L 370.229169 52.224 
L 370.229169 54.912 
L 370.229169 57.6 
L 370.229169 60.288 
L 370.229169 62.976 
L 370.229169 65.664 
L 370.229169 68.352 
L 370.229169 71.04 
L 370.229169 73.728 
L 370.229169 76.416 
L 370.229169 79.104 
L 370.229169 81.792 
L 370.229169 84.48 
L 370.229169 87.168 
L 370.229169 89.856 
L 370.229169 92.544 
L 370.229169 95.232 
L 370.229169 97.92 
L 370.229169 100.608 
L 370.229169 103.296 
L 370.229169 105.984 
L 370.229169 108.672 
L 370.229169 111.36 
L 370.229169 114.048 
L 370.229169 116.736 
L 370.229169 119.424 
L 370.229169 122.112 
L 370.229169 124.8 
L 370.229169 127.488 
L 370.229169 130.176 
L 370.229169 132.864 
L 370.229169 135.552 
L 370.229169 138.24 
L 370.229169 140.928 
L 370.229169 143.616 
L 370.229169 146.304 
L 370.229169 148.992 
L 370.229169 151.68 
L 370.229169 154.368 
L 370.229169 157.056 
L 370.229169 159.744 
L 370.229169 162.432 
L 370.229169 165.12 
L 370.229169 167.808 
L 370.229169 170.496 
L 370.229169 173.184 
L 370.229169 175.872 
L 370.229169 178.56 
L 370.229169 181.248 
L 370.229169 183.936 
L 370.229169 186.624 
L 370.229169 189.312 
L 370.229169 192 
L 370.229169 194.688 
L 370.229169 197.376 
L 370.229169 200.064 
L 370.229169 202.752 
L 370.229169 205.44 
L 370.229169 208.128 
L 370.229169 210.816 
L 370.229169 213.504 
L 370.229169 216.192 
L 370.229169 218.88 
L 370.229169 221.568 
L 370.229169 224.256 
L 370.229169 226.944 
L 370.229169 229.632 
L 370.229169 232.32 
L 370.229169 235.008 
L 370.229169 237.696 
L 370.229169 240.384 
L 370.229169 243.072 
L 370.229169 245.76 
L 370.229169 248.448 
L 370.229169 251.136 
L 370.229169 253.824 
L 370.229169 256.512 
L 370.229169 259.2 
L 370.229169 261.888 
L 370.229169 264.576 
L 370.229169 267.264 
L 370.229169 269.952 
L 370.229169 272.64 
L 370.229169 275.328 
L 370.229169 278.016 
L 370.229169 280.704 
L 370.229169 283.392 
L 370.229169 286.08 
L 370.229169 288.768 
L 370.229169 291.456 
L 370.229169 294.144 
L 370.229169 296.832 
L 368.759094 299.52 
L 368.759094 302.208 
L 368.759094 304.896 
L 367.825455 305.098181 
L 364.218182 305.098181 
L 360.610909 305.098181 
L 357.003636 306.84926 
L 355.253819 307.584 
z
" clip-path="url(#p8df54d3786)" style="fill: #d0e11c; fill-opacity: 0.75"/>
   </g>
   <g id="matplotlib.axis_1">
    <g id="xtick_1">
     <g id="line2d_1">
      <defs>
       <path id="m60354468fc" d="M 0 0 
L 0 3.5 
" style="stroke: #000000; stroke-width: 0.8"/>
      </defs>
      <g>
       <use xlink:href="#m60354468fc" x="97.812473" y="307.584" style="stroke: #000000; stroke-width: 0.8"/>
      </g>
     </g>
     <g id="text_1">
      <!-- −1.0 -->
      <g transform="translate(85.671066 322.182437) scale(0.1 -0.1)">
       <defs>
        <path id="DejaVuSans-2212" d="M 678 2272 
L 4684 2272 
L 4684 1741 
L 678 1741 
L 678 2272 
z
" transform="scale(0.015625)"/>
        <path id="DejaVuSans-31" d="M 794 531 
L 1825 531 
L 1825 4091 
L 703 3866 
L 703 4441 
L 1819 4666 
L 2450 4666 
L 2450 531 
L 3481 531 
L 3481 0 
L 794 0 
L 794 531 
z
" transform="scale(0.015625)"/>
        <path id="DejaVuSans-2e" d="M 684 794 
L 1344 794 
L 1344 0 
L 684 0 
L 684 794 
z
" transform="scale(0.015625)"/>
        <path id="DejaVuSans-30" d="M 2034 4250 
Q 1547 4250 1301 3770 
Q 1056 3291 1056 2328 
Q 1056 1369 1301 889 
Q 1547 409 2034 409 
Q 2525 409 2770 889 
Q 3016 1369 3016 2328 
Q 3016 3291 2770 3770 
Q 2525 4250 2034 4250 
z
M 2034 4750 
Q 2819 4750 3233 4129 
Q 3647 3509 3647 2328 
Q 3647 1150 3233 529 
Q 2819 -91 2034 -91 
Q 1250 -91 836 529 
Q 422 1150 422 2328 
Q 422 3509 836 4129 
Q 1250 4750 2034 4750 
z
" transform="scale(0.015625)"/>
       </defs>
       <use xlink:href="#DejaVuSans-2212"/>
       <use xlink:href="#DejaVuSans-31" x="83.789062"/>
       <use xlink:href="#DejaVuSans-2e" x="147.412109"/>
       <use xlink:href="#DejaVuSans-30" x="179.199219"/>
      </g>
     </g>
    </g>
    <g id="xtick_2">
     <g id="line2d_2">
      <g>
       <use xlink:href="#m60354468fc" x="159.253289" y="307.584" style="stroke: #000000; stroke-width: 0.8"/>
      </g>
     </g>
     <g id="text_2">
      <!-- −0.5 -->
      <g transform="translate(147.111883 322.182437) scale(0.1 -0.1)">
       <defs>
        <path id="DejaVuSans-35" d="M 691 4666 
L 3169 4666 
L 3169 4134 
L 1269 4134 
L 1269 2991 
Q 1406 3038 1543 3061 
Q 1681 3084 1819 3084 
Q 2600 3084 3056 2656 
Q 3513 2228 3513 1497 
Q 3513 744 3044 326 
Q 2575 -91 1722 -91 
Q 1428 -91 1123 -41 
Q 819 9 494 109 
L 494 744 
Q 775 591 1075 516 
Q 1375 441 1709 441 
Q 2250 441 2565 725 
Q 2881 1009 2881 1497 
Q 2881 1984 2565 2268 
Q 2250 2553 1709 2553 
Q 1456 2553 1204 2497 
Q 953 2441 691 2322 
L 691 4666 
z
" transform="scale(0.015625)"/>
       </defs>
       <use xlink:href="#DejaVuSans-2212"/>
       <use xlink:href="#DejaVuSans-30" x="83.789062"/>
       <use xlink:href="#DejaVuSans-2e" x="147.412109"/>
       <use xlink:href="#DejaVuSans-35" x="179.199219"/>
      </g>
     </g>
    </g>
    <g id="xtick_3">
     <g id="line2d_3">
      <g>
       <use xlink:href="#m60354468fc" x="220.694106" y="307.584" style="stroke: #000000; stroke-width: 0.8"/>
      </g>
     </g>
     <g id="text_3">
      <!-- 0.0 -->
      <g transform="translate(212.742544 322.182437) scale(0.1 -0.1)">
       <use xlink:href="#DejaVuSans-30"/>
       <use xlink:href="#DejaVuSans-2e" x="63.623047"/>
       <use xlink:href="#DejaVuSans-30" x="95.410156"/>
      </g>
     </g>
    </g>
    <g id="xtick_4">
     <g id="line2d_4">
      <g>
       <use xlink:href="#m60354468fc" x="282.134923" y="307.584" style="stroke: #000000; stroke-width: 0.8"/>
      </g>
     </g>
     <g id="text_4">
      <!-- 0.5 -->
      <g transform="translate(274.18336 322.182437) scale(0.1 -0.1)">
       <use xlink:href="#DejaVuSans-30"/>
       <use xlink:href="#DejaVuSans-2e" x="63.623047"/>
       <use xlink:href="#DejaVuSans-35" x="95.410156"/>
      </g>
     </g>
    </g>
    <g id="xtick_5">
     <g id="line2d_5">
      <g>
       <use xlink:href="#m60354468fc" x="343.57574" y="307.584" style="stroke: #000000; stroke-width: 0.8"/>
      </g>
     </g>
     <g id="text_5">
      <!-- 1.0 -->
      <g transform="translate(335.624177 322.182437) scale(0.1 -0.1)">
       <use xlink:href="#DejaVuSans-31"/>
       <use xlink:href="#DejaVuSans-2e" x="63.623047"/>
       <use xlink:href="#DejaVuSans-30" x="95.410156"/>
      </g>
     </g>
    </g>
    <g id="xtick_6">
     <g id="line2d_6">
      <g>
       <use xlink:href="#m60354468fc" x="405.016557" y="307.584" style="stroke: #000000; stroke-width: 0.8"/>
      </g>
     </g>
     <g id="text_6">
      <!-- 1.5 -->
      <g transform="translate(397.064994 322.182437) scale(0.1 -0.1)">
       <use xlink:href="#DejaVuSans-31"/>
       <use xlink:href="#DejaVuSans-2e" x="63.623047"/>
       <use xlink:href="#DejaVuSans-35" x="95.410156"/>
      </g>
     </g>
    </g>
    <g id="text_7">
     <!-- Median Age -->
     <g transform="translate(206.713125 335.860562) scale(0.1 -0.1)">
      <defs>
       <path id="DejaVuSans-4d" d="M 628 4666 
L 1569 4666 
L 2759 1491 
L 3956 4666 
L 4897 4666 
L 4897 0 
L 4281 0 
L 4281 4097 
L 3078 897 
L 2444 897 
L 1241 4097 
L 1241 0 
L 628 0 
L 628 4666 
z
" transform="scale(0.015625)"/>
       <path id="DejaVuSans-65" d="M 3597 1894 
L 3597 1613 
L 953 1613 
Q 991 1019 1311 708 
Q 1631 397 2203 397 
Q 2534 397 2845 478 
Q 3156 559 3463 722 
L 3463 178 
Q 3153 47 2828 -22 
Q 2503 -91 2169 -91 
Q 1331 -91 842 396 
Q 353 884 353 1716 
Q 353 2575 817 3079 
Q 1281 3584 2069 3584 
Q 2775 3584 3186 3129 
Q 3597 2675 3597 1894 
z
M 3022 2063 
Q 3016 2534 2758 2815 
Q 2500 3097 2075 3097 
Q 1594 3097 1305 2825 
Q 1016 2553 972 2059 
L 3022 2063 
z
" transform="scale(0.015625)"/>
       <path id="DejaVuSans-64" d="M 2906 2969 
L 2906 4863 
L 3481 4863 
L 3481 0 
L 2906 0 
L 2906 525 
Q 2725 213 2448 61 
Q 2172 -91 1784 -91 
Q 1150 -91 751 415 
Q 353 922 353 1747 
Q 353 2572 751 3078 
Q 1150 3584 1784 3584 
Q 2172 3584 2448 3432 
Q 2725 3281 2906 2969 
z
M 947 1747 
Q 947 1113 1208 752 
Q 1469 391 1925 391 
Q 2381 391 2643 752 
Q 2906 1113 2906 1747 
Q 2906 2381 2643 2742 
Q 2381 3103 1925 3103 
Q 1469 3103 1208 2742 
Q 947 2381 947 1747 
z
" transform="scale(0.015625)"/>
       <path id="DejaVuSans-69" d="M 603 3500 
L 1178 3500 
L 1178 0 
L 603 0 
L 603 3500 
z
M 603 4863 
L 1178 4863 
L 1178 4134 
L 603 4134 
L 603 4863 
z
" transform="scale(0.015625)"/>
       <path id="DejaVuSans-61" d="M 2194 1759 
Q 1497 1759 1228 1600 
Q 959 1441 959 1056 
Q 959 750 1161 570 
Q 1363 391 1709 391 
Q 2188 391 2477 730 
Q 2766 1069 2766 1631 
L 2766 1759 
L 2194 1759 
z
M 3341 1997 
L 3341 0 
L 2766 0 
L 2766 531 
Q 2569 213 2275 61 
Q 1981 -91 1556 -91 
Q 1019 -91 701 211 
Q 384 513 384 1019 
Q 384 1609 779 1909 
Q 1175 2209 1959 2209 
L 2766 2209 
L 2766 2266 
Q 2766 2663 2505 2880 
Q 2244 3097 1772 3097 
Q 1472 3097 1187 3025 
Q 903 2953 641 2809 
L 641 3341 
Q 956 3463 1253 3523 
Q 1550 3584 1831 3584 
Q 2591 3584 2966 3190 
Q 3341 2797 3341 1997 
z
" transform="scale(0.015625)"/>
       <path id="DejaVuSans-6e" d="M 3513 2113 
L 3513 0 
L 2938 0 
L 2938 2094 
Q 2938 2591 2744 2837 
Q 2550 3084 2163 3084 
Q 1697 3084 1428 2787 
Q 1159 2491 1159 1978 
L 1159 0 
L 581 0 
L 581 3500 
L 1159 3500 
L 1159 2956 
Q 1366 3272 1645 3428 
Q 1925 3584 2291 3584 
Q 2894 3584 3203 3211 
Q 3513 2838 3513 2113 
z
" transform="scale(0.015625)"/>
       <path id="DejaVuSans-20" transform="scale(0.015625)"/>
       <path id="DejaVuSans-41" d="M 2188 4044 
L 1331 1722 
L 3047 1722 
L 2188 4044 
z
M 1831 4666 
L 2547 4666 
L 4325 0 
L 3669 0 
L 3244 1197 
L 1141 1197 
L 716 0 
L 50 0 
L 1831 4666 
z
" transform="scale(0.015625)"/>
       <path id="DejaVuSans-67" d="M 2906 1791 
Q 2906 2416 2648 2759 
Q 2391 3103 1925 3103 
Q 1463 3103 1205 2759 
Q 947 2416 947 1791 
Q 947 1169 1205 825 
Q 1463 481 1925 481 
Q 2391 481 2648 825 
Q 2906 1169 2906 1791 
z
M 3481 434 
Q 3481 -459 3084 -895 
Q 2688 -1331 1869 -1331 
Q 1566 -1331 1297 -1286 
Q 1028 -1241 775 -1147 
L 775 -588 
Q 1028 -725 1275 -790 
Q 1522 -856 1778 -856 
Q 2344 -856 2625 -561 
Q 2906 -266 2906 331 
L 2906 616 
Q 2728 306 2450 153 
Q 2172 0 1784 0 
Q 1141 0 747 490 
Q 353 981 353 1791 
Q 353 2603 747 3093 
Q 1141 3584 1784 3584 
Q 2172 3584 2450 3431 
Q 2728 3278 2906 2969 
L 2906 3500 
L 3481 3500 
L 3481 434 
z
" transform="scale(0.015625)"/>
      </defs>
      <use xlink:href="#DejaVuSans-4d"/>
      <use xlink:href="#DejaVuSans-65" x="86.279297"/>
      <use xlink:href="#DejaVuSans-64" x="147.802734"/>
      <use xlink:href="#DejaVuSans-69" x="211.279297"/>
      <use xlink:href="#DejaVuSans-61" x="239.0625"/>
      <use xlink:href="#DejaVuSans-6e" x="300.341797"/>
      <use xlink:href="#DejaVuSans-20" x="363.720703"/>
      <use xlink:href="#DejaVuSans-41" x="395.507812"/>
      <use xlink:href="#DejaVuSans-67" x="463.916016"/>
      <use xlink:href="#DejaVuSans-65" x="527.392578"/>
     </g>
    </g>
   </g>
   <g id="matplotlib.axis_2">
    <g id="ytick_1">
     <g id="line2d_7">
      <defs>
       <path id="m5e00199217" d="M 0 0 
L -3.5 0 
" style="stroke: #000000; stroke-width: 0.8"/>
      </defs>
      <g>
       <use xlink:href="#m5e00199217" x="57.6" y="284.639626" style="stroke: #000000; stroke-width: 0.8"/>
      </g>
     </g>
     <g id="text_8">
      <!-- −0.5 -->
      <g transform="translate(26.317187 288.438845) scale(0.1 -0.1)">
       <use xlink:href="#DejaVuSans-2212"/>
       <use xlink:href="#DejaVuSans-30" x="83.789062"/>
       <use xlink:href="#DejaVuSans-2e" x="147.412109"/>
       <use xlink:href="#DejaVuSans-35" x="179.199219"/>
      </g>
     </g>
    </g>
    <g id="ytick_2">
     <g id="line2d_8">
      <g>
       <use xlink:href="#m5e00199217" x="57.6" y="235.259274" style="stroke: #000000; stroke-width: 0.8"/>
      </g>
     </g>
     <g id="text_9">
      <!-- 0.0 -->
      <g transform="translate(34.696875 239.058492) scale(0.1 -0.1)">
       <use xlink:href="#DejaVuSans-30"/>
       <use xlink:href="#DejaVuSans-2e" x="63.623047"/>
       <use xlink:href="#DejaVuSans-30" x="95.410156"/>
      </g>
     </g>
    </g>
    <g id="ytick_3">
     <g id="line2d_9">
      <g>
       <use xlink:href="#m5e00199217" x="57.6" y="185.878922" style="stroke: #000000; stroke-width: 0.8"/>
      </g>
     </g>
     <g id="text_10">
      <!-- 0.5 -->
      <g transform="translate(34.696875 189.67814) scale(0.1 -0.1)">
       <use xlink:href="#DejaVuSans-30"/>
       <use xlink:href="#DejaVuSans-2e" x="63.623047"/>
       <use xlink:href="#DejaVuSans-35" x="95.410156"/>
      </g>
     </g>
    </g>
    <g id="ytick_4">
     <g id="line2d_10">
      <g>
       <use xlink:href="#m5e00199217" x="57.6" y="136.498569" style="stroke: #000000; stroke-width: 0.8"/>
      </g>
     </g>
     <g id="text_11">
      <!-- 1.0 -->
      <g transform="translate(34.696875 140.297788) scale(0.1 -0.1)">
       <use xlink:href="#DejaVuSans-31"/>
       <use xlink:href="#DejaVuSans-2e" x="63.623047"/>
       <use xlink:href="#DejaVuSans-30" x="95.410156"/>
      </g>
     </g>
    </g>
    <g id="ytick_5">
     <g id="line2d_11">
      <g>
       <use xlink:href="#m5e00199217" x="57.6" y="87.118217" style="stroke: #000000; stroke-width: 0.8"/>
      </g>
     </g>
     <g id="text_12">
      <!-- 1.5 -->
      <g transform="translate(34.696875 90.917436) scale(0.1 -0.1)">
       <use xlink:href="#DejaVuSans-31"/>
       <use xlink:href="#DejaVuSans-2e" x="63.623047"/>
       <use xlink:href="#DejaVuSans-35" x="95.410156"/>
      </g>
     </g>
    </g>
    <g id="text_13">
     <!-- Share without Improved Water -->
     <g transform="translate(20.2375 251.030344) rotate(-90) scale(0.1 -0.1)">
      <defs>
       <path id="DejaVuSans-53" d="M 3425 4513 
L 3425 3897 
Q 3066 4069 2747 4153 
Q 2428 4238 2131 4238 
Q 1616 4238 1336 4038 
Q 1056 3838 1056 3469 
Q 1056 3159 1242 3001 
Q 1428 2844 1947 2747 
L 2328 2669 
Q 3034 2534 3370 2195 
Q 3706 1856 3706 1288 
Q 3706 609 3251 259 
Q 2797 -91 1919 -91 
Q 1588 -91 1214 -16 
Q 841 59 441 206 
L 441 856 
Q 825 641 1194 531 
Q 1563 422 1919 422 
Q 2459 422 2753 634 
Q 3047 847 3047 1241 
Q 3047 1584 2836 1778 
Q 2625 1972 2144 2069 
L 1759 2144 
Q 1053 2284 737 2584 
Q 422 2884 422 3419 
Q 422 4038 858 4394 
Q 1294 4750 2059 4750 
Q 2388 4750 2728 4690 
Q 3069 4631 3425 4513 
z
" transform="scale(0.015625)"/>
       <path id="DejaVuSans-68" d="M 3513 2113 
L 3513 0 
L 2938 0 
L 2938 2094 
Q 2938 2591 2744 2837 
Q 2550 3084 2163 3084 
Q 1697 3084 1428 2787 
Q 1159 2491 1159 1978 
L 1159 0 
L 581 0 
L 581 4863 
L 1159 4863 
L 1159 2956 
Q 1366 3272 1645 3428 
Q 1925 3584 2291 3584 
Q 2894 3584 3203 3211 
Q 3513 2838 3513 2113 
z
" transform="scale(0.015625)"/>
       <path id="DejaVuSans-72" d="M 2631 2963 
Q 2534 3019 2420 3045 
Q 2306 3072 2169 3072 
Q 1681 3072 1420 2755 
Q 1159 2438 1159 1844 
L 1159 0 
L 581 0 
L 581 3500 
L 1159 3500 
L 1159 2956 
Q 1341 3275 1631 3429 
Q 1922 3584 2338 3584 
Q 2397 3584 2469 3576 
Q 2541 3569 2628 3553 
L 2631 2963 
z
" transform="scale(0.015625)"/>
       <path id="DejaVuSans-77" d="M 269 3500 
L 844 3500 
L 1563 769 
L 2278 3500 
L 2956 3500 
L 3675 769 
L 4391 3500 
L 4966 3500 
L 4050 0 
L 3372 0 
L 2619 2869 
L 1863 0 
L 1184 0 
L 269 3500 
z
" transform="scale(0.015625)"/>
       <path id="DejaVuSans-74" d="M 1172 4494 
L 1172 3500 
L 2356 3500 
L 2356 3053 
L 1172 3053 
L 1172 1153 
Q 1172 725 1289 603 
Q 1406 481 1766 481 
L 2356 481 
L 2356 0 
L 1766 0 
Q 1100 0 847 248 
Q 594 497 594 1153 
L 594 3053 
L 172 3053 
L 172 3500 
L 594 3500 
L 594 4494 
L 1172 4494 
z
" transform="scale(0.015625)"/>
       <path id="DejaVuSans-6f" d="M 1959 3097 
Q 1497 3097 1228 2736 
Q 959 2375 959 1747 
Q 959 1119 1226 758 
Q 1494 397 1959 397 
Q 2419 397 2687 759 
Q 2956 1122 2956 1747 
Q 2956 2369 2687 2733 
Q 2419 3097 1959 3097 
z
M 1959 3584 
Q 2709 3584 3137 3096 
Q 3566 2609 3566 1747 
Q 3566 888 3137 398 
Q 2709 -91 1959 -91 
Q 1206 -91 779 398 
Q 353 888 353 1747 
Q 353 2609 779 3096 
Q 1206 3584 1959 3584 
z
" transform="scale(0.015625)"/>
       <path id="DejaVuSans-75" d="M 544 1381 
L 544 3500 
L 1119 3500 
L 1119 1403 
Q 1119 906 1312 657 
Q 1506 409 1894 409 
Q 2359 409 2629 706 
Q 2900 1003 2900 1516 
L 2900 3500 
L 3475 3500 
L 3475 0 
L 2900 0 
L 2900 538 
Q 2691 219 2414 64 
Q 2138 -91 1772 -91 
Q 1169 -91 856 284 
Q 544 659 544 1381 
z
M 1991 3584 
L 1991 3584 
z
" transform="scale(0.015625)"/>
       <path id="DejaVuSans-49" d="M 628 4666 
L 1259 4666 
L 1259 0 
L 628 0 
L 628 4666 
z
" transform="scale(0.015625)"/>
       <path id="DejaVuSans-6d" d="M 3328 2828 
Q 3544 3216 3844 3400 
Q 4144 3584 4550 3584 
Q 5097 3584 5394 3201 
Q 5691 2819 5691 2113 
L 5691 0 
L 5113 0 
L 5113 2094 
Q 5113 2597 4934 2840 
Q 4756 3084 4391 3084 
Q 3944 3084 3684 2787 
Q 3425 2491 3425 1978 
L 3425 0 
L 2847 0 
L 2847 2094 
Q 2847 2600 2669 2842 
Q 2491 3084 2119 3084 
Q 1678 3084 1418 2786 
Q 1159 2488 1159 1978 
L 1159 0 
L 581 0 
L 581 3500 
L 1159 3500 
L 1159 2956 
Q 1356 3278 1631 3431 
Q 1906 3584 2284 3584 
Q 2666 3584 2933 3390 
Q 3200 3197 3328 2828 
z
" transform="scale(0.015625)"/>
       <path id="DejaVuSans-70" d="M 1159 525 
L 1159 -1331 
L 581 -1331 
L 581 3500 
L 1159 3500 
L 1159 2969 
Q 1341 3281 1617 3432 
Q 1894 3584 2278 3584 
Q 2916 3584 3314 3078 
Q 3713 2572 3713 1747 
Q 3713 922 3314 415 
Q 2916 -91 2278 -91 
Q 1894 -91 1617 61 
Q 1341 213 1159 525 
z
M 3116 1747 
Q 3116 2381 2855 2742 
Q 2594 3103 2138 3103 
Q 1681 3103 1420 2742 
Q 1159 2381 1159 1747 
Q 1159 1113 1420 752 
Q 1681 391 2138 391 
Q 2594 391 2855 752 
Q 3116 1113 3116 1747 
z
" transform="scale(0.015625)"/>
       <path id="DejaVuSans-76" d="M 191 3500 
L 800 3500 
L 1894 563 
L 2988 3500 
L 3597 3500 
L 2284 0 
L 1503 0 
L 191 3500 
z
" transform="scale(0.015625)"/>
       <path id="DejaVuSans-57" d="M 213 4666 
L 850 4666 
L 1831 722 
L 2809 4666 
L 3519 4666 
L 4500 722 
L 5478 4666 
L 6119 4666 
L 4947 0 
L 4153 0 
L 3169 4050 
L 2175 0 
L 1381 0 
L 213 4666 
z
" transform="scale(0.015625)"/>
      </defs>
      <use xlink:href="#DejaVuSans-53"/>
      <use xlink:href="#DejaVuSans-68" x="63.476562"/>
      <use xlink:href="#DejaVuSans-61" x="126.855469"/>
      <use xlink:href="#DejaVuSans-72" x="188.134766"/>
      <use xlink:href="#DejaVuSans-65" x="226.998047"/>
      <use xlink:href="#DejaVuSans-20" x="288.521484"/>
      <use xlink:href="#DejaVuSans-77" x="320.308594"/>
      <use xlink:href="#DejaVuSans-69" x="402.095703"/>
      <use xlink:href="#DejaVuSans-74" x="429.878906"/>
      <use xlink:href="#DejaVuSans-68" x="469.087891"/>
      <use xlink:href="#DejaVuSans-6f" x="532.466797"/>
      <use xlink:href="#DejaVuSans-75" x="593.648438"/>
      <use xlink:href="#DejaVuSans-74" x="657.027344"/>
      <use xlink:href="#DejaVuSans-20" x="696.236328"/>
      <use xlink:href="#DejaVuSans-49" x="728.023438"/>
      <use xlink:href="#DejaVuSans-6d" x="757.515625"/>
      <use xlink:href="#DejaVuSans-70" x="854.927734"/>
      <use xlink:href="#DejaVuSans-72" x="918.404297"/>
      <use xlink:href="#DejaVuSans-6f" x="957.267578"/>
      <use xlink:href="#DejaVuSans-76" x="1018.449219"/>
      <use xlink:href="#DejaVuSans-65" x="1077.628906"/>
      <use xlink:href="#DejaVuSans-64" x="1139.152344"/>
      <use xlink:href="#DejaVuSans-20" x="1202.628906"/>
      <use xlink:href="#DejaVuSans-57" x="1234.416016"/>
      <use xlink:href="#DejaVuSans-61" x="1326.917969"/>
      <use xlink:href="#DejaVuSans-74" x="1388.197266"/>
      <use xlink:href="#DejaVuSans-65" x="1427.40625"/>
      <use xlink:href="#DejaVuSans-72" x="1488.929688"/>
     </g>
    </g>
   </g>
   <g id="PathCollection_8"/>
   <g id="PathCollection_9">
    <path d="M 220.759852 41.472 
L 220.759852 44.16 
L 220.759852 46.848 
L 220.759852 49.536 
L 220.759852 52.224 
L 220.759852 54.912 
L 220.759852 57.6 
L 220.759852 60.288 
L 220.759852 62.976 
L 220.759852 65.664 
L 220.759852 68.352 
L 220.759852 70.653 
" clip-path="url(#p8df54d3786)" style="fill: none; stroke-dasharray: 1.85,0.8; stroke-dashoffset: 0; stroke: #000000; stroke-width: 0.5"/>
    <path d="M 220.759852 103.683 
L 220.759852 105.984 
L 220.759852 108.672 
L 220.759852 111.36 
L 220.759852 114.048 
L 220.759852 116.736 
L 220.759852 119.424 
L 220.759852 122.112 
L 220.759852 124.8 
L 220.759852 127.488 
L 220.759852 130.176 
L 220.759852 132.864 
L 220.759852 135.552 
L 220.759852 138.24 
L 220.759852 140.928 
L 220.759852 143.616 
L 220.759852 146.304 
L 220.759852 148.992 
L 220.759852 151.68 
L 220.759852 154.368 
L 220.759852 157.056 
L 220.759852 159.744 
L 220.759852 162.432 
L 220.759852 165.12 
L 220.759852 167.808 
L 220.759852 170.496 
L 220.759852 173.184 
L 220.759852 175.872 
L 220.759852 178.56 
L 220.759852 181.248 
L 220.759852 183.936 
L 220.759852 186.624 
L 220.759852 189.312 
L 220.759852 192 
L 220.759852 194.688 
L 220.759852 197.376 
L 220.759852 200.064 
L 220.759852 202.752 
L 220.686693 205.44 
L 220.686693 208.128 
L 220.686693 210.816 
L 220.686693 213.504 
L 220.564711 216.192 
L 220.564711 218.88 
L 220.564711 221.568 
L 220.564711 224.256 
L 220.564711 226.944 
L 220.564711 229.632 
L 220.564711 232.32 
L 220.564711 235.008 
L 220.406428 237.696 
L 220.406428 240.384 
L 220.227554 243.072 
L 219.927273 245.211031 
L 216.32 245.211031 
L 212.712727 245.211031 
L 209.105455 245.211031 
L 208.948413 245.76 
L 208.11509 248.448 
L 208.11509 251.136 
L 208.11509 253.824 
L 208.11509 256.512 
L 208.11509 259.2 
L 208.11509 261.888 
L 208.11509 264.576 
L 208.11509 267.264 
L 208.11509 269.952 
L 207.707868 272.64 
L 207.707868 275.328 
L 207.707868 278.016 
L 207.707868 280.704 
L 207.707868 283.392 
L 207.707868 286.08 
L 208.194423 288.768 
L 208.194423 291.456 
L 208.194423 294.144 
L 208.194423 296.832 
L 208.451158 299.52 
L 208.451158 302.208 
L 208.451158 304.896 
L 208.064574 307.584 
" clip-path="url(#p8df54d3786)" style="fill: none; stroke-dasharray: 1.85,0.8; stroke-dashoffset: 0; stroke: #000000; stroke-width: 0.5"/>
   </g>
   <g id="PathCollection_10">
    <path d="M 278.409031 41.472 
L 278.409031 44.16 
L 278.409031 46.848 
L 278.409031 49.536 
L 278.409031 52.224 
L 278.409031 54.912 
L 278.409031 57.6 
L 278.409031 60.288 
L 278.409031 62.976 
L 278.409031 65.664 
L 278.409031 68.352 
L 278.409031 70.653 
" clip-path="url(#p8df54d3786)" style="fill: none; stroke-dasharray: 1.85,0.8; stroke-dashoffset: 0; stroke: #000000; stroke-width: 0.5"/>
    <path d="M 278.409031 103.683 
L 278.409031 105.984 
L 278.409031 108.672 
L 278.409031 111.36 
L 278.409031 114.048 
L 278.409031 116.736 
L 278.409031 119.424 
L 278.409031 122.112 
L 278.409031 124.8 
L 278.409031 127.488 
L 278.409031 130.176 
L 278.409031 132.864 
L 278.409031 135.552 
L 278.409031 138.24 
L 278.409031 140.928 
L 278.409031 143.616 
L 278.409031 146.304 
L 278.409031 148.992 
L 278.409031 151.68 
L 278.409031 154.368 
L 278.409031 157.056 
L 278.409031 159.744 
L 278.409031 162.432 
L 278.409031 165.12 
L 278.409031 167.808 
L 278.409031 170.496 
L 278.409031 173.184 
L 278.409031 175.872 
L 278.409031 178.56 
L 278.409031 181.248 
L 278.409031 183.936 
L 278.409031 186.624 
L 278.409031 189.312 
L 278.409031 192 
L 278.409031 194.688 
L 278.409031 197.376 
L 278.409031 200.064 
L 278.409031 202.752 
L 278.406339 205.44 
L 278.406339 208.128 
L 278.406339 210.816 
L 278.406339 213.504 
L 278.401839 216.192 
L 278.401839 218.88 
L 278.401839 221.568 
L 278.401839 224.256 
L 278.401839 226.944 
L 278.401839 229.632 
L 278.401839 232.32 
L 278.401839 235.008 
L 278.395978 237.696 
L 278.395978 240.384 
L 278.387593 243.072 
L 278.387593 245.76 
L 278.380302 248.448 
L 278.380302 251.136 
L 278.380302 253.824 
L 278.380302 256.512 
L 278.380302 259.2 
L 278.380302 261.888 
L 278.380302 264.576 
L 278.380302 267.264 
L 278.380302 269.952 
L 278.380302 272.64 
L 278.380302 275.328 
L 278.380302 278.016 
L 278.380302 280.704 
L 278.380302 283.392 
L 278.380302 286.08 
L 278.390619 288.768 
L 278.390619 291.456 
L 278.390619 294.144 
L 278.390619 296.832 
L 278.3893 299.52 
L 278.3893 302.208 
L 278.3893 304.896 
L 278.335478 307.584 
" clip-path="url(#p8df54d3786)" style="fill: none; stroke-dasharray: 1.85,0.8; stroke-dashoffset: 0; stroke: #000000; stroke-width: 0.5"/>
   </g>
   <g id="PathCollection_11">
    <path d="M 279.769238 41.472 
L 279.769238 44.16 
L 279.769238 46.848 
L 279.769238 49.536 
L 279.769238 52.224 
L 279.769238 54.912 
L 279.769238 57.6 
L 279.769238 60.288 
L 279.769238 62.976 
L 279.769238 65.664 
L 279.769238 68.352 
L 279.769238 71.04 
L 279.769238 73.728 
L 279.769238 76.416 
L 279.769238 79.104 
L 279.769238 81.792 
L 279.769238 84.48 
L 279.769238 87.168 
L 279.769238 89.856 
L 279.769238 92.544 
L 279.769238 95.232 
L 279.769238 97.92 
L 279.769238 100.608 
L 279.769238 103.296 
L 279.769238 105.984 
L 279.769238 108.672 
L 279.769238 111.36 
L 279.769238 114.048 
L 279.769238 116.736 
L 279.769238 119.424 
L 279.769238 122.112 
L 279.769238 124.8 
L 279.769238 127.488 
L 279.769238 130.176 
L 279.769238 132.864 
L 279.769238 135.552 
L 279.769238 138.24 
L 279.769238 140.928 
L 279.769238 143.616 
L 279.769238 146.304 
L 279.769238 148.992 
L 279.769238 150.36 
" clip-path="url(#p8df54d3786)" style="fill: none; stroke: #000000; stroke-width: 0.5"/>
    <path d="M 279.769238 179.88 
L 279.769238 181.248 
L 279.769238 183.936 
L 279.769238 186.624 
L 279.769238 189.312 
L 279.769238 192 
L 279.769238 194.688 
L 279.769238 197.376 
L 279.769238 200.064 
L 279.769238 202.752 
L 279.767834 205.44 
L 279.767834 208.128 
L 279.767834 210.816 
L 279.767834 213.504 
L 279.765488 216.192 
L 279.765488 218.88 
L 279.765488 221.568 
L 279.765488 224.256 
L 279.765488 226.944 
L 279.765488 229.632 
L 279.765488 232.32 
L 279.765488 235.008 
L 279.762432 237.696 
L 279.762432 240.384 
L 279.754047 243.072 
L 279.754047 245.76 
L 279.750235 248.448 
L 279.750235 251.136 
L 279.750235 253.824 
L 279.750235 256.512 
L 279.750235 259.2 
L 279.750235 261.888 
L 279.750235 264.576 
L 279.750235 267.264 
L 279.750235 269.952 
L 279.750235 272.64 
L 279.750235 275.328 
L 279.750235 278.016 
L 279.750235 280.704 
L 279.750235 283.392 
L 279.750235 286.08 
L 279.760553 288.768 
L 279.760553 291.456 
L 279.760553 294.144 
L 279.760553 296.832 
L 279.74692 299.52 
L 279.74692 302.208 
L 279.74692 304.896 
L 279.60898 307.584 
" clip-path="url(#p8df54d3786)" style="fill: none; stroke: #000000; stroke-width: 0.5"/>
   </g>
   <g id="PathCollection_12">
    <path d="M 281.129444 41.472 
L 281.129444 44.16 
L 281.129444 46.848 
L 281.129444 49.536 
L 281.129444 52.224 
L 281.129444 54.912 
L 281.129444 57.6 
L 281.129444 60.288 
L 281.129444 62.976 
L 281.129444 65.664 
L 281.129444 68.352 
L 281.129444 71.04 
L 281.129444 73.728 
L 281.129444 76.416 
L 281.129444 79.104 
L 281.129444 81.792 
L 281.129444 84.48 
L 281.129444 87.168 
L 281.129444 89.856 
L 281.129444 92.544 
L 281.129444 95.232 
L 281.129444 97.92 
L 281.129444 100.608 
L 281.129444 103.296 
L 281.129444 105.984 
L 281.129444 108.672 
L 281.129444 111.36 
L 281.129444 114.048 
L 281.129444 116.736 
L 281.129444 119.424 
L 281.129444 122.112 
L 281.129444 124.8 
L 281.129444 127.488 
L 281.129444 130.176 
L 281.129444 132.864 
L 281.129444 135.552 
L 281.129444 138.24 
L 281.129444 140.928 
L 281.129444 143.616 
L 281.129444 146.304 
L 281.129444 148.992 
L 281.129444 151.68 
L 281.129444 154.368 
L 281.129444 157.056 
L 281.129444 159.744 
L 281.129444 162.432 
L 281.129444 165.12 
L 281.129444 167.808 
L 281.129444 170.496 
L 281.129444 173.184 
L 281.129444 175.872 
L 281.129444 178.56 
L 281.129444 181.248 
L 281.129444 183.936 
L 281.129444 186.624 
L 281.129444 189.312 
L 281.129444 192 
L 281.129444 194.688 
L 281.129444 197.376 
L 281.129444 200.064 
L 281.129444 202.752 
L 281.129329 205.44 
L 281.129329 208.128 
L 281.129329 210.816 
L 281.129329 213.504 
L 281.129137 216.192 
L 281.129137 218.88 
L 281.129137 221.568 
L 281.129137 224.256 
L 281.129137 226.944 
L 281.129137 229.632 
L 281.129137 232.32 
L 281.129137 233.688013 
" clip-path="url(#p8df54d3786)" style="fill: none; stroke: #000000; stroke-width: 0.5"/>
    <path d="M 281.120169 263.208 
L 281.120169 264.576 
L 281.120169 267.264 
L 281.120169 269.952 
L 281.120169 272.64 
L 281.120169 275.328 
L 281.120169 278.016 
L 281.120169 280.704 
L 281.120169 283.392 
L 281.120169 286.08 
L 281.130486 288.768 
L 281.130486 291.456 
L 281.130486 294.144 
L 281.130486 296.832 
L 281.104541 299.52 
L 281.104541 302.208 
L 281.104541 304.896 
L 280.882482 307.584 
" clip-path="url(#p8df54d3786)" style="fill: none; stroke: #000000; stroke-width: 0.5"/>
   </g>
   <g id="PathCollection_13">
    <path d="M 289.922482 41.472 
L 289.922482 44.16 
L 289.922482 45.528 
" clip-path="url(#p8df54d3786)" style="fill: none; stroke: #000000; stroke-width: 0.5"/>
    <path d="M 289.922482 75.048 
L 289.922482 76.416 
L 289.922482 79.104 
L 289.922482 81.792 
L 289.922482 84.48 
L 289.922482 87.168 
L 289.922482 89.856 
L 289.922482 92.544 
L 289.922482 95.232 
L 289.922482 97.92 
L 289.922482 100.608 
L 289.922482 103.296 
L 289.922482 105.984 
L 289.922482 108.672 
L 289.922482 111.36 
L 289.922482 114.048 
L 289.922482 116.736 
L 289.922482 119.424 
L 289.922482 122.112 
L 289.922482 124.8 
L 289.922482 127.488 
L 289.922482 130.176 
L 289.922482 132.864 
L 289.922482 135.552 
L 289.922482 138.24 
L 289.922482 140.928 
L 289.922482 143.616 
L 289.922482 146.304 
L 289.922482 148.992 
L 289.922482 151.68 
L 289.922482 154.368 
L 289.922482 157.056 
L 289.922482 159.744 
L 289.922482 162.432 
L 289.922482 165.12 
L 289.922482 167.808 
L 289.922482 170.496 
L 289.922482 173.184 
L 289.922482 175.872 
L 289.922482 178.56 
L 289.922482 181.248 
L 289.922482 183.936 
L 289.922482 186.624 
L 289.922482 189.312 
L 289.922482 192 
L 289.922482 194.688 
L 289.922482 197.376 
L 289.922482 200.064 
L 289.922482 202.752 
L 289.922482 205.44 
L 289.922482 208.128 
L 289.922482 210.816 
L 289.922482 213.504 
L 289.922482 216.192 
L 289.922482 218.88 
L 289.922482 221.568 
L 289.922482 224.256 
L 289.922482 226.944 
L 289.922482 229.632 
L 289.922482 232.32 
L 289.922482 235.008 
L 289.922482 237.696 
L 289.922482 240.384 
L 289.819687 243.072 
L 289.819687 245.76 
L 289.819687 248.448 
L 289.819687 251.136 
L 289.819687 253.824 
L 289.819687 256.512 
L 289.819687 259.2 
L 289.819687 261.888 
L 289.819687 264.576 
L 289.819687 267.264 
L 289.819687 269.952 
L 289.819687 272.64 
L 289.819687 275.328 
L 289.819687 278.016 
L 289.819687 280.704 
L 289.819687 283.392 
L 289.819687 286.08 
L 289.819687 288.768 
L 289.819687 291.456 
L 289.819687 294.144 
L 289.819687 296.832 
L 289.313347 299.52 
L 289.313347 302.208 
L 289.313347 304.896 
L 288.465455 305.56619 
L 287.828506 307.584 
" clip-path="url(#p8df54d3786)" style="fill: none; stroke: #000000; stroke-width: 0.5"/>
   </g>
   <g id="PathCollection_14">
    <path d="M 370.229169 41.472 
L 370.229169 44.16 
L 370.229169 46.848 
L 370.229169 49.536 
L 370.229169 52.224 
L 370.229169 54.912 
L 370.229169 57.6 
L 370.229169 60.288 
L 370.229169 62.976 
L 370.229169 65.664 
L 370.229169 67.032 
" clip-path="url(#p8df54d3786)" style="fill: none; stroke: #000000; stroke-width: 0.5"/>
    <path d="M 370.229169 96.552 
L 370.229169 97.92 
L 370.229169 100.608 
L 370.229169 103.296 
L 370.229169 105.984 
L 370.229169 108.672 
L 370.229169 111.36 
L 370.229169 114.048 
L 370.229169 116.736 
L 370.229169 119.424 
L 370.229169 122.112 
L 370.229169 124.8 
L 370.229169 127.488 
L 370.229169 130.176 
L 370.229169 132.864 
L 370.229169 135.552 
L 370.229169 138.24 
L 370.229169 140.928 
L 370.229169 143.616 
L 370.229169 146.304 
L 370.229169 148.992 
L 370.229169 151.68 
L 370.229169 154.368 
L 370.229169 157.056 
L 370.229169 159.744 
L 370.229169 162.432 
L 370.229169 165.12 
L 370.229169 167.808 
L 370.229169 170.496 
L 370.229169 173.184 
L 370.229169 175.872 
L 370.229169 178.56 
L 370.229169 181.248 
L 370.229169 183.936 
L 370.229169 186.624 
L 370.229169 189.312 
L 370.229169 192 
L 370.229169 194.688 
L 370.229169 197.376 
L 370.229169 200.064 
L 370.229169 202.752 
L 370.229169 205.44 
L 370.229169 208.128 
L 370.229169 210.816 
L 370.229169 213.504 
L 370.229169 216.192 
L 370.229169 218.88 
L 370.229169 221.568 
L 370.229169 224.256 
L 370.229169 226.944 
L 370.229169 229.632 
L 370.229169 232.32 
L 370.229169 235.008 
L 370.229169 237.696 
L 370.229169 240.384 
L 370.229169 243.072 
L 370.229169 245.76 
L 370.229169 248.448 
L 370.229169 251.136 
L 370.229169 253.824 
L 370.229169 256.512 
L 370.229169 259.2 
L 370.229169 261.888 
L 370.229169 264.576 
L 370.229169 267.264 
L 370.229169 269.952 
L 370.229169 272.64 
L 370.229169 275.328 
L 370.229169 278.016 
L 370.229169 280.704 
L 370.229169 283.392 
L 370.229169 286.08 
L 370.229169 288.768 
L 370.229169 291.456 
L 370.229169 294.144 
L 370.229169 296.832 
L 368.759094 299.52 
L 368.759094 302.208 
L 368.759094 304.896 
L 367.825455 305.098181 
L 364.218182 305.098181 
L 360.610909 305.098181 
L 357.003636 306.84926 
L 355.253819 307.584 
" clip-path="url(#p8df54d3786)" style="fill: none; stroke: #000000; stroke-width: 0.5"/>
   </g>
   <g id="PathCollection_15"/>
   <g id="LineCollection_1">
    <path d="M 67.421724 307.584 
L 67.421724 294.2784 
" clip-path="url(#p8df54d3786)" style="fill: none; stroke: #000000; stroke-width: 1.5"/>
    <path d="M 87.540417 307.584 
L 87.540417 294.2784 
" clip-path="url(#p8df54d3786)" style="fill: none; stroke: #000000; stroke-width: 1.5"/>
    <path d="M 125.771214 307.584 
L 125.771214 294.2784 
" clip-path="url(#p8df54d3786)" style="fill: none; stroke: #000000; stroke-width: 1.5"/>
    <path d="M 163.368351 307.584 
L 163.368351 294.2784 
" clip-path="url(#p8df54d3786)" style="fill: none; stroke: #000000; stroke-width: 1.5"/>
    <path d="M 207.67172 307.584 
L 207.67172 294.2784 
" clip-path="url(#p8df54d3786)" style="fill: none; stroke: #000000; stroke-width: 1.5"/>
    <path d="M 252.027893 307.584 
L 252.027893 294.2784 
" clip-path="url(#p8df54d3786)" style="fill: none; stroke: #000000; stroke-width: 1.5"/>
    <path d="M 313.334461 307.584 
L 313.334461 294.2784 
" clip-path="url(#p8df54d3786)" style="fill: none; stroke: #000000; stroke-width: 1.5"/>
    <path d="M 360.542103 307.584 
L 360.542103 294.2784 
" clip-path="url(#p8df54d3786)" style="fill: none; stroke: #000000; stroke-width: 1.5"/>
    <path d="M 394.126062 307.584 
L 394.126062 294.2784 
" clip-path="url(#p8df54d3786)" style="fill: none; stroke: #000000; stroke-width: 1.5"/>
   </g>
   <g id="LineCollection_2">
    <path clip-path="url(#p8df54d3786)" style="fill: none; stroke: #000000; stroke-width: 1.5"/>
    <path clip-path="url(#p8df54d3786)" style="fill: none; stroke: #000000; stroke-width: 1.5"/>
    <path clip-path="url(#p8df54d3786)" style="fill: none; stroke: #000000; stroke-width: 1.5"/>
    <path clip-path="url(#p8df54d3786)" style="fill: none; stroke: #000000; stroke-width: 1.5"/>
    <path clip-path="url(#p8df54d3786)" style="fill: none; stroke: #000000; stroke-width: 1.5"/>
    <path clip-path="url(#p8df54d3786)" style="fill: none; stroke: #000000; stroke-width: 1.5"/>
    <path d="M 220.694106 289.15458 
L 226.838188 289.15458 
" clip-path="url(#p8df54d3786)" style="fill: none; stroke: #000000; stroke-width: 1.5"/>
    <path d="M 220.694106 113.326757 
L 226.838188 113.326757 
" clip-path="url(#p8df54d3786)" style="fill: none; stroke: #000000; stroke-width: 1.5"/>
    <path clip-path="url(#p8df54d3786)" style="fill: none; stroke: #000000; stroke-width: 1.5"/>
   </g>
   <g id="patch_3">
    <path d="M 57.6 307.584 
L 57.6 41.472 
" style="fill: none; stroke: #000000; stroke-width: 0.8; stroke-linejoin: miter; stroke-linecap: square"/>
   </g>
   <g id="patch_4">
    <path d="M 414.72 307.584 
L 414.72 41.472 
" style="fill: none; stroke: #000000; stroke-width: 0.8; stroke-linejoin: miter; stroke-linecap: square"/>
   </g>
   <g id="patch_5">
    <path d="M 57.6 307.584 
L 414.72 307.584 
" style="fill: none; stroke: #000000; stroke-width: 0.8; stroke-linejoin: miter; stroke-linecap: square"/>
   </g>
   <g id="patch_6">
    <path d="M 57.6 41.472 
L 414.72 41.472 
" style="fill: none; stroke: #000000; stroke-width: 0.8; stroke-linejoin: miter; stroke-linecap: square"/>
   </g>
   <g id="text_14">
    <!-- 2D-partial dependency plot between Age and SWIW -->
    <g transform="translate(80.059687 35.472) scale(0.12 -0.12)">
     <defs>
      <path id="DejaVuSans-32" d="M 1228 531 
L 3431 531 
L 3431 0 
L 469 0 
L 469 531 
Q 828 903 1448 1529 
Q 2069 2156 2228 2338 
Q 2531 2678 2651 2914 
Q 2772 3150 2772 3378 
Q 2772 3750 2511 3984 
Q 2250 4219 1831 4219 
Q 1534 4219 1204 4116 
Q 875 4013 500 3803 
L 500 4441 
Q 881 4594 1212 4672 
Q 1544 4750 1819 4750 
Q 2544 4750 2975 4387 
Q 3406 4025 3406 3419 
Q 3406 3131 3298 2873 
Q 3191 2616 2906 2266 
Q 2828 2175 2409 1742 
Q 1991 1309 1228 531 
z
" transform="scale(0.015625)"/>
      <path id="DejaVuSans-44" d="M 1259 4147 
L 1259 519 
L 2022 519 
Q 2988 519 3436 956 
Q 3884 1394 3884 2338 
Q 3884 3275 3436 3711 
Q 2988 4147 2022 4147 
L 1259 4147 
z
M 628 4666 
L 1925 4666 
Q 3281 4666 3915 4102 
Q 4550 3538 4550 2338 
Q 4550 1131 3912 565 
Q 3275 0 1925 0 
L 628 0 
L 628 4666 
z
" transform="scale(0.015625)"/>
      <path id="DejaVuSans-2d" d="M 313 2009 
L 1997 2009 
L 1997 1497 
L 313 1497 
L 313 2009 
z
" transform="scale(0.015625)"/>
      <path id="DejaVuSans-6c" d="M 603 4863 
L 1178 4863 
L 1178 0 
L 603 0 
L 603 4863 
z
" transform="scale(0.015625)"/>
      <path id="DejaVuSans-63" d="M 3122 3366 
L 3122 2828 
Q 2878 2963 2633 3030 
Q 2388 3097 2138 3097 
Q 1578 3097 1268 2742 
Q 959 2388 959 1747 
Q 959 1106 1268 751 
Q 1578 397 2138 397 
Q 2388 397 2633 464 
Q 2878 531 3122 666 
L 3122 134 
Q 2881 22 2623 -34 
Q 2366 -91 2075 -91 
Q 1284 -91 818 406 
Q 353 903 353 1747 
Q 353 2603 823 3093 
Q 1294 3584 2113 3584 
Q 2378 3584 2631 3529 
Q 2884 3475 3122 3366 
z
" transform="scale(0.015625)"/>
      <path id="DejaVuSans-79" d="M 2059 -325 
Q 1816 -950 1584 -1140 
Q 1353 -1331 966 -1331 
L 506 -1331 
L 506 -850 
L 844 -850 
Q 1081 -850 1212 -737 
Q 1344 -625 1503 -206 
L 1606 56 
L 191 3500 
L 800 3500 
L 1894 763 
L 2988 3500 
L 3597 3500 
L 2059 -325 
z
" transform="scale(0.015625)"/>
      <path id="DejaVuSans-62" d="M 3116 1747 
Q 3116 2381 2855 2742 
Q 2594 3103 2138 3103 
Q 1681 3103 1420 2742 
Q 1159 2381 1159 1747 
Q 1159 1113 1420 752 
Q 1681 391 2138 391 
Q 2594 391 2855 752 
Q 3116 1113 3116 1747 
z
M 1159 2969 
Q 1341 3281 1617 3432 
Q 1894 3584 2278 3584 
Q 2916 3584 3314 3078 
Q 3713 2572 3713 1747 
Q 3713 922 3314 415 
Q 2916 -91 2278 -91 
Q 1894 -91 1617 61 
Q 1341 213 1159 525 
L 1159 0 
L 581 0 
L 581 4863 
L 1159 4863 
L 1159 2969 
z
" transform="scale(0.015625)"/>
     </defs>
     <use xlink:href="#DejaVuSans-32"/>
     <use xlink:href="#DejaVuSans-44" x="63.623047"/>
     <use xlink:href="#DejaVuSans-2d" x="140.625"/>
     <use xlink:href="#DejaVuSans-70" x="176.708984"/>
     <use xlink:href="#DejaVuSans-61" x="240.185547"/>
     <use xlink:href="#DejaVuSans-72" x="301.464844"/>
     <use xlink:href="#DejaVuSans-74" x="342.578125"/>
     <use xlink:href="#DejaVuSans-69" x="381.787109"/>
     <use xlink:href="#DejaVuSans-61" x="409.570312"/>
     <use xlink:href="#DejaVuSans-6c" x="470.849609"/>
     <use xlink:href="#DejaVuSans-20" x="498.632812"/>
     <use xlink:href="#DejaVuSans-64" x="530.419922"/>
     <use xlink:href="#DejaVuSans-65" x="593.896484"/>
     <use xlink:href="#DejaVuSans-70" x="655.419922"/>
     <use xlink:href="#DejaVuSans-65" x="718.896484"/>
     <use xlink:href="#DejaVuSans-6e" x="780.419922"/>
     <use xlink:href="#DejaVuSans-64" x="843.798828"/>
     <use xlink:href="#DejaVuSans-65" x="907.275391"/>
     <use xlink:href="#DejaVuSans-6e" x="968.798828"/>
     <use xlink:href="#DejaVuSans-63" x="1032.177734"/>
     <use xlink:href="#DejaVuSans-79" x="1087.158203"/>
     <use xlink:href="#DejaVuSans-20" x="1146.337891"/>
     <use xlink:href="#DejaVuSans-70" x="1178.125"/>
     <use xlink:href="#DejaVuSans-6c" x="1241.601562"/>
     <use xlink:href="#DejaVuSans-6f" x="1269.384766"/>
     <use xlink:href="#DejaVuSans-74" x="1330.566406"/>
     <use xlink:href="#DejaVuSans-20" x="1369.775391"/>
     <use xlink:href="#DejaVuSans-62" x="1401.5625"/>
     <use xlink:href="#DejaVuSans-65" x="1465.039062"/>
     <use xlink:href="#DejaVuSans-74" x="1526.5625"/>
     <use xlink:href="#DejaVuSans-77" x="1565.771484"/>
     <use xlink:href="#DejaVuSans-65" x="1647.558594"/>
     <use xlink:href="#DejaVuSans-65" x="1709.082031"/>
     <use xlink:href="#DejaVuSans-6e" x="1770.605469"/>
     <use xlink:href="#DejaVuSans-20" x="1833.984375"/>
     <use xlink:href="#DejaVuSans-41" x="1865.771484"/>
     <use xlink:href="#DejaVuSans-67" x="1934.179688"/>
     <use xlink:href="#DejaVuSans-65" x="1997.65625"/>
     <use xlink:href="#DejaVuSans-20" x="2059.179688"/>
     <use xlink:href="#DejaVuSans-61" x="2090.966797"/>
     <use xlink:href="#DejaVuSans-6e" x="2152.246094"/>
     <use xlink:href="#DejaVuSans-64" x="2215.625"/>
     <use xlink:href="#DejaVuSans-20" x="2279.101562"/>
     <use xlink:href="#DejaVuSans-53" x="2310.888672"/>
     <use xlink:href="#DejaVuSans-57" x="2374.365234"/>
     <use xlink:href="#DejaVuSans-49" x="2473.242188"/>
     <use xlink:href="#DejaVuSans-57" x="2502.734375"/>
    </g>
   </g>
   <g id="text_15">
    <g clip-path="url(#p8df54d3786)">
     <!-- -0.47 -->
     <g transform="translate(218.000477 74.231281) rotate(-270) scale(0.1 -0.1)">
      <defs>
       <path id="DejaVuSans-34" d="M 2419 4116 
L 825 1625 
L 2419 1625 
L 2419 4116 
z
M 2253 4666 
L 3047 4666 
L 3047 1625 
L 3713 1625 
L 3713 1100 
L 3047 1100 
L 3047 0 
L 2419 0 
L 2419 1100 
L 313 1100 
L 313 1709 
L 2253 4666 
z
" transform="scale(0.015625)"/>
       <path id="DejaVuSans-37" d="M 525 4666 
L 3525 4666 
L 3525 4397 
L 1831 0 
L 1172 0 
L 2766 4134 
L 525 4134 
L 525 4666 
z
" transform="scale(0.015625)"/>
      </defs>
      <use xlink:href="#DejaVuSans-2d"/>
      <use xlink:href="#DejaVuSans-30" x="36.083984"/>
      <use xlink:href="#DejaVuSans-2e" x="99.707031"/>
      <use xlink:href="#DejaVuSans-34" x="131.494141"/>
      <use xlink:href="#DejaVuSans-37" x="195.117188"/>
     </g>
    </g>
   </g>
   <g id="text_16">
    <g clip-path="url(#p8df54d3786)">
     <!-- -0.14 -->
     <g transform="translate(275.649656 74.231281) rotate(-270) scale(0.1 -0.1)">
      <use xlink:href="#DejaVuSans-2d"/>
      <use xlink:href="#DejaVuSans-30" x="36.083984"/>
      <use xlink:href="#DejaVuSans-2e" x="99.707031"/>
      <use xlink:href="#DejaVuSans-31" x="131.494141"/>
      <use xlink:href="#DejaVuSans-34" x="195.117188"/>
     </g>
    </g>
   </g>
   <g id="text_17">
    <g clip-path="url(#p8df54d3786)">
     <!-- 0.19 -->
     <g transform="translate(277.009863 153.987188) rotate(-270) scale(0.1 -0.1)">
      <defs>
       <path id="DejaVuSans-39" d="M 703 97 
L 703 672 
Q 941 559 1184 500 
Q 1428 441 1663 441 
Q 2288 441 2617 861 
Q 2947 1281 2994 2138 
Q 2813 1869 2534 1725 
Q 2256 1581 1919 1581 
Q 1219 1581 811 2004 
Q 403 2428 403 3163 
Q 403 3881 828 4315 
Q 1253 4750 1959 4750 
Q 2769 4750 3195 4129 
Q 3622 3509 3622 2328 
Q 3622 1225 3098 567 
Q 2575 -91 1691 -91 
Q 1453 -91 1209 -44 
Q 966 3 703 97 
z
M 1959 2075 
Q 2384 2075 2632 2365 
Q 2881 2656 2881 3163 
Q 2881 3666 2632 3958 
Q 2384 4250 1959 4250 
Q 1534 4250 1286 3958 
Q 1038 3666 1038 3163 
Q 1038 2656 1286 2365 
Q 1534 2075 1959 2075 
z
" transform="scale(0.015625)"/>
      </defs>
      <use xlink:href="#DejaVuSans-30"/>
      <use xlink:href="#DejaVuSans-2e" x="63.623047"/>
      <use xlink:href="#DejaVuSans-31" x="95.410156"/>
      <use xlink:href="#DejaVuSans-39" x="159.033203"/>
     </g>
    </g>
   </g>
   <g id="text_18">
    <g clip-path="url(#p8df54d3786)">
     <!-- 0.52 -->
     <g transform="translate(283.875176 259.581894) rotate(-89.977524) scale(0.1 -0.1)">
      <use xlink:href="#DejaVuSans-30"/>
      <use xlink:href="#DejaVuSans-2e" x="63.623047"/>
      <use xlink:href="#DejaVuSans-35" x="95.410156"/>
      <use xlink:href="#DejaVuSans-32" x="159.033203"/>
     </g>
    </g>
   </g>
   <g id="text_19">
    <g clip-path="url(#p8df54d3786)">
     <!-- 0.85 -->
     <g transform="translate(287.163107 49.155187) rotate(-270) scale(0.1 -0.1)">
      <defs>
       <path id="DejaVuSans-38" d="M 2034 2216 
Q 1584 2216 1326 1975 
Q 1069 1734 1069 1313 
Q 1069 891 1326 650 
Q 1584 409 2034 409 
Q 2484 409 2743 651 
Q 3003 894 3003 1313 
Q 3003 1734 2745 1975 
Q 2488 2216 2034 2216 
z
M 1403 2484 
Q 997 2584 770 2862 
Q 544 3141 544 3541 
Q 544 4100 942 4425 
Q 1341 4750 2034 4750 
Q 2731 4750 3128 4425 
Q 3525 4100 3525 3541 
Q 3525 3141 3298 2862 
Q 3072 2584 2669 2484 
Q 3125 2378 3379 2068 
Q 3634 1759 3634 1313 
Q 3634 634 3220 271 
Q 2806 -91 2034 -91 
Q 1263 -91 848 271 
Q 434 634 434 1313 
Q 434 1759 690 2068 
Q 947 2378 1403 2484 
z
M 1172 3481 
Q 1172 3119 1398 2916 
Q 1625 2713 2034 2713 
Q 2441 2713 2670 2916 
Q 2900 3119 2900 3481 
Q 2900 3844 2670 4047 
Q 2441 4250 2034 4250 
Q 1625 4250 1398 4047 
Q 1172 3844 1172 3481 
z
" transform="scale(0.015625)"/>
      </defs>
      <use xlink:href="#DejaVuSans-30"/>
      <use xlink:href="#DejaVuSans-2e" x="63.623047"/>
      <use xlink:href="#DejaVuSans-38" x="95.410156"/>
      <use xlink:href="#DejaVuSans-35" x="159.033203"/>
     </g>
    </g>
   </g>
   <g id="text_20">
    <g clip-path="url(#p8df54d3786)">
     <!-- 1.18 -->
     <g transform="translate(367.469794 70.659187) rotate(-270) scale(0.1 -0.1)">
      <use xlink:href="#DejaVuSans-31"/>
      <use xlink:href="#DejaVuSans-2e" x="63.623047"/>
      <use xlink:href="#DejaVuSans-31" x="95.410156"/>
      <use xlink:href="#DejaVuSans-38" x="159.033203"/>
     </g>
    </g>
   </g>
  </g>
 </g>
 <defs>
  <clipPath id="p8df54d3786">
   <rect x="57.6" y="41.472" width="357.12" height="266.112"/>
  </clipPath>
 </defs>
</svg>
