<?xml version="1.0" encoding="utf-8" standalone="no"?>
<!DOCTYPE svg PUBLIC "-//W3C//DTD SVG 1.1//EN"
  "http://www.w3.org/Graphics/SVG/1.1/DTD/svg11.dtd">
<svg xmlns:xlink="http://www.w3.org/1999/xlink" width="460.8pt" height="345.6pt" viewBox="0 0 460.8 345.6" xmlns="http://www.w3.org/2000/svg" version="1.1">
 <metadata>
  <rdf:RDF xmlns:dc="http://purl.org/dc/elements/1.1/" xmlns:cc="http://creativecommons.org/ns#" xmlns:rdf="http://www.w3.org/1999/02/22-rdf-syntax-ns#">
   <cc:Work>
    <dc:type rdf:resource="http://purl.org/dc/dcmitype/StillImage"/>
    <dc:date>2024-02-15T12:26:20.966934</dc:date>
    <dc:format>image/svg+xml</dc:format>
    <dc:creator>
     <cc:Agent>
      <dc:title>Matplotlib v3.7.0, https://matplotlib.org/</dc:title>
     </cc:Agent>
    </dc:creator>
   </cc:Work>
  </rdf:RDF>
 </metadata>
 <defs>
  <style type="text/css">*{stroke-linejoin: round; stroke-linecap: butt}</style>
 </defs>
 <g id="figure_1">
  <g id="patch_1">
   <path d="M 0 345.6 
L 460.8 345.6 
L 460.8 0 
L 0 0 
L 0 345.6 
z
" style="fill: none"/>
  </g>
  <g id="axes_1"/>
  <g id="axes_2">
   <g id="patch_2">
    <path d="M 57.6 307.584 
L 414.72 307.584 
L 414.72 41.472 
L 57.6 41.472 
L 57.6 307.584 
z
" style="fill: none"/>
   </g>
   <g id="PathCollection_1">
    <path d="M 68.911128 304.896 
L 68.911128 302.208 
L 68.911128 299.52 
L 68.911128 296.832 
L 68.911128 294.144 
L 68.911128 291.456 
L 68.911128 288.768 
L 68.911128 286.08 
L 68.911128 283.392 
L 68.911128 280.704 
L 68.911128 278.016 
L 68.911128 275.328 
L 68.911128 272.64 
L 68.911128 269.952 
L 68.911128 267.264 
L 68.911128 264.576 
L 68.911128 261.888 
L 68.911128 259.2 
L 68.911128 256.512 
L 68.911128 253.824 
L 68.911128 251.136 
L 68.911128 248.448 
L 68.911128 245.76 
L 68.911128 243.072 
L 68.911128 240.384 
L 68.911128 237.696 
L 68.911128 235.008 
L 68.911128 232.32 
L 68.911128 229.632 
L 68.911128 226.944 
L 68.911128 224.256 
L 68.911128 221.568 
L 68.911128 218.88 
L 68.911128 216.192 
L 68.911128 213.504 
L 68.911128 210.816 
L 68.911128 208.128 
L 68.911128 205.44 
L 68.911128 202.752 
L 68.911128 200.064 
L 68.911128 197.376 
L 68.911128 194.688 
L 68.911128 192 
L 68.911128 189.312 
L 68.911128 186.624 
L 57.6 184.983219 
L 57.6 186.624 
L 57.6 189.312 
L 57.6 192 
L 57.6 194.688 
L 57.6 197.376 
L 57.6 200.064 
L 57.6 202.752 
L 57.6 205.44 
L 57.6 208.128 
L 57.6 210.816 
L 57.6 213.504 
L 57.6 216.192 
L 57.6 218.88 
L 57.6 221.568 
L 57.6 224.256 
L 57.6 226.944 
L 57.6 229.632 
L 57.6 232.32 
L 57.6 235.008 
L 57.6 237.696 
L 57.6 240.384 
L 57.6 243.072 
L 57.6 245.76 
L 57.6 248.448 
L 57.6 251.136 
L 57.6 253.824 
L 57.6 256.512 
L 57.6 259.2 
L 57.6 261.888 
L 57.6 264.576 
L 57.6 267.264 
L 57.6 269.952 
L 57.6 272.64 
L 57.6 275.328 
L 57.6 278.016 
L 57.6 280.704 
L 57.6 283.392 
L 57.6 286.08 
L 57.6 288.768 
L 57.6 291.456 
L 57.6 294.144 
L 57.6 296.832 
L 57.6 299.52 
L 57.6 302.208 
L 57.6 304.896 
L 57.6 307.584 
L 68.911128 307.584 
z
" clip-path="url(#pda9e648010)" style="fill: #481b6d; fill-opacity: 0.75"/>
    <path d="M 60.914021 165.12 
L 57.6 164.576779 
L 57.6 165.12 
L 57.6 165.965708 
z
" clip-path="url(#pda9e648010)" style="fill: #481b6d; fill-opacity: 0.75"/>
    <path d="M 69.306021 157.056 
L 69.306021 154.368 
L 69.306021 151.68 
L 69.306021 148.992 
L 69.306021 146.304 
L 69.306021 143.616 
L 69.306021 140.928 
L 69.306021 138.24 
L 69.306021 135.552 
L 69.306021 132.864 
L 69.306021 130.176 
L 69.306021 127.488 
L 69.306021 124.8 
L 69.306021 122.112 
L 69.306021 119.424 
L 69.306021 116.736 
L 69.306021 114.048 
L 69.306021 111.36 
L 69.306021 108.672 
L 69.306021 105.984 
L 69.306021 103.296 
L 69.306021 100.608 
L 69.306021 97.92 
L 69.306021 95.232 
L 69.306021 92.544 
L 69.306021 89.856 
L 69.306021 87.168 
L 69.306021 84.48 
L 69.306021 81.792 
L 69.306021 79.104 
L 69.306021 76.416 
L 69.306021 73.728 
L 69.306021 71.04 
L 69.306021 68.352 
L 69.306021 65.664 
L 69.306021 62.976 
L 69.306021 60.288 
L 69.306021 57.6 
L 69.306021 54.912 
L 69.306021 52.224 
L 69.306021 49.536 
L 69.306021 46.848 
L 69.306021 44.16 
L 69.306021 41.472 
L 57.6 41.472 
L 57.6 44.16 
L 57.6 46.848 
L 57.6 49.536 
L 57.6 52.224 
L 57.6 54.912 
L 57.6 57.6 
L 57.6 60.288 
L 57.6 62.976 
L 57.6 65.664 
L 57.6 68.352 
L 57.6 71.04 
L 57.6 73.728 
L 57.6 76.416 
L 57.6 79.104 
L 57.6 81.792 
L 57.6 84.48 
L 57.6 87.168 
L 57.6 89.856 
L 57.6 92.544 
L 57.6 95.232 
L 57.6 97.92 
L 57.6 100.608 
L 57.6 103.296 
L 57.6 105.984 
L 57.6 108.672 
L 57.6 111.36 
L 57.6 114.048 
L 57.6 116.736 
L 57.6 119.424 
L 57.6 122.112 
L 57.6 124.8 
L 57.6 127.488 
L 57.6 130.176 
L 57.6 132.864 
L 57.6 135.552 
L 57.6 138.24 
L 57.6 140.928 
L 57.6 143.616 
L 57.6 146.304 
L 57.6 148.992 
L 57.6 151.68 
L 57.6 154.368 
L 57.6 157.056 
L 57.6 158.32526 
z
" clip-path="url(#pda9e648010)" style="fill: #481b6d; fill-opacity: 0.75"/>
   </g>
   <g id="PathCollection_2">
    <path d="M 86.079959 304.896 
L 86.079959 302.208 
L 86.079959 299.52 
L 86.079959 296.832 
L 86.079959 294.144 
L 86.079959 291.456 
L 86.079959 288.768 
L 86.079959 286.08 
L 86.079959 283.392 
L 86.079959 280.704 
L 86.079959 278.016 
L 86.079959 275.328 
L 86.079959 272.64 
L 86.079959 269.952 
L 86.079959 267.264 
L 86.079959 264.576 
L 86.079959 261.888 
L 86.079959 259.2 
L 86.079959 256.512 
L 86.079959 253.824 
L 86.079959 251.136 
L 86.079959 248.448 
L 86.079959 245.76 
L 86.079959 243.072 
L 86.079959 240.384 
L 86.079959 237.696 
L 86.079959 235.008 
L 86.079959 232.32 
L 86.079959 229.632 
L 86.079959 226.944 
L 86.079959 224.256 
L 86.079959 221.568 
L 86.079959 218.88 
L 86.079959 216.192 
L 86.079959 213.504 
L 86.079959 210.816 
L 86.079959 208.128 
L 86.079959 205.44 
L 86.079959 202.752 
L 86.079959 200.064 
L 86.079959 197.376 
L 86.079959 194.688 
L 86.079959 192 
L 86.079959 189.312 
L 86.079959 186.624 
L 67.549563 183.936 
L 67.549563 181.248 
L 67.549563 178.56 
L 67.549563 175.872 
L 67.549563 173.184 
L 67.549563 170.496 
L 67.549563 167.808 
L 78.082852 165.12 
L 61.684199 162.432 
L 61.684199 159.744 
L 86.474852 157.056 
L 86.474852 154.368 
L 86.474852 151.68 
L 86.474852 148.992 
L 86.474852 146.304 
L 86.474852 143.616 
L 86.474852 140.928 
L 86.474852 138.24 
L 86.474852 135.552 
L 86.474852 132.864 
L 86.474852 130.176 
L 86.474852 127.488 
L 86.474852 124.8 
L 86.474852 122.112 
L 86.474852 119.424 
L 86.474852 116.736 
L 86.474852 114.048 
L 86.474852 111.36 
L 86.474852 108.672 
L 86.474852 105.984 
L 86.474852 103.296 
L 86.474852 100.608 
L 86.474852 97.92 
L 86.474852 95.232 
L 86.474852 92.544 
L 86.474852 89.856 
L 86.474852 87.168 
L 86.474852 84.48 
L 86.474852 81.792 
L 86.474852 79.104 
L 86.474852 76.416 
L 86.474852 73.728 
L 86.474852 71.04 
L 86.474852 68.352 
L 86.474852 65.664 
L 86.474852 62.976 
L 86.474852 60.288 
L 86.474852 57.6 
L 86.474852 54.912 
L 86.474852 52.224 
L 86.474852 49.536 
L 86.474852 46.848 
L 86.474852 44.16 
L 86.474852 41.472 
L 69.306021 41.472 
L 69.306021 44.16 
L 69.306021 46.848 
L 69.306021 49.536 
L 69.306021 52.224 
L 69.306021 54.912 
L 69.306021 57.6 
L 69.306021 60.288 
L 69.306021 62.976 
L 69.306021 65.664 
L 69.306021 68.352 
L 69.306021 71.04 
L 69.306021 73.728 
L 69.306021 76.416 
L 69.306021 79.104 
L 69.306021 81.792 
L 69.306021 84.48 
L 69.306021 87.168 
L 69.306021 89.856 
L 69.306021 92.544 
L 69.306021 95.232 
L 69.306021 97.92 
L 69.306021 100.608 
L 69.306021 103.296 
L 69.306021 105.984 
L 69.306021 108.672 
L 69.306021 111.36 
L 69.306021 114.048 
L 69.306021 116.736 
L 69.306021 119.424 
L 69.306021 122.112 
L 69.306021 124.8 
L 69.306021 127.488 
L 69.306021 130.176 
L 69.306021 132.864 
L 69.306021 135.552 
L 69.306021 138.24 
L 69.306021 140.928 
L 69.306021 143.616 
L 69.306021 146.304 
L 69.306021 148.992 
L 69.306021 151.68 
L 69.306021 154.368 
L 69.306021 157.056 
L 57.6 158.32526 
L 57.6 159.744 
L 57.6 162.432 
L 57.6 164.576779 
L 60.914021 165.12 
L 57.6 165.965708 
L 57.6 167.808 
L 57.6 170.496 
L 57.6 173.184 
L 57.6 175.872 
L 57.6 178.56 
L 57.6 181.248 
L 57.6 183.936 
L 57.6 184.983219 
L 68.911128 186.624 
L 68.911128 189.312 
L 68.911128 192 
L 68.911128 194.688 
L 68.911128 197.376 
L 68.911128 200.064 
L 68.911128 202.752 
L 68.911128 205.44 
L 68.911128 208.128 
L 68.911128 210.816 
L 68.911128 213.504 
L 68.911128 216.192 
L 68.911128 218.88 
L 68.911128 221.568 
L 68.911128 224.256 
L 68.911128 226.944 
L 68.911128 229.632 
L 68.911128 232.32 
L 68.911128 235.008 
L 68.911128 237.696 
L 68.911128 240.384 
L 68.911128 243.072 
L 68.911128 245.76 
L 68.911128 248.448 
L 68.911128 251.136 
L 68.911128 253.824 
L 68.911128 256.512 
L 68.911128 259.2 
L 68.911128 261.888 
L 68.911128 264.576 
L 68.911128 267.264 
L 68.911128 269.952 
L 68.911128 272.64 
L 68.911128 275.328 
L 68.911128 278.016 
L 68.911128 280.704 
L 68.911128 283.392 
L 68.911128 286.08 
L 68.911128 288.768 
L 68.911128 291.456 
L 68.911128 294.144 
L 68.911128 296.832 
L 68.911128 299.52 
L 68.911128 302.208 
L 68.911128 304.896 
L 68.911128 307.584 
L 86.079959 307.584 
z
" clip-path="url(#pda9e648010)" style="fill: #3f4788; fill-opacity: 0.75"/>
   </g>
   <g id="PathCollection_3">
    <path d="M 103.24879 304.896 
L 103.24879 302.208 
L 103.24879 299.52 
L 103.24879 296.832 
L 103.24879 294.144 
L 103.24879 291.456 
L 103.24879 288.768 
L 103.24879 286.08 
L 103.24879 283.392 
L 103.24879 280.704 
L 103.24879 278.016 
L 103.24879 275.328 
L 103.24879 272.64 
L 103.24879 269.952 
L 103.24879 267.264 
L 103.24879 264.576 
L 103.24879 261.888 
L 103.24879 259.2 
L 103.24879 256.512 
L 103.24879 253.824 
L 103.24879 251.136 
L 103.24879 248.448 
L 103.24879 245.76 
L 103.24879 243.072 
L 103.24879 240.384 
L 103.24879 237.696 
L 103.24879 235.008 
L 103.24879 232.32 
L 103.24879 229.632 
L 103.24879 226.944 
L 103.24879 224.256 
L 103.24879 221.568 
L 103.24879 218.88 
L 103.24879 216.192 
L 103.24879 213.504 
L 103.24879 210.816 
L 103.24879 208.128 
L 103.24879 205.44 
L 103.24879 202.752 
L 103.24879 200.064 
L 103.24879 197.376 
L 103.24879 194.688 
L 103.24879 192 
L 103.24879 189.312 
L 103.24879 186.624 
L 84.718394 183.936 
L 84.718394 181.248 
L 84.718394 178.56 
L 84.718394 175.872 
L 84.718394 173.184 
L 84.718394 170.496 
L 84.718394 167.808 
L 95.251683 165.12 
L 78.85303 162.432 
L 78.85303 159.744 
L 103.643683 157.056 
L 103.643683 154.368 
L 103.643683 151.68 
L 103.643683 148.992 
L 103.643683 146.304 
L 103.643683 143.616 
L 103.643683 140.928 
L 103.643683 138.24 
L 103.643683 135.552 
L 103.643683 132.864 
L 103.643683 130.176 
L 103.643683 127.488 
L 103.643683 124.8 
L 103.643683 122.112 
L 103.643683 119.424 
L 103.643683 116.736 
L 103.643683 114.048 
L 103.643683 111.36 
L 103.643683 108.672 
L 103.643683 105.984 
L 103.643683 103.296 
L 103.643683 100.608 
L 103.643683 97.92 
L 103.643683 95.232 
L 103.643683 92.544 
L 103.643683 89.856 
L 103.643683 87.168 
L 103.643683 84.48 
L 103.643683 81.792 
L 103.643683 79.104 
L 103.643683 76.416 
L 103.643683 73.728 
L 103.643683 71.04 
L 103.643683 68.352 
L 103.643683 65.664 
L 103.643683 62.976 
L 103.643683 60.288 
L 103.643683 57.6 
L 103.643683 54.912 
L 103.643683 52.224 
L 103.643683 49.536 
L 103.643683 46.848 
L 103.643683 44.16 
L 103.643683 41.472 
L 86.474852 41.472 
L 86.474852 44.16 
L 86.474852 46.848 
L 86.474852 49.536 
L 86.474852 52.224 
L 86.474852 54.912 
L 86.474852 57.6 
L 86.474852 60.288 
L 86.474852 62.976 
L 86.474852 65.664 
L 86.474852 68.352 
L 86.474852 71.04 
L 86.474852 73.728 
L 86.474852 76.416 
L 86.474852 79.104 
L 86.474852 81.792 
L 86.474852 84.48 
L 86.474852 87.168 
L 86.474852 89.856 
L 86.474852 92.544 
L 86.474852 95.232 
L 86.474852 97.92 
L 86.474852 100.608 
L 86.474852 103.296 
L 86.474852 105.984 
L 86.474852 108.672 
L 86.474852 111.36 
L 86.474852 114.048 
L 86.474852 116.736 
L 86.474852 119.424 
L 86.474852 122.112 
L 86.474852 124.8 
L 86.474852 127.488 
L 86.474852 130.176 
L 86.474852 132.864 
L 86.474852 135.552 
L 86.474852 138.24 
L 86.474852 140.928 
L 86.474852 143.616 
L 86.474852 146.304 
L 86.474852 148.992 
L 86.474852 151.68 
L 86.474852 154.368 
L 86.474852 157.056 
L 61.684199 159.744 
L 61.684199 162.432 
L 78.082852 165.12 
L 67.549563 167.808 
L 67.549563 170.496 
L 67.549563 173.184 
L 67.549563 175.872 
L 67.549563 178.56 
L 67.549563 181.248 
L 67.549563 183.936 
L 86.079959 186.624 
L 86.079959 189.312 
L 86.079959 192 
L 86.079959 194.688 
L 86.079959 197.376 
L 86.079959 200.064 
L 86.079959 202.752 
L 86.079959 205.44 
L 86.079959 208.128 
L 86.079959 210.816 
L 86.079959 213.504 
L 86.079959 216.192 
L 86.079959 218.88 
L 86.079959 221.568 
L 86.079959 224.256 
L 86.079959 226.944 
L 86.079959 229.632 
L 86.079959 232.32 
L 86.079959 235.008 
L 86.079959 237.696 
L 86.079959 240.384 
L 86.079959 243.072 
L 86.079959 245.76 
L 86.079959 248.448 
L 86.079959 251.136 
L 86.079959 253.824 
L 86.079959 256.512 
L 86.079959 259.2 
L 86.079959 261.888 
L 86.079959 264.576 
L 86.079959 267.264 
L 86.079959 269.952 
L 86.079959 272.64 
L 86.079959 275.328 
L 86.079959 278.016 
L 86.079959 280.704 
L 86.079959 283.392 
L 86.079959 286.08 
L 86.079959 288.768 
L 86.079959 291.456 
L 86.079959 294.144 
L 86.079959 296.832 
L 86.079959 299.52 
L 86.079959 302.208 
L 86.079959 304.896 
L 86.079959 307.584 
L 103.24879 307.584 
z
" clip-path="url(#pda9e648010)" style="fill: #2e6e8e; fill-opacity: 0.75"/>
   </g>
   <g id="PathCollection_4">
    <path d="M 120.417621 304.896 
L 120.417621 302.208 
L 120.417621 299.52 
L 120.417621 296.832 
L 120.417621 294.144 
L 120.417621 291.456 
L 120.417621 288.768 
L 120.417621 286.08 
L 120.417621 283.392 
L 120.417621 280.704 
L 120.417621 278.016 
L 120.417621 275.328 
L 120.417621 272.64 
L 120.417621 269.952 
L 120.417621 267.264 
L 120.417621 264.576 
L 120.417621 261.888 
L 120.417621 259.2 
L 120.417621 256.512 
L 120.417621 253.824 
L 120.417621 251.136 
L 120.417621 248.448 
L 120.417621 245.76 
L 120.417621 243.072 
L 120.417621 240.384 
L 120.417621 237.696 
L 120.417621 235.008 
L 120.417621 232.32 
L 120.417621 229.632 
L 120.417621 226.944 
L 120.417621 224.256 
L 120.417621 221.568 
L 120.417621 218.88 
L 120.417621 216.192 
L 120.417621 213.504 
L 120.417621 210.816 
L 120.417621 208.128 
L 120.417621 205.44 
L 120.417621 202.752 
L 120.417621 200.064 
L 120.417621 197.376 
L 120.417621 194.688 
L 120.417621 192 
L 120.417621 189.312 
L 120.417621 186.624 
L 101.887225 183.936 
L 101.887225 181.248 
L 101.887225 178.56 
L 101.887225 175.872 
L 101.887225 173.184 
L 101.887225 170.496 
L 101.887225 167.808 
L 112.420514 165.12 
L 96.02186 162.432 
L 96.02186 159.744 
L 120.812514 157.056 
L 120.812514 154.368 
L 120.812514 151.68 
L 120.812514 148.992 
L 120.812514 146.304 
L 120.812514 143.616 
L 120.812514 140.928 
L 120.812514 138.24 
L 120.812514 135.552 
L 120.812514 132.864 
L 120.812514 130.176 
L 120.812514 127.488 
L 120.812514 124.8 
L 120.812514 122.112 
L 120.812514 119.424 
L 120.812514 116.736 
L 120.812514 114.048 
L 120.812514 111.36 
L 120.812514 108.672 
L 120.812514 105.984 
L 120.812514 103.296 
L 120.812514 100.608 
L 120.812514 97.92 
L 120.812514 95.232 
L 120.812514 92.544 
L 120.812514 89.856 
L 120.812514 87.168 
L 120.812514 84.48 
L 120.812514 81.792 
L 120.812514 79.104 
L 120.812514 76.416 
L 120.812514 73.728 
L 120.812514 71.04 
L 120.812514 68.352 
L 120.812514 65.664 
L 120.812514 62.976 
L 120.812514 60.288 
L 120.812514 57.6 
L 120.812514 54.912 
L 120.812514 52.224 
L 120.812514 49.536 
L 120.812514 46.848 
L 120.812514 44.16 
L 120.812514 41.472 
L 103.643683 41.472 
L 103.643683 44.16 
L 103.643683 46.848 
L 103.643683 49.536 
L 103.643683 52.224 
L 103.643683 54.912 
L 103.643683 57.6 
L 103.643683 60.288 
L 103.643683 62.976 
L 103.643683 65.664 
L 103.643683 68.352 
L 103.643683 71.04 
L 103.643683 73.728 
L 103.643683 76.416 
L 103.643683 79.104 
L 103.643683 81.792 
L 103.643683 84.48 
L 103.643683 87.168 
L 103.643683 89.856 
L 103.643683 92.544 
L 103.643683 95.232 
L 103.643683 97.92 
L 103.643683 100.608 
L 103.643683 103.296 
L 103.643683 105.984 
L 103.643683 108.672 
L 103.643683 111.36 
L 103.643683 114.048 
L 103.643683 116.736 
L 103.643683 119.424 
L 103.643683 122.112 
L 103.643683 124.8 
L 103.643683 127.488 
L 103.643683 130.176 
L 103.643683 132.864 
L 103.643683 135.552 
L 103.643683 138.24 
L 103.643683 140.928 
L 103.643683 143.616 
L 103.643683 146.304 
L 103.643683 148.992 
L 103.643683 151.68 
L 103.643683 154.368 
L 103.643683 157.056 
L 78.85303 159.744 
L 78.85303 162.432 
L 95.251683 165.12 
L 84.718394 167.808 
L 84.718394 170.496 
L 84.718394 173.184 
L 84.718394 175.872 
L 84.718394 178.56 
L 84.718394 181.248 
L 84.718394 183.936 
L 103.24879 186.624 
L 103.24879 189.312 
L 103.24879 192 
L 103.24879 194.688 
L 103.24879 197.376 
L 103.24879 200.064 
L 103.24879 202.752 
L 103.24879 205.44 
L 103.24879 208.128 
L 103.24879 210.816 
L 103.24879 213.504 
L 103.24879 216.192 
L 103.24879 218.88 
L 103.24879 221.568 
L 103.24879 224.256 
L 103.24879 226.944 
L 103.24879 229.632 
L 103.24879 232.32 
L 103.24879 235.008 
L 103.24879 237.696 
L 103.24879 240.384 
L 103.24879 243.072 
L 103.24879 245.76 
L 103.24879 248.448 
L 103.24879 251.136 
L 103.24879 253.824 
L 103.24879 256.512 
L 103.24879 259.2 
L 103.24879 261.888 
L 103.24879 264.576 
L 103.24879 267.264 
L 103.24879 269.952 
L 103.24879 272.64 
L 103.24879 275.328 
L 103.24879 278.016 
L 103.24879 280.704 
L 103.24879 283.392 
L 103.24879 286.08 
L 103.24879 288.768 
L 103.24879 291.456 
L 103.24879 294.144 
L 103.24879 296.832 
L 103.24879 299.52 
L 103.24879 302.208 
L 103.24879 304.896 
L 103.24879 307.584 
L 120.417621 307.584 
z
" clip-path="url(#pda9e648010)" style="fill: #21918c; fill-opacity: 0.75"/>
   </g>
   <g id="PathCollection_5">
    <path d="M 129.024 307.584 
L 175.917572 307.584 
L 175.917572 304.896 
L 175.917572 302.208 
L 175.917572 299.52 
L 175.917572 296.832 
L 175.917572 294.144 
L 175.917572 291.456 
L 175.917572 288.768 
L 175.917572 286.08 
L 175.917572 283.392 
L 175.917572 280.704 
L 175.917572 278.016 
L 175.917572 275.328 
L 175.917572 272.64 
L 175.917572 269.952 
L 175.917572 267.264 
L 175.917572 264.576 
L 175.917572 261.888 
L 175.917572 259.2 
L 175.917572 256.512 
L 175.917572 253.824 
L 175.917572 251.136 
L 175.917572 248.448 
L 175.917572 245.76 
L 175.917572 243.072 
L 175.917572 240.384 
L 175.917572 237.696 
L 175.917572 235.008 
L 175.917572 232.32 
L 175.917572 229.632 
L 175.917572 226.944 
L 175.917572 224.256 
L 175.917572 221.568 
L 175.917572 218.88 
L 175.917572 216.192 
L 175.917572 213.504 
L 175.917572 210.816 
L 175.917572 208.128 
L 175.917572 205.44 
L 175.917572 202.752 
L 175.917572 200.064 
L 175.917572 197.376 
L 175.917572 194.688 
L 175.917572 192 
L 175.917572 189.312 
L 175.917572 186.624 
L 129.024 185.38194 
L 119.056056 183.936 
L 119.056056 181.248 
L 119.056056 178.56 
L 119.056056 175.872 
L 119.056056 173.184 
L 119.056056 170.496 
L 119.056056 167.808 
L 129.024 165.264271 
L 132.120198 165.12 
L 129.024 165.027331 
L 113.190691 162.432 
L 113.190691 159.744 
L 129.024 158.027227 
L 178.080263 157.056 
L 178.080263 154.368 
L 178.080263 151.68 
L 178.080263 148.992 
L 178.080263 146.304 
L 178.080263 143.616 
L 178.080263 140.928 
L 178.080263 138.24 
L 178.080263 135.552 
L 178.080263 132.864 
L 178.080263 130.176 
L 178.080263 127.488 
L 178.080263 124.8 
L 178.080263 122.112 
L 178.080263 119.424 
L 178.080263 116.736 
L 178.080263 114.048 
L 178.080263 111.36 
L 178.080263 108.672 
L 178.080263 105.984 
L 178.080263 103.296 
L 178.080263 100.608 
L 178.080263 97.92 
L 178.080263 95.232 
L 178.080263 92.544 
L 178.080263 89.856 
L 178.080263 87.168 
L 178.080263 84.48 
L 178.080263 81.792 
L 178.080263 79.104 
L 178.080263 76.416 
L 178.080263 73.728 
L 178.080263 71.04 
L 178.080263 68.352 
L 178.080263 65.664 
L 178.080263 62.976 
L 178.080263 60.288 
L 178.080263 57.6 
L 178.080263 54.912 
L 178.080263 52.224 
L 178.080263 49.536 
L 178.080263 46.848 
L 178.080263 44.16 
L 178.080263 41.472 
L 129.024 41.472 
L 120.812514 41.472 
L 120.812514 44.16 
L 120.812514 46.848 
L 120.812514 49.536 
L 120.812514 52.224 
L 120.812514 54.912 
L 120.812514 57.6 
L 120.812514 60.288 
L 120.812514 62.976 
L 120.812514 65.664 
L 120.812514 68.352 
L 120.812514 71.04 
L 120.812514 73.728 
L 120.812514 76.416 
L 120.812514 79.104 
L 120.812514 81.792 
L 120.812514 84.48 
L 120.812514 87.168 
L 120.812514 89.856 
L 120.812514 92.544 
L 120.812514 95.232 
L 120.812514 97.92 
L 120.812514 100.608 
L 120.812514 103.296 
L 120.812514 105.984 
L 120.812514 108.672 
L 120.812514 111.36 
L 120.812514 114.048 
L 120.812514 116.736 
L 120.812514 119.424 
L 120.812514 122.112 
L 120.812514 124.8 
L 120.812514 127.488 
L 120.812514 130.176 
L 120.812514 132.864 
L 120.812514 135.552 
L 120.812514 138.24 
L 120.812514 140.928 
L 120.812514 143.616 
L 120.812514 146.304 
L 120.812514 148.992 
L 120.812514 151.68 
L 120.812514 154.368 
L 120.812514 157.056 
L 96.02186 159.744 
L 96.02186 162.432 
L 112.420514 165.12 
L 101.887225 167.808 
L 101.887225 170.496 
L 101.887225 173.184 
L 101.887225 175.872 
L 101.887225 178.56 
L 101.887225 181.248 
L 101.887225 183.936 
L 120.417621 186.624 
L 120.417621 189.312 
L 120.417621 192 
L 120.417621 194.688 
L 120.417621 197.376 
L 120.417621 200.064 
L 120.417621 202.752 
L 120.417621 205.44 
L 120.417621 208.128 
L 120.417621 210.816 
L 120.417621 213.504 
L 120.417621 216.192 
L 120.417621 218.88 
L 120.417621 221.568 
L 120.417621 224.256 
L 120.417621 226.944 
L 120.417621 229.632 
L 120.417621 232.32 
L 120.417621 235.008 
L 120.417621 237.696 
L 120.417621 240.384 
L 120.417621 243.072 
L 120.417621 245.76 
L 120.417621 248.448 
L 120.417621 251.136 
L 120.417621 253.824 
L 120.417621 256.512 
L 120.417621 259.2 
L 120.417621 261.888 
L 120.417621 264.576 
L 120.417621 267.264 
L 120.417621 269.952 
L 120.417621 272.64 
L 120.417621 275.328 
L 120.417621 278.016 
L 120.417621 280.704 
L 120.417621 283.392 
L 120.417621 286.08 
L 120.417621 288.768 
L 120.417621 291.456 
L 120.417621 294.144 
L 120.417621 296.832 
L 120.417621 299.52 
L 120.417621 302.208 
L 120.417621 304.896 
L 120.417621 307.584 
z
" clip-path="url(#pda9e648010)" style="fill: #2db27d; fill-opacity: 0.75"/>
   </g>
   <g id="PathCollection_6">
    <path d="M 200.448 307.584 
L 271.872 307.584 
L 343.296 307.584 
L 414.72 307.584 
L 414.72 304.896 
L 414.72 302.208 
L 414.72 299.52 
L 414.72 296.832 
L 414.72 294.144 
L 414.72 291.456 
L 414.72 288.768 
L 414.72 286.08 
L 414.72 283.392 
L 414.72 280.704 
L 414.72 278.016 
L 414.72 275.328 
L 414.72 272.64 
L 414.72 269.952 
L 414.72 267.264 
L 414.72 264.576 
L 414.72 261.888 
L 414.72 259.2 
L 414.72 256.512 
L 414.72 253.824 
L 414.72 251.136 
L 414.72 248.448 
L 414.72 245.76 
L 414.72 243.072 
L 414.72 240.384 
L 414.72 237.696 
L 414.72 235.008 
L 414.72 232.32 
L 414.72 229.632 
L 414.72 226.944 
L 414.72 224.256 
L 414.72 221.568 
L 414.72 218.88 
L 414.72 216.192 
L 414.72 213.504 
L 414.72 210.816 
L 414.72 208.128 
L 414.72 205.44 
L 414.72 202.752 
L 414.72 200.064 
L 414.72 197.376 
L 414.72 194.688 
L 414.72 192 
L 414.72 189.312 
L 414.72 186.624 
L 414.72 184.78324 
L 343.296 184.78324 
L 271.872 184.78324 
L 200.448 184.78324 
L 168.460754 183.936 
L 168.460754 181.248 
L 168.460754 178.56 
L 168.460754 175.872 
L 168.460754 173.184 
L 168.460754 170.496 
L 168.460754 167.808 
L 200.448 166.317517 
L 271.872 166.317517 
L 343.296 166.317517 
L 414.72 166.317517 
L 414.72 165.12 
L 414.72 164.350803 
L 343.296 164.350803 
L 271.872 164.350803 
L 200.448 164.350803 
L 136.338191 162.432 
L 136.338191 159.744 
L 200.448 158.47474 
L 271.872 158.47474 
L 343.296 158.47474 
L 414.72 158.47474 
L 414.72 157.056 
L 414.72 154.368 
L 414.72 151.68 
L 414.72 148.992 
L 414.72 146.304 
L 414.72 143.616 
L 414.72 140.928 
L 414.72 138.24 
L 414.72 135.552 
L 414.72 132.864 
L 414.72 130.176 
L 414.72 127.488 
L 414.72 124.8 
L 414.72 122.112 
L 414.72 119.424 
L 414.72 116.736 
L 414.72 114.048 
L 414.72 111.36 
L 414.72 108.672 
L 414.72 105.984 
L 414.72 103.296 
L 414.72 100.608 
L 414.72 97.92 
L 414.72 95.232 
L 414.72 92.544 
L 414.72 89.856 
L 414.72 87.168 
L 414.72 84.48 
L 414.72 81.792 
L 414.72 79.104 
L 414.72 76.416 
L 414.72 73.728 
L 414.72 71.04 
L 414.72 68.352 
L 414.72 65.664 
L 414.72 62.976 
L 414.72 60.288 
L 414.72 57.6 
L 414.72 54.912 
L 414.72 52.224 
L 414.72 49.536 
L 414.72 46.848 
L 414.72 44.16 
L 414.72 41.472 
L 343.296 41.472 
L 271.872 41.472 
L 200.448 41.472 
L 178.080263 41.472 
L 178.080263 44.16 
L 178.080263 46.848 
L 178.080263 49.536 
L 178.080263 52.224 
L 178.080263 54.912 
L 178.080263 57.6 
L 178.080263 60.288 
L 178.080263 62.976 
L 178.080263 65.664 
L 178.080263 68.352 
L 178.080263 71.04 
L 178.080263 73.728 
L 178.080263 76.416 
L 178.080263 79.104 
L 178.080263 81.792 
L 178.080263 84.48 
L 178.080263 87.168 
L 178.080263 89.856 
L 178.080263 92.544 
L 178.080263 95.232 
L 178.080263 97.92 
L 178.080263 100.608 
L 178.080263 103.296 
L 178.080263 105.984 
L 178.080263 108.672 
L 178.080263 111.36 
L 178.080263 114.048 
L 178.080263 116.736 
L 178.080263 119.424 
L 178.080263 122.112 
L 178.080263 124.8 
L 178.080263 127.488 
L 178.080263 130.176 
L 178.080263 132.864 
L 178.080263 135.552 
L 178.080263 138.24 
L 178.080263 140.928 
L 178.080263 143.616 
L 178.080263 146.304 
L 178.080263 148.992 
L 178.080263 151.68 
L 178.080263 154.368 
L 178.080263 157.056 
L 129.024 158.027227 
L 113.190691 159.744 
L 113.190691 162.432 
L 129.024 165.027331 
L 132.120198 165.12 
L 129.024 165.264271 
L 119.056056 167.808 
L 119.056056 170.496 
L 119.056056 173.184 
L 119.056056 175.872 
L 119.056056 178.56 
L 119.056056 181.248 
L 119.056056 183.936 
L 129.024 185.38194 
L 175.917572 186.624 
L 175.917572 189.312 
L 175.917572 192 
L 175.917572 194.688 
L 175.917572 197.376 
L 175.917572 200.064 
L 175.917572 202.752 
L 175.917572 205.44 
L 175.917572 208.128 
L 175.917572 210.816 
L 175.917572 213.504 
L 175.917572 216.192 
L 175.917572 218.88 
L 175.917572 221.568 
L 175.917572 224.256 
L 175.917572 226.944 
L 175.917572 229.632 
L 175.917572 232.32 
L 175.917572 235.008 
L 175.917572 237.696 
L 175.917572 240.384 
L 175.917572 243.072 
L 175.917572 245.76 
L 175.917572 248.448 
L 175.917572 251.136 
L 175.917572 253.824 
L 175.917572 256.512 
L 175.917572 259.2 
L 175.917572 261.888 
L 175.917572 264.576 
L 175.917572 267.264 
L 175.917572 269.952 
L 175.917572 272.64 
L 175.917572 275.328 
L 175.917572 278.016 
L 175.917572 280.704 
L 175.917572 283.392 
L 175.917572 286.08 
L 175.917572 288.768 
L 175.917572 291.456 
L 175.917572 294.144 
L 175.917572 296.832 
L 175.917572 299.52 
L 175.917572 302.208 
L 175.917572 304.896 
L 175.917572 307.584 
z
" clip-path="url(#pda9e648010)" style="fill: #73d056; fill-opacity: 0.75"/>
   </g>
   <g id="PathCollection_7">
    <path d="M 200.448 184.78324 
L 271.872 184.78324 
L 343.296 184.78324 
L 414.72 184.78324 
L 414.72 183.936 
L 414.72 181.248 
L 414.72 178.56 
L 414.72 175.872 
L 414.72 173.184 
L 414.72 170.496 
L 414.72 167.808 
L 414.72 166.317517 
L 343.296 166.317517 
L 271.872 166.317517 
L 200.448 166.317517 
L 168.460754 167.808 
L 168.460754 170.496 
L 168.460754 173.184 
L 168.460754 175.872 
L 168.460754 178.56 
L 168.460754 181.248 
L 168.460754 183.936 
z
" clip-path="url(#pda9e648010)" style="fill: #d0e11c; fill-opacity: 0.75"/>
    <path d="M 200.448 164.350803 
L 271.872 164.350803 
L 343.296 164.350803 
L 414.72 164.350803 
L 414.72 162.432 
L 414.72 159.744 
L 414.72 158.47474 
L 343.296 158.47474 
L 271.872 158.47474 
L 200.448 158.47474 
L 136.338191 159.744 
L 136.338191 162.432 
z
" clip-path="url(#pda9e648010)" style="fill: #d0e11c; fill-opacity: 0.75"/>
   </g>
   <g id="matplotlib.axis_1">
    <g id="xtick_1">
     <g id="line2d_1">
      <defs>
       <path id="m8d9264db56" d="M 0 0 
L 0 3.5 
" style="stroke: #000000; stroke-width: 0.8"/>
      </defs>
      <g>
       <use xlink:href="#m8d9264db56" x="86.710287" y="307.584" style="stroke: #000000; stroke-width: 0.8"/>
      </g>
     </g>
     <g id="text_1">
      <!-- −1.0 -->
      <g transform="translate(74.568881 322.182437) scale(0.1 -0.1)">
       <defs>
        <path id="DejaVuSans-2212" d="M 678 2272 
L 4684 2272 
L 4684 1741 
L 678 1741 
L 678 2272 
z
" transform="scale(0.015625)"/>
        <path id="DejaVuSans-31" d="M 794 531 
L 1825 531 
L 1825 4091 
L 703 3866 
L 703 4441 
L 1819 4666 
L 2450 4666 
L 2450 531 
L 3481 531 
L 3481 0 
L 794 0 
L 794 531 
z
" transform="scale(0.015625)"/>
        <path id="DejaVuSans-2e" d="M 684 794 
L 1344 794 
L 1344 0 
L 684 0 
L 684 794 
z
" transform="scale(0.015625)"/>
        <path id="DejaVuSans-30" d="M 2034 4250 
Q 1547 4250 1301 3770 
Q 1056 3291 1056 2328 
Q 1056 1369 1301 889 
Q 1547 409 2034 409 
Q 2525 409 2770 889 
Q 3016 1369 3016 2328 
Q 3016 3291 2770 3770 
Q 2525 4250 2034 4250 
z
M 2034 4750 
Q 2819 4750 3233 4129 
Q 3647 3509 3647 2328 
Q 3647 1150 3233 529 
Q 2819 -91 2034 -91 
Q 1250 -91 836 529 
Q 422 1150 422 2328 
Q 422 3509 836 4129 
Q 1250 4750 2034 4750 
z
" transform="scale(0.015625)"/>
       </defs>
       <use xlink:href="#DejaVuSans-2212"/>
       <use xlink:href="#DejaVuSans-31" x="83.789062"/>
       <use xlink:href="#DejaVuSans-2e" x="147.412109"/>
       <use xlink:href="#DejaVuSans-30" x="179.199219"/>
      </g>
     </g>
    </g>
    <g id="xtick_2">
     <g id="line2d_2">
      <g>
       <use xlink:href="#m8d9264db56" x="144.500744" y="307.584" style="stroke: #000000; stroke-width: 0.8"/>
      </g>
     </g>
     <g id="text_2">
      <!-- −0.5 -->
      <g transform="translate(132.359337 322.182437) scale(0.1 -0.1)">
       <defs>
        <path id="DejaVuSans-35" d="M 691 4666 
L 3169 4666 
L 3169 4134 
L 1269 4134 
L 1269 2991 
Q 1406 3038 1543 3061 
Q 1681 3084 1819 3084 
Q 2600 3084 3056 2656 
Q 3513 2228 3513 1497 
Q 3513 744 3044 326 
Q 2575 -91 1722 -91 
Q 1428 -91 1123 -41 
Q 819 9 494 109 
L 494 744 
Q 775 591 1075 516 
Q 1375 441 1709 441 
Q 2250 441 2565 725 
Q 2881 1009 2881 1497 
Q 2881 1984 2565 2268 
Q 2250 2553 1709 2553 
Q 1456 2553 1204 2497 
Q 953 2441 691 2322 
L 691 4666 
z
" transform="scale(0.015625)"/>
       </defs>
       <use xlink:href="#DejaVuSans-2212"/>
       <use xlink:href="#DejaVuSans-30" x="83.789062"/>
       <use xlink:href="#DejaVuSans-2e" x="147.412109"/>
       <use xlink:href="#DejaVuSans-35" x="179.199219"/>
      </g>
     </g>
    </g>
    <g id="xtick_3">
     <g id="line2d_3">
      <g>
       <use xlink:href="#m8d9264db56" x="202.2912" y="307.584" style="stroke: #000000; stroke-width: 0.8"/>
      </g>
     </g>
     <g id="text_3">
      <!-- 0.0 -->
      <g transform="translate(194.339638 322.182437) scale(0.1 -0.1)">
       <use xlink:href="#DejaVuSans-30"/>
       <use xlink:href="#DejaVuSans-2e" x="63.623047"/>
       <use xlink:href="#DejaVuSans-30" x="95.410156"/>
      </g>
     </g>
    </g>
    <g id="xtick_4">
     <g id="line2d_4">
      <g>
       <use xlink:href="#m8d9264db56" x="260.081656" y="307.584" style="stroke: #000000; stroke-width: 0.8"/>
      </g>
     </g>
     <g id="text_4">
      <!-- 0.5 -->
      <g transform="translate(252.130094 322.182437) scale(0.1 -0.1)">
       <use xlink:href="#DejaVuSans-30"/>
       <use xlink:href="#DejaVuSans-2e" x="63.623047"/>
       <use xlink:href="#DejaVuSans-35" x="95.410156"/>
      </g>
     </g>
    </g>
    <g id="xtick_5">
     <g id="line2d_5">
      <g>
       <use xlink:href="#m8d9264db56" x="317.872113" y="307.584" style="stroke: #000000; stroke-width: 0.8"/>
      </g>
     </g>
     <g id="text_5">
      <!-- 1.0 -->
      <g transform="translate(309.92055 322.182437) scale(0.1 -0.1)">
       <use xlink:href="#DejaVuSans-31"/>
       <use xlink:href="#DejaVuSans-2e" x="63.623047"/>
       <use xlink:href="#DejaVuSans-30" x="95.410156"/>
      </g>
     </g>
    </g>
    <g id="xtick_6">
     <g id="line2d_6">
      <g>
       <use xlink:href="#m8d9264db56" x="375.662569" y="307.584" style="stroke: #000000; stroke-width: 0.8"/>
      </g>
     </g>
     <g id="text_6">
      <!-- 1.5 -->
      <g transform="translate(367.711006 322.182437) scale(0.1 -0.1)">
       <use xlink:href="#DejaVuSans-31"/>
       <use xlink:href="#DejaVuSans-2e" x="63.623047"/>
       <use xlink:href="#DejaVuSans-35" x="95.410156"/>
      </g>
     </g>
    </g>
    <g id="text_7">
     <!-- Parent Location -->
     <g transform="translate(197.420156 335.860562) scale(0.1 -0.1)">
      <defs>
       <path id="DejaVuSans-50" d="M 1259 4147 
L 1259 2394 
L 2053 2394 
Q 2494 2394 2734 2622 
Q 2975 2850 2975 3272 
Q 2975 3691 2734 3919 
Q 2494 4147 2053 4147 
L 1259 4147 
z
M 628 4666 
L 2053 4666 
Q 2838 4666 3239 4311 
Q 3641 3956 3641 3272 
Q 3641 2581 3239 2228 
Q 2838 1875 2053 1875 
L 1259 1875 
L 1259 0 
L 628 0 
L 628 4666 
z
" transform="scale(0.015625)"/>
       <path id="DejaVuSans-61" d="M 2194 1759 
Q 1497 1759 1228 1600 
Q 959 1441 959 1056 
Q 959 750 1161 570 
Q 1363 391 1709 391 
Q 2188 391 2477 730 
Q 2766 1069 2766 1631 
L 2766 1759 
L 2194 1759 
z
M 3341 1997 
L 3341 0 
L 2766 0 
L 2766 531 
Q 2569 213 2275 61 
Q 1981 -91 1556 -91 
Q 1019 -91 701 211 
Q 384 513 384 1019 
Q 384 1609 779 1909 
Q 1175 2209 1959 2209 
L 2766 2209 
L 2766 2266 
Q 2766 2663 2505 2880 
Q 2244 3097 1772 3097 
Q 1472 3097 1187 3025 
Q 903 2953 641 2809 
L 641 3341 
Q 956 3463 1253 3523 
Q 1550 3584 1831 3584 
Q 2591 3584 2966 3190 
Q 3341 2797 3341 1997 
z
" transform="scale(0.015625)"/>
       <path id="DejaVuSans-72" d="M 2631 2963 
Q 2534 3019 2420 3045 
Q 2306 3072 2169 3072 
Q 1681 3072 1420 2755 
Q 1159 2438 1159 1844 
L 1159 0 
L 581 0 
L 581 3500 
L 1159 3500 
L 1159 2956 
Q 1341 3275 1631 3429 
Q 1922 3584 2338 3584 
Q 2397 3584 2469 3576 
Q 2541 3569 2628 3553 
L 2631 2963 
z
" transform="scale(0.015625)"/>
       <path id="DejaVuSans-65" d="M 3597 1894 
L 3597 1613 
L 953 1613 
Q 991 1019 1311 708 
Q 1631 397 2203 397 
Q 2534 397 2845 478 
Q 3156 559 3463 722 
L 3463 178 
Q 3153 47 2828 -22 
Q 2503 -91 2169 -91 
Q 1331 -91 842 396 
Q 353 884 353 1716 
Q 353 2575 817 3079 
Q 1281 3584 2069 3584 
Q 2775 3584 3186 3129 
Q 3597 2675 3597 1894 
z
M 3022 2063 
Q 3016 2534 2758 2815 
Q 2500 3097 2075 3097 
Q 1594 3097 1305 2825 
Q 1016 2553 972 2059 
L 3022 2063 
z
" transform="scale(0.015625)"/>
       <path id="DejaVuSans-6e" d="M 3513 2113 
L 3513 0 
L 2938 0 
L 2938 2094 
Q 2938 2591 2744 2837 
Q 2550 3084 2163 3084 
Q 1697 3084 1428 2787 
Q 1159 2491 1159 1978 
L 1159 0 
L 581 0 
L 581 3500 
L 1159 3500 
L 1159 2956 
Q 1366 3272 1645 3428 
Q 1925 3584 2291 3584 
Q 2894 3584 3203 3211 
Q 3513 2838 3513 2113 
z
" transform="scale(0.015625)"/>
       <path id="DejaVuSans-74" d="M 1172 4494 
L 1172 3500 
L 2356 3500 
L 2356 3053 
L 1172 3053 
L 1172 1153 
Q 1172 725 1289 603 
Q 1406 481 1766 481 
L 2356 481 
L 2356 0 
L 1766 0 
Q 1100 0 847 248 
Q 594 497 594 1153 
L 594 3053 
L 172 3053 
L 172 3500 
L 594 3500 
L 594 4494 
L 1172 4494 
z
" transform="scale(0.015625)"/>
       <path id="DejaVuSans-20" transform="scale(0.015625)"/>
       <path id="DejaVuSans-4c" d="M 628 4666 
L 1259 4666 
L 1259 531 
L 3531 531 
L 3531 0 
L 628 0 
L 628 4666 
z
" transform="scale(0.015625)"/>
       <path id="DejaVuSans-6f" d="M 1959 3097 
Q 1497 3097 1228 2736 
Q 959 2375 959 1747 
Q 959 1119 1226 758 
Q 1494 397 1959 397 
Q 2419 397 2687 759 
Q 2956 1122 2956 1747 
Q 2956 2369 2687 2733 
Q 2419 3097 1959 3097 
z
M 1959 3584 
Q 2709 3584 3137 3096 
Q 3566 2609 3566 1747 
Q 3566 888 3137 398 
Q 2709 -91 1959 -91 
Q 1206 -91 779 398 
Q 353 888 353 1747 
Q 353 2609 779 3096 
Q 1206 3584 1959 3584 
z
" transform="scale(0.015625)"/>
       <path id="DejaVuSans-63" d="M 3122 3366 
L 3122 2828 
Q 2878 2963 2633 3030 
Q 2388 3097 2138 3097 
Q 1578 3097 1268 2742 
Q 959 2388 959 1747 
Q 959 1106 1268 751 
Q 1578 397 2138 397 
Q 2388 397 2633 464 
Q 2878 531 3122 666 
L 3122 134 
Q 2881 22 2623 -34 
Q 2366 -91 2075 -91 
Q 1284 -91 818 406 
Q 353 903 353 1747 
Q 353 2603 823 3093 
Q 1294 3584 2113 3584 
Q 2378 3584 2631 3529 
Q 2884 3475 3122 3366 
z
" transform="scale(0.015625)"/>
       <path id="DejaVuSans-69" d="M 603 3500 
L 1178 3500 
L 1178 0 
L 603 0 
L 603 3500 
z
M 603 4863 
L 1178 4863 
L 1178 4134 
L 603 4134 
L 603 4863 
z
" transform="scale(0.015625)"/>
      </defs>
      <use xlink:href="#DejaVuSans-50"/>
      <use xlink:href="#DejaVuSans-61" x="55.802734"/>
      <use xlink:href="#DejaVuSans-72" x="117.082031"/>
      <use xlink:href="#DejaVuSans-65" x="155.945312"/>
      <use xlink:href="#DejaVuSans-6e" x="217.46875"/>
      <use xlink:href="#DejaVuSans-74" x="280.847656"/>
      <use xlink:href="#DejaVuSans-20" x="320.056641"/>
      <use xlink:href="#DejaVuSans-4c" x="351.84375"/>
      <use xlink:href="#DejaVuSans-6f" x="405.806641"/>
      <use xlink:href="#DejaVuSans-63" x="466.988281"/>
      <use xlink:href="#DejaVuSans-61" x="521.96875"/>
      <use xlink:href="#DejaVuSans-74" x="583.248047"/>
      <use xlink:href="#DejaVuSans-69" x="622.457031"/>
      <use xlink:href="#DejaVuSans-6f" x="650.240234"/>
      <use xlink:href="#DejaVuSans-6e" x="711.421875"/>
     </g>
    </g>
   </g>
   <g id="matplotlib.axis_2">
    <g id="ytick_1">
     <g id="line2d_7">
      <defs>
       <path id="m2e9dddaf47" d="M 0 0 
L -3.5 0 
" style="stroke: #000000; stroke-width: 0.8"/>
      </defs>
      <g>
       <use xlink:href="#m2e9dddaf47" x="57.6" y="296.301136" style="stroke: #000000; stroke-width: 0.8"/>
      </g>
     </g>
     <g id="text_8">
      <!-- −1.0 -->
      <g transform="translate(26.317187 300.100355) scale(0.1 -0.1)">
       <use xlink:href="#DejaVuSans-2212"/>
       <use xlink:href="#DejaVuSans-31" x="83.789062"/>
       <use xlink:href="#DejaVuSans-2e" x="147.412109"/>
       <use xlink:href="#DejaVuSans-30" x="179.199219"/>
      </g>
     </g>
    </g>
    <g id="ytick_2">
     <g id="line2d_8">
      <g>
       <use xlink:href="#m2e9dddaf47" x="57.6" y="253.977655" style="stroke: #000000; stroke-width: 0.8"/>
      </g>
     </g>
     <g id="text_9">
      <!-- −0.5 -->
      <g transform="translate(26.317187 257.776874) scale(0.1 -0.1)">
       <use xlink:href="#DejaVuSans-2212"/>
       <use xlink:href="#DejaVuSans-30" x="83.789062"/>
       <use xlink:href="#DejaVuSans-2e" x="147.412109"/>
       <use xlink:href="#DejaVuSans-35" x="179.199219"/>
      </g>
     </g>
    </g>
    <g id="ytick_3">
     <g id="line2d_9">
      <g>
       <use xlink:href="#m2e9dddaf47" x="57.6" y="211.654174" style="stroke: #000000; stroke-width: 0.8"/>
      </g>
     </g>
     <g id="text_10">
      <!-- 0.0 -->
      <g transform="translate(34.696875 215.453392) scale(0.1 -0.1)">
       <use xlink:href="#DejaVuSans-30"/>
       <use xlink:href="#DejaVuSans-2e" x="63.623047"/>
       <use xlink:href="#DejaVuSans-30" x="95.410156"/>
      </g>
     </g>
    </g>
    <g id="ytick_4">
     <g id="line2d_10">
      <g>
       <use xlink:href="#m2e9dddaf47" x="57.6" y="169.330692" style="stroke: #000000; stroke-width: 0.8"/>
      </g>
     </g>
     <g id="text_11">
      <!-- 0.5 -->
      <g transform="translate(34.696875 173.129911) scale(0.1 -0.1)">
       <use xlink:href="#DejaVuSans-30"/>
       <use xlink:href="#DejaVuSans-2e" x="63.623047"/>
       <use xlink:href="#DejaVuSans-35" x="95.410156"/>
      </g>
     </g>
    </g>
    <g id="ytick_5">
     <g id="line2d_11">
      <g>
       <use xlink:href="#m2e9dddaf47" x="57.6" y="127.007211" style="stroke: #000000; stroke-width: 0.8"/>
      </g>
     </g>
     <g id="text_12">
      <!-- 1.0 -->
      <g transform="translate(34.696875 130.80643) scale(0.1 -0.1)">
       <use xlink:href="#DejaVuSans-31"/>
       <use xlink:href="#DejaVuSans-2e" x="63.623047"/>
       <use xlink:href="#DejaVuSans-30" x="95.410156"/>
      </g>
     </g>
    </g>
    <g id="ytick_6">
     <g id="line2d_12">
      <g>
       <use xlink:href="#m2e9dddaf47" x="57.6" y="84.683729" style="stroke: #000000; stroke-width: 0.8"/>
      </g>
     </g>
     <g id="text_13">
      <!-- 1.5 -->
      <g transform="translate(34.696875 88.482948) scale(0.1 -0.1)">
       <use xlink:href="#DejaVuSans-31"/>
       <use xlink:href="#DejaVuSans-2e" x="63.623047"/>
       <use xlink:href="#DejaVuSans-35" x="95.410156"/>
      </g>
     </g>
    </g>
    <g id="ytick_7">
     <g id="line2d_13">
      <g>
       <use xlink:href="#m2e9dddaf47" x="57.6" y="42.360248" style="stroke: #000000; stroke-width: 0.8"/>
      </g>
     </g>
     <g id="text_14">
      <!-- 2.0 -->
      <g transform="translate(34.696875 46.159467) scale(0.1 -0.1)">
       <defs>
        <path id="DejaVuSans-32" d="M 1228 531 
L 3431 531 
L 3431 0 
L 469 0 
L 469 531 
Q 828 903 1448 1529 
Q 2069 2156 2228 2338 
Q 2531 2678 2651 2914 
Q 2772 3150 2772 3378 
Q 2772 3750 2511 3984 
Q 2250 4219 1831 4219 
Q 1534 4219 1204 4116 
Q 875 4013 500 3803 
L 500 4441 
Q 881 4594 1212 4672 
Q 1544 4750 1819 4750 
Q 2544 4750 2975 4387 
Q 3406 4025 3406 3419 
Q 3406 3131 3298 2873 
Q 3191 2616 2906 2266 
Q 2828 2175 2409 1742 
Q 1991 1309 1228 531 
z
" transform="scale(0.015625)"/>
       </defs>
       <use xlink:href="#DejaVuSans-32"/>
       <use xlink:href="#DejaVuSans-2e" x="63.623047"/>
       <use xlink:href="#DejaVuSans-30" x="95.410156"/>
      </g>
     </g>
    </g>
    <g id="text_15">
     <!-- Poultry Consumption -->
     <g transform="translate(20.2375 226.657688) rotate(-90) scale(0.1 -0.1)">
      <defs>
       <path id="DejaVuSans-75" d="M 544 1381 
L 544 3500 
L 1119 3500 
L 1119 1403 
Q 1119 906 1312 657 
Q 1506 409 1894 409 
Q 2359 409 2629 706 
Q 2900 1003 2900 1516 
L 2900 3500 
L 3475 3500 
L 3475 0 
L 2900 0 
L 2900 538 
Q 2691 219 2414 64 
Q 2138 -91 1772 -91 
Q 1169 -91 856 284 
Q 544 659 544 1381 
z
M 1991 3584 
L 1991 3584 
z
" transform="scale(0.015625)"/>
       <path id="DejaVuSans-6c" d="M 603 4863 
L 1178 4863 
L 1178 0 
L 603 0 
L 603 4863 
z
" transform="scale(0.015625)"/>
       <path id="DejaVuSans-79" d="M 2059 -325 
Q 1816 -950 1584 -1140 
Q 1353 -1331 966 -1331 
L 506 -1331 
L 506 -850 
L 844 -850 
Q 1081 -850 1212 -737 
Q 1344 -625 1503 -206 
L 1606 56 
L 191 3500 
L 800 3500 
L 1894 763 
L 2988 3500 
L 3597 3500 
L 2059 -325 
z
" transform="scale(0.015625)"/>
       <path id="DejaVuSans-43" d="M 4122 4306 
L 4122 3641 
Q 3803 3938 3442 4084 
Q 3081 4231 2675 4231 
Q 1875 4231 1450 3742 
Q 1025 3253 1025 2328 
Q 1025 1406 1450 917 
Q 1875 428 2675 428 
Q 3081 428 3442 575 
Q 3803 722 4122 1019 
L 4122 359 
Q 3791 134 3420 21 
Q 3050 -91 2638 -91 
Q 1578 -91 968 557 
Q 359 1206 359 2328 
Q 359 3453 968 4101 
Q 1578 4750 2638 4750 
Q 3056 4750 3426 4639 
Q 3797 4528 4122 4306 
z
" transform="scale(0.015625)"/>
       <path id="DejaVuSans-73" d="M 2834 3397 
L 2834 2853 
Q 2591 2978 2328 3040 
Q 2066 3103 1784 3103 
Q 1356 3103 1142 2972 
Q 928 2841 928 2578 
Q 928 2378 1081 2264 
Q 1234 2150 1697 2047 
L 1894 2003 
Q 2506 1872 2764 1633 
Q 3022 1394 3022 966 
Q 3022 478 2636 193 
Q 2250 -91 1575 -91 
Q 1294 -91 989 -36 
Q 684 19 347 128 
L 347 722 
Q 666 556 975 473 
Q 1284 391 1588 391 
Q 1994 391 2212 530 
Q 2431 669 2431 922 
Q 2431 1156 2273 1281 
Q 2116 1406 1581 1522 
L 1381 1569 
Q 847 1681 609 1914 
Q 372 2147 372 2553 
Q 372 3047 722 3315 
Q 1072 3584 1716 3584 
Q 2034 3584 2315 3537 
Q 2597 3491 2834 3397 
z
" transform="scale(0.015625)"/>
       <path id="DejaVuSans-6d" d="M 3328 2828 
Q 3544 3216 3844 3400 
Q 4144 3584 4550 3584 
Q 5097 3584 5394 3201 
Q 5691 2819 5691 2113 
L 5691 0 
L 5113 0 
L 5113 2094 
Q 5113 2597 4934 2840 
Q 4756 3084 4391 3084 
Q 3944 3084 3684 2787 
Q 3425 2491 3425 1978 
L 3425 0 
L 2847 0 
L 2847 2094 
Q 2847 2600 2669 2842 
Q 2491 3084 2119 3084 
Q 1678 3084 1418 2786 
Q 1159 2488 1159 1978 
L 1159 0 
L 581 0 
L 581 3500 
L 1159 3500 
L 1159 2956 
Q 1356 3278 1631 3431 
Q 1906 3584 2284 3584 
Q 2666 3584 2933 3390 
Q 3200 3197 3328 2828 
z
" transform="scale(0.015625)"/>
       <path id="DejaVuSans-70" d="M 1159 525 
L 1159 -1331 
L 581 -1331 
L 581 3500 
L 1159 3500 
L 1159 2969 
Q 1341 3281 1617 3432 
Q 1894 3584 2278 3584 
Q 2916 3584 3314 3078 
Q 3713 2572 3713 1747 
Q 3713 922 3314 415 
Q 2916 -91 2278 -91 
Q 1894 -91 1617 61 
Q 1341 213 1159 525 
z
M 3116 1747 
Q 3116 2381 2855 2742 
Q 2594 3103 2138 3103 
Q 1681 3103 1420 2742 
Q 1159 2381 1159 1747 
Q 1159 1113 1420 752 
Q 1681 391 2138 391 
Q 2594 391 2855 752 
Q 3116 1113 3116 1747 
z
" transform="scale(0.015625)"/>
      </defs>
      <use xlink:href="#DejaVuSans-50"/>
      <use xlink:href="#DejaVuSans-6f" x="56.677734"/>
      <use xlink:href="#DejaVuSans-75" x="117.859375"/>
      <use xlink:href="#DejaVuSans-6c" x="181.238281"/>
      <use xlink:href="#DejaVuSans-74" x="209.021484"/>
      <use xlink:href="#DejaVuSans-72" x="248.230469"/>
      <use xlink:href="#DejaVuSans-79" x="289.34375"/>
      <use xlink:href="#DejaVuSans-20" x="348.523438"/>
      <use xlink:href="#DejaVuSans-43" x="380.310547"/>
      <use xlink:href="#DejaVuSans-6f" x="450.134766"/>
      <use xlink:href="#DejaVuSans-6e" x="511.316406"/>
      <use xlink:href="#DejaVuSans-73" x="574.695312"/>
      <use xlink:href="#DejaVuSans-75" x="626.794922"/>
      <use xlink:href="#DejaVuSans-6d" x="690.173828"/>
      <use xlink:href="#DejaVuSans-70" x="787.585938"/>
      <use xlink:href="#DejaVuSans-74" x="851.0625"/>
      <use xlink:href="#DejaVuSans-69" x="890.271484"/>
      <use xlink:href="#DejaVuSans-6f" x="918.054688"/>
      <use xlink:href="#DejaVuSans-6e" x="979.236328"/>
     </g>
    </g>
   </g>
   <g id="PathCollection_8"/>
   <g id="PathCollection_9">
    <path d="M 57.6 184.983219 
L 63.207821 185.796684 
" clip-path="url(#pda9e648010)" style="fill: none; stroke-dasharray: 1.85,0.8; stroke-dashoffset: 0; stroke: #000000; stroke-width: 0.5"/>
    <path d="M 68.911128 213.891 
L 68.911128 216.192 
L 68.911128 218.88 
L 68.911128 221.568 
L 68.911128 224.256 
L 68.911128 226.944 
L 68.911128 229.632 
L 68.911128 232.32 
L 68.911128 235.008 
L 68.911128 237.696 
L 68.911128 240.384 
L 68.911128 243.072 
L 68.911128 245.76 
L 68.911128 248.448 
L 68.911128 251.136 
L 68.911128 253.824 
L 68.911128 256.512 
L 68.911128 259.2 
L 68.911128 261.888 
L 68.911128 264.576 
L 68.911128 267.264 
L 68.911128 269.952 
L 68.911128 272.64 
L 68.911128 275.328 
L 68.911128 278.016 
L 68.911128 280.704 
L 68.911128 283.392 
L 68.911128 286.08 
L 68.911128 288.768 
L 68.911128 291.456 
L 68.911128 294.144 
L 68.911128 296.832 
L 68.911128 299.52 
L 68.911128 302.208 
L 68.911128 304.896 
L 68.911128 307.584 
" clip-path="url(#pda9e648010)" style="fill: none; stroke-dasharray: 1.85,0.8; stroke-dashoffset: 0; stroke: #000000; stroke-width: 0.5"/>
    <path d="M 57.6 164.576779 
L 60.914021 165.12 
L 57.6 165.965708 
" clip-path="url(#pda9e648010)" style="fill: none; stroke-dasharray: 1.85,0.8; stroke-dashoffset: 0; stroke: #000000; stroke-width: 0.5"/>
    <path d="M 69.306021 41.472 
L 69.306021 44.16 
L 69.306021 46.848 
L 69.306021 49.536 
L 69.306021 52.224 
L 69.306021 54.912 
L 69.306021 57.6 
L 69.306021 60.288 
L 69.306021 62.976 
L 69.306021 65.664 
L 69.306021 68.352 
L 69.306021 70.653 
" clip-path="url(#pda9e648010)" style="fill: none; stroke-dasharray: 1.85,0.8; stroke-dashoffset: 0; stroke: #000000; stroke-width: 0.5"/>
    <path d="M 69.306021 103.683 
L 69.306021 105.984 
L 69.306021 108.672 
L 69.306021 111.36 
L 69.306021 114.048 
L 69.306021 116.736 
L 69.306021 119.424 
L 69.306021 122.112 
L 69.306021 124.8 
L 69.306021 127.488 
L 69.306021 130.176 
L 69.306021 132.864 
L 69.306021 135.552 
L 69.306021 138.24 
L 69.306021 140.928 
L 69.306021 143.616 
L 69.306021 146.304 
L 69.306021 148.992 
L 69.306021 151.68 
L 69.306021 154.368 
L 69.306021 157.056 
L 57.6 158.32526 
" clip-path="url(#pda9e648010)" style="fill: none; stroke-dasharray: 1.85,0.8; stroke-dashoffset: 0; stroke: #000000; stroke-width: 0.5"/>
   </g>
   <g id="PathCollection_10">
    <path d="M 86.474852 41.472 
L 86.474852 44.16 
L 86.474852 46.848 
L 86.474852 49.536 
L 86.474852 52.224 
L 86.474852 54.912 
L 86.474852 57.6 
L 86.474852 60.288 
L 86.474852 62.976 
L 86.474852 65.664 
L 86.474852 68.352 
L 86.474852 71.04 
L 86.474852 73.728 
L 86.474852 76.416 
L 86.474852 79.104 
L 86.474852 81.792 
L 86.474852 84.48 
L 86.474852 87.168 
L 86.474852 89.856 
L 86.474852 92.544 
L 86.474852 95.232 
L 86.474852 97.92 
L 86.474852 100.608 
L 86.474852 103.296 
L 86.474852 105.984 
L 86.474852 108.672 
L 86.474852 111.36 
L 86.474852 114.048 
L 86.474852 116.736 
L 86.474852 119.424 
L 86.474852 122.112 
L 86.474852 124.8 
L 86.474852 127.488 
L 86.474852 130.176 
L 86.474852 132.864 
L 86.474852 135.552 
L 86.474852 138.24 
L 86.474852 140.928 
L 86.474852 143.616 
L 86.474852 146.304 
L 86.474852 148.992 
L 86.474852 151.68 
L 86.474852 154.368 
L 86.474852 157.056 
L 61.684199 159.744 
L 61.684199 162.432 
L 78.082852 165.12 
L 67.549563 167.808 
L 67.549563 170.496 
L 67.549563 173.184 
L 67.549563 175.872 
L 67.549563 178.56 
L 67.549563 181.248 
L 67.549563 183.936 
L 86.079959 186.624 
L 86.079959 189.312 
L 86.079959 192 
L 86.079959 194.688 
L 86.079959 197.376 
L 86.079959 200.064 
L 86.079959 202.752 
L 86.079959 205.44 
L 86.079959 208.128 
L 86.079959 210.816 
L 86.079959 213.504 
L 86.079959 216.192 
L 86.079959 218.88 
L 86.079959 221.568 
L 86.079959 224.256 
L 86.079959 226.944 
L 86.079959 229.632 
L 86.079959 232.32 
L 86.079959 235.008 
L 86.079959 237.696 
L 86.079959 240.384 
L 86.079959 243.072 
L 86.079959 245.76 
L 86.079959 248.448 
L 86.079959 251.136 
L 86.079959 253.824 
L 86.079959 256.512 
L 86.079959 258.813 
" clip-path="url(#pda9e648010)" style="fill: none; stroke-dasharray: 1.85,0.8; stroke-dashoffset: 0; stroke: #000000; stroke-width: 0.5"/>
    <path d="M 86.079959 291.843 
L 86.079959 294.144 
L 86.079959 296.832 
L 86.079959 299.52 
L 86.079959 302.208 
L 86.079959 304.896 
L 86.079959 307.584 
" clip-path="url(#pda9e648010)" style="fill: none; stroke-dasharray: 1.85,0.8; stroke-dashoffset: 0; stroke: #000000; stroke-width: 0.5"/>
   </g>
   <g id="PathCollection_11">
    <path d="M 103.643683 41.472 
L 103.643683 44.16 
L 103.643683 46.848 
L 103.643683 49.536 
L 103.643683 52.224 
L 103.643683 54.912 
L 103.643683 57.6 
L 103.643683 60.288 
L 103.643683 62.976 
L 103.643683 65.664 
L 103.643683 68.352 
L 103.643683 70.653 
" clip-path="url(#pda9e648010)" style="fill: none; stroke-dasharray: 1.85,0.8; stroke-dashoffset: 0; stroke: #000000; stroke-width: 0.5"/>
    <path d="M 103.643683 103.683 
L 103.643683 105.984 
L 103.643683 108.672 
L 103.643683 111.36 
L 103.643683 114.048 
L 103.643683 116.736 
L 103.643683 119.424 
L 103.643683 122.112 
L 103.643683 124.8 
L 103.643683 127.488 
L 103.643683 130.176 
L 103.643683 132.864 
L 103.643683 135.552 
L 103.643683 138.24 
L 103.643683 140.928 
L 103.643683 143.616 
L 103.643683 146.304 
L 103.643683 148.992 
L 103.643683 151.68 
L 103.643683 154.368 
L 103.643683 157.056 
L 78.85303 159.744 
L 78.85303 162.432 
L 95.251683 165.12 
L 84.718394 167.808 
L 84.718394 170.496 
L 84.718394 173.184 
L 84.718394 175.872 
L 84.718394 178.56 
L 84.718394 181.248 
L 84.718394 183.936 
L 103.24879 186.624 
L 103.24879 189.312 
L 103.24879 192 
L 103.24879 194.688 
L 103.24879 197.376 
L 103.24879 200.064 
L 103.24879 202.752 
L 103.24879 205.44 
L 103.24879 208.128 
L 103.24879 210.816 
L 103.24879 213.504 
L 103.24879 216.192 
L 103.24879 218.88 
L 103.24879 221.568 
L 103.24879 224.256 
L 103.24879 226.944 
L 103.24879 229.632 
L 103.24879 232.32 
L 103.24879 235.008 
L 103.24879 237.696 
L 103.24879 240.384 
L 103.24879 243.072 
L 103.24879 245.76 
L 103.24879 248.448 
L 103.24879 251.136 
L 103.24879 253.824 
L 103.24879 256.512 
L 103.24879 259.2 
L 103.24879 261.888 
L 103.24879 264.576 
L 103.24879 267.264 
L 103.24879 269.952 
L 103.24879 272.64 
L 103.24879 275.328 
L 103.24879 278.016 
L 103.24879 280.704 
L 103.24879 283.392 
L 103.24879 286.08 
L 103.24879 288.768 
L 103.24879 291.456 
L 103.24879 294.144 
L 103.24879 296.832 
L 103.24879 299.52 
L 103.24879 302.208 
L 103.24879 304.896 
L 103.24879 307.584 
" clip-path="url(#pda9e648010)" style="fill: none; stroke-dasharray: 1.85,0.8; stroke-dashoffset: 0; stroke: #000000; stroke-width: 0.5"/>
   </g>
   <g id="PathCollection_12">
    <path d="M 120.812514 41.472 
L 120.812514 44.16 
L 120.812514 46.848 
L 120.812514 49.536 
L 120.812514 52.224 
L 120.812514 54.912 
L 120.812514 57.6 
L 120.812514 60.288 
L 120.812514 62.976 
L 120.812514 65.664 
L 120.812514 68.352 
L 120.812514 71.04 
L 120.812514 73.728 
L 120.812514 76.416 
L 120.812514 79.104 
L 120.812514 81.792 
L 120.812514 84.48 
L 120.812514 87.168 
L 120.812514 89.856 
L 120.812514 92.544 
L 120.812514 95.232 
L 120.812514 97.92 
L 120.812514 100.608 
L 120.812514 103.296 
L 120.812514 105.984 
L 120.812514 108.672 
L 120.812514 111.36 
L 120.812514 114.048 
L 120.812514 116.736 
L 120.812514 119.424 
L 120.812514 122.112 
L 120.812514 124.8 
L 120.812514 127.488 
L 120.812514 130.176 
L 120.812514 132.864 
L 120.812514 135.552 
L 120.812514 138.24 
L 120.812514 140.928 
L 120.812514 143.616 
L 120.812514 146.304 
L 120.812514 148.992 
L 120.812514 151.68 
L 120.812514 154.368 
L 120.812514 157.056 
L 96.02186 159.744 
L 96.02186 162.432 
L 112.420514 165.12 
L 101.887225 167.808 
L 101.887225 170.496 
L 101.887225 173.184 
L 101.887225 175.872 
L 101.887225 178.56 
L 101.887225 181.248 
L 101.887225 183.936 
L 120.417621 186.624 
L 120.417621 189.312 
L 120.417621 192 
L 120.417621 194.688 
L 120.417621 197.376 
L 120.417621 200.064 
L 120.417621 202.752 
L 120.417621 205.44 
L 120.417621 208.128 
L 120.417621 210.816 
L 120.417621 213.504 
L 120.417621 216.192 
L 120.417621 218.88 
L 120.417621 221.568 
L 120.417621 224.256 
L 120.417621 226.944 
L 120.417621 229.632 
L 120.417621 232.32 
L 120.417621 235.008 
L 120.417621 237.696 
L 120.417621 240.384 
L 120.417621 243.072 
L 120.417621 245.76 
L 120.417621 248.448 
L 120.417621 251.136 
L 120.417621 253.824 
L 120.417621 256.512 
L 120.417621 258.813 
" clip-path="url(#pda9e648010)" style="fill: none; stroke-dasharray: 1.85,0.8; stroke-dashoffset: 0; stroke: #000000; stroke-width: 0.5"/>
    <path d="M 120.417621 291.843 
L 120.417621 294.144 
L 120.417621 296.832 
L 120.417621 299.52 
L 120.417621 302.208 
L 120.417621 304.896 
L 120.417621 307.584 
" clip-path="url(#pda9e648010)" style="fill: none; stroke-dasharray: 1.85,0.8; stroke-dashoffset: 0; stroke: #000000; stroke-width: 0.5"/>
   </g>
   <g id="PathCollection_13">
    <path d="M 178.080263 41.472 
L 178.080263 44.16 
L 178.080263 46.848 
L 178.080263 49.536 
L 178.080263 52.224 
L 178.080263 54.912 
L 178.080263 57.6 
L 178.080263 60.288 
L 178.080263 62.976 
L 178.080263 65.664 
L 178.080263 68.352 
L 178.080263 70.653 
" clip-path="url(#pda9e648010)" style="fill: none; stroke-dasharray: 1.85,0.8; stroke-dashoffset: 0; stroke: #000000; stroke-width: 0.5"/>
    <path d="M 178.080263 103.683 
L 178.080263 105.984 
L 178.080263 108.672 
L 178.080263 111.36 
L 178.080263 114.048 
L 178.080263 116.736 
L 178.080263 119.424 
L 178.080263 122.112 
L 178.080263 124.8 
L 178.080263 127.488 
L 178.080263 130.176 
L 178.080263 132.864 
L 178.080263 135.552 
L 178.080263 138.24 
L 178.080263 140.928 
L 178.080263 143.616 
L 178.080263 146.304 
L 178.080263 148.992 
L 178.080263 151.68 
L 178.080263 154.368 
L 178.080263 157.056 
L 129.024 158.027227 
L 113.190691 159.744 
L 113.190691 162.432 
L 129.024 165.027331 
L 132.120198 165.12 
L 129.024 165.264271 
L 119.056056 167.808 
L 119.056056 170.496 
L 119.056056 173.184 
L 119.056056 175.872 
L 119.056056 178.56 
L 119.056056 181.248 
L 119.056056 183.936 
L 129.024 185.38194 
L 175.917572 186.624 
L 175.917572 189.312 
L 175.917572 192 
L 175.917572 194.688 
L 175.917572 197.376 
L 175.917572 200.064 
L 175.917572 202.752 
L 175.917572 205.44 
L 175.917572 208.128 
L 175.917572 210.816 
L 175.917572 213.504 
L 175.917572 216.192 
L 175.917572 218.88 
L 175.917572 221.568 
L 175.917572 224.256 
L 175.917572 226.944 
L 175.917572 229.632 
L 175.917572 232.32 
L 175.917572 235.008 
L 175.917572 237.696 
L 175.917572 240.384 
L 175.917572 243.072 
L 175.917572 245.76 
L 175.917572 248.448 
L 175.917572 251.136 
L 175.917572 253.824 
L 175.917572 256.512 
L 175.917572 259.2 
L 175.917572 261.888 
L 175.917572 264.576 
L 175.917572 267.264 
L 175.917572 269.952 
L 175.917572 272.64 
L 175.917572 275.328 
L 175.917572 278.016 
L 175.917572 280.704 
L 175.917572 283.392 
L 175.917572 286.08 
L 175.917572 288.768 
L 175.917572 291.456 
L 175.917572 294.144 
L 175.917572 296.832 
L 175.917572 299.52 
L 175.917572 302.208 
L 175.917572 304.896 
L 175.917572 307.584 
" clip-path="url(#pda9e648010)" style="fill: none; stroke-dasharray: 1.85,0.8; stroke-dashoffset: 0; stroke: #000000; stroke-width: 0.5"/>
   </g>
   <g id="PathCollection_14">
    <path d="M 414.72 166.317517 
L 343.296 166.317517 
L 271.872 166.317517 
L 200.448 166.317517 
L 176.902594 167.414643 
" clip-path="url(#pda9e648010)" style="fill: none; stroke-dasharray: 1.85,0.8; stroke-dashoffset: 0; stroke: #000000; stroke-width: 0.5"/>
    <path d="M 176.908791 184.159761 
L 200.448 184.78324 
L 271.872 184.78324 
L 343.296 184.78324 
L 414.72 184.78324 
" clip-path="url(#pda9e648010)" style="fill: none; stroke-dasharray: 1.85,0.8; stroke-dashoffset: 0; stroke: #000000; stroke-width: 0.5"/>
    <path d="M 414.72 158.47474 
L 343.296 158.47474 
L 271.872 158.47474 
L 200.448 158.47474 
L 150.162482 159.470304 
" clip-path="url(#pda9e648010)" style="fill: none; stroke-dasharray: 1.85,0.8; stroke-dashoffset: 0; stroke: #000000; stroke-width: 0.5"/>
    <path d="M 152.845799 162.926072 
L 200.448 164.350803 
L 271.872 164.350803 
L 343.296 164.350803 
L 414.72 164.350803 
" clip-path="url(#pda9e648010)" style="fill: none; stroke-dasharray: 1.85,0.8; stroke-dashoffset: 0; stroke: #000000; stroke-width: 0.5"/>
   </g>
   <g id="PathCollection_15"/>
   <g id="LineCollection_1">
    <path d="M 57.6 307.584 
L 57.6 294.2784 
" clip-path="url(#pda9e648010)" style="fill: none; stroke: #000000; stroke-width: 1.5"/>
    <path d="M 57.6 307.584 
L 57.6 294.2784 
" clip-path="url(#pda9e648010)" style="fill: none; stroke: #000000; stroke-width: 1.5"/>
    <path d="M 129.024 307.584 
L 129.024 294.2784 
" clip-path="url(#pda9e648010)" style="fill: none; stroke: #000000; stroke-width: 1.5"/>
    <path d="M 129.024 307.584 
L 129.024 294.2784 
" clip-path="url(#pda9e648010)" style="fill: none; stroke: #000000; stroke-width: 1.5"/>
    <path d="M 200.448 307.584 
L 200.448 294.2784 
" clip-path="url(#pda9e648010)" style="fill: none; stroke: #000000; stroke-width: 1.5"/>
    <path d="M 271.872 307.584 
L 271.872 294.2784 
" clip-path="url(#pda9e648010)" style="fill: none; stroke: #000000; stroke-width: 1.5"/>
    <path d="M 271.872 307.584 
L 271.872 294.2784 
" clip-path="url(#pda9e648010)" style="fill: none; stroke: #000000; stroke-width: 1.5"/>
    <path d="M 271.872 307.584 
L 271.872 294.2784 
" clip-path="url(#pda9e648010)" style="fill: none; stroke: #000000; stroke-width: 1.5"/>
    <path d="M 349.00992 307.584 
L 349.00992 294.2784 
" clip-path="url(#pda9e648010)" style="fill: none; stroke: #000000; stroke-width: 1.5"/>
   </g>
   <g id="LineCollection_2">
    <path clip-path="url(#pda9e648010)" style="fill: none; stroke: #000000; stroke-width: 1.5"/>
    <path clip-path="url(#pda9e648010)" style="fill: none; stroke: #000000; stroke-width: 1.5"/>
    <path clip-path="url(#pda9e648010)" style="fill: none; stroke: #000000; stroke-width: 1.5"/>
    <path clip-path="url(#pda9e648010)" style="fill: none; stroke: #000000; stroke-width: 1.5"/>
    <path d="M 202.2912 329.988556 
L 208.070246 329.988556 
" clip-path="url(#pda9e648010)" style="fill: none; stroke: #000000; stroke-width: 1.5"/>
    <path d="M 202.2912 284.826865 
L 208.070246 284.826865 
" clip-path="url(#pda9e648010)" style="fill: none; stroke: #000000; stroke-width: 1.5"/>
    <path d="M 202.2912 203.756808 
L 208.070246 203.756808 
" clip-path="url(#pda9e648010)" style="fill: none; stroke: #000000; stroke-width: 1.5"/>
    <path d="M 202.2912 110.732224 
L 208.070246 110.732224 
" clip-path="url(#pda9e648010)" style="fill: none; stroke: #000000; stroke-width: 1.5"/>
    <path clip-path="url(#pda9e648010)" style="fill: none; stroke: #000000; stroke-width: 1.5"/>
   </g>
   <g id="patch_3">
    <path d="M 57.6 307.584 
L 57.6 41.472 
" style="fill: none; stroke: #000000; stroke-width: 0.8; stroke-linejoin: miter; stroke-linecap: square"/>
   </g>
   <g id="patch_4">
    <path d="M 414.72 307.584 
L 414.72 41.472 
" style="fill: none; stroke: #000000; stroke-width: 0.8; stroke-linejoin: miter; stroke-linecap: square"/>
   </g>
   <g id="patch_5">
    <path d="M 57.6 307.584 
L 414.72 307.584 
" style="fill: none; stroke: #000000; stroke-width: 0.8; stroke-linejoin: miter; stroke-linecap: square"/>
   </g>
   <g id="patch_6">
    <path d="M 57.6 41.472 
L 414.72 41.472 
" style="fill: none; stroke: #000000; stroke-width: 0.8; stroke-linejoin: miter; stroke-linecap: square"/>
   </g>
   <g id="text_16">
    <!-- 2D-partial dependency plot between PL and Poultry -->
    <g transform="translate(81.237188 35.472) scale(0.12 -0.12)">
     <defs>
      <path id="DejaVuSans-44" d="M 1259 4147 
L 1259 519 
L 2022 519 
Q 2988 519 3436 956 
Q 3884 1394 3884 2338 
Q 3884 3275 3436 3711 
Q 2988 4147 2022 4147 
L 1259 4147 
z
M 628 4666 
L 1925 4666 
Q 3281 4666 3915 4102 
Q 4550 3538 4550 2338 
Q 4550 1131 3912 565 
Q 3275 0 1925 0 
L 628 0 
L 628 4666 
z
" transform="scale(0.015625)"/>
      <path id="DejaVuSans-2d" d="M 313 2009 
L 1997 2009 
L 1997 1497 
L 313 1497 
L 313 2009 
z
" transform="scale(0.015625)"/>
      <path id="DejaVuSans-64" d="M 2906 2969 
L 2906 4863 
L 3481 4863 
L 3481 0 
L 2906 0 
L 2906 525 
Q 2725 213 2448 61 
Q 2172 -91 1784 -91 
Q 1150 -91 751 415 
Q 353 922 353 1747 
Q 353 2572 751 3078 
Q 1150 3584 1784 3584 
Q 2172 3584 2448 3432 
Q 2725 3281 2906 2969 
z
M 947 1747 
Q 947 1113 1208 752 
Q 1469 391 1925 391 
Q 2381 391 2643 752 
Q 2906 1113 2906 1747 
Q 2906 2381 2643 2742 
Q 2381 3103 1925 3103 
Q 1469 3103 1208 2742 
Q 947 2381 947 1747 
z
" transform="scale(0.015625)"/>
      <path id="DejaVuSans-62" d="M 3116 1747 
Q 3116 2381 2855 2742 
Q 2594 3103 2138 3103 
Q 1681 3103 1420 2742 
Q 1159 2381 1159 1747 
Q 1159 1113 1420 752 
Q 1681 391 2138 391 
Q 2594 391 2855 752 
Q 3116 1113 3116 1747 
z
M 1159 2969 
Q 1341 3281 1617 3432 
Q 1894 3584 2278 3584 
Q 2916 3584 3314 3078 
Q 3713 2572 3713 1747 
Q 3713 922 3314 415 
Q 2916 -91 2278 -91 
Q 1894 -91 1617 61 
Q 1341 213 1159 525 
L 1159 0 
L 581 0 
L 581 4863 
L 1159 4863 
L 1159 2969 
z
" transform="scale(0.015625)"/>
      <path id="DejaVuSans-77" d="M 269 3500 
L 844 3500 
L 1563 769 
L 2278 3500 
L 2956 3500 
L 3675 769 
L 4391 3500 
L 4966 3500 
L 4050 0 
L 3372 0 
L 2619 2869 
L 1863 0 
L 1184 0 
L 269 3500 
z
" transform="scale(0.015625)"/>
     </defs>
     <use xlink:href="#DejaVuSans-32"/>
     <use xlink:href="#DejaVuSans-44" x="63.623047"/>
     <use xlink:href="#DejaVuSans-2d" x="140.625"/>
     <use xlink:href="#DejaVuSans-70" x="176.708984"/>
     <use xlink:href="#DejaVuSans-61" x="240.185547"/>
     <use xlink:href="#DejaVuSans-72" x="301.464844"/>
     <use xlink:href="#DejaVuSans-74" x="342.578125"/>
     <use xlink:href="#DejaVuSans-69" x="381.787109"/>
     <use xlink:href="#DejaVuSans-61" x="409.570312"/>
     <use xlink:href="#DejaVuSans-6c" x="470.849609"/>
     <use xlink:href="#DejaVuSans-20" x="498.632812"/>
     <use xlink:href="#DejaVuSans-64" x="530.419922"/>
     <use xlink:href="#DejaVuSans-65" x="593.896484"/>
     <use xlink:href="#DejaVuSans-70" x="655.419922"/>
     <use xlink:href="#DejaVuSans-65" x="718.896484"/>
     <use xlink:href="#DejaVuSans-6e" x="780.419922"/>
     <use xlink:href="#DejaVuSans-64" x="843.798828"/>
     <use xlink:href="#DejaVuSans-65" x="907.275391"/>
     <use xlink:href="#DejaVuSans-6e" x="968.798828"/>
     <use xlink:href="#DejaVuSans-63" x="1032.177734"/>
     <use xlink:href="#DejaVuSans-79" x="1087.158203"/>
     <use xlink:href="#DejaVuSans-20" x="1146.337891"/>
     <use xlink:href="#DejaVuSans-70" x="1178.125"/>
     <use xlink:href="#DejaVuSans-6c" x="1241.601562"/>
     <use xlink:href="#DejaVuSans-6f" x="1269.384766"/>
     <use xlink:href="#DejaVuSans-74" x="1330.566406"/>
     <use xlink:href="#DejaVuSans-20" x="1369.775391"/>
     <use xlink:href="#DejaVuSans-62" x="1401.5625"/>
     <use xlink:href="#DejaVuSans-65" x="1465.039062"/>
     <use xlink:href="#DejaVuSans-74" x="1526.5625"/>
     <use xlink:href="#DejaVuSans-77" x="1565.771484"/>
     <use xlink:href="#DejaVuSans-65" x="1647.558594"/>
     <use xlink:href="#DejaVuSans-65" x="1709.082031"/>
     <use xlink:href="#DejaVuSans-6e" x="1770.605469"/>
     <use xlink:href="#DejaVuSans-20" x="1833.984375"/>
     <use xlink:href="#DejaVuSans-50" x="1865.771484"/>
     <use xlink:href="#DejaVuSans-4c" x="1926.074219"/>
     <use xlink:href="#DejaVuSans-20" x="1981.787109"/>
     <use xlink:href="#DejaVuSans-61" x="2013.574219"/>
     <use xlink:href="#DejaVuSans-6e" x="2074.853516"/>
     <use xlink:href="#DejaVuSans-64" x="2138.232422"/>
     <use xlink:href="#DejaVuSans-20" x="2201.708984"/>
     <use xlink:href="#DejaVuSans-50" x="2233.496094"/>
     <use xlink:href="#DejaVuSans-6f" x="2290.173828"/>
     <use xlink:href="#DejaVuSans-75" x="2351.355469"/>
     <use xlink:href="#DejaVuSans-6c" x="2414.734375"/>
     <use xlink:href="#DejaVuSans-74" x="2442.517578"/>
     <use xlink:href="#DejaVuSans-72" x="2481.726562"/>
     <use xlink:href="#DejaVuSans-79" x="2522.839844"/>
    </g>
   </g>
   <g id="text_17">
    <g clip-path="url(#pda9e648010)">
     <!-- -0.03 -->
     <g transform="translate(65.012332 184.735896) rotate(-275.101564) scale(0.1 -0.1)">
      <defs>
       <path id="DejaVuSans-33" d="M 2597 2516 
Q 3050 2419 3304 2112 
Q 3559 1806 3559 1356 
Q 3559 666 3084 287 
Q 2609 -91 1734 -91 
Q 1441 -91 1130 -33 
Q 819 25 488 141 
L 488 750 
Q 750 597 1062 519 
Q 1375 441 1716 441 
Q 2309 441 2620 675 
Q 2931 909 2931 1356 
Q 2931 1769 2642 2001 
Q 2353 2234 1838 2234 
L 1294 2234 
L 1294 2753 
L 1863 2753 
Q 2328 2753 2575 2939 
Q 2822 3125 2822 3475 
Q 2822 3834 2567 4026 
Q 2313 4219 1838 4219 
Q 1578 4219 1281 4162 
Q 984 4106 628 3988 
L 628 4550 
Q 988 4650 1302 4700 
Q 1616 4750 1894 4750 
Q 2613 4750 3031 4423 
Q 3450 4097 3450 3541 
Q 3450 3153 3228 2886 
Q 3006 2619 2597 2516 
z
" transform="scale(0.015625)"/>
      </defs>
      <use xlink:href="#DejaVuSans-2d"/>
      <use xlink:href="#DejaVuSans-30" x="36.083984"/>
      <use xlink:href="#DejaVuSans-2e" x="99.707031"/>
      <use xlink:href="#DejaVuSans-30" x="131.494141"/>
      <use xlink:href="#DejaVuSans-33" x="195.117188"/>
     </g>
    </g>
   </g>
   <g id="text_18">
    <g clip-path="url(#pda9e648010)">
     <!-- -0.03 -->
     <g transform="translate(66.546646 74.231281) rotate(-270) scale(0.1 -0.1)">
      <use xlink:href="#DejaVuSans-2d"/>
      <use xlink:href="#DejaVuSans-30" x="36.083984"/>
      <use xlink:href="#DejaVuSans-2e" x="99.707031"/>
      <use xlink:href="#DejaVuSans-30" x="131.494141"/>
      <use xlink:href="#DejaVuSans-33" x="195.117188"/>
     </g>
    </g>
   </g>
   <g id="text_19">
    <g clip-path="url(#pda9e648010)">
     <!-- -0.03 -->
     <g transform="translate(83.320584 262.391281) rotate(-270) scale(0.1 -0.1)">
      <use xlink:href="#DejaVuSans-2d"/>
      <use xlink:href="#DejaVuSans-30" x="36.083984"/>
      <use xlink:href="#DejaVuSans-2e" x="99.707031"/>
      <use xlink:href="#DejaVuSans-30" x="131.494141"/>
      <use xlink:href="#DejaVuSans-33" x="195.117188"/>
     </g>
    </g>
   </g>
   <g id="text_20">
    <g clip-path="url(#pda9e648010)">
     <!-- -0.03 -->
     <g transform="translate(100.884308 74.231281) rotate(-270) scale(0.1 -0.1)">
      <use xlink:href="#DejaVuSans-2d"/>
      <use xlink:href="#DejaVuSans-30" x="36.083984"/>
      <use xlink:href="#DejaVuSans-2e" x="99.707031"/>
      <use xlink:href="#DejaVuSans-30" x="131.494141"/>
      <use xlink:href="#DejaVuSans-33" x="195.117188"/>
     </g>
    </g>
   </g>
   <g id="text_21">
    <g clip-path="url(#pda9e648010)">
     <!-- -0.03 -->
     <g transform="translate(117.658246 262.391281) rotate(-270) scale(0.1 -0.1)">
      <use xlink:href="#DejaVuSans-2d"/>
      <use xlink:href="#DejaVuSans-30" x="36.083984"/>
      <use xlink:href="#DejaVuSans-2e" x="99.707031"/>
      <use xlink:href="#DejaVuSans-30" x="131.494141"/>
      <use xlink:href="#DejaVuSans-33" x="195.117188"/>
     </g>
    </g>
   </g>
   <g id="text_22">
    <g clip-path="url(#pda9e648010)">
     <!-- -0.03 -->
     <g transform="translate(175.320888 74.231281) rotate(-270) scale(0.1 -0.1)">
      <use xlink:href="#DejaVuSans-2d"/>
      <use xlink:href="#DejaVuSans-30" x="36.083984"/>
      <use xlink:href="#DejaVuSans-2e" x="99.707031"/>
      <use xlink:href="#DejaVuSans-30" x="131.494141"/>
      <use xlink:href="#DejaVuSans-33" x="195.117188"/>
     </g>
    </g>
   </g>
   <g id="text_23">
    <g clip-path="url(#pda9e648010)">
     <!-- -0.02 -->
     <g transform="translate(165.698587 162.935877) rotate(-270.012365) scale(0.1 -0.1)">
      <use xlink:href="#DejaVuSans-2d"/>
      <use xlink:href="#DejaVuSans-30" x="36.083984"/>
      <use xlink:href="#DejaVuSans-2e" x="99.707031"/>
      <use xlink:href="#DejaVuSans-30" x="131.494141"/>
      <use xlink:href="#DejaVuSans-32" x="195.117188"/>
     </g>
    </g>
   </g>
   <g id="text_24">
    <g clip-path="url(#pda9e648010)">
     <!-- -0.02 -->
     <g transform="translate(126.005706 154.172908) rotate(-309.322881) scale(0.1 -0.1)">
      <use xlink:href="#DejaVuSans-2d"/>
      <use xlink:href="#DejaVuSans-30" x="36.083984"/>
      <use xlink:href="#DejaVuSans-2e" x="99.707031"/>
      <use xlink:href="#DejaVuSans-30" x="131.494141"/>
      <use xlink:href="#DejaVuSans-32" x="195.117188"/>
     </g>
    </g>
   </g>
  </g>
 </g>
 <defs>
  <clipPath id="pda9e648010">
   <rect x="57.6" y="41.472" width="357.12" height="266.112"/>
  </clipPath>
 </defs>
</svg>
