<?xml version="1.0" encoding="utf-8" standalone="no"?>
<!DOCTYPE svg PUBLIC "-//W3C//DTD SVG 1.1//EN"
  "http://www.w3.org/Graphics/SVG/1.1/DTD/svg11.dtd">
<svg xmlns:xlink="http://www.w3.org/1999/xlink" width="460.8pt" height="345.6pt" viewBox="0 0 460.8 345.6" xmlns="http://www.w3.org/2000/svg" version="1.1">
 <metadata>
  <rdf:RDF xmlns:dc="http://purl.org/dc/elements/1.1/" xmlns:cc="http://creativecommons.org/ns#" xmlns:rdf="http://www.w3.org/1999/02/22-rdf-syntax-ns#">
   <cc:Work>
    <dc:type rdf:resource="http://purl.org/dc/dcmitype/StillImage"/>
    <dc:date>2024-02-15T12:27:10.291849</dc:date>
    <dc:format>image/svg+xml</dc:format>
    <dc:creator>
     <cc:Agent>
      <dc:title>Matplotlib v3.7.0, https://matplotlib.org/</dc:title>
     </cc:Agent>
    </dc:creator>
   </cc:Work>
  </rdf:RDF>
 </metadata>
 <defs>
  <style type="text/css">*{stroke-linejoin: round; stroke-linecap: butt}</style>
 </defs>
 <g id="figure_1">
  <g id="patch_1">
   <path d="M 0 345.6 
L 460.8 345.6 
L 460.8 0 
L 0 0 
L 0 345.6 
z
" style="fill: none"/>
  </g>
  <g id="axes_1"/>
  <g id="axes_2">
   <g id="patch_2">
    <path d="M 57.6 307.584 
L 414.72 307.584 
L 414.72 41.472 
L 57.6 41.472 
L 57.6 307.584 
z
" style="fill: none"/>
   </g>
   <g id="PathCollection_1">
    <path d="M 173.032727 236.06763 
L 176.64 236.06763 
L 180.247273 236.06763 
L 183.854545 236.06763 
L 187.461818 236.06763 
L 191.069091 236.06763 
L 194.676364 236.06763 
L 198.283636 236.06763 
L 199.474161 235.008 
L 201.890909 233.589767 
L 205.498182 233.589767 
L 209.105455 233.589767 
L 212.712727 233.589767 
L 216.32 233.589767 
L 219.927273 233.589767 
L 223.534545 233.589767 
L 227.141818 233.589767 
L 230.749091 233.589767 
L 234.356364 233.589767 
L 237.963636 233.589767 
L 241.570909 233.589767 
L 245.178182 233.589767 
L 248.785455 233.589767 
L 252.392727 233.589767 
L 256 233.589767 
L 259.607273 233.589767 
L 263.214545 233.589767 
L 266.821818 233.589767 
L 270.429091 233.589767 
L 274.036364 233.589767 
L 277.643636 233.589767 
L 281.250909 233.589767 
L 284.858182 233.589767 
L 288.465455 233.589767 
L 292.072727 233.589767 
L 295.68 233.589767 
L 299.287273 233.589767 
L 302.894545 233.589767 
L 306.501818 233.589767 
L 310.109091 233.589767 
L 313.716364 233.589767 
L 317.323636 233.589767 
L 320.930909 233.589767 
L 324.538182 233.589767 
L 328.145455 233.589767 
L 331.752727 233.589767 
L 335.36 233.589767 
L 338.967273 233.589767 
L 342.574545 233.589767 
L 346.181818 233.589767 
L 349.789091 233.589767 
L 353.396364 233.589767 
L 357.003636 233.589767 
L 360.610909 233.589767 
L 364.218182 233.589767 
L 367.825455 233.589767 
L 371.432727 233.589767 
L 375.04 233.589767 
L 378.647273 233.589767 
L 382.254545 233.589767 
L 385.861818 233.589767 
L 389.469091 233.589767 
L 393.076364 233.589767 
L 396.683636 233.589767 
L 400.290909 233.589767 
L 403.898182 233.589767 
L 407.505455 233.589767 
L 411.112727 233.589767 
L 414.72 233.589767 
L 414.72 232.32 
L 414.72 229.632 
L 414.72 226.944 
L 414.72 224.256 
L 414.72 221.568 
L 414.72 218.88 
L 414.72 216.192 
L 414.72 213.504 
L 414.72 210.816 
L 414.72 208.128 
L 414.72 205.44 
L 414.72 202.752 
L 414.72 200.064 
L 414.72 197.376 
L 414.72 194.688 
L 414.72 192 
L 414.72 189.312 
L 414.72 186.624 
L 414.72 183.936 
L 414.72 181.248 
L 414.72 178.56 
L 414.72 175.872 
L 414.72 173.184 
L 414.72 170.496 
L 414.72 167.808 
L 414.72 165.12 
L 414.72 162.432 
L 414.72 159.744 
L 414.72 157.056 
L 414.72 154.368 
L 414.72 151.68 
L 414.72 148.992 
L 414.72 146.304 
L 414.72 143.616 
L 414.72 140.928 
L 414.72 138.24 
L 414.72 135.552 
L 414.72 132.864 
L 414.72 130.176 
L 414.72 127.488 
L 414.72 124.8 
L 414.72 122.112 
L 414.72 119.424 
L 414.72 116.736 
L 414.72 114.048 
L 414.72 111.36 
L 414.72 108.672 
L 414.72 105.984 
L 414.72 103.296 
L 414.72 100.608 
L 414.72 97.92 
L 414.72 95.232 
L 414.72 92.544 
L 414.72 89.856 
L 414.72 87.168 
L 414.72 84.48 
L 414.72 81.792 
L 414.72 79.104 
L 414.72 76.416 
L 414.72 73.728 
L 414.72 71.04 
L 414.72 68.352 
L 414.72 65.664 
L 414.72 62.976 
L 414.72 60.288 
L 414.72 57.6 
L 414.72 54.912 
L 414.72 52.224 
L 414.72 49.536 
L 414.72 46.848 
L 414.72 44.16 
L 414.72 41.472 
L 411.112727 41.472 
L 407.505455 41.472 
L 403.898182 41.472 
L 400.290909 41.472 
L 396.683636 41.472 
L 393.076364 41.472 
L 389.469091 41.472 
L 385.861818 41.472 
L 382.254545 41.472 
L 378.647273 41.472 
L 375.04 41.472 
L 371.432727 41.472 
L 367.825455 41.472 
L 364.218182 41.472 
L 360.610909 41.472 
L 357.003636 41.472 
L 353.396364 41.472 
L 349.789091 41.472 
L 346.181818 41.472 
L 342.574545 41.472 
L 338.967273 41.472 
L 335.36 41.472 
L 331.752727 41.472 
L 328.145455 41.472 
L 324.538182 41.472 
L 320.930909 41.472 
L 317.323636 41.472 
L 313.716364 41.472 
L 310.109091 41.472 
L 306.501818 41.472 
L 302.894545 41.472 
L 299.287273 41.472 
L 295.68 41.472 
L 292.072727 41.472 
L 288.465455 41.472 
L 284.858182 41.472 
L 281.250909 41.472 
L 277.643636 41.472 
L 274.036364 41.472 
L 270.429091 41.472 
L 266.821818 41.472 
L 263.214545 41.472 
L 259.607273 41.472 
L 256 41.472 
L 252.392727 41.472 
L 248.785455 41.472 
L 245.178182 41.472 
L 241.570909 41.472 
L 237.963636 41.472 
L 234.356364 41.472 
L 230.749091 41.472 
L 227.141818 41.472 
L 223.534545 41.472 
L 219.927273 41.472 
L 216.32 41.472 
L 212.712727 41.472 
L 209.105455 41.472 
L 205.498182 41.472 
L 201.890909 41.472 
L 198.283636 41.472 
L 194.676364 41.472 
L 191.069091 41.472 
L 187.461818 41.472 
L 183.854545 41.472 
L 180.247273 41.472 
L 176.64 41.472 
L 173.032727 41.472 
L 169.425455 41.472 
L 166.259451 41.472 
L 166.259451 44.16 
L 166.259451 46.848 
L 166.259451 49.536 
L 166.259451 52.224 
L 166.259451 54.912 
L 166.259451 57.6 
L 166.259451 60.288 
L 166.259451 62.976 
L 166.259451 65.664 
L 166.259451 68.352 
L 166.259451 71.04 
L 166.259451 73.728 
L 166.259451 76.416 
L 166.259451 79.104 
L 166.259451 81.792 
L 166.259451 84.48 
L 166.259451 87.168 
L 166.259451 89.856 
L 166.259451 92.544 
L 166.259451 95.232 
L 166.259451 97.92 
L 166.259451 100.608 
L 166.259451 103.296 
L 166.259451 105.984 
L 166.259451 108.672 
L 166.259451 111.36 
L 166.259451 114.048 
L 166.259451 116.736 
L 166.259451 119.424 
L 166.259451 122.112 
L 166.259451 124.8 
L 166.259451 127.488 
L 166.259451 130.176 
L 166.259451 132.864 
L 166.259451 135.552 
L 166.259451 138.24 
L 166.259451 140.928 
L 166.259451 143.616 
L 166.259451 146.304 
L 166.259451 148.992 
L 166.259451 151.68 
L 166.259451 154.368 
L 166.259451 157.056 
L 166.259451 159.744 
L 166.259451 162.432 
L 166.259451 165.12 
L 166.259451 167.808 
L 166.259451 170.496 
L 166.259451 173.184 
L 166.259451 175.872 
L 166.259451 178.56 
L 166.259451 181.248 
L 166.259451 183.936 
L 166.259451 186.624 
L 166.259451 189.312 
L 166.259451 192 
L 166.259451 194.688 
L 166.259451 197.376 
L 167.217618 200.064 
L 167.217618 202.752 
L 168.410077 205.44 
L 168.410077 208.128 
L 168.410077 210.816 
L 168.410077 213.504 
L 169.363056 216.192 
L 169.363056 218.88 
L 169.363056 221.568 
L 169.363056 224.256 
L 169.363056 226.944 
L 169.363056 229.632 
L 169.363056 232.32 
L 169.425455 232.411637 
L 172.267875 235.008 
z
" clip-path="url(#p770f5ca120)" style="fill: #481b6d; fill-opacity: 0.75"/>
   </g>
   <g id="PathCollection_2">
    <path d="M 169.425455 246.435516 
L 173.032727 248.295438 
L 176.64 248.295438 
L 180.247273 248.295438 
L 183.854545 248.295438 
L 187.461818 248.295438 
L 191.069091 248.295438 
L 194.676364 248.295438 
L 198.283636 248.295438 
L 201.890909 247.100531 
L 205.498182 247.100531 
L 209.105455 247.100531 
L 212.712727 247.100531 
L 216.32 247.100531 
L 219.927273 247.100531 
L 223.534545 247.100531 
L 227.141818 247.100531 
L 230.749091 247.100531 
L 234.356364 247.100531 
L 237.963636 247.100531 
L 241.570909 247.100531 
L 245.178182 247.100531 
L 248.785455 247.100531 
L 252.392727 247.100531 
L 256 247.100531 
L 259.607273 247.100531 
L 263.214545 247.100531 
L 266.821818 247.100531 
L 270.429091 247.100531 
L 274.036364 247.100531 
L 277.643636 247.100531 
L 281.250909 247.100531 
L 284.858182 247.100531 
L 288.465455 247.100531 
L 292.072727 247.100531 
L 295.68 247.100531 
L 299.287273 247.100531 
L 302.894545 247.100531 
L 306.501818 247.100531 
L 310.109091 247.100531 
L 313.716364 247.100531 
L 317.323636 247.100531 
L 320.930909 247.100531 
L 324.538182 247.100531 
L 328.145455 247.100531 
L 331.752727 247.100531 
L 335.36 247.100531 
L 338.967273 247.100531 
L 342.574545 247.100531 
L 346.181818 247.100531 
L 349.789091 247.100531 
L 353.396364 247.100531 
L 357.003636 247.100531 
L 360.610909 247.100531 
L 364.218182 247.100531 
L 367.825455 247.100531 
L 371.432727 247.100531 
L 375.04 247.100531 
L 378.647273 247.100531 
L 382.254545 247.100531 
L 385.861818 247.100531 
L 389.469091 247.100531 
L 393.076364 247.100531 
L 396.683636 247.100531 
L 400.290909 247.100531 
L 403.898182 247.100531 
L 407.505455 247.100531 
L 411.112727 247.100531 
L 414.72 247.100531 
L 414.72 245.76 
L 414.72 243.072 
L 414.72 240.384 
L 414.72 237.696 
L 414.72 235.008 
L 414.72 233.589767 
L 411.112727 233.589767 
L 407.505455 233.589767 
L 403.898182 233.589767 
L 400.290909 233.589767 
L 396.683636 233.589767 
L 393.076364 233.589767 
L 389.469091 233.589767 
L 385.861818 233.589767 
L 382.254545 233.589767 
L 378.647273 233.589767 
L 375.04 233.589767 
L 371.432727 233.589767 
L 367.825455 233.589767 
L 364.218182 233.589767 
L 360.610909 233.589767 
L 357.003636 233.589767 
L 353.396364 233.589767 
L 349.789091 233.589767 
L 346.181818 233.589767 
L 342.574545 233.589767 
L 338.967273 233.589767 
L 335.36 233.589767 
L 331.752727 233.589767 
L 328.145455 233.589767 
L 324.538182 233.589767 
L 320.930909 233.589767 
L 317.323636 233.589767 
L 313.716364 233.589767 
L 310.109091 233.589767 
L 306.501818 233.589767 
L 302.894545 233.589767 
L 299.287273 233.589767 
L 295.68 233.589767 
L 292.072727 233.589767 
L 288.465455 233.589767 
L 284.858182 233.589767 
L 281.250909 233.589767 
L 277.643636 233.589767 
L 274.036364 233.589767 
L 270.429091 233.589767 
L 266.821818 233.589767 
L 263.214545 233.589767 
L 259.607273 233.589767 
L 256 233.589767 
L 252.392727 233.589767 
L 248.785455 233.589767 
L 245.178182 233.589767 
L 241.570909 233.589767 
L 237.963636 233.589767 
L 234.356364 233.589767 
L 230.749091 233.589767 
L 227.141818 233.589767 
L 223.534545 233.589767 
L 219.927273 233.589767 
L 216.32 233.589767 
L 212.712727 233.589767 
L 209.105455 233.589767 
L 205.498182 233.589767 
L 201.890909 233.589767 
L 199.474161 235.008 
L 198.283636 236.06763 
L 194.676364 236.06763 
L 191.069091 236.06763 
L 187.461818 236.06763 
L 183.854545 236.06763 
L 180.247273 236.06763 
L 176.64 236.06763 
L 173.032727 236.06763 
L 172.267875 235.008 
L 169.425455 232.411637 
L 169.363056 232.32 
L 169.363056 229.632 
L 169.363056 226.944 
L 169.363056 224.256 
L 169.363056 221.568 
L 169.363056 218.88 
L 169.363056 216.192 
L 168.410077 213.504 
L 168.410077 210.816 
L 168.410077 208.128 
L 168.410077 205.44 
L 167.217618 202.752 
L 167.217618 200.064 
L 166.259451 197.376 
L 166.259451 194.688 
L 166.259451 192 
L 166.259451 189.312 
L 166.259451 186.624 
L 166.259451 183.936 
L 166.259451 181.248 
L 166.259451 178.56 
L 166.259451 175.872 
L 166.259451 173.184 
L 166.259451 170.496 
L 166.259451 167.808 
L 166.259451 165.12 
L 166.259451 162.432 
L 166.259451 159.744 
L 166.259451 157.056 
L 166.259451 154.368 
L 166.259451 151.68 
L 166.259451 148.992 
L 166.259451 146.304 
L 166.259451 143.616 
L 166.259451 140.928 
L 166.259451 138.24 
L 166.259451 135.552 
L 166.259451 132.864 
L 166.259451 130.176 
L 166.259451 127.488 
L 166.259451 124.8 
L 166.259451 122.112 
L 166.259451 119.424 
L 166.259451 116.736 
L 166.259451 114.048 
L 166.259451 111.36 
L 166.259451 108.672 
L 166.259451 105.984 
L 166.259451 103.296 
L 166.259451 100.608 
L 166.259451 97.92 
L 166.259451 95.232 
L 166.259451 92.544 
L 166.259451 89.856 
L 166.259451 87.168 
L 166.259451 84.48 
L 166.259451 81.792 
L 166.259451 79.104 
L 166.259451 76.416 
L 166.259451 73.728 
L 166.259451 71.04 
L 166.259451 68.352 
L 166.259451 65.664 
L 166.259451 62.976 
L 166.259451 60.288 
L 166.259451 57.6 
L 166.259451 54.912 
L 166.259451 52.224 
L 166.259451 49.536 
L 166.259451 46.848 
L 166.259451 44.16 
L 166.259451 41.472 
L 165.818182 41.472 
L 162.210909 41.472 
L 158.603636 41.472 
L 154.996364 41.472 
L 151.389091 41.472 
L 147.781818 41.472 
L 144.174545 41.472 
L 140.567273 41.472 
L 136.96 41.472 
L 133.352727 41.472 
L 129.745455 41.472 
L 126.138182 41.472 
L 122.530909 41.472 
L 118.923636 41.472 
L 115.316364 41.472 
L 111.709091 41.472 
L 108.101818 41.472 
L 104.494545 41.472 
L 100.887273 41.472 
L 97.28 41.472 
L 93.672727 41.472 
L 90.065455 41.472 
L 86.458182 41.472 
L 82.850909 41.472 
L 79.243636 41.472 
L 75.636364 41.472 
L 72.029091 41.472 
L 68.421818 41.472 
L 64.814545 41.472 
L 61.207273 41.472 
L 57.6 41.472 
L 57.6 44.16 
L 57.6 46.848 
L 57.6 49.536 
L 57.6 52.224 
L 57.6 54.912 
L 57.6 57.6 
L 57.6 60.288 
L 57.6 62.976 
L 57.6 65.664 
L 57.6 68.352 
L 57.6 71.04 
L 57.6 73.728 
L 57.6 76.416 
L 57.6 79.104 
L 57.6 81.792 
L 57.6 84.48 
L 57.6 87.168 
L 57.6 89.856 
L 57.6 92.544 
L 57.6 95.232 
L 57.6 97.92 
L 57.6 100.608 
L 57.6 103.296 
L 57.6 105.984 
L 57.6 108.672 
L 57.6 111.36 
L 57.6 114.048 
L 57.6 116.736 
L 57.6 119.424 
L 57.6 122.112 
L 57.6 124.8 
L 57.6 127.488 
L 57.6 130.176 
L 57.6 132.864 
L 57.6 135.552 
L 57.6 138.24 
L 57.6 140.928 
L 57.6 143.616 
L 57.6 146.304 
L 57.6 148.992 
L 57.6 151.68 
L 57.6 154.368 
L 57.6 157.056 
L 57.6 159.744 
L 57.6 162.432 
L 57.6 165.12 
L 57.6 167.808 
L 57.6 170.496 
L 57.6 173.184 
L 57.6 175.872 
L 57.6 178.56 
L 57.6 181.248 
L 57.6 183.936 
L 57.6 186.624 
L 57.6 189.312 
L 57.6 192 
L 57.6 194.688 
L 57.6 197.376 
L 57.6 200.064 
L 57.6 202.752 
L 57.6 205.44 
L 57.6 208.128 
L 57.6 210.816 
L 57.6 213.504 
L 57.6 216.192 
L 57.6 218.88 
L 57.6 221.568 
L 57.6 224.256 
L 57.6 226.944 
L 57.6 229.632 
L 57.6 232.32 
L 57.6 235.008 
L 57.6 237.696 
L 57.6 240.384 
L 57.6 242.865349 
L 61.207273 242.865349 
L 64.814545 242.865349 
L 68.421818 242.865349 
L 72.029091 242.865349 
L 75.636364 242.865349 
L 79.243636 242.865349 
L 82.850909 242.865349 
L 86.458182 242.865349 
L 90.065455 242.865349 
L 93.672727 242.865349 
L 97.28 242.865349 
L 100.887273 242.865349 
L 104.494545 242.865349 
L 108.101818 242.865349 
L 111.709091 242.865349 
L 115.316364 242.865349 
L 118.923636 242.865349 
L 122.530909 242.865349 
L 126.138182 242.865349 
L 129.745455 242.865349 
L 133.352727 242.865349 
L 136.96 242.865349 
L 140.567273 242.865349 
L 144.174545 242.865349 
L 147.781818 242.865349 
L 151.389091 242.865349 
L 154.996364 242.865349 
L 158.603636 242.865349 
L 162.210909 242.865349 
L 165.818182 242.865349 
L 165.930794 243.072 
L 168.610566 245.76 
z
" clip-path="url(#p770f5ca120)" style="fill: #3f4788; fill-opacity: 0.75"/>
   </g>
   <g id="PathCollection_3">
    <path d="M 169.425455 304.916571 
L 173.032727 305.150308 
L 176.64 305.150308 
L 180.247273 305.150308 
L 183.854545 305.150308 
L 187.461818 305.150308 
L 191.069091 305.150308 
L 194.676364 305.150308 
L 198.283636 305.150308 
L 201.890909 305.000144 
L 205.498182 305.000144 
L 209.105455 305.000144 
L 212.712727 305.000144 
L 216.32 305.000144 
L 219.927273 305.000144 
L 223.534545 305.000144 
L 227.141818 305.000144 
L 230.749091 305.000144 
L 234.356364 305.000144 
L 237.963636 305.000144 
L 241.570909 305.000144 
L 245.178182 305.000144 
L 248.785455 305.000144 
L 252.392727 305.000144 
L 256 305.000144 
L 259.607273 305.000144 
L 263.214545 305.000144 
L 266.821818 305.000144 
L 270.429091 305.000144 
L 274.036364 305.000144 
L 277.643636 305.000144 
L 281.250909 305.000144 
L 284.858182 305.000144 
L 288.465455 305.000144 
L 292.072727 305.000144 
L 295.68 305.000144 
L 299.287273 305.000144 
L 302.894545 305.000144 
L 306.501818 305.000144 
L 310.109091 305.000144 
L 313.716364 305.000144 
L 317.323636 305.000144 
L 320.930909 305.000144 
L 324.538182 305.000144 
L 328.145455 305.000144 
L 331.752727 305.000144 
L 335.36 305.000144 
L 338.967273 305.000144 
L 342.574545 305.000144 
L 346.181818 305.000144 
L 349.789091 305.000144 
L 353.396364 305.000144 
L 357.003636 305.000144 
L 360.610909 305.000144 
L 364.218182 305.000144 
L 367.825455 305.000144 
L 371.432727 305.000144 
L 375.04 305.000144 
L 378.647273 305.000144 
L 382.254545 305.000144 
L 385.861818 305.000144 
L 389.469091 305.000144 
L 393.076364 305.000144 
L 396.683636 305.000144 
L 400.290909 305.000144 
L 403.898182 305.000144 
L 407.505455 305.000144 
L 411.112727 305.000144 
L 414.72 305.000144 
L 414.72 304.896 
L 414.72 302.208 
L 414.72 299.52 
L 414.72 296.832 
L 414.72 294.144 
L 414.72 291.456 
L 414.72 288.768 
L 414.72 286.08 
L 414.72 283.392 
L 414.72 280.704 
L 414.72 278.016 
L 414.72 275.328 
L 414.72 272.64 
L 414.72 269.952 
L 414.72 267.264 
L 414.72 264.576 
L 414.72 261.888 
L 414.72 259.2 
L 414.72 256.512 
L 414.72 253.824 
L 414.72 251.136 
L 414.72 248.448 
L 414.72 247.100531 
L 411.112727 247.100531 
L 407.505455 247.100531 
L 403.898182 247.100531 
L 400.290909 247.100531 
L 396.683636 247.100531 
L 393.076364 247.100531 
L 389.469091 247.100531 
L 385.861818 247.100531 
L 382.254545 247.100531 
L 378.647273 247.100531 
L 375.04 247.100531 
L 371.432727 247.100531 
L 367.825455 247.100531 
L 364.218182 247.100531 
L 360.610909 247.100531 
L 357.003636 247.100531 
L 353.396364 247.100531 
L 349.789091 247.100531 
L 346.181818 247.100531 
L 342.574545 247.100531 
L 338.967273 247.100531 
L 335.36 247.100531 
L 331.752727 247.100531 
L 328.145455 247.100531 
L 324.538182 247.100531 
L 320.930909 247.100531 
L 317.323636 247.100531 
L 313.716364 247.100531 
L 310.109091 247.100531 
L 306.501818 247.100531 
L 302.894545 247.100531 
L 299.287273 247.100531 
L 295.68 247.100531 
L 292.072727 247.100531 
L 288.465455 247.100531 
L 284.858182 247.100531 
L 281.250909 247.100531 
L 277.643636 247.100531 
L 274.036364 247.100531 
L 270.429091 247.100531 
L 266.821818 247.100531 
L 263.214545 247.100531 
L 259.607273 247.100531 
L 256 247.100531 
L 252.392727 247.100531 
L 248.785455 247.100531 
L 245.178182 247.100531 
L 241.570909 247.100531 
L 237.963636 247.100531 
L 234.356364 247.100531 
L 230.749091 247.100531 
L 227.141818 247.100531 
L 223.534545 247.100531 
L 219.927273 247.100531 
L 216.32 247.100531 
L 212.712727 247.100531 
L 209.105455 247.100531 
L 205.498182 247.100531 
L 201.890909 247.100531 
L 198.283636 248.295438 
L 194.676364 248.295438 
L 191.069091 248.295438 
L 187.461818 248.295438 
L 183.854545 248.295438 
L 180.247273 248.295438 
L 176.64 248.295438 
L 173.032727 248.295438 
L 169.425455 246.435516 
L 168.610566 245.76 
L 165.930794 243.072 
L 165.818182 242.865349 
L 162.210909 242.865349 
L 158.603636 242.865349 
L 154.996364 242.865349 
L 151.389091 242.865349 
L 147.781818 242.865349 
L 144.174545 242.865349 
L 140.567273 242.865349 
L 136.96 242.865349 
L 133.352727 242.865349 
L 129.745455 242.865349 
L 126.138182 242.865349 
L 122.530909 242.865349 
L 118.923636 242.865349 
L 115.316364 242.865349 
L 111.709091 242.865349 
L 108.101818 242.865349 
L 104.494545 242.865349 
L 100.887273 242.865349 
L 97.28 242.865349 
L 93.672727 242.865349 
L 90.065455 242.865349 
L 86.458182 242.865349 
L 82.850909 242.865349 
L 79.243636 242.865349 
L 75.636364 242.865349 
L 72.029091 242.865349 
L 68.421818 242.865349 
L 64.814545 242.865349 
L 61.207273 242.865349 
L 57.6 242.865349 
L 57.6 243.072 
L 57.6 245.76 
L 57.6 248.448 
L 57.6 251.136 
L 57.6 253.824 
L 57.6 256.512 
L 57.6 259.2 
L 57.6 261.888 
L 57.6 264.576 
L 57.6 267.264 
L 57.6 269.952 
L 57.6 272.64 
L 57.6 275.328 
L 57.6 278.016 
L 57.6 280.704 
L 57.6 283.392 
L 57.6 284.976949 
L 61.207273 284.976949 
L 64.814545 284.976949 
L 68.421818 284.976949 
L 72.029091 284.976949 
L 75.636364 284.976949 
L 79.243636 284.976949 
L 82.850909 284.976949 
L 86.458182 284.976949 
L 90.065455 284.976949 
L 93.672727 284.976949 
L 97.28 284.976949 
L 100.887273 284.976949 
L 104.494545 284.976949 
L 108.101818 284.976949 
L 111.709091 284.976949 
L 115.316364 284.976949 
L 118.923636 284.976949 
L 122.530909 284.976949 
L 126.138182 284.976949 
L 129.745455 284.976949 
L 133.352727 284.976949 
L 136.96 284.976949 
L 140.567273 284.976949 
L 144.174545 284.976949 
L 147.781818 284.976949 
L 151.389091 284.976949 
L 154.996364 284.976949 
L 158.603636 284.976949 
L 162.210909 284.976949 
L 165.818182 284.976949 
L 166.441865 286.08 
L 165.818182 288.058863 
L 162.210909 288.058863 
L 158.603636 288.058863 
L 154.996364 288.058863 
L 151.389091 288.058863 
L 147.781818 288.058863 
L 144.174545 288.058863 
L 140.567273 288.058863 
L 136.96 288.058863 
L 133.352727 288.058863 
L 129.745455 288.058863 
L 126.138182 288.058863 
L 122.530909 288.058863 
L 118.923636 288.058863 
L 115.316364 288.058863 
L 111.709091 288.058863 
L 108.101818 288.058863 
L 104.494545 288.058863 
L 100.887273 288.058863 
L 97.28 288.058863 
L 93.672727 288.058863 
L 90.065455 288.058863 
L 86.458182 288.058863 
L 82.850909 288.058863 
L 79.243636 288.058863 
L 75.636364 288.058863 
L 72.029091 288.058863 
L 68.421818 288.058863 
L 64.814545 288.058863 
L 61.207273 288.058863 
L 57.6 288.058863 
L 57.6 288.768 
L 57.6 291.456 
L 57.6 294.144 
L 57.6 296.832 
L 57.6 296.99735 
L 61.207273 296.99735 
L 64.814545 296.99735 
L 68.421818 296.99735 
L 72.029091 296.99735 
L 75.636364 296.99735 
L 79.243636 296.99735 
L 82.850909 296.99735 
L 86.458182 296.99735 
L 90.065455 296.99735 
L 93.672727 296.99735 
L 97.28 296.99735 
L 100.887273 296.99735 
L 104.494545 296.99735 
L 108.101818 296.99735 
L 111.709091 296.99735 
L 115.316364 296.99735 
L 118.923636 296.99735 
L 122.530909 296.99735 
L 126.138182 296.99735 
L 129.745455 296.99735 
L 133.352727 296.99735 
L 136.96 296.99735 
L 140.567273 296.99735 
L 144.174545 296.99735 
L 147.781818 296.99735 
L 151.389091 296.99735 
L 154.996364 296.99735 
L 158.603636 296.99735 
L 162.210909 296.99735 
L 165.818182 296.99735 
L 169.22799 299.52 
L 169.22799 302.208 
L 169.22799 304.896 
z
" clip-path="url(#p770f5ca120)" style="fill: #2e6e8e; fill-opacity: 0.75"/>
   </g>
   <g id="PathCollection_4">
    <path d="M 61.207273 305.367333 
L 64.814545 305.367333 
L 68.421818 305.367333 
L 72.029091 305.367333 
L 75.636364 305.367333 
L 79.243636 305.367333 
L 82.850909 305.367333 
L 86.458182 305.367333 
L 90.065455 305.367333 
L 93.672727 305.367333 
L 97.28 305.367333 
L 100.887273 305.367333 
L 104.494545 305.367333 
L 108.101818 305.367333 
L 111.709091 305.367333 
L 115.316364 305.367333 
L 118.923636 305.367333 
L 122.530909 305.367333 
L 126.138182 305.367333 
L 129.745455 305.367333 
L 133.352727 305.367333 
L 136.96 305.367333 
L 140.567273 305.367333 
L 144.174545 305.367333 
L 147.781818 305.367333 
L 151.389091 305.367333 
L 154.996364 305.367333 
L 158.603636 305.367333 
L 162.210909 305.367333 
L 165.818182 305.367333 
L 169.425455 305.743125 
L 173.032727 305.976862 
L 176.64 305.976862 
L 180.247273 305.976862 
L 183.854545 305.976862 
L 187.461818 305.976862 
L 191.069091 305.976862 
L 194.676364 305.976862 
L 198.283636 305.976862 
L 201.890909 305.826698 
L 205.498182 305.826698 
L 209.105455 305.826698 
L 212.712727 305.826698 
L 216.32 305.826698 
L 219.927273 305.826698 
L 223.534545 305.826698 
L 227.141818 305.826698 
L 230.749091 305.826698 
L 234.356364 305.826698 
L 237.963636 305.826698 
L 241.570909 305.826698 
L 245.178182 305.826698 
L 248.785455 305.826698 
L 252.392727 305.826698 
L 256 305.826698 
L 259.607273 305.826698 
L 263.214545 305.826698 
L 266.821818 305.826698 
L 270.429091 305.826698 
L 274.036364 305.826698 
L 277.643636 305.826698 
L 281.250909 305.826698 
L 284.858182 305.826698 
L 288.465455 305.826698 
L 292.072727 305.826698 
L 295.68 305.826698 
L 299.287273 305.826698 
L 302.894545 305.826698 
L 306.501818 305.826698 
L 310.109091 305.826698 
L 313.716364 305.826698 
L 317.323636 305.826698 
L 320.930909 305.826698 
L 324.538182 305.826698 
L 328.145455 305.826698 
L 331.752727 305.826698 
L 335.36 305.826698 
L 338.967273 305.826698 
L 342.574545 305.826698 
L 346.181818 305.826698 
L 349.789091 305.826698 
L 353.396364 305.826698 
L 357.003636 305.826698 
L 360.610909 305.826698 
L 364.218182 305.826698 
L 367.825455 305.826698 
L 371.432727 305.826698 
L 375.04 305.826698 
L 378.647273 305.826698 
L 382.254545 305.826698 
L 385.861818 305.826698 
L 389.469091 305.826698 
L 393.076364 305.826698 
L 396.683636 305.826698 
L 400.290909 305.826698 
L 403.898182 305.826698 
L 407.505455 305.826698 
L 411.112727 305.826698 
L 414.72 305.826698 
L 414.72 305.000144 
L 411.112727 305.000144 
L 407.505455 305.000144 
L 403.898182 305.000144 
L 400.290909 305.000144 
L 396.683636 305.000144 
L 393.076364 305.000144 
L 389.469091 305.000144 
L 385.861818 305.000144 
L 382.254545 305.000144 
L 378.647273 305.000144 
L 375.04 305.000144 
L 371.432727 305.000144 
L 367.825455 305.000144 
L 364.218182 305.000144 
L 360.610909 305.000144 
L 357.003636 305.000144 
L 353.396364 305.000144 
L 349.789091 305.000144 
L 346.181818 305.000144 
L 342.574545 305.000144 
L 338.967273 305.000144 
L 335.36 305.000144 
L 331.752727 305.000144 
L 328.145455 305.000144 
L 324.538182 305.000144 
L 320.930909 305.000144 
L 317.323636 305.000144 
L 313.716364 305.000144 
L 310.109091 305.000144 
L 306.501818 305.000144 
L 302.894545 305.000144 
L 299.287273 305.000144 
L 295.68 305.000144 
L 292.072727 305.000144 
L 288.465455 305.000144 
L 284.858182 305.000144 
L 281.250909 305.000144 
L 277.643636 305.000144 
L 274.036364 305.000144 
L 270.429091 305.000144 
L 266.821818 305.000144 
L 263.214545 305.000144 
L 259.607273 305.000144 
L 256 305.000144 
L 252.392727 305.000144 
L 248.785455 305.000144 
L 245.178182 305.000144 
L 241.570909 305.000144 
L 237.963636 305.000144 
L 234.356364 305.000144 
L 230.749091 305.000144 
L 227.141818 305.000144 
L 223.534545 305.000144 
L 219.927273 305.000144 
L 216.32 305.000144 
L 212.712727 305.000144 
L 209.105455 305.000144 
L 205.498182 305.000144 
L 201.890909 305.000144 
L 198.283636 305.150308 
L 194.676364 305.150308 
L 191.069091 305.150308 
L 187.461818 305.150308 
L 183.854545 305.150308 
L 180.247273 305.150308 
L 176.64 305.150308 
L 173.032727 305.150308 
L 169.425455 304.916571 
L 169.22799 304.896 
L 169.22799 302.208 
L 169.22799 299.52 
L 165.818182 296.99735 
L 162.210909 296.99735 
L 158.603636 296.99735 
L 154.996364 296.99735 
L 151.389091 296.99735 
L 147.781818 296.99735 
L 144.174545 296.99735 
L 140.567273 296.99735 
L 136.96 296.99735 
L 133.352727 296.99735 
L 129.745455 296.99735 
L 126.138182 296.99735 
L 122.530909 296.99735 
L 118.923636 296.99735 
L 115.316364 296.99735 
L 111.709091 296.99735 
L 108.101818 296.99735 
L 104.494545 296.99735 
L 100.887273 296.99735 
L 97.28 296.99735 
L 93.672727 296.99735 
L 90.065455 296.99735 
L 86.458182 296.99735 
L 82.850909 296.99735 
L 79.243636 296.99735 
L 75.636364 296.99735 
L 72.029091 296.99735 
L 68.421818 296.99735 
L 64.814545 296.99735 
L 61.207273 296.99735 
L 57.6 296.99735 
L 57.6 299.52 
L 57.6 302.208 
L 57.6 304.896 
L 57.6 305.367333 
z
" clip-path="url(#p770f5ca120)" style="fill: #21918c; fill-opacity: 0.75"/>
    <path d="M 61.207273 288.058863 
L 64.814545 288.058863 
L 68.421818 288.058863 
L 72.029091 288.058863 
L 75.636364 288.058863 
L 79.243636 288.058863 
L 82.850909 288.058863 
L 86.458182 288.058863 
L 90.065455 288.058863 
L 93.672727 288.058863 
L 97.28 288.058863 
L 100.887273 288.058863 
L 104.494545 288.058863 
L 108.101818 288.058863 
L 111.709091 288.058863 
L 115.316364 288.058863 
L 118.923636 288.058863 
L 122.530909 288.058863 
L 126.138182 288.058863 
L 129.745455 288.058863 
L 133.352727 288.058863 
L 136.96 288.058863 
L 140.567273 288.058863 
L 144.174545 288.058863 
L 147.781818 288.058863 
L 151.389091 288.058863 
L 154.996364 288.058863 
L 158.603636 288.058863 
L 162.210909 288.058863 
L 165.818182 288.058863 
L 166.441865 286.08 
L 165.818182 284.976949 
L 162.210909 284.976949 
L 158.603636 284.976949 
L 154.996364 284.976949 
L 151.389091 284.976949 
L 147.781818 284.976949 
L 144.174545 284.976949 
L 140.567273 284.976949 
L 136.96 284.976949 
L 133.352727 284.976949 
L 129.745455 284.976949 
L 126.138182 284.976949 
L 122.530909 284.976949 
L 118.923636 284.976949 
L 115.316364 284.976949 
L 111.709091 284.976949 
L 108.101818 284.976949 
L 104.494545 284.976949 
L 100.887273 284.976949 
L 97.28 284.976949 
L 93.672727 284.976949 
L 90.065455 284.976949 
L 86.458182 284.976949 
L 82.850909 284.976949 
L 79.243636 284.976949 
L 75.636364 284.976949 
L 72.029091 284.976949 
L 68.421818 284.976949 
L 64.814545 284.976949 
L 61.207273 284.976949 
L 57.6 284.976949 
L 57.6 286.08 
L 57.6 288.058863 
z
" clip-path="url(#p770f5ca120)" style="fill: #21918c; fill-opacity: 0.75"/>
   </g>
   <g id="PathCollection_5">
    <path d="M 61.207273 306.193887 
L 64.814545 306.193887 
L 68.421818 306.193887 
L 72.029091 306.193887 
L 75.636364 306.193887 
L 79.243636 306.193887 
L 82.850909 306.193887 
L 86.458182 306.193887 
L 90.065455 306.193887 
L 93.672727 306.193887 
L 97.28 306.193887 
L 100.887273 306.193887 
L 104.494545 306.193887 
L 108.101818 306.193887 
L 111.709091 306.193887 
L 115.316364 306.193887 
L 118.923636 306.193887 
L 122.530909 306.193887 
L 126.138182 306.193887 
L 129.745455 306.193887 
L 133.352727 306.193887 
L 136.96 306.193887 
L 140.567273 306.193887 
L 144.174545 306.193887 
L 147.781818 306.193887 
L 151.389091 306.193887 
L 154.996364 306.193887 
L 158.603636 306.193887 
L 162.210909 306.193887 
L 165.818182 306.193887 
L 169.425455 306.569679 
L 173.032727 306.803416 
L 176.64 306.803416 
L 180.247273 306.803416 
L 183.854545 306.803416 
L 187.461818 306.803416 
L 191.069091 306.803416 
L 194.676364 306.803416 
L 198.283636 306.803416 
L 201.890909 306.653252 
L 205.498182 306.653252 
L 209.105455 306.653252 
L 212.712727 306.653252 
L 216.32 306.653252 
L 219.927273 306.653252 
L 223.534545 306.653252 
L 227.141818 306.653252 
L 230.749091 306.653252 
L 234.356364 306.653252 
L 237.963636 306.653252 
L 241.570909 306.653252 
L 245.178182 306.653252 
L 248.785455 306.653252 
L 252.392727 306.653252 
L 256 306.653252 
L 259.607273 306.653252 
L 263.214545 306.653252 
L 266.821818 306.653252 
L 270.429091 306.653252 
L 274.036364 306.653252 
L 277.643636 306.653252 
L 281.250909 306.653252 
L 284.858182 306.653252 
L 288.465455 306.653252 
L 292.072727 306.653252 
L 295.68 306.653252 
L 299.287273 306.653252 
L 302.894545 306.653252 
L 306.501818 306.653252 
L 310.109091 306.653252 
L 313.716364 306.653252 
L 317.323636 306.653252 
L 320.930909 306.653252 
L 324.538182 306.653252 
L 328.145455 306.653252 
L 331.752727 306.653252 
L 335.36 306.653252 
L 338.967273 306.653252 
L 342.574545 306.653252 
L 346.181818 306.653252 
L 349.789091 306.653252 
L 353.396364 306.653252 
L 357.003636 306.653252 
L 360.610909 306.653252 
L 364.218182 306.653252 
L 367.825455 306.653252 
L 371.432727 306.653252 
L 375.04 306.653252 
L 378.647273 306.653252 
L 382.254545 306.653252 
L 385.861818 306.653252 
L 389.469091 306.653252 
L 393.076364 306.653252 
L 396.683636 306.653252 
L 400.290909 306.653252 
L 403.898182 306.653252 
L 407.505455 306.653252 
L 411.112727 306.653252 
L 414.72 306.653252 
L 414.72 305.826698 
L 411.112727 305.826698 
L 407.505455 305.826698 
L 403.898182 305.826698 
L 400.290909 305.826698 
L 396.683636 305.826698 
L 393.076364 305.826698 
L 389.469091 305.826698 
L 385.861818 305.826698 
L 382.254545 305.826698 
L 378.647273 305.826698 
L 375.04 305.826698 
L 371.432727 305.826698 
L 367.825455 305.826698 
L 364.218182 305.826698 
L 360.610909 305.826698 
L 357.003636 305.826698 
L 353.396364 305.826698 
L 349.789091 305.826698 
L 346.181818 305.826698 
L 342.574545 305.826698 
L 338.967273 305.826698 
L 335.36 305.826698 
L 331.752727 305.826698 
L 328.145455 305.826698 
L 324.538182 305.826698 
L 320.930909 305.826698 
L 317.323636 305.826698 
L 313.716364 305.826698 
L 310.109091 305.826698 
L 306.501818 305.826698 
L 302.894545 305.826698 
L 299.287273 305.826698 
L 295.68 305.826698 
L 292.072727 305.826698 
L 288.465455 305.826698 
L 284.858182 305.826698 
L 281.250909 305.826698 
L 277.643636 305.826698 
L 274.036364 305.826698 
L 270.429091 305.826698 
L 266.821818 305.826698 
L 263.214545 305.826698 
L 259.607273 305.826698 
L 256 305.826698 
L 252.392727 305.826698 
L 248.785455 305.826698 
L 245.178182 305.826698 
L 241.570909 305.826698 
L 237.963636 305.826698 
L 234.356364 305.826698 
L 230.749091 305.826698 
L 227.141818 305.826698 
L 223.534545 305.826698 
L 219.927273 305.826698 
L 216.32 305.826698 
L 212.712727 305.826698 
L 209.105455 305.826698 
L 205.498182 305.826698 
L 201.890909 305.826698 
L 198.283636 305.976862 
L 194.676364 305.976862 
L 191.069091 305.976862 
L 187.461818 305.976862 
L 183.854545 305.976862 
L 180.247273 305.976862 
L 176.64 305.976862 
L 173.032727 305.976862 
L 169.425455 305.743125 
L 165.818182 305.367333 
L 162.210909 305.367333 
L 158.603636 305.367333 
L 154.996364 305.367333 
L 151.389091 305.367333 
L 147.781818 305.367333 
L 144.174545 305.367333 
L 140.567273 305.367333 
L 136.96 305.367333 
L 133.352727 305.367333 
L 129.745455 305.367333 
L 126.138182 305.367333 
L 122.530909 305.367333 
L 118.923636 305.367333 
L 115.316364 305.367333 
L 111.709091 305.367333 
L 108.101818 305.367333 
L 104.494545 305.367333 
L 100.887273 305.367333 
L 97.28 305.367333 
L 93.672727 305.367333 
L 90.065455 305.367333 
L 86.458182 305.367333 
L 82.850909 305.367333 
L 79.243636 305.367333 
L 75.636364 305.367333 
L 72.029091 305.367333 
L 68.421818 305.367333 
L 64.814545 305.367333 
L 61.207273 305.367333 
L 57.6 305.367333 
L 57.6 306.193887 
z
" clip-path="url(#p770f5ca120)" style="fill: #2db27d; fill-opacity: 0.75"/>
   </g>
   <g id="PathCollection_6">
    <path d="M 61.207273 307.02044 
L 64.814545 307.02044 
L 68.421818 307.02044 
L 72.029091 307.02044 
L 75.636364 307.02044 
L 79.243636 307.02044 
L 82.850909 307.02044 
L 86.458182 307.02044 
L 90.065455 307.02044 
L 93.672727 307.02044 
L 97.28 307.02044 
L 100.887273 307.02044 
L 104.494545 307.02044 
L 108.101818 307.02044 
L 111.709091 307.02044 
L 115.316364 307.02044 
L 118.923636 307.02044 
L 122.530909 307.02044 
L 126.138182 307.02044 
L 129.745455 307.02044 
L 133.352727 307.02044 
L 136.96 307.02044 
L 140.567273 307.02044 
L 144.174545 307.02044 
L 147.781818 307.02044 
L 151.389091 307.02044 
L 154.996364 307.02044 
L 158.603636 307.02044 
L 162.210909 307.02044 
L 165.818182 307.02044 
L 169.425455 307.396233 
L 172.323273 307.584 
L 173.032727 307.584 
L 176.64 307.584 
L 180.247273 307.584 
L 183.854545 307.584 
L 187.461818 307.584 
L 191.069091 307.584 
L 194.676364 307.584 
L 198.283636 307.584 
L 199.387933 307.584 
L 201.890909 307.479806 
L 205.498182 307.479806 
L 209.105455 307.479806 
L 212.712727 307.479806 
L 216.32 307.479806 
L 219.927273 307.479806 
L 223.534545 307.479806 
L 227.141818 307.479806 
L 230.749091 307.479806 
L 234.356364 307.479806 
L 237.963636 307.479806 
L 241.570909 307.479806 
L 245.178182 307.479806 
L 248.785455 307.479806 
L 252.392727 307.479806 
L 256 307.479806 
L 259.607273 307.479806 
L 263.214545 307.479806 
L 266.821818 307.479806 
L 270.429091 307.479806 
L 274.036364 307.479806 
L 277.643636 307.479806 
L 281.250909 307.479806 
L 284.858182 307.479806 
L 288.465455 307.479806 
L 292.072727 307.479806 
L 295.68 307.479806 
L 299.287273 307.479806 
L 302.894545 307.479806 
L 306.501818 307.479806 
L 310.109091 307.479806 
L 313.716364 307.479806 
L 317.323636 307.479806 
L 320.930909 307.479806 
L 324.538182 307.479806 
L 328.145455 307.479806 
L 331.752727 307.479806 
L 335.36 307.479806 
L 338.967273 307.479806 
L 342.574545 307.479806 
L 346.181818 307.479806 
L 349.789091 307.479806 
L 353.396364 307.479806 
L 357.003636 307.479806 
L 360.610909 307.479806 
L 364.218182 307.479806 
L 367.825455 307.479806 
L 371.432727 307.479806 
L 375.04 307.479806 
L 378.647273 307.479806 
L 382.254545 307.479806 
L 385.861818 307.479806 
L 389.469091 307.479806 
L 393.076364 307.479806 
L 396.683636 307.479806 
L 400.290909 307.479806 
L 403.898182 307.479806 
L 407.505455 307.479806 
L 411.112727 307.479806 
L 414.72 307.479806 
L 414.72 306.653252 
L 411.112727 306.653252 
L 407.505455 306.653252 
L 403.898182 306.653252 
L 400.290909 306.653252 
L 396.683636 306.653252 
L 393.076364 306.653252 
L 389.469091 306.653252 
L 385.861818 306.653252 
L 382.254545 306.653252 
L 378.647273 306.653252 
L 375.04 306.653252 
L 371.432727 306.653252 
L 367.825455 306.653252 
L 364.218182 306.653252 
L 360.610909 306.653252 
L 357.003636 306.653252 
L 353.396364 306.653252 
L 349.789091 306.653252 
L 346.181818 306.653252 
L 342.574545 306.653252 
L 338.967273 306.653252 
L 335.36 306.653252 
L 331.752727 306.653252 
L 328.145455 306.653252 
L 324.538182 306.653252 
L 320.930909 306.653252 
L 317.323636 306.653252 
L 313.716364 306.653252 
L 310.109091 306.653252 
L 306.501818 306.653252 
L 302.894545 306.653252 
L 299.287273 306.653252 
L 295.68 306.653252 
L 292.072727 306.653252 
L 288.465455 306.653252 
L 284.858182 306.653252 
L 281.250909 306.653252 
L 277.643636 306.653252 
L 274.036364 306.653252 
L 270.429091 306.653252 
L 266.821818 306.653252 
L 263.214545 306.653252 
L 259.607273 306.653252 
L 256 306.653252 
L 252.392727 306.653252 
L 248.785455 306.653252 
L 245.178182 306.653252 
L 241.570909 306.653252 
L 237.963636 306.653252 
L 234.356364 306.653252 
L 230.749091 306.653252 
L 227.141818 306.653252 
L 223.534545 306.653252 
L 219.927273 306.653252 
L 216.32 306.653252 
L 212.712727 306.653252 
L 209.105455 306.653252 
L 205.498182 306.653252 
L 201.890909 306.653252 
L 198.283636 306.803416 
L 194.676364 306.803416 
L 191.069091 306.803416 
L 187.461818 306.803416 
L 183.854545 306.803416 
L 180.247273 306.803416 
L 176.64 306.803416 
L 173.032727 306.803416 
L 169.425455 306.569679 
L 165.818182 306.193887 
L 162.210909 306.193887 
L 158.603636 306.193887 
L 154.996364 306.193887 
L 151.389091 306.193887 
L 147.781818 306.193887 
L 144.174545 306.193887 
L 140.567273 306.193887 
L 136.96 306.193887 
L 133.352727 306.193887 
L 129.745455 306.193887 
L 126.138182 306.193887 
L 122.530909 306.193887 
L 118.923636 306.193887 
L 115.316364 306.193887 
L 111.709091 306.193887 
L 108.101818 306.193887 
L 104.494545 306.193887 
L 100.887273 306.193887 
L 97.28 306.193887 
L 93.672727 306.193887 
L 90.065455 306.193887 
L 86.458182 306.193887 
L 82.850909 306.193887 
L 79.243636 306.193887 
L 75.636364 306.193887 
L 72.029091 306.193887 
L 68.421818 306.193887 
L 64.814545 306.193887 
L 61.207273 306.193887 
L 57.6 306.193887 
L 57.6 307.02044 
z
" clip-path="url(#p770f5ca120)" style="fill: #73d056; fill-opacity: 0.75"/>
   </g>
   <g id="PathCollection_7">
    <path d="M 61.207273 307.584 
L 64.814545 307.584 
L 68.421818 307.584 
L 72.029091 307.584 
L 75.636364 307.584 
L 79.243636 307.584 
L 82.850909 307.584 
L 86.458182 307.584 
L 90.065455 307.584 
L 93.672727 307.584 
L 97.28 307.584 
L 100.887273 307.584 
L 104.494545 307.584 
L 108.101818 307.584 
L 111.709091 307.584 
L 115.316364 307.584 
L 118.923636 307.584 
L 122.530909 307.584 
L 126.138182 307.584 
L 129.745455 307.584 
L 133.352727 307.584 
L 136.96 307.584 
L 140.567273 307.584 
L 144.174545 307.584 
L 147.781818 307.584 
L 151.389091 307.584 
L 154.996364 307.584 
L 158.603636 307.584 
L 162.210909 307.584 
L 165.818182 307.584 
L 169.425455 307.584 
L 172.323273 307.584 
L 169.425455 307.396233 
L 165.818182 307.02044 
L 162.210909 307.02044 
L 158.603636 307.02044 
L 154.996364 307.02044 
L 151.389091 307.02044 
L 147.781818 307.02044 
L 144.174545 307.02044 
L 140.567273 307.02044 
L 136.96 307.02044 
L 133.352727 307.02044 
L 129.745455 307.02044 
L 126.138182 307.02044 
L 122.530909 307.02044 
L 118.923636 307.02044 
L 115.316364 307.02044 
L 111.709091 307.02044 
L 108.101818 307.02044 
L 104.494545 307.02044 
L 100.887273 307.02044 
L 97.28 307.02044 
L 93.672727 307.02044 
L 90.065455 307.02044 
L 86.458182 307.02044 
L 82.850909 307.02044 
L 79.243636 307.02044 
L 75.636364 307.02044 
L 72.029091 307.02044 
L 68.421818 307.02044 
L 64.814545 307.02044 
L 61.207273 307.02044 
L 57.6 307.02044 
L 57.6 307.584 
z
" clip-path="url(#p770f5ca120)" style="fill: #d0e11c; fill-opacity: 0.75"/>
    <path d="M 201.890909 307.584 
L 205.498182 307.584 
L 209.105455 307.584 
L 212.712727 307.584 
L 216.32 307.584 
L 219.927273 307.584 
L 223.534545 307.584 
L 227.141818 307.584 
L 230.749091 307.584 
L 234.356364 307.584 
L 237.963636 307.584 
L 241.570909 307.584 
L 245.178182 307.584 
L 248.785455 307.584 
L 252.392727 307.584 
L 256 307.584 
L 259.607273 307.584 
L 263.214545 307.584 
L 266.821818 307.584 
L 270.429091 307.584 
L 274.036364 307.584 
L 277.643636 307.584 
L 281.250909 307.584 
L 284.858182 307.584 
L 288.465455 307.584 
L 292.072727 307.584 
L 295.68 307.584 
L 299.287273 307.584 
L 302.894545 307.584 
L 306.501818 307.584 
L 310.109091 307.584 
L 313.716364 307.584 
L 317.323636 307.584 
L 320.930909 307.584 
L 324.538182 307.584 
L 328.145455 307.584 
L 331.752727 307.584 
L 335.36 307.584 
L 338.967273 307.584 
L 342.574545 307.584 
L 346.181818 307.584 
L 349.789091 307.584 
L 353.396364 307.584 
L 357.003636 307.584 
L 360.610909 307.584 
L 364.218182 307.584 
L 367.825455 307.584 
L 371.432727 307.584 
L 375.04 307.584 
L 378.647273 307.584 
L 382.254545 307.584 
L 385.861818 307.584 
L 389.469091 307.584 
L 393.076364 307.584 
L 396.683636 307.584 
L 400.290909 307.584 
L 403.898182 307.584 
L 407.505455 307.584 
L 411.112727 307.584 
L 414.72 307.584 
L 414.72 307.479806 
L 411.112727 307.479806 
L 407.505455 307.479806 
L 403.898182 307.479806 
L 400.290909 307.479806 
L 396.683636 307.479806 
L 393.076364 307.479806 
L 389.469091 307.479806 
L 385.861818 307.479806 
L 382.254545 307.479806 
L 378.647273 307.479806 
L 375.04 307.479806 
L 371.432727 307.479806 
L 367.825455 307.479806 
L 364.218182 307.479806 
L 360.610909 307.479806 
L 357.003636 307.479806 
L 353.396364 307.479806 
L 349.789091 307.479806 
L 346.181818 307.479806 
L 342.574545 307.479806 
L 338.967273 307.479806 
L 335.36 307.479806 
L 331.752727 307.479806 
L 328.145455 307.479806 
L 324.538182 307.479806 
L 320.930909 307.479806 
L 317.323636 307.479806 
L 313.716364 307.479806 
L 310.109091 307.479806 
L 306.501818 307.479806 
L 302.894545 307.479806 
L 299.287273 307.479806 
L 295.68 307.479806 
L 292.072727 307.479806 
L 288.465455 307.479806 
L 284.858182 307.479806 
L 281.250909 307.479806 
L 277.643636 307.479806 
L 274.036364 307.479806 
L 270.429091 307.479806 
L 266.821818 307.479806 
L 263.214545 307.479806 
L 259.607273 307.479806 
L 256 307.479806 
L 252.392727 307.479806 
L 248.785455 307.479806 
L 245.178182 307.479806 
L 241.570909 307.479806 
L 237.963636 307.479806 
L 234.356364 307.479806 
L 230.749091 307.479806 
L 227.141818 307.479806 
L 223.534545 307.479806 
L 219.927273 307.479806 
L 216.32 307.479806 
L 212.712727 307.479806 
L 209.105455 307.479806 
L 205.498182 307.479806 
L 201.890909 307.479806 
L 199.387933 307.584 
z
" clip-path="url(#p770f5ca120)" style="fill: #d0e11c; fill-opacity: 0.75"/>
   </g>
   <g id="matplotlib.axis_1">
    <g id="xtick_1">
     <g id="line2d_1">
      <defs>
       <path id="mb219254eb4" d="M 0 0 
L 0 3.5 
" style="stroke: #000000; stroke-width: 0.8"/>
      </defs>
      <g>
       <use xlink:href="#mb219254eb4" x="92.008264" y="307.584" style="stroke: #000000; stroke-width: 0.8"/>
      </g>
     </g>
     <g id="text_1">
      <!-- −1.0 -->
      <g transform="translate(79.866858 322.182437) scale(0.1 -0.1)">
       <defs>
        <path id="DejaVuSans-2212" d="M 678 2272 
L 4684 2272 
L 4684 1741 
L 678 1741 
L 678 2272 
z
" transform="scale(0.015625)"/>
        <path id="DejaVuSans-31" d="M 794 531 
L 1825 531 
L 1825 4091 
L 703 3866 
L 703 4441 
L 1819 4666 
L 2450 4666 
L 2450 531 
L 3481 531 
L 3481 0 
L 794 0 
L 794 531 
z
" transform="scale(0.015625)"/>
        <path id="DejaVuSans-2e" d="M 684 794 
L 1344 794 
L 1344 0 
L 684 0 
L 684 794 
z
" transform="scale(0.015625)"/>
        <path id="DejaVuSans-30" d="M 2034 4250 
Q 1547 4250 1301 3770 
Q 1056 3291 1056 2328 
Q 1056 1369 1301 889 
Q 1547 409 2034 409 
Q 2525 409 2770 889 
Q 3016 1369 3016 2328 
Q 3016 3291 2770 3770 
Q 2525 4250 2034 4250 
z
M 2034 4750 
Q 2819 4750 3233 4129 
Q 3647 3509 3647 2328 
Q 3647 1150 3233 529 
Q 2819 -91 2034 -91 
Q 1250 -91 836 529 
Q 422 1150 422 2328 
Q 422 3509 836 4129 
Q 1250 4750 2034 4750 
z
" transform="scale(0.015625)"/>
       </defs>
       <use xlink:href="#DejaVuSans-2212"/>
       <use xlink:href="#DejaVuSans-31" x="83.789062"/>
       <use xlink:href="#DejaVuSans-2e" x="147.412109"/>
       <use xlink:href="#DejaVuSans-30" x="179.199219"/>
      </g>
     </g>
    </g>
    <g id="xtick_2">
     <g id="line2d_2">
      <g>
       <use xlink:href="#mb219254eb4" x="152.500302" y="307.584" style="stroke: #000000; stroke-width: 0.8"/>
      </g>
     </g>
     <g id="text_2">
      <!-- −0.5 -->
      <g transform="translate(140.358895 322.182437) scale(0.1 -0.1)">
       <defs>
        <path id="DejaVuSans-35" d="M 691 4666 
L 3169 4666 
L 3169 4134 
L 1269 4134 
L 1269 2991 
Q 1406 3038 1543 3061 
Q 1681 3084 1819 3084 
Q 2600 3084 3056 2656 
Q 3513 2228 3513 1497 
Q 3513 744 3044 326 
Q 2575 -91 1722 -91 
Q 1428 -91 1123 -41 
Q 819 9 494 109 
L 494 744 
Q 775 591 1075 516 
Q 1375 441 1709 441 
Q 2250 441 2565 725 
Q 2881 1009 2881 1497 
Q 2881 1984 2565 2268 
Q 2250 2553 1709 2553 
Q 1456 2553 1204 2497 
Q 953 2441 691 2322 
L 691 4666 
z
" transform="scale(0.015625)"/>
       </defs>
       <use xlink:href="#DejaVuSans-2212"/>
       <use xlink:href="#DejaVuSans-30" x="83.789062"/>
       <use xlink:href="#DejaVuSans-2e" x="147.412109"/>
       <use xlink:href="#DejaVuSans-35" x="179.199219"/>
      </g>
     </g>
    </g>
    <g id="xtick_3">
     <g id="line2d_3">
      <g>
       <use xlink:href="#mb219254eb4" x="212.992339" y="307.584" style="stroke: #000000; stroke-width: 0.8"/>
      </g>
     </g>
     <g id="text_3">
      <!-- 0.0 -->
      <g transform="translate(205.040777 322.182437) scale(0.1 -0.1)">
       <use xlink:href="#DejaVuSans-30"/>
       <use xlink:href="#DejaVuSans-2e" x="63.623047"/>
       <use xlink:href="#DejaVuSans-30" x="95.410156"/>
      </g>
     </g>
    </g>
    <g id="xtick_4">
     <g id="line2d_4">
      <g>
       <use xlink:href="#mb219254eb4" x="273.484377" y="307.584" style="stroke: #000000; stroke-width: 0.8"/>
      </g>
     </g>
     <g id="text_4">
      <!-- 0.5 -->
      <g transform="translate(265.532814 322.182437) scale(0.1 -0.1)">
       <use xlink:href="#DejaVuSans-30"/>
       <use xlink:href="#DejaVuSans-2e" x="63.623047"/>
       <use xlink:href="#DejaVuSans-35" x="95.410156"/>
      </g>
     </g>
    </g>
    <g id="xtick_5">
     <g id="line2d_5">
      <g>
       <use xlink:href="#mb219254eb4" x="333.976414" y="307.584" style="stroke: #000000; stroke-width: 0.8"/>
      </g>
     </g>
     <g id="text_5">
      <!-- 1.0 -->
      <g transform="translate(326.024852 322.182437) scale(0.1 -0.1)">
       <use xlink:href="#DejaVuSans-31"/>
       <use xlink:href="#DejaVuSans-2e" x="63.623047"/>
       <use xlink:href="#DejaVuSans-30" x="95.410156"/>
      </g>
     </g>
    </g>
    <g id="xtick_6">
     <g id="line2d_6">
      <g>
       <use xlink:href="#mb219254eb4" x="394.468452" y="307.584" style="stroke: #000000; stroke-width: 0.8"/>
      </g>
     </g>
     <g id="text_6">
      <!-- 1.5 -->
      <g transform="translate(386.516889 322.182437) scale(0.1 -0.1)">
       <use xlink:href="#DejaVuSans-31"/>
       <use xlink:href="#DejaVuSans-2e" x="63.623047"/>
       <use xlink:href="#DejaVuSans-35" x="95.410156"/>
      </g>
     </g>
    </g>
    <g id="text_7">
     <!-- Fruit Consumption -->
     <g transform="translate(190.369375 335.860562) scale(0.1 -0.1)">
      <defs>
       <path id="DejaVuSans-46" d="M 628 4666 
L 3309 4666 
L 3309 4134 
L 1259 4134 
L 1259 2759 
L 3109 2759 
L 3109 2228 
L 1259 2228 
L 1259 0 
L 628 0 
L 628 4666 
z
" transform="scale(0.015625)"/>
       <path id="DejaVuSans-72" d="M 2631 2963 
Q 2534 3019 2420 3045 
Q 2306 3072 2169 3072 
Q 1681 3072 1420 2755 
Q 1159 2438 1159 1844 
L 1159 0 
L 581 0 
L 581 3500 
L 1159 3500 
L 1159 2956 
Q 1341 3275 1631 3429 
Q 1922 3584 2338 3584 
Q 2397 3584 2469 3576 
Q 2541 3569 2628 3553 
L 2631 2963 
z
" transform="scale(0.015625)"/>
       <path id="DejaVuSans-75" d="M 544 1381 
L 544 3500 
L 1119 3500 
L 1119 1403 
Q 1119 906 1312 657 
Q 1506 409 1894 409 
Q 2359 409 2629 706 
Q 2900 1003 2900 1516 
L 2900 3500 
L 3475 3500 
L 3475 0 
L 2900 0 
L 2900 538 
Q 2691 219 2414 64 
Q 2138 -91 1772 -91 
Q 1169 -91 856 284 
Q 544 659 544 1381 
z
M 1991 3584 
L 1991 3584 
z
" transform="scale(0.015625)"/>
       <path id="DejaVuSans-69" d="M 603 3500 
L 1178 3500 
L 1178 0 
L 603 0 
L 603 3500 
z
M 603 4863 
L 1178 4863 
L 1178 4134 
L 603 4134 
L 603 4863 
z
" transform="scale(0.015625)"/>
       <path id="DejaVuSans-74" d="M 1172 4494 
L 1172 3500 
L 2356 3500 
L 2356 3053 
L 1172 3053 
L 1172 1153 
Q 1172 725 1289 603 
Q 1406 481 1766 481 
L 2356 481 
L 2356 0 
L 1766 0 
Q 1100 0 847 248 
Q 594 497 594 1153 
L 594 3053 
L 172 3053 
L 172 3500 
L 594 3500 
L 594 4494 
L 1172 4494 
z
" transform="scale(0.015625)"/>
       <path id="DejaVuSans-20" transform="scale(0.015625)"/>
       <path id="DejaVuSans-43" d="M 4122 4306 
L 4122 3641 
Q 3803 3938 3442 4084 
Q 3081 4231 2675 4231 
Q 1875 4231 1450 3742 
Q 1025 3253 1025 2328 
Q 1025 1406 1450 917 
Q 1875 428 2675 428 
Q 3081 428 3442 575 
Q 3803 722 4122 1019 
L 4122 359 
Q 3791 134 3420 21 
Q 3050 -91 2638 -91 
Q 1578 -91 968 557 
Q 359 1206 359 2328 
Q 359 3453 968 4101 
Q 1578 4750 2638 4750 
Q 3056 4750 3426 4639 
Q 3797 4528 4122 4306 
z
" transform="scale(0.015625)"/>
       <path id="DejaVuSans-6f" d="M 1959 3097 
Q 1497 3097 1228 2736 
Q 959 2375 959 1747 
Q 959 1119 1226 758 
Q 1494 397 1959 397 
Q 2419 397 2687 759 
Q 2956 1122 2956 1747 
Q 2956 2369 2687 2733 
Q 2419 3097 1959 3097 
z
M 1959 3584 
Q 2709 3584 3137 3096 
Q 3566 2609 3566 1747 
Q 3566 888 3137 398 
Q 2709 -91 1959 -91 
Q 1206 -91 779 398 
Q 353 888 353 1747 
Q 353 2609 779 3096 
Q 1206 3584 1959 3584 
z
" transform="scale(0.015625)"/>
       <path id="DejaVuSans-6e" d="M 3513 2113 
L 3513 0 
L 2938 0 
L 2938 2094 
Q 2938 2591 2744 2837 
Q 2550 3084 2163 3084 
Q 1697 3084 1428 2787 
Q 1159 2491 1159 1978 
L 1159 0 
L 581 0 
L 581 3500 
L 1159 3500 
L 1159 2956 
Q 1366 3272 1645 3428 
Q 1925 3584 2291 3584 
Q 2894 3584 3203 3211 
Q 3513 2838 3513 2113 
z
" transform="scale(0.015625)"/>
       <path id="DejaVuSans-73" d="M 2834 3397 
L 2834 2853 
Q 2591 2978 2328 3040 
Q 2066 3103 1784 3103 
Q 1356 3103 1142 2972 
Q 928 2841 928 2578 
Q 928 2378 1081 2264 
Q 1234 2150 1697 2047 
L 1894 2003 
Q 2506 1872 2764 1633 
Q 3022 1394 3022 966 
Q 3022 478 2636 193 
Q 2250 -91 1575 -91 
Q 1294 -91 989 -36 
Q 684 19 347 128 
L 347 722 
Q 666 556 975 473 
Q 1284 391 1588 391 
Q 1994 391 2212 530 
Q 2431 669 2431 922 
Q 2431 1156 2273 1281 
Q 2116 1406 1581 1522 
L 1381 1569 
Q 847 1681 609 1914 
Q 372 2147 372 2553 
Q 372 3047 722 3315 
Q 1072 3584 1716 3584 
Q 2034 3584 2315 3537 
Q 2597 3491 2834 3397 
z
" transform="scale(0.015625)"/>
       <path id="DejaVuSans-6d" d="M 3328 2828 
Q 3544 3216 3844 3400 
Q 4144 3584 4550 3584 
Q 5097 3584 5394 3201 
Q 5691 2819 5691 2113 
L 5691 0 
L 5113 0 
L 5113 2094 
Q 5113 2597 4934 2840 
Q 4756 3084 4391 3084 
Q 3944 3084 3684 2787 
Q 3425 2491 3425 1978 
L 3425 0 
L 2847 0 
L 2847 2094 
Q 2847 2600 2669 2842 
Q 2491 3084 2119 3084 
Q 1678 3084 1418 2786 
Q 1159 2488 1159 1978 
L 1159 0 
L 581 0 
L 581 3500 
L 1159 3500 
L 1159 2956 
Q 1356 3278 1631 3431 
Q 1906 3584 2284 3584 
Q 2666 3584 2933 3390 
Q 3200 3197 3328 2828 
z
" transform="scale(0.015625)"/>
       <path id="DejaVuSans-70" d="M 1159 525 
L 1159 -1331 
L 581 -1331 
L 581 3500 
L 1159 3500 
L 1159 2969 
Q 1341 3281 1617 3432 
Q 1894 3584 2278 3584 
Q 2916 3584 3314 3078 
Q 3713 2572 3713 1747 
Q 3713 922 3314 415 
Q 2916 -91 2278 -91 
Q 1894 -91 1617 61 
Q 1341 213 1159 525 
z
M 3116 1747 
Q 3116 2381 2855 2742 
Q 2594 3103 2138 3103 
Q 1681 3103 1420 2742 
Q 1159 2381 1159 1747 
Q 1159 1113 1420 752 
Q 1681 391 2138 391 
Q 2594 391 2855 752 
Q 3116 1113 3116 1747 
z
" transform="scale(0.015625)"/>
      </defs>
      <use xlink:href="#DejaVuSans-46"/>
      <use xlink:href="#DejaVuSans-72" x="50.269531"/>
      <use xlink:href="#DejaVuSans-75" x="91.382812"/>
      <use xlink:href="#DejaVuSans-69" x="154.761719"/>
      <use xlink:href="#DejaVuSans-74" x="182.544922"/>
      <use xlink:href="#DejaVuSans-20" x="221.753906"/>
      <use xlink:href="#DejaVuSans-43" x="253.541016"/>
      <use xlink:href="#DejaVuSans-6f" x="323.365234"/>
      <use xlink:href="#DejaVuSans-6e" x="384.546875"/>
      <use xlink:href="#DejaVuSans-73" x="447.925781"/>
      <use xlink:href="#DejaVuSans-75" x="500.025391"/>
      <use xlink:href="#DejaVuSans-6d" x="563.404297"/>
      <use xlink:href="#DejaVuSans-70" x="660.816406"/>
      <use xlink:href="#DejaVuSans-74" x="724.292969"/>
      <use xlink:href="#DejaVuSans-69" x="763.501953"/>
      <use xlink:href="#DejaVuSans-6f" x="791.285156"/>
      <use xlink:href="#DejaVuSans-6e" x="852.466797"/>
     </g>
    </g>
   </g>
   <g id="matplotlib.axis_2">
    <g id="ytick_1">
     <g id="line2d_7">
      <defs>
       <path id="m72033b195e" d="M 0 0 
L -3.5 0 
" style="stroke: #000000; stroke-width: 0.8"/>
      </defs>
      <g>
       <use xlink:href="#m72033b195e" x="57.6" y="284.639626" style="stroke: #000000; stroke-width: 0.8"/>
      </g>
     </g>
     <g id="text_8">
      <!-- −0.5 -->
      <g transform="translate(26.317187 288.438845) scale(0.1 -0.1)">
       <use xlink:href="#DejaVuSans-2212"/>
       <use xlink:href="#DejaVuSans-30" x="83.789062"/>
       <use xlink:href="#DejaVuSans-2e" x="147.412109"/>
       <use xlink:href="#DejaVuSans-35" x="179.199219"/>
      </g>
     </g>
    </g>
    <g id="ytick_2">
     <g id="line2d_8">
      <g>
       <use xlink:href="#m72033b195e" x="57.6" y="235.259274" style="stroke: #000000; stroke-width: 0.8"/>
      </g>
     </g>
     <g id="text_9">
      <!-- 0.0 -->
      <g transform="translate(34.696875 239.058492) scale(0.1 -0.1)">
       <use xlink:href="#DejaVuSans-30"/>
       <use xlink:href="#DejaVuSans-2e" x="63.623047"/>
       <use xlink:href="#DejaVuSans-30" x="95.410156"/>
      </g>
     </g>
    </g>
    <g id="ytick_3">
     <g id="line2d_9">
      <g>
       <use xlink:href="#m72033b195e" x="57.6" y="185.878922" style="stroke: #000000; stroke-width: 0.8"/>
      </g>
     </g>
     <g id="text_10">
      <!-- 0.5 -->
      <g transform="translate(34.696875 189.67814) scale(0.1 -0.1)">
       <use xlink:href="#DejaVuSans-30"/>
       <use xlink:href="#DejaVuSans-2e" x="63.623047"/>
       <use xlink:href="#DejaVuSans-35" x="95.410156"/>
      </g>
     </g>
    </g>
    <g id="ytick_4">
     <g id="line2d_10">
      <g>
       <use xlink:href="#m72033b195e" x="57.6" y="136.498569" style="stroke: #000000; stroke-width: 0.8"/>
      </g>
     </g>
     <g id="text_11">
      <!-- 1.0 -->
      <g transform="translate(34.696875 140.297788) scale(0.1 -0.1)">
       <use xlink:href="#DejaVuSans-31"/>
       <use xlink:href="#DejaVuSans-2e" x="63.623047"/>
       <use xlink:href="#DejaVuSans-30" x="95.410156"/>
      </g>
     </g>
    </g>
    <g id="ytick_5">
     <g id="line2d_11">
      <g>
       <use xlink:href="#m72033b195e" x="57.6" y="87.118217" style="stroke: #000000; stroke-width: 0.8"/>
      </g>
     </g>
     <g id="text_12">
      <!-- 1.5 -->
      <g transform="translate(34.696875 90.917436) scale(0.1 -0.1)">
       <use xlink:href="#DejaVuSans-31"/>
       <use xlink:href="#DejaVuSans-2e" x="63.623047"/>
       <use xlink:href="#DejaVuSans-35" x="95.410156"/>
      </g>
     </g>
    </g>
    <g id="text_13">
     <!-- Share without Improved Water -->
     <g transform="translate(20.2375 251.030344) rotate(-90) scale(0.1 -0.1)">
      <defs>
       <path id="DejaVuSans-53" d="M 3425 4513 
L 3425 3897 
Q 3066 4069 2747 4153 
Q 2428 4238 2131 4238 
Q 1616 4238 1336 4038 
Q 1056 3838 1056 3469 
Q 1056 3159 1242 3001 
Q 1428 2844 1947 2747 
L 2328 2669 
Q 3034 2534 3370 2195 
Q 3706 1856 3706 1288 
Q 3706 609 3251 259 
Q 2797 -91 1919 -91 
Q 1588 -91 1214 -16 
Q 841 59 441 206 
L 441 856 
Q 825 641 1194 531 
Q 1563 422 1919 422 
Q 2459 422 2753 634 
Q 3047 847 3047 1241 
Q 3047 1584 2836 1778 
Q 2625 1972 2144 2069 
L 1759 2144 
Q 1053 2284 737 2584 
Q 422 2884 422 3419 
Q 422 4038 858 4394 
Q 1294 4750 2059 4750 
Q 2388 4750 2728 4690 
Q 3069 4631 3425 4513 
z
" transform="scale(0.015625)"/>
       <path id="DejaVuSans-68" d="M 3513 2113 
L 3513 0 
L 2938 0 
L 2938 2094 
Q 2938 2591 2744 2837 
Q 2550 3084 2163 3084 
Q 1697 3084 1428 2787 
Q 1159 2491 1159 1978 
L 1159 0 
L 581 0 
L 581 4863 
L 1159 4863 
L 1159 2956 
Q 1366 3272 1645 3428 
Q 1925 3584 2291 3584 
Q 2894 3584 3203 3211 
Q 3513 2838 3513 2113 
z
" transform="scale(0.015625)"/>
       <path id="DejaVuSans-61" d="M 2194 1759 
Q 1497 1759 1228 1600 
Q 959 1441 959 1056 
Q 959 750 1161 570 
Q 1363 391 1709 391 
Q 2188 391 2477 730 
Q 2766 1069 2766 1631 
L 2766 1759 
L 2194 1759 
z
M 3341 1997 
L 3341 0 
L 2766 0 
L 2766 531 
Q 2569 213 2275 61 
Q 1981 -91 1556 -91 
Q 1019 -91 701 211 
Q 384 513 384 1019 
Q 384 1609 779 1909 
Q 1175 2209 1959 2209 
L 2766 2209 
L 2766 2266 
Q 2766 2663 2505 2880 
Q 2244 3097 1772 3097 
Q 1472 3097 1187 3025 
Q 903 2953 641 2809 
L 641 3341 
Q 956 3463 1253 3523 
Q 1550 3584 1831 3584 
Q 2591 3584 2966 3190 
Q 3341 2797 3341 1997 
z
" transform="scale(0.015625)"/>
       <path id="DejaVuSans-65" d="M 3597 1894 
L 3597 1613 
L 953 1613 
Q 991 1019 1311 708 
Q 1631 397 2203 397 
Q 2534 397 2845 478 
Q 3156 559 3463 722 
L 3463 178 
Q 3153 47 2828 -22 
Q 2503 -91 2169 -91 
Q 1331 -91 842 396 
Q 353 884 353 1716 
Q 353 2575 817 3079 
Q 1281 3584 2069 3584 
Q 2775 3584 3186 3129 
Q 3597 2675 3597 1894 
z
M 3022 2063 
Q 3016 2534 2758 2815 
Q 2500 3097 2075 3097 
Q 1594 3097 1305 2825 
Q 1016 2553 972 2059 
L 3022 2063 
z
" transform="scale(0.015625)"/>
       <path id="DejaVuSans-77" d="M 269 3500 
L 844 3500 
L 1563 769 
L 2278 3500 
L 2956 3500 
L 3675 769 
L 4391 3500 
L 4966 3500 
L 4050 0 
L 3372 0 
L 2619 2869 
L 1863 0 
L 1184 0 
L 269 3500 
z
" transform="scale(0.015625)"/>
       <path id="DejaVuSans-49" d="M 628 4666 
L 1259 4666 
L 1259 0 
L 628 0 
L 628 4666 
z
" transform="scale(0.015625)"/>
       <path id="DejaVuSans-76" d="M 191 3500 
L 800 3500 
L 1894 563 
L 2988 3500 
L 3597 3500 
L 2284 0 
L 1503 0 
L 191 3500 
z
" transform="scale(0.015625)"/>
       <path id="DejaVuSans-64" d="M 2906 2969 
L 2906 4863 
L 3481 4863 
L 3481 0 
L 2906 0 
L 2906 525 
Q 2725 213 2448 61 
Q 2172 -91 1784 -91 
Q 1150 -91 751 415 
Q 353 922 353 1747 
Q 353 2572 751 3078 
Q 1150 3584 1784 3584 
Q 2172 3584 2448 3432 
Q 2725 3281 2906 2969 
z
M 947 1747 
Q 947 1113 1208 752 
Q 1469 391 1925 391 
Q 2381 391 2643 752 
Q 2906 1113 2906 1747 
Q 2906 2381 2643 2742 
Q 2381 3103 1925 3103 
Q 1469 3103 1208 2742 
Q 947 2381 947 1747 
z
" transform="scale(0.015625)"/>
       <path id="DejaVuSans-57" d="M 213 4666 
L 850 4666 
L 1831 722 
L 2809 4666 
L 3519 4666 
L 4500 722 
L 5478 4666 
L 6119 4666 
L 4947 0 
L 4153 0 
L 3169 4050 
L 2175 0 
L 1381 0 
L 213 4666 
z
" transform="scale(0.015625)"/>
      </defs>
      <use xlink:href="#DejaVuSans-53"/>
      <use xlink:href="#DejaVuSans-68" x="63.476562"/>
      <use xlink:href="#DejaVuSans-61" x="126.855469"/>
      <use xlink:href="#DejaVuSans-72" x="188.134766"/>
      <use xlink:href="#DejaVuSans-65" x="226.998047"/>
      <use xlink:href="#DejaVuSans-20" x="288.521484"/>
      <use xlink:href="#DejaVuSans-77" x="320.308594"/>
      <use xlink:href="#DejaVuSans-69" x="402.095703"/>
      <use xlink:href="#DejaVuSans-74" x="429.878906"/>
      <use xlink:href="#DejaVuSans-68" x="469.087891"/>
      <use xlink:href="#DejaVuSans-6f" x="532.466797"/>
      <use xlink:href="#DejaVuSans-75" x="593.648438"/>
      <use xlink:href="#DejaVuSans-74" x="657.027344"/>
      <use xlink:href="#DejaVuSans-20" x="696.236328"/>
      <use xlink:href="#DejaVuSans-49" x="728.023438"/>
      <use xlink:href="#DejaVuSans-6d" x="757.515625"/>
      <use xlink:href="#DejaVuSans-70" x="854.927734"/>
      <use xlink:href="#DejaVuSans-72" x="918.404297"/>
      <use xlink:href="#DejaVuSans-6f" x="957.267578"/>
      <use xlink:href="#DejaVuSans-76" x="1018.449219"/>
      <use xlink:href="#DejaVuSans-65" x="1077.628906"/>
      <use xlink:href="#DejaVuSans-64" x="1139.152344"/>
      <use xlink:href="#DejaVuSans-20" x="1202.628906"/>
      <use xlink:href="#DejaVuSans-57" x="1234.416016"/>
      <use xlink:href="#DejaVuSans-61" x="1326.917969"/>
      <use xlink:href="#DejaVuSans-74" x="1388.197266"/>
      <use xlink:href="#DejaVuSans-65" x="1427.40625"/>
      <use xlink:href="#DejaVuSans-72" x="1488.929688"/>
     </g>
    </g>
   </g>
   <g id="PathCollection_8"/>
   <g id="PathCollection_9">
    <path d="M 414.72 233.589767 
L 411.112727 233.589767 
L 407.505455 233.589767 
L 403.898182 233.589767 
L 400.290909 233.589767 
L 396.683636 233.589767 
L 393.076364 233.589767 
L 389.469091 233.589767 
L 385.861818 233.589767 
L 382.254545 233.589767 
L 378.647273 233.589767 
L 375.04 233.589767 
L 371.432727 233.589767 
L 369.911364 233.589767 
" clip-path="url(#p770f5ca120)" style="fill: none; stroke-dasharray: 1.85,0.8; stroke-dashoffset: 0; stroke: #000000; stroke-width: 0.5"/>
    <path d="M 336.881364 233.589767 
L 335.36 233.589767 
L 331.752727 233.589767 
L 328.145455 233.589767 
L 324.538182 233.589767 
L 320.930909 233.589767 
L 317.323636 233.589767 
L 313.716364 233.589767 
L 310.109091 233.589767 
L 306.501818 233.589767 
L 302.894545 233.589767 
L 299.287273 233.589767 
L 295.68 233.589767 
L 292.072727 233.589767 
L 288.465455 233.589767 
L 284.858182 233.589767 
L 281.250909 233.589767 
L 277.643636 233.589767 
L 274.036364 233.589767 
L 270.429091 233.589767 
L 266.821818 233.589767 
L 263.214545 233.589767 
L 259.607273 233.589767 
L 256 233.589767 
L 252.392727 233.589767 
L 248.785455 233.589767 
L 245.178182 233.589767 
L 241.570909 233.589767 
L 237.963636 233.589767 
L 234.356364 233.589767 
L 230.749091 233.589767 
L 227.141818 233.589767 
L 223.534545 233.589767 
L 219.927273 233.589767 
L 216.32 233.589767 
L 212.712727 233.589767 
L 209.105455 233.589767 
L 205.498182 233.589767 
L 201.890909 233.589767 
L 199.474161 235.008 
L 198.283636 236.06763 
L 194.676364 236.06763 
L 191.069091 236.06763 
L 187.461818 236.06763 
L 183.854545 236.06763 
L 180.247273 236.06763 
L 176.64 236.06763 
L 173.032727 236.06763 
L 172.267875 235.008 
L 169.425455 232.411637 
L 169.363056 232.32 
L 169.363056 229.632 
L 169.363056 226.944 
L 169.363056 224.256 
L 169.363056 221.568 
L 169.363056 218.88 
L 169.363056 216.192 
L 168.410077 213.504 
L 168.410077 210.816 
L 168.410077 208.128 
L 168.410077 205.44 
L 167.217618 202.752 
L 167.217618 200.064 
L 166.259451 197.376 
L 166.259451 194.688 
L 166.259451 192 
L 166.259451 189.312 
L 166.259451 186.624 
L 166.259451 183.936 
L 166.259451 181.248 
L 166.259451 178.56 
L 166.259451 175.872 
L 166.259451 173.184 
L 166.259451 170.496 
L 166.259451 167.808 
L 166.259451 165.12 
L 166.259451 162.432 
L 166.259451 159.744 
L 166.259451 157.056 
L 166.259451 154.368 
L 166.259451 151.68 
L 166.259451 148.992 
L 166.259451 146.304 
L 166.259451 143.616 
L 166.259451 140.928 
L 166.259451 138.24 
L 166.259451 135.552 
L 166.259451 132.864 
L 166.259451 130.176 
L 166.259451 127.488 
L 166.259451 124.8 
L 166.259451 122.112 
L 166.259451 119.424 
L 166.259451 116.736 
L 166.259451 114.048 
L 166.259451 111.36 
L 166.259451 108.672 
L 166.259451 105.984 
L 166.259451 103.296 
L 166.259451 100.608 
L 166.259451 97.92 
L 166.259451 95.232 
L 166.259451 92.544 
L 166.259451 89.856 
L 166.259451 87.168 
L 166.259451 84.48 
L 166.259451 81.792 
L 166.259451 79.104 
L 166.259451 76.416 
L 166.259451 73.728 
L 166.259451 71.04 
L 166.259451 68.352 
L 166.259451 65.664 
L 166.259451 62.976 
L 166.259451 60.288 
L 166.259451 57.6 
L 166.259451 54.912 
L 166.259451 52.224 
L 166.259451 49.536 
L 166.259451 46.848 
L 166.259451 44.16 
L 166.259451 41.472 
" clip-path="url(#p770f5ca120)" style="fill: none; stroke-dasharray: 1.85,0.8; stroke-dashoffset: 0; stroke: #000000; stroke-width: 0.5"/>
   </g>
   <g id="PathCollection_10">
    <path d="M 414.72 247.100531 
L 411.112727 247.100531 
L 407.505455 247.100531 
L 403.898182 247.100531 
L 400.290909 247.100531 
L 396.683636 247.100531 
L 393.076364 247.100531 
L 389.469091 247.100531 
L 385.861818 247.100531 
L 382.254545 247.100531 
L 378.647273 247.100531 
L 375.04 247.100531 
L 371.432727 247.100531 
L 367.825455 247.100531 
L 364.218182 247.100531 
L 360.610909 247.100531 
L 357.003636 247.100531 
L 353.396364 247.100531 
L 349.789091 247.100531 
L 346.181818 247.100531 
L 342.574545 247.100531 
L 338.967273 247.100531 
L 335.36 247.100531 
L 331.752727 247.100531 
L 328.145455 247.100531 
L 324.538182 247.100531 
L 320.930909 247.100531 
L 317.323636 247.100531 
L 313.716364 247.100531 
L 310.109091 247.100531 
L 306.501818 247.100531 
L 302.894545 247.100531 
L 299.287273 247.100531 
L 295.68 247.100531 
L 292.072727 247.100531 
L 288.465455 247.100531 
L 284.858182 247.100531 
L 281.250909 247.100531 
L 277.643636 247.100531 
L 274.036364 247.100531 
L 270.429091 247.100531 
L 266.821818 247.100531 
L 263.214545 247.100531 
L 259.607273 247.100531 
L 256 247.100531 
L 252.392727 247.100531 
L 248.785455 247.100531 
L 245.178182 247.100531 
L 241.570909 247.100531 
L 237.963636 247.100531 
L 234.356364 247.100531 
L 230.749091 247.100531 
L 227.141818 247.100531 
L 223.534545 247.100531 
L 219.927273 247.100531 
L 216.32 247.100531 
L 212.712727 247.100531 
L 209.105455 247.100531 
L 205.498182 247.100531 
L 201.890909 247.100531 
L 198.283636 248.295438 
L 194.676364 248.295438 
L 191.069091 248.295438 
L 187.461818 248.295438 
L 183.854545 248.295438 
L 180.247273 248.295438 
L 176.64 248.295438 
L 173.032727 248.295438 
L 169.425455 246.435516 
L 168.610566 245.76 
L 165.930794 243.072 
L 165.818182 242.865349 
L 162.210909 242.865349 
L 158.603636 242.865349 
L 154.996364 242.865349 
L 151.389091 242.865349 
L 147.781818 242.865349 
L 144.174545 242.865349 
L 140.567273 242.865349 
L 136.96 242.865349 
L 133.352727 242.865349 
L 129.745455 242.865349 
L 126.138182 242.865349 
L 124.616818 242.865349 
" clip-path="url(#p770f5ca120)" style="fill: none; stroke-dasharray: 1.85,0.8; stroke-dashoffset: 0; stroke: #000000; stroke-width: 0.5"/>
    <path d="M 91.586818 242.865349 
L 90.065455 242.865349 
L 86.458182 242.865349 
L 82.850909 242.865349 
L 79.243636 242.865349 
L 75.636364 242.865349 
L 72.029091 242.865349 
L 68.421818 242.865349 
L 64.814545 242.865349 
L 61.207273 242.865349 
L 57.6 242.865349 
" clip-path="url(#p770f5ca120)" style="fill: none; stroke-dasharray: 1.85,0.8; stroke-dashoffset: 0; stroke: #000000; stroke-width: 0.5"/>
   </g>
   <g id="PathCollection_11">
    <path d="M 414.72 305.000144 
L 411.112727 305.000144 
L 407.505455 305.000144 
L 403.898182 305.000144 
L 400.290909 305.000144 
L 396.683636 305.000144 
L 393.076364 305.000144 
L 389.469091 305.000144 
L 385.861818 305.000144 
L 382.254545 305.000144 
L 378.647273 305.000144 
L 375.04 305.000144 
L 371.432727 305.000144 
L 369.911364 305.000144 
" clip-path="url(#p770f5ca120)" style="fill: none; stroke-dasharray: 1.85,0.8; stroke-dashoffset: 0; stroke: #000000; stroke-width: 0.5"/>
    <path d="M 336.881364 305.000144 
L 335.36 305.000144 
L 331.752727 305.000144 
L 328.145455 305.000144 
L 324.538182 305.000144 
L 320.930909 305.000144 
L 317.323636 305.000144 
L 313.716364 305.000144 
L 310.109091 305.000144 
L 306.501818 305.000144 
L 302.894545 305.000144 
L 299.287273 305.000144 
L 295.68 305.000144 
L 292.072727 305.000144 
L 288.465455 305.000144 
L 284.858182 305.000144 
L 281.250909 305.000144 
L 277.643636 305.000144 
L 274.036364 305.000144 
L 270.429091 305.000144 
L 266.821818 305.000144 
L 263.214545 305.000144 
L 259.607273 305.000144 
L 256 305.000144 
L 252.392727 305.000144 
L 248.785455 305.000144 
L 245.178182 305.000144 
L 241.570909 305.000144 
L 237.963636 305.000144 
L 234.356364 305.000144 
L 230.749091 305.000144 
L 227.141818 305.000144 
L 223.534545 305.000144 
L 219.927273 305.000144 
L 216.32 305.000144 
L 212.712727 305.000144 
L 209.105455 305.000144 
L 205.498182 305.000144 
L 201.890909 305.000144 
L 198.283636 305.150308 
L 194.676364 305.150308 
L 191.069091 305.150308 
L 187.461818 305.150308 
L 183.854545 305.150308 
L 180.247273 305.150308 
L 176.64 305.150308 
L 173.032727 305.150308 
L 169.425455 304.916571 
L 169.22799 304.896 
L 169.22799 302.208 
L 169.22799 299.52 
L 165.818182 296.99735 
L 162.210909 296.99735 
L 158.603636 296.99735 
L 154.996364 296.99735 
L 151.389091 296.99735 
L 147.781818 296.99735 
L 144.174545 296.99735 
L 140.567273 296.99735 
L 136.96 296.99735 
L 133.352727 296.99735 
L 129.745455 296.99735 
L 126.138182 296.99735 
L 122.530909 296.99735 
L 118.923636 296.99735 
L 115.316364 296.99735 
L 111.709091 296.99735 
L 108.101818 296.99735 
L 104.494545 296.99735 
L 100.887273 296.99735 
L 97.28 296.99735 
L 93.672727 296.99735 
L 90.065455 296.99735 
L 86.458182 296.99735 
L 82.850909 296.99735 
L 79.243636 296.99735 
L 75.636364 296.99735 
L 72.029091 296.99735 
L 68.421818 296.99735 
L 64.814545 296.99735 
L 61.207273 296.99735 
L 57.6 296.99735 
" clip-path="url(#p770f5ca120)" style="fill: none; stroke-dasharray: 1.85,0.8; stroke-dashoffset: 0; stroke: #000000; stroke-width: 0.5"/>
    <path d="M 57.6 288.058863 
L 61.207273 288.058863 
L 64.814545 288.058863 
L 68.421818 288.058863 
L 72.029091 288.058863 
L 75.636364 288.058863 
L 79.243636 288.058863 
L 82.850909 288.058863 
L 86.458182 288.058863 
L 90.065455 288.058863 
L 93.672727 288.058863 
L 97.28 288.058863 
L 100.887273 288.058863 
L 102.408636 288.058863 
" clip-path="url(#p770f5ca120)" style="fill: none; stroke-dasharray: 1.85,0.8; stroke-dashoffset: 0; stroke: #000000; stroke-width: 0.5"/>
    <path d="M 135.438636 288.058863 
L 136.96 288.058863 
L 140.567273 288.058863 
L 144.174545 288.058863 
L 147.781818 288.058863 
L 151.389091 288.058863 
L 154.996364 288.058863 
L 158.603636 288.058863 
L 162.210909 288.058863 
L 165.818182 288.058863 
L 166.441865 286.08 
L 165.818182 284.976949 
L 162.210909 284.976949 
L 158.603636 284.976949 
L 154.996364 284.976949 
L 151.389091 284.976949 
L 147.781818 284.976949 
L 144.174545 284.976949 
L 140.567273 284.976949 
L 136.96 284.976949 
L 133.352727 284.976949 
L 129.745455 284.976949 
L 126.138182 284.976949 
L 122.530909 284.976949 
L 118.923636 284.976949 
L 115.316364 284.976949 
L 111.709091 284.976949 
L 108.101818 284.976949 
L 104.494545 284.976949 
L 100.887273 284.976949 
L 97.28 284.976949 
L 93.672727 284.976949 
L 90.065455 284.976949 
L 86.458182 284.976949 
L 82.850909 284.976949 
L 79.243636 284.976949 
L 75.636364 284.976949 
L 72.029091 284.976949 
L 68.421818 284.976949 
L 64.814545 284.976949 
L 61.207273 284.976949 
L 57.6 284.976949 
" clip-path="url(#p770f5ca120)" style="fill: none; stroke-dasharray: 1.85,0.8; stroke-dashoffset: 0; stroke: #000000; stroke-width: 0.5"/>
   </g>
   <g id="PathCollection_12">
    <path d="M 414.72 305.826698 
L 411.112727 305.826698 
L 407.505455 305.826698 
L 403.898182 305.826698 
L 400.290909 305.826698 
L 396.683636 305.826698 
L 393.076364 305.826698 
L 389.469091 305.826698 
L 385.861818 305.826698 
L 382.254545 305.826698 
L 378.647273 305.826698 
L 375.04 305.826698 
L 371.432727 305.826698 
L 367.825455 305.826698 
L 364.218182 305.826698 
L 360.610909 305.826698 
L 357.003636 305.826698 
L 353.396364 305.826698 
L 349.789091 305.826698 
L 346.181818 305.826698 
L 342.574545 305.826698 
L 338.967273 305.826698 
L 335.36 305.826698 
L 331.752727 305.826698 
L 328.145455 305.826698 
L 324.538182 305.826698 
L 320.930909 305.826698 
L 317.323636 305.826698 
L 313.716364 305.826698 
L 310.109091 305.826698 
L 306.501818 305.826698 
L 302.894545 305.826698 
L 299.287273 305.826698 
L 295.68 305.826698 
L 292.072727 305.826698 
L 288.465455 305.826698 
L 284.858182 305.826698 
L 281.250909 305.826698 
L 277.643636 305.826698 
L 274.036364 305.826698 
L 270.429091 305.826698 
L 266.821818 305.826698 
L 263.214545 305.826698 
L 259.607273 305.826698 
L 256 305.826698 
L 252.392727 305.826698 
L 248.785455 305.826698 
L 245.178182 305.826698 
L 243.656818 305.826698 
" clip-path="url(#p770f5ca120)" style="fill: none; stroke-dasharray: 1.85,0.8; stroke-dashoffset: 0; stroke: #000000; stroke-width: 0.5"/>
    <path d="M 210.626818 305.826698 
L 209.105455 305.826698 
L 205.498182 305.826698 
L 201.890909 305.826698 
L 198.283636 305.976862 
L 194.676364 305.976862 
L 191.069091 305.976862 
L 187.461818 305.976862 
L 183.854545 305.976862 
L 180.247273 305.976862 
L 176.64 305.976862 
L 173.032727 305.976862 
L 169.425455 305.743125 
L 165.818182 305.367333 
L 162.210909 305.367333 
L 158.603636 305.367333 
L 154.996364 305.367333 
L 151.389091 305.367333 
L 147.781818 305.367333 
L 144.174545 305.367333 
L 140.567273 305.367333 
L 136.96 305.367333 
L 133.352727 305.367333 
L 129.745455 305.367333 
L 126.138182 305.367333 
L 122.530909 305.367333 
L 118.923636 305.367333 
L 115.316364 305.367333 
L 111.709091 305.367333 
L 108.101818 305.367333 
L 104.494545 305.367333 
L 100.887273 305.367333 
L 97.28 305.367333 
L 93.672727 305.367333 
L 90.065455 305.367333 
L 86.458182 305.367333 
L 82.850909 305.367333 
L 79.243636 305.367333 
L 75.636364 305.367333 
L 72.029091 305.367333 
L 68.421818 305.367333 
L 64.814545 305.367333 
L 61.207273 305.367333 
L 57.6 305.367333 
" clip-path="url(#p770f5ca120)" style="fill: none; stroke-dasharray: 1.85,0.8; stroke-dashoffset: 0; stroke: #000000; stroke-width: 0.5"/>
   </g>
   <g id="PathCollection_13">
    <path d="M 414.72 306.653252 
L 411.112727 306.653252 
L 407.505455 306.653252 
L 403.898182 306.653252 
L 400.290909 306.653252 
L 396.683636 306.653252 
L 393.076364 306.653252 
L 389.469091 306.653252 
L 385.861818 306.653252 
L 382.254545 306.653252 
L 378.647273 306.653252 
L 375.04 306.653252 
L 371.432727 306.653252 
L 369.911364 306.653252 
" clip-path="url(#p770f5ca120)" style="fill: none; stroke-dasharray: 1.85,0.8; stroke-dashoffset: 0; stroke: #000000; stroke-width: 0.5"/>
    <path d="M 336.881364 306.653252 
L 335.36 306.653252 
L 331.752727 306.653252 
L 328.145455 306.653252 
L 324.538182 306.653252 
L 320.930909 306.653252 
L 317.323636 306.653252 
L 313.716364 306.653252 
L 310.109091 306.653252 
L 306.501818 306.653252 
L 302.894545 306.653252 
L 299.287273 306.653252 
L 295.68 306.653252 
L 292.072727 306.653252 
L 288.465455 306.653252 
L 284.858182 306.653252 
L 281.250909 306.653252 
L 277.643636 306.653252 
L 274.036364 306.653252 
L 270.429091 306.653252 
L 266.821818 306.653252 
L 263.214545 306.653252 
L 259.607273 306.653252 
L 256 306.653252 
L 252.392727 306.653252 
L 248.785455 306.653252 
L 245.178182 306.653252 
L 241.570909 306.653252 
L 237.963636 306.653252 
L 234.356364 306.653252 
L 230.749091 306.653252 
L 227.141818 306.653252 
L 223.534545 306.653252 
L 219.927273 306.653252 
L 216.32 306.653252 
L 212.712727 306.653252 
L 209.105455 306.653252 
L 205.498182 306.653252 
L 201.890909 306.653252 
L 198.283636 306.803416 
L 194.676364 306.803416 
L 191.069091 306.803416 
L 187.461818 306.803416 
L 183.854545 306.803416 
L 180.247273 306.803416 
L 176.64 306.803416 
L 173.032727 306.803416 
L 169.425455 306.569679 
L 165.818182 306.193887 
L 162.210909 306.193887 
L 158.603636 306.193887 
L 154.996364 306.193887 
L 151.389091 306.193887 
L 147.781818 306.193887 
L 144.174545 306.193887 
L 140.567273 306.193887 
L 136.96 306.193887 
L 133.352727 306.193887 
L 129.745455 306.193887 
L 126.138182 306.193887 
L 122.530909 306.193887 
L 118.923636 306.193887 
L 115.316364 306.193887 
L 111.709091 306.193887 
L 108.101818 306.193887 
L 104.494545 306.193887 
L 100.887273 306.193887 
L 97.28 306.193887 
L 93.672727 306.193887 
L 90.065455 306.193887 
L 86.458182 306.193887 
L 82.850909 306.193887 
L 79.243636 306.193887 
L 75.636364 306.193887 
L 72.029091 306.193887 
L 68.421818 306.193887 
L 64.814545 306.193887 
L 61.207273 306.193887 
L 57.6 306.193887 
" clip-path="url(#p770f5ca120)" style="fill: none; stroke-dasharray: 1.85,0.8; stroke-dashoffset: 0; stroke: #000000; stroke-width: 0.5"/>
   </g>
   <g id="PathCollection_14">
    <path d="M 172.323273 307.584 
L 169.425455 307.396233 
L 165.818182 307.02044 
L 162.210909 307.02044 
L 158.603636 307.02044 
L 154.996364 307.02044 
L 151.389091 307.02044 
L 147.781818 307.02044 
L 144.174545 307.02044 
L 140.567273 307.02044 
L 136.96 307.02044 
L 133.352727 307.02044 
L 131.831364 307.02044 
" clip-path="url(#p770f5ca120)" style="fill: none; stroke-dasharray: 1.85,0.8; stroke-dashoffset: 0; stroke: #000000; stroke-width: 0.5"/>
    <path d="M 98.801364 307.02044 
L 97.28 307.02044 
L 93.672727 307.02044 
L 90.065455 307.02044 
L 86.458182 307.02044 
L 82.850909 307.02044 
L 79.243636 307.02044 
L 75.636364 307.02044 
L 72.029091 307.02044 
L 68.421818 307.02044 
L 64.814545 307.02044 
L 61.207273 307.02044 
L 57.6 307.02044 
" clip-path="url(#p770f5ca120)" style="fill: none; stroke-dasharray: 1.85,0.8; stroke-dashoffset: 0; stroke: #000000; stroke-width: 0.5"/>
    <path d="M 414.72 307.479806 
L 411.112727 307.479806 
L 407.505455 307.479806 
L 403.898182 307.479806 
L 400.290909 307.479806 
L 396.683636 307.479806 
L 393.076364 307.479806 
L 389.469091 307.479806 
L 385.861818 307.479806 
L 382.254545 307.479806 
L 378.647273 307.479806 
L 375.04 307.479806 
L 371.432727 307.479806 
L 369.911364 307.479806 
" clip-path="url(#p770f5ca120)" style="fill: none; stroke-dasharray: 1.85,0.8; stroke-dashoffset: 0; stroke: #000000; stroke-width: 0.5"/>
    <path d="M 336.881364 307.479806 
L 335.36 307.479806 
L 331.752727 307.479806 
L 328.145455 307.479806 
L 324.538182 307.479806 
L 320.930909 307.479806 
L 317.323636 307.479806 
L 313.716364 307.479806 
L 310.109091 307.479806 
L 306.501818 307.479806 
L 302.894545 307.479806 
L 299.287273 307.479806 
L 295.68 307.479806 
L 292.072727 307.479806 
L 288.465455 307.479806 
L 284.858182 307.479806 
L 281.250909 307.479806 
L 277.643636 307.479806 
L 274.036364 307.479806 
L 270.429091 307.479806 
L 266.821818 307.479806 
L 263.214545 307.479806 
L 259.607273 307.479806 
L 256 307.479806 
L 252.392727 307.479806 
L 248.785455 307.479806 
L 245.178182 307.479806 
L 241.570909 307.479806 
L 237.963636 307.479806 
L 234.356364 307.479806 
L 230.749091 307.479806 
L 227.141818 307.479806 
L 223.534545 307.479806 
L 219.927273 307.479806 
L 216.32 307.479806 
L 212.712727 307.479806 
L 209.105455 307.479806 
L 205.498182 307.479806 
L 201.890909 307.479806 
L 199.387933 307.584 
" clip-path="url(#p770f5ca120)" style="fill: none; stroke-dasharray: 1.85,0.8; stroke-dashoffset: 0; stroke: #000000; stroke-width: 0.5"/>
   </g>
   <g id="PathCollection_15"/>
   <g id="LineCollection_1">
    <path d="M 91.082143 307.584 
L 91.082143 294.2784 
" clip-path="url(#p770f5ca120)" style="fill: none; stroke: #000000; stroke-width: 1.5"/>
    <path d="M 119.41596 307.584 
L 119.41596 294.2784 
" clip-path="url(#p770f5ca120)" style="fill: none; stroke: #000000; stroke-width: 1.5"/>
    <path d="M 149.252755 307.584 
L 149.252755 294.2784 
" clip-path="url(#p770f5ca120)" style="fill: none; stroke: #000000; stroke-width: 1.5"/>
    <path d="M 172.873124 307.584 
L 172.873124 294.2784 
" clip-path="url(#p770f5ca120)" style="fill: none; stroke: #000000; stroke-width: 1.5"/>
    <path d="M 191.42873 307.584 
L 191.42873 294.2784 
" clip-path="url(#p770f5ca120)" style="fill: none; stroke: #000000; stroke-width: 1.5"/>
    <path d="M 219.294539 307.584 
L 219.294539 294.2784 
" clip-path="url(#p770f5ca120)" style="fill: none; stroke: #000000; stroke-width: 1.5"/>
    <path d="M 236.616633 307.584 
L 236.616633 294.2784 
" clip-path="url(#p770f5ca120)" style="fill: none; stroke: #000000; stroke-width: 1.5"/>
    <path d="M 280.064827 307.584 
L 280.064827 294.2784 
" clip-path="url(#p770f5ca120)" style="fill: none; stroke: #000000; stroke-width: 1.5"/>
    <path d="M 343.244712 307.584 
L 343.244712 294.2784 
" clip-path="url(#p770f5ca120)" style="fill: none; stroke: #000000; stroke-width: 1.5"/>
   </g>
   <g id="LineCollection_2">
    <path clip-path="url(#p770f5ca120)" style="fill: none; stroke: #000000; stroke-width: 1.5"/>
    <path clip-path="url(#p770f5ca120)" style="fill: none; stroke: #000000; stroke-width: 1.5"/>
    <path clip-path="url(#p770f5ca120)" style="fill: none; stroke: #000000; stroke-width: 1.5"/>
    <path clip-path="url(#p770f5ca120)" style="fill: none; stroke: #000000; stroke-width: 1.5"/>
    <path clip-path="url(#p770f5ca120)" style="fill: none; stroke: #000000; stroke-width: 1.5"/>
    <path clip-path="url(#p770f5ca120)" style="fill: none; stroke: #000000; stroke-width: 1.5"/>
    <path d="M 212.992339 289.15458 
L 219.041543 289.15458 
" clip-path="url(#p770f5ca120)" style="fill: none; stroke: #000000; stroke-width: 1.5"/>
    <path d="M 212.992339 113.326757 
L 219.041543 113.326757 
" clip-path="url(#p770f5ca120)" style="fill: none; stroke: #000000; stroke-width: 1.5"/>
    <path clip-path="url(#p770f5ca120)" style="fill: none; stroke: #000000; stroke-width: 1.5"/>
   </g>
   <g id="patch_3">
    <path d="M 57.6 307.584 
L 57.6 41.472 
" style="fill: none; stroke: #000000; stroke-width: 0.8; stroke-linejoin: miter; stroke-linecap: square"/>
   </g>
   <g id="patch_4">
    <path d="M 414.72 307.584 
L 414.72 41.472 
" style="fill: none; stroke: #000000; stroke-width: 0.8; stroke-linejoin: miter; stroke-linecap: square"/>
   </g>
   <g id="patch_5">
    <path d="M 57.6 307.584 
L 414.72 307.584 
" style="fill: none; stroke: #000000; stroke-width: 0.8; stroke-linejoin: miter; stroke-linecap: square"/>
   </g>
   <g id="patch_6">
    <path d="M 57.6 41.472 
L 414.72 41.472 
" style="fill: none; stroke: #000000; stroke-width: 0.8; stroke-linejoin: miter; stroke-linecap: square"/>
   </g>
   <g id="text_14">
    <!-- 2D-partial dependency plot between Fruit and SWIW -->
    <g transform="translate(78.360938 35.472) scale(0.12 -0.12)">
     <defs>
      <path id="DejaVuSans-32" d="M 1228 531 
L 3431 531 
L 3431 0 
L 469 0 
L 469 531 
Q 828 903 1448 1529 
Q 2069 2156 2228 2338 
Q 2531 2678 2651 2914 
Q 2772 3150 2772 3378 
Q 2772 3750 2511 3984 
Q 2250 4219 1831 4219 
Q 1534 4219 1204 4116 
Q 875 4013 500 3803 
L 500 4441 
Q 881 4594 1212 4672 
Q 1544 4750 1819 4750 
Q 2544 4750 2975 4387 
Q 3406 4025 3406 3419 
Q 3406 3131 3298 2873 
Q 3191 2616 2906 2266 
Q 2828 2175 2409 1742 
Q 1991 1309 1228 531 
z
" transform="scale(0.015625)"/>
      <path id="DejaVuSans-44" d="M 1259 4147 
L 1259 519 
L 2022 519 
Q 2988 519 3436 956 
Q 3884 1394 3884 2338 
Q 3884 3275 3436 3711 
Q 2988 4147 2022 4147 
L 1259 4147 
z
M 628 4666 
L 1925 4666 
Q 3281 4666 3915 4102 
Q 4550 3538 4550 2338 
Q 4550 1131 3912 565 
Q 3275 0 1925 0 
L 628 0 
L 628 4666 
z
" transform="scale(0.015625)"/>
      <path id="DejaVuSans-2d" d="M 313 2009 
L 1997 2009 
L 1997 1497 
L 313 1497 
L 313 2009 
z
" transform="scale(0.015625)"/>
      <path id="DejaVuSans-6c" d="M 603 4863 
L 1178 4863 
L 1178 0 
L 603 0 
L 603 4863 
z
" transform="scale(0.015625)"/>
      <path id="DejaVuSans-63" d="M 3122 3366 
L 3122 2828 
Q 2878 2963 2633 3030 
Q 2388 3097 2138 3097 
Q 1578 3097 1268 2742 
Q 959 2388 959 1747 
Q 959 1106 1268 751 
Q 1578 397 2138 397 
Q 2388 397 2633 464 
Q 2878 531 3122 666 
L 3122 134 
Q 2881 22 2623 -34 
Q 2366 -91 2075 -91 
Q 1284 -91 818 406 
Q 353 903 353 1747 
Q 353 2603 823 3093 
Q 1294 3584 2113 3584 
Q 2378 3584 2631 3529 
Q 2884 3475 3122 3366 
z
" transform="scale(0.015625)"/>
      <path id="DejaVuSans-79" d="M 2059 -325 
Q 1816 -950 1584 -1140 
Q 1353 -1331 966 -1331 
L 506 -1331 
L 506 -850 
L 844 -850 
Q 1081 -850 1212 -737 
Q 1344 -625 1503 -206 
L 1606 56 
L 191 3500 
L 800 3500 
L 1894 763 
L 2988 3500 
L 3597 3500 
L 2059 -325 
z
" transform="scale(0.015625)"/>
      <path id="DejaVuSans-62" d="M 3116 1747 
Q 3116 2381 2855 2742 
Q 2594 3103 2138 3103 
Q 1681 3103 1420 2742 
Q 1159 2381 1159 1747 
Q 1159 1113 1420 752 
Q 1681 391 2138 391 
Q 2594 391 2855 752 
Q 3116 1113 3116 1747 
z
M 1159 2969 
Q 1341 3281 1617 3432 
Q 1894 3584 2278 3584 
Q 2916 3584 3314 3078 
Q 3713 2572 3713 1747 
Q 3713 922 3314 415 
Q 2916 -91 2278 -91 
Q 1894 -91 1617 61 
Q 1341 213 1159 525 
L 1159 0 
L 581 0 
L 581 4863 
L 1159 4863 
L 1159 2969 
z
" transform="scale(0.015625)"/>
     </defs>
     <use xlink:href="#DejaVuSans-32"/>
     <use xlink:href="#DejaVuSans-44" x="63.623047"/>
     <use xlink:href="#DejaVuSans-2d" x="140.625"/>
     <use xlink:href="#DejaVuSans-70" x="176.708984"/>
     <use xlink:href="#DejaVuSans-61" x="240.185547"/>
     <use xlink:href="#DejaVuSans-72" x="301.464844"/>
     <use xlink:href="#DejaVuSans-74" x="342.578125"/>
     <use xlink:href="#DejaVuSans-69" x="381.787109"/>
     <use xlink:href="#DejaVuSans-61" x="409.570312"/>
     <use xlink:href="#DejaVuSans-6c" x="470.849609"/>
     <use xlink:href="#DejaVuSans-20" x="498.632812"/>
     <use xlink:href="#DejaVuSans-64" x="530.419922"/>
     <use xlink:href="#DejaVuSans-65" x="593.896484"/>
     <use xlink:href="#DejaVuSans-70" x="655.419922"/>
     <use xlink:href="#DejaVuSans-65" x="718.896484"/>
     <use xlink:href="#DejaVuSans-6e" x="780.419922"/>
     <use xlink:href="#DejaVuSans-64" x="843.798828"/>
     <use xlink:href="#DejaVuSans-65" x="907.275391"/>
     <use xlink:href="#DejaVuSans-6e" x="968.798828"/>
     <use xlink:href="#DejaVuSans-63" x="1032.177734"/>
     <use xlink:href="#DejaVuSans-79" x="1087.158203"/>
     <use xlink:href="#DejaVuSans-20" x="1146.337891"/>
     <use xlink:href="#DejaVuSans-70" x="1178.125"/>
     <use xlink:href="#DejaVuSans-6c" x="1241.601562"/>
     <use xlink:href="#DejaVuSans-6f" x="1269.384766"/>
     <use xlink:href="#DejaVuSans-74" x="1330.566406"/>
     <use xlink:href="#DejaVuSans-20" x="1369.775391"/>
     <use xlink:href="#DejaVuSans-62" x="1401.5625"/>
     <use xlink:href="#DejaVuSans-65" x="1465.039062"/>
     <use xlink:href="#DejaVuSans-74" x="1526.5625"/>
     <use xlink:href="#DejaVuSans-77" x="1565.771484"/>
     <use xlink:href="#DejaVuSans-65" x="1647.558594"/>
     <use xlink:href="#DejaVuSans-65" x="1709.082031"/>
     <use xlink:href="#DejaVuSans-6e" x="1770.605469"/>
     <use xlink:href="#DejaVuSans-20" x="1833.984375"/>
     <use xlink:href="#DejaVuSans-46" x="1865.771484"/>
     <use xlink:href="#DejaVuSans-72" x="1916.041016"/>
     <use xlink:href="#DejaVuSans-75" x="1957.154297"/>
     <use xlink:href="#DejaVuSans-69" x="2020.533203"/>
     <use xlink:href="#DejaVuSans-74" x="2048.316406"/>
     <use xlink:href="#DejaVuSans-20" x="2087.525391"/>
     <use xlink:href="#DejaVuSans-61" x="2119.3125"/>
     <use xlink:href="#DejaVuSans-6e" x="2180.591797"/>
     <use xlink:href="#DejaVuSans-64" x="2243.970703"/>
     <use xlink:href="#DejaVuSans-20" x="2307.447266"/>
     <use xlink:href="#DejaVuSans-53" x="2339.234375"/>
     <use xlink:href="#DejaVuSans-57" x="2402.710938"/>
     <use xlink:href="#DejaVuSans-49" x="2501.587891"/>
     <use xlink:href="#DejaVuSans-57" x="2531.080078"/>
    </g>
   </g>
   <g id="text_15">
    <g clip-path="url(#p770f5ca120)">
     <!-- -0.05 -->
     <g transform="translate(340.459645 236.349142) scale(0.1 -0.1)">
      <use xlink:href="#DejaVuSans-2d"/>
      <use xlink:href="#DejaVuSans-30" x="36.083984"/>
      <use xlink:href="#DejaVuSans-2e" x="99.707031"/>
      <use xlink:href="#DejaVuSans-30" x="131.494141"/>
      <use xlink:href="#DejaVuSans-35" x="195.117188"/>
     </g>
    </g>
   </g>
   <g id="text_16">
    <g clip-path="url(#p770f5ca120)">
     <!-- -0.04 -->
     <g transform="translate(95.165099 245.624724) scale(0.1 -0.1)">
      <defs>
       <path id="DejaVuSans-34" d="M 2419 4116 
L 825 1625 
L 2419 1625 
L 2419 4116 
z
M 2253 4666 
L 3047 4666 
L 3047 1625 
L 3713 1625 
L 3713 1100 
L 3047 1100 
L 3047 0 
L 2419 0 
L 2419 1100 
L 313 1100 
L 313 1709 
L 2253 4666 
z
" transform="scale(0.015625)"/>
      </defs>
      <use xlink:href="#DejaVuSans-2d"/>
      <use xlink:href="#DejaVuSans-30" x="36.083984"/>
      <use xlink:href="#DejaVuSans-2e" x="99.707031"/>
      <use xlink:href="#DejaVuSans-30" x="131.494141"/>
      <use xlink:href="#DejaVuSans-34" x="195.117188"/>
     </g>
    </g>
   </g>
   <g id="text_17">
    <g clip-path="url(#p770f5ca120)">
     <!-- -0.03 -->
     <g transform="translate(340.459645 307.759519) scale(0.1 -0.1)">
      <defs>
       <path id="DejaVuSans-33" d="M 2597 2516 
Q 3050 2419 3304 2112 
Q 3559 1806 3559 1356 
Q 3559 666 3084 287 
Q 2609 -91 1734 -91 
Q 1441 -91 1130 -33 
Q 819 25 488 141 
L 488 750 
Q 750 597 1062 519 
Q 1375 441 1716 441 
Q 2309 441 2620 675 
Q 2931 909 2931 1356 
Q 2931 1769 2642 2001 
Q 2353 2234 1838 2234 
L 1294 2234 
L 1294 2753 
L 1863 2753 
Q 2328 2753 2575 2939 
Q 2822 3125 2822 3475 
Q 2822 3834 2567 4026 
Q 2313 4219 1838 4219 
Q 1578 4219 1281 4162 
Q 984 4106 628 3988 
L 628 4550 
Q 988 4650 1302 4700 
Q 1616 4750 1894 4750 
Q 2613 4750 3031 4423 
Q 3450 4097 3450 3541 
Q 3450 3153 3228 2886 
Q 3006 2619 2597 2516 
z
" transform="scale(0.015625)"/>
      </defs>
      <use xlink:href="#DejaVuSans-2d"/>
      <use xlink:href="#DejaVuSans-30" x="36.083984"/>
      <use xlink:href="#DejaVuSans-2e" x="99.707031"/>
      <use xlink:href="#DejaVuSans-30" x="131.494141"/>
      <use xlink:href="#DejaVuSans-33" x="195.117188"/>
     </g>
    </g>
   </g>
   <g id="text_18">
    <g clip-path="url(#p770f5ca120)">
     <!-- -0.03 -->
     <g transform="translate(105.986918 290.818238) scale(0.1 -0.1)">
      <use xlink:href="#DejaVuSans-2d"/>
      <use xlink:href="#DejaVuSans-30" x="36.083984"/>
      <use xlink:href="#DejaVuSans-2e" x="99.707031"/>
      <use xlink:href="#DejaVuSans-30" x="131.494141"/>
      <use xlink:href="#DejaVuSans-33" x="195.117188"/>
     </g>
    </g>
   </g>
   <g id="text_19">
    <g clip-path="url(#p770f5ca120)">
     <!-- -0.02 -->
     <g transform="translate(214.205099 308.586073) scale(0.1 -0.1)">
      <use xlink:href="#DejaVuSans-2d"/>
      <use xlink:href="#DejaVuSans-30" x="36.083984"/>
      <use xlink:href="#DejaVuSans-2e" x="99.707031"/>
      <use xlink:href="#DejaVuSans-30" x="131.494141"/>
      <use xlink:href="#DejaVuSans-32" x="195.117188"/>
     </g>
    </g>
   </g>
   <g id="text_20">
    <g clip-path="url(#p770f5ca120)">
     <!-- -0.02 -->
     <g transform="translate(340.459645 309.412627) scale(0.1 -0.1)">
      <use xlink:href="#DejaVuSans-2d"/>
      <use xlink:href="#DejaVuSans-30" x="36.083984"/>
      <use xlink:href="#DejaVuSans-2e" x="99.707031"/>
      <use xlink:href="#DejaVuSans-30" x="131.494141"/>
      <use xlink:href="#DejaVuSans-32" x="195.117188"/>
     </g>
    </g>
   </g>
   <g id="text_21">
    <g clip-path="url(#p770f5ca120)">
     <!-- -0.01 -->
     <g transform="translate(102.379645 309.779815) scale(0.1 -0.1)">
      <use xlink:href="#DejaVuSans-2d"/>
      <use xlink:href="#DejaVuSans-30" x="36.083984"/>
      <use xlink:href="#DejaVuSans-2e" x="99.707031"/>
      <use xlink:href="#DejaVuSans-30" x="131.494141"/>
      <use xlink:href="#DejaVuSans-31" x="195.117188"/>
     </g>
    </g>
   </g>
   <g id="text_22">
    <g clip-path="url(#p770f5ca120)">
     <!-- -0.01 -->
     <g transform="translate(340.459645 310.239181) scale(0.1 -0.1)">
      <use xlink:href="#DejaVuSans-2d"/>
      <use xlink:href="#DejaVuSans-30" x="36.083984"/>
      <use xlink:href="#DejaVuSans-2e" x="99.707031"/>
      <use xlink:href="#DejaVuSans-30" x="131.494141"/>
      <use xlink:href="#DejaVuSans-31" x="195.117188"/>
     </g>
    </g>
   </g>
  </g>
 </g>
 <defs>
  <clipPath id="p770f5ca120">
   <rect x="57.6" y="41.472" width="357.12" height="266.112"/>
  </clipPath>
 </defs>
</svg>
