<?xml version="1.0" encoding="utf-8" standalone="no"?>
<!DOCTYPE svg PUBLIC "-//W3C//DTD SVG 1.1//EN"
  "http://www.w3.org/Graphics/SVG/1.1/DTD/svg11.dtd">
<svg xmlns:xlink="http://www.w3.org/1999/xlink" width="460.8pt" height="345.6pt" viewBox="0 0 460.8 345.6" xmlns="http://www.w3.org/2000/svg" version="1.1">
 <metadata>
  <rdf:RDF xmlns:dc="http://purl.org/dc/elements/1.1/" xmlns:cc="http://creativecommons.org/ns#" xmlns:rdf="http://www.w3.org/1999/02/22-rdf-syntax-ns#">
   <cc:Work>
    <dc:type rdf:resource="http://purl.org/dc/dcmitype/StillImage"/>
    <dc:date>2024-02-15T12:26:40.667432</dc:date>
    <dc:format>image/svg+xml</dc:format>
    <dc:creator>
     <cc:Agent>
      <dc:title>Matplotlib v3.7.0, https://matplotlib.org/</dc:title>
     </cc:Agent>
    </dc:creator>
   </cc:Work>
  </rdf:RDF>
 </metadata>
 <defs>
  <style type="text/css">*{stroke-linejoin: round; stroke-linecap: butt}</style>
 </defs>
 <g id="figure_1">
  <g id="patch_1">
   <path d="M 0 345.6 
L 460.8 345.6 
L 460.8 0 
L 0 0 
L 0 345.6 
z
" style="fill: none"/>
  </g>
  <g id="axes_1"/>
  <g id="axes_2">
   <g id="patch_2">
    <path d="M 57.6 307.584 
L 414.72 307.584 
L 414.72 41.472 
L 57.6 41.472 
L 57.6 307.584 
z
" style="fill: none"/>
   </g>
   <g id="PathCollection_1">
    <path d="M 61.207273 307.584 
L 64.814545 307.584 
L 68.421818 307.584 
L 72.029091 307.584 
L 75.636364 307.584 
L 79.243636 307.584 
L 82.850909 307.584 
L 86.458182 307.584 
L 90.065455 307.584 
L 93.672727 307.584 
L 97.28 307.584 
L 100.887273 307.584 
L 104.494545 307.584 
L 108.101818 307.584 
L 111.709091 307.584 
L 115.316364 307.584 
L 118.923636 307.584 
L 122.530909 307.584 
L 126.138182 307.584 
L 129.745455 307.584 
L 133.352727 307.584 
L 136.96 307.584 
L 140.567273 307.584 
L 144.174545 307.584 
L 147.781818 307.584 
L 151.389091 307.584 
L 154.996364 307.584 
L 158.603636 307.584 
L 162.210909 307.584 
L 165.818182 307.584 
L 169.425455 307.584 
L 173.032727 307.584 
L 176.64 307.584 
L 180.247273 307.584 
L 183.854545 307.584 
L 187.461818 307.584 
L 191.069091 307.584 
L 194.676364 307.584 
L 198.283636 307.584 
L 201.890909 307.584 
L 205.498182 307.584 
L 209.105455 307.584 
L 212.712727 307.584 
L 216.32 307.584 
L 219.927273 307.584 
L 223.534545 307.584 
L 227.141818 307.584 
L 230.749091 307.584 
L 234.356364 307.584 
L 237.963636 307.584 
L 241.570909 307.584 
L 245.178182 307.584 
L 248.785455 307.584 
L 252.392727 307.584 
L 256 307.584 
L 259.607273 307.584 
L 263.214545 307.584 
L 266.821818 307.584 
L 270.429091 307.584 
L 274.036364 307.584 
L 277.643636 307.584 
L 281.250909 307.584 
L 284.858182 307.584 
L 288.465455 307.584 
L 292.072727 307.584 
L 295.68 307.584 
L 299.287273 307.584 
L 302.894545 307.584 
L 306.501818 307.584 
L 310.109091 307.584 
L 313.716364 307.584 
L 317.323636 307.584 
L 320.930909 307.584 
L 324.538182 307.584 
L 328.145455 307.584 
L 331.752727 307.584 
L 335.36 307.584 
L 338.967273 307.584 
L 342.574545 307.584 
L 346.181818 307.584 
L 349.789091 307.584 
L 353.396364 307.584 
L 357.003636 307.584 
L 360.610909 307.584 
L 364.218182 307.584 
L 367.825455 307.584 
L 371.432727 307.584 
L 375.04 307.584 
L 378.647273 307.584 
L 382.254545 307.584 
L 385.861818 307.584 
L 389.469091 307.584 
L 393.076364 307.584 
L 396.683636 307.584 
L 400.290909 307.584 
L 403.898182 307.584 
L 407.505455 307.584 
L 411.112727 307.584 
L 414.72 307.584 
L 414.72 304.896 
L 414.72 302.208 
L 414.72 299.52 
L 414.72 296.832 
L 414.72 294.144 
L 414.72 291.456 
L 414.72 288.768 
L 414.72 286.08 
L 414.72 283.392 
L 414.72 280.704 
L 414.72 278.016 
L 414.72 275.328 
L 414.72 272.64 
L 414.72 269.952 
L 414.72 267.264 
L 414.72 264.576 
L 414.72 261.888 
L 414.72 259.2 
L 414.72 256.512 
L 414.72 253.824 
L 414.72 251.136 
L 414.72 248.448 
L 414.72 245.76 
L 414.72 243.072 
L 414.72 240.384 
L 414.72 237.696 
L 414.72 235.008 
L 414.72 232.32 
L 414.72 229.632 
L 414.72 226.944 
L 414.72 224.256 
L 414.72 221.568 
L 414.72 218.88 
L 414.72 216.192 
L 414.72 213.504 
L 414.72 210.816 
L 414.72 209.795767 
L 411.112727 209.795767 
L 407.505455 209.795767 
L 403.898182 209.795767 
L 400.290909 209.795767 
L 396.683636 209.795767 
L 393.076364 209.795767 
L 389.469091 209.795767 
L 385.861818 209.795767 
L 382.254545 209.795767 
L 378.647273 209.795767 
L 375.04 209.795767 
L 371.432727 209.795767 
L 367.825455 209.795767 
L 364.218182 209.795767 
L 360.610909 209.795767 
L 357.003636 209.795767 
L 353.396364 209.795767 
L 349.789091 209.795767 
L 346.181818 209.795767 
L 342.574545 209.795767 
L 338.967273 209.795767 
L 335.36 209.795767 
L 331.752727 209.795767 
L 328.145455 209.795767 
L 324.538182 209.795767 
L 320.930909 209.795767 
L 317.323636 209.795767 
L 313.716364 209.795767 
L 310.109091 209.795767 
L 306.501818 209.795767 
L 302.894545 209.795767 
L 299.287273 209.795767 
L 295.68 209.795767 
L 292.072727 209.795767 
L 288.465455 209.795767 
L 284.858182 209.795767 
L 281.250909 209.795767 
L 277.643636 209.795767 
L 274.036364 209.795767 
L 270.429091 210.125271 
L 266.821818 210.125271 
L 263.214545 210.510065 
L 261.738055 210.816 
L 259.607273 212.315944 
L 256 212.315944 
L 252.392727 212.315944 
L 248.785455 212.315944 
L 245.178182 212.315944 
L 241.570909 212.315944 
L 237.963636 212.315944 
L 234.356364 212.315944 
L 230.749091 212.315944 
L 227.141818 212.315944 
L 223.534545 212.315944 
L 219.927273 212.315944 
L 216.32 212.315944 
L 212.712727 212.315944 
L 209.105455 212.315944 
L 205.498182 212.315944 
L 201.890909 212.315944 
L 198.283636 212.315944 
L 194.676364 212.315944 
L 191.069091 212.315944 
L 187.461818 212.315944 
L 183.854545 212.315944 
L 180.247273 212.315944 
L 176.64 212.315944 
L 173.032727 212.315944 
L 169.425455 212.315944 
L 165.818182 212.315944 
L 162.210909 212.315944 
L 158.603636 212.315944 
L 154.996364 212.315944 
L 151.389091 212.315944 
L 147.781818 212.315944 
L 144.174545 212.315944 
L 140.567273 212.315944 
L 136.96 212.315944 
L 133.352727 212.315944 
L 129.745455 212.315944 
L 126.138182 212.315944 
L 124.728388 213.504 
L 124.728388 216.192 
L 122.530909 217.529441 
L 118.923636 217.529441 
L 116.329178 218.88 
L 116.329178 221.568 
L 115.316364 222.712615 
L 111.709091 222.712615 
L 108.101818 222.712615 
L 104.494545 222.712615 
L 100.887273 222.712615 
L 97.28 222.712615 
L 93.672727 222.712615 
L 90.065455 222.712615 
L 86.458182 222.712615 
L 85.18079 221.568 
L 85.18079 218.88 
L 82.850909 217.918374 
L 79.243636 217.918374 
L 75.636364 217.918374 
L 72.029091 217.918374 
L 68.421818 217.918374 
L 64.814545 217.918374 
L 61.207273 217.918374 
L 57.6 217.918374 
L 57.6 218.88 
L 57.6 221.568 
L 57.6 224.256 
L 57.6 226.944 
L 57.6 229.632 
L 57.6 232.32 
L 57.6 235.008 
L 57.6 237.696 
L 57.6 240.384 
L 57.6 243.072 
L 57.6 245.76 
L 57.6 248.448 
L 57.6 251.136 
L 57.6 253.824 
L 57.6 256.512 
L 57.6 259.2 
L 57.6 261.888 
L 57.6 264.576 
L 57.6 267.264 
L 57.6 269.952 
L 57.6 272.64 
L 57.6 275.328 
L 57.6 278.016 
L 57.6 280.704 
L 57.6 283.392 
L 57.6 286.08 
L 57.6 288.768 
L 57.6 291.456 
L 57.6 294.144 
L 57.6 296.832 
L 57.6 299.52 
L 57.6 302.208 
L 57.6 304.896 
L 57.6 307.584 
z
" clip-path="url(#p3f1d07c951)" style="fill: #481b6d; fill-opacity: 0.75"/>
   </g>
   <g id="PathCollection_2">
    <path d="M 86.458182 222.712615 
L 90.065455 222.712615 
L 93.672727 222.712615 
L 97.28 222.712615 
L 100.887273 222.712615 
L 104.494545 222.712615 
L 108.101818 222.712615 
L 111.709091 222.712615 
L 115.316364 222.712615 
L 116.329178 221.568 
L 116.329178 218.88 
L 118.923636 217.529441 
L 122.530909 217.529441 
L 124.728388 216.192 
L 124.728388 213.504 
L 126.138182 212.315944 
L 129.745455 212.315944 
L 133.352727 212.315944 
L 136.96 212.315944 
L 140.567273 212.315944 
L 144.174545 212.315944 
L 147.781818 212.315944 
L 151.389091 212.315944 
L 154.996364 212.315944 
L 158.603636 212.315944 
L 162.210909 212.315944 
L 165.818182 212.315944 
L 169.425455 212.315944 
L 173.032727 212.315944 
L 176.64 212.315944 
L 180.247273 212.315944 
L 183.854545 212.315944 
L 187.461818 212.315944 
L 191.069091 212.315944 
L 194.676364 212.315944 
L 198.283636 212.315944 
L 201.890909 212.315944 
L 205.498182 212.315944 
L 209.105455 212.315944 
L 212.712727 212.315944 
L 216.32 212.315944 
L 219.927273 212.315944 
L 223.534545 212.315944 
L 227.141818 212.315944 
L 230.749091 212.315944 
L 234.356364 212.315944 
L 237.963636 212.315944 
L 241.570909 212.315944 
L 245.178182 212.315944 
L 248.785455 212.315944 
L 252.392727 212.315944 
L 256 212.315944 
L 259.607273 212.315944 
L 261.738055 210.816 
L 263.214545 210.510065 
L 266.821818 210.125271 
L 270.429091 210.125271 
L 274.036364 209.795767 
L 277.643636 209.795767 
L 281.250909 209.795767 
L 284.858182 209.795767 
L 288.465455 209.795767 
L 292.072727 209.795767 
L 295.68 209.795767 
L 299.287273 209.795767 
L 302.894545 209.795767 
L 306.501818 209.795767 
L 310.109091 209.795767 
L 313.716364 209.795767 
L 317.323636 209.795767 
L 320.930909 209.795767 
L 324.538182 209.795767 
L 328.145455 209.795767 
L 331.752727 209.795767 
L 335.36 209.795767 
L 338.967273 209.795767 
L 342.574545 209.795767 
L 346.181818 209.795767 
L 349.789091 209.795767 
L 353.396364 209.795767 
L 357.003636 209.795767 
L 360.610909 209.795767 
L 364.218182 209.795767 
L 367.825455 209.795767 
L 371.432727 209.795767 
L 375.04 209.795767 
L 378.647273 209.795767 
L 382.254545 209.795767 
L 385.861818 209.795767 
L 389.469091 209.795767 
L 393.076364 209.795767 
L 396.683636 209.795767 
L 400.290909 209.795767 
L 403.898182 209.795767 
L 407.505455 209.795767 
L 411.112727 209.795767 
L 414.72 209.795767 
L 414.72 208.128 
L 414.72 205.44 
L 414.72 202.752 
L 414.72 200.064 
L 414.72 197.376 
L 414.72 194.688 
L 414.72 192 
L 414.72 189.312 
L 414.72 186.624 
L 414.72 183.936 
L 414.72 181.248 
L 414.72 178.56 
L 414.72 175.872 
L 414.72 173.184 
L 414.72 170.496 
L 414.72 167.808 
L 414.72 165.12 
L 414.72 162.432 
L 414.72 159.744 
L 414.72 157.60516 
L 411.112727 157.60516 
L 407.505455 157.60516 
L 403.898182 157.60516 
L 400.290909 157.60516 
L 396.683636 157.60516 
L 393.076364 157.60516 
L 389.469091 157.60516 
L 385.861818 157.60516 
L 382.254545 157.60516 
L 378.647273 157.60516 
L 375.04 157.60516 
L 371.432727 157.60516 
L 367.825455 157.60516 
L 364.218182 157.60516 
L 360.610909 157.60516 
L 357.003636 157.60516 
L 353.396364 157.60516 
L 349.789091 157.60516 
L 346.181818 157.60516 
L 342.574545 157.60516 
L 338.967273 157.60516 
L 335.36 157.60516 
L 331.752727 157.60516 
L 328.145455 157.60516 
L 324.538182 157.60516 
L 320.930909 157.60516 
L 317.323636 157.60516 
L 313.716364 157.60516 
L 310.109091 157.60516 
L 306.501818 157.60516 
L 302.894545 157.60516 
L 299.287273 157.60516 
L 295.68 157.60516 
L 292.072727 157.60516 
L 288.465455 157.60516 
L 284.858182 157.60516 
L 281.250909 157.60516 
L 277.643636 157.60516 
L 274.036364 157.60516 
L 270.429091 158.612005 
L 266.821818 158.612005 
L 263.348895 159.744 
L 263.348895 162.432 
L 263.348895 165.12 
L 263.348895 167.808 
L 263.348895 170.496 
L 263.214545 170.595687 
L 262.366569 173.184 
L 262.366569 175.872 
L 262.366569 178.56 
L 262.366569 181.248 
L 262.366569 183.936 
L 262.366569 186.624 
L 261.290872 189.312 
L 261.290872 192 
L 261.290872 194.688 
L 261.290872 197.376 
L 261.290872 200.064 
L 261.290872 202.752 
L 259.607273 205.030664 
L 256 205.030664 
L 252.392727 205.030664 
L 248.785455 205.030664 
L 245.178182 205.030664 
L 241.570909 205.030664 
L 237.963636 205.030664 
L 234.356364 205.030664 
L 230.749091 205.030664 
L 227.141818 205.030664 
L 223.534545 205.030664 
L 219.927273 205.030664 
L 216.32 205.030664 
L 212.712727 205.030664 
L 209.105455 205.030664 
L 208.331095 205.44 
L 205.498182 205.805336 
L 201.890909 205.805336 
L 198.283636 205.805336 
L 194.676364 205.805336 
L 191.069091 205.805336 
L 187.461818 205.805336 
L 183.854545 205.805336 
L 180.247273 205.805336 
L 176.64 205.805336 
L 173.032727 205.805336 
L 169.425455 205.805336 
L 165.818182 205.805336 
L 162.210909 205.805336 
L 158.603636 205.805336 
L 154.996364 205.805336 
L 151.389091 205.805336 
L 147.781818 205.805336 
L 144.174545 205.805336 
L 140.567273 205.805336 
L 136.96 205.805336 
L 133.352727 205.805336 
L 129.745455 205.805336 
L 126.138182 205.805336 
L 122.530909 206.478638 
L 118.923636 206.478638 
L 115.316364 207.054511 
L 111.709091 207.054511 
L 108.101818 207.054511 
L 104.494545 207.054511 
L 100.887273 207.054511 
L 97.28 207.054511 
L 93.672727 207.054511 
L 90.065455 207.054511 
L 86.458182 207.054511 
L 82.850909 206.597915 
L 79.243636 206.597915 
L 75.636364 206.597915 
L 72.029091 206.597915 
L 68.421818 206.597915 
L 64.814545 206.597915 
L 61.207273 206.597915 
L 57.6 206.597915 
L 57.6 208.128 
L 57.6 210.816 
L 57.6 213.504 
L 57.6 216.192 
L 57.6 217.918374 
L 61.207273 217.918374 
L 64.814545 217.918374 
L 68.421818 217.918374 
L 72.029091 217.918374 
L 75.636364 217.918374 
L 79.243636 217.918374 
L 82.850909 217.918374 
L 85.18079 218.88 
L 85.18079 221.568 
z
" clip-path="url(#p3f1d07c951)" style="fill: #3f4788; fill-opacity: 0.75"/>
   </g>
   <g id="PathCollection_3">
    <path d="M 61.207273 206.597915 
L 64.814545 206.597915 
L 68.421818 206.597915 
L 72.029091 206.597915 
L 75.636364 206.597915 
L 79.243636 206.597915 
L 82.850909 206.597915 
L 86.458182 207.054511 
L 90.065455 207.054511 
L 93.672727 207.054511 
L 97.28 207.054511 
L 100.887273 207.054511 
L 104.494545 207.054511 
L 108.101818 207.054511 
L 111.709091 207.054511 
L 115.316364 207.054511 
L 118.923636 206.478638 
L 122.530909 206.478638 
L 126.138182 205.805336 
L 129.745455 205.805336 
L 133.352727 205.805336 
L 136.96 205.805336 
L 140.567273 205.805336 
L 144.174545 205.805336 
L 147.781818 205.805336 
L 151.389091 205.805336 
L 154.996364 205.805336 
L 158.603636 205.805336 
L 162.210909 205.805336 
L 165.818182 205.805336 
L 169.425455 205.805336 
L 173.032727 205.805336 
L 176.64 205.805336 
L 180.247273 205.805336 
L 183.854545 205.805336 
L 187.461818 205.805336 
L 191.069091 205.805336 
L 194.676364 205.805336 
L 198.283636 205.805336 
L 201.890909 205.805336 
L 205.498182 205.805336 
L 208.331095 205.44 
L 209.105455 205.030664 
L 212.712727 205.030664 
L 216.32 205.030664 
L 219.927273 205.030664 
L 223.534545 205.030664 
L 227.141818 205.030664 
L 230.749091 205.030664 
L 234.356364 205.030664 
L 237.963636 205.030664 
L 241.570909 205.030664 
L 245.178182 205.030664 
L 248.785455 205.030664 
L 252.392727 205.030664 
L 256 205.030664 
L 259.607273 205.030664 
L 261.290872 202.752 
L 261.290872 200.064 
L 261.290872 197.376 
L 261.290872 194.688 
L 261.290872 192 
L 261.290872 189.312 
L 262.366569 186.624 
L 262.366569 183.936 
L 262.366569 181.248 
L 262.366569 178.56 
L 262.366569 175.872 
L 262.366569 173.184 
L 263.214545 170.595687 
L 263.348895 170.496 
L 263.348895 167.808 
L 263.348895 165.12 
L 263.348895 162.432 
L 263.348895 159.744 
L 266.821818 158.612005 
L 270.429091 158.612005 
L 274.036364 157.60516 
L 277.643636 157.60516 
L 281.250909 157.60516 
L 284.858182 157.60516 
L 288.465455 157.60516 
L 292.072727 157.60516 
L 295.68 157.60516 
L 299.287273 157.60516 
L 302.894545 157.60516 
L 306.501818 157.60516 
L 310.109091 157.60516 
L 313.716364 157.60516 
L 317.323636 157.60516 
L 320.930909 157.60516 
L 324.538182 157.60516 
L 328.145455 157.60516 
L 331.752727 157.60516 
L 335.36 157.60516 
L 338.967273 157.60516 
L 342.574545 157.60516 
L 346.181818 157.60516 
L 349.789091 157.60516 
L 353.396364 157.60516 
L 357.003636 157.60516 
L 360.610909 157.60516 
L 364.218182 157.60516 
L 367.825455 157.60516 
L 371.432727 157.60516 
L 375.04 157.60516 
L 378.647273 157.60516 
L 382.254545 157.60516 
L 385.861818 157.60516 
L 389.469091 157.60516 
L 393.076364 157.60516 
L 396.683636 157.60516 
L 400.290909 157.60516 
L 403.898182 157.60516 
L 407.505455 157.60516 
L 411.112727 157.60516 
L 414.72 157.60516 
L 414.72 157.056 
L 414.72 154.368 
L 414.72 151.68 
L 414.72 148.992 
L 414.72 146.304 
L 414.72 143.616 
L 414.72 140.928 
L 414.72 138.24 
L 414.72 135.552 
L 414.72 132.864 
L 414.72 130.176 
L 414.72 127.488 
L 414.72 124.8 
L 414.72 122.112 
L 414.72 120.903319 
L 411.112727 120.903319 
L 407.505455 120.903319 
L 403.898182 120.903319 
L 400.290909 120.903319 
L 396.683636 120.903319 
L 393.076364 120.903319 
L 389.469091 120.903319 
L 385.861818 120.903319 
L 382.254545 120.903319 
L 378.647273 120.903319 
L 375.04 120.903319 
L 371.432727 120.903319 
L 367.825455 120.903319 
L 364.218182 120.903319 
L 360.610909 120.903319 
L 357.003636 120.903319 
L 353.396364 120.903319 
L 349.789091 120.903319 
L 346.181818 120.903319 
L 342.574545 120.903319 
L 338.967273 120.903319 
L 335.36 120.903319 
L 331.752727 120.903319 
L 328.145455 120.903319 
L 324.538182 120.903319 
L 320.930909 120.903319 
L 317.323636 120.903319 
L 313.716364 120.903319 
L 310.109091 120.903319 
L 306.501818 120.903319 
L 302.894545 120.903319 
L 299.287273 120.903319 
L 295.68 120.903319 
L 292.072727 120.903319 
L 288.465455 120.903319 
L 284.858182 120.903319 
L 281.250909 120.903319 
L 277.643636 120.903319 
L 274.036364 120.903319 
L 270.429091 120.985795 
L 266.821818 120.985795 
L 263.214545 121.08211 
L 259.607273 121.478317 
L 256 121.478317 
L 252.392727 121.478317 
L 248.785455 121.478317 
L 245.178182 121.478317 
L 241.570909 121.478317 
L 237.963636 121.478317 
L 234.356364 121.478317 
L 230.749091 121.478317 
L 227.141818 121.478317 
L 223.534545 121.478317 
L 219.927273 121.478317 
L 216.32 121.478317 
L 212.712727 121.478317 
L 209.105455 121.478317 
L 205.498182 121.633063 
L 201.890909 121.633063 
L 198.283636 121.633063 
L 194.676364 121.633063 
L 191.069091 121.633063 
L 187.461818 121.633063 
L 183.854545 121.633063 
L 180.247273 121.633063 
L 176.64 121.633063 
L 173.032727 121.633063 
L 169.425455 121.633063 
L 165.818182 121.633063 
L 162.210909 121.633063 
L 158.603636 121.633063 
L 154.996364 121.633063 
L 151.389091 121.633063 
L 147.781818 121.633063 
L 144.174545 121.633063 
L 140.567273 121.633063 
L 136.96 121.633063 
L 133.352727 121.633063 
L 129.745455 121.633063 
L 126.138182 121.633063 
L 122.530909 121.857033 
L 118.923636 121.857033 
L 115.316364 122.048594 
L 111.709091 122.048594 
L 108.101818 122.048594 
L 104.494545 122.048594 
L 100.887273 122.048594 
L 97.28 122.048594 
L 93.672727 122.048594 
L 90.065455 122.048594 
L 86.458182 122.048594 
L 82.850909 121.89671 
L 79.243636 121.89671 
L 75.636364 121.89671 
L 72.029091 121.89671 
L 68.421818 121.89671 
L 64.814545 121.89671 
L 61.207273 121.89671 
L 57.6 121.89671 
L 57.6 122.112 
L 57.6 124.8 
L 57.6 127.488 
L 57.6 130.176 
L 57.6 132.864 
L 57.6 135.552 
L 57.6 138.24 
L 57.6 140.928 
L 57.6 143.616 
L 57.6 146.304 
L 57.6 148.992 
L 57.6 151.68 
L 57.6 154.368 
L 57.6 157.056 
L 57.6 159.744 
L 57.6 162.432 
L 57.6 165.12 
L 57.6 167.808 
L 57.6 170.496 
L 57.6 173.184 
L 57.6 175.872 
L 57.6 178.56 
L 57.6 181.248 
L 57.6 183.936 
L 57.6 186.624 
L 57.6 189.312 
L 57.6 192 
L 57.6 194.688 
L 57.6 197.376 
L 57.6 200.064 
L 57.6 202.752 
L 57.6 205.44 
L 57.6 206.597915 
z
" clip-path="url(#p3f1d07c951)" style="fill: #2e6e8e; fill-opacity: 0.75"/>
   </g>
   <g id="PathCollection_4">
    <path d="M 61.207273 121.89671 
L 64.814545 121.89671 
L 68.421818 121.89671 
L 72.029091 121.89671 
L 75.636364 121.89671 
L 79.243636 121.89671 
L 82.850909 121.89671 
L 86.458182 122.048594 
L 90.065455 122.048594 
L 93.672727 122.048594 
L 97.28 122.048594 
L 100.887273 122.048594 
L 104.494545 122.048594 
L 108.101818 122.048594 
L 111.709091 122.048594 
L 115.316364 122.048594 
L 118.923636 121.857033 
L 122.530909 121.857033 
L 126.138182 121.633063 
L 129.745455 121.633063 
L 133.352727 121.633063 
L 136.96 121.633063 
L 140.567273 121.633063 
L 144.174545 121.633063 
L 147.781818 121.633063 
L 151.389091 121.633063 
L 154.996364 121.633063 
L 158.603636 121.633063 
L 162.210909 121.633063 
L 165.818182 121.633063 
L 169.425455 121.633063 
L 173.032727 121.633063 
L 176.64 121.633063 
L 180.247273 121.633063 
L 183.854545 121.633063 
L 187.461818 121.633063 
L 191.069091 121.633063 
L 194.676364 121.633063 
L 198.283636 121.633063 
L 201.890909 121.633063 
L 205.498182 121.633063 
L 209.105455 121.478317 
L 212.712727 121.478317 
L 216.32 121.478317 
L 219.927273 121.478317 
L 223.534545 121.478317 
L 227.141818 121.478317 
L 230.749091 121.478317 
L 234.356364 121.478317 
L 237.963636 121.478317 
L 241.570909 121.478317 
L 245.178182 121.478317 
L 248.785455 121.478317 
L 252.392727 121.478317 
L 256 121.478317 
L 259.607273 121.478317 
L 263.214545 121.08211 
L 266.821818 120.985795 
L 270.429091 120.985795 
L 274.036364 120.903319 
L 277.643636 120.903319 
L 281.250909 120.903319 
L 284.858182 120.903319 
L 288.465455 120.903319 
L 292.072727 120.903319 
L 295.68 120.903319 
L 299.287273 120.903319 
L 302.894545 120.903319 
L 306.501818 120.903319 
L 310.109091 120.903319 
L 313.716364 120.903319 
L 317.323636 120.903319 
L 320.930909 120.903319 
L 324.538182 120.903319 
L 328.145455 120.903319 
L 331.752727 120.903319 
L 335.36 120.903319 
L 338.967273 120.903319 
L 342.574545 120.903319 
L 346.181818 120.903319 
L 349.789091 120.903319 
L 353.396364 120.903319 
L 357.003636 120.903319 
L 360.610909 120.903319 
L 364.218182 120.903319 
L 367.825455 120.903319 
L 371.432727 120.903319 
L 375.04 120.903319 
L 378.647273 120.903319 
L 382.254545 120.903319 
L 385.861818 120.903319 
L 389.469091 120.903319 
L 393.076364 120.903319 
L 396.683636 120.903319 
L 400.290909 120.903319 
L 403.898182 120.903319 
L 407.505455 120.903319 
L 411.112727 120.903319 
L 414.72 120.903319 
L 414.72 119.424 
L 414.72 116.736 
L 414.72 114.048 
L 414.72 112.746528 
L 411.112727 112.746528 
L 407.505455 112.746528 
L 403.898182 112.746528 
L 400.290909 112.746528 
L 396.683636 112.746528 
L 393.076364 112.746528 
L 389.469091 112.746528 
L 385.861818 112.746528 
L 382.254545 112.746528 
L 378.647273 112.746528 
L 375.04 112.746528 
L 371.432727 112.746528 
L 367.825455 112.746528 
L 364.218182 112.746528 
L 360.610909 112.746528 
L 357.003636 112.746528 
L 353.396364 112.746528 
L 349.789091 112.746528 
L 346.181818 112.746528 
L 342.574545 112.746528 
L 338.967273 112.746528 
L 335.36 112.746528 
L 331.752727 112.746528 
L 328.145455 112.746528 
L 324.538182 112.746528 
L 320.930909 112.746528 
L 317.323636 112.746528 
L 313.716364 112.746528 
L 310.109091 112.746528 
L 306.501818 112.746528 
L 302.894545 112.746528 
L 299.287273 112.746528 
L 295.68 112.746528 
L 292.072727 112.746528 
L 288.465455 112.746528 
L 284.858182 112.746528 
L 281.250909 112.746528 
L 277.643636 112.746528 
L 274.036364 112.746528 
L 270.429091 113.276155 
L 266.821818 113.276155 
L 263.214545 113.894651 
L 262.997128 114.048 
L 262.997128 116.736 
L 262.997128 119.424 
L 259.607273 119.796327 
L 256 119.796327 
L 252.392727 119.796327 
L 248.785455 119.796327 
L 245.178182 119.796327 
L 241.570909 119.796327 
L 237.963636 119.796327 
L 234.356364 119.796327 
L 230.749091 119.796327 
L 227.141818 119.796327 
L 223.534545 119.796327 
L 219.927273 119.796327 
L 216.32 119.796327 
L 212.712727 119.796327 
L 209.105455 119.796327 
L 205.498182 119.951073 
L 201.890909 119.951073 
L 198.283636 119.951073 
L 194.676364 119.951073 
L 191.069091 119.951073 
L 187.461818 119.951073 
L 183.854545 119.951073 
L 180.247273 119.951073 
L 176.64 119.951073 
L 173.032727 119.951073 
L 169.425455 119.951073 
L 165.818182 119.951073 
L 162.210909 119.951073 
L 158.603636 119.951073 
L 154.996364 119.951073 
L 151.389091 119.951073 
L 147.781818 119.951073 
L 144.174545 119.951073 
L 140.567273 119.951073 
L 136.96 119.951073 
L 133.352727 119.951073 
L 129.745455 119.951073 
L 126.138182 119.951073 
L 122.530909 120.175043 
L 118.923636 120.175043 
L 115.316364 120.366604 
L 111.709091 120.366604 
L 108.101818 120.366604 
L 104.494545 120.366604 
L 100.887273 120.366604 
L 97.28 120.366604 
L 93.672727 120.366604 
L 90.065455 120.366604 
L 86.458182 120.366604 
L 82.850909 120.21472 
L 79.243636 120.21472 
L 75.636364 120.21472 
L 72.029091 120.21472 
L 68.421818 120.21472 
L 64.814545 120.21472 
L 61.207273 120.21472 
L 57.6 120.21472 
L 57.6 121.89671 
z
" clip-path="url(#p3f1d07c951)" style="fill: #21918c; fill-opacity: 0.75"/>
   </g>
   <g id="PathCollection_5">
    <path d="M 61.207273 120.21472 
L 64.814545 120.21472 
L 68.421818 120.21472 
L 72.029091 120.21472 
L 75.636364 120.21472 
L 79.243636 120.21472 
L 82.850909 120.21472 
L 86.458182 120.366604 
L 90.065455 120.366604 
L 93.672727 120.366604 
L 97.28 120.366604 
L 100.887273 120.366604 
L 104.494545 120.366604 
L 108.101818 120.366604 
L 111.709091 120.366604 
L 115.316364 120.366604 
L 118.923636 120.175043 
L 122.530909 120.175043 
L 126.138182 119.951073 
L 129.745455 119.951073 
L 133.352727 119.951073 
L 136.96 119.951073 
L 140.567273 119.951073 
L 144.174545 119.951073 
L 147.781818 119.951073 
L 151.389091 119.951073 
L 154.996364 119.951073 
L 158.603636 119.951073 
L 162.210909 119.951073 
L 165.818182 119.951073 
L 169.425455 119.951073 
L 173.032727 119.951073 
L 176.64 119.951073 
L 180.247273 119.951073 
L 183.854545 119.951073 
L 187.461818 119.951073 
L 191.069091 119.951073 
L 194.676364 119.951073 
L 198.283636 119.951073 
L 201.890909 119.951073 
L 205.498182 119.951073 
L 209.105455 119.796327 
L 212.712727 119.796327 
L 216.32 119.796327 
L 219.927273 119.796327 
L 223.534545 119.796327 
L 227.141818 119.796327 
L 230.749091 119.796327 
L 234.356364 119.796327 
L 237.963636 119.796327 
L 241.570909 119.796327 
L 245.178182 119.796327 
L 248.785455 119.796327 
L 252.392727 119.796327 
L 256 119.796327 
L 259.607273 119.796327 
L 262.997128 119.424 
L 262.997128 116.736 
L 262.997128 114.048 
L 263.214545 113.894651 
L 266.821818 113.276155 
L 270.429091 113.276155 
L 274.036364 112.746528 
L 277.643636 112.746528 
L 281.250909 112.746528 
L 284.858182 112.746528 
L 288.465455 112.746528 
L 292.072727 112.746528 
L 295.68 112.746528 
L 299.287273 112.746528 
L 302.894545 112.746528 
L 306.501818 112.746528 
L 310.109091 112.746528 
L 313.716364 112.746528 
L 317.323636 112.746528 
L 320.930909 112.746528 
L 324.538182 112.746528 
L 328.145455 112.746528 
L 331.752727 112.746528 
L 335.36 112.746528 
L 338.967273 112.746528 
L 342.574545 112.746528 
L 346.181818 112.746528 
L 349.789091 112.746528 
L 353.396364 112.746528 
L 357.003636 112.746528 
L 360.610909 112.746528 
L 364.218182 112.746528 
L 367.825455 112.746528 
L 371.432727 112.746528 
L 375.04 112.746528 
L 378.647273 112.746528 
L 382.254545 112.746528 
L 385.861818 112.746528 
L 389.469091 112.746528 
L 393.076364 112.746528 
L 396.683636 112.746528 
L 400.290909 112.746528 
L 403.898182 112.746528 
L 407.505455 112.746528 
L 411.112727 112.746528 
L 414.72 112.746528 
L 414.72 111.36 
L 414.72 108.672 
L 414.72 105.984 
L 414.72 103.296 
L 414.72 100.608 
L 414.72 97.92 
L 414.72 96.953978 
L 411.112727 96.953978 
L 407.505455 96.953978 
L 403.898182 96.953978 
L 400.290909 96.953978 
L 396.683636 96.953978 
L 393.076364 96.953978 
L 389.469091 96.953978 
L 385.861818 96.953978 
L 382.254545 96.953978 
L 378.647273 96.953978 
L 375.04 96.953978 
L 371.432727 96.953978 
L 367.825455 96.953978 
L 364.218182 96.953978 
L 360.610909 96.953978 
L 357.003636 96.953978 
L 353.396364 96.953978 
L 349.789091 96.953978 
L 346.181818 96.953978 
L 342.574545 96.953978 
L 338.967273 96.953978 
L 335.36 96.953978 
L 331.752727 96.953978 
L 328.145455 96.953978 
L 324.538182 96.953978 
L 320.930909 96.953978 
L 317.323636 96.953978 
L 313.716364 96.953978 
L 310.109091 96.953978 
L 306.501818 96.953978 
L 302.894545 96.953978 
L 299.287273 96.953978 
L 295.68 96.953978 
L 292.072727 96.953978 
L 288.465455 96.953978 
L 284.858182 96.953978 
L 281.250909 96.953978 
L 277.643636 96.953978 
L 274.036364 96.953978 
L 270.429091 97.051259 
L 266.821818 97.051259 
L 263.214545 97.164864 
L 259.607273 97.632196 
L 256 97.632196 
L 252.392727 97.632196 
L 248.785455 97.632196 
L 245.178182 97.632196 
L 241.570909 97.632196 
L 237.963636 97.632196 
L 234.356364 97.632196 
L 230.749091 97.632196 
L 227.141818 97.632196 
L 223.534545 97.632196 
L 219.927273 97.632196 
L 216.32 97.632196 
L 212.712727 97.632196 
L 209.105455 97.632196 
L 205.498182 97.814721 
L 201.890909 97.814721 
L 198.283636 97.814721 
L 194.676364 97.814721 
L 191.069091 97.814721 
L 187.461818 97.814721 
L 183.854545 97.814721 
L 180.247273 97.814721 
L 176.64 97.814721 
L 173.032727 97.814721 
L 169.425455 97.814721 
L 165.818182 97.814721 
L 162.210909 97.814721 
L 158.603636 97.814721 
L 154.996364 97.814721 
L 151.389091 97.814721 
L 147.781818 97.814721 
L 144.174545 97.814721 
L 140.567273 97.814721 
L 136.96 97.814721 
L 133.352727 97.814721 
L 129.745455 97.814721 
L 126.138182 97.814721 
L 124.700615 97.92 
L 122.530909 99.147126 
L 118.923636 99.147126 
L 115.90363 100.608 
L 115.90363 103.296 
L 115.90363 105.984 
L 115.316364 106.22216 
L 111.709091 106.22216 
L 108.101818 106.22216 
L 104.494545 106.22216 
L 100.887273 106.22216 
L 97.28 106.22216 
L 93.672727 106.22216 
L 90.065455 106.22216 
L 86.458182 106.22216 
L 85.717504 105.984 
L 85.717504 103.296 
L 85.717504 100.608 
L 82.850909 99.508546 
L 79.243636 99.508546 
L 75.636364 99.508546 
L 72.029091 99.508546 
L 68.421818 99.508546 
L 64.814545 99.508546 
L 61.207273 99.508546 
L 57.6 99.508546 
L 57.6 100.608 
L 57.6 103.296 
L 57.6 105.984 
L 57.6 108.672 
L 57.6 111.36 
L 57.6 114.048 
L 57.6 116.736 
L 57.6 119.424 
L 57.6 120.21472 
z
" clip-path="url(#p3f1d07c951)" style="fill: #2db27d; fill-opacity: 0.75"/>
   </g>
   <g id="PathCollection_6">
    <path d="M 86.458182 106.22216 
L 90.065455 106.22216 
L 93.672727 106.22216 
L 97.28 106.22216 
L 100.887273 106.22216 
L 104.494545 106.22216 
L 108.101818 106.22216 
L 111.709091 106.22216 
L 115.316364 106.22216 
L 115.90363 105.984 
L 115.90363 103.296 
L 115.90363 100.608 
L 118.923636 99.147126 
L 122.530909 99.147126 
L 124.700615 97.92 
L 126.138182 97.814721 
L 129.745455 97.814721 
L 133.352727 97.814721 
L 136.96 97.814721 
L 140.567273 97.814721 
L 144.174545 97.814721 
L 147.781818 97.814721 
L 151.389091 97.814721 
L 154.996364 97.814721 
L 158.603636 97.814721 
L 162.210909 97.814721 
L 165.818182 97.814721 
L 169.425455 97.814721 
L 173.032727 97.814721 
L 176.64 97.814721 
L 180.247273 97.814721 
L 183.854545 97.814721 
L 187.461818 97.814721 
L 191.069091 97.814721 
L 194.676364 97.814721 
L 198.283636 97.814721 
L 201.890909 97.814721 
L 205.498182 97.814721 
L 209.105455 97.632196 
L 212.712727 97.632196 
L 216.32 97.632196 
L 219.927273 97.632196 
L 223.534545 97.632196 
L 227.141818 97.632196 
L 230.749091 97.632196 
L 234.356364 97.632196 
L 237.963636 97.632196 
L 241.570909 97.632196 
L 245.178182 97.632196 
L 248.785455 97.632196 
L 252.392727 97.632196 
L 256 97.632196 
L 259.607273 97.632196 
L 263.214545 97.164864 
L 266.821818 97.051259 
L 270.429091 97.051259 
L 274.036364 96.953978 
L 277.643636 96.953978 
L 281.250909 96.953978 
L 284.858182 96.953978 
L 288.465455 96.953978 
L 292.072727 96.953978 
L 295.68 96.953978 
L 299.287273 96.953978 
L 302.894545 96.953978 
L 306.501818 96.953978 
L 310.109091 96.953978 
L 313.716364 96.953978 
L 317.323636 96.953978 
L 320.930909 96.953978 
L 324.538182 96.953978 
L 328.145455 96.953978 
L 331.752727 96.953978 
L 335.36 96.953978 
L 338.967273 96.953978 
L 342.574545 96.953978 
L 346.181818 96.953978 
L 349.789091 96.953978 
L 353.396364 96.953978 
L 357.003636 96.953978 
L 360.610909 96.953978 
L 364.218182 96.953978 
L 367.825455 96.953978 
L 371.432727 96.953978 
L 375.04 96.953978 
L 378.647273 96.953978 
L 382.254545 96.953978 
L 385.861818 96.953978 
L 389.469091 96.953978 
L 393.076364 96.953978 
L 396.683636 96.953978 
L 400.290909 96.953978 
L 403.898182 96.953978 
L 407.505455 96.953978 
L 411.112727 96.953978 
L 414.72 96.953978 
L 414.72 95.232 
L 414.72 92.562468 
L 411.112727 92.562468 
L 407.505455 92.562468 
L 403.898182 92.562468 
L 400.290909 92.562468 
L 396.683636 92.562468 
L 393.076364 92.562468 
L 389.469091 92.562468 
L 385.861818 92.562468 
L 382.254545 92.562468 
L 378.647273 92.562468 
L 375.04 92.562468 
L 371.432727 92.562468 
L 367.825455 92.562468 
L 364.218182 92.562468 
L 360.610909 92.562468 
L 357.003636 92.562468 
L 353.396364 92.562468 
L 349.789091 92.562468 
L 346.181818 92.562468 
L 342.574545 92.562468 
L 338.967273 92.562468 
L 335.36 92.562468 
L 331.752727 92.562468 
L 328.145455 92.562468 
L 324.538182 92.562468 
L 320.930909 92.562468 
L 317.323636 92.562468 
L 313.716364 92.562468 
L 310.109091 92.562468 
L 306.501818 92.562468 
L 302.894545 92.562468 
L 299.287273 92.562468 
L 295.68 92.562468 
L 292.072727 92.562468 
L 288.465455 92.562468 
L 284.858182 92.562468 
L 281.250909 92.562468 
L 277.643636 92.562468 
L 274.036364 92.562468 
L 270.429091 93.553855 
L 266.821818 93.553855 
L 263.214545 94.711591 
L 262.820374 95.232 
L 259.607273 95.648266 
L 256 95.648266 
L 252.392727 95.648266 
L 248.785455 95.648266 
L 245.178182 95.648266 
L 241.570909 95.648266 
L 237.963636 95.648266 
L 234.356364 95.648266 
L 230.749091 95.648266 
L 227.141818 95.648266 
L 223.534545 95.648266 
L 219.927273 95.648266 
L 216.32 95.648266 
L 212.712727 95.648266 
L 209.105455 95.648266 
L 205.498182 95.830791 
L 201.890909 95.830791 
L 198.283636 95.830791 
L 194.676364 95.830791 
L 191.069091 95.830791 
L 187.461818 95.830791 
L 183.854545 95.830791 
L 180.247273 95.830791 
L 176.64 95.830791 
L 173.032727 95.830791 
L 169.425455 95.830791 
L 165.818182 95.830791 
L 162.210909 95.830791 
L 158.603636 95.830791 
L 154.996364 95.830791 
L 151.389091 95.830791 
L 147.781818 95.830791 
L 144.174545 95.830791 
L 140.567273 95.830791 
L 136.96 95.830791 
L 133.352727 95.830791 
L 129.745455 95.830791 
L 126.138182 95.830791 
L 122.530909 96.094967 
L 118.923636 96.094967 
L 115.316364 96.320915 
L 111.709091 96.320915 
L 108.101818 96.320915 
L 104.494545 96.320915 
L 100.887273 96.320915 
L 97.28 96.320915 
L 93.672727 96.320915 
L 90.065455 96.320915 
L 86.458182 96.320915 
L 82.850909 96.141766 
L 79.243636 96.141766 
L 75.636364 96.141766 
L 72.029091 96.141766 
L 68.421818 96.141766 
L 64.814545 96.141766 
L 61.207273 96.141766 
L 57.6 96.141766 
L 57.6 97.92 
L 57.6 99.508546 
L 61.207273 99.508546 
L 64.814545 99.508546 
L 68.421818 99.508546 
L 72.029091 99.508546 
L 75.636364 99.508546 
L 79.243636 99.508546 
L 82.850909 99.508546 
L 85.717504 100.608 
L 85.717504 103.296 
L 85.717504 105.984 
z
" clip-path="url(#p3f1d07c951)" style="fill: #73d056; fill-opacity: 0.75"/>
   </g>
   <g id="PathCollection_7">
    <path d="M 61.207273 96.141766 
L 64.814545 96.141766 
L 68.421818 96.141766 
L 72.029091 96.141766 
L 75.636364 96.141766 
L 79.243636 96.141766 
L 82.850909 96.141766 
L 86.458182 96.320915 
L 90.065455 96.320915 
L 93.672727 96.320915 
L 97.28 96.320915 
L 100.887273 96.320915 
L 104.494545 96.320915 
L 108.101818 96.320915 
L 111.709091 96.320915 
L 115.316364 96.320915 
L 118.923636 96.094967 
L 122.530909 96.094967 
L 126.138182 95.830791 
L 129.745455 95.830791 
L 133.352727 95.830791 
L 136.96 95.830791 
L 140.567273 95.830791 
L 144.174545 95.830791 
L 147.781818 95.830791 
L 151.389091 95.830791 
L 154.996364 95.830791 
L 158.603636 95.830791 
L 162.210909 95.830791 
L 165.818182 95.830791 
L 169.425455 95.830791 
L 173.032727 95.830791 
L 176.64 95.830791 
L 180.247273 95.830791 
L 183.854545 95.830791 
L 187.461818 95.830791 
L 191.069091 95.830791 
L 194.676364 95.830791 
L 198.283636 95.830791 
L 201.890909 95.830791 
L 205.498182 95.830791 
L 209.105455 95.648266 
L 212.712727 95.648266 
L 216.32 95.648266 
L 219.927273 95.648266 
L 223.534545 95.648266 
L 227.141818 95.648266 
L 230.749091 95.648266 
L 234.356364 95.648266 
L 237.963636 95.648266 
L 241.570909 95.648266 
L 245.178182 95.648266 
L 248.785455 95.648266 
L 252.392727 95.648266 
L 256 95.648266 
L 259.607273 95.648266 
L 262.820374 95.232 
L 263.214545 94.711591 
L 266.821818 93.553855 
L 270.429091 93.553855 
L 274.036364 92.562468 
L 277.643636 92.562468 
L 281.250909 92.562468 
L 284.858182 92.562468 
L 288.465455 92.562468 
L 292.072727 92.562468 
L 295.68 92.562468 
L 299.287273 92.562468 
L 302.894545 92.562468 
L 306.501818 92.562468 
L 310.109091 92.562468 
L 313.716364 92.562468 
L 317.323636 92.562468 
L 320.930909 92.562468 
L 324.538182 92.562468 
L 328.145455 92.562468 
L 331.752727 92.562468 
L 335.36 92.562468 
L 338.967273 92.562468 
L 342.574545 92.562468 
L 346.181818 92.562468 
L 349.789091 92.562468 
L 353.396364 92.562468 
L 357.003636 92.562468 
L 360.610909 92.562468 
L 364.218182 92.562468 
L 367.825455 92.562468 
L 371.432727 92.562468 
L 375.04 92.562468 
L 378.647273 92.562468 
L 382.254545 92.562468 
L 385.861818 92.562468 
L 389.469091 92.562468 
L 393.076364 92.562468 
L 396.683636 92.562468 
L 400.290909 92.562468 
L 403.898182 92.562468 
L 407.505455 92.562468 
L 411.112727 92.562468 
L 414.72 92.562468 
L 414.72 92.544 
L 414.72 89.856 
L 414.72 87.168 
L 414.72 84.48 
L 414.72 81.792 
L 414.72 79.104 
L 414.72 76.416 
L 414.72 73.728 
L 414.72 71.04 
L 414.72 68.352 
L 414.72 65.664 
L 414.72 62.976 
L 414.72 60.288 
L 414.72 57.6 
L 414.72 54.912 
L 414.72 52.224 
L 414.72 49.536 
L 414.72 46.848 
L 414.72 44.16 
L 414.72 41.472 
L 411.112727 41.472 
L 407.505455 41.472 
L 403.898182 41.472 
L 400.290909 41.472 
L 396.683636 41.472 
L 393.076364 41.472 
L 389.469091 41.472 
L 385.861818 41.472 
L 382.254545 41.472 
L 378.647273 41.472 
L 375.04 41.472 
L 371.432727 41.472 
L 367.825455 41.472 
L 364.218182 41.472 
L 360.610909 41.472 
L 357.003636 41.472 
L 353.396364 41.472 
L 349.789091 41.472 
L 346.181818 41.472 
L 342.574545 41.472 
L 338.967273 41.472 
L 335.36 41.472 
L 331.752727 41.472 
L 328.145455 41.472 
L 324.538182 41.472 
L 320.930909 41.472 
L 317.323636 41.472 
L 313.716364 41.472 
L 310.109091 41.472 
L 306.501818 41.472 
L 302.894545 41.472 
L 299.287273 41.472 
L 295.68 41.472 
L 292.072727 41.472 
L 288.465455 41.472 
L 284.858182 41.472 
L 281.250909 41.472 
L 277.643636 41.472 
L 274.036364 41.472 
L 270.429091 41.472 
L 266.821818 41.472 
L 263.214545 41.472 
L 259.607273 41.472 
L 256 41.472 
L 252.392727 41.472 
L 248.785455 41.472 
L 245.178182 41.472 
L 241.570909 41.472 
L 237.963636 41.472 
L 234.356364 41.472 
L 230.749091 41.472 
L 227.141818 41.472 
L 223.534545 41.472 
L 219.927273 41.472 
L 216.32 41.472 
L 212.712727 41.472 
L 209.105455 41.472 
L 205.498182 41.472 
L 201.890909 41.472 
L 198.283636 41.472 
L 194.676364 41.472 
L 191.069091 41.472 
L 187.461818 41.472 
L 183.854545 41.472 
L 180.247273 41.472 
L 176.64 41.472 
L 173.032727 41.472 
L 169.425455 41.472 
L 165.818182 41.472 
L 162.210909 41.472 
L 158.603636 41.472 
L 154.996364 41.472 
L 151.389091 41.472 
L 147.781818 41.472 
L 144.174545 41.472 
L 140.567273 41.472 
L 136.96 41.472 
L 133.352727 41.472 
L 129.745455 41.472 
L 126.138182 41.472 
L 122.530909 41.472 
L 118.923636 41.472 
L 115.316364 41.472 
L 111.709091 41.472 
L 108.101818 41.472 
L 104.494545 41.472 
L 100.887273 41.472 
L 97.28 41.472 
L 93.672727 41.472 
L 90.065455 41.472 
L 86.458182 41.472 
L 82.850909 41.472 
L 79.243636 41.472 
L 75.636364 41.472 
L 72.029091 41.472 
L 68.421818 41.472 
L 64.814545 41.472 
L 61.207273 41.472 
L 57.6 41.472 
L 57.6 44.16 
L 57.6 46.848 
L 57.6 49.536 
L 57.6 52.224 
L 57.6 54.912 
L 57.6 57.6 
L 57.6 60.288 
L 57.6 62.976 
L 57.6 65.664 
L 57.6 68.352 
L 57.6 71.04 
L 57.6 73.728 
L 57.6 76.416 
L 57.6 79.104 
L 57.6 81.792 
L 57.6 84.48 
L 57.6 87.168 
L 57.6 89.856 
L 57.6 92.544 
L 57.6 95.232 
L 57.6 96.141766 
z
" clip-path="url(#p3f1d07c951)" style="fill: #d0e11c; fill-opacity: 0.75"/>
   </g>
   <g id="matplotlib.axis_1">
    <g id="xtick_1">
     <g id="line2d_1">
      <defs>
       <path id="mfd011cf7b2" d="M 0 0 
L 0 3.5 
" style="stroke: #000000; stroke-width: 0.8"/>
      </defs>
      <g>
       <use xlink:href="#mfd011cf7b2" x="71.237826" y="307.584" style="stroke: #000000; stroke-width: 0.8"/>
      </g>
     </g>
     <g id="text_1">
      <!-- −1.0 -->
      <g transform="translate(59.09642 322.182437) scale(0.1 -0.1)">
       <defs>
        <path id="DejaVuSans-2212" d="M 678 2272 
L 4684 2272 
L 4684 1741 
L 678 1741 
L 678 2272 
z
" transform="scale(0.015625)"/>
        <path id="DejaVuSans-31" d="M 794 531 
L 1825 531 
L 1825 4091 
L 703 3866 
L 703 4441 
L 1819 4666 
L 2450 4666 
L 2450 531 
L 3481 531 
L 3481 0 
L 794 0 
L 794 531 
z
" transform="scale(0.015625)"/>
        <path id="DejaVuSans-2e" d="M 684 794 
L 1344 794 
L 1344 0 
L 684 0 
L 684 794 
z
" transform="scale(0.015625)"/>
        <path id="DejaVuSans-30" d="M 2034 4250 
Q 1547 4250 1301 3770 
Q 1056 3291 1056 2328 
Q 1056 1369 1301 889 
Q 1547 409 2034 409 
Q 2525 409 2770 889 
Q 3016 1369 3016 2328 
Q 3016 3291 2770 3770 
Q 2525 4250 2034 4250 
z
M 2034 4750 
Q 2819 4750 3233 4129 
Q 3647 3509 3647 2328 
Q 3647 1150 3233 529 
Q 2819 -91 2034 -91 
Q 1250 -91 836 529 
Q 422 1150 422 2328 
Q 422 3509 836 4129 
Q 1250 4750 2034 4750 
z
" transform="scale(0.015625)"/>
       </defs>
       <use xlink:href="#DejaVuSans-2212"/>
       <use xlink:href="#DejaVuSans-31" x="83.789062"/>
       <use xlink:href="#DejaVuSans-2e" x="147.412109"/>
       <use xlink:href="#DejaVuSans-30" x="179.199219"/>
      </g>
     </g>
    </g>
    <g id="xtick_2">
     <g id="line2d_2">
      <g>
       <use xlink:href="#mfd011cf7b2" x="127.960074" y="307.584" style="stroke: #000000; stroke-width: 0.8"/>
      </g>
     </g>
     <g id="text_2">
      <!-- −0.5 -->
      <g transform="translate(115.818668 322.182437) scale(0.1 -0.1)">
       <defs>
        <path id="DejaVuSans-35" d="M 691 4666 
L 3169 4666 
L 3169 4134 
L 1269 4134 
L 1269 2991 
Q 1406 3038 1543 3061 
Q 1681 3084 1819 3084 
Q 2600 3084 3056 2656 
Q 3513 2228 3513 1497 
Q 3513 744 3044 326 
Q 2575 -91 1722 -91 
Q 1428 -91 1123 -41 
Q 819 9 494 109 
L 494 744 
Q 775 591 1075 516 
Q 1375 441 1709 441 
Q 2250 441 2565 725 
Q 2881 1009 2881 1497 
Q 2881 1984 2565 2268 
Q 2250 2553 1709 2553 
Q 1456 2553 1204 2497 
Q 953 2441 691 2322 
L 691 4666 
z
" transform="scale(0.015625)"/>
       </defs>
       <use xlink:href="#DejaVuSans-2212"/>
       <use xlink:href="#DejaVuSans-30" x="83.789062"/>
       <use xlink:href="#DejaVuSans-2e" x="147.412109"/>
       <use xlink:href="#DejaVuSans-35" x="179.199219"/>
      </g>
     </g>
    </g>
    <g id="xtick_3">
     <g id="line2d_3">
      <g>
       <use xlink:href="#mfd011cf7b2" x="184.682323" y="307.584" style="stroke: #000000; stroke-width: 0.8"/>
      </g>
     </g>
     <g id="text_3">
      <!-- 0.0 -->
      <g transform="translate(176.73076 322.182437) scale(0.1 -0.1)">
       <use xlink:href="#DejaVuSans-30"/>
       <use xlink:href="#DejaVuSans-2e" x="63.623047"/>
       <use xlink:href="#DejaVuSans-30" x="95.410156"/>
      </g>
     </g>
    </g>
    <g id="xtick_4">
     <g id="line2d_4">
      <g>
       <use xlink:href="#mfd011cf7b2" x="241.404571" y="307.584" style="stroke: #000000; stroke-width: 0.8"/>
      </g>
     </g>
     <g id="text_4">
      <!-- 0.5 -->
      <g transform="translate(233.453009 322.182437) scale(0.1 -0.1)">
       <use xlink:href="#DejaVuSans-30"/>
       <use xlink:href="#DejaVuSans-2e" x="63.623047"/>
       <use xlink:href="#DejaVuSans-35" x="95.410156"/>
      </g>
     </g>
    </g>
    <g id="xtick_5">
     <g id="line2d_5">
      <g>
       <use xlink:href="#mfd011cf7b2" x="298.12682" y="307.584" style="stroke: #000000; stroke-width: 0.8"/>
      </g>
     </g>
     <g id="text_5">
      <!-- 1.0 -->
      <g transform="translate(290.175257 322.182437) scale(0.1 -0.1)">
       <use xlink:href="#DejaVuSans-31"/>
       <use xlink:href="#DejaVuSans-2e" x="63.623047"/>
       <use xlink:href="#DejaVuSans-30" x="95.410156"/>
      </g>
     </g>
    </g>
    <g id="xtick_6">
     <g id="line2d_6">
      <g>
       <use xlink:href="#mfd011cf7b2" x="354.849068" y="307.584" style="stroke: #000000; stroke-width: 0.8"/>
      </g>
     </g>
     <g id="text_6">
      <!-- 1.5 -->
      <g transform="translate(346.897506 322.182437) scale(0.1 -0.1)">
       <use xlink:href="#DejaVuSans-31"/>
       <use xlink:href="#DejaVuSans-2e" x="63.623047"/>
       <use xlink:href="#DejaVuSans-35" x="95.410156"/>
      </g>
     </g>
    </g>
    <g id="xtick_7">
     <g id="line2d_7">
      <g>
       <use xlink:href="#mfd011cf7b2" x="411.571316" y="307.584" style="stroke: #000000; stroke-width: 0.8"/>
      </g>
     </g>
     <g id="text_7">
      <!-- 2.0 -->
      <g transform="translate(403.619754 322.182437) scale(0.1 -0.1)">
       <defs>
        <path id="DejaVuSans-32" d="M 1228 531 
L 3431 531 
L 3431 0 
L 469 0 
L 469 531 
Q 828 903 1448 1529 
Q 2069 2156 2228 2338 
Q 2531 2678 2651 2914 
Q 2772 3150 2772 3378 
Q 2772 3750 2511 3984 
Q 2250 4219 1831 4219 
Q 1534 4219 1204 4116 
Q 875 4013 500 3803 
L 500 4441 
Q 881 4594 1212 4672 
Q 1544 4750 1819 4750 
Q 2544 4750 2975 4387 
Q 3406 4025 3406 3419 
Q 3406 3131 3298 2873 
Q 3191 2616 2906 2266 
Q 2828 2175 2409 1742 
Q 1991 1309 1228 531 
z
" transform="scale(0.015625)"/>
       </defs>
       <use xlink:href="#DejaVuSans-32"/>
       <use xlink:href="#DejaVuSans-2e" x="63.623047"/>
       <use xlink:href="#DejaVuSans-30" x="95.410156"/>
      </g>
     </g>
    </g>
    <g id="text_8">
     <!-- PM2.5 -->
     <g transform="translate(220.879531 335.860562) scale(0.1 -0.1)">
      <defs>
       <path id="DejaVuSans-50" d="M 1259 4147 
L 1259 2394 
L 2053 2394 
Q 2494 2394 2734 2622 
Q 2975 2850 2975 3272 
Q 2975 3691 2734 3919 
Q 2494 4147 2053 4147 
L 1259 4147 
z
M 628 4666 
L 2053 4666 
Q 2838 4666 3239 4311 
Q 3641 3956 3641 3272 
Q 3641 2581 3239 2228 
Q 2838 1875 2053 1875 
L 1259 1875 
L 1259 0 
L 628 0 
L 628 4666 
z
" transform="scale(0.015625)"/>
       <path id="DejaVuSans-4d" d="M 628 4666 
L 1569 4666 
L 2759 1491 
L 3956 4666 
L 4897 4666 
L 4897 0 
L 4281 0 
L 4281 4097 
L 3078 897 
L 2444 897 
L 1241 4097 
L 1241 0 
L 628 0 
L 628 4666 
z
" transform="scale(0.015625)"/>
      </defs>
      <use xlink:href="#DejaVuSans-50"/>
      <use xlink:href="#DejaVuSans-4d" x="60.302734"/>
      <use xlink:href="#DejaVuSans-32" x="146.582031"/>
      <use xlink:href="#DejaVuSans-2e" x="210.205078"/>
      <use xlink:href="#DejaVuSans-35" x="241.992188"/>
     </g>
    </g>
   </g>
   <g id="matplotlib.axis_2">
    <g id="ytick_1">
     <g id="line2d_8">
      <defs>
       <path id="m8a83497b63" d="M 0 0 
L -3.5 0 
" style="stroke: #000000; stroke-width: 0.8"/>
      </defs>
      <g>
       <use xlink:href="#m8a83497b63" x="57.6" y="296.492553" style="stroke: #000000; stroke-width: 0.8"/>
      </g>
     </g>
     <g id="text_9">
      <!-- −1.5 -->
      <g transform="translate(26.317187 300.291772) scale(0.1 -0.1)">
       <use xlink:href="#DejaVuSans-2212"/>
       <use xlink:href="#DejaVuSans-31" x="83.789062"/>
       <use xlink:href="#DejaVuSans-2e" x="147.412109"/>
       <use xlink:href="#DejaVuSans-35" x="179.199219"/>
      </g>
     </g>
    </g>
    <g id="ytick_2">
     <g id="line2d_9">
      <g>
       <use xlink:href="#m8a83497b63" x="57.6" y="252.696417" style="stroke: #000000; stroke-width: 0.8"/>
      </g>
     </g>
     <g id="text_10">
      <!-- −1.0 -->
      <g transform="translate(26.317187 256.495635) scale(0.1 -0.1)">
       <use xlink:href="#DejaVuSans-2212"/>
       <use xlink:href="#DejaVuSans-31" x="83.789062"/>
       <use xlink:href="#DejaVuSans-2e" x="147.412109"/>
       <use xlink:href="#DejaVuSans-30" x="179.199219"/>
      </g>
     </g>
    </g>
    <g id="ytick_3">
     <g id="line2d_10">
      <g>
       <use xlink:href="#m8a83497b63" x="57.6" y="208.90028" style="stroke: #000000; stroke-width: 0.8"/>
      </g>
     </g>
     <g id="text_11">
      <!-- −0.5 -->
      <g transform="translate(26.317187 212.699499) scale(0.1 -0.1)">
       <use xlink:href="#DejaVuSans-2212"/>
       <use xlink:href="#DejaVuSans-30" x="83.789062"/>
       <use xlink:href="#DejaVuSans-2e" x="147.412109"/>
       <use xlink:href="#DejaVuSans-35" x="179.199219"/>
      </g>
     </g>
    </g>
    <g id="ytick_4">
     <g id="line2d_11">
      <g>
       <use xlink:href="#m8a83497b63" x="57.6" y="165.104143" style="stroke: #000000; stroke-width: 0.8"/>
      </g>
     </g>
     <g id="text_12">
      <!-- 0.0 -->
      <g transform="translate(34.696875 168.903362) scale(0.1 -0.1)">
       <use xlink:href="#DejaVuSans-30"/>
       <use xlink:href="#DejaVuSans-2e" x="63.623047"/>
       <use xlink:href="#DejaVuSans-30" x="95.410156"/>
      </g>
     </g>
    </g>
    <g id="ytick_5">
     <g id="line2d_12">
      <g>
       <use xlink:href="#m8a83497b63" x="57.6" y="121.308006" style="stroke: #000000; stroke-width: 0.8"/>
      </g>
     </g>
     <g id="text_13">
      <!-- 0.5 -->
      <g transform="translate(34.696875 125.107225) scale(0.1 -0.1)">
       <use xlink:href="#DejaVuSans-30"/>
       <use xlink:href="#DejaVuSans-2e" x="63.623047"/>
       <use xlink:href="#DejaVuSans-35" x="95.410156"/>
      </g>
     </g>
    </g>
    <g id="ytick_6">
     <g id="line2d_13">
      <g>
       <use xlink:href="#m8a83497b63" x="57.6" y="77.51187" style="stroke: #000000; stroke-width: 0.8"/>
      </g>
     </g>
     <g id="text_14">
      <!-- 1.0 -->
      <g transform="translate(34.696875 81.311089) scale(0.1 -0.1)">
       <use xlink:href="#DejaVuSans-31"/>
       <use xlink:href="#DejaVuSans-2e" x="63.623047"/>
       <use xlink:href="#DejaVuSans-30" x="95.410156"/>
      </g>
     </g>
    </g>
    <g id="text_15">
     <!-- Life Expectancy -->
     <g transform="translate(20.2375 214.149094) rotate(-90) scale(0.1 -0.1)">
      <defs>
       <path id="DejaVuSans-4c" d="M 628 4666 
L 1259 4666 
L 1259 531 
L 3531 531 
L 3531 0 
L 628 0 
L 628 4666 
z
" transform="scale(0.015625)"/>
       <path id="DejaVuSans-69" d="M 603 3500 
L 1178 3500 
L 1178 0 
L 603 0 
L 603 3500 
z
M 603 4863 
L 1178 4863 
L 1178 4134 
L 603 4134 
L 603 4863 
z
" transform="scale(0.015625)"/>
       <path id="DejaVuSans-66" d="M 2375 4863 
L 2375 4384 
L 1825 4384 
Q 1516 4384 1395 4259 
Q 1275 4134 1275 3809 
L 1275 3500 
L 2222 3500 
L 2222 3053 
L 1275 3053 
L 1275 0 
L 697 0 
L 697 3053 
L 147 3053 
L 147 3500 
L 697 3500 
L 697 3744 
Q 697 4328 969 4595 
Q 1241 4863 1831 4863 
L 2375 4863 
z
" transform="scale(0.015625)"/>
       <path id="DejaVuSans-65" d="M 3597 1894 
L 3597 1613 
L 953 1613 
Q 991 1019 1311 708 
Q 1631 397 2203 397 
Q 2534 397 2845 478 
Q 3156 559 3463 722 
L 3463 178 
Q 3153 47 2828 -22 
Q 2503 -91 2169 -91 
Q 1331 -91 842 396 
Q 353 884 353 1716 
Q 353 2575 817 3079 
Q 1281 3584 2069 3584 
Q 2775 3584 3186 3129 
Q 3597 2675 3597 1894 
z
M 3022 2063 
Q 3016 2534 2758 2815 
Q 2500 3097 2075 3097 
Q 1594 3097 1305 2825 
Q 1016 2553 972 2059 
L 3022 2063 
z
" transform="scale(0.015625)"/>
       <path id="DejaVuSans-20" transform="scale(0.015625)"/>
       <path id="DejaVuSans-45" d="M 628 4666 
L 3578 4666 
L 3578 4134 
L 1259 4134 
L 1259 2753 
L 3481 2753 
L 3481 2222 
L 1259 2222 
L 1259 531 
L 3634 531 
L 3634 0 
L 628 0 
L 628 4666 
z
" transform="scale(0.015625)"/>
       <path id="DejaVuSans-78" d="M 3513 3500 
L 2247 1797 
L 3578 0 
L 2900 0 
L 1881 1375 
L 863 0 
L 184 0 
L 1544 1831 
L 300 3500 
L 978 3500 
L 1906 2253 
L 2834 3500 
L 3513 3500 
z
" transform="scale(0.015625)"/>
       <path id="DejaVuSans-70" d="M 1159 525 
L 1159 -1331 
L 581 -1331 
L 581 3500 
L 1159 3500 
L 1159 2969 
Q 1341 3281 1617 3432 
Q 1894 3584 2278 3584 
Q 2916 3584 3314 3078 
Q 3713 2572 3713 1747 
Q 3713 922 3314 415 
Q 2916 -91 2278 -91 
Q 1894 -91 1617 61 
Q 1341 213 1159 525 
z
M 3116 1747 
Q 3116 2381 2855 2742 
Q 2594 3103 2138 3103 
Q 1681 3103 1420 2742 
Q 1159 2381 1159 1747 
Q 1159 1113 1420 752 
Q 1681 391 2138 391 
Q 2594 391 2855 752 
Q 3116 1113 3116 1747 
z
" transform="scale(0.015625)"/>
       <path id="DejaVuSans-63" d="M 3122 3366 
L 3122 2828 
Q 2878 2963 2633 3030 
Q 2388 3097 2138 3097 
Q 1578 3097 1268 2742 
Q 959 2388 959 1747 
Q 959 1106 1268 751 
Q 1578 397 2138 397 
Q 2388 397 2633 464 
Q 2878 531 3122 666 
L 3122 134 
Q 2881 22 2623 -34 
Q 2366 -91 2075 -91 
Q 1284 -91 818 406 
Q 353 903 353 1747 
Q 353 2603 823 3093 
Q 1294 3584 2113 3584 
Q 2378 3584 2631 3529 
Q 2884 3475 3122 3366 
z
" transform="scale(0.015625)"/>
       <path id="DejaVuSans-74" d="M 1172 4494 
L 1172 3500 
L 2356 3500 
L 2356 3053 
L 1172 3053 
L 1172 1153 
Q 1172 725 1289 603 
Q 1406 481 1766 481 
L 2356 481 
L 2356 0 
L 1766 0 
Q 1100 0 847 248 
Q 594 497 594 1153 
L 594 3053 
L 172 3053 
L 172 3500 
L 594 3500 
L 594 4494 
L 1172 4494 
z
" transform="scale(0.015625)"/>
       <path id="DejaVuSans-61" d="M 2194 1759 
Q 1497 1759 1228 1600 
Q 959 1441 959 1056 
Q 959 750 1161 570 
Q 1363 391 1709 391 
Q 2188 391 2477 730 
Q 2766 1069 2766 1631 
L 2766 1759 
L 2194 1759 
z
M 3341 1997 
L 3341 0 
L 2766 0 
L 2766 531 
Q 2569 213 2275 61 
Q 1981 -91 1556 -91 
Q 1019 -91 701 211 
Q 384 513 384 1019 
Q 384 1609 779 1909 
Q 1175 2209 1959 2209 
L 2766 2209 
L 2766 2266 
Q 2766 2663 2505 2880 
Q 2244 3097 1772 3097 
Q 1472 3097 1187 3025 
Q 903 2953 641 2809 
L 641 3341 
Q 956 3463 1253 3523 
Q 1550 3584 1831 3584 
Q 2591 3584 2966 3190 
Q 3341 2797 3341 1997 
z
" transform="scale(0.015625)"/>
       <path id="DejaVuSans-6e" d="M 3513 2113 
L 3513 0 
L 2938 0 
L 2938 2094 
Q 2938 2591 2744 2837 
Q 2550 3084 2163 3084 
Q 1697 3084 1428 2787 
Q 1159 2491 1159 1978 
L 1159 0 
L 581 0 
L 581 3500 
L 1159 3500 
L 1159 2956 
Q 1366 3272 1645 3428 
Q 1925 3584 2291 3584 
Q 2894 3584 3203 3211 
Q 3513 2838 3513 2113 
z
" transform="scale(0.015625)"/>
       <path id="DejaVuSans-79" d="M 2059 -325 
Q 1816 -950 1584 -1140 
Q 1353 -1331 966 -1331 
L 506 -1331 
L 506 -850 
L 844 -850 
Q 1081 -850 1212 -737 
Q 1344 -625 1503 -206 
L 1606 56 
L 191 3500 
L 800 3500 
L 1894 763 
L 2988 3500 
L 3597 3500 
L 2059 -325 
z
" transform="scale(0.015625)"/>
      </defs>
      <use xlink:href="#DejaVuSans-4c"/>
      <use xlink:href="#DejaVuSans-69" x="55.712891"/>
      <use xlink:href="#DejaVuSans-66" x="83.496094"/>
      <use xlink:href="#DejaVuSans-65" x="118.701172"/>
      <use xlink:href="#DejaVuSans-20" x="180.224609"/>
      <use xlink:href="#DejaVuSans-45" x="212.011719"/>
      <use xlink:href="#DejaVuSans-78" x="275.195312"/>
      <use xlink:href="#DejaVuSans-70" x="334.375"/>
      <use xlink:href="#DejaVuSans-65" x="397.851562"/>
      <use xlink:href="#DejaVuSans-63" x="459.375"/>
      <use xlink:href="#DejaVuSans-74" x="514.355469"/>
      <use xlink:href="#DejaVuSans-61" x="553.564453"/>
      <use xlink:href="#DejaVuSans-6e" x="614.84375"/>
      <use xlink:href="#DejaVuSans-63" x="678.222656"/>
      <use xlink:href="#DejaVuSans-79" x="733.203125"/>
     </g>
    </g>
   </g>
   <g id="PathCollection_8"/>
   <g id="PathCollection_9">
    <path d="M 57.6 217.918374 
L 61.207273 217.918374 
L 64.814545 217.918374 
L 68.421818 217.918374 
L 72.029091 217.918374 
L 75.636364 217.918374 
L 79.243636 217.918374 
L 82.850909 217.918374 
L 85.18079 218.88 
L 85.18079 221.568 
L 86.458182 222.712615 
L 90.065455 222.712615 
L 93.672727 222.712615 
L 97.28 222.712615 
L 100.887273 222.712615 
L 104.494545 222.712615 
L 108.101818 222.712615 
L 111.709091 222.712615 
L 115.316364 222.712615 
L 116.329178 221.568 
L 116.329178 218.88 
L 118.923636 217.529441 
L 122.530909 217.529441 
L 124.728388 216.192 
L 124.728388 213.504 
L 126.138182 212.315944 
L 129.745455 212.315944 
L 133.352727 212.315944 
L 136.96 212.315944 
L 140.567273 212.315944 
L 144.174545 212.315944 
L 147.781818 212.315944 
L 151.389091 212.315944 
L 154.996364 212.315944 
L 158.603636 212.315944 
L 162.210909 212.315944 
L 165.818182 212.315944 
L 169.425455 212.315944 
L 173.032727 212.315944 
L 176.64 212.315944 
L 180.247273 212.315944 
L 183.854545 212.315944 
L 187.461818 212.315944 
L 191.069091 212.315944 
L 194.676364 212.315944 
L 198.283636 212.315944 
L 201.890909 212.315944 
L 205.498182 212.315944 
L 209.105455 212.315944 
L 212.712727 212.315944 
L 216.32 212.315944 
L 219.927273 212.315944 
L 223.534545 212.315944 
L 227.141818 212.315944 
L 230.749091 212.315944 
L 234.356364 212.315944 
L 237.963636 212.315944 
L 241.570909 212.315944 
L 245.178182 212.315944 
L 248.785455 212.315944 
L 252.392727 212.315944 
L 256 212.315944 
L 259.607273 212.315944 
L 261.738055 210.816 
L 263.214545 210.510065 
L 266.821818 210.125271 
L 270.429091 210.125271 
L 274.036364 209.795767 
L 277.643636 209.795767 
L 281.250909 209.795767 
L 284.858182 209.795767 
L 288.465455 209.795767 
L 292.072727 209.795767 
L 295.68 209.795767 
L 299.287273 209.795767 
L 302.894545 209.795767 
L 306.501818 209.795767 
L 310.109091 209.795767 
L 313.716364 209.795767 
L 317.323636 209.795767 
L 320.930909 209.795767 
L 324.538182 209.795767 
L 328.145455 209.795767 
L 329.666818 209.795767 
" clip-path="url(#p3f1d07c951)" style="fill: none; stroke-dasharray: 1.85,0.8; stroke-dashoffset: 0; stroke: #000000; stroke-width: 0.5"/>
    <path d="M 362.696818 209.795767 
L 364.218182 209.795767 
L 367.825455 209.795767 
L 371.432727 209.795767 
L 375.04 209.795767 
L 378.647273 209.795767 
L 382.254545 209.795767 
L 385.861818 209.795767 
L 389.469091 209.795767 
L 393.076364 209.795767 
L 396.683636 209.795767 
L 400.290909 209.795767 
L 403.898182 209.795767 
L 407.505455 209.795767 
L 411.112727 209.795767 
L 414.72 209.795767 
" clip-path="url(#p3f1d07c951)" style="fill: none; stroke-dasharray: 1.85,0.8; stroke-dashoffset: 0; stroke: #000000; stroke-width: 0.5"/>
   </g>
   <g id="PathCollection_10">
    <path d="M 57.6 206.597915 
L 61.207273 206.597915 
L 64.814545 206.597915 
L 68.421818 206.597915 
L 72.029091 206.597915 
L 75.636364 206.597915 
L 79.243636 206.597915 
L 82.850909 206.597915 
L 86.458182 207.054511 
L 90.065455 207.054511 
L 93.672727 207.054511 
L 97.28 207.054511 
L 100.887273 207.054511 
L 102.454314 207.054511 
" clip-path="url(#p3f1d07c951)" style="fill: none; stroke-dasharray: 1.85,0.8; stroke-dashoffset: 0; stroke: #000000; stroke-width: 0.5"/>
    <path d="M 135.376338 205.805336 
L 136.96 205.805336 
L 140.567273 205.805336 
L 144.174545 205.805336 
L 147.781818 205.805336 
L 151.389091 205.805336 
L 154.996364 205.805336 
L 158.603636 205.805336 
L 162.210909 205.805336 
L 165.818182 205.805336 
L 169.425455 205.805336 
L 173.032727 205.805336 
L 176.64 205.805336 
L 180.247273 205.805336 
L 183.854545 205.805336 
L 187.461818 205.805336 
L 191.069091 205.805336 
L 194.676364 205.805336 
L 198.283636 205.805336 
L 201.890909 205.805336 
L 205.498182 205.805336 
L 208.331095 205.44 
L 209.105455 205.030664 
L 212.712727 205.030664 
L 216.32 205.030664 
L 219.927273 205.030664 
L 223.534545 205.030664 
L 227.141818 205.030664 
L 230.749091 205.030664 
L 234.356364 205.030664 
L 237.963636 205.030664 
L 241.570909 205.030664 
L 245.178182 205.030664 
L 248.785455 205.030664 
L 252.392727 205.030664 
L 256 205.030664 
L 259.607273 205.030664 
L 261.290872 202.752 
L 261.290872 200.064 
L 261.290872 197.376 
L 261.290872 194.688 
L 261.290872 192 
L 261.290872 189.312 
L 262.366569 186.624 
L 262.366569 183.936 
L 262.366569 181.248 
L 262.366569 178.56 
L 262.366569 175.872 
L 262.366569 173.184 
L 263.214545 170.595687 
L 263.348895 170.496 
L 263.348895 167.808 
L 263.348895 165.12 
L 263.348895 162.432 
L 263.348895 159.744 
L 266.821818 158.612005 
L 270.429091 158.612005 
L 274.036364 157.60516 
L 277.643636 157.60516 
L 281.250909 157.60516 
L 284.858182 157.60516 
L 288.465455 157.60516 
L 292.072727 157.60516 
L 295.68 157.60516 
L 299.287273 157.60516 
L 302.894545 157.60516 
L 306.501818 157.60516 
L 310.109091 157.60516 
L 313.716364 157.60516 
L 317.323636 157.60516 
L 320.930909 157.60516 
L 324.538182 157.60516 
L 328.145455 157.60516 
L 331.752727 157.60516 
L 335.36 157.60516 
L 338.967273 157.60516 
L 342.574545 157.60516 
L 346.181818 157.60516 
L 349.789091 157.60516 
L 353.396364 157.60516 
L 357.003636 157.60516 
L 360.610909 157.60516 
L 364.218182 157.60516 
L 367.825455 157.60516 
L 371.432727 157.60516 
L 375.04 157.60516 
L 378.647273 157.60516 
L 382.254545 157.60516 
L 385.861818 157.60516 
L 389.469091 157.60516 
L 393.076364 157.60516 
L 396.683636 157.60516 
L 400.290909 157.60516 
L 403.898182 157.60516 
L 407.505455 157.60516 
L 411.112727 157.60516 
L 414.72 157.60516 
" clip-path="url(#p3f1d07c951)" style="fill: none; stroke-dasharray: 1.85,0.8; stroke-dashoffset: 0; stroke: #000000; stroke-width: 0.5"/>
   </g>
   <g id="PathCollection_11">
    <path d="M 57.6 121.89671 
L 61.207273 121.89671 
L 64.814545 121.89671 
L 68.421818 121.89671 
L 72.029091 121.89671 
L 75.636364 121.89671 
L 79.243636 121.89671 
L 82.850909 121.89671 
L 86.458182 122.048594 
L 90.065455 122.048594 
L 93.672727 122.048594 
L 97.28 122.048594 
L 100.887273 122.048594 
L 102.413719 122.048594 
" clip-path="url(#p3f1d07c951)" style="fill: none; stroke-dasharray: 1.85,0.8; stroke-dashoffset: 0; stroke: #000000; stroke-width: 0.5"/>
    <path d="M 135.43169 121.633063 
L 136.96 121.633063 
L 140.567273 121.633063 
L 144.174545 121.633063 
L 147.781818 121.633063 
L 151.389091 121.633063 
L 154.996364 121.633063 
L 158.603636 121.633063 
L 162.210909 121.633063 
L 165.818182 121.633063 
L 169.425455 121.633063 
L 173.032727 121.633063 
L 176.64 121.633063 
L 180.247273 121.633063 
L 183.854545 121.633063 
L 187.461818 121.633063 
L 191.069091 121.633063 
L 194.676364 121.633063 
L 198.283636 121.633063 
L 201.890909 121.633063 
L 205.498182 121.633063 
L 209.105455 121.478317 
L 212.712727 121.478317 
L 216.32 121.478317 
L 219.927273 121.478317 
L 223.534545 121.478317 
L 227.141818 121.478317 
L 230.749091 121.478317 
L 234.356364 121.478317 
L 237.963636 121.478317 
L 241.570909 121.478317 
L 245.178182 121.478317 
L 248.785455 121.478317 
L 252.392727 121.478317 
L 256 121.478317 
L 259.607273 121.478317 
L 263.214545 121.08211 
L 266.821818 120.985795 
L 270.429091 120.985795 
L 274.036364 120.903319 
L 277.643636 120.903319 
L 281.250909 120.903319 
L 284.858182 120.903319 
L 288.465455 120.903319 
L 292.072727 120.903319 
L 295.68 120.903319 
L 299.287273 120.903319 
L 302.894545 120.903319 
L 306.501818 120.903319 
L 310.109091 120.903319 
L 313.716364 120.903319 
L 317.323636 120.903319 
L 320.930909 120.903319 
L 324.538182 120.903319 
L 328.145455 120.903319 
L 331.752727 120.903319 
L 335.36 120.903319 
L 338.967273 120.903319 
L 342.574545 120.903319 
L 346.181818 120.903319 
L 349.789091 120.903319 
L 353.396364 120.903319 
L 357.003636 120.903319 
L 360.610909 120.903319 
L 364.218182 120.903319 
L 367.825455 120.903319 
L 371.432727 120.903319 
L 375.04 120.903319 
L 378.647273 120.903319 
L 382.254545 120.903319 
L 385.861818 120.903319 
L 389.469091 120.903319 
L 393.076364 120.903319 
L 396.683636 120.903319 
L 400.290909 120.903319 
L 403.898182 120.903319 
L 407.505455 120.903319 
L 411.112727 120.903319 
L 414.72 120.903319 
" clip-path="url(#p3f1d07c951)" style="fill: none; stroke-dasharray: 1.85,0.8; stroke-dashoffset: 0; stroke: #000000; stroke-width: 0.5"/>
   </g>
   <g id="PathCollection_12">
    <path d="M 57.6 120.21472 
L 61.207273 120.21472 
L 64.814545 120.21472 
L 68.421818 120.21472 
L 72.029091 120.21472 
L 75.636364 120.21472 
L 79.243636 120.21472 
L 82.850909 120.21472 
L 86.458182 120.366604 
L 90.065455 120.366604 
L 93.672727 120.366604 
L 97.28 120.366604 
L 100.887273 120.366604 
L 104.494545 120.366604 
L 108.101818 120.366604 
L 111.709091 120.366604 
L 115.316364 120.366604 
L 118.923636 120.175043 
L 122.530909 120.175043 
L 126.138182 119.951073 
L 129.745455 119.951073 
L 133.352727 119.951073 
L 136.96 119.951073 
L 140.567273 119.951073 
L 144.174545 119.951073 
L 147.781818 119.951073 
L 151.389091 119.951073 
L 154.996364 119.951073 
L 158.603636 119.951073 
L 162.210909 119.951073 
L 165.818182 119.951073 
L 169.425455 119.951073 
L 173.032727 119.951073 
L 176.64 119.951073 
L 180.247273 119.951073 
L 183.854545 119.951073 
L 187.461818 119.951073 
L 191.069091 119.951073 
L 194.676364 119.951073 
L 198.283636 119.951073 
L 201.890909 119.951073 
L 205.498182 119.951073 
L 209.105455 119.796327 
L 212.712727 119.796327 
L 216.32 119.796327 
L 219.927273 119.796327 
L 223.534545 119.796327 
L 227.141818 119.796327 
L 230.749091 119.796327 
L 234.356364 119.796327 
L 237.963636 119.796327 
L 241.570909 119.796327 
L 245.178182 119.796327 
L 248.785455 119.796327 
L 252.392727 119.796327 
L 256 119.796327 
L 259.607273 119.796327 
L 262.997128 119.424 
L 262.997128 116.736 
L 262.997128 114.048 
L 263.214545 113.894651 
L 266.821818 113.276155 
L 270.429091 113.276155 
L 274.036364 112.746528 
L 277.643636 112.746528 
L 281.250909 112.746528 
L 284.858182 112.746528 
L 288.465455 112.746528 
L 292.072727 112.746528 
L 295.68 112.746528 
L 299.287273 112.746528 
L 302.894545 112.746528 
L 306.501818 112.746528 
L 310.109091 112.746528 
L 313.716364 112.746528 
L 317.323636 112.746528 
L 320.930909 112.746528 
L 324.538182 112.746528 
L 328.145455 112.746528 
L 331.752727 112.746528 
L 335.36 112.746528 
L 338.967273 112.746528 
L 342.574545 112.746528 
L 344.095909 112.746528 
" clip-path="url(#p3f1d07c951)" style="fill: none; stroke-dasharray: 1.85,0.8; stroke-dashoffset: 0; stroke: #000000; stroke-width: 0.5"/>
    <path d="M 377.125909 112.746528 
L 378.647273 112.746528 
L 382.254545 112.746528 
L 385.861818 112.746528 
L 389.469091 112.746528 
L 393.076364 112.746528 
L 396.683636 112.746528 
L 400.290909 112.746528 
L 403.898182 112.746528 
L 407.505455 112.746528 
L 411.112727 112.746528 
L 414.72 112.746528 
" clip-path="url(#p3f1d07c951)" style="fill: none; stroke-dasharray: 1.85,0.8; stroke-dashoffset: 0; stroke: #000000; stroke-width: 0.5"/>
   </g>
   <g id="PathCollection_13">
    <path d="M 57.6 99.508546 
L 61.207273 99.508546 
L 64.814545 99.508546 
L 68.421818 99.508546 
L 72.029091 99.508546 
L 75.636364 99.508546 
L 79.243636 99.508546 
L 82.850909 99.508546 
L 85.717504 100.608 
L 85.717504 103.296 
L 85.717504 105.984 
L 86.458182 106.22216 
L 90.065455 106.22216 
L 93.672727 106.22216 
L 97.28 106.22216 
L 100.887273 106.22216 
L 104.494545 106.22216 
L 108.101818 106.22216 
L 111.709091 106.22216 
L 115.316364 106.22216 
L 115.90363 105.984 
L 115.90363 103.296 
L 115.90363 100.608 
L 118.923636 99.147126 
L 122.530909 99.147126 
L 124.700615 97.92 
L 126.138182 97.814721 
L 129.745455 97.814721 
L 133.352727 97.814721 
L 136.96 97.814721 
L 140.567273 97.814721 
L 144.174545 97.814721 
L 147.781818 97.814721 
L 151.389091 97.814721 
L 154.996364 97.814721 
L 158.603636 97.814721 
L 162.210909 97.814721 
L 165.818182 97.814721 
L 169.425455 97.814721 
L 173.032727 97.814721 
L 176.64 97.814721 
L 180.247273 97.814721 
L 183.854545 97.814721 
L 187.461818 97.814721 
L 191.069091 97.814721 
L 194.676364 97.814721 
L 198.283636 97.814721 
L 201.890909 97.814721 
L 203.416888 97.814721 
" clip-path="url(#p3f1d07c951)" style="fill: none; stroke-dasharray: 1.85,0.8; stroke-dashoffset: 0; stroke: #000000; stroke-width: 0.5"/>
    <path d="M 236.442273 97.632196 
L 237.963636 97.632196 
L 241.570909 97.632196 
L 245.178182 97.632196 
L 248.785455 97.632196 
L 252.392727 97.632196 
L 256 97.632196 
L 259.607273 97.632196 
L 263.214545 97.164864 
L 266.821818 97.051259 
L 270.429091 97.051259 
L 274.036364 96.953978 
L 277.643636 96.953978 
L 281.250909 96.953978 
L 284.858182 96.953978 
L 288.465455 96.953978 
L 292.072727 96.953978 
L 295.68 96.953978 
L 299.287273 96.953978 
L 302.894545 96.953978 
L 306.501818 96.953978 
L 310.109091 96.953978 
L 313.716364 96.953978 
L 317.323636 96.953978 
L 320.930909 96.953978 
L 324.538182 96.953978 
L 328.145455 96.953978 
L 331.752727 96.953978 
L 335.36 96.953978 
L 338.967273 96.953978 
L 342.574545 96.953978 
L 346.181818 96.953978 
L 349.789091 96.953978 
L 353.396364 96.953978 
L 357.003636 96.953978 
L 360.610909 96.953978 
L 364.218182 96.953978 
L 367.825455 96.953978 
L 371.432727 96.953978 
L 375.04 96.953978 
L 378.647273 96.953978 
L 382.254545 96.953978 
L 385.861818 96.953978 
L 389.469091 96.953978 
L 393.076364 96.953978 
L 396.683636 96.953978 
L 400.290909 96.953978 
L 403.898182 96.953978 
L 407.505455 96.953978 
L 411.112727 96.953978 
L 414.72 96.953978 
" clip-path="url(#p3f1d07c951)" style="fill: none; stroke-dasharray: 1.85,0.8; stroke-dashoffset: 0; stroke: #000000; stroke-width: 0.5"/>
   </g>
   <g id="PathCollection_14">
    <path d="M 57.6 96.141766 
L 61.207273 96.141766 
L 64.814545 96.141766 
L 68.421818 96.141766 
L 72.029091 96.141766 
L 75.636364 96.141766 
L 79.243636 96.141766 
L 82.850909 96.141766 
L 86.458182 96.320915 
L 90.065455 96.320915 
L 93.672727 96.320915 
L 97.28 96.320915 
L 100.887273 96.320915 
L 104.494545 96.320915 
L 108.101818 96.320915 
L 111.709091 96.320915 
L 115.316364 96.320915 
L 118.923636 96.094967 
L 122.530909 96.094967 
L 126.138182 95.830791 
L 129.745455 95.830791 
L 133.352727 95.830791 
L 136.96 95.830791 
L 140.567273 95.830791 
L 144.174545 95.830791 
L 147.781818 95.830791 
L 151.389091 95.830791 
L 154.996364 95.830791 
L 158.603636 95.830791 
L 162.210909 95.830791 
L 165.818182 95.830791 
L 169.425455 95.830791 
L 173.032727 95.830791 
L 176.64 95.830791 
L 180.247273 95.830791 
L 183.854545 95.830791 
L 187.461818 95.830791 
L 191.069091 95.830791 
L 194.676364 95.830791 
L 198.283636 95.830791 
L 201.890909 95.830791 
L 205.498182 95.830791 
L 209.105455 95.648266 
L 212.712727 95.648266 
L 216.32 95.648266 
L 219.927273 95.648266 
L 223.534545 95.648266 
L 227.141818 95.648266 
L 230.749091 95.648266 
L 234.356364 95.648266 
L 237.963636 95.648266 
L 241.570909 95.648266 
L 245.178182 95.648266 
L 248.785455 95.648266 
L 252.392727 95.648266 
L 256 95.648266 
L 259.607273 95.648266 
L 262.820374 95.232 
L 263.214545 94.711591 
L 266.821818 93.553855 
L 270.429091 93.553855 
L 274.036364 92.562468 
L 277.643636 92.562468 
L 281.250909 92.562468 
L 284.858182 92.562468 
L 288.465455 92.562468 
L 292.072727 92.562468 
L 295.68 92.562468 
L 299.287273 92.562468 
L 302.894545 92.562468 
L 306.501818 92.562468 
L 310.109091 92.562468 
L 313.716364 92.562468 
L 316.992727 92.562468 
" clip-path="url(#p3f1d07c951)" style="fill: none; stroke: #000000; stroke-width: 0.5"/>
    <path d="M 346.512727 92.562468 
L 349.789091 92.562468 
L 353.396364 92.562468 
L 357.003636 92.562468 
L 360.610909 92.562468 
L 364.218182 92.562468 
L 367.825455 92.562468 
L 371.432727 92.562468 
L 375.04 92.562468 
L 378.647273 92.562468 
L 382.254545 92.562468 
L 385.861818 92.562468 
L 389.469091 92.562468 
L 393.076364 92.562468 
L 396.683636 92.562468 
L 400.290909 92.562468 
L 403.898182 92.562468 
L 407.505455 92.562468 
L 411.112727 92.562468 
L 414.72 92.562468 
" clip-path="url(#p3f1d07c951)" style="fill: none; stroke: #000000; stroke-width: 0.5"/>
   </g>
   <g id="PathCollection_15"/>
   <g id="LineCollection_1">
    <path d="M 68.153699 307.584 
L 68.153699 294.2784 
" clip-path="url(#p3f1d07c951)" style="fill: none; stroke: #000000; stroke-width: 1.5"/>
    <path d="M 84.835458 307.584 
L 84.835458 294.2784 
" clip-path="url(#p3f1d07c951)" style="fill: none; stroke: #000000; stroke-width: 1.5"/>
    <path d="M 104.170605 307.584 
L 104.170605 294.2784 
" clip-path="url(#p3f1d07c951)" style="fill: none; stroke: #000000; stroke-width: 1.5"/>
    <path d="M 123.093447 307.584 
L 123.093447 294.2784 
" clip-path="url(#p3f1d07c951)" style="fill: none; stroke: #000000; stroke-width: 1.5"/>
    <path d="M 154.229185 307.584 
L 154.229185 294.2784 
" clip-path="url(#p3f1d07c951)" style="fill: none; stroke: #000000; stroke-width: 1.5"/>
    <path d="M 185.315047 307.584 
L 185.315047 294.2784 
" clip-path="url(#p3f1d07c951)" style="fill: none; stroke: #000000; stroke-width: 1.5"/>
    <path d="M 218.366012 307.584 
L 218.366012 294.2784 
" clip-path="url(#p3f1d07c951)" style="fill: none; stroke: #000000; stroke-width: 1.5"/>
    <path d="M 294.130528 307.584 
L 294.130528 294.2784 
" clip-path="url(#p3f1d07c951)" style="fill: none; stroke: #000000; stroke-width: 1.5"/>
    <path d="M 342.443458 307.584 
L 342.443458 294.2784 
" clip-path="url(#p3f1d07c951)" style="fill: none; stroke: #000000; stroke-width: 1.5"/>
   </g>
   <g id="LineCollection_2">
    <path clip-path="url(#p3f1d07c951)" style="fill: none; stroke: #000000; stroke-width: 1.5"/>
    <path clip-path="url(#p3f1d07c951)" style="fill: none; stroke: #000000; stroke-width: 1.5"/>
    <path clip-path="url(#p3f1d07c951)" style="fill: none; stroke: #000000; stroke-width: 1.5"/>
    <path d="M 184.682323 346.446931 
L 190.354548 346.446931 
" clip-path="url(#p3f1d07c951)" style="fill: none; stroke: #000000; stroke-width: 1.5"/>
    <path d="M 184.682323 284.643923 
L 190.354548 284.643923 
" clip-path="url(#p3f1d07c951)" style="fill: none; stroke: #000000; stroke-width: 1.5"/>
    <path d="M 184.682323 201.620674 
L 190.354548 201.620674 
" clip-path="url(#p3f1d07c951)" style="fill: none; stroke: #000000; stroke-width: 1.5"/>
    <path d="M 184.682323 142.581583 
L 190.354548 142.581583 
" clip-path="url(#p3f1d07c951)" style="fill: none; stroke: #000000; stroke-width: 1.5"/>
    <path d="M 184.682323 60.373916 
L 190.354548 60.373916 
" clip-path="url(#p3f1d07c951)" style="fill: none; stroke: #000000; stroke-width: 1.5"/>
    <path clip-path="url(#p3f1d07c951)" style="fill: none; stroke: #000000; stroke-width: 1.5"/>
   </g>
   <g id="patch_3">
    <path d="M 57.6 307.584 
L 57.6 41.472 
" style="fill: none; stroke: #000000; stroke-width: 0.8; stroke-linejoin: miter; stroke-linecap: square"/>
   </g>
   <g id="patch_4">
    <path d="M 414.72 307.584 
L 414.72 41.472 
" style="fill: none; stroke: #000000; stroke-width: 0.8; stroke-linejoin: miter; stroke-linecap: square"/>
   </g>
   <g id="patch_5">
    <path d="M 57.6 307.584 
L 414.72 307.584 
" style="fill: none; stroke: #000000; stroke-width: 0.8; stroke-linejoin: miter; stroke-linecap: square"/>
   </g>
   <g id="patch_6">
    <path d="M 57.6 41.472 
L 414.72 41.472 
" style="fill: none; stroke: #000000; stroke-width: 0.8; stroke-linejoin: miter; stroke-linecap: square"/>
   </g>
   <g id="text_16">
    <!-- 2D-partial dependency plot between PM and LE -->
    <g transform="translate(93.18 35.472) scale(0.12 -0.12)">
     <defs>
      <path id="DejaVuSans-44" d="M 1259 4147 
L 1259 519 
L 2022 519 
Q 2988 519 3436 956 
Q 3884 1394 3884 2338 
Q 3884 3275 3436 3711 
Q 2988 4147 2022 4147 
L 1259 4147 
z
M 628 4666 
L 1925 4666 
Q 3281 4666 3915 4102 
Q 4550 3538 4550 2338 
Q 4550 1131 3912 565 
Q 3275 0 1925 0 
L 628 0 
L 628 4666 
z
" transform="scale(0.015625)"/>
      <path id="DejaVuSans-2d" d="M 313 2009 
L 1997 2009 
L 1997 1497 
L 313 1497 
L 313 2009 
z
" transform="scale(0.015625)"/>
      <path id="DejaVuSans-72" d="M 2631 2963 
Q 2534 3019 2420 3045 
Q 2306 3072 2169 3072 
Q 1681 3072 1420 2755 
Q 1159 2438 1159 1844 
L 1159 0 
L 581 0 
L 581 3500 
L 1159 3500 
L 1159 2956 
Q 1341 3275 1631 3429 
Q 1922 3584 2338 3584 
Q 2397 3584 2469 3576 
Q 2541 3569 2628 3553 
L 2631 2963 
z
" transform="scale(0.015625)"/>
      <path id="DejaVuSans-6c" d="M 603 4863 
L 1178 4863 
L 1178 0 
L 603 0 
L 603 4863 
z
" transform="scale(0.015625)"/>
      <path id="DejaVuSans-64" d="M 2906 2969 
L 2906 4863 
L 3481 4863 
L 3481 0 
L 2906 0 
L 2906 525 
Q 2725 213 2448 61 
Q 2172 -91 1784 -91 
Q 1150 -91 751 415 
Q 353 922 353 1747 
Q 353 2572 751 3078 
Q 1150 3584 1784 3584 
Q 2172 3584 2448 3432 
Q 2725 3281 2906 2969 
z
M 947 1747 
Q 947 1113 1208 752 
Q 1469 391 1925 391 
Q 2381 391 2643 752 
Q 2906 1113 2906 1747 
Q 2906 2381 2643 2742 
Q 2381 3103 1925 3103 
Q 1469 3103 1208 2742 
Q 947 2381 947 1747 
z
" transform="scale(0.015625)"/>
      <path id="DejaVuSans-6f" d="M 1959 3097 
Q 1497 3097 1228 2736 
Q 959 2375 959 1747 
Q 959 1119 1226 758 
Q 1494 397 1959 397 
Q 2419 397 2687 759 
Q 2956 1122 2956 1747 
Q 2956 2369 2687 2733 
Q 2419 3097 1959 3097 
z
M 1959 3584 
Q 2709 3584 3137 3096 
Q 3566 2609 3566 1747 
Q 3566 888 3137 398 
Q 2709 -91 1959 -91 
Q 1206 -91 779 398 
Q 353 888 353 1747 
Q 353 2609 779 3096 
Q 1206 3584 1959 3584 
z
" transform="scale(0.015625)"/>
      <path id="DejaVuSans-62" d="M 3116 1747 
Q 3116 2381 2855 2742 
Q 2594 3103 2138 3103 
Q 1681 3103 1420 2742 
Q 1159 2381 1159 1747 
Q 1159 1113 1420 752 
Q 1681 391 2138 391 
Q 2594 391 2855 752 
Q 3116 1113 3116 1747 
z
M 1159 2969 
Q 1341 3281 1617 3432 
Q 1894 3584 2278 3584 
Q 2916 3584 3314 3078 
Q 3713 2572 3713 1747 
Q 3713 922 3314 415 
Q 2916 -91 2278 -91 
Q 1894 -91 1617 61 
Q 1341 213 1159 525 
L 1159 0 
L 581 0 
L 581 4863 
L 1159 4863 
L 1159 2969 
z
" transform="scale(0.015625)"/>
      <path id="DejaVuSans-77" d="M 269 3500 
L 844 3500 
L 1563 769 
L 2278 3500 
L 2956 3500 
L 3675 769 
L 4391 3500 
L 4966 3500 
L 4050 0 
L 3372 0 
L 2619 2869 
L 1863 0 
L 1184 0 
L 269 3500 
z
" transform="scale(0.015625)"/>
     </defs>
     <use xlink:href="#DejaVuSans-32"/>
     <use xlink:href="#DejaVuSans-44" x="63.623047"/>
     <use xlink:href="#DejaVuSans-2d" x="140.625"/>
     <use xlink:href="#DejaVuSans-70" x="176.708984"/>
     <use xlink:href="#DejaVuSans-61" x="240.185547"/>
     <use xlink:href="#DejaVuSans-72" x="301.464844"/>
     <use xlink:href="#DejaVuSans-74" x="342.578125"/>
     <use xlink:href="#DejaVuSans-69" x="381.787109"/>
     <use xlink:href="#DejaVuSans-61" x="409.570312"/>
     <use xlink:href="#DejaVuSans-6c" x="470.849609"/>
     <use xlink:href="#DejaVuSans-20" x="498.632812"/>
     <use xlink:href="#DejaVuSans-64" x="530.419922"/>
     <use xlink:href="#DejaVuSans-65" x="593.896484"/>
     <use xlink:href="#DejaVuSans-70" x="655.419922"/>
     <use xlink:href="#DejaVuSans-65" x="718.896484"/>
     <use xlink:href="#DejaVuSans-6e" x="780.419922"/>
     <use xlink:href="#DejaVuSans-64" x="843.798828"/>
     <use xlink:href="#DejaVuSans-65" x="907.275391"/>
     <use xlink:href="#DejaVuSans-6e" x="968.798828"/>
     <use xlink:href="#DejaVuSans-63" x="1032.177734"/>
     <use xlink:href="#DejaVuSans-79" x="1087.158203"/>
     <use xlink:href="#DejaVuSans-20" x="1146.337891"/>
     <use xlink:href="#DejaVuSans-70" x="1178.125"/>
     <use xlink:href="#DejaVuSans-6c" x="1241.601562"/>
     <use xlink:href="#DejaVuSans-6f" x="1269.384766"/>
     <use xlink:href="#DejaVuSans-74" x="1330.566406"/>
     <use xlink:href="#DejaVuSans-20" x="1369.775391"/>
     <use xlink:href="#DejaVuSans-62" x="1401.5625"/>
     <use xlink:href="#DejaVuSans-65" x="1465.039062"/>
     <use xlink:href="#DejaVuSans-74" x="1526.5625"/>
     <use xlink:href="#DejaVuSans-77" x="1565.771484"/>
     <use xlink:href="#DejaVuSans-65" x="1647.558594"/>
     <use xlink:href="#DejaVuSans-65" x="1709.082031"/>
     <use xlink:href="#DejaVuSans-6e" x="1770.605469"/>
     <use xlink:href="#DejaVuSans-20" x="1833.984375"/>
     <use xlink:href="#DejaVuSans-50" x="1865.771484"/>
     <use xlink:href="#DejaVuSans-4d" x="1926.074219"/>
     <use xlink:href="#DejaVuSans-20" x="2012.353516"/>
     <use xlink:href="#DejaVuSans-61" x="2044.140625"/>
     <use xlink:href="#DejaVuSans-6e" x="2105.419922"/>
     <use xlink:href="#DejaVuSans-64" x="2168.798828"/>
     <use xlink:href="#DejaVuSans-20" x="2232.275391"/>
     <use xlink:href="#DejaVuSans-4c" x="2264.0625"/>
     <use xlink:href="#DejaVuSans-45" x="2319.775391"/>
    </g>
   </g>
   <g id="text_17">
    <g clip-path="url(#p3f1d07c951)">
     <!-- -0.08 -->
     <g transform="translate(333.245099 212.555142) scale(0.1 -0.1)">
      <defs>
       <path id="DejaVuSans-38" d="M 2034 2216 
Q 1584 2216 1326 1975 
Q 1069 1734 1069 1313 
Q 1069 891 1326 650 
Q 1584 409 2034 409 
Q 2484 409 2743 651 
Q 3003 894 3003 1313 
Q 3003 1734 2745 1975 
Q 2488 2216 2034 2216 
z
M 1403 2484 
Q 997 2584 770 2862 
Q 544 3141 544 3541 
Q 544 4100 942 4425 
Q 1341 4750 2034 4750 
Q 2731 4750 3128 4425 
Q 3525 4100 3525 3541 
Q 3525 3141 3298 2862 
Q 3072 2584 2669 2484 
Q 3125 2378 3379 2068 
Q 3634 1759 3634 1313 
Q 3634 634 3220 271 
Q 2806 -91 2034 -91 
Q 1263 -91 848 271 
Q 434 634 434 1313 
Q 434 1759 690 2068 
Q 947 2378 1403 2484 
z
M 1172 3481 
Q 1172 3119 1398 2916 
Q 1625 2713 2034 2713 
Q 2441 2713 2670 2916 
Q 2900 3119 2900 3481 
Q 2900 3844 2670 4047 
Q 2441 4250 2034 4250 
Q 1625 4250 1398 4047 
Q 1172 3844 1172 3481 
z
" transform="scale(0.015625)"/>
      </defs>
      <use xlink:href="#DejaVuSans-2d"/>
      <use xlink:href="#DejaVuSans-30" x="36.083984"/>
      <use xlink:href="#DejaVuSans-2e" x="99.707031"/>
      <use xlink:href="#DejaVuSans-30" x="131.494141"/>
      <use xlink:href="#DejaVuSans-38" x="195.117188"/>
     </g>
    </g>
   </g>
   <g id="text_18">
    <g clip-path="url(#p3f1d07c951)">
     <!-- -0.06 -->
     <g transform="translate(106.135996 209.86229) rotate(-2.780351) scale(0.1 -0.1)">
      <defs>
       <path id="DejaVuSans-36" d="M 2113 2584 
Q 1688 2584 1439 2293 
Q 1191 2003 1191 1497 
Q 1191 994 1439 701 
Q 1688 409 2113 409 
Q 2538 409 2786 701 
Q 3034 994 3034 1497 
Q 3034 2003 2786 2293 
Q 2538 2584 2113 2584 
z
M 3366 4563 
L 3366 3988 
Q 3128 4100 2886 4159 
Q 2644 4219 2406 4219 
Q 1781 4219 1451 3797 
Q 1122 3375 1075 2522 
Q 1259 2794 1537 2939 
Q 1816 3084 2150 3084 
Q 2853 3084 3261 2657 
Q 3669 2231 3669 1497 
Q 3669 778 3244 343 
Q 2819 -91 2113 -91 
Q 1303 -91 875 529 
Q 447 1150 447 2328 
Q 447 3434 972 4092 
Q 1497 4750 2381 4750 
Q 2619 4750 2861 4703 
Q 3103 4656 3366 4563 
z
" transform="scale(0.015625)"/>
      </defs>
      <use xlink:href="#DejaVuSans-2d"/>
      <use xlink:href="#DejaVuSans-30" x="36.083984"/>
      <use xlink:href="#DejaVuSans-2e" x="99.707031"/>
      <use xlink:href="#DejaVuSans-30" x="131.494141"/>
      <use xlink:href="#DejaVuSans-36" x="195.117188"/>
     </g>
    </g>
   </g>
   <g id="text_19">
    <g clip-path="url(#p3f1d07c951)">
     <!-- -0.04 -->
     <g transform="translate(106.032998 124.824235) rotate(-0.922075) scale(0.1 -0.1)">
      <defs>
       <path id="DejaVuSans-34" d="M 2419 4116 
L 825 1625 
L 2419 1625 
L 2419 4116 
z
M 2253 4666 
L 3047 4666 
L 3047 1625 
L 3713 1625 
L 3713 1100 
L 3047 1100 
L 3047 0 
L 2419 0 
L 2419 1100 
L 313 1100 
L 313 1709 
L 2253 4666 
z
" transform="scale(0.015625)"/>
      </defs>
      <use xlink:href="#DejaVuSans-2d"/>
      <use xlink:href="#DejaVuSans-30" x="36.083984"/>
      <use xlink:href="#DejaVuSans-2e" x="99.707031"/>
      <use xlink:href="#DejaVuSans-30" x="131.494141"/>
      <use xlink:href="#DejaVuSans-34" x="195.117188"/>
     </g>
    </g>
   </g>
   <g id="text_20">
    <g clip-path="url(#p3f1d07c951)">
     <!-- -0.03 -->
     <g transform="translate(347.67419 115.505903) scale(0.1 -0.1)">
      <defs>
       <path id="DejaVuSans-33" d="M 2597 2516 
Q 3050 2419 3304 2112 
Q 3559 1806 3559 1356 
Q 3559 666 3084 287 
Q 2609 -91 1734 -91 
Q 1441 -91 1130 -33 
Q 819 25 488 141 
L 488 750 
Q 750 597 1062 519 
Q 1375 441 1716 441 
Q 2309 441 2620 675 
Q 2931 909 2931 1356 
Q 2931 1769 2642 2001 
Q 2353 2234 1838 2234 
L 1294 2234 
L 1294 2753 
L 1863 2753 
Q 2328 2753 2575 2939 
Q 2822 3125 2822 3475 
Q 2822 3834 2567 4026 
Q 2313 4219 1838 4219 
Q 1578 4219 1281 4162 
Q 984 4106 628 3988 
L 628 4550 
Q 988 4650 1302 4700 
Q 1616 4750 1894 4750 
Q 2613 4750 3031 4423 
Q 3450 4097 3450 3541 
Q 3450 3153 3228 2886 
Q 3006 2619 2597 2516 
z
" transform="scale(0.015625)"/>
      </defs>
      <use xlink:href="#DejaVuSans-2d"/>
      <use xlink:href="#DejaVuSans-30" x="36.083984"/>
      <use xlink:href="#DejaVuSans-2e" x="99.707031"/>
      <use xlink:href="#DejaVuSans-30" x="131.494141"/>
      <use xlink:href="#DejaVuSans-33" x="195.117188"/>
     </g>
    </g>
   </g>
   <g id="text_21">
    <g clip-path="url(#p3f1d07c951)">
     <!-- -0.01 -->
     <g transform="translate(207.001964 100.444531) rotate(-0.234658) scale(0.1 -0.1)">
      <use xlink:href="#DejaVuSans-2d"/>
      <use xlink:href="#DejaVuSans-30" x="36.083984"/>
      <use xlink:href="#DejaVuSans-2e" x="99.707031"/>
      <use xlink:href="#DejaVuSans-30" x="131.494141"/>
      <use xlink:href="#DejaVuSans-31" x="195.117188"/>
     </g>
    </g>
   </g>
   <g id="text_22">
    <g clip-path="url(#p3f1d07c951)">
     <!-- 0.01 -->
     <g transform="translate(320.619915 95.321843) scale(0.1 -0.1)">
      <use xlink:href="#DejaVuSans-30"/>
      <use xlink:href="#DejaVuSans-2e" x="63.623047"/>
      <use xlink:href="#DejaVuSans-30" x="95.410156"/>
      <use xlink:href="#DejaVuSans-31" x="159.033203"/>
     </g>
    </g>
   </g>
  </g>
 </g>
 <defs>
  <clipPath id="p3f1d07c951">
   <rect x="57.6" y="41.472" width="357.12" height="266.112"/>
  </clipPath>
 </defs>
</svg>
