<?xml version="1.0" encoding="utf-8" standalone="no"?>
<!DOCTYPE svg PUBLIC "-//W3C//DTD SVG 1.1//EN"
  "http://www.w3.org/Graphics/SVG/1.1/DTD/svg11.dtd">
<svg xmlns:xlink="http://www.w3.org/1999/xlink" width="460.8pt" height="345.6pt" viewBox="0 0 460.8 345.6" xmlns="http://www.w3.org/2000/svg" version="1.1">
 <metadata>
  <rdf:RDF xmlns:dc="http://purl.org/dc/elements/1.1/" xmlns:cc="http://creativecommons.org/ns#" xmlns:rdf="http://www.w3.org/1999/02/22-rdf-syntax-ns#">
   <cc:Work>
    <dc:type rdf:resource="http://purl.org/dc/dcmitype/StillImage"/>
    <dc:date>2024-02-15T12:26:52.892502</dc:date>
    <dc:format>image/svg+xml</dc:format>
    <dc:creator>
     <cc:Agent>
      <dc:title>Matplotlib v3.7.0, https://matplotlib.org/</dc:title>
     </cc:Agent>
    </dc:creator>
   </cc:Work>
  </rdf:RDF>
 </metadata>
 <defs>
  <style type="text/css">*{stroke-linejoin: round; stroke-linecap: butt}</style>
 </defs>
 <g id="figure_1">
  <g id="patch_1">
   <path d="M 0 345.6 
L 460.8 345.6 
L 460.8 0 
L 0 0 
L 0 345.6 
z
" style="fill: none"/>
  </g>
  <g id="axes_1"/>
  <g id="axes_2">
   <g id="patch_2">
    <path d="M 57.6 307.584 
L 414.72 307.584 
L 414.72 41.472 
L 57.6 41.472 
L 57.6 307.584 
z
" style="fill: none"/>
   </g>
   <g id="PathCollection_1">
    <path d="M 61.207273 286.114515 
L 64.814545 286.114515 
L 68.421818 286.114515 
L 72.029091 286.114515 
L 75.636364 286.114515 
L 79.243636 286.114515 
L 82.850909 286.114515 
L 86.458182 286.114515 
L 90.065455 286.114515 
L 93.672727 286.114515 
L 97.28 286.114515 
L 100.887273 286.114515 
L 104.494545 286.114515 
L 108.101818 286.114515 
L 111.709091 286.114515 
L 115.316364 286.114515 
L 118.923636 286.114515 
L 122.530909 286.114515 
L 126.138182 286.114515 
L 129.745455 286.114515 
L 133.352727 286.114515 
L 136.96 286.114515 
L 137.867112 286.08 
L 137.867112 283.392 
L 140.567273 283.199086 
L 144.174545 283.199086 
L 147.781818 283.199086 
L 151.389091 283.199086 
L 154.996364 283.199086 
L 158.603636 283.199086 
L 162.210909 283.199086 
L 165.818182 283.199086 
L 169.425455 283.199086 
L 173.032727 283.015127 
L 176.64 282.556834 
L 180.247273 282.556834 
L 183.854545 282.556834 
L 187.461818 280.831307 
L 191.069091 280.831307 
L 194.676364 280.831307 
L 198.283636 280.831307 
L 201.890909 280.831307 
L 205.498182 280.831307 
L 205.614515 280.704 
L 206.639136 278.016 
L 206.639136 275.328 
L 206.639136 272.64 
L 206.639136 269.952 
L 206.639136 267.264 
L 206.639136 264.576 
L 206.639136 261.888 
L 206.639136 259.2 
L 206.639136 256.512 
L 206.639136 253.824 
L 206.639136 251.136 
L 206.639136 248.448 
L 206.639136 245.76 
L 206.639136 243.072 
L 206.639136 240.384 
L 206.639136 237.696 
L 206.639136 235.008 
L 206.639136 232.32 
L 206.639136 229.632 
L 206.639136 226.944 
L 206.639136 224.256 
L 206.639136 221.568 
L 206.639136 218.88 
L 206.639136 216.192 
L 206.639136 213.504 
L 206.639136 210.816 
L 206.639136 208.128 
L 206.639136 205.44 
L 206.639136 202.752 
L 206.639136 200.064 
L 206.639136 197.376 
L 206.639136 194.688 
L 206.639136 192 
L 206.639136 189.312 
L 206.639136 186.624 
L 206.639136 183.936 
L 206.639136 181.248 
L 206.639136 178.56 
L 206.639136 175.872 
L 206.639136 173.184 
L 206.639136 170.496 
L 206.639136 167.808 
L 206.639136 165.12 
L 206.639136 162.432 
L 206.639136 159.744 
L 206.639136 157.056 
L 206.639136 154.368 
L 206.639136 151.68 
L 206.639136 148.992 
L 206.639136 146.304 
L 206.639136 143.616 
L 206.639136 140.928 
L 206.639136 138.24 
L 206.639136 135.552 
L 206.639136 132.864 
L 206.639136 130.176 
L 206.639136 127.488 
L 206.639136 124.8 
L 206.639136 122.112 
L 206.639136 119.424 
L 206.639136 116.736 
L 206.639136 114.048 
L 206.639136 111.36 
L 206.639136 108.672 
L 206.639136 105.984 
L 206.639136 103.296 
L 206.639136 100.608 
L 206.639136 97.92 
L 206.639136 95.232 
L 206.639136 92.544 
L 206.639136 89.856 
L 206.639136 87.168 
L 206.639136 84.48 
L 206.639136 81.792 
L 206.639136 79.104 
L 206.639136 76.416 
L 206.639136 73.728 
L 206.639136 71.04 
L 206.639136 68.352 
L 206.639136 65.664 
L 206.639136 62.976 
L 206.639136 60.288 
L 206.639136 57.6 
L 206.639136 54.912 
L 206.639136 52.224 
L 206.639136 49.536 
L 206.639136 46.848 
L 206.639136 44.16 
L 206.639136 41.472 
L 205.498182 41.472 
L 201.890909 41.472 
L 198.283636 41.472 
L 194.676364 41.472 
L 191.069091 41.472 
L 187.461818 41.472 
L 183.854545 41.472 
L 180.247273 41.472 
L 176.64 41.472 
L 173.032727 41.472 
L 169.425455 41.472 
L 165.818182 41.472 
L 162.210909 41.472 
L 158.603636 41.472 
L 154.996364 41.472 
L 151.389091 41.472 
L 147.781818 41.472 
L 144.174545 41.472 
L 140.567273 41.472 
L 136.96 41.472 
L 133.352727 41.472 
L 129.745455 41.472 
L 126.138182 41.472 
L 122.530909 41.472 
L 118.923636 41.472 
L 115.316364 41.472 
L 111.709091 41.472 
L 108.101818 41.472 
L 104.494545 41.472 
L 100.887273 41.472 
L 97.28 41.472 
L 93.672727 41.472 
L 90.065455 41.472 
L 86.458182 41.472 
L 82.850909 41.472 
L 79.243636 41.472 
L 75.636364 41.472 
L 72.029091 41.472 
L 68.421818 41.472 
L 64.814545 41.472 
L 61.207273 41.472 
L 57.6 41.472 
L 57.6 44.16 
L 57.6 46.848 
L 57.6 49.536 
L 57.6 52.224 
L 57.6 54.912 
L 57.6 57.6 
L 57.6 60.288 
L 57.6 62.976 
L 57.6 65.664 
L 57.6 68.352 
L 57.6 71.04 
L 57.6 73.728 
L 57.6 76.416 
L 57.6 79.104 
L 57.6 81.792 
L 57.6 84.48 
L 57.6 87.168 
L 57.6 89.856 
L 57.6 92.544 
L 57.6 95.232 
L 57.6 97.92 
L 57.6 100.608 
L 57.6 103.296 
L 57.6 105.984 
L 57.6 108.672 
L 57.6 111.36 
L 57.6 114.048 
L 57.6 116.736 
L 57.6 119.424 
L 57.6 122.112 
L 57.6 124.8 
L 57.6 127.488 
L 57.6 130.176 
L 57.6 132.864 
L 57.6 135.552 
L 57.6 138.24 
L 57.6 140.928 
L 57.6 143.616 
L 57.6 146.304 
L 57.6 148.992 
L 57.6 151.68 
L 57.6 154.368 
L 57.6 157.056 
L 57.6 159.744 
L 57.6 162.432 
L 57.6 165.12 
L 57.6 167.808 
L 57.6 170.496 
L 57.6 173.184 
L 57.6 175.872 
L 57.6 178.56 
L 57.6 181.248 
L 57.6 183.936 
L 57.6 186.624 
L 57.6 189.312 
L 57.6 192 
L 57.6 194.688 
L 57.6 197.376 
L 57.6 200.064 
L 57.6 202.752 
L 57.6 205.44 
L 57.6 208.128 
L 57.6 210.816 
L 57.6 213.504 
L 57.6 216.192 
L 57.6 218.88 
L 57.6 221.568 
L 57.6 224.256 
L 57.6 226.944 
L 57.6 229.632 
L 57.6 232.32 
L 57.6 235.008 
L 57.6 237.696 
L 57.6 240.384 
L 57.6 243.072 
L 57.6 245.76 
L 57.6 248.448 
L 57.6 251.136 
L 57.6 253.824 
L 57.6 256.512 
L 57.6 259.2 
L 57.6 261.888 
L 57.6 264.576 
L 57.6 267.264 
L 57.6 269.952 
L 57.6 272.64 
L 57.6 275.328 
L 57.6 278.016 
L 57.6 280.704 
L 57.6 283.392 
L 57.6 286.08 
L 57.6 286.114515 
z
" clip-path="url(#p2e6e3b970f)" style="fill: #481b6d; fill-opacity: 0.75"/>
   </g>
   <g id="PathCollection_2">
    <path d="M 61.207273 289.493638 
L 64.814545 289.493638 
L 68.421818 289.493638 
L 72.029091 289.493638 
L 75.636364 289.493638 
L 79.243636 289.493638 
L 82.850909 289.493638 
L 86.458182 289.493638 
L 90.065455 289.493638 
L 93.672727 289.493638 
L 97.28 289.493638 
L 100.887273 289.493638 
L 104.494545 289.493638 
L 108.101818 289.493638 
L 111.709091 289.493638 
L 115.316364 289.493638 
L 118.923636 289.493638 
L 122.530909 289.493638 
L 126.138182 289.493638 
L 129.745455 289.493638 
L 133.352727 289.493638 
L 136.96 289.493638 
L 140.567273 289.226313 
L 144.174545 289.226313 
L 147.781818 289.226313 
L 151.389091 289.226313 
L 154.996364 289.226313 
L 158.603636 289.226313 
L 162.210909 289.226313 
L 165.818182 289.226313 
L 169.425455 289.226313 
L 173.032727 289.035501 
L 175.062628 288.768 
L 176.64 288.661273 
L 180.247273 288.661273 
L 183.854545 288.661273 
L 187.461818 287.742309 
L 191.069091 287.742309 
L 194.676364 287.742309 
L 198.283636 287.742309 
L 201.890909 287.742309 
L 205.498182 287.742309 
L 208.350423 286.08 
L 208.350423 283.392 
L 209.105455 282.565746 
L 212.712727 280.763455 
L 213.026258 280.704 
L 216.32 279.20667 
L 219.927273 279.20667 
L 223.534545 279.20667 
L 227.141818 279.20667 
L 230.749091 279.20667 
L 232.088761 278.016 
L 232.088761 275.328 
L 232.088761 272.64 
L 232.088761 269.952 
L 232.088761 267.264 
L 232.088761 264.576 
L 232.088761 261.888 
L 232.088761 259.2 
L 232.088761 256.512 
L 232.088761 253.824 
L 232.088761 251.136 
L 232.088761 248.448 
L 232.088761 245.76 
L 232.088761 243.072 
L 232.088761 240.384 
L 232.088761 237.696 
L 232.088761 235.008 
L 232.088761 232.32 
L 232.088761 229.632 
L 232.088761 226.944 
L 232.088761 224.256 
L 232.088761 221.568 
L 232.088761 218.88 
L 232.088761 216.192 
L 232.088761 213.504 
L 232.088761 210.816 
L 232.088761 208.128 
L 232.088761 205.44 
L 232.088761 202.752 
L 232.088761 200.064 
L 232.088761 197.376 
L 232.088761 194.688 
L 232.088761 192 
L 232.088761 189.312 
L 232.088761 186.624 
L 232.088761 183.936 
L 232.088761 181.248 
L 232.088761 178.56 
L 232.088761 175.872 
L 232.088761 173.184 
L 232.088761 170.496 
L 232.088761 167.808 
L 232.088761 165.12 
L 232.088761 162.432 
L 232.088761 159.744 
L 232.088761 157.056 
L 232.088761 154.368 
L 232.088761 151.68 
L 232.088761 148.992 
L 232.088761 146.304 
L 232.088761 143.616 
L 232.088761 140.928 
L 232.088761 138.24 
L 232.088761 135.552 
L 232.088761 132.864 
L 232.088761 130.176 
L 232.088761 127.488 
L 232.088761 124.8 
L 232.088761 122.112 
L 232.088761 119.424 
L 232.088761 116.736 
L 232.088761 114.048 
L 232.088761 111.36 
L 232.088761 108.672 
L 232.088761 105.984 
L 232.088761 103.296 
L 232.088761 100.608 
L 232.088761 97.92 
L 232.088761 95.232 
L 232.088761 92.544 
L 232.088761 89.856 
L 232.088761 87.168 
L 232.088761 84.48 
L 232.088761 81.792 
L 232.088761 79.104 
L 232.088761 76.416 
L 232.088761 73.728 
L 232.088761 71.04 
L 232.088761 68.352 
L 232.088761 65.664 
L 232.088761 62.976 
L 232.088761 60.288 
L 232.088761 57.6 
L 232.088761 54.912 
L 232.088761 52.224 
L 232.088761 49.536 
L 232.088761 46.848 
L 232.088761 44.16 
L 232.088761 41.472 
L 230.749091 41.472 
L 227.141818 41.472 
L 223.534545 41.472 
L 219.927273 41.472 
L 216.32 41.472 
L 212.712727 41.472 
L 209.105455 41.472 
L 206.639136 41.472 
L 206.639136 44.16 
L 206.639136 46.848 
L 206.639136 49.536 
L 206.639136 52.224 
L 206.639136 54.912 
L 206.639136 57.6 
L 206.639136 60.288 
L 206.639136 62.976 
L 206.639136 65.664 
L 206.639136 68.352 
L 206.639136 71.04 
L 206.639136 73.728 
L 206.639136 76.416 
L 206.639136 79.104 
L 206.639136 81.792 
L 206.639136 84.48 
L 206.639136 87.168 
L 206.639136 89.856 
L 206.639136 92.544 
L 206.639136 95.232 
L 206.639136 97.92 
L 206.639136 100.608 
L 206.639136 103.296 
L 206.639136 105.984 
L 206.639136 108.672 
L 206.639136 111.36 
L 206.639136 114.048 
L 206.639136 116.736 
L 206.639136 119.424 
L 206.639136 122.112 
L 206.639136 124.8 
L 206.639136 127.488 
L 206.639136 130.176 
L 206.639136 132.864 
L 206.639136 135.552 
L 206.639136 138.24 
L 206.639136 140.928 
L 206.639136 143.616 
L 206.639136 146.304 
L 206.639136 148.992 
L 206.639136 151.68 
L 206.639136 154.368 
L 206.639136 157.056 
L 206.639136 159.744 
L 206.639136 162.432 
L 206.639136 165.12 
L 206.639136 167.808 
L 206.639136 170.496 
L 206.639136 173.184 
L 206.639136 175.872 
L 206.639136 178.56 
L 206.639136 181.248 
L 206.639136 183.936 
L 206.639136 186.624 
L 206.639136 189.312 
L 206.639136 192 
L 206.639136 194.688 
L 206.639136 197.376 
L 206.639136 200.064 
L 206.639136 202.752 
L 206.639136 205.44 
L 206.639136 208.128 
L 206.639136 210.816 
L 206.639136 213.504 
L 206.639136 216.192 
L 206.639136 218.88 
L 206.639136 221.568 
L 206.639136 224.256 
L 206.639136 226.944 
L 206.639136 229.632 
L 206.639136 232.32 
L 206.639136 235.008 
L 206.639136 237.696 
L 206.639136 240.384 
L 206.639136 243.072 
L 206.639136 245.76 
L 206.639136 248.448 
L 206.639136 251.136 
L 206.639136 253.824 
L 206.639136 256.512 
L 206.639136 259.2 
L 206.639136 261.888 
L 206.639136 264.576 
L 206.639136 267.264 
L 206.639136 269.952 
L 206.639136 272.64 
L 206.639136 275.328 
L 206.639136 278.016 
L 205.614515 280.704 
L 205.498182 280.831307 
L 201.890909 280.831307 
L 198.283636 280.831307 
L 194.676364 280.831307 
L 191.069091 280.831307 
L 187.461818 280.831307 
L 183.854545 282.556834 
L 180.247273 282.556834 
L 176.64 282.556834 
L 173.032727 283.015127 
L 169.425455 283.199086 
L 165.818182 283.199086 
L 162.210909 283.199086 
L 158.603636 283.199086 
L 154.996364 283.199086 
L 151.389091 283.199086 
L 147.781818 283.199086 
L 144.174545 283.199086 
L 140.567273 283.199086 
L 137.867112 283.392 
L 137.867112 286.08 
L 136.96 286.114515 
L 133.352727 286.114515 
L 129.745455 286.114515 
L 126.138182 286.114515 
L 122.530909 286.114515 
L 118.923636 286.114515 
L 115.316364 286.114515 
L 111.709091 286.114515 
L 108.101818 286.114515 
L 104.494545 286.114515 
L 100.887273 286.114515 
L 97.28 286.114515 
L 93.672727 286.114515 
L 90.065455 286.114515 
L 86.458182 286.114515 
L 82.850909 286.114515 
L 79.243636 286.114515 
L 75.636364 286.114515 
L 72.029091 286.114515 
L 68.421818 286.114515 
L 64.814545 286.114515 
L 61.207273 286.114515 
L 57.6 286.114515 
L 57.6 288.768 
L 57.6 289.493638 
z
" clip-path="url(#p2e6e3b970f)" style="fill: #3f4788; fill-opacity: 0.75"/>
   </g>
   <g id="PathCollection_3">
    <path d="M 61.207273 307.584 
L 64.814545 307.584 
L 68.421818 307.584 
L 72.029091 307.584 
L 75.636364 307.584 
L 79.243636 307.584 
L 82.850909 307.584 
L 86.458182 307.584 
L 90.065455 307.584 
L 93.672727 307.584 
L 97.28 307.584 
L 100.887273 307.584 
L 104.494545 307.584 
L 108.101818 307.584 
L 111.709091 307.584 
L 115.316364 307.584 
L 118.923636 307.584 
L 122.530909 307.584 
L 126.138182 307.584 
L 129.745455 307.584 
L 133.352727 307.584 
L 136.96 307.584 
L 140.567273 307.584 
L 144.174545 307.584 
L 147.781818 307.584 
L 151.389091 307.584 
L 154.996364 307.584 
L 158.603636 307.584 
L 162.210909 307.584 
L 165.818182 307.584 
L 169.425455 307.584 
L 173.032727 307.584 
L 176.64 307.584 
L 180.247273 307.584 
L 183.854545 307.584 
L 186.591204 307.584 
L 186.591204 304.896 
L 186.591204 302.208 
L 187.461818 301.499975 
L 191.069091 301.499975 
L 194.676364 301.499975 
L 198.283636 301.499975 
L 201.890909 301.499975 
L 205.498182 301.499975 
L 206.562402 299.52 
L 206.562402 296.832 
L 206.562402 294.144 
L 206.562402 291.456 
L 208.930473 288.768 
L 209.105455 288.666019 
L 212.712727 287.706173 
L 216.32 287.341867 
L 219.927273 287.341867 
L 223.534545 287.341867 
L 227.141818 287.341867 
L 230.749091 287.341867 
L 234.356364 286.629618 
L 237.963636 286.629618 
L 241.391001 286.08 
L 241.391001 283.392 
L 241.570909 283.337828 
L 244.673967 280.704 
L 245.178182 279.678039 
L 248.785455 279.678039 
L 252.392727 279.678039 
L 255.821742 278.016 
L 255.821742 275.328 
L 255.821742 272.64 
L 255.821742 269.952 
L 255.821742 267.264 
L 255.821742 264.576 
L 255.821742 261.888 
L 255.821742 259.2 
L 255.821742 256.512 
L 255.821742 253.824 
L 255.821742 251.136 
L 255.821742 248.448 
L 255.821742 245.76 
L 255.821742 243.072 
L 255.821742 240.384 
L 255.821742 237.696 
L 255.821742 235.008 
L 255.821742 232.32 
L 255.821742 229.632 
L 255.821742 226.944 
L 255.821742 224.256 
L 255.821742 221.568 
L 255.821742 218.88 
L 255.821742 216.192 
L 255.821742 213.504 
L 255.821742 210.816 
L 255.821742 208.128 
L 255.821742 205.44 
L 255.821742 202.752 
L 255.821742 200.064 
L 255.821742 197.376 
L 255.821742 194.688 
L 255.821742 192 
L 255.821742 189.312 
L 255.821742 186.624 
L 255.821742 183.936 
L 255.821742 181.248 
L 255.821742 178.56 
L 255.821742 175.872 
L 255.821742 173.184 
L 255.821742 170.496 
L 255.821742 167.808 
L 255.821742 165.12 
L 255.821742 162.432 
L 255.821742 159.744 
L 255.821742 157.056 
L 255.821742 154.368 
L 255.821742 151.68 
L 255.821742 148.992 
L 255.821742 146.304 
L 255.821742 143.616 
L 255.821742 140.928 
L 255.821742 138.24 
L 255.821742 135.552 
L 255.821742 132.864 
L 255.821742 130.176 
L 255.821742 127.488 
L 255.821742 124.8 
L 255.821742 122.112 
L 255.821742 119.424 
L 255.821742 116.736 
L 255.821742 114.048 
L 255.821742 111.36 
L 255.821742 108.672 
L 255.821742 105.984 
L 255.821742 103.296 
L 255.821742 100.608 
L 255.821742 97.92 
L 255.821742 95.232 
L 255.821742 92.544 
L 255.821742 89.856 
L 255.821742 87.168 
L 255.821742 84.48 
L 255.821742 81.792 
L 255.821742 79.104 
L 255.821742 76.416 
L 255.821742 73.728 
L 255.821742 71.04 
L 255.821742 68.352 
L 255.821742 65.664 
L 255.821742 62.976 
L 255.821742 60.288 
L 255.821742 57.6 
L 255.821742 54.912 
L 255.821742 52.224 
L 255.821742 49.536 
L 255.821742 46.848 
L 255.821742 44.16 
L 255.821742 41.472 
L 252.392727 41.472 
L 248.785455 41.472 
L 245.178182 41.472 
L 241.570909 41.472 
L 237.963636 41.472 
L 234.356364 41.472 
L 232.088761 41.472 
L 232.088761 44.16 
L 232.088761 46.848 
L 232.088761 49.536 
L 232.088761 52.224 
L 232.088761 54.912 
L 232.088761 57.6 
L 232.088761 60.288 
L 232.088761 62.976 
L 232.088761 65.664 
L 232.088761 68.352 
L 232.088761 71.04 
L 232.088761 73.728 
L 232.088761 76.416 
L 232.088761 79.104 
L 232.088761 81.792 
L 232.088761 84.48 
L 232.088761 87.168 
L 232.088761 89.856 
L 232.088761 92.544 
L 232.088761 95.232 
L 232.088761 97.92 
L 232.088761 100.608 
L 232.088761 103.296 
L 232.088761 105.984 
L 232.088761 108.672 
L 232.088761 111.36 
L 232.088761 114.048 
L 232.088761 116.736 
L 232.088761 119.424 
L 232.088761 122.112 
L 232.088761 124.8 
L 232.088761 127.488 
L 232.088761 130.176 
L 232.088761 132.864 
L 232.088761 135.552 
L 232.088761 138.24 
L 232.088761 140.928 
L 232.088761 143.616 
L 232.088761 146.304 
L 232.088761 148.992 
L 232.088761 151.68 
L 232.088761 154.368 
L 232.088761 157.056 
L 232.088761 159.744 
L 232.088761 162.432 
L 232.088761 165.12 
L 232.088761 167.808 
L 232.088761 170.496 
L 232.088761 173.184 
L 232.088761 175.872 
L 232.088761 178.56 
L 232.088761 181.248 
L 232.088761 183.936 
L 232.088761 186.624 
L 232.088761 189.312 
L 232.088761 192 
L 232.088761 194.688 
L 232.088761 197.376 
L 232.088761 200.064 
L 232.088761 202.752 
L 232.088761 205.44 
L 232.088761 208.128 
L 232.088761 210.816 
L 232.088761 213.504 
L 232.088761 216.192 
L 232.088761 218.88 
L 232.088761 221.568 
L 232.088761 224.256 
L 232.088761 226.944 
L 232.088761 229.632 
L 232.088761 232.32 
L 232.088761 235.008 
L 232.088761 237.696 
L 232.088761 240.384 
L 232.088761 243.072 
L 232.088761 245.76 
L 232.088761 248.448 
L 232.088761 251.136 
L 232.088761 253.824 
L 232.088761 256.512 
L 232.088761 259.2 
L 232.088761 261.888 
L 232.088761 264.576 
L 232.088761 267.264 
L 232.088761 269.952 
L 232.088761 272.64 
L 232.088761 275.328 
L 232.088761 278.016 
L 230.749091 279.20667 
L 227.141818 279.20667 
L 223.534545 279.20667 
L 219.927273 279.20667 
L 216.32 279.20667 
L 213.026258 280.704 
L 212.712727 280.763455 
L 209.105455 282.565746 
L 208.350423 283.392 
L 208.350423 286.08 
L 205.498182 287.742309 
L 201.890909 287.742309 
L 198.283636 287.742309 
L 194.676364 287.742309 
L 191.069091 287.742309 
L 187.461818 287.742309 
L 183.854545 288.661273 
L 180.247273 288.661273 
L 176.64 288.661273 
L 175.062628 288.768 
L 173.032727 289.035501 
L 169.425455 289.226313 
L 165.818182 289.226313 
L 162.210909 289.226313 
L 158.603636 289.226313 
L 154.996364 289.226313 
L 151.389091 289.226313 
L 147.781818 289.226313 
L 144.174545 289.226313 
L 140.567273 289.226313 
L 136.96 289.493638 
L 133.352727 289.493638 
L 129.745455 289.493638 
L 126.138182 289.493638 
L 122.530909 289.493638 
L 118.923636 289.493638 
L 115.316364 289.493638 
L 111.709091 289.493638 
L 108.101818 289.493638 
L 104.494545 289.493638 
L 100.887273 289.493638 
L 97.28 289.493638 
L 93.672727 289.493638 
L 90.065455 289.493638 
L 86.458182 289.493638 
L 82.850909 289.493638 
L 79.243636 289.493638 
L 75.636364 289.493638 
L 72.029091 289.493638 
L 68.421818 289.493638 
L 64.814545 289.493638 
L 61.207273 289.493638 
L 57.6 289.493638 
L 57.6 291.456 
L 57.6 294.144 
L 57.6 296.832 
L 57.6 299.52 
L 57.6 302.208 
L 57.6 304.896 
L 57.6 307.584 
z
" clip-path="url(#p2e6e3b970f)" style="fill: #2e6e8e; fill-opacity: 0.75"/>
   </g>
   <g id="PathCollection_4">
    <path d="M 187.461818 307.584 
L 191.069091 307.584 
L 194.676364 307.584 
L 198.283636 307.584 
L 201.890909 307.584 
L 205.498182 307.584 
L 209.105455 307.584 
L 211.74339 307.584 
L 211.74339 304.896 
L 211.74339 302.208 
L 212.712727 301.384619 
L 216.32 300.221647 
L 219.927273 300.221647 
L 223.534545 300.221647 
L 227.141818 300.221647 
L 230.749091 300.221647 
L 231.862265 299.52 
L 231.862265 296.832 
L 231.862265 294.144 
L 231.862265 291.456 
L 234.356364 290.496874 
L 237.963636 290.496874 
L 241.570909 289.370224 
L 242.254938 288.768 
L 245.178182 287.446585 
L 248.785455 287.446585 
L 252.392727 287.446585 
L 256 287.058157 
L 259.607273 287.058157 
L 262.515249 286.08 
L 262.515249 283.392 
L 263.214545 282.950326 
L 265.881228 280.704 
L 266.821818 278.804587 
L 270.429091 278.804587 
L 274.036364 278.804587 
L 275.06038 278.016 
L 275.06038 275.328 
L 275.06038 272.64 
L 275.06038 269.952 
L 275.06038 267.264 
L 275.06038 264.576 
L 275.06038 261.888 
L 275.06038 259.2 
L 275.06038 256.512 
L 275.06038 253.824 
L 275.06038 251.136 
L 275.06038 248.448 
L 275.06038 245.76 
L 275.06038 243.072 
L 275.06038 240.384 
L 275.06038 237.696 
L 275.06038 235.008 
L 275.06038 232.32 
L 275.06038 229.632 
L 275.06038 226.944 
L 275.06038 224.256 
L 275.06038 221.568 
L 275.06038 218.88 
L 275.06038 216.192 
L 275.06038 213.504 
L 275.06038 210.816 
L 275.06038 208.128 
L 275.06038 205.44 
L 275.06038 202.752 
L 275.06038 200.064 
L 275.06038 197.376 
L 275.06038 194.688 
L 275.06038 192 
L 275.06038 189.312 
L 275.06038 186.624 
L 275.06038 183.936 
L 275.06038 181.248 
L 275.06038 178.56 
L 275.06038 175.872 
L 275.06038 173.184 
L 275.06038 170.496 
L 275.06038 167.808 
L 275.06038 165.12 
L 275.06038 162.432 
L 275.06038 159.744 
L 275.06038 157.056 
L 275.06038 154.368 
L 275.06038 151.68 
L 275.06038 148.992 
L 275.06038 146.304 
L 275.06038 143.616 
L 275.06038 140.928 
L 275.06038 138.24 
L 275.06038 135.552 
L 275.06038 132.864 
L 275.06038 130.176 
L 275.06038 127.488 
L 275.06038 124.8 
L 275.06038 122.112 
L 275.06038 119.424 
L 275.06038 116.736 
L 275.06038 114.048 
L 275.06038 111.36 
L 275.06038 108.672 
L 275.06038 105.984 
L 275.06038 103.296 
L 275.06038 100.608 
L 275.06038 97.92 
L 275.06038 95.232 
L 275.06038 92.544 
L 275.06038 89.856 
L 275.06038 87.168 
L 275.06038 84.48 
L 275.06038 81.792 
L 275.06038 79.104 
L 275.06038 76.416 
L 275.06038 73.728 
L 275.06038 71.04 
L 275.06038 68.352 
L 275.06038 65.664 
L 275.06038 62.976 
L 275.06038 60.288 
L 275.06038 57.6 
L 275.06038 54.912 
L 275.06038 52.224 
L 275.06038 49.536 
L 275.06038 46.848 
L 275.06038 44.16 
L 275.06038 41.472 
L 274.036364 41.472 
L 270.429091 41.472 
L 266.821818 41.472 
L 263.214545 41.472 
L 259.607273 41.472 
L 256 41.472 
L 255.821742 41.472 
L 255.821742 44.16 
L 255.821742 46.848 
L 255.821742 49.536 
L 255.821742 52.224 
L 255.821742 54.912 
L 255.821742 57.6 
L 255.821742 60.288 
L 255.821742 62.976 
L 255.821742 65.664 
L 255.821742 68.352 
L 255.821742 71.04 
L 255.821742 73.728 
L 255.821742 76.416 
L 255.821742 79.104 
L 255.821742 81.792 
L 255.821742 84.48 
L 255.821742 87.168 
L 255.821742 89.856 
L 255.821742 92.544 
L 255.821742 95.232 
L 255.821742 97.92 
L 255.821742 100.608 
L 255.821742 103.296 
L 255.821742 105.984 
L 255.821742 108.672 
L 255.821742 111.36 
L 255.821742 114.048 
L 255.821742 116.736 
L 255.821742 119.424 
L 255.821742 122.112 
L 255.821742 124.8 
L 255.821742 127.488 
L 255.821742 130.176 
L 255.821742 132.864 
L 255.821742 135.552 
L 255.821742 138.24 
L 255.821742 140.928 
L 255.821742 143.616 
L 255.821742 146.304 
L 255.821742 148.992 
L 255.821742 151.68 
L 255.821742 154.368 
L 255.821742 157.056 
L 255.821742 159.744 
L 255.821742 162.432 
L 255.821742 165.12 
L 255.821742 167.808 
L 255.821742 170.496 
L 255.821742 173.184 
L 255.821742 175.872 
L 255.821742 178.56 
L 255.821742 181.248 
L 255.821742 183.936 
L 255.821742 186.624 
L 255.821742 189.312 
L 255.821742 192 
L 255.821742 194.688 
L 255.821742 197.376 
L 255.821742 200.064 
L 255.821742 202.752 
L 255.821742 205.44 
L 255.821742 208.128 
L 255.821742 210.816 
L 255.821742 213.504 
L 255.821742 216.192 
L 255.821742 218.88 
L 255.821742 221.568 
L 255.821742 224.256 
L 255.821742 226.944 
L 255.821742 229.632 
L 255.821742 232.32 
L 255.821742 235.008 
L 255.821742 237.696 
L 255.821742 240.384 
L 255.821742 243.072 
L 255.821742 245.76 
L 255.821742 248.448 
L 255.821742 251.136 
L 255.821742 253.824 
L 255.821742 256.512 
L 255.821742 259.2 
L 255.821742 261.888 
L 255.821742 264.576 
L 255.821742 267.264 
L 255.821742 269.952 
L 255.821742 272.64 
L 255.821742 275.328 
L 255.821742 278.016 
L 252.392727 279.678039 
L 248.785455 279.678039 
L 245.178182 279.678039 
L 244.673967 280.704 
L 241.570909 283.337828 
L 241.391001 283.392 
L 241.391001 286.08 
L 237.963636 286.629618 
L 234.356364 286.629618 
L 230.749091 287.341867 
L 227.141818 287.341867 
L 223.534545 287.341867 
L 219.927273 287.341867 
L 216.32 287.341867 
L 212.712727 287.706173 
L 209.105455 288.666019 
L 208.930473 288.768 
L 206.562402 291.456 
L 206.562402 294.144 
L 206.562402 296.832 
L 206.562402 299.52 
L 205.498182 301.499975 
L 201.890909 301.499975 
L 198.283636 301.499975 
L 194.676364 301.499975 
L 191.069091 301.499975 
L 187.461818 301.499975 
L 186.591204 302.208 
L 186.591204 304.896 
L 186.591204 307.584 
z
" clip-path="url(#p2e6e3b970f)" style="fill: #21918c; fill-opacity: 0.75"/>
   </g>
   <g id="PathCollection_5">
    <path d="M 212.712727 307.584 
L 216.32 307.584 
L 219.927273 307.584 
L 223.534545 307.584 
L 227.141818 307.584 
L 230.749091 307.584 
L 234.356364 307.584 
L 237.963636 307.584 
L 241.570909 307.584 
L 244.03333 307.584 
L 244.03333 304.896 
L 244.03333 302.208 
L 245.178182 300.555937 
L 248.785455 300.555937 
L 252.392727 300.555937 
L 255.406423 299.52 
L 255.406423 296.832 
L 255.406423 294.144 
L 255.406423 291.456 
L 256 291.331515 
L 259.607273 291.331515 
L 263.214545 288.968285 
L 263.44377 288.768 
L 266.821818 287.252541 
L 270.429091 287.252541 
L 274.036364 287.252541 
L 277.643636 286.635406 
L 281.250909 286.258313 
L 284.858182 286.258313 
L 288.465455 286.258313 
L 292.072727 286.258313 
L 293.872288 286.08 
L 293.872288 283.392 
L 295.68 283.055668 
L 299.287273 283.055668 
L 302.894545 283.055668 
L 306.501818 283.055668 
L 310.109091 283.055668 
L 313.716364 283.055668 
L 317.323636 283.055668 
L 320.930909 283.055668 
L 324.538182 283.055668 
L 328.145455 283.055668 
L 331.752727 283.055668 
L 335.36 283.055668 
L 338.967273 283.055668 
L 342.574545 283.055668 
L 346.181818 283.055668 
L 349.789091 283.055668 
L 353.396364 283.055668 
L 357.003636 283.055668 
L 360.610909 283.055668 
L 364.218182 283.055668 
L 367.825455 283.055668 
L 371.432727 283.055668 
L 375.04 283.055668 
L 378.647273 283.055668 
L 382.254545 283.055668 
L 382.974613 283.392 
L 382.974613 286.08 
L 385.861818 286.798207 
L 389.469091 286.798207 
L 393.076364 286.798207 
L 396.683636 286.798207 
L 400.290909 286.798207 
L 403.898182 286.798207 
L 407.505455 286.798207 
L 411.112727 286.798207 
L 414.72 286.798207 
L 414.72 286.08 
L 414.72 283.392 
L 414.72 280.704 
L 414.72 278.016 
L 414.72 275.328 
L 414.72 272.64 
L 414.72 269.952 
L 414.72 267.264 
L 414.72 264.576 
L 414.72 261.888 
L 414.72 259.2 
L 414.72 256.512 
L 414.72 253.824 
L 414.72 251.136 
L 414.72 248.448 
L 414.72 245.76 
L 414.72 243.072 
L 414.72 240.384 
L 414.72 237.696 
L 414.72 235.008 
L 414.72 232.32 
L 414.72 229.632 
L 414.72 226.944 
L 414.72 224.256 
L 414.72 221.568 
L 414.72 218.88 
L 414.72 216.192 
L 414.72 213.504 
L 414.72 210.816 
L 414.72 208.128 
L 414.72 205.44 
L 414.72 202.752 
L 414.72 200.064 
L 414.72 197.376 
L 414.72 194.688 
L 414.72 192 
L 414.72 189.312 
L 414.72 186.624 
L 414.72 183.936 
L 414.72 181.248 
L 414.72 178.56 
L 414.72 175.872 
L 414.72 173.184 
L 414.72 170.496 
L 414.72 167.808 
L 414.72 165.12 
L 414.72 162.432 
L 414.72 159.744 
L 414.72 157.056 
L 414.72 154.368 
L 414.72 151.68 
L 414.72 148.992 
L 414.72 146.304 
L 414.72 143.616 
L 414.72 140.928 
L 414.72 138.24 
L 414.72 135.552 
L 414.72 132.864 
L 414.72 130.176 
L 414.72 127.488 
L 414.72 124.8 
L 414.72 122.112 
L 414.72 119.424 
L 414.72 116.736 
L 414.72 114.048 
L 414.72 111.36 
L 414.72 108.672 
L 414.72 105.984 
L 414.72 103.296 
L 414.72 100.608 
L 414.72 97.92 
L 414.72 95.232 
L 414.72 92.544 
L 414.72 89.856 
L 414.72 87.168 
L 414.72 84.48 
L 414.72 81.792 
L 414.72 79.104 
L 414.72 76.416 
L 414.72 73.728 
L 414.72 71.04 
L 414.72 68.352 
L 414.72 65.664 
L 414.72 62.976 
L 414.72 60.288 
L 414.72 57.6 
L 414.72 54.912 
L 414.72 52.224 
L 414.72 49.536 
L 414.72 46.848 
L 414.72 44.16 
L 414.72 41.472 
L 411.112727 41.472 
L 407.505455 41.472 
L 403.898182 41.472 
L 400.290909 41.472 
L 396.683636 41.472 
L 393.076364 41.472 
L 389.469091 41.472 
L 385.861818 41.472 
L 382.254545 41.472 
L 378.647273 41.472 
L 375.04 41.472 
L 371.432727 41.472 
L 367.825455 41.472 
L 364.218182 41.472 
L 360.610909 41.472 
L 357.003636 41.472 
L 353.396364 41.472 
L 349.789091 41.472 
L 346.181818 41.472 
L 342.574545 41.472 
L 338.967273 41.472 
L 335.36 41.472 
L 331.752727 41.472 
L 328.145455 41.472 
L 324.538182 41.472 
L 320.930909 41.472 
L 317.323636 41.472 
L 313.716364 41.472 
L 310.109091 41.472 
L 306.501818 41.472 
L 302.894545 41.472 
L 299.287273 41.472 
L 295.68 41.472 
L 292.072727 41.472 
L 288.465455 41.472 
L 284.858182 41.472 
L 281.250909 41.472 
L 277.643636 41.472 
L 275.06038 41.472 
L 275.06038 44.16 
L 275.06038 46.848 
L 275.06038 49.536 
L 275.06038 52.224 
L 275.06038 54.912 
L 275.06038 57.6 
L 275.06038 60.288 
L 275.06038 62.976 
L 275.06038 65.664 
L 275.06038 68.352 
L 275.06038 71.04 
L 275.06038 73.728 
L 275.06038 76.416 
L 275.06038 79.104 
L 275.06038 81.792 
L 275.06038 84.48 
L 275.06038 87.168 
L 275.06038 89.856 
L 275.06038 92.544 
L 275.06038 95.232 
L 275.06038 97.92 
L 275.06038 100.608 
L 275.06038 103.296 
L 275.06038 105.984 
L 275.06038 108.672 
L 275.06038 111.36 
L 275.06038 114.048 
L 275.06038 116.736 
L 275.06038 119.424 
L 275.06038 122.112 
L 275.06038 124.8 
L 275.06038 127.488 
L 275.06038 130.176 
L 275.06038 132.864 
L 275.06038 135.552 
L 275.06038 138.24 
L 275.06038 140.928 
L 275.06038 143.616 
L 275.06038 146.304 
L 275.06038 148.992 
L 275.06038 151.68 
L 275.06038 154.368 
L 275.06038 157.056 
L 275.06038 159.744 
L 275.06038 162.432 
L 275.06038 165.12 
L 275.06038 167.808 
L 275.06038 170.496 
L 275.06038 173.184 
L 275.06038 175.872 
L 275.06038 178.56 
L 275.06038 181.248 
L 275.06038 183.936 
L 275.06038 186.624 
L 275.06038 189.312 
L 275.06038 192 
L 275.06038 194.688 
L 275.06038 197.376 
L 275.06038 200.064 
L 275.06038 202.752 
L 275.06038 205.44 
L 275.06038 208.128 
L 275.06038 210.816 
L 275.06038 213.504 
L 275.06038 216.192 
L 275.06038 218.88 
L 275.06038 221.568 
L 275.06038 224.256 
L 275.06038 226.944 
L 275.06038 229.632 
L 275.06038 232.32 
L 275.06038 235.008 
L 275.06038 237.696 
L 275.06038 240.384 
L 275.06038 243.072 
L 275.06038 245.76 
L 275.06038 248.448 
L 275.06038 251.136 
L 275.06038 253.824 
L 275.06038 256.512 
L 275.06038 259.2 
L 275.06038 261.888 
L 275.06038 264.576 
L 275.06038 267.264 
L 275.06038 269.952 
L 275.06038 272.64 
L 275.06038 275.328 
L 275.06038 278.016 
L 274.036364 278.804587 
L 270.429091 278.804587 
L 266.821818 278.804587 
L 265.881228 280.704 
L 263.214545 282.950326 
L 262.515249 283.392 
L 262.515249 286.08 
L 259.607273 287.058157 
L 256 287.058157 
L 252.392727 287.446585 
L 248.785455 287.446585 
L 245.178182 287.446585 
L 242.254938 288.768 
L 241.570909 289.370224 
L 237.963636 290.496874 
L 234.356364 290.496874 
L 231.862265 291.456 
L 231.862265 294.144 
L 231.862265 296.832 
L 231.862265 299.52 
L 230.749091 300.221647 
L 227.141818 300.221647 
L 223.534545 300.221647 
L 219.927273 300.221647 
L 216.32 300.221647 
L 212.712727 301.384619 
L 211.74339 302.208 
L 211.74339 304.896 
L 211.74339 307.584 
z
" clip-path="url(#p2e6e3b970f)" style="fill: #2db27d; fill-opacity: 0.75"/>
   </g>
   <g id="PathCollection_6">
    <path d="M 245.178182 307.584 
L 248.785455 307.584 
L 252.392727 307.584 
L 256 307.584 
L 259.607273 307.584 
L 263.214545 307.584 
L 265.235711 307.584 
L 265.235711 304.896 
L 265.235711 302.208 
L 266.821818 299.936494 
L 270.429091 299.936494 
L 274.036364 299.936494 
L 274.798976 299.52 
L 274.798976 296.832 
L 274.798976 294.144 
L 274.798976 291.456 
L 277.643636 290.508146 
L 281.250909 289.773704 
L 284.858182 289.773704 
L 288.465455 289.773704 
L 292.072727 289.773704 
L 295.68 289.077552 
L 299.287273 289.077552 
L 302.894545 289.077552 
L 306.501818 289.077552 
L 310.109091 289.077552 
L 313.716364 289.077552 
L 317.323636 289.077552 
L 320.930909 289.077552 
L 324.538182 289.077552 
L 328.145455 289.077552 
L 331.752727 289.077552 
L 335.36 289.077552 
L 338.967273 289.077552 
L 342.574545 289.077552 
L 346.181818 289.077552 
L 349.789091 289.077552 
L 353.396364 289.077552 
L 357.003636 289.077552 
L 360.610909 289.077552 
L 364.218182 289.077552 
L 367.825455 289.077552 
L 371.432727 289.077552 
L 375.04 289.077552 
L 378.647273 289.077552 
L 382.254545 289.077552 
L 385.861818 290.825225 
L 389.469091 290.825225 
L 393.076364 290.825225 
L 396.683636 290.825225 
L 400.290909 290.825225 
L 403.898182 290.825225 
L 407.505455 290.825225 
L 411.112727 290.825225 
L 414.72 290.825225 
L 414.72 288.768 
L 414.72 286.798207 
L 411.112727 286.798207 
L 407.505455 286.798207 
L 403.898182 286.798207 
L 400.290909 286.798207 
L 396.683636 286.798207 
L 393.076364 286.798207 
L 389.469091 286.798207 
L 385.861818 286.798207 
L 382.974613 286.08 
L 382.974613 283.392 
L 382.254545 283.055668 
L 378.647273 283.055668 
L 375.04 283.055668 
L 371.432727 283.055668 
L 367.825455 283.055668 
L 364.218182 283.055668 
L 360.610909 283.055668 
L 357.003636 283.055668 
L 353.396364 283.055668 
L 349.789091 283.055668 
L 346.181818 283.055668 
L 342.574545 283.055668 
L 338.967273 283.055668 
L 335.36 283.055668 
L 331.752727 283.055668 
L 328.145455 283.055668 
L 324.538182 283.055668 
L 320.930909 283.055668 
L 317.323636 283.055668 
L 313.716364 283.055668 
L 310.109091 283.055668 
L 306.501818 283.055668 
L 302.894545 283.055668 
L 299.287273 283.055668 
L 295.68 283.055668 
L 293.872288 283.392 
L 293.872288 286.08 
L 292.072727 286.258313 
L 288.465455 286.258313 
L 284.858182 286.258313 
L 281.250909 286.258313 
L 277.643636 286.635406 
L 274.036364 287.252541 
L 270.429091 287.252541 
L 266.821818 287.252541 
L 263.44377 288.768 
L 263.214545 288.968285 
L 259.607273 291.331515 
L 256 291.331515 
L 255.406423 291.456 
L 255.406423 294.144 
L 255.406423 296.832 
L 255.406423 299.52 
L 252.392727 300.555937 
L 248.785455 300.555937 
L 245.178182 300.555937 
L 244.03333 302.208 
L 244.03333 304.896 
L 244.03333 307.584 
z
" clip-path="url(#p2e6e3b970f)" style="fill: #73d056; fill-opacity: 0.75"/>
   </g>
   <g id="PathCollection_7">
    <path d="M 266.821818 307.584 
L 270.429091 307.584 
L 274.036364 307.584 
L 277.643636 307.584 
L 281.250909 307.584 
L 284.858182 307.584 
L 288.465455 307.584 
L 292.072727 307.584 
L 295.68 307.584 
L 299.287273 307.584 
L 302.894545 307.584 
L 306.501818 307.584 
L 310.109091 307.584 
L 313.716364 307.584 
L 317.323636 307.584 
L 320.930909 307.584 
L 324.538182 307.584 
L 328.145455 307.584 
L 331.752727 307.584 
L 335.36 307.584 
L 338.967273 307.584 
L 342.574545 307.584 
L 346.181818 307.584 
L 349.789091 307.584 
L 353.396364 307.584 
L 357.003636 307.584 
L 360.610909 307.584 
L 364.218182 307.584 
L 367.825455 307.584 
L 371.432727 307.584 
L 375.04 307.584 
L 378.647273 307.584 
L 382.254545 307.584 
L 385.861818 307.584 
L 389.469091 307.584 
L 393.076364 307.584 
L 396.683636 307.584 
L 400.290909 307.584 
L 403.898182 307.584 
L 407.505455 307.584 
L 411.112727 307.584 
L 414.72 307.584 
L 414.72 304.896 
L 414.72 302.208 
L 414.72 299.52 
L 414.72 296.832 
L 414.72 294.144 
L 414.72 291.456 
L 414.72 290.825225 
L 411.112727 290.825225 
L 407.505455 290.825225 
L 403.898182 290.825225 
L 400.290909 290.825225 
L 396.683636 290.825225 
L 393.076364 290.825225 
L 389.469091 290.825225 
L 385.861818 290.825225 
L 382.254545 289.077552 
L 378.647273 289.077552 
L 375.04 289.077552 
L 371.432727 289.077552 
L 367.825455 289.077552 
L 364.218182 289.077552 
L 360.610909 289.077552 
L 357.003636 289.077552 
L 353.396364 289.077552 
L 349.789091 289.077552 
L 346.181818 289.077552 
L 342.574545 289.077552 
L 338.967273 289.077552 
L 335.36 289.077552 
L 331.752727 289.077552 
L 328.145455 289.077552 
L 324.538182 289.077552 
L 320.930909 289.077552 
L 317.323636 289.077552 
L 313.716364 289.077552 
L 310.109091 289.077552 
L 306.501818 289.077552 
L 302.894545 289.077552 
L 299.287273 289.077552 
L 295.68 289.077552 
L 292.072727 289.773704 
L 288.465455 289.773704 
L 284.858182 289.773704 
L 281.250909 289.773704 
L 277.643636 290.508146 
L 274.798976 291.456 
L 274.798976 294.144 
L 274.798976 296.832 
L 274.798976 299.52 
L 274.036364 299.936494 
L 270.429091 299.936494 
L 266.821818 299.936494 
L 265.235711 302.208 
L 265.235711 304.896 
L 265.235711 307.584 
z
" clip-path="url(#p2e6e3b970f)" style="fill: #d0e11c; fill-opacity: 0.75"/>
   </g>
   <g id="matplotlib.axis_1">
    <g id="xtick_1">
     <g id="line2d_1">
      <defs>
       <path id="m678b6dc6dd" d="M 0 0 
L 0 3.5 
" style="stroke: #000000; stroke-width: 0.8"/>
      </defs>
      <g>
       <use xlink:href="#m678b6dc6dd" x="101.844538" y="307.584" style="stroke: #000000; stroke-width: 0.8"/>
      </g>
     </g>
     <g id="text_1">
      <!-- −1.0 -->
      <g transform="translate(89.703131 322.182437) scale(0.1 -0.1)">
       <defs>
        <path id="DejaVuSans-2212" d="M 678 2272 
L 4684 2272 
L 4684 1741 
L 678 1741 
L 678 2272 
z
" transform="scale(0.015625)"/>
        <path id="DejaVuSans-31" d="M 794 531 
L 1825 531 
L 1825 4091 
L 703 3866 
L 703 4441 
L 1819 4666 
L 2450 4666 
L 2450 531 
L 3481 531 
L 3481 0 
L 794 0 
L 794 531 
z
" transform="scale(0.015625)"/>
        <path id="DejaVuSans-2e" d="M 684 794 
L 1344 794 
L 1344 0 
L 684 0 
L 684 794 
z
" transform="scale(0.015625)"/>
        <path id="DejaVuSans-30" d="M 2034 4250 
Q 1547 4250 1301 3770 
Q 1056 3291 1056 2328 
Q 1056 1369 1301 889 
Q 1547 409 2034 409 
Q 2525 409 2770 889 
Q 3016 1369 3016 2328 
Q 3016 3291 2770 3770 
Q 2525 4250 2034 4250 
z
M 2034 4750 
Q 2819 4750 3233 4129 
Q 3647 3509 3647 2328 
Q 3647 1150 3233 529 
Q 2819 -91 2034 -91 
Q 1250 -91 836 529 
Q 422 1150 422 2328 
Q 422 3509 836 4129 
Q 1250 4750 2034 4750 
z
" transform="scale(0.015625)"/>
       </defs>
       <use xlink:href="#DejaVuSans-2212"/>
       <use xlink:href="#DejaVuSans-31" x="83.789062"/>
       <use xlink:href="#DejaVuSans-2e" x="147.412109"/>
       <use xlink:href="#DejaVuSans-30" x="179.199219"/>
      </g>
     </g>
    </g>
    <g id="xtick_2">
     <g id="line2d_2">
      <g>
       <use xlink:href="#m678b6dc6dd" x="159.887136" y="307.584" style="stroke: #000000; stroke-width: 0.8"/>
      </g>
     </g>
     <g id="text_2">
      <!-- −0.5 -->
      <g transform="translate(147.745729 322.182437) scale(0.1 -0.1)">
       <defs>
        <path id="DejaVuSans-35" d="M 691 4666 
L 3169 4666 
L 3169 4134 
L 1269 4134 
L 1269 2991 
Q 1406 3038 1543 3061 
Q 1681 3084 1819 3084 
Q 2600 3084 3056 2656 
Q 3513 2228 3513 1497 
Q 3513 744 3044 326 
Q 2575 -91 1722 -91 
Q 1428 -91 1123 -41 
Q 819 9 494 109 
L 494 744 
Q 775 591 1075 516 
Q 1375 441 1709 441 
Q 2250 441 2565 725 
Q 2881 1009 2881 1497 
Q 2881 1984 2565 2268 
Q 2250 2553 1709 2553 
Q 1456 2553 1204 2497 
Q 953 2441 691 2322 
L 691 4666 
z
" transform="scale(0.015625)"/>
       </defs>
       <use xlink:href="#DejaVuSans-2212"/>
       <use xlink:href="#DejaVuSans-30" x="83.789062"/>
       <use xlink:href="#DejaVuSans-2e" x="147.412109"/>
       <use xlink:href="#DejaVuSans-35" x="179.199219"/>
      </g>
     </g>
    </g>
    <g id="xtick_3">
     <g id="line2d_3">
      <g>
       <use xlink:href="#m678b6dc6dd" x="217.929734" y="307.584" style="stroke: #000000; stroke-width: 0.8"/>
      </g>
     </g>
     <g id="text_3">
      <!-- 0.0 -->
      <g transform="translate(209.978171 322.182437) scale(0.1 -0.1)">
       <use xlink:href="#DejaVuSans-30"/>
       <use xlink:href="#DejaVuSans-2e" x="63.623047"/>
       <use xlink:href="#DejaVuSans-30" x="95.410156"/>
      </g>
     </g>
    </g>
    <g id="xtick_4">
     <g id="line2d_4">
      <g>
       <use xlink:href="#m678b6dc6dd" x="275.972332" y="307.584" style="stroke: #000000; stroke-width: 0.8"/>
      </g>
     </g>
     <g id="text_4">
      <!-- 0.5 -->
      <g transform="translate(268.020769 322.182437) scale(0.1 -0.1)">
       <use xlink:href="#DejaVuSans-30"/>
       <use xlink:href="#DejaVuSans-2e" x="63.623047"/>
       <use xlink:href="#DejaVuSans-35" x="95.410156"/>
      </g>
     </g>
    </g>
    <g id="xtick_5">
     <g id="line2d_5">
      <g>
       <use xlink:href="#m678b6dc6dd" x="334.01493" y="307.584" style="stroke: #000000; stroke-width: 0.8"/>
      </g>
     </g>
     <g id="text_5">
      <!-- 1.0 -->
      <g transform="translate(326.063368 322.182437) scale(0.1 -0.1)">
       <use xlink:href="#DejaVuSans-31"/>
       <use xlink:href="#DejaVuSans-2e" x="63.623047"/>
       <use xlink:href="#DejaVuSans-30" x="95.410156"/>
      </g>
     </g>
    </g>
    <g id="xtick_6">
     <g id="line2d_6">
      <g>
       <use xlink:href="#m678b6dc6dd" x="392.057528" y="307.584" style="stroke: #000000; stroke-width: 0.8"/>
      </g>
     </g>
     <g id="text_6">
      <!-- 1.5 -->
      <g transform="translate(384.105966 322.182437) scale(0.1 -0.1)">
       <use xlink:href="#DejaVuSans-31"/>
       <use xlink:href="#DejaVuSans-2e" x="63.623047"/>
       <use xlink:href="#DejaVuSans-35" x="95.410156"/>
      </g>
     </g>
    </g>
    <g id="text_7">
     <!-- Smoking Prevalence -->
     <g transform="translate(185.409219 335.860562) scale(0.1 -0.1)">
      <defs>
       <path id="DejaVuSans-53" d="M 3425 4513 
L 3425 3897 
Q 3066 4069 2747 4153 
Q 2428 4238 2131 4238 
Q 1616 4238 1336 4038 
Q 1056 3838 1056 3469 
Q 1056 3159 1242 3001 
Q 1428 2844 1947 2747 
L 2328 2669 
Q 3034 2534 3370 2195 
Q 3706 1856 3706 1288 
Q 3706 609 3251 259 
Q 2797 -91 1919 -91 
Q 1588 -91 1214 -16 
Q 841 59 441 206 
L 441 856 
Q 825 641 1194 531 
Q 1563 422 1919 422 
Q 2459 422 2753 634 
Q 3047 847 3047 1241 
Q 3047 1584 2836 1778 
Q 2625 1972 2144 2069 
L 1759 2144 
Q 1053 2284 737 2584 
Q 422 2884 422 3419 
Q 422 4038 858 4394 
Q 1294 4750 2059 4750 
Q 2388 4750 2728 4690 
Q 3069 4631 3425 4513 
z
" transform="scale(0.015625)"/>
       <path id="DejaVuSans-6d" d="M 3328 2828 
Q 3544 3216 3844 3400 
Q 4144 3584 4550 3584 
Q 5097 3584 5394 3201 
Q 5691 2819 5691 2113 
L 5691 0 
L 5113 0 
L 5113 2094 
Q 5113 2597 4934 2840 
Q 4756 3084 4391 3084 
Q 3944 3084 3684 2787 
Q 3425 2491 3425 1978 
L 3425 0 
L 2847 0 
L 2847 2094 
Q 2847 2600 2669 2842 
Q 2491 3084 2119 3084 
Q 1678 3084 1418 2786 
Q 1159 2488 1159 1978 
L 1159 0 
L 581 0 
L 581 3500 
L 1159 3500 
L 1159 2956 
Q 1356 3278 1631 3431 
Q 1906 3584 2284 3584 
Q 2666 3584 2933 3390 
Q 3200 3197 3328 2828 
z
" transform="scale(0.015625)"/>
       <path id="DejaVuSans-6f" d="M 1959 3097 
Q 1497 3097 1228 2736 
Q 959 2375 959 1747 
Q 959 1119 1226 758 
Q 1494 397 1959 397 
Q 2419 397 2687 759 
Q 2956 1122 2956 1747 
Q 2956 2369 2687 2733 
Q 2419 3097 1959 3097 
z
M 1959 3584 
Q 2709 3584 3137 3096 
Q 3566 2609 3566 1747 
Q 3566 888 3137 398 
Q 2709 -91 1959 -91 
Q 1206 -91 779 398 
Q 353 888 353 1747 
Q 353 2609 779 3096 
Q 1206 3584 1959 3584 
z
" transform="scale(0.015625)"/>
       <path id="DejaVuSans-6b" d="M 581 4863 
L 1159 4863 
L 1159 1991 
L 2875 3500 
L 3609 3500 
L 1753 1863 
L 3688 0 
L 2938 0 
L 1159 1709 
L 1159 0 
L 581 0 
L 581 4863 
z
" transform="scale(0.015625)"/>
       <path id="DejaVuSans-69" d="M 603 3500 
L 1178 3500 
L 1178 0 
L 603 0 
L 603 3500 
z
M 603 4863 
L 1178 4863 
L 1178 4134 
L 603 4134 
L 603 4863 
z
" transform="scale(0.015625)"/>
       <path id="DejaVuSans-6e" d="M 3513 2113 
L 3513 0 
L 2938 0 
L 2938 2094 
Q 2938 2591 2744 2837 
Q 2550 3084 2163 3084 
Q 1697 3084 1428 2787 
Q 1159 2491 1159 1978 
L 1159 0 
L 581 0 
L 581 3500 
L 1159 3500 
L 1159 2956 
Q 1366 3272 1645 3428 
Q 1925 3584 2291 3584 
Q 2894 3584 3203 3211 
Q 3513 2838 3513 2113 
z
" transform="scale(0.015625)"/>
       <path id="DejaVuSans-67" d="M 2906 1791 
Q 2906 2416 2648 2759 
Q 2391 3103 1925 3103 
Q 1463 3103 1205 2759 
Q 947 2416 947 1791 
Q 947 1169 1205 825 
Q 1463 481 1925 481 
Q 2391 481 2648 825 
Q 2906 1169 2906 1791 
z
M 3481 434 
Q 3481 -459 3084 -895 
Q 2688 -1331 1869 -1331 
Q 1566 -1331 1297 -1286 
Q 1028 -1241 775 -1147 
L 775 -588 
Q 1028 -725 1275 -790 
Q 1522 -856 1778 -856 
Q 2344 -856 2625 -561 
Q 2906 -266 2906 331 
L 2906 616 
Q 2728 306 2450 153 
Q 2172 0 1784 0 
Q 1141 0 747 490 
Q 353 981 353 1791 
Q 353 2603 747 3093 
Q 1141 3584 1784 3584 
Q 2172 3584 2450 3431 
Q 2728 3278 2906 2969 
L 2906 3500 
L 3481 3500 
L 3481 434 
z
" transform="scale(0.015625)"/>
       <path id="DejaVuSans-20" transform="scale(0.015625)"/>
       <path id="DejaVuSans-50" d="M 1259 4147 
L 1259 2394 
L 2053 2394 
Q 2494 2394 2734 2622 
Q 2975 2850 2975 3272 
Q 2975 3691 2734 3919 
Q 2494 4147 2053 4147 
L 1259 4147 
z
M 628 4666 
L 2053 4666 
Q 2838 4666 3239 4311 
Q 3641 3956 3641 3272 
Q 3641 2581 3239 2228 
Q 2838 1875 2053 1875 
L 1259 1875 
L 1259 0 
L 628 0 
L 628 4666 
z
" transform="scale(0.015625)"/>
       <path id="DejaVuSans-72" d="M 2631 2963 
Q 2534 3019 2420 3045 
Q 2306 3072 2169 3072 
Q 1681 3072 1420 2755 
Q 1159 2438 1159 1844 
L 1159 0 
L 581 0 
L 581 3500 
L 1159 3500 
L 1159 2956 
Q 1341 3275 1631 3429 
Q 1922 3584 2338 3584 
Q 2397 3584 2469 3576 
Q 2541 3569 2628 3553 
L 2631 2963 
z
" transform="scale(0.015625)"/>
       <path id="DejaVuSans-65" d="M 3597 1894 
L 3597 1613 
L 953 1613 
Q 991 1019 1311 708 
Q 1631 397 2203 397 
Q 2534 397 2845 478 
Q 3156 559 3463 722 
L 3463 178 
Q 3153 47 2828 -22 
Q 2503 -91 2169 -91 
Q 1331 -91 842 396 
Q 353 884 353 1716 
Q 353 2575 817 3079 
Q 1281 3584 2069 3584 
Q 2775 3584 3186 3129 
Q 3597 2675 3597 1894 
z
M 3022 2063 
Q 3016 2534 2758 2815 
Q 2500 3097 2075 3097 
Q 1594 3097 1305 2825 
Q 1016 2553 972 2059 
L 3022 2063 
z
" transform="scale(0.015625)"/>
       <path id="DejaVuSans-76" d="M 191 3500 
L 800 3500 
L 1894 563 
L 2988 3500 
L 3597 3500 
L 2284 0 
L 1503 0 
L 191 3500 
z
" transform="scale(0.015625)"/>
       <path id="DejaVuSans-61" d="M 2194 1759 
Q 1497 1759 1228 1600 
Q 959 1441 959 1056 
Q 959 750 1161 570 
Q 1363 391 1709 391 
Q 2188 391 2477 730 
Q 2766 1069 2766 1631 
L 2766 1759 
L 2194 1759 
z
M 3341 1997 
L 3341 0 
L 2766 0 
L 2766 531 
Q 2569 213 2275 61 
Q 1981 -91 1556 -91 
Q 1019 -91 701 211 
Q 384 513 384 1019 
Q 384 1609 779 1909 
Q 1175 2209 1959 2209 
L 2766 2209 
L 2766 2266 
Q 2766 2663 2505 2880 
Q 2244 3097 1772 3097 
Q 1472 3097 1187 3025 
Q 903 2953 641 2809 
L 641 3341 
Q 956 3463 1253 3523 
Q 1550 3584 1831 3584 
Q 2591 3584 2966 3190 
Q 3341 2797 3341 1997 
z
" transform="scale(0.015625)"/>
       <path id="DejaVuSans-6c" d="M 603 4863 
L 1178 4863 
L 1178 0 
L 603 0 
L 603 4863 
z
" transform="scale(0.015625)"/>
       <path id="DejaVuSans-63" d="M 3122 3366 
L 3122 2828 
Q 2878 2963 2633 3030 
Q 2388 3097 2138 3097 
Q 1578 3097 1268 2742 
Q 959 2388 959 1747 
Q 959 1106 1268 751 
Q 1578 397 2138 397 
Q 2388 397 2633 464 
Q 2878 531 3122 666 
L 3122 134 
Q 2881 22 2623 -34 
Q 2366 -91 2075 -91 
Q 1284 -91 818 406 
Q 353 903 353 1747 
Q 353 2603 823 3093 
Q 1294 3584 2113 3584 
Q 2378 3584 2631 3529 
Q 2884 3475 3122 3366 
z
" transform="scale(0.015625)"/>
      </defs>
      <use xlink:href="#DejaVuSans-53"/>
      <use xlink:href="#DejaVuSans-6d" x="63.476562"/>
      <use xlink:href="#DejaVuSans-6f" x="160.888672"/>
      <use xlink:href="#DejaVuSans-6b" x="222.070312"/>
      <use xlink:href="#DejaVuSans-69" x="279.980469"/>
      <use xlink:href="#DejaVuSans-6e" x="307.763672"/>
      <use xlink:href="#DejaVuSans-67" x="371.142578"/>
      <use xlink:href="#DejaVuSans-20" x="434.619141"/>
      <use xlink:href="#DejaVuSans-50" x="466.40625"/>
      <use xlink:href="#DejaVuSans-72" x="524.958984"/>
      <use xlink:href="#DejaVuSans-65" x="563.822266"/>
      <use xlink:href="#DejaVuSans-76" x="625.345703"/>
      <use xlink:href="#DejaVuSans-61" x="684.525391"/>
      <use xlink:href="#DejaVuSans-6c" x="745.804688"/>
      <use xlink:href="#DejaVuSans-65" x="773.587891"/>
      <use xlink:href="#DejaVuSans-6e" x="835.111328"/>
      <use xlink:href="#DejaVuSans-63" x="898.490234"/>
      <use xlink:href="#DejaVuSans-65" x="953.470703"/>
     </g>
    </g>
   </g>
   <g id="matplotlib.axis_2">
    <g id="ytick_1">
     <g id="line2d_7">
      <defs>
       <path id="mf947acc885" d="M 0 0 
L -3.5 0 
" style="stroke: #000000; stroke-width: 0.8"/>
      </defs>
      <g>
       <use xlink:href="#mf947acc885" x="57.6" y="293.2277" style="stroke: #000000; stroke-width: 0.8"/>
      </g>
     </g>
     <g id="text_8">
      <!-- −0.5 -->
      <g transform="translate(26.317187 297.026919) scale(0.1 -0.1)">
       <use xlink:href="#DejaVuSans-2212"/>
       <use xlink:href="#DejaVuSans-30" x="83.789062"/>
       <use xlink:href="#DejaVuSans-2e" x="147.412109"/>
       <use xlink:href="#DejaVuSans-35" x="179.199219"/>
      </g>
     </g>
    </g>
    <g id="ytick_2">
     <g id="line2d_8">
      <g>
       <use xlink:href="#mf947acc885" x="57.6" y="248.24031" style="stroke: #000000; stroke-width: 0.8"/>
      </g>
     </g>
     <g id="text_9">
      <!-- 0.0 -->
      <g transform="translate(34.696875 252.039529) scale(0.1 -0.1)">
       <use xlink:href="#DejaVuSans-30"/>
       <use xlink:href="#DejaVuSans-2e" x="63.623047"/>
       <use xlink:href="#DejaVuSans-30" x="95.410156"/>
      </g>
     </g>
    </g>
    <g id="ytick_3">
     <g id="line2d_9">
      <g>
       <use xlink:href="#mf947acc885" x="57.6" y="203.25292" style="stroke: #000000; stroke-width: 0.8"/>
      </g>
     </g>
     <g id="text_10">
      <!-- 0.5 -->
      <g transform="translate(34.696875 207.052138) scale(0.1 -0.1)">
       <use xlink:href="#DejaVuSans-30"/>
       <use xlink:href="#DejaVuSans-2e" x="63.623047"/>
       <use xlink:href="#DejaVuSans-35" x="95.410156"/>
      </g>
     </g>
    </g>
    <g id="ytick_4">
     <g id="line2d_10">
      <g>
       <use xlink:href="#mf947acc885" x="57.6" y="158.265529" style="stroke: #000000; stroke-width: 0.8"/>
      </g>
     </g>
     <g id="text_11">
      <!-- 1.0 -->
      <g transform="translate(34.696875 162.064748) scale(0.1 -0.1)">
       <use xlink:href="#DejaVuSans-31"/>
       <use xlink:href="#DejaVuSans-2e" x="63.623047"/>
       <use xlink:href="#DejaVuSans-30" x="95.410156"/>
      </g>
     </g>
    </g>
    <g id="ytick_5">
     <g id="line2d_11">
      <g>
       <use xlink:href="#mf947acc885" x="57.6" y="113.278139" style="stroke: #000000; stroke-width: 0.8"/>
      </g>
     </g>
     <g id="text_12">
      <!-- 1.5 -->
      <g transform="translate(34.696875 117.077358) scale(0.1 -0.1)">
       <use xlink:href="#DejaVuSans-31"/>
       <use xlink:href="#DejaVuSans-2e" x="63.623047"/>
       <use xlink:href="#DejaVuSans-35" x="95.410156"/>
      </g>
     </g>
    </g>
    <g id="ytick_6">
     <g id="line2d_12">
      <g>
       <use xlink:href="#mf947acc885" x="57.6" y="68.290749" style="stroke: #000000; stroke-width: 0.8"/>
      </g>
     </g>
     <g id="text_13">
      <!-- 2.0 -->
      <g transform="translate(34.696875 72.089968) scale(0.1 -0.1)">
       <defs>
        <path id="DejaVuSans-32" d="M 1228 531 
L 3431 531 
L 3431 0 
L 469 0 
L 469 531 
Q 828 903 1448 1529 
Q 2069 2156 2228 2338 
Q 2531 2678 2651 2914 
Q 2772 3150 2772 3378 
Q 2772 3750 2511 3984 
Q 2250 4219 1831 4219 
Q 1534 4219 1204 4116 
Q 875 4013 500 3803 
L 500 4441 
Q 881 4594 1212 4672 
Q 1544 4750 1819 4750 
Q 2544 4750 2975 4387 
Q 3406 4025 3406 3419 
Q 3406 3131 3298 2873 
Q 3191 2616 2906 2266 
Q 2828 2175 2409 1742 
Q 1991 1309 1228 531 
z
" transform="scale(0.015625)"/>
       </defs>
       <use xlink:href="#DejaVuSans-32"/>
       <use xlink:href="#DejaVuSans-2e" x="63.623047"/>
       <use xlink:href="#DejaVuSans-30" x="95.410156"/>
      </g>
     </g>
    </g>
    <g id="text_14">
     <!-- Sheep &amp; Goat Consumption -->
     <g transform="translate(20.2375 243.937375) rotate(-90) scale(0.1 -0.1)">
      <defs>
       <path id="DejaVuSans-68" d="M 3513 2113 
L 3513 0 
L 2938 0 
L 2938 2094 
Q 2938 2591 2744 2837 
Q 2550 3084 2163 3084 
Q 1697 3084 1428 2787 
Q 1159 2491 1159 1978 
L 1159 0 
L 581 0 
L 581 4863 
L 1159 4863 
L 1159 2956 
Q 1366 3272 1645 3428 
Q 1925 3584 2291 3584 
Q 2894 3584 3203 3211 
Q 3513 2838 3513 2113 
z
" transform="scale(0.015625)"/>
       <path id="DejaVuSans-70" d="M 1159 525 
L 1159 -1331 
L 581 -1331 
L 581 3500 
L 1159 3500 
L 1159 2969 
Q 1341 3281 1617 3432 
Q 1894 3584 2278 3584 
Q 2916 3584 3314 3078 
Q 3713 2572 3713 1747 
Q 3713 922 3314 415 
Q 2916 -91 2278 -91 
Q 1894 -91 1617 61 
Q 1341 213 1159 525 
z
M 3116 1747 
Q 3116 2381 2855 2742 
Q 2594 3103 2138 3103 
Q 1681 3103 1420 2742 
Q 1159 2381 1159 1747 
Q 1159 1113 1420 752 
Q 1681 391 2138 391 
Q 2594 391 2855 752 
Q 3116 1113 3116 1747 
z
" transform="scale(0.015625)"/>
       <path id="DejaVuSans-26" d="M 1556 2509 
Q 1272 2256 1139 2004 
Q 1006 1753 1006 1478 
Q 1006 1022 1337 719 
Q 1669 416 2169 416 
Q 2466 416 2725 514 
Q 2984 613 3213 813 
L 1556 2509 
z
M 1997 2859 
L 3584 1234 
Q 3769 1513 3872 1830 
Q 3975 2147 3994 2503 
L 4575 2503 
Q 4538 2091 4375 1687 
Q 4213 1284 3922 891 
L 4794 0 
L 4006 0 
L 3559 459 
Q 3234 181 2878 45 
Q 2522 -91 2113 -91 
Q 1359 -91 881 339 
Q 403 769 403 1441 
Q 403 1841 612 2192 
Q 822 2544 1241 2853 
Q 1091 3050 1012 3245 
Q 934 3441 934 3628 
Q 934 4134 1281 4442 
Q 1628 4750 2203 4750 
Q 2463 4750 2720 4694 
Q 2978 4638 3244 4525 
L 3244 3956 
Q 2972 4103 2725 4179 
Q 2478 4256 2266 4256 
Q 1938 4256 1733 4082 
Q 1528 3909 1528 3634 
Q 1528 3475 1620 3314 
Q 1713 3153 1997 2859 
z
" transform="scale(0.015625)"/>
       <path id="DejaVuSans-47" d="M 3809 666 
L 3809 1919 
L 2778 1919 
L 2778 2438 
L 4434 2438 
L 4434 434 
Q 4069 175 3628 42 
Q 3188 -91 2688 -91 
Q 1594 -91 976 548 
Q 359 1188 359 2328 
Q 359 3472 976 4111 
Q 1594 4750 2688 4750 
Q 3144 4750 3555 4637 
Q 3966 4525 4313 4306 
L 4313 3634 
Q 3963 3931 3569 4081 
Q 3175 4231 2741 4231 
Q 1884 4231 1454 3753 
Q 1025 3275 1025 2328 
Q 1025 1384 1454 906 
Q 1884 428 2741 428 
Q 3075 428 3337 486 
Q 3600 544 3809 666 
z
" transform="scale(0.015625)"/>
       <path id="DejaVuSans-74" d="M 1172 4494 
L 1172 3500 
L 2356 3500 
L 2356 3053 
L 1172 3053 
L 1172 1153 
Q 1172 725 1289 603 
Q 1406 481 1766 481 
L 2356 481 
L 2356 0 
L 1766 0 
Q 1100 0 847 248 
Q 594 497 594 1153 
L 594 3053 
L 172 3053 
L 172 3500 
L 594 3500 
L 594 4494 
L 1172 4494 
z
" transform="scale(0.015625)"/>
       <path id="DejaVuSans-43" d="M 4122 4306 
L 4122 3641 
Q 3803 3938 3442 4084 
Q 3081 4231 2675 4231 
Q 1875 4231 1450 3742 
Q 1025 3253 1025 2328 
Q 1025 1406 1450 917 
Q 1875 428 2675 428 
Q 3081 428 3442 575 
Q 3803 722 4122 1019 
L 4122 359 
Q 3791 134 3420 21 
Q 3050 -91 2638 -91 
Q 1578 -91 968 557 
Q 359 1206 359 2328 
Q 359 3453 968 4101 
Q 1578 4750 2638 4750 
Q 3056 4750 3426 4639 
Q 3797 4528 4122 4306 
z
" transform="scale(0.015625)"/>
       <path id="DejaVuSans-73" d="M 2834 3397 
L 2834 2853 
Q 2591 2978 2328 3040 
Q 2066 3103 1784 3103 
Q 1356 3103 1142 2972 
Q 928 2841 928 2578 
Q 928 2378 1081 2264 
Q 1234 2150 1697 2047 
L 1894 2003 
Q 2506 1872 2764 1633 
Q 3022 1394 3022 966 
Q 3022 478 2636 193 
Q 2250 -91 1575 -91 
Q 1294 -91 989 -36 
Q 684 19 347 128 
L 347 722 
Q 666 556 975 473 
Q 1284 391 1588 391 
Q 1994 391 2212 530 
Q 2431 669 2431 922 
Q 2431 1156 2273 1281 
Q 2116 1406 1581 1522 
L 1381 1569 
Q 847 1681 609 1914 
Q 372 2147 372 2553 
Q 372 3047 722 3315 
Q 1072 3584 1716 3584 
Q 2034 3584 2315 3537 
Q 2597 3491 2834 3397 
z
" transform="scale(0.015625)"/>
       <path id="DejaVuSans-75" d="M 544 1381 
L 544 3500 
L 1119 3500 
L 1119 1403 
Q 1119 906 1312 657 
Q 1506 409 1894 409 
Q 2359 409 2629 706 
Q 2900 1003 2900 1516 
L 2900 3500 
L 3475 3500 
L 3475 0 
L 2900 0 
L 2900 538 
Q 2691 219 2414 64 
Q 2138 -91 1772 -91 
Q 1169 -91 856 284 
Q 544 659 544 1381 
z
M 1991 3584 
L 1991 3584 
z
" transform="scale(0.015625)"/>
      </defs>
      <use xlink:href="#DejaVuSans-53"/>
      <use xlink:href="#DejaVuSans-68" x="63.476562"/>
      <use xlink:href="#DejaVuSans-65" x="126.855469"/>
      <use xlink:href="#DejaVuSans-65" x="188.378906"/>
      <use xlink:href="#DejaVuSans-70" x="249.902344"/>
      <use xlink:href="#DejaVuSans-20" x="313.378906"/>
      <use xlink:href="#DejaVuSans-26" x="345.166016"/>
      <use xlink:href="#DejaVuSans-20" x="423.144531"/>
      <use xlink:href="#DejaVuSans-47" x="454.931641"/>
      <use xlink:href="#DejaVuSans-6f" x="532.421875"/>
      <use xlink:href="#DejaVuSans-61" x="593.603516"/>
      <use xlink:href="#DejaVuSans-74" x="654.882812"/>
      <use xlink:href="#DejaVuSans-20" x="694.091797"/>
      <use xlink:href="#DejaVuSans-43" x="725.878906"/>
      <use xlink:href="#DejaVuSans-6f" x="795.703125"/>
      <use xlink:href="#DejaVuSans-6e" x="856.884766"/>
      <use xlink:href="#DejaVuSans-73" x="920.263672"/>
      <use xlink:href="#DejaVuSans-75" x="972.363281"/>
      <use xlink:href="#DejaVuSans-6d" x="1035.742188"/>
      <use xlink:href="#DejaVuSans-70" x="1133.154297"/>
      <use xlink:href="#DejaVuSans-74" x="1196.630859"/>
      <use xlink:href="#DejaVuSans-69" x="1235.839844"/>
      <use xlink:href="#DejaVuSans-6f" x="1263.623047"/>
      <use xlink:href="#DejaVuSans-6e" x="1324.804688"/>
     </g>
    </g>
   </g>
   <g id="PathCollection_8"/>
   <g id="PathCollection_9">
    <path d="M 206.639136 41.472 
L 206.639136 44.16 
L 206.639136 46.848 
L 206.639136 49.536 
L 206.639136 52.224 
L 206.639136 54.912 
L 206.639136 57.6 
L 206.639136 60.288 
L 206.639136 62.976 
L 206.639136 65.664 
L 206.639136 68.352 
L 206.639136 70.653 
" clip-path="url(#p2e6e3b970f)" style="fill: none; stroke-dasharray: 1.85,0.8; stroke-dashoffset: 0; stroke: #000000; stroke-width: 0.5"/>
    <path d="M 206.639136 103.683 
L 206.639136 105.984 
L 206.639136 108.672 
L 206.639136 111.36 
L 206.639136 114.048 
L 206.639136 116.736 
L 206.639136 119.424 
L 206.639136 122.112 
L 206.639136 124.8 
L 206.639136 127.488 
L 206.639136 130.176 
L 206.639136 132.864 
L 206.639136 135.552 
L 206.639136 138.24 
L 206.639136 140.928 
L 206.639136 143.616 
L 206.639136 146.304 
L 206.639136 148.992 
L 206.639136 151.68 
L 206.639136 154.368 
L 206.639136 157.056 
L 206.639136 159.744 
L 206.639136 162.432 
L 206.639136 165.12 
L 206.639136 167.808 
L 206.639136 170.496 
L 206.639136 173.184 
L 206.639136 175.872 
L 206.639136 178.56 
L 206.639136 181.248 
L 206.639136 183.936 
L 206.639136 186.624 
L 206.639136 189.312 
L 206.639136 192 
L 206.639136 194.688 
L 206.639136 197.376 
L 206.639136 200.064 
L 206.639136 202.752 
L 206.639136 205.44 
L 206.639136 208.128 
L 206.639136 210.816 
L 206.639136 213.504 
L 206.639136 216.192 
L 206.639136 218.88 
L 206.639136 221.568 
L 206.639136 224.256 
L 206.639136 226.944 
L 206.639136 229.632 
L 206.639136 232.32 
L 206.639136 235.008 
L 206.639136 237.696 
L 206.639136 240.384 
L 206.639136 243.072 
L 206.639136 245.76 
L 206.639136 248.448 
L 206.639136 251.136 
L 206.639136 253.824 
L 206.639136 256.512 
L 206.639136 259.2 
L 206.639136 261.888 
L 206.639136 264.576 
L 206.639136 267.264 
L 206.639136 269.952 
L 206.639136 272.64 
L 206.639136 275.328 
L 206.639136 278.016 
L 205.614515 280.704 
L 205.498182 280.831307 
L 201.890909 280.831307 
L 198.283636 280.831307 
L 194.676364 280.831307 
L 191.069091 280.831307 
L 187.461818 280.831307 
L 183.854545 282.556834 
L 180.247273 282.556834 
L 176.64 282.556834 
L 173.032727 283.015127 
L 169.425455 283.199086 
L 165.818182 283.199086 
L 162.210909 283.199086 
L 158.603636 283.199086 
L 154.996364 283.199086 
L 151.389091 283.199086 
L 147.781818 283.199086 
L 144.174545 283.199086 
L 140.567273 283.199086 
L 137.867112 283.392 
L 137.867112 286.08 
L 136.96 286.114515 
L 133.352727 286.114515 
L 129.745455 286.114515 
L 126.138182 286.114515 
L 122.530909 286.114515 
L 118.923636 286.114515 
L 115.316364 286.114515 
L 111.709091 286.114515 
L 108.101818 286.114515 
L 104.494545 286.114515 
L 100.887273 286.114515 
L 97.28 286.114515 
L 93.672727 286.114515 
L 90.065455 286.114515 
L 86.458182 286.114515 
L 82.850909 286.114515 
L 79.243636 286.114515 
L 75.636364 286.114515 
L 72.029091 286.114515 
L 68.421818 286.114515 
L 64.814545 286.114515 
L 61.207273 286.114515 
L 57.6 286.114515 
" clip-path="url(#p2e6e3b970f)" style="fill: none; stroke-dasharray: 1.85,0.8; stroke-dashoffset: 0; stroke: #000000; stroke-width: 0.5"/>
   </g>
   <g id="PathCollection_10">
    <path d="M 232.088761 41.472 
L 232.088761 44.16 
L 232.088761 46.848 
L 232.088761 49.536 
L 232.088761 52.224 
L 232.088761 54.912 
L 232.088761 57.6 
L 232.088761 60.288 
L 232.088761 62.976 
L 232.088761 65.664 
L 232.088761 68.352 
L 232.088761 71.04 
L 232.088761 73.728 
L 232.088761 76.416 
L 232.088761 79.104 
L 232.088761 81.792 
L 232.088761 84.48 
L 232.088761 87.168 
L 232.088761 89.856 
L 232.088761 92.544 
L 232.088761 95.232 
L 232.088761 97.92 
L 232.088761 100.608 
L 232.088761 103.296 
L 232.088761 105.984 
L 232.088761 108.672 
L 232.088761 111.36 
L 232.088761 114.048 
L 232.088761 116.736 
L 232.088761 119.424 
L 232.088761 122.112 
L 232.088761 124.8 
L 232.088761 127.488 
L 232.088761 130.176 
L 232.088761 132.864 
L 232.088761 135.552 
L 232.088761 138.24 
L 232.088761 140.928 
L 232.088761 143.616 
L 232.088761 146.304 
L 232.088761 148.992 
L 232.088761 151.68 
L 232.088761 154.368 
L 232.088761 157.056 
L 232.088761 159.744 
L 232.088761 162.432 
L 232.088761 164.733 
" clip-path="url(#p2e6e3b970f)" style="fill: none; stroke-dasharray: 1.85,0.8; stroke-dashoffset: 0; stroke: #000000; stroke-width: 0.5"/>
    <path d="M 232.088761 197.763 
L 232.088761 200.064 
L 232.088761 202.752 
L 232.088761 205.44 
L 232.088761 208.128 
L 232.088761 210.816 
L 232.088761 213.504 
L 232.088761 216.192 
L 232.088761 218.88 
L 232.088761 221.568 
L 232.088761 224.256 
L 232.088761 226.944 
L 232.088761 229.632 
L 232.088761 232.32 
L 232.088761 235.008 
L 232.088761 237.696 
L 232.088761 240.384 
L 232.088761 243.072 
L 232.088761 245.76 
L 232.088761 248.448 
L 232.088761 251.136 
L 232.088761 253.824 
L 232.088761 256.512 
L 232.088761 259.2 
L 232.088761 261.888 
L 232.088761 264.576 
L 232.088761 267.264 
L 232.088761 269.952 
L 232.088761 272.64 
L 232.088761 275.328 
L 232.088761 278.016 
L 230.749091 279.20667 
L 227.141818 279.20667 
L 223.534545 279.20667 
L 219.927273 279.20667 
L 216.32 279.20667 
L 213.026258 280.704 
L 212.712727 280.763455 
L 209.105455 282.565746 
L 208.350423 283.392 
L 208.350423 286.08 
L 205.498182 287.742309 
L 201.890909 287.742309 
L 198.283636 287.742309 
L 194.676364 287.742309 
L 191.069091 287.742309 
L 187.461818 287.742309 
L 183.854545 288.661273 
L 180.247273 288.661273 
L 176.64 288.661273 
L 175.062628 288.768 
L 173.032727 289.035501 
L 169.425455 289.226313 
L 165.818182 289.226313 
L 162.210909 289.226313 
L 158.603636 289.226313 
L 154.996364 289.226313 
L 151.389091 289.226313 
L 147.781818 289.226313 
L 144.174545 289.226313 
L 140.567273 289.226313 
L 136.96 289.493638 
L 133.352727 289.493638 
L 129.745455 289.493638 
L 126.138182 289.493638 
L 122.530909 289.493638 
L 118.923636 289.493638 
L 115.316364 289.493638 
L 111.709091 289.493638 
L 108.101818 289.493638 
L 104.494545 289.493638 
L 100.887273 289.493638 
L 97.28 289.493638 
L 93.672727 289.493638 
L 90.065455 289.493638 
L 86.458182 289.493638 
L 82.850909 289.493638 
L 79.243636 289.493638 
L 75.636364 289.493638 
L 72.029091 289.493638 
L 68.421818 289.493638 
L 64.814545 289.493638 
L 61.207273 289.493638 
L 57.6 289.493638 
" clip-path="url(#p2e6e3b970f)" style="fill: none; stroke-dasharray: 1.85,0.8; stroke-dashoffset: 0; stroke: #000000; stroke-width: 0.5"/>
   </g>
   <g id="PathCollection_11">
    <path d="M 255.821742 41.472 
L 255.821742 44.16 
L 255.821742 46.848 
L 255.821742 49.536 
L 255.821742 52.224 
L 255.821742 54.912 
L 255.821742 57.6 
L 255.821742 60.288 
L 255.821742 62.976 
L 255.821742 65.664 
L 255.821742 68.352 
L 255.821742 70.653 
" clip-path="url(#p2e6e3b970f)" style="fill: none; stroke-dasharray: 1.85,0.8; stroke-dashoffset: 0; stroke: #000000; stroke-width: 0.5"/>
    <path d="M 255.821742 103.683 
L 255.821742 105.984 
L 255.821742 108.672 
L 255.821742 111.36 
L 255.821742 114.048 
L 255.821742 116.736 
L 255.821742 119.424 
L 255.821742 122.112 
L 255.821742 124.8 
L 255.821742 127.488 
L 255.821742 130.176 
L 255.821742 132.864 
L 255.821742 135.552 
L 255.821742 138.24 
L 255.821742 140.928 
L 255.821742 143.616 
L 255.821742 146.304 
L 255.821742 148.992 
L 255.821742 151.68 
L 255.821742 154.368 
L 255.821742 157.056 
L 255.821742 159.744 
L 255.821742 162.432 
L 255.821742 165.12 
L 255.821742 167.808 
L 255.821742 170.496 
L 255.821742 173.184 
L 255.821742 175.872 
L 255.821742 178.56 
L 255.821742 181.248 
L 255.821742 183.936 
L 255.821742 186.624 
L 255.821742 189.312 
L 255.821742 192 
L 255.821742 194.688 
L 255.821742 197.376 
L 255.821742 200.064 
L 255.821742 202.752 
L 255.821742 205.44 
L 255.821742 208.128 
L 255.821742 210.816 
L 255.821742 213.504 
L 255.821742 216.192 
L 255.821742 218.88 
L 255.821742 221.568 
L 255.821742 224.256 
L 255.821742 226.944 
L 255.821742 229.632 
L 255.821742 232.32 
L 255.821742 235.008 
L 255.821742 237.696 
L 255.821742 240.384 
L 255.821742 243.072 
L 255.821742 245.76 
L 255.821742 248.448 
L 255.821742 251.136 
L 255.821742 253.824 
L 255.821742 256.512 
L 255.821742 259.2 
L 255.821742 261.888 
L 255.821742 264.576 
L 255.821742 267.264 
L 255.821742 269.952 
L 255.821742 272.64 
L 255.821742 275.328 
L 255.821742 278.016 
L 252.392727 279.678039 
L 248.785455 279.678039 
L 245.178182 279.678039 
L 244.673967 280.704 
L 241.570909 283.337828 
L 241.391001 283.392 
L 241.391001 286.08 
L 237.963636 286.629618 
L 234.356364 286.629618 
L 230.749091 287.341867 
L 227.141818 287.341867 
L 223.534545 287.341867 
L 219.927273 287.341867 
L 216.32 287.341867 
L 212.712727 287.706173 
L 209.105455 288.666019 
L 208.930473 288.768 
L 206.562402 291.456 
L 206.562402 294.144 
L 206.562402 296.832 
L 206.562402 299.52 
L 205.498182 301.499975 
L 201.890909 301.499975 
L 198.283636 301.499975 
L 194.676364 301.499975 
L 191.069091 301.499975 
L 187.461818 301.499975 
L 186.591204 302.208 
L 186.591204 304.896 
L 186.591204 307.584 
" clip-path="url(#p2e6e3b970f)" style="fill: none; stroke-dasharray: 1.85,0.8; stroke-dashoffset: 0; stroke: #000000; stroke-width: 0.5"/>
   </g>
   <g id="PathCollection_12">
    <path d="M 275.06038 41.472 
L 275.06038 44.16 
L 275.06038 46.848 
L 275.06038 49.536 
L 275.06038 52.224 
L 275.06038 54.912 
L 275.06038 57.6 
L 275.06038 60.288 
L 275.06038 62.976 
L 275.06038 65.664 
L 275.06038 68.352 
L 275.06038 71.04 
L 275.06038 73.728 
L 275.06038 76.416 
L 275.06038 79.104 
L 275.06038 81.792 
L 275.06038 84.48 
L 275.06038 87.168 
L 275.06038 89.856 
L 275.06038 92.544 
L 275.06038 95.232 
L 275.06038 97.92 
L 275.06038 100.608 
L 275.06038 103.296 
L 275.06038 105.984 
L 275.06038 108.672 
L 275.06038 111.36 
L 275.06038 114.048 
L 275.06038 116.736 
L 275.06038 119.424 
L 275.06038 122.112 
L 275.06038 124.8 
L 275.06038 127.488 
L 275.06038 130.176 
L 275.06038 132.864 
L 275.06038 135.552 
L 275.06038 138.24 
L 275.06038 140.928 
L 275.06038 143.616 
L 275.06038 146.304 
L 275.06038 148.992 
L 275.06038 151.68 
L 275.06038 154.368 
L 275.06038 157.056 
L 275.06038 159.744 
L 275.06038 162.432 
L 275.06038 164.733 
" clip-path="url(#p2e6e3b970f)" style="fill: none; stroke-dasharray: 1.85,0.8; stroke-dashoffset: 0; stroke: #000000; stroke-width: 0.5"/>
    <path d="M 275.06038 197.763 
L 275.06038 200.064 
L 275.06038 202.752 
L 275.06038 205.44 
L 275.06038 208.128 
L 275.06038 210.816 
L 275.06038 213.504 
L 275.06038 216.192 
L 275.06038 218.88 
L 275.06038 221.568 
L 275.06038 224.256 
L 275.06038 226.944 
L 275.06038 229.632 
L 275.06038 232.32 
L 275.06038 235.008 
L 275.06038 237.696 
L 275.06038 240.384 
L 275.06038 243.072 
L 275.06038 245.76 
L 275.06038 248.448 
L 275.06038 251.136 
L 275.06038 253.824 
L 275.06038 256.512 
L 275.06038 259.2 
L 275.06038 261.888 
L 275.06038 264.576 
L 275.06038 267.264 
L 275.06038 269.952 
L 275.06038 272.64 
L 275.06038 275.328 
L 275.06038 278.016 
L 274.036364 278.804587 
L 270.429091 278.804587 
L 266.821818 278.804587 
L 265.881228 280.704 
L 263.214545 282.950326 
L 262.515249 283.392 
L 262.515249 286.08 
L 259.607273 287.058157 
L 256 287.058157 
L 252.392727 287.446585 
L 248.785455 287.446585 
L 245.178182 287.446585 
L 242.254938 288.768 
L 241.570909 289.370224 
L 237.963636 290.496874 
L 234.356364 290.496874 
L 231.862265 291.456 
L 231.862265 294.144 
L 231.862265 296.832 
L 231.862265 299.52 
L 230.749091 300.221647 
L 227.141818 300.221647 
L 223.534545 300.221647 
L 219.927273 300.221647 
L 216.32 300.221647 
L 212.712727 301.384619 
L 211.74339 302.208 
L 211.74339 304.896 
L 211.74339 307.584 
" clip-path="url(#p2e6e3b970f)" style="fill: none; stroke-dasharray: 1.85,0.8; stroke-dashoffset: 0; stroke: #000000; stroke-width: 0.5"/>
   </g>
   <g id="PathCollection_13">
    <path d="M 414.72 286.798207 
L 411.112727 286.798207 
L 407.505455 286.798207 
L 403.898182 286.798207 
L 400.290909 286.798207 
L 396.683636 286.798207 
L 393.076364 286.798207 
L 389.469091 286.798207 
L 385.861818 286.798207 
L 382.974613 286.08 
L 382.974613 283.392 
L 382.254545 283.055668 
L 378.647273 283.055668 
L 377.125909 283.055668 
" clip-path="url(#p2e6e3b970f)" style="fill: none; stroke-dasharray: 1.85,0.8; stroke-dashoffset: 0; stroke: #000000; stroke-width: 0.5"/>
    <path d="M 344.095909 283.055668 
L 342.574545 283.055668 
L 338.967273 283.055668 
L 335.36 283.055668 
L 331.752727 283.055668 
L 328.145455 283.055668 
L 324.538182 283.055668 
L 320.930909 283.055668 
L 317.323636 283.055668 
L 313.716364 283.055668 
L 310.109091 283.055668 
L 306.501818 283.055668 
L 302.894545 283.055668 
L 299.287273 283.055668 
L 295.68 283.055668 
L 293.872288 283.392 
L 293.872288 286.08 
L 292.072727 286.258313 
L 288.465455 286.258313 
L 284.858182 286.258313 
L 281.250909 286.258313 
L 277.643636 286.635406 
L 274.036364 287.252541 
L 270.429091 287.252541 
L 266.821818 287.252541 
L 263.44377 288.768 
L 263.214545 288.968285 
L 259.607273 291.331515 
L 256 291.331515 
L 255.406423 291.456 
L 255.406423 294.144 
L 255.406423 296.832 
L 255.406423 299.52 
L 252.392727 300.555937 
L 248.785455 300.555937 
L 245.178182 300.555937 
L 244.03333 302.208 
L 244.03333 304.896 
L 244.03333 307.584 
" clip-path="url(#p2e6e3b970f)" style="fill: none; stroke-dasharray: 1.85,0.8; stroke-dashoffset: 0; stroke: #000000; stroke-width: 0.5"/>
   </g>
   <g id="PathCollection_14">
    <path d="M 387.383182 290.825225 
L 385.861818 290.825225 
L 382.254545 289.077552 
L 378.647273 289.077552 
L 375.04 289.077552 
L 371.432727 289.077552 
L 367.825455 289.077552 
L 364.218182 289.077552 
L 360.610909 289.077552 
L 357.003636 289.077552 
L 353.396364 289.077552 
L 349.789091 289.077552 
L 346.181818 289.077552 
L 342.574545 289.077552 
L 338.967273 289.077552 
L 335.36 289.077552 
L 331.752727 289.077552 
L 328.145455 289.077552 
L 324.538182 289.077552 
L 320.930909 289.077552 
L 317.323636 289.077552 
L 313.716364 289.077552 
L 310.109091 289.077552 
L 306.501818 289.077552 
L 302.894545 289.077552 
L 299.287273 289.077552 
L 295.68 289.077552 
L 292.072727 289.773704 
L 288.465455 289.773704 
L 284.858182 289.773704 
L 281.250909 289.773704 
L 277.643636 290.508146 
L 274.798976 291.456 
L 274.798976 294.144 
L 274.798976 296.832 
L 274.798976 299.52 
L 274.036364 299.936494 
L 270.429091 299.936494 
L 266.821818 299.936494 
L 265.235711 302.208 
L 265.235711 304.896 
L 265.235711 307.584 
" clip-path="url(#p2e6e3b970f)" style="fill: none; stroke-dasharray: 1.85,0.8; stroke-dashoffset: 0; stroke: #000000; stroke-width: 0.5"/>
   </g>
   <g id="PathCollection_15"/>
   <g id="LineCollection_1">
    <path d="M 70.725483 307.584 
L 70.725483 294.2784 
" clip-path="url(#p2e6e3b970f)" style="fill: none; stroke: #000000; stroke-width: 1.5"/>
    <path d="M 109.151663 307.584 
L 109.151663 294.2784 
" clip-path="url(#p2e6e3b970f)" style="fill: none; stroke: #000000; stroke-width: 1.5"/>
    <path d="M 133.086365 307.584 
L 133.086365 294.2784 
" clip-path="url(#p2e6e3b970f)" style="fill: none; stroke: #000000; stroke-width: 1.5"/>
    <path d="M 170.146546 307.584 
L 170.146546 294.2784 
" clip-path="url(#p2e6e3b970f)" style="fill: none; stroke: #000000; stroke-width: 1.5"/>
    <path d="M 208.810279 307.584 
L 208.810279 294.2784 
" clip-path="url(#p2e6e3b970f)" style="fill: none; stroke: #000000; stroke-width: 1.5"/>
    <path d="M 246.761352 307.584 
L 246.761352 294.2784 
" clip-path="url(#p2e6e3b970f)" style="fill: none; stroke: #000000; stroke-width: 1.5"/>
    <path d="M 296.4125 307.584 
L 296.4125 294.2784 
" clip-path="url(#p2e6e3b970f)" style="fill: none; stroke: #000000; stroke-width: 1.5"/>
    <path d="M 329.077709 307.584 
L 329.077709 294.2784 
" clip-path="url(#p2e6e3b970f)" style="fill: none; stroke: #000000; stroke-width: 1.5"/>
    <path d="M 366.553631 307.584 
L 366.553631 294.2784 
" clip-path="url(#p2e6e3b970f)" style="fill: none; stroke: #000000; stroke-width: 1.5"/>
   </g>
   <g id="LineCollection_2">
    <path clip-path="url(#p2e6e3b970f)" style="fill: none; stroke: #000000; stroke-width: 1.5"/>
    <path clip-path="url(#p2e6e3b970f)" style="fill: none; stroke: #000000; stroke-width: 1.5"/>
    <path clip-path="url(#p2e6e3b970f)" style="fill: none; stroke: #000000; stroke-width: 1.5"/>
    <path clip-path="url(#p2e6e3b970f)" style="fill: none; stroke: #000000; stroke-width: 1.5"/>
    <path clip-path="url(#p2e6e3b970f)" style="fill: none; stroke: #000000; stroke-width: 1.5"/>
    <path clip-path="url(#p2e6e3b970f)" style="fill: none; stroke: #000000; stroke-width: 1.5"/>
    <path d="M 217.929734 329.52477 
L 223.733994 329.52477 
" clip-path="url(#p2e6e3b970f)" style="fill: none; stroke: #000000; stroke-width: 1.5"/>
    <path d="M 217.929734 214.265645 
L 223.733994 214.265645 
" clip-path="url(#p2e6e3b970f)" style="fill: none; stroke: #000000; stroke-width: 1.5"/>
    <path clip-path="url(#p2e6e3b970f)" style="fill: none; stroke: #000000; stroke-width: 1.5"/>
   </g>
   <g id="patch_3">
    <path d="M 57.6 307.584 
L 57.6 41.472 
" style="fill: none; stroke: #000000; stroke-width: 0.8; stroke-linejoin: miter; stroke-linecap: square"/>
   </g>
   <g id="patch_4">
    <path d="M 414.72 307.584 
L 414.72 41.472 
" style="fill: none; stroke: #000000; stroke-width: 0.8; stroke-linejoin: miter; stroke-linecap: square"/>
   </g>
   <g id="patch_5">
    <path d="M 57.6 307.584 
L 414.72 307.584 
" style="fill: none; stroke: #000000; stroke-width: 0.8; stroke-linejoin: miter; stroke-linecap: square"/>
   </g>
   <g id="patch_6">
    <path d="M 57.6 41.472 
L 414.72 41.472 
" style="fill: none; stroke: #000000; stroke-width: 0.8; stroke-linejoin: miter; stroke-linecap: square"/>
   </g>
   <g id="text_15">
    <!-- 2D-partial dependency plot between Smoking and SG -->
    <g transform="translate(74.573438 35.472) scale(0.12 -0.12)">
     <defs>
      <path id="DejaVuSans-44" d="M 1259 4147 
L 1259 519 
L 2022 519 
Q 2988 519 3436 956 
Q 3884 1394 3884 2338 
Q 3884 3275 3436 3711 
Q 2988 4147 2022 4147 
L 1259 4147 
z
M 628 4666 
L 1925 4666 
Q 3281 4666 3915 4102 
Q 4550 3538 4550 2338 
Q 4550 1131 3912 565 
Q 3275 0 1925 0 
L 628 0 
L 628 4666 
z
" transform="scale(0.015625)"/>
      <path id="DejaVuSans-2d" d="M 313 2009 
L 1997 2009 
L 1997 1497 
L 313 1497 
L 313 2009 
z
" transform="scale(0.015625)"/>
      <path id="DejaVuSans-64" d="M 2906 2969 
L 2906 4863 
L 3481 4863 
L 3481 0 
L 2906 0 
L 2906 525 
Q 2725 213 2448 61 
Q 2172 -91 1784 -91 
Q 1150 -91 751 415 
Q 353 922 353 1747 
Q 353 2572 751 3078 
Q 1150 3584 1784 3584 
Q 2172 3584 2448 3432 
Q 2725 3281 2906 2969 
z
M 947 1747 
Q 947 1113 1208 752 
Q 1469 391 1925 391 
Q 2381 391 2643 752 
Q 2906 1113 2906 1747 
Q 2906 2381 2643 2742 
Q 2381 3103 1925 3103 
Q 1469 3103 1208 2742 
Q 947 2381 947 1747 
z
" transform="scale(0.015625)"/>
      <path id="DejaVuSans-79" d="M 2059 -325 
Q 1816 -950 1584 -1140 
Q 1353 -1331 966 -1331 
L 506 -1331 
L 506 -850 
L 844 -850 
Q 1081 -850 1212 -737 
Q 1344 -625 1503 -206 
L 1606 56 
L 191 3500 
L 800 3500 
L 1894 763 
L 2988 3500 
L 3597 3500 
L 2059 -325 
z
" transform="scale(0.015625)"/>
      <path id="DejaVuSans-62" d="M 3116 1747 
Q 3116 2381 2855 2742 
Q 2594 3103 2138 3103 
Q 1681 3103 1420 2742 
Q 1159 2381 1159 1747 
Q 1159 1113 1420 752 
Q 1681 391 2138 391 
Q 2594 391 2855 752 
Q 3116 1113 3116 1747 
z
M 1159 2969 
Q 1341 3281 1617 3432 
Q 1894 3584 2278 3584 
Q 2916 3584 3314 3078 
Q 3713 2572 3713 1747 
Q 3713 922 3314 415 
Q 2916 -91 2278 -91 
Q 1894 -91 1617 61 
Q 1341 213 1159 525 
L 1159 0 
L 581 0 
L 581 4863 
L 1159 4863 
L 1159 2969 
z
" transform="scale(0.015625)"/>
      <path id="DejaVuSans-77" d="M 269 3500 
L 844 3500 
L 1563 769 
L 2278 3500 
L 2956 3500 
L 3675 769 
L 4391 3500 
L 4966 3500 
L 4050 0 
L 3372 0 
L 2619 2869 
L 1863 0 
L 1184 0 
L 269 3500 
z
" transform="scale(0.015625)"/>
     </defs>
     <use xlink:href="#DejaVuSans-32"/>
     <use xlink:href="#DejaVuSans-44" x="63.623047"/>
     <use xlink:href="#DejaVuSans-2d" x="140.625"/>
     <use xlink:href="#DejaVuSans-70" x="176.708984"/>
     <use xlink:href="#DejaVuSans-61" x="240.185547"/>
     <use xlink:href="#DejaVuSans-72" x="301.464844"/>
     <use xlink:href="#DejaVuSans-74" x="342.578125"/>
     <use xlink:href="#DejaVuSans-69" x="381.787109"/>
     <use xlink:href="#DejaVuSans-61" x="409.570312"/>
     <use xlink:href="#DejaVuSans-6c" x="470.849609"/>
     <use xlink:href="#DejaVuSans-20" x="498.632812"/>
     <use xlink:href="#DejaVuSans-64" x="530.419922"/>
     <use xlink:href="#DejaVuSans-65" x="593.896484"/>
     <use xlink:href="#DejaVuSans-70" x="655.419922"/>
     <use xlink:href="#DejaVuSans-65" x="718.896484"/>
     <use xlink:href="#DejaVuSans-6e" x="780.419922"/>
     <use xlink:href="#DejaVuSans-64" x="843.798828"/>
     <use xlink:href="#DejaVuSans-65" x="907.275391"/>
     <use xlink:href="#DejaVuSans-6e" x="968.798828"/>
     <use xlink:href="#DejaVuSans-63" x="1032.177734"/>
     <use xlink:href="#DejaVuSans-79" x="1087.158203"/>
     <use xlink:href="#DejaVuSans-20" x="1146.337891"/>
     <use xlink:href="#DejaVuSans-70" x="1178.125"/>
     <use xlink:href="#DejaVuSans-6c" x="1241.601562"/>
     <use xlink:href="#DejaVuSans-6f" x="1269.384766"/>
     <use xlink:href="#DejaVuSans-74" x="1330.566406"/>
     <use xlink:href="#DejaVuSans-20" x="1369.775391"/>
     <use xlink:href="#DejaVuSans-62" x="1401.5625"/>
     <use xlink:href="#DejaVuSans-65" x="1465.039062"/>
     <use xlink:href="#DejaVuSans-74" x="1526.5625"/>
     <use xlink:href="#DejaVuSans-77" x="1565.771484"/>
     <use xlink:href="#DejaVuSans-65" x="1647.558594"/>
     <use xlink:href="#DejaVuSans-65" x="1709.082031"/>
     <use xlink:href="#DejaVuSans-6e" x="1770.605469"/>
     <use xlink:href="#DejaVuSans-20" x="1833.984375"/>
     <use xlink:href="#DejaVuSans-53" x="1865.771484"/>
     <use xlink:href="#DejaVuSans-6d" x="1929.248047"/>
     <use xlink:href="#DejaVuSans-6f" x="2026.660156"/>
     <use xlink:href="#DejaVuSans-6b" x="2087.841797"/>
     <use xlink:href="#DejaVuSans-69" x="2145.751953"/>
     <use xlink:href="#DejaVuSans-6e" x="2173.535156"/>
     <use xlink:href="#DejaVuSans-67" x="2236.914062"/>
     <use xlink:href="#DejaVuSans-20" x="2300.390625"/>
     <use xlink:href="#DejaVuSans-61" x="2332.177734"/>
     <use xlink:href="#DejaVuSans-6e" x="2393.457031"/>
     <use xlink:href="#DejaVuSans-64" x="2456.835938"/>
     <use xlink:href="#DejaVuSans-20" x="2520.3125"/>
     <use xlink:href="#DejaVuSans-53" x="2552.099609"/>
     <use xlink:href="#DejaVuSans-47" x="2615.576172"/>
    </g>
   </g>
   <g id="text_16">
    <g clip-path="url(#p2e6e3b970f)">
     <!-- -0.04 -->
     <g transform="translate(203.879761 74.231281) rotate(-270) scale(0.1 -0.1)">
      <defs>
       <path id="DejaVuSans-34" d="M 2419 4116 
L 825 1625 
L 2419 1625 
L 2419 4116 
z
M 2253 4666 
L 3047 4666 
L 3047 1625 
L 3713 1625 
L 3713 1100 
L 3047 1100 
L 3047 0 
L 2419 0 
L 2419 1100 
L 313 1100 
L 313 1709 
L 2253 4666 
z
" transform="scale(0.015625)"/>
      </defs>
      <use xlink:href="#DejaVuSans-2d"/>
      <use xlink:href="#DejaVuSans-30" x="36.083984"/>
      <use xlink:href="#DejaVuSans-2e" x="99.707031"/>
      <use xlink:href="#DejaVuSans-30" x="131.494141"/>
      <use xlink:href="#DejaVuSans-34" x="195.117188"/>
     </g>
    </g>
   </g>
   <g id="text_17">
    <g clip-path="url(#p2e6e3b970f)">
     <!-- -0.03 -->
     <g transform="translate(229.329386 168.311281) rotate(-270) scale(0.1 -0.1)">
      <defs>
       <path id="DejaVuSans-33" d="M 2597 2516 
Q 3050 2419 3304 2112 
Q 3559 1806 3559 1356 
Q 3559 666 3084 287 
Q 2609 -91 1734 -91 
Q 1441 -91 1130 -33 
Q 819 25 488 141 
L 488 750 
Q 750 597 1062 519 
Q 1375 441 1716 441 
Q 2309 441 2620 675 
Q 2931 909 2931 1356 
Q 2931 1769 2642 2001 
Q 2353 2234 1838 2234 
L 1294 2234 
L 1294 2753 
L 1863 2753 
Q 2328 2753 2575 2939 
Q 2822 3125 2822 3475 
Q 2822 3834 2567 4026 
Q 2313 4219 1838 4219 
Q 1578 4219 1281 4162 
Q 984 4106 628 3988 
L 628 4550 
Q 988 4650 1302 4700 
Q 1616 4750 1894 4750 
Q 2613 4750 3031 4423 
Q 3450 4097 3450 3541 
Q 3450 3153 3228 2886 
Q 3006 2619 2597 2516 
z
" transform="scale(0.015625)"/>
      </defs>
      <use xlink:href="#DejaVuSans-2d"/>
      <use xlink:href="#DejaVuSans-30" x="36.083984"/>
      <use xlink:href="#DejaVuSans-2e" x="99.707031"/>
      <use xlink:href="#DejaVuSans-30" x="131.494141"/>
      <use xlink:href="#DejaVuSans-33" x="195.117188"/>
     </g>
    </g>
   </g>
   <g id="text_18">
    <g clip-path="url(#p2e6e3b970f)">
     <!-- -0.03 -->
     <g transform="translate(253.062367 74.231281) rotate(-270) scale(0.1 -0.1)">
      <use xlink:href="#DejaVuSans-2d"/>
      <use xlink:href="#DejaVuSans-30" x="36.083984"/>
      <use xlink:href="#DejaVuSans-2e" x="99.707031"/>
      <use xlink:href="#DejaVuSans-30" x="131.494141"/>
      <use xlink:href="#DejaVuSans-33" x="195.117188"/>
     </g>
    </g>
   </g>
   <g id="text_19">
    <g clip-path="url(#p2e6e3b970f)">
     <!-- -0.02 -->
     <g transform="translate(272.301005 168.311281) rotate(-270) scale(0.1 -0.1)">
      <use xlink:href="#DejaVuSans-2d"/>
      <use xlink:href="#DejaVuSans-30" x="36.083984"/>
      <use xlink:href="#DejaVuSans-2e" x="99.707031"/>
      <use xlink:href="#DejaVuSans-30" x="131.494141"/>
      <use xlink:href="#DejaVuSans-32" x="195.117188"/>
     </g>
    </g>
   </g>
   <g id="text_20">
    <g clip-path="url(#p2e6e3b970f)">
     <!-- -0.01 -->
     <g transform="translate(347.67419 285.815043) scale(0.1 -0.1)">
      <use xlink:href="#DejaVuSans-2d"/>
      <use xlink:href="#DejaVuSans-30" x="36.083984"/>
      <use xlink:href="#DejaVuSans-2e" x="99.707031"/>
      <use xlink:href="#DejaVuSans-30" x="131.494141"/>
      <use xlink:href="#DejaVuSans-31" x="195.117188"/>
     </g>
    </g>
   </g>
   <g id="text_21">
    <g clip-path="url(#p2e6e3b970f)">
     <!-- -0.00 -->
     <g transform="translate(390.961463 293.5846) scale(0.1 -0.1)">
      <use xlink:href="#DejaVuSans-2d"/>
      <use xlink:href="#DejaVuSans-30" x="36.083984"/>
      <use xlink:href="#DejaVuSans-2e" x="99.707031"/>
      <use xlink:href="#DejaVuSans-30" x="131.494141"/>
      <use xlink:href="#DejaVuSans-30" x="195.117188"/>
     </g>
    </g>
   </g>
  </g>
 </g>
 <defs>
  <clipPath id="p2e6e3b970f">
   <rect x="57.6" y="41.472" width="357.12" height="266.112"/>
  </clipPath>
 </defs>
</svg>
