<?xml version="1.0" encoding="utf-8" standalone="no"?>
<!DOCTYPE svg PUBLIC "-//W3C//DTD SVG 1.1//EN"
  "http://www.w3.org/Graphics/SVG/1.1/DTD/svg11.dtd">
<svg xmlns:xlink="http://www.w3.org/1999/xlink" width="399.861758pt" height="325.986375pt" viewBox="0 0 399.861758 325.986375" xmlns="http://www.w3.org/2000/svg" version="1.1">
 <metadata>
  <rdf:RDF xmlns:dc="http://purl.org/dc/elements/1.1/" xmlns:cc="http://creativecommons.org/ns#" xmlns:rdf="http://www.w3.org/1999/02/22-rdf-syntax-ns#">
   <cc:Work>
    <dc:type rdf:resource="http://purl.org/dc/dcmitype/StillImage"/>
    <dc:date>2024-03-09T16:46:28.824728</dc:date>
    <dc:format>image/svg+xml</dc:format>
    <dc:creator>
     <cc:Agent>
      <dc:title>Matplotlib v3.7.0, https://matplotlib.org/</dc:title>
     </cc:Agent>
    </dc:creator>
   </cc:Work>
  </rdf:RDF>
 </metadata>
 <defs>
  <style type="text/css">*{stroke-linejoin: round; stroke-linecap: butt}</style>
 </defs>
 <g id="figure_1">
  <g id="patch_1">
   <path d="M 0 325.986375 
L 399.861758 325.986375 
L 399.861758 0 
L 0 0 
L 0 325.986375 
z
" style="fill: none"/>
  </g>
  <g id="axes_1">
   <g id="patch_2">
    <path d="M 34.278125 288.430125 
L 391.398125 288.430125 
L 391.398125 22.318125 
L 34.278125 22.318125 
L 34.278125 288.430125 
z
" style="fill: none"/>
   </g>
   <g id="PathCollection_1">
    <defs>
     <path id="m08035884fa" d="M 0 3 
C 0.795609 3 1.55874 2.683901 2.12132 2.12132 
C 2.683901 1.55874 3 0.795609 3 0 
C 3 -0.795609 2.683901 -1.55874 2.12132 -2.12132 
C 1.55874 -2.683901 0.795609 -3 0 -3 
C -0.795609 -3 -1.55874 -2.683901 -2.12132 -2.12132 
C -2.683901 -1.55874 -3 -0.795609 -3 0 
C -3 0.795609 -2.683901 1.55874 -2.12132 2.12132 
C -1.55874 2.683901 -0.795609 3 0 3 
z
" style="stroke: #0000ff; stroke-opacity: 0.5"/>
    </defs>
    <g clip-path="url(#p87ce841ea7)">
     <use xlink:href="#m08035884fa" x="67.824012" y="263.742342" style="fill: #0000ff; fill-opacity: 0.5; stroke: #0000ff; stroke-opacity: 0.5"/>
     <use xlink:href="#m08035884fa" x="47.537018" y="283.972609" style="fill: #0000ff; fill-opacity: 0.5; stroke: #0000ff; stroke-opacity: 0.5"/>
     <use xlink:href="#m08035884fa" x="209.225699" y="198.251141" style="fill: #0000ff; fill-opacity: 0.5; stroke: #0000ff; stroke-opacity: 0.5"/>
     <use xlink:href="#m08035884fa" x="51.864974" y="281.572408" style="fill: #0000ff; fill-opacity: 0.5; stroke: #0000ff; stroke-opacity: 0.5"/>
     <use xlink:href="#m08035884fa" x="41.050469" y="287.09287" style="fill: #0000ff; fill-opacity: 0.5; stroke: #0000ff; stroke-opacity: 0.5"/>
     <use xlink:href="#m08035884fa" x="304.879062" y="129.331082" style="fill: #0000ff; fill-opacity: 0.5; stroke: #0000ff; stroke-opacity: 0.5"/>
     <use xlink:href="#m08035884fa" x="70.826329" y="259.627712" style="fill: #0000ff; fill-opacity: 0.5; stroke: #0000ff; stroke-opacity: 0.5"/>
     <use xlink:href="#m08035884fa" x="113.783013" y="247.969592" style="fill: #0000ff; fill-opacity: 0.5; stroke: #0000ff; stroke-opacity: 0.5"/>
     <use xlink:href="#m08035884fa" x="60.591473" y="273.686033" style="fill: #0000ff; fill-opacity: 0.5; stroke: #0000ff; stroke-opacity: 0.5"/>
     <use xlink:href="#m08035884fa" x="50.768125" y="277.800663" style="fill: #0000ff; fill-opacity: 0.5; stroke: #0000ff; stroke-opacity: 0.5"/>
     <use xlink:href="#m08035884fa" x="47.537018" y="275.743348" style="fill: #0000ff; fill-opacity: 0.5; stroke: #0000ff; stroke-opacity: 0.5"/>
     <use xlink:href="#m08035884fa" x="45.092692" y="286.578541" style="fill: #0000ff; fill-opacity: 0.5; stroke: #0000ff; stroke-opacity: 0.5"/>
     <use xlink:href="#m08035884fa" x="41.050469" y="285.584172" style="fill: #0000ff; fill-opacity: 0.5; stroke: #0000ff; stroke-opacity: 0.5"/>
     <use xlink:href="#m08035884fa" x="56.699309" y="283.972609" style="fill: #0000ff; fill-opacity: 0.5; stroke: #0000ff; stroke-opacity: 0.5"/>
     <use xlink:href="#m08035884fa" x="65.968303" y="264.428114" style="fill: #0000ff; fill-opacity: 0.5; stroke: #0000ff; stroke-opacity: 0.5"/>
     <use xlink:href="#m08035884fa" x="163.778057" y="214.709663" style="fill: #0000ff; fill-opacity: 0.5; stroke: #0000ff; stroke-opacity: 0.5"/>
     <use xlink:href="#m08035884fa" x="41.050469" y="286.475676" style="fill: #0000ff; fill-opacity: 0.5; stroke: #0000ff; stroke-opacity: 0.5"/>
     <use xlink:href="#m08035884fa" x="41.050469" y="285.995635" style="fill: #0000ff; fill-opacity: 0.5; stroke: #0000ff; stroke-opacity: 0.5"/>
     <use xlink:href="#m08035884fa" x="150.571457" y="227.39644" style="fill: #0000ff; fill-opacity: 0.5; stroke: #0000ff; stroke-opacity: 0.5"/>
     <use xlink:href="#m08035884fa" x="253.748059" y="154.018864" style="fill: #0000ff; fill-opacity: 0.5; stroke: #0000ff; stroke-opacity: 0.5"/>
     <use xlink:href="#m08035884fa" x="58.384904" y="276.772005" style="fill: #0000ff; fill-opacity: 0.5; stroke: #0000ff; stroke-opacity: 0.5"/>
     <use xlink:href="#m08035884fa" x="278.87062" y="147.846918" style="fill: #0000ff; fill-opacity: 0.5; stroke: #0000ff; stroke-opacity: 0.5"/>
     <use xlink:href="#m08035884fa" x="55.862164" y="275.057576" style="fill: #0000ff; fill-opacity: 0.5; stroke: #0000ff; stroke-opacity: 0.5"/>
     <use xlink:href="#m08035884fa" x="41.050469" y="287.264313" style="fill: #0000ff; fill-opacity: 0.5; stroke: #0000ff; stroke-opacity: 0.5"/>
     <use xlink:href="#m08035884fa" x="245.118051" y="150.24712" style="fill: #0000ff; fill-opacity: 0.5; stroke: #0000ff; stroke-opacity: 0.5"/>
     <use xlink:href="#m08035884fa" x="186.554182" y="194.479397" style="fill: #0000ff; fill-opacity: 0.5; stroke: #0000ff; stroke-opacity: 0.5"/>
     <use xlink:href="#m08035884fa" x="41.050469" y="281.572408" style="fill: #0000ff; fill-opacity: 0.5; stroke: #0000ff; stroke-opacity: 0.5"/>
     <use xlink:href="#m08035884fa" x="304.519155" y="137.903228" style="fill: #0000ff; fill-opacity: 0.5; stroke: #0000ff; stroke-opacity: 0.5"/>
     <use xlink:href="#m08035884fa" x="58.384904" y="279.172207" style="fill: #0000ff; fill-opacity: 0.5; stroke: #0000ff; stroke-opacity: 0.5"/>
     <use xlink:href="#m08035884fa" x="52.631055" y="278.486435" style="fill: #0000ff; fill-opacity: 0.5; stroke: #0000ff; stroke-opacity: 0.5"/>
     <use xlink:href="#m08035884fa" x="52.631055" y="281.229522" style="fill: #0000ff; fill-opacity: 0.5; stroke: #0000ff; stroke-opacity: 0.5"/>
     <use xlink:href="#m08035884fa" x="45.092692" y="286.921427" style="fill: #0000ff; fill-opacity: 0.5; stroke: #0000ff; stroke-opacity: 0.5"/>
     <use xlink:href="#m08035884fa" x="49.375612" y="283.286837" style="fill: #0000ff; fill-opacity: 0.5; stroke: #0000ff; stroke-opacity: 0.5"/>
     <use xlink:href="#m08035884fa" x="44.281576" y="280.200864" style="fill: #0000ff; fill-opacity: 0.5; stroke: #0000ff; stroke-opacity: 0.5"/>
     <use xlink:href="#m08035884fa" x="41.050469" y="285.652749" style="fill: #0000ff; fill-opacity: 0.5; stroke: #0000ff; stroke-opacity: 0.5"/>
     <use xlink:href="#m08035884fa" x="44.281576" y="285.687038" style="fill: #0000ff; fill-opacity: 0.5; stroke: #0000ff; stroke-opacity: 0.5"/>
     <use xlink:href="#m08035884fa" x="67.350435" y="273.686033" style="fill: #0000ff; fill-opacity: 0.5; stroke: #0000ff; stroke-opacity: 0.5"/>
     <use xlink:href="#m08035884fa" x="304.879062" y="111.501016" style="fill: #0000ff; fill-opacity: 0.5; stroke: #0000ff; stroke-opacity: 0.5"/>
     <use xlink:href="#m08035884fa" x="119.075856" y="242.483418" style="fill: #0000ff; fill-opacity: 0.5; stroke: #0000ff; stroke-opacity: 0.5"/>
     <use xlink:href="#m08035884fa" x="41.050469" y="287.778642" style="fill: #0000ff; fill-opacity: 0.5; stroke: #0000ff; stroke-opacity: 0.5"/>
     <use xlink:href="#m08035884fa" x="73.92421" y="257.227511" style="fill: #0000ff; fill-opacity: 0.5; stroke: #0000ff; stroke-opacity: 0.5"/>
     <use xlink:href="#m08035884fa" x="50.768125" y="277.114891" style="fill: #0000ff; fill-opacity: 0.5; stroke: #0000ff; stroke-opacity: 0.5"/>
     <use xlink:href="#m08035884fa" x="56.851816" y="277.457777" style="fill: #0000ff; fill-opacity: 0.5; stroke: #0000ff; stroke-opacity: 0.5"/>
     <use xlink:href="#m08035884fa" x="201.097605" y="191.73631" style="fill: #0000ff; fill-opacity: 0.5; stroke: #0000ff; stroke-opacity: 0.5"/>
     <use xlink:href="#m08035884fa" x="52.631055" y="281.229522" style="fill: #0000ff; fill-opacity: 0.5; stroke: #0000ff; stroke-opacity: 0.5"/>
     <use xlink:href="#m08035884fa" x="104.543215" y="242.826304" style="fill: #0000ff; fill-opacity: 0.5; stroke: #0000ff; stroke-opacity: 0.5"/>
     <use xlink:href="#m08035884fa" x="69.196686" y="274.71469" style="fill: #0000ff; fill-opacity: 0.5; stroke: #0000ff; stroke-opacity: 0.5"/>
     <use xlink:href="#m08035884fa" x="57.977756" y="275.743348" style="fill: #0000ff; fill-opacity: 0.5; stroke: #0000ff; stroke-opacity: 0.5"/>
     <use xlink:href="#m08035884fa" x="247.142895" y="169.105842" style="fill: #0000ff; fill-opacity: 0.5; stroke: #0000ff; stroke-opacity: 0.5"/>
     <use xlink:href="#m08035884fa" x="331.064336" y="85.44169" style="fill: #0000ff; fill-opacity: 0.5; stroke: #0000ff; stroke-opacity: 0.5"/>
     <use xlink:href="#m08035884fa" x="71.392658" y="275.057576" style="fill: #0000ff; fill-opacity: 0.5; stroke: #0000ff; stroke-opacity: 0.5"/>
     <use xlink:href="#m08035884fa" x="55.862164" y="273.686033" style="fill: #0000ff; fill-opacity: 0.5; stroke: #0000ff; stroke-opacity: 0.5"/>
     <use xlink:href="#m08035884fa" x="296.964661" y="130.359739" style="fill: #0000ff; fill-opacity: 0.5; stroke: #0000ff; stroke-opacity: 0.5"/>
     <use xlink:href="#m08035884fa" x="219.824813" y="184.192821" style="fill: #0000ff; fill-opacity: 0.5; stroke: #0000ff; stroke-opacity: 0.5"/>
     <use xlink:href="#m08035884fa" x="67.595221" y="271.628717" style="fill: #0000ff; fill-opacity: 0.5; stroke: #0000ff; stroke-opacity: 0.5"/>
     <use xlink:href="#m08035884fa" x="230.262056" y="173.906245" style="fill: #0000ff; fill-opacity: 0.5; stroke: #0000ff; stroke-opacity: 0.5"/>
     <use xlink:href="#m08035884fa" x="279.557714" y="144.075174" style="fill: #0000ff; fill-opacity: 0.5; stroke: #0000ff; stroke-opacity: 0.5"/>
     <use xlink:href="#m08035884fa" x="225.174654" y="188.650337" style="fill: #0000ff; fill-opacity: 0.5; stroke: #0000ff; stroke-opacity: 0.5"/>
     <use xlink:href="#m08035884fa" x="55.754969" y="266.828315" style="fill: #0000ff; fill-opacity: 0.5; stroke: #0000ff; stroke-opacity: 0.5"/>
     <use xlink:href="#m08035884fa" x="223.717612" y="173.220473" style="fill: #0000ff; fill-opacity: 0.5; stroke: #0000ff; stroke-opacity: 0.5"/>
     <use xlink:href="#m08035884fa" x="41.050469" y="286.441387" style="fill: #0000ff; fill-opacity: 0.5; stroke: #0000ff; stroke-opacity: 0.5"/>
     <use xlink:href="#m08035884fa" x="41.050469" y="284.65838" style="fill: #0000ff; fill-opacity: 0.5; stroke: #0000ff; stroke-opacity: 0.5"/>
     <use xlink:href="#m08035884fa" x="81.488263" y="261.342141" style="fill: #0000ff; fill-opacity: 0.5; stroke: #0000ff; stroke-opacity: 0.5"/>
     <use xlink:href="#m08035884fa" x="55.862164" y="277.457777" style="fill: #0000ff; fill-opacity: 0.5; stroke: #0000ff; stroke-opacity: 0.5"/>
     <use xlink:href="#m08035884fa" x="76.767709" y="258.94194" style="fill: #0000ff; fill-opacity: 0.5; stroke: #0000ff; stroke-opacity: 0.5"/>
     <use xlink:href="#m08035884fa" x="56.699309" y="282.258179" style="fill: #0000ff; fill-opacity: 0.5; stroke: #0000ff; stroke-opacity: 0.5"/>
     <use xlink:href="#m08035884fa" x="41.050469" y="287.195736" style="fill: #0000ff; fill-opacity: 0.5; stroke: #0000ff; stroke-opacity: 0.5"/>
     <use xlink:href="#m08035884fa" x="41.050469" y="286.201367" style="fill: #0000ff; fill-opacity: 0.5; stroke: #0000ff; stroke-opacity: 0.5"/>
     <use xlink:href="#m08035884fa" x="106.442374" y="248.655364" style="fill: #0000ff; fill-opacity: 0.5; stroke: #0000ff; stroke-opacity: 0.5"/>
     <use xlink:href="#m08035884fa" x="156.596015" y="202.022886" style="fill: #0000ff; fill-opacity: 0.5; stroke: #0000ff; stroke-opacity: 0.5"/>
     <use xlink:href="#m08035884fa" x="156.302903" y="221.910266" style="fill: #0000ff; fill-opacity: 0.5; stroke: #0000ff; stroke-opacity: 0.5"/>
     <use xlink:href="#m08035884fa" x="72.553086" y="270.257174" style="fill: #0000ff; fill-opacity: 0.5; stroke: #0000ff; stroke-opacity: 0.5"/>
     <use xlink:href="#m08035884fa" x="296.398267" y="122.130478" style="fill: #0000ff; fill-opacity: 0.5; stroke: #0000ff; stroke-opacity: 0.5"/>
     <use xlink:href="#m08035884fa" x="55.316993" y="280.886636" style="fill: #0000ff; fill-opacity: 0.5; stroke: #0000ff; stroke-opacity: 0.5"/>
     <use xlink:href="#m08035884fa" x="56.709503" y="269.571402" style="fill: #0000ff; fill-opacity: 0.5; stroke: #0000ff; stroke-opacity: 0.5"/>
     <use xlink:href="#m08035884fa" x="41.050469" y="286.338521" style="fill: #0000ff; fill-opacity: 0.5; stroke: #0000ff; stroke-opacity: 0.5"/>
     <use xlink:href="#m08035884fa" x="59.904388" y="275.400462" style="fill: #0000ff; fill-opacity: 0.5; stroke: #0000ff; stroke-opacity: 0.5"/>
     <use xlink:href="#m08035884fa" x="41.050469" y="286.715696" style="fill: #0000ff; fill-opacity: 0.5; stroke: #0000ff; stroke-opacity: 0.5"/>
     <use xlink:href="#m08035884fa" x="55.862164" y="271.285832" style="fill: #0000ff; fill-opacity: 0.5; stroke: #0000ff; stroke-opacity: 0.5"/>
     <use xlink:href="#m08035884fa" x="146.990065" y="231.853957" style="fill: #0000ff; fill-opacity: 0.5; stroke: #0000ff; stroke-opacity: 0.5"/>
     <use xlink:href="#m08035884fa" x="264.370818" y="170.1345" style="fill: #0000ff; fill-opacity: 0.5; stroke: #0000ff; stroke-opacity: 0.5"/>
     <use xlink:href="#m08035884fa" x="41.050469" y="285.789904" style="fill: #0000ff; fill-opacity: 0.5; stroke: #0000ff; stroke-opacity: 0.5"/>
     <use xlink:href="#m08035884fa" x="162.128283" y="198.594027" style="fill: #0000ff; fill-opacity: 0.5; stroke: #0000ff; stroke-opacity: 0.5"/>
     <use xlink:href="#m08035884fa" x="60.789832" y="270.257174" style="fill: #0000ff; fill-opacity: 0.5; stroke: #0000ff; stroke-opacity: 0.5"/>
     <use xlink:href="#m08035884fa" x="41.050469" y="285.961347" style="fill: #0000ff; fill-opacity: 0.5; stroke: #0000ff; stroke-opacity: 0.5"/>
     <use xlink:href="#m08035884fa" x="236.576044" y="166.705641" style="fill: #0000ff; fill-opacity: 0.5; stroke: #0000ff; stroke-opacity: 0.5"/>
     <use xlink:href="#m08035884fa" x="179.180157" y="207.851946" style="fill: #0000ff; fill-opacity: 0.5; stroke: #0000ff; stroke-opacity: 0.5"/>
     <use xlink:href="#m08035884fa" x="41.050469" y="285.412729" style="fill: #0000ff; fill-opacity: 0.5; stroke: #0000ff; stroke-opacity: 0.5"/>
     <use xlink:href="#m08035884fa" x="57.360364" y="267.171201" style="fill: #0000ff; fill-opacity: 0.5; stroke: #0000ff; stroke-opacity: 0.5"/>
     <use xlink:href="#m08035884fa" x="41.050469" y="285.001266" style="fill: #0000ff; fill-opacity: 0.5; stroke: #0000ff; stroke-opacity: 0.5"/>
     <use xlink:href="#m08035884fa" x="44.281576" y="283.972609" style="fill: #0000ff; fill-opacity: 0.5; stroke: #0000ff; stroke-opacity: 0.5"/>
     <use xlink:href="#m08035884fa" x="41.050469" y="286.167078" style="fill: #0000ff; fill-opacity: 0.5; stroke: #0000ff; stroke-opacity: 0.5"/>
     <use xlink:href="#m08035884fa" x="220.073353" y="183.849935" style="fill: #0000ff; fill-opacity: 0.5; stroke: #0000ff; stroke-opacity: 0.5"/>
     <use xlink:href="#m08035884fa" x="62.427127" y="278.486435" style="fill: #0000ff; fill-opacity: 0.5; stroke: #0000ff; stroke-opacity: 0.5"/>
     <use xlink:href="#m08035884fa" x="229.574963" y="175.277788" style="fill: #0000ff; fill-opacity: 0.5; stroke: #0000ff; stroke-opacity: 0.5"/>
     <use xlink:href="#m08035884fa" x="41.050469" y="285.652749" style="fill: #0000ff; fill-opacity: 0.5; stroke: #0000ff; stroke-opacity: 0.5"/>
     <use xlink:href="#m08035884fa" x="44.281576" y="279.515092" style="fill: #0000ff; fill-opacity: 0.5; stroke: #0000ff; stroke-opacity: 0.5"/>
     <use xlink:href="#m08035884fa" x="66.650878" y="255.170196" style="fill: #0000ff; fill-opacity: 0.5; stroke: #0000ff; stroke-opacity: 0.5"/>
     <use xlink:href="#m08035884fa" x="242.94538" y="169.105842" style="fill: #0000ff; fill-opacity: 0.5; stroke: #0000ff; stroke-opacity: 0.5"/>
     <use xlink:href="#m08035884fa" x="287.50177" y="138.589" style="fill: #0000ff; fill-opacity: 0.5; stroke: #0000ff; stroke-opacity: 0.5"/>
     <use xlink:href="#m08035884fa" x="157.917014" y="222.596038" style="fill: #0000ff; fill-opacity: 0.5; stroke: #0000ff; stroke-opacity: 0.5"/>
     <use xlink:href="#m08035884fa" x="140.938941" y="226.024897" style="fill: #0000ff; fill-opacity: 0.5; stroke: #0000ff; stroke-opacity: 0.5"/>
     <use xlink:href="#m08035884fa" x="198.871075" y="197.908255" style="fill: #0000ff; fill-opacity: 0.5; stroke: #0000ff; stroke-opacity: 0.5"/>
     <use xlink:href="#m08035884fa" x="52.523861" y="283.286837" style="fill: #0000ff; fill-opacity: 0.5; stroke: #0000ff; stroke-opacity: 0.5"/>
     <use xlink:href="#m08035884fa" x="41.050469" y="286.887139" style="fill: #0000ff; fill-opacity: 0.5; stroke: #0000ff; stroke-opacity: 0.5"/>
     <use xlink:href="#m08035884fa" x="41.050469" y="283.629723" style="fill: #0000ff; fill-opacity: 0.5; stroke: #0000ff; stroke-opacity: 0.5"/>
     <use xlink:href="#m08035884fa" x="41.050469" y="286.509964" style="fill: #0000ff; fill-opacity: 0.5; stroke: #0000ff; stroke-opacity: 0.5"/>
     <use xlink:href="#m08035884fa" x="41.050469" y="285.755615" style="fill: #0000ff; fill-opacity: 0.5; stroke: #0000ff; stroke-opacity: 0.5"/>
     <use xlink:href="#m08035884fa" x="44.281576" y="286.235655" style="fill: #0000ff; fill-opacity: 0.5; stroke: #0000ff; stroke-opacity: 0.5"/>
     <use xlink:href="#m08035884fa" x="45.092692" y="283.972609" style="fill: #0000ff; fill-opacity: 0.5; stroke: #0000ff; stroke-opacity: 0.5"/>
     <use xlink:href="#m08035884fa" x="80.809931" y="256.541739" style="fill: #0000ff; fill-opacity: 0.5; stroke: #0000ff; stroke-opacity: 0.5"/>
     <use xlink:href="#m08035884fa" x="374.714903" y="65.55431" style="fill: #0000ff; fill-opacity: 0.5; stroke: #0000ff; stroke-opacity: 0.5"/>
     <use xlink:href="#m08035884fa" x="50.222957" y="275.743348" style="fill: #0000ff; fill-opacity: 0.5; stroke: #0000ff; stroke-opacity: 0.5"/>
     <use xlink:href="#m08035884fa" x="55.75937" y="277.114891" style="fill: #0000ff; fill-opacity: 0.5; stroke: #0000ff; stroke-opacity: 0.5"/>
     <use xlink:href="#m08035884fa" x="73.322051" y="262.370799" style="fill: #0000ff; fill-opacity: 0.5; stroke: #0000ff; stroke-opacity: 0.5"/>
     <use xlink:href="#m08035884fa" x="247.447388" y="162.248125" style="fill: #0000ff; fill-opacity: 0.5; stroke: #0000ff; stroke-opacity: 0.5"/>
    </g>
   </g>
   <g id="PathCollection_2">
    <defs>
     <path id="maad975864b" d="M 0 3 
C 0.795609 3 1.55874 2.683901 2.12132 2.12132 
C 2.683901 1.55874 3 0.795609 3 0 
C 3 -0.795609 2.683901 -1.55874 2.12132 -2.12132 
C 1.55874 -2.683901 0.795609 -3 0 -3 
C -0.795609 -3 -1.55874 -2.683901 -2.12132 -2.12132 
C -2.683901 -1.55874 -3 -0.795609 -3 0 
C -3 0.795609 -2.683901 1.55874 -2.12132 2.12132 
C -1.55874 2.683901 -0.795609 3 0 3 
z
" style="stroke: #008000; stroke-opacity: 0.5"/>
    </defs>
    <g clip-path="url(#p87ce841ea7)">
     <use xlink:href="#maad975864b" x="253.967951" y="185.90725" style="fill: #008000; fill-opacity: 0.5; stroke: #008000; stroke-opacity: 0.5"/>
     <use xlink:href="#maad975864b" x="41.050469" y="286.441387" style="fill: #008000; fill-opacity: 0.5; stroke: #008000; stroke-opacity: 0.5"/>
     <use xlink:href="#maad975864b" x="72.337001" y="266.142543" style="fill: #008000; fill-opacity: 0.5; stroke: #008000; stroke-opacity: 0.5"/>
     <use xlink:href="#maad975864b" x="216.433345" y="251.055565" style="fill: #008000; fill-opacity: 0.5; stroke: #008000; stroke-opacity: 0.5"/>
     <use xlink:href="#maad975864b" x="64.292902" y="246.940935" style="fill: #008000; fill-opacity: 0.5; stroke: #008000; stroke-opacity: 0.5"/>
     <use xlink:href="#maad975864b" x="41.050469" y="279.515092" style="fill: #008000; fill-opacity: 0.5; stroke: #008000; stroke-opacity: 0.5"/>
     <use xlink:href="#maad975864b" x="44.281576" y="282.601065" style="fill: #008000; fill-opacity: 0.5; stroke: #008000; stroke-opacity: 0.5"/>
     <use xlink:href="#maad975864b" x="145.668249" y="197.222484" style="fill: #008000; fill-opacity: 0.5; stroke: #008000; stroke-opacity: 0.5"/>
     <use xlink:href="#maad975864b" x="41.050469" y="286.338521" style="fill: #008000; fill-opacity: 0.5; stroke: #008000; stroke-opacity: 0.5"/>
     <use xlink:href="#maad975864b" x="91.041383" y="229.11087" style="fill: #008000; fill-opacity: 0.5; stroke: #008000; stroke-opacity: 0.5"/>
     <use xlink:href="#maad975864b" x="63.126684" y="277.457777" style="fill: #008000; fill-opacity: 0.5; stroke: #008000; stroke-opacity: 0.5"/>
     <use xlink:href="#maad975864b" x="150.106818" y="257.913283" style="fill: #008000; fill-opacity: 0.5; stroke: #008000; stroke-opacity: 0.5"/>
     <use xlink:href="#maad975864b" x="44.281576" y="282.943951" style="fill: #008000; fill-opacity: 0.5; stroke: #008000; stroke-opacity: 0.5"/>
     <use xlink:href="#maad975864b" x="59.904388" y="267.514087" style="fill: #008000; fill-opacity: 0.5; stroke: #008000; stroke-opacity: 0.5"/>
     <use xlink:href="#maad975864b" x="41.050469" y="286.887139" style="fill: #008000; fill-opacity: 0.5; stroke: #008000; stroke-opacity: 0.5"/>
     <use xlink:href="#maad975864b" x="46.144507" y="284.315495" style="fill: #008000; fill-opacity: 0.5; stroke: #008000; stroke-opacity: 0.5"/>
     <use xlink:href="#maad975864b" x="232.792866" y="192.422082" style="fill: #008000; fill-opacity: 0.5; stroke: #008000; stroke-opacity: 0.5"/>
     <use xlink:href="#maad975864b" x="60.789832" y="254.82731" style="fill: #008000; fill-opacity: 0.5; stroke: #008000; stroke-opacity: 0.5"/>
     <use xlink:href="#maad975864b" x="67.595221" y="264.085228" style="fill: #008000; fill-opacity: 0.5; stroke: #008000; stroke-opacity: 0.5"/>
     <use xlink:href="#maad975864b" x="41.050469" y="286.818561" style="fill: #008000; fill-opacity: 0.5; stroke: #008000; stroke-opacity: 0.5"/>
     <use xlink:href="#maad975864b" x="231.274255" y="156.419065" style="fill: #008000; fill-opacity: 0.5; stroke: #008000; stroke-opacity: 0.5"/>
     <use xlink:href="#maad975864b" x="216.395242" y="207.851946" style="fill: #008000; fill-opacity: 0.5; stroke: #008000; stroke-opacity: 0.5"/>
     <use xlink:href="#maad975864b" x="65.867194" y="277.457777" style="fill: #008000; fill-opacity: 0.5; stroke: #008000; stroke-opacity: 0.5"/>
     <use xlink:href="#maad975864b" x="61.616012" y="268.88563" style="fill: #008000; fill-opacity: 0.5; stroke: #008000; stroke-opacity: 0.5"/>
     <use xlink:href="#maad975864b" x="313.118121" y="159.505038" style="fill: #008000; fill-opacity: 0.5; stroke: #008000; stroke-opacity: 0.5"/>
     <use xlink:href="#maad975864b" x="279.557714" y="181.106848" style="fill: #008000; fill-opacity: 0.5; stroke: #008000; stroke-opacity: 0.5"/>
     <use xlink:href="#maad975864b" x="296.398267" y="126.93088" style="fill: #008000; fill-opacity: 0.5; stroke: #008000; stroke-opacity: 0.5"/>
     <use xlink:href="#maad975864b" x="262.612261" y="173.563359" style="fill: #008000; fill-opacity: 0.5; stroke: #008000; stroke-opacity: 0.5"/>
     <use xlink:href="#maad975864b" x="41.050469" y="285.481307" style="fill: #008000; fill-opacity: 0.5; stroke: #008000; stroke-opacity: 0.5"/>
     <use xlink:href="#maad975864b" x="41.050469" y="287.09287" style="fill: #008000; fill-opacity: 0.5; stroke: #008000; stroke-opacity: 0.5"/>
     <use xlink:href="#maad975864b" x="305.055894" y="166.705641" style="fill: #008000; fill-opacity: 0.5; stroke: #008000; stroke-opacity: 0.5"/>
     <use xlink:href="#maad975864b" x="228.992656" y="186.593022" style="fill: #008000; fill-opacity: 0.5; stroke: #008000; stroke-opacity: 0.5"/>
     <use xlink:href="#maad975864b" x="248.502088" y="172.877587" style="fill: #008000; fill-opacity: 0.5; stroke: #008000; stroke-opacity: 0.5"/>
     <use xlink:href="#maad975864b" x="246.164649" y="180.07819" style="fill: #008000; fill-opacity: 0.5; stroke: #008000; stroke-opacity: 0.5"/>
     <use xlink:href="#maad975864b" x="55.862164" y="258.94194" style="fill: #008000; fill-opacity: 0.5; stroke: #008000; stroke-opacity: 0.5"/>
     <use xlink:href="#maad975864b" x="99.85633" y="266.828315" style="fill: #008000; fill-opacity: 0.5; stroke: #008000; stroke-opacity: 0.5"/>
     <use xlink:href="#maad975864b" x="41.050469" y="284.315495" style="fill: #008000; fill-opacity: 0.5; stroke: #008000; stroke-opacity: 0.5"/>
     <use xlink:href="#maad975864b" x="225.488523" y="153.333092" style="fill: #008000; fill-opacity: 0.5; stroke: #008000; stroke-opacity: 0.5"/>
     <use xlink:href="#maad975864b" x="48.323798" y="281.229522" style="fill: #008000; fill-opacity: 0.5; stroke: #008000; stroke-opacity: 0.5"/>
    </g>
   </g>
   <g id="matplotlib.axis_1">
    <g id="xtick_1">
     <g id="line2d_1">
      <path d="M 34.278125 288.430125 
L 34.278125 22.318125 
" clip-path="url(#p87ce841ea7)" style="fill: none; stroke: #b0b0b0; stroke-width: 0.8; stroke-linecap: square"/>
     </g>
     <g id="line2d_2">
      <defs>
       <path id="ma1c235533c" d="M 0 0 
L 0 3.5 
" style="stroke: #000000; stroke-width: 0.8"/>
      </defs>
      <g>
       <use xlink:href="#ma1c235533c" x="34.278125" y="288.430125" style="stroke: #000000; stroke-width: 0.8"/>
      </g>
     </g>
     <g id="text_1">
      <!-- 0 -->
      <g transform="translate(31.096875 303.028562) scale(0.1 -0.1)">
       <defs>
        <path id="DejaVuSans-30" d="M 2034 4250 
Q 1547 4250 1301 3770 
Q 1056 3291 1056 2328 
Q 1056 1369 1301 889 
Q 1547 409 2034 409 
Q 2525 409 2770 889 
Q 3016 1369 3016 2328 
Q 3016 3291 2770 3770 
Q 2525 4250 2034 4250 
z
M 2034 4750 
Q 2819 4750 3233 4129 
Q 3647 3509 3647 2328 
Q 3647 1150 3233 529 
Q 2819 -91 2034 -91 
Q 1250 -91 836 529 
Q 422 1150 422 2328 
Q 422 3509 836 4129 
Q 1250 4750 2034 4750 
z
" transform="scale(0.015625)"/>
       </defs>
       <use xlink:href="#DejaVuSans-30"/>
      </g>
     </g>
    </g>
    <g id="xtick_2">
     <g id="line2d_3">
      <path d="M 92.948314 288.430125 
L 92.948314 22.318125 
" clip-path="url(#p87ce841ea7)" style="fill: none; stroke: #b0b0b0; stroke-width: 0.8; stroke-linecap: square"/>
     </g>
     <g id="line2d_4">
      <g>
       <use xlink:href="#ma1c235533c" x="92.948314" y="288.430125" style="stroke: #000000; stroke-width: 0.8"/>
      </g>
     </g>
     <g id="text_2">
      <!-- 10 -->
      <g transform="translate(86.585814 303.028562) scale(0.1 -0.1)">
       <defs>
        <path id="DejaVuSans-31" d="M 794 531 
L 1825 531 
L 1825 4091 
L 703 3866 
L 703 4441 
L 1819 4666 
L 2450 4666 
L 2450 531 
L 3481 531 
L 3481 0 
L 794 0 
L 794 531 
z
" transform="scale(0.015625)"/>
       </defs>
       <use xlink:href="#DejaVuSans-31"/>
       <use xlink:href="#DejaVuSans-30" x="63.623047"/>
      </g>
     </g>
    </g>
    <g id="xtick_3">
     <g id="line2d_5">
      <path d="M 151.618503 288.430125 
L 151.618503 22.318125 
" clip-path="url(#p87ce841ea7)" style="fill: none; stroke: #b0b0b0; stroke-width: 0.8; stroke-linecap: square"/>
     </g>
     <g id="line2d_6">
      <g>
       <use xlink:href="#ma1c235533c" x="151.618503" y="288.430125" style="stroke: #000000; stroke-width: 0.8"/>
      </g>
     </g>
     <g id="text_3">
      <!-- 20 -->
      <g transform="translate(145.256003 303.028562) scale(0.1 -0.1)">
       <defs>
        <path id="DejaVuSans-32" d="M 1228 531 
L 3431 531 
L 3431 0 
L 469 0 
L 469 531 
Q 828 903 1448 1529 
Q 2069 2156 2228 2338 
Q 2531 2678 2651 2914 
Q 2772 3150 2772 3378 
Q 2772 3750 2511 3984 
Q 2250 4219 1831 4219 
Q 1534 4219 1204 4116 
Q 875 4013 500 3803 
L 500 4441 
Q 881 4594 1212 4672 
Q 1544 4750 1819 4750 
Q 2544 4750 2975 4387 
Q 3406 4025 3406 3419 
Q 3406 3131 3298 2873 
Q 3191 2616 2906 2266 
Q 2828 2175 2409 1742 
Q 1991 1309 1228 531 
z
" transform="scale(0.015625)"/>
       </defs>
       <use xlink:href="#DejaVuSans-32"/>
       <use xlink:href="#DejaVuSans-30" x="63.623047"/>
      </g>
     </g>
    </g>
    <g id="xtick_4">
     <g id="line2d_7">
      <path d="M 210.288691 288.430125 
L 210.288691 22.318125 
" clip-path="url(#p87ce841ea7)" style="fill: none; stroke: #b0b0b0; stroke-width: 0.8; stroke-linecap: square"/>
     </g>
     <g id="line2d_8">
      <g>
       <use xlink:href="#ma1c235533c" x="210.288691" y="288.430125" style="stroke: #000000; stroke-width: 0.8"/>
      </g>
     </g>
     <g id="text_4">
      <!-- 30 -->
      <g transform="translate(203.926191 303.028562) scale(0.1 -0.1)">
       <defs>
        <path id="DejaVuSans-33" d="M 2597 2516 
Q 3050 2419 3304 2112 
Q 3559 1806 3559 1356 
Q 3559 666 3084 287 
Q 2609 -91 1734 -91 
Q 1441 -91 1130 -33 
Q 819 25 488 141 
L 488 750 
Q 750 597 1062 519 
Q 1375 441 1716 441 
Q 2309 441 2620 675 
Q 2931 909 2931 1356 
Q 2931 1769 2642 2001 
Q 2353 2234 1838 2234 
L 1294 2234 
L 1294 2753 
L 1863 2753 
Q 2328 2753 2575 2939 
Q 2822 3125 2822 3475 
Q 2822 3834 2567 4026 
Q 2313 4219 1838 4219 
Q 1578 4219 1281 4162 
Q 984 4106 628 3988 
L 628 4550 
Q 988 4650 1302 4700 
Q 1616 4750 1894 4750 
Q 2613 4750 3031 4423 
Q 3450 4097 3450 3541 
Q 3450 3153 3228 2886 
Q 3006 2619 2597 2516 
z
" transform="scale(0.015625)"/>
       </defs>
       <use xlink:href="#DejaVuSans-33"/>
       <use xlink:href="#DejaVuSans-30" x="63.623047"/>
      </g>
     </g>
    </g>
    <g id="xtick_5">
     <g id="line2d_9">
      <path d="M 268.95888 288.430125 
L 268.95888 22.318125 
" clip-path="url(#p87ce841ea7)" style="fill: none; stroke: #b0b0b0; stroke-width: 0.8; stroke-linecap: square"/>
     </g>
     <g id="line2d_10">
      <g>
       <use xlink:href="#ma1c235533c" x="268.95888" y="288.430125" style="stroke: #000000; stroke-width: 0.8"/>
      </g>
     </g>
     <g id="text_5">
      <!-- 40 -->
      <g transform="translate(262.59638 303.028562) scale(0.1 -0.1)">
       <defs>
        <path id="DejaVuSans-34" d="M 2419 4116 
L 825 1625 
L 2419 1625 
L 2419 4116 
z
M 2253 4666 
L 3047 4666 
L 3047 1625 
L 3713 1625 
L 3713 1100 
L 3047 1100 
L 3047 0 
L 2419 0 
L 2419 1100 
L 313 1100 
L 313 1709 
L 2253 4666 
z
" transform="scale(0.015625)"/>
       </defs>
       <use xlink:href="#DejaVuSans-34"/>
       <use xlink:href="#DejaVuSans-30" x="63.623047"/>
      </g>
     </g>
    </g>
    <g id="xtick_6">
     <g id="line2d_11">
      <path d="M 327.629069 288.430125 
L 327.629069 22.318125 
" clip-path="url(#p87ce841ea7)" style="fill: none; stroke: #b0b0b0; stroke-width: 0.8; stroke-linecap: square"/>
     </g>
     <g id="line2d_12">
      <g>
       <use xlink:href="#ma1c235533c" x="327.629069" y="288.430125" style="stroke: #000000; stroke-width: 0.8"/>
      </g>
     </g>
     <g id="text_6">
      <!-- 50 -->
      <g transform="translate(321.266569 303.028562) scale(0.1 -0.1)">
       <defs>
        <path id="DejaVuSans-35" d="M 691 4666 
L 3169 4666 
L 3169 4134 
L 1269 4134 
L 1269 2991 
Q 1406 3038 1543 3061 
Q 1681 3084 1819 3084 
Q 2600 3084 3056 2656 
Q 3513 2228 3513 1497 
Q 3513 744 3044 326 
Q 2575 -91 1722 -91 
Q 1428 -91 1123 -41 
Q 819 9 494 109 
L 494 744 
Q 775 591 1075 516 
Q 1375 441 1709 441 
Q 2250 441 2565 725 
Q 2881 1009 2881 1497 
Q 2881 1984 2565 2268 
Q 2250 2553 1709 2553 
Q 1456 2553 1204 2497 
Q 953 2441 691 2322 
L 691 4666 
z
" transform="scale(0.015625)"/>
       </defs>
       <use xlink:href="#DejaVuSans-35"/>
       <use xlink:href="#DejaVuSans-30" x="63.623047"/>
      </g>
     </g>
    </g>
    <g id="xtick_7">
     <g id="line2d_13">
      <path d="M 386.299258 288.430125 
L 386.299258 22.318125 
" clip-path="url(#p87ce841ea7)" style="fill: none; stroke: #b0b0b0; stroke-width: 0.8; stroke-linecap: square"/>
     </g>
     <g id="line2d_14">
      <g>
       <use xlink:href="#ma1c235533c" x="386.299258" y="288.430125" style="stroke: #000000; stroke-width: 0.8"/>
      </g>
     </g>
     <g id="text_7">
      <!-- 60 -->
      <g transform="translate(379.936758 303.028562) scale(0.1 -0.1)">
       <defs>
        <path id="DejaVuSans-36" d="M 2113 2584 
Q 1688 2584 1439 2293 
Q 1191 2003 1191 1497 
Q 1191 994 1439 701 
Q 1688 409 2113 409 
Q 2538 409 2786 701 
Q 3034 994 3034 1497 
Q 3034 2003 2786 2293 
Q 2538 2584 2113 2584 
z
M 3366 4563 
L 3366 3988 
Q 3128 4100 2886 4159 
Q 2644 4219 2406 4219 
Q 1781 4219 1451 3797 
Q 1122 3375 1075 2522 
Q 1259 2794 1537 2939 
Q 1816 3084 2150 3084 
Q 2853 3084 3261 2657 
Q 3669 2231 3669 1497 
Q 3669 778 3244 343 
Q 2819 -91 2113 -91 
Q 1303 -91 875 529 
Q 447 1150 447 2328 
Q 447 3434 972 4092 
Q 1497 4750 2381 4750 
Q 2619 4750 2861 4703 
Q 3103 4656 3366 4563 
z
" transform="scale(0.015625)"/>
       </defs>
       <use xlink:href="#DejaVuSans-36"/>
       <use xlink:href="#DejaVuSans-30" x="63.623047"/>
      </g>
     </g>
    </g>
    <g id="text_8">
     <!-- prediction -->
     <g transform="translate(187.754531 316.706687) scale(0.1 -0.1)">
      <defs>
       <path id="DejaVuSans-70" d="M 1159 525 
L 1159 -1331 
L 581 -1331 
L 581 3500 
L 1159 3500 
L 1159 2969 
Q 1341 3281 1617 3432 
Q 1894 3584 2278 3584 
Q 2916 3584 3314 3078 
Q 3713 2572 3713 1747 
Q 3713 922 3314 415 
Q 2916 -91 2278 -91 
Q 1894 -91 1617 61 
Q 1341 213 1159 525 
z
M 3116 1747 
Q 3116 2381 2855 2742 
Q 2594 3103 2138 3103 
Q 1681 3103 1420 2742 
Q 1159 2381 1159 1747 
Q 1159 1113 1420 752 
Q 1681 391 2138 391 
Q 2594 391 2855 752 
Q 3116 1113 3116 1747 
z
" transform="scale(0.015625)"/>
       <path id="DejaVuSans-72" d="M 2631 2963 
Q 2534 3019 2420 3045 
Q 2306 3072 2169 3072 
Q 1681 3072 1420 2755 
Q 1159 2438 1159 1844 
L 1159 0 
L 581 0 
L 581 3500 
L 1159 3500 
L 1159 2956 
Q 1341 3275 1631 3429 
Q 1922 3584 2338 3584 
Q 2397 3584 2469 3576 
Q 2541 3569 2628 3553 
L 2631 2963 
z
" transform="scale(0.015625)"/>
       <path id="DejaVuSans-65" d="M 3597 1894 
L 3597 1613 
L 953 1613 
Q 991 1019 1311 708 
Q 1631 397 2203 397 
Q 2534 397 2845 478 
Q 3156 559 3463 722 
L 3463 178 
Q 3153 47 2828 -22 
Q 2503 -91 2169 -91 
Q 1331 -91 842 396 
Q 353 884 353 1716 
Q 353 2575 817 3079 
Q 1281 3584 2069 3584 
Q 2775 3584 3186 3129 
Q 3597 2675 3597 1894 
z
M 3022 2063 
Q 3016 2534 2758 2815 
Q 2500 3097 2075 3097 
Q 1594 3097 1305 2825 
Q 1016 2553 972 2059 
L 3022 2063 
z
" transform="scale(0.015625)"/>
       <path id="DejaVuSans-64" d="M 2906 2969 
L 2906 4863 
L 3481 4863 
L 3481 0 
L 2906 0 
L 2906 525 
Q 2725 213 2448 61 
Q 2172 -91 1784 -91 
Q 1150 -91 751 415 
Q 353 922 353 1747 
Q 353 2572 751 3078 
Q 1150 3584 1784 3584 
Q 2172 3584 2448 3432 
Q 2725 3281 2906 2969 
z
M 947 1747 
Q 947 1113 1208 752 
Q 1469 391 1925 391 
Q 2381 391 2643 752 
Q 2906 1113 2906 1747 
Q 2906 2381 2643 2742 
Q 2381 3103 1925 3103 
Q 1469 3103 1208 2742 
Q 947 2381 947 1747 
z
" transform="scale(0.015625)"/>
       <path id="DejaVuSans-69" d="M 603 3500 
L 1178 3500 
L 1178 0 
L 603 0 
L 603 3500 
z
M 603 4863 
L 1178 4863 
L 1178 4134 
L 603 4134 
L 603 4863 
z
" transform="scale(0.015625)"/>
       <path id="DejaVuSans-63" d="M 3122 3366 
L 3122 2828 
Q 2878 2963 2633 3030 
Q 2388 3097 2138 3097 
Q 1578 3097 1268 2742 
Q 959 2388 959 1747 
Q 959 1106 1268 751 
Q 1578 397 2138 397 
Q 2388 397 2633 464 
Q 2878 531 3122 666 
L 3122 134 
Q 2881 22 2623 -34 
Q 2366 -91 2075 -91 
Q 1284 -91 818 406 
Q 353 903 353 1747 
Q 353 2603 823 3093 
Q 1294 3584 2113 3584 
Q 2378 3584 2631 3529 
Q 2884 3475 3122 3366 
z
" transform="scale(0.015625)"/>
       <path id="DejaVuSans-74" d="M 1172 4494 
L 1172 3500 
L 2356 3500 
L 2356 3053 
L 1172 3053 
L 1172 1153 
Q 1172 725 1289 603 
Q 1406 481 1766 481 
L 2356 481 
L 2356 0 
L 1766 0 
Q 1100 0 847 248 
Q 594 497 594 1153 
L 594 3053 
L 172 3053 
L 172 3500 
L 594 3500 
L 594 4494 
L 1172 4494 
z
" transform="scale(0.015625)"/>
       <path id="DejaVuSans-6f" d="M 1959 3097 
Q 1497 3097 1228 2736 
Q 959 2375 959 1747 
Q 959 1119 1226 758 
Q 1494 397 1959 397 
Q 2419 397 2687 759 
Q 2956 1122 2956 1747 
Q 2956 2369 2687 2733 
Q 2419 3097 1959 3097 
z
M 1959 3584 
Q 2709 3584 3137 3096 
Q 3566 2609 3566 1747 
Q 3566 888 3137 398 
Q 2709 -91 1959 -91 
Q 1206 -91 779 398 
Q 353 888 353 1747 
Q 353 2609 779 3096 
Q 1206 3584 1959 3584 
z
" transform="scale(0.015625)"/>
       <path id="DejaVuSans-6e" d="M 3513 2113 
L 3513 0 
L 2938 0 
L 2938 2094 
Q 2938 2591 2744 2837 
Q 2550 3084 2163 3084 
Q 1697 3084 1428 2787 
Q 1159 2491 1159 1978 
L 1159 0 
L 581 0 
L 581 3500 
L 1159 3500 
L 1159 2956 
Q 1366 3272 1645 3428 
Q 1925 3584 2291 3584 
Q 2894 3584 3203 3211 
Q 3513 2838 3513 2113 
z
" transform="scale(0.015625)"/>
      </defs>
      <use xlink:href="#DejaVuSans-70"/>
      <use xlink:href="#DejaVuSans-72" x="63.476562"/>
      <use xlink:href="#DejaVuSans-65" x="102.339844"/>
      <use xlink:href="#DejaVuSans-64" x="163.863281"/>
      <use xlink:href="#DejaVuSans-69" x="227.339844"/>
      <use xlink:href="#DejaVuSans-63" x="255.123047"/>
      <use xlink:href="#DejaVuSans-74" x="310.103516"/>
      <use xlink:href="#DejaVuSans-69" x="349.3125"/>
      <use xlink:href="#DejaVuSans-6f" x="377.095703"/>
      <use xlink:href="#DejaVuSans-6e" x="438.277344"/>
     </g>
    </g>
   </g>
   <g id="matplotlib.axis_2">
    <g id="ytick_1">
     <g id="line2d_15">
      <path d="M 34.278125 288.430125 
L 391.398125 288.430125 
" clip-path="url(#p87ce841ea7)" style="fill: none; stroke: #b0b0b0; stroke-width: 0.8; stroke-linecap: square"/>
     </g>
     <g id="line2d_16">
      <defs>
       <path id="mb491ef69e2" d="M 0 0 
L -3.5 0 
" style="stroke: #000000; stroke-width: 0.8"/>
      </defs>
      <g>
       <use xlink:href="#mb491ef69e2" x="34.278125" y="288.430125" style="stroke: #000000; stroke-width: 0.8"/>
      </g>
     </g>
     <g id="text_9">
      <!-- $\mathdefault{0}$ -->
      <g transform="translate(20.878125 292.229344) scale(0.1 -0.1)">
       <use xlink:href="#DejaVuSans-30" transform="translate(0 0.78125)"/>
      </g>
     </g>
    </g>
    <g id="ytick_2">
     <g id="line2d_17">
      <path d="M 34.278125 254.141538 
L 391.398125 254.141538 
" clip-path="url(#p87ce841ea7)" style="fill: none; stroke: #b0b0b0; stroke-width: 0.8; stroke-linecap: square"/>
     </g>
     <g id="line2d_18">
      <g>
       <use xlink:href="#mb491ef69e2" x="34.278125" y="254.141538" style="stroke: #000000; stroke-width: 0.8"/>
      </g>
     </g>
     <g id="text_10">
      <!-- $\mathdefault{1}$ -->
      <g transform="translate(20.878125 257.940757) scale(0.1 -0.1)">
       <use xlink:href="#DejaVuSans-31" transform="translate(0 0.09375)"/>
      </g>
     </g>
    </g>
    <g id="ytick_3">
     <g id="line2d_19">
      <path d="M 34.278125 219.852951 
L 391.398125 219.852951 
" clip-path="url(#p87ce841ea7)" style="fill: none; stroke: #b0b0b0; stroke-width: 0.8; stroke-linecap: square"/>
     </g>
     <g id="line2d_20">
      <g>
       <use xlink:href="#mb491ef69e2" x="34.278125" y="219.852951" style="stroke: #000000; stroke-width: 0.8"/>
      </g>
     </g>
     <g id="text_11">
      <!-- $\mathdefault{2}$ -->
      <g transform="translate(20.878125 223.65217) scale(0.1 -0.1)">
       <use xlink:href="#DejaVuSans-32" transform="translate(0 0.78125)"/>
      </g>
     </g>
    </g>
    <g id="ytick_4">
     <g id="line2d_21">
      <path d="M 34.278125 185.564364 
L 391.398125 185.564364 
" clip-path="url(#p87ce841ea7)" style="fill: none; stroke: #b0b0b0; stroke-width: 0.8; stroke-linecap: square"/>
     </g>
     <g id="line2d_22">
      <g>
       <use xlink:href="#mb491ef69e2" x="34.278125" y="185.564364" style="stroke: #000000; stroke-width: 0.8"/>
      </g>
     </g>
     <g id="text_12">
      <!-- $\mathdefault{3}$ -->
      <g transform="translate(20.878125 189.363583) scale(0.1 -0.1)">
       <use xlink:href="#DejaVuSans-33" transform="translate(0 0.78125)"/>
      </g>
     </g>
    </g>
    <g id="ytick_5">
     <g id="line2d_23">
      <path d="M 34.278125 151.275777 
L 391.398125 151.275777 
" clip-path="url(#p87ce841ea7)" style="fill: none; stroke: #b0b0b0; stroke-width: 0.8; stroke-linecap: square"/>
     </g>
     <g id="line2d_24">
      <g>
       <use xlink:href="#mb491ef69e2" x="34.278125" y="151.275777" style="stroke: #000000; stroke-width: 0.8"/>
      </g>
     </g>
     <g id="text_13">
      <!-- $\mathdefault{4}$ -->
      <g transform="translate(20.878125 155.074996) scale(0.1 -0.1)">
       <use xlink:href="#DejaVuSans-34" transform="translate(0 0.09375)"/>
      </g>
     </g>
    </g>
    <g id="ytick_6">
     <g id="line2d_25">
      <path d="M 34.278125 116.98719 
L 391.398125 116.98719 
" clip-path="url(#p87ce841ea7)" style="fill: none; stroke: #b0b0b0; stroke-width: 0.8; stroke-linecap: square"/>
     </g>
     <g id="line2d_26">
      <g>
       <use xlink:href="#mb491ef69e2" x="34.278125" y="116.98719" style="stroke: #000000; stroke-width: 0.8"/>
      </g>
     </g>
     <g id="text_14">
      <!-- $\mathdefault{5}$ -->
      <g transform="translate(20.878125 120.786409) scale(0.1 -0.1)">
       <use xlink:href="#DejaVuSans-35" transform="translate(0 0.09375)"/>
      </g>
     </g>
    </g>
    <g id="ytick_7">
     <g id="line2d_27">
      <path d="M 34.278125 82.698603 
L 391.398125 82.698603 
" clip-path="url(#p87ce841ea7)" style="fill: none; stroke: #b0b0b0; stroke-width: 0.8; stroke-linecap: square"/>
     </g>
     <g id="line2d_28">
      <g>
       <use xlink:href="#mb491ef69e2" x="34.278125" y="82.698603" style="stroke: #000000; stroke-width: 0.8"/>
      </g>
     </g>
     <g id="text_15">
      <!-- $\mathdefault{6}$ -->
      <g transform="translate(20.878125 86.497822) scale(0.1 -0.1)">
       <use xlink:href="#DejaVuSans-36" transform="translate(0 0.78125)"/>
      </g>
     </g>
    </g>
    <g id="ytick_8">
     <g id="line2d_29">
      <path d="M 34.278125 48.410016 
L 391.398125 48.410016 
" clip-path="url(#p87ce841ea7)" style="fill: none; stroke: #b0b0b0; stroke-width: 0.8; stroke-linecap: square"/>
     </g>
     <g id="line2d_30">
      <g>
       <use xlink:href="#mb491ef69e2" x="34.278125" y="48.410016" style="stroke: #000000; stroke-width: 0.8"/>
      </g>
     </g>
     <g id="text_16">
      <!-- $\mathdefault{7}$ -->
      <g transform="translate(20.878125 52.209235) scale(0.1 -0.1)">
       <defs>
        <path id="DejaVuSans-37" d="M 525 4666 
L 3525 4666 
L 3525 4397 
L 1831 0 
L 1172 0 
L 2766 4134 
L 525 4134 
L 525 4666 
z
" transform="scale(0.015625)"/>
       </defs>
       <use xlink:href="#DejaVuSans-37" transform="translate(0 0.09375)"/>
      </g>
     </g>
    </g>
    <g id="text_17">
     <!-- actual -->
     <g transform="translate(14.798438 170.769437) rotate(-90) scale(0.1 -0.1)">
      <defs>
       <path id="DejaVuSans-61" d="M 2194 1759 
Q 1497 1759 1228 1600 
Q 959 1441 959 1056 
Q 959 750 1161 570 
Q 1363 391 1709 391 
Q 2188 391 2477 730 
Q 2766 1069 2766 1631 
L 2766 1759 
L 2194 1759 
z
M 3341 1997 
L 3341 0 
L 2766 0 
L 2766 531 
Q 2569 213 2275 61 
Q 1981 -91 1556 -91 
Q 1019 -91 701 211 
Q 384 513 384 1019 
Q 384 1609 779 1909 
Q 1175 2209 1959 2209 
L 2766 2209 
L 2766 2266 
Q 2766 2663 2505 2880 
Q 2244 3097 1772 3097 
Q 1472 3097 1187 3025 
Q 903 2953 641 2809 
L 641 3341 
Q 956 3463 1253 3523 
Q 1550 3584 1831 3584 
Q 2591 3584 2966 3190 
Q 3341 2797 3341 1997 
z
" transform="scale(0.015625)"/>
       <path id="DejaVuSans-75" d="M 544 1381 
L 544 3500 
L 1119 3500 
L 1119 1403 
Q 1119 906 1312 657 
Q 1506 409 1894 409 
Q 2359 409 2629 706 
Q 2900 1003 2900 1516 
L 2900 3500 
L 3475 3500 
L 3475 0 
L 2900 0 
L 2900 538 
Q 2691 219 2414 64 
Q 2138 -91 1772 -91 
Q 1169 -91 856 284 
Q 544 659 544 1381 
z
M 1991 3584 
L 1991 3584 
z
" transform="scale(0.015625)"/>
       <path id="DejaVuSans-6c" d="M 603 4863 
L 1178 4863 
L 1178 0 
L 603 0 
L 603 4863 
z
" transform="scale(0.015625)"/>
      </defs>
      <use xlink:href="#DejaVuSans-61"/>
      <use xlink:href="#DejaVuSans-63" x="61.279297"/>
      <use xlink:href="#DejaVuSans-74" x="116.259766"/>
      <use xlink:href="#DejaVuSans-75" x="155.46875"/>
      <use xlink:href="#DejaVuSans-61" x="218.847656"/>
      <use xlink:href="#DejaVuSans-6c" x="280.126953"/>
     </g>
    </g>
    <g id="text_18">
     <!-- $\times\mathdefault{10^{1}}\mathdefault{}$ -->
     <g transform="translate(34.278125 19.318125) scale(0.1 -0.1)">
      <defs>
       <path id="DejaVuSans-d7" d="M 4488 3438 
L 3059 2003 
L 4488 575 
L 4116 197 
L 2681 1631 
L 1247 197 
L 878 575 
L 2303 2003 
L 878 3438 
L 1247 3816 
L 2681 2381 
L 4116 3816 
L 4488 3438 
z
" transform="scale(0.015625)"/>
      </defs>
      <use xlink:href="#DejaVuSans-d7" transform="translate(0 0.684375)"/>
      <use xlink:href="#DejaVuSans-31" transform="translate(83.789062 0.684375)"/>
      <use xlink:href="#DejaVuSans-30" transform="translate(147.412109 0.684375)"/>
      <use xlink:href="#DejaVuSans-31" transform="translate(211.992188 38.965625) scale(0.7)"/>
     </g>
    </g>
   </g>
   <g id="line2d_31">
    <path d="M 67.824012 268.82492 
L 47.537018 280.681237 
L 209.225699 186.185608 
L 51.864974 278.151852 
L 41.050469 284.472168 
L 304.879062 130.282964 
L 70.826329 267.070278 
L 113.783013 241.965126 
L 60.591473 273.051829 
L 50.768125 278.792883 
L 47.537018 280.681237 
L 45.092692 282.109774 
L 41.050469 284.472168 
L 56.699309 275.326525 
L 65.968303 269.909451 
L 163.778057 212.746549 
L 41.050469 284.472168 
L 41.050469 284.472168 
L 150.571457 220.464875 
L 253.748059 160.165429 
L 58.384904 274.341413 
L 278.87062 145.483064 
L 55.862164 275.815777 
L 41.050469 284.472168 
L 245.118051 165.20906 
L 186.554182 199.43551 
L 41.050469 284.472168 
L 304.519155 130.493305 
L 58.384904 274.341413 
L 52.631055 277.704132 
L 52.631055 277.704132 
L 45.092692 282.109774 
L 49.375612 279.606709 
L 44.281576 282.583814 
L 41.050469 284.472168 
L 44.281576 282.583814 
L 67.350435 269.101692 
L 304.879062 130.282964 
L 119.075856 238.871833 
L 41.050469 284.472168 
L 73.92421 265.259785 
L 50.768125 278.792883 
L 56.851816 275.237395 
L 201.097605 190.935906 
L 52.631055 277.704132 
L 104.543215 247.365136 
L 69.196686 268.022689 
L 57.977756 274.579362 
L 247.142895 164.025681 
L 331.064336 114.979519 
L 71.392658 266.739298 
L 55.862164 275.815777 
L 296.964661 134.908374 
L 219.824813 179.991174 
L 67.595221 268.958633 
L 230.262056 173.891341 
L 279.557714 145.081507 
L 225.174654 176.864569 
L 55.754969 275.878425 
L 223.717612 177.716107 
L 41.050469 284.472168 
L 41.050469 284.472168 
L 81.488263 260.839129 
L 55.862164 275.815777 
L 76.767709 263.59796 
L 56.699309 275.326525 
L 41.050469 284.472168 
L 41.050469 284.472168 
L 106.442374 246.255211 
L 156.596015 216.943946 
L 156.302903 217.115249 
L 72.553086 266.06111 
L 296.398267 135.239391 
L 55.316993 276.134391 
L 56.709503 275.320567 
L 41.050469 284.472168 
L 59.904388 273.453382 
L 41.050469 284.472168 
L 55.862164 275.815777 
L 146.990065 222.557946 
L 264.370818 153.957176 
L 41.050469 284.472168 
L 162.128283 213.710726 
L 60.789832 272.935902 
L 41.050469 284.472168 
L 236.576044 170.201261 
L 179.180157 203.745108 
L 41.050469 284.472168 
L 57.360364 274.940185 
L 41.050469 284.472168 
L 44.281576 282.583814 
L 41.050469 284.472168 
L 220.073353 179.84592 
L 62.427127 271.979019 
L 229.574963 174.292899 
L 41.050469 284.472168 
L 44.281576 282.583814 
L 66.650878 269.510534 
L 242.94538 166.478833 
L 287.50177 140.438766 
L 157.917014 216.171915 
L 140.938941 226.094402 
L 198.871075 192.237156 
L 52.523861 277.766779 
L 41.050469 284.472168 
L 41.050469 284.472168 
L 41.050469 284.472168 
L 41.050469 284.472168 
L 44.281576 282.583814 
L 45.092692 282.109774 
L 80.809931 261.235566 
L 374.714903 89.468841 
L 50.222957 279.111495 
L 55.75937 275.875853 
L 73.322051 265.611704 
L 247.447388 163.847727 
" clip-path="url(#p87ce841ea7)" style="fill: none; stroke: #000000; stroke-opacity: 0.5; stroke-width: 1.5; stroke-linecap: square"/>
   </g>
   <g id="line2d_32">
    <path d="M 67.824012 216.846689 
L 47.537018 228.70301 
L 209.225699 134.207374 
L 51.864974 226.173621 
L 41.050469 232.493938 
L 304.879062 78.304737 
L 70.826329 215.092045 
L 113.783013 189.986895 
L 60.591473 221.073595 
L 50.768125 226.814655 
L 47.537018 228.70301 
L 45.092692 230.131542 
L 41.050469 232.493938 
L 56.699309 223.348296 
L 65.968303 217.931222 
L 163.778057 160.768315 
L 41.050469 232.493938 
L 41.050469 232.493938 
L 150.571457 168.486648 
L 253.748059 108.187202 
L 58.384904 222.363184 
L 278.87062 93.504837 
L 55.862164 223.837549 
L 41.050469 232.493938 
L 245.118051 113.230833 
L 186.554182 147.457277 
L 41.050469 232.493938 
L 304.519155 78.515078 
L 58.384904 222.363184 
L 52.631055 225.725904 
L 52.631055 225.725904 
L 45.092692 230.131542 
L 49.375612 227.628477 
L 44.281576 230.605583 
L 41.050469 232.493938 
L 44.281576 230.605583 
L 67.350435 217.123463 
L 304.879062 78.304737 
L 119.075856 186.893599 
L 41.050469 232.493938 
L 73.92421 213.281556 
L 50.768125 226.814655 
L 56.851816 223.259162 
L 201.097605 138.957672 
L 52.631055 225.725904 
L 104.543215 195.386906 
L 69.196686 216.044457 
L 57.977756 222.60113 
L 247.142895 112.047454 
L 331.064336 63.001292 
L 71.392658 214.761068 
L 55.862164 223.837549 
L 296.964661 82.930146 
L 219.824813 128.012947 
L 67.595221 216.9804 
L 230.262056 121.913114 
L 279.557714 93.103279 
L 225.174654 124.886342 
L 55.754969 223.900196 
L 223.717612 125.73788 
L 41.050469 232.493938 
L 41.050469 232.493938 
L 81.488263 208.860902 
L 55.862164 223.837549 
L 76.767709 211.619728 
L 56.699309 223.348296 
L 41.050469 232.493938 
L 41.050469 232.493938 
L 106.442374 194.276978 
L 156.596015 164.965719 
L 156.302903 165.137015 
L 72.553086 214.08288 
L 296.398267 83.261164 
L 55.316993 224.156159 
L 56.709503 223.342338 
L 41.050469 232.493938 
L 59.904388 221.475153 
L 41.050469 232.493938 
L 55.862164 223.837549 
L 146.990065 170.579719 
L 264.370818 101.978949 
L 41.050469 232.493938 
L 162.128283 161.732499 
L 60.789832 220.957673 
L 41.050469 232.493938 
L 236.576044 118.223033 
L 179.180157 151.766881 
L 41.050469 232.493938 
L 57.360364 222.961957 
L 41.050469 232.493938 
L 44.281576 230.605583 
L 41.050469 232.493938 
L 220.073353 127.867693 
L 62.427127 220.000788 
L 229.574963 122.314672 
L 41.050469 232.493938 
L 44.281576 230.605583 
L 66.650878 217.5323 
L 242.94538 114.500606 
L 287.50177 88.460539 
L 157.917014 164.193682 
L 140.938941 174.116174 
L 198.871075 140.258928 
L 52.523861 225.788551 
L 41.050469 232.493938 
L 41.050469 232.493938 
L 41.050469 232.493938 
L 41.050469 232.493938 
L 44.281576 230.605583 
L 45.092692 230.131542 
L 80.809931 209.257332 
L 374.714903 37.490601 
L 50.222957 227.133266 
L 55.75937 223.897619 
L 73.322051 213.633475 
L 247.447388 111.8695 
" clip-path="url(#p87ce841ea7)" style="fill: none; stroke-dasharray: 5.55,2.4; stroke-dashoffset: 0; stroke: #0000ff; stroke-width: 1.5"/>
   </g>
   <g id="line2d_33">
    <path d="M 67.824012 320.803151 
L 57.24408 326.986375 
M 57.24408 326.986375 
L 209.225699 238.163839 
L 57.244078 326.986375 
M 57.24408 326.986375 
L 304.879062 182.261192 
L 70.826329 319.048507 
L 113.783013 293.943356 
L 60.591473 325.03006 
L 57.244079 326.986375 
M 57.244082 326.986375 
L 65.968303 321.887684 
L 163.778057 264.72478 
L 57.24408 326.986375 
M 57.24408 326.986375 
L 150.571457 272.443106 
L 253.748059 212.143657 
L 58.384904 326.319645 
L 278.87062 197.461292 
L 57.244078 326.986375 
M 57.24408 326.986375 
L 245.118051 217.187288 
L 186.554182 251.413741 
L 57.24408 326.986375 
M 57.24408 326.986375 
L 304.519155 182.471532 
L 58.384904 326.319645 
L 57.244082 326.986375 
M 57.244081 326.986375 
L 67.350435 321.079925 
L 304.879062 182.261192 
L 119.075856 290.850063 
L 57.24408 326.986375 
M 57.244081 326.986375 
L 73.92421 317.238017 
L 57.244079 326.986375 
M 57.244081 326.986375 
L 201.097605 242.914136 
L 57.244078 326.986375 
M 57.244078 326.986375 
L 104.543215 299.343367 
L 69.196686 320.000918 
L 57.977756 326.557591 
L 247.142895 216.003909 
L 331.064336 166.957746 
L 71.392658 318.717529 
L 57.244078 326.986375 
M 57.244078 326.986375 
L 296.964661 186.886601 
L 219.824813 231.969401 
L 67.595221 320.936861 
L 230.262056 225.869568 
L 279.557714 197.059734 
L 225.174654 228.842796 
L 57.244082 326.986375 
M 57.244082 326.986375 
L 223.717612 229.694334 
L 57.24408 326.986375 
M 57.24408 326.986375 
L 81.488263 312.81736 
L 57.244078 326.986375 
M 57.244078 326.986375 
L 76.767709 315.576191 
L 57.244082 326.986375 
M 57.24408 326.986375 
L 106.442374 298.233442 
L 156.596015 268.922177 
L 156.302903 269.09348 
L 72.553086 318.039341 
L 296.398267 187.217618 
L 57.244078 326.986375 
M 57.244082 326.986375 
L 59.904388 325.431614 
L 57.244082 326.986375 
M 57.244078 326.986375 
L 146.990065 274.536177 
L 264.370818 205.935403 
L 57.24408 326.986375 
M 57.24408 326.986375 
L 162.128283 265.688957 
L 60.789832 324.914134 
L 57.244082 326.986375 
M 57.24408 326.986375 
L 236.576044 222.179488 
L 179.180157 255.723339 
L 57.24408 326.986375 
M 57.244078 326.986375 
L 57.360364 326.918414 
L 57.244078 326.986375 
M 57.24408 326.986375 
L 220.073353 231.824147 
L 62.427127 323.95725 
L 229.574963 226.271126 
L 57.24408 326.986375 
M 57.244079 326.986375 
L 66.650878 321.488765 
L 242.94538 218.45706 
L 287.50177 192.416993 
L 157.917014 268.150146 
L 140.938941 278.072632 
L 198.871075 244.215386 
L 57.244082 326.986375 
M 57.244078 326.986375 
L 80.809931 313.213797 
L 374.714903 141.447069 
L 57.244081 326.986375 
M 57.24408 326.986375 
L 73.322051 317.589936 
L 247.447388 215.825954 
" clip-path="url(#p87ce841ea7)" style="fill: none; stroke-dasharray: 5.55,2.4; stroke-dashoffset: 0; stroke: #0000ff; stroke-width: 1.5"/>
   </g>
   <g id="line2d_34">
    <path d="M 253.967951 103.568961 
L 41.050469 228.004214 
L 72.337001 209.719444 
L 216.433345 125.50529 
L 64.292902 214.420653 
L 41.050469 228.004214 
L 44.281576 226.115866 
L 145.668249 166.862497 
L 41.050469 228.004214 
L 91.041383 198.788054 
L 63.126684 215.102228 
L 150.106818 164.268473 
L 44.281576 226.115866 
L 59.904388 216.98543 
L 41.050469 228.004214 
L 46.144507 225.027108 
L 232.792866 115.944317 
L 60.789832 216.46795 
L 67.595221 212.490684 
L 41.050469 228.004214 
L 231.274255 116.831825 
L 216.395242 125.527566 
L 65.867194 213.500595 
L 61.616012 215.985106 
L 313.118121 68.999859 
L 279.557714 88.613562 
L 296.398267 78.771447 
L 262.612261 98.516971 
L 41.050469 228.004214 
L 41.050469 228.004214 
L 305.055894 73.711662 
L 228.992656 118.165259 
L 248.502088 106.763372 
L 246.164649 108.129454 
L 55.862164 219.347825 
L 99.85633 193.636343 
L 41.050469 228.004214 
L 225.488523 120.213177 
L 48.323798 223.75347 
" clip-path="url(#p87ce841ea7)" style="fill: none; stroke-dasharray: 5.55,2.4; stroke-dashoffset: 0; stroke: #008000; stroke-width: 1.5"/>
   </g>
   <g id="line2d_35">
    <path d="M 253.967951 216.504868 
L 64.926308 326.986375 
M 64.926305 326.986375 
L 72.337001 322.655346 
L 216.433345 238.441198 
L 64.926304 326.986375 
M 64.926307 326.986375 
L 145.668249 279.798405 
L 64.926308 326.986375 
M 64.926307 326.986375 
L 91.041383 311.723955 
L 64.92631 326.986375 
M 64.92631 326.986375 
L 150.106818 277.204375 
L 64.926307 326.986375 
M 64.926307 326.986375 
L 232.792866 228.880212 
L 64.926304 326.986375 
M 64.926308 326.986375 
L 67.595221 325.426585 
L 64.92631 326.986375 
M 64.926308 326.986375 
L 231.274255 229.767733 
L 216.395242 238.463467 
L 65.867194 326.436493 
L 64.926306 326.986375 
M 64.926304 326.986375 
L 313.118121 181.935766 
L 279.557714 201.549457 
L 296.398267 191.707341 
L 262.612261 211.452879 
L 64.926308 326.986375 
M 64.926308 326.986375 
L 305.055894 186.64757 
L 228.992656 231.101166 
L 248.502088 219.69928 
L 246.164649 221.065348 
L 64.926306 326.986375 
M 64.926306 326.986375 
L 99.85633 306.572241 
L 64.926307 326.986375 
M 64.926308 326.986375 
L 225.488523 233.149085 
L 64.926308 326.986375 
" clip-path="url(#p87ce841ea7)" style="fill: none; stroke-dasharray: 5.55,2.4; stroke-dashoffset: 0; stroke: #008000; stroke-width: 1.5"/>
   </g>
   <g id="patch_3">
    <path d="M 34.278125 288.430125 
L 34.278125 22.318125 
" style="fill: none; stroke: #000000; stroke-width: 0.8; stroke-linejoin: miter; stroke-linecap: square"/>
   </g>
   <g id="patch_4">
    <path d="M 391.398125 288.430125 
L 391.398125 22.318125 
" style="fill: none; stroke: #000000; stroke-width: 0.8; stroke-linejoin: miter; stroke-linecap: square"/>
   </g>
   <g id="patch_5">
    <path d="M 34.278125 288.430125 
L 391.398125 288.430125 
" style="fill: none; stroke: #000000; stroke-width: 0.8; stroke-linejoin: miter; stroke-linecap: square"/>
   </g>
   <g id="patch_6">
    <path d="M 34.278125 22.318125 
L 391.398125 22.318125 
" style="fill: none; stroke: #000000; stroke-width: 0.8; stroke-linejoin: miter; stroke-linecap: square"/>
   </g>
   <g id="text_19">
    <!-- XGBoost R-square plot Standard Scaler -->
    <g transform="translate(95.576563 16.318125) scale(0.12 -0.12)">
     <defs>
      <path id="DejaVuSans-58" d="M 403 4666 
L 1081 4666 
L 2241 2931 
L 3406 4666 
L 4084 4666 
L 2584 2425 
L 4184 0 
L 3506 0 
L 2194 1984 
L 872 0 
L 191 0 
L 1856 2491 
L 403 4666 
z
" transform="scale(0.015625)"/>
      <path id="DejaVuSans-47" d="M 3809 666 
L 3809 1919 
L 2778 1919 
L 2778 2438 
L 4434 2438 
L 4434 434 
Q 4069 175 3628 42 
Q 3188 -91 2688 -91 
Q 1594 -91 976 548 
Q 359 1188 359 2328 
Q 359 3472 976 4111 
Q 1594 4750 2688 4750 
Q 3144 4750 3555 4637 
Q 3966 4525 4313 4306 
L 4313 3634 
Q 3963 3931 3569 4081 
Q 3175 4231 2741 4231 
Q 1884 4231 1454 3753 
Q 1025 3275 1025 2328 
Q 1025 1384 1454 906 
Q 1884 428 2741 428 
Q 3075 428 3337 486 
Q 3600 544 3809 666 
z
" transform="scale(0.015625)"/>
      <path id="DejaVuSans-42" d="M 1259 2228 
L 1259 519 
L 2272 519 
Q 2781 519 3026 730 
Q 3272 941 3272 1375 
Q 3272 1813 3026 2020 
Q 2781 2228 2272 2228 
L 1259 2228 
z
M 1259 4147 
L 1259 2741 
L 2194 2741 
Q 2656 2741 2882 2914 
Q 3109 3088 3109 3444 
Q 3109 3797 2882 3972 
Q 2656 4147 2194 4147 
L 1259 4147 
z
M 628 4666 
L 2241 4666 
Q 2963 4666 3353 4366 
Q 3744 4066 3744 3513 
Q 3744 3084 3544 2831 
Q 3344 2578 2956 2516 
Q 3422 2416 3680 2098 
Q 3938 1781 3938 1306 
Q 3938 681 3513 340 
Q 3088 0 2303 0 
L 628 0 
L 628 4666 
z
" transform="scale(0.015625)"/>
      <path id="DejaVuSans-73" d="M 2834 3397 
L 2834 2853 
Q 2591 2978 2328 3040 
Q 2066 3103 1784 3103 
Q 1356 3103 1142 2972 
Q 928 2841 928 2578 
Q 928 2378 1081 2264 
Q 1234 2150 1697 2047 
L 1894 2003 
Q 2506 1872 2764 1633 
Q 3022 1394 3022 966 
Q 3022 478 2636 193 
Q 2250 -91 1575 -91 
Q 1294 -91 989 -36 
Q 684 19 347 128 
L 347 722 
Q 666 556 975 473 
Q 1284 391 1588 391 
Q 1994 391 2212 530 
Q 2431 669 2431 922 
Q 2431 1156 2273 1281 
Q 2116 1406 1581 1522 
L 1381 1569 
Q 847 1681 609 1914 
Q 372 2147 372 2553 
Q 372 3047 722 3315 
Q 1072 3584 1716 3584 
Q 2034 3584 2315 3537 
Q 2597 3491 2834 3397 
z
" transform="scale(0.015625)"/>
      <path id="DejaVuSans-20" transform="scale(0.015625)"/>
      <path id="DejaVuSans-52" d="M 2841 2188 
Q 3044 2119 3236 1894 
Q 3428 1669 3622 1275 
L 4263 0 
L 3584 0 
L 2988 1197 
Q 2756 1666 2539 1819 
Q 2322 1972 1947 1972 
L 1259 1972 
L 1259 0 
L 628 0 
L 628 4666 
L 2053 4666 
Q 2853 4666 3247 4331 
Q 3641 3997 3641 3322 
Q 3641 2881 3436 2590 
Q 3231 2300 2841 2188 
z
M 1259 4147 
L 1259 2491 
L 2053 2491 
Q 2509 2491 2742 2702 
Q 2975 2913 2975 3322 
Q 2975 3731 2742 3939 
Q 2509 4147 2053 4147 
L 1259 4147 
z
" transform="scale(0.015625)"/>
      <path id="DejaVuSans-2d" d="M 313 2009 
L 1997 2009 
L 1997 1497 
L 313 1497 
L 313 2009 
z
" transform="scale(0.015625)"/>
      <path id="DejaVuSans-71" d="M 947 1747 
Q 947 1113 1208 752 
Q 1469 391 1925 391 
Q 2381 391 2643 752 
Q 2906 1113 2906 1747 
Q 2906 2381 2643 2742 
Q 2381 3103 1925 3103 
Q 1469 3103 1208 2742 
Q 947 2381 947 1747 
z
M 2906 525 
Q 2725 213 2448 61 
Q 2172 -91 1784 -91 
Q 1150 -91 751 415 
Q 353 922 353 1747 
Q 353 2572 751 3078 
Q 1150 3584 1784 3584 
Q 2172 3584 2448 3432 
Q 2725 3281 2906 2969 
L 2906 3500 
L 3481 3500 
L 3481 -1331 
L 2906 -1331 
L 2906 525 
z
" transform="scale(0.015625)"/>
      <path id="DejaVuSans-53" d="M 3425 4513 
L 3425 3897 
Q 3066 4069 2747 4153 
Q 2428 4238 2131 4238 
Q 1616 4238 1336 4038 
Q 1056 3838 1056 3469 
Q 1056 3159 1242 3001 
Q 1428 2844 1947 2747 
L 2328 2669 
Q 3034 2534 3370 2195 
Q 3706 1856 3706 1288 
Q 3706 609 3251 259 
Q 2797 -91 1919 -91 
Q 1588 -91 1214 -16 
Q 841 59 441 206 
L 441 856 
Q 825 641 1194 531 
Q 1563 422 1919 422 
Q 2459 422 2753 634 
Q 3047 847 3047 1241 
Q 3047 1584 2836 1778 
Q 2625 1972 2144 2069 
L 1759 2144 
Q 1053 2284 737 2584 
Q 422 2884 422 3419 
Q 422 4038 858 4394 
Q 1294 4750 2059 4750 
Q 2388 4750 2728 4690 
Q 3069 4631 3425 4513 
z
" transform="scale(0.015625)"/>
     </defs>
     <use xlink:href="#DejaVuSans-58"/>
     <use xlink:href="#DejaVuSans-47" x="68.505859"/>
     <use xlink:href="#DejaVuSans-42" x="145.996094"/>
     <use xlink:href="#DejaVuSans-6f" x="214.599609"/>
     <use xlink:href="#DejaVuSans-6f" x="275.78125"/>
     <use xlink:href="#DejaVuSans-73" x="336.962891"/>
     <use xlink:href="#DejaVuSans-74" x="389.0625"/>
     <use xlink:href="#DejaVuSans-20" x="428.271484"/>
     <use xlink:href="#DejaVuSans-52" x="460.058594"/>
     <use xlink:href="#DejaVuSans-2d" x="525.541016"/>
     <use xlink:href="#DejaVuSans-73" x="561.625"/>
     <use xlink:href="#DejaVuSans-71" x="613.724609"/>
     <use xlink:href="#DejaVuSans-75" x="677.201172"/>
     <use xlink:href="#DejaVuSans-61" x="740.580078"/>
     <use xlink:href="#DejaVuSans-72" x="801.859375"/>
     <use xlink:href="#DejaVuSans-65" x="840.722656"/>
     <use xlink:href="#DejaVuSans-20" x="902.246094"/>
     <use xlink:href="#DejaVuSans-70" x="934.033203"/>
     <use xlink:href="#DejaVuSans-6c" x="997.509766"/>
     <use xlink:href="#DejaVuSans-6f" x="1025.292969"/>
     <use xlink:href="#DejaVuSans-74" x="1086.474609"/>
     <use xlink:href="#DejaVuSans-20" x="1125.683594"/>
     <use xlink:href="#DejaVuSans-53" x="1157.470703"/>
     <use xlink:href="#DejaVuSans-74" x="1220.947266"/>
     <use xlink:href="#DejaVuSans-61" x="1260.15625"/>
     <use xlink:href="#DejaVuSans-6e" x="1321.435547"/>
     <use xlink:href="#DejaVuSans-64" x="1384.814453"/>
     <use xlink:href="#DejaVuSans-61" x="1448.291016"/>
     <use xlink:href="#DejaVuSans-72" x="1509.570312"/>
     <use xlink:href="#DejaVuSans-64" x="1548.933594"/>
     <use xlink:href="#DejaVuSans-20" x="1612.410156"/>
     <use xlink:href="#DejaVuSans-53" x="1644.197266"/>
     <use xlink:href="#DejaVuSans-63" x="1707.673828"/>
     <use xlink:href="#DejaVuSans-61" x="1762.654297"/>
     <use xlink:href="#DejaVuSans-6c" x="1823.933594"/>
     <use xlink:href="#DejaVuSans-65" x="1851.716797"/>
     <use xlink:href="#DejaVuSans-72" x="1913.240234"/>
    </g>
   </g>
   <g id="legend_1">
    <g id="patch_7">
     <path d="M 41.278125 59.674375 
L 203.876563 59.674375 
Q 205.876563 59.674375 205.876563 57.674375 
L 205.876563 29.318125 
Q 205.876563 27.318125 203.876563 27.318125 
L 41.278125 27.318125 
Q 39.278125 27.318125 39.278125 29.318125 
L 39.278125 57.674375 
Q 39.278125 59.674375 41.278125 59.674375 
z
" style="fill: #ffffff; opacity: 0.8; stroke: #cccccc; stroke-linejoin: miter"/>
    </g>
    <g id="PathCollection_3">
     <g>
      <use xlink:href="#m08035884fa" x="53.278125" y="36.291562" style="fill: #0000ff; fill-opacity: 0.5; stroke: #0000ff; stroke-opacity: 0.5"/>
     </g>
    </g>
    <g id="text_20">
     <!-- Train R-squared = 98.50% -->
     <g transform="translate(71.278125 38.916562) scale(0.1 -0.1)">
      <defs>
       <path id="DejaVuSans-54" d="M -19 4666 
L 3928 4666 
L 3928 4134 
L 2272 4134 
L 2272 0 
L 1638 0 
L 1638 4134 
L -19 4134 
L -19 4666 
z
" transform="scale(0.015625)"/>
       <path id="DejaVuSans-3d" d="M 678 2906 
L 4684 2906 
L 4684 2381 
L 678 2381 
L 678 2906 
z
M 678 1631 
L 4684 1631 
L 4684 1100 
L 678 1100 
L 678 1631 
z
" transform="scale(0.015625)"/>
       <path id="DejaVuSans-39" d="M 703 97 
L 703 672 
Q 941 559 1184 500 
Q 1428 441 1663 441 
Q 2288 441 2617 861 
Q 2947 1281 2994 2138 
Q 2813 1869 2534 1725 
Q 2256 1581 1919 1581 
Q 1219 1581 811 2004 
Q 403 2428 403 3163 
Q 403 3881 828 4315 
Q 1253 4750 1959 4750 
Q 2769 4750 3195 4129 
Q 3622 3509 3622 2328 
Q 3622 1225 3098 567 
Q 2575 -91 1691 -91 
Q 1453 -91 1209 -44 
Q 966 3 703 97 
z
M 1959 2075 
Q 2384 2075 2632 2365 
Q 2881 2656 2881 3163 
Q 2881 3666 2632 3958 
Q 2384 4250 1959 4250 
Q 1534 4250 1286 3958 
Q 1038 3666 1038 3163 
Q 1038 2656 1286 2365 
Q 1534 2075 1959 2075 
z
" transform="scale(0.015625)"/>
       <path id="DejaVuSans-38" d="M 2034 2216 
Q 1584 2216 1326 1975 
Q 1069 1734 1069 1313 
Q 1069 891 1326 650 
Q 1584 409 2034 409 
Q 2484 409 2743 651 
Q 3003 894 3003 1313 
Q 3003 1734 2745 1975 
Q 2488 2216 2034 2216 
z
M 1403 2484 
Q 997 2584 770 2862 
Q 544 3141 544 3541 
Q 544 4100 942 4425 
Q 1341 4750 2034 4750 
Q 2731 4750 3128 4425 
Q 3525 4100 3525 3541 
Q 3525 3141 3298 2862 
Q 3072 2584 2669 2484 
Q 3125 2378 3379 2068 
Q 3634 1759 3634 1313 
Q 3634 634 3220 271 
Q 2806 -91 2034 -91 
Q 1263 -91 848 271 
Q 434 634 434 1313 
Q 434 1759 690 2068 
Q 947 2378 1403 2484 
z
M 1172 3481 
Q 1172 3119 1398 2916 
Q 1625 2713 2034 2713 
Q 2441 2713 2670 2916 
Q 2900 3119 2900 3481 
Q 2900 3844 2670 4047 
Q 2441 4250 2034 4250 
Q 1625 4250 1398 4047 
Q 1172 3844 1172 3481 
z
" transform="scale(0.015625)"/>
       <path id="DejaVuSans-2e" d="M 684 794 
L 1344 794 
L 1344 0 
L 684 0 
L 684 794 
z
" transform="scale(0.015625)"/>
       <path id="DejaVuSans-25" d="M 4653 2053 
Q 4381 2053 4226 1822 
Q 4072 1591 4072 1178 
Q 4072 772 4226 539 
Q 4381 306 4653 306 
Q 4919 306 5073 539 
Q 5228 772 5228 1178 
Q 5228 1588 5073 1820 
Q 4919 2053 4653 2053 
z
M 4653 2450 
Q 5147 2450 5437 2106 
Q 5728 1763 5728 1178 
Q 5728 594 5436 251 
Q 5144 -91 4653 -91 
Q 4153 -91 3862 251 
Q 3572 594 3572 1178 
Q 3572 1766 3864 2108 
Q 4156 2450 4653 2450 
z
M 1428 4353 
Q 1159 4353 1004 4120 
Q 850 3888 850 3481 
Q 850 3069 1003 2837 
Q 1156 2606 1428 2606 
Q 1700 2606 1854 2837 
Q 2009 3069 2009 3481 
Q 2009 3884 1853 4118 
Q 1697 4353 1428 4353 
z
M 4250 4750 
L 4750 4750 
L 1831 -91 
L 1331 -91 
L 4250 4750 
z
M 1428 4750 
Q 1922 4750 2215 4408 
Q 2509 4066 2509 3481 
Q 2509 2891 2217 2550 
Q 1925 2209 1428 2209 
Q 931 2209 642 2551 
Q 353 2894 353 3481 
Q 353 4063 643 4406 
Q 934 4750 1428 4750 
z
" transform="scale(0.015625)"/>
      </defs>
      <use xlink:href="#DejaVuSans-54"/>
      <use xlink:href="#DejaVuSans-72" x="46.333984"/>
      <use xlink:href="#DejaVuSans-61" x="87.447266"/>
      <use xlink:href="#DejaVuSans-69" x="148.726562"/>
      <use xlink:href="#DejaVuSans-6e" x="176.509766"/>
      <use xlink:href="#DejaVuSans-20" x="239.888672"/>
      <use xlink:href="#DejaVuSans-52" x="271.675781"/>
      <use xlink:href="#DejaVuSans-2d" x="337.158203"/>
      <use xlink:href="#DejaVuSans-73" x="373.242188"/>
      <use xlink:href="#DejaVuSans-71" x="425.341797"/>
      <use xlink:href="#DejaVuSans-75" x="488.818359"/>
      <use xlink:href="#DejaVuSans-61" x="552.197266"/>
      <use xlink:href="#DejaVuSans-72" x="613.476562"/>
      <use xlink:href="#DejaVuSans-65" x="652.339844"/>
      <use xlink:href="#DejaVuSans-64" x="713.863281"/>
      <use xlink:href="#DejaVuSans-20" x="777.339844"/>
      <use xlink:href="#DejaVuSans-3d" x="809.126953"/>
      <use xlink:href="#DejaVuSans-20" x="892.916016"/>
      <use xlink:href="#DejaVuSans-39" x="924.703125"/>
      <use xlink:href="#DejaVuSans-38" x="988.326172"/>
      <use xlink:href="#DejaVuSans-2e" x="1051.949219"/>
      <use xlink:href="#DejaVuSans-35" x="1083.736328"/>
      <use xlink:href="#DejaVuSans-30" x="1147.359375"/>
      <use xlink:href="#DejaVuSans-25" x="1210.982422"/>
     </g>
    </g>
    <g id="PathCollection_4">
     <g>
      <use xlink:href="#maad975864b" x="53.278125" y="50.969687" style="fill: #008000; fill-opacity: 0.5; stroke: #008000; stroke-opacity: 0.5"/>
     </g>
    </g>
    <g id="text_21">
     <!-- Test R-squared = 83.04% -->
     <g transform="translate(71.278125 53.594687) scale(0.1 -0.1)">
      <use xlink:href="#DejaVuSans-54"/>
      <use xlink:href="#DejaVuSans-65" x="44.083984"/>
      <use xlink:href="#DejaVuSans-73" x="105.607422"/>
      <use xlink:href="#DejaVuSans-74" x="157.707031"/>
      <use xlink:href="#DejaVuSans-20" x="196.916016"/>
      <use xlink:href="#DejaVuSans-52" x="228.703125"/>
      <use xlink:href="#DejaVuSans-2d" x="294.185547"/>
      <use xlink:href="#DejaVuSans-73" x="330.269531"/>
      <use xlink:href="#DejaVuSans-71" x="382.369141"/>
      <use xlink:href="#DejaVuSans-75" x="445.845703"/>
      <use xlink:href="#DejaVuSans-61" x="509.224609"/>
      <use xlink:href="#DejaVuSans-72" x="570.503906"/>
      <use xlink:href="#DejaVuSans-65" x="609.367188"/>
      <use xlink:href="#DejaVuSans-64" x="670.890625"/>
      <use xlink:href="#DejaVuSans-20" x="734.367188"/>
      <use xlink:href="#DejaVuSans-3d" x="766.154297"/>
      <use xlink:href="#DejaVuSans-20" x="849.943359"/>
      <use xlink:href="#DejaVuSans-38" x="881.730469"/>
      <use xlink:href="#DejaVuSans-33" x="945.353516"/>
      <use xlink:href="#DejaVuSans-2e" x="1008.976562"/>
      <use xlink:href="#DejaVuSans-30" x="1040.763672"/>
      <use xlink:href="#DejaVuSans-34" x="1104.386719"/>
      <use xlink:href="#DejaVuSans-25" x="1168.009766"/>
     </g>
    </g>
   </g>
  </g>
 </g>
 <defs>
  <clipPath id="p87ce841ea7">
   <rect x="34.278125" y="22.318125" width="357.12" height="266.112"/>
  </clipPath>
 </defs>
</svg>
