<?xml version="1.0" encoding="utf-8" standalone="no"?>
<!DOCTYPE svg PUBLIC "-//W3C//DTD SVG 1.1//EN"
  "http://www.w3.org/Graphics/SVG/1.1/DTD/svg11.dtd">
<svg xmlns:xlink="http://www.w3.org/1999/xlink" width="398.598125pt" height="336.584812pt" viewBox="0 0 398.598125 336.584812" xmlns="http://www.w3.org/2000/svg" version="1.1">
 <metadata>
  <rdf:RDF xmlns:dc="http://purl.org/dc/elements/1.1/" xmlns:cc="http://creativecommons.org/ns#" xmlns:rdf="http://www.w3.org/1999/02/22-rdf-syntax-ns#">
   <cc:Work>
    <dc:type rdf:resource="http://purl.org/dc/dcmitype/StillImage"/>
    <dc:date>2024-03-09T16:46:26.073113</dc:date>
    <dc:format>image/svg+xml</dc:format>
    <dc:creator>
     <cc:Agent>
      <dc:title>Matplotlib v3.7.0, https://matplotlib.org/</dc:title>
     </cc:Agent>
    </dc:creator>
   </cc:Work>
  </rdf:RDF>
 </metadata>
 <defs>
  <style type="text/css">*{stroke-linejoin: round; stroke-linecap: butt}</style>
 </defs>
 <g id="figure_1">
  <g id="patch_1">
   <path d="M 0 336.584812 
L 398.598125 336.584812 
L 398.598125 0 
L 0 0 
L 0 336.584812 
z
" style="fill: none"/>
  </g>
  <g id="axes_1">
   <g id="patch_2">
    <path d="M 34.278125 299.028562 
L 391.398125 299.028562 
L 391.398125 32.916562 
L 34.278125 32.916562 
L 34.278125 299.028562 
z
" style="fill: none"/>
   </g>
   <g id="PathCollection_1">
    <defs>
     <path id="m19ed0db924" d="M 0 3 
C 0.795609 3 1.55874 2.683901 2.12132 2.12132 
C 2.683901 1.55874 3 0.795609 3 0 
C 3 -0.795609 2.683901 -1.55874 2.12132 -2.12132 
C 1.55874 -2.683901 0.795609 -3 0 -3 
C -0.795609 -3 -1.55874 -2.683901 -2.12132 -2.12132 
C -2.683901 -1.55874 -3 -0.795609 -3 0 
C -3 0.795609 -2.683901 1.55874 -2.12132 2.12132 
C -1.55874 2.683901 -0.795609 3 0 3 
z
" style="stroke: #0000ff; stroke-opacity: 0.5"/>
    </defs>
    <g clip-path="url(#pce444e8372)">
     <use xlink:href="#m19ed0db924" x="142.83912" y="271.191668" style="fill: #0000ff; fill-opacity: 0.5; stroke: #0000ff; stroke-opacity: 0.5"/>
     <use xlink:href="#m19ed0db924" x="64.738397" y="294.002457" style="fill: #0000ff; fill-opacity: 0.5; stroke: #0000ff; stroke-opacity: 0.5"/>
     <use xlink:href="#m19ed0db924" x="280.68464" y="197.346574" style="fill: #0000ff; fill-opacity: 0.5; stroke: #0000ff; stroke-opacity: 0.5"/>
     <use xlink:href="#m19ed0db924" x="56.637281" y="291.296092" style="fill: #0000ff; fill-opacity: 0.5; stroke: #0000ff; stroke-opacity: 0.5"/>
     <use xlink:href="#m19ed0db924" x="79.499031" y="297.520731" style="fill: #0000ff; fill-opacity: 0.5; stroke: #0000ff; stroke-opacity: 0.5"/>
     <use xlink:href="#m19ed0db924" x="268.477408" y="119.635244" style="fill: #0000ff; fill-opacity: 0.5; stroke: #0000ff; stroke-opacity: 0.5"/>
     <use xlink:href="#m19ed0db924" x="110.368928" y="266.552186" style="fill: #0000ff; fill-opacity: 0.5; stroke: #0000ff; stroke-opacity: 0.5"/>
     <use xlink:href="#m19ed0db924" x="143.405682" y="253.406986" style="fill: #0000ff; fill-opacity: 0.5; stroke: #0000ff; stroke-opacity: 0.5"/>
     <use xlink:href="#m19ed0db924" x="91.893275" y="282.403751" style="fill: #0000ff; fill-opacity: 0.5; stroke: #0000ff; stroke-opacity: 0.5"/>
     <use xlink:href="#m19ed0db924" x="60.98996" y="287.043233" style="fill: #0000ff; fill-opacity: 0.5; stroke: #0000ff; stroke-opacity: 0.5"/>
     <use xlink:href="#m19ed0db924" x="53.187003" y="284.723492" style="fill: #0000ff; fill-opacity: 0.5; stroke: #0000ff; stroke-opacity: 0.5"/>
     <use xlink:href="#m19ed0db924" x="40.135741" y="296.940795" style="fill: #0000ff; fill-opacity: 0.5; stroke: #0000ff; stroke-opacity: 0.5"/>
     <use xlink:href="#m19ed0db924" x="40.325833" y="295.819587" style="fill: #0000ff; fill-opacity: 0.5; stroke: #0000ff; stroke-opacity: 0.5"/>
     <use xlink:href="#m19ed0db924" x="75.814144" y="294.002457" style="fill: #0000ff; fill-opacity: 0.5; stroke: #0000ff; stroke-opacity: 0.5"/>
     <use xlink:href="#m19ed0db924" x="97.504398" y="271.964915" style="fill: #0000ff; fill-opacity: 0.5; stroke: #0000ff; stroke-opacity: 0.5"/>
     <use xlink:href="#m19ed0db924" x="153.544642" y="215.904503" style="fill: #0000ff; fill-opacity: 0.5; stroke: #0000ff; stroke-opacity: 0.5"/>
     <use xlink:href="#m19ed0db924" x="40.381146" y="296.824808" style="fill: #0000ff; fill-opacity: 0.5; stroke: #0000ff; stroke-opacity: 0.5"/>
     <use xlink:href="#m19ed0db924" x="44.871958" y="296.283535" style="fill: #0000ff; fill-opacity: 0.5; stroke: #0000ff; stroke-opacity: 0.5"/>
     <use xlink:href="#m19ed0db924" x="200.048779" y="230.209574" style="fill: #0000ff; fill-opacity: 0.5; stroke: #0000ff; stroke-opacity: 0.5"/>
     <use xlink:href="#m19ed0db924" x="261.971993" y="147.472138" style="fill: #0000ff; fill-opacity: 0.5; stroke: #0000ff; stroke-opacity: 0.5"/>
     <use xlink:href="#m19ed0db924" x="77.553126" y="285.883362" style="fill: #0000ff; fill-opacity: 0.5; stroke: #0000ff; stroke-opacity: 0.5"/>
     <use xlink:href="#m19ed0db924" x="271.312868" y="140.512914" style="fill: #0000ff; fill-opacity: 0.5; stroke: #0000ff; stroke-opacity: 0.5"/>
     <use xlink:href="#m19ed0db924" x="70.958804" y="283.950245" style="fill: #0000ff; fill-opacity: 0.5; stroke: #0000ff; stroke-opacity: 0.5"/>
     <use xlink:href="#m19ed0db924" x="42.755375" y="297.714042" style="fill: #0000ff; fill-opacity: 0.5; stroke: #0000ff; stroke-opacity: 0.5"/>
     <use xlink:href="#m19ed0db924" x="257.582914" y="143.219279" style="fill: #0000ff; fill-opacity: 0.5; stroke: #0000ff; stroke-opacity: 0.5"/>
     <use xlink:href="#m19ed0db924" x="173.43998" y="193.093715" style="fill: #0000ff; fill-opacity: 0.5; stroke: #0000ff; stroke-opacity: 0.5"/>
     <use xlink:href="#m19ed0db924" x="31.09165" y="291.296092" style="fill: #0000ff; fill-opacity: 0.5; stroke: #0000ff; stroke-opacity: 0.5"/>
     <use xlink:href="#m19ed0db924" x="330.26617" y="129.300832" style="fill: #0000ff; fill-opacity: 0.5; stroke: #0000ff; stroke-opacity: 0.5"/>
     <use xlink:href="#m19ed0db924" x="70.591032" y="288.589727" style="fill: #0000ff; fill-opacity: 0.5; stroke: #0000ff; stroke-opacity: 0.5"/>
     <use xlink:href="#m19ed0db924" x="94.913029" y="287.81648" style="fill: #0000ff; fill-opacity: 0.5; stroke: #0000ff; stroke-opacity: 0.5"/>
     <use xlink:href="#m19ed0db924" x="59.658787" y="290.909468" style="fill: #0000ff; fill-opacity: 0.5; stroke: #0000ff; stroke-opacity: 0.5"/>
     <use xlink:href="#m19ed0db924" x="39.271893" y="297.327419" style="fill: #0000ff; fill-opacity: 0.5; stroke: #0000ff; stroke-opacity: 0.5"/>
     <use xlink:href="#m19ed0db924" x="65.328332" y="293.22921" style="fill: #0000ff; fill-opacity: 0.5; stroke: #0000ff; stroke-opacity: 0.5"/>
     <use xlink:href="#m19ed0db924" x="44.454031" y="289.749598" style="fill: #0000ff; fill-opacity: 0.5; stroke: #0000ff; stroke-opacity: 0.5"/>
     <use xlink:href="#m19ed0db924" x="42.525991" y="295.896912" style="fill: #0000ff; fill-opacity: 0.5; stroke: #0000ff; stroke-opacity: 0.5"/>
     <use xlink:href="#m19ed0db924" x="40.115273" y="295.935574" style="fill: #0000ff; fill-opacity: 0.5; stroke: #0000ff; stroke-opacity: 0.5"/>
     <use xlink:href="#m19ed0db924" x="77.015439" y="282.403751" style="fill: #0000ff; fill-opacity: 0.5; stroke: #0000ff; stroke-opacity: 0.5"/>
     <use xlink:href="#m19ed0db924" x="250.948909" y="99.53082" style="fill: #0000ff; fill-opacity: 0.5; stroke: #0000ff; stroke-opacity: 0.5"/>
     <use xlink:href="#m19ed0db924" x="234.056194" y="247.221009" style="fill: #0000ff; fill-opacity: 0.5; stroke: #0000ff; stroke-opacity: 0.5"/>
     <use xlink:href="#m19ed0db924" x="19.882262" y="298.293978" style="fill: #0000ff; fill-opacity: 0.5; stroke: #0000ff; stroke-opacity: 0.5"/>
     <use xlink:href="#m19ed0db924" x="85.38888" y="263.845821" style="fill: #0000ff; fill-opacity: 0.5; stroke: #0000ff; stroke-opacity: 0.5"/>
     <use xlink:href="#m19ed0db924" x="76.588189" y="286.269986" style="fill: #0000ff; fill-opacity: 0.5; stroke: #0000ff; stroke-opacity: 0.5"/>
     <use xlink:href="#m19ed0db924" x="81.842721" y="286.656609" style="fill: #0000ff; fill-opacity: 0.5; stroke: #0000ff; stroke-opacity: 0.5"/>
     <use xlink:href="#m19ed0db924" x="293.606039" y="190.000727" style="fill: #0000ff; fill-opacity: 0.5; stroke: #0000ff; stroke-opacity: 0.5"/>
     <use xlink:href="#m19ed0db924" x="51.73366" y="290.909468" style="fill: #0000ff; fill-opacity: 0.5; stroke: #0000ff; stroke-opacity: 0.5"/>
     <use xlink:href="#m19ed0db924" x="131.002033" y="247.607633" style="fill: #0000ff; fill-opacity: 0.5; stroke: #0000ff; stroke-opacity: 0.5"/>
     <use xlink:href="#m19ed0db924" x="103.890443" y="283.563621" style="fill: #0000ff; fill-opacity: 0.5; stroke: #0000ff; stroke-opacity: 0.5"/>
     <use xlink:href="#m19ed0db924" x="124.313685" y="284.723492" style="fill: #0000ff; fill-opacity: 0.5; stroke: #0000ff; stroke-opacity: 0.5"/>
     <use xlink:href="#m19ed0db924" x="252.581666" y="164.483573" style="fill: #0000ff; fill-opacity: 0.5; stroke: #0000ff; stroke-opacity: 0.5"/>
     <use xlink:href="#m19ed0db924" x="325.861576" y="70.147432" style="fill: #0000ff; fill-opacity: 0.5; stroke: #0000ff; stroke-opacity: 0.5"/>
     <use xlink:href="#m19ed0db924" x="78.9654" y="283.950245" style="fill: #0000ff; fill-opacity: 0.5; stroke: #0000ff; stroke-opacity: 0.5"/>
     <use xlink:href="#m19ed0db924" x="80.80828" y="282.403751" style="fill: #0000ff; fill-opacity: 0.5; stroke: #0000ff; stroke-opacity: 0.5"/>
     <use xlink:href="#m19ed0db924" x="336.121531" y="120.795114" style="fill: #0000ff; fill-opacity: 0.5; stroke: #0000ff; stroke-opacity: 0.5"/>
     <use xlink:href="#m19ed0db924" x="233.803968" y="181.495009" style="fill: #0000ff; fill-opacity: 0.5; stroke: #0000ff; stroke-opacity: 0.5"/>
     <use xlink:href="#m19ed0db924" x="82.941388" y="280.084009" style="fill: #0000ff; fill-opacity: 0.5; stroke: #0000ff; stroke-opacity: 0.5"/>
     <use xlink:href="#m19ed0db924" x="285.757446" y="169.896303" style="fill: #0000ff; fill-opacity: 0.5; stroke: #0000ff; stroke-opacity: 0.5"/>
     <use xlink:href="#m19ed0db924" x="302.394668" y="136.260056" style="fill: #0000ff; fill-opacity: 0.5; stroke: #0000ff; stroke-opacity: 0.5"/>
     <use xlink:href="#m19ed0db924" x="205.721414" y="186.521115" style="fill: #0000ff; fill-opacity: 0.5; stroke: #0000ff; stroke-opacity: 0.5"/>
     <use xlink:href="#m19ed0db924" x="92.944231" y="274.67128" style="fill: #0000ff; fill-opacity: 0.5; stroke: #0000ff; stroke-opacity: 0.5"/>
     <use xlink:href="#m19ed0db924" x="300.448683" y="169.123056" style="fill: #0000ff; fill-opacity: 0.5; stroke: #0000ff; stroke-opacity: 0.5"/>
     <use xlink:href="#m19ed0db924" x="36.284852" y="296.786146" style="fill: #0000ff; fill-opacity: 0.5; stroke: #0000ff; stroke-opacity: 0.5"/>
     <use xlink:href="#m19ed0db924" x="40.934623" y="294.775704" style="fill: #0000ff; fill-opacity: 0.5; stroke: #0000ff; stroke-opacity: 0.5"/>
     <use xlink:href="#m19ed0db924" x="113.763306" y="268.485303" style="fill: #0000ff; fill-opacity: 0.5; stroke: #0000ff; stroke-opacity: 0.5"/>
     <use xlink:href="#m19ed0db924" x="64.521002" y="286.656609" style="fill: #0000ff; fill-opacity: 0.5; stroke: #0000ff; stroke-opacity: 0.5"/>
     <use xlink:href="#m19ed0db924" x="113.983939" y="265.778939" style="fill: #0000ff; fill-opacity: 0.5; stroke: #0000ff; stroke-opacity: 0.5"/>
     <use xlink:href="#m19ed0db924" x="69.851537" y="292.069339" style="fill: #0000ff; fill-opacity: 0.5; stroke: #0000ff; stroke-opacity: 0.5"/>
     <use xlink:href="#m19ed0db924" x="38.521442" y="297.636718" style="fill: #0000ff; fill-opacity: 0.5; stroke: #0000ff; stroke-opacity: 0.5"/>
     <use xlink:href="#m19ed0db924" x="36.048667" y="296.51551" style="fill: #0000ff; fill-opacity: 0.5; stroke: #0000ff; stroke-opacity: 0.5"/>
     <use xlink:href="#m19ed0db924" x="141.486893" y="254.180233" style="fill: #0000ff; fill-opacity: 0.5; stroke: #0000ff; stroke-opacity: 0.5"/>
     <use xlink:href="#m19ed0db924" x="152.627951" y="201.599432" style="fill: #0000ff; fill-opacity: 0.5; stroke: #0000ff; stroke-opacity: 0.5"/>
     <use xlink:href="#m19ed0db924" x="191.054193" y="224.023597" style="fill: #0000ff; fill-opacity: 0.5; stroke: #0000ff; stroke-opacity: 0.5"/>
     <use xlink:href="#m19ed0db924" x="180.07235" y="278.537515" style="fill: #0000ff; fill-opacity: 0.5; stroke: #0000ff; stroke-opacity: 0.5"/>
     <use xlink:href="#m19ed0db924" x="296.861128" y="111.51615" style="fill: #0000ff; fill-opacity: 0.5; stroke: #0000ff; stroke-opacity: 0.5"/>
     <use xlink:href="#m19ed0db924" x="60.570696" y="290.522845" style="fill: #0000ff; fill-opacity: 0.5; stroke: #0000ff; stroke-opacity: 0.5"/>
     <use xlink:href="#m19ed0db924" x="83.727138" y="277.764268" style="fill: #0000ff; fill-opacity: 0.5; stroke: #0000ff; stroke-opacity: 0.5"/>
     <use xlink:href="#m19ed0db924" x="38.911436" y="296.670159" style="fill: #0000ff; fill-opacity: 0.5; stroke: #0000ff; stroke-opacity: 0.5"/>
     <use xlink:href="#m19ed0db924" x="69.987536" y="284.336868" style="fill: #0000ff; fill-opacity: 0.5; stroke: #0000ff; stroke-opacity: 0.5"/>
     <use xlink:href="#m19ed0db924" x="24.476077" y="297.095445" style="fill: #0000ff; fill-opacity: 0.5; stroke: #0000ff; stroke-opacity: 0.5"/>
     <use xlink:href="#m19ed0db924" x="82.439948" y="279.697386" style="fill: #0000ff; fill-opacity: 0.5; stroke: #0000ff; stroke-opacity: 0.5"/>
     <use xlink:href="#m19ed0db924" x="142.081377" y="235.23568" style="fill: #0000ff; fill-opacity: 0.5; stroke: #0000ff; stroke-opacity: 0.5"/>
     <use xlink:href="#m19ed0db924" x="349.513276" y="165.643444" style="fill: #0000ff; fill-opacity: 0.5; stroke: #0000ff; stroke-opacity: 0.5"/>
     <use xlink:href="#m19ed0db924" x="51.854291" y="296.051561" style="fill: #0000ff; fill-opacity: 0.5; stroke: #0000ff; stroke-opacity: 0.5"/>
     <use xlink:href="#m19ed0db924" x="120.989575" y="197.733197" style="fill: #0000ff; fill-opacity: 0.5; stroke: #0000ff; stroke-opacity: 0.5"/>
     <use xlink:href="#m19ed0db924" x="104.418968" y="278.537515" style="fill: #0000ff; fill-opacity: 0.5; stroke: #0000ff; stroke-opacity: 0.5"/>
     <use xlink:href="#m19ed0db924" x="43.246493" y="296.244873" style="fill: #0000ff; fill-opacity: 0.5; stroke: #0000ff; stroke-opacity: 0.5"/>
     <use xlink:href="#m19ed0db924" x="215.397506" y="161.777209" style="fill: #0000ff; fill-opacity: 0.5; stroke: #0000ff; stroke-opacity: 0.5"/>
     <use xlink:href="#m19ed0db924" x="259.808181" y="208.172033" style="fill: #0000ff; fill-opacity: 0.5; stroke: #0000ff; stroke-opacity: 0.5"/>
     <use xlink:href="#m19ed0db924" x="43.225478" y="295.626275" style="fill: #0000ff; fill-opacity: 0.5; stroke: #0000ff; stroke-opacity: 0.5"/>
     <use xlink:href="#m19ed0db924" x="112.025217" y="275.057904" style="fill: #0000ff; fill-opacity: 0.5; stroke: #0000ff; stroke-opacity: 0.5"/>
     <use xlink:href="#m19ed0db924" x="44.366291" y="295.162327" style="fill: #0000ff; fill-opacity: 0.5; stroke: #0000ff; stroke-opacity: 0.5"/>
     <use xlink:href="#m19ed0db924" x="37.200942" y="294.002457" style="fill: #0000ff; fill-opacity: 0.5; stroke: #0000ff; stroke-opacity: 0.5"/>
     <use xlink:href="#m19ed0db924" x="43.466724" y="296.476847" style="fill: #0000ff; fill-opacity: 0.5; stroke: #0000ff; stroke-opacity: 0.5"/>
     <use xlink:href="#m19ed0db924" x="283.279867" y="181.108385" style="fill: #0000ff; fill-opacity: 0.5; stroke: #0000ff; stroke-opacity: 0.5"/>
     <use xlink:href="#m19ed0db924" x="135.77918" y="287.81648" style="fill: #0000ff; fill-opacity: 0.5; stroke: #0000ff; stroke-opacity: 0.5"/>
     <use xlink:href="#m19ed0db924" x="270.566152" y="171.442797" style="fill: #0000ff; fill-opacity: 0.5; stroke: #0000ff; stroke-opacity: 0.5"/>
     <use xlink:href="#m19ed0db924" x="32.110314" y="295.896912" style="fill: #0000ff; fill-opacity: 0.5; stroke: #0000ff; stroke-opacity: 0.5"/>
     <use xlink:href="#m19ed0db924" x="98.499123" y="288.976351" style="fill: #0000ff; fill-opacity: 0.5; stroke: #0000ff; stroke-opacity: 0.5"/>
     <use xlink:href="#m19ed0db924" x="80.022027" y="261.52608" style="fill: #0000ff; fill-opacity: 0.5; stroke: #0000ff; stroke-opacity: 0.5"/>
     <use xlink:href="#m19ed0db924" x="298.850757" y="164.483573" style="fill: #0000ff; fill-opacity: 0.5; stroke: #0000ff; stroke-opacity: 0.5"/>
     <use xlink:href="#m19ed0db924" x="236.368171" y="130.074079" style="fill: #0000ff; fill-opacity: 0.5; stroke: #0000ff; stroke-opacity: 0.5"/>
     <use xlink:href="#m19ed0db924" x="180.934177" y="224.796844" style="fill: #0000ff; fill-opacity: 0.5; stroke: #0000ff; stroke-opacity: 0.5"/>
     <use xlink:href="#m19ed0db924" x="139.060701" y="228.66308" style="fill: #0000ff; fill-opacity: 0.5; stroke: #0000ff; stroke-opacity: 0.5"/>
     <use xlink:href="#m19ed0db924" x="259.240905" y="196.95995" style="fill: #0000ff; fill-opacity: 0.5; stroke: #0000ff; stroke-opacity: 0.5"/>
     <use xlink:href="#m19ed0db924" x="90.974571" y="293.22921" style="fill: #0000ff; fill-opacity: 0.5; stroke: #0000ff; stroke-opacity: 0.5"/>
     <use xlink:href="#m19ed0db924" x="37.468472" y="297.288757" style="fill: #0000ff; fill-opacity: 0.5; stroke: #0000ff; stroke-opacity: 0.5"/>
     <use xlink:href="#m19ed0db924" x="48.028665" y="293.615833" style="fill: #0000ff; fill-opacity: 0.5; stroke: #0000ff; stroke-opacity: 0.5"/>
     <use xlink:href="#m19ed0db924" x="38.670483" y="296.863471" style="fill: #0000ff; fill-opacity: 0.5; stroke: #0000ff; stroke-opacity: 0.5"/>
     <use xlink:href="#m19ed0db924" x="46.461052" y="296.012899" style="fill: #0000ff; fill-opacity: 0.5; stroke: #0000ff; stroke-opacity: 0.5"/>
     <use xlink:href="#m19ed0db924" x="43.510633" y="296.554172" style="fill: #0000ff; fill-opacity: 0.5; stroke: #0000ff; stroke-opacity: 0.5"/>
     <use xlink:href="#m19ed0db924" x="45.303535" y="294.002457" style="fill: #0000ff; fill-opacity: 0.5; stroke: #0000ff; stroke-opacity: 0.5"/>
     <use xlink:href="#m19ed0db924" x="122.443705" y="263.072574" style="fill: #0000ff; fill-opacity: 0.5; stroke: #0000ff; stroke-opacity: 0.5"/>
     <use xlink:href="#m19ed0db924" x="248.964379" y="47.723267" style="fill: #0000ff; fill-opacity: 0.5; stroke: #0000ff; stroke-opacity: 0.5"/>
     <use xlink:href="#m19ed0db924" x="69.06964" y="284.723492" style="fill: #0000ff; fill-opacity: 0.5; stroke: #0000ff; stroke-opacity: 0.5"/>
     <use xlink:href="#m19ed0db924" x="121.12316" y="286.269986" style="fill: #0000ff; fill-opacity: 0.5; stroke: #0000ff; stroke-opacity: 0.5"/>
     <use xlink:href="#m19ed0db924" x="150.021556" y="269.645174" style="fill: #0000ff; fill-opacity: 0.5; stroke: #0000ff; stroke-opacity: 0.5"/>
     <use xlink:href="#m19ed0db924" x="246.143127" y="156.751103" style="fill: #0000ff; fill-opacity: 0.5; stroke: #0000ff; stroke-opacity: 0.5"/>
    </g>
   </g>
   <g id="PathCollection_2">
    <defs>
     <path id="m73d85af58b" d="M 0 3 
C 0.795609 3 1.55874 2.683901 2.12132 2.12132 
C 2.683901 1.55874 3 0.795609 3 0 
C 3 -0.795609 2.683901 -1.55874 2.12132 -2.12132 
C 1.55874 -2.683901 0.795609 -3 0 -3 
C -0.795609 -3 -1.55874 -2.683901 -2.12132 -2.12132 
C -2.683901 -1.55874 -3 -0.795609 -3 0 
C -3 0.795609 -2.683901 1.55874 -2.12132 2.12132 
C -1.55874 2.683901 -0.795609 3 0 3 
z
" style="stroke: #008000; stroke-opacity: 0.5"/>
    </defs>
    <g clip-path="url(#pce444e8372)">
     <use xlink:href="#m73d85af58b" x="312.525609" y="183.428126" style="fill: #008000; fill-opacity: 0.5; stroke: #008000; stroke-opacity: 0.5"/>
     <use xlink:href="#m73d85af58b" x="54.353533" y="296.786146" style="fill: #008000; fill-opacity: 0.5; stroke: #008000; stroke-opacity: 0.5"/>
     <use xlink:href="#m73d85af58b" x="104.99375" y="273.898033" style="fill: #008000; fill-opacity: 0.5; stroke: #008000; stroke-opacity: 0.5"/>
     <use xlink:href="#m73d85af58b" x="199.716275" y="256.886598" style="fill: #008000; fill-opacity: 0.5; stroke: #008000; stroke-opacity: 0.5"/>
     <use xlink:href="#m73d85af58b" x="51.294697" y="252.247115" style="fill: #008000; fill-opacity: 0.5; stroke: #008000; stroke-opacity: 0.5"/>
     <use xlink:href="#m73d85af58b" x="38.176681" y="288.976351" style="fill: #008000; fill-opacity: 0.5; stroke: #008000; stroke-opacity: 0.5"/>
     <use xlink:href="#m73d85af58b" x="55.133907" y="292.455962" style="fill: #008000; fill-opacity: 0.5; stroke: #008000; stroke-opacity: 0.5"/>
     <use xlink:href="#m73d85af58b" x="167.623144" y="196.186703" style="fill: #008000; fill-opacity: 0.5; stroke: #008000; stroke-opacity: 0.5"/>
     <use xlink:href="#m73d85af58b" x="40.668869" y="296.670159" style="fill: #008000; fill-opacity: 0.5; stroke: #008000; stroke-opacity: 0.5"/>
     <use xlink:href="#m73d85af58b" x="138.258597" y="232.142691" style="fill: #008000; fill-opacity: 0.5; stroke: #008000; stroke-opacity: 0.5"/>
     <use xlink:href="#m73d85af58b" x="84.924898" y="286.656609" style="fill: #008000; fill-opacity: 0.5; stroke: #008000; stroke-opacity: 0.5"/>
     <use xlink:href="#m73d85af58b" x="77.430962" y="264.619068" style="fill: #008000; fill-opacity: 0.5; stroke: #008000; stroke-opacity: 0.5"/>
     <use xlink:href="#m73d85af58b" x="48.502436" y="292.842586" style="fill: #008000; fill-opacity: 0.5; stroke: #008000; stroke-opacity: 0.5"/>
     <use xlink:href="#m73d85af58b" x="77.630228" y="275.444527" style="fill: #008000; fill-opacity: 0.5; stroke: #008000; stroke-opacity: 0.5"/>
     <use xlink:href="#m73d85af58b" x="34.395653" y="297.288757" style="fill: #008000; fill-opacity: 0.5; stroke: #008000; stroke-opacity: 0.5"/>
     <use xlink:href="#m73d85af58b" x="59.196438" y="294.38908" style="fill: #008000; fill-opacity: 0.5; stroke: #008000; stroke-opacity: 0.5"/>
     <use xlink:href="#m73d85af58b" x="182.658534" y="190.773974" style="fill: #008000; fill-opacity: 0.5; stroke: #008000; stroke-opacity: 0.5"/>
     <use xlink:href="#m73d85af58b" x="107.121931" y="261.139456" style="fill: #008000; fill-opacity: 0.5; stroke: #008000; stroke-opacity: 0.5"/>
     <use xlink:href="#m73d85af58b" x="141.094445" y="271.578292" style="fill: #008000; fill-opacity: 0.5; stroke: #008000; stroke-opacity: 0.5"/>
     <use xlink:href="#m73d85af58b" x="40.079278" y="297.211432" style="fill: #008000; fill-opacity: 0.5; stroke: #008000; stroke-opacity: 0.5"/>
     <use xlink:href="#m73d85af58b" x="168.273603" y="150.178503" style="fill: #008000; fill-opacity: 0.5; stroke: #008000; stroke-opacity: 0.5"/>
     <use xlink:href="#m73d85af58b" x="286.121403" y="208.172033" style="fill: #008000; fill-opacity: 0.5; stroke: #008000; stroke-opacity: 0.5"/>
     <use xlink:href="#m73d85af58b" x="79.556236" y="286.656609" style="fill: #008000; fill-opacity: 0.5; stroke: #008000; stroke-opacity: 0.5"/>
     <use xlink:href="#m73d85af58b" x="87.788069" y="276.991021" style="fill: #008000; fill-opacity: 0.5; stroke: #008000; stroke-opacity: 0.5"/>
     <use xlink:href="#m73d85af58b" x="302.506252" y="153.658115" style="fill: #008000; fill-opacity: 0.5; stroke: #008000; stroke-opacity: 0.5"/>
     <use xlink:href="#m73d85af58b" x="270.166175" y="178.015397" style="fill: #008000; fill-opacity: 0.5; stroke: #008000; stroke-opacity: 0.5"/>
     <use xlink:href="#m73d85af58b" x="265.061032" y="116.928879" style="fill: #008000; fill-opacity: 0.5; stroke: #008000; stroke-opacity: 0.5"/>
     <use xlink:href="#m73d85af58b" x="289.529148" y="169.509679" style="fill: #008000; fill-opacity: 0.5; stroke: #008000; stroke-opacity: 0.5"/>
     <use xlink:href="#m73d85af58b" x="38.816952" y="295.7036" style="fill: #008000; fill-opacity: 0.5; stroke: #008000; stroke-opacity: 0.5"/>
     <use xlink:href="#m73d85af58b" x="103.194542" y="297.520731" style="fill: #008000; fill-opacity: 0.5; stroke: #008000; stroke-opacity: 0.5"/>
     <use xlink:href="#m73d85af58b" x="373.706893" y="161.777209" style="fill: #008000; fill-opacity: 0.5; stroke: #008000; stroke-opacity: 0.5"/>
     <use xlink:href="#m73d85af58b" x="251.102416" y="184.201374" style="fill: #008000; fill-opacity: 0.5; stroke: #008000; stroke-opacity: 0.5"/>
     <use xlink:href="#m73d85af58b" x="247.774478" y="168.736432" style="fill: #008000; fill-opacity: 0.5; stroke: #008000; stroke-opacity: 0.5"/>
     <use xlink:href="#m73d85af58b" x="292.823684" y="176.855526" style="fill: #008000; fill-opacity: 0.5; stroke: #008000; stroke-opacity: 0.5"/>
     <use xlink:href="#m73d85af58b" x="134.882648" y="265.778939" style="fill: #008000; fill-opacity: 0.5; stroke: #008000; stroke-opacity: 0.5"/>
     <use xlink:href="#m73d85af58b" x="96.202444" y="274.67128" style="fill: #008000; fill-opacity: 0.5; stroke: #008000; stroke-opacity: 0.5"/>
     <use xlink:href="#m73d85af58b" x="42.520263" y="294.38908" style="fill: #008000; fill-opacity: 0.5; stroke: #008000; stroke-opacity: 0.5"/>
     <use xlink:href="#m73d85af58b" x="247.383662" y="146.698891" style="fill: #008000; fill-opacity: 0.5; stroke: #008000; stroke-opacity: 0.5"/>
     <use xlink:href="#m73d85af58b" x="91.687617" y="290.909468" style="fill: #008000; fill-opacity: 0.5; stroke: #008000; stroke-opacity: 0.5"/>
    </g>
   </g>
   <g id="matplotlib.axis_1">
    <g id="xtick_1">
     <g id="line2d_1">
      <path d="M 34.278125 299.028562 
L 34.278125 32.916562 
" clip-path="url(#pce444e8372)" style="fill: none; stroke: #b0b0b0; stroke-width: 0.8; stroke-linecap: square"/>
     </g>
     <g id="line2d_2">
      <defs>
       <path id="m3b3412e527" d="M 0 0 
L 0 3.5 
" style="stroke: #000000; stroke-width: 0.8"/>
      </defs>
      <g>
       <use xlink:href="#m3b3412e527" x="34.278125" y="299.028562" style="stroke: #000000; stroke-width: 0.8"/>
      </g>
     </g>
     <g id="text_1">
      <!-- 0 -->
      <g transform="translate(31.096875 313.627) scale(0.1 -0.1)">
       <defs>
        <path id="DejaVuSans-30" d="M 2034 4250 
Q 1547 4250 1301 3770 
Q 1056 3291 1056 2328 
Q 1056 1369 1301 889 
Q 1547 409 2034 409 
Q 2525 409 2770 889 
Q 3016 1369 3016 2328 
Q 3016 3291 2770 3770 
Q 2525 4250 2034 4250 
z
M 2034 4750 
Q 2819 4750 3233 4129 
Q 3647 3509 3647 2328 
Q 3647 1150 3233 529 
Q 2819 -91 2034 -91 
Q 1250 -91 836 529 
Q 422 1150 422 2328 
Q 422 3509 836 4129 
Q 1250 4750 2034 4750 
z
" transform="scale(0.015625)"/>
       </defs>
       <use xlink:href="#DejaVuSans-30"/>
      </g>
     </g>
    </g>
    <g id="xtick_2">
     <g id="line2d_3">
      <path d="M 80.094254 299.028562 
L 80.094254 32.916562 
" clip-path="url(#pce444e8372)" style="fill: none; stroke: #b0b0b0; stroke-width: 0.8; stroke-linecap: square"/>
     </g>
     <g id="line2d_4">
      <g>
       <use xlink:href="#m3b3412e527" x="80.094254" y="299.028562" style="stroke: #000000; stroke-width: 0.8"/>
      </g>
     </g>
     <g id="text_2">
      <!-- 5 -->
      <g transform="translate(76.913004 313.627) scale(0.1 -0.1)">
       <defs>
        <path id="DejaVuSans-35" d="M 691 4666 
L 3169 4666 
L 3169 4134 
L 1269 4134 
L 1269 2991 
Q 1406 3038 1543 3061 
Q 1681 3084 1819 3084 
Q 2600 3084 3056 2656 
Q 3513 2228 3513 1497 
Q 3513 744 3044 326 
Q 2575 -91 1722 -91 
Q 1428 -91 1123 -41 
Q 819 9 494 109 
L 494 744 
Q 775 591 1075 516 
Q 1375 441 1709 441 
Q 2250 441 2565 725 
Q 2881 1009 2881 1497 
Q 2881 1984 2565 2268 
Q 2250 2553 1709 2553 
Q 1456 2553 1204 2497 
Q 953 2441 691 2322 
L 691 4666 
z
" transform="scale(0.015625)"/>
       </defs>
       <use xlink:href="#DejaVuSans-35"/>
      </g>
     </g>
    </g>
    <g id="xtick_3">
     <g id="line2d_5">
      <path d="M 125.910383 299.028562 
L 125.910383 32.916562 
" clip-path="url(#pce444e8372)" style="fill: none; stroke: #b0b0b0; stroke-width: 0.8; stroke-linecap: square"/>
     </g>
     <g id="line2d_6">
      <g>
       <use xlink:href="#m3b3412e527" x="125.910383" y="299.028562" style="stroke: #000000; stroke-width: 0.8"/>
      </g>
     </g>
     <g id="text_3">
      <!-- 10 -->
      <g transform="translate(119.547883 313.627) scale(0.1 -0.1)">
       <defs>
        <path id="DejaVuSans-31" d="M 794 531 
L 1825 531 
L 1825 4091 
L 703 3866 
L 703 4441 
L 1819 4666 
L 2450 4666 
L 2450 531 
L 3481 531 
L 3481 0 
L 794 0 
L 794 531 
z
" transform="scale(0.015625)"/>
       </defs>
       <use xlink:href="#DejaVuSans-31"/>
       <use xlink:href="#DejaVuSans-30" x="63.623047"/>
      </g>
     </g>
    </g>
    <g id="xtick_4">
     <g id="line2d_7">
      <path d="M 171.726512 299.028562 
L 171.726512 32.916562 
" clip-path="url(#pce444e8372)" style="fill: none; stroke: #b0b0b0; stroke-width: 0.8; stroke-linecap: square"/>
     </g>
     <g id="line2d_8">
      <g>
       <use xlink:href="#m3b3412e527" x="171.726512" y="299.028562" style="stroke: #000000; stroke-width: 0.8"/>
      </g>
     </g>
     <g id="text_4">
      <!-- 15 -->
      <g transform="translate(165.364012 313.627) scale(0.1 -0.1)">
       <use xlink:href="#DejaVuSans-31"/>
       <use xlink:href="#DejaVuSans-35" x="63.623047"/>
      </g>
     </g>
    </g>
    <g id="xtick_5">
     <g id="line2d_9">
      <path d="M 217.542641 299.028562 
L 217.542641 32.916562 
" clip-path="url(#pce444e8372)" style="fill: none; stroke: #b0b0b0; stroke-width: 0.8; stroke-linecap: square"/>
     </g>
     <g id="line2d_10">
      <g>
       <use xlink:href="#m3b3412e527" x="217.542641" y="299.028562" style="stroke: #000000; stroke-width: 0.8"/>
      </g>
     </g>
     <g id="text_5">
      <!-- 20 -->
      <g transform="translate(211.180141 313.627) scale(0.1 -0.1)">
       <defs>
        <path id="DejaVuSans-32" d="M 1228 531 
L 3431 531 
L 3431 0 
L 469 0 
L 469 531 
Q 828 903 1448 1529 
Q 2069 2156 2228 2338 
Q 2531 2678 2651 2914 
Q 2772 3150 2772 3378 
Q 2772 3750 2511 3984 
Q 2250 4219 1831 4219 
Q 1534 4219 1204 4116 
Q 875 4013 500 3803 
L 500 4441 
Q 881 4594 1212 4672 
Q 1544 4750 1819 4750 
Q 2544 4750 2975 4387 
Q 3406 4025 3406 3419 
Q 3406 3131 3298 2873 
Q 3191 2616 2906 2266 
Q 2828 2175 2409 1742 
Q 1991 1309 1228 531 
z
" transform="scale(0.015625)"/>
       </defs>
       <use xlink:href="#DejaVuSans-32"/>
       <use xlink:href="#DejaVuSans-30" x="63.623047"/>
      </g>
     </g>
    </g>
    <g id="xtick_6">
     <g id="line2d_11">
      <path d="M 263.35877 299.028562 
L 263.35877 32.916562 
" clip-path="url(#pce444e8372)" style="fill: none; stroke: #b0b0b0; stroke-width: 0.8; stroke-linecap: square"/>
     </g>
     <g id="line2d_12">
      <g>
       <use xlink:href="#m3b3412e527" x="263.35877" y="299.028562" style="stroke: #000000; stroke-width: 0.8"/>
      </g>
     </g>
     <g id="text_6">
      <!-- 25 -->
      <g transform="translate(256.99627 313.627) scale(0.1 -0.1)">
       <use xlink:href="#DejaVuSans-32"/>
       <use xlink:href="#DejaVuSans-35" x="63.623047"/>
      </g>
     </g>
    </g>
    <g id="xtick_7">
     <g id="line2d_13">
      <path d="M 309.174898 299.028562 
L 309.174898 32.916562 
" clip-path="url(#pce444e8372)" style="fill: none; stroke: #b0b0b0; stroke-width: 0.8; stroke-linecap: square"/>
     </g>
     <g id="line2d_14">
      <g>
       <use xlink:href="#m3b3412e527" x="309.174898" y="299.028562" style="stroke: #000000; stroke-width: 0.8"/>
      </g>
     </g>
     <g id="text_7">
      <!-- 30 -->
      <g transform="translate(302.812398 313.627) scale(0.1 -0.1)">
       <defs>
        <path id="DejaVuSans-33" d="M 2597 2516 
Q 3050 2419 3304 2112 
Q 3559 1806 3559 1356 
Q 3559 666 3084 287 
Q 2609 -91 1734 -91 
Q 1441 -91 1130 -33 
Q 819 25 488 141 
L 488 750 
Q 750 597 1062 519 
Q 1375 441 1716 441 
Q 2309 441 2620 675 
Q 2931 909 2931 1356 
Q 2931 1769 2642 2001 
Q 2353 2234 1838 2234 
L 1294 2234 
L 1294 2753 
L 1863 2753 
Q 2328 2753 2575 2939 
Q 2822 3125 2822 3475 
Q 2822 3834 2567 4026 
Q 2313 4219 1838 4219 
Q 1578 4219 1281 4162 
Q 984 4106 628 3988 
L 628 4550 
Q 988 4650 1302 4700 
Q 1616 4750 1894 4750 
Q 2613 4750 3031 4423 
Q 3450 4097 3450 3541 
Q 3450 3153 3228 2886 
Q 3006 2619 2597 2516 
z
" transform="scale(0.015625)"/>
       </defs>
       <use xlink:href="#DejaVuSans-33"/>
       <use xlink:href="#DejaVuSans-30" x="63.623047"/>
      </g>
     </g>
    </g>
    <g id="xtick_8">
     <g id="line2d_15">
      <path d="M 354.991027 299.028562 
L 354.991027 32.916562 
" clip-path="url(#pce444e8372)" style="fill: none; stroke: #b0b0b0; stroke-width: 0.8; stroke-linecap: square"/>
     </g>
     <g id="line2d_16">
      <g>
       <use xlink:href="#m3b3412e527" x="354.991027" y="299.028562" style="stroke: #000000; stroke-width: 0.8"/>
      </g>
     </g>
     <g id="text_8">
      <!-- 35 -->
      <g transform="translate(348.628527 313.627) scale(0.1 -0.1)">
       <use xlink:href="#DejaVuSans-33"/>
       <use xlink:href="#DejaVuSans-35" x="63.623047"/>
      </g>
     </g>
    </g>
    <g id="text_9">
     <!-- prediction -->
     <g transform="translate(187.754531 327.305125) scale(0.1 -0.1)">
      <defs>
       <path id="DejaVuSans-70" d="M 1159 525 
L 1159 -1331 
L 581 -1331 
L 581 3500 
L 1159 3500 
L 1159 2969 
Q 1341 3281 1617 3432 
Q 1894 3584 2278 3584 
Q 2916 3584 3314 3078 
Q 3713 2572 3713 1747 
Q 3713 922 3314 415 
Q 2916 -91 2278 -91 
Q 1894 -91 1617 61 
Q 1341 213 1159 525 
z
M 3116 1747 
Q 3116 2381 2855 2742 
Q 2594 3103 2138 3103 
Q 1681 3103 1420 2742 
Q 1159 2381 1159 1747 
Q 1159 1113 1420 752 
Q 1681 391 2138 391 
Q 2594 391 2855 752 
Q 3116 1113 3116 1747 
z
" transform="scale(0.015625)"/>
       <path id="DejaVuSans-72" d="M 2631 2963 
Q 2534 3019 2420 3045 
Q 2306 3072 2169 3072 
Q 1681 3072 1420 2755 
Q 1159 2438 1159 1844 
L 1159 0 
L 581 0 
L 581 3500 
L 1159 3500 
L 1159 2956 
Q 1341 3275 1631 3429 
Q 1922 3584 2338 3584 
Q 2397 3584 2469 3576 
Q 2541 3569 2628 3553 
L 2631 2963 
z
" transform="scale(0.015625)"/>
       <path id="DejaVuSans-65" d="M 3597 1894 
L 3597 1613 
L 953 1613 
Q 991 1019 1311 708 
Q 1631 397 2203 397 
Q 2534 397 2845 478 
Q 3156 559 3463 722 
L 3463 178 
Q 3153 47 2828 -22 
Q 2503 -91 2169 -91 
Q 1331 -91 842 396 
Q 353 884 353 1716 
Q 353 2575 817 3079 
Q 1281 3584 2069 3584 
Q 2775 3584 3186 3129 
Q 3597 2675 3597 1894 
z
M 3022 2063 
Q 3016 2534 2758 2815 
Q 2500 3097 2075 3097 
Q 1594 3097 1305 2825 
Q 1016 2553 972 2059 
L 3022 2063 
z
" transform="scale(0.015625)"/>
       <path id="DejaVuSans-64" d="M 2906 2969 
L 2906 4863 
L 3481 4863 
L 3481 0 
L 2906 0 
L 2906 525 
Q 2725 213 2448 61 
Q 2172 -91 1784 -91 
Q 1150 -91 751 415 
Q 353 922 353 1747 
Q 353 2572 751 3078 
Q 1150 3584 1784 3584 
Q 2172 3584 2448 3432 
Q 2725 3281 2906 2969 
z
M 947 1747 
Q 947 1113 1208 752 
Q 1469 391 1925 391 
Q 2381 391 2643 752 
Q 2906 1113 2906 1747 
Q 2906 2381 2643 2742 
Q 2381 3103 1925 3103 
Q 1469 3103 1208 2742 
Q 947 2381 947 1747 
z
" transform="scale(0.015625)"/>
       <path id="DejaVuSans-69" d="M 603 3500 
L 1178 3500 
L 1178 0 
L 603 0 
L 603 3500 
z
M 603 4863 
L 1178 4863 
L 1178 4134 
L 603 4134 
L 603 4863 
z
" transform="scale(0.015625)"/>
       <path id="DejaVuSans-63" d="M 3122 3366 
L 3122 2828 
Q 2878 2963 2633 3030 
Q 2388 3097 2138 3097 
Q 1578 3097 1268 2742 
Q 959 2388 959 1747 
Q 959 1106 1268 751 
Q 1578 397 2138 397 
Q 2388 397 2633 464 
Q 2878 531 3122 666 
L 3122 134 
Q 2881 22 2623 -34 
Q 2366 -91 2075 -91 
Q 1284 -91 818 406 
Q 353 903 353 1747 
Q 353 2603 823 3093 
Q 1294 3584 2113 3584 
Q 2378 3584 2631 3529 
Q 2884 3475 3122 3366 
z
" transform="scale(0.015625)"/>
       <path id="DejaVuSans-74" d="M 1172 4494 
L 1172 3500 
L 2356 3500 
L 2356 3053 
L 1172 3053 
L 1172 1153 
Q 1172 725 1289 603 
Q 1406 481 1766 481 
L 2356 481 
L 2356 0 
L 1766 0 
Q 1100 0 847 248 
Q 594 497 594 1153 
L 594 3053 
L 172 3053 
L 172 3500 
L 594 3500 
L 594 4494 
L 1172 4494 
z
" transform="scale(0.015625)"/>
       <path id="DejaVuSans-6f" d="M 1959 3097 
Q 1497 3097 1228 2736 
Q 959 2375 959 1747 
Q 959 1119 1226 758 
Q 1494 397 1959 397 
Q 2419 397 2687 759 
Q 2956 1122 2956 1747 
Q 2956 2369 2687 2733 
Q 2419 3097 1959 3097 
z
M 1959 3584 
Q 2709 3584 3137 3096 
Q 3566 2609 3566 1747 
Q 3566 888 3137 398 
Q 2709 -91 1959 -91 
Q 1206 -91 779 398 
Q 353 888 353 1747 
Q 353 2609 779 3096 
Q 1206 3584 1959 3584 
z
" transform="scale(0.015625)"/>
       <path id="DejaVuSans-6e" d="M 3513 2113 
L 3513 0 
L 2938 0 
L 2938 2094 
Q 2938 2591 2744 2837 
Q 2550 3084 2163 3084 
Q 1697 3084 1428 2787 
Q 1159 2491 1159 1978 
L 1159 0 
L 581 0 
L 581 3500 
L 1159 3500 
L 1159 2956 
Q 1366 3272 1645 3428 
Q 1925 3584 2291 3584 
Q 2894 3584 3203 3211 
Q 3513 2838 3513 2113 
z
" transform="scale(0.015625)"/>
      </defs>
      <use xlink:href="#DejaVuSans-70"/>
      <use xlink:href="#DejaVuSans-72" x="63.476562"/>
      <use xlink:href="#DejaVuSans-65" x="102.339844"/>
      <use xlink:href="#DejaVuSans-64" x="163.863281"/>
      <use xlink:href="#DejaVuSans-69" x="227.339844"/>
      <use xlink:href="#DejaVuSans-63" x="255.123047"/>
      <use xlink:href="#DejaVuSans-74" x="310.103516"/>
      <use xlink:href="#DejaVuSans-69" x="349.3125"/>
      <use xlink:href="#DejaVuSans-6f" x="377.095703"/>
      <use xlink:href="#DejaVuSans-6e" x="438.277344"/>
     </g>
    </g>
   </g>
   <g id="matplotlib.axis_2">
    <g id="ytick_1">
     <g id="line2d_17">
      <path d="M 34.278125 299.028562 
L 391.398125 299.028562 
" clip-path="url(#pce444e8372)" style="fill: none; stroke: #b0b0b0; stroke-width: 0.8; stroke-linecap: square"/>
     </g>
     <g id="line2d_18">
      <defs>
       <path id="md39ccff90c" d="M 0 0 
L -3.5 0 
" style="stroke: #000000; stroke-width: 0.8"/>
      </defs>
      <g>
       <use xlink:href="#md39ccff90c" x="34.278125" y="299.028562" style="stroke: #000000; stroke-width: 0.8"/>
      </g>
     </g>
     <g id="text_10">
      <!-- $\mathdefault{0}$ -->
      <g transform="translate(20.878125 302.827781) scale(0.1 -0.1)">
       <use xlink:href="#DejaVuSans-30" transform="translate(0 0.78125)"/>
      </g>
     </g>
    </g>
    <g id="ytick_2">
     <g id="line2d_19">
      <path d="M 34.278125 260.366209 
L 391.398125 260.366209 
" clip-path="url(#pce444e8372)" style="fill: none; stroke: #b0b0b0; stroke-width: 0.8; stroke-linecap: square"/>
     </g>
     <g id="line2d_20">
      <g>
       <use xlink:href="#md39ccff90c" x="34.278125" y="260.366209" style="stroke: #000000; stroke-width: 0.8"/>
      </g>
     </g>
     <g id="text_11">
      <!-- $\mathdefault{1}$ -->
      <g transform="translate(20.878125 264.165428) scale(0.1 -0.1)">
       <use xlink:href="#DejaVuSans-31" transform="translate(0 0.09375)"/>
      </g>
     </g>
    </g>
    <g id="ytick_3">
     <g id="line2d_21">
      <path d="M 34.278125 221.703856 
L 391.398125 221.703856 
" clip-path="url(#pce444e8372)" style="fill: none; stroke: #b0b0b0; stroke-width: 0.8; stroke-linecap: square"/>
     </g>
     <g id="line2d_22">
      <g>
       <use xlink:href="#md39ccff90c" x="34.278125" y="221.703856" style="stroke: #000000; stroke-width: 0.8"/>
      </g>
     </g>
     <g id="text_12">
      <!-- $\mathdefault{2}$ -->
      <g transform="translate(20.878125 225.503075) scale(0.1 -0.1)">
       <use xlink:href="#DejaVuSans-32" transform="translate(0 0.78125)"/>
      </g>
     </g>
    </g>
    <g id="ytick_4">
     <g id="line2d_23">
      <path d="M 34.278125 183.041503 
L 391.398125 183.041503 
" clip-path="url(#pce444e8372)" style="fill: none; stroke: #b0b0b0; stroke-width: 0.8; stroke-linecap: square"/>
     </g>
     <g id="line2d_24">
      <g>
       <use xlink:href="#md39ccff90c" x="34.278125" y="183.041503" style="stroke: #000000; stroke-width: 0.8"/>
      </g>
     </g>
     <g id="text_13">
      <!-- $\mathdefault{3}$ -->
      <g transform="translate(20.878125 186.840722) scale(0.1 -0.1)">
       <use xlink:href="#DejaVuSans-33" transform="translate(0 0.78125)"/>
      </g>
     </g>
    </g>
    <g id="ytick_5">
     <g id="line2d_25">
      <path d="M 34.278125 144.37915 
L 391.398125 144.37915 
" clip-path="url(#pce444e8372)" style="fill: none; stroke: #b0b0b0; stroke-width: 0.8; stroke-linecap: square"/>
     </g>
     <g id="line2d_26">
      <g>
       <use xlink:href="#md39ccff90c" x="34.278125" y="144.37915" style="stroke: #000000; stroke-width: 0.8"/>
      </g>
     </g>
     <g id="text_14">
      <!-- $\mathdefault{4}$ -->
      <g transform="translate(20.878125 148.178369) scale(0.1 -0.1)">
       <defs>
        <path id="DejaVuSans-34" d="M 2419 4116 
L 825 1625 
L 2419 1625 
L 2419 4116 
z
M 2253 4666 
L 3047 4666 
L 3047 1625 
L 3713 1625 
L 3713 1100 
L 3047 1100 
L 3047 0 
L 2419 0 
L 2419 1100 
L 313 1100 
L 313 1709 
L 2253 4666 
z
" transform="scale(0.015625)"/>
       </defs>
       <use xlink:href="#DejaVuSans-34" transform="translate(0 0.09375)"/>
      </g>
     </g>
    </g>
    <g id="ytick_6">
     <g id="line2d_27">
      <path d="M 34.278125 105.716797 
L 391.398125 105.716797 
" clip-path="url(#pce444e8372)" style="fill: none; stroke: #b0b0b0; stroke-width: 0.8; stroke-linecap: square"/>
     </g>
     <g id="line2d_28">
      <g>
       <use xlink:href="#md39ccff90c" x="34.278125" y="105.716797" style="stroke: #000000; stroke-width: 0.8"/>
      </g>
     </g>
     <g id="text_15">
      <!-- $\mathdefault{5}$ -->
      <g transform="translate(20.878125 109.516015) scale(0.1 -0.1)">
       <use xlink:href="#DejaVuSans-35" transform="translate(0 0.09375)"/>
      </g>
     </g>
    </g>
    <g id="ytick_7">
     <g id="line2d_29">
      <path d="M 34.278125 67.054443 
L 391.398125 67.054443 
" clip-path="url(#pce444e8372)" style="fill: none; stroke: #b0b0b0; stroke-width: 0.8; stroke-linecap: square"/>
     </g>
     <g id="line2d_30">
      <g>
       <use xlink:href="#md39ccff90c" x="34.278125" y="67.054443" style="stroke: #000000; stroke-width: 0.8"/>
      </g>
     </g>
     <g id="text_16">
      <!-- $\mathdefault{6}$ -->
      <g transform="translate(20.878125 70.853662) scale(0.1 -0.1)">
       <defs>
        <path id="DejaVuSans-36" d="M 2113 2584 
Q 1688 2584 1439 2293 
Q 1191 2003 1191 1497 
Q 1191 994 1439 701 
Q 1688 409 2113 409 
Q 2538 409 2786 701 
Q 3034 994 3034 1497 
Q 3034 2003 2786 2293 
Q 2538 2584 2113 2584 
z
M 3366 4563 
L 3366 3988 
Q 3128 4100 2886 4159 
Q 2644 4219 2406 4219 
Q 1781 4219 1451 3797 
Q 1122 3375 1075 2522 
Q 1259 2794 1537 2939 
Q 1816 3084 2150 3084 
Q 2853 3084 3261 2657 
Q 3669 2231 3669 1497 
Q 3669 778 3244 343 
Q 2819 -91 2113 -91 
Q 1303 -91 875 529 
Q 447 1150 447 2328 
Q 447 3434 972 4092 
Q 1497 4750 2381 4750 
Q 2619 4750 2861 4703 
Q 3103 4656 3366 4563 
z
" transform="scale(0.015625)"/>
       </defs>
       <use xlink:href="#DejaVuSans-36" transform="translate(0 0.78125)"/>
      </g>
     </g>
    </g>
    <g id="text_17">
     <!-- actual -->
     <g transform="translate(14.798438 181.367875) rotate(-90) scale(0.1 -0.1)">
      <defs>
       <path id="DejaVuSans-61" d="M 2194 1759 
Q 1497 1759 1228 1600 
Q 959 1441 959 1056 
Q 959 750 1161 570 
Q 1363 391 1709 391 
Q 2188 391 2477 730 
Q 2766 1069 2766 1631 
L 2766 1759 
L 2194 1759 
z
M 3341 1997 
L 3341 0 
L 2766 0 
L 2766 531 
Q 2569 213 2275 61 
Q 1981 -91 1556 -91 
Q 1019 -91 701 211 
Q 384 513 384 1019 
Q 384 1609 779 1909 
Q 1175 2209 1959 2209 
L 2766 2209 
L 2766 2266 
Q 2766 2663 2505 2880 
Q 2244 3097 1772 3097 
Q 1472 3097 1187 3025 
Q 903 2953 641 2809 
L 641 3341 
Q 956 3463 1253 3523 
Q 1550 3584 1831 3584 
Q 2591 3584 2966 3190 
Q 3341 2797 3341 1997 
z
" transform="scale(0.015625)"/>
       <path id="DejaVuSans-75" d="M 544 1381 
L 544 3500 
L 1119 3500 
L 1119 1403 
Q 1119 906 1312 657 
Q 1506 409 1894 409 
Q 2359 409 2629 706 
Q 2900 1003 2900 1516 
L 2900 3500 
L 3475 3500 
L 3475 0 
L 2900 0 
L 2900 538 
Q 2691 219 2414 64 
Q 2138 -91 1772 -91 
Q 1169 -91 856 284 
Q 544 659 544 1381 
z
M 1991 3584 
L 1991 3584 
z
" transform="scale(0.015625)"/>
       <path id="DejaVuSans-6c" d="M 603 4863 
L 1178 4863 
L 1178 0 
L 603 0 
L 603 4863 
z
" transform="scale(0.015625)"/>
      </defs>
      <use xlink:href="#DejaVuSans-61"/>
      <use xlink:href="#DejaVuSans-63" x="61.279297"/>
      <use xlink:href="#DejaVuSans-74" x="116.259766"/>
      <use xlink:href="#DejaVuSans-75" x="155.46875"/>
      <use xlink:href="#DejaVuSans-61" x="218.847656"/>
      <use xlink:href="#DejaVuSans-6c" x="280.126953"/>
     </g>
    </g>
    <g id="text_18">
     <!-- $\times\mathdefault{10^{1}}\mathdefault{}$ -->
     <g transform="translate(34.278125 29.916562) scale(0.1 -0.1)">
      <defs>
       <path id="DejaVuSans-d7" d="M 4488 3438 
L 3059 2003 
L 4488 575 
L 4116 197 
L 2681 1631 
L 1247 197 
L 878 575 
L 2303 2003 
L 878 3438 
L 1247 3816 
L 2681 2381 
L 4116 3816 
L 4488 3438 
z
" transform="scale(0.015625)"/>
      </defs>
      <use xlink:href="#DejaVuSans-d7" transform="translate(0 0.684375)"/>
      <use xlink:href="#DejaVuSans-31" transform="translate(83.789062 0.684375)"/>
      <use xlink:href="#DejaVuSans-30" transform="translate(147.412109 0.684375)"/>
      <use xlink:href="#DejaVuSans-31" transform="translate(211.992188 38.965625) scale(0.7)"/>
     </g>
    </g>
   </g>
   <g id="line2d_31">
    <path d="M 142.83912 253.223476 
L 64.738397 286.176475 
L 280.68464 195.062384 
L 56.637281 289.594575 
L 79.499031 279.948528 
L 268.477408 200.212975 
L 110.368928 266.923608 
L 143.405682 252.984427 
L 91.893275 274.719031 
L 60.98996 287.758051 
L 53.187003 291.050349 
L 40.135741 296.557062 
L 40.325833 296.476856 
L 75.814144 281.50329 
L 97.504398 272.351532 
L 153.544642 248.7065 
L 40.381146 296.453518 
L 44.871958 294.558712 
L 200.048779 229.085033 
L 261.971993 202.957802 
L 77.553126 280.769563 
L 271.312868 199.016611 
L 70.958804 283.551902 
L 42.755375 295.45176 
L 257.582914 204.809684 
L 173.43998 240.31207 
L 31.09165 300.37303 
L 330.26617 174.142473 
L 70.591032 283.707076 
L 94.913029 273.444908 
L 59.658787 288.319712 
L 39.271893 296.921544 
L 65.328332 285.927564 
L 44.454031 294.735047 
L 42.525991 295.548545 
L 40.115273 296.565698 
L 77.015439 280.996429 
L 250.948909 207.608766 
L 234.056194 214.736301 
L 19.882262 305.102602 
L 85.38888 277.463427 
L 76.588189 281.176698 
L 81.842721 278.959656 
L 293.606039 189.610464 
L 51.73366 291.663557 
L 131.002033 258.217892 
L 103.890443 269.657072 
L 124.313685 261.039903 
L 252.581666 206.919858 
L 325.861576 176.000901 
L 78.9654 280.173682 
L 80.80828 279.396117 
L 336.121531 171.671924 
L 233.803968 214.842722 
L 82.941388 278.496096 
L 285.757446 192.922017 
L 302.394668 185.902282 
L 205.721414 226.69158 
L 92.944231 274.275601 
L 300.448683 186.723351 
L 36.284852 298.181865 
L 40.934623 296.21999 
L 113.763306 265.491419 
L 64.521002 286.2682 
L 113.983939 265.398328 
L 69.851537 284.01909 
L 38.521442 297.238182 
L 36.048667 298.281518 
L 141.486893 253.79402 
L 152.627951 249.093279 
L 191.054193 232.880114 
L 180.07235 237.513677 
L 296.861128 188.237046 
L 60.570696 287.934951 
L 83.727138 278.164565 
L 38.911436 297.073632 
L 69.987536 283.961708 
L 24.476077 303.164336 
L 82.439948 278.707668 
L 142.081377 253.54319 
L 349.513276 166.021551 
L 51.854291 291.61266 
L 120.989575 262.442443 
L 104.418968 269.434072 
L 43.246493 295.244544 
L 215.397506 222.608952 
L 259.808181 203.870777 
L 43.225478 295.25341 
L 112.025217 266.224771 
L 44.366291 294.772068 
L 37.200942 297.79534 
L 43.466724 295.151622 
L 283.279867 193.967381 
L 135.77918 256.202273 
L 270.566152 199.331672 
L 32.110314 299.943226 
L 98.499123 271.931828 
L 80.022027 279.727861 
L 298.850757 187.397563 
L 236.368171 213.760809 
L 180.934177 237.150047 
L 139.060701 254.817702 
L 259.240905 204.110128 
L 90.974571 275.106659 
L 37.468472 297.682461 
L 48.028665 293.226804 
L 38.670483 297.175297 
L 46.461052 293.888226 
L 43.510633 295.133095 
L 45.303535 294.376617 
L 122.443705 261.828903 
L 248.964379 208.446098 
L 69.06964 284.348996 
L 121.12316 262.38608 
L 150.021556 250.192994 
L 246.143127 209.636467 
" clip-path="url(#pce444e8372)" style="fill: none; stroke: #000000; stroke-opacity: 0.5; stroke-width: 1.5; stroke-linecap: square"/>
   </g>
   <g id="line2d_32">
    <path d="M 142.83912 214.468725 
L 64.738397 247.421724 
L 280.68464 156.307633 
L 56.637281 250.839824 
L 79.499031 241.193777 
L 268.477408 161.458224 
L 110.368928 228.168857 
L 143.405682 214.229676 
L 91.893275 235.96428 
L 60.98996 249.0033 
L 53.187003 252.295598 
L 40.135741 257.802311 
L 40.325833 257.722105 
L 75.814144 242.74854 
L 97.504398 233.596782 
L 153.544642 209.951749 
L 40.381146 257.698767 
L 44.871958 255.803961 
L 200.048779 190.330282 
L 261.971993 164.203051 
L 77.553126 242.014812 
L 271.312868 160.26186 
L 70.958804 244.797151 
L 42.755375 256.69701 
L 257.582914 166.054933 
L 173.43998 201.557319 
L 31.09165 261.61828 
L 330.26617 135.387722 
L 70.591032 244.952325 
L 94.913029 234.690157 
L 59.658787 249.564961 
L 39.271893 258.166793 
L 65.328332 247.172813 
L 44.454031 255.980297 
L 42.525991 256.793794 
L 40.115273 257.810947 
L 77.015439 242.241678 
L 250.948909 168.854015 
L 234.056194 175.98155 
L 19.882262 266.347851 
L 85.38888 238.708676 
L 76.588189 242.421947 
L 81.842721 240.204905 
L 293.606039 150.855713 
L 51.73366 252.908807 
L 131.002033 219.463141 
L 103.890443 230.902321 
L 124.313685 222.285152 
L 252.581666 168.165107 
L 325.861576 137.24615 
L 78.9654 241.418932 
L 80.80828 240.641367 
L 336.121531 132.917173 
L 233.803968 176.087972 
L 82.941388 239.741345 
L 285.757446 154.167266 
L 302.394668 147.147531 
L 205.721414 187.93683 
L 92.944231 235.520851 
L 300.448683 147.9686 
L 36.284852 259.427114 
L 40.934623 257.465239 
L 113.763306 226.736668 
L 64.521002 247.513449 
L 113.983939 226.643577 
L 69.851537 245.264339 
L 38.521442 258.483431 
L 36.048667 259.526768 
L 141.486893 215.039269 
L 152.627951 210.338528 
L 191.054193 194.125363 
L 180.07235 198.758926 
L 296.861128 149.482295 
L 60.570696 249.1802 
L 83.727138 239.409814 
L 38.911436 258.318881 
L 69.987536 245.206957 
L 24.476077 264.409585 
L 82.439948 239.952918 
L 142.081377 214.788439 
L 349.513276 127.2668 
L 51.854291 252.857909 
L 120.989575 223.687693 
L 104.418968 230.679321 
L 43.246493 256.489793 
L 215.397506 183.854201 
L 259.808181 165.116027 
L 43.225478 256.498659 
L 112.025217 227.47002 
L 44.366291 256.017317 
L 37.200942 259.040589 
L 43.466724 256.396871 
L 283.279867 155.21263 
L 135.77918 217.447522 
L 270.566152 160.576922 
L 32.110314 261.188475 
L 98.499123 233.177078 
L 80.022027 240.97311 
L 298.850757 148.642812 
L 236.368171 175.006059 
L 180.934177 198.395296 
L 139.060701 216.062951 
L 259.240905 165.355377 
L 90.974571 236.351908 
L 37.468472 258.92771 
L 48.028665 254.472053 
L 38.670483 258.420546 
L 46.461052 255.133475 
L 43.510633 256.378344 
L 45.303535 255.621866 
L 122.443705 223.074152 
L 248.964379 169.691347 
L 69.06964 245.594245 
L 121.12316 223.631329 
L 150.021556 211.438243 
L 246.143127 170.881716 
" clip-path="url(#pce444e8372)" style="fill: none; stroke-dasharray: 5.55,2.4; stroke-dashoffset: 0; stroke: #0000ff; stroke-width: 1.5"/>
   </g>
   <g id="line2d_33">
    <path d="M 142.83912 291.978227 
L 64.738397 324.931226 
L 280.68464 233.817135 
L 56.637281 328.349326 
L 79.499031 318.703279 
L 268.477408 238.967726 
L 110.368928 305.678358 
L 143.405682 291.739177 
L 91.893275 313.473781 
L 60.98996 326.512802 
L 53.187003 329.8051 
L 40.135741 335.311812 
L 40.325833 335.231607 
L 75.814144 320.258041 
L 97.504398 311.106283 
L 153.544642 287.461251 
L 40.381146 335.208269 
L 44.871958 333.313463 
L 200.048779 267.839783 
L 261.971993 241.712552 
L 77.553126 319.524314 
L 271.312868 237.771361 
L 70.958804 322.306653 
L 42.755375 334.206511 
L 257.582914 243.564434 
L 173.43998 279.066821 
L 34.748585 337.584812 
M 34.748585 337.584812 
L 330.26617 212.897224 
L 70.591032 322.461827 
L 94.913029 312.199658 
L 59.658787 327.074463 
L 39.271893 335.676295 
L 65.328332 324.682315 
L 44.454031 333.489798 
L 42.525991 334.303295 
L 40.115273 335.320448 
L 77.015439 319.75118 
L 250.948909 246.363517 
L 234.056194 253.491052 
L 34.748585 337.584812 
M 34.748585 337.584812 
L 85.38888 316.218178 
L 76.588189 319.931449 
L 81.842721 317.714407 
L 293.606039 228.365215 
L 51.73366 330.418308 
L 131.002033 296.972643 
L 103.890443 308.411823 
L 124.313685 299.794654 
L 252.581666 245.674608 
L 325.861576 214.755652 
L 78.9654 318.928433 
L 80.80828 318.150868 
L 336.121531 210.426675 
L 233.803968 253.597473 
L 82.941388 317.250847 
L 285.757446 231.676768 
L 302.394668 224.657033 
L 205.721414 265.446331 
L 92.944231 313.030352 
L 300.448683 225.478102 
L 36.284852 336.936616 
L 40.934623 334.97474 
L 113.763306 304.24617 
L 64.521002 325.022951 
L 113.983939 304.153079 
L 69.851537 322.773841 
L 38.521442 335.992933 
L 36.048667 337.036269 
L 141.486893 292.548771 
L 152.627951 287.84803 
L 191.054193 271.634864 
L 180.07235 276.268428 
L 296.861128 226.991797 
L 60.570696 326.689702 
L 83.727138 316.919316 
L 38.911436 335.828383 
L 69.987536 322.716459 
L 34.748585 337.584812 
M 34.748585 337.584812 
L 82.439948 317.462419 
L 142.081377 292.29794 
L 349.513276 204.776302 
L 51.854291 330.36741 
L 120.989575 301.197194 
L 104.418968 308.188822 
L 43.246493 333.999294 
L 215.397506 261.363703 
L 259.808181 242.625528 
L 43.225478 334.008161 
L 112.025217 304.979521 
L 44.366291 333.526818 
L 37.200942 336.550091 
L 43.466724 333.906372 
L 283.279867 232.722131 
L 135.77918 294.957023 
L 270.566152 238.086423 
L 34.748585 337.584812 
M 34.748585 337.584812 
L 98.499123 310.686579 
L 80.022027 318.482611 
L 298.850757 226.152314 
L 236.368171 252.51556 
L 180.934177 275.904798 
L 139.060701 293.572453 
L 259.240905 242.864879 
L 90.974571 313.86141 
L 37.468472 336.437212 
L 48.028665 331.981555 
L 38.670483 335.930048 
L 46.461052 332.642977 
L 43.510633 333.887846 
L 45.303535 333.131367 
L 122.443705 300.583654 
L 248.964379 247.200849 
L 69.06964 323.103747 
L 121.12316 301.140831 
L 150.021556 288.947745 
L 246.143127 248.391218 
" clip-path="url(#pce444e8372)" style="fill: none; stroke-dasharray: 5.55,2.4; stroke-dashoffset: 0; stroke: #0000ff; stroke-width: 1.5"/>
   </g>
   <g id="line2d_34">
    <path d="M 312.525609 140.245143 
L 54.353533 249.175559 
L 104.99375 227.808957 
L 199.716275 187.84273 
L 51.294697 250.466173 
L 38.176681 256.00105 
L 55.133907 248.846296 
L 167.623144 201.383768 
L 40.668869 254.949523 
L 138.258597 213.773537 
L 84.924898 236.276598 
L 77.430962 239.438511 
L 48.502436 251.644309 
L 77.630228 239.354435 
L 34.395653 257.596378 
L 59.196438 247.132194 
L 182.658534 195.039893 
L 107.121931 226.911015 
L 141.094445 212.577009 
L 40.079278 255.198288 
L 168.273603 201.10932 
L 286.121403 151.385857 
L 79.556236 238.541795 
L 87.788069 235.068542 
L 302.506252 144.472605 
L 270.166175 158.117838 
L 265.061032 160.271848 
L 289.529148 149.948028 
L 38.816952 255.730901 
L 103.194542 228.568096 
L 373.706893 114.430954 
L 251.102416 166.1614 
L 247.774478 167.565555 
L 292.823684 148.557966 
L 134.882648 215.197949 
L 96.202444 231.518269 
L 42.520263 254.168365 
L 247.383662 167.730453 
L 91.687617 233.423208 
" clip-path="url(#pce444e8372)" style="fill: none; stroke-dasharray: 5.55,2.4; stroke-dashoffset: 0; stroke: #008000; stroke-width: 1.5"/>
   </g>
   <g id="line2d_35">
    <path d="M 312.525609 223.010336 
L 54.353533 331.940752 
L 104.99375 310.57415 
L 199.716275 270.607922 
L 51.294697 333.231365 
L 40.976747 337.584812 
M 40.976747 337.584812 
L 55.133907 331.611489 
L 167.623144 284.148961 
L 40.976747 337.584812 
M 40.976747 337.584812 
L 138.258597 296.53873 
L 84.924898 319.041791 
L 77.430962 322.203704 
L 48.502436 334.409502 
L 77.630228 322.119627 
L 40.976747 337.584812 
M 40.976747 337.584812 
L 59.196438 329.897387 
L 182.658534 277.805086 
L 107.121931 309.676208 
L 141.094445 295.342202 
L 40.976747 337.584812 
M 40.976747 337.584812 
L 168.273603 283.874513 
L 286.121403 234.151049 
L 79.556236 321.306988 
L 87.788069 317.833735 
L 302.506252 227.237798 
L 270.166175 240.883031 
L 265.061032 243.037041 
L 289.529148 232.713221 
L 40.976747 337.584812 
M 40.976747 337.584812 
L 103.194542 311.333289 
L 373.706893 197.196147 
L 251.102416 248.926593 
L 247.774478 250.330748 
L 292.823684 231.323159 
L 134.882648 297.963142 
L 96.202444 314.283462 
L 42.520263 336.933558 
L 247.383662 250.495645 
L 91.687617 316.1884 
" clip-path="url(#pce444e8372)" style="fill: none; stroke-dasharray: 5.55,2.4; stroke-dashoffset: 0; stroke: #008000; stroke-width: 1.5"/>
   </g>
   <g id="patch_3">
    <path d="M 34.278125 299.028562 
L 34.278125 32.916562 
" style="fill: none; stroke: #000000; stroke-width: 0.8; stroke-linejoin: miter; stroke-linecap: square"/>
   </g>
   <g id="patch_4">
    <path d="M 391.398125 299.028562 
L 391.398125 32.916562 
" style="fill: none; stroke: #000000; stroke-width: 0.8; stroke-linejoin: miter; stroke-linecap: square"/>
   </g>
   <g id="patch_5">
    <path d="M 34.278125 299.028562 
L 391.398125 299.028562 
" style="fill: none; stroke: #000000; stroke-width: 0.8; stroke-linejoin: miter; stroke-linecap: square"/>
   </g>
   <g id="patch_6">
    <path d="M 34.278125 32.916562 
L 391.398125 32.916562 
" style="fill: none; stroke: #000000; stroke-width: 0.8; stroke-linejoin: miter; stroke-linecap: square"/>
   </g>
   <g id="text_19">
    <!-- Support Vector Machine R-square plot Standard Scaler -->
    <g transform="translate(49.502188 16.318125) scale(0.12 -0.12)">
     <defs>
      <path id="DejaVuSans-53" d="M 3425 4513 
L 3425 3897 
Q 3066 4069 2747 4153 
Q 2428 4238 2131 4238 
Q 1616 4238 1336 4038 
Q 1056 3838 1056 3469 
Q 1056 3159 1242 3001 
Q 1428 2844 1947 2747 
L 2328 2669 
Q 3034 2534 3370 2195 
Q 3706 1856 3706 1288 
Q 3706 609 3251 259 
Q 2797 -91 1919 -91 
Q 1588 -91 1214 -16 
Q 841 59 441 206 
L 441 856 
Q 825 641 1194 531 
Q 1563 422 1919 422 
Q 2459 422 2753 634 
Q 3047 847 3047 1241 
Q 3047 1584 2836 1778 
Q 2625 1972 2144 2069 
L 1759 2144 
Q 1053 2284 737 2584 
Q 422 2884 422 3419 
Q 422 4038 858 4394 
Q 1294 4750 2059 4750 
Q 2388 4750 2728 4690 
Q 3069 4631 3425 4513 
z
" transform="scale(0.015625)"/>
      <path id="DejaVuSans-20" transform="scale(0.015625)"/>
      <path id="DejaVuSans-56" d="M 1831 0 
L 50 4666 
L 709 4666 
L 2188 738 
L 3669 4666 
L 4325 4666 
L 2547 0 
L 1831 0 
z
" transform="scale(0.015625)"/>
      <path id="DejaVuSans-4d" d="M 628 4666 
L 1569 4666 
L 2759 1491 
L 3956 4666 
L 4897 4666 
L 4897 0 
L 4281 0 
L 4281 4097 
L 3078 897 
L 2444 897 
L 1241 4097 
L 1241 0 
L 628 0 
L 628 4666 
z
" transform="scale(0.015625)"/>
      <path id="DejaVuSans-68" d="M 3513 2113 
L 3513 0 
L 2938 0 
L 2938 2094 
Q 2938 2591 2744 2837 
Q 2550 3084 2163 3084 
Q 1697 3084 1428 2787 
Q 1159 2491 1159 1978 
L 1159 0 
L 581 0 
L 581 4863 
L 1159 4863 
L 1159 2956 
Q 1366 3272 1645 3428 
Q 1925 3584 2291 3584 
Q 2894 3584 3203 3211 
Q 3513 2838 3513 2113 
z
" transform="scale(0.015625)"/>
      <path id="DejaVuSans-52" d="M 2841 2188 
Q 3044 2119 3236 1894 
Q 3428 1669 3622 1275 
L 4263 0 
L 3584 0 
L 2988 1197 
Q 2756 1666 2539 1819 
Q 2322 1972 1947 1972 
L 1259 1972 
L 1259 0 
L 628 0 
L 628 4666 
L 2053 4666 
Q 2853 4666 3247 4331 
Q 3641 3997 3641 3322 
Q 3641 2881 3436 2590 
Q 3231 2300 2841 2188 
z
M 1259 4147 
L 1259 2491 
L 2053 2491 
Q 2509 2491 2742 2702 
Q 2975 2913 2975 3322 
Q 2975 3731 2742 3939 
Q 2509 4147 2053 4147 
L 1259 4147 
z
" transform="scale(0.015625)"/>
      <path id="DejaVuSans-2d" d="M 313 2009 
L 1997 2009 
L 1997 1497 
L 313 1497 
L 313 2009 
z
" transform="scale(0.015625)"/>
      <path id="DejaVuSans-73" d="M 2834 3397 
L 2834 2853 
Q 2591 2978 2328 3040 
Q 2066 3103 1784 3103 
Q 1356 3103 1142 2972 
Q 928 2841 928 2578 
Q 928 2378 1081 2264 
Q 1234 2150 1697 2047 
L 1894 2003 
Q 2506 1872 2764 1633 
Q 3022 1394 3022 966 
Q 3022 478 2636 193 
Q 2250 -91 1575 -91 
Q 1294 -91 989 -36 
Q 684 19 347 128 
L 347 722 
Q 666 556 975 473 
Q 1284 391 1588 391 
Q 1994 391 2212 530 
Q 2431 669 2431 922 
Q 2431 1156 2273 1281 
Q 2116 1406 1581 1522 
L 1381 1569 
Q 847 1681 609 1914 
Q 372 2147 372 2553 
Q 372 3047 722 3315 
Q 1072 3584 1716 3584 
Q 2034 3584 2315 3537 
Q 2597 3491 2834 3397 
z
" transform="scale(0.015625)"/>
      <path id="DejaVuSans-71" d="M 947 1747 
Q 947 1113 1208 752 
Q 1469 391 1925 391 
Q 2381 391 2643 752 
Q 2906 1113 2906 1747 
Q 2906 2381 2643 2742 
Q 2381 3103 1925 3103 
Q 1469 3103 1208 2742 
Q 947 2381 947 1747 
z
M 2906 525 
Q 2725 213 2448 61 
Q 2172 -91 1784 -91 
Q 1150 -91 751 415 
Q 353 922 353 1747 
Q 353 2572 751 3078 
Q 1150 3584 1784 3584 
Q 2172 3584 2448 3432 
Q 2725 3281 2906 2969 
L 2906 3500 
L 3481 3500 
L 3481 -1331 
L 2906 -1331 
L 2906 525 
z
" transform="scale(0.015625)"/>
     </defs>
     <use xlink:href="#DejaVuSans-53"/>
     <use xlink:href="#DejaVuSans-75" x="63.476562"/>
     <use xlink:href="#DejaVuSans-70" x="126.855469"/>
     <use xlink:href="#DejaVuSans-70" x="190.332031"/>
     <use xlink:href="#DejaVuSans-6f" x="253.808594"/>
     <use xlink:href="#DejaVuSans-72" x="314.990234"/>
     <use xlink:href="#DejaVuSans-74" x="356.103516"/>
     <use xlink:href="#DejaVuSans-20" x="395.3125"/>
     <use xlink:href="#DejaVuSans-56" x="427.099609"/>
     <use xlink:href="#DejaVuSans-65" x="487.757812"/>
     <use xlink:href="#DejaVuSans-63" x="549.28125"/>
     <use xlink:href="#DejaVuSans-74" x="604.261719"/>
     <use xlink:href="#DejaVuSans-6f" x="643.470703"/>
     <use xlink:href="#DejaVuSans-72" x="704.652344"/>
     <use xlink:href="#DejaVuSans-20" x="745.765625"/>
     <use xlink:href="#DejaVuSans-4d" x="777.552734"/>
     <use xlink:href="#DejaVuSans-61" x="863.832031"/>
     <use xlink:href="#DejaVuSans-63" x="925.111328"/>
     <use xlink:href="#DejaVuSans-68" x="980.091797"/>
     <use xlink:href="#DejaVuSans-69" x="1043.470703"/>
     <use xlink:href="#DejaVuSans-6e" x="1071.253906"/>
     <use xlink:href="#DejaVuSans-65" x="1134.632812"/>
     <use xlink:href="#DejaVuSans-20" x="1196.15625"/>
     <use xlink:href="#DejaVuSans-52" x="1227.943359"/>
     <use xlink:href="#DejaVuSans-2d" x="1293.425781"/>
     <use xlink:href="#DejaVuSans-73" x="1329.509766"/>
     <use xlink:href="#DejaVuSans-71" x="1381.609375"/>
     <use xlink:href="#DejaVuSans-75" x="1445.085938"/>
     <use xlink:href="#DejaVuSans-61" x="1508.464844"/>
     <use xlink:href="#DejaVuSans-72" x="1569.744141"/>
     <use xlink:href="#DejaVuSans-65" x="1608.607422"/>
     <use xlink:href="#DejaVuSans-20" x="1670.130859"/>
     <use xlink:href="#DejaVuSans-70" x="1701.917969"/>
     <use xlink:href="#DejaVuSans-6c" x="1765.394531"/>
     <use xlink:href="#DejaVuSans-6f" x="1793.177734"/>
     <use xlink:href="#DejaVuSans-74" x="1854.359375"/>
     <use xlink:href="#DejaVuSans-20" x="1893.568359"/>
     <use xlink:href="#DejaVuSans-53" x="1925.355469"/>
     <use xlink:href="#DejaVuSans-74" x="1988.832031"/>
     <use xlink:href="#DejaVuSans-61" x="2028.041016"/>
     <use xlink:href="#DejaVuSans-6e" x="2089.320312"/>
     <use xlink:href="#DejaVuSans-64" x="2152.699219"/>
     <use xlink:href="#DejaVuSans-61" x="2216.175781"/>
     <use xlink:href="#DejaVuSans-72" x="2277.455078"/>
     <use xlink:href="#DejaVuSans-64" x="2316.818359"/>
     <use xlink:href="#DejaVuSans-20" x="2380.294922"/>
     <use xlink:href="#DejaVuSans-53" x="2412.082031"/>
     <use xlink:href="#DejaVuSans-63" x="2475.558594"/>
     <use xlink:href="#DejaVuSans-61" x="2530.539062"/>
     <use xlink:href="#DejaVuSans-6c" x="2591.818359"/>
     <use xlink:href="#DejaVuSans-65" x="2619.601562"/>
     <use xlink:href="#DejaVuSans-72" x="2681.125"/>
    </g>
   </g>
   <g id="legend_1">
    <g id="patch_7">
     <path d="M 41.278125 70.272812 
L 203.876563 70.272812 
Q 205.876563 70.272812 205.876563 68.272812 
L 205.876563 39.916562 
Q 205.876563 37.916562 203.876563 37.916562 
L 41.278125 37.916562 
Q 39.278125 37.916562 39.278125 39.916562 
L 39.278125 68.272812 
Q 39.278125 70.272812 41.278125 70.272812 
z
" style="fill: #ffffff; opacity: 0.8; stroke: #cccccc; stroke-linejoin: miter"/>
    </g>
    <g id="PathCollection_3">
     <g>
      <use xlink:href="#m19ed0db924" x="53.278125" y="46.89" style="fill: #0000ff; fill-opacity: 0.5; stroke: #0000ff; stroke-opacity: 0.5"/>
     </g>
    </g>
    <g id="text_20">
     <!-- Train R-squared = 72.64% -->
     <g transform="translate(71.278125 49.515) scale(0.1 -0.1)">
      <defs>
       <path id="DejaVuSans-54" d="M -19 4666 
L 3928 4666 
L 3928 4134 
L 2272 4134 
L 2272 0 
L 1638 0 
L 1638 4134 
L -19 4134 
L -19 4666 
z
" transform="scale(0.015625)"/>
       <path id="DejaVuSans-3d" d="M 678 2906 
L 4684 2906 
L 4684 2381 
L 678 2381 
L 678 2906 
z
M 678 1631 
L 4684 1631 
L 4684 1100 
L 678 1100 
L 678 1631 
z
" transform="scale(0.015625)"/>
       <path id="DejaVuSans-37" d="M 525 4666 
L 3525 4666 
L 3525 4397 
L 1831 0 
L 1172 0 
L 2766 4134 
L 525 4134 
L 525 4666 
z
" transform="scale(0.015625)"/>
       <path id="DejaVuSans-2e" d="M 684 794 
L 1344 794 
L 1344 0 
L 684 0 
L 684 794 
z
" transform="scale(0.015625)"/>
       <path id="DejaVuSans-25" d="M 4653 2053 
Q 4381 2053 4226 1822 
Q 4072 1591 4072 1178 
Q 4072 772 4226 539 
Q 4381 306 4653 306 
Q 4919 306 5073 539 
Q 5228 772 5228 1178 
Q 5228 1588 5073 1820 
Q 4919 2053 4653 2053 
z
M 4653 2450 
Q 5147 2450 5437 2106 
Q 5728 1763 5728 1178 
Q 5728 594 5436 251 
Q 5144 -91 4653 -91 
Q 4153 -91 3862 251 
Q 3572 594 3572 1178 
Q 3572 1766 3864 2108 
Q 4156 2450 4653 2450 
z
M 1428 4353 
Q 1159 4353 1004 4120 
Q 850 3888 850 3481 
Q 850 3069 1003 2837 
Q 1156 2606 1428 2606 
Q 1700 2606 1854 2837 
Q 2009 3069 2009 3481 
Q 2009 3884 1853 4118 
Q 1697 4353 1428 4353 
z
M 4250 4750 
L 4750 4750 
L 1831 -91 
L 1331 -91 
L 4250 4750 
z
M 1428 4750 
Q 1922 4750 2215 4408 
Q 2509 4066 2509 3481 
Q 2509 2891 2217 2550 
Q 1925 2209 1428 2209 
Q 931 2209 642 2551 
Q 353 2894 353 3481 
Q 353 4063 643 4406 
Q 934 4750 1428 4750 
z
" transform="scale(0.015625)"/>
      </defs>
      <use xlink:href="#DejaVuSans-54"/>
      <use xlink:href="#DejaVuSans-72" x="46.333984"/>
      <use xlink:href="#DejaVuSans-61" x="87.447266"/>
      <use xlink:href="#DejaVuSans-69" x="148.726562"/>
      <use xlink:href="#DejaVuSans-6e" x="176.509766"/>
      <use xlink:href="#DejaVuSans-20" x="239.888672"/>
      <use xlink:href="#DejaVuSans-52" x="271.675781"/>
      <use xlink:href="#DejaVuSans-2d" x="337.158203"/>
      <use xlink:href="#DejaVuSans-73" x="373.242188"/>
      <use xlink:href="#DejaVuSans-71" x="425.341797"/>
      <use xlink:href="#DejaVuSans-75" x="488.818359"/>
      <use xlink:href="#DejaVuSans-61" x="552.197266"/>
      <use xlink:href="#DejaVuSans-72" x="613.476562"/>
      <use xlink:href="#DejaVuSans-65" x="652.339844"/>
      <use xlink:href="#DejaVuSans-64" x="713.863281"/>
      <use xlink:href="#DejaVuSans-20" x="777.339844"/>
      <use xlink:href="#DejaVuSans-3d" x="809.126953"/>
      <use xlink:href="#DejaVuSans-20" x="892.916016"/>
      <use xlink:href="#DejaVuSans-37" x="924.703125"/>
      <use xlink:href="#DejaVuSans-32" x="988.326172"/>
      <use xlink:href="#DejaVuSans-2e" x="1051.949219"/>
      <use xlink:href="#DejaVuSans-36" x="1083.736328"/>
      <use xlink:href="#DejaVuSans-34" x="1147.359375"/>
      <use xlink:href="#DejaVuSans-25" x="1210.982422"/>
     </g>
    </g>
    <g id="PathCollection_4">
     <g>
      <use xlink:href="#m73d85af58b" x="53.278125" y="61.568125" style="fill: #008000; fill-opacity: 0.5; stroke: #008000; stroke-opacity: 0.5"/>
     </g>
    </g>
    <g id="text_21">
     <!-- Test R-squared = 72.97% -->
     <g transform="translate(71.278125 64.193125) scale(0.1 -0.1)">
      <defs>
       <path id="DejaVuSans-39" d="M 703 97 
L 703 672 
Q 941 559 1184 500 
Q 1428 441 1663 441 
Q 2288 441 2617 861 
Q 2947 1281 2994 2138 
Q 2813 1869 2534 1725 
Q 2256 1581 1919 1581 
Q 1219 1581 811 2004 
Q 403 2428 403 3163 
Q 403 3881 828 4315 
Q 1253 4750 1959 4750 
Q 2769 4750 3195 4129 
Q 3622 3509 3622 2328 
Q 3622 1225 3098 567 
Q 2575 -91 1691 -91 
Q 1453 -91 1209 -44 
Q 966 3 703 97 
z
M 1959 2075 
Q 2384 2075 2632 2365 
Q 2881 2656 2881 3163 
Q 2881 3666 2632 3958 
Q 2384 4250 1959 4250 
Q 1534 4250 1286 3958 
Q 1038 3666 1038 3163 
Q 1038 2656 1286 2365 
Q 1534 2075 1959 2075 
z
" transform="scale(0.015625)"/>
      </defs>
      <use xlink:href="#DejaVuSans-54"/>
      <use xlink:href="#DejaVuSans-65" x="44.083984"/>
      <use xlink:href="#DejaVuSans-73" x="105.607422"/>
      <use xlink:href="#DejaVuSans-74" x="157.707031"/>
      <use xlink:href="#DejaVuSans-20" x="196.916016"/>
      <use xlink:href="#DejaVuSans-52" x="228.703125"/>
      <use xlink:href="#DejaVuSans-2d" x="294.185547"/>
      <use xlink:href="#DejaVuSans-73" x="330.269531"/>
      <use xlink:href="#DejaVuSans-71" x="382.369141"/>
      <use xlink:href="#DejaVuSans-75" x="445.845703"/>
      <use xlink:href="#DejaVuSans-61" x="509.224609"/>
      <use xlink:href="#DejaVuSans-72" x="570.503906"/>
      <use xlink:href="#DejaVuSans-65" x="609.367188"/>
      <use xlink:href="#DejaVuSans-64" x="670.890625"/>
      <use xlink:href="#DejaVuSans-20" x="734.367188"/>
      <use xlink:href="#DejaVuSans-3d" x="766.154297"/>
      <use xlink:href="#DejaVuSans-20" x="849.943359"/>
      <use xlink:href="#DejaVuSans-37" x="881.730469"/>
      <use xlink:href="#DejaVuSans-32" x="945.353516"/>
      <use xlink:href="#DejaVuSans-2e" x="1008.976562"/>
      <use xlink:href="#DejaVuSans-39" x="1040.763672"/>
      <use xlink:href="#DejaVuSans-37" x="1104.386719"/>
      <use xlink:href="#DejaVuSans-25" x="1168.009766"/>
     </g>
    </g>
   </g>
  </g>
 </g>
 <defs>
  <clipPath id="pce444e8372">
   <rect x="34.278125" y="32.916562" width="357.12" height="266.112"/>
  </clipPath>
 </defs>
</svg>
