<?xml version="1.0" encoding="utf-8" standalone="no"?>
<!DOCTYPE svg PUBLIC "-//W3C//DTD SVG 1.1//EN"
  "http://www.w3.org/Graphics/SVG/1.1/DTD/svg11.dtd">
<svg xmlns:xlink="http://www.w3.org/1999/xlink" width="460.8pt" height="345.6pt" viewBox="0 0 460.8 345.6" xmlns="http://www.w3.org/2000/svg" version="1.1">
 <metadata>
  <rdf:RDF xmlns:dc="http://purl.org/dc/elements/1.1/" xmlns:cc="http://creativecommons.org/ns#" xmlns:rdf="http://www.w3.org/1999/02/22-rdf-syntax-ns#">
   <cc:Work>
    <dc:type rdf:resource="http://purl.org/dc/dcmitype/StillImage"/>
    <dc:date>2024-04-22T00:40:12.395468</dc:date>
    <dc:format>image/svg+xml</dc:format>
    <dc:creator>
     <cc:Agent>
      <dc:title>Matplotlib v3.7.0, https://matplotlib.org/</dc:title>
     </cc:Agent>
    </dc:creator>
   </cc:Work>
  </rdf:RDF>
 </metadata>
 <defs>
  <style type="text/css">*{stroke-linejoin: round; stroke-linecap: butt}</style>
 </defs>
 <g id="figure_1">
  <g id="patch_1">
   <path d="M 0 345.6 
L 460.8 345.6 
L 460.8 0 
L 0 0 
L 0 345.6 
z
" style="fill: none"/>
  </g>
  <g id="axes_1"/>
  <g id="axes_2">
   <g id="patch_2">
    <path d="M 57.6 307.584 
L 414.72 307.584 
L 414.72 41.472 
L 57.6 41.472 
L 57.6 307.584 
z
" style="fill: none"/>
   </g>
   <g id="PathCollection_1">
    <path d="M 94.259771 304.896 
L 94.255149 302.208 
L 94.250538 299.52 
L 94.245939 296.832 
L 94.241351 294.144 
L 94.236775 291.456 
L 94.23221 288.768 
L 94.227656 286.08 
L 94.223114 283.392 
L 94.218583 280.704 
L 94.214064 278.016 
L 94.209556 275.328 
L 94.205059 272.64 
L 94.200574 269.952 
L 94.1961 267.264 
L 94.191638 264.576 
L 94.187187 261.888 
L 94.182747 259.2 
L 94.178319 256.512 
L 94.173902 253.824 
L 94.169496 251.136 
L 94.165102 248.448 
L 94.160719 245.76 
L 94.156348 243.072 
L 94.151988 240.384 
L 94.147639 237.696 
L 94.143302 235.008 
L 94.138976 232.32 
L 94.134662 229.632 
L 94.130359 226.944 
L 94.126067 224.256 
L 94.121787 221.568 
L 94.117518 218.88 
L 94.113261 216.192 
L 94.109015 213.504 
L 94.10478 210.816 
L 94.100557 208.128 
L 94.096345 205.44 
L 94.092144 202.752 
L 94.087955 200.064 
L 94.083778 197.376 
L 94.079611 194.688 
L 94.075456 192 
L 94.071313 189.312 
L 94.067181 186.624 
L 94.06306 183.936 
L 94.05895 181.248 
L 94.054852 178.56 
L 94.050766 175.872 
L 94.046691 173.184 
L 94.042627 170.496 
L 94.038574 167.808 
L 94.034533 165.12 
L 94.030504 162.432 
L 94.026485 159.744 
L 94.022478 157.056 
L 94.018483 154.368 
L 94.014499 151.68 
L 94.010526 148.992 
L 94.006565 146.304 
L 94.002615 143.616 
L 93.998676 140.928 
L 93.994749 138.24 
L 93.990833 135.552 
L 93.986929 132.864 
L 93.983036 130.176 
L 93.979155 127.488 
L 93.975284 124.8 
L 93.971426 122.112 
L 93.967578 119.424 
L 93.963742 116.736 
L 93.959917 114.048 
L 93.956104 111.36 
L 93.952302 108.672 
L 93.948512 105.984 
L 93.944733 103.296 
L 93.940965 100.608 
L 93.937209 97.92 
L 93.933464 95.232 
L 93.92973 92.544 
L 93.926008 89.856 
L 93.922298 87.168 
L 93.918598 84.48 
L 93.91491 81.792 
L 93.911234 79.104 
L 93.907568 76.416 
L 93.903915 73.728 
L 93.900272 71.04 
L 93.896641 68.352 
L 93.893022 65.664 
L 93.889413 62.976 
L 93.885817 60.288 
L 93.882231 57.6 
L 93.878657 54.912 
L 93.875094 52.224 
L 93.871543 49.536 
L 93.868003 46.848 
L 93.864475 44.16 
L 93.860958 41.472 
L 57.6 41.472 
L 57.6 44.16 
L 57.6 46.848 
L 57.6 49.536 
L 57.6 52.224 
L 57.6 54.912 
L 57.6 57.6 
L 57.6 60.288 
L 57.6 62.976 
L 57.6 65.664 
L 57.6 68.352 
L 57.6 71.04 
L 57.6 73.728 
L 57.6 76.416 
L 57.6 79.104 
L 57.6 81.792 
L 57.6 84.48 
L 57.6 87.168 
L 57.6 89.856 
L 57.6 92.544 
L 57.6 95.232 
L 57.6 97.92 
L 57.6 100.608 
L 57.6 103.296 
L 57.6 105.984 
L 57.6 108.672 
L 57.6 111.36 
L 57.6 114.048 
L 57.6 116.736 
L 57.6 119.424 
L 57.6 122.112 
L 57.6 124.8 
L 57.6 127.488 
L 57.6 130.176 
L 57.6 132.864 
L 57.6 135.552 
L 57.6 138.24 
L 57.6 140.928 
L 57.6 143.616 
L 57.6 146.304 
L 57.6 148.992 
L 57.6 151.68 
L 57.6 154.368 
L 57.6 157.056 
L 57.6 159.744 
L 57.6 162.432 
L 57.6 165.12 
L 57.6 167.808 
L 57.6 170.496 
L 57.6 173.184 
L 57.6 175.872 
L 57.6 178.56 
L 57.6 181.248 
L 57.6 183.936 
L 57.6 186.624 
L 57.6 189.312 
L 57.6 192 
L 57.6 194.688 
L 57.6 197.376 
L 57.6 200.064 
L 57.6 202.752 
L 57.6 205.44 
L 57.6 208.128 
L 57.6 210.816 
L 57.6 213.504 
L 57.6 216.192 
L 57.6 218.88 
L 57.6 221.568 
L 57.6 224.256 
L 57.6 226.944 
L 57.6 229.632 
L 57.6 232.32 
L 57.6 235.008 
L 57.6 237.696 
L 57.6 240.384 
L 57.6 243.072 
L 57.6 245.76 
L 57.6 248.448 
L 57.6 251.136 
L 57.6 253.824 
L 57.6 256.512 
L 57.6 259.2 
L 57.6 261.888 
L 57.6 264.576 
L 57.6 267.264 
L 57.6 269.952 
L 57.6 272.64 
L 57.6 275.328 
L 57.6 278.016 
L 57.6 280.704 
L 57.6 283.392 
L 57.6 286.08 
L 57.6 288.768 
L 57.6 291.456 
L 57.6 294.144 
L 57.6 296.832 
L 57.6 299.52 
L 57.6 302.208 
L 57.6 304.896 
L 57.6 307.584 
L 94.264404 307.584 
z
" clip-path="url(#pebafce685f)" style="fill: #481b6d; fill-opacity: 0.75"/>
   </g>
   <g id="PathCollection_2">
    <path d="M 129.024 307.584 
L 148.450447 307.584 
L 148.445709 304.896 
L 148.440983 302.208 
L 148.436268 299.52 
L 148.431565 296.832 
L 148.426874 294.144 
L 148.422195 291.456 
L 148.417527 288.768 
L 148.412871 286.08 
L 148.408226 283.392 
L 148.403593 280.704 
L 148.398972 278.016 
L 148.394363 275.328 
L 148.389765 272.64 
L 148.385179 269.952 
L 148.380604 267.264 
L 148.376042 264.576 
L 148.371491 261.888 
L 148.366951 259.2 
L 148.362423 256.512 
L 148.357907 253.824 
L 148.353403 251.136 
L 148.34891 248.448 
L 148.344429 245.76 
L 148.33996 243.072 
L 148.335502 240.384 
L 148.331056 237.696 
L 148.326622 235.008 
L 148.322199 232.32 
L 148.317788 229.632 
L 148.313389 226.944 
L 148.309001 224.256 
L 148.304625 221.568 
L 148.300261 218.88 
L 148.295908 216.192 
L 148.291567 213.504 
L 148.287238 210.816 
L 148.282921 208.128 
L 148.278615 205.44 
L 148.27432 202.752 
L 148.270038 200.064 
L 148.265767 197.376 
L 148.261508 194.688 
L 148.25726 192 
L 148.253024 189.312 
L 148.2488 186.624 
L 148.244588 183.936 
L 148.240387 181.248 
L 148.236198 178.56 
L 148.23202 175.872 
L 148.227854 173.184 
L 148.2237 170.496 
L 148.219558 167.808 
L 148.215427 165.12 
L 148.211308 162.432 
L 148.2072 159.744 
L 148.203105 157.056 
L 148.199021 154.368 
L 148.194948 151.68 
L 148.190887 148.992 
L 148.186838 146.304 
L 148.182801 143.616 
L 148.178775 140.928 
L 148.174761 138.24 
L 148.170759 135.552 
L 148.166768 132.864 
L 148.162789 130.176 
L 148.158822 127.488 
L 148.154866 124.8 
L 148.150922 122.112 
L 148.14699 119.424 
L 148.143069 116.736 
L 148.13916 114.048 
L 148.135263 111.36 
L 148.131377 108.672 
L 148.127503 105.984 
L 148.123641 103.296 
L 148.11979 100.608 
L 148.115951 97.92 
L 148.112124 95.232 
L 148.108309 92.544 
L 148.104505 89.856 
L 148.100712 87.168 
L 148.096932 84.48 
L 148.093163 81.792 
L 148.089406 79.104 
L 148.08566 76.416 
L 148.081926 73.728 
L 148.078204 71.04 
L 148.074494 68.352 
L 148.070795 65.664 
L 148.067108 62.976 
L 148.063432 60.288 
L 148.059768 57.6 
L 148.056116 54.912 
L 148.052476 52.224 
L 148.048847 49.536 
L 148.04523 46.848 
L 148.041624 44.16 
L 148.038031 41.472 
L 129.024 41.472 
L 93.860958 41.472 
L 93.864475 44.16 
L 93.868003 46.848 
L 93.871543 49.536 
L 93.875094 52.224 
L 93.878657 54.912 
L 93.882231 57.6 
L 93.885817 60.288 
L 93.889413 62.976 
L 93.893022 65.664 
L 93.896641 68.352 
L 93.900272 71.04 
L 93.903915 73.728 
L 93.907568 76.416 
L 93.911234 79.104 
L 93.91491 81.792 
L 93.918598 84.48 
L 93.922298 87.168 
L 93.926008 89.856 
L 93.92973 92.544 
L 93.933464 95.232 
L 93.937209 97.92 
L 93.940965 100.608 
L 93.944733 103.296 
L 93.948512 105.984 
L 93.952302 108.672 
L 93.956104 111.36 
L 93.959917 114.048 
L 93.963742 116.736 
L 93.967578 119.424 
L 93.971426 122.112 
L 93.975284 124.8 
L 93.979155 127.488 
L 93.983036 130.176 
L 93.986929 132.864 
L 93.990833 135.552 
L 93.994749 138.24 
L 93.998676 140.928 
L 94.002615 143.616 
L 94.006565 146.304 
L 94.010526 148.992 
L 94.014499 151.68 
L 94.018483 154.368 
L 94.022478 157.056 
L 94.026485 159.744 
L 94.030504 162.432 
L 94.034533 165.12 
L 94.038574 167.808 
L 94.042627 170.496 
L 94.046691 173.184 
L 94.050766 175.872 
L 94.054852 178.56 
L 94.05895 181.248 
L 94.06306 183.936 
L 94.067181 186.624 
L 94.071313 189.312 
L 94.075456 192 
L 94.079611 194.688 
L 94.083778 197.376 
L 94.087955 200.064 
L 94.092144 202.752 
L 94.096345 205.44 
L 94.100557 208.128 
L 94.10478 210.816 
L 94.109015 213.504 
L 94.113261 216.192 
L 94.117518 218.88 
L 94.121787 221.568 
L 94.126067 224.256 
L 94.130359 226.944 
L 94.134662 229.632 
L 94.138976 232.32 
L 94.143302 235.008 
L 94.147639 237.696 
L 94.151988 240.384 
L 94.156348 243.072 
L 94.160719 245.76 
L 94.165102 248.448 
L 94.169496 251.136 
L 94.173902 253.824 
L 94.178319 256.512 
L 94.182747 259.2 
L 94.187187 261.888 
L 94.191638 264.576 
L 94.1961 267.264 
L 94.200574 269.952 
L 94.205059 272.64 
L 94.209556 275.328 
L 94.214064 278.016 
L 94.218583 280.704 
L 94.223114 283.392 
L 94.227656 286.08 
L 94.23221 288.768 
L 94.236775 291.456 
L 94.241351 294.144 
L 94.245939 296.832 
L 94.250538 299.52 
L 94.255149 302.208 
L 94.259771 304.896 
L 94.264404 307.584 
z
" clip-path="url(#pebafce685f)" style="fill: #3f4788; fill-opacity: 0.75"/>
   </g>
   <g id="PathCollection_3">
    <path d="M 200.448 307.584 
L 203.454785 307.584 
L 203.449937 304.896 
L 203.445101 302.208 
L 203.440277 299.52 
L 203.435464 296.832 
L 203.430664 294.144 
L 203.425876 291.456 
L 203.421099 288.768 
L 203.416335 286.08 
L 203.411582 283.392 
L 203.406842 280.704 
L 203.402113 278.016 
L 203.397397 275.328 
L 203.392692 272.64 
L 203.388 269.952 
L 203.383319 267.264 
L 203.378651 264.576 
L 203.373994 261.888 
L 203.369349 259.2 
L 203.364717 256.512 
L 203.360096 253.824 
L 203.355487 251.136 
L 203.35089 248.448 
L 203.346306 245.76 
L 203.341733 243.072 
L 203.337172 240.384 
L 203.332623 237.696 
L 203.328086 235.008 
L 203.323561 232.32 
L 203.319048 229.632 
L 203.314547 226.944 
L 203.310058 224.256 
L 203.305581 221.568 
L 203.301116 218.88 
L 203.296663 216.192 
L 203.292222 213.504 
L 203.287793 210.816 
L 203.283376 208.128 
L 203.278971 205.44 
L 203.274578 202.752 
L 203.270196 200.064 
L 203.265827 197.376 
L 203.26147 194.688 
L 203.257125 192 
L 203.252791 189.312 
L 203.24847 186.624 
L 203.244161 183.936 
L 203.239863 181.248 
L 203.235578 178.56 
L 203.231304 175.872 
L 203.227043 173.184 
L 203.222794 170.496 
L 203.218556 167.808 
L 203.21433 165.12 
L 203.210117 162.432 
L 203.205915 159.744 
L 203.201726 157.056 
L 203.197548 154.368 
L 203.193382 151.68 
L 203.189229 148.992 
L 203.185087 146.304 
L 203.180957 143.616 
L 203.17684 140.928 
L 203.172734 138.24 
L 203.16864 135.552 
L 203.164558 132.864 
L 203.160488 130.176 
L 203.15643 127.488 
L 203.152385 124.8 
L 203.148351 122.112 
L 203.144329 119.424 
L 203.140319 116.736 
L 203.136321 114.048 
L 203.132335 111.36 
L 203.128361 108.672 
L 203.124399 105.984 
L 203.120448 103.296 
L 203.11651 100.608 
L 203.112584 97.92 
L 203.10867 95.232 
L 203.104768 92.544 
L 203.100878 89.856 
L 203.096999 87.168 
L 203.093133 84.48 
L 203.089279 81.792 
L 203.085436 79.104 
L 203.081606 76.416 
L 203.077788 73.728 
L 203.073981 71.04 
L 203.070187 68.352 
L 203.066404 65.664 
L 203.062634 62.976 
L 203.058875 60.288 
L 203.055129 57.6 
L 203.051394 54.912 
L 203.047672 52.224 
L 203.043961 49.536 
L 203.040262 46.848 
L 203.036576 44.16 
L 203.032901 41.472 
L 200.448 41.472 
L 148.038031 41.472 
L 148.041624 44.16 
L 148.04523 46.848 
L 148.048847 49.536 
L 148.052476 52.224 
L 148.056116 54.912 
L 148.059768 57.6 
L 148.063432 60.288 
L 148.067108 62.976 
L 148.070795 65.664 
L 148.074494 68.352 
L 148.078204 71.04 
L 148.081926 73.728 
L 148.08566 76.416 
L 148.089406 79.104 
L 148.093163 81.792 
L 148.096932 84.48 
L 148.100712 87.168 
L 148.104505 89.856 
L 148.108309 92.544 
L 148.112124 95.232 
L 148.115951 97.92 
L 148.11979 100.608 
L 148.123641 103.296 
L 148.127503 105.984 
L 148.131377 108.672 
L 148.135263 111.36 
L 148.13916 114.048 
L 148.143069 116.736 
L 148.14699 119.424 
L 148.150922 122.112 
L 148.154866 124.8 
L 148.158822 127.488 
L 148.162789 130.176 
L 148.166768 132.864 
L 148.170759 135.552 
L 148.174761 138.24 
L 148.178775 140.928 
L 148.182801 143.616 
L 148.186838 146.304 
L 148.190887 148.992 
L 148.194948 151.68 
L 148.199021 154.368 
L 148.203105 157.056 
L 148.2072 159.744 
L 148.211308 162.432 
L 148.215427 165.12 
L 148.219558 167.808 
L 148.2237 170.496 
L 148.227854 173.184 
L 148.23202 175.872 
L 148.236198 178.56 
L 148.240387 181.248 
L 148.244588 183.936 
L 148.2488 186.624 
L 148.253024 189.312 
L 148.25726 192 
L 148.261508 194.688 
L 148.265767 197.376 
L 148.270038 200.064 
L 148.27432 202.752 
L 148.278615 205.44 
L 148.282921 208.128 
L 148.287238 210.816 
L 148.291567 213.504 
L 148.295908 216.192 
L 148.300261 218.88 
L 148.304625 221.568 
L 148.309001 224.256 
L 148.313389 226.944 
L 148.317788 229.632 
L 148.322199 232.32 
L 148.326622 235.008 
L 148.331056 237.696 
L 148.335502 240.384 
L 148.33996 243.072 
L 148.344429 245.76 
L 148.34891 248.448 
L 148.353403 251.136 
L 148.357907 253.824 
L 148.362423 256.512 
L 148.366951 259.2 
L 148.371491 261.888 
L 148.376042 264.576 
L 148.380604 267.264 
L 148.385179 269.952 
L 148.389765 272.64 
L 148.394363 275.328 
L 148.398972 278.016 
L 148.403593 280.704 
L 148.408226 283.392 
L 148.412871 286.08 
L 148.417527 288.768 
L 148.422195 291.456 
L 148.426874 294.144 
L 148.431565 296.832 
L 148.436268 299.52 
L 148.440983 302.208 
L 148.445709 304.896 
L 148.450447 307.584 
z
" clip-path="url(#pebafce685f)" style="fill: #2e6e8e; fill-opacity: 0.75"/>
   </g>
   <g id="PathCollection_4">
    <path d="M 259.619688 304.896 
L 259.614848 302.208 
L 259.610019 299.52 
L 259.605203 296.832 
L 259.600399 294.144 
L 259.595607 291.456 
L 259.590827 288.768 
L 259.586059 286.08 
L 259.581303 283.392 
L 259.576559 280.704 
L 259.571827 278.016 
L 259.567107 275.328 
L 259.562399 272.64 
L 259.557703 269.952 
L 259.553019 267.264 
L 259.548347 264.576 
L 259.543687 261.888 
L 259.539039 259.2 
L 259.534403 256.512 
L 259.529779 253.824 
L 259.525167 251.136 
L 259.520567 248.448 
L 259.51598 245.76 
L 259.511404 243.072 
L 259.50684 240.384 
L 259.502288 237.696 
L 259.497748 235.008 
L 259.49322 232.32 
L 259.488705 229.632 
L 259.484201 226.944 
L 259.479709 224.256 
L 259.475229 221.568 
L 259.470762 218.88 
L 259.466306 216.192 
L 259.461862 213.504 
L 259.457431 210.816 
L 259.453011 208.128 
L 259.448603 205.44 
L 259.444208 202.752 
L 259.439824 200.064 
L 259.435452 197.376 
L 259.431093 194.688 
L 259.426745 192 
L 259.42241 189.312 
L 259.418086 186.624 
L 259.413775 183.936 
L 259.409475 181.248 
L 259.405188 178.56 
L 259.400912 175.872 
L 259.396649 173.184 
L 259.392397 170.496 
L 259.388158 167.808 
L 259.38393 165.12 
L 259.379715 162.432 
L 259.375511 159.744 
L 259.37132 157.056 
L 259.367141 154.368 
L 259.362973 151.68 
L 259.358818 148.992 
L 259.354675 146.304 
L 259.350543 143.616 
L 259.346424 140.928 
L 259.342317 138.24 
L 259.338221 135.552 
L 259.334138 132.864 
L 259.330067 130.176 
L 259.326008 127.488 
L 259.32196 124.8 
L 259.317925 122.112 
L 259.313902 119.424 
L 259.309891 116.736 
L 259.305891 114.048 
L 259.301904 111.36 
L 259.297929 108.672 
L 259.293966 105.984 
L 259.290015 103.296 
L 259.286076 100.608 
L 259.282149 97.92 
L 259.278234 95.232 
L 259.274331 92.544 
L 259.27044 89.856 
L 259.266561 87.168 
L 259.262694 84.48 
L 259.258839 81.792 
L 259.254996 79.104 
L 259.251165 76.416 
L 259.247346 73.728 
L 259.243539 71.04 
L 259.239744 68.352 
L 259.235961 65.664 
L 259.23219 62.976 
L 259.228431 60.288 
L 259.224684 57.6 
L 259.220949 54.912 
L 259.217226 52.224 
L 259.213516 49.536 
L 259.209817 46.848 
L 259.20613 44.16 
L 259.202455 41.472 
L 203.032901 41.472 
L 203.036576 44.16 
L 203.040262 46.848 
L 203.043961 49.536 
L 203.047672 52.224 
L 203.051394 54.912 
L 203.055129 57.6 
L 203.058875 60.288 
L 203.062634 62.976 
L 203.066404 65.664 
L 203.070187 68.352 
L 203.073981 71.04 
L 203.077788 73.728 
L 203.081606 76.416 
L 203.085436 79.104 
L 203.089279 81.792 
L 203.093133 84.48 
L 203.096999 87.168 
L 203.100878 89.856 
L 203.104768 92.544 
L 203.10867 95.232 
L 203.112584 97.92 
L 203.11651 100.608 
L 203.120448 103.296 
L 203.124399 105.984 
L 203.128361 108.672 
L 203.132335 111.36 
L 203.136321 114.048 
L 203.140319 116.736 
L 203.144329 119.424 
L 203.148351 122.112 
L 203.152385 124.8 
L 203.15643 127.488 
L 203.160488 130.176 
L 203.164558 132.864 
L 203.16864 135.552 
L 203.172734 138.24 
L 203.17684 140.928 
L 203.180957 143.616 
L 203.185087 146.304 
L 203.189229 148.992 
L 203.193382 151.68 
L 203.197548 154.368 
L 203.201726 157.056 
L 203.205915 159.744 
L 203.210117 162.432 
L 203.21433 165.12 
L 203.218556 167.808 
L 203.222794 170.496 
L 203.227043 173.184 
L 203.231304 175.872 
L 203.235578 178.56 
L 203.239863 181.248 
L 203.244161 183.936 
L 203.24847 186.624 
L 203.252791 189.312 
L 203.257125 192 
L 203.26147 194.688 
L 203.265827 197.376 
L 203.270196 200.064 
L 203.274578 202.752 
L 203.278971 205.44 
L 203.283376 208.128 
L 203.287793 210.816 
L 203.292222 213.504 
L 203.296663 216.192 
L 203.301116 218.88 
L 203.305581 221.568 
L 203.310058 224.256 
L 203.314547 226.944 
L 203.319048 229.632 
L 203.323561 232.32 
L 203.328086 235.008 
L 203.332623 237.696 
L 203.337172 240.384 
L 203.341733 243.072 
L 203.346306 245.76 
L 203.35089 248.448 
L 203.355487 251.136 
L 203.360096 253.824 
L 203.364717 256.512 
L 203.369349 259.2 
L 203.373994 261.888 
L 203.378651 264.576 
L 203.383319 267.264 
L 203.388 269.952 
L 203.392692 272.64 
L 203.397397 275.328 
L 203.402113 278.016 
L 203.406842 280.704 
L 203.411582 283.392 
L 203.416335 286.08 
L 203.421099 288.768 
L 203.425876 291.456 
L 203.430664 294.144 
L 203.435464 296.832 
L 203.440277 299.52 
L 203.445101 302.208 
L 203.449937 304.896 
L 203.454785 307.584 
L 259.62454 307.584 
z
" clip-path="url(#pebafce685f)" style="fill: #21908d; fill-opacity: 0.75"/>
   </g>
   <g id="PathCollection_5">
    <path d="M 271.872 307.584 
L 316.813988 307.584 
L 316.809019 304.896 
L 316.804063 302.208 
L 316.799119 299.52 
L 316.794187 296.832 
L 316.789268 294.144 
L 316.784361 291.456 
L 316.779467 288.768 
L 316.774584 286.08 
L 316.769714 283.392 
L 316.764857 280.704 
L 316.760011 278.016 
L 316.755178 275.328 
L 316.750358 272.64 
L 316.745549 269.952 
L 316.740754 267.264 
L 316.73597 264.576 
L 316.731199 261.888 
L 316.72644 259.2 
L 316.721693 256.512 
L 316.716959 253.824 
L 316.712237 251.136 
L 316.707527 248.448 
L 316.70283 245.76 
L 316.698145 243.072 
L 316.693472 240.384 
L 316.688812 237.696 
L 316.684164 235.008 
L 316.679528 232.32 
L 316.674905 229.632 
L 316.670294 226.944 
L 316.665695 224.256 
L 316.661109 221.568 
L 316.656535 218.88 
L 316.651973 216.192 
L 316.647424 213.504 
L 316.642887 210.816 
L 316.638362 208.128 
L 316.63385 205.44 
L 316.62935 202.752 
L 316.624862 200.064 
L 316.620387 197.376 
L 316.615924 194.688 
L 316.611473 192 
L 316.607035 189.312 
L 316.602609 186.624 
L 316.598196 183.936 
L 316.593794 181.248 
L 316.589405 178.56 
L 316.585029 175.872 
L 316.580664 173.184 
L 316.576312 170.496 
L 316.571973 167.808 
L 316.567645 165.12 
L 316.56333 162.432 
L 316.559028 159.744 
L 316.554737 157.056 
L 316.550459 154.368 
L 316.546194 151.68 
L 316.54194 148.992 
L 316.537699 146.304 
L 316.533471 143.616 
L 316.529254 140.928 
L 316.52505 138.24 
L 316.520859 135.552 
L 316.516679 132.864 
L 316.512512 130.176 
L 316.508358 127.488 
L 316.504215 124.8 
L 316.500085 122.112 
L 316.495968 119.424 
L 316.491862 116.736 
L 316.487769 114.048 
L 316.483689 111.36 
L 316.47962 108.672 
L 316.475564 105.984 
L 316.471521 103.296 
L 316.467489 100.608 
L 316.46347 97.92 
L 316.459464 95.232 
L 316.455469 92.544 
L 316.451487 89.856 
L 316.447518 87.168 
L 316.44356 84.48 
L 316.439615 81.792 
L 316.435683 79.104 
L 316.431762 76.416 
L 316.427854 73.728 
L 316.423959 71.04 
L 316.420075 68.352 
L 316.416204 65.664 
L 316.412345 62.976 
L 316.408499 60.288 
L 316.404665 57.6 
L 316.400843 54.912 
L 316.397034 52.224 
L 316.393237 49.536 
L 316.389452 46.848 
L 316.38568 44.16 
L 316.38192 41.472 
L 271.872 41.472 
L 259.202455 41.472 
L 259.20613 44.16 
L 259.209817 46.848 
L 259.213516 49.536 
L 259.217226 52.224 
L 259.220949 54.912 
L 259.224684 57.6 
L 259.228431 60.288 
L 259.23219 62.976 
L 259.235961 65.664 
L 259.239744 68.352 
L 259.243539 71.04 
L 259.247346 73.728 
L 259.251165 76.416 
L 259.254996 79.104 
L 259.258839 81.792 
L 259.262694 84.48 
L 259.266561 87.168 
L 259.27044 89.856 
L 259.274331 92.544 
L 259.278234 95.232 
L 259.282149 97.92 
L 259.286076 100.608 
L 259.290015 103.296 
L 259.293966 105.984 
L 259.297929 108.672 
L 259.301904 111.36 
L 259.305891 114.048 
L 259.309891 116.736 
L 259.313902 119.424 
L 259.317925 122.112 
L 259.32196 124.8 
L 259.326008 127.488 
L 259.330067 130.176 
L 259.334138 132.864 
L 259.338221 135.552 
L 259.342317 138.24 
L 259.346424 140.928 
L 259.350543 143.616 
L 259.354675 146.304 
L 259.358818 148.992 
L 259.362973 151.68 
L 259.367141 154.368 
L 259.37132 157.056 
L 259.375511 159.744 
L 259.379715 162.432 
L 259.38393 165.12 
L 259.388158 167.808 
L 259.392397 170.496 
L 259.396649 173.184 
L 259.400912 175.872 
L 259.405188 178.56 
L 259.409475 181.248 
L 259.413775 183.936 
L 259.418086 186.624 
L 259.42241 189.312 
L 259.426745 192 
L 259.431093 194.688 
L 259.435452 197.376 
L 259.439824 200.064 
L 259.444208 202.752 
L 259.448603 205.44 
L 259.453011 208.128 
L 259.457431 210.816 
L 259.461862 213.504 
L 259.466306 216.192 
L 259.470762 218.88 
L 259.475229 221.568 
L 259.479709 224.256 
L 259.484201 226.944 
L 259.488705 229.632 
L 259.49322 232.32 
L 259.497748 235.008 
L 259.502288 237.696 
L 259.50684 240.384 
L 259.511404 243.072 
L 259.51598 245.76 
L 259.520567 248.448 
L 259.525167 251.136 
L 259.529779 253.824 
L 259.534403 256.512 
L 259.539039 259.2 
L 259.543687 261.888 
L 259.548347 264.576 
L 259.553019 267.264 
L 259.557703 269.952 
L 259.562399 272.64 
L 259.567107 275.328 
L 259.571827 278.016 
L 259.576559 280.704 
L 259.581303 283.392 
L 259.586059 286.08 
L 259.590827 288.768 
L 259.595607 291.456 
L 259.600399 294.144 
L 259.605203 296.832 
L 259.610019 299.52 
L 259.614848 302.208 
L 259.619688 304.896 
L 259.62454 307.584 
z
" clip-path="url(#pebafce685f)" style="fill: #2db27d; fill-opacity: 0.75"/>
   </g>
   <g id="PathCollection_6">
    <path d="M 343.296 307.584 
L 375.033344 307.584 
L 375.028252 304.896 
L 375.023173 302.208 
L 375.018107 299.52 
L 375.013053 296.832 
L 375.008012 294.144 
L 375.002983 291.456 
L 374.997967 288.768 
L 374.992964 286.08 
L 374.987974 283.392 
L 374.982996 280.704 
L 374.978031 278.016 
L 374.973078 275.328 
L 374.968139 272.64 
L 374.963211 269.952 
L 374.958297 267.264 
L 374.953395 264.576 
L 374.948506 261.888 
L 374.94363 259.2 
L 374.938766 256.512 
L 374.933915 253.824 
L 374.929076 251.136 
L 374.924251 248.448 
L 374.919438 245.76 
L 374.914637 243.072 
L 374.909849 240.384 
L 374.905074 237.696 
L 374.900312 235.008 
L 374.895562 232.32 
L 374.890825 229.632 
L 374.886101 226.944 
L 374.881389 224.256 
L 374.87669 221.568 
L 374.872003 218.88 
L 374.86733 216.192 
L 374.862669 213.504 
L 374.85802 210.816 
L 374.853385 208.128 
L 374.848762 205.44 
L 374.844151 202.752 
L 374.839553 200.064 
L 374.834968 197.376 
L 374.830396 194.688 
L 374.825836 192 
L 374.821289 189.312 
L 374.816755 186.624 
L 374.812233 183.936 
L 374.807724 181.248 
L 374.803228 178.56 
L 374.798744 175.872 
L 374.794273 173.184 
L 374.789815 170.496 
L 374.785369 167.808 
L 374.780936 165.12 
L 374.776516 162.432 
L 374.772108 159.744 
L 374.767713 157.056 
L 374.763331 154.368 
L 374.758961 151.68 
L 374.754604 148.992 
L 374.75026 146.304 
L 374.745929 143.616 
L 374.74161 140.928 
L 374.737303 138.24 
L 374.73301 135.552 
L 374.728729 132.864 
L 374.72446 130.176 
L 374.720205 127.488 
L 374.715962 124.8 
L 374.711732 122.112 
L 374.707514 119.424 
L 374.703309 116.736 
L 374.699117 114.048 
L 374.694937 111.36 
L 374.69077 108.672 
L 374.686616 105.984 
L 374.682475 103.296 
L 374.678346 100.608 
L 374.674229 97.92 
L 374.670126 95.232 
L 374.666035 92.544 
L 374.661957 89.856 
L 374.657891 87.168 
L 374.653838 84.48 
L 374.649798 81.792 
L 374.645771 79.104 
L 374.641756 76.416 
L 374.637753 73.728 
L 374.633764 71.04 
L 374.629787 68.352 
L 374.625823 65.664 
L 374.621871 62.976 
L 374.617932 60.288 
L 374.614006 57.6 
L 374.610093 54.912 
L 374.606192 52.224 
L 374.602304 49.536 
L 374.598428 46.848 
L 374.594565 44.16 
L 374.590715 41.472 
L 343.296 41.472 
L 316.38192 41.472 
L 316.38568 44.16 
L 316.389452 46.848 
L 316.393237 49.536 
L 316.397034 52.224 
L 316.400843 54.912 
L 316.404665 57.6 
L 316.408499 60.288 
L 316.412345 62.976 
L 316.416204 65.664 
L 316.420075 68.352 
L 316.423959 71.04 
L 316.427854 73.728 
L 316.431762 76.416 
L 316.435683 79.104 
L 316.439615 81.792 
L 316.44356 84.48 
L 316.447518 87.168 
L 316.451487 89.856 
L 316.455469 92.544 
L 316.459464 95.232 
L 316.46347 97.92 
L 316.467489 100.608 
L 316.471521 103.296 
L 316.475564 105.984 
L 316.47962 108.672 
L 316.483689 111.36 
L 316.487769 114.048 
L 316.491862 116.736 
L 316.495968 119.424 
L 316.500085 122.112 
L 316.504215 124.8 
L 316.508358 127.488 
L 316.512512 130.176 
L 316.516679 132.864 
L 316.520859 135.552 
L 316.52505 138.24 
L 316.529254 140.928 
L 316.533471 143.616 
L 316.537699 146.304 
L 316.54194 148.992 
L 316.546194 151.68 
L 316.550459 154.368 
L 316.554737 157.056 
L 316.559028 159.744 
L 316.56333 162.432 
L 316.567645 165.12 
L 316.571973 167.808 
L 316.576312 170.496 
L 316.580664 173.184 
L 316.585029 175.872 
L 316.589405 178.56 
L 316.593794 181.248 
L 316.598196 183.936 
L 316.602609 186.624 
L 316.607035 189.312 
L 316.611473 192 
L 316.615924 194.688 
L 316.620387 197.376 
L 316.624862 200.064 
L 316.62935 202.752 
L 316.63385 205.44 
L 316.638362 208.128 
L 316.642887 210.816 
L 316.647424 213.504 
L 316.651973 216.192 
L 316.656535 218.88 
L 316.661109 221.568 
L 316.665695 224.256 
L 316.670294 226.944 
L 316.674905 229.632 
L 316.679528 232.32 
L 316.684164 235.008 
L 316.688812 237.696 
L 316.693472 240.384 
L 316.698145 243.072 
L 316.70283 245.76 
L 316.707527 248.448 
L 316.712237 251.136 
L 316.716959 253.824 
L 316.721693 256.512 
L 316.72644 259.2 
L 316.731199 261.888 
L 316.73597 264.576 
L 316.740754 267.264 
L 316.745549 269.952 
L 316.750358 272.64 
L 316.755178 275.328 
L 316.760011 278.016 
L 316.764857 280.704 
L 316.769714 283.392 
L 316.774584 286.08 
L 316.779467 288.768 
L 316.784361 291.456 
L 316.789268 294.144 
L 316.794187 296.832 
L 316.799119 299.52 
L 316.804063 302.208 
L 316.809019 304.896 
L 316.813988 307.584 
z
" clip-path="url(#pebafce685f)" style="fill: #73d056; fill-opacity: 0.75"/>
   </g>
   <g id="PathCollection_7">
    <path d="M 414.72 307.584 
L 414.72 304.896 
L 414.72 302.208 
L 414.72 299.52 
L 414.72 296.832 
L 414.72 294.144 
L 414.72 291.456 
L 414.72 288.768 
L 414.72 286.08 
L 414.72 283.392 
L 414.72 280.704 
L 414.72 278.016 
L 414.72 275.328 
L 414.72 272.64 
L 414.72 269.952 
L 414.72 267.264 
L 414.72 264.576 
L 414.72 261.888 
L 414.72 259.2 
L 414.72 256.512 
L 414.72 253.824 
L 414.72 251.136 
L 414.72 248.448 
L 414.72 245.76 
L 414.72 243.072 
L 414.72 240.384 
L 414.72 237.696 
L 414.72 235.008 
L 414.72 232.32 
L 414.72 229.632 
L 414.72 226.944 
L 414.72 224.256 
L 414.72 221.568 
L 414.72 218.88 
L 414.72 216.192 
L 414.72 213.504 
L 414.72 210.816 
L 414.72 208.128 
L 414.72 205.44 
L 414.72 202.752 
L 414.72 200.064 
L 414.72 197.376 
L 414.72 194.688 
L 414.72 192 
L 414.72 189.312 
L 414.72 186.624 
L 414.72 183.936 
L 414.72 181.248 
L 414.72 178.56 
L 414.72 175.872 
L 414.72 173.184 
L 414.72 170.496 
L 414.72 167.808 
L 414.72 165.12 
L 414.72 162.432 
L 414.72 159.744 
L 414.72 157.056 
L 414.72 154.368 
L 414.72 151.68 
L 414.72 148.992 
L 414.72 146.304 
L 414.72 143.616 
L 414.72 140.928 
L 414.72 138.24 
L 414.72 135.552 
L 414.72 132.864 
L 414.72 130.176 
L 414.72 127.488 
L 414.72 124.8 
L 414.72 122.112 
L 414.72 119.424 
L 414.72 116.736 
L 414.72 114.048 
L 414.72 111.36 
L 414.72 108.672 
L 414.72 105.984 
L 414.72 103.296 
L 414.72 100.608 
L 414.72 97.92 
L 414.72 95.232 
L 414.72 92.544 
L 414.72 89.856 
L 414.72 87.168 
L 414.72 84.48 
L 414.72 81.792 
L 414.72 79.104 
L 414.72 76.416 
L 414.72 73.728 
L 414.72 71.04 
L 414.72 68.352 
L 414.72 65.664 
L 414.72 62.976 
L 414.72 60.288 
L 414.72 57.6 
L 414.72 54.912 
L 414.72 52.224 
L 414.72 49.536 
L 414.72 46.848 
L 414.72 44.16 
L 414.72 41.472 
L 374.590715 41.472 
L 374.594565 44.16 
L 374.598428 46.848 
L 374.602304 49.536 
L 374.606192 52.224 
L 374.610093 54.912 
L 374.614006 57.6 
L 374.617932 60.288 
L 374.621871 62.976 
L 374.625823 65.664 
L 374.629787 68.352 
L 374.633764 71.04 
L 374.637753 73.728 
L 374.641756 76.416 
L 374.645771 79.104 
L 374.649798 81.792 
L 374.653838 84.48 
L 374.657891 87.168 
L 374.661957 89.856 
L 374.666035 92.544 
L 374.670126 95.232 
L 374.674229 97.92 
L 374.678346 100.608 
L 374.682475 103.296 
L 374.686616 105.984 
L 374.69077 108.672 
L 374.694937 111.36 
L 374.699117 114.048 
L 374.703309 116.736 
L 374.707514 119.424 
L 374.711732 122.112 
L 374.715962 124.8 
L 374.720205 127.488 
L 374.72446 130.176 
L 374.728729 132.864 
L 374.73301 135.552 
L 374.737303 138.24 
L 374.74161 140.928 
L 374.745929 143.616 
L 374.75026 146.304 
L 374.754604 148.992 
L 374.758961 151.68 
L 374.763331 154.368 
L 374.767713 157.056 
L 374.772108 159.744 
L 374.776516 162.432 
L 374.780936 165.12 
L 374.785369 167.808 
L 374.789815 170.496 
L 374.794273 173.184 
L 374.798744 175.872 
L 374.803228 178.56 
L 374.807724 181.248 
L 374.812233 183.936 
L 374.816755 186.624 
L 374.821289 189.312 
L 374.825836 192 
L 374.830396 194.688 
L 374.834968 197.376 
L 374.839553 200.064 
L 374.844151 202.752 
L 374.848762 205.44 
L 374.853385 208.128 
L 374.85802 210.816 
L 374.862669 213.504 
L 374.86733 216.192 
L 374.872003 218.88 
L 374.87669 221.568 
L 374.881389 224.256 
L 374.886101 226.944 
L 374.890825 229.632 
L 374.895562 232.32 
L 374.900312 235.008 
L 374.905074 237.696 
L 374.909849 240.384 
L 374.914637 243.072 
L 374.919438 245.76 
L 374.924251 248.448 
L 374.929076 251.136 
L 374.933915 253.824 
L 374.938766 256.512 
L 374.94363 259.2 
L 374.948506 261.888 
L 374.953395 264.576 
L 374.958297 267.264 
L 374.963211 269.952 
L 374.968139 272.64 
L 374.973078 275.328 
L 374.978031 278.016 
L 374.982996 280.704 
L 374.987974 283.392 
L 374.992964 286.08 
L 374.997967 288.768 
L 375.002983 291.456 
L 375.008012 294.144 
L 375.013053 296.832 
L 375.018107 299.52 
L 375.023173 302.208 
L 375.028252 304.896 
L 375.033344 307.584 
z
" clip-path="url(#pebafce685f)" style="fill: #d0e11c; fill-opacity: 0.75"/>
   </g>
   <g id="matplotlib.axis_1">
    <g id="xtick_1">
     <g id="line2d_1">
      <defs>
       <path id="m409d5fce04" d="M 0 0 
L 0 3.5 
" style="stroke: #000000; stroke-width: 0.8"/>
      </defs>
      <g>
       <use xlink:href="#m409d5fce04" x="57.6" y="307.584" style="stroke: #000000; stroke-width: 0.8"/>
      </g>
     </g>
     <g id="text_1">
      <!-- 1 -->
      <g transform="translate(54.41875 322.182437) scale(0.1 -0.1)">
       <defs>
        <path id="DejaVuSans-31" d="M 794 531 
L 1825 531 
L 1825 4091 
L 703 3866 
L 703 4441 
L 1819 4666 
L 2450 4666 
L 2450 531 
L 3481 531 
L 3481 0 
L 794 0 
L 794 531 
z
" transform="scale(0.015625)"/>
       </defs>
       <use xlink:href="#DejaVuSans-31"/>
      </g>
     </g>
    </g>
    <g id="xtick_2">
     <g id="line2d_2">
      <g>
       <use xlink:href="#m409d5fce04" x="129.024" y="307.584" style="stroke: #000000; stroke-width: 0.8"/>
      </g>
     </g>
     <g id="text_2">
      <!-- 2 -->
      <g transform="translate(125.84275 322.182437) scale(0.1 -0.1)">
       <defs>
        <path id="DejaVuSans-32" d="M 1228 531 
L 3431 531 
L 3431 0 
L 469 0 
L 469 531 
Q 828 903 1448 1529 
Q 2069 2156 2228 2338 
Q 2531 2678 2651 2914 
Q 2772 3150 2772 3378 
Q 2772 3750 2511 3984 
Q 2250 4219 1831 4219 
Q 1534 4219 1204 4116 
Q 875 4013 500 3803 
L 500 4441 
Q 881 4594 1212 4672 
Q 1544 4750 1819 4750 
Q 2544 4750 2975 4387 
Q 3406 4025 3406 3419 
Q 3406 3131 3298 2873 
Q 3191 2616 2906 2266 
Q 2828 2175 2409 1742 
Q 1991 1309 1228 531 
z
" transform="scale(0.015625)"/>
       </defs>
       <use xlink:href="#DejaVuSans-32"/>
      </g>
     </g>
    </g>
    <g id="xtick_3">
     <g id="line2d_3">
      <g>
       <use xlink:href="#m409d5fce04" x="200.448" y="307.584" style="stroke: #000000; stroke-width: 0.8"/>
      </g>
     </g>
     <g id="text_3">
      <!-- 3 -->
      <g transform="translate(197.26675 322.182437) scale(0.1 -0.1)">
       <defs>
        <path id="DejaVuSans-33" d="M 2597 2516 
Q 3050 2419 3304 2112 
Q 3559 1806 3559 1356 
Q 3559 666 3084 287 
Q 2609 -91 1734 -91 
Q 1441 -91 1130 -33 
Q 819 25 488 141 
L 488 750 
Q 750 597 1062 519 
Q 1375 441 1716 441 
Q 2309 441 2620 675 
Q 2931 909 2931 1356 
Q 2931 1769 2642 2001 
Q 2353 2234 1838 2234 
L 1294 2234 
L 1294 2753 
L 1863 2753 
Q 2328 2753 2575 2939 
Q 2822 3125 2822 3475 
Q 2822 3834 2567 4026 
Q 2313 4219 1838 4219 
Q 1578 4219 1281 4162 
Q 984 4106 628 3988 
L 628 4550 
Q 988 4650 1302 4700 
Q 1616 4750 1894 4750 
Q 2613 4750 3031 4423 
Q 3450 4097 3450 3541 
Q 3450 3153 3228 2886 
Q 3006 2619 2597 2516 
z
" transform="scale(0.015625)"/>
       </defs>
       <use xlink:href="#DejaVuSans-33"/>
      </g>
     </g>
    </g>
    <g id="xtick_4">
     <g id="line2d_4">
      <g>
       <use xlink:href="#m409d5fce04" x="271.872" y="307.584" style="stroke: #000000; stroke-width: 0.8"/>
      </g>
     </g>
     <g id="text_4">
      <!-- 4 -->
      <g transform="translate(268.69075 322.182437) scale(0.1 -0.1)">
       <defs>
        <path id="DejaVuSans-34" d="M 2419 4116 
L 825 1625 
L 2419 1625 
L 2419 4116 
z
M 2253 4666 
L 3047 4666 
L 3047 1625 
L 3713 1625 
L 3713 1100 
L 3047 1100 
L 3047 0 
L 2419 0 
L 2419 1100 
L 313 1100 
L 313 1709 
L 2253 4666 
z
" transform="scale(0.015625)"/>
       </defs>
       <use xlink:href="#DejaVuSans-34"/>
      </g>
     </g>
    </g>
    <g id="xtick_5">
     <g id="line2d_5">
      <g>
       <use xlink:href="#m409d5fce04" x="343.296" y="307.584" style="stroke: #000000; stroke-width: 0.8"/>
      </g>
     </g>
     <g id="text_5">
      <!-- 5 -->
      <g transform="translate(340.11475 322.182437) scale(0.1 -0.1)">
       <defs>
        <path id="DejaVuSans-35" d="M 691 4666 
L 3169 4666 
L 3169 4134 
L 1269 4134 
L 1269 2991 
Q 1406 3038 1543 3061 
Q 1681 3084 1819 3084 
Q 2600 3084 3056 2656 
Q 3513 2228 3513 1497 
Q 3513 744 3044 326 
Q 2575 -91 1722 -91 
Q 1428 -91 1123 -41 
Q 819 9 494 109 
L 494 744 
Q 775 591 1075 516 
Q 1375 441 1709 441 
Q 2250 441 2565 725 
Q 2881 1009 2881 1497 
Q 2881 1984 2565 2268 
Q 2250 2553 1709 2553 
Q 1456 2553 1204 2497 
Q 953 2441 691 2322 
L 691 4666 
z
" transform="scale(0.015625)"/>
       </defs>
       <use xlink:href="#DejaVuSans-35"/>
      </g>
     </g>
    </g>
    <g id="xtick_6">
     <g id="line2d_6">
      <g>
       <use xlink:href="#m409d5fce04" x="414.72" y="307.584" style="stroke: #000000; stroke-width: 0.8"/>
      </g>
     </g>
     <g id="text_6">
      <!-- 6 -->
      <g transform="translate(411.53875 322.182437) scale(0.1 -0.1)">
       <defs>
        <path id="DejaVuSans-36" d="M 2113 2584 
Q 1688 2584 1439 2293 
Q 1191 2003 1191 1497 
Q 1191 994 1439 701 
Q 1688 409 2113 409 
Q 2538 409 2786 701 
Q 3034 994 3034 1497 
Q 3034 2003 2786 2293 
Q 2538 2584 2113 2584 
z
M 3366 4563 
L 3366 3988 
Q 3128 4100 2886 4159 
Q 2644 4219 2406 4219 
Q 1781 4219 1451 3797 
Q 1122 3375 1075 2522 
Q 1259 2794 1537 2939 
Q 1816 3084 2150 3084 
Q 2853 3084 3261 2657 
Q 3669 2231 3669 1497 
Q 3669 778 3244 343 
Q 2819 -91 2113 -91 
Q 1303 -91 875 529 
Q 447 1150 447 2328 
Q 447 3434 972 4092 
Q 1497 4750 2381 4750 
Q 2619 4750 2861 4703 
Q 3103 4656 3366 4563 
z
" transform="scale(0.015625)"/>
       </defs>
       <use xlink:href="#DejaVuSans-36"/>
      </g>
     </g>
    </g>
    <g id="text_7">
     <!-- Parent Location -->
     <g transform="translate(197.420156 335.860562) scale(0.1 -0.1)">
      <defs>
       <path id="DejaVuSans-50" d="M 1259 4147 
L 1259 2394 
L 2053 2394 
Q 2494 2394 2734 2622 
Q 2975 2850 2975 3272 
Q 2975 3691 2734 3919 
Q 2494 4147 2053 4147 
L 1259 4147 
z
M 628 4666 
L 2053 4666 
Q 2838 4666 3239 4311 
Q 3641 3956 3641 3272 
Q 3641 2581 3239 2228 
Q 2838 1875 2053 1875 
L 1259 1875 
L 1259 0 
L 628 0 
L 628 4666 
z
" transform="scale(0.015625)"/>
       <path id="DejaVuSans-61" d="M 2194 1759 
Q 1497 1759 1228 1600 
Q 959 1441 959 1056 
Q 959 750 1161 570 
Q 1363 391 1709 391 
Q 2188 391 2477 730 
Q 2766 1069 2766 1631 
L 2766 1759 
L 2194 1759 
z
M 3341 1997 
L 3341 0 
L 2766 0 
L 2766 531 
Q 2569 213 2275 61 
Q 1981 -91 1556 -91 
Q 1019 -91 701 211 
Q 384 513 384 1019 
Q 384 1609 779 1909 
Q 1175 2209 1959 2209 
L 2766 2209 
L 2766 2266 
Q 2766 2663 2505 2880 
Q 2244 3097 1772 3097 
Q 1472 3097 1187 3025 
Q 903 2953 641 2809 
L 641 3341 
Q 956 3463 1253 3523 
Q 1550 3584 1831 3584 
Q 2591 3584 2966 3190 
Q 3341 2797 3341 1997 
z
" transform="scale(0.015625)"/>
       <path id="DejaVuSans-72" d="M 2631 2963 
Q 2534 3019 2420 3045 
Q 2306 3072 2169 3072 
Q 1681 3072 1420 2755 
Q 1159 2438 1159 1844 
L 1159 0 
L 581 0 
L 581 3500 
L 1159 3500 
L 1159 2956 
Q 1341 3275 1631 3429 
Q 1922 3584 2338 3584 
Q 2397 3584 2469 3576 
Q 2541 3569 2628 3553 
L 2631 2963 
z
" transform="scale(0.015625)"/>
       <path id="DejaVuSans-65" d="M 3597 1894 
L 3597 1613 
L 953 1613 
Q 991 1019 1311 708 
Q 1631 397 2203 397 
Q 2534 397 2845 478 
Q 3156 559 3463 722 
L 3463 178 
Q 3153 47 2828 -22 
Q 2503 -91 2169 -91 
Q 1331 -91 842 396 
Q 353 884 353 1716 
Q 353 2575 817 3079 
Q 1281 3584 2069 3584 
Q 2775 3584 3186 3129 
Q 3597 2675 3597 1894 
z
M 3022 2063 
Q 3016 2534 2758 2815 
Q 2500 3097 2075 3097 
Q 1594 3097 1305 2825 
Q 1016 2553 972 2059 
L 3022 2063 
z
" transform="scale(0.015625)"/>
       <path id="DejaVuSans-6e" d="M 3513 2113 
L 3513 0 
L 2938 0 
L 2938 2094 
Q 2938 2591 2744 2837 
Q 2550 3084 2163 3084 
Q 1697 3084 1428 2787 
Q 1159 2491 1159 1978 
L 1159 0 
L 581 0 
L 581 3500 
L 1159 3500 
L 1159 2956 
Q 1366 3272 1645 3428 
Q 1925 3584 2291 3584 
Q 2894 3584 3203 3211 
Q 3513 2838 3513 2113 
z
" transform="scale(0.015625)"/>
       <path id="DejaVuSans-74" d="M 1172 4494 
L 1172 3500 
L 2356 3500 
L 2356 3053 
L 1172 3053 
L 1172 1153 
Q 1172 725 1289 603 
Q 1406 481 1766 481 
L 2356 481 
L 2356 0 
L 1766 0 
Q 1100 0 847 248 
Q 594 497 594 1153 
L 594 3053 
L 172 3053 
L 172 3500 
L 594 3500 
L 594 4494 
L 1172 4494 
z
" transform="scale(0.015625)"/>
       <path id="DejaVuSans-20" transform="scale(0.015625)"/>
       <path id="DejaVuSans-4c" d="M 628 4666 
L 1259 4666 
L 1259 531 
L 3531 531 
L 3531 0 
L 628 0 
L 628 4666 
z
" transform="scale(0.015625)"/>
       <path id="DejaVuSans-6f" d="M 1959 3097 
Q 1497 3097 1228 2736 
Q 959 2375 959 1747 
Q 959 1119 1226 758 
Q 1494 397 1959 397 
Q 2419 397 2687 759 
Q 2956 1122 2956 1747 
Q 2956 2369 2687 2733 
Q 2419 3097 1959 3097 
z
M 1959 3584 
Q 2709 3584 3137 3096 
Q 3566 2609 3566 1747 
Q 3566 888 3137 398 
Q 2709 -91 1959 -91 
Q 1206 -91 779 398 
Q 353 888 353 1747 
Q 353 2609 779 3096 
Q 1206 3584 1959 3584 
z
" transform="scale(0.015625)"/>
       <path id="DejaVuSans-63" d="M 3122 3366 
L 3122 2828 
Q 2878 2963 2633 3030 
Q 2388 3097 2138 3097 
Q 1578 3097 1268 2742 
Q 959 2388 959 1747 
Q 959 1106 1268 751 
Q 1578 397 2138 397 
Q 2388 397 2633 464 
Q 2878 531 3122 666 
L 3122 134 
Q 2881 22 2623 -34 
Q 2366 -91 2075 -91 
Q 1284 -91 818 406 
Q 353 903 353 1747 
Q 353 2603 823 3093 
Q 1294 3584 2113 3584 
Q 2378 3584 2631 3529 
Q 2884 3475 3122 3366 
z
" transform="scale(0.015625)"/>
       <path id="DejaVuSans-69" d="M 603 3500 
L 1178 3500 
L 1178 0 
L 603 0 
L 603 3500 
z
M 603 4863 
L 1178 4863 
L 1178 4134 
L 603 4134 
L 603 4863 
z
" transform="scale(0.015625)"/>
      </defs>
      <use xlink:href="#DejaVuSans-50"/>
      <use xlink:href="#DejaVuSans-61" x="55.802734"/>
      <use xlink:href="#DejaVuSans-72" x="117.082031"/>
      <use xlink:href="#DejaVuSans-65" x="155.945312"/>
      <use xlink:href="#DejaVuSans-6e" x="217.46875"/>
      <use xlink:href="#DejaVuSans-74" x="280.847656"/>
      <use xlink:href="#DejaVuSans-20" x="320.056641"/>
      <use xlink:href="#DejaVuSans-4c" x="351.84375"/>
      <use xlink:href="#DejaVuSans-6f" x="405.806641"/>
      <use xlink:href="#DejaVuSans-63" x="466.988281"/>
      <use xlink:href="#DejaVuSans-61" x="521.96875"/>
      <use xlink:href="#DejaVuSans-74" x="583.248047"/>
      <use xlink:href="#DejaVuSans-69" x="622.457031"/>
      <use xlink:href="#DejaVuSans-6f" x="650.240234"/>
      <use xlink:href="#DejaVuSans-6e" x="711.421875"/>
     </g>
    </g>
   </g>
   <g id="matplotlib.axis_2">
    <g id="ytick_1">
     <g id="line2d_7">
      <defs>
       <path id="m57b1ca5749" d="M 0 0 
L -3.5 0 
" style="stroke: #000000; stroke-width: 0.8"/>
      </defs>
      <g>
       <use xlink:href="#m57b1ca5749" x="57.6" y="302.997214" style="stroke: #000000; stroke-width: 0.8"/>
      </g>
     </g>
     <g id="text_8">
      <!-- 0.05 -->
      <g transform="translate(28.334375 306.796433) scale(0.1 -0.1)">
       <defs>
        <path id="DejaVuSans-30" d="M 2034 4250 
Q 1547 4250 1301 3770 
Q 1056 3291 1056 2328 
Q 1056 1369 1301 889 
Q 1547 409 2034 409 
Q 2525 409 2770 889 
Q 3016 1369 3016 2328 
Q 3016 3291 2770 3770 
Q 2525 4250 2034 4250 
z
M 2034 4750 
Q 2819 4750 3233 4129 
Q 3647 3509 3647 2328 
Q 3647 1150 3233 529 
Q 2819 -91 2034 -91 
Q 1250 -91 836 529 
Q 422 1150 422 2328 
Q 422 3509 836 4129 
Q 1250 4750 2034 4750 
z
" transform="scale(0.015625)"/>
        <path id="DejaVuSans-2e" d="M 684 794 
L 1344 794 
L 1344 0 
L 684 0 
L 684 794 
z
" transform="scale(0.015625)"/>
       </defs>
       <use xlink:href="#DejaVuSans-30"/>
       <use xlink:href="#DejaVuSans-2e" x="63.623047"/>
       <use xlink:href="#DejaVuSans-30" x="95.410156"/>
       <use xlink:href="#DejaVuSans-35" x="159.033203"/>
      </g>
     </g>
    </g>
    <g id="ytick_2">
     <g id="line2d_8">
      <g>
       <use xlink:href="#m57b1ca5749" x="57.6" y="253.993089" style="stroke: #000000; stroke-width: 0.8"/>
      </g>
     </g>
     <g id="text_9">
      <!-- 0.10 -->
      <g transform="translate(28.334375 257.792308) scale(0.1 -0.1)">
       <use xlink:href="#DejaVuSans-30"/>
       <use xlink:href="#DejaVuSans-2e" x="63.623047"/>
       <use xlink:href="#DejaVuSans-31" x="95.410156"/>
       <use xlink:href="#DejaVuSans-30" x="159.033203"/>
      </g>
     </g>
    </g>
    <g id="ytick_3">
     <g id="line2d_9">
      <g>
       <use xlink:href="#m57b1ca5749" x="57.6" y="204.988964" style="stroke: #000000; stroke-width: 0.8"/>
      </g>
     </g>
     <g id="text_10">
      <!-- 0.15 -->
      <g transform="translate(28.334375 208.788183) scale(0.1 -0.1)">
       <use xlink:href="#DejaVuSans-30"/>
       <use xlink:href="#DejaVuSans-2e" x="63.623047"/>
       <use xlink:href="#DejaVuSans-31" x="95.410156"/>
       <use xlink:href="#DejaVuSans-35" x="159.033203"/>
      </g>
     </g>
    </g>
    <g id="ytick_4">
     <g id="line2d_10">
      <g>
       <use xlink:href="#m57b1ca5749" x="57.6" y="155.984839" style="stroke: #000000; stroke-width: 0.8"/>
      </g>
     </g>
     <g id="text_11">
      <!-- 0.20 -->
      <g transform="translate(28.334375 159.784058) scale(0.1 -0.1)">
       <use xlink:href="#DejaVuSans-30"/>
       <use xlink:href="#DejaVuSans-2e" x="63.623047"/>
       <use xlink:href="#DejaVuSans-32" x="95.410156"/>
       <use xlink:href="#DejaVuSans-30" x="159.033203"/>
      </g>
     </g>
    </g>
    <g id="ytick_5">
     <g id="line2d_11">
      <g>
       <use xlink:href="#m57b1ca5749" x="57.6" y="106.980714" style="stroke: #000000; stroke-width: 0.8"/>
      </g>
     </g>
     <g id="text_12">
      <!-- 0.25 -->
      <g transform="translate(28.334375 110.779933) scale(0.1 -0.1)">
       <use xlink:href="#DejaVuSans-30"/>
       <use xlink:href="#DejaVuSans-2e" x="63.623047"/>
       <use xlink:href="#DejaVuSans-32" x="95.410156"/>
       <use xlink:href="#DejaVuSans-35" x="159.033203"/>
      </g>
     </g>
    </g>
    <g id="ytick_6">
     <g id="line2d_12">
      <g>
       <use xlink:href="#m57b1ca5749" x="57.6" y="57.976589" style="stroke: #000000; stroke-width: 0.8"/>
      </g>
     </g>
     <g id="text_13">
      <!-- 0.30 -->
      <g transform="translate(28.334375 61.775808) scale(0.1 -0.1)">
       <use xlink:href="#DejaVuSans-30"/>
       <use xlink:href="#DejaVuSans-2e" x="63.623047"/>
       <use xlink:href="#DejaVuSans-33" x="95.410156"/>
       <use xlink:href="#DejaVuSans-30" x="159.033203"/>
      </g>
     </g>
    </g>
    <g id="text_14">
     <!-- Obesity Rate -->
     <g transform="translate(22.254687 206.679563) rotate(-90) scale(0.1 -0.1)">
      <defs>
       <path id="DejaVuSans-4f" d="M 2522 4238 
Q 1834 4238 1429 3725 
Q 1025 3213 1025 2328 
Q 1025 1447 1429 934 
Q 1834 422 2522 422 
Q 3209 422 3611 934 
Q 4013 1447 4013 2328 
Q 4013 3213 3611 3725 
Q 3209 4238 2522 4238 
z
M 2522 4750 
Q 3503 4750 4090 4092 
Q 4678 3434 4678 2328 
Q 4678 1225 4090 567 
Q 3503 -91 2522 -91 
Q 1538 -91 948 565 
Q 359 1222 359 2328 
Q 359 3434 948 4092 
Q 1538 4750 2522 4750 
z
" transform="scale(0.015625)"/>
       <path id="DejaVuSans-62" d="M 3116 1747 
Q 3116 2381 2855 2742 
Q 2594 3103 2138 3103 
Q 1681 3103 1420 2742 
Q 1159 2381 1159 1747 
Q 1159 1113 1420 752 
Q 1681 391 2138 391 
Q 2594 391 2855 752 
Q 3116 1113 3116 1747 
z
M 1159 2969 
Q 1341 3281 1617 3432 
Q 1894 3584 2278 3584 
Q 2916 3584 3314 3078 
Q 3713 2572 3713 1747 
Q 3713 922 3314 415 
Q 2916 -91 2278 -91 
Q 1894 -91 1617 61 
Q 1341 213 1159 525 
L 1159 0 
L 581 0 
L 581 4863 
L 1159 4863 
L 1159 2969 
z
" transform="scale(0.015625)"/>
       <path id="DejaVuSans-73" d="M 2834 3397 
L 2834 2853 
Q 2591 2978 2328 3040 
Q 2066 3103 1784 3103 
Q 1356 3103 1142 2972 
Q 928 2841 928 2578 
Q 928 2378 1081 2264 
Q 1234 2150 1697 2047 
L 1894 2003 
Q 2506 1872 2764 1633 
Q 3022 1394 3022 966 
Q 3022 478 2636 193 
Q 2250 -91 1575 -91 
Q 1294 -91 989 -36 
Q 684 19 347 128 
L 347 722 
Q 666 556 975 473 
Q 1284 391 1588 391 
Q 1994 391 2212 530 
Q 2431 669 2431 922 
Q 2431 1156 2273 1281 
Q 2116 1406 1581 1522 
L 1381 1569 
Q 847 1681 609 1914 
Q 372 2147 372 2553 
Q 372 3047 722 3315 
Q 1072 3584 1716 3584 
Q 2034 3584 2315 3537 
Q 2597 3491 2834 3397 
z
" transform="scale(0.015625)"/>
       <path id="DejaVuSans-79" d="M 2059 -325 
Q 1816 -950 1584 -1140 
Q 1353 -1331 966 -1331 
L 506 -1331 
L 506 -850 
L 844 -850 
Q 1081 -850 1212 -737 
Q 1344 -625 1503 -206 
L 1606 56 
L 191 3500 
L 800 3500 
L 1894 763 
L 2988 3500 
L 3597 3500 
L 2059 -325 
z
" transform="scale(0.015625)"/>
       <path id="DejaVuSans-52" d="M 2841 2188 
Q 3044 2119 3236 1894 
Q 3428 1669 3622 1275 
L 4263 0 
L 3584 0 
L 2988 1197 
Q 2756 1666 2539 1819 
Q 2322 1972 1947 1972 
L 1259 1972 
L 1259 0 
L 628 0 
L 628 4666 
L 2053 4666 
Q 2853 4666 3247 4331 
Q 3641 3997 3641 3322 
Q 3641 2881 3436 2590 
Q 3231 2300 2841 2188 
z
M 1259 4147 
L 1259 2491 
L 2053 2491 
Q 2509 2491 2742 2702 
Q 2975 2913 2975 3322 
Q 2975 3731 2742 3939 
Q 2509 4147 2053 4147 
L 1259 4147 
z
" transform="scale(0.015625)"/>
      </defs>
      <use xlink:href="#DejaVuSans-4f"/>
      <use xlink:href="#DejaVuSans-62" x="78.710938"/>
      <use xlink:href="#DejaVuSans-65" x="142.1875"/>
      <use xlink:href="#DejaVuSans-73" x="203.710938"/>
      <use xlink:href="#DejaVuSans-69" x="255.810547"/>
      <use xlink:href="#DejaVuSans-74" x="283.59375"/>
      <use xlink:href="#DejaVuSans-79" x="322.802734"/>
      <use xlink:href="#DejaVuSans-20" x="381.982422"/>
      <use xlink:href="#DejaVuSans-52" x="413.769531"/>
      <use xlink:href="#DejaVuSans-61" x="481.001953"/>
      <use xlink:href="#DejaVuSans-74" x="542.28125"/>
      <use xlink:href="#DejaVuSans-65" x="581.490234"/>
     </g>
    </g>
   </g>
   <g id="PathCollection_8"/>
   <g id="PathCollection_9">
    <path d="M 93.860958 41.472 
L 93.864475 44.16 
L 93.868003 46.848 
L 93.871543 49.536 
L 93.875094 52.224 
L 93.878657 54.912 
L 93.882231 57.6 
L 93.885817 60.288 
L 93.889413 62.976 
L 93.893022 65.664 
L 93.896641 68.352 
L 93.900272 71.04 
L 93.903915 73.728 
L 93.905085 74.589017 
" clip-path="url(#pebafce685f)" style="fill: none; stroke: #000000; stroke-width: 0.5"/>
    <path d="M 93.954886 110.498982 
L 93.956104 111.36 
L 93.959917 114.048 
L 93.963742 116.736 
L 93.967578 119.424 
L 93.971426 122.112 
L 93.975284 124.8 
L 93.979155 127.488 
L 93.983036 130.176 
L 93.986929 132.864 
L 93.990833 135.552 
L 93.994749 138.24 
L 93.998676 140.928 
L 94.002615 143.616 
L 94.006565 146.304 
L 94.010526 148.992 
L 94.014499 151.68 
L 94.018483 154.368 
L 94.022478 157.056 
L 94.026485 159.744 
L 94.030504 162.432 
L 94.034533 165.12 
L 94.038574 167.808 
L 94.042627 170.496 
L 94.046691 173.184 
L 94.050766 175.872 
L 94.054852 178.56 
L 94.05895 181.248 
L 94.06306 183.936 
L 94.067181 186.624 
L 94.071313 189.312 
L 94.075456 192 
L 94.079611 194.688 
L 94.083778 197.376 
L 94.087955 200.064 
L 94.092144 202.752 
L 94.096345 205.44 
L 94.100557 208.128 
L 94.10478 210.816 
L 94.109015 213.504 
L 94.113261 216.192 
L 94.117518 218.88 
L 94.121787 221.568 
L 94.126067 224.256 
L 94.130359 226.944 
L 94.134662 229.632 
L 94.138976 232.32 
L 94.143302 235.008 
L 94.147639 237.696 
L 94.151988 240.384 
L 94.156348 243.072 
L 94.160719 245.76 
L 94.165102 248.448 
L 94.169496 251.136 
L 94.173902 253.824 
L 94.178319 256.512 
L 94.182747 259.2 
L 94.187187 261.888 
L 94.191638 264.576 
L 94.1961 267.264 
L 94.200574 269.952 
L 94.205059 272.64 
L 94.209556 275.328 
L 94.214064 278.016 
L 94.218583 280.704 
L 94.223114 283.392 
L 94.227656 286.08 
L 94.23221 288.768 
L 94.236775 291.456 
L 94.241351 294.144 
L 94.245939 296.832 
L 94.250538 299.52 
L 94.255149 302.208 
L 94.259771 304.896 
L 94.264404 307.584 
" clip-path="url(#pebafce685f)" style="fill: none; stroke: #000000; stroke-width: 0.5"/>
   </g>
   <g id="PathCollection_10">
    <path d="M 148.038031 41.472 
L 148.041624 44.16 
L 148.04523 46.848 
L 148.048847 49.536 
L 148.052476 52.224 
L 148.056116 54.912 
L 148.059768 57.6 
L 148.063432 60.288 
L 148.067108 62.976 
L 148.070795 65.664 
L 148.074494 68.352 
L 148.078204 71.04 
L 148.081926 73.728 
L 148.083122 74.589018 
" clip-path="url(#pebafce685f)" style="fill: none; stroke: #000000; stroke-width: 0.5"/>
    <path d="M 148.134018 110.498982 
L 148.135263 111.36 
L 148.13916 114.048 
L 148.143069 116.736 
L 148.14699 119.424 
L 148.150922 122.112 
L 148.154866 124.8 
L 148.158822 127.488 
L 148.162789 130.176 
L 148.166768 132.864 
L 148.170759 135.552 
L 148.174761 138.24 
L 148.178775 140.928 
L 148.182801 143.616 
L 148.186838 146.304 
L 148.190887 148.992 
L 148.194948 151.68 
L 148.199021 154.368 
L 148.203105 157.056 
L 148.2072 159.744 
L 148.211308 162.432 
L 148.215427 165.12 
L 148.219558 167.808 
L 148.2237 170.496 
L 148.227854 173.184 
L 148.23202 175.872 
L 148.236198 178.56 
L 148.240387 181.248 
L 148.244588 183.936 
L 148.2488 186.624 
L 148.253024 189.312 
L 148.25726 192 
L 148.261508 194.688 
L 148.265767 197.376 
L 148.270038 200.064 
L 148.27432 202.752 
L 148.278615 205.44 
L 148.282921 208.128 
L 148.287238 210.816 
L 148.291567 213.504 
L 148.295908 216.192 
L 148.300261 218.88 
L 148.304625 221.568 
L 148.309001 224.256 
L 148.313389 226.944 
L 148.317788 229.632 
L 148.322199 232.32 
L 148.326622 235.008 
L 148.331056 237.696 
L 148.335502 240.384 
L 148.33996 243.072 
L 148.344429 245.76 
L 148.34891 248.448 
L 148.353403 251.136 
L 148.357907 253.824 
L 148.362423 256.512 
L 148.366951 259.2 
L 148.371491 261.888 
L 148.376042 264.576 
L 148.380604 267.264 
L 148.385179 269.952 
L 148.389765 272.64 
L 148.394363 275.328 
L 148.398972 278.016 
L 148.403593 280.704 
L 148.408226 283.392 
L 148.412871 286.08 
L 148.417527 288.768 
L 148.422195 291.456 
L 148.426874 294.144 
L 148.431565 296.832 
L 148.436268 299.52 
L 148.440983 302.208 
L 148.445709 304.896 
L 148.450447 307.584 
" clip-path="url(#pebafce685f)" style="fill: none; stroke: #000000; stroke-width: 0.5"/>
   </g>
   <g id="PathCollection_11">
    <path d="M 203.032901 41.472 
L 203.036576 44.16 
L 203.040262 46.848 
L 203.043961 49.536 
L 203.047672 52.224 
L 203.051394 54.912 
L 203.055129 57.6 
L 203.058875 60.288 
L 203.062634 62.976 
L 203.066404 65.664 
L 203.070187 68.352 
L 203.073981 71.04 
L 203.077788 73.728 
L 203.079011 74.589018 
" clip-path="url(#pebafce685f)" style="fill: none; stroke: #000000; stroke-width: 0.5"/>
    <path d="M 203.131062 110.498981 
L 203.132335 111.36 
L 203.136321 114.048 
L 203.140319 116.736 
L 203.144329 119.424 
L 203.148351 122.112 
L 203.152385 124.8 
L 203.15643 127.488 
L 203.160488 130.176 
L 203.164558 132.864 
L 203.16864 135.552 
L 203.172734 138.24 
L 203.17684 140.928 
L 203.180957 143.616 
L 203.185087 146.304 
L 203.189229 148.992 
L 203.193382 151.68 
L 203.197548 154.368 
L 203.201726 157.056 
L 203.205915 159.744 
L 203.210117 162.432 
L 203.21433 165.12 
L 203.218556 167.808 
L 203.222794 170.496 
L 203.227043 173.184 
L 203.231304 175.872 
L 203.235578 178.56 
L 203.239863 181.248 
L 203.244161 183.936 
L 203.24847 186.624 
L 203.252791 189.312 
L 203.257125 192 
L 203.26147 194.688 
L 203.265827 197.376 
L 203.270196 200.064 
L 203.274578 202.752 
L 203.278971 205.44 
L 203.283376 208.128 
L 203.287793 210.816 
L 203.292222 213.504 
L 203.296663 216.192 
L 203.301116 218.88 
L 203.305581 221.568 
L 203.310058 224.256 
L 203.314547 226.944 
L 203.319048 229.632 
L 203.323561 232.32 
L 203.328086 235.008 
L 203.332623 237.696 
L 203.337172 240.384 
L 203.341733 243.072 
L 203.346306 245.76 
L 203.35089 248.448 
L 203.355487 251.136 
L 203.360096 253.824 
L 203.364717 256.512 
L 203.369349 259.2 
L 203.373994 261.888 
L 203.378651 264.576 
L 203.383319 267.264 
L 203.388 269.952 
L 203.392692 272.64 
L 203.397397 275.328 
L 203.402113 278.016 
L 203.406842 280.704 
L 203.411582 283.392 
L 203.416335 286.08 
L 203.421099 288.768 
L 203.425876 291.456 
L 203.430664 294.144 
L 203.435464 296.832 
L 203.440277 299.52 
L 203.445101 302.208 
L 203.449937 304.896 
L 203.454785 307.584 
" clip-path="url(#pebafce685f)" style="fill: none; stroke: #000000; stroke-width: 0.5"/>
   </g>
   <g id="PathCollection_12">
    <path d="M 259.202455 41.472 
L 259.20613 44.16 
L 259.209817 46.848 
L 259.213516 49.536 
L 259.217226 52.224 
L 259.220949 54.912 
L 259.224684 57.6 
L 259.228431 60.288 
L 259.23219 62.976 
L 259.235961 65.664 
L 259.239744 68.352 
L 259.243539 71.04 
L 259.247346 73.728 
L 259.248569 74.589018 
" clip-path="url(#pebafce685f)" style="fill: none; stroke: #000000; stroke-width: 0.5"/>
    <path d="M 259.300631 110.498981 
L 259.301904 111.36 
L 259.305891 114.048 
L 259.309891 116.736 
L 259.313902 119.424 
L 259.317925 122.112 
L 259.32196 124.8 
L 259.326008 127.488 
L 259.330067 130.176 
L 259.334138 132.864 
L 259.338221 135.552 
L 259.342317 138.24 
L 259.346424 140.928 
L 259.350543 143.616 
L 259.354675 146.304 
L 259.358818 148.992 
L 259.362973 151.68 
L 259.367141 154.368 
L 259.37132 157.056 
L 259.375511 159.744 
L 259.379715 162.432 
L 259.38393 165.12 
L 259.388158 167.808 
L 259.392397 170.496 
L 259.396649 173.184 
L 259.400912 175.872 
L 259.405188 178.56 
L 259.409475 181.248 
L 259.413775 183.936 
L 259.418086 186.624 
L 259.42241 189.312 
L 259.426745 192 
L 259.431093 194.688 
L 259.435452 197.376 
L 259.439824 200.064 
L 259.444208 202.752 
L 259.448603 205.44 
L 259.453011 208.128 
L 259.457431 210.816 
L 259.461862 213.504 
L 259.466306 216.192 
L 259.470762 218.88 
L 259.475229 221.568 
L 259.479709 224.256 
L 259.484201 226.944 
L 259.488705 229.632 
L 259.49322 232.32 
L 259.497748 235.008 
L 259.502288 237.696 
L 259.50684 240.384 
L 259.511404 243.072 
L 259.51598 245.76 
L 259.520567 248.448 
L 259.525167 251.136 
L 259.529779 253.824 
L 259.534403 256.512 
L 259.539039 259.2 
L 259.543687 261.888 
L 259.548347 264.576 
L 259.553019 267.264 
L 259.557703 269.952 
L 259.562399 272.64 
L 259.567107 275.328 
L 259.571827 278.016 
L 259.576559 280.704 
L 259.581303 283.392 
L 259.586059 286.08 
L 259.590827 288.768 
L 259.595607 291.456 
L 259.600399 294.144 
L 259.605203 296.832 
L 259.610019 299.52 
L 259.614848 302.208 
L 259.619688 304.896 
L 259.62454 307.584 
" clip-path="url(#pebafce685f)" style="fill: none; stroke: #000000; stroke-width: 0.5"/>
   </g>
   <g id="PathCollection_13">
    <path d="M 316.38192 41.472 
L 316.38568 44.16 
L 316.389452 46.848 
L 316.393237 49.536 
L 316.397034 52.224 
L 316.400843 54.912 
L 316.404665 57.6 
L 316.408499 60.288 
L 316.412345 62.976 
L 316.416204 65.664 
L 316.420075 68.352 
L 316.423959 71.04 
L 316.427854 73.728 
L 316.429106 74.589019 
" clip-path="url(#pebafce685f)" style="fill: none; stroke: #000000; stroke-width: 0.5"/>
    <path d="M 316.482385 110.49898 
L 316.483689 111.36 
L 316.487769 114.048 
L 316.491862 116.736 
L 316.495968 119.424 
L 316.500085 122.112 
L 316.504215 124.8 
L 316.508358 127.488 
L 316.512512 130.176 
L 316.516679 132.864 
L 316.520859 135.552 
L 316.52505 138.24 
L 316.529254 140.928 
L 316.533471 143.616 
L 316.537699 146.304 
L 316.54194 148.992 
L 316.546194 151.68 
L 316.550459 154.368 
L 316.554737 157.056 
L 316.559028 159.744 
L 316.56333 162.432 
L 316.567645 165.12 
L 316.571973 167.808 
L 316.576312 170.496 
L 316.580664 173.184 
L 316.585029 175.872 
L 316.589405 178.56 
L 316.593794 181.248 
L 316.598196 183.936 
L 316.602609 186.624 
L 316.607035 189.312 
L 316.611473 192 
L 316.615924 194.688 
L 316.620387 197.376 
L 316.624862 200.064 
L 316.62935 202.752 
L 316.63385 205.44 
L 316.638362 208.128 
L 316.642887 210.816 
L 316.647424 213.504 
L 316.651973 216.192 
L 316.656535 218.88 
L 316.661109 221.568 
L 316.665695 224.256 
L 316.670294 226.944 
L 316.674905 229.632 
L 316.679528 232.32 
L 316.684164 235.008 
L 316.688812 237.696 
L 316.693472 240.384 
L 316.698145 243.072 
L 316.70283 245.76 
L 316.707527 248.448 
L 316.712237 251.136 
L 316.716959 253.824 
L 316.721693 256.512 
L 316.72644 259.2 
L 316.731199 261.888 
L 316.73597 264.576 
L 316.740754 267.264 
L 316.745549 269.952 
L 316.750358 272.64 
L 316.755178 275.328 
L 316.760011 278.016 
L 316.764857 280.704 
L 316.769714 283.392 
L 316.774584 286.08 
L 316.779467 288.768 
L 316.784361 291.456 
L 316.789268 294.144 
L 316.794187 296.832 
L 316.799119 299.52 
L 316.804063 302.208 
L 316.809019 304.896 
L 316.813988 307.584 
" clip-path="url(#pebafce685f)" style="fill: none; stroke: #000000; stroke-width: 0.5"/>
   </g>
   <g id="PathCollection_14">
    <path d="M 374.590715 41.472 
L 374.594565 44.16 
L 374.598428 46.848 
L 374.602304 49.536 
L 374.606192 52.224 
L 374.610093 54.912 
L 374.614006 57.6 
L 374.617932 60.288 
L 374.621871 62.976 
L 374.625823 65.664 
L 374.629787 68.352 
L 374.633764 71.04 
L 374.637753 73.728 
L 374.639035 74.58902 
" clip-path="url(#pebafce685f)" style="fill: none; stroke: #000000; stroke-width: 0.5"/>
    <path d="M 374.693603 110.498979 
L 374.694937 111.36 
L 374.699117 114.048 
L 374.703309 116.736 
L 374.707514 119.424 
L 374.711732 122.112 
L 374.715962 124.8 
L 374.720205 127.488 
L 374.72446 130.176 
L 374.728729 132.864 
L 374.73301 135.552 
L 374.737303 138.24 
L 374.74161 140.928 
L 374.745929 143.616 
L 374.75026 146.304 
L 374.754604 148.992 
L 374.758961 151.68 
L 374.763331 154.368 
L 374.767713 157.056 
L 374.772108 159.744 
L 374.776516 162.432 
L 374.780936 165.12 
L 374.785369 167.808 
L 374.789815 170.496 
L 374.794273 173.184 
L 374.798744 175.872 
L 374.803228 178.56 
L 374.807724 181.248 
L 374.812233 183.936 
L 374.816755 186.624 
L 374.821289 189.312 
L 374.825836 192 
L 374.830396 194.688 
L 374.834968 197.376 
L 374.839553 200.064 
L 374.844151 202.752 
L 374.848762 205.44 
L 374.853385 208.128 
L 374.85802 210.816 
L 374.862669 213.504 
L 374.86733 216.192 
L 374.872003 218.88 
L 374.87669 221.568 
L 374.881389 224.256 
L 374.886101 226.944 
L 374.890825 229.632 
L 374.895562 232.32 
L 374.900312 235.008 
L 374.905074 237.696 
L 374.909849 240.384 
L 374.914637 243.072 
L 374.919438 245.76 
L 374.924251 248.448 
L 374.929076 251.136 
L 374.933915 253.824 
L 374.938766 256.512 
L 374.94363 259.2 
L 374.948506 261.888 
L 374.953395 264.576 
L 374.958297 267.264 
L 374.963211 269.952 
L 374.968139 272.64 
L 374.973078 275.328 
L 374.978031 278.016 
L 374.982996 280.704 
L 374.987974 283.392 
L 374.992964 286.08 
L 374.997967 288.768 
L 375.002983 291.456 
L 375.008012 294.144 
L 375.013053 296.832 
L 375.018107 299.52 
L 375.023173 302.208 
L 375.028252 304.896 
L 375.033344 307.584 
" clip-path="url(#pebafce685f)" style="fill: none; stroke: #000000; stroke-width: 0.5"/>
   </g>
   <g id="PathCollection_15"/>
   <g id="LineCollection_1">
    <path d="M 57.6 307.584 
L 57.6 294.2784 
" clip-path="url(#pebafce685f)" style="fill: none; stroke: #000000; stroke-width: 1.5"/>
    <path d="M 57.6 307.584 
L 57.6 294.2784 
" clip-path="url(#pebafce685f)" style="fill: none; stroke: #000000; stroke-width: 1.5"/>
    <path d="M 129.024 307.584 
L 129.024 294.2784 
" clip-path="url(#pebafce685f)" style="fill: none; stroke: #000000; stroke-width: 1.5"/>
    <path d="M 129.024 307.584 
L 129.024 294.2784 
" clip-path="url(#pebafce685f)" style="fill: none; stroke: #000000; stroke-width: 1.5"/>
    <path d="M 200.448 307.584 
L 200.448 294.2784 
" clip-path="url(#pebafce685f)" style="fill: none; stroke: #000000; stroke-width: 1.5"/>
    <path d="M 271.872 307.584 
L 271.872 294.2784 
" clip-path="url(#pebafce685f)" style="fill: none; stroke: #000000; stroke-width: 1.5"/>
    <path d="M 271.872 307.584 
L 271.872 294.2784 
" clip-path="url(#pebafce685f)" style="fill: none; stroke: #000000; stroke-width: 1.5"/>
    <path d="M 271.872 307.584 
L 271.872 294.2784 
" clip-path="url(#pebafce685f)" style="fill: none; stroke: #000000; stroke-width: 1.5"/>
    <path d="M 349.00992 307.584 
L 349.00992 294.2784 
" clip-path="url(#pebafce685f)" style="fill: none; stroke: #000000; stroke-width: 1.5"/>
   </g>
   <g id="LineCollection_2">
    <path clip-path="url(#pebafce685f)" style="fill: none; stroke: #000000; stroke-width: 1.5"/>
    <path clip-path="url(#pebafce685f)" style="fill: none; stroke: #000000; stroke-width: 1.5"/>
    <path clip-path="url(#pebafce685f)" style="fill: none; stroke: #000000; stroke-width: 1.5"/>
    <path clip-path="url(#pebafce685f)" style="fill: none; stroke: #000000; stroke-width: 1.5"/>
    <path clip-path="url(#pebafce685f)" style="fill: none; stroke: #000000; stroke-width: 1.5"/>
    <path clip-path="url(#pebafce685f)" style="fill: none; stroke: #000000; stroke-width: 1.5"/>
    <path clip-path="url(#pebafce685f)" style="fill: none; stroke: #000000; stroke-width: 1.5"/>
    <path clip-path="url(#pebafce685f)" style="fill: none; stroke: #000000; stroke-width: 1.5"/>
    <path clip-path="url(#pebafce685f)" style="fill: none; stroke: #000000; stroke-width: 1.5"/>
   </g>
   <g id="patch_3">
    <path d="M 57.6 307.584 
L 57.6 41.472 
" style="fill: none; stroke: #000000; stroke-width: 0.8; stroke-linejoin: miter; stroke-linecap: square"/>
   </g>
   <g id="patch_4">
    <path d="M 414.72 307.584 
L 414.72 41.472 
" style="fill: none; stroke: #000000; stroke-width: 0.8; stroke-linejoin: miter; stroke-linecap: square"/>
   </g>
   <g id="patch_5">
    <path d="M 57.6 307.584 
L 414.72 307.584 
" style="fill: none; stroke: #000000; stroke-width: 0.8; stroke-linejoin: miter; stroke-linecap: square"/>
   </g>
   <g id="patch_6">
    <path d="M 57.6 41.472 
L 414.72 41.472 
" style="fill: none; stroke: #000000; stroke-width: 0.8; stroke-linejoin: miter; stroke-linecap: square"/>
   </g>
   <g id="text_15">
    <!-- 2D-partial dependency plot between PL and Obesity -->
    <g transform="translate(79.228125 35.472) scale(0.12 -0.12)">
     <defs>
      <path id="DejaVuSans-44" d="M 1259 4147 
L 1259 519 
L 2022 519 
Q 2988 519 3436 956 
Q 3884 1394 3884 2338 
Q 3884 3275 3436 3711 
Q 2988 4147 2022 4147 
L 1259 4147 
z
M 628 4666 
L 1925 4666 
Q 3281 4666 3915 4102 
Q 4550 3538 4550 2338 
Q 4550 1131 3912 565 
Q 3275 0 1925 0 
L 628 0 
L 628 4666 
z
" transform="scale(0.015625)"/>
      <path id="DejaVuSans-2d" d="M 313 2009 
L 1997 2009 
L 1997 1497 
L 313 1497 
L 313 2009 
z
" transform="scale(0.015625)"/>
      <path id="DejaVuSans-70" d="M 1159 525 
L 1159 -1331 
L 581 -1331 
L 581 3500 
L 1159 3500 
L 1159 2969 
Q 1341 3281 1617 3432 
Q 1894 3584 2278 3584 
Q 2916 3584 3314 3078 
Q 3713 2572 3713 1747 
Q 3713 922 3314 415 
Q 2916 -91 2278 -91 
Q 1894 -91 1617 61 
Q 1341 213 1159 525 
z
M 3116 1747 
Q 3116 2381 2855 2742 
Q 2594 3103 2138 3103 
Q 1681 3103 1420 2742 
Q 1159 2381 1159 1747 
Q 1159 1113 1420 752 
Q 1681 391 2138 391 
Q 2594 391 2855 752 
Q 3116 1113 3116 1747 
z
" transform="scale(0.015625)"/>
      <path id="DejaVuSans-6c" d="M 603 4863 
L 1178 4863 
L 1178 0 
L 603 0 
L 603 4863 
z
" transform="scale(0.015625)"/>
      <path id="DejaVuSans-64" d="M 2906 2969 
L 2906 4863 
L 3481 4863 
L 3481 0 
L 2906 0 
L 2906 525 
Q 2725 213 2448 61 
Q 2172 -91 1784 -91 
Q 1150 -91 751 415 
Q 353 922 353 1747 
Q 353 2572 751 3078 
Q 1150 3584 1784 3584 
Q 2172 3584 2448 3432 
Q 2725 3281 2906 2969 
z
M 947 1747 
Q 947 1113 1208 752 
Q 1469 391 1925 391 
Q 2381 391 2643 752 
Q 2906 1113 2906 1747 
Q 2906 2381 2643 2742 
Q 2381 3103 1925 3103 
Q 1469 3103 1208 2742 
Q 947 2381 947 1747 
z
" transform="scale(0.015625)"/>
      <path id="DejaVuSans-77" d="M 269 3500 
L 844 3500 
L 1563 769 
L 2278 3500 
L 2956 3500 
L 3675 769 
L 4391 3500 
L 4966 3500 
L 4050 0 
L 3372 0 
L 2619 2869 
L 1863 0 
L 1184 0 
L 269 3500 
z
" transform="scale(0.015625)"/>
     </defs>
     <use xlink:href="#DejaVuSans-32"/>
     <use xlink:href="#DejaVuSans-44" x="63.623047"/>
     <use xlink:href="#DejaVuSans-2d" x="140.625"/>
     <use xlink:href="#DejaVuSans-70" x="176.708984"/>
     <use xlink:href="#DejaVuSans-61" x="240.185547"/>
     <use xlink:href="#DejaVuSans-72" x="301.464844"/>
     <use xlink:href="#DejaVuSans-74" x="342.578125"/>
     <use xlink:href="#DejaVuSans-69" x="381.787109"/>
     <use xlink:href="#DejaVuSans-61" x="409.570312"/>
     <use xlink:href="#DejaVuSans-6c" x="470.849609"/>
     <use xlink:href="#DejaVuSans-20" x="498.632812"/>
     <use xlink:href="#DejaVuSans-64" x="530.419922"/>
     <use xlink:href="#DejaVuSans-65" x="593.896484"/>
     <use xlink:href="#DejaVuSans-70" x="655.419922"/>
     <use xlink:href="#DejaVuSans-65" x="718.896484"/>
     <use xlink:href="#DejaVuSans-6e" x="780.419922"/>
     <use xlink:href="#DejaVuSans-64" x="843.798828"/>
     <use xlink:href="#DejaVuSans-65" x="907.275391"/>
     <use xlink:href="#DejaVuSans-6e" x="968.798828"/>
     <use xlink:href="#DejaVuSans-63" x="1032.177734"/>
     <use xlink:href="#DejaVuSans-79" x="1087.158203"/>
     <use xlink:href="#DejaVuSans-20" x="1146.337891"/>
     <use xlink:href="#DejaVuSans-70" x="1178.125"/>
     <use xlink:href="#DejaVuSans-6c" x="1241.601562"/>
     <use xlink:href="#DejaVuSans-6f" x="1269.384766"/>
     <use xlink:href="#DejaVuSans-74" x="1330.566406"/>
     <use xlink:href="#DejaVuSans-20" x="1369.775391"/>
     <use xlink:href="#DejaVuSans-62" x="1401.5625"/>
     <use xlink:href="#DejaVuSans-65" x="1465.039062"/>
     <use xlink:href="#DejaVuSans-74" x="1526.5625"/>
     <use xlink:href="#DejaVuSans-77" x="1565.771484"/>
     <use xlink:href="#DejaVuSans-65" x="1647.558594"/>
     <use xlink:href="#DejaVuSans-65" x="1709.082031"/>
     <use xlink:href="#DejaVuSans-6e" x="1770.605469"/>
     <use xlink:href="#DejaVuSans-20" x="1833.984375"/>
     <use xlink:href="#DejaVuSans-50" x="1865.771484"/>
     <use xlink:href="#DejaVuSans-4c" x="1926.074219"/>
     <use xlink:href="#DejaVuSans-20" x="1981.787109"/>
     <use xlink:href="#DejaVuSans-61" x="2013.574219"/>
     <use xlink:href="#DejaVuSans-6e" x="2074.853516"/>
     <use xlink:href="#DejaVuSans-64" x="2138.232422"/>
     <use xlink:href="#DejaVuSans-20" x="2201.708984"/>
     <use xlink:href="#DejaVuSans-4f" x="2233.496094"/>
     <use xlink:href="#DejaVuSans-62" x="2312.207031"/>
     <use xlink:href="#DejaVuSans-65" x="2375.683594"/>
     <use xlink:href="#DejaVuSans-73" x="2437.207031"/>
     <use xlink:href="#DejaVuSans-69" x="2489.306641"/>
     <use xlink:href="#DejaVuSans-74" x="2517.089844"/>
     <use xlink:href="#DejaVuSans-79" x="2556.298828"/>
    </g>
   </g>
   <g id="text_16">
    <g clip-path="url(#pebafce685f)">
     <!-- 10.70 -->
     <g transform="translate(91.150507 78.233778) rotate(-270.07946) scale(0.1 -0.1)">
      <defs>
       <path id="DejaVuSans-37" d="M 525 4666 
L 3525 4666 
L 3525 4397 
L 1831 0 
L 1172 0 
L 2766 4134 
L 525 4134 
L 525 4666 
z
" transform="scale(0.015625)"/>
      </defs>
      <use xlink:href="#DejaVuSans-31"/>
      <use xlink:href="#DejaVuSans-30" x="63.623047"/>
      <use xlink:href="#DejaVuSans-2e" x="127.246094"/>
      <use xlink:href="#DejaVuSans-37" x="159.033203"/>
      <use xlink:href="#DejaVuSans-30" x="222.65625"/>
     </g>
    </g>
   </g>
   <g id="text_17">
    <g clip-path="url(#pebafce685f)">
     <!-- 10.71 -->
     <g transform="translate(145.328649 78.233863) rotate(-270.081206) scale(0.1 -0.1)">
      <use xlink:href="#DejaVuSans-31"/>
      <use xlink:href="#DejaVuSans-30" x="63.623047"/>
      <use xlink:href="#DejaVuSans-2e" x="127.246094"/>
      <use xlink:href="#DejaVuSans-37" x="159.033203"/>
      <use xlink:href="#DejaVuSans-31" x="222.65625"/>
     </g>
    </g>
   </g>
   <g id="text_18">
    <g clip-path="url(#pebafce685f)">
     <!-- 10.72 -->
     <g transform="translate(200.324648 78.233952) rotate(-270.083049) scale(0.1 -0.1)">
      <use xlink:href="#DejaVuSans-31"/>
      <use xlink:href="#DejaVuSans-30" x="63.623047"/>
      <use xlink:href="#DejaVuSans-2e" x="127.246094"/>
      <use xlink:href="#DejaVuSans-37" x="159.033203"/>
      <use xlink:href="#DejaVuSans-32" x="222.65625"/>
     </g>
    </g>
   </g>
   <g id="text_19">
    <g clip-path="url(#pebafce685f)">
     <!-- 10.73 -->
     <g transform="translate(256.494206 78.233953) rotate(-270.083067) scale(0.1 -0.1)">
      <use xlink:href="#DejaVuSans-31"/>
      <use xlink:href="#DejaVuSans-30" x="63.623047"/>
      <use xlink:href="#DejaVuSans-2e" x="127.246094"/>
      <use xlink:href="#DejaVuSans-37" x="159.033203"/>
      <use xlink:href="#DejaVuSans-33" x="222.65625"/>
     </g>
    </g>
   </g>
   <g id="text_20">
    <g clip-path="url(#pebafce685f)">
     <!-- 10.73 -->
     <g transform="translate(313.67486 78.234047) rotate(-270.085009) scale(0.1 -0.1)">
      <use xlink:href="#DejaVuSans-31"/>
      <use xlink:href="#DejaVuSans-30" x="63.623047"/>
      <use xlink:href="#DejaVuSans-2e" x="127.246094"/>
      <use xlink:href="#DejaVuSans-37" x="159.033203"/>
      <use xlink:href="#DejaVuSans-33" x="222.65625"/>
     </g>
    </g>
   </g>
   <g id="text_21">
    <g clip-path="url(#pebafce685f)">
     <!-- 10.74 -->
     <g transform="translate(371.884912 78.234147) rotate(-270.087064) scale(0.1 -0.1)">
      <use xlink:href="#DejaVuSans-31"/>
      <use xlink:href="#DejaVuSans-30" x="63.623047"/>
      <use xlink:href="#DejaVuSans-2e" x="127.246094"/>
      <use xlink:href="#DejaVuSans-37" x="159.033203"/>
      <use xlink:href="#DejaVuSans-34" x="222.65625"/>
     </g>
    </g>
   </g>
  </g>
 </g>
 <defs>
  <clipPath id="pebafce685f">
   <rect x="57.6" y="41.472" width="357.12" height="266.112"/>
  </clipPath>
 </defs>
</svg>
