<?xml version="1.0" encoding="utf-8" standalone="no"?>
<!DOCTYPE svg PUBLIC "-//W3C//DTD SVG 1.1//EN"
  "http://www.w3.org/Graphics/SVG/1.1/DTD/svg11.dtd">
<svg xmlns:xlink="http://www.w3.org/1999/xlink" width="460.8pt" height="345.6pt" viewBox="0 0 460.8 345.6" xmlns="http://www.w3.org/2000/svg" version="1.1">
 <metadata>
  <rdf:RDF xmlns:dc="http://purl.org/dc/elements/1.1/" xmlns:cc="http://creativecommons.org/ns#" xmlns:rdf="http://www.w3.org/1999/02/22-rdf-syntax-ns#">
   <cc:Work>
    <dc:type rdf:resource="http://purl.org/dc/dcmitype/StillImage"/>
    <dc:date>2024-04-22T00:47:50.574944</dc:date>
    <dc:format>image/svg+xml</dc:format>
    <dc:creator>
     <cc:Agent>
      <dc:title>Matplotlib v3.7.0, https://matplotlib.org/</dc:title>
     </cc:Agent>
    </dc:creator>
   </cc:Work>
  </rdf:RDF>
 </metadata>
 <defs>
  <style type="text/css">*{stroke-linejoin: round; stroke-linecap: butt}</style>
 </defs>
 <g id="figure_1">
  <g id="patch_1">
   <path d="M 0 345.6 
L 460.8 345.6 
L 460.8 0 
L 0 0 
L 0 345.6 
z
" style="fill: none"/>
  </g>
  <g id="axes_1"/>
  <g id="axes_2">
   <g id="patch_2">
    <path d="M 57.6 307.584 
L 414.72 307.584 
L 414.72 41.472 
L 57.6 41.472 
L 57.6 307.584 
z
" style="fill: none"/>
   </g>
   <g id="PathCollection_1">
    <path d="M 61.207273 307.584 
L 64.814545 307.584 
L 68.421818 307.584 
L 72.029091 307.584 
L 75.636364 307.584 
L 79.243636 307.584 
L 82.850909 307.584 
L 86.458182 307.584 
L 90.065455 307.584 
L 93.672727 307.584 
L 97.28 307.584 
L 100.887273 307.584 
L 104.494545 307.584 
L 108.101818 307.584 
L 111.709091 307.584 
L 115.316364 307.584 
L 118.923636 307.584 
L 122.530909 307.584 
L 126.138182 307.584 
L 129.745455 307.584 
L 133.352727 307.584 
L 136.96 307.584 
L 140.567273 307.584 
L 144.174545 307.584 
L 147.781818 307.584 
L 151.389091 307.584 
L 154.996364 307.584 
L 158.603636 307.584 
L 162.210909 307.584 
L 165.818182 307.584 
L 169.425455 307.584 
L 173.032727 307.584 
L 176.64 307.584 
L 180.247273 307.584 
L 183.854545 307.584 
L 187.461818 307.584 
L 191.069091 307.584 
L 194.676364 307.584 
L 198.283636 307.584 
L 201.890909 307.584 
L 205.498182 307.584 
L 209.105455 307.584 
L 212.712727 307.584 
L 216.32 307.584 
L 219.927273 307.584 
L 223.534545 307.584 
L 227.141818 307.584 
L 230.749091 307.584 
L 234.356364 307.584 
L 237.963636 307.584 
L 241.570909 307.584 
L 245.178182 307.584 
L 248.785455 307.584 
L 252.392727 307.584 
L 256 307.584 
L 259.607273 307.584 
L 263.214545 307.584 
L 266.821818 307.584 
L 270.429091 307.584 
L 274.036364 307.584 
L 277.643636 307.584 
L 281.250909 307.584 
L 284.858182 307.584 
L 288.465455 307.584 
L 292.072727 307.584 
L 295.68 307.584 
L 299.287273 307.584 
L 302.894545 307.584 
L 306.501818 307.584 
L 310.109091 307.584 
L 313.716364 307.584 
L 317.323636 307.584 
L 320.930909 307.584 
L 324.538182 307.584 
L 328.145455 307.584 
L 331.752727 307.584 
L 335.36 307.584 
L 338.967273 307.584 
L 342.574545 307.584 
L 346.181818 307.584 
L 349.789091 307.584 
L 353.396364 307.584 
L 357.003636 307.584 
L 360.610909 307.584 
L 364.218182 307.584 
L 367.825455 307.584 
L 371.432727 307.584 
L 375.04 307.584 
L 378.647273 307.584 
L 382.254545 307.584 
L 385.861818 307.584 
L 389.469091 307.584 
L 393.076364 307.584 
L 396.683636 307.584 
L 400.290909 307.584 
L 403.898182 307.584 
L 407.505455 307.584 
L 411.112727 307.584 
L 414.72 307.584 
L 414.72 304.896 
L 414.72 302.208 
L 414.72 299.52 
L 414.72 296.832 
L 414.72 294.144 
L 414.72 291.456 
L 414.72 288.768 
L 414.72 286.08 
L 414.72 283.392 
L 414.72 280.704 
L 414.72 278.016 
L 414.72 277.89467 
L 411.13196 278.016 
L 411.112727 278.016651 
L 407.505455 278.137749 
L 403.898182 278.257876 
L 400.290909 278.377032 
L 396.683636 278.495218 
L 393.076364 278.612438 
L 389.469091 278.728692 
L 385.861818 278.843981 
L 382.254545 278.958307 
L 378.647273 279.071672 
L 375.04 279.184078 
L 371.432727 279.295525 
L 367.825455 279.406015 
L 364.218182 279.51555 
L 360.610909 279.624131 
L 357.003636 279.731759 
L 353.396364 279.838437 
L 349.789091 279.944166 
L 346.181818 280.048947 
L 342.574545 280.152781 
L 338.967273 280.255671 
L 335.36 280.357617 
L 331.752727 280.458621 
L 328.145455 280.558685 
L 324.538182 280.65781 
L 322.841372 280.704 
L 320.930909 280.756037 
L 317.323636 280.853363 
L 313.716364 280.949753 
L 310.109091 281.04521 
L 306.501818 281.139733 
L 302.894545 281.233327 
L 299.287273 281.32599 
L 295.68 281.417725 
L 292.072727 281.508534 
L 288.465455 281.598418 
L 284.858182 281.687377 
L 281.250909 281.775415 
L 277.643636 281.862531 
L 274.036364 281.948728 
L 270.429091 282.034007 
L 266.821818 282.118369 
L 263.214545 282.201816 
L 259.607273 282.28435 
L 256 282.36597 
L 252.392727 282.44668 
L 248.785455 282.52648 
L 245.178182 282.605372 
L 241.570909 282.683358 
L 237.963636 282.760437 
L 234.356364 282.836613 
L 230.749091 282.911886 
L 227.141818 282.986258 
L 223.534545 283.05973 
L 219.927273 283.132303 
L 216.32 283.203979 
L 212.712727 283.27476 
L 209.105455 283.344646 
L 206.629553 283.392 
L 205.498182 283.413656 
L 201.890909 283.48181 
L 198.283636 283.549074 
L 194.676364 283.615447 
L 191.069091 283.680933 
L 187.461818 283.745531 
L 183.854545 283.809244 
L 180.247273 283.872073 
L 176.64 283.934018 
L 173.032727 283.995083 
L 169.425455 284.055266 
L 165.818182 284.114571 
L 162.210909 284.172999 
L 158.603636 284.23055 
L 154.996364 284.287226 
L 151.389091 284.343028 
L 147.781818 284.397958 
L 144.174545 284.452018 
L 140.567273 284.505207 
L 136.96 284.557528 
L 133.352727 284.608982 
L 129.745455 284.659571 
L 126.138182 284.709294 
L 122.530909 284.758155 
L 118.923636 284.806154 
L 115.316364 284.853292 
L 111.709091 284.899571 
L 108.101818 284.944992 
L 104.494545 284.989556 
L 100.887273 285.033265 
L 97.28 285.076119 
L 93.672727 285.118121 
L 90.065455 285.159271 
L 86.458182 285.199571 
L 82.850909 285.239021 
L 79.243636 285.277624 
L 75.636364 285.31538 
L 72.029091 285.352291 
L 68.421818 285.388358 
L 64.814545 285.423582 
L 61.207273 285.457964 
L 57.6 285.491506 
L 57.6 286.08 
L 57.6 288.768 
L 57.6 291.456 
L 57.6 294.144 
L 57.6 296.832 
L 57.6 299.52 
L 57.6 302.208 
L 57.6 304.896 
L 57.6 307.584 
z
" clip-path="url(#p6b7fa78fb1)" style="fill: #481b6d; fill-opacity: 0.75"/>
   </g>
   <g id="PathCollection_2">
    <path d="M 61.207273 285.457964 
L 64.814545 285.423582 
L 68.421818 285.388358 
L 72.029091 285.352291 
L 75.636364 285.31538 
L 79.243636 285.277624 
L 82.850909 285.239021 
L 86.458182 285.199571 
L 90.065455 285.159271 
L 93.672727 285.118121 
L 97.28 285.076119 
L 100.887273 285.033265 
L 104.494545 284.989556 
L 108.101818 284.944992 
L 111.709091 284.899571 
L 115.316364 284.853292 
L 118.923636 284.806154 
L 122.530909 284.758155 
L 126.138182 284.709294 
L 129.745455 284.659571 
L 133.352727 284.608982 
L 136.96 284.557528 
L 140.567273 284.505207 
L 144.174545 284.452018 
L 147.781818 284.397958 
L 151.389091 284.343028 
L 154.996364 284.287226 
L 158.603636 284.23055 
L 162.210909 284.172999 
L 165.818182 284.114571 
L 169.425455 284.055266 
L 173.032727 283.995083 
L 176.64 283.934018 
L 180.247273 283.872073 
L 183.854545 283.809244 
L 187.461818 283.745531 
L 191.069091 283.680933 
L 194.676364 283.615447 
L 198.283636 283.549074 
L 201.890909 283.48181 
L 205.498182 283.413656 
L 206.629553 283.392 
L 209.105455 283.344646 
L 212.712727 283.27476 
L 216.32 283.203979 
L 219.927273 283.132303 
L 223.534545 283.05973 
L 227.141818 282.986258 
L 230.749091 282.911886 
L 234.356364 282.836613 
L 237.963636 282.760437 
L 241.570909 282.683358 
L 245.178182 282.605372 
L 248.785455 282.52648 
L 252.392727 282.44668 
L 256 282.36597 
L 259.607273 282.28435 
L 263.214545 282.201816 
L 266.821818 282.118369 
L 270.429091 282.034007 
L 274.036364 281.948728 
L 277.643636 281.862531 
L 281.250909 281.775415 
L 284.858182 281.687377 
L 288.465455 281.598418 
L 292.072727 281.508534 
L 295.68 281.417725 
L 299.287273 281.32599 
L 302.894545 281.233327 
L 306.501818 281.139733 
L 310.109091 281.04521 
L 313.716364 280.949753 
L 317.323636 280.853363 
L 320.930909 280.756037 
L 322.841372 280.704 
L 324.538182 280.65781 
L 328.145455 280.558685 
L 331.752727 280.458621 
L 335.36 280.357617 
L 338.967273 280.255671 
L 342.574545 280.152781 
L 346.181818 280.048947 
L 349.789091 279.944166 
L 353.396364 279.838437 
L 357.003636 279.731759 
L 360.610909 279.624131 
L 364.218182 279.51555 
L 367.825455 279.406015 
L 371.432727 279.295525 
L 375.04 279.184078 
L 378.647273 279.071672 
L 382.254545 278.958307 
L 385.861818 278.843981 
L 389.469091 278.728692 
L 393.076364 278.612438 
L 396.683636 278.495218 
L 400.290909 278.377032 
L 403.898182 278.257876 
L 407.505455 278.137749 
L 411.112727 278.016651 
L 411.13196 278.016 
L 414.72 277.89467 
L 414.72 275.328 
L 414.72 272.64 
L 414.72 269.952 
L 414.72 267.264 
L 414.72 264.576 
L 414.72 261.888 
L 414.72 259.2 
L 414.72 256.512 
L 414.72 253.824 
L 414.72 251.136 
L 414.72 248.448 
L 414.72 245.76 
L 414.72 243.072 
L 414.72 240.384 
L 414.72 237.696 
L 414.72 235.008 
L 414.72 234.769793 
L 411.112727 234.903627 
L 408.274147 235.008 
L 407.505455 235.036268 
L 403.898182 235.167749 
L 400.290909 235.298027 
L 396.683636 235.427106 
L 393.076364 235.554985 
L 389.469091 235.681667 
L 385.861818 235.807153 
L 382.254545 235.931446 
L 378.647273 236.054547 
L 375.04 236.176457 
L 371.432727 236.297178 
L 367.825455 236.416712 
L 364.218182 236.53506 
L 360.610909 236.652224 
L 357.003636 236.768206 
L 353.396364 236.883007 
L 349.789091 236.996629 
L 346.181818 237.109073 
L 342.574545 237.220342 
L 338.967273 237.330436 
L 335.36 237.439357 
L 331.752727 237.547107 
L 328.145455 237.653687 
L 326.697616 237.696 
L 324.538182 237.759126 
L 320.930909 237.863417 
L 317.323636 237.966542 
L 313.716364 238.068503 
L 310.109091 238.169302 
L 306.501818 238.268939 
L 302.894545 238.367417 
L 299.287273 238.464737 
L 295.68 238.5609 
L 292.072727 238.655909 
L 288.465455 238.749763 
L 284.858182 238.842466 
L 281.250909 238.934018 
L 277.643636 239.024421 
L 274.036364 239.113677 
L 270.429091 239.201786 
L 266.821818 239.28875 
L 263.214545 239.374571 
L 259.607273 239.459251 
L 256 239.542789 
L 252.392727 239.625189 
L 248.785455 239.706451 
L 245.178182 239.786577 
L 241.570909 239.865568 
L 237.963636 239.943425 
L 234.356364 240.020151 
L 230.749091 240.095745 
L 227.141818 240.170211 
L 223.534545 240.243548 
L 219.927273 240.315759 
L 216.464344 240.384 
L 216.32 240.386846 
L 212.712727 240.456839 
L 209.105455 240.525709 
L 205.498182 240.593457 
L 201.890909 240.660084 
L 198.283636 240.725593 
L 194.676364 240.789984 
L 191.069091 240.853258 
L 187.461818 240.915417 
L 183.854545 240.976462 
L 180.247273 241.036394 
L 176.64 241.095215 
L 173.032727 241.152926 
L 169.425455 241.209528 
L 165.818182 241.265022 
L 162.210909 241.31941 
L 158.603636 241.372693 
L 154.996364 241.424872 
L 151.389091 241.475948 
L 147.781818 241.525923 
L 144.174545 241.574798 
L 140.567273 241.622573 
L 136.96 241.669251 
L 133.352727 241.714832 
L 129.745455 241.759318 
L 126.138182 241.80271 
L 122.530909 241.845008 
L 118.923636 241.886215 
L 115.316364 241.926331 
L 111.709091 241.965357 
L 108.101818 242.003295 
L 104.494545 242.040145 
L 100.887273 242.07591 
L 97.28 242.110589 
L 93.672727 242.144184 
L 90.065455 242.176697 
L 86.458182 242.208128 
L 82.850909 242.238478 
L 79.243636 242.267749 
L 75.636364 242.295941 
L 72.029091 242.323056 
L 68.421818 242.349095 
L 64.814545 242.374059 
L 61.207273 242.397948 
L 57.6 242.420765 
L 57.6 243.072 
L 57.6 245.76 
L 57.6 248.448 
L 57.6 251.136 
L 57.6 253.824 
L 57.6 256.512 
L 57.6 259.2 
L 57.6 261.888 
L 57.6 264.576 
L 57.6 267.264 
L 57.6 269.952 
L 57.6 272.64 
L 57.6 275.328 
L 57.6 278.016 
L 57.6 280.704 
L 57.6 283.392 
L 57.6 285.491506 
z
" clip-path="url(#p6b7fa78fb1)" style="fill: #3f4788; fill-opacity: 0.75"/>
   </g>
   <g id="PathCollection_3">
    <path d="M 61.207273 242.397948 
L 64.814545 242.374059 
L 68.421818 242.349095 
L 72.029091 242.323056 
L 75.636364 242.295941 
L 79.243636 242.267749 
L 82.850909 242.238478 
L 86.458182 242.208128 
L 90.065455 242.176697 
L 93.672727 242.144184 
L 97.28 242.110589 
L 100.887273 242.07591 
L 104.494545 242.040145 
L 108.101818 242.003295 
L 111.709091 241.965357 
L 115.316364 241.926331 
L 118.923636 241.886215 
L 122.530909 241.845008 
L 126.138182 241.80271 
L 129.745455 241.759318 
L 133.352727 241.714832 
L 136.96 241.669251 
L 140.567273 241.622573 
L 144.174545 241.574798 
L 147.781818 241.525923 
L 151.389091 241.475948 
L 154.996364 241.424872 
L 158.603636 241.372693 
L 162.210909 241.31941 
L 165.818182 241.265022 
L 169.425455 241.209528 
L 173.032727 241.152926 
L 176.64 241.095215 
L 180.247273 241.036394 
L 183.854545 240.976462 
L 187.461818 240.915417 
L 191.069091 240.853258 
L 194.676364 240.789984 
L 198.283636 240.725593 
L 201.890909 240.660084 
L 205.498182 240.593457 
L 209.105455 240.525709 
L 212.712727 240.456839 
L 216.32 240.386846 
L 216.464344 240.384 
L 219.927273 240.315759 
L 223.534545 240.243548 
L 227.141818 240.170211 
L 230.749091 240.095745 
L 234.356364 240.020151 
L 237.963636 239.943425 
L 241.570909 239.865568 
L 245.178182 239.786577 
L 248.785455 239.706451 
L 252.392727 239.625189 
L 256 239.542789 
L 259.607273 239.459251 
L 263.214545 239.374571 
L 266.821818 239.28875 
L 270.429091 239.201786 
L 274.036364 239.113677 
L 277.643636 239.024421 
L 281.250909 238.934018 
L 284.858182 238.842466 
L 288.465455 238.749763 
L 292.072727 238.655909 
L 295.68 238.5609 
L 299.287273 238.464737 
L 302.894545 238.367417 
L 306.501818 238.268939 
L 310.109091 238.169302 
L 313.716364 238.068503 
L 317.323636 237.966542 
L 320.930909 237.863417 
L 324.538182 237.759126 
L 326.697616 237.696 
L 328.145455 237.653687 
L 331.752727 237.547107 
L 335.36 237.439357 
L 338.967273 237.330436 
L 342.574545 237.220342 
L 346.181818 237.109073 
L 349.789091 236.996629 
L 353.396364 236.883007 
L 357.003636 236.768206 
L 360.610909 236.652224 
L 364.218182 236.53506 
L 367.825455 236.416712 
L 371.432727 236.297178 
L 375.04 236.176457 
L 378.647273 236.054547 
L 382.254545 235.931446 
L 385.861818 235.807153 
L 389.469091 235.681667 
L 393.076364 235.554985 
L 396.683636 235.427106 
L 400.290909 235.298027 
L 403.898182 235.167749 
L 407.505455 235.036268 
L 408.274147 235.008 
L 411.112727 234.903627 
L 414.72 234.769793 
L 414.72 232.32 
L 414.72 229.632 
L 414.72 226.944 
L 414.72 224.256 
L 414.72 221.568 
L 414.72 218.88 
L 414.72 216.192 
L 414.72 213.504 
L 414.72 210.816 
L 414.72 208.128 
L 414.72 205.44 
L 414.72 202.752 
L 414.72 200.064 
L 414.72 197.376 
L 414.72 194.688 
L 414.72 192 
L 414.72 191.932744 
L 413.058955 192 
L 411.112727 192.078787 
L 407.505455 192.223398 
L 403.898182 192.366572 
L 400.290909 192.50831 
L 396.683636 192.648616 
L 393.076364 192.787489 
L 389.469091 192.924933 
L 385.861818 193.060949 
L 382.254545 193.195539 
L 378.647273 193.328705 
L 375.04 193.460448 
L 371.432727 193.59077 
L 367.825455 193.719674 
L 364.218182 193.84716 
L 360.610909 193.973231 
L 357.003636 194.097888 
L 353.396364 194.221133 
L 349.789091 194.342968 
L 346.181818 194.463394 
L 342.574545 194.582413 
L 339.336208 194.688 
L 338.967273 194.700028 
L 335.36 194.816251 
L 331.752727 194.931072 
L 328.145455 195.044492 
L 324.538182 195.156513 
L 320.930909 195.267138 
L 317.323636 195.376366 
L 313.716364 195.484201 
L 310.109091 195.590643 
L 306.501818 195.695694 
L 302.894545 195.799357 
L 299.287273 195.901631 
L 295.68 196.00252 
L 292.072727 196.102024 
L 288.465455 196.200144 
L 284.858182 196.296884 
L 281.250909 196.392243 
L 277.643636 196.486224 
L 274.036364 196.578828 
L 270.429091 196.670056 
L 266.821818 196.759911 
L 263.214545 196.848392 
L 259.607273 196.935503 
L 256 197.021244 
L 252.392727 197.105617 
L 248.785455 197.188622 
L 245.178182 197.270263 
L 241.570909 197.350539 
L 240.407073 197.376 
L 237.963636 197.429459 
L 234.356364 197.507021 
L 230.749091 197.583223 
L 227.141818 197.658066 
L 223.534545 197.731551 
L 219.927273 197.803681 
L 216.32 197.874455 
L 212.712727 197.943876 
L 209.105455 198.011946 
L 205.498182 198.078664 
L 201.890909 198.144033 
L 198.283636 198.208053 
L 194.676364 198.270727 
L 191.069091 198.332055 
L 187.461818 198.392038 
L 183.854545 198.450678 
L 180.247273 198.507976 
L 176.64 198.563933 
L 173.032727 198.61855 
L 169.425455 198.671829 
L 165.818182 198.723771 
L 162.210909 198.774377 
L 158.603636 198.823648 
L 154.996364 198.871585 
L 151.389091 198.918189 
L 147.781818 198.963462 
L 144.174545 199.007404 
L 140.567273 199.050017 
L 136.96 199.091302 
L 133.352727 199.13126 
L 129.745455 199.169892 
L 126.138182 199.207199 
L 122.530909 199.243182 
L 118.923636 199.277842 
L 115.316364 199.31118 
L 111.709091 199.343198 
L 108.101818 199.373895 
L 104.494545 199.403274 
L 100.887273 199.431336 
L 97.28 199.45808 
L 93.672727 199.483509 
L 90.065455 199.507622 
L 86.458182 199.530422 
L 82.850909 199.551909 
L 79.243636 199.572084 
L 75.636364 199.590948 
L 72.029091 199.608501 
L 68.421818 199.624746 
L 64.814545 199.639681 
L 61.207273 199.65331 
L 57.6 199.665632 
L 57.6 200.064 
L 57.6 202.752 
L 57.6 205.44 
L 57.6 208.128 
L 57.6 210.816 
L 57.6 213.504 
L 57.6 216.192 
L 57.6 218.88 
L 57.6 221.568 
L 57.6 224.256 
L 57.6 226.944 
L 57.6 229.632 
L 57.6 232.32 
L 57.6 235.008 
L 57.6 237.696 
L 57.6 240.384 
L 57.6 242.420765 
z
" clip-path="url(#p6b7fa78fb1)" style="fill: #2e6e8e; fill-opacity: 0.75"/>
   </g>
   <g id="PathCollection_4">
    <path d="M 61.207273 199.65331 
L 64.814545 199.639681 
L 68.421818 199.624746 
L 72.029091 199.608501 
L 75.636364 199.590948 
L 79.243636 199.572084 
L 82.850909 199.551909 
L 86.458182 199.530422 
L 90.065455 199.507622 
L 93.672727 199.483509 
L 97.28 199.45808 
L 100.887273 199.431336 
L 104.494545 199.403274 
L 108.101818 199.373895 
L 111.709091 199.343198 
L 115.316364 199.31118 
L 118.923636 199.277842 
L 122.530909 199.243182 
L 126.138182 199.207199 
L 129.745455 199.169892 
L 133.352727 199.13126 
L 136.96 199.091302 
L 140.567273 199.050017 
L 144.174545 199.007404 
L 147.781818 198.963462 
L 151.389091 198.918189 
L 154.996364 198.871585 
L 158.603636 198.823648 
L 162.210909 198.774377 
L 165.818182 198.723771 
L 169.425455 198.671829 
L 173.032727 198.61855 
L 176.64 198.563933 
L 180.247273 198.507976 
L 183.854545 198.450678 
L 187.461818 198.392038 
L 191.069091 198.332055 
L 194.676364 198.270727 
L 198.283636 198.208053 
L 201.890909 198.144033 
L 205.498182 198.078664 
L 209.105455 198.011946 
L 212.712727 197.943876 
L 216.32 197.874455 
L 219.927273 197.803681 
L 223.534545 197.731551 
L 227.141818 197.658066 
L 230.749091 197.583223 
L 234.356364 197.507021 
L 237.963636 197.429459 
L 240.407073 197.376 
L 241.570909 197.350539 
L 245.178182 197.270263 
L 248.785455 197.188622 
L 252.392727 197.105617 
L 256 197.021244 
L 259.607273 196.935503 
L 263.214545 196.848392 
L 266.821818 196.759911 
L 270.429091 196.670056 
L 274.036364 196.578828 
L 277.643636 196.486224 
L 281.250909 196.392243 
L 284.858182 196.296884 
L 288.465455 196.200144 
L 292.072727 196.102024 
L 295.68 196.00252 
L 299.287273 195.901631 
L 302.894545 195.799357 
L 306.501818 195.695694 
L 310.109091 195.590643 
L 313.716364 195.484201 
L 317.323636 195.376366 
L 320.930909 195.267138 
L 324.538182 195.156513 
L 328.145455 195.044492 
L 331.752727 194.931072 
L 335.36 194.816251 
L 338.967273 194.700028 
L 339.336208 194.688 
L 342.574545 194.582413 
L 346.181818 194.463394 
L 349.789091 194.342968 
L 353.396364 194.221133 
L 357.003636 194.097888 
L 360.610909 193.973231 
L 364.218182 193.84716 
L 367.825455 193.719674 
L 371.432727 193.59077 
L 375.04 193.460448 
L 378.647273 193.328705 
L 382.254545 193.195539 
L 385.861818 193.060949 
L 389.469091 192.924933 
L 393.076364 192.787489 
L 396.683636 192.648616 
L 400.290909 192.50831 
L 403.898182 192.366572 
L 407.505455 192.223398 
L 411.112727 192.078787 
L 413.058955 192 
L 414.72 191.932744 
L 414.72 189.312 
L 414.72 186.624 
L 414.72 183.936 
L 414.72 181.248 
L 414.72 178.56 
L 414.72 175.872 
L 414.72 173.184 
L 414.72 170.496 
L 414.72 167.808 
L 414.72 165.12 
L 414.72 162.432 
L 414.72 159.744 
L 414.72 157.056 
L 414.72 154.368 
L 414.72 151.68 
L 414.72 149.157846 
L 411.112727 149.316593 
L 407.505455 149.473662 
L 403.898182 149.629057 
L 400.290909 149.782778 
L 396.683636 149.934828 
L 393.076364 150.085209 
L 389.469091 150.233923 
L 385.861818 150.380971 
L 382.254545 150.526356 
L 378.647273 150.67008 
L 375.04 150.812144 
L 371.432727 150.952551 
L 367.825455 151.091302 
L 364.218182 151.2284 
L 360.610909 151.363845 
L 357.003636 151.497641 
L 353.396364 151.629788 
L 352.008575 151.68 
L 349.789091 151.760271 
L 346.181818 151.889098 
L 342.574545 152.016283 
L 338.967273 152.141827 
L 335.36 152.265732 
L 331.752727 152.388 
L 328.145455 152.508633 
L 324.538182 152.627631 
L 320.930909 152.744998 
L 317.323636 152.860734 
L 313.716364 152.974842 
L 310.109091 153.087322 
L 306.501818 153.198177 
L 302.894545 153.307408 
L 299.287273 153.415017 
L 295.68 153.521006 
L 292.072727 153.625376 
L 288.465455 153.728128 
L 284.858182 153.829264 
L 281.250909 153.928787 
L 277.643636 154.026696 
L 274.036364 154.122995 
L 270.429091 154.217683 
L 266.821818 154.310764 
L 264.564768 154.368 
L 263.214545 154.402231 
L 259.607273 154.492081 
L 256 154.580327 
L 252.392727 154.666972 
L 248.785455 154.752016 
L 245.178182 154.835461 
L 241.570909 154.917308 
L 237.963636 154.997559 
L 234.356364 155.076214 
L 230.749091 155.153276 
L 227.141818 155.228746 
L 223.534545 155.302625 
L 219.927273 155.374914 
L 216.32 155.445614 
L 212.712727 155.514728 
L 209.105455 155.582256 
L 205.498182 155.648199 
L 201.890909 155.712559 
L 198.283636 155.775337 
L 194.676364 155.836534 
L 191.069091 155.896152 
L 187.461818 155.954191 
L 183.854545 156.010652 
L 180.247273 156.065538 
L 176.64 156.118849 
L 173.032727 156.170586 
L 169.425455 156.22075 
L 165.818182 156.269343 
L 162.210909 156.316365 
L 158.603636 156.361818 
L 154.996364 156.405702 
L 151.389091 156.44802 
L 147.781818 156.488771 
L 144.174545 156.527956 
L 140.567273 156.565578 
L 136.96 156.601636 
L 133.352727 156.636133 
L 129.745455 156.669068 
L 126.138182 156.700442 
L 122.530909 156.730258 
L 118.923636 156.758514 
L 115.316364 156.785214 
L 111.709091 156.810357 
L 108.101818 156.833944 
L 104.494545 156.855976 
L 100.887273 156.876454 
L 97.28 156.895379 
L 93.672727 156.912752 
L 90.065455 156.928574 
L 86.458182 156.942844 
L 82.850909 156.955565 
L 79.243636 156.966737 
L 75.636364 156.97636 
L 72.029091 156.984435 
L 68.421818 156.990964 
L 64.814545 156.995947 
L 61.207273 156.999384 
L 57.6 157.001276 
L 57.6 157.056 
L 57.6 159.744 
L 57.6 162.432 
L 57.6 165.12 
L 57.6 167.808 
L 57.6 170.496 
L 57.6 173.184 
L 57.6 175.872 
L 57.6 178.56 
L 57.6 181.248 
L 57.6 183.936 
L 57.6 186.624 
L 57.6 189.312 
L 57.6 192 
L 57.6 194.688 
L 57.6 197.376 
L 57.6 199.665632 
z
" clip-path="url(#p6b7fa78fb1)" style="fill: #21908d; fill-opacity: 0.75"/>
   </g>
   <g id="PathCollection_5">
    <path d="M 61.207273 156.999384 
L 64.814545 156.995947 
L 68.421818 156.990964 
L 72.029091 156.984435 
L 75.636364 156.97636 
L 79.243636 156.966737 
L 82.850909 156.955565 
L 86.458182 156.942844 
L 90.065455 156.928574 
L 93.672727 156.912752 
L 97.28 156.895379 
L 100.887273 156.876454 
L 104.494545 156.855976 
L 108.101818 156.833944 
L 111.709091 156.810357 
L 115.316364 156.785214 
L 118.923636 156.758514 
L 122.530909 156.730258 
L 126.138182 156.700442 
L 129.745455 156.669068 
L 133.352727 156.636133 
L 136.96 156.601636 
L 140.567273 156.565578 
L 144.174545 156.527956 
L 147.781818 156.488771 
L 151.389091 156.44802 
L 154.996364 156.405702 
L 158.603636 156.361818 
L 162.210909 156.316365 
L 165.818182 156.269343 
L 169.425455 156.22075 
L 173.032727 156.170586 
L 176.64 156.118849 
L 180.247273 156.065538 
L 183.854545 156.010652 
L 187.461818 155.954191 
L 191.069091 155.896152 
L 194.676364 155.836534 
L 198.283636 155.775337 
L 201.890909 155.712559 
L 205.498182 155.648199 
L 209.105455 155.582256 
L 212.712727 155.514728 
L 216.32 155.445614 
L 219.927273 155.374914 
L 223.534545 155.302625 
L 227.141818 155.228746 
L 230.749091 155.153276 
L 234.356364 155.076214 
L 237.963636 154.997559 
L 241.570909 154.917308 
L 245.178182 154.835461 
L 248.785455 154.752016 
L 252.392727 154.666972 
L 256 154.580327 
L 259.607273 154.492081 
L 263.214545 154.402231 
L 264.564768 154.368 
L 266.821818 154.310764 
L 270.429091 154.217683 
L 274.036364 154.122995 
L 277.643636 154.026696 
L 281.250909 153.928787 
L 284.858182 153.829264 
L 288.465455 153.728128 
L 292.072727 153.625376 
L 295.68 153.521006 
L 299.287273 153.415017 
L 302.894545 153.307408 
L 306.501818 153.198177 
L 310.109091 153.087322 
L 313.716364 152.974842 
L 317.323636 152.860734 
L 320.930909 152.744998 
L 324.538182 152.627631 
L 328.145455 152.508633 
L 331.752727 152.388 
L 335.36 152.265732 
L 338.967273 152.141827 
L 342.574545 152.016283 
L 346.181818 151.889098 
L 349.789091 151.760271 
L 352.008575 151.68 
L 353.396364 151.629788 
L 357.003636 151.497641 
L 360.610909 151.363845 
L 364.218182 151.2284 
L 367.825455 151.091302 
L 371.432727 150.952551 
L 375.04 150.812144 
L 378.647273 150.67008 
L 382.254545 150.526356 
L 385.861818 150.380971 
L 389.469091 150.233923 
L 393.076364 150.085209 
L 396.683636 149.934828 
L 400.290909 149.782778 
L 403.898182 149.629057 
L 407.505455 149.473662 
L 411.112727 149.316593 
L 414.72 149.157846 
L 414.72 148.992 
L 414.72 146.304 
L 414.72 143.616 
L 414.72 140.928 
L 414.72 138.24 
L 414.72 135.552 
L 414.72 132.864 
L 414.72 130.176 
L 414.72 127.488 
L 414.72 124.8 
L 414.72 122.112 
L 414.72 119.424 
L 414.72 116.736 
L 414.72 114.048 
L 414.72 111.36 
L 414.72 108.672 
L 414.72 106.221125 
L 411.112727 106.393311 
L 407.505455 106.563573 
L 403.898182 106.731912 
L 400.290909 106.898332 
L 396.683636 107.062834 
L 393.076364 107.225421 
L 389.469091 107.386094 
L 385.861818 107.544856 
L 382.254545 107.701708 
L 378.647273 107.856654 
L 375.04 108.009694 
L 371.432727 108.160831 
L 367.825455 108.310067 
L 364.218182 108.457403 
L 360.610909 108.602843 
L 358.873181 108.672 
L 357.003636 108.746346 
L 353.396364 108.887919 
L 349.789091 109.027602 
L 346.181818 109.165396 
L 342.574545 109.301304 
L 338.967273 109.435327 
L 335.36 109.567467 
L 331.752727 109.697726 
L 328.145455 109.826106 
L 324.538182 109.952609 
L 320.930909 110.077236 
L 317.323636 110.199989 
L 313.716364 110.32087 
L 310.109091 110.439881 
L 306.501818 110.557024 
L 302.894545 110.672299 
L 299.287273 110.785709 
L 295.68 110.897256 
L 292.072727 111.006941 
L 288.465455 111.114765 
L 284.858182 111.220731 
L 281.250909 111.32484 
L 280.010615 111.36 
L 277.643636 111.427057 
L 274.036364 111.527403 
L 270.429091 111.625897 
L 266.821818 111.722541 
L 263.214545 111.817337 
L 259.607273 111.910285 
L 256 112.001389 
L 252.392727 112.090648 
L 248.785455 112.178065 
L 245.178182 112.263641 
L 241.570909 112.347376 
L 237.963636 112.429274 
L 234.356364 112.509335 
L 230.749091 112.58756 
L 227.141818 112.66395 
L 223.534545 112.738508 
L 219.927273 112.811234 
L 216.32 112.88213 
L 212.712727 112.951196 
L 209.105455 113.018435 
L 205.498182 113.083847 
L 201.890909 113.147434 
L 198.283636 113.209196 
L 194.676364 113.269135 
L 191.069091 113.327253 
L 187.461818 113.383549 
L 183.854545 113.438026 
L 180.247273 113.490685 
L 176.64 113.541526 
L 173.032727 113.59055 
L 169.425455 113.63776 
L 165.818182 113.683155 
L 162.210909 113.726736 
L 158.603636 113.768506 
L 154.996364 113.808464 
L 151.389091 113.846612 
L 147.781818 113.882951 
L 144.174545 113.917481 
L 140.567273 113.950204 
L 136.96 113.98112 
L 133.352727 114.010231 
L 129.745455 114.037536 
L 128.265184 114.048 
L 126.138182 114.06303 
L 122.530909 114.086716 
L 118.923636 114.108601 
L 115.316364 114.128685 
L 111.709091 114.146969 
L 108.101818 114.163454 
L 104.494545 114.17814 
L 100.887273 114.191029 
L 97.28 114.202122 
L 93.672727 114.211417 
L 90.065455 114.218918 
L 86.458182 114.224623 
L 82.850909 114.228534 
L 79.243636 114.230652 
L 75.636364 114.230976 
L 72.029091 114.229508 
L 68.421818 114.226248 
L 64.814545 114.221197 
L 61.207273 114.214355 
L 57.6 114.205722 
L 57.6 116.736 
L 57.6 119.424 
L 57.6 122.112 
L 57.6 124.8 
L 57.6 127.488 
L 57.6 130.176 
L 57.6 132.864 
L 57.6 135.552 
L 57.6 138.24 
L 57.6 140.928 
L 57.6 143.616 
L 57.6 146.304 
L 57.6 148.992 
L 57.6 151.68 
L 57.6 154.368 
L 57.6 157.001276 
z
" clip-path="url(#p6b7fa78fb1)" style="fill: #2db27d; fill-opacity: 0.75"/>
   </g>
   <g id="PathCollection_6">
    <path d="M 61.207273 114.214355 
L 64.814545 114.221197 
L 68.421818 114.226248 
L 72.029091 114.229508 
L 75.636364 114.230976 
L 79.243636 114.230652 
L 82.850909 114.228534 
L 86.458182 114.224623 
L 90.065455 114.218918 
L 93.672727 114.211417 
L 97.28 114.202122 
L 100.887273 114.191029 
L 104.494545 114.17814 
L 108.101818 114.163454 
L 111.709091 114.146969 
L 115.316364 114.128685 
L 118.923636 114.108601 
L 122.530909 114.086716 
L 126.138182 114.06303 
L 128.265184 114.048 
L 129.745455 114.037536 
L 133.352727 114.010231 
L 136.96 113.98112 
L 140.567273 113.950204 
L 144.174545 113.917481 
L 147.781818 113.882951 
L 151.389091 113.846612 
L 154.996364 113.808464 
L 158.603636 113.768506 
L 162.210909 113.726736 
L 165.818182 113.683155 
L 169.425455 113.63776 
L 173.032727 113.59055 
L 176.64 113.541526 
L 180.247273 113.490685 
L 183.854545 113.438026 
L 187.461818 113.383549 
L 191.069091 113.327253 
L 194.676364 113.269135 
L 198.283636 113.209196 
L 201.890909 113.147434 
L 205.498182 113.083847 
L 209.105455 113.018435 
L 212.712727 112.951196 
L 216.32 112.88213 
L 219.927273 112.811234 
L 223.534545 112.738508 
L 227.141818 112.66395 
L 230.749091 112.58756 
L 234.356364 112.509335 
L 237.963636 112.429274 
L 241.570909 112.347376 
L 245.178182 112.263641 
L 248.785455 112.178065 
L 252.392727 112.090648 
L 256 112.001389 
L 259.607273 111.910285 
L 263.214545 111.817337 
L 266.821818 111.722541 
L 270.429091 111.625897 
L 274.036364 111.527403 
L 277.643636 111.427057 
L 280.010615 111.36 
L 281.250909 111.32484 
L 284.858182 111.220731 
L 288.465455 111.114765 
L 292.072727 111.006941 
L 295.68 110.897256 
L 299.287273 110.785709 
L 302.894545 110.672299 
L 306.501818 110.557024 
L 310.109091 110.439881 
L 313.716364 110.32087 
L 317.323636 110.199989 
L 320.930909 110.077236 
L 324.538182 109.952609 
L 328.145455 109.826106 
L 331.752727 109.697726 
L 335.36 109.567467 
L 338.967273 109.435327 
L 342.574545 109.301304 
L 346.181818 109.165396 
L 349.789091 109.027602 
L 353.396364 108.887919 
L 357.003636 108.746346 
L 358.873181 108.672 
L 360.610909 108.602843 
L 364.218182 108.457403 
L 367.825455 108.310067 
L 371.432727 108.160831 
L 375.04 108.009694 
L 378.647273 107.856654 
L 382.254545 107.701708 
L 385.861818 107.544856 
L 389.469091 107.386094 
L 393.076364 107.225421 
L 396.683636 107.062834 
L 400.290909 106.898332 
L 403.898182 106.731912 
L 407.505455 106.563573 
L 411.112727 106.393311 
L 414.72 106.221125 
L 414.72 105.984 
L 414.72 103.296 
L 414.72 100.608 
L 414.72 97.92 
L 414.72 95.232 
L 414.72 92.544 
L 414.72 89.856 
L 414.72 87.168 
L 414.72 84.48 
L 414.72 81.792 
L 414.72 79.104 
L 414.72 76.416 
L 414.72 73.728 
L 414.72 71.04 
L 414.72 68.352 
L 414.72 65.664 
L 414.72 62.976 
L 414.72 62.890613 
L 413.070963 62.976 
L 411.112727 63.077277 
L 407.505455 63.261681 
L 403.898182 63.443902 
L 400.290909 63.623945 
L 396.683636 63.80181 
L 393.076364 63.977501 
L 389.469091 64.151019 
L 385.861818 64.322367 
L 382.254545 64.491546 
L 378.647273 64.65856 
L 375.04 64.823411 
L 371.432727 64.9861 
L 367.825455 65.14663 
L 364.218182 65.305002 
L 360.610909 65.461219 
L 357.003636 65.615284 
L 355.846994 65.664 
L 353.396364 65.767105 
L 349.789091 65.916736 
L 346.181818 66.064222 
L 342.574545 66.209565 
L 338.967273 66.352767 
L 335.36 66.493829 
L 331.752727 66.632755 
L 328.145455 66.769545 
L 324.538182 66.904201 
L 320.930909 67.036726 
L 317.323636 67.167121 
L 313.716364 67.295388 
L 310.109091 67.421529 
L 306.501818 67.545546 
L 302.894545 67.667441 
L 299.287273 67.787214 
L 295.68 67.904868 
L 292.072727 68.020405 
L 288.465455 68.133826 
L 284.858182 68.245133 
L 281.327814 68.352 
L 281.250909 68.354326 
L 277.643636 68.461316 
L 274.036364 68.566199 
L 270.429091 68.668976 
L 266.821818 68.769648 
L 263.214545 68.868218 
L 259.607273 68.964687 
L 256 69.059055 
L 252.392727 69.151326 
L 248.785455 69.241499 
L 245.178182 69.329577 
L 241.570909 69.415562 
L 237.963636 69.499453 
L 234.356364 69.581253 
L 230.749091 69.660963 
L 227.141818 69.738585 
L 223.534545 69.814119 
L 219.927273 69.887568 
L 216.32 69.958931 
L 212.712727 70.028211 
L 209.105455 70.095409 
L 205.498182 70.160525 
L 201.890909 70.223562 
L 198.283636 70.28452 
L 194.676364 70.3434 
L 191.069091 70.400203 
L 187.461818 70.454932 
L 183.854545 70.507585 
L 180.247273 70.558166 
L 176.64 70.606674 
L 173.032727 70.653111 
L 169.425455 70.697477 
L 165.818182 70.739775 
L 162.210909 70.780004 
L 158.603636 70.818165 
L 154.996364 70.85426 
L 151.389091 70.888289 
L 147.781818 70.920253 
L 144.174545 70.950154 
L 140.567273 70.977991 
L 136.96 71.003766 
L 133.352727 71.027479 
L 131.266691 71.04 
L 129.745455 71.049124 
L 126.138182 71.0687 
L 122.530909 71.086218 
L 118.923636 71.101679 
L 115.316364 71.115084 
L 111.709091 71.126433 
L 108.101818 71.135727 
L 104.494545 71.142967 
L 100.887273 71.148154 
L 97.28 71.151287 
L 93.672727 71.152367 
L 90.065455 71.151395 
L 86.458182 71.148372 
L 82.850909 71.143297 
L 79.243636 71.136172 
L 75.636364 71.126997 
L 72.029091 71.115771 
L 68.421818 71.102497 
L 64.814545 71.087173 
L 61.207273 71.069801 
L 57.6 71.05038 
L 57.6 73.728 
L 57.6 76.416 
L 57.6 79.104 
L 57.6 81.792 
L 57.6 84.48 
L 57.6 87.168 
L 57.6 89.856 
L 57.6 92.544 
L 57.6 95.232 
L 57.6 97.92 
L 57.6 100.608 
L 57.6 103.296 
L 57.6 105.984 
L 57.6 108.672 
L 57.6 111.36 
L 57.6 114.048 
L 57.6 114.205722 
z
" clip-path="url(#p6b7fa78fb1)" style="fill: #73d056; fill-opacity: 0.75"/>
   </g>
   <g id="PathCollection_7">
    <path d="M 61.207273 71.069801 
L 64.814545 71.087173 
L 68.421818 71.102497 
L 72.029091 71.115771 
L 75.636364 71.126997 
L 79.243636 71.136172 
L 82.850909 71.143297 
L 86.458182 71.148372 
L 90.065455 71.151395 
L 93.672727 71.152367 
L 97.28 71.151287 
L 100.887273 71.148154 
L 104.494545 71.142967 
L 108.101818 71.135727 
L 111.709091 71.126433 
L 115.316364 71.115084 
L 118.923636 71.101679 
L 122.530909 71.086218 
L 126.138182 71.0687 
L 129.745455 71.049124 
L 131.266691 71.04 
L 133.352727 71.027479 
L 136.96 71.003766 
L 140.567273 70.977991 
L 144.174545 70.950154 
L 147.781818 70.920253 
L 151.389091 70.888289 
L 154.996364 70.85426 
L 158.603636 70.818165 
L 162.210909 70.780004 
L 165.818182 70.739775 
L 169.425455 70.697477 
L 173.032727 70.653111 
L 176.64 70.606674 
L 180.247273 70.558166 
L 183.854545 70.507585 
L 187.461818 70.454932 
L 191.069091 70.400203 
L 194.676364 70.3434 
L 198.283636 70.28452 
L 201.890909 70.223562 
L 205.498182 70.160525 
L 209.105455 70.095409 
L 212.712727 70.028211 
L 216.32 69.958931 
L 219.927273 69.887568 
L 223.534545 69.814119 
L 227.141818 69.738585 
L 230.749091 69.660963 
L 234.356364 69.581253 
L 237.963636 69.499453 
L 241.570909 69.415562 
L 245.178182 69.329577 
L 248.785455 69.241499 
L 252.392727 69.151326 
L 256 69.059055 
L 259.607273 68.964687 
L 263.214545 68.868218 
L 266.821818 68.769648 
L 270.429091 68.668976 
L 274.036364 68.566199 
L 277.643636 68.461316 
L 281.250909 68.354326 
L 281.327814 68.352 
L 284.858182 68.245133 
L 288.465455 68.133826 
L 292.072727 68.020405 
L 295.68 67.904868 
L 299.287273 67.787214 
L 302.894545 67.667441 
L 306.501818 67.545546 
L 310.109091 67.421529 
L 313.716364 67.295388 
L 317.323636 67.167121 
L 320.930909 67.036726 
L 324.538182 66.904201 
L 328.145455 66.769545 
L 331.752727 66.632755 
L 335.36 66.493829 
L 338.967273 66.352767 
L 342.574545 66.209565 
L 346.181818 66.064222 
L 349.789091 65.916736 
L 353.396364 65.767105 
L 355.846994 65.664 
L 357.003636 65.615284 
L 360.610909 65.461219 
L 364.218182 65.305002 
L 367.825455 65.14663 
L 371.432727 64.9861 
L 375.04 64.823411 
L 378.647273 64.65856 
L 382.254545 64.491546 
L 385.861818 64.322367 
L 389.469091 64.151019 
L 393.076364 63.977501 
L 396.683636 63.80181 
L 400.290909 63.623945 
L 403.898182 63.443902 
L 407.505455 63.261681 
L 411.112727 63.077277 
L 413.070963 62.976 
L 414.72 62.890613 
L 414.72 60.288 
L 414.72 57.6 
L 414.72 54.912 
L 414.72 52.224 
L 414.72 49.536 
L 414.72 46.848 
L 414.72 44.16 
L 414.72 41.472 
L 411.112727 41.472 
L 407.505455 41.472 
L 403.898182 41.472 
L 400.290909 41.472 
L 396.683636 41.472 
L 393.076364 41.472 
L 389.469091 41.472 
L 385.861818 41.472 
L 382.254545 41.472 
L 378.647273 41.472 
L 375.04 41.472 
L 371.432727 41.472 
L 367.825455 41.472 
L 364.218182 41.472 
L 360.610909 41.472 
L 357.003636 41.472 
L 353.396364 41.472 
L 349.789091 41.472 
L 346.181818 41.472 
L 342.574545 41.472 
L 338.967273 41.472 
L 335.36 41.472 
L 331.752727 41.472 
L 328.145455 41.472 
L 324.538182 41.472 
L 320.930909 41.472 
L 317.323636 41.472 
L 313.716364 41.472 
L 310.109091 41.472 
L 306.501818 41.472 
L 302.894545 41.472 
L 299.287273 41.472 
L 295.68 41.472 
L 292.072727 41.472 
L 288.465455 41.472 
L 284.858182 41.472 
L 281.250909 41.472 
L 277.643636 41.472 
L 274.036364 41.472 
L 270.429091 41.472 
L 266.821818 41.472 
L 263.214545 41.472 
L 259.607273 41.472 
L 256 41.472 
L 252.392727 41.472 
L 248.785455 41.472 
L 245.178182 41.472 
L 241.570909 41.472 
L 237.963636 41.472 
L 234.356364 41.472 
L 230.749091 41.472 
L 227.141818 41.472 
L 223.534545 41.472 
L 219.927273 41.472 
L 216.32 41.472 
L 212.712727 41.472 
L 209.105455 41.472 
L 205.498182 41.472 
L 201.890909 41.472 
L 198.283636 41.472 
L 194.676364 41.472 
L 191.069091 41.472 
L 187.461818 41.472 
L 183.854545 41.472 
L 180.247273 41.472 
L 176.64 41.472 
L 173.032727 41.472 
L 169.425455 41.472 
L 165.818182 41.472 
L 162.210909 41.472 
L 158.603636 41.472 
L 154.996364 41.472 
L 151.389091 41.472 
L 147.781818 41.472 
L 144.174545 41.472 
L 140.567273 41.472 
L 136.96 41.472 
L 133.352727 41.472 
L 129.745455 41.472 
L 126.138182 41.472 
L 122.530909 41.472 
L 118.923636 41.472 
L 115.316364 41.472 
L 111.709091 41.472 
L 108.101818 41.472 
L 104.494545 41.472 
L 100.887273 41.472 
L 97.28 41.472 
L 93.672727 41.472 
L 90.065455 41.472 
L 86.458182 41.472 
L 82.850909 41.472 
L 79.243636 41.472 
L 75.636364 41.472 
L 72.029091 41.472 
L 68.421818 41.472 
L 64.814545 41.472 
L 61.207273 41.472 
L 57.6 41.472 
L 57.6 44.16 
L 57.6 46.848 
L 57.6 49.536 
L 57.6 52.224 
L 57.6 54.912 
L 57.6 57.6 
L 57.6 60.288 
L 57.6 62.976 
L 57.6 65.664 
L 57.6 68.352 
L 57.6 71.04 
L 57.6 71.05038 
z
" clip-path="url(#p6b7fa78fb1)" style="fill: #d0e11c; fill-opacity: 0.75"/>
   </g>
   <g id="matplotlib.axis_1">
    <g id="xtick_1">
     <g id="line2d_1">
      <defs>
       <path id="madfcbd4aa8" d="M 0 0 
L 0 3.5 
" style="stroke: #000000; stroke-width: 0.8"/>
      </defs>
      <g>
       <use xlink:href="#madfcbd4aa8" x="117.804183" y="307.584" style="stroke: #000000; stroke-width: 0.8"/>
      </g>
     </g>
     <g id="text_1">
      <!-- 5 -->
      <g transform="translate(114.622933 322.182437) scale(0.1 -0.1)">
       <defs>
        <path id="DejaVuSans-35" d="M 691 4666 
L 3169 4666 
L 3169 4134 
L 1269 4134 
L 1269 2991 
Q 1406 3038 1543 3061 
Q 1681 3084 1819 3084 
Q 2600 3084 3056 2656 
Q 3513 2228 3513 1497 
Q 3513 744 3044 326 
Q 2575 -91 1722 -91 
Q 1428 -91 1123 -41 
Q 819 9 494 109 
L 494 744 
Q 775 591 1075 516 
Q 1375 441 1709 441 
Q 2250 441 2565 725 
Q 2881 1009 2881 1497 
Q 2881 1984 2565 2268 
Q 2250 2553 1709 2553 
Q 1456 2553 1204 2497 
Q 953 2441 691 2322 
L 691 4666 
z
" transform="scale(0.015625)"/>
       </defs>
       <use xlink:href="#DejaVuSans-35"/>
      </g>
     </g>
    </g>
    <g id="xtick_2">
     <g id="line2d_2">
      <g>
       <use xlink:href="#madfcbd4aa8" x="191.10949" y="307.584" style="stroke: #000000; stroke-width: 0.8"/>
      </g>
     </g>
     <g id="text_2">
      <!-- 10 -->
      <g transform="translate(184.74699 322.182437) scale(0.1 -0.1)">
       <defs>
        <path id="DejaVuSans-31" d="M 794 531 
L 1825 531 
L 1825 4091 
L 703 3866 
L 703 4441 
L 1819 4666 
L 2450 4666 
L 2450 531 
L 3481 531 
L 3481 0 
L 794 0 
L 794 531 
z
" transform="scale(0.015625)"/>
        <path id="DejaVuSans-30" d="M 2034 4250 
Q 1547 4250 1301 3770 
Q 1056 3291 1056 2328 
Q 1056 1369 1301 889 
Q 1547 409 2034 409 
Q 2525 409 2770 889 
Q 3016 1369 3016 2328 
Q 3016 3291 2770 3770 
Q 2525 4250 2034 4250 
z
M 2034 4750 
Q 2819 4750 3233 4129 
Q 3647 3509 3647 2328 
Q 3647 1150 3233 529 
Q 2819 -91 2034 -91 
Q 1250 -91 836 529 
Q 422 1150 422 2328 
Q 422 3509 836 4129 
Q 1250 4750 2034 4750 
z
" transform="scale(0.015625)"/>
       </defs>
       <use xlink:href="#DejaVuSans-31"/>
       <use xlink:href="#DejaVuSans-30" x="63.623047"/>
      </g>
     </g>
    </g>
    <g id="xtick_3">
     <g id="line2d_3">
      <g>
       <use xlink:href="#madfcbd4aa8" x="264.414798" y="307.584" style="stroke: #000000; stroke-width: 0.8"/>
      </g>
     </g>
     <g id="text_3">
      <!-- 15 -->
      <g transform="translate(258.052298 322.182437) scale(0.1 -0.1)">
       <use xlink:href="#DejaVuSans-31"/>
       <use xlink:href="#DejaVuSans-35" x="63.623047"/>
      </g>
     </g>
    </g>
    <g id="xtick_4">
     <g id="line2d_4">
      <g>
       <use xlink:href="#madfcbd4aa8" x="337.720105" y="307.584" style="stroke: #000000; stroke-width: 0.8"/>
      </g>
     </g>
     <g id="text_4">
      <!-- 20 -->
      <g transform="translate(331.357605 322.182437) scale(0.1 -0.1)">
       <defs>
        <path id="DejaVuSans-32" d="M 1228 531 
L 3431 531 
L 3431 0 
L 469 0 
L 469 531 
Q 828 903 1448 1529 
Q 2069 2156 2228 2338 
Q 2531 2678 2651 2914 
Q 2772 3150 2772 3378 
Q 2772 3750 2511 3984 
Q 2250 4219 1831 4219 
Q 1534 4219 1204 4116 
Q 875 4013 500 3803 
L 500 4441 
Q 881 4594 1212 4672 
Q 1544 4750 1819 4750 
Q 2544 4750 2975 4387 
Q 3406 4025 3406 3419 
Q 3406 3131 3298 2873 
Q 3191 2616 2906 2266 
Q 2828 2175 2409 1742 
Q 1991 1309 1228 531 
z
" transform="scale(0.015625)"/>
       </defs>
       <use xlink:href="#DejaVuSans-32"/>
       <use xlink:href="#DejaVuSans-30" x="63.623047"/>
      </g>
     </g>
    </g>
    <g id="xtick_5">
     <g id="line2d_5">
      <g>
       <use xlink:href="#madfcbd4aa8" x="411.025413" y="307.584" style="stroke: #000000; stroke-width: 0.8"/>
      </g>
     </g>
     <g id="text_5">
      <!-- 25 -->
      <g transform="translate(404.662913 322.182437) scale(0.1 -0.1)">
       <use xlink:href="#DejaVuSans-32"/>
       <use xlink:href="#DejaVuSans-35" x="63.623047"/>
      </g>
     </g>
    </g>
    <g id="text_6">
     <!-- GHG Emissions -->
     <g transform="translate(198.212344 335.860562) scale(0.1 -0.1)">
      <defs>
       <path id="DejaVuSans-47" d="M 3809 666 
L 3809 1919 
L 2778 1919 
L 2778 2438 
L 4434 2438 
L 4434 434 
Q 4069 175 3628 42 
Q 3188 -91 2688 -91 
Q 1594 -91 976 548 
Q 359 1188 359 2328 
Q 359 3472 976 4111 
Q 1594 4750 2688 4750 
Q 3144 4750 3555 4637 
Q 3966 4525 4313 4306 
L 4313 3634 
Q 3963 3931 3569 4081 
Q 3175 4231 2741 4231 
Q 1884 4231 1454 3753 
Q 1025 3275 1025 2328 
Q 1025 1384 1454 906 
Q 1884 428 2741 428 
Q 3075 428 3337 486 
Q 3600 544 3809 666 
z
" transform="scale(0.015625)"/>
       <path id="DejaVuSans-48" d="M 628 4666 
L 1259 4666 
L 1259 2753 
L 3553 2753 
L 3553 4666 
L 4184 4666 
L 4184 0 
L 3553 0 
L 3553 2222 
L 1259 2222 
L 1259 0 
L 628 0 
L 628 4666 
z
" transform="scale(0.015625)"/>
       <path id="DejaVuSans-20" transform="scale(0.015625)"/>
       <path id="DejaVuSans-45" d="M 628 4666 
L 3578 4666 
L 3578 4134 
L 1259 4134 
L 1259 2753 
L 3481 2753 
L 3481 2222 
L 1259 2222 
L 1259 531 
L 3634 531 
L 3634 0 
L 628 0 
L 628 4666 
z
" transform="scale(0.015625)"/>
       <path id="DejaVuSans-6d" d="M 3328 2828 
Q 3544 3216 3844 3400 
Q 4144 3584 4550 3584 
Q 5097 3584 5394 3201 
Q 5691 2819 5691 2113 
L 5691 0 
L 5113 0 
L 5113 2094 
Q 5113 2597 4934 2840 
Q 4756 3084 4391 3084 
Q 3944 3084 3684 2787 
Q 3425 2491 3425 1978 
L 3425 0 
L 2847 0 
L 2847 2094 
Q 2847 2600 2669 2842 
Q 2491 3084 2119 3084 
Q 1678 3084 1418 2786 
Q 1159 2488 1159 1978 
L 1159 0 
L 581 0 
L 581 3500 
L 1159 3500 
L 1159 2956 
Q 1356 3278 1631 3431 
Q 1906 3584 2284 3584 
Q 2666 3584 2933 3390 
Q 3200 3197 3328 2828 
z
" transform="scale(0.015625)"/>
       <path id="DejaVuSans-69" d="M 603 3500 
L 1178 3500 
L 1178 0 
L 603 0 
L 603 3500 
z
M 603 4863 
L 1178 4863 
L 1178 4134 
L 603 4134 
L 603 4863 
z
" transform="scale(0.015625)"/>
       <path id="DejaVuSans-73" d="M 2834 3397 
L 2834 2853 
Q 2591 2978 2328 3040 
Q 2066 3103 1784 3103 
Q 1356 3103 1142 2972 
Q 928 2841 928 2578 
Q 928 2378 1081 2264 
Q 1234 2150 1697 2047 
L 1894 2003 
Q 2506 1872 2764 1633 
Q 3022 1394 3022 966 
Q 3022 478 2636 193 
Q 2250 -91 1575 -91 
Q 1294 -91 989 -36 
Q 684 19 347 128 
L 347 722 
Q 666 556 975 473 
Q 1284 391 1588 391 
Q 1994 391 2212 530 
Q 2431 669 2431 922 
Q 2431 1156 2273 1281 
Q 2116 1406 1581 1522 
L 1381 1569 
Q 847 1681 609 1914 
Q 372 2147 372 2553 
Q 372 3047 722 3315 
Q 1072 3584 1716 3584 
Q 2034 3584 2315 3537 
Q 2597 3491 2834 3397 
z
" transform="scale(0.015625)"/>
       <path id="DejaVuSans-6f" d="M 1959 3097 
Q 1497 3097 1228 2736 
Q 959 2375 959 1747 
Q 959 1119 1226 758 
Q 1494 397 1959 397 
Q 2419 397 2687 759 
Q 2956 1122 2956 1747 
Q 2956 2369 2687 2733 
Q 2419 3097 1959 3097 
z
M 1959 3584 
Q 2709 3584 3137 3096 
Q 3566 2609 3566 1747 
Q 3566 888 3137 398 
Q 2709 -91 1959 -91 
Q 1206 -91 779 398 
Q 353 888 353 1747 
Q 353 2609 779 3096 
Q 1206 3584 1959 3584 
z
" transform="scale(0.015625)"/>
       <path id="DejaVuSans-6e" d="M 3513 2113 
L 3513 0 
L 2938 0 
L 2938 2094 
Q 2938 2591 2744 2837 
Q 2550 3084 2163 3084 
Q 1697 3084 1428 2787 
Q 1159 2491 1159 1978 
L 1159 0 
L 581 0 
L 581 3500 
L 1159 3500 
L 1159 2956 
Q 1366 3272 1645 3428 
Q 1925 3584 2291 3584 
Q 2894 3584 3203 3211 
Q 3513 2838 3513 2113 
z
" transform="scale(0.015625)"/>
      </defs>
      <use xlink:href="#DejaVuSans-47"/>
      <use xlink:href="#DejaVuSans-48" x="77.490234"/>
      <use xlink:href="#DejaVuSans-47" x="152.685547"/>
      <use xlink:href="#DejaVuSans-20" x="230.175781"/>
      <use xlink:href="#DejaVuSans-45" x="261.962891"/>
      <use xlink:href="#DejaVuSans-6d" x="325.146484"/>
      <use xlink:href="#DejaVuSans-69" x="422.558594"/>
      <use xlink:href="#DejaVuSans-73" x="450.341797"/>
      <use xlink:href="#DejaVuSans-73" x="502.441406"/>
      <use xlink:href="#DejaVuSans-69" x="554.541016"/>
      <use xlink:href="#DejaVuSans-6f" x="582.324219"/>
      <use xlink:href="#DejaVuSans-6e" x="643.505859"/>
      <use xlink:href="#DejaVuSans-73" x="706.884766"/>
     </g>
    </g>
   </g>
   <g id="matplotlib.axis_2">
    <g id="ytick_1">
     <g id="line2d_6">
      <defs>
       <path id="mae619788b4" d="M 0 0 
L -3.5 0 
" style="stroke: #000000; stroke-width: 0.8"/>
      </defs>
      <g>
       <use xlink:href="#mae619788b4" x="57.6" y="269.534273" style="stroke: #000000; stroke-width: 0.8"/>
      </g>
     </g>
     <g id="text_7">
      <!-- 20 -->
      <g transform="translate(37.875 273.333492) scale(0.1 -0.1)">
       <use xlink:href="#DejaVuSans-32"/>
       <use xlink:href="#DejaVuSans-30" x="63.623047"/>
      </g>
     </g>
    </g>
    <g id="ytick_2">
     <g id="line2d_7">
      <g>
       <use xlink:href="#mae619788b4" x="57.6" y="220.349" style="stroke: #000000; stroke-width: 0.8"/>
      </g>
     </g>
     <g id="text_8">
      <!-- 25 -->
      <g transform="translate(37.875 224.148219) scale(0.1 -0.1)">
       <use xlink:href="#DejaVuSans-32"/>
       <use xlink:href="#DejaVuSans-35" x="63.623047"/>
      </g>
     </g>
    </g>
    <g id="ytick_3">
     <g id="line2d_8">
      <g>
       <use xlink:href="#mae619788b4" x="57.6" y="171.163727" style="stroke: #000000; stroke-width: 0.8"/>
      </g>
     </g>
     <g id="text_9">
      <!-- 30 -->
      <g transform="translate(37.875 174.962946) scale(0.1 -0.1)">
       <defs>
        <path id="DejaVuSans-33" d="M 2597 2516 
Q 3050 2419 3304 2112 
Q 3559 1806 3559 1356 
Q 3559 666 3084 287 
Q 2609 -91 1734 -91 
Q 1441 -91 1130 -33 
Q 819 25 488 141 
L 488 750 
Q 750 597 1062 519 
Q 1375 441 1716 441 
Q 2309 441 2620 675 
Q 2931 909 2931 1356 
Q 2931 1769 2642 2001 
Q 2353 2234 1838 2234 
L 1294 2234 
L 1294 2753 
L 1863 2753 
Q 2328 2753 2575 2939 
Q 2822 3125 2822 3475 
Q 2822 3834 2567 4026 
Q 2313 4219 1838 4219 
Q 1578 4219 1281 4162 
Q 984 4106 628 3988 
L 628 4550 
Q 988 4650 1302 4700 
Q 1616 4750 1894 4750 
Q 2613 4750 3031 4423 
Q 3450 4097 3450 3541 
Q 3450 3153 3228 2886 
Q 3006 2619 2597 2516 
z
" transform="scale(0.015625)"/>
       </defs>
       <use xlink:href="#DejaVuSans-33"/>
       <use xlink:href="#DejaVuSans-30" x="63.623047"/>
      </g>
     </g>
    </g>
    <g id="ytick_4">
     <g id="line2d_9">
      <g>
       <use xlink:href="#mae619788b4" x="57.6" y="121.978455" style="stroke: #000000; stroke-width: 0.8"/>
      </g>
     </g>
     <g id="text_10">
      <!-- 35 -->
      <g transform="translate(37.875 125.777673) scale(0.1 -0.1)">
       <use xlink:href="#DejaVuSans-33"/>
       <use xlink:href="#DejaVuSans-35" x="63.623047"/>
      </g>
     </g>
    </g>
    <g id="ytick_5">
     <g id="line2d_10">
      <g>
       <use xlink:href="#mae619788b4" x="57.6" y="72.793182" style="stroke: #000000; stroke-width: 0.8"/>
      </g>
     </g>
     <g id="text_11">
      <!-- 40 -->
      <g transform="translate(37.875 76.5924) scale(0.1 -0.1)">
       <defs>
        <path id="DejaVuSans-34" d="M 2419 4116 
L 825 1625 
L 2419 1625 
L 2419 4116 
z
M 2253 4666 
L 3047 4666 
L 3047 1625 
L 3713 1625 
L 3713 1100 
L 3047 1100 
L 3047 0 
L 2419 0 
L 2419 1100 
L 313 1100 
L 313 1709 
L 2253 4666 
z
" transform="scale(0.015625)"/>
       </defs>
       <use xlink:href="#DejaVuSans-34"/>
       <use xlink:href="#DejaVuSans-30" x="63.623047"/>
      </g>
     </g>
    </g>
    <g id="text_12">
     <!-- Median Age -->
     <g transform="translate(31.795312 203.974875) rotate(-90) scale(0.1 -0.1)">
      <defs>
       <path id="DejaVuSans-4d" d="M 628 4666 
L 1569 4666 
L 2759 1491 
L 3956 4666 
L 4897 4666 
L 4897 0 
L 4281 0 
L 4281 4097 
L 3078 897 
L 2444 897 
L 1241 4097 
L 1241 0 
L 628 0 
L 628 4666 
z
" transform="scale(0.015625)"/>
       <path id="DejaVuSans-65" d="M 3597 1894 
L 3597 1613 
L 953 1613 
Q 991 1019 1311 708 
Q 1631 397 2203 397 
Q 2534 397 2845 478 
Q 3156 559 3463 722 
L 3463 178 
Q 3153 47 2828 -22 
Q 2503 -91 2169 -91 
Q 1331 -91 842 396 
Q 353 884 353 1716 
Q 353 2575 817 3079 
Q 1281 3584 2069 3584 
Q 2775 3584 3186 3129 
Q 3597 2675 3597 1894 
z
M 3022 2063 
Q 3016 2534 2758 2815 
Q 2500 3097 2075 3097 
Q 1594 3097 1305 2825 
Q 1016 2553 972 2059 
L 3022 2063 
z
" transform="scale(0.015625)"/>
       <path id="DejaVuSans-64" d="M 2906 2969 
L 2906 4863 
L 3481 4863 
L 3481 0 
L 2906 0 
L 2906 525 
Q 2725 213 2448 61 
Q 2172 -91 1784 -91 
Q 1150 -91 751 415 
Q 353 922 353 1747 
Q 353 2572 751 3078 
Q 1150 3584 1784 3584 
Q 2172 3584 2448 3432 
Q 2725 3281 2906 2969 
z
M 947 1747 
Q 947 1113 1208 752 
Q 1469 391 1925 391 
Q 2381 391 2643 752 
Q 2906 1113 2906 1747 
Q 2906 2381 2643 2742 
Q 2381 3103 1925 3103 
Q 1469 3103 1208 2742 
Q 947 2381 947 1747 
z
" transform="scale(0.015625)"/>
       <path id="DejaVuSans-61" d="M 2194 1759 
Q 1497 1759 1228 1600 
Q 959 1441 959 1056 
Q 959 750 1161 570 
Q 1363 391 1709 391 
Q 2188 391 2477 730 
Q 2766 1069 2766 1631 
L 2766 1759 
L 2194 1759 
z
M 3341 1997 
L 3341 0 
L 2766 0 
L 2766 531 
Q 2569 213 2275 61 
Q 1981 -91 1556 -91 
Q 1019 -91 701 211 
Q 384 513 384 1019 
Q 384 1609 779 1909 
Q 1175 2209 1959 2209 
L 2766 2209 
L 2766 2266 
Q 2766 2663 2505 2880 
Q 2244 3097 1772 3097 
Q 1472 3097 1187 3025 
Q 903 2953 641 2809 
L 641 3341 
Q 956 3463 1253 3523 
Q 1550 3584 1831 3584 
Q 2591 3584 2966 3190 
Q 3341 2797 3341 1997 
z
" transform="scale(0.015625)"/>
       <path id="DejaVuSans-41" d="M 2188 4044 
L 1331 1722 
L 3047 1722 
L 2188 4044 
z
M 1831 4666 
L 2547 4666 
L 4325 0 
L 3669 0 
L 3244 1197 
L 1141 1197 
L 716 0 
L 50 0 
L 1831 4666 
z
" transform="scale(0.015625)"/>
       <path id="DejaVuSans-67" d="M 2906 1791 
Q 2906 2416 2648 2759 
Q 2391 3103 1925 3103 
Q 1463 3103 1205 2759 
Q 947 2416 947 1791 
Q 947 1169 1205 825 
Q 1463 481 1925 481 
Q 2391 481 2648 825 
Q 2906 1169 2906 1791 
z
M 3481 434 
Q 3481 -459 3084 -895 
Q 2688 -1331 1869 -1331 
Q 1566 -1331 1297 -1286 
Q 1028 -1241 775 -1147 
L 775 -588 
Q 1028 -725 1275 -790 
Q 1522 -856 1778 -856 
Q 2344 -856 2625 -561 
Q 2906 -266 2906 331 
L 2906 616 
Q 2728 306 2450 153 
Q 2172 0 1784 0 
Q 1141 0 747 490 
Q 353 981 353 1791 
Q 353 2603 747 3093 
Q 1141 3584 1784 3584 
Q 2172 3584 2450 3431 
Q 2728 3278 2906 2969 
L 2906 3500 
L 3481 3500 
L 3481 434 
z
" transform="scale(0.015625)"/>
      </defs>
      <use xlink:href="#DejaVuSans-4d"/>
      <use xlink:href="#DejaVuSans-65" x="86.279297"/>
      <use xlink:href="#DejaVuSans-64" x="147.802734"/>
      <use xlink:href="#DejaVuSans-69" x="211.279297"/>
      <use xlink:href="#DejaVuSans-61" x="239.0625"/>
      <use xlink:href="#DejaVuSans-6e" x="300.341797"/>
      <use xlink:href="#DejaVuSans-20" x="363.720703"/>
      <use xlink:href="#DejaVuSans-41" x="395.507812"/>
      <use xlink:href="#DejaVuSans-67" x="463.916016"/>
      <use xlink:href="#DejaVuSans-65" x="527.392578"/>
     </g>
    </g>
   </g>
   <g id="PathCollection_8"/>
   <g id="PathCollection_9">
    <path d="M 57.6 285.491506 
L 61.207273 285.457964 
L 64.814545 285.423582 
L 68.421818 285.388358 
L 72.029091 285.352291 
L 75.636364 285.31538 
L 79.243636 285.277624 
L 82.850909 285.239021 
L 86.458182 285.199571 
L 90.065455 285.159271 
L 93.672727 285.118121 
L 97.28 285.076119 
L 100.887273 285.033265 
L 104.494545 284.989556 
L 108.101818 284.944992 
L 111.709091 284.899571 
L 115.316364 284.853292 
L 118.923636 284.806154 
L 122.530909 284.758155 
L 126.138182 284.709294 
L 129.745455 284.659571 
L 133.352727 284.608982 
L 136.96 284.557528 
L 140.567273 284.505207 
L 144.174545 284.452018 
L 147.781818 284.397958 
L 151.389091 284.343028 
L 154.996364 284.287226 
L 158.603636 284.23055 
L 162.210909 284.172999 
L 165.818182 284.114571 
L 169.425455 284.055266 
L 173.032727 283.995083 
L 176.64 283.934018 
L 180.247273 283.872073 
L 183.854545 283.809244 
L 187.461818 283.745531 
L 191.069091 283.680933 
L 194.676364 283.615447 
L 198.283636 283.549074 
L 201.890909 283.48181 
L 205.170075 283.419855 
" clip-path="url(#p6b7fa78fb1)" style="fill: none; stroke: #000000; stroke-width: 0.5"/>
    <path d="M 234.68417 282.829691 
L 237.963636 282.760437 
L 241.570909 282.683358 
L 245.178182 282.605372 
L 248.785455 282.52648 
L 252.392727 282.44668 
L 256 282.36597 
L 259.607273 282.28435 
L 263.214545 282.201816 
L 266.821818 282.118369 
L 270.429091 282.034007 
L 274.036364 281.948728 
L 277.643636 281.862531 
L 281.250909 281.775415 
L 284.858182 281.687377 
L 288.465455 281.598418 
L 292.072727 281.508534 
L 295.68 281.417725 
L 299.287273 281.32599 
L 302.894545 281.233327 
L 306.501818 281.139733 
L 310.109091 281.04521 
L 313.716364 280.949753 
L 317.323636 280.853363 
L 320.930909 280.756037 
L 322.841372 280.704 
L 324.538182 280.65781 
L 328.145455 280.558685 
L 331.752727 280.458621 
L 335.36 280.357617 
L 338.967273 280.255671 
L 342.574545 280.152781 
L 346.181818 280.048947 
L 349.789091 279.944166 
L 353.396364 279.838437 
L 357.003636 279.731759 
L 360.610909 279.624131 
L 364.218182 279.51555 
L 367.825455 279.406015 
L 371.432727 279.295525 
L 375.04 279.184078 
L 378.647273 279.071672 
L 382.254545 278.958307 
L 385.861818 278.843981 
L 389.469091 278.728692 
L 393.076364 278.612438 
L 396.683636 278.495218 
L 400.290909 278.377032 
L 403.898182 278.257876 
L 407.505455 278.137749 
L 411.112727 278.016651 
L 411.13196 278.016 
L 414.72 277.89467 
" clip-path="url(#p6b7fa78fb1)" style="fill: none; stroke: #000000; stroke-width: 0.5"/>
   </g>
   <g id="PathCollection_10">
    <path d="M 57.6 242.420765 
L 61.207273 242.397948 
L 64.814545 242.374059 
L 68.421818 242.349095 
L 72.029091 242.323056 
L 75.636364 242.295941 
L 79.243636 242.267749 
L 82.850909 242.238478 
L 86.458182 242.208128 
L 90.065455 242.176697 
L 93.672727 242.144184 
L 97.28 242.110589 
L 100.887273 242.07591 
L 104.494545 242.040145 
L 108.101818 242.003295 
L 111.709091 241.965357 
L 115.316364 241.926331 
L 118.923636 241.886215 
L 122.530909 241.845008 
L 126.138182 241.80271 
L 129.745455 241.759318 
L 133.352727 241.714832 
L 136.96 241.669251 
L 140.567273 241.622573 
L 144.174545 241.574798 
L 147.781818 241.525923 
L 151.389091 241.475948 
L 154.996364 241.424872 
L 158.603636 241.372693 
L 162.210909 241.31941 
L 165.818182 241.265022 
L 169.425455 241.209528 
L 173.032727 241.152926 
L 176.64 241.095215 
L 180.247273 241.036394 
L 183.854545 240.976462 
L 187.461818 240.915417 
L 191.069091 240.853258 
L 194.676364 240.789984 
L 198.283636 240.725593 
L 201.890909 240.660084 
L 205.170002 240.599518 
" clip-path="url(#p6b7fa78fb1)" style="fill: none; stroke: #000000; stroke-width: 0.5"/>
    <path d="M 234.68417 240.013178 
L 237.963636 239.943425 
L 241.570909 239.865568 
L 245.178182 239.786577 
L 248.785455 239.706451 
L 252.392727 239.625189 
L 256 239.542789 
L 259.607273 239.459251 
L 263.214545 239.374571 
L 266.821818 239.28875 
L 270.429091 239.201786 
L 274.036364 239.113677 
L 277.643636 239.024421 
L 281.250909 238.934018 
L 284.858182 238.842466 
L 288.465455 238.749763 
L 292.072727 238.655909 
L 295.68 238.5609 
L 299.287273 238.464737 
L 302.894545 238.367417 
L 306.501818 238.268939 
L 310.109091 238.169302 
L 313.716364 238.068503 
L 317.323636 237.966542 
L 320.930909 237.863417 
L 324.538182 237.759126 
L 326.697616 237.696 
L 328.145455 237.653687 
L 331.752727 237.547107 
L 335.36 237.439357 
L 338.967273 237.330436 
L 342.574545 237.220342 
L 346.181818 237.109073 
L 349.789091 236.996629 
L 353.396364 236.883007 
L 357.003636 236.768206 
L 360.610909 236.652224 
L 364.218182 236.53506 
L 367.825455 236.416712 
L 371.432727 236.297178 
L 375.04 236.176457 
L 378.647273 236.054547 
L 382.254545 235.931446 
L 385.861818 235.807153 
L 389.469091 235.681667 
L 393.076364 235.554985 
L 396.683636 235.427106 
L 400.290909 235.298027 
L 403.898182 235.167749 
L 407.505455 235.036268 
L 408.274147 235.008 
L 411.112727 234.903627 
L 414.72 234.769793 
" clip-path="url(#p6b7fa78fb1)" style="fill: none; stroke: #000000; stroke-width: 0.5"/>
   </g>
   <g id="PathCollection_11">
    <path d="M 57.6 199.665632 
L 61.207273 199.65331 
L 64.814545 199.639681 
L 68.421818 199.624746 
L 72.029091 199.608501 
L 75.636364 199.590948 
L 79.243636 199.572084 
L 82.850909 199.551909 
L 86.458182 199.530422 
L 90.065455 199.507622 
L 93.672727 199.483509 
L 97.28 199.45808 
L 100.887273 199.431336 
L 104.494545 199.403274 
L 108.101818 199.373895 
L 111.709091 199.343198 
L 115.316364 199.31118 
L 118.923636 199.277842 
L 122.530909 199.243182 
L 126.138182 199.207199 
L 129.745455 199.169892 
L 133.352727 199.13126 
L 136.96 199.091302 
L 140.567273 199.050017 
L 144.174545 199.007404 
L 147.781818 198.963462 
L 151.389091 198.918189 
L 154.996364 198.871585 
L 158.603636 198.823648 
L 162.210909 198.774377 
L 165.818182 198.723771 
L 169.425455 198.671829 
L 173.032727 198.61855 
L 176.64 198.563933 
L 180.247273 198.507976 
L 183.854545 198.450678 
L 187.461818 198.392038 
L 191.069091 198.332055 
L 194.676364 198.270727 
L 198.283636 198.208053 
L 201.890909 198.144033 
L 205.498182 198.078664 
L 209.105455 198.011946 
L 212.712727 197.943876 
L 216.32 197.874455 
L 219.927273 197.803681 
L 223.534545 197.731551 
L 227.141818 197.658066 
L 230.749091 197.583223 
L 234.356364 197.507021 
L 237.963636 197.429459 
L 240.407073 197.376 
L 241.570909 197.350539 
L 245.178182 197.270263 
L 245.264459 197.26831 
" clip-path="url(#p6b7fa78fb1)" style="fill: none; stroke: #000000; stroke-width: 0.5"/>
    <path d="M 281.163805 196.394513 
L 281.250909 196.392243 
L 284.858182 196.296884 
L 288.465455 196.200144 
L 292.072727 196.102024 
L 295.68 196.00252 
L 299.287273 195.901631 
L 302.894545 195.799357 
L 306.501818 195.695694 
L 310.109091 195.590643 
L 313.716364 195.484201 
L 317.323636 195.376366 
L 320.930909 195.267138 
L 324.538182 195.156513 
L 328.145455 195.044492 
L 331.752727 194.931072 
L 335.36 194.816251 
L 338.967273 194.700028 
L 339.336208 194.688 
L 342.574545 194.582413 
L 346.181818 194.463394 
L 349.789091 194.342968 
L 353.396364 194.221133 
L 357.003636 194.097888 
L 360.610909 193.973231 
L 364.218182 193.84716 
L 367.825455 193.719674 
L 371.432727 193.59077 
L 375.04 193.460448 
L 378.647273 193.328705 
L 382.254545 193.195539 
L 385.861818 193.060949 
L 389.469091 192.924933 
L 393.076364 192.787489 
L 396.683636 192.648616 
L 400.290909 192.50831 
L 403.898182 192.366572 
L 407.505455 192.223398 
L 411.112727 192.078787 
L 413.058955 192 
L 414.72 191.932744 
" clip-path="url(#p6b7fa78fb1)" style="fill: none; stroke: #000000; stroke-width: 0.5"/>
   </g>
   <g id="PathCollection_12">
    <path d="M 57.6 157.001276 
L 61.207273 156.999384 
L 64.814545 156.995947 
L 68.421818 156.990964 
L 72.029091 156.984435 
L 75.636364 156.97636 
L 79.243636 156.966737 
L 82.850909 156.955565 
L 86.458182 156.942844 
L 90.065455 156.928574 
L 93.672727 156.912752 
L 97.28 156.895379 
L 100.887273 156.876454 
L 104.494545 156.855976 
L 108.101818 156.833944 
L 111.709091 156.810357 
L 115.316364 156.785214 
L 118.923636 156.758514 
L 122.530909 156.730258 
L 126.138182 156.700442 
L 129.745455 156.669068 
L 133.352727 156.636133 
L 136.96 156.601636 
L 140.567273 156.565578 
L 144.174545 156.527956 
L 147.781818 156.488771 
L 151.389091 156.44802 
L 154.996364 156.405702 
L 158.603636 156.361818 
L 162.210909 156.316365 
L 165.818182 156.269343 
L 169.425455 156.22075 
L 173.032727 156.170586 
L 176.64 156.118849 
L 180.247273 156.065538 
L 183.854545 156.010652 
L 187.461818 155.954191 
L 191.069091 155.896152 
L 194.676364 155.836534 
L 198.283636 155.775337 
L 201.890909 155.712559 
L 205.498182 155.648199 
L 209.105455 155.582256 
L 212.712727 155.514728 
L 216.32 155.445614 
L 219.927273 155.374914 
L 223.534545 155.302625 
L 227.141818 155.228746 
L 230.749091 155.153276 
L 234.356364 155.076214 
L 237.963636 154.997559 
L 241.570909 154.917308 
L 245.178182 154.835461 
L 246.615023 154.802223 
" clip-path="url(#p6b7fa78fb1)" style="fill: none; stroke: #000000; stroke-width: 0.5"/>
    <path d="M 282.513505 153.893953 
L 284.858182 153.829264 
L 288.465455 153.728128 
L 292.072727 153.625376 
L 295.68 153.521006 
L 299.287273 153.415017 
L 302.894545 153.307408 
L 306.501818 153.198177 
L 310.109091 153.087322 
L 313.716364 152.974842 
L 317.323636 152.860734 
L 320.930909 152.744998 
L 324.538182 152.627631 
L 328.145455 152.508633 
L 331.752727 152.388 
L 335.36 152.265732 
L 338.967273 152.141827 
L 342.574545 152.016283 
L 346.181818 151.889098 
L 349.789091 151.760271 
L 352.008575 151.68 
L 353.396364 151.629788 
L 357.003636 151.497641 
L 360.610909 151.363845 
L 364.218182 151.2284 
L 367.825455 151.091302 
L 371.432727 150.952551 
L 375.04 150.812144 
L 378.647273 150.67008 
L 382.254545 150.526356 
L 385.861818 150.380971 
L 389.469091 150.233923 
L 393.076364 150.085209 
L 396.683636 149.934828 
L 400.290909 149.782778 
L 403.898182 149.629057 
L 407.505455 149.473662 
L 411.112727 149.316593 
L 414.72 149.157846 
" clip-path="url(#p6b7fa78fb1)" style="fill: none; stroke: #000000; stroke-width: 0.5"/>
   </g>
   <g id="PathCollection_13">
    <path d="M 57.6 114.205722 
L 61.207273 114.214355 
L 64.814545 114.221197 
L 68.421818 114.226248 
L 72.029091 114.229508 
L 75.636364 114.230976 
L 79.243636 114.230652 
L 82.850909 114.228534 
L 86.458182 114.224623 
L 90.065455 114.218918 
L 93.672727 114.211417 
L 97.28 114.202122 
L 100.887273 114.191029 
L 104.494545 114.17814 
L 108.101818 114.163454 
L 108.183465 114.163081 
" clip-path="url(#p6b7fa78fb1)" style="fill: none; stroke: #000000; stroke-width: 0.5"/>
    <path d="M 144.092593 113.918225 
L 144.174545 113.917481 
L 147.781818 113.882951 
L 151.389091 113.846612 
L 154.996364 113.808464 
L 158.603636 113.768506 
L 162.210909 113.726736 
L 165.818182 113.683155 
L 169.425455 113.63776 
L 173.032727 113.59055 
L 176.64 113.541526 
L 180.247273 113.490685 
L 183.854545 113.438026 
L 187.461818 113.383549 
L 191.069091 113.327253 
L 194.676364 113.269135 
L 198.283636 113.209196 
L 201.890909 113.147434 
L 205.498182 113.083847 
L 209.105455 113.018435 
L 212.712727 112.951196 
L 216.32 112.88213 
L 219.927273 112.811234 
L 223.534545 112.738508 
L 227.141818 112.66395 
L 230.749091 112.58756 
L 234.356364 112.509335 
L 237.963636 112.429274 
L 241.570909 112.347376 
L 245.178182 112.263641 
L 248.785455 112.178065 
L 252.392727 112.090648 
L 256 112.001389 
L 259.607273 111.910285 
L 263.214545 111.817337 
L 266.821818 111.722541 
L 270.429091 111.625897 
L 274.036364 111.527403 
L 277.643636 111.427057 
L 280.010615 111.36 
L 281.250909 111.32484 
L 284.858182 111.220731 
L 288.465455 111.114765 
L 292.072727 111.006941 
L 295.68 110.897256 
L 299.287273 110.785709 
L 302.894545 110.672299 
L 306.501818 110.557024 
L 310.109091 110.439881 
L 313.716364 110.32087 
L 317.323636 110.199989 
L 320.930909 110.077236 
L 324.538182 109.952609 
L 328.145455 109.826106 
L 331.752727 109.697726 
L 335.36 109.567467 
L 338.967273 109.435327 
L 342.574545 109.301304 
L 346.181818 109.165396 
L 349.789091 109.027602 
L 353.396364 108.887919 
L 357.003636 108.746346 
L 358.873181 108.672 
L 360.610909 108.602843 
L 364.218182 108.457403 
L 367.825455 108.310067 
L 371.432727 108.160831 
L 375.04 108.009694 
L 378.647273 107.856654 
L 382.254545 107.701708 
L 385.861818 107.544856 
L 389.469091 107.386094 
L 393.076364 107.225421 
L 396.683636 107.062834 
L 400.290909 106.898332 
L 403.898182 106.731912 
L 407.505455 106.563573 
L 411.112727 106.393311 
L 414.72 106.221125 
" clip-path="url(#p6b7fa78fb1)" style="fill: none; stroke: #000000; stroke-width: 0.5"/>
   </g>
   <g id="PathCollection_14">
    <path d="M 57.6 71.05038 
L 61.207273 71.069801 
L 64.814545 71.087173 
L 68.421818 71.102497 
L 72.029091 71.115771 
L 75.636364 71.126997 
L 79.243636 71.136172 
L 82.850909 71.143297 
L 86.458182 71.148372 
L 90.065455 71.151395 
L 93.672727 71.152367 
L 97.28 71.151287 
L 100.887273 71.148154 
L 104.494545 71.142967 
L 108.101818 71.135727 
L 108.183312 71.135517 
" clip-path="url(#p6b7fa78fb1)" style="fill: none; stroke: #000000; stroke-width: 0.5"/>
    <path d="M 144.092789 70.950785 
L 144.174545 70.950154 
L 147.781818 70.920253 
L 151.389091 70.888289 
L 154.996364 70.85426 
L 158.603636 70.818165 
L 162.210909 70.780004 
L 165.818182 70.739775 
L 169.425455 70.697477 
L 173.032727 70.653111 
L 176.64 70.606674 
L 180.247273 70.558166 
L 183.854545 70.507585 
L 187.461818 70.454932 
L 191.069091 70.400203 
L 194.676364 70.3434 
L 198.283636 70.28452 
L 201.890909 70.223562 
L 205.498182 70.160525 
L 209.105455 70.095409 
L 212.712727 70.028211 
L 216.32 69.958931 
L 219.927273 69.887568 
L 223.534545 69.814119 
L 227.141818 69.738585 
L 230.749091 69.660963 
L 234.356364 69.581253 
L 237.963636 69.499453 
L 241.570909 69.415562 
L 245.178182 69.329577 
L 248.785455 69.241499 
L 252.392727 69.151326 
L 256 69.059055 
L 259.607273 68.964687 
L 263.214545 68.868218 
L 266.821818 68.769648 
L 270.429091 68.668976 
L 274.036364 68.566199 
L 277.643636 68.461316 
L 281.250909 68.354326 
L 281.327814 68.352 
L 284.858182 68.245133 
L 288.465455 68.133826 
L 292.072727 68.020405 
L 295.68 67.904868 
L 299.287273 67.787214 
L 302.894545 67.667441 
L 306.501818 67.545546 
L 310.109091 67.421529 
L 313.716364 67.295388 
L 317.323636 67.167121 
L 320.930909 67.036726 
L 324.538182 66.904201 
L 328.145455 66.769545 
L 331.752727 66.632755 
L 335.36 66.493829 
L 338.967273 66.352767 
L 342.574545 66.209565 
L 346.181818 66.064222 
L 349.789091 65.916736 
L 353.396364 65.767105 
L 355.846994 65.664 
L 357.003636 65.615284 
L 360.610909 65.461219 
L 364.218182 65.305002 
L 367.825455 65.14663 
L 371.432727 64.9861 
L 375.04 64.823411 
L 378.647273 64.65856 
L 382.254545 64.491546 
L 385.861818 64.322367 
L 389.469091 64.151019 
L 393.076364 63.977501 
L 396.683636 63.80181 
L 400.290909 63.623945 
L 403.898182 63.443902 
L 407.505455 63.261681 
L 411.112727 63.077277 
L 413.070963 62.976 
L 414.72 62.890613 
" clip-path="url(#p6b7fa78fb1)" style="fill: none; stroke: #000000; stroke-width: 0.5"/>
   </g>
   <g id="PathCollection_15"/>
   <g id="LineCollection_1">
    <path d="M 67.288029 307.584 
L 67.288029 294.2784 
" clip-path="url(#p6b7fa78fb1)" style="fill: none; stroke: #000000; stroke-width: 1.5"/>
    <path d="M 78.078571 307.584 
L 78.078571 294.2784 
" clip-path="url(#p6b7fa78fb1)" style="fill: none; stroke: #000000; stroke-width: 1.5"/>
    <path d="M 93.889059 307.584 
L 93.889059 294.2784 
" clip-path="url(#p6b7fa78fb1)" style="fill: none; stroke: #000000; stroke-width: 1.5"/>
    <path d="M 108.995817 307.584 
L 108.995817 294.2784 
" clip-path="url(#p6b7fa78fb1)" style="fill: none; stroke: #000000; stroke-width: 1.5"/>
    <path d="M 131.732191 307.584 
L 131.732191 294.2784 
" clip-path="url(#p6b7fa78fb1)" style="fill: none; stroke: #000000; stroke-width: 1.5"/>
    <path d="M 156.761555 307.584 
L 156.761555 294.2784 
" clip-path="url(#p6b7fa78fb1)" style="fill: none; stroke: #000000; stroke-width: 1.5"/>
    <path d="M 184.822827 307.584 
L 184.822827 294.2784 
" clip-path="url(#p6b7fa78fb1)" style="fill: none; stroke: #000000; stroke-width: 1.5"/>
    <path d="M 230.928933 307.584 
L 230.928933 294.2784 
" clip-path="url(#p6b7fa78fb1)" style="fill: none; stroke: #000000; stroke-width: 1.5"/>
    <path d="M 331.679748 307.584 
L 331.679748 294.2784 
" clip-path="url(#p6b7fa78fb1)" style="fill: none; stroke: #000000; stroke-width: 1.5"/>
   </g>
   <g id="LineCollection_2">
    <path clip-path="url(#p6b7fa78fb1)" style="fill: none; stroke: #000000; stroke-width: 1.5"/>
    <path clip-path="url(#p6b7fa78fb1)" style="fill: none; stroke: #000000; stroke-width: 1.5"/>
    <path clip-path="url(#p6b7fa78fb1)" style="fill: none; stroke: #000000; stroke-width: 1.5"/>
    <path clip-path="url(#p6b7fa78fb1)" style="fill: none; stroke: #000000; stroke-width: 1.5"/>
    <path clip-path="url(#p6b7fa78fb1)" style="fill: none; stroke: #000000; stroke-width: 1.5"/>
    <path clip-path="url(#p6b7fa78fb1)" style="fill: none; stroke: #000000; stroke-width: 1.5"/>
    <path clip-path="url(#p6b7fa78fb1)" style="fill: none; stroke: #000000; stroke-width: 1.5"/>
    <path clip-path="url(#p6b7fa78fb1)" style="fill: none; stroke: #000000; stroke-width: 1.5"/>
    <path clip-path="url(#p6b7fa78fb1)" style="fill: none; stroke: #000000; stroke-width: 1.5"/>
   </g>
   <g id="patch_3">
    <path d="M 57.6 307.584 
L 57.6 41.472 
" style="fill: none; stroke: #000000; stroke-width: 0.8; stroke-linejoin: miter; stroke-linecap: square"/>
   </g>
   <g id="patch_4">
    <path d="M 414.72 307.584 
L 414.72 41.472 
" style="fill: none; stroke: #000000; stroke-width: 0.8; stroke-linejoin: miter; stroke-linecap: square"/>
   </g>
   <g id="patch_5">
    <path d="M 57.6 307.584 
L 414.72 307.584 
" style="fill: none; stroke: #000000; stroke-width: 0.8; stroke-linejoin: miter; stroke-linecap: square"/>
   </g>
   <g id="patch_6">
    <path d="M 57.6 41.472 
L 414.72 41.472 
" style="fill: none; stroke: #000000; stroke-width: 0.8; stroke-linejoin: miter; stroke-linecap: square"/>
   </g>
   <g id="text_13">
    <!-- 2D-partial dependency plot between GHG and Age -->
    <g transform="translate(83.693438 35.472) scale(0.12 -0.12)">
     <defs>
      <path id="DejaVuSans-44" d="M 1259 4147 
L 1259 519 
L 2022 519 
Q 2988 519 3436 956 
Q 3884 1394 3884 2338 
Q 3884 3275 3436 3711 
Q 2988 4147 2022 4147 
L 1259 4147 
z
M 628 4666 
L 1925 4666 
Q 3281 4666 3915 4102 
Q 4550 3538 4550 2338 
Q 4550 1131 3912 565 
Q 3275 0 1925 0 
L 628 0 
L 628 4666 
z
" transform="scale(0.015625)"/>
      <path id="DejaVuSans-2d" d="M 313 2009 
L 1997 2009 
L 1997 1497 
L 313 1497 
L 313 2009 
z
" transform="scale(0.015625)"/>
      <path id="DejaVuSans-70" d="M 1159 525 
L 1159 -1331 
L 581 -1331 
L 581 3500 
L 1159 3500 
L 1159 2969 
Q 1341 3281 1617 3432 
Q 1894 3584 2278 3584 
Q 2916 3584 3314 3078 
Q 3713 2572 3713 1747 
Q 3713 922 3314 415 
Q 2916 -91 2278 -91 
Q 1894 -91 1617 61 
Q 1341 213 1159 525 
z
M 3116 1747 
Q 3116 2381 2855 2742 
Q 2594 3103 2138 3103 
Q 1681 3103 1420 2742 
Q 1159 2381 1159 1747 
Q 1159 1113 1420 752 
Q 1681 391 2138 391 
Q 2594 391 2855 752 
Q 3116 1113 3116 1747 
z
" transform="scale(0.015625)"/>
      <path id="DejaVuSans-72" d="M 2631 2963 
Q 2534 3019 2420 3045 
Q 2306 3072 2169 3072 
Q 1681 3072 1420 2755 
Q 1159 2438 1159 1844 
L 1159 0 
L 581 0 
L 581 3500 
L 1159 3500 
L 1159 2956 
Q 1341 3275 1631 3429 
Q 1922 3584 2338 3584 
Q 2397 3584 2469 3576 
Q 2541 3569 2628 3553 
L 2631 2963 
z
" transform="scale(0.015625)"/>
      <path id="DejaVuSans-74" d="M 1172 4494 
L 1172 3500 
L 2356 3500 
L 2356 3053 
L 1172 3053 
L 1172 1153 
Q 1172 725 1289 603 
Q 1406 481 1766 481 
L 2356 481 
L 2356 0 
L 1766 0 
Q 1100 0 847 248 
Q 594 497 594 1153 
L 594 3053 
L 172 3053 
L 172 3500 
L 594 3500 
L 594 4494 
L 1172 4494 
z
" transform="scale(0.015625)"/>
      <path id="DejaVuSans-6c" d="M 603 4863 
L 1178 4863 
L 1178 0 
L 603 0 
L 603 4863 
z
" transform="scale(0.015625)"/>
      <path id="DejaVuSans-63" d="M 3122 3366 
L 3122 2828 
Q 2878 2963 2633 3030 
Q 2388 3097 2138 3097 
Q 1578 3097 1268 2742 
Q 959 2388 959 1747 
Q 959 1106 1268 751 
Q 1578 397 2138 397 
Q 2388 397 2633 464 
Q 2878 531 3122 666 
L 3122 134 
Q 2881 22 2623 -34 
Q 2366 -91 2075 -91 
Q 1284 -91 818 406 
Q 353 903 353 1747 
Q 353 2603 823 3093 
Q 1294 3584 2113 3584 
Q 2378 3584 2631 3529 
Q 2884 3475 3122 3366 
z
" transform="scale(0.015625)"/>
      <path id="DejaVuSans-79" d="M 2059 -325 
Q 1816 -950 1584 -1140 
Q 1353 -1331 966 -1331 
L 506 -1331 
L 506 -850 
L 844 -850 
Q 1081 -850 1212 -737 
Q 1344 -625 1503 -206 
L 1606 56 
L 191 3500 
L 800 3500 
L 1894 763 
L 2988 3500 
L 3597 3500 
L 2059 -325 
z
" transform="scale(0.015625)"/>
      <path id="DejaVuSans-62" d="M 3116 1747 
Q 3116 2381 2855 2742 
Q 2594 3103 2138 3103 
Q 1681 3103 1420 2742 
Q 1159 2381 1159 1747 
Q 1159 1113 1420 752 
Q 1681 391 2138 391 
Q 2594 391 2855 752 
Q 3116 1113 3116 1747 
z
M 1159 2969 
Q 1341 3281 1617 3432 
Q 1894 3584 2278 3584 
Q 2916 3584 3314 3078 
Q 3713 2572 3713 1747 
Q 3713 922 3314 415 
Q 2916 -91 2278 -91 
Q 1894 -91 1617 61 
Q 1341 213 1159 525 
L 1159 0 
L 581 0 
L 581 4863 
L 1159 4863 
L 1159 2969 
z
" transform="scale(0.015625)"/>
      <path id="DejaVuSans-77" d="M 269 3500 
L 844 3500 
L 1563 769 
L 2278 3500 
L 2956 3500 
L 3675 769 
L 4391 3500 
L 4966 3500 
L 4050 0 
L 3372 0 
L 2619 2869 
L 1863 0 
L 1184 0 
L 269 3500 
z
" transform="scale(0.015625)"/>
     </defs>
     <use xlink:href="#DejaVuSans-32"/>
     <use xlink:href="#DejaVuSans-44" x="63.623047"/>
     <use xlink:href="#DejaVuSans-2d" x="140.625"/>
     <use xlink:href="#DejaVuSans-70" x="176.708984"/>
     <use xlink:href="#DejaVuSans-61" x="240.185547"/>
     <use xlink:href="#DejaVuSans-72" x="301.464844"/>
     <use xlink:href="#DejaVuSans-74" x="342.578125"/>
     <use xlink:href="#DejaVuSans-69" x="381.787109"/>
     <use xlink:href="#DejaVuSans-61" x="409.570312"/>
     <use xlink:href="#DejaVuSans-6c" x="470.849609"/>
     <use xlink:href="#DejaVuSans-20" x="498.632812"/>
     <use xlink:href="#DejaVuSans-64" x="530.419922"/>
     <use xlink:href="#DejaVuSans-65" x="593.896484"/>
     <use xlink:href="#DejaVuSans-70" x="655.419922"/>
     <use xlink:href="#DejaVuSans-65" x="718.896484"/>
     <use xlink:href="#DejaVuSans-6e" x="780.419922"/>
     <use xlink:href="#DejaVuSans-64" x="843.798828"/>
     <use xlink:href="#DejaVuSans-65" x="907.275391"/>
     <use xlink:href="#DejaVuSans-6e" x="968.798828"/>
     <use xlink:href="#DejaVuSans-63" x="1032.177734"/>
     <use xlink:href="#DejaVuSans-79" x="1087.158203"/>
     <use xlink:href="#DejaVuSans-20" x="1146.337891"/>
     <use xlink:href="#DejaVuSans-70" x="1178.125"/>
     <use xlink:href="#DejaVuSans-6c" x="1241.601562"/>
     <use xlink:href="#DejaVuSans-6f" x="1269.384766"/>
     <use xlink:href="#DejaVuSans-74" x="1330.566406"/>
     <use xlink:href="#DejaVuSans-20" x="1369.775391"/>
     <use xlink:href="#DejaVuSans-62" x="1401.5625"/>
     <use xlink:href="#DejaVuSans-65" x="1465.039062"/>
     <use xlink:href="#DejaVuSans-74" x="1526.5625"/>
     <use xlink:href="#DejaVuSans-77" x="1565.771484"/>
     <use xlink:href="#DejaVuSans-65" x="1647.558594"/>
     <use xlink:href="#DejaVuSans-65" x="1709.082031"/>
     <use xlink:href="#DejaVuSans-6e" x="1770.605469"/>
     <use xlink:href="#DejaVuSans-20" x="1833.984375"/>
     <use xlink:href="#DejaVuSans-47" x="1865.771484"/>
     <use xlink:href="#DejaVuSans-48" x="1943.261719"/>
     <use xlink:href="#DejaVuSans-47" x="2018.457031"/>
     <use xlink:href="#DejaVuSans-20" x="2095.947266"/>
     <use xlink:href="#DejaVuSans-61" x="2127.734375"/>
     <use xlink:href="#DejaVuSans-6e" x="2189.013672"/>
     <use xlink:href="#DejaVuSans-64" x="2252.392578"/>
     <use xlink:href="#DejaVuSans-20" x="2315.869141"/>
     <use xlink:href="#DejaVuSans-41" x="2347.65625"/>
     <use xlink:href="#DejaVuSans-67" x="2416.064453"/>
     <use xlink:href="#DejaVuSans-65" x="2479.541016"/>
    </g>
   </g>
   <g id="text_14">
    <g clip-path="url(#p6b7fa78fb1)">
     <!-- 8.63 -->
     <g transform="translate(208.851847 286.113681) rotate(-1.145467) scale(0.1 -0.1)">
      <defs>
       <path id="DejaVuSans-38" d="M 2034 2216 
Q 1584 2216 1326 1975 
Q 1069 1734 1069 1313 
Q 1069 891 1326 650 
Q 1584 409 2034 409 
Q 2484 409 2743 651 
Q 3003 894 3003 1313 
Q 3003 1734 2745 1975 
Q 2488 2216 2034 2216 
z
M 1403 2484 
Q 997 2584 770 2862 
Q 544 3141 544 3541 
Q 544 4100 942 4425 
Q 1341 4750 2034 4750 
Q 2731 4750 3128 4425 
Q 3525 4100 3525 3541 
Q 3525 3141 3298 2862 
Q 3072 2584 2669 2484 
Q 3125 2378 3379 2068 
Q 3634 1759 3634 1313 
Q 3634 634 3220 271 
Q 2806 -91 2034 -91 
Q 1263 -91 848 271 
Q 434 634 434 1313 
Q 434 1759 690 2068 
Q 947 2378 1403 2484 
z
M 1172 3481 
Q 1172 3119 1398 2916 
Q 1625 2713 2034 2713 
Q 2441 2713 2670 2916 
Q 2900 3119 2900 3481 
Q 2900 3844 2670 4047 
Q 2441 4250 2034 4250 
Q 1625 4250 1398 4047 
Q 1172 3844 1172 3481 
z
" transform="scale(0.015625)"/>
       <path id="DejaVuSans-2e" d="M 684 794 
L 1344 794 
L 1344 0 
L 684 0 
L 684 794 
z
" transform="scale(0.015625)"/>
       <path id="DejaVuSans-36" d="M 2113 2584 
Q 1688 2584 1439 2293 
Q 1191 2003 1191 1497 
Q 1191 994 1439 701 
Q 1688 409 2113 409 
Q 2538 409 2786 701 
Q 3034 994 3034 1497 
Q 3034 2003 2786 2293 
Q 2538 2584 2113 2584 
z
M 3366 4563 
L 3366 3988 
Q 3128 4100 2886 4159 
Q 2644 4219 2406 4219 
Q 1781 4219 1451 3797 
Q 1122 3375 1075 2522 
Q 1259 2794 1537 2939 
Q 1816 3084 2150 3084 
Q 2853 3084 3261 2657 
Q 3669 2231 3669 1497 
Q 3669 778 3244 343 
Q 2819 -91 2113 -91 
Q 1303 -91 875 529 
Q 447 1150 447 2328 
Q 447 3434 972 4092 
Q 1497 4750 2381 4750 
Q 2619 4750 2861 4703 
Q 3103 4656 3366 4563 
z
" transform="scale(0.015625)"/>
      </defs>
      <use xlink:href="#DejaVuSans-38"/>
      <use xlink:href="#DejaVuSans-2e" x="63.623047"/>
      <use xlink:href="#DejaVuSans-36" x="95.410156"/>
      <use xlink:href="#DejaVuSans-33" x="159.033203"/>
     </g>
    </g>
   </g>
   <g id="text_15">
    <g clip-path="url(#p6b7fa78fb1)">
     <!-- 9.45 -->
     <g transform="translate(208.851462 243.295707) rotate(-1.138069) scale(0.1 -0.1)">
      <defs>
       <path id="DejaVuSans-39" d="M 703 97 
L 703 672 
Q 941 559 1184 500 
Q 1428 441 1663 441 
Q 2288 441 2617 861 
Q 2947 1281 2994 2138 
Q 2813 1869 2534 1725 
Q 2256 1581 1919 1581 
Q 1219 1581 811 2004 
Q 403 2428 403 3163 
Q 403 3881 828 4315 
Q 1253 4750 1959 4750 
Q 2769 4750 3195 4129 
Q 3622 3509 3622 2328 
Q 3622 1225 3098 567 
Q 2575 -91 1691 -91 
Q 1453 -91 1209 -44 
Q 966 3 703 97 
z
M 1959 2075 
Q 2384 2075 2632 2365 
Q 2881 2656 2881 3163 
Q 2881 3666 2632 3958 
Q 2384 4250 1959 4250 
Q 1534 4250 1286 3958 
Q 1038 3666 1038 3163 
Q 1038 2656 1286 2365 
Q 1534 2075 1959 2075 
z
" transform="scale(0.015625)"/>
      </defs>
      <use xlink:href="#DejaVuSans-39"/>
      <use xlink:href="#DejaVuSans-2e" x="63.623047"/>
      <use xlink:href="#DejaVuSans-34" x="95.410156"/>
      <use xlink:href="#DejaVuSans-35" x="159.033203"/>
     </g>
    </g>
   </g>
   <g id="text_16">
    <g clip-path="url(#p6b7fa78fb1)">
     <!-- 10.26 -->
     <g transform="translate(248.971863 199.955246) rotate(-1.394283) scale(0.1 -0.1)">
      <use xlink:href="#DejaVuSans-31"/>
      <use xlink:href="#DejaVuSans-30" x="63.623047"/>
      <use xlink:href="#DejaVuSans-2e" x="127.246094"/>
      <use xlink:href="#DejaVuSans-32" x="159.033203"/>
      <use xlink:href="#DejaVuSans-36" x="222.65625"/>
     </g>
    </g>
   </g>
   <g id="text_17">
    <g clip-path="url(#p6b7fa78fb1)">
     <!-- 11.07 -->
     <g transform="translate(250.325076 157.488529) rotate(-1.4493) scale(0.1 -0.1)">
      <defs>
       <path id="DejaVuSans-37" d="M 525 4666 
L 3525 4666 
L 3525 4397 
L 1831 0 
L 1172 0 
L 2766 4134 
L 525 4134 
L 525 4666 
z
" transform="scale(0.015625)"/>
      </defs>
      <use xlink:href="#DejaVuSans-31"/>
      <use xlink:href="#DejaVuSans-31" x="63.623047"/>
      <use xlink:href="#DejaVuSans-2e" x="127.246094"/>
      <use xlink:href="#DejaVuSans-30" x="159.033203"/>
      <use xlink:href="#DejaVuSans-37" x="222.65625"/>
     </g>
    </g>
   </g>
   <g id="text_18">
    <g clip-path="url(#p6b7fa78fb1)">
     <!-- 11.88 -->
     <g transform="translate(111.843266 116.919936) rotate(-0.390655) scale(0.1 -0.1)">
      <use xlink:href="#DejaVuSans-31"/>
      <use xlink:href="#DejaVuSans-31" x="63.623047"/>
      <use xlink:href="#DejaVuSans-2e" x="127.246094"/>
      <use xlink:href="#DejaVuSans-38" x="159.033203"/>
      <use xlink:href="#DejaVuSans-38" x="222.65625"/>
     </g>
    </g>
   </g>
   <g id="text_19">
    <g clip-path="url(#p6b7fa78fb1)">
     <!-- 12.69 -->
     <g transform="translate(111.838502 73.901666) rotate(-0.294716) scale(0.1 -0.1)">
      <use xlink:href="#DejaVuSans-31"/>
      <use xlink:href="#DejaVuSans-32" x="63.623047"/>
      <use xlink:href="#DejaVuSans-2e" x="127.246094"/>
      <use xlink:href="#DejaVuSans-36" x="159.033203"/>
      <use xlink:href="#DejaVuSans-39" x="222.65625"/>
     </g>
    </g>
   </g>
  </g>
 </g>
 <defs>
  <clipPath id="p6b7fa78fb1">
   <rect x="57.6" y="41.472" width="357.12" height="266.112"/>
  </clipPath>
 </defs>
</svg>
