<?xml version="1.0" encoding="utf-8" standalone="no"?>
<!DOCTYPE svg PUBLIC "-//W3C//DTD SVG 1.1//EN"
  "http://www.w3.org/Graphics/SVG/1.1/DTD/svg11.dtd">
<svg xmlns:xlink="http://www.w3.org/1999/xlink" width="460.8pt" height="345.6pt" viewBox="0 0 460.8 345.6" xmlns="http://www.w3.org/2000/svg" version="1.1">
 <metadata>
  <rdf:RDF xmlns:dc="http://purl.org/dc/elements/1.1/" xmlns:cc="http://creativecommons.org/ns#" xmlns:rdf="http://www.w3.org/1999/02/22-rdf-syntax-ns#">
   <cc:Work>
    <dc:type rdf:resource="http://purl.org/dc/dcmitype/StillImage"/>
    <dc:date>2024-04-22T00:59:32.776244</dc:date>
    <dc:format>image/svg+xml</dc:format>
    <dc:creator>
     <cc:Agent>
      <dc:title>Matplotlib v3.7.0, https://matplotlib.org/</dc:title>
     </cc:Agent>
    </dc:creator>
   </cc:Work>
  </rdf:RDF>
 </metadata>
 <defs>
  <style type="text/css">*{stroke-linejoin: round; stroke-linecap: butt}</style>
 </defs>
 <g id="figure_1">
  <g id="patch_1">
   <path d="M 0 345.6 
L 460.8 345.6 
L 460.8 0 
L 0 0 
L 0 345.6 
z
" style="fill: none"/>
  </g>
  <g id="axes_1"/>
  <g id="axes_2">
   <g id="patch_2">
    <path d="M 57.6 307.584 
L 414.72 307.584 
L 414.72 41.472 
L 57.6 41.472 
L 57.6 307.584 
z
" style="fill: none"/>
   </g>
   <g id="PathCollection_1">
    <path d="M 407.505455 305.153179 
L 407.83931 307.584 
L 411.112727 307.584 
L 414.72 307.584 
L 414.72 304.896 
L 414.72 302.208 
L 414.72 299.52 
L 414.72 296.832 
L 414.72 294.144 
L 414.72 291.456 
L 414.72 288.768 
L 414.72 286.08 
L 414.72 283.392 
L 414.72 280.704 
L 414.72 278.016 
L 414.72 275.328 
L 414.72 272.64 
L 414.72 269.952 
L 414.72 267.264 
L 414.72 264.576 
L 414.72 261.888 
L 414.72 259.2 
L 414.72 256.512 
L 414.72 253.824 
L 414.72 251.136 
L 414.72 248.448 
L 414.72 245.76 
L 414.72 243.072 
L 414.72 240.384 
L 414.72 237.696 
L 414.72 235.008 
L 414.72 232.32 
L 414.72 229.632 
L 414.72 226.944 
L 414.72 224.256 
L 414.72 221.568 
L 414.72 218.88 
L 414.72 216.192 
L 414.72 213.504 
L 414.72 210.816 
L 414.72 208.128 
L 414.72 205.44 
L 414.72 202.752 
L 414.72 200.064 
L 414.72 197.376 
L 414.72 194.688 
L 414.72 192 
L 414.72 189.312 
L 414.72 186.624 
L 414.72 183.936 
L 414.72 181.248 
L 414.72 178.56 
L 414.72 175.872 
L 414.72 173.184 
L 414.72 170.496 
L 414.72 167.808 
L 414.72 165.12 
L 414.72 162.432 
L 414.72 159.744 
L 414.72 157.056 
L 414.72 154.368 
L 414.72 151.68 
L 414.72 148.992 
L 414.72 146.304 
L 414.72 143.616 
L 414.72 140.928 
L 414.72 138.24 
L 414.72 135.552 
L 414.72 132.864 
L 414.72 130.176 
L 414.72 127.488 
L 414.72 124.8 
L 414.72 122.112 
L 414.72 119.424 
L 414.72 116.736 
L 414.72 114.048 
L 414.72 111.36 
L 414.72 108.672 
L 414.72 105.984 
L 414.72 103.296 
L 414.72 100.608 
L 414.72 97.92 
L 414.72 95.232 
L 414.72 92.544 
L 414.72 89.856 
L 414.72 87.168 
L 414.72 84.48 
L 414.72 81.792 
L 414.72 79.104 
L 414.72 76.416 
L 414.72 73.728 
L 414.72 71.04 
L 414.72 68.352 
L 414.72 65.664 
L 414.72 62.976 
L 414.72 60.288 
L 414.72 57.6 
L 414.72 54.912 
L 414.72 52.224 
L 414.72 49.536 
L 414.72 46.848 
L 414.72 44.16 
L 414.72 41.472 
L 411.112727 41.472 
L 407.505455 41.472 
L 403.898182 41.472 
L 400.290909 41.472 
L 396.683636 41.472 
L 393.076364 41.472 
L 389.469091 41.472 
L 385.861818 41.472 
L 382.254545 41.472 
L 378.647273 41.472 
L 375.04 41.472 
L 371.432727 41.472 
L 371.388418 41.472 
L 371.432727 41.796332 
L 371.756266 44.16 
L 372.124139 46.848 
L 372.491947 49.536 
L 372.859691 52.224 
L 373.227371 54.912 
L 373.594986 57.6 
L 373.962536 60.288 
L 374.330022 62.976 
L 374.697443 65.664 
L 375.04 68.170518 
L 375.064852 68.352 
L 375.432904 71.04 
L 375.800891 73.728 
L 376.168812 76.416 
L 376.536667 79.104 
L 376.904456 81.792 
L 377.272179 84.48 
L 377.639836 87.168 
L 378.007427 89.856 
L 378.374952 92.544 
L 378.647273 94.536006 
L 378.742612 95.232 
L 379.110779 97.92 
L 379.478878 100.608 
L 379.84691 103.296 
L 380.214875 105.984 
L 380.582772 108.672 
L 380.950602 111.36 
L 381.318365 114.048 
L 381.68606 116.736 
L 382.053689 119.424 
L 382.254545 120.892836 
L 382.421606 122.112 
L 382.789886 124.8 
L 383.158096 127.488 
L 383.526238 130.176 
L 383.894311 132.864 
L 384.262316 135.552 
L 384.630251 138.24 
L 384.998118 140.928 
L 385.365917 143.616 
L 385.733646 146.304 
L 385.861818 147.241043 
L 386.101828 148.992 
L 386.470219 151.68 
L 386.838539 154.368 
L 387.206789 157.056 
L 387.57497 159.744 
L 387.943079 162.432 
L 388.311119 165.12 
L 388.679089 167.808 
L 389.046988 170.496 
L 389.414818 173.184 
L 389.469091 173.580675 
L 389.78327 175.872 
L 390.15177 178.56 
L 390.520199 181.248 
L 390.888556 183.936 
L 391.256841 186.624 
L 391.625055 189.312 
L 391.993197 192 
L 392.361268 194.688 
L 392.729267 197.376 
L 393.076364 199.91181 
L 393.097241 200.064 
L 393.465923 202.752 
L 393.834531 205.44 
L 394.203066 208.128 
L 394.571528 210.816 
L 394.939917 213.504 
L 395.308233 216.192 
L 395.676476 218.88 
L 396.044646 221.568 
L 396.412742 224.256 
L 396.683636 226.234565 
L 396.780987 226.944 
L 397.149776 229.632 
L 397.518491 232.32 
L 397.88713 235.008 
L 398.255695 237.696 
L 398.624186 240.384 
L 398.992602 243.072 
L 399.360943 245.76 
L 399.72921 248.448 
L 400.097402 251.136 
L 400.290909 252.548984 
L 400.465924 253.824 
L 400.834818 256.512 
L 401.203636 259.2 
L 401.572378 261.888 
L 401.941044 264.576 
L 402.309634 267.264 
L 402.678148 269.952 
L 403.046585 272.64 
L 403.414947 275.328 
L 403.783232 278.016 
L 403.898182 278.855155 
L 404.152037 280.704 
L 404.521034 283.392 
L 404.889953 286.08 
L 405.258795 288.768 
L 405.62756 291.456 
L 405.996246 294.144 
L 406.364856 296.832 
L 406.733387 299.52 
L 407.101841 302.208 
L 407.470217 304.896 
z
" clip-path="url(#pe33add616e)" style="fill: #481b6d; fill-opacity: 0.75"/>
   </g>
   <g id="PathCollection_2">
    <path d="M 346.181818 307.584 
L 349.789091 307.584 
L 353.396364 307.584 
L 357.003636 307.584 
L 360.610909 307.584 
L 364.218182 307.584 
L 367.825455 307.584 
L 371.432727 307.584 
L 375.04 307.584 
L 378.647273 307.584 
L 382.254545 307.584 
L 385.861818 307.584 
L 389.469091 307.584 
L 393.076364 307.584 
L 396.683636 307.584 
L 400.290909 307.584 
L 403.898182 307.584 
L 407.505455 307.584 
L 407.83931 307.584 
L 407.505455 305.153179 
L 407.470217 304.896 
L 407.101841 302.208 
L 406.733387 299.52 
L 406.364856 296.832 
L 405.996246 294.144 
L 405.62756 291.456 
L 405.258795 288.768 
L 404.889953 286.08 
L 404.521034 283.392 
L 404.152037 280.704 
L 403.898182 278.855155 
L 403.783232 278.016 
L 403.414947 275.328 
L 403.046585 272.64 
L 402.678148 269.952 
L 402.309634 267.264 
L 401.941044 264.576 
L 401.572378 261.888 
L 401.203636 259.2 
L 400.834818 256.512 
L 400.465924 253.824 
L 400.290909 252.548984 
L 400.097402 251.136 
L 399.72921 248.448 
L 399.360943 245.76 
L 398.992602 243.072 
L 398.624186 240.384 
L 398.255695 237.696 
L 397.88713 235.008 
L 397.518491 232.32 
L 397.149776 229.632 
L 396.780987 226.944 
L 396.683636 226.234565 
L 396.412742 224.256 
L 396.044646 221.568 
L 395.676476 218.88 
L 395.308233 216.192 
L 394.939917 213.504 
L 394.571528 210.816 
L 394.203066 208.128 
L 393.834531 205.44 
L 393.465923 202.752 
L 393.097241 200.064 
L 393.076364 199.91181 
L 392.729267 197.376 
L 392.361268 194.688 
L 391.993197 192 
L 391.625055 189.312 
L 391.256841 186.624 
L 390.888556 183.936 
L 390.520199 181.248 
L 390.15177 178.56 
L 389.78327 175.872 
L 389.469091 173.580675 
L 389.414818 173.184 
L 389.046988 170.496 
L 388.679089 167.808 
L 388.311119 165.12 
L 387.943079 162.432 
L 387.57497 159.744 
L 387.206789 157.056 
L 386.838539 154.368 
L 386.470219 151.68 
L 386.101828 148.992 
L 385.861818 147.241043 
L 385.733646 146.304 
L 385.365917 143.616 
L 384.998118 140.928 
L 384.630251 138.24 
L 384.262316 135.552 
L 383.894311 132.864 
L 383.526238 130.176 
L 383.158096 127.488 
L 382.789886 124.8 
L 382.421606 122.112 
L 382.254545 120.892836 
L 382.053689 119.424 
L 381.68606 116.736 
L 381.318365 114.048 
L 380.950602 111.36 
L 380.582772 108.672 
L 380.214875 105.984 
L 379.84691 103.296 
L 379.478878 100.608 
L 379.110779 97.92 
L 378.742612 95.232 
L 378.647273 94.536006 
L 378.374952 92.544 
L 378.007427 89.856 
L 377.639836 87.168 
L 377.272179 84.48 
L 376.904456 81.792 
L 376.536667 79.104 
L 376.168812 76.416 
L 375.800891 73.728 
L 375.432904 71.04 
L 375.064852 68.352 
L 375.04 68.170518 
L 374.697443 65.664 
L 374.330022 62.976 
L 373.962536 60.288 
L 373.594986 57.6 
L 373.227371 54.912 
L 372.859691 52.224 
L 372.491947 49.536 
L 372.124139 46.848 
L 371.756266 44.16 
L 371.432727 41.796332 
L 371.388418 41.472 
L 367.825455 41.472 
L 364.218182 41.472 
L 360.610909 41.472 
L 357.003636 41.472 
L 353.396364 41.472 
L 349.789091 41.472 
L 346.181818 41.472 
L 342.574545 41.472 
L 338.967273 41.472 
L 335.36 41.472 
L 331.752727 41.472 
L 328.145455 41.472 
L 324.538182 41.472 
L 320.930909 41.472 
L 317.323636 41.472 
L 313.716364 41.472 
L 310.109091 41.472 
L 309.612762 41.472 
L 309.975708 44.16 
L 310.109091 45.148134 
L 310.338795 46.848 
L 310.701912 49.536 
L 311.064905 52.224 
L 311.427774 54.912 
L 311.79052 57.6 
L 312.153141 60.288 
L 312.515639 62.976 
L 312.878013 65.664 
L 313.240263 68.352 
L 313.60239 71.04 
L 313.716364 71.88626 
L 313.964687 73.728 
L 314.326994 76.416 
L 314.689176 79.104 
L 315.051232 81.792 
L 315.413164 84.48 
L 315.774971 87.168 
L 316.136653 89.856 
L 316.498209 92.544 
L 316.859641 95.232 
L 317.220948 97.92 
L 317.323636 98.684206 
L 317.582445 100.608 
L 317.943941 103.296 
L 318.30531 105.984 
L 318.666554 108.672 
L 319.027671 111.36 
L 319.388662 114.048 
L 319.749526 116.736 
L 320.110264 119.424 
L 320.470876 122.112 
L 320.831362 124.8 
L 320.930909 125.542527 
L 321.192048 127.488 
L 321.552731 130.176 
L 321.913287 132.864 
L 322.273716 135.552 
L 322.634017 138.24 
L 322.99419 140.928 
L 323.354235 143.616 
L 323.714153 146.304 
L 324.073943 148.992 
L 324.433606 151.68 
L 324.538182 152.461829 
L 324.793469 154.368 
L 325.153339 157.056 
L 325.513079 159.744 
L 325.87269 162.432 
L 326.232173 165.12 
L 326.591526 167.808 
L 326.95075 170.496 
L 327.309846 173.184 
L 327.668812 175.872 
L 328.02765 178.56 
L 328.145455 179.442769 
L 328.386677 181.248 
L 328.745729 183.936 
L 329.104651 186.624 
L 329.463443 189.312 
L 329.822105 192 
L 330.180636 194.688 
L 330.539036 197.376 
L 330.897307 200.064 
L 331.255447 202.752 
L 331.613456 205.44 
L 331.752727 206.486054 
L 331.971632 208.128 
L 332.329864 210.816 
L 332.687966 213.504 
L 333.045935 216.192 
L 333.403772 218.88 
L 333.761478 221.568 
L 334.119052 224.256 
L 334.476494 226.944 
L 334.833804 229.632 
L 335.190982 232.32 
L 335.36 233.592448 
L 335.54829 235.008 
L 335.9057 237.696 
L 336.262976 240.384 
L 336.620119 243.072 
L 336.977129 245.76 
L 337.334006 248.448 
L 337.690749 251.136 
L 338.047359 253.824 
L 338.403836 256.512 
L 338.760179 259.2 
L 338.967273 260.762768 
L 339.116601 261.888 
L 339.473184 264.576 
L 339.829632 267.264 
L 340.185945 269.952 
L 340.542123 272.64 
L 340.898167 275.328 
L 341.254076 278.016 
L 341.609849 280.704 
L 341.965488 283.392 
L 342.320992 286.08 
L 342.574545 287.997889 
L 342.67651 288.768 
L 343.032261 291.456 
L 343.387876 294.144 
L 343.743355 296.832 
L 344.098697 299.52 
L 344.453902 302.208 
L 344.808972 304.896 
L 345.163905 307.584 
z
" clip-path="url(#pe33add616e)" style="fill: #3f4788; fill-opacity: 0.75"/>
   </g>
   <g id="PathCollection_3">
    <path d="M 284.858182 307.584 
L 288.465455 307.584 
L 292.072727 307.584 
L 295.68 307.584 
L 299.287273 307.584 
L 302.894545 307.584 
L 306.501818 307.584 
L 310.109091 307.584 
L 313.716364 307.584 
L 317.323636 307.584 
L 320.930909 307.584 
L 324.538182 307.584 
L 328.145455 307.584 
L 331.752727 307.584 
L 335.36 307.584 
L 338.967273 307.584 
L 342.574545 307.584 
L 345.163905 307.584 
L 344.808972 304.896 
L 344.453902 302.208 
L 344.098697 299.52 
L 343.743355 296.832 
L 343.387876 294.144 
L 343.032261 291.456 
L 342.67651 288.768 
L 342.574545 287.997889 
L 342.320992 286.08 
L 341.965488 283.392 
L 341.609849 280.704 
L 341.254076 278.016 
L 340.898167 275.328 
L 340.542123 272.64 
L 340.185945 269.952 
L 339.829632 267.264 
L 339.473184 264.576 
L 339.116601 261.888 
L 338.967273 260.762768 
L 338.760179 259.2 
L 338.403836 256.512 
L 338.047359 253.824 
L 337.690749 251.136 
L 337.334006 248.448 
L 336.977129 245.76 
L 336.620119 243.072 
L 336.262976 240.384 
L 335.9057 237.696 
L 335.54829 235.008 
L 335.36 233.592448 
L 335.190982 232.32 
L 334.833804 229.632 
L 334.476494 226.944 
L 334.119052 224.256 
L 333.761478 221.568 
L 333.403772 218.88 
L 333.045935 216.192 
L 332.687966 213.504 
L 332.329864 210.816 
L 331.971632 208.128 
L 331.752727 206.486054 
L 331.613456 205.44 
L 331.255447 202.752 
L 330.897307 200.064 
L 330.539036 197.376 
L 330.180636 194.688 
L 329.822105 192 
L 329.463443 189.312 
L 329.104651 186.624 
L 328.745729 183.936 
L 328.386677 181.248 
L 328.145455 179.442769 
L 328.02765 178.56 
L 327.668812 175.872 
L 327.309846 173.184 
L 326.95075 170.496 
L 326.591526 167.808 
L 326.232173 165.12 
L 325.87269 162.432 
L 325.513079 159.744 
L 325.153339 157.056 
L 324.793469 154.368 
L 324.538182 152.461829 
L 324.433606 151.68 
L 324.073943 148.992 
L 323.714153 146.304 
L 323.354235 143.616 
L 322.99419 140.928 
L 322.634017 138.24 
L 322.273716 135.552 
L 321.913287 132.864 
L 321.552731 130.176 
L 321.192048 127.488 
L 320.930909 125.542527 
L 320.831362 124.8 
L 320.470876 122.112 
L 320.110264 119.424 
L 319.749526 116.736 
L 319.388662 114.048 
L 319.027671 111.36 
L 318.666554 108.672 
L 318.30531 105.984 
L 317.943941 103.296 
L 317.582445 100.608 
L 317.323636 98.684206 
L 317.220948 97.92 
L 316.859641 95.232 
L 316.498209 92.544 
L 316.136653 89.856 
L 315.774971 87.168 
L 315.413164 84.48 
L 315.051232 81.792 
L 314.689176 79.104 
L 314.326994 76.416 
L 313.964687 73.728 
L 313.716364 71.88626 
L 313.60239 71.04 
L 313.240263 68.352 
L 312.878013 65.664 
L 312.515639 62.976 
L 312.153141 60.288 
L 311.79052 57.6 
L 311.427774 54.912 
L 311.064905 52.224 
L 310.701912 49.536 
L 310.338795 46.848 
L 310.109091 45.148134 
L 309.975708 44.16 
L 309.612762 41.472 
L 306.501818 41.472 
L 302.894545 41.472 
L 299.287273 41.472 
L 295.68 41.472 
L 292.072727 41.472 
L 288.465455 41.472 
L 284.858182 41.472 
L 281.250909 41.472 
L 277.643636 41.472 
L 274.036364 41.472 
L 270.429091 41.472 
L 266.821818 41.472 
L 263.214545 41.472 
L 259.607273 41.472 
L 256 41.472 
L 252.392727 41.472 
L 249.031426 41.472 
L 249.393827 44.16 
L 249.756044 46.848 
L 250.118079 49.536 
L 250.47993 52.224 
L 250.841599 54.912 
L 251.203085 57.6 
L 251.564388 60.288 
L 251.925509 62.976 
L 252.286446 65.664 
L 252.392727 66.455886 
L 252.647282 68.352 
L 253.007967 71.04 
L 253.368468 73.728 
L 253.728786 76.416 
L 254.088919 79.104 
L 254.448868 81.792 
L 254.808634 84.48 
L 255.168215 87.168 
L 255.527613 89.856 
L 255.886826 92.544 
L 256 93.391303 
L 256.245942 95.232 
L 256.604913 97.92 
L 256.963699 100.608 
L 257.322299 103.296 
L 257.680715 105.984 
L 258.038945 108.672 
L 258.39699 111.36 
L 258.75485 114.048 
L 259.112525 116.736 
L 259.470015 119.424 
L 259.607273 120.456586 
L 259.827404 122.112 
L 260.18466 124.8 
L 260.54173 127.488 
L 260.898614 130.176 
L 261.255311 132.864 
L 261.611822 135.552 
L 261.968146 138.24 
L 262.324284 140.928 
L 262.680236 143.616 
L 263.036001 146.304 
L 263.214545 147.653712 
L 263.391654 148.992 
L 263.747195 151.68 
L 264.102548 154.368 
L 264.457713 157.056 
L 264.812691 159.744 
L 265.167481 162.432 
L 265.522083 165.12 
L 265.876498 167.808 
L 266.230725 170.496 
L 266.584764 173.184 
L 266.821818 174.984772 
L 266.938668 175.872 
L 267.292492 178.56 
L 267.646126 181.248 
L 267.999572 183.936 
L 268.352828 186.624 
L 268.705895 189.312 
L 269.058773 192 
L 269.411462 194.688 
L 269.763962 197.376 
L 270.116273 200.064 
L 270.429091 202.451974 
L 270.468414 202.752 
L 270.820517 205.44 
L 271.172431 208.128 
L 271.524154 210.816 
L 271.875686 213.504 
L 272.227028 216.192 
L 272.578179 218.88 
L 272.929139 221.568 
L 273.279909 224.256 
L 273.630488 226.944 
L 273.980876 229.632 
L 274.036364 230.057915 
L 274.331228 232.32 
L 274.681417 235.008 
L 275.031413 237.696 
L 275.381218 240.384 
L 275.73083 243.072 
L 276.080251 245.76 
L 276.429479 248.448 
L 276.778515 251.136 
L 277.127358 253.824 
L 277.47601 256.512 
L 277.643636 257.805099 
L 277.824569 259.2 
L 278.173029 261.888 
L 278.521295 264.576 
L 278.869368 267.264 
L 279.217246 269.952 
L 279.564931 272.64 
L 279.912422 275.328 
L 280.25972 278.016 
L 280.606823 280.704 
L 280.953733 283.392 
L 281.250909 285.695954 
L 281.300478 286.08 
L 281.647203 288.768 
L 281.993734 291.456 
L 282.340069 294.144 
L 282.686208 296.832 
L 283.032153 299.52 
L 283.377901 302.208 
L 283.723455 304.896 
L 284.068812 307.584 
z
" clip-path="url(#pe33add616e)" style="fill: #2e6e8e; fill-opacity: 0.75"/>
   </g>
   <g id="PathCollection_4">
    <path d="M 223.534545 307.003979 
L 223.607746 307.584 
L 227.141818 307.584 
L 230.749091 307.584 
L 234.356364 307.584 
L 237.963636 307.584 
L 241.570909 307.584 
L 245.178182 307.584 
L 248.785455 307.584 
L 252.392727 307.584 
L 256 307.584 
L 259.607273 307.584 
L 263.214545 307.584 
L 266.821818 307.584 
L 270.429091 307.584 
L 274.036364 307.584 
L 277.643636 307.584 
L 281.250909 307.584 
L 284.068812 307.584 
L 283.723455 304.896 
L 283.377901 302.208 
L 283.032153 299.52 
L 282.686208 296.832 
L 282.340069 294.144 
L 281.993734 291.456 
L 281.647203 288.768 
L 281.300478 286.08 
L 281.250909 285.695954 
L 280.953733 283.392 
L 280.606823 280.704 
L 280.25972 278.016 
L 279.912422 275.328 
L 279.564931 272.64 
L 279.217246 269.952 
L 278.869368 267.264 
L 278.521295 264.576 
L 278.173029 261.888 
L 277.824569 259.2 
L 277.643636 257.805099 
L 277.47601 256.512 
L 277.127358 253.824 
L 276.778515 251.136 
L 276.429479 248.448 
L 276.080251 245.76 
L 275.73083 243.072 
L 275.381218 240.384 
L 275.031413 237.696 
L 274.681417 235.008 
L 274.331228 232.32 
L 274.036364 230.057915 
L 273.980876 229.632 
L 273.630488 226.944 
L 273.279909 224.256 
L 272.929139 221.568 
L 272.578179 218.88 
L 272.227028 216.192 
L 271.875686 213.504 
L 271.524154 210.816 
L 271.172431 208.128 
L 270.820517 205.44 
L 270.468414 202.752 
L 270.429091 202.451974 
L 270.116273 200.064 
L 269.763962 197.376 
L 269.411462 194.688 
L 269.058773 192 
L 268.705895 189.312 
L 268.352828 186.624 
L 267.999572 183.936 
L 267.646126 181.248 
L 267.292492 178.56 
L 266.938668 175.872 
L 266.821818 174.984772 
L 266.584764 173.184 
L 266.230725 170.496 
L 265.876498 167.808 
L 265.522083 165.12 
L 265.167481 162.432 
L 264.812691 159.744 
L 264.457713 157.056 
L 264.102548 154.368 
L 263.747195 151.68 
L 263.391654 148.992 
L 263.214545 147.653712 
L 263.036001 146.304 
L 262.680236 143.616 
L 262.324284 140.928 
L 261.968146 138.24 
L 261.611822 135.552 
L 261.255311 132.864 
L 260.898614 130.176 
L 260.54173 127.488 
L 260.18466 124.8 
L 259.827404 122.112 
L 259.607273 120.456586 
L 259.470015 119.424 
L 259.112525 116.736 
L 258.75485 114.048 
L 258.39699 111.36 
L 258.038945 108.672 
L 257.680715 105.984 
L 257.322299 103.296 
L 256.963699 100.608 
L 256.604913 97.92 
L 256.245942 95.232 
L 256 93.391303 
L 255.886826 92.544 
L 255.527613 89.856 
L 255.168215 87.168 
L 254.808634 84.48 
L 254.448868 81.792 
L 254.088919 79.104 
L 253.728786 76.416 
L 253.368468 73.728 
L 253.007967 71.04 
L 252.647282 68.352 
L 252.392727 66.455886 
L 252.286446 65.664 
L 251.925509 62.976 
L 251.564388 60.288 
L 251.203085 57.6 
L 250.841599 54.912 
L 250.47993 52.224 
L 250.118079 49.536 
L 249.756044 46.848 
L 249.393827 44.16 
L 249.031426 41.472 
L 248.785455 41.472 
L 245.178182 41.472 
L 241.570909 41.472 
L 237.963636 41.472 
L 234.356364 41.472 
L 230.749091 41.472 
L 227.141818 41.472 
L 223.534545 41.472 
L 219.927273 41.472 
L 216.32 41.472 
L 212.712727 41.472 
L 209.105455 41.472 
L 205.498182 41.472 
L 201.890909 41.472 
L 198.283636 41.472 
L 194.676364 41.472 
L 191.069091 41.472 
L 188.740236 41.472 
L 189.105352 44.16 
L 189.470224 46.848 
L 189.834852 49.536 
L 190.199236 52.224 
L 190.563376 54.912 
L 190.927272 57.6 
L 191.069091 58.648277 
L 191.290801 60.288 
L 191.654006 62.976 
L 192.016967 65.664 
L 192.379683 68.352 
L 192.742154 71.04 
L 193.104379 73.728 
L 193.46636 76.416 
L 193.828096 79.104 
L 194.189586 81.792 
L 194.550832 84.48 
L 194.676364 85.414706 
L 194.91171 87.168 
L 195.272278 89.856 
L 195.632599 92.544 
L 195.992675 95.232 
L 196.352504 97.92 
L 196.712087 100.608 
L 197.071424 103.296 
L 197.430515 105.984 
L 197.78936 108.672 
L 198.147958 111.36 
L 198.283636 112.377731 
L 198.506203 114.048 
L 198.864135 116.736 
L 199.22182 119.424 
L 199.579257 122.112 
L 199.936447 124.8 
L 200.29339 127.488 
L 200.650086 130.176 
L 201.006534 132.864 
L 201.362735 135.552 
L 201.718688 138.24 
L 201.890909 139.541456 
L 202.074312 140.928 
L 202.42961 143.616 
L 202.78466 146.304 
L 203.139461 148.992 
L 203.494014 151.68 
L 203.848318 154.368 
L 204.202373 157.056 
L 204.55618 159.744 
L 204.909738 162.432 
L 205.263047 165.12 
L 205.498182 166.910204 
L 205.616059 167.808 
L 205.968724 170.496 
L 206.321139 173.184 
L 206.673304 175.872 
L 207.025219 178.56 
L 207.376884 181.248 
L 207.7283 183.936 
L 208.079465 186.624 
L 208.430379 189.312 
L 208.781044 192 
L 209.105455 194.488534 
L 209.131449 194.688 
L 209.48148 197.376 
L 209.83126 200.064 
L 210.180788 202.752 
L 210.530065 205.44 
L 210.87909 208.128 
L 211.227864 210.816 
L 211.576386 213.504 
L 211.924657 216.192 
L 212.272676 218.88 
L 212.620443 221.568 
L 212.712727 222.281845 
L 212.96787 224.256 
L 213.315013 226.944 
L 213.661902 229.632 
L 214.008539 232.32 
L 214.354922 235.008 
L 214.701052 237.696 
L 215.046929 240.384 
L 215.392553 243.072 
L 215.737923 245.76 
L 216.08304 248.448 
L 216.32 250.294999 
L 216.42787 251.136 
L 216.772373 253.824 
L 217.11662 256.512 
L 217.460613 259.2 
L 217.804351 261.888 
L 218.147835 264.576 
L 218.491063 267.264 
L 218.834036 269.952 
L 219.176754 272.64 
L 219.519217 275.328 
L 219.861425 278.016 
L 219.927273 278.533646 
L 220.203301 280.704 
L 220.544903 283.392 
L 220.886248 286.08 
L 221.227336 288.768 
L 221.568168 291.456 
L 221.908743 294.144 
L 222.249061 296.832 
L 222.589122 299.52 
L 222.928927 302.208 
L 223.268474 304.896 
z
" clip-path="url(#pe33add616e)" style="fill: #21908d; fill-opacity: 0.75"/>
   </g>
   <g id="PathCollection_5">
    <path d="M 165.818182 307.584 
L 169.425455 307.584 
L 173.032727 307.584 
L 176.64 307.584 
L 180.247273 307.584 
L 183.854545 307.584 
L 187.461818 307.584 
L 191.069091 307.584 
L 194.676364 307.584 
L 198.283636 307.584 
L 201.890909 307.584 
L 205.498182 307.584 
L 209.105455 307.584 
L 212.712727 307.584 
L 216.32 307.584 
L 219.927273 307.584 
L 223.534545 307.584 
L 223.607746 307.584 
L 223.534545 307.003979 
L 223.268474 304.896 
L 222.928927 302.208 
L 222.589122 299.52 
L 222.249061 296.832 
L 221.908743 294.144 
L 221.568168 291.456 
L 221.227336 288.768 
L 220.886248 286.08 
L 220.544903 283.392 
L 220.203301 280.704 
L 219.927273 278.533646 
L 219.861425 278.016 
L 219.519217 275.328 
L 219.176754 272.64 
L 218.834036 269.952 
L 218.491063 267.264 
L 218.147835 264.576 
L 217.804351 261.888 
L 217.460613 259.2 
L 217.11662 256.512 
L 216.772373 253.824 
L 216.42787 251.136 
L 216.32 250.294999 
L 216.08304 248.448 
L 215.737923 245.76 
L 215.392553 243.072 
L 215.046929 240.384 
L 214.701052 237.696 
L 214.354922 235.008 
L 214.008539 232.32 
L 213.661902 229.632 
L 213.315013 226.944 
L 212.96787 224.256 
L 212.712727 222.281845 
L 212.620443 221.568 
L 212.272676 218.88 
L 211.924657 216.192 
L 211.576386 213.504 
L 211.227864 210.816 
L 210.87909 208.128 
L 210.530065 205.44 
L 210.180788 202.752 
L 209.83126 200.064 
L 209.48148 197.376 
L 209.131449 194.688 
L 209.105455 194.488534 
L 208.781044 192 
L 208.430379 189.312 
L 208.079465 186.624 
L 207.7283 183.936 
L 207.376884 181.248 
L 207.025219 178.56 
L 206.673304 175.872 
L 206.321139 173.184 
L 205.968724 170.496 
L 205.616059 167.808 
L 205.498182 166.910204 
L 205.263047 165.12 
L 204.909738 162.432 
L 204.55618 159.744 
L 204.202373 157.056 
L 203.848318 154.368 
L 203.494014 151.68 
L 203.139461 148.992 
L 202.78466 146.304 
L 202.42961 143.616 
L 202.074312 140.928 
L 201.890909 139.541456 
L 201.718688 138.24 
L 201.362735 135.552 
L 201.006534 132.864 
L 200.650086 130.176 
L 200.29339 127.488 
L 199.936447 124.8 
L 199.579257 122.112 
L 199.22182 119.424 
L 198.864135 116.736 
L 198.506203 114.048 
L 198.283636 112.377731 
L 198.147958 111.36 
L 197.78936 108.672 
L 197.430515 105.984 
L 197.071424 103.296 
L 196.712087 100.608 
L 196.352504 97.92 
L 195.992675 95.232 
L 195.632599 92.544 
L 195.272278 89.856 
L 194.91171 87.168 
L 194.676364 85.414706 
L 194.550832 84.48 
L 194.189586 81.792 
L 193.828096 79.104 
L 193.46636 76.416 
L 193.104379 73.728 
L 192.742154 71.04 
L 192.379683 68.352 
L 192.016967 65.664 
L 191.654006 62.976 
L 191.290801 60.288 
L 191.069091 58.648277 
L 190.927272 57.6 
L 190.563376 54.912 
L 190.199236 52.224 
L 189.834852 49.536 
L 189.470224 46.848 
L 189.105352 44.16 
L 188.740236 41.472 
L 187.461818 41.472 
L 183.854545 41.472 
L 180.247273 41.472 
L 176.64 41.472 
L 173.032727 41.472 
L 169.425455 41.472 
L 165.818182 41.472 
L 162.210909 41.472 
L 158.603636 41.472 
L 154.996364 41.472 
L 151.389091 41.472 
L 147.781818 41.472 
L 144.174545 41.472 
L 140.567273 41.472 
L 136.96 41.472 
L 133.352727 41.472 
L 129.745455 41.472 
L 127.858708 41.472 
L 128.230408 44.16 
L 128.601798 46.848 
L 128.972878 49.536 
L 129.343649 52.224 
L 129.71411 54.912 
L 129.745455 55.139622 
L 130.08377 57.6 
L 130.453075 60.288 
L 130.822068 62.976 
L 131.190752 65.664 
L 131.559124 68.352 
L 131.927186 71.04 
L 132.294938 73.728 
L 132.662379 76.416 
L 133.029509 79.104 
L 133.352727 81.4725 
L 133.396268 81.792 
L 133.762258 84.48 
L 134.127937 87.168 
L 134.493305 89.856 
L 134.858361 92.544 
L 135.223106 95.232 
L 135.587539 97.92 
L 135.95166 100.608 
L 136.31547 103.296 
L 136.678968 105.984 
L 136.96 108.063986 
L 137.042041 108.672 
L 137.404415 111.36 
L 137.766476 114.048 
L 138.128225 116.736 
L 138.489661 119.424 
L 138.850785 122.112 
L 139.211595 124.8 
L 139.572093 127.488 
L 139.932278 130.176 
L 140.292149 132.864 
L 140.567273 134.920801 
L 140.651595 135.552 
L 141.010359 138.24 
L 141.368808 140.928 
L 141.726944 143.616 
L 142.084766 146.304 
L 142.442273 148.992 
L 142.799467 151.68 
L 143.156346 154.368 
L 143.512911 157.056 
L 143.869161 159.744 
L 144.174545 162.050259 
L 144.225031 162.432 
L 144.580189 165.12 
L 144.935031 167.808 
L 145.289557 170.496 
L 145.643769 173.184 
L 145.997664 175.872 
L 146.351244 178.56 
L 146.704509 181.248 
L 147.057457 183.936 
L 147.41009 186.624 
L 147.762406 189.312 
L 147.781818 189.460246 
L 148.113985 192 
L 148.465222 194.688 
L 148.816143 197.376 
L 149.166746 200.064 
L 149.517032 202.752 
L 149.867001 205.44 
L 150.216652 208.128 
L 150.565987 210.816 
L 150.915003 213.504 
L 151.263702 216.192 
L 151.389091 217.159512 
L 151.611809 218.88 
L 151.959443 221.568 
L 152.306758 224.256 
L 152.653754 226.944 
L 153.000432 229.632 
L 153.34679 232.32 
L 153.69283 235.008 
L 154.03855 237.696 
L 154.383951 240.384 
L 154.729033 243.072 
L 154.996364 245.156337 
L 155.073703 245.76 
L 155.417733 248.448 
L 155.761442 251.136 
L 156.104831 253.824 
L 156.447899 256.512 
L 156.790647 259.2 
L 157.133073 261.888 
L 157.475179 264.576 
L 157.816963 267.264 
L 158.158427 269.952 
L 158.499568 272.64 
L 158.603636 273.460832 
L 158.840114 275.328 
L 159.180216 278.016 
L 159.519996 280.704 
L 159.859453 283.392 
L 160.198587 286.08 
L 160.537398 288.768 
L 160.875886 291.456 
L 161.214052 294.144 
L 161.551893 296.832 
L 161.889412 299.52 
L 162.210909 302.082878 
L 162.226589 302.208 
L 162.563081 304.896 
L 162.899247 307.584 
z
" clip-path="url(#pe33add616e)" style="fill: #2db27d; fill-opacity: 0.75"/>
   </g>
   <g id="PathCollection_6">
    <path d="M 100.887273 306.544034 
L 101.017415 307.584 
L 104.494545 307.584 
L 108.101818 307.584 
L 111.709091 307.584 
L 115.316364 307.584 
L 118.923636 307.584 
L 122.530909 307.584 
L 126.138182 307.584 
L 129.745455 307.584 
L 133.352727 307.584 
L 136.96 307.584 
L 140.567273 307.584 
L 144.174545 307.584 
L 147.781818 307.584 
L 151.389091 307.584 
L 154.996364 307.584 
L 158.603636 307.584 
L 162.210909 307.584 
L 162.899247 307.584 
L 162.563081 304.896 
L 162.226589 302.208 
L 162.210909 302.082878 
L 161.889412 299.52 
L 161.551893 296.832 
L 161.214052 294.144 
L 160.875886 291.456 
L 160.537398 288.768 
L 160.198587 286.08 
L 159.859453 283.392 
L 159.519996 280.704 
L 159.180216 278.016 
L 158.840114 275.328 
L 158.603636 273.460832 
L 158.499568 272.64 
L 158.158427 269.952 
L 157.816963 267.264 
L 157.475179 264.576 
L 157.133073 261.888 
L 156.790647 259.2 
L 156.447899 256.512 
L 156.104831 253.824 
L 155.761442 251.136 
L 155.417733 248.448 
L 155.073703 245.76 
L 154.996364 245.156337 
L 154.729033 243.072 
L 154.383951 240.384 
L 154.03855 237.696 
L 153.69283 235.008 
L 153.34679 232.32 
L 153.000432 229.632 
L 152.653754 226.944 
L 152.306758 224.256 
L 151.959443 221.568 
L 151.611809 218.88 
L 151.389091 217.159512 
L 151.263702 216.192 
L 150.915003 213.504 
L 150.565987 210.816 
L 150.216652 208.128 
L 149.867001 205.44 
L 149.517032 202.752 
L 149.166746 200.064 
L 148.816143 197.376 
L 148.465222 194.688 
L 148.113985 192 
L 147.781818 189.460246 
L 147.762406 189.312 
L 147.41009 186.624 
L 147.057457 183.936 
L 146.704509 181.248 
L 146.351244 178.56 
L 145.997664 175.872 
L 145.643769 173.184 
L 145.289557 170.496 
L 144.935031 167.808 
L 144.580189 165.12 
L 144.225031 162.432 
L 144.174545 162.050259 
L 143.869161 159.744 
L 143.512911 157.056 
L 143.156346 154.368 
L 142.799467 151.68 
L 142.442273 148.992 
L 142.084766 146.304 
L 141.726944 143.616 
L 141.368808 140.928 
L 141.010359 138.24 
L 140.651595 135.552 
L 140.567273 134.920801 
L 140.292149 132.864 
L 139.932278 130.176 
L 139.572093 127.488 
L 139.211595 124.8 
L 138.850785 122.112 
L 138.489661 119.424 
L 138.128225 116.736 
L 137.766476 114.048 
L 137.404415 111.36 
L 137.042041 108.672 
L 136.96 108.063986 
L 136.678968 105.984 
L 136.31547 103.296 
L 135.95166 100.608 
L 135.587539 97.92 
L 135.223106 95.232 
L 134.858361 92.544 
L 134.493305 89.856 
L 134.127937 87.168 
L 133.762258 84.48 
L 133.396268 81.792 
L 133.352727 81.4725 
L 133.029509 79.104 
L 132.662379 76.416 
L 132.294938 73.728 
L 131.927186 71.04 
L 131.559124 68.352 
L 131.190752 65.664 
L 130.822068 62.976 
L 130.453075 60.288 
L 130.08377 57.6 
L 129.745455 55.139622 
L 129.71411 54.912 
L 129.343649 52.224 
L 128.972878 49.536 
L 128.601798 46.848 
L 128.230408 44.16 
L 127.858708 41.472 
L 126.138182 41.472 
L 122.530909 41.472 
L 118.923636 41.472 
L 115.316364 41.472 
L 111.709091 41.472 
L 108.101818 41.472 
L 104.494545 41.472 
L 100.887273 41.472 
L 97.28 41.472 
L 93.672727 41.472 
L 90.065455 41.472 
L 86.458182 41.472 
L 82.850909 41.472 
L 79.243636 41.472 
L 75.636364 41.472 
L 72.029091 41.472 
L 68.421818 41.472 
L 65.418932 41.472 
L 65.801414 44.16 
L 66.183513 46.848 
L 66.56523 49.536 
L 66.946564 52.224 
L 67.327515 54.912 
L 67.708084 57.6 
L 68.08827 60.288 
L 68.421818 62.648652 
L 68.467962 62.976 
L 68.846473 65.664 
L 69.2246 68.352 
L 69.602344 71.04 
L 69.979705 73.728 
L 70.356681 76.416 
L 70.733275 79.104 
L 71.109484 81.792 
L 71.48531 84.48 
L 71.860752 87.168 
L 72.029091 88.37451 
L 72.235323 89.856 
L 72.609113 92.544 
L 72.982518 95.232 
L 73.355539 97.92 
L 73.728175 100.608 
L 74.100427 103.296 
L 74.472294 105.984 
L 74.843776 108.672 
L 75.214873 111.36 
L 75.585585 114.048 
L 75.636364 114.416601 
L 75.955171 116.736 
L 76.324253 119.424 
L 76.69295 122.112 
L 77.061261 124.8 
L 77.429187 127.488 
L 77.796726 130.176 
L 78.163879 132.864 
L 78.530645 135.552 
L 78.897026 138.24 
L 79.243636 140.785651 
L 79.262976 140.928 
L 79.62775 143.616 
L 79.992137 146.304 
L 80.356136 148.992 
L 80.719749 151.68 
L 81.082974 154.368 
L 81.445811 157.056 
L 81.808261 159.744 
L 82.170323 162.432 
L 82.531998 165.12 
L 82.850909 167.492753 
L 82.893189 167.808 
L 83.253279 170.496 
L 83.612979 173.184 
L 83.972291 175.872 
L 84.331214 178.56 
L 84.689748 181.248 
L 85.047893 183.936 
L 85.405648 186.624 
L 85.763015 189.312 
L 86.119991 192 
L 86.458182 194.549339 
L 86.476538 194.688 
L 86.83195 197.376 
L 87.186972 200.064 
L 87.541604 202.752 
L 87.895845 205.44 
L 88.249695 208.128 
L 88.603154 210.816 
L 88.956222 213.504 
L 89.308899 216.192 
L 89.661184 218.88 
L 90.013079 221.568 
L 90.065455 221.96857 
L 90.363933 224.256 
L 90.714282 226.944 
L 91.064239 229.632 
L 91.413803 232.32 
L 91.762975 235.008 
L 92.111754 237.696 
L 92.460139 240.384 
L 92.808132 243.072 
L 93.155731 245.76 
L 93.502936 248.448 
L 93.672727 249.76407 
L 93.849372 251.136 
L 94.195052 253.824 
L 94.540338 256.512 
L 94.885229 259.2 
L 95.229725 261.888 
L 95.573827 264.576 
L 95.917533 267.264 
L 96.260844 269.952 
L 96.603759 272.64 
L 96.946279 275.328 
L 97.28 277.949991 
L 97.288385 278.016 
L 97.629398 280.704 
L 97.970015 283.392 
L 98.310235 286.08 
L 98.650057 288.768 
L 98.989483 291.456 
L 99.328511 294.144 
L 99.667141 296.832 
L 100.005374 299.52 
L 100.343208 302.208 
L 100.680645 304.896 
z
" clip-path="url(#pe33add616e)" style="fill: #73d056; fill-opacity: 0.75"/>
   </g>
   <g id="PathCollection_7">
    <path d="M 61.207273 307.584 
L 64.814545 307.584 
L 68.421818 307.584 
L 72.029091 307.584 
L 75.636364 307.584 
L 79.243636 307.584 
L 82.850909 307.584 
L 86.458182 307.584 
L 90.065455 307.584 
L 93.672727 307.584 
L 97.28 307.584 
L 100.887273 307.584 
L 101.017415 307.584 
L 100.887273 306.544034 
L 100.680645 304.896 
L 100.343208 302.208 
L 100.005374 299.52 
L 99.667141 296.832 
L 99.328511 294.144 
L 98.989483 291.456 
L 98.650057 288.768 
L 98.310235 286.08 
L 97.970015 283.392 
L 97.629398 280.704 
L 97.288385 278.016 
L 97.28 277.949991 
L 96.946279 275.328 
L 96.603759 272.64 
L 96.260844 269.952 
L 95.917533 267.264 
L 95.573827 264.576 
L 95.229725 261.888 
L 94.885229 259.2 
L 94.540338 256.512 
L 94.195052 253.824 
L 93.849372 251.136 
L 93.672727 249.76407 
L 93.502936 248.448 
L 93.155731 245.76 
L 92.808132 243.072 
L 92.460139 240.384 
L 92.111754 237.696 
L 91.762975 235.008 
L 91.413803 232.32 
L 91.064239 229.632 
L 90.714282 226.944 
L 90.363933 224.256 
L 90.065455 221.96857 
L 90.013079 221.568 
L 89.661184 218.88 
L 89.308899 216.192 
L 88.956222 213.504 
L 88.603154 210.816 
L 88.249695 208.128 
L 87.895845 205.44 
L 87.541604 202.752 
L 87.186972 200.064 
L 86.83195 197.376 
L 86.476538 194.688 
L 86.458182 194.549339 
L 86.119991 192 
L 85.763015 189.312 
L 85.405648 186.624 
L 85.047893 183.936 
L 84.689748 181.248 
L 84.331214 178.56 
L 83.972291 175.872 
L 83.612979 173.184 
L 83.253279 170.496 
L 82.893189 167.808 
L 82.850909 167.492753 
L 82.531998 165.12 
L 82.170323 162.432 
L 81.808261 159.744 
L 81.445811 157.056 
L 81.082974 154.368 
L 80.719749 151.68 
L 80.356136 148.992 
L 79.992137 146.304 
L 79.62775 143.616 
L 79.262976 140.928 
L 79.243636 140.785651 
L 78.897026 138.24 
L 78.530645 135.552 
L 78.163879 132.864 
L 77.796726 130.176 
L 77.429187 127.488 
L 77.061261 124.8 
L 76.69295 122.112 
L 76.324253 119.424 
L 75.955171 116.736 
L 75.636364 114.416601 
L 75.585585 114.048 
L 75.214873 111.36 
L 74.843776 108.672 
L 74.472294 105.984 
L 74.100427 103.296 
L 73.728175 100.608 
L 73.355539 97.92 
L 72.982518 95.232 
L 72.609113 92.544 
L 72.235323 89.856 
L 72.029091 88.37451 
L 71.860752 87.168 
L 71.48531 84.48 
L 71.109484 81.792 
L 70.733275 79.104 
L 70.356681 76.416 
L 69.979705 73.728 
L 69.602344 71.04 
L 69.2246 68.352 
L 68.846473 65.664 
L 68.467962 62.976 
L 68.421818 62.648652 
L 68.08827 60.288 
L 67.708084 57.6 
L 67.327515 54.912 
L 66.946564 52.224 
L 66.56523 49.536 
L 66.183513 46.848 
L 65.801414 44.16 
L 65.418932 41.472 
L 64.814545 41.472 
L 61.207273 41.472 
L 57.6 41.472 
L 57.6 44.16 
L 57.6 46.848 
L 57.6 49.536 
L 57.6 52.224 
L 57.6 54.912 
L 57.6 57.6 
L 57.6 60.288 
L 57.6 62.976 
L 57.6 65.664 
L 57.6 68.352 
L 57.6 71.04 
L 57.6 73.728 
L 57.6 76.416 
L 57.6 79.104 
L 57.6 81.792 
L 57.6 84.48 
L 57.6 87.168 
L 57.6 89.856 
L 57.6 92.544 
L 57.6 95.232 
L 57.6 97.92 
L 57.6 100.608 
L 57.6 103.296 
L 57.6 105.984 
L 57.6 108.672 
L 57.6 111.36 
L 57.6 114.048 
L 57.6 116.736 
L 57.6 119.424 
L 57.6 122.112 
L 57.6 124.8 
L 57.6 127.488 
L 57.6 130.176 
L 57.6 132.864 
L 57.6 135.552 
L 57.6 138.24 
L 57.6 140.928 
L 57.6 143.616 
L 57.6 146.304 
L 57.6 148.992 
L 57.6 151.68 
L 57.6 154.368 
L 57.6 157.056 
L 57.6 159.744 
L 57.6 162.432 
L 57.6 165.12 
L 57.6 167.808 
L 57.6 170.496 
L 57.6 173.184 
L 57.6 175.872 
L 57.6 178.56 
L 57.6 181.248 
L 57.6 183.936 
L 57.6 186.624 
L 57.6 189.312 
L 57.6 192 
L 57.6 194.688 
L 57.6 197.376 
L 57.6 200.064 
L 57.6 202.752 
L 57.6 205.44 
L 57.6 208.128 
L 57.6 210.816 
L 57.6 213.504 
L 57.6 216.192 
L 57.6 218.88 
L 57.6 221.568 
L 57.6 224.256 
L 57.6 226.944 
L 57.6 229.632 
L 57.6 232.32 
L 57.6 235.008 
L 57.6 237.696 
L 57.6 240.384 
L 57.6 243.072 
L 57.6 245.76 
L 57.6 248.448 
L 57.6 251.136 
L 57.6 253.824 
L 57.6 256.512 
L 57.6 259.2 
L 57.6 261.888 
L 57.6 264.576 
L 57.6 267.264 
L 57.6 269.952 
L 57.6 272.64 
L 57.6 275.328 
L 57.6 278.016 
L 57.6 280.704 
L 57.6 283.392 
L 57.6 286.08 
L 57.6 288.768 
L 57.6 291.456 
L 57.6 294.144 
L 57.6 296.832 
L 57.6 299.52 
L 57.6 302.208 
L 57.6 304.896 
L 57.6 307.584 
z
" clip-path="url(#pe33add616e)" style="fill: #d0e11c; fill-opacity: 0.75"/>
   </g>
   <g id="matplotlib.axis_1">
    <g id="xtick_1">
     <g id="line2d_1">
      <defs>
       <path id="m02a3dc48c9" d="M 0 0 
L 0 3.5 
" style="stroke: #000000; stroke-width: 0.8"/>
      </defs>
      <g>
       <use xlink:href="#m02a3dc48c9" x="80.828777" y="307.584" style="stroke: #000000; stroke-width: 0.8"/>
      </g>
     </g>
     <g id="text_1">
      <!-- 10 -->
      <g transform="translate(74.466277 322.182437) scale(0.1 -0.1)">
       <defs>
        <path id="DejaVuSans-31" d="M 794 531 
L 1825 531 
L 1825 4091 
L 703 3866 
L 703 4441 
L 1819 4666 
L 2450 4666 
L 2450 531 
L 3481 531 
L 3481 0 
L 794 0 
L 794 531 
z
" transform="scale(0.015625)"/>
        <path id="DejaVuSans-30" d="M 2034 4250 
Q 1547 4250 1301 3770 
Q 1056 3291 1056 2328 
Q 1056 1369 1301 889 
Q 1547 409 2034 409 
Q 2525 409 2770 889 
Q 3016 1369 3016 2328 
Q 3016 3291 2770 3770 
Q 2525 4250 2034 4250 
z
M 2034 4750 
Q 2819 4750 3233 4129 
Q 3647 3509 3647 2328 
Q 3647 1150 3233 529 
Q 2819 -91 2034 -91 
Q 1250 -91 836 529 
Q 422 1150 422 2328 
Q 422 3509 836 4129 
Q 1250 4750 2034 4750 
z
" transform="scale(0.015625)"/>
       </defs>
       <use xlink:href="#DejaVuSans-31"/>
       <use xlink:href="#DejaVuSans-30" x="63.623047"/>
      </g>
     </g>
    </g>
    <g id="xtick_2">
     <g id="line2d_2">
      <g>
       <use xlink:href="#m02a3dc48c9" x="122.391862" y="307.584" style="stroke: #000000; stroke-width: 0.8"/>
      </g>
     </g>
     <g id="text_2">
      <!-- 15 -->
      <g transform="translate(116.029362 322.182437) scale(0.1 -0.1)">
       <defs>
        <path id="DejaVuSans-35" d="M 691 4666 
L 3169 4666 
L 3169 4134 
L 1269 4134 
L 1269 2991 
Q 1406 3038 1543 3061 
Q 1681 3084 1819 3084 
Q 2600 3084 3056 2656 
Q 3513 2228 3513 1497 
Q 3513 744 3044 326 
Q 2575 -91 1722 -91 
Q 1428 -91 1123 -41 
Q 819 9 494 109 
L 494 744 
Q 775 591 1075 516 
Q 1375 441 1709 441 
Q 2250 441 2565 725 
Q 2881 1009 2881 1497 
Q 2881 1984 2565 2268 
Q 2250 2553 1709 2553 
Q 1456 2553 1204 2497 
Q 953 2441 691 2322 
L 691 4666 
z
" transform="scale(0.015625)"/>
       </defs>
       <use xlink:href="#DejaVuSans-31"/>
       <use xlink:href="#DejaVuSans-35" x="63.623047"/>
      </g>
     </g>
    </g>
    <g id="xtick_3">
     <g id="line2d_3">
      <g>
       <use xlink:href="#m02a3dc48c9" x="163.954947" y="307.584" style="stroke: #000000; stroke-width: 0.8"/>
      </g>
     </g>
     <g id="text_3">
      <!-- 20 -->
      <g transform="translate(157.592447 322.182437) scale(0.1 -0.1)">
       <defs>
        <path id="DejaVuSans-32" d="M 1228 531 
L 3431 531 
L 3431 0 
L 469 0 
L 469 531 
Q 828 903 1448 1529 
Q 2069 2156 2228 2338 
Q 2531 2678 2651 2914 
Q 2772 3150 2772 3378 
Q 2772 3750 2511 3984 
Q 2250 4219 1831 4219 
Q 1534 4219 1204 4116 
Q 875 4013 500 3803 
L 500 4441 
Q 881 4594 1212 4672 
Q 1544 4750 1819 4750 
Q 2544 4750 2975 4387 
Q 3406 4025 3406 3419 
Q 3406 3131 3298 2873 
Q 3191 2616 2906 2266 
Q 2828 2175 2409 1742 
Q 1991 1309 1228 531 
z
" transform="scale(0.015625)"/>
       </defs>
       <use xlink:href="#DejaVuSans-32"/>
       <use xlink:href="#DejaVuSans-30" x="63.623047"/>
      </g>
     </g>
    </g>
    <g id="xtick_4">
     <g id="line2d_4">
      <g>
       <use xlink:href="#m02a3dc48c9" x="205.518031" y="307.584" style="stroke: #000000; stroke-width: 0.8"/>
      </g>
     </g>
     <g id="text_4">
      <!-- 25 -->
      <g transform="translate(199.155531 322.182437) scale(0.1 -0.1)">
       <use xlink:href="#DejaVuSans-32"/>
       <use xlink:href="#DejaVuSans-35" x="63.623047"/>
      </g>
     </g>
    </g>
    <g id="xtick_5">
     <g id="line2d_5">
      <g>
       <use xlink:href="#m02a3dc48c9" x="247.081116" y="307.584" style="stroke: #000000; stroke-width: 0.8"/>
      </g>
     </g>
     <g id="text_5">
      <!-- 30 -->
      <g transform="translate(240.718616 322.182437) scale(0.1 -0.1)">
       <defs>
        <path id="DejaVuSans-33" d="M 2597 2516 
Q 3050 2419 3304 2112 
Q 3559 1806 3559 1356 
Q 3559 666 3084 287 
Q 2609 -91 1734 -91 
Q 1441 -91 1130 -33 
Q 819 25 488 141 
L 488 750 
Q 750 597 1062 519 
Q 1375 441 1716 441 
Q 2309 441 2620 675 
Q 2931 909 2931 1356 
Q 2931 1769 2642 2001 
Q 2353 2234 1838 2234 
L 1294 2234 
L 1294 2753 
L 1863 2753 
Q 2328 2753 2575 2939 
Q 2822 3125 2822 3475 
Q 2822 3834 2567 4026 
Q 2313 4219 1838 4219 
Q 1578 4219 1281 4162 
Q 984 4106 628 3988 
L 628 4550 
Q 988 4650 1302 4700 
Q 1616 4750 1894 4750 
Q 2613 4750 3031 4423 
Q 3450 4097 3450 3541 
Q 3450 3153 3228 2886 
Q 3006 2619 2597 2516 
z
" transform="scale(0.015625)"/>
       </defs>
       <use xlink:href="#DejaVuSans-33"/>
       <use xlink:href="#DejaVuSans-30" x="63.623047"/>
      </g>
     </g>
    </g>
    <g id="xtick_6">
     <g id="line2d_6">
      <g>
       <use xlink:href="#m02a3dc48c9" x="288.644201" y="307.584" style="stroke: #000000; stroke-width: 0.8"/>
      </g>
     </g>
     <g id="text_6">
      <!-- 35 -->
      <g transform="translate(282.281701 322.182437) scale(0.1 -0.1)">
       <use xlink:href="#DejaVuSans-33"/>
       <use xlink:href="#DejaVuSans-35" x="63.623047"/>
      </g>
     </g>
    </g>
    <g id="xtick_7">
     <g id="line2d_7">
      <g>
       <use xlink:href="#m02a3dc48c9" x="330.207286" y="307.584" style="stroke: #000000; stroke-width: 0.8"/>
      </g>
     </g>
     <g id="text_7">
      <!-- 40 -->
      <g transform="translate(323.844786 322.182437) scale(0.1 -0.1)">
       <defs>
        <path id="DejaVuSans-34" d="M 2419 4116 
L 825 1625 
L 2419 1625 
L 2419 4116 
z
M 2253 4666 
L 3047 4666 
L 3047 1625 
L 3713 1625 
L 3713 1100 
L 3047 1100 
L 3047 0 
L 2419 0 
L 2419 1100 
L 313 1100 
L 313 1709 
L 2253 4666 
z
" transform="scale(0.015625)"/>
       </defs>
       <use xlink:href="#DejaVuSans-34"/>
       <use xlink:href="#DejaVuSans-30" x="63.623047"/>
      </g>
     </g>
    </g>
    <g id="xtick_8">
     <g id="line2d_8">
      <g>
       <use xlink:href="#m02a3dc48c9" x="371.770371" y="307.584" style="stroke: #000000; stroke-width: 0.8"/>
      </g>
     </g>
     <g id="text_8">
      <!-- 45 -->
      <g transform="translate(365.407871 322.182437) scale(0.1 -0.1)">
       <use xlink:href="#DejaVuSans-34"/>
       <use xlink:href="#DejaVuSans-35" x="63.623047"/>
      </g>
     </g>
    </g>
    <g id="xtick_9">
     <g id="line2d_9">
      <g>
       <use xlink:href="#m02a3dc48c9" x="413.333455" y="307.584" style="stroke: #000000; stroke-width: 0.8"/>
      </g>
     </g>
     <g id="text_9">
      <!-- 50 -->
      <g transform="translate(406.970955 322.182437) scale(0.1 -0.1)">
       <use xlink:href="#DejaVuSans-35"/>
       <use xlink:href="#DejaVuSans-30" x="63.623047"/>
      </g>
     </g>
    </g>
    <g id="text_10">
     <!-- PM2.5 -->
     <g transform="translate(220.879531 335.860562) scale(0.1 -0.1)">
      <defs>
       <path id="DejaVuSans-50" d="M 1259 4147 
L 1259 2394 
L 2053 2394 
Q 2494 2394 2734 2622 
Q 2975 2850 2975 3272 
Q 2975 3691 2734 3919 
Q 2494 4147 2053 4147 
L 1259 4147 
z
M 628 4666 
L 2053 4666 
Q 2838 4666 3239 4311 
Q 3641 3956 3641 3272 
Q 3641 2581 3239 2228 
Q 2838 1875 2053 1875 
L 1259 1875 
L 1259 0 
L 628 0 
L 628 4666 
z
" transform="scale(0.015625)"/>
       <path id="DejaVuSans-4d" d="M 628 4666 
L 1569 4666 
L 2759 1491 
L 3956 4666 
L 4897 4666 
L 4897 0 
L 4281 0 
L 4281 4097 
L 3078 897 
L 2444 897 
L 1241 4097 
L 1241 0 
L 628 0 
L 628 4666 
z
" transform="scale(0.015625)"/>
       <path id="DejaVuSans-2e" d="M 684 794 
L 1344 794 
L 1344 0 
L 684 0 
L 684 794 
z
" transform="scale(0.015625)"/>
      </defs>
      <use xlink:href="#DejaVuSans-50"/>
      <use xlink:href="#DejaVuSans-4d" x="60.302734"/>
      <use xlink:href="#DejaVuSans-32" x="146.582031"/>
      <use xlink:href="#DejaVuSans-2e" x="210.205078"/>
      <use xlink:href="#DejaVuSans-35" x="241.992188"/>
     </g>
    </g>
   </g>
   <g id="matplotlib.axis_2">
    <g id="ytick_1">
     <g id="line2d_10">
      <defs>
       <path id="m3a4d3bf7ef" d="M 0 0 
L -3.5 0 
" style="stroke: #000000; stroke-width: 0.8"/>
      </defs>
      <g>
       <use xlink:href="#m3a4d3bf7ef" x="57.6" y="264.278565" style="stroke: #000000; stroke-width: 0.8"/>
      </g>
     </g>
     <g id="text_11">
      <!-- 2 -->
      <g transform="translate(44.2375 268.077784) scale(0.1 -0.1)">
       <use xlink:href="#DejaVuSans-32"/>
      </g>
     </g>
    </g>
    <g id="ytick_2">
     <g id="line2d_11">
      <g>
       <use xlink:href="#m3a4d3bf7ef" x="57.6" y="219.888156" style="stroke: #000000; stroke-width: 0.8"/>
      </g>
     </g>
     <g id="text_12">
      <!-- 4 -->
      <g transform="translate(44.2375 223.687375) scale(0.1 -0.1)">
       <use xlink:href="#DejaVuSans-34"/>
      </g>
     </g>
    </g>
    <g id="ytick_3">
     <g id="line2d_12">
      <g>
       <use xlink:href="#m3a4d3bf7ef" x="57.6" y="175.497746" style="stroke: #000000; stroke-width: 0.8"/>
      </g>
     </g>
     <g id="text_13">
      <!-- 6 -->
      <g transform="translate(44.2375 179.296965) scale(0.1 -0.1)">
       <defs>
        <path id="DejaVuSans-36" d="M 2113 2584 
Q 1688 2584 1439 2293 
Q 1191 2003 1191 1497 
Q 1191 994 1439 701 
Q 1688 409 2113 409 
Q 2538 409 2786 701 
Q 3034 994 3034 1497 
Q 3034 2003 2786 2293 
Q 2538 2584 2113 2584 
z
M 3366 4563 
L 3366 3988 
Q 3128 4100 2886 4159 
Q 2644 4219 2406 4219 
Q 1781 4219 1451 3797 
Q 1122 3375 1075 2522 
Q 1259 2794 1537 2939 
Q 1816 3084 2150 3084 
Q 2853 3084 3261 2657 
Q 3669 2231 3669 1497 
Q 3669 778 3244 343 
Q 2819 -91 2113 -91 
Q 1303 -91 875 529 
Q 447 1150 447 2328 
Q 447 3434 972 4092 
Q 1497 4750 2381 4750 
Q 2619 4750 2861 4703 
Q 3103 4656 3366 4563 
z
" transform="scale(0.015625)"/>
       </defs>
       <use xlink:href="#DejaVuSans-36"/>
      </g>
     </g>
    </g>
    <g id="ytick_4">
     <g id="line2d_13">
      <g>
       <use xlink:href="#m3a4d3bf7ef" x="57.6" y="131.107337" style="stroke: #000000; stroke-width: 0.8"/>
      </g>
     </g>
     <g id="text_14">
      <!-- 8 -->
      <g transform="translate(44.2375 134.906556) scale(0.1 -0.1)">
       <defs>
        <path id="DejaVuSans-38" d="M 2034 2216 
Q 1584 2216 1326 1975 
Q 1069 1734 1069 1313 
Q 1069 891 1326 650 
Q 1584 409 2034 409 
Q 2484 409 2743 651 
Q 3003 894 3003 1313 
Q 3003 1734 2745 1975 
Q 2488 2216 2034 2216 
z
M 1403 2484 
Q 997 2584 770 2862 
Q 544 3141 544 3541 
Q 544 4100 942 4425 
Q 1341 4750 2034 4750 
Q 2731 4750 3128 4425 
Q 3525 4100 3525 3541 
Q 3525 3141 3298 2862 
Q 3072 2584 2669 2484 
Q 3125 2378 3379 2068 
Q 3634 1759 3634 1313 
Q 3634 634 3220 271 
Q 2806 -91 2034 -91 
Q 1263 -91 848 271 
Q 434 634 434 1313 
Q 434 1759 690 2068 
Q 947 2378 1403 2484 
z
M 1172 3481 
Q 1172 3119 1398 2916 
Q 1625 2713 2034 2713 
Q 2441 2713 2670 2916 
Q 2900 3119 2900 3481 
Q 2900 3844 2670 4047 
Q 2441 4250 2034 4250 
Q 1625 4250 1398 4047 
Q 1172 3844 1172 3481 
z
" transform="scale(0.015625)"/>
       </defs>
       <use xlink:href="#DejaVuSans-38"/>
      </g>
     </g>
    </g>
    <g id="ytick_5">
     <g id="line2d_14">
      <g>
       <use xlink:href="#m3a4d3bf7ef" x="57.6" y="86.716927" style="stroke: #000000; stroke-width: 0.8"/>
      </g>
     </g>
     <g id="text_15">
      <!-- 10 -->
      <g transform="translate(37.875 90.516146) scale(0.1 -0.1)">
       <use xlink:href="#DejaVuSans-31"/>
       <use xlink:href="#DejaVuSans-30" x="63.623047"/>
      </g>
     </g>
    </g>
    <g id="ytick_6">
     <g id="line2d_15">
      <g>
       <use xlink:href="#m3a4d3bf7ef" x="57.6" y="42.326518" style="stroke: #000000; stroke-width: 0.8"/>
      </g>
     </g>
     <g id="text_16">
      <!-- 12 -->
      <g transform="translate(37.875 46.125737) scale(0.1 -0.1)">
       <use xlink:href="#DejaVuSans-31"/>
       <use xlink:href="#DejaVuSans-32" x="63.623047"/>
      </g>
     </g>
    </g>
    <g id="text_17">
     <!-- Sheep &amp; Goat Consumption -->
     <g transform="translate(31.795312 243.937375) rotate(-90) scale(0.1 -0.1)">
      <defs>
       <path id="DejaVuSans-53" d="M 3425 4513 
L 3425 3897 
Q 3066 4069 2747 4153 
Q 2428 4238 2131 4238 
Q 1616 4238 1336 4038 
Q 1056 3838 1056 3469 
Q 1056 3159 1242 3001 
Q 1428 2844 1947 2747 
L 2328 2669 
Q 3034 2534 3370 2195 
Q 3706 1856 3706 1288 
Q 3706 609 3251 259 
Q 2797 -91 1919 -91 
Q 1588 -91 1214 -16 
Q 841 59 441 206 
L 441 856 
Q 825 641 1194 531 
Q 1563 422 1919 422 
Q 2459 422 2753 634 
Q 3047 847 3047 1241 
Q 3047 1584 2836 1778 
Q 2625 1972 2144 2069 
L 1759 2144 
Q 1053 2284 737 2584 
Q 422 2884 422 3419 
Q 422 4038 858 4394 
Q 1294 4750 2059 4750 
Q 2388 4750 2728 4690 
Q 3069 4631 3425 4513 
z
" transform="scale(0.015625)"/>
       <path id="DejaVuSans-68" d="M 3513 2113 
L 3513 0 
L 2938 0 
L 2938 2094 
Q 2938 2591 2744 2837 
Q 2550 3084 2163 3084 
Q 1697 3084 1428 2787 
Q 1159 2491 1159 1978 
L 1159 0 
L 581 0 
L 581 4863 
L 1159 4863 
L 1159 2956 
Q 1366 3272 1645 3428 
Q 1925 3584 2291 3584 
Q 2894 3584 3203 3211 
Q 3513 2838 3513 2113 
z
" transform="scale(0.015625)"/>
       <path id="DejaVuSans-65" d="M 3597 1894 
L 3597 1613 
L 953 1613 
Q 991 1019 1311 708 
Q 1631 397 2203 397 
Q 2534 397 2845 478 
Q 3156 559 3463 722 
L 3463 178 
Q 3153 47 2828 -22 
Q 2503 -91 2169 -91 
Q 1331 -91 842 396 
Q 353 884 353 1716 
Q 353 2575 817 3079 
Q 1281 3584 2069 3584 
Q 2775 3584 3186 3129 
Q 3597 2675 3597 1894 
z
M 3022 2063 
Q 3016 2534 2758 2815 
Q 2500 3097 2075 3097 
Q 1594 3097 1305 2825 
Q 1016 2553 972 2059 
L 3022 2063 
z
" transform="scale(0.015625)"/>
       <path id="DejaVuSans-70" d="M 1159 525 
L 1159 -1331 
L 581 -1331 
L 581 3500 
L 1159 3500 
L 1159 2969 
Q 1341 3281 1617 3432 
Q 1894 3584 2278 3584 
Q 2916 3584 3314 3078 
Q 3713 2572 3713 1747 
Q 3713 922 3314 415 
Q 2916 -91 2278 -91 
Q 1894 -91 1617 61 
Q 1341 213 1159 525 
z
M 3116 1747 
Q 3116 2381 2855 2742 
Q 2594 3103 2138 3103 
Q 1681 3103 1420 2742 
Q 1159 2381 1159 1747 
Q 1159 1113 1420 752 
Q 1681 391 2138 391 
Q 2594 391 2855 752 
Q 3116 1113 3116 1747 
z
" transform="scale(0.015625)"/>
       <path id="DejaVuSans-20" transform="scale(0.015625)"/>
       <path id="DejaVuSans-26" d="M 1556 2509 
Q 1272 2256 1139 2004 
Q 1006 1753 1006 1478 
Q 1006 1022 1337 719 
Q 1669 416 2169 416 
Q 2466 416 2725 514 
Q 2984 613 3213 813 
L 1556 2509 
z
M 1997 2859 
L 3584 1234 
Q 3769 1513 3872 1830 
Q 3975 2147 3994 2503 
L 4575 2503 
Q 4538 2091 4375 1687 
Q 4213 1284 3922 891 
L 4794 0 
L 4006 0 
L 3559 459 
Q 3234 181 2878 45 
Q 2522 -91 2113 -91 
Q 1359 -91 881 339 
Q 403 769 403 1441 
Q 403 1841 612 2192 
Q 822 2544 1241 2853 
Q 1091 3050 1012 3245 
Q 934 3441 934 3628 
Q 934 4134 1281 4442 
Q 1628 4750 2203 4750 
Q 2463 4750 2720 4694 
Q 2978 4638 3244 4525 
L 3244 3956 
Q 2972 4103 2725 4179 
Q 2478 4256 2266 4256 
Q 1938 4256 1733 4082 
Q 1528 3909 1528 3634 
Q 1528 3475 1620 3314 
Q 1713 3153 1997 2859 
z
" transform="scale(0.015625)"/>
       <path id="DejaVuSans-47" d="M 3809 666 
L 3809 1919 
L 2778 1919 
L 2778 2438 
L 4434 2438 
L 4434 434 
Q 4069 175 3628 42 
Q 3188 -91 2688 -91 
Q 1594 -91 976 548 
Q 359 1188 359 2328 
Q 359 3472 976 4111 
Q 1594 4750 2688 4750 
Q 3144 4750 3555 4637 
Q 3966 4525 4313 4306 
L 4313 3634 
Q 3963 3931 3569 4081 
Q 3175 4231 2741 4231 
Q 1884 4231 1454 3753 
Q 1025 3275 1025 2328 
Q 1025 1384 1454 906 
Q 1884 428 2741 428 
Q 3075 428 3337 486 
Q 3600 544 3809 666 
z
" transform="scale(0.015625)"/>
       <path id="DejaVuSans-6f" d="M 1959 3097 
Q 1497 3097 1228 2736 
Q 959 2375 959 1747 
Q 959 1119 1226 758 
Q 1494 397 1959 397 
Q 2419 397 2687 759 
Q 2956 1122 2956 1747 
Q 2956 2369 2687 2733 
Q 2419 3097 1959 3097 
z
M 1959 3584 
Q 2709 3584 3137 3096 
Q 3566 2609 3566 1747 
Q 3566 888 3137 398 
Q 2709 -91 1959 -91 
Q 1206 -91 779 398 
Q 353 888 353 1747 
Q 353 2609 779 3096 
Q 1206 3584 1959 3584 
z
" transform="scale(0.015625)"/>
       <path id="DejaVuSans-61" d="M 2194 1759 
Q 1497 1759 1228 1600 
Q 959 1441 959 1056 
Q 959 750 1161 570 
Q 1363 391 1709 391 
Q 2188 391 2477 730 
Q 2766 1069 2766 1631 
L 2766 1759 
L 2194 1759 
z
M 3341 1997 
L 3341 0 
L 2766 0 
L 2766 531 
Q 2569 213 2275 61 
Q 1981 -91 1556 -91 
Q 1019 -91 701 211 
Q 384 513 384 1019 
Q 384 1609 779 1909 
Q 1175 2209 1959 2209 
L 2766 2209 
L 2766 2266 
Q 2766 2663 2505 2880 
Q 2244 3097 1772 3097 
Q 1472 3097 1187 3025 
Q 903 2953 641 2809 
L 641 3341 
Q 956 3463 1253 3523 
Q 1550 3584 1831 3584 
Q 2591 3584 2966 3190 
Q 3341 2797 3341 1997 
z
" transform="scale(0.015625)"/>
       <path id="DejaVuSans-74" d="M 1172 4494 
L 1172 3500 
L 2356 3500 
L 2356 3053 
L 1172 3053 
L 1172 1153 
Q 1172 725 1289 603 
Q 1406 481 1766 481 
L 2356 481 
L 2356 0 
L 1766 0 
Q 1100 0 847 248 
Q 594 497 594 1153 
L 594 3053 
L 172 3053 
L 172 3500 
L 594 3500 
L 594 4494 
L 1172 4494 
z
" transform="scale(0.015625)"/>
       <path id="DejaVuSans-43" d="M 4122 4306 
L 4122 3641 
Q 3803 3938 3442 4084 
Q 3081 4231 2675 4231 
Q 1875 4231 1450 3742 
Q 1025 3253 1025 2328 
Q 1025 1406 1450 917 
Q 1875 428 2675 428 
Q 3081 428 3442 575 
Q 3803 722 4122 1019 
L 4122 359 
Q 3791 134 3420 21 
Q 3050 -91 2638 -91 
Q 1578 -91 968 557 
Q 359 1206 359 2328 
Q 359 3453 968 4101 
Q 1578 4750 2638 4750 
Q 3056 4750 3426 4639 
Q 3797 4528 4122 4306 
z
" transform="scale(0.015625)"/>
       <path id="DejaVuSans-6e" d="M 3513 2113 
L 3513 0 
L 2938 0 
L 2938 2094 
Q 2938 2591 2744 2837 
Q 2550 3084 2163 3084 
Q 1697 3084 1428 2787 
Q 1159 2491 1159 1978 
L 1159 0 
L 581 0 
L 581 3500 
L 1159 3500 
L 1159 2956 
Q 1366 3272 1645 3428 
Q 1925 3584 2291 3584 
Q 2894 3584 3203 3211 
Q 3513 2838 3513 2113 
z
" transform="scale(0.015625)"/>
       <path id="DejaVuSans-73" d="M 2834 3397 
L 2834 2853 
Q 2591 2978 2328 3040 
Q 2066 3103 1784 3103 
Q 1356 3103 1142 2972 
Q 928 2841 928 2578 
Q 928 2378 1081 2264 
Q 1234 2150 1697 2047 
L 1894 2003 
Q 2506 1872 2764 1633 
Q 3022 1394 3022 966 
Q 3022 478 2636 193 
Q 2250 -91 1575 -91 
Q 1294 -91 989 -36 
Q 684 19 347 128 
L 347 722 
Q 666 556 975 473 
Q 1284 391 1588 391 
Q 1994 391 2212 530 
Q 2431 669 2431 922 
Q 2431 1156 2273 1281 
Q 2116 1406 1581 1522 
L 1381 1569 
Q 847 1681 609 1914 
Q 372 2147 372 2553 
Q 372 3047 722 3315 
Q 1072 3584 1716 3584 
Q 2034 3584 2315 3537 
Q 2597 3491 2834 3397 
z
" transform="scale(0.015625)"/>
       <path id="DejaVuSans-75" d="M 544 1381 
L 544 3500 
L 1119 3500 
L 1119 1403 
Q 1119 906 1312 657 
Q 1506 409 1894 409 
Q 2359 409 2629 706 
Q 2900 1003 2900 1516 
L 2900 3500 
L 3475 3500 
L 3475 0 
L 2900 0 
L 2900 538 
Q 2691 219 2414 64 
Q 2138 -91 1772 -91 
Q 1169 -91 856 284 
Q 544 659 544 1381 
z
M 1991 3584 
L 1991 3584 
z
" transform="scale(0.015625)"/>
       <path id="DejaVuSans-6d" d="M 3328 2828 
Q 3544 3216 3844 3400 
Q 4144 3584 4550 3584 
Q 5097 3584 5394 3201 
Q 5691 2819 5691 2113 
L 5691 0 
L 5113 0 
L 5113 2094 
Q 5113 2597 4934 2840 
Q 4756 3084 4391 3084 
Q 3944 3084 3684 2787 
Q 3425 2491 3425 1978 
L 3425 0 
L 2847 0 
L 2847 2094 
Q 2847 2600 2669 2842 
Q 2491 3084 2119 3084 
Q 1678 3084 1418 2786 
Q 1159 2488 1159 1978 
L 1159 0 
L 581 0 
L 581 3500 
L 1159 3500 
L 1159 2956 
Q 1356 3278 1631 3431 
Q 1906 3584 2284 3584 
Q 2666 3584 2933 3390 
Q 3200 3197 3328 2828 
z
" transform="scale(0.015625)"/>
       <path id="DejaVuSans-69" d="M 603 3500 
L 1178 3500 
L 1178 0 
L 603 0 
L 603 3500 
z
M 603 4863 
L 1178 4863 
L 1178 4134 
L 603 4134 
L 603 4863 
z
" transform="scale(0.015625)"/>
      </defs>
      <use xlink:href="#DejaVuSans-53"/>
      <use xlink:href="#DejaVuSans-68" x="63.476562"/>
      <use xlink:href="#DejaVuSans-65" x="126.855469"/>
      <use xlink:href="#DejaVuSans-65" x="188.378906"/>
      <use xlink:href="#DejaVuSans-70" x="249.902344"/>
      <use xlink:href="#DejaVuSans-20" x="313.378906"/>
      <use xlink:href="#DejaVuSans-26" x="345.166016"/>
      <use xlink:href="#DejaVuSans-20" x="423.144531"/>
      <use xlink:href="#DejaVuSans-47" x="454.931641"/>
      <use xlink:href="#DejaVuSans-6f" x="532.421875"/>
      <use xlink:href="#DejaVuSans-61" x="593.603516"/>
      <use xlink:href="#DejaVuSans-74" x="654.882812"/>
      <use xlink:href="#DejaVuSans-20" x="694.091797"/>
      <use xlink:href="#DejaVuSans-43" x="725.878906"/>
      <use xlink:href="#DejaVuSans-6f" x="795.703125"/>
      <use xlink:href="#DejaVuSans-6e" x="856.884766"/>
      <use xlink:href="#DejaVuSans-73" x="920.263672"/>
      <use xlink:href="#DejaVuSans-75" x="972.363281"/>
      <use xlink:href="#DejaVuSans-6d" x="1035.742188"/>
      <use xlink:href="#DejaVuSans-70" x="1133.154297"/>
      <use xlink:href="#DejaVuSans-74" x="1196.630859"/>
      <use xlink:href="#DejaVuSans-69" x="1235.839844"/>
      <use xlink:href="#DejaVuSans-6f" x="1263.623047"/>
      <use xlink:href="#DejaVuSans-6e" x="1324.804688"/>
     </g>
    </g>
   </g>
   <g id="PathCollection_8"/>
   <g id="PathCollection_9">
    <path d="M 407.83931 307.584 
L 407.505455 305.153179 
L 407.470217 304.896 
L 407.101841 302.208 
L 406.733387 299.52 
L 406.364856 296.832 
L 405.996246 294.144 
L 405.62756 291.456 
L 405.258795 288.768 
L 405.052294 287.263089 
" clip-path="url(#pe33add616e)" style="fill: none; stroke: #000000; stroke-width: 0.5"/>
    <path d="M 401.041298 258.016853 
L 400.834818 256.512 
L 400.465924 253.824 
L 400.290909 252.548984 
L 400.097402 251.136 
L 399.72921 248.448 
L 399.360943 245.76 
L 398.992602 243.072 
L 398.624186 240.384 
L 398.255695 237.696 
L 397.88713 235.008 
L 397.518491 232.32 
L 397.149776 229.632 
L 396.780987 226.944 
L 396.683636 226.234565 
L 396.412742 224.256 
L 396.044646 221.568 
L 395.676476 218.88 
L 395.308233 216.192 
L 394.939917 213.504 
L 394.571528 210.816 
L 394.203066 208.128 
L 393.834531 205.44 
L 393.465923 202.752 
L 393.097241 200.064 
L 393.076364 199.91181 
L 392.729267 197.376 
L 392.361268 194.688 
L 391.993197 192 
L 391.625055 189.312 
L 391.256841 186.624 
L 390.888556 183.936 
L 390.520199 181.248 
L 390.15177 178.56 
L 389.78327 175.872 
L 389.469091 173.580675 
L 389.414818 173.184 
L 389.046988 170.496 
L 388.679089 167.808 
L 388.311119 165.12 
L 387.943079 162.432 
L 387.57497 159.744 
L 387.206789 157.056 
L 386.838539 154.368 
L 386.470219 151.68 
L 386.101828 148.992 
L 385.861818 147.241043 
L 385.733646 146.304 
L 385.365917 143.616 
L 384.998118 140.928 
L 384.630251 138.24 
L 384.262316 135.552 
L 383.894311 132.864 
L 383.526238 130.176 
L 383.158096 127.488 
L 382.789886 124.8 
L 382.421606 122.112 
L 382.254545 120.892836 
L 382.053689 119.424 
L 381.68606 116.736 
L 381.318365 114.048 
L 380.950602 111.36 
L 380.582772 108.672 
L 380.214875 105.984 
L 379.84691 103.296 
L 379.478878 100.608 
L 379.110779 97.92 
L 378.742612 95.232 
L 378.647273 94.536006 
L 378.374952 92.544 
L 378.007427 89.856 
L 377.639836 87.168 
L 377.272179 84.48 
L 376.904456 81.792 
L 376.536667 79.104 
L 376.168812 76.416 
L 375.800891 73.728 
L 375.432904 71.04 
L 375.064852 68.352 
L 375.04 68.170518 
L 374.697443 65.664 
L 374.330022 62.976 
L 373.962536 60.288 
L 373.594986 57.6 
L 373.227371 54.912 
L 372.859691 52.224 
L 372.491947 49.536 
L 372.124139 46.848 
L 371.756266 44.16 
L 371.432727 41.796332 
L 371.388418 41.472 
" clip-path="url(#pe33add616e)" style="fill: none; stroke: #000000; stroke-width: 0.5"/>
   </g>
   <g id="PathCollection_10">
    <path d="M 345.163905 307.584 
L 344.808972 304.896 
L 344.453902 302.208 
L 344.098697 299.52 
L 343.743355 296.832 
L 343.387876 294.144 
L 343.032261 291.456 
L 342.67651 288.768 
L 342.574545 287.997889 
L 342.320992 286.08 
L 341.965488 283.392 
L 341.609849 280.704 
L 341.254076 278.016 
L 340.898167 275.328 
L 340.542123 272.64 
L 340.185945 269.952 
L 339.829632 267.264 
L 339.473184 264.576 
L 339.116601 261.888 
L 338.967273 260.762768 
L 338.760179 259.2 
L 338.403836 256.512 
L 338.047359 253.824 
L 337.690749 251.136 
L 337.334006 248.448 
L 336.977129 245.76 
L 336.620119 243.072 
L 336.262976 240.384 
L 335.9057 237.696 
L 335.54829 235.008 
L 335.36 233.592448 
L 335.190982 232.32 
L 334.833804 229.632 
L 334.476494 226.944 
L 334.119052 224.256 
L 333.761478 221.568 
L 333.403772 218.88 
L 333.045935 216.192 
L 332.687966 213.504 
L 332.329864 210.816 
L 331.971632 208.128 
L 331.752727 206.486054 
L 331.613456 205.44 
L 331.255447 202.752 
L 330.897307 200.064 
L 330.539036 197.376 
L 330.180636 194.688 
L 329.822105 192 
L 329.463443 189.312 
L 329.104651 186.624 
L 328.745729 183.936 
L 328.386677 181.248 
L 328.145455 179.442769 
L 328.02765 178.56 
L 327.668812 175.872 
L 327.309846 173.184 
L 326.95075 170.496 
L 326.591526 167.808 
L 326.232173 165.12 
L 325.87269 162.432 
L 325.513079 159.744 
L 325.153339 157.056 
L 324.793469 154.368 
L 324.538182 152.461829 
L 324.433606 151.68 
L 324.073943 148.992 
L 323.714153 146.304 
L 323.354235 143.616 
L 322.99419 140.928 
L 322.634017 138.24 
L 322.273716 135.552 
L 322.072712 134.052957 
" clip-path="url(#pe33add616e)" style="fill: none; stroke: #000000; stroke-width: 0.5"/>
    <path d="M 318.145511 104.795352 
L 317.943941 103.296 
L 317.582445 100.608 
L 317.323636 98.684206 
L 317.220948 97.92 
L 316.859641 95.232 
L 316.498209 92.544 
L 316.136653 89.856 
L 315.774971 87.168 
L 315.413164 84.48 
L 315.051232 81.792 
L 314.689176 79.104 
L 314.326994 76.416 
L 313.964687 73.728 
L 313.716364 71.88626 
L 313.60239 71.04 
L 313.240263 68.352 
L 312.878013 65.664 
L 312.515639 62.976 
L 312.153141 60.288 
L 311.79052 57.6 
L 311.427774 54.912 
L 311.064905 52.224 
L 310.701912 49.536 
L 310.338795 46.848 
L 310.109091 45.148134 
L 309.975708 44.16 
L 309.612762 41.472 
" clip-path="url(#pe33add616e)" style="fill: none; stroke: #000000; stroke-width: 0.5"/>
   </g>
   <g id="PathCollection_11">
    <path d="M 284.068812 307.584 
L 283.723455 304.896 
L 283.377901 302.208 
L 283.032153 299.52 
L 282.686208 296.832 
L 282.340069 294.144 
L 281.993734 291.456 
L 281.647203 288.768 
L 281.300478 286.08 
L 281.250909 285.695954 
L 280.953733 283.392 
L 280.606823 280.704 
L 280.25972 278.016 
L 279.912422 275.328 
L 279.564931 272.64 
L 279.217246 269.952 
L 278.869368 267.264 
L 278.521295 264.576 
L 278.173029 261.888 
L 277.824569 259.2 
L 277.643636 257.805099 
L 277.47601 256.512 
L 277.127358 253.824 
L 276.778515 251.136 
L 276.429479 248.448 
L 276.080251 245.76 
L 275.73083 243.072 
L 275.381218 240.384 
L 275.031413 237.696 
L 274.681417 235.008 
L 274.331228 232.32 
L 274.036364 230.057915 
L 273.980876 229.632 
L 273.630488 226.944 
L 273.279909 224.256 
L 272.929139 221.568 
L 272.578179 218.88 
L 272.227028 216.192 
L 271.875686 213.504 
L 271.524154 210.816 
L 271.172431 208.128 
L 270.820517 205.44 
L 270.468414 202.752 
L 270.429091 202.451974 
L 270.116273 200.064 
L 269.763962 197.376 
L 269.411462 194.688 
L 269.058773 192 
L 268.705895 189.312 
L 268.352828 186.624 
L 267.999572 183.936 
L 267.646126 181.248 
L 267.292492 178.56 
L 266.938668 175.872 
L 266.821818 174.984772 
L 266.584764 173.184 
L 266.230725 170.496 
L 265.876498 167.808 
L 265.522083 165.12 
L 265.167481 162.432 
L 264.812691 159.744 
L 264.457713 157.056 
L 264.102548 154.368 
L 263.747195 151.68 
L 263.391654 148.992 
L 263.214545 147.653712 
L 263.036001 146.304 
L 262.680236 143.616 
L 262.324284 140.928 
L 261.968146 138.24 
L 261.611822 135.552 
L 261.413342 134.05551 
" clip-path="url(#pe33add616e)" style="fill: none; stroke: #000000; stroke-width: 0.5"/>
    <path d="M 257.521924 104.793124 
L 257.322299 103.296 
L 256.963699 100.608 
L 256.604913 97.92 
L 256.245942 95.232 
L 256 93.391303 
L 255.886826 92.544 
L 255.527613 89.856 
L 255.168215 87.168 
L 254.808634 84.48 
L 254.448868 81.792 
L 254.088919 79.104 
L 253.728786 76.416 
L 253.368468 73.728 
L 253.007967 71.04 
L 252.647282 68.352 
L 252.392727 66.455886 
L 252.286446 65.664 
L 251.925509 62.976 
L 251.564388 60.288 
L 251.203085 57.6 
L 250.841599 54.912 
L 250.47993 52.224 
L 250.118079 49.536 
L 249.756044 46.848 
L 249.393827 44.16 
L 249.031426 41.472 
" clip-path="url(#pe33add616e)" style="fill: none; stroke: #000000; stroke-width: 0.5"/>
   </g>
   <g id="PathCollection_12">
    <path d="M 223.607746 307.584 
L 223.534545 307.003979 
L 223.268474 304.896 
L 222.928927 302.208 
L 222.589122 299.52 
L 222.249061 296.832 
L 221.908743 294.144 
L 221.568168 291.456 
L 221.227336 288.768 
L 220.886248 286.08 
L 220.544903 283.392 
L 220.203301 280.704 
L 220.075457 279.698786 
" clip-path="url(#pe33add616e)" style="fill: none; stroke: #000000; stroke-width: 0.5"/>
    <path d="M 215.521895 244.078665 
L 215.392553 243.072 
L 215.046929 240.384 
L 214.701052 237.696 
L 214.354922 235.008 
L 214.008539 232.32 
L 213.661902 229.632 
L 213.315013 226.944 
L 212.96787 224.256 
L 212.712727 222.281845 
L 212.620443 221.568 
L 212.272676 218.88 
L 211.924657 216.192 
L 211.576386 213.504 
L 211.227864 210.816 
L 210.87909 208.128 
L 210.530065 205.44 
L 210.180788 202.752 
L 209.83126 200.064 
L 209.48148 197.376 
L 209.131449 194.688 
L 209.105455 194.488534 
L 208.781044 192 
L 208.430379 189.312 
L 208.079465 186.624 
L 207.7283 183.936 
L 207.376884 181.248 
L 207.025219 178.56 
L 206.673304 175.872 
L 206.321139 173.184 
L 205.968724 170.496 
L 205.616059 167.808 
L 205.498182 166.910204 
L 205.263047 165.12 
L 204.909738 162.432 
L 204.55618 159.744 
L 204.202373 157.056 
L 203.848318 154.368 
L 203.494014 151.68 
L 203.139461 148.992 
L 202.78466 146.304 
L 202.42961 143.616 
L 202.074312 140.928 
L 201.890909 139.541456 
L 201.718688 138.24 
L 201.362735 135.552 
L 201.006534 132.864 
L 200.650086 130.176 
L 200.29339 127.488 
L 199.936447 124.8 
L 199.579257 122.112 
L 199.22182 119.424 
L 198.864135 116.736 
L 198.506203 114.048 
L 198.283636 112.377731 
L 198.147958 111.36 
L 197.78936 108.672 
L 197.430515 105.984 
L 197.071424 103.296 
L 196.712087 100.608 
L 196.352504 97.92 
L 195.992675 95.232 
L 195.632599 92.544 
L 195.272278 89.856 
L 194.91171 87.168 
L 194.676364 85.414706 
L 194.550832 84.48 
L 194.189586 81.792 
L 193.828096 79.104 
L 193.46636 76.416 
L 193.104379 73.728 
L 192.742154 71.04 
L 192.379683 68.352 
L 192.016967 65.664 
L 191.654006 62.976 
L 191.290801 60.288 
L 191.069091 58.648277 
L 190.927272 57.6 
L 190.563376 54.912 
L 190.199236 52.224 
L 189.834852 49.536 
L 189.470224 46.848 
L 189.105352 44.16 
L 188.740236 41.472 
" clip-path="url(#pe33add616e)" style="fill: none; stroke: #000000; stroke-width: 0.5"/>
   </g>
   <g id="PathCollection_13">
    <path d="M 162.899247 307.584 
L 162.563081 304.896 
L 162.226589 302.208 
L 162.210909 302.082878 
L 161.889412 299.52 
L 161.551893 296.832 
L 161.214052 294.144 
L 160.875886 291.456 
L 160.537398 288.768 
L 160.198587 286.08 
L 159.859453 283.392 
L 159.519996 280.704 
L 159.393108 279.700194 
" clip-path="url(#pe33add616e)" style="fill: none; stroke: #000000; stroke-width: 0.5"/>
    <path d="M 154.858023 244.077718 
L 154.729033 243.072 
L 154.383951 240.384 
L 154.03855 237.696 
L 153.69283 235.008 
L 153.34679 232.32 
L 153.000432 229.632 
L 152.653754 226.944 
L 152.306758 224.256 
L 151.959443 221.568 
L 151.611809 218.88 
L 151.389091 217.159512 
L 151.263702 216.192 
L 150.915003 213.504 
L 150.565987 210.816 
L 150.216652 208.128 
L 149.867001 205.44 
L 149.517032 202.752 
L 149.166746 200.064 
L 148.816143 197.376 
L 148.465222 194.688 
L 148.113985 192 
L 147.781818 189.460246 
L 147.762406 189.312 
L 147.41009 186.624 
L 147.057457 183.936 
L 146.704509 181.248 
L 146.351244 178.56 
L 145.997664 175.872 
L 145.643769 173.184 
L 145.289557 170.496 
L 144.935031 167.808 
L 144.580189 165.12 
L 144.225031 162.432 
L 144.174545 162.050259 
L 143.869161 159.744 
L 143.512911 157.056 
L 143.156346 154.368 
L 142.799467 151.68 
L 142.442273 148.992 
L 142.084766 146.304 
L 141.726944 143.616 
L 141.368808 140.928 
L 141.010359 138.24 
L 140.651595 135.552 
L 140.567273 134.920801 
L 140.292149 132.864 
L 139.932278 130.176 
L 139.572093 127.488 
L 139.211595 124.8 
L 138.850785 122.112 
L 138.489661 119.424 
L 138.128225 116.736 
L 137.766476 114.048 
L 137.404415 111.36 
L 137.042041 108.672 
L 136.96 108.063986 
L 136.678968 105.984 
L 136.31547 103.296 
L 135.95166 100.608 
L 135.587539 97.92 
L 135.223106 95.232 
L 134.858361 92.544 
L 134.493305 89.856 
L 134.127937 87.168 
L 133.762258 84.48 
L 133.396268 81.792 
L 133.352727 81.4725 
L 133.029509 79.104 
L 132.662379 76.416 
L 132.294938 73.728 
L 131.927186 71.04 
L 131.559124 68.352 
L 131.190752 65.664 
L 130.822068 62.976 
L 130.453075 60.288 
L 130.08377 57.6 
L 129.745455 55.139622 
L 129.71411 54.912 
L 129.343649 52.224 
L 128.972878 49.536 
L 128.601798 46.848 
L 128.230408 44.16 
L 127.858708 41.472 
" clip-path="url(#pe33add616e)" style="fill: none; stroke: #000000; stroke-width: 0.5"/>
   </g>
   <g id="PathCollection_14">
    <path d="M 101.017415 307.584 
L 100.887273 306.544034 
L 100.680645 304.896 
L 100.343208 302.208 
L 100.005374 299.52 
L 99.667141 296.832 
L 99.328511 294.144 
L 98.989483 291.456 
L 98.650057 288.768 
L 98.310235 286.08 
L 97.970015 283.392 
L 97.629398 280.704 
L 97.501855 279.698655 
" clip-path="url(#pe33add616e)" style="fill: none; stroke: #000000; stroke-width: 0.5"/>
    <path d="M 92.938455 244.079798 
L 92.808132 243.072 
L 92.460139 240.384 
L 92.111754 237.696 
L 91.762975 235.008 
L 91.413803 232.32 
L 91.064239 229.632 
L 90.714282 226.944 
L 90.363933 224.256 
L 90.065455 221.96857 
L 90.013079 221.568 
L 89.661184 218.88 
L 89.308899 216.192 
L 88.956222 213.504 
L 88.603154 210.816 
L 88.249695 208.128 
L 87.895845 205.44 
L 87.541604 202.752 
L 87.186972 200.064 
L 86.83195 197.376 
L 86.476538 194.688 
L 86.458182 194.549339 
L 86.119991 192 
L 85.763015 189.312 
L 85.405648 186.624 
L 85.047893 183.936 
L 84.689748 181.248 
L 84.331214 178.56 
L 83.972291 175.872 
L 83.612979 173.184 
L 83.253279 170.496 
L 82.893189 167.808 
L 82.850909 167.492753 
L 82.531998 165.12 
L 82.170323 162.432 
L 81.808261 159.744 
L 81.445811 157.056 
L 81.082974 154.368 
L 80.719749 151.68 
L 80.356136 148.992 
L 79.992137 146.304 
L 79.62775 143.616 
L 79.262976 140.928 
L 79.243636 140.785651 
L 78.897026 138.24 
L 78.530645 135.552 
L 78.163879 132.864 
L 77.796726 130.176 
L 77.429187 127.488 
L 77.061261 124.8 
L 76.69295 122.112 
L 76.324253 119.424 
L 75.955171 116.736 
L 75.636364 114.416601 
L 75.585585 114.048 
L 75.214873 111.36 
L 74.843776 108.672 
L 74.472294 105.984 
L 74.100427 103.296 
L 73.728175 100.608 
L 73.355539 97.92 
L 72.982518 95.232 
L 72.609113 92.544 
L 72.235323 89.856 
L 72.029091 88.37451 
L 71.860752 87.168 
L 71.48531 84.48 
L 71.109484 81.792 
L 70.733275 79.104 
L 70.356681 76.416 
L 69.979705 73.728 
L 69.602344 71.04 
L 69.2246 68.352 
L 68.846473 65.664 
L 68.467962 62.976 
L 68.421818 62.648652 
L 68.08827 60.288 
L 67.708084 57.6 
L 67.327515 54.912 
L 66.946564 52.224 
L 66.56523 49.536 
L 66.183513 46.848 
L 65.801414 44.16 
L 65.418932 41.472 
" clip-path="url(#pe33add616e)" style="fill: none; stroke: #000000; stroke-width: 0.5"/>
   </g>
   <g id="PathCollection_15"/>
   <g id="LineCollection_1">
    <path d="M 68.153699 307.584 
L 68.153699 294.2784 
" clip-path="url(#pe33add616e)" style="fill: none; stroke: #000000; stroke-width: 1.5"/>
    <path d="M 84.835458 307.584 
L 84.835458 294.2784 
" clip-path="url(#pe33add616e)" style="fill: none; stroke: #000000; stroke-width: 1.5"/>
    <path d="M 104.170605 307.584 
L 104.170605 294.2784 
" clip-path="url(#pe33add616e)" style="fill: none; stroke: #000000; stroke-width: 1.5"/>
    <path d="M 123.093447 307.584 
L 123.093447 294.2784 
" clip-path="url(#pe33add616e)" style="fill: none; stroke: #000000; stroke-width: 1.5"/>
    <path d="M 154.229185 307.584 
L 154.229185 294.2784 
" clip-path="url(#pe33add616e)" style="fill: none; stroke: #000000; stroke-width: 1.5"/>
    <path d="M 185.315047 307.584 
L 185.315047 294.2784 
" clip-path="url(#pe33add616e)" style="fill: none; stroke: #000000; stroke-width: 1.5"/>
    <path d="M 218.366012 307.584 
L 218.366012 294.2784 
" clip-path="url(#pe33add616e)" style="fill: none; stroke: #000000; stroke-width: 1.5"/>
    <path d="M 294.130528 307.584 
L 294.130528 294.2784 
" clip-path="url(#pe33add616e)" style="fill: none; stroke: #000000; stroke-width: 1.5"/>
    <path d="M 342.443458 307.584 
L 342.443458 294.2784 
" clip-path="url(#pe33add616e)" style="fill: none; stroke: #000000; stroke-width: 1.5"/>
   </g>
   <g id="LineCollection_2">
    <path clip-path="url(#pe33add616e)" style="fill: none; stroke: #000000; stroke-width: 1.5"/>
    <path clip-path="url(#pe33add616e)" style="fill: none; stroke: #000000; stroke-width: 1.5"/>
    <path clip-path="url(#pe33add616e)" style="fill: none; stroke: #000000; stroke-width: 1.5"/>
    <path clip-path="url(#pe33add616e)" style="fill: none; stroke: #000000; stroke-width: 1.5"/>
    <path clip-path="url(#pe33add616e)" style="fill: none; stroke: #000000; stroke-width: 1.5"/>
    <path clip-path="url(#pe33add616e)" style="fill: none; stroke: #000000; stroke-width: 1.5"/>
    <path clip-path="url(#pe33add616e)" style="fill: none; stroke: #000000; stroke-width: 1.5"/>
    <path clip-path="url(#pe33add616e)" style="fill: none; stroke: #000000; stroke-width: 1.5"/>
    <path clip-path="url(#pe33add616e)" style="fill: none; stroke: #000000; stroke-width: 1.5"/>
   </g>
   <g id="patch_3">
    <path d="M 57.6 307.584 
L 57.6 41.472 
" style="fill: none; stroke: #000000; stroke-width: 0.8; stroke-linejoin: miter; stroke-linecap: square"/>
   </g>
   <g id="patch_4">
    <path d="M 414.72 307.584 
L 414.72 41.472 
" style="fill: none; stroke: #000000; stroke-width: 0.8; stroke-linejoin: miter; stroke-linecap: square"/>
   </g>
   <g id="patch_5">
    <path d="M 57.6 307.584 
L 414.72 307.584 
" style="fill: none; stroke: #000000; stroke-width: 0.8; stroke-linejoin: miter; stroke-linecap: square"/>
   </g>
   <g id="patch_6">
    <path d="M 57.6 41.472 
L 414.72 41.472 
" style="fill: none; stroke: #000000; stroke-width: 0.8; stroke-linejoin: miter; stroke-linecap: square"/>
   </g>
   <g id="text_18">
    <!-- 2D-partial dependency plot between PM and SG -->
    <g transform="translate(91.85625 35.472) scale(0.12 -0.12)">
     <defs>
      <path id="DejaVuSans-44" d="M 1259 4147 
L 1259 519 
L 2022 519 
Q 2988 519 3436 956 
Q 3884 1394 3884 2338 
Q 3884 3275 3436 3711 
Q 2988 4147 2022 4147 
L 1259 4147 
z
M 628 4666 
L 1925 4666 
Q 3281 4666 3915 4102 
Q 4550 3538 4550 2338 
Q 4550 1131 3912 565 
Q 3275 0 1925 0 
L 628 0 
L 628 4666 
z
" transform="scale(0.015625)"/>
      <path id="DejaVuSans-2d" d="M 313 2009 
L 1997 2009 
L 1997 1497 
L 313 1497 
L 313 2009 
z
" transform="scale(0.015625)"/>
      <path id="DejaVuSans-72" d="M 2631 2963 
Q 2534 3019 2420 3045 
Q 2306 3072 2169 3072 
Q 1681 3072 1420 2755 
Q 1159 2438 1159 1844 
L 1159 0 
L 581 0 
L 581 3500 
L 1159 3500 
L 1159 2956 
Q 1341 3275 1631 3429 
Q 1922 3584 2338 3584 
Q 2397 3584 2469 3576 
Q 2541 3569 2628 3553 
L 2631 2963 
z
" transform="scale(0.015625)"/>
      <path id="DejaVuSans-6c" d="M 603 4863 
L 1178 4863 
L 1178 0 
L 603 0 
L 603 4863 
z
" transform="scale(0.015625)"/>
      <path id="DejaVuSans-64" d="M 2906 2969 
L 2906 4863 
L 3481 4863 
L 3481 0 
L 2906 0 
L 2906 525 
Q 2725 213 2448 61 
Q 2172 -91 1784 -91 
Q 1150 -91 751 415 
Q 353 922 353 1747 
Q 353 2572 751 3078 
Q 1150 3584 1784 3584 
Q 2172 3584 2448 3432 
Q 2725 3281 2906 2969 
z
M 947 1747 
Q 947 1113 1208 752 
Q 1469 391 1925 391 
Q 2381 391 2643 752 
Q 2906 1113 2906 1747 
Q 2906 2381 2643 2742 
Q 2381 3103 1925 3103 
Q 1469 3103 1208 2742 
Q 947 2381 947 1747 
z
" transform="scale(0.015625)"/>
      <path id="DejaVuSans-63" d="M 3122 3366 
L 3122 2828 
Q 2878 2963 2633 3030 
Q 2388 3097 2138 3097 
Q 1578 3097 1268 2742 
Q 959 2388 959 1747 
Q 959 1106 1268 751 
Q 1578 397 2138 397 
Q 2388 397 2633 464 
Q 2878 531 3122 666 
L 3122 134 
Q 2881 22 2623 -34 
Q 2366 -91 2075 -91 
Q 1284 -91 818 406 
Q 353 903 353 1747 
Q 353 2603 823 3093 
Q 1294 3584 2113 3584 
Q 2378 3584 2631 3529 
Q 2884 3475 3122 3366 
z
" transform="scale(0.015625)"/>
      <path id="DejaVuSans-79" d="M 2059 -325 
Q 1816 -950 1584 -1140 
Q 1353 -1331 966 -1331 
L 506 -1331 
L 506 -850 
L 844 -850 
Q 1081 -850 1212 -737 
Q 1344 -625 1503 -206 
L 1606 56 
L 191 3500 
L 800 3500 
L 1894 763 
L 2988 3500 
L 3597 3500 
L 2059 -325 
z
" transform="scale(0.015625)"/>
      <path id="DejaVuSans-62" d="M 3116 1747 
Q 3116 2381 2855 2742 
Q 2594 3103 2138 3103 
Q 1681 3103 1420 2742 
Q 1159 2381 1159 1747 
Q 1159 1113 1420 752 
Q 1681 391 2138 391 
Q 2594 391 2855 752 
Q 3116 1113 3116 1747 
z
M 1159 2969 
Q 1341 3281 1617 3432 
Q 1894 3584 2278 3584 
Q 2916 3584 3314 3078 
Q 3713 2572 3713 1747 
Q 3713 922 3314 415 
Q 2916 -91 2278 -91 
Q 1894 -91 1617 61 
Q 1341 213 1159 525 
L 1159 0 
L 581 0 
L 581 4863 
L 1159 4863 
L 1159 2969 
z
" transform="scale(0.015625)"/>
      <path id="DejaVuSans-77" d="M 269 3500 
L 844 3500 
L 1563 769 
L 2278 3500 
L 2956 3500 
L 3675 769 
L 4391 3500 
L 4966 3500 
L 4050 0 
L 3372 0 
L 2619 2869 
L 1863 0 
L 1184 0 
L 269 3500 
z
" transform="scale(0.015625)"/>
     </defs>
     <use xlink:href="#DejaVuSans-32"/>
     <use xlink:href="#DejaVuSans-44" x="63.623047"/>
     <use xlink:href="#DejaVuSans-2d" x="140.625"/>
     <use xlink:href="#DejaVuSans-70" x="176.708984"/>
     <use xlink:href="#DejaVuSans-61" x="240.185547"/>
     <use xlink:href="#DejaVuSans-72" x="301.464844"/>
     <use xlink:href="#DejaVuSans-74" x="342.578125"/>
     <use xlink:href="#DejaVuSans-69" x="381.787109"/>
     <use xlink:href="#DejaVuSans-61" x="409.570312"/>
     <use xlink:href="#DejaVuSans-6c" x="470.849609"/>
     <use xlink:href="#DejaVuSans-20" x="498.632812"/>
     <use xlink:href="#DejaVuSans-64" x="530.419922"/>
     <use xlink:href="#DejaVuSans-65" x="593.896484"/>
     <use xlink:href="#DejaVuSans-70" x="655.419922"/>
     <use xlink:href="#DejaVuSans-65" x="718.896484"/>
     <use xlink:href="#DejaVuSans-6e" x="780.419922"/>
     <use xlink:href="#DejaVuSans-64" x="843.798828"/>
     <use xlink:href="#DejaVuSans-65" x="907.275391"/>
     <use xlink:href="#DejaVuSans-6e" x="968.798828"/>
     <use xlink:href="#DejaVuSans-63" x="1032.177734"/>
     <use xlink:href="#DejaVuSans-79" x="1087.158203"/>
     <use xlink:href="#DejaVuSans-20" x="1146.337891"/>
     <use xlink:href="#DejaVuSans-70" x="1178.125"/>
     <use xlink:href="#DejaVuSans-6c" x="1241.601562"/>
     <use xlink:href="#DejaVuSans-6f" x="1269.384766"/>
     <use xlink:href="#DejaVuSans-74" x="1330.566406"/>
     <use xlink:href="#DejaVuSans-20" x="1369.775391"/>
     <use xlink:href="#DejaVuSans-62" x="1401.5625"/>
     <use xlink:href="#DejaVuSans-65" x="1465.039062"/>
     <use xlink:href="#DejaVuSans-74" x="1526.5625"/>
     <use xlink:href="#DejaVuSans-77" x="1565.771484"/>
     <use xlink:href="#DejaVuSans-65" x="1647.558594"/>
     <use xlink:href="#DejaVuSans-65" x="1709.082031"/>
     <use xlink:href="#DejaVuSans-6e" x="1770.605469"/>
     <use xlink:href="#DejaVuSans-20" x="1833.984375"/>
     <use xlink:href="#DejaVuSans-50" x="1865.771484"/>
     <use xlink:href="#DejaVuSans-4d" x="1926.074219"/>
     <use xlink:href="#DejaVuSans-20" x="2012.353516"/>
     <use xlink:href="#DejaVuSans-61" x="2044.140625"/>
     <use xlink:href="#DejaVuSans-6e" x="2105.419922"/>
     <use xlink:href="#DejaVuSans-64" x="2168.798828"/>
     <use xlink:href="#DejaVuSans-20" x="2232.275391"/>
     <use xlink:href="#DejaVuSans-53" x="2264.0625"/>
     <use xlink:href="#DejaVuSans-47" x="2327.539062"/>
    </g>
   </g>
   <g id="text_19">
    <g clip-path="url(#pe33add616e)">
     <!-- 8.78 -->
     <g transform="translate(398.800371 261.985267) rotate(-277.807922) scale(0.1 -0.1)">
      <defs>
       <path id="DejaVuSans-37" d="M 525 4666 
L 3525 4666 
L 3525 4397 
L 1831 0 
L 1172 0 
L 2766 4134 
L 525 4134 
L 525 4666 
z
" transform="scale(0.015625)"/>
      </defs>
      <use xlink:href="#DejaVuSans-38"/>
      <use xlink:href="#DejaVuSans-2e" x="63.623047"/>
      <use xlink:href="#DejaVuSans-37" x="95.410156"/>
      <use xlink:href="#DejaVuSans-38" x="159.033203"/>
     </g>
    </g>
   </g>
   <g id="text_20">
    <g clip-path="url(#pe33add616e)">
     <!-- 9.29 -->
     <g transform="translate(315.894477 108.757191) rotate(-277.644393) scale(0.1 -0.1)">
      <defs>
       <path id="DejaVuSans-39" d="M 703 97 
L 703 672 
Q 941 559 1184 500 
Q 1428 441 1663 441 
Q 2288 441 2617 861 
Q 2947 1281 2994 2138 
Q 2813 1869 2534 1725 
Q 2256 1581 1919 1581 
Q 1219 1581 811 2004 
Q 403 2428 403 3163 
Q 403 3881 828 4315 
Q 1253 4750 1959 4750 
Q 2769 4750 3195 4129 
Q 3622 3509 3622 2328 
Q 3622 1225 3098 567 
Q 2575 -91 1691 -91 
Q 1453 -91 1209 -44 
Q 966 3 703 97 
z
M 1959 2075 
Q 2384 2075 2632 2365 
Q 2881 2656 2881 3163 
Q 2881 3666 2632 3958 
Q 2384 4250 1959 4250 
Q 1534 4250 1286 3958 
Q 1038 3666 1038 3163 
Q 1038 2656 1286 2365 
Q 1534 2075 1959 2075 
z
" transform="scale(0.015625)"/>
      </defs>
      <use xlink:href="#DejaVuSans-39"/>
      <use xlink:href="#DejaVuSans-2e" x="63.623047"/>
      <use xlink:href="#DejaVuSans-32" x="95.410156"/>
      <use xlink:href="#DejaVuSans-39" x="159.033203"/>
     </g>
    </g>
   </g>
   <g id="text_21">
    <g clip-path="url(#pe33add616e)">
     <!-- 9.80 -->
     <g transform="translate(255.267163 108.752088) rotate(-277.57493) scale(0.1 -0.1)">
      <use xlink:href="#DejaVuSans-39"/>
      <use xlink:href="#DejaVuSans-2e" x="63.623047"/>
      <use xlink:href="#DejaVuSans-38" x="95.410156"/>
      <use xlink:href="#DejaVuSans-30" x="159.033203"/>
     </g>
    </g>
   </g>
   <g id="text_22">
    <g clip-path="url(#pe33add616e)">
     <!-- 10.32 -->
     <g transform="translate(213.252184 248.039379) rotate(-277.284888) scale(0.1 -0.1)">
      <use xlink:href="#DejaVuSans-31"/>
      <use xlink:href="#DejaVuSans-30" x="63.623047"/>
      <use xlink:href="#DejaVuSans-2e" x="127.246094"/>
      <use xlink:href="#DejaVuSans-33" x="159.033203"/>
      <use xlink:href="#DejaVuSans-32" x="222.65625"/>
     </g>
    </g>
   </g>
   <g id="text_23">
    <g clip-path="url(#pe33add616e)">
     <!-- 10.83 -->
     <g transform="translate(152.587963 248.037061) rotate(-277.255696) scale(0.1 -0.1)">
      <use xlink:href="#DejaVuSans-31"/>
      <use xlink:href="#DejaVuSans-30" x="63.623047"/>
      <use xlink:href="#DejaVuSans-2e" x="127.246094"/>
      <use xlink:href="#DejaVuSans-38" x="159.033203"/>
      <use xlink:href="#DejaVuSans-33" x="222.65625"/>
     </g>
    </g>
   </g>
   <g id="text_24">
    <g clip-path="url(#pe33add616e)">
     <!-- 11.34 -->
     <g transform="translate(90.673846 248.0406) rotate(-277.300249) scale(0.1 -0.1)">
      <use xlink:href="#DejaVuSans-31"/>
      <use xlink:href="#DejaVuSans-31" x="63.623047"/>
      <use xlink:href="#DejaVuSans-2e" x="127.246094"/>
      <use xlink:href="#DejaVuSans-33" x="159.033203"/>
      <use xlink:href="#DejaVuSans-34" x="222.65625"/>
     </g>
    </g>
   </g>
  </g>
 </g>
 <defs>
  <clipPath id="pe33add616e">
   <rect x="57.6" y="41.472" width="357.12" height="266.112"/>
  </clipPath>
 </defs>
</svg>
