<?xml version="1.0" encoding="utf-8" standalone="no"?>
<!DOCTYPE svg PUBLIC "-//W3C//DTD SVG 1.1//EN"
  "http://www.w3.org/Graphics/SVG/1.1/DTD/svg11.dtd">
<svg xmlns:xlink="http://www.w3.org/1999/xlink" width="460.8pt" height="345.6pt" viewBox="0 0 460.8 345.6" xmlns="http://www.w3.org/2000/svg" version="1.1">
 <metadata>
  <rdf:RDF xmlns:dc="http://purl.org/dc/elements/1.1/" xmlns:cc="http://creativecommons.org/ns#" xmlns:rdf="http://www.w3.org/1999/02/22-rdf-syntax-ns#">
   <cc:Work>
    <dc:type rdf:resource="http://purl.org/dc/dcmitype/StillImage"/>
    <dc:date>2024-04-22T00:54:13.656487</dc:date>
    <dc:format>image/svg+xml</dc:format>
    <dc:creator>
     <cc:Agent>
      <dc:title>Matplotlib v3.7.0, https://matplotlib.org/</dc:title>
     </cc:Agent>
    </dc:creator>
   </cc:Work>
  </rdf:RDF>
 </metadata>
 <defs>
  <style type="text/css">*{stroke-linejoin: round; stroke-linecap: butt}</style>
 </defs>
 <g id="figure_1">
  <g id="patch_1">
   <path d="M 0 345.6 
L 460.8 345.6 
L 460.8 0 
L 0 0 
L 0 345.6 
z
" style="fill: none"/>
  </g>
  <g id="axes_1"/>
  <g id="axes_2">
   <g id="patch_2">
    <path d="M 57.6 307.584 
L 414.72 307.584 
L 414.72 41.472 
L 57.6 41.472 
L 57.6 307.584 
z
" style="fill: none"/>
   </g>
   <g id="PathCollection_1">
    <path d="M 61.207273 307.584 
L 64.814545 307.584 
L 68.421818 307.584 
L 72.029091 307.584 
L 75.636364 307.584 
L 79.243636 307.584 
L 82.850909 307.584 
L 86.458182 307.584 
L 90.065455 307.584 
L 93.672727 307.584 
L 97.28 307.584 
L 100.887273 307.584 
L 104.494545 307.584 
L 108.101818 307.584 
L 111.709091 307.584 
L 115.316364 307.584 
L 118.923636 307.584 
L 122.530909 307.584 
L 126.138182 307.584 
L 129.745455 307.584 
L 133.352727 307.584 
L 136.96 307.584 
L 140.567273 307.584 
L 144.174545 307.584 
L 147.781818 307.584 
L 151.389091 307.584 
L 154.996364 307.584 
L 158.603636 307.584 
L 162.210909 307.584 
L 165.818182 307.584 
L 169.425455 307.584 
L 173.032727 307.584 
L 176.64 307.584 
L 180.247273 307.584 
L 183.854545 307.584 
L 187.461818 307.584 
L 191.069091 307.584 
L 194.676364 307.584 
L 198.283636 307.584 
L 201.890909 307.584 
L 205.498182 307.584 
L 209.105455 307.584 
L 212.712727 307.584 
L 216.32 307.584 
L 219.927273 307.584 
L 223.534545 307.584 
L 227.141818 307.584 
L 230.749091 307.584 
L 234.356364 307.584 
L 237.963636 307.584 
L 241.570909 307.584 
L 245.178182 307.584 
L 248.785455 307.584 
L 252.392727 307.584 
L 256 307.584 
L 259.607273 307.584 
L 263.214545 307.584 
L 266.821818 307.584 
L 270.429091 307.584 
L 274.036364 307.584 
L 277.643636 307.584 
L 281.250909 307.584 
L 284.858182 307.584 
L 288.465455 307.584 
L 292.072727 307.584 
L 295.68 307.584 
L 299.287273 307.584 
L 302.894545 307.584 
L 306.501818 307.584 
L 310.109091 307.584 
L 313.716364 307.584 
L 317.323636 307.584 
L 320.930909 307.584 
L 324.538182 307.584 
L 328.145455 307.584 
L 331.752727 307.584 
L 335.36 307.584 
L 338.967273 307.584 
L 342.574545 307.584 
L 346.181818 307.584 
L 349.789091 307.584 
L 353.396364 307.584 
L 357.003636 307.584 
L 360.610909 307.584 
L 364.218182 307.584 
L 367.825455 307.584 
L 371.432727 307.584 
L 375.04 307.584 
L 378.647273 307.584 
L 382.254545 307.584 
L 385.861818 307.584 
L 389.469091 307.584 
L 393.076364 307.584 
L 396.683636 307.584 
L 400.290909 307.584 
L 403.898182 307.584 
L 407.505455 307.584 
L 411.112727 307.584 
L 414.72 307.584 
L 414.72 304.896 
L 414.72 302.208 
L 414.72 299.52 
L 414.72 296.832 
L 414.72 294.144 
L 414.72 291.456 
L 414.72 288.768 
L 414.72 286.08 
L 414.72 283.392 
L 414.72 280.704 
L 414.72 278.016 
L 414.72 277.651611 
L 411.112727 277.651515 
L 407.505455 277.651419 
L 403.898182 277.651322 
L 400.290909 277.651225 
L 396.683636 277.651128 
L 393.076364 277.651031 
L 389.469091 277.650933 
L 385.861818 277.650835 
L 382.254545 277.650737 
L 378.647273 277.650639 
L 375.04 277.65054 
L 371.432727 277.650442 
L 367.825455 277.650342 
L 364.218182 277.650243 
L 360.610909 277.650144 
L 357.003636 277.650044 
L 353.396364 277.649944 
L 349.789091 277.649843 
L 346.181818 277.649743 
L 342.574545 277.649642 
L 338.967273 277.649541 
L 335.36 277.649439 
L 331.752727 277.649338 
L 328.145455 277.649236 
L 324.538182 277.649134 
L 320.930909 277.649032 
L 317.323636 277.648929 
L 313.716364 277.648826 
L 310.109091 277.648723 
L 306.501818 277.64862 
L 302.894545 277.648516 
L 299.287273 277.648412 
L 295.68 277.648308 
L 292.072727 277.648204 
L 288.465455 277.648099 
L 284.858182 277.647994 
L 281.250909 277.647889 
L 277.643636 277.647784 
L 274.036364 277.647678 
L 270.429091 277.647573 
L 266.821818 277.647466 
L 263.214545 277.64736 
L 259.607273 277.647254 
L 256 277.647147 
L 252.392727 277.64704 
L 248.785455 277.646932 
L 245.178182 277.646825 
L 241.570909 277.646717 
L 237.963636 277.646609 
L 234.356364 277.6465 
L 230.749091 277.646392 
L 227.141818 277.646283 
L 223.534545 277.646174 
L 219.927273 277.646064 
L 216.32 277.645955 
L 212.712727 277.645845 
L 209.105455 277.645735 
L 205.498182 277.645625 
L 201.890909 277.645514 
L 198.283636 277.645403 
L 194.676364 277.645292 
L 191.069091 277.645181 
L 187.461818 277.645069 
L 183.854545 277.644957 
L 180.247273 277.644845 
L 176.64 277.644733 
L 173.032727 277.64462 
L 169.425455 277.644507 
L 165.818182 277.644394 
L 162.210909 277.644281 
L 158.603636 277.644167 
L 154.996364 277.644053 
L 151.389091 277.643939 
L 147.781818 277.643825 
L 144.174545 277.64371 
L 140.567273 277.643595 
L 136.96 277.64348 
L 133.352727 277.643365 
L 129.745455 277.643249 
L 126.138182 277.643133 
L 122.530909 277.643017 
L 118.923636 277.642901 
L 115.316364 277.642784 
L 111.709091 277.642667 
L 108.101818 277.64255 
L 104.494545 277.642433 
L 100.887273 277.642315 
L 97.28 277.642198 
L 93.672727 277.642079 
L 90.065455 277.641961 
L 86.458182 277.641842 
L 82.850909 277.641724 
L 79.243636 277.641604 
L 75.636364 277.641485 
L 72.029091 277.641365 
L 68.421818 277.641246 
L 64.814545 277.641125 
L 61.207273 277.641005 
L 57.6 277.640884 
L 57.6 278.016 
L 57.6 280.704 
L 57.6 283.392 
L 57.6 286.08 
L 57.6 288.768 
L 57.6 291.456 
L 57.6 294.144 
L 57.6 296.832 
L 57.6 299.52 
L 57.6 302.208 
L 57.6 304.896 
L 57.6 307.584 
z
" clip-path="url(#p750e9e943c)" style="fill: #481b6d; fill-opacity: 0.75"/>
   </g>
   <g id="PathCollection_2">
    <path d="M 61.207273 277.641005 
L 64.814545 277.641125 
L 68.421818 277.641246 
L 72.029091 277.641365 
L 75.636364 277.641485 
L 79.243636 277.641604 
L 82.850909 277.641724 
L 86.458182 277.641842 
L 90.065455 277.641961 
L 93.672727 277.642079 
L 97.28 277.642198 
L 100.887273 277.642315 
L 104.494545 277.642433 
L 108.101818 277.64255 
L 111.709091 277.642667 
L 115.316364 277.642784 
L 118.923636 277.642901 
L 122.530909 277.643017 
L 126.138182 277.643133 
L 129.745455 277.643249 
L 133.352727 277.643365 
L 136.96 277.64348 
L 140.567273 277.643595 
L 144.174545 277.64371 
L 147.781818 277.643825 
L 151.389091 277.643939 
L 154.996364 277.644053 
L 158.603636 277.644167 
L 162.210909 277.644281 
L 165.818182 277.644394 
L 169.425455 277.644507 
L 173.032727 277.64462 
L 176.64 277.644733 
L 180.247273 277.644845 
L 183.854545 277.644957 
L 187.461818 277.645069 
L 191.069091 277.645181 
L 194.676364 277.645292 
L 198.283636 277.645403 
L 201.890909 277.645514 
L 205.498182 277.645625 
L 209.105455 277.645735 
L 212.712727 277.645845 
L 216.32 277.645955 
L 219.927273 277.646064 
L 223.534545 277.646174 
L 227.141818 277.646283 
L 230.749091 277.646392 
L 234.356364 277.6465 
L 237.963636 277.646609 
L 241.570909 277.646717 
L 245.178182 277.646825 
L 248.785455 277.646932 
L 252.392727 277.64704 
L 256 277.647147 
L 259.607273 277.647254 
L 263.214545 277.64736 
L 266.821818 277.647466 
L 270.429091 277.647573 
L 274.036364 277.647678 
L 277.643636 277.647784 
L 281.250909 277.647889 
L 284.858182 277.647994 
L 288.465455 277.648099 
L 292.072727 277.648204 
L 295.68 277.648308 
L 299.287273 277.648412 
L 302.894545 277.648516 
L 306.501818 277.64862 
L 310.109091 277.648723 
L 313.716364 277.648826 
L 317.323636 277.648929 
L 320.930909 277.649032 
L 324.538182 277.649134 
L 328.145455 277.649236 
L 331.752727 277.649338 
L 335.36 277.649439 
L 338.967273 277.649541 
L 342.574545 277.649642 
L 346.181818 277.649743 
L 349.789091 277.649843 
L 353.396364 277.649944 
L 357.003636 277.650044 
L 360.610909 277.650144 
L 364.218182 277.650243 
L 367.825455 277.650342 
L 371.432727 277.650442 
L 375.04 277.65054 
L 378.647273 277.650639 
L 382.254545 277.650737 
L 385.861818 277.650835 
L 389.469091 277.650933 
L 393.076364 277.651031 
L 396.683636 277.651128 
L 400.290909 277.651225 
L 403.898182 277.651322 
L 407.505455 277.651419 
L 411.112727 277.651515 
L 414.72 277.651611 
L 414.72 275.328 
L 414.72 272.64 
L 414.72 269.952 
L 414.72 267.264 
L 414.72 264.576 
L 414.72 261.888 
L 414.72 259.2 
L 414.72 256.512 
L 414.72 253.824 
L 414.72 251.136 
L 414.72 248.448 
L 414.72 245.76 
L 414.72 243.072 
L 414.72 240.384 
L 414.72 237.696 
L 414.72 235.029494 
L 411.112727 235.029402 
L 407.505455 235.02931 
L 403.898182 235.029218 
L 400.290909 235.029125 
L 396.683636 235.029032 
L 393.076364 235.028938 
L 389.469091 235.028845 
L 385.861818 235.028751 
L 382.254545 235.028657 
L 378.647273 235.028562 
L 375.04 235.028468 
L 371.432727 235.028373 
L 367.825455 235.028277 
L 364.218182 235.028182 
L 360.610909 235.028086 
L 357.003636 235.02799 
L 353.396364 235.027893 
L 349.789091 235.027797 
L 346.181818 235.0277 
L 342.574545 235.027603 
L 338.967273 235.027505 
L 335.36 235.027408 
L 331.752727 235.02731 
L 328.145455 235.027211 
L 324.538182 235.027113 
L 320.930909 235.027014 
L 317.323636 235.026915 
L 313.716364 235.026816 
L 310.109091 235.026716 
L 306.501818 235.026616 
L 302.894545 235.026516 
L 299.287273 235.026415 
L 295.68 235.026315 
L 292.072727 235.026214 
L 288.465455 235.026113 
L 284.858182 235.026011 
L 281.250909 235.025909 
L 277.643636 235.025807 
L 274.036364 235.025705 
L 270.429091 235.025602 
L 266.821818 235.025499 
L 263.214545 235.025396 
L 259.607273 235.025293 
L 256 235.025189 
L 252.392727 235.025085 
L 248.785455 235.024981 
L 245.178182 235.024876 
L 241.570909 235.024771 
L 237.963636 235.024666 
L 234.356364 235.024561 
L 230.749091 235.024455 
L 227.141818 235.024349 
L 223.534545 235.024243 
L 219.927273 235.024137 
L 216.32 235.02403 
L 212.712727 235.023923 
L 209.105455 235.023816 
L 205.498182 235.023708 
L 201.890909 235.023601 
L 198.283636 235.023493 
L 194.676364 235.023384 
L 191.069091 235.023276 
L 187.461818 235.023167 
L 183.854545 235.023058 
L 180.247273 235.022948 
L 176.64 235.022838 
L 173.032727 235.022728 
L 169.425455 235.022618 
L 165.818182 235.022508 
L 162.210909 235.022397 
L 158.603636 235.022286 
L 154.996364 235.022175 
L 151.389091 235.022063 
L 147.781818 235.021951 
L 144.174545 235.021839 
L 140.567273 235.021726 
L 136.96 235.021614 
L 133.352727 235.021501 
L 129.745455 235.021388 
L 126.138182 235.021274 
L 122.530909 235.02116 
L 118.923636 235.021046 
L 115.316364 235.020932 
L 111.709091 235.020817 
L 108.101818 235.020702 
L 104.494545 235.020587 
L 100.887273 235.020472 
L 97.28 235.020356 
L 93.672727 235.02024 
L 90.065455 235.020124 
L 86.458182 235.020007 
L 82.850909 235.019891 
L 79.243636 235.019774 
L 75.636364 235.019656 
L 72.029091 235.019539 
L 68.421818 235.019421 
L 64.814545 235.019303 
L 61.207273 235.019184 
L 57.6 235.019065 
L 57.6 237.696 
L 57.6 240.384 
L 57.6 243.072 
L 57.6 245.76 
L 57.6 248.448 
L 57.6 251.136 
L 57.6 253.824 
L 57.6 256.512 
L 57.6 259.2 
L 57.6 261.888 
L 57.6 264.576 
L 57.6 267.264 
L 57.6 269.952 
L 57.6 272.64 
L 57.6 275.328 
L 57.6 277.640884 
z
" clip-path="url(#p750e9e943c)" style="fill: #3f4788; fill-opacity: 0.75"/>
   </g>
   <g id="PathCollection_3">
    <path d="M 61.207273 235.019184 
L 64.814545 235.019303 
L 68.421818 235.019421 
L 72.029091 235.019539 
L 75.636364 235.019656 
L 79.243636 235.019774 
L 82.850909 235.019891 
L 86.458182 235.020007 
L 90.065455 235.020124 
L 93.672727 235.02024 
L 97.28 235.020356 
L 100.887273 235.020472 
L 104.494545 235.020587 
L 108.101818 235.020702 
L 111.709091 235.020817 
L 115.316364 235.020932 
L 118.923636 235.021046 
L 122.530909 235.02116 
L 126.138182 235.021274 
L 129.745455 235.021388 
L 133.352727 235.021501 
L 136.96 235.021614 
L 140.567273 235.021726 
L 144.174545 235.021839 
L 147.781818 235.021951 
L 151.389091 235.022063 
L 154.996364 235.022175 
L 158.603636 235.022286 
L 162.210909 235.022397 
L 165.818182 235.022508 
L 169.425455 235.022618 
L 173.032727 235.022728 
L 176.64 235.022838 
L 180.247273 235.022948 
L 183.854545 235.023058 
L 187.461818 235.023167 
L 191.069091 235.023276 
L 194.676364 235.023384 
L 198.283636 235.023493 
L 201.890909 235.023601 
L 205.498182 235.023708 
L 209.105455 235.023816 
L 212.712727 235.023923 
L 216.32 235.02403 
L 219.927273 235.024137 
L 223.534545 235.024243 
L 227.141818 235.024349 
L 230.749091 235.024455 
L 234.356364 235.024561 
L 237.963636 235.024666 
L 241.570909 235.024771 
L 245.178182 235.024876 
L 248.785455 235.024981 
L 252.392727 235.025085 
L 256 235.025189 
L 259.607273 235.025293 
L 263.214545 235.025396 
L 266.821818 235.025499 
L 270.429091 235.025602 
L 274.036364 235.025705 
L 277.643636 235.025807 
L 281.250909 235.025909 
L 284.858182 235.026011 
L 288.465455 235.026113 
L 292.072727 235.026214 
L 295.68 235.026315 
L 299.287273 235.026415 
L 302.894545 235.026516 
L 306.501818 235.026616 
L 310.109091 235.026716 
L 313.716364 235.026816 
L 317.323636 235.026915 
L 320.930909 235.027014 
L 324.538182 235.027113 
L 328.145455 235.027211 
L 331.752727 235.02731 
L 335.36 235.027408 
L 338.967273 235.027505 
L 342.574545 235.027603 
L 346.181818 235.0277 
L 349.789091 235.027797 
L 353.396364 235.027893 
L 357.003636 235.02799 
L 360.610909 235.028086 
L 364.218182 235.028182 
L 367.825455 235.028277 
L 371.432727 235.028373 
L 375.04 235.028468 
L 378.647273 235.028562 
L 382.254545 235.028657 
L 385.861818 235.028751 
L 389.469091 235.028845 
L 393.076364 235.028938 
L 396.683636 235.029032 
L 400.290909 235.029125 
L 403.898182 235.029218 
L 407.505455 235.02931 
L 411.112727 235.029402 
L 414.72 235.029494 
L 414.72 235.008 
L 414.72 232.32 
L 414.72 229.632 
L 414.72 226.944 
L 414.72 224.256 
L 414.72 221.568 
L 414.72 218.88 
L 414.72 216.192 
L 414.72 213.504 
L 414.72 210.816 
L 414.72 208.128 
L 414.72 205.44 
L 414.72 202.752 
L 414.72 200.064 
L 414.72 197.376 
L 414.72 194.688 
L 414.72 193.451291 
L 411.112727 193.451202 
L 407.505455 193.451113 
L 403.898182 193.451024 
L 400.290909 193.450935 
L 396.683636 193.450845 
L 393.076364 193.450756 
L 389.469091 193.450665 
L 385.861818 193.450575 
L 382.254545 193.450484 
L 378.647273 193.450393 
L 375.04 193.450302 
L 371.432727 193.45021 
L 367.825455 193.450118 
L 364.218182 193.450026 
L 360.610909 193.449933 
L 357.003636 193.44984 
L 353.396364 193.449747 
L 349.789091 193.449654 
L 346.181818 193.44956 
L 342.574545 193.449466 
L 338.967273 193.449371 
L 335.36 193.449277 
L 331.752727 193.449182 
L 328.145455 193.449087 
L 324.538182 193.448991 
L 320.930909 193.448895 
L 317.323636 193.448799 
L 313.716364 193.448703 
L 310.109091 193.448606 
L 306.501818 193.448509 
L 302.894545 193.448412 
L 299.287273 193.448314 
L 295.68 193.448216 
L 292.072727 193.448118 
L 288.465455 193.448019 
L 284.858182 193.447921 
L 281.250909 193.447822 
L 277.643636 193.447722 
L 274.036364 193.447623 
L 270.429091 193.447523 
L 266.821818 193.447422 
L 263.214545 193.447322 
L 259.607273 193.447221 
L 256 193.44712 
L 252.392727 193.447018 
L 248.785455 193.446917 
L 245.178182 193.446815 
L 241.570909 193.446712 
L 237.963636 193.44661 
L 234.356364 193.446507 
L 230.749091 193.446403 
L 227.141818 193.4463 
L 223.534545 193.446196 
L 219.927273 193.446092 
L 216.32 193.445988 
L 212.712727 193.445883 
L 209.105455 193.445778 
L 205.498182 193.445673 
L 201.890909 193.445567 
L 198.283636 193.445461 
L 194.676364 193.445355 
L 191.069091 193.445249 
L 187.461818 193.445142 
L 183.854545 193.445035 
L 180.247273 193.444927 
L 176.64 193.44482 
L 173.032727 193.444712 
L 169.425455 193.444604 
L 165.818182 193.444495 
L 162.210909 193.444386 
L 158.603636 193.444277 
L 154.996364 193.444168 
L 151.389091 193.444058 
L 147.781818 193.443948 
L 144.174545 193.443838 
L 140.567273 193.443727 
L 136.96 193.443616 
L 133.352727 193.443505 
L 129.745455 193.443393 
L 126.138182 193.443282 
L 122.530909 193.44317 
L 118.923636 193.443057 
L 115.316364 193.442945 
L 111.709091 193.442832 
L 108.101818 193.442718 
L 104.494545 193.442605 
L 100.887273 193.442491 
L 97.28 193.442377 
L 93.672727 193.442262 
L 90.065455 193.442148 
L 86.458182 193.442033 
L 82.850909 193.441917 
L 79.243636 193.441802 
L 75.636364 193.441686 
L 72.029091 193.441569 
L 68.421818 193.441453 
L 64.814545 193.441336 
L 61.207273 193.441219 
L 57.6 193.441102 
L 57.6 194.688 
L 57.6 197.376 
L 57.6 200.064 
L 57.6 202.752 
L 57.6 205.44 
L 57.6 208.128 
L 57.6 210.816 
L 57.6 213.504 
L 57.6 216.192 
L 57.6 218.88 
L 57.6 221.568 
L 57.6 224.256 
L 57.6 226.944 
L 57.6 229.632 
L 57.6 232.32 
L 57.6 235.008 
L 57.6 235.019065 
z
" clip-path="url(#p750e9e943c)" style="fill: #2e6e8e; fill-opacity: 0.75"/>
   </g>
   <g id="PathCollection_4">
    <path d="M 61.207273 193.441219 
L 64.814545 193.441336 
L 68.421818 193.441453 
L 72.029091 193.441569 
L 75.636364 193.441686 
L 79.243636 193.441802 
L 82.850909 193.441917 
L 86.458182 193.442033 
L 90.065455 193.442148 
L 93.672727 193.442262 
L 97.28 193.442377 
L 100.887273 193.442491 
L 104.494545 193.442605 
L 108.101818 193.442718 
L 111.709091 193.442832 
L 115.316364 193.442945 
L 118.923636 193.443057 
L 122.530909 193.44317 
L 126.138182 193.443282 
L 129.745455 193.443393 
L 133.352727 193.443505 
L 136.96 193.443616 
L 140.567273 193.443727 
L 144.174545 193.443838 
L 147.781818 193.443948 
L 151.389091 193.444058 
L 154.996364 193.444168 
L 158.603636 193.444277 
L 162.210909 193.444386 
L 165.818182 193.444495 
L 169.425455 193.444604 
L 173.032727 193.444712 
L 176.64 193.44482 
L 180.247273 193.444927 
L 183.854545 193.445035 
L 187.461818 193.445142 
L 191.069091 193.445249 
L 194.676364 193.445355 
L 198.283636 193.445461 
L 201.890909 193.445567 
L 205.498182 193.445673 
L 209.105455 193.445778 
L 212.712727 193.445883 
L 216.32 193.445988 
L 219.927273 193.446092 
L 223.534545 193.446196 
L 227.141818 193.4463 
L 230.749091 193.446403 
L 234.356364 193.446507 
L 237.963636 193.44661 
L 241.570909 193.446712 
L 245.178182 193.446815 
L 248.785455 193.446917 
L 252.392727 193.447018 
L 256 193.44712 
L 259.607273 193.447221 
L 263.214545 193.447322 
L 266.821818 193.447422 
L 270.429091 193.447523 
L 274.036364 193.447623 
L 277.643636 193.447722 
L 281.250909 193.447822 
L 284.858182 193.447921 
L 288.465455 193.448019 
L 292.072727 193.448118 
L 295.68 193.448216 
L 299.287273 193.448314 
L 302.894545 193.448412 
L 306.501818 193.448509 
L 310.109091 193.448606 
L 313.716364 193.448703 
L 317.323636 193.448799 
L 320.930909 193.448895 
L 324.538182 193.448991 
L 328.145455 193.449087 
L 331.752727 193.449182 
L 335.36 193.449277 
L 338.967273 193.449371 
L 342.574545 193.449466 
L 346.181818 193.44956 
L 349.789091 193.449654 
L 353.396364 193.449747 
L 357.003636 193.44984 
L 360.610909 193.449933 
L 364.218182 193.450026 
L 367.825455 193.450118 
L 371.432727 193.45021 
L 375.04 193.450302 
L 378.647273 193.450393 
L 382.254545 193.450484 
L 385.861818 193.450575 
L 389.469091 193.450665 
L 393.076364 193.450756 
L 396.683636 193.450845 
L 400.290909 193.450935 
L 403.898182 193.451024 
L 407.505455 193.451113 
L 411.112727 193.451202 
L 414.72 193.451291 
L 414.72 192 
L 414.72 189.312 
L 414.72 186.624 
L 414.72 183.936 
L 414.72 181.248 
L 414.72 178.56 
L 414.72 175.872 
L 414.72 173.184 
L 414.72 170.496 
L 414.72 167.808 
L 414.72 165.12 
L 414.72 162.432 
L 414.72 159.744 
L 414.72 157.056 
L 414.72 154.368 
L 414.72 152.424495 
L 411.112727 152.424409 
L 407.505455 152.424323 
L 403.898182 152.424237 
L 400.290909 152.42415 
L 396.683636 152.424064 
L 393.076364 152.423976 
L 389.469091 152.423889 
L 385.861818 152.423801 
L 382.254545 152.423713 
L 378.647273 152.423624 
L 375.04 152.423536 
L 371.432727 152.423446 
L 367.825455 152.423357 
L 364.218182 152.423267 
L 360.610909 152.423177 
L 357.003636 152.423087 
L 353.396364 152.422996 
L 349.789091 152.422905 
L 346.181818 152.422814 
L 342.574545 152.422722 
L 338.967273 152.42263 
L 335.36 152.422537 
L 331.752727 152.422445 
L 328.145455 152.422352 
L 324.538182 152.422259 
L 320.930909 152.422165 
L 317.323636 152.422071 
L 313.716364 152.421977 
L 310.109091 152.421882 
L 306.501818 152.421787 
L 302.894545 152.421692 
L 299.287273 152.421596 
L 295.68 152.421501 
L 292.072727 152.421404 
L 288.465455 152.421308 
L 284.858182 152.421211 
L 281.250909 152.421114 
L 277.643636 152.421016 
L 274.036364 152.420918 
L 270.429091 152.42082 
L 266.821818 152.420722 
L 263.214545 152.420623 
L 259.607273 152.420524 
L 256 152.420425 
L 252.392727 152.420325 
L 248.785455 152.420225 
L 245.178182 152.420124 
L 241.570909 152.420024 
L 237.963636 152.419923 
L 234.356364 152.419821 
L 230.749091 152.41972 
L 227.141818 152.419618 
L 223.534545 152.419515 
L 219.927273 152.419413 
L 216.32 152.41931 
L 212.712727 152.419207 
L 209.105455 152.419103 
L 205.498182 152.418999 
L 201.890909 152.418895 
L 198.283636 152.41879 
L 194.676364 152.418685 
L 191.069091 152.41858 
L 187.461818 152.418475 
L 183.854545 152.418369 
L 180.247273 152.418263 
L 176.64 152.418156 
L 173.032727 152.418049 
L 169.425455 152.417942 
L 165.818182 152.417835 
L 162.210909 152.417727 
L 158.603636 152.417619 
L 154.996364 152.41751 
L 151.389091 152.417402 
L 147.781818 152.417293 
L 144.174545 152.417183 
L 140.567273 152.417073 
L 136.96 152.416963 
L 133.352727 152.416853 
L 129.745455 152.416742 
L 126.138182 152.416631 
L 122.530909 152.41652 
L 118.923636 152.416408 
L 115.316364 152.416296 
L 111.709091 152.416184 
L 108.101818 152.416072 
L 104.494545 152.415959 
L 100.887273 152.415845 
L 97.28 152.415732 
L 93.672727 152.415618 
L 90.065455 152.415504 
L 86.458182 152.415389 
L 82.850909 152.415274 
L 79.243636 152.415159 
L 75.636364 152.415044 
L 72.029091 152.414928 
L 68.421818 152.414812 
L 64.814545 152.414695 
L 61.207273 152.414578 
L 57.6 152.414461 
L 57.6 154.368 
L 57.6 157.056 
L 57.6 159.744 
L 57.6 162.432 
L 57.6 165.12 
L 57.6 167.808 
L 57.6 170.496 
L 57.6 173.184 
L 57.6 175.872 
L 57.6 178.56 
L 57.6 181.248 
L 57.6 183.936 
L 57.6 186.624 
L 57.6 189.312 
L 57.6 192 
L 57.6 193.441102 
z
" clip-path="url(#p750e9e943c)" style="fill: #21908d; fill-opacity: 0.75"/>
   </g>
   <g id="PathCollection_5">
    <path d="M 61.207273 152.414578 
L 64.814545 152.414695 
L 68.421818 152.414812 
L 72.029091 152.414928 
L 75.636364 152.415044 
L 79.243636 152.415159 
L 82.850909 152.415274 
L 86.458182 152.415389 
L 90.065455 152.415504 
L 93.672727 152.415618 
L 97.28 152.415732 
L 100.887273 152.415845 
L 104.494545 152.415959 
L 108.101818 152.416072 
L 111.709091 152.416184 
L 115.316364 152.416296 
L 118.923636 152.416408 
L 122.530909 152.41652 
L 126.138182 152.416631 
L 129.745455 152.416742 
L 133.352727 152.416853 
L 136.96 152.416963 
L 140.567273 152.417073 
L 144.174545 152.417183 
L 147.781818 152.417293 
L 151.389091 152.417402 
L 154.996364 152.41751 
L 158.603636 152.417619 
L 162.210909 152.417727 
L 165.818182 152.417835 
L 169.425455 152.417942 
L 173.032727 152.418049 
L 176.64 152.418156 
L 180.247273 152.418263 
L 183.854545 152.418369 
L 187.461818 152.418475 
L 191.069091 152.41858 
L 194.676364 152.418685 
L 198.283636 152.41879 
L 201.890909 152.418895 
L 205.498182 152.418999 
L 209.105455 152.419103 
L 212.712727 152.419207 
L 216.32 152.41931 
L 219.927273 152.419413 
L 223.534545 152.419515 
L 227.141818 152.419618 
L 230.749091 152.41972 
L 234.356364 152.419821 
L 237.963636 152.419923 
L 241.570909 152.420024 
L 245.178182 152.420124 
L 248.785455 152.420225 
L 252.392727 152.420325 
L 256 152.420425 
L 259.607273 152.420524 
L 263.214545 152.420623 
L 266.821818 152.420722 
L 270.429091 152.42082 
L 274.036364 152.420918 
L 277.643636 152.421016 
L 281.250909 152.421114 
L 284.858182 152.421211 
L 288.465455 152.421308 
L 292.072727 152.421404 
L 295.68 152.421501 
L 299.287273 152.421596 
L 302.894545 152.421692 
L 306.501818 152.421787 
L 310.109091 152.421882 
L 313.716364 152.421977 
L 317.323636 152.422071 
L 320.930909 152.422165 
L 324.538182 152.422259 
L 328.145455 152.422352 
L 331.752727 152.422445 
L 335.36 152.422537 
L 338.967273 152.42263 
L 342.574545 152.422722 
L 346.181818 152.422814 
L 349.789091 152.422905 
L 353.396364 152.422996 
L 357.003636 152.423087 
L 360.610909 152.423177 
L 364.218182 152.423267 
L 367.825455 152.423357 
L 371.432727 152.423446 
L 375.04 152.423536 
L 378.647273 152.423624 
L 382.254545 152.423713 
L 385.861818 152.423801 
L 389.469091 152.423889 
L 393.076364 152.423976 
L 396.683636 152.424064 
L 400.290909 152.42415 
L 403.898182 152.424237 
L 407.505455 152.424323 
L 411.112727 152.424409 
L 414.72 152.424495 
L 414.72 151.68 
L 414.72 148.992 
L 414.72 146.304 
L 414.72 143.616 
L 414.72 140.928 
L 414.72 138.24 
L 414.72 135.552 
L 414.72 132.864 
L 414.72 130.176 
L 414.72 127.488 
L 414.72 124.8 
L 414.72 122.112 
L 414.72 119.424 
L 414.72 116.736 
L 414.72 114.048 
L 414.72 111.485475 
L 411.112727 111.485391 
L 407.505455 111.485308 
L 403.898182 111.485224 
L 400.290909 111.485139 
L 396.683636 111.485055 
L 393.076364 111.48497 
L 389.469091 111.484884 
L 385.861818 111.484799 
L 382.254545 111.484712 
L 378.647273 111.484626 
L 375.04 111.484539 
L 371.432727 111.484452 
L 367.825455 111.484365 
L 364.218182 111.484277 
L 360.610909 111.484189 
L 357.003636 111.4841 
L 353.396364 111.484011 
L 349.789091 111.483922 
L 346.181818 111.483832 
L 342.574545 111.483742 
L 338.967273 111.483652 
L 335.36 111.483562 
L 331.752727 111.483471 
L 328.145455 111.483379 
L 324.538182 111.483287 
L 320.930909 111.483195 
L 317.323636 111.483103 
L 313.716364 111.48301 
L 310.109091 111.482917 
L 306.501818 111.482824 
L 302.894545 111.48273 
L 299.287273 111.482636 
L 295.68 111.482541 
L 292.072727 111.482446 
L 288.465455 111.482351 
L 284.858182 111.482256 
L 281.250909 111.48216 
L 277.643636 111.482063 
L 274.036364 111.481967 
L 270.429091 111.48187 
L 266.821818 111.481773 
L 263.214545 111.481675 
L 259.607273 111.481577 
L 256 111.481479 
L 252.392727 111.48138 
L 248.785455 111.481281 
L 245.178182 111.481181 
L 241.570909 111.481082 
L 237.963636 111.480981 
L 234.356364 111.480881 
L 230.749091 111.48078 
L 227.141818 111.480679 
L 223.534545 111.480577 
L 219.927273 111.480476 
L 216.32 111.480373 
L 212.712727 111.480271 
L 209.105455 111.480168 
L 205.498182 111.480065 
L 201.890909 111.479961 
L 198.283636 111.479857 
L 194.676364 111.479753 
L 191.069091 111.479648 
L 187.461818 111.479543 
L 183.854545 111.479437 
L 180.247273 111.479332 
L 176.64 111.479226 
L 173.032727 111.479119 
L 169.425455 111.479012 
L 165.818182 111.478905 
L 162.210909 111.478798 
L 158.603636 111.47869 
L 154.996364 111.478582 
L 151.389091 111.478473 
L 147.781818 111.478364 
L 144.174545 111.478255 
L 140.567273 111.478145 
L 136.96 111.478035 
L 133.352727 111.477925 
L 129.745455 111.477814 
L 126.138182 111.477703 
L 122.530909 111.477592 
L 118.923636 111.47748 
L 115.316364 111.477368 
L 111.709091 111.477256 
L 108.101818 111.477143 
L 104.494545 111.47703 
L 100.887273 111.476917 
L 97.28 111.476803 
L 93.672727 111.476689 
L 90.065455 111.476574 
L 86.458182 111.476459 
L 82.850909 111.476344 
L 79.243636 111.476228 
L 75.636364 111.476112 
L 72.029091 111.475996 
L 68.421818 111.47588 
L 64.814545 111.475763 
L 61.207273 111.475645 
L 57.6 111.475528 
L 57.6 114.048 
L 57.6 116.736 
L 57.6 119.424 
L 57.6 122.112 
L 57.6 124.8 
L 57.6 127.488 
L 57.6 130.176 
L 57.6 132.864 
L 57.6 135.552 
L 57.6 138.24 
L 57.6 140.928 
L 57.6 143.616 
L 57.6 146.304 
L 57.6 148.992 
L 57.6 151.68 
L 57.6 152.414461 
z
" clip-path="url(#p750e9e943c)" style="fill: #2db27d; fill-opacity: 0.75"/>
   </g>
   <g id="PathCollection_6">
    <path d="M 61.207273 111.475645 
L 64.814545 111.475763 
L 68.421818 111.47588 
L 72.029091 111.475996 
L 75.636364 111.476112 
L 79.243636 111.476228 
L 82.850909 111.476344 
L 86.458182 111.476459 
L 90.065455 111.476574 
L 93.672727 111.476689 
L 97.28 111.476803 
L 100.887273 111.476917 
L 104.494545 111.47703 
L 108.101818 111.477143 
L 111.709091 111.477256 
L 115.316364 111.477368 
L 118.923636 111.47748 
L 122.530909 111.477592 
L 126.138182 111.477703 
L 129.745455 111.477814 
L 133.352727 111.477925 
L 136.96 111.478035 
L 140.567273 111.478145 
L 144.174545 111.478255 
L 147.781818 111.478364 
L 151.389091 111.478473 
L 154.996364 111.478582 
L 158.603636 111.47869 
L 162.210909 111.478798 
L 165.818182 111.478905 
L 169.425455 111.479012 
L 173.032727 111.479119 
L 176.64 111.479226 
L 180.247273 111.479332 
L 183.854545 111.479437 
L 187.461818 111.479543 
L 191.069091 111.479648 
L 194.676364 111.479753 
L 198.283636 111.479857 
L 201.890909 111.479961 
L 205.498182 111.480065 
L 209.105455 111.480168 
L 212.712727 111.480271 
L 216.32 111.480373 
L 219.927273 111.480476 
L 223.534545 111.480577 
L 227.141818 111.480679 
L 230.749091 111.48078 
L 234.356364 111.480881 
L 237.963636 111.480981 
L 241.570909 111.481082 
L 245.178182 111.481181 
L 248.785455 111.481281 
L 252.392727 111.48138 
L 256 111.481479 
L 259.607273 111.481577 
L 263.214545 111.481675 
L 266.821818 111.481773 
L 270.429091 111.48187 
L 274.036364 111.481967 
L 277.643636 111.482063 
L 281.250909 111.48216 
L 284.858182 111.482256 
L 288.465455 111.482351 
L 292.072727 111.482446 
L 295.68 111.482541 
L 299.287273 111.482636 
L 302.894545 111.48273 
L 306.501818 111.482824 
L 310.109091 111.482917 
L 313.716364 111.48301 
L 317.323636 111.483103 
L 320.930909 111.483195 
L 324.538182 111.483287 
L 328.145455 111.483379 
L 331.752727 111.483471 
L 335.36 111.483562 
L 338.967273 111.483652 
L 342.574545 111.483742 
L 346.181818 111.483832 
L 349.789091 111.483922 
L 353.396364 111.484011 
L 357.003636 111.4841 
L 360.610909 111.484189 
L 364.218182 111.484277 
L 367.825455 111.484365 
L 371.432727 111.484452 
L 375.04 111.484539 
L 378.647273 111.484626 
L 382.254545 111.484712 
L 385.861818 111.484799 
L 389.469091 111.484884 
L 393.076364 111.48497 
L 396.683636 111.485055 
L 400.290909 111.485139 
L 403.898182 111.485224 
L 407.505455 111.485308 
L 411.112727 111.485391 
L 414.72 111.485475 
L 414.72 111.36 
L 414.72 108.672 
L 414.72 105.984 
L 414.72 103.296 
L 414.72 100.608 
L 414.72 97.92 
L 414.72 95.232 
L 414.72 92.544 
L 414.72 89.856 
L 414.72 87.168 
L 414.72 84.48 
L 414.72 81.792 
L 414.72 79.104 
L 414.72 76.416 
L 414.72 73.728 
L 414.72 71.04 
L 414.72 70.153272 
L 411.112727 70.15319 
L 407.505455 70.153108 
L 403.898182 70.153026 
L 400.290909 70.152943 
L 396.683636 70.15286 
L 393.076364 70.152777 
L 389.469091 70.152693 
L 385.861818 70.152609 
L 382.254545 70.152524 
L 378.647273 70.152439 
L 375.04 70.152353 
L 371.432727 70.152268 
L 367.825455 70.152181 
L 364.218182 70.152095 
L 360.610909 70.152008 
L 357.003636 70.15192 
L 353.396364 70.151833 
L 349.789091 70.151745 
L 346.181818 70.151656 
L 342.574545 70.151567 
L 338.967273 70.151478 
L 335.36 70.151388 
L 331.752727 70.151298 
L 328.145455 70.151208 
L 324.538182 70.151117 
L 320.930909 70.151026 
L 317.323636 70.150934 
L 313.716364 70.150842 
L 310.109091 70.15075 
L 306.501818 70.150657 
L 302.894545 70.150564 
L 299.287273 70.15047 
L 295.68 70.150376 
L 292.072727 70.150282 
L 288.465455 70.150187 
L 284.858182 70.150092 
L 281.250909 70.149997 
L 277.643636 70.149901 
L 274.036364 70.149805 
L 270.429091 70.149708 
L 266.821818 70.149611 
L 263.214545 70.149514 
L 259.607273 70.149416 
L 256 70.149318 
L 252.392727 70.149219 
L 248.785455 70.14912 
L 245.178182 70.149021 
L 241.570909 70.148921 
L 237.963636 70.148821 
L 234.356364 70.148721 
L 230.749091 70.14862 
L 227.141818 70.148519 
L 223.534545 70.148417 
L 219.927273 70.148315 
L 216.32 70.148213 
L 212.712727 70.14811 
L 209.105455 70.148007 
L 205.498182 70.147903 
L 201.890909 70.147799 
L 198.283636 70.147695 
L 194.676364 70.14759 
L 191.069091 70.147485 
L 187.461818 70.14738 
L 183.854545 70.147274 
L 180.247273 70.147168 
L 176.64 70.147061 
L 173.032727 70.146954 
L 169.425455 70.146846 
L 165.818182 70.146739 
L 162.210909 70.14663 
L 158.603636 70.146522 
L 154.996364 70.146413 
L 151.389091 70.146304 
L 147.781818 70.146194 
L 144.174545 70.146084 
L 140.567273 70.145973 
L 136.96 70.145862 
L 133.352727 70.145751 
L 129.745455 70.145639 
L 126.138182 70.145527 
L 122.530909 70.145415 
L 118.923636 70.145302 
L 115.316364 70.145189 
L 111.709091 70.145075 
L 108.101818 70.144961 
L 104.494545 70.144847 
L 100.887273 70.144732 
L 97.28 70.144617 
L 93.672727 70.144502 
L 90.065455 70.144386 
L 86.458182 70.144269 
L 82.850909 70.144153 
L 79.243636 70.144036 
L 75.636364 70.143918 
L 72.029091 70.1438 
L 68.421818 70.143682 
L 64.814545 70.143564 
L 61.207273 70.143445 
L 57.6 70.143325 
L 57.6 71.04 
L 57.6 73.728 
L 57.6 76.416 
L 57.6 79.104 
L 57.6 81.792 
L 57.6 84.48 
L 57.6 87.168 
L 57.6 89.856 
L 57.6 92.544 
L 57.6 95.232 
L 57.6 97.92 
L 57.6 100.608 
L 57.6 103.296 
L 57.6 105.984 
L 57.6 108.672 
L 57.6 111.36 
L 57.6 111.475528 
z
" clip-path="url(#p750e9e943c)" style="fill: #73d056; fill-opacity: 0.75"/>
   </g>
   <g id="PathCollection_7">
    <path d="M 61.207273 70.143445 
L 64.814545 70.143564 
L 68.421818 70.143682 
L 72.029091 70.1438 
L 75.636364 70.143918 
L 79.243636 70.144036 
L 82.850909 70.144153 
L 86.458182 70.144269 
L 90.065455 70.144386 
L 93.672727 70.144502 
L 97.28 70.144617 
L 100.887273 70.144732 
L 104.494545 70.144847 
L 108.101818 70.144961 
L 111.709091 70.145075 
L 115.316364 70.145189 
L 118.923636 70.145302 
L 122.530909 70.145415 
L 126.138182 70.145527 
L 129.745455 70.145639 
L 133.352727 70.145751 
L 136.96 70.145862 
L 140.567273 70.145973 
L 144.174545 70.146084 
L 147.781818 70.146194 
L 151.389091 70.146304 
L 154.996364 70.146413 
L 158.603636 70.146522 
L 162.210909 70.14663 
L 165.818182 70.146739 
L 169.425455 70.146846 
L 173.032727 70.146954 
L 176.64 70.147061 
L 180.247273 70.147168 
L 183.854545 70.147274 
L 187.461818 70.14738 
L 191.069091 70.147485 
L 194.676364 70.14759 
L 198.283636 70.147695 
L 201.890909 70.147799 
L 205.498182 70.147903 
L 209.105455 70.148007 
L 212.712727 70.14811 
L 216.32 70.148213 
L 219.927273 70.148315 
L 223.534545 70.148417 
L 227.141818 70.148519 
L 230.749091 70.14862 
L 234.356364 70.148721 
L 237.963636 70.148821 
L 241.570909 70.148921 
L 245.178182 70.149021 
L 248.785455 70.14912 
L 252.392727 70.149219 
L 256 70.149318 
L 259.607273 70.149416 
L 263.214545 70.149514 
L 266.821818 70.149611 
L 270.429091 70.149708 
L 274.036364 70.149805 
L 277.643636 70.149901 
L 281.250909 70.149997 
L 284.858182 70.150092 
L 288.465455 70.150187 
L 292.072727 70.150282 
L 295.68 70.150376 
L 299.287273 70.15047 
L 302.894545 70.150564 
L 306.501818 70.150657 
L 310.109091 70.15075 
L 313.716364 70.150842 
L 317.323636 70.150934 
L 320.930909 70.151026 
L 324.538182 70.151117 
L 328.145455 70.151208 
L 331.752727 70.151298 
L 335.36 70.151388 
L 338.967273 70.151478 
L 342.574545 70.151567 
L 346.181818 70.151656 
L 349.789091 70.151745 
L 353.396364 70.151833 
L 357.003636 70.15192 
L 360.610909 70.152008 
L 364.218182 70.152095 
L 367.825455 70.152181 
L 371.432727 70.152268 
L 375.04 70.152353 
L 378.647273 70.152439 
L 382.254545 70.152524 
L 385.861818 70.152609 
L 389.469091 70.152693 
L 393.076364 70.152777 
L 396.683636 70.15286 
L 400.290909 70.152943 
L 403.898182 70.153026 
L 407.505455 70.153108 
L 411.112727 70.15319 
L 414.72 70.153272 
L 414.72 68.352 
L 414.72 65.664 
L 414.72 62.976 
L 414.72 60.288 
L 414.72 57.6 
L 414.72 54.912 
L 414.72 52.224 
L 414.72 49.536 
L 414.72 46.848 
L 414.72 44.16 
L 414.72 41.472 
L 411.112727 41.472 
L 407.505455 41.472 
L 403.898182 41.472 
L 400.290909 41.472 
L 396.683636 41.472 
L 393.076364 41.472 
L 389.469091 41.472 
L 385.861818 41.472 
L 382.254545 41.472 
L 378.647273 41.472 
L 375.04 41.472 
L 371.432727 41.472 
L 367.825455 41.472 
L 364.218182 41.472 
L 360.610909 41.472 
L 357.003636 41.472 
L 353.396364 41.472 
L 349.789091 41.472 
L 346.181818 41.472 
L 342.574545 41.472 
L 338.967273 41.472 
L 335.36 41.472 
L 331.752727 41.472 
L 328.145455 41.472 
L 324.538182 41.472 
L 320.930909 41.472 
L 317.323636 41.472 
L 313.716364 41.472 
L 310.109091 41.472 
L 306.501818 41.472 
L 302.894545 41.472 
L 299.287273 41.472 
L 295.68 41.472 
L 292.072727 41.472 
L 288.465455 41.472 
L 284.858182 41.472 
L 281.250909 41.472 
L 277.643636 41.472 
L 274.036364 41.472 
L 270.429091 41.472 
L 266.821818 41.472 
L 263.214545 41.472 
L 259.607273 41.472 
L 256 41.472 
L 252.392727 41.472 
L 248.785455 41.472 
L 245.178182 41.472 
L 241.570909 41.472 
L 237.963636 41.472 
L 234.356364 41.472 
L 230.749091 41.472 
L 227.141818 41.472 
L 223.534545 41.472 
L 219.927273 41.472 
L 216.32 41.472 
L 212.712727 41.472 
L 209.105455 41.472 
L 205.498182 41.472 
L 201.890909 41.472 
L 198.283636 41.472 
L 194.676364 41.472 
L 191.069091 41.472 
L 187.461818 41.472 
L 183.854545 41.472 
L 180.247273 41.472 
L 176.64 41.472 
L 173.032727 41.472 
L 169.425455 41.472 
L 165.818182 41.472 
L 162.210909 41.472 
L 158.603636 41.472 
L 154.996364 41.472 
L 151.389091 41.472 
L 147.781818 41.472 
L 144.174545 41.472 
L 140.567273 41.472 
L 136.96 41.472 
L 133.352727 41.472 
L 129.745455 41.472 
L 126.138182 41.472 
L 122.530909 41.472 
L 118.923636 41.472 
L 115.316364 41.472 
L 111.709091 41.472 
L 108.101818 41.472 
L 104.494545 41.472 
L 100.887273 41.472 
L 97.28 41.472 
L 93.672727 41.472 
L 90.065455 41.472 
L 86.458182 41.472 
L 82.850909 41.472 
L 79.243636 41.472 
L 75.636364 41.472 
L 72.029091 41.472 
L 68.421818 41.472 
L 64.814545 41.472 
L 61.207273 41.472 
L 57.6 41.472 
L 57.6 44.16 
L 57.6 46.848 
L 57.6 49.536 
L 57.6 52.224 
L 57.6 54.912 
L 57.6 57.6 
L 57.6 60.288 
L 57.6 62.976 
L 57.6 65.664 
L 57.6 68.352 
L 57.6 70.143325 
z
" clip-path="url(#p750e9e943c)" style="fill: #d0e11c; fill-opacity: 0.75"/>
   </g>
   <g id="matplotlib.axis_1">
    <g id="xtick_1">
     <g id="line2d_1">
      <defs>
       <path id="md74b3a3b89" d="M 0 0 
L 0 3.5 
" style="stroke: #000000; stroke-width: 0.8"/>
      </defs>
      <g>
       <use xlink:href="#md74b3a3b89" x="63.755427" y="307.584" style="stroke: #000000; stroke-width: 0.8"/>
      </g>
     </g>
     <g id="text_1">
      <!-- 0.05 -->
      <g transform="translate(52.622615 322.182437) scale(0.1 -0.1)">
       <defs>
        <path id="DejaVuSans-30" d="M 2034 4250 
Q 1547 4250 1301 3770 
Q 1056 3291 1056 2328 
Q 1056 1369 1301 889 
Q 1547 409 2034 409 
Q 2525 409 2770 889 
Q 3016 1369 3016 2328 
Q 3016 3291 2770 3770 
Q 2525 4250 2034 4250 
z
M 2034 4750 
Q 2819 4750 3233 4129 
Q 3647 3509 3647 2328 
Q 3647 1150 3233 529 
Q 2819 -91 2034 -91 
Q 1250 -91 836 529 
Q 422 1150 422 2328 
Q 422 3509 836 4129 
Q 1250 4750 2034 4750 
z
" transform="scale(0.015625)"/>
        <path id="DejaVuSans-2e" d="M 684 794 
L 1344 794 
L 1344 0 
L 684 0 
L 684 794 
z
" transform="scale(0.015625)"/>
        <path id="DejaVuSans-35" d="M 691 4666 
L 3169 4666 
L 3169 4134 
L 1269 4134 
L 1269 2991 
Q 1406 3038 1543 3061 
Q 1681 3084 1819 3084 
Q 2600 3084 3056 2656 
Q 3513 2228 3513 1497 
Q 3513 744 3044 326 
Q 2575 -91 1722 -91 
Q 1428 -91 1123 -41 
Q 819 9 494 109 
L 494 744 
Q 775 591 1075 516 
Q 1375 441 1709 441 
Q 2250 441 2565 725 
Q 2881 1009 2881 1497 
Q 2881 1984 2565 2268 
Q 2250 2553 1709 2553 
Q 1456 2553 1204 2497 
Q 953 2441 691 2322 
L 691 4666 
z
" transform="scale(0.015625)"/>
       </defs>
       <use xlink:href="#DejaVuSans-30"/>
       <use xlink:href="#DejaVuSans-2e" x="63.623047"/>
       <use xlink:href="#DejaVuSans-30" x="95.410156"/>
       <use xlink:href="#DejaVuSans-35" x="159.033203"/>
      </g>
     </g>
    </g>
    <g id="xtick_2">
     <g id="line2d_2">
      <g>
       <use xlink:href="#md74b3a3b89" x="129.518539" y="307.584" style="stroke: #000000; stroke-width: 0.8"/>
      </g>
     </g>
     <g id="text_2">
      <!-- 0.10 -->
      <g transform="translate(118.385726 322.182437) scale(0.1 -0.1)">
       <defs>
        <path id="DejaVuSans-31" d="M 794 531 
L 1825 531 
L 1825 4091 
L 703 3866 
L 703 4441 
L 1819 4666 
L 2450 4666 
L 2450 531 
L 3481 531 
L 3481 0 
L 794 0 
L 794 531 
z
" transform="scale(0.015625)"/>
       </defs>
       <use xlink:href="#DejaVuSans-30"/>
       <use xlink:href="#DejaVuSans-2e" x="63.623047"/>
       <use xlink:href="#DejaVuSans-31" x="95.410156"/>
       <use xlink:href="#DejaVuSans-30" x="159.033203"/>
      </g>
     </g>
    </g>
    <g id="xtick_3">
     <g id="line2d_3">
      <g>
       <use xlink:href="#md74b3a3b89" x="195.28165" y="307.584" style="stroke: #000000; stroke-width: 0.8"/>
      </g>
     </g>
     <g id="text_3">
      <!-- 0.15 -->
      <g transform="translate(184.148837 322.182437) scale(0.1 -0.1)">
       <use xlink:href="#DejaVuSans-30"/>
       <use xlink:href="#DejaVuSans-2e" x="63.623047"/>
       <use xlink:href="#DejaVuSans-31" x="95.410156"/>
       <use xlink:href="#DejaVuSans-35" x="159.033203"/>
      </g>
     </g>
    </g>
    <g id="xtick_4">
     <g id="line2d_4">
      <g>
       <use xlink:href="#md74b3a3b89" x="261.044761" y="307.584" style="stroke: #000000; stroke-width: 0.8"/>
      </g>
     </g>
     <g id="text_4">
      <!-- 0.20 -->
      <g transform="translate(249.911949 322.182437) scale(0.1 -0.1)">
       <defs>
        <path id="DejaVuSans-32" d="M 1228 531 
L 3431 531 
L 3431 0 
L 469 0 
L 469 531 
Q 828 903 1448 1529 
Q 2069 2156 2228 2338 
Q 2531 2678 2651 2914 
Q 2772 3150 2772 3378 
Q 2772 3750 2511 3984 
Q 2250 4219 1831 4219 
Q 1534 4219 1204 4116 
Q 875 4013 500 3803 
L 500 4441 
Q 881 4594 1212 4672 
Q 1544 4750 1819 4750 
Q 2544 4750 2975 4387 
Q 3406 4025 3406 3419 
Q 3406 3131 3298 2873 
Q 3191 2616 2906 2266 
Q 2828 2175 2409 1742 
Q 1991 1309 1228 531 
z
" transform="scale(0.015625)"/>
       </defs>
       <use xlink:href="#DejaVuSans-30"/>
       <use xlink:href="#DejaVuSans-2e" x="63.623047"/>
       <use xlink:href="#DejaVuSans-32" x="95.410156"/>
       <use xlink:href="#DejaVuSans-30" x="159.033203"/>
      </g>
     </g>
    </g>
    <g id="xtick_5">
     <g id="line2d_5">
      <g>
       <use xlink:href="#md74b3a3b89" x="326.807873" y="307.584" style="stroke: #000000; stroke-width: 0.8"/>
      </g>
     </g>
     <g id="text_5">
      <!-- 0.25 -->
      <g transform="translate(315.67506 322.182437) scale(0.1 -0.1)">
       <use xlink:href="#DejaVuSans-30"/>
       <use xlink:href="#DejaVuSans-2e" x="63.623047"/>
       <use xlink:href="#DejaVuSans-32" x="95.410156"/>
       <use xlink:href="#DejaVuSans-35" x="159.033203"/>
      </g>
     </g>
    </g>
    <g id="xtick_6">
     <g id="line2d_6">
      <g>
       <use xlink:href="#md74b3a3b89" x="392.570984" y="307.584" style="stroke: #000000; stroke-width: 0.8"/>
      </g>
     </g>
     <g id="text_6">
      <!-- 0.30 -->
      <g transform="translate(381.438172 322.182437) scale(0.1 -0.1)">
       <defs>
        <path id="DejaVuSans-33" d="M 2597 2516 
Q 3050 2419 3304 2112 
Q 3559 1806 3559 1356 
Q 3559 666 3084 287 
Q 2609 -91 1734 -91 
Q 1441 -91 1130 -33 
Q 819 25 488 141 
L 488 750 
Q 750 597 1062 519 
Q 1375 441 1716 441 
Q 2309 441 2620 675 
Q 2931 909 2931 1356 
Q 2931 1769 2642 2001 
Q 2353 2234 1838 2234 
L 1294 2234 
L 1294 2753 
L 1863 2753 
Q 2328 2753 2575 2939 
Q 2822 3125 2822 3475 
Q 2822 3834 2567 4026 
Q 2313 4219 1838 4219 
Q 1578 4219 1281 4162 
Q 984 4106 628 3988 
L 628 4550 
Q 988 4650 1302 4700 
Q 1616 4750 1894 4750 
Q 2613 4750 3031 4423 
Q 3450 4097 3450 3541 
Q 3450 3153 3228 2886 
Q 3006 2619 2597 2516 
z
" transform="scale(0.015625)"/>
       </defs>
       <use xlink:href="#DejaVuSans-30"/>
       <use xlink:href="#DejaVuSans-2e" x="63.623047"/>
       <use xlink:href="#DejaVuSans-33" x="95.410156"/>
       <use xlink:href="#DejaVuSans-30" x="159.033203"/>
      </g>
     </g>
    </g>
    <g id="text_7">
     <!-- Obesity Rate -->
     <g transform="translate(204.008437 335.860562) scale(0.1 -0.1)">
      <defs>
       <path id="DejaVuSans-4f" d="M 2522 4238 
Q 1834 4238 1429 3725 
Q 1025 3213 1025 2328 
Q 1025 1447 1429 934 
Q 1834 422 2522 422 
Q 3209 422 3611 934 
Q 4013 1447 4013 2328 
Q 4013 3213 3611 3725 
Q 3209 4238 2522 4238 
z
M 2522 4750 
Q 3503 4750 4090 4092 
Q 4678 3434 4678 2328 
Q 4678 1225 4090 567 
Q 3503 -91 2522 -91 
Q 1538 -91 948 565 
Q 359 1222 359 2328 
Q 359 3434 948 4092 
Q 1538 4750 2522 4750 
z
" transform="scale(0.015625)"/>
       <path id="DejaVuSans-62" d="M 3116 1747 
Q 3116 2381 2855 2742 
Q 2594 3103 2138 3103 
Q 1681 3103 1420 2742 
Q 1159 2381 1159 1747 
Q 1159 1113 1420 752 
Q 1681 391 2138 391 
Q 2594 391 2855 752 
Q 3116 1113 3116 1747 
z
M 1159 2969 
Q 1341 3281 1617 3432 
Q 1894 3584 2278 3584 
Q 2916 3584 3314 3078 
Q 3713 2572 3713 1747 
Q 3713 922 3314 415 
Q 2916 -91 2278 -91 
Q 1894 -91 1617 61 
Q 1341 213 1159 525 
L 1159 0 
L 581 0 
L 581 4863 
L 1159 4863 
L 1159 2969 
z
" transform="scale(0.015625)"/>
       <path id="DejaVuSans-65" d="M 3597 1894 
L 3597 1613 
L 953 1613 
Q 991 1019 1311 708 
Q 1631 397 2203 397 
Q 2534 397 2845 478 
Q 3156 559 3463 722 
L 3463 178 
Q 3153 47 2828 -22 
Q 2503 -91 2169 -91 
Q 1331 -91 842 396 
Q 353 884 353 1716 
Q 353 2575 817 3079 
Q 1281 3584 2069 3584 
Q 2775 3584 3186 3129 
Q 3597 2675 3597 1894 
z
M 3022 2063 
Q 3016 2534 2758 2815 
Q 2500 3097 2075 3097 
Q 1594 3097 1305 2825 
Q 1016 2553 972 2059 
L 3022 2063 
z
" transform="scale(0.015625)"/>
       <path id="DejaVuSans-73" d="M 2834 3397 
L 2834 2853 
Q 2591 2978 2328 3040 
Q 2066 3103 1784 3103 
Q 1356 3103 1142 2972 
Q 928 2841 928 2578 
Q 928 2378 1081 2264 
Q 1234 2150 1697 2047 
L 1894 2003 
Q 2506 1872 2764 1633 
Q 3022 1394 3022 966 
Q 3022 478 2636 193 
Q 2250 -91 1575 -91 
Q 1294 -91 989 -36 
Q 684 19 347 128 
L 347 722 
Q 666 556 975 473 
Q 1284 391 1588 391 
Q 1994 391 2212 530 
Q 2431 669 2431 922 
Q 2431 1156 2273 1281 
Q 2116 1406 1581 1522 
L 1381 1569 
Q 847 1681 609 1914 
Q 372 2147 372 2553 
Q 372 3047 722 3315 
Q 1072 3584 1716 3584 
Q 2034 3584 2315 3537 
Q 2597 3491 2834 3397 
z
" transform="scale(0.015625)"/>
       <path id="DejaVuSans-69" d="M 603 3500 
L 1178 3500 
L 1178 0 
L 603 0 
L 603 3500 
z
M 603 4863 
L 1178 4863 
L 1178 4134 
L 603 4134 
L 603 4863 
z
" transform="scale(0.015625)"/>
       <path id="DejaVuSans-74" d="M 1172 4494 
L 1172 3500 
L 2356 3500 
L 2356 3053 
L 1172 3053 
L 1172 1153 
Q 1172 725 1289 603 
Q 1406 481 1766 481 
L 2356 481 
L 2356 0 
L 1766 0 
Q 1100 0 847 248 
Q 594 497 594 1153 
L 594 3053 
L 172 3053 
L 172 3500 
L 594 3500 
L 594 4494 
L 1172 4494 
z
" transform="scale(0.015625)"/>
       <path id="DejaVuSans-79" d="M 2059 -325 
Q 1816 -950 1584 -1140 
Q 1353 -1331 966 -1331 
L 506 -1331 
L 506 -850 
L 844 -850 
Q 1081 -850 1212 -737 
Q 1344 -625 1503 -206 
L 1606 56 
L 191 3500 
L 800 3500 
L 1894 763 
L 2988 3500 
L 3597 3500 
L 2059 -325 
z
" transform="scale(0.015625)"/>
       <path id="DejaVuSans-20" transform="scale(0.015625)"/>
       <path id="DejaVuSans-52" d="M 2841 2188 
Q 3044 2119 3236 1894 
Q 3428 1669 3622 1275 
L 4263 0 
L 3584 0 
L 2988 1197 
Q 2756 1666 2539 1819 
Q 2322 1972 1947 1972 
L 1259 1972 
L 1259 0 
L 628 0 
L 628 4666 
L 2053 4666 
Q 2853 4666 3247 4331 
Q 3641 3997 3641 3322 
Q 3641 2881 3436 2590 
Q 3231 2300 2841 2188 
z
M 1259 4147 
L 1259 2491 
L 2053 2491 
Q 2509 2491 2742 2702 
Q 2975 2913 2975 3322 
Q 2975 3731 2742 3939 
Q 2509 4147 2053 4147 
L 1259 4147 
z
" transform="scale(0.015625)"/>
       <path id="DejaVuSans-61" d="M 2194 1759 
Q 1497 1759 1228 1600 
Q 959 1441 959 1056 
Q 959 750 1161 570 
Q 1363 391 1709 391 
Q 2188 391 2477 730 
Q 2766 1069 2766 1631 
L 2766 1759 
L 2194 1759 
z
M 3341 1997 
L 3341 0 
L 2766 0 
L 2766 531 
Q 2569 213 2275 61 
Q 1981 -91 1556 -91 
Q 1019 -91 701 211 
Q 384 513 384 1019 
Q 384 1609 779 1909 
Q 1175 2209 1959 2209 
L 2766 2209 
L 2766 2266 
Q 2766 2663 2505 2880 
Q 2244 3097 1772 3097 
Q 1472 3097 1187 3025 
Q 903 2953 641 2809 
L 641 3341 
Q 956 3463 1253 3523 
Q 1550 3584 1831 3584 
Q 2591 3584 2966 3190 
Q 3341 2797 3341 1997 
z
" transform="scale(0.015625)"/>
      </defs>
      <use xlink:href="#DejaVuSans-4f"/>
      <use xlink:href="#DejaVuSans-62" x="78.710938"/>
      <use xlink:href="#DejaVuSans-65" x="142.1875"/>
      <use xlink:href="#DejaVuSans-73" x="203.710938"/>
      <use xlink:href="#DejaVuSans-69" x="255.810547"/>
      <use xlink:href="#DejaVuSans-74" x="283.59375"/>
      <use xlink:href="#DejaVuSans-79" x="322.802734"/>
      <use xlink:href="#DejaVuSans-20" x="381.982422"/>
      <use xlink:href="#DejaVuSans-52" x="413.769531"/>
      <use xlink:href="#DejaVuSans-61" x="481.001953"/>
      <use xlink:href="#DejaVuSans-74" x="542.28125"/>
      <use xlink:href="#DejaVuSans-65" x="581.490234"/>
     </g>
    </g>
   </g>
   <g id="matplotlib.axis_2">
    <g id="ytick_1">
     <g id="line2d_7">
      <defs>
       <path id="mf89bbd987b" d="M 0 0 
L -3.5 0 
" style="stroke: #000000; stroke-width: 0.8"/>
      </defs>
      <g>
       <use xlink:href="#mf89bbd987b" x="57.6" y="288.91184" style="stroke: #000000; stroke-width: 0.8"/>
      </g>
     </g>
     <g id="text_8">
      <!-- 5 -->
      <g transform="translate(44.2375 292.711059) scale(0.1 -0.1)">
       <use xlink:href="#DejaVuSans-35"/>
      </g>
     </g>
    </g>
    <g id="ytick_2">
     <g id="line2d_8">
      <g>
       <use xlink:href="#mf89bbd987b" x="57.6" y="258.745247" style="stroke: #000000; stroke-width: 0.8"/>
      </g>
     </g>
     <g id="text_9">
      <!-- 10 -->
      <g transform="translate(37.875 262.544466) scale(0.1 -0.1)">
       <use xlink:href="#DejaVuSans-31"/>
       <use xlink:href="#DejaVuSans-30" x="63.623047"/>
      </g>
     </g>
    </g>
    <g id="ytick_3">
     <g id="line2d_9">
      <g>
       <use xlink:href="#mf89bbd987b" x="57.6" y="228.578654" style="stroke: #000000; stroke-width: 0.8"/>
      </g>
     </g>
     <g id="text_10">
      <!-- 15 -->
      <g transform="translate(37.875 232.377872) scale(0.1 -0.1)">
       <use xlink:href="#DejaVuSans-31"/>
       <use xlink:href="#DejaVuSans-35" x="63.623047"/>
      </g>
     </g>
    </g>
    <g id="ytick_4">
     <g id="line2d_10">
      <g>
       <use xlink:href="#mf89bbd987b" x="57.6" y="198.41206" style="stroke: #000000; stroke-width: 0.8"/>
      </g>
     </g>
     <g id="text_11">
      <!-- 20 -->
      <g transform="translate(37.875 202.211279) scale(0.1 -0.1)">
       <use xlink:href="#DejaVuSans-32"/>
       <use xlink:href="#DejaVuSans-30" x="63.623047"/>
      </g>
     </g>
    </g>
    <g id="ytick_5">
     <g id="line2d_11">
      <g>
       <use xlink:href="#mf89bbd987b" x="57.6" y="168.245467" style="stroke: #000000; stroke-width: 0.8"/>
      </g>
     </g>
     <g id="text_12">
      <!-- 25 -->
      <g transform="translate(37.875 172.044686) scale(0.1 -0.1)">
       <use xlink:href="#DejaVuSans-32"/>
       <use xlink:href="#DejaVuSans-35" x="63.623047"/>
      </g>
     </g>
    </g>
    <g id="ytick_6">
     <g id="line2d_12">
      <g>
       <use xlink:href="#mf89bbd987b" x="57.6" y="138.078874" style="stroke: #000000; stroke-width: 0.8"/>
      </g>
     </g>
     <g id="text_13">
      <!-- 30 -->
      <g transform="translate(37.875 141.878092) scale(0.1 -0.1)">
       <use xlink:href="#DejaVuSans-33"/>
       <use xlink:href="#DejaVuSans-30" x="63.623047"/>
      </g>
     </g>
    </g>
    <g id="ytick_7">
     <g id="line2d_13">
      <g>
       <use xlink:href="#mf89bbd987b" x="57.6" y="107.91228" style="stroke: #000000; stroke-width: 0.8"/>
      </g>
     </g>
     <g id="text_14">
      <!-- 35 -->
      <g transform="translate(37.875 111.711499) scale(0.1 -0.1)">
       <use xlink:href="#DejaVuSans-33"/>
       <use xlink:href="#DejaVuSans-35" x="63.623047"/>
      </g>
     </g>
    </g>
    <g id="ytick_8">
     <g id="line2d_14">
      <g>
       <use xlink:href="#mf89bbd987b" x="57.6" y="77.745687" style="stroke: #000000; stroke-width: 0.8"/>
      </g>
     </g>
     <g id="text_15">
      <!-- 40 -->
      <g transform="translate(37.875 81.544906) scale(0.1 -0.1)">
       <defs>
        <path id="DejaVuSans-34" d="M 2419 4116 
L 825 1625 
L 2419 1625 
L 2419 4116 
z
M 2253 4666 
L 3047 4666 
L 3047 1625 
L 3713 1625 
L 3713 1100 
L 3047 1100 
L 3047 0 
L 2419 0 
L 2419 1100 
L 313 1100 
L 313 1709 
L 2253 4666 
z
" transform="scale(0.015625)"/>
       </defs>
       <use xlink:href="#DejaVuSans-34"/>
       <use xlink:href="#DejaVuSans-30" x="63.623047"/>
      </g>
     </g>
    </g>
    <g id="ytick_9">
     <g id="line2d_15">
      <g>
       <use xlink:href="#mf89bbd987b" x="57.6" y="47.579094" style="stroke: #000000; stroke-width: 0.8"/>
      </g>
     </g>
     <g id="text_16">
      <!-- 45 -->
      <g transform="translate(37.875 51.378312) scale(0.1 -0.1)">
       <use xlink:href="#DejaVuSans-34"/>
       <use xlink:href="#DejaVuSans-35" x="63.623047"/>
      </g>
     </g>
    </g>
    <g id="text_17">
     <!-- Fish &amp; Seafood Consumption -->
     <g transform="translate(31.795312 246.353) rotate(-90) scale(0.1 -0.1)">
      <defs>
       <path id="DejaVuSans-46" d="M 628 4666 
L 3309 4666 
L 3309 4134 
L 1259 4134 
L 1259 2759 
L 3109 2759 
L 3109 2228 
L 1259 2228 
L 1259 0 
L 628 0 
L 628 4666 
z
" transform="scale(0.015625)"/>
       <path id="DejaVuSans-68" d="M 3513 2113 
L 3513 0 
L 2938 0 
L 2938 2094 
Q 2938 2591 2744 2837 
Q 2550 3084 2163 3084 
Q 1697 3084 1428 2787 
Q 1159 2491 1159 1978 
L 1159 0 
L 581 0 
L 581 4863 
L 1159 4863 
L 1159 2956 
Q 1366 3272 1645 3428 
Q 1925 3584 2291 3584 
Q 2894 3584 3203 3211 
Q 3513 2838 3513 2113 
z
" transform="scale(0.015625)"/>
       <path id="DejaVuSans-26" d="M 1556 2509 
Q 1272 2256 1139 2004 
Q 1006 1753 1006 1478 
Q 1006 1022 1337 719 
Q 1669 416 2169 416 
Q 2466 416 2725 514 
Q 2984 613 3213 813 
L 1556 2509 
z
M 1997 2859 
L 3584 1234 
Q 3769 1513 3872 1830 
Q 3975 2147 3994 2503 
L 4575 2503 
Q 4538 2091 4375 1687 
Q 4213 1284 3922 891 
L 4794 0 
L 4006 0 
L 3559 459 
Q 3234 181 2878 45 
Q 2522 -91 2113 -91 
Q 1359 -91 881 339 
Q 403 769 403 1441 
Q 403 1841 612 2192 
Q 822 2544 1241 2853 
Q 1091 3050 1012 3245 
Q 934 3441 934 3628 
Q 934 4134 1281 4442 
Q 1628 4750 2203 4750 
Q 2463 4750 2720 4694 
Q 2978 4638 3244 4525 
L 3244 3956 
Q 2972 4103 2725 4179 
Q 2478 4256 2266 4256 
Q 1938 4256 1733 4082 
Q 1528 3909 1528 3634 
Q 1528 3475 1620 3314 
Q 1713 3153 1997 2859 
z
" transform="scale(0.015625)"/>
       <path id="DejaVuSans-53" d="M 3425 4513 
L 3425 3897 
Q 3066 4069 2747 4153 
Q 2428 4238 2131 4238 
Q 1616 4238 1336 4038 
Q 1056 3838 1056 3469 
Q 1056 3159 1242 3001 
Q 1428 2844 1947 2747 
L 2328 2669 
Q 3034 2534 3370 2195 
Q 3706 1856 3706 1288 
Q 3706 609 3251 259 
Q 2797 -91 1919 -91 
Q 1588 -91 1214 -16 
Q 841 59 441 206 
L 441 856 
Q 825 641 1194 531 
Q 1563 422 1919 422 
Q 2459 422 2753 634 
Q 3047 847 3047 1241 
Q 3047 1584 2836 1778 
Q 2625 1972 2144 2069 
L 1759 2144 
Q 1053 2284 737 2584 
Q 422 2884 422 3419 
Q 422 4038 858 4394 
Q 1294 4750 2059 4750 
Q 2388 4750 2728 4690 
Q 3069 4631 3425 4513 
z
" transform="scale(0.015625)"/>
       <path id="DejaVuSans-66" d="M 2375 4863 
L 2375 4384 
L 1825 4384 
Q 1516 4384 1395 4259 
Q 1275 4134 1275 3809 
L 1275 3500 
L 2222 3500 
L 2222 3053 
L 1275 3053 
L 1275 0 
L 697 0 
L 697 3053 
L 147 3053 
L 147 3500 
L 697 3500 
L 697 3744 
Q 697 4328 969 4595 
Q 1241 4863 1831 4863 
L 2375 4863 
z
" transform="scale(0.015625)"/>
       <path id="DejaVuSans-6f" d="M 1959 3097 
Q 1497 3097 1228 2736 
Q 959 2375 959 1747 
Q 959 1119 1226 758 
Q 1494 397 1959 397 
Q 2419 397 2687 759 
Q 2956 1122 2956 1747 
Q 2956 2369 2687 2733 
Q 2419 3097 1959 3097 
z
M 1959 3584 
Q 2709 3584 3137 3096 
Q 3566 2609 3566 1747 
Q 3566 888 3137 398 
Q 2709 -91 1959 -91 
Q 1206 -91 779 398 
Q 353 888 353 1747 
Q 353 2609 779 3096 
Q 1206 3584 1959 3584 
z
" transform="scale(0.015625)"/>
       <path id="DejaVuSans-64" d="M 2906 2969 
L 2906 4863 
L 3481 4863 
L 3481 0 
L 2906 0 
L 2906 525 
Q 2725 213 2448 61 
Q 2172 -91 1784 -91 
Q 1150 -91 751 415 
Q 353 922 353 1747 
Q 353 2572 751 3078 
Q 1150 3584 1784 3584 
Q 2172 3584 2448 3432 
Q 2725 3281 2906 2969 
z
M 947 1747 
Q 947 1113 1208 752 
Q 1469 391 1925 391 
Q 2381 391 2643 752 
Q 2906 1113 2906 1747 
Q 2906 2381 2643 2742 
Q 2381 3103 1925 3103 
Q 1469 3103 1208 2742 
Q 947 2381 947 1747 
z
" transform="scale(0.015625)"/>
       <path id="DejaVuSans-43" d="M 4122 4306 
L 4122 3641 
Q 3803 3938 3442 4084 
Q 3081 4231 2675 4231 
Q 1875 4231 1450 3742 
Q 1025 3253 1025 2328 
Q 1025 1406 1450 917 
Q 1875 428 2675 428 
Q 3081 428 3442 575 
Q 3803 722 4122 1019 
L 4122 359 
Q 3791 134 3420 21 
Q 3050 -91 2638 -91 
Q 1578 -91 968 557 
Q 359 1206 359 2328 
Q 359 3453 968 4101 
Q 1578 4750 2638 4750 
Q 3056 4750 3426 4639 
Q 3797 4528 4122 4306 
z
" transform="scale(0.015625)"/>
       <path id="DejaVuSans-6e" d="M 3513 2113 
L 3513 0 
L 2938 0 
L 2938 2094 
Q 2938 2591 2744 2837 
Q 2550 3084 2163 3084 
Q 1697 3084 1428 2787 
Q 1159 2491 1159 1978 
L 1159 0 
L 581 0 
L 581 3500 
L 1159 3500 
L 1159 2956 
Q 1366 3272 1645 3428 
Q 1925 3584 2291 3584 
Q 2894 3584 3203 3211 
Q 3513 2838 3513 2113 
z
" transform="scale(0.015625)"/>
       <path id="DejaVuSans-75" d="M 544 1381 
L 544 3500 
L 1119 3500 
L 1119 1403 
Q 1119 906 1312 657 
Q 1506 409 1894 409 
Q 2359 409 2629 706 
Q 2900 1003 2900 1516 
L 2900 3500 
L 3475 3500 
L 3475 0 
L 2900 0 
L 2900 538 
Q 2691 219 2414 64 
Q 2138 -91 1772 -91 
Q 1169 -91 856 284 
Q 544 659 544 1381 
z
M 1991 3584 
L 1991 3584 
z
" transform="scale(0.015625)"/>
       <path id="DejaVuSans-6d" d="M 3328 2828 
Q 3544 3216 3844 3400 
Q 4144 3584 4550 3584 
Q 5097 3584 5394 3201 
Q 5691 2819 5691 2113 
L 5691 0 
L 5113 0 
L 5113 2094 
Q 5113 2597 4934 2840 
Q 4756 3084 4391 3084 
Q 3944 3084 3684 2787 
Q 3425 2491 3425 1978 
L 3425 0 
L 2847 0 
L 2847 2094 
Q 2847 2600 2669 2842 
Q 2491 3084 2119 3084 
Q 1678 3084 1418 2786 
Q 1159 2488 1159 1978 
L 1159 0 
L 581 0 
L 581 3500 
L 1159 3500 
L 1159 2956 
Q 1356 3278 1631 3431 
Q 1906 3584 2284 3584 
Q 2666 3584 2933 3390 
Q 3200 3197 3328 2828 
z
" transform="scale(0.015625)"/>
       <path id="DejaVuSans-70" d="M 1159 525 
L 1159 -1331 
L 581 -1331 
L 581 3500 
L 1159 3500 
L 1159 2969 
Q 1341 3281 1617 3432 
Q 1894 3584 2278 3584 
Q 2916 3584 3314 3078 
Q 3713 2572 3713 1747 
Q 3713 922 3314 415 
Q 2916 -91 2278 -91 
Q 1894 -91 1617 61 
Q 1341 213 1159 525 
z
M 3116 1747 
Q 3116 2381 2855 2742 
Q 2594 3103 2138 3103 
Q 1681 3103 1420 2742 
Q 1159 2381 1159 1747 
Q 1159 1113 1420 752 
Q 1681 391 2138 391 
Q 2594 391 2855 752 
Q 3116 1113 3116 1747 
z
" transform="scale(0.015625)"/>
      </defs>
      <use xlink:href="#DejaVuSans-46"/>
      <use xlink:href="#DejaVuSans-69" x="50.269531"/>
      <use xlink:href="#DejaVuSans-73" x="78.052734"/>
      <use xlink:href="#DejaVuSans-68" x="130.152344"/>
      <use xlink:href="#DejaVuSans-20" x="193.53125"/>
      <use xlink:href="#DejaVuSans-26" x="225.318359"/>
      <use xlink:href="#DejaVuSans-20" x="303.296875"/>
      <use xlink:href="#DejaVuSans-53" x="335.083984"/>
      <use xlink:href="#DejaVuSans-65" x="398.560547"/>
      <use xlink:href="#DejaVuSans-61" x="460.083984"/>
      <use xlink:href="#DejaVuSans-66" x="521.363281"/>
      <use xlink:href="#DejaVuSans-6f" x="556.568359"/>
      <use xlink:href="#DejaVuSans-6f" x="617.75"/>
      <use xlink:href="#DejaVuSans-64" x="678.931641"/>
      <use xlink:href="#DejaVuSans-20" x="742.408203"/>
      <use xlink:href="#DejaVuSans-43" x="774.195312"/>
      <use xlink:href="#DejaVuSans-6f" x="844.019531"/>
      <use xlink:href="#DejaVuSans-6e" x="905.201172"/>
      <use xlink:href="#DejaVuSans-73" x="968.580078"/>
      <use xlink:href="#DejaVuSans-75" x="1020.679688"/>
      <use xlink:href="#DejaVuSans-6d" x="1084.058594"/>
      <use xlink:href="#DejaVuSans-70" x="1181.470703"/>
      <use xlink:href="#DejaVuSans-74" x="1244.947266"/>
      <use xlink:href="#DejaVuSans-69" x="1284.15625"/>
      <use xlink:href="#DejaVuSans-6f" x="1311.939453"/>
      <use xlink:href="#DejaVuSans-6e" x="1373.121094"/>
     </g>
    </g>
   </g>
   <g id="PathCollection_8"/>
   <g id="PathCollection_9">
    <path d="M 57.6 277.640884 
L 61.207273 277.641005 
L 64.814545 277.641125 
L 68.421818 277.641246 
L 72.029091 277.641365 
L 75.636364 277.641485 
L 79.243636 277.641604 
L 82.850909 277.641724 
L 86.458182 277.641842 
L 90.065455 277.641961 
L 93.672727 277.642079 
L 97.28 277.642198 
L 100.887273 277.642315 
L 104.494545 277.642433 
L 108.101818 277.64255 
L 111.709091 277.642667 
L 115.316364 277.642784 
L 118.923636 277.642901 
L 122.530909 277.643017 
L 126.138182 277.643133 
L 129.745455 277.643249 
L 133.352727 277.643365 
L 136.96 277.64348 
L 140.567273 277.643595 
L 144.174545 277.64371 
L 147.781818 277.643825 
L 151.389091 277.643939 
L 154.996364 277.644053 
L 158.603636 277.644167 
L 162.210909 277.644281 
L 165.818182 277.644394 
L 169.425455 277.644507 
L 173.032727 277.64462 
L 176.64 277.644733 
L 180.247273 277.644845 
L 183.854545 277.644957 
L 187.461818 277.645069 
L 191.069091 277.645181 
L 194.676364 277.645292 
L 198.283636 277.645403 
L 201.890909 277.645514 
L 205.498182 277.645625 
L 209.105455 277.645735 
L 212.712727 277.645845 
L 216.32 277.645955 
L 219.927273 277.646064 
L 223.534545 277.646174 
L 227.141818 277.646283 
L 230.749091 277.646392 
L 234.356364 277.6465 
L 237.963636 277.646609 
L 241.570909 277.646717 
L 245.178182 277.646825 
L 248.785455 277.646932 
L 248.866818 277.646935 
" clip-path="url(#p750e9e943c)" style="fill: none; stroke: #000000; stroke-width: 0.5"/>
    <path d="M 284.776818 277.647992 
L 284.858182 277.647994 
L 288.465455 277.648099 
L 292.072727 277.648204 
L 295.68 277.648308 
L 299.287273 277.648412 
L 302.894545 277.648516 
L 306.501818 277.64862 
L 310.109091 277.648723 
L 313.716364 277.648826 
L 317.323636 277.648929 
L 320.930909 277.649032 
L 324.538182 277.649134 
L 328.145455 277.649236 
L 331.752727 277.649338 
L 335.36 277.649439 
L 338.967273 277.649541 
L 342.574545 277.649642 
L 346.181818 277.649743 
L 349.789091 277.649843 
L 353.396364 277.649944 
L 357.003636 277.650044 
L 360.610909 277.650144 
L 364.218182 277.650243 
L 367.825455 277.650342 
L 371.432727 277.650442 
L 375.04 277.65054 
L 378.647273 277.650639 
L 382.254545 277.650737 
L 385.861818 277.650835 
L 389.469091 277.650933 
L 393.076364 277.651031 
L 396.683636 277.651128 
L 400.290909 277.651225 
L 403.898182 277.651322 
L 407.505455 277.651419 
L 411.112727 277.651515 
L 414.72 277.651611 
" clip-path="url(#p750e9e943c)" style="fill: none; stroke: #000000; stroke-width: 0.5"/>
   </g>
   <g id="PathCollection_10">
    <path d="M 57.6 235.019065 
L 61.207273 235.019184 
L 64.814545 235.019303 
L 68.421818 235.019421 
L 72.029091 235.019539 
L 75.636364 235.019656 
L 79.243636 235.019774 
L 82.850909 235.019891 
L 86.458182 235.020007 
L 90.065455 235.020124 
L 93.672727 235.02024 
L 97.28 235.020356 
L 100.887273 235.020472 
L 104.494545 235.020587 
L 108.101818 235.020702 
L 111.709091 235.020817 
L 115.316364 235.020932 
L 118.923636 235.021046 
L 122.530909 235.02116 
L 126.138182 235.021274 
L 129.745455 235.021388 
L 133.352727 235.021501 
L 136.96 235.021614 
L 140.567273 235.021726 
L 144.174545 235.021839 
L 147.781818 235.021951 
L 151.389091 235.022063 
L 154.996364 235.022175 
L 158.603636 235.022286 
L 162.210909 235.022397 
L 165.818182 235.022508 
L 169.425455 235.022618 
L 173.032727 235.022728 
L 176.64 235.022838 
L 180.247273 235.022948 
L 183.854545 235.023058 
L 187.461818 235.023167 
L 191.069091 235.023276 
L 194.676364 235.023384 
L 198.283636 235.023493 
L 201.890909 235.023601 
L 205.498182 235.023708 
L 209.105455 235.023816 
L 212.712727 235.023923 
L 216.32 235.02403 
L 219.927273 235.024137 
L 223.534545 235.024243 
L 227.141818 235.024349 
L 230.749091 235.024455 
L 234.356364 235.024561 
L 237.963636 235.024666 
L 241.570909 235.024771 
L 245.178182 235.024876 
L 248.785455 235.024981 
L 248.866818 235.024983 
" clip-path="url(#p750e9e943c)" style="fill: none; stroke: #000000; stroke-width: 0.5"/>
    <path d="M 284.776818 235.026009 
L 284.858182 235.026011 
L 288.465455 235.026113 
L 292.072727 235.026214 
L 295.68 235.026315 
L 299.287273 235.026415 
L 302.894545 235.026516 
L 306.501818 235.026616 
L 310.109091 235.026716 
L 313.716364 235.026816 
L 317.323636 235.026915 
L 320.930909 235.027014 
L 324.538182 235.027113 
L 328.145455 235.027211 
L 331.752727 235.02731 
L 335.36 235.027408 
L 338.967273 235.027505 
L 342.574545 235.027603 
L 346.181818 235.0277 
L 349.789091 235.027797 
L 353.396364 235.027893 
L 357.003636 235.02799 
L 360.610909 235.028086 
L 364.218182 235.028182 
L 367.825455 235.028277 
L 371.432727 235.028373 
L 375.04 235.028468 
L 378.647273 235.028562 
L 382.254545 235.028657 
L 385.861818 235.028751 
L 389.469091 235.028845 
L 393.076364 235.028938 
L 396.683636 235.029032 
L 400.290909 235.029125 
L 403.898182 235.029218 
L 407.505455 235.02931 
L 411.112727 235.029402 
L 414.72 235.029494 
" clip-path="url(#p750e9e943c)" style="fill: none; stroke: #000000; stroke-width: 0.5"/>
   </g>
   <g id="PathCollection_11">
    <path d="M 57.6 193.441102 
L 61.207273 193.441219 
L 64.814545 193.441336 
L 68.421818 193.441453 
L 72.029091 193.441569 
L 75.636364 193.441686 
L 79.243636 193.441802 
L 82.850909 193.441917 
L 86.458182 193.442033 
L 90.065455 193.442148 
L 93.672727 193.442262 
L 97.28 193.442377 
L 100.887273 193.442491 
L 104.494545 193.442605 
L 108.101818 193.442718 
L 108.183182 193.442721 
" clip-path="url(#p750e9e943c)" style="fill: none; stroke: #000000; stroke-width: 0.5"/>
    <path d="M 144.093182 193.443835 
L 144.174545 193.443838 
L 147.781818 193.443948 
L 151.389091 193.444058 
L 154.996364 193.444168 
L 158.603636 193.444277 
L 162.210909 193.444386 
L 165.818182 193.444495 
L 169.425455 193.444604 
L 173.032727 193.444712 
L 176.64 193.44482 
L 180.247273 193.444927 
L 183.854545 193.445035 
L 187.461818 193.445142 
L 191.069091 193.445249 
L 194.676364 193.445355 
L 198.283636 193.445461 
L 201.890909 193.445567 
L 205.498182 193.445673 
L 209.105455 193.445778 
L 212.712727 193.445883 
L 216.32 193.445988 
L 219.927273 193.446092 
L 223.534545 193.446196 
L 227.141818 193.4463 
L 230.749091 193.446403 
L 234.356364 193.446507 
L 237.963636 193.44661 
L 241.570909 193.446712 
L 245.178182 193.446815 
L 248.785455 193.446917 
L 252.392727 193.447018 
L 256 193.44712 
L 259.607273 193.447221 
L 263.214545 193.447322 
L 266.821818 193.447422 
L 270.429091 193.447523 
L 274.036364 193.447623 
L 277.643636 193.447722 
L 281.250909 193.447822 
L 284.858182 193.447921 
L 288.465455 193.448019 
L 292.072727 193.448118 
L 295.68 193.448216 
L 299.287273 193.448314 
L 302.894545 193.448412 
L 306.501818 193.448509 
L 310.109091 193.448606 
L 313.716364 193.448703 
L 317.323636 193.448799 
L 320.930909 193.448895 
L 324.538182 193.448991 
L 328.145455 193.449087 
L 331.752727 193.449182 
L 335.36 193.449277 
L 338.967273 193.449371 
L 342.574545 193.449466 
L 346.181818 193.44956 
L 349.789091 193.449654 
L 353.396364 193.449747 
L 357.003636 193.44984 
L 360.610909 193.449933 
L 364.218182 193.450026 
L 367.825455 193.450118 
L 371.432727 193.45021 
L 375.04 193.450302 
L 378.647273 193.450393 
L 382.254545 193.450484 
L 385.861818 193.450575 
L 389.469091 193.450665 
L 393.076364 193.450756 
L 396.683636 193.450845 
L 400.290909 193.450935 
L 403.898182 193.451024 
L 407.505455 193.451113 
L 411.112727 193.451202 
L 414.72 193.451291 
" clip-path="url(#p750e9e943c)" style="fill: none; stroke: #000000; stroke-width: 0.5"/>
   </g>
   <g id="PathCollection_12">
    <path d="M 57.6 152.414461 
L 61.207273 152.414578 
L 64.814545 152.414695 
L 68.421818 152.414812 
L 72.029091 152.414928 
L 75.636364 152.415044 
L 79.243636 152.415159 
L 82.850909 152.415274 
L 86.458182 152.415389 
L 90.065455 152.415504 
L 93.672727 152.415618 
L 97.28 152.415732 
L 100.887273 152.415845 
L 104.494545 152.415959 
L 108.101818 152.416072 
L 108.183182 152.416074 
" clip-path="url(#p750e9e943c)" style="fill: none; stroke: #000000; stroke-width: 0.5"/>
    <path d="M 144.093182 152.417181 
L 144.174545 152.417183 
L 147.781818 152.417293 
L 151.389091 152.417402 
L 154.996364 152.41751 
L 158.603636 152.417619 
L 162.210909 152.417727 
L 165.818182 152.417835 
L 169.425455 152.417942 
L 173.032727 152.418049 
L 176.64 152.418156 
L 180.247273 152.418263 
L 183.854545 152.418369 
L 187.461818 152.418475 
L 191.069091 152.41858 
L 194.676364 152.418685 
L 198.283636 152.41879 
L 201.890909 152.418895 
L 205.498182 152.418999 
L 209.105455 152.419103 
L 212.712727 152.419207 
L 216.32 152.41931 
L 219.927273 152.419413 
L 223.534545 152.419515 
L 227.141818 152.419618 
L 230.749091 152.41972 
L 234.356364 152.419821 
L 237.963636 152.419923 
L 241.570909 152.420024 
L 245.178182 152.420124 
L 248.785455 152.420225 
L 252.392727 152.420325 
L 256 152.420425 
L 259.607273 152.420524 
L 263.214545 152.420623 
L 266.821818 152.420722 
L 270.429091 152.42082 
L 274.036364 152.420918 
L 277.643636 152.421016 
L 281.250909 152.421114 
L 284.858182 152.421211 
L 288.465455 152.421308 
L 292.072727 152.421404 
L 295.68 152.421501 
L 299.287273 152.421596 
L 302.894545 152.421692 
L 306.501818 152.421787 
L 310.109091 152.421882 
L 313.716364 152.421977 
L 317.323636 152.422071 
L 320.930909 152.422165 
L 324.538182 152.422259 
L 328.145455 152.422352 
L 331.752727 152.422445 
L 335.36 152.422537 
L 338.967273 152.42263 
L 342.574545 152.422722 
L 346.181818 152.422814 
L 349.789091 152.422905 
L 353.396364 152.422996 
L 357.003636 152.423087 
L 360.610909 152.423177 
L 364.218182 152.423267 
L 367.825455 152.423357 
L 371.432727 152.423446 
L 375.04 152.423536 
L 378.647273 152.423624 
L 382.254545 152.423713 
L 385.861818 152.423801 
L 389.469091 152.423889 
L 393.076364 152.423976 
L 396.683636 152.424064 
L 400.290909 152.42415 
L 403.898182 152.424237 
L 407.505455 152.424323 
L 411.112727 152.424409 
L 414.72 152.424495 
" clip-path="url(#p750e9e943c)" style="fill: none; stroke: #000000; stroke-width: 0.5"/>
   </g>
   <g id="PathCollection_13">
    <path d="M 57.6 111.475528 
L 61.207273 111.475645 
L 64.814545 111.475763 
L 68.421818 111.47588 
L 72.029091 111.475996 
L 75.636364 111.476112 
L 79.243636 111.476228 
L 82.850909 111.476344 
L 86.458182 111.476459 
L 90.065455 111.476574 
L 93.672727 111.476689 
L 97.28 111.476803 
L 100.887273 111.476917 
L 104.494545 111.47703 
L 108.101818 111.477143 
L 108.183182 111.477146 
" clip-path="url(#p750e9e943c)" style="fill: none; stroke: #000000; stroke-width: 0.5"/>
    <path d="M 144.093182 111.478252 
L 144.174545 111.478255 
L 147.781818 111.478364 
L 151.389091 111.478473 
L 154.996364 111.478582 
L 158.603636 111.47869 
L 162.210909 111.478798 
L 165.818182 111.478905 
L 169.425455 111.479012 
L 173.032727 111.479119 
L 176.64 111.479226 
L 180.247273 111.479332 
L 183.854545 111.479437 
L 187.461818 111.479543 
L 191.069091 111.479648 
L 194.676364 111.479753 
L 198.283636 111.479857 
L 201.890909 111.479961 
L 205.498182 111.480065 
L 209.105455 111.480168 
L 212.712727 111.480271 
L 216.32 111.480373 
L 219.927273 111.480476 
L 223.534545 111.480577 
L 227.141818 111.480679 
L 230.749091 111.48078 
L 234.356364 111.480881 
L 237.963636 111.480981 
L 241.570909 111.481082 
L 245.178182 111.481181 
L 248.785455 111.481281 
L 252.392727 111.48138 
L 256 111.481479 
L 259.607273 111.481577 
L 263.214545 111.481675 
L 266.821818 111.481773 
L 270.429091 111.48187 
L 274.036364 111.481967 
L 277.643636 111.482063 
L 281.250909 111.48216 
L 284.858182 111.482256 
L 288.465455 111.482351 
L 292.072727 111.482446 
L 295.68 111.482541 
L 299.287273 111.482636 
L 302.894545 111.48273 
L 306.501818 111.482824 
L 310.109091 111.482917 
L 313.716364 111.48301 
L 317.323636 111.483103 
L 320.930909 111.483195 
L 324.538182 111.483287 
L 328.145455 111.483379 
L 331.752727 111.483471 
L 335.36 111.483562 
L 338.967273 111.483652 
L 342.574545 111.483742 
L 346.181818 111.483832 
L 349.789091 111.483922 
L 353.396364 111.484011 
L 357.003636 111.4841 
L 360.610909 111.484189 
L 364.218182 111.484277 
L 367.825455 111.484365 
L 371.432727 111.484452 
L 375.04 111.484539 
L 378.647273 111.484626 
L 382.254545 111.484712 
L 385.861818 111.484799 
L 389.469091 111.484884 
L 393.076364 111.48497 
L 396.683636 111.485055 
L 400.290909 111.485139 
L 403.898182 111.485224 
L 407.505455 111.485308 
L 411.112727 111.485391 
L 414.72 111.485475 
" clip-path="url(#p750e9e943c)" style="fill: none; stroke: #000000; stroke-width: 0.5"/>
   </g>
   <g id="PathCollection_14">
    <path d="M 57.6 70.143325 
L 61.207273 70.143445 
L 64.814545 70.143564 
L 68.421818 70.143682 
L 72.029091 70.1438 
L 75.636364 70.143918 
L 79.243636 70.144036 
L 82.850909 70.144153 
L 86.458182 70.144269 
L 90.065455 70.144386 
L 93.672727 70.144502 
L 97.28 70.144617 
L 100.887273 70.144732 
L 104.494545 70.144847 
L 108.101818 70.144961 
L 108.183182 70.144964 
" clip-path="url(#p750e9e943c)" style="fill: none; stroke: #000000; stroke-width: 0.5"/>
    <path d="M 144.093182 70.146081 
L 144.174545 70.146084 
L 147.781818 70.146194 
L 151.389091 70.146304 
L 154.996364 70.146413 
L 158.603636 70.146522 
L 162.210909 70.14663 
L 165.818182 70.146739 
L 169.425455 70.146846 
L 173.032727 70.146954 
L 176.64 70.147061 
L 180.247273 70.147168 
L 183.854545 70.147274 
L 187.461818 70.14738 
L 191.069091 70.147485 
L 194.676364 70.14759 
L 198.283636 70.147695 
L 201.890909 70.147799 
L 205.498182 70.147903 
L 209.105455 70.148007 
L 212.712727 70.14811 
L 216.32 70.148213 
L 219.927273 70.148315 
L 223.534545 70.148417 
L 227.141818 70.148519 
L 230.749091 70.14862 
L 234.356364 70.148721 
L 237.963636 70.148821 
L 241.570909 70.148921 
L 245.178182 70.149021 
L 248.785455 70.14912 
L 252.392727 70.149219 
L 256 70.149318 
L 259.607273 70.149416 
L 263.214545 70.149514 
L 266.821818 70.149611 
L 270.429091 70.149708 
L 274.036364 70.149805 
L 277.643636 70.149901 
L 281.250909 70.149997 
L 284.858182 70.150092 
L 288.465455 70.150187 
L 292.072727 70.150282 
L 295.68 70.150376 
L 299.287273 70.15047 
L 302.894545 70.150564 
L 306.501818 70.150657 
L 310.109091 70.15075 
L 313.716364 70.150842 
L 317.323636 70.150934 
L 320.930909 70.151026 
L 324.538182 70.151117 
L 328.145455 70.151208 
L 331.752727 70.151298 
L 335.36 70.151388 
L 338.967273 70.151478 
L 342.574545 70.151567 
L 346.181818 70.151656 
L 349.789091 70.151745 
L 353.396364 70.151833 
L 357.003636 70.15192 
L 360.610909 70.152008 
L 364.218182 70.152095 
L 367.825455 70.152181 
L 371.432727 70.152268 
L 375.04 70.152353 
L 378.647273 70.152439 
L 382.254545 70.152524 
L 385.861818 70.152609 
L 389.469091 70.152693 
L 393.076364 70.152777 
L 396.683636 70.15286 
L 400.290909 70.152943 
L 403.898182 70.153026 
L 407.505455 70.153108 
L 411.112727 70.15319 
L 414.72 70.153272 
" clip-path="url(#p750e9e943c)" style="fill: none; stroke: #000000; stroke-width: 0.5"/>
   </g>
   <g id="PathCollection_15"/>
   <g id="LineCollection_1">
    <path d="M 70.331738 307.584 
L 70.331738 294.2784 
" clip-path="url(#p750e9e943c)" style="fill: none; stroke: #000000; stroke-width: 1.5"/>
    <path d="M 99.846223 307.584 
L 99.846223 294.2784 
" clip-path="url(#p750e9e943c)" style="fill: none; stroke: #000000; stroke-width: 1.5"/>
    <path d="M 129.465928 307.584 
L 129.465928 294.2784 
" clip-path="url(#p750e9e943c)" style="fill: none; stroke: #000000; stroke-width: 1.5"/>
    <path d="M 223.533483 307.584 
L 223.533483 294.2784 
" clip-path="url(#p750e9e943c)" style="fill: none; stroke: #000000; stroke-width: 1.5"/>
    <path d="M 263.675286 307.584 
L 263.675286 294.2784 
" clip-path="url(#p750e9e943c)" style="fill: none; stroke: #000000; stroke-width: 1.5"/>
    <path d="M 284.088156 307.584 
L 284.088156 294.2784 
" clip-path="url(#p750e9e943c)" style="fill: none; stroke: #000000; stroke-width: 1.5"/>
    <path d="M 301.81789 307.584 
L 301.81789 294.2784 
" clip-path="url(#p750e9e943c)" style="fill: none; stroke: #000000; stroke-width: 1.5"/>
    <path d="M 335.435993 307.584 
L 335.435993 294.2784 
" clip-path="url(#p750e9e943c)" style="fill: none; stroke: #000000; stroke-width: 1.5"/>
    <path d="M 378.208321 307.584 
L 378.208321 294.2784 
" clip-path="url(#p750e9e943c)" style="fill: none; stroke: #000000; stroke-width: 1.5"/>
   </g>
   <g id="LineCollection_2">
    <path clip-path="url(#p750e9e943c)" style="fill: none; stroke: #000000; stroke-width: 1.5"/>
    <path clip-path="url(#p750e9e943c)" style="fill: none; stroke: #000000; stroke-width: 1.5"/>
    <path clip-path="url(#p750e9e943c)" style="fill: none; stroke: #000000; stroke-width: 1.5"/>
    <path clip-path="url(#p750e9e943c)" style="fill: none; stroke: #000000; stroke-width: 1.5"/>
    <path clip-path="url(#p750e9e943c)" style="fill: none; stroke: #000000; stroke-width: 1.5"/>
    <path clip-path="url(#p750e9e943c)" style="fill: none; stroke: #000000; stroke-width: 1.5"/>
    <path clip-path="url(#p750e9e943c)" style="fill: none; stroke: #000000; stroke-width: 1.5"/>
    <path clip-path="url(#p750e9e943c)" style="fill: none; stroke: #000000; stroke-width: 1.5"/>
    <path clip-path="url(#p750e9e943c)" style="fill: none; stroke: #000000; stroke-width: 1.5"/>
   </g>
   <g id="patch_3">
    <path d="M 57.6 307.584 
L 57.6 41.472 
" style="fill: none; stroke: #000000; stroke-width: 0.8; stroke-linejoin: miter; stroke-linecap: square"/>
   </g>
   <g id="patch_4">
    <path d="M 414.72 307.584 
L 414.72 41.472 
" style="fill: none; stroke: #000000; stroke-width: 0.8; stroke-linejoin: miter; stroke-linecap: square"/>
   </g>
   <g id="patch_5">
    <path d="M 57.6 307.584 
L 414.72 307.584 
" style="fill: none; stroke: #000000; stroke-width: 0.8; stroke-linejoin: miter; stroke-linecap: square"/>
   </g>
   <g id="patch_6">
    <path d="M 57.6 41.472 
L 414.72 41.472 
" style="fill: none; stroke: #000000; stroke-width: 0.8; stroke-linejoin: miter; stroke-linecap: square"/>
   </g>
   <g id="text_18">
    <!-- 2D-partial dependency plot between Obesity and Fish -->
    <g transform="translate(74.578125 35.472) scale(0.12 -0.12)">
     <defs>
      <path id="DejaVuSans-44" d="M 1259 4147 
L 1259 519 
L 2022 519 
Q 2988 519 3436 956 
Q 3884 1394 3884 2338 
Q 3884 3275 3436 3711 
Q 2988 4147 2022 4147 
L 1259 4147 
z
M 628 4666 
L 1925 4666 
Q 3281 4666 3915 4102 
Q 4550 3538 4550 2338 
Q 4550 1131 3912 565 
Q 3275 0 1925 0 
L 628 0 
L 628 4666 
z
" transform="scale(0.015625)"/>
      <path id="DejaVuSans-2d" d="M 313 2009 
L 1997 2009 
L 1997 1497 
L 313 1497 
L 313 2009 
z
" transform="scale(0.015625)"/>
      <path id="DejaVuSans-72" d="M 2631 2963 
Q 2534 3019 2420 3045 
Q 2306 3072 2169 3072 
Q 1681 3072 1420 2755 
Q 1159 2438 1159 1844 
L 1159 0 
L 581 0 
L 581 3500 
L 1159 3500 
L 1159 2956 
Q 1341 3275 1631 3429 
Q 1922 3584 2338 3584 
Q 2397 3584 2469 3576 
Q 2541 3569 2628 3553 
L 2631 2963 
z
" transform="scale(0.015625)"/>
      <path id="DejaVuSans-6c" d="M 603 4863 
L 1178 4863 
L 1178 0 
L 603 0 
L 603 4863 
z
" transform="scale(0.015625)"/>
      <path id="DejaVuSans-63" d="M 3122 3366 
L 3122 2828 
Q 2878 2963 2633 3030 
Q 2388 3097 2138 3097 
Q 1578 3097 1268 2742 
Q 959 2388 959 1747 
Q 959 1106 1268 751 
Q 1578 397 2138 397 
Q 2388 397 2633 464 
Q 2878 531 3122 666 
L 3122 134 
Q 2881 22 2623 -34 
Q 2366 -91 2075 -91 
Q 1284 -91 818 406 
Q 353 903 353 1747 
Q 353 2603 823 3093 
Q 1294 3584 2113 3584 
Q 2378 3584 2631 3529 
Q 2884 3475 3122 3366 
z
" transform="scale(0.015625)"/>
      <path id="DejaVuSans-77" d="M 269 3500 
L 844 3500 
L 1563 769 
L 2278 3500 
L 2956 3500 
L 3675 769 
L 4391 3500 
L 4966 3500 
L 4050 0 
L 3372 0 
L 2619 2869 
L 1863 0 
L 1184 0 
L 269 3500 
z
" transform="scale(0.015625)"/>
     </defs>
     <use xlink:href="#DejaVuSans-32"/>
     <use xlink:href="#DejaVuSans-44" x="63.623047"/>
     <use xlink:href="#DejaVuSans-2d" x="140.625"/>
     <use xlink:href="#DejaVuSans-70" x="176.708984"/>
     <use xlink:href="#DejaVuSans-61" x="240.185547"/>
     <use xlink:href="#DejaVuSans-72" x="301.464844"/>
     <use xlink:href="#DejaVuSans-74" x="342.578125"/>
     <use xlink:href="#DejaVuSans-69" x="381.787109"/>
     <use xlink:href="#DejaVuSans-61" x="409.570312"/>
     <use xlink:href="#DejaVuSans-6c" x="470.849609"/>
     <use xlink:href="#DejaVuSans-20" x="498.632812"/>
     <use xlink:href="#DejaVuSans-64" x="530.419922"/>
     <use xlink:href="#DejaVuSans-65" x="593.896484"/>
     <use xlink:href="#DejaVuSans-70" x="655.419922"/>
     <use xlink:href="#DejaVuSans-65" x="718.896484"/>
     <use xlink:href="#DejaVuSans-6e" x="780.419922"/>
     <use xlink:href="#DejaVuSans-64" x="843.798828"/>
     <use xlink:href="#DejaVuSans-65" x="907.275391"/>
     <use xlink:href="#DejaVuSans-6e" x="968.798828"/>
     <use xlink:href="#DejaVuSans-63" x="1032.177734"/>
     <use xlink:href="#DejaVuSans-79" x="1087.158203"/>
     <use xlink:href="#DejaVuSans-20" x="1146.337891"/>
     <use xlink:href="#DejaVuSans-70" x="1178.125"/>
     <use xlink:href="#DejaVuSans-6c" x="1241.601562"/>
     <use xlink:href="#DejaVuSans-6f" x="1269.384766"/>
     <use xlink:href="#DejaVuSans-74" x="1330.566406"/>
     <use xlink:href="#DejaVuSans-20" x="1369.775391"/>
     <use xlink:href="#DejaVuSans-62" x="1401.5625"/>
     <use xlink:href="#DejaVuSans-65" x="1465.039062"/>
     <use xlink:href="#DejaVuSans-74" x="1526.5625"/>
     <use xlink:href="#DejaVuSans-77" x="1565.771484"/>
     <use xlink:href="#DejaVuSans-65" x="1647.558594"/>
     <use xlink:href="#DejaVuSans-65" x="1709.082031"/>
     <use xlink:href="#DejaVuSans-6e" x="1770.605469"/>
     <use xlink:href="#DejaVuSans-20" x="1833.984375"/>
     <use xlink:href="#DejaVuSans-4f" x="1865.771484"/>
     <use xlink:href="#DejaVuSans-62" x="1944.482422"/>
     <use xlink:href="#DejaVuSans-65" x="2007.958984"/>
     <use xlink:href="#DejaVuSans-73" x="2069.482422"/>
     <use xlink:href="#DejaVuSans-69" x="2121.582031"/>
     <use xlink:href="#DejaVuSans-74" x="2149.365234"/>
     <use xlink:href="#DejaVuSans-79" x="2188.574219"/>
     <use xlink:href="#DejaVuSans-20" x="2247.753906"/>
     <use xlink:href="#DejaVuSans-61" x="2279.541016"/>
     <use xlink:href="#DejaVuSans-6e" x="2340.820312"/>
     <use xlink:href="#DejaVuSans-64" x="2404.199219"/>
     <use xlink:href="#DejaVuSans-20" x="2467.675781"/>
     <use xlink:href="#DejaVuSans-46" x="2499.462891"/>
     <use xlink:href="#DejaVuSans-69" x="2549.732422"/>
     <use xlink:href="#DejaVuSans-73" x="2577.515625"/>
     <use xlink:href="#DejaVuSans-68" x="2629.615234"/>
    </g>
   </g>
   <g id="text_19">
    <g clip-path="url(#p750e9e943c)">
     <!-- 10.36 -->
     <g transform="translate(252.507674 280.40642) rotate(-359.998313) scale(0.1 -0.1)">
      <defs>
       <path id="DejaVuSans-36" d="M 2113 2584 
Q 1688 2584 1439 2293 
Q 1191 2003 1191 1497 
Q 1191 994 1439 701 
Q 1688 409 2113 409 
Q 2538 409 2786 701 
Q 3034 994 3034 1497 
Q 3034 2003 2786 2293 
Q 2538 2584 2113 2584 
z
M 3366 4563 
L 3366 3988 
Q 3128 4100 2886 4159 
Q 2644 4219 2406 4219 
Q 1781 4219 1451 3797 
Q 1122 3375 1075 2522 
Q 1259 2794 1537 2939 
Q 1816 3084 2150 3084 
Q 2853 3084 3261 2657 
Q 3669 2231 3669 1497 
Q 3669 778 3244 343 
Q 2819 -91 2113 -91 
Q 1303 -91 875 529 
Q 447 1150 447 2328 
Q 447 3434 972 4092 
Q 1497 4750 2381 4750 
Q 2619 4750 2861 4703 
Q 3103 4656 3366 4563 
z
" transform="scale(0.015625)"/>
      </defs>
      <use xlink:href="#DejaVuSans-31"/>
      <use xlink:href="#DejaVuSans-30" x="63.623047"/>
      <use xlink:href="#DejaVuSans-2e" x="127.246094"/>
      <use xlink:href="#DejaVuSans-33" x="159.033203"/>
      <use xlink:href="#DejaVuSans-36" x="222.65625"/>
     </g>
    </g>
   </g>
   <g id="text_20">
    <g clip-path="url(#p750e9e943c)">
     <!-- 10.57 -->
     <g transform="translate(252.507677 237.784465) rotate(-359.998364) scale(0.1 -0.1)">
      <defs>
       <path id="DejaVuSans-37" d="M 525 4666 
L 3525 4666 
L 3525 4397 
L 1831 0 
L 1172 0 
L 2766 4134 
L 525 4134 
L 525 4666 
z
" transform="scale(0.015625)"/>
      </defs>
      <use xlink:href="#DejaVuSans-31"/>
      <use xlink:href="#DejaVuSans-30" x="63.623047"/>
      <use xlink:href="#DejaVuSans-2e" x="127.246094"/>
      <use xlink:href="#DejaVuSans-35" x="159.033203"/>
      <use xlink:href="#DejaVuSans-37" x="222.65625"/>
     </g>
    </g>
   </g>
   <g id="text_21">
    <g clip-path="url(#p750e9e943c)">
     <!-- 10.79 -->
     <g transform="translate(111.824034 196.202213) rotate(-359.998222) scale(0.1 -0.1)">
      <defs>
       <path id="DejaVuSans-39" d="M 703 97 
L 703 672 
Q 941 559 1184 500 
Q 1428 441 1663 441 
Q 2288 441 2617 861 
Q 2947 1281 2994 2138 
Q 2813 1869 2534 1725 
Q 2256 1581 1919 1581 
Q 1219 1581 811 2004 
Q 403 2428 403 3163 
Q 403 3881 828 4315 
Q 1253 4750 1959 4750 
Q 2769 4750 3195 4129 
Q 3622 3509 3622 2328 
Q 3622 1225 3098 567 
Q 2575 -91 1691 -91 
Q 1453 -91 1209 -44 
Q 966 3 703 97 
z
M 1959 2075 
Q 2384 2075 2632 2365 
Q 2881 2656 2881 3163 
Q 2881 3666 2632 3958 
Q 2384 4250 1959 4250 
Q 1534 4250 1286 3958 
Q 1038 3666 1038 3163 
Q 1038 2656 1286 2365 
Q 1534 2075 1959 2075 
z
" transform="scale(0.015625)"/>
      </defs>
      <use xlink:href="#DejaVuSans-31"/>
      <use xlink:href="#DejaVuSans-30" x="63.623047"/>
      <use xlink:href="#DejaVuSans-2e" x="127.246094"/>
      <use xlink:href="#DejaVuSans-37" x="159.033203"/>
      <use xlink:href="#DejaVuSans-39" x="222.65625"/>
     </g>
    </g>
   </g>
   <g id="text_22">
    <g clip-path="url(#p750e9e943c)">
     <!-- 11.00 -->
     <g transform="translate(111.824034 155.175565) rotate(-359.998234) scale(0.1 -0.1)">
      <use xlink:href="#DejaVuSans-31"/>
      <use xlink:href="#DejaVuSans-31" x="63.623047"/>
      <use xlink:href="#DejaVuSans-2e" x="127.246094"/>
      <use xlink:href="#DejaVuSans-30" x="159.033203"/>
      <use xlink:href="#DejaVuSans-30" x="222.65625"/>
     </g>
    </g>
   </g>
   <g id="text_23">
    <g clip-path="url(#p750e9e943c)">
     <!-- 11.21 -->
     <g transform="translate(111.824034 114.236637) rotate(-359.998234) scale(0.1 -0.1)">
      <use xlink:href="#DejaVuSans-31"/>
      <use xlink:href="#DejaVuSans-31" x="63.623047"/>
      <use xlink:href="#DejaVuSans-2e" x="127.246094"/>
      <use xlink:href="#DejaVuSans-32" x="159.033203"/>
      <use xlink:href="#DejaVuSans-31" x="222.65625"/>
     </g>
    </g>
   </g>
   <g id="text_24">
    <g clip-path="url(#p750e9e943c)">
     <!-- 11.42 -->
     <g transform="translate(111.824033 72.904457) rotate(-359.998217) scale(0.1 -0.1)">
      <use xlink:href="#DejaVuSans-31"/>
      <use xlink:href="#DejaVuSans-31" x="63.623047"/>
      <use xlink:href="#DejaVuSans-2e" x="127.246094"/>
      <use xlink:href="#DejaVuSans-34" x="159.033203"/>
      <use xlink:href="#DejaVuSans-32" x="222.65625"/>
     </g>
    </g>
   </g>
  </g>
 </g>
 <defs>
  <clipPath id="p750e9e943c">
   <rect x="57.6" y="41.472" width="357.12" height="266.112"/>
  </clipPath>
 </defs>
</svg>
