<?xml version="1.0" encoding="utf-8" standalone="no"?>
<!DOCTYPE svg PUBLIC "-//W3C//DTD SVG 1.1//EN"
  "http://www.w3.org/Graphics/SVG/1.1/DTD/svg11.dtd">
<svg xmlns:xlink="http://www.w3.org/1999/xlink" width="460.8pt" height="345.6pt" viewBox="0 0 460.8 345.6" xmlns="http://www.w3.org/2000/svg" version="1.1">
 <metadata>
  <rdf:RDF xmlns:dc="http://purl.org/dc/elements/1.1/" xmlns:cc="http://creativecommons.org/ns#" xmlns:rdf="http://www.w3.org/1999/02/22-rdf-syntax-ns#">
   <cc:Work>
    <dc:type rdf:resource="http://purl.org/dc/dcmitype/StillImage"/>
    <dc:date>2024-04-22T00:57:05.079219</dc:date>
    <dc:format>image/svg+xml</dc:format>
    <dc:creator>
     <cc:Agent>
      <dc:title>Matplotlib v3.7.0, https://matplotlib.org/</dc:title>
     </cc:Agent>
    </dc:creator>
   </cc:Work>
  </rdf:RDF>
 </metadata>
 <defs>
  <style type="text/css">*{stroke-linejoin: round; stroke-linecap: butt}</style>
 </defs>
 <g id="figure_1">
  <g id="patch_1">
   <path d="M 0 345.6 
L 460.8 345.6 
L 460.8 0 
L 0 0 
L 0 345.6 
z
" style="fill: none"/>
  </g>
  <g id="axes_1"/>
  <g id="axes_2">
   <g id="patch_2">
    <path d="M 57.6 307.584 
L 414.72 307.584 
L 414.72 41.472 
L 57.6 41.472 
L 57.6 307.584 
z
" style="fill: none"/>
   </g>
   <g id="PathCollection_1">
    <path d="M 349.789091 307.584 
L 353.396364 307.584 
L 357.003636 307.584 
L 360.610909 307.584 
L 364.218182 307.584 
L 367.825455 307.584 
L 371.432727 307.584 
L 375.04 307.584 
L 378.647273 307.584 
L 382.254545 307.584 
L 385.861818 307.584 
L 389.469091 307.584 
L 393.076364 307.584 
L 396.683636 307.584 
L 400.290909 307.584 
L 403.898182 307.584 
L 407.505455 307.584 
L 411.112727 307.584 
L 414.72 307.584 
L 414.72 304.896 
L 414.72 302.208 
L 414.72 299.52 
L 414.72 296.832 
L 414.72 294.144 
L 414.72 291.456 
L 414.72 288.768 
L 414.72 286.08 
L 414.72 283.392 
L 414.72 280.704 
L 414.72 278.016 
L 414.72 275.328 
L 414.72 272.64 
L 414.72 269.952 
L 414.72 267.264 
L 414.72 264.576 
L 414.72 261.888 
L 414.72 259.2 
L 414.72 256.512 
L 414.72 253.824 
L 414.72 251.136 
L 414.72 248.448 
L 414.72 245.76 
L 414.72 243.072 
L 414.72 240.384 
L 414.72 237.696 
L 414.72 235.008 
L 414.72 232.32 
L 414.72 229.632 
L 414.72 226.944 
L 414.72 225.076771 
L 413.243646 226.944 
L 411.11463 229.632 
L 411.112727 229.6344 
L 408.987056 232.32 
L 407.505455 234.188655 
L 406.856781 235.008 
L 404.726131 237.696 
L 403.898182 238.739165 
L 402.594586 240.384 
L 400.460868 243.072 
L 400.290909 243.28592 
L 398.328039 245.76 
L 396.683636 247.829228 
L 396.192582 248.448 
L 394.05714 251.136 
L 393.076364 252.368898 
L 391.920387 253.824 
L 389.781889 256.512 
L 389.469091 256.904811 
L 387.643826 259.2 
L 385.861818 261.437208 
L 385.503209 261.888 
L 383.362899 264.576 
L 382.254545 265.966073 
L 381.22096 267.264 
L 379.077609 269.952 
L 378.647273 270.49118 
L 376.934333 272.64 
L 375.04 275.012709 
L 374.788576 275.328 
L 372.643328 278.016 
L 371.432727 279.530807 
L 370.496222 280.704 
L 368.34795 283.392 
L 367.825455 284.045148 
L 366.19948 286.08 
L 364.218182 288.555857 
L 364.0486 288.768 
L 361.898352 291.456 
L 360.610909 293.063231 
L 359.746097 294.144 
L 357.592843 296.832 
L 357.003636 297.566848 
L 355.439197 299.52 
L 353.396364 302.066793 
L 353.283211 302.208 
L 351.127905 304.896 
L 349.789091 306.563486 
L 348.970516 307.584 
z
" clip-path="url(#p8a35bfff18)" style="fill: #481b6d; fill-opacity: 0.75"/>
   </g>
   <g id="PathCollection_2">
    <path d="M 259.607273 307.584 
L 263.214545 307.584 
L 266.821818 307.584 
L 270.429091 307.584 
L 274.036364 307.584 
L 277.643636 307.584 
L 281.250909 307.584 
L 284.858182 307.584 
L 288.465455 307.584 
L 292.072727 307.584 
L 295.68 307.584 
L 299.287273 307.584 
L 302.894545 307.584 
L 306.501818 307.584 
L 310.109091 307.584 
L 313.716364 307.584 
L 317.323636 307.584 
L 320.930909 307.584 
L 324.538182 307.584 
L 328.145455 307.584 
L 331.752727 307.584 
L 335.36 307.584 
L 338.967273 307.584 
L 342.574545 307.584 
L 346.181818 307.584 
L 348.970516 307.584 
L 349.789091 306.563486 
L 351.127905 304.896 
L 353.283211 302.208 
L 353.396364 302.066793 
L 355.439197 299.52 
L 357.003636 297.566848 
L 357.592843 296.832 
L 359.746097 294.144 
L 360.610909 293.063231 
L 361.898352 291.456 
L 364.0486 288.768 
L 364.218182 288.555857 
L 366.19948 286.08 
L 367.825455 284.045148 
L 368.34795 283.392 
L 370.496222 280.704 
L 371.432727 279.530807 
L 372.643328 278.016 
L 374.788576 275.328 
L 375.04 275.012709 
L 376.934333 272.64 
L 378.647273 270.49118 
L 379.077609 269.952 
L 381.22096 267.264 
L 382.254545 265.966073 
L 383.362899 264.576 
L 385.503209 261.888 
L 385.861818 261.437208 
L 387.643826 259.2 
L 389.469091 256.904811 
L 389.781889 256.512 
L 391.920387 253.824 
L 393.076364 252.368898 
L 394.05714 251.136 
L 396.192582 248.448 
L 396.683636 247.829228 
L 398.328039 245.76 
L 400.290909 243.28592 
L 400.460868 243.072 
L 402.594586 240.384 
L 403.898182 238.739165 
L 404.726131 237.696 
L 406.856781 235.008 
L 407.505455 234.188655 
L 408.987056 232.32 
L 411.112727 229.6344 
L 411.11463 229.632 
L 413.243646 226.944 
L 414.72 225.076771 
L 414.72 224.256 
L 414.72 221.568 
L 414.72 218.88 
L 414.72 216.192 
L 414.72 213.504 
L 414.72 210.816 
L 414.72 208.128 
L 414.72 205.44 
L 414.72 202.752 
L 414.72 200.064 
L 414.72 197.376 
L 414.72 194.688 
L 414.72 192 
L 414.72 189.312 
L 414.72 186.624 
L 414.72 183.936 
L 414.72 181.248 
L 414.72 178.56 
L 414.72 175.872 
L 414.72 173.184 
L 414.72 170.496 
L 414.72 167.808 
L 414.72 165.12 
L 414.72 162.432 
L 414.72 159.744 
L 414.72 157.056 
L 414.72 154.368 
L 414.72 151.68 
L 414.72 148.992 
L 414.72 146.304 
L 414.72 143.616 
L 414.72 140.928 
L 414.72 138.24 
L 414.72 135.552 
L 414.72 132.864 
L 414.72 130.176 
L 414.72 127.488 
L 414.72 124.8 
L 414.72 122.112 
L 414.72 119.424 
L 414.72 116.736 
L 414.72 114.048 
L 414.72 111.36 
L 414.72 108.672 
L 414.72 105.984 
L 414.72 105.808076 
L 414.587095 105.984 
L 412.553868 108.672 
L 411.112727 110.573604 
L 410.517504 111.36 
L 408.479981 114.048 
L 407.505455 115.331521 
L 406.440401 116.736 
L 404.398582 119.424 
L 403.898182 120.081849 
L 402.355775 122.112 
L 400.309663 124.8 
L 400.290909 124.824609 
L 398.263617 127.488 
L 396.683636 129.55979 
L 396.214236 130.176 
L 394.163917 132.864 
L 393.076364 134.287464 
L 392.111297 135.552 
L 390.056664 138.24 
L 389.469091 139.007651 
L 388.000794 140.928 
L 385.94185 143.616 
L 385.861818 143.72037 
L 383.882717 146.304 
L 382.254545 148.425645 
L 381.820355 148.992 
L 379.757057 151.68 
L 378.647273 153.123512 
L 377.691428 154.368 
L 375.623803 157.056 
L 375.04 157.813987 
L 373.554896 159.744 
L 371.482948 162.432 
L 371.432727 162.497087 
L 369.410747 165.12 
L 367.825455 167.172873 
L 367.335417 167.808 
L 365.258973 170.496 
L 364.218182 171.841344 
L 363.180345 173.184 
L 361.099565 175.872 
L 360.610909 176.502513 
L 359.017624 178.56 
L 357.003636 181.156402 
L 356.932641 181.248 
L 354.847244 183.936 
L 353.396364 185.803104 
L 352.758941 186.624 
L 350.669197 189.312 
L 349.789091 190.442571 
L 348.577558 192 
L 346.483473 194.688 
L 346.181818 195.074815 
L 344.388483 197.376 
L 342.574545 199.699913 
L 342.29054 200.064 
L 340.191708 202.752 
L 338.967273 204.3179 
L 338.090403 205.44 
L 335.987222 208.128 
L 335.36 208.928728 
L 333.88254 210.816 
L 331.775018 213.504 
L 331.752727 213.532407 
L 329.666942 216.192 
L 328.145455 218.129124 
L 327.555996 218.88 
L 325.443601 221.568 
L 324.538182 222.718747 
L 323.329248 224.256 
L 321.212508 226.944 
L 320.930909 227.301279 
L 319.094731 229.632 
L 317.323636 231.87685 
L 316.974158 232.32 
L 314.852437 235.008 
L 313.716364 236.445471 
L 312.728425 237.696 
L 310.602357 240.384 
L 310.109091 241.007055 
L 308.474889 243.072 
L 306.501818 245.561672 
L 306.344694 245.76 
L 304.213541 248.448 
L 302.894545 250.109485 
L 302.079873 251.136 
L 299.944374 253.824 
L 299.287273 254.650312 
L 297.807215 256.512 
L 295.68 259.184164 
L 295.667396 259.2 
L 293.52671 261.888 
L 292.072727 263.711356 
L 291.383382 264.576 
L 289.238353 267.264 
L 288.465455 268.23161 
L 287.091495 269.952 
L 284.942136 272.64 
L 284.858182 272.744928 
L 282.791728 275.328 
L 281.250909 277.251636 
L 280.638725 278.016 
L 278.484075 280.704 
L 277.643636 281.751491 
L 276.327501 283.392 
L 274.168528 286.08 
L 274.036364 286.244452 
L 272.008364 288.768 
L 270.429091 290.730857 
L 269.845664 291.456 
L 267.681307 294.144 
L 266.821818 295.21048 
L 265.514994 296.832 
L 263.346324 299.52 
L 263.214545 299.683246 
L 261.176376 302.208 
L 259.607273 304.149536 
L 259.003948 304.896 
L 256.829806 307.584 
z
" clip-path="url(#p8a35bfff18)" style="fill: #3f4788; fill-opacity: 0.75"/>
   </g>
   <g id="PathCollection_3">
    <path d="M 169.425455 307.584 
L 173.032727 307.584 
L 176.64 307.584 
L 180.247273 307.584 
L 183.854545 307.584 
L 187.461818 307.584 
L 191.069091 307.584 
L 194.676364 307.584 
L 198.283636 307.584 
L 201.890909 307.584 
L 205.498182 307.584 
L 209.105455 307.584 
L 212.712727 307.584 
L 216.32 307.584 
L 219.927273 307.584 
L 223.534545 307.584 
L 227.141818 307.584 
L 230.749091 307.584 
L 234.356364 307.584 
L 237.963636 307.584 
L 241.570909 307.584 
L 245.178182 307.584 
L 248.785455 307.584 
L 252.392727 307.584 
L 256 307.584 
L 256.829806 307.584 
L 259.003948 304.896 
L 259.607273 304.149536 
L 261.176376 302.208 
L 263.214545 299.683246 
L 263.346324 299.52 
L 265.514994 296.832 
L 266.821818 295.21048 
L 267.681307 294.144 
L 269.845664 291.456 
L 270.429091 290.730857 
L 272.008364 288.768 
L 274.036364 286.244452 
L 274.168528 286.08 
L 276.327501 283.392 
L 277.643636 281.751491 
L 278.484075 280.704 
L 280.638725 278.016 
L 281.250909 277.251636 
L 282.791728 275.328 
L 284.858182 272.744928 
L 284.942136 272.64 
L 287.091495 269.952 
L 288.465455 268.23161 
L 289.238353 267.264 
L 291.383382 264.576 
L 292.072727 263.711356 
L 293.52671 261.888 
L 295.667396 259.2 
L 295.68 259.184164 
L 297.807215 256.512 
L 299.287273 254.650312 
L 299.944374 253.824 
L 302.079873 251.136 
L 302.894545 250.109485 
L 304.213541 248.448 
L 306.344694 245.76 
L 306.501818 245.561672 
L 308.474889 243.072 
L 310.109091 241.007055 
L 310.602357 240.384 
L 312.728425 237.696 
L 313.716364 236.445471 
L 314.852437 235.008 
L 316.974158 232.32 
L 317.323636 231.87685 
L 319.094731 229.632 
L 320.930909 227.301279 
L 321.212508 226.944 
L 323.329248 224.256 
L 324.538182 222.718747 
L 325.443601 221.568 
L 327.555996 218.88 
L 328.145455 218.129124 
L 329.666942 216.192 
L 331.752727 213.532407 
L 331.775018 213.504 
L 333.88254 210.816 
L 335.36 208.928728 
L 335.987222 208.128 
L 338.090403 205.44 
L 338.967273 204.3179 
L 340.191708 202.752 
L 342.29054 200.064 
L 342.574545 199.699913 
L 344.388483 197.376 
L 346.181818 195.074815 
L 346.483473 194.688 
L 348.577558 192 
L 349.789091 190.442571 
L 350.669197 189.312 
L 352.758941 186.624 
L 353.396364 185.803104 
L 354.847244 183.936 
L 356.932641 181.248 
L 357.003636 181.156402 
L 359.017624 178.56 
L 360.610909 176.502513 
L 361.099565 175.872 
L 363.180345 173.184 
L 364.218182 171.841344 
L 365.258973 170.496 
L 367.335417 167.808 
L 367.825455 167.172873 
L 369.410747 165.12 
L 371.432727 162.497087 
L 371.482948 162.432 
L 373.554896 159.744 
L 375.04 157.813987 
L 375.623803 157.056 
L 377.691428 154.368 
L 378.647273 153.123512 
L 379.757057 151.68 
L 381.820355 148.992 
L 382.254545 148.425645 
L 383.882717 146.304 
L 385.861818 143.72037 
L 385.94185 143.616 
L 388.000794 140.928 
L 389.469091 139.007651 
L 390.056664 138.24 
L 392.111297 135.552 
L 393.076364 134.287464 
L 394.163917 132.864 
L 396.214236 130.176 
L 396.683636 129.55979 
L 398.263617 127.488 
L 400.290909 124.824609 
L 400.309663 124.8 
L 402.355775 122.112 
L 403.898182 120.081849 
L 404.398582 119.424 
L 406.440401 116.736 
L 407.505455 115.331521 
L 408.479981 114.048 
L 410.517504 111.36 
L 411.112727 110.573604 
L 412.553868 108.672 
L 414.587095 105.984 
L 414.72 105.808076 
L 414.72 103.296 
L 414.72 100.608 
L 414.72 97.92 
L 414.72 95.232 
L 414.72 92.544 
L 414.72 89.856 
L 414.72 87.168 
L 414.72 84.48 
L 414.72 81.792 
L 414.72 79.104 
L 414.72 76.416 
L 414.72 73.728 
L 414.72 71.04 
L 414.72 68.352 
L 414.72 65.664 
L 414.72 62.976 
L 414.72 60.288 
L 414.72 57.6 
L 414.72 54.912 
L 414.72 52.224 
L 414.72 49.536 
L 414.72 46.848 
L 414.72 44.16 
L 414.72 41.472 
L 411.112727 41.472 
L 407.505455 41.472 
L 403.898182 41.472 
L 400.290909 41.472 
L 396.683636 41.472 
L 393.076364 41.472 
L 389.469091 41.472 
L 385.861818 41.472 
L 382.254545 41.472 
L 378.647273 41.472 
L 375.04 41.472 
L 374.558953 41.472 
L 372.590679 44.16 
L 371.432727 45.738533 
L 370.619426 46.848 
L 368.645732 49.536 
L 367.825455 50.651315 
L 366.669559 52.224 
L 364.690436 54.912 
L 364.218182 55.552457 
L 362.70933 57.6 
L 360.724773 60.288 
L 360.610909 60.442021 
L 358.73872 62.976 
L 357.003636 65.319916 
L 356.74907 65.664 
L 354.757707 68.352 
L 353.396364 70.186294 
L 352.76311 71.04 
L 350.766271 73.728 
L 349.789091 75.041285 
L 348.76671 76.416 
L 346.764391 79.104 
L 346.181818 79.884947 
L 344.759851 81.792 
L 342.752046 84.48 
L 342.574545 84.717334 
L 340.742509 87.168 
L 338.967273 89.538386 
L 338.729499 89.856 
L 336.714662 92.544 
L 335.36 94.348198 
L 334.696649 95.232 
L 332.676289 97.92 
L 331.752727 99.146911 
L 330.653254 100.608 
L 328.627367 103.296 
L 328.145455 103.934577 
L 326.599291 105.984 
L 324.567873 108.672 
L 324.538182 108.711244 
L 322.534736 111.36 
L 320.930909 113.476801 
L 320.498234 114.048 
L 318.459566 116.736 
L 317.323636 118.231463 
L 316.41799 119.424 
L 314.373758 122.112 
L 313.716364 122.975288 
L 312.327086 124.8 
L 310.277287 127.488 
L 310.109091 127.708321 
L 308.225498 130.176 
L 306.501818 132.43051 
L 306.17043 132.864 
L 304.113201 135.552 
L 302.894545 137.141962 
L 302.052998 138.24 
L 299.990171 140.928 
L 299.287273 141.842772 
L 297.924808 143.616 
L 295.856383 146.304 
L 295.68 146.532979 
L 293.785837 148.992 
L 292.072727 151.212549 
L 291.71209 151.68 
L 289.636058 154.368 
L 288.465455 155.881576 
L 287.557104 157.056 
L 285.475445 159.744 
L 284.858182 160.54014 
L 283.391259 162.432 
L 281.303975 165.12 
L 281.250909 165.188275 
L 279.21453 167.808 
L 277.643636 169.82595 
L 277.121951 170.496 
L 275.026889 173.184 
L 274.036364 174.453284 
L 272.929023 175.872 
L 270.82831 178.56 
L 270.429091 179.070316 
L 268.72513 181.248 
L 266.821818 183.677063 
L 266.618876 183.936 
L 264.510244 186.624 
L 263.214545 188.273561 
L 262.398644 189.312 
L 260.284339 192 
L 259.607273 192.859876 
L 258.167363 194.688 
L 256.047388 197.376 
L 256 197.436037 
L 253.925005 200.064 
L 252.392727 202.002074 
L 251.799599 202.752 
L 249.671543 205.44 
L 248.785455 206.558039 
L 247.540694 208.128 
L 245.40695 210.816 
L 245.178182 211.103956 
L 243.270626 213.504 
L 241.570909 215.639878 
L 241.131326 216.192 
L 238.989367 218.88 
L 237.963636 220.16584 
L 236.844553 221.568 
L 234.696888 224.256 
L 234.356364 224.681854 
L 232.546526 226.944 
L 230.749091 229.187982 
L 230.393229 229.632 
L 228.237217 232.32 
L 227.141818 233.684268 
L 226.078329 235.008 
L 223.916598 237.696 
L 223.534545 238.170698 
L 221.752084 240.384 
L 219.927273 242.647347 
L 219.584671 243.072 
L 217.414464 245.76 
L 216.32 247.114266 
L 215.241378 248.448 
L 213.065442 251.136 
L 212.712727 251.571412 
L 210.886645 253.824 
L 209.105455 256.018889 
L 208.704981 256.512 
L 206.520443 259.2 
L 205.498182 260.456727 
L 204.333018 261.888 
L 202.142743 264.576 
L 201.890909 264.88487 
L 199.949518 267.264 
L 198.283636 269.303472 
L 197.753452 269.952 
L 195.554452 272.64 
L 194.676364 273.7125 
L 193.352532 275.328 
L 191.14779 278.016 
L 191.069091 278.111901 
L 188.939976 280.704 
L 187.461818 282.501917 
L 186.72934 283.392 
L 184.515755 286.08 
L 183.854545 286.882384 
L 182.299167 288.768 
L 180.247273 291.253342 
L 180.079788 291.456 
L 177.857257 294.144 
L 176.64 295.614995 
L 175.631867 296.832 
L 173.40358 299.52 
L 173.032727 299.96713 
L 171.172136 302.208 
L 169.425455 304.309946 
L 168.937911 304.896 
L 166.700564 307.584 
z
" clip-path="url(#p8a35bfff18)" style="fill: #2e6e8e; fill-opacity: 0.75"/>
   </g>
   <g id="PathCollection_4">
    <path d="M 75.636364 307.584 
L 79.243636 307.584 
L 82.850909 307.584 
L 86.458182 307.584 
L 90.065455 307.584 
L 93.672727 307.584 
L 97.28 307.584 
L 100.887273 307.584 
L 104.494545 307.584 
L 108.101818 307.584 
L 111.709091 307.584 
L 115.316364 307.584 
L 118.923636 307.584 
L 122.530909 307.584 
L 126.138182 307.584 
L 129.745455 307.584 
L 133.352727 307.584 
L 136.96 307.584 
L 140.567273 307.584 
L 144.174545 307.584 
L 147.781818 307.584 
L 151.389091 307.584 
L 154.996364 307.584 
L 158.603636 307.584 
L 162.210909 307.584 
L 165.818182 307.584 
L 166.700564 307.584 
L 168.937911 304.896 
L 169.425455 304.309946 
L 171.172136 302.208 
L 173.032727 299.96713 
L 173.40358 299.52 
L 175.631867 296.832 
L 176.64 295.614995 
L 177.857257 294.144 
L 180.079788 291.456 
L 180.247273 291.253342 
L 182.299167 288.768 
L 183.854545 286.882384 
L 184.515755 286.08 
L 186.72934 283.392 
L 187.461818 282.501917 
L 188.939976 280.704 
L 191.069091 278.111901 
L 191.14779 278.016 
L 193.352532 275.328 
L 194.676364 273.7125 
L 195.554452 272.64 
L 197.753452 269.952 
L 198.283636 269.303472 
L 199.949518 267.264 
L 201.890909 264.88487 
L 202.142743 264.576 
L 204.333018 261.888 
L 205.498182 260.456727 
L 206.520443 259.2 
L 208.704981 256.512 
L 209.105455 256.018889 
L 210.886645 253.824 
L 212.712727 251.571412 
L 213.065442 251.136 
L 215.241378 248.448 
L 216.32 247.114266 
L 217.414464 245.76 
L 219.584671 243.072 
L 219.927273 242.647347 
L 221.752084 240.384 
L 223.534545 238.170698 
L 223.916598 237.696 
L 226.078329 235.008 
L 227.141818 233.684268 
L 228.237217 232.32 
L 230.393229 229.632 
L 230.749091 229.187982 
L 232.546526 226.944 
L 234.356364 224.681854 
L 234.696888 224.256 
L 236.844553 221.568 
L 237.963636 220.16584 
L 238.989367 218.88 
L 241.131326 216.192 
L 241.570909 215.639878 
L 243.270626 213.504 
L 245.178182 211.103956 
L 245.40695 210.816 
L 247.540694 208.128 
L 248.785455 206.558039 
L 249.671543 205.44 
L 251.799599 202.752 
L 252.392727 202.002074 
L 253.925005 200.064 
L 256 197.436037 
L 256.047388 197.376 
L 258.167363 194.688 
L 259.607273 192.859876 
L 260.284339 192 
L 262.398644 189.312 
L 263.214545 188.273561 
L 264.510244 186.624 
L 266.618876 183.936 
L 266.821818 183.677063 
L 268.72513 181.248 
L 270.429091 179.070316 
L 270.82831 178.56 
L 272.929023 175.872 
L 274.036364 174.453284 
L 275.026889 173.184 
L 277.121951 170.496 
L 277.643636 169.82595 
L 279.21453 167.808 
L 281.250909 165.188275 
L 281.303975 165.12 
L 283.391259 162.432 
L 284.858182 160.54014 
L 285.475445 159.744 
L 287.557104 157.056 
L 288.465455 155.881576 
L 289.636058 154.368 
L 291.71209 151.68 
L 292.072727 151.212549 
L 293.785837 148.992 
L 295.68 146.532979 
L 295.856383 146.304 
L 297.924808 143.616 
L 299.287273 141.842772 
L 299.990171 140.928 
L 302.052998 138.24 
L 302.894545 137.141962 
L 304.113201 135.552 
L 306.17043 132.864 
L 306.501818 132.43051 
L 308.225498 130.176 
L 310.109091 127.708321 
L 310.277287 127.488 
L 312.327086 124.8 
L 313.716364 122.975288 
L 314.373758 122.112 
L 316.41799 119.424 
L 317.323636 118.231463 
L 318.459566 116.736 
L 320.498234 114.048 
L 320.930909 113.476801 
L 322.534736 111.36 
L 324.538182 108.711244 
L 324.567873 108.672 
L 326.599291 105.984 
L 328.145455 103.934577 
L 328.627367 103.296 
L 330.653254 100.608 
L 331.752727 99.146911 
L 332.676289 97.92 
L 334.696649 95.232 
L 335.36 94.348198 
L 336.714662 92.544 
L 338.729499 89.856 
L 338.967273 89.538386 
L 340.742509 87.168 
L 342.574545 84.717334 
L 342.752046 84.48 
L 344.759851 81.792 
L 346.181818 79.884947 
L 346.764391 79.104 
L 348.76671 76.416 
L 349.789091 75.041285 
L 350.766271 73.728 
L 352.76311 71.04 
L 353.396364 70.186294 
L 354.757707 68.352 
L 356.74907 65.664 
L 357.003636 65.319916 
L 358.73872 62.976 
L 360.610909 60.442021 
L 360.724773 60.288 
L 362.70933 57.6 
L 364.218182 55.552457 
L 364.690436 54.912 
L 366.669559 52.224 
L 367.825455 50.651315 
L 368.645732 49.536 
L 370.619426 46.848 
L 371.432727 45.738533 
L 372.590679 44.16 
L 374.558953 41.472 
L 371.432727 41.472 
L 367.825455 41.472 
L 364.218182 41.472 
L 360.610909 41.472 
L 357.003636 41.472 
L 353.396364 41.472 
L 349.789091 41.472 
L 346.181818 41.472 
L 342.574545 41.472 
L 338.967273 41.472 
L 335.36 41.472 
L 331.752727 41.472 
L 328.145455 41.472 
L 324.538182 41.472 
L 320.930909 41.472 
L 317.323636 41.472 
L 313.716364 41.472 
L 310.109091 41.472 
L 306.501818 41.472 
L 302.894545 41.472 
L 299.287273 41.472 
L 295.68 41.472 
L 292.072727 41.472 
L 289.470809 41.472 
L 288.465455 42.833766 
L 287.486081 44.16 
L 285.497997 46.848 
L 284.858182 47.71181 
L 283.506632 49.536 
L 281.511798 52.224 
L 281.250909 52.575077 
L 279.513765 54.912 
L 277.643636 57.423545 
L 277.512199 57.6 
L 275.507436 60.288 
L 274.036364 62.25719 
L 273.499171 62.976 
L 271.487602 65.664 
L 270.429091 67.076332 
L 269.472604 68.352 
L 267.454217 71.04 
L 266.821818 71.881055 
L 265.432452 73.728 
L 263.407236 76.416 
L 263.214545 76.671441 
L 261.378667 79.104 
L 259.607273 81.447375 
L 259.346629 81.792 
L 257.311205 84.48 
L 256 86.208995 
L 255.272324 87.168 
L 253.230018 89.856 
L 252.392727 90.956526 
L 251.184254 92.544 
L 249.135059 95.232 
L 248.785455 95.690042 
L 247.082373 97.92 
L 245.178182 100.409517 
L 245.026266 100.608 
L 242.96663 103.296 
L 241.570909 105.1149 
L 240.903554 105.984 
L 238.836977 108.672 
L 237.963636 109.806499 
L 236.766889 111.36 
L 234.693363 114.048 
L 234.356364 114.484379 
L 232.61622 116.736 
L 230.749091 119.148487 
L 230.535692 119.424 
L 228.451496 122.112 
L 227.141818 123.798828 
L 226.363858 124.8 
L 224.272665 127.488 
L 223.534545 128.435662 
L 222.177871 130.176 
L 220.079676 132.864 
L 219.927273 133.059049 
L 217.977678 135.552 
L 216.32 137.668835 
L 215.872315 138.24 
L 213.763225 140.928 
L 212.712727 142.265236 
L 211.650597 143.616 
L 209.534459 146.304 
L 209.105455 146.848385 
L 207.414515 148.992 
L 205.498182 151.418246 
L 205.291229 151.68 
L 203.164014 154.368 
L 201.890909 155.974796 
L 201.033345 157.056 
L 198.89904 159.744 
L 198.283636 160.518272 
L 196.760934 162.432 
L 194.676364 165.048704 
L 194.619503 165.12 
L 192.473939 167.808 
L 191.069091 169.56595 
L 190.324998 170.496 
L 188.172303 173.184 
L 187.461818 174.070291 
L 186.015796 175.872 
L 183.855969 178.56 
L 183.854545 178.56177 
L 181.691839 181.248 
L 180.247273 183.040229 
L 179.524367 183.936 
L 177.353067 186.624 
L 176.64 187.505938 
L 175.177892 189.312 
L 173.032727 191.958927 
L 172.999397 192 
L 170.816484 194.688 
L 169.425455 196.399083 
L 168.630199 197.376 
L 166.440083 200.064 
L 165.818182 200.826632 
L 164.245947 202.752 
L 162.210909 205.241577 
L 162.048484 205.44 
L 159.84658 208.128 
L 158.603636 209.643882 
L 157.641174 210.816 
L 155.432034 213.504 
L 154.996364 214.033711 
L 153.218621 216.192 
L 151.389091 218.41104 
L 151.001863 218.88 
L 148.780764 221.568 
L 147.781818 222.775916 
L 146.555901 224.256 
L 144.327537 226.944 
L 144.174545 227.128433 
L 142.094504 229.632 
L 140.567273 231.468559 
L 139.858098 232.32 
L 137.617606 235.008 
L 136.96 235.796395 
L 135.372926 237.696 
L 133.352727 240.111967 
L 133.124875 240.384 
L 130.872118 243.072 
L 129.745455 244.415297 
L 128.615685 245.76 
L 126.355609 248.448 
L 126.138182 248.706452 
L 124.090722 251.136 
L 122.530909 252.985449 
L 121.822424 253.824 
L 119.549919 256.512 
L 118.923636 257.252338 
L 117.273053 259.2 
L 115.316364 261.507148 
L 114.992768 261.888 
L 112.707699 264.576 
L 111.709091 265.74993 
L 110.418728 267.264 
L 108.126294 269.952 
L 108.101818 269.980687 
L 105.82856 272.64 
L 104.494545 274.199508 
L 103.527352 275.328 
L 101.222194 278.016 
L 100.887273 278.406367 
L 98.912098 280.704 
L 97.28 282.601345 
L 96.598511 283.392 
L 94.280497 286.08 
L 93.672727 286.784444 
L 91.957894 288.768 
L 90.065455 290.955699 
L 89.631778 291.456 
L 87.300777 294.144 
L 86.458182 295.115171 
L 84.965511 296.832 
L 82.850909 299.262823 
L 82.626708 299.52 
L 80.282588 302.208 
L 79.243636 303.39879 
L 77.934498 304.896 
L 75.636364 307.522955 
L 75.582842 307.584 
z
" clip-path="url(#p8a35bfff18)" style="fill: #21908d; fill-opacity: 0.75"/>
   </g>
   <g id="PathCollection_5">
    <path d="M 61.207273 307.584 
L 64.814545 307.584 
L 68.421818 307.584 
L 72.029091 307.584 
L 75.582842 307.584 
L 75.636364 307.522955 
L 77.934498 304.896 
L 79.243636 303.39879 
L 80.282588 302.208 
L 82.626708 299.52 
L 82.850909 299.262823 
L 84.965511 296.832 
L 86.458182 295.115171 
L 87.300777 294.144 
L 89.631778 291.456 
L 90.065455 290.955699 
L 91.957894 288.768 
L 93.672727 286.784444 
L 94.280497 286.08 
L 96.598511 283.392 
L 97.28 282.601345 
L 98.912098 280.704 
L 100.887273 278.406367 
L 101.222194 278.016 
L 103.527352 275.328 
L 104.494545 274.199508 
L 105.82856 272.64 
L 108.101818 269.980687 
L 108.126294 269.952 
L 110.418728 267.264 
L 111.709091 265.74993 
L 112.707699 264.576 
L 114.992768 261.888 
L 115.316364 261.507148 
L 117.273053 259.2 
L 118.923636 257.252338 
L 119.549919 256.512 
L 121.822424 253.824 
L 122.530909 252.985449 
L 124.090722 251.136 
L 126.138182 248.706452 
L 126.355609 248.448 
L 128.615685 245.76 
L 129.745455 244.415297 
L 130.872118 243.072 
L 133.124875 240.384 
L 133.352727 240.111967 
L 135.372926 237.696 
L 136.96 235.796395 
L 137.617606 235.008 
L 139.858098 232.32 
L 140.567273 231.468559 
L 142.094504 229.632 
L 144.174545 227.128433 
L 144.327537 226.944 
L 146.555901 224.256 
L 147.781818 222.775916 
L 148.780764 221.568 
L 151.001863 218.88 
L 151.389091 218.41104 
L 153.218621 216.192 
L 154.996364 214.033711 
L 155.432034 213.504 
L 157.641174 210.816 
L 158.603636 209.643882 
L 159.84658 208.128 
L 162.048484 205.44 
L 162.210909 205.241577 
L 164.245947 202.752 
L 165.818182 200.826632 
L 166.440083 200.064 
L 168.630199 197.376 
L 169.425455 196.399083 
L 170.816484 194.688 
L 172.999397 192 
L 173.032727 191.958927 
L 175.177892 189.312 
L 176.64 187.505938 
L 177.353067 186.624 
L 179.524367 183.936 
L 180.247273 183.040229 
L 181.691839 181.248 
L 183.854545 178.56177 
L 183.855969 178.56 
L 186.015796 175.872 
L 187.461818 174.070291 
L 188.172303 173.184 
L 190.324998 170.496 
L 191.069091 169.56595 
L 192.473939 167.808 
L 194.619503 165.12 
L 194.676364 165.048704 
L 196.760934 162.432 
L 198.283636 160.518272 
L 198.89904 159.744 
L 201.033345 157.056 
L 201.890909 155.974796 
L 203.164014 154.368 
L 205.291229 151.68 
L 205.498182 151.418246 
L 207.414515 148.992 
L 209.105455 146.848385 
L 209.534459 146.304 
L 211.650597 143.616 
L 212.712727 142.265236 
L 213.763225 140.928 
L 215.872315 138.24 
L 216.32 137.668835 
L 217.977678 135.552 
L 219.927273 133.059049 
L 220.079676 132.864 
L 222.177871 130.176 
L 223.534545 128.435662 
L 224.272665 127.488 
L 226.363858 124.8 
L 227.141818 123.798828 
L 228.451496 122.112 
L 230.535692 119.424 
L 230.749091 119.148487 
L 232.61622 116.736 
L 234.356364 114.484379 
L 234.693363 114.048 
L 236.766889 111.36 
L 237.963636 109.806499 
L 238.836977 108.672 
L 240.903554 105.984 
L 241.570909 105.1149 
L 242.96663 103.296 
L 245.026266 100.608 
L 245.178182 100.409517 
L 247.082373 97.92 
L 248.785455 95.690042 
L 249.135059 95.232 
L 251.184254 92.544 
L 252.392727 90.956526 
L 253.230018 89.856 
L 255.272324 87.168 
L 256 86.208995 
L 257.311205 84.48 
L 259.346629 81.792 
L 259.607273 81.447375 
L 261.378667 79.104 
L 263.214545 76.671441 
L 263.407236 76.416 
L 265.432452 73.728 
L 266.821818 71.881055 
L 267.454217 71.04 
L 269.472604 68.352 
L 270.429091 67.076332 
L 271.487602 65.664 
L 273.499171 62.976 
L 274.036364 62.25719 
L 275.507436 60.288 
L 277.512199 57.6 
L 277.643636 57.423545 
L 279.513765 54.912 
L 281.250909 52.575077 
L 281.511798 52.224 
L 283.506632 49.536 
L 284.858182 47.71181 
L 285.497997 46.848 
L 287.486081 44.16 
L 288.465455 42.833766 
L 289.470809 41.472 
L 288.465455 41.472 
L 284.858182 41.472 
L 281.250909 41.472 
L 277.643636 41.472 
L 274.036364 41.472 
L 270.429091 41.472 
L 266.821818 41.472 
L 263.214545 41.472 
L 259.607273 41.472 
L 256 41.472 
L 252.392727 41.472 
L 248.785455 41.472 
L 245.178182 41.472 
L 241.570909 41.472 
L 237.963636 41.472 
L 234.356364 41.472 
L 230.749091 41.472 
L 227.141818 41.472 
L 223.534545 41.472 
L 219.927273 41.472 
L 216.32 41.472 
L 212.712727 41.472 
L 209.105455 41.472 
L 205.498182 41.472 
L 205.052282 41.472 
L 203.014647 44.16 
L 201.890909 45.640295 
L 200.972948 46.848 
L 198.927021 49.536 
L 198.283636 50.380181 
L 196.876573 52.224 
L 194.822336 54.912 
L 194.676364 55.102776 
L 192.763074 57.6 
L 191.069091 59.807797 
L 190.700142 60.288 
L 188.632368 62.976 
L 187.461818 64.495592 
L 186.560531 65.664 
L 184.484372 68.352 
L 183.854545 69.166422 
L 182.403559 71.04 
L 180.318998 73.728 
L 180.247273 73.820385 
L 178.22914 76.416 
L 176.64 78.457098 
L 176.135585 79.104 
L 174.037186 81.792 
L 173.032727 83.077081 
L 171.934483 84.48 
L 169.827608 87.168 
L 169.425455 87.680498 
L 167.715681 89.856 
L 165.818182 92.267245 
L 165.600043 92.544 
L 163.47909 95.232 
L 162.210909 96.837254 
L 161.354118 97.92 
L 159.224618 100.608 
L 158.603636 101.390976 
L 157.090232 103.296 
L 154.996364 105.928458 
L 154.95211 105.984 
L 152.80829 108.672 
L 151.389091 110.449314 
L 150.660635 111.36 
L 148.508197 114.048 
L 147.781818 114.954146 
L 146.350926 116.736 
L 144.189858 119.424 
L 144.174545 119.443028 
L 142.022884 122.112 
L 140.567273 123.915517 
L 139.852094 124.8 
L 137.676411 127.488 
L 136.96 128.372214 
L 135.495788 130.176 
L 133.352727 132.813171 
L 133.311343 132.864 
L 131.120862 135.552 
L 129.745455 137.237998 
L 128.926446 138.24 
L 126.727214 140.928 
L 126.138182 141.64727 
L 124.522735 143.616 
L 122.530909 146.040914 
L 122.314374 146.304 
L 120.100105 148.992 
L 118.923636 150.418771 
L 117.881534 151.68 
L 115.658451 154.368 
L 115.316364 154.781281 
L 113.429573 157.056 
L 111.709091 159.128212 
L 111.196739 159.744 
L 108.958384 162.432 
L 108.101818 163.459734 
L 106.715087 165.12 
L 104.494545 167.776087 
L 104.467807 167.808 
L 102.213996 170.496 
L 100.887273 172.076892 
L 99.956092 173.184 
L 97.693355 175.872 
L 97.28 176.36267 
L 95.424721 178.56 
L 93.672727 180.633221 
L 93.152009 181.248 
L 90.873583 183.936 
L 90.065455 184.888664 
L 88.58997 186.624 
L 86.458182 189.129175 
L 86.302238 189.312 
L 84.007938 192 
L 82.850909 193.354526 
L 81.709127 194.688 
L 79.405799 197.376 
L 79.243636 197.565124 
L 77.095795 200.064 
L 75.636364 201.760681 
L 74.781555 202.752 
L 72.462122 205.44 
L 72.029091 205.941526 
L 70.136502 208.128 
L 68.421818 210.107541 
L 67.806589 210.816 
L 65.47087 213.504 
L 64.814545 214.258848 
L 63.129382 216.192 
L 61.207273 218.3955 
L 60.78354 218.88 
L 58.431353 221.568 
L 57.6 222.517476 
L 57.6 224.256 
L 57.6 226.944 
L 57.6 229.632 
L 57.6 232.32 
L 57.6 235.008 
L 57.6 237.696 
L 57.6 240.384 
L 57.6 243.072 
L 57.6 245.76 
L 57.6 248.448 
L 57.6 251.136 
L 57.6 253.824 
L 57.6 256.512 
L 57.6 259.2 
L 57.6 261.888 
L 57.6 264.576 
L 57.6 267.264 
L 57.6 269.952 
L 57.6 272.64 
L 57.6 275.328 
L 57.6 278.016 
L 57.6 280.704 
L 57.6 283.392 
L 57.6 286.08 
L 57.6 288.768 
L 57.6 291.456 
L 57.6 294.144 
L 57.6 296.832 
L 57.6 299.52 
L 57.6 302.208 
L 57.6 304.896 
L 57.6 307.584 
z
" clip-path="url(#p8a35bfff18)" style="fill: #2db27d; fill-opacity: 0.75"/>
   </g>
   <g id="PathCollection_6">
    <path d="M 58.431353 221.568 
L 60.78354 218.88 
L 61.207273 218.3955 
L 63.129382 216.192 
L 64.814545 214.258848 
L 65.47087 213.504 
L 67.806589 210.816 
L 68.421818 210.107541 
L 70.136502 208.128 
L 72.029091 205.941526 
L 72.462122 205.44 
L 74.781555 202.752 
L 75.636364 201.760681 
L 77.095795 200.064 
L 79.243636 197.565124 
L 79.405799 197.376 
L 81.709127 194.688 
L 82.850909 193.354526 
L 84.007938 192 
L 86.302238 189.312 
L 86.458182 189.129175 
L 88.58997 186.624 
L 90.065455 184.888664 
L 90.873583 183.936 
L 93.152009 181.248 
L 93.672727 180.633221 
L 95.424721 178.56 
L 97.28 176.36267 
L 97.693355 175.872 
L 99.956092 173.184 
L 100.887273 172.076892 
L 102.213996 170.496 
L 104.467807 167.808 
L 104.494545 167.776087 
L 106.715087 165.12 
L 108.101818 163.459734 
L 108.958384 162.432 
L 111.196739 159.744 
L 111.709091 159.128212 
L 113.429573 157.056 
L 115.316364 154.781281 
L 115.658451 154.368 
L 117.881534 151.68 
L 118.923636 150.418771 
L 120.100105 148.992 
L 122.314374 146.304 
L 122.530909 146.040914 
L 124.522735 143.616 
L 126.138182 141.64727 
L 126.727214 140.928 
L 128.926446 138.24 
L 129.745455 137.237998 
L 131.120862 135.552 
L 133.311343 132.864 
L 133.352727 132.813171 
L 135.495788 130.176 
L 136.96 128.372214 
L 137.676411 127.488 
L 139.852094 124.8 
L 140.567273 123.915517 
L 142.022884 122.112 
L 144.174545 119.443028 
L 144.189858 119.424 
L 146.350926 116.736 
L 147.781818 114.954146 
L 148.508197 114.048 
L 150.660635 111.36 
L 151.389091 110.449314 
L 152.80829 108.672 
L 154.95211 105.984 
L 154.996364 105.928458 
L 157.090232 103.296 
L 158.603636 101.390976 
L 159.224618 100.608 
L 161.354118 97.92 
L 162.210909 96.837254 
L 163.47909 95.232 
L 165.600043 92.544 
L 165.818182 92.267245 
L 167.715681 89.856 
L 169.425455 87.680498 
L 169.827608 87.168 
L 171.934483 84.48 
L 173.032727 83.077081 
L 174.037186 81.792 
L 176.135585 79.104 
L 176.64 78.457098 
L 178.22914 76.416 
L 180.247273 73.820385 
L 180.318998 73.728 
L 182.403559 71.04 
L 183.854545 69.166422 
L 184.484372 68.352 
L 186.560531 65.664 
L 187.461818 64.495592 
L 188.632368 62.976 
L 190.700142 60.288 
L 191.069091 59.807797 
L 192.763074 57.6 
L 194.676364 55.102776 
L 194.822336 54.912 
L 196.876573 52.224 
L 198.283636 50.380181 
L 198.927021 49.536 
L 200.972948 46.848 
L 201.890909 45.640295 
L 203.014647 44.16 
L 205.052282 41.472 
L 201.890909 41.472 
L 198.283636 41.472 
L 194.676364 41.472 
L 191.069091 41.472 
L 187.461818 41.472 
L 183.854545 41.472 
L 180.247273 41.472 
L 176.64 41.472 
L 173.032727 41.472 
L 169.425455 41.472 
L 165.818182 41.472 
L 162.210909 41.472 
L 158.603636 41.472 
L 154.996364 41.472 
L 151.389091 41.472 
L 147.781818 41.472 
L 144.174545 41.472 
L 140.567273 41.472 
L 136.96 41.472 
L 133.352727 41.472 
L 129.745455 41.472 
L 126.138182 41.472 
L 122.530909 41.472 
L 118.923636 41.472 
L 118.863724 41.472 
L 116.728469 44.16 
L 115.316364 45.935433 
L 114.588855 46.848 
L 112.443394 49.536 
L 111.709091 50.454901 
L 110.292044 52.224 
L 108.136352 54.912 
L 108.101818 54.955013 
L 105.973143 57.6 
L 104.494545 59.435052 
L 103.805604 60.288 
L 101.632003 62.976 
L 100.887273 63.895939 
L 99.452411 65.664 
L 97.28 68.337817 
L 97.268448 68.352 
L 95.0767 71.04 
L 93.672727 72.75993 
L 92.88048 73.728 
L 90.678317 76.416 
L 90.065455 77.163278 
L 88.469706 79.104 
L 86.458182 81.547742 
L 86.256597 81.792 
L 84.035967 84.48 
L 82.850909 85.912973 
L 81.810251 87.168 
L 79.579102 89.856 
L 79.243636 90.259758 
L 77.340638 92.544 
L 75.636364 94.587636 
L 75.097531 95.232 
L 72.847595 97.92 
L 72.029091 98.896921 
L 70.591509 100.608 
L 68.421818 103.187965 
L 68.330707 103.296 
L 66.061742 105.984 
L 64.814545 107.460137 
L 63.787722 108.672 
L 61.50806 111.36 
L 61.207273 111.71435 
L 59.220667 114.048 
L 57.6 115.950066 
L 57.6 116.736 
L 57.6 119.424 
L 57.6 122.112 
L 57.6 124.8 
L 57.6 127.488 
L 57.6 130.176 
L 57.6 132.864 
L 57.6 135.552 
L 57.6 138.24 
L 57.6 140.928 
L 57.6 143.616 
L 57.6 146.304 
L 57.6 148.992 
L 57.6 151.68 
L 57.6 154.368 
L 57.6 157.056 
L 57.6 159.744 
L 57.6 162.432 
L 57.6 165.12 
L 57.6 167.808 
L 57.6 170.496 
L 57.6 173.184 
L 57.6 175.872 
L 57.6 178.56 
L 57.6 181.248 
L 57.6 183.936 
L 57.6 186.624 
L 57.6 189.312 
L 57.6 192 
L 57.6 194.688 
L 57.6 197.376 
L 57.6 200.064 
L 57.6 202.752 
L 57.6 205.44 
L 57.6 208.128 
L 57.6 210.816 
L 57.6 213.504 
L 57.6 216.192 
L 57.6 218.88 
L 57.6 221.568 
L 57.6 222.517476 
z
" clip-path="url(#p8a35bfff18)" style="fill: #73d056; fill-opacity: 0.75"/>
   </g>
   <g id="PathCollection_7">
    <path d="M 59.220667 114.048 
L 61.207273 111.71435 
L 61.50806 111.36 
L 63.787722 108.672 
L 64.814545 107.460137 
L 66.061742 105.984 
L 68.330707 103.296 
L 68.421818 103.187965 
L 70.591509 100.608 
L 72.029091 98.896921 
L 72.847595 97.92 
L 75.097531 95.232 
L 75.636364 94.587636 
L 77.340638 92.544 
L 79.243636 90.259758 
L 79.579102 89.856 
L 81.810251 87.168 
L 82.850909 85.912973 
L 84.035967 84.48 
L 86.256597 81.792 
L 86.458182 81.547742 
L 88.469706 79.104 
L 90.065455 77.163278 
L 90.678317 76.416 
L 92.88048 73.728 
L 93.672727 72.75993 
L 95.0767 71.04 
L 97.268448 68.352 
L 97.28 68.337817 
L 99.452411 65.664 
L 100.887273 63.895939 
L 101.632003 62.976 
L 103.805604 60.288 
L 104.494545 59.435052 
L 105.973143 57.6 
L 108.101818 54.955013 
L 108.136352 54.912 
L 110.292044 52.224 
L 111.709091 50.454901 
L 112.443394 49.536 
L 114.588855 46.848 
L 115.316364 45.935433 
L 116.728469 44.16 
L 118.863724 41.472 
L 115.316364 41.472 
L 111.709091 41.472 
L 108.101818 41.472 
L 104.494545 41.472 
L 100.887273 41.472 
L 97.28 41.472 
L 93.672727 41.472 
L 90.065455 41.472 
L 86.458182 41.472 
L 82.850909 41.472 
L 79.243636 41.472 
L 75.636364 41.472 
L 72.029091 41.472 
L 68.421818 41.472 
L 64.814545 41.472 
L 61.207273 41.472 
L 57.6 41.472 
L 57.6 44.16 
L 57.6 46.848 
L 57.6 49.536 
L 57.6 52.224 
L 57.6 54.912 
L 57.6 57.6 
L 57.6 60.288 
L 57.6 62.976 
L 57.6 65.664 
L 57.6 68.352 
L 57.6 71.04 
L 57.6 73.728 
L 57.6 76.416 
L 57.6 79.104 
L 57.6 81.792 
L 57.6 84.48 
L 57.6 87.168 
L 57.6 89.856 
L 57.6 92.544 
L 57.6 95.232 
L 57.6 97.92 
L 57.6 100.608 
L 57.6 103.296 
L 57.6 105.984 
L 57.6 108.672 
L 57.6 111.36 
L 57.6 114.048 
L 57.6 115.950066 
z
" clip-path="url(#p8a35bfff18)" style="fill: #d0e11c; fill-opacity: 0.75"/>
   </g>
   <g id="matplotlib.axis_1">
    <g id="xtick_1">
     <g id="line2d_1">
      <defs>
       <path id="me4384b615c" d="M 0 0 
L 0 3.5 
" style="stroke: #000000; stroke-width: 0.8"/>
      </defs>
      <g>
       <use xlink:href="#me4384b615c" x="80.828777" y="307.584" style="stroke: #000000; stroke-width: 0.8"/>
      </g>
     </g>
     <g id="text_1">
      <!-- 10 -->
      <g transform="translate(74.466277 322.182437) scale(0.1 -0.1)">
       <defs>
        <path id="DejaVuSans-31" d="M 794 531 
L 1825 531 
L 1825 4091 
L 703 3866 
L 703 4441 
L 1819 4666 
L 2450 4666 
L 2450 531 
L 3481 531 
L 3481 0 
L 794 0 
L 794 531 
z
" transform="scale(0.015625)"/>
        <path id="DejaVuSans-30" d="M 2034 4250 
Q 1547 4250 1301 3770 
Q 1056 3291 1056 2328 
Q 1056 1369 1301 889 
Q 1547 409 2034 409 
Q 2525 409 2770 889 
Q 3016 1369 3016 2328 
Q 3016 3291 2770 3770 
Q 2525 4250 2034 4250 
z
M 2034 4750 
Q 2819 4750 3233 4129 
Q 3647 3509 3647 2328 
Q 3647 1150 3233 529 
Q 2819 -91 2034 -91 
Q 1250 -91 836 529 
Q 422 1150 422 2328 
Q 422 3509 836 4129 
Q 1250 4750 2034 4750 
z
" transform="scale(0.015625)"/>
       </defs>
       <use xlink:href="#DejaVuSans-31"/>
       <use xlink:href="#DejaVuSans-30" x="63.623047"/>
      </g>
     </g>
    </g>
    <g id="xtick_2">
     <g id="line2d_2">
      <g>
       <use xlink:href="#me4384b615c" x="122.391862" y="307.584" style="stroke: #000000; stroke-width: 0.8"/>
      </g>
     </g>
     <g id="text_2">
      <!-- 15 -->
      <g transform="translate(116.029362 322.182437) scale(0.1 -0.1)">
       <defs>
        <path id="DejaVuSans-35" d="M 691 4666 
L 3169 4666 
L 3169 4134 
L 1269 4134 
L 1269 2991 
Q 1406 3038 1543 3061 
Q 1681 3084 1819 3084 
Q 2600 3084 3056 2656 
Q 3513 2228 3513 1497 
Q 3513 744 3044 326 
Q 2575 -91 1722 -91 
Q 1428 -91 1123 -41 
Q 819 9 494 109 
L 494 744 
Q 775 591 1075 516 
Q 1375 441 1709 441 
Q 2250 441 2565 725 
Q 2881 1009 2881 1497 
Q 2881 1984 2565 2268 
Q 2250 2553 1709 2553 
Q 1456 2553 1204 2497 
Q 953 2441 691 2322 
L 691 4666 
z
" transform="scale(0.015625)"/>
       </defs>
       <use xlink:href="#DejaVuSans-31"/>
       <use xlink:href="#DejaVuSans-35" x="63.623047"/>
      </g>
     </g>
    </g>
    <g id="xtick_3">
     <g id="line2d_3">
      <g>
       <use xlink:href="#me4384b615c" x="163.954947" y="307.584" style="stroke: #000000; stroke-width: 0.8"/>
      </g>
     </g>
     <g id="text_3">
      <!-- 20 -->
      <g transform="translate(157.592447 322.182437) scale(0.1 -0.1)">
       <defs>
        <path id="DejaVuSans-32" d="M 1228 531 
L 3431 531 
L 3431 0 
L 469 0 
L 469 531 
Q 828 903 1448 1529 
Q 2069 2156 2228 2338 
Q 2531 2678 2651 2914 
Q 2772 3150 2772 3378 
Q 2772 3750 2511 3984 
Q 2250 4219 1831 4219 
Q 1534 4219 1204 4116 
Q 875 4013 500 3803 
L 500 4441 
Q 881 4594 1212 4672 
Q 1544 4750 1819 4750 
Q 2544 4750 2975 4387 
Q 3406 4025 3406 3419 
Q 3406 3131 3298 2873 
Q 3191 2616 2906 2266 
Q 2828 2175 2409 1742 
Q 1991 1309 1228 531 
z
" transform="scale(0.015625)"/>
       </defs>
       <use xlink:href="#DejaVuSans-32"/>
       <use xlink:href="#DejaVuSans-30" x="63.623047"/>
      </g>
     </g>
    </g>
    <g id="xtick_4">
     <g id="line2d_4">
      <g>
       <use xlink:href="#me4384b615c" x="205.518031" y="307.584" style="stroke: #000000; stroke-width: 0.8"/>
      </g>
     </g>
     <g id="text_4">
      <!-- 25 -->
      <g transform="translate(199.155531 322.182437) scale(0.1 -0.1)">
       <use xlink:href="#DejaVuSans-32"/>
       <use xlink:href="#DejaVuSans-35" x="63.623047"/>
      </g>
     </g>
    </g>
    <g id="xtick_5">
     <g id="line2d_5">
      <g>
       <use xlink:href="#me4384b615c" x="247.081116" y="307.584" style="stroke: #000000; stroke-width: 0.8"/>
      </g>
     </g>
     <g id="text_5">
      <!-- 30 -->
      <g transform="translate(240.718616 322.182437) scale(0.1 -0.1)">
       <defs>
        <path id="DejaVuSans-33" d="M 2597 2516 
Q 3050 2419 3304 2112 
Q 3559 1806 3559 1356 
Q 3559 666 3084 287 
Q 2609 -91 1734 -91 
Q 1441 -91 1130 -33 
Q 819 25 488 141 
L 488 750 
Q 750 597 1062 519 
Q 1375 441 1716 441 
Q 2309 441 2620 675 
Q 2931 909 2931 1356 
Q 2931 1769 2642 2001 
Q 2353 2234 1838 2234 
L 1294 2234 
L 1294 2753 
L 1863 2753 
Q 2328 2753 2575 2939 
Q 2822 3125 2822 3475 
Q 2822 3834 2567 4026 
Q 2313 4219 1838 4219 
Q 1578 4219 1281 4162 
Q 984 4106 628 3988 
L 628 4550 
Q 988 4650 1302 4700 
Q 1616 4750 1894 4750 
Q 2613 4750 3031 4423 
Q 3450 4097 3450 3541 
Q 3450 3153 3228 2886 
Q 3006 2619 2597 2516 
z
" transform="scale(0.015625)"/>
       </defs>
       <use xlink:href="#DejaVuSans-33"/>
       <use xlink:href="#DejaVuSans-30" x="63.623047"/>
      </g>
     </g>
    </g>
    <g id="xtick_6">
     <g id="line2d_6">
      <g>
       <use xlink:href="#me4384b615c" x="288.644201" y="307.584" style="stroke: #000000; stroke-width: 0.8"/>
      </g>
     </g>
     <g id="text_6">
      <!-- 35 -->
      <g transform="translate(282.281701 322.182437) scale(0.1 -0.1)">
       <use xlink:href="#DejaVuSans-33"/>
       <use xlink:href="#DejaVuSans-35" x="63.623047"/>
      </g>
     </g>
    </g>
    <g id="xtick_7">
     <g id="line2d_7">
      <g>
       <use xlink:href="#me4384b615c" x="330.207286" y="307.584" style="stroke: #000000; stroke-width: 0.8"/>
      </g>
     </g>
     <g id="text_7">
      <!-- 40 -->
      <g transform="translate(323.844786 322.182437) scale(0.1 -0.1)">
       <defs>
        <path id="DejaVuSans-34" d="M 2419 4116 
L 825 1625 
L 2419 1625 
L 2419 4116 
z
M 2253 4666 
L 3047 4666 
L 3047 1625 
L 3713 1625 
L 3713 1100 
L 3047 1100 
L 3047 0 
L 2419 0 
L 2419 1100 
L 313 1100 
L 313 1709 
L 2253 4666 
z
" transform="scale(0.015625)"/>
       </defs>
       <use xlink:href="#DejaVuSans-34"/>
       <use xlink:href="#DejaVuSans-30" x="63.623047"/>
      </g>
     </g>
    </g>
    <g id="xtick_8">
     <g id="line2d_8">
      <g>
       <use xlink:href="#me4384b615c" x="371.770371" y="307.584" style="stroke: #000000; stroke-width: 0.8"/>
      </g>
     </g>
     <g id="text_8">
      <!-- 45 -->
      <g transform="translate(365.407871 322.182437) scale(0.1 -0.1)">
       <use xlink:href="#DejaVuSans-34"/>
       <use xlink:href="#DejaVuSans-35" x="63.623047"/>
      </g>
     </g>
    </g>
    <g id="xtick_9">
     <g id="line2d_9">
      <g>
       <use xlink:href="#me4384b615c" x="413.333455" y="307.584" style="stroke: #000000; stroke-width: 0.8"/>
      </g>
     </g>
     <g id="text_9">
      <!-- 50 -->
      <g transform="translate(406.970955 322.182437) scale(0.1 -0.1)">
       <use xlink:href="#DejaVuSans-35"/>
       <use xlink:href="#DejaVuSans-30" x="63.623047"/>
      </g>
     </g>
    </g>
    <g id="text_10">
     <!-- PM2.5 -->
     <g transform="translate(220.879531 335.860562) scale(0.1 -0.1)">
      <defs>
       <path id="DejaVuSans-50" d="M 1259 4147 
L 1259 2394 
L 2053 2394 
Q 2494 2394 2734 2622 
Q 2975 2850 2975 3272 
Q 2975 3691 2734 3919 
Q 2494 4147 2053 4147 
L 1259 4147 
z
M 628 4666 
L 2053 4666 
Q 2838 4666 3239 4311 
Q 3641 3956 3641 3272 
Q 3641 2581 3239 2228 
Q 2838 1875 2053 1875 
L 1259 1875 
L 1259 0 
L 628 0 
L 628 4666 
z
" transform="scale(0.015625)"/>
       <path id="DejaVuSans-4d" d="M 628 4666 
L 1569 4666 
L 2759 1491 
L 3956 4666 
L 4897 4666 
L 4897 0 
L 4281 0 
L 4281 4097 
L 3078 897 
L 2444 897 
L 1241 4097 
L 1241 0 
L 628 0 
L 628 4666 
z
" transform="scale(0.015625)"/>
       <path id="DejaVuSans-2e" d="M 684 794 
L 1344 794 
L 1344 0 
L 684 0 
L 684 794 
z
" transform="scale(0.015625)"/>
      </defs>
      <use xlink:href="#DejaVuSans-50"/>
      <use xlink:href="#DejaVuSans-4d" x="60.302734"/>
      <use xlink:href="#DejaVuSans-32" x="146.582031"/>
      <use xlink:href="#DejaVuSans-2e" x="210.205078"/>
      <use xlink:href="#DejaVuSans-35" x="241.992188"/>
     </g>
    </g>
   </g>
   <g id="matplotlib.axis_2">
    <g id="ytick_1">
     <g id="line2d_10">
      <defs>
       <path id="ma823778f91" d="M 0 0 
L -3.5 0 
" style="stroke: #000000; stroke-width: 0.8"/>
      </defs>
      <g>
       <use xlink:href="#ma823778f91" x="57.6" y="291.531474" style="stroke: #000000; stroke-width: 0.8"/>
      </g>
     </g>
     <g id="text_11">
      <!-- 62.5 -->
      <g transform="translate(28.334375 295.330693) scale(0.1 -0.1)">
       <defs>
        <path id="DejaVuSans-36" d="M 2113 2584 
Q 1688 2584 1439 2293 
Q 1191 2003 1191 1497 
Q 1191 994 1439 701 
Q 1688 409 2113 409 
Q 2538 409 2786 701 
Q 3034 994 3034 1497 
Q 3034 2003 2786 2293 
Q 2538 2584 2113 2584 
z
M 3366 4563 
L 3366 3988 
Q 3128 4100 2886 4159 
Q 2644 4219 2406 4219 
Q 1781 4219 1451 3797 
Q 1122 3375 1075 2522 
Q 1259 2794 1537 2939 
Q 1816 3084 2150 3084 
Q 2853 3084 3261 2657 
Q 3669 2231 3669 1497 
Q 3669 778 3244 343 
Q 2819 -91 2113 -91 
Q 1303 -91 875 529 
Q 447 1150 447 2328 
Q 447 3434 972 4092 
Q 1497 4750 2381 4750 
Q 2619 4750 2861 4703 
Q 3103 4656 3366 4563 
z
" transform="scale(0.015625)"/>
       </defs>
       <use xlink:href="#DejaVuSans-36"/>
       <use xlink:href="#DejaVuSans-32" x="63.623047"/>
       <use xlink:href="#DejaVuSans-2e" x="127.246094"/>
       <use xlink:href="#DejaVuSans-35" x="159.033203"/>
      </g>
     </g>
    </g>
    <g id="ytick_2">
     <g id="line2d_11">
      <g>
       <use xlink:href="#ma823778f91" x="57.6" y="260.460466" style="stroke: #000000; stroke-width: 0.8"/>
      </g>
     </g>
     <g id="text_12">
      <!-- 65.0 -->
      <g transform="translate(28.334375 264.259685) scale(0.1 -0.1)">
       <use xlink:href="#DejaVuSans-36"/>
       <use xlink:href="#DejaVuSans-35" x="63.623047"/>
       <use xlink:href="#DejaVuSans-2e" x="127.246094"/>
       <use xlink:href="#DejaVuSans-30" x="159.033203"/>
      </g>
     </g>
    </g>
    <g id="ytick_3">
     <g id="line2d_12">
      <g>
       <use xlink:href="#ma823778f91" x="57.6" y="229.389458" style="stroke: #000000; stroke-width: 0.8"/>
      </g>
     </g>
     <g id="text_13">
      <!-- 67.5 -->
      <g transform="translate(28.334375 233.188677) scale(0.1 -0.1)">
       <defs>
        <path id="DejaVuSans-37" d="M 525 4666 
L 3525 4666 
L 3525 4397 
L 1831 0 
L 1172 0 
L 2766 4134 
L 525 4134 
L 525 4666 
z
" transform="scale(0.015625)"/>
       </defs>
       <use xlink:href="#DejaVuSans-36"/>
       <use xlink:href="#DejaVuSans-37" x="63.623047"/>
       <use xlink:href="#DejaVuSans-2e" x="127.246094"/>
       <use xlink:href="#DejaVuSans-35" x="159.033203"/>
      </g>
     </g>
    </g>
    <g id="ytick_4">
     <g id="line2d_13">
      <g>
       <use xlink:href="#ma823778f91" x="57.6" y="198.31845" style="stroke: #000000; stroke-width: 0.8"/>
      </g>
     </g>
     <g id="text_14">
      <!-- 70.0 -->
      <g transform="translate(28.334375 202.117668) scale(0.1 -0.1)">
       <use xlink:href="#DejaVuSans-37"/>
       <use xlink:href="#DejaVuSans-30" x="63.623047"/>
       <use xlink:href="#DejaVuSans-2e" x="127.246094"/>
       <use xlink:href="#DejaVuSans-30" x="159.033203"/>
      </g>
     </g>
    </g>
    <g id="ytick_5">
     <g id="line2d_14">
      <g>
       <use xlink:href="#ma823778f91" x="57.6" y="167.247441" style="stroke: #000000; stroke-width: 0.8"/>
      </g>
     </g>
     <g id="text_15">
      <!-- 72.5 -->
      <g transform="translate(28.334375 171.04666) scale(0.1 -0.1)">
       <use xlink:href="#DejaVuSans-37"/>
       <use xlink:href="#DejaVuSans-32" x="63.623047"/>
       <use xlink:href="#DejaVuSans-2e" x="127.246094"/>
       <use xlink:href="#DejaVuSans-35" x="159.033203"/>
      </g>
     </g>
    </g>
    <g id="ytick_6">
     <g id="line2d_15">
      <g>
       <use xlink:href="#ma823778f91" x="57.6" y="136.176433" style="stroke: #000000; stroke-width: 0.8"/>
      </g>
     </g>
     <g id="text_16">
      <!-- 75.0 -->
      <g transform="translate(28.334375 139.975652) scale(0.1 -0.1)">
       <use xlink:href="#DejaVuSans-37"/>
       <use xlink:href="#DejaVuSans-35" x="63.623047"/>
       <use xlink:href="#DejaVuSans-2e" x="127.246094"/>
       <use xlink:href="#DejaVuSans-30" x="159.033203"/>
      </g>
     </g>
    </g>
    <g id="ytick_7">
     <g id="line2d_16">
      <g>
       <use xlink:href="#ma823778f91" x="57.6" y="105.105425" style="stroke: #000000; stroke-width: 0.8"/>
      </g>
     </g>
     <g id="text_17">
      <!-- 77.5 -->
      <g transform="translate(28.334375 108.904644) scale(0.1 -0.1)">
       <use xlink:href="#DejaVuSans-37"/>
       <use xlink:href="#DejaVuSans-37" x="63.623047"/>
       <use xlink:href="#DejaVuSans-2e" x="127.246094"/>
       <use xlink:href="#DejaVuSans-35" x="159.033203"/>
      </g>
     </g>
    </g>
    <g id="ytick_8">
     <g id="line2d_17">
      <g>
       <use xlink:href="#ma823778f91" x="57.6" y="74.034417" style="stroke: #000000; stroke-width: 0.8"/>
      </g>
     </g>
     <g id="text_18">
      <!-- 80.0 -->
      <g transform="translate(28.334375 77.833635) scale(0.1 -0.1)">
       <defs>
        <path id="DejaVuSans-38" d="M 2034 2216 
Q 1584 2216 1326 1975 
Q 1069 1734 1069 1313 
Q 1069 891 1326 650 
Q 1584 409 2034 409 
Q 2484 409 2743 651 
Q 3003 894 3003 1313 
Q 3003 1734 2745 1975 
Q 2488 2216 2034 2216 
z
M 1403 2484 
Q 997 2584 770 2862 
Q 544 3141 544 3541 
Q 544 4100 942 4425 
Q 1341 4750 2034 4750 
Q 2731 4750 3128 4425 
Q 3525 4100 3525 3541 
Q 3525 3141 3298 2862 
Q 3072 2584 2669 2484 
Q 3125 2378 3379 2068 
Q 3634 1759 3634 1313 
Q 3634 634 3220 271 
Q 2806 -91 2034 -91 
Q 1263 -91 848 271 
Q 434 634 434 1313 
Q 434 1759 690 2068 
Q 947 2378 1403 2484 
z
M 1172 3481 
Q 1172 3119 1398 2916 
Q 1625 2713 2034 2713 
Q 2441 2713 2670 2916 
Q 2900 3119 2900 3481 
Q 2900 3844 2670 4047 
Q 2441 4250 2034 4250 
Q 1625 4250 1398 4047 
Q 1172 3844 1172 3481 
z
" transform="scale(0.015625)"/>
       </defs>
       <use xlink:href="#DejaVuSans-38"/>
       <use xlink:href="#DejaVuSans-30" x="63.623047"/>
       <use xlink:href="#DejaVuSans-2e" x="127.246094"/>
       <use xlink:href="#DejaVuSans-30" x="159.033203"/>
      </g>
     </g>
    </g>
    <g id="ytick_9">
     <g id="line2d_18">
      <g>
       <use xlink:href="#ma823778f91" x="57.6" y="42.963408" style="stroke: #000000; stroke-width: 0.8"/>
      </g>
     </g>
     <g id="text_19">
      <!-- 82.5 -->
      <g transform="translate(28.334375 46.762627) scale(0.1 -0.1)">
       <use xlink:href="#DejaVuSans-38"/>
       <use xlink:href="#DejaVuSans-32" x="63.623047"/>
       <use xlink:href="#DejaVuSans-2e" x="127.246094"/>
       <use xlink:href="#DejaVuSans-35" x="159.033203"/>
      </g>
     </g>
    </g>
    <g id="text_20">
     <!-- Life Expectancy -->
     <g transform="translate(22.254687 214.149094) rotate(-90) scale(0.1 -0.1)">
      <defs>
       <path id="DejaVuSans-4c" d="M 628 4666 
L 1259 4666 
L 1259 531 
L 3531 531 
L 3531 0 
L 628 0 
L 628 4666 
z
" transform="scale(0.015625)"/>
       <path id="DejaVuSans-69" d="M 603 3500 
L 1178 3500 
L 1178 0 
L 603 0 
L 603 3500 
z
M 603 4863 
L 1178 4863 
L 1178 4134 
L 603 4134 
L 603 4863 
z
" transform="scale(0.015625)"/>
       <path id="DejaVuSans-66" d="M 2375 4863 
L 2375 4384 
L 1825 4384 
Q 1516 4384 1395 4259 
Q 1275 4134 1275 3809 
L 1275 3500 
L 2222 3500 
L 2222 3053 
L 1275 3053 
L 1275 0 
L 697 0 
L 697 3053 
L 147 3053 
L 147 3500 
L 697 3500 
L 697 3744 
Q 697 4328 969 4595 
Q 1241 4863 1831 4863 
L 2375 4863 
z
" transform="scale(0.015625)"/>
       <path id="DejaVuSans-65" d="M 3597 1894 
L 3597 1613 
L 953 1613 
Q 991 1019 1311 708 
Q 1631 397 2203 397 
Q 2534 397 2845 478 
Q 3156 559 3463 722 
L 3463 178 
Q 3153 47 2828 -22 
Q 2503 -91 2169 -91 
Q 1331 -91 842 396 
Q 353 884 353 1716 
Q 353 2575 817 3079 
Q 1281 3584 2069 3584 
Q 2775 3584 3186 3129 
Q 3597 2675 3597 1894 
z
M 3022 2063 
Q 3016 2534 2758 2815 
Q 2500 3097 2075 3097 
Q 1594 3097 1305 2825 
Q 1016 2553 972 2059 
L 3022 2063 
z
" transform="scale(0.015625)"/>
       <path id="DejaVuSans-20" transform="scale(0.015625)"/>
       <path id="DejaVuSans-45" d="M 628 4666 
L 3578 4666 
L 3578 4134 
L 1259 4134 
L 1259 2753 
L 3481 2753 
L 3481 2222 
L 1259 2222 
L 1259 531 
L 3634 531 
L 3634 0 
L 628 0 
L 628 4666 
z
" transform="scale(0.015625)"/>
       <path id="DejaVuSans-78" d="M 3513 3500 
L 2247 1797 
L 3578 0 
L 2900 0 
L 1881 1375 
L 863 0 
L 184 0 
L 1544 1831 
L 300 3500 
L 978 3500 
L 1906 2253 
L 2834 3500 
L 3513 3500 
z
" transform="scale(0.015625)"/>
       <path id="DejaVuSans-70" d="M 1159 525 
L 1159 -1331 
L 581 -1331 
L 581 3500 
L 1159 3500 
L 1159 2969 
Q 1341 3281 1617 3432 
Q 1894 3584 2278 3584 
Q 2916 3584 3314 3078 
Q 3713 2572 3713 1747 
Q 3713 922 3314 415 
Q 2916 -91 2278 -91 
Q 1894 -91 1617 61 
Q 1341 213 1159 525 
z
M 3116 1747 
Q 3116 2381 2855 2742 
Q 2594 3103 2138 3103 
Q 1681 3103 1420 2742 
Q 1159 2381 1159 1747 
Q 1159 1113 1420 752 
Q 1681 391 2138 391 
Q 2594 391 2855 752 
Q 3116 1113 3116 1747 
z
" transform="scale(0.015625)"/>
       <path id="DejaVuSans-63" d="M 3122 3366 
L 3122 2828 
Q 2878 2963 2633 3030 
Q 2388 3097 2138 3097 
Q 1578 3097 1268 2742 
Q 959 2388 959 1747 
Q 959 1106 1268 751 
Q 1578 397 2138 397 
Q 2388 397 2633 464 
Q 2878 531 3122 666 
L 3122 134 
Q 2881 22 2623 -34 
Q 2366 -91 2075 -91 
Q 1284 -91 818 406 
Q 353 903 353 1747 
Q 353 2603 823 3093 
Q 1294 3584 2113 3584 
Q 2378 3584 2631 3529 
Q 2884 3475 3122 3366 
z
" transform="scale(0.015625)"/>
       <path id="DejaVuSans-74" d="M 1172 4494 
L 1172 3500 
L 2356 3500 
L 2356 3053 
L 1172 3053 
L 1172 1153 
Q 1172 725 1289 603 
Q 1406 481 1766 481 
L 2356 481 
L 2356 0 
L 1766 0 
Q 1100 0 847 248 
Q 594 497 594 1153 
L 594 3053 
L 172 3053 
L 172 3500 
L 594 3500 
L 594 4494 
L 1172 4494 
z
" transform="scale(0.015625)"/>
       <path id="DejaVuSans-61" d="M 2194 1759 
Q 1497 1759 1228 1600 
Q 959 1441 959 1056 
Q 959 750 1161 570 
Q 1363 391 1709 391 
Q 2188 391 2477 730 
Q 2766 1069 2766 1631 
L 2766 1759 
L 2194 1759 
z
M 3341 1997 
L 3341 0 
L 2766 0 
L 2766 531 
Q 2569 213 2275 61 
Q 1981 -91 1556 -91 
Q 1019 -91 701 211 
Q 384 513 384 1019 
Q 384 1609 779 1909 
Q 1175 2209 1959 2209 
L 2766 2209 
L 2766 2266 
Q 2766 2663 2505 2880 
Q 2244 3097 1772 3097 
Q 1472 3097 1187 3025 
Q 903 2953 641 2809 
L 641 3341 
Q 956 3463 1253 3523 
Q 1550 3584 1831 3584 
Q 2591 3584 2966 3190 
Q 3341 2797 3341 1997 
z
" transform="scale(0.015625)"/>
       <path id="DejaVuSans-6e" d="M 3513 2113 
L 3513 0 
L 2938 0 
L 2938 2094 
Q 2938 2591 2744 2837 
Q 2550 3084 2163 3084 
Q 1697 3084 1428 2787 
Q 1159 2491 1159 1978 
L 1159 0 
L 581 0 
L 581 3500 
L 1159 3500 
L 1159 2956 
Q 1366 3272 1645 3428 
Q 1925 3584 2291 3584 
Q 2894 3584 3203 3211 
Q 3513 2838 3513 2113 
z
" transform="scale(0.015625)"/>
       <path id="DejaVuSans-79" d="M 2059 -325 
Q 1816 -950 1584 -1140 
Q 1353 -1331 966 -1331 
L 506 -1331 
L 506 -850 
L 844 -850 
Q 1081 -850 1212 -737 
Q 1344 -625 1503 -206 
L 1606 56 
L 191 3500 
L 800 3500 
L 1894 763 
L 2988 3500 
L 3597 3500 
L 2059 -325 
z
" transform="scale(0.015625)"/>
      </defs>
      <use xlink:href="#DejaVuSans-4c"/>
      <use xlink:href="#DejaVuSans-69" x="55.712891"/>
      <use xlink:href="#DejaVuSans-66" x="83.496094"/>
      <use xlink:href="#DejaVuSans-65" x="118.701172"/>
      <use xlink:href="#DejaVuSans-20" x="180.224609"/>
      <use xlink:href="#DejaVuSans-45" x="212.011719"/>
      <use xlink:href="#DejaVuSans-78" x="275.195312"/>
      <use xlink:href="#DejaVuSans-70" x="334.375"/>
      <use xlink:href="#DejaVuSans-65" x="397.851562"/>
      <use xlink:href="#DejaVuSans-63" x="459.375"/>
      <use xlink:href="#DejaVuSans-74" x="514.355469"/>
      <use xlink:href="#DejaVuSans-61" x="553.564453"/>
      <use xlink:href="#DejaVuSans-6e" x="614.84375"/>
      <use xlink:href="#DejaVuSans-63" x="678.222656"/>
      <use xlink:href="#DejaVuSans-79" x="733.203125"/>
     </g>
    </g>
   </g>
   <g id="PathCollection_8"/>
   <g id="PathCollection_9">
    <path d="M 348.970516 307.584 
L 349.789091 306.563486 
L 351.127905 304.896 
L 353.283211 302.208 
L 353.396364 302.066793 
L 355.439197 299.52 
L 357.003636 297.566848 
L 357.592843 296.832 
L 359.126797 294.917099 
" clip-path="url(#p8a35bfff18)" style="fill: none; stroke: #000000; stroke-width: 0.5"/>
    <path d="M 377.557808 271.857873 
L 378.647273 270.49118 
L 379.077609 269.952 
L 381.22096 267.264 
L 382.254545 265.966073 
L 383.362899 264.576 
L 385.503209 261.888 
L 385.861818 261.437208 
L 387.643826 259.2 
L 389.469091 256.904811 
L 389.781889 256.512 
L 391.920387 253.824 
L 393.076364 252.368898 
L 394.05714 251.136 
L 396.192582 248.448 
L 396.683636 247.829228 
L 398.328039 245.76 
L 400.290909 243.28592 
L 400.460868 243.072 
L 402.594586 240.384 
L 403.898182 238.739165 
L 404.726131 237.696 
L 406.856781 235.008 
L 407.505455 234.188655 
L 408.987056 232.32 
L 411.112727 229.6344 
L 411.11463 229.632 
L 413.243646 226.944 
L 414.72 225.076771 
" clip-path="url(#p8a35bfff18)" style="fill: none; stroke: #000000; stroke-width: 0.5"/>
   </g>
   <g id="PathCollection_10">
    <path d="M 256.829806 307.584 
L 259.003948 304.896 
L 259.607273 304.149536 
L 261.176376 302.208 
L 263.214545 299.683246 
L 263.346324 299.52 
L 265.514994 296.832 
L 266.821818 295.21048 
L 267.681307 294.144 
L 269.845664 291.456 
L 270.429091 290.730857 
L 272.008364 288.768 
L 274.036364 286.244452 
L 274.168528 286.08 
L 276.327501 283.392 
L 277.643636 281.751491 
L 278.484075 280.704 
L 280.638725 278.016 
L 281.250909 277.251636 
L 282.791728 275.328 
L 284.858182 272.744928 
L 284.942136 272.64 
L 287.091495 269.952 
L 288.465455 268.23161 
L 289.238353 267.264 
L 291.383382 264.576 
L 292.072727 263.711356 
L 293.52671 261.888 
L 295.667396 259.2 
L 295.68 259.184164 
L 297.807215 256.512 
L 299.287273 254.650312 
L 299.944374 253.824 
L 302.079873 251.136 
L 302.894545 250.109485 
L 304.213541 248.448 
L 306.344694 245.76 
L 306.501818 245.561672 
L 308.474889 243.072 
L 309.945251 241.214079 
" clip-path="url(#p8a35bfff18)" style="fill: none; stroke: #000000; stroke-width: 0.5"/>
    <path d="M 328.22164 218.032126 
L 329.666942 216.192 
L 331.752727 213.532407 
L 331.775018 213.504 
L 333.88254 210.816 
L 335.36 208.928728 
L 335.987222 208.128 
L 338.090403 205.44 
L 338.967273 204.3179 
L 340.191708 202.752 
L 342.29054 200.064 
L 342.574545 199.699913 
L 344.388483 197.376 
L 346.181818 195.074815 
L 346.483473 194.688 
L 348.577558 192 
L 349.789091 190.442571 
L 350.669197 189.312 
L 352.758941 186.624 
L 353.396364 185.803104 
L 354.847244 183.936 
L 356.932641 181.248 
L 357.003636 181.156402 
L 359.017624 178.56 
L 360.610909 176.502513 
L 361.099565 175.872 
L 363.180345 173.184 
L 364.218182 171.841344 
L 365.258973 170.496 
L 367.335417 167.808 
L 367.825455 167.172873 
L 369.410747 165.12 
L 371.432727 162.497087 
L 371.482948 162.432 
L 373.554896 159.744 
L 375.04 157.813987 
L 375.623803 157.056 
L 377.691428 154.368 
L 378.647273 153.123512 
L 379.757057 151.68 
L 381.820355 148.992 
L 382.254545 148.425645 
L 383.882717 146.304 
L 385.861818 143.72037 
L 385.94185 143.616 
L 388.000794 140.928 
L 389.469091 139.007651 
L 390.056664 138.24 
L 392.111297 135.552 
L 393.076364 134.287464 
L 394.163917 132.864 
L 396.214236 130.176 
L 396.683636 129.55979 
L 398.263617 127.488 
L 400.290909 124.824609 
L 400.309663 124.8 
L 402.355775 122.112 
L 403.898182 120.081849 
L 404.398582 119.424 
L 406.440401 116.736 
L 407.505455 115.331521 
L 408.479981 114.048 
L 410.517504 111.36 
L 411.112727 110.573604 
L 412.553868 108.672 
L 414.587095 105.984 
L 414.72 105.808076 
" clip-path="url(#p8a35bfff18)" style="fill: none; stroke: #000000; stroke-width: 0.5"/>
   </g>
   <g id="PathCollection_11">
    <path d="M 166.700564 307.584 
L 168.937911 304.896 
L 169.425455 304.309946 
L 171.172136 302.208 
L 173.032727 299.96713 
L 173.40358 299.52 
L 175.631867 296.832 
L 176.64 295.614995 
L 177.857257 294.144 
L 180.079788 291.456 
L 180.247273 291.253342 
L 182.299167 288.768 
L 183.854545 286.882384 
L 184.515755 286.08 
L 186.72934 283.392 
L 187.461818 282.501917 
L 188.939976 280.704 
L 191.069091 278.111901 
L 191.14779 278.016 
L 193.352532 275.328 
L 194.676364 273.7125 
L 195.554452 272.64 
L 197.753452 269.952 
L 198.283636 269.303472 
L 199.949518 267.264 
L 201.890909 264.88487 
L 202.142743 264.576 
L 204.333018 261.888 
L 205.498182 260.456727 
L 206.520443 259.2 
L 208.704981 256.512 
L 209.105455 256.018889 
L 210.886645 253.824 
L 212.712727 251.571412 
L 213.065442 251.136 
L 215.241378 248.448 
L 216.32 247.114266 
L 217.414464 245.76 
L 219.584671 243.072 
L 219.927273 242.647347 
L 221.752084 240.384 
L 223.534545 238.170698 
L 223.916598 237.696 
L 226.078329 235.008 
L 227.141818 233.684268 
L 228.237217 232.32 
L 230.393229 229.632 
L 230.749091 229.187982 
L 232.546526 226.944 
L 234.356364 224.681854 
L 234.696888 224.256 
L 236.844553 221.568 
L 237.963636 220.16584 
L 238.989367 218.88 
L 241.131326 216.192 
L 241.570909 215.639878 
L 243.270626 213.504 
L 245.178182 211.103956 
L 245.40695 210.816 
L 247.540694 208.128 
L 248.785455 206.558039 
L 249.671543 205.44 
L 251.799599 202.752 
L 252.392727 202.002074 
L 253.925005 200.064 
L 256 197.436037 
L 256.047388 197.376 
L 258.167363 194.688 
L 259.607273 192.859876 
L 260.284339 192 
L 261.720149 190.174597 
" clip-path="url(#p8a35bfff18)" style="fill: none; stroke: #000000; stroke-width: 0.5"/>
    <path d="M 279.904489 166.920393 
L 281.250909 165.188275 
L 281.303975 165.12 
L 283.391259 162.432 
L 284.858182 160.54014 
L 285.475445 159.744 
L 287.557104 157.056 
L 288.465455 155.881576 
L 289.636058 154.368 
L 291.71209 151.68 
L 292.072727 151.212549 
L 293.785837 148.992 
L 295.68 146.532979 
L 295.856383 146.304 
L 297.924808 143.616 
L 299.287273 141.842772 
L 299.990171 140.928 
L 302.052998 138.24 
L 302.894545 137.141962 
L 304.113201 135.552 
L 306.17043 132.864 
L 306.501818 132.43051 
L 308.225498 130.176 
L 310.109091 127.708321 
L 310.277287 127.488 
L 312.327086 124.8 
L 313.716364 122.975288 
L 314.373758 122.112 
L 316.41799 119.424 
L 317.323636 118.231463 
L 318.459566 116.736 
L 320.498234 114.048 
L 320.930909 113.476801 
L 322.534736 111.36 
L 324.538182 108.711244 
L 324.567873 108.672 
L 326.599291 105.984 
L 328.145455 103.934577 
L 328.627367 103.296 
L 330.653254 100.608 
L 331.752727 99.146911 
L 332.676289 97.92 
L 334.696649 95.232 
L 335.36 94.348198 
L 336.714662 92.544 
L 338.729499 89.856 
L 338.967273 89.538386 
L 340.742509 87.168 
L 342.574545 84.717334 
L 342.752046 84.48 
L 344.759851 81.792 
L 346.181818 79.884947 
L 346.764391 79.104 
L 348.76671 76.416 
L 349.789091 75.041285 
L 350.766271 73.728 
L 352.76311 71.04 
L 353.396364 70.186294 
L 354.757707 68.352 
L 356.74907 65.664 
L 357.003636 65.319916 
L 358.73872 62.976 
L 360.610909 60.442021 
L 360.724773 60.288 
L 362.70933 57.6 
L 364.218182 55.552457 
L 364.690436 54.912 
L 366.669559 52.224 
L 367.825455 50.651315 
L 368.645732 49.536 
L 370.619426 46.848 
L 371.432727 45.738533 
L 372.590679 44.16 
L 374.558953 41.472 
" clip-path="url(#p8a35bfff18)" style="fill: none; stroke: #000000; stroke-width: 0.5"/>
   </g>
   <g id="PathCollection_12">
    <path d="M 75.582842 307.584 
L 75.636364 307.522955 
L 77.934498 304.896 
L 79.243636 303.39879 
L 80.282588 302.208 
L 82.626708 299.52 
L 82.850909 299.262823 
L 84.965511 296.832 
L 86.458182 295.115171 
L 87.300777 294.144 
L 89.631778 291.456 
L 90.065455 290.955699 
L 91.957894 288.768 
L 93.672727 286.784444 
L 94.280497 286.08 
L 96.598511 283.392 
L 97.28 282.601345 
L 98.912098 280.704 
L 100.887273 278.406367 
L 101.222194 278.016 
L 103.527352 275.328 
L 104.494545 274.199508 
L 105.82856 272.64 
L 108.101818 269.980687 
L 108.126294 269.952 
L 110.418728 267.264 
L 111.709091 265.74993 
L 112.707699 264.576 
L 114.992768 261.888 
L 115.316364 261.507148 
L 117.273053 259.2 
L 118.923636 257.252338 
L 119.549919 256.512 
L 121.822424 253.824 
L 122.530909 252.985449 
L 124.090722 251.136 
L 126.138182 248.706452 
L 126.355609 248.448 
L 128.615685 245.76 
L 129.745455 244.415297 
L 130.872118 243.072 
L 133.124875 240.384 
L 133.352727 240.111967 
L 135.372926 237.696 
L 136.96 235.796395 
L 137.617606 235.008 
L 139.858098 232.32 
L 140.567273 231.468559 
L 142.094504 229.632 
L 144.174545 227.128433 
L 144.327537 226.944 
L 146.555901 224.256 
L 147.781818 222.775916 
L 148.780764 221.568 
L 151.001863 218.88 
L 151.389091 218.41104 
L 153.218621 216.192 
L 154.996364 214.033711 
L 155.432034 213.504 
L 157.641174 210.816 
L 158.603636 209.643882 
L 159.84658 208.128 
L 162.048484 205.44 
L 162.210909 205.241577 
L 164.245947 202.752 
L 165.818182 200.826632 
L 166.440083 200.064 
L 168.630199 197.376 
L 169.425455 196.399083 
L 170.816484 194.688 
L 172.999397 192 
L 173.032727 191.958927 
L 175.177892 189.312 
L 176.64 187.505938 
L 177.353067 186.624 
L 179.524367 183.936 
L 180.247273 183.040229 
L 181.691839 181.248 
L 183.854545 178.56177 
L 183.855969 178.56 
L 186.015796 175.872 
L 187.461818 174.070291 
L 188.172303 173.184 
L 190.324998 170.496 
L 191.069091 169.56595 
L 192.473939 167.808 
L 194.619503 165.12 
L 194.676364 165.048704 
L 196.760934 162.432 
L 197.959848 160.925209 
" clip-path="url(#p8a35bfff18)" style="fill: none; stroke: #000000; stroke-width: 0.5"/>
    <path d="M 220.18963 132.723138 
L 222.177871 130.176 
L 223.534545 128.435662 
L 224.272665 127.488 
L 226.363858 124.8 
L 227.141818 123.798828 
L 228.451496 122.112 
L 230.535692 119.424 
L 230.749091 119.148487 
L 232.61622 116.736 
L 234.356364 114.484379 
L 234.693363 114.048 
L 236.766889 111.36 
L 237.963636 109.806499 
L 238.836977 108.672 
L 240.903554 105.984 
L 241.570909 105.1149 
L 242.96663 103.296 
L 245.026266 100.608 
L 245.178182 100.409517 
L 247.082373 97.92 
L 248.785455 95.690042 
L 249.135059 95.232 
L 251.184254 92.544 
L 252.392727 90.956526 
L 253.230018 89.856 
L 255.272324 87.168 
L 256 86.208995 
L 257.311205 84.48 
L 259.346629 81.792 
L 259.607273 81.447375 
L 261.378667 79.104 
L 263.214545 76.671441 
L 263.407236 76.416 
L 265.432452 73.728 
L 266.821818 71.881055 
L 267.454217 71.04 
L 269.472604 68.352 
L 270.429091 67.076332 
L 271.487602 65.664 
L 273.499171 62.976 
L 274.036364 62.25719 
L 275.507436 60.288 
L 277.512199 57.6 
L 277.643636 57.423545 
L 279.513765 54.912 
L 281.250909 52.575077 
L 281.511798 52.224 
L 283.506632 49.536 
L 284.858182 47.71181 
L 285.497997 46.848 
L 287.486081 44.16 
L 288.465455 42.833766 
L 289.470809 41.472 
" clip-path="url(#p8a35bfff18)" style="fill: none; stroke: #000000; stroke-width: 0.5"/>
   </g>
   <g id="PathCollection_13">
    <path d="M 57.6 222.517476 
L 58.431353 221.568 
L 60.78354 218.88 
L 61.207273 218.3955 
L 63.129382 216.192 
L 64.814545 214.258848 
L 65.47087 213.504 
L 67.806589 210.816 
L 68.421818 210.107541 
L 70.136502 208.128 
L 72.029091 205.941526 
L 72.462122 205.44 
L 74.781555 202.752 
L 75.636364 201.760681 
L 77.095795 200.064 
L 79.243636 197.565124 
L 79.405799 197.376 
L 81.709127 194.688 
L 82.850909 193.354526 
L 84.007938 192 
L 86.302238 189.312 
L 86.458182 189.129175 
L 88.58997 186.624 
L 90.065455 184.888664 
L 90.873583 183.936 
L 93.152009 181.248 
L 93.672727 180.633221 
L 95.424721 178.56 
L 97.28 176.36267 
L 97.693355 175.872 
L 99.956092 173.184 
L 100.887273 172.076892 
L 102.213996 170.496 
L 104.467807 167.808 
L 104.494545 167.776087 
L 106.715087 165.12 
L 108.101818 163.459734 
L 108.958384 162.432 
L 111.196739 159.744 
L 111.709091 159.128212 
L 113.429573 157.056 
L 115.316364 154.781281 
L 115.658451 154.368 
L 117.881534 151.68 
L 118.923636 150.418771 
L 120.100105 148.992 
L 122.314374 146.304 
L 122.530909 146.040914 
L 124.522735 143.616 
L 126.138182 141.64727 
L 126.334702 141.407298 
" clip-path="url(#p8a35bfff18)" style="fill: none; stroke: #000000; stroke-width: 0.5"/>
    <path d="M 148.941628 113.506724 
L 150.660635 111.36 
L 151.389091 110.449314 
L 152.80829 108.672 
L 154.95211 105.984 
L 154.996364 105.928458 
L 157.090232 103.296 
L 158.603636 101.390976 
L 159.224618 100.608 
L 161.354118 97.92 
L 162.210909 96.837254 
L 163.47909 95.232 
L 165.600043 92.544 
L 165.818182 92.267245 
L 167.715681 89.856 
L 169.425455 87.680498 
L 169.827608 87.168 
L 171.934483 84.48 
L 173.032727 83.077081 
L 174.037186 81.792 
L 176.135585 79.104 
L 176.64 78.457098 
L 178.22914 76.416 
L 180.247273 73.820385 
L 180.318998 73.728 
L 182.403559 71.04 
L 183.854545 69.166422 
L 184.484372 68.352 
L 186.560531 65.664 
L 187.461818 64.495592 
L 188.632368 62.976 
L 190.700142 60.288 
L 191.069091 59.807797 
L 192.763074 57.6 
L 194.676364 55.102776 
L 194.822336 54.912 
L 196.876573 52.224 
L 198.283636 50.380181 
L 198.927021 49.536 
L 200.972948 46.848 
L 201.890909 45.640295 
L 203.014647 44.16 
L 205.052282 41.472 
" clip-path="url(#p8a35bfff18)" style="fill: none; stroke: #000000; stroke-width: 0.5"/>
   </g>
   <g id="PathCollection_14">
    <path d="M 57.6 115.950066 
L 59.220667 114.048 
L 61.207273 111.71435 
L 61.50806 111.36 
L 63.787722 108.672 
L 64.814545 107.460137 
L 66.061742 105.984 
L 68.330707 103.296 
L 68.421818 103.187965 
L 70.591509 100.608 
L 72.029091 98.896921 
L 72.547389 98.278309 
" clip-path="url(#p8a35bfff18)" style="fill: none; stroke: #000000; stroke-width: 0.5"/>
    <path d="M 95.431557 70.604797 
L 97.268448 68.352 
L 97.28 68.337817 
L 99.452411 65.664 
L 100.887273 63.895939 
L 101.632003 62.976 
L 103.805604 60.288 
L 104.494545 59.435052 
L 105.973143 57.6 
L 108.101818 54.955013 
L 108.136352 54.912 
L 110.292044 52.224 
L 111.709091 50.454901 
L 112.443394 49.536 
L 114.588855 46.848 
L 115.316364 45.935433 
L 116.728469 44.16 
L 118.863724 41.472 
" clip-path="url(#p8a35bfff18)" style="fill: none; stroke: #000000; stroke-width: 0.5"/>
   </g>
   <g id="PathCollection_15"/>
   <g id="LineCollection_1">
    <path d="M 68.153699 307.584 
L 68.153699 294.2784 
" clip-path="url(#p8a35bfff18)" style="fill: none; stroke: #000000; stroke-width: 1.5"/>
    <path d="M 84.835458 307.584 
L 84.835458 294.2784 
" clip-path="url(#p8a35bfff18)" style="fill: none; stroke: #000000; stroke-width: 1.5"/>
    <path d="M 104.170605 307.584 
L 104.170605 294.2784 
" clip-path="url(#p8a35bfff18)" style="fill: none; stroke: #000000; stroke-width: 1.5"/>
    <path d="M 123.093447 307.584 
L 123.093447 294.2784 
" clip-path="url(#p8a35bfff18)" style="fill: none; stroke: #000000; stroke-width: 1.5"/>
    <path d="M 154.229185 307.584 
L 154.229185 294.2784 
" clip-path="url(#p8a35bfff18)" style="fill: none; stroke: #000000; stroke-width: 1.5"/>
    <path d="M 185.315047 307.584 
L 185.315047 294.2784 
" clip-path="url(#p8a35bfff18)" style="fill: none; stroke: #000000; stroke-width: 1.5"/>
    <path d="M 218.366012 307.584 
L 218.366012 294.2784 
" clip-path="url(#p8a35bfff18)" style="fill: none; stroke: #000000; stroke-width: 1.5"/>
    <path d="M 294.130528 307.584 
L 294.130528 294.2784 
" clip-path="url(#p8a35bfff18)" style="fill: none; stroke: #000000; stroke-width: 1.5"/>
    <path d="M 342.443458 307.584 
L 342.443458 294.2784 
" clip-path="url(#p8a35bfff18)" style="fill: none; stroke: #000000; stroke-width: 1.5"/>
   </g>
   <g id="LineCollection_2">
    <path clip-path="url(#p8a35bfff18)" style="fill: none; stroke: #000000; stroke-width: 1.5"/>
    <path clip-path="url(#p8a35bfff18)" style="fill: none; stroke: #000000; stroke-width: 1.5"/>
    <path clip-path="url(#p8a35bfff18)" style="fill: none; stroke: #000000; stroke-width: 1.5"/>
    <path clip-path="url(#p8a35bfff18)" style="fill: none; stroke: #000000; stroke-width: 1.5"/>
    <path clip-path="url(#p8a35bfff18)" style="fill: none; stroke: #000000; stroke-width: 1.5"/>
    <path clip-path="url(#p8a35bfff18)" style="fill: none; stroke: #000000; stroke-width: 1.5"/>
    <path clip-path="url(#p8a35bfff18)" style="fill: none; stroke: #000000; stroke-width: 1.5"/>
    <path clip-path="url(#p8a35bfff18)" style="fill: none; stroke: #000000; stroke-width: 1.5"/>
    <path clip-path="url(#p8a35bfff18)" style="fill: none; stroke: #000000; stroke-width: 1.5"/>
   </g>
   <g id="patch_3">
    <path d="M 57.6 307.584 
L 57.6 41.472 
" style="fill: none; stroke: #000000; stroke-width: 0.8; stroke-linejoin: miter; stroke-linecap: square"/>
   </g>
   <g id="patch_4">
    <path d="M 414.72 307.584 
L 414.72 41.472 
" style="fill: none; stroke: #000000; stroke-width: 0.8; stroke-linejoin: miter; stroke-linecap: square"/>
   </g>
   <g id="patch_5">
    <path d="M 57.6 307.584 
L 414.72 307.584 
" style="fill: none; stroke: #000000; stroke-width: 0.8; stroke-linejoin: miter; stroke-linecap: square"/>
   </g>
   <g id="patch_6">
    <path d="M 57.6 41.472 
L 414.72 41.472 
" style="fill: none; stroke: #000000; stroke-width: 0.8; stroke-linejoin: miter; stroke-linecap: square"/>
   </g>
   <g id="text_21">
    <!-- 2D-partial dependency plot between PM and LE -->
    <g transform="translate(93.18 35.472) scale(0.12 -0.12)">
     <defs>
      <path id="DejaVuSans-44" d="M 1259 4147 
L 1259 519 
L 2022 519 
Q 2988 519 3436 956 
Q 3884 1394 3884 2338 
Q 3884 3275 3436 3711 
Q 2988 4147 2022 4147 
L 1259 4147 
z
M 628 4666 
L 1925 4666 
Q 3281 4666 3915 4102 
Q 4550 3538 4550 2338 
Q 4550 1131 3912 565 
Q 3275 0 1925 0 
L 628 0 
L 628 4666 
z
" transform="scale(0.015625)"/>
      <path id="DejaVuSans-2d" d="M 313 2009 
L 1997 2009 
L 1997 1497 
L 313 1497 
L 313 2009 
z
" transform="scale(0.015625)"/>
      <path id="DejaVuSans-72" d="M 2631 2963 
Q 2534 3019 2420 3045 
Q 2306 3072 2169 3072 
Q 1681 3072 1420 2755 
Q 1159 2438 1159 1844 
L 1159 0 
L 581 0 
L 581 3500 
L 1159 3500 
L 1159 2956 
Q 1341 3275 1631 3429 
Q 1922 3584 2338 3584 
Q 2397 3584 2469 3576 
Q 2541 3569 2628 3553 
L 2631 2963 
z
" transform="scale(0.015625)"/>
      <path id="DejaVuSans-6c" d="M 603 4863 
L 1178 4863 
L 1178 0 
L 603 0 
L 603 4863 
z
" transform="scale(0.015625)"/>
      <path id="DejaVuSans-64" d="M 2906 2969 
L 2906 4863 
L 3481 4863 
L 3481 0 
L 2906 0 
L 2906 525 
Q 2725 213 2448 61 
Q 2172 -91 1784 -91 
Q 1150 -91 751 415 
Q 353 922 353 1747 
Q 353 2572 751 3078 
Q 1150 3584 1784 3584 
Q 2172 3584 2448 3432 
Q 2725 3281 2906 2969 
z
M 947 1747 
Q 947 1113 1208 752 
Q 1469 391 1925 391 
Q 2381 391 2643 752 
Q 2906 1113 2906 1747 
Q 2906 2381 2643 2742 
Q 2381 3103 1925 3103 
Q 1469 3103 1208 2742 
Q 947 2381 947 1747 
z
" transform="scale(0.015625)"/>
      <path id="DejaVuSans-6f" d="M 1959 3097 
Q 1497 3097 1228 2736 
Q 959 2375 959 1747 
Q 959 1119 1226 758 
Q 1494 397 1959 397 
Q 2419 397 2687 759 
Q 2956 1122 2956 1747 
Q 2956 2369 2687 2733 
Q 2419 3097 1959 3097 
z
M 1959 3584 
Q 2709 3584 3137 3096 
Q 3566 2609 3566 1747 
Q 3566 888 3137 398 
Q 2709 -91 1959 -91 
Q 1206 -91 779 398 
Q 353 888 353 1747 
Q 353 2609 779 3096 
Q 1206 3584 1959 3584 
z
" transform="scale(0.015625)"/>
      <path id="DejaVuSans-62" d="M 3116 1747 
Q 3116 2381 2855 2742 
Q 2594 3103 2138 3103 
Q 1681 3103 1420 2742 
Q 1159 2381 1159 1747 
Q 1159 1113 1420 752 
Q 1681 391 2138 391 
Q 2594 391 2855 752 
Q 3116 1113 3116 1747 
z
M 1159 2969 
Q 1341 3281 1617 3432 
Q 1894 3584 2278 3584 
Q 2916 3584 3314 3078 
Q 3713 2572 3713 1747 
Q 3713 922 3314 415 
Q 2916 -91 2278 -91 
Q 1894 -91 1617 61 
Q 1341 213 1159 525 
L 1159 0 
L 581 0 
L 581 4863 
L 1159 4863 
L 1159 2969 
z
" transform="scale(0.015625)"/>
      <path id="DejaVuSans-77" d="M 269 3500 
L 844 3500 
L 1563 769 
L 2278 3500 
L 2956 3500 
L 3675 769 
L 4391 3500 
L 4966 3500 
L 4050 0 
L 3372 0 
L 2619 2869 
L 1863 0 
L 1184 0 
L 269 3500 
z
" transform="scale(0.015625)"/>
     </defs>
     <use xlink:href="#DejaVuSans-32"/>
     <use xlink:href="#DejaVuSans-44" x="63.623047"/>
     <use xlink:href="#DejaVuSans-2d" x="140.625"/>
     <use xlink:href="#DejaVuSans-70" x="176.708984"/>
     <use xlink:href="#DejaVuSans-61" x="240.185547"/>
     <use xlink:href="#DejaVuSans-72" x="301.464844"/>
     <use xlink:href="#DejaVuSans-74" x="342.578125"/>
     <use xlink:href="#DejaVuSans-69" x="381.787109"/>
     <use xlink:href="#DejaVuSans-61" x="409.570312"/>
     <use xlink:href="#DejaVuSans-6c" x="470.849609"/>
     <use xlink:href="#DejaVuSans-20" x="498.632812"/>
     <use xlink:href="#DejaVuSans-64" x="530.419922"/>
     <use xlink:href="#DejaVuSans-65" x="593.896484"/>
     <use xlink:href="#DejaVuSans-70" x="655.419922"/>
     <use xlink:href="#DejaVuSans-65" x="718.896484"/>
     <use xlink:href="#DejaVuSans-6e" x="780.419922"/>
     <use xlink:href="#DejaVuSans-64" x="843.798828"/>
     <use xlink:href="#DejaVuSans-65" x="907.275391"/>
     <use xlink:href="#DejaVuSans-6e" x="968.798828"/>
     <use xlink:href="#DejaVuSans-63" x="1032.177734"/>
     <use xlink:href="#DejaVuSans-79" x="1087.158203"/>
     <use xlink:href="#DejaVuSans-20" x="1146.337891"/>
     <use xlink:href="#DejaVuSans-70" x="1178.125"/>
     <use xlink:href="#DejaVuSans-6c" x="1241.601562"/>
     <use xlink:href="#DejaVuSans-6f" x="1269.384766"/>
     <use xlink:href="#DejaVuSans-74" x="1330.566406"/>
     <use xlink:href="#DejaVuSans-20" x="1369.775391"/>
     <use xlink:href="#DejaVuSans-62" x="1401.5625"/>
     <use xlink:href="#DejaVuSans-65" x="1465.039062"/>
     <use xlink:href="#DejaVuSans-74" x="1526.5625"/>
     <use xlink:href="#DejaVuSans-77" x="1565.771484"/>
     <use xlink:href="#DejaVuSans-65" x="1647.558594"/>
     <use xlink:href="#DejaVuSans-65" x="1709.082031"/>
     <use xlink:href="#DejaVuSans-6e" x="1770.605469"/>
     <use xlink:href="#DejaVuSans-20" x="1833.984375"/>
     <use xlink:href="#DejaVuSans-50" x="1865.771484"/>
     <use xlink:href="#DejaVuSans-4d" x="1926.074219"/>
     <use xlink:href="#DejaVuSans-20" x="2012.353516"/>
     <use xlink:href="#DejaVuSans-61" x="2044.140625"/>
     <use xlink:href="#DejaVuSans-6e" x="2105.419922"/>
     <use xlink:href="#DejaVuSans-64" x="2168.798828"/>
     <use xlink:href="#DejaVuSans-20" x="2232.275391"/>
     <use xlink:href="#DejaVuSans-4c" x="2264.0625"/>
     <use xlink:href="#DejaVuSans-45" x="2319.775391"/>
    </g>
   </g>
   <g id="text_22">
    <g clip-path="url(#p8a35bfff18)">
     <!-- 8.20 -->
     <g transform="translate(363.552736 293.811193) rotate(-51.365979) scale(0.1 -0.1)">
      <use xlink:href="#DejaVuSans-38"/>
      <use xlink:href="#DejaVuSans-2e" x="63.623047"/>
      <use xlink:href="#DejaVuSans-32" x="95.410156"/>
      <use xlink:href="#DejaVuSans-30" x="159.033203"/>
     </g>
    </g>
   </g>
   <g id="text_23">
    <g clip-path="url(#p8a35bfff18)">
     <!-- 8.93 -->
     <g transform="translate(314.369107 240.08294) rotate(-51.748074) scale(0.1 -0.1)">
      <defs>
       <path id="DejaVuSans-39" d="M 703 97 
L 703 672 
Q 941 559 1184 500 
Q 1428 441 1663 441 
Q 2288 441 2617 861 
Q 2947 1281 2994 2138 
Q 2813 1869 2534 1725 
Q 2256 1581 1919 1581 
Q 1219 1581 811 2004 
Q 403 2428 403 3163 
Q 403 3881 828 4315 
Q 1253 4750 1959 4750 
Q 2769 4750 3195 4129 
Q 3622 3509 3622 2328 
Q 3622 1225 3098 567 
Q 2575 -91 1691 -91 
Q 1453 -91 1209 -44 
Q 966 3 703 97 
z
M 1959 2075 
Q 2384 2075 2632 2365 
Q 2881 2656 2881 3163 
Q 2881 3666 2632 3958 
Q 2384 4250 1959 4250 
Q 1534 4250 1286 3958 
Q 1038 3666 1038 3163 
Q 1038 2656 1286 2365 
Q 1534 2075 1959 2075 
z
" transform="scale(0.015625)"/>
      </defs>
      <use xlink:href="#DejaVuSans-38"/>
      <use xlink:href="#DejaVuSans-2e" x="63.623047"/>
      <use xlink:href="#DejaVuSans-39" x="95.410156"/>
      <use xlink:href="#DejaVuSans-33" x="159.033203"/>
     </g>
    </g>
   </g>
   <g id="text_24">
    <g clip-path="url(#p8a35bfff18)">
     <!-- 9.67 -->
     <g transform="translate(266.14419 189.029607) rotate(-51.975409) scale(0.1 -0.1)">
      <use xlink:href="#DejaVuSans-39"/>
      <use xlink:href="#DejaVuSans-2e" x="63.623047"/>
      <use xlink:href="#DejaVuSans-36" x="95.410156"/>
      <use xlink:href="#DejaVuSans-37" x="159.033203"/>
     </g>
    </g>
   </g>
   <g id="text_25">
    <g clip-path="url(#p8a35bfff18)">
     <!-- 10.41 -->
     <g transform="translate(202.411417 159.798149) rotate(-51.75322) scale(0.1 -0.1)">
      <use xlink:href="#DejaVuSans-31"/>
      <use xlink:href="#DejaVuSans-30" x="63.623047"/>
      <use xlink:href="#DejaVuSans-2e" x="127.246094"/>
      <use xlink:href="#DejaVuSans-34" x="159.033203"/>
      <use xlink:href="#DejaVuSans-31" x="222.65625"/>
     </g>
    </g>
   </g>
   <g id="text_26">
    <g clip-path="url(#p8a35bfff18)">
     <!-- 11.14 -->
     <g transform="translate(130.808805 140.346558) rotate(-50.982572) scale(0.1 -0.1)">
      <use xlink:href="#DejaVuSans-31"/>
      <use xlink:href="#DejaVuSans-31" x="63.623047"/>
      <use xlink:href="#DejaVuSans-2e" x="127.246094"/>
      <use xlink:href="#DejaVuSans-31" x="159.033203"/>
      <use xlink:href="#DejaVuSans-34" x="222.65625"/>
     </g>
    </g>
   </g>
   <g id="text_27">
    <g clip-path="url(#p8a35bfff18)">
     <!-- 11.88 -->
     <g transform="translate(77.040342 97.269361) rotate(-50.410603) scale(0.1 -0.1)">
      <use xlink:href="#DejaVuSans-31"/>
      <use xlink:href="#DejaVuSans-31" x="63.623047"/>
      <use xlink:href="#DejaVuSans-2e" x="127.246094"/>
      <use xlink:href="#DejaVuSans-38" x="159.033203"/>
      <use xlink:href="#DejaVuSans-38" x="222.65625"/>
     </g>
    </g>
   </g>
  </g>
 </g>
 <defs>
  <clipPath id="p8a35bfff18">
   <rect x="57.6" y="41.472" width="357.12" height="266.112"/>
  </clipPath>
 </defs>
</svg>
