<?xml version="1.0" encoding="utf-8" standalone="no"?>
<!DOCTYPE svg PUBLIC "-//W3C//DTD SVG 1.1//EN"
  "http://www.w3.org/Graphics/SVG/1.1/DTD/svg11.dtd">
<svg xmlns:xlink="http://www.w3.org/1999/xlink" width="460.8pt" height="345.6pt" viewBox="0 0 460.8 345.6" xmlns="http://www.w3.org/2000/svg" version="1.1">
 <metadata>
  <rdf:RDF xmlns:dc="http://purl.org/dc/elements/1.1/" xmlns:cc="http://creativecommons.org/ns#" xmlns:rdf="http://www.w3.org/1999/02/22-rdf-syntax-ns#">
   <cc:Work>
    <dc:type rdf:resource="http://purl.org/dc/dcmitype/StillImage"/>
    <dc:date>2024-04-22T00:55:43.000185</dc:date>
    <dc:format>image/svg+xml</dc:format>
    <dc:creator>
     <cc:Agent>
      <dc:title>Matplotlib v3.7.0, https://matplotlib.org/</dc:title>
     </cc:Agent>
    </dc:creator>
   </cc:Work>
  </rdf:RDF>
 </metadata>
 <defs>
  <style type="text/css">*{stroke-linejoin: round; stroke-linecap: butt}</style>
 </defs>
 <g id="figure_1">
  <g id="patch_1">
   <path d="M 0 345.6 
L 460.8 345.6 
L 460.8 0 
L 0 0 
L 0 345.6 
z
" style="fill: none"/>
  </g>
  <g id="axes_1"/>
  <g id="axes_2">
   <g id="patch_2">
    <path d="M 57.6 307.584 
L 414.72 307.584 
L 414.72 41.472 
L 57.6 41.472 
L 57.6 307.584 
z
" style="fill: none"/>
   </g>
   <g id="PathCollection_1">
    <path d="M 61.207273 70.141667 
L 64.814545 70.14158 
L 68.421818 70.141493 
L 72.029091 70.141407 
L 75.636364 70.141321 
L 79.243636 70.141235 
L 82.850909 70.141148 
L 86.458182 70.141063 
L 90.065455 70.140977 
L 93.672727 70.140891 
L 97.28 70.140805 
L 100.887273 70.14072 
L 104.494545 70.140634 
L 108.101818 70.140549 
L 111.709091 70.140464 
L 115.316364 70.140379 
L 118.923636 70.140294 
L 122.530909 70.140209 
L 126.138182 70.140124 
L 129.745455 70.140039 
L 133.352727 70.139955 
L 136.96 70.13987 
L 140.567273 70.139786 
L 144.174545 70.139702 
L 147.781818 70.139618 
L 151.389091 70.139534 
L 154.996364 70.13945 
L 158.603636 70.139366 
L 162.210909 70.139283 
L 165.818182 70.139199 
L 169.425455 70.139116 
L 173.032727 70.139032 
L 176.64 70.138949 
L 180.247273 70.138866 
L 183.854545 70.138783 
L 187.461818 70.1387 
L 191.069091 70.138617 
L 194.676364 70.138535 
L 198.283636 70.138452 
L 201.890909 70.13837 
L 205.498182 70.138287 
L 209.105455 70.138205 
L 212.712727 70.138123 
L 216.32 70.138041 
L 219.927273 70.137959 
L 223.534545 70.137877 
L 227.141818 70.137795 
L 230.749091 70.137714 
L 234.356364 70.137632 
L 237.963636 70.137551 
L 241.570909 70.13747 
L 245.178182 70.137389 
L 248.785455 70.137308 
L 252.392727 70.137227 
L 256 70.137146 
L 259.607273 70.137065 
L 263.214545 70.136985 
L 266.821818 70.136904 
L 270.429091 70.136824 
L 274.036364 70.136744 
L 277.643636 70.136663 
L 281.250909 70.136583 
L 284.858182 70.136503 
L 288.465455 70.136424 
L 292.072727 70.136344 
L 295.68 70.136264 
L 299.287273 70.136185 
L 302.894545 70.136106 
L 306.501818 70.136026 
L 310.109091 70.135947 
L 313.716364 70.135868 
L 317.323636 70.135789 
L 320.930909 70.13571 
L 324.538182 70.135632 
L 328.145455 70.135553 
L 331.752727 70.135475 
L 335.36 70.135396 
L 338.967273 70.135318 
L 342.574545 70.13524 
L 346.181818 70.135162 
L 349.789091 70.135084 
L 353.396364 70.135006 
L 357.003636 70.134928 
L 360.610909 70.134851 
L 364.218182 70.134773 
L 367.825455 70.134696 
L 371.432727 70.134618 
L 375.04 70.134541 
L 378.647273 70.134464 
L 382.254545 70.134387 
L 385.861818 70.13431 
L 389.469091 70.134234 
L 393.076364 70.134157 
L 396.683636 70.13408 
L 400.290909 70.134004 
L 403.898182 70.133928 
L 407.505455 70.133852 
L 411.112727 70.133775 
L 414.72 70.1337 
L 414.72 68.352 
L 414.72 65.664 
L 414.72 62.976 
L 414.72 60.288 
L 414.72 57.6 
L 414.72 54.912 
L 414.72 52.224 
L 414.72 49.536 
L 414.72 46.848 
L 414.72 44.16 
L 414.72 41.472 
L 411.112727 41.472 
L 407.505455 41.472 
L 403.898182 41.472 
L 400.290909 41.472 
L 396.683636 41.472 
L 393.076364 41.472 
L 389.469091 41.472 
L 385.861818 41.472 
L 382.254545 41.472 
L 378.647273 41.472 
L 375.04 41.472 
L 371.432727 41.472 
L 367.825455 41.472 
L 364.218182 41.472 
L 360.610909 41.472 
L 357.003636 41.472 
L 353.396364 41.472 
L 349.789091 41.472 
L 346.181818 41.472 
L 342.574545 41.472 
L 338.967273 41.472 
L 335.36 41.472 
L 331.752727 41.472 
L 328.145455 41.472 
L 324.538182 41.472 
L 320.930909 41.472 
L 317.323636 41.472 
L 313.716364 41.472 
L 310.109091 41.472 
L 306.501818 41.472 
L 302.894545 41.472 
L 299.287273 41.472 
L 295.68 41.472 
L 292.072727 41.472 
L 288.465455 41.472 
L 284.858182 41.472 
L 281.250909 41.472 
L 277.643636 41.472 
L 274.036364 41.472 
L 270.429091 41.472 
L 266.821818 41.472 
L 263.214545 41.472 
L 259.607273 41.472 
L 256 41.472 
L 252.392727 41.472 
L 248.785455 41.472 
L 245.178182 41.472 
L 241.570909 41.472 
L 237.963636 41.472 
L 234.356364 41.472 
L 230.749091 41.472 
L 227.141818 41.472 
L 223.534545 41.472 
L 219.927273 41.472 
L 216.32 41.472 
L 212.712727 41.472 
L 209.105455 41.472 
L 205.498182 41.472 
L 201.890909 41.472 
L 198.283636 41.472 
L 194.676364 41.472 
L 191.069091 41.472 
L 187.461818 41.472 
L 183.854545 41.472 
L 180.247273 41.472 
L 176.64 41.472 
L 173.032727 41.472 
L 169.425455 41.472 
L 165.818182 41.472 
L 162.210909 41.472 
L 158.603636 41.472 
L 154.996364 41.472 
L 151.389091 41.472 
L 147.781818 41.472 
L 144.174545 41.472 
L 140.567273 41.472 
L 136.96 41.472 
L 133.352727 41.472 
L 129.745455 41.472 
L 126.138182 41.472 
L 122.530909 41.472 
L 118.923636 41.472 
L 115.316364 41.472 
L 111.709091 41.472 
L 108.101818 41.472 
L 104.494545 41.472 
L 100.887273 41.472 
L 97.28 41.472 
L 93.672727 41.472 
L 90.065455 41.472 
L 86.458182 41.472 
L 82.850909 41.472 
L 79.243636 41.472 
L 75.636364 41.472 
L 72.029091 41.472 
L 68.421818 41.472 
L 64.814545 41.472 
L 61.207273 41.472 
L 57.6 41.472 
L 57.6 44.16 
L 57.6 46.848 
L 57.6 49.536 
L 57.6 52.224 
L 57.6 54.912 
L 57.6 57.6 
L 57.6 60.288 
L 57.6 62.976 
L 57.6 65.664 
L 57.6 68.352 
L 57.6 70.141753 
z
" clip-path="url(#pf7a793b5f1)" style="fill: #481b6d; fill-opacity: 0.75"/>
   </g>
   <g id="PathCollection_2">
    <path d="M 61.207273 111.798691 
L 64.814545 111.798603 
L 68.421818 111.798514 
L 72.029091 111.798426 
L 75.636364 111.798338 
L 79.243636 111.79825 
L 82.850909 111.798163 
L 86.458182 111.798075 
L 90.065455 111.797988 
L 93.672727 111.7979 
L 97.28 111.797813 
L 100.887273 111.797726 
L 104.494545 111.797639 
L 108.101818 111.797552 
L 111.709091 111.797466 
L 115.316364 111.797379 
L 118.923636 111.797293 
L 122.530909 111.797207 
L 126.138182 111.797121 
L 129.745455 111.797035 
L 133.352727 111.796949 
L 136.96 111.796863 
L 140.567273 111.796778 
L 144.174545 111.796692 
L 147.781818 111.796607 
L 151.389091 111.796522 
L 154.996364 111.796437 
L 158.603636 111.796352 
L 162.210909 111.796267 
L 165.818182 111.796183 
L 169.425455 111.796098 
L 173.032727 111.796014 
L 176.64 111.79593 
L 180.247273 111.795846 
L 183.854545 111.795762 
L 187.461818 111.795678 
L 191.069091 111.795595 
L 194.676364 111.795511 
L 198.283636 111.795428 
L 201.890909 111.795345 
L 205.498182 111.795262 
L 209.105455 111.795179 
L 212.712727 111.795096 
L 216.32 111.795013 
L 219.927273 111.794931 
L 223.534545 111.794849 
L 227.141818 111.794766 
L 230.749091 111.794684 
L 234.356364 111.794602 
L 237.963636 111.794521 
L 241.570909 111.794439 
L 245.178182 111.794357 
L 248.785455 111.794276 
L 252.392727 111.794195 
L 256 111.794114 
L 259.607273 111.794033 
L 263.214545 111.793952 
L 266.821818 111.793871 
L 270.429091 111.793791 
L 274.036364 111.79371 
L 277.643636 111.79363 
L 281.250909 111.79355 
L 284.858182 111.79347 
L 288.465455 111.79339 
L 292.072727 111.79331 
L 295.68 111.79323 
L 299.287273 111.793151 
L 302.894545 111.793072 
L 306.501818 111.792992 
L 310.109091 111.792913 
L 313.716364 111.792834 
L 317.323636 111.792756 
L 320.930909 111.792677 
L 324.538182 111.792599 
L 328.145455 111.79252 
L 331.752727 111.792442 
L 335.36 111.792364 
L 338.967273 111.792286 
L 342.574545 111.792208 
L 346.181818 111.79213 
L 349.789091 111.792053 
L 353.396364 111.791976 
L 357.003636 111.791898 
L 360.610909 111.791821 
L 364.218182 111.791744 
L 367.825455 111.791667 
L 371.432727 111.791591 
L 375.04 111.791514 
L 378.647273 111.791438 
L 382.254545 111.791361 
L 385.861818 111.791285 
L 389.469091 111.791209 
L 393.076364 111.791133 
L 396.683636 111.791057 
L 400.290909 111.790982 
L 403.898182 111.790906 
L 407.505455 111.790831 
L 411.112727 111.790756 
L 414.72 111.790681 
L 414.72 111.36 
L 414.72 108.672 
L 414.72 105.984 
L 414.72 103.296 
L 414.72 100.608 
L 414.72 97.92 
L 414.72 95.232 
L 414.72 92.544 
L 414.72 89.856 
L 414.72 87.168 
L 414.72 84.48 
L 414.72 81.792 
L 414.72 79.104 
L 414.72 76.416 
L 414.72 73.728 
L 414.72 71.04 
L 414.72 70.1337 
L 411.112727 70.133775 
L 407.505455 70.133852 
L 403.898182 70.133928 
L 400.290909 70.134004 
L 396.683636 70.13408 
L 393.076364 70.134157 
L 389.469091 70.134234 
L 385.861818 70.13431 
L 382.254545 70.134387 
L 378.647273 70.134464 
L 375.04 70.134541 
L 371.432727 70.134618 
L 367.825455 70.134696 
L 364.218182 70.134773 
L 360.610909 70.134851 
L 357.003636 70.134928 
L 353.396364 70.135006 
L 349.789091 70.135084 
L 346.181818 70.135162 
L 342.574545 70.13524 
L 338.967273 70.135318 
L 335.36 70.135396 
L 331.752727 70.135475 
L 328.145455 70.135553 
L 324.538182 70.135632 
L 320.930909 70.13571 
L 317.323636 70.135789 
L 313.716364 70.135868 
L 310.109091 70.135947 
L 306.501818 70.136026 
L 302.894545 70.136106 
L 299.287273 70.136185 
L 295.68 70.136264 
L 292.072727 70.136344 
L 288.465455 70.136424 
L 284.858182 70.136503 
L 281.250909 70.136583 
L 277.643636 70.136663 
L 274.036364 70.136744 
L 270.429091 70.136824 
L 266.821818 70.136904 
L 263.214545 70.136985 
L 259.607273 70.137065 
L 256 70.137146 
L 252.392727 70.137227 
L 248.785455 70.137308 
L 245.178182 70.137389 
L 241.570909 70.13747 
L 237.963636 70.137551 
L 234.356364 70.137632 
L 230.749091 70.137714 
L 227.141818 70.137795 
L 223.534545 70.137877 
L 219.927273 70.137959 
L 216.32 70.138041 
L 212.712727 70.138123 
L 209.105455 70.138205 
L 205.498182 70.138287 
L 201.890909 70.13837 
L 198.283636 70.138452 
L 194.676364 70.138535 
L 191.069091 70.138617 
L 187.461818 70.1387 
L 183.854545 70.138783 
L 180.247273 70.138866 
L 176.64 70.138949 
L 173.032727 70.139032 
L 169.425455 70.139116 
L 165.818182 70.139199 
L 162.210909 70.139283 
L 158.603636 70.139366 
L 154.996364 70.13945 
L 151.389091 70.139534 
L 147.781818 70.139618 
L 144.174545 70.139702 
L 140.567273 70.139786 
L 136.96 70.13987 
L 133.352727 70.139955 
L 129.745455 70.140039 
L 126.138182 70.140124 
L 122.530909 70.140209 
L 118.923636 70.140294 
L 115.316364 70.140379 
L 111.709091 70.140464 
L 108.101818 70.140549 
L 104.494545 70.140634 
L 100.887273 70.14072 
L 97.28 70.140805 
L 93.672727 70.140891 
L 90.065455 70.140977 
L 86.458182 70.141063 
L 82.850909 70.141148 
L 79.243636 70.141235 
L 75.636364 70.141321 
L 72.029091 70.141407 
L 68.421818 70.141493 
L 64.814545 70.14158 
L 61.207273 70.141667 
L 57.6 70.141753 
L 57.6 71.04 
L 57.6 73.728 
L 57.6 76.416 
L 57.6 79.104 
L 57.6 81.792 
L 57.6 84.48 
L 57.6 87.168 
L 57.6 89.856 
L 57.6 92.544 
L 57.6 95.232 
L 57.6 97.92 
L 57.6 100.608 
L 57.6 103.296 
L 57.6 105.984 
L 57.6 108.672 
L 57.6 111.36 
L 57.6 111.79878 
z
" clip-path="url(#pf7a793b5f1)" style="fill: #3f4788; fill-opacity: 0.75"/>
   </g>
   <g id="PathCollection_3">
    <path d="M 61.207273 153.211445 
L 64.814545 153.211354 
L 68.421818 153.211264 
L 72.029091 153.211173 
L 75.636364 153.211083 
L 79.243636 153.210994 
L 82.850909 153.210904 
L 86.458182 153.210814 
L 90.065455 153.210725 
L 93.672727 153.210636 
L 97.28 153.210547 
L 100.887273 153.210458 
L 104.494545 153.210369 
L 108.101818 153.21028 
L 111.709091 153.210192 
L 115.316364 153.210104 
L 118.923636 153.210016 
L 122.530909 153.209928 
L 126.138182 153.20984 
L 129.745455 153.209752 
L 133.352727 153.209665 
L 136.96 153.209578 
L 140.567273 153.209491 
L 144.174545 153.209404 
L 147.781818 153.209317 
L 151.389091 153.209231 
L 154.996364 153.209144 
L 158.603636 153.209058 
L 162.210909 153.208972 
L 165.818182 153.208886 
L 169.425455 153.2088 
L 173.032727 153.208715 
L 176.64 153.208629 
L 180.247273 153.208544 
L 183.854545 153.208459 
L 187.461818 153.208374 
L 191.069091 153.208289 
L 194.676364 153.208205 
L 198.283636 153.20812 
L 201.890909 153.208036 
L 205.498182 153.207952 
L 209.105455 153.207868 
L 212.712727 153.207784 
L 216.32 153.207701 
L 219.927273 153.207617 
L 223.534545 153.207534 
L 227.141818 153.207451 
L 230.749091 153.207368 
L 234.356364 153.207285 
L 237.963636 153.207203 
L 241.570909 153.20712 
L 245.178182 153.207038 
L 248.785455 153.206956 
L 252.392727 153.206874 
L 256 153.206792 
L 259.607273 153.206711 
L 263.214545 153.206629 
L 266.821818 153.206548 
L 270.429091 153.206467 
L 274.036364 153.206386 
L 277.643636 153.206305 
L 281.250909 153.206224 
L 284.858182 153.206144 
L 288.465455 153.206064 
L 292.072727 153.205984 
L 295.68 153.205904 
L 299.287273 153.205824 
L 302.894545 153.205744 
L 306.501818 153.205665 
L 310.109091 153.205586 
L 313.716364 153.205507 
L 317.323636 153.205428 
L 320.930909 153.205349 
L 324.538182 153.20527 
L 328.145455 153.205192 
L 331.752727 153.205114 
L 335.36 153.205035 
L 338.967273 153.204957 
L 342.574545 153.20488 
L 346.181818 153.204802 
L 349.789091 153.204725 
L 353.396364 153.204647 
L 357.003636 153.20457 
L 360.610909 153.204493 
L 364.218182 153.204417 
L 367.825455 153.20434 
L 371.432727 153.204263 
L 375.04 153.204187 
L 378.647273 153.204111 
L 382.254545 153.204035 
L 385.861818 153.203959 
L 389.469091 153.203884 
L 393.076364 153.203808 
L 396.683636 153.203733 
L 400.290909 153.203658 
L 403.898182 153.203583 
L 407.505455 153.203508 
L 411.112727 153.203433 
L 414.72 153.203359 
L 414.72 151.68 
L 414.72 148.992 
L 414.72 146.304 
L 414.72 143.616 
L 414.72 140.928 
L 414.72 138.24 
L 414.72 135.552 
L 414.72 132.864 
L 414.72 130.176 
L 414.72 127.488 
L 414.72 124.8 
L 414.72 122.112 
L 414.72 119.424 
L 414.72 116.736 
L 414.72 114.048 
L 414.72 111.790681 
L 411.112727 111.790756 
L 407.505455 111.790831 
L 403.898182 111.790906 
L 400.290909 111.790982 
L 396.683636 111.791057 
L 393.076364 111.791133 
L 389.469091 111.791209 
L 385.861818 111.791285 
L 382.254545 111.791361 
L 378.647273 111.791438 
L 375.04 111.791514 
L 371.432727 111.791591 
L 367.825455 111.791667 
L 364.218182 111.791744 
L 360.610909 111.791821 
L 357.003636 111.791898 
L 353.396364 111.791976 
L 349.789091 111.792053 
L 346.181818 111.79213 
L 342.574545 111.792208 
L 338.967273 111.792286 
L 335.36 111.792364 
L 331.752727 111.792442 
L 328.145455 111.79252 
L 324.538182 111.792599 
L 320.930909 111.792677 
L 317.323636 111.792756 
L 313.716364 111.792834 
L 310.109091 111.792913 
L 306.501818 111.792992 
L 302.894545 111.793072 
L 299.287273 111.793151 
L 295.68 111.79323 
L 292.072727 111.79331 
L 288.465455 111.79339 
L 284.858182 111.79347 
L 281.250909 111.79355 
L 277.643636 111.79363 
L 274.036364 111.79371 
L 270.429091 111.793791 
L 266.821818 111.793871 
L 263.214545 111.793952 
L 259.607273 111.794033 
L 256 111.794114 
L 252.392727 111.794195 
L 248.785455 111.794276 
L 245.178182 111.794357 
L 241.570909 111.794439 
L 237.963636 111.794521 
L 234.356364 111.794602 
L 230.749091 111.794684 
L 227.141818 111.794766 
L 223.534545 111.794849 
L 219.927273 111.794931 
L 216.32 111.795013 
L 212.712727 111.795096 
L 209.105455 111.795179 
L 205.498182 111.795262 
L 201.890909 111.795345 
L 198.283636 111.795428 
L 194.676364 111.795511 
L 191.069091 111.795595 
L 187.461818 111.795678 
L 183.854545 111.795762 
L 180.247273 111.795846 
L 176.64 111.79593 
L 173.032727 111.796014 
L 169.425455 111.796098 
L 165.818182 111.796183 
L 162.210909 111.796267 
L 158.603636 111.796352 
L 154.996364 111.796437 
L 151.389091 111.796522 
L 147.781818 111.796607 
L 144.174545 111.796692 
L 140.567273 111.796778 
L 136.96 111.796863 
L 133.352727 111.796949 
L 129.745455 111.797035 
L 126.138182 111.797121 
L 122.530909 111.797207 
L 118.923636 111.797293 
L 115.316364 111.797379 
L 111.709091 111.797466 
L 108.101818 111.797552 
L 104.494545 111.797639 
L 100.887273 111.797726 
L 97.28 111.797813 
L 93.672727 111.7979 
L 90.065455 111.797988 
L 86.458182 111.798075 
L 82.850909 111.798163 
L 79.243636 111.79825 
L 75.636364 111.798338 
L 72.029091 111.798426 
L 68.421818 111.798514 
L 64.814545 111.798603 
L 61.207273 111.798691 
L 57.6 111.79878 
L 57.6 114.048 
L 57.6 116.736 
L 57.6 119.424 
L 57.6 122.112 
L 57.6 124.8 
L 57.6 127.488 
L 57.6 130.176 
L 57.6 132.864 
L 57.6 135.552 
L 57.6 138.24 
L 57.6 140.928 
L 57.6 143.616 
L 57.6 146.304 
L 57.6 148.992 
L 57.6 151.68 
L 57.6 153.211535 
z
" clip-path="url(#pf7a793b5f1)" style="fill: #2e6e8e; fill-opacity: 0.75"/>
   </g>
   <g id="PathCollection_4">
    <path d="M 61.207273 194.621127 
L 64.814545 194.621034 
L 68.421818 194.620942 
L 72.029091 194.620849 
L 75.636364 194.620757 
L 79.243636 194.620664 
L 82.850909 194.620572 
L 86.458182 194.62048 
L 90.065455 194.620389 
L 93.672727 194.620297 
L 97.28 194.620206 
L 100.887273 194.620115 
L 104.494545 194.620024 
L 108.101818 194.619933 
L 111.709091 194.619843 
L 115.316364 194.619753 
L 118.923636 194.619662 
L 122.530909 194.619573 
L 126.138182 194.619483 
L 129.745455 194.619393 
L 133.352727 194.619304 
L 136.96 194.619215 
L 140.567273 194.619126 
L 144.174545 194.619037 
L 147.781818 194.618949 
L 151.389091 194.61886 
L 154.996364 194.618772 
L 158.603636 194.618684 
L 162.210909 194.618596 
L 165.818182 194.618509 
L 169.425455 194.618422 
L 173.032727 194.618334 
L 176.64 194.618247 
L 180.247273 194.618161 
L 183.854545 194.618074 
L 187.461818 194.617988 
L 191.069091 194.617901 
L 194.676364 194.617815 
L 198.283636 194.61773 
L 201.890909 194.617644 
L 205.498182 194.617559 
L 209.105455 194.617473 
L 212.712727 194.617388 
L 216.32 194.617303 
L 219.927273 194.617219 
L 223.534545 194.617134 
L 227.141818 194.61705 
L 230.749091 194.616966 
L 234.356364 194.616882 
L 237.963636 194.616799 
L 241.570909 194.616715 
L 245.178182 194.616632 
L 248.785455 194.616549 
L 252.392727 194.616466 
L 256 194.616383 
L 259.607273 194.616301 
L 263.214545 194.616218 
L 266.821818 194.616136 
L 270.429091 194.616054 
L 274.036364 194.615973 
L 277.643636 194.615891 
L 281.250909 194.61581 
L 284.858182 194.615729 
L 288.465455 194.615648 
L 292.072727 194.615567 
L 295.68 194.615487 
L 299.287273 194.615406 
L 302.894545 194.615326 
L 306.501818 194.615246 
L 310.109091 194.615166 
L 313.716364 194.615087 
L 317.323636 194.615007 
L 320.930909 194.614928 
L 324.538182 194.614849 
L 328.145455 194.61477 
L 331.752727 194.614692 
L 335.36 194.614613 
L 338.967273 194.614535 
L 342.574545 194.614457 
L 346.181818 194.614379 
L 349.789091 194.614302 
L 353.396364 194.614224 
L 357.003636 194.614147 
L 360.610909 194.61407 
L 364.218182 194.613993 
L 367.825455 194.613917 
L 371.432727 194.61384 
L 375.04 194.613764 
L 378.647273 194.613688 
L 382.254545 194.613612 
L 385.861818 194.613536 
L 389.469091 194.613461 
L 393.076364 194.613386 
L 396.683636 194.613311 
L 400.290909 194.613236 
L 403.898182 194.613161 
L 407.505455 194.613087 
L 411.112727 194.613012 
L 414.72 194.612938 
L 414.72 192 
L 414.72 189.312 
L 414.72 186.624 
L 414.72 183.936 
L 414.72 181.248 
L 414.72 178.56 
L 414.72 175.872 
L 414.72 173.184 
L 414.72 170.496 
L 414.72 167.808 
L 414.72 165.12 
L 414.72 162.432 
L 414.72 159.744 
L 414.72 157.056 
L 414.72 154.368 
L 414.72 153.203359 
L 411.112727 153.203433 
L 407.505455 153.203508 
L 403.898182 153.203583 
L 400.290909 153.203658 
L 396.683636 153.203733 
L 393.076364 153.203808 
L 389.469091 153.203884 
L 385.861818 153.203959 
L 382.254545 153.204035 
L 378.647273 153.204111 
L 375.04 153.204187 
L 371.432727 153.204263 
L 367.825455 153.20434 
L 364.218182 153.204417 
L 360.610909 153.204493 
L 357.003636 153.20457 
L 353.396364 153.204647 
L 349.789091 153.204725 
L 346.181818 153.204802 
L 342.574545 153.20488 
L 338.967273 153.204957 
L 335.36 153.205035 
L 331.752727 153.205114 
L 328.145455 153.205192 
L 324.538182 153.20527 
L 320.930909 153.205349 
L 317.323636 153.205428 
L 313.716364 153.205507 
L 310.109091 153.205586 
L 306.501818 153.205665 
L 302.894545 153.205744 
L 299.287273 153.205824 
L 295.68 153.205904 
L 292.072727 153.205984 
L 288.465455 153.206064 
L 284.858182 153.206144 
L 281.250909 153.206224 
L 277.643636 153.206305 
L 274.036364 153.206386 
L 270.429091 153.206467 
L 266.821818 153.206548 
L 263.214545 153.206629 
L 259.607273 153.206711 
L 256 153.206792 
L 252.392727 153.206874 
L 248.785455 153.206956 
L 245.178182 153.207038 
L 241.570909 153.20712 
L 237.963636 153.207203 
L 234.356364 153.207285 
L 230.749091 153.207368 
L 227.141818 153.207451 
L 223.534545 153.207534 
L 219.927273 153.207617 
L 216.32 153.207701 
L 212.712727 153.207784 
L 209.105455 153.207868 
L 205.498182 153.207952 
L 201.890909 153.208036 
L 198.283636 153.20812 
L 194.676364 153.208205 
L 191.069091 153.208289 
L 187.461818 153.208374 
L 183.854545 153.208459 
L 180.247273 153.208544 
L 176.64 153.208629 
L 173.032727 153.208715 
L 169.425455 153.2088 
L 165.818182 153.208886 
L 162.210909 153.208972 
L 158.603636 153.209058 
L 154.996364 153.209144 
L 151.389091 153.209231 
L 147.781818 153.209317 
L 144.174545 153.209404 
L 140.567273 153.209491 
L 136.96 153.209578 
L 133.352727 153.209665 
L 129.745455 153.209752 
L 126.138182 153.20984 
L 122.530909 153.209928 
L 118.923636 153.210016 
L 115.316364 153.210104 
L 111.709091 153.210192 
L 108.101818 153.21028 
L 104.494545 153.210369 
L 100.887273 153.210458 
L 97.28 153.210547 
L 93.672727 153.210636 
L 90.065455 153.210725 
L 86.458182 153.210814 
L 82.850909 153.210904 
L 79.243636 153.210994 
L 75.636364 153.211083 
L 72.029091 153.211173 
L 68.421818 153.211264 
L 64.814545 153.211354 
L 61.207273 153.211445 
L 57.6 153.211535 
L 57.6 154.368 
L 57.6 157.056 
L 57.6 159.744 
L 57.6 162.432 
L 57.6 165.12 
L 57.6 167.808 
L 57.6 170.496 
L 57.6 173.184 
L 57.6 175.872 
L 57.6 178.56 
L 57.6 181.248 
L 57.6 183.936 
L 57.6 186.624 
L 57.6 189.312 
L 57.6 192 
L 57.6 194.621221 
z
" clip-path="url(#pf7a793b5f1)" style="fill: #21918c; fill-opacity: 0.75"/>
   </g>
   <g id="PathCollection_5">
    <path d="M 61.207273 236.271814 
L 64.814545 236.271718 
L 68.421818 236.271623 
L 72.029091 236.271527 
L 75.636364 236.271432 
L 79.243636 236.271337 
L 82.850909 236.271242 
L 86.458182 236.271148 
L 90.065455 236.271053 
L 93.672727 236.270959 
L 97.28 236.270865 
L 100.887273 236.270771 
L 104.494545 236.270678 
L 108.101818 236.270585 
L 111.709091 236.270492 
L 115.316364 236.270399 
L 118.923636 236.270306 
L 122.530909 236.270214 
L 126.138182 236.270122 
L 129.745455 236.27003 
L 133.352727 236.269938 
L 136.96 236.269847 
L 140.567273 236.269756 
L 144.174545 236.269665 
L 147.781818 236.269574 
L 151.389091 236.269483 
L 154.996364 236.269393 
L 158.603636 236.269303 
L 162.210909 236.269213 
L 165.818182 236.269124 
L 169.425455 236.269034 
L 173.032727 236.268945 
L 176.64 236.268856 
L 180.247273 236.268767 
L 183.854545 236.268679 
L 187.461818 236.268591 
L 191.069091 236.268502 
L 194.676364 236.268415 
L 198.283636 236.268327 
L 201.890909 236.26824 
L 205.498182 236.268153 
L 209.105455 236.268066 
L 212.712727 236.267979 
L 216.32 236.267892 
L 219.927273 236.267806 
L 223.534545 236.26772 
L 227.141818 236.267634 
L 230.749091 236.267549 
L 234.356364 236.267464 
L 237.963636 236.267378 
L 241.570909 236.267294 
L 245.178182 236.267209 
L 248.785455 236.267124 
L 252.392727 236.26704 
L 256 236.266956 
L 259.607273 236.266873 
L 263.214545 236.266789 
L 266.821818 236.266706 
L 270.429091 236.266623 
L 274.036364 236.26654 
L 277.643636 236.266457 
L 281.250909 236.266375 
L 284.858182 236.266293 
L 288.465455 236.266211 
L 292.072727 236.266129 
L 295.68 236.266047 
L 299.287273 236.265966 
L 302.894545 236.265885 
L 306.501818 236.265804 
L 310.109091 236.265724 
L 313.716364 236.265643 
L 317.323636 236.265563 
L 320.930909 236.265483 
L 324.538182 236.265404 
L 328.145455 236.265324 
L 331.752727 236.265245 
L 335.36 236.265166 
L 338.967273 236.265087 
L 342.574545 236.265009 
L 346.181818 236.26493 
L 349.789091 236.264852 
L 353.396364 236.264774 
L 357.003636 236.264697 
L 360.610909 236.264619 
L 364.218182 236.264542 
L 367.825455 236.264465 
L 371.432727 236.264388 
L 375.04 236.264312 
L 378.647273 236.264235 
L 382.254545 236.264159 
L 385.861818 236.264083 
L 389.469091 236.264008 
L 393.076364 236.263932 
L 396.683636 236.263857 
L 400.290909 236.263782 
L 403.898182 236.263708 
L 407.505455 236.263633 
L 411.112727 236.263559 
L 414.72 236.263485 
L 414.72 235.008 
L 414.72 232.32 
L 414.72 229.632 
L 414.72 226.944 
L 414.72 224.256 
L 414.72 221.568 
L 414.72 218.88 
L 414.72 216.192 
L 414.72 213.504 
L 414.72 210.816 
L 414.72 208.128 
L 414.72 205.44 
L 414.72 202.752 
L 414.72 200.064 
L 414.72 197.376 
L 414.72 194.688 
L 414.72 194.612938 
L 411.112727 194.613012 
L 407.505455 194.613087 
L 403.898182 194.613161 
L 400.290909 194.613236 
L 396.683636 194.613311 
L 393.076364 194.613386 
L 389.469091 194.613461 
L 385.861818 194.613536 
L 382.254545 194.613612 
L 378.647273 194.613688 
L 375.04 194.613764 
L 371.432727 194.61384 
L 367.825455 194.613917 
L 364.218182 194.613993 
L 360.610909 194.61407 
L 357.003636 194.614147 
L 353.396364 194.614224 
L 349.789091 194.614302 
L 346.181818 194.614379 
L 342.574545 194.614457 
L 338.967273 194.614535 
L 335.36 194.614613 
L 331.752727 194.614692 
L 328.145455 194.61477 
L 324.538182 194.614849 
L 320.930909 194.614928 
L 317.323636 194.615007 
L 313.716364 194.615087 
L 310.109091 194.615166 
L 306.501818 194.615246 
L 302.894545 194.615326 
L 299.287273 194.615406 
L 295.68 194.615487 
L 292.072727 194.615567 
L 288.465455 194.615648 
L 284.858182 194.615729 
L 281.250909 194.61581 
L 277.643636 194.615891 
L 274.036364 194.615973 
L 270.429091 194.616054 
L 266.821818 194.616136 
L 263.214545 194.616218 
L 259.607273 194.616301 
L 256 194.616383 
L 252.392727 194.616466 
L 248.785455 194.616549 
L 245.178182 194.616632 
L 241.570909 194.616715 
L 237.963636 194.616799 
L 234.356364 194.616882 
L 230.749091 194.616966 
L 227.141818 194.61705 
L 223.534545 194.617134 
L 219.927273 194.617219 
L 216.32 194.617303 
L 212.712727 194.617388 
L 209.105455 194.617473 
L 205.498182 194.617559 
L 201.890909 194.617644 
L 198.283636 194.61773 
L 194.676364 194.617815 
L 191.069091 194.617901 
L 187.461818 194.617988 
L 183.854545 194.618074 
L 180.247273 194.618161 
L 176.64 194.618247 
L 173.032727 194.618334 
L 169.425455 194.618422 
L 165.818182 194.618509 
L 162.210909 194.618596 
L 158.603636 194.618684 
L 154.996364 194.618772 
L 151.389091 194.61886 
L 147.781818 194.618949 
L 144.174545 194.619037 
L 140.567273 194.619126 
L 136.96 194.619215 
L 133.352727 194.619304 
L 129.745455 194.619393 
L 126.138182 194.619483 
L 122.530909 194.619573 
L 118.923636 194.619662 
L 115.316364 194.619753 
L 111.709091 194.619843 
L 108.101818 194.619933 
L 104.494545 194.620024 
L 100.887273 194.620115 
L 97.28 194.620206 
L 93.672727 194.620297 
L 90.065455 194.620389 
L 86.458182 194.62048 
L 82.850909 194.620572 
L 79.243636 194.620664 
L 75.636364 194.620757 
L 72.029091 194.620849 
L 68.421818 194.620942 
L 64.814545 194.621034 
L 61.207273 194.621127 
L 57.6 194.621221 
L 57.6 194.688 
L 57.6 197.376 
L 57.6 200.064 
L 57.6 202.752 
L 57.6 205.44 
L 57.6 208.128 
L 57.6 210.816 
L 57.6 213.504 
L 57.6 216.192 
L 57.6 218.88 
L 57.6 221.568 
L 57.6 224.256 
L 57.6 226.944 
L 57.6 229.632 
L 57.6 232.32 
L 57.6 235.008 
L 57.6 236.271911 
z
" clip-path="url(#pf7a793b5f1)" style="fill: #2db27d; fill-opacity: 0.75"/>
   </g>
   <g id="PathCollection_6">
    <path d="M 61.207273 278.421747 
L 64.814545 278.421647 
L 68.421818 278.421548 
L 72.029091 278.421449 
L 75.636364 278.421351 
L 79.243636 278.421252 
L 82.850909 278.421154 
L 86.458182 278.421056 
L 90.065455 278.420959 
L 93.672727 278.420862 
L 97.28 278.420764 
L 100.887273 278.420668 
L 104.494545 278.420571 
L 108.101818 278.420475 
L 111.709091 278.420379 
L 115.316364 278.420283 
L 118.923636 278.420188 
L 122.530909 278.420092 
L 126.138182 278.419997 
L 129.745455 278.419903 
L 133.352727 278.419808 
L 136.96 278.419714 
L 140.567273 278.41962 
L 144.174545 278.419526 
L 147.781818 278.419433 
L 151.389091 278.41934 
L 154.996364 278.419247 
L 158.603636 278.419154 
L 162.210909 278.419062 
L 165.818182 278.418969 
L 169.425455 278.418878 
L 173.032727 278.418786 
L 176.64 278.418695 
L 180.247273 278.418604 
L 183.854545 278.418513 
L 187.461818 278.418422 
L 191.069091 278.418332 
L 194.676364 278.418242 
L 198.283636 278.418152 
L 201.890909 278.418062 
L 205.498182 278.417973 
L 209.105455 278.417884 
L 212.712727 278.417795 
L 216.32 278.417707 
L 219.927273 278.417618 
L 223.534545 278.41753 
L 227.141818 278.417443 
L 230.749091 278.417355 
L 234.356364 278.417268 
L 237.963636 278.417181 
L 241.570909 278.417094 
L 245.178182 278.417008 
L 248.785455 278.416922 
L 252.392727 278.416836 
L 256 278.41675 
L 259.607273 278.416665 
L 263.214545 278.41658 
L 266.821818 278.416495 
L 270.429091 278.41641 
L 274.036364 278.416326 
L 277.643636 278.416241 
L 281.250909 278.416158 
L 284.858182 278.416074 
L 288.465455 278.415991 
L 292.072727 278.415908 
L 295.68 278.415825 
L 299.287273 278.415742 
L 302.894545 278.41566 
L 306.501818 278.415578 
L 310.109091 278.415496 
L 313.716364 278.415415 
L 317.323636 278.415333 
L 320.930909 278.415252 
L 324.538182 278.415172 
L 328.145455 278.415091 
L 331.752727 278.415011 
L 335.36 278.414931 
L 338.967273 278.414851 
L 342.574545 278.414772 
L 346.181818 278.414692 
L 349.789091 278.414614 
L 353.396364 278.414535 
L 357.003636 278.414456 
L 360.610909 278.414378 
L 364.218182 278.4143 
L 367.825455 278.414223 
L 371.432727 278.414145 
L 375.04 278.414068 
L 378.647273 278.413991 
L 382.254545 278.413915 
L 385.861818 278.413838 
L 389.469091 278.413762 
L 393.076364 278.413686 
L 396.683636 278.413611 
L 400.290909 278.413536 
L 403.898182 278.41346 
L 407.505455 278.413386 
L 411.112727 278.413311 
L 414.72 278.413237 
L 414.72 278.016 
L 414.72 275.328 
L 414.72 272.64 
L 414.72 269.952 
L 414.72 267.264 
L 414.72 264.576 
L 414.72 261.888 
L 414.72 259.2 
L 414.72 256.512 
L 414.72 253.824 
L 414.72 251.136 
L 414.72 248.448 
L 414.72 245.76 
L 414.72 243.072 
L 414.72 240.384 
L 414.72 237.696 
L 414.72 236.263485 
L 411.112727 236.263559 
L 407.505455 236.263633 
L 403.898182 236.263708 
L 400.290909 236.263782 
L 396.683636 236.263857 
L 393.076364 236.263932 
L 389.469091 236.264008 
L 385.861818 236.264083 
L 382.254545 236.264159 
L 378.647273 236.264235 
L 375.04 236.264312 
L 371.432727 236.264388 
L 367.825455 236.264465 
L 364.218182 236.264542 
L 360.610909 236.264619 
L 357.003636 236.264697 
L 353.396364 236.264774 
L 349.789091 236.264852 
L 346.181818 236.26493 
L 342.574545 236.265009 
L 338.967273 236.265087 
L 335.36 236.265166 
L 331.752727 236.265245 
L 328.145455 236.265324 
L 324.538182 236.265404 
L 320.930909 236.265483 
L 317.323636 236.265563 
L 313.716364 236.265643 
L 310.109091 236.265724 
L 306.501818 236.265804 
L 302.894545 236.265885 
L 299.287273 236.265966 
L 295.68 236.266047 
L 292.072727 236.266129 
L 288.465455 236.266211 
L 284.858182 236.266293 
L 281.250909 236.266375 
L 277.643636 236.266457 
L 274.036364 236.26654 
L 270.429091 236.266623 
L 266.821818 236.266706 
L 263.214545 236.266789 
L 259.607273 236.266873 
L 256 236.266956 
L 252.392727 236.26704 
L 248.785455 236.267124 
L 245.178182 236.267209 
L 241.570909 236.267294 
L 237.963636 236.267378 
L 234.356364 236.267464 
L 230.749091 236.267549 
L 227.141818 236.267634 
L 223.534545 236.26772 
L 219.927273 236.267806 
L 216.32 236.267892 
L 212.712727 236.267979 
L 209.105455 236.268066 
L 205.498182 236.268153 
L 201.890909 236.26824 
L 198.283636 236.268327 
L 194.676364 236.268415 
L 191.069091 236.268502 
L 187.461818 236.268591 
L 183.854545 236.268679 
L 180.247273 236.268767 
L 176.64 236.268856 
L 173.032727 236.268945 
L 169.425455 236.269034 
L 165.818182 236.269124 
L 162.210909 236.269213 
L 158.603636 236.269303 
L 154.996364 236.269393 
L 151.389091 236.269483 
L 147.781818 236.269574 
L 144.174545 236.269665 
L 140.567273 236.269756 
L 136.96 236.269847 
L 133.352727 236.269938 
L 129.745455 236.27003 
L 126.138182 236.270122 
L 122.530909 236.270214 
L 118.923636 236.270306 
L 115.316364 236.270399 
L 111.709091 236.270492 
L 108.101818 236.270585 
L 104.494545 236.270678 
L 100.887273 236.270771 
L 97.28 236.270865 
L 93.672727 236.270959 
L 90.065455 236.271053 
L 86.458182 236.271148 
L 82.850909 236.271242 
L 79.243636 236.271337 
L 75.636364 236.271432 
L 72.029091 236.271527 
L 68.421818 236.271623 
L 64.814545 236.271718 
L 61.207273 236.271814 
L 57.6 236.271911 
L 57.6 237.696 
L 57.6 240.384 
L 57.6 243.072 
L 57.6 245.76 
L 57.6 248.448 
L 57.6 251.136 
L 57.6 253.824 
L 57.6 256.512 
L 57.6 259.2 
L 57.6 261.888 
L 57.6 264.576 
L 57.6 267.264 
L 57.6 269.952 
L 57.6 272.64 
L 57.6 275.328 
L 57.6 278.016 
L 57.6 278.421846 
z
" clip-path="url(#pf7a793b5f1)" style="fill: #73d056; fill-opacity: 0.75"/>
   </g>
   <g id="PathCollection_7">
    <path d="M 61.207273 307.584 
L 64.814545 307.584 
L 68.421818 307.584 
L 72.029091 307.584 
L 75.636364 307.584 
L 79.243636 307.584 
L 82.850909 307.584 
L 86.458182 307.584 
L 90.065455 307.584 
L 93.672727 307.584 
L 97.28 307.584 
L 100.887273 307.584 
L 104.494545 307.584 
L 108.101818 307.584 
L 111.709091 307.584 
L 115.316364 307.584 
L 118.923636 307.584 
L 122.530909 307.584 
L 126.138182 307.584 
L 129.745455 307.584 
L 133.352727 307.584 
L 136.96 307.584 
L 140.567273 307.584 
L 144.174545 307.584 
L 147.781818 307.584 
L 151.389091 307.584 
L 154.996364 307.584 
L 158.603636 307.584 
L 162.210909 307.584 
L 165.818182 307.584 
L 169.425455 307.584 
L 173.032727 307.584 
L 176.64 307.584 
L 180.247273 307.584 
L 183.854545 307.584 
L 187.461818 307.584 
L 191.069091 307.584 
L 194.676364 307.584 
L 198.283636 307.584 
L 201.890909 307.584 
L 205.498182 307.584 
L 209.105455 307.584 
L 212.712727 307.584 
L 216.32 307.584 
L 219.927273 307.584 
L 223.534545 307.584 
L 227.141818 307.584 
L 230.749091 307.584 
L 234.356364 307.584 
L 237.963636 307.584 
L 241.570909 307.584 
L 245.178182 307.584 
L 248.785455 307.584 
L 252.392727 307.584 
L 256 307.584 
L 259.607273 307.584 
L 263.214545 307.584 
L 266.821818 307.584 
L 270.429091 307.584 
L 274.036364 307.584 
L 277.643636 307.584 
L 281.250909 307.584 
L 284.858182 307.584 
L 288.465455 307.584 
L 292.072727 307.584 
L 295.68 307.584 
L 299.287273 307.584 
L 302.894545 307.584 
L 306.501818 307.584 
L 310.109091 307.584 
L 313.716364 307.584 
L 317.323636 307.584 
L 320.930909 307.584 
L 324.538182 307.584 
L 328.145455 307.584 
L 331.752727 307.584 
L 335.36 307.584 
L 338.967273 307.584 
L 342.574545 307.584 
L 346.181818 307.584 
L 349.789091 307.584 
L 353.396364 307.584 
L 357.003636 307.584 
L 360.610909 307.584 
L 364.218182 307.584 
L 367.825455 307.584 
L 371.432727 307.584 
L 375.04 307.584 
L 378.647273 307.584 
L 382.254545 307.584 
L 385.861818 307.584 
L 389.469091 307.584 
L 393.076364 307.584 
L 396.683636 307.584 
L 400.290909 307.584 
L 403.898182 307.584 
L 407.505455 307.584 
L 411.112727 307.584 
L 414.72 307.584 
L 414.72 304.896 
L 414.72 302.208 
L 414.72 299.52 
L 414.72 296.832 
L 414.72 294.144 
L 414.72 291.456 
L 414.72 288.768 
L 414.72 286.08 
L 414.72 283.392 
L 414.72 280.704 
L 414.72 278.413237 
L 411.112727 278.413311 
L 407.505455 278.413386 
L 403.898182 278.41346 
L 400.290909 278.413536 
L 396.683636 278.413611 
L 393.076364 278.413686 
L 389.469091 278.413762 
L 385.861818 278.413838 
L 382.254545 278.413915 
L 378.647273 278.413991 
L 375.04 278.414068 
L 371.432727 278.414145 
L 367.825455 278.414223 
L 364.218182 278.4143 
L 360.610909 278.414378 
L 357.003636 278.414456 
L 353.396364 278.414535 
L 349.789091 278.414614 
L 346.181818 278.414692 
L 342.574545 278.414772 
L 338.967273 278.414851 
L 335.36 278.414931 
L 331.752727 278.415011 
L 328.145455 278.415091 
L 324.538182 278.415172 
L 320.930909 278.415252 
L 317.323636 278.415333 
L 313.716364 278.415415 
L 310.109091 278.415496 
L 306.501818 278.415578 
L 302.894545 278.41566 
L 299.287273 278.415742 
L 295.68 278.415825 
L 292.072727 278.415908 
L 288.465455 278.415991 
L 284.858182 278.416074 
L 281.250909 278.416158 
L 277.643636 278.416241 
L 274.036364 278.416326 
L 270.429091 278.41641 
L 266.821818 278.416495 
L 263.214545 278.41658 
L 259.607273 278.416665 
L 256 278.41675 
L 252.392727 278.416836 
L 248.785455 278.416922 
L 245.178182 278.417008 
L 241.570909 278.417094 
L 237.963636 278.417181 
L 234.356364 278.417268 
L 230.749091 278.417355 
L 227.141818 278.417443 
L 223.534545 278.41753 
L 219.927273 278.417618 
L 216.32 278.417707 
L 212.712727 278.417795 
L 209.105455 278.417884 
L 205.498182 278.417973 
L 201.890909 278.418062 
L 198.283636 278.418152 
L 194.676364 278.418242 
L 191.069091 278.418332 
L 187.461818 278.418422 
L 183.854545 278.418513 
L 180.247273 278.418604 
L 176.64 278.418695 
L 173.032727 278.418786 
L 169.425455 278.418878 
L 165.818182 278.418969 
L 162.210909 278.419062 
L 158.603636 278.419154 
L 154.996364 278.419247 
L 151.389091 278.41934 
L 147.781818 278.419433 
L 144.174545 278.419526 
L 140.567273 278.41962 
L 136.96 278.419714 
L 133.352727 278.419808 
L 129.745455 278.419903 
L 126.138182 278.419997 
L 122.530909 278.420092 
L 118.923636 278.420188 
L 115.316364 278.420283 
L 111.709091 278.420379 
L 108.101818 278.420475 
L 104.494545 278.420571 
L 100.887273 278.420668 
L 97.28 278.420764 
L 93.672727 278.420862 
L 90.065455 278.420959 
L 86.458182 278.421056 
L 82.850909 278.421154 
L 79.243636 278.421252 
L 75.636364 278.421351 
L 72.029091 278.421449 
L 68.421818 278.421548 
L 64.814545 278.421647 
L 61.207273 278.421747 
L 57.6 278.421846 
L 57.6 280.704 
L 57.6 283.392 
L 57.6 286.08 
L 57.6 288.768 
L 57.6 291.456 
L 57.6 294.144 
L 57.6 296.832 
L 57.6 299.52 
L 57.6 302.208 
L 57.6 304.896 
L 57.6 307.584 
z
" clip-path="url(#pf7a793b5f1)" style="fill: #d0e11c; fill-opacity: 0.75"/>
   </g>
   <g id="matplotlib.axis_1">
    <g id="xtick_1">
     <g id="line2d_1">
      <defs>
       <path id="m18f5c7162a" d="M 0 0 
L 0 3.5 
" style="stroke: #000000; stroke-width: 0.8"/>
      </defs>
      <g>
       <use xlink:href="#m18f5c7162a" x="63.755427" y="307.584" style="stroke: #000000; stroke-width: 0.8"/>
      </g>
     </g>
     <g id="text_1">
      <!-- 0.05 -->
      <g transform="translate(52.622615 322.182437) scale(0.1 -0.1)">
       <defs>
        <path id="DejaVuSans-30" d="M 2034 4250 
Q 1547 4250 1301 3770 
Q 1056 3291 1056 2328 
Q 1056 1369 1301 889 
Q 1547 409 2034 409 
Q 2525 409 2770 889 
Q 3016 1369 3016 2328 
Q 3016 3291 2770 3770 
Q 2525 4250 2034 4250 
z
M 2034 4750 
Q 2819 4750 3233 4129 
Q 3647 3509 3647 2328 
Q 3647 1150 3233 529 
Q 2819 -91 2034 -91 
Q 1250 -91 836 529 
Q 422 1150 422 2328 
Q 422 3509 836 4129 
Q 1250 4750 2034 4750 
z
" transform="scale(0.015625)"/>
        <path id="DejaVuSans-2e" d="M 684 794 
L 1344 794 
L 1344 0 
L 684 0 
L 684 794 
z
" transform="scale(0.015625)"/>
        <path id="DejaVuSans-35" d="M 691 4666 
L 3169 4666 
L 3169 4134 
L 1269 4134 
L 1269 2991 
Q 1406 3038 1543 3061 
Q 1681 3084 1819 3084 
Q 2600 3084 3056 2656 
Q 3513 2228 3513 1497 
Q 3513 744 3044 326 
Q 2575 -91 1722 -91 
Q 1428 -91 1123 -41 
Q 819 9 494 109 
L 494 744 
Q 775 591 1075 516 
Q 1375 441 1709 441 
Q 2250 441 2565 725 
Q 2881 1009 2881 1497 
Q 2881 1984 2565 2268 
Q 2250 2553 1709 2553 
Q 1456 2553 1204 2497 
Q 953 2441 691 2322 
L 691 4666 
z
" transform="scale(0.015625)"/>
       </defs>
       <use xlink:href="#DejaVuSans-30"/>
       <use xlink:href="#DejaVuSans-2e" x="63.623047"/>
       <use xlink:href="#DejaVuSans-30" x="95.410156"/>
       <use xlink:href="#DejaVuSans-35" x="159.033203"/>
      </g>
     </g>
    </g>
    <g id="xtick_2">
     <g id="line2d_2">
      <g>
       <use xlink:href="#m18f5c7162a" x="129.518539" y="307.584" style="stroke: #000000; stroke-width: 0.8"/>
      </g>
     </g>
     <g id="text_2">
      <!-- 0.10 -->
      <g transform="translate(118.385726 322.182437) scale(0.1 -0.1)">
       <defs>
        <path id="DejaVuSans-31" d="M 794 531 
L 1825 531 
L 1825 4091 
L 703 3866 
L 703 4441 
L 1819 4666 
L 2450 4666 
L 2450 531 
L 3481 531 
L 3481 0 
L 794 0 
L 794 531 
z
" transform="scale(0.015625)"/>
       </defs>
       <use xlink:href="#DejaVuSans-30"/>
       <use xlink:href="#DejaVuSans-2e" x="63.623047"/>
       <use xlink:href="#DejaVuSans-31" x="95.410156"/>
       <use xlink:href="#DejaVuSans-30" x="159.033203"/>
      </g>
     </g>
    </g>
    <g id="xtick_3">
     <g id="line2d_3">
      <g>
       <use xlink:href="#m18f5c7162a" x="195.28165" y="307.584" style="stroke: #000000; stroke-width: 0.8"/>
      </g>
     </g>
     <g id="text_3">
      <!-- 0.15 -->
      <g transform="translate(184.148837 322.182437) scale(0.1 -0.1)">
       <use xlink:href="#DejaVuSans-30"/>
       <use xlink:href="#DejaVuSans-2e" x="63.623047"/>
       <use xlink:href="#DejaVuSans-31" x="95.410156"/>
       <use xlink:href="#DejaVuSans-35" x="159.033203"/>
      </g>
     </g>
    </g>
    <g id="xtick_4">
     <g id="line2d_4">
      <g>
       <use xlink:href="#m18f5c7162a" x="261.044761" y="307.584" style="stroke: #000000; stroke-width: 0.8"/>
      </g>
     </g>
     <g id="text_4">
      <!-- 0.20 -->
      <g transform="translate(249.911949 322.182437) scale(0.1 -0.1)">
       <defs>
        <path id="DejaVuSans-32" d="M 1228 531 
L 3431 531 
L 3431 0 
L 469 0 
L 469 531 
Q 828 903 1448 1529 
Q 2069 2156 2228 2338 
Q 2531 2678 2651 2914 
Q 2772 3150 2772 3378 
Q 2772 3750 2511 3984 
Q 2250 4219 1831 4219 
Q 1534 4219 1204 4116 
Q 875 4013 500 3803 
L 500 4441 
Q 881 4594 1212 4672 
Q 1544 4750 1819 4750 
Q 2544 4750 2975 4387 
Q 3406 4025 3406 3419 
Q 3406 3131 3298 2873 
Q 3191 2616 2906 2266 
Q 2828 2175 2409 1742 
Q 1991 1309 1228 531 
z
" transform="scale(0.015625)"/>
       </defs>
       <use xlink:href="#DejaVuSans-30"/>
       <use xlink:href="#DejaVuSans-2e" x="63.623047"/>
       <use xlink:href="#DejaVuSans-32" x="95.410156"/>
       <use xlink:href="#DejaVuSans-30" x="159.033203"/>
      </g>
     </g>
    </g>
    <g id="xtick_5">
     <g id="line2d_5">
      <g>
       <use xlink:href="#m18f5c7162a" x="326.807873" y="307.584" style="stroke: #000000; stroke-width: 0.8"/>
      </g>
     </g>
     <g id="text_5">
      <!-- 0.25 -->
      <g transform="translate(315.67506 322.182437) scale(0.1 -0.1)">
       <use xlink:href="#DejaVuSans-30"/>
       <use xlink:href="#DejaVuSans-2e" x="63.623047"/>
       <use xlink:href="#DejaVuSans-32" x="95.410156"/>
       <use xlink:href="#DejaVuSans-35" x="159.033203"/>
      </g>
     </g>
    </g>
    <g id="xtick_6">
     <g id="line2d_6">
      <g>
       <use xlink:href="#m18f5c7162a" x="392.570984" y="307.584" style="stroke: #000000; stroke-width: 0.8"/>
      </g>
     </g>
     <g id="text_6">
      <!-- 0.30 -->
      <g transform="translate(381.438172 322.182437) scale(0.1 -0.1)">
       <defs>
        <path id="DejaVuSans-33" d="M 2597 2516 
Q 3050 2419 3304 2112 
Q 3559 1806 3559 1356 
Q 3559 666 3084 287 
Q 2609 -91 1734 -91 
Q 1441 -91 1130 -33 
Q 819 25 488 141 
L 488 750 
Q 750 597 1062 519 
Q 1375 441 1716 441 
Q 2309 441 2620 675 
Q 2931 909 2931 1356 
Q 2931 1769 2642 2001 
Q 2353 2234 1838 2234 
L 1294 2234 
L 1294 2753 
L 1863 2753 
Q 2328 2753 2575 2939 
Q 2822 3125 2822 3475 
Q 2822 3834 2567 4026 
Q 2313 4219 1838 4219 
Q 1578 4219 1281 4162 
Q 984 4106 628 3988 
L 628 4550 
Q 988 4650 1302 4700 
Q 1616 4750 1894 4750 
Q 2613 4750 3031 4423 
Q 3450 4097 3450 3541 
Q 3450 3153 3228 2886 
Q 3006 2619 2597 2516 
z
" transform="scale(0.015625)"/>
       </defs>
       <use xlink:href="#DejaVuSans-30"/>
       <use xlink:href="#DejaVuSans-2e" x="63.623047"/>
       <use xlink:href="#DejaVuSans-33" x="95.410156"/>
       <use xlink:href="#DejaVuSans-30" x="159.033203"/>
      </g>
     </g>
    </g>
    <g id="text_7">
     <!-- Obesity Rate -->
     <g transform="translate(204.008437 335.860562) scale(0.1 -0.1)">
      <defs>
       <path id="DejaVuSans-4f" d="M 2522 4238 
Q 1834 4238 1429 3725 
Q 1025 3213 1025 2328 
Q 1025 1447 1429 934 
Q 1834 422 2522 422 
Q 3209 422 3611 934 
Q 4013 1447 4013 2328 
Q 4013 3213 3611 3725 
Q 3209 4238 2522 4238 
z
M 2522 4750 
Q 3503 4750 4090 4092 
Q 4678 3434 4678 2328 
Q 4678 1225 4090 567 
Q 3503 -91 2522 -91 
Q 1538 -91 948 565 
Q 359 1222 359 2328 
Q 359 3434 948 4092 
Q 1538 4750 2522 4750 
z
" transform="scale(0.015625)"/>
       <path id="DejaVuSans-62" d="M 3116 1747 
Q 3116 2381 2855 2742 
Q 2594 3103 2138 3103 
Q 1681 3103 1420 2742 
Q 1159 2381 1159 1747 
Q 1159 1113 1420 752 
Q 1681 391 2138 391 
Q 2594 391 2855 752 
Q 3116 1113 3116 1747 
z
M 1159 2969 
Q 1341 3281 1617 3432 
Q 1894 3584 2278 3584 
Q 2916 3584 3314 3078 
Q 3713 2572 3713 1747 
Q 3713 922 3314 415 
Q 2916 -91 2278 -91 
Q 1894 -91 1617 61 
Q 1341 213 1159 525 
L 1159 0 
L 581 0 
L 581 4863 
L 1159 4863 
L 1159 2969 
z
" transform="scale(0.015625)"/>
       <path id="DejaVuSans-65" d="M 3597 1894 
L 3597 1613 
L 953 1613 
Q 991 1019 1311 708 
Q 1631 397 2203 397 
Q 2534 397 2845 478 
Q 3156 559 3463 722 
L 3463 178 
Q 3153 47 2828 -22 
Q 2503 -91 2169 -91 
Q 1331 -91 842 396 
Q 353 884 353 1716 
Q 353 2575 817 3079 
Q 1281 3584 2069 3584 
Q 2775 3584 3186 3129 
Q 3597 2675 3597 1894 
z
M 3022 2063 
Q 3016 2534 2758 2815 
Q 2500 3097 2075 3097 
Q 1594 3097 1305 2825 
Q 1016 2553 972 2059 
L 3022 2063 
z
" transform="scale(0.015625)"/>
       <path id="DejaVuSans-73" d="M 2834 3397 
L 2834 2853 
Q 2591 2978 2328 3040 
Q 2066 3103 1784 3103 
Q 1356 3103 1142 2972 
Q 928 2841 928 2578 
Q 928 2378 1081 2264 
Q 1234 2150 1697 2047 
L 1894 2003 
Q 2506 1872 2764 1633 
Q 3022 1394 3022 966 
Q 3022 478 2636 193 
Q 2250 -91 1575 -91 
Q 1294 -91 989 -36 
Q 684 19 347 128 
L 347 722 
Q 666 556 975 473 
Q 1284 391 1588 391 
Q 1994 391 2212 530 
Q 2431 669 2431 922 
Q 2431 1156 2273 1281 
Q 2116 1406 1581 1522 
L 1381 1569 
Q 847 1681 609 1914 
Q 372 2147 372 2553 
Q 372 3047 722 3315 
Q 1072 3584 1716 3584 
Q 2034 3584 2315 3537 
Q 2597 3491 2834 3397 
z
" transform="scale(0.015625)"/>
       <path id="DejaVuSans-69" d="M 603 3500 
L 1178 3500 
L 1178 0 
L 603 0 
L 603 3500 
z
M 603 4863 
L 1178 4863 
L 1178 4134 
L 603 4134 
L 603 4863 
z
" transform="scale(0.015625)"/>
       <path id="DejaVuSans-74" d="M 1172 4494 
L 1172 3500 
L 2356 3500 
L 2356 3053 
L 1172 3053 
L 1172 1153 
Q 1172 725 1289 603 
Q 1406 481 1766 481 
L 2356 481 
L 2356 0 
L 1766 0 
Q 1100 0 847 248 
Q 594 497 594 1153 
L 594 3053 
L 172 3053 
L 172 3500 
L 594 3500 
L 594 4494 
L 1172 4494 
z
" transform="scale(0.015625)"/>
       <path id="DejaVuSans-79" d="M 2059 -325 
Q 1816 -950 1584 -1140 
Q 1353 -1331 966 -1331 
L 506 -1331 
L 506 -850 
L 844 -850 
Q 1081 -850 1212 -737 
Q 1344 -625 1503 -206 
L 1606 56 
L 191 3500 
L 800 3500 
L 1894 763 
L 2988 3500 
L 3597 3500 
L 2059 -325 
z
" transform="scale(0.015625)"/>
       <path id="DejaVuSans-20" transform="scale(0.015625)"/>
       <path id="DejaVuSans-52" d="M 2841 2188 
Q 3044 2119 3236 1894 
Q 3428 1669 3622 1275 
L 4263 0 
L 3584 0 
L 2988 1197 
Q 2756 1666 2539 1819 
Q 2322 1972 1947 1972 
L 1259 1972 
L 1259 0 
L 628 0 
L 628 4666 
L 2053 4666 
Q 2853 4666 3247 4331 
Q 3641 3997 3641 3322 
Q 3641 2881 3436 2590 
Q 3231 2300 2841 2188 
z
M 1259 4147 
L 1259 2491 
L 2053 2491 
Q 2509 2491 2742 2702 
Q 2975 2913 2975 3322 
Q 2975 3731 2742 3939 
Q 2509 4147 2053 4147 
L 1259 4147 
z
" transform="scale(0.015625)"/>
       <path id="DejaVuSans-61" d="M 2194 1759 
Q 1497 1759 1228 1600 
Q 959 1441 959 1056 
Q 959 750 1161 570 
Q 1363 391 1709 391 
Q 2188 391 2477 730 
Q 2766 1069 2766 1631 
L 2766 1759 
L 2194 1759 
z
M 3341 1997 
L 3341 0 
L 2766 0 
L 2766 531 
Q 2569 213 2275 61 
Q 1981 -91 1556 -91 
Q 1019 -91 701 211 
Q 384 513 384 1019 
Q 384 1609 779 1909 
Q 1175 2209 1959 2209 
L 2766 2209 
L 2766 2266 
Q 2766 2663 2505 2880 
Q 2244 3097 1772 3097 
Q 1472 3097 1187 3025 
Q 903 2953 641 2809 
L 641 3341 
Q 956 3463 1253 3523 
Q 1550 3584 1831 3584 
Q 2591 3584 2966 3190 
Q 3341 2797 3341 1997 
z
" transform="scale(0.015625)"/>
      </defs>
      <use xlink:href="#DejaVuSans-4f"/>
      <use xlink:href="#DejaVuSans-62" x="78.710938"/>
      <use xlink:href="#DejaVuSans-65" x="142.1875"/>
      <use xlink:href="#DejaVuSans-73" x="203.710938"/>
      <use xlink:href="#DejaVuSans-69" x="255.810547"/>
      <use xlink:href="#DejaVuSans-74" x="283.59375"/>
      <use xlink:href="#DejaVuSans-79" x="322.802734"/>
      <use xlink:href="#DejaVuSans-20" x="381.982422"/>
      <use xlink:href="#DejaVuSans-52" x="413.769531"/>
      <use xlink:href="#DejaVuSans-61" x="481.001953"/>
      <use xlink:href="#DejaVuSans-74" x="542.28125"/>
      <use xlink:href="#DejaVuSans-65" x="581.490234"/>
     </g>
    </g>
   </g>
   <g id="matplotlib.axis_2">
    <g id="ytick_1">
     <g id="line2d_7">
      <defs>
       <path id="m999999efb1" d="M 0 0 
L -3.5 0 
" style="stroke: #000000; stroke-width: 0.8"/>
      </defs>
      <g>
       <use xlink:href="#m999999efb1" x="57.6" y="307.584" style="stroke: #000000; stroke-width: 0.8"/>
      </g>
     </g>
     <g id="text_8">
      <!-- 0 -->
      <g transform="translate(44.2375 311.383219) scale(0.1 -0.1)">
       <use xlink:href="#DejaVuSans-30"/>
      </g>
     </g>
    </g>
    <g id="ytick_2">
     <g id="line2d_8">
      <g>
       <use xlink:href="#m999999efb1" x="57.6" y="262.630826" style="stroke: #000000; stroke-width: 0.8"/>
      </g>
     </g>
     <g id="text_9">
      <!-- 5 -->
      <g transform="translate(44.2375 266.430045) scale(0.1 -0.1)">
       <use xlink:href="#DejaVuSans-35"/>
      </g>
     </g>
    </g>
    <g id="ytick_3">
     <g id="line2d_9">
      <g>
       <use xlink:href="#m999999efb1" x="57.6" y="217.677652" style="stroke: #000000; stroke-width: 0.8"/>
      </g>
     </g>
     <g id="text_10">
      <!-- 10 -->
      <g transform="translate(37.875 221.476871) scale(0.1 -0.1)">
       <use xlink:href="#DejaVuSans-31"/>
       <use xlink:href="#DejaVuSans-30" x="63.623047"/>
      </g>
     </g>
    </g>
    <g id="ytick_4">
     <g id="line2d_10">
      <g>
       <use xlink:href="#m999999efb1" x="57.6" y="172.724479" style="stroke: #000000; stroke-width: 0.8"/>
      </g>
     </g>
     <g id="text_11">
      <!-- 15 -->
      <g transform="translate(37.875 176.523697) scale(0.1 -0.1)">
       <use xlink:href="#DejaVuSans-31"/>
       <use xlink:href="#DejaVuSans-35" x="63.623047"/>
      </g>
     </g>
    </g>
    <g id="ytick_5">
     <g id="line2d_11">
      <g>
       <use xlink:href="#m999999efb1" x="57.6" y="127.771305" style="stroke: #000000; stroke-width: 0.8"/>
      </g>
     </g>
     <g id="text_12">
      <!-- 20 -->
      <g transform="translate(37.875 131.570524) scale(0.1 -0.1)">
       <use xlink:href="#DejaVuSans-32"/>
       <use xlink:href="#DejaVuSans-30" x="63.623047"/>
      </g>
     </g>
    </g>
    <g id="ytick_6">
     <g id="line2d_12">
      <g>
       <use xlink:href="#m999999efb1" x="57.6" y="82.818131" style="stroke: #000000; stroke-width: 0.8"/>
      </g>
     </g>
     <g id="text_13">
      <!-- 25 -->
      <g transform="translate(37.875 86.61735) scale(0.1 -0.1)">
       <use xlink:href="#DejaVuSans-32"/>
       <use xlink:href="#DejaVuSans-35" x="63.623047"/>
      </g>
     </g>
    </g>
    <g id="text_14">
     <!-- Share without Improved Water -->
     <g transform="translate(31.795312 251.030344) rotate(-90) scale(0.1 -0.1)">
      <defs>
       <path id="DejaVuSans-53" d="M 3425 4513 
L 3425 3897 
Q 3066 4069 2747 4153 
Q 2428 4238 2131 4238 
Q 1616 4238 1336 4038 
Q 1056 3838 1056 3469 
Q 1056 3159 1242 3001 
Q 1428 2844 1947 2747 
L 2328 2669 
Q 3034 2534 3370 2195 
Q 3706 1856 3706 1288 
Q 3706 609 3251 259 
Q 2797 -91 1919 -91 
Q 1588 -91 1214 -16 
Q 841 59 441 206 
L 441 856 
Q 825 641 1194 531 
Q 1563 422 1919 422 
Q 2459 422 2753 634 
Q 3047 847 3047 1241 
Q 3047 1584 2836 1778 
Q 2625 1972 2144 2069 
L 1759 2144 
Q 1053 2284 737 2584 
Q 422 2884 422 3419 
Q 422 4038 858 4394 
Q 1294 4750 2059 4750 
Q 2388 4750 2728 4690 
Q 3069 4631 3425 4513 
z
" transform="scale(0.015625)"/>
       <path id="DejaVuSans-68" d="M 3513 2113 
L 3513 0 
L 2938 0 
L 2938 2094 
Q 2938 2591 2744 2837 
Q 2550 3084 2163 3084 
Q 1697 3084 1428 2787 
Q 1159 2491 1159 1978 
L 1159 0 
L 581 0 
L 581 4863 
L 1159 4863 
L 1159 2956 
Q 1366 3272 1645 3428 
Q 1925 3584 2291 3584 
Q 2894 3584 3203 3211 
Q 3513 2838 3513 2113 
z
" transform="scale(0.015625)"/>
       <path id="DejaVuSans-72" d="M 2631 2963 
Q 2534 3019 2420 3045 
Q 2306 3072 2169 3072 
Q 1681 3072 1420 2755 
Q 1159 2438 1159 1844 
L 1159 0 
L 581 0 
L 581 3500 
L 1159 3500 
L 1159 2956 
Q 1341 3275 1631 3429 
Q 1922 3584 2338 3584 
Q 2397 3584 2469 3576 
Q 2541 3569 2628 3553 
L 2631 2963 
z
" transform="scale(0.015625)"/>
       <path id="DejaVuSans-77" d="M 269 3500 
L 844 3500 
L 1563 769 
L 2278 3500 
L 2956 3500 
L 3675 769 
L 4391 3500 
L 4966 3500 
L 4050 0 
L 3372 0 
L 2619 2869 
L 1863 0 
L 1184 0 
L 269 3500 
z
" transform="scale(0.015625)"/>
       <path id="DejaVuSans-6f" d="M 1959 3097 
Q 1497 3097 1228 2736 
Q 959 2375 959 1747 
Q 959 1119 1226 758 
Q 1494 397 1959 397 
Q 2419 397 2687 759 
Q 2956 1122 2956 1747 
Q 2956 2369 2687 2733 
Q 2419 3097 1959 3097 
z
M 1959 3584 
Q 2709 3584 3137 3096 
Q 3566 2609 3566 1747 
Q 3566 888 3137 398 
Q 2709 -91 1959 -91 
Q 1206 -91 779 398 
Q 353 888 353 1747 
Q 353 2609 779 3096 
Q 1206 3584 1959 3584 
z
" transform="scale(0.015625)"/>
       <path id="DejaVuSans-75" d="M 544 1381 
L 544 3500 
L 1119 3500 
L 1119 1403 
Q 1119 906 1312 657 
Q 1506 409 1894 409 
Q 2359 409 2629 706 
Q 2900 1003 2900 1516 
L 2900 3500 
L 3475 3500 
L 3475 0 
L 2900 0 
L 2900 538 
Q 2691 219 2414 64 
Q 2138 -91 1772 -91 
Q 1169 -91 856 284 
Q 544 659 544 1381 
z
M 1991 3584 
L 1991 3584 
z
" transform="scale(0.015625)"/>
       <path id="DejaVuSans-49" d="M 628 4666 
L 1259 4666 
L 1259 0 
L 628 0 
L 628 4666 
z
" transform="scale(0.015625)"/>
       <path id="DejaVuSans-6d" d="M 3328 2828 
Q 3544 3216 3844 3400 
Q 4144 3584 4550 3584 
Q 5097 3584 5394 3201 
Q 5691 2819 5691 2113 
L 5691 0 
L 5113 0 
L 5113 2094 
Q 5113 2597 4934 2840 
Q 4756 3084 4391 3084 
Q 3944 3084 3684 2787 
Q 3425 2491 3425 1978 
L 3425 0 
L 2847 0 
L 2847 2094 
Q 2847 2600 2669 2842 
Q 2491 3084 2119 3084 
Q 1678 3084 1418 2786 
Q 1159 2488 1159 1978 
L 1159 0 
L 581 0 
L 581 3500 
L 1159 3500 
L 1159 2956 
Q 1356 3278 1631 3431 
Q 1906 3584 2284 3584 
Q 2666 3584 2933 3390 
Q 3200 3197 3328 2828 
z
" transform="scale(0.015625)"/>
       <path id="DejaVuSans-70" d="M 1159 525 
L 1159 -1331 
L 581 -1331 
L 581 3500 
L 1159 3500 
L 1159 2969 
Q 1341 3281 1617 3432 
Q 1894 3584 2278 3584 
Q 2916 3584 3314 3078 
Q 3713 2572 3713 1747 
Q 3713 922 3314 415 
Q 2916 -91 2278 -91 
Q 1894 -91 1617 61 
Q 1341 213 1159 525 
z
M 3116 1747 
Q 3116 2381 2855 2742 
Q 2594 3103 2138 3103 
Q 1681 3103 1420 2742 
Q 1159 2381 1159 1747 
Q 1159 1113 1420 752 
Q 1681 391 2138 391 
Q 2594 391 2855 752 
Q 3116 1113 3116 1747 
z
" transform="scale(0.015625)"/>
       <path id="DejaVuSans-76" d="M 191 3500 
L 800 3500 
L 1894 563 
L 2988 3500 
L 3597 3500 
L 2284 0 
L 1503 0 
L 191 3500 
z
" transform="scale(0.015625)"/>
       <path id="DejaVuSans-64" d="M 2906 2969 
L 2906 4863 
L 3481 4863 
L 3481 0 
L 2906 0 
L 2906 525 
Q 2725 213 2448 61 
Q 2172 -91 1784 -91 
Q 1150 -91 751 415 
Q 353 922 353 1747 
Q 353 2572 751 3078 
Q 1150 3584 1784 3584 
Q 2172 3584 2448 3432 
Q 2725 3281 2906 2969 
z
M 947 1747 
Q 947 1113 1208 752 
Q 1469 391 1925 391 
Q 2381 391 2643 752 
Q 2906 1113 2906 1747 
Q 2906 2381 2643 2742 
Q 2381 3103 1925 3103 
Q 1469 3103 1208 2742 
Q 947 2381 947 1747 
z
" transform="scale(0.015625)"/>
       <path id="DejaVuSans-57" d="M 213 4666 
L 850 4666 
L 1831 722 
L 2809 4666 
L 3519 4666 
L 4500 722 
L 5478 4666 
L 6119 4666 
L 4947 0 
L 4153 0 
L 3169 4050 
L 2175 0 
L 1381 0 
L 213 4666 
z
" transform="scale(0.015625)"/>
      </defs>
      <use xlink:href="#DejaVuSans-53"/>
      <use xlink:href="#DejaVuSans-68" x="63.476562"/>
      <use xlink:href="#DejaVuSans-61" x="126.855469"/>
      <use xlink:href="#DejaVuSans-72" x="188.134766"/>
      <use xlink:href="#DejaVuSans-65" x="226.998047"/>
      <use xlink:href="#DejaVuSans-20" x="288.521484"/>
      <use xlink:href="#DejaVuSans-77" x="320.308594"/>
      <use xlink:href="#DejaVuSans-69" x="402.095703"/>
      <use xlink:href="#DejaVuSans-74" x="429.878906"/>
      <use xlink:href="#DejaVuSans-68" x="469.087891"/>
      <use xlink:href="#DejaVuSans-6f" x="532.466797"/>
      <use xlink:href="#DejaVuSans-75" x="593.648438"/>
      <use xlink:href="#DejaVuSans-74" x="657.027344"/>
      <use xlink:href="#DejaVuSans-20" x="696.236328"/>
      <use xlink:href="#DejaVuSans-49" x="728.023438"/>
      <use xlink:href="#DejaVuSans-6d" x="757.515625"/>
      <use xlink:href="#DejaVuSans-70" x="854.927734"/>
      <use xlink:href="#DejaVuSans-72" x="918.404297"/>
      <use xlink:href="#DejaVuSans-6f" x="957.267578"/>
      <use xlink:href="#DejaVuSans-76" x="1018.449219"/>
      <use xlink:href="#DejaVuSans-65" x="1077.628906"/>
      <use xlink:href="#DejaVuSans-64" x="1139.152344"/>
      <use xlink:href="#DejaVuSans-20" x="1202.628906"/>
      <use xlink:href="#DejaVuSans-57" x="1234.416016"/>
      <use xlink:href="#DejaVuSans-61" x="1326.917969"/>
      <use xlink:href="#DejaVuSans-74" x="1388.197266"/>
      <use xlink:href="#DejaVuSans-65" x="1427.40625"/>
      <use xlink:href="#DejaVuSans-72" x="1488.929688"/>
     </g>
    </g>
   </g>
   <g id="PathCollection_8"/>
   <g id="PathCollection_9">
    <path d="M 414.72 70.1337 
L 411.112727 70.133775 
L 407.505455 70.133852 
L 403.898182 70.133928 
L 400.290909 70.134004 
L 396.683636 70.13408 
L 393.076364 70.134157 
L 389.469091 70.134234 
L 385.861818 70.13431 
L 382.254545 70.134387 
L 378.647273 70.134464 
L 375.370909 70.134534 
" clip-path="url(#pf7a793b5f1)" style="fill: none; stroke: #000000; stroke-width: 0.5"/>
    <path d="M 345.850909 70.135169 
L 342.574545 70.13524 
L 338.967273 70.135318 
L 335.36 70.135396 
L 331.752727 70.135475 
L 328.145455 70.135553 
L 324.538182 70.135632 
L 320.930909 70.13571 
L 317.323636 70.135789 
L 313.716364 70.135868 
L 310.109091 70.135947 
L 306.501818 70.136026 
L 302.894545 70.136106 
L 299.287273 70.136185 
L 295.68 70.136264 
L 292.072727 70.136344 
L 288.465455 70.136424 
L 284.858182 70.136503 
L 281.250909 70.136583 
L 277.643636 70.136663 
L 274.036364 70.136744 
L 270.429091 70.136824 
L 266.821818 70.136904 
L 263.214545 70.136985 
L 259.607273 70.137065 
L 256 70.137146 
L 252.392727 70.137227 
L 248.785455 70.137308 
L 245.178182 70.137389 
L 241.570909 70.13747 
L 237.963636 70.137551 
L 234.356364 70.137632 
L 230.749091 70.137714 
L 227.141818 70.137795 
L 223.534545 70.137877 
L 219.927273 70.137959 
L 216.32 70.138041 
L 212.712727 70.138123 
L 209.105455 70.138205 
L 205.498182 70.138287 
L 201.890909 70.13837 
L 198.283636 70.138452 
L 194.676364 70.138535 
L 191.069091 70.138617 
L 187.461818 70.1387 
L 183.854545 70.138783 
L 180.247273 70.138866 
L 176.64 70.138949 
L 173.032727 70.139032 
L 169.425455 70.139116 
L 165.818182 70.139199 
L 162.210909 70.139283 
L 158.603636 70.139366 
L 154.996364 70.13945 
L 151.389091 70.139534 
L 147.781818 70.139618 
L 144.174545 70.139702 
L 140.567273 70.139786 
L 136.96 70.13987 
L 133.352727 70.139955 
L 129.745455 70.140039 
L 126.138182 70.140124 
L 122.530909 70.140209 
L 118.923636 70.140294 
L 115.316364 70.140379 
L 111.709091 70.140464 
L 108.101818 70.140549 
L 104.494545 70.140634 
L 100.887273 70.14072 
L 97.28 70.140805 
L 93.672727 70.140891 
L 90.065455 70.140977 
L 86.458182 70.141063 
L 82.850909 70.141148 
L 79.243636 70.141235 
L 75.636364 70.141321 
L 72.029091 70.141407 
L 68.421818 70.141493 
L 64.814545 70.14158 
L 61.207273 70.141667 
L 57.6 70.141753 
" clip-path="url(#pf7a793b5f1)" style="fill: none; stroke: #000000; stroke-width: 0.5"/>
   </g>
   <g id="PathCollection_10">
    <path d="M 414.72 111.790681 
L 411.112727 111.790756 
L 407.505455 111.790831 
L 403.898182 111.790906 
L 400.290909 111.790982 
L 396.683636 111.791057 
L 393.076364 111.791133 
L 389.469091 111.791209 
L 385.861818 111.791285 
L 382.254545 111.791361 
L 378.647273 111.791438 
L 375.370909 111.791507 
" clip-path="url(#pf7a793b5f1)" style="fill: none; stroke: #000000; stroke-width: 0.5"/>
    <path d="M 345.850909 111.792138 
L 342.574545 111.792208 
L 338.967273 111.792286 
L 335.36 111.792364 
L 331.752727 111.792442 
L 328.145455 111.79252 
L 324.538182 111.792599 
L 320.930909 111.792677 
L 317.323636 111.792756 
L 313.716364 111.792834 
L 310.109091 111.792913 
L 306.501818 111.792992 
L 302.894545 111.793072 
L 299.287273 111.793151 
L 295.68 111.79323 
L 292.072727 111.79331 
L 288.465455 111.79339 
L 284.858182 111.79347 
L 281.250909 111.79355 
L 277.643636 111.79363 
L 274.036364 111.79371 
L 270.429091 111.793791 
L 266.821818 111.793871 
L 263.214545 111.793952 
L 259.607273 111.794033 
L 256 111.794114 
L 252.392727 111.794195 
L 248.785455 111.794276 
L 245.178182 111.794357 
L 241.570909 111.794439 
L 237.963636 111.794521 
L 234.356364 111.794602 
L 230.749091 111.794684 
L 227.141818 111.794766 
L 223.534545 111.794849 
L 219.927273 111.794931 
L 216.32 111.795013 
L 212.712727 111.795096 
L 209.105455 111.795179 
L 205.498182 111.795262 
L 201.890909 111.795345 
L 198.283636 111.795428 
L 194.676364 111.795511 
L 191.069091 111.795595 
L 187.461818 111.795678 
L 183.854545 111.795762 
L 180.247273 111.795846 
L 176.64 111.79593 
L 173.032727 111.796014 
L 169.425455 111.796098 
L 165.818182 111.796183 
L 162.210909 111.796267 
L 158.603636 111.796352 
L 154.996364 111.796437 
L 151.389091 111.796522 
L 147.781818 111.796607 
L 144.174545 111.796692 
L 140.567273 111.796778 
L 136.96 111.796863 
L 133.352727 111.796949 
L 129.745455 111.797035 
L 126.138182 111.797121 
L 122.530909 111.797207 
L 118.923636 111.797293 
L 115.316364 111.797379 
L 111.709091 111.797466 
L 108.101818 111.797552 
L 104.494545 111.797639 
L 100.887273 111.797726 
L 97.28 111.797813 
L 93.672727 111.7979 
L 90.065455 111.797988 
L 86.458182 111.798075 
L 82.850909 111.798163 
L 79.243636 111.79825 
L 75.636364 111.798338 
L 72.029091 111.798426 
L 68.421818 111.798514 
L 64.814545 111.798603 
L 61.207273 111.798691 
L 57.6 111.79878 
" clip-path="url(#pf7a793b5f1)" style="fill: none; stroke: #000000; stroke-width: 0.5"/>
   </g>
   <g id="PathCollection_11">
    <path d="M 414.72 153.203359 
L 411.112727 153.203433 
L 407.505455 153.203508 
L 403.898182 153.203583 
L 400.290909 153.203658 
L 396.683636 153.203733 
L 393.076364 153.203808 
L 389.469091 153.203884 
L 385.861818 153.203959 
L 382.254545 153.204035 
L 378.647273 153.204111 
L 375.04 153.204187 
L 371.432727 153.204263 
L 367.825455 153.20434 
L 364.218182 153.204417 
L 364.136818 153.204418 
" clip-path="url(#pf7a793b5f1)" style="fill: none; stroke: #000000; stroke-width: 0.5"/>
    <path d="M 328.226818 153.20519 
L 328.145455 153.205192 
L 324.538182 153.20527 
L 320.930909 153.205349 
L 317.323636 153.205428 
L 313.716364 153.205507 
L 310.109091 153.205586 
L 306.501818 153.205665 
L 302.894545 153.205744 
L 299.287273 153.205824 
L 295.68 153.205904 
L 292.072727 153.205984 
L 288.465455 153.206064 
L 284.858182 153.206144 
L 281.250909 153.206224 
L 277.643636 153.206305 
L 274.036364 153.206386 
L 270.429091 153.206467 
L 266.821818 153.206548 
L 263.214545 153.206629 
L 259.607273 153.206711 
L 256 153.206792 
L 252.392727 153.206874 
L 248.785455 153.206956 
L 245.178182 153.207038 
L 241.570909 153.20712 
L 237.963636 153.207203 
L 234.356364 153.207285 
L 230.749091 153.207368 
L 227.141818 153.207451 
L 223.534545 153.207534 
L 219.927273 153.207617 
L 216.32 153.207701 
L 212.712727 153.207784 
L 209.105455 153.207868 
L 205.498182 153.207952 
L 201.890909 153.208036 
L 198.283636 153.20812 
L 194.676364 153.208205 
L 191.069091 153.208289 
L 187.461818 153.208374 
L 183.854545 153.208459 
L 180.247273 153.208544 
L 176.64 153.208629 
L 173.032727 153.208715 
L 169.425455 153.2088 
L 165.818182 153.208886 
L 162.210909 153.208972 
L 158.603636 153.209058 
L 154.996364 153.209144 
L 151.389091 153.209231 
L 147.781818 153.209317 
L 144.174545 153.209404 
L 140.567273 153.209491 
L 136.96 153.209578 
L 133.352727 153.209665 
L 129.745455 153.209752 
L 126.138182 153.20984 
L 122.530909 153.209928 
L 118.923636 153.210016 
L 115.316364 153.210104 
L 111.709091 153.210192 
L 108.101818 153.21028 
L 104.494545 153.210369 
L 100.887273 153.210458 
L 97.28 153.210547 
L 93.672727 153.210636 
L 90.065455 153.210725 
L 86.458182 153.210814 
L 82.850909 153.210904 
L 79.243636 153.210994 
L 75.636364 153.211083 
L 72.029091 153.211173 
L 68.421818 153.211264 
L 64.814545 153.211354 
L 61.207273 153.211445 
L 57.6 153.211535 
" clip-path="url(#pf7a793b5f1)" style="fill: none; stroke: #000000; stroke-width: 0.5"/>
   </g>
   <g id="PathCollection_12">
    <path d="M 414.72 194.612938 
L 411.112727 194.613012 
L 407.505455 194.613087 
L 403.898182 194.613161 
L 400.290909 194.613236 
L 396.683636 194.613311 
L 393.076364 194.613386 
L 389.469091 194.613461 
L 385.861818 194.613536 
L 382.254545 194.613612 
L 378.647273 194.613688 
L 375.04 194.613764 
L 371.432727 194.61384 
L 367.825455 194.613917 
L 364.218182 194.613993 
L 364.136818 194.613995 
" clip-path="url(#pf7a793b5f1)" style="fill: none; stroke: #000000; stroke-width: 0.5"/>
    <path d="M 328.226818 194.614769 
L 328.145455 194.61477 
L 324.538182 194.614849 
L 320.930909 194.614928 
L 317.323636 194.615007 
L 313.716364 194.615087 
L 310.109091 194.615166 
L 306.501818 194.615246 
L 302.894545 194.615326 
L 299.287273 194.615406 
L 295.68 194.615487 
L 292.072727 194.615567 
L 288.465455 194.615648 
L 284.858182 194.615729 
L 281.250909 194.61581 
L 277.643636 194.615891 
L 274.036364 194.615973 
L 270.429091 194.616054 
L 266.821818 194.616136 
L 263.214545 194.616218 
L 259.607273 194.616301 
L 256 194.616383 
L 252.392727 194.616466 
L 248.785455 194.616549 
L 245.178182 194.616632 
L 241.570909 194.616715 
L 237.963636 194.616799 
L 234.356364 194.616882 
L 230.749091 194.616966 
L 227.141818 194.61705 
L 223.534545 194.617134 
L 219.927273 194.617219 
L 216.32 194.617303 
L 212.712727 194.617388 
L 209.105455 194.617473 
L 205.498182 194.617559 
L 201.890909 194.617644 
L 198.283636 194.61773 
L 194.676364 194.617815 
L 191.069091 194.617901 
L 187.461818 194.617988 
L 183.854545 194.618074 
L 180.247273 194.618161 
L 176.64 194.618247 
L 173.032727 194.618334 
L 169.425455 194.618422 
L 165.818182 194.618509 
L 162.210909 194.618596 
L 158.603636 194.618684 
L 154.996364 194.618772 
L 151.389091 194.61886 
L 147.781818 194.618949 
L 144.174545 194.619037 
L 140.567273 194.619126 
L 136.96 194.619215 
L 133.352727 194.619304 
L 129.745455 194.619393 
L 126.138182 194.619483 
L 122.530909 194.619573 
L 118.923636 194.619662 
L 115.316364 194.619753 
L 111.709091 194.619843 
L 108.101818 194.619933 
L 104.494545 194.620024 
L 100.887273 194.620115 
L 97.28 194.620206 
L 93.672727 194.620297 
L 90.065455 194.620389 
L 86.458182 194.62048 
L 82.850909 194.620572 
L 79.243636 194.620664 
L 75.636364 194.620757 
L 72.029091 194.620849 
L 68.421818 194.620942 
L 64.814545 194.621034 
L 61.207273 194.621127 
L 57.6 194.621221 
" clip-path="url(#pf7a793b5f1)" style="fill: none; stroke: #000000; stroke-width: 0.5"/>
   </g>
   <g id="PathCollection_13">
    <path d="M 414.72 236.263485 
L 411.112727 236.263559 
L 407.505455 236.263633 
L 403.898182 236.263708 
L 400.290909 236.263782 
L 396.683636 236.263857 
L 393.076364 236.263932 
L 389.469091 236.264008 
L 385.861818 236.264083 
L 382.254545 236.264159 
L 378.647273 236.264235 
L 375.04 236.264312 
L 371.432727 236.264388 
L 367.825455 236.264465 
L 364.218182 236.264542 
L 364.136818 236.264544 
" clip-path="url(#pf7a793b5f1)" style="fill: none; stroke: #000000; stroke-width: 0.5"/>
    <path d="M 328.226818 236.265322 
L 328.145455 236.265324 
L 324.538182 236.265404 
L 320.930909 236.265483 
L 317.323636 236.265563 
L 313.716364 236.265643 
L 310.109091 236.265724 
L 306.501818 236.265804 
L 302.894545 236.265885 
L 299.287273 236.265966 
L 295.68 236.266047 
L 292.072727 236.266129 
L 288.465455 236.266211 
L 284.858182 236.266293 
L 281.250909 236.266375 
L 277.643636 236.266457 
L 274.036364 236.26654 
L 270.429091 236.266623 
L 266.821818 236.266706 
L 263.214545 236.266789 
L 259.607273 236.266873 
L 256 236.266956 
L 252.392727 236.26704 
L 248.785455 236.267124 
L 245.178182 236.267209 
L 241.570909 236.267294 
L 237.963636 236.267378 
L 234.356364 236.267464 
L 230.749091 236.267549 
L 227.141818 236.267634 
L 223.534545 236.26772 
L 219.927273 236.267806 
L 216.32 236.267892 
L 212.712727 236.267979 
L 209.105455 236.268066 
L 205.498182 236.268153 
L 201.890909 236.26824 
L 198.283636 236.268327 
L 194.676364 236.268415 
L 191.069091 236.268502 
L 187.461818 236.268591 
L 183.854545 236.268679 
L 180.247273 236.268767 
L 176.64 236.268856 
L 173.032727 236.268945 
L 169.425455 236.269034 
L 165.818182 236.269124 
L 162.210909 236.269213 
L 158.603636 236.269303 
L 154.996364 236.269393 
L 151.389091 236.269483 
L 147.781818 236.269574 
L 144.174545 236.269665 
L 140.567273 236.269756 
L 136.96 236.269847 
L 133.352727 236.269938 
L 129.745455 236.27003 
L 126.138182 236.270122 
L 122.530909 236.270214 
L 118.923636 236.270306 
L 115.316364 236.270399 
L 111.709091 236.270492 
L 108.101818 236.270585 
L 104.494545 236.270678 
L 100.887273 236.270771 
L 97.28 236.270865 
L 93.672727 236.270959 
L 90.065455 236.271053 
L 86.458182 236.271148 
L 82.850909 236.271242 
L 79.243636 236.271337 
L 75.636364 236.271432 
L 72.029091 236.271527 
L 68.421818 236.271623 
L 64.814545 236.271718 
L 61.207273 236.271814 
L 57.6 236.271911 
" clip-path="url(#pf7a793b5f1)" style="fill: none; stroke: #000000; stroke-width: 0.5"/>
   </g>
   <g id="PathCollection_14">
    <path d="M 414.72 278.413237 
L 411.112727 278.413311 
L 407.505455 278.413386 
L 403.898182 278.41346 
L 400.290909 278.413536 
L 396.683636 278.413611 
L 393.076364 278.413686 
L 389.469091 278.413762 
L 385.861818 278.413838 
L 382.254545 278.413915 
L 378.647273 278.413991 
L 375.04 278.414068 
L 371.432727 278.414145 
L 367.825455 278.414223 
L 364.218182 278.4143 
L 364.136818 278.414302 
" clip-path="url(#pf7a793b5f1)" style="fill: none; stroke: #000000; stroke-width: 0.5"/>
    <path d="M 328.226818 278.415089 
L 328.145455 278.415091 
L 324.538182 278.415172 
L 320.930909 278.415252 
L 317.323636 278.415333 
L 313.716364 278.415415 
L 310.109091 278.415496 
L 306.501818 278.415578 
L 302.894545 278.41566 
L 299.287273 278.415742 
L 295.68 278.415825 
L 292.072727 278.415908 
L 288.465455 278.415991 
L 284.858182 278.416074 
L 281.250909 278.416158 
L 277.643636 278.416241 
L 274.036364 278.416326 
L 270.429091 278.41641 
L 266.821818 278.416495 
L 263.214545 278.41658 
L 259.607273 278.416665 
L 256 278.41675 
L 252.392727 278.416836 
L 248.785455 278.416922 
L 245.178182 278.417008 
L 241.570909 278.417094 
L 237.963636 278.417181 
L 234.356364 278.417268 
L 230.749091 278.417355 
L 227.141818 278.417443 
L 223.534545 278.41753 
L 219.927273 278.417618 
L 216.32 278.417707 
L 212.712727 278.417795 
L 209.105455 278.417884 
L 205.498182 278.417973 
L 201.890909 278.418062 
L 198.283636 278.418152 
L 194.676364 278.418242 
L 191.069091 278.418332 
L 187.461818 278.418422 
L 183.854545 278.418513 
L 180.247273 278.418604 
L 176.64 278.418695 
L 173.032727 278.418786 
L 169.425455 278.418878 
L 165.818182 278.418969 
L 162.210909 278.419062 
L 158.603636 278.419154 
L 154.996364 278.419247 
L 151.389091 278.41934 
L 147.781818 278.419433 
L 144.174545 278.419526 
L 140.567273 278.41962 
L 136.96 278.419714 
L 133.352727 278.419808 
L 129.745455 278.419903 
L 126.138182 278.419997 
L 122.530909 278.420092 
L 118.923636 278.420188 
L 115.316364 278.420283 
L 111.709091 278.420379 
L 108.101818 278.420475 
L 104.494545 278.420571 
L 100.887273 278.420668 
L 97.28 278.420764 
L 93.672727 278.420862 
L 90.065455 278.420959 
L 86.458182 278.421056 
L 82.850909 278.421154 
L 79.243636 278.421252 
L 75.636364 278.421351 
L 72.029091 278.421449 
L 68.421818 278.421548 
L 64.814545 278.421647 
L 61.207273 278.421747 
L 57.6 278.421846 
" clip-path="url(#pf7a793b5f1)" style="fill: none; stroke: #000000; stroke-width: 0.5"/>
   </g>
   <g id="PathCollection_15"/>
   <g id="LineCollection_1">
    <path d="M 70.331738 307.584 
L 70.331738 294.2784 
" clip-path="url(#pf7a793b5f1)" style="fill: none; stroke: #000000; stroke-width: 1.5"/>
    <path d="M 99.846223 307.584 
L 99.846223 294.2784 
" clip-path="url(#pf7a793b5f1)" style="fill: none; stroke: #000000; stroke-width: 1.5"/>
    <path d="M 129.465928 307.584 
L 129.465928 294.2784 
" clip-path="url(#pf7a793b5f1)" style="fill: none; stroke: #000000; stroke-width: 1.5"/>
    <path d="M 223.533483 307.584 
L 223.533483 294.2784 
" clip-path="url(#pf7a793b5f1)" style="fill: none; stroke: #000000; stroke-width: 1.5"/>
    <path d="M 263.675286 307.584 
L 263.675286 294.2784 
" clip-path="url(#pf7a793b5f1)" style="fill: none; stroke: #000000; stroke-width: 1.5"/>
    <path d="M 284.088156 307.584 
L 284.088156 294.2784 
" clip-path="url(#pf7a793b5f1)" style="fill: none; stroke: #000000; stroke-width: 1.5"/>
    <path d="M 301.81789 307.584 
L 301.81789 294.2784 
" clip-path="url(#pf7a793b5f1)" style="fill: none; stroke: #000000; stroke-width: 1.5"/>
    <path d="M 335.435993 307.584 
L 335.435993 294.2784 
" clip-path="url(#pf7a793b5f1)" style="fill: none; stroke: #000000; stroke-width: 1.5"/>
    <path d="M 378.208321 307.584 
L 378.208321 294.2784 
" clip-path="url(#pf7a793b5f1)" style="fill: none; stroke: #000000; stroke-width: 1.5"/>
   </g>
   <g id="LineCollection_2">
    <path d="M -1 307.584 
L 63.755427 307.584 
" clip-path="url(#pf7a793b5f1)" style="fill: none; stroke: #000000; stroke-width: 1.5"/>
    <path d="M -1 287.785267 
L 63.755427 287.785267 
" clip-path="url(#pf7a793b5f1)" style="fill: none; stroke: #000000; stroke-width: 1.5"/>
    <path d="M -1 193.36873 
L 63.755427 193.36873 
" clip-path="url(#pf7a793b5f1)" style="fill: none; stroke: #000000; stroke-width: 1.5"/>
    <path clip-path="url(#pf7a793b5f1)" style="fill: none; stroke: #000000; stroke-width: 1.5"/>
    <path clip-path="url(#pf7a793b5f1)" style="fill: none; stroke: #000000; stroke-width: 1.5"/>
    <path clip-path="url(#pf7a793b5f1)" style="fill: none; stroke: #000000; stroke-width: 1.5"/>
    <path clip-path="url(#pf7a793b5f1)" style="fill: none; stroke: #000000; stroke-width: 1.5"/>
    <path clip-path="url(#pf7a793b5f1)" style="fill: none; stroke: #000000; stroke-width: 1.5"/>
    <path clip-path="url(#pf7a793b5f1)" style="fill: none; stroke: #000000; stroke-width: 1.5"/>
   </g>
   <g id="patch_3">
    <path d="M 57.6 307.584 
L 57.6 41.472 
" style="fill: none; stroke: #000000; stroke-width: 0.8; stroke-linejoin: miter; stroke-linecap: square"/>
   </g>
   <g id="patch_4">
    <path d="M 414.72 307.584 
L 414.72 41.472 
" style="fill: none; stroke: #000000; stroke-width: 0.8; stroke-linejoin: miter; stroke-linecap: square"/>
   </g>
   <g id="patch_5">
    <path d="M 57.6 307.584 
L 414.72 307.584 
" style="fill: none; stroke: #000000; stroke-width: 0.8; stroke-linejoin: miter; stroke-linecap: square"/>
   </g>
   <g id="patch_6">
    <path d="M 57.6 41.472 
L 414.72 41.472 
" style="fill: none; stroke: #000000; stroke-width: 0.8; stroke-linejoin: miter; stroke-linecap: square"/>
   </g>
   <g id="text_15">
    <!-- 2D-partial dependency plot between Obesity and SWIW -->
    <g transform="translate(68.745 35.472) scale(0.12 -0.12)">
     <defs>
      <path id="DejaVuSans-44" d="M 1259 4147 
L 1259 519 
L 2022 519 
Q 2988 519 3436 956 
Q 3884 1394 3884 2338 
Q 3884 3275 3436 3711 
Q 2988 4147 2022 4147 
L 1259 4147 
z
M 628 4666 
L 1925 4666 
Q 3281 4666 3915 4102 
Q 4550 3538 4550 2338 
Q 4550 1131 3912 565 
Q 3275 0 1925 0 
L 628 0 
L 628 4666 
z
" transform="scale(0.015625)"/>
      <path id="DejaVuSans-2d" d="M 313 2009 
L 1997 2009 
L 1997 1497 
L 313 1497 
L 313 2009 
z
" transform="scale(0.015625)"/>
      <path id="DejaVuSans-6c" d="M 603 4863 
L 1178 4863 
L 1178 0 
L 603 0 
L 603 4863 
z
" transform="scale(0.015625)"/>
      <path id="DejaVuSans-6e" d="M 3513 2113 
L 3513 0 
L 2938 0 
L 2938 2094 
Q 2938 2591 2744 2837 
Q 2550 3084 2163 3084 
Q 1697 3084 1428 2787 
Q 1159 2491 1159 1978 
L 1159 0 
L 581 0 
L 581 3500 
L 1159 3500 
L 1159 2956 
Q 1366 3272 1645 3428 
Q 1925 3584 2291 3584 
Q 2894 3584 3203 3211 
Q 3513 2838 3513 2113 
z
" transform="scale(0.015625)"/>
      <path id="DejaVuSans-63" d="M 3122 3366 
L 3122 2828 
Q 2878 2963 2633 3030 
Q 2388 3097 2138 3097 
Q 1578 3097 1268 2742 
Q 959 2388 959 1747 
Q 959 1106 1268 751 
Q 1578 397 2138 397 
Q 2388 397 2633 464 
Q 2878 531 3122 666 
L 3122 134 
Q 2881 22 2623 -34 
Q 2366 -91 2075 -91 
Q 1284 -91 818 406 
Q 353 903 353 1747 
Q 353 2603 823 3093 
Q 1294 3584 2113 3584 
Q 2378 3584 2631 3529 
Q 2884 3475 3122 3366 
z
" transform="scale(0.015625)"/>
     </defs>
     <use xlink:href="#DejaVuSans-32"/>
     <use xlink:href="#DejaVuSans-44" x="63.623047"/>
     <use xlink:href="#DejaVuSans-2d" x="140.625"/>
     <use xlink:href="#DejaVuSans-70" x="176.708984"/>
     <use xlink:href="#DejaVuSans-61" x="240.185547"/>
     <use xlink:href="#DejaVuSans-72" x="301.464844"/>
     <use xlink:href="#DejaVuSans-74" x="342.578125"/>
     <use xlink:href="#DejaVuSans-69" x="381.787109"/>
     <use xlink:href="#DejaVuSans-61" x="409.570312"/>
     <use xlink:href="#DejaVuSans-6c" x="470.849609"/>
     <use xlink:href="#DejaVuSans-20" x="498.632812"/>
     <use xlink:href="#DejaVuSans-64" x="530.419922"/>
     <use xlink:href="#DejaVuSans-65" x="593.896484"/>
     <use xlink:href="#DejaVuSans-70" x="655.419922"/>
     <use xlink:href="#DejaVuSans-65" x="718.896484"/>
     <use xlink:href="#DejaVuSans-6e" x="780.419922"/>
     <use xlink:href="#DejaVuSans-64" x="843.798828"/>
     <use xlink:href="#DejaVuSans-65" x="907.275391"/>
     <use xlink:href="#DejaVuSans-6e" x="968.798828"/>
     <use xlink:href="#DejaVuSans-63" x="1032.177734"/>
     <use xlink:href="#DejaVuSans-79" x="1087.158203"/>
     <use xlink:href="#DejaVuSans-20" x="1146.337891"/>
     <use xlink:href="#DejaVuSans-70" x="1178.125"/>
     <use xlink:href="#DejaVuSans-6c" x="1241.601562"/>
     <use xlink:href="#DejaVuSans-6f" x="1269.384766"/>
     <use xlink:href="#DejaVuSans-74" x="1330.566406"/>
     <use xlink:href="#DejaVuSans-20" x="1369.775391"/>
     <use xlink:href="#DejaVuSans-62" x="1401.5625"/>
     <use xlink:href="#DejaVuSans-65" x="1465.039062"/>
     <use xlink:href="#DejaVuSans-74" x="1526.5625"/>
     <use xlink:href="#DejaVuSans-77" x="1565.771484"/>
     <use xlink:href="#DejaVuSans-65" x="1647.558594"/>
     <use xlink:href="#DejaVuSans-65" x="1709.082031"/>
     <use xlink:href="#DejaVuSans-6e" x="1770.605469"/>
     <use xlink:href="#DejaVuSans-20" x="1833.984375"/>
     <use xlink:href="#DejaVuSans-4f" x="1865.771484"/>
     <use xlink:href="#DejaVuSans-62" x="1944.482422"/>
     <use xlink:href="#DejaVuSans-65" x="2007.958984"/>
     <use xlink:href="#DejaVuSans-73" x="2069.482422"/>
     <use xlink:href="#DejaVuSans-69" x="2121.582031"/>
     <use xlink:href="#DejaVuSans-74" x="2149.365234"/>
     <use xlink:href="#DejaVuSans-79" x="2188.574219"/>
     <use xlink:href="#DejaVuSans-20" x="2247.753906"/>
     <use xlink:href="#DejaVuSans-61" x="2279.541016"/>
     <use xlink:href="#DejaVuSans-6e" x="2340.820312"/>
     <use xlink:href="#DejaVuSans-64" x="2404.199219"/>
     <use xlink:href="#DejaVuSans-20" x="2467.675781"/>
     <use xlink:href="#DejaVuSans-53" x="2499.462891"/>
     <use xlink:href="#DejaVuSans-57" x="2562.939453"/>
     <use xlink:href="#DejaVuSans-49" x="2661.816406"/>
     <use xlink:href="#DejaVuSans-57" x="2691.308594"/>
    </g>
   </g>
   <g id="text_16">
    <g clip-path="url(#pf7a793b5f1)">
     <!-- 9.57 -->
     <g transform="translate(349.478156 72.894465) rotate(-0.001232) scale(0.1 -0.1)">
      <defs>
       <path id="DejaVuSans-39" d="M 703 97 
L 703 672 
Q 941 559 1184 500 
Q 1428 441 1663 441 
Q 2288 441 2617 861 
Q 2947 1281 2994 2138 
Q 2813 1869 2534 1725 
Q 2256 1581 1919 1581 
Q 1219 1581 811 2004 
Q 403 2428 403 3163 
Q 403 3881 828 4315 
Q 1253 4750 1959 4750 
Q 2769 4750 3195 4129 
Q 3622 3509 3622 2328 
Q 3622 1225 3098 567 
Q 2575 -91 1691 -91 
Q 1453 -91 1209 -44 
Q 966 3 703 97 
z
M 1959 2075 
Q 2384 2075 2632 2365 
Q 2881 2656 2881 3163 
Q 2881 3666 2632 3958 
Q 2384 4250 1959 4250 
Q 1534 4250 1286 3958 
Q 1038 3666 1038 3163 
Q 1038 2656 1286 2365 
Q 1534 2075 1959 2075 
z
" transform="scale(0.015625)"/>
       <path id="DejaVuSans-37" d="M 525 4666 
L 3525 4666 
L 3525 4397 
L 1831 0 
L 1172 0 
L 2766 4134 
L 525 4134 
L 525 4666 
z
" transform="scale(0.015625)"/>
      </defs>
      <use xlink:href="#DejaVuSans-39"/>
      <use xlink:href="#DejaVuSans-2e" x="63.623047"/>
      <use xlink:href="#DejaVuSans-35" x="95.410156"/>
      <use xlink:href="#DejaVuSans-37" x="159.033203"/>
     </g>
    </g>
   </g>
   <g id="text_17">
    <g clip-path="url(#pf7a793b5f1)">
     <!-- 9.83 -->
     <g transform="translate(349.478156 114.551434) rotate(-0.001224) scale(0.1 -0.1)">
      <defs>
       <path id="DejaVuSans-38" d="M 2034 2216 
Q 1584 2216 1326 1975 
Q 1069 1734 1069 1313 
Q 1069 891 1326 650 
Q 1584 409 2034 409 
Q 2484 409 2743 651 
Q 3003 894 3003 1313 
Q 3003 1734 2745 1975 
Q 2488 2216 2034 2216 
z
M 1403 2484 
Q 997 2584 770 2862 
Q 544 3141 544 3541 
Q 544 4100 942 4425 
Q 1341 4750 2034 4750 
Q 2731 4750 3128 4425 
Q 3525 4100 3525 3541 
Q 3525 3141 3298 2862 
Q 3072 2584 2669 2484 
Q 3125 2378 3379 2068 
Q 3634 1759 3634 1313 
Q 3634 634 3220 271 
Q 2806 -91 2034 -91 
Q 1263 -91 848 271 
Q 434 634 434 1313 
Q 434 1759 690 2068 
Q 947 2378 1403 2484 
z
M 1172 3481 
Q 1172 3119 1398 2916 
Q 1625 2713 2034 2713 
Q 2441 2713 2670 2916 
Q 2900 3119 2900 3481 
Q 2900 3844 2670 4047 
Q 2441 4250 2034 4250 
Q 1625 4250 1398 4047 
Q 1172 3844 1172 3481 
z
" transform="scale(0.015625)"/>
      </defs>
      <use xlink:href="#DejaVuSans-39"/>
      <use xlink:href="#DejaVuSans-2e" x="63.623047"/>
      <use xlink:href="#DejaVuSans-38" x="95.410156"/>
      <use xlink:href="#DejaVuSans-33" x="159.033203"/>
     </g>
    </g>
   </g>
   <g id="text_18">
    <g clip-path="url(#pf7a793b5f1)">
     <!-- 10.09 -->
     <g transform="translate(331.867815 155.964485) rotate(-0.001231) scale(0.1 -0.1)">
      <use xlink:href="#DejaVuSans-31"/>
      <use xlink:href="#DejaVuSans-30" x="63.623047"/>
      <use xlink:href="#DejaVuSans-2e" x="127.246094"/>
      <use xlink:href="#DejaVuSans-30" x="159.033203"/>
      <use xlink:href="#DejaVuSans-39" x="222.65625"/>
     </g>
    </g>
   </g>
   <g id="text_19">
    <g clip-path="url(#pf7a793b5f1)">
     <!-- 10.35 -->
     <g transform="translate(331.867815 197.374063) rotate(-0.001234) scale(0.1 -0.1)">
      <use xlink:href="#DejaVuSans-31"/>
      <use xlink:href="#DejaVuSans-30" x="63.623047"/>
      <use xlink:href="#DejaVuSans-2e" x="127.246094"/>
      <use xlink:href="#DejaVuSans-33" x="159.033203"/>
      <use xlink:href="#DejaVuSans-35" x="222.65625"/>
     </g>
    </g>
   </g>
   <g id="text_20">
    <g clip-path="url(#pf7a793b5f1)">
     <!-- 10.61 -->
     <g transform="translate(331.867816 239.024616) rotate(-0.001242) scale(0.1 -0.1)">
      <defs>
       <path id="DejaVuSans-36" d="M 2113 2584 
Q 1688 2584 1439 2293 
Q 1191 2003 1191 1497 
Q 1191 994 1439 701 
Q 1688 409 2113 409 
Q 2538 409 2786 701 
Q 3034 994 3034 1497 
Q 3034 2003 2786 2293 
Q 2538 2584 2113 2584 
z
M 3366 4563 
L 3366 3988 
Q 3128 4100 2886 4159 
Q 2644 4219 2406 4219 
Q 1781 4219 1451 3797 
Q 1122 3375 1075 2522 
Q 1259 2794 1537 2939 
Q 1816 3084 2150 3084 
Q 2853 3084 3261 2657 
Q 3669 2231 3669 1497 
Q 3669 778 3244 343 
Q 2819 -91 2113 -91 
Q 1303 -91 875 529 
Q 447 1150 447 2328 
Q 447 3434 972 4092 
Q 1497 4750 2381 4750 
Q 2619 4750 2861 4703 
Q 3103 4656 3366 4563 
z
" transform="scale(0.015625)"/>
      </defs>
      <use xlink:href="#DejaVuSans-31"/>
      <use xlink:href="#DejaVuSans-30" x="63.623047"/>
      <use xlink:href="#DejaVuSans-2e" x="127.246094"/>
      <use xlink:href="#DejaVuSans-36" x="159.033203"/>
      <use xlink:href="#DejaVuSans-31" x="222.65625"/>
     </g>
    </g>
   </g>
   <g id="text_21">
    <g clip-path="url(#pf7a793b5f1)">
     <!-- 10.87 -->
     <g transform="translate(331.867816 281.174381) rotate(-0.001256) scale(0.1 -0.1)">
      <use xlink:href="#DejaVuSans-31"/>
      <use xlink:href="#DejaVuSans-30" x="63.623047"/>
      <use xlink:href="#DejaVuSans-2e" x="127.246094"/>
      <use xlink:href="#DejaVuSans-38" x="159.033203"/>
      <use xlink:href="#DejaVuSans-37" x="222.65625"/>
     </g>
    </g>
   </g>
  </g>
 </g>
 <defs>
  <clipPath id="pf7a793b5f1">
   <rect x="57.6" y="41.472" width="357.12" height="266.112"/>
  </clipPath>
 </defs>
</svg>
