<?xml version="1.0" encoding="utf-8" standalone="no"?>
<!DOCTYPE svg PUBLIC "-//W3C//DTD SVG 1.1//EN"
  "http://www.w3.org/Graphics/SVG/1.1/DTD/svg11.dtd">
<svg xmlns:xlink="http://www.w3.org/1999/xlink" width="460.8pt" height="345.6pt" viewBox="0 0 460.8 345.6" xmlns="http://www.w3.org/2000/svg" version="1.1">
 <metadata>
  <rdf:RDF xmlns:dc="http://purl.org/dc/elements/1.1/" xmlns:cc="http://creativecommons.org/ns#" xmlns:rdf="http://www.w3.org/1999/02/22-rdf-syntax-ns#">
   <cc:Work>
    <dc:type rdf:resource="http://purl.org/dc/dcmitype/StillImage"/>
    <dc:date>2024-04-22T00:51:14.022190</dc:date>
    <dc:format>image/svg+xml</dc:format>
    <dc:creator>
     <cc:Agent>
      <dc:title>Matplotlib v3.7.0, https://matplotlib.org/</dc:title>
     </cc:Agent>
    </dc:creator>
   </cc:Work>
  </rdf:RDF>
 </metadata>
 <defs>
  <style type="text/css">*{stroke-linejoin: round; stroke-linecap: butt}</style>
 </defs>
 <g id="figure_1">
  <g id="patch_1">
   <path d="M 0 345.6 
L 460.8 345.6 
L 460.8 0 
L 0 0 
L 0 345.6 
z
" style="fill: none"/>
  </g>
  <g id="axes_1"/>
  <g id="axes_2">
   <g id="patch_2">
    <path d="M 57.6 307.584 
L 414.72 307.584 
L 414.72 41.472 
L 57.6 41.472 
L 57.6 307.584 
z
" style="fill: none"/>
   </g>
   <g id="PathCollection_1">
    <path d="M 61.207273 307.584 
L 64.814545 307.584 
L 68.421818 307.584 
L 72.029091 307.584 
L 75.636364 307.584 
L 79.243636 307.584 
L 82.850909 307.584 
L 86.458182 307.584 
L 90.065455 307.584 
L 93.672727 307.584 
L 97.28 307.584 
L 100.887273 307.584 
L 104.494545 307.584 
L 108.101818 307.584 
L 111.709091 307.584 
L 115.316364 307.584 
L 118.923636 307.584 
L 122.530909 307.584 
L 126.138182 307.584 
L 129.745455 307.584 
L 133.352727 307.584 
L 136.96 307.584 
L 140.567273 307.584 
L 144.174545 307.584 
L 147.781818 307.584 
L 151.389091 307.584 
L 154.996364 307.584 
L 158.603636 307.584 
L 162.210909 307.584 
L 165.818182 307.584 
L 169.425455 307.584 
L 173.032727 307.584 
L 176.64 307.584 
L 180.247273 307.584 
L 183.854545 307.584 
L 187.461818 307.584 
L 191.069091 307.584 
L 194.676364 307.584 
L 198.283636 307.584 
L 201.890909 307.584 
L 205.498182 307.584 
L 209.105455 307.584 
L 212.712727 307.584 
L 216.32 307.584 
L 219.927273 307.584 
L 223.534545 307.584 
L 227.141818 307.584 
L 230.749091 307.584 
L 234.356364 307.584 
L 237.963636 307.584 
L 241.570909 307.584 
L 245.178182 307.584 
L 248.785455 307.584 
L 252.392727 307.584 
L 256 307.584 
L 259.607273 307.584 
L 263.214545 307.584 
L 266.821818 307.584 
L 270.429091 307.584 
L 274.036364 307.584 
L 277.643636 307.584 
L 281.250909 307.584 
L 284.858182 307.584 
L 288.465455 307.584 
L 292.072727 307.584 
L 295.68 307.584 
L 299.287273 307.584 
L 302.894545 307.584 
L 306.501818 307.584 
L 310.109091 307.584 
L 313.716364 307.584 
L 317.323636 307.584 
L 320.930909 307.584 
L 324.538182 307.584 
L 328.145455 307.584 
L 331.752727 307.584 
L 335.36 307.584 
L 338.967273 307.584 
L 342.574545 307.584 
L 346.181818 307.584 
L 349.789091 307.584 
L 353.396364 307.584 
L 357.003636 307.584 
L 360.610909 307.584 
L 364.218182 307.584 
L 367.825455 307.584 
L 371.432727 307.584 
L 375.04 307.584 
L 378.647273 307.584 
L 382.254545 307.584 
L 385.861818 307.584 
L 389.469091 307.584 
L 393.076364 307.584 
L 396.683636 307.584 
L 400.290909 307.584 
L 403.898182 307.584 
L 407.505455 307.584 
L 411.112727 307.584 
L 414.72 307.584 
L 414.72 304.896 
L 414.72 302.208 
L 414.72 299.52 
L 414.72 297.626575 
L 411.112727 297.626571 
L 407.505455 297.626566 
L 403.898182 297.626562 
L 400.290909 297.626557 
L 396.683636 297.626553 
L 393.076364 297.626548 
L 389.469091 297.626544 
L 385.861818 297.626539 
L 382.254545 297.626535 
L 378.647273 297.626531 
L 375.04 297.626526 
L 371.432727 297.626522 
L 367.825455 297.626518 
L 364.218182 297.626513 
L 360.610909 297.626509 
L 357.003636 297.626505 
L 353.396364 297.6265 
L 349.789091 297.626496 
L 346.181818 297.626492 
L 342.574545 297.626488 
L 338.967273 297.626484 
L 335.36 297.62648 
L 331.752727 297.626475 
L 328.145455 297.626471 
L 324.538182 297.626467 
L 320.930909 297.626463 
L 317.323636 297.626459 
L 313.716364 297.626455 
L 310.109091 297.626451 
L 306.501818 297.626447 
L 302.894545 297.626443 
L 299.287273 297.626439 
L 295.68 297.626435 
L 292.072727 297.626431 
L 288.465455 297.626427 
L 284.858182 297.626424 
L 281.250909 297.62642 
L 277.643636 297.626416 
L 274.036364 297.626412 
L 270.429091 297.626408 
L 266.821818 297.626404 
L 263.214545 297.626401 
L 259.607273 297.626397 
L 256 297.626393 
L 252.392727 297.62639 
L 248.785455 297.626386 
L 245.178182 297.626382 
L 241.570909 297.626379 
L 237.963636 297.626375 
L 234.356364 297.626371 
L 230.749091 297.626368 
L 227.141818 297.626364 
L 223.534545 297.626361 
L 219.927273 297.626357 
L 216.32 297.626354 
L 212.712727 297.62635 
L 209.105455 297.626347 
L 205.498182 297.626343 
L 201.890909 297.62634 
L 198.283636 297.626336 
L 194.676364 297.626333 
L 191.069091 297.62633 
L 187.461818 297.626326 
L 183.854545 297.626323 
L 180.247273 297.62632 
L 176.64 297.626316 
L 173.032727 297.626313 
L 169.425455 297.62631 
L 165.818182 297.626307 
L 162.210909 297.626303 
L 158.603636 297.6263 
L 154.996364 297.626297 
L 151.389091 297.626294 
L 147.781818 297.626291 
L 144.174545 297.626287 
L 140.567273 297.626284 
L 136.96 297.626281 
L 133.352727 297.626278 
L 129.745455 297.626275 
L 126.138182 297.626272 
L 122.530909 297.626269 
L 118.923636 297.626266 
L 115.316364 297.626263 
L 111.709091 297.62626 
L 108.101818 297.626257 
L 104.494545 297.626254 
L 100.887273 297.626252 
L 97.28 297.626249 
L 93.672727 297.626246 
L 90.065455 297.626243 
L 86.458182 297.62624 
L 82.850909 297.626237 
L 79.243636 297.626235 
L 75.636364 297.626232 
L 72.029091 297.626229 
L 68.421818 297.626226 
L 64.814545 297.626224 
L 61.207273 297.626221 
L 57.6 297.626218 
L 57.6 299.52 
L 57.6 302.208 
L 57.6 304.896 
L 57.6 307.584 
z
" clip-path="url(#pedea14ed32)" style="fill: #481b6d; fill-opacity: 0.75"/>
   </g>
   <g id="PathCollection_2">
    <path d="M 61.207273 297.626221 
L 64.814545 297.626224 
L 68.421818 297.626226 
L 72.029091 297.626229 
L 75.636364 297.626232 
L 79.243636 297.626235 
L 82.850909 297.626237 
L 86.458182 297.62624 
L 90.065455 297.626243 
L 93.672727 297.626246 
L 97.28 297.626249 
L 100.887273 297.626252 
L 104.494545 297.626254 
L 108.101818 297.626257 
L 111.709091 297.62626 
L 115.316364 297.626263 
L 118.923636 297.626266 
L 122.530909 297.626269 
L 126.138182 297.626272 
L 129.745455 297.626275 
L 133.352727 297.626278 
L 136.96 297.626281 
L 140.567273 297.626284 
L 144.174545 297.626287 
L 147.781818 297.626291 
L 151.389091 297.626294 
L 154.996364 297.626297 
L 158.603636 297.6263 
L 162.210909 297.626303 
L 165.818182 297.626307 
L 169.425455 297.62631 
L 173.032727 297.626313 
L 176.64 297.626316 
L 180.247273 297.62632 
L 183.854545 297.626323 
L 187.461818 297.626326 
L 191.069091 297.62633 
L 194.676364 297.626333 
L 198.283636 297.626336 
L 201.890909 297.62634 
L 205.498182 297.626343 
L 209.105455 297.626347 
L 212.712727 297.62635 
L 216.32 297.626354 
L 219.927273 297.626357 
L 223.534545 297.626361 
L 227.141818 297.626364 
L 230.749091 297.626368 
L 234.356364 297.626371 
L 237.963636 297.626375 
L 241.570909 297.626379 
L 245.178182 297.626382 
L 248.785455 297.626386 
L 252.392727 297.62639 
L 256 297.626393 
L 259.607273 297.626397 
L 263.214545 297.626401 
L 266.821818 297.626404 
L 270.429091 297.626408 
L 274.036364 297.626412 
L 277.643636 297.626416 
L 281.250909 297.62642 
L 284.858182 297.626424 
L 288.465455 297.626427 
L 292.072727 297.626431 
L 295.68 297.626435 
L 299.287273 297.626439 
L 302.894545 297.626443 
L 306.501818 297.626447 
L 310.109091 297.626451 
L 313.716364 297.626455 
L 317.323636 297.626459 
L 320.930909 297.626463 
L 324.538182 297.626467 
L 328.145455 297.626471 
L 331.752727 297.626475 
L 335.36 297.62648 
L 338.967273 297.626484 
L 342.574545 297.626488 
L 346.181818 297.626492 
L 349.789091 297.626496 
L 353.396364 297.6265 
L 357.003636 297.626505 
L 360.610909 297.626509 
L 364.218182 297.626513 
L 367.825455 297.626518 
L 371.432727 297.626522 
L 375.04 297.626526 
L 378.647273 297.626531 
L 382.254545 297.626535 
L 385.861818 297.626539 
L 389.469091 297.626544 
L 393.076364 297.626548 
L 396.683636 297.626553 
L 400.290909 297.626557 
L 403.898182 297.626562 
L 407.505455 297.626566 
L 411.112727 297.626571 
L 414.72 297.626575 
L 414.72 296.832 
L 414.72 294.144 
L 414.72 291.456 
L 414.72 288.768 
L 414.72 286.08 
L 414.72 283.907332 
L 411.112727 283.907327 
L 407.505455 283.907322 
L 403.898182 283.907317 
L 400.290909 283.907313 
L 396.683636 283.907308 
L 393.076364 283.907303 
L 389.469091 283.907298 
L 385.861818 283.907294 
L 382.254545 283.907289 
L 378.647273 283.907284 
L 375.04 283.907279 
L 371.432727 283.907275 
L 367.825455 283.90727 
L 364.218182 283.907265 
L 360.610909 283.90726 
L 357.003636 283.907256 
L 353.396364 283.907251 
L 349.789091 283.907246 
L 346.181818 283.907242 
L 342.574545 283.907237 
L 338.967273 283.907232 
L 335.36 283.907228 
L 331.752727 283.907223 
L 328.145455 283.907218 
L 324.538182 283.907214 
L 320.930909 283.907209 
L 317.323636 283.907205 
L 313.716364 283.9072 
L 310.109091 283.907195 
L 306.501818 283.907191 
L 302.894545 283.907186 
L 299.287273 283.907182 
L 295.68 283.907177 
L 292.072727 283.907173 
L 288.465455 283.907168 
L 284.858182 283.907164 
L 281.250909 283.907159 
L 277.643636 283.907155 
L 274.036364 283.90715 
L 270.429091 283.907146 
L 266.821818 283.907141 
L 263.214545 283.907137 
L 259.607273 283.907132 
L 256 283.907128 
L 252.392727 283.907123 
L 248.785455 283.907119 
L 245.178182 283.907114 
L 241.570909 283.90711 
L 237.963636 283.907106 
L 234.356364 283.907101 
L 230.749091 283.907097 
L 227.141818 283.907093 
L 223.534545 283.907088 
L 219.927273 283.907084 
L 216.32 283.907079 
L 212.712727 283.907075 
L 209.105455 283.907071 
L 205.498182 283.907066 
L 201.890909 283.907062 
L 198.283636 283.907058 
L 194.676364 283.907054 
L 191.069091 283.907049 
L 187.461818 283.907045 
L 183.854545 283.907041 
L 180.247273 283.907036 
L 176.64 283.907032 
L 173.032727 283.907028 
L 169.425455 283.907024 
L 165.818182 283.90702 
L 162.210909 283.907015 
L 158.603636 283.907011 
L 154.996364 283.907007 
L 151.389091 283.907003 
L 147.781818 283.906999 
L 144.174545 283.906994 
L 140.567273 283.90699 
L 136.96 283.906986 
L 133.352727 283.906982 
L 129.745455 283.906978 
L 126.138182 283.906974 
L 122.530909 283.90697 
L 118.923636 283.906965 
L 115.316364 283.906961 
L 111.709091 283.906957 
L 108.101818 283.906953 
L 104.494545 283.906949 
L 100.887273 283.906945 
L 97.28 283.906941 
L 93.672727 283.906937 
L 90.065455 283.906933 
L 86.458182 283.906929 
L 82.850909 283.906925 
L 79.243636 283.906921 
L 75.636364 283.906917 
L 72.029091 283.906913 
L 68.421818 283.906909 
L 64.814545 283.906905 
L 61.207273 283.906901 
L 57.6 283.906897 
L 57.6 286.08 
L 57.6 288.768 
L 57.6 291.456 
L 57.6 294.144 
L 57.6 296.832 
L 57.6 297.626218 
z
" clip-path="url(#pedea14ed32)" style="fill: #3f4788; fill-opacity: 0.75"/>
   </g>
   <g id="PathCollection_3">
    <path d="M 61.207273 283.906901 
L 64.814545 283.906905 
L 68.421818 283.906909 
L 72.029091 283.906913 
L 75.636364 283.906917 
L 79.243636 283.906921 
L 82.850909 283.906925 
L 86.458182 283.906929 
L 90.065455 283.906933 
L 93.672727 283.906937 
L 97.28 283.906941 
L 100.887273 283.906945 
L 104.494545 283.906949 
L 108.101818 283.906953 
L 111.709091 283.906957 
L 115.316364 283.906961 
L 118.923636 283.906965 
L 122.530909 283.90697 
L 126.138182 283.906974 
L 129.745455 283.906978 
L 133.352727 283.906982 
L 136.96 283.906986 
L 140.567273 283.90699 
L 144.174545 283.906994 
L 147.781818 283.906999 
L 151.389091 283.907003 
L 154.996364 283.907007 
L 158.603636 283.907011 
L 162.210909 283.907015 
L 165.818182 283.90702 
L 169.425455 283.907024 
L 173.032727 283.907028 
L 176.64 283.907032 
L 180.247273 283.907036 
L 183.854545 283.907041 
L 187.461818 283.907045 
L 191.069091 283.907049 
L 194.676364 283.907054 
L 198.283636 283.907058 
L 201.890909 283.907062 
L 205.498182 283.907066 
L 209.105455 283.907071 
L 212.712727 283.907075 
L 216.32 283.907079 
L 219.927273 283.907084 
L 223.534545 283.907088 
L 227.141818 283.907093 
L 230.749091 283.907097 
L 234.356364 283.907101 
L 237.963636 283.907106 
L 241.570909 283.90711 
L 245.178182 283.907114 
L 248.785455 283.907119 
L 252.392727 283.907123 
L 256 283.907128 
L 259.607273 283.907132 
L 263.214545 283.907137 
L 266.821818 283.907141 
L 270.429091 283.907146 
L 274.036364 283.90715 
L 277.643636 283.907155 
L 281.250909 283.907159 
L 284.858182 283.907164 
L 288.465455 283.907168 
L 292.072727 283.907173 
L 295.68 283.907177 
L 299.287273 283.907182 
L 302.894545 283.907186 
L 306.501818 283.907191 
L 310.109091 283.907195 
L 313.716364 283.9072 
L 317.323636 283.907205 
L 320.930909 283.907209 
L 324.538182 283.907214 
L 328.145455 283.907218 
L 331.752727 283.907223 
L 335.36 283.907228 
L 338.967273 283.907232 
L 342.574545 283.907237 
L 346.181818 283.907242 
L 349.789091 283.907246 
L 353.396364 283.907251 
L 357.003636 283.907256 
L 360.610909 283.90726 
L 364.218182 283.907265 
L 367.825455 283.90727 
L 371.432727 283.907275 
L 375.04 283.907279 
L 378.647273 283.907284 
L 382.254545 283.907289 
L 385.861818 283.907294 
L 389.469091 283.907298 
L 393.076364 283.907303 
L 396.683636 283.907308 
L 400.290909 283.907313 
L 403.898182 283.907317 
L 407.505455 283.907322 
L 411.112727 283.907327 
L 414.72 283.907332 
L 414.72 283.392 
L 414.72 280.704 
L 414.72 278.016 
L 414.72 275.328 
L 414.72 272.64 
L 414.72 270.449929 
L 411.112727 270.449924 
L 407.505455 270.449919 
L 403.898182 270.449914 
L 400.290909 270.449908 
L 396.683636 270.449903 
L 393.076364 270.449898 
L 389.469091 270.449892 
L 385.861818 270.449887 
L 382.254545 270.449882 
L 378.647273 270.449876 
L 375.04 270.449871 
L 371.432727 270.449866 
L 367.825455 270.44986 
L 364.218182 270.449855 
L 360.610909 270.449849 
L 357.003636 270.449844 
L 353.396364 270.449839 
L 349.789091 270.449833 
L 346.181818 270.449828 
L 342.574545 270.449823 
L 338.967273 270.449817 
L 335.36 270.449812 
L 331.752727 270.449807 
L 328.145455 270.449801 
L 324.538182 270.449796 
L 320.930909 270.449791 
L 317.323636 270.449785 
L 313.716364 270.44978 
L 310.109091 270.449775 
L 306.501818 270.449769 
L 302.894545 270.449764 
L 299.287273 270.449759 
L 295.68 270.449753 
L 292.072727 270.449748 
L 288.465455 270.449743 
L 284.858182 270.449737 
L 281.250909 270.449732 
L 277.643636 270.449727 
L 274.036364 270.449721 
L 270.429091 270.449716 
L 266.821818 270.449711 
L 263.214545 270.449705 
L 259.607273 270.4497 
L 256 270.449695 
L 252.392727 270.449689 
L 248.785455 270.449684 
L 245.178182 270.449679 
L 241.570909 270.449673 
L 237.963636 270.449668 
L 234.356364 270.449663 
L 230.749091 270.449657 
L 227.141818 270.449652 
L 223.534545 270.449646 
L 219.927273 270.449641 
L 216.32 270.449636 
L 212.712727 270.44963 
L 209.105455 270.449625 
L 205.498182 270.44962 
L 201.890909 270.449614 
L 198.283636 270.449609 
L 194.676364 270.449604 
L 191.069091 270.449598 
L 187.461818 270.449593 
L 183.854545 270.449588 
L 180.247273 270.449582 
L 176.64 270.449577 
L 173.032727 270.449572 
L 169.425455 270.449566 
L 165.818182 270.449561 
L 162.210909 270.449555 
L 158.603636 270.44955 
L 154.996364 270.449545 
L 151.389091 270.449539 
L 147.781818 270.449534 
L 144.174545 270.449529 
L 140.567273 270.449523 
L 136.96 270.449518 
L 133.352727 270.449513 
L 129.745455 270.449507 
L 126.138182 270.449502 
L 122.530909 270.449497 
L 118.923636 270.449491 
L 115.316364 270.449486 
L 111.709091 270.44948 
L 108.101818 270.449475 
L 104.494545 270.44947 
L 100.887273 270.449464 
L 97.28 270.449459 
L 93.672727 270.449454 
L 90.065455 270.449448 
L 86.458182 270.449443 
L 82.850909 270.449438 
L 79.243636 270.449432 
L 75.636364 270.449427 
L 72.029091 270.449421 
L 68.421818 270.449416 
L 64.814545 270.449411 
L 61.207273 270.449405 
L 57.6 270.4494 
L 57.6 272.64 
L 57.6 275.328 
L 57.6 278.016 
L 57.6 280.704 
L 57.6 283.392 
L 57.6 283.906897 
z
" clip-path="url(#pedea14ed32)" style="fill: #2e6e8e; fill-opacity: 0.75"/>
   </g>
   <g id="PathCollection_4">
    <path d="M 61.207273 270.449405 
L 64.814545 270.449411 
L 68.421818 270.449416 
L 72.029091 270.449421 
L 75.636364 270.449427 
L 79.243636 270.449432 
L 82.850909 270.449438 
L 86.458182 270.449443 
L 90.065455 270.449448 
L 93.672727 270.449454 
L 97.28 270.449459 
L 100.887273 270.449464 
L 104.494545 270.44947 
L 108.101818 270.449475 
L 111.709091 270.44948 
L 115.316364 270.449486 
L 118.923636 270.449491 
L 122.530909 270.449497 
L 126.138182 270.449502 
L 129.745455 270.449507 
L 133.352727 270.449513 
L 136.96 270.449518 
L 140.567273 270.449523 
L 144.174545 270.449529 
L 147.781818 270.449534 
L 151.389091 270.449539 
L 154.996364 270.449545 
L 158.603636 270.44955 
L 162.210909 270.449555 
L 165.818182 270.449561 
L 169.425455 270.449566 
L 173.032727 270.449572 
L 176.64 270.449577 
L 180.247273 270.449582 
L 183.854545 270.449588 
L 187.461818 270.449593 
L 191.069091 270.449598 
L 194.676364 270.449604 
L 198.283636 270.449609 
L 201.890909 270.449614 
L 205.498182 270.44962 
L 209.105455 270.449625 
L 212.712727 270.44963 
L 216.32 270.449636 
L 219.927273 270.449641 
L 223.534545 270.449646 
L 227.141818 270.449652 
L 230.749091 270.449657 
L 234.356364 270.449663 
L 237.963636 270.449668 
L 241.570909 270.449673 
L 245.178182 270.449679 
L 248.785455 270.449684 
L 252.392727 270.449689 
L 256 270.449695 
L 259.607273 270.4497 
L 263.214545 270.449705 
L 266.821818 270.449711 
L 270.429091 270.449716 
L 274.036364 270.449721 
L 277.643636 270.449727 
L 281.250909 270.449732 
L 284.858182 270.449737 
L 288.465455 270.449743 
L 292.072727 270.449748 
L 295.68 270.449753 
L 299.287273 270.449759 
L 302.894545 270.449764 
L 306.501818 270.449769 
L 310.109091 270.449775 
L 313.716364 270.44978 
L 317.323636 270.449785 
L 320.930909 270.449791 
L 324.538182 270.449796 
L 328.145455 270.449801 
L 331.752727 270.449807 
L 335.36 270.449812 
L 338.967273 270.449817 
L 342.574545 270.449823 
L 346.181818 270.449828 
L 349.789091 270.449833 
L 353.396364 270.449839 
L 357.003636 270.449844 
L 360.610909 270.449849 
L 364.218182 270.449855 
L 367.825455 270.44986 
L 371.432727 270.449866 
L 375.04 270.449871 
L 378.647273 270.449876 
L 382.254545 270.449882 
L 385.861818 270.449887 
L 389.469091 270.449892 
L 393.076364 270.449898 
L 396.683636 270.449903 
L 400.290909 270.449908 
L 403.898182 270.449914 
L 407.505455 270.449919 
L 411.112727 270.449924 
L 414.72 270.449929 
L 414.72 269.952 
L 414.72 267.264 
L 414.72 264.576 
L 414.72 261.888 
L 414.72 259.2 
L 414.72 256.512 
L 414.72 256.444225 
L 411.112727 256.444219 
L 407.505455 256.444213 
L 403.898182 256.444206 
L 400.290909 256.4442 
L 396.683636 256.444194 
L 393.076364 256.444187 
L 389.469091 256.444181 
L 385.861818 256.444175 
L 382.254545 256.444168 
L 378.647273 256.444162 
L 375.04 256.444155 
L 371.432727 256.444149 
L 367.825455 256.444143 
L 364.218182 256.444136 
L 360.610909 256.44413 
L 357.003636 256.444123 
L 353.396364 256.444117 
L 349.789091 256.44411 
L 346.181818 256.444104 
L 342.574545 256.444097 
L 338.967273 256.444091 
L 335.36 256.444084 
L 331.752727 256.444078 
L 328.145455 256.444071 
L 324.538182 256.444065 
L 320.930909 256.444058 
L 317.323636 256.444052 
L 313.716364 256.444045 
L 310.109091 256.444039 
L 306.501818 256.444032 
L 302.894545 256.444025 
L 299.287273 256.444019 
L 295.68 256.444012 
L 292.072727 256.444006 
L 288.465455 256.443999 
L 284.858182 256.443992 
L 281.250909 256.443986 
L 277.643636 256.443979 
L 274.036364 256.443972 
L 270.429091 256.443965 
L 266.821818 256.443959 
L 263.214545 256.443952 
L 259.607273 256.443945 
L 256 256.443939 
L 252.392727 256.443932 
L 248.785455 256.443925 
L 245.178182 256.443918 
L 241.570909 256.443911 
L 237.963636 256.443905 
L 234.356364 256.443898 
L 230.749091 256.443891 
L 227.141818 256.443884 
L 223.534545 256.443877 
L 219.927273 256.443871 
L 216.32 256.443864 
L 212.712727 256.443857 
L 209.105455 256.44385 
L 205.498182 256.443843 
L 201.890909 256.443836 
L 198.283636 256.443829 
L 194.676364 256.443822 
L 191.069091 256.443815 
L 187.461818 256.443808 
L 183.854545 256.443801 
L 180.247273 256.443795 
L 176.64 256.443788 
L 173.032727 256.443781 
L 169.425455 256.443774 
L 165.818182 256.443767 
L 162.210909 256.44376 
L 158.603636 256.443753 
L 154.996364 256.443745 
L 151.389091 256.443738 
L 147.781818 256.443731 
L 144.174545 256.443724 
L 140.567273 256.443717 
L 136.96 256.44371 
L 133.352727 256.443703 
L 129.745455 256.443696 
L 126.138182 256.443689 
L 122.530909 256.443682 
L 118.923636 256.443674 
L 115.316364 256.443667 
L 111.709091 256.44366 
L 108.101818 256.443653 
L 104.494545 256.443646 
L 100.887273 256.443639 
L 97.28 256.443631 
L 93.672727 256.443624 
L 90.065455 256.443617 
L 86.458182 256.44361 
L 82.850909 256.443602 
L 79.243636 256.443595 
L 75.636364 256.443588 
L 72.029091 256.443581 
L 68.421818 256.443573 
L 64.814545 256.443566 
L 61.207273 256.443559 
L 57.6 256.443551 
L 57.6 256.512 
L 57.6 259.2 
L 57.6 261.888 
L 57.6 264.576 
L 57.6 267.264 
L 57.6 269.952 
L 57.6 270.4494 
z
" clip-path="url(#pedea14ed32)" style="fill: #21918c; fill-opacity: 0.75"/>
   </g>
   <g id="PathCollection_5">
    <path d="M 61.207273 256.443559 
L 64.814545 256.443566 
L 68.421818 256.443573 
L 72.029091 256.443581 
L 75.636364 256.443588 
L 79.243636 256.443595 
L 82.850909 256.443602 
L 86.458182 256.44361 
L 90.065455 256.443617 
L 93.672727 256.443624 
L 97.28 256.443631 
L 100.887273 256.443639 
L 104.494545 256.443646 
L 108.101818 256.443653 
L 111.709091 256.44366 
L 115.316364 256.443667 
L 118.923636 256.443674 
L 122.530909 256.443682 
L 126.138182 256.443689 
L 129.745455 256.443696 
L 133.352727 256.443703 
L 136.96 256.44371 
L 140.567273 256.443717 
L 144.174545 256.443724 
L 147.781818 256.443731 
L 151.389091 256.443738 
L 154.996364 256.443745 
L 158.603636 256.443753 
L 162.210909 256.44376 
L 165.818182 256.443767 
L 169.425455 256.443774 
L 173.032727 256.443781 
L 176.64 256.443788 
L 180.247273 256.443795 
L 183.854545 256.443801 
L 187.461818 256.443808 
L 191.069091 256.443815 
L 194.676364 256.443822 
L 198.283636 256.443829 
L 201.890909 256.443836 
L 205.498182 256.443843 
L 209.105455 256.44385 
L 212.712727 256.443857 
L 216.32 256.443864 
L 219.927273 256.443871 
L 223.534545 256.443877 
L 227.141818 256.443884 
L 230.749091 256.443891 
L 234.356364 256.443898 
L 237.963636 256.443905 
L 241.570909 256.443911 
L 245.178182 256.443918 
L 248.785455 256.443925 
L 252.392727 256.443932 
L 256 256.443939 
L 259.607273 256.443945 
L 263.214545 256.443952 
L 266.821818 256.443959 
L 270.429091 256.443965 
L 274.036364 256.443972 
L 277.643636 256.443979 
L 281.250909 256.443986 
L 284.858182 256.443992 
L 288.465455 256.443999 
L 292.072727 256.444006 
L 295.68 256.444012 
L 299.287273 256.444019 
L 302.894545 256.444025 
L 306.501818 256.444032 
L 310.109091 256.444039 
L 313.716364 256.444045 
L 317.323636 256.444052 
L 320.930909 256.444058 
L 324.538182 256.444065 
L 328.145455 256.444071 
L 331.752727 256.444078 
L 335.36 256.444084 
L 338.967273 256.444091 
L 342.574545 256.444097 
L 346.181818 256.444104 
L 349.789091 256.44411 
L 353.396364 256.444117 
L 357.003636 256.444123 
L 360.610909 256.44413 
L 364.218182 256.444136 
L 367.825455 256.444143 
L 371.432727 256.444149 
L 375.04 256.444155 
L 378.647273 256.444162 
L 382.254545 256.444168 
L 385.861818 256.444175 
L 389.469091 256.444181 
L 393.076364 256.444187 
L 396.683636 256.444194 
L 400.290909 256.4442 
L 403.898182 256.444206 
L 407.505455 256.444213 
L 411.112727 256.444219 
L 414.72 256.444225 
L 414.72 253.824 
L 414.72 251.136 
L 414.72 248.448 
L 414.72 245.76 
L 414.72 243.072 
L 414.72 240.694623 
L 411.112727 240.694616 
L 407.505455 240.694608 
L 403.898182 240.6946 
L 400.290909 240.694592 
L 396.683636 240.694584 
L 393.076364 240.694576 
L 389.469091 240.694568 
L 385.861818 240.69456 
L 382.254545 240.694552 
L 378.647273 240.694544 
L 375.04 240.694536 
L 371.432727 240.694528 
L 367.825455 240.69452 
L 364.218182 240.694512 
L 360.610909 240.694504 
L 357.003636 240.694496 
L 353.396364 240.694487 
L 349.789091 240.694479 
L 346.181818 240.694471 
L 342.574545 240.694463 
L 338.967273 240.694454 
L 335.36 240.694446 
L 331.752727 240.694438 
L 328.145455 240.694429 
L 324.538182 240.694421 
L 320.930909 240.694412 
L 317.323636 240.694404 
L 313.716364 240.694396 
L 310.109091 240.694387 
L 306.501818 240.694379 
L 302.894545 240.69437 
L 299.287273 240.694361 
L 295.68 240.694353 
L 292.072727 240.694344 
L 288.465455 240.694336 
L 284.858182 240.694327 
L 281.250909 240.694318 
L 277.643636 240.69431 
L 274.036364 240.694301 
L 270.429091 240.694292 
L 266.821818 240.694283 
L 263.214545 240.694275 
L 259.607273 240.694266 
L 256 240.694257 
L 252.392727 240.694248 
L 248.785455 240.694239 
L 245.178182 240.69423 
L 241.570909 240.694221 
L 237.963636 240.694212 
L 234.356364 240.694203 
L 230.749091 240.694194 
L 227.141818 240.694185 
L 223.534545 240.694176 
L 219.927273 240.694167 
L 216.32 240.694158 
L 212.712727 240.694149 
L 209.105455 240.69414 
L 205.498182 240.694131 
L 201.890909 240.694121 
L 198.283636 240.694112 
L 194.676364 240.694103 
L 191.069091 240.694094 
L 187.461818 240.694084 
L 183.854545 240.694075 
L 180.247273 240.694066 
L 176.64 240.694056 
L 173.032727 240.694047 
L 169.425455 240.694037 
L 165.818182 240.694028 
L 162.210909 240.694018 
L 158.603636 240.694009 
L 154.996364 240.693999 
L 151.389091 240.69399 
L 147.781818 240.69398 
L 144.174545 240.693971 
L 140.567273 240.693961 
L 136.96 240.693951 
L 133.352727 240.693942 
L 129.745455 240.693932 
L 126.138182 240.693922 
L 122.530909 240.693913 
L 118.923636 240.693903 
L 115.316364 240.693893 
L 111.709091 240.693883 
L 108.101818 240.693873 
L 104.494545 240.693864 
L 100.887273 240.693854 
L 97.28 240.693844 
L 93.672727 240.693834 
L 90.065455 240.693824 
L 86.458182 240.693814 
L 82.850909 240.693804 
L 79.243636 240.693794 
L 75.636364 240.693784 
L 72.029091 240.693774 
L 68.421818 240.693764 
L 64.814545 240.693754 
L 61.207273 240.693743 
L 57.6 240.693733 
L 57.6 243.072 
L 57.6 245.76 
L 57.6 248.448 
L 57.6 251.136 
L 57.6 253.824 
L 57.6 256.443551 
z
" clip-path="url(#pedea14ed32)" style="fill: #2db27d; fill-opacity: 0.75"/>
   </g>
   <g id="PathCollection_6">
    <path d="M 61.207273 240.693743 
L 64.814545 240.693754 
L 68.421818 240.693764 
L 72.029091 240.693774 
L 75.636364 240.693784 
L 79.243636 240.693794 
L 82.850909 240.693804 
L 86.458182 240.693814 
L 90.065455 240.693824 
L 93.672727 240.693834 
L 97.28 240.693844 
L 100.887273 240.693854 
L 104.494545 240.693864 
L 108.101818 240.693873 
L 111.709091 240.693883 
L 115.316364 240.693893 
L 118.923636 240.693903 
L 122.530909 240.693913 
L 126.138182 240.693922 
L 129.745455 240.693932 
L 133.352727 240.693942 
L 136.96 240.693951 
L 140.567273 240.693961 
L 144.174545 240.693971 
L 147.781818 240.69398 
L 151.389091 240.69399 
L 154.996364 240.693999 
L 158.603636 240.694009 
L 162.210909 240.694018 
L 165.818182 240.694028 
L 169.425455 240.694037 
L 173.032727 240.694047 
L 176.64 240.694056 
L 180.247273 240.694066 
L 183.854545 240.694075 
L 187.461818 240.694084 
L 191.069091 240.694094 
L 194.676364 240.694103 
L 198.283636 240.694112 
L 201.890909 240.694121 
L 205.498182 240.694131 
L 209.105455 240.69414 
L 212.712727 240.694149 
L 216.32 240.694158 
L 219.927273 240.694167 
L 223.534545 240.694176 
L 227.141818 240.694185 
L 230.749091 240.694194 
L 234.356364 240.694203 
L 237.963636 240.694212 
L 241.570909 240.694221 
L 245.178182 240.69423 
L 248.785455 240.694239 
L 252.392727 240.694248 
L 256 240.694257 
L 259.607273 240.694266 
L 263.214545 240.694275 
L 266.821818 240.694283 
L 270.429091 240.694292 
L 274.036364 240.694301 
L 277.643636 240.69431 
L 281.250909 240.694318 
L 284.858182 240.694327 
L 288.465455 240.694336 
L 292.072727 240.694344 
L 295.68 240.694353 
L 299.287273 240.694361 
L 302.894545 240.69437 
L 306.501818 240.694379 
L 310.109091 240.694387 
L 313.716364 240.694396 
L 317.323636 240.694404 
L 320.930909 240.694412 
L 324.538182 240.694421 
L 328.145455 240.694429 
L 331.752727 240.694438 
L 335.36 240.694446 
L 338.967273 240.694454 
L 342.574545 240.694463 
L 346.181818 240.694471 
L 349.789091 240.694479 
L 353.396364 240.694487 
L 357.003636 240.694496 
L 360.610909 240.694504 
L 364.218182 240.694512 
L 367.825455 240.69452 
L 371.432727 240.694528 
L 375.04 240.694536 
L 378.647273 240.694544 
L 382.254545 240.694552 
L 385.861818 240.69456 
L 389.469091 240.694568 
L 393.076364 240.694576 
L 396.683636 240.694584 
L 400.290909 240.694592 
L 403.898182 240.6946 
L 407.505455 240.694608 
L 411.112727 240.694616 
L 414.72 240.694623 
L 414.72 240.384 
L 414.72 237.696 
L 414.72 235.008 
L 414.72 232.32 
L 414.72 229.632 
L 414.72 226.944 
L 414.72 224.256 
L 414.72 221.568 
L 414.72 220.003647 
L 411.112727 220.003634 
L 407.505455 220.003621 
L 403.898182 220.003608 
L 400.290909 220.003595 
L 396.683636 220.003582 
L 393.076364 220.003569 
L 389.469091 220.003556 
L 385.861818 220.003543 
L 382.254545 220.003529 
L 378.647273 220.003516 
L 375.04 220.003503 
L 371.432727 220.003489 
L 367.825455 220.003476 
L 364.218182 220.003462 
L 360.610909 220.003449 
L 357.003636 220.003435 
L 353.396364 220.003421 
L 349.789091 220.003407 
L 346.181818 220.003394 
L 342.574545 220.00338 
L 338.967273 220.003366 
L 335.36 220.003352 
L 331.752727 220.003338 
L 328.145455 220.003324 
L 324.538182 220.00331 
L 320.930909 220.003295 
L 317.323636 220.003281 
L 313.716364 220.003267 
L 310.109091 220.003253 
L 306.501818 220.003238 
L 302.894545 220.003224 
L 299.287273 220.003209 
L 295.68 220.003195 
L 292.072727 220.00318 
L 288.465455 220.003165 
L 284.858182 220.003151 
L 281.250909 220.003136 
L 277.643636 220.003121 
L 274.036364 220.003106 
L 270.429091 220.003091 
L 266.821818 220.003076 
L 263.214545 220.003061 
L 259.607273 220.003046 
L 256 220.003031 
L 252.392727 220.003015 
L 248.785455 220.003 
L 245.178182 220.002985 
L 241.570909 220.002969 
L 237.963636 220.002954 
L 234.356364 220.002938 
L 230.749091 220.002923 
L 227.141818 220.002907 
L 223.534545 220.002892 
L 219.927273 220.002876 
L 216.32 220.00286 
L 212.712727 220.002844 
L 209.105455 220.002828 
L 205.498182 220.002812 
L 201.890909 220.002796 
L 198.283636 220.00278 
L 194.676364 220.002764 
L 191.069091 220.002748 
L 187.461818 220.002732 
L 183.854545 220.002715 
L 180.247273 220.002699 
L 176.64 220.002683 
L 173.032727 220.002666 
L 169.425455 220.00265 
L 165.818182 220.002633 
L 162.210909 220.002617 
L 158.603636 220.0026 
L 154.996364 220.002583 
L 151.389091 220.002566 
L 147.781818 220.00255 
L 144.174545 220.002533 
L 140.567273 220.002516 
L 136.96 220.002499 
L 133.352727 220.002482 
L 129.745455 220.002465 
L 126.138182 220.002448 
L 122.530909 220.00243 
L 118.923636 220.002413 
L 115.316364 220.002396 
L 111.709091 220.002378 
L 108.101818 220.002361 
L 104.494545 220.002343 
L 100.887273 220.002326 
L 97.28 220.002308 
L 93.672727 220.002291 
L 90.065455 220.002273 
L 86.458182 220.002255 
L 82.850909 220.002237 
L 79.243636 220.00222 
L 75.636364 220.002202 
L 72.029091 220.002184 
L 68.421818 220.002166 
L 64.814545 220.002147 
L 61.207273 220.002129 
L 57.6 220.002111 
L 57.6 221.568 
L 57.6 224.256 
L 57.6 226.944 
L 57.6 229.632 
L 57.6 232.32 
L 57.6 235.008 
L 57.6 237.696 
L 57.6 240.384 
L 57.6 240.693733 
z
" clip-path="url(#pedea14ed32)" style="fill: #73d056; fill-opacity: 0.75"/>
    <path d="M 61.207273 138.344238 
L 64.814545 138.344207 
L 68.421818 138.344177 
L 72.029091 138.344146 
L 75.636364 138.344116 
L 79.243636 138.344086 
L 82.850909 138.344055 
L 86.458182 138.344025 
L 90.065455 138.343995 
L 93.672727 138.343965 
L 97.28 138.343935 
L 100.887273 138.343906 
L 104.494545 138.343876 
L 108.101818 138.343846 
L 111.709091 138.343817 
L 115.316364 138.343787 
L 118.923636 138.343758 
L 122.530909 138.343729 
L 126.138182 138.3437 
L 129.745455 138.343671 
L 133.352727 138.343642 
L 136.96 138.343613 
L 140.567273 138.343584 
L 144.174545 138.343555 
L 147.781818 138.343527 
L 151.389091 138.343498 
L 154.996364 138.34347 
L 158.603636 138.343441 
L 162.210909 138.343413 
L 165.818182 138.343385 
L 169.425455 138.343357 
L 173.032727 138.343329 
L 176.64 138.343301 
L 180.247273 138.343273 
L 183.854545 138.343245 
L 187.461818 138.343218 
L 191.069091 138.34319 
L 194.676364 138.343163 
L 198.283636 138.343135 
L 201.890909 138.343108 
L 205.498182 138.343081 
L 209.105455 138.343054 
L 212.712727 138.343027 
L 216.32 138.343 
L 219.927273 138.342973 
L 223.534545 138.342946 
L 227.141818 138.34292 
L 230.749091 138.342893 
L 234.356364 138.342867 
L 237.963636 138.34284 
L 241.570909 138.342814 
L 245.178182 138.342788 
L 248.785455 138.342762 
L 252.392727 138.342736 
L 256 138.34271 
L 259.607273 138.342684 
L 263.214545 138.342658 
L 266.821818 138.342633 
L 270.429091 138.342607 
L 274.036364 138.342582 
L 277.643636 138.342556 
L 281.250909 138.342531 
L 284.858182 138.342506 
L 288.465455 138.342481 
L 292.072727 138.342456 
L 295.68 138.342431 
L 299.287273 138.342406 
L 302.894545 138.342381 
L 306.501818 138.342356 
L 310.109091 138.342332 
L 313.716364 138.342307 
L 317.323636 138.342283 
L 320.930909 138.342259 
L 324.538182 138.342234 
L 328.145455 138.34221 
L 331.752727 138.342186 
L 335.36 138.342162 
L 338.967273 138.342138 
L 342.574545 138.342115 
L 346.181818 138.342091 
L 349.789091 138.342067 
L 353.396364 138.342044 
L 357.003636 138.342021 
L 360.610909 138.341997 
L 364.218182 138.341974 
L 367.825455 138.341951 
L 371.432727 138.341928 
L 375.04 138.341905 
L 378.647273 138.341882 
L 382.254545 138.341859 
L 385.861818 138.341836 
L 389.469091 138.341814 
L 393.076364 138.341791 
L 396.683636 138.341769 
L 400.290909 138.341747 
L 403.898182 138.341724 
L 407.505455 138.341702 
L 411.112727 138.34168 
L 414.72 138.341658 
L 414.72 138.24 
L 414.72 135.552 
L 414.72 132.864 
L 414.72 130.176 
L 414.72 127.488 
L 414.72 124.8 
L 414.72 122.112 
L 414.72 119.424 
L 414.72 116.736 
L 414.72 114.048 
L 414.72 111.36 
L 414.72 108.672 
L 414.72 105.984 
L 414.72 103.296 
L 414.72 100.608 
L 414.72 97.92 
L 414.72 95.232 
L 414.72 92.544 
L 414.72 89.856 
L 414.72 87.168 
L 414.72 84.48 
L 414.72 81.792 
L 414.72 79.104 
L 414.72 76.416 
L 414.72 73.728 
L 414.72 71.04 
L 414.72 68.352 
L 414.72 65.664 
L 414.72 62.976 
L 414.72 60.288 
L 414.72 57.6 
L 414.72 54.912 
L 414.72 52.224 
L 414.72 49.536 
L 414.72 46.848 
L 414.72 44.16 
L 414.72 41.472 
L 411.112727 41.472 
L 407.505455 41.472 
L 403.898182 41.472 
L 400.290909 41.472 
L 396.683636 41.472 
L 393.076364 41.472 
L 389.469091 41.472 
L 385.861818 41.472 
L 382.254545 41.472 
L 378.647273 41.472 
L 375.04 41.472 
L 371.432727 41.472 
L 367.825455 41.472 
L 364.218182 41.472 
L 360.610909 41.472 
L 357.003636 41.472 
L 353.396364 41.472 
L 349.789091 41.472 
L 346.181818 41.472 
L 342.574545 41.472 
L 338.967273 41.472 
L 335.36 41.472 
L 331.752727 41.472 
L 328.145455 41.472 
L 324.538182 41.472 
L 320.930909 41.472 
L 317.323636 41.472 
L 313.716364 41.472 
L 310.109091 41.472 
L 306.501818 41.472 
L 302.894545 41.472 
L 299.287273 41.472 
L 295.68 41.472 
L 292.072727 41.472 
L 288.465455 41.472 
L 284.858182 41.472 
L 281.250909 41.472 
L 277.643636 41.472 
L 274.036364 41.472 
L 270.429091 41.472 
L 266.821818 41.472 
L 263.214545 41.472 
L 259.607273 41.472 
L 256 41.472 
L 252.392727 41.472 
L 248.785455 41.472 
L 245.178182 41.472 
L 241.570909 41.472 
L 237.963636 41.472 
L 234.356364 41.472 
L 230.749091 41.472 
L 227.141818 41.472 
L 223.534545 41.472 
L 219.927273 41.472 
L 216.32 41.472 
L 212.712727 41.472 
L 209.105455 41.472 
L 205.498182 41.472 
L 201.890909 41.472 
L 198.283636 41.472 
L 194.676364 41.472 
L 191.069091 41.472 
L 187.461818 41.472 
L 183.854545 41.472 
L 180.247273 41.472 
L 176.64 41.472 
L 173.032727 41.472 
L 169.425455 41.472 
L 165.818182 41.472 
L 162.210909 41.472 
L 158.603636 41.472 
L 154.996364 41.472 
L 151.389091 41.472 
L 147.781818 41.472 
L 144.174545 41.472 
L 140.567273 41.472 
L 136.96 41.472 
L 133.352727 41.472 
L 129.745455 41.472 
L 126.138182 41.472 
L 122.530909 41.472 
L 118.923636 41.472 
L 115.316364 41.472 
L 111.709091 41.472 
L 108.101818 41.472 
L 104.494545 41.472 
L 100.887273 41.472 
L 97.28 41.472 
L 93.672727 41.472 
L 90.065455 41.472 
L 86.458182 41.472 
L 82.850909 41.472 
L 79.243636 41.472 
L 75.636364 41.472 
L 72.029091 41.472 
L 68.421818 41.472 
L 64.814545 41.472 
L 61.207273 41.472 
L 57.6 41.472 
L 57.6 44.16 
L 57.6 46.848 
L 57.6 49.536 
L 57.6 52.224 
L 57.6 54.912 
L 57.6 57.6 
L 57.6 60.288 
L 57.6 62.976 
L 57.6 65.664 
L 57.6 68.352 
L 57.6 71.04 
L 57.6 73.728 
L 57.6 76.416 
L 57.6 79.104 
L 57.6 81.792 
L 57.6 84.48 
L 57.6 87.168 
L 57.6 89.856 
L 57.6 92.544 
L 57.6 95.232 
L 57.6 97.92 
L 57.6 100.608 
L 57.6 103.296 
L 57.6 105.984 
L 57.6 108.672 
L 57.6 111.36 
L 57.6 114.048 
L 57.6 116.736 
L 57.6 119.424 
L 57.6 122.112 
L 57.6 124.8 
L 57.6 127.488 
L 57.6 130.176 
L 57.6 132.864 
L 57.6 135.552 
L 57.6 138.24 
L 57.6 138.344269 
z
" clip-path="url(#pedea14ed32)" style="fill: #73d056; fill-opacity: 0.75"/>
   </g>
   <g id="PathCollection_7">
    <path d="M 61.207273 220.002129 
L 64.814545 220.002147 
L 68.421818 220.002166 
L 72.029091 220.002184 
L 75.636364 220.002202 
L 79.243636 220.00222 
L 82.850909 220.002237 
L 86.458182 220.002255 
L 90.065455 220.002273 
L 93.672727 220.002291 
L 97.28 220.002308 
L 100.887273 220.002326 
L 104.494545 220.002343 
L 108.101818 220.002361 
L 111.709091 220.002378 
L 115.316364 220.002396 
L 118.923636 220.002413 
L 122.530909 220.00243 
L 126.138182 220.002448 
L 129.745455 220.002465 
L 133.352727 220.002482 
L 136.96 220.002499 
L 140.567273 220.002516 
L 144.174545 220.002533 
L 147.781818 220.00255 
L 151.389091 220.002566 
L 154.996364 220.002583 
L 158.603636 220.0026 
L 162.210909 220.002617 
L 165.818182 220.002633 
L 169.425455 220.00265 
L 173.032727 220.002666 
L 176.64 220.002683 
L 180.247273 220.002699 
L 183.854545 220.002715 
L 187.461818 220.002732 
L 191.069091 220.002748 
L 194.676364 220.002764 
L 198.283636 220.00278 
L 201.890909 220.002796 
L 205.498182 220.002812 
L 209.105455 220.002828 
L 212.712727 220.002844 
L 216.32 220.00286 
L 219.927273 220.002876 
L 223.534545 220.002892 
L 227.141818 220.002907 
L 230.749091 220.002923 
L 234.356364 220.002938 
L 237.963636 220.002954 
L 241.570909 220.002969 
L 245.178182 220.002985 
L 248.785455 220.003 
L 252.392727 220.003015 
L 256 220.003031 
L 259.607273 220.003046 
L 263.214545 220.003061 
L 266.821818 220.003076 
L 270.429091 220.003091 
L 274.036364 220.003106 
L 277.643636 220.003121 
L 281.250909 220.003136 
L 284.858182 220.003151 
L 288.465455 220.003165 
L 292.072727 220.00318 
L 295.68 220.003195 
L 299.287273 220.003209 
L 302.894545 220.003224 
L 306.501818 220.003238 
L 310.109091 220.003253 
L 313.716364 220.003267 
L 317.323636 220.003281 
L 320.930909 220.003295 
L 324.538182 220.00331 
L 328.145455 220.003324 
L 331.752727 220.003338 
L 335.36 220.003352 
L 338.967273 220.003366 
L 342.574545 220.00338 
L 346.181818 220.003394 
L 349.789091 220.003407 
L 353.396364 220.003421 
L 357.003636 220.003435 
L 360.610909 220.003449 
L 364.218182 220.003462 
L 367.825455 220.003476 
L 371.432727 220.003489 
L 375.04 220.003503 
L 378.647273 220.003516 
L 382.254545 220.003529 
L 385.861818 220.003543 
L 389.469091 220.003556 
L 393.076364 220.003569 
L 396.683636 220.003582 
L 400.290909 220.003595 
L 403.898182 220.003608 
L 407.505455 220.003621 
L 411.112727 220.003634 
L 414.72 220.003647 
L 414.72 218.88 
L 414.72 216.192 
L 414.72 213.504 
L 414.72 210.816 
L 414.72 208.128 
L 414.72 205.44 
L 414.72 202.752 
L 414.72 200.064 
L 414.72 197.376 
L 414.72 194.688 
L 414.72 192 
L 414.72 189.312 
L 414.72 186.624 
L 414.72 183.936 
L 414.72 181.248 
L 414.72 178.56 
L 414.72 175.872 
L 414.72 173.184 
L 414.72 170.496 
L 414.72 167.808 
L 414.72 165.12 
L 414.72 162.432 
L 414.72 159.744 
L 414.72 157.056 
L 414.72 154.368 
L 414.72 151.68 
L 414.72 148.992 
L 414.72 146.304 
L 414.72 143.616 
L 414.72 140.928 
L 414.72 138.341658 
L 411.112727 138.34168 
L 407.505455 138.341702 
L 403.898182 138.341724 
L 400.290909 138.341747 
L 396.683636 138.341769 
L 393.076364 138.341791 
L 389.469091 138.341814 
L 385.861818 138.341836 
L 382.254545 138.341859 
L 378.647273 138.341882 
L 375.04 138.341905 
L 371.432727 138.341928 
L 367.825455 138.341951 
L 364.218182 138.341974 
L 360.610909 138.341997 
L 357.003636 138.342021 
L 353.396364 138.342044 
L 349.789091 138.342067 
L 346.181818 138.342091 
L 342.574545 138.342115 
L 338.967273 138.342138 
L 335.36 138.342162 
L 331.752727 138.342186 
L 328.145455 138.34221 
L 324.538182 138.342234 
L 320.930909 138.342259 
L 317.323636 138.342283 
L 313.716364 138.342307 
L 310.109091 138.342332 
L 306.501818 138.342356 
L 302.894545 138.342381 
L 299.287273 138.342406 
L 295.68 138.342431 
L 292.072727 138.342456 
L 288.465455 138.342481 
L 284.858182 138.342506 
L 281.250909 138.342531 
L 277.643636 138.342556 
L 274.036364 138.342582 
L 270.429091 138.342607 
L 266.821818 138.342633 
L 263.214545 138.342658 
L 259.607273 138.342684 
L 256 138.34271 
L 252.392727 138.342736 
L 248.785455 138.342762 
L 245.178182 138.342788 
L 241.570909 138.342814 
L 237.963636 138.34284 
L 234.356364 138.342867 
L 230.749091 138.342893 
L 227.141818 138.34292 
L 223.534545 138.342946 
L 219.927273 138.342973 
L 216.32 138.343 
L 212.712727 138.343027 
L 209.105455 138.343054 
L 205.498182 138.343081 
L 201.890909 138.343108 
L 198.283636 138.343135 
L 194.676364 138.343163 
L 191.069091 138.34319 
L 187.461818 138.343218 
L 183.854545 138.343245 
L 180.247273 138.343273 
L 176.64 138.343301 
L 173.032727 138.343329 
L 169.425455 138.343357 
L 165.818182 138.343385 
L 162.210909 138.343413 
L 158.603636 138.343441 
L 154.996364 138.34347 
L 151.389091 138.343498 
L 147.781818 138.343527 
L 144.174545 138.343555 
L 140.567273 138.343584 
L 136.96 138.343613 
L 133.352727 138.343642 
L 129.745455 138.343671 
L 126.138182 138.3437 
L 122.530909 138.343729 
L 118.923636 138.343758 
L 115.316364 138.343787 
L 111.709091 138.343817 
L 108.101818 138.343846 
L 104.494545 138.343876 
L 100.887273 138.343906 
L 97.28 138.343935 
L 93.672727 138.343965 
L 90.065455 138.343995 
L 86.458182 138.344025 
L 82.850909 138.344055 
L 79.243636 138.344086 
L 75.636364 138.344116 
L 72.029091 138.344146 
L 68.421818 138.344177 
L 64.814545 138.344207 
L 61.207273 138.344238 
L 57.6 138.344269 
L 57.6 140.928 
L 57.6 143.616 
L 57.6 146.304 
L 57.6 148.992 
L 57.6 151.68 
L 57.6 154.368 
L 57.6 157.056 
L 57.6 159.744 
L 57.6 162.432 
L 57.6 165.12 
L 57.6 167.808 
L 57.6 170.496 
L 57.6 173.184 
L 57.6 175.872 
L 57.6 178.56 
L 57.6 181.248 
L 57.6 183.936 
L 57.6 186.624 
L 57.6 189.312 
L 57.6 192 
L 57.6 194.688 
L 57.6 197.376 
L 57.6 200.064 
L 57.6 202.752 
L 57.6 205.44 
L 57.6 208.128 
L 57.6 210.816 
L 57.6 213.504 
L 57.6 216.192 
L 57.6 218.88 
L 57.6 220.002111 
z
" clip-path="url(#pedea14ed32)" style="fill: #d0e11c; fill-opacity: 0.75"/>
   </g>
   <g id="matplotlib.axis_1">
    <g id="xtick_1">
     <g id="line2d_1">
      <defs>
       <path id="m3bdc8a6f83" d="M 0 0 
L 0 3.5 
" style="stroke: #000000; stroke-width: 0.8"/>
      </defs>
      <g>
       <use xlink:href="#m3bdc8a6f83" x="63.755427" y="307.584" style="stroke: #000000; stroke-width: 0.8"/>
      </g>
     </g>
     <g id="text_1">
      <!-- 0.05 -->
      <g transform="translate(52.622615 322.182437) scale(0.1 -0.1)">
       <defs>
        <path id="DejaVuSans-30" d="M 2034 4250 
Q 1547 4250 1301 3770 
Q 1056 3291 1056 2328 
Q 1056 1369 1301 889 
Q 1547 409 2034 409 
Q 2525 409 2770 889 
Q 3016 1369 3016 2328 
Q 3016 3291 2770 3770 
Q 2525 4250 2034 4250 
z
M 2034 4750 
Q 2819 4750 3233 4129 
Q 3647 3509 3647 2328 
Q 3647 1150 3233 529 
Q 2819 -91 2034 -91 
Q 1250 -91 836 529 
Q 422 1150 422 2328 
Q 422 3509 836 4129 
Q 1250 4750 2034 4750 
z
" transform="scale(0.015625)"/>
        <path id="DejaVuSans-2e" d="M 684 794 
L 1344 794 
L 1344 0 
L 684 0 
L 684 794 
z
" transform="scale(0.015625)"/>
        <path id="DejaVuSans-35" d="M 691 4666 
L 3169 4666 
L 3169 4134 
L 1269 4134 
L 1269 2991 
Q 1406 3038 1543 3061 
Q 1681 3084 1819 3084 
Q 2600 3084 3056 2656 
Q 3513 2228 3513 1497 
Q 3513 744 3044 326 
Q 2575 -91 1722 -91 
Q 1428 -91 1123 -41 
Q 819 9 494 109 
L 494 744 
Q 775 591 1075 516 
Q 1375 441 1709 441 
Q 2250 441 2565 725 
Q 2881 1009 2881 1497 
Q 2881 1984 2565 2268 
Q 2250 2553 1709 2553 
Q 1456 2553 1204 2497 
Q 953 2441 691 2322 
L 691 4666 
z
" transform="scale(0.015625)"/>
       </defs>
       <use xlink:href="#DejaVuSans-30"/>
       <use xlink:href="#DejaVuSans-2e" x="63.623047"/>
       <use xlink:href="#DejaVuSans-30" x="95.410156"/>
       <use xlink:href="#DejaVuSans-35" x="159.033203"/>
      </g>
     </g>
    </g>
    <g id="xtick_2">
     <g id="line2d_2">
      <g>
       <use xlink:href="#m3bdc8a6f83" x="129.518539" y="307.584" style="stroke: #000000; stroke-width: 0.8"/>
      </g>
     </g>
     <g id="text_2">
      <!-- 0.10 -->
      <g transform="translate(118.385726 322.182437) scale(0.1 -0.1)">
       <defs>
        <path id="DejaVuSans-31" d="M 794 531 
L 1825 531 
L 1825 4091 
L 703 3866 
L 703 4441 
L 1819 4666 
L 2450 4666 
L 2450 531 
L 3481 531 
L 3481 0 
L 794 0 
L 794 531 
z
" transform="scale(0.015625)"/>
       </defs>
       <use xlink:href="#DejaVuSans-30"/>
       <use xlink:href="#DejaVuSans-2e" x="63.623047"/>
       <use xlink:href="#DejaVuSans-31" x="95.410156"/>
       <use xlink:href="#DejaVuSans-30" x="159.033203"/>
      </g>
     </g>
    </g>
    <g id="xtick_3">
     <g id="line2d_3">
      <g>
       <use xlink:href="#m3bdc8a6f83" x="195.28165" y="307.584" style="stroke: #000000; stroke-width: 0.8"/>
      </g>
     </g>
     <g id="text_3">
      <!-- 0.15 -->
      <g transform="translate(184.148837 322.182437) scale(0.1 -0.1)">
       <use xlink:href="#DejaVuSans-30"/>
       <use xlink:href="#DejaVuSans-2e" x="63.623047"/>
       <use xlink:href="#DejaVuSans-31" x="95.410156"/>
       <use xlink:href="#DejaVuSans-35" x="159.033203"/>
      </g>
     </g>
    </g>
    <g id="xtick_4">
     <g id="line2d_4">
      <g>
       <use xlink:href="#m3bdc8a6f83" x="261.044761" y="307.584" style="stroke: #000000; stroke-width: 0.8"/>
      </g>
     </g>
     <g id="text_4">
      <!-- 0.20 -->
      <g transform="translate(249.911949 322.182437) scale(0.1 -0.1)">
       <defs>
        <path id="DejaVuSans-32" d="M 1228 531 
L 3431 531 
L 3431 0 
L 469 0 
L 469 531 
Q 828 903 1448 1529 
Q 2069 2156 2228 2338 
Q 2531 2678 2651 2914 
Q 2772 3150 2772 3378 
Q 2772 3750 2511 3984 
Q 2250 4219 1831 4219 
Q 1534 4219 1204 4116 
Q 875 4013 500 3803 
L 500 4441 
Q 881 4594 1212 4672 
Q 1544 4750 1819 4750 
Q 2544 4750 2975 4387 
Q 3406 4025 3406 3419 
Q 3406 3131 3298 2873 
Q 3191 2616 2906 2266 
Q 2828 2175 2409 1742 
Q 1991 1309 1228 531 
z
" transform="scale(0.015625)"/>
       </defs>
       <use xlink:href="#DejaVuSans-30"/>
       <use xlink:href="#DejaVuSans-2e" x="63.623047"/>
       <use xlink:href="#DejaVuSans-32" x="95.410156"/>
       <use xlink:href="#DejaVuSans-30" x="159.033203"/>
      </g>
     </g>
    </g>
    <g id="xtick_5">
     <g id="line2d_5">
      <g>
       <use xlink:href="#m3bdc8a6f83" x="326.807873" y="307.584" style="stroke: #000000; stroke-width: 0.8"/>
      </g>
     </g>
     <g id="text_5">
      <!-- 0.25 -->
      <g transform="translate(315.67506 322.182437) scale(0.1 -0.1)">
       <use xlink:href="#DejaVuSans-30"/>
       <use xlink:href="#DejaVuSans-2e" x="63.623047"/>
       <use xlink:href="#DejaVuSans-32" x="95.410156"/>
       <use xlink:href="#DejaVuSans-35" x="159.033203"/>
      </g>
     </g>
    </g>
    <g id="xtick_6">
     <g id="line2d_6">
      <g>
       <use xlink:href="#m3bdc8a6f83" x="392.570984" y="307.584" style="stroke: #000000; stroke-width: 0.8"/>
      </g>
     </g>
     <g id="text_6">
      <!-- 0.30 -->
      <g transform="translate(381.438172 322.182437) scale(0.1 -0.1)">
       <defs>
        <path id="DejaVuSans-33" d="M 2597 2516 
Q 3050 2419 3304 2112 
Q 3559 1806 3559 1356 
Q 3559 666 3084 287 
Q 2609 -91 1734 -91 
Q 1441 -91 1130 -33 
Q 819 25 488 141 
L 488 750 
Q 750 597 1062 519 
Q 1375 441 1716 441 
Q 2309 441 2620 675 
Q 2931 909 2931 1356 
Q 2931 1769 2642 2001 
Q 2353 2234 1838 2234 
L 1294 2234 
L 1294 2753 
L 1863 2753 
Q 2328 2753 2575 2939 
Q 2822 3125 2822 3475 
Q 2822 3834 2567 4026 
Q 2313 4219 1838 4219 
Q 1578 4219 1281 4162 
Q 984 4106 628 3988 
L 628 4550 
Q 988 4650 1302 4700 
Q 1616 4750 1894 4750 
Q 2613 4750 3031 4423 
Q 3450 4097 3450 3541 
Q 3450 3153 3228 2886 
Q 3006 2619 2597 2516 
z
" transform="scale(0.015625)"/>
       </defs>
       <use xlink:href="#DejaVuSans-30"/>
       <use xlink:href="#DejaVuSans-2e" x="63.623047"/>
       <use xlink:href="#DejaVuSans-33" x="95.410156"/>
       <use xlink:href="#DejaVuSans-30" x="159.033203"/>
      </g>
     </g>
    </g>
    <g id="text_7">
     <!-- Obesity Rate -->
     <g transform="translate(204.008437 335.860562) scale(0.1 -0.1)">
      <defs>
       <path id="DejaVuSans-4f" d="M 2522 4238 
Q 1834 4238 1429 3725 
Q 1025 3213 1025 2328 
Q 1025 1447 1429 934 
Q 1834 422 2522 422 
Q 3209 422 3611 934 
Q 4013 1447 4013 2328 
Q 4013 3213 3611 3725 
Q 3209 4238 2522 4238 
z
M 2522 4750 
Q 3503 4750 4090 4092 
Q 4678 3434 4678 2328 
Q 4678 1225 4090 567 
Q 3503 -91 2522 -91 
Q 1538 -91 948 565 
Q 359 1222 359 2328 
Q 359 3434 948 4092 
Q 1538 4750 2522 4750 
z
" transform="scale(0.015625)"/>
       <path id="DejaVuSans-62" d="M 3116 1747 
Q 3116 2381 2855 2742 
Q 2594 3103 2138 3103 
Q 1681 3103 1420 2742 
Q 1159 2381 1159 1747 
Q 1159 1113 1420 752 
Q 1681 391 2138 391 
Q 2594 391 2855 752 
Q 3116 1113 3116 1747 
z
M 1159 2969 
Q 1341 3281 1617 3432 
Q 1894 3584 2278 3584 
Q 2916 3584 3314 3078 
Q 3713 2572 3713 1747 
Q 3713 922 3314 415 
Q 2916 -91 2278 -91 
Q 1894 -91 1617 61 
Q 1341 213 1159 525 
L 1159 0 
L 581 0 
L 581 4863 
L 1159 4863 
L 1159 2969 
z
" transform="scale(0.015625)"/>
       <path id="DejaVuSans-65" d="M 3597 1894 
L 3597 1613 
L 953 1613 
Q 991 1019 1311 708 
Q 1631 397 2203 397 
Q 2534 397 2845 478 
Q 3156 559 3463 722 
L 3463 178 
Q 3153 47 2828 -22 
Q 2503 -91 2169 -91 
Q 1331 -91 842 396 
Q 353 884 353 1716 
Q 353 2575 817 3079 
Q 1281 3584 2069 3584 
Q 2775 3584 3186 3129 
Q 3597 2675 3597 1894 
z
M 3022 2063 
Q 3016 2534 2758 2815 
Q 2500 3097 2075 3097 
Q 1594 3097 1305 2825 
Q 1016 2553 972 2059 
L 3022 2063 
z
" transform="scale(0.015625)"/>
       <path id="DejaVuSans-73" d="M 2834 3397 
L 2834 2853 
Q 2591 2978 2328 3040 
Q 2066 3103 1784 3103 
Q 1356 3103 1142 2972 
Q 928 2841 928 2578 
Q 928 2378 1081 2264 
Q 1234 2150 1697 2047 
L 1894 2003 
Q 2506 1872 2764 1633 
Q 3022 1394 3022 966 
Q 3022 478 2636 193 
Q 2250 -91 1575 -91 
Q 1294 -91 989 -36 
Q 684 19 347 128 
L 347 722 
Q 666 556 975 473 
Q 1284 391 1588 391 
Q 1994 391 2212 530 
Q 2431 669 2431 922 
Q 2431 1156 2273 1281 
Q 2116 1406 1581 1522 
L 1381 1569 
Q 847 1681 609 1914 
Q 372 2147 372 2553 
Q 372 3047 722 3315 
Q 1072 3584 1716 3584 
Q 2034 3584 2315 3537 
Q 2597 3491 2834 3397 
z
" transform="scale(0.015625)"/>
       <path id="DejaVuSans-69" d="M 603 3500 
L 1178 3500 
L 1178 0 
L 603 0 
L 603 3500 
z
M 603 4863 
L 1178 4863 
L 1178 4134 
L 603 4134 
L 603 4863 
z
" transform="scale(0.015625)"/>
       <path id="DejaVuSans-74" d="M 1172 4494 
L 1172 3500 
L 2356 3500 
L 2356 3053 
L 1172 3053 
L 1172 1153 
Q 1172 725 1289 603 
Q 1406 481 1766 481 
L 2356 481 
L 2356 0 
L 1766 0 
Q 1100 0 847 248 
Q 594 497 594 1153 
L 594 3053 
L 172 3053 
L 172 3500 
L 594 3500 
L 594 4494 
L 1172 4494 
z
" transform="scale(0.015625)"/>
       <path id="DejaVuSans-79" d="M 2059 -325 
Q 1816 -950 1584 -1140 
Q 1353 -1331 966 -1331 
L 506 -1331 
L 506 -850 
L 844 -850 
Q 1081 -850 1212 -737 
Q 1344 -625 1503 -206 
L 1606 56 
L 191 3500 
L 800 3500 
L 1894 763 
L 2988 3500 
L 3597 3500 
L 2059 -325 
z
" transform="scale(0.015625)"/>
       <path id="DejaVuSans-20" transform="scale(0.015625)"/>
       <path id="DejaVuSans-52" d="M 2841 2188 
Q 3044 2119 3236 1894 
Q 3428 1669 3622 1275 
L 4263 0 
L 3584 0 
L 2988 1197 
Q 2756 1666 2539 1819 
Q 2322 1972 1947 1972 
L 1259 1972 
L 1259 0 
L 628 0 
L 628 4666 
L 2053 4666 
Q 2853 4666 3247 4331 
Q 3641 3997 3641 3322 
Q 3641 2881 3436 2590 
Q 3231 2300 2841 2188 
z
M 1259 4147 
L 1259 2491 
L 2053 2491 
Q 2509 2491 2742 2702 
Q 2975 2913 2975 3322 
Q 2975 3731 2742 3939 
Q 2509 4147 2053 4147 
L 1259 4147 
z
" transform="scale(0.015625)"/>
       <path id="DejaVuSans-61" d="M 2194 1759 
Q 1497 1759 1228 1600 
Q 959 1441 959 1056 
Q 959 750 1161 570 
Q 1363 391 1709 391 
Q 2188 391 2477 730 
Q 2766 1069 2766 1631 
L 2766 1759 
L 2194 1759 
z
M 3341 1997 
L 3341 0 
L 2766 0 
L 2766 531 
Q 2569 213 2275 61 
Q 1981 -91 1556 -91 
Q 1019 -91 701 211 
Q 384 513 384 1019 
Q 384 1609 779 1909 
Q 1175 2209 1959 2209 
L 2766 2209 
L 2766 2266 
Q 2766 2663 2505 2880 
Q 2244 3097 1772 3097 
Q 1472 3097 1187 3025 
Q 903 2953 641 2809 
L 641 3341 
Q 956 3463 1253 3523 
Q 1550 3584 1831 3584 
Q 2591 3584 2966 3190 
Q 3341 2797 3341 1997 
z
" transform="scale(0.015625)"/>
      </defs>
      <use xlink:href="#DejaVuSans-4f"/>
      <use xlink:href="#DejaVuSans-62" x="78.710938"/>
      <use xlink:href="#DejaVuSans-65" x="142.1875"/>
      <use xlink:href="#DejaVuSans-73" x="203.710938"/>
      <use xlink:href="#DejaVuSans-69" x="255.810547"/>
      <use xlink:href="#DejaVuSans-74" x="283.59375"/>
      <use xlink:href="#DejaVuSans-79" x="322.802734"/>
      <use xlink:href="#DejaVuSans-20" x="381.982422"/>
      <use xlink:href="#DejaVuSans-52" x="413.769531"/>
      <use xlink:href="#DejaVuSans-61" x="481.001953"/>
      <use xlink:href="#DejaVuSans-74" x="542.28125"/>
      <use xlink:href="#DejaVuSans-65" x="581.490234"/>
     </g>
    </g>
   </g>
   <g id="matplotlib.axis_2">
    <g id="ytick_1">
     <g id="line2d_7">
      <defs>
       <path id="me3c77c322f" d="M 0 0 
L -3.5 0 
" style="stroke: #000000; stroke-width: 0.8"/>
      </defs>
      <g>
       <use xlink:href="#me3c77c322f" x="57.6" y="268.980062" style="stroke: #000000; stroke-width: 0.8"/>
      </g>
     </g>
     <g id="text_8">
      <!-- 50 -->
      <g transform="translate(37.875 272.779281) scale(0.1 -0.1)">
       <use xlink:href="#DejaVuSans-35"/>
       <use xlink:href="#DejaVuSans-30" x="63.623047"/>
      </g>
     </g>
    </g>
    <g id="ytick_2">
     <g id="line2d_8">
      <g>
       <use xlink:href="#me3c77c322f" x="57.6" y="213.640044" style="stroke: #000000; stroke-width: 0.8"/>
      </g>
     </g>
     <g id="text_9">
      <!-- 100 -->
      <g transform="translate(31.5125 217.439263) scale(0.1 -0.1)">
       <use xlink:href="#DejaVuSans-31"/>
       <use xlink:href="#DejaVuSans-30" x="63.623047"/>
       <use xlink:href="#DejaVuSans-30" x="127.246094"/>
      </g>
     </g>
    </g>
    <g id="ytick_3">
     <g id="line2d_9">
      <g>
       <use xlink:href="#me3c77c322f" x="57.6" y="158.300025" style="stroke: #000000; stroke-width: 0.8"/>
      </g>
     </g>
     <g id="text_10">
      <!-- 150 -->
      <g transform="translate(31.5125 162.099244) scale(0.1 -0.1)">
       <use xlink:href="#DejaVuSans-31"/>
       <use xlink:href="#DejaVuSans-35" x="63.623047"/>
       <use xlink:href="#DejaVuSans-30" x="127.246094"/>
      </g>
     </g>
    </g>
    <g id="ytick_4">
     <g id="line2d_10">
      <g>
       <use xlink:href="#me3c77c322f" x="57.6" y="102.960007" style="stroke: #000000; stroke-width: 0.8"/>
      </g>
     </g>
     <g id="text_11">
      <!-- 200 -->
      <g transform="translate(31.5125 106.759226) scale(0.1 -0.1)">
       <use xlink:href="#DejaVuSans-32"/>
       <use xlink:href="#DejaVuSans-30" x="63.623047"/>
       <use xlink:href="#DejaVuSans-30" x="127.246094"/>
      </g>
     </g>
    </g>
    <g id="ytick_5">
     <g id="line2d_11">
      <g>
       <use xlink:href="#me3c77c322f" x="57.6" y="47.619988" style="stroke: #000000; stroke-width: 0.8"/>
      </g>
     </g>
     <g id="text_12">
      <!-- 250 -->
      <g transform="translate(31.5125 51.419207) scale(0.1 -0.1)">
       <use xlink:href="#DejaVuSans-32"/>
       <use xlink:href="#DejaVuSans-35" x="63.623047"/>
       <use xlink:href="#DejaVuSans-30" x="127.246094"/>
      </g>
     </g>
    </g>
    <g id="text_13">
     <!-- Vegetable Consumption -->
     <g transform="translate(25.432812 234.256125) rotate(-90) scale(0.1 -0.1)">
      <defs>
       <path id="DejaVuSans-56" d="M 1831 0 
L 50 4666 
L 709 4666 
L 2188 738 
L 3669 4666 
L 4325 4666 
L 2547 0 
L 1831 0 
z
" transform="scale(0.015625)"/>
       <path id="DejaVuSans-67" d="M 2906 1791 
Q 2906 2416 2648 2759 
Q 2391 3103 1925 3103 
Q 1463 3103 1205 2759 
Q 947 2416 947 1791 
Q 947 1169 1205 825 
Q 1463 481 1925 481 
Q 2391 481 2648 825 
Q 2906 1169 2906 1791 
z
M 3481 434 
Q 3481 -459 3084 -895 
Q 2688 -1331 1869 -1331 
Q 1566 -1331 1297 -1286 
Q 1028 -1241 775 -1147 
L 775 -588 
Q 1028 -725 1275 -790 
Q 1522 -856 1778 -856 
Q 2344 -856 2625 -561 
Q 2906 -266 2906 331 
L 2906 616 
Q 2728 306 2450 153 
Q 2172 0 1784 0 
Q 1141 0 747 490 
Q 353 981 353 1791 
Q 353 2603 747 3093 
Q 1141 3584 1784 3584 
Q 2172 3584 2450 3431 
Q 2728 3278 2906 2969 
L 2906 3500 
L 3481 3500 
L 3481 434 
z
" transform="scale(0.015625)"/>
       <path id="DejaVuSans-6c" d="M 603 4863 
L 1178 4863 
L 1178 0 
L 603 0 
L 603 4863 
z
" transform="scale(0.015625)"/>
       <path id="DejaVuSans-43" d="M 4122 4306 
L 4122 3641 
Q 3803 3938 3442 4084 
Q 3081 4231 2675 4231 
Q 1875 4231 1450 3742 
Q 1025 3253 1025 2328 
Q 1025 1406 1450 917 
Q 1875 428 2675 428 
Q 3081 428 3442 575 
Q 3803 722 4122 1019 
L 4122 359 
Q 3791 134 3420 21 
Q 3050 -91 2638 -91 
Q 1578 -91 968 557 
Q 359 1206 359 2328 
Q 359 3453 968 4101 
Q 1578 4750 2638 4750 
Q 3056 4750 3426 4639 
Q 3797 4528 4122 4306 
z
" transform="scale(0.015625)"/>
       <path id="DejaVuSans-6f" d="M 1959 3097 
Q 1497 3097 1228 2736 
Q 959 2375 959 1747 
Q 959 1119 1226 758 
Q 1494 397 1959 397 
Q 2419 397 2687 759 
Q 2956 1122 2956 1747 
Q 2956 2369 2687 2733 
Q 2419 3097 1959 3097 
z
M 1959 3584 
Q 2709 3584 3137 3096 
Q 3566 2609 3566 1747 
Q 3566 888 3137 398 
Q 2709 -91 1959 -91 
Q 1206 -91 779 398 
Q 353 888 353 1747 
Q 353 2609 779 3096 
Q 1206 3584 1959 3584 
z
" transform="scale(0.015625)"/>
       <path id="DejaVuSans-6e" d="M 3513 2113 
L 3513 0 
L 2938 0 
L 2938 2094 
Q 2938 2591 2744 2837 
Q 2550 3084 2163 3084 
Q 1697 3084 1428 2787 
Q 1159 2491 1159 1978 
L 1159 0 
L 581 0 
L 581 3500 
L 1159 3500 
L 1159 2956 
Q 1366 3272 1645 3428 
Q 1925 3584 2291 3584 
Q 2894 3584 3203 3211 
Q 3513 2838 3513 2113 
z
" transform="scale(0.015625)"/>
       <path id="DejaVuSans-75" d="M 544 1381 
L 544 3500 
L 1119 3500 
L 1119 1403 
Q 1119 906 1312 657 
Q 1506 409 1894 409 
Q 2359 409 2629 706 
Q 2900 1003 2900 1516 
L 2900 3500 
L 3475 3500 
L 3475 0 
L 2900 0 
L 2900 538 
Q 2691 219 2414 64 
Q 2138 -91 1772 -91 
Q 1169 -91 856 284 
Q 544 659 544 1381 
z
M 1991 3584 
L 1991 3584 
z
" transform="scale(0.015625)"/>
       <path id="DejaVuSans-6d" d="M 3328 2828 
Q 3544 3216 3844 3400 
Q 4144 3584 4550 3584 
Q 5097 3584 5394 3201 
Q 5691 2819 5691 2113 
L 5691 0 
L 5113 0 
L 5113 2094 
Q 5113 2597 4934 2840 
Q 4756 3084 4391 3084 
Q 3944 3084 3684 2787 
Q 3425 2491 3425 1978 
L 3425 0 
L 2847 0 
L 2847 2094 
Q 2847 2600 2669 2842 
Q 2491 3084 2119 3084 
Q 1678 3084 1418 2786 
Q 1159 2488 1159 1978 
L 1159 0 
L 581 0 
L 581 3500 
L 1159 3500 
L 1159 2956 
Q 1356 3278 1631 3431 
Q 1906 3584 2284 3584 
Q 2666 3584 2933 3390 
Q 3200 3197 3328 2828 
z
" transform="scale(0.015625)"/>
       <path id="DejaVuSans-70" d="M 1159 525 
L 1159 -1331 
L 581 -1331 
L 581 3500 
L 1159 3500 
L 1159 2969 
Q 1341 3281 1617 3432 
Q 1894 3584 2278 3584 
Q 2916 3584 3314 3078 
Q 3713 2572 3713 1747 
Q 3713 922 3314 415 
Q 2916 -91 2278 -91 
Q 1894 -91 1617 61 
Q 1341 213 1159 525 
z
M 3116 1747 
Q 3116 2381 2855 2742 
Q 2594 3103 2138 3103 
Q 1681 3103 1420 2742 
Q 1159 2381 1159 1747 
Q 1159 1113 1420 752 
Q 1681 391 2138 391 
Q 2594 391 2855 752 
Q 3116 1113 3116 1747 
z
" transform="scale(0.015625)"/>
      </defs>
      <use xlink:href="#DejaVuSans-56"/>
      <use xlink:href="#DejaVuSans-65" x="60.658203"/>
      <use xlink:href="#DejaVuSans-67" x="122.181641"/>
      <use xlink:href="#DejaVuSans-65" x="185.658203"/>
      <use xlink:href="#DejaVuSans-74" x="247.181641"/>
      <use xlink:href="#DejaVuSans-61" x="286.390625"/>
      <use xlink:href="#DejaVuSans-62" x="347.669922"/>
      <use xlink:href="#DejaVuSans-6c" x="411.146484"/>
      <use xlink:href="#DejaVuSans-65" x="438.929688"/>
      <use xlink:href="#DejaVuSans-20" x="500.453125"/>
      <use xlink:href="#DejaVuSans-43" x="532.240234"/>
      <use xlink:href="#DejaVuSans-6f" x="602.064453"/>
      <use xlink:href="#DejaVuSans-6e" x="663.246094"/>
      <use xlink:href="#DejaVuSans-73" x="726.625"/>
      <use xlink:href="#DejaVuSans-75" x="778.724609"/>
      <use xlink:href="#DejaVuSans-6d" x="842.103516"/>
      <use xlink:href="#DejaVuSans-70" x="939.515625"/>
      <use xlink:href="#DejaVuSans-74" x="1002.992188"/>
      <use xlink:href="#DejaVuSans-69" x="1042.201172"/>
      <use xlink:href="#DejaVuSans-6f" x="1069.984375"/>
      <use xlink:href="#DejaVuSans-6e" x="1131.166016"/>
     </g>
    </g>
   </g>
   <g id="PathCollection_8"/>
   <g id="PathCollection_9">
    <path d="M 57.6 297.626218 
L 61.207273 297.626221 
L 64.814545 297.626224 
L 68.421818 297.626226 
L 72.029091 297.626229 
L 75.636364 297.626232 
L 79.243636 297.626235 
L 82.850909 297.626237 
L 86.458182 297.62624 
L 90.065455 297.626243 
L 93.672727 297.626246 
L 97.28 297.626249 
L 100.887273 297.626252 
L 104.494545 297.626254 
L 108.101818 297.626257 
L 111.709091 297.62626 
L 115.316364 297.626263 
L 118.923636 297.626266 
L 122.530909 297.626269 
L 126.138182 297.626272 
L 129.745455 297.626275 
L 133.352727 297.626278 
L 136.96 297.626281 
L 140.567273 297.626284 
L 144.174545 297.626287 
L 147.781818 297.626291 
L 151.389091 297.626294 
L 154.996364 297.626297 
L 158.603636 297.6263 
L 162.210909 297.626303 
L 165.818182 297.626307 
L 169.425455 297.62631 
L 173.032727 297.626313 
L 176.64 297.626316 
L 180.247273 297.62632 
L 183.854545 297.626323 
L 187.461818 297.626326 
L 191.069091 297.62633 
L 194.676364 297.626333 
L 198.283636 297.626336 
L 201.890909 297.62634 
L 205.498182 297.626343 
L 209.105455 297.626347 
L 212.712727 297.62635 
L 216.32 297.626354 
L 219.927273 297.626357 
L 223.534545 297.626361 
L 227.141818 297.626364 
L 230.749091 297.626368 
L 234.356364 297.626371 
L 237.963636 297.626375 
L 241.570909 297.626379 
L 245.178182 297.626382 
L 248.785455 297.626386 
L 252.392727 297.62639 
L 256 297.626393 
L 259.607273 297.626397 
L 263.214545 297.626401 
L 266.821818 297.626404 
L 270.429091 297.626408 
L 274.036364 297.626412 
L 277.643636 297.626416 
L 281.250909 297.62642 
L 284.858182 297.626424 
L 288.465455 297.626427 
L 292.072727 297.626431 
L 295.68 297.626435 
L 299.287273 297.626439 
L 302.894545 297.626443 
L 306.501818 297.626447 
L 310.109091 297.626451 
L 313.716364 297.626455 
L 317.323636 297.626459 
L 320.6 297.626463 
" clip-path="url(#pedea14ed32)" style="fill: none; stroke: #000000; stroke-width: 0.5"/>
    <path d="M 350.12 297.626497 
L 353.396364 297.6265 
L 357.003636 297.626505 
L 360.610909 297.626509 
L 364.218182 297.626513 
L 367.825455 297.626518 
L 371.432727 297.626522 
L 375.04 297.626526 
L 378.647273 297.626531 
L 382.254545 297.626535 
L 385.861818 297.626539 
L 389.469091 297.626544 
L 393.076364 297.626548 
L 396.683636 297.626553 
L 400.290909 297.626557 
L 403.898182 297.626562 
L 407.505455 297.626566 
L 411.112727 297.626571 
L 414.72 297.626575 
" clip-path="url(#pedea14ed32)" style="fill: none; stroke: #000000; stroke-width: 0.5"/>
   </g>
   <g id="PathCollection_10">
    <path d="M 57.6 283.906897 
L 61.207273 283.906901 
L 64.814545 283.906905 
L 68.421818 283.906909 
L 72.029091 283.906913 
L 75.636364 283.906917 
L 79.243636 283.906921 
L 82.850909 283.906925 
L 86.458182 283.906929 
L 90.065455 283.906933 
L 93.672727 283.906937 
L 97.28 283.906941 
L 100.887273 283.906945 
L 104.494545 283.906949 
L 108.101818 283.906953 
L 111.709091 283.906957 
L 115.316364 283.906961 
L 118.923636 283.906965 
L 122.530909 283.90697 
L 126.138182 283.906974 
L 129.745455 283.906978 
L 133.352727 283.906982 
L 136.96 283.906986 
L 140.567273 283.90699 
L 144.174545 283.906994 
L 147.781818 283.906999 
L 151.389091 283.907003 
L 154.996364 283.907007 
L 158.603636 283.907011 
L 162.210909 283.907015 
L 165.818182 283.90702 
L 169.425455 283.907024 
L 173.032727 283.907028 
L 176.64 283.907032 
L 180.247273 283.907036 
L 183.854545 283.907041 
L 187.461818 283.907045 
L 191.069091 283.907049 
L 194.676364 283.907054 
L 198.283636 283.907058 
L 201.890909 283.907062 
L 205.498182 283.907066 
L 208.774545 283.90707 
" clip-path="url(#pedea14ed32)" style="fill: none; stroke: #000000; stroke-width: 0.5"/>
    <path d="M 238.294545 283.907106 
L 241.570909 283.90711 
L 245.178182 283.907114 
L 248.785455 283.907119 
L 252.392727 283.907123 
L 256 283.907128 
L 259.607273 283.907132 
L 263.214545 283.907137 
L 266.821818 283.907141 
L 270.429091 283.907146 
L 274.036364 283.90715 
L 277.643636 283.907155 
L 281.250909 283.907159 
L 284.858182 283.907164 
L 288.465455 283.907168 
L 292.072727 283.907173 
L 295.68 283.907177 
L 299.287273 283.907182 
L 302.894545 283.907186 
L 306.501818 283.907191 
L 310.109091 283.907195 
L 313.716364 283.9072 
L 317.323636 283.907205 
L 320.930909 283.907209 
L 324.538182 283.907214 
L 328.145455 283.907218 
L 331.752727 283.907223 
L 335.36 283.907228 
L 338.967273 283.907232 
L 342.574545 283.907237 
L 346.181818 283.907242 
L 349.789091 283.907246 
L 353.396364 283.907251 
L 357.003636 283.907256 
L 360.610909 283.90726 
L 364.218182 283.907265 
L 367.825455 283.90727 
L 371.432727 283.907275 
L 375.04 283.907279 
L 378.647273 283.907284 
L 382.254545 283.907289 
L 385.861818 283.907294 
L 389.469091 283.907298 
L 393.076364 283.907303 
L 396.683636 283.907308 
L 400.290909 283.907313 
L 403.898182 283.907317 
L 407.505455 283.907322 
L 411.112727 283.907327 
L 414.72 283.907332 
" clip-path="url(#pedea14ed32)" style="fill: none; stroke: #000000; stroke-width: 0.5"/>
   </g>
   <g id="PathCollection_11">
    <path d="M 57.6 270.4494 
L 61.207273 270.449405 
L 64.814545 270.449411 
L 68.421818 270.449416 
L 72.029091 270.449421 
L 75.636364 270.449427 
L 79.243636 270.449432 
L 82.850909 270.449438 
L 86.458182 270.449443 
L 90.065455 270.449448 
L 93.672727 270.449454 
L 97.28 270.449459 
L 100.887273 270.449464 
L 104.494545 270.44947 
L 108.101818 270.449475 
L 111.709091 270.44948 
L 115.316364 270.449486 
L 118.923636 270.449491 
L 122.530909 270.449497 
L 126.138182 270.449502 
L 129.745455 270.449507 
L 133.352727 270.449513 
L 136.96 270.449518 
L 140.567273 270.449523 
L 144.174545 270.449529 
L 147.781818 270.449534 
L 151.389091 270.449539 
L 154.996364 270.449545 
L 158.603636 270.44955 
L 162.210909 270.449555 
L 165.818182 270.449561 
L 169.425455 270.449566 
L 173.032727 270.449572 
L 176.64 270.449577 
L 180.247273 270.449582 
L 183.854545 270.449588 
L 187.461818 270.449593 
L 191.069091 270.449598 
L 194.676364 270.449604 
L 198.283636 270.449609 
L 201.890909 270.449614 
L 205.498182 270.44962 
L 209.105455 270.449625 
L 212.712727 270.44963 
L 216.32 270.449636 
L 219.927273 270.449641 
L 223.534545 270.449646 
L 227.141818 270.449652 
L 230.749091 270.449657 
L 234.356364 270.449663 
L 237.963636 270.449668 
L 241.570909 270.449673 
L 245.178182 270.449679 
L 248.785455 270.449684 
L 252.392727 270.449689 
L 256 270.449695 
L 259.607273 270.4497 
L 263.214545 270.449705 
L 266.821818 270.449711 
L 270.429091 270.449716 
L 274.036364 270.449721 
L 277.643636 270.449727 
L 281.250909 270.449732 
L 284.858182 270.449737 
L 288.465455 270.449743 
L 292.072727 270.449748 
L 295.68 270.449753 
L 299.287273 270.449759 
L 302.894545 270.449764 
L 306.501818 270.449769 
L 310.109091 270.449775 
L 313.716364 270.44978 
L 317.323636 270.449785 
L 320.6 270.44979 
" clip-path="url(#pedea14ed32)" style="fill: none; stroke: #000000; stroke-width: 0.5"/>
    <path d="M 350.12 270.449834 
L 353.396364 270.449839 
L 357.003636 270.449844 
L 360.610909 270.449849 
L 364.218182 270.449855 
L 367.825455 270.44986 
L 371.432727 270.449866 
L 375.04 270.449871 
L 378.647273 270.449876 
L 382.254545 270.449882 
L 385.861818 270.449887 
L 389.469091 270.449892 
L 393.076364 270.449898 
L 396.683636 270.449903 
L 400.290909 270.449908 
L 403.898182 270.449914 
L 407.505455 270.449919 
L 411.112727 270.449924 
L 414.72 270.449929 
" clip-path="url(#pedea14ed32)" style="fill: none; stroke: #000000; stroke-width: 0.5"/>
   </g>
   <g id="PathCollection_12">
    <path d="M 57.6 256.443551 
L 61.207273 256.443559 
L 64.814545 256.443566 
L 68.421818 256.443573 
L 72.029091 256.443581 
L 75.636364 256.443588 
L 79.243636 256.443595 
L 82.850909 256.443602 
L 86.458182 256.44361 
L 90.065455 256.443617 
L 93.672727 256.443624 
L 97.28 256.443631 
L 100.887273 256.443639 
L 104.494545 256.443646 
L 108.101818 256.443653 
L 111.709091 256.44366 
L 115.316364 256.443667 
L 118.923636 256.443674 
L 122.530909 256.443682 
L 126.138182 256.443689 
L 129.745455 256.443696 
L 133.352727 256.443703 
L 136.96 256.44371 
L 140.567273 256.443717 
L 144.174545 256.443724 
L 147.781818 256.443731 
L 151.389091 256.443738 
L 154.996364 256.443745 
L 158.603636 256.443753 
L 162.210909 256.44376 
L 165.818182 256.443767 
L 169.425455 256.443774 
L 173.032727 256.443781 
L 176.64 256.443788 
L 180.247273 256.443795 
L 183.854545 256.443801 
L 187.461818 256.443808 
L 191.069091 256.443815 
L 194.676364 256.443822 
L 198.283636 256.443829 
L 201.890909 256.443836 
L 205.498182 256.443843 
L 208.774545 256.443849 
" clip-path="url(#pedea14ed32)" style="fill: none; stroke: #000000; stroke-width: 0.5"/>
    <path d="M 238.294545 256.443905 
L 241.570909 256.443911 
L 245.178182 256.443918 
L 248.785455 256.443925 
L 252.392727 256.443932 
L 256 256.443939 
L 259.607273 256.443945 
L 263.214545 256.443952 
L 266.821818 256.443959 
L 270.429091 256.443965 
L 274.036364 256.443972 
L 277.643636 256.443979 
L 281.250909 256.443986 
L 284.858182 256.443992 
L 288.465455 256.443999 
L 292.072727 256.444006 
L 295.68 256.444012 
L 299.287273 256.444019 
L 302.894545 256.444025 
L 306.501818 256.444032 
L 310.109091 256.444039 
L 313.716364 256.444045 
L 317.323636 256.444052 
L 320.930909 256.444058 
L 324.538182 256.444065 
L 328.145455 256.444071 
L 331.752727 256.444078 
L 335.36 256.444084 
L 338.967273 256.444091 
L 342.574545 256.444097 
L 346.181818 256.444104 
L 349.789091 256.44411 
L 353.396364 256.444117 
L 357.003636 256.444123 
L 360.610909 256.44413 
L 364.218182 256.444136 
L 367.825455 256.444143 
L 371.432727 256.444149 
L 375.04 256.444155 
L 378.647273 256.444162 
L 382.254545 256.444168 
L 385.861818 256.444175 
L 389.469091 256.444181 
L 393.076364 256.444187 
L 396.683636 256.444194 
L 400.290909 256.4442 
L 403.898182 256.444206 
L 407.505455 256.444213 
L 411.112727 256.444219 
L 414.72 256.444225 
" clip-path="url(#pedea14ed32)" style="fill: none; stroke: #000000; stroke-width: 0.5"/>
   </g>
   <g id="PathCollection_13">
    <path d="M 57.6 240.693733 
L 61.207273 240.693743 
L 64.814545 240.693754 
L 68.421818 240.693764 
L 72.029091 240.693774 
L 75.636364 240.693784 
L 79.243636 240.693794 
L 82.850909 240.693804 
L 86.458182 240.693814 
L 90.065455 240.693824 
L 93.672727 240.693834 
L 97.28 240.693844 
L 100.887273 240.693854 
L 104.494545 240.693864 
L 108.101818 240.693873 
L 111.709091 240.693883 
L 115.316364 240.693893 
L 118.923636 240.693903 
L 122.530909 240.693913 
L 126.138182 240.693922 
L 129.745455 240.693932 
L 133.352727 240.693942 
L 136.96 240.693951 
L 140.567273 240.693961 
L 144.174545 240.693971 
L 147.781818 240.69398 
L 151.389091 240.69399 
L 154.996364 240.693999 
L 158.603636 240.694009 
L 162.210909 240.694018 
L 165.818182 240.694028 
L 169.425455 240.694037 
L 173.032727 240.694047 
L 176.64 240.694056 
L 180.247273 240.694066 
L 183.854545 240.694075 
L 187.461818 240.694084 
L 191.069091 240.694094 
L 194.676364 240.694103 
L 198.283636 240.694112 
L 201.890909 240.694121 
L 205.498182 240.694131 
L 209.105455 240.69414 
L 212.712727 240.694149 
L 216.32 240.694158 
L 219.927273 240.694167 
L 223.534545 240.694176 
L 227.141818 240.694185 
L 230.749091 240.694194 
L 234.356364 240.694203 
L 237.963636 240.694212 
L 241.570909 240.694221 
L 245.178182 240.69423 
L 248.785455 240.694239 
L 248.866818 240.694239 
" clip-path="url(#pedea14ed32)" style="fill: none; stroke: #000000; stroke-width: 0.5"/>
    <path d="M 284.776818 240.694327 
L 284.858182 240.694327 
L 288.465455 240.694336 
L 292.072727 240.694344 
L 295.68 240.694353 
L 299.287273 240.694361 
L 302.894545 240.69437 
L 306.501818 240.694379 
L 310.109091 240.694387 
L 313.716364 240.694396 
L 317.323636 240.694404 
L 320.930909 240.694412 
L 324.538182 240.694421 
L 328.145455 240.694429 
L 331.752727 240.694438 
L 335.36 240.694446 
L 338.967273 240.694454 
L 342.574545 240.694463 
L 346.181818 240.694471 
L 349.789091 240.694479 
L 353.396364 240.694487 
L 357.003636 240.694496 
L 360.610909 240.694504 
L 364.218182 240.694512 
L 367.825455 240.69452 
L 371.432727 240.694528 
L 375.04 240.694536 
L 378.647273 240.694544 
L 382.254545 240.694552 
L 385.861818 240.69456 
L 389.469091 240.694568 
L 393.076364 240.694576 
L 396.683636 240.694584 
L 400.290909 240.694592 
L 403.898182 240.6946 
L 407.505455 240.694608 
L 411.112727 240.694616 
L 414.72 240.694623 
" clip-path="url(#pedea14ed32)" style="fill: none; stroke: #000000; stroke-width: 0.5"/>
   </g>
   <g id="PathCollection_14">
    <path d="M 57.6 220.002111 
L 61.207273 220.002129 
L 64.814545 220.002147 
L 68.421818 220.002166 
L 72.029091 220.002184 
L 75.636364 220.002202 
L 79.243636 220.00222 
L 82.850909 220.002237 
L 86.458182 220.002255 
L 90.065455 220.002273 
L 93.672727 220.002291 
L 97.28 220.002308 
L 100.887273 220.002326 
L 104.494545 220.002343 
L 108.101818 220.002361 
L 108.183182 220.002361 
" clip-path="url(#pedea14ed32)" style="fill: none; stroke: #000000; stroke-width: 0.5"/>
    <path d="M 144.093182 220.002532 
L 144.174545 220.002533 
L 147.781818 220.00255 
L 151.389091 220.002566 
L 154.996364 220.002583 
L 158.603636 220.0026 
L 162.210909 220.002617 
L 165.818182 220.002633 
L 169.425455 220.00265 
L 173.032727 220.002666 
L 176.64 220.002683 
L 180.247273 220.002699 
L 183.854545 220.002715 
L 187.461818 220.002732 
L 191.069091 220.002748 
L 194.676364 220.002764 
L 198.283636 220.00278 
L 201.890909 220.002796 
L 205.498182 220.002812 
L 209.105455 220.002828 
L 212.712727 220.002844 
L 216.32 220.00286 
L 219.927273 220.002876 
L 223.534545 220.002892 
L 227.141818 220.002907 
L 230.749091 220.002923 
L 234.356364 220.002938 
L 237.963636 220.002954 
L 241.570909 220.002969 
L 245.178182 220.002985 
L 248.785455 220.003 
L 252.392727 220.003015 
L 256 220.003031 
L 259.607273 220.003046 
L 263.214545 220.003061 
L 266.821818 220.003076 
L 270.429091 220.003091 
L 274.036364 220.003106 
L 277.643636 220.003121 
L 281.250909 220.003136 
L 284.858182 220.003151 
L 288.465455 220.003165 
L 292.072727 220.00318 
L 295.68 220.003195 
L 299.287273 220.003209 
L 302.894545 220.003224 
L 306.501818 220.003238 
L 310.109091 220.003253 
L 313.716364 220.003267 
L 317.323636 220.003281 
L 320.930909 220.003295 
L 324.538182 220.00331 
L 328.145455 220.003324 
L 331.752727 220.003338 
L 335.36 220.003352 
L 338.967273 220.003366 
L 342.574545 220.00338 
L 346.181818 220.003394 
L 349.789091 220.003407 
L 353.396364 220.003421 
L 357.003636 220.003435 
L 360.610909 220.003449 
L 364.218182 220.003462 
L 367.825455 220.003476 
L 371.432727 220.003489 
L 375.04 220.003503 
L 378.647273 220.003516 
L 382.254545 220.003529 
L 385.861818 220.003543 
L 389.469091 220.003556 
L 393.076364 220.003569 
L 396.683636 220.003582 
L 400.290909 220.003595 
L 403.898182 220.003608 
L 407.505455 220.003621 
L 411.112727 220.003634 
L 414.72 220.003647 
" clip-path="url(#pedea14ed32)" style="fill: none; stroke: #000000; stroke-width: 0.5"/>
    <path d="M 414.72 138.341658 
L 411.112727 138.34168 
L 407.505455 138.341702 
L 403.898182 138.341724 
L 400.290909 138.341747 
L 396.683636 138.341769 
L 393.076364 138.341791 
L 389.469091 138.341814 
L 385.861818 138.341836 
L 382.254545 138.341859 
L 378.647273 138.341882 
L 375.04 138.341905 
L 371.432727 138.341928 
L 367.825455 138.341951 
L 364.218182 138.341974 
L 364.136818 138.341974 
" clip-path="url(#pedea14ed32)" style="fill: none; stroke: #000000; stroke-width: 0.5"/>
    <path d="M 328.226818 138.34221 
L 328.145455 138.34221 
L 324.538182 138.342234 
L 320.930909 138.342259 
L 317.323636 138.342283 
L 313.716364 138.342307 
L 310.109091 138.342332 
L 306.501818 138.342356 
L 302.894545 138.342381 
L 299.287273 138.342406 
L 295.68 138.342431 
L 292.072727 138.342456 
L 288.465455 138.342481 
L 284.858182 138.342506 
L 281.250909 138.342531 
L 277.643636 138.342556 
L 274.036364 138.342582 
L 270.429091 138.342607 
L 266.821818 138.342633 
L 263.214545 138.342658 
L 259.607273 138.342684 
L 256 138.34271 
L 252.392727 138.342736 
L 248.785455 138.342762 
L 245.178182 138.342788 
L 241.570909 138.342814 
L 237.963636 138.34284 
L 234.356364 138.342867 
L 230.749091 138.342893 
L 227.141818 138.34292 
L 223.534545 138.342946 
L 219.927273 138.342973 
L 216.32 138.343 
L 212.712727 138.343027 
L 209.105455 138.343054 
L 205.498182 138.343081 
L 201.890909 138.343108 
L 198.283636 138.343135 
L 194.676364 138.343163 
L 191.069091 138.34319 
L 187.461818 138.343218 
L 183.854545 138.343245 
L 180.247273 138.343273 
L 176.64 138.343301 
L 173.032727 138.343329 
L 169.425455 138.343357 
L 165.818182 138.343385 
L 162.210909 138.343413 
L 158.603636 138.343441 
L 154.996364 138.34347 
L 151.389091 138.343498 
L 147.781818 138.343527 
L 144.174545 138.343555 
L 140.567273 138.343584 
L 136.96 138.343613 
L 133.352727 138.343642 
L 129.745455 138.343671 
L 126.138182 138.3437 
L 122.530909 138.343729 
L 118.923636 138.343758 
L 115.316364 138.343787 
L 111.709091 138.343817 
L 108.101818 138.343846 
L 104.494545 138.343876 
L 100.887273 138.343906 
L 97.28 138.343935 
L 93.672727 138.343965 
L 90.065455 138.343995 
L 86.458182 138.344025 
L 82.850909 138.344055 
L 79.243636 138.344086 
L 75.636364 138.344116 
L 72.029091 138.344146 
L 68.421818 138.344177 
L 64.814545 138.344207 
L 61.207273 138.344238 
L 57.6 138.344269 
" clip-path="url(#pedea14ed32)" style="fill: none; stroke: #000000; stroke-width: 0.5"/>
   </g>
   <g id="PathCollection_15"/>
   <g id="LineCollection_1">
    <path d="M 70.331738 307.584 
L 70.331738 294.2784 
" clip-path="url(#pedea14ed32)" style="fill: none; stroke: #000000; stroke-width: 1.5"/>
    <path d="M 99.846223 307.584 
L 99.846223 294.2784 
" clip-path="url(#pedea14ed32)" style="fill: none; stroke: #000000; stroke-width: 1.5"/>
    <path d="M 129.465928 307.584 
L 129.465928 294.2784 
" clip-path="url(#pedea14ed32)" style="fill: none; stroke: #000000; stroke-width: 1.5"/>
    <path d="M 223.533483 307.584 
L 223.533483 294.2784 
" clip-path="url(#pedea14ed32)" style="fill: none; stroke: #000000; stroke-width: 1.5"/>
    <path d="M 263.675286 307.584 
L 263.675286 294.2784 
" clip-path="url(#pedea14ed32)" style="fill: none; stroke: #000000; stroke-width: 1.5"/>
    <path d="M 284.088156 307.584 
L 284.088156 294.2784 
" clip-path="url(#pedea14ed32)" style="fill: none; stroke: #000000; stroke-width: 1.5"/>
    <path d="M 301.81789 307.584 
L 301.81789 294.2784 
" clip-path="url(#pedea14ed32)" style="fill: none; stroke: #000000; stroke-width: 1.5"/>
    <path d="M 335.435993 307.584 
L 335.435993 294.2784 
" clip-path="url(#pedea14ed32)" style="fill: none; stroke: #000000; stroke-width: 1.5"/>
    <path d="M 378.208321 307.584 
L 378.208321 294.2784 
" clip-path="url(#pedea14ed32)" style="fill: none; stroke: #000000; stroke-width: 1.5"/>
   </g>
   <g id="LineCollection_2">
    <path clip-path="url(#pedea14ed32)" style="fill: none; stroke: #000000; stroke-width: 1.5"/>
    <path clip-path="url(#pedea14ed32)" style="fill: none; stroke: #000000; stroke-width: 1.5"/>
    <path clip-path="url(#pedea14ed32)" style="fill: none; stroke: #000000; stroke-width: 1.5"/>
    <path clip-path="url(#pedea14ed32)" style="fill: none; stroke: #000000; stroke-width: 1.5"/>
    <path clip-path="url(#pedea14ed32)" style="fill: none; stroke: #000000; stroke-width: 1.5"/>
    <path clip-path="url(#pedea14ed32)" style="fill: none; stroke: #000000; stroke-width: 1.5"/>
    <path clip-path="url(#pedea14ed32)" style="fill: none; stroke: #000000; stroke-width: 1.5"/>
    <path clip-path="url(#pedea14ed32)" style="fill: none; stroke: #000000; stroke-width: 1.5"/>
    <path clip-path="url(#pedea14ed32)" style="fill: none; stroke: #000000; stroke-width: 1.5"/>
   </g>
   <g id="patch_3">
    <path d="M 57.6 307.584 
L 57.6 41.472 
" style="fill: none; stroke: #000000; stroke-width: 0.8; stroke-linejoin: miter; stroke-linecap: square"/>
   </g>
   <g id="patch_4">
    <path d="M 414.72 307.584 
L 414.72 41.472 
" style="fill: none; stroke: #000000; stroke-width: 0.8; stroke-linejoin: miter; stroke-linecap: square"/>
   </g>
   <g id="patch_5">
    <path d="M 57.6 307.584 
L 414.72 307.584 
" style="fill: none; stroke: #000000; stroke-width: 0.8; stroke-linejoin: miter; stroke-linecap: square"/>
   </g>
   <g id="patch_6">
    <path d="M 57.6 41.472 
L 414.72 41.472 
" style="fill: none; stroke: #000000; stroke-width: 0.8; stroke-linejoin: miter; stroke-linecap: square"/>
   </g>
   <g id="text_14">
    <!-- 2D-partial dependency plot between Obesity and Veg -->
    <g transform="translate(75.04875 35.472) scale(0.12 -0.12)">
     <defs>
      <path id="DejaVuSans-44" d="M 1259 4147 
L 1259 519 
L 2022 519 
Q 2988 519 3436 956 
Q 3884 1394 3884 2338 
Q 3884 3275 3436 3711 
Q 2988 4147 2022 4147 
L 1259 4147 
z
M 628 4666 
L 1925 4666 
Q 3281 4666 3915 4102 
Q 4550 3538 4550 2338 
Q 4550 1131 3912 565 
Q 3275 0 1925 0 
L 628 0 
L 628 4666 
z
" transform="scale(0.015625)"/>
      <path id="DejaVuSans-2d" d="M 313 2009 
L 1997 2009 
L 1997 1497 
L 313 1497 
L 313 2009 
z
" transform="scale(0.015625)"/>
      <path id="DejaVuSans-72" d="M 2631 2963 
Q 2534 3019 2420 3045 
Q 2306 3072 2169 3072 
Q 1681 3072 1420 2755 
Q 1159 2438 1159 1844 
L 1159 0 
L 581 0 
L 581 3500 
L 1159 3500 
L 1159 2956 
Q 1341 3275 1631 3429 
Q 1922 3584 2338 3584 
Q 2397 3584 2469 3576 
Q 2541 3569 2628 3553 
L 2631 2963 
z
" transform="scale(0.015625)"/>
      <path id="DejaVuSans-64" d="M 2906 2969 
L 2906 4863 
L 3481 4863 
L 3481 0 
L 2906 0 
L 2906 525 
Q 2725 213 2448 61 
Q 2172 -91 1784 -91 
Q 1150 -91 751 415 
Q 353 922 353 1747 
Q 353 2572 751 3078 
Q 1150 3584 1784 3584 
Q 2172 3584 2448 3432 
Q 2725 3281 2906 2969 
z
M 947 1747 
Q 947 1113 1208 752 
Q 1469 391 1925 391 
Q 2381 391 2643 752 
Q 2906 1113 2906 1747 
Q 2906 2381 2643 2742 
Q 2381 3103 1925 3103 
Q 1469 3103 1208 2742 
Q 947 2381 947 1747 
z
" transform="scale(0.015625)"/>
      <path id="DejaVuSans-63" d="M 3122 3366 
L 3122 2828 
Q 2878 2963 2633 3030 
Q 2388 3097 2138 3097 
Q 1578 3097 1268 2742 
Q 959 2388 959 1747 
Q 959 1106 1268 751 
Q 1578 397 2138 397 
Q 2388 397 2633 464 
Q 2878 531 3122 666 
L 3122 134 
Q 2881 22 2623 -34 
Q 2366 -91 2075 -91 
Q 1284 -91 818 406 
Q 353 903 353 1747 
Q 353 2603 823 3093 
Q 1294 3584 2113 3584 
Q 2378 3584 2631 3529 
Q 2884 3475 3122 3366 
z
" transform="scale(0.015625)"/>
      <path id="DejaVuSans-77" d="M 269 3500 
L 844 3500 
L 1563 769 
L 2278 3500 
L 2956 3500 
L 3675 769 
L 4391 3500 
L 4966 3500 
L 4050 0 
L 3372 0 
L 2619 2869 
L 1863 0 
L 1184 0 
L 269 3500 
z
" transform="scale(0.015625)"/>
     </defs>
     <use xlink:href="#DejaVuSans-32"/>
     <use xlink:href="#DejaVuSans-44" x="63.623047"/>
     <use xlink:href="#DejaVuSans-2d" x="140.625"/>
     <use xlink:href="#DejaVuSans-70" x="176.708984"/>
     <use xlink:href="#DejaVuSans-61" x="240.185547"/>
     <use xlink:href="#DejaVuSans-72" x="301.464844"/>
     <use xlink:href="#DejaVuSans-74" x="342.578125"/>
     <use xlink:href="#DejaVuSans-69" x="381.787109"/>
     <use xlink:href="#DejaVuSans-61" x="409.570312"/>
     <use xlink:href="#DejaVuSans-6c" x="470.849609"/>
     <use xlink:href="#DejaVuSans-20" x="498.632812"/>
     <use xlink:href="#DejaVuSans-64" x="530.419922"/>
     <use xlink:href="#DejaVuSans-65" x="593.896484"/>
     <use xlink:href="#DejaVuSans-70" x="655.419922"/>
     <use xlink:href="#DejaVuSans-65" x="718.896484"/>
     <use xlink:href="#DejaVuSans-6e" x="780.419922"/>
     <use xlink:href="#DejaVuSans-64" x="843.798828"/>
     <use xlink:href="#DejaVuSans-65" x="907.275391"/>
     <use xlink:href="#DejaVuSans-6e" x="968.798828"/>
     <use xlink:href="#DejaVuSans-63" x="1032.177734"/>
     <use xlink:href="#DejaVuSans-79" x="1087.158203"/>
     <use xlink:href="#DejaVuSans-20" x="1146.337891"/>
     <use xlink:href="#DejaVuSans-70" x="1178.125"/>
     <use xlink:href="#DejaVuSans-6c" x="1241.601562"/>
     <use xlink:href="#DejaVuSans-6f" x="1269.384766"/>
     <use xlink:href="#DejaVuSans-74" x="1330.566406"/>
     <use xlink:href="#DejaVuSans-20" x="1369.775391"/>
     <use xlink:href="#DejaVuSans-62" x="1401.5625"/>
     <use xlink:href="#DejaVuSans-65" x="1465.039062"/>
     <use xlink:href="#DejaVuSans-74" x="1526.5625"/>
     <use xlink:href="#DejaVuSans-77" x="1565.771484"/>
     <use xlink:href="#DejaVuSans-65" x="1647.558594"/>
     <use xlink:href="#DejaVuSans-65" x="1709.082031"/>
     <use xlink:href="#DejaVuSans-6e" x="1770.605469"/>
     <use xlink:href="#DejaVuSans-20" x="1833.984375"/>
     <use xlink:href="#DejaVuSans-4f" x="1865.771484"/>
     <use xlink:href="#DejaVuSans-62" x="1944.482422"/>
     <use xlink:href="#DejaVuSans-65" x="2007.958984"/>
     <use xlink:href="#DejaVuSans-73" x="2069.482422"/>
     <use xlink:href="#DejaVuSans-69" x="2121.582031"/>
     <use xlink:href="#DejaVuSans-74" x="2149.365234"/>
     <use xlink:href="#DejaVuSans-79" x="2188.574219"/>
     <use xlink:href="#DejaVuSans-20" x="2247.753906"/>
     <use xlink:href="#DejaVuSans-61" x="2279.541016"/>
     <use xlink:href="#DejaVuSans-6e" x="2340.820312"/>
     <use xlink:href="#DejaVuSans-64" x="2404.199219"/>
     <use xlink:href="#DejaVuSans-20" x="2467.675781"/>
     <use xlink:href="#DejaVuSans-56" x="2499.462891"/>
     <use xlink:href="#DejaVuSans-65" x="2560.121094"/>
     <use xlink:href="#DejaVuSans-67" x="2621.644531"/>
    </g>
   </g>
   <g id="text_15">
    <g clip-path="url(#pedea14ed32)">
     <!-- 6.40 -->
     <g transform="translate(324.227184 300.385842) rotate(-359.999934) scale(0.1 -0.1)">
      <defs>
       <path id="DejaVuSans-36" d="M 2113 2584 
Q 1688 2584 1439 2293 
Q 1191 2003 1191 1497 
Q 1191 994 1439 701 
Q 1688 409 2113 409 
Q 2538 409 2786 701 
Q 3034 994 3034 1497 
Q 3034 2003 2786 2293 
Q 2538 2584 2113 2584 
z
M 3366 4563 
L 3366 3988 
Q 3128 4100 2886 4159 
Q 2644 4219 2406 4219 
Q 1781 4219 1451 3797 
Q 1122 3375 1075 2522 
Q 1259 2794 1537 2939 
Q 1816 3084 2150 3084 
Q 2853 3084 3261 2657 
Q 3669 2231 3669 1497 
Q 3669 778 3244 343 
Q 2819 -91 2113 -91 
Q 1303 -91 875 529 
Q 447 1150 447 2328 
Q 447 3434 972 4092 
Q 1497 4750 2381 4750 
Q 2619 4750 2861 4703 
Q 3103 4656 3366 4563 
z
" transform="scale(0.015625)"/>
       <path id="DejaVuSans-34" d="M 2419 4116 
L 825 1625 
L 2419 1625 
L 2419 4116 
z
M 2253 4666 
L 3047 4666 
L 3047 1625 
L 3713 1625 
L 3713 1100 
L 3047 1100 
L 3047 0 
L 2419 0 
L 2419 1100 
L 313 1100 
L 313 1709 
L 2253 4666 
z
" transform="scale(0.015625)"/>
      </defs>
      <use xlink:href="#DejaVuSans-36"/>
      <use xlink:href="#DejaVuSans-2e" x="63.623047"/>
      <use xlink:href="#DejaVuSans-34" x="95.410156"/>
      <use xlink:href="#DejaVuSans-30" x="159.033203"/>
     </g>
    </g>
   </g>
   <g id="text_16">
    <g clip-path="url(#pedea14ed32)">
     <!-- 7.52 -->
     <g transform="translate(212.40173 286.66645) rotate(-359.999931) scale(0.1 -0.1)">
      <defs>
       <path id="DejaVuSans-37" d="M 525 4666 
L 3525 4666 
L 3525 4397 
L 1831 0 
L 1172 0 
L 2766 4134 
L 525 4134 
L 525 4666 
z
" transform="scale(0.015625)"/>
      </defs>
      <use xlink:href="#DejaVuSans-37"/>
      <use xlink:href="#DejaVuSans-2e" x="63.623047"/>
      <use xlink:href="#DejaVuSans-35" x="95.410156"/>
      <use xlink:href="#DejaVuSans-32" x="159.033203"/>
     </g>
    </g>
   </g>
   <g id="text_17">
    <g clip-path="url(#pedea14ed32)">
     <!-- 8.63 -->
     <g transform="translate(324.227183 273.209171) rotate(-359.999915) scale(0.1 -0.1)">
      <defs>
       <path id="DejaVuSans-38" d="M 2034 2216 
Q 1584 2216 1326 1975 
Q 1069 1734 1069 1313 
Q 1069 891 1326 650 
Q 1584 409 2034 409 
Q 2484 409 2743 651 
Q 3003 894 3003 1313 
Q 3003 1734 2745 1975 
Q 2488 2216 2034 2216 
z
M 1403 2484 
Q 997 2584 770 2862 
Q 544 3141 544 3541 
Q 544 4100 942 4425 
Q 1341 4750 2034 4750 
Q 2731 4750 3128 4425 
Q 3525 4100 3525 3541 
Q 3525 3141 3298 2862 
Q 3072 2584 2669 2484 
Q 3125 2378 3379 2068 
Q 3634 1759 3634 1313 
Q 3634 634 3220 271 
Q 2806 -91 2034 -91 
Q 1263 -91 848 271 
Q 434 634 434 1313 
Q 434 1759 690 2068 
Q 947 2378 1403 2484 
z
M 1172 3481 
Q 1172 3119 1398 2916 
Q 1625 2713 2034 2713 
Q 2441 2713 2670 2916 
Q 2900 3119 2900 3481 
Q 2900 3844 2670 4047 
Q 2441 4250 2034 4250 
Q 1625 4250 1398 4047 
Q 1172 3844 1172 3481 
z
" transform="scale(0.015625)"/>
      </defs>
      <use xlink:href="#DejaVuSans-38"/>
      <use xlink:href="#DejaVuSans-2e" x="63.623047"/>
      <use xlink:href="#DejaVuSans-36" x="95.410156"/>
      <use xlink:href="#DejaVuSans-33" x="159.033203"/>
     </g>
    </g>
   </g>
   <g id="text_18">
    <g clip-path="url(#pedea14ed32)">
     <!-- 9.74 -->
     <g transform="translate(212.401728 259.203231) rotate(-359.999891) scale(0.1 -0.1)">
      <defs>
       <path id="DejaVuSans-39" d="M 703 97 
L 703 672 
Q 941 559 1184 500 
Q 1428 441 1663 441 
Q 2288 441 2617 861 
Q 2947 1281 2994 2138 
Q 2813 1869 2534 1725 
Q 2256 1581 1919 1581 
Q 1219 1581 811 2004 
Q 403 2428 403 3163 
Q 403 3881 828 4315 
Q 1253 4750 1959 4750 
Q 2769 4750 3195 4129 
Q 3622 3509 3622 2328 
Q 3622 1225 3098 567 
Q 2575 -91 1691 -91 
Q 1453 -91 1209 -44 
Q 966 3 703 97 
z
M 1959 2075 
Q 2384 2075 2632 2365 
Q 2881 2656 2881 3163 
Q 2881 3666 2632 3958 
Q 2384 4250 1959 4250 
Q 1534 4250 1286 3958 
Q 1038 3666 1038 3163 
Q 1038 2656 1286 2365 
Q 1534 2075 1959 2075 
z
" transform="scale(0.015625)"/>
      </defs>
      <use xlink:href="#DejaVuSans-39"/>
      <use xlink:href="#DejaVuSans-2e" x="63.623047"/>
      <use xlink:href="#DejaVuSans-37" x="95.410156"/>
      <use xlink:href="#DejaVuSans-34" x="159.033203"/>
     </g>
    </g>
   </g>
   <g id="text_19">
    <g clip-path="url(#pedea14ed32)">
     <!-- 10.86 -->
     <g transform="translate(252.507749 243.453624) rotate(-359.99986) scale(0.1 -0.1)">
      <use xlink:href="#DejaVuSans-31"/>
      <use xlink:href="#DejaVuSans-30" x="63.623047"/>
      <use xlink:href="#DejaVuSans-2e" x="127.246094"/>
      <use xlink:href="#DejaVuSans-38" x="159.033203"/>
      <use xlink:href="#DejaVuSans-36" x="222.65625"/>
     </g>
    </g>
   </g>
   <g id="text_20">
    <g clip-path="url(#pedea14ed32)">
     <!-- 11.97 -->
     <g transform="translate(111.824106 222.761754) rotate(-359.999727) scale(0.1 -0.1)">
      <use xlink:href="#DejaVuSans-31"/>
      <use xlink:href="#DejaVuSans-31" x="63.623047"/>
      <use xlink:href="#DejaVuSans-2e" x="127.246094"/>
      <use xlink:href="#DejaVuSans-39" x="159.033203"/>
      <use xlink:href="#DejaVuSans-37" x="222.65625"/>
     </g>
    </g>
   </g>
   <g id="text_21">
    <g clip-path="url(#pedea14ed32)">
     <!-- 11.97 -->
     <g transform="translate(331.867774 141.10156) rotate(-0.000375) scale(0.1 -0.1)">
      <use xlink:href="#DejaVuSans-31"/>
      <use xlink:href="#DejaVuSans-31" x="63.623047"/>
      <use xlink:href="#DejaVuSans-2e" x="127.246094"/>
      <use xlink:href="#DejaVuSans-39" x="159.033203"/>
      <use xlink:href="#DejaVuSans-37" x="222.65625"/>
     </g>
    </g>
   </g>
  </g>
 </g>
 <defs>
  <clipPath id="pedea14ed32">
   <rect x="57.6" y="41.472" width="357.12" height="266.112"/>
  </clipPath>
 </defs>
</svg>
