<?xml version="1.0" encoding="utf-8" standalone="no"?>
<!DOCTYPE svg PUBLIC "-//W3C//DTD SVG 1.1//EN"
  "http://www.w3.org/Graphics/SVG/1.1/DTD/svg11.dtd">
<svg xmlns:xlink="http://www.w3.org/1999/xlink" width="460.8pt" height="345.6pt" viewBox="0 0 460.8 345.6" xmlns="http://www.w3.org/2000/svg" version="1.1">
 <metadata>
  <rdf:RDF xmlns:dc="http://purl.org/dc/elements/1.1/" xmlns:cc="http://creativecommons.org/ns#" xmlns:rdf="http://www.w3.org/1999/02/22-rdf-syntax-ns#">
   <cc:Work>
    <dc:type rdf:resource="http://purl.org/dc/dcmitype/StillImage"/>
    <dc:date>2024-04-22T00:59:03.316266</dc:date>
    <dc:format>image/svg+xml</dc:format>
    <dc:creator>
     <cc:Agent>
      <dc:title>Matplotlib v3.7.0, https://matplotlib.org/</dc:title>
     </cc:Agent>
    </dc:creator>
   </cc:Work>
  </rdf:RDF>
 </metadata>
 <defs>
  <style type="text/css">*{stroke-linejoin: round; stroke-linecap: butt}</style>
 </defs>
 <g id="figure_1">
  <g id="patch_1">
   <path d="M 0 345.6 
L 460.8 345.6 
L 460.8 0 
L 0 0 
L 0 345.6 
z
" style="fill: none"/>
  </g>
  <g id="axes_1"/>
  <g id="axes_2">
   <g id="patch_2">
    <path d="M 57.6 307.584 
L 414.72 307.584 
L 414.72 41.472 
L 57.6 41.472 
L 57.6 307.584 
z
" style="fill: none"/>
   </g>
   <g id="PathCollection_1">
    <path d="M 364.218182 307.584 
L 367.825455 307.584 
L 371.432727 307.584 
L 375.04 307.584 
L 378.647273 307.584 
L 382.254545 307.584 
L 385.861818 307.584 
L 389.469091 307.584 
L 393.076364 307.584 
L 396.683636 307.584 
L 400.290909 307.584 
L 403.898182 307.584 
L 407.505455 307.584 
L 411.112727 307.584 
L 414.72 307.584 
L 414.72 304.896 
L 414.72 302.208 
L 414.72 299.52 
L 414.72 296.832 
L 414.72 294.144 
L 414.72 291.456 
L 414.72 288.768 
L 414.72 286.08 
L 414.72 283.392 
L 414.72 280.704 
L 414.72 278.016 
L 414.72 275.328 
L 414.72 272.64 
L 414.72 269.952 
L 414.72 267.264 
L 414.72 264.576 
L 414.72 261.888 
L 414.72 259.2 
L 414.72 256.512 
L 414.72 253.824 
L 414.72 251.136 
L 414.72 248.448 
L 414.72 245.76 
L 414.72 243.072 
L 414.72 240.384 
L 414.72 237.696 
L 414.72 235.008 
L 414.72 232.32 
L 414.72 229.632 
L 414.72 226.944 
L 414.72 224.256 
L 414.72 221.568 
L 414.72 218.88 
L 414.72 216.192 
L 414.72 213.504 
L 414.72 210.816 
L 414.72 208.128 
L 414.72 205.44 
L 414.72 202.752 
L 414.72 200.064 
L 414.72 197.376 
L 414.72 194.688 
L 414.72 192 
L 414.72 189.312 
L 414.72 186.624 
L 414.72 183.936 
L 414.72 181.248 
L 414.72 178.56 
L 414.72 177.458693 
L 414.278727 178.56 
L 413.200811 181.248 
L 412.121576 183.936 
L 411.112727 186.445736 
L 411.041195 186.624 
L 409.961966 189.312 
L 408.881425 192 
L 407.799571 194.688 
L 407.505455 195.418263 
L 406.718307 197.376 
L 405.636448 200.064 
L 404.553284 202.752 
L 403.898182 204.376223 
L 403.469834 205.44 
L 402.386644 208.128 
L 401.302157 210.816 
L 400.290909 213.319598 
L 400.216545 213.504 
L 399.132011 216.192 
L 398.046188 218.88 
L 396.959074 221.568 
L 396.683636 222.248624 
L 395.872547 224.256 
L 394.785375 226.944 
L 393.69692 229.632 
L 393.076364 231.163201 
L 392.608248 232.32 
L 391.519715 235.008 
L 390.429906 237.696 
L 389.469091 240.06329 
L 389.339113 240.384 
L 388.249205 243.072 
L 387.15803 245.76 
L 386.065587 248.448 
L 385.861818 248.949127 
L 384.973841 251.136 
L 383.881287 253.824 
L 382.787473 256.512 
L 382.254545 257.820687 
L 381.69362 259.2 
L 380.599674 261.888 
L 379.504476 264.576 
L 378.647273 266.677853 
L 378.408536 267.264 
L 377.313185 269.952 
L 376.216591 272.64 
L 375.118751 275.328 
L 375.04 275.520751 
L 374.021816 278.016 
L 372.923813 280.704 
L 371.824572 283.392 
L 371.432727 284.349641 
L 370.725562 286.08 
L 369.626136 288.768 
L 368.525482 291.456 
L 367.825455 293.164232 
L 367.424416 294.144 
L 366.323555 296.832 
L 365.221475 299.52 
L 364.218182 301.96454 
L 364.118372 302.208 
L 363.016064 304.896 
L 361.912544 307.584 
z
" clip-path="url(#p74ca718cc5)" style="fill: #481b6d; fill-opacity: 0.75"/>
   </g>
   <g id="PathCollection_2">
    <path d="M 288.465455 307.584 
L 292.072727 307.584 
L 295.68 307.584 
L 299.287273 307.584 
L 302.894545 307.584 
L 306.501818 307.584 
L 310.109091 307.584 
L 313.716364 307.584 
L 317.323636 307.584 
L 320.930909 307.584 
L 324.538182 307.584 
L 328.145455 307.584 
L 331.752727 307.584 
L 335.36 307.584 
L 338.967273 307.584 
L 342.574545 307.584 
L 346.181818 307.584 
L 349.789091 307.584 
L 353.396364 307.584 
L 357.003636 307.584 
L 360.610909 307.584 
L 361.912544 307.584 
L 363.016064 304.896 
L 364.118372 302.208 
L 364.218182 301.96454 
L 365.221475 299.52 
L 366.323555 296.832 
L 367.424416 294.144 
L 367.825455 293.164232 
L 368.525482 291.456 
L 369.626136 288.768 
L 370.725562 286.08 
L 371.432727 284.349641 
L 371.824572 283.392 
L 372.923813 280.704 
L 374.021816 278.016 
L 375.04 275.520751 
L 375.118751 275.328 
L 376.216591 272.64 
L 377.313185 269.952 
L 378.408536 267.264 
L 378.647273 266.677853 
L 379.504476 264.576 
L 380.599674 261.888 
L 381.69362 259.2 
L 382.254545 257.820687 
L 382.787473 256.512 
L 383.881287 253.824 
L 384.973841 251.136 
L 385.861818 248.949127 
L 386.065587 248.448 
L 387.15803 245.76 
L 388.249205 243.072 
L 389.339113 240.384 
L 389.469091 240.06329 
L 390.429906 237.696 
L 391.519715 235.008 
L 392.608248 232.32 
L 393.076364 231.163201 
L 393.69692 229.632 
L 394.785375 226.944 
L 395.872547 224.256 
L 396.683636 222.248624 
L 396.959074 221.568 
L 398.046188 218.88 
L 399.132011 216.192 
L 400.216545 213.504 
L 400.290909 213.319598 
L 401.302157 210.816 
L 402.386644 208.128 
L 403.469834 205.44 
L 403.898182 204.376223 
L 404.553284 202.752 
L 405.636448 200.064 
L 406.718307 197.376 
L 407.505455 195.418263 
L 407.799571 194.688 
L 408.881425 192 
L 409.961966 189.312 
L 411.041195 186.624 
L 411.112727 186.445736 
L 412.121576 183.936 
L 413.200811 181.248 
L 414.278727 178.56 
L 414.72 177.458693 
L 414.72 175.872 
L 414.72 173.184 
L 414.72 170.496 
L 414.72 167.808 
L 414.72 165.12 
L 414.72 162.432 
L 414.72 159.744 
L 414.72 157.056 
L 414.72 154.368 
L 414.72 151.68 
L 414.72 148.992 
L 414.72 146.304 
L 414.72 143.616 
L 414.72 140.928 
L 414.72 138.24 
L 414.72 135.552 
L 414.72 132.864 
L 414.72 130.176 
L 414.72 127.488 
L 414.72 124.8 
L 414.72 122.112 
L 414.72 119.424 
L 414.72 116.736 
L 414.72 114.048 
L 414.72 111.36 
L 414.72 108.672 
L 414.72 105.984 
L 414.72 103.296 
L 414.72 100.608 
L 414.72 97.92 
L 414.72 95.232 
L 414.72 92.544 
L 414.72 89.856 
L 414.72 87.168 
L 414.72 84.48 
L 414.72 81.792 
L 414.72 79.104 
L 414.72 76.416 
L 414.72 73.728 
L 414.72 71.04 
L 414.72 68.352 
L 414.72 65.664 
L 414.72 62.976 
L 414.72 60.288 
L 414.72 57.6 
L 414.72 54.912 
L 414.72 52.224 
L 414.72 49.536 
L 414.72 46.848 
L 414.72 44.16 
L 414.72 41.472 
L 411.112727 41.472 
L 407.505455 41.472 
L 403.898182 41.472 
L 400.290909 41.472 
L 396.683636 41.472 
L 393.956307 41.472 
L 393.076364 43.768708 
L 392.92668 44.16 
L 391.89713 46.848 
L 390.865992 49.536 
L 389.833264 52.224 
L 389.469091 53.170634 
L 388.800191 54.912 
L 387.766215 57.6 
L 386.730654 60.288 
L 385.861818 62.539922 
L 385.693816 62.976 
L 384.656987 65.664 
L 383.618581 68.352 
L 382.578595 71.04 
L 382.254545 71.87651 
L 381.538319 73.728 
L 380.497053 76.416 
L 379.454214 79.104 
L 378.647273 81.181012 
L 378.41022 81.792 
L 377.36608 84.48 
L 376.320374 87.168 
L 375.2731 89.856 
L 375.04 90.453591 
L 374.225669 92.544 
L 373.177081 95.232 
L 372.126932 97.92 
L 371.432727 99.694533 
L 371.075825 100.608 
L 370.024341 103.296 
L 368.971302 105.984 
L 367.916705 108.672 
L 367.825455 108.904335 
L 366.862157 111.36 
L 365.806212 114.048 
L 364.748716 116.736 
L 364.218182 118.08288 
L 363.69053 119.424 
L 362.631665 122.112 
L 361.571255 124.8 
L 360.610909 127.230919 
L 360.509461 127.488 
L 359.44766 130.176 
L 358.384321 132.864 
L 357.319441 135.552 
L 357.003636 136.348293 
L 356.254195 138.24 
L 355.187911 140.928 
L 354.120092 143.616 
L 353.396364 145.435516 
L 353.051267 146.304 
L 351.982021 148.992 
L 350.911248 151.68 
L 349.838945 154.368 
L 349.789091 154.492857 
L 348.766647 157.056 
L 347.692902 159.744 
L 346.617634 162.432 
L 346.181818 163.520284 
L 345.54178 165.12 
L 344.465048 167.808 
L 343.386799 170.496 
L 342.574545 172.518323 
L 342.307413 173.184 
L 341.227676 175.872 
L 340.146429 178.56 
L 339.063669 181.248 
L 338.967273 181.487099 
L 337.980776 183.936 
L 336.896514 186.624 
L 335.810744 189.312 
L 335.36 190.426731 
L 334.724335 192 
L 333.63704 194.688 
L 332.548245 197.376 
L 331.752727 199.337575 
L 331.458338 200.064 
L 330.367994 202.752 
L 329.276155 205.44 
L 328.18282 208.128 
L 328.145455 208.219793 
L 327.089359 210.816 
L 325.994459 213.504 
L 324.898069 216.192 
L 324.538182 217.073507 
L 323.801118 218.88 
L 322.703139 221.568 
L 321.603676 224.256 
L 320.930909 225.898995 
L 320.503252 226.944 
L 319.402175 229.632 
L 318.299621 232.32 
L 317.323636 234.696418 
L 317.195738 235.008 
L 316.091546 237.696 
L 314.985882 240.384 
L 313.878744 243.072 
L 313.716364 243.465944 
L 312.771229 245.76 
L 311.662437 248.448 
L 310.552176 251.136 
L 310.109091 252.207764 
L 309.441199 253.824 
L 308.32926 256.512 
L 307.215858 259.2 
L 306.501818 260.922027 
L 306.10143 261.888 
L 304.986325 264.576 
L 303.869763 267.264 
L 302.894545 269.608883 
L 302.751894 269.952 
L 301.633603 272.64 
L 300.513862 275.328 
L 299.392668 278.016 
L 299.287273 278.268522 
L 298.271064 280.704 
L 297.148124 283.392 
L 296.023738 286.08 
L 295.68 286.901126 
L 294.898678 288.768 
L 293.772519 291.456 
L 292.64492 294.144 
L 292.072727 295.50678 
L 291.51641 296.832 
L 290.387012 299.52 
L 289.25618 302.208 
L 288.465455 304.085619 
L 288.124225 304.896 
L 286.991568 307.584 
z
" clip-path="url(#p74ca718cc5)" style="fill: #3f4788; fill-opacity: 0.75"/>
   </g>
   <g id="PathCollection_3">
    <path d="M 216.32 307.584 
L 219.927273 307.584 
L 223.534545 307.584 
L 227.141818 307.584 
L 230.749091 307.584 
L 234.356364 307.584 
L 237.963636 307.584 
L 241.570909 307.584 
L 245.178182 307.584 
L 248.785455 307.584 
L 252.392727 307.584 
L 256 307.584 
L 259.607273 307.584 
L 263.214545 307.584 
L 266.821818 307.584 
L 270.429091 307.584 
L 274.036364 307.584 
L 277.643636 307.584 
L 281.250909 307.584 
L 284.858182 307.584 
L 286.991568 307.584 
L 288.124225 304.896 
L 288.465455 304.085619 
L 289.25618 302.208 
L 290.387012 299.52 
L 291.51641 296.832 
L 292.072727 295.50678 
L 292.64492 294.144 
L 293.772519 291.456 
L 294.898678 288.768 
L 295.68 286.901126 
L 296.023738 286.08 
L 297.148124 283.392 
L 298.271064 280.704 
L 299.287273 278.268522 
L 299.392668 278.016 
L 300.513862 275.328 
L 301.633603 272.64 
L 302.751894 269.952 
L 302.894545 269.608883 
L 303.869763 267.264 
L 304.986325 264.576 
L 306.10143 261.888 
L 306.501818 260.922027 
L 307.215858 259.2 
L 308.32926 256.512 
L 309.441199 253.824 
L 310.109091 252.207764 
L 310.552176 251.136 
L 311.662437 248.448 
L 312.771229 245.76 
L 313.716364 243.465944 
L 313.878744 243.072 
L 314.985882 240.384 
L 316.091546 237.696 
L 317.195738 235.008 
L 317.323636 234.696418 
L 318.299621 232.32 
L 319.402175 229.632 
L 320.503252 226.944 
L 320.930909 225.898995 
L 321.603676 224.256 
L 322.703139 221.568 
L 323.801118 218.88 
L 324.538182 217.073507 
L 324.898069 216.192 
L 325.994459 213.504 
L 327.089359 210.816 
L 328.145455 208.219793 
L 328.18282 208.128 
L 329.276155 205.44 
L 330.367994 202.752 
L 331.458338 200.064 
L 331.752727 199.337575 
L 332.548245 197.376 
L 333.63704 194.688 
L 334.724335 192 
L 335.36 190.426731 
L 335.810744 189.312 
L 336.896514 186.624 
L 337.980776 183.936 
L 338.967273 181.487099 
L 339.063669 181.248 
L 340.146429 178.56 
L 341.227676 175.872 
L 342.307413 173.184 
L 342.574545 172.518323 
L 343.386799 170.496 
L 344.465048 167.808 
L 345.54178 165.12 
L 346.181818 163.520284 
L 346.617634 162.432 
L 347.692902 159.744 
L 348.766647 157.056 
L 349.789091 154.492857 
L 349.838945 154.368 
L 350.911248 151.68 
L 351.982021 148.992 
L 353.051267 146.304 
L 353.396364 145.435516 
L 354.120092 143.616 
L 355.187911 140.928 
L 356.254195 138.24 
L 357.003636 136.348293 
L 357.319441 135.552 
L 358.384321 132.864 
L 359.44766 130.176 
L 360.509461 127.488 
L 360.610909 127.230919 
L 361.571255 124.8 
L 362.631665 122.112 
L 363.69053 119.424 
L 364.218182 118.08288 
L 364.748716 116.736 
L 365.806212 114.048 
L 366.862157 111.36 
L 367.825455 108.904335 
L 367.916705 108.672 
L 368.971302 105.984 
L 370.024341 103.296 
L 371.075825 100.608 
L 371.432727 99.694533 
L 372.126932 97.92 
L 373.177081 95.232 
L 374.225669 92.544 
L 375.04 90.453591 
L 375.2731 89.856 
L 376.320374 87.168 
L 377.36608 84.48 
L 378.41022 81.792 
L 378.647273 81.181012 
L 379.454214 79.104 
L 380.497053 76.416 
L 381.538319 73.728 
L 382.254545 71.87651 
L 382.578595 71.04 
L 383.618581 68.352 
L 384.656987 65.664 
L 385.693816 62.976 
L 385.861818 62.539922 
L 386.730654 60.288 
L 387.766215 57.6 
L 388.800191 54.912 
L 389.469091 53.170634 
L 389.833264 52.224 
L 390.865992 49.536 
L 391.89713 46.848 
L 392.92668 44.16 
L 393.076364 43.768708 
L 393.956307 41.472 
L 393.076364 41.472 
L 389.469091 41.472 
L 385.861818 41.472 
L 382.254545 41.472 
L 378.647273 41.472 
L 375.04 41.472 
L 371.432727 41.472 
L 367.825455 41.472 
L 364.218182 41.472 
L 360.610909 41.472 
L 357.003636 41.472 
L 353.396364 41.472 
L 349.789091 41.472 
L 346.181818 41.472 
L 342.574545 41.472 
L 338.967273 41.472 
L 335.36 41.472 
L 331.752727 41.472 
L 328.145455 41.472 
L 324.538182 41.472 
L 322.165776 41.472 
L 321.144121 44.16 
L 320.930909 44.720093 
L 320.121393 46.848 
L 319.097074 49.536 
L 318.070975 52.224 
L 317.323636 54.178495 
L 317.043332 54.912 
L 316.014547 57.6 
L 314.983987 60.288 
L 313.951651 62.976 
L 313.716364 63.587721 
L 312.918191 65.664 
L 311.883153 68.352 
L 310.846345 71.04 
L 310.109091 72.948285 
L 309.808001 73.728 
L 308.768467 76.416 
L 307.727169 79.104 
L 306.684105 81.792 
L 306.501818 82.261081 
L 305.63992 84.48 
L 304.594113 87.168 
L 303.546546 89.856 
L 302.894545 91.526391 
L 302.497501 92.544 
L 301.447166 95.232 
L 300.395077 97.92 
L 299.34123 100.608 
L 299.287273 100.745442 
L 298.286312 103.296 
L 297.229681 105.984 
L 296.171299 108.672 
L 295.68 109.917937 
L 295.111533 111.36 
L 294.05034 114.048 
L 292.987402 116.736 
L 292.072727 119.045387 
L 291.922808 119.424 
L 290.857033 122.112 
L 289.789518 124.8 
L 288.720261 127.488 
L 288.465455 128.127702 
L 287.649736 130.176 
L 286.577623 132.864 
L 285.503774 135.552 
L 284.858182 137.165655 
L 284.428421 138.24 
L 283.351689 140.928 
L 282.273226 143.616 
L 281.250909 146.160024 
L 281.193058 146.304 
L 280.111685 148.992 
L 279.028586 151.68 
L 277.943758 154.368 
L 277.643636 155.110694 
L 276.857579 157.056 
L 275.769821 159.744 
L 274.68034 162.432 
L 274.036364 164.018616 
L 273.589333 165.12 
L 272.496895 167.808 
L 271.402737 170.496 
L 270.429091 172.88431 
L 270.30691 173.184 
L 269.209766 175.872 
L 268.110909 178.56 
L 267.010337 181.248 
L 266.821818 181.707896 
L 265.908394 183.936 
L 264.804813 186.624 
L 263.699522 189.312 
L 263.214545 190.489932 
L 262.592732 192 
L 261.484403 194.688 
L 260.374368 197.376 
L 259.607273 199.230993 
L 259.262732 200.064 
L 258.14963 202.752 
L 257.034827 205.44 
L 256 207.931451 
L 255.918343 208.128 
L 254.800443 210.816 
L 253.680846 213.504 
L 252.559551 216.192 
L 252.392727 216.591491 
L 251.436787 218.88 
L 250.31237 221.568 
L 249.18626 224.256 
L 248.785455 225.211613 
L 248.058604 226.944 
L 246.929341 229.632 
L 245.798389 232.32 
L 245.178182 233.792256 
L 244.665833 235.008 
L 243.531698 237.696 
L 242.395878 240.384 
L 241.570909 242.333759 
L 241.258412 243.072 
L 240.119376 245.76 
L 238.97866 248.448 
L 237.963636 250.83645 
L 237.836274 251.136 
L 236.69231 253.824 
L 235.54667 256.512 
L 234.399351 259.2 
L 234.356364 259.300625 
L 233.250428 261.888 
L 232.099835 264.576 
L 230.947569 267.264 
L 230.749091 267.726572 
L 229.793657 269.952 
L 228.638083 272.64 
L 227.48084 275.328 
L 227.141818 276.114682 
L 226.321922 278.016 
L 225.161338 280.704 
L 223.999088 283.392 
L 223.534545 284.465249 
L 222.835143 286.08 
L 221.669518 288.768 
L 220.502232 291.456 
L 219.927273 292.77856 
L 219.333238 294.144 
L 218.162542 296.832 
L 216.990189 299.52 
L 216.32 301.054895 
L 215.816121 302.208 
L 214.640324 304.896 
L 213.462873 307.584 
z
" clip-path="url(#p74ca718cc5)" style="fill: #2e6e8e; fill-opacity: 0.75"/>
   </g>
   <g id="PathCollection_4">
    <path d="M 140.567273 307.584 
L 144.174545 307.584 
L 147.781818 307.584 
L 151.389091 307.584 
L 154.996364 307.584 
L 158.603636 307.584 
L 162.210909 307.584 
L 165.818182 307.584 
L 169.425455 307.584 
L 173.032727 307.584 
L 176.64 307.584 
L 180.247273 307.584 
L 183.854545 307.584 
L 187.461818 307.584 
L 191.069091 307.584 
L 194.676364 307.584 
L 198.283636 307.584 
L 201.890909 307.584 
L 205.498182 307.584 
L 209.105455 307.584 
L 212.712727 307.584 
L 213.462873 307.584 
L 214.640324 304.896 
L 215.816121 302.208 
L 216.32 301.054895 
L 216.990189 299.52 
L 218.162542 296.832 
L 219.333238 294.144 
L 219.927273 292.77856 
L 220.502232 291.456 
L 221.669518 288.768 
L 222.835143 286.08 
L 223.534545 284.465249 
L 223.999088 283.392 
L 225.161338 280.704 
L 226.321922 278.016 
L 227.141818 276.114682 
L 227.48084 275.328 
L 228.638083 272.64 
L 229.793657 269.952 
L 230.749091 267.726572 
L 230.947569 267.264 
L 232.099835 264.576 
L 233.250428 261.888 
L 234.356364 259.300625 
L 234.399351 259.2 
L 235.54667 256.512 
L 236.69231 253.824 
L 237.836274 251.136 
L 237.963636 250.83645 
L 238.97866 248.448 
L 240.119376 245.76 
L 241.258412 243.072 
L 241.570909 242.333759 
L 242.395878 240.384 
L 243.531698 237.696 
L 244.665833 235.008 
L 245.178182 233.792256 
L 245.798389 232.32 
L 246.929341 229.632 
L 248.058604 226.944 
L 248.785455 225.211613 
L 249.18626 224.256 
L 250.31237 221.568 
L 251.436787 218.88 
L 252.392727 216.591491 
L 252.559551 216.192 
L 253.680846 213.504 
L 254.800443 210.816 
L 255.918343 208.128 
L 256 207.931451 
L 257.034827 205.44 
L 258.14963 202.752 
L 259.262732 200.064 
L 259.607273 199.230993 
L 260.374368 197.376 
L 261.484403 194.688 
L 262.592732 192 
L 263.214545 190.489932 
L 263.699522 189.312 
L 264.804813 186.624 
L 265.908394 183.936 
L 266.821818 181.707896 
L 267.010337 181.248 
L 268.110909 178.56 
L 269.209766 175.872 
L 270.30691 173.184 
L 270.429091 172.88431 
L 271.402737 170.496 
L 272.496895 167.808 
L 273.589333 165.12 
L 274.036364 164.018616 
L 274.68034 162.432 
L 275.769821 159.744 
L 276.857579 157.056 
L 277.643636 155.110694 
L 277.943758 154.368 
L 279.028586 151.68 
L 280.111685 148.992 
L 281.193058 146.304 
L 281.250909 146.160024 
L 282.273226 143.616 
L 283.351689 140.928 
L 284.428421 138.24 
L 284.858182 137.165655 
L 285.503774 135.552 
L 286.577623 132.864 
L 287.649736 130.176 
L 288.465455 128.127702 
L 288.720261 127.488 
L 289.789518 124.8 
L 290.857033 122.112 
L 291.922808 119.424 
L 292.072727 119.045387 
L 292.987402 116.736 
L 294.05034 114.048 
L 295.111533 111.36 
L 295.68 109.917937 
L 296.171299 108.672 
L 297.229681 105.984 
L 298.286312 103.296 
L 299.287273 100.745442 
L 299.34123 100.608 
L 300.395077 97.92 
L 301.447166 95.232 
L 302.497501 92.544 
L 302.894545 91.526391 
L 303.546546 89.856 
L 304.594113 87.168 
L 305.63992 84.48 
L 306.501818 82.261081 
L 306.684105 81.792 
L 307.727169 79.104 
L 308.768467 76.416 
L 309.808001 73.728 
L 310.109091 72.948285 
L 310.846345 71.04 
L 311.883153 68.352 
L 312.918191 65.664 
L 313.716364 63.587721 
L 313.951651 62.976 
L 314.983987 60.288 
L 316.014547 57.6 
L 317.043332 54.912 
L 317.323636 54.178495 
L 318.070975 52.224 
L 319.097074 49.536 
L 320.121393 46.848 
L 320.930909 44.720093 
L 321.144121 44.16 
L 322.165776 41.472 
L 320.930909 41.472 
L 317.323636 41.472 
L 313.716364 41.472 
L 310.109091 41.472 
L 306.501818 41.472 
L 302.894545 41.472 
L 299.287273 41.472 
L 295.68 41.472 
L 292.072727 41.472 
L 288.465455 41.472 
L 284.858182 41.472 
L 281.250909 41.472 
L 277.643636 41.472 
L 274.036364 41.472 
L 270.429091 41.472 
L 266.821818 41.472 
L 263.214545 41.472 
L 259.607273 41.472 
L 256 41.472 
L 252.392727 41.472 
L 251.63337 41.472 
L 250.606501 44.16 
L 249.577632 46.848 
L 248.785455 48.91368 
L 248.546732 49.536 
L 247.513735 52.224 
L 246.478744 54.912 
L 245.441757 57.6 
L 245.178182 58.281995 
L 244.402652 60.288 
L 243.361515 62.976 
L 242.318389 65.664 
L 241.570909 67.586588 
L 241.273213 68.352 
L 240.225907 71.04 
L 239.176615 73.728 
L 238.125338 76.416 
L 237.963636 76.828745 
L 237.071873 79.104 
L 236.016391 81.792 
L 234.958929 84.48 
L 234.356364 86.00896 
L 233.899366 87.168 
L 232.837668 89.856 
L 231.773994 92.544 
L 230.749091 95.129243 
L 230.708332 95.232 
L 229.640391 97.92 
L 228.570479 100.608 
L 227.498596 103.296 
L 227.141818 104.189209 
L 226.424503 105.984 
L 225.348326 108.672 
L 224.270182 111.36 
L 223.534545 113.19088 
L 223.189944 114.048 
L 222.107472 116.736 
L 221.023038 119.424 
L 219.936641 122.112 
L 219.927273 122.135145 
L 218.84785 124.8 
L 217.757098 127.488 
L 216.664387 130.176 
L 216.32 131.021822 
L 215.569389 132.864 
L 214.472288 135.552 
L 213.373233 138.24 
L 212.712727 139.852752 
L 212.272015 140.928 
L 211.168535 143.616 
L 210.063105 146.304 
L 209.105455 148.628651 
L 208.955648 148.992 
L 207.845756 151.68 
L 206.73392 154.368 
L 205.620137 157.056 
L 205.498182 157.349899 
L 204.503869 159.744 
L 203.385594 162.432 
L 202.265376 165.12 
L 201.890909 166.017198 
L 201.142783 167.808 
L 200.018036 170.496 
L 198.891351 173.184 
L 198.283636 174.631611 
L 197.762406 175.872 
L 196.631154 178.56 
L 195.497968 181.248 
L 194.676364 183.193781 
L 194.362641 183.936 
L 193.224849 186.624 
L 192.085127 189.312 
L 191.069091 191.704335 
L 190.943386 192 
L 189.799018 194.688 
L 188.652725 197.376 
L 187.504503 200.064 
L 187.461818 200.163796 
L 186.353555 202.752 
L 185.200654 205.44 
L 184.045829 208.128 
L 183.854545 208.572649 
L 182.888348 210.816 
L 181.728803 213.504 
L 180.567337 216.192 
L 180.247273 216.931737 
L 179.40328 218.88 
L 178.237053 221.568 
L 177.068909 224.256 
L 176.64 225.241616 
L 175.898232 226.944 
L 174.725285 229.632 
L 173.550425 232.32 
L 173.032727 233.502831 
L 172.373078 235.008 
L 171.193372 237.696 
L 170.011756 240.384 
L 169.425455 241.715909 
L 168.827689 243.072 
L 167.641184 245.76 
L 166.452773 248.448 
L 165.818182 249.881365 
L 165.26193 251.136 
L 164.068586 253.824 
L 162.873338 256.512 
L 162.210909 257.999698 
L 161.675662 259.2 
L 160.475437 261.888 
L 159.273312 264.576 
L 158.603636 266.071391 
L 158.068742 267.264 
L 156.861595 269.952 
L 155.652549 272.64 
L 154.996364 274.096918 
L 154.441021 275.328 
L 153.226908 278.016 
L 152.0109 280.704 
L 151.389091 282.076733 
L 150.792346 283.392 
L 149.571223 286.08 
L 148.348209 288.768 
L 147.781818 290.011279 
L 147.122559 291.456 
L 145.894382 294.144 
L 144.664316 296.832 
L 144.174545 297.900987 
L 143.431496 299.52 
L 142.19622 302.208 
L 140.959058 304.896 
L 140.567273 305.74627 
L 139.71899 307.584 
z
" clip-path="url(#p74ca718cc5)" style="fill: #21918c; fill-opacity: 0.75"/>
   </g>
   <g id="PathCollection_5">
    <path d="M 64.814545 307.584 
L 68.421818 307.584 
L 72.029091 307.584 
L 75.636364 307.584 
L 79.243636 307.584 
L 82.850909 307.584 
L 86.458182 307.584 
L 90.065455 307.584 
L 93.672727 307.584 
L 97.28 307.584 
L 100.887273 307.584 
L 104.494545 307.584 
L 108.101818 307.584 
L 111.709091 307.584 
L 115.316364 307.584 
L 118.923636 307.584 
L 122.530909 307.584 
L 126.138182 307.584 
L 129.745455 307.584 
L 133.352727 307.584 
L 136.96 307.584 
L 139.71899 307.584 
L 140.567273 305.74627 
L 140.959058 304.896 
L 142.19622 302.208 
L 143.431496 299.52 
L 144.174545 297.900987 
L 144.664316 296.832 
L 145.894382 294.144 
L 147.122559 291.456 
L 147.781818 290.011279 
L 148.348209 288.768 
L 149.571223 286.08 
L 150.792346 283.392 
L 151.389091 282.076733 
L 152.0109 280.704 
L 153.226908 278.016 
L 154.441021 275.328 
L 154.996364 274.096918 
L 155.652549 272.64 
L 156.861595 269.952 
L 158.068742 267.264 
L 158.603636 266.071391 
L 159.273312 264.576 
L 160.475437 261.888 
L 161.675662 259.2 
L 162.210909 257.999698 
L 162.873338 256.512 
L 164.068586 253.824 
L 165.26193 251.136 
L 165.818182 249.881365 
L 166.452773 248.448 
L 167.641184 245.76 
L 168.827689 243.072 
L 169.425455 241.715909 
L 170.011756 240.384 
L 171.193372 237.696 
L 172.373078 235.008 
L 173.032727 233.502831 
L 173.550425 232.32 
L 174.725285 229.632 
L 175.898232 226.944 
L 176.64 225.241616 
L 177.068909 224.256 
L 178.237053 221.568 
L 179.40328 218.88 
L 180.247273 216.931737 
L 180.567337 216.192 
L 181.728803 213.504 
L 182.888348 210.816 
L 183.854545 208.572649 
L 184.045829 208.128 
L 185.200654 205.44 
L 186.353555 202.752 
L 187.461818 200.163796 
L 187.504503 200.064 
L 188.652725 197.376 
L 189.799018 194.688 
L 190.943386 192 
L 191.069091 191.704335 
L 192.085127 189.312 
L 193.224849 186.624 
L 194.362641 183.936 
L 194.676364 183.193781 
L 195.497968 181.248 
L 196.631154 178.56 
L 197.762406 175.872 
L 198.283636 174.631611 
L 198.891351 173.184 
L 200.018036 170.496 
L 201.142783 167.808 
L 201.890909 166.017198 
L 202.265376 165.12 
L 203.385594 162.432 
L 204.503869 159.744 
L 205.498182 157.349899 
L 205.620137 157.056 
L 206.73392 154.368 
L 207.845756 151.68 
L 208.955648 148.992 
L 209.105455 148.628651 
L 210.063105 146.304 
L 211.168535 143.616 
L 212.272015 140.928 
L 212.712727 139.852752 
L 213.373233 138.24 
L 214.472288 135.552 
L 215.569389 132.864 
L 216.32 131.021822 
L 216.664387 130.176 
L 217.757098 127.488 
L 218.84785 124.8 
L 219.927273 122.135145 
L 219.936641 122.112 
L 221.023038 119.424 
L 222.107472 116.736 
L 223.189944 114.048 
L 223.534545 113.19088 
L 224.270182 111.36 
L 225.348326 108.672 
L 226.424503 105.984 
L 227.141818 104.189209 
L 227.498596 103.296 
L 228.570479 100.608 
L 229.640391 97.92 
L 230.708332 95.232 
L 230.749091 95.129243 
L 231.773994 92.544 
L 232.837668 89.856 
L 233.899366 87.168 
L 234.356364 86.00896 
L 234.958929 84.48 
L 236.016391 81.792 
L 237.071873 79.104 
L 237.963636 76.828745 
L 238.125338 76.416 
L 239.176615 73.728 
L 240.225907 71.04 
L 241.273213 68.352 
L 241.570909 67.586588 
L 242.318389 65.664 
L 243.361515 62.976 
L 244.402652 60.288 
L 245.178182 58.281995 
L 245.441757 57.6 
L 246.478744 54.912 
L 247.513735 52.224 
L 248.546732 49.536 
L 248.785455 48.91368 
L 249.577632 46.848 
L 250.606501 44.16 
L 251.63337 41.472 
L 248.785455 41.472 
L 245.178182 41.472 
L 241.570909 41.472 
L 237.963636 41.472 
L 234.356364 41.472 
L 230.749091 41.472 
L 227.141818 41.472 
L 223.534545 41.472 
L 219.927273 41.472 
L 216.32 41.472 
L 212.712727 41.472 
L 209.105455 41.472 
L 205.498182 41.472 
L 201.890909 41.472 
L 198.283636 41.472 
L 194.676364 41.472 
L 191.069091 41.472 
L 187.461818 41.472 
L 183.854545 41.472 
L 180.9587 41.472 
L 180.247273 43.301541 
L 179.913066 44.16 
L 178.864383 46.848 
L 177.813456 49.536 
L 176.760284 52.224 
L 176.64 52.530363 
L 175.703782 54.912 
L 174.644902 57.6 
L 173.583782 60.288 
L 173.032727 61.681028 
L 172.519809 62.976 
L 171.452941 65.664 
L 170.383839 68.352 
L 169.425455 70.756622 
L 169.312362 71.04 
L 168.23747 73.728 
L 167.16035 76.416 
L 166.081 79.104 
L 165.818182 79.757222 
L 164.998382 81.792 
L 163.913206 84.48 
L 162.825806 87.168 
L 162.210909 88.684971 
L 161.735561 89.856 
L 160.642293 92.544 
L 159.546805 95.232 
L 158.603636 97.541615 
L 158.448889 97.92 
L 157.347488 100.608 
L 156.243873 103.296 
L 155.138043 105.984 
L 154.996364 106.327744 
L 154.028666 108.672 
L 152.916884 111.36 
L 151.802891 114.048 
L 151.389091 115.044602 
L 150.685694 116.736 
L 149.565704 119.424 
L 148.443508 122.112 
L 147.781818 123.693952 
L 147.318432 124.8 
L 146.190192 127.488 
L 145.059751 130.176 
L 144.174545 132.276863 
L 143.926738 132.864 
L 142.790204 135.552 
L 141.651474 138.24 
L 140.567273 140.794378 
L 140.510459 140.928 
L 139.365588 143.616 
L 138.218525 146.304 
L 137.069268 148.992 
L 136.96 149.24713 
L 135.916186 151.68 
L 134.760745 154.368 
L 133.603113 157.056 
L 133.352727 157.636399 
L 132.441834 159.744 
L 131.277968 162.432 
L 130.111916 165.12 
L 129.745455 165.963333 
L 128.942362 167.808 
L 127.770024 170.496 
L 126.595504 173.184 
L 126.138182 174.228848 
L 125.417593 175.872 
L 124.236735 178.56 
L 123.053699 181.248 
L 122.530909 182.433835 
L 121.867345 183.936 
L 120.677917 186.624 
L 119.486315 189.312 
L 118.923636 190.579159 
L 118.291428 192 
L 117.093381 194.688 
L 115.893162 197.376 
L 115.316364 198.665657 
L 114.689648 200.064 
L 113.482929 202.752 
L 112.274042 205.44 
L 111.709091 206.694144 
L 111.061801 208.128 
L 109.846358 210.816 
L 108.628751 213.504 
L 108.101818 214.665406 
L 107.40768 216.192 
L 106.183459 218.88 
L 104.957078 221.568 
L 104.494545 222.580209 
L 103.727068 224.256 
L 102.494016 226.944 
L 101.258804 229.632 
L 100.887273 230.43929 
L 100.019744 232.32 
L 98.777804 235.008 
L 97.533707 237.696 
L 97.28 238.243368 
L 96.285479 240.384 
L 95.034593 243.072 
L 93.781555 245.76 
L 93.672727 245.993134 
L 92.524036 248.448 
L 91.264148 251.136 
L 90.065455 253.689131 
L 90.001978 253.824 
L 88.735174 256.512 
L 87.466224 259.2 
L 86.458182 261.331885 
L 86.19457 261.888 
L 84.918641 264.576 
L 83.64057 267.264 
L 82.850909 268.92226 
L 82.359297 269.952 
L 81.074182 272.64 
L 79.786927 275.328 
L 79.243636 276.460865 
L 78.495894 278.016 
L 77.201532 280.704 
L 75.905031 283.392 
L 75.636364 283.94829 
L 74.604092 286.08 
L 73.300419 288.768 
L 72.029091 291.385049 
L 71.99453 291.456 
L 70.683613 294.144 
L 69.370563 296.832 
L 68.421818 298.771304 
L 68.054531 299.52 
L 66.73417 302.208 
L 65.41168 304.896 
L 64.814545 306.108041 
L 64.085343 307.584 
z
" clip-path="url(#p74ca718cc5)" style="fill: #2db27d; fill-opacity: 0.75"/>
   </g>
   <g id="PathCollection_6">
    <path d="M 61.207273 307.584 
L 64.085343 307.584 
L 64.814545 306.108041 
L 65.41168 304.896 
L 66.73417 302.208 
L 68.054531 299.52 
L 68.421818 298.771304 
L 69.370563 296.832 
L 70.683613 294.144 
L 71.99453 291.456 
L 72.029091 291.385049 
L 73.300419 288.768 
L 74.604092 286.08 
L 75.636364 283.94829 
L 75.905031 283.392 
L 77.201532 280.704 
L 78.495894 278.016 
L 79.243636 276.460865 
L 79.786927 275.328 
L 81.074182 272.64 
L 82.359297 269.952 
L 82.850909 268.92226 
L 83.64057 267.264 
L 84.918641 264.576 
L 86.19457 261.888 
L 86.458182 261.331885 
L 87.466224 259.2 
L 88.735174 256.512 
L 90.001978 253.824 
L 90.065455 253.689131 
L 91.264148 251.136 
L 92.524036 248.448 
L 93.672727 245.993134 
L 93.781555 245.76 
L 95.034593 243.072 
L 96.285479 240.384 
L 97.28 238.243368 
L 97.533707 237.696 
L 98.777804 235.008 
L 100.019744 232.32 
L 100.887273 230.43929 
L 101.258804 229.632 
L 102.494016 226.944 
L 103.727068 224.256 
L 104.494545 222.580209 
L 104.957078 221.568 
L 106.183459 218.88 
L 107.40768 216.192 
L 108.101818 214.665406 
L 108.628751 213.504 
L 109.846358 210.816 
L 111.061801 208.128 
L 111.709091 206.694144 
L 112.274042 205.44 
L 113.482929 202.752 
L 114.689648 200.064 
L 115.316364 198.665657 
L 115.893162 197.376 
L 117.093381 194.688 
L 118.291428 192 
L 118.923636 190.579159 
L 119.486315 189.312 
L 120.677917 186.624 
L 121.867345 183.936 
L 122.530909 182.433835 
L 123.053699 181.248 
L 124.236735 178.56 
L 125.417593 175.872 
L 126.138182 174.228848 
L 126.595504 173.184 
L 127.770024 170.496 
L 128.942362 167.808 
L 129.745455 165.963333 
L 130.111916 165.12 
L 131.277968 162.432 
L 132.441834 159.744 
L 133.352727 157.636399 
L 133.603113 157.056 
L 134.760745 154.368 
L 135.916186 151.68 
L 136.96 149.24713 
L 137.069268 148.992 
L 138.218525 146.304 
L 139.365588 143.616 
L 140.510459 140.928 
L 140.567273 140.794378 
L 141.651474 138.24 
L 142.790204 135.552 
L 143.926738 132.864 
L 144.174545 132.276863 
L 145.059751 130.176 
L 146.190192 127.488 
L 147.318432 124.8 
L 147.781818 123.693952 
L 148.443508 122.112 
L 149.565704 119.424 
L 150.685694 116.736 
L 151.389091 115.044602 
L 151.802891 114.048 
L 152.916884 111.36 
L 154.028666 108.672 
L 154.996364 106.327744 
L 155.138043 105.984 
L 156.243873 103.296 
L 157.347488 100.608 
L 158.448889 97.92 
L 158.603636 97.541615 
L 159.546805 95.232 
L 160.642293 92.544 
L 161.735561 89.856 
L 162.210909 88.684971 
L 162.825806 87.168 
L 163.913206 84.48 
L 164.998382 81.792 
L 165.818182 79.757222 
L 166.081 79.104 
L 167.16035 76.416 
L 168.23747 73.728 
L 169.312362 71.04 
L 169.425455 70.756622 
L 170.383839 68.352 
L 171.452941 65.664 
L 172.519809 62.976 
L 173.032727 61.681028 
L 173.583782 60.288 
L 174.644902 57.6 
L 175.703782 54.912 
L 176.64 52.530363 
L 176.760284 52.224 
L 177.813456 49.536 
L 178.864383 46.848 
L 179.913066 44.16 
L 180.247273 43.301541 
L 180.9587 41.472 
L 180.247273 41.472 
L 176.64 41.472 
L 173.032727 41.472 
L 169.425455 41.472 
L 165.818182 41.472 
L 162.210909 41.472 
L 158.603636 41.472 
L 154.996364 41.472 
L 151.389091 41.472 
L 147.781818 41.472 
L 144.174545 41.472 
L 140.567273 41.472 
L 136.96 41.472 
L 133.352727 41.472 
L 129.745455 41.472 
L 126.138182 41.472 
L 122.530909 41.472 
L 118.923636 41.472 
L 115.316364 41.472 
L 111.709091 41.472 
L 108.68549 41.472 
L 108.101818 42.925309 
L 107.604875 44.16 
L 106.520427 46.848 
L 105.433446 49.536 
L 104.494545 51.852399 
L 104.343592 52.224 
L 103.249082 54.912 
L 102.152046 57.6 
L 101.052484 60.288 
L 100.887273 60.690941 
L 99.948243 62.976 
L 98.841101 65.664 
L 97.731439 68.352 
L 97.28 69.443057 
L 96.617711 71.04 
L 95.500412 73.728 
L 94.380597 76.416 
L 93.672727 78.111361 
L 93.257283 79.104 
L 92.129772 81.792 
L 90.999753 84.48 
L 90.065455 86.697514 
L 89.866745 87.168 
L 88.728969 89.856 
L 87.588689 92.544 
L 86.458182 95.203127 
L 86.445876 95.232 
L 85.297778 97.92 
L 84.147183 100.608 
L 82.994089 103.296 
L 82.850909 103.62906 
L 81.835971 105.984 
L 80.675002 108.672 
L 79.51154 111.36 
L 79.243636 111.977651 
L 78.343307 114.048 
L 77.171905 116.736 
L 75.998016 119.424 
L 75.636364 120.250406 
L 74.819539 122.112 
L 73.637645 124.8 
L 72.453268 127.488 
L 72.029091 128.448723 
L 71.26441 130.176 
L 70.071962 132.864 
L 68.877036 135.552 
L 68.421818 136.573955 
L 67.677657 138.24 
L 66.474592 140.928 
L 65.269054 143.616 
L 64.814545 144.627409 
L 64.059006 146.304 
L 62.845259 148.992 
L 61.629044 151.68 
L 61.207273 152.610352 
L 60.408174 154.368 
L 59.18368 157.056 
L 57.956723 159.744 
L 57.6 160.524004 
L 57.6 162.432 
L 57.6 165.12 
L 57.6 167.808 
L 57.6 170.496 
L 57.6 173.184 
L 57.6 175.872 
L 57.6 178.56 
L 57.6 181.248 
L 57.6 183.936 
L 57.6 186.624 
L 57.6 189.312 
L 57.6 192 
L 57.6 194.688 
L 57.6 197.376 
L 57.6 200.064 
L 57.6 202.752 
L 57.6 205.44 
L 57.6 208.128 
L 57.6 210.816 
L 57.6 213.504 
L 57.6 216.192 
L 57.6 218.88 
L 57.6 221.568 
L 57.6 224.256 
L 57.6 226.944 
L 57.6 229.632 
L 57.6 232.32 
L 57.6 235.008 
L 57.6 237.696 
L 57.6 240.384 
L 57.6 243.072 
L 57.6 245.76 
L 57.6 248.448 
L 57.6 251.136 
L 57.6 253.824 
L 57.6 256.512 
L 57.6 259.2 
L 57.6 261.888 
L 57.6 264.576 
L 57.6 267.264 
L 57.6 269.952 
L 57.6 272.64 
L 57.6 275.328 
L 57.6 278.016 
L 57.6 280.704 
L 57.6 283.392 
L 57.6 286.08 
L 57.6 288.768 
L 57.6 291.456 
L 57.6 294.144 
L 57.6 296.832 
L 57.6 299.52 
L 57.6 302.208 
L 57.6 304.896 
L 57.6 307.584 
z
" clip-path="url(#p74ca718cc5)" style="fill: #73d056; fill-opacity: 0.75"/>
   </g>
   <g id="PathCollection_7">
    <path d="M 57.956723 159.744 
L 59.18368 157.056 
L 60.408174 154.368 
L 61.207273 152.610352 
L 61.629044 151.68 
L 62.845259 148.992 
L 64.059006 146.304 
L 64.814545 144.627409 
L 65.269054 143.616 
L 66.474592 140.928 
L 67.677657 138.24 
L 68.421818 136.573955 
L 68.877036 135.552 
L 70.071962 132.864 
L 71.26441 130.176 
L 72.029091 128.448723 
L 72.453268 127.488 
L 73.637645 124.8 
L 74.819539 122.112 
L 75.636364 120.250406 
L 75.998016 119.424 
L 77.171905 116.736 
L 78.343307 114.048 
L 79.243636 111.977651 
L 79.51154 111.36 
L 80.675002 108.672 
L 81.835971 105.984 
L 82.850909 103.62906 
L 82.994089 103.296 
L 84.147183 100.608 
L 85.297778 97.92 
L 86.445876 95.232 
L 86.458182 95.203127 
L 87.588689 92.544 
L 88.728969 89.856 
L 89.866745 87.168 
L 90.065455 86.697514 
L 90.999753 84.48 
L 92.129772 81.792 
L 93.257283 79.104 
L 93.672727 78.111361 
L 94.380597 76.416 
L 95.500412 73.728 
L 96.617711 71.04 
L 97.28 69.443057 
L 97.731439 68.352 
L 98.841101 65.664 
L 99.948243 62.976 
L 100.887273 60.690941 
L 101.052484 60.288 
L 102.152046 57.6 
L 103.249082 54.912 
L 104.343592 52.224 
L 104.494545 51.852399 
L 105.433446 49.536 
L 106.520427 46.848 
L 107.604875 44.16 
L 108.101818 42.925309 
L 108.68549 41.472 
L 108.101818 41.472 
L 104.494545 41.472 
L 100.887273 41.472 
L 97.28 41.472 
L 93.672727 41.472 
L 90.065455 41.472 
L 86.458182 41.472 
L 82.850909 41.472 
L 79.243636 41.472 
L 75.636364 41.472 
L 72.029091 41.472 
L 68.421818 41.472 
L 64.814545 41.472 
L 61.207273 41.472 
L 57.6 41.472 
L 57.6 44.16 
L 57.6 46.848 
L 57.6 49.536 
L 57.6 52.224 
L 57.6 54.912 
L 57.6 57.6 
L 57.6 60.288 
L 57.6 62.976 
L 57.6 65.664 
L 57.6 68.352 
L 57.6 71.04 
L 57.6 73.728 
L 57.6 76.416 
L 57.6 79.104 
L 57.6 81.792 
L 57.6 84.48 
L 57.6 87.168 
L 57.6 89.856 
L 57.6 92.544 
L 57.6 95.232 
L 57.6 97.92 
L 57.6 100.608 
L 57.6 103.296 
L 57.6 105.984 
L 57.6 108.672 
L 57.6 111.36 
L 57.6 114.048 
L 57.6 116.736 
L 57.6 119.424 
L 57.6 122.112 
L 57.6 124.8 
L 57.6 127.488 
L 57.6 130.176 
L 57.6 132.864 
L 57.6 135.552 
L 57.6 138.24 
L 57.6 140.928 
L 57.6 143.616 
L 57.6 146.304 
L 57.6 148.992 
L 57.6 151.68 
L 57.6 154.368 
L 57.6 157.056 
L 57.6 159.744 
L 57.6 160.524004 
z
" clip-path="url(#p74ca718cc5)" style="fill: #d0e11c; fill-opacity: 0.75"/>
   </g>
   <g id="matplotlib.axis_1">
    <g id="xtick_1">
     <g id="line2d_1">
      <defs>
       <path id="md316960779" d="M 0 0 
L 0 3.5 
" style="stroke: #000000; stroke-width: 0.8"/>
      </defs>
      <g>
       <use xlink:href="#md316960779" x="80.828777" y="307.584" style="stroke: #000000; stroke-width: 0.8"/>
      </g>
     </g>
     <g id="text_1">
      <!-- 10 -->
      <g transform="translate(74.466277 322.182437) scale(0.1 -0.1)">
       <defs>
        <path id="DejaVuSans-31" d="M 794 531 
L 1825 531 
L 1825 4091 
L 703 3866 
L 703 4441 
L 1819 4666 
L 2450 4666 
L 2450 531 
L 3481 531 
L 3481 0 
L 794 0 
L 794 531 
z
" transform="scale(0.015625)"/>
        <path id="DejaVuSans-30" d="M 2034 4250 
Q 1547 4250 1301 3770 
Q 1056 3291 1056 2328 
Q 1056 1369 1301 889 
Q 1547 409 2034 409 
Q 2525 409 2770 889 
Q 3016 1369 3016 2328 
Q 3016 3291 2770 3770 
Q 2525 4250 2034 4250 
z
M 2034 4750 
Q 2819 4750 3233 4129 
Q 3647 3509 3647 2328 
Q 3647 1150 3233 529 
Q 2819 -91 2034 -91 
Q 1250 -91 836 529 
Q 422 1150 422 2328 
Q 422 3509 836 4129 
Q 1250 4750 2034 4750 
z
" transform="scale(0.015625)"/>
       </defs>
       <use xlink:href="#DejaVuSans-31"/>
       <use xlink:href="#DejaVuSans-30" x="63.623047"/>
      </g>
     </g>
    </g>
    <g id="xtick_2">
     <g id="line2d_2">
      <g>
       <use xlink:href="#md316960779" x="122.391862" y="307.584" style="stroke: #000000; stroke-width: 0.8"/>
      </g>
     </g>
     <g id="text_2">
      <!-- 15 -->
      <g transform="translate(116.029362 322.182437) scale(0.1 -0.1)">
       <defs>
        <path id="DejaVuSans-35" d="M 691 4666 
L 3169 4666 
L 3169 4134 
L 1269 4134 
L 1269 2991 
Q 1406 3038 1543 3061 
Q 1681 3084 1819 3084 
Q 2600 3084 3056 2656 
Q 3513 2228 3513 1497 
Q 3513 744 3044 326 
Q 2575 -91 1722 -91 
Q 1428 -91 1123 -41 
Q 819 9 494 109 
L 494 744 
Q 775 591 1075 516 
Q 1375 441 1709 441 
Q 2250 441 2565 725 
Q 2881 1009 2881 1497 
Q 2881 1984 2565 2268 
Q 2250 2553 1709 2553 
Q 1456 2553 1204 2497 
Q 953 2441 691 2322 
L 691 4666 
z
" transform="scale(0.015625)"/>
       </defs>
       <use xlink:href="#DejaVuSans-31"/>
       <use xlink:href="#DejaVuSans-35" x="63.623047"/>
      </g>
     </g>
    </g>
    <g id="xtick_3">
     <g id="line2d_3">
      <g>
       <use xlink:href="#md316960779" x="163.954947" y="307.584" style="stroke: #000000; stroke-width: 0.8"/>
      </g>
     </g>
     <g id="text_3">
      <!-- 20 -->
      <g transform="translate(157.592447 322.182437) scale(0.1 -0.1)">
       <defs>
        <path id="DejaVuSans-32" d="M 1228 531 
L 3431 531 
L 3431 0 
L 469 0 
L 469 531 
Q 828 903 1448 1529 
Q 2069 2156 2228 2338 
Q 2531 2678 2651 2914 
Q 2772 3150 2772 3378 
Q 2772 3750 2511 3984 
Q 2250 4219 1831 4219 
Q 1534 4219 1204 4116 
Q 875 4013 500 3803 
L 500 4441 
Q 881 4594 1212 4672 
Q 1544 4750 1819 4750 
Q 2544 4750 2975 4387 
Q 3406 4025 3406 3419 
Q 3406 3131 3298 2873 
Q 3191 2616 2906 2266 
Q 2828 2175 2409 1742 
Q 1991 1309 1228 531 
z
" transform="scale(0.015625)"/>
       </defs>
       <use xlink:href="#DejaVuSans-32"/>
       <use xlink:href="#DejaVuSans-30" x="63.623047"/>
      </g>
     </g>
    </g>
    <g id="xtick_4">
     <g id="line2d_4">
      <g>
       <use xlink:href="#md316960779" x="205.518031" y="307.584" style="stroke: #000000; stroke-width: 0.8"/>
      </g>
     </g>
     <g id="text_4">
      <!-- 25 -->
      <g transform="translate(199.155531 322.182437) scale(0.1 -0.1)">
       <use xlink:href="#DejaVuSans-32"/>
       <use xlink:href="#DejaVuSans-35" x="63.623047"/>
      </g>
     </g>
    </g>
    <g id="xtick_5">
     <g id="line2d_5">
      <g>
       <use xlink:href="#md316960779" x="247.081116" y="307.584" style="stroke: #000000; stroke-width: 0.8"/>
      </g>
     </g>
     <g id="text_5">
      <!-- 30 -->
      <g transform="translate(240.718616 322.182437) scale(0.1 -0.1)">
       <defs>
        <path id="DejaVuSans-33" d="M 2597 2516 
Q 3050 2419 3304 2112 
Q 3559 1806 3559 1356 
Q 3559 666 3084 287 
Q 2609 -91 1734 -91 
Q 1441 -91 1130 -33 
Q 819 25 488 141 
L 488 750 
Q 750 597 1062 519 
Q 1375 441 1716 441 
Q 2309 441 2620 675 
Q 2931 909 2931 1356 
Q 2931 1769 2642 2001 
Q 2353 2234 1838 2234 
L 1294 2234 
L 1294 2753 
L 1863 2753 
Q 2328 2753 2575 2939 
Q 2822 3125 2822 3475 
Q 2822 3834 2567 4026 
Q 2313 4219 1838 4219 
Q 1578 4219 1281 4162 
Q 984 4106 628 3988 
L 628 4550 
Q 988 4650 1302 4700 
Q 1616 4750 1894 4750 
Q 2613 4750 3031 4423 
Q 3450 4097 3450 3541 
Q 3450 3153 3228 2886 
Q 3006 2619 2597 2516 
z
" transform="scale(0.015625)"/>
       </defs>
       <use xlink:href="#DejaVuSans-33"/>
       <use xlink:href="#DejaVuSans-30" x="63.623047"/>
      </g>
     </g>
    </g>
    <g id="xtick_6">
     <g id="line2d_6">
      <g>
       <use xlink:href="#md316960779" x="288.644201" y="307.584" style="stroke: #000000; stroke-width: 0.8"/>
      </g>
     </g>
     <g id="text_6">
      <!-- 35 -->
      <g transform="translate(282.281701 322.182437) scale(0.1 -0.1)">
       <use xlink:href="#DejaVuSans-33"/>
       <use xlink:href="#DejaVuSans-35" x="63.623047"/>
      </g>
     </g>
    </g>
    <g id="xtick_7">
     <g id="line2d_7">
      <g>
       <use xlink:href="#md316960779" x="330.207286" y="307.584" style="stroke: #000000; stroke-width: 0.8"/>
      </g>
     </g>
     <g id="text_7">
      <!-- 40 -->
      <g transform="translate(323.844786 322.182437) scale(0.1 -0.1)">
       <defs>
        <path id="DejaVuSans-34" d="M 2419 4116 
L 825 1625 
L 2419 1625 
L 2419 4116 
z
M 2253 4666 
L 3047 4666 
L 3047 1625 
L 3713 1625 
L 3713 1100 
L 3047 1100 
L 3047 0 
L 2419 0 
L 2419 1100 
L 313 1100 
L 313 1709 
L 2253 4666 
z
" transform="scale(0.015625)"/>
       </defs>
       <use xlink:href="#DejaVuSans-34"/>
       <use xlink:href="#DejaVuSans-30" x="63.623047"/>
      </g>
     </g>
    </g>
    <g id="xtick_8">
     <g id="line2d_8">
      <g>
       <use xlink:href="#md316960779" x="371.770371" y="307.584" style="stroke: #000000; stroke-width: 0.8"/>
      </g>
     </g>
     <g id="text_8">
      <!-- 45 -->
      <g transform="translate(365.407871 322.182437) scale(0.1 -0.1)">
       <use xlink:href="#DejaVuSans-34"/>
       <use xlink:href="#DejaVuSans-35" x="63.623047"/>
      </g>
     </g>
    </g>
    <g id="xtick_9">
     <g id="line2d_9">
      <g>
       <use xlink:href="#md316960779" x="413.333455" y="307.584" style="stroke: #000000; stroke-width: 0.8"/>
      </g>
     </g>
     <g id="text_9">
      <!-- 50 -->
      <g transform="translate(406.970955 322.182437) scale(0.1 -0.1)">
       <use xlink:href="#DejaVuSans-35"/>
       <use xlink:href="#DejaVuSans-30" x="63.623047"/>
      </g>
     </g>
    </g>
    <g id="text_10">
     <!-- PM2.5 -->
     <g transform="translate(220.879531 335.860562) scale(0.1 -0.1)">
      <defs>
       <path id="DejaVuSans-50" d="M 1259 4147 
L 1259 2394 
L 2053 2394 
Q 2494 2394 2734 2622 
Q 2975 2850 2975 3272 
Q 2975 3691 2734 3919 
Q 2494 4147 2053 4147 
L 1259 4147 
z
M 628 4666 
L 2053 4666 
Q 2838 4666 3239 4311 
Q 3641 3956 3641 3272 
Q 3641 2581 3239 2228 
Q 2838 1875 2053 1875 
L 1259 1875 
L 1259 0 
L 628 0 
L 628 4666 
z
" transform="scale(0.015625)"/>
       <path id="DejaVuSans-4d" d="M 628 4666 
L 1569 4666 
L 2759 1491 
L 3956 4666 
L 4897 4666 
L 4897 0 
L 4281 0 
L 4281 4097 
L 3078 897 
L 2444 897 
L 1241 4097 
L 1241 0 
L 628 0 
L 628 4666 
z
" transform="scale(0.015625)"/>
       <path id="DejaVuSans-2e" d="M 684 794 
L 1344 794 
L 1344 0 
L 684 0 
L 684 794 
z
" transform="scale(0.015625)"/>
      </defs>
      <use xlink:href="#DejaVuSans-50"/>
      <use xlink:href="#DejaVuSans-4d" x="60.302734"/>
      <use xlink:href="#DejaVuSans-32" x="146.582031"/>
      <use xlink:href="#DejaVuSans-2e" x="210.205078"/>
      <use xlink:href="#DejaVuSans-35" x="241.992188"/>
     </g>
    </g>
   </g>
   <g id="matplotlib.axis_2">
    <g id="ytick_1">
     <g id="line2d_10">
      <defs>
       <path id="m0aa18a0956" d="M 0 0 
L -3.5 0 
" style="stroke: #000000; stroke-width: 0.8"/>
      </defs>
      <g>
       <use xlink:href="#m0aa18a0956" x="57.6" y="265.848463" style="stroke: #000000; stroke-width: 0.8"/>
      </g>
     </g>
     <g id="text_11">
      <!-- 5 -->
      <g transform="translate(44.2375 269.647682) scale(0.1 -0.1)">
       <use xlink:href="#DejaVuSans-35"/>
      </g>
     </g>
    </g>
    <g id="ytick_2">
     <g id="line2d_11">
      <g>
       <use xlink:href="#m0aa18a0956" x="57.6" y="212.495631" style="stroke: #000000; stroke-width: 0.8"/>
      </g>
     </g>
     <g id="text_12">
      <!-- 10 -->
      <g transform="translate(37.875 216.29485) scale(0.1 -0.1)">
       <use xlink:href="#DejaVuSans-31"/>
       <use xlink:href="#DejaVuSans-30" x="63.623047"/>
      </g>
     </g>
    </g>
    <g id="ytick_3">
     <g id="line2d_12">
      <g>
       <use xlink:href="#m0aa18a0956" x="57.6" y="159.142799" style="stroke: #000000; stroke-width: 0.8"/>
      </g>
     </g>
     <g id="text_13">
      <!-- 15 -->
      <g transform="translate(37.875 162.942017) scale(0.1 -0.1)">
       <use xlink:href="#DejaVuSans-31"/>
       <use xlink:href="#DejaVuSans-35" x="63.623047"/>
      </g>
     </g>
    </g>
    <g id="ytick_4">
     <g id="line2d_13">
      <g>
       <use xlink:href="#m0aa18a0956" x="57.6" y="105.789966" style="stroke: #000000; stroke-width: 0.8"/>
      </g>
     </g>
     <g id="text_14">
      <!-- 20 -->
      <g transform="translate(37.875 109.589185) scale(0.1 -0.1)">
       <use xlink:href="#DejaVuSans-32"/>
       <use xlink:href="#DejaVuSans-30" x="63.623047"/>
      </g>
     </g>
    </g>
    <g id="ytick_5">
     <g id="line2d_14">
      <g>
       <use xlink:href="#m0aa18a0956" x="57.6" y="52.437134" style="stroke: #000000; stroke-width: 0.8"/>
      </g>
     </g>
     <g id="text_15">
      <!-- 25 -->
      <g transform="translate(37.875 56.236353) scale(0.1 -0.1)">
       <use xlink:href="#DejaVuSans-32"/>
       <use xlink:href="#DejaVuSans-35" x="63.623047"/>
      </g>
     </g>
    </g>
    <g id="text_16">
     <!-- Beef Consumption -->
     <g transform="translate(31.795312 220.575656) rotate(-90) scale(0.1 -0.1)">
      <defs>
       <path id="DejaVuSans-42" d="M 1259 2228 
L 1259 519 
L 2272 519 
Q 2781 519 3026 730 
Q 3272 941 3272 1375 
Q 3272 1813 3026 2020 
Q 2781 2228 2272 2228 
L 1259 2228 
z
M 1259 4147 
L 1259 2741 
L 2194 2741 
Q 2656 2741 2882 2914 
Q 3109 3088 3109 3444 
Q 3109 3797 2882 3972 
Q 2656 4147 2194 4147 
L 1259 4147 
z
M 628 4666 
L 2241 4666 
Q 2963 4666 3353 4366 
Q 3744 4066 3744 3513 
Q 3744 3084 3544 2831 
Q 3344 2578 2956 2516 
Q 3422 2416 3680 2098 
Q 3938 1781 3938 1306 
Q 3938 681 3513 340 
Q 3088 0 2303 0 
L 628 0 
L 628 4666 
z
" transform="scale(0.015625)"/>
       <path id="DejaVuSans-65" d="M 3597 1894 
L 3597 1613 
L 953 1613 
Q 991 1019 1311 708 
Q 1631 397 2203 397 
Q 2534 397 2845 478 
Q 3156 559 3463 722 
L 3463 178 
Q 3153 47 2828 -22 
Q 2503 -91 2169 -91 
Q 1331 -91 842 396 
Q 353 884 353 1716 
Q 353 2575 817 3079 
Q 1281 3584 2069 3584 
Q 2775 3584 3186 3129 
Q 3597 2675 3597 1894 
z
M 3022 2063 
Q 3016 2534 2758 2815 
Q 2500 3097 2075 3097 
Q 1594 3097 1305 2825 
Q 1016 2553 972 2059 
L 3022 2063 
z
" transform="scale(0.015625)"/>
       <path id="DejaVuSans-66" d="M 2375 4863 
L 2375 4384 
L 1825 4384 
Q 1516 4384 1395 4259 
Q 1275 4134 1275 3809 
L 1275 3500 
L 2222 3500 
L 2222 3053 
L 1275 3053 
L 1275 0 
L 697 0 
L 697 3053 
L 147 3053 
L 147 3500 
L 697 3500 
L 697 3744 
Q 697 4328 969 4595 
Q 1241 4863 1831 4863 
L 2375 4863 
z
" transform="scale(0.015625)"/>
       <path id="DejaVuSans-20" transform="scale(0.015625)"/>
       <path id="DejaVuSans-43" d="M 4122 4306 
L 4122 3641 
Q 3803 3938 3442 4084 
Q 3081 4231 2675 4231 
Q 1875 4231 1450 3742 
Q 1025 3253 1025 2328 
Q 1025 1406 1450 917 
Q 1875 428 2675 428 
Q 3081 428 3442 575 
Q 3803 722 4122 1019 
L 4122 359 
Q 3791 134 3420 21 
Q 3050 -91 2638 -91 
Q 1578 -91 968 557 
Q 359 1206 359 2328 
Q 359 3453 968 4101 
Q 1578 4750 2638 4750 
Q 3056 4750 3426 4639 
Q 3797 4528 4122 4306 
z
" transform="scale(0.015625)"/>
       <path id="DejaVuSans-6f" d="M 1959 3097 
Q 1497 3097 1228 2736 
Q 959 2375 959 1747 
Q 959 1119 1226 758 
Q 1494 397 1959 397 
Q 2419 397 2687 759 
Q 2956 1122 2956 1747 
Q 2956 2369 2687 2733 
Q 2419 3097 1959 3097 
z
M 1959 3584 
Q 2709 3584 3137 3096 
Q 3566 2609 3566 1747 
Q 3566 888 3137 398 
Q 2709 -91 1959 -91 
Q 1206 -91 779 398 
Q 353 888 353 1747 
Q 353 2609 779 3096 
Q 1206 3584 1959 3584 
z
" transform="scale(0.015625)"/>
       <path id="DejaVuSans-6e" d="M 3513 2113 
L 3513 0 
L 2938 0 
L 2938 2094 
Q 2938 2591 2744 2837 
Q 2550 3084 2163 3084 
Q 1697 3084 1428 2787 
Q 1159 2491 1159 1978 
L 1159 0 
L 581 0 
L 581 3500 
L 1159 3500 
L 1159 2956 
Q 1366 3272 1645 3428 
Q 1925 3584 2291 3584 
Q 2894 3584 3203 3211 
Q 3513 2838 3513 2113 
z
" transform="scale(0.015625)"/>
       <path id="DejaVuSans-73" d="M 2834 3397 
L 2834 2853 
Q 2591 2978 2328 3040 
Q 2066 3103 1784 3103 
Q 1356 3103 1142 2972 
Q 928 2841 928 2578 
Q 928 2378 1081 2264 
Q 1234 2150 1697 2047 
L 1894 2003 
Q 2506 1872 2764 1633 
Q 3022 1394 3022 966 
Q 3022 478 2636 193 
Q 2250 -91 1575 -91 
Q 1294 -91 989 -36 
Q 684 19 347 128 
L 347 722 
Q 666 556 975 473 
Q 1284 391 1588 391 
Q 1994 391 2212 530 
Q 2431 669 2431 922 
Q 2431 1156 2273 1281 
Q 2116 1406 1581 1522 
L 1381 1569 
Q 847 1681 609 1914 
Q 372 2147 372 2553 
Q 372 3047 722 3315 
Q 1072 3584 1716 3584 
Q 2034 3584 2315 3537 
Q 2597 3491 2834 3397 
z
" transform="scale(0.015625)"/>
       <path id="DejaVuSans-75" d="M 544 1381 
L 544 3500 
L 1119 3500 
L 1119 1403 
Q 1119 906 1312 657 
Q 1506 409 1894 409 
Q 2359 409 2629 706 
Q 2900 1003 2900 1516 
L 2900 3500 
L 3475 3500 
L 3475 0 
L 2900 0 
L 2900 538 
Q 2691 219 2414 64 
Q 2138 -91 1772 -91 
Q 1169 -91 856 284 
Q 544 659 544 1381 
z
M 1991 3584 
L 1991 3584 
z
" transform="scale(0.015625)"/>
       <path id="DejaVuSans-6d" d="M 3328 2828 
Q 3544 3216 3844 3400 
Q 4144 3584 4550 3584 
Q 5097 3584 5394 3201 
Q 5691 2819 5691 2113 
L 5691 0 
L 5113 0 
L 5113 2094 
Q 5113 2597 4934 2840 
Q 4756 3084 4391 3084 
Q 3944 3084 3684 2787 
Q 3425 2491 3425 1978 
L 3425 0 
L 2847 0 
L 2847 2094 
Q 2847 2600 2669 2842 
Q 2491 3084 2119 3084 
Q 1678 3084 1418 2786 
Q 1159 2488 1159 1978 
L 1159 0 
L 581 0 
L 581 3500 
L 1159 3500 
L 1159 2956 
Q 1356 3278 1631 3431 
Q 1906 3584 2284 3584 
Q 2666 3584 2933 3390 
Q 3200 3197 3328 2828 
z
" transform="scale(0.015625)"/>
       <path id="DejaVuSans-70" d="M 1159 525 
L 1159 -1331 
L 581 -1331 
L 581 3500 
L 1159 3500 
L 1159 2969 
Q 1341 3281 1617 3432 
Q 1894 3584 2278 3584 
Q 2916 3584 3314 3078 
Q 3713 2572 3713 1747 
Q 3713 922 3314 415 
Q 2916 -91 2278 -91 
Q 1894 -91 1617 61 
Q 1341 213 1159 525 
z
M 3116 1747 
Q 3116 2381 2855 2742 
Q 2594 3103 2138 3103 
Q 1681 3103 1420 2742 
Q 1159 2381 1159 1747 
Q 1159 1113 1420 752 
Q 1681 391 2138 391 
Q 2594 391 2855 752 
Q 3116 1113 3116 1747 
z
" transform="scale(0.015625)"/>
       <path id="DejaVuSans-74" d="M 1172 4494 
L 1172 3500 
L 2356 3500 
L 2356 3053 
L 1172 3053 
L 1172 1153 
Q 1172 725 1289 603 
Q 1406 481 1766 481 
L 2356 481 
L 2356 0 
L 1766 0 
Q 1100 0 847 248 
Q 594 497 594 1153 
L 594 3053 
L 172 3053 
L 172 3500 
L 594 3500 
L 594 4494 
L 1172 4494 
z
" transform="scale(0.015625)"/>
       <path id="DejaVuSans-69" d="M 603 3500 
L 1178 3500 
L 1178 0 
L 603 0 
L 603 3500 
z
M 603 4863 
L 1178 4863 
L 1178 4134 
L 603 4134 
L 603 4863 
z
" transform="scale(0.015625)"/>
      </defs>
      <use xlink:href="#DejaVuSans-42"/>
      <use xlink:href="#DejaVuSans-65" x="68.603516"/>
      <use xlink:href="#DejaVuSans-65" x="130.126953"/>
      <use xlink:href="#DejaVuSans-66" x="191.650391"/>
      <use xlink:href="#DejaVuSans-20" x="226.855469"/>
      <use xlink:href="#DejaVuSans-43" x="258.642578"/>
      <use xlink:href="#DejaVuSans-6f" x="328.466797"/>
      <use xlink:href="#DejaVuSans-6e" x="389.648438"/>
      <use xlink:href="#DejaVuSans-73" x="453.027344"/>
      <use xlink:href="#DejaVuSans-75" x="505.126953"/>
      <use xlink:href="#DejaVuSans-6d" x="568.505859"/>
      <use xlink:href="#DejaVuSans-70" x="665.917969"/>
      <use xlink:href="#DejaVuSans-74" x="729.394531"/>
      <use xlink:href="#DejaVuSans-69" x="768.603516"/>
      <use xlink:href="#DejaVuSans-6f" x="796.386719"/>
      <use xlink:href="#DejaVuSans-6e" x="857.568359"/>
     </g>
    </g>
   </g>
   <g id="PathCollection_8"/>
   <g id="PathCollection_9">
    <path d="M 361.912544 307.584 
L 363.016064 304.896 
L 364.118372 302.208 
L 364.218182 301.96454 
L 365.221475 299.52 
L 366.323555 296.832 
L 367.424416 294.144 
L 367.825455 293.164232 
L 368.525482 291.456 
L 369.626136 288.768 
L 370.725562 286.08 
L 371.432727 284.349641 
L 371.824572 283.392 
L 372.923813 280.704 
L 374.021816 278.016 
L 375.04 275.520751 
L 375.118751 275.328 
L 376.216591 272.64 
L 377.313185 269.952 
L 378.408536 267.264 
L 378.647273 266.677853 
L 379.504476 264.576 
L 380.599674 261.888 
L 381.69362 259.2 
L 382.254545 257.820687 
L 382.787473 256.512 
L 383.881287 253.824 
L 384.973841 251.136 
L 385.861818 248.949127 
L 386.065587 248.448 
L 387.15803 245.76 
L 388.249205 243.072 
L 389.339113 240.384 
L 389.469091 240.06329 
L 390.429906 237.696 
L 391.519715 235.008 
L 392.608248 232.32 
L 393.076364 231.163201 
L 393.69692 229.632 
L 394.760879 227.004493 
" clip-path="url(#p74ca718cc5)" style="fill: none; stroke: #000000; stroke-width: 0.5"/>
    <path d="M 405.810867 199.630638 
L 406.718307 197.376 
L 407.505455 195.418263 
L 407.799571 194.688 
L 408.881425 192 
L 409.961966 189.312 
L 411.041195 186.624 
L 411.112727 186.445736 
L 412.121576 183.936 
L 413.200811 181.248 
L 414.278727 178.56 
L 414.72 177.458693 
" clip-path="url(#p74ca718cc5)" style="fill: none; stroke: #000000; stroke-width: 0.5"/>
   </g>
   <g id="PathCollection_10">
    <path d="M 286.991568 307.584 
L 288.124225 304.896 
L 288.465455 304.085619 
L 289.25618 302.208 
L 290.387012 299.52 
L 291.51641 296.832 
L 292.072727 295.50678 
L 292.64492 294.144 
L 293.772519 291.456 
L 294.898678 288.768 
L 295.68 286.901126 
L 296.023738 286.08 
L 297.148124 283.392 
L 298.271064 280.704 
L 299.287273 278.268522 
L 299.392668 278.016 
L 300.513862 275.328 
L 301.633603 272.64 
L 302.751894 269.952 
L 302.894545 269.608883 
L 303.869763 267.264 
L 304.986325 264.576 
L 306.10143 261.888 
L 306.501818 260.922027 
L 307.215858 259.2 
L 308.32926 256.512 
L 309.441199 253.824 
L 310.109091 252.207764 
L 310.552176 251.136 
L 311.662437 248.448 
L 312.771229 245.76 
L 313.716364 243.465944 
L 313.878744 243.072 
L 314.985882 240.384 
L 316.091546 237.696 
L 317.195738 235.008 
L 317.323636 234.696418 
L 318.299621 232.32 
L 319.402175 229.632 
L 320.411712 227.167472 
" clip-path="url(#p74ca718cc5)" style="fill: none; stroke: #000000; stroke-width: 0.5"/>
    <path d="M 331.552914 199.830627 
L 331.752727 199.337575 
L 332.548245 197.376 
L 333.63704 194.688 
L 334.724335 192 
L 335.36 190.426731 
L 335.810744 189.312 
L 336.896514 186.624 
L 337.980776 183.936 
L 338.967273 181.487099 
L 339.063669 181.248 
L 340.146429 178.56 
L 341.227676 175.872 
L 342.307413 173.184 
L 342.574545 172.518323 
L 343.386799 170.496 
L 344.465048 167.808 
L 345.54178 165.12 
L 346.181818 163.520284 
L 346.617634 162.432 
L 347.692902 159.744 
L 348.766647 157.056 
L 349.789091 154.492857 
L 349.838945 154.368 
L 350.911248 151.68 
L 351.982021 148.992 
L 353.051267 146.304 
L 353.396364 145.435516 
L 354.120092 143.616 
L 355.187911 140.928 
L 356.254195 138.24 
L 357.003636 136.348293 
L 357.319441 135.552 
L 358.384321 132.864 
L 359.44766 130.176 
L 360.509461 127.488 
L 360.610909 127.230919 
L 361.571255 124.8 
L 362.631665 122.112 
L 363.69053 119.424 
L 364.218182 118.08288 
L 364.748716 116.736 
L 365.806212 114.048 
L 366.862157 111.36 
L 367.825455 108.904335 
L 367.916705 108.672 
L 368.971302 105.984 
L 370.024341 103.296 
L 371.075825 100.608 
L 371.432727 99.694533 
L 372.126932 97.92 
L 373.177081 95.232 
L 374.225669 92.544 
L 375.04 90.453591 
L 375.2731 89.856 
L 376.320374 87.168 
L 377.36608 84.48 
L 378.41022 81.792 
L 378.647273 81.181012 
L 379.454214 79.104 
L 380.497053 76.416 
L 381.538319 73.728 
L 382.254545 71.87651 
L 382.578595 71.04 
L 383.618581 68.352 
L 384.656987 65.664 
L 385.693816 62.976 
L 385.861818 62.539922 
L 386.730654 60.288 
L 387.766215 57.6 
L 388.800191 54.912 
L 389.469091 53.170634 
L 389.833264 52.224 
L 390.865992 49.536 
L 391.89713 46.848 
L 392.92668 44.16 
L 393.076364 43.768708 
L 393.956307 41.472 
" clip-path="url(#p74ca718cc5)" style="fill: none; stroke: #000000; stroke-width: 0.5"/>
   </g>
   <g id="PathCollection_11">
    <path d="M 213.462873 307.584 
L 214.640324 304.896 
L 215.816121 302.208 
L 216.32 301.054895 
L 216.990189 299.52 
L 218.162542 296.832 
L 219.333238 294.144 
L 219.927273 292.77856 
L 220.502232 291.456 
L 221.669518 288.768 
L 222.835143 286.08 
L 223.534545 284.465249 
L 223.999088 283.392 
L 225.161338 280.704 
L 226.321922 278.016 
L 227.141818 276.114682 
L 227.48084 275.328 
L 228.638083 272.64 
L 229.793657 269.952 
L 230.749091 267.726572 
L 230.947569 267.264 
L 232.099835 264.576 
L 233.250428 261.888 
L 234.356364 259.300625 
L 234.399351 259.2 
L 235.54667 256.512 
L 236.69231 253.824 
L 237.836274 251.136 
L 237.963636 250.83645 
L 238.97866 248.448 
L 240.119376 245.76 
L 241.258412 243.072 
L 241.570909 242.333759 
L 242.395878 240.384 
L 243.531698 237.696 
L 244.665833 235.008 
L 245.178182 233.792256 
L 245.798389 232.32 
L 246.929341 229.632 
L 247.98446 227.120485 
" clip-path="url(#p74ca718cc5)" style="fill: none; stroke: #000000; stroke-width: 0.5"/>
    <path d="M 259.341831 199.872759 
L 259.607273 199.230993 
L 260.374368 197.376 
L 261.484403 194.688 
L 262.592732 192 
L 263.214545 190.489932 
L 263.699522 189.312 
L 264.804813 186.624 
L 265.908394 183.936 
L 266.821818 181.707896 
L 267.010337 181.248 
L 268.110909 178.56 
L 269.209766 175.872 
L 270.30691 173.184 
L 270.429091 172.88431 
L 271.402737 170.496 
L 272.496895 167.808 
L 273.589333 165.12 
L 274.036364 164.018616 
L 274.68034 162.432 
L 275.769821 159.744 
L 276.857579 157.056 
L 277.643636 155.110694 
L 277.943758 154.368 
L 279.028586 151.68 
L 280.111685 148.992 
L 281.193058 146.304 
L 281.250909 146.160024 
L 282.273226 143.616 
L 283.351689 140.928 
L 284.428421 138.24 
L 284.858182 137.165655 
L 285.503774 135.552 
L 286.577623 132.864 
L 287.649736 130.176 
L 288.465455 128.127702 
L 288.720261 127.488 
L 289.789518 124.8 
L 290.857033 122.112 
L 291.922808 119.424 
L 292.072727 119.045387 
L 292.987402 116.736 
L 294.05034 114.048 
L 295.111533 111.36 
L 295.68 109.917937 
L 296.171299 108.672 
L 297.229681 105.984 
L 298.286312 103.296 
L 299.287273 100.745442 
L 299.34123 100.608 
L 300.395077 97.92 
L 301.447166 95.232 
L 302.497501 92.544 
L 302.894545 91.526391 
L 303.546546 89.856 
L 304.594113 87.168 
L 305.63992 84.48 
L 306.501818 82.261081 
L 306.684105 81.792 
L 307.727169 79.104 
L 308.768467 76.416 
L 309.808001 73.728 
L 310.109091 72.948285 
L 310.846345 71.04 
L 311.883153 68.352 
L 312.918191 65.664 
L 313.716364 63.587721 
L 313.951651 62.976 
L 314.983987 60.288 
L 316.014547 57.6 
L 317.043332 54.912 
L 317.323636 54.178495 
L 318.070975 52.224 
L 319.097074 49.536 
L 320.121393 46.848 
L 320.930909 44.720093 
L 321.144121 44.16 
L 322.165776 41.472 
" clip-path="url(#p74ca718cc5)" style="fill: none; stroke: #000000; stroke-width: 0.5"/>
   </g>
   <g id="PathCollection_12">
    <path d="M 139.71899 307.584 
L 140.567273 305.74627 
L 140.959058 304.896 
L 142.19622 302.208 
L 143.431496 299.52 
L 144.174545 297.900987 
L 144.664316 296.832 
L 145.894382 294.144 
L 147.122559 291.456 
L 147.781818 290.011279 
L 148.348209 288.768 
L 149.571223 286.08 
L 150.792346 283.392 
L 151.389091 282.076733 
L 152.0109 280.704 
L 153.226908 278.016 
L 154.441021 275.328 
L 154.996364 274.096918 
L 155.652549 272.64 
L 156.861595 269.952 
L 158.068742 267.264 
L 158.603636 266.071391 
L 159.273312 264.576 
L 160.475437 261.888 
L 161.675662 259.2 
L 162.210909 257.999698 
L 162.873338 256.512 
L 164.068586 253.824 
L 165.26193 251.136 
L 165.818182 249.881365 
L 166.452773 248.448 
L 167.641184 245.76 
L 168.827689 243.072 
L 169.425455 241.715909 
L 170.011756 240.384 
L 171.193372 237.696 
L 172.373078 235.008 
L 173.032727 233.502831 
L 173.550425 232.32 
L 174.725285 229.632 
L 175.898232 226.944 
L 176.64 225.241616 
L 177.068909 224.256 
L 178.237053 221.568 
L 179.40328 218.88 
L 180.247273 216.931737 
L 180.567337 216.192 
L 181.728803 213.504 
L 182.888348 210.816 
L 183.854545 208.572649 
L 184.045829 208.128 
L 185.200654 205.44 
L 186.353555 202.752 
L 187.461818 200.163796 
L 187.504503 200.064 
L 188.652725 197.376 
L 189.799018 194.688 
L 190.943386 192 
L 191.069091 191.704335 
L 192.085127 189.312 
L 193.224849 186.624 
L 194.362641 183.936 
L 194.676364 183.193781 
L 195.497968 181.248 
L 196.631154 178.56 
L 197.762406 175.872 
L 198.283636 174.631611 
L 198.891351 173.184 
L 200.018036 170.496 
L 201.142783 167.808 
L 201.890909 166.017198 
L 202.265376 165.12 
L 203.385594 162.432 
L 204.503869 159.744 
L 205.498182 157.349899 
L 205.620137 157.056 
L 206.73392 154.368 
L 207.845756 151.68 
L 208.955648 148.992 
L 209.105455 148.628651 
L 210.063105 146.304 
L 211.168535 143.616 
L 212.272015 140.928 
L 212.712727 139.852752 
L 213.373233 138.24 
L 214.472288 135.552 
L 215.569389 132.864 
L 216.32 131.021822 
L 216.664387 130.176 
L 217.545635 128.008184 
" clip-path="url(#p74ca718cc5)" style="fill: none; stroke: #000000; stroke-width: 0.5"/>
    <path d="M 230.925584 94.684053 
L 231.773994 92.544 
L 232.837668 89.856 
L 233.899366 87.168 
L 234.356364 86.00896 
L 234.958929 84.48 
L 236.016391 81.792 
L 237.071873 79.104 
L 237.963636 76.828745 
L 238.125338 76.416 
L 239.176615 73.728 
L 240.225907 71.04 
L 241.273213 68.352 
L 241.570909 67.586588 
L 242.318389 65.664 
L 243.361515 62.976 
L 244.402652 60.288 
L 245.178182 58.281995 
L 245.441757 57.6 
L 246.478744 54.912 
L 247.513735 52.224 
L 248.546732 49.536 
L 248.785455 48.91368 
L 249.577632 46.848 
L 250.606501 44.16 
L 251.63337 41.472 
" clip-path="url(#p74ca718cc5)" style="fill: none; stroke: #000000; stroke-width: 0.5"/>
   </g>
   <g id="PathCollection_13">
    <path d="M 64.085343 307.584 
L 64.814545 306.108041 
L 65.41168 304.896 
L 66.73417 302.208 
L 68.054531 299.52 
L 68.421818 298.771304 
L 69.370563 296.832 
L 70.683613 294.144 
L 71.99453 291.456 
L 72.029091 291.385049 
L 73.300419 288.768 
L 74.604092 286.08 
L 75.636364 283.94829 
L 75.905031 283.392 
L 77.201532 280.704 
L 78.495894 278.016 
L 79.243636 276.460865 
L 79.786927 275.328 
L 81.074182 272.64 
L 82.359297 269.952 
L 82.850909 268.92226 
L 83.64057 267.264 
L 84.918641 264.576 
L 86.19457 261.888 
L 86.458182 261.331885 
L 87.466224 259.2 
L 88.735174 256.512 
L 90.001978 253.824 
L 90.065455 253.689131 
L 91.264148 251.136 
L 92.524036 248.448 
L 93.672727 245.993134 
L 93.781555 245.76 
L 95.034593 243.072 
L 96.285479 240.384 
L 97.28 238.243368 
L 97.533707 237.696 
L 98.777804 235.008 
L 100.019744 232.32 
L 100.887273 230.43929 
L 101.258804 229.632 
L 102.494016 226.944 
L 103.727068 224.256 
L 104.494545 222.580209 
L 104.957078 221.568 
L 106.183459 218.88 
L 107.40768 216.192 
L 108.101818 214.665406 
L 108.628751 213.504 
L 109.846358 210.816 
L 110.946147 208.383774 
" clip-path="url(#p74ca718cc5)" style="fill: none; stroke: #000000; stroke-width: 0.5"/>
    <path d="M 125.547226 175.576399 
L 126.138182 174.228848 
L 126.595504 173.184 
L 127.770024 170.496 
L 128.942362 167.808 
L 129.745455 165.963333 
L 130.111916 165.12 
L 131.277968 162.432 
L 132.441834 159.744 
L 133.352727 157.636399 
L 133.603113 157.056 
L 134.760745 154.368 
L 135.916186 151.68 
L 136.96 149.24713 
L 137.069268 148.992 
L 138.218525 146.304 
L 139.365588 143.616 
L 140.510459 140.928 
L 140.567273 140.794378 
L 141.651474 138.24 
L 142.790204 135.552 
L 143.926738 132.864 
L 144.174545 132.276863 
L 145.059751 130.176 
L 146.190192 127.488 
L 147.318432 124.8 
L 147.781818 123.693952 
L 148.443508 122.112 
L 149.565704 119.424 
L 150.685694 116.736 
L 151.389091 115.044602 
L 151.802891 114.048 
L 152.916884 111.36 
L 154.028666 108.672 
L 154.996364 106.327744 
L 155.138043 105.984 
L 156.243873 103.296 
L 157.347488 100.608 
L 158.448889 97.92 
L 158.603636 97.541615 
L 159.546805 95.232 
L 160.642293 92.544 
L 161.735561 89.856 
L 162.210909 88.684971 
L 162.825806 87.168 
L 163.913206 84.48 
L 164.998382 81.792 
L 165.818182 79.757222 
L 166.081 79.104 
L 167.16035 76.416 
L 168.23747 73.728 
L 169.312362 71.04 
L 169.425455 70.756622 
L 170.383839 68.352 
L 171.452941 65.664 
L 172.519809 62.976 
L 173.032727 61.681028 
L 173.583782 60.288 
L 174.644902 57.6 
L 175.703782 54.912 
L 176.64 52.530363 
L 176.760284 52.224 
L 177.813456 49.536 
L 178.864383 46.848 
L 179.913066 44.16 
L 180.247273 43.301541 
L 180.9587 41.472 
" clip-path="url(#p74ca718cc5)" style="fill: none; stroke: #000000; stroke-width: 0.5"/>
   </g>
   <g id="PathCollection_14">
    <path d="M 57.6 160.524004 
L 57.956723 159.744 
L 59.18368 157.056 
L 60.408174 154.368 
L 61.207273 152.610352 
L 61.629044 151.68 
L 62.845259 148.992 
L 64.059006 146.304 
L 64.814545 144.627409 
L 65.269054 143.616 
L 66.474592 140.928 
L 67.548399 138.528801 
" clip-path="url(#p74ca718cc5)" style="fill: none; stroke: #000000; stroke-width: 0.5"/>
    <path d="M 81.981157 105.647127 
L 82.850909 103.62906 
L 82.994089 103.296 
L 84.147183 100.608 
L 85.297778 97.92 
L 86.445876 95.232 
L 86.458182 95.203127 
L 87.588689 92.544 
L 88.728969 89.856 
L 89.866745 87.168 
L 90.065455 86.697514 
L 90.999753 84.48 
L 92.129772 81.792 
L 93.257283 79.104 
L 93.672727 78.111361 
L 94.380597 76.416 
L 95.500412 73.728 
L 96.617711 71.04 
L 97.28 69.443057 
L 97.731439 68.352 
L 98.841101 65.664 
L 99.948243 62.976 
L 100.887273 60.690941 
L 101.052484 60.288 
L 102.152046 57.6 
L 103.249082 54.912 
L 104.343592 52.224 
L 104.494545 51.852399 
L 105.433446 49.536 
L 106.520427 46.848 
L 107.604875 44.16 
L 108.101818 42.925309 
L 108.68549 41.472 
" clip-path="url(#p74ca718cc5)" style="fill: none; stroke: #000000; stroke-width: 0.5"/>
   </g>
   <g id="PathCollection_15"/>
   <g id="LineCollection_1">
    <path d="M 68.153699 307.584 
L 68.153699 294.2784 
" clip-path="url(#p74ca718cc5)" style="fill: none; stroke: #000000; stroke-width: 1.5"/>
    <path d="M 84.835458 307.584 
L 84.835458 294.2784 
" clip-path="url(#p74ca718cc5)" style="fill: none; stroke: #000000; stroke-width: 1.5"/>
    <path d="M 104.170605 307.584 
L 104.170605 294.2784 
" clip-path="url(#p74ca718cc5)" style="fill: none; stroke: #000000; stroke-width: 1.5"/>
    <path d="M 123.093447 307.584 
L 123.093447 294.2784 
" clip-path="url(#p74ca718cc5)" style="fill: none; stroke: #000000; stroke-width: 1.5"/>
    <path d="M 154.229185 307.584 
L 154.229185 294.2784 
" clip-path="url(#p74ca718cc5)" style="fill: none; stroke: #000000; stroke-width: 1.5"/>
    <path d="M 185.315047 307.584 
L 185.315047 294.2784 
" clip-path="url(#p74ca718cc5)" style="fill: none; stroke: #000000; stroke-width: 1.5"/>
    <path d="M 218.366012 307.584 
L 218.366012 294.2784 
" clip-path="url(#p74ca718cc5)" style="fill: none; stroke: #000000; stroke-width: 1.5"/>
    <path d="M 294.130528 307.584 
L 294.130528 294.2784 
" clip-path="url(#p74ca718cc5)" style="fill: none; stroke: #000000; stroke-width: 1.5"/>
    <path d="M 342.443458 307.584 
L 342.443458 294.2784 
" clip-path="url(#p74ca718cc5)" style="fill: none; stroke: #000000; stroke-width: 1.5"/>
   </g>
   <g id="LineCollection_2">
    <path clip-path="url(#p74ca718cc5)" style="fill: none; stroke: #000000; stroke-width: 1.5"/>
    <path clip-path="url(#p74ca718cc5)" style="fill: none; stroke: #000000; stroke-width: 1.5"/>
    <path clip-path="url(#p74ca718cc5)" style="fill: none; stroke: #000000; stroke-width: 1.5"/>
    <path clip-path="url(#p74ca718cc5)" style="fill: none; stroke: #000000; stroke-width: 1.5"/>
    <path clip-path="url(#p74ca718cc5)" style="fill: none; stroke: #000000; stroke-width: 1.5"/>
    <path clip-path="url(#p74ca718cc5)" style="fill: none; stroke: #000000; stroke-width: 1.5"/>
    <path clip-path="url(#p74ca718cc5)" style="fill: none; stroke: #000000; stroke-width: 1.5"/>
    <path clip-path="url(#p74ca718cc5)" style="fill: none; stroke: #000000; stroke-width: 1.5"/>
    <path clip-path="url(#p74ca718cc5)" style="fill: none; stroke: #000000; stroke-width: 1.5"/>
   </g>
   <g id="patch_3">
    <path d="M 57.6 307.584 
L 57.6 41.472 
" style="fill: none; stroke: #000000; stroke-width: 0.8; stroke-linejoin: miter; stroke-linecap: square"/>
   </g>
   <g id="patch_4">
    <path d="M 414.72 307.584 
L 414.72 41.472 
" style="fill: none; stroke: #000000; stroke-width: 0.8; stroke-linejoin: miter; stroke-linecap: square"/>
   </g>
   <g id="patch_5">
    <path d="M 57.6 307.584 
L 414.72 307.584 
" style="fill: none; stroke: #000000; stroke-width: 0.8; stroke-linejoin: miter; stroke-linecap: square"/>
   </g>
   <g id="patch_6">
    <path d="M 57.6 41.472 
L 414.72 41.472 
" style="fill: none; stroke: #000000; stroke-width: 0.8; stroke-linejoin: miter; stroke-linecap: square"/>
   </g>
   <g id="text_17">
    <!-- 2D-partial dependency plot between PM and Beef -->
    <g transform="translate(86.701875 35.472) scale(0.12 -0.12)">
     <defs>
      <path id="DejaVuSans-44" d="M 1259 4147 
L 1259 519 
L 2022 519 
Q 2988 519 3436 956 
Q 3884 1394 3884 2338 
Q 3884 3275 3436 3711 
Q 2988 4147 2022 4147 
L 1259 4147 
z
M 628 4666 
L 1925 4666 
Q 3281 4666 3915 4102 
Q 4550 3538 4550 2338 
Q 4550 1131 3912 565 
Q 3275 0 1925 0 
L 628 0 
L 628 4666 
z
" transform="scale(0.015625)"/>
      <path id="DejaVuSans-2d" d="M 313 2009 
L 1997 2009 
L 1997 1497 
L 313 1497 
L 313 2009 
z
" transform="scale(0.015625)"/>
      <path id="DejaVuSans-61" d="M 2194 1759 
Q 1497 1759 1228 1600 
Q 959 1441 959 1056 
Q 959 750 1161 570 
Q 1363 391 1709 391 
Q 2188 391 2477 730 
Q 2766 1069 2766 1631 
L 2766 1759 
L 2194 1759 
z
M 3341 1997 
L 3341 0 
L 2766 0 
L 2766 531 
Q 2569 213 2275 61 
Q 1981 -91 1556 -91 
Q 1019 -91 701 211 
Q 384 513 384 1019 
Q 384 1609 779 1909 
Q 1175 2209 1959 2209 
L 2766 2209 
L 2766 2266 
Q 2766 2663 2505 2880 
Q 2244 3097 1772 3097 
Q 1472 3097 1187 3025 
Q 903 2953 641 2809 
L 641 3341 
Q 956 3463 1253 3523 
Q 1550 3584 1831 3584 
Q 2591 3584 2966 3190 
Q 3341 2797 3341 1997 
z
" transform="scale(0.015625)"/>
      <path id="DejaVuSans-72" d="M 2631 2963 
Q 2534 3019 2420 3045 
Q 2306 3072 2169 3072 
Q 1681 3072 1420 2755 
Q 1159 2438 1159 1844 
L 1159 0 
L 581 0 
L 581 3500 
L 1159 3500 
L 1159 2956 
Q 1341 3275 1631 3429 
Q 1922 3584 2338 3584 
Q 2397 3584 2469 3576 
Q 2541 3569 2628 3553 
L 2631 2963 
z
" transform="scale(0.015625)"/>
      <path id="DejaVuSans-6c" d="M 603 4863 
L 1178 4863 
L 1178 0 
L 603 0 
L 603 4863 
z
" transform="scale(0.015625)"/>
      <path id="DejaVuSans-64" d="M 2906 2969 
L 2906 4863 
L 3481 4863 
L 3481 0 
L 2906 0 
L 2906 525 
Q 2725 213 2448 61 
Q 2172 -91 1784 -91 
Q 1150 -91 751 415 
Q 353 922 353 1747 
Q 353 2572 751 3078 
Q 1150 3584 1784 3584 
Q 2172 3584 2448 3432 
Q 2725 3281 2906 2969 
z
M 947 1747 
Q 947 1113 1208 752 
Q 1469 391 1925 391 
Q 2381 391 2643 752 
Q 2906 1113 2906 1747 
Q 2906 2381 2643 2742 
Q 2381 3103 1925 3103 
Q 1469 3103 1208 2742 
Q 947 2381 947 1747 
z
" transform="scale(0.015625)"/>
      <path id="DejaVuSans-63" d="M 3122 3366 
L 3122 2828 
Q 2878 2963 2633 3030 
Q 2388 3097 2138 3097 
Q 1578 3097 1268 2742 
Q 959 2388 959 1747 
Q 959 1106 1268 751 
Q 1578 397 2138 397 
Q 2388 397 2633 464 
Q 2878 531 3122 666 
L 3122 134 
Q 2881 22 2623 -34 
Q 2366 -91 2075 -91 
Q 1284 -91 818 406 
Q 353 903 353 1747 
Q 353 2603 823 3093 
Q 1294 3584 2113 3584 
Q 2378 3584 2631 3529 
Q 2884 3475 3122 3366 
z
" transform="scale(0.015625)"/>
      <path id="DejaVuSans-79" d="M 2059 -325 
Q 1816 -950 1584 -1140 
Q 1353 -1331 966 -1331 
L 506 -1331 
L 506 -850 
L 844 -850 
Q 1081 -850 1212 -737 
Q 1344 -625 1503 -206 
L 1606 56 
L 191 3500 
L 800 3500 
L 1894 763 
L 2988 3500 
L 3597 3500 
L 2059 -325 
z
" transform="scale(0.015625)"/>
      <path id="DejaVuSans-62" d="M 3116 1747 
Q 3116 2381 2855 2742 
Q 2594 3103 2138 3103 
Q 1681 3103 1420 2742 
Q 1159 2381 1159 1747 
Q 1159 1113 1420 752 
Q 1681 391 2138 391 
Q 2594 391 2855 752 
Q 3116 1113 3116 1747 
z
M 1159 2969 
Q 1341 3281 1617 3432 
Q 1894 3584 2278 3584 
Q 2916 3584 3314 3078 
Q 3713 2572 3713 1747 
Q 3713 922 3314 415 
Q 2916 -91 2278 -91 
Q 1894 -91 1617 61 
Q 1341 213 1159 525 
L 1159 0 
L 581 0 
L 581 4863 
L 1159 4863 
L 1159 2969 
z
" transform="scale(0.015625)"/>
      <path id="DejaVuSans-77" d="M 269 3500 
L 844 3500 
L 1563 769 
L 2278 3500 
L 2956 3500 
L 3675 769 
L 4391 3500 
L 4966 3500 
L 4050 0 
L 3372 0 
L 2619 2869 
L 1863 0 
L 1184 0 
L 269 3500 
z
" transform="scale(0.015625)"/>
     </defs>
     <use xlink:href="#DejaVuSans-32"/>
     <use xlink:href="#DejaVuSans-44" x="63.623047"/>
     <use xlink:href="#DejaVuSans-2d" x="140.625"/>
     <use xlink:href="#DejaVuSans-70" x="176.708984"/>
     <use xlink:href="#DejaVuSans-61" x="240.185547"/>
     <use xlink:href="#DejaVuSans-72" x="301.464844"/>
     <use xlink:href="#DejaVuSans-74" x="342.578125"/>
     <use xlink:href="#DejaVuSans-69" x="381.787109"/>
     <use xlink:href="#DejaVuSans-61" x="409.570312"/>
     <use xlink:href="#DejaVuSans-6c" x="470.849609"/>
     <use xlink:href="#DejaVuSans-20" x="498.632812"/>
     <use xlink:href="#DejaVuSans-64" x="530.419922"/>
     <use xlink:href="#DejaVuSans-65" x="593.896484"/>
     <use xlink:href="#DejaVuSans-70" x="655.419922"/>
     <use xlink:href="#DejaVuSans-65" x="718.896484"/>
     <use xlink:href="#DejaVuSans-6e" x="780.419922"/>
     <use xlink:href="#DejaVuSans-64" x="843.798828"/>
     <use xlink:href="#DejaVuSans-65" x="907.275391"/>
     <use xlink:href="#DejaVuSans-6e" x="968.798828"/>
     <use xlink:href="#DejaVuSans-63" x="1032.177734"/>
     <use xlink:href="#DejaVuSans-79" x="1087.158203"/>
     <use xlink:href="#DejaVuSans-20" x="1146.337891"/>
     <use xlink:href="#DejaVuSans-70" x="1178.125"/>
     <use xlink:href="#DejaVuSans-6c" x="1241.601562"/>
     <use xlink:href="#DejaVuSans-6f" x="1269.384766"/>
     <use xlink:href="#DejaVuSans-74" x="1330.566406"/>
     <use xlink:href="#DejaVuSans-20" x="1369.775391"/>
     <use xlink:href="#DejaVuSans-62" x="1401.5625"/>
     <use xlink:href="#DejaVuSans-65" x="1465.039062"/>
     <use xlink:href="#DejaVuSans-74" x="1526.5625"/>
     <use xlink:href="#DejaVuSans-77" x="1565.771484"/>
     <use xlink:href="#DejaVuSans-65" x="1647.558594"/>
     <use xlink:href="#DejaVuSans-65" x="1709.082031"/>
     <use xlink:href="#DejaVuSans-6e" x="1770.605469"/>
     <use xlink:href="#DejaVuSans-20" x="1833.984375"/>
     <use xlink:href="#DejaVuSans-50" x="1865.771484"/>
     <use xlink:href="#DejaVuSans-4d" x="1926.074219"/>
     <use xlink:href="#DejaVuSans-20" x="2012.353516"/>
     <use xlink:href="#DejaVuSans-61" x="2044.140625"/>
     <use xlink:href="#DejaVuSans-6e" x="2105.419922"/>
     <use xlink:href="#DejaVuSans-64" x="2168.798828"/>
     <use xlink:href="#DejaVuSans-20" x="2232.275391"/>
     <use xlink:href="#DejaVuSans-42" x="2264.0625"/>
     <use xlink:href="#DejaVuSans-65" x="2332.666016"/>
     <use xlink:href="#DejaVuSans-65" x="2394.189453"/>
     <use xlink:href="#DejaVuSans-66" x="2455.712891"/>
    </g>
   </g>
   <g id="text_18">
    <g clip-path="url(#p74ca718cc5)">
     <!-- 8.73 -->
     <g transform="translate(398.68238 224.675931) rotate(-68.017394) scale(0.1 -0.1)">
      <defs>
       <path id="DejaVuSans-38" d="M 2034 2216 
Q 1584 2216 1326 1975 
Q 1069 1734 1069 1313 
Q 1069 891 1326 650 
Q 1584 409 2034 409 
Q 2484 409 2743 651 
Q 3003 894 3003 1313 
Q 3003 1734 2745 1975 
Q 2488 2216 2034 2216 
z
M 1403 2484 
Q 997 2584 770 2862 
Q 544 3141 544 3541 
Q 544 4100 942 4425 
Q 1341 4750 2034 4750 
Q 2731 4750 3128 4425 
Q 3525 4100 3525 3541 
Q 3525 3141 3298 2862 
Q 3072 2584 2669 2484 
Q 3125 2378 3379 2068 
Q 3634 1759 3634 1313 
Q 3634 634 3220 271 
Q 2806 -91 2034 -91 
Q 1263 -91 848 271 
Q 434 634 434 1313 
Q 434 1759 690 2068 
Q 947 2378 1403 2484 
z
M 1172 3481 
Q 1172 3119 1398 2916 
Q 1625 2713 2034 2713 
Q 2441 2713 2670 2916 
Q 2900 3119 2900 3481 
Q 2900 3844 2670 4047 
Q 2441 4250 2034 4250 
Q 1625 4250 1398 4047 
Q 1172 3844 1172 3481 
z
" transform="scale(0.015625)"/>
       <path id="DejaVuSans-37" d="M 525 4666 
L 3525 4666 
L 3525 4397 
L 1831 0 
L 1172 0 
L 2766 4134 
L 525 4134 
L 525 4666 
z
" transform="scale(0.015625)"/>
      </defs>
      <use xlink:href="#DejaVuSans-38"/>
      <use xlink:href="#DejaVuSans-2e" x="63.623047"/>
      <use xlink:href="#DejaVuSans-37" x="95.410156"/>
      <use xlink:href="#DejaVuSans-33" x="159.033203"/>
     </g>
    </g>
   </g>
   <g id="text_19">
    <g clip-path="url(#p74ca718cc5)">
     <!-- 9.34 -->
     <g transform="translate(324.347988 224.854894) rotate(-67.825919) scale(0.1 -0.1)">
      <defs>
       <path id="DejaVuSans-39" d="M 703 97 
L 703 672 
Q 941 559 1184 500 
Q 1428 441 1663 441 
Q 2288 441 2617 861 
Q 2947 1281 2994 2138 
Q 2813 1869 2534 1725 
Q 2256 1581 1919 1581 
Q 1219 1581 811 2004 
Q 403 2428 403 3163 
Q 403 3881 828 4315 
Q 1253 4750 1959 4750 
Q 2769 4750 3195 4129 
Q 3622 3509 3622 2328 
Q 3622 1225 3098 567 
Q 2575 -91 1691 -91 
Q 1453 -91 1209 -44 
Q 966 3 703 97 
z
M 1959 2075 
Q 2384 2075 2632 2365 
Q 2881 2656 2881 3163 
Q 2881 3666 2632 3958 
Q 2384 4250 1959 4250 
Q 1534 4250 1286 3958 
Q 1038 3666 1038 3163 
Q 1038 2656 1286 2365 
Q 1534 2075 1959 2075 
z
" transform="scale(0.015625)"/>
      </defs>
      <use xlink:href="#DejaVuSans-39"/>
      <use xlink:href="#DejaVuSans-2e" x="63.623047"/>
      <use xlink:href="#DejaVuSans-33" x="95.410156"/>
      <use xlink:href="#DejaVuSans-34" x="159.033203"/>
     </g>
    </g>
   </g>
   <g id="text_20">
    <g clip-path="url(#p74ca718cc5)">
     <!-- 9.95 -->
     <g transform="translate(251.944611 224.841511) rotate(-67.372555) scale(0.1 -0.1)">
      <use xlink:href="#DejaVuSans-39"/>
      <use xlink:href="#DejaVuSans-2e" x="63.623047"/>
      <use xlink:href="#DejaVuSans-39" x="95.410156"/>
      <use xlink:href="#DejaVuSans-35" x="159.033203"/>
     </g>
    </g>
   </g>
   <g id="text_21">
    <g clip-path="url(#p74ca718cc5)">
     <!-- 10.56 -->
     <g transform="translate(221.497521 125.671495) rotate(-68.124266) scale(0.1 -0.1)">
      <defs>
       <path id="DejaVuSans-36" d="M 2113 2584 
Q 1688 2584 1439 2293 
Q 1191 2003 1191 1497 
Q 1191 994 1439 701 
Q 1688 409 2113 409 
Q 2538 409 2786 701 
Q 3034 994 3034 1497 
Q 3034 2003 2786 2293 
Q 2538 2584 2113 2584 
z
M 3366 4563 
L 3366 3988 
Q 3128 4100 2886 4159 
Q 2644 4219 2406 4219 
Q 1781 4219 1451 3797 
Q 1122 3375 1075 2522 
Q 1259 2794 1537 2939 
Q 1816 3084 2150 3084 
Q 2853 3084 3261 2657 
Q 3669 2231 3669 1497 
Q 3669 778 3244 343 
Q 2819 -91 2113 -91 
Q 1303 -91 875 529 
Q 447 1150 447 2328 
Q 447 3434 972 4092 
Q 1497 4750 2381 4750 
Q 2619 4750 2861 4703 
Q 3103 4656 3366 4563 
z
" transform="scale(0.015625)"/>
      </defs>
      <use xlink:href="#DejaVuSans-31"/>
      <use xlink:href="#DejaVuSans-30" x="63.623047"/>
      <use xlink:href="#DejaVuSans-2e" x="127.246094"/>
      <use xlink:href="#DejaVuSans-35" x="159.033203"/>
      <use xlink:href="#DejaVuSans-36" x="222.65625"/>
     </g>
    </g>
   </g>
   <g id="text_22">
    <g clip-path="url(#p74ca718cc5)">
     <!-- 11.18 -->
     <g transform="translate(114.992439 206.199409) rotate(-66.009081) scale(0.1 -0.1)">
      <use xlink:href="#DejaVuSans-31"/>
      <use xlink:href="#DejaVuSans-31" x="63.623047"/>
      <use xlink:href="#DejaVuSans-2e" x="127.246094"/>
      <use xlink:href="#DejaVuSans-31" x="159.033203"/>
      <use xlink:href="#DejaVuSans-38" x="222.65625"/>
     </g>
    </g>
   </g>
   <g id="text_23">
    <g clip-path="url(#p74ca718cc5)">
     <!-- 11.79 -->
     <g transform="translate(71.593389 136.328135) rotate(-66.302821) scale(0.1 -0.1)">
      <use xlink:href="#DejaVuSans-31"/>
      <use xlink:href="#DejaVuSans-31" x="63.623047"/>
      <use xlink:href="#DejaVuSans-2e" x="127.246094"/>
      <use xlink:href="#DejaVuSans-37" x="159.033203"/>
      <use xlink:href="#DejaVuSans-39" x="222.65625"/>
     </g>
    </g>
   </g>
  </g>
 </g>
 <defs>
  <clipPath id="p74ca718cc5">
   <rect x="57.6" y="41.472" width="357.12" height="266.112"/>
  </clipPath>
 </defs>
</svg>
