<?xml version="1.0" encoding="utf-8" standalone="no"?>
<!DOCTYPE svg PUBLIC "-//W3C//DTD SVG 1.1//EN"
  "http://www.w3.org/Graphics/SVG/1.1/DTD/svg11.dtd">
<svg xmlns:xlink="http://www.w3.org/1999/xlink" width="460.8pt" height="345.6pt" viewBox="0 0 460.8 345.6" xmlns="http://www.w3.org/2000/svg" version="1.1">
 <metadata>
  <rdf:RDF xmlns:dc="http://purl.org/dc/elements/1.1/" xmlns:cc="http://creativecommons.org/ns#" xmlns:rdf="http://www.w3.org/1999/02/22-rdf-syntax-ns#">
   <cc:Work>
    <dc:type rdf:resource="http://purl.org/dc/dcmitype/StillImage"/>
    <dc:date>2024-04-22T00:56:12.789165</dc:date>
    <dc:format>image/svg+xml</dc:format>
    <dc:creator>
     <cc:Agent>
      <dc:title>Matplotlib v3.7.0, https://matplotlib.org/</dc:title>
     </cc:Agent>
    </dc:creator>
   </cc:Work>
  </rdf:RDF>
 </metadata>
 <defs>
  <style type="text/css">*{stroke-linejoin: round; stroke-linecap: butt}</style>
 </defs>
 <g id="figure_1">
  <g id="patch_1">
   <path d="M 0 345.6 
L 460.8 345.6 
L 460.8 0 
L 0 0 
L 0 345.6 
z
" style="fill: none"/>
  </g>
  <g id="axes_1"/>
  <g id="axes_2">
   <g id="patch_2">
    <path d="M 57.6 307.584 
L 414.72 307.584 
L 414.72 41.472 
L 57.6 41.472 
L 57.6 307.584 
z
" style="fill: none"/>
   </g>
   <g id="PathCollection_1">
    <path d="M 61.207273 307.584 
L 64.814545 307.584 
L 68.421818 307.584 
L 72.029091 307.584 
L 75.636364 307.584 
L 79.243636 307.584 
L 82.850909 307.584 
L 86.458182 307.584 
L 90.065455 307.584 
L 93.672727 307.584 
L 97.28 307.584 
L 100.887273 307.584 
L 104.494545 307.584 
L 108.101818 307.584 
L 111.709091 307.584 
L 115.316364 307.584 
L 118.923636 307.584 
L 122.530909 307.584 
L 126.138182 307.584 
L 129.745455 307.584 
L 133.352727 307.584 
L 136.96 307.584 
L 140.567273 307.584 
L 144.174545 307.584 
L 147.781818 307.584 
L 151.389091 307.584 
L 154.996364 307.584 
L 158.603636 307.584 
L 162.210909 307.584 
L 165.818182 307.584 
L 169.425455 307.584 
L 173.032727 307.584 
L 176.64 307.584 
L 180.247273 307.584 
L 183.854545 307.584 
L 187.461818 307.584 
L 191.069091 307.584 
L 194.676364 307.584 
L 198.283636 307.584 
L 201.890909 307.584 
L 205.498182 307.584 
L 209.105455 307.584 
L 212.712727 307.584 
L 216.32 307.584 
L 219.927273 307.584 
L 223.534545 307.584 
L 227.141818 307.584 
L 230.749091 307.584 
L 234.356364 307.584 
L 237.963636 307.584 
L 241.570909 307.584 
L 245.178182 307.584 
L 248.785455 307.584 
L 252.392727 307.584 
L 256 307.584 
L 259.607273 307.584 
L 263.214545 307.584 
L 266.821818 307.584 
L 270.429091 307.584 
L 274.036364 307.584 
L 277.643636 307.584 
L 281.250909 307.584 
L 284.858182 307.584 
L 288.465455 307.584 
L 292.072727 307.584 
L 295.68 307.584 
L 299.287273 307.584 
L 302.894545 307.584 
L 306.501818 307.584 
L 310.109091 307.584 
L 313.716364 307.584 
L 317.323636 307.584 
L 320.930909 307.584 
L 324.538182 307.584 
L 328.145455 307.584 
L 331.752727 307.584 
L 335.36 307.584 
L 338.967273 307.584 
L 342.574545 307.584 
L 346.181818 307.584 
L 349.789091 307.584 
L 353.396364 307.584 
L 357.003636 307.584 
L 360.610909 307.584 
L 364.218182 307.584 
L 367.825455 307.584 
L 371.432727 307.584 
L 375.04 307.584 
L 378.647273 307.584 
L 382.254545 307.584 
L 385.861818 307.584 
L 389.469091 307.584 
L 393.076364 307.584 
L 396.683636 307.584 
L 400.290909 307.584 
L 403.898182 307.584 
L 407.505455 307.584 
L 411.112727 307.584 
L 414.72 307.584 
L 414.72 304.896 
L 414.72 302.208 
L 414.72 299.52 
L 414.72 296.832 
L 414.72 294.144 
L 414.72 291.456 
L 414.72 288.768 
L 414.72 286.08 
L 414.72 283.392 
L 414.72 280.704 
L 414.72 279.428522 
L 411.112727 279.42838 
L 407.505455 279.428238 
L 403.898182 279.428095 
L 400.290909 279.427952 
L 396.683636 279.427809 
L 393.076364 279.427665 
L 389.469091 279.427521 
L 385.861818 279.427377 
L 382.254545 279.427232 
L 378.647273 279.427086 
L 375.04 279.426941 
L 371.432727 279.426795 
L 367.825455 279.426648 
L 364.218182 279.426501 
L 360.610909 279.426354 
L 357.003636 279.426207 
L 353.396364 279.426059 
L 349.789091 279.42591 
L 346.181818 279.425761 
L 342.574545 279.425612 
L 338.967273 279.425463 
L 335.36 279.425313 
L 331.752727 279.425163 
L 328.145455 279.425012 
L 324.538182 279.424861 
L 320.930909 279.424709 
L 317.323636 279.424557 
L 313.716364 279.424405 
L 310.109091 279.424253 
L 306.501818 279.4241 
L 302.894545 279.423946 
L 299.287273 279.423792 
L 295.68 279.423638 
L 292.072727 279.423484 
L 288.465455 279.423329 
L 284.858182 279.423173 
L 281.250909 279.423018 
L 277.643636 279.422861 
L 274.036364 279.422705 
L 270.429091 279.422548 
L 266.821818 279.422391 
L 263.214545 279.422233 
L 259.607273 279.422075 
L 256 279.421917 
L 252.392727 279.421758 
L 248.785455 279.421599 
L 245.178182 279.421439 
L 241.570909 279.421279 
L 237.963636 279.421119 
L 234.356364 279.420958 
L 230.749091 279.420797 
L 227.141818 279.420635 
L 223.534545 279.420473 
L 219.927273 279.420311 
L 216.32 279.420148 
L 212.712727 279.419985 
L 209.105455 279.419822 
L 205.498182 279.419658 
L 201.890909 279.419494 
L 198.283636 279.419329 
L 194.676364 279.419164 
L 191.069091 279.418999 
L 187.461818 279.418833 
L 183.854545 279.418667 
L 180.247273 279.4185 
L 176.64 279.418333 
L 173.032727 279.418166 
L 169.425455 279.417998 
L 165.818182 279.41783 
L 162.210909 279.417661 
L 158.603636 279.417493 
L 154.996364 279.417323 
L 151.389091 279.417154 
L 147.781818 279.416984 
L 144.174545 279.416813 
L 140.567273 279.416642 
L 136.96 279.416471 
L 133.352727 279.416299 
L 129.745455 279.416128 
L 126.138182 279.415955 
L 122.530909 279.415782 
L 118.923636 279.415609 
L 115.316364 279.415436 
L 111.709091 279.415262 
L 108.101818 279.415087 
L 104.494545 279.414913 
L 100.887273 279.414738 
L 97.28 279.414562 
L 93.672727 279.414386 
L 90.065455 279.41421 
L 86.458182 279.414034 
L 82.850909 279.413857 
L 79.243636 279.413679 
L 75.636364 279.413501 
L 72.029091 279.413323 
L 68.421818 279.413145 
L 64.814545 279.412966 
L 61.207273 279.412786 
L 57.6 279.412607 
L 57.6 280.704 
L 57.6 283.392 
L 57.6 286.08 
L 57.6 288.768 
L 57.6 291.456 
L 57.6 294.144 
L 57.6 296.832 
L 57.6 299.52 
L 57.6 302.208 
L 57.6 304.896 
L 57.6 307.584 
z
" clip-path="url(#p9742154942)" style="fill: #481b6d; fill-opacity: 0.75"/>
   </g>
   <g id="PathCollection_2">
    <path d="M 61.207273 279.412786 
L 64.814545 279.412966 
L 68.421818 279.413145 
L 72.029091 279.413323 
L 75.636364 279.413501 
L 79.243636 279.413679 
L 82.850909 279.413857 
L 86.458182 279.414034 
L 90.065455 279.41421 
L 93.672727 279.414386 
L 97.28 279.414562 
L 100.887273 279.414738 
L 104.494545 279.414913 
L 108.101818 279.415087 
L 111.709091 279.415262 
L 115.316364 279.415436 
L 118.923636 279.415609 
L 122.530909 279.415782 
L 126.138182 279.415955 
L 129.745455 279.416128 
L 133.352727 279.416299 
L 136.96 279.416471 
L 140.567273 279.416642 
L 144.174545 279.416813 
L 147.781818 279.416984 
L 151.389091 279.417154 
L 154.996364 279.417323 
L 158.603636 279.417493 
L 162.210909 279.417661 
L 165.818182 279.41783 
L 169.425455 279.417998 
L 173.032727 279.418166 
L 176.64 279.418333 
L 180.247273 279.4185 
L 183.854545 279.418667 
L 187.461818 279.418833 
L 191.069091 279.418999 
L 194.676364 279.419164 
L 198.283636 279.419329 
L 201.890909 279.419494 
L 205.498182 279.419658 
L 209.105455 279.419822 
L 212.712727 279.419985 
L 216.32 279.420148 
L 219.927273 279.420311 
L 223.534545 279.420473 
L 227.141818 279.420635 
L 230.749091 279.420797 
L 234.356364 279.420958 
L 237.963636 279.421119 
L 241.570909 279.421279 
L 245.178182 279.421439 
L 248.785455 279.421599 
L 252.392727 279.421758 
L 256 279.421917 
L 259.607273 279.422075 
L 263.214545 279.422233 
L 266.821818 279.422391 
L 270.429091 279.422548 
L 274.036364 279.422705 
L 277.643636 279.422861 
L 281.250909 279.423018 
L 284.858182 279.423173 
L 288.465455 279.423329 
L 292.072727 279.423484 
L 295.68 279.423638 
L 299.287273 279.423792 
L 302.894545 279.423946 
L 306.501818 279.4241 
L 310.109091 279.424253 
L 313.716364 279.424405 
L 317.323636 279.424557 
L 320.930909 279.424709 
L 324.538182 279.424861 
L 328.145455 279.425012 
L 331.752727 279.425163 
L 335.36 279.425313 
L 338.967273 279.425463 
L 342.574545 279.425612 
L 346.181818 279.425761 
L 349.789091 279.42591 
L 353.396364 279.426059 
L 357.003636 279.426207 
L 360.610909 279.426354 
L 364.218182 279.426501 
L 367.825455 279.426648 
L 371.432727 279.426795 
L 375.04 279.426941 
L 378.647273 279.427086 
L 382.254545 279.427232 
L 385.861818 279.427377 
L 389.469091 279.427521 
L 393.076364 279.427665 
L 396.683636 279.427809 
L 400.290909 279.427952 
L 403.898182 279.428095 
L 407.505455 279.428238 
L 411.112727 279.42838 
L 414.72 279.428522 
L 414.72 278.016 
L 414.72 275.328 
L 414.72 272.64 
L 414.72 269.952 
L 414.72 267.264 
L 414.72 264.576 
L 414.72 261.888 
L 414.72 259.2 
L 414.72 256.512 
L 414.72 253.824 
L 414.72 251.136 
L 414.72 248.448 
L 414.72 245.76 
L 414.72 243.072 
L 414.72 240.384 
L 414.72 238.020934 
L 411.112727 238.020792 
L 407.505455 238.02065 
L 403.898182 238.020507 
L 400.290909 238.020364 
L 396.683636 238.02022 
L 393.076364 238.020076 
L 389.469091 238.019932 
L 385.861818 238.019787 
L 382.254545 238.019642 
L 378.647273 238.019497 
L 375.04 238.019351 
L 371.432727 238.019204 
L 367.825455 238.019057 
L 364.218182 238.01891 
L 360.610909 238.018762 
L 357.003636 238.018614 
L 353.396364 238.018466 
L 349.789091 238.018317 
L 346.181818 238.018168 
L 342.574545 238.018018 
L 338.967273 238.017868 
L 335.36 238.017717 
L 331.752727 238.017566 
L 328.145455 238.017415 
L 324.538182 238.017263 
L 320.930909 238.017111 
L 317.323636 238.016958 
L 313.716364 238.016805 
L 310.109091 238.016651 
L 306.501818 238.016497 
L 302.894545 238.016343 
L 299.287273 238.016188 
L 295.68 238.016033 
L 292.072727 238.015878 
L 288.465455 238.015722 
L 284.858182 238.015565 
L 281.250909 238.015408 
L 277.643636 238.015251 
L 274.036364 238.015093 
L 270.429091 238.014935 
L 266.821818 238.014777 
L 263.214545 238.014618 
L 259.607273 238.014458 
L 256 238.014299 
L 252.392727 238.014139 
L 248.785455 238.013978 
L 245.178182 238.013817 
L 241.570909 238.013656 
L 237.963636 238.013494 
L 234.356364 238.013331 
L 230.749091 238.013169 
L 227.141818 238.013006 
L 223.534545 238.012842 
L 219.927273 238.012678 
L 216.32 238.012514 
L 212.712727 238.012349 
L 209.105455 238.012184 
L 205.498182 238.012018 
L 201.890909 238.011852 
L 198.283636 238.011686 
L 194.676364 238.011519 
L 191.069091 238.011352 
L 187.461818 238.011184 
L 183.854545 238.011016 
L 180.247273 238.010848 
L 176.64 238.010679 
L 173.032727 238.010509 
L 169.425455 238.010339 
L 165.818182 238.010169 
L 162.210909 238.009999 
L 158.603636 238.009828 
L 154.996364 238.009656 
L 151.389091 238.009484 
L 147.781818 238.009312 
L 144.174545 238.009139 
L 140.567273 238.008966 
L 136.96 238.008793 
L 133.352727 238.008619 
L 129.745455 238.008445 
L 126.138182 238.00827 
L 122.530909 238.008095 
L 118.923636 238.007919 
L 115.316364 238.007743 
L 111.709091 238.007567 
L 108.101818 238.00739 
L 104.494545 238.007212 
L 100.887273 238.007035 
L 97.28 238.006857 
L 93.672727 238.006678 
L 90.065455 238.006499 
L 86.458182 238.00632 
L 82.850909 238.00614 
L 79.243636 238.00596 
L 75.636364 238.005779 
L 72.029091 238.005598 
L 68.421818 238.005417 
L 64.814545 238.005235 
L 61.207273 238.005053 
L 57.6 238.00487 
L 57.6 240.384 
L 57.6 243.072 
L 57.6 245.76 
L 57.6 248.448 
L 57.6 251.136 
L 57.6 253.824 
L 57.6 256.512 
L 57.6 259.2 
L 57.6 261.888 
L 57.6 264.576 
L 57.6 267.264 
L 57.6 269.952 
L 57.6 272.64 
L 57.6 275.328 
L 57.6 278.016 
L 57.6 279.412607 
z
" clip-path="url(#p9742154942)" style="fill: #3f4788; fill-opacity: 0.75"/>
   </g>
   <g id="PathCollection_3">
    <path d="M 61.207273 238.005053 
L 64.814545 238.005235 
L 68.421818 238.005417 
L 72.029091 238.005598 
L 75.636364 238.005779 
L 79.243636 238.00596 
L 82.850909 238.00614 
L 86.458182 238.00632 
L 90.065455 238.006499 
L 93.672727 238.006678 
L 97.28 238.006857 
L 100.887273 238.007035 
L 104.494545 238.007212 
L 108.101818 238.00739 
L 111.709091 238.007567 
L 115.316364 238.007743 
L 118.923636 238.007919 
L 122.530909 238.008095 
L 126.138182 238.00827 
L 129.745455 238.008445 
L 133.352727 238.008619 
L 136.96 238.008793 
L 140.567273 238.008966 
L 144.174545 238.009139 
L 147.781818 238.009312 
L 151.389091 238.009484 
L 154.996364 238.009656 
L 158.603636 238.009828 
L 162.210909 238.009999 
L 165.818182 238.010169 
L 169.425455 238.010339 
L 173.032727 238.010509 
L 176.64 238.010679 
L 180.247273 238.010848 
L 183.854545 238.011016 
L 187.461818 238.011184 
L 191.069091 238.011352 
L 194.676364 238.011519 
L 198.283636 238.011686 
L 201.890909 238.011852 
L 205.498182 238.012018 
L 209.105455 238.012184 
L 212.712727 238.012349 
L 216.32 238.012514 
L 219.927273 238.012678 
L 223.534545 238.012842 
L 227.141818 238.013006 
L 230.749091 238.013169 
L 234.356364 238.013331 
L 237.963636 238.013494 
L 241.570909 238.013656 
L 245.178182 238.013817 
L 248.785455 238.013978 
L 252.392727 238.014139 
L 256 238.014299 
L 259.607273 238.014458 
L 263.214545 238.014618 
L 266.821818 238.014777 
L 270.429091 238.014935 
L 274.036364 238.015093 
L 277.643636 238.015251 
L 281.250909 238.015408 
L 284.858182 238.015565 
L 288.465455 238.015722 
L 292.072727 238.015878 
L 295.68 238.016033 
L 299.287273 238.016188 
L 302.894545 238.016343 
L 306.501818 238.016497 
L 310.109091 238.016651 
L 313.716364 238.016805 
L 317.323636 238.016958 
L 320.930909 238.017111 
L 324.538182 238.017263 
L 328.145455 238.017415 
L 331.752727 238.017566 
L 335.36 238.017717 
L 338.967273 238.017868 
L 342.574545 238.018018 
L 346.181818 238.018168 
L 349.789091 238.018317 
L 353.396364 238.018466 
L 357.003636 238.018614 
L 360.610909 238.018762 
L 364.218182 238.01891 
L 367.825455 238.019057 
L 371.432727 238.019204 
L 375.04 238.019351 
L 378.647273 238.019497 
L 382.254545 238.019642 
L 385.861818 238.019787 
L 389.469091 238.019932 
L 393.076364 238.020076 
L 396.683636 238.02022 
L 400.290909 238.020364 
L 403.898182 238.020507 
L 407.505455 238.02065 
L 411.112727 238.020792 
L 414.72 238.020934 
L 414.72 237.696 
L 414.72 235.008 
L 414.72 232.32 
L 414.72 229.632 
L 414.72 226.944 
L 414.72 224.256 
L 414.72 221.568 
L 414.72 218.88 
L 414.72 216.192 
L 414.72 213.504 
L 414.72 210.816 
L 414.72 208.128 
L 414.72 205.44 
L 414.72 202.752 
L 414.72 200.064 
L 414.72 197.376 
L 414.72 196.467779 
L 411.112727 196.467637 
L 407.505455 196.467495 
L 403.898182 196.467352 
L 400.290909 196.467208 
L 396.683636 196.467065 
L 393.076364 196.46692 
L 389.469091 196.466776 
L 385.861818 196.466631 
L 382.254545 196.466485 
L 378.647273 196.466339 
L 375.04 196.466193 
L 371.432727 196.466046 
L 367.825455 196.465898 
L 364.218182 196.46575 
L 360.610909 196.465602 
L 357.003636 196.465454 
L 353.396364 196.465304 
L 349.789091 196.465155 
L 346.181818 196.465005 
L 342.574545 196.464854 
L 338.967273 196.464703 
L 335.36 196.464552 
L 331.752727 196.4644 
L 328.145455 196.464248 
L 324.538182 196.464095 
L 320.930909 196.463942 
L 317.323636 196.463788 
L 313.716364 196.463634 
L 310.109091 196.46348 
L 306.501818 196.463325 
L 302.894545 196.463169 
L 299.287273 196.463013 
L 295.68 196.462857 
L 292.072727 196.4627 
L 288.465455 196.462543 
L 284.858182 196.462385 
L 281.250909 196.462227 
L 277.643636 196.462069 
L 274.036364 196.46191 
L 270.429091 196.46175 
L 266.821818 196.46159 
L 263.214545 196.46143 
L 259.607273 196.461269 
L 256 196.461108 
L 252.392727 196.460946 
L 248.785455 196.460784 
L 245.178182 196.460622 
L 241.570909 196.460459 
L 237.963636 196.460295 
L 234.356364 196.460131 
L 230.749091 196.459967 
L 227.141818 196.459802 
L 223.534545 196.459637 
L 219.927273 196.459471 
L 216.32 196.459305 
L 212.712727 196.459138 
L 209.105455 196.458971 
L 205.498182 196.458804 
L 201.890909 196.458636 
L 198.283636 196.458467 
L 194.676364 196.458299 
L 191.069091 196.458129 
L 187.461818 196.457959 
L 183.854545 196.457789 
L 180.247273 196.457619 
L 176.64 196.457448 
L 173.032727 196.457276 
L 169.425455 196.457104 
L 165.818182 196.456932 
L 162.210909 196.456759 
L 158.603636 196.456585 
L 154.996364 196.456412 
L 151.389091 196.456237 
L 147.781818 196.456063 
L 144.174545 196.455888 
L 140.567273 196.455712 
L 136.96 196.455536 
L 133.352727 196.45536 
L 129.745455 196.455183 
L 126.138182 196.455005 
L 122.530909 196.454828 
L 118.923636 196.454649 
L 115.316364 196.454471 
L 111.709091 196.454292 
L 108.101818 196.454112 
L 104.494545 196.453932 
L 100.887273 196.453752 
L 97.28 196.453571 
L 93.672727 196.453389 
L 90.065455 196.453207 
L 86.458182 196.453025 
L 82.850909 196.452842 
L 79.243636 196.452659 
L 75.636364 196.452476 
L 72.029091 196.452292 
L 68.421818 196.452107 
L 64.814545 196.451922 
L 61.207273 196.451737 
L 57.6 196.451551 
L 57.6 197.376 
L 57.6 200.064 
L 57.6 202.752 
L 57.6 205.44 
L 57.6 208.128 
L 57.6 210.816 
L 57.6 213.504 
L 57.6 216.192 
L 57.6 218.88 
L 57.6 221.568 
L 57.6 224.256 
L 57.6 226.944 
L 57.6 229.632 
L 57.6 232.32 
L 57.6 235.008 
L 57.6 237.696 
L 57.6 238.00487 
z
" clip-path="url(#p9742154942)" style="fill: #2e6e8e; fill-opacity: 0.75"/>
   </g>
   <g id="PathCollection_4">
    <path d="M 61.207273 196.451737 
L 64.814545 196.451922 
L 68.421818 196.452107 
L 72.029091 196.452292 
L 75.636364 196.452476 
L 79.243636 196.452659 
L 82.850909 196.452842 
L 86.458182 196.453025 
L 90.065455 196.453207 
L 93.672727 196.453389 
L 97.28 196.453571 
L 100.887273 196.453752 
L 104.494545 196.453932 
L 108.101818 196.454112 
L 111.709091 196.454292 
L 115.316364 196.454471 
L 118.923636 196.454649 
L 122.530909 196.454828 
L 126.138182 196.455005 
L 129.745455 196.455183 
L 133.352727 196.45536 
L 136.96 196.455536 
L 140.567273 196.455712 
L 144.174545 196.455888 
L 147.781818 196.456063 
L 151.389091 196.456237 
L 154.996364 196.456412 
L 158.603636 196.456585 
L 162.210909 196.456759 
L 165.818182 196.456932 
L 169.425455 196.457104 
L 173.032727 196.457276 
L 176.64 196.457448 
L 180.247273 196.457619 
L 183.854545 196.457789 
L 187.461818 196.457959 
L 191.069091 196.458129 
L 194.676364 196.458299 
L 198.283636 196.458467 
L 201.890909 196.458636 
L 205.498182 196.458804 
L 209.105455 196.458971 
L 212.712727 196.459138 
L 216.32 196.459305 
L 219.927273 196.459471 
L 223.534545 196.459637 
L 227.141818 196.459802 
L 230.749091 196.459967 
L 234.356364 196.460131 
L 237.963636 196.460295 
L 241.570909 196.460459 
L 245.178182 196.460622 
L 248.785455 196.460784 
L 252.392727 196.460946 
L 256 196.461108 
L 259.607273 196.461269 
L 263.214545 196.46143 
L 266.821818 196.46159 
L 270.429091 196.46175 
L 274.036364 196.46191 
L 277.643636 196.462069 
L 281.250909 196.462227 
L 284.858182 196.462385 
L 288.465455 196.462543 
L 292.072727 196.4627 
L 295.68 196.462857 
L 299.287273 196.463013 
L 302.894545 196.463169 
L 306.501818 196.463325 
L 310.109091 196.46348 
L 313.716364 196.463634 
L 317.323636 196.463788 
L 320.930909 196.463942 
L 324.538182 196.464095 
L 328.145455 196.464248 
L 331.752727 196.4644 
L 335.36 196.464552 
L 338.967273 196.464703 
L 342.574545 196.464854 
L 346.181818 196.465005 
L 349.789091 196.465155 
L 353.396364 196.465304 
L 357.003636 196.465454 
L 360.610909 196.465602 
L 364.218182 196.46575 
L 367.825455 196.465898 
L 371.432727 196.466046 
L 375.04 196.466193 
L 378.647273 196.466339 
L 382.254545 196.466485 
L 385.861818 196.466631 
L 389.469091 196.466776 
L 393.076364 196.46692 
L 396.683636 196.467065 
L 400.290909 196.467208 
L 403.898182 196.467352 
L 407.505455 196.467495 
L 411.112727 196.467637 
L 414.72 196.467779 
L 414.72 194.688 
L 414.72 192 
L 414.72 189.312 
L 414.72 186.624 
L 414.72 183.936 
L 414.72 181.248 
L 414.72 178.56 
L 414.72 175.872 
L 414.72 173.184 
L 414.72 170.496 
L 414.72 167.808 
L 414.72 165.12 
L 414.72 162.432 
L 414.72 159.744 
L 414.72 157.056 
L 414.72 154.724576 
L 411.112727 154.724434 
L 407.505455 154.724292 
L 403.898182 154.724148 
L 400.290909 154.724005 
L 396.683636 154.723861 
L 393.076364 154.723716 
L 389.469091 154.723571 
L 385.861818 154.723425 
L 382.254545 154.723279 
L 378.647273 154.723133 
L 375.04 154.722986 
L 371.432727 154.722838 
L 367.825455 154.72269 
L 364.218182 154.722542 
L 360.610909 154.722393 
L 357.003636 154.722244 
L 353.396364 154.722094 
L 349.789091 154.721943 
L 346.181818 154.721792 
L 342.574545 154.721641 
L 338.967273 154.721489 
L 335.36 154.721337 
L 331.752727 154.721184 
L 328.145455 154.721031 
L 324.538182 154.720877 
L 320.930909 154.720723 
L 317.323636 154.720569 
L 313.716364 154.720413 
L 310.109091 154.720258 
L 306.501818 154.720102 
L 302.894545 154.719945 
L 299.287273 154.719788 
L 295.68 154.719631 
L 292.072727 154.719473 
L 288.465455 154.719314 
L 284.858182 154.719155 
L 281.250909 154.718996 
L 277.643636 154.718836 
L 274.036364 154.718675 
L 270.429091 154.718514 
L 266.821818 154.718353 
L 263.214545 154.718191 
L 259.607273 154.718029 
L 256 154.717866 
L 252.392727 154.717703 
L 248.785455 154.717539 
L 245.178182 154.717375 
L 241.570909 154.71721 
L 237.963636 154.717045 
L 234.356364 154.716879 
L 230.749091 154.716713 
L 227.141818 154.716546 
L 223.534545 154.716379 
L 219.927273 154.716212 
L 216.32 154.716044 
L 212.712727 154.715875 
L 209.105455 154.715706 
L 205.498182 154.715537 
L 201.890909 154.715367 
L 198.283636 154.715196 
L 194.676364 154.715025 
L 191.069091 154.714854 
L 187.461818 154.714682 
L 183.854545 154.71451 
L 180.247273 154.714337 
L 176.64 154.714163 
L 173.032727 154.71399 
L 169.425455 154.713815 
L 165.818182 154.713641 
L 162.210909 154.713465 
L 158.603636 154.71329 
L 154.996364 154.713113 
L 151.389091 154.712937 
L 147.781818 154.71276 
L 144.174545 154.712582 
L 140.567273 154.712404 
L 136.96 154.712225 
L 133.352727 154.712046 
L 129.745455 154.711867 
L 126.138182 154.711687 
L 122.530909 154.711506 
L 118.923636 154.711325 
L 115.316364 154.711144 
L 111.709091 154.710962 
L 108.101818 154.710779 
L 104.494545 154.710596 
L 100.887273 154.710413 
L 97.28 154.710229 
L 93.672727 154.710045 
L 90.065455 154.70986 
L 86.458182 154.709675 
L 82.850909 154.709489 
L 79.243636 154.709303 
L 75.636364 154.709116 
L 72.029091 154.708929 
L 68.421818 154.708741 
L 64.814545 154.708553 
L 61.207273 154.708364 
L 57.6 154.708175 
L 57.6 157.056 
L 57.6 159.744 
L 57.6 162.432 
L 57.6 165.12 
L 57.6 167.808 
L 57.6 170.496 
L 57.6 173.184 
L 57.6 175.872 
L 57.6 178.56 
L 57.6 181.248 
L 57.6 183.936 
L 57.6 186.624 
L 57.6 189.312 
L 57.6 192 
L 57.6 194.688 
L 57.6 196.451551 
z
" clip-path="url(#p9742154942)" style="fill: #21908d; fill-opacity: 0.75"/>
   </g>
   <g id="PathCollection_5">
    <path d="M 61.207273 154.708364 
L 64.814545 154.708553 
L 68.421818 154.708741 
L 72.029091 154.708929 
L 75.636364 154.709116 
L 79.243636 154.709303 
L 82.850909 154.709489 
L 86.458182 154.709675 
L 90.065455 154.70986 
L 93.672727 154.710045 
L 97.28 154.710229 
L 100.887273 154.710413 
L 104.494545 154.710596 
L 108.101818 154.710779 
L 111.709091 154.710962 
L 115.316364 154.711144 
L 118.923636 154.711325 
L 122.530909 154.711506 
L 126.138182 154.711687 
L 129.745455 154.711867 
L 133.352727 154.712046 
L 136.96 154.712225 
L 140.567273 154.712404 
L 144.174545 154.712582 
L 147.781818 154.71276 
L 151.389091 154.712937 
L 154.996364 154.713113 
L 158.603636 154.71329 
L 162.210909 154.713465 
L 165.818182 154.713641 
L 169.425455 154.713815 
L 173.032727 154.71399 
L 176.64 154.714163 
L 180.247273 154.714337 
L 183.854545 154.71451 
L 187.461818 154.714682 
L 191.069091 154.714854 
L 194.676364 154.715025 
L 198.283636 154.715196 
L 201.890909 154.715367 
L 205.498182 154.715537 
L 209.105455 154.715706 
L 212.712727 154.715875 
L 216.32 154.716044 
L 219.927273 154.716212 
L 223.534545 154.716379 
L 227.141818 154.716546 
L 230.749091 154.716713 
L 234.356364 154.716879 
L 237.963636 154.717045 
L 241.570909 154.71721 
L 245.178182 154.717375 
L 248.785455 154.717539 
L 252.392727 154.717703 
L 256 154.717866 
L 259.607273 154.718029 
L 263.214545 154.718191 
L 266.821818 154.718353 
L 270.429091 154.718514 
L 274.036364 154.718675 
L 277.643636 154.718836 
L 281.250909 154.718996 
L 284.858182 154.719155 
L 288.465455 154.719314 
L 292.072727 154.719473 
L 295.68 154.719631 
L 299.287273 154.719788 
L 302.894545 154.719945 
L 306.501818 154.720102 
L 310.109091 154.720258 
L 313.716364 154.720413 
L 317.323636 154.720569 
L 320.930909 154.720723 
L 324.538182 154.720877 
L 328.145455 154.721031 
L 331.752727 154.721184 
L 335.36 154.721337 
L 338.967273 154.721489 
L 342.574545 154.721641 
L 346.181818 154.721792 
L 349.789091 154.721943 
L 353.396364 154.722094 
L 357.003636 154.722244 
L 360.610909 154.722393 
L 364.218182 154.722542 
L 367.825455 154.72269 
L 371.432727 154.722838 
L 375.04 154.722986 
L 378.647273 154.723133 
L 382.254545 154.723279 
L 385.861818 154.723425 
L 389.469091 154.723571 
L 393.076364 154.723716 
L 396.683636 154.723861 
L 400.290909 154.724005 
L 403.898182 154.724148 
L 407.505455 154.724292 
L 411.112727 154.724434 
L 414.72 154.724576 
L 414.72 154.368 
L 414.72 151.68 
L 414.72 148.992 
L 414.72 146.304 
L 414.72 143.616 
L 414.72 140.928 
L 414.72 138.24 
L 414.72 135.552 
L 414.72 132.864 
L 414.72 130.176 
L 414.72 127.488 
L 414.72 124.8 
L 414.72 122.112 
L 414.72 119.424 
L 414.72 116.736 
L 414.72 114.048 
L 414.72 112.744606 
L 411.112727 112.744463 
L 407.505455 112.74432 
L 403.898182 112.744176 
L 400.290909 112.744032 
L 396.683636 112.743887 
L 393.076364 112.743742 
L 389.469091 112.743597 
L 385.861818 112.743451 
L 382.254545 112.743304 
L 378.647273 112.743157 
L 375.04 112.743009 
L 371.432727 112.742861 
L 367.825455 112.742712 
L 364.218182 112.742563 
L 360.610909 112.742413 
L 357.003636 112.742263 
L 353.396364 112.742112 
L 349.789091 112.741961 
L 346.181818 112.741809 
L 342.574545 112.741657 
L 338.967273 112.741504 
L 335.36 112.741351 
L 331.752727 112.741197 
L 328.145455 112.741042 
L 324.538182 112.740888 
L 320.930909 112.740732 
L 317.323636 112.740576 
L 313.716364 112.74042 
L 310.109091 112.740263 
L 306.501818 112.740106 
L 302.894545 112.739948 
L 299.287273 112.739789 
L 295.68 112.73963 
L 292.072727 112.739471 
L 288.465455 112.739311 
L 284.858182 112.739151 
L 281.250909 112.73899 
L 277.643636 112.738828 
L 274.036364 112.738666 
L 270.429091 112.738504 
L 266.821818 112.738341 
L 263.214545 112.738177 
L 259.607273 112.738013 
L 256 112.737848 
L 252.392727 112.737683 
L 248.785455 112.737518 
L 245.178182 112.737352 
L 241.570909 112.737185 
L 237.963636 112.737018 
L 234.356364 112.73685 
L 230.749091 112.736682 
L 227.141818 112.736514 
L 223.534545 112.736344 
L 219.927273 112.736175 
L 216.32 112.736005 
L 212.712727 112.735834 
L 209.105455 112.735663 
L 205.498182 112.735491 
L 201.890909 112.735319 
L 198.283636 112.735146 
L 194.676364 112.734973 
L 191.069091 112.734799 
L 187.461818 112.734625 
L 183.854545 112.73445 
L 180.247273 112.734275 
L 176.64 112.734099 
L 173.032727 112.733923 
L 169.425455 112.733746 
L 165.818182 112.733569 
L 162.210909 112.733391 
L 158.603636 112.733212 
L 154.996364 112.733034 
L 151.389091 112.732854 
L 147.781818 112.732674 
L 144.174545 112.732494 
L 140.567273 112.732313 
L 136.96 112.732132 
L 133.352727 112.73195 
L 129.745455 112.731767 
L 126.138182 112.731584 
L 122.530909 112.731401 
L 118.923636 112.731217 
L 115.316364 112.731032 
L 111.709091 112.730847 
L 108.101818 112.730662 
L 104.494545 112.730476 
L 100.887273 112.730289 
L 97.28 112.730102 
L 93.672727 112.729915 
L 90.065455 112.729727 
L 86.458182 112.729538 
L 82.850909 112.729349 
L 79.243636 112.72916 
L 75.636364 112.72897 
L 72.029091 112.728779 
L 68.421818 112.728588 
L 64.814545 112.728396 
L 61.207273 112.728204 
L 57.6 112.728011 
L 57.6 114.048 
L 57.6 116.736 
L 57.6 119.424 
L 57.6 122.112 
L 57.6 124.8 
L 57.6 127.488 
L 57.6 130.176 
L 57.6 132.864 
L 57.6 135.552 
L 57.6 138.24 
L 57.6 140.928 
L 57.6 143.616 
L 57.6 146.304 
L 57.6 148.992 
L 57.6 151.68 
L 57.6 154.368 
L 57.6 154.708175 
z
" clip-path="url(#p9742154942)" style="fill: #2db27d; fill-opacity: 0.75"/>
   </g>
   <g id="PathCollection_6">
    <path d="M 61.207273 112.728204 
L 64.814545 112.728396 
L 68.421818 112.728588 
L 72.029091 112.728779 
L 75.636364 112.72897 
L 79.243636 112.72916 
L 82.850909 112.729349 
L 86.458182 112.729538 
L 90.065455 112.729727 
L 93.672727 112.729915 
L 97.28 112.730102 
L 100.887273 112.730289 
L 104.494545 112.730476 
L 108.101818 112.730662 
L 111.709091 112.730847 
L 115.316364 112.731032 
L 118.923636 112.731217 
L 122.530909 112.731401 
L 126.138182 112.731584 
L 129.745455 112.731767 
L 133.352727 112.73195 
L 136.96 112.732132 
L 140.567273 112.732313 
L 144.174545 112.732494 
L 147.781818 112.732674 
L 151.389091 112.732854 
L 154.996364 112.733034 
L 158.603636 112.733212 
L 162.210909 112.733391 
L 165.818182 112.733569 
L 169.425455 112.733746 
L 173.032727 112.733923 
L 176.64 112.734099 
L 180.247273 112.734275 
L 183.854545 112.73445 
L 187.461818 112.734625 
L 191.069091 112.734799 
L 194.676364 112.734973 
L 198.283636 112.735146 
L 201.890909 112.735319 
L 205.498182 112.735491 
L 209.105455 112.735663 
L 212.712727 112.735834 
L 216.32 112.736005 
L 219.927273 112.736175 
L 223.534545 112.736344 
L 227.141818 112.736514 
L 230.749091 112.736682 
L 234.356364 112.73685 
L 237.963636 112.737018 
L 241.570909 112.737185 
L 245.178182 112.737352 
L 248.785455 112.737518 
L 252.392727 112.737683 
L 256 112.737848 
L 259.607273 112.738013 
L 263.214545 112.738177 
L 266.821818 112.738341 
L 270.429091 112.738504 
L 274.036364 112.738666 
L 277.643636 112.738828 
L 281.250909 112.73899 
L 284.858182 112.739151 
L 288.465455 112.739311 
L 292.072727 112.739471 
L 295.68 112.73963 
L 299.287273 112.739789 
L 302.894545 112.739948 
L 306.501818 112.740106 
L 310.109091 112.740263 
L 313.716364 112.74042 
L 317.323636 112.740576 
L 320.930909 112.740732 
L 324.538182 112.740888 
L 328.145455 112.741042 
L 331.752727 112.741197 
L 335.36 112.741351 
L 338.967273 112.741504 
L 342.574545 112.741657 
L 346.181818 112.741809 
L 349.789091 112.741961 
L 353.396364 112.742112 
L 357.003636 112.742263 
L 360.610909 112.742413 
L 364.218182 112.742563 
L 367.825455 112.742712 
L 371.432727 112.742861 
L 375.04 112.743009 
L 378.647273 112.743157 
L 382.254545 112.743304 
L 385.861818 112.743451 
L 389.469091 112.743597 
L 393.076364 112.743742 
L 396.683636 112.743887 
L 400.290909 112.744032 
L 403.898182 112.744176 
L 407.505455 112.74432 
L 411.112727 112.744463 
L 414.72 112.744606 
L 414.72 111.36 
L 414.72 108.672 
L 414.72 105.984 
L 414.72 103.296 
L 414.72 100.608 
L 414.72 97.92 
L 414.72 95.232 
L 414.72 92.544 
L 414.72 89.856 
L 414.72 87.168 
L 414.72 84.48 
L 414.72 81.792 
L 414.72 79.104 
L 414.72 76.416 
L 414.72 73.728 
L 414.72 71.04 
L 414.72 70.479261 
L 411.112727 70.479118 
L 407.505455 70.478974 
L 403.898182 70.47883 
L 400.290909 70.478685 
L 396.683636 70.47854 
L 393.076364 70.478394 
L 389.469091 70.478248 
L 385.861818 70.478101 
L 382.254545 70.477954 
L 378.647273 70.477806 
L 375.04 70.477657 
L 371.432727 70.477508 
L 367.825455 70.477358 
L 364.218182 70.477208 
L 360.610909 70.477058 
L 357.003636 70.476906 
L 353.396364 70.476755 
L 349.789091 70.476602 
L 346.181818 70.476449 
L 342.574545 70.476296 
L 338.967273 70.476142 
L 335.36 70.475988 
L 331.752727 70.475833 
L 328.145455 70.475677 
L 324.538182 70.475521 
L 320.930909 70.475364 
L 317.323636 70.475207 
L 313.716364 70.475049 
L 310.109091 70.474891 
L 306.501818 70.474732 
L 302.894545 70.474573 
L 299.287273 70.474413 
L 295.68 70.474252 
L 292.072727 70.474091 
L 288.465455 70.47393 
L 284.858182 70.473768 
L 281.250909 70.473605 
L 277.643636 70.473442 
L 274.036364 70.473278 
L 270.429091 70.473114 
L 266.821818 70.472949 
L 263.214545 70.472784 
L 259.607273 70.472618 
L 256 70.472451 
L 252.392727 70.472284 
L 248.785455 70.472117 
L 245.178182 70.471949 
L 241.570909 70.47178 
L 237.963636 70.471611 
L 234.356364 70.471441 
L 230.749091 70.471271 
L 227.141818 70.4711 
L 223.534545 70.470929 
L 219.927273 70.470757 
L 216.32 70.470584 
L 212.712727 70.470411 
L 209.105455 70.470238 
L 205.498182 70.470064 
L 201.890909 70.469889 
L 198.283636 70.469714 
L 194.676364 70.469538 
L 191.069091 70.469362 
L 187.461818 70.469185 
L 183.854545 70.469008 
L 180.247273 70.46883 
L 176.64 70.468651 
L 173.032727 70.468472 
L 169.425455 70.468293 
L 165.818182 70.468113 
L 162.210909 70.467932 
L 158.603636 70.467751 
L 154.996364 70.467569 
L 151.389091 70.467387 
L 147.781818 70.467204 
L 144.174545 70.467021 
L 140.567273 70.466837 
L 136.96 70.466653 
L 133.352727 70.466468 
L 129.745455 70.466282 
L 126.138182 70.466096 
L 122.530909 70.46591 
L 118.923636 70.465723 
L 115.316364 70.465535 
L 111.709091 70.465347 
L 108.101818 70.465158 
L 104.494545 70.464969 
L 100.887273 70.464779 
L 97.28 70.464588 
L 93.672727 70.464397 
L 90.065455 70.464206 
L 86.458182 70.464014 
L 82.850909 70.463821 
L 79.243636 70.463628 
L 75.636364 70.463435 
L 72.029091 70.46324 
L 68.421818 70.463046 
L 64.814545 70.46285 
L 61.207273 70.462654 
L 57.6 70.462458 
L 57.6 71.04 
L 57.6 73.728 
L 57.6 76.416 
L 57.6 79.104 
L 57.6 81.792 
L 57.6 84.48 
L 57.6 87.168 
L 57.6 89.856 
L 57.6 92.544 
L 57.6 95.232 
L 57.6 97.92 
L 57.6 100.608 
L 57.6 103.296 
L 57.6 105.984 
L 57.6 108.672 
L 57.6 111.36 
L 57.6 112.728011 
z
" clip-path="url(#p9742154942)" style="fill: #73d056; fill-opacity: 0.75"/>
   </g>
   <g id="PathCollection_7">
    <path d="M 61.207273 70.462654 
L 64.814545 70.46285 
L 68.421818 70.463046 
L 72.029091 70.46324 
L 75.636364 70.463435 
L 79.243636 70.463628 
L 82.850909 70.463821 
L 86.458182 70.464014 
L 90.065455 70.464206 
L 93.672727 70.464397 
L 97.28 70.464588 
L 100.887273 70.464779 
L 104.494545 70.464969 
L 108.101818 70.465158 
L 111.709091 70.465347 
L 115.316364 70.465535 
L 118.923636 70.465723 
L 122.530909 70.46591 
L 126.138182 70.466096 
L 129.745455 70.466282 
L 133.352727 70.466468 
L 136.96 70.466653 
L 140.567273 70.466837 
L 144.174545 70.467021 
L 147.781818 70.467204 
L 151.389091 70.467387 
L 154.996364 70.467569 
L 158.603636 70.467751 
L 162.210909 70.467932 
L 165.818182 70.468113 
L 169.425455 70.468293 
L 173.032727 70.468472 
L 176.64 70.468651 
L 180.247273 70.46883 
L 183.854545 70.469008 
L 187.461818 70.469185 
L 191.069091 70.469362 
L 194.676364 70.469538 
L 198.283636 70.469714 
L 201.890909 70.469889 
L 205.498182 70.470064 
L 209.105455 70.470238 
L 212.712727 70.470411 
L 216.32 70.470584 
L 219.927273 70.470757 
L 223.534545 70.470929 
L 227.141818 70.4711 
L 230.749091 70.471271 
L 234.356364 70.471441 
L 237.963636 70.471611 
L 241.570909 70.47178 
L 245.178182 70.471949 
L 248.785455 70.472117 
L 252.392727 70.472284 
L 256 70.472451 
L 259.607273 70.472618 
L 263.214545 70.472784 
L 266.821818 70.472949 
L 270.429091 70.473114 
L 274.036364 70.473278 
L 277.643636 70.473442 
L 281.250909 70.473605 
L 284.858182 70.473768 
L 288.465455 70.47393 
L 292.072727 70.474091 
L 295.68 70.474252 
L 299.287273 70.474413 
L 302.894545 70.474573 
L 306.501818 70.474732 
L 310.109091 70.474891 
L 313.716364 70.475049 
L 317.323636 70.475207 
L 320.930909 70.475364 
L 324.538182 70.475521 
L 328.145455 70.475677 
L 331.752727 70.475833 
L 335.36 70.475988 
L 338.967273 70.476142 
L 342.574545 70.476296 
L 346.181818 70.476449 
L 349.789091 70.476602 
L 353.396364 70.476755 
L 357.003636 70.476906 
L 360.610909 70.477058 
L 364.218182 70.477208 
L 367.825455 70.477358 
L 371.432727 70.477508 
L 375.04 70.477657 
L 378.647273 70.477806 
L 382.254545 70.477954 
L 385.861818 70.478101 
L 389.469091 70.478248 
L 393.076364 70.478394 
L 396.683636 70.47854 
L 400.290909 70.478685 
L 403.898182 70.47883 
L 407.505455 70.478974 
L 411.112727 70.479118 
L 414.72 70.479261 
L 414.72 68.352 
L 414.72 65.664 
L 414.72 62.976 
L 414.72 60.288 
L 414.72 57.6 
L 414.72 54.912 
L 414.72 52.224 
L 414.72 49.536 
L 414.72 46.848 
L 414.72 44.16 
L 414.72 41.472 
L 411.112727 41.472 
L 407.505455 41.472 
L 403.898182 41.472 
L 400.290909 41.472 
L 396.683636 41.472 
L 393.076364 41.472 
L 389.469091 41.472 
L 385.861818 41.472 
L 382.254545 41.472 
L 378.647273 41.472 
L 375.04 41.472 
L 371.432727 41.472 
L 367.825455 41.472 
L 364.218182 41.472 
L 360.610909 41.472 
L 357.003636 41.472 
L 353.396364 41.472 
L 349.789091 41.472 
L 346.181818 41.472 
L 342.574545 41.472 
L 338.967273 41.472 
L 335.36 41.472 
L 331.752727 41.472 
L 328.145455 41.472 
L 324.538182 41.472 
L 320.930909 41.472 
L 317.323636 41.472 
L 313.716364 41.472 
L 310.109091 41.472 
L 306.501818 41.472 
L 302.894545 41.472 
L 299.287273 41.472 
L 295.68 41.472 
L 292.072727 41.472 
L 288.465455 41.472 
L 284.858182 41.472 
L 281.250909 41.472 
L 277.643636 41.472 
L 274.036364 41.472 
L 270.429091 41.472 
L 266.821818 41.472 
L 263.214545 41.472 
L 259.607273 41.472 
L 256 41.472 
L 252.392727 41.472 
L 248.785455 41.472 
L 245.178182 41.472 
L 241.570909 41.472 
L 237.963636 41.472 
L 234.356364 41.472 
L 230.749091 41.472 
L 227.141818 41.472 
L 223.534545 41.472 
L 219.927273 41.472 
L 216.32 41.472 
L 212.712727 41.472 
L 209.105455 41.472 
L 205.498182 41.472 
L 201.890909 41.472 
L 198.283636 41.472 
L 194.676364 41.472 
L 191.069091 41.472 
L 187.461818 41.472 
L 183.854545 41.472 
L 180.247273 41.472 
L 176.64 41.472 
L 173.032727 41.472 
L 169.425455 41.472 
L 165.818182 41.472 
L 162.210909 41.472 
L 158.603636 41.472 
L 154.996364 41.472 
L 151.389091 41.472 
L 147.781818 41.472 
L 144.174545 41.472 
L 140.567273 41.472 
L 136.96 41.472 
L 133.352727 41.472 
L 129.745455 41.472 
L 126.138182 41.472 
L 122.530909 41.472 
L 118.923636 41.472 
L 115.316364 41.472 
L 111.709091 41.472 
L 108.101818 41.472 
L 104.494545 41.472 
L 100.887273 41.472 
L 97.28 41.472 
L 93.672727 41.472 
L 90.065455 41.472 
L 86.458182 41.472 
L 82.850909 41.472 
L 79.243636 41.472 
L 75.636364 41.472 
L 72.029091 41.472 
L 68.421818 41.472 
L 64.814545 41.472 
L 61.207273 41.472 
L 57.6 41.472 
L 57.6 44.16 
L 57.6 46.848 
L 57.6 49.536 
L 57.6 52.224 
L 57.6 54.912 
L 57.6 57.6 
L 57.6 60.288 
L 57.6 62.976 
L 57.6 65.664 
L 57.6 68.352 
L 57.6 70.462458 
z
" clip-path="url(#p9742154942)" style="fill: #d0e11c; fill-opacity: 0.75"/>
   </g>
   <g id="matplotlib.axis_1">
    <g id="xtick_1">
     <g id="line2d_1">
      <defs>
       <path id="m07bb38e749" d="M 0 0 
L 0 3.5 
" style="stroke: #000000; stroke-width: 0.8"/>
      </defs>
      <g>
       <use xlink:href="#m07bb38e749" x="63.755427" y="307.584" style="stroke: #000000; stroke-width: 0.8"/>
      </g>
     </g>
     <g id="text_1">
      <!-- 0.05 -->
      <g transform="translate(52.622615 322.182437) scale(0.1 -0.1)">
       <defs>
        <path id="DejaVuSans-30" d="M 2034 4250 
Q 1547 4250 1301 3770 
Q 1056 3291 1056 2328 
Q 1056 1369 1301 889 
Q 1547 409 2034 409 
Q 2525 409 2770 889 
Q 3016 1369 3016 2328 
Q 3016 3291 2770 3770 
Q 2525 4250 2034 4250 
z
M 2034 4750 
Q 2819 4750 3233 4129 
Q 3647 3509 3647 2328 
Q 3647 1150 3233 529 
Q 2819 -91 2034 -91 
Q 1250 -91 836 529 
Q 422 1150 422 2328 
Q 422 3509 836 4129 
Q 1250 4750 2034 4750 
z
" transform="scale(0.015625)"/>
        <path id="DejaVuSans-2e" d="M 684 794 
L 1344 794 
L 1344 0 
L 684 0 
L 684 794 
z
" transform="scale(0.015625)"/>
        <path id="DejaVuSans-35" d="M 691 4666 
L 3169 4666 
L 3169 4134 
L 1269 4134 
L 1269 2991 
Q 1406 3038 1543 3061 
Q 1681 3084 1819 3084 
Q 2600 3084 3056 2656 
Q 3513 2228 3513 1497 
Q 3513 744 3044 326 
Q 2575 -91 1722 -91 
Q 1428 -91 1123 -41 
Q 819 9 494 109 
L 494 744 
Q 775 591 1075 516 
Q 1375 441 1709 441 
Q 2250 441 2565 725 
Q 2881 1009 2881 1497 
Q 2881 1984 2565 2268 
Q 2250 2553 1709 2553 
Q 1456 2553 1204 2497 
Q 953 2441 691 2322 
L 691 4666 
z
" transform="scale(0.015625)"/>
       </defs>
       <use xlink:href="#DejaVuSans-30"/>
       <use xlink:href="#DejaVuSans-2e" x="63.623047"/>
       <use xlink:href="#DejaVuSans-30" x="95.410156"/>
       <use xlink:href="#DejaVuSans-35" x="159.033203"/>
      </g>
     </g>
    </g>
    <g id="xtick_2">
     <g id="line2d_2">
      <g>
       <use xlink:href="#m07bb38e749" x="129.518539" y="307.584" style="stroke: #000000; stroke-width: 0.8"/>
      </g>
     </g>
     <g id="text_2">
      <!-- 0.10 -->
      <g transform="translate(118.385726 322.182437) scale(0.1 -0.1)">
       <defs>
        <path id="DejaVuSans-31" d="M 794 531 
L 1825 531 
L 1825 4091 
L 703 3866 
L 703 4441 
L 1819 4666 
L 2450 4666 
L 2450 531 
L 3481 531 
L 3481 0 
L 794 0 
L 794 531 
z
" transform="scale(0.015625)"/>
       </defs>
       <use xlink:href="#DejaVuSans-30"/>
       <use xlink:href="#DejaVuSans-2e" x="63.623047"/>
       <use xlink:href="#DejaVuSans-31" x="95.410156"/>
       <use xlink:href="#DejaVuSans-30" x="159.033203"/>
      </g>
     </g>
    </g>
    <g id="xtick_3">
     <g id="line2d_3">
      <g>
       <use xlink:href="#m07bb38e749" x="195.28165" y="307.584" style="stroke: #000000; stroke-width: 0.8"/>
      </g>
     </g>
     <g id="text_3">
      <!-- 0.15 -->
      <g transform="translate(184.148837 322.182437) scale(0.1 -0.1)">
       <use xlink:href="#DejaVuSans-30"/>
       <use xlink:href="#DejaVuSans-2e" x="63.623047"/>
       <use xlink:href="#DejaVuSans-31" x="95.410156"/>
       <use xlink:href="#DejaVuSans-35" x="159.033203"/>
      </g>
     </g>
    </g>
    <g id="xtick_4">
     <g id="line2d_4">
      <g>
       <use xlink:href="#m07bb38e749" x="261.044761" y="307.584" style="stroke: #000000; stroke-width: 0.8"/>
      </g>
     </g>
     <g id="text_4">
      <!-- 0.20 -->
      <g transform="translate(249.911949 322.182437) scale(0.1 -0.1)">
       <defs>
        <path id="DejaVuSans-32" d="M 1228 531 
L 3431 531 
L 3431 0 
L 469 0 
L 469 531 
Q 828 903 1448 1529 
Q 2069 2156 2228 2338 
Q 2531 2678 2651 2914 
Q 2772 3150 2772 3378 
Q 2772 3750 2511 3984 
Q 2250 4219 1831 4219 
Q 1534 4219 1204 4116 
Q 875 4013 500 3803 
L 500 4441 
Q 881 4594 1212 4672 
Q 1544 4750 1819 4750 
Q 2544 4750 2975 4387 
Q 3406 4025 3406 3419 
Q 3406 3131 3298 2873 
Q 3191 2616 2906 2266 
Q 2828 2175 2409 1742 
Q 1991 1309 1228 531 
z
" transform="scale(0.015625)"/>
       </defs>
       <use xlink:href="#DejaVuSans-30"/>
       <use xlink:href="#DejaVuSans-2e" x="63.623047"/>
       <use xlink:href="#DejaVuSans-32" x="95.410156"/>
       <use xlink:href="#DejaVuSans-30" x="159.033203"/>
      </g>
     </g>
    </g>
    <g id="xtick_5">
     <g id="line2d_5">
      <g>
       <use xlink:href="#m07bb38e749" x="326.807873" y="307.584" style="stroke: #000000; stroke-width: 0.8"/>
      </g>
     </g>
     <g id="text_5">
      <!-- 0.25 -->
      <g transform="translate(315.67506 322.182437) scale(0.1 -0.1)">
       <use xlink:href="#DejaVuSans-30"/>
       <use xlink:href="#DejaVuSans-2e" x="63.623047"/>
       <use xlink:href="#DejaVuSans-32" x="95.410156"/>
       <use xlink:href="#DejaVuSans-35" x="159.033203"/>
      </g>
     </g>
    </g>
    <g id="xtick_6">
     <g id="line2d_6">
      <g>
       <use xlink:href="#m07bb38e749" x="392.570984" y="307.584" style="stroke: #000000; stroke-width: 0.8"/>
      </g>
     </g>
     <g id="text_6">
      <!-- 0.30 -->
      <g transform="translate(381.438172 322.182437) scale(0.1 -0.1)">
       <defs>
        <path id="DejaVuSans-33" d="M 2597 2516 
Q 3050 2419 3304 2112 
Q 3559 1806 3559 1356 
Q 3559 666 3084 287 
Q 2609 -91 1734 -91 
Q 1441 -91 1130 -33 
Q 819 25 488 141 
L 488 750 
Q 750 597 1062 519 
Q 1375 441 1716 441 
Q 2309 441 2620 675 
Q 2931 909 2931 1356 
Q 2931 1769 2642 2001 
Q 2353 2234 1838 2234 
L 1294 2234 
L 1294 2753 
L 1863 2753 
Q 2328 2753 2575 2939 
Q 2822 3125 2822 3475 
Q 2822 3834 2567 4026 
Q 2313 4219 1838 4219 
Q 1578 4219 1281 4162 
Q 984 4106 628 3988 
L 628 4550 
Q 988 4650 1302 4700 
Q 1616 4750 1894 4750 
Q 2613 4750 3031 4423 
Q 3450 4097 3450 3541 
Q 3450 3153 3228 2886 
Q 3006 2619 2597 2516 
z
" transform="scale(0.015625)"/>
       </defs>
       <use xlink:href="#DejaVuSans-30"/>
       <use xlink:href="#DejaVuSans-2e" x="63.623047"/>
       <use xlink:href="#DejaVuSans-33" x="95.410156"/>
       <use xlink:href="#DejaVuSans-30" x="159.033203"/>
      </g>
     </g>
    </g>
    <g id="text_7">
     <!-- Obesity Rate -->
     <g transform="translate(204.008437 335.860562) scale(0.1 -0.1)">
      <defs>
       <path id="DejaVuSans-4f" d="M 2522 4238 
Q 1834 4238 1429 3725 
Q 1025 3213 1025 2328 
Q 1025 1447 1429 934 
Q 1834 422 2522 422 
Q 3209 422 3611 934 
Q 4013 1447 4013 2328 
Q 4013 3213 3611 3725 
Q 3209 4238 2522 4238 
z
M 2522 4750 
Q 3503 4750 4090 4092 
Q 4678 3434 4678 2328 
Q 4678 1225 4090 567 
Q 3503 -91 2522 -91 
Q 1538 -91 948 565 
Q 359 1222 359 2328 
Q 359 3434 948 4092 
Q 1538 4750 2522 4750 
z
" transform="scale(0.015625)"/>
       <path id="DejaVuSans-62" d="M 3116 1747 
Q 3116 2381 2855 2742 
Q 2594 3103 2138 3103 
Q 1681 3103 1420 2742 
Q 1159 2381 1159 1747 
Q 1159 1113 1420 752 
Q 1681 391 2138 391 
Q 2594 391 2855 752 
Q 3116 1113 3116 1747 
z
M 1159 2969 
Q 1341 3281 1617 3432 
Q 1894 3584 2278 3584 
Q 2916 3584 3314 3078 
Q 3713 2572 3713 1747 
Q 3713 922 3314 415 
Q 2916 -91 2278 -91 
Q 1894 -91 1617 61 
Q 1341 213 1159 525 
L 1159 0 
L 581 0 
L 581 4863 
L 1159 4863 
L 1159 2969 
z
" transform="scale(0.015625)"/>
       <path id="DejaVuSans-65" d="M 3597 1894 
L 3597 1613 
L 953 1613 
Q 991 1019 1311 708 
Q 1631 397 2203 397 
Q 2534 397 2845 478 
Q 3156 559 3463 722 
L 3463 178 
Q 3153 47 2828 -22 
Q 2503 -91 2169 -91 
Q 1331 -91 842 396 
Q 353 884 353 1716 
Q 353 2575 817 3079 
Q 1281 3584 2069 3584 
Q 2775 3584 3186 3129 
Q 3597 2675 3597 1894 
z
M 3022 2063 
Q 3016 2534 2758 2815 
Q 2500 3097 2075 3097 
Q 1594 3097 1305 2825 
Q 1016 2553 972 2059 
L 3022 2063 
z
" transform="scale(0.015625)"/>
       <path id="DejaVuSans-73" d="M 2834 3397 
L 2834 2853 
Q 2591 2978 2328 3040 
Q 2066 3103 1784 3103 
Q 1356 3103 1142 2972 
Q 928 2841 928 2578 
Q 928 2378 1081 2264 
Q 1234 2150 1697 2047 
L 1894 2003 
Q 2506 1872 2764 1633 
Q 3022 1394 3022 966 
Q 3022 478 2636 193 
Q 2250 -91 1575 -91 
Q 1294 -91 989 -36 
Q 684 19 347 128 
L 347 722 
Q 666 556 975 473 
Q 1284 391 1588 391 
Q 1994 391 2212 530 
Q 2431 669 2431 922 
Q 2431 1156 2273 1281 
Q 2116 1406 1581 1522 
L 1381 1569 
Q 847 1681 609 1914 
Q 372 2147 372 2553 
Q 372 3047 722 3315 
Q 1072 3584 1716 3584 
Q 2034 3584 2315 3537 
Q 2597 3491 2834 3397 
z
" transform="scale(0.015625)"/>
       <path id="DejaVuSans-69" d="M 603 3500 
L 1178 3500 
L 1178 0 
L 603 0 
L 603 3500 
z
M 603 4863 
L 1178 4863 
L 1178 4134 
L 603 4134 
L 603 4863 
z
" transform="scale(0.015625)"/>
       <path id="DejaVuSans-74" d="M 1172 4494 
L 1172 3500 
L 2356 3500 
L 2356 3053 
L 1172 3053 
L 1172 1153 
Q 1172 725 1289 603 
Q 1406 481 1766 481 
L 2356 481 
L 2356 0 
L 1766 0 
Q 1100 0 847 248 
Q 594 497 594 1153 
L 594 3053 
L 172 3053 
L 172 3500 
L 594 3500 
L 594 4494 
L 1172 4494 
z
" transform="scale(0.015625)"/>
       <path id="DejaVuSans-79" d="M 2059 -325 
Q 1816 -950 1584 -1140 
Q 1353 -1331 966 -1331 
L 506 -1331 
L 506 -850 
L 844 -850 
Q 1081 -850 1212 -737 
Q 1344 -625 1503 -206 
L 1606 56 
L 191 3500 
L 800 3500 
L 1894 763 
L 2988 3500 
L 3597 3500 
L 2059 -325 
z
" transform="scale(0.015625)"/>
       <path id="DejaVuSans-20" transform="scale(0.015625)"/>
       <path id="DejaVuSans-52" d="M 2841 2188 
Q 3044 2119 3236 1894 
Q 3428 1669 3622 1275 
L 4263 0 
L 3584 0 
L 2988 1197 
Q 2756 1666 2539 1819 
Q 2322 1972 1947 1972 
L 1259 1972 
L 1259 0 
L 628 0 
L 628 4666 
L 2053 4666 
Q 2853 4666 3247 4331 
Q 3641 3997 3641 3322 
Q 3641 2881 3436 2590 
Q 3231 2300 2841 2188 
z
M 1259 4147 
L 1259 2491 
L 2053 2491 
Q 2509 2491 2742 2702 
Q 2975 2913 2975 3322 
Q 2975 3731 2742 3939 
Q 2509 4147 2053 4147 
L 1259 4147 
z
" transform="scale(0.015625)"/>
       <path id="DejaVuSans-61" d="M 2194 1759 
Q 1497 1759 1228 1600 
Q 959 1441 959 1056 
Q 959 750 1161 570 
Q 1363 391 1709 391 
Q 2188 391 2477 730 
Q 2766 1069 2766 1631 
L 2766 1759 
L 2194 1759 
z
M 3341 1997 
L 3341 0 
L 2766 0 
L 2766 531 
Q 2569 213 2275 61 
Q 1981 -91 1556 -91 
Q 1019 -91 701 211 
Q 384 513 384 1019 
Q 384 1609 779 1909 
Q 1175 2209 1959 2209 
L 2766 2209 
L 2766 2266 
Q 2766 2663 2505 2880 
Q 2244 3097 1772 3097 
Q 1472 3097 1187 3025 
Q 903 2953 641 2809 
L 641 3341 
Q 956 3463 1253 3523 
Q 1550 3584 1831 3584 
Q 2591 3584 2966 3190 
Q 3341 2797 3341 1997 
z
" transform="scale(0.015625)"/>
      </defs>
      <use xlink:href="#DejaVuSans-4f"/>
      <use xlink:href="#DejaVuSans-62" x="78.710938"/>
      <use xlink:href="#DejaVuSans-65" x="142.1875"/>
      <use xlink:href="#DejaVuSans-73" x="203.710938"/>
      <use xlink:href="#DejaVuSans-69" x="255.810547"/>
      <use xlink:href="#DejaVuSans-74" x="283.59375"/>
      <use xlink:href="#DejaVuSans-79" x="322.802734"/>
      <use xlink:href="#DejaVuSans-20" x="381.982422"/>
      <use xlink:href="#DejaVuSans-52" x="413.769531"/>
      <use xlink:href="#DejaVuSans-61" x="481.001953"/>
      <use xlink:href="#DejaVuSans-74" x="542.28125"/>
      <use xlink:href="#DejaVuSans-65" x="581.490234"/>
     </g>
    </g>
   </g>
   <g id="matplotlib.axis_2">
    <g id="ytick_1">
     <g id="line2d_7">
      <defs>
       <path id="m4a2860a203" d="M 0 0 
L -3.5 0 
" style="stroke: #000000; stroke-width: 0.8"/>
      </defs>
      <g>
       <use xlink:href="#m4a2860a203" x="57.6" y="272.332353" style="stroke: #000000; stroke-width: 0.8"/>
      </g>
     </g>
     <g id="text_8">
      <!-- 2 -->
      <g transform="translate(44.2375 276.131571) scale(0.1 -0.1)">
       <use xlink:href="#DejaVuSans-32"/>
      </g>
     </g>
    </g>
    <g id="ytick_2">
     <g id="line2d_8">
      <g>
       <use xlink:href="#m4a2860a203" x="57.6" y="229.216345" style="stroke: #000000; stroke-width: 0.8"/>
      </g>
     </g>
     <g id="text_9">
      <!-- 4 -->
      <g transform="translate(44.2375 233.015564) scale(0.1 -0.1)">
       <defs>
        <path id="DejaVuSans-34" d="M 2419 4116 
L 825 1625 
L 2419 1625 
L 2419 4116 
z
M 2253 4666 
L 3047 4666 
L 3047 1625 
L 3713 1625 
L 3713 1100 
L 3047 1100 
L 3047 0 
L 2419 0 
L 2419 1100 
L 313 1100 
L 313 1709 
L 2253 4666 
z
" transform="scale(0.015625)"/>
       </defs>
       <use xlink:href="#DejaVuSans-34"/>
      </g>
     </g>
    </g>
    <g id="ytick_3">
     <g id="line2d_9">
      <g>
       <use xlink:href="#m4a2860a203" x="57.6" y="186.100338" style="stroke: #000000; stroke-width: 0.8"/>
      </g>
     </g>
     <g id="text_10">
      <!-- 6 -->
      <g transform="translate(44.2375 189.899557) scale(0.1 -0.1)">
       <defs>
        <path id="DejaVuSans-36" d="M 2113 2584 
Q 1688 2584 1439 2293 
Q 1191 2003 1191 1497 
Q 1191 994 1439 701 
Q 1688 409 2113 409 
Q 2538 409 2786 701 
Q 3034 994 3034 1497 
Q 3034 2003 2786 2293 
Q 2538 2584 2113 2584 
z
M 3366 4563 
L 3366 3988 
Q 3128 4100 2886 4159 
Q 2644 4219 2406 4219 
Q 1781 4219 1451 3797 
Q 1122 3375 1075 2522 
Q 1259 2794 1537 2939 
Q 1816 3084 2150 3084 
Q 2853 3084 3261 2657 
Q 3669 2231 3669 1497 
Q 3669 778 3244 343 
Q 2819 -91 2113 -91 
Q 1303 -91 875 529 
Q 447 1150 447 2328 
Q 447 3434 972 4092 
Q 1497 4750 2381 4750 
Q 2619 4750 2861 4703 
Q 3103 4656 3366 4563 
z
" transform="scale(0.015625)"/>
       </defs>
       <use xlink:href="#DejaVuSans-36"/>
      </g>
     </g>
    </g>
    <g id="ytick_4">
     <g id="line2d_10">
      <g>
       <use xlink:href="#m4a2860a203" x="57.6" y="142.984331" style="stroke: #000000; stroke-width: 0.8"/>
      </g>
     </g>
     <g id="text_11">
      <!-- 8 -->
      <g transform="translate(44.2375 146.78355) scale(0.1 -0.1)">
       <defs>
        <path id="DejaVuSans-38" d="M 2034 2216 
Q 1584 2216 1326 1975 
Q 1069 1734 1069 1313 
Q 1069 891 1326 650 
Q 1584 409 2034 409 
Q 2484 409 2743 651 
Q 3003 894 3003 1313 
Q 3003 1734 2745 1975 
Q 2488 2216 2034 2216 
z
M 1403 2484 
Q 997 2584 770 2862 
Q 544 3141 544 3541 
Q 544 4100 942 4425 
Q 1341 4750 2034 4750 
Q 2731 4750 3128 4425 
Q 3525 4100 3525 3541 
Q 3525 3141 3298 2862 
Q 3072 2584 2669 2484 
Q 3125 2378 3379 2068 
Q 3634 1759 3634 1313 
Q 3634 634 3220 271 
Q 2806 -91 2034 -91 
Q 1263 -91 848 271 
Q 434 634 434 1313 
Q 434 1759 690 2068 
Q 947 2378 1403 2484 
z
M 1172 3481 
Q 1172 3119 1398 2916 
Q 1625 2713 2034 2713 
Q 2441 2713 2670 2916 
Q 2900 3119 2900 3481 
Q 2900 3844 2670 4047 
Q 2441 4250 2034 4250 
Q 1625 4250 1398 4047 
Q 1172 3844 1172 3481 
z
" transform="scale(0.015625)"/>
       </defs>
       <use xlink:href="#DejaVuSans-38"/>
      </g>
     </g>
    </g>
    <g id="ytick_5">
     <g id="line2d_11">
      <g>
       <use xlink:href="#m4a2860a203" x="57.6" y="99.868324" style="stroke: #000000; stroke-width: 0.8"/>
      </g>
     </g>
     <g id="text_12">
      <!-- 10 -->
      <g transform="translate(37.875 103.667542) scale(0.1 -0.1)">
       <use xlink:href="#DejaVuSans-31"/>
       <use xlink:href="#DejaVuSans-30" x="63.623047"/>
      </g>
     </g>
    </g>
    <g id="ytick_6">
     <g id="line2d_12">
      <g>
       <use xlink:href="#m4a2860a203" x="57.6" y="56.752316" style="stroke: #000000; stroke-width: 0.8"/>
      </g>
     </g>
     <g id="text_13">
      <!-- 12 -->
      <g transform="translate(37.875 60.551535) scale(0.1 -0.1)">
       <use xlink:href="#DejaVuSans-31"/>
       <use xlink:href="#DejaVuSans-32" x="63.623047"/>
      </g>
     </g>
    </g>
    <g id="text_14">
     <!-- Alcohol Consumption -->
     <g transform="translate(31.795312 227.467062) rotate(-90) scale(0.1 -0.1)">
      <defs>
       <path id="DejaVuSans-41" d="M 2188 4044 
L 1331 1722 
L 3047 1722 
L 2188 4044 
z
M 1831 4666 
L 2547 4666 
L 4325 0 
L 3669 0 
L 3244 1197 
L 1141 1197 
L 716 0 
L 50 0 
L 1831 4666 
z
" transform="scale(0.015625)"/>
       <path id="DejaVuSans-6c" d="M 603 4863 
L 1178 4863 
L 1178 0 
L 603 0 
L 603 4863 
z
" transform="scale(0.015625)"/>
       <path id="DejaVuSans-63" d="M 3122 3366 
L 3122 2828 
Q 2878 2963 2633 3030 
Q 2388 3097 2138 3097 
Q 1578 3097 1268 2742 
Q 959 2388 959 1747 
Q 959 1106 1268 751 
Q 1578 397 2138 397 
Q 2388 397 2633 464 
Q 2878 531 3122 666 
L 3122 134 
Q 2881 22 2623 -34 
Q 2366 -91 2075 -91 
Q 1284 -91 818 406 
Q 353 903 353 1747 
Q 353 2603 823 3093 
Q 1294 3584 2113 3584 
Q 2378 3584 2631 3529 
Q 2884 3475 3122 3366 
z
" transform="scale(0.015625)"/>
       <path id="DejaVuSans-6f" d="M 1959 3097 
Q 1497 3097 1228 2736 
Q 959 2375 959 1747 
Q 959 1119 1226 758 
Q 1494 397 1959 397 
Q 2419 397 2687 759 
Q 2956 1122 2956 1747 
Q 2956 2369 2687 2733 
Q 2419 3097 1959 3097 
z
M 1959 3584 
Q 2709 3584 3137 3096 
Q 3566 2609 3566 1747 
Q 3566 888 3137 398 
Q 2709 -91 1959 -91 
Q 1206 -91 779 398 
Q 353 888 353 1747 
Q 353 2609 779 3096 
Q 1206 3584 1959 3584 
z
" transform="scale(0.015625)"/>
       <path id="DejaVuSans-68" d="M 3513 2113 
L 3513 0 
L 2938 0 
L 2938 2094 
Q 2938 2591 2744 2837 
Q 2550 3084 2163 3084 
Q 1697 3084 1428 2787 
Q 1159 2491 1159 1978 
L 1159 0 
L 581 0 
L 581 4863 
L 1159 4863 
L 1159 2956 
Q 1366 3272 1645 3428 
Q 1925 3584 2291 3584 
Q 2894 3584 3203 3211 
Q 3513 2838 3513 2113 
z
" transform="scale(0.015625)"/>
       <path id="DejaVuSans-43" d="M 4122 4306 
L 4122 3641 
Q 3803 3938 3442 4084 
Q 3081 4231 2675 4231 
Q 1875 4231 1450 3742 
Q 1025 3253 1025 2328 
Q 1025 1406 1450 917 
Q 1875 428 2675 428 
Q 3081 428 3442 575 
Q 3803 722 4122 1019 
L 4122 359 
Q 3791 134 3420 21 
Q 3050 -91 2638 -91 
Q 1578 -91 968 557 
Q 359 1206 359 2328 
Q 359 3453 968 4101 
Q 1578 4750 2638 4750 
Q 3056 4750 3426 4639 
Q 3797 4528 4122 4306 
z
" transform="scale(0.015625)"/>
       <path id="DejaVuSans-6e" d="M 3513 2113 
L 3513 0 
L 2938 0 
L 2938 2094 
Q 2938 2591 2744 2837 
Q 2550 3084 2163 3084 
Q 1697 3084 1428 2787 
Q 1159 2491 1159 1978 
L 1159 0 
L 581 0 
L 581 3500 
L 1159 3500 
L 1159 2956 
Q 1366 3272 1645 3428 
Q 1925 3584 2291 3584 
Q 2894 3584 3203 3211 
Q 3513 2838 3513 2113 
z
" transform="scale(0.015625)"/>
       <path id="DejaVuSans-75" d="M 544 1381 
L 544 3500 
L 1119 3500 
L 1119 1403 
Q 1119 906 1312 657 
Q 1506 409 1894 409 
Q 2359 409 2629 706 
Q 2900 1003 2900 1516 
L 2900 3500 
L 3475 3500 
L 3475 0 
L 2900 0 
L 2900 538 
Q 2691 219 2414 64 
Q 2138 -91 1772 -91 
Q 1169 -91 856 284 
Q 544 659 544 1381 
z
M 1991 3584 
L 1991 3584 
z
" transform="scale(0.015625)"/>
       <path id="DejaVuSans-6d" d="M 3328 2828 
Q 3544 3216 3844 3400 
Q 4144 3584 4550 3584 
Q 5097 3584 5394 3201 
Q 5691 2819 5691 2113 
L 5691 0 
L 5113 0 
L 5113 2094 
Q 5113 2597 4934 2840 
Q 4756 3084 4391 3084 
Q 3944 3084 3684 2787 
Q 3425 2491 3425 1978 
L 3425 0 
L 2847 0 
L 2847 2094 
Q 2847 2600 2669 2842 
Q 2491 3084 2119 3084 
Q 1678 3084 1418 2786 
Q 1159 2488 1159 1978 
L 1159 0 
L 581 0 
L 581 3500 
L 1159 3500 
L 1159 2956 
Q 1356 3278 1631 3431 
Q 1906 3584 2284 3584 
Q 2666 3584 2933 3390 
Q 3200 3197 3328 2828 
z
" transform="scale(0.015625)"/>
       <path id="DejaVuSans-70" d="M 1159 525 
L 1159 -1331 
L 581 -1331 
L 581 3500 
L 1159 3500 
L 1159 2969 
Q 1341 3281 1617 3432 
Q 1894 3584 2278 3584 
Q 2916 3584 3314 3078 
Q 3713 2572 3713 1747 
Q 3713 922 3314 415 
Q 2916 -91 2278 -91 
Q 1894 -91 1617 61 
Q 1341 213 1159 525 
z
M 3116 1747 
Q 3116 2381 2855 2742 
Q 2594 3103 2138 3103 
Q 1681 3103 1420 2742 
Q 1159 2381 1159 1747 
Q 1159 1113 1420 752 
Q 1681 391 2138 391 
Q 2594 391 2855 752 
Q 3116 1113 3116 1747 
z
" transform="scale(0.015625)"/>
      </defs>
      <use xlink:href="#DejaVuSans-41"/>
      <use xlink:href="#DejaVuSans-6c" x="68.408203"/>
      <use xlink:href="#DejaVuSans-63" x="96.191406"/>
      <use xlink:href="#DejaVuSans-6f" x="151.171875"/>
      <use xlink:href="#DejaVuSans-68" x="212.353516"/>
      <use xlink:href="#DejaVuSans-6f" x="275.732422"/>
      <use xlink:href="#DejaVuSans-6c" x="336.914062"/>
      <use xlink:href="#DejaVuSans-20" x="364.697266"/>
      <use xlink:href="#DejaVuSans-43" x="396.484375"/>
      <use xlink:href="#DejaVuSans-6f" x="466.308594"/>
      <use xlink:href="#DejaVuSans-6e" x="527.490234"/>
      <use xlink:href="#DejaVuSans-73" x="590.869141"/>
      <use xlink:href="#DejaVuSans-75" x="642.96875"/>
      <use xlink:href="#DejaVuSans-6d" x="706.347656"/>
      <use xlink:href="#DejaVuSans-70" x="803.759766"/>
      <use xlink:href="#DejaVuSans-74" x="867.236328"/>
      <use xlink:href="#DejaVuSans-69" x="906.445312"/>
      <use xlink:href="#DejaVuSans-6f" x="934.228516"/>
      <use xlink:href="#DejaVuSans-6e" x="995.410156"/>
     </g>
    </g>
   </g>
   <g id="PathCollection_8"/>
   <g id="PathCollection_9">
    <path d="M 57.6 279.412607 
L 61.207273 279.412786 
L 64.814545 279.412966 
L 68.421818 279.413145 
L 72.029091 279.413323 
L 75.636364 279.413501 
L 79.243636 279.413679 
L 82.850909 279.413857 
L 86.458182 279.414034 
L 90.065455 279.41421 
L 93.672727 279.414386 
L 97.28 279.414562 
L 100.887273 279.414738 
L 104.494545 279.414913 
L 108.101818 279.415087 
L 111.709091 279.415262 
L 115.316364 279.415436 
L 118.923636 279.415609 
L 122.530909 279.415782 
L 126.138182 279.415955 
L 129.745455 279.416128 
L 133.352727 279.416299 
L 136.96 279.416471 
L 140.567273 279.416642 
L 144.174545 279.416813 
L 147.781818 279.416984 
L 151.389091 279.417154 
L 154.996364 279.417323 
L 158.603636 279.417493 
L 162.210909 279.417661 
L 165.818182 279.41783 
L 169.425455 279.417998 
L 173.032727 279.418166 
L 176.64 279.418333 
L 180.247273 279.4185 
L 183.854545 279.418667 
L 187.461818 279.418833 
L 191.069091 279.418999 
L 194.676364 279.419164 
L 198.283636 279.419329 
L 201.890909 279.419494 
L 205.498182 279.419658 
L 209.105455 279.419822 
L 212.712727 279.419985 
L 216.32 279.420148 
L 219.927273 279.420311 
L 223.534545 279.420473 
L 227.141818 279.420635 
L 230.749091 279.420797 
L 234.356364 279.420958 
L 237.963636 279.421119 
L 241.570909 279.421279 
L 245.178182 279.421439 
L 248.785455 279.421599 
L 248.866818 279.421602 
" clip-path="url(#p9742154942)" style="fill: none; stroke: #000000; stroke-width: 0.5"/>
    <path d="M 284.776818 279.42317 
L 284.858182 279.423173 
L 288.465455 279.423329 
L 292.072727 279.423484 
L 295.68 279.423638 
L 299.287273 279.423792 
L 302.894545 279.423946 
L 306.501818 279.4241 
L 310.109091 279.424253 
L 313.716364 279.424405 
L 317.323636 279.424557 
L 320.930909 279.424709 
L 324.538182 279.424861 
L 328.145455 279.425012 
L 331.752727 279.425163 
L 335.36 279.425313 
L 338.967273 279.425463 
L 342.574545 279.425612 
L 346.181818 279.425761 
L 349.789091 279.42591 
L 353.396364 279.426059 
L 357.003636 279.426207 
L 360.610909 279.426354 
L 364.218182 279.426501 
L 367.825455 279.426648 
L 371.432727 279.426795 
L 375.04 279.426941 
L 378.647273 279.427086 
L 382.254545 279.427232 
L 385.861818 279.427377 
L 389.469091 279.427521 
L 393.076364 279.427665 
L 396.683636 279.427809 
L 400.290909 279.427952 
L 403.898182 279.428095 
L 407.505455 279.428238 
L 411.112727 279.42838 
L 414.72 279.428522 
" clip-path="url(#p9742154942)" style="fill: none; stroke: #000000; stroke-width: 0.5"/>
   </g>
   <g id="PathCollection_10">
    <path d="M 57.6 238.00487 
L 61.207273 238.005053 
L 64.814545 238.005235 
L 68.421818 238.005417 
L 72.029091 238.005598 
L 75.636364 238.005779 
L 79.243636 238.00596 
L 82.850909 238.00614 
L 86.458182 238.00632 
L 90.065455 238.006499 
L 93.672727 238.006678 
L 97.28 238.006857 
L 100.887273 238.007035 
L 104.494545 238.007212 
L 108.101818 238.00739 
L 111.709091 238.007567 
L 115.316364 238.007743 
L 118.923636 238.007919 
L 122.530909 238.008095 
L 126.138182 238.00827 
L 129.745455 238.008445 
L 133.352727 238.008619 
L 136.96 238.008793 
L 140.567273 238.008966 
L 144.174545 238.009139 
L 147.781818 238.009312 
L 151.389091 238.009484 
L 154.996364 238.009656 
L 158.603636 238.009828 
L 162.210909 238.009999 
L 165.818182 238.010169 
L 169.425455 238.010339 
L 173.032727 238.010509 
L 176.64 238.010679 
L 180.247273 238.010848 
L 183.854545 238.011016 
L 187.461818 238.011184 
L 191.069091 238.011352 
L 194.676364 238.011519 
L 198.283636 238.011686 
L 201.890909 238.011852 
L 205.498182 238.012018 
L 209.105455 238.012184 
L 212.712727 238.012349 
L 216.32 238.012514 
L 219.927273 238.012678 
L 223.534545 238.012842 
L 227.141818 238.013006 
L 230.749091 238.013169 
L 234.356364 238.013331 
L 237.963636 238.013494 
L 241.570909 238.013656 
L 245.178182 238.013817 
L 248.785455 238.013978 
L 248.866818 238.013982 
" clip-path="url(#p9742154942)" style="fill: none; stroke: #000000; stroke-width: 0.5"/>
    <path d="M 284.776818 238.015562 
L 284.858182 238.015565 
L 288.465455 238.015722 
L 292.072727 238.015878 
L 295.68 238.016033 
L 299.287273 238.016188 
L 302.894545 238.016343 
L 306.501818 238.016497 
L 310.109091 238.016651 
L 313.716364 238.016805 
L 317.323636 238.016958 
L 320.930909 238.017111 
L 324.538182 238.017263 
L 328.145455 238.017415 
L 331.752727 238.017566 
L 335.36 238.017717 
L 338.967273 238.017868 
L 342.574545 238.018018 
L 346.181818 238.018168 
L 349.789091 238.018317 
L 353.396364 238.018466 
L 357.003636 238.018614 
L 360.610909 238.018762 
L 364.218182 238.01891 
L 367.825455 238.019057 
L 371.432727 238.019204 
L 375.04 238.019351 
L 378.647273 238.019497 
L 382.254545 238.019642 
L 385.861818 238.019787 
L 389.469091 238.019932 
L 393.076364 238.020076 
L 396.683636 238.02022 
L 400.290909 238.020364 
L 403.898182 238.020507 
L 407.505455 238.02065 
L 411.112727 238.020792 
L 414.72 238.020934 
" clip-path="url(#p9742154942)" style="fill: none; stroke: #000000; stroke-width: 0.5"/>
   </g>
   <g id="PathCollection_11">
    <path d="M 57.6 196.451551 
L 61.207273 196.451737 
L 64.814545 196.451922 
L 68.421818 196.452107 
L 72.029091 196.452292 
L 75.636364 196.452476 
L 79.243636 196.452659 
L 82.850909 196.452842 
L 86.458182 196.453025 
L 90.065455 196.453207 
L 93.672727 196.453389 
L 97.28 196.453571 
L 100.887273 196.453752 
L 104.494545 196.453932 
L 108.101818 196.454112 
L 111.709091 196.454292 
L 115.316364 196.454471 
L 118.923636 196.454649 
L 122.530909 196.454828 
L 126.138182 196.455005 
L 129.745455 196.455183 
L 133.352727 196.45536 
L 136.96 196.455536 
L 140.567273 196.455712 
L 144.174545 196.455888 
L 147.781818 196.456063 
L 151.389091 196.456237 
L 154.996364 196.456412 
L 158.603636 196.456585 
L 162.210909 196.456759 
L 165.818182 196.456932 
L 169.425455 196.457104 
L 173.032727 196.457276 
L 176.64 196.457448 
L 180.247273 196.457619 
L 183.854545 196.457789 
L 187.461818 196.457959 
L 191.069091 196.458129 
L 194.676364 196.458299 
L 198.283636 196.458467 
L 201.890909 196.458636 
L 205.498182 196.458804 
L 209.105455 196.458971 
L 212.712727 196.459138 
L 216.32 196.459305 
L 219.927273 196.459471 
L 223.534545 196.459637 
L 227.141818 196.459802 
L 230.749091 196.459967 
L 234.356364 196.460131 
L 237.963636 196.460295 
L 241.570909 196.460459 
L 245.178182 196.460622 
L 248.785455 196.460784 
L 248.866818 196.460788 
" clip-path="url(#p9742154942)" style="fill: none; stroke: #000000; stroke-width: 0.5"/>
    <path d="M 284.776818 196.462382 
L 284.858182 196.462385 
L 288.465455 196.462543 
L 292.072727 196.4627 
L 295.68 196.462857 
L 299.287273 196.463013 
L 302.894545 196.463169 
L 306.501818 196.463325 
L 310.109091 196.46348 
L 313.716364 196.463634 
L 317.323636 196.463788 
L 320.930909 196.463942 
L 324.538182 196.464095 
L 328.145455 196.464248 
L 331.752727 196.4644 
L 335.36 196.464552 
L 338.967273 196.464703 
L 342.574545 196.464854 
L 346.181818 196.465005 
L 349.789091 196.465155 
L 353.396364 196.465304 
L 357.003636 196.465454 
L 360.610909 196.465602 
L 364.218182 196.46575 
L 367.825455 196.465898 
L 371.432727 196.466046 
L 375.04 196.466193 
L 378.647273 196.466339 
L 382.254545 196.466485 
L 385.861818 196.466631 
L 389.469091 196.466776 
L 393.076364 196.46692 
L 396.683636 196.467065 
L 400.290909 196.467208 
L 403.898182 196.467352 
L 407.505455 196.467495 
L 411.112727 196.467637 
L 414.72 196.467779 
" clip-path="url(#p9742154942)" style="fill: none; stroke: #000000; stroke-width: 0.5"/>
   </g>
   <g id="PathCollection_12">
    <path d="M 57.6 154.708175 
L 61.207273 154.708364 
L 64.814545 154.708553 
L 68.421818 154.708741 
L 72.029091 154.708929 
L 75.636364 154.709116 
L 79.243636 154.709303 
L 82.850909 154.709489 
L 86.458182 154.709675 
L 90.065455 154.70986 
L 93.672727 154.710045 
L 97.28 154.710229 
L 100.887273 154.710413 
L 104.494545 154.710596 
L 108.101818 154.710779 
L 111.709091 154.710962 
L 115.316364 154.711144 
L 118.923636 154.711325 
L 122.530909 154.711506 
L 126.138182 154.711687 
L 129.745455 154.711867 
L 133.352727 154.712046 
L 136.96 154.712225 
L 140.567273 154.712404 
L 144.174545 154.712582 
L 147.781818 154.71276 
L 151.389091 154.712937 
L 154.996364 154.713113 
L 158.603636 154.71329 
L 162.210909 154.713465 
L 165.818182 154.713641 
L 169.425455 154.713815 
L 173.032727 154.71399 
L 176.64 154.714163 
L 180.247273 154.714337 
L 183.854545 154.71451 
L 187.461818 154.714682 
L 191.069091 154.714854 
L 194.676364 154.715025 
L 198.283636 154.715196 
L 201.890909 154.715367 
L 205.498182 154.715537 
L 209.105455 154.715706 
L 212.712727 154.715875 
L 216.32 154.716044 
L 219.927273 154.716212 
L 223.534545 154.716379 
L 227.141818 154.716546 
L 230.749091 154.716713 
L 234.356364 154.716879 
L 237.963636 154.717045 
L 241.570909 154.71721 
L 245.178182 154.717375 
L 248.785455 154.717539 
L 248.866818 154.717543 
" clip-path="url(#p9742154942)" style="fill: none; stroke: #000000; stroke-width: 0.5"/>
    <path d="M 284.776818 154.719151 
L 284.858182 154.719155 
L 288.465455 154.719314 
L 292.072727 154.719473 
L 295.68 154.719631 
L 299.287273 154.719788 
L 302.894545 154.719945 
L 306.501818 154.720102 
L 310.109091 154.720258 
L 313.716364 154.720413 
L 317.323636 154.720569 
L 320.930909 154.720723 
L 324.538182 154.720877 
L 328.145455 154.721031 
L 331.752727 154.721184 
L 335.36 154.721337 
L 338.967273 154.721489 
L 342.574545 154.721641 
L 346.181818 154.721792 
L 349.789091 154.721943 
L 353.396364 154.722094 
L 357.003636 154.722244 
L 360.610909 154.722393 
L 364.218182 154.722542 
L 367.825455 154.72269 
L 371.432727 154.722838 
L 375.04 154.722986 
L 378.647273 154.723133 
L 382.254545 154.723279 
L 385.861818 154.723425 
L 389.469091 154.723571 
L 393.076364 154.723716 
L 396.683636 154.723861 
L 400.290909 154.724005 
L 403.898182 154.724148 
L 407.505455 154.724292 
L 411.112727 154.724434 
L 414.72 154.724576 
" clip-path="url(#p9742154942)" style="fill: none; stroke: #000000; stroke-width: 0.5"/>
   </g>
   <g id="PathCollection_13">
    <path d="M 57.6 112.728011 
L 61.207273 112.728204 
L 64.814545 112.728396 
L 68.421818 112.728588 
L 72.029091 112.728779 
L 75.636364 112.72897 
L 79.243636 112.72916 
L 82.850909 112.729349 
L 86.458182 112.729538 
L 90.065455 112.729727 
L 93.672727 112.729915 
L 97.28 112.730102 
L 100.887273 112.730289 
L 104.494545 112.730476 
L 108.101818 112.730662 
L 111.709091 112.730847 
L 115.316364 112.731032 
L 118.923636 112.731217 
L 122.530909 112.731401 
L 126.138182 112.731584 
L 129.745455 112.731767 
L 133.352727 112.73195 
L 136.96 112.732132 
L 140.567273 112.732313 
L 144.174545 112.732494 
L 147.781818 112.732674 
L 151.389091 112.732854 
L 154.996364 112.733034 
L 158.603636 112.733212 
L 162.210909 112.733391 
L 165.818182 112.733569 
L 169.425455 112.733746 
L 173.032727 112.733923 
L 176.64 112.734099 
L 180.247273 112.734275 
L 183.854545 112.73445 
L 187.461818 112.734625 
L 191.069091 112.734799 
L 194.676364 112.734973 
L 198.283636 112.735146 
L 201.890909 112.735319 
L 205.498182 112.735491 
L 209.105455 112.735663 
L 212.712727 112.735834 
L 216.32 112.736005 
L 219.927273 112.736175 
L 223.534545 112.736344 
L 227.141818 112.736514 
L 230.749091 112.736682 
L 234.356364 112.73685 
L 237.963636 112.737018 
L 241.570909 112.737185 
L 245.178182 112.737352 
L 248.785455 112.737518 
L 248.866818 112.737522 
" clip-path="url(#p9742154942)" style="fill: none; stroke: #000000; stroke-width: 0.5"/>
    <path d="M 284.776818 112.739147 
L 284.858182 112.739151 
L 288.465455 112.739311 
L 292.072727 112.739471 
L 295.68 112.73963 
L 299.287273 112.739789 
L 302.894545 112.739948 
L 306.501818 112.740106 
L 310.109091 112.740263 
L 313.716364 112.74042 
L 317.323636 112.740576 
L 320.930909 112.740732 
L 324.538182 112.740888 
L 328.145455 112.741042 
L 331.752727 112.741197 
L 335.36 112.741351 
L 338.967273 112.741504 
L 342.574545 112.741657 
L 346.181818 112.741809 
L 349.789091 112.741961 
L 353.396364 112.742112 
L 357.003636 112.742263 
L 360.610909 112.742413 
L 364.218182 112.742563 
L 367.825455 112.742712 
L 371.432727 112.742861 
L 375.04 112.743009 
L 378.647273 112.743157 
L 382.254545 112.743304 
L 385.861818 112.743451 
L 389.469091 112.743597 
L 393.076364 112.743742 
L 396.683636 112.743887 
L 400.290909 112.744032 
L 403.898182 112.744176 
L 407.505455 112.74432 
L 411.112727 112.744463 
L 414.72 112.744606 
" clip-path="url(#p9742154942)" style="fill: none; stroke: #000000; stroke-width: 0.5"/>
   </g>
   <g id="PathCollection_14">
    <path d="M 57.6 70.462458 
L 61.207273 70.462654 
L 64.814545 70.46285 
L 68.421818 70.463046 
L 72.029091 70.46324 
L 75.636364 70.463435 
L 79.243636 70.463628 
L 82.850909 70.463821 
L 86.458182 70.464014 
L 90.065455 70.464206 
L 93.672727 70.464397 
L 97.28 70.464588 
L 100.887273 70.464779 
L 104.494545 70.464969 
L 108.101818 70.465158 
L 111.709091 70.465347 
L 115.316364 70.465535 
L 118.923636 70.465723 
L 122.530909 70.46591 
L 126.138182 70.466096 
L 129.745455 70.466282 
L 133.352727 70.466468 
L 136.96 70.466653 
L 140.567273 70.466837 
L 144.174545 70.467021 
L 147.781818 70.467204 
L 151.389091 70.467387 
L 154.996364 70.467569 
L 158.603636 70.467751 
L 162.210909 70.467932 
L 165.818182 70.468113 
L 169.425455 70.468293 
L 173.032727 70.468472 
L 176.64 70.468651 
L 180.247273 70.46883 
L 183.854545 70.469008 
L 187.461818 70.469185 
L 191.069091 70.469362 
L 194.676364 70.469538 
L 198.283636 70.469714 
L 201.890909 70.469889 
L 205.498182 70.470064 
L 209.105455 70.470238 
L 212.712727 70.470411 
L 216.32 70.470584 
L 219.927273 70.470757 
L 223.534545 70.470929 
L 227.141818 70.4711 
L 230.749091 70.471271 
L 234.356364 70.471441 
L 237.963636 70.471611 
L 241.570909 70.47178 
L 245.178182 70.471949 
L 248.785455 70.472117 
L 248.866818 70.47212 
" clip-path="url(#p9742154942)" style="fill: none; stroke: #000000; stroke-width: 0.5"/>
    <path d="M 284.776818 70.473764 
L 284.858182 70.473768 
L 288.465455 70.47393 
L 292.072727 70.474091 
L 295.68 70.474252 
L 299.287273 70.474413 
L 302.894545 70.474573 
L 306.501818 70.474732 
L 310.109091 70.474891 
L 313.716364 70.475049 
L 317.323636 70.475207 
L 320.930909 70.475364 
L 324.538182 70.475521 
L 328.145455 70.475677 
L 331.752727 70.475833 
L 335.36 70.475988 
L 338.967273 70.476142 
L 342.574545 70.476296 
L 346.181818 70.476449 
L 349.789091 70.476602 
L 353.396364 70.476755 
L 357.003636 70.476906 
L 360.610909 70.477058 
L 364.218182 70.477208 
L 367.825455 70.477358 
L 371.432727 70.477508 
L 375.04 70.477657 
L 378.647273 70.477806 
L 382.254545 70.477954 
L 385.861818 70.478101 
L 389.469091 70.478248 
L 393.076364 70.478394 
L 396.683636 70.47854 
L 400.290909 70.478685 
L 403.898182 70.47883 
L 407.505455 70.478974 
L 411.112727 70.479118 
L 414.72 70.479261 
" clip-path="url(#p9742154942)" style="fill: none; stroke: #000000; stroke-width: 0.5"/>
   </g>
   <g id="PathCollection_15"/>
   <g id="LineCollection_1">
    <path d="M 70.331738 307.584 
L 70.331738 294.2784 
" clip-path="url(#p9742154942)" style="fill: none; stroke: #000000; stroke-width: 1.5"/>
    <path d="M 99.846223 307.584 
L 99.846223 294.2784 
" clip-path="url(#p9742154942)" style="fill: none; stroke: #000000; stroke-width: 1.5"/>
    <path d="M 129.465928 307.584 
L 129.465928 294.2784 
" clip-path="url(#p9742154942)" style="fill: none; stroke: #000000; stroke-width: 1.5"/>
    <path d="M 223.533483 307.584 
L 223.533483 294.2784 
" clip-path="url(#p9742154942)" style="fill: none; stroke: #000000; stroke-width: 1.5"/>
    <path d="M 263.675286 307.584 
L 263.675286 294.2784 
" clip-path="url(#p9742154942)" style="fill: none; stroke: #000000; stroke-width: 1.5"/>
    <path d="M 284.088156 307.584 
L 284.088156 294.2784 
" clip-path="url(#p9742154942)" style="fill: none; stroke: #000000; stroke-width: 1.5"/>
    <path d="M 301.81789 307.584 
L 301.81789 294.2784 
" clip-path="url(#p9742154942)" style="fill: none; stroke: #000000; stroke-width: 1.5"/>
    <path d="M 335.435993 307.584 
L 335.435993 294.2784 
" clip-path="url(#p9742154942)" style="fill: none; stroke: #000000; stroke-width: 1.5"/>
    <path d="M 378.208321 307.584 
L 378.208321 294.2784 
" clip-path="url(#p9742154942)" style="fill: none; stroke: #000000; stroke-width: 1.5"/>
   </g>
   <g id="LineCollection_2">
    <path d="M -1 123.966721 
L 63.755427 123.966721 
" clip-path="url(#p9742154942)" style="fill: none; stroke: #000000; stroke-width: 1.5"/>
    <path clip-path="url(#p9742154942)" style="fill: none; stroke: #000000; stroke-width: 1.5"/>
    <path clip-path="url(#p9742154942)" style="fill: none; stroke: #000000; stroke-width: 1.5"/>
    <path clip-path="url(#p9742154942)" style="fill: none; stroke: #000000; stroke-width: 1.5"/>
    <path clip-path="url(#p9742154942)" style="fill: none; stroke: #000000; stroke-width: 1.5"/>
    <path clip-path="url(#p9742154942)" style="fill: none; stroke: #000000; stroke-width: 1.5"/>
    <path clip-path="url(#p9742154942)" style="fill: none; stroke: #000000; stroke-width: 1.5"/>
    <path clip-path="url(#p9742154942)" style="fill: none; stroke: #000000; stroke-width: 1.5"/>
    <path clip-path="url(#p9742154942)" style="fill: none; stroke: #000000; stroke-width: 1.5"/>
   </g>
   <g id="patch_3">
    <path d="M 57.6 307.584 
L 57.6 41.472 
" style="fill: none; stroke: #000000; stroke-width: 0.8; stroke-linejoin: miter; stroke-linecap: square"/>
   </g>
   <g id="patch_4">
    <path d="M 414.72 307.584 
L 414.72 41.472 
" style="fill: none; stroke: #000000; stroke-width: 0.8; stroke-linejoin: miter; stroke-linecap: square"/>
   </g>
   <g id="patch_5">
    <path d="M 57.6 307.584 
L 414.72 307.584 
" style="fill: none; stroke: #000000; stroke-width: 0.8; stroke-linejoin: miter; stroke-linecap: square"/>
   </g>
   <g id="patch_6">
    <path d="M 57.6 41.472 
L 414.72 41.472 
" style="fill: none; stroke: #000000; stroke-width: 0.8; stroke-linejoin: miter; stroke-linecap: square"/>
   </g>
   <g id="text_15">
    <!-- 2D-partial dependency plot between Obesity and Alcohol -->
    <g transform="translate(64.306875 35.472) scale(0.12 -0.12)">
     <defs>
      <path id="DejaVuSans-44" d="M 1259 4147 
L 1259 519 
L 2022 519 
Q 2988 519 3436 956 
Q 3884 1394 3884 2338 
Q 3884 3275 3436 3711 
Q 2988 4147 2022 4147 
L 1259 4147 
z
M 628 4666 
L 1925 4666 
Q 3281 4666 3915 4102 
Q 4550 3538 4550 2338 
Q 4550 1131 3912 565 
Q 3275 0 1925 0 
L 628 0 
L 628 4666 
z
" transform="scale(0.015625)"/>
      <path id="DejaVuSans-2d" d="M 313 2009 
L 1997 2009 
L 1997 1497 
L 313 1497 
L 313 2009 
z
" transform="scale(0.015625)"/>
      <path id="DejaVuSans-72" d="M 2631 2963 
Q 2534 3019 2420 3045 
Q 2306 3072 2169 3072 
Q 1681 3072 1420 2755 
Q 1159 2438 1159 1844 
L 1159 0 
L 581 0 
L 581 3500 
L 1159 3500 
L 1159 2956 
Q 1341 3275 1631 3429 
Q 1922 3584 2338 3584 
Q 2397 3584 2469 3576 
Q 2541 3569 2628 3553 
L 2631 2963 
z
" transform="scale(0.015625)"/>
      <path id="DejaVuSans-64" d="M 2906 2969 
L 2906 4863 
L 3481 4863 
L 3481 0 
L 2906 0 
L 2906 525 
Q 2725 213 2448 61 
Q 2172 -91 1784 -91 
Q 1150 -91 751 415 
Q 353 922 353 1747 
Q 353 2572 751 3078 
Q 1150 3584 1784 3584 
Q 2172 3584 2448 3432 
Q 2725 3281 2906 2969 
z
M 947 1747 
Q 947 1113 1208 752 
Q 1469 391 1925 391 
Q 2381 391 2643 752 
Q 2906 1113 2906 1747 
Q 2906 2381 2643 2742 
Q 2381 3103 1925 3103 
Q 1469 3103 1208 2742 
Q 947 2381 947 1747 
z
" transform="scale(0.015625)"/>
      <path id="DejaVuSans-77" d="M 269 3500 
L 844 3500 
L 1563 769 
L 2278 3500 
L 2956 3500 
L 3675 769 
L 4391 3500 
L 4966 3500 
L 4050 0 
L 3372 0 
L 2619 2869 
L 1863 0 
L 1184 0 
L 269 3500 
z
" transform="scale(0.015625)"/>
     </defs>
     <use xlink:href="#DejaVuSans-32"/>
     <use xlink:href="#DejaVuSans-44" x="63.623047"/>
     <use xlink:href="#DejaVuSans-2d" x="140.625"/>
     <use xlink:href="#DejaVuSans-70" x="176.708984"/>
     <use xlink:href="#DejaVuSans-61" x="240.185547"/>
     <use xlink:href="#DejaVuSans-72" x="301.464844"/>
     <use xlink:href="#DejaVuSans-74" x="342.578125"/>
     <use xlink:href="#DejaVuSans-69" x="381.787109"/>
     <use xlink:href="#DejaVuSans-61" x="409.570312"/>
     <use xlink:href="#DejaVuSans-6c" x="470.849609"/>
     <use xlink:href="#DejaVuSans-20" x="498.632812"/>
     <use xlink:href="#DejaVuSans-64" x="530.419922"/>
     <use xlink:href="#DejaVuSans-65" x="593.896484"/>
     <use xlink:href="#DejaVuSans-70" x="655.419922"/>
     <use xlink:href="#DejaVuSans-65" x="718.896484"/>
     <use xlink:href="#DejaVuSans-6e" x="780.419922"/>
     <use xlink:href="#DejaVuSans-64" x="843.798828"/>
     <use xlink:href="#DejaVuSans-65" x="907.275391"/>
     <use xlink:href="#DejaVuSans-6e" x="968.798828"/>
     <use xlink:href="#DejaVuSans-63" x="1032.177734"/>
     <use xlink:href="#DejaVuSans-79" x="1087.158203"/>
     <use xlink:href="#DejaVuSans-20" x="1146.337891"/>
     <use xlink:href="#DejaVuSans-70" x="1178.125"/>
     <use xlink:href="#DejaVuSans-6c" x="1241.601562"/>
     <use xlink:href="#DejaVuSans-6f" x="1269.384766"/>
     <use xlink:href="#DejaVuSans-74" x="1330.566406"/>
     <use xlink:href="#DejaVuSans-20" x="1369.775391"/>
     <use xlink:href="#DejaVuSans-62" x="1401.5625"/>
     <use xlink:href="#DejaVuSans-65" x="1465.039062"/>
     <use xlink:href="#DejaVuSans-74" x="1526.5625"/>
     <use xlink:href="#DejaVuSans-77" x="1565.771484"/>
     <use xlink:href="#DejaVuSans-65" x="1647.558594"/>
     <use xlink:href="#DejaVuSans-65" x="1709.082031"/>
     <use xlink:href="#DejaVuSans-6e" x="1770.605469"/>
     <use xlink:href="#DejaVuSans-20" x="1833.984375"/>
     <use xlink:href="#DejaVuSans-4f" x="1865.771484"/>
     <use xlink:href="#DejaVuSans-62" x="1944.482422"/>
     <use xlink:href="#DejaVuSans-65" x="2007.958984"/>
     <use xlink:href="#DejaVuSans-73" x="2069.482422"/>
     <use xlink:href="#DejaVuSans-69" x="2121.582031"/>
     <use xlink:href="#DejaVuSans-74" x="2149.365234"/>
     <use xlink:href="#DejaVuSans-79" x="2188.574219"/>
     <use xlink:href="#DejaVuSans-20" x="2247.753906"/>
     <use xlink:href="#DejaVuSans-61" x="2279.541016"/>
     <use xlink:href="#DejaVuSans-6e" x="2340.820312"/>
     <use xlink:href="#DejaVuSans-64" x="2404.199219"/>
     <use xlink:href="#DejaVuSans-20" x="2467.675781"/>
     <use xlink:href="#DejaVuSans-41" x="2499.462891"/>
     <use xlink:href="#DejaVuSans-6c" x="2567.871094"/>
     <use xlink:href="#DejaVuSans-63" x="2595.654297"/>
     <use xlink:href="#DejaVuSans-6f" x="2650.634766"/>
     <use xlink:href="#DejaVuSans-68" x="2711.816406"/>
     <use xlink:href="#DejaVuSans-6f" x="2775.195312"/>
     <use xlink:href="#DejaVuSans-6c" x="2836.376953"/>
    </g>
   </g>
   <g id="text_16">
    <g clip-path="url(#p9742154942)">
     <!-- 10.39 -->
     <g transform="translate(252.507635 282.181141) rotate(-359.997499) scale(0.1 -0.1)">
      <defs>
       <path id="DejaVuSans-39" d="M 703 97 
L 703 672 
Q 941 559 1184 500 
Q 1428 441 1663 441 
Q 2288 441 2617 861 
Q 2947 1281 2994 2138 
Q 2813 1869 2534 1725 
Q 2256 1581 1919 1581 
Q 1219 1581 811 2004 
Q 403 2428 403 3163 
Q 403 3881 828 4315 
Q 1253 4750 1959 4750 
Q 2769 4750 3195 4129 
Q 3622 3509 3622 2328 
Q 3622 1225 3098 567 
Q 2575 -91 1691 -91 
Q 1453 -91 1209 -44 
Q 966 3 703 97 
z
M 1959 2075 
Q 2384 2075 2632 2365 
Q 2881 2656 2881 3163 
Q 2881 3666 2632 3958 
Q 2384 4250 1959 4250 
Q 1534 4250 1286 3958 
Q 1038 3666 1038 3163 
Q 1038 2656 1286 2365 
Q 1534 2075 1959 2075 
z
" transform="scale(0.015625)"/>
      </defs>
      <use xlink:href="#DejaVuSans-31"/>
      <use xlink:href="#DejaVuSans-30" x="63.623047"/>
      <use xlink:href="#DejaVuSans-2e" x="127.246094"/>
      <use xlink:href="#DejaVuSans-33" x="159.033203"/>
      <use xlink:href="#DejaVuSans-39" x="222.65625"/>
     </g>
    </g>
   </g>
   <g id="text_17">
    <g clip-path="url(#p9742154942)">
     <!-- 10.52 -->
     <g transform="translate(252.507634 240.773522) rotate(-359.997479) scale(0.1 -0.1)">
      <use xlink:href="#DejaVuSans-31"/>
      <use xlink:href="#DejaVuSans-30" x="63.623047"/>
      <use xlink:href="#DejaVuSans-2e" x="127.246094"/>
      <use xlink:href="#DejaVuSans-35" x="159.033203"/>
      <use xlink:href="#DejaVuSans-32" x="222.65625"/>
     </g>
    </g>
   </g>
   <g id="text_18">
    <g clip-path="url(#p9742154942)">
     <!-- 10.65 -->
     <g transform="translate(252.507633 199.22033) rotate(-359.997457) scale(0.1 -0.1)">
      <use xlink:href="#DejaVuSans-31"/>
      <use xlink:href="#DejaVuSans-30" x="63.623047"/>
      <use xlink:href="#DejaVuSans-2e" x="127.246094"/>
      <use xlink:href="#DejaVuSans-36" x="159.033203"/>
      <use xlink:href="#DejaVuSans-35" x="222.65625"/>
     </g>
    </g>
   </g>
   <g id="text_19">
    <g clip-path="url(#p9742154942)">
     <!-- 10.79 -->
     <g transform="translate(252.507632 157.477087) rotate(-359.997433) scale(0.1 -0.1)">
      <defs>
       <path id="DejaVuSans-37" d="M 525 4666 
L 3525 4666 
L 3525 4397 
L 1831 0 
L 1172 0 
L 2766 4134 
L 525 4134 
L 525 4666 
z
" transform="scale(0.015625)"/>
      </defs>
      <use xlink:href="#DejaVuSans-31"/>
      <use xlink:href="#DejaVuSans-30" x="63.623047"/>
      <use xlink:href="#DejaVuSans-2e" x="127.246094"/>
      <use xlink:href="#DejaVuSans-37" x="159.033203"/>
      <use xlink:href="#DejaVuSans-39" x="222.65625"/>
     </g>
    </g>
   </g>
   <g id="text_20">
    <g clip-path="url(#p9742154942)">
     <!-- 10.92 -->
     <g transform="translate(252.507631 115.497068) rotate(-359.997407) scale(0.1 -0.1)">
      <use xlink:href="#DejaVuSans-31"/>
      <use xlink:href="#DejaVuSans-30" x="63.623047"/>
      <use xlink:href="#DejaVuSans-2e" x="127.246094"/>
      <use xlink:href="#DejaVuSans-39" x="159.033203"/>
      <use xlink:href="#DejaVuSans-32" x="222.65625"/>
     </g>
    </g>
   </g>
   <g id="text_21">
    <g clip-path="url(#p9742154942)">
     <!-- 11.05 -->
     <g transform="translate(252.507629 73.231669) rotate(-359.997378) scale(0.1 -0.1)">
      <use xlink:href="#DejaVuSans-31"/>
      <use xlink:href="#DejaVuSans-31" x="63.623047"/>
      <use xlink:href="#DejaVuSans-2e" x="127.246094"/>
      <use xlink:href="#DejaVuSans-30" x="159.033203"/>
      <use xlink:href="#DejaVuSans-35" x="222.65625"/>
     </g>
    </g>
   </g>
  </g>
 </g>
 <defs>
  <clipPath id="p9742154942">
   <rect x="57.6" y="41.472" width="357.12" height="266.112"/>
  </clipPath>
 </defs>
</svg>
