<?xml version="1.0" encoding="utf-8" standalone="no"?>
<!DOCTYPE svg PUBLIC "-//W3C//DTD SVG 1.1//EN"
  "http://www.w3.org/Graphics/SVG/1.1/DTD/svg11.dtd">
<svg xmlns:xlink="http://www.w3.org/1999/xlink" width="460.8pt" height="345.6pt" viewBox="0 0 460.8 345.6" xmlns="http://www.w3.org/2000/svg" version="1.1">
 <metadata>
  <rdf:RDF xmlns:dc="http://purl.org/dc/elements/1.1/" xmlns:cc="http://creativecommons.org/ns#" xmlns:rdf="http://www.w3.org/1999/02/22-rdf-syntax-ns#">
   <cc:Work>
    <dc:type rdf:resource="http://purl.org/dc/dcmitype/StillImage"/>
    <dc:date>2024-04-22T00:41:24.416295</dc:date>
    <dc:format>image/svg+xml</dc:format>
    <dc:creator>
     <cc:Agent>
      <dc:title>Matplotlib v3.7.0, https://matplotlib.org/</dc:title>
     </cc:Agent>
    </dc:creator>
   </cc:Work>
  </rdf:RDF>
 </metadata>
 <defs>
  <style type="text/css">*{stroke-linejoin: round; stroke-linecap: butt}</style>
 </defs>
 <g id="figure_1">
  <g id="patch_1">
   <path d="M 0 345.6 
L 460.8 345.6 
L 460.8 0 
L 0 0 
L 0 345.6 
z
" style="fill: none"/>
  </g>
  <g id="axes_1"/>
  <g id="axes_2">
   <g id="patch_2">
    <path d="M 57.6 307.584 
L 414.72 307.584 
L 414.72 41.472 
L 57.6 41.472 
L 57.6 307.584 
z
" style="fill: none"/>
   </g>
   <g id="PathCollection_1">
    <path d="M 396.683636 307.584 
L 400.290909 307.584 
L 403.898182 307.584 
L 407.505455 307.584 
L 411.112727 307.584 
L 414.72 307.584 
L 414.72 304.896 
L 414.72 302.208 
L 414.72 299.52 
L 414.72 296.832 
L 414.72 294.144 
L 414.72 291.456 
L 414.72 288.768 
L 414.72 286.08 
L 414.72 283.392 
L 414.72 280.704 
L 414.72 278.016 
L 414.72 275.328 
L 414.72 272.64 
L 414.72 269.952 
L 414.72 267.264 
L 414.72 264.576 
L 414.72 261.888 
L 414.72 259.2 
L 414.72 256.512 
L 414.72 253.824 
L 414.72 251.136 
L 414.72 248.448 
L 414.72 245.76 
L 414.72 243.072 
L 414.72 240.384 
L 414.72 237.696 
L 414.72 235.008 
L 414.72 232.32 
L 414.72 229.632 
L 414.72 226.944 
L 414.72 224.256 
L 414.72 221.568 
L 414.72 218.88 
L 414.72 216.192 
L 414.72 213.504 
L 414.72 210.816 
L 414.72 208.128 
L 414.72 205.44 
L 414.72 202.752 
L 414.72 200.064 
L 414.72 197.376 
L 414.72 194.688 
L 414.72 192 
L 414.72 189.312 
L 414.72 186.624 
L 414.72 183.936 
L 414.72 181.248 
L 414.72 178.56 
L 414.72 175.872 
L 414.72 173.184 
L 414.72 170.496 
L 414.72 167.808 
L 414.72 165.12 
L 414.72 162.432 
L 414.72 159.744 
L 414.72 157.056 
L 414.72 154.368 
L 414.72 151.68 
L 414.72 148.992 
L 414.72 146.304 
L 414.72 143.616 
L 414.72 140.928 
L 414.72 138.24 
L 414.72 135.552 
L 414.72 132.864 
L 414.72 130.176 
L 414.72 127.488 
L 414.72 124.8 
L 414.72 122.112 
L 414.72 119.424 
L 414.72 116.736 
L 414.72 114.048 
L 414.72 111.36 
L 414.72 108.672 
L 414.72 105.984 
L 414.72 103.296 
L 414.72 100.608 
L 414.72 97.92 
L 414.72 95.232 
L 414.72 92.544 
L 414.72 89.856 
L 414.72 87.168 
L 414.72 84.48 
L 414.72 81.792 
L 414.72 79.104 
L 414.72 76.416 
L 414.72 73.728 
L 414.72 71.04 
L 414.72 68.352 
L 414.72 65.664 
L 414.72 62.976 
L 414.72 60.288 
L 414.72 57.6 
L 414.72 54.912 
L 414.72 52.224 
L 414.72 49.536 
L 414.72 46.848 
L 414.72 44.16 
L 414.72 41.472 
L 411.112727 41.472 
L 407.505455 41.472 
L 403.898182 41.472 
L 400.290909 41.472 
L 396.683636 41.472 
L 394.243224 41.472 
L 394.242622 44.16 
L 394.242017 46.848 
L 394.241411 49.536 
L 394.240803 52.224 
L 394.240193 54.912 
L 394.239581 57.6 
L 394.238968 60.288 
L 394.238353 62.976 
L 394.237736 65.664 
L 394.237117 68.352 
L 394.236496 71.04 
L 394.235873 73.728 
L 394.235249 76.416 
L 394.234623 79.104 
L 394.233995 81.792 
L 394.233365 84.48 
L 394.232733 87.168 
L 394.2321 89.856 
L 394.231464 92.544 
L 394.230827 95.232 
L 394.230188 97.92 
L 394.229547 100.608 
L 394.228905 103.296 
L 394.22826 105.984 
L 394.227614 108.672 
L 394.226966 111.36 
L 394.226316 114.048 
L 394.225664 116.736 
L 394.225011 119.424 
L 394.224355 122.112 
L 394.223698 124.8 
L 394.223039 127.488 
L 394.222378 130.176 
L 394.221716 132.864 
L 394.221051 135.552 
L 394.220385 138.24 
L 394.219717 140.928 
L 394.219047 143.616 
L 394.218375 146.304 
L 394.217701 148.992 
L 394.217026 151.68 
L 394.216349 154.368 
L 394.21567 157.056 
L 394.214989 159.744 
L 394.214306 162.432 
L 394.213622 165.12 
L 394.212935 167.808 
L 394.212247 170.496 
L 394.211557 173.184 
L 394.210865 175.872 
L 394.210172 178.56 
L 394.209476 181.248 
L 394.208779 183.936 
L 394.20808 186.624 
L 394.207379 189.312 
L 394.206676 192 
L 394.205972 194.688 
L 394.205265 197.376 
L 394.204557 200.064 
L 394.203847 202.752 
L 394.203135 205.44 
L 394.202421 208.128 
L 394.201706 210.816 
L 394.200989 213.504 
L 394.200269 216.192 
L 394.199549 218.88 
L 394.198826 221.568 
L 394.198101 224.256 
L 394.197375 226.944 
L 394.196646 229.632 
L 394.195916 232.32 
L 394.195185 235.008 
L 394.194451 237.696 
L 394.193715 240.384 
L 394.192978 243.072 
L 394.192239 245.76 
L 394.191498 248.448 
L 394.190755 251.136 
L 394.19001 253.824 
L 394.189264 256.512 
L 394.188516 259.2 
L 394.187765 261.888 
L 394.187014 264.576 
L 394.18626 267.264 
L 394.185504 269.952 
L 394.184747 272.64 
L 394.183988 275.328 
L 394.183227 278.016 
L 394.182464 280.704 
L 394.181699 283.392 
L 394.180933 286.08 
L 394.180164 288.768 
L 394.179394 291.456 
L 394.178622 294.144 
L 394.177848 296.832 
L 394.177073 299.52 
L 394.176295 302.208 
L 394.175516 304.896 
L 394.174735 307.584 
z
" clip-path="url(#pa1eccf49ac)" style="fill: #481b6d; fill-opacity: 0.75"/>
   </g>
   <g id="PathCollection_2">
    <path d="M 364.218182 307.584 
L 367.825455 307.584 
L 371.432727 307.584 
L 375.04 307.584 
L 378.647273 307.584 
L 382.254545 307.584 
L 385.861818 307.584 
L 389.469091 307.584 
L 393.076364 307.584 
L 394.174735 307.584 
L 394.175516 304.896 
L 394.176295 302.208 
L 394.177073 299.52 
L 394.177848 296.832 
L 394.178622 294.144 
L 394.179394 291.456 
L 394.180164 288.768 
L 394.180933 286.08 
L 394.181699 283.392 
L 394.182464 280.704 
L 394.183227 278.016 
L 394.183988 275.328 
L 394.184747 272.64 
L 394.185504 269.952 
L 394.18626 267.264 
L 394.187014 264.576 
L 394.187765 261.888 
L 394.188516 259.2 
L 394.189264 256.512 
L 394.19001 253.824 
L 394.190755 251.136 
L 394.191498 248.448 
L 394.192239 245.76 
L 394.192978 243.072 
L 394.193715 240.384 
L 394.194451 237.696 
L 394.195185 235.008 
L 394.195916 232.32 
L 394.196646 229.632 
L 394.197375 226.944 
L 394.198101 224.256 
L 394.198826 221.568 
L 394.199549 218.88 
L 394.200269 216.192 
L 394.200989 213.504 
L 394.201706 210.816 
L 394.202421 208.128 
L 394.203135 205.44 
L 394.203847 202.752 
L 394.204557 200.064 
L 394.205265 197.376 
L 394.205972 194.688 
L 394.206676 192 
L 394.207379 189.312 
L 394.20808 186.624 
L 394.208779 183.936 
L 394.209476 181.248 
L 394.210172 178.56 
L 394.210865 175.872 
L 394.211557 173.184 
L 394.212247 170.496 
L 394.212935 167.808 
L 394.213622 165.12 
L 394.214306 162.432 
L 394.214989 159.744 
L 394.21567 157.056 
L 394.216349 154.368 
L 394.217026 151.68 
L 394.217701 148.992 
L 394.218375 146.304 
L 394.219047 143.616 
L 394.219717 140.928 
L 394.220385 138.24 
L 394.221051 135.552 
L 394.221716 132.864 
L 394.222378 130.176 
L 394.223039 127.488 
L 394.223698 124.8 
L 394.224355 122.112 
L 394.225011 119.424 
L 394.225664 116.736 
L 394.226316 114.048 
L 394.226966 111.36 
L 394.227614 108.672 
L 394.22826 105.984 
L 394.228905 103.296 
L 394.229547 100.608 
L 394.230188 97.92 
L 394.230827 95.232 
L 394.231464 92.544 
L 394.2321 89.856 
L 394.232733 87.168 
L 394.233365 84.48 
L 394.233995 81.792 
L 394.234623 79.104 
L 394.235249 76.416 
L 394.235873 73.728 
L 394.236496 71.04 
L 394.237117 68.352 
L 394.237736 65.664 
L 394.238353 62.976 
L 394.238968 60.288 
L 394.239581 57.6 
L 394.240193 54.912 
L 394.240803 52.224 
L 394.241411 49.536 
L 394.242017 46.848 
L 394.242622 44.16 
L 394.243224 41.472 
L 393.076364 41.472 
L 389.469091 41.472 
L 385.861818 41.472 
L 382.254545 41.472 
L 378.647273 41.472 
L 375.04 41.472 
L 371.432727 41.472 
L 367.825455 41.472 
L 364.218182 41.472 
L 361.789123 41.472 
L 361.788461 44.16 
L 361.787796 46.848 
L 361.787129 49.536 
L 361.786461 52.224 
L 361.78579 54.912 
L 361.785117 57.6 
L 361.784443 60.288 
L 361.783766 62.976 
L 361.783087 65.664 
L 361.782406 68.352 
L 361.781724 71.04 
L 361.781039 73.728 
L 361.780352 76.416 
L 361.779663 79.104 
L 361.778972 81.792 
L 361.778279 84.48 
L 361.777584 87.168 
L 361.776887 89.856 
L 361.776188 92.544 
L 361.775487 95.232 
L 361.774784 97.92 
L 361.774079 100.608 
L 361.773372 103.296 
L 361.772662 105.984 
L 361.771951 108.672 
L 361.771238 111.36 
L 361.770523 114.048 
L 361.769805 116.736 
L 361.769086 119.424 
L 361.768365 122.112 
L 361.767641 124.8 
L 361.766916 127.488 
L 361.766189 130.176 
L 361.765459 132.864 
L 361.764728 135.552 
L 361.763994 138.24 
L 361.763259 140.928 
L 361.762521 143.616 
L 361.761782 146.304 
L 361.76104 148.992 
L 361.760296 151.68 
L 361.759551 154.368 
L 361.758803 157.056 
L 361.758053 159.744 
L 361.757302 162.432 
L 361.756548 165.12 
L 361.755792 167.808 
L 361.755034 170.496 
L 361.754274 173.184 
L 361.753512 175.872 
L 361.752749 178.56 
L 361.751983 181.248 
L 361.751215 183.936 
L 361.750445 186.624 
L 361.749673 189.312 
L 361.748899 192 
L 361.748123 194.688 
L 361.747344 197.376 
L 361.746564 200.064 
L 361.745782 202.752 
L 361.744998 205.44 
L 361.744212 208.128 
L 361.743424 210.816 
L 361.742633 213.504 
L 361.741841 216.192 
L 361.741047 218.88 
L 361.74025 221.568 
L 361.739452 224.256 
L 361.738652 226.944 
L 361.737849 229.632 
L 361.737045 232.32 
L 361.736238 235.008 
L 361.73543 237.696 
L 361.734619 240.384 
L 361.733807 243.072 
L 361.732992 245.76 
L 361.732176 248.448 
L 361.731357 251.136 
L 361.730536 253.824 
L 361.729714 256.512 
L 361.728889 259.2 
L 361.728062 261.888 
L 361.727233 264.576 
L 361.726403 267.264 
L 361.72557 269.952 
L 361.724735 272.64 
L 361.723898 275.328 
L 361.723059 278.016 
L 361.722218 280.704 
L 361.721375 283.392 
L 361.72053 286.08 
L 361.719683 288.768 
L 361.718834 291.456 
L 361.717983 294.144 
L 361.71713 296.832 
L 361.716275 299.52 
L 361.715418 302.208 
L 361.714559 304.896 
L 361.713697 307.584 
z
" clip-path="url(#pa1eccf49ac)" style="fill: #3f4788; fill-opacity: 0.75"/>
   </g>
   <g id="PathCollection_3">
    <path d="M 328.145455 307.584 
L 331.752727 307.584 
L 335.36 307.584 
L 338.967273 307.584 
L 342.574545 307.584 
L 346.181818 307.584 
L 349.789091 307.584 
L 353.396364 307.584 
L 357.003636 307.584 
L 360.610909 307.584 
L 361.713697 307.584 
L 361.714559 304.896 
L 361.715418 302.208 
L 361.716275 299.52 
L 361.71713 296.832 
L 361.717983 294.144 
L 361.718834 291.456 
L 361.719683 288.768 
L 361.72053 286.08 
L 361.721375 283.392 
L 361.722218 280.704 
L 361.723059 278.016 
L 361.723898 275.328 
L 361.724735 272.64 
L 361.72557 269.952 
L 361.726403 267.264 
L 361.727233 264.576 
L 361.728062 261.888 
L 361.728889 259.2 
L 361.729714 256.512 
L 361.730536 253.824 
L 361.731357 251.136 
L 361.732176 248.448 
L 361.732992 245.76 
L 361.733807 243.072 
L 361.734619 240.384 
L 361.73543 237.696 
L 361.736238 235.008 
L 361.737045 232.32 
L 361.737849 229.632 
L 361.738652 226.944 
L 361.739452 224.256 
L 361.74025 221.568 
L 361.741047 218.88 
L 361.741841 216.192 
L 361.742633 213.504 
L 361.743424 210.816 
L 361.744212 208.128 
L 361.744998 205.44 
L 361.745782 202.752 
L 361.746564 200.064 
L 361.747344 197.376 
L 361.748123 194.688 
L 361.748899 192 
L 361.749673 189.312 
L 361.750445 186.624 
L 361.751215 183.936 
L 361.751983 181.248 
L 361.752749 178.56 
L 361.753512 175.872 
L 361.754274 173.184 
L 361.755034 170.496 
L 361.755792 167.808 
L 361.756548 165.12 
L 361.757302 162.432 
L 361.758053 159.744 
L 361.758803 157.056 
L 361.759551 154.368 
L 361.760296 151.68 
L 361.76104 148.992 
L 361.761782 146.304 
L 361.762521 143.616 
L 361.763259 140.928 
L 361.763994 138.24 
L 361.764728 135.552 
L 361.765459 132.864 
L 361.766189 130.176 
L 361.766916 127.488 
L 361.767641 124.8 
L 361.768365 122.112 
L 361.769086 119.424 
L 361.769805 116.736 
L 361.770523 114.048 
L 361.771238 111.36 
L 361.771951 108.672 
L 361.772662 105.984 
L 361.773372 103.296 
L 361.774079 100.608 
L 361.774784 97.92 
L 361.775487 95.232 
L 361.776188 92.544 
L 361.776887 89.856 
L 361.777584 87.168 
L 361.778279 84.48 
L 361.778972 81.792 
L 361.779663 79.104 
L 361.780352 76.416 
L 361.781039 73.728 
L 361.781724 71.04 
L 361.782406 68.352 
L 361.783087 65.664 
L 361.783766 62.976 
L 361.784443 60.288 
L 361.785117 57.6 
L 361.78579 54.912 
L 361.786461 52.224 
L 361.787129 49.536 
L 361.787796 46.848 
L 361.788461 44.16 
L 361.789123 41.472 
L 360.610909 41.472 
L 357.003636 41.472 
L 353.396364 41.472 
L 349.789091 41.472 
L 346.181818 41.472 
L 342.574545 41.472 
L 338.967273 41.472 
L 335.36 41.472 
L 331.752727 41.472 
L 328.145455 41.472 
L 325.689846 41.472 
L 325.689101 44.16 
L 325.688353 46.848 
L 325.687603 49.536 
L 325.68685 52.224 
L 325.686095 54.912 
L 325.685338 57.6 
L 325.684579 60.288 
L 325.683817 62.976 
L 325.683053 65.664 
L 325.682287 68.352 
L 325.681518 71.04 
L 325.680747 73.728 
L 325.679974 76.416 
L 325.679198 79.104 
L 325.678421 81.792 
L 325.67764 84.48 
L 325.676858 87.168 
L 325.676073 89.856 
L 325.675286 92.544 
L 325.674497 95.232 
L 325.673705 97.92 
L 325.672911 100.608 
L 325.672115 103.296 
L 325.671316 105.984 
L 325.670515 108.672 
L 325.669712 111.36 
L 325.668906 114.048 
L 325.668098 116.736 
L 325.667288 119.424 
L 325.666476 122.112 
L 325.665661 124.8 
L 325.664844 127.488 
L 325.664024 130.176 
L 325.663203 132.864 
L 325.662379 135.552 
L 325.661552 138.24 
L 325.660724 140.928 
L 325.659893 143.616 
L 325.659059 146.304 
L 325.658224 148.992 
L 325.657386 151.68 
L 325.656546 154.368 
L 325.655703 157.056 
L 325.654858 159.744 
L 325.654011 162.432 
L 325.653162 165.12 
L 325.65231 167.808 
L 325.651456 170.496 
L 325.6506 173.184 
L 325.649741 175.872 
L 325.64888 178.56 
L 325.648017 181.248 
L 325.647151 183.936 
L 325.646283 186.624 
L 325.645413 189.312 
L 325.644541 192 
L 325.643666 194.688 
L 325.642789 197.376 
L 325.641909 200.064 
L 325.641027 202.752 
L 325.640143 205.44 
L 325.639257 208.128 
L 325.638368 210.816 
L 325.637477 213.504 
L 325.636584 216.192 
L 325.635688 218.88 
L 325.63479 221.568 
L 325.63389 224.256 
L 325.632988 226.944 
L 325.632083 229.632 
L 325.631176 232.32 
L 325.630266 235.008 
L 325.629354 237.696 
L 325.62844 240.384 
L 325.627524 243.072 
L 325.626605 245.76 
L 325.625684 248.448 
L 325.624761 251.136 
L 325.623835 253.824 
L 325.622907 256.512 
L 325.621977 259.2 
L 325.621045 261.888 
L 325.62011 264.576 
L 325.619173 267.264 
L 325.618233 269.952 
L 325.617291 272.64 
L 325.616347 275.328 
L 325.615401 278.016 
L 325.614452 280.704 
L 325.613501 283.392 
L 325.612548 286.08 
L 325.611592 288.768 
L 325.610634 291.456 
L 325.609674 294.144 
L 325.608712 296.832 
L 325.607747 299.52 
L 325.606779 302.208 
L 325.60581 304.896 
L 325.604838 307.584 
z
" clip-path="url(#pa1eccf49ac)" style="fill: #2e6e8e; fill-opacity: 0.75"/>
   </g>
   <g id="PathCollection_4">
    <path d="M 284.858182 307.584 
L 288.465455 307.584 
L 292.072727 307.584 
L 295.68 307.584 
L 299.287273 307.584 
L 302.894545 307.584 
L 306.501818 307.584 
L 310.109091 307.584 
L 313.716364 307.584 
L 317.323636 307.584 
L 320.930909 307.584 
L 324.538182 307.584 
L 325.604838 307.584 
L 325.60581 304.896 
L 325.606779 302.208 
L 325.607747 299.52 
L 325.608712 296.832 
L 325.609674 294.144 
L 325.610634 291.456 
L 325.611592 288.768 
L 325.612548 286.08 
L 325.613501 283.392 
L 325.614452 280.704 
L 325.615401 278.016 
L 325.616347 275.328 
L 325.617291 272.64 
L 325.618233 269.952 
L 325.619173 267.264 
L 325.62011 264.576 
L 325.621045 261.888 
L 325.621977 259.2 
L 325.622907 256.512 
L 325.623835 253.824 
L 325.624761 251.136 
L 325.625684 248.448 
L 325.626605 245.76 
L 325.627524 243.072 
L 325.62844 240.384 
L 325.629354 237.696 
L 325.630266 235.008 
L 325.631176 232.32 
L 325.632083 229.632 
L 325.632988 226.944 
L 325.63389 224.256 
L 325.63479 221.568 
L 325.635688 218.88 
L 325.636584 216.192 
L 325.637477 213.504 
L 325.638368 210.816 
L 325.639257 208.128 
L 325.640143 205.44 
L 325.641027 202.752 
L 325.641909 200.064 
L 325.642789 197.376 
L 325.643666 194.688 
L 325.644541 192 
L 325.645413 189.312 
L 325.646283 186.624 
L 325.647151 183.936 
L 325.648017 181.248 
L 325.64888 178.56 
L 325.649741 175.872 
L 325.6506 173.184 
L 325.651456 170.496 
L 325.65231 167.808 
L 325.653162 165.12 
L 325.654011 162.432 
L 325.654858 159.744 
L 325.655703 157.056 
L 325.656546 154.368 
L 325.657386 151.68 
L 325.658224 148.992 
L 325.659059 146.304 
L 325.659893 143.616 
L 325.660724 140.928 
L 325.661552 138.24 
L 325.662379 135.552 
L 325.663203 132.864 
L 325.664024 130.176 
L 325.664844 127.488 
L 325.665661 124.8 
L 325.666476 122.112 
L 325.667288 119.424 
L 325.668098 116.736 
L 325.668906 114.048 
L 325.669712 111.36 
L 325.670515 108.672 
L 325.671316 105.984 
L 325.672115 103.296 
L 325.672911 100.608 
L 325.673705 97.92 
L 325.674497 95.232 
L 325.675286 92.544 
L 325.676073 89.856 
L 325.676858 87.168 
L 325.67764 84.48 
L 325.678421 81.792 
L 325.679198 79.104 
L 325.679974 76.416 
L 325.680747 73.728 
L 325.681518 71.04 
L 325.682287 68.352 
L 325.683053 65.664 
L 325.683817 62.976 
L 325.684579 60.288 
L 325.685338 57.6 
L 325.686095 54.912 
L 325.68685 52.224 
L 325.687603 49.536 
L 325.688353 46.848 
L 325.689101 44.16 
L 325.689846 41.472 
L 324.538182 41.472 
L 320.930909 41.472 
L 317.323636 41.472 
L 313.716364 41.472 
L 310.109091 41.472 
L 306.501818 41.472 
L 302.894545 41.472 
L 299.287273 41.472 
L 295.68 41.472 
L 292.072727 41.472 
L 288.465455 41.472 
L 284.858182 41.472 
L 284.295209 41.472 
L 284.294331 44.16 
L 284.29345 46.848 
L 284.292566 49.536 
L 284.29168 52.224 
L 284.29079 54.912 
L 284.289898 57.6 
L 284.289003 60.288 
L 284.288106 62.976 
L 284.287205 65.664 
L 284.286302 68.352 
L 284.285396 71.04 
L 284.284488 73.728 
L 284.283576 76.416 
L 284.282662 79.104 
L 284.281746 81.792 
L 284.280826 84.48 
L 284.279904 87.168 
L 284.278978 89.856 
L 284.278051 92.544 
L 284.27712 95.232 
L 284.276186 97.92 
L 284.27525 100.608 
L 284.274311 103.296 
L 284.27337 105.984 
L 284.272425 108.672 
L 284.271478 111.36 
L 284.270528 114.048 
L 284.269576 116.736 
L 284.26862 119.424 
L 284.267662 122.112 
L 284.266701 124.8 
L 284.265737 127.488 
L 284.264771 130.176 
L 284.263802 132.864 
L 284.26283 135.552 
L 284.261855 138.24 
L 284.260878 140.928 
L 284.259897 143.616 
L 284.258915 146.304 
L 284.257929 148.992 
L 284.25694 151.68 
L 284.255949 154.368 
L 284.254955 157.056 
L 284.253958 159.744 
L 284.252959 162.432 
L 284.251957 165.12 
L 284.250952 167.808 
L 284.249944 170.496 
L 284.248933 173.184 
L 284.24792 175.872 
L 284.246904 178.56 
L 284.245885 181.248 
L 284.244864 183.936 
L 284.24384 186.624 
L 284.242812 189.312 
L 284.241783 192 
L 284.24075 194.688 
L 284.239715 197.376 
L 284.238677 200.064 
L 284.237636 202.752 
L 284.236592 205.44 
L 284.235546 208.128 
L 284.234497 210.816 
L 284.233445 213.504 
L 284.232391 216.192 
L 284.231333 218.88 
L 284.230273 221.568 
L 284.22921 224.256 
L 284.228145 226.944 
L 284.227076 229.632 
L 284.226005 232.32 
L 284.224932 235.008 
L 284.223855 237.696 
L 284.222776 240.384 
L 284.221693 243.072 
L 284.220609 245.76 
L 284.219521 248.448 
L 284.218431 251.136 
L 284.217337 253.824 
L 284.216242 256.512 
L 284.215143 259.2 
L 284.214041 261.888 
L 284.212937 264.576 
L 284.21183 267.264 
L 284.210721 269.952 
L 284.209608 272.64 
L 284.208493 275.328 
L 284.207375 278.016 
L 284.206255 280.704 
L 284.205131 283.392 
L 284.204005 286.08 
L 284.202876 288.768 
L 284.201744 291.456 
L 284.20061 294.144 
L 284.199473 296.832 
L 284.198333 299.52 
L 284.19719 302.208 
L 284.196045 304.896 
L 284.194896 307.584 
z
" clip-path="url(#pa1eccf49ac)" style="fill: #21918c; fill-opacity: 0.75"/>
   </g>
   <g id="PathCollection_5">
    <path d="M 234.356364 307.584 
L 237.963636 307.584 
L 241.570909 307.584 
L 245.178182 307.584 
L 248.785455 307.584 
L 252.392727 307.584 
L 256 307.584 
L 259.607273 307.584 
L 263.214545 307.584 
L 266.821818 307.584 
L 270.429091 307.584 
L 274.036364 307.584 
L 277.643636 307.584 
L 281.250909 307.584 
L 284.194896 307.584 
L 284.196045 304.896 
L 284.19719 302.208 
L 284.198333 299.52 
L 284.199473 296.832 
L 284.20061 294.144 
L 284.201744 291.456 
L 284.202876 288.768 
L 284.204005 286.08 
L 284.205131 283.392 
L 284.206255 280.704 
L 284.207375 278.016 
L 284.208493 275.328 
L 284.209608 272.64 
L 284.210721 269.952 
L 284.21183 267.264 
L 284.212937 264.576 
L 284.214041 261.888 
L 284.215143 259.2 
L 284.216242 256.512 
L 284.217337 253.824 
L 284.218431 251.136 
L 284.219521 248.448 
L 284.220609 245.76 
L 284.221693 243.072 
L 284.222776 240.384 
L 284.223855 237.696 
L 284.224932 235.008 
L 284.226005 232.32 
L 284.227076 229.632 
L 284.228145 226.944 
L 284.22921 224.256 
L 284.230273 221.568 
L 284.231333 218.88 
L 284.232391 216.192 
L 284.233445 213.504 
L 284.234497 210.816 
L 284.235546 208.128 
L 284.236592 205.44 
L 284.237636 202.752 
L 284.238677 200.064 
L 284.239715 197.376 
L 284.24075 194.688 
L 284.241783 192 
L 284.242812 189.312 
L 284.24384 186.624 
L 284.244864 183.936 
L 284.245885 181.248 
L 284.246904 178.56 
L 284.24792 175.872 
L 284.248933 173.184 
L 284.249944 170.496 
L 284.250952 167.808 
L 284.251957 165.12 
L 284.252959 162.432 
L 284.253958 159.744 
L 284.254955 157.056 
L 284.255949 154.368 
L 284.25694 151.68 
L 284.257929 148.992 
L 284.258915 146.304 
L 284.259897 143.616 
L 284.260878 140.928 
L 284.261855 138.24 
L 284.26283 135.552 
L 284.263802 132.864 
L 284.264771 130.176 
L 284.265737 127.488 
L 284.266701 124.8 
L 284.267662 122.112 
L 284.26862 119.424 
L 284.269576 116.736 
L 284.270528 114.048 
L 284.271478 111.36 
L 284.272425 108.672 
L 284.27337 105.984 
L 284.274311 103.296 
L 284.27525 100.608 
L 284.276186 97.92 
L 284.27712 95.232 
L 284.278051 92.544 
L 284.278978 89.856 
L 284.279904 87.168 
L 284.280826 84.48 
L 284.281746 81.792 
L 284.282662 79.104 
L 284.283576 76.416 
L 284.284488 73.728 
L 284.285396 71.04 
L 284.286302 68.352 
L 284.287205 65.664 
L 284.288106 62.976 
L 284.289003 60.288 
L 284.289898 57.6 
L 284.29079 54.912 
L 284.29168 52.224 
L 284.292566 49.536 
L 284.29345 46.848 
L 284.294331 44.16 
L 284.295209 41.472 
L 281.250909 41.472 
L 277.643636 41.472 
L 274.036364 41.472 
L 270.429091 41.472 
L 266.821818 41.472 
L 263.214545 41.472 
L 259.607273 41.472 
L 256 41.472 
L 252.392727 41.472 
L 248.785455 41.472 
L 245.178182 41.472 
L 241.570909 41.472 
L 237.963636 41.472 
L 234.356364 41.472 
L 234.160902 41.472 
L 234.159792 44.16 
L 234.158679 46.848 
L 234.157562 49.536 
L 234.156441 52.224 
L 234.155317 54.912 
L 234.15419 57.6 
L 234.153059 60.288 
L 234.151924 62.976 
L 234.150786 65.664 
L 234.149645 68.352 
L 234.1485 71.04 
L 234.147351 73.728 
L 234.146199 76.416 
L 234.145043 79.104 
L 234.143884 81.792 
L 234.142722 84.48 
L 234.141555 87.168 
L 234.140386 89.856 
L 234.139212 92.544 
L 234.138035 95.232 
L 234.136855 97.92 
L 234.135671 100.608 
L 234.134484 103.296 
L 234.133293 105.984 
L 234.132098 108.672 
L 234.1309 111.36 
L 234.129699 114.048 
L 234.128494 116.736 
L 234.127285 119.424 
L 234.126073 122.112 
L 234.124858 124.8 
L 234.123638 127.488 
L 234.122416 130.176 
L 234.12119 132.864 
L 234.11996 135.552 
L 234.118727 138.24 
L 234.11749 140.928 
L 234.116249 143.616 
L 234.115006 146.304 
L 234.113758 148.992 
L 234.112507 151.68 
L 234.111253 154.368 
L 234.109995 157.056 
L 234.108733 159.744 
L 234.107468 162.432 
L 234.1062 165.12 
L 234.104928 167.808 
L 234.103652 170.496 
L 234.102373 173.184 
L 234.101091 175.872 
L 234.099804 178.56 
L 234.098515 181.248 
L 234.097222 183.936 
L 234.095925 186.624 
L 234.094624 189.312 
L 234.093321 192 
L 234.092013 194.688 
L 234.090703 197.376 
L 234.089388 200.064 
L 234.08807 202.752 
L 234.086749 205.44 
L 234.085424 208.128 
L 234.084095 210.816 
L 234.082763 213.504 
L 234.081428 216.192 
L 234.080089 218.88 
L 234.078746 221.568 
L 234.0774 224.256 
L 234.07605 226.944 
L 234.074697 229.632 
L 234.07334 232.32 
L 234.07198 235.008 
L 234.070616 237.696 
L 234.069249 240.384 
L 234.067878 243.072 
L 234.066504 245.76 
L 234.065126 248.448 
L 234.063745 251.136 
L 234.06236 253.824 
L 234.060971 256.512 
L 234.059579 259.2 
L 234.058184 261.888 
L 234.056785 264.576 
L 234.055382 267.264 
L 234.053976 269.952 
L 234.052567 272.64 
L 234.051153 275.328 
L 234.049737 278.016 
L 234.048317 280.704 
L 234.046893 283.392 
L 234.045466 286.08 
L 234.044035 288.768 
L 234.042601 291.456 
L 234.041163 294.144 
L 234.039721 296.832 
L 234.038277 299.52 
L 234.036828 302.208 
L 234.035376 304.896 
L 234.033921 307.584 
z
" clip-path="url(#pa1eccf49ac)" style="fill: #2db27d; fill-opacity: 0.75"/>
   </g>
   <g id="PathCollection_6">
    <path d="M 165.818182 307.584 
L 169.425455 307.584 
L 173.032727 307.584 
L 176.64 307.584 
L 180.247273 307.584 
L 183.854545 307.584 
L 187.461818 307.584 
L 191.069091 307.584 
L 194.676364 307.584 
L 198.283636 307.584 
L 201.890909 307.584 
L 205.498182 307.584 
L 209.105455 307.584 
L 212.712727 307.584 
L 216.32 307.584 
L 219.927273 307.584 
L 223.534545 307.584 
L 227.141818 307.584 
L 230.749091 307.584 
L 234.033921 307.584 
L 234.035376 304.896 
L 234.036828 302.208 
L 234.038277 299.52 
L 234.039721 296.832 
L 234.041163 294.144 
L 234.042601 291.456 
L 234.044035 288.768 
L 234.045466 286.08 
L 234.046893 283.392 
L 234.048317 280.704 
L 234.049737 278.016 
L 234.051153 275.328 
L 234.052567 272.64 
L 234.053976 269.952 
L 234.055382 267.264 
L 234.056785 264.576 
L 234.058184 261.888 
L 234.059579 259.2 
L 234.060971 256.512 
L 234.06236 253.824 
L 234.063745 251.136 
L 234.065126 248.448 
L 234.066504 245.76 
L 234.067878 243.072 
L 234.069249 240.384 
L 234.070616 237.696 
L 234.07198 235.008 
L 234.07334 232.32 
L 234.074697 229.632 
L 234.07605 226.944 
L 234.0774 224.256 
L 234.078746 221.568 
L 234.080089 218.88 
L 234.081428 216.192 
L 234.082763 213.504 
L 234.084095 210.816 
L 234.085424 208.128 
L 234.086749 205.44 
L 234.08807 202.752 
L 234.089388 200.064 
L 234.090703 197.376 
L 234.092013 194.688 
L 234.093321 192 
L 234.094624 189.312 
L 234.095925 186.624 
L 234.097222 183.936 
L 234.098515 181.248 
L 234.099804 178.56 
L 234.101091 175.872 
L 234.102373 173.184 
L 234.103652 170.496 
L 234.104928 167.808 
L 234.1062 165.12 
L 234.107468 162.432 
L 234.108733 159.744 
L 234.109995 157.056 
L 234.111253 154.368 
L 234.112507 151.68 
L 234.113758 148.992 
L 234.115006 146.304 
L 234.116249 143.616 
L 234.11749 140.928 
L 234.118727 138.24 
L 234.11996 135.552 
L 234.12119 132.864 
L 234.122416 130.176 
L 234.123638 127.488 
L 234.124858 124.8 
L 234.126073 122.112 
L 234.127285 119.424 
L 234.128494 116.736 
L 234.129699 114.048 
L 234.1309 111.36 
L 234.132098 108.672 
L 234.133293 105.984 
L 234.134484 103.296 
L 234.135671 100.608 
L 234.136855 97.92 
L 234.138035 95.232 
L 234.139212 92.544 
L 234.140386 89.856 
L 234.141555 87.168 
L 234.142722 84.48 
L 234.143884 81.792 
L 234.145043 79.104 
L 234.146199 76.416 
L 234.147351 73.728 
L 234.1485 71.04 
L 234.149645 68.352 
L 234.150786 65.664 
L 234.151924 62.976 
L 234.153059 60.288 
L 234.15419 57.6 
L 234.155317 54.912 
L 234.156441 52.224 
L 234.157562 49.536 
L 234.158679 46.848 
L 234.159792 44.16 
L 234.160902 41.472 
L 230.749091 41.472 
L 227.141818 41.472 
L 223.534545 41.472 
L 219.927273 41.472 
L 216.32 41.472 
L 212.712727 41.472 
L 209.105455 41.472 
L 205.498182 41.472 
L 201.890909 41.472 
L 198.283636 41.472 
L 194.676364 41.472 
L 191.069091 41.472 
L 187.461818 41.472 
L 183.854545 41.472 
L 180.247273 41.472 
L 176.64 41.472 
L 173.032727 41.472 
L 169.425455 41.472 
L 165.818182 41.472 
L 164.906683 41.472 
L 164.904953 44.16 
L 164.903218 46.848 
L 164.901477 49.536 
L 164.89973 52.224 
L 164.897978 54.912 
L 164.89622 57.6 
L 164.894457 60.288 
L 164.892688 62.976 
L 164.890913 65.664 
L 164.889133 68.352 
L 164.887347 71.04 
L 164.885556 73.728 
L 164.883759 76.416 
L 164.881957 79.104 
L 164.880149 81.792 
L 164.878335 84.48 
L 164.876516 87.168 
L 164.874691 89.856 
L 164.872861 92.544 
L 164.871025 95.232 
L 164.869183 97.92 
L 164.867336 100.608 
L 164.865483 103.296 
L 164.863625 105.984 
L 164.861761 108.672 
L 164.859892 111.36 
L 164.858017 114.048 
L 164.856136 116.736 
L 164.85425 119.424 
L 164.852358 122.112 
L 164.850461 124.8 
L 164.848558 127.488 
L 164.846649 130.176 
L 164.844735 132.864 
L 164.842815 135.552 
L 164.84089 138.24 
L 164.838959 140.928 
L 164.837023 143.616 
L 164.835081 146.304 
L 164.833133 148.992 
L 164.83118 151.68 
L 164.829221 154.368 
L 164.827257 157.056 
L 164.825287 159.744 
L 164.823311 162.432 
L 164.82133 165.12 
L 164.819344 167.808 
L 164.817351 170.496 
L 164.815353 173.184 
L 164.81335 175.872 
L 164.811341 178.56 
L 164.809326 181.248 
L 164.807306 183.936 
L 164.80528 186.624 
L 164.803249 189.312 
L 164.801212 192 
L 164.79917 194.688 
L 164.797122 197.376 
L 164.795068 200.064 
L 164.793009 202.752 
L 164.790944 205.44 
L 164.788873 208.128 
L 164.786797 210.816 
L 164.784716 213.504 
L 164.782628 216.192 
L 164.780536 218.88 
L 164.778437 221.568 
L 164.776333 224.256 
L 164.774224 226.944 
L 164.772109 229.632 
L 164.769988 232.32 
L 164.767862 235.008 
L 164.76573 237.696 
L 164.763593 240.384 
L 164.76145 243.072 
L 164.759301 245.76 
L 164.757147 248.448 
L 164.754987 251.136 
L 164.752822 253.824 
L 164.750651 256.512 
L 164.748474 259.2 
L 164.746292 261.888 
L 164.744105 264.576 
L 164.741911 267.264 
L 164.739712 269.952 
L 164.737508 272.64 
L 164.735298 275.328 
L 164.733082 278.016 
L 164.730861 280.704 
L 164.728634 283.392 
L 164.726402 286.08 
L 164.724164 288.768 
L 164.721921 291.456 
L 164.719672 294.144 
L 164.717417 296.832 
L 164.715157 299.52 
L 164.712891 302.208 
L 164.710619 304.896 
L 164.708342 307.584 
z
" clip-path="url(#pa1eccf49ac)" style="fill: #73d056; fill-opacity: 0.75"/>
   </g>
   <g id="PathCollection_7">
    <path d="M 61.207273 307.584 
L 64.814545 307.584 
L 68.421818 307.584 
L 72.029091 307.584 
L 75.636364 307.584 
L 79.243636 307.584 
L 82.850909 307.584 
L 86.458182 307.584 
L 90.065455 307.584 
L 93.672727 307.584 
L 97.28 307.584 
L 100.887273 307.584 
L 104.494545 307.584 
L 108.101818 307.584 
L 111.709091 307.584 
L 115.316364 307.584 
L 118.923636 307.584 
L 122.530909 307.584 
L 126.138182 307.584 
L 129.745455 307.584 
L 133.352727 307.584 
L 136.96 307.584 
L 140.567273 307.584 
L 144.174545 307.584 
L 147.781818 307.584 
L 151.389091 307.584 
L 154.996364 307.584 
L 158.603636 307.584 
L 162.210909 307.584 
L 164.708342 307.584 
L 164.710619 304.896 
L 164.712891 302.208 
L 164.715157 299.52 
L 164.717417 296.832 
L 164.719672 294.144 
L 164.721921 291.456 
L 164.724164 288.768 
L 164.726402 286.08 
L 164.728634 283.392 
L 164.730861 280.704 
L 164.733082 278.016 
L 164.735298 275.328 
L 164.737508 272.64 
L 164.739712 269.952 
L 164.741911 267.264 
L 164.744105 264.576 
L 164.746292 261.888 
L 164.748474 259.2 
L 164.750651 256.512 
L 164.752822 253.824 
L 164.754987 251.136 
L 164.757147 248.448 
L 164.759301 245.76 
L 164.76145 243.072 
L 164.763593 240.384 
L 164.76573 237.696 
L 164.767862 235.008 
L 164.769988 232.32 
L 164.772109 229.632 
L 164.774224 226.944 
L 164.776333 224.256 
L 164.778437 221.568 
L 164.780536 218.88 
L 164.782628 216.192 
L 164.784716 213.504 
L 164.786797 210.816 
L 164.788873 208.128 
L 164.790944 205.44 
L 164.793009 202.752 
L 164.795068 200.064 
L 164.797122 197.376 
L 164.79917 194.688 
L 164.801212 192 
L 164.803249 189.312 
L 164.80528 186.624 
L 164.807306 183.936 
L 164.809326 181.248 
L 164.811341 178.56 
L 164.81335 175.872 
L 164.815353 173.184 
L 164.817351 170.496 
L 164.819344 167.808 
L 164.82133 165.12 
L 164.823311 162.432 
L 164.825287 159.744 
L 164.827257 157.056 
L 164.829221 154.368 
L 164.83118 151.68 
L 164.833133 148.992 
L 164.835081 146.304 
L 164.837023 143.616 
L 164.838959 140.928 
L 164.84089 138.24 
L 164.842815 135.552 
L 164.844735 132.864 
L 164.846649 130.176 
L 164.848558 127.488 
L 164.850461 124.8 
L 164.852358 122.112 
L 164.85425 119.424 
L 164.856136 116.736 
L 164.858017 114.048 
L 164.859892 111.36 
L 164.861761 108.672 
L 164.863625 105.984 
L 164.865483 103.296 
L 164.867336 100.608 
L 164.869183 97.92 
L 164.871025 95.232 
L 164.872861 92.544 
L 164.874691 89.856 
L 164.876516 87.168 
L 164.878335 84.48 
L 164.880149 81.792 
L 164.881957 79.104 
L 164.883759 76.416 
L 164.885556 73.728 
L 164.887347 71.04 
L 164.889133 68.352 
L 164.890913 65.664 
L 164.892688 62.976 
L 164.894457 60.288 
L 164.89622 57.6 
L 164.897978 54.912 
L 164.89973 52.224 
L 164.901477 49.536 
L 164.903218 46.848 
L 164.904953 44.16 
L 164.906683 41.472 
L 162.210909 41.472 
L 158.603636 41.472 
L 154.996364 41.472 
L 151.389091 41.472 
L 147.781818 41.472 
L 144.174545 41.472 
L 140.567273 41.472 
L 136.96 41.472 
L 133.352727 41.472 
L 129.745455 41.472 
L 126.138182 41.472 
L 122.530909 41.472 
L 118.923636 41.472 
L 115.316364 41.472 
L 111.709091 41.472 
L 108.101818 41.472 
L 104.494545 41.472 
L 100.887273 41.472 
L 97.28 41.472 
L 93.672727 41.472 
L 90.065455 41.472 
L 86.458182 41.472 
L 82.850909 41.472 
L 79.243636 41.472 
L 75.636364 41.472 
L 72.029091 41.472 
L 68.421818 41.472 
L 64.814545 41.472 
L 61.207273 41.472 
L 57.6 41.472 
L 57.6 44.16 
L 57.6 46.848 
L 57.6 49.536 
L 57.6 52.224 
L 57.6 54.912 
L 57.6 57.6 
L 57.6 60.288 
L 57.6 62.976 
L 57.6 65.664 
L 57.6 68.352 
L 57.6 71.04 
L 57.6 73.728 
L 57.6 76.416 
L 57.6 79.104 
L 57.6 81.792 
L 57.6 84.48 
L 57.6 87.168 
L 57.6 89.856 
L 57.6 92.544 
L 57.6 95.232 
L 57.6 97.92 
L 57.6 100.608 
L 57.6 103.296 
L 57.6 105.984 
L 57.6 108.672 
L 57.6 111.36 
L 57.6 114.048 
L 57.6 116.736 
L 57.6 119.424 
L 57.6 122.112 
L 57.6 124.8 
L 57.6 127.488 
L 57.6 130.176 
L 57.6 132.864 
L 57.6 135.552 
L 57.6 138.24 
L 57.6 140.928 
L 57.6 143.616 
L 57.6 146.304 
L 57.6 148.992 
L 57.6 151.68 
L 57.6 154.368 
L 57.6 157.056 
L 57.6 159.744 
L 57.6 162.432 
L 57.6 165.12 
L 57.6 167.808 
L 57.6 170.496 
L 57.6 173.184 
L 57.6 175.872 
L 57.6 178.56 
L 57.6 181.248 
L 57.6 183.936 
L 57.6 186.624 
L 57.6 189.312 
L 57.6 192 
L 57.6 194.688 
L 57.6 197.376 
L 57.6 200.064 
L 57.6 202.752 
L 57.6 205.44 
L 57.6 208.128 
L 57.6 210.816 
L 57.6 213.504 
L 57.6 216.192 
L 57.6 218.88 
L 57.6 221.568 
L 57.6 224.256 
L 57.6 226.944 
L 57.6 229.632 
L 57.6 232.32 
L 57.6 235.008 
L 57.6 237.696 
L 57.6 240.384 
L 57.6 243.072 
L 57.6 245.76 
L 57.6 248.448 
L 57.6 251.136 
L 57.6 253.824 
L 57.6 256.512 
L 57.6 259.2 
L 57.6 261.888 
L 57.6 264.576 
L 57.6 267.264 
L 57.6 269.952 
L 57.6 272.64 
L 57.6 275.328 
L 57.6 278.016 
L 57.6 280.704 
L 57.6 283.392 
L 57.6 286.08 
L 57.6 288.768 
L 57.6 291.456 
L 57.6 294.144 
L 57.6 296.832 
L 57.6 299.52 
L 57.6 302.208 
L 57.6 304.896 
L 57.6 307.584 
z
" clip-path="url(#pa1eccf49ac)" style="fill: #d0e11c; fill-opacity: 0.75"/>
   </g>
   <g id="matplotlib.axis_1">
    <g id="xtick_1">
     <g id="line2d_1">
      <defs>
       <path id="m077c5b23cc" d="M 0 0 
L 0 3.5 
" style="stroke: #000000; stroke-width: 0.8"/>
      </defs>
      <g>
       <use xlink:href="#m077c5b23cc" x="117.804183" y="307.584" style="stroke: #000000; stroke-width: 0.8"/>
      </g>
     </g>
     <g id="text_1">
      <!-- 5 -->
      <g transform="translate(114.622933 322.182437) scale(0.1 -0.1)">
       <defs>
        <path id="DejaVuSans-35" d="M 691 4666 
L 3169 4666 
L 3169 4134 
L 1269 4134 
L 1269 2991 
Q 1406 3038 1543 3061 
Q 1681 3084 1819 3084 
Q 2600 3084 3056 2656 
Q 3513 2228 3513 1497 
Q 3513 744 3044 326 
Q 2575 -91 1722 -91 
Q 1428 -91 1123 -41 
Q 819 9 494 109 
L 494 744 
Q 775 591 1075 516 
Q 1375 441 1709 441 
Q 2250 441 2565 725 
Q 2881 1009 2881 1497 
Q 2881 1984 2565 2268 
Q 2250 2553 1709 2553 
Q 1456 2553 1204 2497 
Q 953 2441 691 2322 
L 691 4666 
z
" transform="scale(0.015625)"/>
       </defs>
       <use xlink:href="#DejaVuSans-35"/>
      </g>
     </g>
    </g>
    <g id="xtick_2">
     <g id="line2d_2">
      <g>
       <use xlink:href="#m077c5b23cc" x="191.10949" y="307.584" style="stroke: #000000; stroke-width: 0.8"/>
      </g>
     </g>
     <g id="text_2">
      <!-- 10 -->
      <g transform="translate(184.74699 322.182437) scale(0.1 -0.1)">
       <defs>
        <path id="DejaVuSans-31" d="M 794 531 
L 1825 531 
L 1825 4091 
L 703 3866 
L 703 4441 
L 1819 4666 
L 2450 4666 
L 2450 531 
L 3481 531 
L 3481 0 
L 794 0 
L 794 531 
z
" transform="scale(0.015625)"/>
        <path id="DejaVuSans-30" d="M 2034 4250 
Q 1547 4250 1301 3770 
Q 1056 3291 1056 2328 
Q 1056 1369 1301 889 
Q 1547 409 2034 409 
Q 2525 409 2770 889 
Q 3016 1369 3016 2328 
Q 3016 3291 2770 3770 
Q 2525 4250 2034 4250 
z
M 2034 4750 
Q 2819 4750 3233 4129 
Q 3647 3509 3647 2328 
Q 3647 1150 3233 529 
Q 2819 -91 2034 -91 
Q 1250 -91 836 529 
Q 422 1150 422 2328 
Q 422 3509 836 4129 
Q 1250 4750 2034 4750 
z
" transform="scale(0.015625)"/>
       </defs>
       <use xlink:href="#DejaVuSans-31"/>
       <use xlink:href="#DejaVuSans-30" x="63.623047"/>
      </g>
     </g>
    </g>
    <g id="xtick_3">
     <g id="line2d_3">
      <g>
       <use xlink:href="#m077c5b23cc" x="264.414798" y="307.584" style="stroke: #000000; stroke-width: 0.8"/>
      </g>
     </g>
     <g id="text_3">
      <!-- 15 -->
      <g transform="translate(258.052298 322.182437) scale(0.1 -0.1)">
       <use xlink:href="#DejaVuSans-31"/>
       <use xlink:href="#DejaVuSans-35" x="63.623047"/>
      </g>
     </g>
    </g>
    <g id="xtick_4">
     <g id="line2d_4">
      <g>
       <use xlink:href="#m077c5b23cc" x="337.720105" y="307.584" style="stroke: #000000; stroke-width: 0.8"/>
      </g>
     </g>
     <g id="text_4">
      <!-- 20 -->
      <g transform="translate(331.357605 322.182437) scale(0.1 -0.1)">
       <defs>
        <path id="DejaVuSans-32" d="M 1228 531 
L 3431 531 
L 3431 0 
L 469 0 
L 469 531 
Q 828 903 1448 1529 
Q 2069 2156 2228 2338 
Q 2531 2678 2651 2914 
Q 2772 3150 2772 3378 
Q 2772 3750 2511 3984 
Q 2250 4219 1831 4219 
Q 1534 4219 1204 4116 
Q 875 4013 500 3803 
L 500 4441 
Q 881 4594 1212 4672 
Q 1544 4750 1819 4750 
Q 2544 4750 2975 4387 
Q 3406 4025 3406 3419 
Q 3406 3131 3298 2873 
Q 3191 2616 2906 2266 
Q 2828 2175 2409 1742 
Q 1991 1309 1228 531 
z
" transform="scale(0.015625)"/>
       </defs>
       <use xlink:href="#DejaVuSans-32"/>
       <use xlink:href="#DejaVuSans-30" x="63.623047"/>
      </g>
     </g>
    </g>
    <g id="xtick_5">
     <g id="line2d_5">
      <g>
       <use xlink:href="#m077c5b23cc" x="411.025413" y="307.584" style="stroke: #000000; stroke-width: 0.8"/>
      </g>
     </g>
     <g id="text_5">
      <!-- 25 -->
      <g transform="translate(404.662913 322.182437) scale(0.1 -0.1)">
       <use xlink:href="#DejaVuSans-32"/>
       <use xlink:href="#DejaVuSans-35" x="63.623047"/>
      </g>
     </g>
    </g>
    <g id="text_6">
     <!-- GHG Emissions -->
     <g transform="translate(198.212344 335.860562) scale(0.1 -0.1)">
      <defs>
       <path id="DejaVuSans-47" d="M 3809 666 
L 3809 1919 
L 2778 1919 
L 2778 2438 
L 4434 2438 
L 4434 434 
Q 4069 175 3628 42 
Q 3188 -91 2688 -91 
Q 1594 -91 976 548 
Q 359 1188 359 2328 
Q 359 3472 976 4111 
Q 1594 4750 2688 4750 
Q 3144 4750 3555 4637 
Q 3966 4525 4313 4306 
L 4313 3634 
Q 3963 3931 3569 4081 
Q 3175 4231 2741 4231 
Q 1884 4231 1454 3753 
Q 1025 3275 1025 2328 
Q 1025 1384 1454 906 
Q 1884 428 2741 428 
Q 3075 428 3337 486 
Q 3600 544 3809 666 
z
" transform="scale(0.015625)"/>
       <path id="DejaVuSans-48" d="M 628 4666 
L 1259 4666 
L 1259 2753 
L 3553 2753 
L 3553 4666 
L 4184 4666 
L 4184 0 
L 3553 0 
L 3553 2222 
L 1259 2222 
L 1259 0 
L 628 0 
L 628 4666 
z
" transform="scale(0.015625)"/>
       <path id="DejaVuSans-20" transform="scale(0.015625)"/>
       <path id="DejaVuSans-45" d="M 628 4666 
L 3578 4666 
L 3578 4134 
L 1259 4134 
L 1259 2753 
L 3481 2753 
L 3481 2222 
L 1259 2222 
L 1259 531 
L 3634 531 
L 3634 0 
L 628 0 
L 628 4666 
z
" transform="scale(0.015625)"/>
       <path id="DejaVuSans-6d" d="M 3328 2828 
Q 3544 3216 3844 3400 
Q 4144 3584 4550 3584 
Q 5097 3584 5394 3201 
Q 5691 2819 5691 2113 
L 5691 0 
L 5113 0 
L 5113 2094 
Q 5113 2597 4934 2840 
Q 4756 3084 4391 3084 
Q 3944 3084 3684 2787 
Q 3425 2491 3425 1978 
L 3425 0 
L 2847 0 
L 2847 2094 
Q 2847 2600 2669 2842 
Q 2491 3084 2119 3084 
Q 1678 3084 1418 2786 
Q 1159 2488 1159 1978 
L 1159 0 
L 581 0 
L 581 3500 
L 1159 3500 
L 1159 2956 
Q 1356 3278 1631 3431 
Q 1906 3584 2284 3584 
Q 2666 3584 2933 3390 
Q 3200 3197 3328 2828 
z
" transform="scale(0.015625)"/>
       <path id="DejaVuSans-69" d="M 603 3500 
L 1178 3500 
L 1178 0 
L 603 0 
L 603 3500 
z
M 603 4863 
L 1178 4863 
L 1178 4134 
L 603 4134 
L 603 4863 
z
" transform="scale(0.015625)"/>
       <path id="DejaVuSans-73" d="M 2834 3397 
L 2834 2853 
Q 2591 2978 2328 3040 
Q 2066 3103 1784 3103 
Q 1356 3103 1142 2972 
Q 928 2841 928 2578 
Q 928 2378 1081 2264 
Q 1234 2150 1697 2047 
L 1894 2003 
Q 2506 1872 2764 1633 
Q 3022 1394 3022 966 
Q 3022 478 2636 193 
Q 2250 -91 1575 -91 
Q 1294 -91 989 -36 
Q 684 19 347 128 
L 347 722 
Q 666 556 975 473 
Q 1284 391 1588 391 
Q 1994 391 2212 530 
Q 2431 669 2431 922 
Q 2431 1156 2273 1281 
Q 2116 1406 1581 1522 
L 1381 1569 
Q 847 1681 609 1914 
Q 372 2147 372 2553 
Q 372 3047 722 3315 
Q 1072 3584 1716 3584 
Q 2034 3584 2315 3537 
Q 2597 3491 2834 3397 
z
" transform="scale(0.015625)"/>
       <path id="DejaVuSans-6f" d="M 1959 3097 
Q 1497 3097 1228 2736 
Q 959 2375 959 1747 
Q 959 1119 1226 758 
Q 1494 397 1959 397 
Q 2419 397 2687 759 
Q 2956 1122 2956 1747 
Q 2956 2369 2687 2733 
Q 2419 3097 1959 3097 
z
M 1959 3584 
Q 2709 3584 3137 3096 
Q 3566 2609 3566 1747 
Q 3566 888 3137 398 
Q 2709 -91 1959 -91 
Q 1206 -91 779 398 
Q 353 888 353 1747 
Q 353 2609 779 3096 
Q 1206 3584 1959 3584 
z
" transform="scale(0.015625)"/>
       <path id="DejaVuSans-6e" d="M 3513 2113 
L 3513 0 
L 2938 0 
L 2938 2094 
Q 2938 2591 2744 2837 
Q 2550 3084 2163 3084 
Q 1697 3084 1428 2787 
Q 1159 2491 1159 1978 
L 1159 0 
L 581 0 
L 581 3500 
L 1159 3500 
L 1159 2956 
Q 1366 3272 1645 3428 
Q 1925 3584 2291 3584 
Q 2894 3584 3203 3211 
Q 3513 2838 3513 2113 
z
" transform="scale(0.015625)"/>
      </defs>
      <use xlink:href="#DejaVuSans-47"/>
      <use xlink:href="#DejaVuSans-48" x="77.490234"/>
      <use xlink:href="#DejaVuSans-47" x="152.685547"/>
      <use xlink:href="#DejaVuSans-20" x="230.175781"/>
      <use xlink:href="#DejaVuSans-45" x="261.962891"/>
      <use xlink:href="#DejaVuSans-6d" x="325.146484"/>
      <use xlink:href="#DejaVuSans-69" x="422.558594"/>
      <use xlink:href="#DejaVuSans-73" x="450.341797"/>
      <use xlink:href="#DejaVuSans-73" x="502.441406"/>
      <use xlink:href="#DejaVuSans-69" x="554.541016"/>
      <use xlink:href="#DejaVuSans-6f" x="582.324219"/>
      <use xlink:href="#DejaVuSans-6e" x="643.505859"/>
      <use xlink:href="#DejaVuSans-73" x="706.884766"/>
     </g>
    </g>
   </g>
   <g id="matplotlib.axis_2">
    <g id="ytick_1">
     <g id="line2d_6">
      <defs>
       <path id="mc4a29f6e8c" d="M 0 0 
L -3.5 0 
" style="stroke: #000000; stroke-width: 0.8"/>
      </defs>
      <g>
       <use xlink:href="#mc4a29f6e8c" x="57.6" y="302.997214" style="stroke: #000000; stroke-width: 0.8"/>
      </g>
     </g>
     <g id="text_7">
      <!-- 0.05 -->
      <g transform="translate(28.334375 306.796433) scale(0.1 -0.1)">
       <defs>
        <path id="DejaVuSans-2e" d="M 684 794 
L 1344 794 
L 1344 0 
L 684 0 
L 684 794 
z
" transform="scale(0.015625)"/>
       </defs>
       <use xlink:href="#DejaVuSans-30"/>
       <use xlink:href="#DejaVuSans-2e" x="63.623047"/>
       <use xlink:href="#DejaVuSans-30" x="95.410156"/>
       <use xlink:href="#DejaVuSans-35" x="159.033203"/>
      </g>
     </g>
    </g>
    <g id="ytick_2">
     <g id="line2d_7">
      <g>
       <use xlink:href="#mc4a29f6e8c" x="57.6" y="253.993089" style="stroke: #000000; stroke-width: 0.8"/>
      </g>
     </g>
     <g id="text_8">
      <!-- 0.10 -->
      <g transform="translate(28.334375 257.792308) scale(0.1 -0.1)">
       <use xlink:href="#DejaVuSans-30"/>
       <use xlink:href="#DejaVuSans-2e" x="63.623047"/>
       <use xlink:href="#DejaVuSans-31" x="95.410156"/>
       <use xlink:href="#DejaVuSans-30" x="159.033203"/>
      </g>
     </g>
    </g>
    <g id="ytick_3">
     <g id="line2d_8">
      <g>
       <use xlink:href="#mc4a29f6e8c" x="57.6" y="204.988964" style="stroke: #000000; stroke-width: 0.8"/>
      </g>
     </g>
     <g id="text_9">
      <!-- 0.15 -->
      <g transform="translate(28.334375 208.788183) scale(0.1 -0.1)">
       <use xlink:href="#DejaVuSans-30"/>
       <use xlink:href="#DejaVuSans-2e" x="63.623047"/>
       <use xlink:href="#DejaVuSans-31" x="95.410156"/>
       <use xlink:href="#DejaVuSans-35" x="159.033203"/>
      </g>
     </g>
    </g>
    <g id="ytick_4">
     <g id="line2d_9">
      <g>
       <use xlink:href="#mc4a29f6e8c" x="57.6" y="155.984839" style="stroke: #000000; stroke-width: 0.8"/>
      </g>
     </g>
     <g id="text_10">
      <!-- 0.20 -->
      <g transform="translate(28.334375 159.784058) scale(0.1 -0.1)">
       <use xlink:href="#DejaVuSans-30"/>
       <use xlink:href="#DejaVuSans-2e" x="63.623047"/>
       <use xlink:href="#DejaVuSans-32" x="95.410156"/>
       <use xlink:href="#DejaVuSans-30" x="159.033203"/>
      </g>
     </g>
    </g>
    <g id="ytick_5">
     <g id="line2d_10">
      <g>
       <use xlink:href="#mc4a29f6e8c" x="57.6" y="106.980714" style="stroke: #000000; stroke-width: 0.8"/>
      </g>
     </g>
     <g id="text_11">
      <!-- 0.25 -->
      <g transform="translate(28.334375 110.779933) scale(0.1 -0.1)">
       <use xlink:href="#DejaVuSans-30"/>
       <use xlink:href="#DejaVuSans-2e" x="63.623047"/>
       <use xlink:href="#DejaVuSans-32" x="95.410156"/>
       <use xlink:href="#DejaVuSans-35" x="159.033203"/>
      </g>
     </g>
    </g>
    <g id="ytick_6">
     <g id="line2d_11">
      <g>
       <use xlink:href="#mc4a29f6e8c" x="57.6" y="57.976589" style="stroke: #000000; stroke-width: 0.8"/>
      </g>
     </g>
     <g id="text_12">
      <!-- 0.30 -->
      <g transform="translate(28.334375 61.775808) scale(0.1 -0.1)">
       <defs>
        <path id="DejaVuSans-33" d="M 2597 2516 
Q 3050 2419 3304 2112 
Q 3559 1806 3559 1356 
Q 3559 666 3084 287 
Q 2609 -91 1734 -91 
Q 1441 -91 1130 -33 
Q 819 25 488 141 
L 488 750 
Q 750 597 1062 519 
Q 1375 441 1716 441 
Q 2309 441 2620 675 
Q 2931 909 2931 1356 
Q 2931 1769 2642 2001 
Q 2353 2234 1838 2234 
L 1294 2234 
L 1294 2753 
L 1863 2753 
Q 2328 2753 2575 2939 
Q 2822 3125 2822 3475 
Q 2822 3834 2567 4026 
Q 2313 4219 1838 4219 
Q 1578 4219 1281 4162 
Q 984 4106 628 3988 
L 628 4550 
Q 988 4650 1302 4700 
Q 1616 4750 1894 4750 
Q 2613 4750 3031 4423 
Q 3450 4097 3450 3541 
Q 3450 3153 3228 2886 
Q 3006 2619 2597 2516 
z
" transform="scale(0.015625)"/>
       </defs>
       <use xlink:href="#DejaVuSans-30"/>
       <use xlink:href="#DejaVuSans-2e" x="63.623047"/>
       <use xlink:href="#DejaVuSans-33" x="95.410156"/>
       <use xlink:href="#DejaVuSans-30" x="159.033203"/>
      </g>
     </g>
    </g>
    <g id="text_13">
     <!-- Obesity Rate -->
     <g transform="translate(22.254687 206.679563) rotate(-90) scale(0.1 -0.1)">
      <defs>
       <path id="DejaVuSans-4f" d="M 2522 4238 
Q 1834 4238 1429 3725 
Q 1025 3213 1025 2328 
Q 1025 1447 1429 934 
Q 1834 422 2522 422 
Q 3209 422 3611 934 
Q 4013 1447 4013 2328 
Q 4013 3213 3611 3725 
Q 3209 4238 2522 4238 
z
M 2522 4750 
Q 3503 4750 4090 4092 
Q 4678 3434 4678 2328 
Q 4678 1225 4090 567 
Q 3503 -91 2522 -91 
Q 1538 -91 948 565 
Q 359 1222 359 2328 
Q 359 3434 948 4092 
Q 1538 4750 2522 4750 
z
" transform="scale(0.015625)"/>
       <path id="DejaVuSans-62" d="M 3116 1747 
Q 3116 2381 2855 2742 
Q 2594 3103 2138 3103 
Q 1681 3103 1420 2742 
Q 1159 2381 1159 1747 
Q 1159 1113 1420 752 
Q 1681 391 2138 391 
Q 2594 391 2855 752 
Q 3116 1113 3116 1747 
z
M 1159 2969 
Q 1341 3281 1617 3432 
Q 1894 3584 2278 3584 
Q 2916 3584 3314 3078 
Q 3713 2572 3713 1747 
Q 3713 922 3314 415 
Q 2916 -91 2278 -91 
Q 1894 -91 1617 61 
Q 1341 213 1159 525 
L 1159 0 
L 581 0 
L 581 4863 
L 1159 4863 
L 1159 2969 
z
" transform="scale(0.015625)"/>
       <path id="DejaVuSans-65" d="M 3597 1894 
L 3597 1613 
L 953 1613 
Q 991 1019 1311 708 
Q 1631 397 2203 397 
Q 2534 397 2845 478 
Q 3156 559 3463 722 
L 3463 178 
Q 3153 47 2828 -22 
Q 2503 -91 2169 -91 
Q 1331 -91 842 396 
Q 353 884 353 1716 
Q 353 2575 817 3079 
Q 1281 3584 2069 3584 
Q 2775 3584 3186 3129 
Q 3597 2675 3597 1894 
z
M 3022 2063 
Q 3016 2534 2758 2815 
Q 2500 3097 2075 3097 
Q 1594 3097 1305 2825 
Q 1016 2553 972 2059 
L 3022 2063 
z
" transform="scale(0.015625)"/>
       <path id="DejaVuSans-74" d="M 1172 4494 
L 1172 3500 
L 2356 3500 
L 2356 3053 
L 1172 3053 
L 1172 1153 
Q 1172 725 1289 603 
Q 1406 481 1766 481 
L 2356 481 
L 2356 0 
L 1766 0 
Q 1100 0 847 248 
Q 594 497 594 1153 
L 594 3053 
L 172 3053 
L 172 3500 
L 594 3500 
L 594 4494 
L 1172 4494 
z
" transform="scale(0.015625)"/>
       <path id="DejaVuSans-79" d="M 2059 -325 
Q 1816 -950 1584 -1140 
Q 1353 -1331 966 -1331 
L 506 -1331 
L 506 -850 
L 844 -850 
Q 1081 -850 1212 -737 
Q 1344 -625 1503 -206 
L 1606 56 
L 191 3500 
L 800 3500 
L 1894 763 
L 2988 3500 
L 3597 3500 
L 2059 -325 
z
" transform="scale(0.015625)"/>
       <path id="DejaVuSans-52" d="M 2841 2188 
Q 3044 2119 3236 1894 
Q 3428 1669 3622 1275 
L 4263 0 
L 3584 0 
L 2988 1197 
Q 2756 1666 2539 1819 
Q 2322 1972 1947 1972 
L 1259 1972 
L 1259 0 
L 628 0 
L 628 4666 
L 2053 4666 
Q 2853 4666 3247 4331 
Q 3641 3997 3641 3322 
Q 3641 2881 3436 2590 
Q 3231 2300 2841 2188 
z
M 1259 4147 
L 1259 2491 
L 2053 2491 
Q 2509 2491 2742 2702 
Q 2975 2913 2975 3322 
Q 2975 3731 2742 3939 
Q 2509 4147 2053 4147 
L 1259 4147 
z
" transform="scale(0.015625)"/>
       <path id="DejaVuSans-61" d="M 2194 1759 
Q 1497 1759 1228 1600 
Q 959 1441 959 1056 
Q 959 750 1161 570 
Q 1363 391 1709 391 
Q 2188 391 2477 730 
Q 2766 1069 2766 1631 
L 2766 1759 
L 2194 1759 
z
M 3341 1997 
L 3341 0 
L 2766 0 
L 2766 531 
Q 2569 213 2275 61 
Q 1981 -91 1556 -91 
Q 1019 -91 701 211 
Q 384 513 384 1019 
Q 384 1609 779 1909 
Q 1175 2209 1959 2209 
L 2766 2209 
L 2766 2266 
Q 2766 2663 2505 2880 
Q 2244 3097 1772 3097 
Q 1472 3097 1187 3025 
Q 903 2953 641 2809 
L 641 3341 
Q 956 3463 1253 3523 
Q 1550 3584 1831 3584 
Q 2591 3584 2966 3190 
Q 3341 2797 3341 1997 
z
" transform="scale(0.015625)"/>
      </defs>
      <use xlink:href="#DejaVuSans-4f"/>
      <use xlink:href="#DejaVuSans-62" x="78.710938"/>
      <use xlink:href="#DejaVuSans-65" x="142.1875"/>
      <use xlink:href="#DejaVuSans-73" x="203.710938"/>
      <use xlink:href="#DejaVuSans-69" x="255.810547"/>
      <use xlink:href="#DejaVuSans-74" x="283.59375"/>
      <use xlink:href="#DejaVuSans-79" x="322.802734"/>
      <use xlink:href="#DejaVuSans-20" x="381.982422"/>
      <use xlink:href="#DejaVuSans-52" x="413.769531"/>
      <use xlink:href="#DejaVuSans-61" x="481.001953"/>
      <use xlink:href="#DejaVuSans-74" x="542.28125"/>
      <use xlink:href="#DejaVuSans-65" x="581.490234"/>
     </g>
    </g>
   </g>
   <g id="PathCollection_8"/>
   <g id="PathCollection_9">
    <path d="M 394.174735 307.584 
L 394.175516 304.896 
L 394.176295 302.208 
L 394.177073 299.52 
L 394.177848 296.832 
L 394.178622 294.144 
L 394.179394 291.456 
L 394.180164 288.768 
L 394.180933 286.08 
L 394.181699 283.392 
L 394.182464 280.704 
L 394.183227 278.016 
L 394.183988 275.328 
L 394.184747 272.64 
L 394.185504 269.952 
L 394.18626 267.264 
L 394.187014 264.576 
L 394.187765 261.888 
L 394.188516 259.2 
L 394.189264 256.512 
L 394.19001 253.824 
L 394.190755 251.136 
L 394.191498 248.448 
L 394.192239 245.76 
L 394.192978 243.072 
L 394.193715 240.384 
L 394.194451 237.696 
L 394.195185 235.008 
L 394.195916 232.32 
L 394.196646 229.632 
L 394.197375 226.944 
L 394.198101 224.256 
L 394.198826 221.568 
L 394.199549 218.88 
L 394.200269 216.192 
L 394.200989 213.504 
L 394.201706 210.816 
L 394.202421 208.128 
L 394.203135 205.44 
L 394.203847 202.752 
L 394.204557 200.064 
L 394.205265 197.376 
L 394.205972 194.688 
L 394.206676 192 
L 394.207379 189.312 
L 394.20808 186.624 
L 394.208779 183.936 
L 394.209476 181.248 
L 394.210172 178.56 
L 394.210865 175.872 
L 394.211557 173.184 
L 394.212247 170.496 
L 394.212467 169.634999 
" clip-path="url(#pa1eccf49ac)" style="fill: none; stroke: #000000; stroke-width: 0.5"/>
    <path d="M 394.221503 133.725001 
L 394.221716 132.864 
L 394.222378 130.176 
L 394.223039 127.488 
L 394.223698 124.8 
L 394.224355 122.112 
L 394.225011 119.424 
L 394.225664 116.736 
L 394.226316 114.048 
L 394.226966 111.36 
L 394.227614 108.672 
L 394.22826 105.984 
L 394.228905 103.296 
L 394.229547 100.608 
L 394.230188 97.92 
L 394.230827 95.232 
L 394.231464 92.544 
L 394.2321 89.856 
L 394.232733 87.168 
L 394.233365 84.48 
L 394.233995 81.792 
L 394.234623 79.104 
L 394.235249 76.416 
L 394.235873 73.728 
L 394.236496 71.04 
L 394.237117 68.352 
L 394.237736 65.664 
L 394.238353 62.976 
L 394.238968 60.288 
L 394.239581 57.6 
L 394.240193 54.912 
L 394.240803 52.224 
L 394.241411 49.536 
L 394.242017 46.848 
L 394.242622 44.16 
L 394.243224 41.472 
" clip-path="url(#pa1eccf49ac)" style="fill: none; stroke: #000000; stroke-width: 0.5"/>
   </g>
   <g id="PathCollection_10">
    <path d="M 361.713697 307.584 
L 361.714559 304.896 
L 361.715418 302.208 
L 361.716275 299.52 
L 361.71713 296.832 
L 361.717983 294.144 
L 361.718834 291.456 
L 361.719683 288.768 
L 361.72053 286.08 
L 361.721375 283.392 
L 361.722218 280.704 
L 361.723059 278.016 
L 361.723898 275.328 
L 361.724166 274.466999 
" clip-path="url(#pa1eccf49ac)" style="fill: none; stroke: #000000; stroke-width: 0.5"/>
    <path d="M 361.73517 238.557001 
L 361.73543 237.696 
L 361.736238 235.008 
L 361.737045 232.32 
L 361.737849 229.632 
L 361.738652 226.944 
L 361.739452 224.256 
L 361.74025 221.568 
L 361.741047 218.88 
L 361.741841 216.192 
L 361.742633 213.504 
L 361.743424 210.816 
L 361.744212 208.128 
L 361.744998 205.44 
L 361.745782 202.752 
L 361.746564 200.064 
L 361.747344 197.376 
L 361.748123 194.688 
L 361.748899 192 
L 361.749673 189.312 
L 361.750445 186.624 
L 361.751215 183.936 
L 361.751983 181.248 
L 361.752749 178.56 
L 361.753512 175.872 
L 361.754274 173.184 
L 361.755034 170.496 
L 361.755792 167.808 
L 361.756548 165.12 
L 361.757302 162.432 
L 361.758053 159.744 
L 361.758803 157.056 
L 361.759551 154.368 
L 361.760296 151.68 
L 361.76104 148.992 
L 361.761782 146.304 
L 361.762521 143.616 
L 361.763259 140.928 
L 361.763994 138.24 
L 361.764728 135.552 
L 361.765459 132.864 
L 361.766189 130.176 
L 361.766916 127.488 
L 361.767641 124.8 
L 361.768365 122.112 
L 361.769086 119.424 
L 361.769805 116.736 
L 361.770523 114.048 
L 361.771238 111.36 
L 361.771951 108.672 
L 361.772662 105.984 
L 361.773372 103.296 
L 361.774079 100.608 
L 361.774784 97.92 
L 361.775487 95.232 
L 361.776188 92.544 
L 361.776887 89.856 
L 361.777584 87.168 
L 361.778279 84.48 
L 361.778972 81.792 
L 361.779663 79.104 
L 361.780352 76.416 
L 361.781039 73.728 
L 361.781724 71.04 
L 361.782406 68.352 
L 361.783087 65.664 
L 361.783766 62.976 
L 361.784443 60.288 
L 361.785117 57.6 
L 361.78579 54.912 
L 361.786461 52.224 
L 361.787129 49.536 
L 361.787796 46.848 
L 361.788461 44.16 
L 361.789123 41.472 
" clip-path="url(#pa1eccf49ac)" style="fill: none; stroke: #000000; stroke-width: 0.5"/>
   </g>
   <g id="PathCollection_11">
    <path d="M 325.604838 307.584 
L 325.60581 304.896 
L 325.606779 302.208 
L 325.607747 299.52 
L 325.608712 296.832 
L 325.609674 294.144 
L 325.610634 291.456 
L 325.611592 288.768 
L 325.612548 286.08 
L 325.613501 283.392 
L 325.614452 280.704 
L 325.615401 278.016 
L 325.616347 275.328 
L 325.617291 272.64 
L 325.618233 269.952 
L 325.619173 267.264 
L 325.62011 264.576 
L 325.621045 261.888 
L 325.621977 259.2 
L 325.622907 256.512 
L 325.623835 253.824 
L 325.624761 251.136 
L 325.625684 248.448 
L 325.626605 245.76 
L 325.627524 243.072 
L 325.62844 240.384 
L 325.629354 237.696 
L 325.630266 235.008 
L 325.631176 232.32 
L 325.632083 229.632 
L 325.632988 226.944 
L 325.63389 224.256 
L 325.63479 221.568 
L 325.635688 218.88 
L 325.636584 216.192 
L 325.637477 213.504 
L 325.638368 210.816 
L 325.639257 208.128 
L 325.640143 205.44 
L 325.641027 202.752 
L 325.641909 200.064 
L 325.642789 197.376 
L 325.643666 194.688 
L 325.644541 192 
L 325.645413 189.312 
L 325.646283 186.624 
L 325.647151 183.936 
L 325.648017 181.248 
L 325.64888 178.56 
L 325.649741 175.872 
L 325.6506 173.184 
L 325.651456 170.496 
L 325.65173 169.634999 
" clip-path="url(#pa1eccf49ac)" style="fill: none; stroke: #000000; stroke-width: 0.5"/>
    <path d="M 325.662939 133.725001 
L 325.663203 132.864 
L 325.664024 130.176 
L 325.664844 127.488 
L 325.665661 124.8 
L 325.666476 122.112 
L 325.667288 119.424 
L 325.668098 116.736 
L 325.668906 114.048 
L 325.669712 111.36 
L 325.670515 108.672 
L 325.671316 105.984 
L 325.672115 103.296 
L 325.672911 100.608 
L 325.673705 97.92 
L 325.674497 95.232 
L 325.675286 92.544 
L 325.676073 89.856 
L 325.676858 87.168 
L 325.67764 84.48 
L 325.678421 81.792 
L 325.679198 79.104 
L 325.679974 76.416 
L 325.680747 73.728 
L 325.681518 71.04 
L 325.682287 68.352 
L 325.683053 65.664 
L 325.683817 62.976 
L 325.684579 60.288 
L 325.685338 57.6 
L 325.686095 54.912 
L 325.68685 52.224 
L 325.687603 49.536 
L 325.688353 46.848 
L 325.689101 44.16 
L 325.689846 41.472 
" clip-path="url(#pa1eccf49ac)" style="fill: none; stroke: #000000; stroke-width: 0.5"/>
   </g>
   <g id="PathCollection_12">
    <path d="M 284.194896 307.584 
L 284.196045 304.896 
L 284.19719 302.208 
L 284.198333 299.52 
L 284.199473 296.832 
L 284.20061 294.144 
L 284.201744 291.456 
L 284.202876 288.768 
L 284.204005 286.08 
L 284.205131 283.392 
L 284.206255 280.704 
L 284.207375 278.016 
L 284.208493 275.328 
L 284.209608 272.64 
L 284.210721 269.952 
L 284.21183 267.264 
L 284.212937 264.576 
L 284.214041 261.888 
L 284.215143 259.2 
L 284.216242 256.512 
L 284.217337 253.824 
L 284.218431 251.136 
L 284.219521 248.448 
L 284.220609 245.76 
L 284.221693 243.072 
L 284.222776 240.384 
L 284.223855 237.696 
L 284.224932 235.008 
L 284.226005 232.32 
L 284.227076 229.632 
L 284.228145 226.944 
L 284.22921 224.256 
L 284.230273 221.568 
L 284.231333 218.88 
L 284.232391 216.192 
L 284.233445 213.504 
L 284.234497 210.816 
L 284.235546 208.128 
L 284.236592 205.44 
L 284.237636 202.752 
L 284.238677 200.064 
L 284.239715 197.376 
L 284.24075 194.688 
L 284.241783 192 
L 284.242812 189.312 
L 284.24384 186.624 
L 284.244864 183.936 
L 284.245885 181.248 
L 284.246904 178.56 
L 284.24792 175.872 
L 284.248933 173.184 
L 284.249944 170.496 
L 284.250267 169.634999 
" clip-path="url(#pa1eccf49ac)" style="fill: none; stroke: #000000; stroke-width: 0.5"/>
    <path d="M 284.26349 133.725001 
L 284.263802 132.864 
L 284.264771 130.176 
L 284.265737 127.488 
L 284.266701 124.8 
L 284.267662 122.112 
L 284.26862 119.424 
L 284.269576 116.736 
L 284.270528 114.048 
L 284.271478 111.36 
L 284.272425 108.672 
L 284.27337 105.984 
L 284.274311 103.296 
L 284.27525 100.608 
L 284.276186 97.92 
L 284.27712 95.232 
L 284.278051 92.544 
L 284.278978 89.856 
L 284.279904 87.168 
L 284.280826 84.48 
L 284.281746 81.792 
L 284.282662 79.104 
L 284.283576 76.416 
L 284.284488 73.728 
L 284.285396 71.04 
L 284.286302 68.352 
L 284.287205 65.664 
L 284.288106 62.976 
L 284.289003 60.288 
L 284.289898 57.6 
L 284.29079 54.912 
L 284.29168 52.224 
L 284.292566 49.536 
L 284.29345 46.848 
L 284.294331 44.16 
L 284.295209 41.472 
" clip-path="url(#pa1eccf49ac)" style="fill: none; stroke: #000000; stroke-width: 0.5"/>
   </g>
   <g id="PathCollection_13">
    <path d="M 234.033921 307.584 
L 234.035376 304.896 
L 234.036828 302.208 
L 234.038277 299.52 
L 234.039721 296.832 
L 234.041163 294.144 
L 234.042601 291.456 
L 234.044035 288.768 
L 234.045466 286.08 
L 234.046893 283.392 
L 234.048317 280.704 
L 234.049737 278.016 
L 234.051153 275.328 
L 234.051606 274.466998 
" clip-path="url(#pa1eccf49ac)" style="fill: none; stroke: #000000; stroke-width: 0.5"/>
    <path d="M 234.070179 238.557002 
L 234.070616 237.696 
L 234.07198 235.008 
L 234.07334 232.32 
L 234.074697 229.632 
L 234.07605 226.944 
L 234.0774 224.256 
L 234.078746 221.568 
L 234.080089 218.88 
L 234.081428 216.192 
L 234.082763 213.504 
L 234.084095 210.816 
L 234.085424 208.128 
L 234.086749 205.44 
L 234.08807 202.752 
L 234.089388 200.064 
L 234.090703 197.376 
L 234.092013 194.688 
L 234.093321 192 
L 234.094624 189.312 
L 234.095925 186.624 
L 234.097222 183.936 
L 234.098515 181.248 
L 234.099804 178.56 
L 234.101091 175.872 
L 234.102373 173.184 
L 234.103652 170.496 
L 234.104928 167.808 
L 234.1062 165.12 
L 234.107468 162.432 
L 234.108733 159.744 
L 234.109995 157.056 
L 234.111253 154.368 
L 234.112507 151.68 
L 234.113758 148.992 
L 234.115006 146.304 
L 234.116249 143.616 
L 234.11749 140.928 
L 234.118727 138.24 
L 234.11996 135.552 
L 234.12119 132.864 
L 234.122416 130.176 
L 234.123638 127.488 
L 234.124858 124.8 
L 234.126073 122.112 
L 234.127285 119.424 
L 234.128494 116.736 
L 234.129699 114.048 
L 234.1309 111.36 
L 234.132098 108.672 
L 234.133293 105.984 
L 234.134484 103.296 
L 234.135671 100.608 
L 234.136855 97.92 
L 234.138035 95.232 
L 234.139212 92.544 
L 234.140386 89.856 
L 234.141555 87.168 
L 234.142722 84.48 
L 234.143884 81.792 
L 234.145043 79.104 
L 234.146199 76.416 
L 234.147351 73.728 
L 234.1485 71.04 
L 234.149645 68.352 
L 234.150786 65.664 
L 234.151924 62.976 
L 234.153059 60.288 
L 234.15419 57.6 
L 234.155317 54.912 
L 234.156441 52.224 
L 234.157562 49.536 
L 234.158679 46.848 
L 234.159792 44.16 
L 234.160902 41.472 
" clip-path="url(#pa1eccf49ac)" style="fill: none; stroke: #000000; stroke-width: 0.5"/>
   </g>
   <g id="PathCollection_14">
    <path d="M 164.708342 307.584 
L 164.710619 304.896 
L 164.712891 302.208 
L 164.715157 299.52 
L 164.717417 296.832 
L 164.719672 294.144 
L 164.721921 291.456 
L 164.724164 288.768 
L 164.726402 286.08 
L 164.728634 283.392 
L 164.730861 280.704 
L 164.733082 278.016 
L 164.735298 275.328 
L 164.736006 274.466994 
" clip-path="url(#pa1eccf49ac)" style="fill: none; stroke: #000000; stroke-width: 0.5"/>
    <path d="M 164.765045 238.557006 
L 164.76573 237.696 
L 164.767862 235.008 
L 164.769988 232.32 
L 164.772109 229.632 
L 164.774224 226.944 
L 164.776333 224.256 
L 164.778437 221.568 
L 164.780536 218.88 
L 164.782628 216.192 
L 164.784716 213.504 
L 164.786797 210.816 
L 164.788873 208.128 
L 164.790944 205.44 
L 164.793009 202.752 
L 164.795068 200.064 
L 164.797122 197.376 
L 164.79917 194.688 
L 164.801212 192 
L 164.803249 189.312 
L 164.80528 186.624 
L 164.807306 183.936 
L 164.809326 181.248 
L 164.811341 178.56 
L 164.81335 175.872 
L 164.815353 173.184 
L 164.817351 170.496 
L 164.819344 167.808 
L 164.82133 165.12 
L 164.823311 162.432 
L 164.825287 159.744 
L 164.827257 157.056 
L 164.829221 154.368 
L 164.83118 151.68 
L 164.833133 148.992 
L 164.835081 146.304 
L 164.837023 143.616 
L 164.838959 140.928 
L 164.84089 138.24 
L 164.842815 135.552 
L 164.844735 132.864 
L 164.846649 130.176 
L 164.848558 127.488 
L 164.850461 124.8 
L 164.852358 122.112 
L 164.85425 119.424 
L 164.856136 116.736 
L 164.858017 114.048 
L 164.859892 111.36 
L 164.861761 108.672 
L 164.863625 105.984 
L 164.865483 103.296 
L 164.867336 100.608 
L 164.869183 97.92 
L 164.871025 95.232 
L 164.872861 92.544 
L 164.874691 89.856 
L 164.876516 87.168 
L 164.878335 84.48 
L 164.880149 81.792 
L 164.881957 79.104 
L 164.883759 76.416 
L 164.885556 73.728 
L 164.887347 71.04 
L 164.889133 68.352 
L 164.890913 65.664 
L 164.892688 62.976 
L 164.894457 60.288 
L 164.89622 57.6 
L 164.897978 54.912 
L 164.89973 52.224 
L 164.901477 49.536 
L 164.903218 46.848 
L 164.904953 44.16 
L 164.906683 41.472 
" clip-path="url(#pa1eccf49ac)" style="fill: none; stroke: #000000; stroke-width: 0.5"/>
   </g>
   <g id="PathCollection_15"/>
   <g id="LineCollection_1">
    <path d="M 67.288029 307.584 
L 67.288029 294.2784 
" clip-path="url(#pa1eccf49ac)" style="fill: none; stroke: #000000; stroke-width: 1.5"/>
    <path d="M 78.078571 307.584 
L 78.078571 294.2784 
" clip-path="url(#pa1eccf49ac)" style="fill: none; stroke: #000000; stroke-width: 1.5"/>
    <path d="M 93.889059 307.584 
L 93.889059 294.2784 
" clip-path="url(#pa1eccf49ac)" style="fill: none; stroke: #000000; stroke-width: 1.5"/>
    <path d="M 108.995817 307.584 
L 108.995817 294.2784 
" clip-path="url(#pa1eccf49ac)" style="fill: none; stroke: #000000; stroke-width: 1.5"/>
    <path d="M 131.732191 307.584 
L 131.732191 294.2784 
" clip-path="url(#pa1eccf49ac)" style="fill: none; stroke: #000000; stroke-width: 1.5"/>
    <path d="M 156.761555 307.584 
L 156.761555 294.2784 
" clip-path="url(#pa1eccf49ac)" style="fill: none; stroke: #000000; stroke-width: 1.5"/>
    <path d="M 184.822827 307.584 
L 184.822827 294.2784 
" clip-path="url(#pa1eccf49ac)" style="fill: none; stroke: #000000; stroke-width: 1.5"/>
    <path d="M 230.928933 307.584 
L 230.928933 294.2784 
" clip-path="url(#pa1eccf49ac)" style="fill: none; stroke: #000000; stroke-width: 1.5"/>
    <path d="M 331.679748 307.584 
L 331.679748 294.2784 
" clip-path="url(#pa1eccf49ac)" style="fill: none; stroke: #000000; stroke-width: 1.5"/>
   </g>
   <g id="LineCollection_2">
    <path d="M 44.498875 292.94784 
L 45.231929 292.94784 
" clip-path="url(#pa1eccf49ac)" style="fill: none; stroke: #000000; stroke-width: 1.5"/>
    <path d="M 44.498875 286.976287 
L 45.231929 286.976287 
" clip-path="url(#pa1eccf49ac)" style="fill: none; stroke: #000000; stroke-width: 1.5"/>
    <path d="M 44.498875 280.983444 
L 45.231929 280.983444 
" clip-path="url(#pa1eccf49ac)" style="fill: none; stroke: #000000; stroke-width: 1.5"/>
    <path d="M 44.498875 261.951114 
L 45.231929 261.951114 
" clip-path="url(#pa1eccf49ac)" style="fill: none; stroke: #000000; stroke-width: 1.5"/>
    <path d="M 44.498875 253.829376 
L 45.231929 253.829376 
" clip-path="url(#pa1eccf49ac)" style="fill: none; stroke: #000000; stroke-width: 1.5"/>
    <path d="M 44.498875 249.699318 
L 45.231929 249.699318 
" clip-path="url(#pa1eccf49ac)" style="fill: none; stroke: #000000; stroke-width: 1.5"/>
    <path d="M 44.498875 246.112128 
L 45.231929 246.112128 
" clip-path="url(#pa1eccf49ac)" style="fill: none; stroke: #000000; stroke-width: 1.5"/>
    <path d="M 44.498875 239.310305 
L 45.231929 239.310305 
" clip-path="url(#pa1eccf49ac)" style="fill: none; stroke: #000000; stroke-width: 1.5"/>
    <path d="M 44.498875 230.656343 
L 45.231929 230.656343 
" clip-path="url(#pa1eccf49ac)" style="fill: none; stroke: #000000; stroke-width: 1.5"/>
   </g>
   <g id="patch_3">
    <path d="M 57.6 307.584 
L 57.6 41.472 
" style="fill: none; stroke: #000000; stroke-width: 0.8; stroke-linejoin: miter; stroke-linecap: square"/>
   </g>
   <g id="patch_4">
    <path d="M 414.72 307.584 
L 414.72 41.472 
" style="fill: none; stroke: #000000; stroke-width: 0.8; stroke-linejoin: miter; stroke-linecap: square"/>
   </g>
   <g id="patch_5">
    <path d="M 57.6 307.584 
L 414.72 307.584 
" style="fill: none; stroke: #000000; stroke-width: 0.8; stroke-linejoin: miter; stroke-linecap: square"/>
   </g>
   <g id="patch_6">
    <path d="M 57.6 41.472 
L 414.72 41.472 
" style="fill: none; stroke: #000000; stroke-width: 0.8; stroke-linejoin: miter; stroke-linecap: square"/>
   </g>
   <g id="text_14">
    <!-- 2D-partial dependency plot between GHG and Obesity -->
    <g transform="translate(72.37875 35.472) scale(0.12 -0.12)">
     <defs>
      <path id="DejaVuSans-44" d="M 1259 4147 
L 1259 519 
L 2022 519 
Q 2988 519 3436 956 
Q 3884 1394 3884 2338 
Q 3884 3275 3436 3711 
Q 2988 4147 2022 4147 
L 1259 4147 
z
M 628 4666 
L 1925 4666 
Q 3281 4666 3915 4102 
Q 4550 3538 4550 2338 
Q 4550 1131 3912 565 
Q 3275 0 1925 0 
L 628 0 
L 628 4666 
z
" transform="scale(0.015625)"/>
      <path id="DejaVuSans-2d" d="M 313 2009 
L 1997 2009 
L 1997 1497 
L 313 1497 
L 313 2009 
z
" transform="scale(0.015625)"/>
      <path id="DejaVuSans-70" d="M 1159 525 
L 1159 -1331 
L 581 -1331 
L 581 3500 
L 1159 3500 
L 1159 2969 
Q 1341 3281 1617 3432 
Q 1894 3584 2278 3584 
Q 2916 3584 3314 3078 
Q 3713 2572 3713 1747 
Q 3713 922 3314 415 
Q 2916 -91 2278 -91 
Q 1894 -91 1617 61 
Q 1341 213 1159 525 
z
M 3116 1747 
Q 3116 2381 2855 2742 
Q 2594 3103 2138 3103 
Q 1681 3103 1420 2742 
Q 1159 2381 1159 1747 
Q 1159 1113 1420 752 
Q 1681 391 2138 391 
Q 2594 391 2855 752 
Q 3116 1113 3116 1747 
z
" transform="scale(0.015625)"/>
      <path id="DejaVuSans-72" d="M 2631 2963 
Q 2534 3019 2420 3045 
Q 2306 3072 2169 3072 
Q 1681 3072 1420 2755 
Q 1159 2438 1159 1844 
L 1159 0 
L 581 0 
L 581 3500 
L 1159 3500 
L 1159 2956 
Q 1341 3275 1631 3429 
Q 1922 3584 2338 3584 
Q 2397 3584 2469 3576 
Q 2541 3569 2628 3553 
L 2631 2963 
z
" transform="scale(0.015625)"/>
      <path id="DejaVuSans-6c" d="M 603 4863 
L 1178 4863 
L 1178 0 
L 603 0 
L 603 4863 
z
" transform="scale(0.015625)"/>
      <path id="DejaVuSans-64" d="M 2906 2969 
L 2906 4863 
L 3481 4863 
L 3481 0 
L 2906 0 
L 2906 525 
Q 2725 213 2448 61 
Q 2172 -91 1784 -91 
Q 1150 -91 751 415 
Q 353 922 353 1747 
Q 353 2572 751 3078 
Q 1150 3584 1784 3584 
Q 2172 3584 2448 3432 
Q 2725 3281 2906 2969 
z
M 947 1747 
Q 947 1113 1208 752 
Q 1469 391 1925 391 
Q 2381 391 2643 752 
Q 2906 1113 2906 1747 
Q 2906 2381 2643 2742 
Q 2381 3103 1925 3103 
Q 1469 3103 1208 2742 
Q 947 2381 947 1747 
z
" transform="scale(0.015625)"/>
      <path id="DejaVuSans-63" d="M 3122 3366 
L 3122 2828 
Q 2878 2963 2633 3030 
Q 2388 3097 2138 3097 
Q 1578 3097 1268 2742 
Q 959 2388 959 1747 
Q 959 1106 1268 751 
Q 1578 397 2138 397 
Q 2388 397 2633 464 
Q 2878 531 3122 666 
L 3122 134 
Q 2881 22 2623 -34 
Q 2366 -91 2075 -91 
Q 1284 -91 818 406 
Q 353 903 353 1747 
Q 353 2603 823 3093 
Q 1294 3584 2113 3584 
Q 2378 3584 2631 3529 
Q 2884 3475 3122 3366 
z
" transform="scale(0.015625)"/>
      <path id="DejaVuSans-77" d="M 269 3500 
L 844 3500 
L 1563 769 
L 2278 3500 
L 2956 3500 
L 3675 769 
L 4391 3500 
L 4966 3500 
L 4050 0 
L 3372 0 
L 2619 2869 
L 1863 0 
L 1184 0 
L 269 3500 
z
" transform="scale(0.015625)"/>
     </defs>
     <use xlink:href="#DejaVuSans-32"/>
     <use xlink:href="#DejaVuSans-44" x="63.623047"/>
     <use xlink:href="#DejaVuSans-2d" x="140.625"/>
     <use xlink:href="#DejaVuSans-70" x="176.708984"/>
     <use xlink:href="#DejaVuSans-61" x="240.185547"/>
     <use xlink:href="#DejaVuSans-72" x="301.464844"/>
     <use xlink:href="#DejaVuSans-74" x="342.578125"/>
     <use xlink:href="#DejaVuSans-69" x="381.787109"/>
     <use xlink:href="#DejaVuSans-61" x="409.570312"/>
     <use xlink:href="#DejaVuSans-6c" x="470.849609"/>
     <use xlink:href="#DejaVuSans-20" x="498.632812"/>
     <use xlink:href="#DejaVuSans-64" x="530.419922"/>
     <use xlink:href="#DejaVuSans-65" x="593.896484"/>
     <use xlink:href="#DejaVuSans-70" x="655.419922"/>
     <use xlink:href="#DejaVuSans-65" x="718.896484"/>
     <use xlink:href="#DejaVuSans-6e" x="780.419922"/>
     <use xlink:href="#DejaVuSans-64" x="843.798828"/>
     <use xlink:href="#DejaVuSans-65" x="907.275391"/>
     <use xlink:href="#DejaVuSans-6e" x="968.798828"/>
     <use xlink:href="#DejaVuSans-63" x="1032.177734"/>
     <use xlink:href="#DejaVuSans-79" x="1087.158203"/>
     <use xlink:href="#DejaVuSans-20" x="1146.337891"/>
     <use xlink:href="#DejaVuSans-70" x="1178.125"/>
     <use xlink:href="#DejaVuSans-6c" x="1241.601562"/>
     <use xlink:href="#DejaVuSans-6f" x="1269.384766"/>
     <use xlink:href="#DejaVuSans-74" x="1330.566406"/>
     <use xlink:href="#DejaVuSans-20" x="1369.775391"/>
     <use xlink:href="#DejaVuSans-62" x="1401.5625"/>
     <use xlink:href="#DejaVuSans-65" x="1465.039062"/>
     <use xlink:href="#DejaVuSans-74" x="1526.5625"/>
     <use xlink:href="#DejaVuSans-77" x="1565.771484"/>
     <use xlink:href="#DejaVuSans-65" x="1647.558594"/>
     <use xlink:href="#DejaVuSans-65" x="1709.082031"/>
     <use xlink:href="#DejaVuSans-6e" x="1770.605469"/>
     <use xlink:href="#DejaVuSans-20" x="1833.984375"/>
     <use xlink:href="#DejaVuSans-47" x="1865.771484"/>
     <use xlink:href="#DejaVuSans-48" x="1943.261719"/>
     <use xlink:href="#DejaVuSans-47" x="2018.457031"/>
     <use xlink:href="#DejaVuSans-20" x="2095.947266"/>
     <use xlink:href="#DejaVuSans-61" x="2127.734375"/>
     <use xlink:href="#DejaVuSans-6e" x="2189.013672"/>
     <use xlink:href="#DejaVuSans-64" x="2252.392578"/>
     <use xlink:href="#DejaVuSans-20" x="2315.869141"/>
     <use xlink:href="#DejaVuSans-4f" x="2347.65625"/>
     <use xlink:href="#DejaVuSans-62" x="2426.367188"/>
     <use xlink:href="#DejaVuSans-65" x="2489.84375"/>
     <use xlink:href="#DejaVuSans-73" x="2551.367188"/>
     <use xlink:href="#DejaVuSans-69" x="2603.466797"/>
     <use xlink:href="#DejaVuSans-74" x="2631.25"/>
     <use xlink:href="#DejaVuSans-79" x="2670.458984"/>
    </g>
   </g>
   <g id="text_15">
    <g clip-path="url(#pa1eccf49ac)">
     <!-- 10.59 -->
     <g transform="translate(396.972799 165.994756) rotate(-89.985584) scale(0.1 -0.1)">
      <defs>
       <path id="DejaVuSans-39" d="M 703 97 
L 703 672 
Q 941 559 1184 500 
Q 1428 441 1663 441 
Q 2288 441 2617 861 
Q 2947 1281 2994 2138 
Q 2813 1869 2534 1725 
Q 2256 1581 1919 1581 
Q 1219 1581 811 2004 
Q 403 2428 403 3163 
Q 403 3881 828 4315 
Q 1253 4750 1959 4750 
Q 2769 4750 3195 4129 
Q 3622 3509 3622 2328 
Q 3622 1225 3098 567 
Q 2575 -91 1691 -91 
Q 1453 -91 1209 -44 
Q 966 3 703 97 
z
M 1959 2075 
Q 2384 2075 2632 2365 
Q 2881 2656 2881 3163 
Q 2881 3666 2632 3958 
Q 2384 4250 1959 4250 
Q 1534 4250 1286 3958 
Q 1038 3666 1038 3163 
Q 1038 2656 1286 2365 
Q 1534 2075 1959 2075 
z
" transform="scale(0.015625)"/>
      </defs>
      <use xlink:href="#DejaVuSans-31"/>
      <use xlink:href="#DejaVuSans-30" x="63.623047"/>
      <use xlink:href="#DejaVuSans-2e" x="127.246094"/>
      <use xlink:href="#DejaVuSans-35" x="159.033203"/>
      <use xlink:href="#DejaVuSans-39" x="222.65625"/>
     </g>
    </g>
   </g>
   <g id="text_16">
    <g clip-path="url(#pa1eccf49ac)">
     <!-- 10.61 -->
     <g transform="translate(364.484702 270.826907) rotate(-89.982442) scale(0.1 -0.1)">
      <defs>
       <path id="DejaVuSans-36" d="M 2113 2584 
Q 1688 2584 1439 2293 
Q 1191 2003 1191 1497 
Q 1191 994 1439 701 
Q 1688 409 2113 409 
Q 2538 409 2786 701 
Q 3034 994 3034 1497 
Q 3034 2003 2786 2293 
Q 2538 2584 2113 2584 
z
M 3366 4563 
L 3366 3988 
Q 3128 4100 2886 4159 
Q 2644 4219 2406 4219 
Q 1781 4219 1451 3797 
Q 1122 3375 1075 2522 
Q 1259 2794 1537 2939 
Q 1816 3084 2150 3084 
Q 2853 3084 3261 2657 
Q 3669 2231 3669 1497 
Q 3669 778 3244 343 
Q 2819 -91 2113 -91 
Q 1303 -91 875 529 
Q 447 1150 447 2328 
Q 447 3434 972 4092 
Q 1497 4750 2381 4750 
Q 2619 4750 2861 4703 
Q 3103 4656 3366 4563 
z
" transform="scale(0.015625)"/>
      </defs>
      <use xlink:href="#DejaVuSans-31"/>
      <use xlink:href="#DejaVuSans-30" x="63.623047"/>
      <use xlink:href="#DejaVuSans-2e" x="127.246094"/>
      <use xlink:href="#DejaVuSans-36" x="159.033203"/>
      <use xlink:href="#DejaVuSans-31" x="222.65625"/>
     </g>
    </g>
   </g>
   <g id="text_17">
    <g clip-path="url(#pa1eccf49ac)">
     <!-- 10.64 -->
     <g transform="translate(328.412293 165.994923) rotate(-89.982115) scale(0.1 -0.1)">
      <defs>
       <path id="DejaVuSans-34" d="M 2419 4116 
L 825 1625 
L 2419 1625 
L 2419 4116 
z
M 2253 4666 
L 3047 4666 
L 3047 1625 
L 3713 1625 
L 3713 1100 
L 3047 1100 
L 3047 0 
L 2419 0 
L 2419 1100 
L 313 1100 
L 313 1709 
L 2253 4666 
z
" transform="scale(0.015625)"/>
      </defs>
      <use xlink:href="#DejaVuSans-31"/>
      <use xlink:href="#DejaVuSans-30" x="63.623047"/>
      <use xlink:href="#DejaVuSans-2e" x="127.246094"/>
      <use xlink:href="#DejaVuSans-36" x="159.033203"/>
      <use xlink:href="#DejaVuSans-34" x="222.65625"/>
     </g>
    </g>
   </g>
   <g id="text_18">
    <g clip-path="url(#pa1eccf49ac)">
     <!-- 10.66 -->
     <g transform="translate(287.011044 165.995078) rotate(-89.978901) scale(0.1 -0.1)">
      <use xlink:href="#DejaVuSans-31"/>
      <use xlink:href="#DejaVuSans-30" x="63.623047"/>
      <use xlink:href="#DejaVuSans-2e" x="127.246094"/>
      <use xlink:href="#DejaVuSans-36" x="159.033203"/>
      <use xlink:href="#DejaVuSans-36" x="222.65625"/>
     </g>
    </g>
   </g>
   <g id="text_19">
    <g clip-path="url(#pa1eccf49ac)">
     <!-- 10.68 -->
     <g transform="translate(236.812943 270.827488) rotate(-89.970367) scale(0.1 -0.1)">
      <defs>
       <path id="DejaVuSans-38" d="M 2034 2216 
Q 1584 2216 1326 1975 
Q 1069 1734 1069 1313 
Q 1069 891 1326 650 
Q 1584 409 2034 409 
Q 2484 409 2743 651 
Q 3003 894 3003 1313 
Q 3003 1734 2745 1975 
Q 2488 2216 2034 2216 
z
M 1403 2484 
Q 997 2584 770 2862 
Q 544 3141 544 3541 
Q 544 4100 942 4425 
Q 1341 4750 2034 4750 
Q 2731 4750 3128 4425 
Q 3525 4100 3525 3541 
Q 3525 3141 3298 2862 
Q 3072 2584 2669 2484 
Q 3125 2378 3379 2068 
Q 3634 1759 3634 1313 
Q 3634 634 3220 271 
Q 2806 -91 2034 -91 
Q 1263 -91 848 271 
Q 434 634 434 1313 
Q 434 1759 690 2068 
Q 947 2378 1403 2484 
z
M 1172 3481 
Q 1172 3119 1398 2916 
Q 1625 2713 2034 2713 
Q 2441 2713 2670 2916 
Q 2900 3119 2900 3481 
Q 2900 3844 2670 4047 
Q 2441 4250 2034 4250 
Q 1625 4250 1398 4047 
Q 1172 3844 1172 3481 
z
" transform="scale(0.015625)"/>
      </defs>
      <use xlink:href="#DejaVuSans-31"/>
      <use xlink:href="#DejaVuSans-30" x="63.623047"/>
      <use xlink:href="#DejaVuSans-2e" x="127.246094"/>
      <use xlink:href="#DejaVuSans-36" x="159.033203"/>
      <use xlink:href="#DejaVuSans-38" x="222.65625"/>
     </g>
    </g>
   </g>
   <g id="text_20">
    <g clip-path="url(#pa1eccf49ac)">
     <!-- 10.71 -->
     <g transform="translate(167.498449 270.828289) rotate(-89.953666) scale(0.1 -0.1)">
      <defs>
       <path id="DejaVuSans-37" d="M 525 4666 
L 3525 4666 
L 3525 4397 
L 1831 0 
L 1172 0 
L 2766 4134 
L 525 4134 
L 525 4666 
z
" transform="scale(0.015625)"/>
      </defs>
      <use xlink:href="#DejaVuSans-31"/>
      <use xlink:href="#DejaVuSans-30" x="63.623047"/>
      <use xlink:href="#DejaVuSans-2e" x="127.246094"/>
      <use xlink:href="#DejaVuSans-37" x="159.033203"/>
      <use xlink:href="#DejaVuSans-31" x="222.65625"/>
     </g>
    </g>
   </g>
  </g>
 </g>
 <defs>
  <clipPath id="pa1eccf49ac">
   <rect x="57.6" y="41.472" width="357.12" height="266.112"/>
  </clipPath>
 </defs>
</svg>
