<?xml version="1.0" encoding="utf-8" standalone="no"?>
<!DOCTYPE svg PUBLIC "-//W3C//DTD SVG 1.1//EN"
  "http://www.w3.org/Graphics/SVG/1.1/DTD/svg11.dtd">
<svg xmlns:xlink="http://www.w3.org/1999/xlink" width="460.8pt" height="345.6pt" viewBox="0 0 460.8 345.6" xmlns="http://www.w3.org/2000/svg" version="1.1">
 <metadata>
  <rdf:RDF xmlns:dc="http://purl.org/dc/elements/1.1/" xmlns:cc="http://creativecommons.org/ns#" xmlns:rdf="http://www.w3.org/1999/02/22-rdf-syntax-ns#">
   <cc:Work>
    <dc:type rdf:resource="http://purl.org/dc/dcmitype/StillImage"/>
    <dc:date>2024-04-22T00:46:20.102093</dc:date>
    <dc:format>image/svg+xml</dc:format>
    <dc:creator>
     <cc:Agent>
      <dc:title>Matplotlib v3.7.0, https://matplotlib.org/</dc:title>
     </cc:Agent>
    </dc:creator>
   </cc:Work>
  </rdf:RDF>
 </metadata>
 <defs>
  <style type="text/css">*{stroke-linejoin: round; stroke-linecap: butt}</style>
 </defs>
 <g id="figure_1">
  <g id="patch_1">
   <path d="M 0 345.6 
L 460.8 345.6 
L 460.8 0 
L 0 0 
L 0 345.6 
z
" style="fill: none"/>
  </g>
  <g id="axes_1"/>
  <g id="axes_2">
   <g id="patch_2">
    <path d="M 57.6 307.584 
L 414.72 307.584 
L 414.72 41.472 
L 57.6 41.472 
L 57.6 307.584 
z
" style="fill: none"/>
   </g>
   <g id="PathCollection_1">
    <path d="M 414.72 163.290877 
L 414.72 162.432 
L 414.72 159.744 
L 414.72 157.056 
L 414.72 154.368 
L 414.72 151.68 
L 414.72 148.992 
L 414.72 146.304 
L 414.72 143.616 
L 414.72 140.928 
L 414.72 138.24 
L 414.72 135.552 
L 414.72 132.864 
L 414.72 130.176 
L 414.72 127.488 
L 414.72 124.8 
L 414.72 122.112 
L 414.72 119.424 
L 414.72 116.736 
L 414.72 114.048 
L 414.72 111.36 
L 414.72 108.672 
L 414.72 105.984 
L 414.72 103.296 
L 414.72 100.608 
L 414.72 97.92 
L 414.72 95.232 
L 414.72 92.544 
L 414.72 89.856 
L 414.72 87.168 
L 414.72 84.48 
L 414.72 81.792 
L 414.72 79.104 
L 414.72 76.416 
L 414.72 73.728 
L 414.72 71.04 
L 414.72 68.352 
L 414.72 65.664 
L 414.72 62.976 
L 414.72 60.288 
L 414.72 57.6 
L 414.72 54.912 
L 414.72 52.224 
L 414.72 49.536 
L 414.72 46.848 
L 414.72 44.16 
L 414.72 41.472 
L 411.112727 41.472 
L 407.505455 41.472 
L 403.898182 41.472 
L 400.290909 41.472 
L 396.683636 41.472 
L 393.076364 41.472 
L 389.469091 41.472 
L 388.08312 41.472 
L 388.714261 44.16 
L 389.34447 46.848 
L 389.469091 47.380326 
L 389.968663 49.536 
L 390.590675 52.224 
L 391.211763 54.912 
L 391.831926 57.6 
L 392.451164 60.288 
L 393.069477 62.976 
L 393.076364 63.005984 
L 393.680781 65.664 
L 394.2911 68.352 
L 394.900502 71.04 
L 395.508988 73.728 
L 396.116557 76.416 
L 396.683636 78.928653 
L 396.72282 79.104 
L 397.322583 81.792 
L 397.921437 84.48 
L 398.519383 87.168 
L 399.116421 89.856 
L 399.71255 92.544 
L 400.290909 95.155849 
L 400.307607 95.232 
L 400.89612 97.92 
L 401.483732 100.608 
L 402.070444 103.296 
L 402.656256 105.984 
L 403.241168 108.672 
L 403.82518 111.36 
L 403.898182 111.696521 
L 404.403364 114.048 
L 404.979951 116.736 
L 405.555645 119.424 
L 406.130448 122.112 
L 406.704357 124.8 
L 407.277375 127.488 
L 407.505455 128.559579 
L 407.846212 130.176 
L 408.411983 132.864 
L 408.97687 135.552 
L 409.540872 138.24 
L 410.10399 140.928 
L 410.666223 143.616 
L 411.112727 145.754068 
L 411.226486 146.304 
L 411.781646 148.992 
L 412.335929 151.68 
L 412.889336 154.368 
L 413.441866 157.056 
L 413.993519 159.744 
L 414.544295 162.432 
z
" clip-path="url(#p595e6e1bf5)" style="fill: #481b6d; fill-opacity: 0.75"/>
   </g>
   <g id="PathCollection_2">
    <path d="M 407.505455 307.584 
L 411.112727 307.584 
L 414.72 307.584 
L 414.72 304.896 
L 414.72 302.208 
L 414.72 299.52 
L 414.72 296.832 
L 414.72 294.144 
L 414.72 291.456 
L 414.72 288.768 
L 414.72 286.08 
L 414.72 283.392 
L 414.72 280.704 
L 414.72 278.016 
L 414.72 275.328 
L 414.72 272.64 
L 414.72 269.952 
L 414.72 267.264 
L 414.72 264.576 
L 414.72 261.888 
L 414.72 259.2 
L 414.72 256.512 
L 414.72 253.824 
L 414.72 251.136 
L 414.72 248.448 
L 414.72 245.76 
L 414.72 243.072 
L 414.72 240.384 
L 414.72 237.696 
L 414.72 235.008 
L 414.72 232.32 
L 414.72 229.632 
L 414.72 226.944 
L 414.72 224.256 
L 414.72 221.568 
L 414.72 218.88 
L 414.72 216.192 
L 414.72 213.504 
L 414.72 210.816 
L 414.72 208.128 
L 414.72 205.44 
L 414.72 202.752 
L 414.72 200.064 
L 414.72 197.376 
L 414.72 194.688 
L 414.72 192 
L 414.72 189.312 
L 414.72 186.624 
L 414.72 183.936 
L 414.72 181.248 
L 414.72 178.56 
L 414.72 175.872 
L 414.72 173.184 
L 414.72 170.496 
L 414.72 167.808 
L 414.72 165.12 
L 414.72 163.290877 
L 414.544295 162.432 
L 413.993519 159.744 
L 413.441866 157.056 
L 412.889336 154.368 
L 412.335929 151.68 
L 411.781646 148.992 
L 411.226486 146.304 
L 411.112727 145.754068 
L 410.666223 143.616 
L 410.10399 140.928 
L 409.540872 138.24 
L 408.97687 135.552 
L 408.411983 132.864 
L 407.846212 130.176 
L 407.505455 128.559579 
L 407.277375 127.488 
L 406.704357 124.8 
L 406.130448 122.112 
L 405.555645 119.424 
L 404.979951 116.736 
L 404.403364 114.048 
L 403.898182 111.696521 
L 403.82518 111.36 
L 403.241168 108.672 
L 402.656256 105.984 
L 402.070444 103.296 
L 401.483732 100.608 
L 400.89612 97.92 
L 400.307607 95.232 
L 400.290909 95.155849 
L 399.71255 92.544 
L 399.116421 89.856 
L 398.519383 87.168 
L 397.921437 84.48 
L 397.322583 81.792 
L 396.72282 79.104 
L 396.683636 78.928653 
L 396.116557 76.416 
L 395.508988 73.728 
L 394.900502 71.04 
L 394.2911 68.352 
L 393.680781 65.664 
L 393.076364 63.005984 
L 393.069477 62.976 
L 392.451164 60.288 
L 391.831926 57.6 
L 391.211763 54.912 
L 390.590675 52.224 
L 389.968663 49.536 
L 389.469091 47.380326 
L 389.34447 46.848 
L 388.714261 44.16 
L 388.08312 41.472 
L 385.861818 41.472 
L 382.254545 41.472 
L 378.647273 41.472 
L 375.04 41.472 
L 371.432727 41.472 
L 367.825455 41.472 
L 364.218182 41.472 
L 360.610909 41.472 
L 357.003636 41.472 
L 353.396364 41.472 
L 349.789091 41.472 
L 346.181818 41.472 
L 344.925456 41.472 
L 345.644926 44.16 
L 346.181818 46.168833 
L 346.361232 46.848 
L 347.070264 49.536 
L 347.778246 52.224 
L 348.485181 54.912 
L 349.191067 57.6 
L 349.789091 59.880656 
L 349.89468 60.288 
L 350.590401 62.976 
L 351.285083 65.664 
L 351.978728 68.352 
L 352.671335 71.04 
L 353.362904 73.728 
L 353.396364 73.85825 
L 354.045989 76.416 
L 354.727668 79.104 
L 355.408319 81.792 
L 356.087942 84.48 
L 356.766538 87.168 
L 357.003636 88.108609 
L 357.439172 89.856 
L 358.108133 92.544 
L 358.776077 95.232 
L 359.443002 97.92 
L 360.10891 100.608 
L 360.610909 102.637477 
L 360.771996 103.296 
L 361.428517 105.984 
L 362.08403 108.672 
L 362.738534 111.36 
L 363.392031 114.048 
L 364.04452 116.736 
L 364.218182 117.452534 
L 364.69077 119.424 
L 365.33412 122.112 
L 365.976472 124.8 
L 366.617826 127.488 
L 367.258181 130.176 
L 367.825455 132.560949 
L 367.896758 132.864 
L 368.528206 135.552 
L 369.158665 138.24 
L 369.788135 140.928 
L 370.416616 143.616 
L 371.044109 146.304 
L 371.432727 147.971369 
L 371.668066 148.992 
L 372.286883 151.68 
L 372.904721 154.368 
L 373.52158 157.056 
L 374.137459 159.744 
L 374.752358 162.432 
L 375.04 163.691428 
L 375.362823 165.12 
L 375.969273 167.808 
L 376.574752 170.496 
L 377.179261 173.184 
L 377.7828 175.872 
L 378.385367 178.56 
L 378.647273 179.730231 
L 378.983408 181.248 
L 379.577744 183.936 
L 380.171118 186.624 
L 380.763531 189.312 
L 381.354983 192 
L 381.945473 194.688 
L 382.254545 196.097249 
L 382.532097 197.376 
L 383.114566 200.064 
L 383.696083 202.752 
L 384.276646 205.44 
L 384.856258 208.128 
L 385.434916 210.816 
L 385.861818 212.802337 
L 386.011076 213.504 
L 386.581918 216.192 
L 387.151816 218.88 
L 387.72077 221.568 
L 388.288779 224.256 
L 388.855845 226.944 
L 389.421966 229.632 
L 389.469091 229.85613 
L 389.981891 232.32 
L 390.540402 235.008 
L 391.097977 237.696 
L 391.654617 240.384 
L 392.210321 243.072 
L 392.76509 245.76 
L 393.076364 247.270763 
L 393.31649 248.448 
L 393.863839 251.136 
L 394.410262 253.824 
L 394.955757 256.512 
L 395.500325 259.2 
L 396.043966 261.888 
L 396.586679 264.576 
L 396.683636 265.05705 
L 397.124049 267.264 
L 397.659537 269.952 
L 398.194106 272.64 
L 398.727755 275.328 
L 399.260486 278.016 
L 399.792298 280.704 
L 400.290909 283.228558 
L 400.322873 283.392 
L 400.847639 286.08 
L 401.371494 288.768 
L 401.894438 291.456 
L 402.416471 294.144 
L 402.937592 296.832 
L 403.457803 299.52 
L 403.898182 301.7995 
L 403.976335 302.208 
L 404.489682 304.896 
L 405.002125 307.584 
z
" clip-path="url(#p595e6e1bf5)" style="fill: #3f4788; fill-opacity: 0.75"/>
   </g>
   <g id="PathCollection_3">
    <path d="M 364.218182 307.584 
L 367.825455 307.584 
L 371.432727 307.584 
L 375.04 307.584 
L 378.647273 307.584 
L 382.254545 307.584 
L 385.861818 307.584 
L 389.469091 307.584 
L 393.076364 307.584 
L 396.683636 307.584 
L 400.290909 307.584 
L 403.898182 307.584 
L 405.002125 307.584 
L 404.489682 304.896 
L 403.976335 302.208 
L 403.898182 301.7995 
L 403.457803 299.52 
L 402.937592 296.832 
L 402.416471 294.144 
L 401.894438 291.456 
L 401.371494 288.768 
L 400.847639 286.08 
L 400.322873 283.392 
L 400.290909 283.228558 
L 399.792298 280.704 
L 399.260486 278.016 
L 398.727755 275.328 
L 398.194106 272.64 
L 397.659537 269.952 
L 397.124049 267.264 
L 396.683636 265.05705 
L 396.586679 264.576 
L 396.043966 261.888 
L 395.500325 259.2 
L 394.955757 256.512 
L 394.410262 253.824 
L 393.863839 251.136 
L 393.31649 248.448 
L 393.076364 247.270763 
L 392.76509 245.76 
L 392.210321 243.072 
L 391.654617 240.384 
L 391.097977 237.696 
L 390.540402 235.008 
L 389.981891 232.32 
L 389.469091 229.85613 
L 389.421966 229.632 
L 388.855845 226.944 
L 388.288779 224.256 
L 387.72077 221.568 
L 387.151816 218.88 
L 386.581918 216.192 
L 386.011076 213.504 
L 385.861818 212.802337 
L 385.434916 210.816 
L 384.856258 208.128 
L 384.276646 205.44 
L 383.696083 202.752 
L 383.114566 200.064 
L 382.532097 197.376 
L 382.254545 196.097249 
L 381.945473 194.688 
L 381.354983 192 
L 380.763531 189.312 
L 380.171118 186.624 
L 379.577744 183.936 
L 378.983408 181.248 
L 378.647273 179.730231 
L 378.385367 178.56 
L 377.7828 175.872 
L 377.179261 173.184 
L 376.574752 170.496 
L 375.969273 167.808 
L 375.362823 165.12 
L 375.04 163.691428 
L 374.752358 162.432 
L 374.137459 159.744 
L 373.52158 157.056 
L 372.904721 154.368 
L 372.286883 151.68 
L 371.668066 148.992 
L 371.432727 147.971369 
L 371.044109 146.304 
L 370.416616 143.616 
L 369.788135 140.928 
L 369.158665 138.24 
L 368.528206 135.552 
L 367.896758 132.864 
L 367.825455 132.560949 
L 367.258181 130.176 
L 366.617826 127.488 
L 365.976472 124.8 
L 365.33412 122.112 
L 364.69077 119.424 
L 364.218182 117.452534 
L 364.04452 116.736 
L 363.392031 114.048 
L 362.738534 111.36 
L 362.08403 108.672 
L 361.428517 105.984 
L 360.771996 103.296 
L 360.610909 102.637477 
L 360.10891 100.608 
L 359.443002 97.92 
L 358.776077 95.232 
L 358.108133 92.544 
L 357.439172 89.856 
L 357.003636 88.108609 
L 356.766538 87.168 
L 356.087942 84.48 
L 355.408319 81.792 
L 354.727668 79.104 
L 354.045989 76.416 
L 353.396364 73.85825 
L 353.362904 73.728 
L 352.671335 71.04 
L 351.978728 68.352 
L 351.285083 65.664 
L 350.590401 62.976 
L 349.89468 60.288 
L 349.789091 59.880656 
L 349.191067 57.6 
L 348.485181 54.912 
L 347.778246 52.224 
L 347.070264 49.536 
L 346.361232 46.848 
L 346.181818 46.168833 
L 345.644926 44.16 
L 344.925456 41.472 
L 342.574545 41.472 
L 338.967273 41.472 
L 335.36 41.472 
L 331.752727 41.472 
L 328.145455 41.472 
L 324.538182 41.472 
L 320.930909 41.472 
L 317.323636 41.472 
L 313.716364 41.472 
L 310.109091 41.472 
L 306.501818 41.472 
L 302.894545 41.472 
L 299.287273 41.472 
L 295.68 41.472 
L 294.633988 41.472 
L 295.494676 44.16 
L 295.68 44.739636 
L 296.344691 46.848 
L 297.190881 49.536 
L 298.035836 52.224 
L 298.879558 54.912 
L 299.287273 56.212856 
L 299.71605 57.6 
L 300.5457 60.288 
L 301.37413 62.976 
L 302.201339 65.664 
L 302.894545 67.919899 
L 303.025522 68.352 
L 303.83907 71.04 
L 304.651411 73.728 
L 305.462545 76.416 
L 306.272473 79.104 
L 306.501818 79.866308 
L 307.073417 81.792 
L 307.87009 84.48 
L 308.66557 87.168 
L 309.459856 89.856 
L 310.109091 92.05644 
L 310.251044 92.544 
L 311.032453 95.232 
L 311.812683 97.92 
L 312.591732 100.608 
L 313.3696 103.296 
L 313.716364 104.496116 
L 314.140669 105.984 
L 314.906037 108.672 
L 315.670238 111.36 
L 316.433271 114.048 
L 317.195136 116.736 
L 317.323636 117.190079 
L 317.947677 119.424 
L 318.697404 122.112 
L 319.445976 124.8 
L 320.193393 127.488 
L 320.930909 130.1445 
L 320.939543 130.176 
L 321.675158 132.864 
L 322.40963 135.552 
L 323.142958 138.24 
L 323.875144 140.928 
L 324.538182 143.365954 
L 324.605332 143.616 
L 325.326051 146.304 
L 326.04564 148.992 
L 326.764097 151.68 
L 327.481424 154.368 
L 328.145455 156.860223 
L 328.196971 157.056 
L 328.903154 159.744 
L 329.608218 162.432 
L 330.312162 165.12 
L 331.014987 167.808 
L 331.716694 170.496 
L 331.752727 170.634257 
L 332.409128 173.184 
L 333.100014 175.872 
L 333.789791 178.56 
L 334.478461 181.248 
L 335.166024 183.936 
L 335.36 184.695583 
L 335.846511 186.624 
L 336.523553 189.312 
L 337.199497 192 
L 337.874346 194.688 
L 338.548099 197.376 
L 338.967273 199.051081 
L 339.21772 200.064 
L 339.88124 202.752 
L 340.543675 205.44 
L 341.205025 208.128 
L 341.865289 210.816 
L 342.524469 213.504 
L 342.574545 213.708546 
L 343.175372 216.192 
L 343.824608 218.88 
L 344.47277 221.568 
L 345.119858 224.256 
L 345.765872 226.944 
L 346.181818 228.677615 
L 346.408135 229.632 
L 347.044474 232.32 
L 347.67975 235.008 
L 348.313962 237.696 
L 348.947111 240.384 
L 349.579196 243.072 
L 349.789091 243.966123 
L 350.205353 245.76 
L 350.828034 248.448 
L 351.449661 251.136 
L 352.070235 253.824 
L 352.689756 256.512 
L 353.308224 259.2 
L 353.396364 259.58374 
L 353.919596 261.888 
L 354.52892 264.576 
L 355.137201 267.264 
L 355.744439 269.952 
L 356.350634 272.64 
L 356.955786 275.328 
L 357.003636 275.540918 
L 357.553618 278.016 
L 358.149878 280.704 
L 358.745104 283.392 
L 359.339298 286.08 
L 359.932459 288.768 
L 360.524587 291.456 
L 360.610909 291.848559 
L 361.110051 294.144 
L 361.69353 296.832 
L 362.275985 299.52 
L 362.857418 302.208 
L 363.437827 304.896 
L 364.017213 307.584 
z
" clip-path="url(#p595e6e1bf5)" style="fill: #2e6e8e; fill-opacity: 0.75"/>
   </g>
   <g id="PathCollection_4">
    <path d="M 317.323636 307.584 
L 320.930909 307.584 
L 324.538182 307.584 
L 328.145455 307.584 
L 331.752727 307.584 
L 335.36 307.584 
L 338.967273 307.584 
L 342.574545 307.584 
L 346.181818 307.584 
L 349.789091 307.584 
L 353.396364 307.584 
L 357.003636 307.584 
L 360.610909 307.584 
L 364.017213 307.584 
L 363.437827 304.896 
L 362.857418 302.208 
L 362.275985 299.52 
L 361.69353 296.832 
L 361.110051 294.144 
L 360.610909 291.848559 
L 360.524587 291.456 
L 359.932459 288.768 
L 359.339298 286.08 
L 358.745104 283.392 
L 358.149878 280.704 
L 357.553618 278.016 
L 357.003636 275.540918 
L 356.955786 275.328 
L 356.350634 272.64 
L 355.744439 269.952 
L 355.137201 267.264 
L 354.52892 264.576 
L 353.919596 261.888 
L 353.396364 259.58374 
L 353.308224 259.2 
L 352.689756 256.512 
L 352.070235 253.824 
L 351.449661 251.136 
L 350.828034 248.448 
L 350.205353 245.76 
L 349.789091 243.966123 
L 349.579196 243.072 
L 348.947111 240.384 
L 348.313962 237.696 
L 347.67975 235.008 
L 347.044474 232.32 
L 346.408135 229.632 
L 346.181818 228.677615 
L 345.765872 226.944 
L 345.119858 224.256 
L 344.47277 221.568 
L 343.824608 218.88 
L 343.175372 216.192 
L 342.574545 213.708546 
L 342.524469 213.504 
L 341.865289 210.816 
L 341.205025 208.128 
L 340.543675 205.44 
L 339.88124 202.752 
L 339.21772 200.064 
L 338.967273 199.051081 
L 338.548099 197.376 
L 337.874346 194.688 
L 337.199497 192 
L 336.523553 189.312 
L 335.846511 186.624 
L 335.36 184.695583 
L 335.166024 183.936 
L 334.478461 181.248 
L 333.789791 178.56 
L 333.100014 175.872 
L 332.409128 173.184 
L 331.752727 170.634257 
L 331.716694 170.496 
L 331.014987 167.808 
L 330.312162 165.12 
L 329.608218 162.432 
L 328.903154 159.744 
L 328.196971 157.056 
L 328.145455 156.860223 
L 327.481424 154.368 
L 326.764097 151.68 
L 326.04564 148.992 
L 325.326051 146.304 
L 324.605332 143.616 
L 324.538182 143.365954 
L 323.875144 140.928 
L 323.142958 138.24 
L 322.40963 135.552 
L 321.675158 132.864 
L 320.939543 130.176 
L 320.930909 130.1445 
L 320.193393 127.488 
L 319.445976 124.8 
L 318.697404 122.112 
L 317.947677 119.424 
L 317.323636 117.190079 
L 317.195136 116.736 
L 316.433271 114.048 
L 315.670238 111.36 
L 314.906037 108.672 
L 314.140669 105.984 
L 313.716364 104.496116 
L 313.3696 103.296 
L 312.591732 100.608 
L 311.812683 97.92 
L 311.032453 95.232 
L 310.251044 92.544 
L 310.109091 92.05644 
L 309.459856 89.856 
L 308.66557 87.168 
L 307.87009 84.48 
L 307.073417 81.792 
L 306.501818 79.866308 
L 306.272473 79.104 
L 305.462545 76.416 
L 304.651411 73.728 
L 303.83907 71.04 
L 303.025522 68.352 
L 302.894545 67.919899 
L 302.201339 65.664 
L 301.37413 62.976 
L 300.5457 60.288 
L 299.71605 57.6 
L 299.287273 56.212856 
L 298.879558 54.912 
L 298.035836 52.224 
L 297.190881 49.536 
L 296.344691 46.848 
L 295.68 44.739636 
L 295.494676 44.16 
L 294.633988 41.472 
L 292.072727 41.472 
L 288.465455 41.472 
L 284.858182 41.472 
L 281.250909 41.472 
L 277.643636 41.472 
L 274.036364 41.472 
L 270.429091 41.472 
L 266.821818 41.472 
L 263.214545 41.472 
L 259.607273 41.472 
L 256 41.472 
L 252.392727 41.472 
L 248.785455 41.472 
L 245.178182 41.472 
L 241.570909 41.472 
L 237.963636 41.472 
L 234.356364 41.472 
L 231.597843 41.472 
L 232.729219 44.16 
L 233.859021 46.848 
L 234.356364 48.032967 
L 234.975618 49.536 
L 236.081495 52.224 
L 237.18582 54.912 
L 237.963636 56.807966 
L 238.282705 57.6 
L 239.363975 60.288 
L 240.443713 62.976 
L 241.521918 65.664 
L 241.570909 65.786318 
L 242.580299 68.352 
L 243.636296 71.04 
L 244.690781 73.728 
L 245.178182 74.972269 
L 245.733859 76.416 
L 246.76692 79.104 
L 247.798488 81.792 
L 248.785455 84.367514 
L 248.827822 84.48 
L 249.83871 87.168 
L 250.848125 89.856 
L 251.856067 92.544 
L 252.392727 93.977315 
L 252.854588 95.232 
L 253.842577 97.92 
L 254.829111 100.608 
L 255.814192 103.296 
L 256 103.803794 
L 256.784539 105.984 
L 257.750358 108.672 
L 258.714742 111.36 
L 259.607273 113.851449 
L 259.676536 114.048 
L 260.622299 116.736 
L 261.566645 119.424 
L 262.509573 122.112 
L 263.214545 124.124719 
L 263.44727 124.8 
L 264.372207 127.488 
L 265.295743 130.176 
L 266.217879 132.864 
L 266.821818 134.627179 
L 267.133588 135.552 
L 268.038332 138.24 
L 268.941694 140.928 
L 269.843672 143.616 
L 270.429091 145.363331 
L 270.739343 146.304 
L 271.624502 148.992 
L 272.508295 151.68 
L 273.390722 154.368 
L 274.036364 156.337798 
L 274.26816 157.056 
L 275.134314 159.744 
L 275.999119 162.432 
L 276.862574 165.12 
L 277.643636 167.555327 
L 277.72345 167.808 
L 278.571155 170.496 
L 279.417527 173.184 
L 280.262565 175.872 
L 281.106269 178.56 
L 281.250909 179.021567 
L 281.938217 181.248 
L 282.766686 183.936 
L 283.593839 186.624 
L 284.419673 189.312 
L 284.858182 190.741616 
L 285.238507 192 
L 286.049585 194.688 
L 286.85936 197.376 
L 287.667833 200.064 
L 288.465455 202.720201 
L 288.474865 202.752 
L 289.269039 205.44 
L 290.061926 208.128 
L 290.853525 210.816 
L 291.643838 213.504 
L 292.072727 214.965149 
L 292.427711 216.192 
L 293.204177 218.88 
L 293.979371 221.568 
L 294.753292 224.256 
L 295.525942 226.944 
L 295.68 227.480867 
L 296.288609 229.632 
L 297.047847 232.32 
L 297.805826 235.008 
L 298.562548 237.696 
L 299.287273 240.274635 
L 299.317584 240.384 
L 300.061295 243.072 
L 300.803763 245.76 
L 301.544988 248.448 
L 302.284969 251.136 
L 302.894545 253.354051 
L 303.021934 253.824 
L 303.749304 256.512 
L 304.475446 259.2 
L 305.200357 261.888 
L 305.924039 264.576 
L 306.501818 266.725746 
L 306.644532 267.264 
L 307.355987 269.952 
L 308.066227 272.64 
L 308.77525 275.328 
L 309.483057 278.016 
L 310.109091 280.397562 
L 310.188571 280.704 
L 310.884521 283.392 
L 311.579268 286.08 
L 312.272811 288.768 
L 312.965152 291.456 
L 313.65629 294.144 
L 313.716364 294.378058 
L 314.33792 296.832 
L 315.017568 299.52 
L 315.696026 302.208 
L 316.373294 304.896 
L 317.049372 307.584 
z
" clip-path="url(#p595e6e1bf5)" style="fill: #21918c; fill-opacity: 0.75"/>
   </g>
   <g id="PathCollection_5">
    <path d="M 259.607273 305.710865 
L 260.19213 307.584 
L 263.214545 307.584 
L 266.821818 307.584 
L 270.429091 307.584 
L 274.036364 307.584 
L 277.643636 307.584 
L 281.250909 307.584 
L 284.858182 307.584 
L 288.465455 307.584 
L 292.072727 307.584 
L 295.68 307.584 
L 299.287273 307.584 
L 302.894545 307.584 
L 306.501818 307.584 
L 310.109091 307.584 
L 313.716364 307.584 
L 317.049372 307.584 
L 316.373294 304.896 
L 315.696026 302.208 
L 315.017568 299.52 
L 314.33792 296.832 
L 313.716364 294.378058 
L 313.65629 294.144 
L 312.965152 291.456 
L 312.272811 288.768 
L 311.579268 286.08 
L 310.884521 283.392 
L 310.188571 280.704 
L 310.109091 280.397562 
L 309.483057 278.016 
L 308.77525 275.328 
L 308.066227 272.64 
L 307.355987 269.952 
L 306.644532 267.264 
L 306.501818 266.725746 
L 305.924039 264.576 
L 305.200357 261.888 
L 304.475446 259.2 
L 303.749304 256.512 
L 303.021934 253.824 
L 302.894545 253.354051 
L 302.284969 251.136 
L 301.544988 248.448 
L 300.803763 245.76 
L 300.061295 243.072 
L 299.317584 240.384 
L 299.287273 240.274635 
L 298.562548 237.696 
L 297.805826 235.008 
L 297.047847 232.32 
L 296.288609 229.632 
L 295.68 227.480867 
L 295.525942 226.944 
L 294.753292 224.256 
L 293.979371 221.568 
L 293.204177 218.88 
L 292.427711 216.192 
L 292.072727 214.965149 
L 291.643838 213.504 
L 290.853525 210.816 
L 290.061926 208.128 
L 289.269039 205.44 
L 288.474865 202.752 
L 288.465455 202.720201 
L 287.667833 200.064 
L 286.85936 197.376 
L 286.049585 194.688 
L 285.238507 192 
L 284.858182 190.741616 
L 284.419673 189.312 
L 283.593839 186.624 
L 282.766686 183.936 
L 281.938217 181.248 
L 281.250909 179.021567 
L 281.106269 178.56 
L 280.262565 175.872 
L 279.417527 173.184 
L 278.571155 170.496 
L 277.72345 167.808 
L 277.643636 167.555327 
L 276.862574 165.12 
L 275.999119 162.432 
L 275.134314 159.744 
L 274.26816 157.056 
L 274.036364 156.337798 
L 273.390722 154.368 
L 272.508295 151.68 
L 271.624502 148.992 
L 270.739343 146.304 
L 270.429091 145.363331 
L 269.843672 143.616 
L 268.941694 140.928 
L 268.038332 138.24 
L 267.133588 135.552 
L 266.821818 134.627179 
L 266.217879 132.864 
L 265.295743 130.176 
L 264.372207 127.488 
L 263.44727 124.8 
L 263.214545 124.124719 
L 262.509573 122.112 
L 261.566645 119.424 
L 260.622299 116.736 
L 259.676536 114.048 
L 259.607273 113.851449 
L 258.714742 111.36 
L 257.750358 108.672 
L 256.784539 105.984 
L 256 103.803794 
L 255.814192 103.296 
L 254.829111 100.608 
L 253.842577 97.92 
L 252.854588 95.232 
L 252.392727 93.977315 
L 251.856067 92.544 
L 250.848125 89.856 
L 249.83871 87.168 
L 248.827822 84.48 
L 248.785455 84.367514 
L 247.798488 81.792 
L 246.76692 79.104 
L 245.733859 76.416 
L 245.178182 74.972269 
L 244.690781 73.728 
L 243.636296 71.04 
L 242.580299 68.352 
L 241.570909 65.786318 
L 241.521918 65.664 
L 240.443713 62.976 
L 239.363975 60.288 
L 238.282705 57.6 
L 237.963636 56.807966 
L 237.18582 54.912 
L 236.081495 52.224 
L 234.975618 49.536 
L 234.356364 48.032967 
L 233.859021 46.848 
L 232.729219 44.16 
L 231.597843 41.472 
L 230.749091 41.472 
L 227.141818 41.472 
L 223.534545 41.472 
L 219.927273 41.472 
L 216.32 41.472 
L 212.712727 41.472 
L 209.105455 41.472 
L 205.498182 41.472 
L 201.890909 41.472 
L 198.283636 41.472 
L 194.676364 41.472 
L 191.069091 41.472 
L 187.461818 41.472 
L 183.854545 41.472 
L 180.247273 41.472 
L 176.64 41.472 
L 173.032727 41.472 
L 169.425455 41.472 
L 165.818182 41.472 
L 162.210909 41.472 
L 158.603636 41.472 
L 154.996364 41.472 
L 151.389091 41.472 
L 147.781818 41.472 
L 144.174545 41.472 
L 140.567273 41.472 
L 136.96 41.472 
L 133.352727 41.472 
L 132.573773 41.472 
L 133.352727 42.360634 
L 134.87105 44.16 
L 136.96 46.638527 
L 137.130181 46.848 
L 139.3111 49.536 
L 140.567273 51.086106 
L 141.457266 52.224 
L 143.557017 54.912 
L 144.174545 55.703551 
L 145.604189 57.6 
L 147.628081 60.288 
L 147.781818 60.492461 
L 149.588272 62.976 
L 151.389091 65.454789 
L 151.536273 65.664 
L 153.424696 68.352 
L 154.996364 70.591891 
L 155.301138 71.04 
L 157.126821 73.728 
L 158.603636 75.905096 
L 158.939874 76.416 
L 160.70645 79.104 
L 162.210909 81.39608 
L 162.463252 81.792 
L 164.174051 84.48 
L 165.818182 87.06654 
L 165.880858 87.168 
L 167.538937 89.856 
L 169.194887 92.544 
L 169.425455 92.918803 
L 170.809423 95.232 
L 172.415501 97.92 
L 173.032727 98.954469 
L 173.992955 100.608 
L 175.551758 103.296 
L 176.64 105.175142 
L 177.096221 105.984 
L 178.610147 108.672 
L 180.122042 111.36 
L 180.247273 111.582978 
L 181.596515 114.048 
L 183.065789 116.736 
L 183.854545 118.181074 
L 184.51614 119.424 
L 185.944855 122.112 
L 187.371601 124.8 
L 187.461818 124.970226 
L 188.763872 127.488 
L 190.152008 130.176 
L 191.069091 131.954413 
L 191.527043 132.864 
L 192.878353 135.552 
L 194.227755 138.24 
L 194.676364 139.134968 
L 195.554338 140.928 
L 196.86861 143.616 
L 198.181003 146.304 
L 198.283636 146.514537 
L 199.464032 148.992 
L 200.742878 151.68 
L 201.890909 154.096567 
L 202.017003 154.368 
L 203.263755 157.056 
L 204.508685 159.744 
L 205.498182 161.883661 
L 205.746267 162.432 
L 206.960494 165.12 
L 208.172927 167.808 
L 209.105455 169.87856 
L 209.37763 170.496 
L 210.560664 173.184 
L 211.741931 175.872 
L 212.712727 178.084423 
L 212.917066 178.56 
L 214.070161 181.248 
L 215.221514 183.936 
L 216.32 186.504472 
L 216.370077 186.624 
L 217.494411 189.312 
L 218.61703 192 
L 219.737932 194.688 
L 219.927273 195.142789 
L 220.838424 197.376 
L 221.933419 200.064 
L 223.026722 202.752 
L 223.534545 204.002541 
L 224.106822 205.44 
L 225.175243 208.128 
L 226.241996 210.816 
L 227.141818 213.086952 
L 227.303885 213.504 
L 228.346722 216.192 
L 229.387917 218.88 
L 230.427467 221.568 
L 230.749091 222.401008 
L 231.451767 224.256 
L 232.468339 226.944 
L 233.48329 229.632 
L 234.356364 231.94798 
L 234.494005 232.32 
L 235.486841 235.008 
L 236.478079 237.696 
L 237.46772 240.384 
L 237.963636 241.733222 
L 238.446745 243.072 
L 239.415111 245.76 
L 240.3819 248.448 
L 241.347113 251.136 
L 241.570909 251.760309 
L 242.297431 253.824 
L 243.242166 256.512 
L 244.185346 259.2 
L 245.126971 261.888 
L 245.178182 262.034443 
L 246.051313 264.576 
L 246.973216 267.264 
L 247.893584 269.952 
L 248.785455 272.561124 
L 248.81195 272.64 
L 249.713293 275.328 
L 250.613122 278.016 
L 251.511438 280.704 
L 252.392727 283.345508 
L 252.407975 283.392 
L 253.287947 286.08 
L 254.166426 288.768 
L 255.043411 291.456 
L 255.918902 294.144 
L 256 294.393439 
L 256.779557 296.832 
L 257.637373 299.52 
L 258.493716 302.208 
L 259.348583 304.896 
z
" clip-path="url(#p595e6e1bf5)" style="fill: #2db27d; fill-opacity: 0.75"/>
   </g>
   <g id="PathCollection_6">
    <path d="M 183.854545 307.584 
L 187.461818 307.584 
L 191.069091 307.584 
L 194.676364 307.584 
L 198.283636 307.584 
L 201.890909 307.584 
L 205.498182 307.584 
L 209.105455 307.584 
L 212.712727 307.584 
L 216.32 307.584 
L 219.927273 307.584 
L 223.534545 307.584 
L 227.141818 307.584 
L 230.749091 307.584 
L 234.356364 307.584 
L 237.963636 307.584 
L 241.570909 307.584 
L 245.178182 307.584 
L 248.785455 307.584 
L 252.392727 307.584 
L 256 307.584 
L 259.607273 307.584 
L 260.19213 307.584 
L 259.607273 305.710865 
L 259.348583 304.896 
L 258.493716 302.208 
L 257.637373 299.52 
L 256.779557 296.832 
L 256 294.393439 
L 255.918902 294.144 
L 255.043411 291.456 
L 254.166426 288.768 
L 253.287947 286.08 
L 252.407975 283.392 
L 252.392727 283.345508 
L 251.511438 280.704 
L 250.613122 278.016 
L 249.713293 275.328 
L 248.81195 272.64 
L 248.785455 272.561124 
L 247.893584 269.952 
L 246.973216 267.264 
L 246.051313 264.576 
L 245.178182 262.034443 
L 245.126971 261.888 
L 244.185346 259.2 
L 243.242166 256.512 
L 242.297431 253.824 
L 241.570909 251.760309 
L 241.347113 251.136 
L 240.3819 248.448 
L 239.415111 245.76 
L 238.446745 243.072 
L 237.963636 241.733222 
L 237.46772 240.384 
L 236.478079 237.696 
L 235.486841 235.008 
L 234.494005 232.32 
L 234.356364 231.94798 
L 233.48329 229.632 
L 232.468339 226.944 
L 231.451767 224.256 
L 230.749091 222.401008 
L 230.427467 221.568 
L 229.387917 218.88 
L 228.346722 216.192 
L 227.303885 213.504 
L 227.141818 213.086952 
L 226.241996 210.816 
L 225.175243 208.128 
L 224.106822 205.44 
L 223.534545 204.002541 
L 223.026722 202.752 
L 221.933419 200.064 
L 220.838424 197.376 
L 219.927273 195.142789 
L 219.737932 194.688 
L 218.61703 192 
L 217.494411 189.312 
L 216.370077 186.624 
L 216.32 186.504472 
L 215.221514 183.936 
L 214.070161 181.248 
L 212.917066 178.56 
L 212.712727 178.084423 
L 211.741931 175.872 
L 210.560664 173.184 
L 209.37763 170.496 
L 209.105455 169.87856 
L 208.172927 167.808 
L 206.960494 165.12 
L 205.746267 162.432 
L 205.498182 161.883661 
L 204.508685 159.744 
L 203.263755 157.056 
L 202.017003 154.368 
L 201.890909 154.096567 
L 200.742878 151.68 
L 199.464032 148.992 
L 198.283636 146.514537 
L 198.181003 146.304 
L 196.86861 143.616 
L 195.554338 140.928 
L 194.676364 139.134968 
L 194.227755 138.24 
L 192.878353 135.552 
L 191.527043 132.864 
L 191.069091 131.954413 
L 190.152008 130.176 
L 188.763872 127.488 
L 187.461818 124.970226 
L 187.371601 124.8 
L 185.944855 122.112 
L 184.51614 119.424 
L 183.854545 118.181074 
L 183.065789 116.736 
L 181.596515 114.048 
L 180.247273 111.582978 
L 180.122042 111.36 
L 178.610147 108.672 
L 177.096221 105.984 
L 176.64 105.175142 
L 175.551758 103.296 
L 173.992955 100.608 
L 173.032727 98.954469 
L 172.415501 97.92 
L 170.809423 95.232 
L 169.425455 92.918803 
L 169.194887 92.544 
L 167.538937 89.856 
L 165.880858 87.168 
L 165.818182 87.06654 
L 164.174051 84.48 
L 162.463252 81.792 
L 162.210909 81.39608 
L 160.70645 79.104 
L 158.939874 76.416 
L 158.603636 75.905096 
L 157.126821 73.728 
L 155.301138 71.04 
L 154.996364 70.591891 
L 153.424696 68.352 
L 151.536273 65.664 
L 151.389091 65.454789 
L 149.588272 62.976 
L 147.781818 60.492461 
L 147.628081 60.288 
L 145.604189 57.6 
L 144.174545 55.703551 
L 143.557017 54.912 
L 141.457266 52.224 
L 140.567273 51.086106 
L 139.3111 49.536 
L 137.130181 46.848 
L 136.96 46.638527 
L 134.87105 44.16 
L 133.352727 42.360634 
L 132.573773 41.472 
L 129.745455 41.472 
L 126.138182 41.472 
L 122.530909 41.472 
L 118.923636 41.472 
L 115.316364 41.472 
L 111.709091 41.472 
L 108.101818 41.472 
L 104.494545 41.472 
L 100.887273 41.472 
L 97.28 41.472 
L 93.672727 41.472 
L 90.065455 41.472 
L 86.458182 41.472 
L 82.850909 41.472 
L 79.243636 41.472 
L 75.636364 41.472 
L 72.029091 41.472 
L 68.421818 41.472 
L 64.814545 41.472 
L 61.207273 41.472 
L 57.6 41.472 
L 57.6 44.16 
L 57.6 46.848 
L 57.6 49.536 
L 57.6 52.224 
L 57.6 54.912 
L 57.6 57.6 
L 57.6 60.288 
L 57.6 62.976 
L 57.6 65.664 
L 57.6 68.352 
L 57.6 71.04 
L 57.6 73.728 
L 57.6 76.416 
L 57.6 79.104 
L 57.6 81.792 
L 57.6 84.48 
L 57.6 87.168 
L 57.6 89.856 
L 57.6 92.544 
L 57.6 95.232 
L 57.6 97.92 
L 57.6 100.608 
L 57.6 103.296 
L 57.6 105.984 
L 57.6 108.672 
L 57.6 111.36 
L 57.6 114.048 
L 57.6 116.736 
L 57.6 119.424 
L 57.6 122.112 
L 57.6 124.8 
L 57.6 127.488 
L 57.6 130.176 
L 57.6 132.864 
L 57.6 135.552 
L 57.6 138.24 
L 57.6 140.928 
L 57.6 143.616 
L 57.6 146.304 
L 57.6 148.992 
L 57.6 151.68 
L 57.6 154.368 
L 57.6 157.056 
L 57.6 159.744 
L 57.6 162.432 
L 57.6 165.12 
L 57.6 167.808 
L 57.6 170.496 
L 57.6 170.747095 
L 61.207273 171.685546 
L 64.814545 172.796437 
L 65.90357 173.184 
L 68.421818 174.081279 
L 72.029091 175.539395 
L 72.764555 175.872 
L 75.636364 177.172325 
L 78.407333 178.56 
L 79.243636 178.979327 
L 82.850909 180.961762 
L 83.329749 181.248 
L 86.458182 183.120415 
L 87.719183 183.936 
L 90.065455 185.455402 
L 91.744578 186.624 
L 93.672727 187.967591 
L 95.476531 189.312 
L 97.28 190.657854 
L 98.968526 192 
L 100.887273 193.527072 
L 102.261825 194.688 
L 104.494545 196.576128 
L 105.388764 197.376 
L 108.101818 199.805915 
L 108.375046 200.064 
L 111.216897 202.752 
L 111.709091 203.218167 
L 113.939254 205.44 
L 115.316364 206.813747 
L 116.571843 208.128 
L 118.923636 210.593102 
L 119.126724 210.816 
L 121.572292 213.504 
L 122.530909 214.559061 
L 123.950639 216.192 
L 126.138182 218.711384 
L 126.278534 218.88 
L 128.512628 221.568 
L 129.745455 223.053306 
L 130.704023 224.256 
L 132.843395 226.944 
L 133.352727 227.584889 
L 134.917347 229.632 
L 136.96 232.30816 
L 136.968704 232.32 
L 138.941591 235.008 
L 140.567273 237.225951 
L 140.89953 237.696 
L 142.796622 240.384 
L 144.174545 242.339143 
L 144.673257 243.072 
L 146.499627 245.76 
L 147.781818 247.649814 
L 148.305324 248.448 
L 150.065556 251.136 
L 151.389091 253.160073 
L 151.809219 253.824 
L 153.507466 256.512 
L 154.996364 258.872056 
L 155.19678 259.2 
L 156.836818 261.888 
L 158.474487 264.576 
L 158.603636 264.788331 
L 160.063709 267.264 
L 161.646653 269.952 
L 162.210909 270.911705 
L 163.197069 272.64 
L 164.728436 275.328 
L 165.818182 277.243798 
L 166.244825 278.016 
L 167.7275 280.704 
L 169.207927 283.392 
L 169.425455 283.787629 
L 170.650673 286.08 
L 172.085099 288.768 
L 173.032727 290.546634 
L 173.504055 291.456 
L 174.894919 294.144 
L 176.283612 296.832 
L 176.64 297.523009 
L 177.642668 299.52 
L 178.99009 302.208 
L 180.247273 304.719986 
L 180.333088 304.896 
L 181.641323 307.584 
z
" clip-path="url(#p595e6e1bf5)" style="fill: #73d056; fill-opacity: 0.75"/>
   </g>
   <g id="PathCollection_7">
    <path d="M 61.207273 307.584 
L 64.814545 307.584 
L 68.421818 307.584 
L 72.029091 307.584 
L 75.636364 307.584 
L 79.243636 307.584 
L 82.850909 307.584 
L 86.458182 307.584 
L 90.065455 307.584 
L 93.672727 307.584 
L 97.28 307.584 
L 100.887273 307.584 
L 104.494545 307.584 
L 108.101818 307.584 
L 111.709091 307.584 
L 115.316364 307.584 
L 118.923636 307.584 
L 122.530909 307.584 
L 126.138182 307.584 
L 129.745455 307.584 
L 133.352727 307.584 
L 136.96 307.584 
L 140.567273 307.584 
L 144.174545 307.584 
L 147.781818 307.584 
L 151.389091 307.584 
L 154.996364 307.584 
L 158.603636 307.584 
L 162.210909 307.584 
L 165.818182 307.584 
L 169.425455 307.584 
L 173.032727 307.584 
L 176.64 307.584 
L 180.247273 307.584 
L 181.641323 307.584 
L 180.333088 304.896 
L 180.247273 304.719986 
L 178.99009 302.208 
L 177.642668 299.52 
L 176.64 297.523009 
L 176.283612 296.832 
L 174.894919 294.144 
L 173.504055 291.456 
L 173.032727 290.546634 
L 172.085099 288.768 
L 170.650673 286.08 
L 169.425455 283.787629 
L 169.207927 283.392 
L 167.7275 280.704 
L 166.244825 278.016 
L 165.818182 277.243798 
L 164.728436 275.328 
L 163.197069 272.64 
L 162.210909 270.911705 
L 161.646653 269.952 
L 160.063709 267.264 
L 158.603636 264.788331 
L 158.474487 264.576 
L 156.836818 261.888 
L 155.19678 259.2 
L 154.996364 258.872056 
L 153.507466 256.512 
L 151.809219 253.824 
L 151.389091 253.160073 
L 150.065556 251.136 
L 148.305324 248.448 
L 147.781818 247.649814 
L 146.499627 245.76 
L 144.673257 243.072 
L 144.174545 242.339143 
L 142.796622 240.384 
L 140.89953 237.696 
L 140.567273 237.225951 
L 138.941591 235.008 
L 136.968704 232.32 
L 136.96 232.30816 
L 134.917347 229.632 
L 133.352727 227.584889 
L 132.843395 226.944 
L 130.704023 224.256 
L 129.745455 223.053306 
L 128.512628 221.568 
L 126.278534 218.88 
L 126.138182 218.711384 
L 123.950639 216.192 
L 122.530909 214.559061 
L 121.572292 213.504 
L 119.126724 210.816 
L 118.923636 210.593102 
L 116.571843 208.128 
L 115.316364 206.813747 
L 113.939254 205.44 
L 111.709091 203.218167 
L 111.216897 202.752 
L 108.375046 200.064 
L 108.101818 199.805915 
L 105.388764 197.376 
L 104.494545 196.576128 
L 102.261825 194.688 
L 100.887273 193.527072 
L 98.968526 192 
L 97.28 190.657854 
L 95.476531 189.312 
L 93.672727 187.967591 
L 91.744578 186.624 
L 90.065455 185.455402 
L 87.719183 183.936 
L 86.458182 183.120415 
L 83.329749 181.248 
L 82.850909 180.961762 
L 79.243636 178.979327 
L 78.407333 178.56 
L 75.636364 177.172325 
L 72.764555 175.872 
L 72.029091 175.539395 
L 68.421818 174.081279 
L 65.90357 173.184 
L 64.814545 172.796437 
L 61.207273 171.685546 
L 57.6 170.747095 
L 57.6 173.184 
L 57.6 175.872 
L 57.6 178.56 
L 57.6 181.248 
L 57.6 183.936 
L 57.6 186.624 
L 57.6 189.312 
L 57.6 192 
L 57.6 194.688 
L 57.6 197.376 
L 57.6 200.064 
L 57.6 202.752 
L 57.6 205.44 
L 57.6 208.128 
L 57.6 210.816 
L 57.6 213.504 
L 57.6 216.192 
L 57.6 218.88 
L 57.6 221.568 
L 57.6 224.256 
L 57.6 226.944 
L 57.6 229.632 
L 57.6 232.32 
L 57.6 235.008 
L 57.6 237.696 
L 57.6 240.384 
L 57.6 243.072 
L 57.6 245.76 
L 57.6 248.448 
L 57.6 251.136 
L 57.6 253.824 
L 57.6 256.512 
L 57.6 259.2 
L 57.6 261.888 
L 57.6 264.576 
L 57.6 267.264 
L 57.6 269.952 
L 57.6 272.64 
L 57.6 275.328 
L 57.6 278.016 
L 57.6 280.704 
L 57.6 283.392 
L 57.6 286.08 
L 57.6 288.768 
L 57.6 291.456 
L 57.6 294.144 
L 57.6 296.832 
L 57.6 299.52 
L 57.6 302.208 
L 57.6 304.896 
L 57.6 307.584 
z
" clip-path="url(#p595e6e1bf5)" style="fill: #d0e11c; fill-opacity: 0.75"/>
   </g>
   <g id="matplotlib.axis_1">
    <g id="xtick_1">
     <g id="line2d_1">
      <defs>
       <path id="m717eb9e01d" d="M 0 0 
L 0 3.5 
" style="stroke: #000000; stroke-width: 0.8"/>
      </defs>
      <g>
       <use xlink:href="#m717eb9e01d" x="117.804183" y="307.584" style="stroke: #000000; stroke-width: 0.8"/>
      </g>
     </g>
     <g id="text_1">
      <!-- 5 -->
      <g transform="translate(114.622933 322.182437) scale(0.1 -0.1)">
       <defs>
        <path id="DejaVuSans-35" d="M 691 4666 
L 3169 4666 
L 3169 4134 
L 1269 4134 
L 1269 2991 
Q 1406 3038 1543 3061 
Q 1681 3084 1819 3084 
Q 2600 3084 3056 2656 
Q 3513 2228 3513 1497 
Q 3513 744 3044 326 
Q 2575 -91 1722 -91 
Q 1428 -91 1123 -41 
Q 819 9 494 109 
L 494 744 
Q 775 591 1075 516 
Q 1375 441 1709 441 
Q 2250 441 2565 725 
Q 2881 1009 2881 1497 
Q 2881 1984 2565 2268 
Q 2250 2553 1709 2553 
Q 1456 2553 1204 2497 
Q 953 2441 691 2322 
L 691 4666 
z
" transform="scale(0.015625)"/>
       </defs>
       <use xlink:href="#DejaVuSans-35"/>
      </g>
     </g>
    </g>
    <g id="xtick_2">
     <g id="line2d_2">
      <g>
       <use xlink:href="#m717eb9e01d" x="191.10949" y="307.584" style="stroke: #000000; stroke-width: 0.8"/>
      </g>
     </g>
     <g id="text_2">
      <!-- 10 -->
      <g transform="translate(184.74699 322.182437) scale(0.1 -0.1)">
       <defs>
        <path id="DejaVuSans-31" d="M 794 531 
L 1825 531 
L 1825 4091 
L 703 3866 
L 703 4441 
L 1819 4666 
L 2450 4666 
L 2450 531 
L 3481 531 
L 3481 0 
L 794 0 
L 794 531 
z
" transform="scale(0.015625)"/>
        <path id="DejaVuSans-30" d="M 2034 4250 
Q 1547 4250 1301 3770 
Q 1056 3291 1056 2328 
Q 1056 1369 1301 889 
Q 1547 409 2034 409 
Q 2525 409 2770 889 
Q 3016 1369 3016 2328 
Q 3016 3291 2770 3770 
Q 2525 4250 2034 4250 
z
M 2034 4750 
Q 2819 4750 3233 4129 
Q 3647 3509 3647 2328 
Q 3647 1150 3233 529 
Q 2819 -91 2034 -91 
Q 1250 -91 836 529 
Q 422 1150 422 2328 
Q 422 3509 836 4129 
Q 1250 4750 2034 4750 
z
" transform="scale(0.015625)"/>
       </defs>
       <use xlink:href="#DejaVuSans-31"/>
       <use xlink:href="#DejaVuSans-30" x="63.623047"/>
      </g>
     </g>
    </g>
    <g id="xtick_3">
     <g id="line2d_3">
      <g>
       <use xlink:href="#m717eb9e01d" x="264.414798" y="307.584" style="stroke: #000000; stroke-width: 0.8"/>
      </g>
     </g>
     <g id="text_3">
      <!-- 15 -->
      <g transform="translate(258.052298 322.182437) scale(0.1 -0.1)">
       <use xlink:href="#DejaVuSans-31"/>
       <use xlink:href="#DejaVuSans-35" x="63.623047"/>
      </g>
     </g>
    </g>
    <g id="xtick_4">
     <g id="line2d_4">
      <g>
       <use xlink:href="#m717eb9e01d" x="337.720105" y="307.584" style="stroke: #000000; stroke-width: 0.8"/>
      </g>
     </g>
     <g id="text_4">
      <!-- 20 -->
      <g transform="translate(331.357605 322.182437) scale(0.1 -0.1)">
       <defs>
        <path id="DejaVuSans-32" d="M 1228 531 
L 3431 531 
L 3431 0 
L 469 0 
L 469 531 
Q 828 903 1448 1529 
Q 2069 2156 2228 2338 
Q 2531 2678 2651 2914 
Q 2772 3150 2772 3378 
Q 2772 3750 2511 3984 
Q 2250 4219 1831 4219 
Q 1534 4219 1204 4116 
Q 875 4013 500 3803 
L 500 4441 
Q 881 4594 1212 4672 
Q 1544 4750 1819 4750 
Q 2544 4750 2975 4387 
Q 3406 4025 3406 3419 
Q 3406 3131 3298 2873 
Q 3191 2616 2906 2266 
Q 2828 2175 2409 1742 
Q 1991 1309 1228 531 
z
" transform="scale(0.015625)"/>
       </defs>
       <use xlink:href="#DejaVuSans-32"/>
       <use xlink:href="#DejaVuSans-30" x="63.623047"/>
      </g>
     </g>
    </g>
    <g id="xtick_5">
     <g id="line2d_5">
      <g>
       <use xlink:href="#m717eb9e01d" x="411.025413" y="307.584" style="stroke: #000000; stroke-width: 0.8"/>
      </g>
     </g>
     <g id="text_5">
      <!-- 25 -->
      <g transform="translate(404.662913 322.182437) scale(0.1 -0.1)">
       <use xlink:href="#DejaVuSans-32"/>
       <use xlink:href="#DejaVuSans-35" x="63.623047"/>
      </g>
     </g>
    </g>
    <g id="text_6">
     <!-- GHG Emissions -->
     <g transform="translate(198.212344 335.860562) scale(0.1 -0.1)">
      <defs>
       <path id="DejaVuSans-47" d="M 3809 666 
L 3809 1919 
L 2778 1919 
L 2778 2438 
L 4434 2438 
L 4434 434 
Q 4069 175 3628 42 
Q 3188 -91 2688 -91 
Q 1594 -91 976 548 
Q 359 1188 359 2328 
Q 359 3472 976 4111 
Q 1594 4750 2688 4750 
Q 3144 4750 3555 4637 
Q 3966 4525 4313 4306 
L 4313 3634 
Q 3963 3931 3569 4081 
Q 3175 4231 2741 4231 
Q 1884 4231 1454 3753 
Q 1025 3275 1025 2328 
Q 1025 1384 1454 906 
Q 1884 428 2741 428 
Q 3075 428 3337 486 
Q 3600 544 3809 666 
z
" transform="scale(0.015625)"/>
       <path id="DejaVuSans-48" d="M 628 4666 
L 1259 4666 
L 1259 2753 
L 3553 2753 
L 3553 4666 
L 4184 4666 
L 4184 0 
L 3553 0 
L 3553 2222 
L 1259 2222 
L 1259 0 
L 628 0 
L 628 4666 
z
" transform="scale(0.015625)"/>
       <path id="DejaVuSans-20" transform="scale(0.015625)"/>
       <path id="DejaVuSans-45" d="M 628 4666 
L 3578 4666 
L 3578 4134 
L 1259 4134 
L 1259 2753 
L 3481 2753 
L 3481 2222 
L 1259 2222 
L 1259 531 
L 3634 531 
L 3634 0 
L 628 0 
L 628 4666 
z
" transform="scale(0.015625)"/>
       <path id="DejaVuSans-6d" d="M 3328 2828 
Q 3544 3216 3844 3400 
Q 4144 3584 4550 3584 
Q 5097 3584 5394 3201 
Q 5691 2819 5691 2113 
L 5691 0 
L 5113 0 
L 5113 2094 
Q 5113 2597 4934 2840 
Q 4756 3084 4391 3084 
Q 3944 3084 3684 2787 
Q 3425 2491 3425 1978 
L 3425 0 
L 2847 0 
L 2847 2094 
Q 2847 2600 2669 2842 
Q 2491 3084 2119 3084 
Q 1678 3084 1418 2786 
Q 1159 2488 1159 1978 
L 1159 0 
L 581 0 
L 581 3500 
L 1159 3500 
L 1159 2956 
Q 1356 3278 1631 3431 
Q 1906 3584 2284 3584 
Q 2666 3584 2933 3390 
Q 3200 3197 3328 2828 
z
" transform="scale(0.015625)"/>
       <path id="DejaVuSans-69" d="M 603 3500 
L 1178 3500 
L 1178 0 
L 603 0 
L 603 3500 
z
M 603 4863 
L 1178 4863 
L 1178 4134 
L 603 4134 
L 603 4863 
z
" transform="scale(0.015625)"/>
       <path id="DejaVuSans-73" d="M 2834 3397 
L 2834 2853 
Q 2591 2978 2328 3040 
Q 2066 3103 1784 3103 
Q 1356 3103 1142 2972 
Q 928 2841 928 2578 
Q 928 2378 1081 2264 
Q 1234 2150 1697 2047 
L 1894 2003 
Q 2506 1872 2764 1633 
Q 3022 1394 3022 966 
Q 3022 478 2636 193 
Q 2250 -91 1575 -91 
Q 1294 -91 989 -36 
Q 684 19 347 128 
L 347 722 
Q 666 556 975 473 
Q 1284 391 1588 391 
Q 1994 391 2212 530 
Q 2431 669 2431 922 
Q 2431 1156 2273 1281 
Q 2116 1406 1581 1522 
L 1381 1569 
Q 847 1681 609 1914 
Q 372 2147 372 2553 
Q 372 3047 722 3315 
Q 1072 3584 1716 3584 
Q 2034 3584 2315 3537 
Q 2597 3491 2834 3397 
z
" transform="scale(0.015625)"/>
       <path id="DejaVuSans-6f" d="M 1959 3097 
Q 1497 3097 1228 2736 
Q 959 2375 959 1747 
Q 959 1119 1226 758 
Q 1494 397 1959 397 
Q 2419 397 2687 759 
Q 2956 1122 2956 1747 
Q 2956 2369 2687 2733 
Q 2419 3097 1959 3097 
z
M 1959 3584 
Q 2709 3584 3137 3096 
Q 3566 2609 3566 1747 
Q 3566 888 3137 398 
Q 2709 -91 1959 -91 
Q 1206 -91 779 398 
Q 353 888 353 1747 
Q 353 2609 779 3096 
Q 1206 3584 1959 3584 
z
" transform="scale(0.015625)"/>
       <path id="DejaVuSans-6e" d="M 3513 2113 
L 3513 0 
L 2938 0 
L 2938 2094 
Q 2938 2591 2744 2837 
Q 2550 3084 2163 3084 
Q 1697 3084 1428 2787 
Q 1159 2491 1159 1978 
L 1159 0 
L 581 0 
L 581 3500 
L 1159 3500 
L 1159 2956 
Q 1366 3272 1645 3428 
Q 1925 3584 2291 3584 
Q 2894 3584 3203 3211 
Q 3513 2838 3513 2113 
z
" transform="scale(0.015625)"/>
      </defs>
      <use xlink:href="#DejaVuSans-47"/>
      <use xlink:href="#DejaVuSans-48" x="77.490234"/>
      <use xlink:href="#DejaVuSans-47" x="152.685547"/>
      <use xlink:href="#DejaVuSans-20" x="230.175781"/>
      <use xlink:href="#DejaVuSans-45" x="261.962891"/>
      <use xlink:href="#DejaVuSans-6d" x="325.146484"/>
      <use xlink:href="#DejaVuSans-69" x="422.558594"/>
      <use xlink:href="#DejaVuSans-73" x="450.341797"/>
      <use xlink:href="#DejaVuSans-73" x="502.441406"/>
      <use xlink:href="#DejaVuSans-69" x="554.541016"/>
      <use xlink:href="#DejaVuSans-6f" x="582.324219"/>
      <use xlink:href="#DejaVuSans-6e" x="643.505859"/>
      <use xlink:href="#DejaVuSans-73" x="706.884766"/>
     </g>
    </g>
   </g>
   <g id="matplotlib.axis_2">
    <g id="ytick_1">
     <g id="line2d_6">
      <defs>
       <path id="m623d54d413" d="M 0 0 
L -3.5 0 
" style="stroke: #000000; stroke-width: 0.8"/>
      </defs>
      <g>
       <use xlink:href="#m623d54d413" x="57.6" y="307.584" style="stroke: #000000; stroke-width: 0.8"/>
      </g>
     </g>
     <g id="text_7">
      <!-- 0 -->
      <g transform="translate(44.2375 311.383219) scale(0.1 -0.1)">
       <use xlink:href="#DejaVuSans-30"/>
      </g>
     </g>
    </g>
    <g id="ytick_2">
     <g id="line2d_7">
      <g>
       <use xlink:href="#m623d54d413" x="57.6" y="261.002523" style="stroke: #000000; stroke-width: 0.8"/>
      </g>
     </g>
     <g id="text_8">
      <!-- 1 -->
      <g transform="translate(44.2375 264.801742) scale(0.1 -0.1)">
       <use xlink:href="#DejaVuSans-31"/>
      </g>
     </g>
    </g>
    <g id="ytick_3">
     <g id="line2d_8">
      <g>
       <use xlink:href="#m623d54d413" x="57.6" y="214.421047" style="stroke: #000000; stroke-width: 0.8"/>
      </g>
     </g>
     <g id="text_9">
      <!-- 2 -->
      <g transform="translate(44.2375 218.220265) scale(0.1 -0.1)">
       <use xlink:href="#DejaVuSans-32"/>
      </g>
     </g>
    </g>
    <g id="ytick_4">
     <g id="line2d_9">
      <g>
       <use xlink:href="#m623d54d413" x="57.6" y="167.83957" style="stroke: #000000; stroke-width: 0.8"/>
      </g>
     </g>
     <g id="text_10">
      <!-- 3 -->
      <g transform="translate(44.2375 171.638789) scale(0.1 -0.1)">
       <defs>
        <path id="DejaVuSans-33" d="M 2597 2516 
Q 3050 2419 3304 2112 
Q 3559 1806 3559 1356 
Q 3559 666 3084 287 
Q 2609 -91 1734 -91 
Q 1441 -91 1130 -33 
Q 819 25 488 141 
L 488 750 
Q 750 597 1062 519 
Q 1375 441 1716 441 
Q 2309 441 2620 675 
Q 2931 909 2931 1356 
Q 2931 1769 2642 2001 
Q 2353 2234 1838 2234 
L 1294 2234 
L 1294 2753 
L 1863 2753 
Q 2328 2753 2575 2939 
Q 2822 3125 2822 3475 
Q 2822 3834 2567 4026 
Q 2313 4219 1838 4219 
Q 1578 4219 1281 4162 
Q 984 4106 628 3988 
L 628 4550 
Q 988 4650 1302 4700 
Q 1616 4750 1894 4750 
Q 2613 4750 3031 4423 
Q 3450 4097 3450 3541 
Q 3450 3153 3228 2886 
Q 3006 2619 2597 2516 
z
" transform="scale(0.015625)"/>
       </defs>
       <use xlink:href="#DejaVuSans-33"/>
      </g>
     </g>
    </g>
    <g id="ytick_5">
     <g id="line2d_10">
      <g>
       <use xlink:href="#m623d54d413" x="57.6" y="121.258093" style="stroke: #000000; stroke-width: 0.8"/>
      </g>
     </g>
     <g id="text_11">
      <!-- 4 -->
      <g transform="translate(44.2375 125.057312) scale(0.1 -0.1)">
       <defs>
        <path id="DejaVuSans-34" d="M 2419 4116 
L 825 1625 
L 2419 1625 
L 2419 4116 
z
M 2253 4666 
L 3047 4666 
L 3047 1625 
L 3713 1625 
L 3713 1100 
L 3047 1100 
L 3047 0 
L 2419 0 
L 2419 1100 
L 313 1100 
L 313 1709 
L 2253 4666 
z
" transform="scale(0.015625)"/>
       </defs>
       <use xlink:href="#DejaVuSans-34"/>
      </g>
     </g>
    </g>
    <g id="ytick_6">
     <g id="line2d_11">
      <g>
       <use xlink:href="#m623d54d413" x="57.6" y="74.676617" style="stroke: #000000; stroke-width: 0.8"/>
      </g>
     </g>
     <g id="text_12">
      <!-- 5 -->
      <g transform="translate(44.2375 78.475836) scale(0.1 -0.1)">
       <use xlink:href="#DejaVuSans-35"/>
      </g>
     </g>
    </g>
    <g id="text_13">
     <!-- Other Meat Consumption -->
     <g transform="translate(38.157812 237.432687) rotate(-90) scale(0.1 -0.1)">
      <defs>
       <path id="DejaVuSans-4f" d="M 2522 4238 
Q 1834 4238 1429 3725 
Q 1025 3213 1025 2328 
Q 1025 1447 1429 934 
Q 1834 422 2522 422 
Q 3209 422 3611 934 
Q 4013 1447 4013 2328 
Q 4013 3213 3611 3725 
Q 3209 4238 2522 4238 
z
M 2522 4750 
Q 3503 4750 4090 4092 
Q 4678 3434 4678 2328 
Q 4678 1225 4090 567 
Q 3503 -91 2522 -91 
Q 1538 -91 948 565 
Q 359 1222 359 2328 
Q 359 3434 948 4092 
Q 1538 4750 2522 4750 
z
" transform="scale(0.015625)"/>
       <path id="DejaVuSans-74" d="M 1172 4494 
L 1172 3500 
L 2356 3500 
L 2356 3053 
L 1172 3053 
L 1172 1153 
Q 1172 725 1289 603 
Q 1406 481 1766 481 
L 2356 481 
L 2356 0 
L 1766 0 
Q 1100 0 847 248 
Q 594 497 594 1153 
L 594 3053 
L 172 3053 
L 172 3500 
L 594 3500 
L 594 4494 
L 1172 4494 
z
" transform="scale(0.015625)"/>
       <path id="DejaVuSans-68" d="M 3513 2113 
L 3513 0 
L 2938 0 
L 2938 2094 
Q 2938 2591 2744 2837 
Q 2550 3084 2163 3084 
Q 1697 3084 1428 2787 
Q 1159 2491 1159 1978 
L 1159 0 
L 581 0 
L 581 4863 
L 1159 4863 
L 1159 2956 
Q 1366 3272 1645 3428 
Q 1925 3584 2291 3584 
Q 2894 3584 3203 3211 
Q 3513 2838 3513 2113 
z
" transform="scale(0.015625)"/>
       <path id="DejaVuSans-65" d="M 3597 1894 
L 3597 1613 
L 953 1613 
Q 991 1019 1311 708 
Q 1631 397 2203 397 
Q 2534 397 2845 478 
Q 3156 559 3463 722 
L 3463 178 
Q 3153 47 2828 -22 
Q 2503 -91 2169 -91 
Q 1331 -91 842 396 
Q 353 884 353 1716 
Q 353 2575 817 3079 
Q 1281 3584 2069 3584 
Q 2775 3584 3186 3129 
Q 3597 2675 3597 1894 
z
M 3022 2063 
Q 3016 2534 2758 2815 
Q 2500 3097 2075 3097 
Q 1594 3097 1305 2825 
Q 1016 2553 972 2059 
L 3022 2063 
z
" transform="scale(0.015625)"/>
       <path id="DejaVuSans-72" d="M 2631 2963 
Q 2534 3019 2420 3045 
Q 2306 3072 2169 3072 
Q 1681 3072 1420 2755 
Q 1159 2438 1159 1844 
L 1159 0 
L 581 0 
L 581 3500 
L 1159 3500 
L 1159 2956 
Q 1341 3275 1631 3429 
Q 1922 3584 2338 3584 
Q 2397 3584 2469 3576 
Q 2541 3569 2628 3553 
L 2631 2963 
z
" transform="scale(0.015625)"/>
       <path id="DejaVuSans-4d" d="M 628 4666 
L 1569 4666 
L 2759 1491 
L 3956 4666 
L 4897 4666 
L 4897 0 
L 4281 0 
L 4281 4097 
L 3078 897 
L 2444 897 
L 1241 4097 
L 1241 0 
L 628 0 
L 628 4666 
z
" transform="scale(0.015625)"/>
       <path id="DejaVuSans-61" d="M 2194 1759 
Q 1497 1759 1228 1600 
Q 959 1441 959 1056 
Q 959 750 1161 570 
Q 1363 391 1709 391 
Q 2188 391 2477 730 
Q 2766 1069 2766 1631 
L 2766 1759 
L 2194 1759 
z
M 3341 1997 
L 3341 0 
L 2766 0 
L 2766 531 
Q 2569 213 2275 61 
Q 1981 -91 1556 -91 
Q 1019 -91 701 211 
Q 384 513 384 1019 
Q 384 1609 779 1909 
Q 1175 2209 1959 2209 
L 2766 2209 
L 2766 2266 
Q 2766 2663 2505 2880 
Q 2244 3097 1772 3097 
Q 1472 3097 1187 3025 
Q 903 2953 641 2809 
L 641 3341 
Q 956 3463 1253 3523 
Q 1550 3584 1831 3584 
Q 2591 3584 2966 3190 
Q 3341 2797 3341 1997 
z
" transform="scale(0.015625)"/>
       <path id="DejaVuSans-43" d="M 4122 4306 
L 4122 3641 
Q 3803 3938 3442 4084 
Q 3081 4231 2675 4231 
Q 1875 4231 1450 3742 
Q 1025 3253 1025 2328 
Q 1025 1406 1450 917 
Q 1875 428 2675 428 
Q 3081 428 3442 575 
Q 3803 722 4122 1019 
L 4122 359 
Q 3791 134 3420 21 
Q 3050 -91 2638 -91 
Q 1578 -91 968 557 
Q 359 1206 359 2328 
Q 359 3453 968 4101 
Q 1578 4750 2638 4750 
Q 3056 4750 3426 4639 
Q 3797 4528 4122 4306 
z
" transform="scale(0.015625)"/>
       <path id="DejaVuSans-75" d="M 544 1381 
L 544 3500 
L 1119 3500 
L 1119 1403 
Q 1119 906 1312 657 
Q 1506 409 1894 409 
Q 2359 409 2629 706 
Q 2900 1003 2900 1516 
L 2900 3500 
L 3475 3500 
L 3475 0 
L 2900 0 
L 2900 538 
Q 2691 219 2414 64 
Q 2138 -91 1772 -91 
Q 1169 -91 856 284 
Q 544 659 544 1381 
z
M 1991 3584 
L 1991 3584 
z
" transform="scale(0.015625)"/>
       <path id="DejaVuSans-70" d="M 1159 525 
L 1159 -1331 
L 581 -1331 
L 581 3500 
L 1159 3500 
L 1159 2969 
Q 1341 3281 1617 3432 
Q 1894 3584 2278 3584 
Q 2916 3584 3314 3078 
Q 3713 2572 3713 1747 
Q 3713 922 3314 415 
Q 2916 -91 2278 -91 
Q 1894 -91 1617 61 
Q 1341 213 1159 525 
z
M 3116 1747 
Q 3116 2381 2855 2742 
Q 2594 3103 2138 3103 
Q 1681 3103 1420 2742 
Q 1159 2381 1159 1747 
Q 1159 1113 1420 752 
Q 1681 391 2138 391 
Q 2594 391 2855 752 
Q 3116 1113 3116 1747 
z
" transform="scale(0.015625)"/>
      </defs>
      <use xlink:href="#DejaVuSans-4f"/>
      <use xlink:href="#DejaVuSans-74" x="78.710938"/>
      <use xlink:href="#DejaVuSans-68" x="117.919922"/>
      <use xlink:href="#DejaVuSans-65" x="181.298828"/>
      <use xlink:href="#DejaVuSans-72" x="242.822266"/>
      <use xlink:href="#DejaVuSans-20" x="283.935547"/>
      <use xlink:href="#DejaVuSans-4d" x="315.722656"/>
      <use xlink:href="#DejaVuSans-65" x="402.001953"/>
      <use xlink:href="#DejaVuSans-61" x="463.525391"/>
      <use xlink:href="#DejaVuSans-74" x="524.804688"/>
      <use xlink:href="#DejaVuSans-20" x="564.013672"/>
      <use xlink:href="#DejaVuSans-43" x="595.800781"/>
      <use xlink:href="#DejaVuSans-6f" x="665.625"/>
      <use xlink:href="#DejaVuSans-6e" x="726.806641"/>
      <use xlink:href="#DejaVuSans-73" x="790.185547"/>
      <use xlink:href="#DejaVuSans-75" x="842.285156"/>
      <use xlink:href="#DejaVuSans-6d" x="905.664062"/>
      <use xlink:href="#DejaVuSans-70" x="1003.076172"/>
      <use xlink:href="#DejaVuSans-74" x="1066.552734"/>
      <use xlink:href="#DejaVuSans-69" x="1105.761719"/>
      <use xlink:href="#DejaVuSans-6f" x="1133.544922"/>
      <use xlink:href="#DejaVuSans-6e" x="1194.726562"/>
     </g>
    </g>
   </g>
   <g id="PathCollection_8"/>
   <g id="PathCollection_9">
    <path d="M 414.72 163.290877 
L 414.544295 162.432 
L 413.993519 159.744 
L 413.441866 157.056 
L 412.889336 154.368 
L 412.335929 151.68 
L 411.781646 148.992 
L 411.226486 146.304 
L 411.112727 145.754068 
L 410.666223 143.616 
L 410.10399 140.928 
L 409.540872 138.24 
L 409.278346 136.988817 
" clip-path="url(#p595e6e1bf5)" style="fill: none; stroke: #000000; stroke-width: 0.5"/>
    <path d="M 401.760228 101.874753 
L 401.483732 100.608 
L 400.89612 97.92 
L 400.307607 95.232 
L 400.290909 95.155849 
L 399.71255 92.544 
L 399.116421 89.856 
L 398.519383 87.168 
L 397.921437 84.48 
L 397.322583 81.792 
L 396.72282 79.104 
L 396.683636 78.928653 
L 396.116557 76.416 
L 395.508988 73.728 
L 394.900502 71.04 
L 394.2911 68.352 
L 393.680781 65.664 
L 393.076364 63.005984 
L 393.069477 62.976 
L 392.451164 60.288 
L 391.831926 57.6 
L 391.211763 54.912 
L 390.590675 52.224 
L 389.968663 49.536 
L 389.469091 47.380326 
L 389.34447 46.848 
L 388.714261 44.16 
L 388.08312 41.472 
" clip-path="url(#p595e6e1bf5)" style="fill: none; stroke: #000000; stroke-width: 0.5"/>
   </g>
   <g id="PathCollection_10">
    <path d="M 405.002125 307.584 
L 404.489682 304.896 
L 403.976335 302.208 
L 403.898182 301.7995 
L 403.457803 299.52 
L 402.937592 296.832 
L 402.416471 294.144 
L 401.894438 291.456 
L 401.371494 288.768 
L 400.847639 286.08 
L 400.322873 283.392 
L 400.290909 283.228558 
L 400.085169 282.18686 
" clip-path="url(#p595e6e1bf5)" style="fill: none; stroke: #000000; stroke-width: 0.5"/>
    <path d="M 393.016365 246.97956 
L 392.76509 245.76 
L 392.210321 243.072 
L 391.654617 240.384 
L 391.097977 237.696 
L 390.540402 235.008 
L 389.981891 232.32 
L 389.469091 229.85613 
L 389.421966 229.632 
L 388.855845 226.944 
L 388.288779 224.256 
L 387.72077 221.568 
L 387.151816 218.88 
L 386.581918 216.192 
L 386.011076 213.504 
L 385.861818 212.802337 
L 385.434916 210.816 
L 384.856258 208.128 
L 384.276646 205.44 
L 383.696083 202.752 
L 383.114566 200.064 
L 382.532097 197.376 
L 382.254545 196.097249 
L 381.945473 194.688 
L 381.354983 192 
L 380.763531 189.312 
L 380.171118 186.624 
L 379.577744 183.936 
L 378.983408 181.248 
L 378.647273 179.730231 
L 378.385367 178.56 
L 377.7828 175.872 
L 377.179261 173.184 
L 376.574752 170.496 
L 375.969273 167.808 
L 375.362823 165.12 
L 375.04 163.691428 
L 374.752358 162.432 
L 374.137459 159.744 
L 373.52158 157.056 
L 372.904721 154.368 
L 372.286883 151.68 
L 371.668066 148.992 
L 371.432727 147.971369 
L 371.044109 146.304 
L 370.416616 143.616 
L 369.788135 140.928 
L 369.158665 138.24 
L 368.528206 135.552 
L 367.896758 132.864 
L 367.825455 132.560949 
L 367.258181 130.176 
L 366.617826 127.488 
L 365.976472 124.8 
L 365.33412 122.112 
L 364.69077 119.424 
L 364.218182 117.452534 
L 364.04452 116.736 
L 363.392031 114.048 
L 362.738534 111.36 
L 362.08403 108.672 
L 361.428517 105.984 
L 360.771996 103.296 
L 360.610909 102.637477 
L 360.10891 100.608 
L 359.443002 97.92 
L 358.776077 95.232 
L 358.108133 92.544 
L 357.439172 89.856 
L 357.003636 88.108609 
L 356.766538 87.168 
L 356.087942 84.48 
L 355.408319 81.792 
L 354.727668 79.104 
L 354.045989 76.416 
L 353.396364 73.85825 
L 353.362904 73.728 
L 352.671335 71.04 
L 351.978728 68.352 
L 351.285083 65.664 
L 350.590401 62.976 
L 349.89468 60.288 
L 349.789091 59.880656 
L 349.191067 57.6 
L 348.485181 54.912 
L 347.778246 52.224 
L 347.070264 49.536 
L 346.361232 46.848 
L 346.181818 46.168833 
L 345.644926 44.16 
L 344.925456 41.472 
" clip-path="url(#p595e6e1bf5)" style="fill: none; stroke: #000000; stroke-width: 0.5"/>
   </g>
   <g id="PathCollection_11">
    <path d="M 364.017213 307.584 
L 363.437827 304.896 
L 362.857418 302.208 
L 362.275985 299.52 
L 361.69353 296.832 
L 361.110051 294.144 
L 360.610909 291.848559 
L 360.524587 291.456 
L 359.932459 288.768 
L 359.339298 286.08 
L 358.745104 283.392 
L 358.149878 280.704 
L 357.861703 279.404878 
" clip-path="url(#p595e6e1bf5)" style="fill: none; stroke: #000000; stroke-width: 0.5"/>
    <path d="M 349.887807 244.39154 
L 349.789091 243.966123 
L 349.579196 243.072 
L 348.947111 240.384 
L 348.313962 237.696 
L 347.67975 235.008 
L 347.044474 232.32 
L 346.408135 229.632 
L 346.181818 228.677615 
L 345.765872 226.944 
L 345.119858 224.256 
L 344.47277 221.568 
L 343.824608 218.88 
L 343.175372 216.192 
L 342.574545 213.708546 
L 342.524469 213.504 
L 341.865289 210.816 
L 341.205025 208.128 
L 340.543675 205.44 
L 339.88124 202.752 
L 339.21772 200.064 
L 338.967273 199.051081 
L 338.548099 197.376 
L 337.874346 194.688 
L 337.199497 192 
L 336.523553 189.312 
L 335.846511 186.624 
L 335.36 184.695583 
L 335.166024 183.936 
L 334.478461 181.248 
L 333.789791 178.56 
L 333.100014 175.872 
L 332.409128 173.184 
L 331.752727 170.634257 
L 331.716694 170.496 
L 331.014987 167.808 
L 330.312162 165.12 
L 329.608218 162.432 
L 328.903154 159.744 
L 328.196971 157.056 
L 328.145455 156.860223 
L 327.481424 154.368 
L 326.764097 151.68 
L 326.04564 148.992 
L 325.326051 146.304 
L 324.605332 143.616 
L 324.538182 143.365954 
L 323.875144 140.928 
L 323.142958 138.24 
L 322.40963 135.552 
L 321.675158 132.864 
L 320.939543 130.176 
L 320.930909 130.1445 
L 320.193393 127.488 
L 319.445976 124.8 
L 318.697404 122.112 
L 317.947677 119.424 
L 317.323636 117.190079 
L 317.195136 116.736 
L 316.433271 114.048 
L 315.670238 111.36 
L 314.906037 108.672 
L 314.140669 105.984 
L 313.716364 104.496116 
L 313.3696 103.296 
L 312.591732 100.608 
L 311.812683 97.92 
L 311.032453 95.232 
L 310.251044 92.544 
L 310.109091 92.05644 
L 309.459856 89.856 
L 308.66557 87.168 
L 307.87009 84.48 
L 307.073417 81.792 
L 306.501818 79.866308 
L 306.272473 79.104 
L 305.462545 76.416 
L 304.651411 73.728 
L 303.83907 71.04 
L 303.025522 68.352 
L 302.894545 67.919899 
L 302.201339 65.664 
L 301.37413 62.976 
L 300.5457 60.288 
L 299.71605 57.6 
L 299.287273 56.212856 
L 298.879558 54.912 
L 298.035836 52.224 
L 297.190881 49.536 
L 296.344691 46.848 
L 295.68 44.739636 
L 295.494676 44.16 
L 294.633988 41.472 
" clip-path="url(#p595e6e1bf5)" style="fill: none; stroke: #000000; stroke-width: 0.5"/>
   </g>
   <g id="PathCollection_12">
    <path d="M 317.049372 307.584 
L 316.373294 304.896 
L 315.696026 302.208 
L 315.017568 299.52 
L 314.33792 296.832 
L 313.716364 294.378058 
L 313.65629 294.144 
L 312.965152 291.456 
L 312.272811 288.768 
L 311.579268 286.08 
L 310.884521 283.392 
L 310.507565 281.936063 
" clip-path="url(#p595e6e1bf5)" style="fill: none; stroke: #000000; stroke-width: 0.5"/>
    <path d="M 301.214551 247.249693 
L 300.803763 245.76 
L 300.061295 243.072 
L 299.317584 240.384 
L 299.287273 240.274635 
L 298.562548 237.696 
L 297.805826 235.008 
L 297.047847 232.32 
L 296.288609 229.632 
L 295.68 227.480867 
L 295.525942 226.944 
L 294.753292 224.256 
L 293.979371 221.568 
L 293.204177 218.88 
L 292.427711 216.192 
L 292.072727 214.965149 
L 291.643838 213.504 
L 290.853525 210.816 
L 290.061926 208.128 
L 289.269039 205.44 
L 288.474865 202.752 
L 288.465455 202.720201 
L 287.667833 200.064 
L 286.85936 197.376 
L 286.049585 194.688 
L 285.238507 192 
L 284.858182 190.741616 
L 284.419673 189.312 
L 283.593839 186.624 
L 282.766686 183.936 
L 281.938217 181.248 
L 281.250909 179.021567 
L 281.106269 178.56 
L 280.262565 175.872 
L 279.417527 173.184 
L 278.571155 170.496 
L 277.72345 167.808 
L 277.643636 167.555327 
L 276.862574 165.12 
L 275.999119 162.432 
L 275.134314 159.744 
L 274.26816 157.056 
L 274.036364 156.337798 
L 273.390722 154.368 
L 272.508295 151.68 
L 271.624502 148.992 
L 270.739343 146.304 
L 270.429091 145.363331 
L 269.843672 143.616 
L 268.941694 140.928 
L 268.038332 138.24 
L 267.133588 135.552 
L 266.821818 134.627179 
L 266.217879 132.864 
L 265.295743 130.176 
L 264.372207 127.488 
L 263.44727 124.8 
L 263.214545 124.124719 
L 262.509573 122.112 
L 261.566645 119.424 
L 260.622299 116.736 
L 259.676536 114.048 
L 259.607273 113.851449 
L 258.714742 111.36 
L 257.750358 108.672 
L 256.784539 105.984 
L 256 103.803794 
L 255.814192 103.296 
L 254.829111 100.608 
L 253.842577 97.92 
L 252.854588 95.232 
L 252.392727 93.977315 
L 251.856067 92.544 
L 250.848125 89.856 
L 249.83871 87.168 
L 248.827822 84.48 
L 248.785455 84.367514 
L 247.798488 81.792 
L 246.76692 79.104 
L 245.733859 76.416 
L 245.178182 74.972269 
L 244.690781 73.728 
L 243.636296 71.04 
L 242.580299 68.352 
L 241.570909 65.786318 
L 241.521918 65.664 
L 240.443713 62.976 
L 239.363975 60.288 
L 238.282705 57.6 
L 237.963636 56.807966 
L 237.18582 54.912 
L 236.081495 52.224 
L 234.975618 49.536 
L 234.356364 48.032967 
L 233.859021 46.848 
L 232.729219 44.16 
L 231.597843 41.472 
" clip-path="url(#p595e6e1bf5)" style="fill: none; stroke: #000000; stroke-width: 0.5"/>
   </g>
   <g id="PathCollection_13">
    <path d="M 260.19213 307.584 
L 259.607273 305.710865 
L 259.348583 304.896 
L 258.493716 302.208 
L 257.637373 299.52 
L 256.779557 296.832 
L 256 294.393439 
L 255.918902 294.144 
L 255.043411 291.456 
L 254.166426 288.768 
L 253.287947 286.08 
L 252.699133 284.281386 
" clip-path="url(#p595e6e1bf5)" style="fill: none; stroke: #000000; stroke-width: 0.5"/>
    <path d="M 241.051828 250.313668 
L 240.3819 248.448 
L 239.415111 245.76 
L 238.446745 243.072 
L 237.963636 241.733222 
L 237.46772 240.384 
L 236.478079 237.696 
L 235.486841 235.008 
L 234.494005 232.32 
L 234.356364 231.94798 
L 233.48329 229.632 
L 232.468339 226.944 
L 231.451767 224.256 
L 230.749091 222.401008 
L 230.427467 221.568 
L 229.387917 218.88 
L 228.346722 216.192 
L 227.303885 213.504 
L 227.141818 213.086952 
L 226.241996 210.816 
L 225.175243 208.128 
L 224.106822 205.44 
L 223.534545 204.002541 
L 223.026722 202.752 
L 221.933419 200.064 
L 220.838424 197.376 
L 219.927273 195.142789 
L 219.737932 194.688 
L 218.61703 192 
L 217.494411 189.312 
L 216.370077 186.624 
L 216.32 186.504472 
L 215.221514 183.936 
L 214.070161 181.248 
L 212.917066 178.56 
L 212.712727 178.084423 
L 211.741931 175.872 
L 210.560664 173.184 
L 209.37763 170.496 
L 209.105455 169.87856 
L 208.172927 167.808 
L 206.960494 165.12 
L 205.746267 162.432 
L 205.498182 161.883661 
L 204.508685 159.744 
L 203.263755 157.056 
L 202.017003 154.368 
L 201.890909 154.096567 
L 200.742878 151.68 
L 199.464032 148.992 
L 198.283636 146.514537 
L 198.181003 146.304 
L 196.86861 143.616 
L 195.554338 140.928 
L 194.676364 139.134968 
L 194.227755 138.24 
L 192.878353 135.552 
L 191.527043 132.864 
L 191.069091 131.954413 
L 190.152008 130.176 
L 188.763872 127.488 
L 187.461818 124.970226 
L 187.371601 124.8 
L 185.944855 122.112 
L 184.51614 119.424 
L 183.854545 118.181074 
L 183.065789 116.736 
L 181.596515 114.048 
L 180.247273 111.582978 
L 180.122042 111.36 
L 178.610147 108.672 
L 177.096221 105.984 
L 176.64 105.175142 
L 175.551758 103.296 
L 173.992955 100.608 
L 173.032727 98.954469 
L 172.415501 97.92 
L 170.809423 95.232 
L 169.425455 92.918803 
L 169.194887 92.544 
L 167.538937 89.856 
L 165.880858 87.168 
L 165.818182 87.06654 
L 164.174051 84.48 
L 162.463252 81.792 
L 162.210909 81.39608 
L 160.70645 79.104 
L 158.939874 76.416 
L 158.603636 75.905096 
L 157.126821 73.728 
L 155.301138 71.04 
L 154.996364 70.591891 
L 153.424696 68.352 
L 151.536273 65.664 
L 151.389091 65.454789 
L 149.588272 62.976 
L 147.781818 60.492461 
L 147.628081 60.288 
L 145.604189 57.6 
L 144.174545 55.703551 
L 143.557017 54.912 
L 141.457266 52.224 
L 140.567273 51.086106 
L 139.3111 49.536 
L 137.130181 46.848 
L 136.96 46.638527 
L 134.87105 44.16 
L 133.352727 42.360634 
L 132.573773 41.472 
" clip-path="url(#p595e6e1bf5)" style="fill: none; stroke: #000000; stroke-width: 0.5"/>
   </g>
   <g id="PathCollection_14">
    <path d="M 181.641323 307.584 
L 180.333088 304.896 
L 180.247273 304.719986 
L 178.99009 302.208 
L 177.642668 299.52 
L 176.64 297.523009 
L 176.283612 296.832 
L 174.894919 294.144 
L 173.504055 291.456 
L 173.032727 290.546634 
L 172.085099 288.768 
L 170.931273 286.605822 
" clip-path="url(#p595e6e1bf5)" style="fill: none; stroke: #000000; stroke-width: 0.5"/>
    <path d="M 152.904785 255.558071 
L 151.809219 253.824 
L 151.389091 253.160073 
L 150.065556 251.136 
L 148.305324 248.448 
L 147.781818 247.649814 
L 146.499627 245.76 
L 144.673257 243.072 
L 144.174545 242.339143 
L 142.796622 240.384 
L 140.89953 237.696 
L 140.567273 237.225951 
L 138.941591 235.008 
L 136.968704 232.32 
L 136.96 232.30816 
L 134.917347 229.632 
L 133.352727 227.584889 
L 132.843395 226.944 
L 130.704023 224.256 
L 129.745455 223.053306 
L 128.512628 221.568 
L 126.278534 218.88 
L 126.138182 218.711384 
L 123.950639 216.192 
L 122.530909 214.559061 
L 121.572292 213.504 
L 119.126724 210.816 
L 118.923636 210.593102 
L 116.571843 208.128 
L 115.316364 206.813747 
L 113.939254 205.44 
L 111.709091 203.218167 
L 111.216897 202.752 
L 108.375046 200.064 
L 108.101818 199.805915 
L 105.388764 197.376 
L 104.494545 196.576128 
L 102.261825 194.688 
L 100.887273 193.527072 
L 98.968526 192 
L 97.28 190.657854 
L 95.476531 189.312 
L 93.672727 187.967591 
L 91.744578 186.624 
L 90.065455 185.455402 
L 87.719183 183.936 
L 86.458182 183.120415 
L 83.329749 181.248 
L 82.850909 180.961762 
L 79.243636 178.979327 
L 78.407333 178.56 
L 75.636364 177.172325 
L 72.764555 175.872 
L 72.029091 175.539395 
L 68.421818 174.081279 
L 65.90357 173.184 
L 64.814545 172.796437 
L 61.207273 171.685546 
L 57.6 170.747095 
" clip-path="url(#p595e6e1bf5)" style="fill: none; stroke: #000000; stroke-width: 0.5"/>
   </g>
   <g id="PathCollection_15"/>
   <g id="LineCollection_1">
    <path d="M 67.288029 307.584 
L 67.288029 294.2784 
" clip-path="url(#p595e6e1bf5)" style="fill: none; stroke: #000000; stroke-width: 1.5"/>
    <path d="M 78.078571 307.584 
L 78.078571 294.2784 
" clip-path="url(#p595e6e1bf5)" style="fill: none; stroke: #000000; stroke-width: 1.5"/>
    <path d="M 93.889059 307.584 
L 93.889059 294.2784 
" clip-path="url(#p595e6e1bf5)" style="fill: none; stroke: #000000; stroke-width: 1.5"/>
    <path d="M 108.995817 307.584 
L 108.995817 294.2784 
" clip-path="url(#p595e6e1bf5)" style="fill: none; stroke: #000000; stroke-width: 1.5"/>
    <path d="M 131.732191 307.584 
L 131.732191 294.2784 
" clip-path="url(#p595e6e1bf5)" style="fill: none; stroke: #000000; stroke-width: 1.5"/>
    <path d="M 156.761555 307.584 
L 156.761555 294.2784 
" clip-path="url(#p595e6e1bf5)" style="fill: none; stroke: #000000; stroke-width: 1.5"/>
    <path d="M 184.822827 307.584 
L 184.822827 294.2784 
" clip-path="url(#p595e6e1bf5)" style="fill: none; stroke: #000000; stroke-width: 1.5"/>
    <path d="M 230.928933 307.584 
L 230.928933 294.2784 
" clip-path="url(#p595e6e1bf5)" style="fill: none; stroke: #000000; stroke-width: 1.5"/>
    <path d="M 331.679748 307.584 
L 331.679748 294.2784 
" clip-path="url(#p595e6e1bf5)" style="fill: none; stroke: #000000; stroke-width: 1.5"/>
   </g>
   <g id="LineCollection_2">
    <path d="M 44.498875 307.584 
L 45.231929 307.584 
" clip-path="url(#p595e6e1bf5)" style="fill: none; stroke: #000000; stroke-width: 1.5"/>
    <path d="M 44.498875 296.299919 
L 45.231929 296.299919 
" clip-path="url(#p595e6e1bf5)" style="fill: none; stroke: #000000; stroke-width: 1.5"/>
    <path d="M 44.498875 278.091382 
L 45.231929 278.091382 
" clip-path="url(#p595e6e1bf5)" style="fill: none; stroke: #000000; stroke-width: 1.5"/>
    <path d="M 44.498875 236.172866 
L 45.231929 236.172866 
" clip-path="url(#p595e6e1bf5)" style="fill: none; stroke: #000000; stroke-width: 1.5"/>
    <path d="M 44.498875 178.265351 
L 45.231929 178.265351 
" clip-path="url(#p595e6e1bf5)" style="fill: none; stroke: #000000; stroke-width: 1.5"/>
    <path d="M 44.498875 105.165976 
L 45.231929 105.165976 
" clip-path="url(#p595e6e1bf5)" style="fill: none; stroke: #000000; stroke-width: 1.5"/>
    <path d="M 44.498875 42.228088 
L 45.231929 42.228088 
" clip-path="url(#p595e6e1bf5)" style="fill: none; stroke: #000000; stroke-width: 1.5"/>
    <path clip-path="url(#p595e6e1bf5)" style="fill: none; stroke: #000000; stroke-width: 1.5"/>
    <path clip-path="url(#p595e6e1bf5)" style="fill: none; stroke: #000000; stroke-width: 1.5"/>
   </g>
   <g id="patch_3">
    <path d="M 57.6 307.584 
L 57.6 41.472 
" style="fill: none; stroke: #000000; stroke-width: 0.8; stroke-linejoin: miter; stroke-linecap: square"/>
   </g>
   <g id="patch_4">
    <path d="M 414.72 307.584 
L 414.72 41.472 
" style="fill: none; stroke: #000000; stroke-width: 0.8; stroke-linejoin: miter; stroke-linecap: square"/>
   </g>
   <g id="patch_5">
    <path d="M 57.6 307.584 
L 414.72 307.584 
" style="fill: none; stroke: #000000; stroke-width: 0.8; stroke-linejoin: miter; stroke-linecap: square"/>
   </g>
   <g id="patch_6">
    <path d="M 57.6 41.472 
L 414.72 41.472 
" style="fill: none; stroke: #000000; stroke-width: 0.8; stroke-linejoin: miter; stroke-linecap: square"/>
   </g>
   <g id="text_14">
    <!-- 2D-partial dependency plot between GHG and OM -->
    <g transform="translate(85.39875 35.472) scale(0.12 -0.12)">
     <defs>
      <path id="DejaVuSans-44" d="M 1259 4147 
L 1259 519 
L 2022 519 
Q 2988 519 3436 956 
Q 3884 1394 3884 2338 
Q 3884 3275 3436 3711 
Q 2988 4147 2022 4147 
L 1259 4147 
z
M 628 4666 
L 1925 4666 
Q 3281 4666 3915 4102 
Q 4550 3538 4550 2338 
Q 4550 1131 3912 565 
Q 3275 0 1925 0 
L 628 0 
L 628 4666 
z
" transform="scale(0.015625)"/>
      <path id="DejaVuSans-2d" d="M 313 2009 
L 1997 2009 
L 1997 1497 
L 313 1497 
L 313 2009 
z
" transform="scale(0.015625)"/>
      <path id="DejaVuSans-6c" d="M 603 4863 
L 1178 4863 
L 1178 0 
L 603 0 
L 603 4863 
z
" transform="scale(0.015625)"/>
      <path id="DejaVuSans-64" d="M 2906 2969 
L 2906 4863 
L 3481 4863 
L 3481 0 
L 2906 0 
L 2906 525 
Q 2725 213 2448 61 
Q 2172 -91 1784 -91 
Q 1150 -91 751 415 
Q 353 922 353 1747 
Q 353 2572 751 3078 
Q 1150 3584 1784 3584 
Q 2172 3584 2448 3432 
Q 2725 3281 2906 2969 
z
M 947 1747 
Q 947 1113 1208 752 
Q 1469 391 1925 391 
Q 2381 391 2643 752 
Q 2906 1113 2906 1747 
Q 2906 2381 2643 2742 
Q 2381 3103 1925 3103 
Q 1469 3103 1208 2742 
Q 947 2381 947 1747 
z
" transform="scale(0.015625)"/>
      <path id="DejaVuSans-63" d="M 3122 3366 
L 3122 2828 
Q 2878 2963 2633 3030 
Q 2388 3097 2138 3097 
Q 1578 3097 1268 2742 
Q 959 2388 959 1747 
Q 959 1106 1268 751 
Q 1578 397 2138 397 
Q 2388 397 2633 464 
Q 2878 531 3122 666 
L 3122 134 
Q 2881 22 2623 -34 
Q 2366 -91 2075 -91 
Q 1284 -91 818 406 
Q 353 903 353 1747 
Q 353 2603 823 3093 
Q 1294 3584 2113 3584 
Q 2378 3584 2631 3529 
Q 2884 3475 3122 3366 
z
" transform="scale(0.015625)"/>
      <path id="DejaVuSans-79" d="M 2059 -325 
Q 1816 -950 1584 -1140 
Q 1353 -1331 966 -1331 
L 506 -1331 
L 506 -850 
L 844 -850 
Q 1081 -850 1212 -737 
Q 1344 -625 1503 -206 
L 1606 56 
L 191 3500 
L 800 3500 
L 1894 763 
L 2988 3500 
L 3597 3500 
L 2059 -325 
z
" transform="scale(0.015625)"/>
      <path id="DejaVuSans-62" d="M 3116 1747 
Q 3116 2381 2855 2742 
Q 2594 3103 2138 3103 
Q 1681 3103 1420 2742 
Q 1159 2381 1159 1747 
Q 1159 1113 1420 752 
Q 1681 391 2138 391 
Q 2594 391 2855 752 
Q 3116 1113 3116 1747 
z
M 1159 2969 
Q 1341 3281 1617 3432 
Q 1894 3584 2278 3584 
Q 2916 3584 3314 3078 
Q 3713 2572 3713 1747 
Q 3713 922 3314 415 
Q 2916 -91 2278 -91 
Q 1894 -91 1617 61 
Q 1341 213 1159 525 
L 1159 0 
L 581 0 
L 581 4863 
L 1159 4863 
L 1159 2969 
z
" transform="scale(0.015625)"/>
      <path id="DejaVuSans-77" d="M 269 3500 
L 844 3500 
L 1563 769 
L 2278 3500 
L 2956 3500 
L 3675 769 
L 4391 3500 
L 4966 3500 
L 4050 0 
L 3372 0 
L 2619 2869 
L 1863 0 
L 1184 0 
L 269 3500 
z
" transform="scale(0.015625)"/>
     </defs>
     <use xlink:href="#DejaVuSans-32"/>
     <use xlink:href="#DejaVuSans-44" x="63.623047"/>
     <use xlink:href="#DejaVuSans-2d" x="140.625"/>
     <use xlink:href="#DejaVuSans-70" x="176.708984"/>
     <use xlink:href="#DejaVuSans-61" x="240.185547"/>
     <use xlink:href="#DejaVuSans-72" x="301.464844"/>
     <use xlink:href="#DejaVuSans-74" x="342.578125"/>
     <use xlink:href="#DejaVuSans-69" x="381.787109"/>
     <use xlink:href="#DejaVuSans-61" x="409.570312"/>
     <use xlink:href="#DejaVuSans-6c" x="470.849609"/>
     <use xlink:href="#DejaVuSans-20" x="498.632812"/>
     <use xlink:href="#DejaVuSans-64" x="530.419922"/>
     <use xlink:href="#DejaVuSans-65" x="593.896484"/>
     <use xlink:href="#DejaVuSans-70" x="655.419922"/>
     <use xlink:href="#DejaVuSans-65" x="718.896484"/>
     <use xlink:href="#DejaVuSans-6e" x="780.419922"/>
     <use xlink:href="#DejaVuSans-64" x="843.798828"/>
     <use xlink:href="#DejaVuSans-65" x="907.275391"/>
     <use xlink:href="#DejaVuSans-6e" x="968.798828"/>
     <use xlink:href="#DejaVuSans-63" x="1032.177734"/>
     <use xlink:href="#DejaVuSans-79" x="1087.158203"/>
     <use xlink:href="#DejaVuSans-20" x="1146.337891"/>
     <use xlink:href="#DejaVuSans-70" x="1178.125"/>
     <use xlink:href="#DejaVuSans-6c" x="1241.601562"/>
     <use xlink:href="#DejaVuSans-6f" x="1269.384766"/>
     <use xlink:href="#DejaVuSans-74" x="1330.566406"/>
     <use xlink:href="#DejaVuSans-20" x="1369.775391"/>
     <use xlink:href="#DejaVuSans-62" x="1401.5625"/>
     <use xlink:href="#DejaVuSans-65" x="1465.039062"/>
     <use xlink:href="#DejaVuSans-74" x="1526.5625"/>
     <use xlink:href="#DejaVuSans-77" x="1565.771484"/>
     <use xlink:href="#DejaVuSans-65" x="1647.558594"/>
     <use xlink:href="#DejaVuSans-65" x="1709.082031"/>
     <use xlink:href="#DejaVuSans-6e" x="1770.605469"/>
     <use xlink:href="#DejaVuSans-20" x="1833.984375"/>
     <use xlink:href="#DejaVuSans-47" x="1865.771484"/>
     <use xlink:href="#DejaVuSans-48" x="1943.261719"/>
     <use xlink:href="#DejaVuSans-47" x="2018.457031"/>
     <use xlink:href="#DejaVuSans-20" x="2095.947266"/>
     <use xlink:href="#DejaVuSans-61" x="2127.734375"/>
     <use xlink:href="#DejaVuSans-6e" x="2189.013672"/>
     <use xlink:href="#DejaVuSans-64" x="2252.392578"/>
     <use xlink:href="#DejaVuSans-20" x="2315.869141"/>
     <use xlink:href="#DejaVuSans-4f" x="2347.65625"/>
     <use xlink:href="#DejaVuSans-4d" x="2426.367188"/>
    </g>
   </g>
   <g id="text_15">
    <g clip-path="url(#p595e6e1bf5)">
     <!-- 10.57 -->
     <g transform="translate(399.860412 106.004952) rotate(-282.08578) scale(0.1 -0.1)">
      <defs>
       <path id="DejaVuSans-2e" d="M 684 794 
L 1344 794 
L 1344 0 
L 684 0 
L 684 794 
z
" transform="scale(0.015625)"/>
       <path id="DejaVuSans-37" d="M 525 4666 
L 3525 4666 
L 3525 4397 
L 1831 0 
L 1172 0 
L 2766 4134 
L 525 4134 
L 525 4666 
z
" transform="scale(0.015625)"/>
      </defs>
      <use xlink:href="#DejaVuSans-31"/>
      <use xlink:href="#DejaVuSans-30" x="63.623047"/>
      <use xlink:href="#DejaVuSans-2e" x="127.246094"/>
      <use xlink:href="#DejaVuSans-35" x="159.033203"/>
      <use xlink:href="#DejaVuSans-37" x="222.65625"/>
     </g>
    </g>
   </g>
   <g id="text_16">
    <g clip-path="url(#p595e6e1bf5)">
     <!-- 10.60 -->
     <g transform="translate(391.063738 251.085127) rotate(-281.352108) scale(0.1 -0.1)">
      <defs>
       <path id="DejaVuSans-36" d="M 2113 2584 
Q 1688 2584 1439 2293 
Q 1191 2003 1191 1497 
Q 1191 994 1439 701 
Q 1688 409 2113 409 
Q 2538 409 2786 701 
Q 3034 994 3034 1497 
Q 3034 2003 2786 2293 
Q 2538 2584 2113 2584 
z
M 3366 4563 
L 3366 3988 
Q 3128 4100 2886 4159 
Q 2644 4219 2406 4219 
Q 1781 4219 1451 3797 
Q 1122 3375 1075 2522 
Q 1259 2794 1537 2939 
Q 1816 3084 2150 3084 
Q 2853 3084 3261 2657 
Q 3669 2231 3669 1497 
Q 3669 778 3244 343 
Q 2819 -91 2113 -91 
Q 1303 -91 875 529 
Q 447 1150 447 2328 
Q 447 3434 972 4092 
Q 1497 4750 2381 4750 
Q 2619 4750 2861 4703 
Q 3103 4656 3366 4563 
z
" transform="scale(0.015625)"/>
      </defs>
      <use xlink:href="#DejaVuSans-31"/>
      <use xlink:href="#DejaVuSans-30" x="63.623047"/>
      <use xlink:href="#DejaVuSans-2e" x="127.246094"/>
      <use xlink:href="#DejaVuSans-36" x="159.033203"/>
      <use xlink:href="#DejaVuSans-30" x="222.65625"/>
     </g>
    </g>
   </g>
   <g id="text_17">
    <g clip-path="url(#p595e6e1bf5)">
     <!-- 10.63 -->
     <g transform="translate(348.048039 248.545161) rotate(-282.840768) scale(0.1 -0.1)">
      <use xlink:href="#DejaVuSans-31"/>
      <use xlink:href="#DejaVuSans-30" x="63.623047"/>
      <use xlink:href="#DejaVuSans-2e" x="127.246094"/>
      <use xlink:href="#DejaVuSans-36" x="159.033203"/>
      <use xlink:href="#DejaVuSans-33" x="222.65625"/>
     </g>
    </g>
   </g>
   <g id="text_18">
    <g clip-path="url(#p595e6e1bf5)">
     <!-- 10.66 -->
     <g transform="translate(299.555504 251.463094) rotate(-284.993145) scale(0.1 -0.1)">
      <use xlink:href="#DejaVuSans-31"/>
      <use xlink:href="#DejaVuSans-30" x="63.623047"/>
      <use xlink:href="#DejaVuSans-2e" x="127.246094"/>
      <use xlink:href="#DejaVuSans-36" x="159.033203"/>
      <use xlink:href="#DejaVuSans-36" x="222.65625"/>
     </g>
    </g>
   </g>
   <g id="text_19">
    <g clip-path="url(#p595e6e1bf5)">
     <!-- 10.69 -->
     <g transform="translate(239.721595 254.618031) rotate(-288.920127) scale(0.1 -0.1)">
      <defs>
       <path id="DejaVuSans-39" d="M 703 97 
L 703 672 
Q 941 559 1184 500 
Q 1428 441 1663 441 
Q 2288 441 2617 861 
Q 2947 1281 2994 2138 
Q 2813 1869 2534 1725 
Q 2256 1581 1919 1581 
Q 1219 1581 811 2004 
Q 403 2428 403 3163 
Q 403 3881 828 4315 
Q 1253 4750 1959 4750 
Q 2769 4750 3195 4129 
Q 3622 3509 3622 2328 
Q 3622 1225 3098 567 
Q 2575 -91 1691 -91 
Q 1453 -91 1209 -44 
Q 966 3 703 97 
z
M 1959 2075 
Q 2384 2075 2632 2365 
Q 2881 2656 2881 3163 
Q 2881 3666 2632 3958 
Q 2384 4250 1959 4250 
Q 1534 4250 1286 3958 
Q 1038 3666 1038 3163 
Q 1038 2656 1286 2365 
Q 1534 2075 1959 2075 
z
" transform="scale(0.015625)"/>
      </defs>
      <use xlink:href="#DejaVuSans-31"/>
      <use xlink:href="#DejaVuSans-30" x="63.623047"/>
      <use xlink:href="#DejaVuSans-2e" x="127.246094"/>
      <use xlink:href="#DejaVuSans-36" x="159.033203"/>
      <use xlink:href="#DejaVuSans-39" x="222.65625"/>
     </g>
    </g>
   </g>
   <g id="text_20">
    <g clip-path="url(#p595e6e1bf5)">
     <!-- 10.72 -->
     <g transform="translate(152.641518 259.914737) rotate(-300.118012) scale(0.1 -0.1)">
      <use xlink:href="#DejaVuSans-31"/>
      <use xlink:href="#DejaVuSans-30" x="63.623047"/>
      <use xlink:href="#DejaVuSans-2e" x="127.246094"/>
      <use xlink:href="#DejaVuSans-37" x="159.033203"/>
      <use xlink:href="#DejaVuSans-32" x="222.65625"/>
     </g>
    </g>
   </g>
  </g>
 </g>
 <defs>
  <clipPath id="p595e6e1bf5">
   <rect x="57.6" y="41.472" width="357.12" height="266.112"/>
  </clipPath>
 </defs>
</svg>
