<?xml version="1.0" encoding="utf-8" standalone="no"?>
<!DOCTYPE svg PUBLIC "-//W3C//DTD SVG 1.1//EN"
  "http://www.w3.org/Graphics/SVG/1.1/DTD/svg11.dtd">
<svg xmlns:xlink="http://www.w3.org/1999/xlink" width="460.8pt" height="345.6pt" viewBox="0 0 460.8 345.6" xmlns="http://www.w3.org/2000/svg" version="1.1">
 <metadata>
  <rdf:RDF xmlns:dc="http://purl.org/dc/elements/1.1/" xmlns:cc="http://creativecommons.org/ns#" xmlns:rdf="http://www.w3.org/1999/02/22-rdf-syntax-ns#">
   <cc:Work>
    <dc:type rdf:resource="http://purl.org/dc/dcmitype/StillImage"/>
    <dc:date>2024-04-22T00:44:49.977633</dc:date>
    <dc:format>image/svg+xml</dc:format>
    <dc:creator>
     <cc:Agent>
      <dc:title>Matplotlib v3.7.0, https://matplotlib.org/</dc:title>
     </cc:Agent>
    </dc:creator>
   </cc:Work>
  </rdf:RDF>
 </metadata>
 <defs>
  <style type="text/css">*{stroke-linejoin: round; stroke-linecap: butt}</style>
 </defs>
 <g id="figure_1">
  <g id="patch_1">
   <path d="M 0 345.6 
L 460.8 345.6 
L 460.8 0 
L 0 0 
L 0 345.6 
z
" style="fill: none"/>
  </g>
  <g id="axes_1"/>
  <g id="axes_2">
   <g id="patch_2">
    <path d="M 57.6 307.584 
L 414.72 307.584 
L 414.72 41.472 
L 57.6 41.472 
L 57.6 307.584 
z
" style="fill: none"/>
   </g>
   <g id="PathCollection_1">
    <path d="M 216.32 307.584 
L 219.927273 307.584 
L 223.534545 307.584 
L 227.141818 307.584 
L 230.749091 307.584 
L 234.356364 307.584 
L 237.963636 307.584 
L 241.570909 307.584 
L 245.178182 307.584 
L 248.785455 307.584 
L 252.392727 307.584 
L 256 307.584 
L 259.607273 307.584 
L 263.214545 307.584 
L 266.821818 307.584 
L 270.429091 307.584 
L 274.036364 307.584 
L 277.643636 307.584 
L 281.250909 307.584 
L 284.858182 307.584 
L 288.465455 307.584 
L 292.072727 307.584 
L 295.68 307.584 
L 299.287273 307.584 
L 302.894545 307.584 
L 306.501818 307.584 
L 310.109091 307.584 
L 313.716364 307.584 
L 317.323636 307.584 
L 320.930909 307.584 
L 324.538182 307.584 
L 328.145455 307.584 
L 331.752727 307.584 
L 335.36 307.584 
L 338.967273 307.584 
L 342.574545 307.584 
L 346.181818 307.584 
L 349.789091 307.584 
L 353.396364 307.584 
L 357.003636 307.584 
L 360.610909 307.584 
L 364.218182 307.584 
L 367.825455 307.584 
L 371.432727 307.584 
L 375.04 307.584 
L 378.647273 307.584 
L 382.254545 307.584 
L 385.861818 307.584 
L 389.469091 307.584 
L 393.076364 307.584 
L 396.683636 307.584 
L 400.290909 307.584 
L 403.898182 307.584 
L 407.505455 307.584 
L 411.112727 307.584 
L 414.72 307.584 
L 414.72 304.896 
L 414.72 302.208 
L 414.72 299.52 
L 414.72 296.832 
L 414.72 294.144 
L 414.72 291.456 
L 414.72 288.768 
L 414.72 286.08 
L 414.72 283.392 
L 414.72 280.704 
L 414.72 278.016 
L 414.72 275.887396 
L 411.112727 276.654626 
L 407.505455 277.41448 
L 404.622025 278.016 
L 403.898182 278.166911 
L 400.290909 278.91176 
L 396.683636 279.649263 
L 393.076364 280.379429 
L 391.456801 280.704 
L 389.469091 281.102122 
L 385.861818 281.81738 
L 382.254545 282.52533 
L 378.647273 283.22598 
L 377.783665 283.392 
L 375.04 283.919156 
L 371.432727 284.604994 
L 367.825455 285.28356 
L 364.218182 285.954865 
L 363.538513 286.08 
L 360.610909 286.618734 
L 357.003636 287.275317 
L 353.396364 287.924666 
L 349.789091 288.566788 
L 348.645999 288.768 
L 346.181818 289.201552 
L 342.574545 289.829042 
L 338.967273 290.449332 
L 335.36 291.062432 
L 333.017026 291.456 
L 331.752727 291.668282 
L 328.145455 292.266835 
L 324.538182 292.858223 
L 320.930909 293.442454 
L 317.323636 294.019536 
L 316.535932 294.144 
L 313.716364 294.589341 
L 310.109091 295.151977 
L 306.501818 295.707488 
L 302.894545 296.255883 
L 299.287273 296.797168 
L 299.052071 296.832 
L 295.68 297.331207 
L 292.072727 297.858143 
L 288.465455 298.377993 
L 284.858182 298.890766 
L 281.250909 299.396467 
L 280.357267 299.52 
L 277.643636 299.895001 
L 274.036364 300.386446 
L 270.429091 300.870842 
L 266.821818 301.348197 
L 263.214545 301.818519 
L 260.181994 302.208 
L 259.607273 302.281793 
L 256 302.737945 
L 252.392727 303.187085 
L 248.785455 303.629218 
L 245.178182 304.064353 
L 241.570909 304.492495 
L 238.114815 304.896 
L 237.963636 304.913646 
L 234.356364 305.327716 
L 230.749091 305.734814 
L 227.141818 306.134946 
L 223.534545 306.528118 
L 219.927273 306.914336 
L 216.32 307.293606 
L 213.5065 307.584 
z
" clip-path="url(#pc54fd441ba)" style="fill: #481b6d; fill-opacity: 0.75"/>
   </g>
   <g id="PathCollection_2">
    <path d="M 61.207273 307.584 
L 64.814545 307.584 
L 68.421818 307.584 
L 72.029091 307.584 
L 75.636364 307.584 
L 79.243636 307.584 
L 82.850909 307.584 
L 86.458182 307.584 
L 90.065455 307.584 
L 93.672727 307.584 
L 97.28 307.584 
L 100.887273 307.584 
L 104.494545 307.584 
L 108.101818 307.584 
L 111.709091 307.584 
L 115.316364 307.584 
L 118.923636 307.584 
L 122.530909 307.584 
L 126.138182 307.584 
L 129.745455 307.584 
L 133.352727 307.584 
L 136.96 307.584 
L 140.567273 307.584 
L 144.174545 307.584 
L 147.781818 307.584 
L 151.389091 307.584 
L 154.996364 307.584 
L 158.603636 307.584 
L 162.210909 307.584 
L 165.818182 307.584 
L 169.425455 307.584 
L 173.032727 307.584 
L 176.64 307.584 
L 180.247273 307.584 
L 183.854545 307.584 
L 187.461818 307.584 
L 191.069091 307.584 
L 194.676364 307.584 
L 198.283636 307.584 
L 201.890909 307.584 
L 205.498182 307.584 
L 209.105455 307.584 
L 212.712727 307.584 
L 213.5065 307.584 
L 216.32 307.293606 
L 219.927273 306.914336 
L 223.534545 306.528118 
L 227.141818 306.134946 
L 230.749091 305.734814 
L 234.356364 305.327716 
L 237.963636 304.913646 
L 238.114815 304.896 
L 241.570909 304.492495 
L 245.178182 304.064353 
L 248.785455 303.629218 
L 252.392727 303.187085 
L 256 302.737945 
L 259.607273 302.281793 
L 260.181994 302.208 
L 263.214545 301.818519 
L 266.821818 301.348197 
L 270.429091 300.870842 
L 274.036364 300.386446 
L 277.643636 299.895001 
L 280.357267 299.52 
L 281.250909 299.396467 
L 284.858182 298.890766 
L 288.465455 298.377993 
L 292.072727 297.858143 
L 295.68 297.331207 
L 299.052071 296.832 
L 299.287273 296.797168 
L 302.894545 296.255883 
L 306.501818 295.707488 
L 310.109091 295.151977 
L 313.716364 294.589341 
L 316.535932 294.144 
L 317.323636 294.019536 
L 320.930909 293.442454 
L 324.538182 292.858223 
L 328.145455 292.266835 
L 331.752727 291.668282 
L 333.017026 291.456 
L 335.36 291.062432 
L 338.967273 290.449332 
L 342.574545 289.829042 
L 346.181818 289.201552 
L 348.645999 288.768 
L 349.789091 288.566788 
L 353.396364 287.924666 
L 357.003636 287.275317 
L 360.610909 286.618734 
L 363.538513 286.08 
L 364.218182 285.954865 
L 367.825455 285.28356 
L 371.432727 284.604994 
L 375.04 283.919156 
L 377.783665 283.392 
L 378.647273 283.22598 
L 382.254545 282.52533 
L 385.861818 281.81738 
L 389.469091 281.102122 
L 391.456801 280.704 
L 393.076364 280.379429 
L 396.683636 279.649263 
L 400.290909 278.91176 
L 403.898182 278.166911 
L 404.622025 278.016 
L 407.505455 277.41448 
L 411.112727 276.654626 
L 414.72 275.887396 
L 414.72 275.328 
L 414.72 272.64 
L 414.72 269.952 
L 414.72 267.264 
L 414.72 264.576 
L 414.72 261.888 
L 414.72 259.2 
L 414.72 256.512 
L 414.72 253.824 
L 414.72 251.136 
L 414.72 248.448 
L 414.72 245.76 
L 414.72 243.072 
L 414.72 240.384 
L 414.72 237.696 
L 414.72 235.008 
L 414.72 232.32 
L 414.72 229.632 
L 414.72 229.115067 
L 412.346891 229.632 
L 411.112727 229.900592 
L 407.505455 230.678075 
L 403.898182 231.44788 
L 400.290909 232.210017 
L 399.765152 232.32 
L 396.683636 232.964057 
L 393.076364 233.710376 
L 389.469091 234.449055 
L 386.711167 235.008 
L 385.861818 235.179991 
L 382.254545 235.902937 
L 378.647273 236.618275 
L 375.04 237.326011 
L 373.133888 237.696 
L 371.432727 238.025939 
L 367.825455 238.718046 
L 364.218182 239.40258 
L 360.610909 240.07955 
L 358.97044 240.384 
L 357.003636 240.74873 
L 353.396364 241.410172 
L 349.789091 242.064077 
L 346.181818 242.710453 
L 344.140459 243.072 
L 342.574545 243.349135 
L 338.967273 243.980081 
L 335.36 244.603525 
L 331.752727 245.219476 
L 328.548268 245.76 
L 328.145455 245.827898 
L 324.538182 246.428514 
L 320.930909 247.021662 
L 317.323636 247.60735 
L 313.716364 248.185584 
L 312.058007 248.448 
L 310.109091 248.756188 
L 306.501818 249.319198 
L 302.894545 249.874781 
L 299.287273 250.422943 
L 295.68 250.963691 
L 294.514613 251.136 
L 292.072727 251.49682 
L 288.465455 252.022451 
L 284.858182 252.540692 
L 281.250909 253.051551 
L 277.643636 253.555033 
L 275.687965 253.824 
L 274.036364 254.051015 
L 270.429091 254.539482 
L 266.821818 255.020597 
L 263.214545 255.494364 
L 259.607273 255.960792 
L 256 256.419885 
L 255.264467 256.512 
L 252.392727 256.871448 
L 248.785455 257.315641 
L 245.178182 257.752521 
L 241.570909 258.182096 
L 237.963636 258.60437 
L 234.356364 259.019351 
L 232.757918 259.2 
L 230.749091 259.426917 
L 227.141818 259.827104 
L 223.534545 260.220018 
L 219.927273 260.605663 
L 216.32 260.984047 
L 212.712727 261.355173 
L 209.105455 261.719047 
L 207.396418 261.888 
L 205.498182 262.075574 
L 201.890909 262.424771 
L 198.283636 262.766736 
L 194.676364 263.101474 
L 191.069091 263.428989 
L 187.461818 263.749287 
L 183.854545 264.062372 
L 180.247273 264.368249 
L 177.738028 264.576 
L 176.64 264.666875 
L 173.032727 264.958196 
L 169.425455 265.242327 
L 165.818182 265.519272 
L 162.210909 265.789036 
L 158.603636 266.051622 
L 154.996364 266.307036 
L 151.389091 266.555281 
L 147.781818 266.796362 
L 144.174545 267.030283 
L 140.567273 267.257048 
L 140.453054 267.264 
L 136.96 267.476549 
L 133.352727 267.688902 
L 129.745455 267.894113 
L 126.138182 268.092187 
L 122.530909 268.283127 
L 118.923636 268.466937 
L 115.316364 268.643619 
L 111.709091 268.813179 
L 108.101818 268.975618 
L 104.494545 269.13094 
L 100.887273 269.279149 
L 97.28 269.420247 
L 93.672727 269.554238 
L 90.065455 269.681124 
L 86.458182 269.800909 
L 82.850909 269.913595 
L 81.5386 269.952 
L 79.243636 270.019149 
L 75.636364 270.117595 
L 72.029091 270.208953 
L 68.421818 270.293226 
L 64.814545 270.370416 
L 61.207273 270.440527 
L 57.6 270.50356 
L 57.6 272.64 
L 57.6 275.328 
L 57.6 278.016 
L 57.6 280.704 
L 57.6 283.392 
L 57.6 286.08 
L 57.6 288.768 
L 57.6 291.456 
L 57.6 294.144 
L 57.6 296.832 
L 57.6 299.52 
L 57.6 302.208 
L 57.6 304.896 
L 57.6 307.584 
z
" clip-path="url(#pc54fd441ba)" style="fill: #3f4788; fill-opacity: 0.75"/>
   </g>
   <g id="PathCollection_3">
    <path d="M 61.207273 270.440527 
L 64.814545 270.370416 
L 68.421818 270.293226 
L 72.029091 270.208953 
L 75.636364 270.117595 
L 79.243636 270.019149 
L 81.5386 269.952 
L 82.850909 269.913595 
L 86.458182 269.800909 
L 90.065455 269.681124 
L 93.672727 269.554238 
L 97.28 269.420247 
L 100.887273 269.279149 
L 104.494545 269.13094 
L 108.101818 268.975618 
L 111.709091 268.813179 
L 115.316364 268.643619 
L 118.923636 268.466937 
L 122.530909 268.283127 
L 126.138182 268.092187 
L 129.745455 267.894113 
L 133.352727 267.688902 
L 136.96 267.476549 
L 140.453054 267.264 
L 140.567273 267.257048 
L 144.174545 267.030283 
L 147.781818 266.796362 
L 151.389091 266.555281 
L 154.996364 266.307036 
L 158.603636 266.051622 
L 162.210909 265.789036 
L 165.818182 265.519272 
L 169.425455 265.242327 
L 173.032727 264.958196 
L 176.64 264.666875 
L 177.738028 264.576 
L 180.247273 264.368249 
L 183.854545 264.062372 
L 187.461818 263.749287 
L 191.069091 263.428989 
L 194.676364 263.101474 
L 198.283636 262.766736 
L 201.890909 262.424771 
L 205.498182 262.075574 
L 207.396418 261.888 
L 209.105455 261.719047 
L 212.712727 261.355173 
L 216.32 260.984047 
L 219.927273 260.605663 
L 223.534545 260.220018 
L 227.141818 259.827104 
L 230.749091 259.426917 
L 232.757918 259.2 
L 234.356364 259.019351 
L 237.963636 258.60437 
L 241.570909 258.182096 
L 245.178182 257.752521 
L 248.785455 257.315641 
L 252.392727 256.871448 
L 255.264467 256.512 
L 256 256.419885 
L 259.607273 255.960792 
L 263.214545 255.494364 
L 266.821818 255.020597 
L 270.429091 254.539482 
L 274.036364 254.051015 
L 275.687965 253.824 
L 277.643636 253.555033 
L 281.250909 253.051551 
L 284.858182 252.540692 
L 288.465455 252.022451 
L 292.072727 251.49682 
L 294.514613 251.136 
L 295.68 250.963691 
L 299.287273 250.422943 
L 302.894545 249.874781 
L 306.501818 249.319198 
L 310.109091 248.756188 
L 312.058007 248.448 
L 313.716364 248.185584 
L 317.323636 247.60735 
L 320.930909 247.021662 
L 324.538182 246.428514 
L 328.145455 245.827898 
L 328.548268 245.76 
L 331.752727 245.219476 
L 335.36 244.603525 
L 338.967273 243.980081 
L 342.574545 243.349135 
L 344.140459 243.072 
L 346.181818 242.710453 
L 349.789091 242.064077 
L 353.396364 241.410172 
L 357.003636 240.74873 
L 358.97044 240.384 
L 360.610909 240.07955 
L 364.218182 239.40258 
L 367.825455 238.718046 
L 371.432727 238.025939 
L 373.133888 237.696 
L 375.04 237.326011 
L 378.647273 236.618275 
L 382.254545 235.902937 
L 385.861818 235.179991 
L 386.711167 235.008 
L 389.469091 234.449055 
L 393.076364 233.710376 
L 396.683636 232.964057 
L 399.765152 232.32 
L 400.290909 232.210017 
L 403.898182 231.44788 
L 407.505455 230.678075 
L 411.112727 229.900592 
L 412.346891 229.632 
L 414.72 229.115067 
L 414.72 226.944 
L 414.72 224.256 
L 414.72 221.568 
L 414.72 218.88 
L 414.72 216.192 
L 414.72 213.504 
L 414.72 210.816 
L 414.72 208.128 
L 414.72 205.44 
L 414.72 202.752 
L 414.72 200.064 
L 414.72 197.376 
L 414.72 194.688 
L 414.72 192 
L 414.72 189.312 
L 414.72 186.624 
L 414.72 183.936 
L 414.72 181.77157 
L 411.112727 182.578702 
L 407.505455 183.377795 
L 404.96016 183.936 
L 403.898182 184.168625 
L 400.290909 184.95088 
L 396.683636 185.725127 
L 393.076364 186.491374 
L 392.445502 186.624 
L 389.469091 187.249011 
L 385.861818 187.998538 
L 382.254545 188.740096 
L 379.442445 189.312 
L 378.647273 189.473535 
L 375.04 190.198468 
L 371.432727 190.915461 
L 367.825455 191.624521 
L 365.893766 192 
L 364.218182 192.325343 
L 360.610909 193.017893 
L 357.003636 193.702539 
L 353.396364 194.379288 
L 351.731526 194.688 
L 349.789091 195.047807 
L 346.181818 195.708158 
L 342.574545 196.360639 
L 338.967273 197.00526 
L 336.867109 197.376 
L 335.36 197.641778 
L 331.752727 198.270108 
L 328.145455 198.890604 
L 324.538182 199.503273 
L 321.194067 200.064 
L 320.930909 200.108082 
L 317.323636 200.704567 
L 313.716364 201.293251 
L 310.109091 201.874141 
L 306.501818 202.447244 
L 304.557231 202.752 
L 302.894545 203.01233 
L 299.287273 203.569371 
L 295.68 204.11865 
L 292.072727 204.660174 
L 288.465455 205.193949 
L 286.778164 205.44 
L 284.858182 205.719731 
L 281.250909 206.237561 
L 277.643636 206.747667 
L 274.036364 207.250055 
L 270.429091 207.744731 
L 267.589979 208.128 
L 266.821818 208.231609 
L 263.214545 208.710454 
L 259.607273 209.181611 
L 256 209.645084 
L 252.392727 210.10088 
L 248.785455 210.549005 
L 246.598769 210.816 
L 245.178182 210.989312 
L 241.570909 211.421733 
L 237.963636 211.846503 
L 234.356364 212.26363 
L 230.749091 212.673119 
L 227.141818 213.074974 
L 223.534545 213.469201 
L 223.209816 213.504 
L 219.927273 213.855502 
L 216.32 214.23416 
L 212.712727 214.605212 
L 209.105455 214.96866 
L 205.498182 215.324511 
L 201.890909 215.67277 
L 198.283636 216.013439 
L 196.349734 216.192 
L 194.676364 216.346394 
L 191.069091 216.671625 
L 187.461818 216.989286 
L 183.854545 217.299383 
L 180.247273 217.60192 
L 176.64 217.896901 
L 173.032727 218.18433 
L 169.425455 218.464211 
L 165.818182 218.736549 
L 163.863822 218.88 
L 162.210909 219.001245 
L 158.603636 219.258292 
L 154.996364 219.507812 
L 151.389091 219.74981 
L 147.781818 219.984289 
L 144.174545 220.211253 
L 140.567273 220.430705 
L 136.96 220.642649 
L 133.352727 220.847088 
L 129.745455 221.044026 
L 126.138182 221.233466 
L 122.530909 221.41541 
L 119.375604 221.568 
L 118.923636 221.589844 
L 115.316364 221.756669 
L 111.709091 221.916014 
L 108.101818 222.067882 
L 104.494545 222.212275 
L 100.887273 222.349196 
L 97.28 222.478648 
L 93.672727 222.600633 
L 90.065455 222.715155 
L 86.458182 222.822215 
L 82.850909 222.921815 
L 79.243636 223.013959 
L 75.636364 223.098648 
L 72.029091 223.175883 
L 68.421818 223.245669 
L 64.814545 223.308005 
L 61.207273 223.362895 
L 57.6 223.41034 
L 57.6 224.256 
L 57.6 226.944 
L 57.6 229.632 
L 57.6 232.32 
L 57.6 235.008 
L 57.6 237.696 
L 57.6 240.384 
L 57.6 243.072 
L 57.6 245.76 
L 57.6 248.448 
L 57.6 251.136 
L 57.6 253.824 
L 57.6 256.512 
L 57.6 259.2 
L 57.6 261.888 
L 57.6 264.576 
L 57.6 267.264 
L 57.6 269.952 
L 57.6 270.50356 
z
" clip-path="url(#pc54fd441ba)" style="fill: #2e6e8e; fill-opacity: 0.75"/>
   </g>
   <g id="PathCollection_4">
    <path d="M 61.207273 223.362895 
L 64.814545 223.308005 
L 68.421818 223.245669 
L 72.029091 223.175883 
L 75.636364 223.098648 
L 79.243636 223.013959 
L 82.850909 222.921815 
L 86.458182 222.822215 
L 90.065455 222.715155 
L 93.672727 222.600633 
L 97.28 222.478648 
L 100.887273 222.349196 
L 104.494545 222.212275 
L 108.101818 222.067882 
L 111.709091 221.916014 
L 115.316364 221.756669 
L 118.923636 221.589844 
L 119.375604 221.568 
L 122.530909 221.41541 
L 126.138182 221.233466 
L 129.745455 221.044026 
L 133.352727 220.847088 
L 136.96 220.642649 
L 140.567273 220.430705 
L 144.174545 220.211253 
L 147.781818 219.984289 
L 151.389091 219.74981 
L 154.996364 219.507812 
L 158.603636 219.258292 
L 162.210909 219.001245 
L 163.863822 218.88 
L 165.818182 218.736549 
L 169.425455 218.464211 
L 173.032727 218.18433 
L 176.64 217.896901 
L 180.247273 217.60192 
L 183.854545 217.299383 
L 187.461818 216.989286 
L 191.069091 216.671625 
L 194.676364 216.346394 
L 196.349734 216.192 
L 198.283636 216.013439 
L 201.890909 215.67277 
L 205.498182 215.324511 
L 209.105455 214.96866 
L 212.712727 214.605212 
L 216.32 214.23416 
L 219.927273 213.855502 
L 223.209816 213.504 
L 223.534545 213.469201 
L 227.141818 213.074974 
L 230.749091 212.673119 
L 234.356364 212.26363 
L 237.963636 211.846503 
L 241.570909 211.421733 
L 245.178182 210.989312 
L 246.598769 210.816 
L 248.785455 210.549005 
L 252.392727 210.10088 
L 256 209.645084 
L 259.607273 209.181611 
L 263.214545 208.710454 
L 266.821818 208.231609 
L 267.589979 208.128 
L 270.429091 207.744731 
L 274.036364 207.250055 
L 277.643636 206.747667 
L 281.250909 206.237561 
L 284.858182 205.719731 
L 286.778164 205.44 
L 288.465455 205.193949 
L 292.072727 204.660174 
L 295.68 204.11865 
L 299.287273 203.569371 
L 302.894545 203.01233 
L 304.557231 202.752 
L 306.501818 202.447244 
L 310.109091 201.874141 
L 313.716364 201.293251 
L 317.323636 200.704567 
L 320.930909 200.108082 
L 321.194067 200.064 
L 324.538182 199.503273 
L 328.145455 198.890604 
L 331.752727 198.270108 
L 335.36 197.641778 
L 336.867109 197.376 
L 338.967273 197.00526 
L 342.574545 196.360639 
L 346.181818 195.708158 
L 349.789091 195.047807 
L 351.731526 194.688 
L 353.396364 194.379288 
L 357.003636 193.702539 
L 360.610909 193.017893 
L 364.218182 192.325343 
L 365.893766 192 
L 367.825455 191.624521 
L 371.432727 190.915461 
L 375.04 190.198468 
L 378.647273 189.473535 
L 379.442445 189.312 
L 382.254545 188.740096 
L 385.861818 187.998538 
L 389.469091 187.249011 
L 392.445502 186.624 
L 393.076364 186.491374 
L 396.683636 185.725127 
L 400.290909 184.95088 
L 403.898182 184.168625 
L 404.96016 183.936 
L 407.505455 183.377795 
L 411.112727 182.578702 
L 414.72 181.77157 
L 414.72 181.248 
L 414.72 178.56 
L 414.72 175.872 
L 414.72 173.184 
L 414.72 170.496 
L 414.72 167.808 
L 414.72 165.12 
L 414.72 162.432 
L 414.72 159.744 
L 414.72 157.056 
L 414.72 154.368 
L 414.72 151.68 
L 414.72 148.992 
L 414.72 146.304 
L 414.72 143.616 
L 414.72 140.928 
L 414.72 138.24 
L 414.72 135.552 
L 414.72 133.566301 
L 411.112727 134.399594 
L 407.505455 135.224447 
L 406.058335 135.552 
L 403.898182 136.040214 
L 400.290909 136.847126 
L 396.683636 137.645632 
L 393.970108 138.24 
L 393.076364 138.435477 
L 389.469091 139.216151 
L 385.861818 139.988448 
L 382.254545 140.752376 
L 381.416148 140.928 
L 378.647273 141.50718 
L 375.04 142.253407 
L 371.432727 142.991295 
L 368.343937 143.616 
L 367.825455 143.720715 
L 364.218182 144.441008 
L 360.610909 145.152992 
L 357.003636 145.856673 
L 354.683222 146.304 
L 353.396364 146.551739 
L 349.789091 147.237951 
L 346.181818 147.915889 
L 342.574545 148.585561 
L 340.357919 148.992 
L 338.967273 149.246647 
L 335.36 149.898973 
L 331.752727 150.54306 
L 328.145455 151.178914 
L 325.265509 151.68 
L 324.538182 151.806384 
L 320.930909 152.425013 
L 317.323636 153.035438 
L 313.716364 153.637664 
L 310.109091 154.231697 
L 309.269839 154.368 
L 306.501818 154.816985 
L 302.894545 155.393932 
L 299.287273 155.962713 
L 295.68 156.523334 
L 292.202015 157.056 
L 292.072727 157.075777 
L 288.465455 157.619425 
L 284.858182 158.154939 
L 281.250909 158.682325 
L 277.643636 159.201589 
L 274.036364 159.712734 
L 273.81215 159.744 
L 270.429091 160.215194 
L 266.821818 160.709517 
L 263.214545 161.195748 
L 259.607273 161.673892 
L 256 162.143953 
L 253.75082 162.432 
L 252.392727 162.605728 
L 248.785455 163.059094 
L 245.178182 163.5044 
L 241.570909 163.941654 
L 237.963636 164.370859 
L 234.356364 164.79202 
L 231.492472 165.12 
L 230.749091 165.20504 
L 227.141818 165.609645 
L 223.534545 166.006228 
L 219.927273 166.394795 
L 216.32 166.775349 
L 212.712727 167.147896 
L 209.105455 167.512439 
L 206.115102 167.808 
L 205.498182 167.868911 
L 201.890909 168.217049 
L 198.283636 168.557204 
L 194.676364 168.889381 
L 191.069091 169.213584 
L 187.461818 169.529817 
L 183.854545 169.838083 
L 180.247273 170.138386 
L 176.64 170.430731 
L 175.811989 170.496 
L 173.032727 170.714864 
L 169.425455 170.990977 
L 165.818182 171.259152 
L 162.210909 171.51939 
L 158.603636 171.771695 
L 154.996364 172.016071 
L 151.389091 172.25252 
L 147.781818 172.481047 
L 144.174545 172.701653 
L 140.567273 172.914342 
L 136.96 173.119117 
L 135.770905 173.184 
L 133.352727 173.315828 
L 129.745455 173.504564 
L 126.138182 173.685403 
L 122.530909 173.858347 
L 118.923636 174.0234 
L 115.316364 174.180564 
L 111.709091 174.329841 
L 108.101818 174.471233 
L 104.494545 174.604743 
L 100.887273 174.730373 
L 97.28 174.848126 
L 93.672727 174.958002 
L 90.065455 175.060005 
L 86.458182 175.154136 
L 82.850909 175.240397 
L 79.243636 175.31879 
L 75.636364 175.389316 
L 72.029091 175.451977 
L 68.421818 175.506775 
L 64.814545 175.553711 
L 61.207273 175.592787 
L 57.6 175.624003 
L 57.6 175.872 
L 57.6 178.56 
L 57.6 181.248 
L 57.6 183.936 
L 57.6 186.624 
L 57.6 189.312 
L 57.6 192 
L 57.6 194.688 
L 57.6 197.376 
L 57.6 200.064 
L 57.6 202.752 
L 57.6 205.44 
L 57.6 208.128 
L 57.6 210.816 
L 57.6 213.504 
L 57.6 216.192 
L 57.6 218.88 
L 57.6 221.568 
L 57.6 223.41034 
z
" clip-path="url(#pc54fd441ba)" style="fill: #21918c; fill-opacity: 0.75"/>
   </g>
   <g id="PathCollection_5">
    <path d="M 61.207273 175.592787 
L 64.814545 175.553711 
L 68.421818 175.506775 
L 72.029091 175.451977 
L 75.636364 175.389316 
L 79.243636 175.31879 
L 82.850909 175.240397 
L 86.458182 175.154136 
L 90.065455 175.060005 
L 93.672727 174.958002 
L 97.28 174.848126 
L 100.887273 174.730373 
L 104.494545 174.604743 
L 108.101818 174.471233 
L 111.709091 174.329841 
L 115.316364 174.180564 
L 118.923636 174.0234 
L 122.530909 173.858347 
L 126.138182 173.685403 
L 129.745455 173.504564 
L 133.352727 173.315828 
L 135.770905 173.184 
L 136.96 173.119117 
L 140.567273 172.914342 
L 144.174545 172.701653 
L 147.781818 172.481047 
L 151.389091 172.25252 
L 154.996364 172.016071 
L 158.603636 171.771695 
L 162.210909 171.51939 
L 165.818182 171.259152 
L 169.425455 170.990977 
L 173.032727 170.714864 
L 175.811989 170.496 
L 176.64 170.430731 
L 180.247273 170.138386 
L 183.854545 169.838083 
L 187.461818 169.529817 
L 191.069091 169.213584 
L 194.676364 168.889381 
L 198.283636 168.557204 
L 201.890909 168.217049 
L 205.498182 167.868911 
L 206.115102 167.808 
L 209.105455 167.512439 
L 212.712727 167.147896 
L 216.32 166.775349 
L 219.927273 166.394795 
L 223.534545 166.006228 
L 227.141818 165.609645 
L 230.749091 165.20504 
L 231.492472 165.12 
L 234.356364 164.79202 
L 237.963636 164.370859 
L 241.570909 163.941654 
L 245.178182 163.5044 
L 248.785455 163.059094 
L 252.392727 162.605728 
L 253.75082 162.432 
L 256 162.143953 
L 259.607273 161.673892 
L 263.214545 161.195748 
L 266.821818 160.709517 
L 270.429091 160.215194 
L 273.81215 159.744 
L 274.036364 159.712734 
L 277.643636 159.201589 
L 281.250909 158.682325 
L 284.858182 158.154939 
L 288.465455 157.619425 
L 292.072727 157.075777 
L 292.202015 157.056 
L 295.68 156.523334 
L 299.287273 155.962713 
L 302.894545 155.393932 
L 306.501818 154.816985 
L 309.269839 154.368 
L 310.109091 154.231697 
L 313.716364 153.637664 
L 317.323636 153.035438 
L 320.930909 152.425013 
L 324.538182 151.806384 
L 325.265509 151.68 
L 328.145455 151.178914 
L 331.752727 150.54306 
L 335.36 149.898973 
L 338.967273 149.246647 
L 340.357919 148.992 
L 342.574545 148.585561 
L 346.181818 147.915889 
L 349.789091 147.237951 
L 353.396364 146.551739 
L 354.683222 146.304 
L 357.003636 145.856673 
L 360.610909 145.152992 
L 364.218182 144.441008 
L 367.825455 143.720715 
L 368.343937 143.616 
L 371.432727 142.991295 
L 375.04 142.253407 
L 378.647273 141.50718 
L 381.416148 140.928 
L 382.254545 140.752376 
L 385.861818 139.988448 
L 389.469091 139.216151 
L 393.076364 138.435477 
L 393.970108 138.24 
L 396.683636 137.645632 
L 400.290909 136.847126 
L 403.898182 136.040214 
L 406.058335 135.552 
L 407.505455 135.224447 
L 411.112727 134.399594 
L 414.72 133.566301 
L 414.72 132.864 
L 414.72 130.176 
L 414.72 127.488 
L 414.72 124.8 
L 414.72 122.112 
L 414.72 119.424 
L 414.72 116.736 
L 414.72 114.048 
L 414.72 111.36 
L 414.72 108.672 
L 414.72 105.984 
L 414.72 103.296 
L 414.72 100.608 
L 414.72 97.92 
L 414.72 95.232 
L 414.72 92.544 
L 414.72 89.856 
L 414.72 87.168 
L 414.72 84.48 
L 414.72 84.159889 
L 413.386247 84.48 
L 411.112727 85.02465 
L 407.505455 85.879967 
L 403.898182 86.726395 
L 401.996322 87.168 
L 400.290909 87.563268 
L 396.683636 88.390528 
L 393.076364 89.208932 
L 390.193172 89.856 
L 389.469091 90.018212 
L 385.861818 90.817572 
L 382.254545 91.608106 
L 378.647273 92.389822 
L 377.927751 92.544 
L 375.04 93.161692 
L 371.432727 93.924511 
L 367.825455 94.678542 
L 365.146577 95.232 
L 364.218182 95.423475 
L 360.610909 96.158729 
L 357.003636 96.885226 
L 353.396364 97.602972 
L 351.783429 97.92 
L 349.789091 98.311329 
L 346.181818 99.01044 
L 342.574545 99.70083 
L 338.967273 100.382504 
L 337.758583 100.608 
L 335.36 101.054741 
L 331.752727 101.71792 
L 328.145455 102.372412 
L 324.538182 103.018224 
L 322.965511 103.296 
L 320.930909 103.654781 
L 317.323636 104.282234 
L 313.716364 104.901035 
L 310.109091 105.511188 
L 307.273635 105.984 
L 306.501818 106.112495 
L 302.894545 106.704424 
L 299.287273 107.287734 
L 295.68 107.86243 
L 292.072727 108.428517 
L 290.497214 108.672 
L 288.465455 108.985504 
L 284.858182 109.533519 
L 281.250909 110.072953 
L 277.643636 110.60381 
L 274.036364 111.126094 
L 272.393852 111.36 
L 270.429091 111.639373 
L 266.821818 112.143734 
L 263.214545 112.63955 
L 259.607273 113.126824 
L 256 113.605561 
L 252.605723 114.048 
L 252.392727 114.075723 
L 248.785455 114.536681 
L 245.178182 114.989128 
L 241.570909 115.433068 
L 237.963636 115.868504 
L 234.356364 116.295442 
L 230.749091 116.713884 
L 230.554463 116.736 
L 227.141818 117.123237 
L 223.534545 117.524081 
L 219.927273 117.916454 
L 216.32 118.30036 
L 212.712727 118.675802 
L 209.105455 119.042785 
L 205.498182 119.401311 
L 205.26435 119.424 
L 201.890909 119.750883 
L 198.283636 120.091985 
L 194.676364 120.424652 
L 191.069091 120.748889 
L 187.461818 121.0647 
L 183.854545 121.372086 
L 180.247273 121.671052 
L 176.64 121.9616 
L 174.716859 122.112 
L 173.032727 122.243534 
L 169.425455 122.516841 
L 165.818182 122.781751 
L 162.210909 123.038268 
L 158.603636 123.286394 
L 154.996364 123.526132 
L 151.389091 123.757485 
L 147.781818 123.980454 
L 144.174545 124.195043 
L 140.567273 124.401254 
L 136.96 124.599089 
L 133.352727 124.788551 
L 133.124609 124.8 
L 129.745455 124.969386 
L 126.138182 125.141847 
L 122.530909 125.305953 
L 118.923636 125.461707 
L 115.316364 125.60911 
L 111.709091 125.748165 
L 108.101818 125.878872 
L 104.494545 126.001234 
L 100.887273 126.115252 
L 97.28 126.220929 
L 93.672727 126.318265 
L 90.065455 126.407262 
L 86.458182 126.487921 
L 82.850909 126.560244 
L 79.243636 126.624232 
L 75.636364 126.679886 
L 72.029091 126.727207 
L 68.421818 126.766196 
L 64.814545 126.796855 
L 61.207273 126.819183 
L 57.6 126.833183 
L 57.6 127.488 
L 57.6 130.176 
L 57.6 132.864 
L 57.6 135.552 
L 57.6 138.24 
L 57.6 140.928 
L 57.6 143.616 
L 57.6 146.304 
L 57.6 148.992 
L 57.6 151.68 
L 57.6 154.368 
L 57.6 157.056 
L 57.6 159.744 
L 57.6 162.432 
L 57.6 165.12 
L 57.6 167.808 
L 57.6 170.496 
L 57.6 173.184 
L 57.6 175.624003 
z
" clip-path="url(#pc54fd441ba)" style="fill: #2db27d; fill-opacity: 0.75"/>
   </g>
   <g id="PathCollection_6">
    <path d="M 61.207273 126.819183 
L 64.814545 126.796855 
L 68.421818 126.766196 
L 72.029091 126.727207 
L 75.636364 126.679886 
L 79.243636 126.624232 
L 82.850909 126.560244 
L 86.458182 126.487921 
L 90.065455 126.407262 
L 93.672727 126.318265 
L 97.28 126.220929 
L 100.887273 126.115252 
L 104.494545 126.001234 
L 108.101818 125.878872 
L 111.709091 125.748165 
L 115.316364 125.60911 
L 118.923636 125.461707 
L 122.530909 125.305953 
L 126.138182 125.141847 
L 129.745455 124.969386 
L 133.124609 124.8 
L 133.352727 124.788551 
L 136.96 124.599089 
L 140.567273 124.401254 
L 144.174545 124.195043 
L 147.781818 123.980454 
L 151.389091 123.757485 
L 154.996364 123.526132 
L 158.603636 123.286394 
L 162.210909 123.038268 
L 165.818182 122.781751 
L 169.425455 122.516841 
L 173.032727 122.243534 
L 174.716859 122.112 
L 176.64 121.9616 
L 180.247273 121.671052 
L 183.854545 121.372086 
L 187.461818 121.0647 
L 191.069091 120.748889 
L 194.676364 120.424652 
L 198.283636 120.091985 
L 201.890909 119.750883 
L 205.26435 119.424 
L 205.498182 119.401311 
L 209.105455 119.042785 
L 212.712727 118.675802 
L 216.32 118.30036 
L 219.927273 117.916454 
L 223.534545 117.524081 
L 227.141818 117.123237 
L 230.554463 116.736 
L 230.749091 116.713884 
L 234.356364 116.295442 
L 237.963636 115.868504 
L 241.570909 115.433068 
L 245.178182 114.989128 
L 248.785455 114.536681 
L 252.392727 114.075723 
L 252.605723 114.048 
L 256 113.605561 
L 259.607273 113.126824 
L 263.214545 112.63955 
L 266.821818 112.143734 
L 270.429091 111.639373 
L 272.393852 111.36 
L 274.036364 111.126094 
L 277.643636 110.60381 
L 281.250909 110.072953 
L 284.858182 109.533519 
L 288.465455 108.985504 
L 290.497214 108.672 
L 292.072727 108.428517 
L 295.68 107.86243 
L 299.287273 107.287734 
L 302.894545 106.704424 
L 306.501818 106.112495 
L 307.273635 105.984 
L 310.109091 105.511188 
L 313.716364 104.901035 
L 317.323636 104.282234 
L 320.930909 103.654781 
L 322.965511 103.296 
L 324.538182 103.018224 
L 328.145455 102.372412 
L 331.752727 101.71792 
L 335.36 101.054741 
L 337.758583 100.608 
L 338.967273 100.382504 
L 342.574545 99.70083 
L 346.181818 99.01044 
L 349.789091 98.311329 
L 351.783429 97.92 
L 353.396364 97.602972 
L 357.003636 96.885226 
L 360.610909 96.158729 
L 364.218182 95.423475 
L 365.146577 95.232 
L 367.825455 94.678542 
L 371.432727 93.924511 
L 375.04 93.161692 
L 377.927751 92.544 
L 378.647273 92.389822 
L 382.254545 91.608106 
L 385.861818 90.817572 
L 389.469091 90.018212 
L 390.193172 89.856 
L 393.076364 89.208932 
L 396.683636 88.390528 
L 400.290909 87.563268 
L 401.996322 87.168 
L 403.898182 86.726395 
L 407.505455 85.879967 
L 411.112727 85.02465 
L 413.386247 84.48 
L 414.72 84.159889 
L 414.72 81.792 
L 414.72 79.104 
L 414.72 76.416 
L 414.72 73.728 
L 414.72 71.04 
L 414.72 68.352 
L 414.72 65.664 
L 414.72 62.976 
L 414.72 60.288 
L 414.72 57.6 
L 414.72 54.912 
L 414.72 52.224 
L 414.72 49.536 
L 414.72 46.848 
L 414.72 44.16 
L 414.72 41.472 
L 411.112727 41.472 
L 407.505455 41.472 
L 403.898182 41.472 
L 400.290909 41.472 
L 396.683636 41.472 
L 393.076364 41.472 
L 389.469091 41.472 
L 385.861818 41.472 
L 382.254545 41.472 
L 379.747086 41.472 
L 378.647273 41.719748 
L 375.04 42.523038 
L 371.432727 43.316996 
L 367.825455 44.101629 
L 367.553886 44.16 
L 364.218182 44.87547 
L 360.610909 45.639892 
L 357.003636 46.395019 
L 354.812807 46.848 
L 353.396364 47.140261 
L 349.789091 47.875315 
L 346.181818 48.601105 
L 342.574545 49.317638 
L 341.460861 49.536 
L 338.967273 50.023929 
L 335.36 50.720548 
L 331.752727 51.407939 
L 328.145455 52.086108 
L 327.40188 52.224 
L 324.538182 52.753995 
L 320.930909 53.412408 
L 317.323636 54.061629 
L 313.716364 54.701662 
L 312.513607 54.912 
L 310.109091 55.331675 
L 306.501818 55.952108 
L 302.894545 56.563382 
L 299.287273 57.165502 
L 296.644019 57.6 
L 295.68 57.75816 
L 292.072727 58.340831 
L 288.465455 58.914378 
L 284.858182 59.478804 
L 281.250909 60.034112 
L 279.574083 60.288 
L 277.643636 60.579736 
L 274.036364 61.11577 
L 270.429091 61.642715 
L 266.821818 62.160575 
L 263.214545 62.669354 
L 261.00083 62.976 
L 259.607273 63.16868 
L 256 63.658353 
L 252.392727 64.138973 
L 248.785455 64.610542 
L 245.178182 65.073065 
L 241.570909 65.526544 
L 240.45516 65.664 
L 237.963636 65.970391 
L 234.356364 66.404953 
L 230.749091 66.830498 
L 227.141818 67.24703 
L 223.534545 67.65455 
L 219.927273 68.053064 
L 217.1587 68.352 
L 216.32 68.442399 
L 212.712727 68.822178 
L 209.105455 69.192974 
L 205.498182 69.554791 
L 201.890909 69.907632 
L 198.283636 70.251499 
L 194.676364 70.586395 
L 191.069091 70.912322 
L 189.615852 71.04 
L 187.461818 71.228924 
L 183.854545 71.536337 
L 180.247273 71.834805 
L 176.64 72.124331 
L 173.032727 72.404917 
L 169.425455 72.676566 
L 165.818182 72.93928 
L 162.210909 73.193061 
L 158.603636 73.43791 
L 154.996364 73.673831 
L 154.135379 73.728 
L 151.389091 73.900498 
L 147.781818 74.118155 
L 144.174545 74.326904 
L 140.567273 74.526748 
L 136.96 74.717689 
L 133.352727 74.899728 
L 129.745455 75.072867 
L 126.138182 75.237108 
L 122.530909 75.392451 
L 118.923636 75.538898 
L 115.316364 75.676451 
L 111.709091 75.805111 
L 108.101818 75.924879 
L 104.494545 76.035755 
L 100.887273 76.137742 
L 97.28 76.23084 
L 93.672727 76.315049 
L 90.065455 76.390372 
L 88.673636 76.416 
L 86.458182 76.456731 
L 82.850909 76.514173 
L 79.243636 76.562747 
L 75.636364 76.602452 
L 72.029091 76.633291 
L 68.421818 76.655262 
L 64.814545 76.668367 
L 61.207273 76.672606 
L 57.6 76.667979 
L 57.6 79.104 
L 57.6 81.792 
L 57.6 84.48 
L 57.6 87.168 
L 57.6 89.856 
L 57.6 92.544 
L 57.6 95.232 
L 57.6 97.92 
L 57.6 100.608 
L 57.6 103.296 
L 57.6 105.984 
L 57.6 108.672 
L 57.6 111.36 
L 57.6 114.048 
L 57.6 116.736 
L 57.6 119.424 
L 57.6 122.112 
L 57.6 124.8 
L 57.6 126.833183 
z
" clip-path="url(#pc54fd441ba)" style="fill: #73d056; fill-opacity: 0.75"/>
   </g>
   <g id="PathCollection_7">
    <path d="M 61.207273 76.672606 
L 64.814545 76.668367 
L 68.421818 76.655262 
L 72.029091 76.633291 
L 75.636364 76.602452 
L 79.243636 76.562747 
L 82.850909 76.514173 
L 86.458182 76.456731 
L 88.673636 76.416 
L 90.065455 76.390372 
L 93.672727 76.315049 
L 97.28 76.23084 
L 100.887273 76.137742 
L 104.494545 76.035755 
L 108.101818 75.924879 
L 111.709091 75.805111 
L 115.316364 75.676451 
L 118.923636 75.538898 
L 122.530909 75.392451 
L 126.138182 75.237108 
L 129.745455 75.072867 
L 133.352727 74.899728 
L 136.96 74.717689 
L 140.567273 74.526748 
L 144.174545 74.326904 
L 147.781818 74.118155 
L 151.389091 73.900498 
L 154.135379 73.728 
L 154.996364 73.673831 
L 158.603636 73.43791 
L 162.210909 73.193061 
L 165.818182 72.93928 
L 169.425455 72.676566 
L 173.032727 72.404917 
L 176.64 72.124331 
L 180.247273 71.834805 
L 183.854545 71.536337 
L 187.461818 71.228924 
L 189.615852 71.04 
L 191.069091 70.912322 
L 194.676364 70.586395 
L 198.283636 70.251499 
L 201.890909 69.907632 
L 205.498182 69.554791 
L 209.105455 69.192974 
L 212.712727 68.822178 
L 216.32 68.442399 
L 217.1587 68.352 
L 219.927273 68.053064 
L 223.534545 67.65455 
L 227.141818 67.24703 
L 230.749091 66.830498 
L 234.356364 66.404953 
L 237.963636 65.970391 
L 240.45516 65.664 
L 241.570909 65.526544 
L 245.178182 65.073065 
L 248.785455 64.610542 
L 252.392727 64.138973 
L 256 63.658353 
L 259.607273 63.16868 
L 261.00083 62.976 
L 263.214545 62.669354 
L 266.821818 62.160575 
L 270.429091 61.642715 
L 274.036364 61.11577 
L 277.643636 60.579736 
L 279.574083 60.288 
L 281.250909 60.034112 
L 284.858182 59.478804 
L 288.465455 58.914378 
L 292.072727 58.340831 
L 295.68 57.75816 
L 296.644019 57.6 
L 299.287273 57.165502 
L 302.894545 56.563382 
L 306.501818 55.952108 
L 310.109091 55.331675 
L 312.513607 54.912 
L 313.716364 54.701662 
L 317.323636 54.061629 
L 320.930909 53.412408 
L 324.538182 52.753995 
L 327.40188 52.224 
L 328.145455 52.086108 
L 331.752727 51.407939 
L 335.36 50.720548 
L 338.967273 50.023929 
L 341.460861 49.536 
L 342.574545 49.317638 
L 346.181818 48.601105 
L 349.789091 47.875315 
L 353.396364 47.140261 
L 354.812807 46.848 
L 357.003636 46.395019 
L 360.610909 45.639892 
L 364.218182 44.87547 
L 367.553886 44.16 
L 367.825455 44.101629 
L 371.432727 43.316996 
L 375.04 42.523038 
L 378.647273 41.719748 
L 379.747086 41.472 
L 378.647273 41.472 
L 375.04 41.472 
L 371.432727 41.472 
L 367.825455 41.472 
L 364.218182 41.472 
L 360.610909 41.472 
L 357.003636 41.472 
L 353.396364 41.472 
L 349.789091 41.472 
L 346.181818 41.472 
L 342.574545 41.472 
L 338.967273 41.472 
L 335.36 41.472 
L 331.752727 41.472 
L 328.145455 41.472 
L 324.538182 41.472 
L 320.930909 41.472 
L 317.323636 41.472 
L 313.716364 41.472 
L 310.109091 41.472 
L 306.501818 41.472 
L 302.894545 41.472 
L 299.287273 41.472 
L 295.68 41.472 
L 292.072727 41.472 
L 288.465455 41.472 
L 284.858182 41.472 
L 281.250909 41.472 
L 277.643636 41.472 
L 274.036364 41.472 
L 270.429091 41.472 
L 266.821818 41.472 
L 263.214545 41.472 
L 259.607273 41.472 
L 256 41.472 
L 252.392727 41.472 
L 248.785455 41.472 
L 245.178182 41.472 
L 241.570909 41.472 
L 237.963636 41.472 
L 234.356364 41.472 
L 230.749091 41.472 
L 227.141818 41.472 
L 223.534545 41.472 
L 219.927273 41.472 
L 216.32 41.472 
L 212.712727 41.472 
L 209.105455 41.472 
L 205.498182 41.472 
L 201.890909 41.472 
L 198.283636 41.472 
L 194.676364 41.472 
L 191.069091 41.472 
L 187.461818 41.472 
L 183.854545 41.472 
L 180.247273 41.472 
L 176.64 41.472 
L 173.032727 41.472 
L 169.425455 41.472 
L 165.818182 41.472 
L 162.210909 41.472 
L 158.603636 41.472 
L 154.996364 41.472 
L 151.389091 41.472 
L 147.781818 41.472 
L 144.174545 41.472 
L 140.567273 41.472 
L 136.96 41.472 
L 133.352727 41.472 
L 129.745455 41.472 
L 126.138182 41.472 
L 122.530909 41.472 
L 118.923636 41.472 
L 115.316364 41.472 
L 111.709091 41.472 
L 108.101818 41.472 
L 104.494545 41.472 
L 100.887273 41.472 
L 97.28 41.472 
L 93.672727 41.472 
L 90.065455 41.472 
L 86.458182 41.472 
L 82.850909 41.472 
L 79.243636 41.472 
L 75.636364 41.472 
L 72.029091 41.472 
L 68.421818 41.472 
L 64.814545 41.472 
L 61.207273 41.472 
L 57.6 41.472 
L 57.6 44.16 
L 57.6 46.848 
L 57.6 49.536 
L 57.6 52.224 
L 57.6 54.912 
L 57.6 57.6 
L 57.6 60.288 
L 57.6 62.976 
L 57.6 65.664 
L 57.6 68.352 
L 57.6 71.04 
L 57.6 73.728 
L 57.6 76.416 
L 57.6 76.667979 
z
" clip-path="url(#pc54fd441ba)" style="fill: #d0e11c; fill-opacity: 0.75"/>
   </g>
   <g id="matplotlib.axis_1">
    <g id="xtick_1">
     <g id="line2d_1">
      <defs>
       <path id="mff64394769" d="M 0 0 
L 0 3.5 
" style="stroke: #000000; stroke-width: 0.8"/>
      </defs>
      <g>
       <use xlink:href="#mff64394769" x="117.804183" y="307.584" style="stroke: #000000; stroke-width: 0.8"/>
      </g>
     </g>
     <g id="text_1">
      <!-- 5 -->
      <g transform="translate(114.622933 322.182437) scale(0.1 -0.1)">
       <defs>
        <path id="DejaVuSans-35" d="M 691 4666 
L 3169 4666 
L 3169 4134 
L 1269 4134 
L 1269 2991 
Q 1406 3038 1543 3061 
Q 1681 3084 1819 3084 
Q 2600 3084 3056 2656 
Q 3513 2228 3513 1497 
Q 3513 744 3044 326 
Q 2575 -91 1722 -91 
Q 1428 -91 1123 -41 
Q 819 9 494 109 
L 494 744 
Q 775 591 1075 516 
Q 1375 441 1709 441 
Q 2250 441 2565 725 
Q 2881 1009 2881 1497 
Q 2881 1984 2565 2268 
Q 2250 2553 1709 2553 
Q 1456 2553 1204 2497 
Q 953 2441 691 2322 
L 691 4666 
z
" transform="scale(0.015625)"/>
       </defs>
       <use xlink:href="#DejaVuSans-35"/>
      </g>
     </g>
    </g>
    <g id="xtick_2">
     <g id="line2d_2">
      <g>
       <use xlink:href="#mff64394769" x="191.10949" y="307.584" style="stroke: #000000; stroke-width: 0.8"/>
      </g>
     </g>
     <g id="text_2">
      <!-- 10 -->
      <g transform="translate(184.74699 322.182437) scale(0.1 -0.1)">
       <defs>
        <path id="DejaVuSans-31" d="M 794 531 
L 1825 531 
L 1825 4091 
L 703 3866 
L 703 4441 
L 1819 4666 
L 2450 4666 
L 2450 531 
L 3481 531 
L 3481 0 
L 794 0 
L 794 531 
z
" transform="scale(0.015625)"/>
        <path id="DejaVuSans-30" d="M 2034 4250 
Q 1547 4250 1301 3770 
Q 1056 3291 1056 2328 
Q 1056 1369 1301 889 
Q 1547 409 2034 409 
Q 2525 409 2770 889 
Q 3016 1369 3016 2328 
Q 3016 3291 2770 3770 
Q 2525 4250 2034 4250 
z
M 2034 4750 
Q 2819 4750 3233 4129 
Q 3647 3509 3647 2328 
Q 3647 1150 3233 529 
Q 2819 -91 2034 -91 
Q 1250 -91 836 529 
Q 422 1150 422 2328 
Q 422 3509 836 4129 
Q 1250 4750 2034 4750 
z
" transform="scale(0.015625)"/>
       </defs>
       <use xlink:href="#DejaVuSans-31"/>
       <use xlink:href="#DejaVuSans-30" x="63.623047"/>
      </g>
     </g>
    </g>
    <g id="xtick_3">
     <g id="line2d_3">
      <g>
       <use xlink:href="#mff64394769" x="264.414798" y="307.584" style="stroke: #000000; stroke-width: 0.8"/>
      </g>
     </g>
     <g id="text_3">
      <!-- 15 -->
      <g transform="translate(258.052298 322.182437) scale(0.1 -0.1)">
       <use xlink:href="#DejaVuSans-31"/>
       <use xlink:href="#DejaVuSans-35" x="63.623047"/>
      </g>
     </g>
    </g>
    <g id="xtick_4">
     <g id="line2d_4">
      <g>
       <use xlink:href="#mff64394769" x="337.720105" y="307.584" style="stroke: #000000; stroke-width: 0.8"/>
      </g>
     </g>
     <g id="text_4">
      <!-- 20 -->
      <g transform="translate(331.357605 322.182437) scale(0.1 -0.1)">
       <defs>
        <path id="DejaVuSans-32" d="M 1228 531 
L 3431 531 
L 3431 0 
L 469 0 
L 469 531 
Q 828 903 1448 1529 
Q 2069 2156 2228 2338 
Q 2531 2678 2651 2914 
Q 2772 3150 2772 3378 
Q 2772 3750 2511 3984 
Q 2250 4219 1831 4219 
Q 1534 4219 1204 4116 
Q 875 4013 500 3803 
L 500 4441 
Q 881 4594 1212 4672 
Q 1544 4750 1819 4750 
Q 2544 4750 2975 4387 
Q 3406 4025 3406 3419 
Q 3406 3131 3298 2873 
Q 3191 2616 2906 2266 
Q 2828 2175 2409 1742 
Q 1991 1309 1228 531 
z
" transform="scale(0.015625)"/>
       </defs>
       <use xlink:href="#DejaVuSans-32"/>
       <use xlink:href="#DejaVuSans-30" x="63.623047"/>
      </g>
     </g>
    </g>
    <g id="xtick_5">
     <g id="line2d_5">
      <g>
       <use xlink:href="#mff64394769" x="411.025413" y="307.584" style="stroke: #000000; stroke-width: 0.8"/>
      </g>
     </g>
     <g id="text_5">
      <!-- 25 -->
      <g transform="translate(404.662913 322.182437) scale(0.1 -0.1)">
       <use xlink:href="#DejaVuSans-32"/>
       <use xlink:href="#DejaVuSans-35" x="63.623047"/>
      </g>
     </g>
    </g>
    <g id="text_6">
     <!-- GHG Emissions -->
     <g transform="translate(198.212344 335.860562) scale(0.1 -0.1)">
      <defs>
       <path id="DejaVuSans-47" d="M 3809 666 
L 3809 1919 
L 2778 1919 
L 2778 2438 
L 4434 2438 
L 4434 434 
Q 4069 175 3628 42 
Q 3188 -91 2688 -91 
Q 1594 -91 976 548 
Q 359 1188 359 2328 
Q 359 3472 976 4111 
Q 1594 4750 2688 4750 
Q 3144 4750 3555 4637 
Q 3966 4525 4313 4306 
L 4313 3634 
Q 3963 3931 3569 4081 
Q 3175 4231 2741 4231 
Q 1884 4231 1454 3753 
Q 1025 3275 1025 2328 
Q 1025 1384 1454 906 
Q 1884 428 2741 428 
Q 3075 428 3337 486 
Q 3600 544 3809 666 
z
" transform="scale(0.015625)"/>
       <path id="DejaVuSans-48" d="M 628 4666 
L 1259 4666 
L 1259 2753 
L 3553 2753 
L 3553 4666 
L 4184 4666 
L 4184 0 
L 3553 0 
L 3553 2222 
L 1259 2222 
L 1259 0 
L 628 0 
L 628 4666 
z
" transform="scale(0.015625)"/>
       <path id="DejaVuSans-20" transform="scale(0.015625)"/>
       <path id="DejaVuSans-45" d="M 628 4666 
L 3578 4666 
L 3578 4134 
L 1259 4134 
L 1259 2753 
L 3481 2753 
L 3481 2222 
L 1259 2222 
L 1259 531 
L 3634 531 
L 3634 0 
L 628 0 
L 628 4666 
z
" transform="scale(0.015625)"/>
       <path id="DejaVuSans-6d" d="M 3328 2828 
Q 3544 3216 3844 3400 
Q 4144 3584 4550 3584 
Q 5097 3584 5394 3201 
Q 5691 2819 5691 2113 
L 5691 0 
L 5113 0 
L 5113 2094 
Q 5113 2597 4934 2840 
Q 4756 3084 4391 3084 
Q 3944 3084 3684 2787 
Q 3425 2491 3425 1978 
L 3425 0 
L 2847 0 
L 2847 2094 
Q 2847 2600 2669 2842 
Q 2491 3084 2119 3084 
Q 1678 3084 1418 2786 
Q 1159 2488 1159 1978 
L 1159 0 
L 581 0 
L 581 3500 
L 1159 3500 
L 1159 2956 
Q 1356 3278 1631 3431 
Q 1906 3584 2284 3584 
Q 2666 3584 2933 3390 
Q 3200 3197 3328 2828 
z
" transform="scale(0.015625)"/>
       <path id="DejaVuSans-69" d="M 603 3500 
L 1178 3500 
L 1178 0 
L 603 0 
L 603 3500 
z
M 603 4863 
L 1178 4863 
L 1178 4134 
L 603 4134 
L 603 4863 
z
" transform="scale(0.015625)"/>
       <path id="DejaVuSans-73" d="M 2834 3397 
L 2834 2853 
Q 2591 2978 2328 3040 
Q 2066 3103 1784 3103 
Q 1356 3103 1142 2972 
Q 928 2841 928 2578 
Q 928 2378 1081 2264 
Q 1234 2150 1697 2047 
L 1894 2003 
Q 2506 1872 2764 1633 
Q 3022 1394 3022 966 
Q 3022 478 2636 193 
Q 2250 -91 1575 -91 
Q 1294 -91 989 -36 
Q 684 19 347 128 
L 347 722 
Q 666 556 975 473 
Q 1284 391 1588 391 
Q 1994 391 2212 530 
Q 2431 669 2431 922 
Q 2431 1156 2273 1281 
Q 2116 1406 1581 1522 
L 1381 1569 
Q 847 1681 609 1914 
Q 372 2147 372 2553 
Q 372 3047 722 3315 
Q 1072 3584 1716 3584 
Q 2034 3584 2315 3537 
Q 2597 3491 2834 3397 
z
" transform="scale(0.015625)"/>
       <path id="DejaVuSans-6f" d="M 1959 3097 
Q 1497 3097 1228 2736 
Q 959 2375 959 1747 
Q 959 1119 1226 758 
Q 1494 397 1959 397 
Q 2419 397 2687 759 
Q 2956 1122 2956 1747 
Q 2956 2369 2687 2733 
Q 2419 3097 1959 3097 
z
M 1959 3584 
Q 2709 3584 3137 3096 
Q 3566 2609 3566 1747 
Q 3566 888 3137 398 
Q 2709 -91 1959 -91 
Q 1206 -91 779 398 
Q 353 888 353 1747 
Q 353 2609 779 3096 
Q 1206 3584 1959 3584 
z
" transform="scale(0.015625)"/>
       <path id="DejaVuSans-6e" d="M 3513 2113 
L 3513 0 
L 2938 0 
L 2938 2094 
Q 2938 2591 2744 2837 
Q 2550 3084 2163 3084 
Q 1697 3084 1428 2787 
Q 1159 2491 1159 1978 
L 1159 0 
L 581 0 
L 581 3500 
L 1159 3500 
L 1159 2956 
Q 1366 3272 1645 3428 
Q 1925 3584 2291 3584 
Q 2894 3584 3203 3211 
Q 3513 2838 3513 2113 
z
" transform="scale(0.015625)"/>
      </defs>
      <use xlink:href="#DejaVuSans-47"/>
      <use xlink:href="#DejaVuSans-48" x="77.490234"/>
      <use xlink:href="#DejaVuSans-47" x="152.685547"/>
      <use xlink:href="#DejaVuSans-20" x="230.175781"/>
      <use xlink:href="#DejaVuSans-45" x="261.962891"/>
      <use xlink:href="#DejaVuSans-6d" x="325.146484"/>
      <use xlink:href="#DejaVuSans-69" x="422.558594"/>
      <use xlink:href="#DejaVuSans-73" x="450.341797"/>
      <use xlink:href="#DejaVuSans-73" x="502.441406"/>
      <use xlink:href="#DejaVuSans-69" x="554.541016"/>
      <use xlink:href="#DejaVuSans-6f" x="582.324219"/>
      <use xlink:href="#DejaVuSans-6e" x="643.505859"/>
      <use xlink:href="#DejaVuSans-73" x="706.884766"/>
     </g>
    </g>
   </g>
   <g id="matplotlib.axis_2">
    <g id="ytick_1">
     <g id="line2d_6">
      <defs>
       <path id="md1daf89535" d="M 0 0 
L -3.5 0 
" style="stroke: #000000; stroke-width: 0.8"/>
      </defs>
      <g>
       <use xlink:href="#md1daf89535" x="57.6" y="265.848463" style="stroke: #000000; stroke-width: 0.8"/>
      </g>
     </g>
     <g id="text_7">
      <!-- 5 -->
      <g transform="translate(44.2375 269.647682) scale(0.1 -0.1)">
       <use xlink:href="#DejaVuSans-35"/>
      </g>
     </g>
    </g>
    <g id="ytick_2">
     <g id="line2d_7">
      <g>
       <use xlink:href="#md1daf89535" x="57.6" y="212.495631" style="stroke: #000000; stroke-width: 0.8"/>
      </g>
     </g>
     <g id="text_8">
      <!-- 10 -->
      <g transform="translate(37.875 216.29485) scale(0.1 -0.1)">
       <use xlink:href="#DejaVuSans-31"/>
       <use xlink:href="#DejaVuSans-30" x="63.623047"/>
      </g>
     </g>
    </g>
    <g id="ytick_3">
     <g id="line2d_8">
      <g>
       <use xlink:href="#md1daf89535" x="57.6" y="159.142799" style="stroke: #000000; stroke-width: 0.8"/>
      </g>
     </g>
     <g id="text_9">
      <!-- 15 -->
      <g transform="translate(37.875 162.942017) scale(0.1 -0.1)">
       <use xlink:href="#DejaVuSans-31"/>
       <use xlink:href="#DejaVuSans-35" x="63.623047"/>
      </g>
     </g>
    </g>
    <g id="ytick_4">
     <g id="line2d_9">
      <g>
       <use xlink:href="#md1daf89535" x="57.6" y="105.789966" style="stroke: #000000; stroke-width: 0.8"/>
      </g>
     </g>
     <g id="text_10">
      <!-- 20 -->
      <g transform="translate(37.875 109.589185) scale(0.1 -0.1)">
       <use xlink:href="#DejaVuSans-32"/>
       <use xlink:href="#DejaVuSans-30" x="63.623047"/>
      </g>
     </g>
    </g>
    <g id="ytick_5">
     <g id="line2d_10">
      <g>
       <use xlink:href="#md1daf89535" x="57.6" y="52.437134" style="stroke: #000000; stroke-width: 0.8"/>
      </g>
     </g>
     <g id="text_11">
      <!-- 25 -->
      <g transform="translate(37.875 56.236353) scale(0.1 -0.1)">
       <use xlink:href="#DejaVuSans-32"/>
       <use xlink:href="#DejaVuSans-35" x="63.623047"/>
      </g>
     </g>
    </g>
    <g id="text_12">
     <!-- Beef Consumption -->
     <g transform="translate(31.795312 220.575656) rotate(-90) scale(0.1 -0.1)">
      <defs>
       <path id="DejaVuSans-42" d="M 1259 2228 
L 1259 519 
L 2272 519 
Q 2781 519 3026 730 
Q 3272 941 3272 1375 
Q 3272 1813 3026 2020 
Q 2781 2228 2272 2228 
L 1259 2228 
z
M 1259 4147 
L 1259 2741 
L 2194 2741 
Q 2656 2741 2882 2914 
Q 3109 3088 3109 3444 
Q 3109 3797 2882 3972 
Q 2656 4147 2194 4147 
L 1259 4147 
z
M 628 4666 
L 2241 4666 
Q 2963 4666 3353 4366 
Q 3744 4066 3744 3513 
Q 3744 3084 3544 2831 
Q 3344 2578 2956 2516 
Q 3422 2416 3680 2098 
Q 3938 1781 3938 1306 
Q 3938 681 3513 340 
Q 3088 0 2303 0 
L 628 0 
L 628 4666 
z
" transform="scale(0.015625)"/>
       <path id="DejaVuSans-65" d="M 3597 1894 
L 3597 1613 
L 953 1613 
Q 991 1019 1311 708 
Q 1631 397 2203 397 
Q 2534 397 2845 478 
Q 3156 559 3463 722 
L 3463 178 
Q 3153 47 2828 -22 
Q 2503 -91 2169 -91 
Q 1331 -91 842 396 
Q 353 884 353 1716 
Q 353 2575 817 3079 
Q 1281 3584 2069 3584 
Q 2775 3584 3186 3129 
Q 3597 2675 3597 1894 
z
M 3022 2063 
Q 3016 2534 2758 2815 
Q 2500 3097 2075 3097 
Q 1594 3097 1305 2825 
Q 1016 2553 972 2059 
L 3022 2063 
z
" transform="scale(0.015625)"/>
       <path id="DejaVuSans-66" d="M 2375 4863 
L 2375 4384 
L 1825 4384 
Q 1516 4384 1395 4259 
Q 1275 4134 1275 3809 
L 1275 3500 
L 2222 3500 
L 2222 3053 
L 1275 3053 
L 1275 0 
L 697 0 
L 697 3053 
L 147 3053 
L 147 3500 
L 697 3500 
L 697 3744 
Q 697 4328 969 4595 
Q 1241 4863 1831 4863 
L 2375 4863 
z
" transform="scale(0.015625)"/>
       <path id="DejaVuSans-43" d="M 4122 4306 
L 4122 3641 
Q 3803 3938 3442 4084 
Q 3081 4231 2675 4231 
Q 1875 4231 1450 3742 
Q 1025 3253 1025 2328 
Q 1025 1406 1450 917 
Q 1875 428 2675 428 
Q 3081 428 3442 575 
Q 3803 722 4122 1019 
L 4122 359 
Q 3791 134 3420 21 
Q 3050 -91 2638 -91 
Q 1578 -91 968 557 
Q 359 1206 359 2328 
Q 359 3453 968 4101 
Q 1578 4750 2638 4750 
Q 3056 4750 3426 4639 
Q 3797 4528 4122 4306 
z
" transform="scale(0.015625)"/>
       <path id="DejaVuSans-75" d="M 544 1381 
L 544 3500 
L 1119 3500 
L 1119 1403 
Q 1119 906 1312 657 
Q 1506 409 1894 409 
Q 2359 409 2629 706 
Q 2900 1003 2900 1516 
L 2900 3500 
L 3475 3500 
L 3475 0 
L 2900 0 
L 2900 538 
Q 2691 219 2414 64 
Q 2138 -91 1772 -91 
Q 1169 -91 856 284 
Q 544 659 544 1381 
z
M 1991 3584 
L 1991 3584 
z
" transform="scale(0.015625)"/>
       <path id="DejaVuSans-70" d="M 1159 525 
L 1159 -1331 
L 581 -1331 
L 581 3500 
L 1159 3500 
L 1159 2969 
Q 1341 3281 1617 3432 
Q 1894 3584 2278 3584 
Q 2916 3584 3314 3078 
Q 3713 2572 3713 1747 
Q 3713 922 3314 415 
Q 2916 -91 2278 -91 
Q 1894 -91 1617 61 
Q 1341 213 1159 525 
z
M 3116 1747 
Q 3116 2381 2855 2742 
Q 2594 3103 2138 3103 
Q 1681 3103 1420 2742 
Q 1159 2381 1159 1747 
Q 1159 1113 1420 752 
Q 1681 391 2138 391 
Q 2594 391 2855 752 
Q 3116 1113 3116 1747 
z
" transform="scale(0.015625)"/>
       <path id="DejaVuSans-74" d="M 1172 4494 
L 1172 3500 
L 2356 3500 
L 2356 3053 
L 1172 3053 
L 1172 1153 
Q 1172 725 1289 603 
Q 1406 481 1766 481 
L 2356 481 
L 2356 0 
L 1766 0 
Q 1100 0 847 248 
Q 594 497 594 1153 
L 594 3053 
L 172 3053 
L 172 3500 
L 594 3500 
L 594 4494 
L 1172 4494 
z
" transform="scale(0.015625)"/>
      </defs>
      <use xlink:href="#DejaVuSans-42"/>
      <use xlink:href="#DejaVuSans-65" x="68.603516"/>
      <use xlink:href="#DejaVuSans-65" x="130.126953"/>
      <use xlink:href="#DejaVuSans-66" x="191.650391"/>
      <use xlink:href="#DejaVuSans-20" x="226.855469"/>
      <use xlink:href="#DejaVuSans-43" x="258.642578"/>
      <use xlink:href="#DejaVuSans-6f" x="328.466797"/>
      <use xlink:href="#DejaVuSans-6e" x="389.648438"/>
      <use xlink:href="#DejaVuSans-73" x="453.027344"/>
      <use xlink:href="#DejaVuSans-75" x="505.126953"/>
      <use xlink:href="#DejaVuSans-6d" x="568.505859"/>
      <use xlink:href="#DejaVuSans-70" x="665.917969"/>
      <use xlink:href="#DejaVuSans-74" x="729.394531"/>
      <use xlink:href="#DejaVuSans-69" x="768.603516"/>
      <use xlink:href="#DejaVuSans-6f" x="796.386719"/>
      <use xlink:href="#DejaVuSans-6e" x="857.568359"/>
     </g>
    </g>
   </g>
   <g id="PathCollection_8"/>
   <g id="PathCollection_9">
    <path d="M 213.5065 307.584 
L 216.32 307.293606 
L 219.927273 306.914336 
L 223.534545 306.528118 
L 227.141818 306.134946 
L 230.749091 305.734814 
L 234.356364 305.327716 
L 237.963636 304.913646 
L 238.114815 304.896 
L 241.570909 304.492495 
L 245.178182 304.064353 
L 248.785455 303.629218 
L 252.392727 303.187085 
L 256 302.737945 
L 256.232225 302.70858 
" clip-path="url(#pc54fd441ba)" style="fill: none; stroke: #000000; stroke-width: 0.5"/>
    <path d="M 291.817587 297.894911 
L 292.072727 297.858143 
L 295.68 297.331207 
L 299.052071 296.832 
L 299.287273 296.797168 
L 302.894545 296.255883 
L 306.501818 295.707488 
L 310.109091 295.151977 
L 313.716364 294.589341 
L 316.535932 294.144 
L 317.323636 294.019536 
L 320.930909 293.442454 
L 324.538182 292.858223 
L 328.145455 292.266835 
L 331.752727 291.668282 
L 333.017026 291.456 
L 335.36 291.062432 
L 338.967273 290.449332 
L 342.574545 289.829042 
L 346.181818 289.201552 
L 348.645999 288.768 
L 349.789091 288.566788 
L 353.396364 287.924666 
L 357.003636 287.275317 
L 360.610909 286.618734 
L 363.538513 286.08 
L 364.218182 285.954865 
L 367.825455 285.28356 
L 371.432727 284.604994 
L 375.04 283.919156 
L 377.783665 283.392 
L 378.647273 283.22598 
L 382.254545 282.52533 
L 385.861818 281.81738 
L 389.469091 281.102122 
L 391.456801 280.704 
L 393.076364 280.379429 
L 396.683636 279.649263 
L 400.290909 278.91176 
L 403.898182 278.166911 
L 404.622025 278.016 
L 407.505455 277.41448 
L 411.112727 276.654626 
L 414.72 275.887396 
" clip-path="url(#pc54fd441ba)" style="fill: none; stroke: #000000; stroke-width: 0.5"/>
   </g>
   <g id="PathCollection_10">
    <path d="M 57.6 270.50356 
L 61.207273 270.440527 
L 64.814545 270.370416 
L 68.421818 270.293226 
L 72.029091 270.208953 
L 75.636364 270.117595 
L 79.243636 270.019149 
L 81.5386 269.952 
L 82.850909 269.913595 
L 86.458182 269.800909 
L 90.065455 269.681124 
L 93.672727 269.554238 
L 97.28 269.420247 
L 100.887273 269.279149 
L 104.494545 269.13094 
L 108.101818 268.975618 
L 111.709091 268.813179 
L 115.316364 268.643619 
L 118.923636 268.466937 
L 122.530909 268.283127 
L 126.138182 268.092187 
L 129.745455 267.894113 
L 133.352727 267.688902 
L 136.96 267.476549 
L 140.453054 267.264 
L 140.567273 267.257048 
L 144.174545 267.030283 
L 147.781818 266.796362 
L 151.389091 266.555281 
L 154.996364 266.307036 
L 158.603636 266.051622 
L 162.210909 265.789036 
L 165.818182 265.519272 
L 169.425455 265.242327 
L 173.032727 264.958196 
L 176.64 264.666875 
L 177.738028 264.576 
L 180.247273 264.368249 
L 183.854545 264.062372 
L 187.461818 263.749287 
L 191.069091 263.428989 
L 194.676364 263.101474 
L 198.283636 262.766736 
L 201.890909 262.424771 
L 205.498182 262.075574 
L 207.396418 261.888 
L 209.105455 261.719047 
L 212.712727 261.355173 
L 216.32 260.984047 
L 219.927273 260.605663 
L 223.534545 260.220018 
L 227.141818 259.827104 
L 230.749091 259.426917 
L 230.952383 259.403953 
" clip-path="url(#pc54fd441ba)" style="fill: none; stroke: #000000; stroke-width: 0.5"/>
    <path d="M 266.596882 255.050139 
L 266.821818 255.020597 
L 270.429091 254.539482 
L 274.036364 254.051015 
L 275.687965 253.824 
L 277.643636 253.555033 
L 281.250909 253.051551 
L 284.858182 252.540692 
L 288.465455 252.022451 
L 292.072727 251.49682 
L 294.514613 251.136 
L 295.68 250.963691 
L 299.287273 250.422943 
L 302.894545 249.874781 
L 306.501818 249.319198 
L 310.109091 248.756188 
L 312.058007 248.448 
L 313.716364 248.185584 
L 317.323636 247.60735 
L 320.930909 247.021662 
L 324.538182 246.428514 
L 328.145455 245.827898 
L 328.548268 245.76 
L 331.752727 245.219476 
L 335.36 244.603525 
L 338.967273 243.980081 
L 342.574545 243.349135 
L 344.140459 243.072 
L 346.181818 242.710453 
L 349.789091 242.064077 
L 353.396364 241.410172 
L 357.003636 240.74873 
L 358.97044 240.384 
L 360.610909 240.07955 
L 364.218182 239.40258 
L 367.825455 238.718046 
L 371.432727 238.025939 
L 373.133888 237.696 
L 375.04 237.326011 
L 378.647273 236.618275 
L 382.254545 235.902937 
L 385.861818 235.179991 
L 386.711167 235.008 
L 389.469091 234.449055 
L 393.076364 233.710376 
L 396.683636 232.964057 
L 399.765152 232.32 
L 400.290909 232.210017 
L 403.898182 231.44788 
L 407.505455 230.678075 
L 411.112727 229.900592 
L 412.346891 229.632 
L 414.72 229.115067 
" clip-path="url(#pc54fd441ba)" style="fill: none; stroke: #000000; stroke-width: 0.5"/>
   </g>
   <g id="PathCollection_11">
    <path d="M 57.6 223.41034 
L 61.207273 223.362895 
L 64.814545 223.308005 
L 68.421818 223.245669 
L 72.029091 223.175883 
L 75.636364 223.098648 
L 79.243636 223.013959 
L 82.850909 222.921815 
L 86.458182 222.822215 
L 90.065455 222.715155 
L 93.672727 222.600633 
L 97.28 222.478648 
L 100.887273 222.349196 
L 104.494545 222.212275 
L 108.101818 222.067882 
L 111.709091 221.916014 
L 115.316364 221.756669 
L 118.923636 221.589844 
L 119.375604 221.568 
L 122.530909 221.41541 
L 126.138182 221.233466 
L 129.745455 221.044026 
L 133.352727 220.847088 
L 136.96 220.642649 
L 140.567273 220.430705 
L 144.174545 220.211253 
L 147.781818 219.984289 
L 151.389091 219.74981 
L 154.996364 219.507812 
L 158.603636 219.258292 
L 162.210909 219.001245 
L 163.863822 218.88 
L 165.818182 218.736549 
L 169.425455 218.464211 
L 173.032727 218.18433 
L 176.64 217.896901 
L 180.247273 217.60192 
L 183.854545 217.299383 
L 187.461818 216.989286 
L 191.069091 216.671625 
L 194.676364 216.346394 
L 196.349734 216.192 
L 198.283636 216.013439 
L 201.890909 215.67277 
L 205.498182 215.324511 
L 209.105455 214.96866 
L 212.712727 214.605212 
L 216.32 214.23416 
L 219.927273 213.855502 
L 223.209816 213.504 
L 223.534545 213.469201 
L 227.141818 213.074974 
L 230.749091 212.673119 
L 230.953866 212.649873 
" clip-path="url(#pc54fd441ba)" style="fill: none; stroke: #000000; stroke-width: 0.5"/>
    <path d="M 266.594107 208.261837 
L 266.821818 208.231609 
L 267.589979 208.128 
L 270.429091 207.744731 
L 274.036364 207.250055 
L 277.643636 206.747667 
L 281.250909 206.237561 
L 284.858182 205.719731 
L 286.778164 205.44 
L 288.465455 205.193949 
L 292.072727 204.660174 
L 295.68 204.11865 
L 299.287273 203.569371 
L 302.894545 203.01233 
L 304.557231 202.752 
L 306.501818 202.447244 
L 310.109091 201.874141 
L 313.716364 201.293251 
L 317.323636 200.704567 
L 320.930909 200.108082 
L 321.194067 200.064 
L 324.538182 199.503273 
L 328.145455 198.890604 
L 331.752727 198.270108 
L 335.36 197.641778 
L 336.867109 197.376 
L 338.967273 197.00526 
L 342.574545 196.360639 
L 346.181818 195.708158 
L 349.789091 195.047807 
L 351.731526 194.688 
L 353.396364 194.379288 
L 357.003636 193.702539 
L 360.610909 193.017893 
L 364.218182 192.325343 
L 365.893766 192 
L 367.825455 191.624521 
L 371.432727 190.915461 
L 375.04 190.198468 
L 378.647273 189.473535 
L 379.442445 189.312 
L 382.254545 188.740096 
L 385.861818 187.998538 
L 389.469091 187.249011 
L 392.445502 186.624 
L 393.076364 186.491374 
L 396.683636 185.725127 
L 400.290909 184.95088 
L 403.898182 184.168625 
L 404.96016 183.936 
L 407.505455 183.377795 
L 411.112727 182.578702 
L 414.72 181.77157 
" clip-path="url(#pc54fd441ba)" style="fill: none; stroke: #000000; stroke-width: 0.5"/>
   </g>
   <g id="PathCollection_12">
    <path d="M 57.6 175.624003 
L 61.207273 175.592787 
L 64.814545 175.553711 
L 68.421818 175.506775 
L 72.029091 175.451977 
L 75.636364 175.389316 
L 79.243636 175.31879 
L 82.850909 175.240397 
L 86.458182 175.154136 
L 90.065455 175.060005 
L 93.672727 174.958002 
L 97.28 174.848126 
L 100.887273 174.730373 
L 104.494545 174.604743 
L 108.101818 174.471233 
L 111.709091 174.329841 
L 115.316364 174.180564 
L 118.923636 174.0234 
L 122.530909 173.858347 
L 126.138182 173.685403 
L 129.745455 173.504564 
L 133.352727 173.315828 
L 135.770905 173.184 
L 136.96 173.119117 
L 140.567273 172.914342 
L 144.174545 172.701653 
L 147.781818 172.481047 
L 151.389091 172.25252 
L 154.996364 172.016071 
L 158.603636 171.771695 
L 162.210909 171.51939 
L 165.818182 171.259152 
L 169.425455 170.990977 
L 173.032727 170.714864 
L 175.811989 170.496 
L 176.64 170.430731 
L 180.247273 170.138386 
L 183.854545 169.838083 
L 187.461818 169.529817 
L 191.069091 169.213584 
L 194.676364 168.889381 
L 198.283636 168.557204 
L 201.890909 168.217049 
L 205.498182 167.868911 
L 206.115102 167.808 
L 209.105455 167.512439 
L 212.712727 167.147896 
L 216.32 166.775349 
L 219.927273 166.394795 
L 223.534545 166.006228 
L 227.141818 165.609645 
L 230.749091 165.20504 
L 231.492472 165.12 
L 234.356364 164.79202 
L 234.568398 164.767264 
" clip-path="url(#pc54fd441ba)" style="fill: none; stroke: #000000; stroke-width: 0.5"/>
    <path d="M 270.192122 160.247667 
L 270.429091 160.215194 
L 273.81215 159.744 
L 274.036364 159.712734 
L 277.643636 159.201589 
L 281.250909 158.682325 
L 284.858182 158.154939 
L 288.465455 157.619425 
L 292.072727 157.075777 
L 292.202015 157.056 
L 295.68 156.523334 
L 299.287273 155.962713 
L 302.894545 155.393932 
L 306.501818 154.816985 
L 309.269839 154.368 
L 310.109091 154.231697 
L 313.716364 153.637664 
L 317.323636 153.035438 
L 320.930909 152.425013 
L 324.538182 151.806384 
L 325.265509 151.68 
L 328.145455 151.178914 
L 331.752727 150.54306 
L 335.36 149.898973 
L 338.967273 149.246647 
L 340.357919 148.992 
L 342.574545 148.585561 
L 346.181818 147.915889 
L 349.789091 147.237951 
L 353.396364 146.551739 
L 354.683222 146.304 
L 357.003636 145.856673 
L 360.610909 145.152992 
L 364.218182 144.441008 
L 367.825455 143.720715 
L 368.343937 143.616 
L 371.432727 142.991295 
L 375.04 142.253407 
L 378.647273 141.50718 
L 381.416148 140.928 
L 382.254545 140.752376 
L 385.861818 139.988448 
L 389.469091 139.216151 
L 393.076364 138.435477 
L 393.970108 138.24 
L 396.683636 137.645632 
L 400.290909 136.847126 
L 403.898182 136.040214 
L 406.058335 135.552 
L 407.505455 135.224447 
L 411.112727 134.399594 
L 414.72 133.566301 
" clip-path="url(#pc54fd441ba)" style="fill: none; stroke: #000000; stroke-width: 0.5"/>
   </g>
   <g id="PathCollection_13">
    <path d="M 57.6 126.833183 
L 61.207273 126.819183 
L 64.814545 126.796855 
L 68.421818 126.766196 
L 72.029091 126.727207 
L 75.636364 126.679886 
L 79.243636 126.624232 
L 82.850909 126.560244 
L 86.458182 126.487921 
L 90.065455 126.407262 
L 93.672727 126.318265 
L 97.28 126.220929 
L 100.887273 126.115252 
L 104.494545 126.001234 
L 108.101818 125.878872 
L 111.709091 125.748165 
L 115.316364 125.60911 
L 118.923636 125.461707 
L 122.530909 125.305953 
L 126.138182 125.141847 
L 129.745455 124.969386 
L 133.124609 124.8 
L 133.352727 124.788551 
L 136.96 124.599089 
L 140.567273 124.401254 
L 144.174545 124.195043 
L 147.781818 123.980454 
L 151.389091 123.757485 
L 154.996364 123.526132 
L 158.603636 123.286394 
L 162.210909 123.038268 
L 165.818182 122.781751 
L 169.425455 122.516841 
L 173.032727 122.243534 
L 174.716859 122.112 
L 176.64 121.9616 
L 180.247273 121.671052 
L 183.854545 121.372086 
L 187.461818 121.0647 
L 191.069091 120.748889 
L 194.676364 120.424652 
L 198.283636 120.091985 
L 201.890909 119.750883 
L 205.26435 119.424 
L 205.498182 119.401311 
L 209.105455 119.042785 
L 212.712727 118.675802 
L 216.32 118.30036 
L 219.927273 117.916454 
L 223.534545 117.524081 
L 227.141818 117.123237 
L 230.554463 116.736 
L 230.749091 116.713884 
L 234.356364 116.295442 
L 234.572394 116.269873 
" clip-path="url(#pc54fd441ba)" style="fill: none; stroke: #000000; stroke-width: 0.5"/>
    <path d="M 270.186184 111.673336 
L 270.429091 111.639373 
L 272.393852 111.36 
L 274.036364 111.126094 
L 277.643636 110.60381 
L 281.250909 110.072953 
L 284.858182 109.533519 
L 288.465455 108.985504 
L 290.497214 108.672 
L 292.072727 108.428517 
L 295.68 107.86243 
L 299.287273 107.287734 
L 302.894545 106.704424 
L 306.501818 106.112495 
L 307.273635 105.984 
L 310.109091 105.511188 
L 313.716364 104.901035 
L 317.323636 104.282234 
L 320.930909 103.654781 
L 322.965511 103.296 
L 324.538182 103.018224 
L 328.145455 102.372412 
L 331.752727 101.71792 
L 335.36 101.054741 
L 337.758583 100.608 
L 338.967273 100.382504 
L 342.574545 99.70083 
L 346.181818 99.01044 
L 349.789091 98.311329 
L 351.783429 97.92 
L 353.396364 97.602972 
L 357.003636 96.885226 
L 360.610909 96.158729 
L 364.218182 95.423475 
L 365.146577 95.232 
L 367.825455 94.678542 
L 371.432727 93.924511 
L 375.04 93.161692 
L 377.927751 92.544 
L 378.647273 92.389822 
L 382.254545 91.608106 
L 385.861818 90.817572 
L 389.469091 90.018212 
L 390.193172 89.856 
L 393.076364 89.208932 
L 396.683636 88.390528 
L 400.290909 87.563268 
L 401.996322 87.168 
L 403.898182 86.726395 
L 407.505455 85.879967 
L 411.112727 85.02465 
L 413.386247 84.48 
L 414.72 84.159889 
" clip-path="url(#pc54fd441ba)" style="fill: none; stroke: #000000; stroke-width: 0.5"/>
   </g>
   <g id="PathCollection_14">
    <path d="M 57.6 76.667979 
L 61.207273 76.672606 
L 64.814545 76.668367 
L 68.421818 76.655262 
L 72.029091 76.633291 
L 75.636364 76.602452 
L 79.243636 76.562747 
L 82.850909 76.514173 
L 86.458182 76.456731 
L 88.673636 76.416 
L 90.065455 76.390372 
L 93.672727 76.315049 
L 97.28 76.23084 
L 100.887273 76.137742 
L 104.494545 76.035755 
L 108.101818 75.924879 
L 111.709091 75.805111 
L 115.316364 75.676451 
L 118.923636 75.538898 
L 122.530909 75.392451 
L 126.138182 75.237108 
L 129.745455 75.072867 
L 133.352727 74.899728 
L 136.96 74.717689 
L 140.567273 74.526748 
L 144.174545 74.326904 
L 147.781818 74.118155 
L 151.389091 73.900498 
L 154.135379 73.728 
L 154.996364 73.673831 
L 158.603636 73.43791 
L 162.210909 73.193061 
L 165.818182 72.93928 
L 169.425455 72.676566 
L 173.032727 72.404917 
L 176.64 72.124331 
L 180.247273 71.834805 
L 183.854545 71.536337 
L 187.461818 71.228924 
L 189.615852 71.04 
L 191.069091 70.912322 
L 194.676364 70.586395 
L 198.283636 70.251499 
L 201.890909 69.907632 
L 205.498182 69.554791 
L 209.105455 69.192974 
L 212.712727 68.822178 
L 216.32 68.442399 
L 217.1587 68.352 
L 219.927273 68.053064 
L 223.534545 67.65455 
L 227.141818 67.24703 
L 230.749091 66.830498 
L 230.965178 66.805007 
" clip-path="url(#pc54fd441ba)" style="fill: none; stroke: #000000; stroke-width: 0.5"/>
    <path d="M 266.577124 62.195087 
L 266.821818 62.160575 
L 270.429091 61.642715 
L 274.036364 61.11577 
L 277.643636 60.579736 
L 279.574083 60.288 
L 281.250909 60.034112 
L 284.858182 59.478804 
L 288.465455 58.914378 
L 292.072727 58.340831 
L 295.68 57.75816 
L 296.644019 57.6 
L 299.287273 57.165502 
L 302.894545 56.563382 
L 306.501818 55.952108 
L 310.109091 55.331675 
L 312.513607 54.912 
L 313.716364 54.701662 
L 317.323636 54.061629 
L 320.930909 53.412408 
L 324.538182 52.753995 
L 327.40188 52.224 
L 328.145455 52.086108 
L 331.752727 51.407939 
L 335.36 50.720548 
L 338.967273 50.023929 
L 341.460861 49.536 
L 342.574545 49.317638 
L 346.181818 48.601105 
L 349.789091 47.875315 
L 353.396364 47.140261 
L 354.812807 46.848 
L 357.003636 46.395019 
L 360.610909 45.639892 
L 364.218182 44.87547 
L 367.553886 44.16 
L 367.825455 44.101629 
L 371.432727 43.316996 
L 375.04 42.523038 
L 378.647273 41.719748 
L 379.747086 41.472 
" clip-path="url(#pc54fd441ba)" style="fill: none; stroke: #000000; stroke-width: 0.5"/>
   </g>
   <g id="PathCollection_15"/>
   <g id="LineCollection_1">
    <path d="M 67.288029 307.584 
L 67.288029 294.2784 
" clip-path="url(#pc54fd441ba)" style="fill: none; stroke: #000000; stroke-width: 1.5"/>
    <path d="M 78.078571 307.584 
L 78.078571 294.2784 
" clip-path="url(#pc54fd441ba)" style="fill: none; stroke: #000000; stroke-width: 1.5"/>
    <path d="M 93.889059 307.584 
L 93.889059 294.2784 
" clip-path="url(#pc54fd441ba)" style="fill: none; stroke: #000000; stroke-width: 1.5"/>
    <path d="M 108.995817 307.584 
L 108.995817 294.2784 
" clip-path="url(#pc54fd441ba)" style="fill: none; stroke: #000000; stroke-width: 1.5"/>
    <path d="M 131.732191 307.584 
L 131.732191 294.2784 
" clip-path="url(#pc54fd441ba)" style="fill: none; stroke: #000000; stroke-width: 1.5"/>
    <path d="M 156.761555 307.584 
L 156.761555 294.2784 
" clip-path="url(#pc54fd441ba)" style="fill: none; stroke: #000000; stroke-width: 1.5"/>
    <path d="M 184.822827 307.584 
L 184.822827 294.2784 
" clip-path="url(#pc54fd441ba)" style="fill: none; stroke: #000000; stroke-width: 1.5"/>
    <path d="M 230.928933 307.584 
L 230.928933 294.2784 
" clip-path="url(#pc54fd441ba)" style="fill: none; stroke: #000000; stroke-width: 1.5"/>
    <path d="M 331.679748 307.584 
L 331.679748 294.2784 
" clip-path="url(#pc54fd441ba)" style="fill: none; stroke: #000000; stroke-width: 1.5"/>
   </g>
   <g id="LineCollection_2">
    <path clip-path="url(#pc54fd441ba)" style="fill: none; stroke: #000000; stroke-width: 1.5"/>
    <path clip-path="url(#pc54fd441ba)" style="fill: none; stroke: #000000; stroke-width: 1.5"/>
    <path clip-path="url(#pc54fd441ba)" style="fill: none; stroke: #000000; stroke-width: 1.5"/>
    <path clip-path="url(#pc54fd441ba)" style="fill: none; stroke: #000000; stroke-width: 1.5"/>
    <path clip-path="url(#pc54fd441ba)" style="fill: none; stroke: #000000; stroke-width: 1.5"/>
    <path clip-path="url(#pc54fd441ba)" style="fill: none; stroke: #000000; stroke-width: 1.5"/>
    <path clip-path="url(#pc54fd441ba)" style="fill: none; stroke: #000000; stroke-width: 1.5"/>
    <path clip-path="url(#pc54fd441ba)" style="fill: none; stroke: #000000; stroke-width: 1.5"/>
    <path clip-path="url(#pc54fd441ba)" style="fill: none; stroke: #000000; stroke-width: 1.5"/>
   </g>
   <g id="patch_3">
    <path d="M 57.6 307.584 
L 57.6 41.472 
" style="fill: none; stroke: #000000; stroke-width: 0.8; stroke-linejoin: miter; stroke-linecap: square"/>
   </g>
   <g id="patch_4">
    <path d="M 414.72 307.584 
L 414.72 41.472 
" style="fill: none; stroke: #000000; stroke-width: 0.8; stroke-linejoin: miter; stroke-linecap: square"/>
   </g>
   <g id="patch_5">
    <path d="M 57.6 307.584 
L 414.72 307.584 
" style="fill: none; stroke: #000000; stroke-width: 0.8; stroke-linejoin: miter; stroke-linecap: square"/>
   </g>
   <g id="patch_6">
    <path d="M 57.6 41.472 
L 414.72 41.472 
" style="fill: none; stroke: #000000; stroke-width: 0.8; stroke-linejoin: miter; stroke-linecap: square"/>
   </g>
   <g id="text_13">
    <!-- 2D-partial dependency plot between GHG and Beef -->
    <g transform="translate(81.68625 35.472) scale(0.12 -0.12)">
     <defs>
      <path id="DejaVuSans-44" d="M 1259 4147 
L 1259 519 
L 2022 519 
Q 2988 519 3436 956 
Q 3884 1394 3884 2338 
Q 3884 3275 3436 3711 
Q 2988 4147 2022 4147 
L 1259 4147 
z
M 628 4666 
L 1925 4666 
Q 3281 4666 3915 4102 
Q 4550 3538 4550 2338 
Q 4550 1131 3912 565 
Q 3275 0 1925 0 
L 628 0 
L 628 4666 
z
" transform="scale(0.015625)"/>
      <path id="DejaVuSans-2d" d="M 313 2009 
L 1997 2009 
L 1997 1497 
L 313 1497 
L 313 2009 
z
" transform="scale(0.015625)"/>
      <path id="DejaVuSans-61" d="M 2194 1759 
Q 1497 1759 1228 1600 
Q 959 1441 959 1056 
Q 959 750 1161 570 
Q 1363 391 1709 391 
Q 2188 391 2477 730 
Q 2766 1069 2766 1631 
L 2766 1759 
L 2194 1759 
z
M 3341 1997 
L 3341 0 
L 2766 0 
L 2766 531 
Q 2569 213 2275 61 
Q 1981 -91 1556 -91 
Q 1019 -91 701 211 
Q 384 513 384 1019 
Q 384 1609 779 1909 
Q 1175 2209 1959 2209 
L 2766 2209 
L 2766 2266 
Q 2766 2663 2505 2880 
Q 2244 3097 1772 3097 
Q 1472 3097 1187 3025 
Q 903 2953 641 2809 
L 641 3341 
Q 956 3463 1253 3523 
Q 1550 3584 1831 3584 
Q 2591 3584 2966 3190 
Q 3341 2797 3341 1997 
z
" transform="scale(0.015625)"/>
      <path id="DejaVuSans-72" d="M 2631 2963 
Q 2534 3019 2420 3045 
Q 2306 3072 2169 3072 
Q 1681 3072 1420 2755 
Q 1159 2438 1159 1844 
L 1159 0 
L 581 0 
L 581 3500 
L 1159 3500 
L 1159 2956 
Q 1341 3275 1631 3429 
Q 1922 3584 2338 3584 
Q 2397 3584 2469 3576 
Q 2541 3569 2628 3553 
L 2631 2963 
z
" transform="scale(0.015625)"/>
      <path id="DejaVuSans-6c" d="M 603 4863 
L 1178 4863 
L 1178 0 
L 603 0 
L 603 4863 
z
" transform="scale(0.015625)"/>
      <path id="DejaVuSans-64" d="M 2906 2969 
L 2906 4863 
L 3481 4863 
L 3481 0 
L 2906 0 
L 2906 525 
Q 2725 213 2448 61 
Q 2172 -91 1784 -91 
Q 1150 -91 751 415 
Q 353 922 353 1747 
Q 353 2572 751 3078 
Q 1150 3584 1784 3584 
Q 2172 3584 2448 3432 
Q 2725 3281 2906 2969 
z
M 947 1747 
Q 947 1113 1208 752 
Q 1469 391 1925 391 
Q 2381 391 2643 752 
Q 2906 1113 2906 1747 
Q 2906 2381 2643 2742 
Q 2381 3103 1925 3103 
Q 1469 3103 1208 2742 
Q 947 2381 947 1747 
z
" transform="scale(0.015625)"/>
      <path id="DejaVuSans-63" d="M 3122 3366 
L 3122 2828 
Q 2878 2963 2633 3030 
Q 2388 3097 2138 3097 
Q 1578 3097 1268 2742 
Q 959 2388 959 1747 
Q 959 1106 1268 751 
Q 1578 397 2138 397 
Q 2388 397 2633 464 
Q 2878 531 3122 666 
L 3122 134 
Q 2881 22 2623 -34 
Q 2366 -91 2075 -91 
Q 1284 -91 818 406 
Q 353 903 353 1747 
Q 353 2603 823 3093 
Q 1294 3584 2113 3584 
Q 2378 3584 2631 3529 
Q 2884 3475 3122 3366 
z
" transform="scale(0.015625)"/>
      <path id="DejaVuSans-79" d="M 2059 -325 
Q 1816 -950 1584 -1140 
Q 1353 -1331 966 -1331 
L 506 -1331 
L 506 -850 
L 844 -850 
Q 1081 -850 1212 -737 
Q 1344 -625 1503 -206 
L 1606 56 
L 191 3500 
L 800 3500 
L 1894 763 
L 2988 3500 
L 3597 3500 
L 2059 -325 
z
" transform="scale(0.015625)"/>
      <path id="DejaVuSans-62" d="M 3116 1747 
Q 3116 2381 2855 2742 
Q 2594 3103 2138 3103 
Q 1681 3103 1420 2742 
Q 1159 2381 1159 1747 
Q 1159 1113 1420 752 
Q 1681 391 2138 391 
Q 2594 391 2855 752 
Q 3116 1113 3116 1747 
z
M 1159 2969 
Q 1341 3281 1617 3432 
Q 1894 3584 2278 3584 
Q 2916 3584 3314 3078 
Q 3713 2572 3713 1747 
Q 3713 922 3314 415 
Q 2916 -91 2278 -91 
Q 1894 -91 1617 61 
Q 1341 213 1159 525 
L 1159 0 
L 581 0 
L 581 4863 
L 1159 4863 
L 1159 2969 
z
" transform="scale(0.015625)"/>
      <path id="DejaVuSans-77" d="M 269 3500 
L 844 3500 
L 1563 769 
L 2278 3500 
L 2956 3500 
L 3675 769 
L 4391 3500 
L 4966 3500 
L 4050 0 
L 3372 0 
L 2619 2869 
L 1863 0 
L 1184 0 
L 269 3500 
z
" transform="scale(0.015625)"/>
     </defs>
     <use xlink:href="#DejaVuSans-32"/>
     <use xlink:href="#DejaVuSans-44" x="63.623047"/>
     <use xlink:href="#DejaVuSans-2d" x="140.625"/>
     <use xlink:href="#DejaVuSans-70" x="176.708984"/>
     <use xlink:href="#DejaVuSans-61" x="240.185547"/>
     <use xlink:href="#DejaVuSans-72" x="301.464844"/>
     <use xlink:href="#DejaVuSans-74" x="342.578125"/>
     <use xlink:href="#DejaVuSans-69" x="381.787109"/>
     <use xlink:href="#DejaVuSans-61" x="409.570312"/>
     <use xlink:href="#DejaVuSans-6c" x="470.849609"/>
     <use xlink:href="#DejaVuSans-20" x="498.632812"/>
     <use xlink:href="#DejaVuSans-64" x="530.419922"/>
     <use xlink:href="#DejaVuSans-65" x="593.896484"/>
     <use xlink:href="#DejaVuSans-70" x="655.419922"/>
     <use xlink:href="#DejaVuSans-65" x="718.896484"/>
     <use xlink:href="#DejaVuSans-6e" x="780.419922"/>
     <use xlink:href="#DejaVuSans-64" x="843.798828"/>
     <use xlink:href="#DejaVuSans-65" x="907.275391"/>
     <use xlink:href="#DejaVuSans-6e" x="968.798828"/>
     <use xlink:href="#DejaVuSans-63" x="1032.177734"/>
     <use xlink:href="#DejaVuSans-79" x="1087.158203"/>
     <use xlink:href="#DejaVuSans-20" x="1146.337891"/>
     <use xlink:href="#DejaVuSans-70" x="1178.125"/>
     <use xlink:href="#DejaVuSans-6c" x="1241.601562"/>
     <use xlink:href="#DejaVuSans-6f" x="1269.384766"/>
     <use xlink:href="#DejaVuSans-74" x="1330.566406"/>
     <use xlink:href="#DejaVuSans-20" x="1369.775391"/>
     <use xlink:href="#DejaVuSans-62" x="1401.5625"/>
     <use xlink:href="#DejaVuSans-65" x="1465.039062"/>
     <use xlink:href="#DejaVuSans-74" x="1526.5625"/>
     <use xlink:href="#DejaVuSans-77" x="1565.771484"/>
     <use xlink:href="#DejaVuSans-65" x="1647.558594"/>
     <use xlink:href="#DejaVuSans-65" x="1709.082031"/>
     <use xlink:href="#DejaVuSans-6e" x="1770.605469"/>
     <use xlink:href="#DejaVuSans-20" x="1833.984375"/>
     <use xlink:href="#DejaVuSans-47" x="1865.771484"/>
     <use xlink:href="#DejaVuSans-48" x="1943.261719"/>
     <use xlink:href="#DejaVuSans-47" x="2018.457031"/>
     <use xlink:href="#DejaVuSans-20" x="2095.947266"/>
     <use xlink:href="#DejaVuSans-61" x="2127.734375"/>
     <use xlink:href="#DejaVuSans-6e" x="2189.013672"/>
     <use xlink:href="#DejaVuSans-64" x="2252.392578"/>
     <use xlink:href="#DejaVuSans-20" x="2315.869141"/>
     <use xlink:href="#DejaVuSans-42" x="2347.65625"/>
     <use xlink:href="#DejaVuSans-65" x="2416.259766"/>
     <use xlink:href="#DejaVuSans-65" x="2477.783203"/>
     <use xlink:href="#DejaVuSans-66" x="2539.306641"/>
    </g>
   </g>
   <g id="text_14">
    <g clip-path="url(#pc54fd441ba)">
     <!-- 10.30 -->
     <g transform="translate(260.22139 305.039729) rotate(-7.703742) scale(0.1 -0.1)">
      <defs>
       <path id="DejaVuSans-2e" d="M 684 794 
L 1344 794 
L 1344 0 
L 684 0 
L 684 794 
z
" transform="scale(0.015625)"/>
       <path id="DejaVuSans-33" d="M 2597 2516 
Q 3050 2419 3304 2112 
Q 3559 1806 3559 1356 
Q 3559 666 3084 287 
Q 2609 -91 1734 -91 
Q 1441 -91 1130 -33 
Q 819 25 488 141 
L 488 750 
Q 750 597 1062 519 
Q 1375 441 1716 441 
Q 2309 441 2620 675 
Q 2931 909 2931 1356 
Q 2931 1769 2642 2001 
Q 2353 2234 1838 2234 
L 1294 2234 
L 1294 2753 
L 1863 2753 
Q 2328 2753 2575 2939 
Q 2822 3125 2822 3475 
Q 2822 3834 2567 4026 
Q 2313 4219 1838 4219 
Q 1578 4219 1281 4162 
Q 984 4106 628 3988 
L 628 4550 
Q 988 4650 1302 4700 
Q 1616 4750 1894 4750 
Q 2613 4750 3031 4423 
Q 3450 4097 3450 3541 
Q 3450 3153 3228 2886 
Q 3006 2619 2597 2516 
z
" transform="scale(0.015625)"/>
      </defs>
      <use xlink:href="#DejaVuSans-31"/>
      <use xlink:href="#DejaVuSans-30" x="63.623047"/>
      <use xlink:href="#DejaVuSans-2e" x="127.246094"/>
      <use xlink:href="#DejaVuSans-33" x="159.033203"/>
      <use xlink:href="#DejaVuSans-30" x="222.65625"/>
     </g>
    </g>
   </g>
   <g id="text_15">
    <g clip-path="url(#pc54fd441ba)">
     <!-- 10.48 -->
     <g transform="translate(234.911547 261.79015) rotate(-6.963889) scale(0.1 -0.1)">
      <defs>
       <path id="DejaVuSans-34" d="M 2419 4116 
L 825 1625 
L 2419 1625 
L 2419 4116 
z
M 2253 4666 
L 3047 4666 
L 3047 1625 
L 3713 1625 
L 3713 1100 
L 3047 1100 
L 3047 0 
L 2419 0 
L 2419 1100 
L 313 1100 
L 313 1709 
L 2253 4666 
z
" transform="scale(0.015625)"/>
       <path id="DejaVuSans-38" d="M 2034 2216 
Q 1584 2216 1326 1975 
Q 1069 1734 1069 1313 
Q 1069 891 1326 650 
Q 1584 409 2034 409 
Q 2484 409 2743 651 
Q 3003 894 3003 1313 
Q 3003 1734 2745 1975 
Q 2488 2216 2034 2216 
z
M 1403 2484 
Q 997 2584 770 2862 
Q 544 3141 544 3541 
Q 544 4100 942 4425 
Q 1341 4750 2034 4750 
Q 2731 4750 3128 4425 
Q 3525 4100 3525 3541 
Q 3525 3141 3298 2862 
Q 3072 2584 2669 2484 
Q 3125 2378 3379 2068 
Q 3634 1759 3634 1313 
Q 3634 634 3220 271 
Q 2806 -91 2034 -91 
Q 1263 -91 848 271 
Q 434 634 434 1313 
Q 434 1759 690 2068 
Q 947 2378 1403 2484 
z
M 1172 3481 
Q 1172 3119 1398 2916 
Q 1625 2713 2034 2713 
Q 2441 2713 2670 2916 
Q 2900 3119 2900 3481 
Q 2900 3844 2670 4047 
Q 2441 4250 2034 4250 
Q 1625 4250 1398 4047 
Q 1172 3844 1172 3481 
z
" transform="scale(0.015625)"/>
      </defs>
      <use xlink:href="#DejaVuSans-31"/>
      <use xlink:href="#DejaVuSans-30" x="63.623047"/>
      <use xlink:href="#DejaVuSans-2e" x="127.246094"/>
      <use xlink:href="#DejaVuSans-34" x="159.033203"/>
      <use xlink:href="#DejaVuSans-38" x="222.65625"/>
     </g>
    </g>
   </g>
   <g id="text_16">
    <g clip-path="url(#pc54fd441ba)">
     <!-- 10.65 -->
     <g transform="translate(234.915859 215.036862) rotate(-7.019023) scale(0.1 -0.1)">
      <defs>
       <path id="DejaVuSans-36" d="M 2113 2584 
Q 1688 2584 1439 2293 
Q 1191 2003 1191 1497 
Q 1191 994 1439 701 
Q 1688 409 2113 409 
Q 2538 409 2786 701 
Q 3034 994 3034 1497 
Q 3034 2003 2786 2293 
Q 2538 2584 2113 2584 
z
M 3366 4563 
L 3366 3988 
Q 3128 4100 2886 4159 
Q 2644 4219 2406 4219 
Q 1781 4219 1451 3797 
Q 1122 3375 1075 2522 
Q 1259 2794 1537 2939 
Q 1816 3084 2150 3084 
Q 2853 3084 3261 2657 
Q 3669 2231 3669 1497 
Q 3669 778 3244 343 
Q 2819 -91 2113 -91 
Q 1303 -91 875 529 
Q 447 1150 447 2328 
Q 447 3434 972 4092 
Q 1497 4750 2381 4750 
Q 2619 4750 2861 4703 
Q 3103 4656 3366 4563 
z
" transform="scale(0.015625)"/>
      </defs>
      <use xlink:href="#DejaVuSans-31"/>
      <use xlink:href="#DejaVuSans-30" x="63.623047"/>
      <use xlink:href="#DejaVuSans-2e" x="127.246094"/>
      <use xlink:href="#DejaVuSans-36" x="159.033203"/>
      <use xlink:href="#DejaVuSans-35" x="222.65625"/>
     </g>
    </g>
   </g>
   <g id="text_17">
    <g clip-path="url(#pc54fd441ba)">
     <!-- 10.82 -->
     <g transform="translate(238.539785 167.14473) rotate(-7.230429) scale(0.1 -0.1)">
      <use xlink:href="#DejaVuSans-31"/>
      <use xlink:href="#DejaVuSans-30" x="63.623047"/>
      <use xlink:href="#DejaVuSans-2e" x="127.246094"/>
      <use xlink:href="#DejaVuSans-38" x="159.033203"/>
      <use xlink:href="#DejaVuSans-32" x="222.65625"/>
     </g>
    </g>
   </g>
   <g id="text_18">
    <g clip-path="url(#pc54fd441ba)">
     <!-- 10.99 -->
     <g transform="translate(238.549631 118.644664) rotate(-7.354301) scale(0.1 -0.1)">
      <defs>
       <path id="DejaVuSans-39" d="M 703 97 
L 703 672 
Q 941 559 1184 500 
Q 1428 441 1663 441 
Q 2288 441 2617 861 
Q 2947 1281 2994 2138 
Q 2813 1869 2534 1725 
Q 2256 1581 1919 1581 
Q 1219 1581 811 2004 
Q 403 2428 403 3163 
Q 403 3881 828 4315 
Q 1253 4750 1959 4750 
Q 2769 4750 3195 4129 
Q 3622 3509 3622 2328 
Q 3622 1225 3098 567 
Q 2575 -91 1691 -91 
Q 1453 -91 1209 -44 
Q 966 3 703 97 
z
M 1959 2075 
Q 2384 2075 2632 2365 
Q 2881 2656 2881 3163 
Q 2881 3666 2632 3958 
Q 2384 4250 1959 4250 
Q 1534 4250 1286 3958 
Q 1038 3666 1038 3163 
Q 1038 2656 1286 2365 
Q 1534 2075 1959 2075 
z
" transform="scale(0.015625)"/>
      </defs>
      <use xlink:href="#DejaVuSans-31"/>
      <use xlink:href="#DejaVuSans-30" x="63.623047"/>
      <use xlink:href="#DejaVuSans-2e" x="127.246094"/>
      <use xlink:href="#DejaVuSans-39" x="159.033203"/>
      <use xlink:href="#DejaVuSans-39" x="222.65625"/>
     </g>
    </g>
   </g>
   <g id="text_19">
    <g clip-path="url(#pc54fd441ba)">
     <!-- 11.16 -->
     <g transform="translate(234.94404 69.184576) rotate(-7.375379) scale(0.1 -0.1)">
      <use xlink:href="#DejaVuSans-31"/>
      <use xlink:href="#DejaVuSans-31" x="63.623047"/>
      <use xlink:href="#DejaVuSans-2e" x="127.246094"/>
      <use xlink:href="#DejaVuSans-31" x="159.033203"/>
      <use xlink:href="#DejaVuSans-36" x="222.65625"/>
     </g>
    </g>
   </g>
  </g>
 </g>
 <defs>
  <clipPath id="pc54fd441ba">
   <rect x="57.6" y="41.472" width="357.12" height="266.112"/>
  </clipPath>
 </defs>
</svg>
