<?xml version="1.0" encoding="utf-8" standalone="no"?>
<!DOCTYPE svg PUBLIC "-//W3C//DTD SVG 1.1//EN"
  "http://www.w3.org/Graphics/SVG/1.1/DTD/svg11.dtd">
<svg xmlns:xlink="http://www.w3.org/1999/xlink" width="460.8pt" height="345.6pt" viewBox="0 0 460.8 345.6" xmlns="http://www.w3.org/2000/svg" version="1.1">
 <metadata>
  <rdf:RDF xmlns:dc="http://purl.org/dc/elements/1.1/" xmlns:cc="http://creativecommons.org/ns#" xmlns:rdf="http://www.w3.org/1999/02/22-rdf-syntax-ns#">
   <cc:Work>
    <dc:type rdf:resource="http://purl.org/dc/dcmitype/StillImage"/>
    <dc:date>2024-04-22T00:52:14.065720</dc:date>
    <dc:format>image/svg+xml</dc:format>
    <dc:creator>
     <cc:Agent>
      <dc:title>Matplotlib v3.7.0, https://matplotlib.org/</dc:title>
     </cc:Agent>
    </dc:creator>
   </cc:Work>
  </rdf:RDF>
 </metadata>
 <defs>
  <style type="text/css">*{stroke-linejoin: round; stroke-linecap: butt}</style>
 </defs>
 <g id="figure_1">
  <g id="patch_1">
   <path d="M 0 345.6 
L 460.8 345.6 
L 460.8 0 
L 0 0 
L 0 345.6 
z
" style="fill: none"/>
  </g>
  <g id="axes_1"/>
  <g id="axes_2">
   <g id="patch_2">
    <path d="M 57.6 307.584 
L 414.72 307.584 
L 414.72 41.472 
L 57.6 41.472 
L 57.6 307.584 
z
" style="fill: none"/>
   </g>
   <g id="PathCollection_1">
    <path d="M 61.207273 307.584 
L 64.814545 307.584 
L 68.421818 307.584 
L 72.029091 307.584 
L 75.636364 307.584 
L 79.243636 307.584 
L 82.850909 307.584 
L 86.458182 307.584 
L 90.065455 307.584 
L 93.672727 307.584 
L 97.28 307.584 
L 100.887273 307.584 
L 104.494545 307.584 
L 108.101818 307.584 
L 111.709091 307.584 
L 115.316364 307.584 
L 118.923636 307.584 
L 122.530909 307.584 
L 126.138182 307.584 
L 129.745455 307.584 
L 133.352727 307.584 
L 136.96 307.584 
L 140.567273 307.584 
L 144.174545 307.584 
L 147.781818 307.584 
L 151.389091 307.584 
L 154.996364 307.584 
L 158.603636 307.584 
L 162.210909 307.584 
L 165.818182 307.584 
L 169.425455 307.584 
L 173.032727 307.584 
L 176.64 307.584 
L 180.247273 307.584 
L 183.854545 307.584 
L 187.461818 307.584 
L 191.069091 307.584 
L 194.676364 307.584 
L 198.283636 307.584 
L 201.890909 307.584 
L 205.498182 307.584 
L 209.105455 307.584 
L 212.712727 307.584 
L 216.32 307.584 
L 219.927273 307.584 
L 223.534545 307.584 
L 227.141818 307.584 
L 230.749091 307.584 
L 234.356364 307.584 
L 237.963636 307.584 
L 241.570909 307.584 
L 245.178182 307.584 
L 248.785455 307.584 
L 252.392727 307.584 
L 256 307.584 
L 259.607273 307.584 
L 263.214545 307.584 
L 266.821818 307.584 
L 270.429091 307.584 
L 274.036364 307.584 
L 277.643636 307.584 
L 281.250909 307.584 
L 284.858182 307.584 
L 288.465455 307.584 
L 292.072727 307.584 
L 295.68 307.584 
L 299.287273 307.584 
L 302.894545 307.584 
L 306.501818 307.584 
L 310.109091 307.584 
L 313.716364 307.584 
L 317.323636 307.584 
L 320.930909 307.584 
L 324.538182 307.584 
L 328.145455 307.584 
L 331.752727 307.584 
L 335.36 307.584 
L 338.967273 307.584 
L 342.574545 307.584 
L 346.181818 307.584 
L 349.789091 307.584 
L 353.396364 307.584 
L 357.003636 307.584 
L 360.610909 307.584 
L 364.218182 307.584 
L 367.825455 307.584 
L 371.432727 307.584 
L 375.04 307.584 
L 378.647273 307.584 
L 382.254545 307.584 
L 385.861818 307.584 
L 389.469091 307.584 
L 393.076364 307.584 
L 396.683636 307.584 
L 400.290909 307.584 
L 403.898182 307.584 
L 407.505455 307.584 
L 411.112727 307.584 
L 414.72 307.584 
L 414.72 304.896 
L 414.72 302.208 
L 414.72 299.52 
L 414.72 296.832 
L 414.72 294.144 
L 414.72 291.456 
L 414.72 288.768 
L 414.72 286.08 
L 414.72 283.392 
L 414.72 280.704 
L 414.72 280.21199 
L 411.112727 280.211868 
L 407.505455 280.211745 
L 403.898182 280.211621 
L 400.290909 280.211498 
L 396.683636 280.211374 
L 393.076364 280.21125 
L 389.469091 280.211125 
L 385.861818 280.211 
L 382.254545 280.210875 
L 378.647273 280.210749 
L 375.04 280.210623 
L 371.432727 280.210496 
L 367.825455 280.21037 
L 364.218182 280.210243 
L 360.610909 280.210115 
L 357.003636 280.209987 
L 353.396364 280.209859 
L 349.789091 280.209731 
L 346.181818 280.209602 
L 342.574545 280.209473 
L 338.967273 280.209343 
L 335.36 280.209214 
L 331.752727 280.209083 
L 328.145455 280.208953 
L 324.538182 280.208822 
L 320.930909 280.208691 
L 317.323636 280.208559 
L 313.716364 280.208427 
L 310.109091 280.208295 
L 306.501818 280.208162 
L 302.894545 280.208029 
L 299.287273 280.207896 
L 295.68 280.207762 
L 292.072727 280.207628 
L 288.465455 280.207494 
L 284.858182 280.207359 
L 281.250909 280.207224 
L 277.643636 280.207089 
L 274.036364 280.206953 
L 270.429091 280.206817 
L 266.821818 280.206681 
L 263.214545 280.206544 
L 259.607273 280.206407 
L 256 280.206269 
L 252.392727 280.206131 
L 248.785455 280.205993 
L 245.178182 280.205855 
L 241.570909 280.205716 
L 237.963636 280.205577 
L 234.356364 280.205437 
L 230.749091 280.205297 
L 227.141818 280.205157 
L 223.534545 280.205016 
L 219.927273 280.204875 
L 216.32 280.204734 
L 212.712727 280.204592 
L 209.105455 280.20445 
L 205.498182 280.204308 
L 201.890909 280.204165 
L 198.283636 280.204022 
L 194.676364 280.203879 
L 191.069091 280.203735 
L 187.461818 280.203591 
L 183.854545 280.203447 
L 180.247273 280.203302 
L 176.64 280.203157 
L 173.032727 280.203012 
L 169.425455 280.202866 
L 165.818182 280.20272 
L 162.210909 280.202573 
L 158.603636 280.202426 
L 154.996364 280.202279 
L 151.389091 280.202132 
L 147.781818 280.201984 
L 144.174545 280.201836 
L 140.567273 280.201687 
L 136.96 280.201538 
L 133.352727 280.201389 
L 129.745455 280.201239 
L 126.138182 280.201089 
L 122.530909 280.200939 
L 118.923636 280.200788 
L 115.316364 280.200637 
L 111.709091 280.200486 
L 108.101818 280.200334 
L 104.494545 280.200182 
L 100.887273 280.20003 
L 97.28 280.199877 
L 93.672727 280.199724 
L 90.065455 280.199571 
L 86.458182 280.199417 
L 82.850909 280.199263 
L 79.243636 280.199109 
L 75.636364 280.198954 
L 72.029091 280.198799 
L 68.421818 280.198643 
L 64.814545 280.198487 
L 61.207273 280.198331 
L 57.6 280.198175 
L 57.6 280.704 
L 57.6 283.392 
L 57.6 286.08 
L 57.6 288.768 
L 57.6 291.456 
L 57.6 294.144 
L 57.6 296.832 
L 57.6 299.52 
L 57.6 302.208 
L 57.6 304.896 
L 57.6 307.584 
z
" clip-path="url(#p60fea0c942)" style="fill: #481b6d; fill-opacity: 0.75"/>
   </g>
   <g id="PathCollection_2">
    <path d="M 61.207273 280.198331 
L 64.814545 280.198487 
L 68.421818 280.198643 
L 72.029091 280.198799 
L 75.636364 280.198954 
L 79.243636 280.199109 
L 82.850909 280.199263 
L 86.458182 280.199417 
L 90.065455 280.199571 
L 93.672727 280.199724 
L 97.28 280.199877 
L 100.887273 280.20003 
L 104.494545 280.200182 
L 108.101818 280.200334 
L 111.709091 280.200486 
L 115.316364 280.200637 
L 118.923636 280.200788 
L 122.530909 280.200939 
L 126.138182 280.201089 
L 129.745455 280.201239 
L 133.352727 280.201389 
L 136.96 280.201538 
L 140.567273 280.201687 
L 144.174545 280.201836 
L 147.781818 280.201984 
L 151.389091 280.202132 
L 154.996364 280.202279 
L 158.603636 280.202426 
L 162.210909 280.202573 
L 165.818182 280.20272 
L 169.425455 280.202866 
L 173.032727 280.203012 
L 176.64 280.203157 
L 180.247273 280.203302 
L 183.854545 280.203447 
L 187.461818 280.203591 
L 191.069091 280.203735 
L 194.676364 280.203879 
L 198.283636 280.204022 
L 201.890909 280.204165 
L 205.498182 280.204308 
L 209.105455 280.20445 
L 212.712727 280.204592 
L 216.32 280.204734 
L 219.927273 280.204875 
L 223.534545 280.205016 
L 227.141818 280.205157 
L 230.749091 280.205297 
L 234.356364 280.205437 
L 237.963636 280.205577 
L 241.570909 280.205716 
L 245.178182 280.205855 
L 248.785455 280.205993 
L 252.392727 280.206131 
L 256 280.206269 
L 259.607273 280.206407 
L 263.214545 280.206544 
L 266.821818 280.206681 
L 270.429091 280.206817 
L 274.036364 280.206953 
L 277.643636 280.207089 
L 281.250909 280.207224 
L 284.858182 280.207359 
L 288.465455 280.207494 
L 292.072727 280.207628 
L 295.68 280.207762 
L 299.287273 280.207896 
L 302.894545 280.208029 
L 306.501818 280.208162 
L 310.109091 280.208295 
L 313.716364 280.208427 
L 317.323636 280.208559 
L 320.930909 280.208691 
L 324.538182 280.208822 
L 328.145455 280.208953 
L 331.752727 280.209083 
L 335.36 280.209214 
L 338.967273 280.209343 
L 342.574545 280.209473 
L 346.181818 280.209602 
L 349.789091 280.209731 
L 353.396364 280.209859 
L 357.003636 280.209987 
L 360.610909 280.210115 
L 364.218182 280.210243 
L 367.825455 280.21037 
L 371.432727 280.210496 
L 375.04 280.210623 
L 378.647273 280.210749 
L 382.254545 280.210875 
L 385.861818 280.211 
L 389.469091 280.211125 
L 393.076364 280.21125 
L 396.683636 280.211374 
L 400.290909 280.211498 
L 403.898182 280.211621 
L 407.505455 280.211745 
L 411.112727 280.211868 
L 414.72 280.21199 
L 414.72 278.016 
L 414.72 275.328 
L 414.72 272.64 
L 414.72 269.952 
L 414.72 267.264 
L 414.72 264.576 
L 414.72 261.888 
L 414.72 259.2 
L 414.72 256.512 
L 414.72 253.824 
L 414.72 251.136 
L 414.72 248.448 
L 414.72 245.76 
L 414.72 243.072 
L 414.72 240.384 
L 414.72 239.806679 
L 411.112727 239.806554 
L 407.505455 239.80643 
L 403.898182 239.806305 
L 400.290909 239.80618 
L 396.683636 239.806054 
L 393.076364 239.805928 
L 389.469091 239.805802 
L 385.861818 239.805675 
L 382.254545 239.805548 
L 378.647273 239.80542 
L 375.04 239.805292 
L 371.432727 239.805164 
L 367.825455 239.805035 
L 364.218182 239.804906 
L 360.610909 239.804777 
L 357.003636 239.804647 
L 353.396364 239.804517 
L 349.789091 239.804386 
L 346.181818 239.804255 
L 342.574545 239.804124 
L 338.967273 239.803992 
L 335.36 239.80386 
L 331.752727 239.803727 
L 328.145455 239.803595 
L 324.538182 239.803461 
L 320.930909 239.803328 
L 317.323636 239.803194 
L 313.716364 239.803059 
L 310.109091 239.802925 
L 306.501818 239.80279 
L 302.894545 239.802654 
L 299.287273 239.802518 
L 295.68 239.802382 
L 292.072727 239.802245 
L 288.465455 239.802108 
L 284.858182 239.801971 
L 281.250909 239.801833 
L 277.643636 239.801695 
L 274.036364 239.801557 
L 270.429091 239.801418 
L 266.821818 239.801279 
L 263.214545 239.801139 
L 259.607273 239.800999 
L 256 239.800859 
L 252.392727 239.800718 
L 248.785455 239.800577 
L 245.178182 239.800435 
L 241.570909 239.800293 
L 237.963636 239.800151 
L 234.356364 239.800008 
L 230.749091 239.799865 
L 227.141818 239.799722 
L 223.534545 239.799578 
L 219.927273 239.799434 
L 216.32 239.799289 
L 212.712727 239.799144 
L 209.105455 239.798999 
L 205.498182 239.798853 
L 201.890909 239.798707 
L 198.283636 239.798561 
L 194.676364 239.798414 
L 191.069091 239.798267 
L 187.461818 239.798119 
L 183.854545 239.797971 
L 180.247273 239.797823 
L 176.64 239.797674 
L 173.032727 239.797525 
L 169.425455 239.797376 
L 165.818182 239.797226 
L 162.210909 239.797076 
L 158.603636 239.796925 
L 154.996364 239.796774 
L 151.389091 239.796623 
L 147.781818 239.796471 
L 144.174545 239.796319 
L 140.567273 239.796167 
L 136.96 239.796014 
L 133.352727 239.795861 
L 129.745455 239.795707 
L 126.138182 239.795553 
L 122.530909 239.795399 
L 118.923636 239.795244 
L 115.316364 239.795089 
L 111.709091 239.794933 
L 108.101818 239.794777 
L 104.494545 239.794621 
L 100.887273 239.794464 
L 97.28 239.794307 
L 93.672727 239.79415 
L 90.065455 239.793992 
L 86.458182 239.793834 
L 82.850909 239.793676 
L 79.243636 239.793517 
L 75.636364 239.793357 
L 72.029091 239.793198 
L 68.421818 239.793038 
L 64.814545 239.792877 
L 61.207273 239.792717 
L 57.6 239.792555 
L 57.6 240.384 
L 57.6 243.072 
L 57.6 245.76 
L 57.6 248.448 
L 57.6 251.136 
L 57.6 253.824 
L 57.6 256.512 
L 57.6 259.2 
L 57.6 261.888 
L 57.6 264.576 
L 57.6 267.264 
L 57.6 269.952 
L 57.6 272.64 
L 57.6 275.328 
L 57.6 278.016 
L 57.6 280.198175 
z
" clip-path="url(#p60fea0c942)" style="fill: #3f4788; fill-opacity: 0.75"/>
   </g>
   <g id="PathCollection_3">
    <path d="M 61.207273 239.792717 
L 64.814545 239.792877 
L 68.421818 239.793038 
L 72.029091 239.793198 
L 75.636364 239.793357 
L 79.243636 239.793517 
L 82.850909 239.793676 
L 86.458182 239.793834 
L 90.065455 239.793992 
L 93.672727 239.79415 
L 97.28 239.794307 
L 100.887273 239.794464 
L 104.494545 239.794621 
L 108.101818 239.794777 
L 111.709091 239.794933 
L 115.316364 239.795089 
L 118.923636 239.795244 
L 122.530909 239.795399 
L 126.138182 239.795553 
L 129.745455 239.795707 
L 133.352727 239.795861 
L 136.96 239.796014 
L 140.567273 239.796167 
L 144.174545 239.796319 
L 147.781818 239.796471 
L 151.389091 239.796623 
L 154.996364 239.796774 
L 158.603636 239.796925 
L 162.210909 239.797076 
L 165.818182 239.797226 
L 169.425455 239.797376 
L 173.032727 239.797525 
L 176.64 239.797674 
L 180.247273 239.797823 
L 183.854545 239.797971 
L 187.461818 239.798119 
L 191.069091 239.798267 
L 194.676364 239.798414 
L 198.283636 239.798561 
L 201.890909 239.798707 
L 205.498182 239.798853 
L 209.105455 239.798999 
L 212.712727 239.799144 
L 216.32 239.799289 
L 219.927273 239.799434 
L 223.534545 239.799578 
L 227.141818 239.799722 
L 230.749091 239.799865 
L 234.356364 239.800008 
L 237.963636 239.800151 
L 241.570909 239.800293 
L 245.178182 239.800435 
L 248.785455 239.800577 
L 252.392727 239.800718 
L 256 239.800859 
L 259.607273 239.800999 
L 263.214545 239.801139 
L 266.821818 239.801279 
L 270.429091 239.801418 
L 274.036364 239.801557 
L 277.643636 239.801695 
L 281.250909 239.801833 
L 284.858182 239.801971 
L 288.465455 239.802108 
L 292.072727 239.802245 
L 295.68 239.802382 
L 299.287273 239.802518 
L 302.894545 239.802654 
L 306.501818 239.80279 
L 310.109091 239.802925 
L 313.716364 239.803059 
L 317.323636 239.803194 
L 320.930909 239.803328 
L 324.538182 239.803461 
L 328.145455 239.803595 
L 331.752727 239.803727 
L 335.36 239.80386 
L 338.967273 239.803992 
L 342.574545 239.804124 
L 346.181818 239.804255 
L 349.789091 239.804386 
L 353.396364 239.804517 
L 357.003636 239.804647 
L 360.610909 239.804777 
L 364.218182 239.804906 
L 367.825455 239.805035 
L 371.432727 239.805164 
L 375.04 239.805292 
L 378.647273 239.80542 
L 382.254545 239.805548 
L 385.861818 239.805675 
L 389.469091 239.805802 
L 393.076364 239.805928 
L 396.683636 239.806054 
L 400.290909 239.80618 
L 403.898182 239.806305 
L 407.505455 239.80643 
L 411.112727 239.806554 
L 414.72 239.806679 
L 414.72 237.696 
L 414.72 235.008 
L 414.72 232.32 
L 414.72 229.632 
L 414.72 226.944 
L 414.72 224.256 
L 414.72 221.568 
L 414.72 218.88 
L 414.72 216.192 
L 414.72 213.504 
L 414.72 210.816 
L 414.72 208.128 
L 414.72 205.44 
L 414.72 202.752 
L 414.72 200.064 
L 414.72 198.965093 
L 411.112727 198.964967 
L 407.505455 198.96484 
L 403.898182 198.964713 
L 400.290909 198.964586 
L 396.683636 198.964458 
L 393.076364 198.96433 
L 389.469091 198.964201 
L 385.861818 198.964072 
L 382.254545 198.963943 
L 378.647273 198.963813 
L 375.04 198.963683 
L 371.432727 198.963552 
L 367.825455 198.963421 
L 364.218182 198.96329 
L 360.610909 198.963158 
L 357.003636 198.963026 
L 353.396364 198.962893 
L 349.789091 198.96276 
L 346.181818 198.962626 
L 342.574545 198.962493 
L 338.967273 198.962358 
L 335.36 198.962224 
L 331.752727 198.962088 
L 328.145455 198.961953 
L 324.538182 198.961817 
L 320.930909 198.961681 
L 317.323636 198.961544 
L 313.716364 198.961407 
L 310.109091 198.961269 
L 306.501818 198.961131 
L 302.894545 198.960993 
L 299.287273 198.960854 
L 295.68 198.960714 
L 292.072727 198.960575 
L 288.465455 198.960435 
L 284.858182 198.960294 
L 281.250909 198.960153 
L 277.643636 198.960012 
L 274.036364 198.95987 
L 270.429091 198.959728 
L 266.821818 198.959586 
L 263.214545 198.959443 
L 259.607273 198.959299 
L 256 198.959156 
L 252.392727 198.959011 
L 248.785455 198.958867 
L 245.178182 198.958722 
L 241.570909 198.958576 
L 237.963636 198.958431 
L 234.356364 198.958284 
L 230.749091 198.958138 
L 227.141818 198.957991 
L 223.534545 198.957843 
L 219.927273 198.957695 
L 216.32 198.957547 
L 212.712727 198.957398 
L 209.105455 198.957249 
L 205.498182 198.9571 
L 201.890909 198.95695 
L 198.283636 198.956799 
L 194.676364 198.956649 
L 191.069091 198.956497 
L 187.461818 198.956346 
L 183.854545 198.956194 
L 180.247273 198.956042 
L 176.64 198.955889 
L 173.032727 198.955735 
L 169.425455 198.955582 
L 165.818182 198.955428 
L 162.210909 198.955273 
L 158.603636 198.955118 
L 154.996364 198.954963 
L 151.389091 198.954808 
L 147.781818 198.954651 
L 144.174545 198.954495 
L 140.567273 198.954338 
L 136.96 198.954181 
L 133.352727 198.954023 
L 129.745455 198.953865 
L 126.138182 198.953706 
L 122.530909 198.953547 
L 118.923636 198.953388 
L 115.316364 198.953228 
L 111.709091 198.953068 
L 108.101818 198.952907 
L 104.494545 198.952746 
L 100.887273 198.952585 
L 97.28 198.952423 
L 93.672727 198.952261 
L 90.065455 198.952098 
L 86.458182 198.951935 
L 82.850909 198.951771 
L 79.243636 198.951608 
L 75.636364 198.951443 
L 72.029091 198.951279 
L 68.421818 198.951113 
L 64.814545 198.950948 
L 61.207273 198.950782 
L 57.6 198.950615 
L 57.6 200.064 
L 57.6 202.752 
L 57.6 205.44 
L 57.6 208.128 
L 57.6 210.816 
L 57.6 213.504 
L 57.6 216.192 
L 57.6 218.88 
L 57.6 221.568 
L 57.6 224.256 
L 57.6 226.944 
L 57.6 229.632 
L 57.6 232.32 
L 57.6 235.008 
L 57.6 237.696 
L 57.6 239.792555 
z
" clip-path="url(#p60fea0c942)" style="fill: #2e6e8e; fill-opacity: 0.75"/>
   </g>
   <g id="PathCollection_4">
    <path d="M 61.207273 198.950782 
L 64.814545 198.950948 
L 68.421818 198.951113 
L 72.029091 198.951279 
L 75.636364 198.951443 
L 79.243636 198.951608 
L 82.850909 198.951771 
L 86.458182 198.951935 
L 90.065455 198.952098 
L 93.672727 198.952261 
L 97.28 198.952423 
L 100.887273 198.952585 
L 104.494545 198.952746 
L 108.101818 198.952907 
L 111.709091 198.953068 
L 115.316364 198.953228 
L 118.923636 198.953388 
L 122.530909 198.953547 
L 126.138182 198.953706 
L 129.745455 198.953865 
L 133.352727 198.954023 
L 136.96 198.954181 
L 140.567273 198.954338 
L 144.174545 198.954495 
L 147.781818 198.954651 
L 151.389091 198.954808 
L 154.996364 198.954963 
L 158.603636 198.955118 
L 162.210909 198.955273 
L 165.818182 198.955428 
L 169.425455 198.955582 
L 173.032727 198.955735 
L 176.64 198.955889 
L 180.247273 198.956042 
L 183.854545 198.956194 
L 187.461818 198.956346 
L 191.069091 198.956497 
L 194.676364 198.956649 
L 198.283636 198.956799 
L 201.890909 198.95695 
L 205.498182 198.9571 
L 209.105455 198.957249 
L 212.712727 198.957398 
L 216.32 198.957547 
L 219.927273 198.957695 
L 223.534545 198.957843 
L 227.141818 198.957991 
L 230.749091 198.958138 
L 234.356364 198.958284 
L 237.963636 198.958431 
L 241.570909 198.958576 
L 245.178182 198.958722 
L 248.785455 198.958867 
L 252.392727 198.959011 
L 256 198.959156 
L 259.607273 198.959299 
L 263.214545 198.959443 
L 266.821818 198.959586 
L 270.429091 198.959728 
L 274.036364 198.95987 
L 277.643636 198.960012 
L 281.250909 198.960153 
L 284.858182 198.960294 
L 288.465455 198.960435 
L 292.072727 198.960575 
L 295.68 198.960714 
L 299.287273 198.960854 
L 302.894545 198.960993 
L 306.501818 198.961131 
L 310.109091 198.961269 
L 313.716364 198.961407 
L 317.323636 198.961544 
L 320.930909 198.961681 
L 324.538182 198.961817 
L 328.145455 198.961953 
L 331.752727 198.962088 
L 335.36 198.962224 
L 338.967273 198.962358 
L 342.574545 198.962493 
L 346.181818 198.962626 
L 349.789091 198.96276 
L 353.396364 198.962893 
L 357.003636 198.963026 
L 360.610909 198.963158 
L 364.218182 198.96329 
L 367.825455 198.963421 
L 371.432727 198.963552 
L 375.04 198.963683 
L 378.647273 198.963813 
L 382.254545 198.963943 
L 385.861818 198.964072 
L 389.469091 198.964201 
L 393.076364 198.96433 
L 396.683636 198.964458 
L 400.290909 198.964586 
L 403.898182 198.964713 
L 407.505455 198.96484 
L 411.112727 198.964967 
L 414.72 198.965093 
L 414.72 197.376 
L 414.72 194.688 
L 414.72 192 
L 414.72 189.312 
L 414.72 186.624 
L 414.72 183.936 
L 414.72 181.248 
L 414.72 178.56 
L 414.72 175.872 
L 414.72 173.184 
L 414.72 170.496 
L 414.72 167.808 
L 414.72 165.12 
L 414.72 162.432 
L 414.72 159.744 
L 414.72 157.501867 
L 411.112727 157.501738 
L 407.505455 157.501609 
L 403.898182 157.50148 
L 400.290909 157.50135 
L 396.683636 157.50122 
L 393.076364 157.501089 
L 389.469091 157.500958 
L 385.861818 157.500827 
L 382.254545 157.500695 
L 378.647273 157.500562 
L 375.04 157.500429 
L 371.432727 157.500296 
L 367.825455 157.500162 
L 364.218182 157.500028 
L 360.610909 157.499893 
L 357.003636 157.499758 
L 353.396364 157.499622 
L 349.789091 157.499486 
L 346.181818 157.49935 
L 342.574545 157.499213 
L 338.967273 157.499076 
L 335.36 157.498938 
L 331.752727 157.498799 
L 328.145455 157.498661 
L 324.538182 157.498522 
L 320.930909 157.498382 
L 317.323636 157.498242 
L 313.716364 157.498101 
L 310.109091 157.497961 
L 306.501818 157.497819 
L 302.894545 157.497677 
L 299.287273 157.497535 
L 295.68 157.497392 
L 292.072727 157.497249 
L 288.465455 157.497105 
L 284.858182 157.496961 
L 281.250909 157.496817 
L 277.643636 157.496672 
L 274.036364 157.496526 
L 270.429091 157.496381 
L 266.821818 157.496234 
L 263.214545 157.496088 
L 259.607273 157.49594 
L 256 157.495793 
L 252.392727 157.495645 
L 248.785455 157.495496 
L 245.178182 157.495347 
L 241.570909 157.495198 
L 237.963636 157.495048 
L 234.356364 157.494897 
L 230.749091 157.494747 
L 227.141818 157.494595 
L 223.534545 157.494444 
L 219.927273 157.494292 
L 216.32 157.494139 
L 212.712727 157.493986 
L 209.105455 157.493833 
L 205.498182 157.493679 
L 201.890909 157.493524 
L 198.283636 157.49337 
L 194.676364 157.493214 
L 191.069091 157.493059 
L 187.461818 157.492902 
L 183.854545 157.492746 
L 180.247273 157.492589 
L 176.64 157.492431 
L 173.032727 157.492273 
L 169.425455 157.492115 
L 165.818182 157.491956 
L 162.210909 157.491797 
L 158.603636 157.491637 
L 154.996364 157.491477 
L 151.389091 157.491316 
L 147.781818 157.491155 
L 144.174545 157.490994 
L 140.567273 157.490832 
L 136.96 157.49067 
L 133.352727 157.490507 
L 129.745455 157.490343 
L 126.138182 157.49018 
L 122.530909 157.490015 
L 118.923636 157.489851 
L 115.316364 157.489686 
L 111.709091 157.48952 
L 108.101818 157.489354 
L 104.494545 157.489188 
L 100.887273 157.489021 
L 97.28 157.488854 
L 93.672727 157.488686 
L 90.065455 157.488518 
L 86.458182 157.488349 
L 82.850909 157.48818 
L 79.243636 157.48801 
L 75.636364 157.48784 
L 72.029091 157.48767 
L 68.421818 157.487499 
L 64.814545 157.487328 
L 61.207273 157.487156 
L 57.6 157.486984 
L 57.6 159.744 
L 57.6 162.432 
L 57.6 165.12 
L 57.6 167.808 
L 57.6 170.496 
L 57.6 173.184 
L 57.6 175.872 
L 57.6 178.56 
L 57.6 181.248 
L 57.6 183.936 
L 57.6 186.624 
L 57.6 189.312 
L 57.6 192 
L 57.6 194.688 
L 57.6 197.376 
L 57.6 198.950615 
z
" clip-path="url(#p60fea0c942)" style="fill: #21918c; fill-opacity: 0.75"/>
   </g>
   <g id="PathCollection_5">
    <path d="M 61.207273 157.487156 
L 64.814545 157.487328 
L 68.421818 157.487499 
L 72.029091 157.48767 
L 75.636364 157.48784 
L 79.243636 157.48801 
L 82.850909 157.48818 
L 86.458182 157.488349 
L 90.065455 157.488518 
L 93.672727 157.488686 
L 97.28 157.488854 
L 100.887273 157.489021 
L 104.494545 157.489188 
L 108.101818 157.489354 
L 111.709091 157.48952 
L 115.316364 157.489686 
L 118.923636 157.489851 
L 122.530909 157.490015 
L 126.138182 157.49018 
L 129.745455 157.490343 
L 133.352727 157.490507 
L 136.96 157.49067 
L 140.567273 157.490832 
L 144.174545 157.490994 
L 147.781818 157.491155 
L 151.389091 157.491316 
L 154.996364 157.491477 
L 158.603636 157.491637 
L 162.210909 157.491797 
L 165.818182 157.491956 
L 169.425455 157.492115 
L 173.032727 157.492273 
L 176.64 157.492431 
L 180.247273 157.492589 
L 183.854545 157.492746 
L 187.461818 157.492902 
L 191.069091 157.493059 
L 194.676364 157.493214 
L 198.283636 157.49337 
L 201.890909 157.493524 
L 205.498182 157.493679 
L 209.105455 157.493833 
L 212.712727 157.493986 
L 216.32 157.494139 
L 219.927273 157.494292 
L 223.534545 157.494444 
L 227.141818 157.494595 
L 230.749091 157.494747 
L 234.356364 157.494897 
L 237.963636 157.495048 
L 241.570909 157.495198 
L 245.178182 157.495347 
L 248.785455 157.495496 
L 252.392727 157.495645 
L 256 157.495793 
L 259.607273 157.49594 
L 263.214545 157.496088 
L 266.821818 157.496234 
L 270.429091 157.496381 
L 274.036364 157.496526 
L 277.643636 157.496672 
L 281.250909 157.496817 
L 284.858182 157.496961 
L 288.465455 157.497105 
L 292.072727 157.497249 
L 295.68 157.497392 
L 299.287273 157.497535 
L 302.894545 157.497677 
L 306.501818 157.497819 
L 310.109091 157.497961 
L 313.716364 157.498101 
L 317.323636 157.498242 
L 320.930909 157.498382 
L 324.538182 157.498522 
L 328.145455 157.498661 
L 331.752727 157.498799 
L 335.36 157.498938 
L 338.967273 157.499076 
L 342.574545 157.499213 
L 346.181818 157.49935 
L 349.789091 157.499486 
L 353.396364 157.499622 
L 357.003636 157.499758 
L 360.610909 157.499893 
L 364.218182 157.500028 
L 367.825455 157.500162 
L 371.432727 157.500296 
L 375.04 157.500429 
L 378.647273 157.500562 
L 382.254545 157.500695 
L 385.861818 157.500827 
L 389.469091 157.500958 
L 393.076364 157.501089 
L 396.683636 157.50122 
L 400.290909 157.50135 
L 403.898182 157.50148 
L 407.505455 157.501609 
L 411.112727 157.501738 
L 414.72 157.501867 
L 414.72 157.056 
L 414.72 154.368 
L 414.72 151.68 
L 414.72 148.992 
L 414.72 146.304 
L 414.72 143.616 
L 414.72 140.928 
L 414.72 138.24 
L 414.72 135.552 
L 414.72 132.864 
L 414.72 130.176 
L 414.72 127.488 
L 414.72 124.8 
L 414.72 122.112 
L 414.72 119.424 
L 414.72 116.736 
L 414.72 115.204464 
L 411.112727 115.204333 
L 407.505455 115.204201 
L 403.898182 115.204068 
L 400.290909 115.203936 
L 396.683636 115.203802 
L 393.076364 115.203668 
L 389.469091 115.203534 
L 385.861818 115.203399 
L 382.254545 115.203264 
L 378.647273 115.203128 
L 375.04 115.202992 
L 371.432727 115.202855 
L 367.825455 115.202718 
L 364.218182 115.20258 
L 360.610909 115.202442 
L 357.003636 115.202303 
L 353.396364 115.202164 
L 349.789091 115.202024 
L 346.181818 115.201884 
L 342.574545 115.201744 
L 338.967273 115.201602 
L 335.36 115.201461 
L 331.752727 115.201319 
L 328.145455 115.201176 
L 324.538182 115.201033 
L 320.930909 115.200889 
L 317.323636 115.200745 
L 313.716364 115.200601 
L 310.109091 115.200456 
L 306.501818 115.20031 
L 302.894545 115.200164 
L 299.287273 115.200018 
L 295.68 115.199871 
L 292.072727 115.199723 
L 288.465455 115.199575 
L 284.858182 115.199427 
L 281.250909 115.199278 
L 277.643636 115.199129 
L 274.036364 115.198979 
L 270.429091 115.198828 
L 266.821818 115.198678 
L 263.214545 115.198526 
L 259.607273 115.198374 
L 256 115.198222 
L 252.392727 115.198069 
L 248.785455 115.197916 
L 245.178182 115.197762 
L 241.570909 115.197608 
L 237.963636 115.197453 
L 234.356364 115.197298 
L 230.749091 115.197142 
L 227.141818 115.196986 
L 223.534545 115.196829 
L 219.927273 115.196672 
L 216.32 115.196514 
L 212.712727 115.196356 
L 209.105455 115.196197 
L 205.498182 115.196038 
L 201.890909 115.195879 
L 198.283636 115.195718 
L 194.676364 115.195558 
L 191.069091 115.195397 
L 187.461818 115.195235 
L 183.854545 115.195073 
L 180.247273 115.194911 
L 176.64 115.194748 
L 173.032727 115.194584 
L 169.425455 115.19442 
L 165.818182 115.194255 
L 162.210909 115.19409 
L 158.603636 115.193925 
L 154.996364 115.193759 
L 151.389091 115.193593 
L 147.781818 115.193426 
L 144.174545 115.193258 
L 140.567273 115.19309 
L 136.96 115.192922 
L 133.352727 115.192753 
L 129.745455 115.192584 
L 126.138182 115.192414 
L 122.530909 115.192243 
L 118.923636 115.192073 
L 115.316364 115.191901 
L 111.709091 115.19173 
L 108.101818 115.191557 
L 104.494545 115.191384 
L 100.887273 115.191211 
L 97.28 115.191037 
L 93.672727 115.190863 
L 90.065455 115.190688 
L 86.458182 115.190513 
L 82.850909 115.190338 
L 79.243636 115.190161 
L 75.636364 115.189985 
L 72.029091 115.189808 
L 68.421818 115.18963 
L 64.814545 115.189452 
L 61.207273 115.189273 
L 57.6 115.189094 
L 57.6 116.736 
L 57.6 119.424 
L 57.6 122.112 
L 57.6 124.8 
L 57.6 127.488 
L 57.6 130.176 
L 57.6 132.864 
L 57.6 135.552 
L 57.6 138.24 
L 57.6 140.928 
L 57.6 143.616 
L 57.6 146.304 
L 57.6 148.992 
L 57.6 151.68 
L 57.6 154.368 
L 57.6 157.056 
L 57.6 157.486984 
z
" clip-path="url(#p60fea0c942)" style="fill: #2db27d; fill-opacity: 0.75"/>
   </g>
   <g id="PathCollection_6">
    <path d="M 61.207273 115.189273 
L 64.814545 115.189452 
L 68.421818 115.18963 
L 72.029091 115.189808 
L 75.636364 115.189985 
L 79.243636 115.190161 
L 82.850909 115.190338 
L 86.458182 115.190513 
L 90.065455 115.190688 
L 93.672727 115.190863 
L 97.28 115.191037 
L 100.887273 115.191211 
L 104.494545 115.191384 
L 108.101818 115.191557 
L 111.709091 115.19173 
L 115.316364 115.191901 
L 118.923636 115.192073 
L 122.530909 115.192243 
L 126.138182 115.192414 
L 129.745455 115.192584 
L 133.352727 115.192753 
L 136.96 115.192922 
L 140.567273 115.19309 
L 144.174545 115.193258 
L 147.781818 115.193426 
L 151.389091 115.193593 
L 154.996364 115.193759 
L 158.603636 115.193925 
L 162.210909 115.19409 
L 165.818182 115.194255 
L 169.425455 115.19442 
L 173.032727 115.194584 
L 176.64 115.194748 
L 180.247273 115.194911 
L 183.854545 115.195073 
L 187.461818 115.195235 
L 191.069091 115.195397 
L 194.676364 115.195558 
L 198.283636 115.195718 
L 201.890909 115.195879 
L 205.498182 115.196038 
L 209.105455 115.196197 
L 212.712727 115.196356 
L 216.32 115.196514 
L 219.927273 115.196672 
L 223.534545 115.196829 
L 227.141818 115.196986 
L 230.749091 115.197142 
L 234.356364 115.197298 
L 237.963636 115.197453 
L 241.570909 115.197608 
L 245.178182 115.197762 
L 248.785455 115.197916 
L 252.392727 115.198069 
L 256 115.198222 
L 259.607273 115.198374 
L 263.214545 115.198526 
L 266.821818 115.198678 
L 270.429091 115.198828 
L 274.036364 115.198979 
L 277.643636 115.199129 
L 281.250909 115.199278 
L 284.858182 115.199427 
L 288.465455 115.199575 
L 292.072727 115.199723 
L 295.68 115.199871 
L 299.287273 115.200018 
L 302.894545 115.200164 
L 306.501818 115.20031 
L 310.109091 115.200456 
L 313.716364 115.200601 
L 317.323636 115.200745 
L 320.930909 115.200889 
L 324.538182 115.201033 
L 328.145455 115.201176 
L 331.752727 115.201319 
L 335.36 115.201461 
L 338.967273 115.201602 
L 342.574545 115.201744 
L 346.181818 115.201884 
L 349.789091 115.202024 
L 353.396364 115.202164 
L 357.003636 115.202303 
L 360.610909 115.202442 
L 364.218182 115.20258 
L 367.825455 115.202718 
L 371.432727 115.202855 
L 375.04 115.202992 
L 378.647273 115.203128 
L 382.254545 115.203264 
L 385.861818 115.203399 
L 389.469091 115.203534 
L 393.076364 115.203668 
L 396.683636 115.203802 
L 400.290909 115.203936 
L 403.898182 115.204068 
L 407.505455 115.204201 
L 411.112727 115.204333 
L 414.72 115.204464 
L 414.72 114.048 
L 414.72 111.36 
L 414.72 108.672 
L 414.72 105.984 
L 414.72 103.296 
L 414.72 100.608 
L 414.72 97.92 
L 414.72 95.232 
L 414.72 92.544 
L 414.72 89.856 
L 414.72 87.168 
L 414.72 84.48 
L 414.72 81.792 
L 414.72 79.104 
L 414.72 76.416 
L 414.72 73.728 
L 414.72 71.823715 
L 411.112727 71.82358 
L 407.505455 71.823445 
L 403.898182 71.823309 
L 400.290909 71.823172 
L 396.683636 71.823035 
L 393.076364 71.822898 
L 389.469091 71.82276 
L 385.861818 71.822621 
L 382.254545 71.822482 
L 378.647273 71.822342 
L 375.04 71.822202 
L 371.432727 71.822061 
L 367.825455 71.82192 
L 364.218182 71.821778 
L 360.610909 71.821636 
L 357.003636 71.821493 
L 353.396364 71.821349 
L 349.789091 71.821205 
L 346.181818 71.821061 
L 342.574545 71.820916 
L 338.967273 71.82077 
L 335.36 71.820624 
L 331.752727 71.820478 
L 328.145455 71.820331 
L 324.538182 71.820183 
L 320.930909 71.820035 
L 317.323636 71.819886 
L 313.716364 71.819737 
L 310.109091 71.819587 
L 306.501818 71.819437 
L 302.894545 71.819286 
L 299.287273 71.819134 
L 295.68 71.818983 
L 292.072727 71.81883 
L 288.465455 71.818677 
L 284.858182 71.818524 
L 281.250909 71.81837 
L 277.643636 71.818215 
L 274.036364 71.81806 
L 270.429091 71.817904 
L 266.821818 71.817748 
L 263.214545 71.817591 
L 259.607273 71.817434 
L 256 71.817276 
L 252.392727 71.817118 
L 248.785455 71.816959 
L 245.178182 71.8168 
L 241.570909 71.81664 
L 237.963636 71.81648 
L 234.356364 71.816319 
L 230.749091 71.816157 
L 227.141818 71.815995 
L 223.534545 71.815833 
L 219.927273 71.81567 
L 216.32 71.815506 
L 212.712727 71.815342 
L 209.105455 71.815177 
L 205.498182 71.815012 
L 201.890909 71.814846 
L 198.283636 71.81468 
L 194.676364 71.814513 
L 191.069091 71.814346 
L 187.461818 71.814178 
L 183.854545 71.81401 
L 180.247273 71.813841 
L 176.64 71.813671 
L 173.032727 71.813501 
L 169.425455 71.813331 
L 165.818182 71.81316 
L 162.210909 71.812988 
L 158.603636 71.812816 
L 154.996364 71.812643 
L 151.389091 71.81247 
L 147.781818 71.812297 
L 144.174545 71.812122 
L 140.567273 71.811948 
L 136.96 71.811772 
L 133.352727 71.811597 
L 129.745455 71.81142 
L 126.138182 71.811243 
L 122.530909 71.811066 
L 118.923636 71.810888 
L 115.316364 71.81071 
L 111.709091 71.810531 
L 108.101818 71.810351 
L 104.494545 71.810171 
L 100.887273 71.80999 
L 97.28 71.809809 
L 93.672727 71.809628 
L 90.065455 71.809445 
L 86.458182 71.809263 
L 82.850909 71.809079 
L 79.243636 71.808896 
L 75.636364 71.808711 
L 72.029091 71.808526 
L 68.421818 71.808341 
L 64.814545 71.808155 
L 61.207273 71.807969 
L 57.6 71.807782 
L 57.6 73.728 
L 57.6 76.416 
L 57.6 79.104 
L 57.6 81.792 
L 57.6 84.48 
L 57.6 87.168 
L 57.6 89.856 
L 57.6 92.544 
L 57.6 95.232 
L 57.6 97.92 
L 57.6 100.608 
L 57.6 103.296 
L 57.6 105.984 
L 57.6 108.672 
L 57.6 111.36 
L 57.6 114.048 
L 57.6 115.189094 
z
" clip-path="url(#p60fea0c942)" style="fill: #73d056; fill-opacity: 0.75"/>
   </g>
   <g id="PathCollection_7">
    <path d="M 61.207273 71.807969 
L 64.814545 71.808155 
L 68.421818 71.808341 
L 72.029091 71.808526 
L 75.636364 71.808711 
L 79.243636 71.808896 
L 82.850909 71.809079 
L 86.458182 71.809263 
L 90.065455 71.809445 
L 93.672727 71.809628 
L 97.28 71.809809 
L 100.887273 71.80999 
L 104.494545 71.810171 
L 108.101818 71.810351 
L 111.709091 71.810531 
L 115.316364 71.81071 
L 118.923636 71.810888 
L 122.530909 71.811066 
L 126.138182 71.811243 
L 129.745455 71.81142 
L 133.352727 71.811597 
L 136.96 71.811772 
L 140.567273 71.811948 
L 144.174545 71.812122 
L 147.781818 71.812297 
L 151.389091 71.81247 
L 154.996364 71.812643 
L 158.603636 71.812816 
L 162.210909 71.812988 
L 165.818182 71.81316 
L 169.425455 71.813331 
L 173.032727 71.813501 
L 176.64 71.813671 
L 180.247273 71.813841 
L 183.854545 71.81401 
L 187.461818 71.814178 
L 191.069091 71.814346 
L 194.676364 71.814513 
L 198.283636 71.81468 
L 201.890909 71.814846 
L 205.498182 71.815012 
L 209.105455 71.815177 
L 212.712727 71.815342 
L 216.32 71.815506 
L 219.927273 71.81567 
L 223.534545 71.815833 
L 227.141818 71.815995 
L 230.749091 71.816157 
L 234.356364 71.816319 
L 237.963636 71.81648 
L 241.570909 71.81664 
L 245.178182 71.8168 
L 248.785455 71.816959 
L 252.392727 71.817118 
L 256 71.817276 
L 259.607273 71.817434 
L 263.214545 71.817591 
L 266.821818 71.817748 
L 270.429091 71.817904 
L 274.036364 71.81806 
L 277.643636 71.818215 
L 281.250909 71.81837 
L 284.858182 71.818524 
L 288.465455 71.818677 
L 292.072727 71.81883 
L 295.68 71.818983 
L 299.287273 71.819134 
L 302.894545 71.819286 
L 306.501818 71.819437 
L 310.109091 71.819587 
L 313.716364 71.819737 
L 317.323636 71.819886 
L 320.930909 71.820035 
L 324.538182 71.820183 
L 328.145455 71.820331 
L 331.752727 71.820478 
L 335.36 71.820624 
L 338.967273 71.82077 
L 342.574545 71.820916 
L 346.181818 71.821061 
L 349.789091 71.821205 
L 353.396364 71.821349 
L 357.003636 71.821493 
L 360.610909 71.821636 
L 364.218182 71.821778 
L 367.825455 71.82192 
L 371.432727 71.822061 
L 375.04 71.822202 
L 378.647273 71.822342 
L 382.254545 71.822482 
L 385.861818 71.822621 
L 389.469091 71.82276 
L 393.076364 71.822898 
L 396.683636 71.823035 
L 400.290909 71.823172 
L 403.898182 71.823309 
L 407.505455 71.823445 
L 411.112727 71.82358 
L 414.72 71.823715 
L 414.72 71.04 
L 414.72 68.352 
L 414.72 65.664 
L 414.72 62.976 
L 414.72 60.288 
L 414.72 57.6 
L 414.72 54.912 
L 414.72 52.224 
L 414.72 49.536 
L 414.72 46.848 
L 414.72 44.16 
L 414.72 41.472 
L 411.112727 41.472 
L 407.505455 41.472 
L 403.898182 41.472 
L 400.290909 41.472 
L 396.683636 41.472 
L 393.076364 41.472 
L 389.469091 41.472 
L 385.861818 41.472 
L 382.254545 41.472 
L 378.647273 41.472 
L 375.04 41.472 
L 371.432727 41.472 
L 367.825455 41.472 
L 364.218182 41.472 
L 360.610909 41.472 
L 357.003636 41.472 
L 353.396364 41.472 
L 349.789091 41.472 
L 346.181818 41.472 
L 342.574545 41.472 
L 338.967273 41.472 
L 335.36 41.472 
L 331.752727 41.472 
L 328.145455 41.472 
L 324.538182 41.472 
L 320.930909 41.472 
L 317.323636 41.472 
L 313.716364 41.472 
L 310.109091 41.472 
L 306.501818 41.472 
L 302.894545 41.472 
L 299.287273 41.472 
L 295.68 41.472 
L 292.072727 41.472 
L 288.465455 41.472 
L 284.858182 41.472 
L 281.250909 41.472 
L 277.643636 41.472 
L 274.036364 41.472 
L 270.429091 41.472 
L 266.821818 41.472 
L 263.214545 41.472 
L 259.607273 41.472 
L 256 41.472 
L 252.392727 41.472 
L 248.785455 41.472 
L 245.178182 41.472 
L 241.570909 41.472 
L 237.963636 41.472 
L 234.356364 41.472 
L 230.749091 41.472 
L 227.141818 41.472 
L 223.534545 41.472 
L 219.927273 41.472 
L 216.32 41.472 
L 212.712727 41.472 
L 209.105455 41.472 
L 205.498182 41.472 
L 201.890909 41.472 
L 198.283636 41.472 
L 194.676364 41.472 
L 191.069091 41.472 
L 187.461818 41.472 
L 183.854545 41.472 
L 180.247273 41.472 
L 176.64 41.472 
L 173.032727 41.472 
L 169.425455 41.472 
L 165.818182 41.472 
L 162.210909 41.472 
L 158.603636 41.472 
L 154.996364 41.472 
L 151.389091 41.472 
L 147.781818 41.472 
L 144.174545 41.472 
L 140.567273 41.472 
L 136.96 41.472 
L 133.352727 41.472 
L 129.745455 41.472 
L 126.138182 41.472 
L 122.530909 41.472 
L 118.923636 41.472 
L 115.316364 41.472 
L 111.709091 41.472 
L 108.101818 41.472 
L 104.494545 41.472 
L 100.887273 41.472 
L 97.28 41.472 
L 93.672727 41.472 
L 90.065455 41.472 
L 86.458182 41.472 
L 82.850909 41.472 
L 79.243636 41.472 
L 75.636364 41.472 
L 72.029091 41.472 
L 68.421818 41.472 
L 64.814545 41.472 
L 61.207273 41.472 
L 57.6 41.472 
L 57.6 44.16 
L 57.6 46.848 
L 57.6 49.536 
L 57.6 52.224 
L 57.6 54.912 
L 57.6 57.6 
L 57.6 60.288 
L 57.6 62.976 
L 57.6 65.664 
L 57.6 68.352 
L 57.6 71.04 
L 57.6 71.807782 
z
" clip-path="url(#p60fea0c942)" style="fill: #d0e11c; fill-opacity: 0.75"/>
   </g>
   <g id="matplotlib.axis_1">
    <g id="xtick_1">
     <g id="line2d_1">
      <defs>
       <path id="m4967800480" d="M 0 0 
L 0 3.5 
" style="stroke: #000000; stroke-width: 0.8"/>
      </defs>
      <g>
       <use xlink:href="#m4967800480" x="63.755427" y="307.584" style="stroke: #000000; stroke-width: 0.8"/>
      </g>
     </g>
     <g id="text_1">
      <!-- 0.05 -->
      <g transform="translate(52.622615 322.182437) scale(0.1 -0.1)">
       <defs>
        <path id="DejaVuSans-30" d="M 2034 4250 
Q 1547 4250 1301 3770 
Q 1056 3291 1056 2328 
Q 1056 1369 1301 889 
Q 1547 409 2034 409 
Q 2525 409 2770 889 
Q 3016 1369 3016 2328 
Q 3016 3291 2770 3770 
Q 2525 4250 2034 4250 
z
M 2034 4750 
Q 2819 4750 3233 4129 
Q 3647 3509 3647 2328 
Q 3647 1150 3233 529 
Q 2819 -91 2034 -91 
Q 1250 -91 836 529 
Q 422 1150 422 2328 
Q 422 3509 836 4129 
Q 1250 4750 2034 4750 
z
" transform="scale(0.015625)"/>
        <path id="DejaVuSans-2e" d="M 684 794 
L 1344 794 
L 1344 0 
L 684 0 
L 684 794 
z
" transform="scale(0.015625)"/>
        <path id="DejaVuSans-35" d="M 691 4666 
L 3169 4666 
L 3169 4134 
L 1269 4134 
L 1269 2991 
Q 1406 3038 1543 3061 
Q 1681 3084 1819 3084 
Q 2600 3084 3056 2656 
Q 3513 2228 3513 1497 
Q 3513 744 3044 326 
Q 2575 -91 1722 -91 
Q 1428 -91 1123 -41 
Q 819 9 494 109 
L 494 744 
Q 775 591 1075 516 
Q 1375 441 1709 441 
Q 2250 441 2565 725 
Q 2881 1009 2881 1497 
Q 2881 1984 2565 2268 
Q 2250 2553 1709 2553 
Q 1456 2553 1204 2497 
Q 953 2441 691 2322 
L 691 4666 
z
" transform="scale(0.015625)"/>
       </defs>
       <use xlink:href="#DejaVuSans-30"/>
       <use xlink:href="#DejaVuSans-2e" x="63.623047"/>
       <use xlink:href="#DejaVuSans-30" x="95.410156"/>
       <use xlink:href="#DejaVuSans-35" x="159.033203"/>
      </g>
     </g>
    </g>
    <g id="xtick_2">
     <g id="line2d_2">
      <g>
       <use xlink:href="#m4967800480" x="129.518539" y="307.584" style="stroke: #000000; stroke-width: 0.8"/>
      </g>
     </g>
     <g id="text_2">
      <!-- 0.10 -->
      <g transform="translate(118.385726 322.182437) scale(0.1 -0.1)">
       <defs>
        <path id="DejaVuSans-31" d="M 794 531 
L 1825 531 
L 1825 4091 
L 703 3866 
L 703 4441 
L 1819 4666 
L 2450 4666 
L 2450 531 
L 3481 531 
L 3481 0 
L 794 0 
L 794 531 
z
" transform="scale(0.015625)"/>
       </defs>
       <use xlink:href="#DejaVuSans-30"/>
       <use xlink:href="#DejaVuSans-2e" x="63.623047"/>
       <use xlink:href="#DejaVuSans-31" x="95.410156"/>
       <use xlink:href="#DejaVuSans-30" x="159.033203"/>
      </g>
     </g>
    </g>
    <g id="xtick_3">
     <g id="line2d_3">
      <g>
       <use xlink:href="#m4967800480" x="195.28165" y="307.584" style="stroke: #000000; stroke-width: 0.8"/>
      </g>
     </g>
     <g id="text_3">
      <!-- 0.15 -->
      <g transform="translate(184.148837 322.182437) scale(0.1 -0.1)">
       <use xlink:href="#DejaVuSans-30"/>
       <use xlink:href="#DejaVuSans-2e" x="63.623047"/>
       <use xlink:href="#DejaVuSans-31" x="95.410156"/>
       <use xlink:href="#DejaVuSans-35" x="159.033203"/>
      </g>
     </g>
    </g>
    <g id="xtick_4">
     <g id="line2d_4">
      <g>
       <use xlink:href="#m4967800480" x="261.044761" y="307.584" style="stroke: #000000; stroke-width: 0.8"/>
      </g>
     </g>
     <g id="text_4">
      <!-- 0.20 -->
      <g transform="translate(249.911949 322.182437) scale(0.1 -0.1)">
       <defs>
        <path id="DejaVuSans-32" d="M 1228 531 
L 3431 531 
L 3431 0 
L 469 0 
L 469 531 
Q 828 903 1448 1529 
Q 2069 2156 2228 2338 
Q 2531 2678 2651 2914 
Q 2772 3150 2772 3378 
Q 2772 3750 2511 3984 
Q 2250 4219 1831 4219 
Q 1534 4219 1204 4116 
Q 875 4013 500 3803 
L 500 4441 
Q 881 4594 1212 4672 
Q 1544 4750 1819 4750 
Q 2544 4750 2975 4387 
Q 3406 4025 3406 3419 
Q 3406 3131 3298 2873 
Q 3191 2616 2906 2266 
Q 2828 2175 2409 1742 
Q 1991 1309 1228 531 
z
" transform="scale(0.015625)"/>
       </defs>
       <use xlink:href="#DejaVuSans-30"/>
       <use xlink:href="#DejaVuSans-2e" x="63.623047"/>
       <use xlink:href="#DejaVuSans-32" x="95.410156"/>
       <use xlink:href="#DejaVuSans-30" x="159.033203"/>
      </g>
     </g>
    </g>
    <g id="xtick_5">
     <g id="line2d_5">
      <g>
       <use xlink:href="#m4967800480" x="326.807873" y="307.584" style="stroke: #000000; stroke-width: 0.8"/>
      </g>
     </g>
     <g id="text_5">
      <!-- 0.25 -->
      <g transform="translate(315.67506 322.182437) scale(0.1 -0.1)">
       <use xlink:href="#DejaVuSans-30"/>
       <use xlink:href="#DejaVuSans-2e" x="63.623047"/>
       <use xlink:href="#DejaVuSans-32" x="95.410156"/>
       <use xlink:href="#DejaVuSans-35" x="159.033203"/>
      </g>
     </g>
    </g>
    <g id="xtick_6">
     <g id="line2d_6">
      <g>
       <use xlink:href="#m4967800480" x="392.570984" y="307.584" style="stroke: #000000; stroke-width: 0.8"/>
      </g>
     </g>
     <g id="text_6">
      <!-- 0.30 -->
      <g transform="translate(381.438172 322.182437) scale(0.1 -0.1)">
       <defs>
        <path id="DejaVuSans-33" d="M 2597 2516 
Q 3050 2419 3304 2112 
Q 3559 1806 3559 1356 
Q 3559 666 3084 287 
Q 2609 -91 1734 -91 
Q 1441 -91 1130 -33 
Q 819 25 488 141 
L 488 750 
Q 750 597 1062 519 
Q 1375 441 1716 441 
Q 2309 441 2620 675 
Q 2931 909 2931 1356 
Q 2931 1769 2642 2001 
Q 2353 2234 1838 2234 
L 1294 2234 
L 1294 2753 
L 1863 2753 
Q 2328 2753 2575 2939 
Q 2822 3125 2822 3475 
Q 2822 3834 2567 4026 
Q 2313 4219 1838 4219 
Q 1578 4219 1281 4162 
Q 984 4106 628 3988 
L 628 4550 
Q 988 4650 1302 4700 
Q 1616 4750 1894 4750 
Q 2613 4750 3031 4423 
Q 3450 4097 3450 3541 
Q 3450 3153 3228 2886 
Q 3006 2619 2597 2516 
z
" transform="scale(0.015625)"/>
       </defs>
       <use xlink:href="#DejaVuSans-30"/>
       <use xlink:href="#DejaVuSans-2e" x="63.623047"/>
       <use xlink:href="#DejaVuSans-33" x="95.410156"/>
       <use xlink:href="#DejaVuSans-30" x="159.033203"/>
      </g>
     </g>
    </g>
    <g id="text_7">
     <!-- Obesity Rate -->
     <g transform="translate(204.008437 335.860562) scale(0.1 -0.1)">
      <defs>
       <path id="DejaVuSans-4f" d="M 2522 4238 
Q 1834 4238 1429 3725 
Q 1025 3213 1025 2328 
Q 1025 1447 1429 934 
Q 1834 422 2522 422 
Q 3209 422 3611 934 
Q 4013 1447 4013 2328 
Q 4013 3213 3611 3725 
Q 3209 4238 2522 4238 
z
M 2522 4750 
Q 3503 4750 4090 4092 
Q 4678 3434 4678 2328 
Q 4678 1225 4090 567 
Q 3503 -91 2522 -91 
Q 1538 -91 948 565 
Q 359 1222 359 2328 
Q 359 3434 948 4092 
Q 1538 4750 2522 4750 
z
" transform="scale(0.015625)"/>
       <path id="DejaVuSans-62" d="M 3116 1747 
Q 3116 2381 2855 2742 
Q 2594 3103 2138 3103 
Q 1681 3103 1420 2742 
Q 1159 2381 1159 1747 
Q 1159 1113 1420 752 
Q 1681 391 2138 391 
Q 2594 391 2855 752 
Q 3116 1113 3116 1747 
z
M 1159 2969 
Q 1341 3281 1617 3432 
Q 1894 3584 2278 3584 
Q 2916 3584 3314 3078 
Q 3713 2572 3713 1747 
Q 3713 922 3314 415 
Q 2916 -91 2278 -91 
Q 1894 -91 1617 61 
Q 1341 213 1159 525 
L 1159 0 
L 581 0 
L 581 4863 
L 1159 4863 
L 1159 2969 
z
" transform="scale(0.015625)"/>
       <path id="DejaVuSans-65" d="M 3597 1894 
L 3597 1613 
L 953 1613 
Q 991 1019 1311 708 
Q 1631 397 2203 397 
Q 2534 397 2845 478 
Q 3156 559 3463 722 
L 3463 178 
Q 3153 47 2828 -22 
Q 2503 -91 2169 -91 
Q 1331 -91 842 396 
Q 353 884 353 1716 
Q 353 2575 817 3079 
Q 1281 3584 2069 3584 
Q 2775 3584 3186 3129 
Q 3597 2675 3597 1894 
z
M 3022 2063 
Q 3016 2534 2758 2815 
Q 2500 3097 2075 3097 
Q 1594 3097 1305 2825 
Q 1016 2553 972 2059 
L 3022 2063 
z
" transform="scale(0.015625)"/>
       <path id="DejaVuSans-73" d="M 2834 3397 
L 2834 2853 
Q 2591 2978 2328 3040 
Q 2066 3103 1784 3103 
Q 1356 3103 1142 2972 
Q 928 2841 928 2578 
Q 928 2378 1081 2264 
Q 1234 2150 1697 2047 
L 1894 2003 
Q 2506 1872 2764 1633 
Q 3022 1394 3022 966 
Q 3022 478 2636 193 
Q 2250 -91 1575 -91 
Q 1294 -91 989 -36 
Q 684 19 347 128 
L 347 722 
Q 666 556 975 473 
Q 1284 391 1588 391 
Q 1994 391 2212 530 
Q 2431 669 2431 922 
Q 2431 1156 2273 1281 
Q 2116 1406 1581 1522 
L 1381 1569 
Q 847 1681 609 1914 
Q 372 2147 372 2553 
Q 372 3047 722 3315 
Q 1072 3584 1716 3584 
Q 2034 3584 2315 3537 
Q 2597 3491 2834 3397 
z
" transform="scale(0.015625)"/>
       <path id="DejaVuSans-69" d="M 603 3500 
L 1178 3500 
L 1178 0 
L 603 0 
L 603 3500 
z
M 603 4863 
L 1178 4863 
L 1178 4134 
L 603 4134 
L 603 4863 
z
" transform="scale(0.015625)"/>
       <path id="DejaVuSans-74" d="M 1172 4494 
L 1172 3500 
L 2356 3500 
L 2356 3053 
L 1172 3053 
L 1172 1153 
Q 1172 725 1289 603 
Q 1406 481 1766 481 
L 2356 481 
L 2356 0 
L 1766 0 
Q 1100 0 847 248 
Q 594 497 594 1153 
L 594 3053 
L 172 3053 
L 172 3500 
L 594 3500 
L 594 4494 
L 1172 4494 
z
" transform="scale(0.015625)"/>
       <path id="DejaVuSans-79" d="M 2059 -325 
Q 1816 -950 1584 -1140 
Q 1353 -1331 966 -1331 
L 506 -1331 
L 506 -850 
L 844 -850 
Q 1081 -850 1212 -737 
Q 1344 -625 1503 -206 
L 1606 56 
L 191 3500 
L 800 3500 
L 1894 763 
L 2988 3500 
L 3597 3500 
L 2059 -325 
z
" transform="scale(0.015625)"/>
       <path id="DejaVuSans-20" transform="scale(0.015625)"/>
       <path id="DejaVuSans-52" d="M 2841 2188 
Q 3044 2119 3236 1894 
Q 3428 1669 3622 1275 
L 4263 0 
L 3584 0 
L 2988 1197 
Q 2756 1666 2539 1819 
Q 2322 1972 1947 1972 
L 1259 1972 
L 1259 0 
L 628 0 
L 628 4666 
L 2053 4666 
Q 2853 4666 3247 4331 
Q 3641 3997 3641 3322 
Q 3641 2881 3436 2590 
Q 3231 2300 2841 2188 
z
M 1259 4147 
L 1259 2491 
L 2053 2491 
Q 2509 2491 2742 2702 
Q 2975 2913 2975 3322 
Q 2975 3731 2742 3939 
Q 2509 4147 2053 4147 
L 1259 4147 
z
" transform="scale(0.015625)"/>
       <path id="DejaVuSans-61" d="M 2194 1759 
Q 1497 1759 1228 1600 
Q 959 1441 959 1056 
Q 959 750 1161 570 
Q 1363 391 1709 391 
Q 2188 391 2477 730 
Q 2766 1069 2766 1631 
L 2766 1759 
L 2194 1759 
z
M 3341 1997 
L 3341 0 
L 2766 0 
L 2766 531 
Q 2569 213 2275 61 
Q 1981 -91 1556 -91 
Q 1019 -91 701 211 
Q 384 513 384 1019 
Q 384 1609 779 1909 
Q 1175 2209 1959 2209 
L 2766 2209 
L 2766 2266 
Q 2766 2663 2505 2880 
Q 2244 3097 1772 3097 
Q 1472 3097 1187 3025 
Q 903 2953 641 2809 
L 641 3341 
Q 956 3463 1253 3523 
Q 1550 3584 1831 3584 
Q 2591 3584 2966 3190 
Q 3341 2797 3341 1997 
z
" transform="scale(0.015625)"/>
      </defs>
      <use xlink:href="#DejaVuSans-4f"/>
      <use xlink:href="#DejaVuSans-62" x="78.710938"/>
      <use xlink:href="#DejaVuSans-65" x="142.1875"/>
      <use xlink:href="#DejaVuSans-73" x="203.710938"/>
      <use xlink:href="#DejaVuSans-69" x="255.810547"/>
      <use xlink:href="#DejaVuSans-74" x="283.59375"/>
      <use xlink:href="#DejaVuSans-79" x="322.802734"/>
      <use xlink:href="#DejaVuSans-20" x="381.982422"/>
      <use xlink:href="#DejaVuSans-52" x="413.769531"/>
      <use xlink:href="#DejaVuSans-61" x="481.001953"/>
      <use xlink:href="#DejaVuSans-74" x="542.28125"/>
      <use xlink:href="#DejaVuSans-65" x="581.490234"/>
     </g>
    </g>
   </g>
   <g id="matplotlib.axis_2">
    <g id="ytick_1">
     <g id="line2d_7">
      <defs>
       <path id="ma5a04579f4" d="M 0 0 
L -3.5 0 
" style="stroke: #000000; stroke-width: 0.8"/>
      </defs>
      <g>
       <use xlink:href="#ma5a04579f4" x="57.6" y="265.848463" style="stroke: #000000; stroke-width: 0.8"/>
      </g>
     </g>
     <g id="text_8">
      <!-- 5 -->
      <g transform="translate(44.2375 269.647682) scale(0.1 -0.1)">
       <use xlink:href="#DejaVuSans-35"/>
      </g>
     </g>
    </g>
    <g id="ytick_2">
     <g id="line2d_8">
      <g>
       <use xlink:href="#ma5a04579f4" x="57.6" y="212.495631" style="stroke: #000000; stroke-width: 0.8"/>
      </g>
     </g>
     <g id="text_9">
      <!-- 10 -->
      <g transform="translate(37.875 216.29485) scale(0.1 -0.1)">
       <use xlink:href="#DejaVuSans-31"/>
       <use xlink:href="#DejaVuSans-30" x="63.623047"/>
      </g>
     </g>
    </g>
    <g id="ytick_3">
     <g id="line2d_9">
      <g>
       <use xlink:href="#ma5a04579f4" x="57.6" y="159.142799" style="stroke: #000000; stroke-width: 0.8"/>
      </g>
     </g>
     <g id="text_10">
      <!-- 15 -->
      <g transform="translate(37.875 162.942017) scale(0.1 -0.1)">
       <use xlink:href="#DejaVuSans-31"/>
       <use xlink:href="#DejaVuSans-35" x="63.623047"/>
      </g>
     </g>
    </g>
    <g id="ytick_4">
     <g id="line2d_10">
      <g>
       <use xlink:href="#ma5a04579f4" x="57.6" y="105.789966" style="stroke: #000000; stroke-width: 0.8"/>
      </g>
     </g>
     <g id="text_11">
      <!-- 20 -->
      <g transform="translate(37.875 109.589185) scale(0.1 -0.1)">
       <use xlink:href="#DejaVuSans-32"/>
       <use xlink:href="#DejaVuSans-30" x="63.623047"/>
      </g>
     </g>
    </g>
    <g id="ytick_5">
     <g id="line2d_11">
      <g>
       <use xlink:href="#ma5a04579f4" x="57.6" y="52.437134" style="stroke: #000000; stroke-width: 0.8"/>
      </g>
     </g>
     <g id="text_12">
      <!-- 25 -->
      <g transform="translate(37.875 56.236353) scale(0.1 -0.1)">
       <use xlink:href="#DejaVuSans-32"/>
       <use xlink:href="#DejaVuSans-35" x="63.623047"/>
      </g>
     </g>
    </g>
    <g id="text_13">
     <!-- Beef Consumption -->
     <g transform="translate(31.795312 220.575656) rotate(-90) scale(0.1 -0.1)">
      <defs>
       <path id="DejaVuSans-42" d="M 1259 2228 
L 1259 519 
L 2272 519 
Q 2781 519 3026 730 
Q 3272 941 3272 1375 
Q 3272 1813 3026 2020 
Q 2781 2228 2272 2228 
L 1259 2228 
z
M 1259 4147 
L 1259 2741 
L 2194 2741 
Q 2656 2741 2882 2914 
Q 3109 3088 3109 3444 
Q 3109 3797 2882 3972 
Q 2656 4147 2194 4147 
L 1259 4147 
z
M 628 4666 
L 2241 4666 
Q 2963 4666 3353 4366 
Q 3744 4066 3744 3513 
Q 3744 3084 3544 2831 
Q 3344 2578 2956 2516 
Q 3422 2416 3680 2098 
Q 3938 1781 3938 1306 
Q 3938 681 3513 340 
Q 3088 0 2303 0 
L 628 0 
L 628 4666 
z
" transform="scale(0.015625)"/>
       <path id="DejaVuSans-66" d="M 2375 4863 
L 2375 4384 
L 1825 4384 
Q 1516 4384 1395 4259 
Q 1275 4134 1275 3809 
L 1275 3500 
L 2222 3500 
L 2222 3053 
L 1275 3053 
L 1275 0 
L 697 0 
L 697 3053 
L 147 3053 
L 147 3500 
L 697 3500 
L 697 3744 
Q 697 4328 969 4595 
Q 1241 4863 1831 4863 
L 2375 4863 
z
" transform="scale(0.015625)"/>
       <path id="DejaVuSans-43" d="M 4122 4306 
L 4122 3641 
Q 3803 3938 3442 4084 
Q 3081 4231 2675 4231 
Q 1875 4231 1450 3742 
Q 1025 3253 1025 2328 
Q 1025 1406 1450 917 
Q 1875 428 2675 428 
Q 3081 428 3442 575 
Q 3803 722 4122 1019 
L 4122 359 
Q 3791 134 3420 21 
Q 3050 -91 2638 -91 
Q 1578 -91 968 557 
Q 359 1206 359 2328 
Q 359 3453 968 4101 
Q 1578 4750 2638 4750 
Q 3056 4750 3426 4639 
Q 3797 4528 4122 4306 
z
" transform="scale(0.015625)"/>
       <path id="DejaVuSans-6f" d="M 1959 3097 
Q 1497 3097 1228 2736 
Q 959 2375 959 1747 
Q 959 1119 1226 758 
Q 1494 397 1959 397 
Q 2419 397 2687 759 
Q 2956 1122 2956 1747 
Q 2956 2369 2687 2733 
Q 2419 3097 1959 3097 
z
M 1959 3584 
Q 2709 3584 3137 3096 
Q 3566 2609 3566 1747 
Q 3566 888 3137 398 
Q 2709 -91 1959 -91 
Q 1206 -91 779 398 
Q 353 888 353 1747 
Q 353 2609 779 3096 
Q 1206 3584 1959 3584 
z
" transform="scale(0.015625)"/>
       <path id="DejaVuSans-6e" d="M 3513 2113 
L 3513 0 
L 2938 0 
L 2938 2094 
Q 2938 2591 2744 2837 
Q 2550 3084 2163 3084 
Q 1697 3084 1428 2787 
Q 1159 2491 1159 1978 
L 1159 0 
L 581 0 
L 581 3500 
L 1159 3500 
L 1159 2956 
Q 1366 3272 1645 3428 
Q 1925 3584 2291 3584 
Q 2894 3584 3203 3211 
Q 3513 2838 3513 2113 
z
" transform="scale(0.015625)"/>
       <path id="DejaVuSans-75" d="M 544 1381 
L 544 3500 
L 1119 3500 
L 1119 1403 
Q 1119 906 1312 657 
Q 1506 409 1894 409 
Q 2359 409 2629 706 
Q 2900 1003 2900 1516 
L 2900 3500 
L 3475 3500 
L 3475 0 
L 2900 0 
L 2900 538 
Q 2691 219 2414 64 
Q 2138 -91 1772 -91 
Q 1169 -91 856 284 
Q 544 659 544 1381 
z
M 1991 3584 
L 1991 3584 
z
" transform="scale(0.015625)"/>
       <path id="DejaVuSans-6d" d="M 3328 2828 
Q 3544 3216 3844 3400 
Q 4144 3584 4550 3584 
Q 5097 3584 5394 3201 
Q 5691 2819 5691 2113 
L 5691 0 
L 5113 0 
L 5113 2094 
Q 5113 2597 4934 2840 
Q 4756 3084 4391 3084 
Q 3944 3084 3684 2787 
Q 3425 2491 3425 1978 
L 3425 0 
L 2847 0 
L 2847 2094 
Q 2847 2600 2669 2842 
Q 2491 3084 2119 3084 
Q 1678 3084 1418 2786 
Q 1159 2488 1159 1978 
L 1159 0 
L 581 0 
L 581 3500 
L 1159 3500 
L 1159 2956 
Q 1356 3278 1631 3431 
Q 1906 3584 2284 3584 
Q 2666 3584 2933 3390 
Q 3200 3197 3328 2828 
z
" transform="scale(0.015625)"/>
       <path id="DejaVuSans-70" d="M 1159 525 
L 1159 -1331 
L 581 -1331 
L 581 3500 
L 1159 3500 
L 1159 2969 
Q 1341 3281 1617 3432 
Q 1894 3584 2278 3584 
Q 2916 3584 3314 3078 
Q 3713 2572 3713 1747 
Q 3713 922 3314 415 
Q 2916 -91 2278 -91 
Q 1894 -91 1617 61 
Q 1341 213 1159 525 
z
M 3116 1747 
Q 3116 2381 2855 2742 
Q 2594 3103 2138 3103 
Q 1681 3103 1420 2742 
Q 1159 2381 1159 1747 
Q 1159 1113 1420 752 
Q 1681 391 2138 391 
Q 2594 391 2855 752 
Q 3116 1113 3116 1747 
z
" transform="scale(0.015625)"/>
      </defs>
      <use xlink:href="#DejaVuSans-42"/>
      <use xlink:href="#DejaVuSans-65" x="68.603516"/>
      <use xlink:href="#DejaVuSans-65" x="130.126953"/>
      <use xlink:href="#DejaVuSans-66" x="191.650391"/>
      <use xlink:href="#DejaVuSans-20" x="226.855469"/>
      <use xlink:href="#DejaVuSans-43" x="258.642578"/>
      <use xlink:href="#DejaVuSans-6f" x="328.466797"/>
      <use xlink:href="#DejaVuSans-6e" x="389.648438"/>
      <use xlink:href="#DejaVuSans-73" x="453.027344"/>
      <use xlink:href="#DejaVuSans-75" x="505.126953"/>
      <use xlink:href="#DejaVuSans-6d" x="568.505859"/>
      <use xlink:href="#DejaVuSans-70" x="665.917969"/>
      <use xlink:href="#DejaVuSans-74" x="729.394531"/>
      <use xlink:href="#DejaVuSans-69" x="768.603516"/>
      <use xlink:href="#DejaVuSans-6f" x="796.386719"/>
      <use xlink:href="#DejaVuSans-6e" x="857.568359"/>
     </g>
    </g>
   </g>
   <g id="PathCollection_8"/>
   <g id="PathCollection_9">
    <path d="M 57.6 280.198175 
L 61.207273 280.198331 
L 64.814545 280.198487 
L 68.421818 280.198643 
L 72.029091 280.198799 
L 75.636364 280.198954 
L 79.243636 280.199109 
L 82.850909 280.199263 
L 86.458182 280.199417 
L 90.065455 280.199571 
L 93.672727 280.199724 
L 97.28 280.199877 
L 100.887273 280.20003 
L 104.494545 280.200182 
L 108.101818 280.200334 
L 111.709091 280.200486 
L 115.316364 280.200637 
L 118.923636 280.200788 
L 122.530909 280.200939 
L 126.138182 280.201089 
L 129.745455 280.201239 
L 133.352727 280.201389 
L 136.96 280.201538 
L 140.567273 280.201687 
L 144.174545 280.201836 
L 147.781818 280.201984 
L 151.389091 280.202132 
L 154.996364 280.202279 
L 158.603636 280.202426 
L 162.210909 280.202573 
L 165.818182 280.20272 
L 169.425455 280.202866 
L 173.032727 280.203012 
L 176.64 280.203157 
L 180.247273 280.203302 
L 183.854545 280.203447 
L 187.461818 280.203591 
L 191.069091 280.203735 
L 194.676364 280.203879 
L 198.283636 280.204022 
L 201.890909 280.204165 
L 205.498182 280.204308 
L 209.105455 280.20445 
L 212.712727 280.204592 
L 216.32 280.204734 
L 219.927273 280.204875 
L 223.534545 280.205016 
L 227.141818 280.205157 
L 230.749091 280.205297 
L 234.356364 280.205437 
L 237.963636 280.205577 
L 241.570909 280.205716 
L 245.178182 280.205855 
L 248.785455 280.205993 
L 248.866818 280.205996 
" clip-path="url(#p60fea0c942)" style="fill: none; stroke: #000000; stroke-width: 0.5"/>
    <path d="M 284.776818 280.207356 
L 284.858182 280.207359 
L 288.465455 280.207494 
L 292.072727 280.207628 
L 295.68 280.207762 
L 299.287273 280.207896 
L 302.894545 280.208029 
L 306.501818 280.208162 
L 310.109091 280.208295 
L 313.716364 280.208427 
L 317.323636 280.208559 
L 320.930909 280.208691 
L 324.538182 280.208822 
L 328.145455 280.208953 
L 331.752727 280.209083 
L 335.36 280.209214 
L 338.967273 280.209343 
L 342.574545 280.209473 
L 346.181818 280.209602 
L 349.789091 280.209731 
L 353.396364 280.209859 
L 357.003636 280.209987 
L 360.610909 280.210115 
L 364.218182 280.210243 
L 367.825455 280.21037 
L 371.432727 280.210496 
L 375.04 280.210623 
L 378.647273 280.210749 
L 382.254545 280.210875 
L 385.861818 280.211 
L 389.469091 280.211125 
L 393.076364 280.21125 
L 396.683636 280.211374 
L 400.290909 280.211498 
L 403.898182 280.211621 
L 407.505455 280.211745 
L 411.112727 280.211868 
L 414.72 280.21199 
" clip-path="url(#p60fea0c942)" style="fill: none; stroke: #000000; stroke-width: 0.5"/>
   </g>
   <g id="PathCollection_10">
    <path d="M 57.6 239.792555 
L 61.207273 239.792717 
L 64.814545 239.792877 
L 68.421818 239.793038 
L 72.029091 239.793198 
L 75.636364 239.793357 
L 79.243636 239.793517 
L 82.850909 239.793676 
L 86.458182 239.793834 
L 90.065455 239.793992 
L 93.672727 239.79415 
L 97.28 239.794307 
L 100.887273 239.794464 
L 104.494545 239.794621 
L 108.101818 239.794777 
L 111.709091 239.794933 
L 115.316364 239.795089 
L 118.923636 239.795244 
L 122.530909 239.795399 
L 126.138182 239.795553 
L 129.745455 239.795707 
L 133.352727 239.795861 
L 136.96 239.796014 
L 140.567273 239.796167 
L 144.174545 239.796319 
L 147.781818 239.796471 
L 151.389091 239.796623 
L 154.996364 239.796774 
L 158.603636 239.796925 
L 162.210909 239.797076 
L 165.818182 239.797226 
L 169.425455 239.797376 
L 173.032727 239.797525 
L 176.64 239.797674 
L 180.247273 239.797823 
L 183.854545 239.797971 
L 187.461818 239.798119 
L 191.069091 239.798267 
L 194.676364 239.798414 
L 198.283636 239.798561 
L 201.890909 239.798707 
L 205.498182 239.798853 
L 209.105455 239.798999 
L 212.712727 239.799144 
L 216.32 239.799289 
L 219.927273 239.799434 
L 223.534545 239.799578 
L 227.141818 239.799722 
L 230.749091 239.799865 
L 234.356364 239.800008 
L 237.963636 239.800151 
L 241.570909 239.800293 
L 245.178182 239.800435 
L 248.785455 239.800577 
L 248.866818 239.80058 
" clip-path="url(#p60fea0c942)" style="fill: none; stroke: #000000; stroke-width: 0.5"/>
    <path d="M 284.776818 239.801968 
L 284.858182 239.801971 
L 288.465455 239.802108 
L 292.072727 239.802245 
L 295.68 239.802382 
L 299.287273 239.802518 
L 302.894545 239.802654 
L 306.501818 239.80279 
L 310.109091 239.802925 
L 313.716364 239.803059 
L 317.323636 239.803194 
L 320.930909 239.803328 
L 324.538182 239.803461 
L 328.145455 239.803595 
L 331.752727 239.803727 
L 335.36 239.80386 
L 338.967273 239.803992 
L 342.574545 239.804124 
L 346.181818 239.804255 
L 349.789091 239.804386 
L 353.396364 239.804517 
L 357.003636 239.804647 
L 360.610909 239.804777 
L 364.218182 239.804906 
L 367.825455 239.805035 
L 371.432727 239.805164 
L 375.04 239.805292 
L 378.647273 239.80542 
L 382.254545 239.805548 
L 385.861818 239.805675 
L 389.469091 239.805802 
L 393.076364 239.805928 
L 396.683636 239.806054 
L 400.290909 239.80618 
L 403.898182 239.806305 
L 407.505455 239.80643 
L 411.112727 239.806554 
L 414.72 239.806679 
" clip-path="url(#p60fea0c942)" style="fill: none; stroke: #000000; stroke-width: 0.5"/>
   </g>
   <g id="PathCollection_11">
    <path d="M 57.6 198.950615 
L 61.207273 198.950782 
L 64.814545 198.950948 
L 68.421818 198.951113 
L 72.029091 198.951279 
L 75.636364 198.951443 
L 79.243636 198.951608 
L 82.850909 198.951771 
L 86.458182 198.951935 
L 90.065455 198.952098 
L 93.672727 198.952261 
L 97.28 198.952423 
L 100.887273 198.952585 
L 104.494545 198.952746 
L 108.101818 198.952907 
L 111.709091 198.953068 
L 115.316364 198.953228 
L 118.923636 198.953388 
L 122.530909 198.953547 
L 126.138182 198.953706 
L 129.745455 198.953865 
L 133.352727 198.954023 
L 136.96 198.954181 
L 140.567273 198.954338 
L 144.174545 198.954495 
L 147.781818 198.954651 
L 151.389091 198.954808 
L 154.996364 198.954963 
L 158.603636 198.955118 
L 162.210909 198.955273 
L 165.818182 198.955428 
L 169.425455 198.955582 
L 173.032727 198.955735 
L 176.64 198.955889 
L 180.247273 198.956042 
L 183.854545 198.956194 
L 187.461818 198.956346 
L 191.069091 198.956497 
L 194.676364 198.956649 
L 198.283636 198.956799 
L 201.890909 198.95695 
L 205.498182 198.9571 
L 209.105455 198.957249 
L 212.712727 198.957398 
L 216.32 198.957547 
L 219.927273 198.957695 
L 223.534545 198.957843 
L 227.141818 198.957991 
L 230.749091 198.958138 
L 234.356364 198.958284 
L 237.963636 198.958431 
L 241.570909 198.958576 
L 245.178182 198.958722 
L 248.785455 198.958867 
L 248.866818 198.95887 
" clip-path="url(#p60fea0c942)" style="fill: none; stroke: #000000; stroke-width: 0.5"/>
    <path d="M 284.776818 198.960291 
L 284.858182 198.960294 
L 288.465455 198.960435 
L 292.072727 198.960575 
L 295.68 198.960714 
L 299.287273 198.960854 
L 302.894545 198.960993 
L 306.501818 198.961131 
L 310.109091 198.961269 
L 313.716364 198.961407 
L 317.323636 198.961544 
L 320.930909 198.961681 
L 324.538182 198.961817 
L 328.145455 198.961953 
L 331.752727 198.962088 
L 335.36 198.962224 
L 338.967273 198.962358 
L 342.574545 198.962493 
L 346.181818 198.962626 
L 349.789091 198.96276 
L 353.396364 198.962893 
L 357.003636 198.963026 
L 360.610909 198.963158 
L 364.218182 198.96329 
L 367.825455 198.963421 
L 371.432727 198.963552 
L 375.04 198.963683 
L 378.647273 198.963813 
L 382.254545 198.963943 
L 385.861818 198.964072 
L 389.469091 198.964201 
L 393.076364 198.96433 
L 396.683636 198.964458 
L 400.290909 198.964586 
L 403.898182 198.964713 
L 407.505455 198.96484 
L 411.112727 198.964967 
L 414.72 198.965093 
" clip-path="url(#p60fea0c942)" style="fill: none; stroke: #000000; stroke-width: 0.5"/>
   </g>
   <g id="PathCollection_12">
    <path d="M 57.6 157.486984 
L 61.207273 157.487156 
L 64.814545 157.487328 
L 68.421818 157.487499 
L 72.029091 157.48767 
L 75.636364 157.48784 
L 79.243636 157.48801 
L 82.850909 157.48818 
L 86.458182 157.488349 
L 90.065455 157.488518 
L 93.672727 157.488686 
L 97.28 157.488854 
L 100.887273 157.489021 
L 104.494545 157.489188 
L 108.101818 157.489354 
L 111.709091 157.48952 
L 115.316364 157.489686 
L 118.923636 157.489851 
L 122.530909 157.490015 
L 126.138182 157.49018 
L 129.745455 157.490343 
L 133.352727 157.490507 
L 136.96 157.49067 
L 140.567273 157.490832 
L 144.174545 157.490994 
L 147.781818 157.491155 
L 151.389091 157.491316 
L 154.996364 157.491477 
L 158.603636 157.491637 
L 162.210909 157.491797 
L 165.818182 157.491956 
L 169.425455 157.492115 
L 173.032727 157.492273 
L 176.64 157.492431 
L 180.247273 157.492589 
L 183.854545 157.492746 
L 187.461818 157.492902 
L 191.069091 157.493059 
L 194.676364 157.493214 
L 198.283636 157.49337 
L 201.890909 157.493524 
L 205.498182 157.493679 
L 209.105455 157.493833 
L 212.712727 157.493986 
L 216.32 157.494139 
L 219.927273 157.494292 
L 223.534545 157.494444 
L 227.141818 157.494595 
L 230.749091 157.494747 
L 234.356364 157.494897 
L 237.963636 157.495048 
L 241.570909 157.495198 
L 245.178182 157.495347 
L 248.785455 157.495496 
L 248.866818 157.495499 
" clip-path="url(#p60fea0c942)" style="fill: none; stroke: #000000; stroke-width: 0.5"/>
    <path d="M 284.776818 157.496958 
L 284.858182 157.496961 
L 288.465455 157.497105 
L 292.072727 157.497249 
L 295.68 157.497392 
L 299.287273 157.497535 
L 302.894545 157.497677 
L 306.501818 157.497819 
L 310.109091 157.497961 
L 313.716364 157.498101 
L 317.323636 157.498242 
L 320.930909 157.498382 
L 324.538182 157.498522 
L 328.145455 157.498661 
L 331.752727 157.498799 
L 335.36 157.498938 
L 338.967273 157.499076 
L 342.574545 157.499213 
L 346.181818 157.49935 
L 349.789091 157.499486 
L 353.396364 157.499622 
L 357.003636 157.499758 
L 360.610909 157.499893 
L 364.218182 157.500028 
L 367.825455 157.500162 
L 371.432727 157.500296 
L 375.04 157.500429 
L 378.647273 157.500562 
L 382.254545 157.500695 
L 385.861818 157.500827 
L 389.469091 157.500958 
L 393.076364 157.501089 
L 396.683636 157.50122 
L 400.290909 157.50135 
L 403.898182 157.50148 
L 407.505455 157.501609 
L 411.112727 157.501738 
L 414.72 157.501867 
" clip-path="url(#p60fea0c942)" style="fill: none; stroke: #000000; stroke-width: 0.5"/>
   </g>
   <g id="PathCollection_13">
    <path d="M 57.6 115.189094 
L 61.207273 115.189273 
L 64.814545 115.189452 
L 68.421818 115.18963 
L 72.029091 115.189808 
L 75.636364 115.189985 
L 79.243636 115.190161 
L 82.850909 115.190338 
L 86.458182 115.190513 
L 90.065455 115.190688 
L 93.672727 115.190863 
L 97.28 115.191037 
L 100.887273 115.191211 
L 104.494545 115.191384 
L 108.101818 115.191557 
L 111.709091 115.19173 
L 115.316364 115.191901 
L 118.923636 115.192073 
L 122.530909 115.192243 
L 126.138182 115.192414 
L 129.745455 115.192584 
L 133.352727 115.192753 
L 136.96 115.192922 
L 140.567273 115.19309 
L 144.174545 115.193258 
L 147.781818 115.193426 
L 151.389091 115.193593 
L 154.996364 115.193759 
L 158.603636 115.193925 
L 162.210909 115.19409 
L 165.818182 115.194255 
L 169.425455 115.19442 
L 173.032727 115.194584 
L 176.64 115.194748 
L 180.247273 115.194911 
L 183.854545 115.195073 
L 187.461818 115.195235 
L 191.069091 115.195397 
L 194.676364 115.195558 
L 198.283636 115.195718 
L 201.890909 115.195879 
L 205.498182 115.196038 
L 209.105455 115.196197 
L 212.712727 115.196356 
L 216.32 115.196514 
L 219.927273 115.196672 
L 223.534545 115.196829 
L 227.141818 115.196986 
L 230.749091 115.197142 
L 234.356364 115.197298 
L 237.963636 115.197453 
L 241.570909 115.197608 
L 245.178182 115.197762 
L 248.785455 115.197916 
L 248.866818 115.197919 
" clip-path="url(#p60fea0c942)" style="fill: none; stroke: #000000; stroke-width: 0.5"/>
    <path d="M 284.776818 115.199424 
L 284.858182 115.199427 
L 288.465455 115.199575 
L 292.072727 115.199723 
L 295.68 115.199871 
L 299.287273 115.200018 
L 302.894545 115.200164 
L 306.501818 115.20031 
L 310.109091 115.200456 
L 313.716364 115.200601 
L 317.323636 115.200745 
L 320.930909 115.200889 
L 324.538182 115.201033 
L 328.145455 115.201176 
L 331.752727 115.201319 
L 335.36 115.201461 
L 338.967273 115.201602 
L 342.574545 115.201744 
L 346.181818 115.201884 
L 349.789091 115.202024 
L 353.396364 115.202164 
L 357.003636 115.202303 
L 360.610909 115.202442 
L 364.218182 115.20258 
L 367.825455 115.202718 
L 371.432727 115.202855 
L 375.04 115.202992 
L 378.647273 115.203128 
L 382.254545 115.203264 
L 385.861818 115.203399 
L 389.469091 115.203534 
L 393.076364 115.203668 
L 396.683636 115.203802 
L 400.290909 115.203936 
L 403.898182 115.204068 
L 407.505455 115.204201 
L 411.112727 115.204333 
L 414.72 115.204464 
" clip-path="url(#p60fea0c942)" style="fill: none; stroke: #000000; stroke-width: 0.5"/>
   </g>
   <g id="PathCollection_14">
    <path d="M 57.6 71.807782 
L 61.207273 71.807969 
L 64.814545 71.808155 
L 68.421818 71.808341 
L 72.029091 71.808526 
L 75.636364 71.808711 
L 79.243636 71.808896 
L 82.850909 71.809079 
L 86.458182 71.809263 
L 90.065455 71.809445 
L 93.672727 71.809628 
L 97.28 71.809809 
L 100.887273 71.80999 
L 104.494545 71.810171 
L 108.101818 71.810351 
L 111.709091 71.810531 
L 115.316364 71.81071 
L 118.923636 71.810888 
L 122.530909 71.811066 
L 126.138182 71.811243 
L 129.745455 71.81142 
L 133.352727 71.811597 
L 136.96 71.811772 
L 140.567273 71.811948 
L 144.174545 71.812122 
L 147.781818 71.812297 
L 151.389091 71.81247 
L 154.996364 71.812643 
L 158.603636 71.812816 
L 162.210909 71.812988 
L 165.818182 71.81316 
L 169.425455 71.813331 
L 173.032727 71.813501 
L 176.64 71.813671 
L 180.247273 71.813841 
L 183.854545 71.81401 
L 187.461818 71.814178 
L 191.069091 71.814346 
L 194.676364 71.814513 
L 198.283636 71.81468 
L 201.890909 71.814846 
L 205.498182 71.815012 
L 209.105455 71.815177 
L 212.712727 71.815342 
L 216.32 71.815506 
L 219.927273 71.81567 
L 223.534545 71.815833 
L 227.141818 71.815995 
L 230.749091 71.816157 
L 234.356364 71.816319 
L 237.963636 71.81648 
L 241.570909 71.81664 
L 245.178182 71.8168 
L 248.785455 71.816959 
L 248.866818 71.816963 
" clip-path="url(#p60fea0c942)" style="fill: none; stroke: #000000; stroke-width: 0.5"/>
    <path d="M 284.776818 71.81852 
L 284.858182 71.818524 
L 288.465455 71.818677 
L 292.072727 71.81883 
L 295.68 71.818983 
L 299.287273 71.819134 
L 302.894545 71.819286 
L 306.501818 71.819437 
L 310.109091 71.819587 
L 313.716364 71.819737 
L 317.323636 71.819886 
L 320.930909 71.820035 
L 324.538182 71.820183 
L 328.145455 71.820331 
L 331.752727 71.820478 
L 335.36 71.820624 
L 338.967273 71.82077 
L 342.574545 71.820916 
L 346.181818 71.821061 
L 349.789091 71.821205 
L 353.396364 71.821349 
L 357.003636 71.821493 
L 360.610909 71.821636 
L 364.218182 71.821778 
L 367.825455 71.82192 
L 371.432727 71.822061 
L 375.04 71.822202 
L 378.647273 71.822342 
L 382.254545 71.822482 
L 385.861818 71.822621 
L 389.469091 71.82276 
L 393.076364 71.822898 
L 396.683636 71.823035 
L 400.290909 71.823172 
L 403.898182 71.823309 
L 407.505455 71.823445 
L 411.112727 71.82358 
L 414.72 71.823715 
" clip-path="url(#p60fea0c942)" style="fill: none; stroke: #000000; stroke-width: 0.5"/>
   </g>
   <g id="PathCollection_15"/>
   <g id="LineCollection_1">
    <path d="M 70.331738 307.584 
L 70.331738 294.2784 
" clip-path="url(#p60fea0c942)" style="fill: none; stroke: #000000; stroke-width: 1.5"/>
    <path d="M 99.846223 307.584 
L 99.846223 294.2784 
" clip-path="url(#p60fea0c942)" style="fill: none; stroke: #000000; stroke-width: 1.5"/>
    <path d="M 129.465928 307.584 
L 129.465928 294.2784 
" clip-path="url(#p60fea0c942)" style="fill: none; stroke: #000000; stroke-width: 1.5"/>
    <path d="M 223.533483 307.584 
L 223.533483 294.2784 
" clip-path="url(#p60fea0c942)" style="fill: none; stroke: #000000; stroke-width: 1.5"/>
    <path d="M 263.675286 307.584 
L 263.675286 294.2784 
" clip-path="url(#p60fea0c942)" style="fill: none; stroke: #000000; stroke-width: 1.5"/>
    <path d="M 284.088156 307.584 
L 284.088156 294.2784 
" clip-path="url(#p60fea0c942)" style="fill: none; stroke: #000000; stroke-width: 1.5"/>
    <path d="M 301.81789 307.584 
L 301.81789 294.2784 
" clip-path="url(#p60fea0c942)" style="fill: none; stroke: #000000; stroke-width: 1.5"/>
    <path d="M 335.435993 307.584 
L 335.435993 294.2784 
" clip-path="url(#p60fea0c942)" style="fill: none; stroke: #000000; stroke-width: 1.5"/>
    <path d="M 378.208321 307.584 
L 378.208321 294.2784 
" clip-path="url(#p60fea0c942)" style="fill: none; stroke: #000000; stroke-width: 1.5"/>
   </g>
   <g id="LineCollection_2">
    <path clip-path="url(#p60fea0c942)" style="fill: none; stroke: #000000; stroke-width: 1.5"/>
    <path clip-path="url(#p60fea0c942)" style="fill: none; stroke: #000000; stroke-width: 1.5"/>
    <path clip-path="url(#p60fea0c942)" style="fill: none; stroke: #000000; stroke-width: 1.5"/>
    <path clip-path="url(#p60fea0c942)" style="fill: none; stroke: #000000; stroke-width: 1.5"/>
    <path clip-path="url(#p60fea0c942)" style="fill: none; stroke: #000000; stroke-width: 1.5"/>
    <path clip-path="url(#p60fea0c942)" style="fill: none; stroke: #000000; stroke-width: 1.5"/>
    <path clip-path="url(#p60fea0c942)" style="fill: none; stroke: #000000; stroke-width: 1.5"/>
    <path clip-path="url(#p60fea0c942)" style="fill: none; stroke: #000000; stroke-width: 1.5"/>
    <path clip-path="url(#p60fea0c942)" style="fill: none; stroke: #000000; stroke-width: 1.5"/>
   </g>
   <g id="patch_3">
    <path d="M 57.6 307.584 
L 57.6 41.472 
" style="fill: none; stroke: #000000; stroke-width: 0.8; stroke-linejoin: miter; stroke-linecap: square"/>
   </g>
   <g id="patch_4">
    <path d="M 414.72 307.584 
L 414.72 41.472 
" style="fill: none; stroke: #000000; stroke-width: 0.8; stroke-linejoin: miter; stroke-linecap: square"/>
   </g>
   <g id="patch_5">
    <path d="M 57.6 307.584 
L 414.72 307.584 
" style="fill: none; stroke: #000000; stroke-width: 0.8; stroke-linejoin: miter; stroke-linecap: square"/>
   </g>
   <g id="patch_6">
    <path d="M 57.6 41.472 
L 414.72 41.472 
" style="fill: none; stroke: #000000; stroke-width: 0.8; stroke-linejoin: miter; stroke-linecap: square"/>
   </g>
   <g id="text_14">
    <!-- 2D-partial dependency plot between Obesity and Beef -->
    <g transform="translate(72.576562 35.472) scale(0.12 -0.12)">
     <defs>
      <path id="DejaVuSans-44" d="M 1259 4147 
L 1259 519 
L 2022 519 
Q 2988 519 3436 956 
Q 3884 1394 3884 2338 
Q 3884 3275 3436 3711 
Q 2988 4147 2022 4147 
L 1259 4147 
z
M 628 4666 
L 1925 4666 
Q 3281 4666 3915 4102 
Q 4550 3538 4550 2338 
Q 4550 1131 3912 565 
Q 3275 0 1925 0 
L 628 0 
L 628 4666 
z
" transform="scale(0.015625)"/>
      <path id="DejaVuSans-2d" d="M 313 2009 
L 1997 2009 
L 1997 1497 
L 313 1497 
L 313 2009 
z
" transform="scale(0.015625)"/>
      <path id="DejaVuSans-72" d="M 2631 2963 
Q 2534 3019 2420 3045 
Q 2306 3072 2169 3072 
Q 1681 3072 1420 2755 
Q 1159 2438 1159 1844 
L 1159 0 
L 581 0 
L 581 3500 
L 1159 3500 
L 1159 2956 
Q 1341 3275 1631 3429 
Q 1922 3584 2338 3584 
Q 2397 3584 2469 3576 
Q 2541 3569 2628 3553 
L 2631 2963 
z
" transform="scale(0.015625)"/>
      <path id="DejaVuSans-6c" d="M 603 4863 
L 1178 4863 
L 1178 0 
L 603 0 
L 603 4863 
z
" transform="scale(0.015625)"/>
      <path id="DejaVuSans-64" d="M 2906 2969 
L 2906 4863 
L 3481 4863 
L 3481 0 
L 2906 0 
L 2906 525 
Q 2725 213 2448 61 
Q 2172 -91 1784 -91 
Q 1150 -91 751 415 
Q 353 922 353 1747 
Q 353 2572 751 3078 
Q 1150 3584 1784 3584 
Q 2172 3584 2448 3432 
Q 2725 3281 2906 2969 
z
M 947 1747 
Q 947 1113 1208 752 
Q 1469 391 1925 391 
Q 2381 391 2643 752 
Q 2906 1113 2906 1747 
Q 2906 2381 2643 2742 
Q 2381 3103 1925 3103 
Q 1469 3103 1208 2742 
Q 947 2381 947 1747 
z
" transform="scale(0.015625)"/>
      <path id="DejaVuSans-63" d="M 3122 3366 
L 3122 2828 
Q 2878 2963 2633 3030 
Q 2388 3097 2138 3097 
Q 1578 3097 1268 2742 
Q 959 2388 959 1747 
Q 959 1106 1268 751 
Q 1578 397 2138 397 
Q 2388 397 2633 464 
Q 2878 531 3122 666 
L 3122 134 
Q 2881 22 2623 -34 
Q 2366 -91 2075 -91 
Q 1284 -91 818 406 
Q 353 903 353 1747 
Q 353 2603 823 3093 
Q 1294 3584 2113 3584 
Q 2378 3584 2631 3529 
Q 2884 3475 3122 3366 
z
" transform="scale(0.015625)"/>
      <path id="DejaVuSans-77" d="M 269 3500 
L 844 3500 
L 1563 769 
L 2278 3500 
L 2956 3500 
L 3675 769 
L 4391 3500 
L 4966 3500 
L 4050 0 
L 3372 0 
L 2619 2869 
L 1863 0 
L 1184 0 
L 269 3500 
z
" transform="scale(0.015625)"/>
     </defs>
     <use xlink:href="#DejaVuSans-32"/>
     <use xlink:href="#DejaVuSans-44" x="63.623047"/>
     <use xlink:href="#DejaVuSans-2d" x="140.625"/>
     <use xlink:href="#DejaVuSans-70" x="176.708984"/>
     <use xlink:href="#DejaVuSans-61" x="240.185547"/>
     <use xlink:href="#DejaVuSans-72" x="301.464844"/>
     <use xlink:href="#DejaVuSans-74" x="342.578125"/>
     <use xlink:href="#DejaVuSans-69" x="381.787109"/>
     <use xlink:href="#DejaVuSans-61" x="409.570312"/>
     <use xlink:href="#DejaVuSans-6c" x="470.849609"/>
     <use xlink:href="#DejaVuSans-20" x="498.632812"/>
     <use xlink:href="#DejaVuSans-64" x="530.419922"/>
     <use xlink:href="#DejaVuSans-65" x="593.896484"/>
     <use xlink:href="#DejaVuSans-70" x="655.419922"/>
     <use xlink:href="#DejaVuSans-65" x="718.896484"/>
     <use xlink:href="#DejaVuSans-6e" x="780.419922"/>
     <use xlink:href="#DejaVuSans-64" x="843.798828"/>
     <use xlink:href="#DejaVuSans-65" x="907.275391"/>
     <use xlink:href="#DejaVuSans-6e" x="968.798828"/>
     <use xlink:href="#DejaVuSans-63" x="1032.177734"/>
     <use xlink:href="#DejaVuSans-79" x="1087.158203"/>
     <use xlink:href="#DejaVuSans-20" x="1146.337891"/>
     <use xlink:href="#DejaVuSans-70" x="1178.125"/>
     <use xlink:href="#DejaVuSans-6c" x="1241.601562"/>
     <use xlink:href="#DejaVuSans-6f" x="1269.384766"/>
     <use xlink:href="#DejaVuSans-74" x="1330.566406"/>
     <use xlink:href="#DejaVuSans-20" x="1369.775391"/>
     <use xlink:href="#DejaVuSans-62" x="1401.5625"/>
     <use xlink:href="#DejaVuSans-65" x="1465.039062"/>
     <use xlink:href="#DejaVuSans-74" x="1526.5625"/>
     <use xlink:href="#DejaVuSans-77" x="1565.771484"/>
     <use xlink:href="#DejaVuSans-65" x="1647.558594"/>
     <use xlink:href="#DejaVuSans-65" x="1709.082031"/>
     <use xlink:href="#DejaVuSans-6e" x="1770.605469"/>
     <use xlink:href="#DejaVuSans-20" x="1833.984375"/>
     <use xlink:href="#DejaVuSans-4f" x="1865.771484"/>
     <use xlink:href="#DejaVuSans-62" x="1944.482422"/>
     <use xlink:href="#DejaVuSans-65" x="2007.958984"/>
     <use xlink:href="#DejaVuSans-73" x="2069.482422"/>
     <use xlink:href="#DejaVuSans-69" x="2121.582031"/>
     <use xlink:href="#DejaVuSans-74" x="2149.365234"/>
     <use xlink:href="#DejaVuSans-79" x="2188.574219"/>
     <use xlink:href="#DejaVuSans-20" x="2247.753906"/>
     <use xlink:href="#DejaVuSans-61" x="2279.541016"/>
     <use xlink:href="#DejaVuSans-6e" x="2340.820312"/>
     <use xlink:href="#DejaVuSans-64" x="2404.199219"/>
     <use xlink:href="#DejaVuSans-20" x="2467.675781"/>
     <use xlink:href="#DejaVuSans-42" x="2499.462891"/>
     <use xlink:href="#DejaVuSans-65" x="2568.066406"/>
     <use xlink:href="#DejaVuSans-65" x="2629.589844"/>
     <use xlink:href="#DejaVuSans-66" x="2691.113281"/>
    </g>
   </g>
   <g id="text_15">
    <g clip-path="url(#p60fea0c942)">
     <!-- 10.43 -->
     <g transform="translate(252.507651 282.965513) rotate(-359.99783) scale(0.1 -0.1)">
      <defs>
       <path id="DejaVuSans-34" d="M 2419 4116 
L 825 1625 
L 2419 1625 
L 2419 4116 
z
M 2253 4666 
L 3047 4666 
L 3047 1625 
L 3713 1625 
L 3713 1100 
L 3047 1100 
L 3047 0 
L 2419 0 
L 2419 1100 
L 313 1100 
L 313 1709 
L 2253 4666 
z
" transform="scale(0.015625)"/>
      </defs>
      <use xlink:href="#DejaVuSans-31"/>
      <use xlink:href="#DejaVuSans-30" x="63.623047"/>
      <use xlink:href="#DejaVuSans-2e" x="127.246094"/>
      <use xlink:href="#DejaVuSans-34" x="159.033203"/>
      <use xlink:href="#DejaVuSans-33" x="222.65625"/>
     </g>
    </g>
   </g>
   <g id="text_16">
    <g clip-path="url(#p60fea0c942)">
     <!-- 10.58 -->
     <g transform="translate(252.507649 242.5601) rotate(-359.997785) scale(0.1 -0.1)">
      <defs>
       <path id="DejaVuSans-38" d="M 2034 2216 
Q 1584 2216 1326 1975 
Q 1069 1734 1069 1313 
Q 1069 891 1326 650 
Q 1584 409 2034 409 
Q 2484 409 2743 651 
Q 3003 894 3003 1313 
Q 3003 1734 2745 1975 
Q 2488 2216 2034 2216 
z
M 1403 2484 
Q 997 2584 770 2862 
Q 544 3141 544 3541 
Q 544 4100 942 4425 
Q 1341 4750 2034 4750 
Q 2731 4750 3128 4425 
Q 3525 4100 3525 3541 
Q 3525 3141 3298 2862 
Q 3072 2584 2669 2484 
Q 3125 2378 3379 2068 
Q 3634 1759 3634 1313 
Q 3634 634 3220 271 
Q 2806 -91 2034 -91 
Q 1263 -91 848 271 
Q 434 634 434 1313 
Q 434 1759 690 2068 
Q 947 2378 1403 2484 
z
M 1172 3481 
Q 1172 3119 1398 2916 
Q 1625 2713 2034 2713 
Q 2441 2713 2670 2916 
Q 2900 3119 2900 3481 
Q 2900 3844 2670 4047 
Q 2441 4250 2034 4250 
Q 1625 4250 1398 4047 
Q 1172 3844 1172 3481 
z
" transform="scale(0.015625)"/>
      </defs>
      <use xlink:href="#DejaVuSans-31"/>
      <use xlink:href="#DejaVuSans-30" x="63.623047"/>
      <use xlink:href="#DejaVuSans-2e" x="127.246094"/>
      <use xlink:href="#DejaVuSans-35" x="159.033203"/>
      <use xlink:href="#DejaVuSans-38" x="222.65625"/>
     </g>
    </g>
   </g>
   <g id="text_17">
    <g clip-path="url(#p60fea0c942)">
     <!-- 10.73 -->
     <g transform="translate(252.507647 201.718394) rotate(-359.997733) scale(0.1 -0.1)">
      <defs>
       <path id="DejaVuSans-37" d="M 525 4666 
L 3525 4666 
L 3525 4397 
L 1831 0 
L 1172 0 
L 2766 4134 
L 525 4134 
L 525 4666 
z
" transform="scale(0.015625)"/>
      </defs>
      <use xlink:href="#DejaVuSans-31"/>
      <use xlink:href="#DejaVuSans-30" x="63.623047"/>
      <use xlink:href="#DejaVuSans-2e" x="127.246094"/>
      <use xlink:href="#DejaVuSans-37" x="159.033203"/>
      <use xlink:href="#DejaVuSans-33" x="222.65625"/>
     </g>
    </g>
   </g>
   <g id="text_18">
    <g clip-path="url(#p60fea0c942)">
     <!-- 10.88 -->
     <g transform="translate(252.507644 160.255028) rotate(-359.997673) scale(0.1 -0.1)">
      <use xlink:href="#DejaVuSans-31"/>
      <use xlink:href="#DejaVuSans-30" x="63.623047"/>
      <use xlink:href="#DejaVuSans-2e" x="127.246094"/>
      <use xlink:href="#DejaVuSans-38" x="159.033203"/>
      <use xlink:href="#DejaVuSans-38" x="222.65625"/>
     </g>
    </g>
   </g>
   <g id="text_19">
    <g clip-path="url(#p60fea0c942)">
     <!-- 11.03 -->
     <g transform="translate(252.50764 117.957453) rotate(-359.9976) scale(0.1 -0.1)">
      <use xlink:href="#DejaVuSans-31"/>
      <use xlink:href="#DejaVuSans-31" x="63.623047"/>
      <use xlink:href="#DejaVuSans-2e" x="127.246094"/>
      <use xlink:href="#DejaVuSans-30" x="159.033203"/>
      <use xlink:href="#DejaVuSans-33" x="222.65625"/>
     </g>
    </g>
   </g>
   <g id="text_20">
    <g clip-path="url(#p60fea0c942)">
     <!-- 11.18 -->
     <g transform="translate(252.507636 74.576502) rotate(-359.997515) scale(0.1 -0.1)">
      <use xlink:href="#DejaVuSans-31"/>
      <use xlink:href="#DejaVuSans-31" x="63.623047"/>
      <use xlink:href="#DejaVuSans-2e" x="127.246094"/>
      <use xlink:href="#DejaVuSans-31" x="159.033203"/>
      <use xlink:href="#DejaVuSans-38" x="222.65625"/>
     </g>
    </g>
   </g>
  </g>
 </g>
 <defs>
  <clipPath id="p60fea0c942">
   <rect x="57.6" y="41.472" width="357.12" height="266.112"/>
  </clipPath>
 </defs>
</svg>
