<?xml version="1.0" encoding="utf-8" standalone="no"?>
<!DOCTYPE svg PUBLIC "-//W3C//DTD SVG 1.1//EN"
  "http://www.w3.org/Graphics/SVG/1.1/DTD/svg11.dtd">
<svg xmlns:xlink="http://www.w3.org/1999/xlink" width="460.8pt" height="345.6pt" viewBox="0 0 460.8 345.6" xmlns="http://www.w3.org/2000/svg" version="1.1">
 <metadata>
  <rdf:RDF xmlns:dc="http://purl.org/dc/elements/1.1/" xmlns:cc="http://creativecommons.org/ns#" xmlns:rdf="http://www.w3.org/1999/02/22-rdf-syntax-ns#">
   <cc:Work>
    <dc:type rdf:resource="http://purl.org/dc/dcmitype/StillImage"/>
    <dc:date>2024-04-22T00:40:18.357041</dc:date>
    <dc:format>image/svg+xml</dc:format>
    <dc:creator>
     <cc:Agent>
      <dc:title>Matplotlib v3.7.0, https://matplotlib.org/</dc:title>
     </cc:Agent>
    </dc:creator>
   </cc:Work>
  </rdf:RDF>
 </metadata>
 <defs>
  <style type="text/css">*{stroke-linejoin: round; stroke-linecap: butt}</style>
 </defs>
 <g id="figure_1">
  <g id="patch_1">
   <path d="M 0 345.6 
L 460.8 345.6 
L 460.8 0 
L 0 0 
L 0 345.6 
z
" style="fill: none"/>
  </g>
  <g id="axes_1"/>
  <g id="axes_2">
   <g id="patch_2">
    <path d="M 57.6 307.584 
L 414.72 307.584 
L 414.72 41.472 
L 57.6 41.472 
L 57.6 307.584 
z
" style="fill: none"/>
   </g>
   <g id="PathCollection_1">
    <path d="M 62.476197 101.117793 
L 68.595026 91.941517 
L 106.604446 41.472 
L 57.6 41.472 
L 57.6 91.941517 
L 57.6 101.117793 
L 57.6 108.733851 
z
" clip-path="url(#p3050c368d8)" style="fill: #481b6d; fill-opacity: 0.75"/>
   </g>
   <g id="PathCollection_2">
    <path d="M 62.713866 291.525517 
L 63.73602 282.349241 
L 64.030178 280.055172 
L 64.339776 277.761103 
L 64.664812 275.467034 
L 65.00528 273.172966 
L 65.36118 270.878897 
L 66.521425 263.99669 
L 66.939012 261.702621 
L 67.372012 259.408552 
L 67.820424 257.114483 
L 68.284243 254.820414 
L 68.763467 252.526345 
L 69.258092 250.232276 
L 69.768116 247.938207 
L 70.293535 245.644138 
L 70.834347 243.350069 
L 71.39055 241.056 
L 71.962139 238.761931 
L 73.151468 234.173793 
L 73.769202 231.879724 
L 74.402313 229.585655 
L 75.050797 227.291586 
L 75.714652 224.997517 
L 76.393876 222.703448 
L 77.088467 220.409379 
L 77.798421 218.11531 
L 79.264411 213.527172 
L 80.020443 211.233103 
L 80.791829 208.939034 
L 81.578567 206.644966 
L 83.198093 202.056828 
L 84.030875 199.762759 
L 85.74247 195.174621 
L 86.621278 192.880552 
L 87.515425 190.586483 
L 88.424907 188.292414 
L 89.349724 185.998345 
L 90.289874 183.704276 
L 91.245354 181.410207 
L 92.216163 179.116138 
L 93.2023 176.822069 
L 94.203763 174.528 
L 95.220549 172.233931 
L 96.252659 169.939862 
L 97.30009 167.645793 
L 98.36284 165.351724 
L 99.440909 163.057655 
L 100.534295 160.763586 
L 101.642997 158.469517 
L 102.767013 156.175448 
L 103.906342 153.881379 
L 105.060983 151.58731 
L 106.230935 149.293241 
L 107.416197 146.999172 
L 108.616767 144.705103 
L 109.832645 142.411034 
L 111.063829 140.116966 
L 112.310319 137.822897 
L 113.572114 135.528828 
L 116.141614 130.94069 
L 117.449318 128.646621 
L 122.833143 119.470345 
L 124.217348 117.176276 
L 125.616852 114.882207 
L 127.031653 112.588138 
L 128.461753 110.294069 
L 129.024 109.41566 
L 134.44947 101.117793 
L 140.699203 91.941517 
L 179.539675 41.472 
L 129.024 41.472 
L 106.604446 41.472 
L 68.595026 91.941517 
L 62.476197 101.117793 
L 57.6 108.733851 
L 57.6 110.294069 
L 57.6 112.588138 
L 57.6 114.882207 
L 57.6 117.176276 
L 57.6 119.470345 
L 57.6 128.646621 
L 57.6 130.94069 
L 57.6 135.528828 
L 57.6 137.822897 
L 57.6 140.116966 
L 57.6 142.411034 
L 57.6 144.705103 
L 57.6 146.999172 
L 57.6 149.293241 
L 57.6 151.58731 
L 57.6 153.881379 
L 57.6 156.175448 
L 57.6 158.469517 
L 57.6 160.763586 
L 57.6 163.057655 
L 57.6 165.351724 
L 57.6 167.645793 
L 57.6 169.939862 
L 57.6 172.233931 
L 57.6 174.528 
L 57.6 176.822069 
L 57.6 179.116138 
L 57.6 181.410207 
L 57.6 183.704276 
L 57.6 185.998345 
L 57.6 188.292414 
L 57.6 190.586483 
L 57.6 192.880552 
L 57.6 195.174621 
L 57.6 199.762759 
L 57.6 202.056828 
L 57.6 206.644966 
L 57.6 208.939034 
L 57.6 211.233103 
L 57.6 213.527172 
L 57.6 218.11531 
L 57.6 220.409379 
L 57.6 222.703448 
L 57.6 224.997517 
L 57.6 227.291586 
L 57.6 229.585655 
L 57.6 231.879724 
L 57.6 234.173793 
L 57.6 238.761931 
L 57.6 241.056 
L 57.6 243.350069 
L 57.6 245.644138 
L 57.6 247.938207 
L 57.6 250.232276 
L 57.6 252.526345 
L 57.6 254.820414 
L 57.6 257.114483 
L 57.6 259.408552 
L 57.6 261.702621 
L 57.6 263.99669 
L 57.6 270.878897 
L 57.6 273.172966 
L 57.6 275.467034 
L 57.6 277.761103 
L 57.6 280.055172 
L 57.6 282.349241 
L 57.6 291.525517 
L 57.6 307.584 
L 61.520401 307.584 
z
" clip-path="url(#p3050c368d8)" style="fill: #3f4788; fill-opacity: 0.75"/>
   </g>
   <g id="PathCollection_3">
    <path d="M 129.024 307.584 
L 133.778175 307.584 
L 134.953992 291.525517 
L 135.974935 282.349241 
L 136.269796 280.055172 
L 136.5805 277.761103 
L 136.907044 275.467034 
L 137.249422 273.172966 
L 137.607633 270.878897 
L 138.777221 263.99669 
L 139.198724 261.702621 
L 139.636041 259.408552 
L 140.08917 257.114483 
L 140.558107 254.820414 
L 141.042849 252.526345 
L 141.543393 250.232276 
L 142.059734 247.938207 
L 142.591871 245.644138 
L 143.139801 243.350069 
L 143.703519 241.056 
L 144.283024 238.761931 
L 145.489381 234.173793 
L 146.116227 231.879724 
L 146.758848 229.585655 
L 147.417242 227.291586 
L 148.091404 224.997517 
L 148.781333 222.703448 
L 149.487026 220.409379 
L 150.208481 218.11531 
L 151.698664 213.527172 
L 152.467388 211.233103 
L 153.251864 208.939034 
L 154.052089 206.644966 
L 155.699776 202.056828 
L 156.547235 199.762759 
L 158.289371 195.174621 
L 159.184043 192.880552 
L 160.09445 190.586483 
L 161.020588 188.292414 
L 161.962456 185.998345 
L 162.920052 183.704276 
L 163.893375 181.410207 
L 164.882421 179.116138 
L 165.88719 176.822069 
L 166.907679 174.528 
L 167.943887 172.233931 
L 168.995813 169.939862 
L 170.063454 167.645793 
L 171.146809 165.351724 
L 172.245877 163.057655 
L 173.360656 160.763586 
L 174.491144 158.469517 
L 175.63734 156.175448 
L 176.799243 153.881379 
L 177.976851 151.58731 
L 179.170164 149.293241 
L 180.379179 146.999172 
L 181.603897 144.705103 
L 182.844314 142.411034 
L 184.100431 140.116966 
L 185.372247 137.822897 
L 186.659759 135.528828 
L 189.281873 130.94069 
L 190.616472 128.646621 
L 196.111797 119.470345 
L 197.524856 117.176276 
L 198.953606 114.882207 
L 200.398045 112.588138 
L 200.448 112.509653 
L 201.889623 110.294069 
L 208.020702 101.117793 
L 214.408257 91.941517 
L 254.123919 41.472 
L 200.448 41.472 
L 179.539675 41.472 
L 140.699203 91.941517 
L 134.44947 101.117793 
L 129.024 109.41566 
L 128.461753 110.294069 
L 127.031653 112.588138 
L 125.616852 114.882207 
L 124.217348 117.176276 
L 122.833143 119.470345 
L 117.449318 128.646621 
L 116.141614 130.94069 
L 113.572114 135.528828 
L 112.310319 137.822897 
L 111.063829 140.116966 
L 109.832645 142.411034 
L 108.616767 144.705103 
L 107.416197 146.999172 
L 106.230935 149.293241 
L 105.060983 151.58731 
L 103.906342 153.881379 
L 102.767013 156.175448 
L 101.642997 158.469517 
L 100.534295 160.763586 
L 99.440909 163.057655 
L 98.36284 165.351724 
L 97.30009 167.645793 
L 96.252659 169.939862 
L 95.220549 172.233931 
L 94.203763 174.528 
L 93.2023 176.822069 
L 92.216163 179.116138 
L 91.245354 181.410207 
L 90.289874 183.704276 
L 89.349724 185.998345 
L 88.424907 188.292414 
L 87.515425 190.586483 
L 86.621278 192.880552 
L 85.74247 195.174621 
L 84.030875 199.762759 
L 83.198093 202.056828 
L 81.578567 206.644966 
L 80.791829 208.939034 
L 80.020443 211.233103 
L 79.264411 213.527172 
L 77.798421 218.11531 
L 77.088467 220.409379 
L 76.393876 222.703448 
L 75.714652 224.997517 
L 75.050797 227.291586 
L 74.402313 229.585655 
L 73.769202 231.879724 
L 73.151468 234.173793 
L 71.962139 238.761931 
L 71.39055 241.056 
L 70.834347 243.350069 
L 70.293535 245.644138 
L 69.768116 247.938207 
L 69.258092 250.232276 
L 68.763467 252.526345 
L 68.284243 254.820414 
L 67.820424 257.114483 
L 67.372012 259.408552 
L 66.939012 261.702621 
L 66.521425 263.99669 
L 65.36118 270.878897 
L 65.00528 273.172966 
L 64.664812 275.467034 
L 64.339776 277.761103 
L 64.030178 280.055172 
L 63.73602 282.349241 
L 62.713866 291.525517 
L 61.520401 307.584 
z
" clip-path="url(#p3050c368d8)" style="fill: #2e6e8e; fill-opacity: 0.75"/>
   </g>
   <g id="PathCollection_4">
    <path d="M 200.448 307.584 
L 207.660844 307.584 
L 208.817429 291.525517 
L 209.836752 282.349241 
L 210.132271 280.055172 
L 210.444058 277.761103 
L 210.772108 275.467034 
L 211.116417 273.172966 
L 211.476983 270.878897 
L 212.656177 263.99669 
L 213.08173 261.702621 
L 213.523519 259.408552 
L 213.981543 257.114483 
L 214.455798 254.820414 
L 214.946279 252.526345 
L 215.452985 250.232276 
L 215.975911 247.938207 
L 216.515054 245.644138 
L 217.070411 243.350069 
L 217.641979 241.056 
L 218.229755 238.761931 
L 219.453916 234.173793 
L 220.090296 231.879724 
L 220.742871 229.585655 
L 221.411639 227.291586 
L 222.096596 224.997517 
L 222.79774 222.703448 
L 223.515068 220.409379 
L 224.248577 218.11531 
L 225.764128 213.527172 
L 226.546164 211.233103 
L 227.344371 208.939034 
L 228.158746 206.644966 
L 229.835991 202.056828 
L 230.698855 199.762759 
L 232.473057 195.174621 
L 233.38439 192.880552 
L 234.311874 190.586483 
L 235.255507 188.292414 
L 236.215288 185.998345 
L 237.191214 183.704276 
L 238.183283 181.410207 
L 239.191493 179.116138 
L 240.215843 176.822069 
L 241.256329 174.528 
L 242.312951 172.233931 
L 243.385707 169.939862 
L 244.474594 167.645793 
L 245.579611 165.351724 
L 246.700757 163.057655 
L 247.838029 160.763586 
L 248.991427 158.469517 
L 250.160948 156.175448 
L 251.346591 153.881379 
L 252.548355 151.58731 
L 253.766237 149.293241 
L 255.000238 146.999172 
L 256.250355 144.705103 
L 257.516587 142.411034 
L 258.798933 140.116966 
L 260.097391 137.822897 
L 261.411961 135.528828 
L 264.089432 130.94069 
L 265.45233 128.646621 
L 271.064987 119.470345 
L 271.872 118.18775 
L 272.523118 117.176276 
L 274.016367 114.882207 
L 275.526084 112.588138 
L 277.052267 110.294069 
L 283.321654 101.117793 
L 289.854458 91.941517 
L 330.492715 41.472 
L 271.872 41.472 
L 254.123919 41.472 
L 214.408257 91.941517 
L 208.020702 101.117793 
L 201.889623 110.294069 
L 200.448 112.509653 
L 200.398045 112.588138 
L 198.953606 114.882207 
L 197.524856 117.176276 
L 196.111797 119.470345 
L 190.616472 128.646621 
L 189.281873 130.94069 
L 186.659759 135.528828 
L 185.372247 137.822897 
L 184.100431 140.116966 
L 182.844314 142.411034 
L 181.603897 144.705103 
L 180.379179 146.999172 
L 179.170164 149.293241 
L 177.976851 151.58731 
L 176.799243 153.881379 
L 175.63734 156.175448 
L 174.491144 158.469517 
L 173.360656 160.763586 
L 172.245877 163.057655 
L 171.146809 165.351724 
L 170.063454 167.645793 
L 168.995813 169.939862 
L 167.943887 172.233931 
L 166.907679 174.528 
L 165.88719 176.822069 
L 164.882421 179.116138 
L 163.893375 181.410207 
L 162.920052 183.704276 
L 161.962456 185.998345 
L 161.020588 188.292414 
L 160.09445 190.586483 
L 159.184043 192.880552 
L 158.289371 195.174621 
L 156.547235 199.762759 
L 155.699776 202.056828 
L 154.052089 206.644966 
L 153.251864 208.939034 
L 152.467388 211.233103 
L 151.698664 213.527172 
L 150.208481 218.11531 
L 149.487026 220.409379 
L 148.781333 222.703448 
L 148.091404 224.997517 
L 147.417242 227.291586 
L 146.758848 229.585655 
L 146.116227 231.879724 
L 145.489381 234.173793 
L 144.283024 238.761931 
L 143.703519 241.056 
L 143.139801 243.350069 
L 142.591871 245.644138 
L 142.059734 247.938207 
L 141.543393 250.232276 
L 141.042849 252.526345 
L 140.558107 254.820414 
L 140.08917 257.114483 
L 139.636041 259.408552 
L 139.198724 261.702621 
L 138.777221 263.99669 
L 137.607633 270.878897 
L 137.249422 273.172966 
L 136.907044 275.467034 
L 136.5805 277.761103 
L 136.269796 280.055172 
L 135.974935 282.349241 
L 134.953992 291.525517 
L 133.778175 307.584 
z
" clip-path="url(#p3050c368d8)" style="fill: #21918c; fill-opacity: 0.75"/>
   </g>
   <g id="PathCollection_5">
    <path d="M 271.872 307.584 
L 283.303305 307.584 
L 284.438865 291.525517 
L 285.456078 282.349241 
L 285.752193 280.055172 
L 286.065024 277.761103 
L 286.394567 275.467034 
L 286.740818 273.172966 
L 287.103773 270.878897 
L 288.292824 263.99669 
L 288.722557 261.702621 
L 289.168974 259.408552 
L 289.632073 257.114483 
L 290.111848 254.820414 
L 290.608297 252.526345 
L 291.121417 250.232276 
L 291.651203 247.938207 
L 292.197652 245.644138 
L 292.760761 243.350069 
L 293.340525 241.056 
L 293.936943 238.761931 
L 295.179724 234.173793 
L 295.826081 231.879724 
L 296.489077 229.585655 
L 297.16871 227.291586 
L 297.864977 224.997517 
L 298.577875 222.703448 
L 299.3074 220.409379 
L 300.05355 218.11531 
L 301.595712 213.527172 
L 302.391719 211.233103 
L 303.204339 208.939034 
L 304.033569 206.644966 
L 305.741852 202.056828 
L 306.620899 199.762759 
L 308.428791 195.174621 
L 309.357631 192.880552 
L 310.303063 190.586483 
L 311.265087 188.292414 
L 312.243699 185.998345 
L 313.238896 183.704276 
L 314.250678 181.410207 
L 315.279041 179.116138 
L 316.323983 176.822069 
L 317.385503 174.528 
L 318.463599 172.233931 
L 319.558267 169.939862 
L 320.669507 167.645793 
L 321.797317 165.351724 
L 322.941695 163.057655 
L 324.102638 160.763586 
L 325.280145 158.469517 
L 326.474215 156.175448 
L 327.684845 153.881379 
L 328.912035 151.58731 
L 330.155782 149.293241 
L 331.416086 146.999172 
L 332.692943 144.705103 
L 333.986354 142.411034 
L 335.296317 140.116966 
L 336.62283 137.822897 
L 337.965892 135.528828 
L 340.701658 130.94069 
L 342.09436 128.646621 
L 343.296 126.724476 
L 347.93918 119.470345 
L 349.449907 117.176276 
L 350.977563 114.882207 
L 352.522145 112.588138 
L 354.083654 110.294069 
L 360.498933 101.117793 
L 367.184969 91.941517 
L 408.796822 41.472 
L 343.296 41.472 
L 330.492715 41.472 
L 289.854458 91.941517 
L 283.321654 101.117793 
L 277.052267 110.294069 
L 275.526084 112.588138 
L 274.016367 114.882207 
L 272.523118 117.176276 
L 271.872 118.18775 
L 271.064987 119.470345 
L 265.45233 128.646621 
L 264.089432 130.94069 
L 261.411961 135.528828 
L 260.097391 137.822897 
L 258.798933 140.116966 
L 257.516587 142.411034 
L 256.250355 144.705103 
L 255.000238 146.999172 
L 253.766237 149.293241 
L 252.548355 151.58731 
L 251.346591 153.881379 
L 250.160948 156.175448 
L 248.991427 158.469517 
L 247.838029 160.763586 
L 246.700757 163.057655 
L 245.579611 165.351724 
L 244.474594 167.645793 
L 243.385707 169.939862 
L 242.312951 172.233931 
L 241.256329 174.528 
L 240.215843 176.822069 
L 239.191493 179.116138 
L 238.183283 181.410207 
L 237.191214 183.704276 
L 236.215288 185.998345 
L 235.255507 188.292414 
L 234.311874 190.586483 
L 233.38439 192.880552 
L 232.473057 195.174621 
L 230.698855 199.762759 
L 229.835991 202.056828 
L 228.158746 206.644966 
L 227.344371 208.939034 
L 226.546164 211.233103 
L 225.764128 213.527172 
L 224.248577 218.11531 
L 223.515068 220.409379 
L 222.79774 222.703448 
L 222.096596 224.997517 
L 221.411639 227.291586 
L 220.742871 229.585655 
L 220.090296 231.879724 
L 219.453916 234.173793 
L 218.229755 238.761931 
L 217.641979 241.056 
L 217.070411 243.350069 
L 216.515054 245.644138 
L 215.975911 247.938207 
L 215.452985 250.232276 
L 214.946279 252.526345 
L 214.455798 254.820414 
L 213.981543 257.114483 
L 213.523519 259.408552 
L 213.08173 261.702621 
L 212.656177 263.99669 
L 211.476983 270.878897 
L 211.116417 273.172966 
L 210.772108 275.467034 
L 210.444058 277.761103 
L 210.132271 280.055172 
L 209.836752 282.349241 
L 208.817429 291.525517 
L 207.660844 307.584 
z
" clip-path="url(#p3050c368d8)" style="fill: #2db27d; fill-opacity: 0.75"/>
   </g>
   <g id="PathCollection_6">
    <path d="M 343.296 307.584 
L 360.855752 307.584 
L 361.968248 291.525517 
L 362.982766 282.349241 
L 363.279396 280.055172 
L 363.593217 277.761103 
L 363.924226 275.467034 
L 364.272416 273.172966 
L 364.637786 270.878897 
L 365.836922 263.99669 
L 366.270964 261.702621 
L 366.722163 259.408552 
L 367.190517 257.114483 
L 367.67602 254.820414 
L 368.17867 252.526345 
L 368.698462 250.232276 
L 369.235393 247.938207 
L 369.789459 245.644138 
L 370.360655 243.350069 
L 370.94898 241.056 
L 371.554429 238.761931 
L 372.816684 234.173793 
L 373.473484 231.879724 
L 374.147394 229.585655 
L 374.838411 227.291586 
L 375.546531 224.997517 
L 376.271752 222.703448 
L 377.01407 220.409379 
L 377.773481 218.11531 
L 379.343575 213.527172 
L 380.15425 211.233103 
L 380.982007 208.939034 
L 381.826844 206.644966 
L 383.567741 202.056828 
L 384.463797 199.762759 
L 386.307109 195.174621 
L 387.25436 192.880552 
L 388.218671 190.586483 
L 389.200039 188.292414 
L 390.198462 185.998345 
L 391.213938 183.704276 
L 392.246463 181.410207 
L 393.296036 179.116138 
L 394.362654 176.822069 
L 395.446315 174.528 
L 396.547017 172.233931 
L 397.664758 169.939862 
L 398.799535 167.645793 
L 399.951347 165.351724 
L 401.120191 163.057655 
L 402.306066 160.763586 
L 403.508969 158.469517 
L 404.728899 156.175448 
L 405.965853 153.881379 
L 407.219831 151.58731 
L 408.49083 149.293241 
L 409.778849 146.999172 
L 411.083885 144.705103 
L 412.405938 142.411034 
L 413.745005 140.116966 
L 414.72 138.46759 
L 414.72 137.822897 
L 414.72 135.528828 
L 414.72 130.94069 
L 414.72 128.646621 
L 414.72 119.470345 
L 414.72 117.176276 
L 414.72 114.882207 
L 414.72 112.588138 
L 414.72 110.294069 
L 414.72 101.117793 
L 414.72 91.941517 
L 414.72 41.472 
L 408.796822 41.472 
L 367.184969 91.941517 
L 360.498933 101.117793 
L 354.083654 110.294069 
L 352.522145 112.588138 
L 350.977563 114.882207 
L 349.449907 117.176276 
L 347.93918 119.470345 
L 343.296 126.724476 
L 342.09436 128.646621 
L 340.701658 130.94069 
L 337.965892 135.528828 
L 336.62283 137.822897 
L 335.296317 140.116966 
L 333.986354 142.411034 
L 332.692943 144.705103 
L 331.416086 146.999172 
L 330.155782 149.293241 
L 328.912035 151.58731 
L 327.684845 153.881379 
L 326.474215 156.175448 
L 325.280145 158.469517 
L 324.102638 160.763586 
L 322.941695 163.057655 
L 321.797317 165.351724 
L 320.669507 167.645793 
L 319.558267 169.939862 
L 318.463599 172.233931 
L 317.385503 174.528 
L 316.323983 176.822069 
L 315.279041 179.116138 
L 314.250678 181.410207 
L 313.238896 183.704276 
L 312.243699 185.998345 
L 311.265087 188.292414 
L 310.303063 190.586483 
L 309.357631 192.880552 
L 308.428791 195.174621 
L 306.620899 199.762759 
L 305.741852 202.056828 
L 304.033569 206.644966 
L 303.204339 208.939034 
L 302.391719 211.233103 
L 301.595712 213.527172 
L 300.05355 218.11531 
L 299.3074 220.409379 
L 298.577875 222.703448 
L 297.864977 224.997517 
L 297.16871 227.291586 
L 296.489077 229.585655 
L 295.826081 231.879724 
L 295.179724 234.173793 
L 293.936943 238.761931 
L 293.340525 241.056 
L 292.760761 243.350069 
L 292.197652 245.644138 
L 291.651203 247.938207 
L 291.121417 250.232276 
L 290.608297 252.526345 
L 290.111848 254.820414 
L 289.632073 257.114483 
L 289.168974 259.408552 
L 288.722557 261.702621 
L 288.292824 263.99669 
L 287.103773 270.878897 
L 286.740818 273.172966 
L 286.394567 275.467034 
L 286.065024 277.761103 
L 285.752193 280.055172 
L 285.456078 282.349241 
L 284.438865 291.525517 
L 283.303305 307.584 
z
" clip-path="url(#p3050c368d8)" style="fill: #73d056; fill-opacity: 0.75"/>
   </g>
   <g id="PathCollection_7">
    <path d="M 414.72 307.584 
L 414.72 291.525517 
L 414.72 282.349241 
L 414.72 280.055172 
L 414.72 277.761103 
L 414.72 275.467034 
L 414.72 273.172966 
L 414.72 270.878897 
L 414.72 263.99669 
L 414.72 261.702621 
L 414.72 259.408552 
L 414.72 257.114483 
L 414.72 254.820414 
L 414.72 252.526345 
L 414.72 250.232276 
L 414.72 247.938207 
L 414.72 245.644138 
L 414.72 243.350069 
L 414.72 241.056 
L 414.72 238.761931 
L 414.72 234.173793 
L 414.72 231.879724 
L 414.72 229.585655 
L 414.72 227.291586 
L 414.72 224.997517 
L 414.72 222.703448 
L 414.72 220.409379 
L 414.72 218.11531 
L 414.72 213.527172 
L 414.72 211.233103 
L 414.72 208.939034 
L 414.72 206.644966 
L 414.72 202.056828 
L 414.72 199.762759 
L 414.72 195.174621 
L 414.72 192.880552 
L 414.72 190.586483 
L 414.72 188.292414 
L 414.72 185.998345 
L 414.72 183.704276 
L 414.72 181.410207 
L 414.72 179.116138 
L 414.72 176.822069 
L 414.72 174.528 
L 414.72 172.233931 
L 414.72 169.939862 
L 414.72 167.645793 
L 414.72 165.351724 
L 414.72 163.057655 
L 414.72 160.763586 
L 414.72 158.469517 
L 414.72 156.175448 
L 414.72 153.881379 
L 414.72 151.58731 
L 414.72 149.293241 
L 414.72 146.999172 
L 414.72 144.705103 
L 414.72 142.411034 
L 414.72 140.116966 
L 414.72 138.46759 
L 413.745005 140.116966 
L 412.405938 142.411034 
L 411.083885 144.705103 
L 409.778849 146.999172 
L 408.49083 149.293241 
L 407.219831 151.58731 
L 405.965853 153.881379 
L 404.728899 156.175448 
L 403.508969 158.469517 
L 402.306066 160.763586 
L 401.120191 163.057655 
L 399.951347 165.351724 
L 398.799535 167.645793 
L 397.664758 169.939862 
L 396.547017 172.233931 
L 395.446315 174.528 
L 394.362654 176.822069 
L 393.296036 179.116138 
L 392.246463 181.410207 
L 391.213938 183.704276 
L 390.198462 185.998345 
L 389.200039 188.292414 
L 388.218671 190.586483 
L 387.25436 192.880552 
L 386.307109 195.174621 
L 384.463797 199.762759 
L 383.567741 202.056828 
L 381.826844 206.644966 
L 380.982007 208.939034 
L 380.15425 211.233103 
L 379.343575 213.527172 
L 377.773481 218.11531 
L 377.01407 220.409379 
L 376.271752 222.703448 
L 375.546531 224.997517 
L 374.838411 227.291586 
L 374.147394 229.585655 
L 373.473484 231.879724 
L 372.816684 234.173793 
L 371.554429 238.761931 
L 370.94898 241.056 
L 370.360655 243.350069 
L 369.789459 245.644138 
L 369.235393 247.938207 
L 368.698462 250.232276 
L 368.17867 252.526345 
L 367.67602 254.820414 
L 367.190517 257.114483 
L 366.722163 259.408552 
L 366.270964 261.702621 
L 365.836922 263.99669 
L 364.637786 270.878897 
L 364.272416 273.172966 
L 363.924226 275.467034 
L 363.593217 277.761103 
L 363.279396 280.055172 
L 362.982766 282.349241 
L 361.968248 291.525517 
L 360.855752 307.584 
z
" clip-path="url(#p3050c368d8)" style="fill: #d0e11c; fill-opacity: 0.75"/>
   </g>
   <g id="matplotlib.axis_1">
    <g id="xtick_1">
     <g id="line2d_1">
      <defs>
       <path id="mc6f428d156" d="M 0 0 
L 0 3.5 
" style="stroke: #000000; stroke-width: 0.8"/>
      </defs>
      <g>
       <use xlink:href="#mc6f428d156" x="57.6" y="307.584" style="stroke: #000000; stroke-width: 0.8"/>
      </g>
     </g>
     <g id="text_1">
      <!-- 1 -->
      <g transform="translate(54.41875 322.182437) scale(0.1 -0.1)">
       <defs>
        <path id="DejaVuSans-31" d="M 794 531 
L 1825 531 
L 1825 4091 
L 703 3866 
L 703 4441 
L 1819 4666 
L 2450 4666 
L 2450 531 
L 3481 531 
L 3481 0 
L 794 0 
L 794 531 
z
" transform="scale(0.015625)"/>
       </defs>
       <use xlink:href="#DejaVuSans-31"/>
      </g>
     </g>
    </g>
    <g id="xtick_2">
     <g id="line2d_2">
      <g>
       <use xlink:href="#mc6f428d156" x="129.024" y="307.584" style="stroke: #000000; stroke-width: 0.8"/>
      </g>
     </g>
     <g id="text_2">
      <!-- 2 -->
      <g transform="translate(125.84275 322.182437) scale(0.1 -0.1)">
       <defs>
        <path id="DejaVuSans-32" d="M 1228 531 
L 3431 531 
L 3431 0 
L 469 0 
L 469 531 
Q 828 903 1448 1529 
Q 2069 2156 2228 2338 
Q 2531 2678 2651 2914 
Q 2772 3150 2772 3378 
Q 2772 3750 2511 3984 
Q 2250 4219 1831 4219 
Q 1534 4219 1204 4116 
Q 875 4013 500 3803 
L 500 4441 
Q 881 4594 1212 4672 
Q 1544 4750 1819 4750 
Q 2544 4750 2975 4387 
Q 3406 4025 3406 3419 
Q 3406 3131 3298 2873 
Q 3191 2616 2906 2266 
Q 2828 2175 2409 1742 
Q 1991 1309 1228 531 
z
" transform="scale(0.015625)"/>
       </defs>
       <use xlink:href="#DejaVuSans-32"/>
      </g>
     </g>
    </g>
    <g id="xtick_3">
     <g id="line2d_3">
      <g>
       <use xlink:href="#mc6f428d156" x="200.448" y="307.584" style="stroke: #000000; stroke-width: 0.8"/>
      </g>
     </g>
     <g id="text_3">
      <!-- 3 -->
      <g transform="translate(197.26675 322.182437) scale(0.1 -0.1)">
       <defs>
        <path id="DejaVuSans-33" d="M 2597 2516 
Q 3050 2419 3304 2112 
Q 3559 1806 3559 1356 
Q 3559 666 3084 287 
Q 2609 -91 1734 -91 
Q 1441 -91 1130 -33 
Q 819 25 488 141 
L 488 750 
Q 750 597 1062 519 
Q 1375 441 1716 441 
Q 2309 441 2620 675 
Q 2931 909 2931 1356 
Q 2931 1769 2642 2001 
Q 2353 2234 1838 2234 
L 1294 2234 
L 1294 2753 
L 1863 2753 
Q 2328 2753 2575 2939 
Q 2822 3125 2822 3475 
Q 2822 3834 2567 4026 
Q 2313 4219 1838 4219 
Q 1578 4219 1281 4162 
Q 984 4106 628 3988 
L 628 4550 
Q 988 4650 1302 4700 
Q 1616 4750 1894 4750 
Q 2613 4750 3031 4423 
Q 3450 4097 3450 3541 
Q 3450 3153 3228 2886 
Q 3006 2619 2597 2516 
z
" transform="scale(0.015625)"/>
       </defs>
       <use xlink:href="#DejaVuSans-33"/>
      </g>
     </g>
    </g>
    <g id="xtick_4">
     <g id="line2d_4">
      <g>
       <use xlink:href="#mc6f428d156" x="271.872" y="307.584" style="stroke: #000000; stroke-width: 0.8"/>
      </g>
     </g>
     <g id="text_4">
      <!-- 4 -->
      <g transform="translate(268.69075 322.182437) scale(0.1 -0.1)">
       <defs>
        <path id="DejaVuSans-34" d="M 2419 4116 
L 825 1625 
L 2419 1625 
L 2419 4116 
z
M 2253 4666 
L 3047 4666 
L 3047 1625 
L 3713 1625 
L 3713 1100 
L 3047 1100 
L 3047 0 
L 2419 0 
L 2419 1100 
L 313 1100 
L 313 1709 
L 2253 4666 
z
" transform="scale(0.015625)"/>
       </defs>
       <use xlink:href="#DejaVuSans-34"/>
      </g>
     </g>
    </g>
    <g id="xtick_5">
     <g id="line2d_5">
      <g>
       <use xlink:href="#mc6f428d156" x="343.296" y="307.584" style="stroke: #000000; stroke-width: 0.8"/>
      </g>
     </g>
     <g id="text_5">
      <!-- 5 -->
      <g transform="translate(340.11475 322.182437) scale(0.1 -0.1)">
       <defs>
        <path id="DejaVuSans-35" d="M 691 4666 
L 3169 4666 
L 3169 4134 
L 1269 4134 
L 1269 2991 
Q 1406 3038 1543 3061 
Q 1681 3084 1819 3084 
Q 2600 3084 3056 2656 
Q 3513 2228 3513 1497 
Q 3513 744 3044 326 
Q 2575 -91 1722 -91 
Q 1428 -91 1123 -41 
Q 819 9 494 109 
L 494 744 
Q 775 591 1075 516 
Q 1375 441 1709 441 
Q 2250 441 2565 725 
Q 2881 1009 2881 1497 
Q 2881 1984 2565 2268 
Q 2250 2553 1709 2553 
Q 1456 2553 1204 2497 
Q 953 2441 691 2322 
L 691 4666 
z
" transform="scale(0.015625)"/>
       </defs>
       <use xlink:href="#DejaVuSans-35"/>
      </g>
     </g>
    </g>
    <g id="xtick_6">
     <g id="line2d_6">
      <g>
       <use xlink:href="#mc6f428d156" x="414.72" y="307.584" style="stroke: #000000; stroke-width: 0.8"/>
      </g>
     </g>
     <g id="text_6">
      <!-- 6 -->
      <g transform="translate(411.53875 322.182437) scale(0.1 -0.1)">
       <defs>
        <path id="DejaVuSans-36" d="M 2113 2584 
Q 1688 2584 1439 2293 
Q 1191 2003 1191 1497 
Q 1191 994 1439 701 
Q 1688 409 2113 409 
Q 2538 409 2786 701 
Q 3034 994 3034 1497 
Q 3034 2003 2786 2293 
Q 2538 2584 2113 2584 
z
M 3366 4563 
L 3366 3988 
Q 3128 4100 2886 4159 
Q 2644 4219 2406 4219 
Q 1781 4219 1451 3797 
Q 1122 3375 1075 2522 
Q 1259 2794 1537 2939 
Q 1816 3084 2150 3084 
Q 2853 3084 3261 2657 
Q 3669 2231 3669 1497 
Q 3669 778 3244 343 
Q 2819 -91 2113 -91 
Q 1303 -91 875 529 
Q 447 1150 447 2328 
Q 447 3434 972 4092 
Q 1497 4750 2381 4750 
Q 2619 4750 2861 4703 
Q 3103 4656 3366 4563 
z
" transform="scale(0.015625)"/>
       </defs>
       <use xlink:href="#DejaVuSans-36"/>
      </g>
     </g>
    </g>
    <g id="text_7">
     <!-- Parent Location -->
     <g transform="translate(197.420156 335.860562) scale(0.1 -0.1)">
      <defs>
       <path id="DejaVuSans-50" d="M 1259 4147 
L 1259 2394 
L 2053 2394 
Q 2494 2394 2734 2622 
Q 2975 2850 2975 3272 
Q 2975 3691 2734 3919 
Q 2494 4147 2053 4147 
L 1259 4147 
z
M 628 4666 
L 2053 4666 
Q 2838 4666 3239 4311 
Q 3641 3956 3641 3272 
Q 3641 2581 3239 2228 
Q 2838 1875 2053 1875 
L 1259 1875 
L 1259 0 
L 628 0 
L 628 4666 
z
" transform="scale(0.015625)"/>
       <path id="DejaVuSans-61" d="M 2194 1759 
Q 1497 1759 1228 1600 
Q 959 1441 959 1056 
Q 959 750 1161 570 
Q 1363 391 1709 391 
Q 2188 391 2477 730 
Q 2766 1069 2766 1631 
L 2766 1759 
L 2194 1759 
z
M 3341 1997 
L 3341 0 
L 2766 0 
L 2766 531 
Q 2569 213 2275 61 
Q 1981 -91 1556 -91 
Q 1019 -91 701 211 
Q 384 513 384 1019 
Q 384 1609 779 1909 
Q 1175 2209 1959 2209 
L 2766 2209 
L 2766 2266 
Q 2766 2663 2505 2880 
Q 2244 3097 1772 3097 
Q 1472 3097 1187 3025 
Q 903 2953 641 2809 
L 641 3341 
Q 956 3463 1253 3523 
Q 1550 3584 1831 3584 
Q 2591 3584 2966 3190 
Q 3341 2797 3341 1997 
z
" transform="scale(0.015625)"/>
       <path id="DejaVuSans-72" d="M 2631 2963 
Q 2534 3019 2420 3045 
Q 2306 3072 2169 3072 
Q 1681 3072 1420 2755 
Q 1159 2438 1159 1844 
L 1159 0 
L 581 0 
L 581 3500 
L 1159 3500 
L 1159 2956 
Q 1341 3275 1631 3429 
Q 1922 3584 2338 3584 
Q 2397 3584 2469 3576 
Q 2541 3569 2628 3553 
L 2631 2963 
z
" transform="scale(0.015625)"/>
       <path id="DejaVuSans-65" d="M 3597 1894 
L 3597 1613 
L 953 1613 
Q 991 1019 1311 708 
Q 1631 397 2203 397 
Q 2534 397 2845 478 
Q 3156 559 3463 722 
L 3463 178 
Q 3153 47 2828 -22 
Q 2503 -91 2169 -91 
Q 1331 -91 842 396 
Q 353 884 353 1716 
Q 353 2575 817 3079 
Q 1281 3584 2069 3584 
Q 2775 3584 3186 3129 
Q 3597 2675 3597 1894 
z
M 3022 2063 
Q 3016 2534 2758 2815 
Q 2500 3097 2075 3097 
Q 1594 3097 1305 2825 
Q 1016 2553 972 2059 
L 3022 2063 
z
" transform="scale(0.015625)"/>
       <path id="DejaVuSans-6e" d="M 3513 2113 
L 3513 0 
L 2938 0 
L 2938 2094 
Q 2938 2591 2744 2837 
Q 2550 3084 2163 3084 
Q 1697 3084 1428 2787 
Q 1159 2491 1159 1978 
L 1159 0 
L 581 0 
L 581 3500 
L 1159 3500 
L 1159 2956 
Q 1366 3272 1645 3428 
Q 1925 3584 2291 3584 
Q 2894 3584 3203 3211 
Q 3513 2838 3513 2113 
z
" transform="scale(0.015625)"/>
       <path id="DejaVuSans-74" d="M 1172 4494 
L 1172 3500 
L 2356 3500 
L 2356 3053 
L 1172 3053 
L 1172 1153 
Q 1172 725 1289 603 
Q 1406 481 1766 481 
L 2356 481 
L 2356 0 
L 1766 0 
Q 1100 0 847 248 
Q 594 497 594 1153 
L 594 3053 
L 172 3053 
L 172 3500 
L 594 3500 
L 594 4494 
L 1172 4494 
z
" transform="scale(0.015625)"/>
       <path id="DejaVuSans-20" transform="scale(0.015625)"/>
       <path id="DejaVuSans-4c" d="M 628 4666 
L 1259 4666 
L 1259 531 
L 3531 531 
L 3531 0 
L 628 0 
L 628 4666 
z
" transform="scale(0.015625)"/>
       <path id="DejaVuSans-6f" d="M 1959 3097 
Q 1497 3097 1228 2736 
Q 959 2375 959 1747 
Q 959 1119 1226 758 
Q 1494 397 1959 397 
Q 2419 397 2687 759 
Q 2956 1122 2956 1747 
Q 2956 2369 2687 2733 
Q 2419 3097 1959 3097 
z
M 1959 3584 
Q 2709 3584 3137 3096 
Q 3566 2609 3566 1747 
Q 3566 888 3137 398 
Q 2709 -91 1959 -91 
Q 1206 -91 779 398 
Q 353 888 353 1747 
Q 353 2609 779 3096 
Q 1206 3584 1959 3584 
z
" transform="scale(0.015625)"/>
       <path id="DejaVuSans-63" d="M 3122 3366 
L 3122 2828 
Q 2878 2963 2633 3030 
Q 2388 3097 2138 3097 
Q 1578 3097 1268 2742 
Q 959 2388 959 1747 
Q 959 1106 1268 751 
Q 1578 397 2138 397 
Q 2388 397 2633 464 
Q 2878 531 3122 666 
L 3122 134 
Q 2881 22 2623 -34 
Q 2366 -91 2075 -91 
Q 1284 -91 818 406 
Q 353 903 353 1747 
Q 353 2603 823 3093 
Q 1294 3584 2113 3584 
Q 2378 3584 2631 3529 
Q 2884 3475 3122 3366 
z
" transform="scale(0.015625)"/>
       <path id="DejaVuSans-69" d="M 603 3500 
L 1178 3500 
L 1178 0 
L 603 0 
L 603 3500 
z
M 603 4863 
L 1178 4863 
L 1178 4134 
L 603 4134 
L 603 4863 
z
" transform="scale(0.015625)"/>
      </defs>
      <use xlink:href="#DejaVuSans-50"/>
      <use xlink:href="#DejaVuSans-61" x="55.802734"/>
      <use xlink:href="#DejaVuSans-72" x="117.082031"/>
      <use xlink:href="#DejaVuSans-65" x="155.945312"/>
      <use xlink:href="#DejaVuSans-6e" x="217.46875"/>
      <use xlink:href="#DejaVuSans-74" x="280.847656"/>
      <use xlink:href="#DejaVuSans-20" x="320.056641"/>
      <use xlink:href="#DejaVuSans-4c" x="351.84375"/>
      <use xlink:href="#DejaVuSans-6f" x="405.806641"/>
      <use xlink:href="#DejaVuSans-63" x="466.988281"/>
      <use xlink:href="#DejaVuSans-61" x="521.96875"/>
      <use xlink:href="#DejaVuSans-74" x="583.248047"/>
      <use xlink:href="#DejaVuSans-69" x="622.457031"/>
      <use xlink:href="#DejaVuSans-6f" x="650.240234"/>
      <use xlink:href="#DejaVuSans-6e" x="711.421875"/>
     </g>
    </g>
   </g>
   <g id="matplotlib.axis_2">
    <g id="ytick_1">
     <g id="line2d_7">
      <defs>
       <path id="ma03dc1d488" d="M 0 0 
L -3.5 0 
" style="stroke: #000000; stroke-width: 0.8"/>
      </defs>
      <g>
       <use xlink:href="#ma03dc1d488" x="57.6" y="275.467034" style="stroke: #000000; stroke-width: 0.8"/>
      </g>
     </g>
     <g id="text_8">
      <!-- 22 -->
      <g transform="translate(37.875 279.266253) scale(0.1 -0.1)">
       <use xlink:href="#DejaVuSans-32"/>
       <use xlink:href="#DejaVuSans-32" x="63.623047"/>
      </g>
     </g>
    </g>
    <g id="ytick_2">
     <g id="line2d_8">
      <g>
       <use xlink:href="#ma03dc1d488" x="57.6" y="229.585655" style="stroke: #000000; stroke-width: 0.8"/>
      </g>
     </g>
     <g id="text_9">
      <!-- 24 -->
      <g transform="translate(37.875 233.384874) scale(0.1 -0.1)">
       <use xlink:href="#DejaVuSans-32"/>
       <use xlink:href="#DejaVuSans-34" x="63.623047"/>
      </g>
     </g>
    </g>
    <g id="ytick_3">
     <g id="line2d_9">
      <g>
       <use xlink:href="#ma03dc1d488" x="57.6" y="183.704276" style="stroke: #000000; stroke-width: 0.8"/>
      </g>
     </g>
     <g id="text_10">
      <!-- 26 -->
      <g transform="translate(37.875 187.503495) scale(0.1 -0.1)">
       <use xlink:href="#DejaVuSans-32"/>
       <use xlink:href="#DejaVuSans-36" x="63.623047"/>
      </g>
     </g>
    </g>
    <g id="ytick_4">
     <g id="line2d_10">
      <g>
       <use xlink:href="#ma03dc1d488" x="57.6" y="137.822897" style="stroke: #000000; stroke-width: 0.8"/>
      </g>
     </g>
     <g id="text_11">
      <!-- 28 -->
      <g transform="translate(37.875 141.622115) scale(0.1 -0.1)">
       <defs>
        <path id="DejaVuSans-38" d="M 2034 2216 
Q 1584 2216 1326 1975 
Q 1069 1734 1069 1313 
Q 1069 891 1326 650 
Q 1584 409 2034 409 
Q 2484 409 2743 651 
Q 3003 894 3003 1313 
Q 3003 1734 2745 1975 
Q 2488 2216 2034 2216 
z
M 1403 2484 
Q 997 2584 770 2862 
Q 544 3141 544 3541 
Q 544 4100 942 4425 
Q 1341 4750 2034 4750 
Q 2731 4750 3128 4425 
Q 3525 4100 3525 3541 
Q 3525 3141 3298 2862 
Q 3072 2584 2669 2484 
Q 3125 2378 3379 2068 
Q 3634 1759 3634 1313 
Q 3634 634 3220 271 
Q 2806 -91 2034 -91 
Q 1263 -91 848 271 
Q 434 634 434 1313 
Q 434 1759 690 2068 
Q 947 2378 1403 2484 
z
M 1172 3481 
Q 1172 3119 1398 2916 
Q 1625 2713 2034 2713 
Q 2441 2713 2670 2916 
Q 2900 3119 2900 3481 
Q 2900 3844 2670 4047 
Q 2441 4250 2034 4250 
Q 1625 4250 1398 4047 
Q 1172 3844 1172 3481 
z
" transform="scale(0.015625)"/>
       </defs>
       <use xlink:href="#DejaVuSans-32"/>
       <use xlink:href="#DejaVuSans-38" x="63.623047"/>
      </g>
     </g>
    </g>
    <g id="ytick_5">
     <g id="line2d_11">
      <g>
       <use xlink:href="#ma03dc1d488" x="57.6" y="91.941517" style="stroke: #000000; stroke-width: 0.8"/>
      </g>
     </g>
     <g id="text_12">
      <!-- 30 -->
      <g transform="translate(37.875 95.740736) scale(0.1 -0.1)">
       <defs>
        <path id="DejaVuSans-30" d="M 2034 4250 
Q 1547 4250 1301 3770 
Q 1056 3291 1056 2328 
Q 1056 1369 1301 889 
Q 1547 409 2034 409 
Q 2525 409 2770 889 
Q 3016 1369 3016 2328 
Q 3016 3291 2770 3770 
Q 2525 4250 2034 4250 
z
M 2034 4750 
Q 2819 4750 3233 4129 
Q 3647 3509 3647 2328 
Q 3647 1150 3233 529 
Q 2819 -91 2034 -91 
Q 1250 -91 836 529 
Q 422 1150 422 2328 
Q 422 3509 836 4129 
Q 1250 4750 2034 4750 
z
" transform="scale(0.015625)"/>
       </defs>
       <use xlink:href="#DejaVuSans-33"/>
       <use xlink:href="#DejaVuSans-30" x="63.623047"/>
      </g>
     </g>
    </g>
    <g id="ytick_6">
     <g id="line2d_12">
      <g>
       <use xlink:href="#ma03dc1d488" x="57.6" y="46.060138" style="stroke: #000000; stroke-width: 0.8"/>
      </g>
     </g>
     <g id="text_13">
      <!-- 32 -->
      <g transform="translate(37.875 49.859357) scale(0.1 -0.1)">
       <use xlink:href="#DejaVuSans-33"/>
       <use xlink:href="#DejaVuSans-32" x="63.623047"/>
      </g>
     </g>
    </g>
    <g id="text_14">
     <!-- Mean BMI -->
     <g transform="translate(31.795312 198.960031) rotate(-90) scale(0.1 -0.1)">
      <defs>
       <path id="DejaVuSans-4d" d="M 628 4666 
L 1569 4666 
L 2759 1491 
L 3956 4666 
L 4897 4666 
L 4897 0 
L 4281 0 
L 4281 4097 
L 3078 897 
L 2444 897 
L 1241 4097 
L 1241 0 
L 628 0 
L 628 4666 
z
" transform="scale(0.015625)"/>
       <path id="DejaVuSans-42" d="M 1259 2228 
L 1259 519 
L 2272 519 
Q 2781 519 3026 730 
Q 3272 941 3272 1375 
Q 3272 1813 3026 2020 
Q 2781 2228 2272 2228 
L 1259 2228 
z
M 1259 4147 
L 1259 2741 
L 2194 2741 
Q 2656 2741 2882 2914 
Q 3109 3088 3109 3444 
Q 3109 3797 2882 3972 
Q 2656 4147 2194 4147 
L 1259 4147 
z
M 628 4666 
L 2241 4666 
Q 2963 4666 3353 4366 
Q 3744 4066 3744 3513 
Q 3744 3084 3544 2831 
Q 3344 2578 2956 2516 
Q 3422 2416 3680 2098 
Q 3938 1781 3938 1306 
Q 3938 681 3513 340 
Q 3088 0 2303 0 
L 628 0 
L 628 4666 
z
" transform="scale(0.015625)"/>
       <path id="DejaVuSans-49" d="M 628 4666 
L 1259 4666 
L 1259 0 
L 628 0 
L 628 4666 
z
" transform="scale(0.015625)"/>
      </defs>
      <use xlink:href="#DejaVuSans-4d"/>
      <use xlink:href="#DejaVuSans-65" x="86.279297"/>
      <use xlink:href="#DejaVuSans-61" x="147.802734"/>
      <use xlink:href="#DejaVuSans-6e" x="209.082031"/>
      <use xlink:href="#DejaVuSans-20" x="272.460938"/>
      <use xlink:href="#DejaVuSans-42" x="304.248047"/>
      <use xlink:href="#DejaVuSans-4d" x="372.851562"/>
      <use xlink:href="#DejaVuSans-49" x="459.130859"/>
     </g>
    </g>
   </g>
   <g id="PathCollection_8"/>
   <g id="PathCollection_9">
    <path d="M 106.604446 41.472 
L 72.761508 86.409195 
" clip-path="url(#p3050c368d8)" style="fill: none; stroke: #000000; stroke-width: 0.5"/>
   </g>
   <g id="PathCollection_10">
    <path d="M 179.539675 41.472 
L 140.699203 91.941517 
L 134.44947 101.117793 
L 129.024 109.41566 
L 128.461753 110.294069 
L 127.031653 112.588138 
L 125.616852 114.882207 
L 124.217348 117.176276 
L 122.833143 119.470345 
L 117.449318 128.646621 
L 116.141614 130.94069 
L 113.572114 135.528828 
L 112.310319 137.822897 
L 112.228865 137.972807 
" clip-path="url(#p3050c368d8)" style="fill: none; stroke: #000000; stroke-width: 0.5"/>
    <path d="M 96.185043 170.090153 
L 95.220549 172.233931 
L 94.203763 174.528 
L 93.2023 176.822069 
L 92.216163 179.116138 
L 91.245354 181.410207 
L 90.289874 183.704276 
L 89.349724 185.998345 
L 88.424907 188.292414 
L 87.515425 190.586483 
L 86.621278 192.880552 
L 85.74247 195.174621 
L 84.030875 199.762759 
L 83.198093 202.056828 
L 81.578567 206.644966 
L 80.791829 208.939034 
L 80.020443 211.233103 
L 79.264411 213.527172 
L 77.798421 218.11531 
L 77.088467 220.409379 
L 76.393876 222.703448 
L 75.714652 224.997517 
L 75.050797 227.291586 
L 74.402313 229.585655 
L 73.769202 231.879724 
L 73.151468 234.173793 
L 71.962139 238.761931 
L 71.39055 241.056 
L 70.834347 243.350069 
L 70.293535 245.644138 
L 69.768116 247.938207 
L 69.258092 250.232276 
L 68.763467 252.526345 
L 68.284243 254.820414 
L 67.820424 257.114483 
L 67.372012 259.408552 
L 66.939012 261.702621 
L 66.521425 263.99669 
L 65.36118 270.878897 
L 65.00528 273.172966 
L 64.664812 275.467034 
L 64.339776 277.761103 
L 64.030178 280.055172 
L 63.73602 282.349241 
L 62.713866 291.525517 
L 61.520401 307.584 
" clip-path="url(#p3050c368d8)" style="fill: none; stroke: #000000; stroke-width: 0.5"/>
   </g>
   <g id="PathCollection_11">
    <path d="M 254.123919 41.472 
L 214.408257 91.941517 
L 208.020702 101.117793 
L 201.889623 110.294069 
L 200.448 112.509653 
L 200.398045 112.588138 
L 198.953606 114.882207 
L 197.524856 117.176276 
L 196.111797 119.470345 
L 190.616472 128.646621 
L 189.281873 130.94069 
L 186.659759 135.528828 
L 185.372247 137.822897 
L 185.251206 138.041228 
" clip-path="url(#p3050c368d8)" style="fill: none; stroke: #000000; stroke-width: 0.5"/>
    <path d="M 168.954208 170.030596 
L 167.943887 172.233931 
L 166.907679 174.528 
L 165.88719 176.822069 
L 164.882421 179.116138 
L 163.893375 181.410207 
L 162.920052 183.704276 
L 161.962456 185.998345 
L 161.020588 188.292414 
L 160.09445 190.586483 
L 159.184043 192.880552 
L 158.289371 195.174621 
L 156.547235 199.762759 
L 155.699776 202.056828 
L 154.052089 206.644966 
L 153.251864 208.939034 
L 152.467388 211.233103 
L 151.698664 213.527172 
L 150.208481 218.11531 
L 149.487026 220.409379 
L 148.781333 222.703448 
L 148.091404 224.997517 
L 147.417242 227.291586 
L 146.758848 229.585655 
L 146.116227 231.879724 
L 145.489381 234.173793 
L 144.283024 238.761931 
L 143.703519 241.056 
L 143.139801 243.350069 
L 142.591871 245.644138 
L 142.059734 247.938207 
L 141.543393 250.232276 
L 141.042849 252.526345 
L 140.558107 254.820414 
L 140.08917 257.114483 
L 139.636041 259.408552 
L 139.198724 261.702621 
L 138.777221 263.99669 
L 137.607633 270.878897 
L 137.249422 273.172966 
L 136.907044 275.467034 
L 136.5805 277.761103 
L 136.269796 280.055172 
L 135.974935 282.349241 
L 134.953992 291.525517 
L 133.778175 307.584 
" clip-path="url(#p3050c368d8)" style="fill: none; stroke: #000000; stroke-width: 0.5"/>
   </g>
   <g id="PathCollection_12">
    <path d="M 330.492715 41.472 
L 289.854458 91.941517 
L 283.321654 101.117793 
L 277.052267 110.294069 
L 275.526084 112.588138 
L 274.016367 114.882207 
L 272.523118 117.176276 
L 271.872 118.18775 
L 271.064987 119.470345 
L 265.45233 128.646621 
L 264.089432 130.94069 
L 261.411961 135.528828 
L 260.097391 137.822897 
L 259.932828 138.11364 
" clip-path="url(#p3050c368d8)" style="fill: none; stroke: #000000; stroke-width: 0.5"/>
    <path d="M 243.372832 169.967396 
L 242.312951 172.233931 
L 241.256329 174.528 
L 240.215843 176.822069 
L 239.191493 179.116138 
L 238.183283 181.410207 
L 237.191214 183.704276 
L 236.215288 185.998345 
L 235.255507 188.292414 
L 234.311874 190.586483 
L 233.38439 192.880552 
L 232.473057 195.174621 
L 230.698855 199.762759 
L 229.835991 202.056828 
L 228.158746 206.644966 
L 227.344371 208.939034 
L 226.546164 211.233103 
L 225.764128 213.527172 
L 224.248577 218.11531 
L 223.515068 220.409379 
L 222.79774 222.703448 
L 222.096596 224.997517 
L 221.411639 227.291586 
L 220.742871 229.585655 
L 220.090296 231.879724 
L 219.453916 234.173793 
L 218.229755 238.761931 
L 217.641979 241.056 
L 217.070411 243.350069 
L 216.515054 245.644138 
L 215.975911 247.938207 
L 215.452985 250.232276 
L 214.946279 252.526345 
L 214.455798 254.820414 
L 213.981543 257.114483 
L 213.523519 259.408552 
L 213.08173 261.702621 
L 212.656177 263.99669 
L 211.476983 270.878897 
L 211.116417 273.172966 
L 210.772108 275.467034 
L 210.444058 277.761103 
L 210.132271 280.055172 
L 209.836752 282.349241 
L 208.817429 291.525517 
L 207.660844 307.584 
" clip-path="url(#p3050c368d8)" style="fill: none; stroke: #000000; stroke-width: 0.5"/>
   </g>
   <g id="PathCollection_13">
    <path d="M 408.796822 41.472 
L 367.184969 91.941517 
L 360.498933 101.117793 
L 354.083654 110.294069 
L 352.522145 112.588138 
L 350.977563 114.882207 
L 349.449907 117.176276 
L 347.93918 119.470345 
L 343.296 126.724476 
L 342.09436 128.646621 
L 340.701658 130.94069 
L 337.965892 135.528828 
L 336.62283 137.822897 
L 336.410371 138.190323 
" clip-path="url(#p3050c368d8)" style="fill: none; stroke: #000000; stroke-width: 0.5"/>
    <path d="M 319.577388 169.900389 
L 319.558267 169.939862 
L 318.463599 172.233931 
L 317.385503 174.528 
L 316.323983 176.822069 
L 315.279041 179.116138 
L 314.250678 181.410207 
L 313.238896 183.704276 
L 312.243699 185.998345 
L 311.265087 188.292414 
L 310.303063 190.586483 
L 309.357631 192.880552 
L 308.428791 195.174621 
L 306.620899 199.762759 
L 305.741852 202.056828 
L 304.033569 206.644966 
L 303.204339 208.939034 
L 302.391719 211.233103 
L 301.595712 213.527172 
L 300.05355 218.11531 
L 299.3074 220.409379 
L 298.577875 222.703448 
L 297.864977 224.997517 
L 297.16871 227.291586 
L 296.489077 229.585655 
L 295.826081 231.879724 
L 295.179724 234.173793 
L 293.936943 238.761931 
L 293.340525 241.056 
L 292.760761 243.350069 
L 292.197652 245.644138 
L 291.651203 247.938207 
L 291.121417 250.232276 
L 290.608297 252.526345 
L 290.111848 254.820414 
L 289.632073 257.114483 
L 289.168974 259.408552 
L 288.722557 261.702621 
L 288.292824 263.99669 
L 287.103773 270.878897 
L 286.740818 273.172966 
L 286.394567 275.467034 
L 286.065024 277.761103 
L 285.752193 280.055172 
L 285.456078 282.349241 
L 284.438865 291.525517 
L 283.303305 307.584 
" clip-path="url(#p3050c368d8)" style="fill: none; stroke: #000000; stroke-width: 0.5"/>
   </g>
   <g id="PathCollection_14">
    <path d="M 414.72 138.46759 
L 413.745005 140.116966 
L 412.405938 142.411034 
L 411.083885 144.705103 
L 409.778849 146.999172 
L 408.49083 149.293241 
L 407.219831 151.58731 
L 405.965853 153.881379 
L 404.728899 156.175448 
L 403.508969 158.469517 
L 402.306066 160.763586 
L 401.120191 163.057655 
L 400.016023 165.224785 
" clip-path="url(#p3050c368d8)" style="fill: none; stroke: #000000; stroke-width: 0.5"/>
    <path d="M 385.202526 197.924008 
L 384.463797 199.762759 
L 383.567741 202.056828 
L 381.826844 206.644966 
L 380.982007 208.939034 
L 380.15425 211.233103 
L 379.343575 213.527172 
L 377.773481 218.11531 
L 377.01407 220.409379 
L 376.271752 222.703448 
L 375.546531 224.997517 
L 374.838411 227.291586 
L 374.147394 229.585655 
L 373.473484 231.879724 
L 372.816684 234.173793 
L 371.554429 238.761931 
L 370.94898 241.056 
L 370.360655 243.350069 
L 369.789459 245.644138 
L 369.235393 247.938207 
L 368.698462 250.232276 
L 368.17867 252.526345 
L 367.67602 254.820414 
L 367.190517 257.114483 
L 366.722163 259.408552 
L 366.270964 261.702621 
L 365.836922 263.99669 
L 364.637786 270.878897 
L 364.272416 273.172966 
L 363.924226 275.467034 
L 363.593217 277.761103 
L 363.279396 280.055172 
L 362.982766 282.349241 
L 361.968248 291.525517 
L 360.855752 307.584 
" clip-path="url(#p3050c368d8)" style="fill: none; stroke: #000000; stroke-width: 0.5"/>
   </g>
   <g id="PathCollection_15"/>
   <g id="LineCollection_1">
    <path d="M 57.6 307.584 
L 57.6 294.2784 
" clip-path="url(#p3050c368d8)" style="fill: none; stroke: #000000; stroke-width: 1.5"/>
    <path d="M 57.6 307.584 
L 57.6 294.2784 
" clip-path="url(#p3050c368d8)" style="fill: none; stroke: #000000; stroke-width: 1.5"/>
    <path d="M 129.024 307.584 
L 129.024 294.2784 
" clip-path="url(#p3050c368d8)" style="fill: none; stroke: #000000; stroke-width: 1.5"/>
    <path d="M 129.024 307.584 
L 129.024 294.2784 
" clip-path="url(#p3050c368d8)" style="fill: none; stroke: #000000; stroke-width: 1.5"/>
    <path d="M 200.448 307.584 
L 200.448 294.2784 
" clip-path="url(#p3050c368d8)" style="fill: none; stroke: #000000; stroke-width: 1.5"/>
    <path d="M 271.872 307.584 
L 271.872 294.2784 
" clip-path="url(#p3050c368d8)" style="fill: none; stroke: #000000; stroke-width: 1.5"/>
    <path d="M 271.872 307.584 
L 271.872 294.2784 
" clip-path="url(#p3050c368d8)" style="fill: none; stroke: #000000; stroke-width: 1.5"/>
    <path d="M 271.872 307.584 
L 271.872 294.2784 
" clip-path="url(#p3050c368d8)" style="fill: none; stroke: #000000; stroke-width: 1.5"/>
    <path d="M 349.00992 307.584 
L 349.00992 294.2784 
" clip-path="url(#p3050c368d8)" style="fill: none; stroke: #000000; stroke-width: 1.5"/>
   </g>
   <g id="LineCollection_2">
    <path clip-path="url(#p3050c368d8)" style="fill: none; stroke: #000000; stroke-width: 1.5"/>
    <path clip-path="url(#p3050c368d8)" style="fill: none; stroke: #000000; stroke-width: 1.5"/>
    <path clip-path="url(#p3050c368d8)" style="fill: none; stroke: #000000; stroke-width: 1.5"/>
    <path clip-path="url(#p3050c368d8)" style="fill: none; stroke: #000000; stroke-width: 1.5"/>
    <path clip-path="url(#p3050c368d8)" style="fill: none; stroke: #000000; stroke-width: 1.5"/>
    <path clip-path="url(#p3050c368d8)" style="fill: none; stroke: #000000; stroke-width: 1.5"/>
    <path clip-path="url(#p3050c368d8)" style="fill: none; stroke: #000000; stroke-width: 1.5"/>
    <path clip-path="url(#p3050c368d8)" style="fill: none; stroke: #000000; stroke-width: 1.5"/>
    <path clip-path="url(#p3050c368d8)" style="fill: none; stroke: #000000; stroke-width: 1.5"/>
   </g>
   <g id="patch_3">
    <path d="M 57.6 307.584 
L 57.6 41.472 
" style="fill: none; stroke: #000000; stroke-width: 0.8; stroke-linejoin: miter; stroke-linecap: square"/>
   </g>
   <g id="patch_4">
    <path d="M 414.72 307.584 
L 414.72 41.472 
" style="fill: none; stroke: #000000; stroke-width: 0.8; stroke-linejoin: miter; stroke-linecap: square"/>
   </g>
   <g id="patch_5">
    <path d="M 57.6 307.584 
L 414.72 307.584 
" style="fill: none; stroke: #000000; stroke-width: 0.8; stroke-linejoin: miter; stroke-linecap: square"/>
   </g>
   <g id="patch_6">
    <path d="M 57.6 41.472 
L 414.72 41.472 
" style="fill: none; stroke: #000000; stroke-width: 0.8; stroke-linejoin: miter; stroke-linecap: square"/>
   </g>
   <g id="text_15">
    <!-- 2D-partial dependency plot between PL and BMI -->
    <g transform="translate(91.084688 35.472) scale(0.12 -0.12)">
     <defs>
      <path id="DejaVuSans-44" d="M 1259 4147 
L 1259 519 
L 2022 519 
Q 2988 519 3436 956 
Q 3884 1394 3884 2338 
Q 3884 3275 3436 3711 
Q 2988 4147 2022 4147 
L 1259 4147 
z
M 628 4666 
L 1925 4666 
Q 3281 4666 3915 4102 
Q 4550 3538 4550 2338 
Q 4550 1131 3912 565 
Q 3275 0 1925 0 
L 628 0 
L 628 4666 
z
" transform="scale(0.015625)"/>
      <path id="DejaVuSans-2d" d="M 313 2009 
L 1997 2009 
L 1997 1497 
L 313 1497 
L 313 2009 
z
" transform="scale(0.015625)"/>
      <path id="DejaVuSans-70" d="M 1159 525 
L 1159 -1331 
L 581 -1331 
L 581 3500 
L 1159 3500 
L 1159 2969 
Q 1341 3281 1617 3432 
Q 1894 3584 2278 3584 
Q 2916 3584 3314 3078 
Q 3713 2572 3713 1747 
Q 3713 922 3314 415 
Q 2916 -91 2278 -91 
Q 1894 -91 1617 61 
Q 1341 213 1159 525 
z
M 3116 1747 
Q 3116 2381 2855 2742 
Q 2594 3103 2138 3103 
Q 1681 3103 1420 2742 
Q 1159 2381 1159 1747 
Q 1159 1113 1420 752 
Q 1681 391 2138 391 
Q 2594 391 2855 752 
Q 3116 1113 3116 1747 
z
" transform="scale(0.015625)"/>
      <path id="DejaVuSans-6c" d="M 603 4863 
L 1178 4863 
L 1178 0 
L 603 0 
L 603 4863 
z
" transform="scale(0.015625)"/>
      <path id="DejaVuSans-64" d="M 2906 2969 
L 2906 4863 
L 3481 4863 
L 3481 0 
L 2906 0 
L 2906 525 
Q 2725 213 2448 61 
Q 2172 -91 1784 -91 
Q 1150 -91 751 415 
Q 353 922 353 1747 
Q 353 2572 751 3078 
Q 1150 3584 1784 3584 
Q 2172 3584 2448 3432 
Q 2725 3281 2906 2969 
z
M 947 1747 
Q 947 1113 1208 752 
Q 1469 391 1925 391 
Q 2381 391 2643 752 
Q 2906 1113 2906 1747 
Q 2906 2381 2643 2742 
Q 2381 3103 1925 3103 
Q 1469 3103 1208 2742 
Q 947 2381 947 1747 
z
" transform="scale(0.015625)"/>
      <path id="DejaVuSans-79" d="M 2059 -325 
Q 1816 -950 1584 -1140 
Q 1353 -1331 966 -1331 
L 506 -1331 
L 506 -850 
L 844 -850 
Q 1081 -850 1212 -737 
Q 1344 -625 1503 -206 
L 1606 56 
L 191 3500 
L 800 3500 
L 1894 763 
L 2988 3500 
L 3597 3500 
L 2059 -325 
z
" transform="scale(0.015625)"/>
      <path id="DejaVuSans-62" d="M 3116 1747 
Q 3116 2381 2855 2742 
Q 2594 3103 2138 3103 
Q 1681 3103 1420 2742 
Q 1159 2381 1159 1747 
Q 1159 1113 1420 752 
Q 1681 391 2138 391 
Q 2594 391 2855 752 
Q 3116 1113 3116 1747 
z
M 1159 2969 
Q 1341 3281 1617 3432 
Q 1894 3584 2278 3584 
Q 2916 3584 3314 3078 
Q 3713 2572 3713 1747 
Q 3713 922 3314 415 
Q 2916 -91 2278 -91 
Q 1894 -91 1617 61 
Q 1341 213 1159 525 
L 1159 0 
L 581 0 
L 581 4863 
L 1159 4863 
L 1159 2969 
z
" transform="scale(0.015625)"/>
      <path id="DejaVuSans-77" d="M 269 3500 
L 844 3500 
L 1563 769 
L 2278 3500 
L 2956 3500 
L 3675 769 
L 4391 3500 
L 4966 3500 
L 4050 0 
L 3372 0 
L 2619 2869 
L 1863 0 
L 1184 0 
L 269 3500 
z
" transform="scale(0.015625)"/>
     </defs>
     <use xlink:href="#DejaVuSans-32"/>
     <use xlink:href="#DejaVuSans-44" x="63.623047"/>
     <use xlink:href="#DejaVuSans-2d" x="140.625"/>
     <use xlink:href="#DejaVuSans-70" x="176.708984"/>
     <use xlink:href="#DejaVuSans-61" x="240.185547"/>
     <use xlink:href="#DejaVuSans-72" x="301.464844"/>
     <use xlink:href="#DejaVuSans-74" x="342.578125"/>
     <use xlink:href="#DejaVuSans-69" x="381.787109"/>
     <use xlink:href="#DejaVuSans-61" x="409.570312"/>
     <use xlink:href="#DejaVuSans-6c" x="470.849609"/>
     <use xlink:href="#DejaVuSans-20" x="498.632812"/>
     <use xlink:href="#DejaVuSans-64" x="530.419922"/>
     <use xlink:href="#DejaVuSans-65" x="593.896484"/>
     <use xlink:href="#DejaVuSans-70" x="655.419922"/>
     <use xlink:href="#DejaVuSans-65" x="718.896484"/>
     <use xlink:href="#DejaVuSans-6e" x="780.419922"/>
     <use xlink:href="#DejaVuSans-64" x="843.798828"/>
     <use xlink:href="#DejaVuSans-65" x="907.275391"/>
     <use xlink:href="#DejaVuSans-6e" x="968.798828"/>
     <use xlink:href="#DejaVuSans-63" x="1032.177734"/>
     <use xlink:href="#DejaVuSans-79" x="1087.158203"/>
     <use xlink:href="#DejaVuSans-20" x="1146.337891"/>
     <use xlink:href="#DejaVuSans-70" x="1178.125"/>
     <use xlink:href="#DejaVuSans-6c" x="1241.601562"/>
     <use xlink:href="#DejaVuSans-6f" x="1269.384766"/>
     <use xlink:href="#DejaVuSans-74" x="1330.566406"/>
     <use xlink:href="#DejaVuSans-20" x="1369.775391"/>
     <use xlink:href="#DejaVuSans-62" x="1401.5625"/>
     <use xlink:href="#DejaVuSans-65" x="1465.039062"/>
     <use xlink:href="#DejaVuSans-74" x="1526.5625"/>
     <use xlink:href="#DejaVuSans-77" x="1565.771484"/>
     <use xlink:href="#DejaVuSans-65" x="1647.558594"/>
     <use xlink:href="#DejaVuSans-65" x="1709.082031"/>
     <use xlink:href="#DejaVuSans-6e" x="1770.605469"/>
     <use xlink:href="#DejaVuSans-20" x="1833.984375"/>
     <use xlink:href="#DejaVuSans-50" x="1865.771484"/>
     <use xlink:href="#DejaVuSans-4c" x="1926.074219"/>
     <use xlink:href="#DejaVuSans-20" x="1981.787109"/>
     <use xlink:href="#DejaVuSans-61" x="2013.574219"/>
     <use xlink:href="#DejaVuSans-6e" x="2074.853516"/>
     <use xlink:href="#DejaVuSans-64" x="2138.232422"/>
     <use xlink:href="#DejaVuSans-20" x="2201.708984"/>
     <use xlink:href="#DejaVuSans-42" x="2233.496094"/>
     <use xlink:href="#DejaVuSans-4d" x="2302.099609"/>
     <use xlink:href="#DejaVuSans-49" x="2388.378906"/>
    </g>
   </g>
   <g id="text_16">
    <g clip-path="url(#p3050c368d8)">
     <!-- 10.69 -->
     <g transform="translate(56.817877 114.552448) rotate(-56.249195) scale(0.1 -0.1)">
      <defs>
       <path id="DejaVuSans-2e" d="M 684 794 
L 1344 794 
L 1344 0 
L 684 0 
L 684 794 
z
" transform="scale(0.015625)"/>
       <path id="DejaVuSans-39" d="M 703 97 
L 703 672 
Q 941 559 1184 500 
Q 1428 441 1663 441 
Q 2288 441 2617 861 
Q 2947 1281 2994 2138 
Q 2813 1869 2534 1725 
Q 2256 1581 1919 1581 
Q 1219 1581 811 2004 
Q 403 2428 403 3163 
Q 403 3881 828 4315 
Q 1253 4750 1959 4750 
Q 2769 4750 3195 4129 
Q 3622 3509 3622 2328 
Q 3622 1225 3098 567 
Q 2575 -91 1691 -91 
Q 1453 -91 1209 -44 
Q 966 3 703 97 
z
M 1959 2075 
Q 2384 2075 2632 2365 
Q 2881 2656 2881 3163 
Q 2881 3666 2632 3958 
Q 2384 4250 1959 4250 
Q 1534 4250 1286 3958 
Q 1038 3666 1038 3163 
Q 1038 2656 1286 2365 
Q 1534 2075 1959 2075 
z
" transform="scale(0.015625)"/>
      </defs>
      <use xlink:href="#DejaVuSans-31"/>
      <use xlink:href="#DejaVuSans-30" x="63.623047"/>
      <use xlink:href="#DejaVuSans-2e" x="127.246094"/>
      <use xlink:href="#DejaVuSans-36" x="159.033203"/>
      <use xlink:href="#DejaVuSans-39" x="222.65625"/>
     </g>
    </g>
   </g>
   <g id="text_17">
    <g clip-path="url(#p3050c368d8)">
     <!-- 10.70 -->
     <g transform="translate(99.976332 167.919241) rotate(-63.448718) scale(0.1 -0.1)">
      <defs>
       <path id="DejaVuSans-37" d="M 525 4666 
L 3525 4666 
L 3525 4397 
L 1831 0 
L 1172 0 
L 2766 4134 
L 525 4134 
L 525 4666 
z
" transform="scale(0.015625)"/>
      </defs>
      <use xlink:href="#DejaVuSans-31"/>
      <use xlink:href="#DejaVuSans-30" x="63.623047"/>
      <use xlink:href="#DejaVuSans-2e" x="127.246094"/>
      <use xlink:href="#DejaVuSans-37" x="159.033203"/>
      <use xlink:href="#DejaVuSans-30" x="222.65625"/>
     </g>
    </g>
   </g>
   <g id="text_18">
    <g clip-path="url(#p3050c368d8)">
     <!-- 10.71 -->
     <g transform="translate(172.758492 167.887766) rotate(-62.99622) scale(0.1 -0.1)">
      <use xlink:href="#DejaVuSans-31"/>
      <use xlink:href="#DejaVuSans-30" x="63.623047"/>
      <use xlink:href="#DejaVuSans-2e" x="127.246094"/>
      <use xlink:href="#DejaVuSans-37" x="159.033203"/>
      <use xlink:href="#DejaVuSans-31" x="222.65625"/>
     </g>
    </g>
   </g>
   <g id="text_19">
    <g clip-path="url(#p3050c368d8)">
     <!-- 10.72 -->
     <g transform="translate(247.190602 167.854006) rotate(-62.524254) scale(0.1 -0.1)">
      <use xlink:href="#DejaVuSans-31"/>
      <use xlink:href="#DejaVuSans-30" x="63.623047"/>
      <use xlink:href="#DejaVuSans-2e" x="127.246094"/>
      <use xlink:href="#DejaVuSans-37" x="159.033203"/>
      <use xlink:href="#DejaVuSans-32" x="222.65625"/>
     </g>
    </g>
   </g>
   <g id="text_20">
    <g clip-path="url(#p3050c368d8)">
     <!-- 10.73 -->
     <g transform="translate(323.408925 167.817772) rotate(-62.03183) scale(0.1 -0.1)">
      <use xlink:href="#DejaVuSans-31"/>
      <use xlink:href="#DejaVuSans-30" x="63.623047"/>
      <use xlink:href="#DejaVuSans-2e" x="127.246094"/>
      <use xlink:href="#DejaVuSans-37" x="159.033203"/>
      <use xlink:href="#DejaVuSans-33" x="222.65625"/>
     </g>
    </g>
   </g>
   <g id="text_21">
    <g clip-path="url(#p3050c368d8)">
     <!-- 10.74 -->
     <g transform="translate(388.847974 195.58613) rotate(-65.607257) scale(0.1 -0.1)">
      <use xlink:href="#DejaVuSans-31"/>
      <use xlink:href="#DejaVuSans-30" x="63.623047"/>
      <use xlink:href="#DejaVuSans-2e" x="127.246094"/>
      <use xlink:href="#DejaVuSans-37" x="159.033203"/>
      <use xlink:href="#DejaVuSans-34" x="222.65625"/>
     </g>
    </g>
   </g>
  </g>
 </g>
 <defs>
  <clipPath id="p3050c368d8">
   <rect x="57.6" y="41.472" width="357.12" height="266.112"/>
  </clipPath>
 </defs>
</svg>
