<?xml version="1.0" encoding="utf-8" standalone="no"?>
<!DOCTYPE svg PUBLIC "-//W3C//DTD SVG 1.1//EN"
  "http://www.w3.org/Graphics/SVG/1.1/DTD/svg11.dtd">
<svg xmlns:xlink="http://www.w3.org/1999/xlink" width="460.8pt" height="345.6pt" viewBox="0 0 460.8 345.6" xmlns="http://www.w3.org/2000/svg" version="1.1">
 <metadata>
  <rdf:RDF xmlns:dc="http://purl.org/dc/elements/1.1/" xmlns:cc="http://creativecommons.org/ns#" xmlns:rdf="http://www.w3.org/1999/02/22-rdf-syntax-ns#">
   <cc:Work>
    <dc:type rdf:resource="http://purl.org/dc/dcmitype/StillImage"/>
    <dc:date>2024-04-22T01:00:32.921290</dc:date>
    <dc:format>image/svg+xml</dc:format>
    <dc:creator>
     <cc:Agent>
      <dc:title>Matplotlib v3.7.0, https://matplotlib.org/</dc:title>
     </cc:Agent>
    </dc:creator>
   </cc:Work>
  </rdf:RDF>
 </metadata>
 <defs>
  <style type="text/css">*{stroke-linejoin: round; stroke-linecap: butt}</style>
 </defs>
 <g id="figure_1">
  <g id="patch_1">
   <path d="M 0 345.6 
L 460.8 345.6 
L 460.8 0 
L 0 0 
L 0 345.6 
z
" style="fill: none"/>
  </g>
  <g id="axes_1"/>
  <g id="axes_2">
   <g id="patch_2">
    <path d="M 57.6 307.584 
L 414.72 307.584 
L 414.72 41.472 
L 57.6 41.472 
L 57.6 307.584 
z
" style="fill: none"/>
   </g>
   <g id="PathCollection_1">
    <path d="M 382.254545 307.584 
L 385.861818 307.584 
L 389.469091 307.584 
L 393.076364 307.584 
L 396.683636 307.584 
L 400.290909 307.584 
L 403.898182 307.584 
L 407.505455 307.584 
L 411.112727 307.584 
L 414.72 307.584 
L 414.72 304.896 
L 414.72 302.208 
L 414.72 299.52 
L 414.72 296.832 
L 414.72 294.144 
L 414.72 291.456 
L 414.72 288.768 
L 414.72 286.08 
L 414.72 283.392 
L 414.72 280.704 
L 414.72 278.016 
L 414.72 275.328 
L 414.72 272.64 
L 414.72 269.952 
L 414.72 267.264 
L 414.72 264.576 
L 414.72 261.888 
L 414.72 259.2 
L 414.72 256.512 
L 414.72 253.824 
L 414.72 251.136 
L 414.72 248.448 
L 414.72 245.76 
L 414.72 243.072 
L 414.72 240.384 
L 414.72 237.696 
L 414.72 235.008 
L 414.72 232.32 
L 414.72 229.632 
L 414.72 226.944 
L 414.72 224.256 
L 414.72 221.568 
L 414.72 218.88 
L 414.72 216.192 
L 414.72 213.504 
L 414.72 210.816 
L 414.72 208.128 
L 414.72 205.44 
L 414.72 202.752 
L 414.72 200.064 
L 414.72 197.376 
L 414.72 194.688 
L 414.72 192 
L 414.72 189.312 
L 414.72 186.624 
L 414.72 183.936 
L 414.72 181.248 
L 414.72 178.56 
L 414.72 175.872 
L 414.72 173.184 
L 414.72 170.496 
L 414.72 167.808 
L 414.72 165.12 
L 414.72 162.432 
L 414.72 159.744 
L 414.72 157.056 
L 414.72 154.368 
L 414.72 151.68 
L 414.72 148.992 
L 414.72 146.304 
L 414.72 143.616 
L 414.72 140.928 
L 414.72 138.24 
L 414.72 135.552 
L 414.72 132.864 
L 414.72 130.176 
L 414.72 127.488 
L 414.72 124.8 
L 414.72 122.112 
L 414.72 119.424 
L 414.72 116.736 
L 414.72 114.048 
L 414.72 111.36 
L 414.72 108.672 
L 414.72 105.984 
L 414.72 103.296 
L 414.72 100.608 
L 414.72 97.92 
L 414.72 95.232 
L 414.72 92.544 
L 414.72 89.856 
L 414.72 87.168 
L 414.72 84.48 
L 414.72 81.792 
L 414.72 79.104 
L 414.72 76.416 
L 414.72 73.728 
L 414.72 71.04 
L 414.72 68.352 
L 414.72 65.664 
L 414.72 62.976 
L 414.72 60.288 
L 414.72 57.6 
L 414.72 54.912 
L 414.72 52.224 
L 414.72 49.536 
L 414.72 46.848 
L 414.72 44.16 
L 414.72 41.472 
L 411.112727 41.472 
L 407.505455 41.472 
L 403.898182 41.472 
L 400.290909 41.472 
L 396.683636 41.472 
L 393.076364 41.472 
L 389.469091 41.472 
L 385.861818 41.472 
L 382.254545 41.472 
L 378.647273 41.472 
L 375.04 41.472 
L 374.768869 41.472 
L 374.817939 44.16 
L 374.86698 46.848 
L 374.915993 49.536 
L 374.964977 52.224 
L 375.013932 54.912 
L 375.04 56.344111 
L 375.062904 57.6 
L 375.111899 60.288 
L 375.160865 62.976 
L 375.209803 65.664 
L 375.258712 68.352 
L 375.307593 71.04 
L 375.356445 73.728 
L 375.405268 76.416 
L 375.454063 79.104 
L 375.50283 81.792 
L 375.551568 84.48 
L 375.600277 87.168 
L 375.648958 89.856 
L 375.69761 92.544 
L 375.746234 95.232 
L 375.79483 97.92 
L 375.843397 100.608 
L 375.891935 103.296 
L 375.940445 105.984 
L 375.988927 108.672 
L 376.03738 111.36 
L 376.085805 114.048 
L 376.134201 116.736 
L 376.182569 119.424 
L 376.230908 122.112 
L 376.279219 124.8 
L 376.327502 127.488 
L 376.375756 130.176 
L 376.423982 132.864 
L 376.472179 135.552 
L 376.520348 138.24 
L 376.568489 140.928 
L 376.616601 143.616 
L 376.664685 146.304 
L 376.71274 148.992 
L 376.760767 151.68 
L 376.808766 154.368 
L 376.856736 157.056 
L 376.904678 159.744 
L 376.952592 162.432 
L 377.000477 165.12 
L 377.048334 167.808 
L 377.096162 170.496 
L 377.143963 173.184 
L 377.191735 175.872 
L 377.239478 178.56 
L 377.287194 181.248 
L 377.334881 183.936 
L 377.382539 186.624 
L 377.43017 189.312 
L 377.477772 192 
L 377.525346 194.688 
L 377.572892 197.376 
L 377.620409 200.064 
L 377.667898 202.752 
L 377.715359 205.44 
L 377.762791 208.128 
L 377.810196 210.816 
L 377.857572 213.504 
L 377.90492 216.192 
L 377.952239 218.88 
L 377.99953 221.568 
L 378.046794 224.256 
L 378.094029 226.944 
L 378.141235 229.632 
L 378.188414 232.32 
L 378.235564 235.008 
L 378.282686 237.696 
L 378.32978 240.384 
L 378.376846 243.072 
L 378.423883 245.76 
L 378.470893 248.448 
L 378.517874 251.136 
L 378.564827 253.824 
L 378.611752 256.512 
L 378.647273 258.547956 
L 378.658671 259.2 
L 378.705634 261.888 
L 378.752568 264.576 
L 378.799474 267.264 
L 378.846352 269.952 
L 378.893201 272.64 
L 378.940022 275.328 
L 378.986816 278.016 
L 379.033581 280.704 
L 379.080317 283.392 
L 379.127026 286.08 
L 379.173706 288.768 
L 379.220358 291.456 
L 379.266982 294.144 
L 379.313578 296.832 
L 379.360146 299.52 
L 379.406685 302.208 
L 379.453197 304.896 
L 379.49968 307.584 
z
" clip-path="url(#p9a36c2d026)" style="fill: #481b6d; fill-opacity: 0.75"/>
   </g>
   <g id="PathCollection_2">
    <path d="M 324.538182 307.584 
L 328.145455 307.584 
L 331.752727 307.584 
L 335.36 307.584 
L 338.967273 307.584 
L 342.574545 307.584 
L 346.181818 307.584 
L 349.789091 307.584 
L 353.396364 307.584 
L 357.003636 307.584 
L 360.610909 307.584 
L 364.218182 307.584 
L 367.825455 307.584 
L 371.432727 307.584 
L 375.04 307.584 
L 378.647273 307.584 
L 379.49968 307.584 
L 379.453197 304.896 
L 379.406685 302.208 
L 379.360146 299.52 
L 379.313578 296.832 
L 379.266982 294.144 
L 379.220358 291.456 
L 379.173706 288.768 
L 379.127026 286.08 
L 379.080317 283.392 
L 379.033581 280.704 
L 378.986816 278.016 
L 378.940022 275.328 
L 378.893201 272.64 
L 378.846352 269.952 
L 378.799474 267.264 
L 378.752568 264.576 
L 378.705634 261.888 
L 378.658671 259.2 
L 378.647273 258.547956 
L 378.611752 256.512 
L 378.564827 253.824 
L 378.517874 251.136 
L 378.470893 248.448 
L 378.423883 245.76 
L 378.376846 243.072 
L 378.32978 240.384 
L 378.282686 237.696 
L 378.235564 235.008 
L 378.188414 232.32 
L 378.141235 229.632 
L 378.094029 226.944 
L 378.046794 224.256 
L 377.99953 221.568 
L 377.952239 218.88 
L 377.90492 216.192 
L 377.857572 213.504 
L 377.810196 210.816 
L 377.762791 208.128 
L 377.715359 205.44 
L 377.667898 202.752 
L 377.620409 200.064 
L 377.572892 197.376 
L 377.525346 194.688 
L 377.477772 192 
L 377.43017 189.312 
L 377.382539 186.624 
L 377.334881 183.936 
L 377.287194 181.248 
L 377.239478 178.56 
L 377.191735 175.872 
L 377.143963 173.184 
L 377.096162 170.496 
L 377.048334 167.808 
L 377.000477 165.12 
L 376.952592 162.432 
L 376.904678 159.744 
L 376.856736 157.056 
L 376.808766 154.368 
L 376.760767 151.68 
L 376.71274 148.992 
L 376.664685 146.304 
L 376.616601 143.616 
L 376.568489 140.928 
L 376.520348 138.24 
L 376.472179 135.552 
L 376.423982 132.864 
L 376.375756 130.176 
L 376.327502 127.488 
L 376.279219 124.8 
L 376.230908 122.112 
L 376.182569 119.424 
L 376.134201 116.736 
L 376.085805 114.048 
L 376.03738 111.36 
L 375.988927 108.672 
L 375.940445 105.984 
L 375.891935 103.296 
L 375.843397 100.608 
L 375.79483 97.92 
L 375.746234 95.232 
L 375.69761 92.544 
L 375.648958 89.856 
L 375.600277 87.168 
L 375.551568 84.48 
L 375.50283 81.792 
L 375.454063 79.104 
L 375.405268 76.416 
L 375.356445 73.728 
L 375.307593 71.04 
L 375.258712 68.352 
L 375.209803 65.664 
L 375.160865 62.976 
L 375.111899 60.288 
L 375.062904 57.6 
L 375.04 56.344111 
L 375.013932 54.912 
L 374.964977 52.224 
L 374.915993 49.536 
L 374.86698 46.848 
L 374.817939 44.16 
L 374.768869 41.472 
L 371.432727 41.472 
L 367.825455 41.472 
L 364.218182 41.472 
L 360.610909 41.472 
L 357.003636 41.472 
L 353.396364 41.472 
L 349.789091 41.472 
L 346.181818 41.472 
L 342.574545 41.472 
L 338.967273 41.472 
L 335.36 41.472 
L 331.752727 41.472 
L 328.145455 41.472 
L 324.538182 41.472 
L 320.930909 41.472 
L 317.639264 41.472 
L 317.689676 44.16 
L 317.740043 46.848 
L 317.790365 49.536 
L 317.840641 52.224 
L 317.890873 54.912 
L 317.941059 57.6 
L 317.9912 60.288 
L 318.041296 62.976 
L 318.091346 65.664 
L 318.141352 68.352 
L 318.191312 71.04 
L 318.241227 73.728 
L 318.291097 76.416 
L 318.340922 79.104 
L 318.390702 81.792 
L 318.440437 84.48 
L 318.490126 87.168 
L 318.539771 89.856 
L 318.58937 92.544 
L 318.638924 95.232 
L 318.688433 97.92 
L 318.737898 100.608 
L 318.787317 103.296 
L 318.836691 105.984 
L 318.88602 108.672 
L 318.935304 111.36 
L 318.984543 114.048 
L 319.033737 116.736 
L 319.082885 119.424 
L 319.131989 122.112 
L 319.181048 124.8 
L 319.230062 127.488 
L 319.279031 130.176 
L 319.327955 132.864 
L 319.376834 135.552 
L 319.425668 138.24 
L 319.474457 140.928 
L 319.523201 143.616 
L 319.5719 146.304 
L 319.620554 148.992 
L 319.669163 151.68 
L 319.717727 154.368 
L 319.766247 157.056 
L 319.814721 159.744 
L 319.863151 162.432 
L 319.911535 165.12 
L 319.959875 167.808 
L 320.00817 170.496 
L 320.05642 173.184 
L 320.104625 175.872 
L 320.152785 178.56 
L 320.2009 181.248 
L 320.248971 183.936 
L 320.296996 186.624 
L 320.344977 189.312 
L 320.392913 192 
L 320.440804 194.688 
L 320.48865 197.376 
L 320.536452 200.064 
L 320.584208 202.752 
L 320.63192 205.44 
L 320.679587 208.128 
L 320.727209 210.816 
L 320.774787 213.504 
L 320.822319 216.192 
L 320.869807 218.88 
L 320.91725 221.568 
L 320.930909 222.342606 
L 320.964688 224.256 
L 321.012097 226.944 
L 321.059462 229.632 
L 321.106781 232.32 
L 321.154056 235.008 
L 321.201286 237.696 
L 321.248471 240.384 
L 321.295612 243.072 
L 321.342707 245.76 
L 321.389758 248.448 
L 321.436764 251.136 
L 321.483725 253.824 
L 321.530642 256.512 
L 321.577514 259.2 
L 321.62434 261.888 
L 321.671123 264.576 
L 321.71786 267.264 
L 321.764553 269.952 
L 321.811201 272.64 
L 321.857804 275.328 
L 321.904362 278.016 
L 321.950876 280.704 
L 321.997345 283.392 
L 322.043769 286.08 
L 322.090149 288.768 
L 322.136483 291.456 
L 322.182773 294.144 
L 322.229019 296.832 
L 322.27522 299.52 
L 322.321376 302.208 
L 322.367487 304.896 
L 322.413554 307.584 
z
" clip-path="url(#p9a36c2d026)" style="fill: #3f4788; fill-opacity: 0.75"/>
   </g>
   <g id="PathCollection_3">
    <path d="M 266.821818 307.584 
L 270.429091 307.584 
L 274.036364 307.584 
L 277.643636 307.584 
L 281.250909 307.584 
L 284.858182 307.584 
L 288.465455 307.584 
L 292.072727 307.584 
L 295.68 307.584 
L 299.287273 307.584 
L 302.894545 307.584 
L 306.501818 307.584 
L 310.109091 307.584 
L 313.716364 307.584 
L 317.323636 307.584 
L 320.930909 307.584 
L 322.413554 307.584 
L 322.367487 304.896 
L 322.321376 302.208 
L 322.27522 299.52 
L 322.229019 296.832 
L 322.182773 294.144 
L 322.136483 291.456 
L 322.090149 288.768 
L 322.043769 286.08 
L 321.997345 283.392 
L 321.950876 280.704 
L 321.904362 278.016 
L 321.857804 275.328 
L 321.811201 272.64 
L 321.764553 269.952 
L 321.71786 267.264 
L 321.671123 264.576 
L 321.62434 261.888 
L 321.577514 259.2 
L 321.530642 256.512 
L 321.483725 253.824 
L 321.436764 251.136 
L 321.389758 248.448 
L 321.342707 245.76 
L 321.295612 243.072 
L 321.248471 240.384 
L 321.201286 237.696 
L 321.154056 235.008 
L 321.106781 232.32 
L 321.059462 229.632 
L 321.012097 226.944 
L 320.964688 224.256 
L 320.930909 222.342606 
L 320.91725 221.568 
L 320.869807 218.88 
L 320.822319 216.192 
L 320.774787 213.504 
L 320.727209 210.816 
L 320.679587 208.128 
L 320.63192 205.44 
L 320.584208 202.752 
L 320.536452 200.064 
L 320.48865 197.376 
L 320.440804 194.688 
L 320.392913 192 
L 320.344977 189.312 
L 320.296996 186.624 
L 320.248971 183.936 
L 320.2009 181.248 
L 320.152785 178.56 
L 320.104625 175.872 
L 320.05642 173.184 
L 320.00817 170.496 
L 319.959875 167.808 
L 319.911535 165.12 
L 319.863151 162.432 
L 319.814721 159.744 
L 319.766247 157.056 
L 319.717727 154.368 
L 319.669163 151.68 
L 319.620554 148.992 
L 319.5719 146.304 
L 319.523201 143.616 
L 319.474457 140.928 
L 319.425668 138.24 
L 319.376834 135.552 
L 319.327955 132.864 
L 319.279031 130.176 
L 319.230062 127.488 
L 319.181048 124.8 
L 319.131989 122.112 
L 319.082885 119.424 
L 319.033737 116.736 
L 318.984543 114.048 
L 318.935304 111.36 
L 318.88602 108.672 
L 318.836691 105.984 
L 318.787317 103.296 
L 318.737898 100.608 
L 318.688433 97.92 
L 318.638924 95.232 
L 318.58937 92.544 
L 318.539771 89.856 
L 318.490126 87.168 
L 318.440437 84.48 
L 318.390702 81.792 
L 318.340922 79.104 
L 318.291097 76.416 
L 318.241227 73.728 
L 318.191312 71.04 
L 318.141352 68.352 
L 318.091346 65.664 
L 318.041296 62.976 
L 317.9912 60.288 
L 317.941059 57.6 
L 317.890873 54.912 
L 317.840641 52.224 
L 317.790365 49.536 
L 317.740043 46.848 
L 317.689676 44.16 
L 317.639264 41.472 
L 317.323636 41.472 
L 313.716364 41.472 
L 310.109091 41.472 
L 306.501818 41.472 
L 302.894545 41.472 
L 299.287273 41.472 
L 295.68 41.472 
L 292.072727 41.472 
L 288.465455 41.472 
L 284.858182 41.472 
L 281.250909 41.472 
L 277.643636 41.472 
L 274.036364 41.472 
L 270.429091 41.472 
L 266.821818 41.472 
L 263.214545 41.472 
L 261.532708 41.472 
L 261.584749 44.16 
L 261.636729 46.848 
L 261.688646 49.536 
L 261.740502 52.224 
L 261.792297 54.912 
L 261.84403 57.6 
L 261.895701 60.288 
L 261.94731 62.976 
L 261.998858 65.664 
L 262.050344 68.352 
L 262.101768 71.04 
L 262.153131 73.728 
L 262.204432 76.416 
L 262.255672 79.104 
L 262.30685 81.792 
L 262.357966 84.48 
L 262.409021 87.168 
L 262.460014 89.856 
L 262.510946 92.544 
L 262.561816 95.232 
L 262.612625 97.92 
L 262.663372 100.608 
L 262.714057 103.296 
L 262.764681 105.984 
L 262.815244 108.672 
L 262.865745 111.36 
L 262.916184 114.048 
L 262.966562 116.736 
L 263.016879 119.424 
L 263.067134 122.112 
L 263.117327 124.8 
L 263.167459 127.488 
L 263.214545 130.015779 
L 263.217531 130.176 
L 263.267559 132.864 
L 263.317525 135.552 
L 263.367429 138.24 
L 263.417272 140.928 
L 263.467054 143.616 
L 263.516774 146.304 
L 263.566433 148.992 
L 263.616031 151.68 
L 263.665566 154.368 
L 263.715041 157.056 
L 263.764454 159.744 
L 263.813806 162.432 
L 263.863096 165.12 
L 263.912325 167.808 
L 263.961492 170.496 
L 264.010598 173.184 
L 264.059643 175.872 
L 264.108627 178.56 
L 264.157548 181.248 
L 264.206409 183.936 
L 264.255208 186.624 
L 264.303946 189.312 
L 264.352623 192 
L 264.401238 194.688 
L 264.449792 197.376 
L 264.498285 200.064 
L 264.546716 202.752 
L 264.595086 205.44 
L 264.643395 208.128 
L 264.691642 210.816 
L 264.739828 213.504 
L 264.787953 216.192 
L 264.836017 218.88 
L 264.884019 221.568 
L 264.93196 224.256 
L 264.97984 226.944 
L 265.027659 229.632 
L 265.075416 232.32 
L 265.123112 235.008 
L 265.170747 237.696 
L 265.218321 240.384 
L 265.265833 243.072 
L 265.313284 245.76 
L 265.360674 248.448 
L 265.408003 251.136 
L 265.455271 253.824 
L 265.502477 256.512 
L 265.549623 259.2 
L 265.596707 261.888 
L 265.64373 264.576 
L 265.690691 267.264 
L 265.737592 269.952 
L 265.784431 272.64 
L 265.83121 275.328 
L 265.877927 278.016 
L 265.924583 280.704 
L 265.971177 283.392 
L 266.017711 286.08 
L 266.064184 288.768 
L 266.110595 291.456 
L 266.156946 294.144 
L 266.203235 296.832 
L 266.249463 299.52 
L 266.29563 302.208 
L 266.341736 304.896 
L 266.387781 307.584 
z
" clip-path="url(#p9a36c2d026)" style="fill: #2e6e8e; fill-opacity: 0.75"/>
   </g>
   <g id="PathCollection_4">
    <path d="M 212.712727 307.584 
L 216.32 307.584 
L 219.927273 307.584 
L 223.534545 307.584 
L 227.141818 307.584 
L 230.749091 307.584 
L 234.356364 307.584 
L 237.963636 307.584 
L 241.570909 307.584 
L 245.178182 307.584 
L 248.785455 307.584 
L 252.392727 307.584 
L 256 307.584 
L 259.607273 307.584 
L 263.214545 307.584 
L 266.387781 307.584 
L 266.341736 304.896 
L 266.29563 302.208 
L 266.249463 299.52 
L 266.203235 296.832 
L 266.156946 294.144 
L 266.110595 291.456 
L 266.064184 288.768 
L 266.017711 286.08 
L 265.971177 283.392 
L 265.924583 280.704 
L 265.877927 278.016 
L 265.83121 275.328 
L 265.784431 272.64 
L 265.737592 269.952 
L 265.690691 267.264 
L 265.64373 264.576 
L 265.596707 261.888 
L 265.549623 259.2 
L 265.502477 256.512 
L 265.455271 253.824 
L 265.408003 251.136 
L 265.360674 248.448 
L 265.313284 245.76 
L 265.265833 243.072 
L 265.218321 240.384 
L 265.170747 237.696 
L 265.123112 235.008 
L 265.075416 232.32 
L 265.027659 229.632 
L 264.97984 226.944 
L 264.93196 224.256 
L 264.884019 221.568 
L 264.836017 218.88 
L 264.787953 216.192 
L 264.739828 213.504 
L 264.691642 210.816 
L 264.643395 208.128 
L 264.595086 205.44 
L 264.546716 202.752 
L 264.498285 200.064 
L 264.449792 197.376 
L 264.401238 194.688 
L 264.352623 192 
L 264.303946 189.312 
L 264.255208 186.624 
L 264.206409 183.936 
L 264.157548 181.248 
L 264.108627 178.56 
L 264.059643 175.872 
L 264.010598 173.184 
L 263.961492 170.496 
L 263.912325 167.808 
L 263.863096 165.12 
L 263.813806 162.432 
L 263.764454 159.744 
L 263.715041 157.056 
L 263.665566 154.368 
L 263.616031 151.68 
L 263.566433 148.992 
L 263.516774 146.304 
L 263.467054 143.616 
L 263.417272 140.928 
L 263.367429 138.24 
L 263.317525 135.552 
L 263.267559 132.864 
L 263.217531 130.176 
L 263.214545 130.015779 
L 263.167459 127.488 
L 263.117327 124.8 
L 263.067134 122.112 
L 263.016879 119.424 
L 262.966562 116.736 
L 262.916184 114.048 
L 262.865745 111.36 
L 262.815244 108.672 
L 262.764681 105.984 
L 262.714057 103.296 
L 262.663372 100.608 
L 262.612625 97.92 
L 262.561816 95.232 
L 262.510946 92.544 
L 262.460014 89.856 
L 262.409021 87.168 
L 262.357966 84.48 
L 262.30685 81.792 
L 262.255672 79.104 
L 262.204432 76.416 
L 262.153131 73.728 
L 262.101768 71.04 
L 262.050344 68.352 
L 261.998858 65.664 
L 261.94731 62.976 
L 261.895701 60.288 
L 261.84403 57.6 
L 261.792297 54.912 
L 261.740502 52.224 
L 261.688646 49.536 
L 261.636729 46.848 
L 261.584749 44.16 
L 261.532708 41.472 
L 259.607273 41.472 
L 256 41.472 
L 252.392727 41.472 
L 248.785455 41.472 
L 245.178182 41.472 
L 241.570909 41.472 
L 237.963636 41.472 
L 234.356364 41.472 
L 230.749091 41.472 
L 227.141818 41.472 
L 223.534545 41.472 
L 219.927273 41.472 
L 216.32 41.472 
L 212.712727 41.472 
L 209.105455 41.472 
L 205.732462 41.472 
L 205.78657 44.16 
L 205.840599 46.848 
L 205.89455 49.536 
L 205.948421 52.224 
L 206.002214 54.912 
L 206.055929 57.6 
L 206.109565 60.288 
L 206.163122 62.976 
L 206.2166 65.664 
L 206.27 68.352 
L 206.323321 71.04 
L 206.376563 73.728 
L 206.429727 76.416 
L 206.482812 79.104 
L 206.535819 81.792 
L 206.588747 84.48 
L 206.641596 87.168 
L 206.694367 89.856 
L 206.747059 92.544 
L 206.799673 95.232 
L 206.852208 97.92 
L 206.904664 100.608 
L 206.957042 103.296 
L 207.009342 105.984 
L 207.061563 108.672 
L 207.113705 111.36 
L 207.165769 114.048 
L 207.217755 116.736 
L 207.269662 119.424 
L 207.32149 122.112 
L 207.37324 124.8 
L 207.424912 127.488 
L 207.476505 130.176 
L 207.52802 132.864 
L 207.579456 135.552 
L 207.630814 138.24 
L 207.682093 140.928 
L 207.733294 143.616 
L 207.784417 146.304 
L 207.835461 148.992 
L 207.886427 151.68 
L 207.937314 154.368 
L 207.988123 157.056 
L 208.038854 159.744 
L 208.089506 162.432 
L 208.14008 165.12 
L 208.190576 167.808 
L 208.240993 170.496 
L 208.291332 173.184 
L 208.341593 175.872 
L 208.391775 178.56 
L 208.441879 181.248 
L 208.491905 183.936 
L 208.541852 186.624 
L 208.591722 189.312 
L 208.641512 192 
L 208.691225 194.688 
L 208.740859 197.376 
L 208.790415 200.064 
L 208.839893 202.752 
L 208.889293 205.44 
L 208.938614 208.128 
L 208.987857 210.816 
L 209.037022 213.504 
L 209.086109 216.192 
L 209.105455 217.253057 
L 209.135105 218.88 
L 209.184015 221.568 
L 209.232847 224.256 
L 209.281601 226.944 
L 209.330277 229.632 
L 209.378874 232.32 
L 209.427394 235.008 
L 209.475835 237.696 
L 209.524198 240.384 
L 209.572483 243.072 
L 209.620689 245.76 
L 209.668818 248.448 
L 209.716868 251.136 
L 209.764841 253.824 
L 209.812735 256.512 
L 209.860551 259.2 
L 209.908289 261.888 
L 209.955949 264.576 
L 210.00353 267.264 
L 210.051034 269.952 
L 210.09846 272.64 
L 210.145807 275.328 
L 210.193076 278.016 
L 210.240268 280.704 
L 210.287381 283.392 
L 210.334416 286.08 
L 210.381373 288.768 
L 210.428252 291.456 
L 210.475053 294.144 
L 210.521776 296.832 
L 210.568421 299.52 
L 210.614988 302.208 
L 210.661477 304.896 
L 210.707888 307.584 
z
" clip-path="url(#p9a36c2d026)" style="fill: #21918c; fill-opacity: 0.75"/>
   </g>
   <g id="PathCollection_5">
    <path d="M 154.996364 307.584 
L 158.603636 307.584 
L 162.210909 307.584 
L 165.818182 307.584 
L 169.425455 307.584 
L 173.032727 307.584 
L 176.64 307.584 
L 180.247273 307.584 
L 183.854545 307.584 
L 187.461818 307.584 
L 191.069091 307.584 
L 194.676364 307.584 
L 198.283636 307.584 
L 201.890909 307.584 
L 205.498182 307.584 
L 209.105455 307.584 
L 210.707888 307.584 
L 210.661477 304.896 
L 210.614988 302.208 
L 210.568421 299.52 
L 210.521776 296.832 
L 210.475053 294.144 
L 210.428252 291.456 
L 210.381373 288.768 
L 210.334416 286.08 
L 210.287381 283.392 
L 210.240268 280.704 
L 210.193076 278.016 
L 210.145807 275.328 
L 210.09846 272.64 
L 210.051034 269.952 
L 210.00353 267.264 
L 209.955949 264.576 
L 209.908289 261.888 
L 209.860551 259.2 
L 209.812735 256.512 
L 209.764841 253.824 
L 209.716868 251.136 
L 209.668818 248.448 
L 209.620689 245.76 
L 209.572483 243.072 
L 209.524198 240.384 
L 209.475835 237.696 
L 209.427394 235.008 
L 209.378874 232.32 
L 209.330277 229.632 
L 209.281601 226.944 
L 209.232847 224.256 
L 209.184015 221.568 
L 209.135105 218.88 
L 209.105455 217.253057 
L 209.086109 216.192 
L 209.037022 213.504 
L 208.987857 210.816 
L 208.938614 208.128 
L 208.889293 205.44 
L 208.839893 202.752 
L 208.790415 200.064 
L 208.740859 197.376 
L 208.691225 194.688 
L 208.641512 192 
L 208.591722 189.312 
L 208.541852 186.624 
L 208.491905 183.936 
L 208.441879 181.248 
L 208.391775 178.56 
L 208.341593 175.872 
L 208.291332 173.184 
L 208.240993 170.496 
L 208.190576 167.808 
L 208.14008 165.12 
L 208.089506 162.432 
L 208.038854 159.744 
L 207.988123 157.056 
L 207.937314 154.368 
L 207.886427 151.68 
L 207.835461 148.992 
L 207.784417 146.304 
L 207.733294 143.616 
L 207.682093 140.928 
L 207.630814 138.24 
L 207.579456 135.552 
L 207.52802 132.864 
L 207.476505 130.176 
L 207.424912 127.488 
L 207.37324 124.8 
L 207.32149 122.112 
L 207.269662 119.424 
L 207.217755 116.736 
L 207.165769 114.048 
L 207.113705 111.36 
L 207.061563 108.672 
L 207.009342 105.984 
L 206.957042 103.296 
L 206.904664 100.608 
L 206.852208 97.92 
L 206.799673 95.232 
L 206.747059 92.544 
L 206.694367 89.856 
L 206.641596 87.168 
L 206.588747 84.48 
L 206.535819 81.792 
L 206.482812 79.104 
L 206.429727 76.416 
L 206.376563 73.728 
L 206.323321 71.04 
L 206.27 68.352 
L 206.2166 65.664 
L 206.163122 62.976 
L 206.109565 60.288 
L 206.055929 57.6 
L 206.002214 54.912 
L 205.948421 52.224 
L 205.89455 49.536 
L 205.840599 46.848 
L 205.78657 44.16 
L 205.732462 41.472 
L 205.498182 41.472 
L 201.890909 41.472 
L 198.283636 41.472 
L 194.676364 41.472 
L 191.069091 41.472 
L 187.461818 41.472 
L 183.854545 41.472 
L 180.247273 41.472 
L 176.64 41.472 
L 173.032727 41.472 
L 169.425455 41.472 
L 165.818182 41.472 
L 162.210909 41.472 
L 158.603636 41.472 
L 154.996364 41.472 
L 151.389091 41.472 
L 149.544773 41.472 
L 149.601477 44.16 
L 149.658085 46.848 
L 149.714596 49.536 
L 149.77101 52.224 
L 149.827327 54.912 
L 149.883547 57.6 
L 149.93967 60.288 
L 149.995696 62.976 
L 150.051626 65.664 
L 150.107459 68.352 
L 150.163195 71.04 
L 150.218834 73.728 
L 150.274376 76.416 
L 150.329822 79.104 
L 150.385171 81.792 
L 150.440423 84.48 
L 150.495578 87.168 
L 150.550637 89.856 
L 150.605599 92.544 
L 150.660464 95.232 
L 150.715233 97.92 
L 150.769904 100.608 
L 150.824479 103.296 
L 150.878958 105.984 
L 150.933339 108.672 
L 150.987624 111.36 
L 151.041813 114.048 
L 151.095905 116.736 
L 151.1499 119.424 
L 151.203798 122.112 
L 151.2576 124.8 
L 151.311305 127.488 
L 151.364914 130.176 
L 151.389091 131.390441 
L 151.418389 132.864 
L 151.471739 135.552 
L 151.524991 138.24 
L 151.578147 140.928 
L 151.631207 143.616 
L 151.68417 146.304 
L 151.737037 148.992 
L 151.789807 151.68 
L 151.842481 154.368 
L 151.895059 157.056 
L 151.94754 159.744 
L 151.999925 162.432 
L 152.052213 165.12 
L 152.104405 167.808 
L 152.1565 170.496 
L 152.208499 173.184 
L 152.260402 175.872 
L 152.312208 178.56 
L 152.363918 181.248 
L 152.415532 183.936 
L 152.467049 186.624 
L 152.51847 189.312 
L 152.569795 192 
L 152.621023 194.688 
L 152.672155 197.376 
L 152.72319 200.064 
L 152.77413 202.752 
L 152.824973 205.44 
L 152.875719 208.128 
L 152.92637 210.816 
L 152.976924 213.504 
L 153.027382 216.192 
L 153.077743 218.88 
L 153.128009 221.568 
L 153.178178 224.256 
L 153.228251 226.944 
L 153.278227 229.632 
L 153.328108 232.32 
L 153.377892 235.008 
L 153.427579 237.696 
L 153.477171 240.384 
L 153.526667 243.072 
L 153.576066 245.76 
L 153.625369 248.448 
L 153.674575 251.136 
L 153.723686 253.824 
L 153.7727 256.512 
L 153.821619 259.2 
L 153.870441 261.888 
L 153.919166 264.576 
L 153.967796 267.264 
L 154.01633 269.952 
L 154.064767 272.64 
L 154.113108 275.328 
L 154.161353 278.016 
L 154.209502 280.704 
L 154.257555 283.392 
L 154.305511 286.08 
L 154.353372 288.768 
L 154.401136 291.456 
L 154.448804 294.144 
L 154.496376 296.832 
L 154.543852 299.52 
L 154.591231 302.208 
L 154.638515 304.896 
L 154.685703 307.584 
z
" clip-path="url(#p9a36c2d026)" style="fill: #2db27d; fill-opacity: 0.75"/>
   </g>
   <g id="PathCollection_6">
    <path d="M 100.887273 307.584 
L 104.494545 307.584 
L 108.101818 307.584 
L 111.709091 307.584 
L 115.316364 307.584 
L 118.923636 307.584 
L 122.530909 307.584 
L 126.138182 307.584 
L 129.745455 307.584 
L 133.352727 307.584 
L 136.96 307.584 
L 140.567273 307.584 
L 144.174545 307.584 
L 147.781818 307.584 
L 151.389091 307.584 
L 154.685703 307.584 
L 154.638515 304.896 
L 154.591231 302.208 
L 154.543852 299.52 
L 154.496376 296.832 
L 154.448804 294.144 
L 154.401136 291.456 
L 154.353372 288.768 
L 154.305511 286.08 
L 154.257555 283.392 
L 154.209502 280.704 
L 154.161353 278.016 
L 154.113108 275.328 
L 154.064767 272.64 
L 154.01633 269.952 
L 153.967796 267.264 
L 153.919166 264.576 
L 153.870441 261.888 
L 153.821619 259.2 
L 153.7727 256.512 
L 153.723686 253.824 
L 153.674575 251.136 
L 153.625369 248.448 
L 153.576066 245.76 
L 153.526667 243.072 
L 153.477171 240.384 
L 153.427579 237.696 
L 153.377892 235.008 
L 153.328108 232.32 
L 153.278227 229.632 
L 153.228251 226.944 
L 153.178178 224.256 
L 153.128009 221.568 
L 153.077743 218.88 
L 153.027382 216.192 
L 152.976924 213.504 
L 152.92637 210.816 
L 152.875719 208.128 
L 152.824973 205.44 
L 152.77413 202.752 
L 152.72319 200.064 
L 152.672155 197.376 
L 152.621023 194.688 
L 152.569795 192 
L 152.51847 189.312 
L 152.467049 186.624 
L 152.415532 183.936 
L 152.363918 181.248 
L 152.312208 178.56 
L 152.260402 175.872 
L 152.208499 173.184 
L 152.1565 170.496 
L 152.104405 167.808 
L 152.052213 165.12 
L 151.999925 162.432 
L 151.94754 159.744 
L 151.895059 157.056 
L 151.842481 154.368 
L 151.789807 151.68 
L 151.737037 148.992 
L 151.68417 146.304 
L 151.631207 143.616 
L 151.578147 140.928 
L 151.524991 138.24 
L 151.471739 135.552 
L 151.418389 132.864 
L 151.389091 131.390441 
L 151.364914 130.176 
L 151.311305 127.488 
L 151.2576 124.8 
L 151.203798 122.112 
L 151.1499 119.424 
L 151.095905 116.736 
L 151.041813 114.048 
L 150.987624 111.36 
L 150.933339 108.672 
L 150.878958 105.984 
L 150.824479 103.296 
L 150.769904 100.608 
L 150.715233 97.92 
L 150.660464 95.232 
L 150.605599 92.544 
L 150.550637 89.856 
L 150.495578 87.168 
L 150.440423 84.48 
L 150.385171 81.792 
L 150.329822 79.104 
L 150.274376 76.416 
L 150.218834 73.728 
L 150.163195 71.04 
L 150.107459 68.352 
L 150.051626 65.664 
L 149.995696 62.976 
L 149.93967 60.288 
L 149.883547 57.6 
L 149.827327 54.912 
L 149.77101 52.224 
L 149.714596 49.536 
L 149.658085 46.848 
L 149.601477 44.16 
L 149.544773 41.472 
L 147.781818 41.472 
L 144.174545 41.472 
L 140.567273 41.472 
L 136.96 41.472 
L 133.352727 41.472 
L 129.745455 41.472 
L 126.138182 41.472 
L 122.530909 41.472 
L 118.923636 41.472 
L 115.316364 41.472 
L 111.709091 41.472 
L 108.101818 41.472 
L 104.494545 41.472 
L 100.887273 41.472 
L 97.28 41.472 
L 93.672727 41.472 
L 92.22482 41.472 
L 92.284785 44.16 
L 92.344634 46.848 
L 92.404365 49.536 
L 92.463979 52.224 
L 92.523476 54.912 
L 92.582856 57.6 
L 92.642119 60.288 
L 92.701265 62.976 
L 92.760294 65.664 
L 92.819206 68.352 
L 92.878002 71.04 
L 92.93668 73.728 
L 92.995241 76.416 
L 93.053686 79.104 
L 93.112014 81.792 
L 93.170224 84.48 
L 93.228318 87.168 
L 93.286295 89.856 
L 93.344155 92.544 
L 93.401898 95.232 
L 93.459525 97.92 
L 93.517034 100.608 
L 93.574427 103.296 
L 93.631703 105.984 
L 93.672727 107.91321 
L 93.688828 108.672 
L 93.74575 111.36 
L 93.802555 114.048 
L 93.859244 116.736 
L 93.915816 119.424 
L 93.972272 122.112 
L 94.028611 124.8 
L 94.084834 127.488 
L 94.14094 130.176 
L 94.196929 132.864 
L 94.252802 135.552 
L 94.308559 138.24 
L 94.364199 140.928 
L 94.419723 143.616 
L 94.47513 146.304 
L 94.530421 148.992 
L 94.585595 151.68 
L 94.640653 154.368 
L 94.695594 157.056 
L 94.750419 159.744 
L 94.805127 162.432 
L 94.85972 165.12 
L 94.914195 167.808 
L 94.968555 170.496 
L 95.022797 173.184 
L 95.076924 175.872 
L 95.130934 178.56 
L 95.184828 181.248 
L 95.238605 183.936 
L 95.292266 186.624 
L 95.345811 189.312 
L 95.399239 192 
L 95.452552 194.688 
L 95.505747 197.376 
L 95.558827 200.064 
L 95.61179 202.752 
L 95.664636 205.44 
L 95.717367 208.128 
L 95.769981 210.816 
L 95.822479 213.504 
L 95.87486 216.192 
L 95.927125 218.88 
L 95.979274 221.568 
L 96.031307 224.256 
L 96.083223 226.944 
L 96.135023 229.632 
L 96.186707 232.32 
L 96.238275 235.008 
L 96.289726 237.696 
L 96.341061 240.384 
L 96.39228 243.072 
L 96.443383 245.76 
L 96.494369 248.448 
L 96.545239 251.136 
L 96.595993 253.824 
L 96.646631 256.512 
L 96.697152 259.2 
L 96.747558 261.888 
L 96.797847 264.576 
L 96.848019 267.264 
L 96.898076 269.952 
L 96.948016 272.64 
L 96.997841 275.328 
L 97.047549 278.016 
L 97.09714 280.704 
L 97.146616 283.392 
L 97.195975 286.08 
L 97.245219 288.768 
L 97.28 290.671066 
L 97.294316 291.456 
L 97.343225 294.144 
L 97.392019 296.832 
L 97.440696 299.52 
L 97.489257 302.208 
L 97.537703 304.896 
L 97.586032 307.584 
z
" clip-path="url(#p9a36c2d026)" style="fill: #73d056; fill-opacity: 0.75"/>
   </g>
   <g id="PathCollection_7">
    <path d="M 61.207273 307.584 
L 64.814545 307.584 
L 68.421818 307.584 
L 72.029091 307.584 
L 75.636364 307.584 
L 79.243636 307.584 
L 82.850909 307.584 
L 86.458182 307.584 
L 90.065455 307.584 
L 93.672727 307.584 
L 97.28 307.584 
L 97.586032 307.584 
L 97.537703 304.896 
L 97.489257 302.208 
L 97.440696 299.52 
L 97.392019 296.832 
L 97.343225 294.144 
L 97.294316 291.456 
L 97.28 290.671066 
L 97.245219 288.768 
L 97.195975 286.08 
L 97.146616 283.392 
L 97.09714 280.704 
L 97.047549 278.016 
L 96.997841 275.328 
L 96.948016 272.64 
L 96.898076 269.952 
L 96.848019 267.264 
L 96.797847 264.576 
L 96.747558 261.888 
L 96.697152 259.2 
L 96.646631 256.512 
L 96.595993 253.824 
L 96.545239 251.136 
L 96.494369 248.448 
L 96.443383 245.76 
L 96.39228 243.072 
L 96.341061 240.384 
L 96.289726 237.696 
L 96.238275 235.008 
L 96.186707 232.32 
L 96.135023 229.632 
L 96.083223 226.944 
L 96.031307 224.256 
L 95.979274 221.568 
L 95.927125 218.88 
L 95.87486 216.192 
L 95.822479 213.504 
L 95.769981 210.816 
L 95.717367 208.128 
L 95.664636 205.44 
L 95.61179 202.752 
L 95.558827 200.064 
L 95.505747 197.376 
L 95.452552 194.688 
L 95.399239 192 
L 95.345811 189.312 
L 95.292266 186.624 
L 95.238605 183.936 
L 95.184828 181.248 
L 95.130934 178.56 
L 95.076924 175.872 
L 95.022797 173.184 
L 94.968555 170.496 
L 94.914195 167.808 
L 94.85972 165.12 
L 94.805127 162.432 
L 94.750419 159.744 
L 94.695594 157.056 
L 94.640653 154.368 
L 94.585595 151.68 
L 94.530421 148.992 
L 94.47513 146.304 
L 94.419723 143.616 
L 94.364199 140.928 
L 94.308559 138.24 
L 94.252802 135.552 
L 94.196929 132.864 
L 94.14094 130.176 
L 94.084834 127.488 
L 94.028611 124.8 
L 93.972272 122.112 
L 93.915816 119.424 
L 93.859244 116.736 
L 93.802555 114.048 
L 93.74575 111.36 
L 93.688828 108.672 
L 93.672727 107.91321 
L 93.631703 105.984 
L 93.574427 103.296 
L 93.517034 100.608 
L 93.459525 97.92 
L 93.401898 95.232 
L 93.344155 92.544 
L 93.286295 89.856 
L 93.228318 87.168 
L 93.170224 84.48 
L 93.112014 81.792 
L 93.053686 79.104 
L 92.995241 76.416 
L 92.93668 73.728 
L 92.878002 71.04 
L 92.819206 68.352 
L 92.760294 65.664 
L 92.701265 62.976 
L 92.642119 60.288 
L 92.582856 57.6 
L 92.523476 54.912 
L 92.463979 52.224 
L 92.404365 49.536 
L 92.344634 46.848 
L 92.284785 44.16 
L 92.22482 41.472 
L 90.065455 41.472 
L 86.458182 41.472 
L 82.850909 41.472 
L 79.243636 41.472 
L 75.636364 41.472 
L 72.029091 41.472 
L 68.421818 41.472 
L 64.814545 41.472 
L 61.207273 41.472 
L 57.6 41.472 
L 57.6 44.16 
L 57.6 46.848 
L 57.6 49.536 
L 57.6 52.224 
L 57.6 54.912 
L 57.6 57.6 
L 57.6 60.288 
L 57.6 62.976 
L 57.6 65.664 
L 57.6 68.352 
L 57.6 71.04 
L 57.6 73.728 
L 57.6 76.416 
L 57.6 79.104 
L 57.6 81.792 
L 57.6 84.48 
L 57.6 87.168 
L 57.6 89.856 
L 57.6 92.544 
L 57.6 95.232 
L 57.6 97.92 
L 57.6 100.608 
L 57.6 103.296 
L 57.6 105.984 
L 57.6 108.672 
L 57.6 111.36 
L 57.6 114.048 
L 57.6 116.736 
L 57.6 119.424 
L 57.6 122.112 
L 57.6 124.8 
L 57.6 127.488 
L 57.6 130.176 
L 57.6 132.864 
L 57.6 135.552 
L 57.6 138.24 
L 57.6 140.928 
L 57.6 143.616 
L 57.6 146.304 
L 57.6 148.992 
L 57.6 151.68 
L 57.6 154.368 
L 57.6 157.056 
L 57.6 159.744 
L 57.6 162.432 
L 57.6 165.12 
L 57.6 167.808 
L 57.6 170.496 
L 57.6 173.184 
L 57.6 175.872 
L 57.6 178.56 
L 57.6 181.248 
L 57.6 183.936 
L 57.6 186.624 
L 57.6 189.312 
L 57.6 192 
L 57.6 194.688 
L 57.6 197.376 
L 57.6 200.064 
L 57.6 202.752 
L 57.6 205.44 
L 57.6 208.128 
L 57.6 210.816 
L 57.6 213.504 
L 57.6 216.192 
L 57.6 218.88 
L 57.6 221.568 
L 57.6 224.256 
L 57.6 226.944 
L 57.6 229.632 
L 57.6 232.32 
L 57.6 235.008 
L 57.6 237.696 
L 57.6 240.384 
L 57.6 243.072 
L 57.6 245.76 
L 57.6 248.448 
L 57.6 251.136 
L 57.6 253.824 
L 57.6 256.512 
L 57.6 259.2 
L 57.6 261.888 
L 57.6 264.576 
L 57.6 267.264 
L 57.6 269.952 
L 57.6 272.64 
L 57.6 275.328 
L 57.6 278.016 
L 57.6 280.704 
L 57.6 283.392 
L 57.6 286.08 
L 57.6 288.768 
L 57.6 291.456 
L 57.6 294.144 
L 57.6 296.832 
L 57.6 299.52 
L 57.6 302.208 
L 57.6 304.896 
L 57.6 307.584 
z
" clip-path="url(#p9a36c2d026)" style="fill: #d0e11c; fill-opacity: 0.75"/>
   </g>
   <g id="matplotlib.axis_1">
    <g id="xtick_1">
     <g id="line2d_1">
      <defs>
       <path id="meaf44f6860" d="M 0 0 
L 0 3.5 
" style="stroke: #000000; stroke-width: 0.8"/>
      </defs>
      <g>
       <use xlink:href="#meaf44f6860" x="80.828777" y="307.584" style="stroke: #000000; stroke-width: 0.8"/>
      </g>
     </g>
     <g id="text_1">
      <!-- 10 -->
      <g transform="translate(74.466277 322.182437) scale(0.1 -0.1)">
       <defs>
        <path id="DejaVuSans-31" d="M 794 531 
L 1825 531 
L 1825 4091 
L 703 3866 
L 703 4441 
L 1819 4666 
L 2450 4666 
L 2450 531 
L 3481 531 
L 3481 0 
L 794 0 
L 794 531 
z
" transform="scale(0.015625)"/>
        <path id="DejaVuSans-30" d="M 2034 4250 
Q 1547 4250 1301 3770 
Q 1056 3291 1056 2328 
Q 1056 1369 1301 889 
Q 1547 409 2034 409 
Q 2525 409 2770 889 
Q 3016 1369 3016 2328 
Q 3016 3291 2770 3770 
Q 2525 4250 2034 4250 
z
M 2034 4750 
Q 2819 4750 3233 4129 
Q 3647 3509 3647 2328 
Q 3647 1150 3233 529 
Q 2819 -91 2034 -91 
Q 1250 -91 836 529 
Q 422 1150 422 2328 
Q 422 3509 836 4129 
Q 1250 4750 2034 4750 
z
" transform="scale(0.015625)"/>
       </defs>
       <use xlink:href="#DejaVuSans-31"/>
       <use xlink:href="#DejaVuSans-30" x="63.623047"/>
      </g>
     </g>
    </g>
    <g id="xtick_2">
     <g id="line2d_2">
      <g>
       <use xlink:href="#meaf44f6860" x="122.391862" y="307.584" style="stroke: #000000; stroke-width: 0.8"/>
      </g>
     </g>
     <g id="text_2">
      <!-- 15 -->
      <g transform="translate(116.029362 322.182437) scale(0.1 -0.1)">
       <defs>
        <path id="DejaVuSans-35" d="M 691 4666 
L 3169 4666 
L 3169 4134 
L 1269 4134 
L 1269 2991 
Q 1406 3038 1543 3061 
Q 1681 3084 1819 3084 
Q 2600 3084 3056 2656 
Q 3513 2228 3513 1497 
Q 3513 744 3044 326 
Q 2575 -91 1722 -91 
Q 1428 -91 1123 -41 
Q 819 9 494 109 
L 494 744 
Q 775 591 1075 516 
Q 1375 441 1709 441 
Q 2250 441 2565 725 
Q 2881 1009 2881 1497 
Q 2881 1984 2565 2268 
Q 2250 2553 1709 2553 
Q 1456 2553 1204 2497 
Q 953 2441 691 2322 
L 691 4666 
z
" transform="scale(0.015625)"/>
       </defs>
       <use xlink:href="#DejaVuSans-31"/>
       <use xlink:href="#DejaVuSans-35" x="63.623047"/>
      </g>
     </g>
    </g>
    <g id="xtick_3">
     <g id="line2d_3">
      <g>
       <use xlink:href="#meaf44f6860" x="163.954947" y="307.584" style="stroke: #000000; stroke-width: 0.8"/>
      </g>
     </g>
     <g id="text_3">
      <!-- 20 -->
      <g transform="translate(157.592447 322.182437) scale(0.1 -0.1)">
       <defs>
        <path id="DejaVuSans-32" d="M 1228 531 
L 3431 531 
L 3431 0 
L 469 0 
L 469 531 
Q 828 903 1448 1529 
Q 2069 2156 2228 2338 
Q 2531 2678 2651 2914 
Q 2772 3150 2772 3378 
Q 2772 3750 2511 3984 
Q 2250 4219 1831 4219 
Q 1534 4219 1204 4116 
Q 875 4013 500 3803 
L 500 4441 
Q 881 4594 1212 4672 
Q 1544 4750 1819 4750 
Q 2544 4750 2975 4387 
Q 3406 4025 3406 3419 
Q 3406 3131 3298 2873 
Q 3191 2616 2906 2266 
Q 2828 2175 2409 1742 
Q 1991 1309 1228 531 
z
" transform="scale(0.015625)"/>
       </defs>
       <use xlink:href="#DejaVuSans-32"/>
       <use xlink:href="#DejaVuSans-30" x="63.623047"/>
      </g>
     </g>
    </g>
    <g id="xtick_4">
     <g id="line2d_4">
      <g>
       <use xlink:href="#meaf44f6860" x="205.518031" y="307.584" style="stroke: #000000; stroke-width: 0.8"/>
      </g>
     </g>
     <g id="text_4">
      <!-- 25 -->
      <g transform="translate(199.155531 322.182437) scale(0.1 -0.1)">
       <use xlink:href="#DejaVuSans-32"/>
       <use xlink:href="#DejaVuSans-35" x="63.623047"/>
      </g>
     </g>
    </g>
    <g id="xtick_5">
     <g id="line2d_5">
      <g>
       <use xlink:href="#meaf44f6860" x="247.081116" y="307.584" style="stroke: #000000; stroke-width: 0.8"/>
      </g>
     </g>
     <g id="text_5">
      <!-- 30 -->
      <g transform="translate(240.718616 322.182437) scale(0.1 -0.1)">
       <defs>
        <path id="DejaVuSans-33" d="M 2597 2516 
Q 3050 2419 3304 2112 
Q 3559 1806 3559 1356 
Q 3559 666 3084 287 
Q 2609 -91 1734 -91 
Q 1441 -91 1130 -33 
Q 819 25 488 141 
L 488 750 
Q 750 597 1062 519 
Q 1375 441 1716 441 
Q 2309 441 2620 675 
Q 2931 909 2931 1356 
Q 2931 1769 2642 2001 
Q 2353 2234 1838 2234 
L 1294 2234 
L 1294 2753 
L 1863 2753 
Q 2328 2753 2575 2939 
Q 2822 3125 2822 3475 
Q 2822 3834 2567 4026 
Q 2313 4219 1838 4219 
Q 1578 4219 1281 4162 
Q 984 4106 628 3988 
L 628 4550 
Q 988 4650 1302 4700 
Q 1616 4750 1894 4750 
Q 2613 4750 3031 4423 
Q 3450 4097 3450 3541 
Q 3450 3153 3228 2886 
Q 3006 2619 2597 2516 
z
" transform="scale(0.015625)"/>
       </defs>
       <use xlink:href="#DejaVuSans-33"/>
       <use xlink:href="#DejaVuSans-30" x="63.623047"/>
      </g>
     </g>
    </g>
    <g id="xtick_6">
     <g id="line2d_6">
      <g>
       <use xlink:href="#meaf44f6860" x="288.644201" y="307.584" style="stroke: #000000; stroke-width: 0.8"/>
      </g>
     </g>
     <g id="text_6">
      <!-- 35 -->
      <g transform="translate(282.281701 322.182437) scale(0.1 -0.1)">
       <use xlink:href="#DejaVuSans-33"/>
       <use xlink:href="#DejaVuSans-35" x="63.623047"/>
      </g>
     </g>
    </g>
    <g id="xtick_7">
     <g id="line2d_7">
      <g>
       <use xlink:href="#meaf44f6860" x="330.207286" y="307.584" style="stroke: #000000; stroke-width: 0.8"/>
      </g>
     </g>
     <g id="text_7">
      <!-- 40 -->
      <g transform="translate(323.844786 322.182437) scale(0.1 -0.1)">
       <defs>
        <path id="DejaVuSans-34" d="M 2419 4116 
L 825 1625 
L 2419 1625 
L 2419 4116 
z
M 2253 4666 
L 3047 4666 
L 3047 1625 
L 3713 1625 
L 3713 1100 
L 3047 1100 
L 3047 0 
L 2419 0 
L 2419 1100 
L 313 1100 
L 313 1709 
L 2253 4666 
z
" transform="scale(0.015625)"/>
       </defs>
       <use xlink:href="#DejaVuSans-34"/>
       <use xlink:href="#DejaVuSans-30" x="63.623047"/>
      </g>
     </g>
    </g>
    <g id="xtick_8">
     <g id="line2d_8">
      <g>
       <use xlink:href="#meaf44f6860" x="371.770371" y="307.584" style="stroke: #000000; stroke-width: 0.8"/>
      </g>
     </g>
     <g id="text_8">
      <!-- 45 -->
      <g transform="translate(365.407871 322.182437) scale(0.1 -0.1)">
       <use xlink:href="#DejaVuSans-34"/>
       <use xlink:href="#DejaVuSans-35" x="63.623047"/>
      </g>
     </g>
    </g>
    <g id="xtick_9">
     <g id="line2d_9">
      <g>
       <use xlink:href="#meaf44f6860" x="413.333455" y="307.584" style="stroke: #000000; stroke-width: 0.8"/>
      </g>
     </g>
     <g id="text_9">
      <!-- 50 -->
      <g transform="translate(406.970955 322.182437) scale(0.1 -0.1)">
       <use xlink:href="#DejaVuSans-35"/>
       <use xlink:href="#DejaVuSans-30" x="63.623047"/>
      </g>
     </g>
    </g>
    <g id="text_10">
     <!-- PM2.5 -->
     <g transform="translate(220.879531 335.860562) scale(0.1 -0.1)">
      <defs>
       <path id="DejaVuSans-50" d="M 1259 4147 
L 1259 2394 
L 2053 2394 
Q 2494 2394 2734 2622 
Q 2975 2850 2975 3272 
Q 2975 3691 2734 3919 
Q 2494 4147 2053 4147 
L 1259 4147 
z
M 628 4666 
L 2053 4666 
Q 2838 4666 3239 4311 
Q 3641 3956 3641 3272 
Q 3641 2581 3239 2228 
Q 2838 1875 2053 1875 
L 1259 1875 
L 1259 0 
L 628 0 
L 628 4666 
z
" transform="scale(0.015625)"/>
       <path id="DejaVuSans-4d" d="M 628 4666 
L 1569 4666 
L 2759 1491 
L 3956 4666 
L 4897 4666 
L 4897 0 
L 4281 0 
L 4281 4097 
L 3078 897 
L 2444 897 
L 1241 4097 
L 1241 0 
L 628 0 
L 628 4666 
z
" transform="scale(0.015625)"/>
       <path id="DejaVuSans-2e" d="M 684 794 
L 1344 794 
L 1344 0 
L 684 0 
L 684 794 
z
" transform="scale(0.015625)"/>
      </defs>
      <use xlink:href="#DejaVuSans-50"/>
      <use xlink:href="#DejaVuSans-4d" x="60.302734"/>
      <use xlink:href="#DejaVuSans-32" x="146.582031"/>
      <use xlink:href="#DejaVuSans-2e" x="210.205078"/>
      <use xlink:href="#DejaVuSans-35" x="241.992188"/>
     </g>
    </g>
   </g>
   <g id="matplotlib.axis_2">
    <g id="ytick_1">
     <g id="line2d_10">
      <defs>
       <path id="m6021d9e904" d="M 0 0 
L -3.5 0 
" style="stroke: #000000; stroke-width: 0.8"/>
      </defs>
      <g>
       <use xlink:href="#m6021d9e904" x="57.6" y="307.584" style="stroke: #000000; stroke-width: 0.8"/>
      </g>
     </g>
     <g id="text_11">
      <!-- 0 -->
      <g transform="translate(44.2375 311.383219) scale(0.1 -0.1)">
       <use xlink:href="#DejaVuSans-30"/>
      </g>
     </g>
    </g>
    <g id="ytick_2">
     <g id="line2d_11">
      <g>
       <use xlink:href="#m6021d9e904" x="57.6" y="261.002523" style="stroke: #000000; stroke-width: 0.8"/>
      </g>
     </g>
     <g id="text_12">
      <!-- 1 -->
      <g transform="translate(44.2375 264.801742) scale(0.1 -0.1)">
       <use xlink:href="#DejaVuSans-31"/>
      </g>
     </g>
    </g>
    <g id="ytick_3">
     <g id="line2d_12">
      <g>
       <use xlink:href="#m6021d9e904" x="57.6" y="214.421047" style="stroke: #000000; stroke-width: 0.8"/>
      </g>
     </g>
     <g id="text_13">
      <!-- 2 -->
      <g transform="translate(44.2375 218.220265) scale(0.1 -0.1)">
       <use xlink:href="#DejaVuSans-32"/>
      </g>
     </g>
    </g>
    <g id="ytick_4">
     <g id="line2d_13">
      <g>
       <use xlink:href="#m6021d9e904" x="57.6" y="167.83957" style="stroke: #000000; stroke-width: 0.8"/>
      </g>
     </g>
     <g id="text_14">
      <!-- 3 -->
      <g transform="translate(44.2375 171.638789) scale(0.1 -0.1)">
       <use xlink:href="#DejaVuSans-33"/>
      </g>
     </g>
    </g>
    <g id="ytick_5">
     <g id="line2d_14">
      <g>
       <use xlink:href="#m6021d9e904" x="57.6" y="121.258093" style="stroke: #000000; stroke-width: 0.8"/>
      </g>
     </g>
     <g id="text_15">
      <!-- 4 -->
      <g transform="translate(44.2375 125.057312) scale(0.1 -0.1)">
       <use xlink:href="#DejaVuSans-34"/>
      </g>
     </g>
    </g>
    <g id="ytick_6">
     <g id="line2d_15">
      <g>
       <use xlink:href="#m6021d9e904" x="57.6" y="74.676617" style="stroke: #000000; stroke-width: 0.8"/>
      </g>
     </g>
     <g id="text_16">
      <!-- 5 -->
      <g transform="translate(44.2375 78.475836) scale(0.1 -0.1)">
       <use xlink:href="#DejaVuSans-35"/>
      </g>
     </g>
    </g>
    <g id="text_17">
     <!-- Other Meat Consumption -->
     <g transform="translate(38.157812 237.432687) rotate(-90) scale(0.1 -0.1)">
      <defs>
       <path id="DejaVuSans-4f" d="M 2522 4238 
Q 1834 4238 1429 3725 
Q 1025 3213 1025 2328 
Q 1025 1447 1429 934 
Q 1834 422 2522 422 
Q 3209 422 3611 934 
Q 4013 1447 4013 2328 
Q 4013 3213 3611 3725 
Q 3209 4238 2522 4238 
z
M 2522 4750 
Q 3503 4750 4090 4092 
Q 4678 3434 4678 2328 
Q 4678 1225 4090 567 
Q 3503 -91 2522 -91 
Q 1538 -91 948 565 
Q 359 1222 359 2328 
Q 359 3434 948 4092 
Q 1538 4750 2522 4750 
z
" transform="scale(0.015625)"/>
       <path id="DejaVuSans-74" d="M 1172 4494 
L 1172 3500 
L 2356 3500 
L 2356 3053 
L 1172 3053 
L 1172 1153 
Q 1172 725 1289 603 
Q 1406 481 1766 481 
L 2356 481 
L 2356 0 
L 1766 0 
Q 1100 0 847 248 
Q 594 497 594 1153 
L 594 3053 
L 172 3053 
L 172 3500 
L 594 3500 
L 594 4494 
L 1172 4494 
z
" transform="scale(0.015625)"/>
       <path id="DejaVuSans-68" d="M 3513 2113 
L 3513 0 
L 2938 0 
L 2938 2094 
Q 2938 2591 2744 2837 
Q 2550 3084 2163 3084 
Q 1697 3084 1428 2787 
Q 1159 2491 1159 1978 
L 1159 0 
L 581 0 
L 581 4863 
L 1159 4863 
L 1159 2956 
Q 1366 3272 1645 3428 
Q 1925 3584 2291 3584 
Q 2894 3584 3203 3211 
Q 3513 2838 3513 2113 
z
" transform="scale(0.015625)"/>
       <path id="DejaVuSans-65" d="M 3597 1894 
L 3597 1613 
L 953 1613 
Q 991 1019 1311 708 
Q 1631 397 2203 397 
Q 2534 397 2845 478 
Q 3156 559 3463 722 
L 3463 178 
Q 3153 47 2828 -22 
Q 2503 -91 2169 -91 
Q 1331 -91 842 396 
Q 353 884 353 1716 
Q 353 2575 817 3079 
Q 1281 3584 2069 3584 
Q 2775 3584 3186 3129 
Q 3597 2675 3597 1894 
z
M 3022 2063 
Q 3016 2534 2758 2815 
Q 2500 3097 2075 3097 
Q 1594 3097 1305 2825 
Q 1016 2553 972 2059 
L 3022 2063 
z
" transform="scale(0.015625)"/>
       <path id="DejaVuSans-72" d="M 2631 2963 
Q 2534 3019 2420 3045 
Q 2306 3072 2169 3072 
Q 1681 3072 1420 2755 
Q 1159 2438 1159 1844 
L 1159 0 
L 581 0 
L 581 3500 
L 1159 3500 
L 1159 2956 
Q 1341 3275 1631 3429 
Q 1922 3584 2338 3584 
Q 2397 3584 2469 3576 
Q 2541 3569 2628 3553 
L 2631 2963 
z
" transform="scale(0.015625)"/>
       <path id="DejaVuSans-20" transform="scale(0.015625)"/>
       <path id="DejaVuSans-61" d="M 2194 1759 
Q 1497 1759 1228 1600 
Q 959 1441 959 1056 
Q 959 750 1161 570 
Q 1363 391 1709 391 
Q 2188 391 2477 730 
Q 2766 1069 2766 1631 
L 2766 1759 
L 2194 1759 
z
M 3341 1997 
L 3341 0 
L 2766 0 
L 2766 531 
Q 2569 213 2275 61 
Q 1981 -91 1556 -91 
Q 1019 -91 701 211 
Q 384 513 384 1019 
Q 384 1609 779 1909 
Q 1175 2209 1959 2209 
L 2766 2209 
L 2766 2266 
Q 2766 2663 2505 2880 
Q 2244 3097 1772 3097 
Q 1472 3097 1187 3025 
Q 903 2953 641 2809 
L 641 3341 
Q 956 3463 1253 3523 
Q 1550 3584 1831 3584 
Q 2591 3584 2966 3190 
Q 3341 2797 3341 1997 
z
" transform="scale(0.015625)"/>
       <path id="DejaVuSans-43" d="M 4122 4306 
L 4122 3641 
Q 3803 3938 3442 4084 
Q 3081 4231 2675 4231 
Q 1875 4231 1450 3742 
Q 1025 3253 1025 2328 
Q 1025 1406 1450 917 
Q 1875 428 2675 428 
Q 3081 428 3442 575 
Q 3803 722 4122 1019 
L 4122 359 
Q 3791 134 3420 21 
Q 3050 -91 2638 -91 
Q 1578 -91 968 557 
Q 359 1206 359 2328 
Q 359 3453 968 4101 
Q 1578 4750 2638 4750 
Q 3056 4750 3426 4639 
Q 3797 4528 4122 4306 
z
" transform="scale(0.015625)"/>
       <path id="DejaVuSans-6f" d="M 1959 3097 
Q 1497 3097 1228 2736 
Q 959 2375 959 1747 
Q 959 1119 1226 758 
Q 1494 397 1959 397 
Q 2419 397 2687 759 
Q 2956 1122 2956 1747 
Q 2956 2369 2687 2733 
Q 2419 3097 1959 3097 
z
M 1959 3584 
Q 2709 3584 3137 3096 
Q 3566 2609 3566 1747 
Q 3566 888 3137 398 
Q 2709 -91 1959 -91 
Q 1206 -91 779 398 
Q 353 888 353 1747 
Q 353 2609 779 3096 
Q 1206 3584 1959 3584 
z
" transform="scale(0.015625)"/>
       <path id="DejaVuSans-6e" d="M 3513 2113 
L 3513 0 
L 2938 0 
L 2938 2094 
Q 2938 2591 2744 2837 
Q 2550 3084 2163 3084 
Q 1697 3084 1428 2787 
Q 1159 2491 1159 1978 
L 1159 0 
L 581 0 
L 581 3500 
L 1159 3500 
L 1159 2956 
Q 1366 3272 1645 3428 
Q 1925 3584 2291 3584 
Q 2894 3584 3203 3211 
Q 3513 2838 3513 2113 
z
" transform="scale(0.015625)"/>
       <path id="DejaVuSans-73" d="M 2834 3397 
L 2834 2853 
Q 2591 2978 2328 3040 
Q 2066 3103 1784 3103 
Q 1356 3103 1142 2972 
Q 928 2841 928 2578 
Q 928 2378 1081 2264 
Q 1234 2150 1697 2047 
L 1894 2003 
Q 2506 1872 2764 1633 
Q 3022 1394 3022 966 
Q 3022 478 2636 193 
Q 2250 -91 1575 -91 
Q 1294 -91 989 -36 
Q 684 19 347 128 
L 347 722 
Q 666 556 975 473 
Q 1284 391 1588 391 
Q 1994 391 2212 530 
Q 2431 669 2431 922 
Q 2431 1156 2273 1281 
Q 2116 1406 1581 1522 
L 1381 1569 
Q 847 1681 609 1914 
Q 372 2147 372 2553 
Q 372 3047 722 3315 
Q 1072 3584 1716 3584 
Q 2034 3584 2315 3537 
Q 2597 3491 2834 3397 
z
" transform="scale(0.015625)"/>
       <path id="DejaVuSans-75" d="M 544 1381 
L 544 3500 
L 1119 3500 
L 1119 1403 
Q 1119 906 1312 657 
Q 1506 409 1894 409 
Q 2359 409 2629 706 
Q 2900 1003 2900 1516 
L 2900 3500 
L 3475 3500 
L 3475 0 
L 2900 0 
L 2900 538 
Q 2691 219 2414 64 
Q 2138 -91 1772 -91 
Q 1169 -91 856 284 
Q 544 659 544 1381 
z
M 1991 3584 
L 1991 3584 
z
" transform="scale(0.015625)"/>
       <path id="DejaVuSans-6d" d="M 3328 2828 
Q 3544 3216 3844 3400 
Q 4144 3584 4550 3584 
Q 5097 3584 5394 3201 
Q 5691 2819 5691 2113 
L 5691 0 
L 5113 0 
L 5113 2094 
Q 5113 2597 4934 2840 
Q 4756 3084 4391 3084 
Q 3944 3084 3684 2787 
Q 3425 2491 3425 1978 
L 3425 0 
L 2847 0 
L 2847 2094 
Q 2847 2600 2669 2842 
Q 2491 3084 2119 3084 
Q 1678 3084 1418 2786 
Q 1159 2488 1159 1978 
L 1159 0 
L 581 0 
L 581 3500 
L 1159 3500 
L 1159 2956 
Q 1356 3278 1631 3431 
Q 1906 3584 2284 3584 
Q 2666 3584 2933 3390 
Q 3200 3197 3328 2828 
z
" transform="scale(0.015625)"/>
       <path id="DejaVuSans-70" d="M 1159 525 
L 1159 -1331 
L 581 -1331 
L 581 3500 
L 1159 3500 
L 1159 2969 
Q 1341 3281 1617 3432 
Q 1894 3584 2278 3584 
Q 2916 3584 3314 3078 
Q 3713 2572 3713 1747 
Q 3713 922 3314 415 
Q 2916 -91 2278 -91 
Q 1894 -91 1617 61 
Q 1341 213 1159 525 
z
M 3116 1747 
Q 3116 2381 2855 2742 
Q 2594 3103 2138 3103 
Q 1681 3103 1420 2742 
Q 1159 2381 1159 1747 
Q 1159 1113 1420 752 
Q 1681 391 2138 391 
Q 2594 391 2855 752 
Q 3116 1113 3116 1747 
z
" transform="scale(0.015625)"/>
       <path id="DejaVuSans-69" d="M 603 3500 
L 1178 3500 
L 1178 0 
L 603 0 
L 603 3500 
z
M 603 4863 
L 1178 4863 
L 1178 4134 
L 603 4134 
L 603 4863 
z
" transform="scale(0.015625)"/>
      </defs>
      <use xlink:href="#DejaVuSans-4f"/>
      <use xlink:href="#DejaVuSans-74" x="78.710938"/>
      <use xlink:href="#DejaVuSans-68" x="117.919922"/>
      <use xlink:href="#DejaVuSans-65" x="181.298828"/>
      <use xlink:href="#DejaVuSans-72" x="242.822266"/>
      <use xlink:href="#DejaVuSans-20" x="283.935547"/>
      <use xlink:href="#DejaVuSans-4d" x="315.722656"/>
      <use xlink:href="#DejaVuSans-65" x="402.001953"/>
      <use xlink:href="#DejaVuSans-61" x="463.525391"/>
      <use xlink:href="#DejaVuSans-74" x="524.804688"/>
      <use xlink:href="#DejaVuSans-20" x="564.013672"/>
      <use xlink:href="#DejaVuSans-43" x="595.800781"/>
      <use xlink:href="#DejaVuSans-6f" x="665.625"/>
      <use xlink:href="#DejaVuSans-6e" x="726.806641"/>
      <use xlink:href="#DejaVuSans-73" x="790.185547"/>
      <use xlink:href="#DejaVuSans-75" x="842.285156"/>
      <use xlink:href="#DejaVuSans-6d" x="905.664062"/>
      <use xlink:href="#DejaVuSans-70" x="1003.076172"/>
      <use xlink:href="#DejaVuSans-74" x="1066.552734"/>
      <use xlink:href="#DejaVuSans-69" x="1105.761719"/>
      <use xlink:href="#DejaVuSans-6f" x="1133.544922"/>
      <use xlink:href="#DejaVuSans-6e" x="1194.726562"/>
     </g>
    </g>
   </g>
   <g id="PathCollection_8"/>
   <g id="PathCollection_9">
    <path d="M 379.49968 307.584 
L 379.453197 304.896 
L 379.406685 302.208 
L 379.360146 299.52 
L 379.313578 296.832 
L 379.266982 294.144 
L 379.220358 291.456 
L 379.173706 288.768 
L 379.127026 286.08 
L 379.080317 283.392 
L 379.056493 282.021762 
" clip-path="url(#p9a36c2d026)" style="fill: none; stroke: #000000; stroke-width: 0.5"/>
    <path d="M 378.541809 252.506249 
L 378.517874 251.136 
L 378.470893 248.448 
L 378.423883 245.76 
L 378.376846 243.072 
L 378.32978 240.384 
L 378.282686 237.696 
L 378.235564 235.008 
L 378.188414 232.32 
L 378.141235 229.632 
L 378.094029 226.944 
L 378.046794 224.256 
L 377.99953 221.568 
L 377.952239 218.88 
L 377.90492 216.192 
L 377.857572 213.504 
L 377.810196 210.816 
L 377.762791 208.128 
L 377.715359 205.44 
L 377.667898 202.752 
L 377.620409 200.064 
L 377.572892 197.376 
L 377.525346 194.688 
L 377.477772 192 
L 377.43017 189.312 
L 377.382539 186.624 
L 377.334881 183.936 
L 377.287194 181.248 
L 377.239478 178.56 
L 377.191735 175.872 
L 377.143963 173.184 
L 377.096162 170.496 
L 377.048334 167.808 
L 377.000477 165.12 
L 376.952592 162.432 
L 376.904678 159.744 
L 376.856736 157.056 
L 376.808766 154.368 
L 376.760767 151.68 
L 376.71274 148.992 
L 376.664685 146.304 
L 376.616601 143.616 
L 376.568489 140.928 
L 376.520348 138.24 
L 376.472179 135.552 
L 376.423982 132.864 
L 376.375756 130.176 
L 376.327502 127.488 
L 376.279219 124.8 
L 376.230908 122.112 
L 376.182569 119.424 
L 376.134201 116.736 
L 376.085805 114.048 
L 376.03738 111.36 
L 375.988927 108.672 
L 375.940445 105.984 
L 375.891935 103.296 
L 375.843397 100.608 
L 375.79483 97.92 
L 375.746234 95.232 
L 375.69761 92.544 
L 375.648958 89.856 
L 375.600277 87.168 
L 375.551568 84.48 
L 375.50283 81.792 
L 375.454063 79.104 
L 375.405268 76.416 
L 375.356445 73.728 
L 375.307593 71.04 
L 375.258712 68.352 
L 375.209803 65.664 
L 375.160865 62.976 
L 375.111899 60.288 
L 375.062904 57.6 
L 375.04 56.344111 
L 375.013932 54.912 
L 374.964977 52.224 
L 374.915993 49.536 
L 374.86698 46.848 
L 374.817939 44.16 
L 374.768869 41.472 
" clip-path="url(#p9a36c2d026)" style="fill: none; stroke: #000000; stroke-width: 0.5"/>
   </g>
   <g id="PathCollection_10">
    <path d="M 322.413554 307.584 
L 322.367487 304.896 
L 322.321376 302.208 
L 322.27522 299.52 
L 322.229019 296.832 
L 322.182773 294.144 
L 322.136483 291.456 
L 322.090149 288.768 
L 322.043769 286.08 
L 321.997345 283.392 
L 321.950876 280.704 
L 321.904362 278.016 
L 321.857804 275.328 
L 321.811201 272.64 
L 321.764553 269.952 
L 321.71786 267.264 
L 321.671123 264.576 
L 321.62434 261.888 
L 321.577514 259.2 
L 321.530642 256.512 
L 321.483725 253.824 
L 321.436764 251.136 
L 321.389758 248.448 
L 321.342707 245.76 
L 321.295612 243.072 
L 321.248471 240.384 
L 321.201286 237.696 
L 321.154056 235.008 
L 321.106781 232.32 
L 321.059462 229.632 
L 321.012097 226.944 
L 320.964688 224.256 
L 320.930909 222.342606 
L 320.91725 221.568 
L 320.869807 218.88 
L 320.822319 216.192 
L 320.774787 213.504 
L 320.727209 210.816 
L 320.679587 208.128 
L 320.63192 205.44 
L 320.584208 202.752 
L 320.559862 201.381659 
" clip-path="url(#p9a36c2d026)" style="fill: none; stroke: #000000; stroke-width: 0.5"/>
    <path d="M 320.032768 171.866365 
L 320.00817 170.496 
L 319.959875 167.808 
L 319.911535 165.12 
L 319.863151 162.432 
L 319.814721 159.744 
L 319.766247 157.056 
L 319.717727 154.368 
L 319.669163 151.68 
L 319.620554 148.992 
L 319.5719 146.304 
L 319.523201 143.616 
L 319.474457 140.928 
L 319.425668 138.24 
L 319.376834 135.552 
L 319.327955 132.864 
L 319.279031 130.176 
L 319.230062 127.488 
L 319.181048 124.8 
L 319.131989 122.112 
L 319.082885 119.424 
L 319.033737 116.736 
L 318.984543 114.048 
L 318.935304 111.36 
L 318.88602 108.672 
L 318.836691 105.984 
L 318.787317 103.296 
L 318.737898 100.608 
L 318.688433 97.92 
L 318.638924 95.232 
L 318.58937 92.544 
L 318.539771 89.856 
L 318.490126 87.168 
L 318.440437 84.48 
L 318.390702 81.792 
L 318.340922 79.104 
L 318.291097 76.416 
L 318.241227 73.728 
L 318.191312 71.04 
L 318.141352 68.352 
L 318.091346 65.664 
L 318.041296 62.976 
L 317.9912 60.288 
L 317.941059 57.6 
L 317.890873 54.912 
L 317.840641 52.224 
L 317.790365 49.536 
L 317.740043 46.848 
L 317.689676 44.16 
L 317.639264 41.472 
" clip-path="url(#p9a36c2d026)" style="fill: none; stroke: #000000; stroke-width: 0.5"/>
   </g>
   <g id="PathCollection_11">
    <path d="M 266.387781 307.584 
L 266.341736 304.896 
L 266.29563 302.208 
L 266.249463 299.52 
L 266.203235 296.832 
L 266.156946 294.144 
L 266.110595 291.456 
L 266.064184 288.768 
L 266.017711 286.08 
L 265.971177 283.392 
L 265.924583 280.704 
L 265.877927 278.016 
L 265.83121 275.328 
L 265.784431 272.64 
L 265.737592 269.952 
L 265.690691 267.264 
L 265.64373 264.576 
L 265.596707 261.888 
L 265.549623 259.2 
L 265.502477 256.512 
L 265.455271 253.824 
L 265.408003 251.136 
L 265.360674 248.448 
L 265.313284 245.76 
L 265.265833 243.072 
L 265.218321 240.384 
L 265.170747 237.696 
L 265.123112 235.008 
L 265.075416 232.32 
L 265.027659 229.632 
L 264.97984 226.944 
L 264.93196 224.256 
L 264.884019 221.568 
L 264.836017 218.88 
L 264.787953 216.192 
L 264.739828 213.504 
L 264.691642 210.816 
L 264.643395 208.128 
L 264.595086 205.44 
L 264.546716 202.752 
L 264.498285 200.064 
L 264.449792 197.376 
L 264.401238 194.688 
L 264.352623 192 
L 264.303946 189.312 
L 264.255208 186.624 
L 264.206409 183.936 
L 264.157548 181.248 
L 264.108627 178.56 
L 264.059643 175.872 
L 264.010598 173.184 
L 263.961492 170.496 
L 263.912325 167.808 
L 263.863096 165.12 
L 263.813806 162.432 
L 263.764454 159.744 
L 263.715041 157.056 
L 263.665566 154.368 
L 263.616031 151.68 
L 263.566433 148.992 
L 263.516774 146.304 
L 263.467054 143.616 
L 263.417272 140.928 
L 263.367429 138.24 
L 263.317525 135.552 
L 263.267559 132.864 
L 263.217531 130.176 
L 263.214545 130.015779 
L 263.167459 127.488 
L 263.117327 124.8 
L 263.067134 122.112 
L 263.016879 119.424 
L 262.991222 118.053397 
" clip-path="url(#p9a36c2d026)" style="fill: none; stroke: #000000; stroke-width: 0.5"/>
    <path d="M 262.435023 88.538638 
L 262.409021 87.168 
L 262.357966 84.48 
L 262.30685 81.792 
L 262.255672 79.104 
L 262.204432 76.416 
L 262.153131 73.728 
L 262.101768 71.04 
L 262.050344 68.352 
L 261.998858 65.664 
L 261.94731 62.976 
L 261.895701 60.288 
L 261.84403 57.6 
L 261.792297 54.912 
L 261.740502 52.224 
L 261.688646 49.536 
L 261.636729 46.848 
L 261.584749 44.16 
L 261.532708 41.472 
" clip-path="url(#p9a36c2d026)" style="fill: none; stroke: #000000; stroke-width: 0.5"/>
   </g>
   <g id="PathCollection_12">
    <path d="M 210.707888 307.584 
L 210.661477 304.896 
L 210.614988 302.208 
L 210.568421 299.52 
L 210.521776 296.832 
L 210.475053 294.144 
L 210.428252 291.456 
L 210.381373 288.768 
L 210.334416 286.08 
L 210.287381 283.392 
L 210.240268 280.704 
L 210.193076 278.016 
L 210.145807 275.328 
L 210.130592 274.464186 
" clip-path="url(#p9a36c2d026)" style="fill: none; stroke: #000000; stroke-width: 0.5"/>
    <path d="M 209.491378 238.559876 
L 209.475835 237.696 
L 209.427394 235.008 
L 209.378874 232.32 
L 209.330277 229.632 
L 209.281601 226.944 
L 209.232847 224.256 
L 209.184015 221.568 
L 209.135105 218.88 
L 209.105455 217.253057 
L 209.086109 216.192 
L 209.037022 213.504 
L 208.987857 210.816 
L 208.938614 208.128 
L 208.889293 205.44 
L 208.839893 202.752 
L 208.790415 200.064 
L 208.740859 197.376 
L 208.691225 194.688 
L 208.641512 192 
L 208.591722 189.312 
L 208.541852 186.624 
L 208.491905 183.936 
L 208.441879 181.248 
L 208.391775 178.56 
L 208.341593 175.872 
L 208.291332 173.184 
L 208.240993 170.496 
L 208.190576 167.808 
L 208.14008 165.12 
L 208.089506 162.432 
L 208.038854 159.744 
L 207.988123 157.056 
L 207.937314 154.368 
L 207.886427 151.68 
L 207.835461 148.992 
L 207.784417 146.304 
L 207.733294 143.616 
L 207.682093 140.928 
L 207.630814 138.24 
L 207.579456 135.552 
L 207.52802 132.864 
L 207.476505 130.176 
L 207.424912 127.488 
L 207.37324 124.8 
L 207.32149 122.112 
L 207.269662 119.424 
L 207.217755 116.736 
L 207.165769 114.048 
L 207.113705 111.36 
L 207.061563 108.672 
L 207.009342 105.984 
L 206.957042 103.296 
L 206.904664 100.608 
L 206.852208 97.92 
L 206.799673 95.232 
L 206.747059 92.544 
L 206.694367 89.856 
L 206.641596 87.168 
L 206.588747 84.48 
L 206.535819 81.792 
L 206.482812 79.104 
L 206.429727 76.416 
L 206.376563 73.728 
L 206.323321 71.04 
L 206.27 68.352 
L 206.2166 65.664 
L 206.163122 62.976 
L 206.109565 60.288 
L 206.055929 57.6 
L 206.002214 54.912 
L 205.948421 52.224 
L 205.89455 49.536 
L 205.840599 46.848 
L 205.78657 44.16 
L 205.732462 41.472 
" clip-path="url(#p9a36c2d026)" style="fill: none; stroke: #000000; stroke-width: 0.5"/>
   </g>
   <g id="PathCollection_13">
    <path d="M 154.685703 307.584 
L 154.638515 304.896 
L 154.591231 302.208 
L 154.543852 299.52 
L 154.496376 296.832 
L 154.448804 294.144 
L 154.401136 291.456 
L 154.353372 288.768 
L 154.305511 286.08 
L 154.257555 283.392 
L 154.209502 280.704 
L 154.161353 278.016 
L 154.113108 275.328 
L 154.064767 272.64 
L 154.01633 269.952 
L 153.967796 267.264 
L 153.919166 264.576 
L 153.870441 261.888 
L 153.821619 259.2 
L 153.7727 256.512 
L 153.723686 253.824 
L 153.674575 251.136 
L 153.625369 248.448 
L 153.576066 245.76 
L 153.526667 243.072 
L 153.477171 240.384 
L 153.427579 237.696 
L 153.377892 235.008 
L 153.328108 232.32 
L 153.278227 229.632 
L 153.228251 226.944 
L 153.178178 224.256 
L 153.128009 221.568 
L 153.077743 218.88 
L 153.027382 216.192 
L 152.976924 213.504 
L 152.92637 210.816 
L 152.875719 208.128 
L 152.824973 205.44 
L 152.77413 202.752 
L 152.72319 200.064 
L 152.672155 197.376 
L 152.621023 194.688 
L 152.569795 192 
L 152.51847 189.312 
L 152.467049 186.624 
L 152.415532 183.936 
L 152.363918 181.248 
L 152.312208 178.56 
L 152.260402 175.872 
L 152.208499 173.184 
L 152.1565 170.496 
L 152.139747 169.63159 
" clip-path="url(#p9a36c2d026)" style="fill: none; stroke: #000000; stroke-width: 0.5"/>
    <path d="M 151.435547 133.728495 
L 151.418389 132.864 
L 151.389091 131.390441 
L 151.364914 130.176 
L 151.311305 127.488 
L 151.2576 124.8 
L 151.203798 122.112 
L 151.1499 119.424 
L 151.095905 116.736 
L 151.041813 114.048 
L 150.987624 111.36 
L 150.933339 108.672 
L 150.878958 105.984 
L 150.824479 103.296 
L 150.769904 100.608 
L 150.715233 97.92 
L 150.660464 95.232 
L 150.605599 92.544 
L 150.550637 89.856 
L 150.495578 87.168 
L 150.440423 84.48 
L 150.385171 81.792 
L 150.329822 79.104 
L 150.274376 76.416 
L 150.218834 73.728 
L 150.163195 71.04 
L 150.107459 68.352 
L 150.051626 65.664 
L 149.995696 62.976 
L 149.93967 60.288 
L 149.883547 57.6 
L 149.827327 54.912 
L 149.77101 52.224 
L 149.714596 49.536 
L 149.658085 46.848 
L 149.601477 44.16 
L 149.544773 41.472 
" clip-path="url(#p9a36c2d026)" style="fill: none; stroke: #000000; stroke-width: 0.5"/>
   </g>
   <g id="PathCollection_14">
    <path d="M 97.586032 307.584 
L 97.537703 304.896 
L 97.489257 302.208 
L 97.440696 299.52 
L 97.392019 296.832 
L 97.343225 294.144 
L 97.294316 291.456 
L 97.28 290.671066 
L 97.245219 288.768 
L 97.195975 286.08 
L 97.146616 283.392 
L 97.09714 280.704 
L 97.047549 278.016 
L 96.997841 275.328 
L 96.948016 272.64 
L 96.898076 269.952 
L 96.848019 267.264 
L 96.797847 264.576 
L 96.747558 261.888 
L 96.697152 259.2 
L 96.646631 256.512 
L 96.595993 253.824 
L 96.545239 251.136 
L 96.494369 248.448 
L 96.443383 245.76 
L 96.39228 243.072 
L 96.341061 240.384 
L 96.289726 237.696 
L 96.238275 235.008 
L 96.186707 232.32 
L 96.135023 229.632 
L 96.083223 226.944 
L 96.031307 224.256 
L 95.979274 221.568 
L 95.927125 218.88 
L 95.87486 216.192 
L 95.822479 213.504 
L 95.769981 210.816 
L 95.717367 208.128 
L 95.664636 205.44 
L 95.61179 202.752 
L 95.558827 200.064 
L 95.505747 197.376 
L 95.452552 194.688 
L 95.399239 192 
L 95.345811 189.312 
L 95.292266 186.624 
L 95.238605 183.936 
L 95.184828 181.248 
L 95.130934 178.56 
L 95.076924 175.872 
L 95.022797 173.184 
L 95.005348 172.319296 
" clip-path="url(#p9a36c2d026)" style="fill: none; stroke: #000000; stroke-width: 0.5"/>
    <path d="M 94.270741 136.416811 
L 94.252802 135.552 
L 94.196929 132.864 
L 94.14094 130.176 
L 94.084834 127.488 
L 94.028611 124.8 
L 93.972272 122.112 
L 93.915816 119.424 
L 93.859244 116.736 
L 93.802555 114.048 
L 93.74575 111.36 
L 93.688828 108.672 
L 93.672727 107.91321 
L 93.631703 105.984 
L 93.574427 103.296 
L 93.517034 100.608 
L 93.459525 97.92 
L 93.401898 95.232 
L 93.344155 92.544 
L 93.286295 89.856 
L 93.228318 87.168 
L 93.170224 84.48 
L 93.112014 81.792 
L 93.053686 79.104 
L 92.995241 76.416 
L 92.93668 73.728 
L 92.878002 71.04 
L 92.819206 68.352 
L 92.760294 65.664 
L 92.701265 62.976 
L 92.642119 60.288 
L 92.582856 57.6 
L 92.523476 54.912 
L 92.463979 52.224 
L 92.404365 49.536 
L 92.344634 46.848 
L 92.284785 44.16 
L 92.22482 41.472 
" clip-path="url(#p9a36c2d026)" style="fill: none; stroke: #000000; stroke-width: 0.5"/>
   </g>
   <g id="PathCollection_15"/>
   <g id="LineCollection_1">
    <path d="M 68.153699 307.584 
L 68.153699 294.2784 
" clip-path="url(#p9a36c2d026)" style="fill: none; stroke: #000000; stroke-width: 1.5"/>
    <path d="M 84.835458 307.584 
L 84.835458 294.2784 
" clip-path="url(#p9a36c2d026)" style="fill: none; stroke: #000000; stroke-width: 1.5"/>
    <path d="M 104.170605 307.584 
L 104.170605 294.2784 
" clip-path="url(#p9a36c2d026)" style="fill: none; stroke: #000000; stroke-width: 1.5"/>
    <path d="M 123.093447 307.584 
L 123.093447 294.2784 
" clip-path="url(#p9a36c2d026)" style="fill: none; stroke: #000000; stroke-width: 1.5"/>
    <path d="M 154.229185 307.584 
L 154.229185 294.2784 
" clip-path="url(#p9a36c2d026)" style="fill: none; stroke: #000000; stroke-width: 1.5"/>
    <path d="M 185.315047 307.584 
L 185.315047 294.2784 
" clip-path="url(#p9a36c2d026)" style="fill: none; stroke: #000000; stroke-width: 1.5"/>
    <path d="M 218.366012 307.584 
L 218.366012 294.2784 
" clip-path="url(#p9a36c2d026)" style="fill: none; stroke: #000000; stroke-width: 1.5"/>
    <path d="M 294.130528 307.584 
L 294.130528 294.2784 
" clip-path="url(#p9a36c2d026)" style="fill: none; stroke: #000000; stroke-width: 1.5"/>
    <path d="M 342.443458 307.584 
L 342.443458 294.2784 
" clip-path="url(#p9a36c2d026)" style="fill: none; stroke: #000000; stroke-width: 1.5"/>
   </g>
   <g id="LineCollection_2">
    <path clip-path="url(#p9a36c2d026)" style="fill: none; stroke: #000000; stroke-width: 1.5"/>
    <path clip-path="url(#p9a36c2d026)" style="fill: none; stroke: #000000; stroke-width: 1.5"/>
    <path clip-path="url(#p9a36c2d026)" style="fill: none; stroke: #000000; stroke-width: 1.5"/>
    <path clip-path="url(#p9a36c2d026)" style="fill: none; stroke: #000000; stroke-width: 1.5"/>
    <path clip-path="url(#p9a36c2d026)" style="fill: none; stroke: #000000; stroke-width: 1.5"/>
    <path clip-path="url(#p9a36c2d026)" style="fill: none; stroke: #000000; stroke-width: 1.5"/>
    <path clip-path="url(#p9a36c2d026)" style="fill: none; stroke: #000000; stroke-width: 1.5"/>
    <path clip-path="url(#p9a36c2d026)" style="fill: none; stroke: #000000; stroke-width: 1.5"/>
    <path clip-path="url(#p9a36c2d026)" style="fill: none; stroke: #000000; stroke-width: 1.5"/>
   </g>
   <g id="patch_3">
    <path d="M 57.6 307.584 
L 57.6 41.472 
" style="fill: none; stroke: #000000; stroke-width: 0.8; stroke-linejoin: miter; stroke-linecap: square"/>
   </g>
   <g id="patch_4">
    <path d="M 414.72 307.584 
L 414.72 41.472 
" style="fill: none; stroke: #000000; stroke-width: 0.8; stroke-linejoin: miter; stroke-linecap: square"/>
   </g>
   <g id="patch_5">
    <path d="M 57.6 307.584 
L 414.72 307.584 
" style="fill: none; stroke: #000000; stroke-width: 0.8; stroke-linejoin: miter; stroke-linecap: square"/>
   </g>
   <g id="patch_6">
    <path d="M 57.6 41.472 
L 414.72 41.472 
" style="fill: none; stroke: #000000; stroke-width: 0.8; stroke-linejoin: miter; stroke-linecap: square"/>
   </g>
   <g id="text_18">
    <!-- 2D-partial dependency plot between PM and OM -->
    <g transform="translate(90.414375 35.472) scale(0.12 -0.12)">
     <defs>
      <path id="DejaVuSans-44" d="M 1259 4147 
L 1259 519 
L 2022 519 
Q 2988 519 3436 956 
Q 3884 1394 3884 2338 
Q 3884 3275 3436 3711 
Q 2988 4147 2022 4147 
L 1259 4147 
z
M 628 4666 
L 1925 4666 
Q 3281 4666 3915 4102 
Q 4550 3538 4550 2338 
Q 4550 1131 3912 565 
Q 3275 0 1925 0 
L 628 0 
L 628 4666 
z
" transform="scale(0.015625)"/>
      <path id="DejaVuSans-2d" d="M 313 2009 
L 1997 2009 
L 1997 1497 
L 313 1497 
L 313 2009 
z
" transform="scale(0.015625)"/>
      <path id="DejaVuSans-6c" d="M 603 4863 
L 1178 4863 
L 1178 0 
L 603 0 
L 603 4863 
z
" transform="scale(0.015625)"/>
      <path id="DejaVuSans-64" d="M 2906 2969 
L 2906 4863 
L 3481 4863 
L 3481 0 
L 2906 0 
L 2906 525 
Q 2725 213 2448 61 
Q 2172 -91 1784 -91 
Q 1150 -91 751 415 
Q 353 922 353 1747 
Q 353 2572 751 3078 
Q 1150 3584 1784 3584 
Q 2172 3584 2448 3432 
Q 2725 3281 2906 2969 
z
M 947 1747 
Q 947 1113 1208 752 
Q 1469 391 1925 391 
Q 2381 391 2643 752 
Q 2906 1113 2906 1747 
Q 2906 2381 2643 2742 
Q 2381 3103 1925 3103 
Q 1469 3103 1208 2742 
Q 947 2381 947 1747 
z
" transform="scale(0.015625)"/>
      <path id="DejaVuSans-63" d="M 3122 3366 
L 3122 2828 
Q 2878 2963 2633 3030 
Q 2388 3097 2138 3097 
Q 1578 3097 1268 2742 
Q 959 2388 959 1747 
Q 959 1106 1268 751 
Q 1578 397 2138 397 
Q 2388 397 2633 464 
Q 2878 531 3122 666 
L 3122 134 
Q 2881 22 2623 -34 
Q 2366 -91 2075 -91 
Q 1284 -91 818 406 
Q 353 903 353 1747 
Q 353 2603 823 3093 
Q 1294 3584 2113 3584 
Q 2378 3584 2631 3529 
Q 2884 3475 3122 3366 
z
" transform="scale(0.015625)"/>
      <path id="DejaVuSans-79" d="M 2059 -325 
Q 1816 -950 1584 -1140 
Q 1353 -1331 966 -1331 
L 506 -1331 
L 506 -850 
L 844 -850 
Q 1081 -850 1212 -737 
Q 1344 -625 1503 -206 
L 1606 56 
L 191 3500 
L 800 3500 
L 1894 763 
L 2988 3500 
L 3597 3500 
L 2059 -325 
z
" transform="scale(0.015625)"/>
      <path id="DejaVuSans-62" d="M 3116 1747 
Q 3116 2381 2855 2742 
Q 2594 3103 2138 3103 
Q 1681 3103 1420 2742 
Q 1159 2381 1159 1747 
Q 1159 1113 1420 752 
Q 1681 391 2138 391 
Q 2594 391 2855 752 
Q 3116 1113 3116 1747 
z
M 1159 2969 
Q 1341 3281 1617 3432 
Q 1894 3584 2278 3584 
Q 2916 3584 3314 3078 
Q 3713 2572 3713 1747 
Q 3713 922 3314 415 
Q 2916 -91 2278 -91 
Q 1894 -91 1617 61 
Q 1341 213 1159 525 
L 1159 0 
L 581 0 
L 581 4863 
L 1159 4863 
L 1159 2969 
z
" transform="scale(0.015625)"/>
      <path id="DejaVuSans-77" d="M 269 3500 
L 844 3500 
L 1563 769 
L 2278 3500 
L 2956 3500 
L 3675 769 
L 4391 3500 
L 4966 3500 
L 4050 0 
L 3372 0 
L 2619 2869 
L 1863 0 
L 1184 0 
L 269 3500 
z
" transform="scale(0.015625)"/>
     </defs>
     <use xlink:href="#DejaVuSans-32"/>
     <use xlink:href="#DejaVuSans-44" x="63.623047"/>
     <use xlink:href="#DejaVuSans-2d" x="140.625"/>
     <use xlink:href="#DejaVuSans-70" x="176.708984"/>
     <use xlink:href="#DejaVuSans-61" x="240.185547"/>
     <use xlink:href="#DejaVuSans-72" x="301.464844"/>
     <use xlink:href="#DejaVuSans-74" x="342.578125"/>
     <use xlink:href="#DejaVuSans-69" x="381.787109"/>
     <use xlink:href="#DejaVuSans-61" x="409.570312"/>
     <use xlink:href="#DejaVuSans-6c" x="470.849609"/>
     <use xlink:href="#DejaVuSans-20" x="498.632812"/>
     <use xlink:href="#DejaVuSans-64" x="530.419922"/>
     <use xlink:href="#DejaVuSans-65" x="593.896484"/>
     <use xlink:href="#DejaVuSans-70" x="655.419922"/>
     <use xlink:href="#DejaVuSans-65" x="718.896484"/>
     <use xlink:href="#DejaVuSans-6e" x="780.419922"/>
     <use xlink:href="#DejaVuSans-64" x="843.798828"/>
     <use xlink:href="#DejaVuSans-65" x="907.275391"/>
     <use xlink:href="#DejaVuSans-6e" x="968.798828"/>
     <use xlink:href="#DejaVuSans-63" x="1032.177734"/>
     <use xlink:href="#DejaVuSans-79" x="1087.158203"/>
     <use xlink:href="#DejaVuSans-20" x="1146.337891"/>
     <use xlink:href="#DejaVuSans-70" x="1178.125"/>
     <use xlink:href="#DejaVuSans-6c" x="1241.601562"/>
     <use xlink:href="#DejaVuSans-6f" x="1269.384766"/>
     <use xlink:href="#DejaVuSans-74" x="1330.566406"/>
     <use xlink:href="#DejaVuSans-20" x="1369.775391"/>
     <use xlink:href="#DejaVuSans-62" x="1401.5625"/>
     <use xlink:href="#DejaVuSans-65" x="1465.039062"/>
     <use xlink:href="#DejaVuSans-74" x="1526.5625"/>
     <use xlink:href="#DejaVuSans-77" x="1565.771484"/>
     <use xlink:href="#DejaVuSans-65" x="1647.558594"/>
     <use xlink:href="#DejaVuSans-65" x="1709.082031"/>
     <use xlink:href="#DejaVuSans-6e" x="1770.605469"/>
     <use xlink:href="#DejaVuSans-20" x="1833.984375"/>
     <use xlink:href="#DejaVuSans-50" x="1865.771484"/>
     <use xlink:href="#DejaVuSans-4d" x="1926.074219"/>
     <use xlink:href="#DejaVuSans-20" x="2012.353516"/>
     <use xlink:href="#DejaVuSans-61" x="2044.140625"/>
     <use xlink:href="#DejaVuSans-6e" x="2105.419922"/>
     <use xlink:href="#DejaVuSans-64" x="2168.798828"/>
     <use xlink:href="#DejaVuSans-20" x="2232.275391"/>
     <use xlink:href="#DejaVuSans-4f" x="2264.0625"/>
     <use xlink:href="#DejaVuSans-4d" x="2342.773438"/>
    </g>
   </g>
   <g id="text_19">
    <g clip-path="url(#p9a36c2d026)">
     <!-- 8.95 -->
     <g transform="translate(375.84638 256.180999) rotate(-270.999198) scale(0.1 -0.1)">
      <defs>
       <path id="DejaVuSans-38" d="M 2034 2216 
Q 1584 2216 1326 1975 
Q 1069 1734 1069 1313 
Q 1069 891 1326 650 
Q 1584 409 2034 409 
Q 2484 409 2743 651 
Q 3003 894 3003 1313 
Q 3003 1734 2745 1975 
Q 2488 2216 2034 2216 
z
M 1403 2484 
Q 997 2584 770 2862 
Q 544 3141 544 3541 
Q 544 4100 942 4425 
Q 1341 4750 2034 4750 
Q 2731 4750 3128 4425 
Q 3525 4100 3525 3541 
Q 3525 3141 3298 2862 
Q 3072 2584 2669 2484 
Q 3125 2378 3379 2068 
Q 3634 1759 3634 1313 
Q 3634 634 3220 271 
Q 2806 -91 2034 -91 
Q 1263 -91 848 271 
Q 434 634 434 1313 
Q 434 1759 690 2068 
Q 947 2378 1403 2484 
z
M 1172 3481 
Q 1172 3119 1398 2916 
Q 1625 2713 2034 2713 
Q 2441 2713 2670 2916 
Q 2900 3119 2900 3481 
Q 2900 3844 2670 4047 
Q 2441 4250 2034 4250 
Q 1625 4250 1398 4047 
Q 1172 3844 1172 3481 
z
" transform="scale(0.015625)"/>
       <path id="DejaVuSans-39" d="M 703 97 
L 703 672 
Q 941 559 1184 500 
Q 1428 441 1663 441 
Q 2288 441 2617 861 
Q 2947 1281 2994 2138 
Q 2813 1869 2534 1725 
Q 2256 1581 1919 1581 
Q 1219 1581 811 2004 
Q 403 2428 403 3163 
Q 403 3881 828 4315 
Q 1253 4750 1959 4750 
Q 2769 4750 3195 4129 
Q 3622 3509 3622 2328 
Q 3622 1225 3098 567 
Q 2575 -91 1691 -91 
Q 1453 -91 1209 -44 
Q 966 3 703 97 
z
M 1959 2075 
Q 2384 2075 2632 2365 
Q 2881 2656 2881 3163 
Q 2881 3666 2632 3958 
Q 2384 4250 1959 4250 
Q 1534 4250 1286 3958 
Q 1038 3666 1038 3163 
Q 1038 2656 1286 2365 
Q 1534 2075 1959 2075 
z
" transform="scale(0.015625)"/>
      </defs>
      <use xlink:href="#DejaVuSans-38"/>
      <use xlink:href="#DejaVuSans-2e" x="63.623047"/>
      <use xlink:href="#DejaVuSans-39" x="95.410156"/>
      <use xlink:href="#DejaVuSans-35" x="159.033203"/>
     </g>
    </g>
   </g>
   <g id="text_20">
    <g clip-path="url(#p9a36c2d026)">
     <!-- 9.42 -->
     <g transform="translate(317.339279 175.542232) rotate(-271.023098) scale(0.1 -0.1)">
      <use xlink:href="#DejaVuSans-39"/>
      <use xlink:href="#DejaVuSans-2e" x="63.623047"/>
      <use xlink:href="#DejaVuSans-34" x="95.410156"/>
      <use xlink:href="#DejaVuSans-32" x="159.033203"/>
     </g>
    </g>
   </g>
   <g id="text_21">
    <g clip-path="url(#p9a36c2d026)">
     <!-- 9.90 -->
     <g transform="translate(259.745414 92.217154) rotate(-271.079599) scale(0.1 -0.1)">
      <use xlink:href="#DejaVuSans-39"/>
      <use xlink:href="#DejaVuSans-2e" x="63.623047"/>
      <use xlink:href="#DejaVuSans-39" x="95.410156"/>
      <use xlink:href="#DejaVuSans-30" x="159.033203"/>
     </g>
    </g>
   </g>
   <g id="text_22">
    <g clip-path="url(#p9a36c2d026)">
     <!-- 10.37 -->
     <g transform="translate(206.799001 242.249323) rotate(-271.019943) scale(0.1 -0.1)">
      <defs>
       <path id="DejaVuSans-37" d="M 525 4666 
L 3525 4666 
L 3525 4397 
L 1831 0 
L 1172 0 
L 2766 4134 
L 525 4134 
L 525 4666 
z
" transform="scale(0.015625)"/>
      </defs>
      <use xlink:href="#DejaVuSans-31"/>
      <use xlink:href="#DejaVuSans-30" x="63.623047"/>
      <use xlink:href="#DejaVuSans-2e" x="127.246094"/>
      <use xlink:href="#DejaVuSans-33" x="159.033203"/>
      <use xlink:href="#DejaVuSans-37" x="222.65625"/>
     </g>
    </g>
   </g>
   <g id="text_23">
    <g clip-path="url(#p9a36c2d026)">
     <!-- 10.84 -->
     <g transform="translate(148.750262 137.422802) rotate(-271.12365) scale(0.1 -0.1)">
      <use xlink:href="#DejaVuSans-31"/>
      <use xlink:href="#DejaVuSans-30" x="63.623047"/>
      <use xlink:href="#DejaVuSans-2e" x="127.246094"/>
      <use xlink:href="#DejaVuSans-38" x="159.033203"/>
      <use xlink:href="#DejaVuSans-34" x="222.65625"/>
     </g>
    </g>
   </g>
   <g id="text_24">
    <g clip-path="url(#p9a36c2d026)">
     <!-- 11.32 -->
     <g transform="translate(91.589034 140.113381) rotate(-271.172175) scale(0.1 -0.1)">
      <use xlink:href="#DejaVuSans-31"/>
      <use xlink:href="#DejaVuSans-31" x="63.623047"/>
      <use xlink:href="#DejaVuSans-2e" x="127.246094"/>
      <use xlink:href="#DejaVuSans-33" x="159.033203"/>
      <use xlink:href="#DejaVuSans-32" x="222.65625"/>
     </g>
    </g>
   </g>
  </g>
 </g>
 <defs>
  <clipPath id="p9a36c2d026">
   <rect x="57.6" y="41.472" width="357.12" height="266.112"/>
  </clipPath>
 </defs>
</svg>
