<?xml version="1.0" encoding="utf-8" standalone="no"?>
<!DOCTYPE svg PUBLIC "-//W3C//DTD SVG 1.1//EN"
  "http://www.w3.org/Graphics/SVG/1.1/DTD/svg11.dtd">
<svg xmlns:xlink="http://www.w3.org/1999/xlink" width="460.8pt" height="345.6pt" viewBox="0 0 460.8 345.6" xmlns="http://www.w3.org/2000/svg" version="1.1">
 <metadata>
  <rdf:RDF xmlns:dc="http://purl.org/dc/elements/1.1/" xmlns:cc="http://creativecommons.org/ns#" xmlns:rdf="http://www.w3.org/1999/02/22-rdf-syntax-ns#">
   <cc:Work>
    <dc:type rdf:resource="http://purl.org/dc/dcmitype/StillImage"/>
    <dc:date>2024-04-22T00:43:48.493876</dc:date>
    <dc:format>image/svg+xml</dc:format>
    <dc:creator>
     <cc:Agent>
      <dc:title>Matplotlib v3.7.0, https://matplotlib.org/</dc:title>
     </cc:Agent>
    </dc:creator>
   </cc:Work>
  </rdf:RDF>
 </metadata>
 <defs>
  <style type="text/css">*{stroke-linejoin: round; stroke-linecap: butt}</style>
 </defs>
 <g id="figure_1">
  <g id="patch_1">
   <path d="M 0 345.6 
L 460.8 345.6 
L 460.8 0 
L 0 0 
L 0 345.6 
z
" style="fill: none"/>
  </g>
  <g id="axes_1"/>
  <g id="axes_2">
   <g id="patch_2">
    <path d="M 57.6 307.584 
L 414.72 307.584 
L 414.72 41.472 
L 57.6 41.472 
L 57.6 307.584 
z
" style="fill: none"/>
   </g>
   <g id="PathCollection_1">
    <path d="M 61.207273 307.584 
L 64.814545 307.584 
L 68.421818 307.584 
L 72.029091 307.584 
L 75.636364 307.584 
L 79.243636 307.584 
L 82.850909 307.584 
L 86.458182 307.584 
L 90.065455 307.584 
L 93.672727 307.584 
L 97.28 307.584 
L 100.887273 307.584 
L 104.494545 307.584 
L 108.101818 307.584 
L 111.709091 307.584 
L 115.316364 307.584 
L 118.923636 307.584 
L 122.530909 307.584 
L 126.138182 307.584 
L 129.745455 307.584 
L 133.352727 307.584 
L 136.96 307.584 
L 140.567273 307.584 
L 144.174545 307.584 
L 147.781818 307.584 
L 151.389091 307.584 
L 154.996364 307.584 
L 158.603636 307.584 
L 162.210909 307.584 
L 165.818182 307.584 
L 169.425455 307.584 
L 173.032727 307.584 
L 176.64 307.584 
L 180.247273 307.584 
L 183.854545 307.584 
L 187.461818 307.584 
L 191.069091 307.584 
L 194.676364 307.584 
L 198.283636 307.584 
L 201.890909 307.584 
L 205.498182 307.584 
L 209.105455 307.584 
L 212.712727 307.584 
L 216.32 307.584 
L 219.927273 307.584 
L 223.534545 307.584 
L 227.141818 307.584 
L 230.749091 307.584 
L 234.356364 307.584 
L 237.963636 307.584 
L 241.570909 307.584 
L 245.178182 307.584 
L 248.785455 307.584 
L 252.392727 307.584 
L 256 307.584 
L 259.607273 307.584 
L 263.214545 307.584 
L 266.821818 307.584 
L 270.429091 307.584 
L 274.036364 307.584 
L 277.643636 307.584 
L 281.250909 307.584 
L 284.858182 307.584 
L 288.465455 307.584 
L 292.072727 307.584 
L 295.68 307.584 
L 299.287273 307.584 
L 302.894545 307.584 
L 306.501818 307.584 
L 310.109091 307.584 
L 313.716364 307.584 
L 317.323636 307.584 
L 320.930909 307.584 
L 324.538182 307.584 
L 328.145455 307.584 
L 331.752727 307.584 
L 335.36 307.584 
L 338.967273 307.584 
L 342.574545 307.584 
L 346.181818 307.584 
L 349.789091 307.584 
L 353.396364 307.584 
L 357.003636 307.584 
L 360.610909 307.584 
L 364.218182 307.584 
L 367.825455 307.584 
L 371.432727 307.584 
L 375.04 307.584 
L 378.647273 307.584 
L 382.254545 307.584 
L 385.861818 307.584 
L 389.469091 307.584 
L 393.076364 307.584 
L 396.683636 307.584 
L 400.290909 307.584 
L 403.898182 307.584 
L 407.505455 307.584 
L 411.112727 307.584 
L 414.72 307.584 
L 414.72 304.896 
L 414.72 302.208 
L 414.72 299.52 
L 414.72 297.498114 
L 411.112727 297.519241 
L 407.505455 297.540286 
L 403.898182 297.561248 
L 400.290909 297.582128 
L 396.683636 297.602927 
L 393.076364 297.623643 
L 389.469091 297.644279 
L 385.861818 297.664833 
L 382.254545 297.685306 
L 378.647273 297.705699 
L 375.04 297.726012 
L 371.432727 297.746246 
L 367.825455 297.766399 
L 364.218182 297.786474 
L 360.610909 297.806469 
L 357.003636 297.826386 
L 353.396364 297.846225 
L 349.789091 297.865985 
L 346.181818 297.885668 
L 342.574545 297.905274 
L 338.967273 297.924803 
L 335.36 297.944255 
L 331.752727 297.96363 
L 328.145455 297.98293 
L 324.538182 298.002153 
L 320.930909 298.021302 
L 317.323636 298.040375 
L 313.716364 298.059373 
L 310.109091 298.078298 
L 306.501818 298.097148 
L 302.894545 298.115924 
L 299.287273 298.134627 
L 295.68 298.153256 
L 292.072727 298.171814 
L 288.465455 298.190298 
L 284.858182 298.208711 
L 281.250909 298.227052 
L 277.643636 298.245321 
L 274.036364 298.26352 
L 270.429091 298.281648 
L 266.821818 298.299706 
L 263.214545 298.317693 
L 259.607273 298.335612 
L 256 298.353461 
L 252.392727 298.371241 
L 248.785455 298.388952 
L 245.178182 298.406596 
L 241.570909 298.424172 
L 237.963636 298.44168 
L 234.356364 298.459122 
L 230.749091 298.476497 
L 227.141818 298.493805 
L 223.534545 298.511048 
L 219.927273 298.528225 
L 216.32 298.545337 
L 212.712727 298.562384 
L 209.105455 298.579368 
L 205.498182 298.596287 
L 201.890909 298.613142 
L 198.283636 298.629934 
L 194.676364 298.646664 
L 191.069091 298.663331 
L 187.461818 298.679936 
L 183.854545 298.69648 
L 180.247273 298.712962 
L 176.64 298.729384 
L 173.032727 298.745745 
L 169.425455 298.762046 
L 165.818182 298.778288 
L 162.210909 298.794471 
L 158.603636 298.810594 
L 154.996364 298.82666 
L 151.389091 298.842667 
L 147.781818 298.858617 
L 144.174545 298.874511 
L 140.567273 298.890347 
L 136.96 298.906127 
L 133.352727 298.921851 
L 129.745455 298.93752 
L 126.138182 298.953135 
L 122.530909 298.968694 
L 118.923636 298.9842 
L 115.316364 298.999652 
L 111.709091 299.01505 
L 108.101818 299.030396 
L 104.494545 299.04569 
L 100.887273 299.060932 
L 97.28 299.076123 
L 93.672727 299.091262 
L 90.065455 299.106351 
L 86.458182 299.12139 
L 82.850909 299.13638 
L 79.243636 299.15132 
L 75.636364 299.166212 
L 72.029091 299.181055 
L 68.421818 299.195851 
L 64.814545 299.210599 
L 61.207273 299.225301 
L 57.6 299.239957 
L 57.6 299.52 
L 57.6 302.208 
L 57.6 304.896 
L 57.6 307.584 
z
" clip-path="url(#p1f340c84d9)" style="fill: #481b6d; fill-opacity: 0.75"/>
   </g>
   <g id="PathCollection_2">
    <path d="M 61.207273 299.225301 
L 64.814545 299.210599 
L 68.421818 299.195851 
L 72.029091 299.181055 
L 75.636364 299.166212 
L 79.243636 299.15132 
L 82.850909 299.13638 
L 86.458182 299.12139 
L 90.065455 299.106351 
L 93.672727 299.091262 
L 97.28 299.076123 
L 100.887273 299.060932 
L 104.494545 299.04569 
L 108.101818 299.030396 
L 111.709091 299.01505 
L 115.316364 298.999652 
L 118.923636 298.9842 
L 122.530909 298.968694 
L 126.138182 298.953135 
L 129.745455 298.93752 
L 133.352727 298.921851 
L 136.96 298.906127 
L 140.567273 298.890347 
L 144.174545 298.874511 
L 147.781818 298.858617 
L 151.389091 298.842667 
L 154.996364 298.82666 
L 158.603636 298.810594 
L 162.210909 298.794471 
L 165.818182 298.778288 
L 169.425455 298.762046 
L 173.032727 298.745745 
L 176.64 298.729384 
L 180.247273 298.712962 
L 183.854545 298.69648 
L 187.461818 298.679936 
L 191.069091 298.663331 
L 194.676364 298.646664 
L 198.283636 298.629934 
L 201.890909 298.613142 
L 205.498182 298.596287 
L 209.105455 298.579368 
L 212.712727 298.562384 
L 216.32 298.545337 
L 219.927273 298.528225 
L 223.534545 298.511048 
L 227.141818 298.493805 
L 230.749091 298.476497 
L 234.356364 298.459122 
L 237.963636 298.44168 
L 241.570909 298.424172 
L 245.178182 298.406596 
L 248.785455 298.388952 
L 252.392727 298.371241 
L 256 298.353461 
L 259.607273 298.335612 
L 263.214545 298.317693 
L 266.821818 298.299706 
L 270.429091 298.281648 
L 274.036364 298.26352 
L 277.643636 298.245321 
L 281.250909 298.227052 
L 284.858182 298.208711 
L 288.465455 298.190298 
L 292.072727 298.171814 
L 295.68 298.153256 
L 299.287273 298.134627 
L 302.894545 298.115924 
L 306.501818 298.097148 
L 310.109091 298.078298 
L 313.716364 298.059373 
L 317.323636 298.040375 
L 320.930909 298.021302 
L 324.538182 298.002153 
L 328.145455 297.98293 
L 331.752727 297.96363 
L 335.36 297.944255 
L 338.967273 297.924803 
L 342.574545 297.905274 
L 346.181818 297.885668 
L 349.789091 297.865985 
L 353.396364 297.846225 
L 357.003636 297.826386 
L 360.610909 297.806469 
L 364.218182 297.786474 
L 367.825455 297.766399 
L 371.432727 297.746246 
L 375.04 297.726012 
L 378.647273 297.705699 
L 382.254545 297.685306 
L 385.861818 297.664833 
L 389.469091 297.644279 
L 393.076364 297.623643 
L 396.683636 297.602927 
L 400.290909 297.582128 
L 403.898182 297.561248 
L 407.505455 297.540286 
L 411.112727 297.519241 
L 414.72 297.498114 
L 414.72 296.832 
L 414.72 294.144 
L 414.72 291.456 
L 414.72 288.768 
L 414.72 286.08 
L 414.72 283.594024 
L 411.112727 283.616552 
L 407.505455 283.638919 
L 403.898182 283.661127 
L 400.290909 283.683176 
L 396.683636 283.705067 
L 393.076364 283.726798 
L 389.469091 283.748372 
L 385.861818 283.769787 
L 382.254545 283.791045 
L 378.647273 283.812146 
L 375.04 283.833089 
L 371.432727 283.853876 
L 367.825455 283.874506 
L 364.218182 283.894981 
L 360.610909 283.915299 
L 357.003636 283.935462 
L 353.396364 283.95547 
L 349.789091 283.975323 
L 346.181818 283.995021 
L 342.574545 284.014565 
L 338.967273 284.033955 
L 335.36 284.053192 
L 331.752727 284.072275 
L 328.145455 284.091205 
L 324.538182 284.109982 
L 320.930909 284.128607 
L 317.323636 284.14708 
L 313.716364 284.165401 
L 310.109091 284.18357 
L 306.501818 284.201589 
L 302.894545 284.219456 
L 299.287273 284.237173 
L 295.68 284.25474 
L 292.072727 284.272157 
L 288.465455 284.289424 
L 284.858182 284.306542 
L 281.250909 284.323511 
L 277.643636 284.340331 
L 274.036364 284.357003 
L 270.429091 284.373527 
L 266.821818 284.389904 
L 263.214545 284.406133 
L 259.607273 284.422214 
L 256 284.43815 
L 252.392727 284.453938 
L 248.785455 284.469581 
L 245.178182 284.485078 
L 241.570909 284.500429 
L 237.963636 284.515635 
L 234.356364 284.530697 
L 230.749091 284.545614 
L 227.141818 284.560386 
L 223.534545 284.575015 
L 219.927273 284.589501 
L 216.32 284.603843 
L 212.712727 284.618042 
L 209.105455 284.632099 
L 205.498182 284.646014 
L 201.890909 284.659787 
L 198.283636 284.673418 
L 194.676364 284.686908 
L 191.069091 284.700257 
L 187.461818 284.713465 
L 183.854545 284.726533 
L 180.247273 284.739462 
L 176.64 284.75225 
L 173.032727 284.7649 
L 169.425455 284.77741 
L 165.818182 284.789782 
L 162.210909 284.802016 
L 158.603636 284.814112 
L 154.996364 284.82607 
L 151.389091 284.837891 
L 147.781818 284.849575 
L 144.174545 284.861122 
L 140.567273 284.872533 
L 136.96 284.883809 
L 133.352727 284.894949 
L 129.745455 284.905953 
L 126.138182 284.916823 
L 122.530909 284.927558 
L 118.923636 284.938159 
L 115.316364 284.948626 
L 111.709091 284.958959 
L 108.101818 284.969159 
L 104.494545 284.979227 
L 100.887273 284.989162 
L 97.28 284.998964 
L 93.672727 285.008635 
L 90.065455 285.018175 
L 86.458182 285.027583 
L 82.850909 285.036861 
L 79.243636 285.046008 
L 75.636364 285.055025 
L 72.029091 285.063913 
L 68.421818 285.072671 
L 64.814545 285.081299 
L 61.207273 285.0898 
L 57.6 285.098172 
L 57.6 286.08 
L 57.6 288.768 
L 57.6 291.456 
L 57.6 294.144 
L 57.6 296.832 
L 57.6 299.239957 
z
" clip-path="url(#p1f340c84d9)" style="fill: #3f4788; fill-opacity: 0.75"/>
   </g>
   <g id="PathCollection_3">
    <path d="M 61.207273 285.0898 
L 64.814545 285.081299 
L 68.421818 285.072671 
L 72.029091 285.063913 
L 75.636364 285.055025 
L 79.243636 285.046008 
L 82.850909 285.036861 
L 86.458182 285.027583 
L 90.065455 285.018175 
L 93.672727 285.008635 
L 97.28 284.998964 
L 100.887273 284.989162 
L 104.494545 284.979227 
L 108.101818 284.969159 
L 111.709091 284.958959 
L 115.316364 284.948626 
L 118.923636 284.938159 
L 122.530909 284.927558 
L 126.138182 284.916823 
L 129.745455 284.905953 
L 133.352727 284.894949 
L 136.96 284.883809 
L 140.567273 284.872533 
L 144.174545 284.861122 
L 147.781818 284.849575 
L 151.389091 284.837891 
L 154.996364 284.82607 
L 158.603636 284.814112 
L 162.210909 284.802016 
L 165.818182 284.789782 
L 169.425455 284.77741 
L 173.032727 284.7649 
L 176.64 284.75225 
L 180.247273 284.739462 
L 183.854545 284.726533 
L 187.461818 284.713465 
L 191.069091 284.700257 
L 194.676364 284.686908 
L 198.283636 284.673418 
L 201.890909 284.659787 
L 205.498182 284.646014 
L 209.105455 284.632099 
L 212.712727 284.618042 
L 216.32 284.603843 
L 219.927273 284.589501 
L 223.534545 284.575015 
L 227.141818 284.560386 
L 230.749091 284.545614 
L 234.356364 284.530697 
L 237.963636 284.515635 
L 241.570909 284.500429 
L 245.178182 284.485078 
L 248.785455 284.469581 
L 252.392727 284.453938 
L 256 284.43815 
L 259.607273 284.422214 
L 263.214545 284.406133 
L 266.821818 284.389904 
L 270.429091 284.373527 
L 274.036364 284.357003 
L 277.643636 284.340331 
L 281.250909 284.323511 
L 284.858182 284.306542 
L 288.465455 284.289424 
L 292.072727 284.272157 
L 295.68 284.25474 
L 299.287273 284.237173 
L 302.894545 284.219456 
L 306.501818 284.201589 
L 310.109091 284.18357 
L 313.716364 284.165401 
L 317.323636 284.14708 
L 320.930909 284.128607 
L 324.538182 284.109982 
L 328.145455 284.091205 
L 331.752727 284.072275 
L 335.36 284.053192 
L 338.967273 284.033955 
L 342.574545 284.014565 
L 346.181818 283.995021 
L 349.789091 283.975323 
L 353.396364 283.95547 
L 357.003636 283.935462 
L 360.610909 283.915299 
L 364.218182 283.894981 
L 367.825455 283.874506 
L 371.432727 283.853876 
L 375.04 283.833089 
L 378.647273 283.812146 
L 382.254545 283.791045 
L 385.861818 283.769787 
L 389.469091 283.748372 
L 393.076364 283.726798 
L 396.683636 283.705067 
L 400.290909 283.683176 
L 403.898182 283.661127 
L 407.505455 283.638919 
L 411.112727 283.616552 
L 414.72 283.594024 
L 414.72 283.392 
L 414.72 280.704 
L 414.72 278.016 
L 414.72 275.328 
L 414.72 272.64 
L 414.72 269.952 
L 414.72 269.925515 
L 411.112727 269.951055 
L 410.977952 269.952 
L 407.505455 269.976149 
L 403.898182 270.000996 
L 400.290909 270.025603 
L 396.683636 270.049972 
L 393.076364 270.074102 
L 389.469091 270.097994 
L 385.861818 270.121648 
L 382.254545 270.145064 
L 378.647273 270.168243 
L 375.04 270.191186 
L 371.432727 270.213891 
L 367.825455 270.23636 
L 364.218182 270.258594 
L 360.610909 270.280591 
L 357.003636 270.302354 
L 353.396364 270.323881 
L 349.789091 270.345174 
L 346.181818 270.366232 
L 342.574545 270.387056 
L 338.967273 270.407647 
L 335.36 270.428004 
L 331.752727 270.448128 
L 328.145455 270.46802 
L 324.538182 270.487679 
L 320.930909 270.507106 
L 317.323636 270.526301 
L 313.716364 270.545265 
L 310.109091 270.563997 
L 306.501818 270.582499 
L 302.894545 270.60077 
L 299.287273 270.618811 
L 295.68 270.636622 
L 292.072727 270.654204 
L 288.465455 270.671556 
L 284.858182 270.68868 
L 281.250909 270.705574 
L 277.643636 270.722241 
L 274.036364 270.738679 
L 270.429091 270.75489 
L 266.821818 270.770873 
L 263.214545 270.786629 
L 259.607273 270.802159 
L 256 270.817462 
L 252.392727 270.832539 
L 248.785455 270.84739 
L 245.178182 270.862015 
L 241.570909 270.876415 
L 237.963636 270.89059 
L 234.356364 270.904541 
L 230.749091 270.918267 
L 227.141818 270.931769 
L 223.534545 270.945048 
L 219.927273 270.958103 
L 216.32 270.970935 
L 212.712727 270.983544 
L 209.105455 270.995931 
L 205.498182 271.008095 
L 201.890909 271.020037 
L 198.283636 271.031758 
L 194.676364 271.043258 
L 191.069091 271.054536 
L 187.461818 271.065594 
L 183.854545 271.076431 
L 180.247273 271.087048 
L 176.64 271.097445 
L 173.032727 271.107623 
L 169.425455 271.117581 
L 165.818182 271.12732 
L 162.210909 271.136841 
L 158.603636 271.146143 
L 154.996364 271.155227 
L 151.389091 271.164094 
L 147.781818 271.172742 
L 144.174545 271.181174 
L 140.567273 271.189388 
L 136.96 271.197386 
L 133.352727 271.205168 
L 129.745455 271.212733 
L 126.138182 271.220083 
L 122.530909 271.227217 
L 118.923636 271.234136 
L 115.316364 271.24084 
L 111.709091 271.247329 
L 108.101818 271.253604 
L 104.494545 271.259664 
L 100.887273 271.265511 
L 97.28 271.271144 
L 93.672727 271.276564 
L 90.065455 271.281771 
L 86.458182 271.286765 
L 82.850909 271.291547 
L 79.243636 271.296117 
L 75.636364 271.300475 
L 72.029091 271.304621 
L 68.421818 271.308556 
L 64.814545 271.312279 
L 61.207273 271.315792 
L 57.6 271.319095 
L 57.6 272.64 
L 57.6 275.328 
L 57.6 278.016 
L 57.6 280.704 
L 57.6 283.392 
L 57.6 285.098172 
z
" clip-path="url(#p1f340c84d9)" style="fill: #2e6e8e; fill-opacity: 0.75"/>
   </g>
   <g id="PathCollection_4">
    <path d="M 61.207273 271.315792 
L 64.814545 271.312279 
L 68.421818 271.308556 
L 72.029091 271.304621 
L 75.636364 271.300475 
L 79.243636 271.296117 
L 82.850909 271.291547 
L 86.458182 271.286765 
L 90.065455 271.281771 
L 93.672727 271.276564 
L 97.28 271.271144 
L 100.887273 271.265511 
L 104.494545 271.259664 
L 108.101818 271.253604 
L 111.709091 271.247329 
L 115.316364 271.24084 
L 118.923636 271.234136 
L 122.530909 271.227217 
L 126.138182 271.220083 
L 129.745455 271.212733 
L 133.352727 271.205168 
L 136.96 271.197386 
L 140.567273 271.189388 
L 144.174545 271.181174 
L 147.781818 271.172742 
L 151.389091 271.164094 
L 154.996364 271.155227 
L 158.603636 271.146143 
L 162.210909 271.136841 
L 165.818182 271.12732 
L 169.425455 271.117581 
L 173.032727 271.107623 
L 176.64 271.097445 
L 180.247273 271.087048 
L 183.854545 271.076431 
L 187.461818 271.065594 
L 191.069091 271.054536 
L 194.676364 271.043258 
L 198.283636 271.031758 
L 201.890909 271.020037 
L 205.498182 271.008095 
L 209.105455 270.995931 
L 212.712727 270.983544 
L 216.32 270.970935 
L 219.927273 270.958103 
L 223.534545 270.945048 
L 227.141818 270.931769 
L 230.749091 270.918267 
L 234.356364 270.904541 
L 237.963636 270.89059 
L 241.570909 270.876415 
L 245.178182 270.862015 
L 248.785455 270.84739 
L 252.392727 270.832539 
L 256 270.817462 
L 259.607273 270.802159 
L 263.214545 270.786629 
L 266.821818 270.770873 
L 270.429091 270.75489 
L 274.036364 270.738679 
L 277.643636 270.722241 
L 281.250909 270.705574 
L 284.858182 270.68868 
L 288.465455 270.671556 
L 292.072727 270.654204 
L 295.68 270.636622 
L 299.287273 270.618811 
L 302.894545 270.60077 
L 306.501818 270.582499 
L 310.109091 270.563997 
L 313.716364 270.545265 
L 317.323636 270.526301 
L 320.930909 270.507106 
L 324.538182 270.487679 
L 328.145455 270.46802 
L 331.752727 270.448128 
L 335.36 270.428004 
L 338.967273 270.407647 
L 342.574545 270.387056 
L 346.181818 270.366232 
L 349.789091 270.345174 
L 353.396364 270.323881 
L 357.003636 270.302354 
L 360.610909 270.280591 
L 364.218182 270.258594 
L 367.825455 270.23636 
L 371.432727 270.213891 
L 375.04 270.191186 
L 378.647273 270.168243 
L 382.254545 270.145064 
L 385.861818 270.121648 
L 389.469091 270.097994 
L 393.076364 270.074102 
L 396.683636 270.049972 
L 400.290909 270.025603 
L 403.898182 270.000996 
L 407.505455 269.976149 
L 410.977952 269.952 
L 411.112727 269.951055 
L 414.72 269.925515 
L 414.72 267.264 
L 414.72 264.576 
L 414.72 261.888 
L 414.72 259.2 
L 414.72 256.512 
L 414.72 255.623694 
L 411.112727 255.654456 
L 407.505455 255.684873 
L 403.898182 255.714944 
L 400.290909 255.744671 
L 396.683636 255.774054 
L 393.076364 255.803094 
L 389.469091 255.831789 
L 385.861818 255.860142 
L 382.254545 255.888152 
L 378.647273 255.91582 
L 375.04 255.943146 
L 371.432727 255.970131 
L 367.825455 255.996775 
L 364.218182 256.023077 
L 360.610909 256.04904 
L 357.003636 256.074663 
L 353.396364 256.099946 
L 349.789091 256.124889 
L 346.181818 256.149495 
L 342.574545 256.173761 
L 338.967273 256.19769 
L 335.36 256.221281 
L 331.752727 256.244534 
L 328.145455 256.267451 
L 324.538182 256.290031 
L 320.930909 256.312274 
L 317.323636 256.334182 
L 313.716364 256.355754 
L 310.109091 256.376992 
L 306.501818 256.397894 
L 302.894545 256.418462 
L 299.287273 256.438696 
L 295.68 256.458596 
L 292.072727 256.478163 
L 288.465455 256.497396 
L 285.678326 256.512 
L 284.858182 256.516209 
L 281.250909 256.534399 
L 277.643636 256.552264 
L 274.036364 256.569804 
L 270.429091 256.587019 
L 266.821818 256.603911 
L 263.214545 256.620479 
L 259.607273 256.636723 
L 256 256.652645 
L 252.392727 256.668243 
L 248.785455 256.68352 
L 245.178182 256.698474 
L 241.570909 256.713106 
L 237.963636 256.727417 
L 234.356364 256.741407 
L 230.749091 256.755076 
L 227.141818 256.768425 
L 223.534545 256.781453 
L 219.927273 256.794161 
L 216.32 256.80655 
L 212.712727 256.81862 
L 209.105455 256.83037 
L 205.498182 256.841802 
L 201.890909 256.852915 
L 198.283636 256.863711 
L 194.676364 256.874188 
L 191.069091 256.884348 
L 187.461818 256.894191 
L 183.854545 256.903717 
L 180.247273 256.912926 
L 176.64 256.921819 
L 173.032727 256.930396 
L 169.425455 256.938657 
L 165.818182 256.946602 
L 162.210909 256.954232 
L 158.603636 256.961548 
L 154.996364 256.968548 
L 151.389091 256.975235 
L 147.781818 256.981607 
L 144.174545 256.987665 
L 140.567273 256.99341 
L 136.96 256.998841 
L 133.352727 257.00396 
L 129.745455 257.008765 
L 126.138182 257.013259 
L 122.530909 257.017439 
L 118.923636 257.021308 
L 115.316364 257.024865 
L 111.709091 257.028111 
L 108.101818 257.031045 
L 104.494545 257.033669 
L 100.887273 257.035981 
L 97.28 257.037984 
L 93.672727 257.039676 
L 90.065455 257.041058 
L 86.458182 257.04213 
L 82.850909 257.042893 
L 79.243636 257.043346 
L 75.636364 257.043491 
L 72.029091 257.043326 
L 68.421818 257.042853 
L 64.814545 257.042072 
L 61.207273 257.040983 
L 57.6 257.039586 
L 57.6 259.2 
L 57.6 261.888 
L 57.6 264.576 
L 57.6 267.264 
L 57.6 269.952 
L 57.6 271.319095 
z
" clip-path="url(#p1f340c84d9)" style="fill: #21918c; fill-opacity: 0.75"/>
   </g>
   <g id="PathCollection_5">
    <path d="M 61.207273 257.040983 
L 64.814545 257.042072 
L 68.421818 257.042853 
L 72.029091 257.043326 
L 75.636364 257.043491 
L 79.243636 257.043346 
L 82.850909 257.042893 
L 86.458182 257.04213 
L 90.065455 257.041058 
L 93.672727 257.039676 
L 97.28 257.037984 
L 100.887273 257.035981 
L 104.494545 257.033669 
L 108.101818 257.031045 
L 111.709091 257.028111 
L 115.316364 257.024865 
L 118.923636 257.021308 
L 122.530909 257.017439 
L 126.138182 257.013259 
L 129.745455 257.008765 
L 133.352727 257.00396 
L 136.96 256.998841 
L 140.567273 256.99341 
L 144.174545 256.987665 
L 147.781818 256.981607 
L 151.389091 256.975235 
L 154.996364 256.968548 
L 158.603636 256.961548 
L 162.210909 256.954232 
L 165.818182 256.946602 
L 169.425455 256.938657 
L 173.032727 256.930396 
L 176.64 256.921819 
L 180.247273 256.912926 
L 183.854545 256.903717 
L 187.461818 256.894191 
L 191.069091 256.884348 
L 194.676364 256.874188 
L 198.283636 256.863711 
L 201.890909 256.852915 
L 205.498182 256.841802 
L 209.105455 256.83037 
L 212.712727 256.81862 
L 216.32 256.80655 
L 219.927273 256.794161 
L 223.534545 256.781453 
L 227.141818 256.768425 
L 230.749091 256.755076 
L 234.356364 256.741407 
L 237.963636 256.727417 
L 241.570909 256.713106 
L 245.178182 256.698474 
L 248.785455 256.68352 
L 252.392727 256.668243 
L 256 256.652645 
L 259.607273 256.636723 
L 263.214545 256.620479 
L 266.821818 256.603911 
L 270.429091 256.587019 
L 274.036364 256.569804 
L 277.643636 256.552264 
L 281.250909 256.534399 
L 284.858182 256.516209 
L 285.678326 256.512 
L 288.465455 256.497396 
L 292.072727 256.478163 
L 295.68 256.458596 
L 299.287273 256.438696 
L 302.894545 256.418462 
L 306.501818 256.397894 
L 310.109091 256.376992 
L 313.716364 256.355754 
L 317.323636 256.334182 
L 320.930909 256.312274 
L 324.538182 256.290031 
L 328.145455 256.267451 
L 331.752727 256.244534 
L 335.36 256.221281 
L 338.967273 256.19769 
L 342.574545 256.173761 
L 346.181818 256.149495 
L 349.789091 256.124889 
L 353.396364 256.099946 
L 357.003636 256.074663 
L 360.610909 256.04904 
L 364.218182 256.023077 
L 367.825455 255.996775 
L 371.432727 255.970131 
L 375.04 255.943146 
L 378.647273 255.91582 
L 382.254545 255.888152 
L 385.861818 255.860142 
L 389.469091 255.831789 
L 393.076364 255.803094 
L 396.683636 255.774054 
L 400.290909 255.744671 
L 403.898182 255.714944 
L 407.505455 255.684873 
L 411.112727 255.654456 
L 414.72 255.623694 
L 414.72 253.824 
L 414.72 251.136 
L 414.72 248.448 
L 414.72 245.76 
L 414.72 243.072 
L 414.72 240.384 
L 414.72 239.383485 
L 411.112727 239.42475 
L 407.505455 239.465503 
L 403.898182 239.505743 
L 400.290909 239.545471 
L 396.683636 239.584688 
L 393.076364 239.623394 
L 389.469091 239.66159 
L 385.861818 239.699276 
L 382.254545 239.736452 
L 378.647273 239.77312 
L 375.04 239.809279 
L 371.432727 239.844931 
L 367.825455 239.880075 
L 364.218182 239.914713 
L 360.610909 239.948844 
L 357.003636 239.982469 
L 353.396364 240.015589 
L 349.789091 240.048204 
L 346.181818 240.080315 
L 342.574545 240.111922 
L 338.967273 240.143026 
L 335.36 240.173627 
L 331.752727 240.203725 
L 328.145455 240.233321 
L 324.538182 240.262416 
L 320.930909 240.29101 
L 317.323636 240.319104 
L 313.716364 240.346697 
L 310.109091 240.373791 
L 308.724429 240.384 
L 306.501818 240.399763 
L 302.894545 240.424868 
L 299.287273 240.449494 
L 295.68 240.473642 
L 292.072727 240.497311 
L 288.465455 240.520503 
L 284.858182 240.543218 
L 281.250909 240.565456 
L 277.643636 240.587217 
L 274.036364 240.608503 
L 270.429091 240.629313 
L 266.821818 240.649648 
L 263.214545 240.669509 
L 259.607273 240.688895 
L 256 240.707807 
L 252.392727 240.726245 
L 248.785455 240.744211 
L 245.178182 240.761703 
L 241.570909 240.778724 
L 237.963636 240.795272 
L 234.356364 240.811349 
L 230.749091 240.826955 
L 227.141818 240.84209 
L 223.534545 240.856754 
L 219.927273 240.870949 
L 216.32 240.884673 
L 212.712727 240.897929 
L 209.105455 240.910715 
L 205.498182 240.923033 
L 201.890909 240.934883 
L 198.283636 240.946265 
L 194.676364 240.957179 
L 191.069091 240.967627 
L 187.461818 240.977607 
L 183.854545 240.987121 
L 180.247273 240.996169 
L 176.64 241.004751 
L 173.032727 241.012868 
L 169.425455 241.020519 
L 165.818182 241.027706 
L 162.210909 241.034429 
L 158.603636 241.040687 
L 154.996364 241.046481 
L 151.389091 241.051812 
L 147.781818 241.05668 
L 144.174545 241.061085 
L 140.567273 241.065028 
L 136.96 241.068509 
L 133.352727 241.071527 
L 129.745455 241.074084 
L 126.138182 241.07618 
L 122.530909 241.077814 
L 118.923636 241.078988 
L 115.316364 241.079702 
L 111.709091 241.079955 
L 108.101818 241.079749 
L 104.494545 241.079083 
L 100.887273 241.077958 
L 97.28 241.076374 
L 93.672727 241.074331 
L 90.065455 241.07183 
L 86.458182 241.068871 
L 82.850909 241.065453 
L 79.243636 241.061579 
L 75.636364 241.057246 
L 72.029091 241.052457 
L 68.421818 241.047211 
L 64.814545 241.041508 
L 61.207273 241.035349 
L 57.6 241.028733 
L 57.6 243.072 
L 57.6 245.76 
L 57.6 248.448 
L 57.6 251.136 
L 57.6 253.824 
L 57.6 256.512 
L 57.6 257.039586 
z
" clip-path="url(#p1f340c84d9)" style="fill: #2db27d; fill-opacity: 0.75"/>
   </g>
   <g id="PathCollection_6">
    <path d="M 61.207273 241.035349 
L 64.814545 241.041508 
L 68.421818 241.047211 
L 72.029091 241.052457 
L 75.636364 241.057246 
L 79.243636 241.061579 
L 82.850909 241.065453 
L 86.458182 241.068871 
L 90.065455 241.07183 
L 93.672727 241.074331 
L 97.28 241.076374 
L 100.887273 241.077958 
L 104.494545 241.079083 
L 108.101818 241.079749 
L 111.709091 241.079955 
L 115.316364 241.079702 
L 118.923636 241.078988 
L 122.530909 241.077814 
L 126.138182 241.07618 
L 129.745455 241.074084 
L 133.352727 241.071527 
L 136.96 241.068509 
L 140.567273 241.065028 
L 144.174545 241.061085 
L 147.781818 241.05668 
L 151.389091 241.051812 
L 154.996364 241.046481 
L 158.603636 241.040687 
L 162.210909 241.034429 
L 165.818182 241.027706 
L 169.425455 241.020519 
L 173.032727 241.012868 
L 176.64 241.004751 
L 180.247273 240.996169 
L 183.854545 240.987121 
L 187.461818 240.977607 
L 191.069091 240.967627 
L 194.676364 240.957179 
L 198.283636 240.946265 
L 201.890909 240.934883 
L 205.498182 240.923033 
L 209.105455 240.910715 
L 212.712727 240.897929 
L 216.32 240.884673 
L 219.927273 240.870949 
L 223.534545 240.856754 
L 227.141818 240.84209 
L 230.749091 240.826955 
L 234.356364 240.811349 
L 237.963636 240.795272 
L 241.570909 240.778724 
L 245.178182 240.761703 
L 248.785455 240.744211 
L 252.392727 240.726245 
L 256 240.707807 
L 259.607273 240.688895 
L 263.214545 240.669509 
L 266.821818 240.649648 
L 270.429091 240.629313 
L 274.036364 240.608503 
L 277.643636 240.587217 
L 281.250909 240.565456 
L 284.858182 240.543218 
L 288.465455 240.520503 
L 292.072727 240.497311 
L 295.68 240.473642 
L 299.287273 240.449494 
L 302.894545 240.424868 
L 306.501818 240.399763 
L 308.724429 240.384 
L 310.109091 240.373791 
L 313.716364 240.346697 
L 317.323636 240.319104 
L 320.930909 240.29101 
L 324.538182 240.262416 
L 328.145455 240.233321 
L 331.752727 240.203725 
L 335.36 240.173627 
L 338.967273 240.143026 
L 342.574545 240.111922 
L 346.181818 240.080315 
L 349.789091 240.048204 
L 353.396364 240.015589 
L 357.003636 239.982469 
L 360.610909 239.948844 
L 364.218182 239.914713 
L 367.825455 239.880075 
L 371.432727 239.844931 
L 375.04 239.809279 
L 378.647273 239.77312 
L 382.254545 239.736452 
L 385.861818 239.699276 
L 389.469091 239.66159 
L 393.076364 239.623394 
L 396.683636 239.584688 
L 400.290909 239.545471 
L 403.898182 239.505743 
L 407.505455 239.465503 
L 411.112727 239.42475 
L 414.72 239.383485 
L 414.72 237.696 
L 414.72 235.008 
L 414.72 232.32 
L 414.72 229.632 
L 414.72 226.944 
L 414.72 224.256 
L 414.72 221.568 
L 414.72 218.88 
L 414.72 217.334314 
L 411.112727 217.408474 
L 407.505455 217.481665 
L 403.898182 217.553888 
L 400.290909 217.625145 
L 396.683636 217.695436 
L 393.076364 217.764761 
L 389.469091 217.833122 
L 385.861818 217.900521 
L 382.254545 217.966956 
L 378.647273 218.032431 
L 375.04 218.096944 
L 371.432727 218.160499 
L 367.825455 218.223094 
L 364.218182 218.284732 
L 360.610909 218.345413 
L 357.003636 218.405137 
L 353.396364 218.463907 
L 349.789091 218.521723 
L 346.181818 218.578585 
L 342.574545 218.634495 
L 338.967273 218.689454 
L 335.36 218.743462 
L 331.752727 218.79652 
L 328.145455 218.848629 
L 325.933786 218.88 
L 324.538182 218.898309 
L 320.930909 218.944763 
L 317.323636 218.990344 
L 313.716364 219.035053 
L 310.109091 219.078889 
L 306.501818 219.121855 
L 302.894545 219.163949 
L 299.287273 219.205175 
L 295.68 219.245531 
L 292.072727 219.28502 
L 288.465455 219.323641 
L 284.858182 219.361396 
L 281.250909 219.398285 
L 277.643636 219.434309 
L 274.036364 219.469469 
L 270.429091 219.503766 
L 266.821818 219.5372 
L 263.214545 219.569773 
L 259.607273 219.601484 
L 256 219.632335 
L 252.392727 219.662327 
L 248.785455 219.69146 
L 245.178182 219.719734 
L 241.570909 219.747152 
L 237.963636 219.773713 
L 234.356364 219.799418 
L 230.749091 219.824268 
L 227.141818 219.848264 
L 223.534545 219.871407 
L 219.927273 219.893696 
L 216.32 219.915134 
L 212.712727 219.93572 
L 209.105455 219.955455 
L 205.498182 219.974341 
L 201.890909 219.992378 
L 198.283636 220.009566 
L 194.676364 220.025906 
L 191.069091 220.041399 
L 187.461818 220.056046 
L 183.854545 220.069848 
L 180.247273 220.082804 
L 176.64 220.094916 
L 173.032727 220.106185 
L 169.425455 220.116611 
L 165.818182 220.126195 
L 162.210909 220.134937 
L 158.603636 220.142839 
L 154.996364 220.1499 
L 151.389091 220.156123 
L 147.781818 220.161506 
L 144.174545 220.166051 
L 140.567273 220.169759 
L 136.96 220.172631 
L 133.352727 220.174666 
L 129.745455 220.175866 
L 126.138182 220.176231 
L 122.530909 220.175762 
L 118.923636 220.174459 
L 115.316364 220.172324 
L 111.709091 220.169357 
L 108.101818 220.165558 
L 104.494545 220.160928 
L 100.887273 220.155467 
L 97.28 220.149177 
L 93.672727 220.142059 
L 90.065455 220.134111 
L 86.458182 220.125336 
L 82.850909 220.115734 
L 79.243636 220.105305 
L 75.636364 220.09405 
L 72.029091 220.081969 
L 68.421818 220.069064 
L 64.814545 220.055335 
L 61.207273 220.040782 
L 57.6 220.025405 
L 57.6 221.568 
L 57.6 224.256 
L 57.6 226.944 
L 57.6 229.632 
L 57.6 232.32 
L 57.6 235.008 
L 57.6 237.696 
L 57.6 240.384 
L 57.6 241.028733 
z
" clip-path="url(#p1f340c84d9)" style="fill: #73d056; fill-opacity: 0.75"/>
    <path d="M 403.898182 143.637115 
L 407.505455 143.763645 
L 411.112727 143.891348 
L 414.72 144.020224 
L 414.72 143.616 
L 414.72 140.928 
L 414.72 138.24 
L 414.72 135.552 
L 414.72 132.864 
L 414.72 130.176 
L 414.72 127.488 
L 414.72 124.8 
L 414.72 122.112 
L 414.72 119.424 
L 414.72 116.736 
L 414.72 114.048 
L 414.72 111.36 
L 414.72 108.672 
L 414.72 105.984 
L 414.72 103.296 
L 414.72 100.608 
L 414.72 97.92 
L 414.72 95.232 
L 414.72 92.544 
L 414.72 89.856 
L 414.72 87.168 
L 414.72 84.48 
L 414.72 81.792 
L 414.72 79.104 
L 414.72 76.416 
L 414.72 73.728 
L 414.72 71.04 
L 414.72 68.352 
L 414.72 65.664 
L 414.72 62.976 
L 414.72 60.288 
L 414.72 57.6 
L 414.72 54.912 
L 414.72 52.224 
L 414.72 49.536 
L 414.72 46.848 
L 414.72 44.16 
L 414.72 41.472 
L 411.112727 41.472 
L 407.505455 41.472 
L 403.898182 41.472 
L 400.290909 41.472 
L 396.683636 41.472 
L 393.076364 41.472 
L 389.469091 41.472 
L 385.861818 41.472 
L 382.254545 41.472 
L 378.647273 41.472 
L 375.04 41.472 
L 371.432727 41.472 
L 367.825455 41.472 
L 364.218182 41.472 
L 360.610909 41.472 
L 357.003636 41.472 
L 353.396364 41.472 
L 349.789091 41.472 
L 346.181818 41.472 
L 342.574545 41.472 
L 338.967273 41.472 
L 335.36 41.472 
L 331.752727 41.472 
L 328.145455 41.472 
L 324.538182 41.472 
L 320.930909 41.472 
L 317.323636 41.472 
L 313.716364 41.472 
L 310.109091 41.472 
L 306.501818 41.472 
L 302.894545 41.472 
L 299.287273 41.472 
L 295.68 41.472 
L 292.072727 41.472 
L 288.465455 41.472 
L 284.858182 41.472 
L 281.250909 41.472 
L 277.643636 41.472 
L 274.036364 41.472 
L 270.429091 41.472 
L 266.821818 41.472 
L 263.214545 41.472 
L 259.607273 41.472 
L 256 41.472 
L 252.392727 41.472 
L 248.785455 41.472 
L 245.178182 41.472 
L 241.570909 41.472 
L 237.963636 41.472 
L 234.356364 41.472 
L 230.749091 41.472 
L 227.141818 41.472 
L 223.534545 41.472 
L 219.927273 41.472 
L 216.32 41.472 
L 212.712727 41.472 
L 209.105455 41.472 
L 205.498182 41.472 
L 201.890909 41.472 
L 198.283636 41.472 
L 194.676364 41.472 
L 191.069091 41.472 
L 187.461818 41.472 
L 183.854545 41.472 
L 180.247273 41.472 
L 176.64 41.472 
L 173.032727 41.472 
L 169.425455 41.472 
L 165.818182 41.472 
L 162.210909 41.472 
L 158.603636 41.472 
L 154.996364 41.472 
L 151.389091 41.472 
L 147.781818 41.472 
L 144.174545 41.472 
L 140.567273 41.472 
L 136.96 41.472 
L 133.352727 41.472 
L 129.745455 41.472 
L 126.138182 41.472 
L 122.530909 41.472 
L 118.923636 41.472 
L 115.316364 41.472 
L 111.709091 41.472 
L 108.101818 41.472 
L 104.494545 41.472 
L 100.887273 41.472 
L 97.28 41.472 
L 93.672727 41.472 
L 90.065455 41.472 
L 86.458182 41.472 
L 82.850909 41.472 
L 79.243636 41.472 
L 75.636364 41.472 
L 72.029091 41.472 
L 68.421818 41.472 
L 64.814545 41.472 
L 61.207273 41.472 
L 57.6 41.472 
L 57.6 44.16 
L 57.6 46.848 
L 57.6 49.536 
L 57.6 52.224 
L 57.6 54.912 
L 57.6 57.6 
L 57.6 60.288 
L 57.6 62.976 
L 57.6 65.664 
L 57.6 68.352 
L 57.6 71.04 
L 57.6 73.728 
L 57.6 76.416 
L 57.6 79.104 
L 57.6 81.792 
L 57.6 84.48 
L 57.6 87.168 
L 57.6 89.856 
L 57.6 92.544 
L 57.6 95.232 
L 57.6 97.92 
L 57.6 100.608 
L 57.6 103.296 
L 57.6 105.984 
L 57.6 108.672 
L 57.6 111.36 
L 57.6 114.048 
L 57.6 116.736 
L 57.6 119.424 
L 57.6 122.112 
L 57.6 124.8 
L 57.6 127.488 
L 57.6 130.176 
L 57.6 132.864 
L 57.6 135.552 
L 57.6 137.043896 
L 61.207273 137.058772 
L 64.814545 137.074799 
L 68.421818 137.091974 
L 72.029091 137.110297 
L 75.636364 137.129765 
L 79.243636 137.150376 
L 82.850909 137.172129 
L 86.458182 137.195022 
L 90.065455 137.219053 
L 93.672727 137.244222 
L 97.28 137.270526 
L 100.887273 137.297963 
L 104.494545 137.326533 
L 108.101818 137.356234 
L 111.709091 137.387064 
L 115.316364 137.419022 
L 118.923636 137.452108 
L 122.530909 137.486318 
L 126.138182 137.521653 
L 129.745455 137.558111 
L 133.352727 137.595691 
L 136.96 137.634391 
L 140.567273 137.674211 
L 144.174545 137.715149 
L 147.781818 137.757205 
L 151.389091 137.800377 
L 154.996364 137.844665 
L 158.603636 137.890067 
L 162.210909 137.936583 
L 165.818182 137.984211 
L 169.425455 138.032952 
L 173.032727 138.082803 
L 176.64 138.133765 
L 180.247273 138.185837 
L 183.854545 138.239017 
L 183.919827 138.24 
L 187.461818 138.293624 
L 191.069091 138.349351 
L 194.676364 138.40619 
L 198.283636 138.464141 
L 201.890909 138.523203 
L 205.498182 138.583377 
L 209.105455 138.644661 
L 212.712727 138.707056 
L 216.32 138.77056 
L 219.927273 138.835174 
L 223.534545 138.900896 
L 227.141818 138.967728 
L 230.749091 139.035667 
L 234.356364 139.104716 
L 237.963636 139.174872 
L 241.570909 139.246136 
L 245.178182 139.318508 
L 248.785455 139.391988 
L 252.392727 139.466575 
L 256 139.54227 
L 259.607273 139.619073 
L 263.214545 139.696983 
L 266.821818 139.776002 
L 270.429091 139.856128 
L 274.036364 139.937363 
L 277.643636 140.019706 
L 281.250909 140.103157 
L 284.858182 140.187718 
L 288.465455 140.273387 
L 292.072727 140.360166 
L 295.68 140.448055 
L 299.287273 140.537054 
L 302.894545 140.627164 
L 306.501818 140.718386 
L 310.109091 140.810719 
L 313.716364 140.904164 
L 314.625548 140.928 
L 317.323636 140.999599 
L 320.930909 141.096456 
L 324.538182 141.194439 
L 328.145455 141.293549 
L 331.752727 141.393786 
L 335.36 141.495151 
L 338.967273 141.597646 
L 342.574545 141.70127 
L 346.181818 141.806024 
L 349.789091 141.911911 
L 353.396364 142.01893 
L 357.003636 142.127082 
L 360.610909 142.236368 
L 364.218182 142.346791 
L 367.825455 142.45835 
L 371.432727 142.571046 
L 375.04 142.684882 
L 378.647273 142.799857 
L 382.254545 142.915974 
L 385.861818 143.033234 
L 389.469091 143.151637 
L 393.076364 143.271185 
L 396.683636 143.391881 
L 400.290909 143.513724 
L 403.290589 143.616 
z
" clip-path="url(#p1f340c84d9)" style="fill: #73d056; fill-opacity: 0.75"/>
   </g>
   <g id="PathCollection_7">
    <path d="M 61.207273 220.040782 
L 64.814545 220.055335 
L 68.421818 220.069064 
L 72.029091 220.081969 
L 75.636364 220.09405 
L 79.243636 220.105305 
L 82.850909 220.115734 
L 86.458182 220.125336 
L 90.065455 220.134111 
L 93.672727 220.142059 
L 97.28 220.149177 
L 100.887273 220.155467 
L 104.494545 220.160928 
L 108.101818 220.165558 
L 111.709091 220.169357 
L 115.316364 220.172324 
L 118.923636 220.174459 
L 122.530909 220.175762 
L 126.138182 220.176231 
L 129.745455 220.175866 
L 133.352727 220.174666 
L 136.96 220.172631 
L 140.567273 220.169759 
L 144.174545 220.166051 
L 147.781818 220.161506 
L 151.389091 220.156123 
L 154.996364 220.1499 
L 158.603636 220.142839 
L 162.210909 220.134937 
L 165.818182 220.126195 
L 169.425455 220.116611 
L 173.032727 220.106185 
L 176.64 220.094916 
L 180.247273 220.082804 
L 183.854545 220.069848 
L 187.461818 220.056046 
L 191.069091 220.041399 
L 194.676364 220.025906 
L 198.283636 220.009566 
L 201.890909 219.992378 
L 205.498182 219.974341 
L 209.105455 219.955455 
L 212.712727 219.93572 
L 216.32 219.915134 
L 219.927273 219.893696 
L 223.534545 219.871407 
L 227.141818 219.848264 
L 230.749091 219.824268 
L 234.356364 219.799418 
L 237.963636 219.773713 
L 241.570909 219.747152 
L 245.178182 219.719734 
L 248.785455 219.69146 
L 252.392727 219.662327 
L 256 219.632335 
L 259.607273 219.601484 
L 263.214545 219.569773 
L 266.821818 219.5372 
L 270.429091 219.503766 
L 274.036364 219.469469 
L 277.643636 219.434309 
L 281.250909 219.398285 
L 284.858182 219.361396 
L 288.465455 219.323641 
L 292.072727 219.28502 
L 295.68 219.245531 
L 299.287273 219.205175 
L 302.894545 219.163949 
L 306.501818 219.121855 
L 310.109091 219.078889 
L 313.716364 219.035053 
L 317.323636 218.990344 
L 320.930909 218.944763 
L 324.538182 218.898309 
L 325.933786 218.88 
L 328.145455 218.848629 
L 331.752727 218.79652 
L 335.36 218.743462 
L 338.967273 218.689454 
L 342.574545 218.634495 
L 346.181818 218.578585 
L 349.789091 218.521723 
L 353.396364 218.463907 
L 357.003636 218.405137 
L 360.610909 218.345413 
L 364.218182 218.284732 
L 367.825455 218.223094 
L 371.432727 218.160499 
L 375.04 218.096944 
L 378.647273 218.032431 
L 382.254545 217.966956 
L 385.861818 217.900521 
L 389.469091 217.833122 
L 393.076364 217.764761 
L 396.683636 217.695436 
L 400.290909 217.625145 
L 403.898182 217.553888 
L 407.505455 217.481665 
L 411.112727 217.408474 
L 414.72 217.334314 
L 414.72 216.192 
L 414.72 213.504 
L 414.72 210.816 
L 414.72 208.128 
L 414.72 205.44 
L 414.72 202.752 
L 414.72 200.064 
L 414.72 197.376 
L 414.72 194.688 
L 414.72 192 
L 414.72 189.312 
L 414.72 186.624 
L 414.72 183.936 
L 414.72 181.248 
L 414.72 178.56 
L 414.72 175.872 
L 414.72 173.184 
L 414.72 170.496 
L 414.72 167.808 
L 414.72 165.12 
L 414.72 162.432 
L 414.72 159.744 
L 414.72 157.056 
L 414.72 154.368 
L 414.72 151.68 
L 414.72 148.992 
L 414.72 146.304 
L 414.72 144.020224 
L 411.112727 143.891348 
L 407.505455 143.763645 
L 403.898182 143.637115 
L 403.290589 143.616 
L 400.290909 143.513724 
L 396.683636 143.391881 
L 393.076364 143.271185 
L 389.469091 143.151637 
L 385.861818 143.033234 
L 382.254545 142.915974 
L 378.647273 142.799857 
L 375.04 142.684882 
L 371.432727 142.571046 
L 367.825455 142.45835 
L 364.218182 142.346791 
L 360.610909 142.236368 
L 357.003636 142.127082 
L 353.396364 142.01893 
L 349.789091 141.911911 
L 346.181818 141.806024 
L 342.574545 141.70127 
L 338.967273 141.597646 
L 335.36 141.495151 
L 331.752727 141.393786 
L 328.145455 141.293549 
L 324.538182 141.194439 
L 320.930909 141.096456 
L 317.323636 140.999599 
L 314.625548 140.928 
L 313.716364 140.904164 
L 310.109091 140.810719 
L 306.501818 140.718386 
L 302.894545 140.627164 
L 299.287273 140.537054 
L 295.68 140.448055 
L 292.072727 140.360166 
L 288.465455 140.273387 
L 284.858182 140.187718 
L 281.250909 140.103157 
L 277.643636 140.019706 
L 274.036364 139.937363 
L 270.429091 139.856128 
L 266.821818 139.776002 
L 263.214545 139.696983 
L 259.607273 139.619073 
L 256 139.54227 
L 252.392727 139.466575 
L 248.785455 139.391988 
L 245.178182 139.318508 
L 241.570909 139.246136 
L 237.963636 139.174872 
L 234.356364 139.104716 
L 230.749091 139.035667 
L 227.141818 138.967728 
L 223.534545 138.900896 
L 219.927273 138.835174 
L 216.32 138.77056 
L 212.712727 138.707056 
L 209.105455 138.644661 
L 205.498182 138.583377 
L 201.890909 138.523203 
L 198.283636 138.464141 
L 194.676364 138.40619 
L 191.069091 138.349351 
L 187.461818 138.293624 
L 183.919827 138.24 
L 183.854545 138.239017 
L 180.247273 138.185837 
L 176.64 138.133765 
L 173.032727 138.082803 
L 169.425455 138.032952 
L 165.818182 137.984211 
L 162.210909 137.936583 
L 158.603636 137.890067 
L 154.996364 137.844665 
L 151.389091 137.800377 
L 147.781818 137.757205 
L 144.174545 137.715149 
L 140.567273 137.674211 
L 136.96 137.634391 
L 133.352727 137.595691 
L 129.745455 137.558111 
L 126.138182 137.521653 
L 122.530909 137.486318 
L 118.923636 137.452108 
L 115.316364 137.419022 
L 111.709091 137.387064 
L 108.101818 137.356234 
L 104.494545 137.326533 
L 100.887273 137.297963 
L 97.28 137.270526 
L 93.672727 137.244222 
L 90.065455 137.219053 
L 86.458182 137.195022 
L 82.850909 137.172129 
L 79.243636 137.150376 
L 75.636364 137.129765 
L 72.029091 137.110297 
L 68.421818 137.091974 
L 64.814545 137.074799 
L 61.207273 137.058772 
L 57.6 137.043896 
L 57.6 138.24 
L 57.6 140.928 
L 57.6 143.616 
L 57.6 146.304 
L 57.6 148.992 
L 57.6 151.68 
L 57.6 154.368 
L 57.6 157.056 
L 57.6 159.744 
L 57.6 162.432 
L 57.6 165.12 
L 57.6 167.808 
L 57.6 170.496 
L 57.6 173.184 
L 57.6 175.872 
L 57.6 178.56 
L 57.6 181.248 
L 57.6 183.936 
L 57.6 186.624 
L 57.6 189.312 
L 57.6 192 
L 57.6 194.688 
L 57.6 197.376 
L 57.6 200.064 
L 57.6 202.752 
L 57.6 205.44 
L 57.6 208.128 
L 57.6 210.816 
L 57.6 213.504 
L 57.6 216.192 
L 57.6 218.88 
L 57.6 220.025405 
z
" clip-path="url(#p1f340c84d9)" style="fill: #d0e11c; fill-opacity: 0.75"/>
   </g>
   <g id="matplotlib.axis_1">
    <g id="xtick_1">
     <g id="line2d_1">
      <defs>
       <path id="m1ea36cfde6" d="M 0 0 
L 0 3.5 
" style="stroke: #000000; stroke-width: 0.8"/>
      </defs>
      <g>
       <use xlink:href="#m1ea36cfde6" x="117.804183" y="307.584" style="stroke: #000000; stroke-width: 0.8"/>
      </g>
     </g>
     <g id="text_1">
      <!-- 5 -->
      <g transform="translate(114.622933 322.182437) scale(0.1 -0.1)">
       <defs>
        <path id="DejaVuSans-35" d="M 691 4666 
L 3169 4666 
L 3169 4134 
L 1269 4134 
L 1269 2991 
Q 1406 3038 1543 3061 
Q 1681 3084 1819 3084 
Q 2600 3084 3056 2656 
Q 3513 2228 3513 1497 
Q 3513 744 3044 326 
Q 2575 -91 1722 -91 
Q 1428 -91 1123 -41 
Q 819 9 494 109 
L 494 744 
Q 775 591 1075 516 
Q 1375 441 1709 441 
Q 2250 441 2565 725 
Q 2881 1009 2881 1497 
Q 2881 1984 2565 2268 
Q 2250 2553 1709 2553 
Q 1456 2553 1204 2497 
Q 953 2441 691 2322 
L 691 4666 
z
" transform="scale(0.015625)"/>
       </defs>
       <use xlink:href="#DejaVuSans-35"/>
      </g>
     </g>
    </g>
    <g id="xtick_2">
     <g id="line2d_2">
      <g>
       <use xlink:href="#m1ea36cfde6" x="191.10949" y="307.584" style="stroke: #000000; stroke-width: 0.8"/>
      </g>
     </g>
     <g id="text_2">
      <!-- 10 -->
      <g transform="translate(184.74699 322.182437) scale(0.1 -0.1)">
       <defs>
        <path id="DejaVuSans-31" d="M 794 531 
L 1825 531 
L 1825 4091 
L 703 3866 
L 703 4441 
L 1819 4666 
L 2450 4666 
L 2450 531 
L 3481 531 
L 3481 0 
L 794 0 
L 794 531 
z
" transform="scale(0.015625)"/>
        <path id="DejaVuSans-30" d="M 2034 4250 
Q 1547 4250 1301 3770 
Q 1056 3291 1056 2328 
Q 1056 1369 1301 889 
Q 1547 409 2034 409 
Q 2525 409 2770 889 
Q 3016 1369 3016 2328 
Q 3016 3291 2770 3770 
Q 2525 4250 2034 4250 
z
M 2034 4750 
Q 2819 4750 3233 4129 
Q 3647 3509 3647 2328 
Q 3647 1150 3233 529 
Q 2819 -91 2034 -91 
Q 1250 -91 836 529 
Q 422 1150 422 2328 
Q 422 3509 836 4129 
Q 1250 4750 2034 4750 
z
" transform="scale(0.015625)"/>
       </defs>
       <use xlink:href="#DejaVuSans-31"/>
       <use xlink:href="#DejaVuSans-30" x="63.623047"/>
      </g>
     </g>
    </g>
    <g id="xtick_3">
     <g id="line2d_3">
      <g>
       <use xlink:href="#m1ea36cfde6" x="264.414798" y="307.584" style="stroke: #000000; stroke-width: 0.8"/>
      </g>
     </g>
     <g id="text_3">
      <!-- 15 -->
      <g transform="translate(258.052298 322.182437) scale(0.1 -0.1)">
       <use xlink:href="#DejaVuSans-31"/>
       <use xlink:href="#DejaVuSans-35" x="63.623047"/>
      </g>
     </g>
    </g>
    <g id="xtick_4">
     <g id="line2d_4">
      <g>
       <use xlink:href="#m1ea36cfde6" x="337.720105" y="307.584" style="stroke: #000000; stroke-width: 0.8"/>
      </g>
     </g>
     <g id="text_4">
      <!-- 20 -->
      <g transform="translate(331.357605 322.182437) scale(0.1 -0.1)">
       <defs>
        <path id="DejaVuSans-32" d="M 1228 531 
L 3431 531 
L 3431 0 
L 469 0 
L 469 531 
Q 828 903 1448 1529 
Q 2069 2156 2228 2338 
Q 2531 2678 2651 2914 
Q 2772 3150 2772 3378 
Q 2772 3750 2511 3984 
Q 2250 4219 1831 4219 
Q 1534 4219 1204 4116 
Q 875 4013 500 3803 
L 500 4441 
Q 881 4594 1212 4672 
Q 1544 4750 1819 4750 
Q 2544 4750 2975 4387 
Q 3406 4025 3406 3419 
Q 3406 3131 3298 2873 
Q 3191 2616 2906 2266 
Q 2828 2175 2409 1742 
Q 1991 1309 1228 531 
z
" transform="scale(0.015625)"/>
       </defs>
       <use xlink:href="#DejaVuSans-32"/>
       <use xlink:href="#DejaVuSans-30" x="63.623047"/>
      </g>
     </g>
    </g>
    <g id="xtick_5">
     <g id="line2d_5">
      <g>
       <use xlink:href="#m1ea36cfde6" x="411.025413" y="307.584" style="stroke: #000000; stroke-width: 0.8"/>
      </g>
     </g>
     <g id="text_5">
      <!-- 25 -->
      <g transform="translate(404.662913 322.182437) scale(0.1 -0.1)">
       <use xlink:href="#DejaVuSans-32"/>
       <use xlink:href="#DejaVuSans-35" x="63.623047"/>
      </g>
     </g>
    </g>
    <g id="text_6">
     <!-- GHG Emissions -->
     <g transform="translate(198.212344 335.860562) scale(0.1 -0.1)">
      <defs>
       <path id="DejaVuSans-47" d="M 3809 666 
L 3809 1919 
L 2778 1919 
L 2778 2438 
L 4434 2438 
L 4434 434 
Q 4069 175 3628 42 
Q 3188 -91 2688 -91 
Q 1594 -91 976 548 
Q 359 1188 359 2328 
Q 359 3472 976 4111 
Q 1594 4750 2688 4750 
Q 3144 4750 3555 4637 
Q 3966 4525 4313 4306 
L 4313 3634 
Q 3963 3931 3569 4081 
Q 3175 4231 2741 4231 
Q 1884 4231 1454 3753 
Q 1025 3275 1025 2328 
Q 1025 1384 1454 906 
Q 1884 428 2741 428 
Q 3075 428 3337 486 
Q 3600 544 3809 666 
z
" transform="scale(0.015625)"/>
       <path id="DejaVuSans-48" d="M 628 4666 
L 1259 4666 
L 1259 2753 
L 3553 2753 
L 3553 4666 
L 4184 4666 
L 4184 0 
L 3553 0 
L 3553 2222 
L 1259 2222 
L 1259 0 
L 628 0 
L 628 4666 
z
" transform="scale(0.015625)"/>
       <path id="DejaVuSans-20" transform="scale(0.015625)"/>
       <path id="DejaVuSans-45" d="M 628 4666 
L 3578 4666 
L 3578 4134 
L 1259 4134 
L 1259 2753 
L 3481 2753 
L 3481 2222 
L 1259 2222 
L 1259 531 
L 3634 531 
L 3634 0 
L 628 0 
L 628 4666 
z
" transform="scale(0.015625)"/>
       <path id="DejaVuSans-6d" d="M 3328 2828 
Q 3544 3216 3844 3400 
Q 4144 3584 4550 3584 
Q 5097 3584 5394 3201 
Q 5691 2819 5691 2113 
L 5691 0 
L 5113 0 
L 5113 2094 
Q 5113 2597 4934 2840 
Q 4756 3084 4391 3084 
Q 3944 3084 3684 2787 
Q 3425 2491 3425 1978 
L 3425 0 
L 2847 0 
L 2847 2094 
Q 2847 2600 2669 2842 
Q 2491 3084 2119 3084 
Q 1678 3084 1418 2786 
Q 1159 2488 1159 1978 
L 1159 0 
L 581 0 
L 581 3500 
L 1159 3500 
L 1159 2956 
Q 1356 3278 1631 3431 
Q 1906 3584 2284 3584 
Q 2666 3584 2933 3390 
Q 3200 3197 3328 2828 
z
" transform="scale(0.015625)"/>
       <path id="DejaVuSans-69" d="M 603 3500 
L 1178 3500 
L 1178 0 
L 603 0 
L 603 3500 
z
M 603 4863 
L 1178 4863 
L 1178 4134 
L 603 4134 
L 603 4863 
z
" transform="scale(0.015625)"/>
       <path id="DejaVuSans-73" d="M 2834 3397 
L 2834 2853 
Q 2591 2978 2328 3040 
Q 2066 3103 1784 3103 
Q 1356 3103 1142 2972 
Q 928 2841 928 2578 
Q 928 2378 1081 2264 
Q 1234 2150 1697 2047 
L 1894 2003 
Q 2506 1872 2764 1633 
Q 3022 1394 3022 966 
Q 3022 478 2636 193 
Q 2250 -91 1575 -91 
Q 1294 -91 989 -36 
Q 684 19 347 128 
L 347 722 
Q 666 556 975 473 
Q 1284 391 1588 391 
Q 1994 391 2212 530 
Q 2431 669 2431 922 
Q 2431 1156 2273 1281 
Q 2116 1406 1581 1522 
L 1381 1569 
Q 847 1681 609 1914 
Q 372 2147 372 2553 
Q 372 3047 722 3315 
Q 1072 3584 1716 3584 
Q 2034 3584 2315 3537 
Q 2597 3491 2834 3397 
z
" transform="scale(0.015625)"/>
       <path id="DejaVuSans-6f" d="M 1959 3097 
Q 1497 3097 1228 2736 
Q 959 2375 959 1747 
Q 959 1119 1226 758 
Q 1494 397 1959 397 
Q 2419 397 2687 759 
Q 2956 1122 2956 1747 
Q 2956 2369 2687 2733 
Q 2419 3097 1959 3097 
z
M 1959 3584 
Q 2709 3584 3137 3096 
Q 3566 2609 3566 1747 
Q 3566 888 3137 398 
Q 2709 -91 1959 -91 
Q 1206 -91 779 398 
Q 353 888 353 1747 
Q 353 2609 779 3096 
Q 1206 3584 1959 3584 
z
" transform="scale(0.015625)"/>
       <path id="DejaVuSans-6e" d="M 3513 2113 
L 3513 0 
L 2938 0 
L 2938 2094 
Q 2938 2591 2744 2837 
Q 2550 3084 2163 3084 
Q 1697 3084 1428 2787 
Q 1159 2491 1159 1978 
L 1159 0 
L 581 0 
L 581 3500 
L 1159 3500 
L 1159 2956 
Q 1366 3272 1645 3428 
Q 1925 3584 2291 3584 
Q 2894 3584 3203 3211 
Q 3513 2838 3513 2113 
z
" transform="scale(0.015625)"/>
      </defs>
      <use xlink:href="#DejaVuSans-47"/>
      <use xlink:href="#DejaVuSans-48" x="77.490234"/>
      <use xlink:href="#DejaVuSans-47" x="152.685547"/>
      <use xlink:href="#DejaVuSans-20" x="230.175781"/>
      <use xlink:href="#DejaVuSans-45" x="261.962891"/>
      <use xlink:href="#DejaVuSans-6d" x="325.146484"/>
      <use xlink:href="#DejaVuSans-69" x="422.558594"/>
      <use xlink:href="#DejaVuSans-73" x="450.341797"/>
      <use xlink:href="#DejaVuSans-73" x="502.441406"/>
      <use xlink:href="#DejaVuSans-69" x="554.541016"/>
      <use xlink:href="#DejaVuSans-6f" x="582.324219"/>
      <use xlink:href="#DejaVuSans-6e" x="643.505859"/>
      <use xlink:href="#DejaVuSans-73" x="706.884766"/>
     </g>
    </g>
   </g>
   <g id="matplotlib.axis_2">
    <g id="ytick_1">
     <g id="line2d_6">
      <defs>
       <path id="maabcffec0c" d="M 0 0 
L -3.5 0 
" style="stroke: #000000; stroke-width: 0.8"/>
      </defs>
      <g>
       <use xlink:href="#maabcffec0c" x="57.6" y="268.980062" style="stroke: #000000; stroke-width: 0.8"/>
      </g>
     </g>
     <g id="text_7">
      <!-- 50 -->
      <g transform="translate(37.875 272.779281) scale(0.1 -0.1)">
       <use xlink:href="#DejaVuSans-35"/>
       <use xlink:href="#DejaVuSans-30" x="63.623047"/>
      </g>
     </g>
    </g>
    <g id="ytick_2">
     <g id="line2d_7">
      <g>
       <use xlink:href="#maabcffec0c" x="57.6" y="213.640044" style="stroke: #000000; stroke-width: 0.8"/>
      </g>
     </g>
     <g id="text_8">
      <!-- 100 -->
      <g transform="translate(31.5125 217.439263) scale(0.1 -0.1)">
       <use xlink:href="#DejaVuSans-31"/>
       <use xlink:href="#DejaVuSans-30" x="63.623047"/>
       <use xlink:href="#DejaVuSans-30" x="127.246094"/>
      </g>
     </g>
    </g>
    <g id="ytick_3">
     <g id="line2d_8">
      <g>
       <use xlink:href="#maabcffec0c" x="57.6" y="158.300025" style="stroke: #000000; stroke-width: 0.8"/>
      </g>
     </g>
     <g id="text_9">
      <!-- 150 -->
      <g transform="translate(31.5125 162.099244) scale(0.1 -0.1)">
       <use xlink:href="#DejaVuSans-31"/>
       <use xlink:href="#DejaVuSans-35" x="63.623047"/>
       <use xlink:href="#DejaVuSans-30" x="127.246094"/>
      </g>
     </g>
    </g>
    <g id="ytick_4">
     <g id="line2d_9">
      <g>
       <use xlink:href="#maabcffec0c" x="57.6" y="102.960007" style="stroke: #000000; stroke-width: 0.8"/>
      </g>
     </g>
     <g id="text_10">
      <!-- 200 -->
      <g transform="translate(31.5125 106.759226) scale(0.1 -0.1)">
       <use xlink:href="#DejaVuSans-32"/>
       <use xlink:href="#DejaVuSans-30" x="63.623047"/>
       <use xlink:href="#DejaVuSans-30" x="127.246094"/>
      </g>
     </g>
    </g>
    <g id="ytick_5">
     <g id="line2d_10">
      <g>
       <use xlink:href="#maabcffec0c" x="57.6" y="47.619988" style="stroke: #000000; stroke-width: 0.8"/>
      </g>
     </g>
     <g id="text_11">
      <!-- 250 -->
      <g transform="translate(31.5125 51.419207) scale(0.1 -0.1)">
       <use xlink:href="#DejaVuSans-32"/>
       <use xlink:href="#DejaVuSans-35" x="63.623047"/>
       <use xlink:href="#DejaVuSans-30" x="127.246094"/>
      </g>
     </g>
    </g>
    <g id="text_12">
     <!-- Vegetable Consumption -->
     <g transform="translate(25.432812 234.256125) rotate(-90) scale(0.1 -0.1)">
      <defs>
       <path id="DejaVuSans-56" d="M 1831 0 
L 50 4666 
L 709 4666 
L 2188 738 
L 3669 4666 
L 4325 4666 
L 2547 0 
L 1831 0 
z
" transform="scale(0.015625)"/>
       <path id="DejaVuSans-65" d="M 3597 1894 
L 3597 1613 
L 953 1613 
Q 991 1019 1311 708 
Q 1631 397 2203 397 
Q 2534 397 2845 478 
Q 3156 559 3463 722 
L 3463 178 
Q 3153 47 2828 -22 
Q 2503 -91 2169 -91 
Q 1331 -91 842 396 
Q 353 884 353 1716 
Q 353 2575 817 3079 
Q 1281 3584 2069 3584 
Q 2775 3584 3186 3129 
Q 3597 2675 3597 1894 
z
M 3022 2063 
Q 3016 2534 2758 2815 
Q 2500 3097 2075 3097 
Q 1594 3097 1305 2825 
Q 1016 2553 972 2059 
L 3022 2063 
z
" transform="scale(0.015625)"/>
       <path id="DejaVuSans-67" d="M 2906 1791 
Q 2906 2416 2648 2759 
Q 2391 3103 1925 3103 
Q 1463 3103 1205 2759 
Q 947 2416 947 1791 
Q 947 1169 1205 825 
Q 1463 481 1925 481 
Q 2391 481 2648 825 
Q 2906 1169 2906 1791 
z
M 3481 434 
Q 3481 -459 3084 -895 
Q 2688 -1331 1869 -1331 
Q 1566 -1331 1297 -1286 
Q 1028 -1241 775 -1147 
L 775 -588 
Q 1028 -725 1275 -790 
Q 1522 -856 1778 -856 
Q 2344 -856 2625 -561 
Q 2906 -266 2906 331 
L 2906 616 
Q 2728 306 2450 153 
Q 2172 0 1784 0 
Q 1141 0 747 490 
Q 353 981 353 1791 
Q 353 2603 747 3093 
Q 1141 3584 1784 3584 
Q 2172 3584 2450 3431 
Q 2728 3278 2906 2969 
L 2906 3500 
L 3481 3500 
L 3481 434 
z
" transform="scale(0.015625)"/>
       <path id="DejaVuSans-74" d="M 1172 4494 
L 1172 3500 
L 2356 3500 
L 2356 3053 
L 1172 3053 
L 1172 1153 
Q 1172 725 1289 603 
Q 1406 481 1766 481 
L 2356 481 
L 2356 0 
L 1766 0 
Q 1100 0 847 248 
Q 594 497 594 1153 
L 594 3053 
L 172 3053 
L 172 3500 
L 594 3500 
L 594 4494 
L 1172 4494 
z
" transform="scale(0.015625)"/>
       <path id="DejaVuSans-61" d="M 2194 1759 
Q 1497 1759 1228 1600 
Q 959 1441 959 1056 
Q 959 750 1161 570 
Q 1363 391 1709 391 
Q 2188 391 2477 730 
Q 2766 1069 2766 1631 
L 2766 1759 
L 2194 1759 
z
M 3341 1997 
L 3341 0 
L 2766 0 
L 2766 531 
Q 2569 213 2275 61 
Q 1981 -91 1556 -91 
Q 1019 -91 701 211 
Q 384 513 384 1019 
Q 384 1609 779 1909 
Q 1175 2209 1959 2209 
L 2766 2209 
L 2766 2266 
Q 2766 2663 2505 2880 
Q 2244 3097 1772 3097 
Q 1472 3097 1187 3025 
Q 903 2953 641 2809 
L 641 3341 
Q 956 3463 1253 3523 
Q 1550 3584 1831 3584 
Q 2591 3584 2966 3190 
Q 3341 2797 3341 1997 
z
" transform="scale(0.015625)"/>
       <path id="DejaVuSans-62" d="M 3116 1747 
Q 3116 2381 2855 2742 
Q 2594 3103 2138 3103 
Q 1681 3103 1420 2742 
Q 1159 2381 1159 1747 
Q 1159 1113 1420 752 
Q 1681 391 2138 391 
Q 2594 391 2855 752 
Q 3116 1113 3116 1747 
z
M 1159 2969 
Q 1341 3281 1617 3432 
Q 1894 3584 2278 3584 
Q 2916 3584 3314 3078 
Q 3713 2572 3713 1747 
Q 3713 922 3314 415 
Q 2916 -91 2278 -91 
Q 1894 -91 1617 61 
Q 1341 213 1159 525 
L 1159 0 
L 581 0 
L 581 4863 
L 1159 4863 
L 1159 2969 
z
" transform="scale(0.015625)"/>
       <path id="DejaVuSans-6c" d="M 603 4863 
L 1178 4863 
L 1178 0 
L 603 0 
L 603 4863 
z
" transform="scale(0.015625)"/>
       <path id="DejaVuSans-43" d="M 4122 4306 
L 4122 3641 
Q 3803 3938 3442 4084 
Q 3081 4231 2675 4231 
Q 1875 4231 1450 3742 
Q 1025 3253 1025 2328 
Q 1025 1406 1450 917 
Q 1875 428 2675 428 
Q 3081 428 3442 575 
Q 3803 722 4122 1019 
L 4122 359 
Q 3791 134 3420 21 
Q 3050 -91 2638 -91 
Q 1578 -91 968 557 
Q 359 1206 359 2328 
Q 359 3453 968 4101 
Q 1578 4750 2638 4750 
Q 3056 4750 3426 4639 
Q 3797 4528 4122 4306 
z
" transform="scale(0.015625)"/>
       <path id="DejaVuSans-75" d="M 544 1381 
L 544 3500 
L 1119 3500 
L 1119 1403 
Q 1119 906 1312 657 
Q 1506 409 1894 409 
Q 2359 409 2629 706 
Q 2900 1003 2900 1516 
L 2900 3500 
L 3475 3500 
L 3475 0 
L 2900 0 
L 2900 538 
Q 2691 219 2414 64 
Q 2138 -91 1772 -91 
Q 1169 -91 856 284 
Q 544 659 544 1381 
z
M 1991 3584 
L 1991 3584 
z
" transform="scale(0.015625)"/>
       <path id="DejaVuSans-70" d="M 1159 525 
L 1159 -1331 
L 581 -1331 
L 581 3500 
L 1159 3500 
L 1159 2969 
Q 1341 3281 1617 3432 
Q 1894 3584 2278 3584 
Q 2916 3584 3314 3078 
Q 3713 2572 3713 1747 
Q 3713 922 3314 415 
Q 2916 -91 2278 -91 
Q 1894 -91 1617 61 
Q 1341 213 1159 525 
z
M 3116 1747 
Q 3116 2381 2855 2742 
Q 2594 3103 2138 3103 
Q 1681 3103 1420 2742 
Q 1159 2381 1159 1747 
Q 1159 1113 1420 752 
Q 1681 391 2138 391 
Q 2594 391 2855 752 
Q 3116 1113 3116 1747 
z
" transform="scale(0.015625)"/>
      </defs>
      <use xlink:href="#DejaVuSans-56"/>
      <use xlink:href="#DejaVuSans-65" x="60.658203"/>
      <use xlink:href="#DejaVuSans-67" x="122.181641"/>
      <use xlink:href="#DejaVuSans-65" x="185.658203"/>
      <use xlink:href="#DejaVuSans-74" x="247.181641"/>
      <use xlink:href="#DejaVuSans-61" x="286.390625"/>
      <use xlink:href="#DejaVuSans-62" x="347.669922"/>
      <use xlink:href="#DejaVuSans-6c" x="411.146484"/>
      <use xlink:href="#DejaVuSans-65" x="438.929688"/>
      <use xlink:href="#DejaVuSans-20" x="500.453125"/>
      <use xlink:href="#DejaVuSans-43" x="532.240234"/>
      <use xlink:href="#DejaVuSans-6f" x="602.064453"/>
      <use xlink:href="#DejaVuSans-6e" x="663.246094"/>
      <use xlink:href="#DejaVuSans-73" x="726.625"/>
      <use xlink:href="#DejaVuSans-75" x="778.724609"/>
      <use xlink:href="#DejaVuSans-6d" x="842.103516"/>
      <use xlink:href="#DejaVuSans-70" x="939.515625"/>
      <use xlink:href="#DejaVuSans-74" x="1002.992188"/>
      <use xlink:href="#DejaVuSans-69" x="1042.201172"/>
      <use xlink:href="#DejaVuSans-6f" x="1069.984375"/>
      <use xlink:href="#DejaVuSans-6e" x="1131.166016"/>
     </g>
    </g>
   </g>
   <g id="PathCollection_8"/>
   <g id="PathCollection_9">
    <path d="M 57.6 299.239957 
L 61.207273 299.225301 
L 64.814545 299.210599 
L 68.421818 299.195851 
L 72.029091 299.181055 
L 75.636364 299.166212 
L 79.243636 299.15132 
L 82.850909 299.13638 
L 86.458182 299.12139 
L 90.065455 299.106351 
L 93.672727 299.091262 
L 96.949223 299.077511 
" clip-path="url(#p1f340c84d9)" style="fill: none; stroke: #000000; stroke-width: 0.5"/>
    <path d="M 126.468955 298.951703 
L 129.745455 298.93752 
L 133.352727 298.921851 
L 136.96 298.906127 
L 140.567273 298.890347 
L 144.174545 298.874511 
L 147.781818 298.858617 
L 151.389091 298.842667 
L 154.996364 298.82666 
L 158.603636 298.810594 
L 162.210909 298.794471 
L 165.818182 298.778288 
L 169.425455 298.762046 
L 173.032727 298.745745 
L 176.64 298.729384 
L 180.247273 298.712962 
L 183.854545 298.69648 
L 187.461818 298.679936 
L 191.069091 298.663331 
L 194.676364 298.646664 
L 198.283636 298.629934 
L 201.890909 298.613142 
L 205.498182 298.596287 
L 209.105455 298.579368 
L 212.712727 298.562384 
L 216.32 298.545337 
L 219.927273 298.528225 
L 223.534545 298.511048 
L 227.141818 298.493805 
L 230.749091 298.476497 
L 234.356364 298.459122 
L 237.963636 298.44168 
L 241.570909 298.424172 
L 245.178182 298.406596 
L 248.785455 298.388952 
L 252.392727 298.371241 
L 256 298.353461 
L 259.607273 298.335612 
L 263.214545 298.317693 
L 266.821818 298.299706 
L 270.429091 298.281648 
L 274.036364 298.26352 
L 277.643636 298.245321 
L 281.250909 298.227052 
L 284.858182 298.208711 
L 288.465455 298.190298 
L 292.072727 298.171814 
L 295.68 298.153256 
L 299.287273 298.134627 
L 302.894545 298.115924 
L 306.501818 298.097148 
L 310.109091 298.078298 
L 313.716364 298.059373 
L 317.323636 298.040375 
L 320.930909 298.021302 
L 324.538182 298.002153 
L 328.145455 297.98293 
L 331.752727 297.96363 
L 335.36 297.944255 
L 338.967273 297.924803 
L 342.574545 297.905274 
L 346.181818 297.885668 
L 349.789091 297.865985 
L 353.396364 297.846225 
L 357.003636 297.826386 
L 360.610909 297.806469 
L 364.218182 297.786474 
L 367.825455 297.766399 
L 371.432727 297.746246 
L 375.04 297.726012 
L 378.647273 297.705699 
L 382.254545 297.685306 
L 385.861818 297.664833 
L 389.469091 297.644279 
L 393.076364 297.623643 
L 396.683636 297.602927 
L 400.290909 297.582128 
L 403.898182 297.561248 
L 407.505455 297.540286 
L 411.112727 297.519241 
L 414.72 297.498114 
" clip-path="url(#p1f340c84d9)" style="fill: none; stroke: #000000; stroke-width: 0.5"/>
   </g>
   <g id="PathCollection_10">
    <path d="M 57.6 285.098172 
L 61.207273 285.0898 
L 64.814545 285.081299 
L 68.421818 285.072671 
L 72.029091 285.063913 
L 75.636364 285.055025 
L 79.243636 285.046008 
L 82.850909 285.036861 
L 86.458182 285.027583 
L 90.065455 285.018175 
L 93.672727 285.008635 
L 97.28 284.998964 
L 100.887273 284.989162 
L 104.494545 284.979227 
L 108.101818 284.969159 
L 111.709091 284.958959 
L 115.316364 284.948626 
L 118.923636 284.938159 
L 122.530909 284.927558 
L 126.138182 284.916823 
L 129.745455 284.905953 
L 133.352727 284.894949 
L 136.96 284.883809 
L 140.567273 284.872533 
L 144.174545 284.861122 
L 147.781818 284.849575 
L 151.389091 284.837891 
L 154.996364 284.82607 
L 158.603636 284.814112 
L 162.210909 284.802016 
L 165.818182 284.789782 
L 169.425455 284.77741 
L 173.032727 284.7649 
L 176.64 284.75225 
L 180.247273 284.739462 
L 183.854545 284.726533 
L 187.461818 284.713465 
L 191.069091 284.700257 
L 194.676364 284.686908 
L 198.283636 284.673418 
L 201.890909 284.659787 
L 205.498182 284.646014 
L 208.774661 284.633375 
" clip-path="url(#p1f340c84d9)" style="fill: none; stroke: #000000; stroke-width: 0.5"/>
    <path d="M 238.29442 284.514241 
L 241.570909 284.500429 
L 245.178182 284.485078 
L 248.785455 284.469581 
L 252.392727 284.453938 
L 256 284.43815 
L 259.607273 284.422214 
L 263.214545 284.406133 
L 266.821818 284.389904 
L 270.429091 284.373527 
L 274.036364 284.357003 
L 277.643636 284.340331 
L 281.250909 284.323511 
L 284.858182 284.306542 
L 288.465455 284.289424 
L 292.072727 284.272157 
L 295.68 284.25474 
L 299.287273 284.237173 
L 302.894545 284.219456 
L 306.501818 284.201589 
L 310.109091 284.18357 
L 313.716364 284.165401 
L 317.323636 284.14708 
L 320.930909 284.128607 
L 324.538182 284.109982 
L 328.145455 284.091205 
L 331.752727 284.072275 
L 335.36 284.053192 
L 338.967273 284.033955 
L 342.574545 284.014565 
L 346.181818 283.995021 
L 349.789091 283.975323 
L 353.396364 283.95547 
L 357.003636 283.935462 
L 360.610909 283.915299 
L 364.218182 283.894981 
L 367.825455 283.874506 
L 371.432727 283.853876 
L 375.04 283.833089 
L 378.647273 283.812146 
L 382.254545 283.791045 
L 385.861818 283.769787 
L 389.469091 283.748372 
L 393.076364 283.726798 
L 396.683636 283.705067 
L 400.290909 283.683176 
L 403.898182 283.661127 
L 407.505455 283.638919 
L 411.112727 283.616552 
L 414.72 283.594024 
" clip-path="url(#p1f340c84d9)" style="fill: none; stroke: #000000; stroke-width: 0.5"/>
   </g>
   <g id="PathCollection_11">
    <path d="M 57.6 271.319095 
L 61.207273 271.315792 
L 64.814545 271.312279 
L 68.421818 271.308556 
L 72.029091 271.304621 
L 75.636364 271.300475 
L 79.243636 271.296117 
L 82.850909 271.291547 
L 86.458182 271.286765 
L 90.065455 271.281771 
L 93.672727 271.276564 
L 96.949111 271.271641 
" clip-path="url(#p1f340c84d9)" style="fill: none; stroke: #000000; stroke-width: 0.5"/>
    <path d="M 126.469064 271.219409 
L 129.745455 271.212733 
L 133.352727 271.205168 
L 136.96 271.197386 
L 140.567273 271.189388 
L 144.174545 271.181174 
L 147.781818 271.172742 
L 151.389091 271.164094 
L 154.996364 271.155227 
L 158.603636 271.146143 
L 162.210909 271.136841 
L 165.818182 271.12732 
L 169.425455 271.117581 
L 173.032727 271.107623 
L 176.64 271.097445 
L 180.247273 271.087048 
L 183.854545 271.076431 
L 187.461818 271.065594 
L 191.069091 271.054536 
L 194.676364 271.043258 
L 198.283636 271.031758 
L 201.890909 271.020037 
L 205.498182 271.008095 
L 209.105455 270.995931 
L 212.712727 270.983544 
L 216.32 270.970935 
L 219.927273 270.958103 
L 223.534545 270.945048 
L 227.141818 270.931769 
L 230.749091 270.918267 
L 234.356364 270.904541 
L 237.963636 270.89059 
L 241.570909 270.876415 
L 245.178182 270.862015 
L 248.785455 270.84739 
L 252.392727 270.832539 
L 256 270.817462 
L 259.607273 270.802159 
L 263.214545 270.786629 
L 266.821818 270.770873 
L 270.429091 270.75489 
L 274.036364 270.738679 
L 277.643636 270.722241 
L 281.250909 270.705574 
L 284.858182 270.68868 
L 288.465455 270.671556 
L 292.072727 270.654204 
L 295.68 270.636622 
L 299.287273 270.618811 
L 302.894545 270.60077 
L 306.501818 270.582499 
L 310.109091 270.563997 
L 313.716364 270.545265 
L 317.323636 270.526301 
L 320.930909 270.507106 
L 324.538182 270.487679 
L 328.145455 270.46802 
L 331.752727 270.448128 
L 335.36 270.428004 
L 338.967273 270.407647 
L 342.574545 270.387056 
L 346.181818 270.366232 
L 349.789091 270.345174 
L 353.396364 270.323881 
L 357.003636 270.302354 
L 360.610909 270.280591 
L 364.218182 270.258594 
L 367.825455 270.23636 
L 371.432727 270.213891 
L 375.04 270.191186 
L 378.647273 270.168243 
L 382.254545 270.145064 
L 385.861818 270.121648 
L 389.469091 270.097994 
L 393.076364 270.074102 
L 396.683636 270.049972 
L 400.290909 270.025603 
L 403.898182 270.000996 
L 407.505455 269.976149 
L 410.977952 269.952 
L 411.112727 269.951055 
L 414.72 269.925515 
" clip-path="url(#p1f340c84d9)" style="fill: none; stroke: #000000; stroke-width: 0.5"/>
   </g>
   <g id="PathCollection_12">
    <path d="M 57.6 257.039586 
L 61.207273 257.040983 
L 64.814545 257.042072 
L 68.421818 257.042853 
L 72.029091 257.043326 
L 75.636364 257.043491 
L 79.243636 257.043346 
L 82.850909 257.042893 
L 86.458182 257.04213 
L 90.065455 257.041058 
L 93.672727 257.039676 
L 97.28 257.037984 
L 100.887273 257.035981 
L 104.494545 257.033669 
L 108.101818 257.031045 
L 111.709091 257.028111 
L 115.316364 257.024865 
L 118.923636 257.021308 
L 122.530909 257.017439 
L 126.138182 257.013259 
L 129.745455 257.008765 
L 133.352727 257.00396 
L 136.96 256.998841 
L 140.567273 256.99341 
L 144.174545 256.987665 
L 147.781818 256.981607 
L 151.389091 256.975235 
L 154.996364 256.968548 
L 158.603636 256.961548 
L 162.210909 256.954232 
L 165.818182 256.946602 
L 169.425455 256.938657 
L 173.032727 256.930396 
L 176.64 256.921819 
L 180.247273 256.912926 
L 183.854545 256.903717 
L 187.461818 256.894191 
L 191.069091 256.884348 
L 194.676364 256.874188 
L 198.283636 256.863711 
L 201.890909 256.852915 
L 205.498182 256.841802 
L 209.105455 256.83037 
L 212.712727 256.81862 
L 216.32 256.80655 
L 219.927273 256.794161 
L 223.534545 256.781453 
L 227.141818 256.768425 
L 230.749091 256.755076 
L 234.356364 256.741407 
L 237.963636 256.727417 
L 241.570909 256.713106 
L 245.178182 256.698474 
L 248.785455 256.68352 
L 252.392727 256.668243 
L 256 256.652645 
L 259.607273 256.636723 
L 263.214545 256.620479 
L 266.821818 256.603911 
L 270.429091 256.587019 
L 274.036364 256.569804 
L 277.643636 256.552264 
L 281.250909 256.534399 
L 284.858182 256.516209 
L 285.678326 256.512 
L 288.465455 256.497396 
L 292.072727 256.478163 
L 295.68 256.458596 
L 299.287273 256.438696 
L 302.894545 256.418462 
L 306.501818 256.397894 
L 310.109091 256.376992 
L 313.716364 256.355754 
L 316.993012 256.336159 
" clip-path="url(#p1f340c84d9)" style="fill: none; stroke: #000000; stroke-width: 0.5"/>
    <path d="M 346.512407 256.14724 
L 349.789091 256.124889 
L 353.396364 256.099946 
L 357.003636 256.074663 
L 360.610909 256.04904 
L 364.218182 256.023077 
L 367.825455 255.996775 
L 371.432727 255.970131 
L 375.04 255.943146 
L 378.647273 255.91582 
L 382.254545 255.888152 
L 385.861818 255.860142 
L 389.469091 255.831789 
L 393.076364 255.803094 
L 396.683636 255.774054 
L 400.290909 255.744671 
L 403.898182 255.714944 
L 407.505455 255.684873 
L 411.112727 255.654456 
L 414.72 255.623694 
" clip-path="url(#p1f340c84d9)" style="fill: none; stroke: #000000; stroke-width: 0.5"/>
   </g>
   <g id="PathCollection_13">
    <path d="M 57.6 241.028733 
L 61.207273 241.035349 
L 64.814545 241.041508 
L 68.421818 241.047211 
L 72.029091 241.052457 
L 75.636364 241.057246 
L 79.243636 241.061579 
L 82.850909 241.065453 
L 86.458182 241.068871 
L 90.065455 241.07183 
L 93.672727 241.074331 
L 97.28 241.076374 
L 100.887273 241.077958 
L 104.494545 241.079083 
L 108.101818 241.079749 
L 111.709091 241.079955 
L 115.316364 241.079702 
L 118.923636 241.078988 
L 122.530909 241.077814 
L 126.138182 241.07618 
L 129.745455 241.074084 
L 133.352727 241.071527 
L 136.96 241.068509 
L 140.567273 241.065028 
L 144.174545 241.061085 
L 147.781818 241.05668 
L 151.389091 241.051812 
L 154.996364 241.046481 
L 158.603636 241.040687 
L 162.210909 241.034429 
L 165.818182 241.027706 
L 169.425455 241.020519 
L 173.032727 241.012868 
L 176.64 241.004751 
L 180.247273 240.996169 
L 183.854545 240.987121 
L 187.461818 240.977607 
L 191.069091 240.967627 
L 194.676364 240.957179 
L 198.283636 240.946265 
L 201.890909 240.934883 
L 205.498182 240.923033 
L 209.105455 240.910715 
L 212.712727 240.897929 
L 216.32 240.884673 
L 219.927273 240.870949 
L 223.534545 240.856754 
L 227.141818 240.84209 
L 230.749091 240.826955 
L 234.356364 240.811349 
L 237.963636 240.795272 
L 241.570909 240.778724 
L 245.178182 240.761703 
L 248.785455 240.744211 
L 248.867065 240.743804 
" clip-path="url(#p1f340c84d9)" style="fill: none; stroke: #000000; stroke-width: 0.5"/>
    <path d="M 284.776505 240.543721 
L 284.858182 240.543218 
L 288.465455 240.520503 
L 292.072727 240.497311 
L 295.68 240.473642 
L 299.287273 240.449494 
L 302.894545 240.424868 
L 306.501818 240.399763 
L 308.724429 240.384 
L 310.109091 240.373791 
L 313.716364 240.346697 
L 317.323636 240.319104 
L 320.930909 240.29101 
L 324.538182 240.262416 
L 328.145455 240.233321 
L 331.752727 240.203725 
L 335.36 240.173627 
L 338.967273 240.143026 
L 342.574545 240.111922 
L 346.181818 240.080315 
L 349.789091 240.048204 
L 353.396364 240.015589 
L 357.003636 239.982469 
L 360.610909 239.948844 
L 364.218182 239.914713 
L 367.825455 239.880075 
L 371.432727 239.844931 
L 375.04 239.809279 
L 378.647273 239.77312 
L 382.254545 239.736452 
L 385.861818 239.699276 
L 389.469091 239.66159 
L 393.076364 239.623394 
L 396.683636 239.584688 
L 400.290909 239.545471 
L 403.898182 239.505743 
L 407.505455 239.465503 
L 411.112727 239.42475 
L 414.72 239.383485 
" clip-path="url(#p1f340c84d9)" style="fill: none; stroke: #000000; stroke-width: 0.5"/>
   </g>
   <g id="PathCollection_14">
    <path d="M 57.6 220.025405 
L 61.207273 220.040782 
L 64.814545 220.055335 
L 68.421818 220.069064 
L 72.029091 220.081969 
L 75.636364 220.09405 
L 79.243636 220.105305 
L 82.850909 220.115734 
L 86.458182 220.125336 
L 90.065455 220.134111 
L 93.672727 220.142059 
L 97.28 220.149177 
L 100.887273 220.155467 
L 104.494545 220.160928 
L 108.101818 220.165558 
L 108.183186 220.165643 
" clip-path="url(#p1f340c84d9)" style="fill: none; stroke: #000000; stroke-width: 0.5"/>
    <path d="M 144.093178 220.166135 
L 144.174545 220.166051 
L 147.781818 220.161506 
L 151.389091 220.156123 
L 154.996364 220.1499 
L 158.603636 220.142839 
L 162.210909 220.134937 
L 165.818182 220.126195 
L 169.425455 220.116611 
L 173.032727 220.106185 
L 176.64 220.094916 
L 180.247273 220.082804 
L 183.854545 220.069848 
L 187.461818 220.056046 
L 191.069091 220.041399 
L 194.676364 220.025906 
L 198.283636 220.009566 
L 201.890909 219.992378 
L 205.498182 219.974341 
L 209.105455 219.955455 
L 212.712727 219.93572 
L 216.32 219.915134 
L 219.927273 219.893696 
L 223.534545 219.871407 
L 227.141818 219.848264 
L 230.749091 219.824268 
L 234.356364 219.799418 
L 237.963636 219.773713 
L 241.570909 219.747152 
L 245.178182 219.719734 
L 248.785455 219.69146 
L 252.392727 219.662327 
L 256 219.632335 
L 259.607273 219.601484 
L 263.214545 219.569773 
L 266.821818 219.5372 
L 270.429091 219.503766 
L 274.036364 219.469469 
L 277.643636 219.434309 
L 281.250909 219.398285 
L 284.858182 219.361396 
L 288.465455 219.323641 
L 292.072727 219.28502 
L 295.68 219.245531 
L 299.287273 219.205175 
L 302.894545 219.163949 
L 306.501818 219.121855 
L 310.109091 219.078889 
L 313.716364 219.035053 
L 317.323636 218.990344 
L 320.930909 218.944763 
L 324.538182 218.898309 
L 325.933786 218.88 
L 328.145455 218.848629 
L 331.752727 218.79652 
L 335.36 218.743462 
L 338.967273 218.689454 
L 342.574545 218.634495 
L 346.181818 218.578585 
L 349.789091 218.521723 
L 353.396364 218.463907 
L 357.003636 218.405137 
L 360.610909 218.345413 
L 364.218182 218.284732 
L 367.825455 218.223094 
L 371.432727 218.160499 
L 375.04 218.096944 
L 378.647273 218.032431 
L 382.254545 217.966956 
L 385.861818 217.900521 
L 389.469091 217.833122 
L 393.076364 217.764761 
L 396.683636 217.695436 
L 400.290909 217.625145 
L 403.898182 217.553888 
L 407.505455 217.481665 
L 411.112727 217.408474 
L 414.72 217.334314 
" clip-path="url(#p1f340c84d9)" style="fill: none; stroke: #000000; stroke-width: 0.5"/>
    <path d="M 414.72 144.020224 
L 411.112727 143.891348 
L 407.505455 143.763645 
L 403.898182 143.637115 
L 403.290589 143.616 
L 400.290909 143.513724 
L 396.683636 143.391881 
L 393.076364 143.271185 
L 389.469091 143.151637 
L 385.861818 143.033234 
L 382.254545 142.915974 
L 378.647273 142.799857 
L 375.04 142.684882 
L 371.432727 142.571046 
L 367.825455 142.45835 
L 367.735856 142.455579 
" clip-path="url(#p1f340c84d9)" style="fill: none; stroke: #000000; stroke-width: 0.5"/>
    <path d="M 331.841498 141.396281 
L 331.752727 141.393786 
L 328.145455 141.293549 
L 324.538182 141.194439 
L 320.930909 141.096456 
L 317.323636 140.999599 
L 314.625548 140.928 
L 313.716364 140.904164 
L 310.109091 140.810719 
L 306.501818 140.718386 
L 302.894545 140.627164 
L 299.287273 140.537054 
L 295.68 140.448055 
L 292.072727 140.360166 
L 288.465455 140.273387 
L 284.858182 140.187718 
L 281.250909 140.103157 
L 277.643636 140.019706 
L 274.036364 139.937363 
L 270.429091 139.856128 
L 266.821818 139.776002 
L 263.214545 139.696983 
L 259.607273 139.619073 
L 256 139.54227 
L 252.392727 139.466575 
L 248.785455 139.391988 
L 245.178182 139.318508 
L 241.570909 139.246136 
L 237.963636 139.174872 
L 234.356364 139.104716 
L 230.749091 139.035667 
L 227.141818 138.967728 
L 223.534545 138.900896 
L 219.927273 138.835174 
L 216.32 138.77056 
L 212.712727 138.707056 
L 209.105455 138.644661 
L 205.498182 138.583377 
L 201.890909 138.523203 
L 198.283636 138.464141 
L 194.676364 138.40619 
L 191.069091 138.349351 
L 187.461818 138.293624 
L 183.919827 138.24 
L 183.854545 138.239017 
L 180.247273 138.185837 
L 176.64 138.133765 
L 173.032727 138.082803 
L 169.425455 138.032952 
L 165.818182 137.984211 
L 162.210909 137.936583 
L 158.603636 137.890067 
L 154.996364 137.844665 
L 151.389091 137.800377 
L 147.781818 137.757205 
L 144.174545 137.715149 
L 140.567273 137.674211 
L 136.96 137.634391 
L 133.352727 137.595691 
L 129.745455 137.558111 
L 126.138182 137.521653 
L 122.530909 137.486318 
L 118.923636 137.452108 
L 115.316364 137.419022 
L 111.709091 137.387064 
L 108.101818 137.356234 
L 104.494545 137.326533 
L 100.887273 137.297963 
L 97.28 137.270526 
L 93.672727 137.244222 
L 90.065455 137.219053 
L 86.458182 137.195022 
L 82.850909 137.172129 
L 79.243636 137.150376 
L 75.636364 137.129765 
L 72.029091 137.110297 
L 68.421818 137.091974 
L 64.814545 137.074799 
L 61.207273 137.058772 
L 57.6 137.043896 
" clip-path="url(#p1f340c84d9)" style="fill: none; stroke: #000000; stroke-width: 0.5"/>
   </g>
   <g id="PathCollection_15"/>
   <g id="LineCollection_1">
    <path d="M 67.288029 307.584 
L 67.288029 294.2784 
" clip-path="url(#p1f340c84d9)" style="fill: none; stroke: #000000; stroke-width: 1.5"/>
    <path d="M 78.078571 307.584 
L 78.078571 294.2784 
" clip-path="url(#p1f340c84d9)" style="fill: none; stroke: #000000; stroke-width: 1.5"/>
    <path d="M 93.889059 307.584 
L 93.889059 294.2784 
" clip-path="url(#p1f340c84d9)" style="fill: none; stroke: #000000; stroke-width: 1.5"/>
    <path d="M 108.995817 307.584 
L 108.995817 294.2784 
" clip-path="url(#p1f340c84d9)" style="fill: none; stroke: #000000; stroke-width: 1.5"/>
    <path d="M 131.732191 307.584 
L 131.732191 294.2784 
" clip-path="url(#p1f340c84d9)" style="fill: none; stroke: #000000; stroke-width: 1.5"/>
    <path d="M 156.761555 307.584 
L 156.761555 294.2784 
" clip-path="url(#p1f340c84d9)" style="fill: none; stroke: #000000; stroke-width: 1.5"/>
    <path d="M 184.822827 307.584 
L 184.822827 294.2784 
" clip-path="url(#p1f340c84d9)" style="fill: none; stroke: #000000; stroke-width: 1.5"/>
    <path d="M 230.928933 307.584 
L 230.928933 294.2784 
" clip-path="url(#p1f340c84d9)" style="fill: none; stroke: #000000; stroke-width: 1.5"/>
    <path d="M 331.679748 307.584 
L 331.679748 294.2784 
" clip-path="url(#p1f340c84d9)" style="fill: none; stroke: #000000; stroke-width: 1.5"/>
   </g>
   <g id="LineCollection_2">
    <path clip-path="url(#p1f340c84d9)" style="fill: none; stroke: #000000; stroke-width: 1.5"/>
    <path clip-path="url(#p1f340c84d9)" style="fill: none; stroke: #000000; stroke-width: 1.5"/>
    <path clip-path="url(#p1f340c84d9)" style="fill: none; stroke: #000000; stroke-width: 1.5"/>
    <path clip-path="url(#p1f340c84d9)" style="fill: none; stroke: #000000; stroke-width: 1.5"/>
    <path clip-path="url(#p1f340c84d9)" style="fill: none; stroke: #000000; stroke-width: 1.5"/>
    <path clip-path="url(#p1f340c84d9)" style="fill: none; stroke: #000000; stroke-width: 1.5"/>
    <path clip-path="url(#p1f340c84d9)" style="fill: none; stroke: #000000; stroke-width: 1.5"/>
    <path clip-path="url(#p1f340c84d9)" style="fill: none; stroke: #000000; stroke-width: 1.5"/>
    <path clip-path="url(#p1f340c84d9)" style="fill: none; stroke: #000000; stroke-width: 1.5"/>
   </g>
   <g id="patch_3">
    <path d="M 57.6 307.584 
L 57.6 41.472 
" style="fill: none; stroke: #000000; stroke-width: 0.8; stroke-linejoin: miter; stroke-linecap: square"/>
   </g>
   <g id="patch_4">
    <path d="M 414.72 307.584 
L 414.72 41.472 
" style="fill: none; stroke: #000000; stroke-width: 0.8; stroke-linejoin: miter; stroke-linecap: square"/>
   </g>
   <g id="patch_5">
    <path d="M 57.6 307.584 
L 414.72 307.584 
" style="fill: none; stroke: #000000; stroke-width: 0.8; stroke-linejoin: miter; stroke-linecap: square"/>
   </g>
   <g id="patch_6">
    <path d="M 57.6 41.472 
L 414.72 41.472 
" style="fill: none; stroke: #000000; stroke-width: 0.8; stroke-linejoin: miter; stroke-linecap: square"/>
   </g>
   <g id="text_13">
    <!-- 2D-partial dependency plot between GHG and Veg -->
    <g transform="translate(84.158437 35.472) scale(0.12 -0.12)">
     <defs>
      <path id="DejaVuSans-44" d="M 1259 4147 
L 1259 519 
L 2022 519 
Q 2988 519 3436 956 
Q 3884 1394 3884 2338 
Q 3884 3275 3436 3711 
Q 2988 4147 2022 4147 
L 1259 4147 
z
M 628 4666 
L 1925 4666 
Q 3281 4666 3915 4102 
Q 4550 3538 4550 2338 
Q 4550 1131 3912 565 
Q 3275 0 1925 0 
L 628 0 
L 628 4666 
z
" transform="scale(0.015625)"/>
      <path id="DejaVuSans-2d" d="M 313 2009 
L 1997 2009 
L 1997 1497 
L 313 1497 
L 313 2009 
z
" transform="scale(0.015625)"/>
      <path id="DejaVuSans-72" d="M 2631 2963 
Q 2534 3019 2420 3045 
Q 2306 3072 2169 3072 
Q 1681 3072 1420 2755 
Q 1159 2438 1159 1844 
L 1159 0 
L 581 0 
L 581 3500 
L 1159 3500 
L 1159 2956 
Q 1341 3275 1631 3429 
Q 1922 3584 2338 3584 
Q 2397 3584 2469 3576 
Q 2541 3569 2628 3553 
L 2631 2963 
z
" transform="scale(0.015625)"/>
      <path id="DejaVuSans-64" d="M 2906 2969 
L 2906 4863 
L 3481 4863 
L 3481 0 
L 2906 0 
L 2906 525 
Q 2725 213 2448 61 
Q 2172 -91 1784 -91 
Q 1150 -91 751 415 
Q 353 922 353 1747 
Q 353 2572 751 3078 
Q 1150 3584 1784 3584 
Q 2172 3584 2448 3432 
Q 2725 3281 2906 2969 
z
M 947 1747 
Q 947 1113 1208 752 
Q 1469 391 1925 391 
Q 2381 391 2643 752 
Q 2906 1113 2906 1747 
Q 2906 2381 2643 2742 
Q 2381 3103 1925 3103 
Q 1469 3103 1208 2742 
Q 947 2381 947 1747 
z
" transform="scale(0.015625)"/>
      <path id="DejaVuSans-63" d="M 3122 3366 
L 3122 2828 
Q 2878 2963 2633 3030 
Q 2388 3097 2138 3097 
Q 1578 3097 1268 2742 
Q 959 2388 959 1747 
Q 959 1106 1268 751 
Q 1578 397 2138 397 
Q 2388 397 2633 464 
Q 2878 531 3122 666 
L 3122 134 
Q 2881 22 2623 -34 
Q 2366 -91 2075 -91 
Q 1284 -91 818 406 
Q 353 903 353 1747 
Q 353 2603 823 3093 
Q 1294 3584 2113 3584 
Q 2378 3584 2631 3529 
Q 2884 3475 3122 3366 
z
" transform="scale(0.015625)"/>
      <path id="DejaVuSans-79" d="M 2059 -325 
Q 1816 -950 1584 -1140 
Q 1353 -1331 966 -1331 
L 506 -1331 
L 506 -850 
L 844 -850 
Q 1081 -850 1212 -737 
Q 1344 -625 1503 -206 
L 1606 56 
L 191 3500 
L 800 3500 
L 1894 763 
L 2988 3500 
L 3597 3500 
L 2059 -325 
z
" transform="scale(0.015625)"/>
      <path id="DejaVuSans-77" d="M 269 3500 
L 844 3500 
L 1563 769 
L 2278 3500 
L 2956 3500 
L 3675 769 
L 4391 3500 
L 4966 3500 
L 4050 0 
L 3372 0 
L 2619 2869 
L 1863 0 
L 1184 0 
L 269 3500 
z
" transform="scale(0.015625)"/>
     </defs>
     <use xlink:href="#DejaVuSans-32"/>
     <use xlink:href="#DejaVuSans-44" x="63.623047"/>
     <use xlink:href="#DejaVuSans-2d" x="140.625"/>
     <use xlink:href="#DejaVuSans-70" x="176.708984"/>
     <use xlink:href="#DejaVuSans-61" x="240.185547"/>
     <use xlink:href="#DejaVuSans-72" x="301.464844"/>
     <use xlink:href="#DejaVuSans-74" x="342.578125"/>
     <use xlink:href="#DejaVuSans-69" x="381.787109"/>
     <use xlink:href="#DejaVuSans-61" x="409.570312"/>
     <use xlink:href="#DejaVuSans-6c" x="470.849609"/>
     <use xlink:href="#DejaVuSans-20" x="498.632812"/>
     <use xlink:href="#DejaVuSans-64" x="530.419922"/>
     <use xlink:href="#DejaVuSans-65" x="593.896484"/>
     <use xlink:href="#DejaVuSans-70" x="655.419922"/>
     <use xlink:href="#DejaVuSans-65" x="718.896484"/>
     <use xlink:href="#DejaVuSans-6e" x="780.419922"/>
     <use xlink:href="#DejaVuSans-64" x="843.798828"/>
     <use xlink:href="#DejaVuSans-65" x="907.275391"/>
     <use xlink:href="#DejaVuSans-6e" x="968.798828"/>
     <use xlink:href="#DejaVuSans-63" x="1032.177734"/>
     <use xlink:href="#DejaVuSans-79" x="1087.158203"/>
     <use xlink:href="#DejaVuSans-20" x="1146.337891"/>
     <use xlink:href="#DejaVuSans-70" x="1178.125"/>
     <use xlink:href="#DejaVuSans-6c" x="1241.601562"/>
     <use xlink:href="#DejaVuSans-6f" x="1269.384766"/>
     <use xlink:href="#DejaVuSans-74" x="1330.566406"/>
     <use xlink:href="#DejaVuSans-20" x="1369.775391"/>
     <use xlink:href="#DejaVuSans-62" x="1401.5625"/>
     <use xlink:href="#DejaVuSans-65" x="1465.039062"/>
     <use xlink:href="#DejaVuSans-74" x="1526.5625"/>
     <use xlink:href="#DejaVuSans-77" x="1565.771484"/>
     <use xlink:href="#DejaVuSans-65" x="1647.558594"/>
     <use xlink:href="#DejaVuSans-65" x="1709.082031"/>
     <use xlink:href="#DejaVuSans-6e" x="1770.605469"/>
     <use xlink:href="#DejaVuSans-20" x="1833.984375"/>
     <use xlink:href="#DejaVuSans-47" x="1865.771484"/>
     <use xlink:href="#DejaVuSans-48" x="1943.261719"/>
     <use xlink:href="#DejaVuSans-47" x="2018.457031"/>
     <use xlink:href="#DejaVuSans-20" x="2095.947266"/>
     <use xlink:href="#DejaVuSans-61" x="2127.734375"/>
     <use xlink:href="#DejaVuSans-6e" x="2189.013672"/>
     <use xlink:href="#DejaVuSans-64" x="2252.392578"/>
     <use xlink:href="#DejaVuSans-20" x="2315.869141"/>
     <use xlink:href="#DejaVuSans-56" x="2347.65625"/>
     <use xlink:href="#DejaVuSans-65" x="2408.314453"/>
     <use xlink:href="#DejaVuSans-67" x="2469.837891"/>
    </g>
   </g>
   <g id="text_14">
    <g clip-path="url(#p1f340c84d9)">
     <!-- 6.29 -->
     <g transform="translate(100.588139 301.821844) rotate(-0.244175) scale(0.1 -0.1)">
      <defs>
       <path id="DejaVuSans-36" d="M 2113 2584 
Q 1688 2584 1439 2293 
Q 1191 2003 1191 1497 
Q 1191 994 1439 701 
Q 1688 409 2113 409 
Q 2538 409 2786 701 
Q 3034 994 3034 1497 
Q 3034 2003 2786 2293 
Q 2538 2584 2113 2584 
z
M 3366 4563 
L 3366 3988 
Q 3128 4100 2886 4159 
Q 2644 4219 2406 4219 
Q 1781 4219 1451 3797 
Q 1122 3375 1075 2522 
Q 1259 2794 1537 2939 
Q 1816 3084 2150 3084 
Q 2853 3084 3261 2657 
Q 3669 2231 3669 1497 
Q 3669 778 3244 343 
Q 2819 -91 2113 -91 
Q 1303 -91 875 529 
Q 447 1150 447 2328 
Q 447 3434 972 4092 
Q 1497 4750 2381 4750 
Q 2619 4750 2861 4703 
Q 3103 4656 3366 4563 
z
" transform="scale(0.015625)"/>
       <path id="DejaVuSans-2e" d="M 684 794 
L 1344 794 
L 1344 0 
L 684 0 
L 684 794 
z
" transform="scale(0.015625)"/>
       <path id="DejaVuSans-39" d="M 703 97 
L 703 672 
Q 941 559 1184 500 
Q 1428 441 1663 441 
Q 2288 441 2617 861 
Q 2947 1281 2994 2138 
Q 2813 1869 2534 1725 
Q 2256 1581 1919 1581 
Q 1219 1581 811 2004 
Q 403 2428 403 3163 
Q 403 3881 828 4315 
Q 1253 4750 1959 4750 
Q 2769 4750 3195 4129 
Q 3622 3509 3622 2328 
Q 3622 1225 3098 567 
Q 2575 -91 1691 -91 
Q 1453 -91 1209 -44 
Q 966 3 703 97 
z
M 1959 2075 
Q 2384 2075 2632 2365 
Q 2881 2656 2881 3163 
Q 2881 3666 2632 3958 
Q 2384 4250 1959 4250 
Q 1534 4250 1286 3958 
Q 1038 3666 1038 3163 
Q 1038 2656 1286 2365 
Q 1534 2075 1959 2075 
z
" transform="scale(0.015625)"/>
      </defs>
      <use xlink:href="#DejaVuSans-36"/>
      <use xlink:href="#DejaVuSans-2e" x="63.623047"/>
      <use xlink:href="#DejaVuSans-32" x="95.410156"/>
      <use xlink:href="#DejaVuSans-39" x="159.033203"/>
     </g>
    </g>
   </g>
   <g id="text_15">
    <g clip-path="url(#p1f340c84d9)">
     <!-- 7.42 -->
     <g transform="translate(212.412959 287.379296) rotate(-0.231224) scale(0.1 -0.1)">
      <defs>
       <path id="DejaVuSans-37" d="M 525 4666 
L 3525 4666 
L 3525 4397 
L 1831 0 
L 1172 0 
L 2766 4134 
L 525 4134 
L 525 4666 
z
" transform="scale(0.015625)"/>
       <path id="DejaVuSans-34" d="M 2419 4116 
L 825 1625 
L 2419 1625 
L 2419 4116 
z
M 2253 4666 
L 3047 4666 
L 3047 1625 
L 3713 1625 
L 3713 1100 
L 3047 1100 
L 3047 0 
L 2419 0 
L 2419 1100 
L 313 1100 
L 313 1709 
L 2253 4666 
z
" transform="scale(0.015625)"/>
      </defs>
      <use xlink:href="#DejaVuSans-37"/>
      <use xlink:href="#DejaVuSans-2e" x="63.623047"/>
      <use xlink:href="#DejaVuSans-34" x="95.410156"/>
      <use xlink:href="#DejaVuSans-32" x="159.033203"/>
     </g>
    </g>
   </g>
   <g id="text_16">
    <g clip-path="url(#p1f340c84d9)">
     <!-- 8.56 -->
     <g transform="translate(100.581178 274.026397) rotate(-0.101374) scale(0.1 -0.1)">
      <defs>
       <path id="DejaVuSans-38" d="M 2034 2216 
Q 1584 2216 1326 1975 
Q 1069 1734 1069 1313 
Q 1069 891 1326 650 
Q 1584 409 2034 409 
Q 2484 409 2743 651 
Q 3003 894 3003 1313 
Q 3003 1734 2745 1975 
Q 2488 2216 2034 2216 
z
M 1403 2484 
Q 997 2584 770 2862 
Q 544 3141 544 3541 
Q 544 4100 942 4425 
Q 1341 4750 2034 4750 
Q 2731 4750 3128 4425 
Q 3525 4100 3525 3541 
Q 3525 3141 3298 2862 
Q 3072 2584 2669 2484 
Q 3125 2378 3379 2068 
Q 3634 1759 3634 1313 
Q 3634 634 3220 271 
Q 2806 -91 2034 -91 
Q 1263 -91 848 271 
Q 434 634 434 1313 
Q 434 1759 690 2068 
Q 947 2378 1403 2484 
z
M 1172 3481 
Q 1172 3119 1398 2916 
Q 1625 2713 2034 2713 
Q 2441 2713 2670 2916 
Q 2900 3119 2900 3481 
Q 2900 3844 2670 4047 
Q 2441 4250 2034 4250 
Q 1625 4250 1398 4047 
Q 1172 3844 1172 3481 
z
" transform="scale(0.015625)"/>
      </defs>
      <use xlink:href="#DejaVuSans-38"/>
      <use xlink:href="#DejaVuSans-2e" x="63.623047"/>
      <use xlink:href="#DejaVuSans-35" x="95.410156"/>
      <use xlink:href="#DejaVuSans-36" x="159.033203"/>
     </g>
    </g>
   </g>
   <g id="text_17">
    <g clip-path="url(#p1f340c84d9)">
     <!-- 9.69 -->
     <g transform="translate(320.637802 259.075098) rotate(-0.366673) scale(0.1 -0.1)">
      <use xlink:href="#DejaVuSans-39"/>
      <use xlink:href="#DejaVuSans-2e" x="63.623047"/>
      <use xlink:href="#DejaVuSans-36" x="95.410156"/>
      <use xlink:href="#DejaVuSans-39" x="159.033203"/>
     </g>
    </g>
   </g>
   <g id="text_18">
    <g clip-path="url(#p1f340c84d9)">
     <!-- 10.82 -->
     <g transform="translate(252.523352 243.488733) rotate(-0.319232) scale(0.1 -0.1)">
      <use xlink:href="#DejaVuSans-31"/>
      <use xlink:href="#DejaVuSans-30" x="63.623047"/>
      <use xlink:href="#DejaVuSans-2e" x="127.246094"/>
      <use xlink:href="#DejaVuSans-38" x="159.033203"/>
      <use xlink:href="#DejaVuSans-32" x="222.65625"/>
     </g>
    </g>
   </g>
   <g id="text_19">
    <g clip-path="url(#p1f340c84d9)">
     <!-- 11.96 -->
     <g transform="translate(111.824081 222.935406) rotate(-359.9992) scale(0.1 -0.1)">
      <use xlink:href="#DejaVuSans-31"/>
      <use xlink:href="#DejaVuSans-31" x="63.623047"/>
      <use xlink:href="#DejaVuSans-2e" x="127.246094"/>
      <use xlink:href="#DejaVuSans-39" x="159.033203"/>
      <use xlink:href="#DejaVuSans-36" x="222.65625"/>
     </g>
    </g>
   </g>
   <g id="text_20">
    <g clip-path="url(#p1f340c84d9)">
     <!-- 11.96 -->
     <g transform="translate(335.399861 144.247844) rotate(-358.309625) scale(0.1 -0.1)">
      <use xlink:href="#DejaVuSans-31"/>
      <use xlink:href="#DejaVuSans-31" x="63.623047"/>
      <use xlink:href="#DejaVuSans-2e" x="127.246094"/>
      <use xlink:href="#DejaVuSans-39" x="159.033203"/>
      <use xlink:href="#DejaVuSans-36" x="222.65625"/>
     </g>
    </g>
   </g>
  </g>
 </g>
 <defs>
  <clipPath id="p1f340c84d9">
   <rect x="57.6" y="41.472" width="357.12" height="266.112"/>
  </clipPath>
 </defs>
</svg>
