<?xml version="1.0" encoding="utf-8" standalone="no"?>
<!DOCTYPE svg PUBLIC "-//W3C//DTD SVG 1.1//EN"
  "http://www.w3.org/Graphics/SVG/1.1/DTD/svg11.dtd">
<svg xmlns:xlink="http://www.w3.org/1999/xlink" width="460.8pt" height="345.6pt" viewBox="0 0 460.8 345.6" xmlns="http://www.w3.org/2000/svg" version="1.1">
 <metadata>
  <rdf:RDF xmlns:dc="http://purl.org/dc/elements/1.1/" xmlns:cc="http://creativecommons.org/ns#" xmlns:rdf="http://www.w3.org/1999/02/22-rdf-syntax-ns#">
   <cc:Work>
    <dc:type rdf:resource="http://purl.org/dc/dcmitype/StillImage"/>
    <dc:date>2024-04-22T00:57:34.784347</dc:date>
    <dc:format>image/svg+xml</dc:format>
    <dc:creator>
     <cc:Agent>
      <dc:title>Matplotlib v3.7.0, https://matplotlib.org/</dc:title>
     </cc:Agent>
    </dc:creator>
   </cc:Work>
  </rdf:RDF>
 </metadata>
 <defs>
  <style type="text/css">*{stroke-linejoin: round; stroke-linecap: butt}</style>
 </defs>
 <g id="figure_1">
  <g id="patch_1">
   <path d="M 0 345.6 
L 460.8 345.6 
L 460.8 0 
L 0 0 
L 0 345.6 
z
" style="fill: none"/>
  </g>
  <g id="axes_1"/>
  <g id="axes_2">
   <g id="patch_2">
    <path d="M 57.6 307.584 
L 414.72 307.584 
L 414.72 41.472 
L 57.6 41.472 
L 57.6 307.584 
z
" style="fill: none"/>
   </g>
   <g id="PathCollection_1">
    <path d="M 346.181818 307.584 
L 349.789091 307.584 
L 353.396364 307.584 
L 357.003636 307.584 
L 360.610909 307.584 
L 364.218182 307.584 
L 367.825455 307.584 
L 371.432727 307.584 
L 375.04 307.584 
L 378.647273 307.584 
L 382.254545 307.584 
L 385.861818 307.584 
L 389.469091 307.584 
L 393.076364 307.584 
L 396.683636 307.584 
L 400.290909 307.584 
L 403.898182 307.584 
L 407.505455 307.584 
L 411.112727 307.584 
L 414.72 307.584 
L 414.72 304.896 
L 414.72 302.208 
L 414.72 299.52 
L 414.72 296.832 
L 414.72 294.144 
L 414.72 291.456 
L 414.72 288.768 
L 414.72 286.08 
L 414.72 283.392 
L 414.72 280.704 
L 414.72 278.016 
L 414.72 275.328 
L 414.72 272.64 
L 414.72 269.952 
L 414.72 267.264 
L 414.72 264.576 
L 414.72 261.888 
L 414.72 259.2 
L 414.72 256.512 
L 414.72 253.824 
L 414.72 251.136 
L 414.72 248.448 
L 414.72 245.76 
L 414.72 243.072 
L 414.72 240.384 
L 414.72 238.422968 
L 412.697745 240.384 
L 411.112727 241.918993 
L 409.923972 243.072 
L 407.505455 245.414723 
L 407.149542 245.76 
L 404.375783 248.448 
L 403.898182 248.910319 
L 401.60233 251.136 
L 400.290909 252.405739 
L 398.828213 253.824 
L 396.683636 255.900849 
L 396.05345 256.512 
L 393.278595 259.2 
L 393.076364 259.39572 
L 390.504756 261.888 
L 389.469091 262.890522 
L 387.730265 264.576 
L 385.861818 266.385 
L 384.955142 267.264 
L 382.254545 269.879143 
L 382.179406 269.952 
L 379.404965 272.64 
L 378.647273 273.373285 
L 376.630075 275.328 
L 375.04 276.867121 
L 373.854566 278.016 
L 371.432727 280.36061 
L 371.078457 280.704 
L 368.302909 283.392 
L 367.825455 283.853977 
L 365.527597 286.08 
L 364.218182 287.347165 
L 362.751679 288.768 
L 360.610909 290.839994 
L 359.975175 291.456 
L 357.198552 294.144 
L 357.003636 294.332559 
L 354.422796 296.832 
L 353.396364 297.825096 
L 351.646449 299.52 
L 349.789091 301.317262 
L 348.869531 302.208 
L 346.181818 304.809049 
L 346.092061 304.896 
L 343.315648 307.584 
z
" clip-path="url(#pafb2fa7125)" style="fill: #481b6d; fill-opacity: 0.75"/>
   </g>
   <g id="PathCollection_2">
    <path d="M 245.178182 307.584 
L 248.785455 307.584 
L 252.392727 307.584 
L 256 307.584 
L 259.607273 307.584 
L 263.214545 307.584 
L 266.821818 307.584 
L 270.429091 307.584 
L 274.036364 307.584 
L 277.643636 307.584 
L 281.250909 307.584 
L 284.858182 307.584 
L 288.465455 307.584 
L 292.072727 307.584 
L 295.68 307.584 
L 299.287273 307.584 
L 302.894545 307.584 
L 306.501818 307.584 
L 310.109091 307.584 
L 313.716364 307.584 
L 317.323636 307.584 
L 320.930909 307.584 
L 324.538182 307.584 
L 328.145455 307.584 
L 331.752727 307.584 
L 335.36 307.584 
L 338.967273 307.584 
L 342.574545 307.584 
L 343.315648 307.584 
L 346.092061 304.896 
L 346.181818 304.809049 
L 348.869531 302.208 
L 349.789091 301.317262 
L 351.646449 299.52 
L 353.396364 297.825096 
L 354.422796 296.832 
L 357.003636 294.332559 
L 357.198552 294.144 
L 359.975175 291.456 
L 360.610909 290.839994 
L 362.751679 288.768 
L 364.218182 287.347165 
L 365.527597 286.08 
L 367.825455 283.853977 
L 368.302909 283.392 
L 371.078457 280.704 
L 371.432727 280.36061 
L 373.854566 278.016 
L 375.04 276.867121 
L 376.630075 275.328 
L 378.647273 273.373285 
L 379.404965 272.64 
L 382.179406 269.952 
L 382.254545 269.879143 
L 384.955142 267.264 
L 385.861818 266.385 
L 387.730265 264.576 
L 389.469091 262.890522 
L 390.504756 261.888 
L 393.076364 259.39572 
L 393.278595 259.2 
L 396.05345 256.512 
L 396.683636 255.900849 
L 398.828213 253.824 
L 400.290909 252.405739 
L 401.60233 251.136 
L 403.898182 248.910319 
L 404.375783 248.448 
L 407.149542 245.76 
L 407.505455 245.414723 
L 409.923972 243.072 
L 411.112727 241.918993 
L 412.697745 240.384 
L 414.72 238.422968 
L 414.72 237.696 
L 414.72 235.008 
L 414.72 232.32 
L 414.72 229.632 
L 414.72 226.944 
L 414.72 224.256 
L 414.72 221.568 
L 414.72 218.88 
L 414.72 216.192 
L 414.72 213.504 
L 414.72 210.816 
L 414.72 208.128 
L 414.72 205.44 
L 414.72 202.752 
L 414.72 200.064 
L 414.72 197.376 
L 414.72 194.688 
L 414.72 192 
L 414.72 189.312 
L 414.72 186.624 
L 414.72 183.936 
L 414.72 181.248 
L 414.72 178.56 
L 414.72 175.872 
L 414.72 173.184 
L 414.72 170.496 
L 414.72 167.808 
L 414.72 165.12 
L 414.72 162.432 
L 414.72 159.744 
L 414.72 157.056 
L 414.72 154.368 
L 414.72 151.68 
L 414.72 148.992 
L 414.72 146.304 
L 414.72 143.616 
L 414.72 140.928 
L 414.72 138.24 
L 414.72 137.836608 
L 414.321463 138.24 
L 411.661935 140.928 
L 411.112727 141.482252 
L 409.00104 143.616 
L 407.505455 145.124732 
L 406.337886 146.304 
L 403.898182 148.764158 
L 403.672503 148.992 
L 401.006469 151.68 
L 400.290909 152.400369 
L 398.338687 154.368 
L 396.683636 156.033489 
L 395.668685 157.056 
L 393.076364 159.663572 
L 392.996494 159.744 
L 390.323907 162.432 
L 389.469091 163.29046 
L 387.64928 165.12 
L 385.861818 166.914311 
L 384.972473 167.808 
L 382.293591 170.496 
L 382.254545 170.535134 
L 379.614329 173.184 
L 378.647273 174.15281 
L 376.932896 175.872 
L 375.04 177.767478 
L 374.249318 178.56 
L 371.563874 181.248 
L 371.432727 181.379124 
L 368.877804 183.936 
L 367.825455 184.987689 
L 366.189598 186.624 
L 364.218182 188.593259 
L 363.499283 189.312 
L 360.80724 192 
L 360.610909 192.195823 
L 358.114393 194.688 
L 357.003636 195.795358 
L 355.419443 197.376 
L 353.396364 199.391912 
L 352.722418 200.064 
L 350.023743 202.752 
L 349.789091 202.985481 
L 347.324145 205.44 
L 346.181818 206.576066 
L 344.622477 208.128 
L 342.574545 210.163684 
L 341.918766 210.816 
L 339.21343 213.504 
L 338.967273 213.748339 
L 336.507104 216.192 
L 335.36 217.330052 
L 333.798738 218.88 
L 331.752727 220.90881 
L 331.088359 221.568 
L 328.376337 224.256 
L 328.145455 224.484627 
L 325.663301 226.944 
L 324.538182 228.057543 
L 322.948254 229.632 
L 320.930909 231.627515 
L 320.231222 232.32 
L 317.512493 235.008 
L 317.323636 235.194564 
L 314.79276 237.696 
L 313.716364 238.758755 
L 312.071045 240.384 
L 310.109091 242.320014 
L 309.347371 243.072 
L 306.621917 245.76 
L 306.501818 245.878359 
L 303.895499 248.448 
L 302.894545 249.433895 
L 301.167123 251.136 
L 299.287273 252.98651 
L 298.436813 253.824 
L 295.704622 256.512 
L 295.68 256.536207 
L 292.971523 259.2 
L 292.072727 260.083156 
L 290.23649 261.888 
L 288.465455 263.627195 
L 287.499547 264.576 
L 284.858182 267.168321 
L 284.760717 267.264 
L 282.020832 269.952 
L 281.250909 270.706724 
L 279.279143 272.64 
L 277.643636 274.242251 
L 276.535566 275.328 
L 274.036364 277.774874 
L 273.790121 278.016 
L 271.043418 280.704 
L 270.429091 281.304773 
L 268.295069 283.392 
L 266.821818 284.831849 
L 265.544851 286.08 
L 263.214545 288.356032 
L 262.792787 288.768 
L 260.039265 291.456 
L 259.607273 291.877464 
L 257.284247 294.144 
L 256 295.39615 
L 254.52738 296.832 
L 252.392727 298.911952 
L 251.768684 299.52 
L 249.008348 302.208 
L 248.785455 302.424951 
L 246.246651 304.896 
L 245.178182 305.935305 
L 243.483121 307.584 
z
" clip-path="url(#pafb2fa7125)" style="fill: #3f4788; fill-opacity: 0.75"/>
   </g>
   <g id="PathCollection_3">
    <path d="M 147.781818 307.584 
L 151.389091 307.584 
L 154.996364 307.584 
L 158.603636 307.584 
L 162.210909 307.584 
L 165.818182 307.584 
L 169.425455 307.584 
L 173.032727 307.584 
L 176.64 307.584 
L 180.247273 307.584 
L 183.854545 307.584 
L 187.461818 307.584 
L 191.069091 307.584 
L 194.676364 307.584 
L 198.283636 307.584 
L 201.890909 307.584 
L 205.498182 307.584 
L 209.105455 307.584 
L 212.712727 307.584 
L 216.32 307.584 
L 219.927273 307.584 
L 223.534545 307.584 
L 227.141818 307.584 
L 230.749091 307.584 
L 234.356364 307.584 
L 237.963636 307.584 
L 241.570909 307.584 
L 243.483121 307.584 
L 245.178182 305.935305 
L 246.246651 304.896 
L 248.785455 302.424951 
L 249.008348 302.208 
L 251.768684 299.52 
L 252.392727 298.911952 
L 254.52738 296.832 
L 256 295.39615 
L 257.284247 294.144 
L 259.607273 291.877464 
L 260.039265 291.456 
L 262.792787 288.768 
L 263.214545 288.356032 
L 265.544851 286.08 
L 266.821818 284.831849 
L 268.295069 283.392 
L 270.429091 281.304773 
L 271.043418 280.704 
L 273.790121 278.016 
L 274.036364 277.774874 
L 276.535566 275.328 
L 277.643636 274.242251 
L 279.279143 272.64 
L 281.250909 270.706724 
L 282.020832 269.952 
L 284.760717 267.264 
L 284.858182 267.168321 
L 287.499547 264.576 
L 288.465455 263.627195 
L 290.23649 261.888 
L 292.072727 260.083156 
L 292.971523 259.2 
L 295.68 256.536207 
L 295.704622 256.512 
L 298.436813 253.824 
L 299.287273 252.98651 
L 301.167123 251.136 
L 302.894545 249.433895 
L 303.895499 248.448 
L 306.501818 245.878359 
L 306.621917 245.76 
L 309.347371 243.072 
L 310.109091 242.320014 
L 312.071045 240.384 
L 313.716364 238.758755 
L 314.79276 237.696 
L 317.323636 235.194564 
L 317.512493 235.008 
L 320.231222 232.32 
L 320.930909 231.627515 
L 322.948254 229.632 
L 324.538182 228.057543 
L 325.663301 226.944 
L 328.145455 224.484627 
L 328.376337 224.256 
L 331.088359 221.568 
L 331.752727 220.90881 
L 333.798738 218.88 
L 335.36 217.330052 
L 336.507104 216.192 
L 338.967273 213.748339 
L 339.21343 213.504 
L 341.918766 210.816 
L 342.574545 210.163684 
L 344.622477 208.128 
L 346.181818 206.576066 
L 347.324145 205.44 
L 349.789091 202.985481 
L 350.023743 202.752 
L 352.722418 200.064 
L 353.396364 199.391912 
L 355.419443 197.376 
L 357.003636 195.795358 
L 358.114393 194.688 
L 360.610909 192.195823 
L 360.80724 192 
L 363.499283 189.312 
L 364.218182 188.593259 
L 366.189598 186.624 
L 367.825455 184.987689 
L 368.877804 183.936 
L 371.432727 181.379124 
L 371.563874 181.248 
L 374.249318 178.56 
L 375.04 177.767478 
L 376.932896 175.872 
L 378.647273 174.15281 
L 379.614329 173.184 
L 382.254545 170.535134 
L 382.293591 170.496 
L 384.972473 167.808 
L 385.861818 166.914311 
L 387.64928 165.12 
L 389.469091 163.29046 
L 390.323907 162.432 
L 392.996494 159.744 
L 393.076364 159.663572 
L 395.668685 157.056 
L 396.683636 156.033489 
L 398.338687 154.368 
L 400.290909 152.400369 
L 401.006469 151.68 
L 403.672503 148.992 
L 403.898182 148.764158 
L 406.337886 146.304 
L 407.505455 145.124732 
L 409.00104 143.616 
L 411.112727 141.482252 
L 411.661935 140.928 
L 414.321463 138.24 
L 414.72 137.836608 
L 414.72 135.552 
L 414.72 132.864 
L 414.72 130.176 
L 414.72 127.488 
L 414.72 124.8 
L 414.72 122.112 
L 414.72 119.424 
L 414.72 116.736 
L 414.72 114.048 
L 414.72 111.36 
L 414.72 108.672 
L 414.72 105.984 
L 414.72 103.296 
L 414.72 100.608 
L 414.72 97.92 
L 414.72 95.232 
L 414.72 92.544 
L 414.72 89.856 
L 414.72 87.168 
L 414.72 84.48 
L 414.72 81.792 
L 414.72 79.104 
L 414.72 76.416 
L 414.72 73.728 
L 414.72 71.04 
L 414.72 68.352 
L 414.72 65.664 
L 414.72 62.976 
L 414.72 60.288 
L 414.72 57.6 
L 414.72 54.912 
L 414.72 52.224 
L 414.72 49.536 
L 414.72 46.848 
L 414.72 44.16 
L 414.72 41.472 
L 411.112727 41.472 
L 409.765957 41.472 
L 407.505455 43.882466 
L 407.245438 44.16 
L 404.722773 46.848 
L 403.898182 47.724984 
L 402.196961 49.536 
L 400.290909 51.561134 
L 399.667588 52.224 
L 397.135432 54.912 
L 396.683636 55.390776 
L 394.60075 57.6 
L 393.076364 59.213791 
L 392.062531 60.288 
L 389.520895 62.976 
L 389.469091 63.030702 
L 386.977349 65.664 
L 385.861818 66.840731 
L 384.43029 68.352 
L 382.254545 70.644751 
L 381.879754 71.04 
L 379.32678 73.728 
L 378.647273 74.442239 
L 376.770882 76.416 
L 375.04 78.233468 
L 374.211528 79.104 
L 371.649059 81.792 
L 371.432727 82.018587 
L 369.084322 84.48 
L 367.825455 85.797165 
L 366.516148 87.168 
L 364.218182 89.569842 
L 363.94457 89.856 
L 361.37062 92.544 
L 360.610909 93.336101 
L 358.79362 95.232 
L 357.003636 97.09631 
L 356.213232 97.92 
L 353.629782 100.608 
L 353.396364 100.850521 
L 351.043947 103.296 
L 349.789091 104.598394 
L 348.45474 105.984 
L 346.181818 108.340467 
L 345.862192 108.672 
L 343.267131 111.36 
L 342.574545 112.076328 
L 340.66909 114.048 
L 338.967273 115.806235 
L 338.067721 116.736 
L 335.463167 119.424 
L 335.36 119.530336 
L 332.856277 122.112 
L 331.752727 123.2482 
L 330.24607 124.8 
L 328.145455 126.960357 
L 327.632575 127.488 
L 325.016292 130.176 
L 324.538182 130.666569 
L 322.397226 132.864 
L 320.930909 134.366843 
L 319.774879 135.552 
L 317.323636 138.06146 
L 317.149281 138.24 
L 314.521172 140.928 
L 313.716364 141.750048 
L 311.88995 143.616 
L 310.109091 145.432933 
L 309.255482 146.304 
L 306.617891 148.992 
L 306.501818 149.110159 
L 303.977766 151.68 
L 302.894545 152.781422 
L 301.334398 154.368 
L 299.287273 156.447112 
L 298.687816 157.056 
L 296.038301 159.744 
L 295.68 160.107099 
L 293.386003 162.432 
L 292.072727 163.761309 
L 290.73049 165.12 
L 288.465455 167.40999 
L 288.071788 167.808 
L 285.410265 170.496 
L 284.858182 171.052959 
L 282.745786 173.184 
L 281.250909 174.690294 
L 280.078117 175.872 
L 277.643636 178.322142 
L 277.407283 178.56 
L 274.733667 181.248 
L 274.036364 181.948301 
L 272.056991 183.936 
L 270.429091 185.568933 
L 269.377146 186.624 
L 266.821818 189.184116 
L 266.694154 189.312 
L 264.008368 192 
L 263.214545 192.793657 
L 261.319467 194.688 
L 259.607273 196.397747 
L 258.627414 197.376 
L 256 199.996426 
L 255.93223 200.064 
L 253.234201 202.752 
L 252.392727 203.589525 
L 250.533036 205.44 
L 248.785455 207.177229 
L 247.828733 208.128 
L 245.178182 210.759556 
L 245.121312 210.816 
L 242.41097 213.504 
L 241.570909 214.336376 
L 239.697494 216.192 
L 237.963636 217.907839 
L 236.98089 218.88 
L 234.356364 221.473959 
L 234.261175 221.568 
L 231.538456 224.256 
L 230.749091 225.034648 
L 228.81261 226.944 
L 227.141818 228.590009 
L 226.083642 229.632 
L 223.534545 232.140058 
L 223.351568 232.32 
L 220.616412 235.008 
L 219.927273 235.684749 
L 217.878127 237.696 
L 216.32 239.224139 
L 215.136722 240.384 
L 212.712727 242.758247 
L 212.392213 243.072 
L 209.644565 245.76 
L 209.105455 246.28706 
L 206.893762 248.448 
L 205.498182 249.810602 
L 204.139837 251.136 
L 201.890909 253.32889 
L 201.382805 253.824 
L 198.622616 256.512 
L 198.283636 256.84193 
L 195.859204 259.2 
L 194.676364 260.349739 
L 193.092666 261.888 
L 191.069091 263.852319 
L 190.323015 264.576 
L 187.550239 267.264 
L 187.461818 267.349679 
L 184.774119 269.952 
L 183.854545 270.841863 
L 181.994863 272.64 
L 180.247273 274.328841 
L 179.212485 275.328 
L 176.64 277.810618 
L 176.426997 278.016 
L 173.638143 280.704 
L 173.032727 281.287256 
L 170.846056 283.392 
L 169.425455 284.758732 
L 168.050832 286.08 
L 165.818182 288.225025 
L 165.252484 288.768 
L 162.45089 291.456 
L 162.210909 291.686174 
L 159.645846 294.144 
L 158.603636 295.142236 
L 156.837648 296.832 
L 154.996364 298.593136 
L 154.026306 299.52 
L 151.389091 302.038875 
L 151.21183 302.208 
L 148.393808 304.896 
L 147.781818 305.479574 
L 145.572495 307.584 
z
" clip-path="url(#pafb2fa7125)" style="fill: #2e6e8e; fill-opacity: 0.75"/>
   </g>
   <g id="PathCollection_4">
    <path d="M 61.207273 307.584 
L 64.814545 307.584 
L 68.421818 307.584 
L 72.029091 307.584 
L 75.636364 307.584 
L 79.243636 307.584 
L 82.850909 307.584 
L 86.458182 307.584 
L 90.065455 307.584 
L 93.672727 307.584 
L 97.28 307.584 
L 100.887273 307.584 
L 104.494545 307.584 
L 108.101818 307.584 
L 111.709091 307.584 
L 115.316364 307.584 
L 118.923636 307.584 
L 122.530909 307.584 
L 126.138182 307.584 
L 129.745455 307.584 
L 133.352727 307.584 
L 136.96 307.584 
L 140.567273 307.584 
L 144.174545 307.584 
L 145.572495 307.584 
L 147.781818 305.479574 
L 148.393808 304.896 
L 151.21183 302.208 
L 151.389091 302.038875 
L 154.026306 299.52 
L 154.996364 298.593136 
L 156.837648 296.832 
L 158.603636 295.142236 
L 159.645846 294.144 
L 162.210909 291.686174 
L 162.45089 291.456 
L 165.252484 288.768 
L 165.818182 288.225025 
L 168.050832 286.08 
L 169.425455 284.758732 
L 170.846056 283.392 
L 173.032727 281.287256 
L 173.638143 280.704 
L 176.426997 278.016 
L 176.64 277.810618 
L 179.212485 275.328 
L 180.247273 274.328841 
L 181.994863 272.64 
L 183.854545 270.841863 
L 184.774119 269.952 
L 187.461818 267.349679 
L 187.550239 267.264 
L 190.323015 264.576 
L 191.069091 263.852319 
L 193.092666 261.888 
L 194.676364 260.349739 
L 195.859204 259.2 
L 198.283636 256.84193 
L 198.622616 256.512 
L 201.382805 253.824 
L 201.890909 253.32889 
L 204.139837 251.136 
L 205.498182 249.810602 
L 206.893762 248.448 
L 209.105455 246.28706 
L 209.644565 245.76 
L 212.392213 243.072 
L 212.712727 242.758247 
L 215.136722 240.384 
L 216.32 239.224139 
L 217.878127 237.696 
L 219.927273 235.684749 
L 220.616412 235.008 
L 223.351568 232.32 
L 223.534545 232.140058 
L 226.083642 229.632 
L 227.141818 228.590009 
L 228.81261 226.944 
L 230.749091 225.034648 
L 231.538456 224.256 
L 234.261175 221.568 
L 234.356364 221.473959 
L 236.98089 218.88 
L 237.963636 217.907839 
L 239.697494 216.192 
L 241.570909 214.336376 
L 242.41097 213.504 
L 245.121312 210.816 
L 245.178182 210.759556 
L 247.828733 208.128 
L 248.785455 207.177229 
L 250.533036 205.44 
L 252.392727 203.589525 
L 253.234201 202.752 
L 255.93223 200.064 
L 256 199.996426 
L 258.627414 197.376 
L 259.607273 196.397747 
L 261.319467 194.688 
L 263.214545 192.793657 
L 264.008368 192 
L 266.694154 189.312 
L 266.821818 189.184116 
L 269.377146 186.624 
L 270.429091 185.568933 
L 272.056991 183.936 
L 274.036364 181.948301 
L 274.733667 181.248 
L 277.407283 178.56 
L 277.643636 178.322142 
L 280.078117 175.872 
L 281.250909 174.690294 
L 282.745786 173.184 
L 284.858182 171.052959 
L 285.410265 170.496 
L 288.071788 167.808 
L 288.465455 167.40999 
L 290.73049 165.12 
L 292.072727 163.761309 
L 293.386003 162.432 
L 295.68 160.107099 
L 296.038301 159.744 
L 298.687816 157.056 
L 299.287273 156.447112 
L 301.334398 154.368 
L 302.894545 152.781422 
L 303.977766 151.68 
L 306.501818 149.110159 
L 306.617891 148.992 
L 309.255482 146.304 
L 310.109091 145.432933 
L 311.88995 143.616 
L 313.716364 141.750048 
L 314.521172 140.928 
L 317.149281 138.24 
L 317.323636 138.06146 
L 319.774879 135.552 
L 320.930909 134.366843 
L 322.397226 132.864 
L 324.538182 130.666569 
L 325.016292 130.176 
L 327.632575 127.488 
L 328.145455 126.960357 
L 330.24607 124.8 
L 331.752727 123.2482 
L 332.856277 122.112 
L 335.36 119.530336 
L 335.463167 119.424 
L 338.067721 116.736 
L 338.967273 115.806235 
L 340.66909 114.048 
L 342.574545 112.076328 
L 343.267131 111.36 
L 345.862192 108.672 
L 346.181818 108.340467 
L 348.45474 105.984 
L 349.789091 104.598394 
L 351.043947 103.296 
L 353.396364 100.850521 
L 353.629782 100.608 
L 356.213232 97.92 
L 357.003636 97.09631 
L 358.79362 95.232 
L 360.610909 93.336101 
L 361.37062 92.544 
L 363.94457 89.856 
L 364.218182 89.569842 
L 366.516148 87.168 
L 367.825455 85.797165 
L 369.084322 84.48 
L 371.432727 82.018587 
L 371.649059 81.792 
L 374.211528 79.104 
L 375.04 78.233468 
L 376.770882 76.416 
L 378.647273 74.442239 
L 379.32678 73.728 
L 381.879754 71.04 
L 382.254545 70.644751 
L 384.43029 68.352 
L 385.861818 66.840731 
L 386.977349 65.664 
L 389.469091 63.030702 
L 389.520895 62.976 
L 392.062531 60.288 
L 393.076364 59.213791 
L 394.60075 57.6 
L 396.683636 55.390776 
L 397.135432 54.912 
L 399.667588 52.224 
L 400.290909 51.561134 
L 402.196961 49.536 
L 403.898182 47.724984 
L 404.722773 46.848 
L 407.245438 44.16 
L 407.505455 43.882466 
L 409.765957 41.472 
L 407.505455 41.472 
L 403.898182 41.472 
L 400.290909 41.472 
L 396.683636 41.472 
L 393.076364 41.472 
L 389.469091 41.472 
L 385.861818 41.472 
L 382.254545 41.472 
L 378.647273 41.472 
L 375.04 41.472 
L 371.432727 41.472 
L 367.825455 41.472 
L 364.218182 41.472 
L 360.610909 41.472 
L 357.003636 41.472 
L 353.396364 41.472 
L 349.789091 41.472 
L 346.181818 41.472 
L 342.574545 41.472 
L 338.967273 41.472 
L 335.36 41.472 
L 331.752727 41.472 
L 328.145455 41.472 
L 324.538182 41.472 
L 320.930909 41.472 
L 317.323636 41.472 
L 315.226651 41.472 
L 313.716364 43.092149 
L 312.720908 44.16 
L 310.2109 46.848 
L 310.109091 46.956863 
L 307.696968 49.536 
L 306.501818 50.811755 
L 305.178707 52.224 
L 302.894545 54.65799 
L 302.656146 54.912 
L 300.129567 57.6 
L 299.287273 58.494683 
L 297.598744 60.288 
L 295.68 62.322535 
L 295.063625 62.976 
L 292.524346 65.664 
L 292.072727 66.141362 
L 289.980912 68.352 
L 288.465455 69.951037 
L 287.433184 71.04 
L 284.881193 73.728 
L 284.858182 73.752205 
L 282.325095 76.416 
L 281.250909 77.543903 
L 279.764701 79.104 
L 277.643636 81.327188 
L 277.200038 81.792 
L 274.63117 84.48 
L 274.036364 85.101522 
L 272.058049 87.168 
L 270.429091 88.867091 
L 269.480653 89.856 
L 266.899007 92.544 
L 266.821818 92.624267 
L 264.313092 95.232 
L 263.214545 96.372305 
L 261.722895 97.92 
L 259.607273 100.112085 
L 259.128437 100.608 
L 256.529688 103.296 
L 256 103.843179 
L 253.926614 105.984 
L 252.392727 107.565671 
L 251.319269 108.672 
L 248.785455 111.279985 
L 248.707673 111.36 
L 246.091657 114.048 
L 245.178182 114.98542 
L 243.471342 116.736 
L 241.570909 118.682678 
L 240.84676 119.424 
L 238.217861 122.112 
L 237.963636 122.371646 
L 235.58449 124.8 
L 234.356364 126.052008 
L 232.946832 127.488 
L 230.749091 129.72433 
L 230.304907 130.176 
L 227.658537 132.864 
L 227.141818 133.388268 
L 225.00771 135.552 
L 223.534545 137.043906 
L 222.352592 138.24 
L 219.927273 140.691577 
L 219.693199 140.928 
L 217.029206 143.616 
L 216.32 144.330835 
L 214.360793 146.304 
L 212.712727 147.962024 
L 211.688078 148.992 
L 209.105455 151.585313 
L 209.011076 151.68 
L 206.329312 154.368 
L 205.498182 155.200219 
L 203.643165 157.056 
L 201.890909 158.807217 
L 200.9527 159.744 
L 198.283636 162.40638 
L 198.257927 162.432 
L 195.55825 165.12 
L 194.676364 165.997235 
L 192.854203 167.808 
L 191.069091 169.580288 
L 190.145814 170.496 
L 187.461818 173.155566 
L 187.433093 173.184 
L 184.715363 175.872 
L 183.854545 176.722649 
L 181.993232 178.56 
L 180.247273 180.281988 
L 179.266729 181.248 
L 176.64 183.833608 
L 176.535862 183.936 
L 173.799947 186.624 
L 173.032727 187.377174 
L 171.059527 189.312 
L 169.425455 190.913016 
L 168.314701 192 
L 165.818182 194.441194 
L 165.565472 194.688 
L 162.811243 197.376 
L 162.210909 197.961473 
L 160.052314 200.064 
L 158.603636 201.474022 
L 157.288936 202.752 
L 154.996364 204.978957 
L 154.521111 205.44 
L 151.748444 208.128 
L 151.389091 208.476157 
L 148.970765 210.816 
L 147.781818 211.965604 
L 146.188588 213.504 
L 144.174545 215.447483 
L 143.401914 216.192 
L 140.610691 218.88 
L 140.567273 218.92179 
L 137.814002 221.568 
L 136.96 222.388311 
L 135.012759 224.256 
L 133.352727 225.847308 
L 132.206962 226.944 
L 129.745455 229.298788 
L 129.396609 229.632 
L 126.581093 232.32 
L 126.138182 232.742642 
L 123.760498 235.008 
L 122.530909 236.178917 
L 120.935284 237.696 
L 118.923636 239.607713 
L 118.105449 240.384 
L 115.316364 243.029038 
L 115.270987 243.072 
L 112.430801 245.76 
L 111.709091 246.442747 
L 109.585857 248.448 
L 108.101818 249.849004 
L 106.736219 251.136 
L 104.494545 253.247823 
L 103.881878 253.824 
L 101.022609 256.512 
L 100.887273 256.639188 
L 98.157602 259.2 
L 97.28 260.023035 
L 95.287819 261.888 
L 93.672727 263.399475 
L 92.413251 264.576 
L 90.065455 266.768513 
L 89.533889 267.264 
L 86.649384 269.952 
L 86.458182 270.130133 
L 83.759095 272.64 
L 82.850909 273.484308 
L 80.86393 275.328 
L 79.243636 276.831108 
L 77.963879 278.016 
L 75.636364 280.170535 
L 75.058928 280.704 
L 72.148835 283.392 
L 72.029091 283.502588 
L 69.232683 286.08 
L 68.421818 286.827246 
L 66.311543 288.768 
L 64.814545 290.144554 
L 63.385401 291.456 
L 61.207273 293.454515 
L 60.454242 294.144 
L 57.6 296.75713 
L 57.6 296.832 
L 57.6 299.52 
L 57.6 302.208 
L 57.6 304.896 
L 57.6 307.584 
z
" clip-path="url(#pafb2fa7125)" style="fill: #21908d; fill-opacity: 0.75"/>
   </g>
   <g id="PathCollection_5">
    <path d="M 60.454242 294.144 
L 61.207273 293.454515 
L 63.385401 291.456 
L 64.814545 290.144554 
L 66.311543 288.768 
L 68.421818 286.827246 
L 69.232683 286.08 
L 72.029091 283.502588 
L 72.148835 283.392 
L 75.058928 280.704 
L 75.636364 280.170535 
L 77.963879 278.016 
L 79.243636 276.831108 
L 80.86393 275.328 
L 82.850909 273.484308 
L 83.759095 272.64 
L 86.458182 270.130133 
L 86.649384 269.952 
L 89.533889 267.264 
L 90.065455 266.768513 
L 92.413251 264.576 
L 93.672727 263.399475 
L 95.287819 261.888 
L 97.28 260.023035 
L 98.157602 259.2 
L 100.887273 256.639188 
L 101.022609 256.512 
L 103.881878 253.824 
L 104.494545 253.247823 
L 106.736219 251.136 
L 108.101818 249.849004 
L 109.585857 248.448 
L 111.709091 246.442747 
L 112.430801 245.76 
L 115.270987 243.072 
L 115.316364 243.029038 
L 118.105449 240.384 
L 118.923636 239.607713 
L 120.935284 237.696 
L 122.530909 236.178917 
L 123.760498 235.008 
L 126.138182 232.742642 
L 126.581093 232.32 
L 129.396609 229.632 
L 129.745455 229.298788 
L 132.206962 226.944 
L 133.352727 225.847308 
L 135.012759 224.256 
L 136.96 222.388311 
L 137.814002 221.568 
L 140.567273 218.92179 
L 140.610691 218.88 
L 143.401914 216.192 
L 144.174545 215.447483 
L 146.188588 213.504 
L 147.781818 211.965604 
L 148.970765 210.816 
L 151.389091 208.476157 
L 151.748444 208.128 
L 154.521111 205.44 
L 154.996364 204.978957 
L 157.288936 202.752 
L 158.603636 201.474022 
L 160.052314 200.064 
L 162.210909 197.961473 
L 162.811243 197.376 
L 165.565472 194.688 
L 165.818182 194.441194 
L 168.314701 192 
L 169.425455 190.913016 
L 171.059527 189.312 
L 173.032727 187.377174 
L 173.799947 186.624 
L 176.535862 183.936 
L 176.64 183.833608 
L 179.266729 181.248 
L 180.247273 180.281988 
L 181.993232 178.56 
L 183.854545 176.722649 
L 184.715363 175.872 
L 187.433093 173.184 
L 187.461818 173.155566 
L 190.145814 170.496 
L 191.069091 169.580288 
L 192.854203 167.808 
L 194.676364 165.997235 
L 195.55825 165.12 
L 198.257927 162.432 
L 198.283636 162.40638 
L 200.9527 159.744 
L 201.890909 158.807217 
L 203.643165 157.056 
L 205.498182 155.200219 
L 206.329312 154.368 
L 209.011076 151.68 
L 209.105455 151.585313 
L 211.688078 148.992 
L 212.712727 147.962024 
L 214.360793 146.304 
L 216.32 144.330835 
L 217.029206 143.616 
L 219.693199 140.928 
L 219.927273 140.691577 
L 222.352592 138.24 
L 223.534545 137.043906 
L 225.00771 135.552 
L 227.141818 133.388268 
L 227.658537 132.864 
L 230.304907 130.176 
L 230.749091 129.72433 
L 232.946832 127.488 
L 234.356364 126.052008 
L 235.58449 124.8 
L 237.963636 122.371646 
L 238.217861 122.112 
L 240.84676 119.424 
L 241.570909 118.682678 
L 243.471342 116.736 
L 245.178182 114.98542 
L 246.091657 114.048 
L 248.707673 111.36 
L 248.785455 111.279985 
L 251.319269 108.672 
L 252.392727 107.565671 
L 253.926614 105.984 
L 256 103.843179 
L 256.529688 103.296 
L 259.128437 100.608 
L 259.607273 100.112085 
L 261.722895 97.92 
L 263.214545 96.372305 
L 264.313092 95.232 
L 266.821818 92.624267 
L 266.899007 92.544 
L 269.480653 89.856 
L 270.429091 88.867091 
L 272.058049 87.168 
L 274.036364 85.101522 
L 274.63117 84.48 
L 277.200038 81.792 
L 277.643636 81.327188 
L 279.764701 79.104 
L 281.250909 77.543903 
L 282.325095 76.416 
L 284.858182 73.752205 
L 284.881193 73.728 
L 287.433184 71.04 
L 288.465455 69.951037 
L 289.980912 68.352 
L 292.072727 66.141362 
L 292.524346 65.664 
L 295.063625 62.976 
L 295.68 62.322535 
L 297.598744 60.288 
L 299.287273 58.494683 
L 300.129567 57.6 
L 302.656146 54.912 
L 302.894545 54.65799 
L 305.178707 52.224 
L 306.501818 50.811755 
L 307.696968 49.536 
L 310.109091 46.956863 
L 310.2109 46.848 
L 312.720908 44.16 
L 313.716364 43.092149 
L 315.226651 41.472 
L 313.716364 41.472 
L 310.109091 41.472 
L 306.501818 41.472 
L 302.894545 41.472 
L 299.287273 41.472 
L 295.68 41.472 
L 292.072727 41.472 
L 288.465455 41.472 
L 284.858182 41.472 
L 281.250909 41.472 
L 277.643636 41.472 
L 274.036364 41.472 
L 270.429091 41.472 
L 266.821818 41.472 
L 263.214545 41.472 
L 259.607273 41.472 
L 256 41.472 
L 252.392727 41.472 
L 248.785455 41.472 
L 245.178182 41.472 
L 241.570909 41.472 
L 237.963636 41.472 
L 234.356364 41.472 
L 230.749091 41.472 
L 227.141818 41.472 
L 223.534545 41.472 
L 221.785077 41.472 
L 219.927273 43.432951 
L 219.237758 44.16 
L 216.684873 46.848 
L 216.32 47.231644 
L 214.12608 49.536 
L 212.712727 51.018387 
L 211.562009 52.224 
L 209.105455 54.794133 
L 208.99267 54.912 
L 206.417123 57.6 
L 205.498182 58.557753 
L 203.836144 60.288 
L 201.890909 62.310327 
L 201.249855 62.976 
L 198.657853 65.664 
L 198.283636 66.051574 
L 196.059804 68.352 
L 194.676364 69.781224 
L 193.456398 71.04 
L 191.069091 73.500094 
L 190.847645 73.728 
L 188.232615 76.416 
L 187.461818 77.207319 
L 185.611918 79.104 
L 183.854545 80.903592 
L 182.985821 81.792 
L 180.354192 84.48 
L 180.247273 84.589081 
L 177.716021 87.168 
L 176.64 88.262986 
L 175.072392 89.856 
L 173.032727 91.926308 
L 172.423309 92.544 
L 169.768296 95.232 
L 169.425455 95.578713 
L 167.10694 97.92 
L 165.818182 99.219967 
L 164.440067 100.608 
L 162.210909 102.850743 
L 161.767676 103.296 
L 159.089037 105.984 
L 158.603636 106.470583 
L 156.404164 108.672 
L 154.996364 110.079574 
L 153.713704 111.36 
L 151.389091 113.678187 
L 151.017653 114.048 
L 148.315149 116.736 
L 147.781818 117.265943 
L 145.606397 119.424 
L 144.174545 120.843039 
L 142.891979 122.112 
L 140.567273 124.409852 
L 140.171889 124.8 
L 137.445283 127.488 
L 136.96 127.965971 
L 134.712262 130.176 
L 133.352727 131.511518 
L 131.973486 132.864 
L 129.745455 135.046871 
L 129.228945 135.552 
L 126.478005 138.24 
L 126.138182 138.571765 
L 123.720294 140.928 
L 122.530909 142.08609 
L 120.956727 143.616 
L 118.923636 145.590304 
L 118.187294 146.304 
L 115.411794 148.992 
L 115.316364 149.084349 
L 112.62894 151.68 
L 111.709091 152.567758 
L 109.84012 154.368 
L 108.101818 156.041133 
L 107.045321 157.056 
L 104.494545 159.504491 
L 104.244525 159.744 
L 101.436558 162.432 
L 100.887273 162.957451 
L 98.621991 165.12 
L 97.28 166.400268 
L 95.801319 167.808 
L 93.672727 169.833137 
L 92.974524 170.496 
L 90.141417 173.184 
L 90.065455 173.256025 
L 87.300574 175.872 
L 86.458182 176.668543 
L 84.453491 178.56 
L 82.850909 180.071181 
L 81.600147 181.248 
L 79.243636 183.463952 
L 78.740516 183.936 
L 75.874009 186.624 
L 75.636364 186.846724 
L 72.999943 189.312 
L 72.029091 190.219364 
L 70.119465 192 
L 68.421818 193.582197 
L 67.232546 194.688 
L 64.814545 196.935234 
L 64.339158 197.376 
L 61.438684 200.064 
L 61.207273 200.27836 
L 58.530452 202.752 
L 57.6 203.611465 
L 57.6 205.44 
L 57.6 208.128 
L 57.6 210.816 
L 57.6 213.504 
L 57.6 216.192 
L 57.6 218.88 
L 57.6 221.568 
L 57.6 224.256 
L 57.6 226.944 
L 57.6 229.632 
L 57.6 232.32 
L 57.6 235.008 
L 57.6 237.696 
L 57.6 240.384 
L 57.6 243.072 
L 57.6 245.76 
L 57.6 248.448 
L 57.6 251.136 
L 57.6 253.824 
L 57.6 256.512 
L 57.6 259.2 
L 57.6 261.888 
L 57.6 264.576 
L 57.6 267.264 
L 57.6 269.952 
L 57.6 272.64 
L 57.6 275.328 
L 57.6 278.016 
L 57.6 280.704 
L 57.6 283.392 
L 57.6 286.08 
L 57.6 288.768 
L 57.6 291.456 
L 57.6 294.144 
L 57.6 296.75713 
z
" clip-path="url(#pafb2fa7125)" style="fill: #2db27d; fill-opacity: 0.75"/>
   </g>
   <g id="PathCollection_6">
    <path d="M 58.530452 202.752 
L 61.207273 200.27836 
L 61.438684 200.064 
L 64.339158 197.376 
L 64.814545 196.935234 
L 67.232546 194.688 
L 68.421818 193.582197 
L 70.119465 192 
L 72.029091 190.219364 
L 72.999943 189.312 
L 75.636364 186.846724 
L 75.874009 186.624 
L 78.740516 183.936 
L 79.243636 183.463952 
L 81.600147 181.248 
L 82.850909 180.071181 
L 84.453491 178.56 
L 86.458182 176.668543 
L 87.300574 175.872 
L 90.065455 173.256025 
L 90.141417 173.184 
L 92.974524 170.496 
L 93.672727 169.833137 
L 95.801319 167.808 
L 97.28 166.400268 
L 98.621991 165.12 
L 100.887273 162.957451 
L 101.436558 162.432 
L 104.244525 159.744 
L 104.494545 159.504491 
L 107.045321 157.056 
L 108.101818 156.041133 
L 109.84012 154.368 
L 111.709091 152.567758 
L 112.62894 151.68 
L 115.316364 149.084349 
L 115.411794 148.992 
L 118.187294 146.304 
L 118.923636 145.590304 
L 120.956727 143.616 
L 122.530909 142.08609 
L 123.720294 140.928 
L 126.138182 138.571765 
L 126.478005 138.24 
L 129.228945 135.552 
L 129.745455 135.046871 
L 131.973486 132.864 
L 133.352727 131.511518 
L 134.712262 130.176 
L 136.96 127.965971 
L 137.445283 127.488 
L 140.171889 124.8 
L 140.567273 124.409852 
L 142.891979 122.112 
L 144.174545 120.843039 
L 145.606397 119.424 
L 147.781818 117.265943 
L 148.315149 116.736 
L 151.017653 114.048 
L 151.389091 113.678187 
L 153.713704 111.36 
L 154.996364 110.079574 
L 156.404164 108.672 
L 158.603636 106.470583 
L 159.089037 105.984 
L 161.767676 103.296 
L 162.210909 102.850743 
L 164.440067 100.608 
L 165.818182 99.219967 
L 167.10694 97.92 
L 169.425455 95.578713 
L 169.768296 95.232 
L 172.423309 92.544 
L 173.032727 91.926308 
L 175.072392 89.856 
L 176.64 88.262986 
L 177.716021 87.168 
L 180.247273 84.589081 
L 180.354192 84.48 
L 182.985821 81.792 
L 183.854545 80.903592 
L 185.611918 79.104 
L 187.461818 77.207319 
L 188.232615 76.416 
L 190.847645 73.728 
L 191.069091 73.500094 
L 193.456398 71.04 
L 194.676364 69.781224 
L 196.059804 68.352 
L 198.283636 66.051574 
L 198.657853 65.664 
L 201.249855 62.976 
L 201.890909 62.310327 
L 203.836144 60.288 
L 205.498182 58.557753 
L 206.417123 57.6 
L 208.99267 54.912 
L 209.105455 54.794133 
L 211.562009 52.224 
L 212.712727 51.018387 
L 214.12608 49.536 
L 216.32 47.231644 
L 216.684873 46.848 
L 219.237758 44.16 
L 219.927273 43.432951 
L 221.785077 41.472 
L 219.927273 41.472 
L 216.32 41.472 
L 212.712727 41.472 
L 209.105455 41.472 
L 205.498182 41.472 
L 201.890909 41.472 
L 198.283636 41.472 
L 194.676364 41.472 
L 191.069091 41.472 
L 187.461818 41.472 
L 183.854545 41.472 
L 180.247273 41.472 
L 176.64 41.472 
L 173.032727 41.472 
L 169.425455 41.472 
L 165.818182 41.472 
L 162.210909 41.472 
L 158.603636 41.472 
L 154.996364 41.472 
L 151.389091 41.472 
L 147.781818 41.472 
L 144.174545 41.472 
L 140.567273 41.472 
L 136.96 41.472 
L 133.352727 41.472 
L 129.745455 41.472 
L 126.138182 41.472 
L 126.138139 41.472 
L 123.482561 44.16 
L 122.530909 45.122118 
L 120.820128 46.848 
L 118.923636 48.758982 
L 118.150823 49.536 
L 115.474239 52.224 
L 115.316364 52.382357 
L 112.788828 54.912 
L 111.709091 55.991421 
L 110.096417 57.6 
L 108.101818 59.587335 
L 107.396983 60.288 
L 104.69 62.976 
L 104.494545 63.169863 
L 101.974113 65.664 
L 100.887273 66.738366 
L 99.251064 68.352 
L 97.28 70.293858 
L 96.520826 71.04 
L 93.783074 73.728 
L 93.672727 73.836225 
L 91.036018 76.416 
L 90.065455 77.364673 
L 88.281625 79.104 
L 86.458182 80.88024 
L 85.519861 81.792 
L 82.850909 84.382957 
L 82.750692 84.48 
L 79.972008 87.168 
L 79.243636 87.871951 
L 77.185514 89.856 
L 75.636364 91.348063 
L 74.391451 92.544 
L 72.029091 94.811446 
L 71.589781 95.232 
L 68.7794 97.92 
L 68.421818 98.261707 
L 65.959998 100.608 
L 64.814545 101.698804 
L 63.132813 103.296 
L 61.207273 105.123285 
L 60.2978 105.984 
L 57.6 108.535178 
L 57.6 108.672 
L 57.6 111.36 
L 57.6 114.048 
L 57.6 116.736 
L 57.6 119.424 
L 57.6 122.112 
L 57.6 124.8 
L 57.6 127.488 
L 57.6 130.176 
L 57.6 132.864 
L 57.6 135.552 
L 57.6 138.24 
L 57.6 140.928 
L 57.6 143.616 
L 57.6 146.304 
L 57.6 148.992 
L 57.6 151.68 
L 57.6 154.368 
L 57.6 157.056 
L 57.6 159.744 
L 57.6 162.432 
L 57.6 165.12 
L 57.6 167.808 
L 57.6 170.496 
L 57.6 173.184 
L 57.6 175.872 
L 57.6 178.56 
L 57.6 181.248 
L 57.6 183.936 
L 57.6 186.624 
L 57.6 189.312 
L 57.6 192 
L 57.6 194.688 
L 57.6 197.376 
L 57.6 200.064 
L 57.6 202.752 
L 57.6 203.611465 
z
" clip-path="url(#pafb2fa7125)" style="fill: #73d056; fill-opacity: 0.75"/>
   </g>
   <g id="PathCollection_7">
    <path d="M 60.2978 105.984 
L 61.207273 105.123285 
L 63.132813 103.296 
L 64.814545 101.698804 
L 65.959998 100.608 
L 68.421818 98.261707 
L 68.7794 97.92 
L 71.589781 95.232 
L 72.029091 94.811446 
L 74.391451 92.544 
L 75.636364 91.348063 
L 77.185514 89.856 
L 79.243636 87.871951 
L 79.972008 87.168 
L 82.750692 84.48 
L 82.850909 84.382957 
L 85.519861 81.792 
L 86.458182 80.88024 
L 88.281625 79.104 
L 90.065455 77.364673 
L 91.036018 76.416 
L 93.672727 73.836225 
L 93.783074 73.728 
L 96.520826 71.04 
L 97.28 70.293858 
L 99.251064 68.352 
L 100.887273 66.738366 
L 101.974113 65.664 
L 104.494545 63.169863 
L 104.69 62.976 
L 107.396983 60.288 
L 108.101818 59.587335 
L 110.096417 57.6 
L 111.709091 55.991421 
L 112.788828 54.912 
L 115.316364 52.382357 
L 115.474239 52.224 
L 118.150823 49.536 
L 118.923636 48.758982 
L 120.820128 46.848 
L 122.530909 45.122118 
L 123.482561 44.16 
L 126.138139 41.472 
L 122.530909 41.472 
L 118.923636 41.472 
L 115.316364 41.472 
L 111.709091 41.472 
L 108.101818 41.472 
L 104.494545 41.472 
L 100.887273 41.472 
L 97.28 41.472 
L 93.672727 41.472 
L 90.065455 41.472 
L 86.458182 41.472 
L 82.850909 41.472 
L 79.243636 41.472 
L 75.636364 41.472 
L 72.029091 41.472 
L 68.421818 41.472 
L 64.814545 41.472 
L 61.207273 41.472 
L 57.6 41.472 
L 57.6 44.16 
L 57.6 46.848 
L 57.6 49.536 
L 57.6 52.224 
L 57.6 54.912 
L 57.6 57.6 
L 57.6 60.288 
L 57.6 62.976 
L 57.6 65.664 
L 57.6 68.352 
L 57.6 71.04 
L 57.6 73.728 
L 57.6 76.416 
L 57.6 79.104 
L 57.6 81.792 
L 57.6 84.48 
L 57.6 87.168 
L 57.6 89.856 
L 57.6 92.544 
L 57.6 95.232 
L 57.6 97.92 
L 57.6 100.608 
L 57.6 103.296 
L 57.6 105.984 
L 57.6 108.535178 
z
" clip-path="url(#pafb2fa7125)" style="fill: #d0e11c; fill-opacity: 0.75"/>
   </g>
   <g id="matplotlib.axis_1">
    <g id="xtick_1">
     <g id="line2d_1">
      <defs>
       <path id="mc10eb25724" d="M 0 0 
L 0 3.5 
" style="stroke: #000000; stroke-width: 0.8"/>
      </defs>
      <g>
       <use xlink:href="#mc10eb25724" x="80.828777" y="307.584" style="stroke: #000000; stroke-width: 0.8"/>
      </g>
     </g>
     <g id="text_1">
      <!-- 10 -->
      <g transform="translate(74.466277 322.182437) scale(0.1 -0.1)">
       <defs>
        <path id="DejaVuSans-31" d="M 794 531 
L 1825 531 
L 1825 4091 
L 703 3866 
L 703 4441 
L 1819 4666 
L 2450 4666 
L 2450 531 
L 3481 531 
L 3481 0 
L 794 0 
L 794 531 
z
" transform="scale(0.015625)"/>
        <path id="DejaVuSans-30" d="M 2034 4250 
Q 1547 4250 1301 3770 
Q 1056 3291 1056 2328 
Q 1056 1369 1301 889 
Q 1547 409 2034 409 
Q 2525 409 2770 889 
Q 3016 1369 3016 2328 
Q 3016 3291 2770 3770 
Q 2525 4250 2034 4250 
z
M 2034 4750 
Q 2819 4750 3233 4129 
Q 3647 3509 3647 2328 
Q 3647 1150 3233 529 
Q 2819 -91 2034 -91 
Q 1250 -91 836 529 
Q 422 1150 422 2328 
Q 422 3509 836 4129 
Q 1250 4750 2034 4750 
z
" transform="scale(0.015625)"/>
       </defs>
       <use xlink:href="#DejaVuSans-31"/>
       <use xlink:href="#DejaVuSans-30" x="63.623047"/>
      </g>
     </g>
    </g>
    <g id="xtick_2">
     <g id="line2d_2">
      <g>
       <use xlink:href="#mc10eb25724" x="122.391862" y="307.584" style="stroke: #000000; stroke-width: 0.8"/>
      </g>
     </g>
     <g id="text_2">
      <!-- 15 -->
      <g transform="translate(116.029362 322.182437) scale(0.1 -0.1)">
       <defs>
        <path id="DejaVuSans-35" d="M 691 4666 
L 3169 4666 
L 3169 4134 
L 1269 4134 
L 1269 2991 
Q 1406 3038 1543 3061 
Q 1681 3084 1819 3084 
Q 2600 3084 3056 2656 
Q 3513 2228 3513 1497 
Q 3513 744 3044 326 
Q 2575 -91 1722 -91 
Q 1428 -91 1123 -41 
Q 819 9 494 109 
L 494 744 
Q 775 591 1075 516 
Q 1375 441 1709 441 
Q 2250 441 2565 725 
Q 2881 1009 2881 1497 
Q 2881 1984 2565 2268 
Q 2250 2553 1709 2553 
Q 1456 2553 1204 2497 
Q 953 2441 691 2322 
L 691 4666 
z
" transform="scale(0.015625)"/>
       </defs>
       <use xlink:href="#DejaVuSans-31"/>
       <use xlink:href="#DejaVuSans-35" x="63.623047"/>
      </g>
     </g>
    </g>
    <g id="xtick_3">
     <g id="line2d_3">
      <g>
       <use xlink:href="#mc10eb25724" x="163.954947" y="307.584" style="stroke: #000000; stroke-width: 0.8"/>
      </g>
     </g>
     <g id="text_3">
      <!-- 20 -->
      <g transform="translate(157.592447 322.182437) scale(0.1 -0.1)">
       <defs>
        <path id="DejaVuSans-32" d="M 1228 531 
L 3431 531 
L 3431 0 
L 469 0 
L 469 531 
Q 828 903 1448 1529 
Q 2069 2156 2228 2338 
Q 2531 2678 2651 2914 
Q 2772 3150 2772 3378 
Q 2772 3750 2511 3984 
Q 2250 4219 1831 4219 
Q 1534 4219 1204 4116 
Q 875 4013 500 3803 
L 500 4441 
Q 881 4594 1212 4672 
Q 1544 4750 1819 4750 
Q 2544 4750 2975 4387 
Q 3406 4025 3406 3419 
Q 3406 3131 3298 2873 
Q 3191 2616 2906 2266 
Q 2828 2175 2409 1742 
Q 1991 1309 1228 531 
z
" transform="scale(0.015625)"/>
       </defs>
       <use xlink:href="#DejaVuSans-32"/>
       <use xlink:href="#DejaVuSans-30" x="63.623047"/>
      </g>
     </g>
    </g>
    <g id="xtick_4">
     <g id="line2d_4">
      <g>
       <use xlink:href="#mc10eb25724" x="205.518031" y="307.584" style="stroke: #000000; stroke-width: 0.8"/>
      </g>
     </g>
     <g id="text_4">
      <!-- 25 -->
      <g transform="translate(199.155531 322.182437) scale(0.1 -0.1)">
       <use xlink:href="#DejaVuSans-32"/>
       <use xlink:href="#DejaVuSans-35" x="63.623047"/>
      </g>
     </g>
    </g>
    <g id="xtick_5">
     <g id="line2d_5">
      <g>
       <use xlink:href="#mc10eb25724" x="247.081116" y="307.584" style="stroke: #000000; stroke-width: 0.8"/>
      </g>
     </g>
     <g id="text_5">
      <!-- 30 -->
      <g transform="translate(240.718616 322.182437) scale(0.1 -0.1)">
       <defs>
        <path id="DejaVuSans-33" d="M 2597 2516 
Q 3050 2419 3304 2112 
Q 3559 1806 3559 1356 
Q 3559 666 3084 287 
Q 2609 -91 1734 -91 
Q 1441 -91 1130 -33 
Q 819 25 488 141 
L 488 750 
Q 750 597 1062 519 
Q 1375 441 1716 441 
Q 2309 441 2620 675 
Q 2931 909 2931 1356 
Q 2931 1769 2642 2001 
Q 2353 2234 1838 2234 
L 1294 2234 
L 1294 2753 
L 1863 2753 
Q 2328 2753 2575 2939 
Q 2822 3125 2822 3475 
Q 2822 3834 2567 4026 
Q 2313 4219 1838 4219 
Q 1578 4219 1281 4162 
Q 984 4106 628 3988 
L 628 4550 
Q 988 4650 1302 4700 
Q 1616 4750 1894 4750 
Q 2613 4750 3031 4423 
Q 3450 4097 3450 3541 
Q 3450 3153 3228 2886 
Q 3006 2619 2597 2516 
z
" transform="scale(0.015625)"/>
       </defs>
       <use xlink:href="#DejaVuSans-33"/>
       <use xlink:href="#DejaVuSans-30" x="63.623047"/>
      </g>
     </g>
    </g>
    <g id="xtick_6">
     <g id="line2d_6">
      <g>
       <use xlink:href="#mc10eb25724" x="288.644201" y="307.584" style="stroke: #000000; stroke-width: 0.8"/>
      </g>
     </g>
     <g id="text_6">
      <!-- 35 -->
      <g transform="translate(282.281701 322.182437) scale(0.1 -0.1)">
       <use xlink:href="#DejaVuSans-33"/>
       <use xlink:href="#DejaVuSans-35" x="63.623047"/>
      </g>
     </g>
    </g>
    <g id="xtick_7">
     <g id="line2d_7">
      <g>
       <use xlink:href="#mc10eb25724" x="330.207286" y="307.584" style="stroke: #000000; stroke-width: 0.8"/>
      </g>
     </g>
     <g id="text_7">
      <!-- 40 -->
      <g transform="translate(323.844786 322.182437) scale(0.1 -0.1)">
       <defs>
        <path id="DejaVuSans-34" d="M 2419 4116 
L 825 1625 
L 2419 1625 
L 2419 4116 
z
M 2253 4666 
L 3047 4666 
L 3047 1625 
L 3713 1625 
L 3713 1100 
L 3047 1100 
L 3047 0 
L 2419 0 
L 2419 1100 
L 313 1100 
L 313 1709 
L 2253 4666 
z
" transform="scale(0.015625)"/>
       </defs>
       <use xlink:href="#DejaVuSans-34"/>
       <use xlink:href="#DejaVuSans-30" x="63.623047"/>
      </g>
     </g>
    </g>
    <g id="xtick_8">
     <g id="line2d_8">
      <g>
       <use xlink:href="#mc10eb25724" x="371.770371" y="307.584" style="stroke: #000000; stroke-width: 0.8"/>
      </g>
     </g>
     <g id="text_8">
      <!-- 45 -->
      <g transform="translate(365.407871 322.182437) scale(0.1 -0.1)">
       <use xlink:href="#DejaVuSans-34"/>
       <use xlink:href="#DejaVuSans-35" x="63.623047"/>
      </g>
     </g>
    </g>
    <g id="xtick_9">
     <g id="line2d_9">
      <g>
       <use xlink:href="#mc10eb25724" x="413.333455" y="307.584" style="stroke: #000000; stroke-width: 0.8"/>
      </g>
     </g>
     <g id="text_9">
      <!-- 50 -->
      <g transform="translate(406.970955 322.182437) scale(0.1 -0.1)">
       <use xlink:href="#DejaVuSans-35"/>
       <use xlink:href="#DejaVuSans-30" x="63.623047"/>
      </g>
     </g>
    </g>
    <g id="text_10">
     <!-- PM2.5 -->
     <g transform="translate(220.879531 335.860562) scale(0.1 -0.1)">
      <defs>
       <path id="DejaVuSans-50" d="M 1259 4147 
L 1259 2394 
L 2053 2394 
Q 2494 2394 2734 2622 
Q 2975 2850 2975 3272 
Q 2975 3691 2734 3919 
Q 2494 4147 2053 4147 
L 1259 4147 
z
M 628 4666 
L 2053 4666 
Q 2838 4666 3239 4311 
Q 3641 3956 3641 3272 
Q 3641 2581 3239 2228 
Q 2838 1875 2053 1875 
L 1259 1875 
L 1259 0 
L 628 0 
L 628 4666 
z
" transform="scale(0.015625)"/>
       <path id="DejaVuSans-4d" d="M 628 4666 
L 1569 4666 
L 2759 1491 
L 3956 4666 
L 4897 4666 
L 4897 0 
L 4281 0 
L 4281 4097 
L 3078 897 
L 2444 897 
L 1241 4097 
L 1241 0 
L 628 0 
L 628 4666 
z
" transform="scale(0.015625)"/>
       <path id="DejaVuSans-2e" d="M 684 794 
L 1344 794 
L 1344 0 
L 684 0 
L 684 794 
z
" transform="scale(0.015625)"/>
      </defs>
      <use xlink:href="#DejaVuSans-50"/>
      <use xlink:href="#DejaVuSans-4d" x="60.302734"/>
      <use xlink:href="#DejaVuSans-32" x="146.582031"/>
      <use xlink:href="#DejaVuSans-2e" x="210.205078"/>
      <use xlink:href="#DejaVuSans-35" x="241.992188"/>
     </g>
    </g>
   </g>
   <g id="matplotlib.axis_2">
    <g id="ytick_1">
     <g id="line2d_10">
      <defs>
       <path id="mb1abc2e76a" d="M 0 0 
L -3.5 0 
" style="stroke: #000000; stroke-width: 0.8"/>
      </defs>
      <g>
       <use xlink:href="#mb1abc2e76a" x="57.6" y="264.611316" style="stroke: #000000; stroke-width: 0.8"/>
      </g>
     </g>
     <g id="text_11">
      <!-- 10 -->
      <g transform="translate(37.875 268.410535) scale(0.1 -0.1)">
       <use xlink:href="#DejaVuSans-31"/>
       <use xlink:href="#DejaVuSans-30" x="63.623047"/>
      </g>
     </g>
    </g>
    <g id="ytick_2">
     <g id="line2d_11">
      <g>
       <use xlink:href="#mb1abc2e76a" x="57.6" y="209.291178" style="stroke: #000000; stroke-width: 0.8"/>
      </g>
     </g>
     <g id="text_12">
      <!-- 15 -->
      <g transform="translate(37.875 213.090397) scale(0.1 -0.1)">
       <use xlink:href="#DejaVuSans-31"/>
       <use xlink:href="#DejaVuSans-35" x="63.623047"/>
      </g>
     </g>
    </g>
    <g id="ytick_3">
     <g id="line2d_12">
      <g>
       <use xlink:href="#mb1abc2e76a" x="57.6" y="153.971041" style="stroke: #000000; stroke-width: 0.8"/>
      </g>
     </g>
     <g id="text_13">
      <!-- 20 -->
      <g transform="translate(37.875 157.77026) scale(0.1 -0.1)">
       <use xlink:href="#DejaVuSans-32"/>
       <use xlink:href="#DejaVuSans-30" x="63.623047"/>
      </g>
     </g>
    </g>
    <g id="ytick_4">
     <g id="line2d_13">
      <g>
       <use xlink:href="#mb1abc2e76a" x="57.6" y="98.650903" style="stroke: #000000; stroke-width: 0.8"/>
      </g>
     </g>
     <g id="text_14">
      <!-- 25 -->
      <g transform="translate(37.875 102.450122) scale(0.1 -0.1)">
       <use xlink:href="#DejaVuSans-32"/>
       <use xlink:href="#DejaVuSans-35" x="63.623047"/>
      </g>
     </g>
    </g>
    <g id="ytick_5">
     <g id="line2d_14">
      <g>
       <use xlink:href="#mb1abc2e76a" x="57.6" y="43.330766" style="stroke: #000000; stroke-width: 0.8"/>
      </g>
     </g>
     <g id="text_15">
      <!-- 30 -->
      <g transform="translate(37.875 47.129985) scale(0.1 -0.1)">
       <use xlink:href="#DejaVuSans-33"/>
       <use xlink:href="#DejaVuSans-30" x="63.623047"/>
      </g>
     </g>
    </g>
    <g id="text_16">
     <!-- Smoking Prevalence -->
     <g transform="translate(31.795312 225.278781) rotate(-90) scale(0.1 -0.1)">
      <defs>
       <path id="DejaVuSans-53" d="M 3425 4513 
L 3425 3897 
Q 3066 4069 2747 4153 
Q 2428 4238 2131 4238 
Q 1616 4238 1336 4038 
Q 1056 3838 1056 3469 
Q 1056 3159 1242 3001 
Q 1428 2844 1947 2747 
L 2328 2669 
Q 3034 2534 3370 2195 
Q 3706 1856 3706 1288 
Q 3706 609 3251 259 
Q 2797 -91 1919 -91 
Q 1588 -91 1214 -16 
Q 841 59 441 206 
L 441 856 
Q 825 641 1194 531 
Q 1563 422 1919 422 
Q 2459 422 2753 634 
Q 3047 847 3047 1241 
Q 3047 1584 2836 1778 
Q 2625 1972 2144 2069 
L 1759 2144 
Q 1053 2284 737 2584 
Q 422 2884 422 3419 
Q 422 4038 858 4394 
Q 1294 4750 2059 4750 
Q 2388 4750 2728 4690 
Q 3069 4631 3425 4513 
z
" transform="scale(0.015625)"/>
       <path id="DejaVuSans-6d" d="M 3328 2828 
Q 3544 3216 3844 3400 
Q 4144 3584 4550 3584 
Q 5097 3584 5394 3201 
Q 5691 2819 5691 2113 
L 5691 0 
L 5113 0 
L 5113 2094 
Q 5113 2597 4934 2840 
Q 4756 3084 4391 3084 
Q 3944 3084 3684 2787 
Q 3425 2491 3425 1978 
L 3425 0 
L 2847 0 
L 2847 2094 
Q 2847 2600 2669 2842 
Q 2491 3084 2119 3084 
Q 1678 3084 1418 2786 
Q 1159 2488 1159 1978 
L 1159 0 
L 581 0 
L 581 3500 
L 1159 3500 
L 1159 2956 
Q 1356 3278 1631 3431 
Q 1906 3584 2284 3584 
Q 2666 3584 2933 3390 
Q 3200 3197 3328 2828 
z
" transform="scale(0.015625)"/>
       <path id="DejaVuSans-6f" d="M 1959 3097 
Q 1497 3097 1228 2736 
Q 959 2375 959 1747 
Q 959 1119 1226 758 
Q 1494 397 1959 397 
Q 2419 397 2687 759 
Q 2956 1122 2956 1747 
Q 2956 2369 2687 2733 
Q 2419 3097 1959 3097 
z
M 1959 3584 
Q 2709 3584 3137 3096 
Q 3566 2609 3566 1747 
Q 3566 888 3137 398 
Q 2709 -91 1959 -91 
Q 1206 -91 779 398 
Q 353 888 353 1747 
Q 353 2609 779 3096 
Q 1206 3584 1959 3584 
z
" transform="scale(0.015625)"/>
       <path id="DejaVuSans-6b" d="M 581 4863 
L 1159 4863 
L 1159 1991 
L 2875 3500 
L 3609 3500 
L 1753 1863 
L 3688 0 
L 2938 0 
L 1159 1709 
L 1159 0 
L 581 0 
L 581 4863 
z
" transform="scale(0.015625)"/>
       <path id="DejaVuSans-69" d="M 603 3500 
L 1178 3500 
L 1178 0 
L 603 0 
L 603 3500 
z
M 603 4863 
L 1178 4863 
L 1178 4134 
L 603 4134 
L 603 4863 
z
" transform="scale(0.015625)"/>
       <path id="DejaVuSans-6e" d="M 3513 2113 
L 3513 0 
L 2938 0 
L 2938 2094 
Q 2938 2591 2744 2837 
Q 2550 3084 2163 3084 
Q 1697 3084 1428 2787 
Q 1159 2491 1159 1978 
L 1159 0 
L 581 0 
L 581 3500 
L 1159 3500 
L 1159 2956 
Q 1366 3272 1645 3428 
Q 1925 3584 2291 3584 
Q 2894 3584 3203 3211 
Q 3513 2838 3513 2113 
z
" transform="scale(0.015625)"/>
       <path id="DejaVuSans-67" d="M 2906 1791 
Q 2906 2416 2648 2759 
Q 2391 3103 1925 3103 
Q 1463 3103 1205 2759 
Q 947 2416 947 1791 
Q 947 1169 1205 825 
Q 1463 481 1925 481 
Q 2391 481 2648 825 
Q 2906 1169 2906 1791 
z
M 3481 434 
Q 3481 -459 3084 -895 
Q 2688 -1331 1869 -1331 
Q 1566 -1331 1297 -1286 
Q 1028 -1241 775 -1147 
L 775 -588 
Q 1028 -725 1275 -790 
Q 1522 -856 1778 -856 
Q 2344 -856 2625 -561 
Q 2906 -266 2906 331 
L 2906 616 
Q 2728 306 2450 153 
Q 2172 0 1784 0 
Q 1141 0 747 490 
Q 353 981 353 1791 
Q 353 2603 747 3093 
Q 1141 3584 1784 3584 
Q 2172 3584 2450 3431 
Q 2728 3278 2906 2969 
L 2906 3500 
L 3481 3500 
L 3481 434 
z
" transform="scale(0.015625)"/>
       <path id="DejaVuSans-20" transform="scale(0.015625)"/>
       <path id="DejaVuSans-72" d="M 2631 2963 
Q 2534 3019 2420 3045 
Q 2306 3072 2169 3072 
Q 1681 3072 1420 2755 
Q 1159 2438 1159 1844 
L 1159 0 
L 581 0 
L 581 3500 
L 1159 3500 
L 1159 2956 
Q 1341 3275 1631 3429 
Q 1922 3584 2338 3584 
Q 2397 3584 2469 3576 
Q 2541 3569 2628 3553 
L 2631 2963 
z
" transform="scale(0.015625)"/>
       <path id="DejaVuSans-65" d="M 3597 1894 
L 3597 1613 
L 953 1613 
Q 991 1019 1311 708 
Q 1631 397 2203 397 
Q 2534 397 2845 478 
Q 3156 559 3463 722 
L 3463 178 
Q 3153 47 2828 -22 
Q 2503 -91 2169 -91 
Q 1331 -91 842 396 
Q 353 884 353 1716 
Q 353 2575 817 3079 
Q 1281 3584 2069 3584 
Q 2775 3584 3186 3129 
Q 3597 2675 3597 1894 
z
M 3022 2063 
Q 3016 2534 2758 2815 
Q 2500 3097 2075 3097 
Q 1594 3097 1305 2825 
Q 1016 2553 972 2059 
L 3022 2063 
z
" transform="scale(0.015625)"/>
       <path id="DejaVuSans-76" d="M 191 3500 
L 800 3500 
L 1894 563 
L 2988 3500 
L 3597 3500 
L 2284 0 
L 1503 0 
L 191 3500 
z
" transform="scale(0.015625)"/>
       <path id="DejaVuSans-61" d="M 2194 1759 
Q 1497 1759 1228 1600 
Q 959 1441 959 1056 
Q 959 750 1161 570 
Q 1363 391 1709 391 
Q 2188 391 2477 730 
Q 2766 1069 2766 1631 
L 2766 1759 
L 2194 1759 
z
M 3341 1997 
L 3341 0 
L 2766 0 
L 2766 531 
Q 2569 213 2275 61 
Q 1981 -91 1556 -91 
Q 1019 -91 701 211 
Q 384 513 384 1019 
Q 384 1609 779 1909 
Q 1175 2209 1959 2209 
L 2766 2209 
L 2766 2266 
Q 2766 2663 2505 2880 
Q 2244 3097 1772 3097 
Q 1472 3097 1187 3025 
Q 903 2953 641 2809 
L 641 3341 
Q 956 3463 1253 3523 
Q 1550 3584 1831 3584 
Q 2591 3584 2966 3190 
Q 3341 2797 3341 1997 
z
" transform="scale(0.015625)"/>
       <path id="DejaVuSans-6c" d="M 603 4863 
L 1178 4863 
L 1178 0 
L 603 0 
L 603 4863 
z
" transform="scale(0.015625)"/>
       <path id="DejaVuSans-63" d="M 3122 3366 
L 3122 2828 
Q 2878 2963 2633 3030 
Q 2388 3097 2138 3097 
Q 1578 3097 1268 2742 
Q 959 2388 959 1747 
Q 959 1106 1268 751 
Q 1578 397 2138 397 
Q 2388 397 2633 464 
Q 2878 531 3122 666 
L 3122 134 
Q 2881 22 2623 -34 
Q 2366 -91 2075 -91 
Q 1284 -91 818 406 
Q 353 903 353 1747 
Q 353 2603 823 3093 
Q 1294 3584 2113 3584 
Q 2378 3584 2631 3529 
Q 2884 3475 3122 3366 
z
" transform="scale(0.015625)"/>
      </defs>
      <use xlink:href="#DejaVuSans-53"/>
      <use xlink:href="#DejaVuSans-6d" x="63.476562"/>
      <use xlink:href="#DejaVuSans-6f" x="160.888672"/>
      <use xlink:href="#DejaVuSans-6b" x="222.070312"/>
      <use xlink:href="#DejaVuSans-69" x="279.980469"/>
      <use xlink:href="#DejaVuSans-6e" x="307.763672"/>
      <use xlink:href="#DejaVuSans-67" x="371.142578"/>
      <use xlink:href="#DejaVuSans-20" x="434.619141"/>
      <use xlink:href="#DejaVuSans-50" x="466.40625"/>
      <use xlink:href="#DejaVuSans-72" x="524.958984"/>
      <use xlink:href="#DejaVuSans-65" x="563.822266"/>
      <use xlink:href="#DejaVuSans-76" x="625.345703"/>
      <use xlink:href="#DejaVuSans-61" x="684.525391"/>
      <use xlink:href="#DejaVuSans-6c" x="745.804688"/>
      <use xlink:href="#DejaVuSans-65" x="773.587891"/>
      <use xlink:href="#DejaVuSans-6e" x="835.111328"/>
      <use xlink:href="#DejaVuSans-63" x="898.490234"/>
      <use xlink:href="#DejaVuSans-65" x="953.470703"/>
     </g>
    </g>
   </g>
   <g id="PathCollection_8"/>
   <g id="PathCollection_9">
    <path d="M 343.315648 307.584 
L 346.092061 304.896 
L 346.181818 304.809049 
L 348.869531 302.208 
L 349.789091 301.317262 
L 351.646449 299.52 
L 353.396364 297.825096 
L 354.422796 296.832 
L 357.003636 294.332559 
L 357.198552 294.144 
L 357.221844 294.121451 
" clip-path="url(#pafb2fa7125)" style="fill: none; stroke: #000000; stroke-width: 0.5"/>
    <path d="M 378.428181 273.58559 
L 378.647273 273.373285 
L 379.404965 272.64 
L 382.179406 269.952 
L 382.254545 269.879143 
L 384.955142 267.264 
L 385.861818 266.385 
L 387.730265 264.576 
L 389.469091 262.890522 
L 390.504756 261.888 
L 393.076364 259.39572 
L 393.278595 259.2 
L 396.05345 256.512 
L 396.683636 255.900849 
L 398.828213 253.824 
L 400.290909 252.405739 
L 401.60233 251.136 
L 403.898182 248.910319 
L 404.375783 248.448 
L 407.149542 245.76 
L 407.505455 245.414723 
L 409.923972 243.072 
L 411.112727 241.918993 
L 412.697745 240.384 
L 414.72 238.422968 
" clip-path="url(#pafb2fa7125)" style="fill: none; stroke: #000000; stroke-width: 0.5"/>
   </g>
   <g id="PathCollection_10">
    <path d="M 243.483121 307.584 
L 245.178182 305.935305 
L 246.246651 304.896 
L 248.785455 302.424951 
L 249.008348 302.208 
L 251.768684 299.52 
L 252.392727 298.911952 
L 254.52738 296.832 
L 256 295.39615 
L 256.26017 295.142482 
" clip-path="url(#pafb2fa7125)" style="fill: none; stroke: #000000; stroke-width: 0.5"/>
    <path d="M 277.371466 274.508938 
L 277.643636 274.242251 
L 279.279143 272.64 
L 281.250909 270.706724 
L 282.020832 269.952 
L 284.760717 267.264 
L 284.858182 267.168321 
L 287.499547 264.576 
L 288.465455 263.627195 
L 290.23649 261.888 
L 292.072727 260.083156 
L 292.971523 259.2 
L 295.68 256.536207 
L 295.704622 256.512 
L 298.436813 253.824 
L 299.287273 252.98651 
L 301.167123 251.136 
L 302.894545 249.433895 
L 303.895499 248.448 
L 306.501818 245.878359 
L 306.621917 245.76 
L 309.347371 243.072 
L 310.109091 242.320014 
L 312.071045 240.384 
L 313.716364 238.758755 
L 314.79276 237.696 
L 317.323636 235.194564 
L 317.512493 235.008 
L 320.231222 232.32 
L 320.930909 231.627515 
L 322.948254 229.632 
L 324.538182 228.057543 
L 325.663301 226.944 
L 328.145455 224.484627 
L 328.376337 224.256 
L 331.088359 221.568 
L 331.752727 220.90881 
L 333.798738 218.88 
L 335.36 217.330052 
L 336.507104 216.192 
L 338.967273 213.748339 
L 339.21343 213.504 
L 341.918766 210.816 
L 342.574545 210.163684 
L 344.622477 208.128 
L 346.181818 206.576066 
L 347.324145 205.44 
L 349.789091 202.985481 
L 350.023743 202.752 
L 352.722418 200.064 
L 353.396364 199.391912 
L 355.419443 197.376 
L 357.003636 195.795358 
L 358.114393 194.688 
L 360.610909 192.195823 
L 360.80724 192 
L 363.499283 189.312 
L 364.218182 188.593259 
L 366.189598 186.624 
L 367.825455 184.987689 
L 368.877804 183.936 
L 371.432727 181.379124 
L 371.563874 181.248 
L 374.249318 178.56 
L 375.04 177.767478 
L 376.932896 175.872 
L 378.647273 174.15281 
L 379.614329 173.184 
L 382.254545 170.535134 
L 382.293591 170.496 
L 384.972473 167.808 
L 385.861818 166.914311 
L 387.64928 165.12 
L 389.469091 163.29046 
L 390.323907 162.432 
L 392.996494 159.744 
L 393.076364 159.663572 
L 395.668685 157.056 
L 396.683636 156.033489 
L 398.338687 154.368 
L 400.290909 152.400369 
L 401.006469 151.68 
L 403.672503 148.992 
L 403.898182 148.764158 
L 406.337886 146.304 
L 407.505455 145.124732 
L 409.00104 143.616 
L 411.112727 141.482252 
L 411.661935 140.928 
L 414.321463 138.24 
L 414.72 137.836608 
" clip-path="url(#pafb2fa7125)" style="fill: none; stroke: #000000; stroke-width: 0.5"/>
   </g>
   <g id="PathCollection_11">
    <path d="M 145.572495 307.584 
L 147.781818 305.479574 
L 148.393808 304.896 
L 151.21183 302.208 
L 151.389091 302.038875 
L 154.026306 299.52 
L 154.996364 298.593136 
L 156.837648 296.832 
L 158.603636 295.142236 
L 159.645846 294.144 
L 162.210909 291.686174 
L 162.45089 291.456 
L 165.252484 288.768 
L 165.818182 288.225025 
L 168.050832 286.08 
L 169.425455 284.758732 
L 170.846056 283.392 
L 173.032727 281.287256 
L 173.638143 280.704 
L 176.426997 278.016 
L 176.64 277.810618 
L 179.212485 275.328 
L 180.247273 274.328841 
L 181.994863 272.64 
L 183.854545 270.841863 
L 184.774119 269.952 
L 187.461818 267.349679 
L 187.550239 267.264 
L 190.323015 264.576 
L 191.069091 263.852319 
L 193.092666 261.888 
L 194.676364 260.349739 
L 195.859204 259.2 
L 198.283636 256.84193 
L 198.622616 256.512 
L 201.382805 253.824 
L 201.890909 253.32889 
L 204.139837 251.136 
L 205.498182 249.810602 
L 206.893762 248.448 
L 209.105455 246.28706 
L 209.644565 245.76 
L 212.392213 243.072 
L 212.712727 242.758247 
L 215.136722 240.384 
L 216.32 239.224139 
L 217.878127 237.696 
L 219.927273 235.684749 
L 220.616412 235.008 
L 223.351568 232.32 
L 223.534545 232.140058 
L 226.083642 229.632 
L 227.141818 228.590009 
L 228.81261 226.944 
L 230.749091 225.034648 
L 231.538456 224.256 
L 234.261175 221.568 
L 234.356364 221.473959 
L 236.98089 218.88 
L 237.963636 217.907839 
L 239.697494 216.192 
L 241.570909 214.336376 
L 242.41097 213.504 
L 245.121312 210.816 
L 245.178182 210.759556 
L 247.828733 208.128 
L 248.785455 207.177229 
L 250.533036 205.44 
L 252.392727 203.589525 
L 253.234201 202.752 
L 255.93223 200.064 
L 256 199.996426 
L 258.627414 197.376 
L 259.607273 196.397747 
L 261.319467 194.688 
L 263.214545 192.793657 
L 264.008368 192 
L 266.694154 189.312 
L 266.821818 189.184116 
L 269.377146 186.624 
L 270.429091 185.568933 
L 272.056991 183.936 
L 274.036364 181.948301 
L 274.733667 181.248 
L 277.407283 178.56 
L 277.643636 178.322142 
L 280.078117 175.872 
L 281.250909 174.690294 
L 282.745786 173.184 
L 284.858182 171.052959 
L 285.410265 170.496 
L 288.071788 167.808 
L 288.465455 167.40999 
L 290.73049 165.12 
L 292.072727 163.761309 
L 293.386003 162.432 
L 295.68 160.107099 
L 296.038301 159.744 
L 298.687816 157.056 
L 299.287273 156.447112 
L 301.334398 154.368 
L 302.894545 152.781422 
L 303.38065 152.287149 
" clip-path="url(#pafb2fa7125)" style="fill: none; stroke: #000000; stroke-width: 0.5"/>
    <path d="M 324.028413 131.189785 
L 324.538182 130.666569 
L 325.016292 130.176 
L 327.632575 127.488 
L 328.145455 126.960357 
L 330.24607 124.8 
L 331.752727 123.2482 
L 332.856277 122.112 
L 335.36 119.530336 
L 335.463167 119.424 
L 338.067721 116.736 
L 338.967273 115.806235 
L 340.66909 114.048 
L 342.574545 112.076328 
L 343.267131 111.36 
L 345.862192 108.672 
L 346.181818 108.340467 
L 348.45474 105.984 
L 349.789091 104.598394 
L 351.043947 103.296 
L 353.396364 100.850521 
L 353.629782 100.608 
L 356.213232 97.92 
L 357.003636 97.09631 
L 358.79362 95.232 
L 360.610909 93.336101 
L 361.37062 92.544 
L 363.94457 89.856 
L 364.218182 89.569842 
L 366.516148 87.168 
L 367.825455 85.797165 
L 369.084322 84.48 
L 371.432727 82.018587 
L 371.649059 81.792 
L 374.211528 79.104 
L 375.04 78.233468 
L 376.770882 76.416 
L 378.647273 74.442239 
L 379.32678 73.728 
L 381.879754 71.04 
L 382.254545 70.644751 
L 384.43029 68.352 
L 385.861818 66.840731 
L 386.977349 65.664 
L 389.469091 63.030702 
L 389.520895 62.976 
L 392.062531 60.288 
L 393.076364 59.213791 
L 394.60075 57.6 
L 396.683636 55.390776 
L 397.135432 54.912 
L 399.667588 52.224 
L 400.290909 51.561134 
L 402.196961 49.536 
L 403.898182 47.724984 
L 404.722773 46.848 
L 407.245438 44.16 
L 407.505455 43.882466 
L 409.765957 41.472 
" clip-path="url(#pafb2fa7125)" style="fill: none; stroke: #000000; stroke-width: 0.5"/>
   </g>
   <g id="PathCollection_12">
    <path d="M 57.6 296.75713 
L 60.454242 294.144 
L 61.207273 293.454515 
L 63.385401 291.456 
L 64.814545 290.144554 
L 66.311543 288.768 
L 68.421818 286.827246 
L 69.232683 286.08 
L 72.029091 283.502588 
L 72.148835 283.392 
L 75.058928 280.704 
L 75.636364 280.170535 
L 77.963879 278.016 
L 79.243636 276.831108 
L 80.86393 275.328 
L 82.850909 273.484308 
L 83.759095 272.64 
L 86.458182 270.130133 
L 86.649384 269.952 
L 89.533889 267.264 
L 90.065455 266.768513 
L 92.413251 264.576 
L 93.672727 263.399475 
L 95.287819 261.888 
L 97.28 260.023035 
L 98.157602 259.2 
L 100.887273 256.639188 
L 101.022609 256.512 
L 103.881878 253.824 
L 104.494545 253.247823 
L 106.736219 251.136 
L 108.101818 249.849004 
L 109.585857 248.448 
L 111.709091 246.442747 
L 112.430801 245.76 
L 115.270987 243.072 
L 115.316364 243.029038 
L 118.105449 240.384 
L 118.923636 239.607713 
L 120.935284 237.696 
L 122.530909 236.178917 
L 123.760498 235.008 
L 126.138182 232.742642 
L 126.581093 232.32 
L 129.396609 229.632 
L 129.745455 229.298788 
L 132.206962 226.944 
L 133.352727 225.847308 
L 135.012759 224.256 
L 136.96 222.388311 
L 137.814002 221.568 
L 138.466117 220.941243 
" clip-path="url(#pafb2fa7125)" style="fill: none; stroke: #000000; stroke-width: 0.5"/>
    <path d="M 164.262375 195.959762 
L 165.565472 194.688 
L 165.818182 194.441194 
L 168.314701 192 
L 169.425455 190.913016 
L 171.059527 189.312 
L 173.032727 187.377174 
L 173.799947 186.624 
L 176.535862 183.936 
L 176.64 183.833608 
L 179.266729 181.248 
L 180.247273 180.281988 
L 181.993232 178.56 
L 183.854545 176.722649 
L 184.715363 175.872 
L 187.433093 173.184 
L 187.461818 173.155566 
L 190.145814 170.496 
L 191.069091 169.580288 
L 192.854203 167.808 
L 194.676364 165.997235 
L 195.55825 165.12 
L 198.257927 162.432 
L 198.283636 162.40638 
L 200.9527 159.744 
L 201.890909 158.807217 
L 203.643165 157.056 
L 205.498182 155.200219 
L 206.329312 154.368 
L 209.011076 151.68 
L 209.105455 151.585313 
L 211.688078 148.992 
L 212.712727 147.962024 
L 214.360793 146.304 
L 216.32 144.330835 
L 217.029206 143.616 
L 219.693199 140.928 
L 219.927273 140.691577 
L 222.352592 138.24 
L 223.534545 137.043906 
L 225.00771 135.552 
L 227.141818 133.388268 
L 227.658537 132.864 
L 230.304907 130.176 
L 230.749091 129.72433 
L 232.946832 127.488 
L 234.356364 126.052008 
L 235.58449 124.8 
L 237.963636 122.371646 
L 238.217861 122.112 
L 240.84676 119.424 
L 241.570909 118.682678 
L 243.471342 116.736 
L 245.178182 114.98542 
L 246.091657 114.048 
L 248.707673 111.36 
L 248.785455 111.279985 
L 251.319269 108.672 
L 252.392727 107.565671 
L 253.926614 105.984 
L 256 103.843179 
L 256.529688 103.296 
L 259.128437 100.608 
L 259.607273 100.112085 
L 261.722895 97.92 
L 263.214545 96.372305 
L 264.313092 95.232 
L 266.821818 92.624267 
L 266.899007 92.544 
L 269.480653 89.856 
L 270.429091 88.867091 
L 272.058049 87.168 
L 274.036364 85.101522 
L 274.63117 84.48 
L 277.200038 81.792 
L 277.643636 81.327188 
L 279.764701 79.104 
L 281.250909 77.543903 
L 282.325095 76.416 
L 284.858182 73.752205 
L 284.881193 73.728 
L 287.433184 71.04 
L 288.465455 69.951037 
L 289.980912 68.352 
L 292.072727 66.141362 
L 292.524346 65.664 
L 295.063625 62.976 
L 295.68 62.322535 
L 297.598744 60.288 
L 299.287273 58.494683 
L 300.129567 57.6 
L 302.656146 54.912 
L 302.894545 54.65799 
L 305.178707 52.224 
L 306.501818 50.811755 
L 307.696968 49.536 
L 310.109091 46.956863 
L 310.2109 46.848 
L 312.720908 44.16 
L 313.716364 43.092149 
L 315.226651 41.472 
" clip-path="url(#pafb2fa7125)" style="fill: none; stroke: #000000; stroke-width: 0.5"/>
   </g>
   <g id="PathCollection_13">
    <path d="M 57.6 203.611465 
L 58.530452 202.752 
L 61.207273 200.27836 
L 61.438684 200.064 
L 64.339158 197.376 
L 64.814545 196.935234 
L 67.232546 194.688 
L 68.421818 193.582197 
L 70.119465 192 
L 72.029091 190.219364 
L 72.999943 189.312 
L 75.636364 186.846724 
L 75.874009 186.624 
L 78.740516 183.936 
L 79.243636 183.463952 
L 81.600147 181.248 
L 82.850909 180.071181 
L 84.453491 178.56 
L 86.458182 176.668543 
L 87.300574 175.872 
L 90.065455 173.256025 
L 90.141417 173.184 
L 92.974524 170.496 
L 93.672727 169.833137 
L 95.801319 167.808 
L 97.28 166.400268 
L 98.621991 165.12 
L 100.887273 162.957451 
L 101.436558 162.432 
L 104.244525 159.744 
L 104.494545 159.504491 
L 107.045321 157.056 
L 108.101818 156.041133 
L 109.84012 154.368 
L 111.709091 152.567758 
L 112.62894 151.68 
L 115.316364 149.084349 
L 115.411794 148.992 
L 118.187294 146.304 
L 118.923636 145.590304 
L 120.956727 143.616 
L 122.530909 142.08609 
L 123.720294 140.928 
L 126.138182 138.571765 
L 126.478005 138.24 
L 129.228945 135.552 
L 129.745455 135.046871 
L 131.973486 132.864 
L 133.352727 131.511518 
L 134.712262 130.176 
L 135.54482 129.357409 
" clip-path="url(#pafb2fa7125)" style="fill: none; stroke: #000000; stroke-width: 0.5"/>
    <path d="M 161.018806 104.047487 
L 161.767676 103.296 
L 162.210909 102.850743 
L 164.440067 100.608 
L 165.818182 99.219967 
L 167.10694 97.92 
L 169.425455 95.578713 
L 169.768296 95.232 
L 172.423309 92.544 
L 173.032727 91.926308 
L 175.072392 89.856 
L 176.64 88.262986 
L 177.716021 87.168 
L 180.247273 84.589081 
L 180.354192 84.48 
L 182.985821 81.792 
L 183.854545 80.903592 
L 185.611918 79.104 
L 187.461818 77.207319 
L 188.232615 76.416 
L 190.847645 73.728 
L 191.069091 73.500094 
L 193.456398 71.04 
L 194.676364 69.781224 
L 196.059804 68.352 
L 198.283636 66.051574 
L 198.657853 65.664 
L 201.249855 62.976 
L 201.890909 62.310327 
L 203.836144 60.288 
L 205.498182 58.557753 
L 206.417123 57.6 
L 208.99267 54.912 
L 209.105455 54.794133 
L 211.562009 52.224 
L 212.712727 51.018387 
L 214.12608 49.536 
L 216.32 47.231644 
L 216.684873 46.848 
L 219.237758 44.16 
L 219.927273 43.432951 
L 221.785077 41.472 
" clip-path="url(#pafb2fa7125)" style="fill: none; stroke: #000000; stroke-width: 0.5"/>
   </g>
   <g id="PathCollection_14">
    <path d="M 57.6 108.535178 
L 60.2978 105.984 
L 61.207273 105.123285 
L 63.132813 103.296 
L 64.814545 101.698804 
L 65.959998 100.608 
L 68.421818 98.261707 
L 68.7794 97.92 
L 71.589781 95.232 
L 72.029091 94.811446 
L 74.391451 92.544 
L 75.381602 91.592802 
" clip-path="url(#pafb2fa7125)" style="fill: none; stroke: #000000; stroke-width: 0.5"/>
    <path d="M 101.098343 66.529719 
L 101.974113 65.664 
L 104.494545 63.169863 
L 104.69 62.976 
L 107.396983 60.288 
L 108.101818 59.587335 
L 110.096417 57.6 
L 111.709091 55.991421 
L 112.788828 54.912 
L 115.316364 52.382357 
L 115.474239 52.224 
L 118.150823 49.536 
L 118.923636 48.758982 
L 120.820128 46.848 
L 122.530909 45.122118 
L 123.482561 44.16 
L 126.138139 41.472 
" clip-path="url(#pafb2fa7125)" style="fill: none; stroke: #000000; stroke-width: 0.5"/>
   </g>
   <g id="PathCollection_15"/>
   <g id="LineCollection_1">
    <path d="M 68.153699 307.584 
L 68.153699 294.2784 
" clip-path="url(#pafb2fa7125)" style="fill: none; stroke: #000000; stroke-width: 1.5"/>
    <path d="M 84.835458 307.584 
L 84.835458 294.2784 
" clip-path="url(#pafb2fa7125)" style="fill: none; stroke: #000000; stroke-width: 1.5"/>
    <path d="M 104.170605 307.584 
L 104.170605 294.2784 
" clip-path="url(#pafb2fa7125)" style="fill: none; stroke: #000000; stroke-width: 1.5"/>
    <path d="M 123.093447 307.584 
L 123.093447 294.2784 
" clip-path="url(#pafb2fa7125)" style="fill: none; stroke: #000000; stroke-width: 1.5"/>
    <path d="M 154.229185 307.584 
L 154.229185 294.2784 
" clip-path="url(#pafb2fa7125)" style="fill: none; stroke: #000000; stroke-width: 1.5"/>
    <path d="M 185.315047 307.584 
L 185.315047 294.2784 
" clip-path="url(#pafb2fa7125)" style="fill: none; stroke: #000000; stroke-width: 1.5"/>
    <path d="M 218.366012 307.584 
L 218.366012 294.2784 
" clip-path="url(#pafb2fa7125)" style="fill: none; stroke: #000000; stroke-width: 1.5"/>
    <path d="M 294.130528 307.584 
L 294.130528 294.2784 
" clip-path="url(#pafb2fa7125)" style="fill: none; stroke: #000000; stroke-width: 1.5"/>
    <path d="M 342.443458 307.584 
L 342.443458 294.2784 
" clip-path="url(#pafb2fa7125)" style="fill: none; stroke: #000000; stroke-width: 1.5"/>
   </g>
   <g id="LineCollection_2">
    <path clip-path="url(#pafb2fa7125)" style="fill: none; stroke: #000000; stroke-width: 1.5"/>
    <path clip-path="url(#pafb2fa7125)" style="fill: none; stroke: #000000; stroke-width: 1.5"/>
    <path clip-path="url(#pafb2fa7125)" style="fill: none; stroke: #000000; stroke-width: 1.5"/>
    <path clip-path="url(#pafb2fa7125)" style="fill: none; stroke: #000000; stroke-width: 1.5"/>
    <path clip-path="url(#pafb2fa7125)" style="fill: none; stroke: #000000; stroke-width: 1.5"/>
    <path clip-path="url(#pafb2fa7125)" style="fill: none; stroke: #000000; stroke-width: 1.5"/>
    <path clip-path="url(#pafb2fa7125)" style="fill: none; stroke: #000000; stroke-width: 1.5"/>
    <path clip-path="url(#pafb2fa7125)" style="fill: none; stroke: #000000; stroke-width: 1.5"/>
    <path clip-path="url(#pafb2fa7125)" style="fill: none; stroke: #000000; stroke-width: 1.5"/>
   </g>
   <g id="patch_3">
    <path d="M 57.6 307.584 
L 57.6 41.472 
" style="fill: none; stroke: #000000; stroke-width: 0.8; stroke-linejoin: miter; stroke-linecap: square"/>
   </g>
   <g id="patch_4">
    <path d="M 414.72 307.584 
L 414.72 41.472 
" style="fill: none; stroke: #000000; stroke-width: 0.8; stroke-linejoin: miter; stroke-linecap: square"/>
   </g>
   <g id="patch_5">
    <path d="M 57.6 307.584 
L 414.72 307.584 
" style="fill: none; stroke: #000000; stroke-width: 0.8; stroke-linejoin: miter; stroke-linecap: square"/>
   </g>
   <g id="patch_6">
    <path d="M 57.6 41.472 
L 414.72 41.472 
" style="fill: none; stroke: #000000; stroke-width: 0.8; stroke-linejoin: miter; stroke-linecap: square"/>
   </g>
   <g id="text_17">
    <!-- 2D-partial dependency plot between PM and Smoking -->
    <g transform="translate(74.236875 35.472) scale(0.12 -0.12)">
     <defs>
      <path id="DejaVuSans-44" d="M 1259 4147 
L 1259 519 
L 2022 519 
Q 2988 519 3436 956 
Q 3884 1394 3884 2338 
Q 3884 3275 3436 3711 
Q 2988 4147 2022 4147 
L 1259 4147 
z
M 628 4666 
L 1925 4666 
Q 3281 4666 3915 4102 
Q 4550 3538 4550 2338 
Q 4550 1131 3912 565 
Q 3275 0 1925 0 
L 628 0 
L 628 4666 
z
" transform="scale(0.015625)"/>
      <path id="DejaVuSans-2d" d="M 313 2009 
L 1997 2009 
L 1997 1497 
L 313 1497 
L 313 2009 
z
" transform="scale(0.015625)"/>
      <path id="DejaVuSans-70" d="M 1159 525 
L 1159 -1331 
L 581 -1331 
L 581 3500 
L 1159 3500 
L 1159 2969 
Q 1341 3281 1617 3432 
Q 1894 3584 2278 3584 
Q 2916 3584 3314 3078 
Q 3713 2572 3713 1747 
Q 3713 922 3314 415 
Q 2916 -91 2278 -91 
Q 1894 -91 1617 61 
Q 1341 213 1159 525 
z
M 3116 1747 
Q 3116 2381 2855 2742 
Q 2594 3103 2138 3103 
Q 1681 3103 1420 2742 
Q 1159 2381 1159 1747 
Q 1159 1113 1420 752 
Q 1681 391 2138 391 
Q 2594 391 2855 752 
Q 3116 1113 3116 1747 
z
" transform="scale(0.015625)"/>
      <path id="DejaVuSans-74" d="M 1172 4494 
L 1172 3500 
L 2356 3500 
L 2356 3053 
L 1172 3053 
L 1172 1153 
Q 1172 725 1289 603 
Q 1406 481 1766 481 
L 2356 481 
L 2356 0 
L 1766 0 
Q 1100 0 847 248 
Q 594 497 594 1153 
L 594 3053 
L 172 3053 
L 172 3500 
L 594 3500 
L 594 4494 
L 1172 4494 
z
" transform="scale(0.015625)"/>
      <path id="DejaVuSans-64" d="M 2906 2969 
L 2906 4863 
L 3481 4863 
L 3481 0 
L 2906 0 
L 2906 525 
Q 2725 213 2448 61 
Q 2172 -91 1784 -91 
Q 1150 -91 751 415 
Q 353 922 353 1747 
Q 353 2572 751 3078 
Q 1150 3584 1784 3584 
Q 2172 3584 2448 3432 
Q 2725 3281 2906 2969 
z
M 947 1747 
Q 947 1113 1208 752 
Q 1469 391 1925 391 
Q 2381 391 2643 752 
Q 2906 1113 2906 1747 
Q 2906 2381 2643 2742 
Q 2381 3103 1925 3103 
Q 1469 3103 1208 2742 
Q 947 2381 947 1747 
z
" transform="scale(0.015625)"/>
      <path id="DejaVuSans-79" d="M 2059 -325 
Q 1816 -950 1584 -1140 
Q 1353 -1331 966 -1331 
L 506 -1331 
L 506 -850 
L 844 -850 
Q 1081 -850 1212 -737 
Q 1344 -625 1503 -206 
L 1606 56 
L 191 3500 
L 800 3500 
L 1894 763 
L 2988 3500 
L 3597 3500 
L 2059 -325 
z
" transform="scale(0.015625)"/>
      <path id="DejaVuSans-62" d="M 3116 1747 
Q 3116 2381 2855 2742 
Q 2594 3103 2138 3103 
Q 1681 3103 1420 2742 
Q 1159 2381 1159 1747 
Q 1159 1113 1420 752 
Q 1681 391 2138 391 
Q 2594 391 2855 752 
Q 3116 1113 3116 1747 
z
M 1159 2969 
Q 1341 3281 1617 3432 
Q 1894 3584 2278 3584 
Q 2916 3584 3314 3078 
Q 3713 2572 3713 1747 
Q 3713 922 3314 415 
Q 2916 -91 2278 -91 
Q 1894 -91 1617 61 
Q 1341 213 1159 525 
L 1159 0 
L 581 0 
L 581 4863 
L 1159 4863 
L 1159 2969 
z
" transform="scale(0.015625)"/>
      <path id="DejaVuSans-77" d="M 269 3500 
L 844 3500 
L 1563 769 
L 2278 3500 
L 2956 3500 
L 3675 769 
L 4391 3500 
L 4966 3500 
L 4050 0 
L 3372 0 
L 2619 2869 
L 1863 0 
L 1184 0 
L 269 3500 
z
" transform="scale(0.015625)"/>
     </defs>
     <use xlink:href="#DejaVuSans-32"/>
     <use xlink:href="#DejaVuSans-44" x="63.623047"/>
     <use xlink:href="#DejaVuSans-2d" x="140.625"/>
     <use xlink:href="#DejaVuSans-70" x="176.708984"/>
     <use xlink:href="#DejaVuSans-61" x="240.185547"/>
     <use xlink:href="#DejaVuSans-72" x="301.464844"/>
     <use xlink:href="#DejaVuSans-74" x="342.578125"/>
     <use xlink:href="#DejaVuSans-69" x="381.787109"/>
     <use xlink:href="#DejaVuSans-61" x="409.570312"/>
     <use xlink:href="#DejaVuSans-6c" x="470.849609"/>
     <use xlink:href="#DejaVuSans-20" x="498.632812"/>
     <use xlink:href="#DejaVuSans-64" x="530.419922"/>
     <use xlink:href="#DejaVuSans-65" x="593.896484"/>
     <use xlink:href="#DejaVuSans-70" x="655.419922"/>
     <use xlink:href="#DejaVuSans-65" x="718.896484"/>
     <use xlink:href="#DejaVuSans-6e" x="780.419922"/>
     <use xlink:href="#DejaVuSans-64" x="843.798828"/>
     <use xlink:href="#DejaVuSans-65" x="907.275391"/>
     <use xlink:href="#DejaVuSans-6e" x="968.798828"/>
     <use xlink:href="#DejaVuSans-63" x="1032.177734"/>
     <use xlink:href="#DejaVuSans-79" x="1087.158203"/>
     <use xlink:href="#DejaVuSans-20" x="1146.337891"/>
     <use xlink:href="#DejaVuSans-70" x="1178.125"/>
     <use xlink:href="#DejaVuSans-6c" x="1241.601562"/>
     <use xlink:href="#DejaVuSans-6f" x="1269.384766"/>
     <use xlink:href="#DejaVuSans-74" x="1330.566406"/>
     <use xlink:href="#DejaVuSans-20" x="1369.775391"/>
     <use xlink:href="#DejaVuSans-62" x="1401.5625"/>
     <use xlink:href="#DejaVuSans-65" x="1465.039062"/>
     <use xlink:href="#DejaVuSans-74" x="1526.5625"/>
     <use xlink:href="#DejaVuSans-77" x="1565.771484"/>
     <use xlink:href="#DejaVuSans-65" x="1647.558594"/>
     <use xlink:href="#DejaVuSans-65" x="1709.082031"/>
     <use xlink:href="#DejaVuSans-6e" x="1770.605469"/>
     <use xlink:href="#DejaVuSans-20" x="1833.984375"/>
     <use xlink:href="#DejaVuSans-50" x="1865.771484"/>
     <use xlink:href="#DejaVuSans-4d" x="1926.074219"/>
     <use xlink:href="#DejaVuSans-20" x="2012.353516"/>
     <use xlink:href="#DejaVuSans-61" x="2044.140625"/>
     <use xlink:href="#DejaVuSans-6e" x="2105.419922"/>
     <use xlink:href="#DejaVuSans-64" x="2168.798828"/>
     <use xlink:href="#DejaVuSans-20" x="2232.275391"/>
     <use xlink:href="#DejaVuSans-53" x="2264.0625"/>
     <use xlink:href="#DejaVuSans-6d" x="2327.539062"/>
     <use xlink:href="#DejaVuSans-6f" x="2424.951172"/>
     <use xlink:href="#DejaVuSans-6b" x="2486.132812"/>
     <use xlink:href="#DejaVuSans-69" x="2544.042969"/>
     <use xlink:href="#DejaVuSans-6e" x="2571.826172"/>
     <use xlink:href="#DejaVuSans-67" x="2635.205078"/>
    </g>
   </g>
   <g id="text_18">
    <g clip-path="url(#pafb2fa7125)">
     <!-- 8.18 -->
     <g transform="translate(361.747528 293.580871) rotate(-44.079706) scale(0.1 -0.1)">
      <defs>
       <path id="DejaVuSans-38" d="M 2034 2216 
Q 1584 2216 1326 1975 
Q 1069 1734 1069 1313 
Q 1069 891 1326 650 
Q 1584 409 2034 409 
Q 2484 409 2743 651 
Q 3003 894 3003 1313 
Q 3003 1734 2745 1975 
Q 2488 2216 2034 2216 
z
M 1403 2484 
Q 997 2584 770 2862 
Q 544 3141 544 3541 
Q 544 4100 942 4425 
Q 1341 4750 2034 4750 
Q 2731 4750 3128 4425 
Q 3525 4100 3525 3541 
Q 3525 3141 3298 2862 
Q 3072 2584 2669 2484 
Q 3125 2378 3379 2068 
Q 3634 1759 3634 1313 
Q 3634 634 3220 271 
Q 2806 -91 2034 -91 
Q 1263 -91 848 271 
Q 434 634 434 1313 
Q 434 1759 690 2068 
Q 947 2378 1403 2484 
z
M 1172 3481 
Q 1172 3119 1398 2916 
Q 1625 2713 2034 2713 
Q 2441 2713 2670 2916 
Q 2900 3119 2900 3481 
Q 2900 3844 2670 4047 
Q 2441 4250 2034 4250 
Q 1625 4250 1398 4047 
Q 1172 3844 1172 3481 
z
" transform="scale(0.015625)"/>
      </defs>
      <use xlink:href="#DejaVuSans-38"/>
      <use xlink:href="#DejaVuSans-2e" x="63.623047"/>
      <use xlink:href="#DejaVuSans-31" x="95.410156"/>
      <use xlink:href="#DejaVuSans-38" x="159.033203"/>
     </g>
    </g>
   </g>
   <g id="text_19">
    <g clip-path="url(#pafb2fa7125)">
     <!-- 8.99 -->
     <g transform="translate(260.788883 294.586712) rotate(-44.344346) scale(0.1 -0.1)">
      <defs>
       <path id="DejaVuSans-39" d="M 703 97 
L 703 672 
Q 941 559 1184 500 
Q 1428 441 1663 441 
Q 2288 441 2617 861 
Q 2947 1281 2994 2138 
Q 2813 1869 2534 1725 
Q 2256 1581 1919 1581 
Q 1219 1581 811 2004 
Q 403 2428 403 3163 
Q 403 3881 828 4315 
Q 1253 4750 1959 4750 
Q 2769 4750 3195 4129 
Q 3622 3509 3622 2328 
Q 3622 1225 3098 567 
Q 2575 -91 1691 -91 
Q 1453 -91 1209 -44 
Q 966 3 703 97 
z
M 1959 2075 
Q 2384 2075 2632 2365 
Q 2881 2656 2881 3163 
Q 2881 3666 2632 3958 
Q 2384 4250 1959 4250 
Q 1534 4250 1286 3958 
Q 1038 3666 1038 3163 
Q 1038 2656 1286 2365 
Q 1534 2075 1959 2075 
z
" transform="scale(0.015625)"/>
      </defs>
      <use xlink:href="#DejaVuSans-38"/>
      <use xlink:href="#DejaVuSans-2e" x="63.623047"/>
      <use xlink:href="#DejaVuSans-39" x="95.410156"/>
      <use xlink:href="#DejaVuSans-39" x="159.033203"/>
     </g>
    </g>
   </g>
   <g id="text_20">
    <g clip-path="url(#pafb2fa7125)">
     <!-- 9.81 -->
     <g transform="translate(307.901489 151.636448) rotate(-45.61651) scale(0.1 -0.1)">
      <use xlink:href="#DejaVuSans-39"/>
      <use xlink:href="#DejaVuSans-2e" x="63.623047"/>
      <use xlink:href="#DejaVuSans-38" x="95.410156"/>
      <use xlink:href="#DejaVuSans-31" x="159.033203"/>
     </g>
    </g>
   </g>
   <g id="text_21">
    <g clip-path="url(#pafb2fa7125)">
     <!-- 10.62 -->
     <g transform="translate(143.026062 220.416269) rotate(-44.080764) scale(0.1 -0.1)">
      <defs>
       <path id="DejaVuSans-36" d="M 2113 2584 
Q 1688 2584 1439 2293 
Q 1191 2003 1191 1497 
Q 1191 994 1439 701 
Q 1688 409 2113 409 
Q 2538 409 2786 701 
Q 3034 994 3034 1497 
Q 3034 2003 2786 2293 
Q 2538 2584 2113 2584 
z
M 3366 4563 
L 3366 3988 
Q 3128 4100 2886 4159 
Q 2644 4219 2406 4219 
Q 1781 4219 1451 3797 
Q 1122 3375 1075 2522 
Q 1259 2794 1537 2939 
Q 1816 3084 2150 3084 
Q 2853 3084 3261 2657 
Q 3669 2231 3669 1497 
Q 3669 778 3244 343 
Q 2819 -91 2113 -91 
Q 1303 -91 875 529 
Q 447 1150 447 2328 
Q 447 3434 972 4092 
Q 1497 4750 2381 4750 
Q 2619 4750 2861 4703 
Q 3103 4656 3366 4563 
z
" transform="scale(0.015625)"/>
      </defs>
      <use xlink:href="#DejaVuSans-31"/>
      <use xlink:href="#DejaVuSans-30" x="63.623047"/>
      <use xlink:href="#DejaVuSans-2e" x="127.246094"/>
      <use xlink:href="#DejaVuSans-36" x="159.033203"/>
      <use xlink:href="#DejaVuSans-32" x="222.65625"/>
     </g>
    </g>
   </g>
   <g id="text_22">
    <g clip-path="url(#pafb2fa7125)">
     <!-- 11.44 -->
     <g transform="translate(140.105655 128.782192) rotate(-44.814252) scale(0.1 -0.1)">
      <use xlink:href="#DejaVuSans-31"/>
      <use xlink:href="#DejaVuSans-31" x="63.623047"/>
      <use xlink:href="#DejaVuSans-2e" x="127.246094"/>
      <use xlink:href="#DejaVuSans-34" x="159.033203"/>
      <use xlink:href="#DejaVuSans-34" x="222.65625"/>
     </g>
    </g>
   </g>
   <g id="text_23">
    <g clip-path="url(#pafb2fa7125)">
     <!-- 12.25 -->
     <g transform="translate(79.956528 91.070591) rotate(-44.262586) scale(0.1 -0.1)">
      <use xlink:href="#DejaVuSans-31"/>
      <use xlink:href="#DejaVuSans-32" x="63.623047"/>
      <use xlink:href="#DejaVuSans-2e" x="127.246094"/>
      <use xlink:href="#DejaVuSans-32" x="159.033203"/>
      <use xlink:href="#DejaVuSans-35" x="222.65625"/>
     </g>
    </g>
   </g>
  </g>
 </g>
 <defs>
  <clipPath id="pafb2fa7125">
   <rect x="57.6" y="41.472" width="357.12" height="266.112"/>
  </clipPath>
 </defs>
</svg>
