<?xml version="1.0" encoding="utf-8" standalone="no"?>
<!DOCTYPE svg PUBLIC "-//W3C//DTD SVG 1.1//EN"
  "http://www.w3.org/Graphics/SVG/1.1/DTD/svg11.dtd">
<svg xmlns:xlink="http://www.w3.org/1999/xlink" width="460.8pt" height="345.6pt" viewBox="0 0 460.8 345.6" xmlns="http://www.w3.org/2000/svg" version="1.1">
 <metadata>
  <rdf:RDF xmlns:dc="http://purl.org/dc/elements/1.1/" xmlns:cc="http://creativecommons.org/ns#" xmlns:rdf="http://www.w3.org/1999/02/22-rdf-syntax-ns#">
   <cc:Work>
    <dc:type rdf:resource="http://purl.org/dc/dcmitype/StillImage"/>
    <dc:date>2024-04-22T00:46:50.124501</dc:date>
    <dc:format>image/svg+xml</dc:format>
    <dc:creator>
     <cc:Agent>
      <dc:title>Matplotlib v3.7.0, https://matplotlib.org/</dc:title>
     </cc:Agent>
    </dc:creator>
   </cc:Work>
  </rdf:RDF>
 </metadata>
 <defs>
  <style type="text/css">*{stroke-linejoin: round; stroke-linecap: butt}</style>
 </defs>
 <g id="figure_1">
  <g id="patch_1">
   <path d="M 0 345.6 
L 460.8 345.6 
L 460.8 0 
L 0 0 
L 0 345.6 
z
" style="fill: none"/>
  </g>
  <g id="axes_1"/>
  <g id="axes_2">
   <g id="patch_2">
    <path d="M 57.6 307.584 
L 414.72 307.584 
L 414.72 41.472 
L 57.6 41.472 
L 57.6 307.584 
z
" style="fill: none"/>
   </g>
   <g id="PathCollection_1">
    <path d="M 144.174545 307.584 
L 147.781818 307.584 
L 151.389091 307.584 
L 154.996364 307.584 
L 158.603636 307.584 
L 162.210909 307.584 
L 165.818182 307.584 
L 169.425455 307.584 
L 173.032727 307.584 
L 176.64 307.584 
L 180.247273 307.584 
L 183.854545 307.584 
L 187.461818 307.584 
L 191.069091 307.584 
L 194.676364 307.584 
L 198.283636 307.584 
L 201.890909 307.584 
L 205.498182 307.584 
L 209.105455 307.584 
L 212.712727 307.584 
L 216.32 307.584 
L 219.927273 307.584 
L 223.534545 307.584 
L 227.141818 307.584 
L 230.749091 307.584 
L 234.356364 307.584 
L 237.963636 307.584 
L 241.570909 307.584 
L 245.178182 307.584 
L 248.785455 307.584 
L 252.392727 307.584 
L 256 307.584 
L 259.607273 307.584 
L 263.214545 307.584 
L 266.821818 307.584 
L 270.429091 307.584 
L 274.036364 307.584 
L 277.643636 307.584 
L 281.250909 307.584 
L 284.858182 307.584 
L 288.465455 307.584 
L 292.072727 307.584 
L 295.68 307.584 
L 299.287273 307.584 
L 302.894545 307.584 
L 306.501818 307.584 
L 310.109091 307.584 
L 313.716364 307.584 
L 317.323636 307.584 
L 320.930909 307.584 
L 324.538182 307.584 
L 328.145455 307.584 
L 331.752727 307.584 
L 335.36 307.584 
L 338.967273 307.584 
L 342.574545 307.584 
L 346.181818 307.584 
L 349.789091 307.584 
L 353.396364 307.584 
L 357.003636 307.584 
L 360.610909 307.584 
L 364.218182 307.584 
L 367.825455 307.584 
L 371.432727 307.584 
L 375.04 307.584 
L 378.647273 307.584 
L 382.254545 307.584 
L 385.861818 307.584 
L 389.469091 307.584 
L 393.076364 307.584 
L 396.683636 307.584 
L 400.290909 307.584 
L 403.898182 307.584 
L 407.505455 307.584 
L 411.112727 307.584 
L 414.72 307.584 
L 414.72 304.896 
L 414.72 302.208 
L 414.72 299.52 
L 414.72 296.832 
L 414.72 294.144 
L 414.72 291.456 
L 414.72 288.768 
L 414.72 286.08 
L 414.72 283.392 
L 414.72 280.704 
L 414.72 278.016 
L 414.72 275.485768 
L 411.112727 276.076242 
L 407.505455 276.662161 
L 403.898182 277.243524 
L 400.290909 277.82033 
L 399.057155 278.016 
L 396.683636 278.393506 
L 393.076364 278.96259 
L 389.469091 279.527098 
L 385.861818 280.087027 
L 382.254545 280.642377 
L 381.850798 280.704 
L 378.647273 281.194368 
L 375.04 281.741914 
L 371.432727 282.284862 
L 367.825455 282.823207 
L 364.218182 283.35695 
L 363.979139 283.392 
L 360.610909 283.887338 
L 357.003636 284.413193 
L 353.396364 284.934425 
L 349.789091 285.451031 
L 346.181818 285.963009 
L 345.349705 286.08 
L 342.574545 286.471358 
L 338.967273 286.975361 
L 335.36 287.474714 
L 331.752727 287.969417 
L 328.145455 288.459467 
L 325.852127 288.768 
L 324.538182 288.945319 
L 320.930909 289.427302 
L 317.323636 289.904608 
L 313.716364 290.377238 
L 310.109091 290.845187 
L 306.501818 291.308453 
L 305.340765 291.456 
L 302.894545 291.767851 
L 299.287273 292.222934 
L 295.68 292.673312 
L 292.072727 293.118981 
L 288.465455 293.559939 
L 284.858182 293.996183 
L 283.622066 294.144 
L 281.250909 294.428464 
L 277.643636 294.856404 
L 274.036364 295.279606 
L 270.429091 295.698068 
L 266.821818 296.111785 
L 263.214545 296.520755 
L 260.436587 296.832 
L 259.607273 296.925224 
L 256 297.325763 
L 252.392727 297.72153 
L 248.785455 298.112522 
L 245.178182 298.498735 
L 241.570909 298.880165 
L 237.963636 299.256809 
L 235.409988 299.52 
L 234.356364 299.628958 
L 230.749091 299.997016 
L 227.141818 300.360263 
L 223.534545 300.718693 
L 219.927273 301.072303 
L 216.32 301.421089 
L 212.712727 301.765047 
L 209.105455 302.104173 
L 207.984526 302.208 
L 205.498182 302.439096 
L 201.890909 302.76945 
L 198.283636 303.094945 
L 194.676364 303.415575 
L 191.069091 303.731337 
L 187.461818 304.042226 
L 183.854545 304.348238 
L 180.247273 304.649367 
L 177.2437 304.896 
L 176.64 304.945747 
L 173.032727 305.237908 
L 169.425455 305.525157 
L 165.818182 305.80749 
L 162.210909 306.084902 
L 158.603636 306.357387 
L 154.996364 306.624941 
L 151.389091 306.887559 
L 147.781818 307.145235 
L 144.174545 307.397963 
L 141.465558 307.584 
z
" clip-path="url(#pcf3575332d)" style="fill: #481b6d; fill-opacity: 0.75"/>
   </g>
   <g id="PathCollection_2">
    <path d="M 61.207273 307.584 
L 64.814545 307.584 
L 68.421818 307.584 
L 72.029091 307.584 
L 75.636364 307.584 
L 79.243636 307.584 
L 82.850909 307.584 
L 86.458182 307.584 
L 90.065455 307.584 
L 93.672727 307.584 
L 97.28 307.584 
L 100.887273 307.584 
L 104.494545 307.584 
L 108.101818 307.584 
L 111.709091 307.584 
L 115.316364 307.584 
L 118.923636 307.584 
L 122.530909 307.584 
L 126.138182 307.584 
L 129.745455 307.584 
L 133.352727 307.584 
L 136.96 307.584 
L 140.567273 307.584 
L 141.465558 307.584 
L 144.174545 307.397963 
L 147.781818 307.145235 
L 151.389091 306.887559 
L 154.996364 306.624941 
L 158.603636 306.357387 
L 162.210909 306.084902 
L 165.818182 305.80749 
L 169.425455 305.525157 
L 173.032727 305.237908 
L 176.64 304.945747 
L 177.2437 304.896 
L 180.247273 304.649367 
L 183.854545 304.348238 
L 187.461818 304.042226 
L 191.069091 303.731337 
L 194.676364 303.415575 
L 198.283636 303.094945 
L 201.890909 302.76945 
L 205.498182 302.439096 
L 207.984526 302.208 
L 209.105455 302.104173 
L 212.712727 301.765047 
L 216.32 301.421089 
L 219.927273 301.072303 
L 223.534545 300.718693 
L 227.141818 300.360263 
L 230.749091 299.997016 
L 234.356364 299.628958 
L 235.409988 299.52 
L 237.963636 299.256809 
L 241.570909 298.880165 
L 245.178182 298.498735 
L 248.785455 298.112522 
L 252.392727 297.72153 
L 256 297.325763 
L 259.607273 296.925224 
L 260.436587 296.832 
L 263.214545 296.520755 
L 266.821818 296.111785 
L 270.429091 295.698068 
L 274.036364 295.279606 
L 277.643636 294.856404 
L 281.250909 294.428464 
L 283.622066 294.144 
L 284.858182 293.996183 
L 288.465455 293.559939 
L 292.072727 293.118981 
L 295.68 292.673312 
L 299.287273 292.222934 
L 302.894545 291.767851 
L 305.340765 291.456 
L 306.501818 291.308453 
L 310.109091 290.845187 
L 313.716364 290.377238 
L 317.323636 289.904608 
L 320.930909 289.427302 
L 324.538182 288.945319 
L 325.852127 288.768 
L 328.145455 288.459467 
L 331.752727 287.969417 
L 335.36 287.474714 
L 338.967273 286.975361 
L 342.574545 286.471358 
L 345.349705 286.08 
L 346.181818 285.963009 
L 349.789091 285.451031 
L 353.396364 284.934425 
L 357.003636 284.413193 
L 360.610909 283.887338 
L 363.979139 283.392 
L 364.218182 283.35695 
L 367.825455 282.823207 
L 371.432727 282.284862 
L 375.04 281.741914 
L 378.647273 281.194368 
L 381.850798 280.704 
L 382.254545 280.642377 
L 385.861818 280.087027 
L 389.469091 279.527098 
L 393.076364 278.96259 
L 396.683636 278.393506 
L 399.057155 278.016 
L 400.290909 277.82033 
L 403.898182 277.243524 
L 407.505455 276.662161 
L 411.112727 276.076242 
L 414.72 275.485768 
L 414.72 275.328 
L 414.72 272.64 
L 414.72 269.952 
L 414.72 267.264 
L 414.72 264.576 
L 414.72 261.888 
L 414.72 259.2 
L 414.72 256.512 
L 414.72 253.824 
L 414.72 251.136 
L 414.72 248.448 
L 414.72 245.76 
L 414.72 243.072 
L 414.72 240.384 
L 414.72 237.696 
L 414.72 235.008 
L 414.72 232.32 
L 414.72 229.983454 
L 411.112727 230.536411 
L 407.505455 231.084741 
L 403.898182 231.628443 
L 400.290909 232.167513 
L 399.261356 232.32 
L 396.683636 232.702592 
L 393.076364 233.233281 
L 389.469091 233.759317 
L 385.861818 234.2807 
L 382.254545 234.797425 
L 380.770735 235.008 
L 378.647273 235.310007 
L 375.04 235.818278 
L 371.432727 236.321871 
L 367.825455 236.820783 
L 364.218182 237.315011 
L 361.410486 237.696 
L 360.610909 237.804741 
L 357.003636 238.290439 
L 353.396364 238.771432 
L 349.789091 239.247716 
L 346.181818 239.719288 
L 342.574545 240.186145 
L 341.029703 240.384 
L 338.967273 240.648754 
L 335.36 241.106984 
L 331.752727 241.560476 
L 328.145455 242.009228 
L 324.538182 242.453235 
L 320.930909 242.892493 
L 319.440156 243.072 
L 317.323636 243.327462 
L 313.716364 243.757992 
L 310.109091 244.183751 
L 306.501818 244.604735 
L 302.894545 245.02094 
L 299.287273 245.432362 
L 296.380451 245.76 
L 295.68 245.839143 
L 292.072727 246.24173 
L 288.465455 246.63951 
L 284.858182 247.03248 
L 281.250909 247.420635 
L 277.643636 247.80397 
L 274.036364 248.182482 
L 271.472773 248.448 
L 270.429091 248.556369 
L 266.821818 248.925914 
L 263.214545 249.29061 
L 259.607273 249.650454 
L 256 250.00544 
L 252.392727 250.355564 
L 248.785455 250.700821 
L 245.178182 251.041206 
L 244.158495 251.136 
L 241.570909 251.377175 
L 237.963636 251.708434 
L 234.356364 252.034795 
L 230.749091 252.356254 
L 227.141818 252.672805 
L 223.534545 252.984442 
L 219.927273 253.291162 
L 216.32 253.592957 
L 213.512116 253.824 
L 212.712727 253.889952 
L 209.105455 254.182453 
L 205.498182 254.470003 
L 201.890909 254.752598 
L 198.283636 255.03023 
L 194.676364 255.302895 
L 191.069091 255.570587 
L 187.461818 255.833299 
L 183.854545 256.091027 
L 180.247273 256.343764 
L 177.797031 256.512 
L 176.64 256.591662 
L 173.032727 256.83488 
L 169.425455 257.073078 
L 165.818182 257.306251 
L 162.210909 257.534392 
L 158.603636 257.757494 
L 154.996364 257.975552 
L 151.389091 258.188559 
L 147.781818 258.396508 
L 144.174545 258.599394 
L 140.567273 258.797208 
L 136.96 258.989945 
L 133.352727 259.177598 
L 132.90975 259.2 
L 129.745455 259.360482 
L 126.138182 259.538302 
L 122.530909 259.711007 
L 118.923636 259.878589 
L 115.316364 260.041042 
L 111.709091 260.198358 
L 108.101818 260.350529 
L 104.494545 260.49755 
L 100.887273 260.639411 
L 97.28 260.776107 
L 93.672727 260.907629 
L 90.065455 261.033969 
L 86.458182 261.155121 
L 82.850909 261.271076 
L 79.243636 261.381827 
L 75.636364 261.487365 
L 72.029091 261.587683 
L 68.421818 261.682772 
L 64.814545 261.772626 
L 61.207273 261.857234 
L 59.807916 261.888 
L 57.6 261.936689 
L 57.6 264.576 
L 57.6 267.264 
L 57.6 269.952 
L 57.6 272.64 
L 57.6 275.328 
L 57.6 278.016 
L 57.6 280.704 
L 57.6 283.392 
L 57.6 286.08 
L 57.6 288.768 
L 57.6 291.456 
L 57.6 294.144 
L 57.6 296.832 
L 57.6 299.52 
L 57.6 302.208 
L 57.6 304.896 
L 57.6 307.584 
z
" clip-path="url(#pcf3575332d)" style="fill: #3f4788; fill-opacity: 0.75"/>
   </g>
   <g id="PathCollection_3">
    <path d="M 59.807916 261.888 
L 61.207273 261.857234 
L 64.814545 261.772626 
L 68.421818 261.682772 
L 72.029091 261.587683 
L 75.636364 261.487365 
L 79.243636 261.381827 
L 82.850909 261.271076 
L 86.458182 261.155121 
L 90.065455 261.033969 
L 93.672727 260.907629 
L 97.28 260.776107 
L 100.887273 260.639411 
L 104.494545 260.49755 
L 108.101818 260.350529 
L 111.709091 260.198358 
L 115.316364 260.041042 
L 118.923636 259.878589 
L 122.530909 259.711007 
L 126.138182 259.538302 
L 129.745455 259.360482 
L 132.90975 259.2 
L 133.352727 259.177598 
L 136.96 258.989945 
L 140.567273 258.797208 
L 144.174545 258.599394 
L 147.781818 258.396508 
L 151.389091 258.188559 
L 154.996364 257.975552 
L 158.603636 257.757494 
L 162.210909 257.534392 
L 165.818182 257.306251 
L 169.425455 257.073078 
L 173.032727 256.83488 
L 176.64 256.591662 
L 177.797031 256.512 
L 180.247273 256.343764 
L 183.854545 256.091027 
L 187.461818 255.833299 
L 191.069091 255.570587 
L 194.676364 255.302895 
L 198.283636 255.03023 
L 201.890909 254.752598 
L 205.498182 254.470003 
L 209.105455 254.182453 
L 212.712727 253.889952 
L 213.512116 253.824 
L 216.32 253.592957 
L 219.927273 253.291162 
L 223.534545 252.984442 
L 227.141818 252.672805 
L 230.749091 252.356254 
L 234.356364 252.034795 
L 237.963636 251.708434 
L 241.570909 251.377175 
L 244.158495 251.136 
L 245.178182 251.041206 
L 248.785455 250.700821 
L 252.392727 250.355564 
L 256 250.00544 
L 259.607273 249.650454 
L 263.214545 249.29061 
L 266.821818 248.925914 
L 270.429091 248.556369 
L 271.472773 248.448 
L 274.036364 248.182482 
L 277.643636 247.80397 
L 281.250909 247.420635 
L 284.858182 247.03248 
L 288.465455 246.63951 
L 292.072727 246.24173 
L 295.68 245.839143 
L 296.380451 245.76 
L 299.287273 245.432362 
L 302.894545 245.02094 
L 306.501818 244.604735 
L 310.109091 244.183751 
L 313.716364 243.757992 
L 317.323636 243.327462 
L 319.440156 243.072 
L 320.930909 242.892493 
L 324.538182 242.453235 
L 328.145455 242.009228 
L 331.752727 241.560476 
L 335.36 241.106984 
L 338.967273 240.648754 
L 341.029703 240.384 
L 342.574545 240.186145 
L 346.181818 239.719288 
L 349.789091 239.247716 
L 353.396364 238.771432 
L 357.003636 238.290439 
L 360.610909 237.804741 
L 361.410486 237.696 
L 364.218182 237.315011 
L 367.825455 236.820783 
L 371.432727 236.321871 
L 375.04 235.818278 
L 378.647273 235.310007 
L 380.770735 235.008 
L 382.254545 234.797425 
L 385.861818 234.2807 
L 389.469091 233.759317 
L 393.076364 233.233281 
L 396.683636 232.702592 
L 399.261356 232.32 
L 400.290909 232.167513 
L 403.898182 231.628443 
L 407.505455 231.084741 
L 411.112727 230.536411 
L 414.72 229.983454 
L 414.72 229.632 
L 414.72 226.944 
L 414.72 224.256 
L 414.72 221.568 
L 414.72 218.88 
L 414.72 216.192 
L 414.72 213.504 
L 414.72 210.816 
L 414.72 208.128 
L 414.72 205.44 
L 414.72 202.752 
L 414.72 200.064 
L 414.72 197.376 
L 414.72 194.688 
L 414.72 192 
L 414.72 189.312 
L 414.72 186.624 
L 414.72 185.725119 
L 411.112727 186.24759 
L 408.489766 186.624 
L 407.505455 186.765444 
L 403.898182 187.278882 
L 400.290909 187.787561 
L 396.683636 188.291477 
L 393.076364 188.790625 
L 389.469091 189.285001 
L 389.270078 189.312 
L 385.861818 189.775031 
L 382.254545 190.260299 
L 378.647273 190.740775 
L 375.04 191.216454 
L 371.432727 191.687333 
L 369.012363 192 
L 367.825455 192.153553 
L 364.218182 192.61526 
L 360.610909 193.072145 
L 357.003636 193.524204 
L 353.396364 193.971432 
L 349.789091 194.413823 
L 347.528255 194.688 
L 346.181818 194.851537 
L 342.574545 195.284675 
L 338.967273 195.712955 
L 335.36 196.136373 
L 331.752727 196.554923 
L 328.145455 196.968602 
L 324.550553 197.376 
L 324.538182 197.377404 
L 320.930909 197.781741 
L 317.323636 198.181184 
L 313.716364 198.575727 
L 310.109091 198.965366 
L 306.501818 199.350094 
L 302.894545 199.729908 
L 299.679644 200.064 
L 299.287273 200.104844 
L 295.68 200.475206 
L 292.072727 200.84063 
L 288.465455 201.20111 
L 284.858182 201.556641 
L 281.250909 201.907217 
L 277.643636 202.252833 
L 274.036364 202.593482 
L 272.332306 202.752 
L 270.429091 202.929355 
L 266.821818 203.26042 
L 263.214545 203.586494 
L 259.607273 203.907571 
L 256 204.223647 
L 252.392727 204.534715 
L 248.785455 204.840769 
L 245.178182 205.141802 
L 241.570909 205.437809 
L 241.543734 205.44 
L 237.963636 205.729113 
L 234.356364 206.015373 
L 230.749091 206.296582 
L 227.141818 206.572733 
L 223.534545 206.84382 
L 219.927273 207.109835 
L 216.32 207.370774 
L 212.712727 207.626629 
L 209.105455 207.877393 
L 205.498182 208.12306 
L 205.424053 208.128 
L 201.890909 208.363899 
L 198.283636 208.599627 
L 194.676364 208.830231 
L 191.069091 209.055703 
L 187.461818 209.276038 
L 183.854545 209.491229 
L 180.247273 209.701267 
L 176.64 209.906146 
L 173.032727 210.105859 
L 169.425455 210.300399 
L 165.818182 210.489758 
L 162.210909 210.67393 
L 159.346981 210.816 
L 158.603636 210.85295 
L 154.996364 211.026932 
L 151.389091 211.195697 
L 147.781818 211.359237 
L 144.174545 211.517545 
L 140.567273 211.670614 
L 136.96 211.818434 
L 133.352727 211.961 
L 129.745455 212.098302 
L 126.138182 212.230332 
L 122.530909 212.357084 
L 118.923636 212.478548 
L 115.316364 212.594717 
L 111.709091 212.705582 
L 108.101818 212.811136 
L 104.494545 212.911369 
L 100.887273 213.006273 
L 97.28 213.095841 
L 93.672727 213.180063 
L 90.065455 213.258931 
L 86.458182 213.332436 
L 82.850909 213.40057 
L 79.243636 213.463323 
L 76.685022 213.504 
L 75.636364 213.520708 
L 72.029091 213.572738 
L 68.421818 213.619355 
L 64.814545 213.660549 
L 61.207273 213.696311 
L 57.6 213.726632 
L 57.6 216.192 
L 57.6 218.88 
L 57.6 221.568 
L 57.6 224.256 
L 57.6 226.944 
L 57.6 229.632 
L 57.6 232.32 
L 57.6 235.008 
L 57.6 237.696 
L 57.6 240.384 
L 57.6 243.072 
L 57.6 245.76 
L 57.6 248.448 
L 57.6 251.136 
L 57.6 253.824 
L 57.6 256.512 
L 57.6 259.2 
L 57.6 261.888 
L 57.6 261.936689 
z
" clip-path="url(#pcf3575332d)" style="fill: #2e6e8e; fill-opacity: 0.75"/>
   </g>
   <g id="PathCollection_4">
    <path d="M 61.207273 213.696311 
L 64.814545 213.660549 
L 68.421818 213.619355 
L 72.029091 213.572738 
L 75.636364 213.520708 
L 76.685022 213.504 
L 79.243636 213.463323 
L 82.850909 213.40057 
L 86.458182 213.332436 
L 90.065455 213.258931 
L 93.672727 213.180063 
L 97.28 213.095841 
L 100.887273 213.006273 
L 104.494545 212.911369 
L 108.101818 212.811136 
L 111.709091 212.705582 
L 115.316364 212.594717 
L 118.923636 212.478548 
L 122.530909 212.357084 
L 126.138182 212.230332 
L 129.745455 212.098302 
L 133.352727 211.961 
L 136.96 211.818434 
L 140.567273 211.670614 
L 144.174545 211.517545 
L 147.781818 211.359237 
L 151.389091 211.195697 
L 154.996364 211.026932 
L 158.603636 210.85295 
L 159.346981 210.816 
L 162.210909 210.67393 
L 165.818182 210.489758 
L 169.425455 210.300399 
L 173.032727 210.105859 
L 176.64 209.906146 
L 180.247273 209.701267 
L 183.854545 209.491229 
L 187.461818 209.276038 
L 191.069091 209.055703 
L 194.676364 208.830231 
L 198.283636 208.599627 
L 201.890909 208.363899 
L 205.424053 208.128 
L 205.498182 208.12306 
L 209.105455 207.877393 
L 212.712727 207.626629 
L 216.32 207.370774 
L 219.927273 207.109835 
L 223.534545 206.84382 
L 227.141818 206.572733 
L 230.749091 206.296582 
L 234.356364 206.015373 
L 237.963636 205.729113 
L 241.543734 205.44 
L 241.570909 205.437809 
L 245.178182 205.141802 
L 248.785455 204.840769 
L 252.392727 204.534715 
L 256 204.223647 
L 259.607273 203.907571 
L 263.214545 203.586494 
L 266.821818 203.26042 
L 270.429091 202.929355 
L 272.332306 202.752 
L 274.036364 202.593482 
L 277.643636 202.252833 
L 281.250909 201.907217 
L 284.858182 201.556641 
L 288.465455 201.20111 
L 292.072727 200.84063 
L 295.68 200.475206 
L 299.287273 200.104844 
L 299.679644 200.064 
L 302.894545 199.729908 
L 306.501818 199.350094 
L 310.109091 198.965366 
L 313.716364 198.575727 
L 317.323636 198.181184 
L 320.930909 197.781741 
L 324.538182 197.377404 
L 324.550553 197.376 
L 328.145455 196.968602 
L 331.752727 196.554923 
L 335.36 196.136373 
L 338.967273 195.712955 
L 342.574545 195.284675 
L 346.181818 194.851537 
L 347.528255 194.688 
L 349.789091 194.413823 
L 353.396364 193.971432 
L 357.003636 193.524204 
L 360.610909 193.072145 
L 364.218182 192.61526 
L 367.825455 192.153553 
L 369.012363 192 
L 371.432727 191.687333 
L 375.04 191.216454 
L 378.647273 190.740775 
L 382.254545 190.260299 
L 385.861818 189.775031 
L 389.270078 189.312 
L 389.469091 189.285001 
L 393.076364 188.790625 
L 396.683636 188.291477 
L 400.290909 187.787561 
L 403.898182 187.278882 
L 407.505455 186.765444 
L 408.489766 186.624 
L 411.112727 186.24759 
L 414.72 185.725119 
L 414.72 183.936 
L 414.72 181.248 
L 414.72 178.56 
L 414.72 175.872 
L 414.72 173.184 
L 414.72 170.496 
L 414.72 167.808 
L 414.72 165.12 
L 414.72 162.432 
L 414.72 159.744 
L 414.72 157.056 
L 414.72 154.368 
L 414.72 151.68 
L 414.72 148.992 
L 414.72 146.304 
L 414.72 143.616 
L 414.72 142.102528 
L 411.112727 142.6008 
L 407.505455 143.094156 
L 403.898182 143.582589 
L 403.648798 143.616 
L 400.290909 144.066148 
L 396.683636 144.544774 
L 393.076364 145.018459 
L 389.469091 145.487196 
L 385.861818 145.95098 
L 383.086048 146.304 
L 382.254545 146.409821 
L 378.647273 146.863752 
L 375.04 147.312709 
L 371.432727 147.756687 
L 367.825455 148.19568 
L 364.218182 148.629682 
L 361.171383 148.992 
L 360.610909 149.0587 
L 357.003636 149.482784 
L 353.396364 149.901856 
L 349.789091 150.31591 
L 346.181818 150.724942 
L 342.574545 151.128943 
L 338.967273 151.527908 
L 337.574025 151.68 
L 335.36 151.921887 
L 331.752727 152.310851 
L 328.145455 152.694757 
L 324.538182 153.073599 
L 320.930909 153.447372 
L 317.323636 153.816068 
L 313.716364 154.179682 
L 311.821056 154.368 
L 310.109091 154.538252 
L 306.501818 154.891774 
L 302.894545 155.240192 
L 299.287273 155.583498 
L 295.68 155.921686 
L 292.072727 156.25475 
L 288.465455 156.582682 
L 284.858182 156.905476 
L 283.148216 157.056 
L 281.250909 157.223176 
L 277.643636 157.535767 
L 274.036364 157.843198 
L 270.429091 158.14546 
L 266.821818 158.442547 
L 263.214545 158.734452 
L 259.607273 159.021168 
L 256 159.302688 
L 252.392727 159.579005 
L 250.19674 159.744 
L 248.785455 159.850148 
L 245.178182 160.116125 
L 241.570909 160.376876 
L 237.963636 160.632391 
L 234.356364 160.882665 
L 230.749091 161.127689 
L 227.141818 161.367456 
L 223.534545 161.601958 
L 219.927273 161.831188 
L 216.32 162.055139 
L 212.712727 162.273802 
L 210.037654 162.432 
L 209.105455 162.487191 
L 205.498182 162.695333 
L 201.890909 162.898162 
L 198.283636 163.095671 
L 194.676364 163.28785 
L 191.069091 163.474693 
L 187.461818 163.656191 
L 183.854545 163.832336 
L 180.247273 164.00312 
L 176.64 164.168534 
L 173.032727 164.328572 
L 169.425455 164.483224 
L 165.818182 164.632482 
L 162.210909 164.776337 
L 158.603636 164.914782 
L 154.996364 165.047808 
L 152.954682 165.12 
L 151.389091 165.175428 
L 147.781818 165.297638 
L 144.174545 165.414401 
L 140.567273 165.525708 
L 136.96 165.63155 
L 133.352727 165.731918 
L 129.745455 165.826803 
L 126.138182 165.916197 
L 122.530909 166.00009 
L 118.923636 166.078474 
L 115.316364 166.151339 
L 111.709091 166.218677 
L 108.101818 166.280477 
L 104.494545 166.336731 
L 100.887273 166.387429 
L 97.28 166.432562 
L 93.672727 166.472121 
L 90.065455 166.506096 
L 86.458182 166.534477 
L 82.850909 166.557254 
L 79.243636 166.574419 
L 75.636364 166.585961 
L 72.029091 166.591871 
L 68.421818 166.592138 
L 64.814545 166.586753 
L 61.207273 166.575705 
L 57.6 166.558985 
L 57.6 167.808 
L 57.6 170.496 
L 57.6 173.184 
L 57.6 175.872 
L 57.6 178.56 
L 57.6 181.248 
L 57.6 183.936 
L 57.6 186.624 
L 57.6 189.312 
L 57.6 192 
L 57.6 194.688 
L 57.6 197.376 
L 57.6 200.064 
L 57.6 202.752 
L 57.6 205.44 
L 57.6 208.128 
L 57.6 210.816 
L 57.6 213.504 
L 57.6 213.726632 
z
" clip-path="url(#pcf3575332d)" style="fill: #21918c; fill-opacity: 0.75"/>
   </g>
   <g id="PathCollection_5">
    <path d="M 61.207273 166.575705 
L 64.814545 166.586753 
L 68.421818 166.592138 
L 72.029091 166.591871 
L 75.636364 166.585961 
L 79.243636 166.574419 
L 82.850909 166.557254 
L 86.458182 166.534477 
L 90.065455 166.506096 
L 93.672727 166.472121 
L 97.28 166.432562 
L 100.887273 166.387429 
L 104.494545 166.336731 
L 108.101818 166.280477 
L 111.709091 166.218677 
L 115.316364 166.151339 
L 118.923636 166.078474 
L 122.530909 166.00009 
L 126.138182 165.916197 
L 129.745455 165.826803 
L 133.352727 165.731918 
L 136.96 165.63155 
L 140.567273 165.525708 
L 144.174545 165.414401 
L 147.781818 165.297638 
L 151.389091 165.175428 
L 152.954682 165.12 
L 154.996364 165.047808 
L 158.603636 164.914782 
L 162.210909 164.776337 
L 165.818182 164.632482 
L 169.425455 164.483224 
L 173.032727 164.328572 
L 176.64 164.168534 
L 180.247273 164.00312 
L 183.854545 163.832336 
L 187.461818 163.656191 
L 191.069091 163.474693 
L 194.676364 163.28785 
L 198.283636 163.095671 
L 201.890909 162.898162 
L 205.498182 162.695333 
L 209.105455 162.487191 
L 210.037654 162.432 
L 212.712727 162.273802 
L 216.32 162.055139 
L 219.927273 161.831188 
L 223.534545 161.601958 
L 227.141818 161.367456 
L 230.749091 161.127689 
L 234.356364 160.882665 
L 237.963636 160.632391 
L 241.570909 160.376876 
L 245.178182 160.116125 
L 248.785455 159.850148 
L 250.19674 159.744 
L 252.392727 159.579005 
L 256 159.302688 
L 259.607273 159.021168 
L 263.214545 158.734452 
L 266.821818 158.442547 
L 270.429091 158.14546 
L 274.036364 157.843198 
L 277.643636 157.535767 
L 281.250909 157.223176 
L 283.148216 157.056 
L 284.858182 156.905476 
L 288.465455 156.582682 
L 292.072727 156.25475 
L 295.68 155.921686 
L 299.287273 155.583498 
L 302.894545 155.240192 
L 306.501818 154.891774 
L 310.109091 154.538252 
L 311.821056 154.368 
L 313.716364 154.179682 
L 317.323636 153.816068 
L 320.930909 153.447372 
L 324.538182 153.073599 
L 328.145455 152.694757 
L 331.752727 152.310851 
L 335.36 151.921887 
L 337.574025 151.68 
L 338.967273 151.527908 
L 342.574545 151.128943 
L 346.181818 150.724942 
L 349.789091 150.31591 
L 353.396364 149.901856 
L 357.003636 149.482784 
L 360.610909 149.0587 
L 361.171383 148.992 
L 364.218182 148.629682 
L 367.825455 148.19568 
L 371.432727 147.756687 
L 375.04 147.312709 
L 378.647273 146.863752 
L 382.254545 146.409821 
L 383.086048 146.304 
L 385.861818 145.95098 
L 389.469091 145.487196 
L 393.076364 145.018459 
L 396.683636 144.544774 
L 400.290909 144.066148 
L 403.648798 143.616 
L 403.898182 143.582589 
L 407.505455 143.094156 
L 411.112727 142.6008 
L 414.72 142.102528 
L 414.72 140.928 
L 414.72 138.24 
L 414.72 135.552 
L 414.72 132.864 
L 414.72 130.176 
L 414.72 127.488 
L 414.72 124.8 
L 414.72 122.112 
L 414.72 119.424 
L 414.72 116.736 
L 414.72 114.048 
L 414.72 111.36 
L 414.72 108.672 
L 414.72 105.984 
L 414.72 103.296 
L 414.72 100.608 
L 414.72 98.547695 
L 411.112727 99.026607 
L 407.505455 99.500377 
L 403.898182 99.968998 
L 400.290909 100.432462 
L 398.908794 100.608 
L 396.683636 100.890566 
L 393.076364 101.343379 
L 389.469091 101.791017 
L 385.861818 102.233472 
L 382.254545 102.670738 
L 378.647273 103.102806 
L 377.014154 103.296 
L 375.04 103.529517 
L 371.432727 103.950892 
L 367.825455 104.36705 
L 364.218182 104.777984 
L 360.610909 105.183687 
L 357.003636 105.584151 
L 353.396364 105.97937 
L 353.353507 105.984 
L 349.789091 106.369097 
L 346.181818 106.753563 
L 342.574545 107.132763 
L 338.967273 107.506689 
L 335.36 107.875333 
L 331.752727 108.238689 
L 328.145455 108.596749 
L 327.375564 108.672 
L 324.538182 108.949345 
L 320.930909 109.296588 
L 317.323636 109.638514 
L 313.716364 109.975115 
L 310.109091 110.306384 
L 306.501818 110.632312 
L 302.894545 110.952892 
L 299.287273 111.268116 
L 298.217096 111.36 
L 295.68 111.577859 
L 292.072727 111.882183 
L 288.465455 112.181129 
L 284.858182 112.47469 
L 281.250909 112.762857 
L 277.643636 113.045622 
L 274.036364 113.322978 
L 270.429091 113.594916 
L 266.821818 113.861428 
L 264.243459 114.048 
L 263.214545 114.122469 
L 259.607273 114.377975 
L 256 114.628033 
L 252.392727 114.872634 
L 248.785455 115.11177 
L 245.178182 115.345432 
L 241.570909 115.573612 
L 237.963636 115.796302 
L 234.356364 116.013492 
L 230.749091 116.225175 
L 227.141818 116.431341 
L 223.534545 116.631982 
L 221.610702 116.736 
L 219.927273 116.827047 
L 216.32 117.016524 
L 212.712727 117.200451 
L 209.105455 117.37882 
L 205.498182 117.551623 
L 201.890909 117.71885 
L 198.283636 117.880492 
L 194.676364 118.036541 
L 191.069091 118.186987 
L 187.461818 118.331821 
L 183.854545 118.471035 
L 180.247273 118.604618 
L 176.64 118.732562 
L 173.032727 118.854857 
L 169.425455 118.971494 
L 165.818182 119.082464 
L 162.210909 119.187757 
L 158.603636 119.287363 
L 154.996364 119.381274 
L 153.248242 119.424 
L 151.389091 119.469459 
L 147.781818 119.551913 
L 144.174545 119.628645 
L 140.567273 119.699644 
L 136.96 119.764901 
L 133.352727 119.824407 
L 129.745455 119.878151 
L 126.138182 119.926123 
L 122.530909 119.968313 
L 118.923636 120.004712 
L 115.316364 120.035309 
L 111.709091 120.060095 
L 108.101818 120.079058 
L 104.494545 120.092188 
L 100.887273 120.099476 
L 97.28 120.100911 
L 93.672727 120.096483 
L 90.065455 120.086181 
L 86.458182 120.069994 
L 82.850909 120.047912 
L 79.243636 120.019924 
L 75.636364 119.986021 
L 72.029091 119.946189 
L 68.421818 119.900421 
L 64.814545 119.848703 
L 61.207273 119.791025 
L 57.6 119.727377 
L 57.6 122.112 
L 57.6 124.8 
L 57.6 127.488 
L 57.6 130.176 
L 57.6 132.864 
L 57.6 135.552 
L 57.6 138.24 
L 57.6 140.928 
L 57.6 143.616 
L 57.6 146.304 
L 57.6 148.992 
L 57.6 151.68 
L 57.6 154.368 
L 57.6 157.056 
L 57.6 159.744 
L 57.6 162.432 
L 57.6 165.12 
L 57.6 166.558985 
z
" clip-path="url(#pcf3575332d)" style="fill: #2db27d; fill-opacity: 0.75"/>
   </g>
   <g id="PathCollection_6">
    <path d="M 61.207273 119.791025 
L 64.814545 119.848703 
L 68.421818 119.900421 
L 72.029091 119.946189 
L 75.636364 119.986021 
L 79.243636 120.019924 
L 82.850909 120.047912 
L 86.458182 120.069994 
L 90.065455 120.086181 
L 93.672727 120.096483 
L 97.28 120.100911 
L 100.887273 120.099476 
L 104.494545 120.092188 
L 108.101818 120.079058 
L 111.709091 120.060095 
L 115.316364 120.035309 
L 118.923636 120.004712 
L 122.530909 119.968313 
L 126.138182 119.926123 
L 129.745455 119.878151 
L 133.352727 119.824407 
L 136.96 119.764901 
L 140.567273 119.699644 
L 144.174545 119.628645 
L 147.781818 119.551913 
L 151.389091 119.469459 
L 153.248242 119.424 
L 154.996364 119.381274 
L 158.603636 119.287363 
L 162.210909 119.187757 
L 165.818182 119.082464 
L 169.425455 118.971494 
L 173.032727 118.854857 
L 176.64 118.732562 
L 180.247273 118.604618 
L 183.854545 118.471035 
L 187.461818 118.331821 
L 191.069091 118.186987 
L 194.676364 118.036541 
L 198.283636 117.880492 
L 201.890909 117.71885 
L 205.498182 117.551623 
L 209.105455 117.37882 
L 212.712727 117.200451 
L 216.32 117.016524 
L 219.927273 116.827047 
L 221.610702 116.736 
L 223.534545 116.631982 
L 227.141818 116.431341 
L 230.749091 116.225175 
L 234.356364 116.013492 
L 237.963636 115.796302 
L 241.570909 115.573612 
L 245.178182 115.345432 
L 248.785455 115.11177 
L 252.392727 114.872634 
L 256 114.628033 
L 259.607273 114.377975 
L 263.214545 114.122469 
L 264.243459 114.048 
L 266.821818 113.861428 
L 270.429091 113.594916 
L 274.036364 113.322978 
L 277.643636 113.045622 
L 281.250909 112.762857 
L 284.858182 112.47469 
L 288.465455 112.181129 
L 292.072727 111.882183 
L 295.68 111.577859 
L 298.217096 111.36 
L 299.287273 111.268116 
L 302.894545 110.952892 
L 306.501818 110.632312 
L 310.109091 110.306384 
L 313.716364 109.975115 
L 317.323636 109.638514 
L 320.930909 109.296588 
L 324.538182 108.949345 
L 327.375564 108.672 
L 328.145455 108.596749 
L 331.752727 108.238689 
L 335.36 107.875333 
L 338.967273 107.506689 
L 342.574545 107.132763 
L 346.181818 106.753563 
L 349.789091 106.369097 
L 353.353507 105.984 
L 353.396364 105.97937 
L 357.003636 105.584151 
L 360.610909 105.183687 
L 364.218182 104.777984 
L 367.825455 104.36705 
L 371.432727 103.950892 
L 375.04 103.529517 
L 377.014154 103.296 
L 378.647273 103.102806 
L 382.254545 102.670738 
L 385.861818 102.233472 
L 389.469091 101.791017 
L 393.076364 101.343379 
L 396.683636 100.890566 
L 398.908794 100.608 
L 400.290909 100.432462 
L 403.898182 99.968998 
L 407.505455 99.500377 
L 411.112727 99.026607 
L 414.72 98.547695 
L 414.72 97.92 
L 414.72 95.232 
L 414.72 92.544 
L 414.72 89.856 
L 414.72 87.168 
L 414.72 84.48 
L 414.72 81.792 
L 414.72 79.104 
L 414.72 76.416 
L 414.72 73.728 
L 414.72 71.04 
L 414.72 68.352 
L 414.72 65.664 
L 414.72 62.976 
L 414.72 60.288 
L 414.72 57.6 
L 414.72 54.912 
L 414.72 54.470715 
L 411.294358 54.912 
L 411.112727 54.935373 
L 407.505455 55.393891 
L 403.898182 55.846969 
L 400.290909 56.294597 
L 396.683636 56.736767 
L 393.076364 57.173471 
L 389.508387 57.6 
L 389.469091 57.604693 
L 385.861818 58.029773 
L 382.254545 58.449368 
L 378.647273 58.86347 
L 375.04 59.272069 
L 371.432727 59.675157 
L 367.825455 60.072725 
L 365.844107 60.288 
L 364.218182 60.464497 
L 360.610909 60.850412 
L 357.003636 61.230788 
L 353.396364 61.605616 
L 349.789091 61.974888 
L 346.181818 62.338596 
L 342.574545 62.696729 
L 339.716679 62.976 
L 338.967273 63.049171 
L 335.36 63.395616 
L 331.752727 63.736468 
L 328.145455 64.071717 
L 324.538182 64.401355 
L 320.930909 64.725372 
L 317.323636 65.04376 
L 313.716364 65.35651 
L 310.109091 65.663612 
L 310.10444 65.664 
L 306.501818 65.964624 
L 302.894545 66.259977 
L 299.287273 66.549662 
L 295.68 66.83367 
L 292.072727 67.111992 
L 288.465455 67.384618 
L 284.858182 67.65154 
L 281.250909 67.912747 
L 277.643636 68.168231 
L 274.988871 68.352 
L 274.036364 68.41789 
L 270.429091 68.661557 
L 266.821818 68.89948 
L 263.214545 69.131649 
L 259.607273 69.358054 
L 256 69.578686 
L 252.392727 69.793536 
L 248.785455 70.002593 
L 245.178182 70.205849 
L 241.570909 70.403293 
L 237.963636 70.594915 
L 234.356364 70.780706 
L 230.749091 70.960657 
L 229.104421 71.04 
L 227.141818 71.134627 
L 223.534545 71.302636 
L 219.927273 71.464782 
L 216.32 71.621055 
L 212.712727 71.771445 
L 209.105455 71.915941 
L 205.498182 72.054535 
L 201.890909 72.187215 
L 198.283636 72.313971 
L 194.676364 72.434794 
L 191.069091 72.549673 
L 187.461818 72.658597 
L 183.854545 72.761557 
L 180.247273 72.858542 
L 176.64 72.949541 
L 173.032727 73.034545 
L 169.425455 73.113542 
L 165.818182 73.186522 
L 162.210909 73.253475 
L 158.603636 73.314389 
L 154.996364 73.369255 
L 151.389091 73.41806 
L 147.781818 73.460796 
L 144.174545 73.49745 
L 140.567273 73.528012 
L 136.96 73.552471 
L 133.352727 73.570816 
L 129.745455 73.583036 
L 126.138182 73.58912 
L 122.530909 73.589057 
L 118.923636 73.582835 
L 115.316364 73.570444 
L 111.709091 73.551872 
L 108.101818 73.527108 
L 104.494545 73.496141 
L 100.887273 73.458959 
L 97.28 73.415551 
L 93.672727 73.365905 
L 90.065455 73.31001 
L 86.458182 73.247854 
L 82.850909 73.179426 
L 79.243636 73.104713 
L 75.636364 73.023705 
L 72.029091 72.93639 
L 68.421818 72.842755 
L 64.814545 72.742788 
L 61.207273 72.636479 
L 57.6 72.523814 
L 57.6 73.728 
L 57.6 76.416 
L 57.6 79.104 
L 57.6 81.792 
L 57.6 84.48 
L 57.6 87.168 
L 57.6 89.856 
L 57.6 92.544 
L 57.6 95.232 
L 57.6 97.92 
L 57.6 100.608 
L 57.6 103.296 
L 57.6 105.984 
L 57.6 108.672 
L 57.6 111.36 
L 57.6 114.048 
L 57.6 116.736 
L 57.6 119.424 
L 57.6 119.727377 
z
" clip-path="url(#pcf3575332d)" style="fill: #73d056; fill-opacity: 0.75"/>
   </g>
   <g id="PathCollection_7">
    <path d="M 61.207273 72.636479 
L 64.814545 72.742788 
L 68.421818 72.842755 
L 72.029091 72.93639 
L 75.636364 73.023705 
L 79.243636 73.104713 
L 82.850909 73.179426 
L 86.458182 73.247854 
L 90.065455 73.31001 
L 93.672727 73.365905 
L 97.28 73.415551 
L 100.887273 73.458959 
L 104.494545 73.496141 
L 108.101818 73.527108 
L 111.709091 73.551872 
L 115.316364 73.570444 
L 118.923636 73.582835 
L 122.530909 73.589057 
L 126.138182 73.58912 
L 129.745455 73.583036 
L 133.352727 73.570816 
L 136.96 73.552471 
L 140.567273 73.528012 
L 144.174545 73.49745 
L 147.781818 73.460796 
L 151.389091 73.41806 
L 154.996364 73.369255 
L 158.603636 73.314389 
L 162.210909 73.253475 
L 165.818182 73.186522 
L 169.425455 73.113542 
L 173.032727 73.034545 
L 176.64 72.949541 
L 180.247273 72.858542 
L 183.854545 72.761557 
L 187.461818 72.658597 
L 191.069091 72.549673 
L 194.676364 72.434794 
L 198.283636 72.313971 
L 201.890909 72.187215 
L 205.498182 72.054535 
L 209.105455 71.915941 
L 212.712727 71.771445 
L 216.32 71.621055 
L 219.927273 71.464782 
L 223.534545 71.302636 
L 227.141818 71.134627 
L 229.104421 71.04 
L 230.749091 70.960657 
L 234.356364 70.780706 
L 237.963636 70.594915 
L 241.570909 70.403293 
L 245.178182 70.205849 
L 248.785455 70.002593 
L 252.392727 69.793536 
L 256 69.578686 
L 259.607273 69.358054 
L 263.214545 69.131649 
L 266.821818 68.89948 
L 270.429091 68.661557 
L 274.036364 68.41789 
L 274.988871 68.352 
L 277.643636 68.168231 
L 281.250909 67.912747 
L 284.858182 67.65154 
L 288.465455 67.384618 
L 292.072727 67.111992 
L 295.68 66.83367 
L 299.287273 66.549662 
L 302.894545 66.259977 
L 306.501818 65.964624 
L 310.10444 65.664 
L 310.109091 65.663612 
L 313.716364 65.35651 
L 317.323636 65.04376 
L 320.930909 64.725372 
L 324.538182 64.401355 
L 328.145455 64.071717 
L 331.752727 63.736468 
L 335.36 63.395616 
L 338.967273 63.049171 
L 339.716679 62.976 
L 342.574545 62.696729 
L 346.181818 62.338596 
L 349.789091 61.974888 
L 353.396364 61.605616 
L 357.003636 61.230788 
L 360.610909 60.850412 
L 364.218182 60.464497 
L 365.844107 60.288 
L 367.825455 60.072725 
L 371.432727 59.675157 
L 375.04 59.272069 
L 378.647273 58.86347 
L 382.254545 58.449368 
L 385.861818 58.029773 
L 389.469091 57.604693 
L 389.508387 57.6 
L 393.076364 57.173471 
L 396.683636 56.736767 
L 400.290909 56.294597 
L 403.898182 55.846969 
L 407.505455 55.393891 
L 411.112727 54.935373 
L 411.294358 54.912 
L 414.72 54.470715 
L 414.72 52.224 
L 414.72 49.536 
L 414.72 46.848 
L 414.72 44.16 
L 414.72 41.472 
L 411.112727 41.472 
L 407.505455 41.472 
L 403.898182 41.472 
L 400.290909 41.472 
L 396.683636 41.472 
L 393.076364 41.472 
L 389.469091 41.472 
L 385.861818 41.472 
L 382.254545 41.472 
L 378.647273 41.472 
L 375.04 41.472 
L 371.432727 41.472 
L 367.825455 41.472 
L 364.218182 41.472 
L 360.610909 41.472 
L 357.003636 41.472 
L 353.396364 41.472 
L 349.789091 41.472 
L 346.181818 41.472 
L 342.574545 41.472 
L 338.967273 41.472 
L 335.36 41.472 
L 331.752727 41.472 
L 328.145455 41.472 
L 324.538182 41.472 
L 320.930909 41.472 
L 317.323636 41.472 
L 313.716364 41.472 
L 310.109091 41.472 
L 306.501818 41.472 
L 302.894545 41.472 
L 299.287273 41.472 
L 295.68 41.472 
L 292.072727 41.472 
L 288.465455 41.472 
L 284.858182 41.472 
L 281.250909 41.472 
L 277.643636 41.472 
L 274.036364 41.472 
L 270.429091 41.472 
L 266.821818 41.472 
L 263.214545 41.472 
L 259.607273 41.472 
L 256 41.472 
L 252.392727 41.472 
L 248.785455 41.472 
L 245.178182 41.472 
L 241.570909 41.472 
L 237.963636 41.472 
L 234.356364 41.472 
L 230.749091 41.472 
L 227.141818 41.472 
L 223.534545 41.472 
L 219.927273 41.472 
L 216.32 41.472 
L 212.712727 41.472 
L 209.105455 41.472 
L 205.498182 41.472 
L 201.890909 41.472 
L 198.283636 41.472 
L 194.676364 41.472 
L 191.069091 41.472 
L 187.461818 41.472 
L 183.854545 41.472 
L 180.247273 41.472 
L 176.64 41.472 
L 173.032727 41.472 
L 169.425455 41.472 
L 165.818182 41.472 
L 162.210909 41.472 
L 158.603636 41.472 
L 154.996364 41.472 
L 151.389091 41.472 
L 147.781818 41.472 
L 144.174545 41.472 
L 140.567273 41.472 
L 136.96 41.472 
L 133.352727 41.472 
L 129.745455 41.472 
L 126.138182 41.472 
L 122.530909 41.472 
L 118.923636 41.472 
L 115.316364 41.472 
L 111.709091 41.472 
L 108.101818 41.472 
L 104.494545 41.472 
L 100.887273 41.472 
L 97.28 41.472 
L 93.672727 41.472 
L 90.065455 41.472 
L 86.458182 41.472 
L 82.850909 41.472 
L 79.243636 41.472 
L 75.636364 41.472 
L 72.029091 41.472 
L 68.421818 41.472 
L 64.814545 41.472 
L 61.207273 41.472 
L 57.6 41.472 
L 57.6 44.16 
L 57.6 46.848 
L 57.6 49.536 
L 57.6 52.224 
L 57.6 54.912 
L 57.6 57.6 
L 57.6 60.288 
L 57.6 62.976 
L 57.6 65.664 
L 57.6 68.352 
L 57.6 71.04 
L 57.6 72.523814 
z
" clip-path="url(#pcf3575332d)" style="fill: #d0e11c; fill-opacity: 0.75"/>
   </g>
   <g id="matplotlib.axis_1">
    <g id="xtick_1">
     <g id="line2d_1">
      <defs>
       <path id="m5cc25039be" d="M 0 0 
L 0 3.5 
" style="stroke: #000000; stroke-width: 0.8"/>
      </defs>
      <g>
       <use xlink:href="#m5cc25039be" x="117.804183" y="307.584" style="stroke: #000000; stroke-width: 0.8"/>
      </g>
     </g>
     <g id="text_1">
      <!-- 5 -->
      <g transform="translate(114.622933 322.182437) scale(0.1 -0.1)">
       <defs>
        <path id="DejaVuSans-35" d="M 691 4666 
L 3169 4666 
L 3169 4134 
L 1269 4134 
L 1269 2991 
Q 1406 3038 1543 3061 
Q 1681 3084 1819 3084 
Q 2600 3084 3056 2656 
Q 3513 2228 3513 1497 
Q 3513 744 3044 326 
Q 2575 -91 1722 -91 
Q 1428 -91 1123 -41 
Q 819 9 494 109 
L 494 744 
Q 775 591 1075 516 
Q 1375 441 1709 441 
Q 2250 441 2565 725 
Q 2881 1009 2881 1497 
Q 2881 1984 2565 2268 
Q 2250 2553 1709 2553 
Q 1456 2553 1204 2497 
Q 953 2441 691 2322 
L 691 4666 
z
" transform="scale(0.015625)"/>
       </defs>
       <use xlink:href="#DejaVuSans-35"/>
      </g>
     </g>
    </g>
    <g id="xtick_2">
     <g id="line2d_2">
      <g>
       <use xlink:href="#m5cc25039be" x="191.10949" y="307.584" style="stroke: #000000; stroke-width: 0.8"/>
      </g>
     </g>
     <g id="text_2">
      <!-- 10 -->
      <g transform="translate(184.74699 322.182437) scale(0.1 -0.1)">
       <defs>
        <path id="DejaVuSans-31" d="M 794 531 
L 1825 531 
L 1825 4091 
L 703 3866 
L 703 4441 
L 1819 4666 
L 2450 4666 
L 2450 531 
L 3481 531 
L 3481 0 
L 794 0 
L 794 531 
z
" transform="scale(0.015625)"/>
        <path id="DejaVuSans-30" d="M 2034 4250 
Q 1547 4250 1301 3770 
Q 1056 3291 1056 2328 
Q 1056 1369 1301 889 
Q 1547 409 2034 409 
Q 2525 409 2770 889 
Q 3016 1369 3016 2328 
Q 3016 3291 2770 3770 
Q 2525 4250 2034 4250 
z
M 2034 4750 
Q 2819 4750 3233 4129 
Q 3647 3509 3647 2328 
Q 3647 1150 3233 529 
Q 2819 -91 2034 -91 
Q 1250 -91 836 529 
Q 422 1150 422 2328 
Q 422 3509 836 4129 
Q 1250 4750 2034 4750 
z
" transform="scale(0.015625)"/>
       </defs>
       <use xlink:href="#DejaVuSans-31"/>
       <use xlink:href="#DejaVuSans-30" x="63.623047"/>
      </g>
     </g>
    </g>
    <g id="xtick_3">
     <g id="line2d_3">
      <g>
       <use xlink:href="#m5cc25039be" x="264.414798" y="307.584" style="stroke: #000000; stroke-width: 0.8"/>
      </g>
     </g>
     <g id="text_3">
      <!-- 15 -->
      <g transform="translate(258.052298 322.182437) scale(0.1 -0.1)">
       <use xlink:href="#DejaVuSans-31"/>
       <use xlink:href="#DejaVuSans-35" x="63.623047"/>
      </g>
     </g>
    </g>
    <g id="xtick_4">
     <g id="line2d_4">
      <g>
       <use xlink:href="#m5cc25039be" x="337.720105" y="307.584" style="stroke: #000000; stroke-width: 0.8"/>
      </g>
     </g>
     <g id="text_4">
      <!-- 20 -->
      <g transform="translate(331.357605 322.182437) scale(0.1 -0.1)">
       <defs>
        <path id="DejaVuSans-32" d="M 1228 531 
L 3431 531 
L 3431 0 
L 469 0 
L 469 531 
Q 828 903 1448 1529 
Q 2069 2156 2228 2338 
Q 2531 2678 2651 2914 
Q 2772 3150 2772 3378 
Q 2772 3750 2511 3984 
Q 2250 4219 1831 4219 
Q 1534 4219 1204 4116 
Q 875 4013 500 3803 
L 500 4441 
Q 881 4594 1212 4672 
Q 1544 4750 1819 4750 
Q 2544 4750 2975 4387 
Q 3406 4025 3406 3419 
Q 3406 3131 3298 2873 
Q 3191 2616 2906 2266 
Q 2828 2175 2409 1742 
Q 1991 1309 1228 531 
z
" transform="scale(0.015625)"/>
       </defs>
       <use xlink:href="#DejaVuSans-32"/>
       <use xlink:href="#DejaVuSans-30" x="63.623047"/>
      </g>
     </g>
    </g>
    <g id="xtick_5">
     <g id="line2d_5">
      <g>
       <use xlink:href="#m5cc25039be" x="411.025413" y="307.584" style="stroke: #000000; stroke-width: 0.8"/>
      </g>
     </g>
     <g id="text_5">
      <!-- 25 -->
      <g transform="translate(404.662913 322.182437) scale(0.1 -0.1)">
       <use xlink:href="#DejaVuSans-32"/>
       <use xlink:href="#DejaVuSans-35" x="63.623047"/>
      </g>
     </g>
    </g>
    <g id="text_6">
     <!-- GHG Emissions -->
     <g transform="translate(198.212344 335.860562) scale(0.1 -0.1)">
      <defs>
       <path id="DejaVuSans-47" d="M 3809 666 
L 3809 1919 
L 2778 1919 
L 2778 2438 
L 4434 2438 
L 4434 434 
Q 4069 175 3628 42 
Q 3188 -91 2688 -91 
Q 1594 -91 976 548 
Q 359 1188 359 2328 
Q 359 3472 976 4111 
Q 1594 4750 2688 4750 
Q 3144 4750 3555 4637 
Q 3966 4525 4313 4306 
L 4313 3634 
Q 3963 3931 3569 4081 
Q 3175 4231 2741 4231 
Q 1884 4231 1454 3753 
Q 1025 3275 1025 2328 
Q 1025 1384 1454 906 
Q 1884 428 2741 428 
Q 3075 428 3337 486 
Q 3600 544 3809 666 
z
" transform="scale(0.015625)"/>
       <path id="DejaVuSans-48" d="M 628 4666 
L 1259 4666 
L 1259 2753 
L 3553 2753 
L 3553 4666 
L 4184 4666 
L 4184 0 
L 3553 0 
L 3553 2222 
L 1259 2222 
L 1259 0 
L 628 0 
L 628 4666 
z
" transform="scale(0.015625)"/>
       <path id="DejaVuSans-20" transform="scale(0.015625)"/>
       <path id="DejaVuSans-45" d="M 628 4666 
L 3578 4666 
L 3578 4134 
L 1259 4134 
L 1259 2753 
L 3481 2753 
L 3481 2222 
L 1259 2222 
L 1259 531 
L 3634 531 
L 3634 0 
L 628 0 
L 628 4666 
z
" transform="scale(0.015625)"/>
       <path id="DejaVuSans-6d" d="M 3328 2828 
Q 3544 3216 3844 3400 
Q 4144 3584 4550 3584 
Q 5097 3584 5394 3201 
Q 5691 2819 5691 2113 
L 5691 0 
L 5113 0 
L 5113 2094 
Q 5113 2597 4934 2840 
Q 4756 3084 4391 3084 
Q 3944 3084 3684 2787 
Q 3425 2491 3425 1978 
L 3425 0 
L 2847 0 
L 2847 2094 
Q 2847 2600 2669 2842 
Q 2491 3084 2119 3084 
Q 1678 3084 1418 2786 
Q 1159 2488 1159 1978 
L 1159 0 
L 581 0 
L 581 3500 
L 1159 3500 
L 1159 2956 
Q 1356 3278 1631 3431 
Q 1906 3584 2284 3584 
Q 2666 3584 2933 3390 
Q 3200 3197 3328 2828 
z
" transform="scale(0.015625)"/>
       <path id="DejaVuSans-69" d="M 603 3500 
L 1178 3500 
L 1178 0 
L 603 0 
L 603 3500 
z
M 603 4863 
L 1178 4863 
L 1178 4134 
L 603 4134 
L 603 4863 
z
" transform="scale(0.015625)"/>
       <path id="DejaVuSans-73" d="M 2834 3397 
L 2834 2853 
Q 2591 2978 2328 3040 
Q 2066 3103 1784 3103 
Q 1356 3103 1142 2972 
Q 928 2841 928 2578 
Q 928 2378 1081 2264 
Q 1234 2150 1697 2047 
L 1894 2003 
Q 2506 1872 2764 1633 
Q 3022 1394 3022 966 
Q 3022 478 2636 193 
Q 2250 -91 1575 -91 
Q 1294 -91 989 -36 
Q 684 19 347 128 
L 347 722 
Q 666 556 975 473 
Q 1284 391 1588 391 
Q 1994 391 2212 530 
Q 2431 669 2431 922 
Q 2431 1156 2273 1281 
Q 2116 1406 1581 1522 
L 1381 1569 
Q 847 1681 609 1914 
Q 372 2147 372 2553 
Q 372 3047 722 3315 
Q 1072 3584 1716 3584 
Q 2034 3584 2315 3537 
Q 2597 3491 2834 3397 
z
" transform="scale(0.015625)"/>
       <path id="DejaVuSans-6f" d="M 1959 3097 
Q 1497 3097 1228 2736 
Q 959 2375 959 1747 
Q 959 1119 1226 758 
Q 1494 397 1959 397 
Q 2419 397 2687 759 
Q 2956 1122 2956 1747 
Q 2956 2369 2687 2733 
Q 2419 3097 1959 3097 
z
M 1959 3584 
Q 2709 3584 3137 3096 
Q 3566 2609 3566 1747 
Q 3566 888 3137 398 
Q 2709 -91 1959 -91 
Q 1206 -91 779 398 
Q 353 888 353 1747 
Q 353 2609 779 3096 
Q 1206 3584 1959 3584 
z
" transform="scale(0.015625)"/>
       <path id="DejaVuSans-6e" d="M 3513 2113 
L 3513 0 
L 2938 0 
L 2938 2094 
Q 2938 2591 2744 2837 
Q 2550 3084 2163 3084 
Q 1697 3084 1428 2787 
Q 1159 2491 1159 1978 
L 1159 0 
L 581 0 
L 581 3500 
L 1159 3500 
L 1159 2956 
Q 1366 3272 1645 3428 
Q 1925 3584 2291 3584 
Q 2894 3584 3203 3211 
Q 3513 2838 3513 2113 
z
" transform="scale(0.015625)"/>
      </defs>
      <use xlink:href="#DejaVuSans-47"/>
      <use xlink:href="#DejaVuSans-48" x="77.490234"/>
      <use xlink:href="#DejaVuSans-47" x="152.685547"/>
      <use xlink:href="#DejaVuSans-20" x="230.175781"/>
      <use xlink:href="#DejaVuSans-45" x="261.962891"/>
      <use xlink:href="#DejaVuSans-6d" x="325.146484"/>
      <use xlink:href="#DejaVuSans-69" x="422.558594"/>
      <use xlink:href="#DejaVuSans-73" x="450.341797"/>
      <use xlink:href="#DejaVuSans-73" x="502.441406"/>
      <use xlink:href="#DejaVuSans-69" x="554.541016"/>
      <use xlink:href="#DejaVuSans-6f" x="582.324219"/>
      <use xlink:href="#DejaVuSans-6e" x="643.505859"/>
      <use xlink:href="#DejaVuSans-73" x="706.884766"/>
     </g>
    </g>
   </g>
   <g id="matplotlib.axis_2">
    <g id="ytick_1">
     <g id="line2d_6">
      <defs>
       <path id="m712fe5b5e3" d="M 0 0 
L -3.5 0 
" style="stroke: #000000; stroke-width: 0.8"/>
      </defs>
      <g>
       <use xlink:href="#m712fe5b5e3" x="57.6" y="288.91184" style="stroke: #000000; stroke-width: 0.8"/>
      </g>
     </g>
     <g id="text_7">
      <!-- 5 -->
      <g transform="translate(44.2375 292.711059) scale(0.1 -0.1)">
       <use xlink:href="#DejaVuSans-35"/>
      </g>
     </g>
    </g>
    <g id="ytick_2">
     <g id="line2d_7">
      <g>
       <use xlink:href="#m712fe5b5e3" x="57.6" y="258.745247" style="stroke: #000000; stroke-width: 0.8"/>
      </g>
     </g>
     <g id="text_8">
      <!-- 10 -->
      <g transform="translate(37.875 262.544466) scale(0.1 -0.1)">
       <use xlink:href="#DejaVuSans-31"/>
       <use xlink:href="#DejaVuSans-30" x="63.623047"/>
      </g>
     </g>
    </g>
    <g id="ytick_3">
     <g id="line2d_8">
      <g>
       <use xlink:href="#m712fe5b5e3" x="57.6" y="228.578654" style="stroke: #000000; stroke-width: 0.8"/>
      </g>
     </g>
     <g id="text_9">
      <!-- 15 -->
      <g transform="translate(37.875 232.377872) scale(0.1 -0.1)">
       <use xlink:href="#DejaVuSans-31"/>
       <use xlink:href="#DejaVuSans-35" x="63.623047"/>
      </g>
     </g>
    </g>
    <g id="ytick_4">
     <g id="line2d_9">
      <g>
       <use xlink:href="#m712fe5b5e3" x="57.6" y="198.41206" style="stroke: #000000; stroke-width: 0.8"/>
      </g>
     </g>
     <g id="text_10">
      <!-- 20 -->
      <g transform="translate(37.875 202.211279) scale(0.1 -0.1)">
       <use xlink:href="#DejaVuSans-32"/>
       <use xlink:href="#DejaVuSans-30" x="63.623047"/>
      </g>
     </g>
    </g>
    <g id="ytick_5">
     <g id="line2d_10">
      <g>
       <use xlink:href="#m712fe5b5e3" x="57.6" y="168.245467" style="stroke: #000000; stroke-width: 0.8"/>
      </g>
     </g>
     <g id="text_11">
      <!-- 25 -->
      <g transform="translate(37.875 172.044686) scale(0.1 -0.1)">
       <use xlink:href="#DejaVuSans-32"/>
       <use xlink:href="#DejaVuSans-35" x="63.623047"/>
      </g>
     </g>
    </g>
    <g id="ytick_6">
     <g id="line2d_11">
      <g>
       <use xlink:href="#m712fe5b5e3" x="57.6" y="138.078874" style="stroke: #000000; stroke-width: 0.8"/>
      </g>
     </g>
     <g id="text_12">
      <!-- 30 -->
      <g transform="translate(37.875 141.878092) scale(0.1 -0.1)">
       <defs>
        <path id="DejaVuSans-33" d="M 2597 2516 
Q 3050 2419 3304 2112 
Q 3559 1806 3559 1356 
Q 3559 666 3084 287 
Q 2609 -91 1734 -91 
Q 1441 -91 1130 -33 
Q 819 25 488 141 
L 488 750 
Q 750 597 1062 519 
Q 1375 441 1716 441 
Q 2309 441 2620 675 
Q 2931 909 2931 1356 
Q 2931 1769 2642 2001 
Q 2353 2234 1838 2234 
L 1294 2234 
L 1294 2753 
L 1863 2753 
Q 2328 2753 2575 2939 
Q 2822 3125 2822 3475 
Q 2822 3834 2567 4026 
Q 2313 4219 1838 4219 
Q 1578 4219 1281 4162 
Q 984 4106 628 3988 
L 628 4550 
Q 988 4650 1302 4700 
Q 1616 4750 1894 4750 
Q 2613 4750 3031 4423 
Q 3450 4097 3450 3541 
Q 3450 3153 3228 2886 
Q 3006 2619 2597 2516 
z
" transform="scale(0.015625)"/>
       </defs>
       <use xlink:href="#DejaVuSans-33"/>
       <use xlink:href="#DejaVuSans-30" x="63.623047"/>
      </g>
     </g>
    </g>
    <g id="ytick_7">
     <g id="line2d_12">
      <g>
       <use xlink:href="#m712fe5b5e3" x="57.6" y="107.91228" style="stroke: #000000; stroke-width: 0.8"/>
      </g>
     </g>
     <g id="text_13">
      <!-- 35 -->
      <g transform="translate(37.875 111.711499) scale(0.1 -0.1)">
       <use xlink:href="#DejaVuSans-33"/>
       <use xlink:href="#DejaVuSans-35" x="63.623047"/>
      </g>
     </g>
    </g>
    <g id="ytick_8">
     <g id="line2d_13">
      <g>
       <use xlink:href="#m712fe5b5e3" x="57.6" y="77.745687" style="stroke: #000000; stroke-width: 0.8"/>
      </g>
     </g>
     <g id="text_14">
      <!-- 40 -->
      <g transform="translate(37.875 81.544906) scale(0.1 -0.1)">
       <defs>
        <path id="DejaVuSans-34" d="M 2419 4116 
L 825 1625 
L 2419 1625 
L 2419 4116 
z
M 2253 4666 
L 3047 4666 
L 3047 1625 
L 3713 1625 
L 3713 1100 
L 3047 1100 
L 3047 0 
L 2419 0 
L 2419 1100 
L 313 1100 
L 313 1709 
L 2253 4666 
z
" transform="scale(0.015625)"/>
       </defs>
       <use xlink:href="#DejaVuSans-34"/>
       <use xlink:href="#DejaVuSans-30" x="63.623047"/>
      </g>
     </g>
    </g>
    <g id="ytick_9">
     <g id="line2d_14">
      <g>
       <use xlink:href="#m712fe5b5e3" x="57.6" y="47.579094" style="stroke: #000000; stroke-width: 0.8"/>
      </g>
     </g>
     <g id="text_15">
      <!-- 45 -->
      <g transform="translate(37.875 51.378312) scale(0.1 -0.1)">
       <use xlink:href="#DejaVuSans-34"/>
       <use xlink:href="#DejaVuSans-35" x="63.623047"/>
      </g>
     </g>
    </g>
    <g id="text_16">
     <!-- Fish &amp; Seafood Consumption -->
     <g transform="translate(31.795312 246.353) rotate(-90) scale(0.1 -0.1)">
      <defs>
       <path id="DejaVuSans-46" d="M 628 4666 
L 3309 4666 
L 3309 4134 
L 1259 4134 
L 1259 2759 
L 3109 2759 
L 3109 2228 
L 1259 2228 
L 1259 0 
L 628 0 
L 628 4666 
z
" transform="scale(0.015625)"/>
       <path id="DejaVuSans-68" d="M 3513 2113 
L 3513 0 
L 2938 0 
L 2938 2094 
Q 2938 2591 2744 2837 
Q 2550 3084 2163 3084 
Q 1697 3084 1428 2787 
Q 1159 2491 1159 1978 
L 1159 0 
L 581 0 
L 581 4863 
L 1159 4863 
L 1159 2956 
Q 1366 3272 1645 3428 
Q 1925 3584 2291 3584 
Q 2894 3584 3203 3211 
Q 3513 2838 3513 2113 
z
" transform="scale(0.015625)"/>
       <path id="DejaVuSans-26" d="M 1556 2509 
Q 1272 2256 1139 2004 
Q 1006 1753 1006 1478 
Q 1006 1022 1337 719 
Q 1669 416 2169 416 
Q 2466 416 2725 514 
Q 2984 613 3213 813 
L 1556 2509 
z
M 1997 2859 
L 3584 1234 
Q 3769 1513 3872 1830 
Q 3975 2147 3994 2503 
L 4575 2503 
Q 4538 2091 4375 1687 
Q 4213 1284 3922 891 
L 4794 0 
L 4006 0 
L 3559 459 
Q 3234 181 2878 45 
Q 2522 -91 2113 -91 
Q 1359 -91 881 339 
Q 403 769 403 1441 
Q 403 1841 612 2192 
Q 822 2544 1241 2853 
Q 1091 3050 1012 3245 
Q 934 3441 934 3628 
Q 934 4134 1281 4442 
Q 1628 4750 2203 4750 
Q 2463 4750 2720 4694 
Q 2978 4638 3244 4525 
L 3244 3956 
Q 2972 4103 2725 4179 
Q 2478 4256 2266 4256 
Q 1938 4256 1733 4082 
Q 1528 3909 1528 3634 
Q 1528 3475 1620 3314 
Q 1713 3153 1997 2859 
z
" transform="scale(0.015625)"/>
       <path id="DejaVuSans-53" d="M 3425 4513 
L 3425 3897 
Q 3066 4069 2747 4153 
Q 2428 4238 2131 4238 
Q 1616 4238 1336 4038 
Q 1056 3838 1056 3469 
Q 1056 3159 1242 3001 
Q 1428 2844 1947 2747 
L 2328 2669 
Q 3034 2534 3370 2195 
Q 3706 1856 3706 1288 
Q 3706 609 3251 259 
Q 2797 -91 1919 -91 
Q 1588 -91 1214 -16 
Q 841 59 441 206 
L 441 856 
Q 825 641 1194 531 
Q 1563 422 1919 422 
Q 2459 422 2753 634 
Q 3047 847 3047 1241 
Q 3047 1584 2836 1778 
Q 2625 1972 2144 2069 
L 1759 2144 
Q 1053 2284 737 2584 
Q 422 2884 422 3419 
Q 422 4038 858 4394 
Q 1294 4750 2059 4750 
Q 2388 4750 2728 4690 
Q 3069 4631 3425 4513 
z
" transform="scale(0.015625)"/>
       <path id="DejaVuSans-65" d="M 3597 1894 
L 3597 1613 
L 953 1613 
Q 991 1019 1311 708 
Q 1631 397 2203 397 
Q 2534 397 2845 478 
Q 3156 559 3463 722 
L 3463 178 
Q 3153 47 2828 -22 
Q 2503 -91 2169 -91 
Q 1331 -91 842 396 
Q 353 884 353 1716 
Q 353 2575 817 3079 
Q 1281 3584 2069 3584 
Q 2775 3584 3186 3129 
Q 3597 2675 3597 1894 
z
M 3022 2063 
Q 3016 2534 2758 2815 
Q 2500 3097 2075 3097 
Q 1594 3097 1305 2825 
Q 1016 2553 972 2059 
L 3022 2063 
z
" transform="scale(0.015625)"/>
       <path id="DejaVuSans-61" d="M 2194 1759 
Q 1497 1759 1228 1600 
Q 959 1441 959 1056 
Q 959 750 1161 570 
Q 1363 391 1709 391 
Q 2188 391 2477 730 
Q 2766 1069 2766 1631 
L 2766 1759 
L 2194 1759 
z
M 3341 1997 
L 3341 0 
L 2766 0 
L 2766 531 
Q 2569 213 2275 61 
Q 1981 -91 1556 -91 
Q 1019 -91 701 211 
Q 384 513 384 1019 
Q 384 1609 779 1909 
Q 1175 2209 1959 2209 
L 2766 2209 
L 2766 2266 
Q 2766 2663 2505 2880 
Q 2244 3097 1772 3097 
Q 1472 3097 1187 3025 
Q 903 2953 641 2809 
L 641 3341 
Q 956 3463 1253 3523 
Q 1550 3584 1831 3584 
Q 2591 3584 2966 3190 
Q 3341 2797 3341 1997 
z
" transform="scale(0.015625)"/>
       <path id="DejaVuSans-66" d="M 2375 4863 
L 2375 4384 
L 1825 4384 
Q 1516 4384 1395 4259 
Q 1275 4134 1275 3809 
L 1275 3500 
L 2222 3500 
L 2222 3053 
L 1275 3053 
L 1275 0 
L 697 0 
L 697 3053 
L 147 3053 
L 147 3500 
L 697 3500 
L 697 3744 
Q 697 4328 969 4595 
Q 1241 4863 1831 4863 
L 2375 4863 
z
" transform="scale(0.015625)"/>
       <path id="DejaVuSans-64" d="M 2906 2969 
L 2906 4863 
L 3481 4863 
L 3481 0 
L 2906 0 
L 2906 525 
Q 2725 213 2448 61 
Q 2172 -91 1784 -91 
Q 1150 -91 751 415 
Q 353 922 353 1747 
Q 353 2572 751 3078 
Q 1150 3584 1784 3584 
Q 2172 3584 2448 3432 
Q 2725 3281 2906 2969 
z
M 947 1747 
Q 947 1113 1208 752 
Q 1469 391 1925 391 
Q 2381 391 2643 752 
Q 2906 1113 2906 1747 
Q 2906 2381 2643 2742 
Q 2381 3103 1925 3103 
Q 1469 3103 1208 2742 
Q 947 2381 947 1747 
z
" transform="scale(0.015625)"/>
       <path id="DejaVuSans-43" d="M 4122 4306 
L 4122 3641 
Q 3803 3938 3442 4084 
Q 3081 4231 2675 4231 
Q 1875 4231 1450 3742 
Q 1025 3253 1025 2328 
Q 1025 1406 1450 917 
Q 1875 428 2675 428 
Q 3081 428 3442 575 
Q 3803 722 4122 1019 
L 4122 359 
Q 3791 134 3420 21 
Q 3050 -91 2638 -91 
Q 1578 -91 968 557 
Q 359 1206 359 2328 
Q 359 3453 968 4101 
Q 1578 4750 2638 4750 
Q 3056 4750 3426 4639 
Q 3797 4528 4122 4306 
z
" transform="scale(0.015625)"/>
       <path id="DejaVuSans-75" d="M 544 1381 
L 544 3500 
L 1119 3500 
L 1119 1403 
Q 1119 906 1312 657 
Q 1506 409 1894 409 
Q 2359 409 2629 706 
Q 2900 1003 2900 1516 
L 2900 3500 
L 3475 3500 
L 3475 0 
L 2900 0 
L 2900 538 
Q 2691 219 2414 64 
Q 2138 -91 1772 -91 
Q 1169 -91 856 284 
Q 544 659 544 1381 
z
M 1991 3584 
L 1991 3584 
z
" transform="scale(0.015625)"/>
       <path id="DejaVuSans-70" d="M 1159 525 
L 1159 -1331 
L 581 -1331 
L 581 3500 
L 1159 3500 
L 1159 2969 
Q 1341 3281 1617 3432 
Q 1894 3584 2278 3584 
Q 2916 3584 3314 3078 
Q 3713 2572 3713 1747 
Q 3713 922 3314 415 
Q 2916 -91 2278 -91 
Q 1894 -91 1617 61 
Q 1341 213 1159 525 
z
M 3116 1747 
Q 3116 2381 2855 2742 
Q 2594 3103 2138 3103 
Q 1681 3103 1420 2742 
Q 1159 2381 1159 1747 
Q 1159 1113 1420 752 
Q 1681 391 2138 391 
Q 2594 391 2855 752 
Q 3116 1113 3116 1747 
z
" transform="scale(0.015625)"/>
       <path id="DejaVuSans-74" d="M 1172 4494 
L 1172 3500 
L 2356 3500 
L 2356 3053 
L 1172 3053 
L 1172 1153 
Q 1172 725 1289 603 
Q 1406 481 1766 481 
L 2356 481 
L 2356 0 
L 1766 0 
Q 1100 0 847 248 
Q 594 497 594 1153 
L 594 3053 
L 172 3053 
L 172 3500 
L 594 3500 
L 594 4494 
L 1172 4494 
z
" transform="scale(0.015625)"/>
      </defs>
      <use xlink:href="#DejaVuSans-46"/>
      <use xlink:href="#DejaVuSans-69" x="50.269531"/>
      <use xlink:href="#DejaVuSans-73" x="78.052734"/>
      <use xlink:href="#DejaVuSans-68" x="130.152344"/>
      <use xlink:href="#DejaVuSans-20" x="193.53125"/>
      <use xlink:href="#DejaVuSans-26" x="225.318359"/>
      <use xlink:href="#DejaVuSans-20" x="303.296875"/>
      <use xlink:href="#DejaVuSans-53" x="335.083984"/>
      <use xlink:href="#DejaVuSans-65" x="398.560547"/>
      <use xlink:href="#DejaVuSans-61" x="460.083984"/>
      <use xlink:href="#DejaVuSans-66" x="521.363281"/>
      <use xlink:href="#DejaVuSans-6f" x="556.568359"/>
      <use xlink:href="#DejaVuSans-6f" x="617.75"/>
      <use xlink:href="#DejaVuSans-64" x="678.931641"/>
      <use xlink:href="#DejaVuSans-20" x="742.408203"/>
      <use xlink:href="#DejaVuSans-43" x="774.195312"/>
      <use xlink:href="#DejaVuSans-6f" x="844.019531"/>
      <use xlink:href="#DejaVuSans-6e" x="905.201172"/>
      <use xlink:href="#DejaVuSans-73" x="968.580078"/>
      <use xlink:href="#DejaVuSans-75" x="1020.679688"/>
      <use xlink:href="#DejaVuSans-6d" x="1084.058594"/>
      <use xlink:href="#DejaVuSans-70" x="1181.470703"/>
      <use xlink:href="#DejaVuSans-74" x="1244.947266"/>
      <use xlink:href="#DejaVuSans-69" x="1284.15625"/>
      <use xlink:href="#DejaVuSans-6f" x="1311.939453"/>
      <use xlink:href="#DejaVuSans-6e" x="1373.121094"/>
     </g>
    </g>
   </g>
   <g id="PathCollection_8"/>
   <g id="PathCollection_9">
    <path d="M 141.465558 307.584 
L 144.174545 307.397963 
L 147.781818 307.145235 
L 151.389091 306.887559 
L 154.996364 306.624941 
L 158.603636 306.357387 
L 162.210909 306.084902 
L 165.818182 305.80749 
L 169.425455 305.525157 
L 173.032727 305.237908 
L 176.64 304.945747 
L 177.2437 304.896 
L 180.247273 304.649367 
L 183.854545 304.348238 
L 187.461818 304.042226 
L 191.069091 303.731337 
L 194.676364 303.415575 
L 198.283636 303.094945 
L 201.890909 302.76945 
L 205.498182 302.439096 
L 207.984526 302.208 
L 209.105455 302.104173 
L 212.712727 301.765047 
L 216.32 301.421089 
L 219.927273 301.072303 
L 223.534545 300.718693 
L 227.141818 300.360263 
L 230.749091 299.997016 
L 234.356364 299.628958 
L 235.409988 299.52 
L 237.963636 299.256809 
L 241.570909 298.880165 
L 245.178182 298.498735 
L 248.785455 298.112522 
L 252.392727 297.72153 
L 256 297.325763 
L 259.607273 296.925224 
L 260.436587 296.832 
L 263.214545 296.520755 
L 266.821818 296.111785 
L 270.429091 295.698068 
L 274.036364 295.279606 
L 277.643636 294.856404 
L 281.250909 294.428464 
L 283.622066 294.144 
L 284.858182 293.996183 
L 288.465455 293.559939 
L 292.072727 293.118981 
L 295.68 292.673312 
L 299.287273 292.222934 
L 302.894545 291.767851 
L 305.340765 291.456 
L 306.501818 291.308453 
L 308.050499 291.109563 
" clip-path="url(#pcf3575332d)" style="fill: none; stroke: #000000; stroke-width: 0.5"/>
    <path d="M 343.639591 286.321163 
L 345.349705 286.08 
L 346.181818 285.963009 
L 349.789091 285.451031 
L 353.396364 284.934425 
L 357.003636 284.413193 
L 360.610909 283.887338 
L 363.979139 283.392 
L 364.218182 283.35695 
L 367.825455 282.823207 
L 371.432727 282.284862 
L 375.04 281.741914 
L 378.647273 281.194368 
L 381.850798 280.704 
L 382.254545 280.642377 
L 385.861818 280.087027 
L 389.469091 279.527098 
L 393.076364 278.96259 
L 396.683636 278.393506 
L 399.057155 278.016 
L 400.290909 277.82033 
L 403.898182 277.243524 
L 407.505455 276.662161 
L 411.112727 276.076242 
L 414.72 275.485768 
" clip-path="url(#pcf3575332d)" style="fill: none; stroke: #000000; stroke-width: 0.5"/>
   </g>
   <g id="PathCollection_10">
    <path d="M 57.6 261.936689 
L 59.807916 261.888 
L 61.207273 261.857234 
L 64.814545 261.772626 
L 68.421818 261.682772 
L 72.029091 261.587683 
L 75.636364 261.487365 
L 79.243636 261.381827 
L 82.850909 261.271076 
L 86.458182 261.155121 
L 90.065455 261.033969 
L 93.672727 260.907629 
L 97.28 260.776107 
L 100.887273 260.639411 
L 104.494545 260.49755 
L 108.101818 260.350529 
L 111.709091 260.198358 
L 115.316364 260.041042 
L 118.923636 259.878589 
L 122.530909 259.711007 
L 126.138182 259.538302 
L 129.745455 259.360482 
L 132.90975 259.2 
L 133.352727 259.177598 
L 136.96 258.989945 
L 140.567273 258.797208 
L 144.174545 258.599394 
L 147.781818 258.396508 
L 151.389091 258.188559 
L 154.996364 257.975552 
L 158.603636 257.757494 
L 162.210909 257.534392 
L 165.818182 257.306251 
L 169.425455 257.073078 
L 173.032727 256.83488 
L 176.64 256.591662 
L 177.797031 256.512 
L 180.247273 256.343764 
L 183.854545 256.091027 
L 187.461818 255.833299 
L 191.069091 255.570587 
L 194.676364 255.302895 
L 198.283636 255.03023 
L 201.890909 254.752598 
L 205.498182 254.470003 
L 209.105455 254.182453 
L 212.712727 253.889952 
L 213.512116 253.824 
L 216.32 253.592957 
L 219.927273 253.291162 
L 223.534545 252.984442 
L 227.141818 252.672805 
L 230.749091 252.356254 
L 230.905676 252.3423 
" clip-path="url(#pcf3575332d)" style="fill: none; stroke: #000000; stroke-width: 0.5"/>
    <path d="M 266.654156 248.942864 
L 266.821818 248.925914 
L 270.429091 248.556369 
L 271.472773 248.448 
L 274.036364 248.182482 
L 277.643636 247.80397 
L 281.250909 247.420635 
L 284.858182 247.03248 
L 288.465455 246.63951 
L 292.072727 246.24173 
L 295.68 245.839143 
L 296.380451 245.76 
L 299.287273 245.432362 
L 302.894545 245.02094 
L 306.501818 244.604735 
L 310.109091 244.183751 
L 313.716364 243.757992 
L 317.323636 243.327462 
L 319.440156 243.072 
L 320.930909 242.892493 
L 324.538182 242.453235 
L 328.145455 242.009228 
L 331.752727 241.560476 
L 335.36 241.106984 
L 338.967273 240.648754 
L 341.029703 240.384 
L 342.574545 240.186145 
L 346.181818 239.719288 
L 349.789091 239.247716 
L 353.396364 238.771432 
L 357.003636 238.290439 
L 360.610909 237.804741 
L 361.410486 237.696 
L 364.218182 237.315011 
L 367.825455 236.820783 
L 371.432727 236.321871 
L 375.04 235.818278 
L 378.647273 235.310007 
L 380.770735 235.008 
L 382.254545 234.797425 
L 385.861818 234.2807 
L 389.469091 233.759317 
L 393.076364 233.233281 
L 396.683636 232.702592 
L 399.261356 232.32 
L 400.290909 232.167513 
L 403.898182 231.628443 
L 407.505455 231.084741 
L 411.112727 230.536411 
L 414.72 229.983454 
" clip-path="url(#pcf3575332d)" style="fill: none; stroke: #000000; stroke-width: 0.5"/>
   </g>
   <g id="PathCollection_11">
    <path d="M 57.6 213.726632 
L 61.207273 213.696311 
L 64.814545 213.660549 
L 68.421818 213.619355 
L 72.029091 213.572738 
L 75.636364 213.520708 
L 76.685022 213.504 
L 79.243636 213.463323 
L 82.850909 213.40057 
L 86.458182 213.332436 
L 90.065455 213.258931 
L 93.672727 213.180063 
L 97.28 213.095841 
L 100.887273 213.006273 
L 104.494545 212.911369 
L 108.101818 212.811136 
L 111.709091 212.705582 
L 115.316364 212.594717 
L 118.923636 212.478548 
L 122.530909 212.357084 
L 126.138182 212.230332 
L 129.745455 212.098302 
L 133.352727 211.961 
L 136.96 211.818434 
L 140.567273 211.670614 
L 144.174545 211.517545 
L 147.781818 211.359237 
L 151.389091 211.195697 
L 154.996364 211.026932 
L 158.603636 210.85295 
L 159.346981 210.816 
L 162.210909 210.67393 
L 165.818182 210.489758 
L 169.425455 210.300399 
L 173.032727 210.105859 
L 176.64 209.906146 
L 180.247273 209.701267 
L 183.854545 209.491229 
L 187.461818 209.276038 
L 191.069091 209.055703 
L 194.676364 208.830231 
L 198.283636 208.599627 
L 201.890909 208.363899 
L 205.424053 208.128 
L 205.498182 208.12306 
L 209.105455 207.877393 
L 212.712727 207.626629 
L 216.32 207.370774 
L 219.927273 207.109835 
L 223.534545 206.84382 
L 227.141818 206.572733 
L 230.749091 206.296582 
L 234.356364 206.015373 
L 234.497989 206.004134 
" clip-path="url(#pcf3575332d)" style="fill: none; stroke: #000000; stroke-width: 0.5"/>
    <path d="M 270.277029 202.943311 
L 270.429091 202.929355 
L 272.332306 202.752 
L 274.036364 202.593482 
L 277.643636 202.252833 
L 281.250909 201.907217 
L 284.858182 201.556641 
L 288.465455 201.20111 
L 292.072727 200.84063 
L 295.68 200.475206 
L 299.287273 200.104844 
L 299.679644 200.064 
L 302.894545 199.729908 
L 306.501818 199.350094 
L 310.109091 198.965366 
L 313.716364 198.575727 
L 317.323636 198.181184 
L 320.930909 197.781741 
L 324.538182 197.377404 
L 324.550553 197.376 
L 328.145455 196.968602 
L 331.752727 196.554923 
L 335.36 196.136373 
L 338.967273 195.712955 
L 342.574545 195.284675 
L 346.181818 194.851537 
L 347.528255 194.688 
L 349.789091 194.413823 
L 353.396364 193.971432 
L 357.003636 193.524204 
L 360.610909 193.072145 
L 364.218182 192.61526 
L 367.825455 192.153553 
L 369.012363 192 
L 371.432727 191.687333 
L 375.04 191.216454 
L 378.647273 190.740775 
L 382.254545 190.260299 
L 385.861818 189.775031 
L 389.270078 189.312 
L 389.469091 189.285001 
L 393.076364 188.790625 
L 396.683636 188.291477 
L 400.290909 187.787561 
L 403.898182 187.278882 
L 407.505455 186.765444 
L 408.489766 186.624 
L 411.112727 186.24759 
L 414.72 185.725119 
" clip-path="url(#pcf3575332d)" style="fill: none; stroke: #000000; stroke-width: 0.5"/>
   </g>
   <g id="PathCollection_12">
    <path d="M 57.6 166.558985 
L 61.207273 166.575705 
L 64.814545 166.586753 
L 68.421818 166.592138 
L 72.029091 166.591871 
L 75.636364 166.585961 
L 79.243636 166.574419 
L 82.850909 166.557254 
L 86.458182 166.534477 
L 90.065455 166.506096 
L 93.672727 166.472121 
L 97.28 166.432562 
L 100.887273 166.387429 
L 104.494545 166.336731 
L 108.101818 166.280477 
L 111.709091 166.218677 
L 115.316364 166.151339 
L 118.923636 166.078474 
L 122.530909 166.00009 
L 126.138182 165.916197 
L 129.745455 165.826803 
L 133.352727 165.731918 
L 136.96 165.63155 
L 140.567273 165.525708 
L 144.174545 165.414401 
L 147.781818 165.297638 
L 151.389091 165.175428 
L 152.954682 165.12 
L 154.996364 165.047808 
L 158.603636 164.914782 
L 162.210909 164.776337 
L 165.818182 164.632482 
L 169.425455 164.483224 
L 173.032727 164.328572 
L 176.64 164.168534 
L 180.247273 164.00312 
L 183.854545 163.832336 
L 187.461818 163.656191 
L 191.069091 163.474693 
L 194.676364 163.28785 
L 198.283636 163.095671 
L 201.890909 162.898162 
L 205.498182 162.695333 
L 209.105455 162.487191 
L 210.037654 162.432 
L 212.712727 162.273802 
L 216.32 162.055139 
L 219.927273 161.831188 
L 223.534545 161.601958 
L 227.141818 161.367456 
L 230.749091 161.127689 
L 234.356364 160.882665 
L 237.963636 160.632391 
L 238.09366 160.623181 
" clip-path="url(#pcf3575332d)" style="fill: none; stroke: #000000; stroke-width: 0.5"/>
    <path d="M 273.896499 157.854917 
L 274.036364 157.843198 
L 277.643636 157.535767 
L 281.250909 157.223176 
L 283.148216 157.056 
L 284.858182 156.905476 
L 288.465455 156.582682 
L 292.072727 156.25475 
L 295.68 155.921686 
L 299.287273 155.583498 
L 302.894545 155.240192 
L 306.501818 154.891774 
L 310.109091 154.538252 
L 311.821056 154.368 
L 313.716364 154.179682 
L 317.323636 153.816068 
L 320.930909 153.447372 
L 324.538182 153.073599 
L 328.145455 152.694757 
L 331.752727 152.310851 
L 335.36 151.921887 
L 337.574025 151.68 
L 338.967273 151.527908 
L 342.574545 151.128943 
L 346.181818 150.724942 
L 349.789091 150.31591 
L 353.396364 149.901856 
L 357.003636 149.482784 
L 360.610909 149.0587 
L 361.171383 148.992 
L 364.218182 148.629682 
L 367.825455 148.19568 
L 371.432727 147.756687 
L 375.04 147.312709 
L 378.647273 146.863752 
L 382.254545 146.409821 
L 383.086048 146.304 
L 385.861818 145.95098 
L 389.469091 145.487196 
L 393.076364 145.018459 
L 396.683636 144.544774 
L 400.290909 144.066148 
L 403.648798 143.616 
L 403.898182 143.582589 
L 407.505455 143.094156 
L 411.112727 142.6008 
L 414.72 142.102528 
" clip-path="url(#pcf3575332d)" style="fill: none; stroke: #000000; stroke-width: 0.5"/>
   </g>
   <g id="PathCollection_13">
    <path d="M 57.6 119.727377 
L 61.207273 119.791025 
L 64.814545 119.848703 
L 68.421818 119.900421 
L 72.029091 119.946189 
L 75.636364 119.986021 
L 79.243636 120.019924 
L 82.850909 120.047912 
L 86.458182 120.069994 
L 90.065455 120.086181 
L 93.672727 120.096483 
L 97.28 120.100911 
L 100.887273 120.099476 
L 104.494545 120.092188 
L 108.101818 120.079058 
L 111.709091 120.060095 
L 115.316364 120.035309 
L 118.923636 120.004712 
L 122.530909 119.968313 
L 126.138182 119.926123 
L 129.745455 119.878151 
L 133.352727 119.824407 
L 136.96 119.764901 
L 140.567273 119.699644 
L 144.174545 119.628645 
L 147.781818 119.551913 
L 151.389091 119.469459 
L 153.248242 119.424 
L 154.996364 119.381274 
L 158.603636 119.287363 
L 162.210909 119.187757 
L 165.818182 119.082464 
L 169.425455 118.971494 
L 173.032727 118.854857 
L 176.64 118.732562 
L 180.247273 118.604618 
L 183.854545 118.471035 
L 187.461818 118.331821 
L 191.069091 118.186987 
L 194.676364 118.036541 
L 198.283636 117.880492 
L 201.890909 117.71885 
L 205.498182 117.551623 
L 209.105455 117.37882 
L 212.712727 117.200451 
L 216.32 117.016524 
L 219.927273 116.827047 
L 221.610702 116.736 
L 223.534545 116.631982 
L 227.141818 116.431341 
L 230.749091 116.225175 
L 234.356364 116.013492 
L 237.963636 115.796302 
L 241.570909 115.573612 
L 241.691659 115.565974 
" clip-path="url(#pcf3575332d)" style="fill: none; stroke: #000000; stroke-width: 0.5"/>
    <path d="M 277.513472 113.05563 
L 277.643636 113.045622 
L 281.250909 112.762857 
L 284.858182 112.47469 
L 288.465455 112.181129 
L 292.072727 111.882183 
L 295.68 111.577859 
L 298.217096 111.36 
L 299.287273 111.268116 
L 302.894545 110.952892 
L 306.501818 110.632312 
L 310.109091 110.306384 
L 313.716364 109.975115 
L 317.323636 109.638514 
L 320.930909 109.296588 
L 324.538182 108.949345 
L 327.375564 108.672 
L 328.145455 108.596749 
L 331.752727 108.238689 
L 335.36 107.875333 
L 338.967273 107.506689 
L 342.574545 107.132763 
L 346.181818 106.753563 
L 349.789091 106.369097 
L 353.353507 105.984 
L 353.396364 105.97937 
L 357.003636 105.584151 
L 360.610909 105.183687 
L 364.218182 104.777984 
L 367.825455 104.36705 
L 371.432727 103.950892 
L 375.04 103.529517 
L 377.014154 103.296 
L 378.647273 103.102806 
L 382.254545 102.670738 
L 385.861818 102.233472 
L 389.469091 101.791017 
L 393.076364 101.343379 
L 396.683636 100.890566 
L 398.908794 100.608 
L 400.290909 100.432462 
L 403.898182 99.968998 
L 407.505455 99.500377 
L 411.112727 99.026607 
L 414.72 98.547695 
" clip-path="url(#pcf3575332d)" style="fill: none; stroke: #000000; stroke-width: 0.5"/>
   </g>
   <g id="PathCollection_14">
    <path d="M 57.6 72.523814 
L 61.207273 72.636479 
L 64.814545 72.742788 
L 68.421818 72.842755 
L 72.029091 72.93639 
L 75.636364 73.023705 
L 79.243636 73.104713 
L 82.850909 73.179426 
L 86.458182 73.247854 
L 90.065455 73.31001 
L 93.672727 73.365905 
L 97.28 73.415551 
L 100.887273 73.458959 
L 104.494545 73.496141 
L 108.101818 73.527108 
L 111.709091 73.551872 
L 115.316364 73.570444 
L 118.923636 73.582835 
L 122.530909 73.589057 
L 126.138182 73.58912 
L 129.745455 73.583036 
L 133.352727 73.570816 
L 136.96 73.552471 
L 140.567273 73.528012 
L 144.174545 73.49745 
L 147.781818 73.460796 
L 151.389091 73.41806 
L 154.996364 73.369255 
L 158.603636 73.314389 
L 162.210909 73.253475 
L 165.818182 73.186522 
L 169.425455 73.113542 
L 173.032727 73.034545 
L 176.64 72.949541 
L 180.247273 72.858542 
L 183.854545 72.761557 
L 187.461818 72.658597 
L 191.069091 72.549673 
L 194.676364 72.434794 
L 198.283636 72.313971 
L 201.890909 72.187215 
L 205.498182 72.054535 
L 209.105455 71.915941 
L 212.712727 71.771445 
L 216.32 71.621055 
L 219.927273 71.464782 
L 223.534545 71.302636 
L 227.141818 71.134627 
L 229.104421 71.04 
L 230.749091 70.960657 
L 234.356364 70.780706 
L 237.963636 70.594915 
L 241.570909 70.403293 
L 245.178182 70.205849 
L 245.291372 70.199471 
" clip-path="url(#pcf3575332d)" style="fill: none; stroke: #000000; stroke-width: 0.5"/>
    <path d="M 281.128665 67.921405 
L 281.250909 67.912747 
L 284.858182 67.65154 
L 288.465455 67.384618 
L 292.072727 67.111992 
L 295.68 66.83367 
L 299.287273 66.549662 
L 302.894545 66.259977 
L 306.501818 65.964624 
L 310.10444 65.664 
L 310.109091 65.663612 
L 313.716364 65.35651 
L 317.323636 65.04376 
L 320.930909 64.725372 
L 324.538182 64.401355 
L 328.145455 64.071717 
L 331.752727 63.736468 
L 335.36 63.395616 
L 338.967273 63.049171 
L 339.716679 62.976 
L 342.574545 62.696729 
L 346.181818 62.338596 
L 349.789091 61.974888 
L 353.396364 61.605616 
L 357.003636 61.230788 
L 360.610909 60.850412 
L 364.218182 60.464497 
L 365.844107 60.288 
L 367.825455 60.072725 
L 371.432727 59.675157 
L 375.04 59.272069 
L 378.647273 58.86347 
L 382.254545 58.449368 
L 385.861818 58.029773 
L 389.469091 57.604693 
L 389.508387 57.6 
L 393.076364 57.173471 
L 396.683636 56.736767 
L 400.290909 56.294597 
L 403.898182 55.846969 
L 407.505455 55.393891 
L 411.112727 54.935373 
L 411.294358 54.912 
L 414.72 54.470715 
" clip-path="url(#pcf3575332d)" style="fill: none; stroke: #000000; stroke-width: 0.5"/>
   </g>
   <g id="PathCollection_15"/>
   <g id="LineCollection_1">
    <path d="M 67.288029 307.584 
L 67.288029 294.2784 
" clip-path="url(#pcf3575332d)" style="fill: none; stroke: #000000; stroke-width: 1.5"/>
    <path d="M 78.078571 307.584 
L 78.078571 294.2784 
" clip-path="url(#pcf3575332d)" style="fill: none; stroke: #000000; stroke-width: 1.5"/>
    <path d="M 93.889059 307.584 
L 93.889059 294.2784 
" clip-path="url(#pcf3575332d)" style="fill: none; stroke: #000000; stroke-width: 1.5"/>
    <path d="M 108.995817 307.584 
L 108.995817 294.2784 
" clip-path="url(#pcf3575332d)" style="fill: none; stroke: #000000; stroke-width: 1.5"/>
    <path d="M 131.732191 307.584 
L 131.732191 294.2784 
" clip-path="url(#pcf3575332d)" style="fill: none; stroke: #000000; stroke-width: 1.5"/>
    <path d="M 156.761555 307.584 
L 156.761555 294.2784 
" clip-path="url(#pcf3575332d)" style="fill: none; stroke: #000000; stroke-width: 1.5"/>
    <path d="M 184.822827 307.584 
L 184.822827 294.2784 
" clip-path="url(#pcf3575332d)" style="fill: none; stroke: #000000; stroke-width: 1.5"/>
    <path d="M 230.928933 307.584 
L 230.928933 294.2784 
" clip-path="url(#pcf3575332d)" style="fill: none; stroke: #000000; stroke-width: 1.5"/>
    <path d="M 331.679748 307.584 
L 331.679748 294.2784 
" clip-path="url(#pcf3575332d)" style="fill: none; stroke: #000000; stroke-width: 1.5"/>
   </g>
   <g id="LineCollection_2">
    <path clip-path="url(#pcf3575332d)" style="fill: none; stroke: #000000; stroke-width: 1.5"/>
    <path clip-path="url(#pcf3575332d)" style="fill: none; stroke: #000000; stroke-width: 1.5"/>
    <path clip-path="url(#pcf3575332d)" style="fill: none; stroke: #000000; stroke-width: 1.5"/>
    <path clip-path="url(#pcf3575332d)" style="fill: none; stroke: #000000; stroke-width: 1.5"/>
    <path clip-path="url(#pcf3575332d)" style="fill: none; stroke: #000000; stroke-width: 1.5"/>
    <path clip-path="url(#pcf3575332d)" style="fill: none; stroke: #000000; stroke-width: 1.5"/>
    <path clip-path="url(#pcf3575332d)" style="fill: none; stroke: #000000; stroke-width: 1.5"/>
    <path clip-path="url(#pcf3575332d)" style="fill: none; stroke: #000000; stroke-width: 1.5"/>
    <path clip-path="url(#pcf3575332d)" style="fill: none; stroke: #000000; stroke-width: 1.5"/>
   </g>
   <g id="patch_3">
    <path d="M 57.6 307.584 
L 57.6 41.472 
" style="fill: none; stroke: #000000; stroke-width: 0.8; stroke-linejoin: miter; stroke-linecap: square"/>
   </g>
   <g id="patch_4">
    <path d="M 414.72 307.584 
L 414.72 41.472 
" style="fill: none; stroke: #000000; stroke-width: 0.8; stroke-linejoin: miter; stroke-linecap: square"/>
   </g>
   <g id="patch_5">
    <path d="M 57.6 307.584 
L 414.72 307.584 
" style="fill: none; stroke: #000000; stroke-width: 0.8; stroke-linejoin: miter; stroke-linecap: square"/>
   </g>
   <g id="patch_6">
    <path d="M 57.6 41.472 
L 414.72 41.472 
" style="fill: none; stroke: #000000; stroke-width: 0.8; stroke-linejoin: miter; stroke-linecap: square"/>
   </g>
   <g id="text_17">
    <!-- 2D-partial dependency plot between GHG and Fish -->
    <g transform="translate(83.687813 35.472) scale(0.12 -0.12)">
     <defs>
      <path id="DejaVuSans-44" d="M 1259 4147 
L 1259 519 
L 2022 519 
Q 2988 519 3436 956 
Q 3884 1394 3884 2338 
Q 3884 3275 3436 3711 
Q 2988 4147 2022 4147 
L 1259 4147 
z
M 628 4666 
L 1925 4666 
Q 3281 4666 3915 4102 
Q 4550 3538 4550 2338 
Q 4550 1131 3912 565 
Q 3275 0 1925 0 
L 628 0 
L 628 4666 
z
" transform="scale(0.015625)"/>
      <path id="DejaVuSans-2d" d="M 313 2009 
L 1997 2009 
L 1997 1497 
L 313 1497 
L 313 2009 
z
" transform="scale(0.015625)"/>
      <path id="DejaVuSans-72" d="M 2631 2963 
Q 2534 3019 2420 3045 
Q 2306 3072 2169 3072 
Q 1681 3072 1420 2755 
Q 1159 2438 1159 1844 
L 1159 0 
L 581 0 
L 581 3500 
L 1159 3500 
L 1159 2956 
Q 1341 3275 1631 3429 
Q 1922 3584 2338 3584 
Q 2397 3584 2469 3576 
Q 2541 3569 2628 3553 
L 2631 2963 
z
" transform="scale(0.015625)"/>
      <path id="DejaVuSans-6c" d="M 603 4863 
L 1178 4863 
L 1178 0 
L 603 0 
L 603 4863 
z
" transform="scale(0.015625)"/>
      <path id="DejaVuSans-63" d="M 3122 3366 
L 3122 2828 
Q 2878 2963 2633 3030 
Q 2388 3097 2138 3097 
Q 1578 3097 1268 2742 
Q 959 2388 959 1747 
Q 959 1106 1268 751 
Q 1578 397 2138 397 
Q 2388 397 2633 464 
Q 2878 531 3122 666 
L 3122 134 
Q 2881 22 2623 -34 
Q 2366 -91 2075 -91 
Q 1284 -91 818 406 
Q 353 903 353 1747 
Q 353 2603 823 3093 
Q 1294 3584 2113 3584 
Q 2378 3584 2631 3529 
Q 2884 3475 3122 3366 
z
" transform="scale(0.015625)"/>
      <path id="DejaVuSans-79" d="M 2059 -325 
Q 1816 -950 1584 -1140 
Q 1353 -1331 966 -1331 
L 506 -1331 
L 506 -850 
L 844 -850 
Q 1081 -850 1212 -737 
Q 1344 -625 1503 -206 
L 1606 56 
L 191 3500 
L 800 3500 
L 1894 763 
L 2988 3500 
L 3597 3500 
L 2059 -325 
z
" transform="scale(0.015625)"/>
      <path id="DejaVuSans-62" d="M 3116 1747 
Q 3116 2381 2855 2742 
Q 2594 3103 2138 3103 
Q 1681 3103 1420 2742 
Q 1159 2381 1159 1747 
Q 1159 1113 1420 752 
Q 1681 391 2138 391 
Q 2594 391 2855 752 
Q 3116 1113 3116 1747 
z
M 1159 2969 
Q 1341 3281 1617 3432 
Q 1894 3584 2278 3584 
Q 2916 3584 3314 3078 
Q 3713 2572 3713 1747 
Q 3713 922 3314 415 
Q 2916 -91 2278 -91 
Q 1894 -91 1617 61 
Q 1341 213 1159 525 
L 1159 0 
L 581 0 
L 581 4863 
L 1159 4863 
L 1159 2969 
z
" transform="scale(0.015625)"/>
      <path id="DejaVuSans-77" d="M 269 3500 
L 844 3500 
L 1563 769 
L 2278 3500 
L 2956 3500 
L 3675 769 
L 4391 3500 
L 4966 3500 
L 4050 0 
L 3372 0 
L 2619 2869 
L 1863 0 
L 1184 0 
L 269 3500 
z
" transform="scale(0.015625)"/>
     </defs>
     <use xlink:href="#DejaVuSans-32"/>
     <use xlink:href="#DejaVuSans-44" x="63.623047"/>
     <use xlink:href="#DejaVuSans-2d" x="140.625"/>
     <use xlink:href="#DejaVuSans-70" x="176.708984"/>
     <use xlink:href="#DejaVuSans-61" x="240.185547"/>
     <use xlink:href="#DejaVuSans-72" x="301.464844"/>
     <use xlink:href="#DejaVuSans-74" x="342.578125"/>
     <use xlink:href="#DejaVuSans-69" x="381.787109"/>
     <use xlink:href="#DejaVuSans-61" x="409.570312"/>
     <use xlink:href="#DejaVuSans-6c" x="470.849609"/>
     <use xlink:href="#DejaVuSans-20" x="498.632812"/>
     <use xlink:href="#DejaVuSans-64" x="530.419922"/>
     <use xlink:href="#DejaVuSans-65" x="593.896484"/>
     <use xlink:href="#DejaVuSans-70" x="655.419922"/>
     <use xlink:href="#DejaVuSans-65" x="718.896484"/>
     <use xlink:href="#DejaVuSans-6e" x="780.419922"/>
     <use xlink:href="#DejaVuSans-64" x="843.798828"/>
     <use xlink:href="#DejaVuSans-65" x="907.275391"/>
     <use xlink:href="#DejaVuSans-6e" x="968.798828"/>
     <use xlink:href="#DejaVuSans-63" x="1032.177734"/>
     <use xlink:href="#DejaVuSans-79" x="1087.158203"/>
     <use xlink:href="#DejaVuSans-20" x="1146.337891"/>
     <use xlink:href="#DejaVuSans-70" x="1178.125"/>
     <use xlink:href="#DejaVuSans-6c" x="1241.601562"/>
     <use xlink:href="#DejaVuSans-6f" x="1269.384766"/>
     <use xlink:href="#DejaVuSans-74" x="1330.566406"/>
     <use xlink:href="#DejaVuSans-20" x="1369.775391"/>
     <use xlink:href="#DejaVuSans-62" x="1401.5625"/>
     <use xlink:href="#DejaVuSans-65" x="1465.039062"/>
     <use xlink:href="#DejaVuSans-74" x="1526.5625"/>
     <use xlink:href="#DejaVuSans-77" x="1565.771484"/>
     <use xlink:href="#DejaVuSans-65" x="1647.558594"/>
     <use xlink:href="#DejaVuSans-65" x="1709.082031"/>
     <use xlink:href="#DejaVuSans-6e" x="1770.605469"/>
     <use xlink:href="#DejaVuSans-20" x="1833.984375"/>
     <use xlink:href="#DejaVuSans-47" x="1865.771484"/>
     <use xlink:href="#DejaVuSans-48" x="1943.261719"/>
     <use xlink:href="#DejaVuSans-47" x="2018.457031"/>
     <use xlink:href="#DejaVuSans-20" x="2095.947266"/>
     <use xlink:href="#DejaVuSans-61" x="2127.734375"/>
     <use xlink:href="#DejaVuSans-6e" x="2189.013672"/>
     <use xlink:href="#DejaVuSans-64" x="2252.392578"/>
     <use xlink:href="#DejaVuSans-20" x="2315.869141"/>
     <use xlink:href="#DejaVuSans-46" x="2347.65625"/>
     <use xlink:href="#DejaVuSans-69" x="2397.925781"/>
     <use xlink:href="#DejaVuSans-73" x="2425.708984"/>
     <use xlink:href="#DejaVuSans-68" x="2477.808594"/>
    </g>
   </g>
   <g id="text_18">
    <g clip-path="url(#pcf3575332d)">
     <!-- 10.21 -->
     <g transform="translate(312.033854 293.411477) rotate(-7.663078) scale(0.1 -0.1)">
      <defs>
       <path id="DejaVuSans-2e" d="M 684 794 
L 1344 794 
L 1344 0 
L 684 0 
L 684 794 
z
" transform="scale(0.015625)"/>
      </defs>
      <use xlink:href="#DejaVuSans-31"/>
      <use xlink:href="#DejaVuSans-30" x="63.623047"/>
      <use xlink:href="#DejaVuSans-2e" x="127.246094"/>
      <use xlink:href="#DejaVuSans-32" x="159.033203"/>
      <use xlink:href="#DejaVuSans-31" x="222.65625"/>
     </g>
    </g>
   </g>
   <g id="text_19">
    <g clip-path="url(#pcf3575332d)">
     <!-- 10.45 -->
     <g transform="translate(234.796885 254.802827) rotate(-5.431965) scale(0.1 -0.1)">
      <use xlink:href="#DejaVuSans-31"/>
      <use xlink:href="#DejaVuSans-30" x="63.623047"/>
      <use xlink:href="#DejaVuSans-2e" x="127.246094"/>
      <use xlink:href="#DejaVuSans-34" x="159.033203"/>
      <use xlink:href="#DejaVuSans-35" x="222.65625"/>
     </g>
    </g>
   </g>
   <g id="text_20">
    <g clip-path="url(#pcf3575332d)">
     <!-- 10.69 -->
     <g transform="translate(238.365943 208.50408) rotate(-4.889425) scale(0.1 -0.1)">
      <defs>
       <path id="DejaVuSans-36" d="M 2113 2584 
Q 1688 2584 1439 2293 
Q 1191 2003 1191 1497 
Q 1191 994 1439 701 
Q 1688 409 2113 409 
Q 2538 409 2786 701 
Q 3034 994 3034 1497 
Q 3034 2003 2786 2293 
Q 2538 2584 2113 2584 
z
M 3366 4563 
L 3366 3988 
Q 3128 4100 2886 4159 
Q 2644 4219 2406 4219 
Q 1781 4219 1451 3797 
Q 1122 3375 1075 2522 
Q 1259 2794 1537 2939 
Q 1816 3084 2150 3084 
Q 2853 3084 3261 2657 
Q 3669 2231 3669 1497 
Q 3669 778 3244 343 
Q 2819 -91 2113 -91 
Q 1303 -91 875 529 
Q 447 1150 447 2328 
Q 447 3434 972 4092 
Q 1497 4750 2381 4750 
Q 2619 4750 2861 4703 
Q 3103 4656 3366 4563 
z
" transform="scale(0.015625)"/>
       <path id="DejaVuSans-39" d="M 703 97 
L 703 672 
Q 941 559 1184 500 
Q 1428 441 1663 441 
Q 2288 441 2617 861 
Q 2947 1281 2994 2138 
Q 2813 1869 2534 1725 
Q 2256 1581 1919 1581 
Q 1219 1581 811 2004 
Q 403 2428 403 3163 
Q 403 3881 828 4315 
Q 1253 4750 1959 4750 
Q 2769 4750 3195 4129 
Q 3622 3509 3622 2328 
Q 3622 1225 3098 567 
Q 2575 -91 1691 -91 
Q 1453 -91 1209 -44 
Q 966 3 703 97 
z
M 1959 2075 
Q 2384 2075 2632 2365 
Q 2881 2656 2881 3163 
Q 2881 3666 2632 3958 
Q 2384 4250 1959 4250 
Q 1534 4250 1286 3958 
Q 1038 3666 1038 3163 
Q 1038 2656 1286 2365 
Q 1534 2075 1959 2075 
z
" transform="scale(0.015625)"/>
      </defs>
      <use xlink:href="#DejaVuSans-31"/>
      <use xlink:href="#DejaVuSans-30" x="63.623047"/>
      <use xlink:href="#DejaVuSans-2e" x="127.246094"/>
      <use xlink:href="#DejaVuSans-36" x="159.033203"/>
      <use xlink:href="#DejaVuSans-39" x="222.65625"/>
     </g>
    </g>
   </g>
   <g id="text_21">
    <g clip-path="url(#pcf3575332d)">
     <!-- 10.92 -->
     <g transform="translate(241.941263 163.157356) rotate(-4.421451) scale(0.1 -0.1)">
      <use xlink:href="#DejaVuSans-31"/>
      <use xlink:href="#DejaVuSans-30" x="63.623047"/>
      <use xlink:href="#DejaVuSans-2e" x="127.246094"/>
      <use xlink:href="#DejaVuSans-39" x="159.033203"/>
      <use xlink:href="#DejaVuSans-32" x="222.65625"/>
     </g>
    </g>
   </g>
   <g id="text_22">
    <g clip-path="url(#pcf3575332d)">
     <!-- 11.16 -->
     <g transform="translate(245.52114 118.131295) rotate(-4.008816) scale(0.1 -0.1)">
      <use xlink:href="#DejaVuSans-31"/>
      <use xlink:href="#DejaVuSans-31" x="63.623047"/>
      <use xlink:href="#DejaVuSans-2e" x="127.246094"/>
      <use xlink:href="#DejaVuSans-31" x="159.033203"/>
      <use xlink:href="#DejaVuSans-36" x="222.65625"/>
     </g>
    </g>
   </g>
   <g id="text_23">
    <g clip-path="url(#pcf3575332d)">
     <!-- 11.40 -->
     <g transform="translate(249.104354 72.793484) rotate(-3.637022) scale(0.1 -0.1)">
      <use xlink:href="#DejaVuSans-31"/>
      <use xlink:href="#DejaVuSans-31" x="63.623047"/>
      <use xlink:href="#DejaVuSans-2e" x="127.246094"/>
      <use xlink:href="#DejaVuSans-34" x="159.033203"/>
      <use xlink:href="#DejaVuSans-30" x="222.65625"/>
     </g>
    </g>
   </g>
  </g>
 </g>
 <defs>
  <clipPath id="pcf3575332d">
   <rect x="57.6" y="41.472" width="357.12" height="266.112"/>
  </clipPath>
 </defs>
</svg>
