<?xml version="1.0" encoding="utf-8" standalone="no"?>
<!DOCTYPE svg PUBLIC "-//W3C//DTD SVG 1.1//EN"
  "http://www.w3.org/Graphics/SVG/1.1/DTD/svg11.dtd">
<svg xmlns:xlink="http://www.w3.org/1999/xlink" width="408.198125pt" height="325.986375pt" viewBox="0 0 408.198125 325.986375" xmlns="http://www.w3.org/2000/svg" version="1.1">
 <metadata>
  <rdf:RDF xmlns:dc="http://purl.org/dc/elements/1.1/" xmlns:cc="http://creativecommons.org/ns#" xmlns:rdf="http://www.w3.org/1999/02/22-rdf-syntax-ns#">
   <cc:Work>
    <dc:type rdf:resource="http://purl.org/dc/dcmitype/StillImage"/>
    <dc:date>2024-02-15T12:26:03.239707</dc:date>
    <dc:format>image/svg+xml</dc:format>
    <dc:creator>
     <cc:Agent>
      <dc:title>Matplotlib v3.7.0, https://matplotlib.org/</dc:title>
     </cc:Agent>
    </dc:creator>
   </cc:Work>
  </rdf:RDF>
 </metadata>
 <defs>
  <style type="text/css">*{stroke-linejoin: round; stroke-linecap: butt}</style>
 </defs>
 <g id="figure_1">
  <g id="patch_1">
   <path d="M 0 325.986375 
L 408.198125 325.986375 
L 408.198125 0 
L 0 0 
L 0 325.986375 
z
" style="fill: none"/>
  </g>
  <g id="axes_1">
   <g id="patch_2">
    <path d="M 43.878125 288.430125 
L 400.998125 288.430125 
L 400.998125 22.318125 
L 43.878125 22.318125 
L 43.878125 288.430125 
z
" style="fill: none"/>
   </g>
   <g id="PathCollection_1">
    <defs>
     <path id="m73927b3e9c" d="M 0 3 
C 0.795609 3 1.55874 2.683901 2.12132 2.12132 
C 2.683901 1.55874 3 0.795609 3 0 
C 3 -0.795609 2.683901 -1.55874 2.12132 -2.12132 
C 1.55874 -2.683901 0.795609 -3 0 -3 
C -0.795609 -3 -1.55874 -2.683901 -2.12132 -2.12132 
C -2.683901 -1.55874 -3 -0.795609 -3 0 
C -3 0.795609 -2.683901 1.55874 -2.12132 2.12132 
C -1.55874 2.683901 -0.795609 3 0 3 
z
" style="stroke: #0000ff; stroke-opacity: 0.5"/>
    </defs>
    <g clip-path="url(#p1917eee993)">
     <use xlink:href="#m73927b3e9c" x="-0.283462" y="312.559847" style="fill: #0000ff; fill-opacity: 0.5; stroke: #0000ff; stroke-opacity: 0.5"/>
     <use xlink:href="#m73927b3e9c" x="-1" y="312.991586" style="fill: #0000ff; fill-opacity: 0.5; stroke: #0000ff; stroke-opacity: 0.5"/>
     <use xlink:href="#m73927b3e9c" x="-1" y="314.316958" style="fill: #0000ff; fill-opacity: 0.5; stroke: #0000ff; stroke-opacity: 0.5"/>
     <use xlink:href="#m73927b3e9c" x="131.663191" y="239.145281" style="fill: #0000ff; fill-opacity: 0.5; stroke: #0000ff; stroke-opacity: 0.5"/>
     <use xlink:href="#m73927b3e9c" x="-1" y="315.041786" style="fill: #0000ff; fill-opacity: 0.5; stroke: #0000ff; stroke-opacity: 0.5"/>
     <use xlink:href="#m73927b3e9c" x="-1" y="313.32439" style="fill: #0000ff; fill-opacity: 0.5; stroke: #0000ff; stroke-opacity: 0.5"/>
     <use xlink:href="#m73927b3e9c" x="269.962467" y="161.887021" style="fill: #0000ff; fill-opacity: 0.5; stroke: #0000ff; stroke-opacity: 0.5"/>
     <use xlink:href="#m73927b3e9c" x="8.458886" y="307.947414" style="fill: #0000ff; fill-opacity: 0.5; stroke: #0000ff; stroke-opacity: 0.5"/>
     <use xlink:href="#m73927b3e9c" x="32.303443" y="294.878853" style="fill: #0000ff; fill-opacity: 0.5; stroke: #0000ff; stroke-opacity: 0.5"/>
     <use xlink:href="#m73927b3e9c" x="-1" y="313.387325" style="fill: #0000ff; fill-opacity: 0.5; stroke: #0000ff; stroke-opacity: 0.5"/>
     <use xlink:href="#m73927b3e9c" x="-1" y="313.585281" style="fill: #0000ff; fill-opacity: 0.5; stroke: #0000ff; stroke-opacity: 0.5"/>
     <use xlink:href="#m73927b3e9c" x="-0.534964" y="313.328586" style="fill: #0000ff; fill-opacity: 0.5; stroke: #0000ff; stroke-opacity: 0.5"/>
     <use xlink:href="#m73927b3e9c" x="98.911504" y="257.595015" style="fill: #0000ff; fill-opacity: 0.5; stroke: #0000ff; stroke-opacity: 0.5"/>
     <use xlink:href="#m73927b3e9c" x="-1" y="313.469465" style="fill: #0000ff; fill-opacity: 0.5; stroke: #0000ff; stroke-opacity: 0.5"/>
     <use xlink:href="#m73927b3e9c" x="-1" y="313.579795" style="fill: #0000ff; fill-opacity: 0.5; stroke: #0000ff; stroke-opacity: 0.5"/>
     <use xlink:href="#m73927b3e9c" x="73.902729" y="271.816685" style="fill: #0000ff; fill-opacity: 0.5; stroke: #0000ff; stroke-opacity: 0.5"/>
     <use xlink:href="#m73927b3e9c" x="221.000646" y="189.561622" style="fill: #0000ff; fill-opacity: 0.5; stroke: #0000ff; stroke-opacity: 0.5"/>
     <use xlink:href="#m73927b3e9c" x="-1" y="313.506651" style="fill: #0000ff; fill-opacity: 0.5; stroke: #0000ff; stroke-opacity: 0.5"/>
     <use xlink:href="#m73927b3e9c" x="-1" y="313.450577" style="fill: #0000ff; fill-opacity: 0.5; stroke: #0000ff; stroke-opacity: 0.5"/>
     <use xlink:href="#m73927b3e9c" x="232.334468" y="182.642972" style="fill: #0000ff; fill-opacity: 0.5; stroke: #0000ff; stroke-opacity: 0.5"/>
     <use xlink:href="#m73927b3e9c" x="-1" y="313.733559" style="fill: #0000ff; fill-opacity: 0.5; stroke: #0000ff; stroke-opacity: 0.5"/>
     <use xlink:href="#m73927b3e9c" x="-1" y="313.618892" style="fill: #0000ff; fill-opacity: 0.5; stroke: #0000ff; stroke-opacity: 0.5"/>
     <use xlink:href="#m73927b3e9c" x="228.177781" y="185.333558" style="fill: #0000ff; fill-opacity: 0.5; stroke: #0000ff; stroke-opacity: 0.5"/>
     <use xlink:href="#m73927b3e9c" x="139.440316" y="234.917217" style="fill: #0000ff; fill-opacity: 0.5; stroke: #0000ff; stroke-opacity: 0.5"/>
     <use xlink:href="#m73927b3e9c" x="-1" y="313.424025" style="fill: #0000ff; fill-opacity: 0.5; stroke: #0000ff; stroke-opacity: 0.5"/>
     <use xlink:href="#m73927b3e9c" x="-1" y="313.352425" style="fill: #0000ff; fill-opacity: 0.5; stroke: #0000ff; stroke-opacity: 0.5"/>
     <use xlink:href="#m73927b3e9c" x="251.818974" y="171.496257" style="fill: #0000ff; fill-opacity: 0.5; stroke: #0000ff; stroke-opacity: 0.5"/>
     <use xlink:href="#m73927b3e9c" x="-1" y="313.456709" style="fill: #0000ff; fill-opacity: 0.5; stroke: #0000ff; stroke-opacity: 0.5"/>
     <use xlink:href="#m73927b3e9c" x="-1" y="313.475081" style="fill: #0000ff; fill-opacity: 0.5; stroke: #0000ff; stroke-opacity: 0.5"/>
     <use xlink:href="#m73927b3e9c" x="306.019741" y="141.899809" style="fill: #0000ff; fill-opacity: 0.5; stroke: #0000ff; stroke-opacity: 0.5"/>
     <use xlink:href="#m73927b3e9c" x="43.206593" y="288.728941" style="fill: #0000ff; fill-opacity: 0.5; stroke: #0000ff; stroke-opacity: 0.5"/>
     <use xlink:href="#m73927b3e9c" x="-1" y="313.654898" style="fill: #0000ff; fill-opacity: 0.5; stroke: #0000ff; stroke-opacity: 0.5"/>
     <use xlink:href="#m73927b3e9c" x="-1" y="313.647998" style="fill: #0000ff; fill-opacity: 0.5; stroke: #0000ff; stroke-opacity: 0.5"/>
     <use xlink:href="#m73927b3e9c" x="13.877905" y="305.256828" style="fill: #0000ff; fill-opacity: 0.5; stroke: #0000ff; stroke-opacity: 0.5"/>
     <use xlink:href="#m73927b3e9c" x="-1" y="313.520313" style="fill: #0000ff; fill-opacity: 0.5; stroke: #0000ff; stroke-opacity: 0.5"/>
     <use xlink:href="#m73927b3e9c" x="-1" y="313.529963" style="fill: #0000ff; fill-opacity: 0.5; stroke: #0000ff; stroke-opacity: 0.5"/>
     <use xlink:href="#m73927b3e9c" x="146.994286" y="231.842262" style="fill: #0000ff; fill-opacity: 0.5; stroke: #0000ff; stroke-opacity: 0.5"/>
     <use xlink:href="#m73927b3e9c" x="-1" y="312.798442" style="fill: #0000ff; fill-opacity: 0.5; stroke: #0000ff; stroke-opacity: 0.5"/>
     <use xlink:href="#m73927b3e9c" x="-1" y="312.903186" style="fill: #0000ff; fill-opacity: 0.5; stroke: #0000ff; stroke-opacity: 0.5"/>
     <use xlink:href="#m73927b3e9c" x="42.726293" y="289.113311" style="fill: #0000ff; fill-opacity: 0.5; stroke: #0000ff; stroke-opacity: 0.5"/>
     <use xlink:href="#m73927b3e9c" x="-1" y="314.607748" style="fill: #0000ff; fill-opacity: 0.5; stroke: #0000ff; stroke-opacity: 0.5"/>
     <use xlink:href="#m73927b3e9c" x="-1" y="313.909841" style="fill: #0000ff; fill-opacity: 0.5; stroke: #0000ff; stroke-opacity: 0.5"/>
     <use xlink:href="#m73927b3e9c" x="197.601498" y="206.473878" style="fill: #0000ff; fill-opacity: 0.5; stroke: #0000ff; stroke-opacity: 0.5"/>
     <use xlink:href="#m73927b3e9c" x="355.333081" y="112.687731" style="fill: #0000ff; fill-opacity: 0.5; stroke: #0000ff; stroke-opacity: 0.5"/>
     <use xlink:href="#m73927b3e9c" x="-1" y="313.911985" style="fill: #0000ff; fill-opacity: 0.5; stroke: #0000ff; stroke-opacity: 0.5"/>
     <use xlink:href="#m73927b3e9c" x="-1" y="313.530553" style="fill: #0000ff; fill-opacity: 0.5; stroke: #0000ff; stroke-opacity: 0.5"/>
     <use xlink:href="#m73927b3e9c" x="266.676051" y="163.040129" style="fill: #0000ff; fill-opacity: 0.5; stroke: #0000ff; stroke-opacity: 0.5"/>
     <use xlink:href="#m73927b3e9c" x="161.329132" y="223.386134" style="fill: #0000ff; fill-opacity: 0.5; stroke: #0000ff; stroke-opacity: 0.5"/>
     <use xlink:href="#m73927b3e9c" x="-1" y="313.431407" style="fill: #0000ff; fill-opacity: 0.5; stroke: #0000ff; stroke-opacity: 0.5"/>
     <use xlink:href="#m73927b3e9c" x="-1" y="313.386404" style="fill: #0000ff; fill-opacity: 0.5; stroke: #0000ff; stroke-opacity: 0.5"/>
     <use xlink:href="#m73927b3e9c" x="181.007797" y="211.85505" style="fill: #0000ff; fill-opacity: 0.5; stroke: #0000ff; stroke-opacity: 0.5"/>
     <use xlink:href="#m73927b3e9c" x="241.741656" y="178.414908" style="fill: #0000ff; fill-opacity: 0.5; stroke: #0000ff; stroke-opacity: 0.5"/>
     <use xlink:href="#m73927b3e9c" x="151.343218" y="228.382937" style="fill: #0000ff; fill-opacity: 0.5; stroke: #0000ff; stroke-opacity: 0.5"/>
     <use xlink:href="#m73927b3e9c" x="-1" y="313.348752" style="fill: #0000ff; fill-opacity: 0.5; stroke: #0000ff; stroke-opacity: 0.5"/>
     <use xlink:href="#m73927b3e9c" x="-1" y="313.328576" style="fill: #0000ff; fill-opacity: 0.5; stroke: #0000ff; stroke-opacity: 0.5"/>
     <use xlink:href="#m73927b3e9c" x="180.945126" y="211.086311" style="fill: #0000ff; fill-opacity: 0.5; stroke: #0000ff; stroke-opacity: 0.5"/>
     <use xlink:href="#m73927b3e9c" x="-1" y="313.375639" style="fill: #0000ff; fill-opacity: 0.5; stroke: #0000ff; stroke-opacity: 0.5"/>
     <use xlink:href="#m73927b3e9c" x="-1" y="313.667032" style="fill: #0000ff; fill-opacity: 0.5; stroke: #0000ff; stroke-opacity: 0.5"/>
     <use xlink:href="#m73927b3e9c" x="5.772736" y="309.869261" style="fill: #0000ff; fill-opacity: 0.5; stroke: #0000ff; stroke-opacity: 0.5"/>
     <use xlink:href="#m73927b3e9c" x="-1" y="313.637062" style="fill: #0000ff; fill-opacity: 0.5; stroke: #0000ff; stroke-opacity: 0.5"/>
     <use xlink:href="#m73927b3e9c" x="-1" y="313.523131" style="fill: #0000ff; fill-opacity: 0.5; stroke: #0000ff; stroke-opacity: 0.5"/>
     <use xlink:href="#m73927b3e9c" x="10.314196" y="307.178675" style="fill: #0000ff; fill-opacity: 0.5; stroke: #0000ff; stroke-opacity: 0.5"/>
     <use xlink:href="#m73927b3e9c" x="-1" y="313.505499" style="fill: #0000ff; fill-opacity: 0.5; stroke: #0000ff; stroke-opacity: 0.5"/>
     <use xlink:href="#m73927b3e9c" x="-1" y="313.559755" style="fill: #0000ff; fill-opacity: 0.5; stroke: #0000ff; stroke-opacity: 0.5"/>
     <use xlink:href="#m73927b3e9c" x="31.056329" y="295.647591" style="fill: #0000ff; fill-opacity: 0.5; stroke: #0000ff; stroke-opacity: 0.5"/>
     <use xlink:href="#m73927b3e9c" x="123.956042" y="243.373345" style="fill: #0000ff; fill-opacity: 0.5; stroke: #0000ff; stroke-opacity: 0.5"/>
     <use xlink:href="#m73927b3e9c" x="86.096662" y="265.666774" style="fill: #0000ff; fill-opacity: 0.5; stroke: #0000ff; stroke-opacity: 0.5"/>
     <use xlink:href="#m73927b3e9c" x="-1" y="313.565151" style="fill: #0000ff; fill-opacity: 0.5; stroke: #0000ff; stroke-opacity: 0.5"/>
     <use xlink:href="#m73927b3e9c" x="-1" y="313.458972" style="fill: #0000ff; fill-opacity: 0.5; stroke: #0000ff; stroke-opacity: 0.5"/>
     <use xlink:href="#m73927b3e9c" x="284.477176" y="153.815262" style="fill: #0000ff; fill-opacity: 0.5; stroke: #0000ff; stroke-opacity: 0.5"/>
     <use xlink:href="#m73927b3e9c" x="-1" y="313.54289" style="fill: #0000ff; fill-opacity: 0.5; stroke: #0000ff; stroke-opacity: 0.5"/>
     <use xlink:href="#m73927b3e9c" x="-1" y="313.602251" style="fill: #0000ff; fill-opacity: 0.5; stroke: #0000ff; stroke-opacity: 0.5"/>
     <use xlink:href="#m73927b3e9c" x="64.872126" y="276.813488" style="fill: #0000ff; fill-opacity: 0.5; stroke: #0000ff; stroke-opacity: 0.5"/>
     <use xlink:href="#m73927b3e9c" x="191.581089" y="207.626986" style="fill: #0000ff; fill-opacity: 0.5; stroke: #0000ff; stroke-opacity: 0.5"/>
     <use xlink:href="#m73927b3e9c" x="-1" y="313.856561" style="fill: #0000ff; fill-opacity: 0.5; stroke: #0000ff; stroke-opacity: 0.5"/>
     <use xlink:href="#m73927b3e9c" x="-1" y="313.489941" style="fill: #0000ff; fill-opacity: 0.5; stroke: #0000ff; stroke-opacity: 0.5"/>
     <use xlink:href="#m73927b3e9c" x="131.01414" y="239.529651" style="fill: #0000ff; fill-opacity: 0.5; stroke: #0000ff; stroke-opacity: 0.5"/>
     <use xlink:href="#m73927b3e9c" x="-1" y="313.520005" style="fill: #0000ff; fill-opacity: 0.5; stroke: #0000ff; stroke-opacity: 0.5"/>
     <use xlink:href="#m73927b3e9c" x="-1" y="313.433604" style="fill: #0000ff; fill-opacity: 0.5; stroke: #0000ff; stroke-opacity: 0.5"/>
     <use xlink:href="#m73927b3e9c" x="195.223312" y="203.783292" style="fill: #0000ff; fill-opacity: 0.5; stroke: #0000ff; stroke-opacity: 0.5"/>
     <use xlink:href="#m73927b3e9c" x="112.543865" y="249.907626" style="fill: #0000ff; fill-opacity: 0.5; stroke: #0000ff; stroke-opacity: 0.5"/>
     <use xlink:href="#m73927b3e9c" x="-1" y="313.474411" style="fill: #0000ff; fill-opacity: 0.5; stroke: #0000ff; stroke-opacity: 0.5"/>
     <use xlink:href="#m73927b3e9c" x="-1" y="313.487653" style="fill: #0000ff; fill-opacity: 0.5; stroke: #0000ff; stroke-opacity: 0.5"/>
     <use xlink:href="#m73927b3e9c" x="159.903829" y="223.001764" style="fill: #0000ff; fill-opacity: 0.5; stroke: #0000ff; stroke-opacity: 0.5"/>
     <use xlink:href="#m73927b3e9c" x="-1" y="313.220389" style="fill: #0000ff; fill-opacity: 0.5; stroke: #0000ff; stroke-opacity: 0.5"/>
     <use xlink:href="#m73927b3e9c" x="-1" y="313.662889" style="fill: #0000ff; fill-opacity: 0.5; stroke: #0000ff; stroke-opacity: 0.5"/>
     <use xlink:href="#m73927b3e9c" x="182.961192" y="213.392528" style="fill: #0000ff; fill-opacity: 0.5; stroke: #0000ff; stroke-opacity: 0.5"/>
     <use xlink:href="#m73927b3e9c" x="-1" y="314.030036" style="fill: #0000ff; fill-opacity: 0.5; stroke: #0000ff; stroke-opacity: 0.5"/>
     <use xlink:href="#m73927b3e9c" x="-1" y="313.356737" style="fill: #0000ff; fill-opacity: 0.5; stroke: #0000ff; stroke-opacity: 0.5"/>
     <use xlink:href="#m73927b3e9c" x="17.355284" y="302.950611" style="fill: #0000ff; fill-opacity: 0.5; stroke: #0000ff; stroke-opacity: 0.5"/>
     <use xlink:href="#m73927b3e9c" x="190.406344" y="206.473878" style="fill: #0000ff; fill-opacity: 0.5; stroke: #0000ff; stroke-opacity: 0.5"/>
     <use xlink:href="#m73927b3e9c" x="251.519488" y="172.264996" style="fill: #0000ff; fill-opacity: 0.5; stroke: #0000ff; stroke-opacity: 0.5"/>
     <use xlink:href="#m73927b3e9c" x="83.286967" y="266.435513" style="fill: #0000ff; fill-opacity: 0.5; stroke: #0000ff; stroke-opacity: 0.5"/>
     <use xlink:href="#m73927b3e9c" x="76.363033" y="270.279207" style="fill: #0000ff; fill-opacity: 0.5; stroke: #0000ff; stroke-opacity: 0.5"/>
     <use xlink:href="#m73927b3e9c" x="132.369353" y="238.760912" style="fill: #0000ff; fill-opacity: 0.5; stroke: #0000ff; stroke-opacity: 0.5"/>
     <use xlink:href="#m73927b3e9c" x="-1" y="313.464462" style="fill: #0000ff; fill-opacity: 0.5; stroke: #0000ff; stroke-opacity: 0.5"/>
     <use xlink:href="#m73927b3e9c" x="-1" y="313.521546" style="fill: #0000ff; fill-opacity: 0.5; stroke: #0000ff; stroke-opacity: 0.5"/>
     <use xlink:href="#m73927b3e9c" x="15.161418" y="304.488089" style="fill: #0000ff; fill-opacity: 0.5; stroke: #0000ff; stroke-opacity: 0.5"/>
     <use xlink:href="#m73927b3e9c" x="379.454367" y="90.394302" style="fill: #0000ff; fill-opacity: 0.5; stroke: #0000ff; stroke-opacity: 0.5"/>
     <use xlink:href="#m73927b3e9c" x="-1" y="312.36624" style="fill: #0000ff; fill-opacity: 0.5; stroke: #0000ff; stroke-opacity: 0.5"/>
     <use xlink:href="#m73927b3e9c" x="-1" y="313.499106" style="fill: #0000ff; fill-opacity: 0.5; stroke: #0000ff; stroke-opacity: 0.5"/>
     <use xlink:href="#m73927b3e9c" x="3.417914" y="311.02237" style="fill: #0000ff; fill-opacity: 0.5; stroke: #0000ff; stroke-opacity: 0.5"/>
     <use xlink:href="#m73927b3e9c" x="204.435067" y="198.786489" style="fill: #0000ff; fill-opacity: 0.5; stroke: #0000ff; stroke-opacity: 0.5"/>
    </g>
   </g>
   <g id="PathCollection_2">
    <defs>
     <path id="md0bdf1a0ad" d="M 0 3 
C 0.795609 3 1.55874 2.683901 2.12132 2.12132 
C 2.683901 1.55874 3 0.795609 3 0 
C 3 -0.795609 2.683901 -1.55874 2.12132 -2.12132 
C 1.55874 -2.683901 0.795609 -3 0 -3 
C -0.795609 -3 -1.55874 -2.683901 -2.12132 -2.12132 
C -2.683901 -1.55874 -3 -0.795609 -3 0 
C -3 0.795609 -2.683901 1.55874 -2.12132 2.12132 
C -1.55874 2.683901 -0.795609 3 0 3 
z
" style="stroke: #008000; stroke-opacity: 0.5"/>
    </defs>
    <g clip-path="url(#p1917eee993)">
     <use xlink:href="#md0bdf1a0ad" x="224.481553" y="225.307981" style="fill: #008000; fill-opacity: 0.5; stroke: #008000; stroke-opacity: 0.5"/>
     <use xlink:href="#md0bdf1a0ad" x="-1" y="319.646445" style="fill: #008000; fill-opacity: 0.5; stroke: #008000; stroke-opacity: 0.5"/>
     <use xlink:href="#md0bdf1a0ad" x="-1" y="319.14785" style="fill: #008000; fill-opacity: 0.5; stroke: #008000; stroke-opacity: 0.5"/>
     <use xlink:href="#md0bdf1a0ad" x="8.069045" y="315.250434" style="fill: #008000; fill-opacity: 0.5; stroke: #008000; stroke-opacity: 0.5"/>
     <use xlink:href="#md0bdf1a0ad" x="166.769644" y="298.338178" style="fill: #008000; fill-opacity: 0.5; stroke: #008000; stroke-opacity: 0.5"/>
     <use xlink:href="#md0bdf1a0ad" x="-1" y="294.51686" style="fill: #008000; fill-opacity: 0.5; stroke: #008000; stroke-opacity: 0.5"/>
     <use xlink:href="#md0bdf1a0ad" x="-1" y="314.631559" style="fill: #008000; fill-opacity: 0.5; stroke: #008000; stroke-opacity: 0.5"/>
     <use xlink:href="#md0bdf1a0ad" x="130.169554" y="237.992173" style="fill: #008000; fill-opacity: 0.5; stroke: #008000; stroke-opacity: 0.5"/>
     <use xlink:href="#md0bdf1a0ad" x="-1" y="312.141524" style="fill: #008000; fill-opacity: 0.5; stroke: #008000; stroke-opacity: 0.5"/>
     <use xlink:href="#md0bdf1a0ad" x="-1" y="310.573788" style="fill: #008000; fill-opacity: 0.5; stroke: #008000; stroke-opacity: 0.5"/>
     <use xlink:href="#md0bdf1a0ad" x="60.421474" y="273.738532" style="fill: #008000; fill-opacity: 0.5; stroke: #008000; stroke-opacity: 0.5"/>
     <use xlink:href="#md0bdf1a0ad" x="-1" y="312.224121" style="fill: #008000; fill-opacity: 0.5; stroke: #008000; stroke-opacity: 0.5"/>
     <use xlink:href="#md0bdf1a0ad" x="-1" y="322.896892" style="fill: #008000; fill-opacity: 0.5; stroke: #008000; stroke-opacity: 0.5"/>
     <use xlink:href="#md0bdf1a0ad" x="82.970395" y="306.025567" style="fill: #008000; fill-opacity: 0.5; stroke: #008000; stroke-opacity: 0.5"/>
     <use xlink:href="#md0bdf1a0ad" x="-1" y="325.301792" style="fill: #008000; fill-opacity: 0.5; stroke: #008000; stroke-opacity: 0.5"/>
     <use xlink:href="#md0bdf1a0ad" x="-1" y="314.486685" style="fill: #008000; fill-opacity: 0.5; stroke: #008000; stroke-opacity: 0.5"/>
     <use xlink:href="#md0bdf1a0ad" x="128.076494" y="232.611001" style="fill: #008000; fill-opacity: 0.5; stroke: #008000; stroke-opacity: 0.5"/>
     <use xlink:href="#md0bdf1a0ad" x="-1" y="289.917766" style="fill: #008000; fill-opacity: 0.5; stroke: #008000; stroke-opacity: 0.5"/>
     <use xlink:href="#md0bdf1a0ad" x="-1" y="312.812452" style="fill: #008000; fill-opacity: 0.5; stroke: #008000; stroke-opacity: 0.5"/>
     <use xlink:href="#md0bdf1a0ad" x="181.027457" y="192.252208" style="fill: #008000; fill-opacity: 0.5; stroke: #008000; stroke-opacity: 0.5"/>
     <use xlink:href="#md0bdf1a0ad" x="185.9066" y="249.907626" style="fill: #008000; fill-opacity: 0.5; stroke: #008000; stroke-opacity: 0.5"/>
     <use xlink:href="#md0bdf1a0ad" x="-1" y="315.654713" style="fill: #008000; fill-opacity: 0.5; stroke: #008000; stroke-opacity: 0.5"/>
     <use xlink:href="#md0bdf1a0ad" x="-1" y="309.257143" style="fill: #008000; fill-opacity: 0.5; stroke: #008000; stroke-opacity: 0.5"/>
     <use xlink:href="#md0bdf1a0ad" x="196.014128" y="195.711533" style="fill: #008000; fill-opacity: 0.5; stroke: #008000; stroke-opacity: 0.5"/>
     <use xlink:href="#md0bdf1a0ad" x="249.382443" y="219.926809" style="fill: #008000; fill-opacity: 0.5; stroke: #008000; stroke-opacity: 0.5"/>
     <use xlink:href="#md0bdf1a0ad" x="255.14737" y="159.196435" style="fill: #008000; fill-opacity: 0.5; stroke: #008000; stroke-opacity: 0.5"/>
     <use xlink:href="#md0bdf1a0ad" x="214.791053" y="211.470681" style="fill: #008000; fill-opacity: 0.5; stroke: #008000; stroke-opacity: 0.5"/>
     <use xlink:href="#md0bdf1a0ad" x="-1" y="313.166964" style="fill: #008000; fill-opacity: 0.5; stroke: #008000; stroke-opacity: 0.5"/>
     <use xlink:href="#md0bdf1a0ad" x="-1" y="314.257352" style="fill: #008000; fill-opacity: 0.5; stroke: #008000; stroke-opacity: 0.5"/>
     <use xlink:href="#md0bdf1a0ad" x="200.125068" y="203.783292" style="fill: #008000; fill-opacity: 0.5; stroke: #008000; stroke-opacity: 0.5"/>
     <use xlink:href="#md0bdf1a0ad" x="212.772327" y="226.07672" style="fill: #008000; fill-opacity: 0.5; stroke: #008000; stroke-opacity: 0.5"/>
     <use xlink:href="#md0bdf1a0ad" x="170.70471" y="210.701942" style="fill: #008000; fill-opacity: 0.5; stroke: #008000; stroke-opacity: 0.5"/>
     <use xlink:href="#md0bdf1a0ad" x="183.170699" y="218.7737" style="fill: #008000; fill-opacity: 0.5; stroke: #008000; stroke-opacity: 0.5"/>
     <use xlink:href="#md0bdf1a0ad" x="-1" y="290.013865" style="fill: #008000; fill-opacity: 0.5; stroke: #008000; stroke-opacity: 0.5"/>
     <use xlink:href="#md0bdf1a0ad" x="-1" y="312.535402" style="fill: #008000; fill-opacity: 0.5; stroke: #008000; stroke-opacity: 0.5"/>
     <use xlink:href="#md0bdf1a0ad" x="27.859229" y="316.019173" style="fill: #008000; fill-opacity: 0.5; stroke: #008000; stroke-opacity: 0.5"/>
     <use xlink:href="#md0bdf1a0ad" x="-1" y="323.884868" style="fill: #008000; fill-opacity: 0.5; stroke: #008000; stroke-opacity: 0.5"/>
     <use xlink:href="#md0bdf1a0ad" x="-1" y="310.191998" style="fill: #008000; fill-opacity: 0.5; stroke: #008000; stroke-opacity: 0.5"/>
     <use xlink:href="#md0bdf1a0ad" x="204.579129" y="188.792883" style="fill: #008000; fill-opacity: 0.5; stroke: #008000; stroke-opacity: 0.5"/>
     <use xlink:href="#md0bdf1a0ad" x="-1" y="316.112859" style="fill: #008000; fill-opacity: 0.5; stroke: #008000; stroke-opacity: 0.5"/>
    </g>
   </g>
   <g id="matplotlib.axis_1">
    <g id="xtick_1">
     <g id="line2d_1">
      <path d="M 43.878125 288.430125 
L 43.878125 22.318125 
" clip-path="url(#p1917eee993)" style="fill: none; stroke: #b0b0b0; stroke-width: 0.8; stroke-linecap: square"/>
     </g>
     <g id="line2d_2">
      <defs>
       <path id="m2caa45a836" d="M 0 0 
L 0 3.5 
" style="stroke: #000000; stroke-width: 0.8"/>
      </defs>
      <g>
       <use xlink:href="#m2caa45a836" x="43.878125" y="288.430125" style="stroke: #000000; stroke-width: 0.8"/>
      </g>
     </g>
     <g id="text_1">
      <!-- 0.0 -->
      <g transform="translate(35.926563 303.028562) scale(0.1 -0.1)">
       <defs>
        <path id="DejaVuSans-30" d="M 2034 4250 
Q 1547 4250 1301 3770 
Q 1056 3291 1056 2328 
Q 1056 1369 1301 889 
Q 1547 409 2034 409 
Q 2525 409 2770 889 
Q 3016 1369 3016 2328 
Q 3016 3291 2770 3770 
Q 2525 4250 2034 4250 
z
M 2034 4750 
Q 2819 4750 3233 4129 
Q 3647 3509 3647 2328 
Q 3647 1150 3233 529 
Q 2819 -91 2034 -91 
Q 1250 -91 836 529 
Q 422 1150 422 2328 
Q 422 3509 836 4129 
Q 1250 4750 2034 4750 
z
" transform="scale(0.015625)"/>
        <path id="DejaVuSans-2e" d="M 684 794 
L 1344 794 
L 1344 0 
L 684 0 
L 684 794 
z
" transform="scale(0.015625)"/>
       </defs>
       <use xlink:href="#DejaVuSans-30"/>
       <use xlink:href="#DejaVuSans-2e" x="63.623047"/>
       <use xlink:href="#DejaVuSans-30" x="95.410156"/>
      </g>
     </g>
    </g>
    <g id="xtick_2">
     <g id="line2d_3">
      <path d="M 97.251161 288.430125 
L 97.251161 22.318125 
" clip-path="url(#p1917eee993)" style="fill: none; stroke: #b0b0b0; stroke-width: 0.8; stroke-linecap: square"/>
     </g>
     <g id="line2d_4">
      <g>
       <use xlink:href="#m2caa45a836" x="97.251161" y="288.430125" style="stroke: #000000; stroke-width: 0.8"/>
      </g>
     </g>
     <g id="text_2">
      <!-- 0.5 -->
      <g transform="translate(89.299599 303.028562) scale(0.1 -0.1)">
       <defs>
        <path id="DejaVuSans-35" d="M 691 4666 
L 3169 4666 
L 3169 4134 
L 1269 4134 
L 1269 2991 
Q 1406 3038 1543 3061 
Q 1681 3084 1819 3084 
Q 2600 3084 3056 2656 
Q 3513 2228 3513 1497 
Q 3513 744 3044 326 
Q 2575 -91 1722 -91 
Q 1428 -91 1123 -41 
Q 819 9 494 109 
L 494 744 
Q 775 591 1075 516 
Q 1375 441 1709 441 
Q 2250 441 2565 725 
Q 2881 1009 2881 1497 
Q 2881 1984 2565 2268 
Q 2250 2553 1709 2553 
Q 1456 2553 1204 2497 
Q 953 2441 691 2322 
L 691 4666 
z
" transform="scale(0.015625)"/>
       </defs>
       <use xlink:href="#DejaVuSans-30"/>
       <use xlink:href="#DejaVuSans-2e" x="63.623047"/>
       <use xlink:href="#DejaVuSans-35" x="95.410156"/>
      </g>
     </g>
    </g>
    <g id="xtick_3">
     <g id="line2d_5">
      <path d="M 150.624198 288.430125 
L 150.624198 22.318125 
" clip-path="url(#p1917eee993)" style="fill: none; stroke: #b0b0b0; stroke-width: 0.8; stroke-linecap: square"/>
     </g>
     <g id="line2d_6">
      <g>
       <use xlink:href="#m2caa45a836" x="150.624198" y="288.430125" style="stroke: #000000; stroke-width: 0.8"/>
      </g>
     </g>
     <g id="text_3">
      <!-- 1.0 -->
      <g transform="translate(142.672635 303.028562) scale(0.1 -0.1)">
       <defs>
        <path id="DejaVuSans-31" d="M 794 531 
L 1825 531 
L 1825 4091 
L 703 3866 
L 703 4441 
L 1819 4666 
L 2450 4666 
L 2450 531 
L 3481 531 
L 3481 0 
L 794 0 
L 794 531 
z
" transform="scale(0.015625)"/>
       </defs>
       <use xlink:href="#DejaVuSans-31"/>
       <use xlink:href="#DejaVuSans-2e" x="63.623047"/>
       <use xlink:href="#DejaVuSans-30" x="95.410156"/>
      </g>
     </g>
    </g>
    <g id="xtick_4">
     <g id="line2d_7">
      <path d="M 203.997234 288.430125 
L 203.997234 22.318125 
" clip-path="url(#p1917eee993)" style="fill: none; stroke: #b0b0b0; stroke-width: 0.8; stroke-linecap: square"/>
     </g>
     <g id="line2d_8">
      <g>
       <use xlink:href="#m2caa45a836" x="203.997234" y="288.430125" style="stroke: #000000; stroke-width: 0.8"/>
      </g>
     </g>
     <g id="text_4">
      <!-- 1.5 -->
      <g transform="translate(196.045672 303.028562) scale(0.1 -0.1)">
       <use xlink:href="#DejaVuSans-31"/>
       <use xlink:href="#DejaVuSans-2e" x="63.623047"/>
       <use xlink:href="#DejaVuSans-35" x="95.410156"/>
      </g>
     </g>
    </g>
    <g id="xtick_5">
     <g id="line2d_9">
      <path d="M 257.37027 288.430125 
L 257.37027 22.318125 
" clip-path="url(#p1917eee993)" style="fill: none; stroke: #b0b0b0; stroke-width: 0.8; stroke-linecap: square"/>
     </g>
     <g id="line2d_10">
      <g>
       <use xlink:href="#m2caa45a836" x="257.37027" y="288.430125" style="stroke: #000000; stroke-width: 0.8"/>
      </g>
     </g>
     <g id="text_5">
      <!-- 2.0 -->
      <g transform="translate(249.418708 303.028562) scale(0.1 -0.1)">
       <defs>
        <path id="DejaVuSans-32" d="M 1228 531 
L 3431 531 
L 3431 0 
L 469 0 
L 469 531 
Q 828 903 1448 1529 
Q 2069 2156 2228 2338 
Q 2531 2678 2651 2914 
Q 2772 3150 2772 3378 
Q 2772 3750 2511 3984 
Q 2250 4219 1831 4219 
Q 1534 4219 1204 4116 
Q 875 4013 500 3803 
L 500 4441 
Q 881 4594 1212 4672 
Q 1544 4750 1819 4750 
Q 2544 4750 2975 4387 
Q 3406 4025 3406 3419 
Q 3406 3131 3298 2873 
Q 3191 2616 2906 2266 
Q 2828 2175 2409 1742 
Q 1991 1309 1228 531 
z
" transform="scale(0.015625)"/>
       </defs>
       <use xlink:href="#DejaVuSans-32"/>
       <use xlink:href="#DejaVuSans-2e" x="63.623047"/>
       <use xlink:href="#DejaVuSans-30" x="95.410156"/>
      </g>
     </g>
    </g>
    <g id="xtick_6">
     <g id="line2d_11">
      <path d="M 310.743307 288.430125 
L 310.743307 22.318125 
" clip-path="url(#p1917eee993)" style="fill: none; stroke: #b0b0b0; stroke-width: 0.8; stroke-linecap: square"/>
     </g>
     <g id="line2d_12">
      <g>
       <use xlink:href="#m2caa45a836" x="310.743307" y="288.430125" style="stroke: #000000; stroke-width: 0.8"/>
      </g>
     </g>
     <g id="text_6">
      <!-- 2.5 -->
      <g transform="translate(302.791744 303.028562) scale(0.1 -0.1)">
       <use xlink:href="#DejaVuSans-32"/>
       <use xlink:href="#DejaVuSans-2e" x="63.623047"/>
       <use xlink:href="#DejaVuSans-35" x="95.410156"/>
      </g>
     </g>
    </g>
    <g id="xtick_7">
     <g id="line2d_13">
      <path d="M 364.116343 288.430125 
L 364.116343 22.318125 
" clip-path="url(#p1917eee993)" style="fill: none; stroke: #b0b0b0; stroke-width: 0.8; stroke-linecap: square"/>
     </g>
     <g id="line2d_14">
      <g>
       <use xlink:href="#m2caa45a836" x="364.116343" y="288.430125" style="stroke: #000000; stroke-width: 0.8"/>
      </g>
     </g>
     <g id="text_7">
      <!-- 3.0 -->
      <g transform="translate(356.164781 303.028562) scale(0.1 -0.1)">
       <defs>
        <path id="DejaVuSans-33" d="M 2597 2516 
Q 3050 2419 3304 2112 
Q 3559 1806 3559 1356 
Q 3559 666 3084 287 
Q 2609 -91 1734 -91 
Q 1441 -91 1130 -33 
Q 819 25 488 141 
L 488 750 
Q 750 597 1062 519 
Q 1375 441 1716 441 
Q 2309 441 2620 675 
Q 2931 909 2931 1356 
Q 2931 1769 2642 2001 
Q 2353 2234 1838 2234 
L 1294 2234 
L 1294 2753 
L 1863 2753 
Q 2328 2753 2575 2939 
Q 2822 3125 2822 3475 
Q 2822 3834 2567 4026 
Q 2313 4219 1838 4219 
Q 1578 4219 1281 4162 
Q 984 4106 628 3988 
L 628 4550 
Q 988 4650 1302 4700 
Q 1616 4750 1894 4750 
Q 2613 4750 3031 4423 
Q 3450 4097 3450 3541 
Q 3450 3153 3228 2886 
Q 3006 2619 2597 2516 
z
" transform="scale(0.015625)"/>
       </defs>
       <use xlink:href="#DejaVuSans-33"/>
       <use xlink:href="#DejaVuSans-2e" x="63.623047"/>
       <use xlink:href="#DejaVuSans-30" x="95.410156"/>
      </g>
     </g>
    </g>
    <g id="text_8">
     <!-- prediction -->
     <g transform="translate(197.354531 316.706687) scale(0.1 -0.1)">
      <defs>
       <path id="DejaVuSans-70" d="M 1159 525 
L 1159 -1331 
L 581 -1331 
L 581 3500 
L 1159 3500 
L 1159 2969 
Q 1341 3281 1617 3432 
Q 1894 3584 2278 3584 
Q 2916 3584 3314 3078 
Q 3713 2572 3713 1747 
Q 3713 922 3314 415 
Q 2916 -91 2278 -91 
Q 1894 -91 1617 61 
Q 1341 213 1159 525 
z
M 3116 1747 
Q 3116 2381 2855 2742 
Q 2594 3103 2138 3103 
Q 1681 3103 1420 2742 
Q 1159 2381 1159 1747 
Q 1159 1113 1420 752 
Q 1681 391 2138 391 
Q 2594 391 2855 752 
Q 3116 1113 3116 1747 
z
" transform="scale(0.015625)"/>
       <path id="DejaVuSans-72" d="M 2631 2963 
Q 2534 3019 2420 3045 
Q 2306 3072 2169 3072 
Q 1681 3072 1420 2755 
Q 1159 2438 1159 1844 
L 1159 0 
L 581 0 
L 581 3500 
L 1159 3500 
L 1159 2956 
Q 1341 3275 1631 3429 
Q 1922 3584 2338 3584 
Q 2397 3584 2469 3576 
Q 2541 3569 2628 3553 
L 2631 2963 
z
" transform="scale(0.015625)"/>
       <path id="DejaVuSans-65" d="M 3597 1894 
L 3597 1613 
L 953 1613 
Q 991 1019 1311 708 
Q 1631 397 2203 397 
Q 2534 397 2845 478 
Q 3156 559 3463 722 
L 3463 178 
Q 3153 47 2828 -22 
Q 2503 -91 2169 -91 
Q 1331 -91 842 396 
Q 353 884 353 1716 
Q 353 2575 817 3079 
Q 1281 3584 2069 3584 
Q 2775 3584 3186 3129 
Q 3597 2675 3597 1894 
z
M 3022 2063 
Q 3016 2534 2758 2815 
Q 2500 3097 2075 3097 
Q 1594 3097 1305 2825 
Q 1016 2553 972 2059 
L 3022 2063 
z
" transform="scale(0.015625)"/>
       <path id="DejaVuSans-64" d="M 2906 2969 
L 2906 4863 
L 3481 4863 
L 3481 0 
L 2906 0 
L 2906 525 
Q 2725 213 2448 61 
Q 2172 -91 1784 -91 
Q 1150 -91 751 415 
Q 353 922 353 1747 
Q 353 2572 751 3078 
Q 1150 3584 1784 3584 
Q 2172 3584 2448 3432 
Q 2725 3281 2906 2969 
z
M 947 1747 
Q 947 1113 1208 752 
Q 1469 391 1925 391 
Q 2381 391 2643 752 
Q 2906 1113 2906 1747 
Q 2906 2381 2643 2742 
Q 2381 3103 1925 3103 
Q 1469 3103 1208 2742 
Q 947 2381 947 1747 
z
" transform="scale(0.015625)"/>
       <path id="DejaVuSans-69" d="M 603 3500 
L 1178 3500 
L 1178 0 
L 603 0 
L 603 3500 
z
M 603 4863 
L 1178 4863 
L 1178 4134 
L 603 4134 
L 603 4863 
z
" transform="scale(0.015625)"/>
       <path id="DejaVuSans-63" d="M 3122 3366 
L 3122 2828 
Q 2878 2963 2633 3030 
Q 2388 3097 2138 3097 
Q 1578 3097 1268 2742 
Q 959 2388 959 1747 
Q 959 1106 1268 751 
Q 1578 397 2138 397 
Q 2388 397 2633 464 
Q 2878 531 3122 666 
L 3122 134 
Q 2881 22 2623 -34 
Q 2366 -91 2075 -91 
Q 1284 -91 818 406 
Q 353 903 353 1747 
Q 353 2603 823 3093 
Q 1294 3584 2113 3584 
Q 2378 3584 2631 3529 
Q 2884 3475 3122 3366 
z
" transform="scale(0.015625)"/>
       <path id="DejaVuSans-74" d="M 1172 4494 
L 1172 3500 
L 2356 3500 
L 2356 3053 
L 1172 3053 
L 1172 1153 
Q 1172 725 1289 603 
Q 1406 481 1766 481 
L 2356 481 
L 2356 0 
L 1766 0 
Q 1100 0 847 248 
Q 594 497 594 1153 
L 594 3053 
L 172 3053 
L 172 3500 
L 594 3500 
L 594 4494 
L 1172 4494 
z
" transform="scale(0.015625)"/>
       <path id="DejaVuSans-6f" d="M 1959 3097 
Q 1497 3097 1228 2736 
Q 959 2375 959 1747 
Q 959 1119 1226 758 
Q 1494 397 1959 397 
Q 2419 397 2687 759 
Q 2956 1122 2956 1747 
Q 2956 2369 2687 2733 
Q 2419 3097 1959 3097 
z
M 1959 3584 
Q 2709 3584 3137 3096 
Q 3566 2609 3566 1747 
Q 3566 888 3137 398 
Q 2709 -91 1959 -91 
Q 1206 -91 779 398 
Q 353 888 353 1747 
Q 353 2609 779 3096 
Q 1206 3584 1959 3584 
z
" transform="scale(0.015625)"/>
       <path id="DejaVuSans-6e" d="M 3513 2113 
L 3513 0 
L 2938 0 
L 2938 2094 
Q 2938 2591 2744 2837 
Q 2550 3084 2163 3084 
Q 1697 3084 1428 2787 
Q 1159 2491 1159 1978 
L 1159 0 
L 581 0 
L 581 3500 
L 1159 3500 
L 1159 2956 
Q 1366 3272 1645 3428 
Q 1925 3584 2291 3584 
Q 2894 3584 3203 3211 
Q 3513 2838 3513 2113 
z
" transform="scale(0.015625)"/>
      </defs>
      <use xlink:href="#DejaVuSans-70"/>
      <use xlink:href="#DejaVuSans-72" x="63.476562"/>
      <use xlink:href="#DejaVuSans-65" x="102.339844"/>
      <use xlink:href="#DejaVuSans-64" x="163.863281"/>
      <use xlink:href="#DejaVuSans-69" x="227.339844"/>
      <use xlink:href="#DejaVuSans-63" x="255.123047"/>
      <use xlink:href="#DejaVuSans-74" x="310.103516"/>
      <use xlink:href="#DejaVuSans-69" x="349.3125"/>
      <use xlink:href="#DejaVuSans-6f" x="377.095703"/>
      <use xlink:href="#DejaVuSans-6e" x="438.277344"/>
     </g>
    </g>
   </g>
   <g id="matplotlib.axis_2">
    <g id="ytick_1">
     <g id="line2d_15">
      <path d="M 43.878125 288.430125 
L 400.998125 288.430125 
" clip-path="url(#p1917eee993)" style="fill: none; stroke: #b0b0b0; stroke-width: 0.8; stroke-linecap: square"/>
     </g>
     <g id="line2d_16">
      <defs>
       <path id="m2e06233d7d" d="M 0 0 
L -3.5 0 
" style="stroke: #000000; stroke-width: 0.8"/>
      </defs>
      <g>
       <use xlink:href="#m2e06233d7d" x="43.878125" y="288.430125" style="stroke: #000000; stroke-width: 0.8"/>
      </g>
     </g>
     <g id="text_9">
      <!-- $\mathdefault{0.0}$ -->
      <g transform="translate(20.878125 292.229344) scale(0.1 -0.1)">
       <use xlink:href="#DejaVuSans-30" transform="translate(0 0.78125)"/>
       <use xlink:href="#DejaVuSans-2e" transform="translate(63.623047 0.78125)"/>
       <use xlink:href="#DejaVuSans-30" transform="translate(95.410156 0.78125)"/>
      </g>
     </g>
    </g>
    <g id="ytick_2">
     <g id="line2d_17">
      <path d="M 43.878125 258.602396 
L 400.998125 258.602396 
" clip-path="url(#p1917eee993)" style="fill: none; stroke: #b0b0b0; stroke-width: 0.8; stroke-linecap: square"/>
     </g>
     <g id="line2d_18">
      <g>
       <use xlink:href="#m2e06233d7d" x="43.878125" y="258.602396" style="stroke: #000000; stroke-width: 0.8"/>
      </g>
     </g>
     <g id="text_10">
      <!-- $\mathdefault{0.5}$ -->
      <g transform="translate(20.878125 262.401615) scale(0.1 -0.1)">
       <use xlink:href="#DejaVuSans-30" transform="translate(0 0.78125)"/>
       <use xlink:href="#DejaVuSans-2e" transform="translate(63.623047 0.78125)"/>
       <use xlink:href="#DejaVuSans-35" transform="translate(95.410156 0.78125)"/>
      </g>
     </g>
    </g>
    <g id="ytick_3">
     <g id="line2d_19">
      <path d="M 43.878125 228.774667 
L 400.998125 228.774667 
" clip-path="url(#p1917eee993)" style="fill: none; stroke: #b0b0b0; stroke-width: 0.8; stroke-linecap: square"/>
     </g>
     <g id="line2d_20">
      <g>
       <use xlink:href="#m2e06233d7d" x="43.878125" y="228.774667" style="stroke: #000000; stroke-width: 0.8"/>
      </g>
     </g>
     <g id="text_11">
      <!-- $\mathdefault{1.0}$ -->
      <g transform="translate(20.878125 232.573886) scale(0.1 -0.1)">
       <use xlink:href="#DejaVuSans-31" transform="translate(0 0.78125)"/>
       <use xlink:href="#DejaVuSans-2e" transform="translate(63.623047 0.78125)"/>
       <use xlink:href="#DejaVuSans-30" transform="translate(95.410156 0.78125)"/>
      </g>
     </g>
    </g>
    <g id="ytick_4">
     <g id="line2d_21">
      <path d="M 43.878125 198.946939 
L 400.998125 198.946939 
" clip-path="url(#p1917eee993)" style="fill: none; stroke: #b0b0b0; stroke-width: 0.8; stroke-linecap: square"/>
     </g>
     <g id="line2d_22">
      <g>
       <use xlink:href="#m2e06233d7d" x="43.878125" y="198.946939" style="stroke: #000000; stroke-width: 0.8"/>
      </g>
     </g>
     <g id="text_12">
      <!-- $\mathdefault{1.5}$ -->
      <g transform="translate(20.878125 202.746157) scale(0.1 -0.1)">
       <use xlink:href="#DejaVuSans-31" transform="translate(0 0.09375)"/>
       <use xlink:href="#DejaVuSans-2e" transform="translate(63.623047 0.09375)"/>
       <use xlink:href="#DejaVuSans-35" transform="translate(95.410156 0.09375)"/>
      </g>
     </g>
    </g>
    <g id="ytick_5">
     <g id="line2d_23">
      <path d="M 43.878125 169.11921 
L 400.998125 169.11921 
" clip-path="url(#p1917eee993)" style="fill: none; stroke: #b0b0b0; stroke-width: 0.8; stroke-linecap: square"/>
     </g>
     <g id="line2d_24">
      <g>
       <use xlink:href="#m2e06233d7d" x="43.878125" y="169.11921" style="stroke: #000000; stroke-width: 0.8"/>
      </g>
     </g>
     <g id="text_13">
      <!-- $\mathdefault{2.0}$ -->
      <g transform="translate(20.878125 172.918429) scale(0.1 -0.1)">
       <use xlink:href="#DejaVuSans-32" transform="translate(0 0.78125)"/>
       <use xlink:href="#DejaVuSans-2e" transform="translate(63.623047 0.78125)"/>
       <use xlink:href="#DejaVuSans-30" transform="translate(95.410156 0.78125)"/>
      </g>
     </g>
    </g>
    <g id="ytick_6">
     <g id="line2d_25">
      <path d="M 43.878125 139.291481 
L 400.998125 139.291481 
" clip-path="url(#p1917eee993)" style="fill: none; stroke: #b0b0b0; stroke-width: 0.8; stroke-linecap: square"/>
     </g>
     <g id="line2d_26">
      <g>
       <use xlink:href="#m2e06233d7d" x="43.878125" y="139.291481" style="stroke: #000000; stroke-width: 0.8"/>
      </g>
     </g>
     <g id="text_14">
      <!-- $\mathdefault{2.5}$ -->
      <g transform="translate(20.878125 143.0907) scale(0.1 -0.1)">
       <use xlink:href="#DejaVuSans-32" transform="translate(0 0.78125)"/>
       <use xlink:href="#DejaVuSans-2e" transform="translate(63.623047 0.78125)"/>
       <use xlink:href="#DejaVuSans-35" transform="translate(95.410156 0.78125)"/>
      </g>
     </g>
    </g>
    <g id="ytick_7">
     <g id="line2d_27">
      <path d="M 43.878125 109.463752 
L 400.998125 109.463752 
" clip-path="url(#p1917eee993)" style="fill: none; stroke: #b0b0b0; stroke-width: 0.8; stroke-linecap: square"/>
     </g>
     <g id="line2d_28">
      <g>
       <use xlink:href="#m2e06233d7d" x="43.878125" y="109.463752" style="stroke: #000000; stroke-width: 0.8"/>
      </g>
     </g>
     <g id="text_15">
      <!-- $\mathdefault{3.0}$ -->
      <g transform="translate(20.878125 113.262971) scale(0.1 -0.1)">
       <use xlink:href="#DejaVuSans-33" transform="translate(0 0.78125)"/>
       <use xlink:href="#DejaVuSans-2e" transform="translate(63.623047 0.78125)"/>
       <use xlink:href="#DejaVuSans-30" transform="translate(95.410156 0.78125)"/>
      </g>
     </g>
    </g>
    <g id="ytick_8">
     <g id="line2d_29">
      <path d="M 43.878125 79.636023 
L 400.998125 79.636023 
" clip-path="url(#p1917eee993)" style="fill: none; stroke: #b0b0b0; stroke-width: 0.8; stroke-linecap: square"/>
     </g>
     <g id="line2d_30">
      <g>
       <use xlink:href="#m2e06233d7d" x="43.878125" y="79.636023" style="stroke: #000000; stroke-width: 0.8"/>
      </g>
     </g>
     <g id="text_16">
      <!-- $\mathdefault{3.5}$ -->
      <g transform="translate(20.878125 83.435242) scale(0.1 -0.1)">
       <use xlink:href="#DejaVuSans-33" transform="translate(0 0.78125)"/>
       <use xlink:href="#DejaVuSans-2e" transform="translate(63.623047 0.78125)"/>
       <use xlink:href="#DejaVuSans-35" transform="translate(95.410156 0.78125)"/>
      </g>
     </g>
    </g>
    <g id="ytick_9">
     <g id="line2d_31">
      <path d="M 43.878125 49.808295 
L 400.998125 49.808295 
" clip-path="url(#p1917eee993)" style="fill: none; stroke: #b0b0b0; stroke-width: 0.8; stroke-linecap: square"/>
     </g>
     <g id="line2d_32">
      <g>
       <use xlink:href="#m2e06233d7d" x="43.878125" y="49.808295" style="stroke: #000000; stroke-width: 0.8"/>
      </g>
     </g>
     <g id="text_17">
      <!-- $\mathdefault{4.0}$ -->
      <g transform="translate(20.878125 53.607513) scale(0.1 -0.1)">
       <defs>
        <path id="DejaVuSans-34" d="M 2419 4116 
L 825 1625 
L 2419 1625 
L 2419 4116 
z
M 2253 4666 
L 3047 4666 
L 3047 1625 
L 3713 1625 
L 3713 1100 
L 3047 1100 
L 3047 0 
L 2419 0 
L 2419 1100 
L 313 1100 
L 313 1709 
L 2253 4666 
z
" transform="scale(0.015625)"/>
       </defs>
       <use xlink:href="#DejaVuSans-34" transform="translate(0 0.78125)"/>
       <use xlink:href="#DejaVuSans-2e" transform="translate(63.623047 0.78125)"/>
       <use xlink:href="#DejaVuSans-30" transform="translate(95.410156 0.78125)"/>
      </g>
     </g>
    </g>
    <g id="text_18">
     <!-- actual -->
     <g transform="translate(14.798438 170.769437) rotate(-90) scale(0.1 -0.1)">
      <defs>
       <path id="DejaVuSans-61" d="M 2194 1759 
Q 1497 1759 1228 1600 
Q 959 1441 959 1056 
Q 959 750 1161 570 
Q 1363 391 1709 391 
Q 2188 391 2477 730 
Q 2766 1069 2766 1631 
L 2766 1759 
L 2194 1759 
z
M 3341 1997 
L 3341 0 
L 2766 0 
L 2766 531 
Q 2569 213 2275 61 
Q 1981 -91 1556 -91 
Q 1019 -91 701 211 
Q 384 513 384 1019 
Q 384 1609 779 1909 
Q 1175 2209 1959 2209 
L 2766 2209 
L 2766 2266 
Q 2766 2663 2505 2880 
Q 2244 3097 1772 3097 
Q 1472 3097 1187 3025 
Q 903 2953 641 2809 
L 641 3341 
Q 956 3463 1253 3523 
Q 1550 3584 1831 3584 
Q 2591 3584 2966 3190 
Q 3341 2797 3341 1997 
z
" transform="scale(0.015625)"/>
       <path id="DejaVuSans-75" d="M 544 1381 
L 544 3500 
L 1119 3500 
L 1119 1403 
Q 1119 906 1312 657 
Q 1506 409 1894 409 
Q 2359 409 2629 706 
Q 2900 1003 2900 1516 
L 2900 3500 
L 3475 3500 
L 3475 0 
L 2900 0 
L 2900 538 
Q 2691 219 2414 64 
Q 2138 -91 1772 -91 
Q 1169 -91 856 284 
Q 544 659 544 1381 
z
M 1991 3584 
L 1991 3584 
z
" transform="scale(0.015625)"/>
       <path id="DejaVuSans-6c" d="M 603 4863 
L 1178 4863 
L 1178 0 
L 603 0 
L 603 4863 
z
" transform="scale(0.015625)"/>
      </defs>
      <use xlink:href="#DejaVuSans-61"/>
      <use xlink:href="#DejaVuSans-63" x="61.279297"/>
      <use xlink:href="#DejaVuSans-74" x="116.259766"/>
      <use xlink:href="#DejaVuSans-75" x="155.46875"/>
      <use xlink:href="#DejaVuSans-61" x="218.847656"/>
      <use xlink:href="#DejaVuSans-6c" x="280.126953"/>
     </g>
    </g>
   </g>
   <g id="line2d_33">
    <path d="M -0.283462 313.109999 
L -1 313.51044 
M -1 313.51044 
L 131.663191 239.3711 
L -1 313.51044 
M -1 313.51044 
L 269.962467 162.082012 
L 8.458886 308.224304 
L 32.303443 294.898681 
L -1 313.51044 
M -1 313.51044 
L -0.534964 313.250553 
L 98.911504 257.674507 
L -1 313.51044 
M -1 313.51044 
L 73.902729 271.650758 
L 221.000646 189.444516 
L -1 313.51044 
M -1 313.51044 
L 232.334468 183.110565 
L -1 313.51044 
M -1 313.51044 
L 228.177781 185.433546 
L 139.440316 235.024823 
L -1 313.51044 
M -1 313.51044 
L 251.818974 172.221574 
L -1 313.51044 
M -1 313.51044 
L 306.019741 141.931264 
L 43.206593 288.805413 
L -1 313.51044 
M -1 313.51044 
L 13.877905 305.195864 
L -1 313.51044 
M -1 313.51044 
L 146.994286 230.803258 
L -1 313.51044 
M -1 313.51044 
L 42.726293 289.073831 
L -1 313.51044 
M -1 313.51044 
L 197.601498 202.521221 
L 355.333081 114.372312 
L -1 313.51044 
M -1 313.51044 
L 266.676051 163.918638 
L 161.329132 222.792174 
L -1 313.51044 
M -1 313.51044 
L 181.007797 211.794675 
L 241.741656 177.853322 
L 151.343218 228.37284 
L -1 313.51044 
M -1 313.51044 
L 180.945126 211.829699 
L -1 313.51044 
M -1 313.51044 
L 5.772736 309.72547 
L -1 313.51044 
M -1 313.51044 
L 10.314196 307.187457 
L -1 313.51044 
M -1 313.51044 
L 31.056329 295.595636 
L 123.956042 243.67827 
L 86.096662 264.836132 
L -1 313.51044 
M -1 313.51044 
L 284.477176 153.97041 
L -1 313.51044 
M -1 313.51044 
L 64.872126 276.697546 
L 191.581089 205.885749 
L -1 313.51044 
M -1 313.51044 
L 131.01414 239.733824 
L -1 313.51044 
M -1 313.51044 
L 195.223312 203.850279 
L 112.543865 250.056009 
L -1 313.51044 
M -1 313.51044 
L 159.903829 223.58871 
L -1 313.51044 
M -1 313.51044 
L 182.961192 210.703012 
L -1 313.51044 
M -1 313.51044 
L 17.355284 303.252518 
L 190.406344 206.54226 
L 251.519488 172.388942 
L 83.286967 266.40634 
L 76.363033 270.275808 
L 132.369353 238.976458 
L -1 313.51044 
M -1 313.51044 
L 15.161418 304.478568 
L 379.454367 100.892038 
L -1 313.51044 
M -1 313.51044 
L 3.417914 311.041471 
L 204.435067 198.702254 
" clip-path="url(#p1917eee993)" style="fill: none; stroke: #000000; stroke-opacity: 0.5; stroke-width: 1.5; stroke-linecap: square"/>
   </g>
   <g id="line2d_34">
    <path d="M -0.283462 252.690932 
L -1 253.091372 
M -1 253.091372 
L 131.663191 178.952032 
L -1 253.091372 
M -1 253.091371 
L 269.962467 101.662937 
L 8.458886 247.805235 
L 32.303443 234.479614 
L -1 253.091372 
M -1 253.09137 
L -0.534964 252.831483 
L 98.911504 197.255443 
L -1 253.091373 
M -1 253.091371 
L 73.902729 211.231687 
L 221.000646 129.025455 
L -1 253.091373 
M -1 253.091372 
L 232.334468 122.691498 
L -1 253.091372 
M -1 253.091372 
L 228.177781 125.014478 
L 139.440316 174.605756 
L -1 253.091372 
M -1 253.091372 
L 251.818974 111.802506 
L -1 253.091372 
M -1 253.091372 
L 306.019741 81.512204 
L 43.206593 228.386345 
L -1 253.091372 
M -1 253.091371 
L 13.877905 244.776795 
L -1 253.091371 
M -1 253.091372 
L 146.994286 170.384186 
L -1 253.091371 
M -1 253.091371 
L 42.726293 228.654761 
L -1 253.091371 
M -1 253.091372 
L 197.601498 142.102153 
L 355.333081 53.953238 
L -1 253.091372 
M -1 253.091373 
L 266.676051 103.499577 
L 161.329132 162.373113 
L -1 253.091373 
M -1 253.091372 
L 181.007797 151.3756 
L 241.741656 117.434247 
L 151.343218 167.95378 
L -1 253.091371 
M -1 253.09137 
L 180.945126 151.410631 
L -1 253.091372 
M -1 253.091372 
L 5.772736 249.306402 
L -1 253.091372 
M -1 253.091371 
L 10.314196 246.768388 
L -1 253.091371 
M -1 253.091372 
L 31.056329 235.176568 
L 123.956042 183.259202 
L 86.096662 204.417064 
L -1 253.091372 
M -1 253.091372 
L 284.477176 93.55135 
L -1 253.091373 
M -1 253.091372 
L 64.872126 216.27848 
L 191.581089 145.466682 
L -1 253.091372 
M -1 253.091373 
L 131.01414 179.314761 
L -1 253.091372 
M -1 253.091373 
L 195.223312 143.431218 
L 112.543865 189.636938 
L -1 253.091371 
M -1 253.091372 
L 159.903829 163.169642 
L -1 253.091372 
M -1 253.091372 
L 182.961192 150.283945 
L -1 253.091372 
M -1 253.091372 
L 17.355284 242.83345 
L 190.406344 146.1232 
L 251.519488 111.969868 
L 83.286967 205.987273 
L 76.363033 209.856738 
L 132.369353 178.557387 
L -1 253.091371 
M -1 253.091373 
L 15.161418 244.059502 
L 379.454367 40.472963 
L -1 253.091372 
M -1 253.091372 
L 3.417914 250.622404 
L 204.435067 138.283186 
" clip-path="url(#p1917eee993)" style="fill: none; stroke-dasharray: 5.55,2.4; stroke-dashoffset: 0; stroke: #0000ff; stroke-width: 1.5"/>
   </g>
   <g id="line2d_35">
    <path d="M 82.998936 326.986375 
L 131.663191 299.790167 
L 82.998935 326.986375 
M 82.998933 326.986375 
L 269.962467 222.501079 
L 82.998934 326.986375 
M 82.998936 326.986375 
L 98.911504 318.093575 
L 82.998936 326.986375 
M 82.998936 326.986375 
L 221.000646 249.863583 
L 82.99894 326.986375 
M 82.99894 326.986375 
L 232.334468 243.529633 
L 82.998936 326.986375 
M 82.99894 326.986375 
L 228.177781 245.852613 
L 139.440316 295.443891 
L 82.998934 326.986375 
M 82.998933 326.986375 
L 251.818974 232.640641 
L 82.998936 326.986375 
M 82.998936 326.986375 
L 306.019741 202.350332 
L 82.998935 326.986375 
M 82.998939 326.986375 
L 146.994286 291.222325 
L 82.998936 326.986375 
M 82.998936 326.986375 
L 197.601498 262.940288 
L 355.333081 174.79138 
L 82.998941 326.986375 
M 82.998932 326.986375 
L 266.676051 224.337705 
L 161.329132 283.211241 
L 82.998936 326.986375 
M 82.998936 326.986375 
L 181.007797 272.213742 
L 241.741656 238.272389 
L 151.343218 288.791908 
L 82.998935 326.986375 
M 82.998935 326.986375 
L 180.945126 272.248766 
L 82.998936 326.986375 
M 82.998936 326.986375 
L 123.956042 304.097337 
L 86.096662 325.255199 
L 82.998936 326.986375 
M 82.998932 326.986375 
L 284.477176 214.389478 
L 82.998936 326.986375 
M 82.998939 326.986375 
L 191.581089 266.304817 
L 82.998939 326.986375 
M 82.998938 326.986375 
L 131.01414 300.152892 
L 82.998934 326.986375 
M 82.998939 326.986375 
L 195.223312 264.269346 
L 112.543865 310.475077 
L 82.998936 326.986375 
M 82.998936 326.986375 
L 159.903829 284.007777 
L 82.998934 326.986375 
M 82.998933 326.986375 
L 182.961192 271.12208 
L 82.998936 326.986375 
M 82.998932 326.986375 
L 190.406344 266.961328 
L 251.519488 232.80801 
L 83.286967 326.825408 
L 82.998936 326.986375 
M 82.998934 326.986375 
L 132.369353 299.395526 
L 82.998938 326.986375 
M 82.998941 326.986375 
L 379.454367 161.311112 
L 82.998944 326.986375 
M 82.998933 326.986375 
L 204.435067 259.121321 
" clip-path="url(#p1917eee993)" style="fill: none; stroke-dasharray: 5.55,2.4; stroke-dashoffset: 0; stroke: #0000ff; stroke-width: 1.5"/>
   </g>
   <g id="line2d_36">
    <path d="M 224.481553 125.61776 
L -1 251.629002 
M -1 251.629003 
L 8.069045 246.560732 
L 166.769644 157.870292 
L -1 251.629003 
M -1 251.629002 
L 130.169554 178.324387 
L -1 251.629002 
M -1 251.629002 
L 60.421474 217.303373 
L -1 251.629002 
M -1 251.629002 
L 82.970395 204.701822 
L -1 251.629002 
M -1 251.629001 
L 128.076494 179.494098 
L -1 251.629001 
M -1 251.629001 
L 181.027457 149.902243 
L 185.9066 147.175529 
L -1 251.629003 
M -1 251.629002 
L 196.014128 141.526891 
L 249.382443 111.701793 
L 255.14737 108.480049 
L 214.791053 131.03334 
L -1 251.629003 
M -1 251.629001 
L 200.125068 139.229469 
L 212.772327 132.161506 
L 170.70471 155.671165 
L 183.170699 148.704498 
L -1 251.629003 
M -1 251.629001 
L 27.859229 235.500909 
L -1 251.629001 
M -1 251.629002 
L 204.579129 136.740307 
L -1 251.629002 
" clip-path="url(#p1917eee993)" style="fill: none; stroke-dasharray: 5.55,2.4; stroke-dashoffset: 0; stroke: #008000; stroke-width: 1.5"/>
   </g>
   <g id="line2d_37">
    <path d="M 224.481553 249.380635 
L 85.61567 326.986375 
M 85.615669 326.986375 
L 166.769644 281.63316 
L 85.615665 326.986375 
M 85.615665 326.986375 
L 130.169554 302.087262 
L 85.615666 326.986375 
M 85.615669 326.986375 
L 128.076494 303.256977 
L 85.615667 326.986375 
M 85.61567 326.986375 
L 181.027457 273.665125 
L 185.9066 270.938397 
L 85.615667 326.986375 
M 85.61567 326.986375 
L 196.014128 265.289766 
L 249.382443 235.464676 
L 255.14737 232.242924 
L 214.791053 254.796209 
L 85.615664 326.986375 
M 85.61567 326.986375 
L 200.125068 262.992351 
L 212.772327 255.924382 
L 170.70471 279.434033 
L 183.170699 272.467366 
L 85.615667 326.986375 
M 85.615664 326.986375 
L 204.579129 260.503182 
L 85.615664 326.986375 
" clip-path="url(#p1917eee993)" style="fill: none; stroke-dasharray: 5.55,2.4; stroke-dashoffset: 0; stroke: #008000; stroke-width: 1.5"/>
   </g>
   <g id="patch_3">
    <path d="M 43.878125 288.430125 
L 43.878125 22.318125 
" style="fill: none; stroke: #000000; stroke-width: 0.8; stroke-linejoin: miter; stroke-linecap: square"/>
   </g>
   <g id="patch_4">
    <path d="M 400.998125 288.430125 
L 400.998125 22.318125 
" style="fill: none; stroke: #000000; stroke-width: 0.8; stroke-linejoin: miter; stroke-linecap: square"/>
   </g>
   <g id="patch_5">
    <path d="M 43.878125 288.430125 
L 400.998125 288.430125 
" style="fill: none; stroke: #000000; stroke-width: 0.8; stroke-linejoin: miter; stroke-linecap: square"/>
   </g>
   <g id="patch_6">
    <path d="M 43.878125 22.318125 
L 400.998125 22.318125 
" style="fill: none; stroke: #000000; stroke-width: 0.8; stroke-linejoin: miter; stroke-linecap: square"/>
   </g>
   <g id="text_19">
    <!-- XGBoost R-square plot Standard Scaler -->
    <g transform="translate(105.176563 16.318125) scale(0.12 -0.12)">
     <defs>
      <path id="DejaVuSans-58" d="M 403 4666 
L 1081 4666 
L 2241 2931 
L 3406 4666 
L 4084 4666 
L 2584 2425 
L 4184 0 
L 3506 0 
L 2194 1984 
L 872 0 
L 191 0 
L 1856 2491 
L 403 4666 
z
" transform="scale(0.015625)"/>
      <path id="DejaVuSans-47" d="M 3809 666 
L 3809 1919 
L 2778 1919 
L 2778 2438 
L 4434 2438 
L 4434 434 
Q 4069 175 3628 42 
Q 3188 -91 2688 -91 
Q 1594 -91 976 548 
Q 359 1188 359 2328 
Q 359 3472 976 4111 
Q 1594 4750 2688 4750 
Q 3144 4750 3555 4637 
Q 3966 4525 4313 4306 
L 4313 3634 
Q 3963 3931 3569 4081 
Q 3175 4231 2741 4231 
Q 1884 4231 1454 3753 
Q 1025 3275 1025 2328 
Q 1025 1384 1454 906 
Q 1884 428 2741 428 
Q 3075 428 3337 486 
Q 3600 544 3809 666 
z
" transform="scale(0.015625)"/>
      <path id="DejaVuSans-42" d="M 1259 2228 
L 1259 519 
L 2272 519 
Q 2781 519 3026 730 
Q 3272 941 3272 1375 
Q 3272 1813 3026 2020 
Q 2781 2228 2272 2228 
L 1259 2228 
z
M 1259 4147 
L 1259 2741 
L 2194 2741 
Q 2656 2741 2882 2914 
Q 3109 3088 3109 3444 
Q 3109 3797 2882 3972 
Q 2656 4147 2194 4147 
L 1259 4147 
z
M 628 4666 
L 2241 4666 
Q 2963 4666 3353 4366 
Q 3744 4066 3744 3513 
Q 3744 3084 3544 2831 
Q 3344 2578 2956 2516 
Q 3422 2416 3680 2098 
Q 3938 1781 3938 1306 
Q 3938 681 3513 340 
Q 3088 0 2303 0 
L 628 0 
L 628 4666 
z
" transform="scale(0.015625)"/>
      <path id="DejaVuSans-73" d="M 2834 3397 
L 2834 2853 
Q 2591 2978 2328 3040 
Q 2066 3103 1784 3103 
Q 1356 3103 1142 2972 
Q 928 2841 928 2578 
Q 928 2378 1081 2264 
Q 1234 2150 1697 2047 
L 1894 2003 
Q 2506 1872 2764 1633 
Q 3022 1394 3022 966 
Q 3022 478 2636 193 
Q 2250 -91 1575 -91 
Q 1294 -91 989 -36 
Q 684 19 347 128 
L 347 722 
Q 666 556 975 473 
Q 1284 391 1588 391 
Q 1994 391 2212 530 
Q 2431 669 2431 922 
Q 2431 1156 2273 1281 
Q 2116 1406 1581 1522 
L 1381 1569 
Q 847 1681 609 1914 
Q 372 2147 372 2553 
Q 372 3047 722 3315 
Q 1072 3584 1716 3584 
Q 2034 3584 2315 3537 
Q 2597 3491 2834 3397 
z
" transform="scale(0.015625)"/>
      <path id="DejaVuSans-20" transform="scale(0.015625)"/>
      <path id="DejaVuSans-52" d="M 2841 2188 
Q 3044 2119 3236 1894 
Q 3428 1669 3622 1275 
L 4263 0 
L 3584 0 
L 2988 1197 
Q 2756 1666 2539 1819 
Q 2322 1972 1947 1972 
L 1259 1972 
L 1259 0 
L 628 0 
L 628 4666 
L 2053 4666 
Q 2853 4666 3247 4331 
Q 3641 3997 3641 3322 
Q 3641 2881 3436 2590 
Q 3231 2300 2841 2188 
z
M 1259 4147 
L 1259 2491 
L 2053 2491 
Q 2509 2491 2742 2702 
Q 2975 2913 2975 3322 
Q 2975 3731 2742 3939 
Q 2509 4147 2053 4147 
L 1259 4147 
z
" transform="scale(0.015625)"/>
      <path id="DejaVuSans-2d" d="M 313 2009 
L 1997 2009 
L 1997 1497 
L 313 1497 
L 313 2009 
z
" transform="scale(0.015625)"/>
      <path id="DejaVuSans-71" d="M 947 1747 
Q 947 1113 1208 752 
Q 1469 391 1925 391 
Q 2381 391 2643 752 
Q 2906 1113 2906 1747 
Q 2906 2381 2643 2742 
Q 2381 3103 1925 3103 
Q 1469 3103 1208 2742 
Q 947 2381 947 1747 
z
M 2906 525 
Q 2725 213 2448 61 
Q 2172 -91 1784 -91 
Q 1150 -91 751 415 
Q 353 922 353 1747 
Q 353 2572 751 3078 
Q 1150 3584 1784 3584 
Q 2172 3584 2448 3432 
Q 2725 3281 2906 2969 
L 2906 3500 
L 3481 3500 
L 3481 -1331 
L 2906 -1331 
L 2906 525 
z
" transform="scale(0.015625)"/>
      <path id="DejaVuSans-53" d="M 3425 4513 
L 3425 3897 
Q 3066 4069 2747 4153 
Q 2428 4238 2131 4238 
Q 1616 4238 1336 4038 
Q 1056 3838 1056 3469 
Q 1056 3159 1242 3001 
Q 1428 2844 1947 2747 
L 2328 2669 
Q 3034 2534 3370 2195 
Q 3706 1856 3706 1288 
Q 3706 609 3251 259 
Q 2797 -91 1919 -91 
Q 1588 -91 1214 -16 
Q 841 59 441 206 
L 441 856 
Q 825 641 1194 531 
Q 1563 422 1919 422 
Q 2459 422 2753 634 
Q 3047 847 3047 1241 
Q 3047 1584 2836 1778 
Q 2625 1972 2144 2069 
L 1759 2144 
Q 1053 2284 737 2584 
Q 422 2884 422 3419 
Q 422 4038 858 4394 
Q 1294 4750 2059 4750 
Q 2388 4750 2728 4690 
Q 3069 4631 3425 4513 
z
" transform="scale(0.015625)"/>
     </defs>
     <use xlink:href="#DejaVuSans-58"/>
     <use xlink:href="#DejaVuSans-47" x="68.505859"/>
     <use xlink:href="#DejaVuSans-42" x="145.996094"/>
     <use xlink:href="#DejaVuSans-6f" x="214.599609"/>
     <use xlink:href="#DejaVuSans-6f" x="275.78125"/>
     <use xlink:href="#DejaVuSans-73" x="336.962891"/>
     <use xlink:href="#DejaVuSans-74" x="389.0625"/>
     <use xlink:href="#DejaVuSans-20" x="428.271484"/>
     <use xlink:href="#DejaVuSans-52" x="460.058594"/>
     <use xlink:href="#DejaVuSans-2d" x="525.541016"/>
     <use xlink:href="#DejaVuSans-73" x="561.625"/>
     <use xlink:href="#DejaVuSans-71" x="613.724609"/>
     <use xlink:href="#DejaVuSans-75" x="677.201172"/>
     <use xlink:href="#DejaVuSans-61" x="740.580078"/>
     <use xlink:href="#DejaVuSans-72" x="801.859375"/>
     <use xlink:href="#DejaVuSans-65" x="840.722656"/>
     <use xlink:href="#DejaVuSans-20" x="902.246094"/>
     <use xlink:href="#DejaVuSans-70" x="934.033203"/>
     <use xlink:href="#DejaVuSans-6c" x="997.509766"/>
     <use xlink:href="#DejaVuSans-6f" x="1025.292969"/>
     <use xlink:href="#DejaVuSans-74" x="1086.474609"/>
     <use xlink:href="#DejaVuSans-20" x="1125.683594"/>
     <use xlink:href="#DejaVuSans-53" x="1157.470703"/>
     <use xlink:href="#DejaVuSans-74" x="1220.947266"/>
     <use xlink:href="#DejaVuSans-61" x="1260.15625"/>
     <use xlink:href="#DejaVuSans-6e" x="1321.435547"/>
     <use xlink:href="#DejaVuSans-64" x="1384.814453"/>
     <use xlink:href="#DejaVuSans-61" x="1448.291016"/>
     <use xlink:href="#DejaVuSans-72" x="1509.570312"/>
     <use xlink:href="#DejaVuSans-64" x="1548.933594"/>
     <use xlink:href="#DejaVuSans-20" x="1612.410156"/>
     <use xlink:href="#DejaVuSans-53" x="1644.197266"/>
     <use xlink:href="#DejaVuSans-63" x="1707.673828"/>
     <use xlink:href="#DejaVuSans-61" x="1762.654297"/>
     <use xlink:href="#DejaVuSans-6c" x="1823.933594"/>
     <use xlink:href="#DejaVuSans-65" x="1851.716797"/>
     <use xlink:href="#DejaVuSans-72" x="1913.240234"/>
    </g>
   </g>
   <g id="legend_1">
    <g id="patch_7">
     <path d="M 50.878125 59.674375 
L 213.476563 59.674375 
Q 215.476563 59.674375 215.476563 57.674375 
L 215.476563 29.318125 
Q 215.476563 27.318125 213.476563 27.318125 
L 50.878125 27.318125 
Q 48.878125 27.318125 48.878125 29.318125 
L 48.878125 57.674375 
Q 48.878125 59.674375 50.878125 59.674375 
z
" style="fill: #ffffff; opacity: 0.8; stroke: #cccccc; stroke-linejoin: miter"/>
    </g>
    <g id="PathCollection_3">
     <g>
      <use xlink:href="#m73927b3e9c" x="62.878125" y="36.291562" style="fill: #0000ff; fill-opacity: 0.5; stroke: #0000ff; stroke-opacity: 0.5"/>
     </g>
    </g>
    <g id="text_20">
     <!-- Train R-squared = 99.96% -->
     <g transform="translate(80.878125 38.916562) scale(0.1 -0.1)">
      <defs>
       <path id="DejaVuSans-54" d="M -19 4666 
L 3928 4666 
L 3928 4134 
L 2272 4134 
L 2272 0 
L 1638 0 
L 1638 4134 
L -19 4134 
L -19 4666 
z
" transform="scale(0.015625)"/>
       <path id="DejaVuSans-3d" d="M 678 2906 
L 4684 2906 
L 4684 2381 
L 678 2381 
L 678 2906 
z
M 678 1631 
L 4684 1631 
L 4684 1100 
L 678 1100 
L 678 1631 
z
" transform="scale(0.015625)"/>
       <path id="DejaVuSans-39" d="M 703 97 
L 703 672 
Q 941 559 1184 500 
Q 1428 441 1663 441 
Q 2288 441 2617 861 
Q 2947 1281 2994 2138 
Q 2813 1869 2534 1725 
Q 2256 1581 1919 1581 
Q 1219 1581 811 2004 
Q 403 2428 403 3163 
Q 403 3881 828 4315 
Q 1253 4750 1959 4750 
Q 2769 4750 3195 4129 
Q 3622 3509 3622 2328 
Q 3622 1225 3098 567 
Q 2575 -91 1691 -91 
Q 1453 -91 1209 -44 
Q 966 3 703 97 
z
M 1959 2075 
Q 2384 2075 2632 2365 
Q 2881 2656 2881 3163 
Q 2881 3666 2632 3958 
Q 2384 4250 1959 4250 
Q 1534 4250 1286 3958 
Q 1038 3666 1038 3163 
Q 1038 2656 1286 2365 
Q 1534 2075 1959 2075 
z
" transform="scale(0.015625)"/>
       <path id="DejaVuSans-36" d="M 2113 2584 
Q 1688 2584 1439 2293 
Q 1191 2003 1191 1497 
Q 1191 994 1439 701 
Q 1688 409 2113 409 
Q 2538 409 2786 701 
Q 3034 994 3034 1497 
Q 3034 2003 2786 2293 
Q 2538 2584 2113 2584 
z
M 3366 4563 
L 3366 3988 
Q 3128 4100 2886 4159 
Q 2644 4219 2406 4219 
Q 1781 4219 1451 3797 
Q 1122 3375 1075 2522 
Q 1259 2794 1537 2939 
Q 1816 3084 2150 3084 
Q 2853 3084 3261 2657 
Q 3669 2231 3669 1497 
Q 3669 778 3244 343 
Q 2819 -91 2113 -91 
Q 1303 -91 875 529 
Q 447 1150 447 2328 
Q 447 3434 972 4092 
Q 1497 4750 2381 4750 
Q 2619 4750 2861 4703 
Q 3103 4656 3366 4563 
z
" transform="scale(0.015625)"/>
       <path id="DejaVuSans-25" d="M 4653 2053 
Q 4381 2053 4226 1822 
Q 4072 1591 4072 1178 
Q 4072 772 4226 539 
Q 4381 306 4653 306 
Q 4919 306 5073 539 
Q 5228 772 5228 1178 
Q 5228 1588 5073 1820 
Q 4919 2053 4653 2053 
z
M 4653 2450 
Q 5147 2450 5437 2106 
Q 5728 1763 5728 1178 
Q 5728 594 5436 251 
Q 5144 -91 4653 -91 
Q 4153 -91 3862 251 
Q 3572 594 3572 1178 
Q 3572 1766 3864 2108 
Q 4156 2450 4653 2450 
z
M 1428 4353 
Q 1159 4353 1004 4120 
Q 850 3888 850 3481 
Q 850 3069 1003 2837 
Q 1156 2606 1428 2606 
Q 1700 2606 1854 2837 
Q 2009 3069 2009 3481 
Q 2009 3884 1853 4118 
Q 1697 4353 1428 4353 
z
M 4250 4750 
L 4750 4750 
L 1831 -91 
L 1331 -91 
L 4250 4750 
z
M 1428 4750 
Q 1922 4750 2215 4408 
Q 2509 4066 2509 3481 
Q 2509 2891 2217 2550 
Q 1925 2209 1428 2209 
Q 931 2209 642 2551 
Q 353 2894 353 3481 
Q 353 4063 643 4406 
Q 934 4750 1428 4750 
z
" transform="scale(0.015625)"/>
      </defs>
      <use xlink:href="#DejaVuSans-54"/>
      <use xlink:href="#DejaVuSans-72" x="46.333984"/>
      <use xlink:href="#DejaVuSans-61" x="87.447266"/>
      <use xlink:href="#DejaVuSans-69" x="148.726562"/>
      <use xlink:href="#DejaVuSans-6e" x="176.509766"/>
      <use xlink:href="#DejaVuSans-20" x="239.888672"/>
      <use xlink:href="#DejaVuSans-52" x="271.675781"/>
      <use xlink:href="#DejaVuSans-2d" x="337.158203"/>
      <use xlink:href="#DejaVuSans-73" x="373.242188"/>
      <use xlink:href="#DejaVuSans-71" x="425.341797"/>
      <use xlink:href="#DejaVuSans-75" x="488.818359"/>
      <use xlink:href="#DejaVuSans-61" x="552.197266"/>
      <use xlink:href="#DejaVuSans-72" x="613.476562"/>
      <use xlink:href="#DejaVuSans-65" x="652.339844"/>
      <use xlink:href="#DejaVuSans-64" x="713.863281"/>
      <use xlink:href="#DejaVuSans-20" x="777.339844"/>
      <use xlink:href="#DejaVuSans-3d" x="809.126953"/>
      <use xlink:href="#DejaVuSans-20" x="892.916016"/>
      <use xlink:href="#DejaVuSans-39" x="924.703125"/>
      <use xlink:href="#DejaVuSans-39" x="988.326172"/>
      <use xlink:href="#DejaVuSans-2e" x="1051.949219"/>
      <use xlink:href="#DejaVuSans-39" x="1083.736328"/>
      <use xlink:href="#DejaVuSans-36" x="1147.359375"/>
      <use xlink:href="#DejaVuSans-25" x="1210.982422"/>
     </g>
    </g>
    <g id="PathCollection_4">
     <g>
      <use xlink:href="#md0bdf1a0ad" x="62.878125" y="50.969687" style="fill: #008000; fill-opacity: 0.5; stroke: #008000; stroke-opacity: 0.5"/>
     </g>
    </g>
    <g id="text_21">
     <!-- Test R-squared = 84.08% -->
     <g transform="translate(80.878125 53.594687) scale(0.1 -0.1)">
      <defs>
       <path id="DejaVuSans-38" d="M 2034 2216 
Q 1584 2216 1326 1975 
Q 1069 1734 1069 1313 
Q 1069 891 1326 650 
Q 1584 409 2034 409 
Q 2484 409 2743 651 
Q 3003 894 3003 1313 
Q 3003 1734 2745 1975 
Q 2488 2216 2034 2216 
z
M 1403 2484 
Q 997 2584 770 2862 
Q 544 3141 544 3541 
Q 544 4100 942 4425 
Q 1341 4750 2034 4750 
Q 2731 4750 3128 4425 
Q 3525 4100 3525 3541 
Q 3525 3141 3298 2862 
Q 3072 2584 2669 2484 
Q 3125 2378 3379 2068 
Q 3634 1759 3634 1313 
Q 3634 634 3220 271 
Q 2806 -91 2034 -91 
Q 1263 -91 848 271 
Q 434 634 434 1313 
Q 434 1759 690 2068 
Q 947 2378 1403 2484 
z
M 1172 3481 
Q 1172 3119 1398 2916 
Q 1625 2713 2034 2713 
Q 2441 2713 2670 2916 
Q 2900 3119 2900 3481 
Q 2900 3844 2670 4047 
Q 2441 4250 2034 4250 
Q 1625 4250 1398 4047 
Q 1172 3844 1172 3481 
z
" transform="scale(0.015625)"/>
      </defs>
      <use xlink:href="#DejaVuSans-54"/>
      <use xlink:href="#DejaVuSans-65" x="44.083984"/>
      <use xlink:href="#DejaVuSans-73" x="105.607422"/>
      <use xlink:href="#DejaVuSans-74" x="157.707031"/>
      <use xlink:href="#DejaVuSans-20" x="196.916016"/>
      <use xlink:href="#DejaVuSans-52" x="228.703125"/>
      <use xlink:href="#DejaVuSans-2d" x="294.185547"/>
      <use xlink:href="#DejaVuSans-73" x="330.269531"/>
      <use xlink:href="#DejaVuSans-71" x="382.369141"/>
      <use xlink:href="#DejaVuSans-75" x="445.845703"/>
      <use xlink:href="#DejaVuSans-61" x="509.224609"/>
      <use xlink:href="#DejaVuSans-72" x="570.503906"/>
      <use xlink:href="#DejaVuSans-65" x="609.367188"/>
      <use xlink:href="#DejaVuSans-64" x="670.890625"/>
      <use xlink:href="#DejaVuSans-20" x="734.367188"/>
      <use xlink:href="#DejaVuSans-3d" x="766.154297"/>
      <use xlink:href="#DejaVuSans-20" x="849.943359"/>
      <use xlink:href="#DejaVuSans-38" x="881.730469"/>
      <use xlink:href="#DejaVuSans-34" x="945.353516"/>
      <use xlink:href="#DejaVuSans-2e" x="1008.976562"/>
      <use xlink:href="#DejaVuSans-30" x="1040.763672"/>
      <use xlink:href="#DejaVuSans-38" x="1104.386719"/>
      <use xlink:href="#DejaVuSans-25" x="1168.009766"/>
     </g>
    </g>
   </g>
  </g>
 </g>
 <defs>
  <clipPath id="p1917eee993">
   <rect x="43.878125" y="22.318125" width="357.12" height="266.112"/>
  </clipPath>
 </defs>
</svg>
