<?xml version="1.0" encoding="utf-8" standalone="no"?>
<!DOCTYPE svg PUBLIC "-//W3C//DTD SVG 1.1//EN"
  "http://www.w3.org/Graphics/SVG/1.1/DTD/svg11.dtd">
<svg xmlns:xlink="http://www.w3.org/1999/xlink" width="460.8pt" height="345.6pt" viewBox="0 0 460.8 345.6" xmlns="http://www.w3.org/2000/svg" version="1.1">
 <metadata>
  <rdf:RDF xmlns:dc="http://purl.org/dc/elements/1.1/" xmlns:cc="http://creativecommons.org/ns#" xmlns:rdf="http://www.w3.org/1999/02/22-rdf-syntax-ns#">
   <cc:Work>
    <dc:type rdf:resource="http://purl.org/dc/dcmitype/StillImage"/>
    <dc:date>2024-02-15T11:39:50.723097</dc:date>
    <dc:format>image/svg+xml</dc:format>
    <dc:creator>
     <cc:Agent>
      <dc:title>Matplotlib v3.7.0, https://matplotlib.org/</dc:title>
     </cc:Agent>
    </dc:creator>
   </cc:Work>
  </rdf:RDF>
 </metadata>
 <defs>
  <style type="text/css">*{stroke-linejoin: round; stroke-linecap: butt}</style>
 </defs>
 <g id="figure_1">
  <g id="patch_1">
   <path d="M 0 345.6 
L 460.8 345.6 
L 460.8 0 
L 0 0 
L 0 345.6 
z
" style="fill: none"/>
  </g>
  <g id="axes_1"/>
  <g id="axes_2">
   <g id="patch_2">
    <path d="M 57.6 307.584 
L 414.72 307.584 
L 414.72 41.472 
L 57.6 41.472 
L 57.6 307.584 
z
" style="fill: none"/>
   </g>
   <g id="PathCollection_1">
    <path d="M 61.207273 307.584 
L 64.814545 307.584 
L 68.421818 307.584 
L 72.029091 307.584 
L 75.636364 307.584 
L 79.243636 307.584 
L 82.850909 307.584 
L 86.458182 307.584 
L 90.065455 307.584 
L 93.672727 307.584 
L 97.28 307.584 
L 100.887273 307.584 
L 104.494545 307.584 
L 108.101818 307.584 
L 111.709091 307.584 
L 115.316364 307.584 
L 118.923636 307.584 
L 122.530909 307.584 
L 126.138182 307.584 
L 129.745455 307.584 
L 133.352727 307.584 
L 136.96 307.584 
L 140.567273 307.584 
L 144.174545 307.584 
L 147.781818 307.584 
L 151.389091 307.584 
L 154.996364 307.584 
L 158.603636 307.584 
L 162.210909 307.584 
L 165.818182 307.584 
L 169.425455 307.584 
L 173.032727 307.584 
L 176.64 307.584 
L 180.247273 307.584 
L 183.854545 307.584 
L 187.461818 307.584 
L 191.069091 307.584 
L 194.676364 307.584 
L 198.283636 307.584 
L 201.890909 307.584 
L 205.498182 307.584 
L 209.105455 307.584 
L 212.712727 307.584 
L 216.32 307.584 
L 219.927273 307.584 
L 223.534545 307.584 
L 227.141818 307.584 
L 230.749091 307.584 
L 234.356364 307.584 
L 237.963636 307.584 
L 241.570909 307.584 
L 245.178182 307.584 
L 248.785455 307.584 
L 252.392727 307.584 
L 256 307.584 
L 259.607273 307.584 
L 263.214545 307.584 
L 266.821818 307.584 
L 270.429091 307.584 
L 274.036364 307.584 
L 277.643636 307.584 
L 281.250909 307.584 
L 284.858182 307.584 
L 288.465455 307.584 
L 292.072727 307.584 
L 295.68 307.584 
L 299.287273 307.584 
L 302.894545 307.584 
L 306.501818 307.584 
L 310.109091 307.584 
L 313.716364 307.584 
L 317.323636 307.584 
L 320.930909 307.584 
L 324.538182 307.584 
L 328.145455 307.584 
L 331.752727 307.584 
L 335.36 307.584 
L 338.967273 307.584 
L 342.574545 307.584 
L 346.181818 307.584 
L 349.789091 307.584 
L 353.396364 307.584 
L 357.003636 307.584 
L 360.610909 307.584 
L 364.218182 307.584 
L 367.825455 307.584 
L 371.432727 307.584 
L 375.04 307.584 
L 378.647273 307.584 
L 382.254545 307.584 
L 385.861818 307.584 
L 389.469091 307.584 
L 393.076364 307.584 
L 396.683636 307.584 
L 400.290909 307.584 
L 403.898182 307.584 
L 407.505455 307.584 
L 411.112727 307.584 
L 414.72 307.584 
L 414.72 304.896 
L 414.72 302.208 
L 414.72 299.52 
L 414.72 296.832 
L 414.72 294.144 
L 414.72 291.456 
L 414.72 288.768 
L 414.72 286.08 
L 414.72 283.392 
L 414.72 280.704 
L 414.72 278.016 
L 414.72 275.328 
L 414.72 272.64 
L 414.72 269.952 
L 414.72 267.264 
L 414.72 264.576 
L 414.72 261.888 
L 414.72 259.2 
L 414.72 256.512 
L 414.72 253.824 
L 414.72 251.136 
L 414.72 248.448 
L 414.72 245.76 
L 414.72 243.072 
L 414.72 240.384 
L 414.72 237.696 
L 414.72 235.008 
L 414.72 232.32 
L 414.72 229.632 
L 414.72 226.944 
L 414.72 224.256 
L 414.72 221.568 
L 414.72 218.88 
L 414.72 216.192 
L 414.72 213.504 
L 414.72 210.816 
L 414.72 208.128 
L 414.72 205.44 
L 414.72 202.752 
L 414.72 200.064 
L 414.72 197.376 
L 414.72 194.752173 
L 411.112727 194.752173 
L 407.505455 194.752173 
L 403.898182 194.752173 
L 400.290909 194.752173 
L 396.683636 194.752173 
L 393.076364 194.752173 
L 389.469091 194.752173 
L 385.861818 194.752173 
L 382.254545 195.580094 
L 378.647273 195.580094 
L 375.04 195.580094 
L 371.432727 195.580094 
L 367.825455 195.580094 
L 364.218182 195.580094 
L 360.610909 195.580094 
L 357.003636 195.580094 
L 353.396364 195.580094 
L 349.789091 195.580094 
L 346.181818 195.580094 
L 342.574545 195.580094 
L 338.967273 195.580094 
L 335.36 195.580094 
L 331.752727 195.580094 
L 328.145455 195.580094 
L 324.538182 195.580094 
L 320.930909 195.580094 
L 317.323636 195.580094 
L 313.716364 195.580094 
L 310.109091 195.580094 
L 306.501818 195.580094 
L 302.894545 195.580094 
L 299.287273 195.580094 
L 295.68 195.580094 
L 292.072727 195.250308 
L 288.465455 195.250308 
L 284.858182 195.250308 
L 281.250909 195.250308 
L 277.643636 194.902382 
L 276.285481 194.688 
L 276.285481 192 
L 276.285481 189.312 
L 276.285481 186.624 
L 276.285481 183.936 
L 274.036364 183.896652 
L 270.429091 183.896652 
L 266.821818 183.896652 
L 263.214545 183.731164 
L 259.607273 183.607083 
L 256 183.607083 
L 252.392727 183.567362 
L 248.785455 183.567362 
L 245.178182 183.567362 
L 241.570909 183.400613 
L 237.963636 183.341458 
L 234.356364 183.341458 
L 230.749091 183.268623 
L 227.141818 183.268623 
L 223.534545 183.268623 
L 219.927273 183.268623 
L 216.32 183.268623 
L 212.712727 183.231369 
L 209.105455 183.104858 
L 205.498182 182.88987 
L 201.890909 182.88987 
L 198.283636 182.88987 
L 194.676364 182.88987 
L 191.069091 182.88987 
L 187.461818 182.88987 
L 183.854545 182.795896 
L 180.247273 182.795896 
L 176.64 182.795896 
L 173.032727 182.770937 
L 169.425455 182.760918 
L 165.818182 182.760918 
L 162.210909 182.760918 
L 158.603636 182.760918 
L 154.996364 182.760918 
L 151.389091 182.760918 
L 147.781818 182.760918 
L 144.174545 182.760918 
L 140.567273 182.760918 
L 136.96 182.746883 
L 133.352727 182.746883 
L 129.745455 182.746883 
L 126.138182 182.746883 
L 122.530909 182.746883 
L 118.923636 182.746883 
L 115.316364 182.746883 
L 111.709091 182.746883 
L 108.101818 182.746883 
L 104.494545 182.746883 
L 100.887273 182.746883 
L 97.28 182.746883 
L 93.672727 182.746883 
L 90.065455 182.746883 
L 86.458182 182.746883 
L 82.850909 182.746883 
L 79.243636 182.746883 
L 75.636364 182.746883 
L 72.029091 182.746883 
L 68.421818 182.746883 
L 64.814545 182.746883 
L 61.207273 182.746883 
L 57.6 182.746883 
L 57.6 183.936 
L 57.6 186.624 
L 57.6 189.312 
L 57.6 192 
L 57.6 194.688 
L 57.6 197.376 
L 57.6 200.064 
L 57.6 202.752 
L 57.6 205.44 
L 57.6 208.128 
L 57.6 210.816 
L 57.6 213.504 
L 57.6 216.192 
L 57.6 218.88 
L 57.6 221.568 
L 57.6 224.256 
L 57.6 226.944 
L 57.6 229.632 
L 57.6 232.32 
L 57.6 235.008 
L 57.6 237.696 
L 57.6 240.384 
L 57.6 243.072 
L 57.6 245.76 
L 57.6 248.448 
L 57.6 251.136 
L 57.6 253.824 
L 57.6 256.512 
L 57.6 259.2 
L 57.6 261.888 
L 57.6 264.576 
L 57.6 267.264 
L 57.6 269.952 
L 57.6 272.64 
L 57.6 275.328 
L 57.6 278.016 
L 57.6 280.704 
L 57.6 283.392 
L 57.6 286.08 
L 57.6 288.768 
L 57.6 291.456 
L 57.6 294.144 
L 57.6 296.832 
L 57.6 299.52 
L 57.6 302.208 
L 57.6 304.896 
L 57.6 307.584 
z
" clip-path="url(#p8685f2d116)" style="fill: #481b6d; fill-opacity: 0.75"/>
   </g>
   <g id="PathCollection_2">
    <path d="M 277.643636 194.902382 
L 281.250909 195.250308 
L 284.858182 195.250308 
L 288.465455 195.250308 
L 292.072727 195.250308 
L 295.68 195.580094 
L 299.287273 195.580094 
L 302.894545 195.580094 
L 306.501818 195.580094 
L 310.109091 195.580094 
L 313.716364 195.580094 
L 317.323636 195.580094 
L 320.930909 195.580094 
L 324.538182 195.580094 
L 328.145455 195.580094 
L 331.752727 195.580094 
L 335.36 195.580094 
L 338.967273 195.580094 
L 342.574545 195.580094 
L 346.181818 195.580094 
L 349.789091 195.580094 
L 353.396364 195.580094 
L 357.003636 195.580094 
L 360.610909 195.580094 
L 364.218182 195.580094 
L 367.825455 195.580094 
L 371.432727 195.580094 
L 375.04 195.580094 
L 378.647273 195.580094 
L 382.254545 195.580094 
L 385.861818 194.752173 
L 389.469091 194.752173 
L 393.076364 194.752173 
L 396.683636 194.752173 
L 400.290909 194.752173 
L 403.898182 194.752173 
L 407.505455 194.752173 
L 411.112727 194.752173 
L 414.72 194.752173 
L 414.72 194.688 
L 414.72 192 
L 414.72 189.312 
L 414.72 186.624 
L 414.72 183.936 
L 414.72 181.680227 
L 411.112727 181.680227 
L 407.505455 181.680227 
L 403.898182 181.680227 
L 400.290909 181.680227 
L 396.683636 181.680227 
L 393.076364 181.680227 
L 389.469091 181.680227 
L 385.861818 181.680227 
L 382.254545 181.771988 
L 378.647273 181.771988 
L 375.04 181.771988 
L 371.432727 181.771988 
L 367.825455 181.771988 
L 364.218182 181.771988 
L 360.610909 181.771988 
L 357.003636 181.771988 
L 353.396364 181.771988 
L 349.789091 181.771988 
L 346.181818 181.771988 
L 342.574545 181.771988 
L 338.967273 181.771988 
L 335.36 181.771988 
L 331.752727 181.771988 
L 328.145455 181.771988 
L 324.538182 181.771988 
L 320.930909 181.771988 
L 317.323636 181.771988 
L 313.716364 181.771988 
L 310.109091 181.771988 
L 306.501818 181.771988 
L 302.894545 181.771988 
L 299.287273 181.771988 
L 295.68 181.771988 
L 292.072727 181.735437 
L 288.465455 181.735437 
L 284.858182 181.735437 
L 281.250909 181.735437 
L 277.643636 181.696875 
L 274.036364 181.633766 
L 270.429091 181.633766 
L 266.821818 181.633766 
L 263.214545 181.468278 
L 259.607273 181.344197 
L 256 181.344197 
L 252.392727 181.304476 
L 248.785455 181.304476 
L 245.178182 181.304476 
L 243.956441 181.248 
L 241.570909 180.938254 
L 237.963636 180.772094 
L 234.356364 180.772094 
L 230.749091 180.567507 
L 227.141818 180.567507 
L 223.534545 180.567507 
L 219.927273 180.567507 
L 216.32 180.567507 
L 212.712727 180.462863 
L 209.105455 180.107507 
L 205.498182 179.503627 
L 201.890909 179.503627 
L 198.283636 179.503627 
L 194.676364 179.503627 
L 191.069091 179.503627 
L 187.461818 179.503627 
L 183.854545 179.239662 
L 180.247273 179.239662 
L 176.64 179.239662 
L 173.032727 179.169554 
L 169.425455 179.141413 
L 165.818182 179.141413 
L 162.210909 179.141413 
L 158.603636 179.141413 
L 154.996364 179.141413 
L 151.389091 179.141413 
L 147.781818 179.141413 
L 144.174545 179.141413 
L 140.567273 179.141413 
L 136.96 179.101988 
L 133.352727 179.101988 
L 129.745455 179.101988 
L 126.138182 179.101988 
L 122.530909 179.101988 
L 118.923636 179.101988 
L 115.316364 179.101988 
L 111.709091 179.101988 
L 108.101818 179.101988 
L 104.494545 179.101988 
L 100.887273 179.101988 
L 97.28 179.101988 
L 93.672727 179.101988 
L 90.065455 179.101988 
L 86.458182 179.101988 
L 82.850909 179.101988 
L 79.243636 179.101988 
L 75.636364 179.101988 
L 72.029091 179.101988 
L 68.421818 179.101988 
L 64.814545 179.101988 
L 61.207273 179.101988 
L 57.6 179.101988 
L 57.6 181.248 
L 57.6 182.746883 
L 61.207273 182.746883 
L 64.814545 182.746883 
L 68.421818 182.746883 
L 72.029091 182.746883 
L 75.636364 182.746883 
L 79.243636 182.746883 
L 82.850909 182.746883 
L 86.458182 182.746883 
L 90.065455 182.746883 
L 93.672727 182.746883 
L 97.28 182.746883 
L 100.887273 182.746883 
L 104.494545 182.746883 
L 108.101818 182.746883 
L 111.709091 182.746883 
L 115.316364 182.746883 
L 118.923636 182.746883 
L 122.530909 182.746883 
L 126.138182 182.746883 
L 129.745455 182.746883 
L 133.352727 182.746883 
L 136.96 182.746883 
L 140.567273 182.760918 
L 144.174545 182.760918 
L 147.781818 182.760918 
L 151.389091 182.760918 
L 154.996364 182.760918 
L 158.603636 182.760918 
L 162.210909 182.760918 
L 165.818182 182.760918 
L 169.425455 182.760918 
L 173.032727 182.770937 
L 176.64 182.795896 
L 180.247273 182.795896 
L 183.854545 182.795896 
L 187.461818 182.88987 
L 191.069091 182.88987 
L 194.676364 182.88987 
L 198.283636 182.88987 
L 201.890909 182.88987 
L 205.498182 182.88987 
L 209.105455 183.104858 
L 212.712727 183.231369 
L 216.32 183.268623 
L 219.927273 183.268623 
L 223.534545 183.268623 
L 227.141818 183.268623 
L 230.749091 183.268623 
L 234.356364 183.341458 
L 237.963636 183.341458 
L 241.570909 183.400613 
L 245.178182 183.567362 
L 248.785455 183.567362 
L 252.392727 183.567362 
L 256 183.607083 
L 259.607273 183.607083 
L 263.214545 183.731164 
L 266.821818 183.896652 
L 270.429091 183.896652 
L 274.036364 183.896652 
L 276.285481 183.936 
L 276.285481 186.624 
L 276.285481 189.312 
L 276.285481 192 
L 276.285481 194.688 
z
" clip-path="url(#p8685f2d116)" style="fill: #3f4788; fill-opacity: 0.75"/>
   </g>
   <g id="PathCollection_3">
    <path d="M 245.178182 181.304476 
L 248.785455 181.304476 
L 252.392727 181.304476 
L 256 181.344197 
L 259.607273 181.344197 
L 263.214545 181.468278 
L 266.821818 181.633766 
L 270.429091 181.633766 
L 274.036364 181.633766 
L 277.643636 181.696875 
L 281.250909 181.735437 
L 284.858182 181.735437 
L 288.465455 181.735437 
L 292.072727 181.735437 
L 295.68 181.771988 
L 299.287273 181.771988 
L 302.894545 181.771988 
L 306.501818 181.771988 
L 310.109091 181.771988 
L 313.716364 181.771988 
L 317.323636 181.771988 
L 320.930909 181.771988 
L 324.538182 181.771988 
L 328.145455 181.771988 
L 331.752727 181.771988 
L 335.36 181.771988 
L 338.967273 181.771988 
L 342.574545 181.771988 
L 346.181818 181.771988 
L 349.789091 181.771988 
L 353.396364 181.771988 
L 357.003636 181.771988 
L 360.610909 181.771988 
L 364.218182 181.771988 
L 367.825455 181.771988 
L 371.432727 181.771988 
L 375.04 181.771988 
L 378.647273 181.771988 
L 382.254545 181.771988 
L 385.861818 181.680227 
L 389.469091 181.680227 
L 393.076364 181.680227 
L 396.683636 181.680227 
L 400.290909 181.680227 
L 403.898182 181.680227 
L 407.505455 181.680227 
L 411.112727 181.680227 
L 414.72 181.680227 
L 414.72 181.248 
L 414.72 178.56 
L 414.72 175.872 
L 414.72 175.220527 
L 411.112727 175.220527 
L 407.505455 175.220527 
L 403.898182 175.220527 
L 400.290909 175.220527 
L 396.683636 175.220527 
L 393.076364 175.220527 
L 389.469091 175.220527 
L 385.861818 175.220527 
L 382.254545 175.322817 
L 378.647273 175.322817 
L 375.04 175.322817 
L 371.432727 175.322817 
L 367.825455 175.322817 
L 364.218182 175.322817 
L 360.610909 175.322817 
L 357.003636 175.322817 
L 353.396364 175.322817 
L 349.789091 175.322817 
L 346.181818 175.322817 
L 342.574545 175.322817 
L 338.967273 175.322817 
L 335.36 175.322817 
L 331.752727 175.322817 
L 328.145455 175.322817 
L 324.538182 175.322817 
L 320.930909 175.322817 
L 317.323636 175.322817 
L 313.716364 175.322817 
L 310.109091 175.322817 
L 306.501818 175.322817 
L 302.894545 175.322817 
L 299.287273 175.322817 
L 295.68 175.322817 
L 292.072727 175.282071 
L 288.465455 175.282071 
L 284.858182 175.282071 
L 281.250909 175.282071 
L 277.643636 175.239085 
L 274.036364 175.168736 
L 270.429091 175.168736 
L 266.821818 175.168736 
L 263.214545 174.984261 
L 259.607273 174.845943 
L 256 174.845943 
L 252.392727 174.801665 
L 248.785455 174.801665 
L 245.178182 174.801665 
L 241.570909 174.615784 
L 237.963636 174.549842 
L 234.356364 174.549842 
L 230.749091 174.46865 
L 227.141818 174.46865 
L 223.534545 174.46865 
L 219.927273 174.46865 
L 216.32 174.46865 
L 212.712727 174.427122 
L 209.105455 174.365153 
L 205.498182 174.137445 
L 201.890909 174.137445 
L 198.283636 174.137445 
L 194.676364 174.137445 
L 191.069091 174.137445 
L 187.461818 174.137445 
L 183.854545 174.037911 
L 180.247273 174.037911 
L 176.64 174.037911 
L 173.032727 174.011475 
L 169.425455 174.000864 
L 165.818182 174.000864 
L 162.210909 174.000864 
L 158.603636 174.000864 
L 154.996364 174.000864 
L 151.389091 174.000864 
L 147.781818 174.000864 
L 144.174545 174.000864 
L 140.567273 174.000864 
L 136.96 173.985998 
L 133.352727 173.985998 
L 129.745455 173.985998 
L 126.138182 173.985998 
L 122.530909 173.985998 
L 118.923636 173.985998 
L 115.316364 173.985998 
L 111.709091 173.985998 
L 108.101818 173.985998 
L 104.494545 173.985998 
L 100.887273 173.985998 
L 97.28 173.985998 
L 93.672727 173.985998 
L 90.065455 173.985998 
L 86.458182 173.985998 
L 82.850909 173.985998 
L 79.243636 173.985998 
L 75.636364 173.985998 
L 72.029091 173.985998 
L 68.421818 173.985998 
L 64.814545 173.985998 
L 61.207273 173.985998 
L 57.6 173.985998 
L 57.6 175.872 
L 57.6 178.56 
L 57.6 179.101988 
L 61.207273 179.101988 
L 64.814545 179.101988 
L 68.421818 179.101988 
L 72.029091 179.101988 
L 75.636364 179.101988 
L 79.243636 179.101988 
L 82.850909 179.101988 
L 86.458182 179.101988 
L 90.065455 179.101988 
L 93.672727 179.101988 
L 97.28 179.101988 
L 100.887273 179.101988 
L 104.494545 179.101988 
L 108.101818 179.101988 
L 111.709091 179.101988 
L 115.316364 179.101988 
L 118.923636 179.101988 
L 122.530909 179.101988 
L 126.138182 179.101988 
L 129.745455 179.101988 
L 133.352727 179.101988 
L 136.96 179.101988 
L 140.567273 179.141413 
L 144.174545 179.141413 
L 147.781818 179.141413 
L 151.389091 179.141413 
L 154.996364 179.141413 
L 158.603636 179.141413 
L 162.210909 179.141413 
L 165.818182 179.141413 
L 169.425455 179.141413 
L 173.032727 179.169554 
L 176.64 179.239662 
L 180.247273 179.239662 
L 183.854545 179.239662 
L 187.461818 179.503627 
L 191.069091 179.503627 
L 194.676364 179.503627 
L 198.283636 179.503627 
L 201.890909 179.503627 
L 205.498182 179.503627 
L 209.105455 180.107507 
L 212.712727 180.462863 
L 216.32 180.567507 
L 219.927273 180.567507 
L 223.534545 180.567507 
L 227.141818 180.567507 
L 230.749091 180.567507 
L 234.356364 180.772094 
L 237.963636 180.772094 
L 241.570909 180.938254 
L 243.956441 181.248 
z
" clip-path="url(#p8685f2d116)" style="fill: #2e6e8e; fill-opacity: 0.75"/>
   </g>
   <g id="PathCollection_4">
    <path d="M 61.207273 173.985998 
L 64.814545 173.985998 
L 68.421818 173.985998 
L 72.029091 173.985998 
L 75.636364 173.985998 
L 79.243636 173.985998 
L 82.850909 173.985998 
L 86.458182 173.985998 
L 90.065455 173.985998 
L 93.672727 173.985998 
L 97.28 173.985998 
L 100.887273 173.985998 
L 104.494545 173.985998 
L 108.101818 173.985998 
L 111.709091 173.985998 
L 115.316364 173.985998 
L 118.923636 173.985998 
L 122.530909 173.985998 
L 126.138182 173.985998 
L 129.745455 173.985998 
L 133.352727 173.985998 
L 136.96 173.985998 
L 140.567273 174.000864 
L 144.174545 174.000864 
L 147.781818 174.000864 
L 151.389091 174.000864 
L 154.996364 174.000864 
L 158.603636 174.000864 
L 162.210909 174.000864 
L 165.818182 174.000864 
L 169.425455 174.000864 
L 173.032727 174.011475 
L 176.64 174.037911 
L 180.247273 174.037911 
L 183.854545 174.037911 
L 187.461818 174.137445 
L 191.069091 174.137445 
L 194.676364 174.137445 
L 198.283636 174.137445 
L 201.890909 174.137445 
L 205.498182 174.137445 
L 209.105455 174.365153 
L 212.712727 174.427122 
L 216.32 174.46865 
L 219.927273 174.46865 
L 223.534545 174.46865 
L 227.141818 174.46865 
L 230.749091 174.46865 
L 234.356364 174.549842 
L 237.963636 174.549842 
L 241.570909 174.615784 
L 245.178182 174.801665 
L 248.785455 174.801665 
L 252.392727 174.801665 
L 256 174.845943 
L 259.607273 174.845943 
L 263.214545 174.984261 
L 266.821818 175.168736 
L 270.429091 175.168736 
L 274.036364 175.168736 
L 277.643636 175.239085 
L 281.250909 175.282071 
L 284.858182 175.282071 
L 288.465455 175.282071 
L 292.072727 175.282071 
L 295.68 175.322817 
L 299.287273 175.322817 
L 302.894545 175.322817 
L 306.501818 175.322817 
L 310.109091 175.322817 
L 313.716364 175.322817 
L 317.323636 175.322817 
L 320.930909 175.322817 
L 324.538182 175.322817 
L 328.145455 175.322817 
L 331.752727 175.322817 
L 335.36 175.322817 
L 338.967273 175.322817 
L 342.574545 175.322817 
L 346.181818 175.322817 
L 349.789091 175.322817 
L 353.396364 175.322817 
L 357.003636 175.322817 
L 360.610909 175.322817 
L 364.218182 175.322817 
L 367.825455 175.322817 
L 371.432727 175.322817 
L 375.04 175.322817 
L 378.647273 175.322817 
L 382.254545 175.322817 
L 385.861818 175.220527 
L 389.469091 175.220527 
L 393.076364 175.220527 
L 396.683636 175.220527 
L 400.290909 175.220527 
L 403.898182 175.220527 
L 407.505455 175.220527 
L 411.112727 175.220527 
L 414.72 175.220527 
L 414.72 173.184 
L 414.72 172.479556 
L 411.112727 172.479556 
L 407.505455 172.479556 
L 403.898182 172.479556 
L 400.290909 172.479556 
L 396.683636 172.479556 
L 393.076364 172.479556 
L 389.469091 172.479556 
L 385.861818 172.479556 
L 382.254545 172.627825 
L 378.647273 172.627825 
L 375.04 172.627825 
L 371.432727 172.627825 
L 367.825455 172.627825 
L 364.218182 172.627825 
L 360.610909 172.627825 
L 357.003636 172.627825 
L 353.396364 172.627825 
L 349.789091 172.627825 
L 346.181818 172.627825 
L 342.574545 172.627825 
L 338.967273 172.627825 
L 335.36 172.627825 
L 331.752727 172.627825 
L 328.145455 172.627825 
L 324.538182 172.627825 
L 320.930909 172.627825 
L 317.323636 172.627825 
L 313.716364 172.627825 
L 310.109091 172.627825 
L 306.501818 172.627825 
L 302.894545 172.627825 
L 299.287273 172.627825 
L 295.68 172.627825 
L 292.072727 172.568765 
L 288.465455 172.568765 
L 284.858182 172.568765 
L 281.250909 172.568765 
L 277.643636 172.506456 
L 274.036364 172.404484 
L 270.429091 172.404484 
L 266.821818 172.404484 
L 263.214545 172.137086 
L 259.607273 171.936594 
L 256 171.936594 
L 252.392727 171.872412 
L 248.785455 171.872412 
L 245.178182 171.872412 
L 241.570909 171.602977 
L 237.963636 171.507394 
L 234.356364 171.507394 
L 230.749091 171.389706 
L 227.141818 171.389706 
L 223.534545 171.389706 
L 219.927273 171.389706 
L 216.32 171.389706 
L 212.712727 171.32951 
L 209.105455 171.32951 
L 205.498182 170.982129 
L 201.890909 170.982129 
L 198.283636 170.982129 
L 194.676364 170.982129 
L 191.069091 170.982129 
L 187.461818 170.982129 
L 183.854545 170.830285 
L 180.247273 170.830285 
L 176.64 170.830285 
L 173.032727 170.789955 
L 169.425455 170.773767 
L 165.818182 170.773767 
L 162.210909 170.773767 
L 158.603636 170.773767 
L 154.996364 170.773767 
L 151.389091 170.773767 
L 147.781818 170.773767 
L 144.174545 170.773767 
L 140.567273 170.773767 
L 136.96 170.751088 
L 133.352727 170.751088 
L 129.745455 170.751088 
L 126.138182 170.751088 
L 122.530909 170.751088 
L 118.923636 170.751088 
L 115.316364 170.751088 
L 111.709091 170.751088 
L 108.101818 170.751088 
L 104.494545 170.751088 
L 100.887273 170.751088 
L 97.28 170.751088 
L 93.672727 170.751088 
L 90.065455 170.751088 
L 86.458182 170.751088 
L 82.850909 170.751088 
L 79.243636 170.751088 
L 75.636364 170.751088 
L 72.029091 170.751088 
L 68.421818 170.751088 
L 64.814545 170.751088 
L 61.207273 170.751088 
L 57.6 170.751088 
L 57.6 173.184 
L 57.6 173.985998 
z
" clip-path="url(#p8685f2d116)" style="fill: #21918c; fill-opacity: 0.75"/>
   </g>
   <g id="PathCollection_5">
    <path d="M 61.207273 170.751088 
L 64.814545 170.751088 
L 68.421818 170.751088 
L 72.029091 170.751088 
L 75.636364 170.751088 
L 79.243636 170.751088 
L 82.850909 170.751088 
L 86.458182 170.751088 
L 90.065455 170.751088 
L 93.672727 170.751088 
L 97.28 170.751088 
L 100.887273 170.751088 
L 104.494545 170.751088 
L 108.101818 170.751088 
L 111.709091 170.751088 
L 115.316364 170.751088 
L 118.923636 170.751088 
L 122.530909 170.751088 
L 126.138182 170.751088 
L 129.745455 170.751088 
L 133.352727 170.751088 
L 136.96 170.751088 
L 140.567273 170.773767 
L 144.174545 170.773767 
L 147.781818 170.773767 
L 151.389091 170.773767 
L 154.996364 170.773767 
L 158.603636 170.773767 
L 162.210909 170.773767 
L 165.818182 170.773767 
L 169.425455 170.773767 
L 173.032727 170.789955 
L 176.64 170.830285 
L 180.247273 170.830285 
L 183.854545 170.830285 
L 187.461818 170.982129 
L 191.069091 170.982129 
L 194.676364 170.982129 
L 198.283636 170.982129 
L 201.890909 170.982129 
L 205.498182 170.982129 
L 209.105455 171.32951 
L 212.712727 171.32951 
L 216.32 171.389706 
L 219.927273 171.389706 
L 223.534545 171.389706 
L 227.141818 171.389706 
L 230.749091 171.389706 
L 234.356364 171.507394 
L 237.963636 171.507394 
L 241.570909 171.602977 
L 245.178182 171.872412 
L 248.785455 171.872412 
L 252.392727 171.872412 
L 256 171.936594 
L 259.607273 171.936594 
L 263.214545 172.137086 
L 266.821818 172.404484 
L 270.429091 172.404484 
L 274.036364 172.404484 
L 277.643636 172.506456 
L 281.250909 172.568765 
L 284.858182 172.568765 
L 288.465455 172.568765 
L 292.072727 172.568765 
L 295.68 172.627825 
L 299.287273 172.627825 
L 302.894545 172.627825 
L 306.501818 172.627825 
L 310.109091 172.627825 
L 313.716364 172.627825 
L 317.323636 172.627825 
L 320.930909 172.627825 
L 324.538182 172.627825 
L 328.145455 172.627825 
L 331.752727 172.627825 
L 335.36 172.627825 
L 338.967273 172.627825 
L 342.574545 172.627825 
L 346.181818 172.627825 
L 349.789091 172.627825 
L 353.396364 172.627825 
L 357.003636 172.627825 
L 360.610909 172.627825 
L 364.218182 172.627825 
L 367.825455 172.627825 
L 371.432727 172.627825 
L 375.04 172.627825 
L 378.647273 172.627825 
L 382.254545 172.627825 
L 385.861818 172.479556 
L 389.469091 172.479556 
L 393.076364 172.479556 
L 396.683636 172.479556 
L 400.290909 172.479556 
L 403.898182 172.479556 
L 407.505455 172.479556 
L 411.112727 172.479556 
L 414.72 172.479556 
L 414.72 170.496 
L 414.72 167.808 
L 414.72 165.12 
L 414.72 164.278461 
L 411.112727 164.278461 
L 407.505455 164.278461 
L 403.898182 164.278461 
L 400.290909 164.278461 
L 396.683636 164.278461 
L 393.076364 164.278461 
L 389.469091 164.278461 
L 385.861818 164.278461 
L 382.254545 164.35305 
L 378.647273 164.35305 
L 375.04 164.35305 
L 371.432727 164.35305 
L 367.825455 164.35305 
L 364.218182 164.35305 
L 360.610909 164.35305 
L 357.003636 164.35305 
L 353.396364 164.35305 
L 349.789091 164.35305 
L 346.181818 164.35305 
L 342.574545 164.35305 
L 338.967273 164.35305 
L 335.36 164.35305 
L 331.752727 164.35305 
L 328.145455 164.35305 
L 324.538182 164.35305 
L 320.930909 164.35305 
L 317.323636 164.35305 
L 313.716364 164.35305 
L 310.109091 164.35305 
L 306.501818 164.35305 
L 302.894545 164.35305 
L 299.287273 164.35305 
L 295.68 164.35305 
L 292.072727 164.323339 
L 288.465455 164.323339 
L 284.858182 164.323339 
L 281.250909 164.323339 
L 277.643636 164.291994 
L 274.036364 164.240696 
L 270.429091 164.240696 
L 266.821818 164.240696 
L 263.214545 164.106179 
L 259.607273 164.00532 
L 256 164.00532 
L 252.392727 163.973033 
L 248.785455 163.973033 
L 245.178182 163.973033 
L 241.570909 163.837492 
L 237.963636 163.789408 
L 234.356364 163.789408 
L 230.749091 163.730204 
L 227.141818 163.730204 
L 223.534545 163.730204 
L 219.927273 163.730204 
L 216.32 163.730204 
L 212.712727 163.699922 
L 209.105455 163.699922 
L 205.498182 163.52517 
L 201.890909 163.52517 
L 198.283636 163.52517 
L 194.676364 163.52517 
L 191.069091 163.52517 
L 187.461818 163.52517 
L 183.854545 163.448783 
L 180.247273 163.448783 
L 176.64 163.448783 
L 173.032727 163.428495 
L 169.425455 163.420352 
L 165.818182 163.420352 
L 162.210909 163.420352 
L 158.603636 163.420352 
L 154.996364 163.420352 
L 151.389091 163.420352 
L 147.781818 163.420352 
L 144.174545 163.420352 
L 140.567273 163.420352 
L 136.96 163.408943 
L 133.352727 163.408943 
L 129.745455 163.408943 
L 126.138182 163.408943 
L 122.530909 163.408943 
L 118.923636 163.408943 
L 115.316364 163.408943 
L 111.709091 163.408943 
L 108.101818 163.408943 
L 104.494545 163.408943 
L 100.887273 163.408943 
L 97.28 163.408943 
L 93.672727 163.408943 
L 90.065455 163.408943 
L 86.458182 163.408943 
L 82.850909 163.408943 
L 79.243636 163.408943 
L 75.636364 163.408943 
L 72.029091 163.408943 
L 68.421818 163.408943 
L 64.814545 163.408943 
L 61.207273 163.408943 
L 57.6 163.408943 
L 57.6 165.12 
L 57.6 167.808 
L 57.6 170.496 
L 57.6 170.751088 
z
" clip-path="url(#p8685f2d116)" style="fill: #2db27d; fill-opacity: 0.75"/>
   </g>
   <g id="PathCollection_6">
    <path d="M 61.207273 163.408943 
L 64.814545 163.408943 
L 68.421818 163.408943 
L 72.029091 163.408943 
L 75.636364 163.408943 
L 79.243636 163.408943 
L 82.850909 163.408943 
L 86.458182 163.408943 
L 90.065455 163.408943 
L 93.672727 163.408943 
L 97.28 163.408943 
L 100.887273 163.408943 
L 104.494545 163.408943 
L 108.101818 163.408943 
L 111.709091 163.408943 
L 115.316364 163.408943 
L 118.923636 163.408943 
L 122.530909 163.408943 
L 126.138182 163.408943 
L 129.745455 163.408943 
L 133.352727 163.408943 
L 136.96 163.408943 
L 140.567273 163.420352 
L 144.174545 163.420352 
L 147.781818 163.420352 
L 151.389091 163.420352 
L 154.996364 163.420352 
L 158.603636 163.420352 
L 162.210909 163.420352 
L 165.818182 163.420352 
L 169.425455 163.420352 
L 173.032727 163.428495 
L 176.64 163.448783 
L 180.247273 163.448783 
L 183.854545 163.448783 
L 187.461818 163.52517 
L 191.069091 163.52517 
L 194.676364 163.52517 
L 198.283636 163.52517 
L 201.890909 163.52517 
L 205.498182 163.52517 
L 209.105455 163.699922 
L 212.712727 163.699922 
L 216.32 163.730204 
L 219.927273 163.730204 
L 223.534545 163.730204 
L 227.141818 163.730204 
L 230.749091 163.730204 
L 234.356364 163.789408 
L 237.963636 163.789408 
L 241.570909 163.837492 
L 245.178182 163.973033 
L 248.785455 163.973033 
L 252.392727 163.973033 
L 256 164.00532 
L 259.607273 164.00532 
L 263.214545 164.106179 
L 266.821818 164.240696 
L 270.429091 164.240696 
L 274.036364 164.240696 
L 277.643636 164.291994 
L 281.250909 164.323339 
L 284.858182 164.323339 
L 288.465455 164.323339 
L 292.072727 164.323339 
L 295.68 164.35305 
L 299.287273 164.35305 
L 302.894545 164.35305 
L 306.501818 164.35305 
L 310.109091 164.35305 
L 313.716364 164.35305 
L 317.323636 164.35305 
L 320.930909 164.35305 
L 324.538182 164.35305 
L 328.145455 164.35305 
L 331.752727 164.35305 
L 335.36 164.35305 
L 338.967273 164.35305 
L 342.574545 164.35305 
L 346.181818 164.35305 
L 349.789091 164.35305 
L 353.396364 164.35305 
L 357.003636 164.35305 
L 360.610909 164.35305 
L 364.218182 164.35305 
L 367.825455 164.35305 
L 371.432727 164.35305 
L 375.04 164.35305 
L 378.647273 164.35305 
L 382.254545 164.35305 
L 385.861818 164.278461 
L 389.469091 164.278461 
L 393.076364 164.278461 
L 396.683636 164.278461 
L 400.290909 164.278461 
L 403.898182 164.278461 
L 407.505455 164.278461 
L 411.112727 164.278461 
L 414.72 164.278461 
L 414.72 162.43908 
L 411.112727 162.43908 
L 407.505455 162.43908 
L 403.898182 162.43908 
L 400.290909 162.43908 
L 396.683636 162.43908 
L 393.076364 162.43908 
L 389.469091 162.43908 
L 385.861818 162.43908 
L 382.254545 162.513668 
L 378.647273 162.513668 
L 375.04 162.513668 
L 371.432727 162.513668 
L 367.825455 162.513668 
L 364.218182 162.513668 
L 360.610909 162.513668 
L 357.003636 162.513668 
L 353.396364 162.513668 
L 349.789091 162.513668 
L 346.181818 162.513668 
L 342.574545 162.513668 
L 338.967273 162.513668 
L 335.36 162.513668 
L 331.752727 162.513668 
L 328.145455 162.513668 
L 324.538182 162.513668 
L 320.930909 162.513668 
L 317.323636 162.513668 
L 313.716364 162.513668 
L 310.109091 162.513668 
L 306.501818 162.513668 
L 302.894545 162.513668 
L 299.287273 162.513668 
L 295.68 162.513668 
L 292.072727 162.483958 
L 288.465455 162.483958 
L 284.858182 162.483958 
L 281.250909 162.483958 
L 277.643636 162.452613 
L 276.194152 162.432 
L 276.194152 159.744 
L 274.036364 159.526791 
L 270.429091 159.526791 
L 266.821818 159.526791 
L 263.214545 158.574598 
L 259.607273 157.860654 
L 256 157.860654 
L 252.392727 157.632106 
L 248.785455 157.632106 
L 245.178182 157.632106 
L 243.012172 157.056 
L 241.570909 155.773369 
L 237.963636 154.634526 
L 234.356364 154.634526 
L 233.670714 154.368 
L 230.749091 154.178238 
L 227.141818 154.178238 
L 223.534545 154.178238 
L 219.927273 154.178238 
L 216.32 154.178238 
L 212.712727 154.058399 
L 209.105455 154.058399 
L 205.498182 153.366829 
L 201.890909 153.366829 
L 198.283636 153.366829 
L 194.676364 153.366829 
L 191.069091 153.366829 
L 187.461818 153.366829 
L 183.854545 153.064535 
L 180.247273 153.064535 
L 176.64 153.064535 
L 173.032727 152.984247 
L 169.425455 152.952019 
L 165.818182 152.952019 
L 162.210909 152.952019 
L 158.603636 152.952019 
L 154.996364 152.952019 
L 151.389091 152.952019 
L 147.781818 152.952019 
L 144.174545 152.952019 
L 140.567273 152.952019 
L 136.96 152.906869 
L 133.352727 152.906869 
L 129.745455 152.906869 
L 126.138182 152.906869 
L 122.530909 152.906869 
L 118.923636 152.906869 
L 115.316364 152.906869 
L 111.709091 152.906869 
L 108.101818 152.906869 
L 104.494545 152.906869 
L 100.887273 152.906869 
L 97.28 152.906869 
L 93.672727 152.906869 
L 90.065455 152.906869 
L 86.458182 152.906869 
L 82.850909 152.906869 
L 79.243636 152.906869 
L 75.636364 152.906869 
L 72.029091 152.906869 
L 68.421818 152.906869 
L 64.814545 152.906869 
L 61.207273 152.906869 
L 57.6 152.906869 
L 57.6 154.368 
L 57.6 157.056 
L 57.6 159.744 
L 57.6 162.432 
L 57.6 163.408943 
z
" clip-path="url(#p8685f2d116)" style="fill: #73d056; fill-opacity: 0.75"/>
   </g>
   <g id="PathCollection_7">
    <path d="M 277.643636 162.452613 
L 281.250909 162.483958 
L 284.858182 162.483958 
L 288.465455 162.483958 
L 292.072727 162.483958 
L 295.68 162.513668 
L 299.287273 162.513668 
L 302.894545 162.513668 
L 306.501818 162.513668 
L 310.109091 162.513668 
L 313.716364 162.513668 
L 317.323636 162.513668 
L 320.930909 162.513668 
L 324.538182 162.513668 
L 328.145455 162.513668 
L 331.752727 162.513668 
L 335.36 162.513668 
L 338.967273 162.513668 
L 342.574545 162.513668 
L 346.181818 162.513668 
L 349.789091 162.513668 
L 353.396364 162.513668 
L 357.003636 162.513668 
L 360.610909 162.513668 
L 364.218182 162.513668 
L 367.825455 162.513668 
L 371.432727 162.513668 
L 375.04 162.513668 
L 378.647273 162.513668 
L 382.254545 162.513668 
L 385.861818 162.43908 
L 389.469091 162.43908 
L 393.076364 162.43908 
L 396.683636 162.43908 
L 400.290909 162.43908 
L 403.898182 162.43908 
L 407.505455 162.43908 
L 411.112727 162.43908 
L 414.72 162.43908 
L 414.72 162.432 
L 414.72 159.744 
L 414.72 157.056 
L 414.72 154.368 
L 414.72 151.68 
L 414.72 148.992 
L 414.72 146.304 
L 414.72 143.616 
L 414.72 140.928 
L 414.72 138.24 
L 414.72 135.552 
L 414.72 132.864 
L 414.72 130.176 
L 414.72 127.488 
L 414.72 124.8 
L 414.72 122.112 
L 414.72 119.424 
L 414.72 116.736 
L 414.72 114.048 
L 414.72 111.36 
L 414.72 108.672 
L 414.72 105.984 
L 414.72 103.296 
L 414.72 100.608 
L 414.72 97.92 
L 414.72 95.232 
L 414.72 92.544 
L 414.72 89.856 
L 414.72 87.168 
L 414.72 84.48 
L 414.72 81.792 
L 414.72 79.104 
L 414.72 76.416 
L 414.72 73.728 
L 414.72 71.04 
L 414.72 68.352 
L 414.72 65.664 
L 414.72 62.976 
L 414.72 60.288 
L 414.72 57.6 
L 414.72 54.912 
L 414.72 52.224 
L 414.72 49.536 
L 414.72 46.848 
L 414.72 44.16 
L 414.72 41.472 
L 411.112727 41.472 
L 407.505455 41.472 
L 403.898182 41.472 
L 400.290909 41.472 
L 396.683636 41.472 
L 393.076364 41.472 
L 389.469091 41.472 
L 385.861818 41.472 
L 382.254545 41.472 
L 378.647273 41.472 
L 375.04 41.472 
L 371.432727 41.472 
L 367.825455 41.472 
L 364.218182 41.472 
L 360.610909 41.472 
L 357.003636 41.472 
L 353.396364 41.472 
L 349.789091 41.472 
L 346.181818 41.472 
L 342.574545 41.472 
L 338.967273 41.472 
L 335.36 41.472 
L 331.752727 41.472 
L 328.145455 41.472 
L 324.538182 41.472 
L 320.930909 41.472 
L 317.323636 41.472 
L 313.716364 41.472 
L 310.109091 41.472 
L 306.501818 41.472 
L 302.894545 41.472 
L 299.287273 41.472 
L 295.68 41.472 
L 292.072727 41.472 
L 288.465455 41.472 
L 284.858182 41.472 
L 281.250909 41.472 
L 277.643636 41.472 
L 274.036364 41.472 
L 270.429091 41.472 
L 266.821818 41.472 
L 263.214545 41.472 
L 259.607273 41.472 
L 256 41.472 
L 252.392727 41.472 
L 248.785455 41.472 
L 245.178182 41.472 
L 241.570909 41.472 
L 237.963636 41.472 
L 234.356364 41.472 
L 230.749091 41.472 
L 227.141818 41.472 
L 223.534545 41.472 
L 219.927273 41.472 
L 216.32 41.472 
L 212.712727 41.472 
L 209.105455 41.472 
L 205.498182 41.472 
L 201.890909 41.472 
L 198.283636 41.472 
L 194.676364 41.472 
L 191.069091 41.472 
L 187.461818 41.472 
L 183.854545 41.472 
L 180.247273 41.472 
L 176.64 41.472 
L 173.032727 41.472 
L 169.425455 41.472 
L 165.818182 41.472 
L 162.210909 41.472 
L 158.603636 41.472 
L 154.996364 41.472 
L 151.389091 41.472 
L 147.781818 41.472 
L 144.174545 41.472 
L 140.567273 41.472 
L 136.96 41.472 
L 133.352727 41.472 
L 129.745455 41.472 
L 126.138182 41.472 
L 122.530909 41.472 
L 118.923636 41.472 
L 115.316364 41.472 
L 111.709091 41.472 
L 108.101818 41.472 
L 104.494545 41.472 
L 100.887273 41.472 
L 97.28 41.472 
L 93.672727 41.472 
L 90.065455 41.472 
L 86.458182 41.472 
L 82.850909 41.472 
L 79.243636 41.472 
L 75.636364 41.472 
L 72.029091 41.472 
L 68.421818 41.472 
L 64.814545 41.472 
L 61.207273 41.472 
L 57.6 41.472 
L 57.6 44.16 
L 57.6 46.848 
L 57.6 49.536 
L 57.6 52.224 
L 57.6 54.912 
L 57.6 57.6 
L 57.6 60.288 
L 57.6 62.976 
L 57.6 65.664 
L 57.6 68.352 
L 57.6 71.04 
L 57.6 73.728 
L 57.6 76.416 
L 57.6 79.104 
L 57.6 81.792 
L 57.6 84.48 
L 57.6 87.168 
L 57.6 89.856 
L 57.6 92.544 
L 57.6 95.232 
L 57.6 97.92 
L 57.6 100.608 
L 57.6 103.296 
L 57.6 105.984 
L 57.6 108.672 
L 57.6 111.36 
L 57.6 114.048 
L 57.6 116.736 
L 57.6 119.424 
L 57.6 122.112 
L 57.6 124.8 
L 57.6 127.488 
L 57.6 130.176 
L 57.6 132.864 
L 57.6 135.552 
L 57.6 138.24 
L 57.6 140.928 
L 57.6 143.616 
L 57.6 146.304 
L 57.6 148.992 
L 57.6 151.68 
L 57.6 152.906869 
L 61.207273 152.906869 
L 64.814545 152.906869 
L 68.421818 152.906869 
L 72.029091 152.906869 
L 75.636364 152.906869 
L 79.243636 152.906869 
L 82.850909 152.906869 
L 86.458182 152.906869 
L 90.065455 152.906869 
L 93.672727 152.906869 
L 97.28 152.906869 
L 100.887273 152.906869 
L 104.494545 152.906869 
L 108.101818 152.906869 
L 111.709091 152.906869 
L 115.316364 152.906869 
L 118.923636 152.906869 
L 122.530909 152.906869 
L 126.138182 152.906869 
L 129.745455 152.906869 
L 133.352727 152.906869 
L 136.96 152.906869 
L 140.567273 152.952019 
L 144.174545 152.952019 
L 147.781818 152.952019 
L 151.389091 152.952019 
L 154.996364 152.952019 
L 158.603636 152.952019 
L 162.210909 152.952019 
L 165.818182 152.952019 
L 169.425455 152.952019 
L 173.032727 152.984247 
L 176.64 153.064535 
L 180.247273 153.064535 
L 183.854545 153.064535 
L 187.461818 153.366829 
L 191.069091 153.366829 
L 194.676364 153.366829 
L 198.283636 153.366829 
L 201.890909 153.366829 
L 205.498182 153.366829 
L 209.105455 154.058399 
L 212.712727 154.058399 
L 216.32 154.178238 
L 219.927273 154.178238 
L 223.534545 154.178238 
L 227.141818 154.178238 
L 230.749091 154.178238 
L 233.670714 154.368 
L 234.356364 154.634526 
L 237.963636 154.634526 
L 241.570909 155.773369 
L 243.012172 157.056 
L 245.178182 157.632106 
L 248.785455 157.632106 
L 252.392727 157.632106 
L 256 157.860654 
L 259.607273 157.860654 
L 263.214545 158.574598 
L 266.821818 159.526791 
L 270.429091 159.526791 
L 274.036364 159.526791 
L 276.194152 159.744 
L 276.194152 162.432 
z
" clip-path="url(#p8685f2d116)" style="fill: #d0e11c; fill-opacity: 0.75"/>
   </g>
   <g id="matplotlib.axis_1">
    <g id="xtick_1">
     <g id="line2d_1">
      <defs>
       <path id="me2f167111e" d="M 0 0 
L 0 3.5 
" style="stroke: #000000; stroke-width: 0.8"/>
      </defs>
      <g>
       <use xlink:href="#me2f167111e" x="115.26897" y="307.584" style="stroke: #000000; stroke-width: 0.8"/>
      </g>
     </g>
     <g id="text_1">
      <!-- 10 -->
      <g transform="translate(108.90647 322.182437) scale(0.1 -0.1)">
       <defs>
        <path id="DejaVuSans-31" d="M 794 531 
L 1825 531 
L 1825 4091 
L 703 3866 
L 703 4441 
L 1819 4666 
L 2450 4666 
L 2450 531 
L 3481 531 
L 3481 0 
L 794 0 
L 794 531 
z
" transform="scale(0.015625)"/>
        <path id="DejaVuSans-30" d="M 2034 4250 
Q 1547 4250 1301 3770 
Q 1056 3291 1056 2328 
Q 1056 1369 1301 889 
Q 1547 409 2034 409 
Q 2525 409 2770 889 
Q 3016 1369 3016 2328 
Q 3016 3291 2770 3770 
Q 2525 4250 2034 4250 
z
M 2034 4750 
Q 2819 4750 3233 4129 
Q 3647 3509 3647 2328 
Q 3647 1150 3233 529 
Q 2819 -91 2034 -91 
Q 1250 -91 836 529 
Q 422 1150 422 2328 
Q 422 3509 836 4129 
Q 1250 4750 2034 4750 
z
" transform="scale(0.015625)"/>
       </defs>
       <use xlink:href="#DejaVuSans-31"/>
       <use xlink:href="#DejaVuSans-30" x="63.623047"/>
      </g>
     </g>
    </g>
    <g id="xtick_2">
     <g id="line2d_2">
      <g>
       <use xlink:href="#me2f167111e" x="189.508116" y="307.584" style="stroke: #000000; stroke-width: 0.8"/>
      </g>
     </g>
     <g id="text_2">
      <!-- 15 -->
      <g transform="translate(183.145616 322.182437) scale(0.1 -0.1)">
       <defs>
        <path id="DejaVuSans-35" d="M 691 4666 
L 3169 4666 
L 3169 4134 
L 1269 4134 
L 1269 2991 
Q 1406 3038 1543 3061 
Q 1681 3084 1819 3084 
Q 2600 3084 3056 2656 
Q 3513 2228 3513 1497 
Q 3513 744 3044 326 
Q 2575 -91 1722 -91 
Q 1428 -91 1123 -41 
Q 819 9 494 109 
L 494 744 
Q 775 591 1075 516 
Q 1375 441 1709 441 
Q 2250 441 2565 725 
Q 2881 1009 2881 1497 
Q 2881 1984 2565 2268 
Q 2250 2553 1709 2553 
Q 1456 2553 1204 2497 
Q 953 2441 691 2322 
L 691 4666 
z
" transform="scale(0.015625)"/>
       </defs>
       <use xlink:href="#DejaVuSans-31"/>
       <use xlink:href="#DejaVuSans-35" x="63.623047"/>
      </g>
     </g>
    </g>
    <g id="xtick_3">
     <g id="line2d_3">
      <g>
       <use xlink:href="#me2f167111e" x="263.747261" y="307.584" style="stroke: #000000; stroke-width: 0.8"/>
      </g>
     </g>
     <g id="text_3">
      <!-- 20 -->
      <g transform="translate(257.384761 322.182437) scale(0.1 -0.1)">
       <defs>
        <path id="DejaVuSans-32" d="M 1228 531 
L 3431 531 
L 3431 0 
L 469 0 
L 469 531 
Q 828 903 1448 1529 
Q 2069 2156 2228 2338 
Q 2531 2678 2651 2914 
Q 2772 3150 2772 3378 
Q 2772 3750 2511 3984 
Q 2250 4219 1831 4219 
Q 1534 4219 1204 4116 
Q 875 4013 500 3803 
L 500 4441 
Q 881 4594 1212 4672 
Q 1544 4750 1819 4750 
Q 2544 4750 2975 4387 
Q 3406 4025 3406 3419 
Q 3406 3131 3298 2873 
Q 3191 2616 2906 2266 
Q 2828 2175 2409 1742 
Q 1991 1309 1228 531 
z
" transform="scale(0.015625)"/>
       </defs>
       <use xlink:href="#DejaVuSans-32"/>
       <use xlink:href="#DejaVuSans-30" x="63.623047"/>
      </g>
     </g>
    </g>
    <g id="xtick_4">
     <g id="line2d_4">
      <g>
       <use xlink:href="#me2f167111e" x="337.986407" y="307.584" style="stroke: #000000; stroke-width: 0.8"/>
      </g>
     </g>
     <g id="text_4">
      <!-- 25 -->
      <g transform="translate(331.623907 322.182437) scale(0.1 -0.1)">
       <use xlink:href="#DejaVuSans-32"/>
       <use xlink:href="#DejaVuSans-35" x="63.623047"/>
      </g>
     </g>
    </g>
    <g id="xtick_5">
     <g id="line2d_5">
      <g>
       <use xlink:href="#me2f167111e" x="412.225552" y="307.584" style="stroke: #000000; stroke-width: 0.8"/>
      </g>
     </g>
     <g id="text_5">
      <!-- 30 -->
      <g transform="translate(405.863052 322.182437) scale(0.1 -0.1)">
       <defs>
        <path id="DejaVuSans-33" d="M 2597 2516 
Q 3050 2419 3304 2112 
Q 3559 1806 3559 1356 
Q 3559 666 3084 287 
Q 2609 -91 1734 -91 
Q 1441 -91 1130 -33 
Q 819 25 488 141 
L 488 750 
Q 750 597 1062 519 
Q 1375 441 1716 441 
Q 2309 441 2620 675 
Q 2931 909 2931 1356 
Q 2931 1769 2642 2001 
Q 2353 2234 1838 2234 
L 1294 2234 
L 1294 2753 
L 1863 2753 
Q 2328 2753 2575 2939 
Q 2822 3125 2822 3475 
Q 2822 3834 2567 4026 
Q 2313 4219 1838 4219 
Q 1578 4219 1281 4162 
Q 984 4106 628 3988 
L 628 4550 
Q 988 4650 1302 4700 
Q 1616 4750 1894 4750 
Q 2613 4750 3031 4423 
Q 3450 4097 3450 3541 
Q 3450 3153 3228 2886 
Q 3006 2619 2597 2516 
z
" transform="scale(0.015625)"/>
       </defs>
       <use xlink:href="#DejaVuSans-33"/>
       <use xlink:href="#DejaVuSans-30" x="63.623047"/>
      </g>
     </g>
    </g>
    <g id="text_6">
     <!-- Smoking Prevalence -->
     <g transform="translate(185.409219 335.860562) scale(0.1 -0.1)">
      <defs>
       <path id="DejaVuSans-53" d="M 3425 4513 
L 3425 3897 
Q 3066 4069 2747 4153 
Q 2428 4238 2131 4238 
Q 1616 4238 1336 4038 
Q 1056 3838 1056 3469 
Q 1056 3159 1242 3001 
Q 1428 2844 1947 2747 
L 2328 2669 
Q 3034 2534 3370 2195 
Q 3706 1856 3706 1288 
Q 3706 609 3251 259 
Q 2797 -91 1919 -91 
Q 1588 -91 1214 -16 
Q 841 59 441 206 
L 441 856 
Q 825 641 1194 531 
Q 1563 422 1919 422 
Q 2459 422 2753 634 
Q 3047 847 3047 1241 
Q 3047 1584 2836 1778 
Q 2625 1972 2144 2069 
L 1759 2144 
Q 1053 2284 737 2584 
Q 422 2884 422 3419 
Q 422 4038 858 4394 
Q 1294 4750 2059 4750 
Q 2388 4750 2728 4690 
Q 3069 4631 3425 4513 
z
" transform="scale(0.015625)"/>
       <path id="DejaVuSans-6d" d="M 3328 2828 
Q 3544 3216 3844 3400 
Q 4144 3584 4550 3584 
Q 5097 3584 5394 3201 
Q 5691 2819 5691 2113 
L 5691 0 
L 5113 0 
L 5113 2094 
Q 5113 2597 4934 2840 
Q 4756 3084 4391 3084 
Q 3944 3084 3684 2787 
Q 3425 2491 3425 1978 
L 3425 0 
L 2847 0 
L 2847 2094 
Q 2847 2600 2669 2842 
Q 2491 3084 2119 3084 
Q 1678 3084 1418 2786 
Q 1159 2488 1159 1978 
L 1159 0 
L 581 0 
L 581 3500 
L 1159 3500 
L 1159 2956 
Q 1356 3278 1631 3431 
Q 1906 3584 2284 3584 
Q 2666 3584 2933 3390 
Q 3200 3197 3328 2828 
z
" transform="scale(0.015625)"/>
       <path id="DejaVuSans-6f" d="M 1959 3097 
Q 1497 3097 1228 2736 
Q 959 2375 959 1747 
Q 959 1119 1226 758 
Q 1494 397 1959 397 
Q 2419 397 2687 759 
Q 2956 1122 2956 1747 
Q 2956 2369 2687 2733 
Q 2419 3097 1959 3097 
z
M 1959 3584 
Q 2709 3584 3137 3096 
Q 3566 2609 3566 1747 
Q 3566 888 3137 398 
Q 2709 -91 1959 -91 
Q 1206 -91 779 398 
Q 353 888 353 1747 
Q 353 2609 779 3096 
Q 1206 3584 1959 3584 
z
" transform="scale(0.015625)"/>
       <path id="DejaVuSans-6b" d="M 581 4863 
L 1159 4863 
L 1159 1991 
L 2875 3500 
L 3609 3500 
L 1753 1863 
L 3688 0 
L 2938 0 
L 1159 1709 
L 1159 0 
L 581 0 
L 581 4863 
z
" transform="scale(0.015625)"/>
       <path id="DejaVuSans-69" d="M 603 3500 
L 1178 3500 
L 1178 0 
L 603 0 
L 603 3500 
z
M 603 4863 
L 1178 4863 
L 1178 4134 
L 603 4134 
L 603 4863 
z
" transform="scale(0.015625)"/>
       <path id="DejaVuSans-6e" d="M 3513 2113 
L 3513 0 
L 2938 0 
L 2938 2094 
Q 2938 2591 2744 2837 
Q 2550 3084 2163 3084 
Q 1697 3084 1428 2787 
Q 1159 2491 1159 1978 
L 1159 0 
L 581 0 
L 581 3500 
L 1159 3500 
L 1159 2956 
Q 1366 3272 1645 3428 
Q 1925 3584 2291 3584 
Q 2894 3584 3203 3211 
Q 3513 2838 3513 2113 
z
" transform="scale(0.015625)"/>
       <path id="DejaVuSans-67" d="M 2906 1791 
Q 2906 2416 2648 2759 
Q 2391 3103 1925 3103 
Q 1463 3103 1205 2759 
Q 947 2416 947 1791 
Q 947 1169 1205 825 
Q 1463 481 1925 481 
Q 2391 481 2648 825 
Q 2906 1169 2906 1791 
z
M 3481 434 
Q 3481 -459 3084 -895 
Q 2688 -1331 1869 -1331 
Q 1566 -1331 1297 -1286 
Q 1028 -1241 775 -1147 
L 775 -588 
Q 1028 -725 1275 -790 
Q 1522 -856 1778 -856 
Q 2344 -856 2625 -561 
Q 2906 -266 2906 331 
L 2906 616 
Q 2728 306 2450 153 
Q 2172 0 1784 0 
Q 1141 0 747 490 
Q 353 981 353 1791 
Q 353 2603 747 3093 
Q 1141 3584 1784 3584 
Q 2172 3584 2450 3431 
Q 2728 3278 2906 2969 
L 2906 3500 
L 3481 3500 
L 3481 434 
z
" transform="scale(0.015625)"/>
       <path id="DejaVuSans-20" transform="scale(0.015625)"/>
       <path id="DejaVuSans-50" d="M 1259 4147 
L 1259 2394 
L 2053 2394 
Q 2494 2394 2734 2622 
Q 2975 2850 2975 3272 
Q 2975 3691 2734 3919 
Q 2494 4147 2053 4147 
L 1259 4147 
z
M 628 4666 
L 2053 4666 
Q 2838 4666 3239 4311 
Q 3641 3956 3641 3272 
Q 3641 2581 3239 2228 
Q 2838 1875 2053 1875 
L 1259 1875 
L 1259 0 
L 628 0 
L 628 4666 
z
" transform="scale(0.015625)"/>
       <path id="DejaVuSans-72" d="M 2631 2963 
Q 2534 3019 2420 3045 
Q 2306 3072 2169 3072 
Q 1681 3072 1420 2755 
Q 1159 2438 1159 1844 
L 1159 0 
L 581 0 
L 581 3500 
L 1159 3500 
L 1159 2956 
Q 1341 3275 1631 3429 
Q 1922 3584 2338 3584 
Q 2397 3584 2469 3576 
Q 2541 3569 2628 3553 
L 2631 2963 
z
" transform="scale(0.015625)"/>
       <path id="DejaVuSans-65" d="M 3597 1894 
L 3597 1613 
L 953 1613 
Q 991 1019 1311 708 
Q 1631 397 2203 397 
Q 2534 397 2845 478 
Q 3156 559 3463 722 
L 3463 178 
Q 3153 47 2828 -22 
Q 2503 -91 2169 -91 
Q 1331 -91 842 396 
Q 353 884 353 1716 
Q 353 2575 817 3079 
Q 1281 3584 2069 3584 
Q 2775 3584 3186 3129 
Q 3597 2675 3597 1894 
z
M 3022 2063 
Q 3016 2534 2758 2815 
Q 2500 3097 2075 3097 
Q 1594 3097 1305 2825 
Q 1016 2553 972 2059 
L 3022 2063 
z
" transform="scale(0.015625)"/>
       <path id="DejaVuSans-76" d="M 191 3500 
L 800 3500 
L 1894 563 
L 2988 3500 
L 3597 3500 
L 2284 0 
L 1503 0 
L 191 3500 
z
" transform="scale(0.015625)"/>
       <path id="DejaVuSans-61" d="M 2194 1759 
Q 1497 1759 1228 1600 
Q 959 1441 959 1056 
Q 959 750 1161 570 
Q 1363 391 1709 391 
Q 2188 391 2477 730 
Q 2766 1069 2766 1631 
L 2766 1759 
L 2194 1759 
z
M 3341 1997 
L 3341 0 
L 2766 0 
L 2766 531 
Q 2569 213 2275 61 
Q 1981 -91 1556 -91 
Q 1019 -91 701 211 
Q 384 513 384 1019 
Q 384 1609 779 1909 
Q 1175 2209 1959 2209 
L 2766 2209 
L 2766 2266 
Q 2766 2663 2505 2880 
Q 2244 3097 1772 3097 
Q 1472 3097 1187 3025 
Q 903 2953 641 2809 
L 641 3341 
Q 956 3463 1253 3523 
Q 1550 3584 1831 3584 
Q 2591 3584 2966 3190 
Q 3341 2797 3341 1997 
z
" transform="scale(0.015625)"/>
       <path id="DejaVuSans-6c" d="M 603 4863 
L 1178 4863 
L 1178 0 
L 603 0 
L 603 4863 
z
" transform="scale(0.015625)"/>
       <path id="DejaVuSans-63" d="M 3122 3366 
L 3122 2828 
Q 2878 2963 2633 3030 
Q 2388 3097 2138 3097 
Q 1578 3097 1268 2742 
Q 959 2388 959 1747 
Q 959 1106 1268 751 
Q 1578 397 2138 397 
Q 2388 397 2633 464 
Q 2878 531 3122 666 
L 3122 134 
Q 2881 22 2623 -34 
Q 2366 -91 2075 -91 
Q 1284 -91 818 406 
Q 353 903 353 1747 
Q 353 2603 823 3093 
Q 1294 3584 2113 3584 
Q 2378 3584 2631 3529 
Q 2884 3475 3122 3366 
z
" transform="scale(0.015625)"/>
      </defs>
      <use xlink:href="#DejaVuSans-53"/>
      <use xlink:href="#DejaVuSans-6d" x="63.476562"/>
      <use xlink:href="#DejaVuSans-6f" x="160.888672"/>
      <use xlink:href="#DejaVuSans-6b" x="222.070312"/>
      <use xlink:href="#DejaVuSans-69" x="279.980469"/>
      <use xlink:href="#DejaVuSans-6e" x="307.763672"/>
      <use xlink:href="#DejaVuSans-67" x="371.142578"/>
      <use xlink:href="#DejaVuSans-20" x="434.619141"/>
      <use xlink:href="#DejaVuSans-50" x="466.40625"/>
      <use xlink:href="#DejaVuSans-72" x="524.958984"/>
      <use xlink:href="#DejaVuSans-65" x="563.822266"/>
      <use xlink:href="#DejaVuSans-76" x="625.345703"/>
      <use xlink:href="#DejaVuSans-61" x="684.525391"/>
      <use xlink:href="#DejaVuSans-6c" x="745.804688"/>
      <use xlink:href="#DejaVuSans-65" x="773.587891"/>
      <use xlink:href="#DejaVuSans-6e" x="835.111328"/>
      <use xlink:href="#DejaVuSans-63" x="898.490234"/>
      <use xlink:href="#DejaVuSans-65" x="953.470703"/>
     </g>
    </g>
   </g>
   <g id="matplotlib.axis_2">
    <g id="ytick_1">
     <g id="line2d_6">
      <defs>
       <path id="mc398f557db" d="M 0 0 
L -3.5 0 
" style="stroke: #000000; stroke-width: 0.8"/>
      </defs>
      <g>
       <use xlink:href="#mc398f557db" x="57.6" y="274.933014" style="stroke: #000000; stroke-width: 0.8"/>
      </g>
     </g>
     <g id="text_7">
      <!-- 5 -->
      <g transform="translate(44.2375 278.732233) scale(0.1 -0.1)">
       <use xlink:href="#DejaVuSans-35"/>
      </g>
     </g>
    </g>
    <g id="ytick_2">
     <g id="line2d_7">
      <g>
       <use xlink:href="#mc398f557db" x="57.6" y="242.27355" style="stroke: #000000; stroke-width: 0.8"/>
      </g>
     </g>
     <g id="text_8">
      <!-- 10 -->
      <g transform="translate(37.875 246.072769) scale(0.1 -0.1)">
       <use xlink:href="#DejaVuSans-31"/>
       <use xlink:href="#DejaVuSans-30" x="63.623047"/>
      </g>
     </g>
    </g>
    <g id="ytick_3">
     <g id="line2d_8">
      <g>
       <use xlink:href="#mc398f557db" x="57.6" y="209.614086" style="stroke: #000000; stroke-width: 0.8"/>
      </g>
     </g>
     <g id="text_9">
      <!-- 15 -->
      <g transform="translate(37.875 213.413305) scale(0.1 -0.1)">
       <use xlink:href="#DejaVuSans-31"/>
       <use xlink:href="#DejaVuSans-35" x="63.623047"/>
      </g>
     </g>
    </g>
    <g id="ytick_4">
     <g id="line2d_9">
      <g>
       <use xlink:href="#mc398f557db" x="57.6" y="176.954622" style="stroke: #000000; stroke-width: 0.8"/>
      </g>
     </g>
     <g id="text_10">
      <!-- 20 -->
      <g transform="translate(37.875 180.753841) scale(0.1 -0.1)">
       <use xlink:href="#DejaVuSans-32"/>
       <use xlink:href="#DejaVuSans-30" x="63.623047"/>
      </g>
     </g>
    </g>
    <g id="ytick_5">
     <g id="line2d_10">
      <g>
       <use xlink:href="#mc398f557db" x="57.6" y="144.295158" style="stroke: #000000; stroke-width: 0.8"/>
      </g>
     </g>
     <g id="text_11">
      <!-- 25 -->
      <g transform="translate(37.875 148.094377) scale(0.1 -0.1)">
       <use xlink:href="#DejaVuSans-32"/>
       <use xlink:href="#DejaVuSans-35" x="63.623047"/>
      </g>
     </g>
    </g>
    <g id="ytick_6">
     <g id="line2d_11">
      <g>
       <use xlink:href="#mc398f557db" x="57.6" y="111.635694" style="stroke: #000000; stroke-width: 0.8"/>
      </g>
     </g>
     <g id="text_12">
      <!-- 30 -->
      <g transform="translate(37.875 115.434913) scale(0.1 -0.1)">
       <use xlink:href="#DejaVuSans-33"/>
       <use xlink:href="#DejaVuSans-30" x="63.623047"/>
      </g>
     </g>
    </g>
    <g id="ytick_7">
     <g id="line2d_12">
      <g>
       <use xlink:href="#mc398f557db" x="57.6" y="78.97623" style="stroke: #000000; stroke-width: 0.8"/>
      </g>
     </g>
     <g id="text_13">
      <!-- 35 -->
      <g transform="translate(37.875 82.775449) scale(0.1 -0.1)">
       <use xlink:href="#DejaVuSans-33"/>
       <use xlink:href="#DejaVuSans-35" x="63.623047"/>
      </g>
     </g>
    </g>
    <g id="ytick_8">
     <g id="line2d_13">
      <g>
       <use xlink:href="#mc398f557db" x="57.6" y="46.316767" style="stroke: #000000; stroke-width: 0.8"/>
      </g>
     </g>
     <g id="text_14">
      <!-- 40 -->
      <g transform="translate(37.875 50.115985) scale(0.1 -0.1)">
       <defs>
        <path id="DejaVuSans-34" d="M 2419 4116 
L 825 1625 
L 2419 1625 
L 2419 4116 
z
M 2253 4666 
L 3047 4666 
L 3047 1625 
L 3713 1625 
L 3713 1100 
L 3047 1100 
L 3047 0 
L 2419 0 
L 2419 1100 
L 313 1100 
L 313 1709 
L 2253 4666 
z
" transform="scale(0.015625)"/>
       </defs>
       <use xlink:href="#DejaVuSans-34"/>
       <use xlink:href="#DejaVuSans-30" x="63.623047"/>
      </g>
     </g>
    </g>
    <g id="text_15">
     <!-- Pig Consumption -->
     <g transform="translate(31.795312 216.697531) rotate(-90) scale(0.1 -0.1)">
      <defs>
       <path id="DejaVuSans-43" d="M 4122 4306 
L 4122 3641 
Q 3803 3938 3442 4084 
Q 3081 4231 2675 4231 
Q 1875 4231 1450 3742 
Q 1025 3253 1025 2328 
Q 1025 1406 1450 917 
Q 1875 428 2675 428 
Q 3081 428 3442 575 
Q 3803 722 4122 1019 
L 4122 359 
Q 3791 134 3420 21 
Q 3050 -91 2638 -91 
Q 1578 -91 968 557 
Q 359 1206 359 2328 
Q 359 3453 968 4101 
Q 1578 4750 2638 4750 
Q 3056 4750 3426 4639 
Q 3797 4528 4122 4306 
z
" transform="scale(0.015625)"/>
       <path id="DejaVuSans-73" d="M 2834 3397 
L 2834 2853 
Q 2591 2978 2328 3040 
Q 2066 3103 1784 3103 
Q 1356 3103 1142 2972 
Q 928 2841 928 2578 
Q 928 2378 1081 2264 
Q 1234 2150 1697 2047 
L 1894 2003 
Q 2506 1872 2764 1633 
Q 3022 1394 3022 966 
Q 3022 478 2636 193 
Q 2250 -91 1575 -91 
Q 1294 -91 989 -36 
Q 684 19 347 128 
L 347 722 
Q 666 556 975 473 
Q 1284 391 1588 391 
Q 1994 391 2212 530 
Q 2431 669 2431 922 
Q 2431 1156 2273 1281 
Q 2116 1406 1581 1522 
L 1381 1569 
Q 847 1681 609 1914 
Q 372 2147 372 2553 
Q 372 3047 722 3315 
Q 1072 3584 1716 3584 
Q 2034 3584 2315 3537 
Q 2597 3491 2834 3397 
z
" transform="scale(0.015625)"/>
       <path id="DejaVuSans-75" d="M 544 1381 
L 544 3500 
L 1119 3500 
L 1119 1403 
Q 1119 906 1312 657 
Q 1506 409 1894 409 
Q 2359 409 2629 706 
Q 2900 1003 2900 1516 
L 2900 3500 
L 3475 3500 
L 3475 0 
L 2900 0 
L 2900 538 
Q 2691 219 2414 64 
Q 2138 -91 1772 -91 
Q 1169 -91 856 284 
Q 544 659 544 1381 
z
M 1991 3584 
L 1991 3584 
z
" transform="scale(0.015625)"/>
       <path id="DejaVuSans-70" d="M 1159 525 
L 1159 -1331 
L 581 -1331 
L 581 3500 
L 1159 3500 
L 1159 2969 
Q 1341 3281 1617 3432 
Q 1894 3584 2278 3584 
Q 2916 3584 3314 3078 
Q 3713 2572 3713 1747 
Q 3713 922 3314 415 
Q 2916 -91 2278 -91 
Q 1894 -91 1617 61 
Q 1341 213 1159 525 
z
M 3116 1747 
Q 3116 2381 2855 2742 
Q 2594 3103 2138 3103 
Q 1681 3103 1420 2742 
Q 1159 2381 1159 1747 
Q 1159 1113 1420 752 
Q 1681 391 2138 391 
Q 2594 391 2855 752 
Q 3116 1113 3116 1747 
z
" transform="scale(0.015625)"/>
       <path id="DejaVuSans-74" d="M 1172 4494 
L 1172 3500 
L 2356 3500 
L 2356 3053 
L 1172 3053 
L 1172 1153 
Q 1172 725 1289 603 
Q 1406 481 1766 481 
L 2356 481 
L 2356 0 
L 1766 0 
Q 1100 0 847 248 
Q 594 497 594 1153 
L 594 3053 
L 172 3053 
L 172 3500 
L 594 3500 
L 594 4494 
L 1172 4494 
z
" transform="scale(0.015625)"/>
      </defs>
      <use xlink:href="#DejaVuSans-50"/>
      <use xlink:href="#DejaVuSans-69" x="58.052734"/>
      <use xlink:href="#DejaVuSans-67" x="85.835938"/>
      <use xlink:href="#DejaVuSans-20" x="149.3125"/>
      <use xlink:href="#DejaVuSans-43" x="181.099609"/>
      <use xlink:href="#DejaVuSans-6f" x="250.923828"/>
      <use xlink:href="#DejaVuSans-6e" x="312.105469"/>
      <use xlink:href="#DejaVuSans-73" x="375.484375"/>
      <use xlink:href="#DejaVuSans-75" x="427.583984"/>
      <use xlink:href="#DejaVuSans-6d" x="490.962891"/>
      <use xlink:href="#DejaVuSans-70" x="588.375"/>
      <use xlink:href="#DejaVuSans-74" x="651.851562"/>
      <use xlink:href="#DejaVuSans-69" x="691.060547"/>
      <use xlink:href="#DejaVuSans-6f" x="718.84375"/>
      <use xlink:href="#DejaVuSans-6e" x="780.025391"/>
     </g>
    </g>
   </g>
   <g id="PathCollection_8"/>
   <g id="PathCollection_9">
    <path d="M 57.6 182.746883 
L 61.207273 182.746883 
L 64.814545 182.746883 
L 68.421818 182.746883 
L 72.029091 182.746883 
L 75.636364 182.746883 
L 79.243636 182.746883 
L 82.850909 182.746883 
L 86.458182 182.746883 
L 90.065455 182.746883 
L 93.672727 182.746883 
L 97.28 182.746883 
L 100.887273 182.746883 
L 104.494545 182.746883 
L 108.101818 182.746883 
L 108.183182 182.746883 
" clip-path="url(#p8685f2d116)" style="fill: none; stroke: #000000; stroke-width: 0.5"/>
    <path d="M 144.093155 182.760918 
L 144.174545 182.760918 
L 147.781818 182.760918 
L 151.389091 182.760918 
L 154.996364 182.760918 
L 158.603636 182.760918 
L 162.210909 182.760918 
L 165.818182 182.760918 
L 169.425455 182.760918 
L 173.032727 182.770937 
L 176.64 182.795896 
L 180.247273 182.795896 
L 183.854545 182.795896 
L 187.461818 182.88987 
L 191.069091 182.88987 
L 194.676364 182.88987 
L 198.283636 182.88987 
L 201.890909 182.88987 
L 205.498182 182.88987 
L 209.105455 183.104858 
L 212.712727 183.231369 
L 216.32 183.268623 
L 219.927273 183.268623 
L 223.534545 183.268623 
L 227.141818 183.268623 
L 230.749091 183.268623 
L 234.356364 183.341458 
L 237.963636 183.341458 
L 241.570909 183.400613 
L 245.178182 183.567362 
L 248.785455 183.567362 
L 252.392727 183.567362 
L 256 183.607083 
L 259.607273 183.607083 
L 263.214545 183.731164 
L 266.821818 183.896652 
L 270.429091 183.896652 
L 274.036364 183.896652 
L 276.285481 183.936 
L 276.285481 186.624 
L 276.285481 189.312 
L 276.285481 192 
L 276.285481 194.688 
L 277.643636 194.902382 
L 281.250909 195.250308 
L 284.858182 195.250308 
L 288.465455 195.250308 
L 292.072727 195.250308 
L 295.68 195.580094 
L 299.287273 195.580094 
L 302.894545 195.580094 
L 306.501818 195.580094 
L 310.109091 195.580094 
L 313.716364 195.580094 
L 317.323636 195.580094 
L 320.930909 195.580094 
L 324.538182 195.580094 
L 328.145455 195.580094 
L 331.752727 195.580094 
L 335.36 195.580094 
L 338.967273 195.580094 
L 342.574545 195.580094 
L 346.181818 195.580094 
L 349.789091 195.580094 
L 353.396364 195.580094 
L 357.003636 195.580094 
L 360.610909 195.580094 
L 364.218182 195.580094 
L 367.825455 195.580094 
L 371.432727 195.580094 
L 375.04 195.580094 
L 378.647273 195.580094 
L 382.254545 195.580094 
L 385.861818 194.752173 
L 389.469091 194.752173 
L 393.076364 194.752173 
L 396.683636 194.752173 
L 400.290909 194.752173 
L 403.898182 194.752173 
L 407.505455 194.752173 
L 411.112727 194.752173 
L 414.72 194.752173 
" clip-path="url(#p8685f2d116)" style="fill: none; stroke: #000000; stroke-width: 0.5"/>
   </g>
   <g id="PathCollection_10">
    <path d="M 57.6 179.101988 
L 61.207273 179.101988 
L 64.814545 179.101988 
L 68.421818 179.101988 
L 72.029091 179.101988 
L 75.636364 179.101988 
L 79.243636 179.101988 
L 82.850909 179.101988 
L 86.458182 179.101988 
L 90.065455 179.101988 
L 93.672727 179.101988 
L 97.28 179.101988 
L 100.887273 179.101988 
L 104.494545 179.101988 
L 108.101818 179.101988 
L 111.709091 179.101988 
L 115.316364 179.101988 
L 118.923636 179.101988 
L 122.530909 179.101988 
L 126.138182 179.101988 
L 129.745455 179.101988 
L 133.352727 179.101988 
L 136.96 179.101988 
L 140.567273 179.141413 
L 144.174545 179.141413 
L 147.781818 179.141413 
L 151.389091 179.141413 
L 154.996364 179.141413 
L 158.603636 179.141413 
L 162.210909 179.141413 
L 165.818182 179.141413 
L 169.425455 179.141413 
L 173.032727 179.169554 
L 176.64 179.239662 
L 180.247273 179.239662 
L 183.854545 179.239662 
L 187.461818 179.503627 
L 191.069091 179.503627 
L 194.676364 179.503627 
L 198.283636 179.503627 
L 201.890909 179.503627 
L 205.498182 179.503627 
L 209.105455 180.107507 
L 212.712727 180.462863 
L 216.32 180.567507 
L 219.927273 180.567507 
L 223.534545 180.567507 
L 227.141818 180.567507 
L 230.749091 180.567507 
L 234.356364 180.772094 
L 237.963636 180.772094 
L 241.570909 180.938254 
L 243.956441 181.248 
L 245.178182 181.304476 
L 248.785455 181.304476 
L 252.392727 181.304476 
L 256 181.344197 
L 259.607273 181.344197 
L 263.214545 181.468278 
L 266.821818 181.633766 
L 270.429091 181.633766 
L 274.036364 181.633766 
L 277.643636 181.696875 
L 281.250909 181.735437 
L 284.858182 181.735437 
L 288.465455 181.735437 
L 292.072727 181.735437 
L 295.68 181.771988 
L 299.287273 181.771988 
L 302.894545 181.771988 
L 306.501818 181.771988 
L 310.109091 181.771988 
L 313.716364 181.771988 
L 317.323636 181.771988 
L 320.930909 181.771988 
L 324.538182 181.771988 
L 328.145455 181.771988 
L 331.752727 181.771988 
L 335.36 181.771988 
L 338.967273 181.771988 
L 342.574545 181.771988 
L 346.181818 181.771988 
L 349.789091 181.771988 
L 353.396364 181.771988 
L 357.003636 181.771988 
L 360.610909 181.771988 
L 364.218182 181.771988 
L 367.825455 181.771988 
L 371.432727 181.771988 
L 375.04 181.771988 
L 378.647273 181.771988 
L 382.254545 181.771988 
L 385.861818 181.680227 
L 385.943182 181.680227 
" clip-path="url(#p8685f2d116)" style="fill: none; stroke: #000000; stroke-width: 0.5"/>
   </g>
   <g id="PathCollection_11">
    <path d="M 57.6 173.985998 
L 61.207273 173.985998 
L 64.814545 173.985998 
L 68.421818 173.985998 
L 72.029091 173.985998 
L 75.636364 173.985998 
L 79.243636 173.985998 
L 82.850909 173.985998 
L 86.458182 173.985998 
L 90.065455 173.985998 
L 93.672727 173.985998 
L 97.28 173.985998 
L 100.887273 173.985998 
L 104.494545 173.985998 
L 108.101818 173.985998 
L 111.709091 173.985998 
L 115.316364 173.985998 
L 118.923636 173.985998 
L 122.530909 173.985998 
L 126.138182 173.985998 
L 129.745455 173.985998 
L 133.352727 173.985998 
L 136.96 173.985998 
L 140.567273 174.000864 
L 144.174545 174.000864 
L 147.781818 174.000864 
L 151.389091 174.000864 
L 154.996364 174.000864 
L 158.603636 174.000864 
L 162.210909 174.000864 
L 165.818182 174.000864 
L 169.425455 174.000864 
L 173.032727 174.011475 
L 176.64 174.037911 
L 180.247273 174.037911 
L 183.854545 174.037911 
L 187.461818 174.137445 
L 191.069091 174.137445 
L 194.676364 174.137445 
L 198.283636 174.137445 
L 201.890909 174.137445 
L 205.498182 174.137445 
L 209.105455 174.365153 
L 212.712727 174.427122 
L 216.32 174.46865 
L 219.927273 174.46865 
L 223.534545 174.46865 
L 227.141818 174.46865 
L 230.749091 174.46865 
L 234.356364 174.549842 
L 237.963636 174.549842 
L 241.570909 174.615784 
L 245.178182 174.801665 
L 248.785455 174.801665 
L 248.874455 174.801665 
" clip-path="url(#p8685f2d116)" style="fill: none; stroke: #000000; stroke-width: 0.5"/>
    <path d="M 284.775876 175.282071 
L 284.858182 175.282071 
L 288.465455 175.282071 
L 292.072727 175.282071 
L 295.68 175.322817 
L 299.287273 175.322817 
L 302.894545 175.322817 
L 306.501818 175.322817 
L 310.109091 175.322817 
L 313.716364 175.322817 
L 317.323636 175.322817 
L 320.930909 175.322817 
L 324.538182 175.322817 
L 328.145455 175.322817 
L 331.752727 175.322817 
L 335.36 175.322817 
L 338.967273 175.322817 
L 342.574545 175.322817 
L 346.181818 175.322817 
L 349.789091 175.322817 
L 353.396364 175.322817 
L 357.003636 175.322817 
L 360.610909 175.322817 
L 364.218182 175.322817 
L 367.825455 175.322817 
L 371.432727 175.322817 
L 375.04 175.322817 
L 378.647273 175.322817 
L 382.254545 175.322817 
L 385.861818 175.220527 
L 389.469091 175.220527 
L 393.076364 175.220527 
L 396.683636 175.220527 
L 400.290909 175.220527 
L 403.898182 175.220527 
L 407.505455 175.220527 
L 411.112727 175.220527 
L 414.72 175.220527 
" clip-path="url(#p8685f2d116)" style="fill: none; stroke: #000000; stroke-width: 0.5"/>
   </g>
   <g id="PathCollection_12">
    <path d="M 57.6 170.751088 
L 61.207273 170.751088 
L 64.814545 170.751088 
L 68.421818 170.751088 
L 72.029091 170.751088 
L 75.636364 170.751088 
L 79.243636 170.751088 
L 82.850909 170.751088 
L 86.458182 170.751088 
L 90.065455 170.751088 
L 93.672727 170.751088 
L 97.28 170.751088 
L 100.887273 170.751088 
L 104.494545 170.751088 
L 108.101818 170.751088 
L 108.183182 170.751088 
" clip-path="url(#p8685f2d116)" style="fill: none; stroke: #000000; stroke-width: 0.5"/>
    <path d="M 144.093111 170.773767 
L 144.174545 170.773767 
L 147.781818 170.773767 
L 151.389091 170.773767 
L 154.996364 170.773767 
L 158.603636 170.773767 
L 162.210909 170.773767 
L 165.818182 170.773767 
L 169.425455 170.773767 
L 173.032727 170.789955 
L 176.64 170.830285 
L 180.247273 170.830285 
L 183.854545 170.830285 
L 187.461818 170.982129 
L 191.069091 170.982129 
L 194.676364 170.982129 
L 198.283636 170.982129 
L 201.890909 170.982129 
L 205.498182 170.982129 
L 209.105455 171.32951 
L 212.712727 171.32951 
L 216.32 171.389706 
L 219.927273 171.389706 
L 223.534545 171.389706 
L 227.141818 171.389706 
L 230.749091 171.389706 
L 234.356364 171.507394 
L 237.963636 171.507394 
L 241.570909 171.602977 
L 245.178182 171.872412 
L 248.785455 171.872412 
L 252.392727 171.872412 
L 256 171.936594 
L 259.607273 171.936594 
L 263.214545 172.137086 
L 266.821818 172.404484 
L 270.429091 172.404484 
L 274.036364 172.404484 
L 277.643636 172.506456 
L 281.250909 172.568765 
L 284.858182 172.568765 
L 288.465455 172.568765 
L 292.072727 172.568765 
L 295.68 172.627825 
L 299.287273 172.627825 
L 302.894545 172.627825 
L 306.501818 172.627825 
L 310.109091 172.627825 
L 313.716364 172.627825 
L 317.323636 172.627825 
L 320.930909 172.627825 
L 324.538182 172.627825 
L 328.145455 172.627825 
L 331.752727 172.627825 
L 335.36 172.627825 
L 338.967273 172.627825 
L 342.574545 172.627825 
L 346.181818 172.627825 
L 349.789091 172.627825 
L 353.396364 172.627825 
L 357.003636 172.627825 
L 360.610909 172.627825 
L 364.218182 172.627825 
L 367.825455 172.627825 
L 371.432727 172.627825 
L 375.04 172.627825 
L 378.647273 172.627825 
L 382.254545 172.627825 
L 385.861818 172.479556 
L 389.469091 172.479556 
L 393.076364 172.479556 
L 396.683636 172.479556 
L 400.290909 172.479556 
L 403.898182 172.479556 
L 407.505455 172.479556 
L 411.112727 172.479556 
L 414.72 172.479556 
" clip-path="url(#p8685f2d116)" style="fill: none; stroke: #000000; stroke-width: 0.5"/>
   </g>
   <g id="PathCollection_13">
    <path d="M 57.6 163.408943 
L 61.207273 163.408943 
L 64.814545 163.408943 
L 68.421818 163.408943 
L 72.029091 163.408943 
L 75.636364 163.408943 
L 79.243636 163.408943 
L 82.850909 163.408943 
L 86.458182 163.408943 
L 90.065455 163.408943 
L 93.672727 163.408943 
L 97.28 163.408943 
L 100.887273 163.408943 
L 104.494545 163.408943 
L 108.101818 163.408943 
L 108.183182 163.408943 
" clip-path="url(#p8685f2d116)" style="fill: none; stroke: #000000; stroke-width: 0.5"/>
    <path d="M 144.093164 163.420352 
L 144.174545 163.420352 
L 147.781818 163.420352 
L 151.389091 163.420352 
L 154.996364 163.420352 
L 158.603636 163.420352 
L 162.210909 163.420352 
L 165.818182 163.420352 
L 169.425455 163.420352 
L 173.032727 163.428495 
L 176.64 163.448783 
L 180.247273 163.448783 
L 183.854545 163.448783 
L 187.461818 163.52517 
L 191.069091 163.52517 
L 194.676364 163.52517 
L 198.283636 163.52517 
L 201.890909 163.52517 
L 205.498182 163.52517 
L 209.105455 163.699922 
L 212.712727 163.699922 
L 216.32 163.730204 
L 219.927273 163.730204 
L 223.534545 163.730204 
L 227.141818 163.730204 
L 230.749091 163.730204 
L 234.356364 163.789408 
L 237.963636 163.789408 
L 241.570909 163.837492 
L 245.178182 163.973033 
L 248.785455 163.973033 
L 252.392727 163.973033 
L 256 164.00532 
L 259.607273 164.00532 
L 263.214545 164.106179 
L 266.821818 164.240696 
L 270.429091 164.240696 
L 274.036364 164.240696 
L 277.643636 164.291994 
L 281.250909 164.323339 
L 284.858182 164.323339 
L 288.465455 164.323339 
L 292.072727 164.323339 
L 295.68 164.35305 
L 299.287273 164.35305 
L 302.894545 164.35305 
L 306.501818 164.35305 
L 310.109091 164.35305 
L 313.716364 164.35305 
L 317.323636 164.35305 
L 320.930909 164.35305 
L 324.538182 164.35305 
L 328.145455 164.35305 
L 331.752727 164.35305 
L 335.36 164.35305 
L 338.967273 164.35305 
L 342.574545 164.35305 
L 346.181818 164.35305 
L 349.789091 164.35305 
L 353.396364 164.35305 
L 357.003636 164.35305 
L 360.610909 164.35305 
L 364.218182 164.35305 
L 367.825455 164.35305 
L 371.432727 164.35305 
L 375.04 164.35305 
L 378.647273 164.35305 
L 382.254545 164.35305 
L 385.861818 164.278461 
L 389.469091 164.278461 
L 393.076364 164.278461 
L 396.683636 164.278461 
L 400.290909 164.278461 
L 403.898182 164.278461 
L 407.505455 164.278461 
L 411.112727 164.278461 
L 414.72 164.278461 
" clip-path="url(#p8685f2d116)" style="fill: none; stroke: #000000; stroke-width: 0.5"/>
   </g>
   <g id="PathCollection_14">
    <path d="M 57.6 152.906869 
L 61.207273 152.906869 
L 64.814545 152.906869 
L 68.421818 152.906869 
L 72.029091 152.906869 
L 75.636364 152.906869 
L 79.243636 152.906869 
L 82.850909 152.906869 
L 86.458182 152.906869 
L 90.065455 152.906869 
L 93.672727 152.906869 
L 97.28 152.906869 
L 100.887273 152.906869 
L 104.494545 152.906869 
L 108.101818 152.906869 
L 108.183182 152.906869 
" clip-path="url(#p8685f2d116)" style="fill: none; stroke: #000000; stroke-width: 0.5"/>
    <path d="M 144.092899 152.952019 
L 144.174545 152.952019 
L 147.781818 152.952019 
L 151.389091 152.952019 
L 154.996364 152.952019 
L 158.603636 152.952019 
L 162.210909 152.952019 
L 165.818182 152.952019 
L 169.425455 152.952019 
L 173.032727 152.984247 
L 176.64 153.064535 
L 180.247273 153.064535 
L 183.854545 153.064535 
L 187.461818 153.366829 
L 191.069091 153.366829 
L 194.676364 153.366829 
L 198.283636 153.366829 
L 201.890909 153.366829 
L 205.498182 153.366829 
L 209.105455 154.058399 
L 212.712727 154.058399 
L 216.32 154.178238 
L 219.927273 154.178238 
L 223.534545 154.178238 
L 227.141818 154.178238 
L 230.749091 154.178238 
L 233.670714 154.368 
L 234.356364 154.634526 
L 237.963636 154.634526 
L 241.570909 155.773369 
L 243.012172 157.056 
L 245.178182 157.632106 
L 248.785455 157.632106 
L 252.392727 157.632106 
L 256 157.860654 
L 259.607273 157.860654 
L 263.214545 158.574598 
L 266.821818 159.526791 
L 270.429091 159.526791 
L 274.036364 159.526791 
L 276.194152 159.744 
L 276.194152 162.432 
L 277.643636 162.452613 
L 281.250909 162.483958 
L 284.858182 162.483958 
L 288.465455 162.483958 
L 292.072727 162.483958 
L 295.68 162.513668 
L 299.287273 162.513668 
L 302.894545 162.513668 
L 306.501818 162.513668 
L 310.109091 162.513668 
L 313.716364 162.513668 
L 317.323636 162.513668 
L 320.930909 162.513668 
L 324.538182 162.513668 
L 328.145455 162.513668 
L 331.752727 162.513668 
L 335.36 162.513668 
L 338.967273 162.513668 
L 342.574545 162.513668 
L 346.181818 162.513668 
L 349.789091 162.513668 
L 353.396364 162.513668 
L 357.003636 162.513668 
L 360.610909 162.513668 
L 364.218182 162.513668 
L 367.825455 162.513668 
L 371.432727 162.513668 
L 375.04 162.513668 
L 378.647273 162.513668 
L 382.254545 162.513668 
L 385.861818 162.43908 
L 389.469091 162.43908 
L 393.076364 162.43908 
L 396.683636 162.43908 
L 400.290909 162.43908 
L 403.898182 162.43908 
L 407.505455 162.43908 
L 411.112727 162.43908 
L 414.72 162.43908 
" clip-path="url(#p8685f2d116)" style="fill: none; stroke: #000000; stroke-width: 0.5"/>
   </g>
   <g id="PathCollection_15"/>
   <g id="LineCollection_1">
    <path d="M 70.725483 307.584 
L 70.725483 294.2784 
" clip-path="url(#p8685f2d116)" style="fill: none; stroke: #000000; stroke-width: 1.5"/>
    <path d="M 109.151663 307.584 
L 109.151663 294.2784 
" clip-path="url(#p8685f2d116)" style="fill: none; stroke: #000000; stroke-width: 1.5"/>
    <path d="M 133.086365 307.584 
L 133.086365 294.2784 
" clip-path="url(#p8685f2d116)" style="fill: none; stroke: #000000; stroke-width: 1.5"/>
    <path d="M 170.146546 307.584 
L 170.146546 294.2784 
" clip-path="url(#p8685f2d116)" style="fill: none; stroke: #000000; stroke-width: 1.5"/>
    <path d="M 208.810279 307.584 
L 208.810279 294.2784 
" clip-path="url(#p8685f2d116)" style="fill: none; stroke: #000000; stroke-width: 1.5"/>
    <path d="M 246.761352 307.584 
L 246.761352 294.2784 
" clip-path="url(#p8685f2d116)" style="fill: none; stroke: #000000; stroke-width: 1.5"/>
    <path d="M 296.4125 307.584 
L 296.4125 294.2784 
" clip-path="url(#p8685f2d116)" style="fill: none; stroke: #000000; stroke-width: 1.5"/>
    <path d="M 329.077709 307.584 
L 329.077709 294.2784 
" clip-path="url(#p8685f2d116)" style="fill: none; stroke: #000000; stroke-width: 1.5"/>
    <path d="M 366.553631 307.584 
L 366.553631 294.2784 
" clip-path="url(#p8685f2d116)" style="fill: none; stroke: #000000; stroke-width: 1.5"/>
   </g>
   <g id="LineCollection_2">
    <path clip-path="url(#p8685f2d116)" style="fill: none; stroke: #000000; stroke-width: 1.5"/>
    <path clip-path="url(#p8685f2d116)" style="fill: none; stroke: #000000; stroke-width: 1.5"/>
    <path clip-path="url(#p8685f2d116)" style="fill: none; stroke: #000000; stroke-width: 1.5"/>
    <path clip-path="url(#p8685f2d116)" style="fill: none; stroke: #000000; stroke-width: 1.5"/>
    <path clip-path="url(#p8685f2d116)" style="fill: none; stroke: #000000; stroke-width: 1.5"/>
    <path clip-path="url(#p8685f2d116)" style="fill: none; stroke: #000000; stroke-width: 1.5"/>
    <path clip-path="url(#p8685f2d116)" style="fill: none; stroke: #000000; stroke-width: 1.5"/>
    <path clip-path="url(#p8685f2d116)" style="fill: none; stroke: #000000; stroke-width: 1.5"/>
    <path clip-path="url(#p8685f2d116)" style="fill: none; stroke: #000000; stroke-width: 1.5"/>
   </g>
   <g id="patch_3">
    <path d="M 57.6 307.584 
L 57.6 41.472 
" style="fill: none; stroke: #000000; stroke-width: 0.8; stroke-linejoin: miter; stroke-linecap: square"/>
   </g>
   <g id="patch_4">
    <path d="M 414.72 307.584 
L 414.72 41.472 
" style="fill: none; stroke: #000000; stroke-width: 0.8; stroke-linejoin: miter; stroke-linecap: square"/>
   </g>
   <g id="patch_5">
    <path d="M 57.6 307.584 
L 414.72 307.584 
" style="fill: none; stroke: #000000; stroke-width: 0.8; stroke-linejoin: miter; stroke-linecap: square"/>
   </g>
   <g id="patch_6">
    <path d="M 57.6 41.472 
L 414.72 41.472 
" style="fill: none; stroke: #000000; stroke-width: 0.8; stroke-linejoin: miter; stroke-linecap: square"/>
   </g>
   <g id="text_16">
    <!-- 2D-partial dependency plot between Smoking and Pig -->
    <g transform="translate(74.072812 35.472) scale(0.12 -0.12)">
     <defs>
      <path id="DejaVuSans-44" d="M 1259 4147 
L 1259 519 
L 2022 519 
Q 2988 519 3436 956 
Q 3884 1394 3884 2338 
Q 3884 3275 3436 3711 
Q 2988 4147 2022 4147 
L 1259 4147 
z
M 628 4666 
L 1925 4666 
Q 3281 4666 3915 4102 
Q 4550 3538 4550 2338 
Q 4550 1131 3912 565 
Q 3275 0 1925 0 
L 628 0 
L 628 4666 
z
" transform="scale(0.015625)"/>
      <path id="DejaVuSans-2d" d="M 313 2009 
L 1997 2009 
L 1997 1497 
L 313 1497 
L 313 2009 
z
" transform="scale(0.015625)"/>
      <path id="DejaVuSans-64" d="M 2906 2969 
L 2906 4863 
L 3481 4863 
L 3481 0 
L 2906 0 
L 2906 525 
Q 2725 213 2448 61 
Q 2172 -91 1784 -91 
Q 1150 -91 751 415 
Q 353 922 353 1747 
Q 353 2572 751 3078 
Q 1150 3584 1784 3584 
Q 2172 3584 2448 3432 
Q 2725 3281 2906 2969 
z
M 947 1747 
Q 947 1113 1208 752 
Q 1469 391 1925 391 
Q 2381 391 2643 752 
Q 2906 1113 2906 1747 
Q 2906 2381 2643 2742 
Q 2381 3103 1925 3103 
Q 1469 3103 1208 2742 
Q 947 2381 947 1747 
z
" transform="scale(0.015625)"/>
      <path id="DejaVuSans-79" d="M 2059 -325 
Q 1816 -950 1584 -1140 
Q 1353 -1331 966 -1331 
L 506 -1331 
L 506 -850 
L 844 -850 
Q 1081 -850 1212 -737 
Q 1344 -625 1503 -206 
L 1606 56 
L 191 3500 
L 800 3500 
L 1894 763 
L 2988 3500 
L 3597 3500 
L 2059 -325 
z
" transform="scale(0.015625)"/>
      <path id="DejaVuSans-62" d="M 3116 1747 
Q 3116 2381 2855 2742 
Q 2594 3103 2138 3103 
Q 1681 3103 1420 2742 
Q 1159 2381 1159 1747 
Q 1159 1113 1420 752 
Q 1681 391 2138 391 
Q 2594 391 2855 752 
Q 3116 1113 3116 1747 
z
M 1159 2969 
Q 1341 3281 1617 3432 
Q 1894 3584 2278 3584 
Q 2916 3584 3314 3078 
Q 3713 2572 3713 1747 
Q 3713 922 3314 415 
Q 2916 -91 2278 -91 
Q 1894 -91 1617 61 
Q 1341 213 1159 525 
L 1159 0 
L 581 0 
L 581 4863 
L 1159 4863 
L 1159 2969 
z
" transform="scale(0.015625)"/>
      <path id="DejaVuSans-77" d="M 269 3500 
L 844 3500 
L 1563 769 
L 2278 3500 
L 2956 3500 
L 3675 769 
L 4391 3500 
L 4966 3500 
L 4050 0 
L 3372 0 
L 2619 2869 
L 1863 0 
L 1184 0 
L 269 3500 
z
" transform="scale(0.015625)"/>
     </defs>
     <use xlink:href="#DejaVuSans-32"/>
     <use xlink:href="#DejaVuSans-44" x="63.623047"/>
     <use xlink:href="#DejaVuSans-2d" x="140.625"/>
     <use xlink:href="#DejaVuSans-70" x="176.708984"/>
     <use xlink:href="#DejaVuSans-61" x="240.185547"/>
     <use xlink:href="#DejaVuSans-72" x="301.464844"/>
     <use xlink:href="#DejaVuSans-74" x="342.578125"/>
     <use xlink:href="#DejaVuSans-69" x="381.787109"/>
     <use xlink:href="#DejaVuSans-61" x="409.570312"/>
     <use xlink:href="#DejaVuSans-6c" x="470.849609"/>
     <use xlink:href="#DejaVuSans-20" x="498.632812"/>
     <use xlink:href="#DejaVuSans-64" x="530.419922"/>
     <use xlink:href="#DejaVuSans-65" x="593.896484"/>
     <use xlink:href="#DejaVuSans-70" x="655.419922"/>
     <use xlink:href="#DejaVuSans-65" x="718.896484"/>
     <use xlink:href="#DejaVuSans-6e" x="780.419922"/>
     <use xlink:href="#DejaVuSans-64" x="843.798828"/>
     <use xlink:href="#DejaVuSans-65" x="907.275391"/>
     <use xlink:href="#DejaVuSans-6e" x="968.798828"/>
     <use xlink:href="#DejaVuSans-63" x="1032.177734"/>
     <use xlink:href="#DejaVuSans-79" x="1087.158203"/>
     <use xlink:href="#DejaVuSans-20" x="1146.337891"/>
     <use xlink:href="#DejaVuSans-70" x="1178.125"/>
     <use xlink:href="#DejaVuSans-6c" x="1241.601562"/>
     <use xlink:href="#DejaVuSans-6f" x="1269.384766"/>
     <use xlink:href="#DejaVuSans-74" x="1330.566406"/>
     <use xlink:href="#DejaVuSans-20" x="1369.775391"/>
     <use xlink:href="#DejaVuSans-62" x="1401.5625"/>
     <use xlink:href="#DejaVuSans-65" x="1465.039062"/>
     <use xlink:href="#DejaVuSans-74" x="1526.5625"/>
     <use xlink:href="#DejaVuSans-77" x="1565.771484"/>
     <use xlink:href="#DejaVuSans-65" x="1647.558594"/>
     <use xlink:href="#DejaVuSans-65" x="1709.082031"/>
     <use xlink:href="#DejaVuSans-6e" x="1770.605469"/>
     <use xlink:href="#DejaVuSans-20" x="1833.984375"/>
     <use xlink:href="#DejaVuSans-53" x="1865.771484"/>
     <use xlink:href="#DejaVuSans-6d" x="1929.248047"/>
     <use xlink:href="#DejaVuSans-6f" x="2026.660156"/>
     <use xlink:href="#DejaVuSans-6b" x="2087.841797"/>
     <use xlink:href="#DejaVuSans-69" x="2145.751953"/>
     <use xlink:href="#DejaVuSans-6e" x="2173.535156"/>
     <use xlink:href="#DejaVuSans-67" x="2236.914062"/>
     <use xlink:href="#DejaVuSans-20" x="2300.390625"/>
     <use xlink:href="#DejaVuSans-61" x="2332.177734"/>
     <use xlink:href="#DejaVuSans-6e" x="2393.457031"/>
     <use xlink:href="#DejaVuSans-64" x="2456.835938"/>
     <use xlink:href="#DejaVuSans-20" x="2520.3125"/>
     <use xlink:href="#DejaVuSans-50" x="2552.099609"/>
     <use xlink:href="#DejaVuSans-69" x="2610.152344"/>
     <use xlink:href="#DejaVuSans-67" x="2637.935547"/>
    </g>
   </g>
   <g id="text_17">
    <g clip-path="url(#p8685f2d116)">
     <!-- 11.66 -->
     <g transform="translate(111.8228 185.499403) rotate(-359.972564) scale(0.1 -0.1)">
      <defs>
       <path id="DejaVuSans-2e" d="M 684 794 
L 1344 794 
L 1344 0 
L 684 0 
L 684 794 
z
" transform="scale(0.015625)"/>
       <path id="DejaVuSans-36" d="M 2113 2584 
Q 1688 2584 1439 2293 
Q 1191 2003 1191 1497 
Q 1191 994 1439 701 
Q 1688 409 2113 409 
Q 2538 409 2786 701 
Q 3034 994 3034 1497 
Q 3034 2003 2786 2293 
Q 2538 2584 2113 2584 
z
M 3366 4563 
L 3366 3988 
Q 3128 4100 2886 4159 
Q 2644 4219 2406 4219 
Q 1781 4219 1451 3797 
Q 1122 3375 1075 2522 
Q 1259 2794 1537 2939 
Q 1816 3084 2150 3084 
Q 2853 3084 3261 2657 
Q 3669 2231 3669 1497 
Q 3669 778 3244 343 
Q 2819 -91 2113 -91 
Q 1303 -91 875 529 
Q 447 1150 447 2328 
Q 447 3434 972 4092 
Q 1497 4750 2381 4750 
Q 2619 4750 2861 4703 
Q 3103 4656 3366 4563 
z
" transform="scale(0.015625)"/>
      </defs>
      <use xlink:href="#DejaVuSans-31"/>
      <use xlink:href="#DejaVuSans-31" x="63.623047"/>
      <use xlink:href="#DejaVuSans-2e" x="127.246094"/>
      <use xlink:href="#DejaVuSans-36" x="159.033203"/>
      <use xlink:href="#DejaVuSans-36" x="222.65625"/>
     </g>
    </g>
   </g>
   <g id="text_18">
    <g clip-path="url(#p8685f2d116)">
     <!-- 12.57 -->
     <g transform="translate(389.584119 184.439602) scale(0.1 -0.1)">
      <defs>
       <path id="DejaVuSans-37" d="M 525 4666 
L 3525 4666 
L 3525 4397 
L 1831 0 
L 1172 0 
L 2766 4134 
L 525 4134 
L 525 4666 
z
" transform="scale(0.015625)"/>
      </defs>
      <use xlink:href="#DejaVuSans-31"/>
      <use xlink:href="#DejaVuSans-32" x="63.623047"/>
      <use xlink:href="#DejaVuSans-2e" x="127.246094"/>
      <use xlink:href="#DejaVuSans-35" x="159.033203"/>
      <use xlink:href="#DejaVuSans-37" x="222.65625"/>
     </g>
    </g>
   </g>
   <g id="text_19">
    <g clip-path="url(#p8685f2d116)">
     <!-- 13.48 -->
     <g transform="translate(252.463747 177.689117) rotate(-359.044854) scale(0.1 -0.1)">
      <defs>
       <path id="DejaVuSans-38" d="M 2034 2216 
Q 1584 2216 1326 1975 
Q 1069 1734 1069 1313 
Q 1069 891 1326 650 
Q 1584 409 2034 409 
Q 2484 409 2743 651 
Q 3003 894 3003 1313 
Q 3003 1734 2745 1975 
Q 2488 2216 2034 2216 
z
M 1403 2484 
Q 997 2584 770 2862 
Q 544 3141 544 3541 
Q 544 4100 942 4425 
Q 1341 4750 2034 4750 
Q 2731 4750 3128 4425 
Q 3525 4100 3525 3541 
Q 3525 3141 3298 2862 
Q 3072 2584 2669 2484 
Q 3125 2378 3379 2068 
Q 3634 1759 3634 1313 
Q 3634 634 3220 271 
Q 2806 -91 2034 -91 
Q 1263 -91 848 271 
Q 434 634 434 1313 
Q 434 1759 690 2068 
Q 947 2378 1403 2484 
z
M 1172 3481 
Q 1172 3119 1398 2916 
Q 1625 2713 2034 2713 
Q 2441 2713 2670 2916 
Q 2900 3119 2900 3481 
Q 2900 3844 2670 4047 
Q 2441 4250 2034 4250 
Q 1625 4250 1398 4047 
Q 1172 3844 1172 3481 
z
" transform="scale(0.015625)"/>
      </defs>
      <use xlink:href="#DejaVuSans-31"/>
      <use xlink:href="#DejaVuSans-33" x="63.623047"/>
      <use xlink:href="#DejaVuSans-2e" x="127.246094"/>
      <use xlink:href="#DejaVuSans-34" x="159.033203"/>
      <use xlink:href="#DejaVuSans-38" x="222.65625"/>
     </g>
    </g>
   </g>
   <g id="text_20">
    <g clip-path="url(#p8685f2d116)">
     <!-- 14.39 -->
     <g transform="translate(111.821989 173.499387) rotate(-359.95567) scale(0.1 -0.1)">
      <defs>
       <path id="DejaVuSans-39" d="M 703 97 
L 703 672 
Q 941 559 1184 500 
Q 1428 441 1663 441 
Q 2288 441 2617 861 
Q 2947 1281 2994 2138 
Q 2813 1869 2534 1725 
Q 2256 1581 1919 1581 
Q 1219 1581 811 2004 
Q 403 2428 403 3163 
Q 403 3881 828 4315 
Q 1253 4750 1959 4750 
Q 2769 4750 3195 4129 
Q 3622 3509 3622 2328 
Q 3622 1225 3098 567 
Q 2575 -91 1691 -91 
Q 1453 -91 1209 -44 
Q 966 3 703 97 
z
M 1959 2075 
Q 2384 2075 2632 2365 
Q 2881 2656 2881 3163 
Q 2881 3666 2632 3958 
Q 2384 4250 1959 4250 
Q 1534 4250 1286 3958 
Q 1038 3666 1038 3163 
Q 1038 2656 1286 2365 
Q 1534 2075 1959 2075 
z
" transform="scale(0.015625)"/>
      </defs>
      <use xlink:href="#DejaVuSans-31"/>
      <use xlink:href="#DejaVuSans-34" x="63.623047"/>
      <use xlink:href="#DejaVuSans-2e" x="127.246094"/>
      <use xlink:href="#DejaVuSans-33" x="159.033203"/>
      <use xlink:href="#DejaVuSans-39" x="222.65625"/>
     </g>
    </g>
   </g>
   <g id="text_21">
    <g clip-path="url(#p8685f2d116)">
     <!-- 15.29 -->
     <g transform="translate(111.823046 166.162746) rotate(-359.977699) scale(0.1 -0.1)">
      <use xlink:href="#DejaVuSans-31"/>
      <use xlink:href="#DejaVuSans-35" x="63.623047"/>
      <use xlink:href="#DejaVuSans-2e" x="127.246094"/>
      <use xlink:href="#DejaVuSans-32" x="159.033203"/>
      <use xlink:href="#DejaVuSans-39" x="222.65625"/>
     </g>
    </g>
   </g>
   <g id="text_22">
    <g clip-path="url(#p8685f2d116)">
     <!-- 16.20 -->
     <g transform="translate(111.819886 155.644193) rotate(-359.911751) scale(0.1 -0.1)">
      <use xlink:href="#DejaVuSans-31"/>
      <use xlink:href="#DejaVuSans-36" x="63.623047"/>
      <use xlink:href="#DejaVuSans-2e" x="127.246094"/>
      <use xlink:href="#DejaVuSans-32" x="159.033203"/>
      <use xlink:href="#DejaVuSans-30" x="222.65625"/>
     </g>
    </g>
   </g>
  </g>
 </g>
 <defs>
  <clipPath id="p8685f2d116">
   <rect x="57.6" y="41.472" width="357.12" height="266.112"/>
  </clipPath>
 </defs>
</svg>
