<?xml version="1.0" encoding="utf-8" standalone="no"?>
<!DOCTYPE svg PUBLIC "-//W3C//DTD SVG 1.1//EN"
  "http://www.w3.org/Graphics/SVG/1.1/DTD/svg11.dtd">
<svg xmlns:xlink="http://www.w3.org/1999/xlink" width="460.8pt" height="345.6pt" viewBox="0 0 460.8 345.6" xmlns="http://www.w3.org/2000/svg" version="1.1">
 <metadata>
  <rdf:RDF xmlns:dc="http://purl.org/dc/elements/1.1/" xmlns:cc="http://creativecommons.org/ns#" xmlns:rdf="http://www.w3.org/1999/02/22-rdf-syntax-ns#">
   <cc:Work>
    <dc:type rdf:resource="http://purl.org/dc/dcmitype/StillImage"/>
    <dc:date>2024-02-15T11:39:38.049720</dc:date>
    <dc:format>image/svg+xml</dc:format>
    <dc:creator>
     <cc:Agent>
      <dc:title>Matplotlib v3.7.0, https://matplotlib.org/</dc:title>
     </cc:Agent>
    </dc:creator>
   </cc:Work>
  </rdf:RDF>
 </metadata>
 <defs>
  <style type="text/css">*{stroke-linejoin: round; stroke-linecap: butt}</style>
 </defs>
 <g id="figure_1">
  <g id="patch_1">
   <path d="M 0 345.6 
L 460.8 345.6 
L 460.8 0 
L 0 0 
L 0 345.6 
z
" style="fill: none"/>
  </g>
  <g id="axes_1"/>
  <g id="axes_2">
   <g id="patch_2">
    <path d="M 57.6 307.584 
L 414.72 307.584 
L 414.72 41.472 
L 57.6 41.472 
L 57.6 307.584 
z
" style="fill: none"/>
   </g>
   <g id="PathCollection_1">
    <path d="M 266.821818 307.584 
L 270.429091 307.584 
L 274.036364 307.584 
L 277.643636 307.584 
L 281.250909 307.584 
L 284.858182 307.584 
L 288.465455 307.584 
L 292.072727 307.584 
L 295.68 307.584 
L 299.287273 307.584 
L 302.894545 307.584 
L 306.501818 307.584 
L 310.109091 307.584 
L 313.716364 307.584 
L 317.323636 307.584 
L 320.930909 307.584 
L 324.538182 307.584 
L 328.145455 307.584 
L 331.752727 307.584 
L 335.36 307.584 
L 338.967273 307.584 
L 342.574545 307.584 
L 346.181818 307.584 
L 349.789091 307.584 
L 353.396364 307.584 
L 357.003636 307.584 
L 360.610909 307.584 
L 364.218182 307.584 
L 367.825455 307.584 
L 371.432727 307.584 
L 375.04 307.584 
L 378.647273 307.584 
L 382.254545 307.584 
L 385.861818 307.584 
L 389.469091 307.584 
L 393.076364 307.584 
L 396.683636 307.584 
L 400.290909 307.584 
L 403.898182 307.584 
L 407.505455 307.584 
L 411.112727 307.584 
L 414.72 307.584 
L 414.72 291.525517 
L 414.72 282.349241 
L 414.72 280.055172 
L 414.72 277.761103 
L 414.72 275.467034 
L 414.72 273.172966 
L 414.72 270.878897 
L 414.72 263.99669 
L 414.72 261.702621 
L 414.72 259.408552 
L 414.72 257.114483 
L 414.72 254.820414 
L 414.72 252.526345 
L 414.72 250.232276 
L 414.72 247.938207 
L 414.72 245.644138 
L 414.72 243.350069 
L 414.72 241.056 
L 414.72 238.761931 
L 414.72 234.173793 
L 414.72 231.879724 
L 414.72 229.585655 
L 414.72 227.291586 
L 414.72 224.997517 
L 414.72 222.703448 
L 414.72 220.409379 
L 414.72 218.11531 
L 414.72 213.527172 
L 414.72 211.233103 
L 414.72 208.939034 
L 414.72 206.644966 
L 414.72 202.056828 
L 414.72 199.762759 
L 414.72 195.174621 
L 414.72 192.880552 
L 414.72 190.586483 
L 414.72 188.292414 
L 414.72 185.998345 
L 414.72 183.704276 
L 414.72 181.410207 
L 414.72 179.116138 
L 414.72 176.822069 
L 414.72 174.528 
L 414.72 172.233931 
L 414.72 169.939862 
L 414.72 167.645793 
L 414.72 165.351724 
L 414.72 163.057655 
L 414.72 160.763586 
L 414.72 158.469517 
L 414.72 156.175448 
L 414.72 153.881379 
L 414.72 151.58731 
L 414.72 149.293241 
L 414.72 146.999172 
L 414.72 144.705103 
L 414.72 142.411034 
L 414.72 140.116966 
L 414.72 137.822897 
L 414.72 135.528828 
L 414.72 130.94069 
L 414.72 128.646621 
L 414.72 119.470345 
L 414.72 117.176276 
L 414.72 114.882207 
L 414.72 112.588138 
L 414.72 110.294069 
L 414.72 101.117793 
L 414.72 91.941517 
L 414.72 41.472 
L 411.112727 41.472 
L 407.505455 41.472 
L 403.898182 41.472 
L 400.290909 41.472 
L 396.683636 41.472 
L 393.076364 41.472 
L 389.469091 41.472 
L 385.861818 41.472 
L 382.254545 41.472 
L 378.647273 41.472 
L 375.04 41.472 
L 371.432727 41.472 
L 367.825455 41.472 
L 364.218182 41.472 
L 360.610909 41.472 
L 357.003636 41.472 
L 353.396364 41.472 
L 349.789091 41.472 
L 346.181818 41.472 
L 342.574545 41.472 
L 338.967273 41.472 
L 335.36 41.472 
L 331.752727 41.472 
L 328.145455 41.472 
L 324.538182 41.472 
L 320.930909 41.472 
L 317.323636 41.472 
L 313.716364 41.472 
L 310.109091 41.472 
L 306.501818 41.472 
L 302.894545 41.472 
L 299.287273 41.472 
L 295.68 41.472 
L 292.072727 41.472 
L 288.465455 41.472 
L 284.858182 41.472 
L 281.250909 41.472 
L 277.643636 41.472 
L 274.036364 41.472 
L 273.220502 41.472 
L 273.220502 91.941517 
L 273.220502 101.117793 
L 273.220502 110.294069 
L 273.220502 112.588138 
L 273.220502 114.882207 
L 273.220502 117.176276 
L 273.220502 119.470345 
L 273.220502 128.646621 
L 273.220502 130.94069 
L 273.220502 135.528828 
L 273.220502 137.822897 
L 273.220502 140.116966 
L 273.220502 142.411034 
L 273.220502 144.705103 
L 273.220502 146.999172 
L 273.220502 149.293241 
L 273.220502 151.58731 
L 273.220502 153.881379 
L 273.220502 156.175448 
L 273.220502 158.469517 
L 273.220502 160.763586 
L 273.220502 163.057655 
L 273.220502 165.351724 
L 273.220502 167.645793 
L 273.220502 169.939862 
L 273.220502 172.233931 
L 273.220502 174.528 
L 273.220502 176.822069 
L 273.220502 179.116138 
L 273.220502 181.410207 
L 273.220502 183.704276 
L 273.220502 185.998345 
L 273.220502 188.292414 
L 273.220502 190.586483 
L 273.220502 192.880552 
L 273.220502 195.174621 
L 273.220502 199.762759 
L 273.220502 202.056828 
L 271.3837 206.644966 
L 271.3837 208.939034 
L 271.3837 211.233103 
L 270.429091 212.385217 
L 266.821818 212.385217 
L 266.011579 213.527172 
L 266.011579 218.11531 
L 266.011579 220.409379 
L 266.011579 222.703448 
L 266.011579 224.997517 
L 266.011579 227.291586 
L 266.011579 229.585655 
L 266.011579 231.879724 
L 266.011579 234.173793 
L 266.011579 238.761931 
L 266.011579 241.056 
L 266.011579 243.350069 
L 266.011579 245.644138 
L 266.011579 247.938207 
L 266.011579 250.232276 
L 266.011579 252.526345 
L 266.011579 254.820414 
L 266.011579 257.114483 
L 266.011579 259.408552 
L 266.011579 261.702621 
L 266.011579 263.99669 
L 266.011579 270.878897 
L 266.011579 273.172966 
L 266.011579 275.467034 
L 266.011579 277.761103 
L 266.011579 280.055172 
L 266.011579 282.349241 
L 266.011579 291.525517 
L 266.011579 307.584 
z
" clip-path="url(#p07d44f97b7)" style="fill: #481b6d; fill-opacity: 0.75"/>
   </g>
   <g id="PathCollection_2">
    <path d="M 263.214545 307.584 
L 266.011579 307.584 
L 266.011579 291.525517 
L 266.011579 282.349241 
L 266.011579 280.055172 
L 266.011579 277.761103 
L 266.011579 275.467034 
L 266.011579 273.172966 
L 266.011579 270.878897 
L 266.011579 263.99669 
L 266.011579 261.702621 
L 266.011579 259.408552 
L 266.011579 257.114483 
L 266.011579 254.820414 
L 266.011579 252.526345 
L 266.011579 250.232276 
L 266.011579 247.938207 
L 266.011579 245.644138 
L 266.011579 243.350069 
L 266.011579 241.056 
L 266.011579 238.761931 
L 266.011579 234.173793 
L 266.011579 231.879724 
L 266.011579 229.585655 
L 266.011579 227.291586 
L 266.011579 224.997517 
L 266.011579 222.703448 
L 266.011579 220.409379 
L 266.011579 218.11531 
L 266.011579 213.527172 
L 266.821818 212.385217 
L 270.429091 212.385217 
L 271.3837 211.233103 
L 271.3837 208.939034 
L 271.3837 206.644966 
L 273.220502 202.056828 
L 273.220502 199.762759 
L 273.220502 195.174621 
L 273.220502 192.880552 
L 273.220502 190.586483 
L 273.220502 188.292414 
L 273.220502 185.998345 
L 273.220502 183.704276 
L 273.220502 181.410207 
L 273.220502 179.116138 
L 273.220502 176.822069 
L 273.220502 174.528 
L 273.220502 172.233931 
L 273.220502 169.939862 
L 273.220502 167.645793 
L 273.220502 165.351724 
L 273.220502 163.057655 
L 273.220502 160.763586 
L 273.220502 158.469517 
L 273.220502 156.175448 
L 273.220502 153.881379 
L 273.220502 151.58731 
L 273.220502 149.293241 
L 273.220502 146.999172 
L 273.220502 144.705103 
L 273.220502 142.411034 
L 273.220502 140.116966 
L 273.220502 137.822897 
L 273.220502 135.528828 
L 273.220502 130.94069 
L 273.220502 128.646621 
L 273.220502 119.470345 
L 273.220502 117.176276 
L 273.220502 114.882207 
L 273.220502 112.588138 
L 273.220502 110.294069 
L 273.220502 101.117793 
L 273.220502 91.941517 
L 273.220502 41.472 
L 270.429091 41.472 
L 266.821818 41.472 
L 263.493315 41.472 
L 263.493315 91.941517 
L 263.493315 101.117793 
L 263.493315 110.294069 
L 263.493315 112.588138 
L 263.493315 114.882207 
L 263.493315 117.176276 
L 263.493315 119.470345 
L 263.493315 128.646621 
L 263.493315 130.94069 
L 263.493315 135.528828 
L 263.493315 137.822897 
L 263.493315 140.116966 
L 263.493315 142.411034 
L 263.493315 144.705103 
L 263.493315 146.999172 
L 263.493315 149.293241 
L 263.493315 151.58731 
L 263.493315 153.881379 
L 263.493315 156.175448 
L 263.493315 158.469517 
L 263.493315 160.763586 
L 263.493315 163.057655 
L 263.493315 165.351724 
L 263.493315 167.645793 
L 263.493315 169.939862 
L 263.493315 172.233931 
L 263.493315 174.528 
L 263.493315 176.822069 
L 263.493315 179.116138 
L 263.493315 181.410207 
L 263.493315 183.704276 
L 263.493315 185.998345 
L 263.493315 188.292414 
L 263.493315 190.586483 
L 263.493315 192.880552 
L 263.493315 195.174621 
L 263.493315 199.762759 
L 263.493315 202.056828 
L 263.214545 202.870005 
L 262.628652 206.644966 
L 262.628652 208.939034 
L 262.628652 211.233103 
L 261.891737 213.527172 
L 261.891737 218.11531 
L 261.891737 220.409379 
L 261.891737 222.703448 
L 261.891737 224.997517 
L 261.891737 227.291586 
L 261.891737 229.585655 
L 261.891737 231.879724 
L 261.891737 234.173793 
L 261.891737 238.761931 
L 261.891737 241.056 
L 261.891737 243.350069 
L 261.891737 245.644138 
L 261.891737 247.938207 
L 261.891737 250.232276 
L 261.891737 252.526345 
L 261.891737 254.820414 
L 261.891737 257.114483 
L 261.891737 259.408552 
L 261.891737 261.702621 
L 261.891737 263.99669 
L 261.891737 270.878897 
L 261.891737 273.172966 
L 261.891737 275.467034 
L 261.891737 277.761103 
L 261.891737 280.055172 
L 261.891737 282.349241 
L 261.891737 291.525517 
L 261.891737 307.584 
z
" clip-path="url(#p07d44f97b7)" style="fill: #3f4788; fill-opacity: 0.75"/>
   </g>
   <g id="PathCollection_3">
    <path d="M 209.105455 307.584 
L 212.712727 307.584 
L 216.32 307.584 
L 219.927273 307.584 
L 223.534545 307.584 
L 227.141818 307.584 
L 230.749091 307.584 
L 234.356364 307.584 
L 237.963636 307.584 
L 241.570909 307.584 
L 245.178182 307.584 
L 248.785455 307.584 
L 252.392727 307.584 
L 256 307.584 
L 259.607273 307.584 
L 261.891737 307.584 
L 261.891737 291.525517 
L 261.891737 282.349241 
L 261.891737 280.055172 
L 261.891737 277.761103 
L 261.891737 275.467034 
L 261.891737 273.172966 
L 261.891737 270.878897 
L 261.891737 263.99669 
L 261.891737 261.702621 
L 261.891737 259.408552 
L 261.891737 257.114483 
L 261.891737 254.820414 
L 261.891737 252.526345 
L 261.891737 250.232276 
L 261.891737 247.938207 
L 261.891737 245.644138 
L 261.891737 243.350069 
L 261.891737 241.056 
L 261.891737 238.761931 
L 261.891737 234.173793 
L 261.891737 231.879724 
L 261.891737 229.585655 
L 261.891737 227.291586 
L 261.891737 224.997517 
L 261.891737 222.703448 
L 261.891737 220.409379 
L 261.891737 218.11531 
L 261.891737 213.527172 
L 262.628652 211.233103 
L 262.628652 208.939034 
L 262.628652 206.644966 
L 263.214545 202.870005 
L 263.493315 202.056828 
L 263.493315 199.762759 
L 263.493315 195.174621 
L 263.493315 192.880552 
L 263.493315 190.586483 
L 263.493315 188.292414 
L 263.493315 185.998345 
L 263.493315 183.704276 
L 263.493315 181.410207 
L 263.493315 179.116138 
L 263.493315 176.822069 
L 263.493315 174.528 
L 263.493315 172.233931 
L 263.493315 169.939862 
L 263.493315 167.645793 
L 263.493315 165.351724 
L 263.493315 163.057655 
L 263.493315 160.763586 
L 263.493315 158.469517 
L 263.493315 156.175448 
L 263.493315 153.881379 
L 263.493315 151.58731 
L 263.493315 149.293241 
L 263.493315 146.999172 
L 263.493315 144.705103 
L 263.493315 142.411034 
L 263.493315 140.116966 
L 263.493315 137.822897 
L 263.493315 135.528828 
L 263.493315 130.94069 
L 263.493315 128.646621 
L 263.493315 119.470345 
L 263.493315 117.176276 
L 263.493315 114.882207 
L 263.493315 112.588138 
L 263.493315 110.294069 
L 263.493315 101.117793 
L 263.493315 91.941517 
L 263.493315 41.472 
L 263.214545 41.472 
L 260.751625 41.472 
L 260.751625 91.941517 
L 260.751625 101.117793 
L 260.751625 110.294069 
L 260.751625 112.588138 
L 260.751625 114.882207 
L 260.751625 117.176276 
L 260.751625 119.470345 
L 260.751625 128.646621 
L 260.751625 130.94069 
L 260.751625 135.528828 
L 260.751625 137.822897 
L 260.751625 140.116966 
L 260.751625 142.411034 
L 260.751625 144.705103 
L 260.751625 146.999172 
L 260.751625 149.293241 
L 260.751625 151.58731 
L 260.751625 153.881379 
L 260.751625 156.175448 
L 260.751625 158.469517 
L 260.751625 160.763586 
L 260.751625 163.057655 
L 260.751625 165.351724 
L 260.751625 167.645793 
L 260.751625 169.939862 
L 260.751625 172.233931 
L 260.751625 174.528 
L 260.751625 176.822069 
L 260.751625 179.116138 
L 260.751625 181.410207 
L 260.751625 183.704276 
L 260.751625 185.998345 
L 260.751625 188.292414 
L 260.751625 190.586483 
L 260.751625 192.880552 
L 260.751625 195.174621 
L 260.751625 199.762759 
L 260.751625 202.056828 
L 260.039522 206.644966 
L 260.039522 208.939034 
L 260.039522 211.233103 
L 259.607273 212.578728 
L 256 212.578728 
L 252.392727 212.578728 
L 248.785455 212.578728 
L 245.178182 212.578728 
L 241.570909 212.578728 
L 237.963636 212.578728 
L 234.356364 212.578728 
L 230.749091 212.578728 
L 227.141818 212.578728 
L 223.534545 212.578728 
L 219.927273 212.578728 
L 216.32 212.578728 
L 212.712727 212.578728 
L 209.105455 212.578728 
L 208.286807 213.527172 
L 208.286807 218.11531 
L 208.286807 220.409379 
L 208.286807 222.703448 
L 208.286807 224.997517 
L 208.286807 227.291586 
L 208.286807 229.585655 
L 208.286807 231.879724 
L 208.286807 234.173793 
L 208.286807 238.761931 
L 208.286807 241.056 
L 208.286807 243.350069 
L 208.286807 245.644138 
L 208.286807 247.938207 
L 208.286807 250.232276 
L 208.286807 252.526345 
L 208.286807 254.820414 
L 208.286807 257.114483 
L 208.286807 259.408552 
L 208.286807 261.702621 
L 208.286807 263.99669 
L 208.286807 270.878897 
L 208.286807 273.172966 
L 208.286807 275.467034 
L 208.286807 277.761103 
L 208.286807 280.055172 
L 208.286807 282.349241 
L 208.286807 291.525517 
L 208.286807 307.584 
z
" clip-path="url(#p07d44f97b7)" style="fill: #2e6e8e; fill-opacity: 0.75"/>
   </g>
   <g id="PathCollection_4">
    <path d="M 126.138182 307.584 
L 129.745455 307.584 
L 133.352727 307.584 
L 136.96 307.584 
L 140.567273 307.584 
L 144.174545 307.584 
L 147.781818 307.584 
L 151.389091 307.584 
L 154.996364 307.584 
L 158.603636 307.584 
L 162.210909 307.584 
L 165.818182 307.584 
L 169.425455 307.584 
L 173.032727 307.584 
L 176.64 307.584 
L 180.247273 307.584 
L 183.854545 307.584 
L 187.461818 307.584 
L 191.069091 307.584 
L 194.676364 307.584 
L 198.283636 307.584 
L 201.890909 307.584 
L 205.498182 307.584 
L 208.286807 307.584 
L 208.286807 291.525517 
L 208.286807 282.349241 
L 208.286807 280.055172 
L 208.286807 277.761103 
L 208.286807 275.467034 
L 208.286807 273.172966 
L 208.286807 270.878897 
L 208.286807 263.99669 
L 208.286807 261.702621 
L 208.286807 259.408552 
L 208.286807 257.114483 
L 208.286807 254.820414 
L 208.286807 252.526345 
L 208.286807 250.232276 
L 208.286807 247.938207 
L 208.286807 245.644138 
L 208.286807 243.350069 
L 208.286807 241.056 
L 208.286807 238.761931 
L 208.286807 234.173793 
L 208.286807 231.879724 
L 208.286807 229.585655 
L 208.286807 227.291586 
L 208.286807 224.997517 
L 208.286807 222.703448 
L 208.286807 220.409379 
L 208.286807 218.11531 
L 208.286807 213.527172 
L 209.105455 212.578728 
L 212.712727 212.578728 
L 216.32 212.578728 
L 219.927273 212.578728 
L 223.534545 212.578728 
L 227.141818 212.578728 
L 230.749091 212.578728 
L 234.356364 212.578728 
L 237.963636 212.578728 
L 241.570909 212.578728 
L 245.178182 212.578728 
L 248.785455 212.578728 
L 252.392727 212.578728 
L 256 212.578728 
L 259.607273 212.578728 
L 260.039522 211.233103 
L 260.039522 208.939034 
L 260.039522 206.644966 
L 260.751625 202.056828 
L 260.751625 199.762759 
L 260.751625 195.174621 
L 260.751625 192.880552 
L 260.751625 190.586483 
L 260.751625 188.292414 
L 260.751625 185.998345 
L 260.751625 183.704276 
L 260.751625 181.410207 
L 260.751625 179.116138 
L 260.751625 176.822069 
L 260.751625 174.528 
L 260.751625 172.233931 
L 260.751625 169.939862 
L 260.751625 167.645793 
L 260.751625 165.351724 
L 260.751625 163.057655 
L 260.751625 160.763586 
L 260.751625 158.469517 
L 260.751625 156.175448 
L 260.751625 153.881379 
L 260.751625 151.58731 
L 260.751625 149.293241 
L 260.751625 146.999172 
L 260.751625 144.705103 
L 260.751625 142.411034 
L 260.751625 140.116966 
L 260.751625 137.822897 
L 260.751625 135.528828 
L 260.751625 130.94069 
L 260.751625 128.646621 
L 260.751625 119.470345 
L 260.751625 117.176276 
L 260.751625 114.882207 
L 260.751625 112.588138 
L 260.751625 110.294069 
L 260.751625 101.117793 
L 260.751625 91.941517 
L 260.751625 41.472 
L 259.607273 41.472 
L 256 41.472 
L 252.392727 41.472 
L 248.785455 41.472 
L 245.178182 41.472 
L 241.570909 41.472 
L 237.963636 41.472 
L 234.356364 41.472 
L 230.749091 41.472 
L 227.141818 41.472 
L 223.534545 41.472 
L 219.927273 41.472 
L 216.32 41.472 
L 212.712727 41.472 
L 209.105455 41.472 
L 205.498182 41.472 
L 201.890909 41.472 
L 198.283636 41.472 
L 194.676364 41.472 
L 191.069091 41.472 
L 187.461818 41.472 
L 183.854545 41.472 
L 180.247273 41.472 
L 176.64 41.472 
L 173.032727 41.472 
L 169.425455 41.472 
L 165.818182 41.472 
L 162.210909 41.472 
L 158.603636 41.472 
L 154.996364 41.472 
L 151.389091 41.472 
L 147.781818 41.472 
L 144.174545 41.472 
L 140.567273 41.472 
L 136.96 41.472 
L 133.352727 41.472 
L 129.745455 41.472 
L 126.138182 41.472 
L 126.041006 41.472 
L 126.041006 91.941517 
L 126.041006 101.117793 
L 126.041006 110.294069 
L 126.041006 112.588138 
L 126.041006 114.882207 
L 126.041006 117.176276 
L 126.041006 119.470345 
L 126.041006 128.646621 
L 126.041006 130.94069 
L 126.041006 135.528828 
L 126.041006 137.822897 
L 126.041006 140.116966 
L 126.041006 142.411034 
L 126.041006 144.705103 
L 126.041006 146.999172 
L 126.041006 149.293241 
L 126.041006 151.58731 
L 126.041006 153.881379 
L 126.041006 156.175448 
L 126.041006 158.469517 
L 126.041006 160.763586 
L 126.041006 163.057655 
L 126.041006 165.351724 
L 126.041006 167.645793 
L 126.041006 169.939862 
L 126.041006 172.233931 
L 126.041006 174.528 
L 126.041006 176.822069 
L 126.041006 179.116138 
L 126.041006 181.410207 
L 126.041006 183.704276 
L 126.041006 185.998345 
L 126.041006 188.292414 
L 126.041006 190.586483 
L 126.041006 192.880552 
L 126.041006 195.174621 
L 126.041006 199.762759 
L 126.041006 202.056828 
L 125.364612 206.644966 
L 125.364612 208.939034 
L 125.364612 211.233103 
L 124.66465 213.527172 
L 124.66465 218.11531 
L 124.66465 220.409379 
L 124.66465 222.703448 
L 124.66465 224.997517 
L 124.66465 227.291586 
L 124.66465 229.585655 
L 124.66465 231.879724 
L 124.66465 234.173793 
L 124.66465 238.761931 
L 124.66465 241.056 
L 124.66465 243.350069 
L 124.66465 245.644138 
L 124.66465 247.938207 
L 124.66465 250.232276 
L 124.66465 252.526345 
L 124.66465 254.820414 
L 124.66465 257.114483 
L 124.66465 259.408552 
L 124.66465 261.702621 
L 124.66465 263.99669 
L 124.66465 270.878897 
L 124.66465 273.172966 
L 124.66465 275.467034 
L 124.66465 277.761103 
L 124.66465 280.055172 
L 124.66465 282.349241 
L 124.66465 291.525517 
L 124.66465 307.584 
z
" clip-path="url(#p07d44f97b7)" style="fill: #21918c; fill-opacity: 0.75"/>
   </g>
   <g id="PathCollection_5">
    <path d="M 118.923636 307.584 
L 122.530909 307.584 
L 124.66465 307.584 
L 124.66465 291.525517 
L 124.66465 282.349241 
L 124.66465 280.055172 
L 124.66465 277.761103 
L 124.66465 275.467034 
L 124.66465 273.172966 
L 124.66465 270.878897 
L 124.66465 263.99669 
L 124.66465 261.702621 
L 124.66465 259.408552 
L 124.66465 257.114483 
L 124.66465 254.820414 
L 124.66465 252.526345 
L 124.66465 250.232276 
L 124.66465 247.938207 
L 124.66465 245.644138 
L 124.66465 243.350069 
L 124.66465 241.056 
L 124.66465 238.761931 
L 124.66465 234.173793 
L 124.66465 231.879724 
L 124.66465 229.585655 
L 124.66465 227.291586 
L 124.66465 224.997517 
L 124.66465 222.703448 
L 124.66465 220.409379 
L 124.66465 218.11531 
L 124.66465 213.527172 
L 125.364612 211.233103 
L 125.364612 208.939034 
L 125.364612 206.644966 
L 126.041006 202.056828 
L 126.041006 199.762759 
L 126.041006 195.174621 
L 126.041006 192.880552 
L 126.041006 190.586483 
L 126.041006 188.292414 
L 126.041006 185.998345 
L 126.041006 183.704276 
L 126.041006 181.410207 
L 126.041006 179.116138 
L 126.041006 176.822069 
L 126.041006 174.528 
L 126.041006 172.233931 
L 126.041006 169.939862 
L 126.041006 167.645793 
L 126.041006 165.351724 
L 126.041006 163.057655 
L 126.041006 160.763586 
L 126.041006 158.469517 
L 126.041006 156.175448 
L 126.041006 153.881379 
L 126.041006 151.58731 
L 126.041006 149.293241 
L 126.041006 146.999172 
L 126.041006 144.705103 
L 126.041006 142.411034 
L 126.041006 140.116966 
L 126.041006 137.822897 
L 126.041006 135.528828 
L 126.041006 130.94069 
L 126.041006 128.646621 
L 126.041006 119.470345 
L 126.041006 117.176276 
L 126.041006 114.882207 
L 126.041006 112.588138 
L 126.041006 110.294069 
L 126.041006 101.117793 
L 126.041006 91.941517 
L 126.041006 41.472 
L 123.58171 41.472 
L 123.58171 91.941517 
L 123.58171 101.117793 
L 123.58171 110.294069 
L 123.58171 112.588138 
L 123.58171 114.882207 
L 123.58171 117.176276 
L 123.58171 119.470345 
L 123.58171 128.646621 
L 123.58171 130.94069 
L 123.58171 135.528828 
L 123.58171 137.822897 
L 123.58171 140.116966 
L 123.58171 142.411034 
L 123.58171 144.705103 
L 123.58171 146.999172 
L 123.58171 149.293241 
L 123.58171 151.58731 
L 123.58171 153.881379 
L 123.58171 156.175448 
L 123.58171 158.469517 
L 123.58171 160.763586 
L 123.58171 163.057655 
L 123.58171 165.351724 
L 123.58171 167.645793 
L 123.58171 169.939862 
L 123.58171 172.233931 
L 123.58171 174.528 
L 123.58171 176.822069 
L 123.58171 179.116138 
L 123.58171 181.410207 
L 123.58171 183.704276 
L 123.58171 185.998345 
L 123.58171 188.292414 
L 123.58171 190.586483 
L 123.58171 192.880552 
L 123.58171 195.174621 
L 123.58171 199.762759 
L 123.58171 202.056828 
L 122.905316 206.644966 
L 122.905316 208.939034 
L 122.905316 211.233103 
L 122.530909 212.460192 
L 118.923636 212.460192 
L 118.543002 213.527172 
L 118.543002 218.11531 
L 118.543002 220.409379 
L 118.543002 222.703448 
L 118.543002 224.997517 
L 118.543002 227.291586 
L 118.543002 229.585655 
L 118.543002 231.879724 
L 118.543002 234.173793 
L 118.543002 238.761931 
L 118.543002 241.056 
L 118.543002 243.350069 
L 118.543002 245.644138 
L 118.543002 247.938207 
L 118.543002 250.232276 
L 118.543002 252.526345 
L 118.543002 254.820414 
L 118.543002 257.114483 
L 118.543002 259.408552 
L 118.543002 261.702621 
L 118.543002 263.99669 
L 118.543002 270.878897 
L 118.543002 273.172966 
L 118.543002 275.467034 
L 118.543002 277.761103 
L 118.543002 280.055172 
L 118.543002 282.349241 
L 118.543002 291.525517 
L 118.543002 307.584 
z
" clip-path="url(#p07d44f97b7)" style="fill: #2db27d; fill-opacity: 0.75"/>
   </g>
   <g id="PathCollection_6">
    <path d="M 61.207273 307.584 
L 64.814545 307.584 
L 68.421818 307.584 
L 72.029091 307.584 
L 75.636364 307.584 
L 79.243636 307.584 
L 82.850909 307.584 
L 86.015154 307.584 
L 86.015154 291.525517 
L 86.015154 282.349241 
L 86.015154 280.055172 
L 86.015154 277.761103 
L 86.015154 275.467034 
L 86.015154 273.172966 
L 86.015154 270.878897 
L 86.015154 263.99669 
L 86.015154 261.702621 
L 86.015154 259.408552 
L 86.015154 257.114483 
L 86.015154 254.820414 
L 86.015154 252.526345 
L 86.015154 250.232276 
L 86.015154 247.938207 
L 86.015154 245.644138 
L 86.015154 243.350069 
L 86.015154 241.056 
L 86.015154 238.761931 
L 86.015154 234.173793 
L 86.015154 231.879724 
L 86.015154 229.585655 
L 86.015154 227.291586 
L 86.015154 224.997517 
L 86.015154 222.703448 
L 86.015154 220.409379 
L 86.015154 218.11531 
L 86.015154 213.527172 
L 84.982983 211.233103 
L 84.982983 208.939034 
L 84.982983 206.644966 
L 83.985565 202.056828 
L 83.985565 199.762759 
L 83.985565 195.174621 
L 83.985565 192.880552 
L 83.985565 190.586483 
L 83.985565 188.292414 
L 83.985565 185.998345 
L 83.985565 183.704276 
L 83.985565 181.410207 
L 83.985565 179.116138 
L 83.985565 176.822069 
L 83.985565 174.528 
L 83.985565 172.233931 
L 83.985565 169.939862 
L 83.985565 167.645793 
L 83.985565 165.351724 
L 83.985565 163.057655 
L 83.985565 160.763586 
L 83.985565 158.469517 
L 83.985565 156.175448 
L 83.985565 153.881379 
L 83.985565 151.58731 
L 83.985565 149.293241 
L 83.985565 146.999172 
L 83.985565 144.705103 
L 83.985565 142.411034 
L 83.985565 140.116966 
L 83.985565 137.822897 
L 83.985565 135.528828 
L 83.985565 130.94069 
L 83.985565 128.646621 
L 83.985565 119.470345 
L 83.985565 117.176276 
L 83.985565 114.882207 
L 83.985565 112.588138 
L 83.985565 110.294069 
L 83.985565 101.117793 
L 83.985565 91.941517 
L 83.985565 41.472 
L 82.850909 41.472 
L 79.243636 41.472 
L 75.636364 41.472 
L 72.029091 41.472 
L 68.421818 41.472 
L 64.814545 41.472 
L 61.207273 41.472 
L 57.6 41.472 
L 57.6 91.941517 
L 57.6 101.117793 
L 57.6 110.294069 
L 57.6 112.588138 
L 57.6 114.882207 
L 57.6 117.176276 
L 57.6 119.470345 
L 57.6 128.646621 
L 57.6 130.94069 
L 57.6 135.528828 
L 57.6 137.822897 
L 57.6 140.116966 
L 57.6 142.411034 
L 57.6 144.705103 
L 57.6 146.999172 
L 57.6 149.293241 
L 57.6 151.58731 
L 57.6 153.881379 
L 57.6 156.175448 
L 57.6 158.469517 
L 57.6 160.763586 
L 57.6 163.057655 
L 57.6 165.351724 
L 57.6 167.645793 
L 57.6 169.939862 
L 57.6 172.233931 
L 57.6 174.528 
L 57.6 176.822069 
L 57.6 179.116138 
L 57.6 181.410207 
L 57.6 183.704276 
L 57.6 185.998345 
L 57.6 188.292414 
L 57.6 190.586483 
L 57.6 192.880552 
L 57.6 195.174621 
L 57.6 199.762759 
L 57.6 202.056828 
L 57.6 206.644966 
L 57.6 208.939034 
L 57.6 211.233103 
L 57.6 213.527172 
L 57.6 218.11531 
L 57.6 220.409379 
L 57.6 222.703448 
L 57.6 224.997517 
L 57.6 227.291586 
L 57.6 229.585655 
L 57.6 231.879724 
L 57.6 234.173793 
L 57.6 238.761931 
L 57.6 241.056 
L 57.6 243.350069 
L 57.6 245.644138 
L 57.6 247.938207 
L 57.6 250.232276 
L 57.6 252.526345 
L 57.6 254.820414 
L 57.6 257.114483 
L 57.6 259.408552 
L 57.6 261.702621 
L 57.6 263.99669 
L 57.6 270.878897 
L 57.6 273.172966 
L 57.6 275.467034 
L 57.6 277.761103 
L 57.6 280.055172 
L 57.6 282.349241 
L 57.6 291.525517 
L 57.6 307.584 
z
" clip-path="url(#p07d44f97b7)" style="fill: #73d056; fill-opacity: 0.75"/>
    <path d="M 118.543002 291.525517 
L 118.543002 282.349241 
L 118.543002 280.055172 
L 118.543002 277.761103 
L 118.543002 275.467034 
L 118.543002 273.172966 
L 118.543002 270.878897 
L 118.543002 263.99669 
L 118.543002 261.702621 
L 118.543002 259.408552 
L 118.543002 257.114483 
L 118.543002 254.820414 
L 118.543002 252.526345 
L 118.543002 250.232276 
L 118.543002 247.938207 
L 118.543002 245.644138 
L 118.543002 243.350069 
L 118.543002 241.056 
L 118.543002 238.761931 
L 118.543002 234.173793 
L 118.543002 231.879724 
L 118.543002 229.585655 
L 118.543002 227.291586 
L 118.543002 224.997517 
L 118.543002 222.703448 
L 118.543002 220.409379 
L 118.543002 218.11531 
L 118.543002 213.527172 
L 118.923636 212.460192 
L 122.530909 212.460192 
L 122.905316 211.233103 
L 122.905316 208.939034 
L 122.905316 206.644966 
L 123.58171 202.056828 
L 123.58171 199.762759 
L 123.58171 195.174621 
L 123.58171 192.880552 
L 123.58171 190.586483 
L 123.58171 188.292414 
L 123.58171 185.998345 
L 123.58171 183.704276 
L 123.58171 181.410207 
L 123.58171 179.116138 
L 123.58171 176.822069 
L 123.58171 174.528 
L 123.58171 172.233931 
L 123.58171 169.939862 
L 123.58171 167.645793 
L 123.58171 165.351724 
L 123.58171 163.057655 
L 123.58171 160.763586 
L 123.58171 158.469517 
L 123.58171 156.175448 
L 123.58171 153.881379 
L 123.58171 151.58731 
L 123.58171 149.293241 
L 123.58171 146.999172 
L 123.58171 144.705103 
L 123.58171 142.411034 
L 123.58171 140.116966 
L 123.58171 137.822897 
L 123.58171 135.528828 
L 123.58171 130.94069 
L 123.58171 128.646621 
L 123.58171 119.470345 
L 123.58171 117.176276 
L 123.58171 114.882207 
L 123.58171 112.588138 
L 123.58171 110.294069 
L 123.58171 101.117793 
L 123.58171 91.941517 
L 123.58171 41.472 
L 122.530909 41.472 
L 118.923636 41.472 
L 117.276845 41.472 
L 117.276845 91.941517 
L 117.276845 101.117793 
L 117.276845 110.294069 
L 117.276845 112.588138 
L 117.276845 114.882207 
L 117.276845 117.176276 
L 117.276845 119.470345 
L 117.276845 128.646621 
L 117.276845 130.94069 
L 117.276845 135.528828 
L 117.276845 137.822897 
L 117.276845 140.116966 
L 117.276845 142.411034 
L 117.276845 144.705103 
L 117.276845 146.999172 
L 117.276845 149.293241 
L 117.276845 151.58731 
L 117.276845 153.881379 
L 117.276845 156.175448 
L 117.276845 158.469517 
L 117.276845 160.763586 
L 117.276845 163.057655 
L 117.276845 165.351724 
L 117.276845 167.645793 
L 117.276845 169.939862 
L 117.276845 172.233931 
L 117.276845 174.528 
L 117.276845 176.822069 
L 117.276845 179.116138 
L 117.276845 181.410207 
L 117.276845 183.704276 
L 117.276845 185.998345 
L 117.276845 188.292414 
L 117.276845 190.586483 
L 117.276845 192.880552 
L 117.276845 195.174621 
L 117.276845 199.762759 
L 117.276845 202.056828 
L 116.486015 206.644966 
L 116.486015 208.939034 
L 116.486015 211.233103 
L 115.66763 213.527172 
L 115.66763 218.11531 
L 115.66763 220.409379 
L 115.66763 222.703448 
L 115.66763 224.997517 
L 115.66763 227.291586 
L 115.66763 229.585655 
L 115.66763 231.879724 
L 115.66763 234.173793 
L 115.66763 238.761931 
L 115.66763 241.056 
L 115.66763 243.350069 
L 115.66763 245.644138 
L 115.66763 247.938207 
L 115.66763 250.232276 
L 115.66763 252.526345 
L 115.66763 254.820414 
L 115.66763 257.114483 
L 115.66763 259.408552 
L 115.66763 261.702621 
L 115.66763 263.99669 
L 115.66763 270.878897 
L 115.66763 273.172966 
L 115.66763 275.467034 
L 115.66763 277.761103 
L 115.66763 280.055172 
L 115.66763 282.349241 
L 115.66763 291.525517 
L 115.66763 307.584 
L 118.543002 307.584 
z
" clip-path="url(#p07d44f97b7)" style="fill: #73d056; fill-opacity: 0.75"/>
   </g>
   <g id="PathCollection_7">
    <path d="M 86.458182 307.584 
L 90.065455 307.584 
L 93.672727 307.584 
L 97.28 307.584 
L 100.887273 307.584 
L 104.494545 307.584 
L 108.101818 307.584 
L 111.709091 307.584 
L 115.316364 307.584 
L 115.66763 307.584 
L 115.66763 291.525517 
L 115.66763 282.349241 
L 115.66763 280.055172 
L 115.66763 277.761103 
L 115.66763 275.467034 
L 115.66763 273.172966 
L 115.66763 270.878897 
L 115.66763 263.99669 
L 115.66763 261.702621 
L 115.66763 259.408552 
L 115.66763 257.114483 
L 115.66763 254.820414 
L 115.66763 252.526345 
L 115.66763 250.232276 
L 115.66763 247.938207 
L 115.66763 245.644138 
L 115.66763 243.350069 
L 115.66763 241.056 
L 115.66763 238.761931 
L 115.66763 234.173793 
L 115.66763 231.879724 
L 115.66763 229.585655 
L 115.66763 227.291586 
L 115.66763 224.997517 
L 115.66763 222.703448 
L 115.66763 220.409379 
L 115.66763 218.11531 
L 115.66763 213.527172 
L 116.486015 211.233103 
L 116.486015 208.939034 
L 116.486015 206.644966 
L 117.276845 202.056828 
L 117.276845 199.762759 
L 117.276845 195.174621 
L 117.276845 192.880552 
L 117.276845 190.586483 
L 117.276845 188.292414 
L 117.276845 185.998345 
L 117.276845 183.704276 
L 117.276845 181.410207 
L 117.276845 179.116138 
L 117.276845 176.822069 
L 117.276845 174.528 
L 117.276845 172.233931 
L 117.276845 169.939862 
L 117.276845 167.645793 
L 117.276845 165.351724 
L 117.276845 163.057655 
L 117.276845 160.763586 
L 117.276845 158.469517 
L 117.276845 156.175448 
L 117.276845 153.881379 
L 117.276845 151.58731 
L 117.276845 149.293241 
L 117.276845 146.999172 
L 117.276845 144.705103 
L 117.276845 142.411034 
L 117.276845 140.116966 
L 117.276845 137.822897 
L 117.276845 135.528828 
L 117.276845 130.94069 
L 117.276845 128.646621 
L 117.276845 119.470345 
L 117.276845 117.176276 
L 117.276845 114.882207 
L 117.276845 112.588138 
L 117.276845 110.294069 
L 117.276845 101.117793 
L 117.276845 91.941517 
L 117.276845 41.472 
L 115.316364 41.472 
L 111.709091 41.472 
L 108.101818 41.472 
L 104.494545 41.472 
L 100.887273 41.472 
L 97.28 41.472 
L 93.672727 41.472 
L 90.065455 41.472 
L 86.458182 41.472 
L 83.985565 41.472 
L 83.985565 91.941517 
L 83.985565 101.117793 
L 83.985565 110.294069 
L 83.985565 112.588138 
L 83.985565 114.882207 
L 83.985565 117.176276 
L 83.985565 119.470345 
L 83.985565 128.646621 
L 83.985565 130.94069 
L 83.985565 135.528828 
L 83.985565 137.822897 
L 83.985565 140.116966 
L 83.985565 142.411034 
L 83.985565 144.705103 
L 83.985565 146.999172 
L 83.985565 149.293241 
L 83.985565 151.58731 
L 83.985565 153.881379 
L 83.985565 156.175448 
L 83.985565 158.469517 
L 83.985565 160.763586 
L 83.985565 163.057655 
L 83.985565 165.351724 
L 83.985565 167.645793 
L 83.985565 169.939862 
L 83.985565 172.233931 
L 83.985565 174.528 
L 83.985565 176.822069 
L 83.985565 179.116138 
L 83.985565 181.410207 
L 83.985565 183.704276 
L 83.985565 185.998345 
L 83.985565 188.292414 
L 83.985565 190.586483 
L 83.985565 192.880552 
L 83.985565 195.174621 
L 83.985565 199.762759 
L 83.985565 202.056828 
L 84.982983 206.644966 
L 84.982983 208.939034 
L 84.982983 211.233103 
L 86.015154 213.527172 
L 86.015154 218.11531 
L 86.015154 220.409379 
L 86.015154 222.703448 
L 86.015154 224.997517 
L 86.015154 227.291586 
L 86.015154 229.585655 
L 86.015154 231.879724 
L 86.015154 234.173793 
L 86.015154 238.761931 
L 86.015154 241.056 
L 86.015154 243.350069 
L 86.015154 245.644138 
L 86.015154 247.938207 
L 86.015154 250.232276 
L 86.015154 252.526345 
L 86.015154 254.820414 
L 86.015154 257.114483 
L 86.015154 259.408552 
L 86.015154 261.702621 
L 86.015154 263.99669 
L 86.015154 270.878897 
L 86.015154 273.172966 
L 86.015154 275.467034 
L 86.015154 277.761103 
L 86.015154 280.055172 
L 86.015154 282.349241 
L 86.015154 291.525517 
L 86.015154 307.584 
z
" clip-path="url(#p07d44f97b7)" style="fill: #d0e11c; fill-opacity: 0.75"/>
   </g>
   <g id="matplotlib.axis_1">
    <g id="xtick_1">
     <g id="line2d_1">
      <defs>
       <path id="m3ccb02c813" d="M 0 0 
L 0 3.5 
" style="stroke: #000000; stroke-width: 0.8"/>
      </defs>
      <g>
       <use xlink:href="#m3ccb02c813" x="80.828777" y="307.584" style="stroke: #000000; stroke-width: 0.8"/>
      </g>
     </g>
     <g id="text_1">
      <!-- 10 -->
      <g transform="translate(74.466277 322.182437) scale(0.1 -0.1)">
       <defs>
        <path id="DejaVuSans-31" d="M 794 531 
L 1825 531 
L 1825 4091 
L 703 3866 
L 703 4441 
L 1819 4666 
L 2450 4666 
L 2450 531 
L 3481 531 
L 3481 0 
L 794 0 
L 794 531 
z
" transform="scale(0.015625)"/>
        <path id="DejaVuSans-30" d="M 2034 4250 
Q 1547 4250 1301 3770 
Q 1056 3291 1056 2328 
Q 1056 1369 1301 889 
Q 1547 409 2034 409 
Q 2525 409 2770 889 
Q 3016 1369 3016 2328 
Q 3016 3291 2770 3770 
Q 2525 4250 2034 4250 
z
M 2034 4750 
Q 2819 4750 3233 4129 
Q 3647 3509 3647 2328 
Q 3647 1150 3233 529 
Q 2819 -91 2034 -91 
Q 1250 -91 836 529 
Q 422 1150 422 2328 
Q 422 3509 836 4129 
Q 1250 4750 2034 4750 
z
" transform="scale(0.015625)"/>
       </defs>
       <use xlink:href="#DejaVuSans-31"/>
       <use xlink:href="#DejaVuSans-30" x="63.623047"/>
      </g>
     </g>
    </g>
    <g id="xtick_2">
     <g id="line2d_2">
      <g>
       <use xlink:href="#m3ccb02c813" x="122.391862" y="307.584" style="stroke: #000000; stroke-width: 0.8"/>
      </g>
     </g>
     <g id="text_2">
      <!-- 15 -->
      <g transform="translate(116.029362 322.182437) scale(0.1 -0.1)">
       <defs>
        <path id="DejaVuSans-35" d="M 691 4666 
L 3169 4666 
L 3169 4134 
L 1269 4134 
L 1269 2991 
Q 1406 3038 1543 3061 
Q 1681 3084 1819 3084 
Q 2600 3084 3056 2656 
Q 3513 2228 3513 1497 
Q 3513 744 3044 326 
Q 2575 -91 1722 -91 
Q 1428 -91 1123 -41 
Q 819 9 494 109 
L 494 744 
Q 775 591 1075 516 
Q 1375 441 1709 441 
Q 2250 441 2565 725 
Q 2881 1009 2881 1497 
Q 2881 1984 2565 2268 
Q 2250 2553 1709 2553 
Q 1456 2553 1204 2497 
Q 953 2441 691 2322 
L 691 4666 
z
" transform="scale(0.015625)"/>
       </defs>
       <use xlink:href="#DejaVuSans-31"/>
       <use xlink:href="#DejaVuSans-35" x="63.623047"/>
      </g>
     </g>
    </g>
    <g id="xtick_3">
     <g id="line2d_3">
      <g>
       <use xlink:href="#m3ccb02c813" x="163.954947" y="307.584" style="stroke: #000000; stroke-width: 0.8"/>
      </g>
     </g>
     <g id="text_3">
      <!-- 20 -->
      <g transform="translate(157.592447 322.182437) scale(0.1 -0.1)">
       <defs>
        <path id="DejaVuSans-32" d="M 1228 531 
L 3431 531 
L 3431 0 
L 469 0 
L 469 531 
Q 828 903 1448 1529 
Q 2069 2156 2228 2338 
Q 2531 2678 2651 2914 
Q 2772 3150 2772 3378 
Q 2772 3750 2511 3984 
Q 2250 4219 1831 4219 
Q 1534 4219 1204 4116 
Q 875 4013 500 3803 
L 500 4441 
Q 881 4594 1212 4672 
Q 1544 4750 1819 4750 
Q 2544 4750 2975 4387 
Q 3406 4025 3406 3419 
Q 3406 3131 3298 2873 
Q 3191 2616 2906 2266 
Q 2828 2175 2409 1742 
Q 1991 1309 1228 531 
z
" transform="scale(0.015625)"/>
       </defs>
       <use xlink:href="#DejaVuSans-32"/>
       <use xlink:href="#DejaVuSans-30" x="63.623047"/>
      </g>
     </g>
    </g>
    <g id="xtick_4">
     <g id="line2d_4">
      <g>
       <use xlink:href="#m3ccb02c813" x="205.518031" y="307.584" style="stroke: #000000; stroke-width: 0.8"/>
      </g>
     </g>
     <g id="text_4">
      <!-- 25 -->
      <g transform="translate(199.155531 322.182437) scale(0.1 -0.1)">
       <use xlink:href="#DejaVuSans-32"/>
       <use xlink:href="#DejaVuSans-35" x="63.623047"/>
      </g>
     </g>
    </g>
    <g id="xtick_5">
     <g id="line2d_5">
      <g>
       <use xlink:href="#m3ccb02c813" x="247.081116" y="307.584" style="stroke: #000000; stroke-width: 0.8"/>
      </g>
     </g>
     <g id="text_5">
      <!-- 30 -->
      <g transform="translate(240.718616 322.182437) scale(0.1 -0.1)">
       <defs>
        <path id="DejaVuSans-33" d="M 2597 2516 
Q 3050 2419 3304 2112 
Q 3559 1806 3559 1356 
Q 3559 666 3084 287 
Q 2609 -91 1734 -91 
Q 1441 -91 1130 -33 
Q 819 25 488 141 
L 488 750 
Q 750 597 1062 519 
Q 1375 441 1716 441 
Q 2309 441 2620 675 
Q 2931 909 2931 1356 
Q 2931 1769 2642 2001 
Q 2353 2234 1838 2234 
L 1294 2234 
L 1294 2753 
L 1863 2753 
Q 2328 2753 2575 2939 
Q 2822 3125 2822 3475 
Q 2822 3834 2567 4026 
Q 2313 4219 1838 4219 
Q 1578 4219 1281 4162 
Q 984 4106 628 3988 
L 628 4550 
Q 988 4650 1302 4700 
Q 1616 4750 1894 4750 
Q 2613 4750 3031 4423 
Q 3450 4097 3450 3541 
Q 3450 3153 3228 2886 
Q 3006 2619 2597 2516 
z
" transform="scale(0.015625)"/>
       </defs>
       <use xlink:href="#DejaVuSans-33"/>
       <use xlink:href="#DejaVuSans-30" x="63.623047"/>
      </g>
     </g>
    </g>
    <g id="xtick_6">
     <g id="line2d_6">
      <g>
       <use xlink:href="#m3ccb02c813" x="288.644201" y="307.584" style="stroke: #000000; stroke-width: 0.8"/>
      </g>
     </g>
     <g id="text_6">
      <!-- 35 -->
      <g transform="translate(282.281701 322.182437) scale(0.1 -0.1)">
       <use xlink:href="#DejaVuSans-33"/>
       <use xlink:href="#DejaVuSans-35" x="63.623047"/>
      </g>
     </g>
    </g>
    <g id="xtick_7">
     <g id="line2d_7">
      <g>
       <use xlink:href="#m3ccb02c813" x="330.207286" y="307.584" style="stroke: #000000; stroke-width: 0.8"/>
      </g>
     </g>
     <g id="text_7">
      <!-- 40 -->
      <g transform="translate(323.844786 322.182437) scale(0.1 -0.1)">
       <defs>
        <path id="DejaVuSans-34" d="M 2419 4116 
L 825 1625 
L 2419 1625 
L 2419 4116 
z
M 2253 4666 
L 3047 4666 
L 3047 1625 
L 3713 1625 
L 3713 1100 
L 3047 1100 
L 3047 0 
L 2419 0 
L 2419 1100 
L 313 1100 
L 313 1709 
L 2253 4666 
z
" transform="scale(0.015625)"/>
       </defs>
       <use xlink:href="#DejaVuSans-34"/>
       <use xlink:href="#DejaVuSans-30" x="63.623047"/>
      </g>
     </g>
    </g>
    <g id="xtick_8">
     <g id="line2d_8">
      <g>
       <use xlink:href="#m3ccb02c813" x="371.770371" y="307.584" style="stroke: #000000; stroke-width: 0.8"/>
      </g>
     </g>
     <g id="text_8">
      <!-- 45 -->
      <g transform="translate(365.407871 322.182437) scale(0.1 -0.1)">
       <use xlink:href="#DejaVuSans-34"/>
       <use xlink:href="#DejaVuSans-35" x="63.623047"/>
      </g>
     </g>
    </g>
    <g id="xtick_9">
     <g id="line2d_9">
      <g>
       <use xlink:href="#m3ccb02c813" x="413.333455" y="307.584" style="stroke: #000000; stroke-width: 0.8"/>
      </g>
     </g>
     <g id="text_9">
      <!-- 50 -->
      <g transform="translate(406.970955 322.182437) scale(0.1 -0.1)">
       <use xlink:href="#DejaVuSans-35"/>
       <use xlink:href="#DejaVuSans-30" x="63.623047"/>
      </g>
     </g>
    </g>
    <g id="text_10">
     <!-- PM2.5 -->
     <g transform="translate(220.879531 335.860562) scale(0.1 -0.1)">
      <defs>
       <path id="DejaVuSans-50" d="M 1259 4147 
L 1259 2394 
L 2053 2394 
Q 2494 2394 2734 2622 
Q 2975 2850 2975 3272 
Q 2975 3691 2734 3919 
Q 2494 4147 2053 4147 
L 1259 4147 
z
M 628 4666 
L 2053 4666 
Q 2838 4666 3239 4311 
Q 3641 3956 3641 3272 
Q 3641 2581 3239 2228 
Q 2838 1875 2053 1875 
L 1259 1875 
L 1259 0 
L 628 0 
L 628 4666 
z
" transform="scale(0.015625)"/>
       <path id="DejaVuSans-4d" d="M 628 4666 
L 1569 4666 
L 2759 1491 
L 3956 4666 
L 4897 4666 
L 4897 0 
L 4281 0 
L 4281 4097 
L 3078 897 
L 2444 897 
L 1241 4097 
L 1241 0 
L 628 0 
L 628 4666 
z
" transform="scale(0.015625)"/>
       <path id="DejaVuSans-2e" d="M 684 794 
L 1344 794 
L 1344 0 
L 684 0 
L 684 794 
z
" transform="scale(0.015625)"/>
      </defs>
      <use xlink:href="#DejaVuSans-50"/>
      <use xlink:href="#DejaVuSans-4d" x="60.302734"/>
      <use xlink:href="#DejaVuSans-32" x="146.582031"/>
      <use xlink:href="#DejaVuSans-2e" x="210.205078"/>
      <use xlink:href="#DejaVuSans-35" x="241.992188"/>
     </g>
    </g>
   </g>
   <g id="matplotlib.axis_2">
    <g id="ytick_1">
     <g id="line2d_10">
      <defs>
       <path id="m98333524f0" d="M 0 0 
L -3.5 0 
" style="stroke: #000000; stroke-width: 0.8"/>
      </defs>
      <g>
       <use xlink:href="#m98333524f0" x="57.6" y="275.467034" style="stroke: #000000; stroke-width: 0.8"/>
      </g>
     </g>
     <g id="text_11">
      <!-- 22 -->
      <g transform="translate(37.875 279.266253) scale(0.1 -0.1)">
       <use xlink:href="#DejaVuSans-32"/>
       <use xlink:href="#DejaVuSans-32" x="63.623047"/>
      </g>
     </g>
    </g>
    <g id="ytick_2">
     <g id="line2d_11">
      <g>
       <use xlink:href="#m98333524f0" x="57.6" y="229.585655" style="stroke: #000000; stroke-width: 0.8"/>
      </g>
     </g>
     <g id="text_12">
      <!-- 24 -->
      <g transform="translate(37.875 233.384874) scale(0.1 -0.1)">
       <use xlink:href="#DejaVuSans-32"/>
       <use xlink:href="#DejaVuSans-34" x="63.623047"/>
      </g>
     </g>
    </g>
    <g id="ytick_3">
     <g id="line2d_12">
      <g>
       <use xlink:href="#m98333524f0" x="57.6" y="183.704276" style="stroke: #000000; stroke-width: 0.8"/>
      </g>
     </g>
     <g id="text_13">
      <!-- 26 -->
      <g transform="translate(37.875 187.503495) scale(0.1 -0.1)">
       <defs>
        <path id="DejaVuSans-36" d="M 2113 2584 
Q 1688 2584 1439 2293 
Q 1191 2003 1191 1497 
Q 1191 994 1439 701 
Q 1688 409 2113 409 
Q 2538 409 2786 701 
Q 3034 994 3034 1497 
Q 3034 2003 2786 2293 
Q 2538 2584 2113 2584 
z
M 3366 4563 
L 3366 3988 
Q 3128 4100 2886 4159 
Q 2644 4219 2406 4219 
Q 1781 4219 1451 3797 
Q 1122 3375 1075 2522 
Q 1259 2794 1537 2939 
Q 1816 3084 2150 3084 
Q 2853 3084 3261 2657 
Q 3669 2231 3669 1497 
Q 3669 778 3244 343 
Q 2819 -91 2113 -91 
Q 1303 -91 875 529 
Q 447 1150 447 2328 
Q 447 3434 972 4092 
Q 1497 4750 2381 4750 
Q 2619 4750 2861 4703 
Q 3103 4656 3366 4563 
z
" transform="scale(0.015625)"/>
       </defs>
       <use xlink:href="#DejaVuSans-32"/>
       <use xlink:href="#DejaVuSans-36" x="63.623047"/>
      </g>
     </g>
    </g>
    <g id="ytick_4">
     <g id="line2d_13">
      <g>
       <use xlink:href="#m98333524f0" x="57.6" y="137.822897" style="stroke: #000000; stroke-width: 0.8"/>
      </g>
     </g>
     <g id="text_14">
      <!-- 28 -->
      <g transform="translate(37.875 141.622115) scale(0.1 -0.1)">
       <defs>
        <path id="DejaVuSans-38" d="M 2034 2216 
Q 1584 2216 1326 1975 
Q 1069 1734 1069 1313 
Q 1069 891 1326 650 
Q 1584 409 2034 409 
Q 2484 409 2743 651 
Q 3003 894 3003 1313 
Q 3003 1734 2745 1975 
Q 2488 2216 2034 2216 
z
M 1403 2484 
Q 997 2584 770 2862 
Q 544 3141 544 3541 
Q 544 4100 942 4425 
Q 1341 4750 2034 4750 
Q 2731 4750 3128 4425 
Q 3525 4100 3525 3541 
Q 3525 3141 3298 2862 
Q 3072 2584 2669 2484 
Q 3125 2378 3379 2068 
Q 3634 1759 3634 1313 
Q 3634 634 3220 271 
Q 2806 -91 2034 -91 
Q 1263 -91 848 271 
Q 434 634 434 1313 
Q 434 1759 690 2068 
Q 947 2378 1403 2484 
z
M 1172 3481 
Q 1172 3119 1398 2916 
Q 1625 2713 2034 2713 
Q 2441 2713 2670 2916 
Q 2900 3119 2900 3481 
Q 2900 3844 2670 4047 
Q 2441 4250 2034 4250 
Q 1625 4250 1398 4047 
Q 1172 3844 1172 3481 
z
" transform="scale(0.015625)"/>
       </defs>
       <use xlink:href="#DejaVuSans-32"/>
       <use xlink:href="#DejaVuSans-38" x="63.623047"/>
      </g>
     </g>
    </g>
    <g id="ytick_5">
     <g id="line2d_14">
      <g>
       <use xlink:href="#m98333524f0" x="57.6" y="91.941517" style="stroke: #000000; stroke-width: 0.8"/>
      </g>
     </g>
     <g id="text_15">
      <!-- 30 -->
      <g transform="translate(37.875 95.740736) scale(0.1 -0.1)">
       <use xlink:href="#DejaVuSans-33"/>
       <use xlink:href="#DejaVuSans-30" x="63.623047"/>
      </g>
     </g>
    </g>
    <g id="ytick_6">
     <g id="line2d_15">
      <g>
       <use xlink:href="#m98333524f0" x="57.6" y="46.060138" style="stroke: #000000; stroke-width: 0.8"/>
      </g>
     </g>
     <g id="text_16">
      <!-- 32 -->
      <g transform="translate(37.875 49.859357) scale(0.1 -0.1)">
       <use xlink:href="#DejaVuSans-33"/>
       <use xlink:href="#DejaVuSans-32" x="63.623047"/>
      </g>
     </g>
    </g>
    <g id="text_17">
     <!-- Mean BMI -->
     <g transform="translate(31.795312 198.960031) rotate(-90) scale(0.1 -0.1)">
      <defs>
       <path id="DejaVuSans-65" d="M 3597 1894 
L 3597 1613 
L 953 1613 
Q 991 1019 1311 708 
Q 1631 397 2203 397 
Q 2534 397 2845 478 
Q 3156 559 3463 722 
L 3463 178 
Q 3153 47 2828 -22 
Q 2503 -91 2169 -91 
Q 1331 -91 842 396 
Q 353 884 353 1716 
Q 353 2575 817 3079 
Q 1281 3584 2069 3584 
Q 2775 3584 3186 3129 
Q 3597 2675 3597 1894 
z
M 3022 2063 
Q 3016 2534 2758 2815 
Q 2500 3097 2075 3097 
Q 1594 3097 1305 2825 
Q 1016 2553 972 2059 
L 3022 2063 
z
" transform="scale(0.015625)"/>
       <path id="DejaVuSans-61" d="M 2194 1759 
Q 1497 1759 1228 1600 
Q 959 1441 959 1056 
Q 959 750 1161 570 
Q 1363 391 1709 391 
Q 2188 391 2477 730 
Q 2766 1069 2766 1631 
L 2766 1759 
L 2194 1759 
z
M 3341 1997 
L 3341 0 
L 2766 0 
L 2766 531 
Q 2569 213 2275 61 
Q 1981 -91 1556 -91 
Q 1019 -91 701 211 
Q 384 513 384 1019 
Q 384 1609 779 1909 
Q 1175 2209 1959 2209 
L 2766 2209 
L 2766 2266 
Q 2766 2663 2505 2880 
Q 2244 3097 1772 3097 
Q 1472 3097 1187 3025 
Q 903 2953 641 2809 
L 641 3341 
Q 956 3463 1253 3523 
Q 1550 3584 1831 3584 
Q 2591 3584 2966 3190 
Q 3341 2797 3341 1997 
z
" transform="scale(0.015625)"/>
       <path id="DejaVuSans-6e" d="M 3513 2113 
L 3513 0 
L 2938 0 
L 2938 2094 
Q 2938 2591 2744 2837 
Q 2550 3084 2163 3084 
Q 1697 3084 1428 2787 
Q 1159 2491 1159 1978 
L 1159 0 
L 581 0 
L 581 3500 
L 1159 3500 
L 1159 2956 
Q 1366 3272 1645 3428 
Q 1925 3584 2291 3584 
Q 2894 3584 3203 3211 
Q 3513 2838 3513 2113 
z
" transform="scale(0.015625)"/>
       <path id="DejaVuSans-20" transform="scale(0.015625)"/>
       <path id="DejaVuSans-42" d="M 1259 2228 
L 1259 519 
L 2272 519 
Q 2781 519 3026 730 
Q 3272 941 3272 1375 
Q 3272 1813 3026 2020 
Q 2781 2228 2272 2228 
L 1259 2228 
z
M 1259 4147 
L 1259 2741 
L 2194 2741 
Q 2656 2741 2882 2914 
Q 3109 3088 3109 3444 
Q 3109 3797 2882 3972 
Q 2656 4147 2194 4147 
L 1259 4147 
z
M 628 4666 
L 2241 4666 
Q 2963 4666 3353 4366 
Q 3744 4066 3744 3513 
Q 3744 3084 3544 2831 
Q 3344 2578 2956 2516 
Q 3422 2416 3680 2098 
Q 3938 1781 3938 1306 
Q 3938 681 3513 340 
Q 3088 0 2303 0 
L 628 0 
L 628 4666 
z
" transform="scale(0.015625)"/>
       <path id="DejaVuSans-49" d="M 628 4666 
L 1259 4666 
L 1259 0 
L 628 0 
L 628 4666 
z
" transform="scale(0.015625)"/>
      </defs>
      <use xlink:href="#DejaVuSans-4d"/>
      <use xlink:href="#DejaVuSans-65" x="86.279297"/>
      <use xlink:href="#DejaVuSans-61" x="147.802734"/>
      <use xlink:href="#DejaVuSans-6e" x="209.082031"/>
      <use xlink:href="#DejaVuSans-20" x="272.460938"/>
      <use xlink:href="#DejaVuSans-42" x="304.248047"/>
      <use xlink:href="#DejaVuSans-4d" x="372.851562"/>
      <use xlink:href="#DejaVuSans-49" x="459.130859"/>
     </g>
    </g>
   </g>
   <g id="PathCollection_8"/>
   <g id="PathCollection_9">
    <path d="M 266.011579 307.584 
L 266.011579 291.525517 
L 266.011579 282.349241 
L 266.011579 280.055172 
L 266.011579 277.761103 
L 266.011579 275.467034 
L 266.011579 273.172966 
L 266.011579 270.878897 
L 266.011579 263.99669 
L 266.011579 261.702621 
L 266.011579 259.408552 
L 266.011579 257.114483 
L 266.011579 256.716931 
" clip-path="url(#p07d44f97b7)" style="fill: none; stroke: #000000; stroke-width: 0.5"/>
    <path d="M 266.011579 220.806931 
L 266.011579 220.409379 
L 266.011579 218.11531 
L 266.011579 213.527172 
L 266.821818 212.385217 
L 270.429091 212.385217 
L 271.3837 211.233103 
L 271.3837 208.939034 
L 271.3837 206.644966 
L 273.220502 202.056828 
L 273.220502 199.762759 
L 273.220502 195.174621 
L 273.220502 192.880552 
L 273.220502 190.586483 
L 273.220502 188.292414 
L 273.220502 185.998345 
L 273.220502 183.704276 
L 273.220502 181.410207 
L 273.220502 179.116138 
L 273.220502 176.822069 
L 273.220502 174.528 
L 273.220502 172.233931 
L 273.220502 169.939862 
L 273.220502 167.645793 
L 273.220502 165.351724 
L 273.220502 163.057655 
L 273.220502 160.763586 
L 273.220502 158.469517 
L 273.220502 156.175448 
L 273.220502 153.881379 
L 273.220502 151.58731 
L 273.220502 149.293241 
L 273.220502 146.999172 
L 273.220502 144.705103 
L 273.220502 142.411034 
L 273.220502 140.116966 
L 273.220502 137.822897 
L 273.220502 135.528828 
L 273.220502 130.94069 
L 273.220502 128.646621 
L 273.220502 119.470345 
L 273.220502 117.176276 
L 273.220502 114.882207 
L 273.220502 112.588138 
L 273.220502 110.294069 
L 273.220502 101.117793 
L 273.220502 91.941517 
L 273.220502 41.472 
" clip-path="url(#p07d44f97b7)" style="fill: none; stroke: #000000; stroke-width: 0.5"/>
   </g>
   <g id="PathCollection_10">
    <path d="M 261.891737 307.584 
L 261.891737 291.525517 
L 261.891737 282.349241 
L 261.891737 280.055172 
L 261.891737 277.761103 
L 261.891737 275.467034 
L 261.891737 273.172966 
L 261.891737 270.878897 
L 261.891737 263.99669 
L 261.891737 261.702621 
L 261.891737 259.408552 
L 261.891737 257.114483 
L 261.891737 254.820414 
L 261.891737 252.526345 
L 261.891737 250.232276 
L 261.891737 247.938207 
L 261.891737 245.644138 
L 261.891737 243.350069 
L 261.891737 241.056 
L 261.891737 238.761931 
L 261.891737 234.173793 
L 261.891737 231.879724 
L 261.891737 229.585655 
L 261.891737 227.291586 
L 261.891737 224.997517 
L 261.891737 222.703448 
L 261.891737 220.409379 
L 261.891737 218.11531 
L 261.891737 213.527172 
L 262.628652 211.233103 
L 262.628652 208.939034 
L 262.628652 206.644966 
L 263.214545 202.870005 
L 263.493315 202.056828 
L 263.493315 199.762759 
L 263.493315 195.174621 
L 263.493315 192.880552 
L 263.493315 190.586483 
L 263.493315 188.292414 
L 263.493315 185.998345 
L 263.493315 183.704276 
L 263.493315 181.410207 
L 263.493315 179.116138 
L 263.493315 176.822069 
L 263.493315 174.528 
L 263.493315 172.233931 
L 263.493315 169.939862 
L 263.493315 167.645793 
L 263.493315 165.351724 
L 263.493315 163.057655 
L 263.493315 160.763586 
L 263.493315 160.366034 
" clip-path="url(#p07d44f97b7)" style="fill: none; stroke: #000000; stroke-width: 0.5"/>
    <path d="M 263.493315 124.456034 
L 263.493315 119.470345 
L 263.493315 117.176276 
L 263.493315 114.882207 
L 263.493315 112.588138 
L 263.493315 110.294069 
L 263.493315 101.117793 
L 263.493315 91.941517 
L 263.493315 41.472 
" clip-path="url(#p07d44f97b7)" style="fill: none; stroke: #000000; stroke-width: 0.5"/>
   </g>
   <g id="PathCollection_11">
    <path d="M 208.286807 307.584 
L 208.286807 291.525517 
L 208.286807 282.349241 
L 208.286807 280.055172 
L 208.286807 277.761103 
L 208.286807 275.467034 
L 208.286807 275.069483 
" clip-path="url(#p07d44f97b7)" style="fill: none; stroke: #000000; stroke-width: 0.5"/>
    <path d="M 208.286807 239.159483 
L 208.286807 238.761931 
L 208.286807 234.173793 
L 208.286807 231.879724 
L 208.286807 229.585655 
L 208.286807 227.291586 
L 208.286807 224.997517 
L 208.286807 222.703448 
L 208.286807 220.409379 
L 208.286807 218.11531 
L 208.286807 213.527172 
L 209.105455 212.578728 
L 212.712727 212.578728 
L 216.32 212.578728 
L 219.927273 212.578728 
L 223.534545 212.578728 
L 227.141818 212.578728 
L 230.749091 212.578728 
L 234.356364 212.578728 
L 237.963636 212.578728 
L 241.570909 212.578728 
L 245.178182 212.578728 
L 248.785455 212.578728 
L 252.392727 212.578728 
L 256 212.578728 
L 259.607273 212.578728 
L 260.039522 211.233103 
L 260.039522 208.939034 
L 260.039522 206.644966 
L 260.751625 202.056828 
L 260.751625 199.762759 
L 260.751625 195.174621 
L 260.751625 192.880552 
L 260.751625 190.586483 
L 260.751625 188.292414 
L 260.751625 185.998345 
L 260.751625 183.704276 
L 260.751625 181.410207 
L 260.751625 179.116138 
L 260.751625 176.822069 
L 260.751625 174.528 
L 260.751625 172.233931 
L 260.751625 169.939862 
L 260.751625 167.645793 
L 260.751625 165.351724 
L 260.751625 163.057655 
L 260.751625 160.763586 
L 260.751625 158.469517 
L 260.751625 156.175448 
L 260.751625 153.881379 
L 260.751625 151.58731 
L 260.751625 149.293241 
L 260.751625 146.999172 
L 260.751625 144.705103 
L 260.751625 142.411034 
L 260.751625 140.116966 
L 260.751625 137.822897 
L 260.751625 135.528828 
L 260.751625 130.94069 
L 260.751625 128.646621 
L 260.751625 119.470345 
L 260.751625 117.176276 
L 260.751625 114.882207 
L 260.751625 112.588138 
L 260.751625 110.294069 
L 260.751625 101.117793 
L 260.751625 91.941517 
L 260.751625 41.472 
" clip-path="url(#p07d44f97b7)" style="fill: none; stroke: #000000; stroke-width: 0.5"/>
   </g>
   <g id="PathCollection_12">
    <path d="M 124.66465 307.584 
L 124.66465 291.525517 
L 124.66465 282.349241 
L 124.66465 280.055172 
L 124.66465 277.761103 
L 124.66465 275.467034 
L 124.66465 273.172966 
L 124.66465 270.878897 
L 124.66465 263.99669 
L 124.66465 261.702621 
L 124.66465 259.408552 
L 124.66465 257.114483 
L 124.66465 256.716931 
" clip-path="url(#p07d44f97b7)" style="fill: none; stroke: #000000; stroke-width: 0.5"/>
    <path d="M 124.66465 220.806931 
L 124.66465 220.409379 
L 124.66465 218.11531 
L 124.66465 213.527172 
L 125.364612 211.233103 
L 125.364612 208.939034 
L 125.364612 206.644966 
L 126.041006 202.056828 
L 126.041006 199.762759 
L 126.041006 195.174621 
L 126.041006 192.880552 
L 126.041006 190.586483 
L 126.041006 188.292414 
L 126.041006 185.998345 
L 126.041006 183.704276 
L 126.041006 181.410207 
L 126.041006 179.116138 
L 126.041006 176.822069 
L 126.041006 174.528 
L 126.041006 172.233931 
L 126.041006 169.939862 
L 126.041006 167.645793 
L 126.041006 165.351724 
L 126.041006 163.057655 
L 126.041006 160.763586 
L 126.041006 158.469517 
L 126.041006 156.175448 
L 126.041006 153.881379 
L 126.041006 151.58731 
L 126.041006 149.293241 
L 126.041006 146.999172 
L 126.041006 144.705103 
L 126.041006 142.411034 
L 126.041006 140.116966 
L 126.041006 137.822897 
L 126.041006 135.528828 
L 126.041006 130.94069 
L 126.041006 128.646621 
L 126.041006 119.470345 
L 126.041006 117.176276 
L 126.041006 114.882207 
L 126.041006 112.588138 
L 126.041006 110.294069 
L 126.041006 101.117793 
L 126.041006 91.941517 
L 126.041006 41.472 
" clip-path="url(#p07d44f97b7)" style="fill: none; stroke: #000000; stroke-width: 0.5"/>
   </g>
   <g id="PathCollection_13">
    <path d="M 118.543002 307.584 
L 118.543002 291.525517 
L 118.543002 282.349241 
L 118.543002 280.055172 
L 118.543002 277.761103 
L 118.543002 275.467034 
L 118.543002 273.172966 
L 118.543002 270.878897 
L 118.543002 263.99669 
L 118.543002 261.702621 
L 118.543002 259.408552 
L 118.543002 257.114483 
L 118.543002 254.820414 
L 118.543002 252.526345 
L 118.543002 250.232276 
L 118.543002 247.938207 
L 118.543002 245.644138 
L 118.543002 243.350069 
L 118.543002 241.056 
L 118.543002 238.761931 
L 118.543002 234.173793 
L 118.543002 231.879724 
L 118.543002 229.585655 
L 118.543002 227.291586 
L 118.543002 224.997517 
L 118.543002 222.703448 
L 118.543002 220.409379 
L 118.543002 218.11531 
L 118.543002 213.527172 
L 118.923636 212.460192 
L 122.530909 212.460192 
L 122.905316 211.233103 
L 122.905316 208.939034 
L 122.905316 206.644966 
L 123.58171 202.056828 
L 123.58171 199.762759 
L 123.58171 195.174621 
L 123.58171 192.880552 
L 123.58171 190.586483 
L 123.58171 188.292414 
L 123.58171 185.998345 
L 123.58171 183.704276 
L 123.58171 181.410207 
L 123.58171 179.116138 
L 123.58171 176.822069 
L 123.58171 174.528 
L 123.58171 172.233931 
L 123.58171 169.939862 
L 123.58171 167.645793 
L 123.58171 165.351724 
L 123.58171 163.057655 
L 123.58171 162.660103 
" clip-path="url(#p07d44f97b7)" style="fill: none; stroke: #000000; stroke-width: 0.5"/>
    <path d="M 123.58171 126.750103 
L 123.58171 119.470345 
L 123.58171 117.176276 
L 123.58171 114.882207 
L 123.58171 112.588138 
L 123.58171 110.294069 
L 123.58171 101.117793 
L 123.58171 91.941517 
L 123.58171 41.472 
" clip-path="url(#p07d44f97b7)" style="fill: none; stroke: #000000; stroke-width: 0.5"/>
   </g>
   <g id="PathCollection_14">
    <path d="M 115.66763 307.584 
L 115.66763 291.525517 
L 115.66763 282.349241 
L 115.66763 280.055172 
L 115.66763 277.761103 
L 115.66763 275.467034 
L 115.66763 273.172966 
L 115.66763 270.878897 
L 115.66763 263.99669 
L 115.66763 261.702621 
L 115.66763 259.408552 
L 115.66763 257.114483 
L 115.66763 256.716931 
" clip-path="url(#p07d44f97b7)" style="fill: none; stroke: #000000; stroke-width: 0.5"/>
    <path d="M 115.66763 220.806931 
L 115.66763 220.409379 
L 115.66763 218.11531 
L 115.66763 213.527172 
L 116.486015 211.233103 
L 116.486015 208.939034 
L 116.486015 206.644966 
L 117.276845 202.056828 
L 117.276845 199.762759 
L 117.276845 195.174621 
L 117.276845 192.880552 
L 117.276845 190.586483 
L 117.276845 188.292414 
L 117.276845 185.998345 
L 117.276845 183.704276 
L 117.276845 181.410207 
L 117.276845 179.116138 
L 117.276845 176.822069 
L 117.276845 174.528 
L 117.276845 172.233931 
L 117.276845 169.939862 
L 117.276845 167.645793 
L 117.276845 165.351724 
L 117.276845 163.057655 
L 117.276845 160.763586 
L 117.276845 158.469517 
L 117.276845 156.175448 
L 117.276845 153.881379 
L 117.276845 151.58731 
L 117.276845 149.293241 
L 117.276845 146.999172 
L 117.276845 144.705103 
L 117.276845 142.411034 
L 117.276845 140.116966 
L 117.276845 137.822897 
L 117.276845 135.528828 
L 117.276845 130.94069 
L 117.276845 128.646621 
L 117.276845 119.470345 
L 117.276845 117.176276 
L 117.276845 114.882207 
L 117.276845 112.588138 
L 117.276845 110.294069 
L 117.276845 101.117793 
L 117.276845 91.941517 
L 117.276845 41.472 
" clip-path="url(#p07d44f97b7)" style="fill: none; stroke: #000000; stroke-width: 0.5"/>
    <path d="M 83.985565 41.472 
L 83.985565 91.941517 
L 83.985565 101.117793 
L 83.985565 110.294069 
L 83.985565 112.588138 
L 83.985565 114.882207 
L 83.985565 117.176276 
L 83.985565 119.470345 
L 83.985565 128.646621 
L 83.985565 130.94069 
L 83.985565 135.528828 
L 83.985565 137.822897 
L 83.985565 138.220448 
" clip-path="url(#p07d44f97b7)" style="fill: none; stroke: #000000; stroke-width: 0.5"/>
    <path d="M 83.985565 174.130448 
L 83.985565 174.528 
L 83.985565 176.822069 
L 83.985565 179.116138 
L 83.985565 181.410207 
L 83.985565 183.704276 
L 83.985565 185.998345 
L 83.985565 188.292414 
L 83.985565 190.586483 
L 83.985565 192.880552 
L 83.985565 195.174621 
L 83.985565 199.762759 
L 83.985565 202.056828 
L 84.982983 206.644966 
L 84.982983 208.939034 
L 84.982983 211.233103 
L 86.015154 213.527172 
L 86.015154 218.11531 
L 86.015154 220.409379 
L 86.015154 222.703448 
L 86.015154 224.997517 
L 86.015154 227.291586 
L 86.015154 229.585655 
L 86.015154 231.879724 
L 86.015154 234.173793 
L 86.015154 238.761931 
L 86.015154 241.056 
L 86.015154 243.350069 
L 86.015154 245.644138 
L 86.015154 247.938207 
L 86.015154 250.232276 
L 86.015154 252.526345 
L 86.015154 254.820414 
L 86.015154 257.114483 
L 86.015154 259.408552 
L 86.015154 261.702621 
L 86.015154 263.99669 
L 86.015154 270.878897 
L 86.015154 273.172966 
L 86.015154 275.467034 
L 86.015154 277.761103 
L 86.015154 280.055172 
L 86.015154 282.349241 
L 86.015154 291.525517 
L 86.015154 307.584 
" clip-path="url(#p07d44f97b7)" style="fill: none; stroke: #000000; stroke-width: 0.5"/>
   </g>
   <g id="PathCollection_15"/>
   <g id="LineCollection_1">
    <path d="M 68.153699 307.584 
L 68.153699 294.2784 
" clip-path="url(#p07d44f97b7)" style="fill: none; stroke: #000000; stroke-width: 1.5"/>
    <path d="M 84.835458 307.584 
L 84.835458 294.2784 
" clip-path="url(#p07d44f97b7)" style="fill: none; stroke: #000000; stroke-width: 1.5"/>
    <path d="M 104.170605 307.584 
L 104.170605 294.2784 
" clip-path="url(#p07d44f97b7)" style="fill: none; stroke: #000000; stroke-width: 1.5"/>
    <path d="M 123.093447 307.584 
L 123.093447 294.2784 
" clip-path="url(#p07d44f97b7)" style="fill: none; stroke: #000000; stroke-width: 1.5"/>
    <path d="M 154.229185 307.584 
L 154.229185 294.2784 
" clip-path="url(#p07d44f97b7)" style="fill: none; stroke: #000000; stroke-width: 1.5"/>
    <path d="M 185.315047 307.584 
L 185.315047 294.2784 
" clip-path="url(#p07d44f97b7)" style="fill: none; stroke: #000000; stroke-width: 1.5"/>
    <path d="M 218.366012 307.584 
L 218.366012 294.2784 
" clip-path="url(#p07d44f97b7)" style="fill: none; stroke: #000000; stroke-width: 1.5"/>
    <path d="M 294.130528 307.584 
L 294.130528 294.2784 
" clip-path="url(#p07d44f97b7)" style="fill: none; stroke: #000000; stroke-width: 1.5"/>
    <path d="M 342.443458 307.584 
L 342.443458 294.2784 
" clip-path="url(#p07d44f97b7)" style="fill: none; stroke: #000000; stroke-width: 1.5"/>
   </g>
   <g id="LineCollection_2">
    <path clip-path="url(#p07d44f97b7)" style="fill: none; stroke: #000000; stroke-width: 1.5"/>
    <path clip-path="url(#p07d44f97b7)" style="fill: none; stroke: #000000; stroke-width: 1.5"/>
    <path clip-path="url(#p07d44f97b7)" style="fill: none; stroke: #000000; stroke-width: 1.5"/>
    <path clip-path="url(#p07d44f97b7)" style="fill: none; stroke: #000000; stroke-width: 1.5"/>
    <path clip-path="url(#p07d44f97b7)" style="fill: none; stroke: #000000; stroke-width: 1.5"/>
    <path clip-path="url(#p07d44f97b7)" style="fill: none; stroke: #000000; stroke-width: 1.5"/>
    <path clip-path="url(#p07d44f97b7)" style="fill: none; stroke: #000000; stroke-width: 1.5"/>
    <path clip-path="url(#p07d44f97b7)" style="fill: none; stroke: #000000; stroke-width: 1.5"/>
    <path clip-path="url(#p07d44f97b7)" style="fill: none; stroke: #000000; stroke-width: 1.5"/>
   </g>
   <g id="patch_3">
    <path d="M 57.6 307.584 
L 57.6 41.472 
" style="fill: none; stroke: #000000; stroke-width: 0.8; stroke-linejoin: miter; stroke-linecap: square"/>
   </g>
   <g id="patch_4">
    <path d="M 414.72 307.584 
L 414.72 41.472 
" style="fill: none; stroke: #000000; stroke-width: 0.8; stroke-linejoin: miter; stroke-linecap: square"/>
   </g>
   <g id="patch_5">
    <path d="M 57.6 307.584 
L 414.72 307.584 
" style="fill: none; stroke: #000000; stroke-width: 0.8; stroke-linejoin: miter; stroke-linecap: square"/>
   </g>
   <g id="patch_6">
    <path d="M 57.6 41.472 
L 414.72 41.472 
" style="fill: none; stroke: #000000; stroke-width: 0.8; stroke-linejoin: miter; stroke-linecap: square"/>
   </g>
   <g id="text_18">
    <!-- 2D-partial dependency plot between PM and BMI -->
    <g transform="translate(89.250937 35.472) scale(0.12 -0.12)">
     <defs>
      <path id="DejaVuSans-44" d="M 1259 4147 
L 1259 519 
L 2022 519 
Q 2988 519 3436 956 
Q 3884 1394 3884 2338 
Q 3884 3275 3436 3711 
Q 2988 4147 2022 4147 
L 1259 4147 
z
M 628 4666 
L 1925 4666 
Q 3281 4666 3915 4102 
Q 4550 3538 4550 2338 
Q 4550 1131 3912 565 
Q 3275 0 1925 0 
L 628 0 
L 628 4666 
z
" transform="scale(0.015625)"/>
      <path id="DejaVuSans-2d" d="M 313 2009 
L 1997 2009 
L 1997 1497 
L 313 1497 
L 313 2009 
z
" transform="scale(0.015625)"/>
      <path id="DejaVuSans-70" d="M 1159 525 
L 1159 -1331 
L 581 -1331 
L 581 3500 
L 1159 3500 
L 1159 2969 
Q 1341 3281 1617 3432 
Q 1894 3584 2278 3584 
Q 2916 3584 3314 3078 
Q 3713 2572 3713 1747 
Q 3713 922 3314 415 
Q 2916 -91 2278 -91 
Q 1894 -91 1617 61 
Q 1341 213 1159 525 
z
M 3116 1747 
Q 3116 2381 2855 2742 
Q 2594 3103 2138 3103 
Q 1681 3103 1420 2742 
Q 1159 2381 1159 1747 
Q 1159 1113 1420 752 
Q 1681 391 2138 391 
Q 2594 391 2855 752 
Q 3116 1113 3116 1747 
z
" transform="scale(0.015625)"/>
      <path id="DejaVuSans-72" d="M 2631 2963 
Q 2534 3019 2420 3045 
Q 2306 3072 2169 3072 
Q 1681 3072 1420 2755 
Q 1159 2438 1159 1844 
L 1159 0 
L 581 0 
L 581 3500 
L 1159 3500 
L 1159 2956 
Q 1341 3275 1631 3429 
Q 1922 3584 2338 3584 
Q 2397 3584 2469 3576 
Q 2541 3569 2628 3553 
L 2631 2963 
z
" transform="scale(0.015625)"/>
      <path id="DejaVuSans-74" d="M 1172 4494 
L 1172 3500 
L 2356 3500 
L 2356 3053 
L 1172 3053 
L 1172 1153 
Q 1172 725 1289 603 
Q 1406 481 1766 481 
L 2356 481 
L 2356 0 
L 1766 0 
Q 1100 0 847 248 
Q 594 497 594 1153 
L 594 3053 
L 172 3053 
L 172 3500 
L 594 3500 
L 594 4494 
L 1172 4494 
z
" transform="scale(0.015625)"/>
      <path id="DejaVuSans-69" d="M 603 3500 
L 1178 3500 
L 1178 0 
L 603 0 
L 603 3500 
z
M 603 4863 
L 1178 4863 
L 1178 4134 
L 603 4134 
L 603 4863 
z
" transform="scale(0.015625)"/>
      <path id="DejaVuSans-6c" d="M 603 4863 
L 1178 4863 
L 1178 0 
L 603 0 
L 603 4863 
z
" transform="scale(0.015625)"/>
      <path id="DejaVuSans-64" d="M 2906 2969 
L 2906 4863 
L 3481 4863 
L 3481 0 
L 2906 0 
L 2906 525 
Q 2725 213 2448 61 
Q 2172 -91 1784 -91 
Q 1150 -91 751 415 
Q 353 922 353 1747 
Q 353 2572 751 3078 
Q 1150 3584 1784 3584 
Q 2172 3584 2448 3432 
Q 2725 3281 2906 2969 
z
M 947 1747 
Q 947 1113 1208 752 
Q 1469 391 1925 391 
Q 2381 391 2643 752 
Q 2906 1113 2906 1747 
Q 2906 2381 2643 2742 
Q 2381 3103 1925 3103 
Q 1469 3103 1208 2742 
Q 947 2381 947 1747 
z
" transform="scale(0.015625)"/>
      <path id="DejaVuSans-63" d="M 3122 3366 
L 3122 2828 
Q 2878 2963 2633 3030 
Q 2388 3097 2138 3097 
Q 1578 3097 1268 2742 
Q 959 2388 959 1747 
Q 959 1106 1268 751 
Q 1578 397 2138 397 
Q 2388 397 2633 464 
Q 2878 531 3122 666 
L 3122 134 
Q 2881 22 2623 -34 
Q 2366 -91 2075 -91 
Q 1284 -91 818 406 
Q 353 903 353 1747 
Q 353 2603 823 3093 
Q 1294 3584 2113 3584 
Q 2378 3584 2631 3529 
Q 2884 3475 3122 3366 
z
" transform="scale(0.015625)"/>
      <path id="DejaVuSans-79" d="M 2059 -325 
Q 1816 -950 1584 -1140 
Q 1353 -1331 966 -1331 
L 506 -1331 
L 506 -850 
L 844 -850 
Q 1081 -850 1212 -737 
Q 1344 -625 1503 -206 
L 1606 56 
L 191 3500 
L 800 3500 
L 1894 763 
L 2988 3500 
L 3597 3500 
L 2059 -325 
z
" transform="scale(0.015625)"/>
      <path id="DejaVuSans-6f" d="M 1959 3097 
Q 1497 3097 1228 2736 
Q 959 2375 959 1747 
Q 959 1119 1226 758 
Q 1494 397 1959 397 
Q 2419 397 2687 759 
Q 2956 1122 2956 1747 
Q 2956 2369 2687 2733 
Q 2419 3097 1959 3097 
z
M 1959 3584 
Q 2709 3584 3137 3096 
Q 3566 2609 3566 1747 
Q 3566 888 3137 398 
Q 2709 -91 1959 -91 
Q 1206 -91 779 398 
Q 353 888 353 1747 
Q 353 2609 779 3096 
Q 1206 3584 1959 3584 
z
" transform="scale(0.015625)"/>
      <path id="DejaVuSans-62" d="M 3116 1747 
Q 3116 2381 2855 2742 
Q 2594 3103 2138 3103 
Q 1681 3103 1420 2742 
Q 1159 2381 1159 1747 
Q 1159 1113 1420 752 
Q 1681 391 2138 391 
Q 2594 391 2855 752 
Q 3116 1113 3116 1747 
z
M 1159 2969 
Q 1341 3281 1617 3432 
Q 1894 3584 2278 3584 
Q 2916 3584 3314 3078 
Q 3713 2572 3713 1747 
Q 3713 922 3314 415 
Q 2916 -91 2278 -91 
Q 1894 -91 1617 61 
Q 1341 213 1159 525 
L 1159 0 
L 581 0 
L 581 4863 
L 1159 4863 
L 1159 2969 
z
" transform="scale(0.015625)"/>
      <path id="DejaVuSans-77" d="M 269 3500 
L 844 3500 
L 1563 769 
L 2278 3500 
L 2956 3500 
L 3675 769 
L 4391 3500 
L 4966 3500 
L 4050 0 
L 3372 0 
L 2619 2869 
L 1863 0 
L 1184 0 
L 269 3500 
z
" transform="scale(0.015625)"/>
     </defs>
     <use xlink:href="#DejaVuSans-32"/>
     <use xlink:href="#DejaVuSans-44" x="63.623047"/>
     <use xlink:href="#DejaVuSans-2d" x="140.625"/>
     <use xlink:href="#DejaVuSans-70" x="176.708984"/>
     <use xlink:href="#DejaVuSans-61" x="240.185547"/>
     <use xlink:href="#DejaVuSans-72" x="301.464844"/>
     <use xlink:href="#DejaVuSans-74" x="342.578125"/>
     <use xlink:href="#DejaVuSans-69" x="381.787109"/>
     <use xlink:href="#DejaVuSans-61" x="409.570312"/>
     <use xlink:href="#DejaVuSans-6c" x="470.849609"/>
     <use xlink:href="#DejaVuSans-20" x="498.632812"/>
     <use xlink:href="#DejaVuSans-64" x="530.419922"/>
     <use xlink:href="#DejaVuSans-65" x="593.896484"/>
     <use xlink:href="#DejaVuSans-70" x="655.419922"/>
     <use xlink:href="#DejaVuSans-65" x="718.896484"/>
     <use xlink:href="#DejaVuSans-6e" x="780.419922"/>
     <use xlink:href="#DejaVuSans-64" x="843.798828"/>
     <use xlink:href="#DejaVuSans-65" x="907.275391"/>
     <use xlink:href="#DejaVuSans-6e" x="968.798828"/>
     <use xlink:href="#DejaVuSans-63" x="1032.177734"/>
     <use xlink:href="#DejaVuSans-79" x="1087.158203"/>
     <use xlink:href="#DejaVuSans-20" x="1146.337891"/>
     <use xlink:href="#DejaVuSans-70" x="1178.125"/>
     <use xlink:href="#DejaVuSans-6c" x="1241.601562"/>
     <use xlink:href="#DejaVuSans-6f" x="1269.384766"/>
     <use xlink:href="#DejaVuSans-74" x="1330.566406"/>
     <use xlink:href="#DejaVuSans-20" x="1369.775391"/>
     <use xlink:href="#DejaVuSans-62" x="1401.5625"/>
     <use xlink:href="#DejaVuSans-65" x="1465.039062"/>
     <use xlink:href="#DejaVuSans-74" x="1526.5625"/>
     <use xlink:href="#DejaVuSans-77" x="1565.771484"/>
     <use xlink:href="#DejaVuSans-65" x="1647.558594"/>
     <use xlink:href="#DejaVuSans-65" x="1709.082031"/>
     <use xlink:href="#DejaVuSans-6e" x="1770.605469"/>
     <use xlink:href="#DejaVuSans-20" x="1833.984375"/>
     <use xlink:href="#DejaVuSans-50" x="1865.771484"/>
     <use xlink:href="#DejaVuSans-4d" x="1926.074219"/>
     <use xlink:href="#DejaVuSans-20" x="2012.353516"/>
     <use xlink:href="#DejaVuSans-61" x="2044.140625"/>
     <use xlink:href="#DejaVuSans-6e" x="2105.419922"/>
     <use xlink:href="#DejaVuSans-64" x="2168.798828"/>
     <use xlink:href="#DejaVuSans-20" x="2232.275391"/>
     <use xlink:href="#DejaVuSans-42" x="2264.0625"/>
     <use xlink:href="#DejaVuSans-4d" x="2332.666016"/>
     <use xlink:href="#DejaVuSans-49" x="2418.945312"/>
    </g>
   </g>
   <g id="text_19">
    <g clip-path="url(#p07d44f97b7)">
     <!-- 12.93 -->
     <g transform="translate(263.252204 224.447869) rotate(-270) scale(0.1 -0.1)">
      <defs>
       <path id="DejaVuSans-39" d="M 703 97 
L 703 672 
Q 941 559 1184 500 
Q 1428 441 1663 441 
Q 2288 441 2617 861 
Q 2947 1281 2994 2138 
Q 2813 1869 2534 1725 
Q 2256 1581 1919 1581 
Q 1219 1581 811 2004 
Q 403 2428 403 3163 
Q 403 3881 828 4315 
Q 1253 4750 1959 4750 
Q 2769 4750 3195 4129 
Q 3622 3509 3622 2328 
Q 3622 1225 3098 567 
Q 2575 -91 1691 -91 
Q 1453 -91 1209 -44 
Q 966 3 703 97 
z
M 1959 2075 
Q 2384 2075 2632 2365 
Q 2881 2656 2881 3163 
Q 2881 3666 2632 3958 
Q 2384 4250 1959 4250 
Q 1534 4250 1286 3958 
Q 1038 3666 1038 3163 
Q 1038 2656 1286 2365 
Q 1534 2075 1959 2075 
z
" transform="scale(0.015625)"/>
      </defs>
      <use xlink:href="#DejaVuSans-31"/>
      <use xlink:href="#DejaVuSans-32" x="63.623047"/>
      <use xlink:href="#DejaVuSans-2e" x="127.246094"/>
      <use xlink:href="#DejaVuSans-39" x="159.033203"/>
      <use xlink:href="#DejaVuSans-33" x="222.65625"/>
     </g>
    </g>
   </g>
   <g id="text_20">
    <g clip-path="url(#p07d44f97b7)">
     <!-- 12.95 -->
     <g transform="translate(260.73394 128.096972) rotate(-270) scale(0.1 -0.1)">
      <use xlink:href="#DejaVuSans-31"/>
      <use xlink:href="#DejaVuSans-32" x="63.623047"/>
      <use xlink:href="#DejaVuSans-2e" x="127.246094"/>
      <use xlink:href="#DejaVuSans-39" x="159.033203"/>
      <use xlink:href="#DejaVuSans-35" x="222.65625"/>
     </g>
    </g>
   </g>
   <g id="text_21">
    <g clip-path="url(#p07d44f97b7)">
     <!-- 12.98 -->
     <g transform="translate(205.527432 242.80042) rotate(-270) scale(0.1 -0.1)">
      <use xlink:href="#DejaVuSans-31"/>
      <use xlink:href="#DejaVuSans-32" x="63.623047"/>
      <use xlink:href="#DejaVuSans-2e" x="127.246094"/>
      <use xlink:href="#DejaVuSans-39" x="159.033203"/>
      <use xlink:href="#DejaVuSans-38" x="222.65625"/>
     </g>
    </g>
   </g>
   <g id="text_22">
    <g clip-path="url(#p07d44f97b7)">
     <!-- 13.00 -->
     <g transform="translate(121.905275 224.447869) rotate(-270) scale(0.1 -0.1)">
      <use xlink:href="#DejaVuSans-31"/>
      <use xlink:href="#DejaVuSans-33" x="63.623047"/>
      <use xlink:href="#DejaVuSans-2e" x="127.246094"/>
      <use xlink:href="#DejaVuSans-30" x="159.033203"/>
      <use xlink:href="#DejaVuSans-30" x="222.65625"/>
     </g>
    </g>
   </g>
   <g id="text_23">
    <g clip-path="url(#p07d44f97b7)">
     <!-- 13.03 -->
     <g transform="translate(120.822335 130.391041) rotate(-270) scale(0.1 -0.1)">
      <use xlink:href="#DejaVuSans-31"/>
      <use xlink:href="#DejaVuSans-33" x="63.623047"/>
      <use xlink:href="#DejaVuSans-2e" x="127.246094"/>
      <use xlink:href="#DejaVuSans-30" x="159.033203"/>
      <use xlink:href="#DejaVuSans-33" x="222.65625"/>
     </g>
    </g>
   </g>
   <g id="text_24">
    <g clip-path="url(#p07d44f97b7)">
     <!-- 13.05 -->
     <g transform="translate(112.908255 224.447869) rotate(-270) scale(0.1 -0.1)">
      <use xlink:href="#DejaVuSans-31"/>
      <use xlink:href="#DejaVuSans-33" x="63.623047"/>
      <use xlink:href="#DejaVuSans-2e" x="127.246094"/>
      <use xlink:href="#DejaVuSans-30" x="159.033203"/>
      <use xlink:href="#DejaVuSans-35" x="222.65625"/>
     </g>
    </g>
   </g>
   <g id="text_25">
    <g clip-path="url(#p07d44f97b7)">
     <!-- 13.05 -->
     <g transform="translate(81.22619 141.861386) rotate(-270) scale(0.1 -0.1)">
      <use xlink:href="#DejaVuSans-31"/>
      <use xlink:href="#DejaVuSans-33" x="63.623047"/>
      <use xlink:href="#DejaVuSans-2e" x="127.246094"/>
      <use xlink:href="#DejaVuSans-30" x="159.033203"/>
      <use xlink:href="#DejaVuSans-35" x="222.65625"/>
     </g>
    </g>
   </g>
  </g>
 </g>
 <defs>
  <clipPath id="p07d44f97b7">
   <rect x="57.6" y="41.472" width="357.12" height="266.112"/>
  </clipPath>
 </defs>
</svg>
