<?xml version="1.0" encoding="utf-8" standalone="no"?>
<!DOCTYPE svg PUBLIC "-//W3C//DTD SVG 1.1//EN"
  "http://www.w3.org/Graphics/SVG/1.1/DTD/svg11.dtd">
<svg xmlns:xlink="http://www.w3.org/1999/xlink" width="460.8pt" height="345.6pt" viewBox="0 0 460.8 345.6" xmlns="http://www.w3.org/2000/svg" version="1.1">
 <metadata>
  <rdf:RDF xmlns:dc="http://purl.org/dc/elements/1.1/" xmlns:cc="http://creativecommons.org/ns#" xmlns:rdf="http://www.w3.org/1999/02/22-rdf-syntax-ns#">
   <cc:Work>
    <dc:type rdf:resource="http://purl.org/dc/dcmitype/StillImage"/>
    <dc:date>2024-02-15T11:39:31.966369</dc:date>
    <dc:format>image/svg+xml</dc:format>
    <dc:creator>
     <cc:Agent>
      <dc:title>Matplotlib v3.7.0, https://matplotlib.org/</dc:title>
     </cc:Agent>
    </dc:creator>
   </cc:Work>
  </rdf:RDF>
 </metadata>
 <defs>
  <style type="text/css">*{stroke-linejoin: round; stroke-linecap: butt}</style>
 </defs>
 <g id="figure_1">
  <g id="patch_1">
   <path d="M 0 345.6 
L 460.8 345.6 
L 460.8 0 
L 0 0 
L 0 345.6 
z
" style="fill: none"/>
  </g>
  <g id="axes_1"/>
  <g id="axes_2">
   <g id="patch_2">
    <path d="M 57.6 307.584 
L 414.72 307.584 
L 414.72 41.472 
L 57.6 41.472 
L 57.6 307.584 
z
" style="fill: none"/>
   </g>
   <g id="PathCollection_1">
    <path d="M 61.207273 307.584 
L 64.814545 307.584 
L 68.421818 307.584 
L 72.029091 307.584 
L 75.636364 307.584 
L 79.243636 307.584 
L 82.850909 307.584 
L 86.458182 307.584 
L 90.065455 307.584 
L 93.672727 307.584 
L 97.28 307.584 
L 100.887273 307.584 
L 104.494545 307.584 
L 108.101818 307.584 
L 111.709091 307.584 
L 115.316364 307.584 
L 118.923636 307.584 
L 122.530909 307.584 
L 126.138182 307.584 
L 127.893334 307.584 
L 127.893334 304.896 
L 127.893334 302.208 
L 127.893334 299.52 
L 127.893334 296.832 
L 127.893334 294.144 
L 127.893334 291.456 
L 127.893334 288.768 
L 127.893334 286.08 
L 127.893334 283.392 
L 127.893334 280.704 
L 127.893334 278.016 
L 127.893334 275.328 
L 127.893334 272.64 
L 127.893334 269.952 
L 127.893334 267.264 
L 127.893334 264.576 
L 127.893334 261.888 
L 127.893334 259.2 
L 127.893334 256.512 
L 127.893334 253.824 
L 127.893334 251.136 
L 127.893334 248.448 
L 127.893334 245.76 
L 127.893334 243.072 
L 127.893334 240.384 
L 127.893334 237.696 
L 127.893334 235.008 
L 127.893334 232.32 
L 127.893334 229.632 
L 127.893334 226.944 
L 127.893334 224.256 
L 127.893334 221.568 
L 127.893334 218.88 
L 127.893334 216.192 
L 127.893334 213.504 
L 127.893334 210.816 
L 127.893334 208.128 
L 127.893334 205.44 
L 127.893334 202.752 
L 127.893334 200.064 
L 127.893334 197.376 
L 127.893334 194.688 
L 127.893334 192 
L 127.893334 189.312 
L 127.893334 186.624 
L 127.893334 183.936 
L 127.893334 181.248 
L 127.893334 178.56 
L 128.495457 175.872 
L 128.495457 173.184 
L 128.495457 170.496 
L 128.495457 167.808 
L 128.495457 165.12 
L 128.495457 162.432 
L 128.495457 159.744 
L 128.495457 157.056 
L 128.495457 154.368 
L 128.495457 151.68 
L 128.495457 148.992 
L 128.495457 146.304 
L 128.495457 143.616 
L 128.495457 140.928 
L 128.495457 138.24 
L 128.495457 135.552 
L 128.495457 132.864 
L 128.495457 130.176 
L 128.495457 127.488 
L 128.495457 124.8 
L 128.495457 122.112 
L 128.495457 119.424 
L 128.495457 116.736 
L 128.495457 114.048 
L 128.495457 111.36 
L 128.495457 108.672 
L 128.495457 105.984 
L 128.495457 103.296 
L 128.495457 100.608 
L 128.495457 97.92 
L 128.495457 95.232 
L 128.495457 92.544 
L 128.495457 89.856 
L 128.495457 87.168 
L 128.495457 84.48 
L 128.495457 81.792 
L 128.495457 79.104 
L 128.495457 76.416 
L 128.495457 73.728 
L 128.495457 71.04 
L 128.495457 68.352 
L 128.495457 65.664 
L 128.495457 62.976 
L 128.495457 60.288 
L 128.495457 57.6 
L 128.495457 54.912 
L 128.495457 52.224 
L 128.495457 49.536 
L 128.495457 46.848 
L 128.495457 44.16 
L 128.495457 41.472 
L 126.138182 41.472 
L 122.530909 41.472 
L 118.923636 41.472 
L 115.316364 41.472 
L 111.709091 41.472 
L 108.101818 41.472 
L 104.494545 41.472 
L 100.887273 41.472 
L 97.28 41.472 
L 93.672727 41.472 
L 90.065455 41.472 
L 86.458182 41.472 
L 82.850909 41.472 
L 79.243636 41.472 
L 75.636364 41.472 
L 72.029091 41.472 
L 68.421818 41.472 
L 64.814545 41.472 
L 61.207273 41.472 
L 57.6 41.472 
L 57.6 44.16 
L 57.6 46.848 
L 57.6 49.536 
L 57.6 52.224 
L 57.6 54.912 
L 57.6 57.6 
L 57.6 60.288 
L 57.6 62.976 
L 57.6 65.664 
L 57.6 68.352 
L 57.6 71.04 
L 57.6 73.728 
L 57.6 76.416 
L 57.6 79.104 
L 57.6 81.792 
L 57.6 84.48 
L 57.6 87.168 
L 57.6 89.856 
L 57.6 92.544 
L 57.6 95.232 
L 57.6 97.92 
L 57.6 100.608 
L 57.6 103.296 
L 57.6 105.984 
L 57.6 108.672 
L 57.6 111.36 
L 57.6 114.048 
L 57.6 116.736 
L 57.6 119.424 
L 57.6 122.112 
L 57.6 124.8 
L 57.6 127.488 
L 57.6 130.176 
L 57.6 132.864 
L 57.6 135.552 
L 57.6 138.24 
L 57.6 140.928 
L 57.6 143.616 
L 57.6 146.304 
L 57.6 148.992 
L 57.6 151.68 
L 57.6 154.368 
L 57.6 157.056 
L 57.6 159.744 
L 57.6 162.432 
L 57.6 165.12 
L 57.6 167.808 
L 57.6 170.496 
L 57.6 173.184 
L 57.6 175.872 
L 57.6 178.56 
L 57.6 181.248 
L 57.6 183.936 
L 57.6 186.624 
L 57.6 189.312 
L 57.6 192 
L 57.6 194.688 
L 57.6 197.376 
L 57.6 200.064 
L 57.6 202.752 
L 57.6 205.44 
L 57.6 208.128 
L 57.6 210.816 
L 57.6 213.504 
L 57.6 216.192 
L 57.6 218.88 
L 57.6 221.568 
L 57.6 224.256 
L 57.6 226.944 
L 57.6 229.632 
L 57.6 232.32 
L 57.6 235.008 
L 57.6 237.696 
L 57.6 240.384 
L 57.6 243.072 
L 57.6 245.76 
L 57.6 248.448 
L 57.6 251.136 
L 57.6 253.824 
L 57.6 256.512 
L 57.6 259.2 
L 57.6 261.888 
L 57.6 264.576 
L 57.6 267.264 
L 57.6 269.952 
L 57.6 272.64 
L 57.6 275.328 
L 57.6 278.016 
L 57.6 280.704 
L 57.6 283.392 
L 57.6 286.08 
L 57.6 288.768 
L 57.6 291.456 
L 57.6 294.144 
L 57.6 296.832 
L 57.6 299.52 
L 57.6 302.208 
L 57.6 304.896 
L 57.6 307.584 
z
" clip-path="url(#p1557d664d3)" style="fill: #481b6d; fill-opacity: 0.75"/>
   </g>
   <g id="PathCollection_2">
    <path d="M 129.745455 307.584 
L 133.352727 307.584 
L 136.96 307.584 
L 140.567273 307.584 
L 140.828042 307.584 
L 140.828042 304.896 
L 140.828042 302.208 
L 140.828042 299.52 
L 140.828042 296.832 
L 140.828042 294.144 
L 140.828042 291.456 
L 140.828042 288.768 
L 140.828042 286.08 
L 140.828042 283.392 
L 140.828042 280.704 
L 140.828042 278.016 
L 140.828042 275.328 
L 140.828042 272.64 
L 140.828042 269.952 
L 140.828042 267.264 
L 140.828042 264.576 
L 140.828042 261.888 
L 140.828042 259.2 
L 140.828042 256.512 
L 140.828042 253.824 
L 140.828042 251.136 
L 140.828042 248.448 
L 140.828042 245.76 
L 140.828042 243.072 
L 140.828042 240.384 
L 140.828042 237.696 
L 140.828042 235.008 
L 140.828042 232.32 
L 140.828042 229.632 
L 140.828042 226.944 
L 140.828042 224.256 
L 140.828042 221.568 
L 140.828042 218.88 
L 140.828042 216.192 
L 140.828042 213.504 
L 140.828042 210.816 
L 140.828042 208.128 
L 140.828042 205.44 
L 140.828042 202.752 
L 140.828042 200.064 
L 140.828042 197.376 
L 140.828042 194.688 
L 140.828042 192 
L 140.828042 189.312 
L 140.828042 186.624 
L 140.828042 183.936 
L 140.828042 181.248 
L 140.828042 178.56 
L 141.69768 175.872 
L 141.69768 173.184 
L 141.69768 170.496 
L 141.69768 167.808 
L 141.69768 165.12 
L 141.69768 162.432 
L 141.69768 159.744 
L 141.69768 157.056 
L 141.69768 154.368 
L 141.69768 151.68 
L 141.69768 148.992 
L 141.69768 146.304 
L 141.69768 143.616 
L 141.69768 140.928 
L 141.69768 138.24 
L 141.69768 135.552 
L 141.69768 132.864 
L 141.69768 130.176 
L 141.69768 127.488 
L 141.69768 124.8 
L 141.69768 122.112 
L 141.69768 119.424 
L 141.69768 116.736 
L 141.69768 114.048 
L 141.69768 111.36 
L 141.69768 108.672 
L 141.69768 105.984 
L 141.69768 103.296 
L 141.69768 100.608 
L 141.69768 97.92 
L 141.69768 95.232 
L 141.69768 92.544 
L 141.69768 89.856 
L 141.69768 87.168 
L 141.69768 84.48 
L 141.69768 81.792 
L 141.69768 79.104 
L 141.69768 76.416 
L 141.69768 73.728 
L 141.69768 71.04 
L 141.69768 68.352 
L 141.69768 65.664 
L 141.69768 62.976 
L 141.69768 60.288 
L 141.69768 57.6 
L 141.69768 54.912 
L 141.69768 52.224 
L 141.69768 49.536 
L 141.69768 46.848 
L 141.69768 44.16 
L 141.69768 41.472 
L 140.567273 41.472 
L 136.96 41.472 
L 133.352727 41.472 
L 129.745455 41.472 
L 128.495457 41.472 
L 128.495457 44.16 
L 128.495457 46.848 
L 128.495457 49.536 
L 128.495457 52.224 
L 128.495457 54.912 
L 128.495457 57.6 
L 128.495457 60.288 
L 128.495457 62.976 
L 128.495457 65.664 
L 128.495457 68.352 
L 128.495457 71.04 
L 128.495457 73.728 
L 128.495457 76.416 
L 128.495457 79.104 
L 128.495457 81.792 
L 128.495457 84.48 
L 128.495457 87.168 
L 128.495457 89.856 
L 128.495457 92.544 
L 128.495457 95.232 
L 128.495457 97.92 
L 128.495457 100.608 
L 128.495457 103.296 
L 128.495457 105.984 
L 128.495457 108.672 
L 128.495457 111.36 
L 128.495457 114.048 
L 128.495457 116.736 
L 128.495457 119.424 
L 128.495457 122.112 
L 128.495457 124.8 
L 128.495457 127.488 
L 128.495457 130.176 
L 128.495457 132.864 
L 128.495457 135.552 
L 128.495457 138.24 
L 128.495457 140.928 
L 128.495457 143.616 
L 128.495457 146.304 
L 128.495457 148.992 
L 128.495457 151.68 
L 128.495457 154.368 
L 128.495457 157.056 
L 128.495457 159.744 
L 128.495457 162.432 
L 128.495457 165.12 
L 128.495457 167.808 
L 128.495457 170.496 
L 128.495457 173.184 
L 128.495457 175.872 
L 127.893334 178.56 
L 127.893334 181.248 
L 127.893334 183.936 
L 127.893334 186.624 
L 127.893334 189.312 
L 127.893334 192 
L 127.893334 194.688 
L 127.893334 197.376 
L 127.893334 200.064 
L 127.893334 202.752 
L 127.893334 205.44 
L 127.893334 208.128 
L 127.893334 210.816 
L 127.893334 213.504 
L 127.893334 216.192 
L 127.893334 218.88 
L 127.893334 221.568 
L 127.893334 224.256 
L 127.893334 226.944 
L 127.893334 229.632 
L 127.893334 232.32 
L 127.893334 235.008 
L 127.893334 237.696 
L 127.893334 240.384 
L 127.893334 243.072 
L 127.893334 245.76 
L 127.893334 248.448 
L 127.893334 251.136 
L 127.893334 253.824 
L 127.893334 256.512 
L 127.893334 259.2 
L 127.893334 261.888 
L 127.893334 264.576 
L 127.893334 267.264 
L 127.893334 269.952 
L 127.893334 272.64 
L 127.893334 275.328 
L 127.893334 278.016 
L 127.893334 280.704 
L 127.893334 283.392 
L 127.893334 286.08 
L 127.893334 288.768 
L 127.893334 291.456 
L 127.893334 294.144 
L 127.893334 296.832 
L 127.893334 299.52 
L 127.893334 302.208 
L 127.893334 304.896 
L 127.893334 307.584 
z
" clip-path="url(#p1557d664d3)" style="fill: #3f4788; fill-opacity: 0.75"/>
   </g>
   <g id="PathCollection_3">
    <path d="M 144.174545 307.584 
L 147.781818 307.584 
L 148.39418 307.584 
L 148.39418 304.896 
L 148.39418 302.208 
L 148.39418 299.52 
L 148.39418 296.832 
L 148.39418 294.144 
L 148.39418 291.456 
L 148.39418 288.768 
L 148.39418 286.08 
L 148.39418 283.392 
L 148.39418 280.704 
L 148.39418 278.016 
L 148.39418 275.328 
L 148.39418 272.64 
L 148.39418 269.952 
L 148.39418 267.264 
L 148.39418 264.576 
L 148.39418 261.888 
L 148.39418 259.2 
L 148.39418 256.512 
L 148.39418 253.824 
L 148.39418 251.136 
L 148.39418 248.448 
L 148.39418 245.76 
L 148.39418 243.072 
L 148.39418 240.384 
L 148.39418 237.696 
L 148.39418 235.008 
L 148.39418 232.32 
L 148.39418 229.632 
L 148.39418 226.944 
L 148.39418 224.256 
L 148.39418 221.568 
L 148.39418 218.88 
L 148.39418 216.192 
L 148.39418 213.504 
L 148.39418 210.816 
L 148.39418 208.128 
L 148.39418 205.44 
L 148.39418 202.752 
L 148.39418 200.064 
L 148.39418 197.376 
L 148.39418 194.688 
L 148.39418 192 
L 148.39418 189.312 
L 148.39418 186.624 
L 148.39418 183.936 
L 148.39418 181.248 
L 148.39418 178.56 
L 148.717539 175.872 
L 148.717539 173.184 
L 148.717539 170.496 
L 148.717539 167.808 
L 148.717539 165.12 
L 148.717539 162.432 
L 148.717539 159.744 
L 148.717539 157.056 
L 148.717539 154.368 
L 148.717539 151.68 
L 148.717539 148.992 
L 148.717539 146.304 
L 148.717539 143.616 
L 148.717539 140.928 
L 148.717539 138.24 
L 148.717539 135.552 
L 148.717539 132.864 
L 148.717539 130.176 
L 148.717539 127.488 
L 148.717539 124.8 
L 148.717539 122.112 
L 148.717539 119.424 
L 148.717539 116.736 
L 148.717539 114.048 
L 148.717539 111.36 
L 148.717539 108.672 
L 148.717539 105.984 
L 148.717539 103.296 
L 148.717539 100.608 
L 148.717539 97.92 
L 148.717539 95.232 
L 148.717539 92.544 
L 148.717539 89.856 
L 148.717539 87.168 
L 148.717539 84.48 
L 148.717539 81.792 
L 148.717539 79.104 
L 148.717539 76.416 
L 148.717539 73.728 
L 148.717539 71.04 
L 148.717539 68.352 
L 148.717539 65.664 
L 148.717539 62.976 
L 148.717539 60.288 
L 148.717539 57.6 
L 148.717539 54.912 
L 148.717539 52.224 
L 148.717539 49.536 
L 148.717539 46.848 
L 148.717539 44.16 
L 148.717539 41.472 
L 147.781818 41.472 
L 144.174545 41.472 
L 141.69768 41.472 
L 141.69768 44.16 
L 141.69768 46.848 
L 141.69768 49.536 
L 141.69768 52.224 
L 141.69768 54.912 
L 141.69768 57.6 
L 141.69768 60.288 
L 141.69768 62.976 
L 141.69768 65.664 
L 141.69768 68.352 
L 141.69768 71.04 
L 141.69768 73.728 
L 141.69768 76.416 
L 141.69768 79.104 
L 141.69768 81.792 
L 141.69768 84.48 
L 141.69768 87.168 
L 141.69768 89.856 
L 141.69768 92.544 
L 141.69768 95.232 
L 141.69768 97.92 
L 141.69768 100.608 
L 141.69768 103.296 
L 141.69768 105.984 
L 141.69768 108.672 
L 141.69768 111.36 
L 141.69768 114.048 
L 141.69768 116.736 
L 141.69768 119.424 
L 141.69768 122.112 
L 141.69768 124.8 
L 141.69768 127.488 
L 141.69768 130.176 
L 141.69768 132.864 
L 141.69768 135.552 
L 141.69768 138.24 
L 141.69768 140.928 
L 141.69768 143.616 
L 141.69768 146.304 
L 141.69768 148.992 
L 141.69768 151.68 
L 141.69768 154.368 
L 141.69768 157.056 
L 141.69768 159.744 
L 141.69768 162.432 
L 141.69768 165.12 
L 141.69768 167.808 
L 141.69768 170.496 
L 141.69768 173.184 
L 141.69768 175.872 
L 140.828042 178.56 
L 140.828042 181.248 
L 140.828042 183.936 
L 140.828042 186.624 
L 140.828042 189.312 
L 140.828042 192 
L 140.828042 194.688 
L 140.828042 197.376 
L 140.828042 200.064 
L 140.828042 202.752 
L 140.828042 205.44 
L 140.828042 208.128 
L 140.828042 210.816 
L 140.828042 213.504 
L 140.828042 216.192 
L 140.828042 218.88 
L 140.828042 221.568 
L 140.828042 224.256 
L 140.828042 226.944 
L 140.828042 229.632 
L 140.828042 232.32 
L 140.828042 235.008 
L 140.828042 237.696 
L 140.828042 240.384 
L 140.828042 243.072 
L 140.828042 245.76 
L 140.828042 248.448 
L 140.828042 251.136 
L 140.828042 253.824 
L 140.828042 256.512 
L 140.828042 259.2 
L 140.828042 261.888 
L 140.828042 264.576 
L 140.828042 267.264 
L 140.828042 269.952 
L 140.828042 272.64 
L 140.828042 275.328 
L 140.828042 278.016 
L 140.828042 280.704 
L 140.828042 283.392 
L 140.828042 286.08 
L 140.828042 288.768 
L 140.828042 291.456 
L 140.828042 294.144 
L 140.828042 296.832 
L 140.828042 299.52 
L 140.828042 302.208 
L 140.828042 304.896 
L 140.828042 307.584 
z
" clip-path="url(#p1557d664d3)" style="fill: #2e6e8e; fill-opacity: 0.75"/>
   </g>
   <g id="PathCollection_4">
    <path d="M 150.250878 304.896 
L 150.250878 302.208 
L 150.250878 299.52 
L 150.250878 296.832 
L 150.250878 294.144 
L 150.250878 291.456 
L 150.250878 288.768 
L 150.250878 286.08 
L 150.250878 283.392 
L 150.250878 280.704 
L 150.250878 278.016 
L 150.250878 275.328 
L 150.250878 272.64 
L 150.250878 269.952 
L 150.250878 267.264 
L 150.250878 264.576 
L 150.250878 261.888 
L 150.250878 259.2 
L 150.250878 256.512 
L 150.250878 253.824 
L 150.250878 251.136 
L 150.250878 248.448 
L 150.250878 245.76 
L 150.250878 243.072 
L 150.250878 240.384 
L 150.250878 237.696 
L 150.250878 235.008 
L 150.250878 232.32 
L 150.250878 229.632 
L 150.250878 226.944 
L 150.250878 224.256 
L 150.250878 221.568 
L 150.250878 218.88 
L 150.250878 216.192 
L 150.250878 213.504 
L 150.250878 210.816 
L 150.250878 208.128 
L 150.250878 205.44 
L 150.250878 202.752 
L 150.250878 200.064 
L 150.250878 197.376 
L 150.250878 194.688 
L 150.250878 192 
L 150.250878 189.312 
L 150.250878 186.624 
L 150.250878 183.936 
L 150.250878 181.248 
L 150.250878 178.56 
L 150.574237 175.872 
L 150.574237 173.184 
L 150.574237 170.496 
L 150.574237 167.808 
L 150.574237 165.12 
L 150.574237 162.432 
L 150.574237 159.744 
L 150.574237 157.056 
L 150.574237 154.368 
L 150.574237 151.68 
L 150.574237 148.992 
L 150.574237 146.304 
L 150.574237 143.616 
L 150.574237 140.928 
L 150.574237 138.24 
L 150.574237 135.552 
L 150.574237 132.864 
L 150.574237 130.176 
L 150.574237 127.488 
L 150.574237 124.8 
L 150.574237 122.112 
L 150.574237 119.424 
L 150.574237 116.736 
L 150.574237 114.048 
L 150.574237 111.36 
L 150.574237 108.672 
L 150.574237 105.984 
L 150.574237 103.296 
L 150.574237 100.608 
L 150.574237 97.92 
L 150.574237 95.232 
L 150.574237 92.544 
L 150.574237 89.856 
L 150.574237 87.168 
L 150.574237 84.48 
L 150.574237 81.792 
L 150.574237 79.104 
L 150.574237 76.416 
L 150.574237 73.728 
L 150.574237 71.04 
L 150.574237 68.352 
L 150.574237 65.664 
L 150.574237 62.976 
L 150.574237 60.288 
L 150.574237 57.6 
L 150.574237 54.912 
L 150.574237 52.224 
L 150.574237 49.536 
L 150.574237 46.848 
L 150.574237 44.16 
L 150.574237 41.472 
L 148.717539 41.472 
L 148.717539 44.16 
L 148.717539 46.848 
L 148.717539 49.536 
L 148.717539 52.224 
L 148.717539 54.912 
L 148.717539 57.6 
L 148.717539 60.288 
L 148.717539 62.976 
L 148.717539 65.664 
L 148.717539 68.352 
L 148.717539 71.04 
L 148.717539 73.728 
L 148.717539 76.416 
L 148.717539 79.104 
L 148.717539 81.792 
L 148.717539 84.48 
L 148.717539 87.168 
L 148.717539 89.856 
L 148.717539 92.544 
L 148.717539 95.232 
L 148.717539 97.92 
L 148.717539 100.608 
L 148.717539 103.296 
L 148.717539 105.984 
L 148.717539 108.672 
L 148.717539 111.36 
L 148.717539 114.048 
L 148.717539 116.736 
L 148.717539 119.424 
L 148.717539 122.112 
L 148.717539 124.8 
L 148.717539 127.488 
L 148.717539 130.176 
L 148.717539 132.864 
L 148.717539 135.552 
L 148.717539 138.24 
L 148.717539 140.928 
L 148.717539 143.616 
L 148.717539 146.304 
L 148.717539 148.992 
L 148.717539 151.68 
L 148.717539 154.368 
L 148.717539 157.056 
L 148.717539 159.744 
L 148.717539 162.432 
L 148.717539 165.12 
L 148.717539 167.808 
L 148.717539 170.496 
L 148.717539 173.184 
L 148.717539 175.872 
L 148.39418 178.56 
L 148.39418 181.248 
L 148.39418 183.936 
L 148.39418 186.624 
L 148.39418 189.312 
L 148.39418 192 
L 148.39418 194.688 
L 148.39418 197.376 
L 148.39418 200.064 
L 148.39418 202.752 
L 148.39418 205.44 
L 148.39418 208.128 
L 148.39418 210.816 
L 148.39418 213.504 
L 148.39418 216.192 
L 148.39418 218.88 
L 148.39418 221.568 
L 148.39418 224.256 
L 148.39418 226.944 
L 148.39418 229.632 
L 148.39418 232.32 
L 148.39418 235.008 
L 148.39418 237.696 
L 148.39418 240.384 
L 148.39418 243.072 
L 148.39418 245.76 
L 148.39418 248.448 
L 148.39418 251.136 
L 148.39418 253.824 
L 148.39418 256.512 
L 148.39418 259.2 
L 148.39418 261.888 
L 148.39418 264.576 
L 148.39418 267.264 
L 148.39418 269.952 
L 148.39418 272.64 
L 148.39418 275.328 
L 148.39418 278.016 
L 148.39418 280.704 
L 148.39418 283.392 
L 148.39418 286.08 
L 148.39418 288.768 
L 148.39418 291.456 
L 148.39418 294.144 
L 148.39418 296.832 
L 148.39418 299.52 
L 148.39418 302.208 
L 148.39418 304.896 
L 148.39418 307.584 
L 150.250878 307.584 
z
" clip-path="url(#p1557d664d3)" style="fill: #21918c; fill-opacity: 0.75"/>
   </g>
   <g id="PathCollection_5">
    <path d="M 151.389091 307.584 
L 154.996364 307.584 
L 158.603636 307.584 
L 160.984647 307.584 
L 160.984647 304.896 
L 160.984647 302.208 
L 160.984647 299.52 
L 160.984647 296.832 
L 160.984647 294.144 
L 160.984647 291.456 
L 160.984647 288.768 
L 160.984647 286.08 
L 160.984647 283.392 
L 160.984647 280.704 
L 160.984647 278.016 
L 160.984647 275.328 
L 160.984647 272.64 
L 160.984647 269.952 
L 160.984647 267.264 
L 160.984647 264.576 
L 160.984647 261.888 
L 160.984647 259.2 
L 160.984647 256.512 
L 160.984647 253.824 
L 160.984647 251.136 
L 160.984647 248.448 
L 160.984647 245.76 
L 160.984647 243.072 
L 160.984647 240.384 
L 160.984647 237.696 
L 160.984647 235.008 
L 160.984647 232.32 
L 160.984647 229.632 
L 160.984647 226.944 
L 160.984647 224.256 
L 160.984647 221.568 
L 160.984647 218.88 
L 160.984647 216.192 
L 160.984647 213.504 
L 160.984647 210.816 
L 160.984647 208.128 
L 160.984647 205.44 
L 160.984647 202.752 
L 160.984647 200.064 
L 160.984647 197.376 
L 160.984647 194.688 
L 160.984647 192 
L 160.984647 189.312 
L 160.984647 186.624 
L 160.984647 183.936 
L 160.984647 181.248 
L 160.984647 178.56 
L 162.056237 175.872 
L 162.056237 173.184 
L 162.056237 170.496 
L 162.056237 167.808 
L 162.056237 165.12 
L 162.056237 162.432 
L 162.056237 159.744 
L 162.056237 157.056 
L 162.056237 154.368 
L 162.056237 151.68 
L 162.056237 148.992 
L 162.056237 146.304 
L 162.056237 143.616 
L 162.056237 140.928 
L 162.056237 138.24 
L 162.056237 135.552 
L 162.056237 132.864 
L 162.056237 130.176 
L 162.056237 127.488 
L 162.056237 124.8 
L 162.056237 122.112 
L 162.056237 119.424 
L 162.056237 116.736 
L 162.056237 114.048 
L 162.056237 111.36 
L 162.056237 108.672 
L 162.056237 105.984 
L 162.056237 103.296 
L 162.056237 100.608 
L 162.056237 97.92 
L 162.056237 95.232 
L 162.056237 92.544 
L 162.056237 89.856 
L 162.056237 87.168 
L 162.056237 84.48 
L 162.056237 81.792 
L 162.056237 79.104 
L 162.056237 76.416 
L 162.056237 73.728 
L 162.056237 71.04 
L 162.056237 68.352 
L 162.056237 65.664 
L 162.056237 62.976 
L 162.056237 60.288 
L 162.056237 57.6 
L 162.056237 54.912 
L 162.056237 52.224 
L 162.056237 49.536 
L 162.056237 46.848 
L 162.056237 44.16 
L 162.056237 41.472 
L 158.603636 41.472 
L 154.996364 41.472 
L 151.389091 41.472 
L 150.574237 41.472 
L 150.574237 44.16 
L 150.574237 46.848 
L 150.574237 49.536 
L 150.574237 52.224 
L 150.574237 54.912 
L 150.574237 57.6 
L 150.574237 60.288 
L 150.574237 62.976 
L 150.574237 65.664 
L 150.574237 68.352 
L 150.574237 71.04 
L 150.574237 73.728 
L 150.574237 76.416 
L 150.574237 79.104 
L 150.574237 81.792 
L 150.574237 84.48 
L 150.574237 87.168 
L 150.574237 89.856 
L 150.574237 92.544 
L 150.574237 95.232 
L 150.574237 97.92 
L 150.574237 100.608 
L 150.574237 103.296 
L 150.574237 105.984 
L 150.574237 108.672 
L 150.574237 111.36 
L 150.574237 114.048 
L 150.574237 116.736 
L 150.574237 119.424 
L 150.574237 122.112 
L 150.574237 124.8 
L 150.574237 127.488 
L 150.574237 130.176 
L 150.574237 132.864 
L 150.574237 135.552 
L 150.574237 138.24 
L 150.574237 140.928 
L 150.574237 143.616 
L 150.574237 146.304 
L 150.574237 148.992 
L 150.574237 151.68 
L 150.574237 154.368 
L 150.574237 157.056 
L 150.574237 159.744 
L 150.574237 162.432 
L 150.574237 165.12 
L 150.574237 167.808 
L 150.574237 170.496 
L 150.574237 173.184 
L 150.574237 175.872 
L 150.250878 178.56 
L 150.250878 181.248 
L 150.250878 183.936 
L 150.250878 186.624 
L 150.250878 189.312 
L 150.250878 192 
L 150.250878 194.688 
L 150.250878 197.376 
L 150.250878 200.064 
L 150.250878 202.752 
L 150.250878 205.44 
L 150.250878 208.128 
L 150.250878 210.816 
L 150.250878 213.504 
L 150.250878 216.192 
L 150.250878 218.88 
L 150.250878 221.568 
L 150.250878 224.256 
L 150.250878 226.944 
L 150.250878 229.632 
L 150.250878 232.32 
L 150.250878 235.008 
L 150.250878 237.696 
L 150.250878 240.384 
L 150.250878 243.072 
L 150.250878 245.76 
L 150.250878 248.448 
L 150.250878 251.136 
L 150.250878 253.824 
L 150.250878 256.512 
L 150.250878 259.2 
L 150.250878 261.888 
L 150.250878 264.576 
L 150.250878 267.264 
L 150.250878 269.952 
L 150.250878 272.64 
L 150.250878 275.328 
L 150.250878 278.016 
L 150.250878 280.704 
L 150.250878 283.392 
L 150.250878 286.08 
L 150.250878 288.768 
L 150.250878 291.456 
L 150.250878 294.144 
L 150.250878 296.832 
L 150.250878 299.52 
L 150.250878 302.208 
L 150.250878 304.896 
L 150.250878 307.584 
z
" clip-path="url(#p1557d664d3)" style="fill: #2db27d; fill-opacity: 0.75"/>
   </g>
   <g id="PathCollection_6">
    <path d="M 162.210909 307.584 
L 165.818182 307.584 
L 169.425455 307.584 
L 173.032727 307.584 
L 175.369063 307.584 
L 175.369063 304.896 
L 175.369063 302.208 
L 175.369063 299.52 
L 175.369063 296.832 
L 175.369063 294.144 
L 175.369063 291.456 
L 175.369063 288.768 
L 175.369063 286.08 
L 175.369063 283.392 
L 175.369063 280.704 
L 175.369063 278.016 
L 175.369063 275.328 
L 175.369063 272.64 
L 175.369063 269.952 
L 175.369063 267.264 
L 175.369063 264.576 
L 175.369063 261.888 
L 175.369063 259.2 
L 175.369063 256.512 
L 175.369063 253.824 
L 175.369063 251.136 
L 175.369063 248.448 
L 175.369063 245.76 
L 175.369063 243.072 
L 175.369063 240.384 
L 175.369063 237.696 
L 175.369063 235.008 
L 175.369063 232.32 
L 175.369063 229.632 
L 175.369063 226.944 
L 175.369063 224.256 
L 175.369063 221.568 
L 175.369063 218.88 
L 175.369063 216.192 
L 175.369063 213.504 
L 175.369063 210.816 
L 175.369063 208.128 
L 175.369063 205.44 
L 175.369063 202.752 
L 175.369063 200.064 
L 175.369063 197.376 
L 175.369063 194.688 
L 175.369063 192 
L 175.369063 189.312 
L 175.369063 186.624 
L 175.369063 183.936 
L 175.369063 181.248 
L 175.369063 178.56 
L 176.087434 175.872 
L 176.087434 173.184 
L 176.087434 170.496 
L 176.087434 167.808 
L 176.087434 165.12 
L 176.087434 162.432 
L 176.087434 159.744 
L 176.087434 157.056 
L 176.087434 154.368 
L 176.087434 151.68 
L 176.087434 148.992 
L 176.087434 146.304 
L 176.087434 143.616 
L 176.087434 140.928 
L 176.087434 138.24 
L 176.087434 135.552 
L 176.087434 132.864 
L 176.087434 130.176 
L 176.087434 127.488 
L 176.087434 124.8 
L 176.087434 122.112 
L 176.087434 119.424 
L 176.087434 116.736 
L 176.087434 114.048 
L 176.087434 111.36 
L 176.087434 108.672 
L 176.087434 105.984 
L 176.087434 103.296 
L 176.087434 100.608 
L 176.087434 97.92 
L 176.087434 95.232 
L 176.087434 92.544 
L 176.087434 89.856 
L 176.087434 87.168 
L 176.087434 84.48 
L 176.087434 81.792 
L 176.087434 79.104 
L 176.087434 76.416 
L 176.087434 73.728 
L 176.087434 71.04 
L 176.087434 68.352 
L 176.087434 65.664 
L 176.087434 62.976 
L 176.087434 60.288 
L 176.087434 57.6 
L 176.087434 54.912 
L 176.087434 52.224 
L 176.087434 49.536 
L 176.087434 46.848 
L 176.087434 44.16 
L 176.087434 41.472 
L 173.032727 41.472 
L 169.425455 41.472 
L 165.818182 41.472 
L 162.210909 41.472 
L 162.056237 41.472 
L 162.056237 44.16 
L 162.056237 46.848 
L 162.056237 49.536 
L 162.056237 52.224 
L 162.056237 54.912 
L 162.056237 57.6 
L 162.056237 60.288 
L 162.056237 62.976 
L 162.056237 65.664 
L 162.056237 68.352 
L 162.056237 71.04 
L 162.056237 73.728 
L 162.056237 76.416 
L 162.056237 79.104 
L 162.056237 81.792 
L 162.056237 84.48 
L 162.056237 87.168 
L 162.056237 89.856 
L 162.056237 92.544 
L 162.056237 95.232 
L 162.056237 97.92 
L 162.056237 100.608 
L 162.056237 103.296 
L 162.056237 105.984 
L 162.056237 108.672 
L 162.056237 111.36 
L 162.056237 114.048 
L 162.056237 116.736 
L 162.056237 119.424 
L 162.056237 122.112 
L 162.056237 124.8 
L 162.056237 127.488 
L 162.056237 130.176 
L 162.056237 132.864 
L 162.056237 135.552 
L 162.056237 138.24 
L 162.056237 140.928 
L 162.056237 143.616 
L 162.056237 146.304 
L 162.056237 148.992 
L 162.056237 151.68 
L 162.056237 154.368 
L 162.056237 157.056 
L 162.056237 159.744 
L 162.056237 162.432 
L 162.056237 165.12 
L 162.056237 167.808 
L 162.056237 170.496 
L 162.056237 173.184 
L 162.056237 175.872 
L 160.984647 178.56 
L 160.984647 181.248 
L 160.984647 183.936 
L 160.984647 186.624 
L 160.984647 189.312 
L 160.984647 192 
L 160.984647 194.688 
L 160.984647 197.376 
L 160.984647 200.064 
L 160.984647 202.752 
L 160.984647 205.44 
L 160.984647 208.128 
L 160.984647 210.816 
L 160.984647 213.504 
L 160.984647 216.192 
L 160.984647 218.88 
L 160.984647 221.568 
L 160.984647 224.256 
L 160.984647 226.944 
L 160.984647 229.632 
L 160.984647 232.32 
L 160.984647 235.008 
L 160.984647 237.696 
L 160.984647 240.384 
L 160.984647 243.072 
L 160.984647 245.76 
L 160.984647 248.448 
L 160.984647 251.136 
L 160.984647 253.824 
L 160.984647 256.512 
L 160.984647 259.2 
L 160.984647 261.888 
L 160.984647 264.576 
L 160.984647 267.264 
L 160.984647 269.952 
L 160.984647 272.64 
L 160.984647 275.328 
L 160.984647 278.016 
L 160.984647 280.704 
L 160.984647 283.392 
L 160.984647 286.08 
L 160.984647 288.768 
L 160.984647 291.456 
L 160.984647 294.144 
L 160.984647 296.832 
L 160.984647 299.52 
L 160.984647 302.208 
L 160.984647 304.896 
L 160.984647 307.584 
z
" clip-path="url(#p1557d664d3)" style="fill: #73d056; fill-opacity: 0.75"/>
    <path d="M 227.141818 307.584 
L 230.749091 307.584 
L 234.356364 307.584 
L 237.963636 307.584 
L 241.570909 307.584 
L 245.178182 307.584 
L 248.785455 307.584 
L 252.392727 307.584 
L 256 307.584 
L 259.607273 307.584 
L 263.214545 307.584 
L 266.821818 307.584 
L 270.429091 307.584 
L 274.036364 307.584 
L 277.643636 307.584 
L 281.250909 307.584 
L 284.858182 307.584 
L 288.465455 307.584 
L 292.072727 307.584 
L 295.68 307.584 
L 299.287273 307.584 
L 302.894545 307.584 
L 306.501818 307.584 
L 310.109091 307.584 
L 313.716364 307.584 
L 317.323636 307.584 
L 320.930909 307.584 
L 324.538182 307.584 
L 328.145455 307.584 
L 331.752727 307.584 
L 335.36 307.584 
L 338.967273 307.584 
L 342.574545 307.584 
L 346.181818 307.584 
L 349.789091 307.584 
L 353.396364 307.584 
L 357.003636 307.584 
L 360.610909 307.584 
L 364.218182 307.584 
L 367.825455 307.584 
L 371.432727 307.584 
L 375.04 307.584 
L 378.647273 307.584 
L 382.254545 307.584 
L 385.861818 307.584 
L 389.469091 307.584 
L 393.076364 307.584 
L 396.683636 307.584 
L 400.290909 307.584 
L 403.898182 307.584 
L 407.505455 307.584 
L 411.112727 307.584 
L 414.72 307.584 
L 414.72 304.896 
L 414.72 302.208 
L 414.72 299.52 
L 414.72 296.832 
L 414.72 294.144 
L 414.72 291.456 
L 414.72 288.768 
L 414.72 286.08 
L 414.72 283.392 
L 414.72 280.704 
L 414.72 278.016 
L 414.72 275.328 
L 414.72 272.64 
L 414.72 269.952 
L 414.72 267.264 
L 414.72 264.576 
L 414.72 261.888 
L 414.72 259.2 
L 414.72 256.512 
L 414.72 253.824 
L 414.72 251.136 
L 414.72 248.448 
L 414.72 245.76 
L 414.72 243.072 
L 414.72 240.384 
L 414.72 237.696 
L 414.72 235.008 
L 414.72 232.32 
L 414.72 229.632 
L 414.72 226.944 
L 414.72 224.256 
L 414.72 221.568 
L 414.72 218.88 
L 414.72 216.192 
L 414.72 213.504 
L 414.72 210.816 
L 414.72 208.128 
L 414.72 205.44 
L 414.72 202.752 
L 414.72 200.064 
L 414.72 197.376 
L 414.72 194.688 
L 414.72 192 
L 414.72 189.312 
L 414.72 186.624 
L 414.72 183.936 
L 414.72 181.248 
L 414.72 178.56 
L 414.72 175.872 
L 414.72 173.184 
L 414.72 170.496 
L 414.72 167.808 
L 414.72 165.12 
L 414.72 162.432 
L 414.72 159.744 
L 414.72 157.056 
L 414.72 154.368 
L 414.72 151.68 
L 414.72 148.992 
L 414.72 146.304 
L 414.72 143.616 
L 414.72 140.928 
L 414.72 138.24 
L 414.72 135.552 
L 414.72 132.864 
L 414.72 130.176 
L 414.72 127.488 
L 414.72 124.8 
L 414.72 122.112 
L 414.72 119.424 
L 414.72 116.736 
L 414.72 114.048 
L 414.72 111.36 
L 414.72 108.672 
L 414.72 105.984 
L 414.72 103.296 
L 414.72 100.608 
L 414.72 97.92 
L 414.72 95.232 
L 414.72 92.544 
L 414.72 89.856 
L 414.72 87.168 
L 414.72 84.48 
L 414.72 81.792 
L 414.72 79.104 
L 414.72 76.416 
L 414.72 73.728 
L 414.72 71.04 
L 414.72 68.352 
L 414.72 65.664 
L 414.72 62.976 
L 414.72 60.288 
L 414.72 57.6 
L 414.72 54.912 
L 414.72 52.224 
L 414.72 49.536 
L 414.72 46.848 
L 414.72 44.16 
L 414.72 41.472 
L 411.112727 41.472 
L 407.505455 41.472 
L 403.898182 41.472 
L 400.290909 41.472 
L 396.683636 41.472 
L 393.076364 41.472 
L 389.469091 41.472 
L 385.861818 41.472 
L 382.254545 41.472 
L 378.647273 41.472 
L 375.04 41.472 
L 371.432727 41.472 
L 367.825455 41.472 
L 364.218182 41.472 
L 360.610909 41.472 
L 357.003636 41.472 
L 353.396364 41.472 
L 349.789091 41.472 
L 346.181818 41.472 
L 342.574545 41.472 
L 338.967273 41.472 
L 335.36 41.472 
L 331.752727 41.472 
L 328.145455 41.472 
L 324.538182 41.472 
L 320.930909 41.472 
L 317.323636 41.472 
L 313.716364 41.472 
L 310.109091 41.472 
L 306.501818 41.472 
L 302.894545 41.472 
L 299.287273 41.472 
L 295.68 41.472 
L 292.072727 41.472 
L 288.465455 41.472 
L 284.858182 41.472 
L 281.250909 41.472 
L 277.643636 41.472 
L 274.036364 41.472 
L 270.429091 41.472 
L 266.821818 41.472 
L 263.214545 41.472 
L 259.607273 41.472 
L 256 41.472 
L 252.392727 41.472 
L 248.785455 41.472 
L 245.178182 41.472 
L 241.570909 41.472 
L 237.963636 41.472 
L 234.356364 41.472 
L 230.749091 41.472 
L 227.141818 41.472 
L 225.790569 41.472 
L 225.790569 44.16 
L 225.790569 46.848 
L 225.790569 49.536 
L 225.790569 52.224 
L 225.790569 54.912 
L 225.790569 57.6 
L 225.790569 60.288 
L 225.790569 62.976 
L 225.790569 65.664 
L 225.790569 68.352 
L 225.790569 71.04 
L 225.790569 73.728 
L 225.790569 76.416 
L 225.790569 79.104 
L 225.790569 81.792 
L 225.790569 84.48 
L 225.790569 87.168 
L 225.790569 89.856 
L 225.790569 92.544 
L 225.790569 95.232 
L 225.790569 97.92 
L 225.790569 100.608 
L 225.790569 103.296 
L 225.790569 105.984 
L 225.790569 108.672 
L 225.790569 111.36 
L 225.790569 114.048 
L 225.790569 116.736 
L 225.790569 119.424 
L 225.790569 122.112 
L 225.790569 124.8 
L 225.790569 127.488 
L 225.790569 130.176 
L 225.790569 132.864 
L 225.790569 135.552 
L 225.790569 138.24 
L 225.790569 140.928 
L 225.790569 143.616 
L 225.790569 146.304 
L 225.790569 148.992 
L 225.790569 151.68 
L 225.790569 154.368 
L 225.790569 157.056 
L 225.790569 159.744 
L 225.790569 162.432 
L 225.790569 165.12 
L 225.790569 167.808 
L 225.790569 170.496 
L 225.790569 173.184 
L 225.790569 175.872 
L 226.564522 178.56 
L 226.564522 181.248 
L 226.564522 183.936 
L 226.564522 186.624 
L 226.564522 189.312 
L 226.564522 192 
L 226.564522 194.688 
L 226.564522 197.376 
L 226.564522 200.064 
L 226.564522 202.752 
L 226.564522 205.44 
L 226.564522 208.128 
L 226.564522 210.816 
L 226.564522 213.504 
L 226.564522 216.192 
L 226.564522 218.88 
L 226.564522 221.568 
L 226.564522 224.256 
L 226.564522 226.944 
L 226.564522 229.632 
L 226.564522 232.32 
L 226.564522 235.008 
L 226.564522 237.696 
L 226.564522 240.384 
L 226.564522 243.072 
L 226.564522 245.76 
L 226.564522 248.448 
L 226.564522 251.136 
L 226.564522 253.824 
L 226.564522 256.512 
L 226.564522 259.2 
L 226.564522 261.888 
L 226.564522 264.576 
L 226.564522 267.264 
L 226.564522 269.952 
L 226.564522 272.64 
L 226.564522 275.328 
L 226.564522 278.016 
L 226.564522 280.704 
L 226.564522 283.392 
L 226.564522 286.08 
L 226.564522 288.768 
L 226.564522 291.456 
L 226.564522 294.144 
L 226.564522 296.832 
L 226.564522 299.52 
L 226.564522 302.208 
L 226.564522 304.896 
L 226.564522 307.584 
z
" clip-path="url(#p1557d664d3)" style="fill: #73d056; fill-opacity: 0.75"/>
   </g>
   <g id="PathCollection_7">
    <path d="M 176.64 307.584 
L 180.247273 307.584 
L 183.854545 307.584 
L 187.461818 307.584 
L 191.069091 307.584 
L 194.676364 307.584 
L 198.283636 307.584 
L 201.890909 307.584 
L 205.498182 307.584 
L 209.105455 307.584 
L 212.712727 307.584 
L 216.32 307.584 
L 219.927273 307.584 
L 223.534545 307.584 
L 226.564522 307.584 
L 226.564522 304.896 
L 226.564522 302.208 
L 226.564522 299.52 
L 226.564522 296.832 
L 226.564522 294.144 
L 226.564522 291.456 
L 226.564522 288.768 
L 226.564522 286.08 
L 226.564522 283.392 
L 226.564522 280.704 
L 226.564522 278.016 
L 226.564522 275.328 
L 226.564522 272.64 
L 226.564522 269.952 
L 226.564522 267.264 
L 226.564522 264.576 
L 226.564522 261.888 
L 226.564522 259.2 
L 226.564522 256.512 
L 226.564522 253.824 
L 226.564522 251.136 
L 226.564522 248.448 
L 226.564522 245.76 
L 226.564522 243.072 
L 226.564522 240.384 
L 226.564522 237.696 
L 226.564522 235.008 
L 226.564522 232.32 
L 226.564522 229.632 
L 226.564522 226.944 
L 226.564522 224.256 
L 226.564522 221.568 
L 226.564522 218.88 
L 226.564522 216.192 
L 226.564522 213.504 
L 226.564522 210.816 
L 226.564522 208.128 
L 226.564522 205.44 
L 226.564522 202.752 
L 226.564522 200.064 
L 226.564522 197.376 
L 226.564522 194.688 
L 226.564522 192 
L 226.564522 189.312 
L 226.564522 186.624 
L 226.564522 183.936 
L 226.564522 181.248 
L 226.564522 178.56 
L 225.790569 175.872 
L 225.790569 173.184 
L 225.790569 170.496 
L 225.790569 167.808 
L 225.790569 165.12 
L 225.790569 162.432 
L 225.790569 159.744 
L 225.790569 157.056 
L 225.790569 154.368 
L 225.790569 151.68 
L 225.790569 148.992 
L 225.790569 146.304 
L 225.790569 143.616 
L 225.790569 140.928 
L 225.790569 138.24 
L 225.790569 135.552 
L 225.790569 132.864 
L 225.790569 130.176 
L 225.790569 127.488 
L 225.790569 124.8 
L 225.790569 122.112 
L 225.790569 119.424 
L 225.790569 116.736 
L 225.790569 114.048 
L 225.790569 111.36 
L 225.790569 108.672 
L 225.790569 105.984 
L 225.790569 103.296 
L 225.790569 100.608 
L 225.790569 97.92 
L 225.790569 95.232 
L 225.790569 92.544 
L 225.790569 89.856 
L 225.790569 87.168 
L 225.790569 84.48 
L 225.790569 81.792 
L 225.790569 79.104 
L 225.790569 76.416 
L 225.790569 73.728 
L 225.790569 71.04 
L 225.790569 68.352 
L 225.790569 65.664 
L 225.790569 62.976 
L 225.790569 60.288 
L 225.790569 57.6 
L 225.790569 54.912 
L 225.790569 52.224 
L 225.790569 49.536 
L 225.790569 46.848 
L 225.790569 44.16 
L 225.790569 41.472 
L 223.534545 41.472 
L 219.927273 41.472 
L 216.32 41.472 
L 212.712727 41.472 
L 209.105455 41.472 
L 205.498182 41.472 
L 201.890909 41.472 
L 198.283636 41.472 
L 194.676364 41.472 
L 191.069091 41.472 
L 187.461818 41.472 
L 183.854545 41.472 
L 180.247273 41.472 
L 176.64 41.472 
L 176.087434 41.472 
L 176.087434 44.16 
L 176.087434 46.848 
L 176.087434 49.536 
L 176.087434 52.224 
L 176.087434 54.912 
L 176.087434 57.6 
L 176.087434 60.288 
L 176.087434 62.976 
L 176.087434 65.664 
L 176.087434 68.352 
L 176.087434 71.04 
L 176.087434 73.728 
L 176.087434 76.416 
L 176.087434 79.104 
L 176.087434 81.792 
L 176.087434 84.48 
L 176.087434 87.168 
L 176.087434 89.856 
L 176.087434 92.544 
L 176.087434 95.232 
L 176.087434 97.92 
L 176.087434 100.608 
L 176.087434 103.296 
L 176.087434 105.984 
L 176.087434 108.672 
L 176.087434 111.36 
L 176.087434 114.048 
L 176.087434 116.736 
L 176.087434 119.424 
L 176.087434 122.112 
L 176.087434 124.8 
L 176.087434 127.488 
L 176.087434 130.176 
L 176.087434 132.864 
L 176.087434 135.552 
L 176.087434 138.24 
L 176.087434 140.928 
L 176.087434 143.616 
L 176.087434 146.304 
L 176.087434 148.992 
L 176.087434 151.68 
L 176.087434 154.368 
L 176.087434 157.056 
L 176.087434 159.744 
L 176.087434 162.432 
L 176.087434 165.12 
L 176.087434 167.808 
L 176.087434 170.496 
L 176.087434 173.184 
L 176.087434 175.872 
L 175.369063 178.56 
L 175.369063 181.248 
L 175.369063 183.936 
L 175.369063 186.624 
L 175.369063 189.312 
L 175.369063 192 
L 175.369063 194.688 
L 175.369063 197.376 
L 175.369063 200.064 
L 175.369063 202.752 
L 175.369063 205.44 
L 175.369063 208.128 
L 175.369063 210.816 
L 175.369063 213.504 
L 175.369063 216.192 
L 175.369063 218.88 
L 175.369063 221.568 
L 175.369063 224.256 
L 175.369063 226.944 
L 175.369063 229.632 
L 175.369063 232.32 
L 175.369063 235.008 
L 175.369063 237.696 
L 175.369063 240.384 
L 175.369063 243.072 
L 175.369063 245.76 
L 175.369063 248.448 
L 175.369063 251.136 
L 175.369063 253.824 
L 175.369063 256.512 
L 175.369063 259.2 
L 175.369063 261.888 
L 175.369063 264.576 
L 175.369063 267.264 
L 175.369063 269.952 
L 175.369063 272.64 
L 175.369063 275.328 
L 175.369063 278.016 
L 175.369063 280.704 
L 175.369063 283.392 
L 175.369063 286.08 
L 175.369063 288.768 
L 175.369063 291.456 
L 175.369063 294.144 
L 175.369063 296.832 
L 175.369063 299.52 
L 175.369063 302.208 
L 175.369063 304.896 
L 175.369063 307.584 
z
" clip-path="url(#p1557d664d3)" style="fill: #d0e11c; fill-opacity: 0.75"/>
   </g>
   <g id="matplotlib.axis_1">
    <g id="xtick_1">
     <g id="line2d_1">
      <defs>
       <path id="md5d04c8bbe" d="M 0 0 
L 0 3.5 
" style="stroke: #000000; stroke-width: 0.8"/>
      </defs>
      <g>
       <use xlink:href="#md5d04c8bbe" x="117.804183" y="307.584" style="stroke: #000000; stroke-width: 0.8"/>
      </g>
     </g>
     <g id="text_1">
      <!-- 5 -->
      <g transform="translate(114.622933 322.182437) scale(0.1 -0.1)">
       <defs>
        <path id="DejaVuSans-35" d="M 691 4666 
L 3169 4666 
L 3169 4134 
L 1269 4134 
L 1269 2991 
Q 1406 3038 1543 3061 
Q 1681 3084 1819 3084 
Q 2600 3084 3056 2656 
Q 3513 2228 3513 1497 
Q 3513 744 3044 326 
Q 2575 -91 1722 -91 
Q 1428 -91 1123 -41 
Q 819 9 494 109 
L 494 744 
Q 775 591 1075 516 
Q 1375 441 1709 441 
Q 2250 441 2565 725 
Q 2881 1009 2881 1497 
Q 2881 1984 2565 2268 
Q 2250 2553 1709 2553 
Q 1456 2553 1204 2497 
Q 953 2441 691 2322 
L 691 4666 
z
" transform="scale(0.015625)"/>
       </defs>
       <use xlink:href="#DejaVuSans-35"/>
      </g>
     </g>
    </g>
    <g id="xtick_2">
     <g id="line2d_2">
      <g>
       <use xlink:href="#md5d04c8bbe" x="191.10949" y="307.584" style="stroke: #000000; stroke-width: 0.8"/>
      </g>
     </g>
     <g id="text_2">
      <!-- 10 -->
      <g transform="translate(184.74699 322.182437) scale(0.1 -0.1)">
       <defs>
        <path id="DejaVuSans-31" d="M 794 531 
L 1825 531 
L 1825 4091 
L 703 3866 
L 703 4441 
L 1819 4666 
L 2450 4666 
L 2450 531 
L 3481 531 
L 3481 0 
L 794 0 
L 794 531 
z
" transform="scale(0.015625)"/>
        <path id="DejaVuSans-30" d="M 2034 4250 
Q 1547 4250 1301 3770 
Q 1056 3291 1056 2328 
Q 1056 1369 1301 889 
Q 1547 409 2034 409 
Q 2525 409 2770 889 
Q 3016 1369 3016 2328 
Q 3016 3291 2770 3770 
Q 2525 4250 2034 4250 
z
M 2034 4750 
Q 2819 4750 3233 4129 
Q 3647 3509 3647 2328 
Q 3647 1150 3233 529 
Q 2819 -91 2034 -91 
Q 1250 -91 836 529 
Q 422 1150 422 2328 
Q 422 3509 836 4129 
Q 1250 4750 2034 4750 
z
" transform="scale(0.015625)"/>
       </defs>
       <use xlink:href="#DejaVuSans-31"/>
       <use xlink:href="#DejaVuSans-30" x="63.623047"/>
      </g>
     </g>
    </g>
    <g id="xtick_3">
     <g id="line2d_3">
      <g>
       <use xlink:href="#md5d04c8bbe" x="264.414798" y="307.584" style="stroke: #000000; stroke-width: 0.8"/>
      </g>
     </g>
     <g id="text_3">
      <!-- 15 -->
      <g transform="translate(258.052298 322.182437) scale(0.1 -0.1)">
       <use xlink:href="#DejaVuSans-31"/>
       <use xlink:href="#DejaVuSans-35" x="63.623047"/>
      </g>
     </g>
    </g>
    <g id="xtick_4">
     <g id="line2d_4">
      <g>
       <use xlink:href="#md5d04c8bbe" x="337.720105" y="307.584" style="stroke: #000000; stroke-width: 0.8"/>
      </g>
     </g>
     <g id="text_4">
      <!-- 20 -->
      <g transform="translate(331.357605 322.182437) scale(0.1 -0.1)">
       <defs>
        <path id="DejaVuSans-32" d="M 1228 531 
L 3431 531 
L 3431 0 
L 469 0 
L 469 531 
Q 828 903 1448 1529 
Q 2069 2156 2228 2338 
Q 2531 2678 2651 2914 
Q 2772 3150 2772 3378 
Q 2772 3750 2511 3984 
Q 2250 4219 1831 4219 
Q 1534 4219 1204 4116 
Q 875 4013 500 3803 
L 500 4441 
Q 881 4594 1212 4672 
Q 1544 4750 1819 4750 
Q 2544 4750 2975 4387 
Q 3406 4025 3406 3419 
Q 3406 3131 3298 2873 
Q 3191 2616 2906 2266 
Q 2828 2175 2409 1742 
Q 1991 1309 1228 531 
z
" transform="scale(0.015625)"/>
       </defs>
       <use xlink:href="#DejaVuSans-32"/>
       <use xlink:href="#DejaVuSans-30" x="63.623047"/>
      </g>
     </g>
    </g>
    <g id="xtick_5">
     <g id="line2d_5">
      <g>
       <use xlink:href="#md5d04c8bbe" x="411.025413" y="307.584" style="stroke: #000000; stroke-width: 0.8"/>
      </g>
     </g>
     <g id="text_5">
      <!-- 25 -->
      <g transform="translate(404.662913 322.182437) scale(0.1 -0.1)">
       <use xlink:href="#DejaVuSans-32"/>
       <use xlink:href="#DejaVuSans-35" x="63.623047"/>
      </g>
     </g>
    </g>
    <g id="text_6">
     <!-- GHG Emissions -->
     <g transform="translate(198.212344 335.860562) scale(0.1 -0.1)">
      <defs>
       <path id="DejaVuSans-47" d="M 3809 666 
L 3809 1919 
L 2778 1919 
L 2778 2438 
L 4434 2438 
L 4434 434 
Q 4069 175 3628 42 
Q 3188 -91 2688 -91 
Q 1594 -91 976 548 
Q 359 1188 359 2328 
Q 359 3472 976 4111 
Q 1594 4750 2688 4750 
Q 3144 4750 3555 4637 
Q 3966 4525 4313 4306 
L 4313 3634 
Q 3963 3931 3569 4081 
Q 3175 4231 2741 4231 
Q 1884 4231 1454 3753 
Q 1025 3275 1025 2328 
Q 1025 1384 1454 906 
Q 1884 428 2741 428 
Q 3075 428 3337 486 
Q 3600 544 3809 666 
z
" transform="scale(0.015625)"/>
       <path id="DejaVuSans-48" d="M 628 4666 
L 1259 4666 
L 1259 2753 
L 3553 2753 
L 3553 4666 
L 4184 4666 
L 4184 0 
L 3553 0 
L 3553 2222 
L 1259 2222 
L 1259 0 
L 628 0 
L 628 4666 
z
" transform="scale(0.015625)"/>
       <path id="DejaVuSans-20" transform="scale(0.015625)"/>
       <path id="DejaVuSans-45" d="M 628 4666 
L 3578 4666 
L 3578 4134 
L 1259 4134 
L 1259 2753 
L 3481 2753 
L 3481 2222 
L 1259 2222 
L 1259 531 
L 3634 531 
L 3634 0 
L 628 0 
L 628 4666 
z
" transform="scale(0.015625)"/>
       <path id="DejaVuSans-6d" d="M 3328 2828 
Q 3544 3216 3844 3400 
Q 4144 3584 4550 3584 
Q 5097 3584 5394 3201 
Q 5691 2819 5691 2113 
L 5691 0 
L 5113 0 
L 5113 2094 
Q 5113 2597 4934 2840 
Q 4756 3084 4391 3084 
Q 3944 3084 3684 2787 
Q 3425 2491 3425 1978 
L 3425 0 
L 2847 0 
L 2847 2094 
Q 2847 2600 2669 2842 
Q 2491 3084 2119 3084 
Q 1678 3084 1418 2786 
Q 1159 2488 1159 1978 
L 1159 0 
L 581 0 
L 581 3500 
L 1159 3500 
L 1159 2956 
Q 1356 3278 1631 3431 
Q 1906 3584 2284 3584 
Q 2666 3584 2933 3390 
Q 3200 3197 3328 2828 
z
" transform="scale(0.015625)"/>
       <path id="DejaVuSans-69" d="M 603 3500 
L 1178 3500 
L 1178 0 
L 603 0 
L 603 3500 
z
M 603 4863 
L 1178 4863 
L 1178 4134 
L 603 4134 
L 603 4863 
z
" transform="scale(0.015625)"/>
       <path id="DejaVuSans-73" d="M 2834 3397 
L 2834 2853 
Q 2591 2978 2328 3040 
Q 2066 3103 1784 3103 
Q 1356 3103 1142 2972 
Q 928 2841 928 2578 
Q 928 2378 1081 2264 
Q 1234 2150 1697 2047 
L 1894 2003 
Q 2506 1872 2764 1633 
Q 3022 1394 3022 966 
Q 3022 478 2636 193 
Q 2250 -91 1575 -91 
Q 1294 -91 989 -36 
Q 684 19 347 128 
L 347 722 
Q 666 556 975 473 
Q 1284 391 1588 391 
Q 1994 391 2212 530 
Q 2431 669 2431 922 
Q 2431 1156 2273 1281 
Q 2116 1406 1581 1522 
L 1381 1569 
Q 847 1681 609 1914 
Q 372 2147 372 2553 
Q 372 3047 722 3315 
Q 1072 3584 1716 3584 
Q 2034 3584 2315 3537 
Q 2597 3491 2834 3397 
z
" transform="scale(0.015625)"/>
       <path id="DejaVuSans-6f" d="M 1959 3097 
Q 1497 3097 1228 2736 
Q 959 2375 959 1747 
Q 959 1119 1226 758 
Q 1494 397 1959 397 
Q 2419 397 2687 759 
Q 2956 1122 2956 1747 
Q 2956 2369 2687 2733 
Q 2419 3097 1959 3097 
z
M 1959 3584 
Q 2709 3584 3137 3096 
Q 3566 2609 3566 1747 
Q 3566 888 3137 398 
Q 2709 -91 1959 -91 
Q 1206 -91 779 398 
Q 353 888 353 1747 
Q 353 2609 779 3096 
Q 1206 3584 1959 3584 
z
" transform="scale(0.015625)"/>
       <path id="DejaVuSans-6e" d="M 3513 2113 
L 3513 0 
L 2938 0 
L 2938 2094 
Q 2938 2591 2744 2837 
Q 2550 3084 2163 3084 
Q 1697 3084 1428 2787 
Q 1159 2491 1159 1978 
L 1159 0 
L 581 0 
L 581 3500 
L 1159 3500 
L 1159 2956 
Q 1366 3272 1645 3428 
Q 1925 3584 2291 3584 
Q 2894 3584 3203 3211 
Q 3513 2838 3513 2113 
z
" transform="scale(0.015625)"/>
      </defs>
      <use xlink:href="#DejaVuSans-47"/>
      <use xlink:href="#DejaVuSans-48" x="77.490234"/>
      <use xlink:href="#DejaVuSans-47" x="152.685547"/>
      <use xlink:href="#DejaVuSans-20" x="230.175781"/>
      <use xlink:href="#DejaVuSans-45" x="261.962891"/>
      <use xlink:href="#DejaVuSans-6d" x="325.146484"/>
      <use xlink:href="#DejaVuSans-69" x="422.558594"/>
      <use xlink:href="#DejaVuSans-73" x="450.341797"/>
      <use xlink:href="#DejaVuSans-73" x="502.441406"/>
      <use xlink:href="#DejaVuSans-69" x="554.541016"/>
      <use xlink:href="#DejaVuSans-6f" x="582.324219"/>
      <use xlink:href="#DejaVuSans-6e" x="643.505859"/>
      <use xlink:href="#DejaVuSans-73" x="706.884766"/>
     </g>
    </g>
   </g>
   <g id="matplotlib.axis_2">
    <g id="ytick_1">
     <g id="line2d_6">
      <defs>
       <path id="md039a319ef" d="M 0 0 
L -3.5 0 
" style="stroke: #000000; stroke-width: 0.8"/>
      </defs>
      <g>
       <use xlink:href="#md039a319ef" x="57.6" y="288.91184" style="stroke: #000000; stroke-width: 0.8"/>
      </g>
     </g>
     <g id="text_7">
      <!-- 5 -->
      <g transform="translate(44.2375 292.711059) scale(0.1 -0.1)">
       <use xlink:href="#DejaVuSans-35"/>
      </g>
     </g>
    </g>
    <g id="ytick_2">
     <g id="line2d_7">
      <g>
       <use xlink:href="#md039a319ef" x="57.6" y="258.745247" style="stroke: #000000; stroke-width: 0.8"/>
      </g>
     </g>
     <g id="text_8">
      <!-- 10 -->
      <g transform="translate(37.875 262.544466) scale(0.1 -0.1)">
       <use xlink:href="#DejaVuSans-31"/>
       <use xlink:href="#DejaVuSans-30" x="63.623047"/>
      </g>
     </g>
    </g>
    <g id="ytick_3">
     <g id="line2d_8">
      <g>
       <use xlink:href="#md039a319ef" x="57.6" y="228.578654" style="stroke: #000000; stroke-width: 0.8"/>
      </g>
     </g>
     <g id="text_9">
      <!-- 15 -->
      <g transform="translate(37.875 232.377872) scale(0.1 -0.1)">
       <use xlink:href="#DejaVuSans-31"/>
       <use xlink:href="#DejaVuSans-35" x="63.623047"/>
      </g>
     </g>
    </g>
    <g id="ytick_4">
     <g id="line2d_9">
      <g>
       <use xlink:href="#md039a319ef" x="57.6" y="198.41206" style="stroke: #000000; stroke-width: 0.8"/>
      </g>
     </g>
     <g id="text_10">
      <!-- 20 -->
      <g transform="translate(37.875 202.211279) scale(0.1 -0.1)">
       <use xlink:href="#DejaVuSans-32"/>
       <use xlink:href="#DejaVuSans-30" x="63.623047"/>
      </g>
     </g>
    </g>
    <g id="ytick_5">
     <g id="line2d_10">
      <g>
       <use xlink:href="#md039a319ef" x="57.6" y="168.245467" style="stroke: #000000; stroke-width: 0.8"/>
      </g>
     </g>
     <g id="text_11">
      <!-- 25 -->
      <g transform="translate(37.875 172.044686) scale(0.1 -0.1)">
       <use xlink:href="#DejaVuSans-32"/>
       <use xlink:href="#DejaVuSans-35" x="63.623047"/>
      </g>
     </g>
    </g>
    <g id="ytick_6">
     <g id="line2d_11">
      <g>
       <use xlink:href="#md039a319ef" x="57.6" y="138.078874" style="stroke: #000000; stroke-width: 0.8"/>
      </g>
     </g>
     <g id="text_12">
      <!-- 30 -->
      <g transform="translate(37.875 141.878092) scale(0.1 -0.1)">
       <defs>
        <path id="DejaVuSans-33" d="M 2597 2516 
Q 3050 2419 3304 2112 
Q 3559 1806 3559 1356 
Q 3559 666 3084 287 
Q 2609 -91 1734 -91 
Q 1441 -91 1130 -33 
Q 819 25 488 141 
L 488 750 
Q 750 597 1062 519 
Q 1375 441 1716 441 
Q 2309 441 2620 675 
Q 2931 909 2931 1356 
Q 2931 1769 2642 2001 
Q 2353 2234 1838 2234 
L 1294 2234 
L 1294 2753 
L 1863 2753 
Q 2328 2753 2575 2939 
Q 2822 3125 2822 3475 
Q 2822 3834 2567 4026 
Q 2313 4219 1838 4219 
Q 1578 4219 1281 4162 
Q 984 4106 628 3988 
L 628 4550 
Q 988 4650 1302 4700 
Q 1616 4750 1894 4750 
Q 2613 4750 3031 4423 
Q 3450 4097 3450 3541 
Q 3450 3153 3228 2886 
Q 3006 2619 2597 2516 
z
" transform="scale(0.015625)"/>
       </defs>
       <use xlink:href="#DejaVuSans-33"/>
       <use xlink:href="#DejaVuSans-30" x="63.623047"/>
      </g>
     </g>
    </g>
    <g id="ytick_7">
     <g id="line2d_12">
      <g>
       <use xlink:href="#md039a319ef" x="57.6" y="107.91228" style="stroke: #000000; stroke-width: 0.8"/>
      </g>
     </g>
     <g id="text_13">
      <!-- 35 -->
      <g transform="translate(37.875 111.711499) scale(0.1 -0.1)">
       <use xlink:href="#DejaVuSans-33"/>
       <use xlink:href="#DejaVuSans-35" x="63.623047"/>
      </g>
     </g>
    </g>
    <g id="ytick_8">
     <g id="line2d_13">
      <g>
       <use xlink:href="#md039a319ef" x="57.6" y="77.745687" style="stroke: #000000; stroke-width: 0.8"/>
      </g>
     </g>
     <g id="text_14">
      <!-- 40 -->
      <g transform="translate(37.875 81.544906) scale(0.1 -0.1)">
       <defs>
        <path id="DejaVuSans-34" d="M 2419 4116 
L 825 1625 
L 2419 1625 
L 2419 4116 
z
M 2253 4666 
L 3047 4666 
L 3047 1625 
L 3713 1625 
L 3713 1100 
L 3047 1100 
L 3047 0 
L 2419 0 
L 2419 1100 
L 313 1100 
L 313 1709 
L 2253 4666 
z
" transform="scale(0.015625)"/>
       </defs>
       <use xlink:href="#DejaVuSans-34"/>
       <use xlink:href="#DejaVuSans-30" x="63.623047"/>
      </g>
     </g>
    </g>
    <g id="ytick_9">
     <g id="line2d_14">
      <g>
       <use xlink:href="#md039a319ef" x="57.6" y="47.579094" style="stroke: #000000; stroke-width: 0.8"/>
      </g>
     </g>
     <g id="text_15">
      <!-- 45 -->
      <g transform="translate(37.875 51.378312) scale(0.1 -0.1)">
       <use xlink:href="#DejaVuSans-34"/>
       <use xlink:href="#DejaVuSans-35" x="63.623047"/>
      </g>
     </g>
    </g>
    <g id="text_16">
     <!-- Fish &amp; Seafood Consumption -->
     <g transform="translate(31.795312 246.353) rotate(-90) scale(0.1 -0.1)">
      <defs>
       <path id="DejaVuSans-46" d="M 628 4666 
L 3309 4666 
L 3309 4134 
L 1259 4134 
L 1259 2759 
L 3109 2759 
L 3109 2228 
L 1259 2228 
L 1259 0 
L 628 0 
L 628 4666 
z
" transform="scale(0.015625)"/>
       <path id="DejaVuSans-68" d="M 3513 2113 
L 3513 0 
L 2938 0 
L 2938 2094 
Q 2938 2591 2744 2837 
Q 2550 3084 2163 3084 
Q 1697 3084 1428 2787 
Q 1159 2491 1159 1978 
L 1159 0 
L 581 0 
L 581 4863 
L 1159 4863 
L 1159 2956 
Q 1366 3272 1645 3428 
Q 1925 3584 2291 3584 
Q 2894 3584 3203 3211 
Q 3513 2838 3513 2113 
z
" transform="scale(0.015625)"/>
       <path id="DejaVuSans-26" d="M 1556 2509 
Q 1272 2256 1139 2004 
Q 1006 1753 1006 1478 
Q 1006 1022 1337 719 
Q 1669 416 2169 416 
Q 2466 416 2725 514 
Q 2984 613 3213 813 
L 1556 2509 
z
M 1997 2859 
L 3584 1234 
Q 3769 1513 3872 1830 
Q 3975 2147 3994 2503 
L 4575 2503 
Q 4538 2091 4375 1687 
Q 4213 1284 3922 891 
L 4794 0 
L 4006 0 
L 3559 459 
Q 3234 181 2878 45 
Q 2522 -91 2113 -91 
Q 1359 -91 881 339 
Q 403 769 403 1441 
Q 403 1841 612 2192 
Q 822 2544 1241 2853 
Q 1091 3050 1012 3245 
Q 934 3441 934 3628 
Q 934 4134 1281 4442 
Q 1628 4750 2203 4750 
Q 2463 4750 2720 4694 
Q 2978 4638 3244 4525 
L 3244 3956 
Q 2972 4103 2725 4179 
Q 2478 4256 2266 4256 
Q 1938 4256 1733 4082 
Q 1528 3909 1528 3634 
Q 1528 3475 1620 3314 
Q 1713 3153 1997 2859 
z
" transform="scale(0.015625)"/>
       <path id="DejaVuSans-53" d="M 3425 4513 
L 3425 3897 
Q 3066 4069 2747 4153 
Q 2428 4238 2131 4238 
Q 1616 4238 1336 4038 
Q 1056 3838 1056 3469 
Q 1056 3159 1242 3001 
Q 1428 2844 1947 2747 
L 2328 2669 
Q 3034 2534 3370 2195 
Q 3706 1856 3706 1288 
Q 3706 609 3251 259 
Q 2797 -91 1919 -91 
Q 1588 -91 1214 -16 
Q 841 59 441 206 
L 441 856 
Q 825 641 1194 531 
Q 1563 422 1919 422 
Q 2459 422 2753 634 
Q 3047 847 3047 1241 
Q 3047 1584 2836 1778 
Q 2625 1972 2144 2069 
L 1759 2144 
Q 1053 2284 737 2584 
Q 422 2884 422 3419 
Q 422 4038 858 4394 
Q 1294 4750 2059 4750 
Q 2388 4750 2728 4690 
Q 3069 4631 3425 4513 
z
" transform="scale(0.015625)"/>
       <path id="DejaVuSans-65" d="M 3597 1894 
L 3597 1613 
L 953 1613 
Q 991 1019 1311 708 
Q 1631 397 2203 397 
Q 2534 397 2845 478 
Q 3156 559 3463 722 
L 3463 178 
Q 3153 47 2828 -22 
Q 2503 -91 2169 -91 
Q 1331 -91 842 396 
Q 353 884 353 1716 
Q 353 2575 817 3079 
Q 1281 3584 2069 3584 
Q 2775 3584 3186 3129 
Q 3597 2675 3597 1894 
z
M 3022 2063 
Q 3016 2534 2758 2815 
Q 2500 3097 2075 3097 
Q 1594 3097 1305 2825 
Q 1016 2553 972 2059 
L 3022 2063 
z
" transform="scale(0.015625)"/>
       <path id="DejaVuSans-61" d="M 2194 1759 
Q 1497 1759 1228 1600 
Q 959 1441 959 1056 
Q 959 750 1161 570 
Q 1363 391 1709 391 
Q 2188 391 2477 730 
Q 2766 1069 2766 1631 
L 2766 1759 
L 2194 1759 
z
M 3341 1997 
L 3341 0 
L 2766 0 
L 2766 531 
Q 2569 213 2275 61 
Q 1981 -91 1556 -91 
Q 1019 -91 701 211 
Q 384 513 384 1019 
Q 384 1609 779 1909 
Q 1175 2209 1959 2209 
L 2766 2209 
L 2766 2266 
Q 2766 2663 2505 2880 
Q 2244 3097 1772 3097 
Q 1472 3097 1187 3025 
Q 903 2953 641 2809 
L 641 3341 
Q 956 3463 1253 3523 
Q 1550 3584 1831 3584 
Q 2591 3584 2966 3190 
Q 3341 2797 3341 1997 
z
" transform="scale(0.015625)"/>
       <path id="DejaVuSans-66" d="M 2375 4863 
L 2375 4384 
L 1825 4384 
Q 1516 4384 1395 4259 
Q 1275 4134 1275 3809 
L 1275 3500 
L 2222 3500 
L 2222 3053 
L 1275 3053 
L 1275 0 
L 697 0 
L 697 3053 
L 147 3053 
L 147 3500 
L 697 3500 
L 697 3744 
Q 697 4328 969 4595 
Q 1241 4863 1831 4863 
L 2375 4863 
z
" transform="scale(0.015625)"/>
       <path id="DejaVuSans-64" d="M 2906 2969 
L 2906 4863 
L 3481 4863 
L 3481 0 
L 2906 0 
L 2906 525 
Q 2725 213 2448 61 
Q 2172 -91 1784 -91 
Q 1150 -91 751 415 
Q 353 922 353 1747 
Q 353 2572 751 3078 
Q 1150 3584 1784 3584 
Q 2172 3584 2448 3432 
Q 2725 3281 2906 2969 
z
M 947 1747 
Q 947 1113 1208 752 
Q 1469 391 1925 391 
Q 2381 391 2643 752 
Q 2906 1113 2906 1747 
Q 2906 2381 2643 2742 
Q 2381 3103 1925 3103 
Q 1469 3103 1208 2742 
Q 947 2381 947 1747 
z
" transform="scale(0.015625)"/>
       <path id="DejaVuSans-43" d="M 4122 4306 
L 4122 3641 
Q 3803 3938 3442 4084 
Q 3081 4231 2675 4231 
Q 1875 4231 1450 3742 
Q 1025 3253 1025 2328 
Q 1025 1406 1450 917 
Q 1875 428 2675 428 
Q 3081 428 3442 575 
Q 3803 722 4122 1019 
L 4122 359 
Q 3791 134 3420 21 
Q 3050 -91 2638 -91 
Q 1578 -91 968 557 
Q 359 1206 359 2328 
Q 359 3453 968 4101 
Q 1578 4750 2638 4750 
Q 3056 4750 3426 4639 
Q 3797 4528 4122 4306 
z
" transform="scale(0.015625)"/>
       <path id="DejaVuSans-75" d="M 544 1381 
L 544 3500 
L 1119 3500 
L 1119 1403 
Q 1119 906 1312 657 
Q 1506 409 1894 409 
Q 2359 409 2629 706 
Q 2900 1003 2900 1516 
L 2900 3500 
L 3475 3500 
L 3475 0 
L 2900 0 
L 2900 538 
Q 2691 219 2414 64 
Q 2138 -91 1772 -91 
Q 1169 -91 856 284 
Q 544 659 544 1381 
z
M 1991 3584 
L 1991 3584 
z
" transform="scale(0.015625)"/>
       <path id="DejaVuSans-70" d="M 1159 525 
L 1159 -1331 
L 581 -1331 
L 581 3500 
L 1159 3500 
L 1159 2969 
Q 1341 3281 1617 3432 
Q 1894 3584 2278 3584 
Q 2916 3584 3314 3078 
Q 3713 2572 3713 1747 
Q 3713 922 3314 415 
Q 2916 -91 2278 -91 
Q 1894 -91 1617 61 
Q 1341 213 1159 525 
z
M 3116 1747 
Q 3116 2381 2855 2742 
Q 2594 3103 2138 3103 
Q 1681 3103 1420 2742 
Q 1159 2381 1159 1747 
Q 1159 1113 1420 752 
Q 1681 391 2138 391 
Q 2594 391 2855 752 
Q 3116 1113 3116 1747 
z
" transform="scale(0.015625)"/>
       <path id="DejaVuSans-74" d="M 1172 4494 
L 1172 3500 
L 2356 3500 
L 2356 3053 
L 1172 3053 
L 1172 1153 
Q 1172 725 1289 603 
Q 1406 481 1766 481 
L 2356 481 
L 2356 0 
L 1766 0 
Q 1100 0 847 248 
Q 594 497 594 1153 
L 594 3053 
L 172 3053 
L 172 3500 
L 594 3500 
L 594 4494 
L 1172 4494 
z
" transform="scale(0.015625)"/>
      </defs>
      <use xlink:href="#DejaVuSans-46"/>
      <use xlink:href="#DejaVuSans-69" x="50.269531"/>
      <use xlink:href="#DejaVuSans-73" x="78.052734"/>
      <use xlink:href="#DejaVuSans-68" x="130.152344"/>
      <use xlink:href="#DejaVuSans-20" x="193.53125"/>
      <use xlink:href="#DejaVuSans-26" x="225.318359"/>
      <use xlink:href="#DejaVuSans-20" x="303.296875"/>
      <use xlink:href="#DejaVuSans-53" x="335.083984"/>
      <use xlink:href="#DejaVuSans-65" x="398.560547"/>
      <use xlink:href="#DejaVuSans-61" x="460.083984"/>
      <use xlink:href="#DejaVuSans-66" x="521.363281"/>
      <use xlink:href="#DejaVuSans-6f" x="556.568359"/>
      <use xlink:href="#DejaVuSans-6f" x="617.75"/>
      <use xlink:href="#DejaVuSans-64" x="678.931641"/>
      <use xlink:href="#DejaVuSans-20" x="742.408203"/>
      <use xlink:href="#DejaVuSans-43" x="774.195312"/>
      <use xlink:href="#DejaVuSans-6f" x="844.019531"/>
      <use xlink:href="#DejaVuSans-6e" x="905.201172"/>
      <use xlink:href="#DejaVuSans-73" x="968.580078"/>
      <use xlink:href="#DejaVuSans-75" x="1020.679688"/>
      <use xlink:href="#DejaVuSans-6d" x="1084.058594"/>
      <use xlink:href="#DejaVuSans-70" x="1181.470703"/>
      <use xlink:href="#DejaVuSans-74" x="1244.947266"/>
      <use xlink:href="#DejaVuSans-69" x="1284.15625"/>
      <use xlink:href="#DejaVuSans-6f" x="1311.939453"/>
      <use xlink:href="#DejaVuSans-6e" x="1373.121094"/>
     </g>
    </g>
   </g>
   <g id="PathCollection_8"/>
   <g id="PathCollection_9">
    <path d="M 128.495457 41.472 
L 128.495457 44.16 
L 128.495457 46.848 
L 128.495457 49.536 
L 128.495457 52.224 
L 128.495457 54.912 
L 128.495457 57.6 
L 128.495457 60.288 
L 128.495457 62.976 
L 128.495457 65.664 
L 128.495457 68.352 
L 128.495457 71.04 
L 128.495457 73.728 
L 128.495457 74.589 
" clip-path="url(#p1557d664d3)" style="fill: none; stroke: #000000; stroke-width: 0.5"/>
    <path d="M 128.495457 110.499 
L 128.495457 111.36 
L 128.495457 114.048 
L 128.495457 116.736 
L 128.495457 119.424 
L 128.495457 122.112 
L 128.495457 124.8 
L 128.495457 127.488 
L 128.495457 130.176 
L 128.495457 132.864 
L 128.495457 135.552 
L 128.495457 138.24 
L 128.495457 140.928 
L 128.495457 143.616 
L 128.495457 146.304 
L 128.495457 148.992 
L 128.495457 151.68 
L 128.495457 154.368 
L 128.495457 157.056 
L 128.495457 159.744 
L 128.495457 162.432 
L 128.495457 165.12 
L 128.495457 167.808 
L 128.495457 170.496 
L 128.495457 173.184 
L 128.495457 175.872 
L 127.893334 178.56 
L 127.893334 181.248 
L 127.893334 183.936 
L 127.893334 186.624 
L 127.893334 189.312 
L 127.893334 192 
L 127.893334 194.688 
L 127.893334 197.376 
L 127.893334 200.064 
L 127.893334 202.752 
L 127.893334 205.44 
L 127.893334 208.128 
L 127.893334 210.816 
L 127.893334 213.504 
L 127.893334 216.192 
L 127.893334 218.88 
L 127.893334 221.568 
L 127.893334 224.256 
L 127.893334 226.944 
L 127.893334 229.632 
L 127.893334 232.32 
L 127.893334 235.008 
L 127.893334 237.696 
L 127.893334 240.384 
L 127.893334 243.072 
L 127.893334 245.76 
L 127.893334 248.448 
L 127.893334 251.136 
L 127.893334 253.824 
L 127.893334 256.512 
L 127.893334 259.2 
L 127.893334 261.888 
L 127.893334 264.576 
L 127.893334 267.264 
L 127.893334 269.952 
L 127.893334 272.64 
L 127.893334 275.328 
L 127.893334 278.016 
L 127.893334 280.704 
L 127.893334 283.392 
L 127.893334 286.08 
L 127.893334 288.768 
L 127.893334 291.456 
L 127.893334 294.144 
L 127.893334 296.832 
L 127.893334 299.52 
L 127.893334 302.208 
L 127.893334 304.896 
L 127.893334 307.584 
" clip-path="url(#p1557d664d3)" style="fill: none; stroke: #000000; stroke-width: 0.5"/>
   </g>
   <g id="PathCollection_10">
    <path d="M 141.69768 41.472 
L 141.69768 44.16 
L 141.69768 46.848 
L 141.69768 49.536 
L 141.69768 52.224 
L 141.69768 54.912 
L 141.69768 57.6 
L 141.69768 60.288 
L 141.69768 62.976 
L 141.69768 65.664 
L 141.69768 68.352 
L 141.69768 71.04 
L 141.69768 73.728 
L 141.69768 76.416 
L 141.69768 79.104 
L 141.69768 81.792 
L 141.69768 84.48 
L 141.69768 87.168 
L 141.69768 89.856 
L 141.69768 92.544 
L 141.69768 95.232 
L 141.69768 97.92 
L 141.69768 100.608 
L 141.69768 103.296 
L 141.69768 105.984 
L 141.69768 108.672 
L 141.69768 111.36 
L 141.69768 114.048 
L 141.69768 116.736 
L 141.69768 119.424 
L 141.69768 122.112 
L 141.69768 124.8 
L 141.69768 127.488 
L 141.69768 130.176 
L 141.69768 132.864 
L 141.69768 135.552 
L 141.69768 138.24 
L 141.69768 140.928 
L 141.69768 143.616 
L 141.69768 146.304 
L 141.69768 148.992 
L 141.69768 151.68 
L 141.69768 154.368 
L 141.69768 157.056 
L 141.69768 159.744 
L 141.69768 162.432 
L 141.69768 165.12 
L 141.69768 167.808 
L 141.69768 170.496 
L 141.69768 173.184 
L 141.69768 175.872 
L 140.828042 178.56 
L 140.828042 181.248 
L 140.828042 183.936 
L 140.828042 186.624 
L 140.828042 189.312 
L 140.828042 192 
L 140.828042 194.688 
L 140.828042 197.376 
L 140.828042 200.064 
L 140.828042 202.752 
L 140.828042 205.44 
L 140.828042 208.128 
L 140.828042 210.816 
L 140.828042 213.504 
L 140.828042 216.192 
L 140.828042 218.88 
L 140.828042 221.568 
L 140.828042 224.256 
L 140.828042 226.944 
L 140.828042 229.632 
L 140.828042 232.32 
L 140.828042 235.008 
L 140.828042 237.696 
L 140.828042 240.384 
L 140.828042 243.072 
L 140.828042 245.76 
L 140.828042 248.448 
L 140.828042 251.136 
L 140.828042 253.824 
L 140.828042 256.512 
L 140.828042 259.2 
L 140.828042 261.888 
L 140.828042 264.576 
L 140.828042 267.264 
L 140.828042 269.952 
L 140.828042 272.64 
L 140.828042 275.328 
L 140.828042 278.016 
L 140.828042 280.704 
L 140.828042 283.392 
L 140.828042 284.253 
" clip-path="url(#p1557d664d3)" style="fill: none; stroke: #000000; stroke-width: 0.5"/>
   </g>
   <g id="PathCollection_11">
    <path d="M 148.717539 41.472 
L 148.717539 44.16 
L 148.717539 46.848 
L 148.717539 49.536 
L 148.717539 52.224 
L 148.717539 54.912 
L 148.717539 57.6 
L 148.717539 60.288 
L 148.717539 62.976 
L 148.717539 65.664 
L 148.717539 68.352 
L 148.717539 71.04 
L 148.717539 73.728 
L 148.717539 76.416 
L 148.717539 79.104 
L 148.717539 81.792 
L 148.717539 84.48 
L 148.717539 87.168 
L 148.717539 89.856 
L 148.717539 92.544 
L 148.717539 95.232 
L 148.717539 97.92 
L 148.717539 100.608 
L 148.717539 103.296 
L 148.717539 105.984 
L 148.717539 108.672 
L 148.717539 111.36 
L 148.717539 114.048 
L 148.717539 116.736 
L 148.717539 119.424 
L 148.717539 122.112 
L 148.717539 124.8 
L 148.717539 127.488 
L 148.717539 130.176 
L 148.717539 132.864 
L 148.717539 135.552 
L 148.717539 138.24 
L 148.717539 140.928 
L 148.717539 143.616 
L 148.717539 146.304 
L 148.717539 148.992 
L 148.717539 151.68 
L 148.717539 154.368 
L 148.717539 157.056 
L 148.717539 159.744 
L 148.717539 162.432 
L 148.717539 165.12 
L 148.717539 167.808 
L 148.717539 170.496 
L 148.717539 173.184 
L 148.717539 175.872 
L 148.39418 178.56 
L 148.39418 179.421 
" clip-path="url(#p1557d664d3)" style="fill: none; stroke: #000000; stroke-width: 0.5"/>
    <path d="M 148.39418 215.331 
L 148.39418 216.192 
L 148.39418 218.88 
L 148.39418 221.568 
L 148.39418 224.256 
L 148.39418 226.944 
L 148.39418 229.632 
L 148.39418 232.32 
L 148.39418 235.008 
L 148.39418 237.696 
L 148.39418 240.384 
L 148.39418 243.072 
L 148.39418 245.76 
L 148.39418 248.448 
L 148.39418 251.136 
L 148.39418 253.824 
L 148.39418 256.512 
L 148.39418 259.2 
L 148.39418 261.888 
L 148.39418 264.576 
L 148.39418 267.264 
L 148.39418 269.952 
L 148.39418 272.64 
L 148.39418 275.328 
L 148.39418 278.016 
L 148.39418 280.704 
L 148.39418 283.392 
L 148.39418 286.08 
L 148.39418 288.768 
L 148.39418 291.456 
L 148.39418 294.144 
L 148.39418 296.832 
L 148.39418 299.52 
L 148.39418 302.208 
L 148.39418 304.896 
L 148.39418 307.584 
" clip-path="url(#p1557d664d3)" style="fill: none; stroke: #000000; stroke-width: 0.5"/>
   </g>
   <g id="PathCollection_12">
    <path d="M 150.574237 41.472 
L 150.574237 44.16 
L 150.574237 46.848 
L 150.574237 49.536 
L 150.574237 52.224 
L 150.574237 54.912 
L 150.574237 57.6 
L 150.574237 60.288 
L 150.574237 62.976 
L 150.574237 65.664 
L 150.574237 68.352 
L 150.574237 71.04 
L 150.574237 73.728 
L 150.574237 74.589 
" clip-path="url(#p1557d664d3)" style="fill: none; stroke: #000000; stroke-width: 0.5"/>
    <path d="M 150.574237 110.499 
L 150.574237 111.36 
L 150.574237 114.048 
L 150.574237 116.736 
L 150.574237 119.424 
L 150.574237 122.112 
L 150.574237 124.8 
L 150.574237 127.488 
L 150.574237 130.176 
L 150.574237 132.864 
L 150.574237 135.552 
L 150.574237 138.24 
L 150.574237 140.928 
L 150.574237 143.616 
L 150.574237 146.304 
L 150.574237 148.992 
L 150.574237 151.68 
L 150.574237 154.368 
L 150.574237 157.056 
L 150.574237 159.744 
L 150.574237 162.432 
L 150.574237 165.12 
L 150.574237 167.808 
L 150.574237 170.496 
L 150.574237 173.184 
L 150.574237 175.872 
L 150.250878 178.56 
L 150.250878 181.248 
L 150.250878 183.936 
L 150.250878 186.624 
L 150.250878 189.312 
L 150.250878 192 
L 150.250878 194.688 
L 150.250878 197.376 
L 150.250878 200.064 
L 150.250878 202.752 
L 150.250878 205.44 
L 150.250878 208.128 
L 150.250878 210.816 
L 150.250878 213.504 
L 150.250878 216.192 
L 150.250878 218.88 
L 150.250878 221.568 
L 150.250878 224.256 
L 150.250878 226.944 
L 150.250878 229.632 
L 150.250878 232.32 
L 150.250878 235.008 
L 150.250878 237.696 
L 150.250878 240.384 
L 150.250878 243.072 
L 150.250878 245.76 
L 150.250878 248.448 
L 150.250878 251.136 
L 150.250878 253.824 
L 150.250878 256.512 
L 150.250878 259.2 
L 150.250878 261.888 
L 150.250878 264.576 
L 150.250878 267.264 
L 150.250878 269.952 
L 150.250878 272.64 
L 150.250878 275.328 
L 150.250878 278.016 
L 150.250878 280.704 
L 150.250878 283.392 
L 150.250878 286.08 
L 150.250878 288.768 
L 150.250878 291.456 
L 150.250878 294.144 
L 150.250878 296.832 
L 150.250878 299.52 
L 150.250878 302.208 
L 150.250878 304.896 
L 150.250878 307.584 
" clip-path="url(#p1557d664d3)" style="fill: none; stroke: #000000; stroke-width: 0.5"/>
   </g>
   <g id="PathCollection_13">
    <path d="M 162.056237 41.472 
L 162.056237 44.16 
L 162.056237 46.848 
L 162.056237 49.536 
L 162.056237 52.224 
L 162.056237 54.912 
L 162.056237 57.6 
L 162.056237 60.288 
L 162.056237 62.976 
L 162.056237 65.664 
L 162.056237 68.352 
L 162.056237 71.04 
L 162.056237 73.728 
L 162.056237 74.589 
" clip-path="url(#p1557d664d3)" style="fill: none; stroke: #000000; stroke-width: 0.5"/>
    <path d="M 162.056237 110.499 
L 162.056237 111.36 
L 162.056237 114.048 
L 162.056237 116.736 
L 162.056237 119.424 
L 162.056237 122.112 
L 162.056237 124.8 
L 162.056237 127.488 
L 162.056237 130.176 
L 162.056237 132.864 
L 162.056237 135.552 
L 162.056237 138.24 
L 162.056237 140.928 
L 162.056237 143.616 
L 162.056237 146.304 
L 162.056237 148.992 
L 162.056237 151.68 
L 162.056237 154.368 
L 162.056237 157.056 
L 162.056237 159.744 
L 162.056237 162.432 
L 162.056237 165.12 
L 162.056237 167.808 
L 162.056237 170.496 
L 162.056237 173.184 
L 162.056237 175.872 
L 160.984647 178.56 
L 160.984647 181.248 
L 160.984647 183.936 
L 160.984647 186.624 
L 160.984647 189.312 
L 160.984647 192 
L 160.984647 194.688 
L 160.984647 197.376 
L 160.984647 200.064 
L 160.984647 202.752 
L 160.984647 205.44 
L 160.984647 208.128 
L 160.984647 210.816 
L 160.984647 213.504 
L 160.984647 216.192 
L 160.984647 218.88 
L 160.984647 221.568 
L 160.984647 224.256 
L 160.984647 226.944 
L 160.984647 229.632 
L 160.984647 232.32 
L 160.984647 235.008 
L 160.984647 237.696 
L 160.984647 240.384 
L 160.984647 243.072 
L 160.984647 245.76 
L 160.984647 248.448 
L 160.984647 251.136 
L 160.984647 253.824 
L 160.984647 256.512 
L 160.984647 259.2 
L 160.984647 261.888 
L 160.984647 264.576 
L 160.984647 267.264 
L 160.984647 269.952 
L 160.984647 272.64 
L 160.984647 275.328 
L 160.984647 278.016 
L 160.984647 280.704 
L 160.984647 283.392 
L 160.984647 286.08 
L 160.984647 288.768 
L 160.984647 291.456 
L 160.984647 294.144 
L 160.984647 296.832 
L 160.984647 299.52 
L 160.984647 302.208 
L 160.984647 304.896 
L 160.984647 307.584 
" clip-path="url(#p1557d664d3)" style="fill: none; stroke: #000000; stroke-width: 0.5"/>
   </g>
   <g id="PathCollection_14">
    <path d="M 226.564522 307.584 
L 226.564522 304.896 
L 226.564522 302.208 
L 226.564522 299.52 
L 226.564522 296.832 
L 226.564522 294.144 
L 226.564522 291.456 
L 226.564522 288.768 
L 226.564522 286.08 
L 226.564522 283.392 
L 226.564522 280.704 
L 226.564522 278.016 
L 226.564522 275.328 
L 226.564522 274.467 
" clip-path="url(#p1557d664d3)" style="fill: none; stroke: #000000; stroke-width: 0.5"/>
    <path d="M 226.564522 238.557 
L 226.564522 237.696 
L 226.564522 235.008 
L 226.564522 232.32 
L 226.564522 229.632 
L 226.564522 226.944 
L 226.564522 224.256 
L 226.564522 221.568 
L 226.564522 218.88 
L 226.564522 216.192 
L 226.564522 213.504 
L 226.564522 210.816 
L 226.564522 208.128 
L 226.564522 205.44 
L 226.564522 202.752 
L 226.564522 200.064 
L 226.564522 197.376 
L 226.564522 194.688 
L 226.564522 192 
L 226.564522 189.312 
L 226.564522 186.624 
L 226.564522 183.936 
L 226.564522 181.248 
L 226.564522 178.56 
L 225.790569 175.872 
L 225.790569 173.184 
L 225.790569 170.496 
L 225.790569 167.808 
L 225.790569 165.12 
L 225.790569 162.432 
L 225.790569 159.744 
L 225.790569 157.056 
L 225.790569 154.368 
L 225.790569 151.68 
L 225.790569 148.992 
L 225.790569 146.304 
L 225.790569 143.616 
L 225.790569 140.928 
L 225.790569 138.24 
L 225.790569 135.552 
L 225.790569 132.864 
L 225.790569 130.176 
L 225.790569 127.488 
L 225.790569 124.8 
L 225.790569 122.112 
L 225.790569 119.424 
L 225.790569 116.736 
L 225.790569 114.048 
L 225.790569 111.36 
L 225.790569 108.672 
L 225.790569 105.984 
L 225.790569 103.296 
L 225.790569 100.608 
L 225.790569 97.92 
L 225.790569 95.232 
L 225.790569 92.544 
L 225.790569 89.856 
L 225.790569 87.168 
L 225.790569 84.48 
L 225.790569 81.792 
L 225.790569 79.104 
L 225.790569 76.416 
L 225.790569 73.728 
L 225.790569 71.04 
L 225.790569 68.352 
L 225.790569 65.664 
L 225.790569 62.976 
L 225.790569 60.288 
L 225.790569 57.6 
L 225.790569 54.912 
L 225.790569 52.224 
L 225.790569 49.536 
L 225.790569 46.848 
L 225.790569 44.16 
L 225.790569 41.472 
" clip-path="url(#p1557d664d3)" style="fill: none; stroke: #000000; stroke-width: 0.5"/>
    <path d="M 176.087434 41.472 
L 176.087434 44.16 
L 176.087434 46.848 
L 176.087434 49.536 
L 176.087434 52.224 
L 176.087434 54.912 
L 176.087434 57.6 
L 176.087434 60.288 
L 176.087434 62.976 
L 176.087434 65.664 
L 176.087434 68.352 
L 176.087434 71.04 
L 176.087434 73.728 
L 176.087434 76.416 
L 176.087434 79.104 
L 176.087434 81.792 
L 176.087434 84.48 
L 176.087434 87.168 
L 176.087434 89.856 
L 176.087434 92.544 
L 176.087434 95.232 
L 176.087434 97.92 
L 176.087434 100.608 
L 176.087434 103.296 
L 176.087434 105.984 
L 176.087434 108.672 
L 176.087434 111.36 
L 176.087434 114.048 
L 176.087434 116.736 
L 176.087434 119.424 
L 176.087434 122.112 
L 176.087434 124.8 
L 176.087434 127.488 
L 176.087434 130.176 
L 176.087434 132.864 
L 176.087434 135.552 
L 176.087434 138.24 
L 176.087434 140.928 
L 176.087434 143.616 
L 176.087434 146.304 
L 176.087434 148.992 
L 176.087434 151.68 
L 176.087434 154.368 
L 176.087434 157.056 
L 176.087434 159.744 
L 176.087434 162.432 
L 176.087434 165.12 
L 176.087434 167.808 
L 176.087434 170.496 
L 176.087434 173.184 
L 176.087434 175.872 
L 175.369063 178.56 
L 175.369063 181.248 
L 175.369063 183.936 
L 175.369063 186.624 
L 175.369063 189.312 
L 175.369063 192 
L 175.369063 194.688 
L 175.369063 197.376 
L 175.369063 200.064 
L 175.369063 202.752 
L 175.369063 205.44 
L 175.369063 208.128 
L 175.369063 210.816 
L 175.369063 213.504 
L 175.369063 216.192 
L 175.369063 218.88 
L 175.369063 221.568 
L 175.369063 224.256 
L 175.369063 226.944 
L 175.369063 229.632 
L 175.369063 232.32 
L 175.369063 235.008 
L 175.369063 237.696 
L 175.369063 240.384 
L 175.369063 243.072 
L 175.369063 245.76 
L 175.369063 248.448 
L 175.369063 251.136 
L 175.369063 253.824 
L 175.369063 256.512 
L 175.369063 259.2 
L 175.369063 261.888 
L 175.369063 264.576 
L 175.369063 267.264 
L 175.369063 269.952 
L 175.369063 272.64 
L 175.369063 275.328 
L 175.369063 278.016 
L 175.369063 280.704 
L 175.369063 283.392 
L 175.369063 284.253 
" clip-path="url(#p1557d664d3)" style="fill: none; stroke: #000000; stroke-width: 0.5"/>
   </g>
   <g id="PathCollection_15"/>
   <g id="LineCollection_1">
    <path d="M 67.288029 307.584 
L 67.288029 294.2784 
" clip-path="url(#p1557d664d3)" style="fill: none; stroke: #000000; stroke-width: 1.5"/>
    <path d="M 78.078571 307.584 
L 78.078571 294.2784 
" clip-path="url(#p1557d664d3)" style="fill: none; stroke: #000000; stroke-width: 1.5"/>
    <path d="M 93.889059 307.584 
L 93.889059 294.2784 
" clip-path="url(#p1557d664d3)" style="fill: none; stroke: #000000; stroke-width: 1.5"/>
    <path d="M 108.995817 307.584 
L 108.995817 294.2784 
" clip-path="url(#p1557d664d3)" style="fill: none; stroke: #000000; stroke-width: 1.5"/>
    <path d="M 131.732191 307.584 
L 131.732191 294.2784 
" clip-path="url(#p1557d664d3)" style="fill: none; stroke: #000000; stroke-width: 1.5"/>
    <path d="M 156.761555 307.584 
L 156.761555 294.2784 
" clip-path="url(#p1557d664d3)" style="fill: none; stroke: #000000; stroke-width: 1.5"/>
    <path d="M 184.822827 307.584 
L 184.822827 294.2784 
" clip-path="url(#p1557d664d3)" style="fill: none; stroke: #000000; stroke-width: 1.5"/>
    <path d="M 230.928933 307.584 
L 230.928933 294.2784 
" clip-path="url(#p1557d664d3)" style="fill: none; stroke: #000000; stroke-width: 1.5"/>
    <path d="M 331.679748 307.584 
L 331.679748 294.2784 
" clip-path="url(#p1557d664d3)" style="fill: none; stroke: #000000; stroke-width: 1.5"/>
   </g>
   <g id="LineCollection_2">
    <path clip-path="url(#p1557d664d3)" style="fill: none; stroke: #000000; stroke-width: 1.5"/>
    <path clip-path="url(#p1557d664d3)" style="fill: none; stroke: #000000; stroke-width: 1.5"/>
    <path clip-path="url(#p1557d664d3)" style="fill: none; stroke: #000000; stroke-width: 1.5"/>
    <path clip-path="url(#p1557d664d3)" style="fill: none; stroke: #000000; stroke-width: 1.5"/>
    <path clip-path="url(#p1557d664d3)" style="fill: none; stroke: #000000; stroke-width: 1.5"/>
    <path clip-path="url(#p1557d664d3)" style="fill: none; stroke: #000000; stroke-width: 1.5"/>
    <path clip-path="url(#p1557d664d3)" style="fill: none; stroke: #000000; stroke-width: 1.5"/>
    <path clip-path="url(#p1557d664d3)" style="fill: none; stroke: #000000; stroke-width: 1.5"/>
    <path clip-path="url(#p1557d664d3)" style="fill: none; stroke: #000000; stroke-width: 1.5"/>
   </g>
   <g id="patch_3">
    <path d="M 57.6 307.584 
L 57.6 41.472 
" style="fill: none; stroke: #000000; stroke-width: 0.8; stroke-linejoin: miter; stroke-linecap: square"/>
   </g>
   <g id="patch_4">
    <path d="M 414.72 307.584 
L 414.72 41.472 
" style="fill: none; stroke: #000000; stroke-width: 0.8; stroke-linejoin: miter; stroke-linecap: square"/>
   </g>
   <g id="patch_5">
    <path d="M 57.6 307.584 
L 414.72 307.584 
" style="fill: none; stroke: #000000; stroke-width: 0.8; stroke-linejoin: miter; stroke-linecap: square"/>
   </g>
   <g id="patch_6">
    <path d="M 57.6 41.472 
L 414.72 41.472 
" style="fill: none; stroke: #000000; stroke-width: 0.8; stroke-linejoin: miter; stroke-linecap: square"/>
   </g>
   <g id="text_17">
    <!-- 2D-partial dependency plot between GHG and Fish -->
    <g transform="translate(83.687813 35.472) scale(0.12 -0.12)">
     <defs>
      <path id="DejaVuSans-44" d="M 1259 4147 
L 1259 519 
L 2022 519 
Q 2988 519 3436 956 
Q 3884 1394 3884 2338 
Q 3884 3275 3436 3711 
Q 2988 4147 2022 4147 
L 1259 4147 
z
M 628 4666 
L 1925 4666 
Q 3281 4666 3915 4102 
Q 4550 3538 4550 2338 
Q 4550 1131 3912 565 
Q 3275 0 1925 0 
L 628 0 
L 628 4666 
z
" transform="scale(0.015625)"/>
      <path id="DejaVuSans-2d" d="M 313 2009 
L 1997 2009 
L 1997 1497 
L 313 1497 
L 313 2009 
z
" transform="scale(0.015625)"/>
      <path id="DejaVuSans-72" d="M 2631 2963 
Q 2534 3019 2420 3045 
Q 2306 3072 2169 3072 
Q 1681 3072 1420 2755 
Q 1159 2438 1159 1844 
L 1159 0 
L 581 0 
L 581 3500 
L 1159 3500 
L 1159 2956 
Q 1341 3275 1631 3429 
Q 1922 3584 2338 3584 
Q 2397 3584 2469 3576 
Q 2541 3569 2628 3553 
L 2631 2963 
z
" transform="scale(0.015625)"/>
      <path id="DejaVuSans-6c" d="M 603 4863 
L 1178 4863 
L 1178 0 
L 603 0 
L 603 4863 
z
" transform="scale(0.015625)"/>
      <path id="DejaVuSans-63" d="M 3122 3366 
L 3122 2828 
Q 2878 2963 2633 3030 
Q 2388 3097 2138 3097 
Q 1578 3097 1268 2742 
Q 959 2388 959 1747 
Q 959 1106 1268 751 
Q 1578 397 2138 397 
Q 2388 397 2633 464 
Q 2878 531 3122 666 
L 3122 134 
Q 2881 22 2623 -34 
Q 2366 -91 2075 -91 
Q 1284 -91 818 406 
Q 353 903 353 1747 
Q 353 2603 823 3093 
Q 1294 3584 2113 3584 
Q 2378 3584 2631 3529 
Q 2884 3475 3122 3366 
z
" transform="scale(0.015625)"/>
      <path id="DejaVuSans-79" d="M 2059 -325 
Q 1816 -950 1584 -1140 
Q 1353 -1331 966 -1331 
L 506 -1331 
L 506 -850 
L 844 -850 
Q 1081 -850 1212 -737 
Q 1344 -625 1503 -206 
L 1606 56 
L 191 3500 
L 800 3500 
L 1894 763 
L 2988 3500 
L 3597 3500 
L 2059 -325 
z
" transform="scale(0.015625)"/>
      <path id="DejaVuSans-62" d="M 3116 1747 
Q 3116 2381 2855 2742 
Q 2594 3103 2138 3103 
Q 1681 3103 1420 2742 
Q 1159 2381 1159 1747 
Q 1159 1113 1420 752 
Q 1681 391 2138 391 
Q 2594 391 2855 752 
Q 3116 1113 3116 1747 
z
M 1159 2969 
Q 1341 3281 1617 3432 
Q 1894 3584 2278 3584 
Q 2916 3584 3314 3078 
Q 3713 2572 3713 1747 
Q 3713 922 3314 415 
Q 2916 -91 2278 -91 
Q 1894 -91 1617 61 
Q 1341 213 1159 525 
L 1159 0 
L 581 0 
L 581 4863 
L 1159 4863 
L 1159 2969 
z
" transform="scale(0.015625)"/>
      <path id="DejaVuSans-77" d="M 269 3500 
L 844 3500 
L 1563 769 
L 2278 3500 
L 2956 3500 
L 3675 769 
L 4391 3500 
L 4966 3500 
L 4050 0 
L 3372 0 
L 2619 2869 
L 1863 0 
L 1184 0 
L 269 3500 
z
" transform="scale(0.015625)"/>
     </defs>
     <use xlink:href="#DejaVuSans-32"/>
     <use xlink:href="#DejaVuSans-44" x="63.623047"/>
     <use xlink:href="#DejaVuSans-2d" x="140.625"/>
     <use xlink:href="#DejaVuSans-70" x="176.708984"/>
     <use xlink:href="#DejaVuSans-61" x="240.185547"/>
     <use xlink:href="#DejaVuSans-72" x="301.464844"/>
     <use xlink:href="#DejaVuSans-74" x="342.578125"/>
     <use xlink:href="#DejaVuSans-69" x="381.787109"/>
     <use xlink:href="#DejaVuSans-61" x="409.570312"/>
     <use xlink:href="#DejaVuSans-6c" x="470.849609"/>
     <use xlink:href="#DejaVuSans-20" x="498.632812"/>
     <use xlink:href="#DejaVuSans-64" x="530.419922"/>
     <use xlink:href="#DejaVuSans-65" x="593.896484"/>
     <use xlink:href="#DejaVuSans-70" x="655.419922"/>
     <use xlink:href="#DejaVuSans-65" x="718.896484"/>
     <use xlink:href="#DejaVuSans-6e" x="780.419922"/>
     <use xlink:href="#DejaVuSans-64" x="843.798828"/>
     <use xlink:href="#DejaVuSans-65" x="907.275391"/>
     <use xlink:href="#DejaVuSans-6e" x="968.798828"/>
     <use xlink:href="#DejaVuSans-63" x="1032.177734"/>
     <use xlink:href="#DejaVuSans-79" x="1087.158203"/>
     <use xlink:href="#DejaVuSans-20" x="1146.337891"/>
     <use xlink:href="#DejaVuSans-70" x="1178.125"/>
     <use xlink:href="#DejaVuSans-6c" x="1241.601562"/>
     <use xlink:href="#DejaVuSans-6f" x="1269.384766"/>
     <use xlink:href="#DejaVuSans-74" x="1330.566406"/>
     <use xlink:href="#DejaVuSans-20" x="1369.775391"/>
     <use xlink:href="#DejaVuSans-62" x="1401.5625"/>
     <use xlink:href="#DejaVuSans-65" x="1465.039062"/>
     <use xlink:href="#DejaVuSans-74" x="1526.5625"/>
     <use xlink:href="#DejaVuSans-77" x="1565.771484"/>
     <use xlink:href="#DejaVuSans-65" x="1647.558594"/>
     <use xlink:href="#DejaVuSans-65" x="1709.082031"/>
     <use xlink:href="#DejaVuSans-6e" x="1770.605469"/>
     <use xlink:href="#DejaVuSans-20" x="1833.984375"/>
     <use xlink:href="#DejaVuSans-47" x="1865.771484"/>
     <use xlink:href="#DejaVuSans-48" x="1943.261719"/>
     <use xlink:href="#DejaVuSans-47" x="2018.457031"/>
     <use xlink:href="#DejaVuSans-20" x="2095.947266"/>
     <use xlink:href="#DejaVuSans-61" x="2127.734375"/>
     <use xlink:href="#DejaVuSans-6e" x="2189.013672"/>
     <use xlink:href="#DejaVuSans-64" x="2252.392578"/>
     <use xlink:href="#DejaVuSans-20" x="2315.869141"/>
     <use xlink:href="#DejaVuSans-46" x="2347.65625"/>
     <use xlink:href="#DejaVuSans-69" x="2397.925781"/>
     <use xlink:href="#DejaVuSans-73" x="2425.708984"/>
     <use xlink:href="#DejaVuSans-68" x="2477.808594"/>
    </g>
   </g>
   <g id="text_18">
    <g clip-path="url(#p1557d664d3)">
     <!-- 12.55 -->
     <g transform="translate(125.736082 78.229938) rotate(-270) scale(0.1 -0.1)">
      <defs>
       <path id="DejaVuSans-2e" d="M 684 794 
L 1344 794 
L 1344 0 
L 684 0 
L 684 794 
z
" transform="scale(0.015625)"/>
      </defs>
      <use xlink:href="#DejaVuSans-31"/>
      <use xlink:href="#DejaVuSans-32" x="63.623047"/>
      <use xlink:href="#DejaVuSans-2e" x="127.246094"/>
      <use xlink:href="#DejaVuSans-35" x="159.033203"/>
      <use xlink:href="#DejaVuSans-35" x="222.65625"/>
     </g>
    </g>
   </g>
   <g id="text_19">
    <g clip-path="url(#p1557d664d3)">
     <!-- 12.70 -->
     <g transform="translate(138.068667 287.893937) rotate(-270) scale(0.1 -0.1)">
      <defs>
       <path id="DejaVuSans-37" d="M 525 4666 
L 3525 4666 
L 3525 4397 
L 1831 0 
L 1172 0 
L 2766 4134 
L 525 4134 
L 525 4666 
z
" transform="scale(0.015625)"/>
      </defs>
      <use xlink:href="#DejaVuSans-31"/>
      <use xlink:href="#DejaVuSans-32" x="63.623047"/>
      <use xlink:href="#DejaVuSans-2e" x="127.246094"/>
      <use xlink:href="#DejaVuSans-37" x="159.033203"/>
      <use xlink:href="#DejaVuSans-30" x="222.65625"/>
     </g>
    </g>
   </g>
   <g id="text_20">
    <g clip-path="url(#p1557d664d3)">
     <!-- 12.84 -->
     <g transform="translate(145.634805 183.061937) rotate(-270) scale(0.1 -0.1)">
      <defs>
       <path id="DejaVuSans-38" d="M 2034 2216 
Q 1584 2216 1326 1975 
Q 1069 1734 1069 1313 
Q 1069 891 1326 650 
Q 1584 409 2034 409 
Q 2484 409 2743 651 
Q 3003 894 3003 1313 
Q 3003 1734 2745 1975 
Q 2488 2216 2034 2216 
z
M 1403 2484 
Q 997 2584 770 2862 
Q 544 3141 544 3541 
Q 544 4100 942 4425 
Q 1341 4750 2034 4750 
Q 2731 4750 3128 4425 
Q 3525 4100 3525 3541 
Q 3525 3141 3298 2862 
Q 3072 2584 2669 2484 
Q 3125 2378 3379 2068 
Q 3634 1759 3634 1313 
Q 3634 634 3220 271 
Q 2806 -91 2034 -91 
Q 1263 -91 848 271 
Q 434 634 434 1313 
Q 434 1759 690 2068 
Q 947 2378 1403 2484 
z
M 1172 3481 
Q 1172 3119 1398 2916 
Q 1625 2713 2034 2713 
Q 2441 2713 2670 2916 
Q 2900 3119 2900 3481 
Q 2900 3844 2670 4047 
Q 2441 4250 2034 4250 
Q 1625 4250 1398 4047 
Q 1172 3844 1172 3481 
z
" transform="scale(0.015625)"/>
      </defs>
      <use xlink:href="#DejaVuSans-31"/>
      <use xlink:href="#DejaVuSans-32" x="63.623047"/>
      <use xlink:href="#DejaVuSans-2e" x="127.246094"/>
      <use xlink:href="#DejaVuSans-38" x="159.033203"/>
      <use xlink:href="#DejaVuSans-34" x="222.65625"/>
     </g>
    </g>
   </g>
   <g id="text_21">
    <g clip-path="url(#p1557d664d3)">
     <!-- 12.99 -->
     <g transform="translate(147.814862 78.229938) rotate(-270) scale(0.1 -0.1)">
      <defs>
       <path id="DejaVuSans-39" d="M 703 97 
L 703 672 
Q 941 559 1184 500 
Q 1428 441 1663 441 
Q 2288 441 2617 861 
Q 2947 1281 2994 2138 
Q 2813 1869 2534 1725 
Q 2256 1581 1919 1581 
Q 1219 1581 811 2004 
Q 403 2428 403 3163 
Q 403 3881 828 4315 
Q 1253 4750 1959 4750 
Q 2769 4750 3195 4129 
Q 3622 3509 3622 2328 
Q 3622 1225 3098 567 
Q 2575 -91 1691 -91 
Q 1453 -91 1209 -44 
Q 966 3 703 97 
z
M 1959 2075 
Q 2384 2075 2632 2365 
Q 2881 2656 2881 3163 
Q 2881 3666 2632 3958 
Q 2384 4250 1959 4250 
Q 1534 4250 1286 3958 
Q 1038 3666 1038 3163 
Q 1038 2656 1286 2365 
Q 1534 2075 1959 2075 
z
" transform="scale(0.015625)"/>
      </defs>
      <use xlink:href="#DejaVuSans-31"/>
      <use xlink:href="#DejaVuSans-32" x="63.623047"/>
      <use xlink:href="#DejaVuSans-2e" x="127.246094"/>
      <use xlink:href="#DejaVuSans-39" x="159.033203"/>
      <use xlink:href="#DejaVuSans-39" x="222.65625"/>
     </g>
    </g>
   </g>
   <g id="text_22">
    <g clip-path="url(#p1557d664d3)">
     <!-- 13.13 -->
     <g transform="translate(159.296862 78.229938) rotate(-270) scale(0.1 -0.1)">
      <use xlink:href="#DejaVuSans-31"/>
      <use xlink:href="#DejaVuSans-33" x="63.623047"/>
      <use xlink:href="#DejaVuSans-2e" x="127.246094"/>
      <use xlink:href="#DejaVuSans-31" x="159.033203"/>
      <use xlink:href="#DejaVuSans-33" x="222.65625"/>
     </g>
    </g>
   </g>
   <g id="text_23">
    <g clip-path="url(#p1557d664d3)">
     <!-- 13.28 -->
     <g transform="translate(223.805147 242.197937) rotate(-270) scale(0.1 -0.1)">
      <use xlink:href="#DejaVuSans-31"/>
      <use xlink:href="#DejaVuSans-33" x="63.623047"/>
      <use xlink:href="#DejaVuSans-2e" x="127.246094"/>
      <use xlink:href="#DejaVuSans-32" x="159.033203"/>
      <use xlink:href="#DejaVuSans-38" x="222.65625"/>
     </g>
    </g>
   </g>
   <g id="text_24">
    <g clip-path="url(#p1557d664d3)">
     <!-- 13.28 -->
     <g transform="translate(172.609688 287.893937) rotate(-270) scale(0.1 -0.1)">
      <use xlink:href="#DejaVuSans-31"/>
      <use xlink:href="#DejaVuSans-33" x="63.623047"/>
      <use xlink:href="#DejaVuSans-2e" x="127.246094"/>
      <use xlink:href="#DejaVuSans-32" x="159.033203"/>
      <use xlink:href="#DejaVuSans-38" x="222.65625"/>
     </g>
    </g>
   </g>
  </g>
 </g>
 <defs>
  <clipPath id="p1557d664d3">
   <rect x="57.6" y="41.472" width="357.12" height="266.112"/>
  </clipPath>
 </defs>
</svg>
