<?xml version="1.0" encoding="utf-8" standalone="no"?>
<!DOCTYPE svg PUBLIC "-//W3C//DTD SVG 1.1//EN"
  "http://www.w3.org/Graphics/SVG/1.1/DTD/svg11.dtd">
<svg xmlns:xlink="http://www.w3.org/1999/xlink" width="460.8pt" height="345.6pt" viewBox="0 0 460.8 345.6" xmlns="http://www.w3.org/2000/svg" version="1.1">
 <metadata>
  <rdf:RDF xmlns:dc="http://purl.org/dc/elements/1.1/" xmlns:cc="http://creativecommons.org/ns#" xmlns:rdf="http://www.w3.org/1999/02/22-rdf-syntax-ns#">
   <cc:Work>
    <dc:type rdf:resource="http://purl.org/dc/dcmitype/StillImage"/>
    <dc:date>2024-02-15T11:39:36.152292</dc:date>
    <dc:format>image/svg+xml</dc:format>
    <dc:creator>
     <cc:Agent>
      <dc:title>Matplotlib v3.7.0, https://matplotlib.org/</dc:title>
     </cc:Agent>
    </dc:creator>
   </cc:Work>
  </rdf:RDF>
 </metadata>
 <defs>
  <style type="text/css">*{stroke-linejoin: round; stroke-linecap: butt}</style>
 </defs>
 <g id="figure_1">
  <g id="patch_1">
   <path d="M 0 345.6 
L 460.8 345.6 
L 460.8 0 
L 0 0 
L 0 345.6 
z
" style="fill: none"/>
  </g>
  <g id="axes_1"/>
  <g id="axes_2">
   <g id="patch_2">
    <path d="M 57.6 307.584 
L 414.72 307.584 
L 414.72 41.472 
L 57.6 41.472 
L 57.6 307.584 
z
" style="fill: none"/>
   </g>
   <g id="PathCollection_1">
    <path d="M 61.207273 279.122048 
L 64.814545 279.122048 
L 68.421818 279.122048 
L 72.029091 279.122048 
L 75.636364 279.122048 
L 79.243636 279.122048 
L 82.850909 279.122048 
L 86.458182 279.122048 
L 90.065455 279.122048 
L 93.672727 279.122048 
L 97.28 279.122048 
L 100.887273 279.122048 
L 104.494545 279.122048 
L 108.101818 279.122048 
L 111.709091 279.122048 
L 115.316364 279.122048 
L 118.923636 279.122048 
L 122.530909 279.122048 
L 126.138182 279.122048 
L 129.745455 279.122048 
L 133.352727 279.122048 
L 136.96 279.122048 
L 140.567273 279.122048 
L 144.174545 279.122048 
L 147.781818 279.122048 
L 151.389091 279.122048 
L 154.996364 279.122048 
L 158.603636 279.122048 
L 162.210909 278.863708 
L 165.818182 278.863708 
L 169.425455 278.863708 
L 173.032727 278.863708 
L 176.64 278.863708 
L 180.247273 278.863708 
L 183.854545 278.863708 
L 187.461818 278.863708 
L 191.069091 278.863708 
L 194.676364 278.863708 
L 198.283636 278.863708 
L 201.890909 278.863708 
L 205.498182 278.863708 
L 209.105455 278.863708 
L 212.712727 278.863708 
L 216.32 278.863708 
L 219.927273 278.863708 
L 223.534545 278.863708 
L 227.141818 278.863708 
L 230.749091 278.863708 
L 234.356364 278.863708 
L 237.963636 278.863708 
L 241.570909 278.863708 
L 245.178182 278.863708 
L 248.785455 278.863708 
L 252.392727 278.863708 
L 256 278.863708 
L 259.607273 278.863708 
L 263.214545 278.863708 
L 266.821818 278.863708 
L 270.429091 278.863708 
L 274.036364 278.863708 
L 277.643636 278.863708 
L 281.250909 278.863708 
L 284.858182 278.863708 
L 288.465455 278.863708 
L 292.072727 278.863708 
L 295.68 278.863708 
L 299.287273 278.863708 
L 302.894545 278.863708 
L 306.501818 278.863708 
L 310.109091 278.863708 
L 313.716364 278.863708 
L 317.323636 278.863708 
L 320.930909 278.863708 
L 324.538182 278.863708 
L 328.145455 278.863708 
L 331.752727 278.863708 
L 335.36 278.863708 
L 338.967273 278.863708 
L 342.574545 278.863708 
L 346.181818 278.863708 
L 349.789091 278.863708 
L 353.396364 278.863708 
L 357.003636 278.863708 
L 360.610909 278.863708 
L 364.218182 278.863708 
L 367.825455 278.863708 
L 371.432727 278.863708 
L 375.04 278.863708 
L 378.647273 278.863708 
L 382.254545 278.863708 
L 385.861818 278.863708 
L 389.469091 278.863708 
L 393.076364 278.863708 
L 396.683636 278.863708 
L 400.290909 278.863708 
L 403.898182 278.863708 
L 407.505455 278.863708 
L 411.112727 278.863708 
L 414.72 278.863708 
L 414.72 278.016 
L 414.72 275.328 
L 414.72 272.64 
L 414.72 269.952 
L 414.72 267.264 
L 414.72 265.777326 
L 411.112727 265.777326 
L 407.505455 265.777326 
L 403.898182 265.777326 
L 400.290909 265.777326 
L 396.683636 265.777326 
L 393.076364 265.777326 
L 389.469091 265.777326 
L 385.861818 265.777326 
L 382.254545 265.777326 
L 378.647273 265.777326 
L 375.04 265.777326 
L 371.432727 265.777326 
L 367.825455 265.777326 
L 364.218182 265.777326 
L 360.610909 265.777326 
L 357.003636 265.777326 
L 353.396364 265.777326 
L 349.789091 265.777326 
L 346.181818 265.777326 
L 342.574545 265.777326 
L 338.967273 265.777326 
L 335.36 265.777326 
L 331.752727 265.777326 
L 328.145455 265.777326 
L 324.538182 265.777326 
L 320.930909 265.777326 
L 317.323636 265.777326 
L 313.716364 265.777326 
L 310.109091 265.777326 
L 306.501818 265.777326 
L 302.894545 265.777326 
L 299.287273 265.777326 
L 295.68 265.777326 
L 292.072727 265.777326 
L 288.465455 265.777326 
L 284.858182 265.777326 
L 281.250909 265.777326 
L 277.643636 265.777326 
L 274.036364 265.777326 
L 270.429091 265.777326 
L 266.821818 265.777326 
L 263.214545 265.777326 
L 259.607273 265.777326 
L 256 265.777326 
L 252.392727 265.777326 
L 248.785455 265.777326 
L 245.178182 265.777326 
L 241.570909 265.777326 
L 237.963636 265.777326 
L 234.356364 265.777326 
L 230.749091 265.777326 
L 227.141818 265.777326 
L 223.534545 265.777326 
L 219.927273 265.777326 
L 216.32 265.777326 
L 212.712727 265.777326 
L 209.105455 265.777326 
L 205.498182 265.777326 
L 201.890909 265.777326 
L 198.283636 265.777326 
L 194.676364 265.777326 
L 191.069091 265.777326 
L 187.461818 265.777326 
L 183.854545 265.777326 
L 180.247273 265.777326 
L 176.64 265.777326 
L 173.032727 265.777326 
L 169.425455 265.777326 
L 165.818182 265.777326 
L 162.210909 265.777326 
L 158.603636 265.324261 
L 154.996364 265.324261 
L 151.389091 265.324261 
L 147.781818 265.324261 
L 144.174545 265.324261 
L 140.567273 265.324261 
L 136.96 265.324261 
L 133.352727 265.324261 
L 129.745455 265.324261 
L 126.138182 265.324261 
L 122.530909 265.324261 
L 118.923636 265.324261 
L 115.316364 265.324261 
L 111.709091 265.324261 
L 108.101818 265.324261 
L 104.494545 265.324261 
L 100.887273 265.324261 
L 97.28 265.324261 
L 93.672727 265.324261 
L 90.065455 265.324261 
L 86.458182 265.324261 
L 82.850909 265.324261 
L 79.243636 265.324261 
L 75.636364 265.324261 
L 72.029091 265.324261 
L 68.421818 265.324261 
L 64.814545 265.324261 
L 61.207273 265.324261 
L 57.6 265.324261 
L 57.6 267.264 
L 57.6 269.952 
L 57.6 272.64 
L 57.6 275.328 
L 57.6 278.016 
L 57.6 279.122048 
z
" clip-path="url(#p7f6551eb46)" style="fill: #481b6d; fill-opacity: 0.75"/>
   </g>
   <g id="PathCollection_2">
    <path d="M 61.207273 286.205508 
L 64.814545 286.205508 
L 68.421818 286.205508 
L 72.029091 286.205508 
L 75.636364 286.205508 
L 79.243636 286.205508 
L 82.850909 286.205508 
L 86.458182 286.205508 
L 90.065455 286.205508 
L 93.672727 286.205508 
L 97.28 286.205508 
L 100.887273 286.205508 
L 104.494545 286.205508 
L 108.101818 286.205508 
L 111.709091 286.205508 
L 115.316364 286.205508 
L 118.923636 286.205508 
L 122.530909 286.205508 
L 126.138182 286.205508 
L 129.745455 286.205508 
L 133.352727 286.205508 
L 136.96 286.205508 
L 140.567273 286.205508 
L 144.174545 286.205508 
L 147.781818 286.205508 
L 151.389091 286.205508 
L 154.996364 286.205508 
L 158.603636 286.205508 
L 159.165688 286.08 
L 159.165688 283.392 
L 159.165688 280.704 
L 162.210909 280.485912 
L 165.818182 280.485912 
L 169.425455 280.485912 
L 173.032727 280.485912 
L 176.64 280.485912 
L 180.247273 280.485912 
L 183.854545 280.485912 
L 187.461818 280.485912 
L 191.069091 280.485912 
L 194.676364 280.485912 
L 198.283636 280.485912 
L 201.890909 280.485912 
L 205.498182 280.485912 
L 209.105455 280.485912 
L 212.712727 280.485912 
L 216.32 280.485912 
L 219.927273 280.485912 
L 223.534545 280.485912 
L 227.141818 280.485912 
L 230.749091 280.485912 
L 234.356364 280.485912 
L 237.963636 280.485912 
L 241.570909 280.485912 
L 245.178182 280.485912 
L 248.785455 280.485912 
L 252.392727 280.485912 
L 256 280.485912 
L 259.607273 280.485912 
L 263.214545 280.485912 
L 266.821818 280.485912 
L 270.429091 280.485912 
L 274.036364 280.485912 
L 277.643636 280.485912 
L 281.250909 280.485912 
L 284.858182 280.485912 
L 288.465455 280.485912 
L 292.072727 280.485912 
L 295.68 280.485912 
L 299.287273 280.485912 
L 302.894545 280.485912 
L 306.501818 280.485912 
L 310.109091 280.485912 
L 313.716364 280.485912 
L 317.323636 280.485912 
L 320.930909 280.485912 
L 324.538182 280.485912 
L 328.145455 280.485912 
L 331.752727 280.485912 
L 335.36 280.485912 
L 338.967273 280.485912 
L 342.574545 280.485912 
L 346.181818 280.485912 
L 349.789091 280.485912 
L 353.396364 280.485912 
L 357.003636 280.485912 
L 360.610909 280.485912 
L 364.218182 280.485912 
L 367.825455 280.485912 
L 371.432727 280.485912 
L 375.04 280.485912 
L 378.647273 280.485912 
L 382.254545 280.485912 
L 385.861818 280.485912 
L 389.469091 280.485912 
L 393.076364 280.485912 
L 396.683636 280.485912 
L 400.290909 280.485912 
L 403.898182 280.485912 
L 407.505455 280.485912 
L 411.112727 280.485912 
L 414.72 280.485912 
L 414.72 278.863708 
L 411.112727 278.863708 
L 407.505455 278.863708 
L 403.898182 278.863708 
L 400.290909 278.863708 
L 396.683636 278.863708 
L 393.076364 278.863708 
L 389.469091 278.863708 
L 385.861818 278.863708 
L 382.254545 278.863708 
L 378.647273 278.863708 
L 375.04 278.863708 
L 371.432727 278.863708 
L 367.825455 278.863708 
L 364.218182 278.863708 
L 360.610909 278.863708 
L 357.003636 278.863708 
L 353.396364 278.863708 
L 349.789091 278.863708 
L 346.181818 278.863708 
L 342.574545 278.863708 
L 338.967273 278.863708 
L 335.36 278.863708 
L 331.752727 278.863708 
L 328.145455 278.863708 
L 324.538182 278.863708 
L 320.930909 278.863708 
L 317.323636 278.863708 
L 313.716364 278.863708 
L 310.109091 278.863708 
L 306.501818 278.863708 
L 302.894545 278.863708 
L 299.287273 278.863708 
L 295.68 278.863708 
L 292.072727 278.863708 
L 288.465455 278.863708 
L 284.858182 278.863708 
L 281.250909 278.863708 
L 277.643636 278.863708 
L 274.036364 278.863708 
L 270.429091 278.863708 
L 266.821818 278.863708 
L 263.214545 278.863708 
L 259.607273 278.863708 
L 256 278.863708 
L 252.392727 278.863708 
L 248.785455 278.863708 
L 245.178182 278.863708 
L 241.570909 278.863708 
L 237.963636 278.863708 
L 234.356364 278.863708 
L 230.749091 278.863708 
L 227.141818 278.863708 
L 223.534545 278.863708 
L 219.927273 278.863708 
L 216.32 278.863708 
L 212.712727 278.863708 
L 209.105455 278.863708 
L 205.498182 278.863708 
L 201.890909 278.863708 
L 198.283636 278.863708 
L 194.676364 278.863708 
L 191.069091 278.863708 
L 187.461818 278.863708 
L 183.854545 278.863708 
L 180.247273 278.863708 
L 176.64 278.863708 
L 173.032727 278.863708 
L 169.425455 278.863708 
L 165.818182 278.863708 
L 162.210909 278.863708 
L 158.603636 279.122048 
L 154.996364 279.122048 
L 151.389091 279.122048 
L 147.781818 279.122048 
L 144.174545 279.122048 
L 140.567273 279.122048 
L 136.96 279.122048 
L 133.352727 279.122048 
L 129.745455 279.122048 
L 126.138182 279.122048 
L 122.530909 279.122048 
L 118.923636 279.122048 
L 115.316364 279.122048 
L 111.709091 279.122048 
L 108.101818 279.122048 
L 104.494545 279.122048 
L 100.887273 279.122048 
L 97.28 279.122048 
L 93.672727 279.122048 
L 90.065455 279.122048 
L 86.458182 279.122048 
L 82.850909 279.122048 
L 79.243636 279.122048 
L 75.636364 279.122048 
L 72.029091 279.122048 
L 68.421818 279.122048 
L 64.814545 279.122048 
L 61.207273 279.122048 
L 57.6 279.122048 
L 57.6 280.704 
L 57.6 283.392 
L 57.6 286.08 
L 57.6 286.205508 
z
" clip-path="url(#p7f6551eb46)" style="fill: #3f4788; fill-opacity: 0.75"/>
    <path d="M 61.207273 265.324261 
L 64.814545 265.324261 
L 68.421818 265.324261 
L 72.029091 265.324261 
L 75.636364 265.324261 
L 79.243636 265.324261 
L 82.850909 265.324261 
L 86.458182 265.324261 
L 90.065455 265.324261 
L 93.672727 265.324261 
L 97.28 265.324261 
L 100.887273 265.324261 
L 104.494545 265.324261 
L 108.101818 265.324261 
L 111.709091 265.324261 
L 115.316364 265.324261 
L 118.923636 265.324261 
L 122.530909 265.324261 
L 126.138182 265.324261 
L 129.745455 265.324261 
L 133.352727 265.324261 
L 136.96 265.324261 
L 140.567273 265.324261 
L 144.174545 265.324261 
L 147.781818 265.324261 
L 151.389091 265.324261 
L 154.996364 265.324261 
L 158.603636 265.324261 
L 162.210909 265.777326 
L 165.818182 265.777326 
L 169.425455 265.777326 
L 173.032727 265.777326 
L 176.64 265.777326 
L 180.247273 265.777326 
L 183.854545 265.777326 
L 187.461818 265.777326 
L 191.069091 265.777326 
L 194.676364 265.777326 
L 198.283636 265.777326 
L 201.890909 265.777326 
L 205.498182 265.777326 
L 209.105455 265.777326 
L 212.712727 265.777326 
L 216.32 265.777326 
L 219.927273 265.777326 
L 223.534545 265.777326 
L 227.141818 265.777326 
L 230.749091 265.777326 
L 234.356364 265.777326 
L 237.963636 265.777326 
L 241.570909 265.777326 
L 245.178182 265.777326 
L 248.785455 265.777326 
L 252.392727 265.777326 
L 256 265.777326 
L 259.607273 265.777326 
L 263.214545 265.777326 
L 266.821818 265.777326 
L 270.429091 265.777326 
L 274.036364 265.777326 
L 277.643636 265.777326 
L 281.250909 265.777326 
L 284.858182 265.777326 
L 288.465455 265.777326 
L 292.072727 265.777326 
L 295.68 265.777326 
L 299.287273 265.777326 
L 302.894545 265.777326 
L 306.501818 265.777326 
L 310.109091 265.777326 
L 313.716364 265.777326 
L 317.323636 265.777326 
L 320.930909 265.777326 
L 324.538182 265.777326 
L 328.145455 265.777326 
L 331.752727 265.777326 
L 335.36 265.777326 
L 338.967273 265.777326 
L 342.574545 265.777326 
L 346.181818 265.777326 
L 349.789091 265.777326 
L 353.396364 265.777326 
L 357.003636 265.777326 
L 360.610909 265.777326 
L 364.218182 265.777326 
L 367.825455 265.777326 
L 371.432727 265.777326 
L 375.04 265.777326 
L 378.647273 265.777326 
L 382.254545 265.777326 
L 385.861818 265.777326 
L 389.469091 265.777326 
L 393.076364 265.777326 
L 396.683636 265.777326 
L 400.290909 265.777326 
L 403.898182 265.777326 
L 407.505455 265.777326 
L 411.112727 265.777326 
L 414.72 265.777326 
L 414.72 264.576 
L 414.72 261.888 
L 414.72 259.2 
L 414.72 256.512 
L 414.72 253.824 
L 414.72 251.136 
L 414.72 248.448 
L 414.72 245.76 
L 414.72 243.072 
L 414.72 240.384 
L 414.72 237.696 
L 414.72 235.008 
L 414.72 232.32 
L 414.72 229.632 
L 414.72 226.944 
L 414.72 224.256 
L 414.72 221.568 
L 414.72 218.88 
L 414.72 216.192 
L 414.72 213.504 
L 414.72 210.816 
L 414.72 208.128 
L 414.72 205.44 
L 414.72 202.752 
L 414.72 200.064 
L 414.72 197.376 
L 414.72 194.688 
L 414.72 192 
L 414.72 189.312 
L 414.72 186.624 
L 414.72 183.936 
L 414.72 181.248 
L 414.72 178.56 
L 414.72 175.872 
L 414.72 173.184 
L 414.72 170.496 
L 414.72 167.808 
L 414.72 165.12 
L 414.72 162.432 
L 414.72 159.744 
L 414.72 157.056 
L 414.72 154.368 
L 414.72 151.68 
L 414.72 148.992 
L 414.72 146.304 
L 414.72 143.616 
L 414.72 140.928 
L 414.72 138.24 
L 414.72 135.552 
L 414.72 132.864 
L 414.72 130.176 
L 414.72 127.488 
L 414.72 124.8 
L 414.72 122.112 
L 414.72 119.424 
L 414.72 116.736 
L 414.72 114.048 
L 414.72 111.36 
L 414.72 108.672 
L 414.72 105.984 
L 414.72 103.296 
L 414.72 100.608 
L 414.72 97.92 
L 414.72 95.232 
L 414.72 92.544 
L 414.72 89.856 
L 414.72 87.168 
L 414.72 84.48 
L 414.72 81.792 
L 414.72 79.104 
L 414.72 76.416 
L 414.72 73.728 
L 414.72 71.04 
L 414.72 68.352 
L 414.72 65.664 
L 414.72 62.976 
L 414.72 60.288 
L 414.72 57.6 
L 414.72 54.912 
L 414.72 52.224 
L 414.72 49.536 
L 414.72 46.848 
L 414.72 44.16 
L 414.72 41.472 
L 411.112727 41.472 
L 407.505455 41.472 
L 403.898182 41.472 
L 400.290909 41.472 
L 396.683636 41.472 
L 393.076364 41.472 
L 389.469091 41.472 
L 385.861818 41.472 
L 382.254545 41.472 
L 378.647273 41.472 
L 375.04 41.472 
L 371.432727 41.472 
L 367.825455 41.472 
L 364.218182 41.472 
L 360.610909 41.472 
L 357.003636 41.472 
L 353.396364 41.472 
L 349.789091 41.472 
L 346.181818 41.472 
L 342.574545 41.472 
L 338.967273 41.472 
L 335.36 41.472 
L 331.752727 41.472 
L 328.145455 41.472 
L 324.538182 41.472 
L 320.930909 41.472 
L 317.323636 41.472 
L 313.716364 41.472 
L 310.109091 41.472 
L 306.501818 41.472 
L 302.894545 41.472 
L 299.287273 41.472 
L 295.68 41.472 
L 292.072727 41.472 
L 288.465455 41.472 
L 284.858182 41.472 
L 281.250909 41.472 
L 277.643636 41.472 
L 274.036364 41.472 
L 270.429091 41.472 
L 266.821818 41.472 
L 263.214545 41.472 
L 259.607273 41.472 
L 256 41.472 
L 252.392727 41.472 
L 248.785455 41.472 
L 245.178182 41.472 
L 241.570909 41.472 
L 237.963636 41.472 
L 234.356364 41.472 
L 230.749091 41.472 
L 227.141818 41.472 
L 223.534545 41.472 
L 219.927273 41.472 
L 216.32 41.472 
L 212.712727 41.472 
L 209.105455 41.472 
L 205.498182 41.472 
L 201.890909 41.472 
L 198.283636 41.472 
L 194.676364 41.472 
L 191.069091 41.472 
L 187.461818 41.472 
L 183.854545 41.472 
L 180.247273 41.472 
L 176.64 41.472 
L 173.032727 41.472 
L 169.425455 41.472 
L 165.818182 41.472 
L 162.210909 41.472 
L 158.603636 41.472 
L 154.996364 41.472 
L 151.389091 41.472 
L 147.781818 41.472 
L 144.174545 41.472 
L 140.567273 41.472 
L 136.96 41.472 
L 133.352727 41.472 
L 129.745455 41.472 
L 126.138182 41.472 
L 122.530909 41.472 
L 118.923636 41.472 
L 115.316364 41.472 
L 111.709091 41.472 
L 108.101818 41.472 
L 104.494545 41.472 
L 100.887273 41.472 
L 97.28 41.472 
L 93.672727 41.472 
L 90.065455 41.472 
L 86.458182 41.472 
L 82.850909 41.472 
L 79.243636 41.472 
L 75.636364 41.472 
L 72.029091 41.472 
L 68.421818 41.472 
L 64.814545 41.472 
L 61.207273 41.472 
L 57.6 41.472 
L 57.6 44.16 
L 57.6 46.848 
L 57.6 49.536 
L 57.6 52.224 
L 57.6 54.912 
L 57.6 57.6 
L 57.6 60.288 
L 57.6 62.976 
L 57.6 65.664 
L 57.6 68.352 
L 57.6 71.04 
L 57.6 73.728 
L 57.6 76.416 
L 57.6 79.104 
L 57.6 81.792 
L 57.6 84.48 
L 57.6 87.168 
L 57.6 89.856 
L 57.6 92.544 
L 57.6 95.232 
L 57.6 97.92 
L 57.6 100.608 
L 57.6 103.296 
L 57.6 105.984 
L 57.6 108.672 
L 57.6 111.36 
L 57.6 114.048 
L 57.6 116.736 
L 57.6 119.424 
L 57.6 122.112 
L 57.6 124.8 
L 57.6 127.488 
L 57.6 130.176 
L 57.6 132.864 
L 57.6 135.552 
L 57.6 138.24 
L 57.6 140.928 
L 57.6 143.616 
L 57.6 146.304 
L 57.6 148.992 
L 57.6 151.68 
L 57.6 154.368 
L 57.6 157.056 
L 57.6 159.744 
L 57.6 162.432 
L 57.6 165.12 
L 57.6 167.808 
L 57.6 170.496 
L 57.6 173.184 
L 57.6 175.872 
L 57.6 178.56 
L 57.6 181.248 
L 57.6 183.936 
L 57.6 186.624 
L 57.6 189.312 
L 57.6 192 
L 57.6 194.688 
L 57.6 197.376 
L 57.6 200.064 
L 57.6 202.752 
L 57.6 205.44 
L 57.6 208.128 
L 57.6 210.816 
L 57.6 213.504 
L 57.6 216.192 
L 57.6 218.88 
L 57.6 221.568 
L 57.6 224.256 
L 57.6 226.944 
L 57.6 229.632 
L 57.6 232.32 
L 57.6 235.008 
L 57.6 237.696 
L 57.6 240.384 
L 57.6 243.072 
L 57.6 245.76 
L 57.6 248.448 
L 57.6 251.136 
L 57.6 253.824 
L 57.6 256.512 
L 57.6 259.2 
L 57.6 261.888 
L 57.6 264.576 
L 57.6 265.324261 
z
" clip-path="url(#p7f6551eb46)" style="fill: #3f4788; fill-opacity: 0.75"/>
   </g>
   <g id="PathCollection_3">
    <path d="M 61.207273 297.05966 
L 64.814545 297.05966 
L 68.421818 297.05966 
L 72.029091 297.05966 
L 75.636364 297.05966 
L 79.243636 297.05966 
L 82.850909 297.05966 
L 86.458182 297.05966 
L 90.065455 297.05966 
L 93.672727 297.05966 
L 97.28 297.05966 
L 100.887273 297.05966 
L 104.494545 297.05966 
L 108.101818 297.05966 
L 111.709091 297.05966 
L 115.316364 297.05966 
L 118.923636 297.05966 
L 122.530909 297.05966 
L 126.138182 297.05966 
L 129.745455 297.05966 
L 133.352727 297.05966 
L 136.96 297.05966 
L 140.567273 297.05966 
L 144.174545 297.05966 
L 147.781818 297.05966 
L 151.389091 297.05966 
L 154.996364 297.05966 
L 158.603636 297.05966 
L 162.210909 296.94843 
L 165.818182 296.94843 
L 169.425455 296.94843 
L 173.032727 296.94843 
L 176.64 296.94843 
L 180.247273 296.94843 
L 183.854545 296.94843 
L 187.461818 296.94843 
L 191.069091 296.94843 
L 194.676364 296.94843 
L 198.283636 296.94843 
L 201.890909 296.94843 
L 205.498182 296.94843 
L 209.105455 296.94843 
L 212.712727 296.94843 
L 216.32 296.94843 
L 219.927273 296.94843 
L 223.534545 296.94843 
L 227.141818 296.94843 
L 230.749091 296.94843 
L 234.356364 296.94843 
L 237.963636 296.94843 
L 241.570909 296.94843 
L 245.178182 296.94843 
L 248.785455 296.94843 
L 252.392727 296.94843 
L 256 296.94843 
L 259.607273 296.94843 
L 263.214545 296.94843 
L 266.821818 296.94843 
L 270.429091 296.94843 
L 274.036364 296.94843 
L 277.643636 296.94843 
L 281.250909 296.94843 
L 284.858182 296.94843 
L 288.465455 296.94843 
L 292.072727 296.94843 
L 295.68 296.94843 
L 299.287273 296.94843 
L 302.894545 296.94843 
L 306.501818 296.94843 
L 310.109091 296.94843 
L 313.716364 296.94843 
L 317.323636 296.94843 
L 320.930909 296.94843 
L 324.538182 296.94843 
L 328.145455 296.94843 
L 331.752727 296.94843 
L 335.36 296.94843 
L 338.967273 296.94843 
L 342.574545 296.94843 
L 346.181818 296.94843 
L 349.789091 296.94843 
L 353.396364 296.94843 
L 357.003636 296.94843 
L 360.610909 296.94843 
L 364.218182 296.94843 
L 367.825455 296.94843 
L 371.432727 296.94843 
L 375.04 296.94843 
L 378.647273 296.94843 
L 382.254545 296.94843 
L 385.861818 296.94843 
L 389.469091 296.94843 
L 393.076364 296.94843 
L 396.683636 296.94843 
L 400.290909 296.94843 
L 403.898182 296.94843 
L 407.505455 296.94843 
L 411.112727 296.94843 
L 414.72 296.94843 
L 414.72 296.832 
L 414.72 294.144 
L 414.72 291.456 
L 414.72 288.768 
L 414.72 286.08 
L 414.72 283.392 
L 414.72 280.704 
L 414.72 280.485912 
L 411.112727 280.485912 
L 407.505455 280.485912 
L 403.898182 280.485912 
L 400.290909 280.485912 
L 396.683636 280.485912 
L 393.076364 280.485912 
L 389.469091 280.485912 
L 385.861818 280.485912 
L 382.254545 280.485912 
L 378.647273 280.485912 
L 375.04 280.485912 
L 371.432727 280.485912 
L 367.825455 280.485912 
L 364.218182 280.485912 
L 360.610909 280.485912 
L 357.003636 280.485912 
L 353.396364 280.485912 
L 349.789091 280.485912 
L 346.181818 280.485912 
L 342.574545 280.485912 
L 338.967273 280.485912 
L 335.36 280.485912 
L 331.752727 280.485912 
L 328.145455 280.485912 
L 324.538182 280.485912 
L 320.930909 280.485912 
L 317.323636 280.485912 
L 313.716364 280.485912 
L 310.109091 280.485912 
L 306.501818 280.485912 
L 302.894545 280.485912 
L 299.287273 280.485912 
L 295.68 280.485912 
L 292.072727 280.485912 
L 288.465455 280.485912 
L 284.858182 280.485912 
L 281.250909 280.485912 
L 277.643636 280.485912 
L 274.036364 280.485912 
L 270.429091 280.485912 
L 266.821818 280.485912 
L 263.214545 280.485912 
L 259.607273 280.485912 
L 256 280.485912 
L 252.392727 280.485912 
L 248.785455 280.485912 
L 245.178182 280.485912 
L 241.570909 280.485912 
L 237.963636 280.485912 
L 234.356364 280.485912 
L 230.749091 280.485912 
L 227.141818 280.485912 
L 223.534545 280.485912 
L 219.927273 280.485912 
L 216.32 280.485912 
L 212.712727 280.485912 
L 209.105455 280.485912 
L 205.498182 280.485912 
L 201.890909 280.485912 
L 198.283636 280.485912 
L 194.676364 280.485912 
L 191.069091 280.485912 
L 187.461818 280.485912 
L 183.854545 280.485912 
L 180.247273 280.485912 
L 176.64 280.485912 
L 173.032727 280.485912 
L 169.425455 280.485912 
L 165.818182 280.485912 
L 162.210909 280.485912 
L 159.165688 280.704 
L 159.165688 283.392 
L 159.165688 286.08 
L 158.603636 286.205508 
L 154.996364 286.205508 
L 151.389091 286.205508 
L 147.781818 286.205508 
L 144.174545 286.205508 
L 140.567273 286.205508 
L 136.96 286.205508 
L 133.352727 286.205508 
L 129.745455 286.205508 
L 126.138182 286.205508 
L 122.530909 286.205508 
L 118.923636 286.205508 
L 115.316364 286.205508 
L 111.709091 286.205508 
L 108.101818 286.205508 
L 104.494545 286.205508 
L 100.887273 286.205508 
L 97.28 286.205508 
L 93.672727 286.205508 
L 90.065455 286.205508 
L 86.458182 286.205508 
L 82.850909 286.205508 
L 79.243636 286.205508 
L 75.636364 286.205508 
L 72.029091 286.205508 
L 68.421818 286.205508 
L 64.814545 286.205508 
L 61.207273 286.205508 
L 57.6 286.205508 
L 57.6 288.768 
L 57.6 291.456 
L 57.6 294.144 
L 57.6 296.832 
L 57.6 297.05966 
z
" clip-path="url(#p7f6551eb46)" style="fill: #2e6e8e; fill-opacity: 0.75"/>
   </g>
   <g id="PathCollection_4">
    <path d="M 61.207273 297.758111 
L 64.814545 297.758111 
L 68.421818 297.758111 
L 72.029091 297.758111 
L 75.636364 297.758111 
L 79.243636 297.758111 
L 82.850909 297.758111 
L 86.458182 297.758111 
L 90.065455 297.758111 
L 93.672727 297.758111 
L 97.28 297.758111 
L 100.887273 297.758111 
L 104.494545 297.758111 
L 108.101818 297.758111 
L 111.709091 297.758111 
L 115.316364 297.758111 
L 118.923636 297.758111 
L 122.530909 297.758111 
L 126.138182 297.758111 
L 129.745455 297.758111 
L 133.352727 297.758111 
L 136.96 297.758111 
L 140.567273 297.758111 
L 144.174545 297.758111 
L 147.781818 297.758111 
L 151.389091 297.758111 
L 154.996364 297.758111 
L 158.603636 297.758111 
L 162.210909 297.646881 
L 165.818182 297.646881 
L 169.425455 297.646881 
L 173.032727 297.646881 
L 176.64 297.646881 
L 180.247273 297.646881 
L 183.854545 297.646881 
L 187.461818 297.646881 
L 191.069091 297.646881 
L 194.676364 297.646881 
L 198.283636 297.646881 
L 201.890909 297.646881 
L 205.498182 297.646881 
L 209.105455 297.646881 
L 212.712727 297.646881 
L 216.32 297.646881 
L 219.927273 297.646881 
L 223.534545 297.646881 
L 227.141818 297.646881 
L 230.749091 297.646881 
L 234.356364 297.646881 
L 237.963636 297.646881 
L 241.570909 297.646881 
L 245.178182 297.646881 
L 248.785455 297.646881 
L 252.392727 297.646881 
L 256 297.646881 
L 259.607273 297.646881 
L 263.214545 297.646881 
L 266.821818 297.646881 
L 270.429091 297.646881 
L 274.036364 297.646881 
L 277.643636 297.646881 
L 281.250909 297.646881 
L 284.858182 297.646881 
L 288.465455 297.646881 
L 292.072727 297.646881 
L 295.68 297.646881 
L 299.287273 297.646881 
L 302.894545 297.646881 
L 306.501818 297.646881 
L 310.109091 297.646881 
L 313.716364 297.646881 
L 317.323636 297.646881 
L 320.930909 297.646881 
L 324.538182 297.646881 
L 328.145455 297.646881 
L 331.752727 297.646881 
L 335.36 297.646881 
L 338.967273 297.646881 
L 342.574545 297.646881 
L 346.181818 297.646881 
L 349.789091 297.646881 
L 353.396364 297.646881 
L 357.003636 297.646881 
L 360.610909 297.646881 
L 364.218182 297.646881 
L 367.825455 297.646881 
L 371.432727 297.646881 
L 375.04 297.646881 
L 378.647273 297.646881 
L 382.254545 297.646881 
L 385.861818 297.646881 
L 389.469091 297.646881 
L 393.076364 297.646881 
L 396.683636 297.646881 
L 400.290909 297.646881 
L 403.898182 297.646881 
L 407.505455 297.646881 
L 411.112727 297.646881 
L 414.72 297.646881 
L 414.72 296.94843 
L 411.112727 296.94843 
L 407.505455 296.94843 
L 403.898182 296.94843 
L 400.290909 296.94843 
L 396.683636 296.94843 
L 393.076364 296.94843 
L 389.469091 296.94843 
L 385.861818 296.94843 
L 382.254545 296.94843 
L 378.647273 296.94843 
L 375.04 296.94843 
L 371.432727 296.94843 
L 367.825455 296.94843 
L 364.218182 296.94843 
L 360.610909 296.94843 
L 357.003636 296.94843 
L 353.396364 296.94843 
L 349.789091 296.94843 
L 346.181818 296.94843 
L 342.574545 296.94843 
L 338.967273 296.94843 
L 335.36 296.94843 
L 331.752727 296.94843 
L 328.145455 296.94843 
L 324.538182 296.94843 
L 320.930909 296.94843 
L 317.323636 296.94843 
L 313.716364 296.94843 
L 310.109091 296.94843 
L 306.501818 296.94843 
L 302.894545 296.94843 
L 299.287273 296.94843 
L 295.68 296.94843 
L 292.072727 296.94843 
L 288.465455 296.94843 
L 284.858182 296.94843 
L 281.250909 296.94843 
L 277.643636 296.94843 
L 274.036364 296.94843 
L 270.429091 296.94843 
L 266.821818 296.94843 
L 263.214545 296.94843 
L 259.607273 296.94843 
L 256 296.94843 
L 252.392727 296.94843 
L 248.785455 296.94843 
L 245.178182 296.94843 
L 241.570909 296.94843 
L 237.963636 296.94843 
L 234.356364 296.94843 
L 230.749091 296.94843 
L 227.141818 296.94843 
L 223.534545 296.94843 
L 219.927273 296.94843 
L 216.32 296.94843 
L 212.712727 296.94843 
L 209.105455 296.94843 
L 205.498182 296.94843 
L 201.890909 296.94843 
L 198.283636 296.94843 
L 194.676364 296.94843 
L 191.069091 296.94843 
L 187.461818 296.94843 
L 183.854545 296.94843 
L 180.247273 296.94843 
L 176.64 296.94843 
L 173.032727 296.94843 
L 169.425455 296.94843 
L 165.818182 296.94843 
L 162.210909 296.94843 
L 158.603636 297.05966 
L 154.996364 297.05966 
L 151.389091 297.05966 
L 147.781818 297.05966 
L 144.174545 297.05966 
L 140.567273 297.05966 
L 136.96 297.05966 
L 133.352727 297.05966 
L 129.745455 297.05966 
L 126.138182 297.05966 
L 122.530909 297.05966 
L 118.923636 297.05966 
L 115.316364 297.05966 
L 111.709091 297.05966 
L 108.101818 297.05966 
L 104.494545 297.05966 
L 100.887273 297.05966 
L 97.28 297.05966 
L 93.672727 297.05966 
L 90.065455 297.05966 
L 86.458182 297.05966 
L 82.850909 297.05966 
L 79.243636 297.05966 
L 75.636364 297.05966 
L 72.029091 297.05966 
L 68.421818 297.05966 
L 64.814545 297.05966 
L 61.207273 297.05966 
L 57.6 297.05966 
L 57.6 297.758111 
z
" clip-path="url(#p7f6551eb46)" style="fill: #21908d; fill-opacity: 0.75"/>
   </g>
   <g id="PathCollection_5">
    <path d="M 61.207273 298.456562 
L 64.814545 298.456562 
L 68.421818 298.456562 
L 72.029091 298.456562 
L 75.636364 298.456562 
L 79.243636 298.456562 
L 82.850909 298.456562 
L 86.458182 298.456562 
L 90.065455 298.456562 
L 93.672727 298.456562 
L 97.28 298.456562 
L 100.887273 298.456562 
L 104.494545 298.456562 
L 108.101818 298.456562 
L 111.709091 298.456562 
L 115.316364 298.456562 
L 118.923636 298.456562 
L 122.530909 298.456562 
L 126.138182 298.456562 
L 129.745455 298.456562 
L 133.352727 298.456562 
L 136.96 298.456562 
L 140.567273 298.456562 
L 144.174545 298.456562 
L 147.781818 298.456562 
L 151.389091 298.456562 
L 154.996364 298.456562 
L 158.603636 298.456562 
L 162.210909 298.345332 
L 165.818182 298.345332 
L 169.425455 298.345332 
L 173.032727 298.345332 
L 176.64 298.345332 
L 180.247273 298.345332 
L 183.854545 298.345332 
L 187.461818 298.345332 
L 191.069091 298.345332 
L 194.676364 298.345332 
L 198.283636 298.345332 
L 201.890909 298.345332 
L 205.498182 298.345332 
L 209.105455 298.345332 
L 212.712727 298.345332 
L 216.32 298.345332 
L 219.927273 298.345332 
L 223.534545 298.345332 
L 227.141818 298.345332 
L 230.749091 298.345332 
L 234.356364 298.345332 
L 237.963636 298.345332 
L 241.570909 298.345332 
L 245.178182 298.345332 
L 248.785455 298.345332 
L 252.392727 298.345332 
L 256 298.345332 
L 259.607273 298.345332 
L 263.214545 298.345332 
L 266.821818 298.345332 
L 270.429091 298.345332 
L 274.036364 298.345332 
L 277.643636 298.345332 
L 281.250909 298.345332 
L 284.858182 298.345332 
L 288.465455 298.345332 
L 292.072727 298.345332 
L 295.68 298.345332 
L 299.287273 298.345332 
L 302.894545 298.345332 
L 306.501818 298.345332 
L 310.109091 298.345332 
L 313.716364 298.345332 
L 317.323636 298.345332 
L 320.930909 298.345332 
L 324.538182 298.345332 
L 328.145455 298.345332 
L 331.752727 298.345332 
L 335.36 298.345332 
L 338.967273 298.345332 
L 342.574545 298.345332 
L 346.181818 298.345332 
L 349.789091 298.345332 
L 353.396364 298.345332 
L 357.003636 298.345332 
L 360.610909 298.345332 
L 364.218182 298.345332 
L 367.825455 298.345332 
L 371.432727 298.345332 
L 375.04 298.345332 
L 378.647273 298.345332 
L 382.254545 298.345332 
L 385.861818 298.345332 
L 389.469091 298.345332 
L 393.076364 298.345332 
L 396.683636 298.345332 
L 400.290909 298.345332 
L 403.898182 298.345332 
L 407.505455 298.345332 
L 411.112727 298.345332 
L 414.72 298.345332 
L 414.72 297.646881 
L 411.112727 297.646881 
L 407.505455 297.646881 
L 403.898182 297.646881 
L 400.290909 297.646881 
L 396.683636 297.646881 
L 393.076364 297.646881 
L 389.469091 297.646881 
L 385.861818 297.646881 
L 382.254545 297.646881 
L 378.647273 297.646881 
L 375.04 297.646881 
L 371.432727 297.646881 
L 367.825455 297.646881 
L 364.218182 297.646881 
L 360.610909 297.646881 
L 357.003636 297.646881 
L 353.396364 297.646881 
L 349.789091 297.646881 
L 346.181818 297.646881 
L 342.574545 297.646881 
L 338.967273 297.646881 
L 335.36 297.646881 
L 331.752727 297.646881 
L 328.145455 297.646881 
L 324.538182 297.646881 
L 320.930909 297.646881 
L 317.323636 297.646881 
L 313.716364 297.646881 
L 310.109091 297.646881 
L 306.501818 297.646881 
L 302.894545 297.646881 
L 299.287273 297.646881 
L 295.68 297.646881 
L 292.072727 297.646881 
L 288.465455 297.646881 
L 284.858182 297.646881 
L 281.250909 297.646881 
L 277.643636 297.646881 
L 274.036364 297.646881 
L 270.429091 297.646881 
L 266.821818 297.646881 
L 263.214545 297.646881 
L 259.607273 297.646881 
L 256 297.646881 
L 252.392727 297.646881 
L 248.785455 297.646881 
L 245.178182 297.646881 
L 241.570909 297.646881 
L 237.963636 297.646881 
L 234.356364 297.646881 
L 230.749091 297.646881 
L 227.141818 297.646881 
L 223.534545 297.646881 
L 219.927273 297.646881 
L 216.32 297.646881 
L 212.712727 297.646881 
L 209.105455 297.646881 
L 205.498182 297.646881 
L 201.890909 297.646881 
L 198.283636 297.646881 
L 194.676364 297.646881 
L 191.069091 297.646881 
L 187.461818 297.646881 
L 183.854545 297.646881 
L 180.247273 297.646881 
L 176.64 297.646881 
L 173.032727 297.646881 
L 169.425455 297.646881 
L 165.818182 297.646881 
L 162.210909 297.646881 
L 158.603636 297.758111 
L 154.996364 297.758111 
L 151.389091 297.758111 
L 147.781818 297.758111 
L 144.174545 297.758111 
L 140.567273 297.758111 
L 136.96 297.758111 
L 133.352727 297.758111 
L 129.745455 297.758111 
L 126.138182 297.758111 
L 122.530909 297.758111 
L 118.923636 297.758111 
L 115.316364 297.758111 
L 111.709091 297.758111 
L 108.101818 297.758111 
L 104.494545 297.758111 
L 100.887273 297.758111 
L 97.28 297.758111 
L 93.672727 297.758111 
L 90.065455 297.758111 
L 86.458182 297.758111 
L 82.850909 297.758111 
L 79.243636 297.758111 
L 75.636364 297.758111 
L 72.029091 297.758111 
L 68.421818 297.758111 
L 64.814545 297.758111 
L 61.207273 297.758111 
L 57.6 297.758111 
L 57.6 298.456562 
z
" clip-path="url(#p7f6551eb46)" style="fill: #2db27d; fill-opacity: 0.75"/>
   </g>
   <g id="PathCollection_6">
    <path d="M 61.207273 299.155013 
L 64.814545 299.155013 
L 68.421818 299.155013 
L 72.029091 299.155013 
L 75.636364 299.155013 
L 79.243636 299.155013 
L 82.850909 299.155013 
L 86.458182 299.155013 
L 90.065455 299.155013 
L 93.672727 299.155013 
L 97.28 299.155013 
L 100.887273 299.155013 
L 104.494545 299.155013 
L 108.101818 299.155013 
L 111.709091 299.155013 
L 115.316364 299.155013 
L 118.923636 299.155013 
L 122.530909 299.155013 
L 126.138182 299.155013 
L 129.745455 299.155013 
L 133.352727 299.155013 
L 136.96 299.155013 
L 140.567273 299.155013 
L 144.174545 299.155013 
L 147.781818 299.155013 
L 151.389091 299.155013 
L 154.996364 299.155013 
L 158.603636 299.155013 
L 162.210909 299.043783 
L 165.818182 299.043783 
L 169.425455 299.043783 
L 173.032727 299.043783 
L 176.64 299.043783 
L 180.247273 299.043783 
L 183.854545 299.043783 
L 187.461818 299.043783 
L 191.069091 299.043783 
L 194.676364 299.043783 
L 198.283636 299.043783 
L 201.890909 299.043783 
L 205.498182 299.043783 
L 209.105455 299.043783 
L 212.712727 299.043783 
L 216.32 299.043783 
L 219.927273 299.043783 
L 223.534545 299.043783 
L 227.141818 299.043783 
L 230.749091 299.043783 
L 234.356364 299.043783 
L 237.963636 299.043783 
L 241.570909 299.043783 
L 245.178182 299.043783 
L 248.785455 299.043783 
L 252.392727 299.043783 
L 256 299.043783 
L 259.607273 299.043783 
L 263.214545 299.043783 
L 266.821818 299.043783 
L 270.429091 299.043783 
L 274.036364 299.043783 
L 277.643636 299.043783 
L 281.250909 299.043783 
L 284.858182 299.043783 
L 288.465455 299.043783 
L 292.072727 299.043783 
L 295.68 299.043783 
L 299.287273 299.043783 
L 302.894545 299.043783 
L 306.501818 299.043783 
L 310.109091 299.043783 
L 313.716364 299.043783 
L 317.323636 299.043783 
L 320.930909 299.043783 
L 324.538182 299.043783 
L 328.145455 299.043783 
L 331.752727 299.043783 
L 335.36 299.043783 
L 338.967273 299.043783 
L 342.574545 299.043783 
L 346.181818 299.043783 
L 349.789091 299.043783 
L 353.396364 299.043783 
L 357.003636 299.043783 
L 360.610909 299.043783 
L 364.218182 299.043783 
L 367.825455 299.043783 
L 371.432727 299.043783 
L 375.04 299.043783 
L 378.647273 299.043783 
L 382.254545 299.043783 
L 385.861818 299.043783 
L 389.469091 299.043783 
L 393.076364 299.043783 
L 396.683636 299.043783 
L 400.290909 299.043783 
L 403.898182 299.043783 
L 407.505455 299.043783 
L 411.112727 299.043783 
L 414.72 299.043783 
L 414.72 298.345332 
L 411.112727 298.345332 
L 407.505455 298.345332 
L 403.898182 298.345332 
L 400.290909 298.345332 
L 396.683636 298.345332 
L 393.076364 298.345332 
L 389.469091 298.345332 
L 385.861818 298.345332 
L 382.254545 298.345332 
L 378.647273 298.345332 
L 375.04 298.345332 
L 371.432727 298.345332 
L 367.825455 298.345332 
L 364.218182 298.345332 
L 360.610909 298.345332 
L 357.003636 298.345332 
L 353.396364 298.345332 
L 349.789091 298.345332 
L 346.181818 298.345332 
L 342.574545 298.345332 
L 338.967273 298.345332 
L 335.36 298.345332 
L 331.752727 298.345332 
L 328.145455 298.345332 
L 324.538182 298.345332 
L 320.930909 298.345332 
L 317.323636 298.345332 
L 313.716364 298.345332 
L 310.109091 298.345332 
L 306.501818 298.345332 
L 302.894545 298.345332 
L 299.287273 298.345332 
L 295.68 298.345332 
L 292.072727 298.345332 
L 288.465455 298.345332 
L 284.858182 298.345332 
L 281.250909 298.345332 
L 277.643636 298.345332 
L 274.036364 298.345332 
L 270.429091 298.345332 
L 266.821818 298.345332 
L 263.214545 298.345332 
L 259.607273 298.345332 
L 256 298.345332 
L 252.392727 298.345332 
L 248.785455 298.345332 
L 245.178182 298.345332 
L 241.570909 298.345332 
L 237.963636 298.345332 
L 234.356364 298.345332 
L 230.749091 298.345332 
L 227.141818 298.345332 
L 223.534545 298.345332 
L 219.927273 298.345332 
L 216.32 298.345332 
L 212.712727 298.345332 
L 209.105455 298.345332 
L 205.498182 298.345332 
L 201.890909 298.345332 
L 198.283636 298.345332 
L 194.676364 298.345332 
L 191.069091 298.345332 
L 187.461818 298.345332 
L 183.854545 298.345332 
L 180.247273 298.345332 
L 176.64 298.345332 
L 173.032727 298.345332 
L 169.425455 298.345332 
L 165.818182 298.345332 
L 162.210909 298.345332 
L 158.603636 298.456562 
L 154.996364 298.456562 
L 151.389091 298.456562 
L 147.781818 298.456562 
L 144.174545 298.456562 
L 140.567273 298.456562 
L 136.96 298.456562 
L 133.352727 298.456562 
L 129.745455 298.456562 
L 126.138182 298.456562 
L 122.530909 298.456562 
L 118.923636 298.456562 
L 115.316364 298.456562 
L 111.709091 298.456562 
L 108.101818 298.456562 
L 104.494545 298.456562 
L 100.887273 298.456562 
L 97.28 298.456562 
L 93.672727 298.456562 
L 90.065455 298.456562 
L 86.458182 298.456562 
L 82.850909 298.456562 
L 79.243636 298.456562 
L 75.636364 298.456562 
L 72.029091 298.456562 
L 68.421818 298.456562 
L 64.814545 298.456562 
L 61.207273 298.456562 
L 57.6 298.456562 
L 57.6 299.155013 
z
" clip-path="url(#p7f6551eb46)" style="fill: #73d056; fill-opacity: 0.75"/>
   </g>
   <g id="PathCollection_7">
    <path d="M 61.207273 307.584 
L 64.814545 307.584 
L 68.421818 307.584 
L 72.029091 307.584 
L 75.636364 307.584 
L 79.243636 307.584 
L 82.850909 307.584 
L 86.458182 307.584 
L 90.065455 307.584 
L 93.672727 307.584 
L 97.28 307.584 
L 100.887273 307.584 
L 104.494545 307.584 
L 108.101818 307.584 
L 111.709091 307.584 
L 115.316364 307.584 
L 118.923636 307.584 
L 122.530909 307.584 
L 126.138182 307.584 
L 129.745455 307.584 
L 133.352727 307.584 
L 136.96 307.584 
L 140.567273 307.584 
L 144.174545 307.584 
L 147.781818 307.584 
L 151.389091 307.584 
L 154.996364 307.584 
L 158.603636 307.584 
L 162.210909 307.584 
L 165.818182 307.584 
L 169.425455 307.584 
L 173.032727 307.584 
L 176.64 307.584 
L 180.247273 307.584 
L 183.854545 307.584 
L 187.461818 307.584 
L 191.069091 307.584 
L 194.676364 307.584 
L 198.283636 307.584 
L 201.890909 307.584 
L 205.498182 307.584 
L 209.105455 307.584 
L 212.712727 307.584 
L 216.32 307.584 
L 219.927273 307.584 
L 223.534545 307.584 
L 227.141818 307.584 
L 230.749091 307.584 
L 234.356364 307.584 
L 237.963636 307.584 
L 241.570909 307.584 
L 245.178182 307.584 
L 248.785455 307.584 
L 252.392727 307.584 
L 256 307.584 
L 259.607273 307.584 
L 263.214545 307.584 
L 266.821818 307.584 
L 270.429091 307.584 
L 274.036364 307.584 
L 277.643636 307.584 
L 281.250909 307.584 
L 284.858182 307.584 
L 288.465455 307.584 
L 292.072727 307.584 
L 295.68 307.584 
L 299.287273 307.584 
L 302.894545 307.584 
L 306.501818 307.584 
L 310.109091 307.584 
L 313.716364 307.584 
L 317.323636 307.584 
L 320.930909 307.584 
L 324.538182 307.584 
L 328.145455 307.584 
L 331.752727 307.584 
L 335.36 307.584 
L 338.967273 307.584 
L 342.574545 307.584 
L 346.181818 307.584 
L 349.789091 307.584 
L 353.396364 307.584 
L 357.003636 307.584 
L 360.610909 307.584 
L 364.218182 307.584 
L 367.825455 307.584 
L 371.432727 307.584 
L 375.04 307.584 
L 378.647273 307.584 
L 382.254545 307.584 
L 385.861818 307.584 
L 389.469091 307.584 
L 393.076364 307.584 
L 396.683636 307.584 
L 400.290909 307.584 
L 403.898182 307.584 
L 407.505455 307.584 
L 411.112727 307.584 
L 414.72 307.584 
L 414.72 304.896 
L 414.72 302.208 
L 414.72 299.52 
L 414.72 299.043783 
L 411.112727 299.043783 
L 407.505455 299.043783 
L 403.898182 299.043783 
L 400.290909 299.043783 
L 396.683636 299.043783 
L 393.076364 299.043783 
L 389.469091 299.043783 
L 385.861818 299.043783 
L 382.254545 299.043783 
L 378.647273 299.043783 
L 375.04 299.043783 
L 371.432727 299.043783 
L 367.825455 299.043783 
L 364.218182 299.043783 
L 360.610909 299.043783 
L 357.003636 299.043783 
L 353.396364 299.043783 
L 349.789091 299.043783 
L 346.181818 299.043783 
L 342.574545 299.043783 
L 338.967273 299.043783 
L 335.36 299.043783 
L 331.752727 299.043783 
L 328.145455 299.043783 
L 324.538182 299.043783 
L 320.930909 299.043783 
L 317.323636 299.043783 
L 313.716364 299.043783 
L 310.109091 299.043783 
L 306.501818 299.043783 
L 302.894545 299.043783 
L 299.287273 299.043783 
L 295.68 299.043783 
L 292.072727 299.043783 
L 288.465455 299.043783 
L 284.858182 299.043783 
L 281.250909 299.043783 
L 277.643636 299.043783 
L 274.036364 299.043783 
L 270.429091 299.043783 
L 266.821818 299.043783 
L 263.214545 299.043783 
L 259.607273 299.043783 
L 256 299.043783 
L 252.392727 299.043783 
L 248.785455 299.043783 
L 245.178182 299.043783 
L 241.570909 299.043783 
L 237.963636 299.043783 
L 234.356364 299.043783 
L 230.749091 299.043783 
L 227.141818 299.043783 
L 223.534545 299.043783 
L 219.927273 299.043783 
L 216.32 299.043783 
L 212.712727 299.043783 
L 209.105455 299.043783 
L 205.498182 299.043783 
L 201.890909 299.043783 
L 198.283636 299.043783 
L 194.676364 299.043783 
L 191.069091 299.043783 
L 187.461818 299.043783 
L 183.854545 299.043783 
L 180.247273 299.043783 
L 176.64 299.043783 
L 173.032727 299.043783 
L 169.425455 299.043783 
L 165.818182 299.043783 
L 162.210909 299.043783 
L 158.603636 299.155013 
L 154.996364 299.155013 
L 151.389091 299.155013 
L 147.781818 299.155013 
L 144.174545 299.155013 
L 140.567273 299.155013 
L 136.96 299.155013 
L 133.352727 299.155013 
L 129.745455 299.155013 
L 126.138182 299.155013 
L 122.530909 299.155013 
L 118.923636 299.155013 
L 115.316364 299.155013 
L 111.709091 299.155013 
L 108.101818 299.155013 
L 104.494545 299.155013 
L 100.887273 299.155013 
L 97.28 299.155013 
L 93.672727 299.155013 
L 90.065455 299.155013 
L 86.458182 299.155013 
L 82.850909 299.155013 
L 79.243636 299.155013 
L 75.636364 299.155013 
L 72.029091 299.155013 
L 68.421818 299.155013 
L 64.814545 299.155013 
L 61.207273 299.155013 
L 57.6 299.155013 
L 57.6 299.52 
L 57.6 302.208 
L 57.6 304.896 
L 57.6 307.584 
z
" clip-path="url(#p7f6551eb46)" style="fill: #d0e11c; fill-opacity: 0.75"/>
   </g>
   <g id="matplotlib.axis_1">
    <g id="xtick_1">
     <g id="line2d_1">
      <defs>
       <path id="m2983138ff0" d="M 0 0 
L 0 3.5 
" style="stroke: #000000; stroke-width: 0.8"/>
      </defs>
      <g>
       <use xlink:href="#m2983138ff0" x="63.755427" y="307.584" style="stroke: #000000; stroke-width: 0.8"/>
      </g>
     </g>
     <g id="text_1">
      <!-- 0.05 -->
      <g transform="translate(52.622615 322.182437) scale(0.1 -0.1)">
       <defs>
        <path id="DejaVuSans-30" d="M 2034 4250 
Q 1547 4250 1301 3770 
Q 1056 3291 1056 2328 
Q 1056 1369 1301 889 
Q 1547 409 2034 409 
Q 2525 409 2770 889 
Q 3016 1369 3016 2328 
Q 3016 3291 2770 3770 
Q 2525 4250 2034 4250 
z
M 2034 4750 
Q 2819 4750 3233 4129 
Q 3647 3509 3647 2328 
Q 3647 1150 3233 529 
Q 2819 -91 2034 -91 
Q 1250 -91 836 529 
Q 422 1150 422 2328 
Q 422 3509 836 4129 
Q 1250 4750 2034 4750 
z
" transform="scale(0.015625)"/>
        <path id="DejaVuSans-2e" d="M 684 794 
L 1344 794 
L 1344 0 
L 684 0 
L 684 794 
z
" transform="scale(0.015625)"/>
        <path id="DejaVuSans-35" d="M 691 4666 
L 3169 4666 
L 3169 4134 
L 1269 4134 
L 1269 2991 
Q 1406 3038 1543 3061 
Q 1681 3084 1819 3084 
Q 2600 3084 3056 2656 
Q 3513 2228 3513 1497 
Q 3513 744 3044 326 
Q 2575 -91 1722 -91 
Q 1428 -91 1123 -41 
Q 819 9 494 109 
L 494 744 
Q 775 591 1075 516 
Q 1375 441 1709 441 
Q 2250 441 2565 725 
Q 2881 1009 2881 1497 
Q 2881 1984 2565 2268 
Q 2250 2553 1709 2553 
Q 1456 2553 1204 2497 
Q 953 2441 691 2322 
L 691 4666 
z
" transform="scale(0.015625)"/>
       </defs>
       <use xlink:href="#DejaVuSans-30"/>
       <use xlink:href="#DejaVuSans-2e" x="63.623047"/>
       <use xlink:href="#DejaVuSans-30" x="95.410156"/>
       <use xlink:href="#DejaVuSans-35" x="159.033203"/>
      </g>
     </g>
    </g>
    <g id="xtick_2">
     <g id="line2d_2">
      <g>
       <use xlink:href="#m2983138ff0" x="129.518539" y="307.584" style="stroke: #000000; stroke-width: 0.8"/>
      </g>
     </g>
     <g id="text_2">
      <!-- 0.10 -->
      <g transform="translate(118.385726 322.182437) scale(0.1 -0.1)">
       <defs>
        <path id="DejaVuSans-31" d="M 794 531 
L 1825 531 
L 1825 4091 
L 703 3866 
L 703 4441 
L 1819 4666 
L 2450 4666 
L 2450 531 
L 3481 531 
L 3481 0 
L 794 0 
L 794 531 
z
" transform="scale(0.015625)"/>
       </defs>
       <use xlink:href="#DejaVuSans-30"/>
       <use xlink:href="#DejaVuSans-2e" x="63.623047"/>
       <use xlink:href="#DejaVuSans-31" x="95.410156"/>
       <use xlink:href="#DejaVuSans-30" x="159.033203"/>
      </g>
     </g>
    </g>
    <g id="xtick_3">
     <g id="line2d_3">
      <g>
       <use xlink:href="#m2983138ff0" x="195.28165" y="307.584" style="stroke: #000000; stroke-width: 0.8"/>
      </g>
     </g>
     <g id="text_3">
      <!-- 0.15 -->
      <g transform="translate(184.148837 322.182437) scale(0.1 -0.1)">
       <use xlink:href="#DejaVuSans-30"/>
       <use xlink:href="#DejaVuSans-2e" x="63.623047"/>
       <use xlink:href="#DejaVuSans-31" x="95.410156"/>
       <use xlink:href="#DejaVuSans-35" x="159.033203"/>
      </g>
     </g>
    </g>
    <g id="xtick_4">
     <g id="line2d_4">
      <g>
       <use xlink:href="#m2983138ff0" x="261.044761" y="307.584" style="stroke: #000000; stroke-width: 0.8"/>
      </g>
     </g>
     <g id="text_4">
      <!-- 0.20 -->
      <g transform="translate(249.911949 322.182437) scale(0.1 -0.1)">
       <defs>
        <path id="DejaVuSans-32" d="M 1228 531 
L 3431 531 
L 3431 0 
L 469 0 
L 469 531 
Q 828 903 1448 1529 
Q 2069 2156 2228 2338 
Q 2531 2678 2651 2914 
Q 2772 3150 2772 3378 
Q 2772 3750 2511 3984 
Q 2250 4219 1831 4219 
Q 1534 4219 1204 4116 
Q 875 4013 500 3803 
L 500 4441 
Q 881 4594 1212 4672 
Q 1544 4750 1819 4750 
Q 2544 4750 2975 4387 
Q 3406 4025 3406 3419 
Q 3406 3131 3298 2873 
Q 3191 2616 2906 2266 
Q 2828 2175 2409 1742 
Q 1991 1309 1228 531 
z
" transform="scale(0.015625)"/>
       </defs>
       <use xlink:href="#DejaVuSans-30"/>
       <use xlink:href="#DejaVuSans-2e" x="63.623047"/>
       <use xlink:href="#DejaVuSans-32" x="95.410156"/>
       <use xlink:href="#DejaVuSans-30" x="159.033203"/>
      </g>
     </g>
    </g>
    <g id="xtick_5">
     <g id="line2d_5">
      <g>
       <use xlink:href="#m2983138ff0" x="326.807873" y="307.584" style="stroke: #000000; stroke-width: 0.8"/>
      </g>
     </g>
     <g id="text_5">
      <!-- 0.25 -->
      <g transform="translate(315.67506 322.182437) scale(0.1 -0.1)">
       <use xlink:href="#DejaVuSans-30"/>
       <use xlink:href="#DejaVuSans-2e" x="63.623047"/>
       <use xlink:href="#DejaVuSans-32" x="95.410156"/>
       <use xlink:href="#DejaVuSans-35" x="159.033203"/>
      </g>
     </g>
    </g>
    <g id="xtick_6">
     <g id="line2d_6">
      <g>
       <use xlink:href="#m2983138ff0" x="392.570984" y="307.584" style="stroke: #000000; stroke-width: 0.8"/>
      </g>
     </g>
     <g id="text_6">
      <!-- 0.30 -->
      <g transform="translate(381.438172 322.182437) scale(0.1 -0.1)">
       <defs>
        <path id="DejaVuSans-33" d="M 2597 2516 
Q 3050 2419 3304 2112 
Q 3559 1806 3559 1356 
Q 3559 666 3084 287 
Q 2609 -91 1734 -91 
Q 1441 -91 1130 -33 
Q 819 25 488 141 
L 488 750 
Q 750 597 1062 519 
Q 1375 441 1716 441 
Q 2309 441 2620 675 
Q 2931 909 2931 1356 
Q 2931 1769 2642 2001 
Q 2353 2234 1838 2234 
L 1294 2234 
L 1294 2753 
L 1863 2753 
Q 2328 2753 2575 2939 
Q 2822 3125 2822 3475 
Q 2822 3834 2567 4026 
Q 2313 4219 1838 4219 
Q 1578 4219 1281 4162 
Q 984 4106 628 3988 
L 628 4550 
Q 988 4650 1302 4700 
Q 1616 4750 1894 4750 
Q 2613 4750 3031 4423 
Q 3450 4097 3450 3541 
Q 3450 3153 3228 2886 
Q 3006 2619 2597 2516 
z
" transform="scale(0.015625)"/>
       </defs>
       <use xlink:href="#DejaVuSans-30"/>
       <use xlink:href="#DejaVuSans-2e" x="63.623047"/>
       <use xlink:href="#DejaVuSans-33" x="95.410156"/>
       <use xlink:href="#DejaVuSans-30" x="159.033203"/>
      </g>
     </g>
    </g>
    <g id="text_7">
     <!-- Obesity Rate -->
     <g transform="translate(204.008437 335.860562) scale(0.1 -0.1)">
      <defs>
       <path id="DejaVuSans-4f" d="M 2522 4238 
Q 1834 4238 1429 3725 
Q 1025 3213 1025 2328 
Q 1025 1447 1429 934 
Q 1834 422 2522 422 
Q 3209 422 3611 934 
Q 4013 1447 4013 2328 
Q 4013 3213 3611 3725 
Q 3209 4238 2522 4238 
z
M 2522 4750 
Q 3503 4750 4090 4092 
Q 4678 3434 4678 2328 
Q 4678 1225 4090 567 
Q 3503 -91 2522 -91 
Q 1538 -91 948 565 
Q 359 1222 359 2328 
Q 359 3434 948 4092 
Q 1538 4750 2522 4750 
z
" transform="scale(0.015625)"/>
       <path id="DejaVuSans-62" d="M 3116 1747 
Q 3116 2381 2855 2742 
Q 2594 3103 2138 3103 
Q 1681 3103 1420 2742 
Q 1159 2381 1159 1747 
Q 1159 1113 1420 752 
Q 1681 391 2138 391 
Q 2594 391 2855 752 
Q 3116 1113 3116 1747 
z
M 1159 2969 
Q 1341 3281 1617 3432 
Q 1894 3584 2278 3584 
Q 2916 3584 3314 3078 
Q 3713 2572 3713 1747 
Q 3713 922 3314 415 
Q 2916 -91 2278 -91 
Q 1894 -91 1617 61 
Q 1341 213 1159 525 
L 1159 0 
L 581 0 
L 581 4863 
L 1159 4863 
L 1159 2969 
z
" transform="scale(0.015625)"/>
       <path id="DejaVuSans-65" d="M 3597 1894 
L 3597 1613 
L 953 1613 
Q 991 1019 1311 708 
Q 1631 397 2203 397 
Q 2534 397 2845 478 
Q 3156 559 3463 722 
L 3463 178 
Q 3153 47 2828 -22 
Q 2503 -91 2169 -91 
Q 1331 -91 842 396 
Q 353 884 353 1716 
Q 353 2575 817 3079 
Q 1281 3584 2069 3584 
Q 2775 3584 3186 3129 
Q 3597 2675 3597 1894 
z
M 3022 2063 
Q 3016 2534 2758 2815 
Q 2500 3097 2075 3097 
Q 1594 3097 1305 2825 
Q 1016 2553 972 2059 
L 3022 2063 
z
" transform="scale(0.015625)"/>
       <path id="DejaVuSans-73" d="M 2834 3397 
L 2834 2853 
Q 2591 2978 2328 3040 
Q 2066 3103 1784 3103 
Q 1356 3103 1142 2972 
Q 928 2841 928 2578 
Q 928 2378 1081 2264 
Q 1234 2150 1697 2047 
L 1894 2003 
Q 2506 1872 2764 1633 
Q 3022 1394 3022 966 
Q 3022 478 2636 193 
Q 2250 -91 1575 -91 
Q 1294 -91 989 -36 
Q 684 19 347 128 
L 347 722 
Q 666 556 975 473 
Q 1284 391 1588 391 
Q 1994 391 2212 530 
Q 2431 669 2431 922 
Q 2431 1156 2273 1281 
Q 2116 1406 1581 1522 
L 1381 1569 
Q 847 1681 609 1914 
Q 372 2147 372 2553 
Q 372 3047 722 3315 
Q 1072 3584 1716 3584 
Q 2034 3584 2315 3537 
Q 2597 3491 2834 3397 
z
" transform="scale(0.015625)"/>
       <path id="DejaVuSans-69" d="M 603 3500 
L 1178 3500 
L 1178 0 
L 603 0 
L 603 3500 
z
M 603 4863 
L 1178 4863 
L 1178 4134 
L 603 4134 
L 603 4863 
z
" transform="scale(0.015625)"/>
       <path id="DejaVuSans-74" d="M 1172 4494 
L 1172 3500 
L 2356 3500 
L 2356 3053 
L 1172 3053 
L 1172 1153 
Q 1172 725 1289 603 
Q 1406 481 1766 481 
L 2356 481 
L 2356 0 
L 1766 0 
Q 1100 0 847 248 
Q 594 497 594 1153 
L 594 3053 
L 172 3053 
L 172 3500 
L 594 3500 
L 594 4494 
L 1172 4494 
z
" transform="scale(0.015625)"/>
       <path id="DejaVuSans-79" d="M 2059 -325 
Q 1816 -950 1584 -1140 
Q 1353 -1331 966 -1331 
L 506 -1331 
L 506 -850 
L 844 -850 
Q 1081 -850 1212 -737 
Q 1344 -625 1503 -206 
L 1606 56 
L 191 3500 
L 800 3500 
L 1894 763 
L 2988 3500 
L 3597 3500 
L 2059 -325 
z
" transform="scale(0.015625)"/>
       <path id="DejaVuSans-20" transform="scale(0.015625)"/>
       <path id="DejaVuSans-52" d="M 2841 2188 
Q 3044 2119 3236 1894 
Q 3428 1669 3622 1275 
L 4263 0 
L 3584 0 
L 2988 1197 
Q 2756 1666 2539 1819 
Q 2322 1972 1947 1972 
L 1259 1972 
L 1259 0 
L 628 0 
L 628 4666 
L 2053 4666 
Q 2853 4666 3247 4331 
Q 3641 3997 3641 3322 
Q 3641 2881 3436 2590 
Q 3231 2300 2841 2188 
z
M 1259 4147 
L 1259 2491 
L 2053 2491 
Q 2509 2491 2742 2702 
Q 2975 2913 2975 3322 
Q 2975 3731 2742 3939 
Q 2509 4147 2053 4147 
L 1259 4147 
z
" transform="scale(0.015625)"/>
       <path id="DejaVuSans-61" d="M 2194 1759 
Q 1497 1759 1228 1600 
Q 959 1441 959 1056 
Q 959 750 1161 570 
Q 1363 391 1709 391 
Q 2188 391 2477 730 
Q 2766 1069 2766 1631 
L 2766 1759 
L 2194 1759 
z
M 3341 1997 
L 3341 0 
L 2766 0 
L 2766 531 
Q 2569 213 2275 61 
Q 1981 -91 1556 -91 
Q 1019 -91 701 211 
Q 384 513 384 1019 
Q 384 1609 779 1909 
Q 1175 2209 1959 2209 
L 2766 2209 
L 2766 2266 
Q 2766 2663 2505 2880 
Q 2244 3097 1772 3097 
Q 1472 3097 1187 3025 
Q 903 2953 641 2809 
L 641 3341 
Q 956 3463 1253 3523 
Q 1550 3584 1831 3584 
Q 2591 3584 2966 3190 
Q 3341 2797 3341 1997 
z
" transform="scale(0.015625)"/>
      </defs>
      <use xlink:href="#DejaVuSans-4f"/>
      <use xlink:href="#DejaVuSans-62" x="78.710938"/>
      <use xlink:href="#DejaVuSans-65" x="142.1875"/>
      <use xlink:href="#DejaVuSans-73" x="203.710938"/>
      <use xlink:href="#DejaVuSans-69" x="255.810547"/>
      <use xlink:href="#DejaVuSans-74" x="283.59375"/>
      <use xlink:href="#DejaVuSans-79" x="322.802734"/>
      <use xlink:href="#DejaVuSans-20" x="381.982422"/>
      <use xlink:href="#DejaVuSans-52" x="413.769531"/>
      <use xlink:href="#DejaVuSans-61" x="481.001953"/>
      <use xlink:href="#DejaVuSans-74" x="542.28125"/>
      <use xlink:href="#DejaVuSans-65" x="581.490234"/>
     </g>
    </g>
   </g>
   <g id="matplotlib.axis_2">
    <g id="ytick_1">
     <g id="line2d_7">
      <defs>
       <path id="mc1fe0c6878" d="M 0 0 
L -3.5 0 
" style="stroke: #000000; stroke-width: 0.8"/>
      </defs>
      <g>
       <use xlink:href="#mc1fe0c6878" x="57.6" y="307.584" style="stroke: #000000; stroke-width: 0.8"/>
      </g>
     </g>
     <g id="text_8">
      <!-- 0 -->
      <g transform="translate(44.2375 311.383219) scale(0.1 -0.1)">
       <use xlink:href="#DejaVuSans-30"/>
      </g>
     </g>
    </g>
    <g id="ytick_2">
     <g id="line2d_8">
      <g>
       <use xlink:href="#mc1fe0c6878" x="57.6" y="261.002523" style="stroke: #000000; stroke-width: 0.8"/>
      </g>
     </g>
     <g id="text_9">
      <!-- 1 -->
      <g transform="translate(44.2375 264.801742) scale(0.1 -0.1)">
       <use xlink:href="#DejaVuSans-31"/>
      </g>
     </g>
    </g>
    <g id="ytick_3">
     <g id="line2d_9">
      <g>
       <use xlink:href="#mc1fe0c6878" x="57.6" y="214.421047" style="stroke: #000000; stroke-width: 0.8"/>
      </g>
     </g>
     <g id="text_10">
      <!-- 2 -->
      <g transform="translate(44.2375 218.220265) scale(0.1 -0.1)">
       <use xlink:href="#DejaVuSans-32"/>
      </g>
     </g>
    </g>
    <g id="ytick_4">
     <g id="line2d_10">
      <g>
       <use xlink:href="#mc1fe0c6878" x="57.6" y="167.83957" style="stroke: #000000; stroke-width: 0.8"/>
      </g>
     </g>
     <g id="text_11">
      <!-- 3 -->
      <g transform="translate(44.2375 171.638789) scale(0.1 -0.1)">
       <use xlink:href="#DejaVuSans-33"/>
      </g>
     </g>
    </g>
    <g id="ytick_5">
     <g id="line2d_11">
      <g>
       <use xlink:href="#mc1fe0c6878" x="57.6" y="121.258093" style="stroke: #000000; stroke-width: 0.8"/>
      </g>
     </g>
     <g id="text_12">
      <!-- 4 -->
      <g transform="translate(44.2375 125.057312) scale(0.1 -0.1)">
       <defs>
        <path id="DejaVuSans-34" d="M 2419 4116 
L 825 1625 
L 2419 1625 
L 2419 4116 
z
M 2253 4666 
L 3047 4666 
L 3047 1625 
L 3713 1625 
L 3713 1100 
L 3047 1100 
L 3047 0 
L 2419 0 
L 2419 1100 
L 313 1100 
L 313 1709 
L 2253 4666 
z
" transform="scale(0.015625)"/>
       </defs>
       <use xlink:href="#DejaVuSans-34"/>
      </g>
     </g>
    </g>
    <g id="ytick_6">
     <g id="line2d_12">
      <g>
       <use xlink:href="#mc1fe0c6878" x="57.6" y="74.676617" style="stroke: #000000; stroke-width: 0.8"/>
      </g>
     </g>
     <g id="text_13">
      <!-- 5 -->
      <g transform="translate(44.2375 78.475836) scale(0.1 -0.1)">
       <use xlink:href="#DejaVuSans-35"/>
      </g>
     </g>
    </g>
    <g id="text_14">
     <!-- Other Meat Consumption -->
     <g transform="translate(38.157812 237.432687) rotate(-90) scale(0.1 -0.1)">
      <defs>
       <path id="DejaVuSans-68" d="M 3513 2113 
L 3513 0 
L 2938 0 
L 2938 2094 
Q 2938 2591 2744 2837 
Q 2550 3084 2163 3084 
Q 1697 3084 1428 2787 
Q 1159 2491 1159 1978 
L 1159 0 
L 581 0 
L 581 4863 
L 1159 4863 
L 1159 2956 
Q 1366 3272 1645 3428 
Q 1925 3584 2291 3584 
Q 2894 3584 3203 3211 
Q 3513 2838 3513 2113 
z
" transform="scale(0.015625)"/>
       <path id="DejaVuSans-72" d="M 2631 2963 
Q 2534 3019 2420 3045 
Q 2306 3072 2169 3072 
Q 1681 3072 1420 2755 
Q 1159 2438 1159 1844 
L 1159 0 
L 581 0 
L 581 3500 
L 1159 3500 
L 1159 2956 
Q 1341 3275 1631 3429 
Q 1922 3584 2338 3584 
Q 2397 3584 2469 3576 
Q 2541 3569 2628 3553 
L 2631 2963 
z
" transform="scale(0.015625)"/>
       <path id="DejaVuSans-4d" d="M 628 4666 
L 1569 4666 
L 2759 1491 
L 3956 4666 
L 4897 4666 
L 4897 0 
L 4281 0 
L 4281 4097 
L 3078 897 
L 2444 897 
L 1241 4097 
L 1241 0 
L 628 0 
L 628 4666 
z
" transform="scale(0.015625)"/>
       <path id="DejaVuSans-43" d="M 4122 4306 
L 4122 3641 
Q 3803 3938 3442 4084 
Q 3081 4231 2675 4231 
Q 1875 4231 1450 3742 
Q 1025 3253 1025 2328 
Q 1025 1406 1450 917 
Q 1875 428 2675 428 
Q 3081 428 3442 575 
Q 3803 722 4122 1019 
L 4122 359 
Q 3791 134 3420 21 
Q 3050 -91 2638 -91 
Q 1578 -91 968 557 
Q 359 1206 359 2328 
Q 359 3453 968 4101 
Q 1578 4750 2638 4750 
Q 3056 4750 3426 4639 
Q 3797 4528 4122 4306 
z
" transform="scale(0.015625)"/>
       <path id="DejaVuSans-6f" d="M 1959 3097 
Q 1497 3097 1228 2736 
Q 959 2375 959 1747 
Q 959 1119 1226 758 
Q 1494 397 1959 397 
Q 2419 397 2687 759 
Q 2956 1122 2956 1747 
Q 2956 2369 2687 2733 
Q 2419 3097 1959 3097 
z
M 1959 3584 
Q 2709 3584 3137 3096 
Q 3566 2609 3566 1747 
Q 3566 888 3137 398 
Q 2709 -91 1959 -91 
Q 1206 -91 779 398 
Q 353 888 353 1747 
Q 353 2609 779 3096 
Q 1206 3584 1959 3584 
z
" transform="scale(0.015625)"/>
       <path id="DejaVuSans-6e" d="M 3513 2113 
L 3513 0 
L 2938 0 
L 2938 2094 
Q 2938 2591 2744 2837 
Q 2550 3084 2163 3084 
Q 1697 3084 1428 2787 
Q 1159 2491 1159 1978 
L 1159 0 
L 581 0 
L 581 3500 
L 1159 3500 
L 1159 2956 
Q 1366 3272 1645 3428 
Q 1925 3584 2291 3584 
Q 2894 3584 3203 3211 
Q 3513 2838 3513 2113 
z
" transform="scale(0.015625)"/>
       <path id="DejaVuSans-75" d="M 544 1381 
L 544 3500 
L 1119 3500 
L 1119 1403 
Q 1119 906 1312 657 
Q 1506 409 1894 409 
Q 2359 409 2629 706 
Q 2900 1003 2900 1516 
L 2900 3500 
L 3475 3500 
L 3475 0 
L 2900 0 
L 2900 538 
Q 2691 219 2414 64 
Q 2138 -91 1772 -91 
Q 1169 -91 856 284 
Q 544 659 544 1381 
z
M 1991 3584 
L 1991 3584 
z
" transform="scale(0.015625)"/>
       <path id="DejaVuSans-6d" d="M 3328 2828 
Q 3544 3216 3844 3400 
Q 4144 3584 4550 3584 
Q 5097 3584 5394 3201 
Q 5691 2819 5691 2113 
L 5691 0 
L 5113 0 
L 5113 2094 
Q 5113 2597 4934 2840 
Q 4756 3084 4391 3084 
Q 3944 3084 3684 2787 
Q 3425 2491 3425 1978 
L 3425 0 
L 2847 0 
L 2847 2094 
Q 2847 2600 2669 2842 
Q 2491 3084 2119 3084 
Q 1678 3084 1418 2786 
Q 1159 2488 1159 1978 
L 1159 0 
L 581 0 
L 581 3500 
L 1159 3500 
L 1159 2956 
Q 1356 3278 1631 3431 
Q 1906 3584 2284 3584 
Q 2666 3584 2933 3390 
Q 3200 3197 3328 2828 
z
" transform="scale(0.015625)"/>
       <path id="DejaVuSans-70" d="M 1159 525 
L 1159 -1331 
L 581 -1331 
L 581 3500 
L 1159 3500 
L 1159 2969 
Q 1341 3281 1617 3432 
Q 1894 3584 2278 3584 
Q 2916 3584 3314 3078 
Q 3713 2572 3713 1747 
Q 3713 922 3314 415 
Q 2916 -91 2278 -91 
Q 1894 -91 1617 61 
Q 1341 213 1159 525 
z
M 3116 1747 
Q 3116 2381 2855 2742 
Q 2594 3103 2138 3103 
Q 1681 3103 1420 2742 
Q 1159 2381 1159 1747 
Q 1159 1113 1420 752 
Q 1681 391 2138 391 
Q 2594 391 2855 752 
Q 3116 1113 3116 1747 
z
" transform="scale(0.015625)"/>
      </defs>
      <use xlink:href="#DejaVuSans-4f"/>
      <use xlink:href="#DejaVuSans-74" x="78.710938"/>
      <use xlink:href="#DejaVuSans-68" x="117.919922"/>
      <use xlink:href="#DejaVuSans-65" x="181.298828"/>
      <use xlink:href="#DejaVuSans-72" x="242.822266"/>
      <use xlink:href="#DejaVuSans-20" x="283.935547"/>
      <use xlink:href="#DejaVuSans-4d" x="315.722656"/>
      <use xlink:href="#DejaVuSans-65" x="402.001953"/>
      <use xlink:href="#DejaVuSans-61" x="463.525391"/>
      <use xlink:href="#DejaVuSans-74" x="524.804688"/>
      <use xlink:href="#DejaVuSans-20" x="564.013672"/>
      <use xlink:href="#DejaVuSans-43" x="595.800781"/>
      <use xlink:href="#DejaVuSans-6f" x="665.625"/>
      <use xlink:href="#DejaVuSans-6e" x="726.806641"/>
      <use xlink:href="#DejaVuSans-73" x="790.185547"/>
      <use xlink:href="#DejaVuSans-75" x="842.285156"/>
      <use xlink:href="#DejaVuSans-6d" x="905.664062"/>
      <use xlink:href="#DejaVuSans-70" x="1003.076172"/>
      <use xlink:href="#DejaVuSans-74" x="1066.552734"/>
      <use xlink:href="#DejaVuSans-69" x="1105.761719"/>
      <use xlink:href="#DejaVuSans-6f" x="1133.544922"/>
      <use xlink:href="#DejaVuSans-6e" x="1194.726562"/>
     </g>
    </g>
   </g>
   <g id="PathCollection_8"/>
   <g id="PathCollection_9">
    <path d="M 414.72 278.863708 
L 411.112727 278.863708 
L 407.505455 278.863708 
L 403.898182 278.863708 
L 400.290909 278.863708 
L 396.683636 278.863708 
L 393.076364 278.863708 
L 389.469091 278.863708 
L 385.861818 278.863708 
L 382.254545 278.863708 
L 378.647273 278.863708 
L 375.04 278.863708 
L 371.432727 278.863708 
L 367.825455 278.863708 
L 364.218182 278.863708 
L 364.136818 278.863708 
" clip-path="url(#p7f6551eb46)" style="fill: none; stroke: #000000; stroke-width: 0.5"/>
    <path d="M 328.226818 278.863708 
L 328.145455 278.863708 
L 324.538182 278.863708 
L 320.930909 278.863708 
L 317.323636 278.863708 
L 313.716364 278.863708 
L 310.109091 278.863708 
L 306.501818 278.863708 
L 302.894545 278.863708 
L 299.287273 278.863708 
L 295.68 278.863708 
L 292.072727 278.863708 
L 288.465455 278.863708 
L 284.858182 278.863708 
L 281.250909 278.863708 
L 277.643636 278.863708 
L 274.036364 278.863708 
L 270.429091 278.863708 
L 266.821818 278.863708 
L 263.214545 278.863708 
L 259.607273 278.863708 
L 256 278.863708 
L 252.392727 278.863708 
L 248.785455 278.863708 
L 245.178182 278.863708 
L 241.570909 278.863708 
L 237.963636 278.863708 
L 234.356364 278.863708 
L 230.749091 278.863708 
L 227.141818 278.863708 
L 223.534545 278.863708 
L 219.927273 278.863708 
L 216.32 278.863708 
L 212.712727 278.863708 
L 209.105455 278.863708 
L 205.498182 278.863708 
L 201.890909 278.863708 
L 198.283636 278.863708 
L 194.676364 278.863708 
L 191.069091 278.863708 
L 187.461818 278.863708 
L 183.854545 278.863708 
L 180.247273 278.863708 
L 176.64 278.863708 
L 173.032727 278.863708 
L 169.425455 278.863708 
L 165.818182 278.863708 
L 162.210909 278.863708 
L 158.603636 279.122048 
L 154.996364 279.122048 
L 151.389091 279.122048 
L 147.781818 279.122048 
L 144.174545 279.122048 
L 140.567273 279.122048 
L 136.96 279.122048 
L 133.352727 279.122048 
L 129.745455 279.122048 
L 126.138182 279.122048 
L 122.530909 279.122048 
L 118.923636 279.122048 
L 115.316364 279.122048 
L 111.709091 279.122048 
L 108.101818 279.122048 
L 104.494545 279.122048 
L 100.887273 279.122048 
L 97.28 279.122048 
L 93.672727 279.122048 
L 90.065455 279.122048 
L 86.458182 279.122048 
L 82.850909 279.122048 
L 79.243636 279.122048 
L 75.636364 279.122048 
L 72.029091 279.122048 
L 68.421818 279.122048 
L 64.814545 279.122048 
L 61.207273 279.122048 
L 57.6 279.122048 
" clip-path="url(#p7f6551eb46)" style="fill: none; stroke: #000000; stroke-width: 0.5"/>
    <path d="M 57.6 265.324261 
L 61.207273 265.324261 
L 64.814545 265.324261 
L 68.421818 265.324261 
L 72.029091 265.324261 
L 75.636364 265.324261 
L 79.243636 265.324261 
L 82.850909 265.324261 
L 86.458182 265.324261 
L 90.065455 265.324261 
L 93.672727 265.324261 
L 97.28 265.324261 
L 100.887273 265.324261 
L 104.494545 265.324261 
L 108.101818 265.324261 
L 111.709091 265.324261 
L 115.316364 265.324261 
L 118.923636 265.324261 
L 122.530909 265.324261 
L 126.138182 265.324261 
L 129.745455 265.324261 
L 133.352727 265.324261 
L 136.96 265.324261 
L 140.567273 265.324261 
L 144.174545 265.324261 
L 147.781818 265.324261 
L 151.389091 265.324261 
L 154.996364 265.324261 
L 158.603636 265.324261 
L 162.210909 265.777326 
L 165.818182 265.777326 
L 169.425455 265.777326 
L 173.032727 265.777326 
L 176.64 265.777326 
L 180.247273 265.777326 
L 183.854545 265.777326 
L 187.461818 265.777326 
L 191.069091 265.777326 
L 194.676364 265.777326 
L 198.283636 265.777326 
L 201.890909 265.777326 
L 205.498182 265.777326 
L 209.105455 265.777326 
L 212.712727 265.777326 
L 216.32 265.777326 
L 219.927273 265.777326 
L 223.534545 265.777326 
L 227.141818 265.777326 
L 230.749091 265.777326 
L 234.356364 265.777326 
L 237.963636 265.777326 
L 241.570909 265.777326 
L 245.178182 265.777326 
L 248.785455 265.777326 
L 248.866818 265.777326 
" clip-path="url(#p7f6551eb46)" style="fill: none; stroke: #000000; stroke-width: 0.5"/>
    <path d="M 284.776818 265.777326 
L 284.858182 265.777326 
L 288.465455 265.777326 
L 292.072727 265.777326 
L 295.68 265.777326 
L 299.287273 265.777326 
L 302.894545 265.777326 
L 306.501818 265.777326 
L 310.109091 265.777326 
L 313.716364 265.777326 
L 317.323636 265.777326 
L 320.930909 265.777326 
L 324.538182 265.777326 
L 328.145455 265.777326 
L 331.752727 265.777326 
L 335.36 265.777326 
L 338.967273 265.777326 
L 342.574545 265.777326 
L 346.181818 265.777326 
L 349.789091 265.777326 
L 353.396364 265.777326 
L 357.003636 265.777326 
L 360.610909 265.777326 
L 364.218182 265.777326 
L 367.825455 265.777326 
L 371.432727 265.777326 
L 375.04 265.777326 
L 378.647273 265.777326 
L 382.254545 265.777326 
L 385.861818 265.777326 
L 389.469091 265.777326 
L 393.076364 265.777326 
L 396.683636 265.777326 
L 400.290909 265.777326 
L 403.898182 265.777326 
L 407.505455 265.777326 
L 411.112727 265.777326 
L 414.72 265.777326 
" clip-path="url(#p7f6551eb46)" style="fill: none; stroke: #000000; stroke-width: 0.5"/>
   </g>
   <g id="PathCollection_10">
    <path d="M 414.72 280.485912 
L 411.112727 280.485912 
L 407.505455 280.485912 
L 403.898182 280.485912 
L 400.290909 280.485912 
L 396.683636 280.485912 
L 393.076364 280.485912 
L 389.469091 280.485912 
L 385.861818 280.485912 
L 382.254545 280.485912 
L 378.647273 280.485912 
L 375.04 280.485912 
L 371.432727 280.485912 
L 367.825455 280.485912 
L 364.218182 280.485912 
L 360.610909 280.485912 
L 357.003636 280.485912 
L 353.396364 280.485912 
L 349.789091 280.485912 
L 346.181818 280.485912 
L 342.574545 280.485912 
L 338.967273 280.485912 
L 335.36 280.485912 
L 331.752727 280.485912 
L 328.145455 280.485912 
L 324.538182 280.485912 
L 320.930909 280.485912 
L 317.323636 280.485912 
L 313.716364 280.485912 
L 310.109091 280.485912 
L 306.501818 280.485912 
L 302.894545 280.485912 
L 299.287273 280.485912 
L 295.68 280.485912 
L 292.072727 280.485912 
L 288.465455 280.485912 
L 284.858182 280.485912 
L 281.250909 280.485912 
L 277.643636 280.485912 
L 274.036364 280.485912 
L 270.429091 280.485912 
L 266.821818 280.485912 
L 263.214545 280.485912 
L 259.607273 280.485912 
L 256 280.485912 
L 252.392727 280.485912 
L 248.785455 280.485912 
L 245.178182 280.485912 
L 241.570909 280.485912 
L 237.963636 280.485912 
L 234.356364 280.485912 
L 230.749091 280.485912 
L 227.141818 280.485912 
L 223.534545 280.485912 
L 219.927273 280.485912 
L 216.32 280.485912 
L 212.712727 280.485912 
L 209.105455 280.485912 
L 205.498182 280.485912 
L 201.890909 280.485912 
L 198.283636 280.485912 
L 194.676364 280.485912 
L 191.069091 280.485912 
L 187.461818 280.485912 
L 183.854545 280.485912 
L 180.247273 280.485912 
L 176.64 280.485912 
L 173.032727 280.485912 
L 169.425455 280.485912 
L 165.818182 280.485912 
L 162.210909 280.485912 
L 159.165688 280.704 
L 159.165688 283.392 
L 159.165688 286.08 
L 158.603636 286.205508 
L 154.996364 286.205508 
L 151.389091 286.205508 
L 147.781818 286.205508 
L 144.174545 286.205508 
L 140.567273 286.205508 
L 136.96 286.205508 
L 133.352727 286.205508 
L 129.745455 286.205508 
L 126.138182 286.205508 
L 122.530909 286.205508 
L 118.923636 286.205508 
L 115.316364 286.205508 
L 111.709091 286.205508 
L 108.101818 286.205508 
L 104.494545 286.205508 
L 100.887273 286.205508 
L 97.28 286.205508 
L 93.672727 286.205508 
L 93.591364 286.205508 
" clip-path="url(#p7f6551eb46)" style="fill: none; stroke: #000000; stroke-width: 0.5"/>
    <path d="M 57.681364 286.205508 
L 57.6 286.205508 
" clip-path="url(#p7f6551eb46)" style="fill: none; stroke: #000000; stroke-width: 0.5"/>
   </g>
   <g id="PathCollection_11">
    <path d="M 414.72 296.94843 
L 411.112727 296.94843 
L 407.505455 296.94843 
L 403.898182 296.94843 
L 400.290909 296.94843 
L 396.683636 296.94843 
L 393.076364 296.94843 
L 389.469091 296.94843 
L 385.861818 296.94843 
L 382.254545 296.94843 
L 378.647273 296.94843 
L 375.04 296.94843 
L 371.432727 296.94843 
L 367.825455 296.94843 
L 364.218182 296.94843 
L 360.610909 296.94843 
L 357.003636 296.94843 
L 353.396364 296.94843 
L 349.789091 296.94843 
L 346.181818 296.94843 
L 342.574545 296.94843 
L 338.967273 296.94843 
L 335.36 296.94843 
L 331.752727 296.94843 
L 328.145455 296.94843 
L 324.538182 296.94843 
L 320.930909 296.94843 
L 317.323636 296.94843 
L 313.716364 296.94843 
L 310.109091 296.94843 
L 306.501818 296.94843 
L 302.894545 296.94843 
L 299.287273 296.94843 
L 295.68 296.94843 
L 292.072727 296.94843 
L 288.465455 296.94843 
L 284.858182 296.94843 
L 281.250909 296.94843 
L 277.643636 296.94843 
L 274.036364 296.94843 
L 270.429091 296.94843 
L 266.821818 296.94843 
L 263.214545 296.94843 
L 259.607273 296.94843 
L 256 296.94843 
L 252.392727 296.94843 
L 248.785455 296.94843 
L 245.178182 296.94843 
L 241.570909 296.94843 
L 237.963636 296.94843 
L 234.356364 296.94843 
L 230.749091 296.94843 
L 227.141818 296.94843 
L 223.534545 296.94843 
L 223.453182 296.94843 
" clip-path="url(#p7f6551eb46)" style="fill: none; stroke: #000000; stroke-width: 0.5"/>
    <path d="M 187.543182 296.94843 
L 187.461818 296.94843 
L 183.854545 296.94843 
L 180.247273 296.94843 
L 176.64 296.94843 
L 173.032727 296.94843 
L 169.425455 296.94843 
L 165.818182 296.94843 
L 162.210909 296.94843 
L 158.603636 297.05966 
L 154.996364 297.05966 
L 151.389091 297.05966 
L 147.781818 297.05966 
L 144.174545 297.05966 
L 140.567273 297.05966 
L 136.96 297.05966 
L 133.352727 297.05966 
L 129.745455 297.05966 
L 126.138182 297.05966 
L 122.530909 297.05966 
L 118.923636 297.05966 
L 115.316364 297.05966 
L 111.709091 297.05966 
L 108.101818 297.05966 
L 104.494545 297.05966 
L 100.887273 297.05966 
L 97.28 297.05966 
L 93.672727 297.05966 
L 90.065455 297.05966 
L 86.458182 297.05966 
L 82.850909 297.05966 
L 79.243636 297.05966 
L 75.636364 297.05966 
L 72.029091 297.05966 
L 68.421818 297.05966 
L 64.814545 297.05966 
L 61.207273 297.05966 
L 57.6 297.05966 
" clip-path="url(#p7f6551eb46)" style="fill: none; stroke: #000000; stroke-width: 0.5"/>
   </g>
   <g id="PathCollection_12">
    <path d="M 414.72 297.646881 
L 411.112727 297.646881 
L 407.505455 297.646881 
L 403.898182 297.646881 
L 400.290909 297.646881 
L 396.683636 297.646881 
L 393.076364 297.646881 
L 389.469091 297.646881 
L 385.861818 297.646881 
L 382.254545 297.646881 
L 378.647273 297.646881 
L 375.04 297.646881 
L 371.432727 297.646881 
L 367.825455 297.646881 
L 364.218182 297.646881 
L 364.136818 297.646881 
" clip-path="url(#p7f6551eb46)" style="fill: none; stroke: #000000; stroke-width: 0.5"/>
    <path d="M 328.226818 297.646881 
L 328.145455 297.646881 
L 324.538182 297.646881 
L 320.930909 297.646881 
L 317.323636 297.646881 
L 313.716364 297.646881 
L 310.109091 297.646881 
L 306.501818 297.646881 
L 302.894545 297.646881 
L 299.287273 297.646881 
L 295.68 297.646881 
L 292.072727 297.646881 
L 288.465455 297.646881 
L 284.858182 297.646881 
L 281.250909 297.646881 
L 277.643636 297.646881 
L 274.036364 297.646881 
L 270.429091 297.646881 
L 266.821818 297.646881 
L 263.214545 297.646881 
L 259.607273 297.646881 
L 256 297.646881 
L 252.392727 297.646881 
L 248.785455 297.646881 
L 245.178182 297.646881 
L 241.570909 297.646881 
L 237.963636 297.646881 
L 234.356364 297.646881 
L 230.749091 297.646881 
L 227.141818 297.646881 
L 223.534545 297.646881 
L 219.927273 297.646881 
L 216.32 297.646881 
L 212.712727 297.646881 
L 209.105455 297.646881 
L 205.498182 297.646881 
L 201.890909 297.646881 
L 198.283636 297.646881 
L 194.676364 297.646881 
L 191.069091 297.646881 
L 187.461818 297.646881 
L 183.854545 297.646881 
L 180.247273 297.646881 
L 176.64 297.646881 
L 173.032727 297.646881 
L 169.425455 297.646881 
L 165.818182 297.646881 
L 162.210909 297.646881 
L 158.603636 297.758111 
L 154.996364 297.758111 
L 151.389091 297.758111 
L 147.781818 297.758111 
L 144.174545 297.758111 
L 140.567273 297.758111 
L 136.96 297.758111 
L 133.352727 297.758111 
L 129.745455 297.758111 
L 126.138182 297.758111 
L 122.530909 297.758111 
L 118.923636 297.758111 
L 115.316364 297.758111 
L 111.709091 297.758111 
L 108.101818 297.758111 
L 104.494545 297.758111 
L 100.887273 297.758111 
L 97.28 297.758111 
L 93.672727 297.758111 
L 90.065455 297.758111 
L 86.458182 297.758111 
L 82.850909 297.758111 
L 79.243636 297.758111 
L 75.636364 297.758111 
L 72.029091 297.758111 
L 68.421818 297.758111 
L 64.814545 297.758111 
L 61.207273 297.758111 
L 57.6 297.758111 
" clip-path="url(#p7f6551eb46)" style="fill: none; stroke: #000000; stroke-width: 0.5"/>
   </g>
   <g id="PathCollection_13">
    <path d="M 414.72 298.345332 
L 411.112727 298.345332 
L 407.505455 298.345332 
L 403.898182 298.345332 
L 400.290909 298.345332 
L 396.683636 298.345332 
L 393.076364 298.345332 
L 389.469091 298.345332 
L 385.861818 298.345332 
L 382.254545 298.345332 
L 378.647273 298.345332 
L 375.04 298.345332 
L 371.432727 298.345332 
L 367.825455 298.345332 
L 364.218182 298.345332 
L 364.136818 298.345332 
" clip-path="url(#p7f6551eb46)" style="fill: none; stroke: #000000; stroke-width: 0.5"/>
    <path d="M 328.226818 298.345332 
L 328.145455 298.345332 
L 324.538182 298.345332 
L 320.930909 298.345332 
L 317.323636 298.345332 
L 313.716364 298.345332 
L 310.109091 298.345332 
L 306.501818 298.345332 
L 302.894545 298.345332 
L 299.287273 298.345332 
L 295.68 298.345332 
L 292.072727 298.345332 
L 288.465455 298.345332 
L 284.858182 298.345332 
L 281.250909 298.345332 
L 277.643636 298.345332 
L 274.036364 298.345332 
L 270.429091 298.345332 
L 266.821818 298.345332 
L 263.214545 298.345332 
L 259.607273 298.345332 
L 256 298.345332 
L 252.392727 298.345332 
L 248.785455 298.345332 
L 245.178182 298.345332 
L 241.570909 298.345332 
L 237.963636 298.345332 
L 234.356364 298.345332 
L 230.749091 298.345332 
L 227.141818 298.345332 
L 223.534545 298.345332 
L 219.927273 298.345332 
L 216.32 298.345332 
L 212.712727 298.345332 
L 209.105455 298.345332 
L 205.498182 298.345332 
L 201.890909 298.345332 
L 198.283636 298.345332 
L 194.676364 298.345332 
L 191.069091 298.345332 
L 187.461818 298.345332 
L 183.854545 298.345332 
L 180.247273 298.345332 
L 176.64 298.345332 
L 173.032727 298.345332 
L 169.425455 298.345332 
L 165.818182 298.345332 
L 162.210909 298.345332 
L 158.603636 298.456562 
L 154.996364 298.456562 
L 151.389091 298.456562 
L 147.781818 298.456562 
L 144.174545 298.456562 
L 140.567273 298.456562 
L 136.96 298.456562 
L 133.352727 298.456562 
L 129.745455 298.456562 
L 126.138182 298.456562 
L 122.530909 298.456562 
L 118.923636 298.456562 
L 115.316364 298.456562 
L 111.709091 298.456562 
L 108.101818 298.456562 
L 104.494545 298.456562 
L 100.887273 298.456562 
L 97.28 298.456562 
L 93.672727 298.456562 
L 90.065455 298.456562 
L 86.458182 298.456562 
L 82.850909 298.456562 
L 79.243636 298.456562 
L 75.636364 298.456562 
L 72.029091 298.456562 
L 68.421818 298.456562 
L 64.814545 298.456562 
L 61.207273 298.456562 
L 57.6 298.456562 
" clip-path="url(#p7f6551eb46)" style="fill: none; stroke: #000000; stroke-width: 0.5"/>
   </g>
   <g id="PathCollection_14">
    <path d="M 414.72 299.043783 
L 411.112727 299.043783 
L 407.505455 299.043783 
L 403.898182 299.043783 
L 400.290909 299.043783 
L 396.683636 299.043783 
L 393.076364 299.043783 
L 389.469091 299.043783 
L 385.861818 299.043783 
L 382.254545 299.043783 
L 378.647273 299.043783 
L 375.04 299.043783 
L 371.432727 299.043783 
L 367.825455 299.043783 
L 364.218182 299.043783 
L 364.136818 299.043783 
" clip-path="url(#p7f6551eb46)" style="fill: none; stroke: #000000; stroke-width: 0.5"/>
    <path d="M 328.226818 299.043783 
L 328.145455 299.043783 
L 324.538182 299.043783 
L 320.930909 299.043783 
L 317.323636 299.043783 
L 313.716364 299.043783 
L 310.109091 299.043783 
L 306.501818 299.043783 
L 302.894545 299.043783 
L 299.287273 299.043783 
L 295.68 299.043783 
L 292.072727 299.043783 
L 288.465455 299.043783 
L 284.858182 299.043783 
L 281.250909 299.043783 
L 277.643636 299.043783 
L 274.036364 299.043783 
L 270.429091 299.043783 
L 266.821818 299.043783 
L 263.214545 299.043783 
L 259.607273 299.043783 
L 256 299.043783 
L 252.392727 299.043783 
L 248.785455 299.043783 
L 245.178182 299.043783 
L 241.570909 299.043783 
L 237.963636 299.043783 
L 234.356364 299.043783 
L 230.749091 299.043783 
L 227.141818 299.043783 
L 223.534545 299.043783 
L 219.927273 299.043783 
L 216.32 299.043783 
L 212.712727 299.043783 
L 209.105455 299.043783 
L 205.498182 299.043783 
L 201.890909 299.043783 
L 198.283636 299.043783 
L 194.676364 299.043783 
L 191.069091 299.043783 
L 187.461818 299.043783 
L 183.854545 299.043783 
L 180.247273 299.043783 
L 176.64 299.043783 
L 173.032727 299.043783 
L 169.425455 299.043783 
L 165.818182 299.043783 
L 162.210909 299.043783 
L 158.603636 299.155013 
L 154.996364 299.155013 
L 151.389091 299.155013 
L 147.781818 299.155013 
L 144.174545 299.155013 
L 140.567273 299.155013 
L 136.96 299.155013 
L 133.352727 299.155013 
L 129.745455 299.155013 
L 126.138182 299.155013 
L 122.530909 299.155013 
L 118.923636 299.155013 
L 115.316364 299.155013 
L 111.709091 299.155013 
L 108.101818 299.155013 
L 104.494545 299.155013 
L 100.887273 299.155013 
L 97.28 299.155013 
L 93.672727 299.155013 
L 90.065455 299.155013 
L 86.458182 299.155013 
L 82.850909 299.155013 
L 79.243636 299.155013 
L 75.636364 299.155013 
L 72.029091 299.155013 
L 68.421818 299.155013 
L 64.814545 299.155013 
L 61.207273 299.155013 
L 57.6 299.155013 
" clip-path="url(#p7f6551eb46)" style="fill: none; stroke: #000000; stroke-width: 0.5"/>
   </g>
   <g id="PathCollection_15"/>
   <g id="LineCollection_1">
    <path d="M 70.331738 307.584 
L 70.331738 294.2784 
" clip-path="url(#p7f6551eb46)" style="fill: none; stroke: #000000; stroke-width: 1.5"/>
    <path d="M 99.846223 307.584 
L 99.846223 294.2784 
" clip-path="url(#p7f6551eb46)" style="fill: none; stroke: #000000; stroke-width: 1.5"/>
    <path d="M 129.465928 307.584 
L 129.465928 294.2784 
" clip-path="url(#p7f6551eb46)" style="fill: none; stroke: #000000; stroke-width: 1.5"/>
    <path d="M 223.533483 307.584 
L 223.533483 294.2784 
" clip-path="url(#p7f6551eb46)" style="fill: none; stroke: #000000; stroke-width: 1.5"/>
    <path d="M 263.675286 307.584 
L 263.675286 294.2784 
" clip-path="url(#p7f6551eb46)" style="fill: none; stroke: #000000; stroke-width: 1.5"/>
    <path d="M 284.088156 307.584 
L 284.088156 294.2784 
" clip-path="url(#p7f6551eb46)" style="fill: none; stroke: #000000; stroke-width: 1.5"/>
    <path d="M 301.81789 307.584 
L 301.81789 294.2784 
" clip-path="url(#p7f6551eb46)" style="fill: none; stroke: #000000; stroke-width: 1.5"/>
    <path d="M 335.435993 307.584 
L 335.435993 294.2784 
" clip-path="url(#p7f6551eb46)" style="fill: none; stroke: #000000; stroke-width: 1.5"/>
    <path d="M 378.208321 307.584 
L 378.208321 294.2784 
" clip-path="url(#p7f6551eb46)" style="fill: none; stroke: #000000; stroke-width: 1.5"/>
   </g>
   <g id="LineCollection_2">
    <path d="M -1 307.584 
L 63.755427 307.584 
" clip-path="url(#p7f6551eb46)" style="fill: none; stroke: #000000; stroke-width: 1.5"/>
    <path d="M -1 296.299919 
L 63.755427 296.299919 
" clip-path="url(#p7f6551eb46)" style="fill: none; stroke: #000000; stroke-width: 1.5"/>
    <path d="M -1 278.091382 
L 63.755427 278.091382 
" clip-path="url(#p7f6551eb46)" style="fill: none; stroke: #000000; stroke-width: 1.5"/>
    <path d="M -1 236.172866 
L 63.755427 236.172866 
" clip-path="url(#p7f6551eb46)" style="fill: none; stroke: #000000; stroke-width: 1.5"/>
    <path d="M -1 178.265351 
L 63.755427 178.265351 
" clip-path="url(#p7f6551eb46)" style="fill: none; stroke: #000000; stroke-width: 1.5"/>
    <path d="M -1 105.165976 
L 63.755427 105.165976 
" clip-path="url(#p7f6551eb46)" style="fill: none; stroke: #000000; stroke-width: 1.5"/>
    <path d="M -1 42.228088 
L 63.755427 42.228088 
" clip-path="url(#p7f6551eb46)" style="fill: none; stroke: #000000; stroke-width: 1.5"/>
    <path clip-path="url(#p7f6551eb46)" style="fill: none; stroke: #000000; stroke-width: 1.5"/>
    <path clip-path="url(#p7f6551eb46)" style="fill: none; stroke: #000000; stroke-width: 1.5"/>
   </g>
   <g id="patch_3">
    <path d="M 57.6 307.584 
L 57.6 41.472 
" style="fill: none; stroke: #000000; stroke-width: 0.8; stroke-linejoin: miter; stroke-linecap: square"/>
   </g>
   <g id="patch_4">
    <path d="M 414.72 307.584 
L 414.72 41.472 
" style="fill: none; stroke: #000000; stroke-width: 0.8; stroke-linejoin: miter; stroke-linecap: square"/>
   </g>
   <g id="patch_5">
    <path d="M 57.6 307.584 
L 414.72 307.584 
" style="fill: none; stroke: #000000; stroke-width: 0.8; stroke-linejoin: miter; stroke-linecap: square"/>
   </g>
   <g id="patch_6">
    <path d="M 57.6 41.472 
L 414.72 41.472 
" style="fill: none; stroke: #000000; stroke-width: 0.8; stroke-linejoin: miter; stroke-linecap: square"/>
   </g>
   <g id="text_15">
    <!-- 2D-partial dependency plot between Obesity and OM -->
    <g transform="translate(76.289062 35.472) scale(0.12 -0.12)">
     <defs>
      <path id="DejaVuSans-44" d="M 1259 4147 
L 1259 519 
L 2022 519 
Q 2988 519 3436 956 
Q 3884 1394 3884 2338 
Q 3884 3275 3436 3711 
Q 2988 4147 2022 4147 
L 1259 4147 
z
M 628 4666 
L 1925 4666 
Q 3281 4666 3915 4102 
Q 4550 3538 4550 2338 
Q 4550 1131 3912 565 
Q 3275 0 1925 0 
L 628 0 
L 628 4666 
z
" transform="scale(0.015625)"/>
      <path id="DejaVuSans-2d" d="M 313 2009 
L 1997 2009 
L 1997 1497 
L 313 1497 
L 313 2009 
z
" transform="scale(0.015625)"/>
      <path id="DejaVuSans-6c" d="M 603 4863 
L 1178 4863 
L 1178 0 
L 603 0 
L 603 4863 
z
" transform="scale(0.015625)"/>
      <path id="DejaVuSans-64" d="M 2906 2969 
L 2906 4863 
L 3481 4863 
L 3481 0 
L 2906 0 
L 2906 525 
Q 2725 213 2448 61 
Q 2172 -91 1784 -91 
Q 1150 -91 751 415 
Q 353 922 353 1747 
Q 353 2572 751 3078 
Q 1150 3584 1784 3584 
Q 2172 3584 2448 3432 
Q 2725 3281 2906 2969 
z
M 947 1747 
Q 947 1113 1208 752 
Q 1469 391 1925 391 
Q 2381 391 2643 752 
Q 2906 1113 2906 1747 
Q 2906 2381 2643 2742 
Q 2381 3103 1925 3103 
Q 1469 3103 1208 2742 
Q 947 2381 947 1747 
z
" transform="scale(0.015625)"/>
      <path id="DejaVuSans-63" d="M 3122 3366 
L 3122 2828 
Q 2878 2963 2633 3030 
Q 2388 3097 2138 3097 
Q 1578 3097 1268 2742 
Q 959 2388 959 1747 
Q 959 1106 1268 751 
Q 1578 397 2138 397 
Q 2388 397 2633 464 
Q 2878 531 3122 666 
L 3122 134 
Q 2881 22 2623 -34 
Q 2366 -91 2075 -91 
Q 1284 -91 818 406 
Q 353 903 353 1747 
Q 353 2603 823 3093 
Q 1294 3584 2113 3584 
Q 2378 3584 2631 3529 
Q 2884 3475 3122 3366 
z
" transform="scale(0.015625)"/>
      <path id="DejaVuSans-77" d="M 269 3500 
L 844 3500 
L 1563 769 
L 2278 3500 
L 2956 3500 
L 3675 769 
L 4391 3500 
L 4966 3500 
L 4050 0 
L 3372 0 
L 2619 2869 
L 1863 0 
L 1184 0 
L 269 3500 
z
" transform="scale(0.015625)"/>
     </defs>
     <use xlink:href="#DejaVuSans-32"/>
     <use xlink:href="#DejaVuSans-44" x="63.623047"/>
     <use xlink:href="#DejaVuSans-2d" x="140.625"/>
     <use xlink:href="#DejaVuSans-70" x="176.708984"/>
     <use xlink:href="#DejaVuSans-61" x="240.185547"/>
     <use xlink:href="#DejaVuSans-72" x="301.464844"/>
     <use xlink:href="#DejaVuSans-74" x="342.578125"/>
     <use xlink:href="#DejaVuSans-69" x="381.787109"/>
     <use xlink:href="#DejaVuSans-61" x="409.570312"/>
     <use xlink:href="#DejaVuSans-6c" x="470.849609"/>
     <use xlink:href="#DejaVuSans-20" x="498.632812"/>
     <use xlink:href="#DejaVuSans-64" x="530.419922"/>
     <use xlink:href="#DejaVuSans-65" x="593.896484"/>
     <use xlink:href="#DejaVuSans-70" x="655.419922"/>
     <use xlink:href="#DejaVuSans-65" x="718.896484"/>
     <use xlink:href="#DejaVuSans-6e" x="780.419922"/>
     <use xlink:href="#DejaVuSans-64" x="843.798828"/>
     <use xlink:href="#DejaVuSans-65" x="907.275391"/>
     <use xlink:href="#DejaVuSans-6e" x="968.798828"/>
     <use xlink:href="#DejaVuSans-63" x="1032.177734"/>
     <use xlink:href="#DejaVuSans-79" x="1087.158203"/>
     <use xlink:href="#DejaVuSans-20" x="1146.337891"/>
     <use xlink:href="#DejaVuSans-70" x="1178.125"/>
     <use xlink:href="#DejaVuSans-6c" x="1241.601562"/>
     <use xlink:href="#DejaVuSans-6f" x="1269.384766"/>
     <use xlink:href="#DejaVuSans-74" x="1330.566406"/>
     <use xlink:href="#DejaVuSans-20" x="1369.775391"/>
     <use xlink:href="#DejaVuSans-62" x="1401.5625"/>
     <use xlink:href="#DejaVuSans-65" x="1465.039062"/>
     <use xlink:href="#DejaVuSans-74" x="1526.5625"/>
     <use xlink:href="#DejaVuSans-77" x="1565.771484"/>
     <use xlink:href="#DejaVuSans-65" x="1647.558594"/>
     <use xlink:href="#DejaVuSans-65" x="1709.082031"/>
     <use xlink:href="#DejaVuSans-6e" x="1770.605469"/>
     <use xlink:href="#DejaVuSans-20" x="1833.984375"/>
     <use xlink:href="#DejaVuSans-4f" x="1865.771484"/>
     <use xlink:href="#DejaVuSans-62" x="1944.482422"/>
     <use xlink:href="#DejaVuSans-65" x="2007.958984"/>
     <use xlink:href="#DejaVuSans-73" x="2069.482422"/>
     <use xlink:href="#DejaVuSans-69" x="2121.582031"/>
     <use xlink:href="#DejaVuSans-74" x="2149.365234"/>
     <use xlink:href="#DejaVuSans-79" x="2188.574219"/>
     <use xlink:href="#DejaVuSans-20" x="2247.753906"/>
     <use xlink:href="#DejaVuSans-61" x="2279.541016"/>
     <use xlink:href="#DejaVuSans-6e" x="2340.820312"/>
     <use xlink:href="#DejaVuSans-64" x="2404.199219"/>
     <use xlink:href="#DejaVuSans-20" x="2467.675781"/>
     <use xlink:href="#DejaVuSans-4f" x="2499.462891"/>
     <use xlink:href="#DejaVuSans-4d" x="2578.173828"/>
    </g>
   </g>
   <g id="text_16">
    <g clip-path="url(#p7f6551eb46)">
     <!-- 12.96 -->
     <g transform="translate(331.867756 281.623083) scale(0.1 -0.1)">
      <defs>
       <path id="DejaVuSans-39" d="M 703 97 
L 703 672 
Q 941 559 1184 500 
Q 1428 441 1663 441 
Q 2288 441 2617 861 
Q 2947 1281 2994 2138 
Q 2813 1869 2534 1725 
Q 2256 1581 1919 1581 
Q 1219 1581 811 2004 
Q 403 2428 403 3163 
Q 403 3881 828 4315 
Q 1253 4750 1959 4750 
Q 2769 4750 3195 4129 
Q 3622 3509 3622 2328 
Q 3622 1225 3098 567 
Q 2575 -91 1691 -91 
Q 1453 -91 1209 -44 
Q 966 3 703 97 
z
M 1959 2075 
Q 2384 2075 2632 2365 
Q 2881 2656 2881 3163 
Q 2881 3666 2632 3958 
Q 2384 4250 1959 4250 
Q 1534 4250 1286 3958 
Q 1038 3666 1038 3163 
Q 1038 2656 1286 2365 
Q 1534 2075 1959 2075 
z
" transform="scale(0.015625)"/>
       <path id="DejaVuSans-36" d="M 2113 2584 
Q 1688 2584 1439 2293 
Q 1191 2003 1191 1497 
Q 1191 994 1439 701 
Q 1688 409 2113 409 
Q 2538 409 2786 701 
Q 3034 994 3034 1497 
Q 3034 2003 2786 2293 
Q 2538 2584 2113 2584 
z
M 3366 4563 
L 3366 3988 
Q 3128 4100 2886 4159 
Q 2644 4219 2406 4219 
Q 1781 4219 1451 3797 
Q 1122 3375 1075 2522 
Q 1259 2794 1537 2939 
Q 1816 3084 2150 3084 
Q 2853 3084 3261 2657 
Q 3669 2231 3669 1497 
Q 3669 778 3244 343 
Q 2819 -91 2113 -91 
Q 1303 -91 875 529 
Q 447 1150 447 2328 
Q 447 3434 972 4092 
Q 1497 4750 2381 4750 
Q 2619 4750 2861 4703 
Q 3103 4656 3366 4563 
z
" transform="scale(0.015625)"/>
      </defs>
      <use xlink:href="#DejaVuSans-31"/>
      <use xlink:href="#DejaVuSans-32" x="63.623047"/>
      <use xlink:href="#DejaVuSans-2e" x="127.246094"/>
      <use xlink:href="#DejaVuSans-39" x="159.033203"/>
      <use xlink:href="#DejaVuSans-36" x="222.65625"/>
     </g>
    </g>
   </g>
   <g id="text_17">
    <g clip-path="url(#p7f6551eb46)">
     <!-- 12.96 -->
     <g transform="translate(252.507756 268.536701) scale(0.1 -0.1)">
      <use xlink:href="#DejaVuSans-31"/>
      <use xlink:href="#DejaVuSans-32" x="63.623047"/>
      <use xlink:href="#DejaVuSans-2e" x="127.246094"/>
      <use xlink:href="#DejaVuSans-39" x="159.033203"/>
      <use xlink:href="#DejaVuSans-36" x="222.65625"/>
     </g>
    </g>
   </g>
   <g id="text_18">
    <g clip-path="url(#p7f6551eb46)">
     <!-- 12.98 -->
     <g transform="translate(61.322301 288.964883) scale(0.1 -0.1)">
      <defs>
       <path id="DejaVuSans-38" d="M 2034 2216 
Q 1584 2216 1326 1975 
Q 1069 1734 1069 1313 
Q 1069 891 1326 650 
Q 1584 409 2034 409 
Q 2484 409 2743 651 
Q 3003 894 3003 1313 
Q 3003 1734 2745 1975 
Q 2488 2216 2034 2216 
z
M 1403 2484 
Q 997 2584 770 2862 
Q 544 3141 544 3541 
Q 544 4100 942 4425 
Q 1341 4750 2034 4750 
Q 2731 4750 3128 4425 
Q 3525 4100 3525 3541 
Q 3525 3141 3298 2862 
Q 3072 2584 2669 2484 
Q 3125 2378 3379 2068 
Q 3634 1759 3634 1313 
Q 3634 634 3220 271 
Q 2806 -91 2034 -91 
Q 1263 -91 848 271 
Q 434 634 434 1313 
Q 434 1759 690 2068 
Q 947 2378 1403 2484 
z
M 1172 3481 
Q 1172 3119 1398 2916 
Q 1625 2713 2034 2713 
Q 2441 2713 2670 2916 
Q 2900 3119 2900 3481 
Q 2900 3844 2670 4047 
Q 2441 4250 2034 4250 
Q 1625 4250 1398 4047 
Q 1172 3844 1172 3481 
z
" transform="scale(0.015625)"/>
      </defs>
      <use xlink:href="#DejaVuSans-31"/>
      <use xlink:href="#DejaVuSans-32" x="63.623047"/>
      <use xlink:href="#DejaVuSans-2e" x="127.246094"/>
      <use xlink:href="#DejaVuSans-39" x="159.033203"/>
      <use xlink:href="#DejaVuSans-38" x="222.65625"/>
     </g>
    </g>
   </g>
   <g id="text_19">
    <g clip-path="url(#p7f6551eb46)">
     <!-- 13.00 -->
     <g transform="translate(191.184119 299.707805) scale(0.1 -0.1)">
      <use xlink:href="#DejaVuSans-31"/>
      <use xlink:href="#DejaVuSans-33" x="63.623047"/>
      <use xlink:href="#DejaVuSans-2e" x="127.246094"/>
      <use xlink:href="#DejaVuSans-30" x="159.033203"/>
      <use xlink:href="#DejaVuSans-30" x="222.65625"/>
     </g>
    </g>
   </g>
   <g id="text_20">
    <g clip-path="url(#p7f6551eb46)">
     <!-- 13.02 -->
     <g transform="translate(331.867756 300.406256) scale(0.1 -0.1)">
      <use xlink:href="#DejaVuSans-31"/>
      <use xlink:href="#DejaVuSans-33" x="63.623047"/>
      <use xlink:href="#DejaVuSans-2e" x="127.246094"/>
      <use xlink:href="#DejaVuSans-30" x="159.033203"/>
      <use xlink:href="#DejaVuSans-32" x="222.65625"/>
     </g>
    </g>
   </g>
   <g id="text_21">
    <g clip-path="url(#p7f6551eb46)">
     <!-- 13.04 -->
     <g transform="translate(331.867756 301.104707) scale(0.1 -0.1)">
      <use xlink:href="#DejaVuSans-31"/>
      <use xlink:href="#DejaVuSans-33" x="63.623047"/>
      <use xlink:href="#DejaVuSans-2e" x="127.246094"/>
      <use xlink:href="#DejaVuSans-30" x="159.033203"/>
      <use xlink:href="#DejaVuSans-34" x="222.65625"/>
     </g>
    </g>
   </g>
   <g id="text_22">
    <g clip-path="url(#p7f6551eb46)">
     <!-- 13.06 -->
     <g transform="translate(331.867756 301.803158) scale(0.1 -0.1)">
      <use xlink:href="#DejaVuSans-31"/>
      <use xlink:href="#DejaVuSans-33" x="63.623047"/>
      <use xlink:href="#DejaVuSans-2e" x="127.246094"/>
      <use xlink:href="#DejaVuSans-30" x="159.033203"/>
      <use xlink:href="#DejaVuSans-36" x="222.65625"/>
     </g>
    </g>
   </g>
  </g>
 </g>
 <defs>
  <clipPath id="p7f6551eb46">
   <rect x="57.6" y="41.472" width="357.12" height="266.112"/>
  </clipPath>
 </defs>
</svg>
