<?xml version="1.0" encoding="utf-8" standalone="no"?>
<!DOCTYPE svg PUBLIC "-//W3C//DTD SVG 1.1//EN"
  "http://www.w3.org/Graphics/SVG/1.1/DTD/svg11.dtd">
<svg xmlns:xlink="http://www.w3.org/1999/xlink" width="460.8pt" height="345.6pt" viewBox="0 0 460.8 345.6" xmlns="http://www.w3.org/2000/svg" version="1.1">
 <metadata>
  <rdf:RDF xmlns:dc="http://purl.org/dc/elements/1.1/" xmlns:cc="http://creativecommons.org/ns#" xmlns:rdf="http://www.w3.org/1999/02/22-rdf-syntax-ns#">
   <cc:Work>
    <dc:type rdf:resource="http://purl.org/dc/dcmitype/StillImage"/>
    <dc:date>2024-02-15T11:39:21.942158</dc:date>
    <dc:format>image/svg+xml</dc:format>
    <dc:creator>
     <cc:Agent>
      <dc:title>Matplotlib v3.7.0, https://matplotlib.org/</dc:title>
     </cc:Agent>
    </dc:creator>
   </cc:Work>
  </rdf:RDF>
 </metadata>
 <defs>
  <style type="text/css">*{stroke-linejoin: round; stroke-linecap: butt}</style>
 </defs>
 <g id="figure_1">
  <g id="patch_1">
   <path d="M 0 345.6 
L 460.8 345.6 
L 460.8 0 
L 0 0 
L 0 345.6 
z
" style="fill: none"/>
  </g>
  <g id="axes_1"/>
  <g id="axes_2">
   <g id="patch_2">
    <path d="M 57.6 307.584 
L 414.72 307.584 
L 414.72 41.472 
L 57.6 41.472 
L 57.6 307.584 
z
" style="fill: none"/>
   </g>
   <g id="PathCollection_1">
    <path d="M 71.71636 280.704 
L 90.547645 278.016 
L 90.547645 275.328 
L 90.547645 272.64 
L 90.547645 269.952 
L 90.547645 267.264 
L 90.547645 264.576 
L 90.547645 261.888 
L 90.547645 259.2 
L 90.547645 256.512 
L 90.547645 253.824 
L 90.547645 251.136 
L 90.547645 248.448 
L 90.547645 245.76 
L 90.547645 243.072 
L 90.547645 240.384 
L 90.547645 237.696 
L 90.547645 235.008 
L 90.547645 232.32 
L 90.547645 229.632 
L 90.547645 226.944 
L 90.547645 224.256 
L 90.547645 221.568 
L 90.547645 218.88 
L 90.547645 216.192 
L 90.547645 213.504 
L 90.547645 210.816 
L 90.547645 208.128 
L 90.547645 205.44 
L 90.547645 202.752 
L 90.547645 200.064 
L 90.547645 197.376 
L 90.547645 194.688 
L 90.547645 192 
L 90.547645 189.312 
L 90.547645 186.624 
L 90.547645 183.936 
L 90.547645 181.248 
L 90.547645 178.56 
L 90.547645 175.872 
L 90.547645 173.184 
L 90.547645 170.496 
L 90.547645 167.808 
L 90.547645 165.12 
L 90.547645 162.432 
L 90.547645 159.744 
L 90.547645 157.056 
L 90.547645 154.368 
L 90.547645 151.68 
L 90.547645 148.992 
L 90.547645 146.304 
L 90.547645 143.616 
L 90.547645 140.928 
L 90.547645 138.24 
L 90.547645 135.552 
L 90.547645 132.864 
L 90.547645 130.176 
L 90.547645 127.488 
L 90.547645 124.8 
L 90.547645 122.112 
L 90.547645 119.424 
L 90.547645 116.736 
L 90.547645 114.048 
L 90.547645 111.36 
L 90.547645 108.672 
L 90.547645 105.984 
L 90.547645 103.296 
L 90.547645 100.608 
L 90.547645 97.92 
L 90.547645 95.232 
L 90.547645 92.544 
L 90.547645 89.856 
L 90.547645 87.168 
L 90.547645 84.48 
L 90.547645 81.792 
L 90.547645 79.104 
L 90.547645 76.416 
L 90.547645 73.728 
L 90.547645 71.04 
L 90.547645 68.352 
L 90.547645 65.664 
L 90.547645 62.976 
L 90.547645 60.288 
L 90.547645 57.6 
L 90.547645 54.912 
L 90.547645 52.224 
L 90.547645 49.536 
L 90.547645 46.848 
L 90.547645 44.16 
L 90.547645 41.472 
L 57.6 41.472 
L 57.6 44.16 
L 57.6 46.848 
L 57.6 49.536 
L 57.6 52.224 
L 57.6 54.912 
L 57.6 57.6 
L 57.6 60.288 
L 57.6 62.976 
L 57.6 65.664 
L 57.6 68.352 
L 57.6 71.04 
L 57.6 73.728 
L 57.6 76.416 
L 57.6 79.104 
L 57.6 81.792 
L 57.6 84.48 
L 57.6 87.168 
L 57.6 89.856 
L 57.6 92.544 
L 57.6 95.232 
L 57.6 97.92 
L 57.6 100.608 
L 57.6 103.296 
L 57.6 105.984 
L 57.6 108.672 
L 57.6 111.36 
L 57.6 114.048 
L 57.6 116.736 
L 57.6 119.424 
L 57.6 122.112 
L 57.6 124.8 
L 57.6 127.488 
L 57.6 130.176 
L 57.6 132.864 
L 57.6 135.552 
L 57.6 138.24 
L 57.6 140.928 
L 57.6 143.616 
L 57.6 146.304 
L 57.6 148.992 
L 57.6 151.68 
L 57.6 154.368 
L 57.6 157.056 
L 57.6 159.744 
L 57.6 162.432 
L 57.6 165.12 
L 57.6 167.808 
L 57.6 170.496 
L 57.6 173.184 
L 57.6 175.872 
L 57.6 178.56 
L 57.6 181.248 
L 57.6 183.936 
L 57.6 186.624 
L 57.6 189.312 
L 57.6 192 
L 57.6 194.688 
L 57.6 197.376 
L 57.6 200.064 
L 57.6 202.752 
L 57.6 205.44 
L 57.6 208.128 
L 57.6 210.816 
L 57.6 213.504 
L 57.6 216.192 
L 57.6 218.88 
L 57.6 221.568 
L 57.6 224.256 
L 57.6 226.944 
L 57.6 229.632 
L 57.6 232.32 
L 57.6 235.008 
L 57.6 237.696 
L 57.6 240.384 
L 57.6 243.072 
L 57.6 245.76 
L 57.6 248.448 
L 57.6 251.136 
L 57.6 253.824 
L 57.6 256.512 
L 57.6 259.2 
L 57.6 261.888 
L 57.6 264.576 
L 57.6 267.264 
L 57.6 269.952 
L 57.6 272.64 
L 57.6 275.328 
L 57.6 278.016 
L 57.6 280.704 
L 57.6 281.544532 
z
" clip-path="url(#p5c8ca6bd40)" style="fill: #481b6d; fill-opacity: 0.75"/>
   </g>
   <g id="PathCollection_2">
    <path d="M 74.895827 286.08 
L 74.895827 283.392 
L 120.039573 280.704 
L 129.024 279.421552 
L 169.745602 278.016 
L 169.745602 275.328 
L 169.745602 272.64 
L 169.745602 269.952 
L 169.745602 267.264 
L 169.745602 264.576 
L 169.745602 261.888 
L 169.745602 259.2 
L 169.745602 256.512 
L 169.745602 253.824 
L 169.745602 251.136 
L 169.745602 248.448 
L 169.745602 245.76 
L 169.745602 243.072 
L 169.745602 240.384 
L 169.745602 237.696 
L 169.745602 235.008 
L 169.745602 232.32 
L 169.745602 229.632 
L 169.745602 226.944 
L 169.745602 224.256 
L 169.745602 221.568 
L 169.745602 218.88 
L 169.745602 216.192 
L 169.745602 213.504 
L 169.745602 210.816 
L 169.745602 208.128 
L 169.745602 205.44 
L 169.745602 202.752 
L 169.745602 200.064 
L 169.745602 197.376 
L 169.745602 194.688 
L 169.745602 192 
L 169.745602 189.312 
L 169.745602 186.624 
L 169.745602 183.936 
L 169.745602 181.248 
L 169.745602 178.56 
L 169.745602 175.872 
L 169.745602 173.184 
L 169.745602 170.496 
L 169.745602 167.808 
L 169.745602 165.12 
L 169.745602 162.432 
L 169.745602 159.744 
L 169.745602 157.056 
L 169.745602 154.368 
L 169.745602 151.68 
L 169.745602 148.992 
L 169.745602 146.304 
L 169.745602 143.616 
L 169.745602 140.928 
L 169.745602 138.24 
L 169.745602 135.552 
L 169.745602 132.864 
L 169.745602 130.176 
L 169.745602 127.488 
L 169.745602 124.8 
L 169.745602 122.112 
L 169.745602 119.424 
L 169.745602 116.736 
L 169.745602 114.048 
L 169.745602 111.36 
L 169.745602 108.672 
L 169.745602 105.984 
L 169.745602 103.296 
L 169.745602 100.608 
L 169.745602 97.92 
L 169.745602 95.232 
L 169.745602 92.544 
L 169.745602 89.856 
L 169.745602 87.168 
L 169.745602 84.48 
L 169.745602 81.792 
L 169.745602 79.104 
L 169.745602 76.416 
L 169.745602 73.728 
L 169.745602 71.04 
L 169.745602 68.352 
L 169.745602 65.664 
L 169.745602 62.976 
L 169.745602 60.288 
L 169.745602 57.6 
L 169.745602 54.912 
L 169.745602 52.224 
L 169.745602 49.536 
L 169.745602 46.848 
L 169.745602 44.16 
L 169.745602 41.472 
L 129.024 41.472 
L 90.547645 41.472 
L 90.547645 44.16 
L 90.547645 46.848 
L 90.547645 49.536 
L 90.547645 52.224 
L 90.547645 54.912 
L 90.547645 57.6 
L 90.547645 60.288 
L 90.547645 62.976 
L 90.547645 65.664 
L 90.547645 68.352 
L 90.547645 71.04 
L 90.547645 73.728 
L 90.547645 76.416 
L 90.547645 79.104 
L 90.547645 81.792 
L 90.547645 84.48 
L 90.547645 87.168 
L 90.547645 89.856 
L 90.547645 92.544 
L 90.547645 95.232 
L 90.547645 97.92 
L 90.547645 100.608 
L 90.547645 103.296 
L 90.547645 105.984 
L 90.547645 108.672 
L 90.547645 111.36 
L 90.547645 114.048 
L 90.547645 116.736 
L 90.547645 119.424 
L 90.547645 122.112 
L 90.547645 124.8 
L 90.547645 127.488 
L 90.547645 130.176 
L 90.547645 132.864 
L 90.547645 135.552 
L 90.547645 138.24 
L 90.547645 140.928 
L 90.547645 143.616 
L 90.547645 146.304 
L 90.547645 148.992 
L 90.547645 151.68 
L 90.547645 154.368 
L 90.547645 157.056 
L 90.547645 159.744 
L 90.547645 162.432 
L 90.547645 165.12 
L 90.547645 167.808 
L 90.547645 170.496 
L 90.547645 173.184 
L 90.547645 175.872 
L 90.547645 178.56 
L 90.547645 181.248 
L 90.547645 183.936 
L 90.547645 186.624 
L 90.547645 189.312 
L 90.547645 192 
L 90.547645 194.688 
L 90.547645 197.376 
L 90.547645 200.064 
L 90.547645 202.752 
L 90.547645 205.44 
L 90.547645 208.128 
L 90.547645 210.816 
L 90.547645 213.504 
L 90.547645 216.192 
L 90.547645 218.88 
L 90.547645 221.568 
L 90.547645 224.256 
L 90.547645 226.944 
L 90.547645 229.632 
L 90.547645 232.32 
L 90.547645 235.008 
L 90.547645 237.696 
L 90.547645 240.384 
L 90.547645 243.072 
L 90.547645 245.76 
L 90.547645 248.448 
L 90.547645 251.136 
L 90.547645 253.824 
L 90.547645 256.512 
L 90.547645 259.2 
L 90.547645 261.888 
L 90.547645 264.576 
L 90.547645 267.264 
L 90.547645 269.952 
L 90.547645 272.64 
L 90.547645 275.328 
L 90.547645 278.016 
L 71.71636 280.704 
L 57.6 281.544532 
L 57.6 283.392 
L 57.6 286.08 
L 57.6 286.628466 
z
" clip-path="url(#p5c8ca6bd40)" style="fill: #3f4788; fill-opacity: 0.75"/>
   </g>
   <g id="PathCollection_3">
    <path d="M 123.219039 286.08 
L 123.219039 283.392 
L 129.024 283.046354 
L 200.448 282.017986 
L 271.872 282.017986 
L 343.296 282.017986 
L 414.72 282.017986 
L 414.72 280.704 
L 414.72 278.016 
L 414.72 275.328 
L 414.72 272.64 
L 414.72 269.952 
L 414.72 267.264 
L 414.72 264.576 
L 414.72 261.888 
L 414.72 259.2 
L 414.72 256.512 
L 414.72 253.824 
L 414.72 251.136 
L 414.72 248.448 
L 414.72 245.76 
L 414.72 243.072 
L 414.72 240.384 
L 414.72 237.696 
L 414.72 235.008 
L 414.72 232.32 
L 414.72 229.632 
L 414.72 226.944 
L 414.72 224.256 
L 414.72 221.568 
L 414.72 218.88 
L 414.72 216.192 
L 414.72 213.504 
L 414.72 210.816 
L 414.72 208.128 
L 414.72 205.44 
L 414.72 202.752 
L 414.72 200.064 
L 414.72 197.376 
L 414.72 194.688 
L 414.72 192 
L 414.72 189.312 
L 414.72 186.624 
L 414.72 183.936 
L 414.72 181.248 
L 414.72 178.56 
L 414.72 175.872 
L 414.72 173.184 
L 414.72 170.496 
L 414.72 167.808 
L 414.72 165.12 
L 414.72 162.432 
L 414.72 159.744 
L 414.72 157.056 
L 414.72 154.368 
L 414.72 151.68 
L 414.72 148.992 
L 414.72 146.304 
L 414.72 143.616 
L 414.72 140.928 
L 414.72 138.24 
L 414.72 135.552 
L 414.72 132.864 
L 414.72 130.176 
L 414.72 127.488 
L 414.72 124.8 
L 414.72 122.112 
L 414.72 119.424 
L 414.72 116.736 
L 414.72 114.048 
L 414.72 111.36 
L 414.72 108.672 
L 414.72 105.984 
L 414.72 103.296 
L 414.72 100.608 
L 414.72 97.92 
L 414.72 95.232 
L 414.72 92.544 
L 414.72 89.856 
L 414.72 87.168 
L 414.72 84.48 
L 414.72 81.792 
L 414.72 79.104 
L 414.72 76.416 
L 414.72 73.728 
L 414.72 71.04 
L 414.72 68.352 
L 414.72 65.664 
L 414.72 62.976 
L 414.72 60.288 
L 414.72 57.6 
L 414.72 54.912 
L 414.72 52.224 
L 414.72 49.536 
L 414.72 46.848 
L 414.72 44.16 
L 414.72 41.472 
L 343.296 41.472 
L 271.872 41.472 
L 200.448 41.472 
L 169.745602 41.472 
L 169.745602 44.16 
L 169.745602 46.848 
L 169.745602 49.536 
L 169.745602 52.224 
L 169.745602 54.912 
L 169.745602 57.6 
L 169.745602 60.288 
L 169.745602 62.976 
L 169.745602 65.664 
L 169.745602 68.352 
L 169.745602 71.04 
L 169.745602 73.728 
L 169.745602 76.416 
L 169.745602 79.104 
L 169.745602 81.792 
L 169.745602 84.48 
L 169.745602 87.168 
L 169.745602 89.856 
L 169.745602 92.544 
L 169.745602 95.232 
L 169.745602 97.92 
L 169.745602 100.608 
L 169.745602 103.296 
L 169.745602 105.984 
L 169.745602 108.672 
L 169.745602 111.36 
L 169.745602 114.048 
L 169.745602 116.736 
L 169.745602 119.424 
L 169.745602 122.112 
L 169.745602 124.8 
L 169.745602 127.488 
L 169.745602 130.176 
L 169.745602 132.864 
L 169.745602 135.552 
L 169.745602 138.24 
L 169.745602 140.928 
L 169.745602 143.616 
L 169.745602 146.304 
L 169.745602 148.992 
L 169.745602 151.68 
L 169.745602 154.368 
L 169.745602 157.056 
L 169.745602 159.744 
L 169.745602 162.432 
L 169.745602 165.12 
L 169.745602 167.808 
L 169.745602 170.496 
L 169.745602 173.184 
L 169.745602 175.872 
L 169.745602 178.56 
L 169.745602 181.248 
L 169.745602 183.936 
L 169.745602 186.624 
L 169.745602 189.312 
L 169.745602 192 
L 169.745602 194.688 
L 169.745602 197.376 
L 169.745602 200.064 
L 169.745602 202.752 
L 169.745602 205.44 
L 169.745602 208.128 
L 169.745602 210.816 
L 169.745602 213.504 
L 169.745602 216.192 
L 169.745602 218.88 
L 169.745602 221.568 
L 169.745602 224.256 
L 169.745602 226.944 
L 169.745602 229.632 
L 169.745602 232.32 
L 169.745602 235.008 
L 169.745602 237.696 
L 169.745602 240.384 
L 169.745602 243.072 
L 169.745602 245.76 
L 169.745602 248.448 
L 169.745602 251.136 
L 169.745602 253.824 
L 169.745602 256.512 
L 169.745602 259.2 
L 169.745602 261.888 
L 169.745602 264.576 
L 169.745602 267.264 
L 169.745602 269.952 
L 169.745602 272.64 
L 169.745602 275.328 
L 169.745602 278.016 
L 129.024 279.421552 
L 120.039573 280.704 
L 74.895827 283.392 
L 74.895827 286.08 
L 57.6 286.628466 
L 57.6 288.160838 
z
" clip-path="url(#p5c8ca6bd40)" style="fill: #2e6e8e; fill-opacity: 0.75"/>
   </g>
   <g id="PathCollection_4">
    <path d="M 86.776432 288.768 
L 129.024 287.428292 
L 200.448 286.880614 
L 271.872 286.880614 
L 343.296 286.880614 
L 414.72 286.880614 
L 414.72 286.08 
L 414.72 283.392 
L 414.72 282.017986 
L 343.296 282.017986 
L 271.872 282.017986 
L 200.448 282.017986 
L 129.024 283.046354 
L 123.219039 283.392 
L 123.219039 286.08 
L 57.6 288.160838 
L 57.6 288.768 
L 57.6 290.56998 
z
" clip-path="url(#p5c8ca6bd40)" style="fill: #21918c; fill-opacity: 0.75"/>
   </g>
   <g id="PathCollection_5">
    <path d="M 65.024122 304.896 
L 65.024122 302.208 
L 91.577373 299.52 
L 91.577373 296.832 
L 91.577373 294.144 
L 91.577373 291.456 
L 129.024 289.143241 
L 154.149782 288.768 
L 200.448 288.412986 
L 271.872 288.412986 
L 343.296 288.412986 
L 414.72 288.412986 
L 414.72 286.880614 
L 343.296 286.880614 
L 271.872 286.880614 
L 200.448 286.880614 
L 129.024 287.428292 
L 86.776432 288.768 
L 57.6 290.56998 
L 57.6 291.456 
L 57.6 294.144 
L 57.6 296.832 
L 57.6 299.52 
L 57.6 302.208 
L 57.6 304.896 
L 57.6 307.584 
L 65.024122 307.584 
z
" clip-path="url(#p5c8ca6bd40)" style="fill: #2db27d; fill-opacity: 0.75"/>
   </g>
   <g id="PathCollection_6">
    <path d="M 113.347335 304.896 
L 113.347335 302.208 
L 129.024 300.621043 
L 174.004033 299.52 
L 174.004033 296.832 
L 174.004033 294.144 
L 174.004033 291.456 
L 200.448 291.061073 
L 271.872 291.061073 
L 343.296 291.061073 
L 414.72 291.061073 
L 414.72 288.768 
L 414.72 288.412986 
L 343.296 288.412986 
L 271.872 288.412986 
L 200.448 288.412986 
L 154.149782 288.768 
L 129.024 289.143241 
L 91.577373 291.456 
L 91.577373 294.144 
L 91.577373 296.832 
L 91.577373 299.52 
L 65.024122 302.208 
L 65.024122 304.896 
L 65.024122 307.584 
L 113.347335 307.584 
z
" clip-path="url(#p5c8ca6bd40)" style="fill: #73d056; fill-opacity: 0.75"/>
   </g>
   <g id="PathCollection_7">
    <path d="M 129.024 307.584 
L 200.448 307.584 
L 271.872 307.584 
L 343.296 307.584 
L 414.72 307.584 
L 414.72 304.896 
L 414.72 302.208 
L 414.72 299.52 
L 414.72 296.832 
L 414.72 294.144 
L 414.72 291.456 
L 414.72 291.061073 
L 343.296 291.061073 
L 271.872 291.061073 
L 200.448 291.061073 
L 174.004033 291.456 
L 174.004033 294.144 
L 174.004033 296.832 
L 174.004033 299.52 
L 129.024 300.621043 
L 113.347335 302.208 
L 113.347335 304.896 
L 113.347335 307.584 
z
" clip-path="url(#p5c8ca6bd40)" style="fill: #d0e11c; fill-opacity: 0.75"/>
   </g>
   <g id="matplotlib.axis_1">
    <g id="xtick_1">
     <g id="line2d_1">
      <defs>
       <path id="m49a9ced7d5" d="M 0 0 
L 0 3.5 
" style="stroke: #000000; stroke-width: 0.8"/>
      </defs>
      <g>
       <use xlink:href="#m49a9ced7d5" x="57.6" y="307.584" style="stroke: #000000; stroke-width: 0.8"/>
      </g>
     </g>
     <g id="text_1">
      <!-- 1 -->
      <g transform="translate(54.41875 322.182437) scale(0.1 -0.1)">
       <defs>
        <path id="DejaVuSans-31" d="M 794 531 
L 1825 531 
L 1825 4091 
L 703 3866 
L 703 4441 
L 1819 4666 
L 2450 4666 
L 2450 531 
L 3481 531 
L 3481 0 
L 794 0 
L 794 531 
z
" transform="scale(0.015625)"/>
       </defs>
       <use xlink:href="#DejaVuSans-31"/>
      </g>
     </g>
    </g>
    <g id="xtick_2">
     <g id="line2d_2">
      <g>
       <use xlink:href="#m49a9ced7d5" x="129.024" y="307.584" style="stroke: #000000; stroke-width: 0.8"/>
      </g>
     </g>
     <g id="text_2">
      <!-- 2 -->
      <g transform="translate(125.84275 322.182437) scale(0.1 -0.1)">
       <defs>
        <path id="DejaVuSans-32" d="M 1228 531 
L 3431 531 
L 3431 0 
L 469 0 
L 469 531 
Q 828 903 1448 1529 
Q 2069 2156 2228 2338 
Q 2531 2678 2651 2914 
Q 2772 3150 2772 3378 
Q 2772 3750 2511 3984 
Q 2250 4219 1831 4219 
Q 1534 4219 1204 4116 
Q 875 4013 500 3803 
L 500 4441 
Q 881 4594 1212 4672 
Q 1544 4750 1819 4750 
Q 2544 4750 2975 4387 
Q 3406 4025 3406 3419 
Q 3406 3131 3298 2873 
Q 3191 2616 2906 2266 
Q 2828 2175 2409 1742 
Q 1991 1309 1228 531 
z
" transform="scale(0.015625)"/>
       </defs>
       <use xlink:href="#DejaVuSans-32"/>
      </g>
     </g>
    </g>
    <g id="xtick_3">
     <g id="line2d_3">
      <g>
       <use xlink:href="#m49a9ced7d5" x="200.448" y="307.584" style="stroke: #000000; stroke-width: 0.8"/>
      </g>
     </g>
     <g id="text_3">
      <!-- 3 -->
      <g transform="translate(197.26675 322.182437) scale(0.1 -0.1)">
       <defs>
        <path id="DejaVuSans-33" d="M 2597 2516 
Q 3050 2419 3304 2112 
Q 3559 1806 3559 1356 
Q 3559 666 3084 287 
Q 2609 -91 1734 -91 
Q 1441 -91 1130 -33 
Q 819 25 488 141 
L 488 750 
Q 750 597 1062 519 
Q 1375 441 1716 441 
Q 2309 441 2620 675 
Q 2931 909 2931 1356 
Q 2931 1769 2642 2001 
Q 2353 2234 1838 2234 
L 1294 2234 
L 1294 2753 
L 1863 2753 
Q 2328 2753 2575 2939 
Q 2822 3125 2822 3475 
Q 2822 3834 2567 4026 
Q 2313 4219 1838 4219 
Q 1578 4219 1281 4162 
Q 984 4106 628 3988 
L 628 4550 
Q 988 4650 1302 4700 
Q 1616 4750 1894 4750 
Q 2613 4750 3031 4423 
Q 3450 4097 3450 3541 
Q 3450 3153 3228 2886 
Q 3006 2619 2597 2516 
z
" transform="scale(0.015625)"/>
       </defs>
       <use xlink:href="#DejaVuSans-33"/>
      </g>
     </g>
    </g>
    <g id="xtick_4">
     <g id="line2d_4">
      <g>
       <use xlink:href="#m49a9ced7d5" x="271.872" y="307.584" style="stroke: #000000; stroke-width: 0.8"/>
      </g>
     </g>
     <g id="text_4">
      <!-- 4 -->
      <g transform="translate(268.69075 322.182437) scale(0.1 -0.1)">
       <defs>
        <path id="DejaVuSans-34" d="M 2419 4116 
L 825 1625 
L 2419 1625 
L 2419 4116 
z
M 2253 4666 
L 3047 4666 
L 3047 1625 
L 3713 1625 
L 3713 1100 
L 3047 1100 
L 3047 0 
L 2419 0 
L 2419 1100 
L 313 1100 
L 313 1709 
L 2253 4666 
z
" transform="scale(0.015625)"/>
       </defs>
       <use xlink:href="#DejaVuSans-34"/>
      </g>
     </g>
    </g>
    <g id="xtick_5">
     <g id="line2d_5">
      <g>
       <use xlink:href="#m49a9ced7d5" x="343.296" y="307.584" style="stroke: #000000; stroke-width: 0.8"/>
      </g>
     </g>
     <g id="text_5">
      <!-- 5 -->
      <g transform="translate(340.11475 322.182437) scale(0.1 -0.1)">
       <defs>
        <path id="DejaVuSans-35" d="M 691 4666 
L 3169 4666 
L 3169 4134 
L 1269 4134 
L 1269 2991 
Q 1406 3038 1543 3061 
Q 1681 3084 1819 3084 
Q 2600 3084 3056 2656 
Q 3513 2228 3513 1497 
Q 3513 744 3044 326 
Q 2575 -91 1722 -91 
Q 1428 -91 1123 -41 
Q 819 9 494 109 
L 494 744 
Q 775 591 1075 516 
Q 1375 441 1709 441 
Q 2250 441 2565 725 
Q 2881 1009 2881 1497 
Q 2881 1984 2565 2268 
Q 2250 2553 1709 2553 
Q 1456 2553 1204 2497 
Q 953 2441 691 2322 
L 691 4666 
z
" transform="scale(0.015625)"/>
       </defs>
       <use xlink:href="#DejaVuSans-35"/>
      </g>
     </g>
    </g>
    <g id="xtick_6">
     <g id="line2d_6">
      <g>
       <use xlink:href="#m49a9ced7d5" x="414.72" y="307.584" style="stroke: #000000; stroke-width: 0.8"/>
      </g>
     </g>
     <g id="text_6">
      <!-- 6 -->
      <g transform="translate(411.53875 322.182437) scale(0.1 -0.1)">
       <defs>
        <path id="DejaVuSans-36" d="M 2113 2584 
Q 1688 2584 1439 2293 
Q 1191 2003 1191 1497 
Q 1191 994 1439 701 
Q 1688 409 2113 409 
Q 2538 409 2786 701 
Q 3034 994 3034 1497 
Q 3034 2003 2786 2293 
Q 2538 2584 2113 2584 
z
M 3366 4563 
L 3366 3988 
Q 3128 4100 2886 4159 
Q 2644 4219 2406 4219 
Q 1781 4219 1451 3797 
Q 1122 3375 1075 2522 
Q 1259 2794 1537 2939 
Q 1816 3084 2150 3084 
Q 2853 3084 3261 2657 
Q 3669 2231 3669 1497 
Q 3669 778 3244 343 
Q 2819 -91 2113 -91 
Q 1303 -91 875 529 
Q 447 1150 447 2328 
Q 447 3434 972 4092 
Q 1497 4750 2381 4750 
Q 2619 4750 2861 4703 
Q 3103 4656 3366 4563 
z
" transform="scale(0.015625)"/>
       </defs>
       <use xlink:href="#DejaVuSans-36"/>
      </g>
     </g>
    </g>
    <g id="text_7">
     <!-- Parent Location -->
     <g transform="translate(197.420156 335.860562) scale(0.1 -0.1)">
      <defs>
       <path id="DejaVuSans-50" d="M 1259 4147 
L 1259 2394 
L 2053 2394 
Q 2494 2394 2734 2622 
Q 2975 2850 2975 3272 
Q 2975 3691 2734 3919 
Q 2494 4147 2053 4147 
L 1259 4147 
z
M 628 4666 
L 2053 4666 
Q 2838 4666 3239 4311 
Q 3641 3956 3641 3272 
Q 3641 2581 3239 2228 
Q 2838 1875 2053 1875 
L 1259 1875 
L 1259 0 
L 628 0 
L 628 4666 
z
" transform="scale(0.015625)"/>
       <path id="DejaVuSans-61" d="M 2194 1759 
Q 1497 1759 1228 1600 
Q 959 1441 959 1056 
Q 959 750 1161 570 
Q 1363 391 1709 391 
Q 2188 391 2477 730 
Q 2766 1069 2766 1631 
L 2766 1759 
L 2194 1759 
z
M 3341 1997 
L 3341 0 
L 2766 0 
L 2766 531 
Q 2569 213 2275 61 
Q 1981 -91 1556 -91 
Q 1019 -91 701 211 
Q 384 513 384 1019 
Q 384 1609 779 1909 
Q 1175 2209 1959 2209 
L 2766 2209 
L 2766 2266 
Q 2766 2663 2505 2880 
Q 2244 3097 1772 3097 
Q 1472 3097 1187 3025 
Q 903 2953 641 2809 
L 641 3341 
Q 956 3463 1253 3523 
Q 1550 3584 1831 3584 
Q 2591 3584 2966 3190 
Q 3341 2797 3341 1997 
z
" transform="scale(0.015625)"/>
       <path id="DejaVuSans-72" d="M 2631 2963 
Q 2534 3019 2420 3045 
Q 2306 3072 2169 3072 
Q 1681 3072 1420 2755 
Q 1159 2438 1159 1844 
L 1159 0 
L 581 0 
L 581 3500 
L 1159 3500 
L 1159 2956 
Q 1341 3275 1631 3429 
Q 1922 3584 2338 3584 
Q 2397 3584 2469 3576 
Q 2541 3569 2628 3553 
L 2631 2963 
z
" transform="scale(0.015625)"/>
       <path id="DejaVuSans-65" d="M 3597 1894 
L 3597 1613 
L 953 1613 
Q 991 1019 1311 708 
Q 1631 397 2203 397 
Q 2534 397 2845 478 
Q 3156 559 3463 722 
L 3463 178 
Q 3153 47 2828 -22 
Q 2503 -91 2169 -91 
Q 1331 -91 842 396 
Q 353 884 353 1716 
Q 353 2575 817 3079 
Q 1281 3584 2069 3584 
Q 2775 3584 3186 3129 
Q 3597 2675 3597 1894 
z
M 3022 2063 
Q 3016 2534 2758 2815 
Q 2500 3097 2075 3097 
Q 1594 3097 1305 2825 
Q 1016 2553 972 2059 
L 3022 2063 
z
" transform="scale(0.015625)"/>
       <path id="DejaVuSans-6e" d="M 3513 2113 
L 3513 0 
L 2938 0 
L 2938 2094 
Q 2938 2591 2744 2837 
Q 2550 3084 2163 3084 
Q 1697 3084 1428 2787 
Q 1159 2491 1159 1978 
L 1159 0 
L 581 0 
L 581 3500 
L 1159 3500 
L 1159 2956 
Q 1366 3272 1645 3428 
Q 1925 3584 2291 3584 
Q 2894 3584 3203 3211 
Q 3513 2838 3513 2113 
z
" transform="scale(0.015625)"/>
       <path id="DejaVuSans-74" d="M 1172 4494 
L 1172 3500 
L 2356 3500 
L 2356 3053 
L 1172 3053 
L 1172 1153 
Q 1172 725 1289 603 
Q 1406 481 1766 481 
L 2356 481 
L 2356 0 
L 1766 0 
Q 1100 0 847 248 
Q 594 497 594 1153 
L 594 3053 
L 172 3053 
L 172 3500 
L 594 3500 
L 594 4494 
L 1172 4494 
z
" transform="scale(0.015625)"/>
       <path id="DejaVuSans-20" transform="scale(0.015625)"/>
       <path id="DejaVuSans-4c" d="M 628 4666 
L 1259 4666 
L 1259 531 
L 3531 531 
L 3531 0 
L 628 0 
L 628 4666 
z
" transform="scale(0.015625)"/>
       <path id="DejaVuSans-6f" d="M 1959 3097 
Q 1497 3097 1228 2736 
Q 959 2375 959 1747 
Q 959 1119 1226 758 
Q 1494 397 1959 397 
Q 2419 397 2687 759 
Q 2956 1122 2956 1747 
Q 2956 2369 2687 2733 
Q 2419 3097 1959 3097 
z
M 1959 3584 
Q 2709 3584 3137 3096 
Q 3566 2609 3566 1747 
Q 3566 888 3137 398 
Q 2709 -91 1959 -91 
Q 1206 -91 779 398 
Q 353 888 353 1747 
Q 353 2609 779 3096 
Q 1206 3584 1959 3584 
z
" transform="scale(0.015625)"/>
       <path id="DejaVuSans-63" d="M 3122 3366 
L 3122 2828 
Q 2878 2963 2633 3030 
Q 2388 3097 2138 3097 
Q 1578 3097 1268 2742 
Q 959 2388 959 1747 
Q 959 1106 1268 751 
Q 1578 397 2138 397 
Q 2388 397 2633 464 
Q 2878 531 3122 666 
L 3122 134 
Q 2881 22 2623 -34 
Q 2366 -91 2075 -91 
Q 1284 -91 818 406 
Q 353 903 353 1747 
Q 353 2603 823 3093 
Q 1294 3584 2113 3584 
Q 2378 3584 2631 3529 
Q 2884 3475 3122 3366 
z
" transform="scale(0.015625)"/>
       <path id="DejaVuSans-69" d="M 603 3500 
L 1178 3500 
L 1178 0 
L 603 0 
L 603 3500 
z
M 603 4863 
L 1178 4863 
L 1178 4134 
L 603 4134 
L 603 4863 
z
" transform="scale(0.015625)"/>
      </defs>
      <use xlink:href="#DejaVuSans-50"/>
      <use xlink:href="#DejaVuSans-61" x="55.802734"/>
      <use xlink:href="#DejaVuSans-72" x="117.082031"/>
      <use xlink:href="#DejaVuSans-65" x="155.945312"/>
      <use xlink:href="#DejaVuSans-6e" x="217.46875"/>
      <use xlink:href="#DejaVuSans-74" x="280.847656"/>
      <use xlink:href="#DejaVuSans-20" x="320.056641"/>
      <use xlink:href="#DejaVuSans-4c" x="351.84375"/>
      <use xlink:href="#DejaVuSans-6f" x="405.806641"/>
      <use xlink:href="#DejaVuSans-63" x="466.988281"/>
      <use xlink:href="#DejaVuSans-61" x="521.96875"/>
      <use xlink:href="#DejaVuSans-74" x="583.248047"/>
      <use xlink:href="#DejaVuSans-69" x="622.457031"/>
      <use xlink:href="#DejaVuSans-6f" x="650.240234"/>
      <use xlink:href="#DejaVuSans-6e" x="711.421875"/>
     </g>
    </g>
   </g>
   <g id="matplotlib.axis_2">
    <g id="ytick_1">
     <g id="line2d_7">
      <defs>
       <path id="mf05cd264b6" d="M 0 0 
L -3.5 0 
" style="stroke: #000000; stroke-width: 0.8"/>
      </defs>
      <g>
       <use xlink:href="#mf05cd264b6" x="57.6" y="264.278565" style="stroke: #000000; stroke-width: 0.8"/>
      </g>
     </g>
     <g id="text_8">
      <!-- 2 -->
      <g transform="translate(44.2375 268.077784) scale(0.1 -0.1)">
       <use xlink:href="#DejaVuSans-32"/>
      </g>
     </g>
    </g>
    <g id="ytick_2">
     <g id="line2d_8">
      <g>
       <use xlink:href="#mf05cd264b6" x="57.6" y="219.888156" style="stroke: #000000; stroke-width: 0.8"/>
      </g>
     </g>
     <g id="text_9">
      <!-- 4 -->
      <g transform="translate(44.2375 223.687375) scale(0.1 -0.1)">
       <use xlink:href="#DejaVuSans-34"/>
      </g>
     </g>
    </g>
    <g id="ytick_3">
     <g id="line2d_9">
      <g>
       <use xlink:href="#mf05cd264b6" x="57.6" y="175.497746" style="stroke: #000000; stroke-width: 0.8"/>
      </g>
     </g>
     <g id="text_10">
      <!-- 6 -->
      <g transform="translate(44.2375 179.296965) scale(0.1 -0.1)">
       <use xlink:href="#DejaVuSans-36"/>
      </g>
     </g>
    </g>
    <g id="ytick_4">
     <g id="line2d_10">
      <g>
       <use xlink:href="#mf05cd264b6" x="57.6" y="131.107337" style="stroke: #000000; stroke-width: 0.8"/>
      </g>
     </g>
     <g id="text_11">
      <!-- 8 -->
      <g transform="translate(44.2375 134.906556) scale(0.1 -0.1)">
       <defs>
        <path id="DejaVuSans-38" d="M 2034 2216 
Q 1584 2216 1326 1975 
Q 1069 1734 1069 1313 
Q 1069 891 1326 650 
Q 1584 409 2034 409 
Q 2484 409 2743 651 
Q 3003 894 3003 1313 
Q 3003 1734 2745 1975 
Q 2488 2216 2034 2216 
z
M 1403 2484 
Q 997 2584 770 2862 
Q 544 3141 544 3541 
Q 544 4100 942 4425 
Q 1341 4750 2034 4750 
Q 2731 4750 3128 4425 
Q 3525 4100 3525 3541 
Q 3525 3141 3298 2862 
Q 3072 2584 2669 2484 
Q 3125 2378 3379 2068 
Q 3634 1759 3634 1313 
Q 3634 634 3220 271 
Q 2806 -91 2034 -91 
Q 1263 -91 848 271 
Q 434 634 434 1313 
Q 434 1759 690 2068 
Q 947 2378 1403 2484 
z
M 1172 3481 
Q 1172 3119 1398 2916 
Q 1625 2713 2034 2713 
Q 2441 2713 2670 2916 
Q 2900 3119 2900 3481 
Q 2900 3844 2670 4047 
Q 2441 4250 2034 4250 
Q 1625 4250 1398 4047 
Q 1172 3844 1172 3481 
z
" transform="scale(0.015625)"/>
       </defs>
       <use xlink:href="#DejaVuSans-38"/>
      </g>
     </g>
    </g>
    <g id="ytick_5">
     <g id="line2d_11">
      <g>
       <use xlink:href="#mf05cd264b6" x="57.6" y="86.716927" style="stroke: #000000; stroke-width: 0.8"/>
      </g>
     </g>
     <g id="text_12">
      <!-- 10 -->
      <g transform="translate(37.875 90.516146) scale(0.1 -0.1)">
       <defs>
        <path id="DejaVuSans-30" d="M 2034 4250 
Q 1547 4250 1301 3770 
Q 1056 3291 1056 2328 
Q 1056 1369 1301 889 
Q 1547 409 2034 409 
Q 2525 409 2770 889 
Q 3016 1369 3016 2328 
Q 3016 3291 2770 3770 
Q 2525 4250 2034 4250 
z
M 2034 4750 
Q 2819 4750 3233 4129 
Q 3647 3509 3647 2328 
Q 3647 1150 3233 529 
Q 2819 -91 2034 -91 
Q 1250 -91 836 529 
Q 422 1150 422 2328 
Q 422 3509 836 4129 
Q 1250 4750 2034 4750 
z
" transform="scale(0.015625)"/>
       </defs>
       <use xlink:href="#DejaVuSans-31"/>
       <use xlink:href="#DejaVuSans-30" x="63.623047"/>
      </g>
     </g>
    </g>
    <g id="ytick_6">
     <g id="line2d_12">
      <g>
       <use xlink:href="#mf05cd264b6" x="57.6" y="42.326518" style="stroke: #000000; stroke-width: 0.8"/>
      </g>
     </g>
     <g id="text_13">
      <!-- 12 -->
      <g transform="translate(37.875 46.125737) scale(0.1 -0.1)">
       <use xlink:href="#DejaVuSans-31"/>
       <use xlink:href="#DejaVuSans-32" x="63.623047"/>
      </g>
     </g>
    </g>
    <g id="text_14">
     <!-- Sheep &amp; Goat Consumption -->
     <g transform="translate(31.795312 243.937375) rotate(-90) scale(0.1 -0.1)">
      <defs>
       <path id="DejaVuSans-53" d="M 3425 4513 
L 3425 3897 
Q 3066 4069 2747 4153 
Q 2428 4238 2131 4238 
Q 1616 4238 1336 4038 
Q 1056 3838 1056 3469 
Q 1056 3159 1242 3001 
Q 1428 2844 1947 2747 
L 2328 2669 
Q 3034 2534 3370 2195 
Q 3706 1856 3706 1288 
Q 3706 609 3251 259 
Q 2797 -91 1919 -91 
Q 1588 -91 1214 -16 
Q 841 59 441 206 
L 441 856 
Q 825 641 1194 531 
Q 1563 422 1919 422 
Q 2459 422 2753 634 
Q 3047 847 3047 1241 
Q 3047 1584 2836 1778 
Q 2625 1972 2144 2069 
L 1759 2144 
Q 1053 2284 737 2584 
Q 422 2884 422 3419 
Q 422 4038 858 4394 
Q 1294 4750 2059 4750 
Q 2388 4750 2728 4690 
Q 3069 4631 3425 4513 
z
" transform="scale(0.015625)"/>
       <path id="DejaVuSans-68" d="M 3513 2113 
L 3513 0 
L 2938 0 
L 2938 2094 
Q 2938 2591 2744 2837 
Q 2550 3084 2163 3084 
Q 1697 3084 1428 2787 
Q 1159 2491 1159 1978 
L 1159 0 
L 581 0 
L 581 4863 
L 1159 4863 
L 1159 2956 
Q 1366 3272 1645 3428 
Q 1925 3584 2291 3584 
Q 2894 3584 3203 3211 
Q 3513 2838 3513 2113 
z
" transform="scale(0.015625)"/>
       <path id="DejaVuSans-70" d="M 1159 525 
L 1159 -1331 
L 581 -1331 
L 581 3500 
L 1159 3500 
L 1159 2969 
Q 1341 3281 1617 3432 
Q 1894 3584 2278 3584 
Q 2916 3584 3314 3078 
Q 3713 2572 3713 1747 
Q 3713 922 3314 415 
Q 2916 -91 2278 -91 
Q 1894 -91 1617 61 
Q 1341 213 1159 525 
z
M 3116 1747 
Q 3116 2381 2855 2742 
Q 2594 3103 2138 3103 
Q 1681 3103 1420 2742 
Q 1159 2381 1159 1747 
Q 1159 1113 1420 752 
Q 1681 391 2138 391 
Q 2594 391 2855 752 
Q 3116 1113 3116 1747 
z
" transform="scale(0.015625)"/>
       <path id="DejaVuSans-26" d="M 1556 2509 
Q 1272 2256 1139 2004 
Q 1006 1753 1006 1478 
Q 1006 1022 1337 719 
Q 1669 416 2169 416 
Q 2466 416 2725 514 
Q 2984 613 3213 813 
L 1556 2509 
z
M 1997 2859 
L 3584 1234 
Q 3769 1513 3872 1830 
Q 3975 2147 3994 2503 
L 4575 2503 
Q 4538 2091 4375 1687 
Q 4213 1284 3922 891 
L 4794 0 
L 4006 0 
L 3559 459 
Q 3234 181 2878 45 
Q 2522 -91 2113 -91 
Q 1359 -91 881 339 
Q 403 769 403 1441 
Q 403 1841 612 2192 
Q 822 2544 1241 2853 
Q 1091 3050 1012 3245 
Q 934 3441 934 3628 
Q 934 4134 1281 4442 
Q 1628 4750 2203 4750 
Q 2463 4750 2720 4694 
Q 2978 4638 3244 4525 
L 3244 3956 
Q 2972 4103 2725 4179 
Q 2478 4256 2266 4256 
Q 1938 4256 1733 4082 
Q 1528 3909 1528 3634 
Q 1528 3475 1620 3314 
Q 1713 3153 1997 2859 
z
" transform="scale(0.015625)"/>
       <path id="DejaVuSans-47" d="M 3809 666 
L 3809 1919 
L 2778 1919 
L 2778 2438 
L 4434 2438 
L 4434 434 
Q 4069 175 3628 42 
Q 3188 -91 2688 -91 
Q 1594 -91 976 548 
Q 359 1188 359 2328 
Q 359 3472 976 4111 
Q 1594 4750 2688 4750 
Q 3144 4750 3555 4637 
Q 3966 4525 4313 4306 
L 4313 3634 
Q 3963 3931 3569 4081 
Q 3175 4231 2741 4231 
Q 1884 4231 1454 3753 
Q 1025 3275 1025 2328 
Q 1025 1384 1454 906 
Q 1884 428 2741 428 
Q 3075 428 3337 486 
Q 3600 544 3809 666 
z
" transform="scale(0.015625)"/>
       <path id="DejaVuSans-43" d="M 4122 4306 
L 4122 3641 
Q 3803 3938 3442 4084 
Q 3081 4231 2675 4231 
Q 1875 4231 1450 3742 
Q 1025 3253 1025 2328 
Q 1025 1406 1450 917 
Q 1875 428 2675 428 
Q 3081 428 3442 575 
Q 3803 722 4122 1019 
L 4122 359 
Q 3791 134 3420 21 
Q 3050 -91 2638 -91 
Q 1578 -91 968 557 
Q 359 1206 359 2328 
Q 359 3453 968 4101 
Q 1578 4750 2638 4750 
Q 3056 4750 3426 4639 
Q 3797 4528 4122 4306 
z
" transform="scale(0.015625)"/>
       <path id="DejaVuSans-73" d="M 2834 3397 
L 2834 2853 
Q 2591 2978 2328 3040 
Q 2066 3103 1784 3103 
Q 1356 3103 1142 2972 
Q 928 2841 928 2578 
Q 928 2378 1081 2264 
Q 1234 2150 1697 2047 
L 1894 2003 
Q 2506 1872 2764 1633 
Q 3022 1394 3022 966 
Q 3022 478 2636 193 
Q 2250 -91 1575 -91 
Q 1294 -91 989 -36 
Q 684 19 347 128 
L 347 722 
Q 666 556 975 473 
Q 1284 391 1588 391 
Q 1994 391 2212 530 
Q 2431 669 2431 922 
Q 2431 1156 2273 1281 
Q 2116 1406 1581 1522 
L 1381 1569 
Q 847 1681 609 1914 
Q 372 2147 372 2553 
Q 372 3047 722 3315 
Q 1072 3584 1716 3584 
Q 2034 3584 2315 3537 
Q 2597 3491 2834 3397 
z
" transform="scale(0.015625)"/>
       <path id="DejaVuSans-75" d="M 544 1381 
L 544 3500 
L 1119 3500 
L 1119 1403 
Q 1119 906 1312 657 
Q 1506 409 1894 409 
Q 2359 409 2629 706 
Q 2900 1003 2900 1516 
L 2900 3500 
L 3475 3500 
L 3475 0 
L 2900 0 
L 2900 538 
Q 2691 219 2414 64 
Q 2138 -91 1772 -91 
Q 1169 -91 856 284 
Q 544 659 544 1381 
z
M 1991 3584 
L 1991 3584 
z
" transform="scale(0.015625)"/>
       <path id="DejaVuSans-6d" d="M 3328 2828 
Q 3544 3216 3844 3400 
Q 4144 3584 4550 3584 
Q 5097 3584 5394 3201 
Q 5691 2819 5691 2113 
L 5691 0 
L 5113 0 
L 5113 2094 
Q 5113 2597 4934 2840 
Q 4756 3084 4391 3084 
Q 3944 3084 3684 2787 
Q 3425 2491 3425 1978 
L 3425 0 
L 2847 0 
L 2847 2094 
Q 2847 2600 2669 2842 
Q 2491 3084 2119 3084 
Q 1678 3084 1418 2786 
Q 1159 2488 1159 1978 
L 1159 0 
L 581 0 
L 581 3500 
L 1159 3500 
L 1159 2956 
Q 1356 3278 1631 3431 
Q 1906 3584 2284 3584 
Q 2666 3584 2933 3390 
Q 3200 3197 3328 2828 
z
" transform="scale(0.015625)"/>
      </defs>
      <use xlink:href="#DejaVuSans-53"/>
      <use xlink:href="#DejaVuSans-68" x="63.476562"/>
      <use xlink:href="#DejaVuSans-65" x="126.855469"/>
      <use xlink:href="#DejaVuSans-65" x="188.378906"/>
      <use xlink:href="#DejaVuSans-70" x="249.902344"/>
      <use xlink:href="#DejaVuSans-20" x="313.378906"/>
      <use xlink:href="#DejaVuSans-26" x="345.166016"/>
      <use xlink:href="#DejaVuSans-20" x="423.144531"/>
      <use xlink:href="#DejaVuSans-47" x="454.931641"/>
      <use xlink:href="#DejaVuSans-6f" x="532.421875"/>
      <use xlink:href="#DejaVuSans-61" x="593.603516"/>
      <use xlink:href="#DejaVuSans-74" x="654.882812"/>
      <use xlink:href="#DejaVuSans-20" x="694.091797"/>
      <use xlink:href="#DejaVuSans-43" x="725.878906"/>
      <use xlink:href="#DejaVuSans-6f" x="795.703125"/>
      <use xlink:href="#DejaVuSans-6e" x="856.884766"/>
      <use xlink:href="#DejaVuSans-73" x="920.263672"/>
      <use xlink:href="#DejaVuSans-75" x="972.363281"/>
      <use xlink:href="#DejaVuSans-6d" x="1035.742188"/>
      <use xlink:href="#DejaVuSans-70" x="1133.154297"/>
      <use xlink:href="#DejaVuSans-74" x="1196.630859"/>
      <use xlink:href="#DejaVuSans-69" x="1235.839844"/>
      <use xlink:href="#DejaVuSans-6f" x="1263.623047"/>
      <use xlink:href="#DejaVuSans-6e" x="1324.804688"/>
     </g>
    </g>
   </g>
   <g id="PathCollection_8"/>
   <g id="PathCollection_9">
    <path d="M 90.547645 41.472 
L 90.547645 44.16 
L 90.547645 46.848 
L 90.547645 49.536 
L 90.547645 52.224 
L 90.547645 54.912 
L 90.547645 57.6 
L 90.547645 60.288 
L 90.547645 62.976 
L 90.547645 65.664 
L 90.547645 68.352 
L 90.547645 71.04 
L 90.547645 73.728 
L 90.547645 74.589 
" clip-path="url(#p5c8ca6bd40)" style="fill: none; stroke: #000000; stroke-width: 0.5"/>
    <path d="M 90.547645 110.499 
L 90.547645 111.36 
L 90.547645 114.048 
L 90.547645 116.736 
L 90.547645 119.424 
L 90.547645 122.112 
L 90.547645 124.8 
L 90.547645 127.488 
L 90.547645 130.176 
L 90.547645 132.864 
L 90.547645 135.552 
L 90.547645 138.24 
L 90.547645 140.928 
L 90.547645 143.616 
L 90.547645 146.304 
L 90.547645 148.992 
L 90.547645 151.68 
L 90.547645 154.368 
L 90.547645 157.056 
L 90.547645 159.744 
L 90.547645 162.432 
L 90.547645 165.12 
L 90.547645 167.808 
L 90.547645 170.496 
L 90.547645 173.184 
L 90.547645 175.872 
L 90.547645 178.56 
L 90.547645 181.248 
L 90.547645 183.936 
L 90.547645 186.624 
L 90.547645 189.312 
L 90.547645 192 
L 90.547645 194.688 
L 90.547645 197.376 
L 90.547645 200.064 
L 90.547645 202.752 
L 90.547645 205.44 
L 90.547645 208.128 
L 90.547645 210.816 
L 90.547645 213.504 
L 90.547645 216.192 
L 90.547645 218.88 
L 90.547645 221.568 
L 90.547645 224.256 
L 90.547645 226.944 
L 90.547645 229.632 
L 90.547645 232.32 
L 90.547645 235.008 
L 90.547645 237.696 
L 90.547645 240.384 
L 90.547645 243.072 
L 90.547645 245.76 
L 90.547645 248.448 
L 90.547645 251.136 
L 90.547645 253.824 
L 90.547645 256.512 
L 90.547645 259.2 
L 90.547645 261.888 
L 90.547645 264.576 
L 90.547645 267.264 
L 90.547645 269.952 
L 90.547645 272.64 
L 90.547645 275.328 
L 90.547645 278.016 
L 71.71636 280.704 
L 57.6 281.544532 
" clip-path="url(#p5c8ca6bd40)" style="fill: none; stroke: #000000; stroke-width: 0.5"/>
   </g>
   <g id="PathCollection_10">
    <path d="M 169.745602 41.472 
L 169.745602 44.16 
L 169.745602 46.848 
L 169.745602 49.536 
L 169.745602 52.224 
L 169.745602 54.912 
L 169.745602 57.6 
L 169.745602 60.288 
L 169.745602 62.976 
L 169.745602 65.664 
L 169.745602 68.352 
L 169.745602 71.04 
L 169.745602 73.728 
L 169.745602 74.589 
" clip-path="url(#p5c8ca6bd40)" style="fill: none; stroke: #000000; stroke-width: 0.5"/>
    <path d="M 169.745602 110.499 
L 169.745602 111.36 
L 169.745602 114.048 
L 169.745602 116.736 
L 169.745602 119.424 
L 169.745602 122.112 
L 169.745602 124.8 
L 169.745602 127.488 
L 169.745602 130.176 
L 169.745602 132.864 
L 169.745602 135.552 
L 169.745602 138.24 
L 169.745602 140.928 
L 169.745602 143.616 
L 169.745602 146.304 
L 169.745602 148.992 
L 169.745602 151.68 
L 169.745602 154.368 
L 169.745602 157.056 
L 169.745602 159.744 
L 169.745602 162.432 
L 169.745602 165.12 
L 169.745602 167.808 
L 169.745602 170.496 
L 169.745602 173.184 
L 169.745602 175.872 
L 169.745602 178.56 
L 169.745602 181.248 
L 169.745602 183.936 
L 169.745602 186.624 
L 169.745602 189.312 
L 169.745602 192 
L 169.745602 194.688 
L 169.745602 197.376 
L 169.745602 200.064 
L 169.745602 202.752 
L 169.745602 205.44 
L 169.745602 208.128 
L 169.745602 210.816 
L 169.745602 213.504 
L 169.745602 216.192 
L 169.745602 218.88 
L 169.745602 221.568 
L 169.745602 224.256 
L 169.745602 226.944 
L 169.745602 229.632 
L 169.745602 232.32 
L 169.745602 235.008 
L 169.745602 237.696 
L 169.745602 240.384 
L 169.745602 243.072 
L 169.745602 245.76 
L 169.745602 248.448 
L 169.745602 251.136 
L 169.745602 253.824 
L 169.745602 256.512 
L 169.745602 259.2 
L 169.745602 261.888 
L 169.745602 264.576 
L 169.745602 267.264 
L 169.745602 269.952 
L 169.745602 272.64 
L 169.745602 275.328 
L 169.745602 278.016 
L 129.024 279.421552 
L 120.039573 280.704 
L 74.895827 283.392 
L 74.895827 286.08 
L 57.6 286.628466 
" clip-path="url(#p5c8ca6bd40)" style="fill: none; stroke: #000000; stroke-width: 0.5"/>
   </g>
   <g id="PathCollection_11">
    <path d="M 414.72 282.017986 
L 343.296 282.017986 
L 271.872 282.017986 
L 200.448 282.017986 
L 146.977139 282.787864 
" clip-path="url(#p5c8ca6bd40)" style="fill: none; stroke: #000000; stroke-width: 0.5"/>
    <path d="M 113.77203 286.379573 
L 57.6 288.160838 
" clip-path="url(#p5c8ca6bd40)" style="fill: none; stroke: #000000; stroke-width: 0.5"/>
   </g>
   <g id="PathCollection_12">
    <path d="M 414.72 286.880614 
L 343.296 286.880614 
L 271.872 286.880614 
L 218.403 286.880614 
" clip-path="url(#p5c8ca6bd40)" style="fill: none; stroke: #000000; stroke-width: 0.5"/>
    <path d="M 182.493528 287.018288 
L 129.024 287.428292 
L 86.776432 288.768 
L 57.6 290.56998 
" clip-path="url(#p5c8ca6bd40)" style="fill: none; stroke: #000000; stroke-width: 0.5"/>
   </g>
   <g id="PathCollection_13">
    <path d="M 414.72 288.412986 
L 343.296 288.412986 
L 271.872 288.412986 
L 200.448 288.412986 
L 154.149782 288.768 
L 129.024 289.143241 
L 109.498226 290.349182 
" clip-path="url(#p5c8ca6bd40)" style="fill: none; stroke: #000000; stroke-width: 0.5"/>
    <path d="M 81.736666 300.51618 
L 65.024122 302.208 
L 65.024122 304.896 
L 65.024122 307.584 
" clip-path="url(#p5c8ca6bd40)" style="fill: none; stroke: #000000; stroke-width: 0.5"/>
   </g>
   <g id="PathCollection_14">
    <path d="M 414.72 291.061073 
L 343.296 291.061073 
L 271.872 291.061073 
L 200.448 291.061073 
L 186.58163 291.26816 
" clip-path="url(#p5c8ca6bd40)" style="fill: none; stroke: #000000; stroke-width: 0.5"/>
    <path d="M 158.741605 299.893601 
L 129.024 300.621043 
L 113.347335 302.208 
L 113.347335 304.896 
L 113.347335 307.584 
" clip-path="url(#p5c8ca6bd40)" style="fill: none; stroke: #000000; stroke-width: 0.5"/>
   </g>
   <g id="PathCollection_15"/>
   <g id="LineCollection_1">
    <path d="M 57.6 307.584 
L 57.6 294.2784 
" clip-path="url(#p5c8ca6bd40)" style="fill: none; stroke: #000000; stroke-width: 1.5"/>
    <path d="M 57.6 307.584 
L 57.6 294.2784 
" clip-path="url(#p5c8ca6bd40)" style="fill: none; stroke: #000000; stroke-width: 1.5"/>
    <path d="M 129.024 307.584 
L 129.024 294.2784 
" clip-path="url(#p5c8ca6bd40)" style="fill: none; stroke: #000000; stroke-width: 1.5"/>
    <path d="M 129.024 307.584 
L 129.024 294.2784 
" clip-path="url(#p5c8ca6bd40)" style="fill: none; stroke: #000000; stroke-width: 1.5"/>
    <path d="M 200.448 307.584 
L 200.448 294.2784 
" clip-path="url(#p5c8ca6bd40)" style="fill: none; stroke: #000000; stroke-width: 1.5"/>
    <path d="M 271.872 307.584 
L 271.872 294.2784 
" clip-path="url(#p5c8ca6bd40)" style="fill: none; stroke: #000000; stroke-width: 1.5"/>
    <path d="M 271.872 307.584 
L 271.872 294.2784 
" clip-path="url(#p5c8ca6bd40)" style="fill: none; stroke: #000000; stroke-width: 1.5"/>
    <path d="M 271.872 307.584 
L 271.872 294.2784 
" clip-path="url(#p5c8ca6bd40)" style="fill: none; stroke: #000000; stroke-width: 1.5"/>
    <path d="M 349.00992 307.584 
L 349.00992 294.2784 
" clip-path="url(#p5c8ca6bd40)" style="fill: none; stroke: #000000; stroke-width: 1.5"/>
   </g>
   <g id="LineCollection_2">
    <path clip-path="url(#p5c8ca6bd40)" style="fill: none; stroke: #000000; stroke-width: 1.5"/>
    <path clip-path="url(#p5c8ca6bd40)" style="fill: none; stroke: #000000; stroke-width: 1.5"/>
    <path clip-path="url(#p5c8ca6bd40)" style="fill: none; stroke: #000000; stroke-width: 1.5"/>
    <path clip-path="url(#p5c8ca6bd40)" style="fill: none; stroke: #000000; stroke-width: 1.5"/>
    <path clip-path="url(#p5c8ca6bd40)" style="fill: none; stroke: #000000; stroke-width: 1.5"/>
    <path clip-path="url(#p5c8ca6bd40)" style="fill: none; stroke: #000000; stroke-width: 1.5"/>
    <path clip-path="url(#p5c8ca6bd40)" style="fill: none; stroke: #000000; stroke-width: 1.5"/>
    <path clip-path="url(#p5c8ca6bd40)" style="fill: none; stroke: #000000; stroke-width: 1.5"/>
    <path clip-path="url(#p5c8ca6bd40)" style="fill: none; stroke: #000000; stroke-width: 1.5"/>
   </g>
   <g id="patch_3">
    <path d="M 57.6 307.584 
L 57.6 41.472 
" style="fill: none; stroke: #000000; stroke-width: 0.8; stroke-linejoin: miter; stroke-linecap: square"/>
   </g>
   <g id="patch_4">
    <path d="M 414.72 307.584 
L 414.72 41.472 
" style="fill: none; stroke: #000000; stroke-width: 0.8; stroke-linejoin: miter; stroke-linecap: square"/>
   </g>
   <g id="patch_5">
    <path d="M 57.6 307.584 
L 414.72 307.584 
" style="fill: none; stroke: #000000; stroke-width: 0.8; stroke-linejoin: miter; stroke-linecap: square"/>
   </g>
   <g id="patch_6">
    <path d="M 57.6 41.472 
L 414.72 41.472 
" style="fill: none; stroke: #000000; stroke-width: 0.8; stroke-linejoin: miter; stroke-linecap: square"/>
   </g>
   <g id="text_15">
    <!-- 2D-partial dependency plot between PL and SG -->
    <g transform="translate(93.69 35.472) scale(0.12 -0.12)">
     <defs>
      <path id="DejaVuSans-44" d="M 1259 4147 
L 1259 519 
L 2022 519 
Q 2988 519 3436 956 
Q 3884 1394 3884 2338 
Q 3884 3275 3436 3711 
Q 2988 4147 2022 4147 
L 1259 4147 
z
M 628 4666 
L 1925 4666 
Q 3281 4666 3915 4102 
Q 4550 3538 4550 2338 
Q 4550 1131 3912 565 
Q 3275 0 1925 0 
L 628 0 
L 628 4666 
z
" transform="scale(0.015625)"/>
      <path id="DejaVuSans-2d" d="M 313 2009 
L 1997 2009 
L 1997 1497 
L 313 1497 
L 313 2009 
z
" transform="scale(0.015625)"/>
      <path id="DejaVuSans-6c" d="M 603 4863 
L 1178 4863 
L 1178 0 
L 603 0 
L 603 4863 
z
" transform="scale(0.015625)"/>
      <path id="DejaVuSans-64" d="M 2906 2969 
L 2906 4863 
L 3481 4863 
L 3481 0 
L 2906 0 
L 2906 525 
Q 2725 213 2448 61 
Q 2172 -91 1784 -91 
Q 1150 -91 751 415 
Q 353 922 353 1747 
Q 353 2572 751 3078 
Q 1150 3584 1784 3584 
Q 2172 3584 2448 3432 
Q 2725 3281 2906 2969 
z
M 947 1747 
Q 947 1113 1208 752 
Q 1469 391 1925 391 
Q 2381 391 2643 752 
Q 2906 1113 2906 1747 
Q 2906 2381 2643 2742 
Q 2381 3103 1925 3103 
Q 1469 3103 1208 2742 
Q 947 2381 947 1747 
z
" transform="scale(0.015625)"/>
      <path id="DejaVuSans-79" d="M 2059 -325 
Q 1816 -950 1584 -1140 
Q 1353 -1331 966 -1331 
L 506 -1331 
L 506 -850 
L 844 -850 
Q 1081 -850 1212 -737 
Q 1344 -625 1503 -206 
L 1606 56 
L 191 3500 
L 800 3500 
L 1894 763 
L 2988 3500 
L 3597 3500 
L 2059 -325 
z
" transform="scale(0.015625)"/>
      <path id="DejaVuSans-62" d="M 3116 1747 
Q 3116 2381 2855 2742 
Q 2594 3103 2138 3103 
Q 1681 3103 1420 2742 
Q 1159 2381 1159 1747 
Q 1159 1113 1420 752 
Q 1681 391 2138 391 
Q 2594 391 2855 752 
Q 3116 1113 3116 1747 
z
M 1159 2969 
Q 1341 3281 1617 3432 
Q 1894 3584 2278 3584 
Q 2916 3584 3314 3078 
Q 3713 2572 3713 1747 
Q 3713 922 3314 415 
Q 2916 -91 2278 -91 
Q 1894 -91 1617 61 
Q 1341 213 1159 525 
L 1159 0 
L 581 0 
L 581 4863 
L 1159 4863 
L 1159 2969 
z
" transform="scale(0.015625)"/>
      <path id="DejaVuSans-77" d="M 269 3500 
L 844 3500 
L 1563 769 
L 2278 3500 
L 2956 3500 
L 3675 769 
L 4391 3500 
L 4966 3500 
L 4050 0 
L 3372 0 
L 2619 2869 
L 1863 0 
L 1184 0 
L 269 3500 
z
" transform="scale(0.015625)"/>
     </defs>
     <use xlink:href="#DejaVuSans-32"/>
     <use xlink:href="#DejaVuSans-44" x="63.623047"/>
     <use xlink:href="#DejaVuSans-2d" x="140.625"/>
     <use xlink:href="#DejaVuSans-70" x="176.708984"/>
     <use xlink:href="#DejaVuSans-61" x="240.185547"/>
     <use xlink:href="#DejaVuSans-72" x="301.464844"/>
     <use xlink:href="#DejaVuSans-74" x="342.578125"/>
     <use xlink:href="#DejaVuSans-69" x="381.787109"/>
     <use xlink:href="#DejaVuSans-61" x="409.570312"/>
     <use xlink:href="#DejaVuSans-6c" x="470.849609"/>
     <use xlink:href="#DejaVuSans-20" x="498.632812"/>
     <use xlink:href="#DejaVuSans-64" x="530.419922"/>
     <use xlink:href="#DejaVuSans-65" x="593.896484"/>
     <use xlink:href="#DejaVuSans-70" x="655.419922"/>
     <use xlink:href="#DejaVuSans-65" x="718.896484"/>
     <use xlink:href="#DejaVuSans-6e" x="780.419922"/>
     <use xlink:href="#DejaVuSans-64" x="843.798828"/>
     <use xlink:href="#DejaVuSans-65" x="907.275391"/>
     <use xlink:href="#DejaVuSans-6e" x="968.798828"/>
     <use xlink:href="#DejaVuSans-63" x="1032.177734"/>
     <use xlink:href="#DejaVuSans-79" x="1087.158203"/>
     <use xlink:href="#DejaVuSans-20" x="1146.337891"/>
     <use xlink:href="#DejaVuSans-70" x="1178.125"/>
     <use xlink:href="#DejaVuSans-6c" x="1241.601562"/>
     <use xlink:href="#DejaVuSans-6f" x="1269.384766"/>
     <use xlink:href="#DejaVuSans-74" x="1330.566406"/>
     <use xlink:href="#DejaVuSans-20" x="1369.775391"/>
     <use xlink:href="#DejaVuSans-62" x="1401.5625"/>
     <use xlink:href="#DejaVuSans-65" x="1465.039062"/>
     <use xlink:href="#DejaVuSans-74" x="1526.5625"/>
     <use xlink:href="#DejaVuSans-77" x="1565.771484"/>
     <use xlink:href="#DejaVuSans-65" x="1647.558594"/>
     <use xlink:href="#DejaVuSans-65" x="1709.082031"/>
     <use xlink:href="#DejaVuSans-6e" x="1770.605469"/>
     <use xlink:href="#DejaVuSans-20" x="1833.984375"/>
     <use xlink:href="#DejaVuSans-50" x="1865.771484"/>
     <use xlink:href="#DejaVuSans-4c" x="1926.074219"/>
     <use xlink:href="#DejaVuSans-20" x="1981.787109"/>
     <use xlink:href="#DejaVuSans-61" x="2013.574219"/>
     <use xlink:href="#DejaVuSans-6e" x="2074.853516"/>
     <use xlink:href="#DejaVuSans-64" x="2138.232422"/>
     <use xlink:href="#DejaVuSans-20" x="2201.708984"/>
     <use xlink:href="#DejaVuSans-53" x="2233.496094"/>
     <use xlink:href="#DejaVuSans-47" x="2296.972656"/>
    </g>
   </g>
   <g id="text_16">
    <g clip-path="url(#p5c8ca6bd40)">
     <!-- 12.87 -->
     <g transform="translate(87.78827 78.229938) rotate(-270) scale(0.1 -0.1)">
      <defs>
       <path id="DejaVuSans-2e" d="M 684 794 
L 1344 794 
L 1344 0 
L 684 0 
L 684 794 
z
" transform="scale(0.015625)"/>
       <path id="DejaVuSans-37" d="M 525 4666 
L 3525 4666 
L 3525 4397 
L 1831 0 
L 1172 0 
L 2766 4134 
L 525 4134 
L 525 4666 
z
" transform="scale(0.015625)"/>
      </defs>
      <use xlink:href="#DejaVuSans-31"/>
      <use xlink:href="#DejaVuSans-32" x="63.623047"/>
      <use xlink:href="#DejaVuSans-2e" x="127.246094"/>
      <use xlink:href="#DejaVuSans-38" x="159.033203"/>
      <use xlink:href="#DejaVuSans-37" x="222.65625"/>
     </g>
    </g>
   </g>
   <g id="text_17">
    <g clip-path="url(#p5c8ca6bd40)">
     <!-- 12.94 -->
     <g transform="translate(166.986227 78.229938) rotate(-270) scale(0.1 -0.1)">
      <defs>
       <path id="DejaVuSans-39" d="M 703 97 
L 703 672 
Q 941 559 1184 500 
Q 1428 441 1663 441 
Q 2288 441 2617 861 
Q 2947 1281 2994 2138 
Q 2813 1869 2534 1725 
Q 2256 1581 1919 1581 
Q 1219 1581 811 2004 
Q 403 2428 403 3163 
Q 403 3881 828 4315 
Q 1253 4750 1959 4750 
Q 2769 4750 3195 4129 
Q 3622 3509 3622 2328 
Q 3622 1225 3098 567 
Q 2575 -91 1691 -91 
Q 1453 -91 1209 -44 
Q 966 3 703 97 
z
M 1959 2075 
Q 2384 2075 2632 2365 
Q 2881 2656 2881 3163 
Q 2881 3666 2632 3958 
Q 2384 4250 1959 4250 
Q 1534 4250 1286 3958 
Q 1038 3666 1038 3163 
Q 1038 2656 1286 2365 
Q 1534 2075 1959 2075 
z
" transform="scale(0.015625)"/>
      </defs>
      <use xlink:href="#DejaVuSans-31"/>
      <use xlink:href="#DejaVuSans-32" x="63.623047"/>
      <use xlink:href="#DejaVuSans-2e" x="127.246094"/>
      <use xlink:href="#DejaVuSans-39" x="159.033203"/>
      <use xlink:href="#DejaVuSans-34" x="222.65625"/>
     </g>
    </g>
   </g>
   <g id="text_18">
    <g clip-path="url(#p5c8ca6bd40)">
     <!-- 13.00 -->
     <g transform="translate(115.19289 287.651452) rotate(-7.504017) scale(0.1 -0.1)">
      <use xlink:href="#DejaVuSans-31"/>
      <use xlink:href="#DejaVuSans-33" x="63.623047"/>
      <use xlink:href="#DejaVuSans-2e" x="127.246094"/>
      <use xlink:href="#DejaVuSans-30" x="159.033203"/>
      <use xlink:href="#DejaVuSans-30" x="222.65625"/>
     </g>
    </g>
   </g>
   <g id="text_19">
    <g clip-path="url(#p5c8ca6bd40)">
     <!-- 13.06 -->
     <g transform="translate(186.144622 289.694847) rotate(-0.219667) scale(0.1 -0.1)">
      <use xlink:href="#DejaVuSans-31"/>
      <use xlink:href="#DejaVuSans-33" x="63.623047"/>
      <use xlink:href="#DejaVuSans-2e" x="127.246094"/>
      <use xlink:href="#DejaVuSans-30" x="159.033203"/>
      <use xlink:href="#DejaVuSans-36" x="222.65625"/>
     </g>
    </g>
   </g>
   <g id="text_20">
    <g clip-path="url(#p5c8ca6bd40)">
     <!-- 13.13 -->
     <g transform="translate(79.764709 299.998102) rotate(-24.96058) scale(0.1 -0.1)">
      <use xlink:href="#DejaVuSans-31"/>
      <use xlink:href="#DejaVuSans-33" x="63.623047"/>
      <use xlink:href="#DejaVuSans-2e" x="127.246094"/>
      <use xlink:href="#DejaVuSans-31" x="159.033203"/>
      <use xlink:href="#DejaVuSans-33" x="222.65625"/>
     </g>
    </g>
   </g>
   <g id="text_21">
    <g clip-path="url(#p5c8ca6bd40)">
     <!-- 13.19 -->
     <g transform="translate(161.81351 304.825603) rotate(-22.342492) scale(0.1 -0.1)">
      <use xlink:href="#DejaVuSans-31"/>
      <use xlink:href="#DejaVuSans-33" x="63.623047"/>
      <use xlink:href="#DejaVuSans-2e" x="127.246094"/>
      <use xlink:href="#DejaVuSans-31" x="159.033203"/>
      <use xlink:href="#DejaVuSans-39" x="222.65625"/>
     </g>
    </g>
   </g>
  </g>
 </g>
 <defs>
  <clipPath id="p5c8ca6bd40">
   <rect x="57.6" y="41.472" width="357.12" height="266.112"/>
  </clipPath>
 </defs>
</svg>
