<?xml version="1.0" encoding="utf-8" standalone="no"?>
<!DOCTYPE svg PUBLIC "-//W3C//DTD SVG 1.1//EN"
  "http://www.w3.org/Graphics/SVG/1.1/DTD/svg11.dtd">
<svg xmlns:xlink="http://www.w3.org/1999/xlink" width="460.8pt" height="345.6pt" viewBox="0 0 460.8 345.6" xmlns="http://www.w3.org/2000/svg" version="1.1">
 <metadata>
  <rdf:RDF xmlns:dc="http://purl.org/dc/elements/1.1/" xmlns:cc="http://creativecommons.org/ns#" xmlns:rdf="http://www.w3.org/1999/02/22-rdf-syntax-ns#">
   <cc:Work>
    <dc:type rdf:resource="http://purl.org/dc/dcmitype/StillImage"/>
    <dc:date>2024-02-15T11:39:29.961905</dc:date>
    <dc:format>image/svg+xml</dc:format>
    <dc:creator>
     <cc:Agent>
      <dc:title>Matplotlib v3.7.0, https://matplotlib.org/</dc:title>
     </cc:Agent>
    </dc:creator>
   </cc:Work>
  </rdf:RDF>
 </metadata>
 <defs>
  <style type="text/css">*{stroke-linejoin: round; stroke-linecap: butt}</style>
 </defs>
 <g id="figure_1">
  <g id="patch_1">
   <path d="M 0 345.6 
L 460.8 345.6 
L 460.8 0 
L 0 0 
L 0 345.6 
z
" style="fill: none"/>
  </g>
  <g id="axes_1"/>
  <g id="axes_2">
   <g id="patch_2">
    <path d="M 57.6 307.584 
L 414.72 307.584 
L 414.72 41.472 
L 57.6 41.472 
L 57.6 307.584 
z
" style="fill: none"/>
   </g>
   <g id="PathCollection_1">
    <path d="M 61.207273 307.584 
L 64.814545 307.584 
L 68.421818 307.584 
L 72.029091 307.584 
L 75.636364 307.584 
L 79.243636 307.584 
L 82.850909 307.584 
L 86.458182 307.584 
L 90.065455 307.584 
L 93.672727 307.584 
L 97.28 307.584 
L 100.887273 307.584 
L 104.494545 307.584 
L 108.101818 307.584 
L 111.709091 307.584 
L 115.316364 307.584 
L 118.923636 307.584 
L 122.530909 307.584 
L 126.138182 307.584 
L 129.714638 307.584 
L 129.714638 304.896 
L 129.714638 302.208 
L 129.714638 299.52 
L 129.714638 296.832 
L 129.714638 294.144 
L 129.714638 291.456 
L 129.714638 288.768 
L 129.714638 286.08 
L 129.714638 283.392 
L 129.714638 280.704 
L 129.714638 278.016 
L 129.714638 275.328 
L 129.714638 272.64 
L 129.714638 269.952 
L 129.714638 267.264 
L 129.714638 264.576 
L 129.714638 261.888 
L 129.714638 259.2 
L 129.714638 256.512 
L 129.714638 253.824 
L 129.714638 251.136 
L 129.714638 248.448 
L 129.581135 245.76 
L 129.581135 243.072 
L 129.581135 240.384 
L 129.581135 237.696 
L 129.581135 235.008 
L 129.581135 232.32 
L 129.581135 229.632 
L 129.581135 226.944 
L 129.581135 224.256 
L 129.485842 221.568 
L 129.24844 218.88 
L 129.24844 216.192 
L 129.24844 213.504 
L 128.354597 210.816 
L 128.354597 208.128 
L 128.354597 205.44 
L 128.354597 202.752 
L 128.354597 200.064 
L 128.354597 197.376 
L 126.309719 194.688 
L 126.138182 194.194117 
L 122.530909 194.194117 
L 118.923636 194.194117 
L 115.316364 194.194117 
L 111.709091 194.194117 
L 108.101818 194.194117 
L 104.494545 194.194117 
L 100.887273 194.194117 
L 97.28 194.194117 
L 93.672727 194.194117 
L 90.065455 194.194117 
L 86.458182 194.194117 
L 82.850909 194.194117 
L 79.243636 194.194117 
L 75.636364 194.194117 
L 72.029091 194.194117 
L 68.421818 194.194117 
L 64.814545 194.194117 
L 61.207273 194.194117 
L 57.6 194.194117 
L 57.6 194.688 
L 57.6 197.376 
L 57.6 200.064 
L 57.6 202.752 
L 57.6 205.44 
L 57.6 208.128 
L 57.6 210.816 
L 57.6 213.504 
L 57.6 216.192 
L 57.6 218.88 
L 57.6 221.568 
L 57.6 224.256 
L 57.6 226.944 
L 57.6 229.632 
L 57.6 232.32 
L 57.6 235.008 
L 57.6 237.696 
L 57.6 240.384 
L 57.6 243.072 
L 57.6 245.76 
L 57.6 248.448 
L 57.6 251.136 
L 57.6 253.824 
L 57.6 256.512 
L 57.6 259.2 
L 57.6 261.888 
L 57.6 264.576 
L 57.6 267.264 
L 57.6 269.952 
L 57.6 272.64 
L 57.6 275.328 
L 57.6 278.016 
L 57.6 280.704 
L 57.6 283.392 
L 57.6 286.08 
L 57.6 288.768 
L 57.6 291.456 
L 57.6 294.144 
L 57.6 296.832 
L 57.6 299.52 
L 57.6 302.208 
L 57.6 304.896 
L 57.6 307.584 
z
" clip-path="url(#p3297d94061)" style="fill: #481b6d; fill-opacity: 0.75"/>
   </g>
   <g id="PathCollection_2">
    <path d="M 129.745455 307.584 
L 133.352727 307.584 
L 136.96 307.584 
L 140.567273 307.584 
L 144.174545 307.584 
L 147.781818 307.584 
L 148.475862 307.584 
L 148.475862 304.896 
L 148.475862 302.208 
L 148.475862 299.52 
L 148.475862 296.832 
L 148.475862 294.144 
L 148.475862 291.456 
L 148.475862 288.768 
L 148.475862 286.08 
L 148.475862 283.392 
L 148.475862 280.704 
L 148.475862 278.016 
L 148.475862 275.328 
L 148.475862 272.64 
L 148.475862 269.952 
L 148.475862 267.264 
L 148.475862 264.576 
L 148.475862 261.888 
L 148.475862 259.2 
L 148.475862 256.512 
L 148.475862 253.824 
L 148.475862 251.136 
L 148.475862 248.448 
L 148.404166 245.76 
L 148.404166 243.072 
L 148.404166 240.384 
L 148.404166 237.696 
L 148.404166 235.008 
L 148.404166 232.32 
L 148.404166 229.632 
L 148.404166 226.944 
L 148.404166 224.256 
L 148.352991 221.568 
L 148.225499 218.88 
L 148.225499 216.192 
L 148.225499 213.504 
L 147.781818 211.019501 
L 144.174545 211.019501 
L 144.07681 210.816 
L 144.07681 208.128 
L 144.07681 205.44 
L 144.07681 202.752 
L 144.07681 200.064 
L 144.07681 197.376 
L 141.123424 194.688 
L 140.567273 193.579323 
L 136.96 193.579323 
L 135.571093 192 
L 134.67388 189.312 
L 134.67388 186.624 
L 134.67388 183.936 
L 134.67388 181.248 
L 134.67388 178.56 
L 133.352727 176.535484 
L 129.745455 176.535484 
L 129.574455 175.872 
L 129.574455 173.184 
L 129.011799 170.496 
L 127.425751 167.808 
L 127.425751 165.12 
L 127.425751 162.432 
L 127.047941 159.744 
L 127.047941 157.056 
L 126.138182 154.98397 
L 122.530909 154.98397 
L 118.923636 154.98397 
L 115.316364 154.98397 
L 111.709091 154.98397 
L 108.101818 154.98397 
L 104.494545 154.98397 
L 100.887273 154.98397 
L 97.28 154.98397 
L 93.672727 154.98397 
L 90.065455 154.98397 
L 86.458182 154.98397 
L 82.850909 154.98397 
L 79.243636 154.98397 
L 75.636364 154.98397 
L 72.029091 154.98397 
L 68.421818 154.98397 
L 64.814545 154.98397 
L 61.207273 154.98397 
L 57.6 154.98397 
L 57.6 157.056 
L 57.6 159.744 
L 57.6 162.432 
L 57.6 165.12 
L 57.6 167.808 
L 57.6 170.496 
L 57.6 173.184 
L 57.6 175.872 
L 57.6 178.56 
L 57.6 181.248 
L 57.6 183.936 
L 57.6 186.624 
L 57.6 189.312 
L 57.6 192 
L 57.6 194.194117 
L 61.207273 194.194117 
L 64.814545 194.194117 
L 68.421818 194.194117 
L 72.029091 194.194117 
L 75.636364 194.194117 
L 79.243636 194.194117 
L 82.850909 194.194117 
L 86.458182 194.194117 
L 90.065455 194.194117 
L 93.672727 194.194117 
L 97.28 194.194117 
L 100.887273 194.194117 
L 104.494545 194.194117 
L 108.101818 194.194117 
L 111.709091 194.194117 
L 115.316364 194.194117 
L 118.923636 194.194117 
L 122.530909 194.194117 
L 126.138182 194.194117 
L 126.309719 194.688 
L 128.354597 197.376 
L 128.354597 200.064 
L 128.354597 202.752 
L 128.354597 205.44 
L 128.354597 208.128 
L 128.354597 210.816 
L 129.24844 213.504 
L 129.24844 216.192 
L 129.24844 218.88 
L 129.485842 221.568 
L 129.581135 224.256 
L 129.581135 226.944 
L 129.581135 229.632 
L 129.581135 232.32 
L 129.581135 235.008 
L 129.581135 237.696 
L 129.581135 240.384 
L 129.581135 243.072 
L 129.581135 245.76 
L 129.714638 248.448 
L 129.714638 251.136 
L 129.714638 253.824 
L 129.714638 256.512 
L 129.714638 259.2 
L 129.714638 261.888 
L 129.714638 264.576 
L 129.714638 267.264 
L 129.714638 269.952 
L 129.714638 272.64 
L 129.714638 275.328 
L 129.714638 278.016 
L 129.714638 280.704 
L 129.714638 283.392 
L 129.714638 286.08 
L 129.714638 288.768 
L 129.714638 291.456 
L 129.714638 294.144 
L 129.714638 296.832 
L 129.714638 299.52 
L 129.714638 302.208 
L 129.714638 304.896 
L 129.714638 307.584 
z
" clip-path="url(#p3297d94061)" style="fill: #3f4788; fill-opacity: 0.75"/>
   </g>
   <g id="PathCollection_3">
    <path d="M 151.292843 304.896 
L 151.292843 302.208 
L 151.292843 299.52 
L 151.292843 296.832 
L 151.292843 294.144 
L 151.292843 291.456 
L 151.292843 288.768 
L 151.292843 286.08 
L 151.292843 283.392 
L 151.292843 280.704 
L 151.292843 278.016 
L 151.292843 275.328 
L 151.292843 272.64 
L 151.292843 269.952 
L 151.292843 267.264 
L 151.292843 264.576 
L 151.292843 261.888 
L 151.292843 259.2 
L 151.292843 256.512 
L 151.292843 253.824 
L 151.292843 251.136 
L 151.292843 248.448 
L 151.221147 245.76 
L 151.221147 243.072 
L 151.221147 240.384 
L 151.221147 237.696 
L 151.221147 235.008 
L 151.221147 232.32 
L 151.221147 229.632 
L 151.221147 226.944 
L 151.221147 224.256 
L 151.169972 221.568 
L 151.04248 218.88 
L 151.04248 216.192 
L 151.04248 213.504 
L 150.562458 210.816 
L 150.562458 208.128 
L 150.562458 205.44 
L 150.562458 202.752 
L 150.562458 200.064 
L 150.562458 197.376 
L 149.464295 194.688 
L 148.962918 192 
L 148.772623 189.312 
L 148.772623 186.624 
L 148.772623 183.936 
L 148.772623 181.248 
L 148.772623 178.56 
L 148.400579 175.872 
L 148.400579 173.184 
L 148.098415 170.496 
L 147.781818 169.496875 
L 144.174545 169.496875 
L 142.735292 167.808 
L 142.735292 165.12 
L 142.735292 162.432 
L 142.189627 159.744 
L 142.189627 157.056 
L 140.567273 154.497636 
L 136.96 154.497636 
L 136.815881 154.368 
L 133.352727 152.032315 
L 129.745455 152.032315 
L 129.539144 151.68 
L 129.539144 148.992 
L 129.539144 146.304 
L 128.938878 143.616 
L 128.572093 140.928 
L 128.572093 138.24 
L 128.572093 135.552 
L 128.572093 132.864 
L 128.22443 130.176 
L 128.22443 127.488 
L 128.22443 124.8 
L 128.22443 122.112 
L 128.22443 119.424 
L 128.22443 116.736 
L 128.22443 114.048 
L 128.22443 111.36 
L 128.22443 108.672 
L 128.22443 105.984 
L 128.22443 103.296 
L 128.22443 100.608 
L 128.22443 97.92 
L 128.22443 95.232 
L 128.22443 92.544 
L 128.22443 89.856 
L 128.22443 87.168 
L 128.22443 84.48 
L 128.22443 81.792 
L 128.22443 79.104 
L 128.22443 76.416 
L 128.22443 73.728 
L 128.22443 71.04 
L 128.22443 68.352 
L 128.22443 65.664 
L 129.097229 62.976 
L 129.097229 60.288 
L 129.097229 57.6 
L 129.097229 54.912 
L 129.097229 52.224 
L 129.097229 49.536 
L 129.097229 46.848 
L 129.097229 44.16 
L 129.097229 41.472 
L 126.138182 41.472 
L 122.530909 41.472 
L 118.923636 41.472 
L 115.316364 41.472 
L 111.709091 41.472 
L 108.101818 41.472 
L 104.494545 41.472 
L 100.887273 41.472 
L 97.28 41.472 
L 93.672727 41.472 
L 90.065455 41.472 
L 86.458182 41.472 
L 82.850909 41.472 
L 79.243636 41.472 
L 75.636364 41.472 
L 72.029091 41.472 
L 68.421818 41.472 
L 64.814545 41.472 
L 61.207273 41.472 
L 57.6 41.472 
L 57.6 44.16 
L 57.6 46.848 
L 57.6 49.536 
L 57.6 52.224 
L 57.6 54.912 
L 57.6 57.6 
L 57.6 60.288 
L 57.6 62.976 
L 57.6 65.664 
L 57.6 68.352 
L 57.6 71.04 
L 57.6 73.728 
L 57.6 76.416 
L 57.6 79.104 
L 57.6 81.792 
L 57.6 84.48 
L 57.6 87.168 
L 57.6 89.856 
L 57.6 92.544 
L 57.6 95.232 
L 57.6 97.92 
L 57.6 100.608 
L 57.6 103.296 
L 57.6 105.984 
L 57.6 108.672 
L 57.6 111.36 
L 57.6 114.048 
L 57.6 116.736 
L 57.6 119.424 
L 57.6 122.112 
L 57.6 124.8 
L 57.6 127.488 
L 57.6 130.176 
L 57.6 132.864 
L 57.6 135.552 
L 57.6 138.24 
L 57.6 140.928 
L 57.6 143.616 
L 57.6 146.304 
L 57.6 148.992 
L 57.6 151.68 
L 57.6 154.368 
L 57.6 154.98397 
L 61.207273 154.98397 
L 64.814545 154.98397 
L 68.421818 154.98397 
L 72.029091 154.98397 
L 75.636364 154.98397 
L 79.243636 154.98397 
L 82.850909 154.98397 
L 86.458182 154.98397 
L 90.065455 154.98397 
L 93.672727 154.98397 
L 97.28 154.98397 
L 100.887273 154.98397 
L 104.494545 154.98397 
L 108.101818 154.98397 
L 111.709091 154.98397 
L 115.316364 154.98397 
L 118.923636 154.98397 
L 122.530909 154.98397 
L 126.138182 154.98397 
L 127.047941 157.056 
L 127.047941 159.744 
L 127.425751 162.432 
L 127.425751 165.12 
L 127.425751 167.808 
L 129.011799 170.496 
L 129.574455 173.184 
L 129.574455 175.872 
L 129.745455 176.535484 
L 133.352727 176.535484 
L 134.67388 178.56 
L 134.67388 181.248 
L 134.67388 183.936 
L 134.67388 186.624 
L 134.67388 189.312 
L 135.571093 192 
L 136.96 193.579323 
L 140.567273 193.579323 
L 141.123424 194.688 
L 144.07681 197.376 
L 144.07681 200.064 
L 144.07681 202.752 
L 144.07681 205.44 
L 144.07681 208.128 
L 144.07681 210.816 
L 144.174545 211.019501 
L 147.781818 211.019501 
L 148.225499 213.504 
L 148.225499 216.192 
L 148.225499 218.88 
L 148.352991 221.568 
L 148.404166 224.256 
L 148.404166 226.944 
L 148.404166 229.632 
L 148.404166 232.32 
L 148.404166 235.008 
L 148.404166 237.696 
L 148.404166 240.384 
L 148.404166 243.072 
L 148.404166 245.76 
L 148.475862 248.448 
L 148.475862 251.136 
L 148.475862 253.824 
L 148.475862 256.512 
L 148.475862 259.2 
L 148.475862 261.888 
L 148.475862 264.576 
L 148.475862 267.264 
L 148.475862 269.952 
L 148.475862 272.64 
L 148.475862 275.328 
L 148.475862 278.016 
L 148.475862 280.704 
L 148.475862 283.392 
L 148.475862 286.08 
L 148.475862 288.768 
L 148.475862 291.456 
L 148.475862 294.144 
L 148.475862 296.832 
L 148.475862 299.52 
L 148.475862 302.208 
L 148.475862 304.896 
L 148.475862 307.584 
L 151.292843 307.584 
z
" clip-path="url(#p3297d94061)" style="fill: #2e6e8e; fill-opacity: 0.75"/>
   </g>
   <g id="PathCollection_4">
    <path d="M 151.389091 307.584 
L 154.996364 307.584 
L 158.603636 307.584 
L 162.210909 307.584 
L 165.818182 307.584 
L 169.425455 307.584 
L 173.032727 307.584 
L 175.692415 307.584 
L 175.692415 304.896 
L 175.692415 302.208 
L 175.692415 299.52 
L 175.692415 296.832 
L 175.692415 294.144 
L 175.692415 291.456 
L 175.692415 288.768 
L 175.692415 286.08 
L 175.692415 283.392 
L 175.692415 280.704 
L 175.692415 278.016 
L 175.692415 275.328 
L 175.692415 272.64 
L 175.692415 269.952 
L 175.692415 267.264 
L 175.692415 264.576 
L 175.692415 261.888 
L 175.692415 259.2 
L 175.692415 256.512 
L 175.692415 253.824 
L 175.692415 251.136 
L 175.692415 248.448 
L 175.533137 245.76 
L 175.533137 243.072 
L 175.533137 240.384 
L 175.533137 237.696 
L 175.533137 235.008 
L 175.533137 232.32 
L 175.533137 229.632 
L 175.533137 226.944 
L 175.533137 224.256 
L 175.419447 221.568 
L 175.136212 218.88 
L 175.136212 216.192 
L 175.136212 213.504 
L 174.069802 210.816 
L 174.069802 208.128 
L 174.069802 205.44 
L 174.069802 202.752 
L 174.069802 200.064 
L 174.069802 197.376 
L 173.032727 196.233361 
L 169.425455 196.233361 
L 165.818182 196.233361 
L 162.210909 195.168567 
L 161.560277 194.688 
L 159.898749 192 
L 159.268122 189.312 
L 159.268122 186.624 
L 159.268122 183.936 
L 159.268122 181.248 
L 159.268122 178.56 
L 158.603636 177.111304 
L 154.996364 177.111304 
L 151.389091 177.111304 
L 151.21756 175.872 
L 151.21756 173.184 
L 150.915396 170.496 
L 150.063639 167.808 
L 150.063639 165.12 
L 150.063639 162.432 
L 149.860743 159.744 
L 149.860743 157.056 
L 149.226933 154.368 
L 148.381616 151.68 
L 148.381616 148.992 
L 148.381616 146.304 
L 148.059254 143.616 
L 147.862279 140.928 
L 147.862279 138.24 
L 147.862279 135.552 
L 147.862279 132.864 
L 147.781818 131.705601 
L 144.174545 131.705601 
L 143.888813 130.176 
L 143.888813 127.488 
L 143.888813 124.8 
L 143.888813 122.112 
L 143.888813 119.424 
L 143.888813 116.736 
L 143.888813 114.048 
L 143.888813 111.36 
L 143.888813 108.672 
L 143.888813 105.984 
L 143.888813 103.296 
L 143.888813 100.608 
L 143.888813 97.92 
L 143.888813 95.232 
L 143.888813 92.544 
L 143.888813 89.856 
L 143.888813 87.168 
L 143.888813 84.48 
L 143.888813 81.792 
L 143.888813 79.104 
L 143.888813 76.416 
L 143.888813 73.728 
L 143.888813 71.04 
L 143.888813 68.352 
L 143.888813 65.664 
L 144.174545 65.054712 
L 147.781818 65.054712 
L 148.144294 62.976 
L 148.144294 60.288 
L 148.144294 57.6 
L 148.144294 54.912 
L 148.144294 52.224 
L 148.144294 49.536 
L 148.144294 46.848 
L 148.144294 44.16 
L 148.144294 41.472 
L 147.781818 41.472 
L 144.174545 41.472 
L 140.567273 41.472 
L 136.96 41.472 
L 133.352727 41.472 
L 129.745455 41.472 
L 129.097229 41.472 
L 129.097229 44.16 
L 129.097229 46.848 
L 129.097229 49.536 
L 129.097229 52.224 
L 129.097229 54.912 
L 129.097229 57.6 
L 129.097229 60.288 
L 129.097229 62.976 
L 128.22443 65.664 
L 128.22443 68.352 
L 128.22443 71.04 
L 128.22443 73.728 
L 128.22443 76.416 
L 128.22443 79.104 
L 128.22443 81.792 
L 128.22443 84.48 
L 128.22443 87.168 
L 128.22443 89.856 
L 128.22443 92.544 
L 128.22443 95.232 
L 128.22443 97.92 
L 128.22443 100.608 
L 128.22443 103.296 
L 128.22443 105.984 
L 128.22443 108.672 
L 128.22443 111.36 
L 128.22443 114.048 
L 128.22443 116.736 
L 128.22443 119.424 
L 128.22443 122.112 
L 128.22443 124.8 
L 128.22443 127.488 
L 128.22443 130.176 
L 128.572093 132.864 
L 128.572093 135.552 
L 128.572093 138.24 
L 128.572093 140.928 
L 128.938878 143.616 
L 129.539144 146.304 
L 129.539144 148.992 
L 129.539144 151.68 
L 129.745455 152.032315 
L 133.352727 152.032315 
L 136.815881 154.368 
L 136.96 154.497636 
L 140.567273 154.497636 
L 142.189627 157.056 
L 142.189627 159.744 
L 142.735292 162.432 
L 142.735292 165.12 
L 142.735292 167.808 
L 144.174545 169.496875 
L 147.781818 169.496875 
L 148.098415 170.496 
L 148.400579 173.184 
L 148.400579 175.872 
L 148.772623 178.56 
L 148.772623 181.248 
L 148.772623 183.936 
L 148.772623 186.624 
L 148.772623 189.312 
L 148.962918 192 
L 149.464295 194.688 
L 150.562458 197.376 
L 150.562458 200.064 
L 150.562458 202.752 
L 150.562458 205.44 
L 150.562458 208.128 
L 150.562458 210.816 
L 151.04248 213.504 
L 151.04248 216.192 
L 151.04248 218.88 
L 151.169972 221.568 
L 151.221147 224.256 
L 151.221147 226.944 
L 151.221147 229.632 
L 151.221147 232.32 
L 151.221147 235.008 
L 151.221147 237.696 
L 151.221147 240.384 
L 151.221147 243.072 
L 151.221147 245.76 
L 151.292843 248.448 
L 151.292843 251.136 
L 151.292843 253.824 
L 151.292843 256.512 
L 151.292843 259.2 
L 151.292843 261.888 
L 151.292843 264.576 
L 151.292843 267.264 
L 151.292843 269.952 
L 151.292843 272.64 
L 151.292843 275.328 
L 151.292843 278.016 
L 151.292843 280.704 
L 151.292843 283.392 
L 151.292843 286.08 
L 151.292843 288.768 
L 151.292843 291.456 
L 151.292843 294.144 
L 151.292843 296.832 
L 151.292843 299.52 
L 151.292843 302.208 
L 151.292843 304.896 
L 151.292843 307.584 
z
" clip-path="url(#p3297d94061)" style="fill: #21918c; fill-opacity: 0.75"/>
    <path d="M 227.141818 307.584 
L 230.749091 307.584 
L 234.356364 307.584 
L 237.963636 307.584 
L 241.570909 307.584 
L 245.178182 307.584 
L 248.785455 307.584 
L 252.392727 307.584 
L 256 307.584 
L 259.607273 307.584 
L 263.214545 307.584 
L 266.821818 307.584 
L 270.429091 307.584 
L 274.036364 307.584 
L 277.643636 307.584 
L 281.250909 307.584 
L 284.858182 307.584 
L 288.465455 307.584 
L 292.072727 307.584 
L 295.68 307.584 
L 299.287273 307.584 
L 302.894545 307.584 
L 306.501818 307.584 
L 310.109091 307.584 
L 313.716364 307.584 
L 317.323636 307.584 
L 320.930909 307.584 
L 324.538182 307.584 
L 328.145455 307.584 
L 331.752727 307.584 
L 335.36 307.584 
L 338.967273 307.584 
L 342.574545 307.584 
L 346.181818 307.584 
L 349.789091 307.584 
L 353.396364 307.584 
L 357.003636 307.584 
L 360.610909 307.584 
L 364.218182 307.584 
L 367.825455 307.584 
L 371.432727 307.584 
L 375.04 307.584 
L 378.647273 307.584 
L 382.254545 307.584 
L 385.861818 307.584 
L 389.469091 307.584 
L 393.076364 307.584 
L 396.683636 307.584 
L 400.290909 307.584 
L 403.898182 307.584 
L 407.505455 307.584 
L 411.112727 307.584 
L 414.72 307.584 
L 414.72 304.896 
L 414.72 302.208 
L 414.72 299.52 
L 414.72 296.832 
L 414.72 294.144 
L 414.72 291.456 
L 414.72 288.768 
L 414.72 286.08 
L 414.72 283.392 
L 414.72 280.704 
L 414.72 278.016 
L 414.72 275.328 
L 414.72 272.64 
L 414.72 269.952 
L 414.72 267.264 
L 414.72 264.576 
L 414.72 261.888 
L 414.72 259.2 
L 414.72 256.512 
L 414.72 253.824 
L 414.72 251.136 
L 414.72 248.448 
L 414.72 245.76 
L 414.72 243.072 
L 414.72 240.384 
L 414.72 237.696 
L 414.72 235.008 
L 414.72 232.32 
L 414.72 229.632 
L 414.72 226.944 
L 414.72 224.256 
L 414.72 221.568 
L 414.72 218.88 
L 414.72 216.192 
L 414.72 213.504 
L 414.72 212.740293 
L 411.112727 212.740293 
L 407.505455 212.740293 
L 403.898182 212.740293 
L 400.290909 212.740293 
L 396.683636 212.740293 
L 393.076364 212.740293 
L 389.469091 212.740293 
L 385.861818 212.740293 
L 382.254545 212.740293 
L 378.647273 212.740293 
L 375.04 212.740293 
L 371.432727 212.740293 
L 367.825455 212.740293 
L 364.218182 212.740293 
L 360.610909 212.740293 
L 357.003636 212.740293 
L 353.396364 212.740293 
L 349.789091 212.740293 
L 346.181818 212.740293 
L 342.574545 212.740293 
L 338.967273 212.740293 
L 335.36 212.740293 
L 331.752727 212.740293 
L 328.145455 212.740293 
L 324.538182 212.740293 
L 320.930909 212.740293 
L 317.323636 212.740293 
L 313.716364 212.740293 
L 310.109091 212.740293 
L 306.501818 212.740293 
L 302.894545 212.740293 
L 299.287273 212.740293 
L 295.68 212.740293 
L 292.072727 212.740293 
L 288.465455 212.740293 
L 284.858182 212.740293 
L 281.250909 212.740293 
L 277.643636 212.740293 
L 274.036364 212.740293 
L 270.429091 212.740293 
L 266.821818 212.740293 
L 263.214545 212.740293 
L 259.607273 212.740293 
L 256 212.740293 
L 252.392727 212.740293 
L 248.785455 212.740293 
L 245.178182 212.740293 
L 241.570909 212.740293 
L 237.963636 212.740293 
L 234.356364 212.740293 
L 230.749091 212.740293 
L 227.141818 212.740293 
L 226.81539 213.504 
L 226.81539 216.192 
L 226.81539 218.88 
L 226.51024 221.568 
L 226.387754 224.256 
L 226.387754 226.944 
L 226.387754 229.632 
L 226.387754 232.32 
L 226.387754 235.008 
L 226.387754 237.696 
L 226.387754 240.384 
L 226.387754 243.072 
L 226.387754 245.76 
L 226.216152 248.448 
L 226.216152 251.136 
L 226.216152 253.824 
L 226.216152 256.512 
L 226.216152 259.2 
L 226.216152 261.888 
L 226.216152 264.576 
L 226.216152 267.264 
L 226.216152 269.952 
L 226.216152 272.64 
L 226.216152 275.328 
L 226.216152 278.016 
L 226.216152 280.704 
L 226.216152 283.392 
L 226.216152 286.08 
L 226.216152 288.768 
L 226.216152 291.456 
L 226.216152 294.144 
L 226.216152 296.832 
L 226.216152 299.52 
L 226.216152 302.208 
L 226.216152 304.896 
L 226.216152 307.584 
z
" clip-path="url(#p3297d94061)" style="fill: #21918c; fill-opacity: 0.75"/>
   </g>
   <g id="PathCollection_5">
    <path d="M 176.64 307.584 
L 180.247273 307.584 
L 183.854545 307.584 
L 187.461818 307.584 
L 191.069091 307.584 
L 194.676364 307.584 
L 198.283636 307.584 
L 201.890909 307.584 
L 205.498182 307.584 
L 209.105455 307.584 
L 212.712727 307.584 
L 216.32 307.584 
L 219.927273 307.584 
L 223.534545 307.584 
L 226.216152 307.584 
L 226.216152 304.896 
L 226.216152 302.208 
L 226.216152 299.52 
L 226.216152 296.832 
L 226.216152 294.144 
L 226.216152 291.456 
L 226.216152 288.768 
L 226.216152 286.08 
L 226.216152 283.392 
L 226.216152 280.704 
L 226.216152 278.016 
L 226.216152 275.328 
L 226.216152 272.64 
L 226.216152 269.952 
L 226.216152 267.264 
L 226.216152 264.576 
L 226.216152 261.888 
L 226.216152 259.2 
L 226.216152 256.512 
L 226.216152 253.824 
L 226.216152 251.136 
L 226.216152 248.448 
L 226.387754 245.76 
L 226.387754 243.072 
L 226.387754 240.384 
L 226.387754 237.696 
L 226.387754 235.008 
L 226.387754 232.32 
L 226.387754 229.632 
L 226.387754 226.944 
L 226.387754 224.256 
L 226.51024 221.568 
L 226.81539 218.88 
L 226.81539 216.192 
L 226.81539 213.504 
L 227.141818 212.740293 
L 230.749091 212.740293 
L 234.356364 212.740293 
L 237.963636 212.740293 
L 241.570909 212.740293 
L 245.178182 212.740293 
L 248.785455 212.740293 
L 252.392727 212.740293 
L 256 212.740293 
L 259.607273 212.740293 
L 263.214545 212.740293 
L 266.821818 212.740293 
L 270.429091 212.740293 
L 274.036364 212.740293 
L 277.643636 212.740293 
L 281.250909 212.740293 
L 284.858182 212.740293 
L 288.465455 212.740293 
L 292.072727 212.740293 
L 295.68 212.740293 
L 299.287273 212.740293 
L 302.894545 212.740293 
L 306.501818 212.740293 
L 310.109091 212.740293 
L 313.716364 212.740293 
L 317.323636 212.740293 
L 320.930909 212.740293 
L 324.538182 212.740293 
L 328.145455 212.740293 
L 331.752727 212.740293 
L 335.36 212.740293 
L 338.967273 212.740293 
L 342.574545 212.740293 
L 346.181818 212.740293 
L 349.789091 212.740293 
L 353.396364 212.740293 
L 357.003636 212.740293 
L 360.610909 212.740293 
L 364.218182 212.740293 
L 367.825455 212.740293 
L 371.432727 212.740293 
L 375.04 212.740293 
L 378.647273 212.740293 
L 382.254545 212.740293 
L 385.861818 212.740293 
L 389.469091 212.740293 
L 393.076364 212.740293 
L 396.683636 212.740293 
L 400.290909 212.740293 
L 403.898182 212.740293 
L 407.505455 212.740293 
L 411.112727 212.740293 
L 414.72 212.740293 
L 414.72 210.816 
L 414.72 208.128 
L 414.72 205.44 
L 414.72 202.752 
L 414.72 200.064 
L 414.72 197.376 
L 414.72 194.688 
L 414.72 192 
L 414.72 189.312 
L 414.72 186.624 
L 414.72 183.936 
L 414.72 181.248 
L 414.72 178.56 
L 414.72 175.872 
L 414.72 173.184 
L 414.72 170.496 
L 414.72 170.466656 
L 411.112727 170.466656 
L 407.505455 170.466656 
L 403.898182 170.466656 
L 400.290909 170.466656 
L 396.683636 170.466656 
L 393.076364 170.466656 
L 389.469091 170.466656 
L 385.861818 170.466656 
L 382.254545 170.466656 
L 378.647273 170.466656 
L 375.04 170.466656 
L 371.432727 170.466656 
L 367.825455 170.466656 
L 364.218182 170.466656 
L 360.610909 170.466656 
L 357.003636 170.466656 
L 353.396364 170.466656 
L 349.789091 170.466656 
L 346.181818 170.466656 
L 342.574545 170.466656 
L 338.967273 170.466656 
L 335.36 170.466656 
L 331.752727 170.466656 
L 328.145455 170.466656 
L 324.538182 170.466656 
L 320.930909 170.466656 
L 317.323636 170.466656 
L 313.716364 170.466656 
L 310.109091 170.466656 
L 306.501818 170.466656 
L 302.894545 170.466656 
L 299.287273 170.466656 
L 295.68 170.466656 
L 292.072727 170.466656 
L 288.465455 170.466656 
L 284.858182 170.466656 
L 281.250909 170.466656 
L 277.643636 170.466656 
L 274.036364 170.466656 
L 270.429091 170.466656 
L 266.821818 170.466656 
L 263.214545 170.466656 
L 259.607273 170.466656 
L 256 170.466656 
L 252.392727 170.466656 
L 248.785455 170.466656 
L 245.178182 170.466656 
L 241.570909 170.466656 
L 237.963636 170.466656 
L 234.356364 170.466656 
L 230.749091 170.466656 
L 227.141818 170.466656 
L 227.119562 170.496 
L 226.39634 173.184 
L 226.39634 175.872 
L 225.505861 178.56 
L 225.505861 181.248 
L 225.505861 183.936 
L 225.505861 186.624 
L 225.505861 189.312 
L 225.050393 192 
L 223.850359 194.688 
L 223.534545 195.010971 
L 219.927273 195.010971 
L 216.32 195.010971 
L 212.712727 195.010971 
L 209.105455 195.010971 
L 205.498182 195.010971 
L 203.913478 194.688 
L 201.890909 193.785138 
L 198.283636 193.785138 
L 194.676364 193.785138 
L 191.069091 193.785138 
L 187.461818 193.785138 
L 183.854545 193.785138 
L 180.247273 193.785138 
L 177.194816 192 
L 176.64 191.145116 
L 176.351695 189.312 
L 176.351695 186.624 
L 176.351695 183.936 
L 176.351695 181.248 
L 176.351695 178.56 
L 175.525167 175.872 
L 175.525167 173.184 
L 174.853884 170.496 
L 173.032727 167.908993 
L 169.425455 167.908993 
L 165.818182 167.908993 
L 165.552809 167.808 
L 165.552809 165.12 
L 165.552809 162.432 
L 163.870335 159.744 
L 163.870335 157.056 
L 162.210909 156.207305 
L 160.773676 154.368 
L 158.603636 152.285747 
L 154.996364 152.285747 
L 151.389091 152.285747 
L 151.198597 151.68 
L 151.198597 148.992 
L 151.198597 146.304 
L 150.876235 143.616 
L 150.67926 140.928 
L 150.67926 138.24 
L 150.67926 135.552 
L 150.67926 132.864 
L 150.492555 130.176 
L 150.492555 127.488 
L 150.492555 124.8 
L 150.492555 122.112 
L 150.492555 119.424 
L 150.492555 116.736 
L 150.492555 114.048 
L 150.492555 111.36 
L 150.492555 108.672 
L 150.492555 105.984 
L 150.492555 103.296 
L 150.492555 100.608 
L 150.492555 97.92 
L 150.492555 95.232 
L 150.492555 92.544 
L 150.492555 89.856 
L 150.492555 87.168 
L 150.492555 84.48 
L 150.492555 81.792 
L 150.492555 79.104 
L 150.492555 76.416 
L 150.492555 73.728 
L 150.492555 71.04 
L 150.492555 68.352 
L 150.492555 65.664 
L 150.961275 62.976 
L 150.961275 60.288 
L 150.961275 57.6 
L 150.961275 54.912 
L 150.961275 52.224 
L 150.961275 49.536 
L 150.961275 46.848 
L 150.961275 44.16 
L 150.961275 41.472 
L 148.144294 41.472 
L 148.144294 44.16 
L 148.144294 46.848 
L 148.144294 49.536 
L 148.144294 52.224 
L 148.144294 54.912 
L 148.144294 57.6 
L 148.144294 60.288 
L 148.144294 62.976 
L 147.781818 65.054712 
L 144.174545 65.054712 
L 143.888813 65.664 
L 143.888813 68.352 
L 143.888813 71.04 
L 143.888813 73.728 
L 143.888813 76.416 
L 143.888813 79.104 
L 143.888813 81.792 
L 143.888813 84.48 
L 143.888813 87.168 
L 143.888813 89.856 
L 143.888813 92.544 
L 143.888813 95.232 
L 143.888813 97.92 
L 143.888813 100.608 
L 143.888813 103.296 
L 143.888813 105.984 
L 143.888813 108.672 
L 143.888813 111.36 
L 143.888813 114.048 
L 143.888813 116.736 
L 143.888813 119.424 
L 143.888813 122.112 
L 143.888813 124.8 
L 143.888813 127.488 
L 143.888813 130.176 
L 144.174545 131.705601 
L 147.781818 131.705601 
L 147.862279 132.864 
L 147.862279 135.552 
L 147.862279 138.24 
L 147.862279 140.928 
L 148.059254 143.616 
L 148.381616 146.304 
L 148.381616 148.992 
L 148.381616 151.68 
L 149.226933 154.368 
L 149.860743 157.056 
L 149.860743 159.744 
L 150.063639 162.432 
L 150.063639 165.12 
L 150.063639 167.808 
L 150.915396 170.496 
L 151.21756 173.184 
L 151.21756 175.872 
L 151.389091 177.111304 
L 154.996364 177.111304 
L 158.603636 177.111304 
L 159.268122 178.56 
L 159.268122 181.248 
L 159.268122 183.936 
L 159.268122 186.624 
L 159.268122 189.312 
L 159.898749 192 
L 161.560277 194.688 
L 162.210909 195.168567 
L 165.818182 196.233361 
L 169.425455 196.233361 
L 173.032727 196.233361 
L 174.069802 197.376 
L 174.069802 200.064 
L 174.069802 202.752 
L 174.069802 205.44 
L 174.069802 208.128 
L 174.069802 210.816 
L 175.136212 213.504 
L 175.136212 216.192 
L 175.136212 218.88 
L 175.419447 221.568 
L 175.533137 224.256 
L 175.533137 226.944 
L 175.533137 229.632 
L 175.533137 232.32 
L 175.533137 235.008 
L 175.533137 237.696 
L 175.533137 240.384 
L 175.533137 243.072 
L 175.533137 245.76 
L 175.692415 248.448 
L 175.692415 251.136 
L 175.692415 253.824 
L 175.692415 256.512 
L 175.692415 259.2 
L 175.692415 261.888 
L 175.692415 264.576 
L 175.692415 267.264 
L 175.692415 269.952 
L 175.692415 272.64 
L 175.692415 275.328 
L 175.692415 278.016 
L 175.692415 280.704 
L 175.692415 283.392 
L 175.692415 286.08 
L 175.692415 288.768 
L 175.692415 291.456 
L 175.692415 294.144 
L 175.692415 296.832 
L 175.692415 299.52 
L 175.692415 302.208 
L 175.692415 304.896 
L 175.692415 307.584 
z
" clip-path="url(#p3297d94061)" style="fill: #2db27d; fill-opacity: 0.75"/>
   </g>
   <g id="PathCollection_6">
    <path d="M 205.498182 195.010971 
L 209.105455 195.010971 
L 212.712727 195.010971 
L 216.32 195.010971 
L 219.927273 195.010971 
L 223.534545 195.010971 
L 223.850359 194.688 
L 225.050393 192 
L 225.505861 189.312 
L 225.505861 186.624 
L 225.505861 183.936 
L 225.505861 181.248 
L 225.505861 178.56 
L 226.39634 175.872 
L 226.39634 173.184 
L 227.119562 170.496 
L 227.141818 170.466656 
L 230.749091 170.466656 
L 234.356364 170.466656 
L 237.963636 170.466656 
L 241.570909 170.466656 
L 245.178182 170.466656 
L 248.785455 170.466656 
L 252.392727 170.466656 
L 256 170.466656 
L 259.607273 170.466656 
L 263.214545 170.466656 
L 266.821818 170.466656 
L 270.429091 170.466656 
L 274.036364 170.466656 
L 277.643636 170.466656 
L 281.250909 170.466656 
L 284.858182 170.466656 
L 288.465455 170.466656 
L 292.072727 170.466656 
L 295.68 170.466656 
L 299.287273 170.466656 
L 302.894545 170.466656 
L 306.501818 170.466656 
L 310.109091 170.466656 
L 313.716364 170.466656 
L 317.323636 170.466656 
L 320.930909 170.466656 
L 324.538182 170.466656 
L 328.145455 170.466656 
L 331.752727 170.466656 
L 335.36 170.466656 
L 338.967273 170.466656 
L 342.574545 170.466656 
L 346.181818 170.466656 
L 349.789091 170.466656 
L 353.396364 170.466656 
L 357.003636 170.466656 
L 360.610909 170.466656 
L 364.218182 170.466656 
L 367.825455 170.466656 
L 371.432727 170.466656 
L 375.04 170.466656 
L 378.647273 170.466656 
L 382.254545 170.466656 
L 385.861818 170.466656 
L 389.469091 170.466656 
L 393.076364 170.466656 
L 396.683636 170.466656 
L 400.290909 170.466656 
L 403.898182 170.466656 
L 407.505455 170.466656 
L 411.112727 170.466656 
L 414.72 170.466656 
L 414.72 167.808 
L 414.72 165.12 
L 414.72 162.432 
L 414.72 159.744 
L 414.72 157.056 
L 414.72 154.368 
L 414.72 151.68 
L 414.72 148.992 
L 414.72 146.304 
L 414.72 143.865006 
L 411.112727 143.865006 
L 407.505455 143.865006 
L 403.898182 143.865006 
L 400.290909 143.865006 
L 396.683636 143.865006 
L 393.076364 143.865006 
L 389.469091 143.865006 
L 385.861818 143.865006 
L 382.254545 143.865006 
L 378.647273 143.865006 
L 375.04 143.865006 
L 371.432727 143.865006 
L 367.825455 143.865006 
L 364.218182 143.865006 
L 360.610909 143.865006 
L 357.003636 143.865006 
L 353.396364 143.865006 
L 349.789091 143.865006 
L 346.181818 143.865006 
L 342.574545 143.865006 
L 338.967273 143.865006 
L 335.36 143.865006 
L 331.752727 143.865006 
L 328.145455 143.865006 
L 324.538182 143.865006 
L 320.930909 143.865006 
L 317.323636 143.865006 
L 313.716364 143.865006 
L 310.109091 143.865006 
L 306.501818 143.865006 
L 302.894545 143.865006 
L 299.287273 143.865006 
L 295.68 143.865006 
L 292.072727 143.865006 
L 288.465455 143.865006 
L 284.858182 143.865006 
L 281.250909 143.865006 
L 277.643636 143.865006 
L 274.036364 143.865006 
L 270.429091 143.865006 
L 266.821818 143.865006 
L 263.214545 143.865006 
L 259.607273 143.865006 
L 256 143.865006 
L 252.392727 143.865006 
L 248.785455 143.865006 
L 245.178182 143.865006 
L 241.570909 143.865006 
L 237.963636 143.865006 
L 234.356364 143.865006 
L 230.749091 143.865006 
L 227.141818 143.865006 
L 226.441728 146.304 
L 226.441728 148.992 
L 226.441728 151.68 
L 224.41848 154.368 
L 223.534545 155.934248 
L 219.927273 155.934248 
L 216.32 155.934248 
L 212.712727 155.934248 
L 209.105455 155.934248 
L 205.498182 155.934248 
L 201.890909 154.660446 
L 198.283636 154.660446 
L 194.676364 154.660446 
L 191.069091 154.660446 
L 187.461818 154.660446 
L 183.854545 154.660446 
L 180.247273 154.660446 
L 179.615125 154.368 
L 176.64 153.336018 
L 175.483039 151.68 
L 175.483039 148.992 
L 175.483039 146.304 
L 174.766885 143.616 
L 174.329288 140.928 
L 174.329288 138.24 
L 174.329288 135.552 
L 174.329288 132.864 
L 173.914505 130.176 
L 173.914505 127.488 
L 173.914505 124.8 
L 173.914505 122.112 
L 173.914505 119.424 
L 173.914505 116.736 
L 173.914505 114.048 
L 173.914505 111.36 
L 173.914505 108.672 
L 173.914505 105.984 
L 173.914505 103.296 
L 173.914505 100.608 
L 173.914505 97.92 
L 173.914505 95.232 
L 173.914505 92.544 
L 173.914505 89.856 
L 173.914505 87.168 
L 173.914505 84.48 
L 173.914505 81.792 
L 173.914505 79.104 
L 173.914505 76.416 
L 173.914505 73.728 
L 173.914505 71.04 
L 173.914505 68.352 
L 173.914505 65.664 
L 174.955808 62.976 
L 174.955808 60.288 
L 174.955808 57.6 
L 174.955808 54.912 
L 174.955808 52.224 
L 174.955808 49.536 
L 174.955808 46.848 
L 174.955808 44.16 
L 174.955808 41.472 
L 173.032727 41.472 
L 169.425455 41.472 
L 165.818182 41.472 
L 162.210909 41.472 
L 158.603636 41.472 
L 154.996364 41.472 
L 151.389091 41.472 
L 150.961275 41.472 
L 150.961275 44.16 
L 150.961275 46.848 
L 150.961275 49.536 
L 150.961275 52.224 
L 150.961275 54.912 
L 150.961275 57.6 
L 150.961275 60.288 
L 150.961275 62.976 
L 150.492555 65.664 
L 150.492555 68.352 
L 150.492555 71.04 
L 150.492555 73.728 
L 150.492555 76.416 
L 150.492555 79.104 
L 150.492555 81.792 
L 150.492555 84.48 
L 150.492555 87.168 
L 150.492555 89.856 
L 150.492555 92.544 
L 150.492555 95.232 
L 150.492555 97.92 
L 150.492555 100.608 
L 150.492555 103.296 
L 150.492555 105.984 
L 150.492555 108.672 
L 150.492555 111.36 
L 150.492555 114.048 
L 150.492555 116.736 
L 150.492555 119.424 
L 150.492555 122.112 
L 150.492555 124.8 
L 150.492555 127.488 
L 150.492555 130.176 
L 150.67926 132.864 
L 150.67926 135.552 
L 150.67926 138.24 
L 150.67926 140.928 
L 150.876235 143.616 
L 151.198597 146.304 
L 151.198597 148.992 
L 151.198597 151.68 
L 151.389091 152.285747 
L 154.996364 152.285747 
L 158.603636 152.285747 
L 160.773676 154.368 
L 162.210909 156.207305 
L 163.870335 157.056 
L 163.870335 159.744 
L 165.552809 162.432 
L 165.552809 165.12 
L 165.552809 167.808 
L 165.818182 167.908993 
L 169.425455 167.908993 
L 173.032727 167.908993 
L 174.853884 170.496 
L 175.525167 173.184 
L 175.525167 175.872 
L 176.351695 178.56 
L 176.351695 181.248 
L 176.351695 183.936 
L 176.351695 186.624 
L 176.351695 189.312 
L 176.64 191.145116 
L 177.194816 192 
L 180.247273 193.785138 
L 183.854545 193.785138 
L 187.461818 193.785138 
L 191.069091 193.785138 
L 194.676364 193.785138 
L 198.283636 193.785138 
L 201.890909 193.785138 
L 203.913478 194.688 
z
" clip-path="url(#p3297d94061)" style="fill: #73d056; fill-opacity: 0.75"/>
    <path d="M 227.141818 63.292428 
L 230.749091 63.292428 
L 234.356364 63.292428 
L 237.963636 63.292428 
L 241.570909 63.292428 
L 245.178182 63.292428 
L 248.785455 63.292428 
L 252.392727 63.292428 
L 256 63.292428 
L 259.607273 63.292428 
L 263.214545 63.292428 
L 266.821818 63.292428 
L 270.429091 63.292428 
L 274.036364 63.292428 
L 277.643636 63.292428 
L 281.250909 63.292428 
L 284.858182 63.292428 
L 288.465455 63.292428 
L 292.072727 63.292428 
L 295.68 63.292428 
L 299.287273 63.292428 
L 302.894545 63.292428 
L 306.501818 63.292428 
L 310.109091 63.292428 
L 313.716364 63.292428 
L 317.323636 63.292428 
L 320.930909 63.292428 
L 324.538182 63.292428 
L 328.145455 63.292428 
L 331.752727 63.292428 
L 335.36 63.292428 
L 338.967273 63.292428 
L 342.574545 63.292428 
L 346.181818 63.292428 
L 349.789091 63.292428 
L 353.396364 63.292428 
L 357.003636 63.292428 
L 360.610909 63.292428 
L 364.218182 63.292428 
L 367.825455 63.292428 
L 371.432727 63.292428 
L 375.04 63.292428 
L 378.647273 63.292428 
L 382.254545 63.292428 
L 385.861818 63.292428 
L 389.469091 63.292428 
L 393.076364 63.292428 
L 396.683636 63.292428 
L 400.290909 63.292428 
L 403.898182 63.292428 
L 407.505455 63.292428 
L 411.112727 63.292428 
L 414.72 63.292428 
L 414.72 62.976 
L 414.72 60.288 
L 414.72 57.6 
L 414.72 54.912 
L 414.72 52.224 
L 414.72 49.536 
L 414.72 46.848 
L 414.72 44.16 
L 414.72 41.472 
L 411.112727 41.472 
L 407.505455 41.472 
L 403.898182 41.472 
L 400.290909 41.472 
L 396.683636 41.472 
L 393.076364 41.472 
L 389.469091 41.472 
L 385.861818 41.472 
L 382.254545 41.472 
L 378.647273 41.472 
L 375.04 41.472 
L 371.432727 41.472 
L 367.825455 41.472 
L 364.218182 41.472 
L 360.610909 41.472 
L 357.003636 41.472 
L 353.396364 41.472 
L 349.789091 41.472 
L 346.181818 41.472 
L 342.574545 41.472 
L 338.967273 41.472 
L 335.36 41.472 
L 331.752727 41.472 
L 328.145455 41.472 
L 324.538182 41.472 
L 320.930909 41.472 
L 317.323636 41.472 
L 313.716364 41.472 
L 310.109091 41.472 
L 306.501818 41.472 
L 302.894545 41.472 
L 299.287273 41.472 
L 295.68 41.472 
L 292.072727 41.472 
L 288.465455 41.472 
L 284.858182 41.472 
L 281.250909 41.472 
L 277.643636 41.472 
L 274.036364 41.472 
L 270.429091 41.472 
L 266.821818 41.472 
L 263.214545 41.472 
L 259.607273 41.472 
L 256 41.472 
L 252.392727 41.472 
L 248.785455 41.472 
L 245.178182 41.472 
L 241.570909 41.472 
L 237.963636 41.472 
L 234.356364 41.472 
L 230.749091 41.472 
L 227.141818 41.472 
L 227.009753 41.472 
L 227.009753 44.16 
L 227.009753 46.848 
L 227.009753 49.536 
L 227.009753 52.224 
L 227.009753 54.912 
L 227.009753 57.6 
L 227.009753 60.288 
L 227.009753 62.976 
z
" clip-path="url(#p3297d94061)" style="fill: #73d056; fill-opacity: 0.75"/>
   </g>
   <g id="PathCollection_7">
    <path d="M 180.247273 154.660446 
L 183.854545 154.660446 
L 187.461818 154.660446 
L 191.069091 154.660446 
L 194.676364 154.660446 
L 198.283636 154.660446 
L 201.890909 154.660446 
L 205.498182 155.934248 
L 209.105455 155.934248 
L 212.712727 155.934248 
L 216.32 155.934248 
L 219.927273 155.934248 
L 223.534545 155.934248 
L 224.41848 154.368 
L 226.441728 151.68 
L 226.441728 148.992 
L 226.441728 146.304 
L 227.141818 143.865006 
L 230.749091 143.865006 
L 234.356364 143.865006 
L 237.963636 143.865006 
L 241.570909 143.865006 
L 245.178182 143.865006 
L 248.785455 143.865006 
L 252.392727 143.865006 
L 256 143.865006 
L 259.607273 143.865006 
L 263.214545 143.865006 
L 266.821818 143.865006 
L 270.429091 143.865006 
L 274.036364 143.865006 
L 277.643636 143.865006 
L 281.250909 143.865006 
L 284.858182 143.865006 
L 288.465455 143.865006 
L 292.072727 143.865006 
L 295.68 143.865006 
L 299.287273 143.865006 
L 302.894545 143.865006 
L 306.501818 143.865006 
L 310.109091 143.865006 
L 313.716364 143.865006 
L 317.323636 143.865006 
L 320.930909 143.865006 
L 324.538182 143.865006 
L 328.145455 143.865006 
L 331.752727 143.865006 
L 335.36 143.865006 
L 338.967273 143.865006 
L 342.574545 143.865006 
L 346.181818 143.865006 
L 349.789091 143.865006 
L 353.396364 143.865006 
L 357.003636 143.865006 
L 360.610909 143.865006 
L 364.218182 143.865006 
L 367.825455 143.865006 
L 371.432727 143.865006 
L 375.04 143.865006 
L 378.647273 143.865006 
L 382.254545 143.865006 
L 385.861818 143.865006 
L 389.469091 143.865006 
L 393.076364 143.865006 
L 396.683636 143.865006 
L 400.290909 143.865006 
L 403.898182 143.865006 
L 407.505455 143.865006 
L 411.112727 143.865006 
L 414.72 143.865006 
L 414.72 143.616 
L 414.72 140.928 
L 414.72 138.24 
L 414.72 135.552 
L 414.72 132.864 
L 414.72 130.176 
L 414.72 127.488 
L 414.72 124.8 
L 414.72 122.112 
L 414.72 119.424 
L 414.72 116.736 
L 414.72 114.048 
L 414.72 111.36 
L 414.72 108.672 
L 414.72 105.984 
L 414.72 103.296 
L 414.72 100.608 
L 414.72 97.92 
L 414.72 95.232 
L 414.72 92.544 
L 414.72 89.856 
L 414.72 87.168 
L 414.72 84.48 
L 414.72 81.792 
L 414.72 79.104 
L 414.72 76.416 
L 414.72 73.728 
L 414.72 71.04 
L 414.72 68.352 
L 414.72 65.664 
L 414.72 63.292428 
L 411.112727 63.292428 
L 407.505455 63.292428 
L 403.898182 63.292428 
L 400.290909 63.292428 
L 396.683636 63.292428 
L 393.076364 63.292428 
L 389.469091 63.292428 
L 385.861818 63.292428 
L 382.254545 63.292428 
L 378.647273 63.292428 
L 375.04 63.292428 
L 371.432727 63.292428 
L 367.825455 63.292428 
L 364.218182 63.292428 
L 360.610909 63.292428 
L 357.003636 63.292428 
L 353.396364 63.292428 
L 349.789091 63.292428 
L 346.181818 63.292428 
L 342.574545 63.292428 
L 338.967273 63.292428 
L 335.36 63.292428 
L 331.752727 63.292428 
L 328.145455 63.292428 
L 324.538182 63.292428 
L 320.930909 63.292428 
L 317.323636 63.292428 
L 313.716364 63.292428 
L 310.109091 63.292428 
L 306.501818 63.292428 
L 302.894545 63.292428 
L 299.287273 63.292428 
L 295.68 63.292428 
L 292.072727 63.292428 
L 288.465455 63.292428 
L 284.858182 63.292428 
L 281.250909 63.292428 
L 277.643636 63.292428 
L 274.036364 63.292428 
L 270.429091 63.292428 
L 266.821818 63.292428 
L 263.214545 63.292428 
L 259.607273 63.292428 
L 256 63.292428 
L 252.392727 63.292428 
L 248.785455 63.292428 
L 245.178182 63.292428 
L 241.570909 63.292428 
L 237.963636 63.292428 
L 234.356364 63.292428 
L 230.749091 63.292428 
L 227.141818 63.292428 
L 227.009753 62.976 
L 227.009753 60.288 
L 227.009753 57.6 
L 227.009753 54.912 
L 227.009753 52.224 
L 227.009753 49.536 
L 227.009753 46.848 
L 227.009753 44.16 
L 227.009753 41.472 
L 223.534545 41.472 
L 219.927273 41.472 
L 216.32 41.472 
L 212.712727 41.472 
L 209.105455 41.472 
L 205.498182 41.472 
L 201.890909 41.472 
L 198.283636 41.472 
L 194.676364 41.472 
L 191.069091 41.472 
L 187.461818 41.472 
L 183.854545 41.472 
L 180.247273 41.472 
L 176.64 41.472 
L 174.955808 41.472 
L 174.955808 44.16 
L 174.955808 46.848 
L 174.955808 49.536 
L 174.955808 52.224 
L 174.955808 54.912 
L 174.955808 57.6 
L 174.955808 60.288 
L 174.955808 62.976 
L 173.914505 65.664 
L 173.914505 68.352 
L 173.914505 71.04 
L 173.914505 73.728 
L 173.914505 76.416 
L 173.914505 79.104 
L 173.914505 81.792 
L 173.914505 84.48 
L 173.914505 87.168 
L 173.914505 89.856 
L 173.914505 92.544 
L 173.914505 95.232 
L 173.914505 97.92 
L 173.914505 100.608 
L 173.914505 103.296 
L 173.914505 105.984 
L 173.914505 108.672 
L 173.914505 111.36 
L 173.914505 114.048 
L 173.914505 116.736 
L 173.914505 119.424 
L 173.914505 122.112 
L 173.914505 124.8 
L 173.914505 127.488 
L 173.914505 130.176 
L 174.329288 132.864 
L 174.329288 135.552 
L 174.329288 138.24 
L 174.329288 140.928 
L 174.766885 143.616 
L 175.483039 146.304 
L 175.483039 148.992 
L 175.483039 151.68 
L 176.64 153.336018 
L 179.615125 154.368 
z
" clip-path="url(#p3297d94061)" style="fill: #d0e11c; fill-opacity: 0.75"/>
   </g>
   <g id="matplotlib.axis_1">
    <g id="xtick_1">
     <g id="line2d_1">
      <defs>
       <path id="m45784f477e" d="M 0 0 
L 0 3.5 
" style="stroke: #000000; stroke-width: 0.8"/>
      </defs>
      <g>
       <use xlink:href="#m45784f477e" x="117.804183" y="307.584" style="stroke: #000000; stroke-width: 0.8"/>
      </g>
     </g>
     <g id="text_1">
      <!-- 5 -->
      <g transform="translate(114.622933 322.182437) scale(0.1 -0.1)">
       <defs>
        <path id="DejaVuSans-35" d="M 691 4666 
L 3169 4666 
L 3169 4134 
L 1269 4134 
L 1269 2991 
Q 1406 3038 1543 3061 
Q 1681 3084 1819 3084 
Q 2600 3084 3056 2656 
Q 3513 2228 3513 1497 
Q 3513 744 3044 326 
Q 2575 -91 1722 -91 
Q 1428 -91 1123 -41 
Q 819 9 494 109 
L 494 744 
Q 775 591 1075 516 
Q 1375 441 1709 441 
Q 2250 441 2565 725 
Q 2881 1009 2881 1497 
Q 2881 1984 2565 2268 
Q 2250 2553 1709 2553 
Q 1456 2553 1204 2497 
Q 953 2441 691 2322 
L 691 4666 
z
" transform="scale(0.015625)"/>
       </defs>
       <use xlink:href="#DejaVuSans-35"/>
      </g>
     </g>
    </g>
    <g id="xtick_2">
     <g id="line2d_2">
      <g>
       <use xlink:href="#m45784f477e" x="191.10949" y="307.584" style="stroke: #000000; stroke-width: 0.8"/>
      </g>
     </g>
     <g id="text_2">
      <!-- 10 -->
      <g transform="translate(184.74699 322.182437) scale(0.1 -0.1)">
       <defs>
        <path id="DejaVuSans-31" d="M 794 531 
L 1825 531 
L 1825 4091 
L 703 3866 
L 703 4441 
L 1819 4666 
L 2450 4666 
L 2450 531 
L 3481 531 
L 3481 0 
L 794 0 
L 794 531 
z
" transform="scale(0.015625)"/>
        <path id="DejaVuSans-30" d="M 2034 4250 
Q 1547 4250 1301 3770 
Q 1056 3291 1056 2328 
Q 1056 1369 1301 889 
Q 1547 409 2034 409 
Q 2525 409 2770 889 
Q 3016 1369 3016 2328 
Q 3016 3291 2770 3770 
Q 2525 4250 2034 4250 
z
M 2034 4750 
Q 2819 4750 3233 4129 
Q 3647 3509 3647 2328 
Q 3647 1150 3233 529 
Q 2819 -91 2034 -91 
Q 1250 -91 836 529 
Q 422 1150 422 2328 
Q 422 3509 836 4129 
Q 1250 4750 2034 4750 
z
" transform="scale(0.015625)"/>
       </defs>
       <use xlink:href="#DejaVuSans-31"/>
       <use xlink:href="#DejaVuSans-30" x="63.623047"/>
      </g>
     </g>
    </g>
    <g id="xtick_3">
     <g id="line2d_3">
      <g>
       <use xlink:href="#m45784f477e" x="264.414798" y="307.584" style="stroke: #000000; stroke-width: 0.8"/>
      </g>
     </g>
     <g id="text_3">
      <!-- 15 -->
      <g transform="translate(258.052298 322.182437) scale(0.1 -0.1)">
       <use xlink:href="#DejaVuSans-31"/>
       <use xlink:href="#DejaVuSans-35" x="63.623047"/>
      </g>
     </g>
    </g>
    <g id="xtick_4">
     <g id="line2d_4">
      <g>
       <use xlink:href="#m45784f477e" x="337.720105" y="307.584" style="stroke: #000000; stroke-width: 0.8"/>
      </g>
     </g>
     <g id="text_4">
      <!-- 20 -->
      <g transform="translate(331.357605 322.182437) scale(0.1 -0.1)">
       <defs>
        <path id="DejaVuSans-32" d="M 1228 531 
L 3431 531 
L 3431 0 
L 469 0 
L 469 531 
Q 828 903 1448 1529 
Q 2069 2156 2228 2338 
Q 2531 2678 2651 2914 
Q 2772 3150 2772 3378 
Q 2772 3750 2511 3984 
Q 2250 4219 1831 4219 
Q 1534 4219 1204 4116 
Q 875 4013 500 3803 
L 500 4441 
Q 881 4594 1212 4672 
Q 1544 4750 1819 4750 
Q 2544 4750 2975 4387 
Q 3406 4025 3406 3419 
Q 3406 3131 3298 2873 
Q 3191 2616 2906 2266 
Q 2828 2175 2409 1742 
Q 1991 1309 1228 531 
z
" transform="scale(0.015625)"/>
       </defs>
       <use xlink:href="#DejaVuSans-32"/>
       <use xlink:href="#DejaVuSans-30" x="63.623047"/>
      </g>
     </g>
    </g>
    <g id="xtick_5">
     <g id="line2d_5">
      <g>
       <use xlink:href="#m45784f477e" x="411.025413" y="307.584" style="stroke: #000000; stroke-width: 0.8"/>
      </g>
     </g>
     <g id="text_5">
      <!-- 25 -->
      <g transform="translate(404.662913 322.182437) scale(0.1 -0.1)">
       <use xlink:href="#DejaVuSans-32"/>
       <use xlink:href="#DejaVuSans-35" x="63.623047"/>
      </g>
     </g>
    </g>
    <g id="text_6">
     <!-- GHG Emissions -->
     <g transform="translate(198.212344 335.860562) scale(0.1 -0.1)">
      <defs>
       <path id="DejaVuSans-47" d="M 3809 666 
L 3809 1919 
L 2778 1919 
L 2778 2438 
L 4434 2438 
L 4434 434 
Q 4069 175 3628 42 
Q 3188 -91 2688 -91 
Q 1594 -91 976 548 
Q 359 1188 359 2328 
Q 359 3472 976 4111 
Q 1594 4750 2688 4750 
Q 3144 4750 3555 4637 
Q 3966 4525 4313 4306 
L 4313 3634 
Q 3963 3931 3569 4081 
Q 3175 4231 2741 4231 
Q 1884 4231 1454 3753 
Q 1025 3275 1025 2328 
Q 1025 1384 1454 906 
Q 1884 428 2741 428 
Q 3075 428 3337 486 
Q 3600 544 3809 666 
z
" transform="scale(0.015625)"/>
       <path id="DejaVuSans-48" d="M 628 4666 
L 1259 4666 
L 1259 2753 
L 3553 2753 
L 3553 4666 
L 4184 4666 
L 4184 0 
L 3553 0 
L 3553 2222 
L 1259 2222 
L 1259 0 
L 628 0 
L 628 4666 
z
" transform="scale(0.015625)"/>
       <path id="DejaVuSans-20" transform="scale(0.015625)"/>
       <path id="DejaVuSans-45" d="M 628 4666 
L 3578 4666 
L 3578 4134 
L 1259 4134 
L 1259 2753 
L 3481 2753 
L 3481 2222 
L 1259 2222 
L 1259 531 
L 3634 531 
L 3634 0 
L 628 0 
L 628 4666 
z
" transform="scale(0.015625)"/>
       <path id="DejaVuSans-6d" d="M 3328 2828 
Q 3544 3216 3844 3400 
Q 4144 3584 4550 3584 
Q 5097 3584 5394 3201 
Q 5691 2819 5691 2113 
L 5691 0 
L 5113 0 
L 5113 2094 
Q 5113 2597 4934 2840 
Q 4756 3084 4391 3084 
Q 3944 3084 3684 2787 
Q 3425 2491 3425 1978 
L 3425 0 
L 2847 0 
L 2847 2094 
Q 2847 2600 2669 2842 
Q 2491 3084 2119 3084 
Q 1678 3084 1418 2786 
Q 1159 2488 1159 1978 
L 1159 0 
L 581 0 
L 581 3500 
L 1159 3500 
L 1159 2956 
Q 1356 3278 1631 3431 
Q 1906 3584 2284 3584 
Q 2666 3584 2933 3390 
Q 3200 3197 3328 2828 
z
" transform="scale(0.015625)"/>
       <path id="DejaVuSans-69" d="M 603 3500 
L 1178 3500 
L 1178 0 
L 603 0 
L 603 3500 
z
M 603 4863 
L 1178 4863 
L 1178 4134 
L 603 4134 
L 603 4863 
z
" transform="scale(0.015625)"/>
       <path id="DejaVuSans-73" d="M 2834 3397 
L 2834 2853 
Q 2591 2978 2328 3040 
Q 2066 3103 1784 3103 
Q 1356 3103 1142 2972 
Q 928 2841 928 2578 
Q 928 2378 1081 2264 
Q 1234 2150 1697 2047 
L 1894 2003 
Q 2506 1872 2764 1633 
Q 3022 1394 3022 966 
Q 3022 478 2636 193 
Q 2250 -91 1575 -91 
Q 1294 -91 989 -36 
Q 684 19 347 128 
L 347 722 
Q 666 556 975 473 
Q 1284 391 1588 391 
Q 1994 391 2212 530 
Q 2431 669 2431 922 
Q 2431 1156 2273 1281 
Q 2116 1406 1581 1522 
L 1381 1569 
Q 847 1681 609 1914 
Q 372 2147 372 2553 
Q 372 3047 722 3315 
Q 1072 3584 1716 3584 
Q 2034 3584 2315 3537 
Q 2597 3491 2834 3397 
z
" transform="scale(0.015625)"/>
       <path id="DejaVuSans-6f" d="M 1959 3097 
Q 1497 3097 1228 2736 
Q 959 2375 959 1747 
Q 959 1119 1226 758 
Q 1494 397 1959 397 
Q 2419 397 2687 759 
Q 2956 1122 2956 1747 
Q 2956 2369 2687 2733 
Q 2419 3097 1959 3097 
z
M 1959 3584 
Q 2709 3584 3137 3096 
Q 3566 2609 3566 1747 
Q 3566 888 3137 398 
Q 2709 -91 1959 -91 
Q 1206 -91 779 398 
Q 353 888 353 1747 
Q 353 2609 779 3096 
Q 1206 3584 1959 3584 
z
" transform="scale(0.015625)"/>
       <path id="DejaVuSans-6e" d="M 3513 2113 
L 3513 0 
L 2938 0 
L 2938 2094 
Q 2938 2591 2744 2837 
Q 2550 3084 2163 3084 
Q 1697 3084 1428 2787 
Q 1159 2491 1159 1978 
L 1159 0 
L 581 0 
L 581 3500 
L 1159 3500 
L 1159 2956 
Q 1366 3272 1645 3428 
Q 1925 3584 2291 3584 
Q 2894 3584 3203 3211 
Q 3513 2838 3513 2113 
z
" transform="scale(0.015625)"/>
      </defs>
      <use xlink:href="#DejaVuSans-47"/>
      <use xlink:href="#DejaVuSans-48" x="77.490234"/>
      <use xlink:href="#DejaVuSans-47" x="152.685547"/>
      <use xlink:href="#DejaVuSans-20" x="230.175781"/>
      <use xlink:href="#DejaVuSans-45" x="261.962891"/>
      <use xlink:href="#DejaVuSans-6d" x="325.146484"/>
      <use xlink:href="#DejaVuSans-69" x="422.558594"/>
      <use xlink:href="#DejaVuSans-73" x="450.341797"/>
      <use xlink:href="#DejaVuSans-73" x="502.441406"/>
      <use xlink:href="#DejaVuSans-69" x="554.541016"/>
      <use xlink:href="#DejaVuSans-6f" x="582.324219"/>
      <use xlink:href="#DejaVuSans-6e" x="643.505859"/>
      <use xlink:href="#DejaVuSans-73" x="706.884766"/>
     </g>
    </g>
   </g>
   <g id="matplotlib.axis_2">
    <g id="ytick_1">
     <g id="line2d_6">
      <defs>
       <path id="m423bc40be9" d="M 0 0 
L -3.5 0 
" style="stroke: #000000; stroke-width: 0.8"/>
      </defs>
      <g>
       <use xlink:href="#m423bc40be9" x="57.6" y="264.611316" style="stroke: #000000; stroke-width: 0.8"/>
      </g>
     </g>
     <g id="text_7">
      <!-- 10 -->
      <g transform="translate(37.875 268.410535) scale(0.1 -0.1)">
       <use xlink:href="#DejaVuSans-31"/>
       <use xlink:href="#DejaVuSans-30" x="63.623047"/>
      </g>
     </g>
    </g>
    <g id="ytick_2">
     <g id="line2d_7">
      <g>
       <use xlink:href="#m423bc40be9" x="57.6" y="209.291178" style="stroke: #000000; stroke-width: 0.8"/>
      </g>
     </g>
     <g id="text_8">
      <!-- 15 -->
      <g transform="translate(37.875 213.090397) scale(0.1 -0.1)">
       <use xlink:href="#DejaVuSans-31"/>
       <use xlink:href="#DejaVuSans-35" x="63.623047"/>
      </g>
     </g>
    </g>
    <g id="ytick_3">
     <g id="line2d_8">
      <g>
       <use xlink:href="#m423bc40be9" x="57.6" y="153.971041" style="stroke: #000000; stroke-width: 0.8"/>
      </g>
     </g>
     <g id="text_9">
      <!-- 20 -->
      <g transform="translate(37.875 157.77026) scale(0.1 -0.1)">
       <use xlink:href="#DejaVuSans-32"/>
       <use xlink:href="#DejaVuSans-30" x="63.623047"/>
      </g>
     </g>
    </g>
    <g id="ytick_4">
     <g id="line2d_9">
      <g>
       <use xlink:href="#m423bc40be9" x="57.6" y="98.650903" style="stroke: #000000; stroke-width: 0.8"/>
      </g>
     </g>
     <g id="text_10">
      <!-- 25 -->
      <g transform="translate(37.875 102.450122) scale(0.1 -0.1)">
       <use xlink:href="#DejaVuSans-32"/>
       <use xlink:href="#DejaVuSans-35" x="63.623047"/>
      </g>
     </g>
    </g>
    <g id="ytick_5">
     <g id="line2d_10">
      <g>
       <use xlink:href="#m423bc40be9" x="57.6" y="43.330766" style="stroke: #000000; stroke-width: 0.8"/>
      </g>
     </g>
     <g id="text_11">
      <!-- 30 -->
      <g transform="translate(37.875 47.129985) scale(0.1 -0.1)">
       <defs>
        <path id="DejaVuSans-33" d="M 2597 2516 
Q 3050 2419 3304 2112 
Q 3559 1806 3559 1356 
Q 3559 666 3084 287 
Q 2609 -91 1734 -91 
Q 1441 -91 1130 -33 
Q 819 25 488 141 
L 488 750 
Q 750 597 1062 519 
Q 1375 441 1716 441 
Q 2309 441 2620 675 
Q 2931 909 2931 1356 
Q 2931 1769 2642 2001 
Q 2353 2234 1838 2234 
L 1294 2234 
L 1294 2753 
L 1863 2753 
Q 2328 2753 2575 2939 
Q 2822 3125 2822 3475 
Q 2822 3834 2567 4026 
Q 2313 4219 1838 4219 
Q 1578 4219 1281 4162 
Q 984 4106 628 3988 
L 628 4550 
Q 988 4650 1302 4700 
Q 1616 4750 1894 4750 
Q 2613 4750 3031 4423 
Q 3450 4097 3450 3541 
Q 3450 3153 3228 2886 
Q 3006 2619 2597 2516 
z
" transform="scale(0.015625)"/>
       </defs>
       <use xlink:href="#DejaVuSans-33"/>
       <use xlink:href="#DejaVuSans-30" x="63.623047"/>
      </g>
     </g>
    </g>
    <g id="text_12">
     <!-- Smoking Prevalence -->
     <g transform="translate(31.795312 225.278781) rotate(-90) scale(0.1 -0.1)">
      <defs>
       <path id="DejaVuSans-53" d="M 3425 4513 
L 3425 3897 
Q 3066 4069 2747 4153 
Q 2428 4238 2131 4238 
Q 1616 4238 1336 4038 
Q 1056 3838 1056 3469 
Q 1056 3159 1242 3001 
Q 1428 2844 1947 2747 
L 2328 2669 
Q 3034 2534 3370 2195 
Q 3706 1856 3706 1288 
Q 3706 609 3251 259 
Q 2797 -91 1919 -91 
Q 1588 -91 1214 -16 
Q 841 59 441 206 
L 441 856 
Q 825 641 1194 531 
Q 1563 422 1919 422 
Q 2459 422 2753 634 
Q 3047 847 3047 1241 
Q 3047 1584 2836 1778 
Q 2625 1972 2144 2069 
L 1759 2144 
Q 1053 2284 737 2584 
Q 422 2884 422 3419 
Q 422 4038 858 4394 
Q 1294 4750 2059 4750 
Q 2388 4750 2728 4690 
Q 3069 4631 3425 4513 
z
" transform="scale(0.015625)"/>
       <path id="DejaVuSans-6b" d="M 581 4863 
L 1159 4863 
L 1159 1991 
L 2875 3500 
L 3609 3500 
L 1753 1863 
L 3688 0 
L 2938 0 
L 1159 1709 
L 1159 0 
L 581 0 
L 581 4863 
z
" transform="scale(0.015625)"/>
       <path id="DejaVuSans-67" d="M 2906 1791 
Q 2906 2416 2648 2759 
Q 2391 3103 1925 3103 
Q 1463 3103 1205 2759 
Q 947 2416 947 1791 
Q 947 1169 1205 825 
Q 1463 481 1925 481 
Q 2391 481 2648 825 
Q 2906 1169 2906 1791 
z
M 3481 434 
Q 3481 -459 3084 -895 
Q 2688 -1331 1869 -1331 
Q 1566 -1331 1297 -1286 
Q 1028 -1241 775 -1147 
L 775 -588 
Q 1028 -725 1275 -790 
Q 1522 -856 1778 -856 
Q 2344 -856 2625 -561 
Q 2906 -266 2906 331 
L 2906 616 
Q 2728 306 2450 153 
Q 2172 0 1784 0 
Q 1141 0 747 490 
Q 353 981 353 1791 
Q 353 2603 747 3093 
Q 1141 3584 1784 3584 
Q 2172 3584 2450 3431 
Q 2728 3278 2906 2969 
L 2906 3500 
L 3481 3500 
L 3481 434 
z
" transform="scale(0.015625)"/>
       <path id="DejaVuSans-50" d="M 1259 4147 
L 1259 2394 
L 2053 2394 
Q 2494 2394 2734 2622 
Q 2975 2850 2975 3272 
Q 2975 3691 2734 3919 
Q 2494 4147 2053 4147 
L 1259 4147 
z
M 628 4666 
L 2053 4666 
Q 2838 4666 3239 4311 
Q 3641 3956 3641 3272 
Q 3641 2581 3239 2228 
Q 2838 1875 2053 1875 
L 1259 1875 
L 1259 0 
L 628 0 
L 628 4666 
z
" transform="scale(0.015625)"/>
       <path id="DejaVuSans-72" d="M 2631 2963 
Q 2534 3019 2420 3045 
Q 2306 3072 2169 3072 
Q 1681 3072 1420 2755 
Q 1159 2438 1159 1844 
L 1159 0 
L 581 0 
L 581 3500 
L 1159 3500 
L 1159 2956 
Q 1341 3275 1631 3429 
Q 1922 3584 2338 3584 
Q 2397 3584 2469 3576 
Q 2541 3569 2628 3553 
L 2631 2963 
z
" transform="scale(0.015625)"/>
       <path id="DejaVuSans-65" d="M 3597 1894 
L 3597 1613 
L 953 1613 
Q 991 1019 1311 708 
Q 1631 397 2203 397 
Q 2534 397 2845 478 
Q 3156 559 3463 722 
L 3463 178 
Q 3153 47 2828 -22 
Q 2503 -91 2169 -91 
Q 1331 -91 842 396 
Q 353 884 353 1716 
Q 353 2575 817 3079 
Q 1281 3584 2069 3584 
Q 2775 3584 3186 3129 
Q 3597 2675 3597 1894 
z
M 3022 2063 
Q 3016 2534 2758 2815 
Q 2500 3097 2075 3097 
Q 1594 3097 1305 2825 
Q 1016 2553 972 2059 
L 3022 2063 
z
" transform="scale(0.015625)"/>
       <path id="DejaVuSans-76" d="M 191 3500 
L 800 3500 
L 1894 563 
L 2988 3500 
L 3597 3500 
L 2284 0 
L 1503 0 
L 191 3500 
z
" transform="scale(0.015625)"/>
       <path id="DejaVuSans-61" d="M 2194 1759 
Q 1497 1759 1228 1600 
Q 959 1441 959 1056 
Q 959 750 1161 570 
Q 1363 391 1709 391 
Q 2188 391 2477 730 
Q 2766 1069 2766 1631 
L 2766 1759 
L 2194 1759 
z
M 3341 1997 
L 3341 0 
L 2766 0 
L 2766 531 
Q 2569 213 2275 61 
Q 1981 -91 1556 -91 
Q 1019 -91 701 211 
Q 384 513 384 1019 
Q 384 1609 779 1909 
Q 1175 2209 1959 2209 
L 2766 2209 
L 2766 2266 
Q 2766 2663 2505 2880 
Q 2244 3097 1772 3097 
Q 1472 3097 1187 3025 
Q 903 2953 641 2809 
L 641 3341 
Q 956 3463 1253 3523 
Q 1550 3584 1831 3584 
Q 2591 3584 2966 3190 
Q 3341 2797 3341 1997 
z
" transform="scale(0.015625)"/>
       <path id="DejaVuSans-6c" d="M 603 4863 
L 1178 4863 
L 1178 0 
L 603 0 
L 603 4863 
z
" transform="scale(0.015625)"/>
       <path id="DejaVuSans-63" d="M 3122 3366 
L 3122 2828 
Q 2878 2963 2633 3030 
Q 2388 3097 2138 3097 
Q 1578 3097 1268 2742 
Q 959 2388 959 1747 
Q 959 1106 1268 751 
Q 1578 397 2138 397 
Q 2388 397 2633 464 
Q 2878 531 3122 666 
L 3122 134 
Q 2881 22 2623 -34 
Q 2366 -91 2075 -91 
Q 1284 -91 818 406 
Q 353 903 353 1747 
Q 353 2603 823 3093 
Q 1294 3584 2113 3584 
Q 2378 3584 2631 3529 
Q 2884 3475 3122 3366 
z
" transform="scale(0.015625)"/>
      </defs>
      <use xlink:href="#DejaVuSans-53"/>
      <use xlink:href="#DejaVuSans-6d" x="63.476562"/>
      <use xlink:href="#DejaVuSans-6f" x="160.888672"/>
      <use xlink:href="#DejaVuSans-6b" x="222.070312"/>
      <use xlink:href="#DejaVuSans-69" x="279.980469"/>
      <use xlink:href="#DejaVuSans-6e" x="307.763672"/>
      <use xlink:href="#DejaVuSans-67" x="371.142578"/>
      <use xlink:href="#DejaVuSans-20" x="434.619141"/>
      <use xlink:href="#DejaVuSans-50" x="466.40625"/>
      <use xlink:href="#DejaVuSans-72" x="524.958984"/>
      <use xlink:href="#DejaVuSans-65" x="563.822266"/>
      <use xlink:href="#DejaVuSans-76" x="625.345703"/>
      <use xlink:href="#DejaVuSans-61" x="684.525391"/>
      <use xlink:href="#DejaVuSans-6c" x="745.804688"/>
      <use xlink:href="#DejaVuSans-65" x="773.587891"/>
      <use xlink:href="#DejaVuSans-6e" x="835.111328"/>
      <use xlink:href="#DejaVuSans-63" x="898.490234"/>
      <use xlink:href="#DejaVuSans-65" x="953.470703"/>
     </g>
    </g>
   </g>
   <g id="PathCollection_8"/>
   <g id="PathCollection_9">
    <path d="M 57.6 194.194117 
L 61.207273 194.194117 
L 64.814545 194.194117 
L 68.421818 194.194117 
L 72.029091 194.194117 
L 75.636364 194.194117 
L 79.243636 194.194117 
L 82.850909 194.194117 
L 86.458182 194.194117 
L 90.065455 194.194117 
L 93.672727 194.194117 
L 97.28 194.194117 
L 100.887273 194.194117 
L 104.494545 194.194117 
L 108.101818 194.194117 
L 111.709091 194.194117 
L 115.316364 194.194117 
L 118.923636 194.194117 
L 122.530909 194.194117 
L 126.138182 194.194117 
L 126.309719 194.688 
L 128.354597 197.376 
L 128.354597 200.064 
L 128.354597 202.752 
L 128.354597 205.44 
L 128.354597 208.128 
L 128.354597 210.816 
L 129.24844 213.504 
L 129.24844 216.192 
L 129.24844 218.88 
L 129.485842 221.568 
L 129.581135 224.256 
L 129.581135 226.944 
L 129.581135 229.632 
L 129.581135 232.32 
L 129.581135 235.008 
L 129.581135 237.696 
L 129.581135 240.384 
L 129.581135 243.072 
L 129.581135 245.76 
L 129.714638 248.448 
L 129.714638 251.136 
L 129.714638 253.824 
L 129.714638 256.512 
L 129.714638 259.2 
L 129.714638 261.888 
L 129.714638 264.576 
L 129.714638 267.264 
L 129.714638 269.952 
L 129.714638 272.64 
L 129.714638 275.328 
L 129.714638 278.016 
L 129.714638 278.877 
" clip-path="url(#p3297d94061)" style="fill: none; stroke: #000000; stroke-width: 0.5"/>
   </g>
   <g id="PathCollection_10">
    <path d="M 57.6 154.98397 
L 61.207273 154.98397 
L 64.814545 154.98397 
L 68.421818 154.98397 
L 72.029091 154.98397 
L 75.636364 154.98397 
L 79.243636 154.98397 
L 82.850909 154.98397 
L 86.458182 154.98397 
L 90.065455 154.98397 
L 93.672727 154.98397 
L 97.28 154.98397 
L 100.887273 154.98397 
L 104.494545 154.98397 
L 108.101818 154.98397 
L 111.709091 154.98397 
L 115.316364 154.98397 
L 118.923636 154.98397 
L 122.530909 154.98397 
L 126.138182 154.98397 
L 127.047941 157.056 
L 127.047941 159.744 
L 127.425751 162.432 
L 127.425751 165.12 
L 127.425751 167.808 
L 129.011799 170.496 
L 129.574455 173.184 
L 129.574455 175.872 
L 129.745455 176.535484 
L 133.352727 176.535484 
L 134.67388 178.56 
L 134.67388 181.248 
L 134.67388 183.936 
L 134.67388 186.624 
L 134.67388 189.312 
L 135.571093 192 
L 136.96 193.579323 
L 140.567273 193.579323 
L 141.123424 194.688 
L 144.07681 197.376 
L 144.07681 200.064 
L 144.07681 202.752 
L 144.07681 205.44 
L 144.07681 208.128 
L 144.07681 210.816 
L 144.174545 211.019501 
L 147.781818 211.019501 
L 148.225499 213.504 
L 148.225499 216.192 
L 148.225499 218.88 
L 148.352991 221.568 
L 148.404166 224.256 
L 148.404166 225.117 
" clip-path="url(#p3297d94061)" style="fill: none; stroke: #000000; stroke-width: 0.5"/>
    <path d="M 148.475862 261.026044 
L 148.475862 261.888 
L 148.475862 264.576 
L 148.475862 267.264 
L 148.475862 269.952 
L 148.475862 272.64 
L 148.475862 275.328 
L 148.475862 278.016 
L 148.475862 280.704 
L 148.475862 283.392 
L 148.475862 286.08 
L 148.475862 288.768 
L 148.475862 291.456 
L 148.475862 294.144 
L 148.475862 296.832 
L 148.475862 299.52 
L 148.475862 302.208 
L 148.475862 304.896 
L 148.475862 307.584 
" clip-path="url(#p3297d94061)" style="fill: none; stroke: #000000; stroke-width: 0.5"/>
   </g>
   <g id="PathCollection_11">
    <path d="M 129.097229 41.472 
L 129.097229 44.16 
L 129.097229 46.848 
L 129.097229 49.536 
L 129.097229 52.224 
L 129.097229 54.912 
L 129.097229 57.6 
L 129.097229 60.288 
L 129.097229 62.976 
L 128.22443 65.664 
L 128.22443 68.352 
L 128.22443 71.04 
L 128.22443 73.728 
L 128.22443 74.589 
" clip-path="url(#p3297d94061)" style="fill: none; stroke: #000000; stroke-width: 0.5"/>
    <path d="M 128.22443 110.499 
L 128.22443 111.36 
L 128.22443 114.048 
L 128.22443 116.736 
L 128.22443 119.424 
L 128.22443 122.112 
L 128.22443 124.8 
L 128.22443 127.488 
L 128.22443 130.176 
L 128.572093 132.864 
L 128.572093 135.552 
L 128.572093 138.24 
L 128.572093 140.928 
L 128.938878 143.616 
L 129.539144 146.304 
L 129.539144 148.992 
L 129.539144 151.68 
L 129.745455 152.032315 
L 133.352727 152.032315 
L 136.815881 154.368 
L 136.96 154.497636 
L 140.567273 154.497636 
L 142.189627 157.056 
L 142.189627 159.744 
L 142.735292 162.432 
L 142.735292 165.12 
L 142.735292 167.808 
L 144.174545 169.496875 
L 147.781818 169.496875 
L 148.098415 170.496 
L 148.400579 173.184 
L 148.400579 175.872 
L 148.772623 178.56 
L 148.772623 181.248 
L 148.772623 183.936 
L 148.772623 186.624 
L 148.772623 189.312 
L 148.962918 192 
L 149.464295 194.688 
L 150.562458 197.376 
L 150.562458 200.064 
L 150.562458 202.752 
L 150.562458 205.44 
L 150.562458 208.128 
L 150.562458 210.816 
L 151.04248 213.504 
L 151.04248 216.192 
L 151.04248 218.88 
L 151.169972 221.568 
L 151.221147 224.256 
L 151.221147 226.944 
L 151.221147 229.632 
L 151.221147 232.32 
L 151.221147 235.008 
L 151.221147 237.696 
L 151.221147 240.384 
L 151.221147 243.072 
L 151.221147 245.76 
L 151.292843 248.448 
L 151.292843 251.136 
L 151.292843 253.824 
L 151.292843 256.512 
L 151.292843 259.2 
L 151.292843 261.888 
L 151.292843 264.576 
L 151.292843 267.264 
L 151.292843 269.952 
L 151.292843 272.64 
L 151.292843 275.328 
L 151.292843 278.016 
L 151.292843 280.704 
L 151.292843 283.392 
L 151.292843 286.08 
L 151.292843 288.768 
L 151.292843 291.456 
L 151.292843 294.144 
L 151.292843 296.832 
L 151.292843 299.52 
L 151.292843 302.208 
L 151.292843 304.896 
L 151.292843 307.584 
" clip-path="url(#p3297d94061)" style="fill: none; stroke: #000000; stroke-width: 0.5"/>
   </g>
   <g id="PathCollection_12">
    <path d="M 226.216152 307.584 
L 226.216152 304.896 
L 226.216152 302.208 
L 226.216152 299.52 
L 226.216152 296.832 
L 226.216152 294.144 
L 226.216152 291.456 
L 226.216152 288.768 
L 226.216152 286.08 
L 226.216152 283.392 
L 226.216152 280.704 
L 226.216152 278.016 
L 226.216152 275.328 
L 226.216152 272.64 
L 226.216152 269.952 
L 226.216152 267.264 
L 226.216152 264.576 
L 226.216152 261.888 
L 226.216152 259.2 
L 226.216152 256.512 
L 226.216152 253.824 
L 226.216152 251.136 
L 226.216152 248.448 
L 226.387754 245.76 
L 226.387754 243.072 
L 226.387754 240.384 
L 226.387754 237.696 
L 226.387754 235.008 
L 226.387754 232.32 
L 226.387754 229.632 
L 226.387754 226.944 
L 226.387754 224.256 
L 226.51024 221.568 
L 226.81539 218.88 
L 226.81539 216.192 
L 226.81539 213.504 
L 227.141818 212.740293 
L 230.749091 212.740293 
L 234.356364 212.740293 
L 237.963636 212.740293 
L 241.570909 212.740293 
L 245.178182 212.740293 
L 248.785455 212.740293 
L 252.392727 212.740293 
L 256 212.740293 
L 259.607273 212.740293 
L 263.214545 212.740293 
L 266.821818 212.740293 
L 270.429091 212.740293 
L 274.036364 212.740293 
L 277.643636 212.740293 
L 281.250909 212.740293 
L 284.858182 212.740293 
L 288.465455 212.740293 
L 288.546818 212.740293 
" clip-path="url(#p3297d94061)" style="fill: none; stroke: #000000; stroke-width: 0.5"/>
    <path d="M 324.456818 212.740293 
L 324.538182 212.740293 
L 328.145455 212.740293 
L 331.752727 212.740293 
L 335.36 212.740293 
L 338.967273 212.740293 
L 342.574545 212.740293 
L 346.181818 212.740293 
L 349.789091 212.740293 
L 353.396364 212.740293 
L 357.003636 212.740293 
L 360.610909 212.740293 
L 364.218182 212.740293 
L 367.825455 212.740293 
L 371.432727 212.740293 
L 375.04 212.740293 
L 378.647273 212.740293 
L 382.254545 212.740293 
L 385.861818 212.740293 
L 389.469091 212.740293 
L 393.076364 212.740293 
L 396.683636 212.740293 
L 400.290909 212.740293 
L 403.898182 212.740293 
L 407.505455 212.740293 
L 411.112727 212.740293 
L 414.72 212.740293 
" clip-path="url(#p3297d94061)" style="fill: none; stroke: #000000; stroke-width: 0.5"/>
    <path d="M 148.144294 41.472 
L 148.144294 44.16 
L 148.144294 46.848 
L 148.144294 49.536 
L 148.144294 52.224 
L 148.144294 54.912 
L 148.144294 57.6 
L 148.144294 60.288 
L 148.144294 62.976 
L 147.781818 65.054712 
L 144.174545 65.054712 
L 143.888813 65.664 
L 143.888813 68.352 
L 143.888813 71.04 
L 143.888813 73.728 
L 143.888813 76.416 
L 143.888813 79.104 
L 143.888813 81.792 
L 143.888813 84.48 
L 143.888813 87.168 
L 143.888813 89.856 
L 143.888813 92.544 
L 143.888813 95.232 
L 143.888813 97.92 
L 143.888813 100.608 
L 143.888813 103.296 
L 143.888813 105.984 
L 143.888813 108.672 
L 143.888813 111.36 
L 143.888813 114.048 
L 143.888813 116.736 
L 143.888813 119.424 
L 143.888813 122.112 
L 143.888813 124.8 
L 143.888813 127.488 
L 143.888813 130.176 
L 144.174545 131.705601 
L 147.781818 131.705601 
L 147.862279 132.864 
L 147.862279 135.552 
L 147.862279 138.24 
L 147.862279 140.928 
L 148.059254 143.616 
L 148.381616 146.304 
L 148.381616 148.992 
L 148.381616 151.68 
L 149.226933 154.368 
L 149.860743 157.056 
L 149.860743 159.744 
L 150.063639 162.432 
L 150.063639 165.12 
L 150.063639 167.808 
L 150.159437 168.110321 
" clip-path="url(#p3297d94061)" style="fill: none; stroke: #000000; stroke-width: 0.5"/>
    <path d="M 162.664637 195.302498 
L 165.818182 196.233361 
L 169.425455 196.233361 
L 173.032727 196.233361 
L 174.069802 197.376 
L 174.069802 200.064 
L 174.069802 202.752 
L 174.069802 205.44 
L 174.069802 208.128 
L 174.069802 210.816 
L 175.136212 213.504 
L 175.136212 216.192 
L 175.136212 218.88 
L 175.419447 221.568 
L 175.533137 224.256 
L 175.533137 226.944 
L 175.533137 229.632 
L 175.533137 232.32 
L 175.533137 235.008 
L 175.533137 237.696 
L 175.533137 240.384 
L 175.533137 243.072 
L 175.533137 245.76 
L 175.692415 248.448 
L 175.692415 251.136 
L 175.692415 253.824 
L 175.692415 256.512 
L 175.692415 259.2 
L 175.692415 261.888 
L 175.692415 264.576 
L 175.692415 267.264 
L 175.692415 269.952 
L 175.692415 272.64 
L 175.692415 275.328 
L 175.692415 278.016 
L 175.692415 280.704 
L 175.692415 283.392 
L 175.692415 286.08 
L 175.692415 288.768 
L 175.692415 291.456 
L 175.692415 294.144 
L 175.692415 296.832 
L 175.692415 299.52 
L 175.692415 302.208 
L 175.692415 304.896 
L 175.692415 307.584 
" clip-path="url(#p3297d94061)" style="fill: none; stroke: #000000; stroke-width: 0.5"/>
   </g>
   <g id="PathCollection_13">
    <path d="M 150.961275 41.472 
L 150.961275 44.16 
L 150.961275 46.848 
L 150.961275 49.536 
L 150.961275 52.224 
L 150.961275 54.912 
L 150.961275 57.6 
L 150.961275 60.288 
L 150.961275 62.976 
L 150.492555 65.664 
L 150.492555 68.352 
L 150.492555 71.04 
L 150.492555 73.728 
L 150.492555 76.416 
L 150.492555 79.104 
L 150.492555 81.792 
L 150.492555 84.48 
L 150.492555 87.168 
L 150.492555 89.856 
L 150.492555 92.544 
L 150.492555 95.232 
L 150.492555 97.92 
L 150.492555 100.608 
L 150.492555 103.296 
L 150.492555 105.984 
L 150.492555 108.672 
L 150.492555 111.36 
L 150.492555 114.048 
L 150.492555 116.736 
L 150.492555 119.424 
L 150.492555 122.112 
L 150.492555 124.8 
L 150.492555 127.488 
L 150.492555 130.176 
L 150.67926 132.864 
L 150.67926 135.552 
L 150.67926 138.24 
L 150.67926 140.928 
L 150.876235 143.616 
L 151.198597 146.304 
L 151.198597 148.992 
L 151.198597 151.68 
L 151.389091 152.285747 
L 154.996364 152.285747 
L 158.603636 152.285747 
L 160.773676 154.368 
L 162.210909 156.207305 
L 163.870335 157.056 
L 163.870335 159.744 
L 165.552809 162.432 
L 165.552809 165.12 
L 165.552809 167.808 
L 165.818182 167.908993 
L 169.425455 167.908993 
L 173.032727 167.908993 
L 174.853884 170.496 
L 175.525167 173.184 
L 175.525167 175.872 
L 176.351695 178.56 
L 176.351695 181.248 
L 176.351695 183.936 
L 176.351695 186.624 
L 176.351695 189.312 
L 176.64 191.145116 
L 177.194816 192 
L 180.247273 193.785138 
L 183.854545 193.785138 
L 187.461818 193.785138 
L 191.069091 193.785138 
L 194.676364 193.785138 
L 198.283636 193.785138 
L 201.890909 193.785138 
L 203.913478 194.688 
L 205.498182 195.010971 
L 209.105455 195.010971 
L 212.712727 195.010971 
L 216.32 195.010971 
L 219.927273 195.010971 
L 223.534545 195.010971 
L 223.850359 194.688 
L 225.050393 192 
L 225.505861 189.312 
L 225.505861 186.624 
L 225.505861 183.936 
L 225.505861 181.248 
L 225.505861 178.56 
L 226.39634 175.872 
L 226.39634 173.184 
L 227.119562 170.496 
L 227.141818 170.466656 
L 230.749091 170.466656 
L 234.356364 170.466656 
L 237.963636 170.466656 
L 238.045 170.466656 
" clip-path="url(#p3297d94061)" style="fill: none; stroke: #000000; stroke-width: 0.5"/>
    <path d="M 273.955 170.466656 
L 274.036364 170.466656 
L 277.643636 170.466656 
L 281.250909 170.466656 
L 284.858182 170.466656 
L 288.465455 170.466656 
L 292.072727 170.466656 
L 295.68 170.466656 
L 299.287273 170.466656 
L 302.894545 170.466656 
L 306.501818 170.466656 
L 310.109091 170.466656 
L 313.716364 170.466656 
L 317.323636 170.466656 
L 320.930909 170.466656 
L 324.538182 170.466656 
L 328.145455 170.466656 
L 331.752727 170.466656 
L 335.36 170.466656 
L 338.967273 170.466656 
L 342.574545 170.466656 
L 346.181818 170.466656 
L 349.789091 170.466656 
L 353.396364 170.466656 
L 357.003636 170.466656 
L 360.610909 170.466656 
L 364.218182 170.466656 
L 367.825455 170.466656 
L 371.432727 170.466656 
L 375.04 170.466656 
L 378.647273 170.466656 
L 382.254545 170.466656 
L 385.861818 170.466656 
L 389.469091 170.466656 
L 393.076364 170.466656 
L 396.683636 170.466656 
L 400.290909 170.466656 
L 403.898182 170.466656 
L 407.505455 170.466656 
L 411.112727 170.466656 
L 414.72 170.466656 
" clip-path="url(#p3297d94061)" style="fill: none; stroke: #000000; stroke-width: 0.5"/>
   </g>
   <g id="PathCollection_14">
    <path d="M 414.72 63.292428 
L 411.112727 63.292428 
L 407.505455 63.292428 
L 403.898182 63.292428 
L 400.290909 63.292428 
L 396.683636 63.292428 
L 393.076364 63.292428 
L 389.469091 63.292428 
L 385.861818 63.292428 
L 382.254545 63.292428 
L 378.647273 63.292428 
L 375.04 63.292428 
L 371.432727 63.292428 
L 367.825455 63.292428 
L 364.218182 63.292428 
L 364.136818 63.292428 
" clip-path="url(#p3297d94061)" style="fill: none; stroke: #000000; stroke-width: 0.5"/>
    <path d="M 328.226818 63.292428 
L 328.145455 63.292428 
L 324.538182 63.292428 
L 320.930909 63.292428 
L 317.323636 63.292428 
L 313.716364 63.292428 
L 310.109091 63.292428 
L 306.501818 63.292428 
L 302.894545 63.292428 
L 299.287273 63.292428 
L 295.68 63.292428 
L 292.072727 63.292428 
L 288.465455 63.292428 
L 284.858182 63.292428 
L 281.250909 63.292428 
L 277.643636 63.292428 
L 274.036364 63.292428 
L 270.429091 63.292428 
L 266.821818 63.292428 
L 263.214545 63.292428 
L 259.607273 63.292428 
L 256 63.292428 
L 252.392727 63.292428 
L 248.785455 63.292428 
L 245.178182 63.292428 
L 241.570909 63.292428 
L 237.963636 63.292428 
L 234.356364 63.292428 
L 230.749091 63.292428 
L 227.141818 63.292428 
L 227.009753 62.976 
L 227.009753 60.288 
L 227.009753 57.6 
L 227.009753 54.912 
L 227.009753 52.224 
L 227.009753 49.536 
L 227.009753 46.848 
L 227.009753 44.16 
L 227.009753 41.472 
" clip-path="url(#p3297d94061)" style="fill: none; stroke: #000000; stroke-width: 0.5"/>
    <path d="M 174.955808 41.472 
L 174.955808 44.16 
L 174.955808 46.848 
L 174.955808 49.536 
L 174.955808 52.224 
L 174.955808 54.912 
L 174.955808 57.6 
L 174.955808 60.288 
L 174.955808 62.976 
L 173.914505 65.664 
L 173.914505 68.352 
L 173.914505 71.04 
L 173.914505 73.728 
L 173.914505 74.589 
" clip-path="url(#p3297d94061)" style="fill: none; stroke: #000000; stroke-width: 0.5"/>
    <path d="M 173.914505 110.499 
L 173.914505 111.36 
L 173.914505 114.048 
L 173.914505 116.736 
L 173.914505 119.424 
L 173.914505 122.112 
L 173.914505 124.8 
L 173.914505 127.488 
L 173.914505 130.176 
L 174.329288 132.864 
L 174.329288 135.552 
L 174.329288 138.24 
L 174.329288 140.928 
L 174.766885 143.616 
L 175.483039 146.304 
L 175.483039 148.992 
L 175.483039 151.68 
L 176.64 153.336018 
L 179.615125 154.368 
L 180.247273 154.660446 
L 183.854545 154.660446 
L 187.461818 154.660446 
L 191.069091 154.660446 
L 194.676364 154.660446 
L 198.283636 154.660446 
L 201.890909 154.660446 
L 205.498182 155.934248 
L 209.105455 155.934248 
L 212.712727 155.934248 
L 216.32 155.934248 
L 219.927273 155.934248 
L 223.534545 155.934248 
L 224.41848 154.368 
L 226.441728 151.68 
L 226.441728 148.992 
L 226.441728 146.304 
L 227.141818 143.865006 
L 230.749091 143.865006 
L 234.356364 143.865006 
L 237.963636 143.865006 
L 241.570909 143.865006 
L 245.178182 143.865006 
L 248.785455 143.865006 
L 252.392727 143.865006 
L 256 143.865006 
L 259.607273 143.865006 
L 263.214545 143.865006 
L 266.821818 143.865006 
L 270.429091 143.865006 
L 274.036364 143.865006 
L 277.643636 143.865006 
L 281.250909 143.865006 
L 284.858182 143.865006 
L 288.465455 143.865006 
L 292.072727 143.865006 
L 295.68 143.865006 
L 299.287273 143.865006 
L 302.894545 143.865006 
L 306.501818 143.865006 
L 310.109091 143.865006 
L 313.716364 143.865006 
L 317.323636 143.865006 
L 320.930909 143.865006 
L 324.538182 143.865006 
L 328.145455 143.865006 
L 331.752727 143.865006 
L 335.36 143.865006 
L 338.967273 143.865006 
L 342.574545 143.865006 
L 346.181818 143.865006 
L 349.789091 143.865006 
L 353.396364 143.865006 
L 357.003636 143.865006 
L 360.610909 143.865006 
L 364.218182 143.865006 
L 367.825455 143.865006 
L 371.432727 143.865006 
L 375.04 143.865006 
L 378.647273 143.865006 
L 382.254545 143.865006 
L 385.861818 143.865006 
L 389.469091 143.865006 
L 393.076364 143.865006 
L 396.683636 143.865006 
L 400.290909 143.865006 
L 403.898182 143.865006 
L 407.505455 143.865006 
L 411.112727 143.865006 
L 414.72 143.865006 
" clip-path="url(#p3297d94061)" style="fill: none; stroke: #000000; stroke-width: 0.5"/>
   </g>
   <g id="PathCollection_15"/>
   <g id="LineCollection_1">
    <path d="M 67.288029 307.584 
L 67.288029 294.2784 
" clip-path="url(#p3297d94061)" style="fill: none; stroke: #000000; stroke-width: 1.5"/>
    <path d="M 78.078571 307.584 
L 78.078571 294.2784 
" clip-path="url(#p3297d94061)" style="fill: none; stroke: #000000; stroke-width: 1.5"/>
    <path d="M 93.889059 307.584 
L 93.889059 294.2784 
" clip-path="url(#p3297d94061)" style="fill: none; stroke: #000000; stroke-width: 1.5"/>
    <path d="M 108.995817 307.584 
L 108.995817 294.2784 
" clip-path="url(#p3297d94061)" style="fill: none; stroke: #000000; stroke-width: 1.5"/>
    <path d="M 131.732191 307.584 
L 131.732191 294.2784 
" clip-path="url(#p3297d94061)" style="fill: none; stroke: #000000; stroke-width: 1.5"/>
    <path d="M 156.761555 307.584 
L 156.761555 294.2784 
" clip-path="url(#p3297d94061)" style="fill: none; stroke: #000000; stroke-width: 1.5"/>
    <path d="M 184.822827 307.584 
L 184.822827 294.2784 
" clip-path="url(#p3297d94061)" style="fill: none; stroke: #000000; stroke-width: 1.5"/>
    <path d="M 230.928933 307.584 
L 230.928933 294.2784 
" clip-path="url(#p3297d94061)" style="fill: none; stroke: #000000; stroke-width: 1.5"/>
    <path d="M 331.679748 307.584 
L 331.679748 294.2784 
" clip-path="url(#p3297d94061)" style="fill: none; stroke: #000000; stroke-width: 1.5"/>
   </g>
   <g id="LineCollection_2">
    <path clip-path="url(#p3297d94061)" style="fill: none; stroke: #000000; stroke-width: 1.5"/>
    <path clip-path="url(#p3297d94061)" style="fill: none; stroke: #000000; stroke-width: 1.5"/>
    <path clip-path="url(#p3297d94061)" style="fill: none; stroke: #000000; stroke-width: 1.5"/>
    <path clip-path="url(#p3297d94061)" style="fill: none; stroke: #000000; stroke-width: 1.5"/>
    <path clip-path="url(#p3297d94061)" style="fill: none; stroke: #000000; stroke-width: 1.5"/>
    <path clip-path="url(#p3297d94061)" style="fill: none; stroke: #000000; stroke-width: 1.5"/>
    <path clip-path="url(#p3297d94061)" style="fill: none; stroke: #000000; stroke-width: 1.5"/>
    <path clip-path="url(#p3297d94061)" style="fill: none; stroke: #000000; stroke-width: 1.5"/>
    <path clip-path="url(#p3297d94061)" style="fill: none; stroke: #000000; stroke-width: 1.5"/>
   </g>
   <g id="patch_3">
    <path d="M 57.6 307.584 
L 57.6 41.472 
" style="fill: none; stroke: #000000; stroke-width: 0.8; stroke-linejoin: miter; stroke-linecap: square"/>
   </g>
   <g id="patch_4">
    <path d="M 414.72 307.584 
L 414.72 41.472 
" style="fill: none; stroke: #000000; stroke-width: 0.8; stroke-linejoin: miter; stroke-linecap: square"/>
   </g>
   <g id="patch_5">
    <path d="M 57.6 307.584 
L 414.72 307.584 
" style="fill: none; stroke: #000000; stroke-width: 0.8; stroke-linejoin: miter; stroke-linecap: square"/>
   </g>
   <g id="patch_6">
    <path d="M 57.6 41.472 
L 414.72 41.472 
" style="fill: none; stroke: #000000; stroke-width: 0.8; stroke-linejoin: miter; stroke-linecap: square"/>
   </g>
   <g id="text_13">
    <!-- 2D-partial dependency plot between GHG and Smoking -->
    <g transform="translate(69.22125 35.472) scale(0.12 -0.12)">
     <defs>
      <path id="DejaVuSans-44" d="M 1259 4147 
L 1259 519 
L 2022 519 
Q 2988 519 3436 956 
Q 3884 1394 3884 2338 
Q 3884 3275 3436 3711 
Q 2988 4147 2022 4147 
L 1259 4147 
z
M 628 4666 
L 1925 4666 
Q 3281 4666 3915 4102 
Q 4550 3538 4550 2338 
Q 4550 1131 3912 565 
Q 3275 0 1925 0 
L 628 0 
L 628 4666 
z
" transform="scale(0.015625)"/>
      <path id="DejaVuSans-2d" d="M 313 2009 
L 1997 2009 
L 1997 1497 
L 313 1497 
L 313 2009 
z
" transform="scale(0.015625)"/>
      <path id="DejaVuSans-70" d="M 1159 525 
L 1159 -1331 
L 581 -1331 
L 581 3500 
L 1159 3500 
L 1159 2969 
Q 1341 3281 1617 3432 
Q 1894 3584 2278 3584 
Q 2916 3584 3314 3078 
Q 3713 2572 3713 1747 
Q 3713 922 3314 415 
Q 2916 -91 2278 -91 
Q 1894 -91 1617 61 
Q 1341 213 1159 525 
z
M 3116 1747 
Q 3116 2381 2855 2742 
Q 2594 3103 2138 3103 
Q 1681 3103 1420 2742 
Q 1159 2381 1159 1747 
Q 1159 1113 1420 752 
Q 1681 391 2138 391 
Q 2594 391 2855 752 
Q 3116 1113 3116 1747 
z
" transform="scale(0.015625)"/>
      <path id="DejaVuSans-74" d="M 1172 4494 
L 1172 3500 
L 2356 3500 
L 2356 3053 
L 1172 3053 
L 1172 1153 
Q 1172 725 1289 603 
Q 1406 481 1766 481 
L 2356 481 
L 2356 0 
L 1766 0 
Q 1100 0 847 248 
Q 594 497 594 1153 
L 594 3053 
L 172 3053 
L 172 3500 
L 594 3500 
L 594 4494 
L 1172 4494 
z
" transform="scale(0.015625)"/>
      <path id="DejaVuSans-64" d="M 2906 2969 
L 2906 4863 
L 3481 4863 
L 3481 0 
L 2906 0 
L 2906 525 
Q 2725 213 2448 61 
Q 2172 -91 1784 -91 
Q 1150 -91 751 415 
Q 353 922 353 1747 
Q 353 2572 751 3078 
Q 1150 3584 1784 3584 
Q 2172 3584 2448 3432 
Q 2725 3281 2906 2969 
z
M 947 1747 
Q 947 1113 1208 752 
Q 1469 391 1925 391 
Q 2381 391 2643 752 
Q 2906 1113 2906 1747 
Q 2906 2381 2643 2742 
Q 2381 3103 1925 3103 
Q 1469 3103 1208 2742 
Q 947 2381 947 1747 
z
" transform="scale(0.015625)"/>
      <path id="DejaVuSans-79" d="M 2059 -325 
Q 1816 -950 1584 -1140 
Q 1353 -1331 966 -1331 
L 506 -1331 
L 506 -850 
L 844 -850 
Q 1081 -850 1212 -737 
Q 1344 -625 1503 -206 
L 1606 56 
L 191 3500 
L 800 3500 
L 1894 763 
L 2988 3500 
L 3597 3500 
L 2059 -325 
z
" transform="scale(0.015625)"/>
      <path id="DejaVuSans-62" d="M 3116 1747 
Q 3116 2381 2855 2742 
Q 2594 3103 2138 3103 
Q 1681 3103 1420 2742 
Q 1159 2381 1159 1747 
Q 1159 1113 1420 752 
Q 1681 391 2138 391 
Q 2594 391 2855 752 
Q 3116 1113 3116 1747 
z
M 1159 2969 
Q 1341 3281 1617 3432 
Q 1894 3584 2278 3584 
Q 2916 3584 3314 3078 
Q 3713 2572 3713 1747 
Q 3713 922 3314 415 
Q 2916 -91 2278 -91 
Q 1894 -91 1617 61 
Q 1341 213 1159 525 
L 1159 0 
L 581 0 
L 581 4863 
L 1159 4863 
L 1159 2969 
z
" transform="scale(0.015625)"/>
      <path id="DejaVuSans-77" d="M 269 3500 
L 844 3500 
L 1563 769 
L 2278 3500 
L 2956 3500 
L 3675 769 
L 4391 3500 
L 4966 3500 
L 4050 0 
L 3372 0 
L 2619 2869 
L 1863 0 
L 1184 0 
L 269 3500 
z
" transform="scale(0.015625)"/>
     </defs>
     <use xlink:href="#DejaVuSans-32"/>
     <use xlink:href="#DejaVuSans-44" x="63.623047"/>
     <use xlink:href="#DejaVuSans-2d" x="140.625"/>
     <use xlink:href="#DejaVuSans-70" x="176.708984"/>
     <use xlink:href="#DejaVuSans-61" x="240.185547"/>
     <use xlink:href="#DejaVuSans-72" x="301.464844"/>
     <use xlink:href="#DejaVuSans-74" x="342.578125"/>
     <use xlink:href="#DejaVuSans-69" x="381.787109"/>
     <use xlink:href="#DejaVuSans-61" x="409.570312"/>
     <use xlink:href="#DejaVuSans-6c" x="470.849609"/>
     <use xlink:href="#DejaVuSans-20" x="498.632812"/>
     <use xlink:href="#DejaVuSans-64" x="530.419922"/>
     <use xlink:href="#DejaVuSans-65" x="593.896484"/>
     <use xlink:href="#DejaVuSans-70" x="655.419922"/>
     <use xlink:href="#DejaVuSans-65" x="718.896484"/>
     <use xlink:href="#DejaVuSans-6e" x="780.419922"/>
     <use xlink:href="#DejaVuSans-64" x="843.798828"/>
     <use xlink:href="#DejaVuSans-65" x="907.275391"/>
     <use xlink:href="#DejaVuSans-6e" x="968.798828"/>
     <use xlink:href="#DejaVuSans-63" x="1032.177734"/>
     <use xlink:href="#DejaVuSans-79" x="1087.158203"/>
     <use xlink:href="#DejaVuSans-20" x="1146.337891"/>
     <use xlink:href="#DejaVuSans-70" x="1178.125"/>
     <use xlink:href="#DejaVuSans-6c" x="1241.601562"/>
     <use xlink:href="#DejaVuSans-6f" x="1269.384766"/>
     <use xlink:href="#DejaVuSans-74" x="1330.566406"/>
     <use xlink:href="#DejaVuSans-20" x="1369.775391"/>
     <use xlink:href="#DejaVuSans-62" x="1401.5625"/>
     <use xlink:href="#DejaVuSans-65" x="1465.039062"/>
     <use xlink:href="#DejaVuSans-74" x="1526.5625"/>
     <use xlink:href="#DejaVuSans-77" x="1565.771484"/>
     <use xlink:href="#DejaVuSans-65" x="1647.558594"/>
     <use xlink:href="#DejaVuSans-65" x="1709.082031"/>
     <use xlink:href="#DejaVuSans-6e" x="1770.605469"/>
     <use xlink:href="#DejaVuSans-20" x="1833.984375"/>
     <use xlink:href="#DejaVuSans-47" x="1865.771484"/>
     <use xlink:href="#DejaVuSans-48" x="1943.261719"/>
     <use xlink:href="#DejaVuSans-47" x="2018.457031"/>
     <use xlink:href="#DejaVuSans-20" x="2095.947266"/>
     <use xlink:href="#DejaVuSans-61" x="2127.734375"/>
     <use xlink:href="#DejaVuSans-6e" x="2189.013672"/>
     <use xlink:href="#DejaVuSans-64" x="2252.392578"/>
     <use xlink:href="#DejaVuSans-20" x="2315.869141"/>
     <use xlink:href="#DejaVuSans-53" x="2347.65625"/>
     <use xlink:href="#DejaVuSans-6d" x="2411.132812"/>
     <use xlink:href="#DejaVuSans-6f" x="2508.544922"/>
     <use xlink:href="#DejaVuSans-6b" x="2569.726562"/>
     <use xlink:href="#DejaVuSans-69" x="2627.636719"/>
     <use xlink:href="#DejaVuSans-6e" x="2655.419922"/>
     <use xlink:href="#DejaVuSans-67" x="2718.798828"/>
    </g>
   </g>
   <g id="text_14">
    <g clip-path="url(#p3297d94061)">
     <!-- 12.48 -->
     <g transform="translate(126.955263 282.517937) rotate(-270) scale(0.1 -0.1)">
      <defs>
       <path id="DejaVuSans-2e" d="M 684 794 
L 1344 794 
L 1344 0 
L 684 0 
L 684 794 
z
" transform="scale(0.015625)"/>
       <path id="DejaVuSans-34" d="M 2419 4116 
L 825 1625 
L 2419 1625 
L 2419 4116 
z
M 2253 4666 
L 3047 4666 
L 3047 1625 
L 3713 1625 
L 3713 1100 
L 3047 1100 
L 3047 0 
L 2419 0 
L 2419 1100 
L 313 1100 
L 313 1709 
L 2253 4666 
z
" transform="scale(0.015625)"/>
       <path id="DejaVuSans-38" d="M 2034 2216 
Q 1584 2216 1326 1975 
Q 1069 1734 1069 1313 
Q 1069 891 1326 650 
Q 1584 409 2034 409 
Q 2484 409 2743 651 
Q 3003 894 3003 1313 
Q 3003 1734 2745 1975 
Q 2488 2216 2034 2216 
z
M 1403 2484 
Q 997 2584 770 2862 
Q 544 3141 544 3541 
Q 544 4100 942 4425 
Q 1341 4750 2034 4750 
Q 2731 4750 3128 4425 
Q 3525 4100 3525 3541 
Q 3525 3141 3298 2862 
Q 3072 2584 2669 2484 
Q 3125 2378 3379 2068 
Q 3634 1759 3634 1313 
Q 3634 634 3220 271 
Q 2806 -91 2034 -91 
Q 1263 -91 848 271 
Q 434 634 434 1313 
Q 434 1759 690 2068 
Q 947 2378 1403 2484 
z
M 1172 3481 
Q 1172 3119 1398 2916 
Q 1625 2713 2034 2713 
Q 2441 2713 2670 2916 
Q 2900 3119 2900 3481 
Q 2900 3844 2670 4047 
Q 2441 4250 2034 4250 
Q 1625 4250 1398 4047 
Q 1172 3844 1172 3481 
z
" transform="scale(0.015625)"/>
      </defs>
      <use xlink:href="#DejaVuSans-31"/>
      <use xlink:href="#DejaVuSans-32" x="63.623047"/>
      <use xlink:href="#DejaVuSans-2e" x="127.246094"/>
      <use xlink:href="#DejaVuSans-34" x="159.033203"/>
      <use xlink:href="#DejaVuSans-38" x="222.65625"/>
     </g>
    </g>
   </g>
   <g id="text_15">
    <g clip-path="url(#p3297d94061)">
     <!-- 12.70 -->
     <g transform="translate(145.609053 228.764873) rotate(-270.143086) scale(0.1 -0.1)">
      <defs>
       <path id="DejaVuSans-37" d="M 525 4666 
L 3525 4666 
L 3525 4397 
L 1831 0 
L 1172 0 
L 2766 4134 
L 525 4134 
L 525 4666 
z
" transform="scale(0.015625)"/>
      </defs>
      <use xlink:href="#DejaVuSans-31"/>
      <use xlink:href="#DejaVuSans-32" x="63.623047"/>
      <use xlink:href="#DejaVuSans-2e" x="127.246094"/>
      <use xlink:href="#DejaVuSans-37" x="159.033203"/>
      <use xlink:href="#DejaVuSans-30" x="222.65625"/>
     </g>
    </g>
   </g>
   <g id="text_16">
    <g clip-path="url(#p3297d94061)">
     <!-- 12.92 -->
     <g transform="translate(125.465055 78.229937) rotate(-270) scale(0.1 -0.1)">
      <defs>
       <path id="DejaVuSans-39" d="M 703 97 
L 703 672 
Q 941 559 1184 500 
Q 1428 441 1663 441 
Q 2288 441 2617 861 
Q 2947 1281 2994 2138 
Q 2813 1869 2534 1725 
Q 2256 1581 1919 1581 
Q 1219 1581 811 2004 
Q 403 2428 403 3163 
Q 403 3881 828 4315 
Q 1253 4750 1959 4750 
Q 2769 4750 3195 4129 
Q 3622 3509 3622 2328 
Q 3622 1225 3098 567 
Q 2575 -91 1691 -91 
Q 1453 -91 1209 -44 
Q 966 3 703 97 
z
M 1959 2075 
Q 2384 2075 2632 2365 
Q 2881 2656 2881 3163 
Q 2881 3666 2632 3958 
Q 2384 4250 1959 4250 
Q 1534 4250 1286 3958 
Q 1038 3666 1038 3163 
Q 1038 2656 1286 2365 
Q 1534 2075 1959 2075 
z
" transform="scale(0.015625)"/>
      </defs>
      <use xlink:href="#DejaVuSans-31"/>
      <use xlink:href="#DejaVuSans-32" x="63.623047"/>
      <use xlink:href="#DejaVuSans-2e" x="127.246094"/>
      <use xlink:href="#DejaVuSans-39" x="159.033203"/>
      <use xlink:href="#DejaVuSans-32" x="222.65625"/>
     </g>
    </g>
   </g>
   <g id="text_17">
    <g clip-path="url(#p3297d94061)">
     <!-- 13.14 -->
     <g transform="translate(292.187756 215.499668) scale(0.1 -0.1)">
      <use xlink:href="#DejaVuSans-31"/>
      <use xlink:href="#DejaVuSans-33" x="63.623047"/>
      <use xlink:href="#DejaVuSans-2e" x="127.246094"/>
      <use xlink:href="#DejaVuSans-31" x="159.033203"/>
      <use xlink:href="#DejaVuSans-34" x="222.65625"/>
     </g>
    </g>
   </g>
   <g id="text_18">
    <g clip-path="url(#p3297d94061)">
     <!-- 13.14 -->
     <g transform="translate(150.974546 166.571542) rotate(-293.764085) scale(0.1 -0.1)">
      <use xlink:href="#DejaVuSans-31"/>
      <use xlink:href="#DejaVuSans-33" x="63.623047"/>
      <use xlink:href="#DejaVuSans-2e" x="127.246094"/>
      <use xlink:href="#DejaVuSans-31" x="159.033203"/>
      <use xlink:href="#DejaVuSans-34" x="222.65625"/>
     </g>
    </g>
   </g>
   <g id="text_19">
    <g clip-path="url(#p3297d94061)">
     <!-- 13.37 -->
     <g transform="translate(241.685937 173.226031) scale(0.1 -0.1)">
      <use xlink:href="#DejaVuSans-31"/>
      <use xlink:href="#DejaVuSans-33" x="63.623047"/>
      <use xlink:href="#DejaVuSans-2e" x="127.246094"/>
      <use xlink:href="#DejaVuSans-33" x="159.033203"/>
      <use xlink:href="#DejaVuSans-37" x="222.65625"/>
     </g>
    </g>
   </g>
   <g id="text_20">
    <g clip-path="url(#p3297d94061)">
     <!-- 13.59 -->
     <g transform="translate(331.867756 66.051803) scale(0.1 -0.1)">
      <use xlink:href="#DejaVuSans-31"/>
      <use xlink:href="#DejaVuSans-33" x="63.623047"/>
      <use xlink:href="#DejaVuSans-2e" x="127.246094"/>
      <use xlink:href="#DejaVuSans-35" x="159.033203"/>
      <use xlink:href="#DejaVuSans-39" x="222.65625"/>
     </g>
    </g>
   </g>
   <g id="text_21">
    <g clip-path="url(#p3297d94061)">
     <!-- 13.59 -->
     <g transform="translate(171.15513 78.229938) rotate(-270) scale(0.1 -0.1)">
      <use xlink:href="#DejaVuSans-31"/>
      <use xlink:href="#DejaVuSans-33" x="63.623047"/>
      <use xlink:href="#DejaVuSans-2e" x="127.246094"/>
      <use xlink:href="#DejaVuSans-35" x="159.033203"/>
      <use xlink:href="#DejaVuSans-39" x="222.65625"/>
     </g>
    </g>
   </g>
  </g>
 </g>
 <defs>
  <clipPath id="p3297d94061">
   <rect x="57.6" y="41.472" width="357.12" height="266.112"/>
  </clipPath>
 </defs>
</svg>
