<?xml version="1.0" encoding="utf-8" standalone="no"?>
<!DOCTYPE svg PUBLIC "-//W3C//DTD SVG 1.1//EN"
  "http://www.w3.org/Graphics/SVG/1.1/DTD/svg11.dtd">
<svg xmlns:xlink="http://www.w3.org/1999/xlink" width="460.8pt" height="345.6pt" viewBox="0 0 460.8 345.6" xmlns="http://www.w3.org/2000/svg" version="1.1">
 <metadata>
  <rdf:RDF xmlns:dc="http://purl.org/dc/elements/1.1/" xmlns:cc="http://creativecommons.org/ns#" xmlns:rdf="http://www.w3.org/1999/02/22-rdf-syntax-ns#">
   <cc:Work>
    <dc:type rdf:resource="http://purl.org/dc/dcmitype/StillImage"/>
    <dc:date>2024-02-15T11:39:30.804093</dc:date>
    <dc:format>image/svg+xml</dc:format>
    <dc:creator>
     <cc:Agent>
      <dc:title>Matplotlib v3.7.0, https://matplotlib.org/</dc:title>
     </cc:Agent>
    </dc:creator>
   </cc:Work>
  </rdf:RDF>
 </metadata>
 <defs>
  <style type="text/css">*{stroke-linejoin: round; stroke-linecap: butt}</style>
 </defs>
 <g id="figure_1">
  <g id="patch_1">
   <path d="M 0 345.6 
L 460.8 345.6 
L 460.8 0 
L 0 0 
L 0 345.6 
z
" style="fill: none"/>
  </g>
  <g id="axes_1"/>
  <g id="axes_2">
   <g id="patch_2">
    <path d="M 57.6 307.584 
L 414.72 307.584 
L 414.72 41.472 
L 57.6 41.472 
L 57.6 307.584 
z
" style="fill: none"/>
   </g>
   <g id="PathCollection_1">
    <path d="M 61.207273 307.584 
L 64.814545 307.584 
L 68.421818 307.584 
L 72.029091 307.584 
L 75.636364 307.584 
L 79.243636 307.584 
L 82.850909 307.584 
L 86.458182 307.584 
L 90.065455 307.584 
L 93.672727 307.584 
L 97.28 307.584 
L 100.887273 307.584 
L 104.494545 307.584 
L 108.101818 307.584 
L 111.709091 307.584 
L 115.316364 307.584 
L 118.923636 307.584 
L 122.530909 307.584 
L 126.138182 307.584 
L 128.557893 307.584 
L 128.557893 304.896 
L 128.557893 302.208 
L 128.557893 299.52 
L 128.557893 296.832 
L 128.557893 294.144 
L 128.557893 291.456 
L 128.557893 288.768 
L 128.557893 286.08 
L 128.557893 283.392 
L 128.557893 280.704 
L 128.557893 278.016 
L 128.557893 275.328 
L 128.557893 272.64 
L 128.557893 269.952 
L 128.557893 267.264 
L 128.557893 264.576 
L 128.557893 261.888 
L 128.557893 259.2 
L 128.557893 256.512 
L 128.557893 253.824 
L 128.557893 251.136 
L 128.557893 248.448 
L 128.557893 245.76 
L 128.557893 243.072 
L 128.557893 240.384 
L 128.557893 237.696 
L 128.557893 235.008 
L 128.557893 232.32 
L 128.557893 229.632 
L 128.557893 226.944 
L 128.557893 224.256 
L 128.557893 221.568 
L 128.557893 218.88 
L 128.557893 216.192 
L 128.557893 213.504 
L 128.557893 210.816 
L 128.557893 208.128 
L 128.557893 205.44 
L 128.557893 202.752 
L 128.557893 200.064 
L 128.557893 197.376 
L 128.557893 194.688 
L 128.557893 192 
L 128.557893 189.312 
L 128.557893 186.624 
L 128.557893 183.936 
L 128.557893 181.248 
L 128.557893 178.56 
L 128.557893 175.872 
L 128.072238 173.184 
L 127.37304 170.496 
L 127.37304 167.808 
L 127.37304 165.12 
L 127.37304 162.432 
L 127.37304 159.744 
L 127.37304 157.056 
L 127.37304 154.368 
L 127.37304 151.68 
L 127.37304 148.992 
L 127.37304 146.304 
L 127.37304 143.616 
L 127.37304 140.928 
L 127.37304 138.24 
L 127.37304 135.552 
L 127.37304 132.864 
L 127.37304 130.176 
L 127.37304 127.488 
L 127.37304 124.8 
L 127.37304 122.112 
L 127.37304 119.424 
L 127.37304 116.736 
L 127.37304 114.048 
L 127.37304 111.36 
L 127.37304 108.672 
L 127.37304 105.984 
L 127.37304 103.296 
L 127.37304 100.608 
L 127.37304 97.92 
L 127.37304 95.232 
L 127.37304 92.544 
L 127.37304 89.856 
L 127.37304 87.168 
L 127.37304 84.48 
L 127.37304 81.792 
L 127.37304 79.104 
L 127.37304 76.416 
L 127.37304 73.728 
L 127.37304 71.04 
L 127.37304 68.352 
L 127.37304 65.664 
L 127.37304 62.976 
L 127.37304 60.288 
L 127.37304 57.6 
L 127.37304 54.912 
L 127.37304 52.224 
L 127.37304 49.536 
L 127.37304 46.848 
L 127.37304 44.16 
L 127.37304 41.472 
L 126.138182 41.472 
L 122.530909 41.472 
L 118.923636 41.472 
L 115.316364 41.472 
L 111.709091 41.472 
L 108.101818 41.472 
L 104.494545 41.472 
L 100.887273 41.472 
L 97.28 41.472 
L 93.672727 41.472 
L 90.065455 41.472 
L 86.458182 41.472 
L 82.850909 41.472 
L 79.243636 41.472 
L 75.636364 41.472 
L 72.029091 41.472 
L 68.421818 41.472 
L 64.814545 41.472 
L 61.207273 41.472 
L 57.6 41.472 
L 57.6 44.16 
L 57.6 46.848 
L 57.6 49.536 
L 57.6 52.224 
L 57.6 54.912 
L 57.6 57.6 
L 57.6 60.288 
L 57.6 62.976 
L 57.6 65.664 
L 57.6 68.352 
L 57.6 71.04 
L 57.6 73.728 
L 57.6 76.416 
L 57.6 79.104 
L 57.6 81.792 
L 57.6 84.48 
L 57.6 87.168 
L 57.6 89.856 
L 57.6 92.544 
L 57.6 95.232 
L 57.6 97.92 
L 57.6 100.608 
L 57.6 103.296 
L 57.6 105.984 
L 57.6 108.672 
L 57.6 111.36 
L 57.6 114.048 
L 57.6 116.736 
L 57.6 119.424 
L 57.6 122.112 
L 57.6 124.8 
L 57.6 127.488 
L 57.6 130.176 
L 57.6 132.864 
L 57.6 135.552 
L 57.6 138.24 
L 57.6 140.928 
L 57.6 143.616 
L 57.6 146.304 
L 57.6 148.992 
L 57.6 151.68 
L 57.6 154.368 
L 57.6 157.056 
L 57.6 159.744 
L 57.6 162.432 
L 57.6 165.12 
L 57.6 167.808 
L 57.6 170.496 
L 57.6 173.184 
L 57.6 175.872 
L 57.6 178.56 
L 57.6 181.248 
L 57.6 183.936 
L 57.6 186.624 
L 57.6 189.312 
L 57.6 192 
L 57.6 194.688 
L 57.6 197.376 
L 57.6 200.064 
L 57.6 202.752 
L 57.6 205.44 
L 57.6 208.128 
L 57.6 210.816 
L 57.6 213.504 
L 57.6 216.192 
L 57.6 218.88 
L 57.6 221.568 
L 57.6 224.256 
L 57.6 226.944 
L 57.6 229.632 
L 57.6 232.32 
L 57.6 235.008 
L 57.6 237.696 
L 57.6 240.384 
L 57.6 243.072 
L 57.6 245.76 
L 57.6 248.448 
L 57.6 251.136 
L 57.6 253.824 
L 57.6 256.512 
L 57.6 259.2 
L 57.6 261.888 
L 57.6 264.576 
L 57.6 267.264 
L 57.6 269.952 
L 57.6 272.64 
L 57.6 275.328 
L 57.6 278.016 
L 57.6 280.704 
L 57.6 283.392 
L 57.6 286.08 
L 57.6 288.768 
L 57.6 291.456 
L 57.6 294.144 
L 57.6 296.832 
L 57.6 299.52 
L 57.6 302.208 
L 57.6 304.896 
L 57.6 307.584 
z
" clip-path="url(#p902737197c)" style="fill: #481b6d; fill-opacity: 0.75"/>
   </g>
   <g id="PathCollection_2">
    <path d="M 129.745455 307.584 
L 133.352727 307.584 
L 136.96 307.584 
L 140.567273 307.584 
L 141.92011 307.584 
L 141.92011 304.896 
L 141.92011 302.208 
L 141.92011 299.52 
L 141.92011 296.832 
L 141.92011 294.144 
L 141.92011 291.456 
L 141.92011 288.768 
L 141.92011 286.08 
L 141.92011 283.392 
L 141.92011 280.704 
L 141.92011 278.016 
L 141.92011 275.328 
L 141.92011 272.64 
L 141.92011 269.952 
L 141.92011 267.264 
L 141.92011 264.576 
L 141.92011 261.888 
L 141.92011 259.2 
L 141.92011 256.512 
L 141.92011 253.824 
L 141.92011 251.136 
L 141.92011 248.448 
L 141.92011 245.76 
L 141.92011 243.072 
L 141.92011 240.384 
L 141.92011 237.696 
L 141.92011 235.008 
L 141.92011 232.32 
L 141.92011 229.632 
L 141.92011 226.944 
L 141.92011 224.256 
L 141.92011 221.568 
L 141.92011 218.88 
L 141.92011 216.192 
L 141.92011 213.504 
L 141.92011 210.816 
L 141.92011 208.128 
L 141.92011 205.44 
L 141.92011 202.752 
L 141.92011 200.064 
L 141.92011 197.376 
L 141.92011 194.688 
L 141.92011 192 
L 141.92011 189.312 
L 141.92011 186.624 
L 141.92011 183.936 
L 141.92011 181.248 
L 141.92011 178.56 
L 141.92011 175.872 
L 141.218687 173.184 
L 140.567273 171.450064 
L 136.96 171.450064 
L 136.33163 170.496 
L 136.33163 167.808 
L 136.33163 165.12 
L 136.33163 162.432 
L 136.33163 159.744 
L 136.33163 157.056 
L 136.33163 154.368 
L 136.33163 151.68 
L 136.33163 148.992 
L 136.33163 146.304 
L 136.33163 143.616 
L 136.33163 140.928 
L 136.33163 138.24 
L 136.33163 135.552 
L 136.33163 132.864 
L 136.33163 130.176 
L 136.33163 127.488 
L 136.33163 124.8 
L 136.33163 122.112 
L 136.33163 119.424 
L 136.33163 116.736 
L 136.33163 114.048 
L 136.33163 111.36 
L 136.33163 108.672 
L 136.33163 105.984 
L 136.33163 103.296 
L 136.33163 100.608 
L 136.33163 97.92 
L 136.33163 95.232 
L 136.33163 92.544 
L 136.33163 89.856 
L 136.33163 87.168 
L 136.33163 84.48 
L 136.33163 81.792 
L 136.33163 79.104 
L 136.33163 76.416 
L 136.33163 73.728 
L 136.33163 71.04 
L 136.33163 68.352 
L 136.33163 65.664 
L 136.33163 62.976 
L 136.33163 60.288 
L 136.33163 57.6 
L 136.33163 54.912 
L 136.33163 52.224 
L 136.33163 49.536 
L 136.33163 46.848 
L 136.33163 44.16 
L 136.33163 41.472 
L 133.352727 41.472 
L 129.745455 41.472 
L 127.37304 41.472 
L 127.37304 44.16 
L 127.37304 46.848 
L 127.37304 49.536 
L 127.37304 52.224 
L 127.37304 54.912 
L 127.37304 57.6 
L 127.37304 60.288 
L 127.37304 62.976 
L 127.37304 65.664 
L 127.37304 68.352 
L 127.37304 71.04 
L 127.37304 73.728 
L 127.37304 76.416 
L 127.37304 79.104 
L 127.37304 81.792 
L 127.37304 84.48 
L 127.37304 87.168 
L 127.37304 89.856 
L 127.37304 92.544 
L 127.37304 95.232 
L 127.37304 97.92 
L 127.37304 100.608 
L 127.37304 103.296 
L 127.37304 105.984 
L 127.37304 108.672 
L 127.37304 111.36 
L 127.37304 114.048 
L 127.37304 116.736 
L 127.37304 119.424 
L 127.37304 122.112 
L 127.37304 124.8 
L 127.37304 127.488 
L 127.37304 130.176 
L 127.37304 132.864 
L 127.37304 135.552 
L 127.37304 138.24 
L 127.37304 140.928 
L 127.37304 143.616 
L 127.37304 146.304 
L 127.37304 148.992 
L 127.37304 151.68 
L 127.37304 154.368 
L 127.37304 157.056 
L 127.37304 159.744 
L 127.37304 162.432 
L 127.37304 165.12 
L 127.37304 167.808 
L 127.37304 170.496 
L 128.072238 173.184 
L 128.557893 175.872 
L 128.557893 178.56 
L 128.557893 181.248 
L 128.557893 183.936 
L 128.557893 186.624 
L 128.557893 189.312 
L 128.557893 192 
L 128.557893 194.688 
L 128.557893 197.376 
L 128.557893 200.064 
L 128.557893 202.752 
L 128.557893 205.44 
L 128.557893 208.128 
L 128.557893 210.816 
L 128.557893 213.504 
L 128.557893 216.192 
L 128.557893 218.88 
L 128.557893 221.568 
L 128.557893 224.256 
L 128.557893 226.944 
L 128.557893 229.632 
L 128.557893 232.32 
L 128.557893 235.008 
L 128.557893 237.696 
L 128.557893 240.384 
L 128.557893 243.072 
L 128.557893 245.76 
L 128.557893 248.448 
L 128.557893 251.136 
L 128.557893 253.824 
L 128.557893 256.512 
L 128.557893 259.2 
L 128.557893 261.888 
L 128.557893 264.576 
L 128.557893 267.264 
L 128.557893 269.952 
L 128.557893 272.64 
L 128.557893 275.328 
L 128.557893 278.016 
L 128.557893 280.704 
L 128.557893 283.392 
L 128.557893 286.08 
L 128.557893 288.768 
L 128.557893 291.456 
L 128.557893 294.144 
L 128.557893 296.832 
L 128.557893 299.52 
L 128.557893 302.208 
L 128.557893 304.896 
L 128.557893 307.584 
z
" clip-path="url(#p902737197c)" style="fill: #3f4788; fill-opacity: 0.75"/>
   </g>
   <g id="PathCollection_3">
    <path d="M 144.174545 307.584 
L 147.781818 307.584 
L 148.849422 307.584 
L 148.849422 304.896 
L 148.849422 302.208 
L 148.849422 299.52 
L 148.849422 296.832 
L 148.849422 294.144 
L 148.849422 291.456 
L 148.849422 288.768 
L 148.849422 286.08 
L 148.849422 283.392 
L 148.849422 280.704 
L 148.849422 278.016 
L 148.849422 275.328 
L 148.849422 272.64 
L 148.849422 269.952 
L 148.849422 267.264 
L 148.849422 264.576 
L 148.849422 261.888 
L 148.849422 259.2 
L 148.849422 256.512 
L 148.849422 253.824 
L 148.849422 251.136 
L 148.849422 248.448 
L 148.849422 245.76 
L 148.849422 243.072 
L 148.849422 240.384 
L 148.849422 237.696 
L 148.849422 235.008 
L 148.849422 232.32 
L 148.849422 229.632 
L 148.849422 226.944 
L 148.849422 224.256 
L 148.849422 221.568 
L 148.849422 218.88 
L 148.849422 216.192 
L 148.849422 213.504 
L 148.849422 210.816 
L 148.849422 208.128 
L 148.849422 205.44 
L 148.849422 202.752 
L 148.849422 200.064 
L 148.849422 197.376 
L 148.849422 194.688 
L 148.849422 192 
L 148.849422 189.312 
L 148.849422 186.624 
L 148.849422 183.936 
L 148.849422 181.248 
L 148.849422 178.56 
L 148.849422 175.872 
L 148.588611 173.184 
L 148.213119 170.496 
L 148.213119 167.808 
L 148.213119 165.12 
L 148.213119 162.432 
L 148.213119 159.744 
L 148.213119 157.056 
L 148.213119 154.368 
L 148.213119 151.68 
L 148.213119 148.992 
L 148.213119 146.304 
L 148.213119 143.616 
L 148.213119 140.928 
L 148.213119 138.24 
L 148.213119 135.552 
L 148.213119 132.864 
L 148.213119 130.176 
L 148.213119 127.488 
L 148.213119 124.8 
L 148.213119 122.112 
L 148.213119 119.424 
L 148.213119 116.736 
L 148.213119 114.048 
L 148.213119 111.36 
L 148.213119 108.672 
L 148.213119 105.984 
L 148.213119 103.296 
L 148.213119 100.608 
L 148.213119 97.92 
L 148.213119 95.232 
L 148.213119 92.544 
L 148.213119 89.856 
L 148.213119 87.168 
L 148.213119 84.48 
L 148.213119 81.792 
L 148.213119 79.104 
L 148.213119 76.416 
L 148.213119 73.728 
L 148.213119 71.04 
L 148.213119 68.352 
L 148.213119 65.664 
L 148.213119 62.976 
L 148.213119 60.288 
L 148.213119 57.6 
L 148.213119 54.912 
L 148.213119 52.224 
L 148.213119 49.536 
L 148.213119 46.848 
L 148.213119 44.16 
L 148.213119 41.472 
L 147.781818 41.472 
L 144.174545 41.472 
L 140.567273 41.472 
L 136.96 41.472 
L 136.33163 41.472 
L 136.33163 44.16 
L 136.33163 46.848 
L 136.33163 49.536 
L 136.33163 52.224 
L 136.33163 54.912 
L 136.33163 57.6 
L 136.33163 60.288 
L 136.33163 62.976 
L 136.33163 65.664 
L 136.33163 68.352 
L 136.33163 71.04 
L 136.33163 73.728 
L 136.33163 76.416 
L 136.33163 79.104 
L 136.33163 81.792 
L 136.33163 84.48 
L 136.33163 87.168 
L 136.33163 89.856 
L 136.33163 92.544 
L 136.33163 95.232 
L 136.33163 97.92 
L 136.33163 100.608 
L 136.33163 103.296 
L 136.33163 105.984 
L 136.33163 108.672 
L 136.33163 111.36 
L 136.33163 114.048 
L 136.33163 116.736 
L 136.33163 119.424 
L 136.33163 122.112 
L 136.33163 124.8 
L 136.33163 127.488 
L 136.33163 130.176 
L 136.33163 132.864 
L 136.33163 135.552 
L 136.33163 138.24 
L 136.33163 140.928 
L 136.33163 143.616 
L 136.33163 146.304 
L 136.33163 148.992 
L 136.33163 151.68 
L 136.33163 154.368 
L 136.33163 157.056 
L 136.33163 159.744 
L 136.33163 162.432 
L 136.33163 165.12 
L 136.33163 167.808 
L 136.33163 170.496 
L 136.96 171.450064 
L 140.567273 171.450064 
L 141.218687 173.184 
L 141.92011 175.872 
L 141.92011 178.56 
L 141.92011 181.248 
L 141.92011 183.936 
L 141.92011 186.624 
L 141.92011 189.312 
L 141.92011 192 
L 141.92011 194.688 
L 141.92011 197.376 
L 141.92011 200.064 
L 141.92011 202.752 
L 141.92011 205.44 
L 141.92011 208.128 
L 141.92011 210.816 
L 141.92011 213.504 
L 141.92011 216.192 
L 141.92011 218.88 
L 141.92011 221.568 
L 141.92011 224.256 
L 141.92011 226.944 
L 141.92011 229.632 
L 141.92011 232.32 
L 141.92011 235.008 
L 141.92011 237.696 
L 141.92011 240.384 
L 141.92011 243.072 
L 141.92011 245.76 
L 141.92011 248.448 
L 141.92011 251.136 
L 141.92011 253.824 
L 141.92011 256.512 
L 141.92011 259.2 
L 141.92011 261.888 
L 141.92011 264.576 
L 141.92011 267.264 
L 141.92011 269.952 
L 141.92011 272.64 
L 141.92011 275.328 
L 141.92011 278.016 
L 141.92011 280.704 
L 141.92011 283.392 
L 141.92011 286.08 
L 141.92011 288.768 
L 141.92011 291.456 
L 141.92011 294.144 
L 141.92011 296.832 
L 141.92011 299.52 
L 141.92011 302.208 
L 141.92011 304.896 
L 141.92011 307.584 
z
" clip-path="url(#p902737197c)" style="fill: #2e6e8e; fill-opacity: 0.75"/>
   </g>
   <g id="PathCollection_4">
    <path d="M 150.755297 304.896 
L 150.755297 302.208 
L 150.755297 299.52 
L 150.755297 296.832 
L 150.755297 294.144 
L 150.755297 291.456 
L 150.755297 288.768 
L 150.755297 286.08 
L 150.755297 283.392 
L 150.755297 280.704 
L 150.755297 278.016 
L 150.755297 275.328 
L 150.755297 272.64 
L 150.755297 269.952 
L 150.755297 267.264 
L 150.755297 264.576 
L 150.755297 261.888 
L 150.755297 259.2 
L 150.755297 256.512 
L 150.755297 253.824 
L 150.755297 251.136 
L 150.755297 248.448 
L 150.755297 245.76 
L 150.755297 243.072 
L 150.755297 240.384 
L 150.755297 237.696 
L 150.755297 235.008 
L 150.755297 232.32 
L 150.755297 229.632 
L 150.755297 226.944 
L 150.755297 224.256 
L 150.755297 221.568 
L 150.755297 218.88 
L 150.755297 216.192 
L 150.755297 213.504 
L 150.755297 210.816 
L 150.755297 208.128 
L 150.755297 205.44 
L 150.755297 202.752 
L 150.755297 200.064 
L 150.755297 197.376 
L 150.755297 194.688 
L 150.755297 192 
L 150.755297 189.312 
L 150.755297 186.624 
L 150.755297 183.936 
L 150.755297 181.248 
L 150.755297 178.56 
L 150.755297 175.872 
L 150.494486 173.184 
L 150.118994 170.496 
L 150.118994 167.808 
L 150.118994 165.12 
L 150.118994 162.432 
L 150.118994 159.744 
L 150.118994 157.056 
L 150.118994 154.368 
L 150.118994 151.68 
L 150.118994 148.992 
L 150.118994 146.304 
L 150.118994 143.616 
L 150.118994 140.928 
L 150.118994 138.24 
L 150.118994 135.552 
L 150.118994 132.864 
L 150.118994 130.176 
L 150.118994 127.488 
L 150.118994 124.8 
L 150.118994 122.112 
L 150.118994 119.424 
L 150.118994 116.736 
L 150.118994 114.048 
L 150.118994 111.36 
L 150.118994 108.672 
L 150.118994 105.984 
L 150.118994 103.296 
L 150.118994 100.608 
L 150.118994 97.92 
L 150.118994 95.232 
L 150.118994 92.544 
L 150.118994 89.856 
L 150.118994 87.168 
L 150.118994 84.48 
L 150.118994 81.792 
L 150.118994 79.104 
L 150.118994 76.416 
L 150.118994 73.728 
L 150.118994 71.04 
L 150.118994 68.352 
L 150.118994 65.664 
L 150.118994 62.976 
L 150.118994 60.288 
L 150.118994 57.6 
L 150.118994 54.912 
L 150.118994 52.224 
L 150.118994 49.536 
L 150.118994 46.848 
L 150.118994 44.16 
L 150.118994 41.472 
L 148.213119 41.472 
L 148.213119 44.16 
L 148.213119 46.848 
L 148.213119 49.536 
L 148.213119 52.224 
L 148.213119 54.912 
L 148.213119 57.6 
L 148.213119 60.288 
L 148.213119 62.976 
L 148.213119 65.664 
L 148.213119 68.352 
L 148.213119 71.04 
L 148.213119 73.728 
L 148.213119 76.416 
L 148.213119 79.104 
L 148.213119 81.792 
L 148.213119 84.48 
L 148.213119 87.168 
L 148.213119 89.856 
L 148.213119 92.544 
L 148.213119 95.232 
L 148.213119 97.92 
L 148.213119 100.608 
L 148.213119 103.296 
L 148.213119 105.984 
L 148.213119 108.672 
L 148.213119 111.36 
L 148.213119 114.048 
L 148.213119 116.736 
L 148.213119 119.424 
L 148.213119 122.112 
L 148.213119 124.8 
L 148.213119 127.488 
L 148.213119 130.176 
L 148.213119 132.864 
L 148.213119 135.552 
L 148.213119 138.24 
L 148.213119 140.928 
L 148.213119 143.616 
L 148.213119 146.304 
L 148.213119 148.992 
L 148.213119 151.68 
L 148.213119 154.368 
L 148.213119 157.056 
L 148.213119 159.744 
L 148.213119 162.432 
L 148.213119 165.12 
L 148.213119 167.808 
L 148.213119 170.496 
L 148.588611 173.184 
L 148.849422 175.872 
L 148.849422 178.56 
L 148.849422 181.248 
L 148.849422 183.936 
L 148.849422 186.624 
L 148.849422 189.312 
L 148.849422 192 
L 148.849422 194.688 
L 148.849422 197.376 
L 148.849422 200.064 
L 148.849422 202.752 
L 148.849422 205.44 
L 148.849422 208.128 
L 148.849422 210.816 
L 148.849422 213.504 
L 148.849422 216.192 
L 148.849422 218.88 
L 148.849422 221.568 
L 148.849422 224.256 
L 148.849422 226.944 
L 148.849422 229.632 
L 148.849422 232.32 
L 148.849422 235.008 
L 148.849422 237.696 
L 148.849422 240.384 
L 148.849422 243.072 
L 148.849422 245.76 
L 148.849422 248.448 
L 148.849422 251.136 
L 148.849422 253.824 
L 148.849422 256.512 
L 148.849422 259.2 
L 148.849422 261.888 
L 148.849422 264.576 
L 148.849422 267.264 
L 148.849422 269.952 
L 148.849422 272.64 
L 148.849422 275.328 
L 148.849422 278.016 
L 148.849422 280.704 
L 148.849422 283.392 
L 148.849422 286.08 
L 148.849422 288.768 
L 148.849422 291.456 
L 148.849422 294.144 
L 148.849422 296.832 
L 148.849422 299.52 
L 148.849422 302.208 
L 148.849422 304.896 
L 148.849422 307.584 
L 150.755297 307.584 
z
" clip-path="url(#p902737197c)" style="fill: #21918c; fill-opacity: 0.75"/>
   </g>
   <g id="PathCollection_5">
    <path d="M 151.389091 307.584 
L 154.996364 307.584 
L 158.603636 307.584 
L 162.210909 307.584 
L 163.733081 307.584 
L 163.733081 304.896 
L 163.733081 302.208 
L 163.733081 299.52 
L 163.733081 296.832 
L 163.733081 294.144 
L 163.733081 291.456 
L 163.733081 288.768 
L 163.733081 286.08 
L 163.733081 283.392 
L 163.733081 280.704 
L 163.733081 278.016 
L 163.733081 275.328 
L 163.733081 272.64 
L 163.733081 269.952 
L 163.733081 267.264 
L 163.733081 264.576 
L 163.733081 261.888 
L 163.733081 259.2 
L 163.733081 256.512 
L 163.733081 253.824 
L 163.733081 251.136 
L 163.733081 248.448 
L 163.733081 245.76 
L 163.733081 243.072 
L 163.733081 240.384 
L 163.733081 237.696 
L 163.733081 235.008 
L 163.733081 232.32 
L 163.733081 229.632 
L 163.733081 226.944 
L 163.733081 224.256 
L 163.733081 221.568 
L 163.733081 218.88 
L 163.733081 216.192 
L 163.733081 213.504 
L 163.733081 210.816 
L 163.733081 208.128 
L 163.733081 205.44 
L 163.733081 202.752 
L 163.733081 200.064 
L 163.733081 197.376 
L 163.733081 194.688 
L 163.733081 192 
L 163.733081 189.312 
L 163.733081 186.624 
L 163.733081 183.936 
L 163.733081 181.248 
L 163.733081 178.56 
L 163.733081 175.872 
L 162.210909 173.980136 
L 161.954916 173.184 
L 160.710563 170.496 
L 160.710563 167.808 
L 160.710563 165.12 
L 160.710563 162.432 
L 160.710563 159.744 
L 160.710563 157.056 
L 160.710563 154.368 
L 160.710563 151.68 
L 160.710563 148.992 
L 160.710563 146.304 
L 160.710563 143.616 
L 160.710563 140.928 
L 160.710563 138.24 
L 160.710563 135.552 
L 160.710563 132.864 
L 160.710563 130.176 
L 160.710563 127.488 
L 160.710563 124.8 
L 160.710563 122.112 
L 160.710563 119.424 
L 160.710563 116.736 
L 160.710563 114.048 
L 160.710563 111.36 
L 160.710563 108.672 
L 160.710563 105.984 
L 160.710563 103.296 
L 160.710563 100.608 
L 160.710563 97.92 
L 160.710563 95.232 
L 160.710563 92.544 
L 160.710563 89.856 
L 160.710563 87.168 
L 160.710563 84.48 
L 160.710563 81.792 
L 160.710563 79.104 
L 160.710563 76.416 
L 160.710563 73.728 
L 160.710563 71.04 
L 160.710563 68.352 
L 160.710563 65.664 
L 160.710563 62.976 
L 160.710563 60.288 
L 160.710563 57.6 
L 160.710563 54.912 
L 160.710563 52.224 
L 160.710563 49.536 
L 160.710563 46.848 
L 160.710563 44.16 
L 160.710563 41.472 
L 158.603636 41.472 
L 154.996364 41.472 
L 151.389091 41.472 
L 150.118994 41.472 
L 150.118994 44.16 
L 150.118994 46.848 
L 150.118994 49.536 
L 150.118994 52.224 
L 150.118994 54.912 
L 150.118994 57.6 
L 150.118994 60.288 
L 150.118994 62.976 
L 150.118994 65.664 
L 150.118994 68.352 
L 150.118994 71.04 
L 150.118994 73.728 
L 150.118994 76.416 
L 150.118994 79.104 
L 150.118994 81.792 
L 150.118994 84.48 
L 150.118994 87.168 
L 150.118994 89.856 
L 150.118994 92.544 
L 150.118994 95.232 
L 150.118994 97.92 
L 150.118994 100.608 
L 150.118994 103.296 
L 150.118994 105.984 
L 150.118994 108.672 
L 150.118994 111.36 
L 150.118994 114.048 
L 150.118994 116.736 
L 150.118994 119.424 
L 150.118994 122.112 
L 150.118994 124.8 
L 150.118994 127.488 
L 150.118994 130.176 
L 150.118994 132.864 
L 150.118994 135.552 
L 150.118994 138.24 
L 150.118994 140.928 
L 150.118994 143.616 
L 150.118994 146.304 
L 150.118994 148.992 
L 150.118994 151.68 
L 150.118994 154.368 
L 150.118994 157.056 
L 150.118994 159.744 
L 150.118994 162.432 
L 150.118994 165.12 
L 150.118994 167.808 
L 150.118994 170.496 
L 150.494486 173.184 
L 150.755297 175.872 
L 150.755297 178.56 
L 150.755297 181.248 
L 150.755297 183.936 
L 150.755297 186.624 
L 150.755297 189.312 
L 150.755297 192 
L 150.755297 194.688 
L 150.755297 197.376 
L 150.755297 200.064 
L 150.755297 202.752 
L 150.755297 205.44 
L 150.755297 208.128 
L 150.755297 210.816 
L 150.755297 213.504 
L 150.755297 216.192 
L 150.755297 218.88 
L 150.755297 221.568 
L 150.755297 224.256 
L 150.755297 226.944 
L 150.755297 229.632 
L 150.755297 232.32 
L 150.755297 235.008 
L 150.755297 237.696 
L 150.755297 240.384 
L 150.755297 243.072 
L 150.755297 245.76 
L 150.755297 248.448 
L 150.755297 251.136 
L 150.755297 253.824 
L 150.755297 256.512 
L 150.755297 259.2 
L 150.755297 261.888 
L 150.755297 264.576 
L 150.755297 267.264 
L 150.755297 269.952 
L 150.755297 272.64 
L 150.755297 275.328 
L 150.755297 278.016 
L 150.755297 280.704 
L 150.755297 283.392 
L 150.755297 286.08 
L 150.755297 288.768 
L 150.755297 291.456 
L 150.755297 294.144 
L 150.755297 296.832 
L 150.755297 299.52 
L 150.755297 302.208 
L 150.755297 304.896 
L 150.755297 307.584 
z
" clip-path="url(#p902737197c)" style="fill: #2db27d; fill-opacity: 0.75"/>
   </g>
   <g id="PathCollection_6">
    <path d="M 165.818182 307.584 
L 169.425455 307.584 
L 173.032727 307.584 
L 176.64 307.584 
L 176.921329 307.584 
L 176.921329 304.896 
L 176.921329 302.208 
L 176.921329 299.52 
L 176.921329 296.832 
L 176.921329 294.144 
L 176.921329 291.456 
L 176.921329 288.768 
L 176.921329 286.08 
L 176.921329 283.392 
L 176.921329 280.704 
L 176.921329 278.016 
L 176.921329 275.328 
L 176.921329 272.64 
L 176.921329 269.952 
L 176.921329 267.264 
L 176.921329 264.576 
L 176.921329 261.888 
L 176.921329 259.2 
L 176.921329 256.512 
L 176.921329 253.824 
L 176.921329 251.136 
L 176.921329 248.448 
L 176.921329 245.76 
L 176.921329 243.072 
L 176.921329 240.384 
L 176.921329 237.696 
L 176.921329 235.008 
L 176.921329 232.32 
L 176.921329 229.632 
L 176.921329 226.944 
L 176.921329 224.256 
L 176.921329 221.568 
L 176.921329 218.88 
L 176.921329 216.192 
L 176.921329 213.504 
L 176.921329 210.816 
L 176.921329 208.128 
L 176.921329 205.44 
L 176.921329 202.752 
L 176.921329 200.064 
L 176.921329 197.376 
L 176.921329 194.688 
L 176.921329 192 
L 176.921329 189.312 
L 176.921329 186.624 
L 176.921329 183.936 
L 176.921329 181.248 
L 176.921329 178.56 
L 176.921329 175.872 
L 176.64 175.555718 
L 176.128761 173.184 
L 175.294574 170.496 
L 175.294574 167.808 
L 175.294574 165.12 
L 175.294574 162.432 
L 175.294574 159.744 
L 175.294574 157.056 
L 175.294574 154.368 
L 175.294574 151.68 
L 175.294574 148.992 
L 175.294574 146.304 
L 175.294574 143.616 
L 175.294574 140.928 
L 175.294574 138.24 
L 175.294574 135.552 
L 175.294574 132.864 
L 175.294574 130.176 
L 175.294574 127.488 
L 175.294574 124.8 
L 175.294574 122.112 
L 175.294574 119.424 
L 175.294574 116.736 
L 175.294574 114.048 
L 175.294574 111.36 
L 175.294574 108.672 
L 175.294574 105.984 
L 175.294574 103.296 
L 175.294574 100.608 
L 175.294574 97.92 
L 175.294574 95.232 
L 175.294574 92.544 
L 175.294574 89.856 
L 175.294574 87.168 
L 175.294574 84.48 
L 175.294574 81.792 
L 175.294574 79.104 
L 175.294574 76.416 
L 175.294574 73.728 
L 175.294574 71.04 
L 175.294574 68.352 
L 175.294574 65.664 
L 175.294574 62.976 
L 175.294574 60.288 
L 175.294574 57.6 
L 175.294574 54.912 
L 175.294574 52.224 
L 175.294574 49.536 
L 175.294574 46.848 
L 175.294574 44.16 
L 175.294574 41.472 
L 173.032727 41.472 
L 169.425455 41.472 
L 165.818182 41.472 
L 162.210909 41.472 
L 160.710563 41.472 
L 160.710563 44.16 
L 160.710563 46.848 
L 160.710563 49.536 
L 160.710563 52.224 
L 160.710563 54.912 
L 160.710563 57.6 
L 160.710563 60.288 
L 160.710563 62.976 
L 160.710563 65.664 
L 160.710563 68.352 
L 160.710563 71.04 
L 160.710563 73.728 
L 160.710563 76.416 
L 160.710563 79.104 
L 160.710563 81.792 
L 160.710563 84.48 
L 160.710563 87.168 
L 160.710563 89.856 
L 160.710563 92.544 
L 160.710563 95.232 
L 160.710563 97.92 
L 160.710563 100.608 
L 160.710563 103.296 
L 160.710563 105.984 
L 160.710563 108.672 
L 160.710563 111.36 
L 160.710563 114.048 
L 160.710563 116.736 
L 160.710563 119.424 
L 160.710563 122.112 
L 160.710563 124.8 
L 160.710563 127.488 
L 160.710563 130.176 
L 160.710563 132.864 
L 160.710563 135.552 
L 160.710563 138.24 
L 160.710563 140.928 
L 160.710563 143.616 
L 160.710563 146.304 
L 160.710563 148.992 
L 160.710563 151.68 
L 160.710563 154.368 
L 160.710563 157.056 
L 160.710563 159.744 
L 160.710563 162.432 
L 160.710563 165.12 
L 160.710563 167.808 
L 160.710563 170.496 
L 161.954916 173.184 
L 162.210909 173.980136 
L 163.733081 175.872 
L 163.733081 178.56 
L 163.733081 181.248 
L 163.733081 183.936 
L 163.733081 186.624 
L 163.733081 189.312 
L 163.733081 192 
L 163.733081 194.688 
L 163.733081 197.376 
L 163.733081 200.064 
L 163.733081 202.752 
L 163.733081 205.44 
L 163.733081 208.128 
L 163.733081 210.816 
L 163.733081 213.504 
L 163.733081 216.192 
L 163.733081 218.88 
L 163.733081 221.568 
L 163.733081 224.256 
L 163.733081 226.944 
L 163.733081 229.632 
L 163.733081 232.32 
L 163.733081 235.008 
L 163.733081 237.696 
L 163.733081 240.384 
L 163.733081 243.072 
L 163.733081 245.76 
L 163.733081 248.448 
L 163.733081 251.136 
L 163.733081 253.824 
L 163.733081 256.512 
L 163.733081 259.2 
L 163.733081 261.888 
L 163.733081 264.576 
L 163.733081 267.264 
L 163.733081 269.952 
L 163.733081 272.64 
L 163.733081 275.328 
L 163.733081 278.016 
L 163.733081 280.704 
L 163.733081 283.392 
L 163.733081 286.08 
L 163.733081 288.768 
L 163.733081 291.456 
L 163.733081 294.144 
L 163.733081 296.832 
L 163.733081 299.52 
L 163.733081 302.208 
L 163.733081 304.896 
L 163.733081 307.584 
z
" clip-path="url(#p902737197c)" style="fill: #73d056; fill-opacity: 0.75"/>
    <path d="M 227.141818 307.584 
L 230.749091 307.584 
L 234.356364 307.584 
L 237.963636 307.584 
L 241.570909 307.584 
L 245.178182 307.584 
L 248.785455 307.584 
L 252.392727 307.584 
L 256 307.584 
L 259.607273 307.584 
L 263.214545 307.584 
L 266.821818 307.584 
L 270.429091 307.584 
L 274.036364 307.584 
L 277.643636 307.584 
L 281.250909 307.584 
L 284.858182 307.584 
L 288.465455 307.584 
L 292.072727 307.584 
L 295.68 307.584 
L 299.287273 307.584 
L 302.894545 307.584 
L 306.501818 307.584 
L 310.109091 307.584 
L 313.716364 307.584 
L 317.323636 307.584 
L 320.930909 307.584 
L 324.538182 307.584 
L 328.145455 307.584 
L 331.752727 307.584 
L 335.36 307.584 
L 338.967273 307.584 
L 342.574545 307.584 
L 346.181818 307.584 
L 349.789091 307.584 
L 353.396364 307.584 
L 357.003636 307.584 
L 360.610909 307.584 
L 364.218182 307.584 
L 367.825455 307.584 
L 371.432727 307.584 
L 375.04 307.584 
L 378.647273 307.584 
L 382.254545 307.584 
L 385.861818 307.584 
L 389.469091 307.584 
L 393.076364 307.584 
L 396.683636 307.584 
L 400.290909 307.584 
L 403.898182 307.584 
L 407.505455 307.584 
L 411.112727 307.584 
L 414.72 307.584 
L 414.72 304.896 
L 414.72 302.208 
L 414.72 299.52 
L 414.72 296.832 
L 414.72 294.144 
L 414.72 291.456 
L 414.72 288.768 
L 414.72 286.08 
L 414.72 283.392 
L 414.72 280.704 
L 414.72 278.016 
L 414.72 275.328 
L 414.72 272.64 
L 414.72 269.952 
L 414.72 267.264 
L 414.72 264.576 
L 414.72 261.888 
L 414.72 259.2 
L 414.72 256.512 
L 414.72 253.824 
L 414.72 251.136 
L 414.72 248.448 
L 414.72 245.76 
L 414.72 243.072 
L 414.72 240.384 
L 414.72 237.696 
L 414.72 235.008 
L 414.72 232.32 
L 414.72 229.632 
L 414.72 226.944 
L 414.72 224.256 
L 414.72 221.568 
L 414.72 218.88 
L 414.72 216.192 
L 414.72 213.504 
L 414.72 210.816 
L 414.72 208.128 
L 414.72 205.44 
L 414.72 202.752 
L 414.72 200.064 
L 414.72 197.376 
L 414.72 194.688 
L 414.72 192 
L 414.72 189.312 
L 414.72 186.624 
L 414.72 183.936 
L 414.72 181.248 
L 414.72 178.56 
L 414.72 175.872 
L 414.72 173.184 
L 414.72 170.496 
L 414.72 167.808 
L 414.72 165.12 
L 414.72 162.432 
L 414.72 159.744 
L 414.72 157.056 
L 414.72 154.368 
L 414.72 151.68 
L 414.72 148.992 
L 414.72 146.304 
L 414.72 143.616 
L 414.72 140.928 
L 414.72 138.24 
L 414.72 135.552 
L 414.72 132.864 
L 414.72 130.176 
L 414.72 127.488 
L 414.72 124.8 
L 414.72 122.112 
L 414.72 119.424 
L 414.72 116.736 
L 414.72 114.048 
L 414.72 111.36 
L 414.72 108.672 
L 414.72 105.984 
L 414.72 103.296 
L 414.72 100.608 
L 414.72 97.92 
L 414.72 95.232 
L 414.72 92.544 
L 414.72 89.856 
L 414.72 87.168 
L 414.72 84.48 
L 414.72 81.792 
L 414.72 79.104 
L 414.72 76.416 
L 414.72 73.728 
L 414.72 71.04 
L 414.72 68.352 
L 414.72 65.664 
L 414.72 62.976 
L 414.72 60.288 
L 414.72 57.6 
L 414.72 54.912 
L 414.72 52.224 
L 414.72 49.536 
L 414.72 46.848 
L 414.72 44.16 
L 414.72 41.472 
L 411.112727 41.472 
L 407.505455 41.472 
L 403.898182 41.472 
L 400.290909 41.472 
L 396.683636 41.472 
L 393.076364 41.472 
L 389.469091 41.472 
L 385.861818 41.472 
L 382.254545 41.472 
L 378.647273 41.472 
L 375.04 41.472 
L 371.432727 41.472 
L 367.825455 41.472 
L 364.218182 41.472 
L 360.610909 41.472 
L 357.003636 41.472 
L 353.396364 41.472 
L 349.789091 41.472 
L 346.181818 41.472 
L 342.574545 41.472 
L 338.967273 41.472 
L 335.36 41.472 
L 331.752727 41.472 
L 328.145455 41.472 
L 324.538182 41.472 
L 320.930909 41.472 
L 317.323636 41.472 
L 313.716364 41.472 
L 310.109091 41.472 
L 306.501818 41.472 
L 302.894545 41.472 
L 299.287273 41.472 
L 295.68 41.472 
L 292.072727 41.472 
L 288.465455 41.472 
L 284.858182 41.472 
L 281.250909 41.472 
L 277.643636 41.472 
L 274.036364 41.472 
L 270.429091 41.472 
L 266.821818 41.472 
L 263.214545 41.472 
L 259.607273 41.472 
L 256 41.472 
L 252.392727 41.472 
L 248.785455 41.472 
L 245.178182 41.472 
L 241.570909 41.472 
L 237.963636 41.472 
L 234.356364 41.472 
L 230.749091 41.472 
L 227.141818 41.472 
L 226.644775 41.472 
L 226.644775 44.16 
L 226.644775 46.848 
L 226.644775 49.536 
L 226.644775 52.224 
L 226.644775 54.912 
L 226.644775 57.6 
L 226.644775 60.288 
L 226.644775 62.976 
L 226.644775 65.664 
L 226.644775 68.352 
L 226.644775 71.04 
L 226.644775 73.728 
L 226.644775 76.416 
L 226.644775 79.104 
L 226.644775 81.792 
L 226.644775 84.48 
L 226.644775 87.168 
L 226.644775 89.856 
L 226.644775 92.544 
L 226.644775 95.232 
L 226.644775 97.92 
L 226.644775 100.608 
L 226.644775 103.296 
L 226.644775 105.984 
L 226.644775 108.672 
L 226.644775 111.36 
L 226.644775 114.048 
L 226.644775 116.736 
L 226.644775 119.424 
L 226.644775 122.112 
L 226.644775 124.8 
L 226.644775 127.488 
L 226.644775 130.176 
L 226.644775 132.864 
L 226.644775 135.552 
L 226.644775 138.24 
L 226.644775 140.928 
L 226.644775 143.616 
L 226.644775 146.304 
L 226.644775 148.992 
L 226.644775 151.68 
L 226.644775 154.368 
L 226.644775 157.056 
L 226.644775 159.744 
L 226.644775 162.432 
L 226.644775 165.12 
L 226.644775 167.808 
L 226.644775 170.496 
L 225.746044 173.184 
L 225.121798 175.872 
L 225.121798 178.56 
L 225.121798 181.248 
L 225.121798 183.936 
L 225.121798 186.624 
L 225.121798 189.312 
L 225.121798 192 
L 225.121798 194.688 
L 225.121798 197.376 
L 225.121798 200.064 
L 225.121798 202.752 
L 225.121798 205.44 
L 225.121798 208.128 
L 225.121798 210.816 
L 225.121798 213.504 
L 225.121798 216.192 
L 225.121798 218.88 
L 225.121798 221.568 
L 225.121798 224.256 
L 225.121798 226.944 
L 225.121798 229.632 
L 225.121798 232.32 
L 225.121798 235.008 
L 225.121798 237.696 
L 225.121798 240.384 
L 225.121798 243.072 
L 225.121798 245.76 
L 225.121798 248.448 
L 225.121798 251.136 
L 225.121798 253.824 
L 225.121798 256.512 
L 225.121798 259.2 
L 225.121798 261.888 
L 225.121798 264.576 
L 225.121798 267.264 
L 225.121798 269.952 
L 225.121798 272.64 
L 225.121798 275.328 
L 225.121798 278.016 
L 225.121798 280.704 
L 225.121798 283.392 
L 225.121798 286.08 
L 225.121798 288.768 
L 225.121798 291.456 
L 225.121798 294.144 
L 225.121798 296.832 
L 225.121798 299.52 
L 225.121798 302.208 
L 225.121798 304.896 
L 225.121798 307.584 
z
" clip-path="url(#p902737197c)" style="fill: #73d056; fill-opacity: 0.75"/>
   </g>
   <g id="PathCollection_7">
    <path d="M 180.247273 307.584 
L 183.854545 307.584 
L 187.461818 307.584 
L 191.069091 307.584 
L 194.676364 307.584 
L 198.283636 307.584 
L 201.890909 307.584 
L 205.498182 307.584 
L 209.105455 307.584 
L 212.712727 307.584 
L 216.32 307.584 
L 219.927273 307.584 
L 223.534545 307.584 
L 225.121798 307.584 
L 225.121798 304.896 
L 225.121798 302.208 
L 225.121798 299.52 
L 225.121798 296.832 
L 225.121798 294.144 
L 225.121798 291.456 
L 225.121798 288.768 
L 225.121798 286.08 
L 225.121798 283.392 
L 225.121798 280.704 
L 225.121798 278.016 
L 225.121798 275.328 
L 225.121798 272.64 
L 225.121798 269.952 
L 225.121798 267.264 
L 225.121798 264.576 
L 225.121798 261.888 
L 225.121798 259.2 
L 225.121798 256.512 
L 225.121798 253.824 
L 225.121798 251.136 
L 225.121798 248.448 
L 225.121798 245.76 
L 225.121798 243.072 
L 225.121798 240.384 
L 225.121798 237.696 
L 225.121798 235.008 
L 225.121798 232.32 
L 225.121798 229.632 
L 225.121798 226.944 
L 225.121798 224.256 
L 225.121798 221.568 
L 225.121798 218.88 
L 225.121798 216.192 
L 225.121798 213.504 
L 225.121798 210.816 
L 225.121798 208.128 
L 225.121798 205.44 
L 225.121798 202.752 
L 225.121798 200.064 
L 225.121798 197.376 
L 225.121798 194.688 
L 225.121798 192 
L 225.121798 189.312 
L 225.121798 186.624 
L 225.121798 183.936 
L 225.121798 181.248 
L 225.121798 178.56 
L 225.121798 175.872 
L 225.746044 173.184 
L 226.644775 170.496 
L 226.644775 167.808 
L 226.644775 165.12 
L 226.644775 162.432 
L 226.644775 159.744 
L 226.644775 157.056 
L 226.644775 154.368 
L 226.644775 151.68 
L 226.644775 148.992 
L 226.644775 146.304 
L 226.644775 143.616 
L 226.644775 140.928 
L 226.644775 138.24 
L 226.644775 135.552 
L 226.644775 132.864 
L 226.644775 130.176 
L 226.644775 127.488 
L 226.644775 124.8 
L 226.644775 122.112 
L 226.644775 119.424 
L 226.644775 116.736 
L 226.644775 114.048 
L 226.644775 111.36 
L 226.644775 108.672 
L 226.644775 105.984 
L 226.644775 103.296 
L 226.644775 100.608 
L 226.644775 97.92 
L 226.644775 95.232 
L 226.644775 92.544 
L 226.644775 89.856 
L 226.644775 87.168 
L 226.644775 84.48 
L 226.644775 81.792 
L 226.644775 79.104 
L 226.644775 76.416 
L 226.644775 73.728 
L 226.644775 71.04 
L 226.644775 68.352 
L 226.644775 65.664 
L 226.644775 62.976 
L 226.644775 60.288 
L 226.644775 57.6 
L 226.644775 54.912 
L 226.644775 52.224 
L 226.644775 49.536 
L 226.644775 46.848 
L 226.644775 44.16 
L 226.644775 41.472 
L 223.534545 41.472 
L 219.927273 41.472 
L 216.32 41.472 
L 212.712727 41.472 
L 209.105455 41.472 
L 205.498182 41.472 
L 201.890909 41.472 
L 198.283636 41.472 
L 194.676364 41.472 
L 191.069091 41.472 
L 187.461818 41.472 
L 183.854545 41.472 
L 180.247273 41.472 
L 176.64 41.472 
L 175.294574 41.472 
L 175.294574 44.16 
L 175.294574 46.848 
L 175.294574 49.536 
L 175.294574 52.224 
L 175.294574 54.912 
L 175.294574 57.6 
L 175.294574 60.288 
L 175.294574 62.976 
L 175.294574 65.664 
L 175.294574 68.352 
L 175.294574 71.04 
L 175.294574 73.728 
L 175.294574 76.416 
L 175.294574 79.104 
L 175.294574 81.792 
L 175.294574 84.48 
L 175.294574 87.168 
L 175.294574 89.856 
L 175.294574 92.544 
L 175.294574 95.232 
L 175.294574 97.92 
L 175.294574 100.608 
L 175.294574 103.296 
L 175.294574 105.984 
L 175.294574 108.672 
L 175.294574 111.36 
L 175.294574 114.048 
L 175.294574 116.736 
L 175.294574 119.424 
L 175.294574 122.112 
L 175.294574 124.8 
L 175.294574 127.488 
L 175.294574 130.176 
L 175.294574 132.864 
L 175.294574 135.552 
L 175.294574 138.24 
L 175.294574 140.928 
L 175.294574 143.616 
L 175.294574 146.304 
L 175.294574 148.992 
L 175.294574 151.68 
L 175.294574 154.368 
L 175.294574 157.056 
L 175.294574 159.744 
L 175.294574 162.432 
L 175.294574 165.12 
L 175.294574 167.808 
L 175.294574 170.496 
L 176.128761 173.184 
L 176.64 175.555718 
L 176.921329 175.872 
L 176.921329 178.56 
L 176.921329 181.248 
L 176.921329 183.936 
L 176.921329 186.624 
L 176.921329 189.312 
L 176.921329 192 
L 176.921329 194.688 
L 176.921329 197.376 
L 176.921329 200.064 
L 176.921329 202.752 
L 176.921329 205.44 
L 176.921329 208.128 
L 176.921329 210.816 
L 176.921329 213.504 
L 176.921329 216.192 
L 176.921329 218.88 
L 176.921329 221.568 
L 176.921329 224.256 
L 176.921329 226.944 
L 176.921329 229.632 
L 176.921329 232.32 
L 176.921329 235.008 
L 176.921329 237.696 
L 176.921329 240.384 
L 176.921329 243.072 
L 176.921329 245.76 
L 176.921329 248.448 
L 176.921329 251.136 
L 176.921329 253.824 
L 176.921329 256.512 
L 176.921329 259.2 
L 176.921329 261.888 
L 176.921329 264.576 
L 176.921329 267.264 
L 176.921329 269.952 
L 176.921329 272.64 
L 176.921329 275.328 
L 176.921329 278.016 
L 176.921329 280.704 
L 176.921329 283.392 
L 176.921329 286.08 
L 176.921329 288.768 
L 176.921329 291.456 
L 176.921329 294.144 
L 176.921329 296.832 
L 176.921329 299.52 
L 176.921329 302.208 
L 176.921329 304.896 
L 176.921329 307.584 
z
" clip-path="url(#p902737197c)" style="fill: #d0e11c; fill-opacity: 0.75"/>
   </g>
   <g id="matplotlib.axis_1">
    <g id="xtick_1">
     <g id="line2d_1">
      <defs>
       <path id="ma8406b9552" d="M 0 0 
L 0 3.5 
" style="stroke: #000000; stroke-width: 0.8"/>
      </defs>
      <g>
       <use xlink:href="#ma8406b9552" x="117.804183" y="307.584" style="stroke: #000000; stroke-width: 0.8"/>
      </g>
     </g>
     <g id="text_1">
      <!-- 5 -->
      <g transform="translate(114.622933 322.182437) scale(0.1 -0.1)">
       <defs>
        <path id="DejaVuSans-35" d="M 691 4666 
L 3169 4666 
L 3169 4134 
L 1269 4134 
L 1269 2991 
Q 1406 3038 1543 3061 
Q 1681 3084 1819 3084 
Q 2600 3084 3056 2656 
Q 3513 2228 3513 1497 
Q 3513 744 3044 326 
Q 2575 -91 1722 -91 
Q 1428 -91 1123 -41 
Q 819 9 494 109 
L 494 744 
Q 775 591 1075 516 
Q 1375 441 1709 441 
Q 2250 441 2565 725 
Q 2881 1009 2881 1497 
Q 2881 1984 2565 2268 
Q 2250 2553 1709 2553 
Q 1456 2553 1204 2497 
Q 953 2441 691 2322 
L 691 4666 
z
" transform="scale(0.015625)"/>
       </defs>
       <use xlink:href="#DejaVuSans-35"/>
      </g>
     </g>
    </g>
    <g id="xtick_2">
     <g id="line2d_2">
      <g>
       <use xlink:href="#ma8406b9552" x="191.10949" y="307.584" style="stroke: #000000; stroke-width: 0.8"/>
      </g>
     </g>
     <g id="text_2">
      <!-- 10 -->
      <g transform="translate(184.74699 322.182437) scale(0.1 -0.1)">
       <defs>
        <path id="DejaVuSans-31" d="M 794 531 
L 1825 531 
L 1825 4091 
L 703 3866 
L 703 4441 
L 1819 4666 
L 2450 4666 
L 2450 531 
L 3481 531 
L 3481 0 
L 794 0 
L 794 531 
z
" transform="scale(0.015625)"/>
        <path id="DejaVuSans-30" d="M 2034 4250 
Q 1547 4250 1301 3770 
Q 1056 3291 1056 2328 
Q 1056 1369 1301 889 
Q 1547 409 2034 409 
Q 2525 409 2770 889 
Q 3016 1369 3016 2328 
Q 3016 3291 2770 3770 
Q 2525 4250 2034 4250 
z
M 2034 4750 
Q 2819 4750 3233 4129 
Q 3647 3509 3647 2328 
Q 3647 1150 3233 529 
Q 2819 -91 2034 -91 
Q 1250 -91 836 529 
Q 422 1150 422 2328 
Q 422 3509 836 4129 
Q 1250 4750 2034 4750 
z
" transform="scale(0.015625)"/>
       </defs>
       <use xlink:href="#DejaVuSans-31"/>
       <use xlink:href="#DejaVuSans-30" x="63.623047"/>
      </g>
     </g>
    </g>
    <g id="xtick_3">
     <g id="line2d_3">
      <g>
       <use xlink:href="#ma8406b9552" x="264.414798" y="307.584" style="stroke: #000000; stroke-width: 0.8"/>
      </g>
     </g>
     <g id="text_3">
      <!-- 15 -->
      <g transform="translate(258.052298 322.182437) scale(0.1 -0.1)">
       <use xlink:href="#DejaVuSans-31"/>
       <use xlink:href="#DejaVuSans-35" x="63.623047"/>
      </g>
     </g>
    </g>
    <g id="xtick_4">
     <g id="line2d_4">
      <g>
       <use xlink:href="#ma8406b9552" x="337.720105" y="307.584" style="stroke: #000000; stroke-width: 0.8"/>
      </g>
     </g>
     <g id="text_4">
      <!-- 20 -->
      <g transform="translate(331.357605 322.182437) scale(0.1 -0.1)">
       <defs>
        <path id="DejaVuSans-32" d="M 1228 531 
L 3431 531 
L 3431 0 
L 469 0 
L 469 531 
Q 828 903 1448 1529 
Q 2069 2156 2228 2338 
Q 2531 2678 2651 2914 
Q 2772 3150 2772 3378 
Q 2772 3750 2511 3984 
Q 2250 4219 1831 4219 
Q 1534 4219 1204 4116 
Q 875 4013 500 3803 
L 500 4441 
Q 881 4594 1212 4672 
Q 1544 4750 1819 4750 
Q 2544 4750 2975 4387 
Q 3406 4025 3406 3419 
Q 3406 3131 3298 2873 
Q 3191 2616 2906 2266 
Q 2828 2175 2409 1742 
Q 1991 1309 1228 531 
z
" transform="scale(0.015625)"/>
       </defs>
       <use xlink:href="#DejaVuSans-32"/>
       <use xlink:href="#DejaVuSans-30" x="63.623047"/>
      </g>
     </g>
    </g>
    <g id="xtick_5">
     <g id="line2d_5">
      <g>
       <use xlink:href="#ma8406b9552" x="411.025413" y="307.584" style="stroke: #000000; stroke-width: 0.8"/>
      </g>
     </g>
     <g id="text_5">
      <!-- 25 -->
      <g transform="translate(404.662913 322.182437) scale(0.1 -0.1)">
       <use xlink:href="#DejaVuSans-32"/>
       <use xlink:href="#DejaVuSans-35" x="63.623047"/>
      </g>
     </g>
    </g>
    <g id="text_6">
     <!-- GHG Emissions -->
     <g transform="translate(198.212344 335.860562) scale(0.1 -0.1)">
      <defs>
       <path id="DejaVuSans-47" d="M 3809 666 
L 3809 1919 
L 2778 1919 
L 2778 2438 
L 4434 2438 
L 4434 434 
Q 4069 175 3628 42 
Q 3188 -91 2688 -91 
Q 1594 -91 976 548 
Q 359 1188 359 2328 
Q 359 3472 976 4111 
Q 1594 4750 2688 4750 
Q 3144 4750 3555 4637 
Q 3966 4525 4313 4306 
L 4313 3634 
Q 3963 3931 3569 4081 
Q 3175 4231 2741 4231 
Q 1884 4231 1454 3753 
Q 1025 3275 1025 2328 
Q 1025 1384 1454 906 
Q 1884 428 2741 428 
Q 3075 428 3337 486 
Q 3600 544 3809 666 
z
" transform="scale(0.015625)"/>
       <path id="DejaVuSans-48" d="M 628 4666 
L 1259 4666 
L 1259 2753 
L 3553 2753 
L 3553 4666 
L 4184 4666 
L 4184 0 
L 3553 0 
L 3553 2222 
L 1259 2222 
L 1259 0 
L 628 0 
L 628 4666 
z
" transform="scale(0.015625)"/>
       <path id="DejaVuSans-20" transform="scale(0.015625)"/>
       <path id="DejaVuSans-45" d="M 628 4666 
L 3578 4666 
L 3578 4134 
L 1259 4134 
L 1259 2753 
L 3481 2753 
L 3481 2222 
L 1259 2222 
L 1259 531 
L 3634 531 
L 3634 0 
L 628 0 
L 628 4666 
z
" transform="scale(0.015625)"/>
       <path id="DejaVuSans-6d" d="M 3328 2828 
Q 3544 3216 3844 3400 
Q 4144 3584 4550 3584 
Q 5097 3584 5394 3201 
Q 5691 2819 5691 2113 
L 5691 0 
L 5113 0 
L 5113 2094 
Q 5113 2597 4934 2840 
Q 4756 3084 4391 3084 
Q 3944 3084 3684 2787 
Q 3425 2491 3425 1978 
L 3425 0 
L 2847 0 
L 2847 2094 
Q 2847 2600 2669 2842 
Q 2491 3084 2119 3084 
Q 1678 3084 1418 2786 
Q 1159 2488 1159 1978 
L 1159 0 
L 581 0 
L 581 3500 
L 1159 3500 
L 1159 2956 
Q 1356 3278 1631 3431 
Q 1906 3584 2284 3584 
Q 2666 3584 2933 3390 
Q 3200 3197 3328 2828 
z
" transform="scale(0.015625)"/>
       <path id="DejaVuSans-69" d="M 603 3500 
L 1178 3500 
L 1178 0 
L 603 0 
L 603 3500 
z
M 603 4863 
L 1178 4863 
L 1178 4134 
L 603 4134 
L 603 4863 
z
" transform="scale(0.015625)"/>
       <path id="DejaVuSans-73" d="M 2834 3397 
L 2834 2853 
Q 2591 2978 2328 3040 
Q 2066 3103 1784 3103 
Q 1356 3103 1142 2972 
Q 928 2841 928 2578 
Q 928 2378 1081 2264 
Q 1234 2150 1697 2047 
L 1894 2003 
Q 2506 1872 2764 1633 
Q 3022 1394 3022 966 
Q 3022 478 2636 193 
Q 2250 -91 1575 -91 
Q 1294 -91 989 -36 
Q 684 19 347 128 
L 347 722 
Q 666 556 975 473 
Q 1284 391 1588 391 
Q 1994 391 2212 530 
Q 2431 669 2431 922 
Q 2431 1156 2273 1281 
Q 2116 1406 1581 1522 
L 1381 1569 
Q 847 1681 609 1914 
Q 372 2147 372 2553 
Q 372 3047 722 3315 
Q 1072 3584 1716 3584 
Q 2034 3584 2315 3537 
Q 2597 3491 2834 3397 
z
" transform="scale(0.015625)"/>
       <path id="DejaVuSans-6f" d="M 1959 3097 
Q 1497 3097 1228 2736 
Q 959 2375 959 1747 
Q 959 1119 1226 758 
Q 1494 397 1959 397 
Q 2419 397 2687 759 
Q 2956 1122 2956 1747 
Q 2956 2369 2687 2733 
Q 2419 3097 1959 3097 
z
M 1959 3584 
Q 2709 3584 3137 3096 
Q 3566 2609 3566 1747 
Q 3566 888 3137 398 
Q 2709 -91 1959 -91 
Q 1206 -91 779 398 
Q 353 888 353 1747 
Q 353 2609 779 3096 
Q 1206 3584 1959 3584 
z
" transform="scale(0.015625)"/>
       <path id="DejaVuSans-6e" d="M 3513 2113 
L 3513 0 
L 2938 0 
L 2938 2094 
Q 2938 2591 2744 2837 
Q 2550 3084 2163 3084 
Q 1697 3084 1428 2787 
Q 1159 2491 1159 1978 
L 1159 0 
L 581 0 
L 581 3500 
L 1159 3500 
L 1159 2956 
Q 1366 3272 1645 3428 
Q 1925 3584 2291 3584 
Q 2894 3584 3203 3211 
Q 3513 2838 3513 2113 
z
" transform="scale(0.015625)"/>
      </defs>
      <use xlink:href="#DejaVuSans-47"/>
      <use xlink:href="#DejaVuSans-48" x="77.490234"/>
      <use xlink:href="#DejaVuSans-47" x="152.685547"/>
      <use xlink:href="#DejaVuSans-20" x="230.175781"/>
      <use xlink:href="#DejaVuSans-45" x="261.962891"/>
      <use xlink:href="#DejaVuSans-6d" x="325.146484"/>
      <use xlink:href="#DejaVuSans-69" x="422.558594"/>
      <use xlink:href="#DejaVuSans-73" x="450.341797"/>
      <use xlink:href="#DejaVuSans-73" x="502.441406"/>
      <use xlink:href="#DejaVuSans-69" x="554.541016"/>
      <use xlink:href="#DejaVuSans-6f" x="582.324219"/>
      <use xlink:href="#DejaVuSans-6e" x="643.505859"/>
      <use xlink:href="#DejaVuSans-73" x="706.884766"/>
     </g>
    </g>
   </g>
   <g id="matplotlib.axis_2">
    <g id="ytick_1">
     <g id="line2d_6">
      <defs>
       <path id="m1c20f31df6" d="M 0 0 
L -3.5 0 
" style="stroke: #000000; stroke-width: 0.8"/>
      </defs>
      <g>
       <use xlink:href="#m1c20f31df6" x="57.6" y="265.848463" style="stroke: #000000; stroke-width: 0.8"/>
      </g>
     </g>
     <g id="text_7">
      <!-- 5 -->
      <g transform="translate(44.2375 269.647682) scale(0.1 -0.1)">
       <use xlink:href="#DejaVuSans-35"/>
      </g>
     </g>
    </g>
    <g id="ytick_2">
     <g id="line2d_7">
      <g>
       <use xlink:href="#m1c20f31df6" x="57.6" y="212.495631" style="stroke: #000000; stroke-width: 0.8"/>
      </g>
     </g>
     <g id="text_8">
      <!-- 10 -->
      <g transform="translate(37.875 216.29485) scale(0.1 -0.1)">
       <use xlink:href="#DejaVuSans-31"/>
       <use xlink:href="#DejaVuSans-30" x="63.623047"/>
      </g>
     </g>
    </g>
    <g id="ytick_3">
     <g id="line2d_8">
      <g>
       <use xlink:href="#m1c20f31df6" x="57.6" y="159.142799" style="stroke: #000000; stroke-width: 0.8"/>
      </g>
     </g>
     <g id="text_9">
      <!-- 15 -->
      <g transform="translate(37.875 162.942017) scale(0.1 -0.1)">
       <use xlink:href="#DejaVuSans-31"/>
       <use xlink:href="#DejaVuSans-35" x="63.623047"/>
      </g>
     </g>
    </g>
    <g id="ytick_4">
     <g id="line2d_9">
      <g>
       <use xlink:href="#m1c20f31df6" x="57.6" y="105.789966" style="stroke: #000000; stroke-width: 0.8"/>
      </g>
     </g>
     <g id="text_10">
      <!-- 20 -->
      <g transform="translate(37.875 109.589185) scale(0.1 -0.1)">
       <use xlink:href="#DejaVuSans-32"/>
       <use xlink:href="#DejaVuSans-30" x="63.623047"/>
      </g>
     </g>
    </g>
    <g id="ytick_5">
     <g id="line2d_10">
      <g>
       <use xlink:href="#m1c20f31df6" x="57.6" y="52.437134" style="stroke: #000000; stroke-width: 0.8"/>
      </g>
     </g>
     <g id="text_11">
      <!-- 25 -->
      <g transform="translate(37.875 56.236353) scale(0.1 -0.1)">
       <use xlink:href="#DejaVuSans-32"/>
       <use xlink:href="#DejaVuSans-35" x="63.623047"/>
      </g>
     </g>
    </g>
    <g id="text_12">
     <!-- Beef Consumption -->
     <g transform="translate(31.795312 220.575656) rotate(-90) scale(0.1 -0.1)">
      <defs>
       <path id="DejaVuSans-42" d="M 1259 2228 
L 1259 519 
L 2272 519 
Q 2781 519 3026 730 
Q 3272 941 3272 1375 
Q 3272 1813 3026 2020 
Q 2781 2228 2272 2228 
L 1259 2228 
z
M 1259 4147 
L 1259 2741 
L 2194 2741 
Q 2656 2741 2882 2914 
Q 3109 3088 3109 3444 
Q 3109 3797 2882 3972 
Q 2656 4147 2194 4147 
L 1259 4147 
z
M 628 4666 
L 2241 4666 
Q 2963 4666 3353 4366 
Q 3744 4066 3744 3513 
Q 3744 3084 3544 2831 
Q 3344 2578 2956 2516 
Q 3422 2416 3680 2098 
Q 3938 1781 3938 1306 
Q 3938 681 3513 340 
Q 3088 0 2303 0 
L 628 0 
L 628 4666 
z
" transform="scale(0.015625)"/>
       <path id="DejaVuSans-65" d="M 3597 1894 
L 3597 1613 
L 953 1613 
Q 991 1019 1311 708 
Q 1631 397 2203 397 
Q 2534 397 2845 478 
Q 3156 559 3463 722 
L 3463 178 
Q 3153 47 2828 -22 
Q 2503 -91 2169 -91 
Q 1331 -91 842 396 
Q 353 884 353 1716 
Q 353 2575 817 3079 
Q 1281 3584 2069 3584 
Q 2775 3584 3186 3129 
Q 3597 2675 3597 1894 
z
M 3022 2063 
Q 3016 2534 2758 2815 
Q 2500 3097 2075 3097 
Q 1594 3097 1305 2825 
Q 1016 2553 972 2059 
L 3022 2063 
z
" transform="scale(0.015625)"/>
       <path id="DejaVuSans-66" d="M 2375 4863 
L 2375 4384 
L 1825 4384 
Q 1516 4384 1395 4259 
Q 1275 4134 1275 3809 
L 1275 3500 
L 2222 3500 
L 2222 3053 
L 1275 3053 
L 1275 0 
L 697 0 
L 697 3053 
L 147 3053 
L 147 3500 
L 697 3500 
L 697 3744 
Q 697 4328 969 4595 
Q 1241 4863 1831 4863 
L 2375 4863 
z
" transform="scale(0.015625)"/>
       <path id="DejaVuSans-43" d="M 4122 4306 
L 4122 3641 
Q 3803 3938 3442 4084 
Q 3081 4231 2675 4231 
Q 1875 4231 1450 3742 
Q 1025 3253 1025 2328 
Q 1025 1406 1450 917 
Q 1875 428 2675 428 
Q 3081 428 3442 575 
Q 3803 722 4122 1019 
L 4122 359 
Q 3791 134 3420 21 
Q 3050 -91 2638 -91 
Q 1578 -91 968 557 
Q 359 1206 359 2328 
Q 359 3453 968 4101 
Q 1578 4750 2638 4750 
Q 3056 4750 3426 4639 
Q 3797 4528 4122 4306 
z
" transform="scale(0.015625)"/>
       <path id="DejaVuSans-75" d="M 544 1381 
L 544 3500 
L 1119 3500 
L 1119 1403 
Q 1119 906 1312 657 
Q 1506 409 1894 409 
Q 2359 409 2629 706 
Q 2900 1003 2900 1516 
L 2900 3500 
L 3475 3500 
L 3475 0 
L 2900 0 
L 2900 538 
Q 2691 219 2414 64 
Q 2138 -91 1772 -91 
Q 1169 -91 856 284 
Q 544 659 544 1381 
z
M 1991 3584 
L 1991 3584 
z
" transform="scale(0.015625)"/>
       <path id="DejaVuSans-70" d="M 1159 525 
L 1159 -1331 
L 581 -1331 
L 581 3500 
L 1159 3500 
L 1159 2969 
Q 1341 3281 1617 3432 
Q 1894 3584 2278 3584 
Q 2916 3584 3314 3078 
Q 3713 2572 3713 1747 
Q 3713 922 3314 415 
Q 2916 -91 2278 -91 
Q 1894 -91 1617 61 
Q 1341 213 1159 525 
z
M 3116 1747 
Q 3116 2381 2855 2742 
Q 2594 3103 2138 3103 
Q 1681 3103 1420 2742 
Q 1159 2381 1159 1747 
Q 1159 1113 1420 752 
Q 1681 391 2138 391 
Q 2594 391 2855 752 
Q 3116 1113 3116 1747 
z
" transform="scale(0.015625)"/>
       <path id="DejaVuSans-74" d="M 1172 4494 
L 1172 3500 
L 2356 3500 
L 2356 3053 
L 1172 3053 
L 1172 1153 
Q 1172 725 1289 603 
Q 1406 481 1766 481 
L 2356 481 
L 2356 0 
L 1766 0 
Q 1100 0 847 248 
Q 594 497 594 1153 
L 594 3053 
L 172 3053 
L 172 3500 
L 594 3500 
L 594 4494 
L 1172 4494 
z
" transform="scale(0.015625)"/>
      </defs>
      <use xlink:href="#DejaVuSans-42"/>
      <use xlink:href="#DejaVuSans-65" x="68.603516"/>
      <use xlink:href="#DejaVuSans-65" x="130.126953"/>
      <use xlink:href="#DejaVuSans-66" x="191.650391"/>
      <use xlink:href="#DejaVuSans-20" x="226.855469"/>
      <use xlink:href="#DejaVuSans-43" x="258.642578"/>
      <use xlink:href="#DejaVuSans-6f" x="328.466797"/>
      <use xlink:href="#DejaVuSans-6e" x="389.648438"/>
      <use xlink:href="#DejaVuSans-73" x="453.027344"/>
      <use xlink:href="#DejaVuSans-75" x="505.126953"/>
      <use xlink:href="#DejaVuSans-6d" x="568.505859"/>
      <use xlink:href="#DejaVuSans-70" x="665.917969"/>
      <use xlink:href="#DejaVuSans-74" x="729.394531"/>
      <use xlink:href="#DejaVuSans-69" x="768.603516"/>
      <use xlink:href="#DejaVuSans-6f" x="796.386719"/>
      <use xlink:href="#DejaVuSans-6e" x="857.568359"/>
     </g>
    </g>
   </g>
   <g id="PathCollection_8"/>
   <g id="PathCollection_9">
    <path d="M 127.37304 41.472 
L 127.37304 44.16 
L 127.37304 46.848 
L 127.37304 49.536 
L 127.37304 52.224 
L 127.37304 54.912 
L 127.37304 57.6 
L 127.37304 60.288 
L 127.37304 62.976 
L 127.37304 65.664 
L 127.37304 68.352 
L 127.37304 71.04 
L 127.37304 73.728 
L 127.37304 74.589 
" clip-path="url(#p902737197c)" style="fill: none; stroke: #000000; stroke-width: 0.5"/>
    <path d="M 127.37304 110.499 
L 127.37304 111.36 
L 127.37304 114.048 
L 127.37304 116.736 
L 127.37304 119.424 
L 127.37304 122.112 
L 127.37304 124.8 
L 127.37304 127.488 
L 127.37304 130.176 
L 127.37304 132.864 
L 127.37304 135.552 
L 127.37304 138.24 
L 127.37304 140.928 
L 127.37304 143.616 
L 127.37304 146.304 
L 127.37304 148.992 
L 127.37304 151.68 
L 127.37304 154.368 
L 127.37304 157.056 
L 127.37304 159.744 
L 127.37304 162.432 
L 127.37304 165.12 
L 127.37304 167.808 
L 127.37304 170.496 
L 128.072238 173.184 
L 128.557893 175.872 
L 128.557893 178.56 
L 128.557893 181.248 
L 128.557893 183.936 
L 128.557893 186.624 
L 128.557893 189.312 
L 128.557893 192 
L 128.557893 194.688 
L 128.557893 197.376 
L 128.557893 200.064 
L 128.557893 202.752 
L 128.557893 205.44 
L 128.557893 208.128 
L 128.557893 210.816 
L 128.557893 213.504 
L 128.557893 216.192 
L 128.557893 218.88 
L 128.557893 221.568 
L 128.557893 224.256 
L 128.557893 226.944 
L 128.557893 229.632 
L 128.557893 232.32 
L 128.557893 235.008 
L 128.557893 237.696 
L 128.557893 240.384 
L 128.557893 243.072 
L 128.557893 245.76 
L 128.557893 248.448 
L 128.557893 251.136 
L 128.557893 253.824 
L 128.557893 256.512 
L 128.557893 259.2 
L 128.557893 261.888 
L 128.557893 264.576 
L 128.557893 267.264 
L 128.557893 269.952 
L 128.557893 272.64 
L 128.557893 275.328 
L 128.557893 278.016 
L 128.557893 280.704 
L 128.557893 283.392 
L 128.557893 286.08 
L 128.557893 288.768 
L 128.557893 291.456 
L 128.557893 294.144 
L 128.557893 296.832 
L 128.557893 299.52 
L 128.557893 302.208 
L 128.557893 304.896 
L 128.557893 307.584 
" clip-path="url(#p902737197c)" style="fill: none; stroke: #000000; stroke-width: 0.5"/>
   </g>
   <g id="PathCollection_10">
    <path d="M 136.33163 41.472 
L 136.33163 44.16 
L 136.33163 46.848 
L 136.33163 49.536 
L 136.33163 52.224 
L 136.33163 54.912 
L 136.33163 57.6 
L 136.33163 60.288 
L 136.33163 62.976 
L 136.33163 65.664 
L 136.33163 68.352 
L 136.33163 71.04 
L 136.33163 73.728 
L 136.33163 76.416 
L 136.33163 79.104 
L 136.33163 81.792 
L 136.33163 84.48 
L 136.33163 87.168 
L 136.33163 89.856 
L 136.33163 92.544 
L 136.33163 95.232 
L 136.33163 97.92 
L 136.33163 100.608 
L 136.33163 103.296 
L 136.33163 105.984 
L 136.33163 108.672 
L 136.33163 111.36 
L 136.33163 114.048 
L 136.33163 116.736 
L 136.33163 119.424 
L 136.33163 122.112 
L 136.33163 124.8 
L 136.33163 127.488 
L 136.33163 130.176 
L 136.33163 132.864 
L 136.33163 135.552 
L 136.33163 138.24 
L 136.33163 140.928 
L 136.33163 143.616 
L 136.33163 146.304 
L 136.33163 148.992 
L 136.33163 151.68 
L 136.33163 154.368 
L 136.33163 157.056 
L 136.33163 159.744 
L 136.33163 162.432 
L 136.33163 165.12 
L 136.33163 167.808 
L 136.33163 170.496 
L 136.96 171.450064 
L 140.567273 171.450064 
L 141.218687 173.184 
L 141.92011 175.872 
L 141.92011 178.56 
L 141.92011 181.248 
L 141.92011 183.936 
L 141.92011 186.624 
L 141.92011 189.312 
L 141.92011 192 
L 141.92011 194.688 
L 141.92011 197.376 
L 141.92011 200.064 
L 141.92011 202.752 
L 141.92011 205.44 
L 141.92011 208.128 
L 141.92011 210.816 
L 141.92011 213.504 
L 141.92011 216.192 
L 141.92011 218.88 
L 141.92011 221.568 
L 141.92011 224.256 
L 141.92011 226.944 
L 141.92011 229.632 
L 141.92011 232.32 
L 141.92011 235.008 
L 141.92011 237.696 
L 141.92011 240.384 
L 141.92011 243.072 
L 141.92011 245.76 
L 141.92011 248.448 
L 141.92011 251.136 
L 141.92011 253.824 
L 141.92011 256.512 
L 141.92011 259.2 
L 141.92011 261.888 
L 141.92011 264.576 
L 141.92011 267.264 
L 141.92011 269.952 
L 141.92011 272.64 
L 141.92011 275.328 
L 141.92011 278.016 
L 141.92011 278.877 
" clip-path="url(#p902737197c)" style="fill: none; stroke: #000000; stroke-width: 0.5"/>
   </g>
   <g id="PathCollection_11">
    <path d="M 148.213119 41.472 
L 148.213119 44.16 
L 148.213119 46.848 
L 148.213119 49.536 
L 148.213119 52.224 
L 148.213119 54.912 
L 148.213119 57.6 
L 148.213119 60.288 
L 148.213119 62.976 
L 148.213119 65.664 
L 148.213119 68.352 
L 148.213119 71.04 
L 148.213119 73.728 
L 148.213119 76.416 
L 148.213119 79.104 
L 148.213119 81.792 
L 148.213119 84.48 
L 148.213119 87.168 
L 148.213119 89.856 
L 148.213119 92.544 
L 148.213119 95.232 
L 148.213119 97.92 
L 148.213119 100.608 
L 148.213119 103.296 
L 148.213119 105.984 
L 148.213119 108.672 
L 148.213119 111.36 
L 148.213119 114.048 
L 148.213119 116.736 
L 148.213119 119.424 
L 148.213119 122.112 
L 148.213119 124.8 
L 148.213119 127.488 
L 148.213119 130.176 
L 148.213119 132.864 
L 148.213119 135.552 
L 148.213119 138.24 
L 148.213119 140.928 
L 148.213119 143.616 
L 148.213119 146.304 
L 148.213119 148.992 
L 148.213119 151.68 
L 148.213119 154.368 
L 148.213119 157.056 
L 148.213119 159.744 
L 148.213119 162.432 
L 148.213119 165.12 
L 148.213119 167.808 
L 148.213119 170.496 
L 148.588611 173.184 
L 148.849422 175.872 
L 148.849422 178.56 
L 148.849422 179.421 
" clip-path="url(#p902737197c)" style="fill: none; stroke: #000000; stroke-width: 0.5"/>
    <path d="M 148.849422 215.331 
L 148.849422 216.192 
L 148.849422 218.88 
L 148.849422 221.568 
L 148.849422 224.256 
L 148.849422 226.944 
L 148.849422 229.632 
L 148.849422 232.32 
L 148.849422 235.008 
L 148.849422 237.696 
L 148.849422 240.384 
L 148.849422 243.072 
L 148.849422 245.76 
L 148.849422 248.448 
L 148.849422 251.136 
L 148.849422 253.824 
L 148.849422 256.512 
L 148.849422 259.2 
L 148.849422 261.888 
L 148.849422 264.576 
L 148.849422 267.264 
L 148.849422 269.952 
L 148.849422 272.64 
L 148.849422 275.328 
L 148.849422 278.016 
L 148.849422 280.704 
L 148.849422 283.392 
L 148.849422 286.08 
L 148.849422 288.768 
L 148.849422 291.456 
L 148.849422 294.144 
L 148.849422 296.832 
L 148.849422 299.52 
L 148.849422 302.208 
L 148.849422 304.896 
L 148.849422 307.584 
" clip-path="url(#p902737197c)" style="fill: none; stroke: #000000; stroke-width: 0.5"/>
   </g>
   <g id="PathCollection_12">
    <path d="M 150.118994 41.472 
L 150.118994 44.16 
L 150.118994 46.848 
L 150.118994 49.536 
L 150.118994 52.224 
L 150.118994 54.912 
L 150.118994 57.6 
L 150.118994 60.288 
L 150.118994 62.976 
L 150.118994 65.664 
L 150.118994 68.352 
L 150.118994 71.04 
L 150.118994 73.728 
L 150.118994 74.589 
" clip-path="url(#p902737197c)" style="fill: none; stroke: #000000; stroke-width: 0.5"/>
    <path d="M 150.118994 110.499 
L 150.118994 111.36 
L 150.118994 114.048 
L 150.118994 116.736 
L 150.118994 119.424 
L 150.118994 122.112 
L 150.118994 124.8 
L 150.118994 127.488 
L 150.118994 130.176 
L 150.118994 132.864 
L 150.118994 135.552 
L 150.118994 138.24 
L 150.118994 140.928 
L 150.118994 143.616 
L 150.118994 146.304 
L 150.118994 148.992 
L 150.118994 151.68 
L 150.118994 154.368 
L 150.118994 157.056 
L 150.118994 159.744 
L 150.118994 162.432 
L 150.118994 165.12 
L 150.118994 167.808 
L 150.118994 170.496 
L 150.494486 173.184 
L 150.755297 175.872 
L 150.755297 178.56 
L 150.755297 181.248 
L 150.755297 183.936 
L 150.755297 186.624 
L 150.755297 189.312 
L 150.755297 192 
L 150.755297 194.688 
L 150.755297 197.376 
L 150.755297 200.064 
L 150.755297 202.752 
L 150.755297 205.44 
L 150.755297 208.128 
L 150.755297 210.816 
L 150.755297 213.504 
L 150.755297 216.192 
L 150.755297 218.88 
L 150.755297 221.568 
L 150.755297 224.256 
L 150.755297 226.944 
L 150.755297 229.632 
L 150.755297 232.32 
L 150.755297 235.008 
L 150.755297 237.696 
L 150.755297 240.384 
L 150.755297 243.072 
L 150.755297 245.76 
L 150.755297 248.448 
L 150.755297 251.136 
L 150.755297 253.824 
L 150.755297 256.512 
L 150.755297 259.2 
L 150.755297 261.888 
L 150.755297 264.576 
L 150.755297 267.264 
L 150.755297 269.952 
L 150.755297 272.64 
L 150.755297 275.328 
L 150.755297 278.016 
L 150.755297 280.704 
L 150.755297 283.392 
L 150.755297 286.08 
L 150.755297 288.768 
L 150.755297 291.456 
L 150.755297 294.144 
L 150.755297 296.832 
L 150.755297 299.52 
L 150.755297 302.208 
L 150.755297 304.896 
L 150.755297 307.584 
" clip-path="url(#p902737197c)" style="fill: none; stroke: #000000; stroke-width: 0.5"/>
   </g>
   <g id="PathCollection_13">
    <path d="M 160.710563 41.472 
L 160.710563 44.16 
L 160.710563 46.848 
L 160.710563 49.536 
L 160.710563 52.224 
L 160.710563 54.912 
L 160.710563 57.6 
L 160.710563 60.288 
L 160.710563 62.976 
L 160.710563 65.664 
L 160.710563 68.352 
L 160.710563 71.04 
L 160.710563 73.728 
L 160.710563 74.589 
" clip-path="url(#p902737197c)" style="fill: none; stroke: #000000; stroke-width: 0.5"/>
    <path d="M 160.710563 110.499 
L 160.710563 111.36 
L 160.710563 114.048 
L 160.710563 116.736 
L 160.710563 119.424 
L 160.710563 122.112 
L 160.710563 124.8 
L 160.710563 127.488 
L 160.710563 130.176 
L 160.710563 132.864 
L 160.710563 135.552 
L 160.710563 138.24 
L 160.710563 140.928 
L 160.710563 143.616 
L 160.710563 146.304 
L 160.710563 148.992 
L 160.710563 151.68 
L 160.710563 154.368 
L 160.710563 157.056 
L 160.710563 159.744 
L 160.710563 162.432 
L 160.710563 165.12 
L 160.710563 167.808 
L 160.710563 170.496 
L 161.954916 173.184 
L 162.210909 173.980136 
L 163.733081 175.872 
L 163.733081 178.56 
L 163.733081 181.248 
L 163.733081 183.936 
L 163.733081 186.624 
L 163.733081 189.312 
L 163.733081 192 
L 163.733081 194.688 
L 163.733081 197.376 
L 163.733081 200.064 
L 163.733081 202.752 
L 163.733081 205.44 
L 163.733081 208.128 
L 163.733081 210.816 
L 163.733081 213.504 
L 163.733081 216.192 
L 163.733081 218.88 
L 163.733081 221.568 
L 163.733081 224.256 
L 163.733081 226.944 
L 163.733081 229.632 
L 163.733081 232.32 
L 163.733081 235.008 
L 163.733081 237.696 
L 163.733081 240.384 
L 163.733081 243.072 
L 163.733081 245.76 
L 163.733081 248.448 
L 163.733081 251.136 
L 163.733081 253.824 
L 163.733081 256.512 
L 163.733081 259.2 
L 163.733081 261.888 
L 163.733081 264.576 
L 163.733081 267.264 
L 163.733081 269.952 
L 163.733081 272.64 
L 163.733081 275.328 
L 163.733081 278.016 
L 163.733081 280.704 
L 163.733081 283.392 
L 163.733081 286.08 
L 163.733081 288.768 
L 163.733081 291.456 
L 163.733081 294.144 
L 163.733081 296.832 
L 163.733081 299.52 
L 163.733081 302.208 
L 163.733081 304.896 
L 163.733081 307.584 
" clip-path="url(#p902737197c)" style="fill: none; stroke: #000000; stroke-width: 0.5"/>
   </g>
   <g id="PathCollection_14">
    <path d="M 225.121798 307.584 
L 225.121798 304.896 
L 225.121798 302.208 
L 225.121798 299.52 
L 225.121798 296.832 
L 225.121798 294.144 
L 225.121798 291.456 
L 225.121798 288.768 
L 225.121798 286.08 
L 225.121798 283.392 
L 225.121798 280.704 
L 225.121798 278.016 
L 225.121798 275.328 
L 225.121798 274.467 
" clip-path="url(#p902737197c)" style="fill: none; stroke: #000000; stroke-width: 0.5"/>
    <path d="M 225.121798 238.557 
L 225.121798 237.696 
L 225.121798 235.008 
L 225.121798 232.32 
L 225.121798 229.632 
L 225.121798 226.944 
L 225.121798 224.256 
L 225.121798 221.568 
L 225.121798 218.88 
L 225.121798 216.192 
L 225.121798 213.504 
L 225.121798 210.816 
L 225.121798 208.128 
L 225.121798 205.44 
L 225.121798 202.752 
L 225.121798 200.064 
L 225.121798 197.376 
L 225.121798 194.688 
L 225.121798 192 
L 225.121798 189.312 
L 225.121798 186.624 
L 225.121798 183.936 
L 225.121798 181.248 
L 225.121798 178.56 
L 225.121798 175.872 
L 225.746044 173.184 
L 226.644775 170.496 
L 226.644775 167.808 
L 226.644775 165.12 
L 226.644775 162.432 
L 226.644775 159.744 
L 226.644775 157.056 
L 226.644775 154.368 
L 226.644775 151.68 
L 226.644775 148.992 
L 226.644775 146.304 
L 226.644775 143.616 
L 226.644775 140.928 
L 226.644775 138.24 
L 226.644775 135.552 
L 226.644775 132.864 
L 226.644775 130.176 
L 226.644775 127.488 
L 226.644775 124.8 
L 226.644775 122.112 
L 226.644775 119.424 
L 226.644775 116.736 
L 226.644775 114.048 
L 226.644775 111.36 
L 226.644775 108.672 
L 226.644775 105.984 
L 226.644775 103.296 
L 226.644775 100.608 
L 226.644775 97.92 
L 226.644775 95.232 
L 226.644775 92.544 
L 226.644775 89.856 
L 226.644775 87.168 
L 226.644775 84.48 
L 226.644775 81.792 
L 226.644775 79.104 
L 226.644775 76.416 
L 226.644775 73.728 
L 226.644775 71.04 
L 226.644775 68.352 
L 226.644775 65.664 
L 226.644775 62.976 
L 226.644775 60.288 
L 226.644775 57.6 
L 226.644775 54.912 
L 226.644775 52.224 
L 226.644775 49.536 
L 226.644775 46.848 
L 226.644775 44.16 
L 226.644775 41.472 
" clip-path="url(#p902737197c)" style="fill: none; stroke: #000000; stroke-width: 0.5"/>
    <path d="M 175.294574 41.472 
L 175.294574 44.16 
L 175.294574 46.848 
L 175.294574 49.536 
L 175.294574 52.224 
L 175.294574 54.912 
L 175.294574 57.6 
L 175.294574 60.288 
L 175.294574 62.976 
L 175.294574 65.664 
L 175.294574 68.352 
L 175.294574 71.04 
L 175.294574 73.728 
L 175.294574 76.416 
L 175.294574 79.104 
L 175.294574 81.792 
L 175.294574 84.48 
L 175.294574 87.168 
L 175.294574 89.856 
L 175.294574 92.544 
L 175.294574 95.232 
L 175.294574 97.92 
L 175.294574 100.608 
L 175.294574 103.296 
L 175.294574 105.984 
L 175.294574 108.672 
L 175.294574 111.36 
L 175.294574 114.048 
L 175.294574 116.736 
L 175.294574 119.424 
L 175.294574 122.112 
L 175.294574 124.8 
L 175.294574 127.488 
L 175.294574 130.176 
L 175.294574 132.864 
L 175.294574 135.552 
L 175.294574 138.24 
L 175.294574 140.928 
L 175.294574 143.616 
L 175.294574 146.304 
L 175.294574 148.992 
L 175.294574 151.68 
L 175.294574 154.368 
L 175.294574 157.056 
L 175.294574 159.744 
L 175.294574 162.432 
L 175.294574 165.12 
L 175.294574 167.808 
L 175.294574 170.496 
L 176.128761 173.184 
L 176.64 175.555718 
L 176.921329 175.872 
L 176.921329 178.56 
L 176.921329 181.248 
L 176.921329 183.936 
L 176.921329 186.624 
L 176.921329 189.312 
L 176.921329 192 
L 176.921329 194.688 
L 176.921329 197.376 
L 176.921329 200.064 
L 176.921329 202.752 
L 176.921329 205.44 
L 176.921329 208.128 
L 176.921329 210.816 
L 176.921329 213.504 
L 176.921329 216.192 
L 176.921329 218.88 
L 176.921329 221.568 
L 176.921329 224.256 
L 176.921329 226.944 
L 176.921329 229.632 
L 176.921329 232.32 
L 176.921329 235.008 
L 176.921329 237.696 
L 176.921329 240.384 
L 176.921329 243.072 
L 176.921329 245.76 
L 176.921329 248.448 
L 176.921329 251.136 
L 176.921329 253.824 
L 176.921329 256.512 
L 176.921329 259.2 
L 176.921329 261.888 
L 176.921329 264.576 
L 176.921329 267.264 
L 176.921329 269.952 
L 176.921329 272.64 
L 176.921329 275.328 
L 176.921329 278.016 
L 176.921329 280.704 
L 176.921329 281.565 
" clip-path="url(#p902737197c)" style="fill: none; stroke: #000000; stroke-width: 0.5"/>
   </g>
   <g id="PathCollection_15"/>
   <g id="LineCollection_1">
    <path d="M 67.288029 307.584 
L 67.288029 294.2784 
" clip-path="url(#p902737197c)" style="fill: none; stroke: #000000; stroke-width: 1.5"/>
    <path d="M 78.078571 307.584 
L 78.078571 294.2784 
" clip-path="url(#p902737197c)" style="fill: none; stroke: #000000; stroke-width: 1.5"/>
    <path d="M 93.889059 307.584 
L 93.889059 294.2784 
" clip-path="url(#p902737197c)" style="fill: none; stroke: #000000; stroke-width: 1.5"/>
    <path d="M 108.995817 307.584 
L 108.995817 294.2784 
" clip-path="url(#p902737197c)" style="fill: none; stroke: #000000; stroke-width: 1.5"/>
    <path d="M 131.732191 307.584 
L 131.732191 294.2784 
" clip-path="url(#p902737197c)" style="fill: none; stroke: #000000; stroke-width: 1.5"/>
    <path d="M 156.761555 307.584 
L 156.761555 294.2784 
" clip-path="url(#p902737197c)" style="fill: none; stroke: #000000; stroke-width: 1.5"/>
    <path d="M 184.822827 307.584 
L 184.822827 294.2784 
" clip-path="url(#p902737197c)" style="fill: none; stroke: #000000; stroke-width: 1.5"/>
    <path d="M 230.928933 307.584 
L 230.928933 294.2784 
" clip-path="url(#p902737197c)" style="fill: none; stroke: #000000; stroke-width: 1.5"/>
    <path d="M 331.679748 307.584 
L 331.679748 294.2784 
" clip-path="url(#p902737197c)" style="fill: none; stroke: #000000; stroke-width: 1.5"/>
   </g>
   <g id="LineCollection_2">
    <path clip-path="url(#p902737197c)" style="fill: none; stroke: #000000; stroke-width: 1.5"/>
    <path clip-path="url(#p902737197c)" style="fill: none; stroke: #000000; stroke-width: 1.5"/>
    <path clip-path="url(#p902737197c)" style="fill: none; stroke: #000000; stroke-width: 1.5"/>
    <path clip-path="url(#p902737197c)" style="fill: none; stroke: #000000; stroke-width: 1.5"/>
    <path clip-path="url(#p902737197c)" style="fill: none; stroke: #000000; stroke-width: 1.5"/>
    <path clip-path="url(#p902737197c)" style="fill: none; stroke: #000000; stroke-width: 1.5"/>
    <path clip-path="url(#p902737197c)" style="fill: none; stroke: #000000; stroke-width: 1.5"/>
    <path clip-path="url(#p902737197c)" style="fill: none; stroke: #000000; stroke-width: 1.5"/>
    <path clip-path="url(#p902737197c)" style="fill: none; stroke: #000000; stroke-width: 1.5"/>
   </g>
   <g id="patch_3">
    <path d="M 57.6 307.584 
L 57.6 41.472 
" style="fill: none; stroke: #000000; stroke-width: 0.8; stroke-linejoin: miter; stroke-linecap: square"/>
   </g>
   <g id="patch_4">
    <path d="M 414.72 307.584 
L 414.72 41.472 
" style="fill: none; stroke: #000000; stroke-width: 0.8; stroke-linejoin: miter; stroke-linecap: square"/>
   </g>
   <g id="patch_5">
    <path d="M 57.6 307.584 
L 414.72 307.584 
" style="fill: none; stroke: #000000; stroke-width: 0.8; stroke-linejoin: miter; stroke-linecap: square"/>
   </g>
   <g id="patch_6">
    <path d="M 57.6 41.472 
L 414.72 41.472 
" style="fill: none; stroke: #000000; stroke-width: 0.8; stroke-linejoin: miter; stroke-linecap: square"/>
   </g>
   <g id="text_13">
    <!-- 2D-partial dependency plot between GHG and Beef -->
    <g transform="translate(81.68625 35.472) scale(0.12 -0.12)">
     <defs>
      <path id="DejaVuSans-44" d="M 1259 4147 
L 1259 519 
L 2022 519 
Q 2988 519 3436 956 
Q 3884 1394 3884 2338 
Q 3884 3275 3436 3711 
Q 2988 4147 2022 4147 
L 1259 4147 
z
M 628 4666 
L 1925 4666 
Q 3281 4666 3915 4102 
Q 4550 3538 4550 2338 
Q 4550 1131 3912 565 
Q 3275 0 1925 0 
L 628 0 
L 628 4666 
z
" transform="scale(0.015625)"/>
      <path id="DejaVuSans-2d" d="M 313 2009 
L 1997 2009 
L 1997 1497 
L 313 1497 
L 313 2009 
z
" transform="scale(0.015625)"/>
      <path id="DejaVuSans-61" d="M 2194 1759 
Q 1497 1759 1228 1600 
Q 959 1441 959 1056 
Q 959 750 1161 570 
Q 1363 391 1709 391 
Q 2188 391 2477 730 
Q 2766 1069 2766 1631 
L 2766 1759 
L 2194 1759 
z
M 3341 1997 
L 3341 0 
L 2766 0 
L 2766 531 
Q 2569 213 2275 61 
Q 1981 -91 1556 -91 
Q 1019 -91 701 211 
Q 384 513 384 1019 
Q 384 1609 779 1909 
Q 1175 2209 1959 2209 
L 2766 2209 
L 2766 2266 
Q 2766 2663 2505 2880 
Q 2244 3097 1772 3097 
Q 1472 3097 1187 3025 
Q 903 2953 641 2809 
L 641 3341 
Q 956 3463 1253 3523 
Q 1550 3584 1831 3584 
Q 2591 3584 2966 3190 
Q 3341 2797 3341 1997 
z
" transform="scale(0.015625)"/>
      <path id="DejaVuSans-72" d="M 2631 2963 
Q 2534 3019 2420 3045 
Q 2306 3072 2169 3072 
Q 1681 3072 1420 2755 
Q 1159 2438 1159 1844 
L 1159 0 
L 581 0 
L 581 3500 
L 1159 3500 
L 1159 2956 
Q 1341 3275 1631 3429 
Q 1922 3584 2338 3584 
Q 2397 3584 2469 3576 
Q 2541 3569 2628 3553 
L 2631 2963 
z
" transform="scale(0.015625)"/>
      <path id="DejaVuSans-6c" d="M 603 4863 
L 1178 4863 
L 1178 0 
L 603 0 
L 603 4863 
z
" transform="scale(0.015625)"/>
      <path id="DejaVuSans-64" d="M 2906 2969 
L 2906 4863 
L 3481 4863 
L 3481 0 
L 2906 0 
L 2906 525 
Q 2725 213 2448 61 
Q 2172 -91 1784 -91 
Q 1150 -91 751 415 
Q 353 922 353 1747 
Q 353 2572 751 3078 
Q 1150 3584 1784 3584 
Q 2172 3584 2448 3432 
Q 2725 3281 2906 2969 
z
M 947 1747 
Q 947 1113 1208 752 
Q 1469 391 1925 391 
Q 2381 391 2643 752 
Q 2906 1113 2906 1747 
Q 2906 2381 2643 2742 
Q 2381 3103 1925 3103 
Q 1469 3103 1208 2742 
Q 947 2381 947 1747 
z
" transform="scale(0.015625)"/>
      <path id="DejaVuSans-63" d="M 3122 3366 
L 3122 2828 
Q 2878 2963 2633 3030 
Q 2388 3097 2138 3097 
Q 1578 3097 1268 2742 
Q 959 2388 959 1747 
Q 959 1106 1268 751 
Q 1578 397 2138 397 
Q 2388 397 2633 464 
Q 2878 531 3122 666 
L 3122 134 
Q 2881 22 2623 -34 
Q 2366 -91 2075 -91 
Q 1284 -91 818 406 
Q 353 903 353 1747 
Q 353 2603 823 3093 
Q 1294 3584 2113 3584 
Q 2378 3584 2631 3529 
Q 2884 3475 3122 3366 
z
" transform="scale(0.015625)"/>
      <path id="DejaVuSans-79" d="M 2059 -325 
Q 1816 -950 1584 -1140 
Q 1353 -1331 966 -1331 
L 506 -1331 
L 506 -850 
L 844 -850 
Q 1081 -850 1212 -737 
Q 1344 -625 1503 -206 
L 1606 56 
L 191 3500 
L 800 3500 
L 1894 763 
L 2988 3500 
L 3597 3500 
L 2059 -325 
z
" transform="scale(0.015625)"/>
      <path id="DejaVuSans-62" d="M 3116 1747 
Q 3116 2381 2855 2742 
Q 2594 3103 2138 3103 
Q 1681 3103 1420 2742 
Q 1159 2381 1159 1747 
Q 1159 1113 1420 752 
Q 1681 391 2138 391 
Q 2594 391 2855 752 
Q 3116 1113 3116 1747 
z
M 1159 2969 
Q 1341 3281 1617 3432 
Q 1894 3584 2278 3584 
Q 2916 3584 3314 3078 
Q 3713 2572 3713 1747 
Q 3713 922 3314 415 
Q 2916 -91 2278 -91 
Q 1894 -91 1617 61 
Q 1341 213 1159 525 
L 1159 0 
L 581 0 
L 581 4863 
L 1159 4863 
L 1159 2969 
z
" transform="scale(0.015625)"/>
      <path id="DejaVuSans-77" d="M 269 3500 
L 844 3500 
L 1563 769 
L 2278 3500 
L 2956 3500 
L 3675 769 
L 4391 3500 
L 4966 3500 
L 4050 0 
L 3372 0 
L 2619 2869 
L 1863 0 
L 1184 0 
L 269 3500 
z
" transform="scale(0.015625)"/>
     </defs>
     <use xlink:href="#DejaVuSans-32"/>
     <use xlink:href="#DejaVuSans-44" x="63.623047"/>
     <use xlink:href="#DejaVuSans-2d" x="140.625"/>
     <use xlink:href="#DejaVuSans-70" x="176.708984"/>
     <use xlink:href="#DejaVuSans-61" x="240.185547"/>
     <use xlink:href="#DejaVuSans-72" x="301.464844"/>
     <use xlink:href="#DejaVuSans-74" x="342.578125"/>
     <use xlink:href="#DejaVuSans-69" x="381.787109"/>
     <use xlink:href="#DejaVuSans-61" x="409.570312"/>
     <use xlink:href="#DejaVuSans-6c" x="470.849609"/>
     <use xlink:href="#DejaVuSans-20" x="498.632812"/>
     <use xlink:href="#DejaVuSans-64" x="530.419922"/>
     <use xlink:href="#DejaVuSans-65" x="593.896484"/>
     <use xlink:href="#DejaVuSans-70" x="655.419922"/>
     <use xlink:href="#DejaVuSans-65" x="718.896484"/>
     <use xlink:href="#DejaVuSans-6e" x="780.419922"/>
     <use xlink:href="#DejaVuSans-64" x="843.798828"/>
     <use xlink:href="#DejaVuSans-65" x="907.275391"/>
     <use xlink:href="#DejaVuSans-6e" x="968.798828"/>
     <use xlink:href="#DejaVuSans-63" x="1032.177734"/>
     <use xlink:href="#DejaVuSans-79" x="1087.158203"/>
     <use xlink:href="#DejaVuSans-20" x="1146.337891"/>
     <use xlink:href="#DejaVuSans-70" x="1178.125"/>
     <use xlink:href="#DejaVuSans-6c" x="1241.601562"/>
     <use xlink:href="#DejaVuSans-6f" x="1269.384766"/>
     <use xlink:href="#DejaVuSans-74" x="1330.566406"/>
     <use xlink:href="#DejaVuSans-20" x="1369.775391"/>
     <use xlink:href="#DejaVuSans-62" x="1401.5625"/>
     <use xlink:href="#DejaVuSans-65" x="1465.039062"/>
     <use xlink:href="#DejaVuSans-74" x="1526.5625"/>
     <use xlink:href="#DejaVuSans-77" x="1565.771484"/>
     <use xlink:href="#DejaVuSans-65" x="1647.558594"/>
     <use xlink:href="#DejaVuSans-65" x="1709.082031"/>
     <use xlink:href="#DejaVuSans-6e" x="1770.605469"/>
     <use xlink:href="#DejaVuSans-20" x="1833.984375"/>
     <use xlink:href="#DejaVuSans-47" x="1865.771484"/>
     <use xlink:href="#DejaVuSans-48" x="1943.261719"/>
     <use xlink:href="#DejaVuSans-47" x="2018.457031"/>
     <use xlink:href="#DejaVuSans-20" x="2095.947266"/>
     <use xlink:href="#DejaVuSans-61" x="2127.734375"/>
     <use xlink:href="#DejaVuSans-6e" x="2189.013672"/>
     <use xlink:href="#DejaVuSans-64" x="2252.392578"/>
     <use xlink:href="#DejaVuSans-20" x="2315.869141"/>
     <use xlink:href="#DejaVuSans-42" x="2347.65625"/>
     <use xlink:href="#DejaVuSans-65" x="2416.259766"/>
     <use xlink:href="#DejaVuSans-65" x="2477.783203"/>
     <use xlink:href="#DejaVuSans-66" x="2539.306641"/>
    </g>
   </g>
   <g id="text_14">
    <g clip-path="url(#p902737197c)">
     <!-- 12.54 -->
     <g transform="translate(124.613665 78.229937) rotate(-270) scale(0.1 -0.1)">
      <defs>
       <path id="DejaVuSans-2e" d="M 684 794 
L 1344 794 
L 1344 0 
L 684 0 
L 684 794 
z
" transform="scale(0.015625)"/>
       <path id="DejaVuSans-34" d="M 2419 4116 
L 825 1625 
L 2419 1625 
L 2419 4116 
z
M 2253 4666 
L 3047 4666 
L 3047 1625 
L 3713 1625 
L 3713 1100 
L 3047 1100 
L 3047 0 
L 2419 0 
L 2419 1100 
L 313 1100 
L 313 1709 
L 2253 4666 
z
" transform="scale(0.015625)"/>
      </defs>
      <use xlink:href="#DejaVuSans-31"/>
      <use xlink:href="#DejaVuSans-32" x="63.623047"/>
      <use xlink:href="#DejaVuSans-2e" x="127.246094"/>
      <use xlink:href="#DejaVuSans-35" x="159.033203"/>
      <use xlink:href="#DejaVuSans-34" x="222.65625"/>
     </g>
    </g>
   </g>
   <g id="text_15">
    <g clip-path="url(#p902737197c)">
     <!-- 12.69 -->
     <g transform="translate(139.160735 282.517937) rotate(-270) scale(0.1 -0.1)">
      <defs>
       <path id="DejaVuSans-36" d="M 2113 2584 
Q 1688 2584 1439 2293 
Q 1191 2003 1191 1497 
Q 1191 994 1439 701 
Q 1688 409 2113 409 
Q 2538 409 2786 701 
Q 3034 994 3034 1497 
Q 3034 2003 2786 2293 
Q 2538 2584 2113 2584 
z
M 3366 4563 
L 3366 3988 
Q 3128 4100 2886 4159 
Q 2644 4219 2406 4219 
Q 1781 4219 1451 3797 
Q 1122 3375 1075 2522 
Q 1259 2794 1537 2939 
Q 1816 3084 2150 3084 
Q 2853 3084 3261 2657 
Q 3669 2231 3669 1497 
Q 3669 778 3244 343 
Q 2819 -91 2113 -91 
Q 1303 -91 875 529 
Q 447 1150 447 2328 
Q 447 3434 972 4092 
Q 1497 4750 2381 4750 
Q 2619 4750 2861 4703 
Q 3103 4656 3366 4563 
z
" transform="scale(0.015625)"/>
       <path id="DejaVuSans-39" d="M 703 97 
L 703 672 
Q 941 559 1184 500 
Q 1428 441 1663 441 
Q 2288 441 2617 861 
Q 2947 1281 2994 2138 
Q 2813 1869 2534 1725 
Q 2256 1581 1919 1581 
Q 1219 1581 811 2004 
Q 403 2428 403 3163 
Q 403 3881 828 4315 
Q 1253 4750 1959 4750 
Q 2769 4750 3195 4129 
Q 3622 3509 3622 2328 
Q 3622 1225 3098 567 
Q 2575 -91 1691 -91 
Q 1453 -91 1209 -44 
Q 966 3 703 97 
z
M 1959 2075 
Q 2384 2075 2632 2365 
Q 2881 2656 2881 3163 
Q 2881 3666 2632 3958 
Q 2384 4250 1959 4250 
Q 1534 4250 1286 3958 
Q 1038 3666 1038 3163 
Q 1038 2656 1286 2365 
Q 1534 2075 1959 2075 
z
" transform="scale(0.015625)"/>
      </defs>
      <use xlink:href="#DejaVuSans-31"/>
      <use xlink:href="#DejaVuSans-32" x="63.623047"/>
      <use xlink:href="#DejaVuSans-2e" x="127.246094"/>
      <use xlink:href="#DejaVuSans-36" x="159.033203"/>
      <use xlink:href="#DejaVuSans-39" x="222.65625"/>
     </g>
    </g>
   </g>
   <g id="text_16">
    <g clip-path="url(#p902737197c)">
     <!-- 12.84 -->
     <g transform="translate(146.090047 183.061937) rotate(-270) scale(0.1 -0.1)">
      <defs>
       <path id="DejaVuSans-38" d="M 2034 2216 
Q 1584 2216 1326 1975 
Q 1069 1734 1069 1313 
Q 1069 891 1326 650 
Q 1584 409 2034 409 
Q 2484 409 2743 651 
Q 3003 894 3003 1313 
Q 3003 1734 2745 1975 
Q 2488 2216 2034 2216 
z
M 1403 2484 
Q 997 2584 770 2862 
Q 544 3141 544 3541 
Q 544 4100 942 4425 
Q 1341 4750 2034 4750 
Q 2731 4750 3128 4425 
Q 3525 4100 3525 3541 
Q 3525 3141 3298 2862 
Q 3072 2584 2669 2484 
Q 3125 2378 3379 2068 
Q 3634 1759 3634 1313 
Q 3634 634 3220 271 
Q 2806 -91 2034 -91 
Q 1263 -91 848 271 
Q 434 634 434 1313 
Q 434 1759 690 2068 
Q 947 2378 1403 2484 
z
M 1172 3481 
Q 1172 3119 1398 2916 
Q 1625 2713 2034 2713 
Q 2441 2713 2670 2916 
Q 2900 3119 2900 3481 
Q 2900 3844 2670 4047 
Q 2441 4250 2034 4250 
Q 1625 4250 1398 4047 
Q 1172 3844 1172 3481 
z
" transform="scale(0.015625)"/>
      </defs>
      <use xlink:href="#DejaVuSans-31"/>
      <use xlink:href="#DejaVuSans-32" x="63.623047"/>
      <use xlink:href="#DejaVuSans-2e" x="127.246094"/>
      <use xlink:href="#DejaVuSans-38" x="159.033203"/>
      <use xlink:href="#DejaVuSans-34" x="222.65625"/>
     </g>
    </g>
   </g>
   <g id="text_17">
    <g clip-path="url(#p902737197c)">
     <!-- 12.99 -->
     <g transform="translate(147.359619 78.229937) rotate(-270) scale(0.1 -0.1)">
      <use xlink:href="#DejaVuSans-31"/>
      <use xlink:href="#DejaVuSans-32" x="63.623047"/>
      <use xlink:href="#DejaVuSans-2e" x="127.246094"/>
      <use xlink:href="#DejaVuSans-39" x="159.033203"/>
      <use xlink:href="#DejaVuSans-39" x="222.65625"/>
     </g>
    </g>
   </g>
   <g id="text_18">
    <g clip-path="url(#p902737197c)">
     <!-- 13.14 -->
     <g transform="translate(157.951188 78.229937) rotate(-270) scale(0.1 -0.1)">
      <defs>
       <path id="DejaVuSans-33" d="M 2597 2516 
Q 3050 2419 3304 2112 
Q 3559 1806 3559 1356 
Q 3559 666 3084 287 
Q 2609 -91 1734 -91 
Q 1441 -91 1130 -33 
Q 819 25 488 141 
L 488 750 
Q 750 597 1062 519 
Q 1375 441 1716 441 
Q 2309 441 2620 675 
Q 2931 909 2931 1356 
Q 2931 1769 2642 2001 
Q 2353 2234 1838 2234 
L 1294 2234 
L 1294 2753 
L 1863 2753 
Q 2328 2753 2575 2939 
Q 2822 3125 2822 3475 
Q 2822 3834 2567 4026 
Q 2313 4219 1838 4219 
Q 1578 4219 1281 4162 
Q 984 4106 628 3988 
L 628 4550 
Q 988 4650 1302 4700 
Q 1616 4750 1894 4750 
Q 2613 4750 3031 4423 
Q 3450 4097 3450 3541 
Q 3450 3153 3228 2886 
Q 3006 2619 2597 2516 
z
" transform="scale(0.015625)"/>
      </defs>
      <use xlink:href="#DejaVuSans-31"/>
      <use xlink:href="#DejaVuSans-33" x="63.623047"/>
      <use xlink:href="#DejaVuSans-2e" x="127.246094"/>
      <use xlink:href="#DejaVuSans-31" x="159.033203"/>
      <use xlink:href="#DejaVuSans-34" x="222.65625"/>
     </g>
    </g>
   </g>
   <g id="text_19">
    <g clip-path="url(#p902737197c)">
     <!-- 13.29 -->
     <g transform="translate(222.362423 242.197937) rotate(-270) scale(0.1 -0.1)">
      <use xlink:href="#DejaVuSans-31"/>
      <use xlink:href="#DejaVuSans-33" x="63.623047"/>
      <use xlink:href="#DejaVuSans-2e" x="127.246094"/>
      <use xlink:href="#DejaVuSans-32" x="159.033203"/>
      <use xlink:href="#DejaVuSans-39" x="222.65625"/>
     </g>
    </g>
   </g>
   <g id="text_20">
    <g clip-path="url(#p902737197c)">
     <!-- 13.29 -->
     <g transform="translate(174.161954 285.205937) rotate(-270) scale(0.1 -0.1)">
      <use xlink:href="#DejaVuSans-31"/>
      <use xlink:href="#DejaVuSans-33" x="63.623047"/>
      <use xlink:href="#DejaVuSans-2e" x="127.246094"/>
      <use xlink:href="#DejaVuSans-32" x="159.033203"/>
      <use xlink:href="#DejaVuSans-39" x="222.65625"/>
     </g>
    </g>
   </g>
  </g>
 </g>
 <defs>
  <clipPath id="p902737197c">
   <rect x="57.6" y="41.472" width="357.12" height="266.112"/>
  </clipPath>
 </defs>
</svg>
